<svg xmlns="http://www.w3.org/2000/svg" version="1.0" width="800" height="250" viewBox="0 0 800.000000 250.000000" preserveAspectRatio="xMidYMid meet">
<metadata>
Created by potrace 1.10, written by Peter Selinger 2001-2011
</metadata>
<g transform="translate(0.000000,250.000000) scale(0.010000,-0.010000)" fill="#555555" stroke="none">
<path d="M24250 23180 c-2479 -323 -4478 -730 -4800 -975 -55 -42 -190 -101 -300 -131 -110 -30 -627 -212 -1150 -403 -522 -191 -1107 -406 -1300 -476 -192 -70 -575 -226 -850 -346 -618 -269 -1085 -450 -2050 -795 -412 -147 -952 -352 -1200 -455 -1165 -484 -2700 -839 -2700 -625 0 56 132 156 293 223 416 172 573 391 635 884 106 836 -272 1452 -1122 1828 -245 108 -601 316 -792 462 -342 261 -1617 829 -1860 829 -69 0 -245 -111 -391 -247 -213 -198 -332 -235 -590 -184 -178 34 -346 97 -374 139 -83 124 -1432 277 -1612 183 -196 -102 -288 -609 -157 -861 51 -99 228 -303 393 -454 211 -191 260 -286 164 -317 -370 -119 -2337 -239 -3102 -189 -1090 72 -1409 2 -1366 -299 31 -220 40 -221 2046 -216 1484 3 2057 38 2170 132 85 71 258 114 384 96 173 -25 239 -108 264 -333 53 -475 279 -650 839 -650 270 0 587 -51 704 -114 138 -74 735 -107 1681 -94 1310 18 1474 2 1533 -153 68 -175 -81 -335 -315 -337 -69 -1 -125 -76 -125 -166 0 -146 -119 -159 -1025 -111 -564 29 -1137 99 -1275 155 -137 55 -520 159 -850 231 -330 72 -712 188 -850 259 -137 71 -372 129 -520 129 -149 1 -529 69 -846 151 -749 195 -1234 197 -1234 4 0 -168 519 -335 1550 -499 680 -108 907 -263 500 -340 -191 -37 -345 -185 -348 -336 -3 -135 436 -479 611 -479 161 0 487 -346 487 -516 0 -173 -1955 283 -2734 638 l-483 220 -173 -228 -172 -229 -589 207 c-323 114 -740 353 -925 532 l-338 326 32 -400 c28 -351 77 -421 407 -576 483 -226 475 -292 -25 -212 -356 57 -400 41 -400 -139 0 -223 -56 -210 1892 -410 744 -77 1164 -77 1471 1 311 78 561 77 908 -4 1001 -235 1490 -225 2072 41 314 144 728 249 980 249 239 0 703 73 1031 161 837 227 1711 429 2296 531 685 119 1723 440 2203 680 218 110 1004 393 1747 630 743 237 1463 514 1600 615 262 192 1375 608 3550 1328 1854 613 2085 668 3200 761 550 46 1248 126 1550 178 667 115 3018 -29 4100 -250 695 -142 973 -211 2200 -544 625 -170 2648 -1223 3169 -1650 425 -348 560 -640 296 -640 -74 0 -490 263 -925 586 -434 322 -947 652 -1140 735 -1201 514 -1543 644 -1950 741 -55 13 -527 125 -1050 250 -1612 386 -4526 283 -6550 -231 -440 -111 -980 -234 -1200 -273 -220 -39 -602 -141 -850 -227 -247 -85 -630 -212 -850 -280 -220 -68 -535 -180 -700 -249 -1282 -534 -1464 -580 -1793 -455 -313 119 -546 27 -1007 -397 -377 -347 -1585 -804 -3441 -1302 -793 -213 -1558 -432 -1700 -486 -318 -122 -1632 -413 -2109 -468 -192 -22 -620 -88 -950 -146 -330 -58 -870 -146 -1200 -195 -330 -50 -792 -133 -1026 -186 -234 -53 -447 -61 -474 -18 -26 43 -915 69 -1974 57 -1059 -12 -2061 11 -2226 51 -165 41 -491 96 -725 124 l-425 50 0 -341 0 -340 2625 2 c1444 1 3413 43 4375 94 2779 146 4970 135 9500 -45 688 -28 1624 -54 2081 -58 792 -7 830 -18 800 -223 -65 -448 -350 -489 -2931 -415 -1320 38 -2760 87 -3200 109 -440 22 -2217 58 -3950 81 -1732 22 -4230 86 -5550 142 -1320 56 -2704 105 -3075 108 l-675 5 0 -1550 c0 -1468 10 -1550 194 -1550 107 0 220 42 252 93 65 106 801 322 1732 509 345 70 652 165 681 212 29 47 250 86 490 86 241 0 767 71 1169 158 818 176 3259 205 3424 40 54 -54 247 -98 428 -98 247 0 330 -44 332 -175 1 -146 16 -151 93 -29 80 126 119 123 282 -25 218 -198 489 -224 546 -53 21 65 114 89 206 54 100 -39 144 -126 109 -218 -44 -114 7 -154 195 -154 141 0 277 35 304 79 67 108 521 78 681 -45 73 -55 290 -162 482 -236 193 -75 508 -233 700 -351 193 -118 472 -245 622 -282 295 -73 1378 -1119 1378 -1331 0 -71 110 -158 243 -191 170 -43 225 -109 183 -220 -46 -118 -18 -141 113 -91 139 53 161 27 111 -133 -37 -115 -18 -199 45 -199 327 0 -687 -2356 -1261 -2933 -662 -664 -1711 -1467 -1917 -1467 -48 0 -166 -89 -265 -197 -98 -109 -274 -228 -390 -264 -117 -37 -446 -173 -733 -304 -575 -262 -2029 -446 -2029 -257 0 163 293 421 482 426 92 2 416 137 718 300 303 163 618 296 700 296 179 1 715 358 1616 1074 591 470 1152 1107 1734 1967 110 163 278 411 374 552 218 323 376 681 376 851 0 266 -307 856 -445 856 -231 0 -278 -183 -111 -422 258 -368 183 -664 -399 -1569 -571 -888 -1403 -1826 -2099 -2366 -435 -337 -2234 -1143 -2552 -1143 -238 0 -420 389 -270 575 55 69 192 125 305 125 184 0 1302 558 1601 798 1517 1222 1754 1499 2164 2526 252 633 222 1113 -66 1057 -121 -23 -170 -151 -182 -481 -24 -658 -279 -1139 -976 -1843 -971 -980 -1872 -1501 -3120 -1801 -450 -108 -772 -249 -900 -395 -110 -125 -335 -320 -500 -434 -165 -114 -499 -392 -741 -617 -424 -393 -911 -608 -1377 -609 -121 -1 -345 -49 -499 -107 -215 -82 -401 -69 -806 59 -290 91 -549 201 -576 245 -27 44 187 193 475 332 288 138 679 368 868 511 190 142 384 259 432 259 198 0 2268 1761 2826 2404 574 661 1304 1980 1170 2114 -144 144 -422 -22 -424 -254 -1 -118 -90 -326 -198 -464 -108 -137 -198 -317 -201 -400 -2 -82 -138 -281 -302 -442 -163 -160 -297 -325 -297 -366 0 -41 -349 -364 -775 -717 -1943 -1609 -3078 -2340 -3770 -2428 l-330 -43 49 437 c40 355 9 476 -169 654 -276 276 -181 405 523 707 287 124 778 399 1092 611 313 213 616 387 675 387 58 0 105 42 105 93 0 52 80 119 177 150 98 31 315 182 484 336 169 154 447 349 619 432 550 266 1294 1389 920 1389 -55 0 -100 -47 -100 -103 0 -57 -129 -226 -286 -375 -932 -885 -1294 -1190 -1542 -1299 -153 -67 -304 -189 -336 -272 -31 -83 -110 -151 -174 -151 -65 0 -611 -243 -1215 -540 -603 -297 -1322 -614 -1597 -704 -275 -91 -725 -286 -1000 -435 -469 -254 -502 -298 -531 -706 -20 -282 21 -493 117 -600 322 -357 329 -1415 9 -1415 -105 0 -145 -122 -145 -445 l0 -445 875 -20 c481 -11 3180 -23 5998 -28 4173 -6 5133 -33 5174 -141 29 -74 98 -105 155 -70 168 104 1357 178 2748 171 2393 -11 6372 -124 6466 -182 51 -31 158 -3 239 64 103 86 399 102 1020 57 845 -62 1822 -141 1925 -157 28 -4 -12 -46 -88 -95 -108 -68 -90 -102 82 -157 139 -44 283 -16 388 76 124 108 485 153 1368 172 1387 28 1609 28 1950 -5 138 -13 642 3 1122 36 691 48 902 30 1018 -85 190 -190 460 -187 460 4 0 129 317 150 2250 150 1433 0 2250 -36 2250 -100 0 -156 272 -118 335 47 44 115 189 135 686 92 346 -29 684 -71 751 -92 67 -21 148 5 181 57 90 146 707 114 838 -43 190 -229 474 -250 646 -49 192 224 494 243 692 44 118 -118 319 -127 1132 -53 544 49 1439 97 1989 107 1073 18 8500 -71 8500 -102 0 -43 6384 -119 7450 -90 2008 56 16278 -57 17600 -139 453 -29 960 6 1280 87 291 74 768 134 1060 134 527 0 1119 144 1310 319 55 50 104 449 109 886 7 682 -15 795 -160 795 -212 0 -596 -413 -436 -469 83 -29 81 -151 -10 -460 -90 -306 -196 -447 -387 -515 -318 -113 -416 -38 -274 209 219 380 508 1252 508 1531 0 429 85 578 460 810 187 116 340 274 340 352 0 78 -17 142 -39 142 -61 0 -487 -237 -789 -440 -246 -165 -296 -170 -450 -39 -94 82 -382 247 -638 368 -256 121 -489 281 -518 356 -29 74 -224 190 -434 258 -210 67 -451 182 -535 256 -271 234 -1282 637 -2249 894 -517 138 -1009 277 -1094 309 -108 42 -154 -2 -154 -145 0 -208 84 -252 700 -368 418 -79 2038 -624 2420 -814 149 -74 362 -135 475 -135 113 0 205 -62 205 -139 0 -76 169 -217 375 -314 206 -97 533 -297 725 -445 193 -148 426 -296 519 -330 325 -118 486 -495 378 -887 -159 -574 -652 -1183 -973 -1199 -234 -12 -1405 -7 -2080 9 -144 4 -261 132 -392 430 -472 1080 -754 1642 -921 1840 -456 540 -2314 1178 -4181 1434 -1148 158 -2290 652 -2469 1069 -166 386 -179 397 -285 229 -440 -696 641 -1363 2854 -1760 3376 -605 3866 -886 4504 -2587 145 -385 311 -758 370 -829 87 -104 -117 -125 -1059 -109 -641 11 -1196 -9 -1232 -46 -87 -87 -533 -85 -533 2 0 179 441 1301 570 1448 357 409 1093 290 1148 -186 39 -338 318 -381 364 -55 18 124 -16 225 -75 225 -59 0 -107 83 -107 185 0 363 -328 531 -893 457 -460 -62 -546 -113 -797 -480 -155 -227 -335 -577 -401 -779 -155 -477 -259 -546 -859 -568 -403 -16 -465 2 -319 91 142 87 166 180 112 427 -89 405 -574 1268 -869 1545 -259 243 -1408 788 -2374 1125 -1202 420 -1584 794 -1830 1797 -34 138 -128 340 -209 450 -143 194 -149 195 -220 10 -45 -115 21 -461 167 -884 187 -539 347 -793 712 -1135 259 -243 541 -441 626 -441 85 0 154 -41 154 -91 0 -50 188 -123 418 -162 230 -39 721 -223 1092 -409 371 -186 719 -338 774 -338 176 0 700 -498 874 -830 92 -176 199 -506 237 -733 l70 -413 -558 -68 c-1337 -164 -3383 -227 -4407 -136 -357 31 -865 24 -1127 -16 -409 -62 -1539 45 -1664 158 -23 20 37 124 133 230 96 106 253 446 349 756 143 461 157 676 77 1183 -212 1343 -46 2024 696 2856 l389 436 -31 -436 c-21 -298 33 -548 168 -787 110 -192 270 -496 356 -675 86 -179 197 -325 247 -325 50 0 193 -169 319 -375 125 -206 352 -532 503 -725 152 -192 344 -515 428 -716 136 -327 136 -419 0 -877 -84 -281 -126 -553 -94 -605 105 -171 357 18 511 385 212 502 107 1068 -308 1669 -187 272 -417 629 -510 794 -93 165 -324 472 -513 683 -740 826 -895 1814 -425 2710 226 430 270 463 548 412 203 -37 558 43 1090 248 703 271 1023 471 2102 1317 161 126 431 298 600 380 168 83 419 225 556 318 138 92 707 351 1265 575 911 365 1103 407 1869 407 470 0 880 42 913 94 149 242 4284 -130 4629 -415 140 -116 788 -374 949 -377 41 -1 75 107 75 241 0 165 -73 267 -225 315 l-225 72 225 100 c185 83 225 180 225 547 0 390 -24 440 -190 397 -283 -74 -1235 121 -1426 292 -147 132 -199 131 -457 -2 -381 -197 -563 -425 -491 -613 72 -187 -159 -195 -943 -33 -446 92 -772 89 -1506 -13 -515 -72 -1072 -128 -1237 -124 -165 4 -480 10 -700 14 -536 10 -2532 -675 -2659 -913 -172 -321 -537 -219 -929 260 -199 243 -362 463 -362 490 0 27 158 141 350 255 280 165 350 268 350 516 0 171 -47 397 -104 504 -56 106 -68 200 -25 209 198 41 1101 90 2479 133 825 25 1995 73 2600 106 605 32 1942 75 2972 94 1030 20 1963 64 2074 100 180 57 200 140 181 757 l-21 694 -636 0 c-465 0 -626 -34 -596 -125 23 -69 185 -139 361 -156 175 -18 297 -67 271 -110 -112 -180 -3991 28 -4306 231 -110 71 -447 160 -750 198 -548 69 -1760 420 -1950 565 -108 82 -1374 471 -1700 522 -110 17 -255 65 -323 107 -67 42 -360 105 -650 139 -290 34 -572 115 -627 180 -111 132 -1033 505 -1500 608 -165 36 -713 262 -1218 503 -505 241 -1006 438 -1113 438 -107 0 -246 62 -308 137 -155 186 -1712 819 -2511 1020 -358 90 -934 178 -1281 196 -347 18 -684 72 -750 121 -301 224 -2219 524 -3219 505 -385 -8 -1037 20 -1450 61 -642 63 -1798 1 -3728 -201 -608 -63 -2079 -332 -2188 -399 -55 -34 -377 -125 -717 -204 -870 -201 -2718 -1148 -3490 -1790 -359 -298 -799 -769 -978 -1048 -353 -550 -478 -579 -683 -159 -73 151 -197 298 -275 328 -77 30 -141 160 -141 288 0 129 -107 358 -238 511 -214 249 -265 265 -500 158 -144 -66 -262 -188 -262 -272 0 -175 -157 -203 -255 -44 -37 59 28 174 144 256 282 197 266 490 -43 799 -247 247 -262 250 -517 82 -259 -169 -266 -167 -528 154 -208 254 -314 310 -483 257 -206 -66 -218 -39 -218 479 0 669 -68 865 -297 865 -97 0 -292 91 -434 203 -168 132 -340 183 -489 146 -127 -32 -610 -90 -1075 -129 -822 -68 -850 -79 -1038 -401 -106 -183 -201 -525 -211 -761 -10 -247 -104 -546 -219 -705 -199 -273 -206 -274 -522 -111 -380 197 -471 156 -661 -297 -131 -315 -169 -337 -473 -280 -182 34 -443 159 -581 279 -812 707 -2154 1440 -3219 1760 -402 121 -806 257 -898 304 -202 101 -1384 381 -1878 443 -195 25 -850 114 -1455 197 -1143 157 -1879 165 -2900 32z m-17865 -1109 c106 -88 193 -43 400 209 410 499 903 422 1610 -250 127 -121 484 -337 793 -481 309 -144 630 -297 712 -340 219 -115 397 -511 399 -888 1 -293 -19 -317 -192 -225 -107 58 -818 104 -1588 104 -981 0 -1519 44 -1817 149 -233 82 -466 123 -519 90 -129 -80 -783 49 -783 154 0 46 90 107 200 136 201 53 287 371 100 371 -55 0 -100 66 -100 148 0 81 -122 227 -271 325 -396 259 -923 851 -926 1041 -3 143 119 126 921 -132 508 -164 986 -348 1061 -411z m33015 164 c0 -25 -71 -183 -159 -351 -87 -169 -120 -345 -73 -392 146 -146 543 24 637 272 141 370 395 301 395 -108 0 -412 -121 -506 -650 -506 -343 0 -405 -33 -433 -233 -45 -317 235 -600 672 -678 390 -70 911 -333 911 -461 0 -43 72 -78 160 -78 89 0 361 -135 606 -300 244 -165 467 -300 496 -300 29 0 116 -64 195 -142 78 -79 245 -225 371 -325 257 -206 602 -735 772 -1184 91 -241 88 -275 -14 -174 -69 69 -203 125 -298 125 -94 0 -389 203 -654 450 -266 248 -548 450 -626 450 -187 0 -508 -294 -508 -465 0 -76 -106 -135 -242 -135 -408 0 -561 102 -505 335 66 276 -294 865 -528 865 -98 0 -222 101 -276 224 -55 124 -177 239 -272 257 -175 33 -558 -286 -745 -621 -87 -154 -137 -164 -326 -63 -329 176 -636 -125 -584 -573 32 -273 1 -340 -180 -385 -433 -109 -790 -4 -825 241 -19 138 -135 270 -288 328 -477 181 -852 -90 -869 -629 -8 -259 -61 -328 -301 -393 -161 -42 -324 -58 -363 -34 -39 24 -75 258 -80 519 -9 445 21 504 491 945 275 258 701 567 946 686 245 118 471 256 502 307 31 50 164 91 295 91 131 0 266 45 300 100 34 55 160 101 281 103 352 4 840 496 913 922 46 266 29 375 -59 375 -68 0 -41 60 61 135 159 116 169 179 70 461 -62 180 -95 357 -72 394 44 71 856 19 856 -55z m16285 -160 c84 -84 538 -132 1395 -146 1245 -21 2220 -167 2220 -332 0 -46 -131 -176 -290 -290 l-290 -207 -207 350 c-325 550 -611 429 -915 -387 -128 -344 -222 -433 -600 -568 -280 -99 -542 -131 -698 -84 -414 125 -1330 532 -1650 733 -165 104 -396 247 -514 317 -347 209 -1201 281 -1668 141 -677 -202 -893 -328 -1332 -776 -340 -346 -414 -490 -406 -782 12 -412 -150 -555 -538 -477 -297 59 -480 -119 -303 -296 167 -167 134 -271 -84 -271 -332 0 -737 645 -757 1203 -9 269 -75 559 -147 645 -71 86 -112 172 -90 191 79 69 1460 445 2239 609 440 93 862 189 938 212 76 24 571 64 1100 88 1154 54 2246 154 2304 211 72 71 164 45 293 -84z m-17495 -390 c61 -173 110 -324 110 -336 0 -11 -135 -16 -300 -10 -305 11 -373 154 -239 503 99 258 312 180 429 -157z m-11065 16 c601 -1 675 -22 675 -195 0 -276 -138 -326 -450 -165 -148 78 -569 170 -935 206 -749 73 -1302 -74 -1942 -516 -497 -344 -1185 -410 -1877 -180 -617 205 -569 250 554 507 990 226 925 217 1940 283 461 30 865 81 897 113 32 32 149 33 260 3 112 -30 507 -55 878 -56z m33552 -395 c330 -55 326 -60 -447 -444 -429 -213 -982 -483 -1230 -600 -247 -116 -529 -275 -626 -353 -96 -78 -209 -105 -250 -61 -41 43 -16 100 55 125 70 25 250 147 400 271 149 123 531 389 850 591 318 202 604 434 635 515 31 82 107 118 168 80 61 -38 261 -94 445 -124z m-31254 -313 c133 -580 -70 -1986 -257 -1790 -25 26 -3 317 50 647 63 401 60 739 -11 1019 -132 529 -132 557 17 507 68 -23 158 -195 201 -383z m873 107 c87 0 325 -90 530 -200 205 -110 475 -201 599 -202 124 -1 338 -90 475 -198 138 -108 311 -197 385 -198 74 -1 340 -183 591 -404 252 -222 562 -429 691 -461 266 -67 302 -255 83 -437 -122 -101 -150 -96 -150 26 0 172 -687 761 -1191 1020 -249 128 -499 164 -924 134 -466 -34 -594 -11 -636 114 -29 86 -232 288 -451 450 -219 162 -398 362 -398 445 0 117 27 124 120 31 66 -66 190 -120 276 -120z m23554 -89 c220 -101 526 -302 680 -447 154 -145 366 -264 470 -264 216 0 675 -181 900 -354 179 -139 931 -379 1725 -552 316 -69 575 -163 575 -208 0 -45 -236 -217 -525 -383 -430 -247 -639 -301 -1153 -302 -353 -1 -791 69 -1000 158 -226 96 -743 171 -1316 189 -754 25 -969 66 -1070 204 -89 122 -201 153 -381 108 -286 -72 -339 96 -145 458 85 159 76 239 -37 352 -129 129 -203 128 -613 -12 -594 -201 -560 -210 -560 152 0 372 497 890 855 890 128 0 261 45 295 100 100 163 868 110 1300 -89z m-26421 -278 c527 -265 870 -725 871 -1169 0 -233 -32 -272 -175 -212 -769 324 -1697 640 -1955 666 -264 27 -351 -27 -589 -368 -431 -619 -308 -904 319 -739 254 66 147 -676 -148 -1027 -139 -165 -252 -341 -252 -392 0 -50 -56 -92 -125 -93 -69 0 -253 -67 -410 -149 -502 -262 -1065 66 -1065 620 0 459 -514 1332 -990 1680 -253 185 -547 419 -654 518 -321 300 -589 425 -919 428 -172 2 -373 77 -447 166 -123 148 -86 156 412 89 302 -40 661 -133 798 -205 491 -259 862 -310 1730 -240 610 50 937 124 1068 242 103 94 338 251 520 350 440 238 1356 163 2011 -165z m35773 82 c790 -226 2498 -1024 2498 -1168 0 -57 -124 -177 -276 -267 -267 -157 -286 -153 -601 129 -190 169 -441 292 -600 293 -346 1 -478 89 -569 380 -65 210 -112 226 -488 166 -914 -145 -1293 -287 -1635 -610 -283 -267 -346 -392 -312 -623 l43 -290 -699 -65 c-384 -35 -751 -109 -817 -163 -79 -66 -240 -48 -486 55 -203 85 -412 128 -464 95 -186 -115 -93 111 104 253 110 79 200 247 200 372 0 266 71 285 297 80 90 -81 271 -160 402 -175 208 -23 251 29 325 393 94 460 330 615 666 436 354 -190 553 -113 1019 394 253 275 524 500 603 500 78 0 434 -83 790 -185z m-25202 -9 c0 -52 -45 -122 -100 -156 -55 -34 -100 8 -100 94 0 86 45 156 100 156 55 0 100 -42 100 -94z m-17569 -244 c57 -148 -105 -362 -276 -362 -58 -1 -326 -113 -597 -250 -499 -253 -1000 -325 -1103 -159 -31 51 85 152 256 225 172 74 566 256 876 404 649 311 772 332 844 142z m20619 -113 c0 -280 -293 -249 -333 35 -26 181 8 226 150 199 104 -21 183 -121 183 -234z m6742 -289 c-64 -256 -96 -684 -70 -953 49 -516 172 -714 1003 -1627 356 -391 473 -599 469 -826 -6 -293 -10 -295 -102 -67 -136 340 -563 837 -874 1018 -148 86 -408 423 -580 750 l-311 595 150 750 c130 646 283 974 400 857 17 -18 -21 -242 -85 -497z m-11517 15 c-62 -187 -341 -207 -409 -30 -44 115 6 155 195 155 160 0 240 -47 214 -125z m5874 27 c70 -114 -116 -502 -242 -502 -123 0 -211 274 -143 450 65 169 293 200 385 52z m4434 -864 c-123 -378 -280 -745 -347 -814 -242 -247 -251 -511 -28 -813 278 -376 651 -479 904 -250 113 102 188 124 188 53 0 -65 158 -192 350 -284 193 -92 350 -197 350 -234 0 -36 -670 -66 -1489 -65 l-1488 2 238 428 c132 235 239 559 239 721 0 247 -48 303 -307 354 -276 56 -293 80 -175 247 254 358 1670 1463 1760 1373 16 -17 -72 -339 -195 -718z m-24817 412 c145 -75 302 -196 348 -268 126 -200 102 -822 -39 -1010 -175 -233 -971 -500 -1120 -376 -65 54 -277 72 -472 40 -311 -50 -380 -21 -569 244 -240 337 -268 526 -101 693 63 63 119 218 125 344 26 512 1105 708 1828 333z m41634 50 c0 -201 408 -500 683 -500 170 0 373 -97 511 -244 229 -243 229 -243 42 -647 -213 -463 -347 -503 -604 -179 -100 126 -323 333 -495 460 -289 212 -382 225 -1225 172 -502 -31 -912 -32 -912 0 0 184 369 629 637 768 276 143 498 191 1188 254 96 9 175 -29 175 -84z m-31086 -257 c463 -240 919 -713 853 -885 -33 -87 -147 -158 -252 -158 -431 0 -506 -506 -137 -926 222 -252 97 -315 -647 -328 -547 -9 -667 19 -704 162 -25 96 -130 196 -234 223 -171 45 -1428 -329 -2443 -726 -298 -116 -675 -148 -1475 -124 -591 17 -1075 63 -1074 100 1 118 525 319 828 319 159 0 401 88 537 195 194 152 303 174 497 100 348 -132 337 -143 337 343 0 473 95 597 535 703 157 37 530 253 830 479 953 720 1823 898 2549 523z m3063 -24 c22 -66 -65 -158 -194 -206 -262 -98 -511 -40 -426 99 31 50 99 65 151 33 51 -32 121 15 155 103 68 176 251 159 314 -29z m-17859 -244 c90 -189 121 -388 75 -475 -43 -82 -103 -229 -133 -325 -41 -134 -165 -176 -532 -177 -303 -2 -554 -66 -687 -175 -205 -170 -541 -799 -541 -1013 0 -169 -100 -132 -306 115 -103 124 -189 326 -191 450 -2 124 -48 225 -102 225 -133 0 -15 727 134 827 63 42 261 65 440 52 208 -15 404 47 546 174 210 186 964 633 1085 642 32 3 127 -141 212 -320z m9687 -59 c465 -156 841 -336 835 -400 -5 -64 -17 -248 -25 -408 -12 -240 -78 -313 -365 -408 -192 -64 -350 -157 -350 -208 0 -50 -39 -92 -86 -92 -107 0 -714 1216 -714 1429 0 85 -124 200 -275 255 -222 81 -236 102 -70 108 112 4 585 -120 1050 -276z m15761 127 c79 -206 -89 -366 -299 -286 -196 76 -221 304 -42 377 217 87 280 70 341 -91z m9167 -135 c58 -288 139 -392 498 -640 175 -120 174 -135 -17 -377 -109 -139 -237 -402 -284 -585 l-86 -332 -328 373 c-292 332 -312 392 -183 538 160 182 61 615 -140 615 -63 0 -88 -67 -57 -150 64 -168 -89 -207 -187 -48 -35 56 -107 74 -161 40 -54 -33 -186 41 -293 164 -331 382 -264 461 466 549 267 32 505 78 529 101 106 107 189 22 243 -248z m-32776 -408 c8 -517 -49 -600 -249 -360 -64 77 -317 200 -562 272 -245 72 -446 163 -446 202 0 38 -27 141 -61 228 -51 135 41 158 625 158 l686 0 7 -500z m-12757 -5 c413 -103 1043 -192 1400 -196 644 -7 648 -8 364 -162 -421 -228 -2469 -318 -2670 -117 -82 82 -252 204 -379 272 -224 120 -226 130 -52 322 120 133 247 177 383 134 112 -35 542 -149 954 -253z m16365 7 c32 -164 121 -349 197 -412 125 -103 207 -990 92 -990 -151 0 -1154 428 -1154 492 0 42 83 152 184 244 102 92 244 346 316 565 157 474 283 509 365 101z m44435 210 c0 -48 -56 -132 -125 -186 -169 -134 -975 -230 -975 -116 0 49 62 90 138 90 76 0 194 68 262 150 132 160 700 210 700 62z m-33122 -297 c124 -78 70 -415 -66 -415 -111 0 -400 379 -337 442 81 81 251 70 403 -27z m5005 -261 c-27 -398 67 -544 239 -372 128 128 518 165 458 43 -20 -41 -100 -202 -178 -357 -180 -361 -91 -421 746 -507 722 -74 952 -15 952 244 0 101 45 211 101 245 144 90 429 -227 362 -403 -38 -99 8 -147 145 -147 111 0 388 -90 616 -200 660 -319 1013 -224 1209 327 46 132 127 162 311 116 194 -49 303 0 494 222 428 498 376 196 -89 -512 -247 -375 -449 -718 -449 -762 0 -147 -194 -201 -374 -105 -364 195 -2503 414 -4042 414 -2004 0 -4411 -308 -5506 -704 -464 -167 -685 -76 -668 277 7 152 -105 611 -249 1020 -305 866 -305 868 -116 711 80 -66 196 -274 258 -462 140 -424 373 -441 514 -37 116 334 316 347 363 24 19 -127 -67 -283 -225 -407 -140 -110 -255 -251 -255 -311 0 -147 279 -137 1300 44 468 84 953 169 1080 190 126 21 284 78 350 126 66 48 480 100 920 117 891 32 1140 141 918 401 -316 370 -302 423 98 391 286 -22 386 8 390 120 10 261 154 600 254 600 53 0 86 -156 73 -346z m26667 246 c34 -55 -31 -100 -144 -100 -113 0 -206 45 -206 100 0 55 65 100 144 100 79 0 172 -45 206 -100z m-14925 -630 c261 -278 475 -533 475 -567 0 -34 346 -374 769 -757 423 -383 862 -804 975 -935 385 -448 605 -632 1338 -1122 403 -269 833 -489 955 -489 255 0 2571 -1156 2645 -1321 18 -39 159 -46 315 -15 203 41 372 -9 598 -176 246 -182 333 -205 396 -102 64 103 166 108 470 23 627 -174 823 -133 1575 330 537 330 845 451 1239 485 494 44 533 30 664 -231 132 -266 129 -275 -75 -199 -251 93 -1066 -122 -1526 -404 -171 -104 -396 -191 -500 -193 -177 -3 -178 -11 -13 -136 333 -253 206 -377 -358 -351 -480 22 -621 -26 -1437 -493 -497 -284 -937 -517 -978 -517 -41 0 -396 -150 -789 -333 -1248 -584 -2497 -967 -3357 -1029 -1143 -82 -1183 -55 -3136 2095 l-981 1080 68 687 c91 927 29 1106 -503 1442 -250 158 -454 300 -454 316 0 16 47 152 104 303 57 150 104 807 103 1458 0 1145 6 1181 195 1080 108 -58 221 -205 252 -328 31 -123 222 -334 426 -469 203 -134 757 -612 1229 -1061 473 -450 1057 -946 1299 -1104 242 -158 508 -340 591 -405 787 -617 1241 -895 2030 -1245 1236 -548 2086 -906 2215 -932 217 -44 1020 -275 1434 -413 499 -165 860 -185 772 -42 -34 55 -138 101 -231 102 -93 1 -279 87 -413 190 -134 103 -301 165 -371 138 -180 -69 -1093 242 -1685 575 -275 154 -755 375 -1067 492 -311 116 -678 299 -815 407 -137 108 -316 196 -397 196 -161 0 -453 143 -921 451 -463 304 -491 329 -1681 1484 -616 597 -1441 1326 -1834 1619 -852 635 -925 733 -681 912 269 196 535 73 1071 -496z m-36372 55 c1 -261 38 -549 81 -640 68 -140 3 -170 -428 -200 -603 -42 -706 -16 -706 178 0 81 -113 251 -251 379 l-251 233 276 102 c152 56 456 169 676 252 586 222 601 214 603 -304z m28948 172 c69 -167 97 -332 62 -367 -34 -35 -74 -45 -88 -22 -272 453 -352 692 -232 692 73 0 189 -136 258 -303z m-25142 -12 c41 -67 -59 -225 -239 -375 -171 -143 -340 -383 -375 -533 -65 -271 -68 -272 -880 -250 -448 13 -808 46 -799 73 8 28 72 175 142 327 125 276 188 304 923 423 209 34 456 145 550 247 192 211 572 260 678 88z m36742 -14 c569 -153 1024 -476 1302 -925 263 -427 648 -638 1303 -715 l496 -59 -45 -500 c-61 -668 -437 -1089 -896 -1003 -400 74 -678 330 -965 888 -340 662 -818 1099 -1468 1343 -675 254 -1230 284 -1751 96 -204 -74 -405 -101 -445 -61 -110 109 255 725 502 849 448 224 1312 262 1967 87z m3399 14 c138 4 374 -42 525 -101 222 -87 275 -172 275 -434 0 -179 67 -382 150 -450 83 -68 150 -91 150 -50 0 41 67 18 150 -50 324 -269 74 -1844 -419 -2636 -428 -687 -818 -973 -1401 -1025 -380 -34 -1332 266 -1306 411 9 55 172 153 361 218 536 184 1385 815 1497 1112 57 149 123 570 148 937 41 605 19 707 -240 1100 -156 238 -410 535 -562 659 -234 191 -254 242 -128 327 83 55 240 71 350 37 110 -34 313 -59 450 -55z m3140 -79 c-219 -511 150 -1408 635 -1544 362 -101 398 -177 170 -366 -131 -109 -222 -62 -600 308 -244 241 -469 507 -499 592 -30 85 -307 356 -615 602 -633 507 -602 546 436 558 453 5 529 -19 473 -150z m1624 -24 c378 -189 436 -260 436 -537 0 -381 -159 -535 -635 -612 -262 -42 -445 0 -714 166 -325 201 -355 256 -298 538 68 337 374 663 622 663 84 0 349 -98 589 -218z m7572 -241 c268 -77 561 -141 650 -142 90 0 299 -72 464 -160 165 -89 413 -198 550 -244 138 -46 430 -154 650 -241 394 -154 384 -156 -600 -97 -550 33 -2027 75 -3281 94 -1866 28 -2325 63 -2522 192 -132 86 -346 157 -476 157 -130 0 -345 119 -479 264 l-242 263 300 -72 c165 -39 642 -95 1061 -123 615 -42 826 -17 1100 131 186 100 632 206 989 235 643 52 892 18 1836 -257z m-44353 -51 c154 -247 168 -227 -308 -424 -429 -178 -451 -141 -176 309 232 381 307 399 484 115z m31103 -302 c617 -392 738 -607 293 -522 -731 139 -1020 287 -1215 620 l-196 337 330 -73 c181 -39 536 -203 788 -362z m2901 -229 c545 -377 1613 -1713 1613 -2016 0 -61 -259 -170 -575 -243 -664 -152 -1124 -528 -1734 -1419 -215 -313 -428 -592 -475 -621 -112 -69 -816 127 -816 228 0 43 114 139 253 214 364 195 913 900 1221 1570 431 936 314 2224 -220 2427 -162 61 -230 147 -194 242 80 208 378 246 454 59 35 -87 248 -285 473 -441z m-40637 196 c275 -136 777 -368 1117 -518 455 -200 628 -331 660 -502 25 -126 17 -258 -16 -291 -34 -33 -61 -113 -61 -177 0 -78 -291 -127 -872 -146 -838 -28 -874 -20 -926 200 -29 126 -42 362 -28 524 35 399 -324 536 -1029 391 -277 -57 -526 -66 -554 -21 -83 133 261 769 443 821 278 80 740 -23 1266 -281z m16350 201 c0 -79 -40 -169 -90 -200 -102 -63 -227 194 -136 284 107 108 226 63 226 -84z m28978 -339 c27 -82 -31 -91 -195 -31 -128 48 -249 169 -269 270 -34 170 -19 172 194 30 127 -84 248 -205 270 -269z m-53646 -25 c-136 -136 -553 -83 -605 76 -22 67 82 133 242 153 335 43 519 -73 363 -229z m10687 -86 c182 -107 669 -269 1081 -359 413 -91 930 -207 1150 -259 565 -132 2573 -379 3023 -371 969 17 5478 -220 5501 -289 77 -232 -171 -267 -2024 -285 -1100 -11 -3496 -53 -5325 -94 l-3325 -75 0 347 c0 198 -128 580 -298 888 -425 770 -389 853 217 497z m32484 -207 c740 -220 1032 -500 1408 -1350 109 -247 360 -606 559 -799 231 -224 306 -350 208 -350 -85 0 -210 -68 -278 -150 -68 -82 -153 -150 -187 -149 -99 1 -313 517 -313 755 0 261 -639 1008 -1166 1363 -491 330 -1477 464 -1731 234 -152 -138 -191 -129 -403 97 -129 138 -216 251 -192 252 23 0 222 66 442 145 545 197 863 187 1653 -48z m-23746 -310 c111 -43 -168 -76 -657 -78 l-850 -3 350 157 c626 280 845 316 907 151 32 -83 145 -185 250 -227z m35826 -147 c752 -33 1615 -53 1917 -44 1283 37 4079 25 7350 -34 3007 -53 3505 -83 3532 -213 25 -114 -62 -151 -355 -151 -213 0 -434 -47 -491 -104 -71 -71 -194 -69 -395 9 -189 74 -571 88 -1091 43 -1347 -118 -1841 -142 -3475 -167 -866 -13 -1575 -61 -1575 -106 0 -45 -79 -44 -175 3 -185 89 -259 89 -1189 -15 -929 -103 -2194 -157 -4971 -211 l-2584 -50 301 342 c165 189 331 440 369 559 50 158 99 187 179 107 170 -170 370 -130 370 73 0 285 87 313 517 161 222 -78 1009 -168 1766 -202z m-33883 58 c0 -58 -331 -100 -794 -100 -437 0 -822 45 -856 100 -39 64 249 100 794 100 504 0 856 -41 856 -100z m15844 -296 c-123 -123 -3629 -270 -3905 -164 -400 154 118 216 2030 242 1387 19 1949 -4 1875 -78z m5706 -194 c615 -286 1150 -914 1150 -1351 0 -197 -22 -359 -49 -359 -27 0 -353 207 -725 460 -833 567 -1549 1222 -1472 1347 95 153 668 102 1096 -97z m-14414 -60 c169 -169 308 -202 214 -50 -56 91 450 159 850 115 83 -9 346 -39 586 -66 920 -102 1653 -248 1752 -347 110 -110 116 -775 10 -1107 -36 -114 -152 -196 -280 -197 -338 -2 -438 -113 -515 -573 -58 -348 -110 -425 -287 -423 -274 1 -406 90 -555 373 -170 323 -512 283 -845 -99 -156 -179 -259 -247 -228 -151 68 213 -121 236 -202 25 -62 -163 -390 -205 -479 -62 -30 49 38 206 151 349 238 303 181 463 -164 463 -139 0 -244 58 -244 137 0 75 -89 249 -197 386 -227 289 -583 275 -863 -34 -94 -104 -268 -189 -386 -189 -119 0 -301 -63 -406 -139 -164 -120 -174 -175 -69 -405 178 -391 149 -547 -124 -672 -292 -133 -784 31 -995 333 -196 278 -634 93 -678 -287 -26 -231 -98 -296 -406 -372 -452 -112 -552 -37 -381 283 198 370 52 492 -509 426 -430 -51 -505 -31 -636 169 -211 322 -307 1125 -155 1308 67 80 326 245 577 367 388 187 486 201 662 91 148 -93 218 -97 244 -17 25 75 90 61 193 -41 139 -140 178 -133 391 68 131 122 266 194 301 159 35 -35 159 -12 275 52 117 63 775 133 1462 155 688 22 1269 59 1292 81 99 97 506 28 644 -109z m-39007 -645 c767 -581 963 -1005 465 -1005 -125 0 -194 69 -194 194 0 175 -167 342 -1000 1001 l-250 198 229 4 c126 2 464 -175 750 -392z m45320 259 c70 -27 660 -12 1310 33 651 44 1241 58 1312 31 71 -27 129 -140 129 -250 0 -193 -52 -199 -1400 -162 -1267 35 -1400 22 -1400 -132 0 -244 299 -308 1381 -297 843 8 969 -13 1091 -189 98 -139 254 -198 523 -198 357 0 387 -23 447 -344 36 -189 35 -461 -1 -605 -59 -238 -79 -247 -236 -106 -94 85 -201 155 -239 155 -37 0 -296 160 -574 356 -492 345 -534 356 -1435 358 -1087 2 -1580 -112 -2428 -559 -484 -255 -600 -288 -525 -147 54 99 142 209 197 242 247 153 -88 715 -364 609 -104 -40 -137 60 -137 413 0 411 16 445 132 286 105 -144 319 -192 1036 -233 919 -52 1205 42 938 309 -124 124 -364 150 -1431 158 -690 5 -790 52 -523 247 148 108 1927 129 2197 25z m-39399 -124 c1265 -31 2362 -76 2439 -100 113 -36 108 -77 -25 -225 -90 -99 -164 -238 -164 -309 0 -79 -65 -103 -172 -61 -589 225 -5018 145 -5665 -104 -134 -51 -163 8 -163 328 0 215 -56 448 -125 517 -100 101 42 114 725 68 468 -32 1885 -83 3150 -114z m55762 -232 c56 -161 155 -310 220 -332 65 -21 635 -12 1268 22 633 34 1184 46 1225 26 41 -20 75 -238 75 -484 0 -347 58 -507 254 -703 217 -217 309 -244 649 -186 322 54 409 34 463 -105 36 -95 5 -268 -69 -384 -74 -117 -211 -367 -305 -557 -157 -320 -158 -365 -8 -600 232 -366 309 -402 862 -403 421 -2 475 -22 350 -136 -219 -200 -1375 -666 -1653 -666 -199 0 -243 50 -243 278 0 153 -75 384 -166 515 -92 130 -248 730 -347 1332 -209 1269 -430 1741 -795 1694 -643 -84 -1214 -30 -1392 131 -103 93 -233 141 -289 107 -122 -76 -311 250 -311 536 0 294 93 256 212 -85z m-51237 -16 c-130 -76 -175 -231 -175 -605 0 -359 -36 -492 -125 -461 -84 28 -113 202 -90 533 44 597 68 642 346 638 197 -3 201 -13 44 -105z m2999 -183 c68 -87 269 -406 446 -709 284 -483 321 -632 309 -1223 -10 -510 -64 -746 -224 -970 -147 -206 -192 -375 -147 -552 80 -320 -106 -341 -268 -30 -211 404 -1025 1303 -1361 1501 -348 205 -429 374 -179 374 82 0 243 93 357 207 239 239 194 665 -119 1108 -234 331 -237 460 -13 508 342 75 1077 -57 1199 -214z m7055 92 c48 -183 124 -202 761 -185 389 11 739 -11 777 -49 123 -124 -496 -666 -1063 -929 -1012 -471 -1619 -283 -2306 715 -169 246 -350 447 -403 447 -52 0 -95 34 -94 75 0 41 512 87 1137 103 1072 26 1140 15 1191 -177z m-4829 -20 c0 -66 -152 -437 -338 -825 l-337 -706 79 -1266 c44 -696 137 -1371 208 -1500 142 -257 134 -491 -30 -911 -139 -356 -349 -208 -443 312 -84 468 -318 929 -556 1097 -182 128 -182 138 9 381 247 314 446 1249 376 1770 -29 218 -191 661 -360 983 -170 323 -308 631 -308 685 0 57 358 99 850 99 592 0 850 -36 850 -119z m16115 36 l565 -17 42 -475 c24 -261 33 -489 22 -506 -12 -16 -146 85 -298 226 -152 141 -461 309 -686 373 -226 64 -462 156 -525 204 -63 47 -513 86 -1000 86 -1075 -1 -2593 -311 -3211 -657 -671 -375 -718 -342 -520 369 100 360 116 371 624 400 530 30 3955 29 4987 -3z m-13832 -356 c419 -289 569 -545 242 -410 -360 149 -891 244 -1375 248 -275 2 -567 49 -650 104 -265 178 110 347 768 347 496 0 669 -49 1015 -289z m6886 260 c89 -56 71 -182 -70 -498 -176 -393 -336 -527 -416 -348 -88 198 -728 629 -860 579 -81 -32 -218 0 -302 69 -128 106 -30 137 588 184 407 31 786 64 841 73 55 10 154 -17 219 -59z m-1969 -164 c0 -79 90 -172 200 -207 278 -88 255 -288 -25 -213 -124 33 -326 61 -450 62 -124 0 -225 46 -225 101 0 55 68 100 150 100 83 0 150 68 150 150 0 82 45 150 100 150 55 0 100 -64 100 -143z m2467 -471 c-80 -295 -218 -703 -306 -908 -154 -356 -152 -376 42 -480 111 -59 175 -153 141 -208 -39 -63 -152 -43 -301 56 -231 151 -247 144 -482 -220 -290 -448 -733 -926 -859 -926 -206 0 -220 244 -23 403 249 201 1221 1398 1221 1502 0 135 623 1405 668 1361 24 -25 -21 -286 -101 -580z m41473 474 c-30 -77 39 -323 153 -546 114 -223 208 -487 208 -585 2 -221 333 -1297 429 -1392 104 -104 85 -337 -28 -337 -145 0 -502 751 -502 1056 0 145 -62 383 -138 529 -285 551 -562 1191 -562 1301 0 63 111 114 247 114 171 0 230 -43 193 -140z m-5583 -48 c-29 -48 -156 -114 -280 -145 -219 -55 -220 -52 -33 88 215 161 398 194 313 57z m-35425 -78 c37 -36 26 -115 -22 -175 -49 -60 -111 -199 -139 -309 -27 -110 -43 -31 -35 175 14 366 63 443 196 309z m3686 -358 c18 -123 112 -239 210 -258 411 -78 928 -785 821 -1122 -48 -149 -153 -196 -439 -196 -310 0 -401 48 -515 275 -257 509 -689 998 -993 1124 -530 220 -384 303 666 384 156 12 227 -47 250 -207z m1563 22 c279 -135 419 -268 419 -397 0 -107 71 -404 159 -661 151 -445 149 -476 -39 -664 -138 -138 -263 -176 -419 -126 -185 58 -212 120 -162 371 77 385 -214 1060 -573 1328 -146 109 -266 233 -266 275 0 143 461 77 881 -126z m29156 -90 c-173 -105 -429 -342 -570 -526 -262 -344 -962 -920 -813 -671 446 754 1104 1389 1436 1389 l260 -1 -313 -191z m-22007 -360 c-45 -278 -23 -348 107 -348 92 0 163 -81 163 -185 0 -101 80 -256 178 -345 326 -295 1422 -219 1621 113 91 151 113 152 226 10 69 -87 263 -206 432 -264 361 -125 891 53 1116 373 76 109 245 198 376 198 145 0 261 74 298 190 43 135 121 173 274 133 l214 -56 -217 -80 c-241 -89 -286 -243 -93 -321 86 -35 78 -54 -25 -61 -341 -26 -800 -598 -800 -998 0 -114 -11 -207 -25 -207 -14 0 -272 95 -575 210 -1080 413 -4963 338 -7500 -145 -412 -78 -775 -114 -805 -79 -377 436 -795 1022 -795 1113 0 169 424 19 587 -208 178 -248 288 -241 523 34 l193 225 -60 -267 c-47 -207 -13 -292 154 -381 294 -158 1242 -28 1547 211 212 167 294 176 674 75 344 -92 533 -86 932 28 l500 144 -6 458 c-5 447 2 457 300 445 246 -11 312 31 338 213 18 125 71 203 119 174 47 -30 60 -210 29 -402z m-14269 145 c185 -114 381 -179 437 -144 173 106 113 -106 -98 -349 -110 -127 -200 -286 -200 -353 0 -67 -67 -179 -150 -247 -124 -103 -152 -92 -160 63 -44 778 -73 945 -186 1082 -177 214 -40 194 357 -52z m4213 -193 c358 0 1159 -1107 951 -1315 -43 -43 -290 -186 -549 -317 l-470 -238 -116 360 c-63 198 -210 467 -327 598 -274 307 -1179 736 -1299 616 -158 -158 -2 -350 484 -592 357 -179 519 -338 660 -649 277 -609 245 -734 -271 -1061 l-464 -294 -287 588 c-237 487 -350 609 -648 708 -295 97 -378 94 -447 -17 -61 -97 8 -192 237 -326 265 -156 500 -493 755 -1084 60 -138 -485 -81 -813 85 -176 89 -415 278 -532 420 -210 256 -210 262 -23 595 104 185 163 378 131 429 -32 52 -10 94 48 94 59 0 182 173 274 385 188 435 745 840 1625 1181 549 212 560 213 763 25 114 -105 257 -191 318 -191z m-10174 -16 c393 -189 646 -249 886 -211 l336 53 -176 -268 c-99 -150 -235 -245 -311 -216 -75 29 -502 126 -949 217 -754 153 -1266 147 -1861 -19 -184 -52 -225 -23 -225 155 0 120 49 310 109 422 98 183 187 200 875 168 572 -26 906 -103 1316 -301z m43441 66 c176 -176 206 -250 101 -250 -200 0 -973 -398 -1627 -839 -294 -199 -579 -361 -633 -361 -54 0 108 235 360 523 252 288 458 560 458 605 0 61 946 565 1070 571 12 1 133 -111 271 -249z m-38088 -179 c235 -256 213 -471 -101 -967 -316 -502 -447 -584 -901 -568 -293 11 -407 61 -432 189 -23 119 25 170 149 159 406 -35 647 20 607 141 -25 73 -167 112 -345 94 -204 -21 -324 20 -364 125 -113 294 35 449 407 427 211 -12 373 30 399 104 30 83 -60 125 -264 125 -316 0 -356 58 -243 352 90 236 815 115 1088 -181z m40316 54 c-65 -418 214 -2000 427 -2418 111 -216 156 -423 109 -499 -44 -72 -60 -209 -35 -305 26 -99 -21 -201 -107 -234 -84 -32 -229 -207 -322 -389 -93 -181 -199 -352 -235 -380 -37 -27 -199 -230 -361 -450 -162 -220 -379 -490 -483 -600 -103 -110 -300 -442 -438 -738 -228 -489 -243 -602 -167 -1250 128 -1101 107 -1571 -94 -2094 -121 -316 -266 -512 -424 -572 -232 -88 -340 -396 -139 -396 55 0 100 -38 100 -85 0 -47 -236 -23 -525 53 -412 109 -661 116 -1160 31 -350 -60 -867 -110 -1150 -113 -283 -2 -1123 -16 -1865 -30 -742 -15 -1425 1 -1517 34 -153 55 -152 77 14 282 99 121 397 337 662 478 266 141 508 290 537 331 30 40 178 152 329 249 242 154 275 238 278 697 2 514 9 526 411 712 237 109 492 330 607 525 147 247 269 336 465 336 158 0 317 81 391 200 68 110 190 200 269 200 79 0 189 79 243 175 88 157 140 135 495 -211 357 -347 587 -514 998 -723 287 -147 339 134 102 560 -132 239 -191 441 -134 464 55 23 344 141 642 263 l542 222 182 750 c99 413 195 840 213 950 18 110 131 389 252 621 177 341 219 589 219 1309 0 876 -6 898 -413 1504 -439 653 -586 757 -556 391 11 -124 -26 -236 -81 -250 -55 -14 -100 99 -100 250 l0 275 650 -31 c358 -18 763 13 900 68 138 55 264 103 281 107 17 3 12 -118 -12 -269z m-42023 -442 c-75 -284 -114 -554 -86 -600 29 -46 -266 -83 -654 -83 -388 0 -706 19 -706 42 0 23 -26 109 -58 192 -39 104 60 201 325 318 211 93 586 276 833 406 248 130 457 238 466 240 9 1 -45 -231 -120 -515z m23873 142 c-17 -124 17 -225 76 -225 105 0 504 -574 505 -725 0 -41 -157 -75 -350 -75 -271 0 -350 41 -350 181 0 268 -577 821 -781 748 -449 -158 -630 -561 -235 -522 314 31 384 -8 505 -274 111 -242 96 -288 -158 -496 -155 -127 -307 -231 -338 -233 -32 -2 -157 196 -280 441 -122 244 -310 472 -417 506 -321 102 -229 207 429 490 344 148 693 310 775 361 83 50 263 81 400 70 197 -17 243 -70 219 -247z m931 98 c186 -136 443 -725 384 -879 -89 -230 -265 -118 -354 225 -44 168 -147 362 -230 431 -269 223 -83 432 200 223z m1009 -188 c139 -91 343 -343 454 -561 l202 -395 -208 -194 c-114 -106 -207 -246 -207 -310 0 -292 -317 232 -344 568 -16 205 -125 502 -243 660 -117 159 -213 313 -213 343 0 111 316 48 559 -111z m-29709 -410 c240 -51 140 -86 -500 -174 -484 -66 -849 -73 -924 -18 -83 60 -183 23 -300 -113 -97 -111 -280 -233 -408 -270 -214 -63 -229 -41 -200 266 32 330 39 335 632 394 604 61 1145 34 1700 -85z m30798 -161 c180 -132 179 -144 -31 -369 -214 -229 -217 -229 -217 -22 0 116 -27 282 -61 369 -74 194 60 204 309 22z m-28788 -41 c60 -40 229 -288 375 -551 146 -263 338 -590 426 -725 301 -459 -41 -251 -408 248 -200 273 -485 587 -633 699 -228 170 -246 218 -120 303 179 119 217 122 360 26z m3940 -161 c0 -76 -89 -162 -198 -191 -169 -44 -183 -23 -97 139 119 221 295 252 295 52z m8995 -824 c102 -230 273 -446 381 -480 108 -35 269 -251 361 -485 184 -468 181 -518 -37 -533 -431 -29 -436 -34 -249 -242 177 -195 177 -206 -9 -346 -106 -80 -247 -147 -315 -149 -67 -2 -198 -118 -290 -259 l-168 -256 -349 359 c-308 317 -336 388 -239 601 61 134 249 314 418 401 277 144 322 144 462 4 195 -195 339 -112 339 196 0 527 -822 429 -1421 -170 -347 -347 -392 -442 -338 -714 34 -173 128 -364 209 -425 81 -60 373 -321 649 -579 488 -457 498 -477 359 -740 -79 -149 -273 -423 -430 -610 l-287 -338 -483 213 c-266 118 -547 214 -626 214 -115 0 -694 250 -812 351 -17 15 61 178 174 363 274 448 264 508 -148 920 -395 395 -396 524 -9 1394 176 394 275 494 571 574 431 116 1592 1169 1592 1443 0 174 22 169 255 -50 141 -132 339 -428 440 -657z m-13481 537 c452 -414 1442 -1622 1569 -1913 159 -368 100 -421 -230 -205 -145 95 -407 178 -582 183 -291 9 -335 56 -507 535 -104 289 -371 732 -593 984 -322 366 -375 477 -262 548 218 139 339 112 605 -132z m24134 25 c73 0 223 -142 333 -317 l200 -316 -212 -172 c-181 -146 -193 -196 -80 -332 74 -88 107 -229 75 -312 -75 -196 -353 -195 -429 2 -44 115 -91 125 -193 41 -196 -163 -877 71 -799 274 31 82 57 189 57 238 0 50 112 46 257 -8 374 -143 743 -122 743 42 0 77 -135 187 -300 245 -340 118 -336 108 -199 469 70 183 151 247 259 206 86 -33 216 -60 288 -60z m-26250 -75 c-6 -318 -613 -504 -675 -208 -23 110 44 183 196 212 392 74 481 74 479 -4z m1419 -382 c576 -624 935 -1458 721 -1672 -92 -91 -304 154 -466 539 -78 187 -351 561 -607 831 -513 542 -547 623 -290 690 96 25 185 51 198 57 13 7 212 -194 444 -445z m3083 326 c0 -72 -66 -218 -147 -325 -81 -107 -148 -273 -150 -369 -4 -256 -162 -214 -380 100 -349 505 -349 508 100 608 590 132 577 132 577 -14z m40459 -119 c65 -260 185 -322 291 -150 158 255 247 -33 163 -525 -28 -161 -413 -70 -421 100 -5 108 -47 68 -110 -105 -107 -293 -354 -321 -303 -35 17 91 -17 165 -75 165 -57 0 -104 -112 -104 -250 0 -202 50 -250 257 -250 141 0 343 47 450 104 235 126 242 37 32 -464 l-161 -385 -180 222 c-235 291 -265 282 -265 -81 0 -222 39 -290 143 -250 218 84 352 -42 217 -205 -65 -78 -84 -141 -43 -141 41 0 18 -67 -50 -150 -175 -211 -291 -186 -229 50 29 110 7 200 -48 200 -55 0 -124 -94 -154 -209 -42 -158 -105 -193 -262 -143 -145 46 -207 22 -207 -81 0 -187 159 -240 620 -206 339 25 363 10 290 -187 -82 -222 -310 -364 -310 -193 0 54 -62 121 -138 150 -99 39 -131 -24 -116 -222 12 -152 50 -322 85 -378 77 -126 -431 -371 -540 -261 -77 79 -96 548 -82 2080 10 1068 12 1050 -159 1050 -316 0 -106 437 249 517 111 25 148 -65 149 -358 1 -234 55 -408 135 -436 102 -34 126 79 105 486 -27 503 -13 537 267 656 408 174 433 168 504 -115z m-31188 20 c121 -67 188 -168 150 -223 -112 -160 -546 -409 -838 -481 -418 -103 -1455 -1180 -1744 -1812 -140 -305 -292 -554 -340 -554 -47 0 -392 247 -767 549 -375 302 -716 549 -757 550 -41 0 -75 65 -75 144 0 78 236 253 525 389 289 136 769 465 1068 731 299 267 749 560 1000 652 542 199 1468 228 1778 55z m9029 -129 c1110 -90 1127 -92 1425 -238 312 -153 337 -334 138 -1003 -89 -298 -199 -462 -324 -486 -298 -56 -439 -217 -441 -501 -3 -581 -377 -645 -602 -104 -67 163 -157 317 -200 343 -170 106 -416 -98 -563 -465 -85 -213 -196 -387 -247 -387 -184 0 -206 312 -36 500 232 257 136 489 -178 429 -219 -42 -250 -5 -309 362 -36 225 -89 409 -119 409 -118 0 -994 -506 -994 -574 0 -40 -67 -62 -150 -50 -82 13 -216 -19 -296 -70 -127 -82 -123 -143 30 -466 159 -333 162 -387 25 -524 -137 -137 -173 -134 -349 25 -212 192 -508 152 -713 -95 -199 -239 -318 -168 -249 147 83 374 -198 550 -732 460 -334 -57 -380 -36 -493 217 -68 154 -281 571 -473 927 -193 355 -350 698 -350 760 0 211 1810 362 1879 156 60 -179 739 -132 1132 79 241 129 563 193 985 195 345 1 654 30 687 63 33 33 220 36 414 6 194 -30 691 -81 1103 -115z m8900 -164 c0 -44 -162 -248 -359 -453 -197 -206 -332 -322 -299 -258 32 65 3 138 -66 163 -101 37 -101 72 -1 179 69 72 125 254 125 403 0 260 13 267 300 158 165 -62 300 -149 300 -192z m-24261 81 c-59 -154 -336 -295 -418 -213 -77 78 187 355 338 355 75 0 111 -63 80 -142z m23138 -800 c1668 -1634 2019 -1958 2123 -1958 189 0 100 -254 -142 -402 -133 -81 -451 -344 -706 -584 -255 -240 -476 -420 -491 -400 -137 175 -675 1248 -850 1691 -277 706 -607 1059 -1277 1365 l-533 244 -313 -223 c-324 -230 -1025 -409 -1256 -320 -231 89 -142 428 206 787 465 479 941 687 1657 723 l609 31 973 -954z m-31977 692 c0 -82 26 -150 57 -150 32 0 125 68 207 150 210 210 436 187 436 -44 0 -275 182 -353 389 -166 231 209 690 226 518 19 -76 -92 -82 -163 -16 -203 55 -34 75 -128 44 -209 -31 -81 -2 -147 64 -147 66 0 143 90 172 200 59 225 190 263 257 75 93 -259 -1701 -1635 -1888 -1448 -31 31 -4 153 59 271 99 184 78 250 -142 454 -283 262 -323 365 -132 341 454 -59 484 84 76 357 -316 212 -438 409 -345 559 88 144 244 106 244 -59z m20219 82 c-72 -29 -159 -26 -192 8 -33 33 26 56 131 52 117 -5 141 -28 61 -60z m600 0 c-72 -29 -159 -26 -192 8 -33 33 26 56 131 52 117 -5 141 -28 61 -60z m-13919 -367 c0 -318 -275 -527 -725 -551 -354 -19 -375 -4 -375 278 0 357 207 501 725 505 328 3 375 -27 375 -232z m26930 -119 c173 -237 173 -255 0 -493 -203 -278 -701 -345 -792 -108 -73 190 356 952 501 892 61 -25 192 -156 291 -291z m-26432 79 c0 -41 -45 -142 -98 -225 -78 -121 -97 -107 -98 75 -1 124 43 225 98 225 55 0 99 -34 98 -75z m1056 -265 c315 -8 548 -114 1050 -480 981 -713 1477 -1093 1964 -1505 244 -206 483 -375 530 -375 47 0 190 -88 319 -196 128 -108 379 -315 558 -459 413 -334 410 -445 -9 -445 -282 0 -929 -182 -1566 -440 -93 -38 -321 94 -600 347 -248 225 -629 525 -847 666 -218 142 -623 466 -900 722 -277 256 -829 710 -1228 1009 -399 299 -725 603 -725 675 0 71 135 207 299 301 165 93 300 209 300 257 1 47 102 52 226 9 124 -42 407 -81 629 -86z m36204 -60 c209 0 173 -369 -58 -600 -255 -255 -256 -563 -2 -699 177 -95 191 -174 135 -729 -35 -342 -93 -644 -128 -672 -152 -118 -82 -483 102 -531 113 -29 193 -137 193 -260 0 -275 -61 -264 -352 66 -285 324 -341 1023 -98 1225 215 178 186 574 -50 700 -260 139 -297 1000 -43 1000 106 0 146 74 125 225 -18 124 -77 203 -132 175 -55 -27 -87 -89 -71 -138 16 -48 -60 -64 -170 -35 -161 42 -200 1 -205 -213 -18 -784 -26 -818 -186 -791 -247 41 -276 -327 -31 -391 176 -46 202 -126 189 -593 -9 -296 -42 -539 -74 -539 -33 0 -315 90 -628 200 -313 110 -643 200 -732 200 -130 0 -155 77 -121 370 25 208 -19 496 -99 656 -79 158 -127 297 -107 311 19 13 222 169 451 345 388 299 412 306 358 94 -52 -201 -40 -211 109 -89 92 76 167 199 167 275 0 76 71 138 157 138 109 0 147 -75 125 -245 -18 -135 13 -237 68 -225 55 11 95 167 89 346 -10 282 29 337 300 416 171 49 371 71 444 49 73 -23 197 -41 275 -41z m-41839 -701 c93 -192 145 -433 115 -536 -58 -198 -114 -458 -126 -595 -5 -45 -102 -52 -217 -15 -281 89 -1091 640 -1091 742 0 163 818 816 982 785 92 -18 244 -190 337 -381z m24424 -64 c376 -109 384 -253 22 -381 -243 -85 -312 -67 -462 117 -119 148 -244 200 -389 162 -144 -38 -214 -10 -214 85 0 275 201 371 485 231 146 -71 397 -168 558 -214z m7267 206 c341 -309 -87 -721 -561 -541 l-264 101 233 294 c270 342 353 362 592 146z m-3931 -131 c527 -271 782 -580 1078 -1307 142 -350 415 -881 606 -1181 192 -299 326 -567 298 -594 -28 -28 -287 67 -575 210 -289 144 -578 262 -643 262 -68 0 -138 210 -165 498 -59 612 -414 1175 -1023 1623 -454 334 -555 522 -330 613 229 92 380 67 754 -124z m-23771 -326 c354 -299 525 -532 606 -825 173 -631 190 -1176 49 -1653 l-129 -435 -223 314 c-207 290 -212 330 -67 536 281 402 201 929 -211 1384 -288 319 -427 400 -647 377 -186 -19 -329 37 -430 169 -272 361 -184 473 426 535 73 8 354 -173 626 -402z m37952 43 c-33 -33 -56 26 -52 131 5 117 28 141 60 61 29 -72 26 -159 -8 -192z m-45865 -552 c3 -96 -36 -175 -87 -175 -51 0 -123 -146 -162 -325 -38 -179 -103 -370 -145 -425 -42 -55 -110 -212 -152 -350 -41 -137 -277 -699 -522 -1249 -398 -886 -443 -1062 -406 -1567 32 -447 120 -688 410 -1125 203 -306 369 -577 369 -602 0 -25 -1670 -42 -3711 -37 -3394 8 -3745 25 -4094 194 -211 102 -449 280 -530 395 -131 187 -129 262 19 662 185 501 665 829 1212 829 345 0 345 0 188 -345 -137 -300 35 -817 232 -695 68 42 88 27 49 -36 -103 -167 218 -424 528 -424 938 0 2558 662 3332 1361 207 186 421 339 476 339 55 0 477 386 937 858 745 763 881 964 1242 1825 224 532 439 1125 478 1317 l73 350 130 -300 c71 -165 132 -379 134 -475z m29582 342 c105 -133 163 -140 324 -40 328 205 583 142 1146 -284 414 -312 575 -513 696 -867 288 -847 262 -888 -570 -910 l-726 -18 -194 359 c-315 586 -687 841 -1128 773 -519 -80 -705 -192 -930 -561 -251 -413 -247 -776 15 -1108 245 -312 211 -462 -145 -653 -237 -127 -275 -119 -456 102 -125 152 -177 323 -141 467 42 173 -34 312 -313 574 l-367 347 363 691 c376 715 503 807 1116 810 231 1 381 81 550 294 251 316 525 325 760 24z m-14699 -1097 c173 -332 200 -474 119 -625 -142 -266 -185 -252 -668 209 -281 269 -402 460 -366 574 83 260 264 643 435 918 152 247 152 247 204 -200 28 -245 153 -639 276 -876z m4420 999 c-1 -146 -14 -148 -98 -19 -127 196 -127 328 0 250 55 -34 99 -138 98 -231z m17051 -321 c-68 -110 -353 -128 -588 -38 -127 48 -107 108 117 338 l272 278 129 -240 c72 -132 103 -285 70 -338z m-30348 85 c293 -321 307 -483 41 -483 -81 0 -190 -114 -243 -253 -132 -347 -314 -391 -710 -170 -416 232 -483 576 -186 953 300 382 722 364 1098 -47z m36989 226 c76 -49 113 -158 80 -242 -32 -85 -5 -176 61 -203 87 -36 82 -74 -19 -145 -76 -53 -109 -142 -75 -198 38 -62 -16 -82 -137 -50 -227 59 -250 139 -87 302 117 117 55 427 -85 427 -44 0 -138 -133 -210 -295 -118 -266 -154 -284 -374 -184 -294 134 -325 281 -44 208 137 -36 200 -3 200 104 0 275 424 444 690 276z m-38363 -184 c-141 -371 -308 -636 -351 -557 -146 266 -150 444 -15 579 214 214 450 199 366 -22z m19176 -372 c2 -112 63 -282 136 -378 179 -236 914 -242 1044 -8 84 149 130 152 430 27 416 -173 671 -138 962 132 298 277 405 144 205 -255 -88 -177 -188 -405 -222 -507 -45 -138 -119 -170 -284 -122 -1159 335 -3251 360 -4557 53 -458 -107 -870 -195 -916 -195 -46 0 -225 229 -396 508 -284 461 -294 502 -104 442 120 -38 276 -10 368 66 140 116 151 105 91 -83 -130 -411 575 -684 1072 -415 120 65 389 107 598 92 452 -31 870 208 870 498 0 113 77 306 170 430 155 206 186 212 350 72 99 -85 181 -246 183 -357z m-21433 317 c44 -71 297 -255 563 -409 428 -247 467 -297 346 -445 -218 -264 -479 -901 -479 -1165 0 -134 90 -327 200 -430 200 -186 200 -187 -50 -421 -472 -444 -276 -689 351 -438 l414 166 287 -314 c319 -349 728 -414 1054 -167 107 81 265 148 352 150 285 6 792 -743 792 -1170 0 -90 -167 -442 -372 -782 l-372 -619 -1253 36 c-2392 68 -3155 108 -3473 185 -183 43 -451 31 -625 -30 -272 -95 -305 -85 -305 88 0 107 -167 379 -371 605 -328 363 -375 482 -408 1025 -32 546 7 710 355 1465 216 468 514 1188 662 1600 l271 750 470 17 c259 10 651 110 871 221 473 241 612 257 720 82z m5350 -439 c448 -429 368 -802 -241 -1128 l-354 -190 -212 243 c-116 134 -279 244 -362 244 -100 0 -151 99 -151 293 0 350 431 743 716 652 101 -32 184 -10 184 48 0 172 120 125 420 -162z m2180 -581 c193 -175 710 -582 1150 -902 440 -321 836 -614 880 -651 44 -37 -8 -220 -116 -407 -108 -187 -252 -527 -318 -755 -110 -376 -96 -479 149 -1104 228 -582 339 -733 713 -970 243 -153 442 -302 442 -329 0 -99 -860 97 -1217 278 -1004 509 -1523 983 -2365 2161 l-515 722 158 762 c157 761 152 1517 -13 1895 -73 168 -23 153 308 -90 217 -160 552 -434 744 -610z m35646 643 c-86 -139 -146 -113 -146 63 0 86 46 128 102 93 56 -35 75 -105 44 -156z m-26846 -171 c0 -129 -305 -522 -406 -522 -134 0 -116 338 26 480 134 134 380 162 380 42z m18200 -90 c0 -352 -322 -1299 -442 -1299 -152 0 -1385 -853 -1826 -1263 l-318 -296 -157 375 c-86 207 -157 445 -157 529 0 271 1472 1596 1983 1783 257 95 510 210 562 256 159 140 355 93 355 -85z m4587 -236 c58 -168 197 -434 309 -591 257 -361 259 -764 5 -1180 -109 -179 -216 -325 -237 -325 -22 0 -16 207 12 459 42 366 -4 577 -226 1041 -259 542 -284 900 -63 900 51 0 141 -137 200 -304z m-21686 -448 c153 -285 146 -297 -348 -598 -90 -55 -209 -302 -264 -549 -56 -246 -167 -521 -247 -610 -129 -143 -129 -177 1 -285 182 -151 340 -64 461 254 68 180 166 240 394 240 279 0 302 -27 302 -350 0 -192 -11 -384 -25 -425 -28 -85 -481 -75 -925 21 -356 77 -1550 668 -1550 767 0 216 594 924 873 1040 212 89 327 206 327 334 0 108 77 332 172 496 171 299 172 299 428 117 142 -101 322 -304 401 -452z m18228 339 c347 -82 893 -29 1796 174 379 86 345 -40 -145 -545 -400 -413 -439 -430 -853 -368 -542 82 -1061 -83 -1325 -419 -256 -325 -256 -689 -1 -1108 242 -397 186 -750 -183 -1146 -292 -314 -438 -340 -661 -118 -271 272 -182 967 335 2593 105 330 219 728 253 884 49 219 103 268 234 214 94 -39 342 -112 550 -161z m5044 -162 c563 -206 1024 -401 1025 -432 4 -134 -983 -1087 -1384 -1338 -501 -312 -748 -230 -476 159 260 370 205 979 -136 1516 -175 277 -247 470 -175 470 68 0 583 -169 1146 -375z m4427 281 c0 -52 -37 -117 -83 -146 -46 -28 -84 14 -84 94 0 80 38 146 84 146 46 0 83 -42 83 -94z m-43300 -206 c0 -55 68 -100 150 -100 83 0 240 -90 350 -200 237 -237 762 -260 1044 -47 235 178 456 191 456 26 0 -66 -160 -284 -355 -484 -227 -233 -371 -488 -398 -705 -81 -657 -843 -930 -1229 -440 -108 138 -292 250 -407 250 -157 0 -211 63 -211 244 0 135 -89 307 -198 384 -198 138 -198 142 19 655 189 448 256 517 499 517 154 0 280 -45 280 -100z m36837 -433 c348 -644 395 -1256 121 -1559 -251 -276 -317 -265 -664 115 -276 302 -292 363 -248 962 41 574 235 1016 444 1015 33 -1 189 -240 347 -533z m-11197 -83 c83 -119 128 -254 100 -300 -86 -140 -361 -94 -489 81 -145 199 -351 99 -351 -171 0 -222 -39 -234 -307 -90 -429 229 -89 696 508 696 284 0 428 -58 539 -216z m-4396 -211 c688 -243 536 -365 -264 -212 -1552 296 -3720 129 -4679 -361 -216 -110 -462 -200 -547 -200 -212 0 -195 293 21 362 96 31 265 93 375 138 363 148 1164 331 1787 409 876 108 2843 28 3307 -136z m-18823 -198 c141 -111 115 -179 -231 -608 -373 -463 -452 -474 -497 -67 -30 267 4 359 211 581 236 253 300 265 517 94z m20125 -91 c240 -110 246 -127 89 -300 -224 -248 -381 -231 -571 59 -148 225 -147 247 13 288 95 25 182 51 193 57 11 7 136 -40 276 -104z m4754 -126 c582 -53 974 -152 1426 -363 245 -113 270 -167 214 -462 -54 -290 -35 -335 149 -345 379 -23 417 -36 505 -179 88 -141 -61 -609 -194 -609 -37 0 -117 107 -176 237 -83 183 -219 255 -591 311 -688 103 -1809 72 -2052 -58 -330 -177 -1124 -800 -1211 -952 -44 -76 -156 -138 -250 -138 -93 -1 -324 -95 -512 -209 -303 -185 -434 -201 -1150 -139 -945 82 -1425 227 -1844 558 -436 345 -393 459 161 426 742 -45 1672 287 2545 907 424 301 1009 647 1300 768 292 122 572 258 623 303 50 44 185 61 300 37 114 -24 455 -66 757 -93z m-23600 -108 c105 -126 67 -174 -240 -302 -200 -84 -545 -316 -767 -516 -301 -273 -430 -335 -516 -249 -121 121 -92 163 605 877 355 363 713 437 918 190z m7289 -95 c166 -85 379 -155 473 -155 199 0 1597 -698 2191 -1095 508 -339 1482 -550 2198 -476 603 62 661 9 324 -300 -319 -292 -746 -488 -1333 -612 -631 -134 -1065 -16 -2317 626 -745 382 -984 457 -1450 457 -746 0 -1403 -284 -1566 -677 -174 -421 13 -1098 336 -1221 130 -49 268 -142 308 -207 159 -258 -806 41 -1506 467 -663 402 -733 476 -837 889 -62 248 -84 568 -48 711 40 159 19 288 -55 334 -186 115 571 938 1044 1136 221 93 536 171 700 175 164 4 389 43 499 87 265 107 669 53 1039 -139z m24611 40 c0 -432 601 -1263 1032 -1425 100 -38 280 -15 400 51 120 67 271 110 335 97 65 -13 146 23 181 79 145 234 252 73 252 -377 0 -424 -44 -521 -375 -837 -206 -197 -493 -386 -638 -419 -229 -54 -270 -25 -320 225 -31 157 -216 455 -411 662 -353 374 -357 375 -954 307 -330 -37 -740 -117 -912 -176 -246 -86 -330 -80 -399 29 -154 243 -100 363 142 317 388 -74 1022 147 1136 396 160 349 331 922 331 1108 0 92 45 168 100 168 55 0 100 -92 100 -205z m-15033 -29 c36 -36 -10 -147 -101 -248 -187 -207 -217 -770 -63 -1175 80 -212 69 -309 -53 -443 -189 -209 -352 -695 -437 -1300 -62 -444 -69 -451 -504 -509 -353 -47 -480 -20 -632 132 -151 151 -220 166 -334 71 -122 -101 -143 -21 -143 537 0 983 -318 1594 -829 1594 l-241 0 341 507 c243 360 324 574 282 740 l-58 234 1353 -37 c745 -21 1383 -67 1419 -103z m14163 -185 c190 -255 192 -283 33 -525 -92 -141 -254 -256 -359 -256 -106 0 -222 -48 -259 -108 -102 -165 -545 304 -545 577 0 660 723 859 1130 312z m-17476 113 c109 -177 -31 -527 -350 -875 -352 -383 -504 -345 -504 128 0 252 77 400 308 594 336 283 446 314 546 153z m14928 -469 c-319 -1637 -298 -1919 147 -1931 207 -5 203 -19 -73 -225 -373 -277 -823 -722 -870 -858 -22 -63 -579 -123 -1386 -151 -742 -25 -1429 -77 -1525 -114 -122 -47 -175 -19 -175 93 0 89 -45 161 -100 161 -55 0 -100 53 -100 119 0 183 415 581 605 581 93 0 342 158 552 350 210 193 421 350 468 350 47 0 151 159 232 352 89 213 370 520 709 775 309 233 701 545 873 695 171 150 406 273 523 275 200 3 207 -25 120 -472z m-10386 182 c57 -107 104 -300 104 -430 0 -131 54 -291 120 -357 222 -222 -406 -136 -724 99 -282 208 -404 640 -229 814 146 146 628 62 729 -126z m1289 -308 l223 -301 -271 -103 c-387 -147 -562 -85 -646 230 -55 205 -32 299 93 372 265 155 364 122 601 -198z m-18777 -220 c208 -232 356 -457 329 -500 -27 -44 -199 -79 -384 -79 -184 0 -562 -118 -839 -262 -555 -288 -936 -270 -1108 51 -85 159 -13 247 488 598 492 346 911 577 1096 607 22 3 210 -184 418 -415z m-22395 14 c174 -93 193 -177 144 -637 -48 -441 -22 -574 154 -798 117 -148 235 -245 264 -216 29 29 183 -57 342 -191 159 -134 448 -273 642 -309 458 -86 2082 123 2454 315 279 144 292 140 407 -129 65 -153 179 -350 252 -439 120 -144 69 -166 -494 -208 -559 -41 -2791 -40 -4715 4 -662 14 -684 23 -621 240 238 816 193 1199 -193 1657 -148 177 -225 363 -189 458 113 295 1157 465 1553 253z m45642 -816 c-92 -52 -243 -63 -336 -25 -151 62 -148 78 31 145 280 105 531 6 305 -120z m1242 -171 c145 -350 94 -455 -328 -668 -176 -89 -414 -248 -530 -354 l-212 -193 -69 521 c-65 489 -52 536 211 751 407 333 776 310 928 -57z m-24178 90 c249 -69 436 -211 577 -439 218 -353 943 -1057 1089 -1057 94 0 569 -391 505 -415 -177 -67 -1790 -35 -1790 35 0 50 -304 225 -675 390 -1691 751 -2152 1087 -1497 1093 177 1 525 110 772 242 530 282 541 284 1019 151z m12935 -237 c148 -108 206 -310 252 -875 32 -404 54 -743 48 -755 -7 -11 -460 -21 -1008 -23 -548 -2 -1131 -5 -1296 -7 -551 -6 -936 103 -969 274 -24 128 152 231 744 436 427 148 942 397 1145 555 385 300 741 526 836 532 31 2 142 -59 248 -137z m-5871 -174 c128 -48 217 -120 198 -161 -20 -41 -123 -245 -230 -454 -157 -310 -171 -416 -72 -574 177 -283 163 -296 -321 -296 -316 0 -524 67 -725 233 -156 128 -362 262 -458 297 -214 78 -229 540 -27 806 247 328 970 393 1635 149z m15374 126 c-31 -50 10 -247 90 -439 167 -399 81 -1229 -125 -1212 -67 6 -185 17 -262 25 -94 10 -163 211 -209 608 -83 717 -13 981 279 1037 121 24 234 49 251 56 17 8 6 -26 -24 -75z m-820 -160 c-32 -82 -64 -427 -72 -766 -15 -611 -18 -618 -315 -640 -527 -39 -600 19 -600 477 0 357 41 445 256 548 141 68 340 215 441 327 216 238 371 267 290 54z m9585 -26 c84 -96 175 -390 203 -652 46 -435 26 -494 -228 -675 -203 -145 -440 -198 -882 -198 -333 0 -634 -50 -672 -111 -48 -78 -91 -73 -146 16 -61 99 -172 102 -513 12 -239 -63 -614 -95 -834 -73 -220 23 -501 45 -625 49 -124 4 -225 67 -225 140 0 206 1568 1465 1825 1465 124 0 450 39 725 88 835 146 1205 130 1372 -61z m-14614 -188 c133 -144 388 -325 567 -401 261 -111 325 -196 325 -431 0 -345 -85 -379 -1050 -423 l-700 -32 -31 368 c-34 411 302 1182 516 1182 71 0 239 -118 373 -263z m-8530 -300 c205 -89 615 -214 911 -276 480 -102 542 -145 568 -388 41 -384 -319 -367 -696 32 -313 332 -686 367 -742 70 -23 -121 30 -175 174 -175 114 0 207 -45 207 -100 0 -55 -191 -100 -425 -99 -387 0 -444 35 -641 379 -156 273 -189 425 -120 549 120 213 291 215 764 8z m-9922 -187 c233 -180 1024 -549 1182 -552 186 -2 392 -169 330 -268 -34 -56 -349 -60 -787 -10 -402 46 -888 101 -1081 122 -192 21 -384 42 -426 48 -91 12 422 810 520 810 37 0 155 -68 262 -150z m20544 -235 c0 -163 -395 -438 -546 -380 -85 32 -154 150 -154 262 0 165 65 203 350 203 193 0 350 -38 350 -85z m1500 -154 c0 -424 -680 -509 -936 -118 -152 232 -149 246 63 287 123 23 369 49 548 56 280 12 325 -19 325 -225z"/>
<path d="M38569 20436 c-35 -35 -39 -103 -9 -152 64 -103 240 -14 240 122 0 107 -136 125 -231 30z"/>
<path d="M35100 17950 c0 -82 40 -150 89 -150 49 0 116 68 147 150 35 91 0 150 -89 150 -81 0 -147 -67 -147 -150z"/>
<path d="M32860 11416 c-35 -56 -15 -132 45 -169 154 -95 253 35 125 163 -72 72 -128 74 -170 6z"/>
<path d="M62702 12225 c-1 -124 43 -225 98 -225 125 0 125 106 0 300 -78 121 -97 107 -98 -75z"/>
<path d="M62100 11006 c0 -52 47 -123 104 -159 57 -35 75 -155 40 -267 -46 -145 -26 -191 71 -159 183 62 228 356 81 534 -137 164 -296 192 -296 51z"/>
<path d="M62258 10213 c-43 -69 -51 -153 -18 -186 89 -90 187 42 139 187 -34 101 -58 101 -121 -1z"/>
<path d="M62033 9100 c0 -175 47 -290 109 -269 59 19 108 141 108 269 0 128 -49 250 -108 269 -62 21 -109 -94 -109 -269z"/>
<path d="M17100 11656 c0 -194 144 -271 355 -190 162 62 161 75 -10 200 -236 173 -345 170 -345 -10z"/>
<path d="M17800 11443 c0 -103 283 -343 404 -343 66 0 91 69 57 158 -34 87 -61 177 -61 200 0 23 -90 42 -200 42 -110 0 -200 -26 -200 -57z"/>
<path d="M17595 11009 c136 -253 333 -277 286 -35 -18 95 -115 189 -215 209 -156 30 -167 5 -71 -174z"/>
<path d="M17234 10855 c36 -94 66 -213 66 -263 0 -51 48 -92 107 -92 155 0 69 426 -98 481 -99 32 -121 -5 -75 -126z"/>
<path d="M59316 10476 c-137 -137 -151 -397 -29 -531 141 -154 228 -645 115 -645 -56 0 -102 -45 -102 -100 0 -193 307 -98 388 120 57 154 23 320 -114 552 -151 256 -170 363 -80 471 143 172 -18 293 -178 133z"/>
<path d="M59860 10311 c-141 -155 -154 -236 -64 -403 61 -114 148 -208 194 -208 45 0 69 -160 54 -356 -23 -286 4 -349 138 -324 252 49 256 337 9 671 -188 253 -202 326 -91 459 205 247 -24 400 -240 161z"/>
<path d="M25200 8658 c0 -87 71 -158 158 -158 87 0 141 53 119 119 -62 185 -277 216 -277 39z"/>
<path d="M50800 7700 c0 -55 45 -100 100 -100 55 0 100 45 100 100 0 55 -45 100 -100 100 -55 0 -100 -45 -100 -100z"/>
<path d="M25113 4513 c20 -62 71 -113 112 -113 117 0 88 146 -37 188 -62 20 -96 -14 -75 -75z"/>
<path d="M53200 23094 c-577 -108 -1117 -200 -1200 -204 -304 -17 -3115 -390 -3378 -448 -389 -87 -1366 -479 -1404 -564 -18 -39 -288 -216 -600 -393 -313 -177 -741 -468 -954 -647 -212 -179 -534 -396 -716 -482 -334 -159 -1148 -1041 -1148 -1245 0 -228 237 -95 878 492 361 332 757 658 879 725 443 245 1243 821 1243 895 0 43 81 77 181 77 99 0 268 66 375 147 107 81 252 148 323 150 71 2 251 92 400 200 160 116 723 284 1371 409 605 117 1190 252 1300 300 110 49 673 112 1250 142 578 29 1275 86 1550 127 965 144 3958 25 4505 -178 113 -42 315 -56 450 -32 135 25 650 -26 1145 -113 495 -88 967 -164 1050 -169 83 -6 198 -48 256 -93 59 -46 274 -104 479 -130 471 -58 1944 -546 2020 -668 32 -51 165 -66 296 -33 143 36 328 -3 466 -100 125 -87 302 -159 393 -159 150 0 1084 -374 1513 -606 668 -361 2858 -1068 3116 -1006 48 12 183 -60 300 -158 353 -300 636 -427 1288 -577 342 -79 848 -210 1123 -292 275 -82 973 -289 1550 -461 1068 -317 2289 -558 3550 -700 385 -43 846 -112 1025 -152 221 -50 325 -36 325 42 0 204 -459 324 -3127 813 -317 58 -790 168 -1050 245 -260 76 -900 257 -1423 401 -522 144 -1265 351 -1650 458 -385 108 -901 290 -1147 405 -654 307 -912 404 -1303 493 -472 107 -1135 350 -1800 660 -302 141 -730 326 -950 412 -220 85 -445 188 -500 230 -55 41 -550 190 -1100 331 -550 141 -1400 392 -1888 559 -488 167 -1030 303 -1203 303 -173 0 -403 61 -512 137 -205 142 -901 248 -2097 321 -385 23 -902 90 -1150 148 -247 58 -540 100 -650 93 -338 -19 -368 -19 -1500 37 -850 42 -1339 9 -2150 -142z"/>
<path d="M75717 22248 c-293 -71 -561 -158 -596 -193 -126 -127 -27 -850 169 -1235 111 -217 338 -510 506 -651 167 -141 304 -304 304 -363 0 -58 72 -106 160 -106 87 0 279 -84 425 -186 146 -103 445 -243 665 -313 220 -69 479 -166 576 -215 279 -141 989 -359 1406 -431 210 -37 447 -91 525 -122 100 -38 143 19 143 192 0 221 -69 263 -668 411 -1399 345 -1525 792 -257 913 179 17 351 -9 381 -59 91 -148 544 -105 544 52 0 78 -56 164 -125 192 -100 40 -100 52 0 58 84 5 125 189 125 558 0 524 -12 550 -257 550 -321 0 -668 -179 -590 -305 32 -52 214 -95 403 -95 345 0 404 -57 267 -257 -104 -153 -376 -247 -1162 -402 -659 -130 -1172 -362 -1149 -518 32 -203 -43 -196 -383 35 -384 260 -462 324 -995 816 -295 273 -586 961 -479 1134 26 43 213 132 415 199 348 114 378 106 591 -160 l224 -281 611 274 c568 255 677 270 1557 218 752 -44 947 -28 947 79 0 246 -2399 363 -2619 127 -106 -113 -180 -105 -457 50 -375 211 -469 214 -1207 34z"/>
<path d="M0 12446 c0 -122 40 -131 200 -46 110 59 200 128 200 154 0 25 -90 46 -200 46 -113 0 -200 -67 -200 -154z"/>
<path d="M2614 11997 c-399 -332 -1882 -1197 -2053 -1197 -88 0 -161 -42 -161 -93 0 -52 -90 -122 -200 -157 -127 -40 -200 -151 -200 -306 0 -272 -266 -406 2150 1084 824 508 1063 757 800 835 -55 17 -206 -58 -336 -166z"/>
<path d="M3469 11306 c-164 -279 -1168 -1206 -1305 -1206 -35 0 -64 70 -64 156 0 86 -47 127 -104 91 -57 -35 -77 -150 -43 -255 59 -188 -104 -283 -170 -98 -18 52 -303 -102 -633 -341 -978 -709 -1175 -899 -1136 -1091 31 -154 107 -125 536 201 275 208 633 503 796 653 198 183 334 242 410 179 75 -62 243 -1 499 181 502 356 1745 1581 1745 1718 0 222 -364 93 -531 -188z"/>
<path d="M79052 10804 c-33 -53 167 -212 444 -352 488 -247 504 -249 504 -54 0 179 -43 212 -254 198 -29 -2 -122 66 -207 150 -174 174 -398 201 -487 58z"/>
<path d="M72838 10155 c-67 -176 29 -354 193 -357 65 -1 223 -111 350 -245 247 -260 1768 -896 1920 -803 50 31 171 11 270 -46 98 -56 517 -189 929 -295 413 -107 1144 -309 1627 -451 482 -142 963 -258 1069 -258 106 0 220 -45 254 -100 96 -155 550 -121 550 42 0 173 -995 493 -2537 815 -1807 377 -3228 845 -3592 1183 -389 360 -792 660 -888 660 -49 0 -114 -65 -145 -145z"/>
<path d="M15000 3100 c0 -55 90 -100 200 -100 110 0 200 45 200 100 0 55 -90 100 -200 100 -110 0 -200 -45 -200 -100z"/>
</g>
</svg>