<svg xmlns="http://www.w3.org/2000/svg" version="1.0" width="800" height="250" viewBox="0 0 800.000000 250.000000" preserveAspectRatio="xMidYMid meet">
<metadata>
Created by potrace 1.10, written by Peter Selinger 2001-2011
</metadata>
<g transform="translate(0.000000,250.000000) scale(0.010000,-0.010000)" fill="#555555" stroke="none">
<path d="M1375 24550 c56 -491 -123 -642 -235 -198 -34 139 -158 319 -274 400 -237 167 -866 201 -866 48 0 -55 128 -100 285 -100 296 0 479 -161 710 -623 175 -350 668 -460 1098 -246 343 172 2805 430 3079 324 167 -65 166 -78 -20 -215 -157 -115 -175 -181 -88 -318 124 -194 398 -201 1486 -40 1289 192 1666 217 1842 122 115 -61 380 -47 767 42 1386 320 2173 290 1516 -58 -124 -65 -577 -461 -1008 -878 l-783 -760 -967 11 c-532 6 -1124 21 -1317 34 -192 13 -687 -20 -1100 -74 -927 -120 -1430 51 -1482 504 -38 337 -166 346 -1144 74 -398 -111 -1019 -229 -1379 -263 -553 -51 -720 -27 -1083 158 -396 202 -426 205 -394 37 20 -109 202 -239 454 -327 356 -123 554 -126 1299 -19 484 69 1078 193 1320 275 506 170 709 129 709 -145 0 -123 133 -255 368 -367 307 -145 504 -162 1175 -98 444 42 942 67 1107 55 165 -11 761 -29 1325 -38 564 -9 1025 -27 1025 -38 0 -12 -84 -237 -186 -500 -102 -264 -215 -742 -252 -1065 -113 -1002 -91 -988 -1444 -911 -642 37 -1280 78 -1418 91 -137 13 -812 -15 -1500 -61 -1631 -110 -2827 35 -3178 385 -261 262 -722 289 -801 47 -32 -97 14 -117 158 -72 139 44 285 -12 466 -179 398 -369 1675 -527 3054 -378 1341 146 2331 145 3012 -2 297 -64 731 -109 967 -99 472 19 483 4 550 -698 l45 -462 -712 -73 c-742 -76 -985 -78 -2061 -20 -357 19 -1100 -3 -1650 -48 -1336 -110 -3126 -106 -3526 9 -180 52 -324 54 -324 6 0 -175 254 -233 1192 -272 527 -22 1026 -44 1108 -48 83 -4 814 51 1626 122 1177 103 1560 105 1888 7 328 -99 625 -98 1464 5 l1052 128 327 -378 c426 -493 632 -938 766 -1657 100 -538 89 -624 -132 -1070 l-241 -485 -1100 -5 c-794 -4 -1246 -56 -1625 -187 -744 -258 -1777 -191 -2038 133 -247 304 -244 319 163 738 409 421 416 459 143 807 -142 180 -302 263 -509 263 -165 0 -646 88 -1067 195 -797 202 -2900 455 -2996 360 -104 -105 34 -138 829 -201 912 -72 2648 -412 2781 -545 93 -93 -27 -126 -1131 -312 -357 -60 -819 -159 -1026 -219 -297 -87 -433 -81 -642 31 -207 110 -274 114 -307 16 -23 -69 -150 -125 -283 -125 -133 0 -242 -40 -242 -89 0 -126 639 -230 944 -154 191 48 256 26 256 -88 0 -188 468 -346 1200 -405 679 -55 1200 -167 1200 -258 0 -183 -1590 -431 -2703 -422 -359 3 -719 -37 -800 -88 -104 -66 -26 -93 271 -94 231 -1 533 -45 672 -98 147 -56 276 -59 308 -7 30 49 313 117 629 152 315 35 833 125 1150 201 504 120 644 118 1100 -18 565 -168 1790 -137 2149 55 272 146 1433 252 1865 171 552 -103 476 -373 -225 -799 l-585 -355 -1990 -76 c-2438 -94 -2801 -86 -2985 67 -102 84 -428 105 -1076 68 -511 -28 -1039 -54 -1172 -57 -133 -4 -211 -36 -174 -73 37 -38 529 -57 1094 -44 693 16 1108 -19 1278 -108 190 -98 549 -115 1448 -65 658 36 1554 70 1991 75 1072 12 887 -168 -474 -460 -562 -120 -1313 -291 -1671 -380 -358 -88 -875 -175 -1150 -192 -1861 -118 -2550 -216 -2550 -364 0 -67 319 -78 925 -33 852 64 914 57 789 -95 -84 -101 -111 -264 -72 -422 61 -242 -145 -614 -550 -995 -59 -55 -214 -206 -346 -337 -178 -175 -306 -220 -493 -173 -187 47 -253 24 -253 -88 0 -102 98 -152 294 -152 162 0 322 -45 356 -100 83 -134 721 -128 805 8 40 65 -8 100 -119 89 -357 -38 -436 5 -436 237 0 263 441 542 558 353 36 -58 238 -89 450 -69 l384 37 -196 -209 c-108 -115 -196 -307 -196 -427 0 -135 -67 -226 -175 -236 -96 -10 -242 -27 -325 -39 -82 -13 -431 -28 -775 -33 -508 -9 -625 -42 -625 -175 0 -139 81 -154 550 -99 579 68 702 17 325 -134 -322 -129 843 -129 1404 1 357 82 593 55 1400 -160 534 -142 1084 -235 1221 -207 138 29 628 142 1090 251 l840 198 307 -348 308 -347 2252 57 c1239 31 2781 79 3426 106 1340 55 2302 -27 2248 -193 -20 -61 -325 -219 -679 -352 -569 -213 -796 -240 -1992 -231 -742 5 -1835 -55 -2428 -134 -594 -79 -1282 -144 -1531 -144 -277 0 -429 -39 -391 -100 88 -143 709 -124 1616 50 878 168 3334 207 3334 54 0 -136 -221 -239 -1250 -583 -1161 -388 -2045 -587 -3368 -761 -587 -76 -1113 -167 -1168 -202 -56 -34 -581 -64 -1167 -66 -586 -3 -1455 -69 -1931 -147 -476 -78 -1451 -146 -2166 -151 -1521 -10 -2166 -91 -2229 -279 -30 -93 15 -119 142 -82 103 30 615 68 1137 86 859 28 947 14 921 -144 -35 -209 109 -229 268 -39 62 75 371 164 687 199 316 34 912 106 1324 159 413 54 1057 99 1431 102 591 3 679 -19 664 -171 -51 -501 145 -601 240 -123 34 167 118 319 188 339 389 113 1310 262 1877 303 358 27 740 69 850 94 110 25 470 99 800 165 868 174 1215 286 2000 647 385 178 903 416 1150 530 248 113 653 273 900 355 248 81 675 246 950 366 371 161 619 204 962 164 419 -48 472 -30 575 196 157 344 142 396 -62 214 -96 -87 -242 -166 -325 -178 -455 -63 -352 47 406 434 464 237 1131 653 1482 925 591 458 2603 1844 2677 1844 18 0 22 -79 9 -175 -13 -96 21 -186 76 -200 55 -14 104 9 108 50 37 339 206 599 474 731 175 86 600 307 944 491 344 184 642 316 661 294 93 -108 152 -1296 62 -1240 -54 33 -99 148 -99 255 0 107 -48 194 -107 194 -203 0 -50 -547 182 -649 153 -67 272 -263 375 -615 196 -676 196 -799 0 -636 -82 68 -150 212 -150 318 0 107 -45 166 -100 132 -168 -104 -112 -438 110 -660 291 -291 104 -469 -249 -238 -257 169 -346 348 -172 348 49 0 2 169 -106 375 -157 303 -189 534 -164 1200 31 820 -42 1083 -151 542 -31 -155 -40 -414 -19 -575 139 -1112 145 -1428 26 -1470 -153 -55 292 -572 492 -572 255 0 130 -185 -198 -294 -240 -79 -418 -79 -650 2 -321 112 -360 178 -321 537 19 171 0 178 -143 59 -263 -218 -146 -534 272 -738 l378 -185 -428 -342 c-543 -435 -779 -495 -1166 -295 -281 146 -358 260 -323 481 7 41 -58 75 -145 75 -111 0 -147 -78 -125 -272 23 -196 140 -333 414 -487 l382 -213 -424 -312 c-628 -462 -1008 -563 -1384 -369 -222 115 -306 229 -306 418 0 223 -22 241 -155 131 -258 -214 -127 -514 330 -755 l425 -225 -325 -198 c-179 -109 -533 -267 -787 -352 -588 -197 -1161 -59 -1251 302 -79 312 -237 295 -237 -25 0 -206 80 -292 399 -425 219 -93 399 -226 400 -298 2 -248 -807 -515 -1568 -518 -615 -2 -741 28 -864 204 -80 114 -120 305 -89 425 50 195 38 204 -111 82 -393 -323 -16 -913 583 -913 628 0 424 -192 -585 -551 -937 -334 -1760 -37 -1768 637 -3 244 -14 251 -140 84 -191 -252 -87 -537 306 -837 185 -141 337 -285 337 -320 0 -35 -259 -146 -576 -247 -723 -231 -1255 -150 -1657 252 -237 237 -266 313 -163 437 69 82 93 181 55 220 -90 89 -255 -172 -257 -407 -3 -291 190 -570 468 -676 142 -53 227 -129 189 -166 -101 -101 -965 -316 -1289 -322 -622 -9 -1131 491 -1002 985 70 265 -125 278 -264 18 -144 -268 15 -641 391 -919 168 -124 305 -259 305 -299 0 -41 -235 -143 -522 -227 -457 -134 -542 -135 -683 -8 -88 81 -257 146 -374 146 -236 0 -584 324 -683 637 -47 147 13 263 224 432 329 263 121 328 -240 75 -331 -232 -288 -640 108 -1024 181 -176 406 -320 500 -320 277 0 194 -172 -138 -288 -952 -332 -1993 -207 -2221 267 -168 347 -112 681 143 860 110 77 159 166 108 197 -133 83 -484 -336 -563 -672 -84 -352 140 -729 521 -879 l270 -106 -250 -101 c-137 -56 -523 -107 -857 -115 -522 -11 -659 26 -975 267 -267 203 -368 356 -368 555 0 325 163 515 440 515 145 0 170 30 91 109 -154 154 -492 -43 -668 -387 -171 -334 -69 -658 310 -983 312 -269 266 -297 -614 -375 -770 -69 -1200 106 -1426 580 -166 347 -164 360 66 605 130 138 191 251 136 251 -188 0 -535 -462 -535 -713 0 -137 90 -346 200 -464 341 -366 257 -439 -425 -369 -808 82 -1189 201 -1468 461 -183 170 -213 277 -164 572 57 339 51 350 -91 169 -251 -321 -189 -677 172 -978 l326 -273 -375 -2 c-264 -2 -375 -47 -375 -152 0 -128 255 -139 1875 -85 1454 50 2290 137 3725 389 1904 334 4368 915 5250 1236 275 100 680 215 900 255 220 39 448 111 506 159 58 49 492 178 963 288 471 110 1009 287 1194 395 185 107 637 286 1004 398 367 111 750 249 850 305 101 56 530 257 953 446 424 190 930 468 1126 617 195 149 613 400 929 559 533 268 823 457 1511 984 145 112 557 395 914 629 358 234 806 571 997 750 191 178 386 324 433 324 47 0 338 181 646 402 309 220 595 367 637 325 41 -43 260 -429 485 -859 534 -1023 882 -1568 999 -1568 52 0 210 -198 352 -439 142 -242 492 -653 779 -914 483 -438 878 -805 1122 -1044 497 -484 1760 -1330 2200 -1474 110 -36 627 -285 1150 -554 853 -438 997 -482 1414 -430 360 46 476 25 521 -93 32 -84 173 -152 312 -152 139 0 253 -50 253 -111 0 -73 113 -89 325 -46 400 81 646 89 1975 60 2123 -46 3398 145 4650 695 220 97 513 210 650 251 138 41 457 222 709 402 585 415 988 508 1364 313 231 -120 556 -138 1650 -92 1108 47 1425 28 1695 -97 481 -224 1354 -323 1533 -174 110 91 1071 112 3897 85 2856 -27 3752 -8 3752 83 0 66 -45 147 -100 181 -343 212 242 495 1578 765 485 97 699 100 938 10 243 -92 365 -89 572 16 375 190 1370 337 2012 297 1936 -121 2400 -164 2397 -222 -2 -36 -69 -153 -150 -260 -197 -261 -185 -518 28 -609 302 -129 -227 -226 -1288 -237 -671 -7 -995 29 -1069 118 -63 76 -384 138 -787 153 -884 32 -3031 -190 -3031 -314 0 -60 289 -64 775 -11 1315 143 2498 99 2720 -101 176 -160 307 -164 1627 -57 789 64 1479 106 1532 93 53 -13 225 12 383 56 162 46 575 32 950 -31 1178 -198 4059 -303 4209 -153 45 45 -146 198 -327 262 -163 58 56 364 364 508 246 115 441 128 867 58 492 -81 568 -70 717 111 232 279 823 356 2283 298 920 -37 1340 -96 1593 -226 247 -127 442 -156 700 -105 l357 72 -400 70 c-220 38 -628 135 -908 215 -724 209 -3048 171 -3579 -59 -218 -94 -647 -167 -982 -167 -753 0 -1281 -263 -1281 -639 0 -274 -316 -344 -1150 -256 -440 46 -1056 87 -1368 90 -313 3 -696 55 -850 117 -155 61 -555 103 -890 93 -445 -13 -642 24 -737 139 -71 86 -191 156 -267 156 -76 0 -138 40 -138 89 0 101 613 411 812 411 224 0 -265 289 -573 339 -159 26 -888 79 -1621 117 -732 39 -1295 103 -1250 144 184 164 828 317 1582 376 1368 108 1949 88 2045 -68 75 -122 214 -124 938 -16 684 101 960 102 1413 0 310 -69 586 -163 614 -209 69 -111 440 -107 440 5 0 285 -1410 538 -2298 412 -553 -78 -756 -67 -1051 56 -307 128 -516 136 -1284 48 -504 -57 -1019 -132 -1143 -166 -354 -97 -188 174 267 434 388 222 1248 1260 1432 1728 54 138 137 325 184 417 131 257 -68 1240 -388 1922 -159 336 -519 886 -801 1223 -998 1189 -3109 2690 -4468 3174 -220 79 -535 191 -700 249 -165 58 -772 246 -1350 417 -577 172 -1275 393 -1550 492 -275 99 -972 229 -1550 288 -577 59 -1247 178 -1488 263 -240 85 -546 155 -680 155 -133 0 -369 66 -524 146 -155 80 -410 136 -568 125 -321 -23 -324 -15 -536 1425 -70 474 -249 1039 -490 1550 -209 442 -414 939 -455 1104 -41 165 -195 456 -342 646 -147 191 -357 489 -467 663 -223 353 -589 802 -1227 1506 -235 259 -392 504 -350 544 105 98 2061 -167 2345 -318 125 -67 363 -156 530 -198 166 -42 533 -164 816 -272 283 -108 756 -252 1050 -320 668 -155 1624 -444 2536 -768 385 -137 921 -317 1191 -399 467 -144 991 -363 2109 -881 275 -127 680 -289 900 -358 220 -70 714 -277 1097 -461 384 -184 755 -334 825 -334 180 0 159 -167 -30 -239 -294 -113 -2723 -69 -2762 50 -26 78 -165 68 -469 -35 l-432 -146 685 -22 c377 -13 1249 -15 1936 -6 688 10 1408 20 1600 22 416 6 1127 -303 1433 -622 92 -95 -14 -107 -483 -53 -330 38 -1747 83 -3150 101 -1460 18 -2699 79 -2899 141 -192 60 -494 109 -669 109 -176 0 -348 45 -382 100 -37 60 99 100 344 100 223 0 406 45 406 100 0 108 -1081 140 -1342 39 -210 -80 -201 -301 14 -384 489 -187 2746 -381 4928 -423 3460 -67 3714 -78 4050 -177 304 -90 1176 -487 1450 -661 83 -52 262 -142 398 -201 688 -293 1022 -466 1802 -932 468 -280 873 -533 900 -563 28 -30 365 -245 750 -478 2529 -1531 3768 -2316 4156 -2634 244 -200 876 -654 1405 -1009 1698 -1140 3665 -2635 4339 -3299 165 -162 422 -359 572 -438 150 -78 320 -232 379 -341 58 -109 161 -199 228 -199 66 -1 292 -158 502 -350 209 -193 423 -350 475 -350 52 0 94 -60 94 -132 0 -91 -166 -139 -525 -152 -614 -22 -1848 -349 -1775 -470 28 -45 364 -99 747 -119 383 -20 957 -71 1275 -115 318 -43 578 -46 578 -6 0 90 -286 159 -1033 249 -746 90 -612 248 245 289 826 39 788 27 788 240 0 102 -268 411 -602 693 -331 280 -556 537 -500 572 56 35 102 170 102 301 0 131 45 266 100 300 55 34 99 115 97 181 -2 65 -115 -8 -252 -163 -136 -155 -224 -321 -195 -368 29 -48 8 -114 -48 -149 -56 -35 -102 -20 -102 32 0 53 -113 124 -250 158 -221 56 -250 116 -250 523 0 398 -20 444 -150 336 -82 -68 -150 -190 -150 -271 0 -246 -239 -86 -450 301 -166 304 -179 401 -77 564 68 108 86 220 40 248 -46 28 -142 -60 -215 -195 -166 -311 -303 -311 -593 -2 -222 236 -228 319 -58 805 54 153 9 133 -191 -84 -251 -273 -273 -278 -508 -124 -331 217 -422 623 -218 979 157 272 155 278 -33 178 -107 -58 -223 -216 -257 -352 -76 -306 -182 -311 -484 -22 -368 353 -392 594 -103 1020 141 208 238 397 215 420 -70 70 -668 -662 -668 -818 0 -210 -206 -176 -525 86 -222 181 -268 290 -238 555 22 182 136 461 254 621 175 236 186 291 61 291 -176 0 -551 -561 -552 -825 -1 -457 -660 91 -750 624 -54 319 -26 450 141 663 318 404 243 532 -94 161 -163 -179 -297 -435 -297 -569 0 -370 -155 -387 -441 -47 -375 446 -417 728 -170 1148 237 401 249 445 119 445 -152 0 -508 -655 -508 -937 0 -353 -119 -331 -490 90 -347 396 -419 932 -153 1152 220 183 473 695 343 695 -58 0 -144 -101 -191 -225 -47 -124 -181 -311 -298 -415 -145 -132 -211 -311 -211 -575 0 -445 -53 -464 -414 -146 -528 465 -628 994 -286 1511 214 323 247 450 118 450 -158 0 -538 -817 -538 -1156 0 -189 -26 -344 -59 -344 -143 0 -720 463 -720 578 -1 71 -65 153 -143 183 -261 100 -264 361 -10 795 275 469 322 744 127 744 -69 0 -130 -131 -135 -293 -6 -160 -85 -366 -175 -456 -91 -91 -192 -274 -226 -408 -74 -294 -81 -295 -499 -37 -424 262 -531 722 -301 1296 183 456 209 798 61 798 -55 0 -100 -92 -100 -204 0 -112 -90 -380 -200 -596 -110 -216 -200 -484 -200 -596 0 -247 -36 -251 -358 -39 -452 296 -710 1271 -403 1526 183 151 257 453 154 620 -63 102 -97 87 -144 -64 -34 -108 -156 -381 -270 -607 -140 -276 -187 -496 -142 -675 37 -146 49 -265 27 -265 -135 0 -764 317 -764 385 0 46 -112 134 -250 197 -329 150 -316 398 50 902 333 460 383 716 139 716 -100 0 -139 -55 -104 -147 31 -81 -44 -273 -168 -425 -124 -153 -280 -405 -347 -559 -98 -228 -164 -269 -346 -215 -679 203 -831 542 -465 1036 122 166 191 382 167 521 -38 224 -45 227 -116 39 -41 -110 -117 -267 -169 -350 -52 -82 -163 -299 -247 -481 -125 -274 -189 -318 -373 -260 -226 71 -671 336 -671 399 0 19 135 248 300 508 330 521 394 934 143 934 -110 0 -138 -58 -95 -195 66 -206 -111 -600 -442 -986 l-198 -232 -479 274 c-264 151 -494 286 -513 299 -19 13 150 191 375 394 446 403 541 812 246 1057 -147 121 -156 103 -93 -182 88 -400 -46 -652 -493 -928 -341 -211 -364 -213 -851 -51 -275 91 -500 198 -500 238 0 39 182 249 404 466 291 284 396 463 375 638 -43 358 -289 397 -262 41 25 -322 -229 -676 -638 -891 -245 -129 -315 -122 -727 78 l-456 222 329 304 c510 471 590 610 518 894 -92 367 -243 323 -243 -71 0 -400 -138 -594 -600 -840 -362 -194 -645 -159 -1150 142 -200 120 -200 120 0 266 110 81 286 211 391 290 217 163 386 1363 173 1231 -63 -38 -115 -236 -116 -439 -3 -423 -214 -730 -654 -951 -280 -141 -340 -138 -725 35 -230 103 -419 211 -419 240 0 28 134 121 297 205 402 208 532 485 452 959 -92 544 -249 493 -251 -82 -1 -549 -47 -635 -428 -802 -373 -164 -700 -155 -1145 31 l-369 154 382 350 c340 312 376 388 319 688 -51 274 -16 388 190 610 328 354 319 444 -43 444 -200 0 -334 69 -410 211 -86 161 -140 183 -228 93 -88 -90 -62 -163 110 -303 125 -102 282 -205 350 -229 88 -30 70 -104 -64 -255 -134 -151 -174 -308 -139 -540 67 -439 22 -533 -382 -782 l-344 -213 -718 217 -717 218 419 399 c230 220 419 489 419 598 0 110 47 286 104 393 80 150 70 193 -45 193 -188 0 -252 -108 -298 -503 -21 -175 -155 -436 -298 -580 -221 -221 -345 -259 -815 -253 -305 5 -581 35 -613 68 -33 33 81 178 252 323 244 205 313 342 313 622 0 232 77 442 217 592 183 194 191 231 53 231 -230 0 -515 -470 -489 -808 41 -541 -703 -913 -1363 -683 -175 61 -318 136 -318 166 0 31 180 222 400 425 325 300 400 437 400 732 0 460 358 751 699 569 116 -63 288 -96 381 -75 121 28 63 92 -203 224 -329 163 -405 169 -634 46 -298 -159 -543 -576 -543 -924 0 -245 -278 -558 -681 -766 -255 -132 -749 -61 -906 129 -173 207 56 985 365 1240 199 164 228 224 108 225 -309 0 -597 -338 -655 -770 -31 -230 -116 -441 -190 -470 -176 -67 -1141 48 -1141 136 0 37 113 166 250 285 176 153 250 319 250 560 0 189 31 425 69 526 60 161 48 167 -100 46 -93 -76 -169 -242 -169 -371 0 -128 -47 -336 -105 -462 -111 -245 -704 -680 -924 -680 -170 0 -562 293 -398 297 247 6 434 452 354 841 -111 530 -277 478 -277 -87 0 -441 -28 -497 -330 -667 -358 -201 -529 -161 -860 205 -184 203 -183 210 30 384 260 212 333 754 109 801 -110 23 -151 -55 -150 -283 1 -399 -344 -681 -564 -461 -77 76 -242 193 -367 260 -162 87 -210 178 -166 316 55 175 11 194 -449 194 -450 0 -496 -18 -382 -155 309 -370 528 -545 685 -545 92 0 477 -247 856 -549 378 -303 761 -550 850 -550 89 -1 303 -174 476 -386 374 -459 640 -780 1115 -1345 432 -513 1010 -1398 1222 -1870 791 -1758 969 -2289 1073 -3200 156 -1368 176 -4486 31 -4816 -64 -146 -147 -529 -182 -850 -80 -715 -267 -1313 -634 -2028 -457 -890 -365 -899 -1903 202 -239 171 -349 323 -328 450 18 106 57 320 88 475 38 195 -8 370 -146 556 -197 267 -277 847 -240 1736 12 284 58 375 191 375 214 0 892 704 1038 1077 59 150 120 470 136 711 28 398 5 447 -246 541 -151 58 -356 254 -455 438 -99 183 -217 333 -264 333 -46 0 -84 156 -84 347 0 284 54 376 295 500 162 84 465 153 672 153 l377 0 -213 214 -214 213 -345 -213 c-477 -295 -602 -278 -525 73 84 382 -297 1258 -608 1400 -278 127 -402 -10 -177 -197 87 -72 201 -224 253 -336 51 -112 152 -304 222 -427 139 -240 99 -861 -50 -769 -50 31 -65 97 -34 147 84 136 -137 497 -568 932 -212 212 -385 464 -385 558 0 94 -33 205 -74 245 -40 41 -74 150 -75 242 -1 136 -102 168 -533 168 -402 0 -555 43 -630 175 -57 103 -216 175 -382 175 -157 0 -310 65 -340 144 -31 80 -215 175 -411 212 -195 36 -355 106 -355 155 0 124 -362 104 -950 -54 -275 -73 -564 -99 -641 -57 -78 42 -286 16 -463 -58 -210 -88 -423 -107 -609 -54 -158 45 -338 64 -401 42 -62 -22 -282 75 -489 215 -206 140 -460 255 -563 255 -107 0 -228 104 -280 240 -147 385 -276 395 -904 68 -325 -169 -732 -308 -904 -308 -207 0 -298 -42 -268 -125 63 -179 446 -111 1006 176 588 302 766 313 766 46 0 -112 56 -219 125 -239 69 -19 316 -87 550 -151 234 -63 425 -175 425 -248 0 -179 1078 -300 1441 -162 189 71 333 71 469 -2 150 -80 343 -54 808 111 554 197 619 202 701 56 51 -90 217 -162 374 -162 155 0 339 -68 407 -150 68 -82 252 -150 409 -150 186 0 323 -72 396 -209 93 -174 187 -204 554 -175 268 22 441 -6 441 -71 0 -254 459 -1025 816 -1371 306 -298 374 -427 327 -617 -45 -180 -8 -269 148 -352 137 -73 209 -210 209 -396 0 -157 70 -343 157 -414 86 -72 222 -257 301 -411 80 -155 258 -309 396 -344 227 -57 245 -97 185 -426 -36 -200 -108 -418 -161 -485 -52 -66 -67 -165 -33 -220 34 -55 -48 -172 -181 -259 -134 -88 -266 -247 -294 -355 -29 -110 -137 -195 -248 -195 -353 0 -451 -255 -447 -1164 3 -712 40 -907 215 -1143 213 -289 259 -548 149 -835 -90 -234 -166 -205 -893 345 -366 277 -874 609 -1130 739 -545 275 -1782 658 -2128 658 -132 0 -451 113 -709 250 -259 138 -528 250 -599 250 -70 0 -458 163 -862 362 -713 353 -748 360 -1292 250 -308 -61 -952 -112 -1432 -112 -986 0 -1189 -102 -1388 -700 -113 -338 -104 -362 255 -675 454 -396 386 -506 -184 -298 -235 85 -722 176 -1082 201 -677 47 -1295 286 -1295 500 0 67 169 212 374 322 456 244 519 488 210 818 -407 436 -748 551 -1605 542 -437 -5 -881 38 -987 94 -215 115 -262 554 -67 624 69 25 93 79 54 121 -72 78 -668 -369 -805 -603 -123 -212 101 -641 399 -764 152 -63 573 -106 934 -96 609 18 666 1 792 -233 74 -139 172 -253 218 -253 140 0 88 237 -106 490 -169 220 -233 235 -741 175 -755 -89 -1264 114 -1268 507 -1 78 123 48 352 -88 276 -162 466 -198 856 -160 807 77 1397 -76 1723 -448 l284 -322 -284 -230 c-156 -126 -339 -275 -408 -330 -423 -344 161 -718 1383 -886 952 -131 1928 -339 2042 -435 55 -47 248 -173 430 -280 583 -346 247 -381 -704 -73 -620 201 -1290 331 -2026 393 -1620 138 -2208 372 -2092 833 84 336 -195 500 -809 474 -292 -12 -690 -89 -886 -171 -444 -185 -967 -191 -1209 -14 -254 185 -114 404 163 256 234 -125 602 -92 1716 154 430 95 896 144 1034 110 182 -46 240 -28 209 66 -54 156 -605 153 -1376 -8 -1142 -238 -1286 -245 -1548 -74 -139 91 -252 232 -252 313 0 147 -195 216 -205 73 -3 -41 -22 -266 -42 -500 -30 -346 3 -453 177 -575 231 -162 1069 -205 1225 -64 164 149 1035 320 1297 255 200 -51 245 -119 228 -346 -45 -590 576 -878 2070 -958 847 -46 1110 -94 2423 -442 453 -121 803 -253 778 -294 -26 -41 -343 -63 -706 -48 -732 28 -878 -85 -620 -479 241 -367 2315 -983 4649 -1382 1091 -187 1325 -197 2150 -91 1576 200 1869 161 1664 -225 -110 -206 -106 -214 48 -87 146 121 220 115 542 -42 1726 -840 1717 -833 1515 -1210 -183 -345 -982 -1237 -1107 -1237 -53 0 -195 -107 -316 -237 -586 -631 -1318 -805 -2320 -553 -350 89 -564 79 -1061 -47 -561 -142 -694 -143 -1358 -6 -404 84 -785 121 -846 84 -61 -38 -768 -105 -1573 -149 -2078 -113 -2652 -267 -812 -217 798 22 1675 76 1950 120 275 44 703 55 950 24 437 -56 903 -56 2150 -3 330 14 828 -26 1106 -89 348 -79 640 -84 939 -17 617 139 1622 132 2582 -18 688 -107 916 -106 1350 8 351 91 1380 151 3123 180 3701 62 3747 60 4062 -173 225 -166 289 -177 383 -63 62 75 310 152 550 171 494 40 521 -57 42 -153 -423 -84 -587 -234 -587 -537 0 -235 -24 -247 -387 -189 -521 84 -7119 94 -7333 12 -93 -36 -430 11 -750 105 -476 140 -807 159 -1853 105 -982 -50 -1336 -34 -1550 72 -200 99 -623 129 -1527 109 -687 -15 -1385 15 -1550 66 -375 117 -631 127 -1450 57 -357 -31 -939 -57 -1292 -59 -353 -2 -609 -35 -571 -74 112 -111 1870 -121 2298 -13 298 75 477 61 789 -64 305 -122 567 -145 1077 -95 440 43 696 29 739 -41 69 -111 -1475 -916 -1757 -916 -83 0 -400 -85 -703 -190 -464 -159 -1800 -387 -2530 -432 -110 -6 -874 22 -1697 64 -1034 53 -1591 124 -1799 232 -166 86 -550 165 -853 176 -545 19 -882 146 -2601 982 -696 338 -1285 743 -1719 1182 -503 508 -607 1665 -179 1987 156 118 200 215 139 310 -48 77 -96 350 -106 608 -16 401 18 493 233 633 172 114 235 226 199 362 -36 139 14 222 170 281 274 104 500 365 423 489 -32 51 -9 232 50 402 92 263 77 349 -101 575 -115 146 -209 327 -209 402 0 76 -40 137 -89 137 -48 0 -328 225 -621 500 -409 384 -580 484 -736 433 -219 -72 -622 -65 -750 14 -43 27 -107 231 -142 453 -54 336 -124 433 -414 571 -342 163 -418 354 -366 929 47 523 -240 1000 -603 1000 -195 0 -193 -10 38 -192 187 -147 253 -307 279 -675 47 -649 46 -855 -4 -1033 -30 -107 50 -159 282 -181 299 -29 336 -74 482 -573 86 -298 201 -569 254 -602 53 -33 342 -65 643 -72 415 -10 559 -53 600 -180 29 -92 254 -274 501 -405 246 -130 475 -327 509 -437 33 -110 126 -275 207 -367 106 -121 119 -217 46 -354 -56 -103 -93 -269 -83 -368 12 -124 -91 -216 -332 -296 -216 -71 -362 -191 -385 -315 -20 -110 -146 -346 -280 -524 -201 -266 -225 -361 -133 -531 82 -153 81 -244 -2 -344 -84 -101 -79 -189 18 -349 113 -184 106 -227 -51 -316 -124 -71 -175 -203 -160 -420 39 -587 -6 -866 -142 -866 -261 0 -2022 2042 -2416 2800 -719 1387 -784 1700 -353 1700 120 0 203 66 203 162 0 161 -24 160 -619 -29 -132 -41 -182 31 -233 332 -36 212 -125 588 -198 835 -73 248 -161 725 -195 1060 -67 666 -11 772 471 893 151 38 274 136 274 219 0 97 -57 128 -163 87 -90 -35 -318 -34 -506 1 -330 62 -340 78 -311 477 29 401 40 412 355 382 183 -18 325 15 325 75 0 58 -110 106 -244 106 -134 0 -275 50 -313 112 -96 154 -56 1570 54 1938 49 165 160 548 247 850 489 1703 797 2465 1329 3283 897 1382 1416 2022 2377 2933 1227 1163 1918 1627 3150 2118 248 99 -4918 -23 -5344 -126 -410 -99 -601 -62 -502 99 92 148 -40 109 -333 -100 -149 -107 -473 -208 -721 -225 -402 -29 -453 -8 -482 193 -18 124 -92 225 -166 225 -84 0 -114 -74 -81 -198 59 -229 -153 -335 -961 -482 -492 -89 -510 -85 -510 137 0 266 -243 543 -476 543 -129 0 -116 -43 64 -210 126 -118 200 -276 169 -358 -31 -82 -57 -184 -57 -228 0 -105 -361 -246 -1450 -565 -1125 -330 -1650 -435 -1650 -331 0 44 45 108 100 142 204 126 98 514 -200 734 -315 233 -382 494 -180 696 91 91 91 120 2 120 -64 0 -195 -119 -290 -264 -172 -262 -171 -266 197 -575 204 -171 371 -362 371 -424 0 -130 -754 -837 -892 -837 -50 0 -152 -23 -226 -52 -95 -36 -134 42 -133 269 1 269 -60 353 -374 519 -425 226 -466 421 -168 801 l208 263 -258 0 c-162 0 -257 56 -257 150 0 83 -45 150 -100 150 -125 0 -133 -368 -10 -444 50 -31 68 -230 39 -443 -49 -369 -32 -398 360 -619 618 -347 527 -641 -317 -1023 -484 -219 -488 -218 -413 80 79 313 -75 507 -461 584 -174 35 -298 123 -298 213 0 194 -161 198 -235 5 -63 -164 46 -255 485 -406 237 -81 294 -154 272 -346 -42 -374 -285 -678 -717 -899 l-392 -200 18 269 c14 202 -59 319 -296 473 -270 176 -307 250 -258 506 51 271 41 287 -110 163 -272 -224 -208 -586 133 -763 517 -267 420 -606 -435 -1517 -823 -877 -964 -1096 -968 -1501 -3 -274 -8 -276 -158 -82 -201 260 -135 904 148 1448 240 459 250 502 123 502 -50 0 -217 -214 -372 -475 -222 -375 -282 -601 -285 -1075 -3 -573 21 -631 532 -1300 713 -935 972 -1469 1095 -2264 127 -819 40 -1248 -445 -2189 -397 -768 -1409 -1801 -1546 -1579 -51 83 -181 35 -435 -159 -293 -223 -391 -253 -508 -155 -187 155 -186 339 4 496 390 324 -70 420 -477 100 -304 -239 -673 -264 -673 -46 0 84 76 275 169 425 159 255 148 252 -180 -54 -192 -179 -395 -325 -451 -325 -136 0 -538 -432 -538 -577 0 -63 -119 -225 -264 -360 -331 -307 -266 -599 113 -504 269 67 551 -92 551 -311 0 -71 -142 -178 -315 -238 -391 -137 -585 -140 -585 -10 0 55 68 100 150 100 83 0 150 50 150 111 0 113 -423 82 -891 -66 -171 -55 -220 -43 -169 39 47 76 -14 116 -178 116 -138 0 -282 51 -320 114 -89 143 318 471 685 551 347 76 481 263 159 222 -353 -46 -509 84 -383 319 127 238 274 246 515 28 195 -176 393 -105 212 76 -281 281 247 774 681 636 102 -32 265 -12 362 45 153 89 139 103 -98 106 -312 3 -383 289 -125 503 195 162 193 310 -3 235 -132 -50 -136 -21 -34 203 65 144 156 262 201 262 184 0 533 881 583 1472 41 481 83 603 184 540 133 -83 241 -1012 118 -1012 -36 0 -217 -289 -402 -641 -292 -558 -318 -663 -198 -808 103 -124 226 -150 483 -102 286 54 335 39 285 -90 -37 -97 18 -197 143 -265 269 -143 551 38 1604 1031 228 214 286 219 286 25 0 -233 436 -181 683 81 119 128 215 319 213 425 -3 150 -40 126 -165 -106 -241 -452 -530 -600 -533 -275 0 96 -46 243 -101 325 -83 125 -148 92 -388 -196 -249 -299 -310 -328 -449 -213 -88 74 -160 240 -160 371 0 289 -162 314 -250 39 -36 -115 13 -326 117 -503 l179 -304 -298 -243 c-533 -436 -886 -244 -438 237 276 296 156 409 -140 131 -126 -119 -374 -245 -550 -280 -295 -59 -320 -44 -320 199 0 242 32 262 431 262 431 0 884 218 744 358 -40 41 -162 -6 -271 -104 -347 -314 -633 -6 -446 480 42 109 150 136 388 97 286 -46 364 -10 563 260 l233 314 132 -252 c73 -139 217 -253 320 -253 184 0 706 524 706 708 0 197 -202 77 -350 -208 -85 -165 -190 -300 -233 -300 -139 0 -317 236 -317 420 0 258 -85 226 -475 -175 -414 -427 -663 -419 -706 22 -23 242 16 330 166 378 291 93 670 955 420 955 -53 0 -125 -156 -161 -347 -89 -476 -403 -571 -708 -216 -267 310 -308 320 -363 88 -34 -143 -60 -129 -144 75 -256 625 -262 724 -43 654 114 -36 301 -14 417 47 156 84 245 84 347 -1 76 -63 264 -100 419 -82 264 30 283 64 311 557 19 320 -11 525 -75 525 -58 0 -111 -135 -117 -300 -25 -584 -20 -578 -372 -515 -116 21 -316 481 -316 726 0 110 -45 173 -100 139 -55 -34 -100 -236 -100 -450 0 -462 -95 -543 -447 -383 -198 90 -256 183 -237 376 34 331 263 607 506 607 413 0 878 500 878 945 0 258 -174 174 -247 -119 -38 -151 -116 -331 -173 -400 -151 -181 -394 -155 -359 39 52 292 -211 261 -281 -33 -93 -393 -314 -620 -546 -559 -150 39 -194 138 -194 439 0 493 -150 501 -280 13 l-99 -375 -11 475 c-10 475 -10 475 328 475 186 0 396 70 467 156 80 96 216 135 351 101 490 -123 1045 255 1044 711 -1 130 -56 91 -193 -134 -335 -548 -878 -564 -770 -22 84 417 -89 353 -270 -99 -166 -414 -448 -603 -582 -391 -100 157 -91 88 -129 928 -34 748 58 1027 534 1624 l260 325 160 -212 c99 -131 271 -212 450 -211 159 0 409 -84 555 -188 320 -226 715 -243 885 -38 107 129 84 142 -163 94 -647 -127 -836 496 -243 803 303 157 406 118 406 -153 0 -95 69 -199 153 -231 150 -58 906 186 1092 352 52 47 218 85 369 85 151 0 302 45 336 100 36 58 -66 100 -244 100 -275 0 -306 31 -306 306 0 178 -42 280 -100 244 -55 -34 -100 -209 -100 -389 0 -335 -201 -516 -646 -582 -273 -40 -325 285 -60 369 319 101 254 287 -69 199 -657 -179 -803 -54 -573 492 59 138 43 176 -59 142 -76 -25 -193 -235 -260 -465 -66 -230 -191 -489 -278 -575 -86 -86 -203 -243 -259 -349 -120 -224 -422 -252 -585 -55 -149 179 -45 439 205 518 125 40 177 119 141 214 -36 91 46 236 205 366 319 260 1529 1043 1738 1125 83 33 285 120 450 194 165 75 435 170 600 212 l300 77 -380 35 c-294 27 -543 -54 -1100 -355 -617 -334 -877 -410 -1820 -528 -605 -77 -1460 -143 -1900 -147 -907 -9 -2019 -122 -2577 -262 -498 -125 -629 -36 -418 286 248 378 62 433 -1205 355 -605 -37 -1336 -66 -1625 -64 -372 2 -525 -36 -525 -130 0 -203 -279 -159 -398 63 -58 108 -99 231 -92 275 45 264 -30 529 -148 529 -104 0 -125 -110 -87 -450z m28125 -145 c-192 -165 -390 -301 -438 -302 -49 -2 -460 -366 -914 -811 -454 -444 -916 -871 -1028 -949 -111 -78 -371 -378 -578 -667 -207 -289 -501 -661 -654 -826 -153 -165 -450 -615 -660 -1000 -328 -603 -423 -704 -680 -727 -164 -15 -714 -94 -1222 -177 -989 -160 -1377 -124 -1521 145 -81 152 -179 157 -1022 51 -1044 -130 -1183 -108 -1183 182 0 111 -206 394 -461 631 -253 236 -443 482 -422 546 21 64 282 202 579 307 598 210 986 532 1263 1046 244 452 145 511 -322 191 -354 -243 -446 -261 -1075 -210 -561 45 -759 19 -1071 -140 -672 -342 -834 -251 -729 408 40 251 130 434 227 463 89 28 364 131 611 230 467 186 1286 413 2397 664 356 81 739 204 850 275 275 173 1704 464 3053 620 1962 227 2902 302 4050 324 l1300 25 -350 -299z m-12400 -2438 c0 -329 58 -487 245 -662 l245 -231 305 256 c403 339 628 401 1047 285 195 -54 504 -61 704 -16 823 186 257 -390 -648 -659 -280 -83 -534 -216 -564 -296 -71 -184 198 -617 589 -951 270 -231 294 -297 234 -652 -111 -656 -203 -730 -527 -424 -154 146 -449 334 -655 419 -313 128 -375 202 -375 447 0 202 -77 345 -246 455 -357 234 -400 211 -533 -288 -109 -409 -148 -450 -426 -450 -324 0 -755 -190 -1245 -550 -427 -313 -617 -360 -761 -186 -102 122 -100 168 13 237 76 47 174 64 218 37 44 -28 80 60 80 195 0 372 312 684 756 756 336 55 394 101 394 313 0 209 -63 261 -400 332 -984 206 -1330 616 -766 908 252 130 302 129 436 -5 84 -84 339 -177 566 -208 l414 -55 0 432 c0 334 62 497 269 714 147 154 350 280 450 280 147 0 181 -82 181 -433z m-1158 -322 c35 -140 38 -297 5 -350 -90 -145 -407 -113 -547 54 -101 123 -81 185 113 347 310 258 353 253 429 -51z m-1323 -1234 c182 -104 500 -218 706 -254 458 -81 484 -210 59 -295 -185 -37 -466 -226 -677 -454 -337 -365 -409 -396 -1089 -463 l-729 -72 70 289 c124 520 389 872 946 1258 312 216 320 216 714 -9z m2781 -1047 c0 -123 54 -278 120 -344 93 -93 93 -147 0 -240 -89 -89 -247 -93 -624 -16 -488 100 -732 33 -473 -129 180 -112 1172 -74 1516 59 238 92 322 82 475 -57 208 -188 248 -587 70 -697 -63 -39 -1224 -91 -2580 -115 l-2465 -45 -270 353 c-148 195 -269 396 -269 449 0 127 356 215 875 217 507 1 564 -181 150 -483 -311 -226 -255 -393 72 -217 118 63 339 87 491 54 218 -48 410 28 903 357 439 293 746 424 1032 440 406 23 769 319 775 631 1 72 47 103 102 69 55 -34 100 -163 100 -286z m-8840 -37 c-33 -33 -56 26 -52 131 5 117 28 141 60 61 29 -72 26 -159 -8 -192z m13035 -471 c196 -236 611 -267 1439 -107 799 154 1488 195 1588 95 31 -30 8 -211 -51 -402 -136 -444 -295 -482 -1732 -419 -626 28 -1139 14 -1139 -32 0 -147 701 -218 1660 -168 517 27 940 15 940 -26 0 -42 -86 -362 -190 -711 -105 -350 -236 -861 -291 -1136 -56 -275 -153 -747 -217 -1050 -63 -302 -101 -662 -84 -800 29 -228 1 -248 -318 -231 -1821 102 -2686 93 -3050 -31 -220 -74 -571 -136 -781 -137 -228 0 -356 -41 -319 -101 91 -148 566 -121 1062 59 355 129 648 146 1538 88 1274 -83 1654 -111 1819 -132 69 -9 105 -131 86 -290 -18 -151 -37 -347 -44 -434 -9 -137 -263 -169 -1773 -226 -1097 -41 -1962 -124 -2290 -220 -339 -99 -826 -143 -1363 -124 -757 26 -844 50 -934 255 -65 148 -152 205 -250 163 -425 -179 -2975 -351 -3235 -217 -221 114 -348 20 -189 -139 85 -85 529 -89 1694 -17 1332 83 1615 76 1807 -47 354 -226 1528 -272 2251 -89 1090 276 4061 420 4274 207 51 -51 -322 -299 -883 -587 -983 -506 -2474 -1471 -4020 -2601 -467 -342 -1265 -834 -1772 -1094 -748 -383 -980 -459 -1232 -404 -385 84 -5098 74 -6821 -15 -1056 -55 -1277 -42 -1286 74 -5 77 -17 230 -25 340 -12 179 -72 196 -564 164 -303 -20 -865 -125 -1250 -233 -854 -240 -1026 -237 -1850 30 -538 175 -787 200 -1446 146 -1413 -116 -709 67 1169 303 1005 126 2107 319 2449 430 342 110 792 231 1000 268 208 37 423 103 478 146 55 43 392 176 748 296 1032 347 3771 1889 4290 2415 493 500 904 982 1017 1195 108 201 162 209 1039 143 1016 -76 1610 30 2091 372 366 260 821 251 1044 -21 186 -227 1221 -423 1221 -231 0 55 -184 125 -410 156 -225 30 -509 148 -631 263 -127 119 -355 208 -535 208 -172 0 -340 45 -374 100 -116 188 -306 101 -416 -190 -93 -247 -190 -307 -647 -398 -563 -112 -2066 -126 -2132 -20 -21 34 64 286 189 560 431 947 401 1740 -104 2806 -108 225 -134 388 -73 449 56 56 1187 101 2690 108 2659 13 4618 134 4790 297 91 86 -1291 41 -1968 -64 -418 -64 -427 114 -31 578 344 403 396 427 1032 481 1146 98 1192 97 1315 -51z m-12511 -1085 c-107 -201 -114 -201 -247 -20 -196 267 -171 328 111 274 215 -41 233 -74 136 -254z m-4643 -2433 c70 -182 -80 -418 -456 -723 -284 -230 -309 -232 -1163 -114 -1409 194 -1906 415 -1247 553 151 31 568 120 925 197 1571 338 1840 350 1941 87z m45926 -253 c353 -89 419 -135 294 -205 -172 -96 -223 -380 -68 -380 51 0 182 114 292 254 156 199 256 240 457 189 309 -78 329 -198 58 -343 -110 -59 -200 -150 -200 -204 0 -153 217 -111 347 67 143 196 1153 327 1153 150 0 -62 -40 -113 -89 -113 -49 0 -116 -68 -147 -150 -80 -209 59 -187 313 50 165 153 350 199 794 197 l579 -3 -275 -206 c-263 -195 -361 -388 -199 -388 42 0 196 111 343 248 256 237 283 241 624 98 196 -82 357 -187 357 -235 0 -47 179 -81 398 -75 467 12 865 -274 605 -434 -81 -50 -116 -122 -78 -161 39 -38 142 -10 231 64 186 154 1112 167 1263 16 68 -68 30 -172 -117 -319 -120 -120 -196 -241 -169 -269 28 -27 148 48 268 168 175 175 287 205 569 152 855 -161 990 -320 613 -721 -305 -325 -164 -397 170 -88 152 141 324 256 381 256 268 0 2668 -1785 3105 -2309 914 -1094 1293 -1828 1404 -2718 55 -439 31 -649 -105 -944 -487 -1048 -1684 -2086 -2770 -2401 -470 -136 -1286 -250 -3768 -526 -533 -59 -1111 -59 -1550 0 -918 124 -1403 182 -2550 304 -522 56 -1220 171 -1550 255 -647 166 -3304 1278 -3550 1486 -82 70 -510 289 -950 487 -440 197 -1047 495 -1350 661 -636 350 -828 441 -1275 608 -179 67 -325 169 -325 226 0 178 -321 471 -515 471 -252 0 -234 -164 24 -231 135 -36 196 -119 173 -236 -59 -309 -1323 -484 -2382 -330 -948 139 -1300 303 -1300 605 0 112 -45 176 -100 142 -55 -34 -100 -149 -100 -256 0 -249 8 -249 -1323 110 -2563 691 -2953 1000 -1202 951 1014 -29 1947 -185 2179 -364 57 -44 282 -126 500 -181 218 -56 666 -170 996 -254 743 -189 1650 -207 1650 -32 0 192 -341 975 -425 976 -105 0 -93 -339 23 -643 95 -250 86 -257 -321 -257 -460 0 -1577 299 -1577 422 0 43 -110 78 -243 78 -411 0 -757 179 -757 392 0 261 135 331 418 216 127 -53 401 -123 607 -156 285 -46 375 -108 375 -257 0 -305 198 -229 265 103 32 164 121 349 197 412 76 63 138 199 138 302 0 430 932 76 1666 -633 228 -221 470 -384 538 -361 68 23 -152 290 -497 602 -593 537 -667 572 -1689 814 -587 140 -1315 283 -1618 320 -774 94 -1200 309 -1200 607 0 313 -138 305 -284 -17 -145 -317 -316 -230 -316 162 0 338 -192 397 -274 84 -45 -172 -107 -199 -353 -150 -164 33 -371 61 -460 63 -90 2 -293 117 -451 257 -213 187 -259 283 -177 365 102 102 2045 297 2762 277 163 -5 478 -111 700 -237 222 -126 606 -291 853 -367 248 -76 540 -191 650 -257 110 -65 448 -174 750 -241 1782 -396 2143 -593 4717 -2565 513 -394 1327 -940 1808 -1214 920 -523 2860 -1242 3993 -1480 1056 -222 1166 -282 1105 -599 -36 -188 -17 -250 63 -201 62 39 114 181 114 316 0 240 11 243 575 169 316 -42 1273 -74 2125 -71 1890 7 2897 202 3531 686 824 628 1024 1194 725 2043 -215 608 -506 947 -1243 1446 -929 628 -1342 813 -3163 1417 -1848 612 -3431 931 -5050 1016 -881 47 -1000 148 -1000 848 0 646 61 769 355 713 272 -52 295 -4 138 289 -91 169 -131 180 -267 68 -141 -116 -151 -99 -91 144 38 151 34 275 -9 275 -138 0 -294 -677 -316 -1372 -20 -625 -124 -965 -232 -762 -40 74 170 2084 217 2084 10 0 35 124 55 275 20 151 -6 275 -57 275 -51 0 -93 68 -93 150 0 180 -6 180 567 35z m-41638 -1886 c-58 -221 -646 -546 -850 -471 -80 30 -34 89 121 156 138 59 363 198 500 309 138 112 257 204 266 205 8 1 -8 -88 -37 -199z m-833 -774 c-2 -41 -148 -166 -325 -276 -236 -148 -329 -288 -352 -525 -19 -195 -109 -365 -225 -427 -269 -144 -250 -541 31 -667 215 -96 207 -110 -196 -315 -757 -386 -1332 -199 -770 251 201 161 241 233 129 234 -271 0 -688 -396 -688 -655 0 -176 -70 -259 -257 -306 -330 -82 -744 105 -739 334 4 182 600 651 981 772 275 88 272 182 -9 306 -504 222 -231 599 574 793 l300 72 -210 -233 c-434 -481 -352 -790 205 -775 l305 8 -275 100 c-328 120 -346 270 -70 566 113 122 177 266 143 321 -82 133 718 481 1127 490 179 4 323 -27 321 -68z m1687 -488 c-42 -219 -357 -304 -519 -139 -86 87 -55 165 127 313 264 216 451 133 392 -174z m1012 88 c-35 -337 7 -425 199 -425 358 0 315 -188 -66 -294 -493 -137 -528 -134 -528 44 0 83 -45 150 -100 150 -55 0 -100 -134 -100 -298 0 -233 -54 -312 -244 -360 -490 -122 -635 242 -181 455 158 74 222 148 150 174 -68 25 -276 -48 -462 -163 -417 -257 -690 -272 -644 -35 21 111 161 195 382 232 192 32 597 201 899 376 635 366 719 384 695 144z m41755 -334 c1424 -187 1836 -285 3466 -828 2034 -677 2755 -1011 3534 -1635 710 -569 954 -1013 981 -1784 18 -551 7 -577 -403 -931 -620 -534 -1680 -802 -3428 -866 -1078 -40 -2615 126 -3800 410 -358 86 -830 194 -1050 241 -1313 281 -3350 1234 -3350 1568 0 80 179 520 397 978 219 458 447 1052 508 1319 61 268 158 622 216 787 57 165 113 405 125 534 11 128 84 274 162 324 150 96 1467 38 2642 -117z m-47309 -142 c-38 -149 -10 -316 68 -410 111 -134 94 -186 -114 -343 -154 -117 -280 -150 -340 -91 -52 52 -243 95 -425 95 -405 0 -451 249 -77 419 139 64 235 164 214 223 -44 127 307 349 560 354 139 3 163 -49 114 -247z m-1177 -279 c-439 -351 -333 -612 265 -651 l477 -30 -203 -258 c-112 -142 -203 -342 -203 -444 0 -124 -76 -191 -225 -199 -608 -32 -824 145 -500 410 289 237 284 285 -26 226 -137 -26 -321 11 -407 83 -141 117 -133 149 75 309 286 220 129 235 -354 33 -361 -151 -361 -151 -162 -350 109 -109 264 -199 343 -199 228 0 244 -117 82 -619 -141 -437 -139 -482 30 -650 174 -175 163 -183 -313 -242 -569 -70 -643 -46 -643 210 0 195 481 600 715 603 108 1 107 19 -6 90 -78 49 -360 69 -627 45 -642 -60 -759 166 -299 577 353 315 384 386 173 386 -577 0 55 694 644 707 193 4 440 46 550 93 110 47 358 89 550 92 l350 7 -286 -229z m32436 -20 c201 -148 474 -250 670 -250 460 0 889 -255 1559 -925 514 -514 561 -594 449 -773 -86 -137 -189 -181 -327 -141 -317 95 -1137 640 -1330 885 -96 122 -284 280 -417 352 -133 71 -334 218 -448 326 -113 108 -307 265 -431 348 -216 145 -312 428 -144 428 44 0 233 -112 419 -250z m-28174 -1062 c149 -98 -66 -187 -220 -91 -86 53 -107 150 -59 268 62 151 86 158 130 35 29 -82 96 -178 149 -212z m30974 112 c0 -55 -45 -100 -100 -100 -55 0 -100 45 -100 100 0 55 45 100 100 100 55 0 100 -45 100 -100z m-31452 -484 c4 -76 -806 -311 -923 -268 -209 76 -143 207 243 482 l369 262 155 -221 c85 -122 155 -236 156 -255z m33058 176 c331 -439 -214 -679 -964 -424 -576 197 -734 389 -482 588 306 242 1218 138 1446 -164z m-34424 -417 c-39 -271 -880 -623 -956 -400 -24 69 -133 125 -243 125 -349 0 -138 231 323 355 734 197 913 180 876 -80z m-1682 -163 c0 -271 -239 -430 -729 -485 -315 -35 -464 -6 -561 111 -225 271 -59 448 460 488 264 21 559 46 655 56 111 11 175 -51 175 -170z m43450 -3948 c550 -266 1270 -610 1600 -764 612 -287 1582 -577 2300 -688 220 -34 400 -106 400 -159 0 -59 -707 -99 -1800 -103 -1176 -3 -2001 -54 -2380 -145 -489 -117 -692 -118 -1300 -5 -396 73 -1054 127 -1462 119 -420 -8 -703 24 -650 72 50 48 369 315 708 594 339 279 811 757 1049 1062 238 304 456 542 484 527 28 -15 501 -244 1051 -510z"/>
<path d="M51632 13840 c-61 -159 144 -367 279 -283 96 59 -12 443 -126 443 -50 0 -119 -72 -153 -160z"/>
<path d="M54600 13900 c0 -55 42 -100 94 -100 52 0 122 45 156 100 34 55 -8 100 -94 100 -86 0 -156 -45 -156 -100z"/>
<path d="M52820 13780 c-167 -167 -150 -380 30 -380 93 0 150 94 150 250 0 285 -14 296 -180 130z"/>
<path d="M53920 13480 c-164 -164 -151 -347 30 -416 113 -43 150 16 150 239 0 334 -12 345 -180 177z"/>
<path d="M54967 13133 c-98 -98 -82 -433 21 -433 49 0 110 113 136 250 47 242 -20 320 -157 183z"/>
<path d="M50400 12706 c0 -162 45 -322 100 -356 60 -37 100 82 100 294 0 196 -45 356 -100 356 -55 0 -100 -132 -100 -294z"/>
<path d="M56224 12884 c-150 -150 -163 -384 -21 -384 121 0 232 246 180 400 -24 72 -77 66 -159 -16z"/>
<path d="M57369 12436 c-35 -35 -39 -103 -9 -152 64 -103 240 -14 240 122 0 107 -136 125 -231 30z"/>
<path d="M59600 11900 c0 -55 90 -100 200 -100 110 0 200 45 200 100 0 55 -90 100 -200 100 -110 0 -200 -45 -200 -100z"/>
<path d="M38400 11600 c0 -55 45 -100 100 -100 55 0 100 45 100 100 0 55 -45 100 -100 100 -55 0 -100 -45 -100 -100z"/>
<path d="M39200 11600 c0 -55 45 -100 100 -100 55 0 100 45 100 100 0 55 -45 100 -100 100 -55 0 -100 -45 -100 -100z"/>
<path d="M58547 11495 c-95 -154 35 -253 163 -125 72 72 74 128 6 170 -56 35 -132 15 -169 -45z"/>
<path d="M59774 11255 c-184 -134 -228 -255 -93 -255 153 0 449 270 358 326 -50 31 -169 -1 -265 -71z"/>
<path d="M60875 11225 c-199 -45 -240 -226 -50 -223 180 2 412 165 311 218 -47 25 -165 27 -261 5z"/>
<path d="M39900 11100 c0 -55 45 -100 100 -100 55 0 100 45 100 100 0 55 -45 100 -100 100 -55 0 -100 -45 -100 -100z"/>
<path d="M41058 10913 c-43 -69 -51 -153 -18 -186 89 -90 187 42 139 187 -34 101 -58 101 -121 -1z"/>
<path d="M42666 10525 c-94 -152 113 -386 234 -265 78 78 68 142 -37 229 -80 66 -169 83 -197 36z"/>
<path d="M60700 10350 c-135 -163 -103 -183 142 -89 87 33 158 101 158 150 0 138 -162 105 -300 -61z"/>
<path d="M43469 10236 c-47 -47 42 -270 211 -533 35 -54 216 210 218 318 3 102 -360 283 -429 215z"/>
<path d="M61600 10100 c0 -55 87 -100 194 -100 107 0 222 45 256 100 35 57 -49 100 -194 100 -141 0 -256 -45 -256 -100z"/>
<path d="M41300 9720 c0 -130 229 -320 385 -320 116 0 109 41 -35 200 -186 205 -350 262 -350 120z"/>
<path d="M44000 9458 c0 -87 71 -158 158 -158 177 0 146 215 -39 277 -66 22 -119 -32 -119 -119z"/>
<path d="M61550 9400 c-34 -55 -14 -100 44 -100 58 0 106 45 106 100 0 55 -20 100 -44 100 -24 0 -72 -45 -106 -100z"/>
<path d="M62357 9311 c-31 -49 62 -119 205 -155 290 -73 392 -25 292 137 -80 130 -421 142 -497 18z"/>
<path d="M44917 8806 c270 -342 383 -379 383 -126 0 233 -190 420 -428 420 -173 0 -169 -22 45 -294z"/>
<path d="M38248 8592 c-61 -190 0 -383 90 -284 106 118 163 492 75 492 -55 0 -129 -93 -165 -208z"/>
<path d="M62003 8604 c-200 -126 -95 -209 175 -139 121 32 195 98 165 146 -69 112 -154 110 -340 -7z"/>
<path d="M44415 8145 c19 -98 96 -199 170 -223 86 -29 122 19 100 133 -19 98 -96 199 -170 223 -86 29 -122 -19 -100 -133z"/>
<path d="M45600 8094 c0 -113 45 -178 100 -144 55 34 100 127 100 206 0 79 -45 144 -100 144 -55 0 -100 -93 -100 -206z"/>
<path d="M62750 8099 c-35 -55 10 -128 98 -162 191 -74 298 7 206 156 -83 135 -223 137 -304 6z"/>
<path d="M46439 7742 c34 -87 61 -177 61 -200 0 -23 45 -42 100 -42 55 0 100 90 100 200 0 117 -67 200 -161 200 -105 0 -140 -54 -100 -158z"/>
<path d="M61575 7731 c-96 -25 -175 -93 -175 -150 0 -59 97 -78 225 -44 124 33 261 61 306 62 44 0 53 46 19 101 -64 104 -88 106 -375 31z"/>
<path d="M47039 7442 c34 -87 61 -177 61 -200 0 -23 45 -42 100 -42 55 0 100 90 100 200 0 117 -67 200 -161 200 -105 0 -140 -54 -100 -158z"/>
<path d="M62186 7289 c-75 -47 -91 -87 -36 -89 55 -1 201 -30 325 -63 124 -33 225 -15 225 40 0 140 -350 216 -514 112z"/>
<path d="M47700 6912 c0 -124 257 -322 327 -251 97 96 -38 339 -188 339 -76 0 -139 -39 -139 -88z"/>
<path d="M61050 6700 c34 -55 197 -100 362 -100 174 0 274 42 238 100 -34 55 -197 100 -362 100 -174 0 -274 -42 -238 -100z"/>
<path d="M48835 6552 c36 -93 65 -187 65 -210 0 -23 71 -42 157 -42 223 0 136 339 -98 384 -142 27 -172 -5 -124 -132z"/>
<path d="M62522 6585 c24 -74 125 -151 223 -170 114 -22 162 14 133 100 -24 74 -125 151 -223 170 -114 22 -162 -14 -133 -100z"/>
<path d="M49800 6000 c59 -110 128 -200 154 -200 25 0 46 90 46 200 0 113 -67 200 -154 200 -122 0 -131 -40 -46 -200z"/>
<path d="M61800 6106 c0 -52 45 -122 100 -156 55 -34 100 8 100 94 0 86 -45 156 -100 156 -55 0 -100 -42 -100 -94z"/>
<path d="M60400 6016 c0 -46 111 -134 246 -196 299 -136 447 23 163 175 -236 127 -409 135 -409 21z"/>
<path d="M50617 5837 c20 -103 80 -176 134 -162 146 37 120 251 -36 303 -87 29 -122 -20 -98 -141z"/>
<path d="M59357 5611 c-49 -78 348 -411 489 -411 139 0 32 305 -139 396 -237 127 -280 129 -350 15z"/>
<path d="M60735 5146 c-33 -85 -35 -180 -4 -210 88 -88 269 61 269 220 0 192 -191 184 -265 -10z"/>
<path d="M58609 5025 c74 -96 144 -191 156 -210 12 -19 68 -7 124 28 162 100 10 357 -212 357 -176 0 -185 -22 -68 -175z"/>
<path d="M54367 5033 c-99 -98 -81 -433 22 -433 90 0 211 235 211 408 0 107 -137 122 -233 25z"/>
<path d="M57502 4975 c0 -69 40 -186 87 -261 110 -173 255 28 173 241 -68 178 -263 193 -260 20z"/>
<path d="M56417 4737 c20 -103 80 -176 134 -162 146 37 120 251 -36 303 -87 29 -122 -20 -98 -141z"/>
<path d="M6900 24882 c1251 -133 2327 -147 2366 -32 21 64 -558 104 -1591 111 -1492 11 -1556 4 -775 -79z"/>
<path d="M14419 24825 c18 -96 136 -190 263 -208 126 -18 279 -141 340 -275 117 -257 493 -326 778 -142 114 74 74 97 -169 98 -442 3 -518 188 -191 468 243 210 251 234 71 234 -109 0 -227 -45 -261 -100 -34 -55 -172 -100 -306 -100 -134 0 -244 45 -244 100 0 55 -71 100 -157 100 -96 0 -145 -68 -124 -175z"/>
<path d="M19500 24917 c0 -45 113 -188 250 -317 308 -289 317 -530 31 -796 -163 -153 -180 -204 -67 -204 242 0 614 457 543 666 -134 395 -757 932 -757 651z"/>
<path d="M33157 24843 c-86 -87 -157 -181 -157 -209 0 -72 433 -427 525 -431 140 -6 76 303 -75 361 -223 85 -183 184 125 306 l275 109 -268 10 c-147 6 -338 -60 -425 -146z"/>
<path d="M34678 24876 c169 -81 259 -79 345 7 89 89 35 115 -228 110 -324 -6 -331 -13 -117 -117z"/>
<path d="M36100 24852 c0 -81 -113 -222 -252 -312 -218 -143 -311 -148 -702 -39 -396 111 -473 106 -637 -43 -212 -192 -172 -576 51 -490 77 29 140 116 140 193 0 101 143 139 528 139 551 0 890 159 1075 505 82 154 72 195 -49 195 -85 0 -154 -66 -154 -148z"/>
<path d="M52125 24875 c23 -69 102 -125 175 -125 73 0 152 56 175 125 25 74 -46 125 -175 125 -129 0 -200 -51 -175 -125z"/>
<path d="M53335 24932 c37 -38 281 -102 541 -143 1440 -226 1445 -228 1213 -460 -61 -61 -81 -160 -44 -220 98 -159 355 -133 355 35 0 275 220 276 983 1 422 -151 785 -291 808 -310 23 -18 -34 -116 -125 -218 -92 -101 -136 -213 -100 -250 109 -108 234 -77 234 59 0 69 80 176 177 236 140 88 354 39 1025 -234 466 -190 1172 -450 1568 -578 396 -127 891 -322 1100 -431 416 -218 1935 -853 2323 -970 134 -41 438 -177 675 -304 238 -126 578 -261 757 -299 179 -39 573 -194 875 -344 303 -150 675 -303 827 -340 152 -37 512 -216 800 -399 288 -183 639 -361 780 -395 142 -35 434 -184 650 -331 216 -148 641 -403 943 -569 303 -165 659 -384 792 -487 133 -103 426 -268 650 -368 595 -264 1754 -1027 2321 -1528 271 -239 750 -611 1065 -827 315 -215 572 -451 572 -525 0 -73 79 -133 176 -133 239 0 2293 -1416 2624 -1809 111 -132 1955 -1489 2025 -1490 273 -4 -55 349 -859 925 -991 709 -1838 1436 -1761 1512 25 25 293 -23 595 -107 488 -135 1977 -188 2091 -73 23 23 -270 42 -652 42 -422 0 -772 53 -892 136 -108 75 -478 143 -821 153 -767 21 -1326 304 -1326 671 0 228 32 240 625 242 344 0 677 34 740 75 64 40 -280 75 -764 77 -680 4 -868 -24 -829 -125 27 -71 -17 -129 -98 -129 -204 0 -1678 994 -2307 1554 -284 254 -719 577 -967 718 -247 141 -607 357 -800 479 -192 123 -946 573 -1675 1000 -729 428 -1325 839 -1325 914 0 99 49 111 175 44 96 -51 680 -147 1298 -214 1005 -108 1149 -104 1374 44 270 177 723 134 903 -85 223 -271 645 -389 1549 -432 1073 -51 1933 137 2170 474 310 443 1631 528 1631 105 0 -264 127 -318 833 -356 339 -18 741 -63 892 -100 248 -62 275 -42 275 197 0 235 -23 253 -202 157 -111 -59 -505 -95 -875 -79 -528 24 -666 61 -641 176 53 242 -289 404 -852 404 -543 0 -800 -95 -1213 -450 -173 -149 -453 -219 -1100 -275 -1570 -135 -1933 -70 -2341 417 -232 277 -793 275 -1171 -4 -157 -116 -337 -180 -399 -142 -62 38 -527 112 -1034 163 -1946 196 -2237 257 -2688 568 -239 164 -636 367 -884 452 -247 85 -697 270 -1000 412 -302 141 -635 257 -738 258 -104 1 -329 87 -500 192 -172 104 -852 398 -1512 651 -660 254 -1380 549 -1600 656 -220 107 -715 312 -1100 456 -1103 411 -1868 706 -2287 883 -213 90 -475 163 -582 163 -106 0 -450 118 -762 263 -685 316 -2071 637 -2756 637 -273 0 -466 -31 -428 -68z"/>
<path d="M60914 24911 c-78 -50 -95 -111 -39 -145 52 -33 181 5 285 84 146 110 155 144 40 145 -83 1 -211 -37 -286 -84z"/>
<path d="M63330 24857 c98 -75 267 -113 375 -85 330 87 216 228 -180 225 -338 -3 -357 -17 -195 -140z"/>
<path d="M38700 24822 c0 -99 513 -241 592 -163 66 65 -23 120 -317 194 -162 40 -275 28 -275 -31z"/>
<path d="M49600 24798 c0 -117 500 -332 582 -250 69 69 -292 345 -457 349 -69 2 -125 -43 -125 -99z"/>
<path d="M13265 24617 c-331 -366 -61 -725 428 -569 161 51 199 6 225 -268 26 -269 79 -335 287 -360 159 -18 325 48 441 175 102 113 136 205 75 205 -60 0 -137 -45 -171 -100 -34 -55 -149 -100 -256 -100 -139 0 -194 69 -194 244 0 134 45 272 100 306 230 142 75 224 -241 127 -188 -58 -420 -75 -515 -38 -158 60 -153 89 58 314 175 186 195 247 81 247 -84 0 -226 -82 -318 -183z"/>
<path d="M53500 24567 c0 -171 104 -276 210 -211 100 62 2 344 -121 344 -49 0 -89 -60 -89 -133z"/>
<path d="M12308 24241 c-332 -279 -411 -680 -154 -779 85 -32 299 7 475 88 l321 147 -315 -54 c-539 -93 -561 339 -29 559 160 67 267 161 237 210 -88 142 -209 104 -535 -171z"/>
<path d="M40450 24400 c34 -55 104 -100 156 -100 52 0 94 45 94 100 0 55 -70 100 -156 100 -86 0 -128 -45 -94 -100z"/>
<path d="M39271 24337 c-93 -92 119 -337 291 -337 76 0 138 68 138 150 0 83 -19 150 -42 150 -23 0 -104 24 -180 53 -76 29 -169 22 -207 -16z"/>
<path d="M42400 24297 c0 -129 285 -245 376 -154 38 37 2 110 -79 161 -193 122 -297 120 -297 -7z"/>
<path d="M36791 23866 c-197 -229 -413 -517 -479 -641 -65 -124 -185 -225 -266 -225 -80 0 -146 -51 -146 -112 0 -73 111 -91 313 -50 171 34 374 62 450 62 75 0 137 45 137 100 0 55 -67 100 -150 100 -250 0 -170 218 207 562 261 240 468 335 775 358 559 40 535 226 -32 246 -412 15 -480 -18 -809 -400z"/>
<path d="M32600 24100 c-82 -53 -338 -98 -568 -98 -330 -2 -432 -44 -482 -202 -70 -221 -251 -259 -421 -89 -133 133 -1229 -343 -1229 -534 0 -88 30 -87 120 3 66 66 218 120 338 120 120 0 270 63 334 140 93 112 176 117 421 25 281 -106 324 -92 537 174 161 203 283 270 406 223 179 -69 819 93 989 250 131 121 -255 111 -445 -12z"/>
<path d="M52500 23970 c0 -190 211 -370 435 -370 172 0 164 28 -76 250 -307 285 -359 302 -359 120z"/>
<path d="M37152 23602 c-147 -162 -157 -226 -54 -350 137 -165 502 -209 502 -60 0 50 -56 112 -125 137 -100 37 -100 73 0 179 69 72 125 168 125 212 0 151 -269 80 -448 -118z"/>
<path d="M38379 23580 l-170 -259 369 -43 c458 -54 942 39 902 172 -17 55 -217 85 -446 68 -335 -26 -423 2 -451 145 -28 149 -60 137 -204 -83z"/>
<path d="M40616 23637 c23 -118 137 -199 310 -219 303 -35 374 123 99 220 -96 34 -236 90 -310 124 -91 41 -123 2 -99 -125z"/>
<path d="M35525 23597 c-124 -50 -225 -137 -225 -194 0 -152 119 -123 400 97 265 208 196 246 -175 97z"/>
<path d="M41468 23614 c-173 -68 -173 -79 11 -245 229 -207 521 -127 521 142 0 197 -198 235 -532 103z"/>
<path d="M43100 23513 c0 -104 -28 -329 -62 -500 -61 -302 -51 -313 275 -310 302 3 319 17 162 136 -110 84 -175 268 -175 497 0 200 -45 364 -100 364 -55 0 -100 -84 -100 -187z"/>
<path d="M55850 23274 c-93 -226 111 -475 387 -472 l213 2 -213 173 c-117 95 -236 241 -263 323 -42 125 -63 120 -124 -26z"/>
<path d="M30408 22841 c-227 -190 -308 -344 -308 -581 0 -271 -57 -350 -353 -491 -437 -209 -636 -214 -711 -19 -80 208 -424 187 -811 -49 -314 -191 -431 -401 -225 -401 55 0 100 34 100 76 0 41 137 136 305 210 270 120 328 115 501 -41 173 -157 239 -162 589 -46 513 169 946 613 861 881 -49 154 17 249 291 418 194 120 353 237 353 260 0 127 -325 8 -592 -217z"/>
<path d="M39600 23000 c0 -55 158 -100 350 -100 193 0 350 45 350 100 0 55 -157 100 -350 100 -192 0 -350 -45 -350 -100z"/>
<path d="M58514 23011 c-85 -54 -110 -165 -68 -299 91 -287 254 -269 254 30 0 133 56 264 125 292 85 34 77 52 -25 57 -83 3 -211 -33 -286 -80z"/>
<path d="M37769 22610 c-98 -122 -87 -136 64 -79 101 38 247 69 325 69 78 0 142 42 142 94 0 144 -397 81 -531 -84z"/>
<path d="M37069 22636 c-35 -35 -41 -101 -13 -146 62 -100 344 -2 344 121 0 102 -235 120 -331 25z"/>
<path d="M57300 22557 c0 -196 278 -458 482 -454 154 3 153 15 -7 136 -96 73 -175 207 -175 297 0 90 -67 164 -150 164 -83 0 -150 -64 -150 -143z"/>
<path d="M59874 22555 c-162 -118 -242 -355 -120 -355 30 0 146 85 258 189 235 219 121 356 -138 166z"/>
<path d="M29300 22417 c0 -255 107 -336 267 -203 102 85 108 146 22 249 -159 192 -289 171 -289 -46z"/>
<path d="M44200 22358 c0 -87 71 -158 158 -158 177 0 146 215 -39 277 -66 22 -119 -32 -119 -119z"/>
<path d="M36917 22100 c50 -151 211 -167 258 -25 23 69 -33 125 -125 125 -92 0 -152 -45 -133 -100z"/>
<path d="M12910 21836 c-186 -131 -277 -142 -419 -53 -128 79 -201 81 -248 6 -116 -188 127 -333 374 -223 188 84 262 55 461 -181 158 -188 215 -348 173 -483 -81 -254 62 -264 218 -14 93 148 85 233 -36 406 -85 121 -183 330 -219 464 -63 236 -74 239 -304 78z"/>
<path d="M60900 21850 c0 -82 45 -150 100 -150 55 0 100 68 100 150 0 83 -45 150 -100 150 -55 0 -100 -67 -100 -150z"/>
<path d="M9160 21396 c-141 -321 -153 -434 -57 -550 155 -187 504 -187 753 -1 178 134 162 141 -197 85 -387 -61 -390 -59 -332 229 33 160 89 370 127 466 140 363 -123 157 -294 -229z"/>
<path d="M35004 21557 c-184 -342 -71 -557 293 -557 382 0 379 -62 -17 -470 -197 -204 -264 -329 -175 -327 80 1 278 138 441 305 238 241 276 335 190 472 -59 93 -193 186 -297 205 -286 52 -398 196 -259 335 139 139 157 280 37 280 -46 0 -142 -109 -213 -243z"/>
<path d="M35900 21661 c0 -169 216 -261 610 -261 218 0 324 -66 409 -252 163 -358 506 -415 883 -147 381 272 326 370 -88 156 -409 -211 -499 -199 -628 83 -82 182 -217 257 -548 307 -241 36 -438 107 -438 159 0 52 -45 94 -100 94 -55 0 -100 -63 -100 -139z"/>
<path d="M40281 21648 c-120 -120 -781 -229 -837 -138 -74 119 -655 112 -844 -10 -109 -70 -21 -97 319 -98 258 -1 500 -52 538 -113 42 -68 215 -87 453 -49 359 57 391 42 456 -214 39 -152 65 -358 58 -457 -19 -280 417 -179 458 106 18 124 -16 225 -75 225 -59 0 -107 85 -107 189 0 222 -323 654 -419 559z"/>
<path d="M41523 21580 c54 -161 967 -478 1039 -361 34 55 0 158 -75 228 -173 162 -1012 277 -964 133z"/>
<path d="M59100 21554 c0 -158 380 -408 475 -313 67 67 -266 459 -390 459 -47 0 -85 -66 -85 -146z"/>
<path d="M62100 21550 c-69 -84 -80 -150 -24 -150 55 0 156 68 224 150 69 84 80 150 24 150 -55 0 -156 -67 -224 -150z"/>
<path d="M0 21400 c0 -55 45 -100 100 -100 55 0 100 45 100 100 0 55 -45 100 -100 100 -55 0 -100 -45 -100 -100z"/>
<path d="M10271 21226 c-105 -549 251 -790 700 -475 137 96 239 114 278 50 105 -170 509 -113 701 99 100 110 132 200 71 200 -60 0 -137 -45 -171 -100 -115 -186 -450 -112 -450 100 0 270 -156 252 -419 -50 -346 -398 -643 -259 -512 240 30 116 9 210 -46 210 -55 0 -123 -123 -152 -274z"/>
<path d="M600 21323 c0 -106 466 -223 890 -223 146 0 371 -74 500 -165 201 -140 414 -155 1470 -98 679 36 1345 108 1480 159 180 69 396 41 801 -101 602 -212 2159 -280 2159 -94 0 61 -149 77 -375 41 -381 -61 -1592 112 -1775 253 -170 131 -716 199 -814 101 -51 -51 -612 -122 -1246 -159 -951 -54 -1196 -38 -1397 89 -285 182 -1693 345 -1693 197z"/>
<path d="M41100 21236 c0 -178 274 -428 475 -433 197 -5 146 197 -100 403 -280 233 -375 241 -375 30z"/>
<path d="M43763 21002 c-322 -487 -323 -502 -20 -502 165 0 267 73 315 225 39 123 143 280 232 348 141 109 142 135 10 224 -225 150 -252 136 -537 -295z"/>
<path d="M44825 21075 c23 -69 169 -125 325 -125 156 0 302 56 325 125 28 85 -76 125 -325 125 -249 0 -353 -40 -325 -125z"/>
<path d="M60600 21108 c0 -230 138 -408 315 -408 188 0 189 7 15 247 -185 253 -330 324 -330 161z"/>
<path d="M42600 20993 c0 -58 48 -196 107 -306 85 -160 136 -176 250 -81 189 156 182 358 -15 433 -232 89 -342 75 -342 -46z"/>
<path d="M27200 20817 c0 -141 113 -206 260 -149 208 80 169 232 -60 232 -110 0 -200 -37 -200 -83z"/>
<path d="M63000 20800 c0 -55 45 -100 100 -100 55 0 100 45 100 100 0 55 -45 100 -100 100 -55 0 -100 -45 -100 -100z"/>
<path d="M27630 20350 c-120 -251 -232 -350 -399 -350 -127 0 -231 45 -231 100 0 196 -387 98 -455 -116 -80 -252 -451 -617 -952 -936 -299 -191 -377 -318 -482 -786 -68 -307 -167 -585 -218 -616 -51 -32 -93 -207 -93 -390 0 -182 -63 -384 -139 -447 -77 -64 -167 -283 -200 -488 -123 -767 -178 -1287 -194 -1819 -16 -510 3 -558 265 -684 156 -75 394 -108 530 -74 233 58 237 72 75 233 -123 124 -182 137 -212 47 -68 -204 -309 -141 -486 129 -154 235 -154 265 8 443 95 105 148 231 119 278 -30 48 -9 355 45 682 54 327 111 691 126 809 15 119 96 321 180 450 83 129 178 433 210 674 32 242 112 473 178 514 66 41 92 121 57 178 -121 195 157 619 404 619 129 0 234 46 234 102 0 57 113 146 250 198 141 54 250 175 250 278 0 317 240 554 483 478 295 -94 273 -299 -58 -540 -151 -110 -248 -226 -216 -258 83 -83 781 635 964 992 85 165 215 336 291 380 182 107 173 270 -16 270 -83 0 -226 -157 -318 -350z"/>
<path d="M61800 20447 c0 -225 236 -444 353 -327 62 62 -186 578 -278 579 -41 1 -75 -113 -75 -252z"/>
<path d="M64320 20580 c-66 -66 -120 -156 -120 -200 0 -147 151 -82 277 120 137 219 34 271 -157 80z"/>
<path d="M44600 20500 c0 -55 90 -100 200 -100 110 0 200 45 200 100 0 55 -90 100 -200 100 -110 0 -200 -45 -200 -100z"/>
<path d="M42961 20217 c-70 -113 43 -517 145 -517 141 0 210 193 144 401 -66 206 -200 260 -289 116z"/>
<path d="M44197 20094 c-130 -242 22 -494 297 -494 94 0 270 -115 393 -257 123 -141 274 -239 337 -218 262 87 158 277 -293 535 -265 152 -499 289 -520 305 -22 17 17 99 87 183 104 125 99 152 -32 152 -88 0 -209 -93 -269 -206z"/>
<path d="M11020 20080 c-323 -323 175 -874 527 -582 216 178 193 330 -32 210 -253 -135 -442 54 -307 307 111 208 -5 248 -188 65z"/>
<path d="M65561 19942 c-82 -213 -77 -242 35 -242 54 0 145 90 204 200 84 157 76 200 -36 200 -78 0 -170 -71 -203 -158z"/>
<path d="M34241 19775 c-236 -274 -494 -805 -620 -1275 -134 -500 -147 -1818 -22 -2148 153 -402 187 -283 99 348 -85 611 107 1895 354 2369 81 154 147 322 147 373 1 51 76 175 167 276 91 101 144 205 117 232 -27 27 -136 -52 -242 -175z"/>
<path d="M62960 19841 c-33 -87 -35 -200 -4 -250 76 -123 444 -116 444 9 0 55 -45 100 -100 100 -55 0 -100 68 -100 150 0 198 -162 192 -240 -9z"/>
<path d="M35000 19567 c0 -74 -135 -254 -300 -401 -165 -147 -306 -301 -313 -342 -7 -41 -33 -186 -57 -324 -51 -289 -121 -1469 -120 -2042 0 -269 77 -482 245 -682 135 -160 245 -350 245 -421 0 -72 245 -299 544 -505 396 -273 608 -359 780 -315 165 41 289 -2 409 -142 95 -111 219 -173 276 -137 57 35 190 -14 295 -109 144 -131 287 -158 582 -111 335 54 398 34 443 -137 69 -262 333 -256 402 9 44 167 119 202 378 175 181 -18 341 17 362 80 56 167 -442 260 -688 128 -172 -92 -230 -83 -304 49 -82 147 -112 148 -307 12 -275 -193 -513 -193 -672 -2 -68 82 -226 150 -351 150 -146 0 -245 75 -281 213 -42 160 -110 199 -269 158 -728 -191 -1794 905 -1797 1848 -1 258 34 492 78 519 45 27 70 391 58 808 -23 734 -14 766 269 975 282 208 415 679 193 679 -55 0 -100 -60 -100 -133z"/>
<path d="M64250 19301 c-67 -211 4 -401 149 -401 48 0 84 135 79 300 -10 342 -134 397 -228 101z"/>
<path d="M66807 19259 c-74 -90 -106 -193 -70 -230 94 -93 294 129 246 273 -28 83 -82 69 -176 -43z"/>
<path d="M11018 18836 c56 -286 338 -393 625 -239 142 75 257 181 257 235 0 55 -94 14 -210 -91 -206 -186 -212 -186 -391 35 -214 265 -326 288 -281 60z"/>
<path d="M45200 18850 c-135 -163 -103 -183 142 -89 87 33 158 101 158 150 0 138 -162 105 -300 -61z"/>
<path d="M65600 18621 c0 -53 73 -157 162 -231 139 -116 156 -108 125 55 -38 194 -287 347 -287 176z"/>
<path d="M46 18393 c-36 -58 -42 -130 -13 -160 72 -71 267 55 267 173 0 128 -173 119 -254 -13z"/>
<path d="M55055 18422 c-109 -109 73 -222 357 -222 165 0 275 40 245 88 -63 103 -529 206 -602 134z"/>
<path d="M25933 18275 c-348 -473 -651 -1773 -752 -3225 l-29 -400 414 0 c505 0 834 -263 834 -665 0 -157 45 -285 100 -285 156 0 118 456 -71 851 -119 251 -231 353 -375 342 -596 -45 -654 -11 -654 389 0 788 503 2804 725 2901 104 47 95 217 -13 217 -48 0 -129 -56 -179 -125z"/>
<path d="M67955 18309 c-32 -53 -16 -122 36 -154 53 -32 122 -16 154 36 32 53 16 122 -36 154 -53 32 -122 16 -154 -36z"/>
<path d="M11950 17825 c0 -313 -37 -380 -225 -407 -124 -18 -225 16 -225 75 0 59 -45 107 -100 107 -55 0 -100 -90 -100 -200 0 -160 67 -200 333 -200 375 0 610 299 551 702 -56 384 -234 326 -234 -77z"/>
<path d="M66636 18050 c-81 -212 30 -450 211 -450 184 0 204 166 28 225 -97 33 -95 79 12 209 119 143 115 166 -28 166 -91 0 -191 -67 -223 -150z"/>
<path d="M26677 17727 c-140 -207 -278 -512 -308 -677 -30 -165 -85 -379 -123 -475 -37 -96 -25 -175 27 -175 52 0 155 191 228 425 73 234 223 593 333 799 270 502 159 574 -157 103z"/>
<path d="M71300 18019 c0 -159 584 -299 1250 -300 l600 0 -700 132 c-385 72 -801 163 -925 202 -134 42 -225 28 -225 -34z"/>
<path d="M76250 17994 c-220 -45 -996 -85 -1725 -88 -813 -4 -1325 -45 -1325 -106 0 -130 1830 -128 2740 4 576 83 718 74 858 -52 201 -182 737 -195 1343 -33 323 86 568 90 901 14 252 -58 582 -81 733 -51 203 41 73 87 -499 177 -640 101 -855 98 -1241 -19 -636 -191 -844 -177 -906 60 -57 216 -211 233 -879 94z"/>
<path d="M69200 17850 c-135 -163 -103 -183 142 -89 87 33 158 101 158 150 0 138 -162 105 -300 -61z"/>
<path d="M47567 17533 c-37 -36 -67 -131 -67 -211 0 -103 70 -126 250 -81 194 49 253 23 262 -114 14 -206 18 -151 -68 -799 -59 -451 -45 -514 132 -570 150 -48 215 -187 265 -562 85 -639 142 -780 365 -899 266 -143 322 41 92 305 -144 167 -198 374 -198 763 0 462 -26 535 -193 535 -227 0 -378 369 -217 530 160 160 135 690 -46 948 -150 215 -440 293 -577 155z"/>
<path d="M67710 17320 c-56 -106 -60 -240 -8 -322 106 -173 150 -130 236 227 74 311 -78 374 -228 95z"/>
<path d="M69998 17048 c-173 -209 -45 -310 147 -117 85 85 155 180 155 212 0 111 -177 55 -302 -95z"/>
<path d="M11974 17000 c-35 -82 -78 -259 -94 -392 -39 -312 -277 -393 -348 -119 -57 217 -181 275 -272 127 -96 -155 249 -516 494 -516 172 0 260 69 302 238 77 307 7 871 -82 662z"/>
<path d="M68838 16655 c-61 -158 25 -355 155 -355 45 0 82 113 82 250 0 272 -148 338 -237 105z"/>
<path d="M12400 16504 c0 -310 362 -452 657 -259 134 88 243 226 243 307 0 109 -56 92 -216 -68 l-216 -216 -175 216 c-217 268 -293 273 -293 20z"/>
<path d="M71400 16450 c-69 -84 -80 -150 -24 -150 55 0 156 68 224 150 69 84 80 150 24 150 -55 0 -156 -67 -224 -150z"/>
<path d="M70204 15954 c-67 -80 -92 -192 -57 -250 112 -180 203 -114 203 146 0 294 7 289 -146 104z"/>
<path d="M13556 15613 c-216 -479 -499 -547 -674 -163 -63 138 -152 250 -198 250 -107 0 -106 -7 28 -391 97 -280 151 -316 425 -289 249 24 350 107 496 405 101 206 167 426 146 488 -20 61 -121 -74 -223 -300z"/>
<path d="M26300 15795 c0 -136 97 -239 286 -305 158 -55 344 -221 413 -370 146 -311 255 -148 158 237 -44 174 -152 267 -360 309 -163 32 -297 121 -297 197 0 75 -45 137 -100 137 -55 0 -100 -92 -100 -205z"/>
<path d="M47300 15812 c0 -48 68 -144 150 -212 125 -104 150 -90 150 88 0 122 -64 212 -150 212 -82 0 -150 -39 -150 -88z"/>
<path d="M72367 15633 c-96 -95 -83 -233 22 -233 49 0 116 68 147 150 59 152 -48 205 -169 83z"/>
<path d="M33873 15340 c-149 -149 -72 -527 120 -588 106 -33 288 -222 404 -419 116 -197 239 -330 273 -297 95 96 -284 864 -427 864 -69 0 -165 115 -212 256 -47 141 -118 224 -158 184z"/>
<path d="M71136 15250 c-71 -186 23 -450 161 -450 57 0 103 135 103 300 0 314 -165 408 -264 150z"/>
<path d="M79500 15195 c-247 -101 -697 -192 -1000 -201 -548 -17 -549 -17 -153 -93 298 -58 549 -24 1000 133 668 232 704 249 645 305 -23 22 -244 -43 -492 -144z"/>
<path d="M73567 15033 c-37 -36 -67 -132 -67 -212 0 -118 28 -122 150 -21 83 68 150 164 150 212 0 104 -138 116 -233 21z"/>
<path d="M72450 14301 c-72 -229 19 -432 157 -347 121 75 121 546 0 546 -52 0 -122 -90 -157 -199z"/>
<path d="M39401 14075 c4 -287 131 -575 256 -575 171 0 643 -617 643 -841 0 -95 -45 -256 -100 -360 -63 -117 -65 -209 -5 -246 52 -32 149 120 214 339 137 454 38 800 -343 1213 -125 135 -256 324 -293 420 -76 199 -374 240 -372 50z"/>
<path d="M74503 14104 c-81 -51 -114 -127 -73 -168 41 -41 151 2 244 95 181 181 72 227 -171 73z"/>
<path d="M36400 13811 c0 -108 499 -245 584 -160 81 81 -191 246 -409 247 -96 1 -175 -38 -175 -87z"/>
<path d="M48500 13612 c0 -48 63 -140 141 -205 157 -130 317 18 209 193 -76 123 -350 133 -350 12z"/>
<path d="M11817 13349 c-245 -312 -195 -508 152 -595 171 -43 316 -8 443 107 239 216 175 295 -100 123 -291 -181 -478 6 -313 314 172 321 56 354 -182 51z"/>
<path d="M73542 13465 c-72 -187 77 -414 230 -351 49 20 32 147 -37 282 -111 219 -133 227 -193 69z"/>
<path d="M75543 13357 c-106 -77 -158 -175 -115 -218 42 -42 152 -2 243 90 217 216 122 311 -128 128z"/>
<path d="M48761 12642 c-34 -87 -61 -323 -62 -525 0 -202 -67 -496 -150 -653 -176 -338 -179 -364 -52 -364 175 0 377 537 424 1125 44 552 -32 750 -160 417z"/>
<path d="M74700 12606 c0 -107 45 -222 100 -256 57 -35 100 49 100 194 0 141 -45 256 -100 256 -55 0 -100 -87 -100 -194z"/>
<path d="M76820 12680 c-66 -66 -120 -185 -120 -265 0 -116 41 -109 200 35 205 186 262 350 120 350 -44 0 -134 -54 -200 -120z"/>
<path d="M47450 12600 c-34 -55 -17 -100 38 -100 55 0 128 45 162 100 34 55 17 100 -38 100 -55 0 -128 -45 -162 -100z"/>
<path d="M75904 12007 c-109 -203 -45 -507 107 -507 49 0 89 86 89 192 0 105 27 263 61 350 86 226 -134 196 -257 -35z"/>
<path d="M77800 11550 c-69 -84 -80 -150 -24 -150 55 0 156 68 224 150 69 84 80 150 24 150 -55 0 -156 -67 -224 -150z"/>
<path d="M47000 11300 c0 -55 65 -100 144 -100 79 0 172 45 206 100 34 55 -31 100 -144 100 -113 0 -206 -45 -206 -100z"/>
<path d="M22304 11107 c-145 -271 -130 -407 46 -407 83 0 150 64 150 142 0 78 27 213 61 300 87 226 -134 196 -257 -35z"/>
<path d="M76820 11180 c-157 -157 -154 -380 5 -380 69 0 131 113 139 250 17 288 16 290 -144 130z"/>
<path d="M78946 11193 c-36 -58 -42 -130 -13 -160 72 -71 267 55 267 173 0 128 -173 119 -254 -13z"/>
<path d="M405 10756 c-169 -181 -213 -312 -165 -500 47 -191 25 -256 -88 -256 -84 0 -152 -74 -152 -165 0 -154 13 -154 183 0 100 91 337 169 525 173 l342 8 -275 100 c-351 128 -356 406 -12 677 233 183 241 207 68 207 -108 0 -299 -110 -426 -244z"/>
<path d="M47455 10689 c-27 -76 -94 -263 -150 -414 -56 -154 -61 -275 -10 -275 109 0 348 690 267 771 -31 32 -80 -5 -107 -82z"/>
<path d="M48273 10640 c-40 -41 -73 -191 -73 -334 0 -143 -157 -500 -350 -792 -382 -580 -396 -614 -254 -614 131 0 595 810 717 1251 104 377 85 613 -40 489z"/>
<path d="M79500 10600 c0 -55 68 -100 150 -100 83 0 150 45 150 100 0 55 -67 100 -150 100 -82 0 -150 -45 -150 -100z"/>
<path d="M77950 10400 c-34 -55 8 -100 94 -100 86 0 156 45 156 100 0 55 -42 100 -94 100 -52 0 -122 -45 -156 -100z"/>
<path d="M22100 9847 c0 -161 266 -314 369 -212 71 71 -155 365 -281 365 -49 0 -88 -69 -88 -153z"/>
<path d="M20120 9774 c-57 -69 -136 -260 -174 -425 -62 -262 -53 -280 73 -149 191 199 399 700 291 700 -47 0 -132 -57 -190 -126z"/>
<path d="M78875 9792 c-220 -128 -232 -492 -16 -492 88 0 183 90 212 200 29 110 92 200 141 200 48 0 88 45 88 100 0 127 -199 123 -425 -8z"/>
<path d="M20936 9550 c-91 -238 39 -450 276 -450 200 0 206 15 67 175 -84 96 -133 231 -108 300 65 179 -166 155 -235 -25z"/>
<path d="M19023 9031 c-86 -152 -91 -239 -17 -285 154 -95 216 1 175 270 l-35 234 -123 -219z"/>
<path d="M79633 8949 c-119 -136 -186 -266 -149 -289 92 -57 516 297 516 431 0 175 -134 123 -367 -142z"/>
<path d="M30134 8728 c51 -311 18 -417 -197 -641 -208 -218 -244 -327 -189 -579 85 -388 266 -305 188 87 -45 224 -11 311 153 399 171 92 211 207 211 610 0 302 -44 496 -113 496 -75 0 -93 -126 -53 -372z"/>
<path d="M20000 8715 c0 -120 343 -415 483 -415 172 0 143 146 -66 335 -195 176 -417 219 -417 80z"/>
<path d="M17905 8209 c-58 -108 -105 -244 -105 -302 0 -191 147 -111 266 144 137 296 -9 441 -161 158z"/>
<path d="M73109 8282 c-379 -450 -1125 -1569 -1175 -1763 -57 -224 -81 -229 -871 -164 -447 36 -944 129 -1103 206 -613 294 -790 96 -418 -467 143 -217 336 -394 428 -394 132 0 959 -340 1113 -458 46 -34 -278 -545 -519 -817 -172 -195 -297 -225 -938 -225 -621 0 -841 -49 -1379 -309 -695 -335 -1065 -374 -2522 -266 -487 36 -825 23 -825 -32 0 -51 214 -99 475 -107 795 -24 1103 -64 1284 -165 119 -67 278 -54 504 41 182 76 465 138 629 138 165 0 469 115 677 256 350 238 442 254 1279 217 496 -22 1003 -75 1127 -118 173 -60 225 -41 225 83 0 95 -82 162 -200 162 -276 0 -247 181 103 643 163 216 297 452 297 525 0 134 -777 554 -1242 671 -142 36 -258 121 -258 190 0 171 1420 108 1927 -85 494 -189 505 -186 432 105 -69 276 127 832 362 1027 124 103 175 100 270 -15 225 -271 291 -713 155 -1036 -161 -383 -76 -486 197 -239 122 111 432 214 757 251 303 34 679 91 836 126 263 59 277 48 177 -138 -114 -214 -739 -625 -950 -625 -68 0 -205 -59 -304 -131 -171 -125 -170 -146 31 -475 310 -510 276 -594 -242 -594 -392 0 -466 34 -549 252 -97 256 -538 498 -711 390 -84 -51 -588 -793 -588 -865 0 -15 191 -29 425 -31 234 -2 616 -37 850 -76 319 -54 419 -41 400 54 -29 146 957 120 1243 -34 93 -49 566 -93 1050 -96 869 -5 1726 -227 1806 -466 18 -55 -81 -175 -220 -266 -140 -92 -254 -200 -254 -240 0 -41 484 -73 1075 -73 591 1 1289 -36 1550 -80 296 -51 475 -45 475 16 0 164 -1355 340 -2028 262 l-622 -71 185 206 c232 258 192 318 -403 618 -388 196 -693 254 -1569 300 -1068 57 -1091 63 -1375 380 -424 476 -381 718 187 1037 558 313 871 625 1018 1015 197 518 121 597 -222 234 -332 -353 -504 -410 -1502 -500 -386 -34 -471 -15 -427 99 30 78 -12 332 -92 564 -186 534 -186 750 2 1111 163 312 138 456 -43 242z m-409 -3783 c80 -149 45 -185 -227 -227 -412 -64 -511 30 -319 303 167 239 395 207 546 -76z"/>
<path d="M19057 8011 c-41 -66 -20 -185 47 -265 138 -167 455 -194 546 -46 34 55 -15 100 -108 100 -94 0 -224 74 -291 165 -88 121 -140 133 -194 46z"/>
<path d="M18175 7443 c-233 -237 62 -756 334 -587 141 87 107 244 -52 244 -79 0 -157 94 -175 209 -18 116 -66 176 -107 134z"/>
<path d="M39500 7256 c0 -79 45 -172 100 -206 55 -34 100 -241 100 -459 0 -268 51 -417 157 -457 111 -43 147 -165 125 -422 -32 -361 -30 -362 418 -412 377 -42 455 -88 483 -282 30 -211 69 -227 416 -168 309 52 403 29 486 -118 82 -146 128 -157 229 -57 206 204 -50 360 -560 341 -423 -16 -454 0 -454 233 0 231 -36 251 -447 251 -446 0 -448 1 -387 305 47 235 11 351 -157 508 -149 139 -197 267 -153 407 66 208 -123 680 -273 680 -46 0 -83 -65 -83 -144z"/>
<path d="M15804 7007 c-57 -107 -104 -242 -104 -300 0 -172 171 -123 238 68 34 96 88 231 120 300 96 205 -142 141 -254 -68z"/>
<path d="M0 7004 c0 -77 418 -106 1339 -95 736 9 1391 -16 1455 -55 173 -107 -53 -338 -425 -434 -168 -44 -323 -132 -345 -198 -26 -79 115 -61 432 55 457 168 844 556 699 701 -125 126 -3155 150 -3155 26z"/>
<path d="M29356 6892 c-173 -174 -181 -234 -71 -539 109 -300 99 -393 -80 -744 -242 -473 -265 -935 -55 -1109 182 -151 197 -13 37 339 -94 206 -75 322 109 676 170 325 208 521 160 820 -47 293 -20 439 106 578 225 248 42 230 -206 -21z"/>
<path d="M79467 7033 c-105 -104 -78 -533 33 -533 55 0 100 135 100 300 0 311 -20 346 -133 233z"/>
<path d="M4952 6803 c-82 -132 -1304 -503 -1657 -503 -277 0 -473 -141 -322 -232 97 -58 1254 254 1761 475 317 138 411 145 540 37 204 -169 2190 -170 2476 -1 158 93 -11 104 -811 55 -827 -51 -1072 -32 -1341 102 -375 187 -560 206 -646 67z"/>
<path d="M14660 6484 c-148 -211 -132 -384 34 -384 46 0 110 79 144 175 34 96 88 231 120 300 99 211 -137 139 -298 -91z"/>
<path d="M17406 6604 c-76 -47 -204 -60 -286 -29 -94 36 -131 8 -102 -78 66 -199 215 -218 436 -57 215 158 174 301 -48 164z"/>
<path d="M13765 6117 c-183 -203 -211 -317 -77 -317 49 0 163 113 253 250 190 290 68 336 -176 67z"/>
<path d="M43226 6131 c93 -93 203 -136 244 -95 41 41 8 117 -73 168 -243 154 -352 108 -171 -73z"/>
<path d="M44900 6000 c0 -238 154 -265 239 -42 86 224 79 242 -89 242 -83 0 -150 -89 -150 -200z"/>
<path d="M15900 6005 c0 -159 346 -300 502 -203 173 106 130 150 -227 236 -158 38 -275 24 -275 -33z"/>
<path d="M42800 5920 c0 -62 -146 -280 -325 -484 -293 -336 -300 -355 -65 -203 261 171 544 646 444 747 -30 29 -54 2 -54 -60z"/>
<path d="M12664 5450 c-32 -82 -19 -150 28 -150 48 0 113 68 144 150 32 83 19 150 -28 150 -48 0 -113 -67 -144 -150z"/>
<path d="M14616 5437 c23 -118 137 -199 310 -219 303 -35 374 123 99 220 -96 34 -236 90 -310 124 -91 41 -123 2 -99 -125z"/>
<path d="M29920 5474 c-152 -183 291 -1092 618 -1268 379 -202 427 -66 68 190 -168 120 -306 299 -306 399 0 99 -67 237 -150 305 -182 151 -195 365 -25 434 79 31 83 53 12 58 -62 4 -159 -49 -217 -118z"/>
<path d="M11613 5324 c-131 -245 0 -383 237 -250 130 73 132 112 14 274 -134 183 -141 182 -251 -24z"/>
<path d="M43846 5293 c-108 -174 15 -211 152 -45 79 95 86 152 20 152 -58 0 -136 -48 -172 -107z"/>
<path d="M44789 4919 c-657 -571 -906 -719 -1205 -719 -311 0 -472 -172 -243 -260 84 -33 309 24 499 125 544 291 1560 1032 1560 1139 0 177 -169 99 -611 -285z"/>
<path d="M13400 5128 c0 -148 230 -328 420 -328 230 0 234 158 5 238 -96 34 -231 88 -300 120 -69 32 -125 19 -125 -30z"/>
<path d="M10256 4906 c-271 -299 -20 -538 332 -315 117 74 116 120 -9 298 -146 208 -150 209 -323 17z"/>
<path d="M20780 4711 l-324 -289 127 -495 c155 -603 43 -923 -391 -1115 -163 -72 -364 -262 -447 -422 -145 -279 -163 -286 -427 -149 -208 107 -1522 359 -1875 359 -24 0 -43 85 -43 189 0 303 -333 636 -635 636 -344 0 -427 -80 -273 -265 74 -90 95 -277 54 -494 -99 -530 6 -708 656 -1109 329 -203 641 -450 694 -550 53 -99 257 -257 453 -350 420 -199 382 -324 -128 -416 -625 -112 -735 -260 -150 -203 546 54 1062 312 1000 501 -20 61 -269 195 -554 299 -344 124 -517 243 -517 356 0 189 -390 502 -865 695 -345 139 -463 386 -313 654 87 156 106 157 213 10 82 -111 383 -188 984 -250 844 -87 1282 -257 1548 -601 141 -183 172 -152 293 291 64 235 234 442 542 660 l448 318 -12 765 c-11 723 80 981 206 584 31 -100 237 -368 457 -597 289 -300 399 -500 399 -722 0 -431 -229 -931 -538 -1174 -144 -113 -262 -227 -262 -254 0 -27 257 -70 571 -96 516 -42 643 -9 1328 347 641 333 814 383 1129 324 465 -88 473 -199 25 -347 -358 -118 -853 -613 -853 -853 0 -75 -100 -207 -222 -292 -259 -182 -100 -207 262 -42 152 69 261 212 280 365 48 404 490 656 1231 703 357 23 649 77 649 120 0 198 -872 519 -1448 533 -524 13 -666 -27 -1097 -310 -364 -240 -607 -325 -925 -325 -476 0 -529 80 -230 350 245 222 435 880 341 1180 -38 121 -221 397 -405 613 -373 436 -419 700 -171 974 157 174 150 183 -148 183 -205 0 -426 -100 -637 -289z"/>
<path d="M7717 4668 c-121 -128 -188 -264 -150 -301 74 -74 533 314 533 450 0 150 -162 87 -383 -149z"/>
<path d="M9093 4687 c-88 -164 -84 -231 17 -293 177 -109 257 -44 314 255 60 315 -169 341 -331 38z"/>
<path d="M11046 4388 c-62 -197 71 -382 279 -386 108 -3 93 175 -21 245 -52 33 -70 125 -39 206 31 81 10 147 -48 147 -57 0 -134 -96 -171 -212z"/>
<path d="M12300 4447 c0 -159 266 -315 366 -214 58 58 -202 367 -309 367 -31 0 -57 -69 -57 -153z"/>
<path d="M4535 4246 c-94 -243 36 -287 160 -55 78 145 79 209 5 209 -58 0 -133 -69 -165 -154z"/>
<path d="M5557 4143 c-232 -233 -191 -270 93 -84 138 90 250 181 250 203 0 93 -199 24 -343 -119z"/>
<path d="M29504 4092 c-2 -87 161 -324 363 -525 431 -432 640 -498 250 -80 -147 158 -344 394 -438 525 -124 173 -171 195 -175 80z"/>
<path d="M31500 4100 c0 -55 115 -100 256 -100 145 0 229 43 194 100 -34 55 -149 100 -256 100 -107 0 -194 -45 -194 -100z"/>
<path d="M3500 3950 c0 -83 45 -150 100 -150 55 0 100 67 100 150 0 83 -45 150 -100 150 -55 0 -100 -67 -100 -150z"/>
<path d="M1120 3880 c-145 -145 -156 -280 -24 -280 54 0 145 90 204 200 118 220 9 269 -180 80z"/>
<path d="M7765 3817 c-182 -202 -222 -517 -65 -517 55 0 100 91 100 203 0 112 68 229 150 261 83 31 150 98 150 147 0 146 -158 102 -335 -94z"/>
<path d="M10000 3812 c0 -128 294 -351 367 -279 72 73 -151 367 -279 367 -49 0 -88 -39 -88 -88z"/>
<path d="M32800 3650 c68 -83 243 -148 387 -146 252 4 249 10 -73 150 -423 183 -469 183 -314 -4z"/>
<path d="M30600 3592 c0 -54 79 -127 175 -162 96 -35 302 -169 458 -297 305 -251 467 -296 467 -127 0 58 -43 79 -96 47 -52 -33 -168 51 -256 186 -169 257 -748 530 -748 353z"/>
<path d="M6118 3478 c-138 -138 -156 -443 -30 -520 48 -30 116 87 151 260 72 364 44 425 -121 260z"/>
<path d="M33557 3311 c-25 -40 87 -122 249 -183 161 -60 313 -78 337 -39 25 40 -87 122 -249 183 -161 60 -313 78 -337 39z"/>
<path d="M76100 3298 c0 -137 481 -350 575 -256 87 86 -251 358 -444 358 -72 0 -131 -46 -131 -102z"/>
<path d="M3925 3150 c-165 -187 -160 -450 8 -450 82 0 134 117 134 300 0 165 -4 298 -9 296 -4 -2 -64 -67 -133 -146z"/>
<path d="M2019 3094 c24 -72 103 -151 175 -175 75 -25 112 12 87 87 -24 72 -103 151 -175 175 -75 25 -112 -12 -87 -87z"/>
<path d="M2967 2933 c-122 -121 -69 -433 72 -433 86 0 134 96 125 250 -14 251 -74 307 -197 183z"/>
<path d="M0 2756 c0 -176 60 -202 146 -63 31 51 12 121 -44 156 -56 35 -102 -7 -102 -93z"/>
<path d="M32200 2775 c0 -41 221 -75 492 -75 303 0 508 -48 536 -125 25 -69 82 -90 127 -48 165 154 -179 323 -660 323 -272 0 -495 -34 -495 -75z"/>
<path d="M1000 2611 c0 -104 68 -216 150 -247 160 -62 187 23 89 278 -84 219 -239 198 -239 -31z"/>
<path d="M71369 2657 c-553 -148 -720 -279 -637 -497 84 -219 494 -296 1044 -197 l474 86 -631 30 c-527 26 -626 59 -600 198 19 94 192 212 399 270 201 57 399 137 440 178 91 90 108 93 -489 -68z"/>
<path d="M36250 2595 c-175 -71 -165 -82 75 -88 271 -7 346 40 200 125 -41 23 -165 7 -275 -37z"/>
<path d="M39200 2306 c-200 -117 -1349 -338 -1850 -355 -220 -8 -704 -22 -1075 -32 -403 -12 -675 -62 -675 -127 0 -198 3343 114 3559 333 41 41 157 75 258 75 101 0 183 45 183 100 0 122 -197 125 -400 6z"/>
<path d="M77450 2206 c-199 -46 67 -85 791 -116 1209 -51 1759 -13 1759 121 0 103 -2105 99 -2550 -5z"/>
<path d="M72300 2126 c0 -54 281 -130 625 -169 806 -92 748 -90 1975 -59 578 15 1174 -6 1325 -46 179 -48 275 -35 275 37 0 148 -33 151 -1650 164 -770 7 -1659 48 -1975 92 -365 51 -575 44 -575 -19z"/>
<path d="M21475 543 c-132 -134 -82 -543 66 -543 94 0 122 70 85 211 -52 200 -28 208 434 149 276 -36 555 -20 640 37 124 82 113 100 -61 101 -116 1 -409 29 -650 62 -241 32 -473 25 -514 -17z"/>
</g>
</svg>