<svg xmlns="http://www.w3.org/2000/svg" version="1.0" width="800" height="250" viewBox="0 0 800.000000 250.000000" preserveAspectRatio="xMidYMid meet">
<metadata>
Created by potrace 1.10, written by Peter Selinger 2001-2011
</metadata>
<g transform="translate(0.000000,250.000000) scale(0.010000,-0.010000)" fill="#555555" stroke="none">
<path d="M36884 23000 c-402 -72 -884 -347 -884 -504 0 -55 -112 -152 -250 -214 -217 -99 -250 -179 -250 -598 0 -266 -20 -484 -45 -484 -25 0 -253 140 -507 312 l-462 312 -401 -181 c-220 -99 -640 -420 -932 -712 -292 -292 -621 -531 -731 -531 -322 0 -353 294 -75 714 139 210 253 419 253 465 0 109 493 567 753 701 302 154 1360 121 1529 -48 195 -195 368 -112 368 176 0 208 -49 243 -350 252 -192 5 -605 68 -917 139 -526 120 -597 114 -978 -85 -484 -252 -847 -270 -1340 -64 -197 83 -510 150 -694 150 -399 0 -1271 -281 -1271 -409 0 -110 209 -110 793 3 718 139 2035 -365 1440 -551 -101 -32 -268 -103 -371 -160 -135 -72 -210 -67 -263 19 -41 66 -274 142 -519 170 -516 58 -1127 -201 -1652 -699 -249 -237 -404 -303 -692 -292 -499 19 -587 131 -395 502 193 373 719 787 1059 833 140 19 250 100 250 184 0 112 -100 144 -391 126 -295 -18 -426 25 -531 175 -114 163 -254 199 -776 199 -538 0 -684 -40 -943 -258 -302 -254 -313 -255 -832 -108 -630 177 -1388 314 -1527 276 -55 -16 -415 -49 -800 -74 -851 -56 -1629 -330 -2298 -811 -411 -295 -578 -356 -926 -338 -479 25 -520 -29 -213 -277 304 -246 177 -610 -212 -610 -347 0 -701 403 -701 796 0 569 824 944 1604 730 190 -52 402 -75 471 -52 203 69 144 309 -118 481 -424 278 -1465 34 -1898 -445 -246 -272 -283 -266 -486 78 -407 689 -1484 769 -2080 154 l-323 -332 -403 345 c-222 190 -497 345 -611 345 -331 0 -1217 -356 -1468 -590 l-228 -213 -205 253 c-399 493 -1290 545 -1752 103 -332 -318 -396 -313 -698 51 -217 261 -309 296 -787 296 -522 0 -1318 -313 -1318 -518 0 -180 -275 -67 -375 153 -70 153 -273 290 -580 391 -409 135 -534 138 -923 21 -247 -75 -577 -258 -733 -407 l-283 -272 -386 435 c-384 433 -389 434 -728 298 -188 -76 -469 -242 -625 -369 -352 -289 -407 -289 -598 4 -180 274 -786 411 -1108 251 -116 -58 -307 -219 -424 -358 l-213 -253 -287 204 c-184 130 -532 227 -970 270 -675 67 -683 65 -650 -166 29 -206 103 -242 617 -297 688 -74 860 -216 973 -802 85 -441 125 -1685 54 -1685 -21 0 -167 67 -325 149 -313 164 -547 184 -1023 89 -308 -62 -313 -72 -313 -654 0 -920 393 -1684 865 -1684 129 0 235 -45 235 -100 0 -185 686 -114 791 83 72 135 347 227 1055 353 939 168 971 168 1665 -39 872 -260 1372 -204 1659 184 297 401 508 854 461 986 -47 131 707 -31 1419 -304 220 -85 501 -156 625 -159 290 -5 290 -159 0 -256 -218 -74 -217 -77 45 -118 149 -23 361 7 473 66 271 145 737 28 663 -167 -31 -80 -56 -181 -56 -225 0 -44 -203 -341 -450 -659 -373 -480 -450 -653 -450 -1007 0 -248 84 -570 202 -769 283 -480 148 -550 -1103 -576 -577 -12 -1296 -57 -1599 -101 -302 -44 -1225 -110 -2050 -145 -2169 -95 -2422 -110 -3225 -197 -418 -46 -730 -41 -736 10 -6 50 -27 372 -47 718 -20 345 -124 817 -231 1050 l-194 422 16 -1280 17 -1281 950 60 c523 32 1220 100 1550 151 330 50 1185 118 1900 151 715 32 1660 100 2100 151 440 51 1948 116 3350 145 2259 48 4365 105 6541 179 440 15 706 -17 729 -88 51 -150 -565 -239 -2020 -293 -660 -25 -1943 -97 -2850 -160 -907 -63 -1830 -91 -2050 -62 -220 29 -1232 14 -2250 -34 -1017 -47 -2367 -109 -3000 -136 -1248 -56 -2375 -159 -3975 -365 l-1025 -132 0 -886 0 -887 624 609 c343 334 685 608 761 608 239 0 766 -672 957 -1222 101 -290 250 -634 330 -764 205 -330 75 -410 -712 -439 -667 -25 -686 -18 -995 332 -283 322 -772 693 -911 693 -30 0 -54 -89 -54 -197 0 -119 121 -260 303 -355 350 -181 320 -344 -51 -273 -179 34 -252 5 -252 -103 0 -174 172 -205 2350 -419 2043 -200 2780 -323 2899 -482 56 -74 349 -205 651 -291 649 -185 602 -207 -900 -423 -1775 -255 -1925 -252 -1995 34 -33 132 -140 289 -239 350 -148 90 -222 57 -422 -191 -134 -165 -243 -348 -244 -407 0 -128 -1236 -389 -1451 -306 -206 79 -649 -135 -649 -314 0 -146 54 -145 1202 38 573 91 713 -152 677 -1174 l-29 -837 -925 -29 c-795 -24 -925 -53 -925 -200 0 -159 290 -170 4123 -153 2769 12 4165 -16 4250 -87 87 -72 167 -73 252 -3 81 66 2175 114 5925 137 6465 39 37704 12 54525 -47 l10925 -39 0 470 c0 328 -55 520 -183 636 -228 206 -517 215 -517 15 0 -82 36 -150 81 -150 200 0 426 -265 364 -428 -57 -148 -215 -172 -1114 -172 -1179 0 -1281 92 -526 477 304 155 534 208 727 166 229 -50 292 -23 336 144 62 238 343 355 632 263 154 -49 200 -18 200 135 0 109 -39 213 -86 232 -47 18 -116 202 -154 409 -54 292 -35 390 85 436 300 115 171 338 -196 338 -312 0 -818 69 -2999 408 -330 52 -1140 162 -1800 245 -660 82 -1650 239 -2200 347 -550 109 -1382 240 -1850 292 -2110 237 -2768 338 -3012 464 -145 75 -287 111 -317 81 -57 -57 -5964 873 -7371 1161 -247 50 -742 120 -1100 154 -358 34 -1033 131 -1500 215 -1133 204 -1095 199 -3100 439 -2460 293 -2541 305 -2627 386 -253 237 533 2820 1022 3358 708 778 875 2308 302 2772 -214 174 -192 378 41 378 69 0 288 -146 487 -325 420 -377 586 -839 336 -935 -261 -100 -186 -268 89 -199 243 61 297 -2 260 -306 -8 -63 279 -396 638 -741 359 -344 652 -668 652 -719 0 -51 101 -176 225 -277 325 -266 117 -420 -593 -442 -1712 -52 -1738 -55 -1797 -210 -33 -85 -38 -176 -12 -203 27 -26 853 -112 1838 -190 1772 -142 1796 -147 2589 -548 440 -223 845 -464 900 -537 63 -82 306 -129 650 -125 l550 7 -32 -368 c-59 -682 72 -782 1036 -782 779 0 846 -16 846 -200 0 -110 34 -203 75 -208 41 -4 210 -21 375 -38 165 -16 461 -63 659 -102 210 -43 603 -18 950 59 325 73 706 121 846 107 327 -33 936 375 976 653 47 324 190 398 1324 686 955 243 1800 634 2169 1003 78 78 217 181 309 230 277 148 3300 244 3935 125 397 -74 1031 -75 2100 -3 843 56 1762 74 2044 40 506 -62 513 -68 600 -481 74 -352 154 -453 502 -635 549 -287 1336 -401 1336 -193 0 89 -160 192 -396 256 -217 58 -422 150 -455 202 -78 127 538 498 714 430 101 -38 137 45 137 317 l0 368 -3225 -11 c-1774 -7 -3990 23 -4925 66 -1527 71 -1675 93 -1455 218 181 103 760 148 2200 171 5179 82 7335 136 7384 186 135 134 -145 187 -987 187 -890 0 -985 71 -296 218 547 117 1636 1149 1212 1149 -50 0 -326 -200 -613 -445 -568 -485 -732 -538 -1371 -447 -554 79 -604 144 -336 430 197 209 221 331 203 1052 -10 448 -2 825 20 838 1210 694 1445 799 1811 809 286 7 378 51 378 180 0 94 -45 199 -100 233 -55 34 -100 149 -100 256 0 107 45 194 100 194 55 0 100 60 100 134 0 74 -190 191 -422 261 -744 223 -913 789 -370 1246 323 272 492 327 492 159 0 -55 68 -100 150 -100 100 0 150 100 150 300 0 265 -34 300 -292 300 -220 0 -388 -110 -687 -450 -218 -247 -444 -450 -503 -450 -59 0 -166 120 -238 267 -316 649 -1841 711 -2079 85 -126 -330 -201 -315 -501 97 -314 431 -335 438 -994 353 -413 -54 -582 -128 -700 -306 -86 -129 -232 -328 -324 -441 -167 -203 -170 -201 -318 149 -147 349 -312 468 -926 667 -374 122 -858 -45 -1057 -364 -130 -209 -336 -275 -398 -128 -18 44 -202 183 -410 309 -319 195 -454 220 -885 160 -460 -63 -535 -110 -770 -488 l-261 -419 -411 429 c-352 368 -470 430 -815 430 -503 0 -874 -275 -1036 -767 l-120 -363 -133 386 c-266 773 -930 963 -1557 447 l-360 -297 -187 211 c-270 303 -808 505 -1146 431 -157 -34 -402 -200 -544 -369 l-257 -305 -371 188 c-203 103 -451 267 -549 363 -197 193 -575 231 -732 74 -66 -66 -324 -70 -745 -12 -354 49 -689 63 -744 29 -55 -33 -347 -88 -650 -123 -447 -51 -595 -28 -788 122 -349 270 -656 230 -953 -123 -343 -408 -356 -725 -14 -357 231 249 655 366 655 181 0 -46 -234 -211 -519 -367 -379 -206 -531 -248 -563 -154 -23 71 -237 326 -474 567 -581 588 -851 585 -1462 -17 l-461 -455 -224 314 c-196 276 -263 306 -557 251 -230 -43 -414 -11 -586 102 -186 121 -547 174 -1378 200 -619 20 -1373 74 -1676 119 -598 91 -2935 91 -3500 0 -192 -31 -462 -101 -600 -155 -345 -135 -1300 -1166 -1300 -1403 0 -305 -239 -438 -648 -362 -284 53 -349 104 -298 231 36 90 90 332 119 538 29 206 87 375 128 375 163 0 287 -274 229 -505 -61 -244 -60 -244 154 -55 246 218 269 378 93 660 -101 162 -94 226 38 358 132 132 202 140 384 42 155 -83 254 -87 327 -14 143 143 -87 414 -351 414 -210 0 -874 -366 -877 -483 0 -37 -43 -133 -94 -213 -75 -120 -131 -96 -311 132 -121 154 -329 321 -462 371 -304 116 -1076 -64 -1447 -336 l-267 -196 -305 313 c-424 434 -1028 435 -1793 3 -300 -169 -575 -271 -609 -225 -35 46 -197 200 -362 342 -248 215 -359 247 -664 192z m11366 -416 c330 -56 656 -148 724 -204 69 -57 277 -74 468 -38 294 55 398 17 718 -264 361 -317 1240 -1578 1240 -1779 0 -54 44 -99 98 -99 54 0 128 -117 164 -261 72 -287 -70 -435 -422 -437 -270 -2 -464 -237 -681 -827 -188 -510 -439 -675 -305 -200 122 430 100 1531 -39 2006 -157 536 -726 1178 -1259 1421 -754 343 -1641 539 -1886 416 -121 -61 -481 -176 -801 -256 -319 -80 -862 -330 -1207 -554 -683 -445 -862 -495 -862 -242 0 284 475 804 942 1030 1002 485 1608 541 3108 288z m-20010 -343 c55 -145 10 -159 -338 -103 -417 67 -511 -23 -252 -238 203 -168 189 -300 -31 -300 -240 0 -762 549 -668 702 40 65 213 177 384 249 258 108 356 107 576 -7 146 -75 294 -212 329 -303z m11729 242 c127 -120 231 -255 231 -300 0 -46 -405 -83 -900 -83 -905 0 -1097 88 -681 310 616 330 1051 353 1350 73z m-2615 -45 c356 -233 307 -420 -129 -486 -206 -32 -513 -102 -682 -155 -367 -116 -644 -125 -640 -22 4 111 550 691 709 755 254 100 493 71 742 -92z m5056 -149 c472 -505 351 -1057 -284 -1298 -378 -144 -438 -18 -176 368 287 423 232 641 -161 641 -317 0 -381 -139 -128 -280 132 -74 140 -131 47 -305 -113 -212 -584 -578 -646 -504 -18 22 -78 279 -134 572 -93 486 -84 551 110 735 492 468 978 493 1372 71z m-37160 11 c177 -196 175 -200 -122 -200 -365 0 -480 -127 -571 -631 -51 -285 -111 -373 -238 -349 -119 22 -177 149 -197 431 -26 372 1 417 400 672 514 329 501 327 728 77z m12804 41 c544 -258 835 -869 585 -1227 -136 -194 -640 -372 -939 -331 -285 38 -950 253 -1075 347 -409 309 286 1352 910 1366 102 2 335 -67 519 -155z m7102 -42 c869 -203 1562 -532 1895 -900 99 -109 236 -199 304 -199 68 0 150 -67 181 -150 44 -114 -18 -150 -254 -150 -208 0 -453 -116 -739 -350 -481 -394 -648 -418 -1349 -188 -544 177 -537 170 -390 445 150 280 343 239 739 -157 193 -192 394 -350 448 -350 148 0 217 163 146 348 -85 221 -1419 1152 -1651 1152 -101 0 -375 51 -610 114 -347 93 -530 85 -977 -46 -1345 -391 -2112 -1564 -1454 -2223 461 -460 1413 -252 1335 292 -23 163 -100 213 -330 213 -214 0 -300 -48 -301 -168 -2 -250 -125 -327 -297 -184 -361 300 -18 902 513 902 341 0 835 -469 835 -794 0 -436 -264 -852 -660 -1041 -705 -336 -1684 40 -1988 765 -172 408 -17 1132 334 1568 491 611 1172 922 2514 1148 413 69 782 132 821 140 39 8 460 -77 935 -187z m27466 -114 c814 -291 1277 -713 1518 -1385 173 -480 641 -1000 900 -1000 69 0 232 114 363 253 174 185 318 244 535 219 687 -78 579 -682 -163 -912 -129 -39 -175 -160 -175 -457 0 -222 41 -403 91 -403 51 0 278 -234 505 -519 228 -286 637 -670 909 -853 272 -183 495 -371 495 -416 0 -143 1022 -769 1650 -1011 364 -140 835 -235 1199 -241 690 -12 750 -100 550 -812 l-120 -429 -764 -64 c-703 -60 -821 -41 -1465 234 -740 316 -1504 868 -2230 1611 -1501 1538 -1691 1768 -1853 2243 -92 271 -167 557 -167 635 0 79 -225 355 -500 613 -338 317 -500 549 -500 716 0 199 -121 315 -622 595 -342 191 -852 438 -1133 548 -452 176 -1245 874 -1245 1095 0 155 1577 -29 2222 -260z m2635 111 c202 -125 375 -341 447 -558 105 -318 94 -377 -111 -596 -153 -162 -338 -242 -560 -242 -183 0 -333 -45 -333 -100 0 -55 -45 -100 -100 -100 -55 0 -100 90 -100 200 0 110 60 200 133 200 207 0 589 462 550 666 -22 116 -138 196 -314 216 -257 30 -269 16 -155 -167 99 -160 98 -230 -7 -357 -232 -279 -407 -189 -407 211 0 240 75 448 217 600 266 282 323 284 740 27z m-52079 -52 c238 -167 522 -643 522 -875 0 -99 -185 -160 -624 -206 -570 -59 -639 -45 -798 161 -240 313 -223 415 130 768 350 350 457 371 770 152z m4422 6 c0 -82 45 -150 100 -150 55 0 100 45 100 100 0 160 300 115 365 -54 95 -246 -7 -268 -655 -140 -589 116 -746 222 -485 328 268 108 575 63 575 -84z m2900 0 c104 -125 90 -150 -88 -150 -256 0 -270 -85 -43 -252 152 -111 136 -140 -155 -291 -304 -157 -348 -157 -722 9 -481 212 -478 415 9 654 437 213 837 225 999 30z m5025 43 c273 -124 609 -828 524 -1097 -33 -103 -218 -284 -411 -404 -283 -174 -413 -199 -666 -127 l-314 90 371 219 c550 325 474 726 -137 726 -228 0 -255 -154 -42 -236 171 -66 201 -321 48 -415 -55 -34 -278 -79 -493 -99 -477 -43 -649 122 -558 536 80 363 301 569 810 756 489 179 576 184 868 51z m47950 -92 c317 -193 418 -431 233 -546 -51 -32 -121 -189 -157 -349 -99 -454 -294 -558 -488 -261 -200 304 -207 455 -24 455 192 0 297 315 139 415 -193 123 -293 103 -439 -90 -121 -159 -133 -151 -136 95 -3 251 203 470 447 477 55 1 246 -87 425 -196z m6940 -21 c628 -353 622 -938 -13 -1313 -430 -254 -585 -200 -269 93 164 152 257 322 224 408 -31 82 -57 190 -57 240 0 51 -135 92 -300 92 -339 0 -404 -149 -100 -229 279 -73 250 -334 -60 -537 -295 -193 -458 -131 -774 291 -180 242 -183 286 -41 642 149 377 213 413 911 520 48 7 263 -86 479 -207z m2560 -138 c456 -513 172 -1142 -516 -1142 l-296 0 268 280 c300 313 346 569 118 657 -208 79 -759 -41 -690 -151 30 -49 93 -66 139 -37 132 82 402 -56 402 -206 0 -156 -305 -343 -561 -343 -240 0 -539 291 -539 525 0 107 97 330 215 496 204 286 240 298 725 237 368 -46 573 -134 735 -316z m-59910 -57 c254 -238 349 -635 227 -955 -74 -196 -157 -230 -565 -227 -441 3 -462 14 -277 147 457 327 472 354 320 584 -85 128 -271 229 -456 247 -345 35 -433 -127 -114 -210 357 -93 235 -406 -234 -599 -411 -169 -826 -149 -712 34 29 47 114 62 189 33 187 -72 300 139 163 303 -176 213 47 647 418 811 383 169 742 111 1041 -168z m48239 -8 c618 -303 1651 -1207 1556 -1361 -35 -56 -18 -130 38 -165 146 -90 126 -801 -33 -1181 -74 -178 -301 -469 -504 -647 -298 -262 -447 -321 -789 -311 -813 23 -1003 111 -1346 624 -493 736 -348 1092 572 1412 437 152 453 150 623 -71 237 -309 229 -743 -17 -875 -158 -84 -216 -66 -303 97 -124 232 -355 265 -433 62 -60 -157 190 -561 348 -561 274 0 758 336 922 641 650 1206 -1171 2091 -3438 1672 -851 -158 -1191 -291 -1522 -594 -234 -216 -316 -237 -600 -156 -506 145 -483 436 79 954 656 607 1382 786 3047 752 1128 -23 1309 -52 1800 -292z m4329 142 c91 -100 217 -333 281 -517 109 -311 97 -353 -160 -574 -220 -189 -370 -232 -730 -208 -570 38 -681 196 -531 756 169 624 796 923 1140 543z m2427 -159 c540 -540 419 -960 -335 -1157 -306 -80 -481 -80 -627 -2 -230 123 -176 299 90 299 98 0 286 116 420 258 l242 259 -236 191 c-423 343 -708 199 -314 -158 200 -181 200 -181 -1 -322 -111 -78 -303 -127 -426 -110 -177 26 -219 91 -203 317 58 817 778 1037 1390 425z m7478 10 l208 -280 -198 -367 c-192 -357 -215 -368 -780 -377 -479 -8 -608 27 -725 195 -210 299 -175 636 96 907 191 192 331 235 714 220 394 -15 512 -66 685 -298z m2375 123 c165 -88 311 -574 217 -725 -28 -45 -116 11 -196 125 -105 150 -254 207 -540 207 -446 0 -539 -170 -119 -218 218 -25 275 -84 275 -282 0 -227 -43 -253 -470 -280 -792 -51 -1135 529 -665 1126 203 258 245 269 775 204 308 -39 633 -109 723 -157z m-29902 -275 c129 -55 96 -110 -168 -284 -327 -214 -330 -214 -507 -19 -153 170 -158 210 -32 290 168 106 474 112 707 13z m-36986 -204 c83 -318 -101 -523 -405 -451 -376 91 -377 97 -57 379 346 304 400 312 462 72z m29273 -77 c260 -219 307 -324 282 -623 l-30 -360 -1209 32 c-895 23 -1349 -10 -1749 -129 -344 -102 -553 -124 -575 -59 -48 145 -338 126 -875 -56 -278 -94 -502 -122 -556 -68 -106 106 132 733 345 910 263 218 1379 530 1670 466 157 -35 309 -15 345 44 39 63 466 106 1052 106 920 0 1008 -18 1300 -263z m-33848 13 c716 -6 1099 -57 1350 -177 193 -92 620 -190 950 -217 642 -53 1341 -221 2291 -551 324 -113 698 -205 829 -205 132 0 378 -72 548 -159 169 -88 516 -221 770 -297 667 -200 1959 -997 2094 -1294 69 -152 197 -250 326 -250 121 0 393 -192 637 -450 234 -247 465 -451 515 -452 49 0 242 -135 429 -300 336 -296 471 -334 1079 -301 477 26 649 -301 612 -1162 l-30 -685 -300 14 c-1266 60 -2460 487 -3700 1323 -275 186 -635 383 -800 439 -165 56 -390 178 -500 271 -110 94 -447 272 -750 397 -302 124 -797 350 -1100 502 -302 151 -887 356 -1300 454 -412 98 -920 240 -1127 314 -207 75 -480 136 -605 136 -125 0 -278 50 -340 112 -62 62 -284 150 -495 196 -211 46 -757 169 -1214 274 -771 176 -862 178 -1269 31 -241 -86 -469 -127 -507 -89 -67 67 -88 592 -58 1494 17 523 240 841 503 717 89 -42 612 -80 1162 -85z m24575 -50 c189 0 191 -12 35 -225 -603 -824 -637 -945 -452 -1609 68 -247 205 -440 384 -543 273 -156 277 -175 268 -1066 -13 -1183 75 -1557 497 -2109 192 -252 322 -501 289 -554 -33 -54 -95 -75 -139 -48 -136 84 -822 146 -1757 157 -732 10 -974 -27 -1296 -196 -373 -195 -1554 -306 -1554 -146 0 33 129 224 286 425 516 658 820 1215 925 1693 177 804 299 2052 242 2471 -49 361 -11 455 393 961 510 639 970 917 1392 841 158 -29 377 -52 487 -52z m15892 -65 c124 -112 183 -307 183 -600 0 -561 -286 -883 -709 -798 -177 35 -336 7 -411 -74 -100 -106 -184 -57 -451 262 -181 217 -329 421 -329 453 0 33 101 210 225 393 329 487 1138 684 1492 364z m1916 29 c179 -75 449 -283 599 -461 227 -270 263 -386 211 -689 -125 -728 -832 -920 -1538 -417 -276 196 -305 268 -305 761 0 507 22 559 325 743 387 236 309 229 708 63z m-25532 -216 c209 -390 36 -474 -653 -318 -608 138 -612 174 -48 437 389 182 555 154 701 -119z m829 187 c245 -40 364 -107 333 -187 -26 -68 5 -177 70 -243 163 -166 -264 -505 -638 -505 -353 0 -431 115 -245 360 202 267 184 393 -75 518 -209 101 -211 109 -25 114 110 3 371 -22 580 -57z m10970 -696 c0 -176 -71 -226 -375 -264 -206 -26 -380 -42 -386 -36 -6 6 -40 131 -75 279 -43 180 -12 319 94 426 144 144 184 143 450 -15 180 -106 292 -255 292 -390z m43536 411 c41 -105 -89 -224 -436 -400 -670 -339 -699 -317 -188 146 492 445 543 466 624 254z m-18954 -237 c28 -187 -16 -213 -367 -213 -285 0 -489 -75 -711 -262 -290 -244 -324 -251 -491 -100 -98 89 -299 162 -446 162 -313 0 -350 149 -74 296 264 142 306 132 310 -71 3 -156 20 -153 154 25 167 223 833 427 1293 397 222 -15 308 -76 332 -234z m6750 147 c68 -176 -13 -260 -249 -260 -211 0 -235 108 -63 280 157 157 246 152 312 -20z m2268 -16 c0 -86 -46 -128 -102 -93 -56 35 -75 105 -44 156 86 139 146 113 146 -63z m5092 -152 c170 -169 308 -323 308 -342 0 -19 -140 -65 -312 -103 -242 -53 -358 -22 -520 140 -206 207 -206 210 -13 405 107 108 203 199 212 202 10 3 156 -132 325 -302z m2190 25 c26 -175 -18 -217 -225 -217 -288 0 -302 29 -150 313 132 246 332 195 375 -96z m-15369 67 c477 -143 493 -255 48 -339 -196 -36 -479 -208 -670 -404 -223 -230 -390 -323 -511 -285 -128 41 -207 -14 -274 -190 -51 -135 -141 -276 -200 -312 -58 -36 -106 -136 -106 -222 0 -153 119 -150 525 17 140 58 175 21 175 -188 0 -232 -39 -261 -355 -261 -726 0 -1084 769 -629 1348 192 244 265 269 662 224 513 -58 822 131 822 500 0 264 3 265 513 112z m-55956 -2214 c75 -126 277 -198 669 -239 610 -63 847 -284 420 -391 -285 -71 -645 -24 -1525 200 -605 154 -645 152 -1030 -45 -469 -239 -1823 -459 -2217 -360 -554 139 -327 388 697 767 382 142 611 659 435 987 -58 109 -106 374 -106 590 l0 392 654 61 c360 34 776 39 925 12 149 -27 406 -11 571 36 l300 85 50 -957 c28 -527 98 -1039 157 -1138z m47489 1975 c458 -217 875 -675 797 -876 -34 -90 -204 -234 -376 -321 -287 -143 -324 -142 -433 7 -66 90 -149 336 -184 546 -36 211 -129 408 -207 438 -167 64 -194 361 -33 361 60 0 256 -70 436 -155z m12054 -57 c0 -55 -45 -72 -100 -38 -55 34 -100 107 -100 162 0 55 45 72 100 38 55 -34 100 -107 100 -162z m-19473 -240 c500 -316 873 -803 873 -1139 0 -290 -303 -809 -472 -809 -234 0 -278 48 -249 273 15 123 -37 349 -117 503 -143 276 -157 280 -1173 303 -624 14 -1056 68 -1098 135 -38 61 -118 81 -178 44 -162 -100 -2002 -436 -2062 -376 -141 141 -7 402 369 714 553 459 1595 705 2799 661 747 -27 931 -70 1308 -309z m-31050 134 c-72 -217 -360 -339 -491 -208 -93 93 -66 142 122 217 330 132 416 130 369 -9z m20131 -40 c164 -148 151 -189 -231 -700 -497 -664 -938 -831 -1722 -650 -583 134 -855 349 -855 673 0 244 316 635 514 635 62 0 222 -118 355 -261 303 -327 686 -277 1218 158 422 344 487 358 721 145z m37904 -150 c122 -435 92 -567 -170 -738 -252 -165 -256 -164 -225 64 27 189 -18 238 -242 264 -266 30 -391 -127 -162 -203 70 -23 86 -125 42 -264 -97 -304 -519 -255 -774 90 -380 510 167 1084 999 1049 398 -16 474 -54 532 -262z m-57777 54 c-33 -85 -81 -133 -107 -107 -27 26 -18 96 18 154 98 160 156 129 89 -47z m2891 -160 c108 -145 219 -466 247 -713 62 -557 -192 -875 -698 -870 -348 4 -816 286 -605 365 238 90 630 449 630 579 0 126 -208 253 -414 253 -54 0 -84 -96 -67 -213 36 -248 -219 -447 -455 -356 -279 107 -205 643 134 983 387 387 929 375 1228 -28z m3234 41 c-101 -102 -185 51 -102 186 63 102 87 102 121 1 23 -70 15 -154 -19 -187z m8213 -327 c238 -908 15 -2589 -484 -3651 -265 -564 -2048 -2349 -2346 -2349 -41 0 -222 -112 -402 -250 -235 -179 -452 -250 -769 -250 -298 0 -516 -65 -672 -200 -127 -110 -268 -200 -313 -200 -144 0 -231 538 -203 1260 16 401 27 413 527 575 282 91 590 165 685 165 252 0 1345 732 1879 1259 503 496 655 737 938 1490 235 626 233 844 -13 1651 -247 809 -248 900 -6 900 107 0 224 47 259 105 36 58 225 92 420 75 340 -29 362 -54 500 -580z m27127 400 c-59 -110 -166 -200 -238 -200 -72 0 -212 90 -312 200 -178 197 -175 200 238 200 388 0 411 -15 312 -200z m13364 50 c31 -82 119 -150 194 -150 195 0 463 -448 425 -709 -79 -534 -983 -792 -1528 -435 -296 194 -391 450 -308 830 100 454 1078 827 1217 464z m4126 13 c89 -108 61 -172 -128 -296 -133 -87 -362 -188 -510 -225 -241 -61 -266 -43 -236 167 32 219 385 486 647 490 62 0 164 -61 227 -136z m6418 -72 c164 -260 98 -468 -172 -536 -146 -36 -312 -19 -370 39 -130 130 -466 140 -466 14 0 -50 53 -109 118 -131 195 -65 9 -366 -268 -436 -316 -79 -307 -89 -387 430 -54 355 -29 453 162 633 187 177 315 206 759 171 311 -25 572 -102 624 -184z m-64175 -65 c139 -80 -354 -526 -581 -526 -118 0 -301 64 -408 143 -181 133 -182 147 -19 211 96 37 175 132 175 211 0 112 84 129 375 76 206 -37 412 -89 458 -115z m2520 70 c80 -129 -143 -414 -264 -339 -49 30 -89 142 -89 249 0 205 243 267 353 90z m1548 29 c0 -41 135 -152 300 -245 335 -191 373 -410 159 -922 -101 -242 -241 -369 -498 -454 -485 -160 -660 -32 -277 202 578 351 596 668 48 836 -296 91 -371 -77 -131 -294 254 -230 80 -490 -270 -403 -166 42 -232 16 -232 -93 0 -84 -37 -152 -81 -152 -132 0 -519 577 -519 774 0 248 276 622 536 727 267 108 964 125 965 24z m44899 -25 c0 -55 83 -100 185 -100 230 0 479 -269 565 -612 86 -344 -347 -712 -787 -668 -330 33 -495 280 -187 280 106 0 274 89 372 198 147 162 157 226 54 350 -140 168 -402 206 -402 58 0 -52 47 -123 105 -159 147 -91 -80 -347 -307 -347 -236 0 -315 240 -191 576 142 381 593 704 593 424z m2422 -36 c275 -22 578 -341 578 -608 0 -631 -436 -936 -1089 -761 -246 65 -246 66 75 199 177 73 361 207 409 297 118 219 -53 509 -300 509 -229 0 -237 -35 -70 -304 151 -245 -16 -392 -448 -394 -541 -4 -438 740 147 1066 124 69 294 100 376 68 83 -32 227 -64 322 -72z m953 -122 c-95 -96 -286 59 -215 174 42 68 98 66 170 -6 58 -58 79 -134 45 -168z m8205 105 c446 -133 554 -135 793 -14 301 151 481 125 752 -112 148 -128 175 -331 175 -1297 0 -1055 -14 -1139 -175 -1065 -281 130 -1500 49 -2512 -166 -1428 -303 -3888 -1408 -4691 -2107 -192 -166 -445 -286 -605 -286 -316 0 -525 -164 -452 -354 30 -78 -176 -275 -513 -490 -621 -398 -2086 -804 -2606 -723 -265 41 -751 -15 -1241 -145 -80 -21 -148 20 -150 91 -3 70 -56 160 -118 200 -62 39 -144 257 -182 485 -60 362 -40 435 160 575 126 89 352 161 501 161 150 0 296 39 326 87 29 47 216 113 416 145 513 83 2280 1159 2992 1822 330 308 780 680 1000 827 220 148 489 350 598 448 678 612 3251 1756 3997 1777 113 3 363 65 555 138 193 73 376 138 407 144 31 7 289 -57 573 -141z m-36228 -122 c-38 -96 -93 -310 -122 -475 -43 -240 -151 -347 -540 -532 -268 -127 -533 -203 -588 -169 -177 109 -117 451 79 451 99 0 266 63 371 139 162 118 170 164 57 300 -74 90 -283 161 -471 161 -186 0 -338 42 -338 94 0 102 378 165 1136 190 425 14 477 -6 416 -159z m25748 25 c0 -82 -42 -150 -94 -150 -126 0 -217 156 -137 236 113 113 231 69 231 -86z m4633 -333 c-51 -437 -31 -504 205 -690 319 -251 322 -295 37 -533 -274 -229 -435 -243 -511 -44 -32 83 -127 150 -211 150 -209 0 -192 122 47 327 166 142 226 351 223 773 0 28 -31 151 -68 275 -55 182 -30 225 134 225 182 0 196 -46 144 -483z m-22387 176 c-86 -139 -146 -113 -146 63 0 86 46 128 102 93 56 -35 75 -105 44 -156z m-23645 -42 c-125 -150 -301 -118 -301 55 0 52 96 94 212 94 177 0 192 -25 89 -149z m1440 -159 c345 -409 328 -552 -115 -958 -402 -368 -724 -494 -995 -390 -140 53 -119 91 125 216 484 249 600 402 445 588 -163 197 -350 146 -351 -95 0 -287 -313 -433 -508 -237 -212 211 -108 542 283 907 402 376 783 365 1116 -31z m11392 -101 c-43 -218 -20 -291 92 -291 200 0 410 262 323 403 -46 75 39 101 267 79 298 -29 335 -65 335 -332 0 -271 -34 -302 -350 -326 -792 -59 -1030 -147 -1459 -543 -377 -348 -441 -463 -441 -799 0 -215 69 -525 153 -687 l152 -295 -336 0 -335 0 7 525 c3 289 -27 593 -68 675 -54 108 29 206 297 350 504 271 796 776 643 1111 -104 228 -87 260 207 383 433 182 585 108 513 -253z m3444 291 c-54 -164 -353 -339 -436 -256 -96 95 150 374 330 374 80 0 128 -53 106 -118z m17840 -47 c267 -242 236 -751 -64 -1032 -224 -211 -305 -225 -900 -164 -528 54 -653 40 -653 -75 0 -83 146 -169 350 -207 374 -71 432 -207 213 -506 -128 -175 -155 -160 -450 246 -380 526 -385 604 -51 938 193 192 326 247 500 203 216 -54 238 -28 238 284 0 190 30 375 67 411 125 126 567 67 750 -98z m-22713 -224 c252 -230 302 -337 244 -525 -183 -602 -732 -769 -1189 -361 -392 350 -430 705 -103 962 368 290 672 268 1048 -76z m-8611 -259 c188 -187 253 -377 286 -826 60 -826 -145 -1280 -640 -1416 -444 -123 -553 -76 -223 95 269 139 675 591 680 758 7 211 -263 339 -582 275 -374 -75 -418 -238 -64 -238 176 0 250 -54 250 -185 0 -512 -972 -704 -1269 -250 -217 332 -124 649 269 914 300 203 425 227 875 172 338 -42 525 -28 525 38 0 147 -340 311 -643 311 -187 0 -257 53 -257 192 0 105 -30 270 -67 366 -58 151 -23 165 275 105 188 -37 451 -177 585 -311z m11707 242 c0 -58 -45 -78 -100 -44 -55 34 -100 82 -100 106 0 24 45 44 100 44 55 0 100 -48 100 -106z m11739 -52 c34 -87 61 -243 61 -346 0 -178 -13 -179 -293 -18 -276 158 -283 178 -125 339 213 217 282 222 357 25z m-48725 -417 c444 -204 446 -344 6 -434 -173 -36 -433 -142 -576 -236 -144 -94 -271 -156 -282 -138 -506 791 -49 1223 852 808z m18929 8 c64 -168 -88 -329 -316 -331 -95 -2 -97 55 -9 248 133 291 235 317 325 83z m22017 -380 c-69 -274 -544 -439 -674 -234 -181 285 -94 575 189 638 151 33 320 72 375 86 131 34 183 -199 110 -490z m7183 349 c320 -121 335 -423 32 -635 -196 -136 -202 -157 -43 -162 99 -3 271 43 381 102 191 102 193 95 53 -177 -135 -259 -186 -280 -613 -246 -361 29 -454 70 -410 185 32 81 57 346 57 589 0 476 74 523 543 344z m-6204 -477 c57 -410 37 -499 -148 -650 -117 -96 -249 -175 -292 -175 -135 0 -496 690 -394 753 52 32 95 169 95 303 0 210 46 244 336 244 326 0 339 -16 403 -475z m5141 349 c57 -69 136 -253 175 -410 60 -238 24 -325 -217 -528 -532 -448 -1548 -740 -2733 -785 -639 -24 -798 5 -1117 207 -480 303 -888 841 -888 1171 0 340 146 418 506 268 239 -98 294 -181 294 -442 0 -340 283 -682 659 -795 1209 -365 2641 141 2641 933 0 443 429 683 680 381z m-42198 -203 c29 -150 -12 -168 -249 -111 -351 85 -370 100 -284 239 105 170 494 76 533 -128z m17118 129 c0 -55 -48 -100 -106 -100 -58 0 -78 45 -44 100 34 55 82 100 106 100 24 0 44 -45 44 -100z m10400 -262 c0 -76 -56 -138 -124 -138 -68 0 -311 -77 -540 -172 -322 -133 -439 -249 -519 -509 -104 -339 -65 -619 86 -619 44 0 110 -133 146 -295 89 -406 683 -959 1401 -1304 559 -268 1050 -628 1050 -770 0 -146 -728 -931 -864 -931 -176 0 -1069 502 -1123 631 -20 49 -233 311 -475 582 -241 272 -438 542 -438 602 0 60 -135 262 -300 450 -165 188 -306 419 -313 513 -7 95 -21 285 -32 422 -11 138 -51 347 -91 464 -42 127 -4 383 93 625 132 328 215 411 416 411 201 0 240 -39 198 -200 -29 -110 -9 -226 43 -259 134 -82 405 165 347 317 -69 179 749 555 914 420 69 -56 125 -164 125 -240z m7528 -563 c-17 -404 -73 -561 -250 -703 -1184 -954 -1693 -1123 -3109 -1033 -1207 77 -1654 274 -1910 841 -161 357 -163 421 -27 686 179 345 585 587 828 494 132 -51 146 -94 57 -183 -64 -64 -117 -280 -117 -479 0 -314 49 -389 381 -575 562 -316 1074 -366 1806 -176 1121 290 1812 904 1813 1611 0 418 99 487 344 242 163 -162 201 -315 184 -725z m10927 725 c798 0 1121 -472 948 -1383 -108 -571 -213 -812 -551 -1267 -420 -564 -867 -1753 -1005 -2669 -237 -1575 -869 -2590 -1428 -2291 -113 60 -479 110 -812 110 -631 0 -739 70 -418 270 214 134 811 1127 811 1350 0 81 86 435 191 788 105 353 293 1024 419 1492 125 468 279 918 341 1000 269 354 963 1974 1018 2375 42 306 91 405 165 331 58 -58 203 -106 321 -106z m11286 -50 c137 -137 323 -250 413 -250 193 0 150 -194 -74 -336 -116 -72 -204 -54 -327 68 -92 92 -198 169 -235 170 -37 0 -128 39 -202 86 -112 71 -112 121 -1 299 73 117 143 213 155 213 11 0 133 -112 271 -250z m1798 -220 c-96 -71 -155 -141 -132 -157 24 -16 171 -95 328 -174 262 -132 282 -180 238 -570 -53 -473 -368 -820 -748 -826 -290 -4 -284 72 25 315 302 238 315 393 49 633 -214 193 -416 126 -217 -73 407 -407 -266 -805 -699 -413 -461 417 -28 1183 692 1227 69 5 125 91 125 191 0 283 115 334 324 146 179 -163 180 -179 15 -299z m2061 370 c0 -55 -45 -100 -100 -100 -55 0 -100 45 -100 100 0 55 45 100 100 100 55 0 100 -45 100 -100z m-49654 -135 c203 -148 133 -365 -117 -365 -88 0 -315 -118 -504 -262 -315 -241 -357 -249 -504 -102 -147 147 -135 170 153 270 172 60 384 218 472 351 183 280 247 294 500 108z m22529 -19 c69 -22 125 -182 125 -356 0 -381 -533 -938 -995 -1039 -395 -87 -845 133 -888 434 -49 346 174 803 472 966 236 130 866 127 1286 -5z m18125 -52 c0 -52 -45 -94 -100 -94 -55 0 -100 70 -100 156 0 86 45 128 100 94 55 -34 100 -104 100 -156z m-11203 -141 c284 -302 170 -497 -377 -649 -410 -113 -502 -73 -326 139 68 82 94 195 59 253 -91 147 -465 130 -446 -21 55 -422 -3 -501 -325 -436 -174 34 -336 82 -359 104 -87 88 424 657 590 657 96 0 203 45 237 100 123 199 707 108 947 -147z m4179 -211 c37 -558 -89 -722 -419 -545 -311 166 -313 196 -45 651 263 446 430 408 464 -106z m-29926 -96 c479 -125 546 -347 250 -827 -214 -347 -718 -619 -1147 -619 -341 0 -319 161 47 350 344 178 387 397 107 546 -288 154 -335 129 -267 -142 46 -182 11 -273 -133 -350 -275 -148 -380 -131 -607 96 -305 305 -267 831 75 1063 421 286 647 320 975 146 165 -87 480 -205 700 -263z m46673 -94 c132 -183 81 -682 -88 -869 -244 -269 -1065 -253 -1345 27 -396 396 -55 1151 545 1210 301 29 731 -149 888 -368z m-1665 224 c31 -32 -14 -194 -101 -362 -86 -167 -157 -436 -157 -598 0 -173 -64 -319 -154 -354 -129 -49 -143 2 -84 315 87 461 87 512 4 843 -60 239 -41 264 184 240 138 -15 276 -53 308 -84z m2784 63 c243 -93 188 -457 -108 -711 -146 -125 -302 -228 -348 -228 -177 0 -199 487 -33 741 179 273 235 296 489 198z m-49842 -127 c0 -48 -63 -140 -141 -205 -107 -88 -159 -89 -213 -1 -39 64 -10 156 66 204 178 112 288 113 288 2z m4511 -220 c602 -477 474 -967 -312 -1192 -252 -73 -392 -57 -605 69 -463 274 -665 972 -319 1104 96 36 234 125 307 196 212 210 512 153 929 -177z m36427 -35 c434 -569 324 -857 -326 -857 -298 0 -512 160 -512 383 0 179 388 817 496 817 44 0 198 -154 342 -343z m-1606 -78 c436 -587 119 -1344 -511 -1218 -402 80 -401 150 6 339 425 198 446 536 35 583 -263 30 -282 11 -224 -219 59 -237 41 -251 -293 -230 -314 20 -539 179 -543 383 -1 37 116 208 261 380 227 270 319 309 665 283 300 -22 453 -99 604 -301z m768 241 c0 -103 -217 -320 -320 -320 -44 0 -80 90 -80 200 0 133 67 200 200 200 110 0 200 -36 200 -80z m-40908 -279 c233 -196 308 -342 308 -600 0 -287 -35 -341 -225 -339 -124 0 -290 42 -369 92 -123 78 -123 115 -3 259 121 147 115 187 -51 308 -105 76 -244 139 -311 139 -144 0 -138 -518 8 -623 62 -46 51 -75 -31 -75 -193 -3 -818 499 -818 657 0 187 486 432 867 437 200 3 432 -92 625 -255z m15754 197 c426 -164 542 -1013 202 -1476 -261 -353 -1048 -245 -1048 145 0 118 331 452 513 518 108 40 111 77 14 180 -96 102 -201 106 -491 17 -397 -122 -536 -89 -536 127 0 370 850 679 1346 489z m28991 -145 c394 -311 360 -724 -77 -932 -386 -183 -660 -208 -660 -61 0 55 67 100 150 100 198 0 574 381 498 504 -33 53 -153 96 -266 96 -177 0 -188 -23 -76 -158 164 -197 -15 -338 -431 -340 -197 -2 -275 48 -275 176 0 244 277 619 536 723 303 122 309 121 601 -108z m-25326 -79 c34 -35 111 -210 170 -389 96 -286 87 -325 -71 -325 -99 0 -322 49 -495 110 -335 117 -428 437 -195 670 113 113 456 75 591 -66z m4401 -289 c187 -493 134 -772 -172 -911 -524 -239 -1140 -54 -1140 343 0 226 380 166 512 -80 l120 -223 107 240 c68 154 72 253 9 275 -329 115 -387 217 -269 474 86 189 192 257 404 257 239 0 310 -62 429 -375z m-31312 17 c303 -141 871 -390 1264 -554 392 -163 793 -385 890 -493 97 -107 242 -195 322 -195 201 0 1524 -705 1524 -812 0 -49 -132 -88 -294 -88 -455 0 -451 -167 7 -240 258 -42 461 -23 550 51 109 90 180 82 314 -35 95 -84 285 -187 421 -228 l249 -76 -249 -103 c-369 -152 -3650 -134 -3837 22 -120 100 -223 89 -529 -56 -369 -175 -1071 -229 -1207 -93 -38 37 -14 144 52 238 506 717 496 1452 -26 1990 -250 257 -308 390 -273 628 54 366 122 370 822 44z m32754 -47 c102 -112 357 -301 566 -418 439 -247 495 -529 138 -692 -256 -116 -958 -37 -958 108 0 46 90 107 200 136 243 64 276 520 44 610 -116 44 -148 5 -125 -151 19 -129 -52 -267 -180 -353 -193 -129 -227 -119 -378 112 -151 231 -152 280 -11 553 181 350 442 385 704 95z m5876 2 c347 -168 459 -183 644 -84 186 100 258 89 425 -62 245 -221 245 -238 5 -550 l-191 -248 -256 240 c-250 235 -511 221 -275 -15 171 -171 145 -423 -65 -613 -229 -206 -317 -124 -317 294 0 333 -365 741 -663 741 -164 0 -170 52 -33 307 129 242 206 241 726 -10z m11552 -132 c42 -362 -228 -665 -592 -665 -400 0 -445 166 -93 348 217 113 303 229 303 412 0 367 339 283 382 -95z m818 232 c0 -57 -67 -129 -150 -161 -83 -31 -150 -129 -150 -216 0 -222 499 -720 722 -720 156 0 168 -32 74 -207 -60 -113 -96 -372 -78 -575 l32 -368 -525 -27 c-406 -22 -525 5 -525 118 0 80 90 174 200 209 276 88 465 448 290 556 -171 106 -318 10 -251 -163 82 -214 -135 -281 -321 -99 -92 91 -258 229 -368 308 -195 139 -193 148 117 397 183 146 347 391 388 577 39 178 121 357 183 397 164 108 362 93 362 -26z m-13618 -319 c-58 -406 -714 -674 -1650 -676 -796 -2 -1431 132 -1291 273 39 38 221 56 406 40 185 -16 473 42 640 128 167 86 519 158 783 160 264 2 567 69 674 150 287 217 475 185 438 -75z m-26154 -253 c110 -241 133 -388 65 -411 -59 -19 -227 -139 -374 -266 -256 -219 -281 -222 -544 -68 -294 174 -370 420 -129 420 80 0 271 157 425 350 153 192 303 350 333 350 30 0 131 -169 224 -375z m2459 140 c89 -107 30 -172 -284 -314 -219 -98 -473 -262 -566 -365 -180 -199 -437 -250 -437 -87 0 54 154 163 342 241 188 79 419 260 512 402 192 292 274 316 433 123z m51238 71 c368 -61 375 -70 375 -509 0 -369 53 -496 306 -733 l306 -286 -431 7 c-237 4 -1522 -27 -2856 -69 -2424 -75 -2760 -36 -2150 249 151 70 358 171 458 223 101 52 320 64 485 28 265 -58 295 -43 241 125 -49 155 33 232 441 410 276 120 603 222 726 226 123 3 517 89 874 189 781 220 756 217 1225 140z m-7731 -292 c-295 -314 -884 -688 -962 -610 -113 113 66 366 259 366 109 0 324 111 478 247 370 325 532 323 225 -3z m9188 31 c37 -196 -367 -761 -549 -769 -172 -9 -265 548 -133 794 140 262 631 244 682 -25z m-18027 -83 c37 -60 208 -194 381 -300 173 -105 259 -191 192 -192 -66 0 -280 -140 -475 -310 -194 -171 -358 -272 -365 -225 -6 47 -17 130 -25 185 -19 148 -92 171 -292 94 -316 -121 -301 33 43 448 357 429 434 472 541 300z m-39755 -196 l250 -199 -296 -244 c-163 -134 -315 -225 -338 -202 -23 23 -52 223 -65 445 -26 455 74 500 449 200z m29335 110 c278 -106 370 -357 240 -656 -102 -235 -791 -750 -1004 -750 -138 0 -445 279 -360 327 21 13 174 92 339 177 312 160 396 397 168 473 -72 24 -155 -47 -184 -157 -58 -221 -428 -366 -571 -223 -161 161 18 390 507 644 558 290 542 287 865 165z m15015 -6 c36 -58 -68 -100 -250 -100 -182 0 -286 42 -250 100 34 55 146 100 250 100 104 0 216 -45 250 -100z m-53401 -794 c39 -180 -10 -437 -137 -718 -109 -241 -223 -517 -252 -613 -83 -270 -348 -207 -422 100 -37 151 -154 449 -260 662 -221 440 -177 791 142 1133 l206 220 331 -252 c181 -138 358 -378 392 -532z m15851 727 c0 -101 -319 -433 -415 -433 -134 0 -99 378 40 434 187 75 375 75 375 -1z m-1287 -176 c185 -78 390 -231 456 -338 99 -164 83 -228 -100 -391 -624 -557 -1190 -785 -629 -254 350 332 393 615 113 743 -164 74 -285 73 -417 -4 -176 -104 -174 -113 39 -173 124 -35 225 -112 225 -171 0 -157 -514 -669 -672 -669 -74 0 -160 -68 -192 -150 -126 -328 -224 -120 -197 416 25 492 70 603 346 850 359 321 544 346 1028 141z m41745 -105 c159 -242 158 -269 -10 -455 -239 -263 -413 -249 -486 42 -33 131 -132 266 -219 300 -132 50 -147 8 -91 -246 56 -259 34 -315 -148 -363 -122 -32 -194 -112 -166 -185 48 -125 -134 -245 -371 -245 -65 0 -129 175 -144 390 -41 601 313 967 965 997 441 20 522 -9 670 -235z m-25991 3 c156 -80 367 -170 469 -201 153 -46 164 -83 63 -205 -168 -203 -334 -187 -549 51 -100 110 -292 200 -428 200 -208 0 -227 24 -122 150 154 186 213 186 567 5z m4884 -266 c304 -205 442 -362 405 -459 -31 -80 -56 -212 -56 -292 0 -110 -53 -96 -218 57 -119 111 -301 229 -402 261 -102 33 -173 134 -158 227 22 133 -41 161 -315 139 -339 -27 -341 -25 -160 175 246 272 362 258 904 -108z m18568 -82 c92 -86 199 -280 235 -431 78 -317 -101 -436 -501 -336 -211 53 -239 105 -190 352 46 230 13 314 -161 407 -120 64 -249 85 -286 45 -36 -39 -10 -91 59 -116 176 -63 156 -328 -25 -328 -83 0 -150 -63 -150 -139 0 -140 -206 -261 -445 -261 -165 0 -277 672 -151 908 185 344 1205 280 1615 -101z m839 168 c-36 -124 -92 -371 -125 -550 -63 -348 -233 -448 -233 -137 0 103 -27 323 -61 490 -48 242 -23 313 125 351 335 86 360 73 294 -154z m-44308 -108 c382 -219 399 -250 371 -670 -33 -492 -100 -559 -651 -652 -503 -85 -556 -10 -207 293 316 274 269 403 -188 516 -289 71 -393 -87 -125 -190 238 -91 175 -254 -125 -324 -151 -35 -329 -132 -395 -215 -79 -98 -183 -123 -300 -72 -173 75 -173 80 2 121 142 34 175 122 150 403 -29 322 13 394 401 691 238 183 485 331 550 330 64 -1 297 -105 517 -231z m2184 5 c208 -179 266 -318 266 -643 0 -573 -186 -729 -871 -729 -816 0 -1045 394 -628 1078 329 540 813 655 1233 294z m12792 129 c284 -2 584 -589 512 -1001 -89 -514 -310 -818 -568 -781 -299 43 -333 351 -70 631 271 289 230 548 -120 744 -337 189 -472 73 -228 -196 126 -139 151 -235 80 -306 -121 -121 -833 259 -830 443 4 306 481 594 848 512 110 -24 279 -45 376 -46z m7041 -149 c300 -210 503 -1084 328 -1411 -141 -264 -738 -483 -968 -354 -113 63 -89 115 112 246 140 92 301 255 359 364 87 162 62 225 -146 361 -138 90 -323 136 -411 102 -138 -53 -129 -88 65 -245 258 -209 200 -380 -179 -524 -387 -147 -727 116 -727 561 0 393 240 688 733 902 411 179 576 179 834 -2z m4215 -69 c-18 -121 -176 -297 -357 -398 l-325 -181 0 240 c0 132 -27 311 -61 398 -49 128 17 158 357 158 372 0 414 -24 386 -217z m-2932 -227 c-249 -152 -436 -208 -495 -150 -169 167 169 353 695 382 136 7 73 -66 -200 -232z m6150 100 c0 -79 -42 -170 -93 -202 -119 -73 -239 114 -157 246 92 149 250 121 250 -44z m10537 -87 l287 -229 -392 -129 c-303 -100 -487 -104 -812 -16 -455 122 -505 206 -263 448 235 235 842 197 1180 -74z m-23537 42 c0 -100 -241 -211 -458 -211 -78 0 -142 68 -142 150 0 100 100 150 300 150 165 0 300 -40 300 -89z m1700 -161 c-279 -297 -245 -291 -455 -81 -159 160 -158 174 18 243 103 41 296 77 429 81 l243 7 -235 -250z m1602 -2 c69 -83 160 -341 203 -573 84 -461 -73 -903 -359 -1013 -255 -97 -746 -73 -746 38 0 55 35 100 78 100 42 0 227 136 409 303 272 249 310 330 210 450 -67 81 -240 146 -384 144 -227 -3 -239 -17 -88 -105 263 -153 211 -373 -138 -585 -366 -223 -518 -189 -673 153 -180 395 -135 634 178 948 236 235 379 292 738 292 276 0 493 -58 572 -152z m4785 -320 c211 -132 231 -203 188 -657 -38 -394 -111 -562 -319 -742 -311 -267 -558 -207 -304 73 245 271 151 542 -201 582 -288 33 -292 27 -125 -158 377 -416 28 -702 -638 -523 l-411 111 66 412 c87 549 336 1054 541 1100 290 66 958 -44 1203 -198z m-7021 -167 c462 -537 194 -1045 -599 -1134 -497 -56 -725 118 -344 263 129 49 296 162 370 251 114 138 108 192 -43 359 -218 241 -338 183 -278 -133 39 -202 -3 -248 -276 -303 -483 -96 -496 -90 -496 271 0 518 362 756 1091 717 232 -12 415 -105 575 -291z m11686 220 c43 -42 -269 -1405 -406 -1772 -40 -108 -102 -86 -270 93 -147 159 -178 247 -95 275 218 73 430 343 398 508 -35 181 -534 393 -651 276 -42 -42 2 -120 98 -173 251 -141 214 -378 -75 -488 -362 -137 -498 -46 -622 420 -136 512 -97 620 303 824 291 149 1184 174 1320 37z m-2465 -143 c174 -122 219 -228 181 -425 -32 -163 24 -385 145 -583 184 -299 187 -341 40 -625 -149 -288 -191 -305 -750 -305 -325 0 -619 45 -653 100 -35 57 50 100 199 100 260 0 751 393 751 602 0 299 -219 498 -548 498 -187 0 -368 -45 -402 -100 -36 -58 66 -100 244 -100 273 0 306 -32 306 -298 0 -304 -10 -310 -711 -445 -502 -97 -630 438 -260 1091 352 622 972 830 1458 490z m16063 -338 c0 -124 -197 -152 -1129 -162 -793 -8 -1118 21 -1092 100 21 64 395 137 879 170 1168 81 1342 67 1342 -108z m-32212 -56 c144 -36 262 -103 262 -148 0 -172 -1335 -362 -2182 -310 -314 19 -251 334 83 417 366 91 1534 117 1837 41z m-8769 -406 c30 -81 28 -175 -7 -209 -34 -34 -568 -77 -1187 -96 -619 -19 -1184 -56 -1256 -83 -158 -58 -719 215 -719 350 0 52 318 92 708 88 389 -3 732 19 763 50 32 31 413 54 849 51 600 -3 806 -40 849 -151z m6081 -83 c0 -154 -441 -234 -1345 -245 -597 -7 -814 21 -739 96 236 236 2084 367 2084 149z m3750 -17 c0 -88 -157 -376 -350 -638 -266 -362 -350 -575 -350 -888 0 -383 -19 -412 -276 -412 -151 0 -433 -48 -625 -107 -454 -139 -2406 -450 -4049 -646 -715 -84 -1381 -179 -1480 -209 -99 -30 -391 -55 -650 -55 -258 0 -874 -85 -1370 -190 -495 -104 -1057 -191 -1250 -192 -192 -1 -507 -45 -700 -96 -333 -90 -1954 -271 -3250 -364 -521 -37 -3086 -402 -5300 -754 -1285 -205 -1797 -221 -1929 -63 -165 200 -351 2098 -274 2801 58 529 47 575 -136 575 -110 0 -221 36 -249 80 -137 222 176 303 1388 361 715 34 1525 82 1800 106 275 24 1187 70 2026 103 l1527 60 -62 -530 c-53 -452 -33 -557 139 -712 217 -197 1268 -509 1462 -435 65 25 292 -85 506 -244 213 -159 449 -289 525 -289 75 0 275 -72 444 -159 386 -199 1911 -349 2438 -239 658 137 1193 370 1226 533 18 85 -20 251 -83 368 -169 317 100 558 717 639 705 94 1031 -115 940 -601 -60 -319 -47 -341 203 -341 260 0 266 14 215 471 -37 324 -123 528 -277 653 -123 99 -207 193 -185 208 665 453 963 576 1609 668 402 57 1054 150 1450 207 608 88 757 80 960 -53 223 -146 329 -136 1480 138 1303 311 1592 377 1715 396 41 7 75 -61 75 -150z m30000 12 c0 -161 -92 -185 -341 -90 -204 79 -105 240 147 240 107 0 194 -68 194 -150z m1300 5 c0 -141 -556 -353 -925 -354 -201 -1 -231 203 -55 379 178 178 980 157 980 -25z m-45585 -130 c209 -96 381 -227 382 -291 2 -63 -224 -278 -501 -478 -278 -199 -530 -428 -561 -509 -77 -200 -208 -185 -326 37 -106 197 90 1024 303 1280 147 177 245 172 703 -39z m18185 -31 c0 -58 -45 -78 -100 -44 -55 34 -100 82 -100 106 0 24 45 44 100 44 55 0 100 -48 100 -106z m25550 -192 c541 -249 782 -277 1404 -159 l403 76 130 -504 c87 -341 97 -561 31 -680 -60 -106 -63 -266 -9 -408 76 -199 49 -248 -185 -338 -403 -155 -941 -37 -1178 258 -135 168 -303 253 -500 253 -388 0 -964 167 -1049 305 -140 227 208 1555 383 1464 39 -20 295 -140 570 -267z m-26550 102 c0 -54 -90 -145 -200 -204 -220 -118 -269 -9 -80 180 145 145 280 156 280 24z m-15623 -329 c553 -314 613 -325 1701 -325 1236 0 1316 -36 1323 -600 2 -165 91 -412 199 -550 278 -356 246 -557 -113 -705 -310 -129 -1458 -150 -2037 -37 -541 105 -1396 453 -1614 656 -117 110 -275 190 -350 177 -75 -12 -203 1 -286 30 -82 28 -285 93 -450 143 -165 50 -300 149 -300 221 0 71 248 295 550 497 349 234 562 450 582 593 42 295 114 286 795 -100z m2977 132 c-80 -130 -1537 -227 -1730 -114 -137 79 -78 103 276 111 549 12 1228 91 1286 148 70 70 221 -60 168 -145z m20582 -27 c144 -229 101 -254 -527 -295 -659 -43 -774 125 -238 349 449 188 620 175 765 -54z m-9891 -187 c430 -273 467 -324 334 -457 -134 -134 -188 -128 -490 56 -186 114 -406 208 -489 209 -82 1 -215 43 -294 93 -119 75 -121 118 -12 248 190 230 407 196 951 -149z m3192 0 c461 -363 289 -793 -318 -793 -283 0 -329 29 -272 175 112 289 109 348 -22 396 -69 25 -125 -20 -125 -101 0 -81 -108 -217 -239 -304 -219 -143 -252 -142 -400 22 -225 248 -203 364 114 600 361 270 922 272 1262 5z m2206 92 c271 -123 432 -450 291 -591 -47 -47 -456 -116 -910 -154 -689 -58 -824 -45 -824 78 0 272 666 754 1070 776 66 3 234 -46 373 -109z m2863 -43 c109 -130 107 -173 -12 -248 -79 -50 -240 -92 -356 -92 -117 -1 -354 -30 -525 -64 -240 -48 -313 -28 -313 87 0 386 943 634 1206 317z m-1629 -160 c-58 -174 -355 -337 -447 -245 -44 44 8 143 114 221 236 173 387 184 333 24z m5623 -32 c107 -129 72 -150 -250 -150 -322 0 -357 21 -250 150 68 82 181 150 250 150 69 0 182 -68 250 -150z m3000 -58 c0 -121 -493 -433 -567 -359 -112 113 261 563 417 503 83 -32 150 -97 150 -144z m-38750 -329 c0 -236 -61 -307 -350 -409 -781 -275 -1000 -333 -1000 -265 0 158 256 311 520 311 329 0 359 103 80 277 -290 181 -246 304 125 352 551 70 625 38 625 -266z m24818 -37 c65 -206 109 -382 100 -391 -10 -9 -232 -48 -493 -87 -331 -49 -475 -36 -475 43 0 109 593 788 701 802 27 4 103 -161 167 -367z m25886 267 c92 -149 -15 -230 -206 -156 -88 34 -133 107 -98 162 81 131 221 129 304 -6z m-52800 -701 c-139 -298 -252 -667 -253 -820 -1 -317 -231 -455 -452 -271 -254 211 -182 688 151 999 165 154 300 371 300 483 0 201 279 342 428 217 43 -37 -35 -310 -174 -608z m-954 533 c-1 -278 -300 -1565 -384 -1649 -56 -56 -175 -75 -263 -41 -144 55 -145 90 -8 355 83 161 181 544 217 851 53 455 100 559 252 559 102 0 186 -34 186 -75z m1800 -170 c0 -74 -65 -159 -144 -189 -133 -51 -261 -395 -403 -1091 -81 -394 -253 -340 -253 79 0 321 271 1005 523 1320 116 144 277 74 277 -119z m34512 -105 c35 -165 70 -511 76 -768 10 -404 -19 -478 -213 -536 -513 -153 -1045 -479 -1229 -753 -108 -161 -277 -293 -376 -293 -349 0 -753 -300 -1256 -933 -496 -622 -512 -665 -627 -1595 -104 -846 -98 -997 50 -1310 93 -194 237 -422 322 -507 277 -276 53 -355 -1008 -355 -902 0 -1044 23 -1088 175 -28 96 -76 1097 -108 2225 -32 1128 -84 2548 -115 3156 -44 856 -27 1129 76 1211 74 59 782 163 1575 231 792 69 1647 179 1900 245 252 66 796 117 1208 114 l749 -7 64 -300z m2488 138 c413 -55 1110 -125 1550 -155 440 -31 816 -70 835 -87 118 -108 -1218 -1746 -1424 -1746 -54 0 -202 -98 -329 -217 -283 -265 -413 -222 -1484 492 -304 203 -611 325 -818 325 -181 0 -334 34 -338 75 -4 41 -28 405 -54 808 l-45 734 678 -65 c374 -35 1017 -110 1429 -164z m3742 -163 c-109 -607 -320 -1029 -667 -1335 -362 -320 -369 -322 -564 -199 -191 121 -81 489 260 870 154 170 421 474 595 675 175 200 345 364 380 364 35 0 33 -169 -4 -375z m-43655 99 c52 -97 78 -288 58 -425 -20 -137 -62 -451 -93 -699 -52 -409 -82 -450 -329 -452 -150 -2 -338 60 -417 137 -126 121 -124 155 18 258 369 270 335 991 -54 1120 -218 72 -218 73 30 145 433 125 690 98 787 -84z m506 -255 c-4 -175 -45 -409 -91 -519 -59 -140 -84 -27 -83 375 1 315 42 549 91 519 50 -31 87 -199 83 -375z m1107 243 c0 -103 -75 -249 -167 -325 -151 -123 -161 -111 -102 113 37 138 67 284 68 325 3 171 201 60 201 -113z m25773 -71 c68 -68 180 -143 250 -168 244 -87 -28 -207 -573 -252 -536 -45 -550 -39 -550 212 0 424 530 550 873 208z m15350 -303 c-157 -159 -336 -378 -397 -487 -61 -110 -138 -173 -170 -140 -33 32 133 319 367 636 258 348 439 517 457 427 16 -82 -99 -278 -257 -436z m-44013 112 c40 -165 90 -581 113 -925 35 -545 17 -625 -136 -625 -96 0 -203 -45 -237 -99 -33 -55 -160 -153 -281 -217 -198 -106 -206 -101 -82 50 93 112 106 206 39 291 -54 69 -125 359 -157 646 -32 286 -136 638 -231 783 -218 334 -67 460 506 422 347 -23 403 -62 466 -326z m-3660 -207 c-354 -285 -500 -266 -500 64 0 188 66 254 300 299 456 89 549 -81 200 -363z m2239 172 c220 -309 405 -977 409 -1479 2 -257 -46 -326 -260 -380 -309 -78 -276 -104 -477 381 -215 518 -203 635 36 349 263 -316 255 -102 -16 405 -120 225 -285 409 -367 409 -160 0 -514 282 -514 409 0 69 239 120 818 175 93 9 260 -112 371 -269z m62311 -168 c0 -270 -209 -415 -416 -287 -68 42 -262 80 -429 84 -238 5 -312 56 -337 231 -30 212 3 225 575 225 583 0 607 -10 607 -253z m-60300 -197 c0 -131 -45 -266 -100 -300 -60 -37 -100 84 -100 300 0 216 40 337 100 300 55 -34 100 -169 100 -300z m32082 222 c55 -67 125 -684 155 -1372 152 -3507 185 -5174 103 -5220 -50 -28 -427 -23 -840 10 l-750 60 -6 750 c-8 973 -255 1699 -768 2252 -479 518 -857 694 -1328 617 -315 -51 -348 -34 -348 178 0 278 -446 684 -950 867 -349 126 -350 128 -350 749 l0 623 525 102 c289 56 930 130 1425 165 832 58 1842 206 1916 280 96 96 1129 43 1216 -61z m-26927 -79 c157 -255 -884 -993 -1401 -993 -178 0 -254 54 -254 181 0 317 256 546 810 725 662 213 760 223 845 87z m43425 -500 c1040 -141 1070 -166 1173 -951 64 -488 61 -493 -305 -688 -203 -108 -512 -363 -686 -567 -225 -263 -430 -390 -714 -442 -565 -102 -885 -286 -1236 -712 -420 -510 -577 -1245 -427 -1995 63 -314 115 -609 115 -655 0 -46 -313 -83 -696 -83 -563 0 -714 34 -787 175 -49 96 -85 1141 -78 2321 l11 2146 372 88 c297 71 433 188 675 581 167 270 303 550 303 621 0 351 578 392 2280 161z m-22137 -91 c233 -88 257 -149 257 -642 0 -525 -11 -548 -325 -653 -179 -60 -544 -311 -812 -558 -360 -332 -568 -449 -800 -450 -619 -1 -1031 -190 -1402 -643 -199 -242 -361 -474 -361 -515 0 -41 -73 -155 -161 -253 -208 -230 -303 -1359 -152 -1795 63 -179 88 -351 57 -382 -31 -31 -613 -72 -1294 -91 l-1237 -35 -170 328 c-149 288 -163 583 -119 2393 31 1257 12 2133 -47 2239 -58 103 -61 211 -8 264 49 49 617 133 1262 185 644 53 1206 117 1248 143 42 26 387 59 766 73 378 13 1005 109 1392 213 386 104 795 169 908 145 158 -33 561 34 723 122 11 6 134 -34 275 -88z m16312 -402 c7 -511 95 -592 728 -667 284 -33 517 -96 517 -138 0 -43 -287 -340 -637 -661 -824 -755 -2024 -1417 -3463 -1913 -632 -217 -1317 -465 -1521 -551 -449 -189 -2355 -241 -2876 -79 -275 85 -376 78 -489 -34 -122 -122 -85 -157 275 -254 228 -62 606 -108 838 -103 233 4 745 5 1138 1 663 -6 1140 113 1985 495 110 50 545 198 966 330 718 224 779 229 984 74 177 -133 219 -265 216 -677 -3 -281 -75 -646 -160 -812 -191 -369 -193 -411 -16 -411 184 0 356 504 427 1255 46 481 25 639 -104 768 -219 219 -210 248 132 424 387 200 372 206 502 -189 193 -585 148 -1511 -92 -1900 -231 -374 -104 -626 148 -293 301 397 459 1208 365 1863 -50 342 -121 693 -159 781 -49 113 45 233 329 421 219 145 688 535 1042 867 355 331 676 603 712 603 37 0 60 -236 52 -525 -8 -289 -8 -1351 1 -2361 9 -1010 0 -1852 -19 -1871 -37 -38 -2183 -53 -6401 -47 -2281 3 -2675 26 -2675 150 0 81 -92 196 -205 257 -402 215 -594 693 -595 1475 0 756 149 1272 436 1510 148 123 163 112 140 -100 -25 -230 -1 -239 746 -267 1173 -44 1959 139 3928 918 165 66 497 230 738 365 241 135 553 309 693 385 182 99 1369 1230 1369 1304 0 4 2 -173 5 -393z m8227 199 c257 0 626 -43 818 -94 192 -52 935 -167 1650 -256 715 -88 1367 -180 1450 -205 83 -24 234 -220 336 -435 165 -345 186 -645 182 -2624 l-4 -2235 -682 0 -682 0 -56 800 c-41 591 -125 934 -321 1313 -393 763 -1192 1337 -1859 1337 -222 0 -298 66 -400 350 -142 392 -636 815 -1014 866 -219 30 -257 96 -308 534 -32 275 -71 545 -87 600 -59 206 2 242 252 148 141 -54 467 -98 725 -99z m-45906 -24 c-51 -156 -725 -535 -1126 -634 -271 -67 -287 -58 -163 92 75 91 312 219 526 283 214 64 439 177 500 250 141 169 317 175 263 9z m33124 -467 c0 -131 -111 -229 -344 -306 -189 -62 -533 -297 -765 -522 -369 -359 -446 -394 -617 -287 -166 104 -252 83 -555 -132 -454 -323 -541 -250 -168 140 218 228 376 299 660 299 287 0 424 63 586 269 226 287 871 723 1078 728 69 2 125 -84 125 -189z m1178 -44 c206 -130 436 -310 511 -400 74 -90 217 -164 317 -164 273 0 327 -175 93 -301 -174 -93 -282 -55 -678 233 -259 188 -572 374 -696 412 -254 78 -314 456 -73 456 84 0 320 -106 526 -236z m-36953 37 c151 -1 275 -53 275 -116 0 -63 -232 -480 -515 -925 -615 -968 -569 -909 -653 -825 -38 38 -15 122 50 187 247 247 105 303 -157 62 -205 -190 -338 -238 -525 -189 -269 69 -348 353 -100 358 201 3 400 135 400 264 0 62 -70 73 -175 27 -96 -43 -291 -85 -433 -94 -141 -9 -303 -45 -358 -79 -131 -81 -2056 129 -2175 238 -120 109 117 391 330 391 90 0 332 90 537 200 205 110 476 200 601 200 126 0 317 59 426 131 109 73 430 125 718 117 286 -8 579 24 650 72 71 48 287 64 479 35 193 -29 474 -53 625 -54z m2817 -126 c25 -124 72 -524 103 -889 72 -825 -59 -915 -626 -429 -220 189 -498 343 -616 343 -183 0 -211 49 -184 323 27 282 102 359 581 594 679 334 686 334 742 58z m-1742 37 c0 -48 -64 -141 -143 -206 -114 -95 -165 -78 -254 88 -98 183 -82 206 143 206 140 0 254 -39 254 -88z m15932 -248 c126 -192 161 -679 190 -2604 l35 -2367 -996 29 -996 28 -117 521 c-165 733 -708 1372 -1361 1602 -386 135 -534 248 -632 482 -152 362 -549 645 -904 645 -281 0 -410 222 -467 806 l-34 337 950 116 c1203 147 2944 420 3400 534 585 145 769 120 932 -129z m37768 -100 c578 -92 1320 -217 1650 -279 330 -62 825 -155 1100 -207 275 -51 793 -130 1150 -174 779 -97 1110 -173 1209 -277 41 -42 105 -285 142 -539 65 -441 53 -471 -267 -690 -184 -126 -387 -294 -452 -373 -75 -92 -354 -155 -769 -173 -476 -21 -739 -90 -982 -255 -498 -339 -1074 -995 -1292 -1472 l-194 -425 -1294 0 c-1185 0 -1303 17 -1399 197 -69 129 -90 935 -59 2325 39 1806 23 2164 -109 2365 -178 274 -316 276 1566 -23z m-18461 -100 c186 -7 761 -504 761 -658 0 -82 -1146 -516 -1850 -700 -479 -126 -1917 -141 -1991 -21 -28 46 77 207 234 358 279 268 292 270 603 109 334 -173 604 -82 604 202 0 157 672 703 950 772 110 28 268 27 350 -2 83 -29 235 -56 339 -60z m-35639 -155 c0 -39 -117 -225 -261 -415 -143 -189 -324 -490 -401 -669 -149 -344 -309 -418 -398 -184 -82 213 739 1461 916 1393 79 -30 144 -87 144 -125z m455 -384 c-36 -206 -70 -499 -75 -650 -7 -217 -57 -275 -236 -275 -125 0 -299 -27 -386 -61 -291 -111 -177 407 197 897 436 571 591 598 500 89z m10045 19 c0 -89 48 -126 111 -87 155 95 286 -146 287 -529 2 -256 -58 -354 -290 -474 -161 -83 -389 -287 -507 -452 -171 -241 -288 -302 -576 -302 -1004 0 -2117 -697 -2583 -1616 -133 -263 -242 -546 -242 -631 0 -128 -177 -153 -1089 -153 -931 0 -1099 25 -1154 169 -36 93 -59 779 -51 1525 9 746 -16 1475 -54 1621 -65 249 -43 269 365 341 238 42 558 68 710 58 152 -9 557 46 900 123 718 161 1894 342 2973 457 1156 123 1200 122 1200 -50z m14110 -51 c159 -114 290 -288 290 -388 0 -202 262 -314 827 -351 313 -21 461 -116 862 -552 398 -433 513 -647 648 -1204 197 -819 208 -1339 31 -1516 -105 -105 -852 -130 -3612 -124 l-3480 9 -122 291 c-67 161 -147 570 -178 909 -49 548 -27 660 202 1000 548 817 1166 1176 1839 1069 340 -55 402 -35 447 137 113 431 1141 532 1561 154 190 -172 235 -427 75 -427 -161 0 -115 -273 58 -339 87 -34 338 -61 557 -61 219 0 614 -93 878 -207 448 -192 499 -253 763 -907 246 -612 268 -750 177 -1093 -85 -319 -79 -393 33 -393 327 0 420 794 176 1496 -323 926 -525 1107 -1577 1413 -344 100 -526 218 -624 408 -76 147 -281 369 -455 493 -288 205 -300 233 -127 301 310 122 444 101 751 -118z m22968 -49 c264 -185 522 -650 522 -940 0 -183 43 -199 385 -145 627 101 1262 -341 1793 -1247 281 -481 403 -1544 203 -1785 -114 -137 -667 -171 -831 -50 -55 40 -100 373 -100 741 0 521 -46 729 -210 950 -295 397 -1081 861 -1571 926 -394 53 -419 77 -480 454 -49 297 -170 492 -480 766 -266 236 -368 386 -287 419 270 108 843 60 1056 -89z m-46330 -442 c143 -158 151 -206 41 -240 -77 -24 -216 -68 -311 -98 -221 -71 -276 29 -169 311 104 277 207 283 439 27z m59102 98 c220 -53 895 -144 1500 -202 2363 -228 2832 -329 3084 -664 148 -198 194 -500 240 -1589 l56 -1345 -1111 0 -1111 0 -102 375 c-139 515 -324 752 -871 1114 -335 222 -588 311 -881 311 -379 0 -420 26 -508 325 -72 244 -202 374 -521 522 -362 169 -425 243 -426 500 -1 167 -29 404 -62 528 -69 258 59 281 713 125z m-13717 -245 c176 -134 175 -144 -28 -252 -273 -147 -165 -322 151 -243 256 65 255 68 282 -552 16 -396 104 -456 451 -312 372 153 638 73 1227 -372 564 -425 793 -1019 586 -1520 l-124 -298 -2564 -28 c-2935 -32 -2794 -73 -3002 858 -180 802 -21 1447 459 1869 461 405 786 520 1249 442 313 -53 391 -32 445 119 161 450 505 564 868 289z m-42656 -330 c56 -151 108 -933 115 -1736 l14 -1462 -1261 -71 -1261 -72 -376 407 c-228 248 -503 433 -700 472 -217 44 -397 176 -541 399 -120 184 -380 400 -579 480 -379 153 -488 313 -488 716 0 221 -78 283 -273 217 -74 -25 -65 -222 28 -652 38 -173 -9 -248 -199 -321 -136 -51 -368 -276 -515 -498 -156 -235 -347 -404 -456 -404 -189 0 -913 -413 -1165 -666 -144 -144 -1553 -175 -2020 -44 -244 68 -250 93 -250 1008 0 925 119 1295 366 1142 92 -57 1334 137 2366 369 238 54 710 121 1050 149 340 29 776 92 968 139 193 48 643 116 1000 151 358 35 1258 149 2000 254 743 104 1485 207 1650 229 165 21 328 46 363 54 34 8 108 -109 164 -260z m63373 -416 c715 -109 1840 -277 2500 -373 660 -96 1233 -222 1273 -280 41 -59 75 -253 75 -432 2 -399 -479 -878 -976 -972 -422 -80 -998 -421 -1131 -668 -96 -180 -213 -193 -1695 -176 -1002 11 -1644 59 -1732 130 -103 82 -157 504 -203 1592 l-62 1479 325 -51 c179 -28 911 -140 1626 -249z m-55433 -74 c101 -92 183 -273 183 -404 0 -130 56 -253 125 -273 69 -19 322 -89 562 -154 260 -71 601 -277 843 -510 361 -347 408 -445 414 -868 5 -411 -21 -476 -194 -476 -143 0 -235 109 -326 386 -245 749 -826 1264 -1426 1264 -183 0 -298 189 -298 493 0 97 -90 280 -200 407 -110 127 -200 246 -200 265 0 103 360 12 517 -130z m-17417 -135 c0 -55 -45 -100 -100 -100 -55 0 -100 45 -100 100 0 55 45 100 100 100 55 0 100 -45 100 -100z m16877 -270 c73 -99 119 -337 103 -529 -29 -337 -16 -351 370 -410 600 -92 904 -245 1138 -574 251 -353 274 -672 54 -756 -87 -34 -1460 -61 -3050 -61 -3224 0 -3069 -40 -2695 694 408 800 1561 1398 2415 1254 357 -60 394 -44 493 215 177 467 265 523 670 431 203 -46 429 -164 502 -264z m48798 -189 c124 -139 225 -359 225 -489 0 -226 24 -235 525 -185 471 47 568 21 948 -257 364 -265 727 -826 727 -1122 0 -48 -214 -87 -475 -86 -435 2 -488 30 -634 325 -125 254 -296 377 -800 573 -813 318 -891 370 -891 603 0 104 -156 346 -347 537 -288 289 -318 354 -175 394 305 83 666 -35 897 -293z m-1840 -662 c40 -154 102 -181 283 -126 314 97 329 120 191 286 -179 215 9 266 358 97 243 -117 323 -233 371 -535 34 -212 35 -456 1 -543 -67 -176 206 -227 311 -58 90 146 434 123 915 -61 383 -146 616 -391 491 -516 -61 -62 -5261 -32 -5362 31 -222 137 553 1301 1043 1567 578 314 1297 241 1398 -142z m-58898 -286 c155 -122 263 -307 263 -450 0 -209 47 -243 337 -243 326 0 863 -316 863 -507 0 -143 -587 -110 -885 49 -146 78 -344 167 -440 197 -107 34 -175 155 -175 313 0 146 -108 357 -250 489 -137 128 -250 261 -250 295 0 132 283 56 537 -143z m-498 -481 c94 -103 179 -317 191 -475 l20 -287 -1175 -28 c-646 -16 -1175 10 -1175 56 0 136 680 422 1003 422 177 0 297 53 297 130 0 372 557 493 839 182z"/>
<path d="M17466 21833 c-36 -37 9 -150 101 -252 129 -142 141 -213 51 -303 -159 -159 -149 -278 25 -278 78 0 239 123 357 273 l215 273 -219 177 c-228 185 -416 224 -530 110z"/>
<path d="M64755 21809 c-32 -53 -15 -122 37 -154 52 -32 69 -215 38 -407 -64 -397 36 -438 351 -144 265 246 271 320 44 515 -278 239 -407 291 -470 190z"/>
<path d="M74667 21733 c-118 -118 -72 -208 133 -262 124 -32 200 -136 200 -274 0 -186 24 -201 150 -97 209 173 187 473 -43 596 -225 121 -347 131 -440 37z"/>
<path d="M30000 21062 c0 -21 90 -62 200 -91 110 -29 175 -12 144 38 -54 87 -344 132 -344 53z"/>
<path d="M29346 20093 c-36 -58 -45 -127 -20 -152 69 -70 374 68 374 170 0 125 -274 111 -354 -18z"/>
<path d="M29625 19534 c-232 -94 -127 -234 175 -234 200 0 300 50 300 150 0 146 -223 185 -475 84z"/>
<path d="M30354 18607 c-31 -51 -12 -121 44 -156 120 -74 302 20 302 155 0 122 -271 122 -346 1z"/>
<path d="M29200 18500 c0 -55 132 -100 294 -100 162 0 322 45 356 100 37 60 -82 100 -294 100 -196 0 -356 -45 -356 -100z"/>
<path d="M29203 17803 c-220 -138 -126 -169 712 -237 590 -48 777 -31 816 72 39 101 -75 133 -466 133 -285 0 -607 28 -716 62 -110 35 -265 21 -346 -30z"/>
<path d="M28824 16932 c-241 -94 -9 -232 390 -232 274 0 390 39 362 123 -42 126 -527 196 -752 109z"/>
<path d="M30325 16928 c-460 -57 -404 -228 75 -228 289 0 400 42 400 150 0 83 -34 143 -75 134 -41 -9 -221 -34 -400 -56z"/>
<path d="M29475 16124 c-277 -61 -203 -224 100 -222 239 1 662 170 525 209 -139 40 -470 46 -625 13z"/>
<path d="M30650 16100 c-34 -55 28 -100 138 -100 110 0 228 45 262 100 34 55 -28 100 -138 100 -110 0 -228 -45 -262 -100z"/>
<path d="M28100 15856 c0 -236 175 -274 497 -108 167 87 303 178 303 205 0 26 -180 47 -400 47 -282 0 -400 -43 -400 -144z"/>
<path d="M45700 20900 c0 -55 65 -100 144 -100 228 0 303 -218 121 -351 -91 -67 -165 -150 -165 -185 0 -131 197 -57 466 175 239 205 259 260 144 400 -146 175 -710 224 -710 61z"/>
<path d="M48550 20600 c175 -193 175 -207 0 -400 -176 -194 -175 -200 32 -200 120 0 289 115 385 262 164 250 163 269 -17 400 -103 76 -277 138 -385 138 -190 0 -190 -6 -15 -200z"/>
<path d="M68300 19815 c0 -54 56 -121 125 -149 85 -35 48 -114 -114 -244 -157 -127 -200 -217 -125 -263 139 -86 644 401 589 569 -49 148 -475 226 -475 87z"/>
<path d="M34600 19662 c0 -83 -78 -196 -174 -250 -259 -145 -81 -247 243 -139 317 106 390 453 106 508 -105 20 -175 -27 -175 -119z"/>
<path d="M38950 18399 c-35 -55 11 -129 102 -163 100 -39 145 -136 115 -250 -60 -231 158 -247 343 -25 114 139 100 189 -99 350 -263 213 -371 234 -461 88z"/>
<path d="M67138 18152 c247 -187 139 -452 -185 -452 -287 0 -344 -165 -78 -224 262 -57 587 116 734 392 111 206 109 259 -14 337 -80 51 -257 91 -395 90 -237 -1 -241 -9 -62 -143z"/>
<path d="M23000 18011 c0 -49 69 -116 154 -149 122 -46 132 -102 47 -261 -84 -156 -77 -201 29 -201 171 0 417 444 326 590 -81 131 -556 149 -556 21z"/>
<path d="M11054 17307 c-31 -51 -9 -123 50 -160 152 -94 616 39 544 156 -76 124 -518 127 -594 4z"/>
<path d="M12458 16513 c-61 -98 625 -235 759 -152 48 29 60 95 29 146 -73 118 -716 122 -788 6z"/>
<path d="M11050 16299 c-79 -126 200 -240 400 -163 83 32 150 104 150 161 0 133 -469 135 -550 2z"/>
<path d="M11800 15643 c0 -111 78 -147 267 -125 390 46 424 282 41 282 -213 0 -308 -48 -308 -157z"/>
<path d="M12950 15399 c-35 -55 3 -126 84 -157 238 -91 797 -3 842 133 50 154 -832 177 -926 24z"/>
<path d="M75400 17012 c0 -111 489 -211 550 -113 24 40 16 102 -19 137 -97 97 -531 77 -531 -24z"/>
<path d="M73700 16900 c0 -55 113 -100 250 -100 138 0 250 45 250 100 0 55 -112 100 -250 100 -137 0 -250 -45 -250 -100z"/>
<path d="M74158 16413 c-50 -81 849 -237 927 -161 19 19 5 83 -31 141 -79 128 -819 144 -896 20z"/>
<path d="M22400 16170 c0 -71 51 -181 113 -243 85 -85 32 -164 -208 -309 -374 -228 -294 -326 164 -202 394 107 519 421 275 691 -202 223 -344 249 -344 63z"/>
<path d="M31343 14189 c-63 -102 112 -284 276 -287 148 -4 199 225 69 308 -184 116 -263 112 -345 -21z"/>
<path d="M26330 13643 c-159 -121 -112 -137 403 -140 424 -2 572 31 542 122 -57 172 -724 185 -945 18z"/>
<path d="M28650 13700 c-37 -59 80 -100 288 -100 193 0 378 45 412 100 37 59 -80 100 -288 100 -193 0 -378 -45 -412 -100z"/>
<path d="M14794 13543 c-115 -139 -86 -154 255 -125 212 18 404 88 427 157 61 185 -524 158 -682 -32z"/>
<path d="M30000 13600 c0 -55 135 -100 300 -100 165 0 330 -11 367 -25 36 -14 85 31 108 100 29 86 -84 125 -367 125 -224 0 -408 -45 -408 -100z"/>
<path d="M13073 13540 c-169 -169 -44 -240 421 -240 272 0 522 45 556 100 34 55 25 102 -19 105 -45 3 -262 28 -483 57 -221 28 -434 18 -475 -22z"/>
<path d="M11650 13421 c-515 -62 -530 -221 -20 -221 259 0 470 42 470 94 0 137 -111 168 -450 127z"/>
<path d="M27200 13200 c0 -55 41 -100 92 -100 50 0 153 -23 228 -52 75 -29 224 15 333 97 185 139 170 149 -228 152 -234 2 -425 -42 -425 -97z"/>
<path d="M28625 13034 c-193 -78 -148 -234 67 -234 261 0 508 102 508 211 0 94 -363 108 -575 23z"/>
<path d="M30346 12993 c-36 -58 -48 -124 -27 -146 69 -68 481 72 481 165 0 125 -375 110 -454 -19z"/>
<path d="M14775 12931 c-96 -25 -175 -90 -175 -145 0 -142 627 -60 676 89 40 124 -156 146 -501 56z"/>
<path d="M15875 12931 c-96 -25 -175 -90 -175 -144 0 -143 727 -61 776 88 41 125 -238 151 -601 56z"/>
<path d="M13164 12831 c-157 -157 -35 -241 311 -212 206 17 353 73 325 125 -60 112 -544 178 -636 87z"/>
<path d="M24052 12703 c-72 -117 392 -250 544 -156 59 37 81 109 50 160 -76 123 -518 120 -594 -4z"/>
<path d="M11453 12605 c-36 -59 1 -132 83 -164 212 -81 614 -10 614 109 0 138 -616 186 -697 55z"/>
<path d="M26150 12499 c-111 -179 259 -233 429 -63 152 152 144 164 -102 164 -146 0 -293 -45 -327 -101z"/>
<path d="M16425 12234 c-232 -94 -127 -234 175 -234 200 0 300 50 300 150 0 146 -223 185 -475 84z"/>
<path d="M17670 12237 c-140 -141 -64 -237 188 -237 163 0 243 47 217 125 -48 145 -302 215 -405 112z"/>
<path d="M14600 12106 c0 -157 198 -228 456 -164 363 92 295 258 -106 258 -193 0 -350 -42 -350 -94z"/>
<path d="M13300 12026 c-607 -70 -607 -241 0 -207 303 17 539 76 525 131 -30 121 -77 128 -525 76z"/>
<path d="M18825 11799 c-341 -140 -272 -199 233 -199 322 0 446 37 418 125 -53 159 -360 193 -651 74z"/>
<path d="M11321 11724 c-66 -22 -121 -82 -121 -132 0 -118 570 -121 643 -3 60 97 -330 199 -522 135z"/>
<path d="M17469 11736 c-35 -35 -42 -98 -16 -141 61 -99 447 1 447 117 0 101 -335 120 -431 24z"/>
<path d="M16350 11629 c-362 -87 -405 -229 -70 -229 218 0 320 48 320 150 0 83 -11 145 -25 138 -14 -6 -115 -33 -225 -59z"/>
<path d="M14653 11405 c-36 -59 2 -132 85 -164 203 -78 512 -11 512 110 0 138 -516 184 -597 54z"/>
<path d="M13325 11129 c-124 -23 -225 -88 -225 -142 0 -143 627 -61 676 88 41 126 -35 135 -451 54z"/>
<path d="M11527 10875 c48 -140 664 -115 818 33 58 56 -90 92 -383 92 -339 0 -466 -36 -435 -125z"/>
<path d="M3969 12839 c133 -389 136 -475 19 -548 -98 -63 -58 -88 141 -89 233 -2 263 26 188 173 -50 96 -121 344 -158 550 -40 222 -125 375 -207 375 -117 0 -114 -75 17 -461z"/>
<path d="M46164 7931 c-113 -113 -69 -231 86 -231 83 0 150 42 150 94 0 126 -156 217 -236 137z"/>
<path d="M44848 7751 c-188 -147 -181 -153 152 -128 193 15 347 72 343 127 -12 165 -284 166 -495 1z"/>
<path d="M43200 7300 c0 -55 90 -100 200 -100 110 0 200 45 200 100 0 55 -90 100 -200 100 -110 0 -200 -45 -200 -100z"/>
<path d="M45300 7211 c0 -127 272 -216 449 -147 83 31 125 97 95 146 -72 117 -544 117 -544 1z"/>
<path d="M42100 7000 c0 -55 68 -100 150 -100 83 0 150 45 150 100 0 55 -67 100 -150 100 -82 0 -150 -45 -150 -100z"/>
<path d="M40769 6936 c-35 -35 -39 -103 -9 -152 64 -103 240 -14 240 122 0 107 -136 125 -231 30z"/>
<path d="M44000 6800 c0 -55 87 -100 194 -100 107 0 222 45 256 100 35 57 -49 100 -194 100 -141 0 -256 -45 -256 -100z"/>
<path d="M6918 11008 c-59 -170 -173 -308 -252 -308 -143 0 -269 -207 -263 -433 2 -64 71 -27 154 83 84 110 204 200 268 200 193 0 442 523 311 654 -82 82 -140 29 -218 -196z"/>
<path d="M43344 10790 c-81 -131 250 -236 369 -117 67 67 31 118 -106 154 -114 30 -232 13 -263 -37z"/>
<path d="M42800 10300 c0 -55 42 -100 94 -100 52 0 122 45 156 100 34 55 -8 100 -94 100 -86 0 -156 -45 -156 -100z"/>
<path d="M31250 9800 c-34 -55 8 -100 94 -100 86 0 156 45 156 100 0 55 -42 100 -94 100 -52 0 -122 -45 -156 -100z"/>
<path d="M30450 9200 c-36 -58 66 -100 244 -100 168 0 306 45 306 100 0 55 -110 100 -244 100 -134 0 -272 -45 -306 -100z"/>
<path d="M28950 9000 c-36 -58 66 -100 244 -100 168 0 306 45 306 100 0 55 -110 100 -244 100 -134 0 -272 -45 -306 -100z"/>
<path d="M31575 9032 c-305 -81 -189 -246 150 -213 179 17 322 76 318 131 -8 115 -213 150 -468 82z"/>
<path d="M29275 8530 c-282 -72 -201 -246 100 -212 151 18 264 77 250 132 -30 120 -117 140 -350 80z"/>
<path d="M32950 8454 c-187 -145 -164 -153 350 -130 609 29 750 209 200 255 -205 18 -433 -35 -550 -125z"/>
<path d="M30454 8307 c-31 -51 -11 -122 45 -157 143 -88 517 44 447 157 -75 120 -417 120 -492 0z"/>
<path d="M31400 7900 c0 -55 113 -100 250 -100 138 0 250 45 250 100 0 55 -112 100 -250 100 -137 0 -250 -45 -250 -100z"/>
<path d="M33015 7722 c-254 -85 -92 -222 260 -220 414 1 712 132 542 238 -105 64 -587 53 -802 -18z"/>
<path d="M28600 7600 c0 -55 135 -100 300 -100 165 0 300 45 300 100 0 55 -135 100 -300 100 -165 0 -300 -45 -300 -100z"/>
<path d="M30375 7631 c-96 -25 -175 -90 -175 -145 0 -142 526 -61 576 89 41 125 -74 141 -401 56z"/>
<path d="M29250 7000 c-38 -61 114 -100 388 -100 248 0 478 45 512 100 38 61 -114 100 -388 100 -248 0 -478 -45 -512 -100z"/>
<path d="M31369 7036 c-35 -35 -43 -97 -19 -137 61 -98 550 2 550 113 0 101 -434 121 -531 24z"/>
<path d="M32800 7000 c0 -55 45 -100 100 -100 55 0 100 45 100 100 0 55 -45 100 -100 100 -55 0 -100 -45 -100 -100z"/>
<path d="M53700 8900 c0 -55 90 -100 200 -100 110 0 200 45 200 100 0 55 -90 100 -200 100 -110 0 -200 -45 -200 -100z"/>
<path d="M52400 8700 c0 -55 90 -100 200 -100 110 0 200 45 200 100 0 55 -90 100 -200 100 -110 0 -200 -45 -200 -100z"/>
<path d="M54446 8493 c-92 -149 15 -230 206 -156 88 34 133 107 98 162 -81 131 -221 129 -304 -6z"/>
<path d="M53700 8300 c0 -55 67 -100 150 -100 83 0 150 45 150 100 0 55 -67 100 -150 100 -83 0 -150 -45 -150 -100z"/>
<path d="M52669 8136 c-93 -93 20 -236 187 -236 79 0 144 68 144 150 0 151 -211 206 -331 86z"/>
<path d="M56000 7900 c0 -55 64 -100 142 -100 78 0 213 -27 300 -61 104 -40 158 -5 158 100 0 112 -91 161 -300 161 -165 0 -300 -45 -300 -100z"/>
<path d="M55250 7700 c-34 -55 8 -100 94 -100 86 0 156 45 156 100 0 55 -42 100 -94 100 -52 0 -122 -45 -156 -100z"/>
<path d="M53800 7600 c0 -55 67 -100 150 -100 83 0 150 45 150 100 0 55 -67 100 -150 100 -83 0 -150 -45 -150 -100z"/>
<path d="M52467 7033 c-135 -134 -59 -183 283 -183 369 0 457 87 192 189 -207 80 -392 77 -475 -6z"/>
<path d="M56400 6800 c0 -55 67 -100 150 -100 83 0 150 45 150 100 0 55 -67 100 -150 100 -83 0 -150 -45 -150 -100z"/>
<path d="M54350 6700 c-34 -55 8 -100 94 -100 86 0 156 45 156 100 0 55 -42 100 -94 100 -52 0 -122 -45 -156 -100z"/>
<path d="M18650 8300 c-36 -58 66 -100 244 -100 168 0 306 45 306 100 0 55 -110 100 -244 100 -134 0 -272 -45 -306 -100z"/>
<path d="M17124 7835 c-211 -88 -30 -235 290 -235 197 0 288 43 262 125 -45 135 -348 196 -552 110z"/>
<path d="M18874 7840 c-119 -118 28 -240 290 -240 157 0 237 47 212 125 -47 140 -397 221 -502 115z"/>
<path d="M18032 7223 c-119 -19 -271 -100 -337 -179 -101 -122 -48 -144 343 -144 328 0 462 40 462 139 0 166 -169 233 -468 184z"/>
<path d="M19575 7228 c-744 -61 -571 -241 200 -208 371 17 675 75 675 130 0 115 -206 133 -875 78z"/>
<path d="M16154 7007 c-31 -51 -19 -117 27 -145 118 -73 519 43 519 150 0 117 -473 113 -546 -5z"/>
<path d="M20770 6737 c-141 -141 -64 -250 155 -219 124 18 222 77 218 132 -9 122 -276 184 -373 87z"/>
<path d="M65200 7600 c0 -55 113 -100 250 -100 138 0 250 45 250 100 0 55 -112 100 -250 100 -137 0 -250 -45 -250 -100z"/>
<path d="M66000 7200 c0 -55 110 -100 244 -100 134 0 272 45 306 100 36 58 -66 100 -244 100 -168 0 -306 -45 -306 -100z"/>
<path d="M64600 6850 c0 -100 100 -150 300 -150 321 0 403 139 142 239 -268 103 -442 68 -442 -89z"/>
<path d="M66700 6900 c0 -55 90 -100 200 -100 110 0 200 45 200 100 0 55 -90 100 -200 100 -110 0 -200 -45 -200 -100z"/>
<path d="M68200 6600 c0 -55 45 -100 100 -100 55 0 100 45 100 100 0 55 -45 100 -100 100 -55 0 -100 -45 -100 -100z"/>
<path d="M900 21512 c0 -49 -87 -111 -194 -139 -139 -37 -178 -110 -138 -262 67 -256 289 -278 359 -36 28 96 83 254 122 350 43 105 28 175 -38 175 -61 0 -111 -40 -111 -88z"/>
<path d="M79767 21533 c-122 -121 -69 -228 83 -169 83 31 150 98 150 147 0 105 -138 118 -233 22z"/>
<path d="M67 20333 c-37 -36 -67 -113 -67 -170 0 -62 47 -56 118 15 65 65 95 142 67 170 -28 29 -82 22 -118 -15z"/>
<path d="M7467 18633 c-117 -116 -73 -208 122 -259 237 -62 459 67 368 215 -76 122 -385 150 -490 44z"/>
<path d="M6771 18238 c-158 -158 -53 -249 254 -219 179 17 325 76 325 131 0 118 -476 191 -579 88z"/>
<path d="M8725 17834 c-245 -99 -120 -234 217 -234 397 0 658 84 658 211 0 93 -658 110 -875 23z"/>
<path d="M4125 17434 c-205 -83 -143 -208 139 -279 319 -80 565 102 335 248 -161 102 -279 109 -474 31z"/>
<path d="M7267 17433 c-146 -145 -53 -245 200 -215 345 41 437 282 108 282 -133 0 -272 -30 -308 -67z"/>
<path d="M2800 17306 c0 -157 198 -228 456 -164 363 92 295 258 -106 258 -192 0 -350 -42 -350 -94z"/>
<path d="M5925 17334 c-181 -73 -153 -203 54 -257 223 -59 621 82 621 220 0 105 -446 129 -675 37z"/>
<path d="M53400 17050 c-104 -125 -90 -150 88 -150 122 0 212 64 212 150 0 83 -39 150 -88 150 -48 0 -144 -67 -212 -150z"/>
<path d="M54369 17136 c-93 -93 20 -236 187 -236 79 0 144 68 144 150 0 151 -211 206 -331 86z"/>
<path d="M625 16734 c-290 -117 -90 -243 342 -214 582 37 732 284 166 272 -210 -4 -439 -30 -508 -58z"/>
<path d="M1924 16734 c-177 -72 -51 -234 182 -234 107 0 194 68 194 150 0 149 -137 180 -376 84z"/>
<path d="M3750 16599 c-35 -55 4 -126 85 -157 231 -89 695 -5 741 133 50 154 -732 177 -826 24z"/>
<path d="M5101 16605 c-108 -70 -119 -127 -40 -206 137 -137 662 -18 611 138 -50 149 -384 189 -571 68z"/>
<path d="M7050 16533 c-455 -101 -509 -150 -267 -243 295 -113 717 -13 717 171 0 140 -82 153 -450 72z"/>
<path d="M53300 16400 c0 -55 113 -100 250 -100 138 0 250 45 250 100 0 55 -112 100 -250 100 -137 0 -250 -45 -250 -100z"/>
<path d="M79700 16461 c0 -22 68 -66 150 -97 83 -32 150 -14 150 39 0 53 -67 97 -150 97 -82 0 -150 -18 -150 -39z"/>
<path d="M54700 16300 c0 -55 113 -100 250 -100 138 0 250 45 250 100 0 55 -112 100 -250 100 -137 0 -250 -45 -250 -100z"/>
<path d="M8503 16204 c-81 -51 -121 -119 -89 -151 78 -79 386 47 386 158 0 114 -110 111 -297 -7z"/>
<path d="M2653 16105 c-36 -59 1 -132 82 -163 217 -83 715 -8 715 108 0 137 -716 187 -797 55z"/>
<path d="M7347 15895 c-95 -154 35 -253 163 -125 72 72 74 128 6 170 -56 35 -132 15 -169 -45z"/>
<path d="M1000 15798 c-133 -87 -133 -109 0 -196 220 -145 500 -123 500 37 0 77 -71 167 -158 200 -193 74 -162 78 -342 -41z"/>
<path d="M5525 15834 c-232 -94 -127 -234 175 -234 200 0 300 50 300 150 0 146 -223 185 -475 84z"/>
<path d="M4246 15693 c-36 -58 -46 -126 -22 -150 74 -75 676 76 676 170 0 125 -575 108 -654 -20z"/>
<path d="M52667 15533 c-126 -125 -67 -233 127 -233 252 0 351 161 147 240 -195 74 -193 74 -274 -7z"/>
<path d="M7703 15306 c-128 -82 -126 -104 15 -158 234 -89 832 -16 832 102 0 133 -661 178 -847 56z"/>
<path d="M2937 15152 c-88 -229 4 -281 361 -202 370 81 350 287 -31 332 -176 20 -289 -24 -330 -130z"/>
<path d="M6100 15100 c0 -55 65 -100 144 -100 79 0 172 45 206 100 34 55 -31 100 -144 100 -113 0 -206 -45 -206 -100z"/>
<path d="M1314 14967 c-95 -115 -77 -153 94 -198 265 -69 512 20 463 168 -56 172 -423 191 -557 30z"/>
<path d="M52350 14599 c-84 -136 207 -238 425 -149 161 66 159 78 -25 154 -274 112 -328 112 -400 -5z"/>
<path d="M54961 14618 c-32 -52 31 -119 140 -147 109 -29 224 -11 255 38 31 50 34 91 8 91 -26 0 -114 26 -196 57 -81 31 -174 14 -207 -39z"/>
<path d="M56300 14600 c-128 -83 -125 -97 25 -98 96 -1 205 -13 242 -27 36 -14 85 31 108 100 49 148 -163 162 -375 25z"/>
<path d="M53750 14500 c34 -55 127 -100 206 -100 79 0 144 45 144 100 0 55 -93 100 -206 100 -113 0 -178 -45 -144 -100z"/>
<path d="M70850 14528 c-407 -96 -407 -242 0 -210 220 18 389 77 375 132 -31 122 -115 140 -375 78z"/>
<path d="M76203 14504 c-81 -51 -124 -116 -96 -145 78 -77 493 51 493 153 0 114 -210 110 -397 -8z"/>
<path d="M72625 14436 c-248 -104 -118 -234 200 -199 179 20 325 76 325 124 0 103 -342 151 -525 75z"/>
<path d="M74625 14436 c-243 -102 -120 -194 282 -210 277 -11 394 22 367 104 -42 128 -442 193 -649 106z"/>
<path d="M77100 14400 c0 -55 90 -100 200 -100 110 0 200 45 200 100 0 55 -90 100 -200 100 -110 0 -200 -45 -200 -100z"/>
<path d="M69157 14211 c-71 -114 415 -240 566 -147 75 46 47 97 -80 146 -268 105 -422 105 -486 1z"/>
<path d="M53923 13882 c51 -153 565 -181 602 -32 14 55 -126 114 -311 132 -243 23 -323 -4 -291 -100z"/>
<path d="M52200 13812 c0 -117 456 -201 602 -111 78 49 62 91 -52 135 -240 92 -550 79 -550 -24z"/>
<path d="M55250 13800 c34 -55 127 -100 206 -100 79 0 144 45 144 100 0 55 -93 100 -206 100 -113 0 -178 -45 -144 -100z"/>
<path d="M56600 13800 c-116 -75 -87 -97 131 -98 162 -1 255 40 219 98 -77 124 -158 124 -350 0z"/>
<path d="M57750 13800 c-35 -57 49 -100 194 -100 141 0 256 45 256 100 0 55 -87 100 -194 100 -107 0 -222 -45 -256 -100z"/>
<path d="M73625 13835 c-232 -96 -127 -249 150 -217 151 18 272 77 268 132 -8 115 -234 161 -418 85z"/>
<path d="M76957 13811 c-66 -106 410 -243 548 -158 52 32 95 101 95 153 0 120 -570 124 -643 5z"/>
<path d="M71454 13707 c-74 -120 114 -238 248 -156 111 69 38 249 -102 249 -49 0 -114 -42 -146 -93z"/>
<path d="M75457 13711 c-66 -107 410 -243 549 -157 54 33 71 102 40 153 -74 119 -517 122 -589 4z"/>
<path d="M77809 13516 c-164 -306 100 -441 892 -454 384 -7 699 -49 699 -94 0 -45 120 -67 267 -50 356 42 434 282 91 282 -142 0 -258 44 -258 98 0 59 -178 74 -441 38 -389 -54 -439 -39 -425 127 24 281 -679 326 -825 53z"/>
<path d="M59150 13300 c-36 -58 66 -100 244 -100 168 0 306 45 306 100 0 55 -110 100 -244 100 -134 0 -272 -45 -306 -100z"/>
<path d="M67900 13300 c0 -55 158 -100 350 -100 193 0 350 45 350 100 0 55 -157 100 -350 100 -192 0 -350 -45 -350 -100z"/>
<path d="M70000 13300 c0 -55 68 -100 150 -100 83 0 150 45 150 100 0 55 -67 100 -150 100 -82 0 -150 -45 -150 -100z"/>
<path d="M53075 13242 c-133 -133 39 -242 381 -242 189 0 344 45 344 100 0 55 -56 101 -125 101 -69 1 -216 26 -328 56 -111 30 -233 23 -272 -15z"/>
<path d="M57475 13225 c-96 -22 -175 -81 -175 -132 0 -108 75 -108 343 -3 224 87 92 194 -168 135z"/>
<path d="M66950 13100 c34 -55 149 -100 256 -100 107 0 194 45 194 100 0 55 -115 100 -256 100 -145 0 -229 -43 -194 -100z"/>
<path d="M77022 13083 c24 -73 146 -148 272 -166 155 -23 214 9 184 100 -24 73 -146 148 -272 166 -155 23 -214 -9 -184 -100z"/>
<path d="M54900 13000 c0 -55 113 -100 250 -100 138 0 250 45 250 100 0 55 -112 100 -250 100 -137 0 -250 -45 -250 -100z"/>
<path d="M56227 13040 c33 -34 120 -37 192 -8 80 32 56 55 -61 60 -105 4 -164 -19 -131 -52z"/>
<path d="M72357 13011 c-61 -98 330 -199 522 -135 67 23 97 82 66 133 -73 117 -516 119 -588 2z"/>
<path d="M74175 12931 c-263 -69 -210 -231 75 -231 156 0 250 57 250 150 0 154 -24 160 -325 81z"/>
<path d="M70550 12700 c-37 -60 82 -100 294 -100 196 0 356 45 356 100 0 55 -132 100 -294 100 -162 0 -322 -45 -356 -100z"/>
<path d="M57900 12609 c0 -93 1244 -200 1475 -127 69 22 125 80 125 129 0 49 -360 89 -800 89 -440 0 -800 -41 -800 -91z"/>
<path d="M75550 12600 c-34 -55 5 -100 86 -100 81 0 219 -27 306 -61 104 -40 158 -5 158 100 0 180 -446 229 -550 61z"/>
<path d="M68800 12500 c0 -55 113 -100 250 -100 138 0 280 -11 317 -25 36 -14 85 31 108 100 28 84 -74 125 -317 125 -197 0 -358 -45 -358 -100z"/>
<path d="M78450 12401 c-114 -185 232 -601 500 -601 376 0 1050 303 1050 472 0 133 -27 134 -225 5 -457 -296 -760 -303 -1018 -25 -152 164 -264 218 -307 149z"/>
<path d="M67050 12328 c-407 -96 -407 -242 0 -210 220 18 389 77 375 132 -31 122 -115 140 -375 78z"/>
<path d="M655 12208 c-32 -51 84 -193 256 -316 173 -123 401 -419 506 -658 199 -449 347 -543 447 -285 72 190 -312 947 -597 1174 -238 189 -523 229 -612 85z"/>
<path d="M1902 11875 c-1 -206 43 -375 98 -375 127 0 127 403 0 600 -72 112 -97 54 -98 -225z"/>
<path d="M65200 12006 c0 -58 45 -106 100 -106 55 0 100 20 100 44 0 24 -45 72 -100 106 -55 34 -100 14 -100 -44z"/>
<path d="M69854 12007 c-70 -114 33 -172 287 -164 106 4 211 63 234 132 49 147 -432 176 -521 32z"/>
<path d="M71600 12000 c0 -55 113 -100 250 -100 138 0 280 -11 317 -25 36 -14 85 31 108 100 28 84 -74 125 -317 125 -197 0 -358 -45 -358 -100z"/>
<path d="M77050 11999 c-79 -126 200 -240 400 -163 83 32 150 104 150 161 0 133 -469 135 -550 2z"/>
<path d="M74950 11800 c-35 -57 49 -100 194 -100 141 0 256 45 256 100 0 55 -87 100 -194 100 -107 0 -222 -45 -256 -100z"/>
<path d="M62350 11700 c34 -55 205 -99 381 -98 243 1 283 24 169 98 -198 128 -629 128 -550 0z"/>
<path d="M68054 11707 c-31 -51 -14 -120 40 -153 129 -80 606 44 606 157 0 118 -572 115 -646 -4z"/>
<path d="M73100 11711 c0 -127 272 -216 449 -147 83 31 125 97 95 146 -72 117 -544 117 -544 1z"/>
<path d="M78905 11456 c-100 -120 -74 -139 158 -114 153 16 295 81 316 144 55 165 -332 141 -474 -30z"/>
<path d="M64600 11400 c0 -55 65 -100 144 -100 79 0 172 45 206 100 34 55 -31 100 -144 100 -113 0 -206 -45 -206 -100z"/>
<path d="M66367 11333 c-136 -136 -60 -233 183 -233 279 0 335 146 92 239 -196 75 -194 75 -275 -6z"/>
<path d="M70567 11233 c-125 -125 -67 -233 125 -233 261 0 508 102 508 211 0 103 -534 122 -633 22z"/>
<path d="M69150 11100 c-34 -55 8 -100 94 -100 86 0 156 45 156 100 0 55 -42 100 -94 100 -52 0 -122 -45 -156 -100z"/>
<path d="M74167 11133 c-144 -143 -54 -233 233 -233 321 0 403 139 142 239 -204 78 -293 77 -375 -6z"/>
<path d="M77325 11133 c-213 -85 -137 -249 100 -215 124 18 214 77 200 132 -30 122 -133 150 -300 83z"/>
<path d="M72154 11007 c-31 -51 -11 -122 45 -157 143 -88 517 44 447 157 -75 120 -417 120 -492 0z"/>
<path d="M68450 10916 c146 -145 399 -182 453 -66 26 55 -88 115 -253 133 -199 21 -266 -1 -200 -67z"/>
<path d="M75600 10900 c0 -55 87 -100 194 -100 107 0 222 45 256 100 35 57 -49 100 -194 100 -141 0 -256 -45 -256 -100z"/>
<path d="M70900 10600 c0 -55 90 -100 200 -100 110 0 200 45 200 100 0 55 -90 100 -200 100 -110 0 -200 -45 -200 -100z"/>
<path d="M79174 10530 c-249 -64 -112 -230 190 -230 151 0 237 48 213 119 -47 141 -163 173 -403 111z"/>
<path d="M77322 10383 c52 -154 466 -181 503 -33 14 55 -104 115 -261 133 -203 23 -273 -6 -242 -100z"/>
<path d="M72923 10281 c62 -185 277 -216 277 -39 0 87 -71 158 -158 158 -87 0 -141 -53 -119 -119z"/>
<path d="M74670 10237 c-141 -141 -64 -250 155 -219 124 18 222 77 218 132 -9 122 -276 184 -373 87z"/>
<path d="M1712 9675 c-163 -443 -215 -775 -121 -775 100 0 150 131 259 675 75 371 -14 436 -138 100z"/>
<path d="M78533 9764 c-162 -90 -161 -102 21 -173 262 -103 922 -111 983 -12 81 131 -807 296 -1004 185z"/>
<path d="M76500 9700 c0 -55 90 -100 200 -100 110 0 200 45 200 100 0 55 -90 100 -200 100 -110 0 -200 -45 -200 -100z"/>
<path d="M4500 9456 c0 -86 45 -156 100 -156 55 0 100 42 100 94 0 52 -45 122 -100 156 -55 34 -100 -8 -100 -94z"/>
<path d="M18329 5245 c-357 -277 -533 -337 -1150 -392 -1012 -89 -2243 -90 -3470 -3 -1203 86 -1909 -31 -2410 -401 l-328 -242 -289 243 c-481 404 -923 487 -2729 509 -2476 30 -3533 123 -3644 322 -82 146 -157 140 -802 -72 -596 -195 -939 -235 -2108 -246 -1217 -11 -1398 -34 -1398 -175 -1 -111 117 -180 374 -219 571 -85 2413 88 2965 279 356 124 547 143 700 70 438 -208 652 -226 2667 -222 2153 4 2920 -78 3468 -369 875 -465 -262 -1522 -1374 -1277 -177 39 -412 209 -565 409 -364 477 -1060 773 -1624 690 -454 -68 -912 -415 -912 -692 0 -225 -442 -475 -873 -492 -548 -22 -487 -266 123 -487 720 -261 988 -209 1050 204 33 222 140 386 323 497 261 158 296 153 800 -101 1096 -554 2158 -591 3163 -110 l535 257 415 -234 c480 -272 1444 -317 2114 -99 781 254 1172 248 1487 -22 440 -379 1537 -525 2015 -269 296 159 291 466 -6 416 -855 -145 -806 -155 -1042 226 -541 876 -1588 917 -2694 106 -577 -423 -1444 -310 -1882 246 -281 357 -69 611 721 859 463 146 727 162 1578 95 1111 -86 2758 -82 3745 9 408 38 738 136 956 284 270 183 381 207 578 125 141 -59 1486 -112 3194 -126 1623 -13 3125 -61 3338 -107 657 -142 969 -1037 485 -1392 -90 -65 -400 -172 -688 -237 -481 -107 -540 -100 -729 89 -113 113 -268 206 -344 206 -76 0 -196 71 -268 158 -195 235 -1050 642 -1347 642 -143 0 -354 -50 -468 -111 -272 -146 -825 -701 -972 -975 -88 -165 -173 -201 -361 -154 -262 66 -329 -67 -120 -240 69 -57 245 -134 393 -171 233 -59 299 -17 520 333 346 549 655 603 1416 248 828 -385 2088 -444 2989 -139 l626 211 478 -212 c402 -177 592 -201 1190 -147 2015 180 2375 181 2747 14 273 -123 466 -143 765 -81 528 109 559 386 39 346 -311 -23 -399 22 -630 326 -276 361 -725 652 -1008 652 -185 0 -742 -373 -929 -622 -338 -451 -1969 -423 -2389 40 -172 191 -171 212 30 559 431 743 1081 857 3241 572 1420 -187 3400 -217 3996 -60 248 65 619 191 825 280 352 151 401 150 797 -29 471 -212 1173 -222 3962 -59 1447 84 1564 77 2050 -122 728 -299 766 -333 766 -693 0 -471 -216 -705 -848 -920 -508 -172 -589 -177 -828 -42 -146 82 -358 325 -470 540 -270 517 -994 985 -1389 898 -301 -66 -961 -474 -1081 -668 -39 -63 -46 -240 -15 -394 60 -301 73 -295 -619 -317 -268 -9 -400 -59 -400 -151 0 -100 170 -145 615 -163 716 -28 817 17 921 410 106 399 587 451 1098 116 1098 -717 2412 -762 3135 -108 163 148 203 140 518 -100 687 -525 2101 -567 2960 -89 l547 304 331 -291 c212 -186 443 -291 638 -291 392 0 887 291 887 522 0 220 -90 224 -382 19 -290 -203 -473 -129 -719 288 -243 412 -937 778 -1327 701 -164 -32 -421 -229 -625 -478 -395 -481 -417 -551 -172 -555 307 -6 -170 -297 -486 -297 -315 0 -1158 341 -1414 573 -242 219 -218 622 58 967 231 288 234 289 1374 291 629 1 1433 -54 1787 -122 862 -167 3425 -145 4117 35 404 105 672 115 1068 42 291 -54 808 -75 1150 -48 1245 98 3733 208 4207 185 900 -43 1564 -604 1564 -1322 0 -454 -616 -702 -1607 -646 -397 23 -746 64 -774 93 -29 29 23 52 114 52 92 0 167 68 167 150 0 83 -43 150 -96 150 -53 0 -259 176 -458 391 -531 574 -820 667 -1441 461 -283 -94 -505 -229 -505 -307 0 -76 -85 -184 -189 -239 -105 -56 -237 -238 -295 -404 -80 -230 -167 -302 -361 -302 -324 0 -333 -177 -13 -257 382 -96 579 -16 757 307 228 413 536 431 1049 62 555 -399 1039 -498 2335 -478 1144 17 1413 108 1612 545 l109 240 396 -357 c217 -196 513 -387 658 -423 479 -120 1663 51 2165 314 609 318 1010 317 1355 -3 272 -252 472 -301 764 -189 225 86 196 214 -67 295 -124 39 -413 242 -643 453 -424 388 -1010 691 -1335 691 -229 0 -997 -500 -997 -649 0 -62 -124 -232 -275 -376 -276 -264 -701 -312 -1142 -129 -254 105 -701 838 -636 1044 218 686 1135 882 3303 707 1653 -134 2656 -58 3475 261 415 162 517 169 800 53 611 -250 1526 -328 3210 -274 2031 66 2543 -22 2971 -509 376 -428 371 -669 -20 -1026 -379 -346 -647 -425 -1041 -307 -246 73 -258 89 -70 96 124 5 225 50 225 101 0 132 -819 833 -1236 1058 l-356 191 -379 -305 c-335 -271 -446 -428 -732 -1036 -39 -84 -219 -157 -408 -166 -187 -9 -378 -21 -426 -25 -230 -23 188 -292 542 -348 501 -80 795 66 795 395 0 444 390 486 1103 119 444 -229 787 -328 1246 -357 l634 -40 445 445 446 445 383 -285 c780 -582 1566 -613 2407 -95 280 171 573 312 653 312 80 0 271 -131 424 -290 309 -323 615 -418 950 -294 302 112 169 283 -222 287 -270 2 -346 60 -491 375 -106 228 -345 480 -620 653 -428 268 -459 274 -751 123 -167 -87 -371 -280 -453 -431 -449 -819 -904 -932 -1682 -417 -733 486 -728 894 15 1087 199 52 1286 89 2413 82 1721 -11 2112 13 2434 154 282 124 435 141 575 66 158 -84 191 -68 191 93 0 265 -102 512 -211 512 -50 0 -185 -109 -301 -242 -285 -328 -810 -393 -3238 -401 -1989 -7 -2354 -62 -2566 -388 -40 -61 -189 2 -374 157 -470 395 -1207 505 -2848 423 -1909 -95 -3248 102 -3492 516 -119 201 -344 165 -710 -115 -180 -137 -566 -294 -857 -350 -577 -109 -2295 -117 -3253 -14 -330 35 -977 32 -1437 -7 -851 -73 -1197 -214 -1527 -621 l-168 -208 -211 269 c-117 147 -464 363 -773 478 -541 203 -637 207 -2723 107 -3170 -151 -3217 -149 -3668 157 l-384 261 -224 -281 c-220 -275 -252 -282 -1694 -375 -1217 -78 -1643 -66 -2480 70 -1243 202 -2845 216 -3289 28 -177 -75 -408 -233 -513 -350 -184 -207 -194 -208 -321 -28 -71 103 -405 289 -740 415 -650 243 -829 244 -4648 35 -964 -52 -1014 -45 -1393 214 l-392 268 -658 -257 c-1277 -501 -2262 -542 -4851 -204 -1970 258 -2523 180 -3194 -445 -213 -199 -405 -317 -426 -262 -298 764 -611 832 -3886 845 -2626 12 -3204 54 -3450 253 -285 231 -352 222 -771 -103z m37171 -1556 c0 -114 -271 -117 -341 -3 -30 47 -28 112 3 143 79 78 338 -29 338 -140z m-15858 -53 c95 -249 12 -263 -253 -42 -235 196 -236 199 -25 203 118 2 243 -71 278 -161z m-16392 -236 c34 -55 17 -100 -38 -100 -55 0 -128 45 -162 100 -34 55 -17 100 38 100 55 0 128 -45 162 -100z m-15197 -381 c-31 -30 -112 0 -180 69 -98 98 -86 110 56 56 99 -38 154 -94 124 -125z"/>
<path d="M11943 3589 c-80 -130 184 -208 572 -171 l335 32 -426 115 c-247 66 -449 76 -481 24z"/>
<path d="M175 3061 c-96 -73 -175 -204 -175 -292 0 -140 45 -143 375 -29 433 150 575 462 207 457 -127 -2 -311 -63 -407 -136z"/>
<path d="M33783 2149 c-54 -54 -4257 -104 -17283 -206 -4482 -35 -8487 -78 -8900 -97 -412 -18 -2291 -36 -4175 -39 l-3425 -7 0 -246 0 -245 2575 39 c1416 22 5590 71 9275 109 3685 38 7083 83 7550 100 1683 62 57639 174 58650 118 110 -6 594 -3 1075 7 786 16 875 37 875 207 0 183 -157 191 -4425 213 -2434 13 -5820 19 -7525 14 -21475 -64 -33971 -63 -34012 3 -56 92 -180 106 -255 30z"/>
</g>
</svg>