<svg xmlns="http://www.w3.org/2000/svg" version="1.0" width="800" height="250" viewBox="0 0 800.000000 250.000000" preserveAspectRatio="xMidYMid meet">
<metadata>
Created by potrace 1.10, written by Peter Selinger 2001-2011
</metadata>
<g transform="translate(0.000000,250.000000) scale(0.010000,-0.010000)" fill="#555555" stroke="none">
<path d="M0 24800 c0 -183 67 -200 785 -200 432 0 916 -45 1075 -99 160 -54 973 -185 1807 -289 1254 -157 1635 -246 2191 -508 1410 -667 2334 -928 4042 -1144 3647 -460 6631 -430 8850 89 330 78 803 169 1050 203 1171 161 1938 440 2493 907 172 145 503 305 735 356 232 51 497 115 589 143 130 39 154 2 109 -170 -43 -162 -24 -199 72 -139 83 51 199 -6 324 -160 207 -254 209 -226 25 380 -59 191 -19 227 318 291 212 40 1285 75 2385 78 1691 6 2054 -20 2350 -164 193 -94 688 -257 1100 -362 413 -106 998 -301 1300 -436 544 -241 1700 -1196 1700 -1403 0 -59 -337 -419 -750 -799 -412 -380 -750 -747 -750 -815 0 -68 -111 -229 -247 -356 -271 -255 -274 -254 -903 301 -640 565 -1933 882 -3631 890 -751 3 -1010 -36 -1339 -204 l-407 -208 71 909 c53 673 40 909 -47 909 -65 0 -95 -61 -67 -135 29 -74 -13 -445 -93 -825 -80 -379 -123 -781 -95 -893 36 -146 -45 -280 -290 -475 -188 -150 -389 -272 -447 -272 -58 0 -108 191 -111 425 -6 386 -16 402 -107 175 -55 -137 -76 -374 -46 -525 40 -203 14 -275 -97 -275 -83 0 -256 -69 -383 -152 -301 -197 -574 -98 -516 187 144 718 272 2238 220 2618 -68 496 -347 1005 -479 873 -47 -47 5 -261 114 -477 244 -477 252 -970 38 -2369 -160 -1043 -172 -1072 -466 -1175 -166 -58 -306 -105 -312 -105 -11 0 0 212 94 1800 54 925 38 1092 -133 1400 -193 348 -515 469 -596 225 -24 -72 43 -125 159 -125 348 0 445 -545 364 -2054 l-72 -1341 -313 -47 c-736 -111 -1029 -160 -1285 -218 l-271 -62 1 1109 c1 1169 -112 1803 -368 2058 -154 155 -340 207 -340 96 0 -33 87 -171 194 -306 404 -513 532 -2476 183 -2787 -290 -257 -1339 -343 -3577 -294 -2253 50 -3125 153 -4550 539 -385 104 -1015 216 -1400 248 -1595 134 -4032 566 -4300 763 -97 71 -1008 375 -2350 784 -1154 351 -1632 543 -2579 1032 -511 264 -949 480 -975 480 -25 0 -44 -461 -42 -1025 l4 -1025 472 -221 c551 -258 745 -545 1080 -1600 286 -901 307 -1686 78 -2936 -236 -1288 -61 -1589 316 -543 98 275 266 597 371 715 380 427 423 1149 165 2735 -59 358 -91 988 -73 1400 31 704 48 752 273 784 132 19 444 -24 694 -94 422 -118 437 -133 209 -209 -417 -139 -531 -448 -575 -1569 -25 -614 -4 -1015 50 -982 50 31 102 377 116 768 32 941 198 1442 491 1484 124 18 225 101 225 186 0 89 58 131 137 101 76 -29 347 -84 604 -123 256 -38 556 -143 666 -233 194 -159 195 -171 18 -513 -333 -647 -321 -641 -640 -335 -201 192 -284 360 -264 533 39 340 -327 396 -626 97 -179 -179 -210 -302 -173 -686 31 -328 1 -508 -101 -604 -111 -103 -134 -309 -98 -867 30 -481 9 -744 -63 -769 -79 -27 -77 -127 6 -353 89 -240 89 -316 0 -316 -64 0 -251 -259 -416 -575 -165 -316 -438 -777 -606 -1025 -570 -836 -1087 -2190 -907 -2370 42 -43 265 131 495 386 484 537 1322 1123 1505 1053 94 -36 107 -218 49 -734 -41 -377 -78 -786 -81 -910 -3 -146 -67 -225 -181 -225 -372 0 -1253 -402 -1655 -756 -507 -446 -1277 -1261 -1430 -1514 -62 -101 -118 -469 -126 -819 -14 -615 -7 -633 211 -568 497 148 958 174 1161 65 169 -91 264 -80 464 51 138 90 251 193 251 228 0 93 -1520 70 -1725 -26 -113 -53 -175 -42 -175 34 0 163 977 592 1518 666 267 37 538 16 663 -51 192 -103 207 -177 164 -830 -73 -1113 -362 -1276 -1366 -768 -204 103 -553 188 -775 188 -392 0 -404 -10 -404 -338 l0 -338 598 -43 c669 -49 785 -110 610 -321 -89 -108 -258 -130 -664 -88 l-544 56 12 -589 c6 -324 32 -510 57 -413 25 97 180 246 344 331 l298 154 -145 -281 c-80 -154 -240 -366 -356 -471 -176 -160 -209 -303 -207 -899 3 -656 15 -695 155 -510 89 117 125 283 86 400 -141 432 -97 689 137 808 128 64 308 266 400 448 93 183 220 348 281 367 167 52 738 -463 738 -666 0 -194 299 -507 483 -507 191 0 134 192 -136 463 l-254 253 527 649 c350 432 619 668 803 705 287 57 355 170 171 284 -210 129 -694 -185 -1106 -720 -366 -474 -439 -526 -564 -400 -183 182 -80 535 180 617 106 34 348 251 538 483 304 370 354 514 415 1184 60 669 97 775 304 869 235 107 235 106 182 -465 -57 -615 75 -1000 250 -727 58 89 57 212 -2 322 -103 192 28 905 264 1437 122 276 292 1142 401 2046 23 193 69 519 102 725 33 206 32 375 -2 375 -90 0 -236 -426 -296 -865 -29 -212 -100 -743 -158 -1180 -110 -827 -417 -1525 -481 -1094 -27 179 -121 221 -617 273 -589 61 -1527 -129 -1655 -335 -106 -172 -949 -712 -949 -608 0 343 2021 1473 2512 1405 76 -11 283 -14 459 -8 313 12 321 24 313 451 -5 242 29 501 75 575 199 323 441 2919 286 3074 -137 137 -868 -248 -1347 -710 -551 -531 -535 -478 87 285 308 377 846 722 1372 878 271 80 576 -397 346 -539 -116 -72 -103 -231 79 -974 120 -488 218 -1088 219 -1333 0 -245 47 -729 103 -1075 90 -557 80 -662 -86 -900 -104 -149 -268 -483 -366 -744 -145 -384 -155 -502 -53 -625 200 -241 301 -176 235 153 -62 310 212 1096 381 1096 80 0 95 -103 123 -850 15 -381 -195 -1036 -406 -1270 -90 -99 -272 -180 -405 -180 -176 0 -233 -47 -208 -174 46 -241 358 -278 588 -70 106 96 305 420 443 721 291 636 320 1321 100 2323 -79 358 -147 898 -151 1200 -4 303 -50 753 -102 1000 -224 1068 -228 1200 -31 1197 339 -6 558 -257 494 -565 -68 -324 -16 -419 365 -662 267 -169 364 -419 189 -487 -47 -18 -39 -309 17 -645 97 -578 88 -639 -164 -1068 -283 -482 -313 -572 -192 -567 41 1 184 179 317 395 134 217 335 406 450 422 144 21 200 92 181 232 -36 262 435 546 945 569 210 10 855 -18 1432 -61 l1050 -79 750 507 c506 343 919 540 1268 606 526 100 1532 38 1532 -94 0 -39 -346 -131 -769 -203 -625 -107 -890 -214 -1413 -573 -355 -242 -796 -465 -981 -496 -420 -68 -443 -228 -34 -228 299 0 989 239 1093 379 30 39 242 199 472 355 370 251 506 283 1200 283 430 1 895 -14 1032 -33 377 -51 397 141 25 238 -320 83 -453 278 -189 278 74 0 176 142 225 315 50 173 175 364 278 425 103 60 292 211 420 335 334 324 960 337 1279 27 183 -178 181 -191 -86 -541 -417 -546 -1252 -987 -1252 -661 0 55 -68 100 -150 100 -192 0 -192 -144 0 -336 162 -162 613 -89 935 151 488 366 1015 952 1015 1131 1 285 366 854 549 854 192 0 194 -205 4 -456 -169 -224 -191 -344 -63 -344 90 0 511 648 508 781 0 38 -39 129 -85 201 -114 181 -752 -82 -908 -374 -62 -114 -178 -208 -259 -208 -225 0 -174 163 118 376 231 168 256 238 196 558 -64 341 -141 410 -421 377 -61 -8 -241 54 -400 137 -370 193 -712 191 -1089 -6 -375 -196 -841 -116 -1068 183 -197 259 -331 186 -231 -127 37 -119 217 -278 399 -354 286 -120 392 -117 794 20 477 162 732 147 1381 -81 638 -224 372 -729 -427 -812 -191 -20 -483 -92 -648 -161 -165 -68 -599 -135 -964 -149 -419 -15 -760 -86 -922 -193 -329 -215 -708 -226 -628 -18 38 100 -4 150 -126 150 -259 0 -677 354 -747 633 -32 130 -179 322 -325 427 -147 104 -413 314 -591 465 -178 151 -367 275 -420 275 -175 0 -443 380 -525 742 -113 498 64 1158 310 1158 245 0 244 204 -2 268 -156 41 -187 136 -175 536 13 426 -145 819 -277 687 -25 -24 -3 -377 48 -784 62 -493 58 -780 -10 -862 -57 -68 -130 -350 -162 -627 -49 -411 -20 -567 161 -860 122 -197 254 -358 294 -358 40 0 163 -79 272 -175 109 -96 331 -244 492 -328 161 -83 390 -308 509 -500 119 -191 334 -466 477 -610 144 -145 261 -307 261 -359 0 -52 167 -146 371 -208 320 -99 418 -87 706 83 339 199 691 243 1095 135 l222 -60 -263 -344 c-240 -315 -297 -340 -672 -294 -225 27 -507 79 -627 115 -121 36 -383 11 -584 -56 -642 -212 -1548 182 -1548 673 0 71 68 128 150 128 213 0 186 130 -60 283 -267 167 -313 115 -326 -366 -11 -426 151 -690 507 -825 310 -118 289 -223 -109 -526 -742 -566 -942 -610 -2105 -467 l-1055 130 249 231 c137 127 245 266 241 310 -4 44 -138 283 -298 530 -159 248 -335 551 -390 675 -54 124 -162 225 -238 225 -76 0 -260 95 -408 211 -148 117 -296 184 -329 151 -81 -81 269 -462 425 -462 67 0 149 -79 182 -175 33 -96 224 -396 424 -667 345 -464 355 -500 184 -625 -377 -275 -797 -164 -1413 374 -662 578 -700 640 -518 859 114 137 77 205 -266 495 -218 185 -431 337 -472 338 -41 0 -75 109 -75 240 0 132 -131 380 -291 552 -174 186 -320 478 -361 723 -48 282 -129 426 -259 460 -218 57 -235 154 -74 413 92 146 81 235 -50 421 -207 296 -211 681 -11 968 l155 220 331 -217 c388 -255 378 -527 -24 -629 l-266 -67 288 -231 c337 -270 876 -380 1219 -249 134 50 243 68 243 38 0 -155 -225 -441 -348 -441 -77 0 -170 -48 -206 -107 -110 -178 279 -386 726 -390 416 -3 422 -8 363 -303 -46 -231 -24 -300 97 -300 216 0 298 -166 226 -456 -78 -307 -169 -306 -540 6 -540 455 -726 243 -226 -258 352 -352 726 -379 932 -68 128 192 171 204 311 88 89 -74 237 -106 329 -71 149 58 145 87 -42 287 -115 122 -257 350 -317 507 -68 180 -159 266 -247 232 -195 -75 -278 39 -145 199 190 228 -83 434 -575 434 -516 0 -545 92 -138 435 165 138 300 297 300 352 0 178 -390 229 -751 99 -303 -109 -373 -105 -514 36 -264 264 -99 478 370 478 285 0 399 38 370 125 -23 69 -114 126 -202 126 -87 1 -192 35 -233 75 -40 41 -195 74 -343 74 -325 0 -747 313 -949 703 -114 221 -123 349 -39 566 l108 281 116 -263 c65 -144 240 -405 390 -580 223 -259 386 -336 890 -417 340 -55 712 -149 827 -210 664 -350 1260 -1351 1327 -2228 48 -639 314 -1313 630 -1599 346 -313 418 -113 111 305 -307 418 -501 1040 -506 1623 -1 182 -117 537 -258 789 -180 322 -224 490 -150 564 201 201 104 448 -353 899 -289 285 -445 519 -422 634 39 194 197 209 931 88 220 -36 546 -88 725 -115 259 -39 368 -133 535 -459 247 -485 206 -619 -400 -1319 -279 -323 -410 -568 -410 -768 0 -310 340 -743 504 -642 153 95 111 448 -54 448 -235 0 -195 569 50 700 110 59 317 338 461 621 235 464 249 552 143 906 -65 216 -96 415 -69 442 27 27 294 -6 592 -73 439 -98 562 -172 643 -384 l100 -262 115 282 c81 198 167 266 290 231 96 -28 361 -99 588 -158 475 -122 612 -255 695 -671 46 -231 0 -369 -207 -614 -293 -349 -300 -648 -15 -703 148 -29 170 7 114 182 -49 155 -3 288 159 460 l227 242 232 -218 c282 -265 411 -180 195 129 -100 142 -134 319 -94 481 59 235 49 245 -110 113 -151 -124 -186 -124 -265 0 -202 320 -111 414 331 345 742 -115 788 -140 668 -364 -77 -144 -75 -238 6 -336 86 -103 63 -234 -97 -547 -244 -478 -201 -604 202 -604 204 0 343 -78 463 -262 279 -426 912 -634 1963 -644 1126 -11 2032 -334 1506 -536 -90 -34 -275 10 -411 99 -170 112 -278 130 -350 58 -72 -72 10 -159 265 -281 300 -142 407 -153 564 -55 222 139 796 164 796 34 0 -47 -95 -207 -211 -355 -117 -148 -188 -292 -159 -321 122 -122 433 172 558 529 195 553 584 934 956 935 168 0 479 48 690 107 212 59 414 77 450 41 116 -116 -496 -566 -671 -494 -340 140 -469 83 -649 -286 -102 -209 -158 -409 -123 -443 34 -35 117 80 183 256 129 341 190 371 467 223 131 -70 268 -33 528 143 429 292 1496 447 1731 252 170 -141 550 -948 550 -1167 0 -78 -93 -241 -207 -362 -114 -122 -232 -344 -262 -494 -30 -150 -125 -330 -210 -400 -135 -110 -147 -94 -90 123 37 138 67 371 68 518 1 198 58 276 218 300 325 48 333 252 12 264 -1058 41 -1972 -17 -2029 -130 -27 -54 63 -99 200 -100 316 -2 339 -289 27 -334 -123 -17 -316 -162 -430 -322 -182 -255 -232 -276 -410 -169 -181 109 -244 77 -570 -292 -311 -352 -394 -397 -545 -300 -205 133 -368 -39 -370 -391 -2 -214 -348 -581 -831 -881 -153 -95 -351 -325 -440 -510 -161 -338 -238 -388 -1415 -915 -360 -161 -781 -446 -975 -661 -469 -519 -432 -712 42 -222 396 409 1292 945 1580 945 91 0 215 -68 276 -151 98 -133 157 -126 496 56 212 113 473 192 580 176 163 -26 95 -139 -406 -681 -330 -357 -603 -685 -605 -729 -7 -143 393 132 558 383 280 428 572 282 332 -166 -59 -110 -89 -253 -67 -319 23 -65 119 31 214 215 126 242 155 444 106 734 -60 355 -46 397 118 365 116 -22 197 -137 217 -309 17 -151 77 -274 133 -274 64 0 77 150 35 400 -81 481 86 537 451 149 l235 -250 -287 -300 c-157 -164 -368 -299 -468 -299 -109 0 -181 -73 -181 -183 0 -215 -398 -617 -611 -617 -82 0 -203 54 -269 120 -93 93 -196 46 -461 -211 -190 -184 -392 -300 -455 -262 -63 40 -308 -109 -556 -338 -244 -225 -464 -409 -489 -409 -24 0 -111 66 -192 147 -129 130 -192 111 -524 -153 -207 -164 -426 -282 -485 -261 -59 21 -103 202 -97 402 14 440 -93 470 -257 74 -243 -586 329 -970 751 -504 149 165 259 193 557 143 328 -55 417 -21 767 295 217 196 455 357 528 357 72 0 257 119 409 265 227 218 304 243 426 142 194 -161 489 -62 908 307 l338 296 116 -217 c97 -181 178 -208 502 -165 270 36 423 7 509 -97 91 -109 235 -131 546 -85 287 43 545 12 806 -97 237 -100 507 -138 708 -100 179 33 325 19 325 -32 0 -51 26 -222 58 -382 52 -261 21 -305 -325 -452 -472 -199 -1183 -293 -1305 -171 -54 54 -330 11 -684 -106 -375 -123 -629 -161 -689 -101 -170 170 -442 101 -998 -255 -629 -402 -816 -447 -661 -157 57 107 104 219 104 250 0 145 -307 30 -650 -243 -208 -165 -419 -300 -469 -300 -50 0 -257 -113 -460 -250 -202 -138 -445 -250 -539 -250 -163 0 -163 21 -1 382 94 210 341 531 548 713 716 628 290 416 -593 -297 -487 -392 -1133 -829 -1435 -970 -522 -243 -537 -260 -303 -347 136 -50 270 -127 299 -171 29 -43 185 -142 346 -220 349 -167 467 -400 163 -320 -117 30 -206 5 -206 -58 0 -62 111 -112 246 -112 138 0 291 -82 346 -185 81 -151 209 -183 698 -172 666 15 706 -29 709 -768 1 -343 -22 -375 -274 -374 -151 1 -445 29 -653 64 -367 60 -373 68 -203 256 170 188 167 192 -98 125 -229 -57 -263 -41 -209 100 44 114 -59 296 -324 570 -456 471 -930 734 -1496 828 -567 94 -1157 307 -1076 388 37 38 243 68 458 68 299 0 460 69 684 292 301 301 375 508 182 508 -102 0 -245 -55 -1040 -403 -165 -72 -547 -162 -850 -198 -302 -37 -629 -102 -725 -144 -251 -110 -218 78 75 427 138 163 250 347 250 407 0 144 -328 143 -471 0 -61 -61 -172 -91 -245 -66 -216 74 719 477 1110 479 196 1 536 89 756 195 466 225 1116 771 1025 861 -34 34 -189 -56 -343 -200 -354 -330 -977 -629 -1432 -688 -990 -128 -1555 -411 -1436 -722 37 -96 -108 -150 -531 -198 -321 -37 -662 -88 -758 -115 -558 -155 400 864 1119 1190 245 111 776 239 1181 284 644 72 784 126 1106 426 203 188 677 629 1054 979 376 350 846 856 1043 1125 241 328 526 568 866 730 847 405 1062 540 1005 632 -30 49 -364 -69 -742 -261 -546 -278 -858 -539 -1514 -1270 -1473 -1640 -1981 -2025 -2809 -2126 -1109 -135 -1594 -338 -2232 -933 -719 -672 -1188 -1011 -1398 -1011 -208 0 -200 35 156 703 283 531 372 612 1044 939 403 197 841 358 972 358 131 0 415 157 631 350 360 321 445 350 1018 350 350 0 625 44 625 100 0 57 -287 100 -662 100 -593 0 -697 -31 -1003 -300 -543 -477 -676 -362 -386 333 117 278 233 380 525 462 207 57 432 104 501 104 69 1 125 46 125 101 0 149 -443 121 -884 -55 -326 -131 -427 -247 -638 -735 -237 -550 -274 -585 -732 -701 -456 -114 -975 -406 -1196 -672 -198 -237 -882 -637 -1089 -636 -185 1 -171 33 116 259 385 304 623 724 623 1101 0 361 638 962 1268 1194 645 238 790 387 303 314 -209 -32 -636 -184 -949 -338 -492 -243 -594 -343 -741 -731 -94 -247 -196 -573 -227 -722 -80 -386 -432 -678 -817 -678 -179 0 -353 45 -387 100 -34 55 -104 100 -156 100 -159 0 -104 -365 90 -605 224 -277 918 -303 1403 -52 446 231 423 -25 -39 -431 -427 -375 -778 -476 -1118 -321 -230 105 -250 97 -204 -79 35 -133 -9 -210 -137 -244 -173 -45 -176 -71 -39 -333 203 -389 187 -670 -49 -884 -287 -260 -1036 -104 -1083 225 -19 135 31 249 125 285 163 63 222 339 72 339 -170 0 -415 -373 -415 -633 0 -339 -175 -346 -302 -10 -215 563 -98 1110 266 1248 141 54 236 172 236 293 0 280 262 253 459 -48 195 -298 341 -323 341 -59 0 234 -567 730 -786 688 -88 -17 -206 -165 -262 -330 -56 -164 -209 -391 -340 -505 -200 -173 -251 -343 -319 -1050 -44 -464 -83 -900 -87 -969 -10 -211 -302 -139 -559 137 l-243 262 -99 -262 c-112 -292 -409 -348 -604 -113 -240 289 128 1351 469 1351 200 0 106 242 -111 284 -255 49 -559 -273 -559 -594 0 -153 -39 -302 -86 -331 -156 -97 -224 -976 -89 -1141 107 -131 99 -139 -57 -53 -100 55 -266 229 -369 387 l-188 286 9 -621 c7 -520 35 -614 169 -577 726 200 4458 222 18511 109 9327 -75 11134 -86 11800 -69 1106 29 1172 1 1514 -642 172 -323 445 -739 606 -925 162 -185 367 -489 456 -675 114 -240 228 -338 393 -338 127 0 230 34 229 75 -2 88 -463 801 -888 1376 -163 221 -345 513 -403 650 -59 137 -151 317 -205 399 -54 83 -261 510 -459 950 -198 440 -579 1250 -845 1800 -267 550 -530 1225 -586 1500 -55 275 -144 703 -197 950 -410 1903 -586 5160 -377 7000 129 1140 568 2516 1260 3950 428 887 604 1125 1567 2110 1045 1068 1940 1741 2772 2081 213 88 454 159 535 159 81 0 278 93 437 206 159 114 330 182 380 151 50 -31 219 11 376 93 157 82 388 149 515 149 126 1 358 67 516 149 797 412 5076 134 6103 -397 142 -74 425 -165 629 -204 205 -38 372 -106 372 -151 0 -119 202 -295 853 -746 864 -599 2348 -1941 2474 -2239 61 -143 186 -351 278 -461 331 -397 1070 -1834 1368 -2658 328 -910 522 -1730 569 -2412 16 -236 62 -812 101 -1280 124 -1454 -231 -4630 -631 -5650 -43 -110 -204 -582 -357 -1050 -154 -467 -409 -1134 -567 -1482 -158 -348 -288 -666 -288 -708 0 -169 -858 -1691 -1311 -2326 -266 -372 -551 -838 -633 -1036 -83 -198 -245 -492 -360 -654 l-210 -294 283 0 c218 0 313 69 416 303 210 474 752 1220 1220 1678 l427 419 1209 18 c1440 22 1550 29 1809 110 379 117 7499 215 11200 153 220 -3 1975 0 3900 7 3487 14 5642 -18 9564 -144 2325 -75 3486 -3 3486 216 0 77 -83 140 -185 140 -317 0 -815 213 -815 349 0 72 -134 273 -297 448 -358 383 -474 891 -299 1313 l127 307 242 -308 c213 -273 983 -809 1161 -809 36 0 66 207 66 459 0 379 -36 469 -204 513 -112 29 -270 180 -350 336 -189 365 -185 392 54 392 110 0 200 -36 200 -81 0 -44 66 -168 147 -275 133 -176 147 -119 150 611 l3 805 -605 125 c-1030 213 -2097 695 -2712 1226 -312 269 -594 489 -627 489 -80 0 47 -525 157 -645 140 -152 101 -591 -75 -842 -131 -187 -222 -219 -477 -172 -348 66 -761 -150 -761 -397 0 -214 -177 -175 -250 55 -43 136 38 341 253 641 260 362 305 497 248 757 -57 258 -570 904 -1155 1453 -351 330 -451 487 -496 777 -78 505 -245 380 -301 -227 -28 -302 -84 -601 -124 -664 -117 -183 -770 -262 -1086 -132 -371 154 -728 59 -860 -229 -84 -186 -50 -344 182 -828 263 -550 273 -607 118 -722 -266 -199 -350 -147 -279 174 55 252 15 345 -265 600 -181 165 -365 301 -407 301 -43 0 -78 201 -78 447 0 359 62 517 320 811 311 354 336 363 844 303 l524 -61 481 560 c265 309 469 635 454 725 -15 91 -30 451 -33 800 -5 679 -12 693 -840 1985 l-500 780 19 1200 19 1200 331 283 c182 156 440 327 573 379 375 148 1308 214 1308 92 0 -57 -67 -104 -148 -104 -81 0 -326 -71 -543 -158 -700 -280 -762 -1011 -146 -1730 626 -731 1424 -858 4037 -641 1278 106 1507 94 2625 -137 l275 -57 0 2318 0 2318 -225 -69 c-124 -37 -286 -117 -360 -177 -74 -59 -187 -119 -250 -131 -63 -13 -518 -137 -1010 -276 -493 -139 -1280 -323 -1750 -409 -470 -86 -1102 -211 -1405 -278 -736 -161 -4839 -166 -5250 -5 -165 64 -907 142 -1650 172 -742 31 -1597 126 -1900 211 -1152 326 -3160 866 -3400 914 -137 28 -630 140 -1094 249 -651 153 -1323 209 -2950 245 -1158 25 -2376 94 -2706 153 -1123 201 -2034 218 -2397 46 -567 -269 -576 -255 -502 817 41 597 27 1072 -36 1225 -91 222 -103 197 -109 -229 -3 -263 -55 -914 -114 -1446 -84 -751 -149 -996 -295 -1098 -103 -72 -246 -187 -317 -255 -261 -250 -1122 -758 -1200 -710 -45 28 -75 741 -69 1584 12 1457 0 1563 -250 2108 -286 625 -273 681 246 1051 263 187 272 187 226 9 -33 -125 14 -203 141 -236 104 -27 277 -225 383 -439 162 -326 194 -614 199 -1789 3 -770 48 -1422 100 -1450 52 -27 100 63 108 200 8 138 49 732 90 1322 50 701 40 1116 -27 1200 -57 70 -133 266 -169 435 -37 169 -204 458 -373 643 -289 317 -296 344 -127 468 99 73 253 132 341 132 89 0 205 44 259 98 143 143 2331 354 3520 340 808 -10 1068 -49 1213 -180 164 -148 191 -149 244 -12 131 341 2671 14 3615 -465 165 -84 435 -186 600 -227 3312 -812 4184 -904 8550 -904 3320 0 3790 21 5200 234 1530 231 2934 549 3788 858 240 87 589 158 775 158 333 0 337 6 337 450 l0 450 -15450 0 c-10233 0 -15450 -34 -15450 -100 0 -61 485 -100 1256 -100 865 0 1235 -33 1190 -107 -37 -59 -124 -84 -195 -57 -70 27 -355 -18 -632 -99 -444 -130 -570 -130 -1071 1 -312 81 -622 127 -688 102 -67 -26 -600 -58 -1185 -72 -859 -21 -1044 -1 -957 103 74 90 419 129 1144 129 625 0 1038 40 1038 100 0 66 -8233 100 -24500 100 -24433 0 -24500 -1 -24500 -200z m24375 9 c149 -13 152 -28 25 -103 -162 -95 -1121 -21 -1058 82 35 55 537 65 1033 21z m18171 -22 c34 -33 -109 -104 -317 -157 -303 -77 -436 -61 -662 76 l-284 171 601 -14 c331 -9 629 -43 662 -76z m-20446 -87 c-194 -125 -300 -125 -300 0 0 55 101 99 225 98 182 -1 196 -20 75 -98z m8097 1 l248 -1 -229 -160 c-193 -135 -276 -140 -547 -34 -513 203 -571 328 -119 258 220 -34 511 -62 647 -63z m5503 11 c0 -49 -79 -111 -175 -139 -96 -28 -254 -83 -351 -123 -132 -54 -162 -34 -118 80 37 96 -9 170 -124 200 -100 26 32 52 293 58 261 7 475 -28 475 -76z m1625 22 c-69 -28 -181 -28 -250 0 -69 28 -12 50 125 50 138 0 194 -22 125 -50z m2715 -32 c-391 -158 -1687 -160 -1590 -2 34 55 452 97 931 94 580 -5 799 -35 659 -92z m3710 -2 c-34 -55 -104 -100 -156 -100 -52 0 -94 45 -94 100 0 55 70 100 156 100 86 0 128 -45 94 -100z m8406 9 c-63 -100 -311 -88 -420 21 -38 39 53 70 203 70 150 0 247 -41 217 -91z m-34956 -109 c0 -55 -90 -100 -200 -100 -110 0 -200 45 -200 100 0 55 90 100 200 100 110 0 200 -45 200 -100z m2691 1 c-93 -54 -278 -57 -450 -5 -269 80 -256 87 159 92 322 4 405 -20 291 -87z m11644 -201 c-33 -165 -33 -300 1 -300 34 0 320 135 638 300 459 239 636 283 873 219 295 -81 293 -83 -347 -403 l-643 -321 -703 167 c-1058 250 -1046 242 -604 442 220 100 500 185 623 189 194 6 215 -30 162 -293z m13265 100 c0 -110 11 -200 25 -199 14 1 246 68 516 150 574 174 859 190 859 47 0 -56 -124 -156 -275 -222 -151 -65 -443 -222 -648 -347 -457 -281 -626 -284 -1205 -29 -249 111 -796 230 -1216 265 -419 36 -786 103 -815 150 -29 47 -39 86 -22 87 17 2 267 29 556 62 354 39 525 22 525 -53 0 -146 356 -142 632 8 179 97 582 206 993 270 41 6 75 -79 75 -189z m-38157 -99 c31 -110 83 -292 115 -404 51 -182 26 -197 -225 -137 -156 37 -366 110 -467 162 -176 90 -174 107 42 337 276 293 460 308 535 42z m11976 131 c-72 -29 -159 -26 -192 8 -33 33 26 56 131 52 117 -5 141 -28 61 -60z m2631 -132 c-79 -249 191 -271 614 -51 157 83 489 145 736 139 336 -9 387 -28 200 -75 -137 -35 -376 -148 -529 -252 -177 -120 -443 -187 -725 -182 -839 13 -796 -1 -625 196 84 96 133 231 108 300 -25 69 29 125 119 125 120 0 148 -55 102 -200z m15450 50 c0 -165 305 -204 455 -58 52 51 264 123 470 161 313 58 375 41 375 -101 0 -144 64 -159 425 -99 234 38 395 38 358 0 -85 -89 -658 -233 -1433 -361 -330 -55 -751 -126 -935 -158 l-336 -58 166 253 c111 169 131 274 59 319 -153 94 -27 252 202 252 107 0 194 -67 194 -150z m4600 50 c0 -55 -79 -103 -175 -106 -96 -3 -512 -23 -925 -46 l-750 -40 450 133 c546 161 1400 197 1400 59z m-27653 -376 c-76 -151 -386 -443 -691 -648 -519 -349 -552 -359 -529 -149 14 134 -27 213 -102 198 -473 -95 398 668 955 837 472 142 536 101 367 -238z m2291 94 c-115 -92 -236 -246 -270 -342 -51 -144 -107 -156 -332 -71 -204 78 -365 65 -660 -53 -384 -154 -576 -134 -576 59 0 163 821 484 1250 488 220 2 466 46 547 97 237 150 270 6 41 -178z m18580 -52 c-39 -319 21 -326 532 -66 666 339 1115 239 736 -165 -171 -182 -191 -258 -96 -373 98 -119 37 -170 -362 -303 -265 -88 -715 -317 -1001 -509 -285 -193 -554 -350 -596 -350 -72 0 -831 785 -831 860 0 37 1074 540 1153 540 164 0 -2 -286 -253 -434 -165 -98 -300 -220 -300 -272 0 -134 45 -122 575 152 261 136 557 270 656 300 265 77 99 265 -174 197 -156 -39 -249 -7 -290 100 -80 208 -348 198 -717 -26 -384 -234 -815 -342 -1059 -264 -254 80 -245 247 14 247 114 0 406 91 651 203 622 283 1176 476 1294 451 55 -12 86 -141 68 -288z m14955 65 c20 -59 -117 -136 -303 -171 -587 -110 -1517 -604 -1423 -755 25 -41 322 60 661 222 478 230 705 284 1013 243 384 -52 394 -45 333 201 -64 254 -62 254 491 209 305 -26 585 -77 623 -114 126 -127 -316 -356 -985 -511 -998 -230 -1183 -319 -1183 -568 0 -205 11 -208 182 -53 190 172 1125 493 1204 413 106 -106 -331 -438 -614 -466 -169 -17 -324 -84 -345 -148 -24 -75 37 -98 167 -63 139 36 206 5 206 -93 0 -216 -347 -491 -531 -420 -221 84 -847 -136 -960 -337 -85 -151 -109 -152 -276 -8 -101 87 -262 186 -358 220 -281 99 -203 226 200 325 206 51 353 138 325 193 -67 135 -617 67 -786 -97 -112 -109 -239 -59 -750 295 -338 234 -783 486 -989 559 -384 137 -513 391 -200 395 96 1 490 114 875 250 385 136 903 264 1150 284 248 21 330 18 182 -5 -147 -23 -321 -107 -387 -187 -66 -79 -175 -144 -242 -144 -155 0 -473 -346 -392 -427 33 -34 225 44 425 174 200 129 600 266 889 304 289 37 559 120 600 185 194 302 1105 375 1198 95z m-35073 123 c0 -26 -101 -101 -225 -167 -204 -109 -212 -104 -88 47 128 155 313 225 313 120z m4600 -354 c0 -356 289 -332 800 67 83 65 279 150 436 189 286 71 286 71 123 -178 -223 -341 -21 -518 483 -423 215 40 358 28 358 -32 0 -172 -284 -342 -622 -373 -181 -16 -500 -75 -710 -131 -302 -80 -392 -72 -434 37 -73 191 -668 287 -1019 164 -227 -79 -324 -68 -443 51 -83 83 -347 167 -587 187 -239 19 -595 63 -791 97 -260 46 -391 20 -487 -96 -72 -88 -174 -159 -227 -159 -52 0 54 123 237 273 183 151 356 305 385 344 28 38 284 101 568 138 l516 69 32 -332 32 -332 352 310 c322 284 737 443 923 354 41 -20 75 -120 75 -224z m32219 232 c-72 -29 -159 -26 -192 8 -33 33 26 56 131 52 117 -5 141 -28 61 -60z m11861 -127 c591 -81 1076 -405 608 -405 -140 0 -286 31 -324 69 -38 38 -169 83 -292 100 -122 17 -436 80 -697 141 -592 137 -780 351 -214 243 214 -41 628 -107 919 -148z m2190 -155 c319 -192 636 -350 705 -350 118 0 157 -107 100 -273 -35 -103 -395 -33 -575 112 -83 67 -397 229 -700 360 -302 132 -616 298 -696 370 -124 111 -90 131 220 131 241 0 564 -119 946 -350z m1027 252 c259 -139 1235 -183 1842 -84 281 45 1119 83 1861 83 1192 0 1636 -43 2717 -266 147 -31 363 -157 479 -281 l212 -226 -529 -51 c-982 -97 -1933 -5 -2395 231 -412 210 -467 214 -1233 89 -1319 -216 -2214 -149 -2832 210 -182 106 -393 193 -469 193 -76 0 -166 45 -200 100 -80 129 307 130 547 2z m-54578 -351 c-22 -192 -84 -323 -136 -291 -139 86 -659 -152 -728 -333 -86 -224 24 -288 250 -147 122 76 195 83 195 18 0 -164 -476 -302 -725 -210 -124 46 -281 63 -350 39 -317 -111 -32 288 550 773 169 140 808 479 930 494 30 3 36 -151 14 -343z m516 195 c-33 -85 -81 -133 -107 -107 -27 26 -18 96 18 154 98 160 156 129 89 -47z m62262 -84 c568 -303 674 -538 138 -306 -212 92 -565 213 -785 269 -571 146 -662 275 -193 275 226 0 587 -102 840 -238z m2103 149 c0 -48 -135 -108 -300 -132 -298 -44 -414 58 -175 155 209 84 475 71 475 -23z m-66890 -200 c-160 -123 -223 -251 -189 -382 88 -336 -623 -583 -996 -346 -147 93 230 399 750 610 179 72 325 171 325 219 0 48 79 87 175 86 144 -2 132 -35 -65 -187z m5490 -567 c0 -73 -49 -163 -109 -200 -61 -37 -90 -170 -66 -295 40 -212 3 -230 -566 -274 -335 -26 -641 -29 -681 -7 -39 22 171 260 468 528 394 357 596 474 747 435 114 -30 207 -114 207 -187z m-1636 -254 c-109 -156 -127 -264 -58 -348 77 -92 -31 -123 -455 -128 -531 -6 -551 3 -422 186 158 226 557 548 771 623 247 86 334 -91 164 -333z m2736 -77 c0 -242 -49 -298 -312 -350 -678 -136 -733 50 -131 435 399 255 443 246 443 -85z m-4176 -62 c44 -228 20 -247 -288 -225 -385 28 -395 43 -171 291 230 254 403 229 459 -66z m5540 -1 c-11 -196 -68 -250 -264 -251 -137 -1 -351 -29 -475 -62 -280 -75 -288 58 -21 344 118 127 324 219 489 219 242 0 284 -38 271 -250z m1201 81 c-144 -144 -776 -314 -738 -199 21 62 147 143 280 180 333 93 540 102 458 19z m31758 -710 c162 -367 189 -663 182 -2044 -6 -1470 -25 -1635 -206 -1828 -109 -117 -199 -243 -199 -280 0 -134 280 -67 336 81 32 82 365 349 742 592 l684 443 666 -179 c366 -98 780 -253 919 -345 278 -182 340 -461 103 -461 -285 0 -149 -297 225 -490 555 -288 1060 -689 1086 -862 26 -183 341 -462 914 -809 426 -259 477 -439 125 -439 -294 0 -345 -200 -96 -374 124 -87 377 -291 563 -454 315 -277 326 -306 160 -434 -165 -128 -153 -158 173 -455 352 -320 698 -769 699 -908 1 -41 -86 -75 -193 -75 -395 0 -309 -227 309 -820 l635 -607 -325 -101 c-179 -56 -324 -151 -324 -211 1 -61 248 -282 550 -492 576 -400 662 -533 377 -587 -118 -23 -8 -138 357 -372 578 -372 1015 -926 1015 -1290 0 -192 -37 -222 -212 -166 -153 48 -199 29 -167 -69 64 -194 424 -221 572 -44 191 230 -27 764 -550 1345 -243 271 -443 538 -443 593 0 108 -574 641 -867 804 -171 96 -171 110 -4 294 226 250 149 462 -361 995 -376 393 -393 435 -243 600 159 176 121 355 -145 677 -46 55 -172 208 -279 338 -143 174 -170 284 -100 415 78 145 -6 263 -454 646 -542 463 -614 652 -247 652 391 0 275 193 -416 698 -535 390 -679 543 -575 608 114 70 104 114 -59 237 -110 83 -239 152 -286 154 -163 6 -865 621 -810 710 68 109 -110 467 -377 761 -169 185 -725 451 -1404 670 -266 86 -33 404 577 786 416 260 601 313 1100 313 835 0 1325 -72 1468 -215 74 -74 411 -122 852 -122 669 0 730 -17 730 -205 0 -112 107 -304 238 -425 131 -121 356 -465 500 -764 297 -615 294 -606 172 -606 -50 0 -181 154 -292 342 -200 339 -932 758 -1325 758 -100 0 -204 37 -233 83 -72 117 -1351 344 -1702 302 -564 -68 -372 -236 229 -202 447 26 741 -26 1225 -216 351 -137 751 -281 888 -320 362 -102 600 -344 600 -608 0 -182 70 -243 341 -294 229 -43 358 -132 395 -271 43 -164 83 -183 193 -91 77 63 169 86 205 49 114 -114 72 -232 -84 -232 -276 0 -154 -208 225 -382 561 -257 925 -524 925 -680 0 -76 -67 -138 -150 -138 -320 0 -112 -317 500 -760 220 -159 433 -334 473 -389 136 -187 78 -351 -123 -351 -302 0 -241 -218 150 -529 398 -317 439 -466 150 -542 -110 -29 -200 -77 -200 -108 0 -97 327 -421 426 -421 131 0 788 -524 1035 -827 144 -175 339 -539 339 -632 0 -40 -82 2 -182 92 -229 208 -818 337 -818 180 0 -62 102 -113 227 -113 125 0 397 -140 605 -311 305 -252 437 -300 684 -251 195 39 436 -1 668 -111 397 -188 1289 -1016 1565 -1452 225 -355 602 -364 872 -21 134 170 260 234 383 195 121 -39 219 8 287 135 57 107 341 365 632 573 407 293 646 390 1049 424 493 41 549 20 1020 -374 314 -263 477 -471 442 -562 -79 -208 -184 -182 -556 137 -732 628 -1307 619 -1687 -25 -112 -190 -337 -405 -500 -477 -280 -123 -292 -154 -235 -580 34 -247 82 -528 109 -624 35 -127 5 -158 -108 -115 -87 33 -157 90 -157 126 0 115 -405 322 -507 259 -55 -34 116 -273 379 -532 490 -482 894 -1096 1128 -1714 73 -192 316 -539 541 -769 1317 -1351 1291 -1314 1338 -1879 39 -467 18 -547 -171 -648 -119 -63 -304 -87 -412 -53 -111 36 -196 16 -196 -44 0 -59 -157 -107 -350 -107 -396 0 -468 203 -185 517 137 151 141 183 20 183 -214 0 -385 -208 -385 -470 0 -254 -97 -293 -280 -110 -180 180 -147 376 122 728 166 218 213 362 151 459 -145 229 -110 593 57 593 83 0 150 -45 150 -100 0 -55 68 -100 150 -100 83 0 150 31 150 69 0 117 -429 531 -551 531 -126 0 -349 -418 -349 -655 0 -234 -185 -169 -564 199 -310 301 -383 330 -594 234 -131 -60 -309 -215 -394 -345 l-155 -236 -333 266 -334 266 -11 961 c-11 956 -12 961 -338 1239 -180 153 -417 296 -527 317 -1743 331 -2276 343 -3213 69 -694 -202 -1262 -211 -1937 -29 -192 52 -609 142 -925 199 -971 176 -1652 906 -1353 1450 155 283 146 2098 -17 3065 -208 1237 -768 2154 -1504 2463 -261 110 -408 120 -580 42 -412 -188 -1137 -122 -1571 142 -877 533 -1327 737 -1772 804 -421 63 -474 101 -536 385 -38 172 -215 652 -394 1064 -282 647 -321 839 -289 1400 20 358 -14 1160 -77 1784 -90 902 -161 1204 -348 1479 -129 190 -234 374 -234 408 0 34 124 186 275 337 329 329 461 261 748 -387z m-912 -672 c213 -483 420 -1979 370 -2675 l-31 -424 -193 350 c-107 193 -209 591 -227 886 -42 675 -400 1547 -603 1469 -79 -30 -128 -21 -108 20 257 537 434 825 505 825 48 0 177 -203 287 -451z m-49293 126 c23 -163 217 -321 704 -575 788 -410 759 -384 874 -786 112 -389 7 -406 -205 -32 -95 166 -383 386 -707 539 -536 254 -884 618 -884 925 0 240 182 181 218 -71z m48582 150 c1 -149 -452 -925 -539 -925 -49 0 -146 78 -216 173 -102 141 -100 224 12 441 76 147 196 291 266 319 198 80 477 75 477 -8z m-21635 -949 c92 -149 -289 -488 -815 -726 -569 -257 -2369 -458 -2008 -224 106 68 353 261 550 428 688 584 817 637 1538 623 374 -7 705 -53 735 -101z m21833 -272 c224 -438 272 -944 84 -881 -65 21 -147 104 -183 183 -36 79 -131 279 -211 444 -150 311 -141 650 17 650 50 0 182 -178 293 -396z m-20041 130 c614 -208 1096 -511 1521 -956 272 -285 313 -385 240 -582 l-88 -239 -120 225 c-139 259 -347 191 -259 -85 33 -103 9 -372 -51 -599 -82 -302 -203 -465 -456 -615 -489 -289 -433 -544 63 -279 246 132 244 89 -50 -754 -134 -385 -270 -824 -302 -975 -55 -259 -91 -275 -596 -275 -296 0 -824 -87 -1173 -193 -772 -235 -1533 -352 -1682 -259 -75 46 -43 177 101 410 274 443 194 819 -261 1233 -414 378 -447 729 -112 1219 l232 340 760 -28 c692 -25 775 -7 918 198 87 123 158 347 158 496 0 149 50 398 112 552 108 272 116 259 247 -361 87 -411 101 -684 41 -757 -53 -64 -371 -202 -708 -308 -641 -201 -1092 -593 -1092 -948 0 -113 158 -291 386 -435 408 -258 492 -421 466 -909 -21 -408 91 -453 554 -224 385 191 394 207 394 729 0 602 210 845 731 845 185 0 270 44 241 125 -67 191 -684 98 -940 -141 -169 -160 -230 -345 -252 -772 -27 -496 -56 -566 -255 -594 -192 -27 -225 14 -225 282 0 425 -133 642 -549 899 -193 120 -351 263 -351 318 0 182 442 469 824 535 205 36 525 168 711 294 186 126 500 283 698 348 530 175 967 622 967 990 0 459 -166 823 -345 754 -113 -43 -126 -105 -53 -241 115 -215 127 -702 21 -849 -135 -189 -638 -464 -762 -416 -67 26 -183 231 -257 457 -120 363 -117 431 30 593 91 101 166 214 166 251 0 115 -554 73 -678 -51 -187 -187 -225 -54 -102 348 62 203 86 397 53 430 -119 120 -273 -78 -273 -351 0 -154 -102 -431 -227 -617 -363 -538 -775 -757 -1578 -836 -843 -83 -995 -131 -995 -314 0 -149 416 -114 928 80 466 176 443 -12 -58 -479 -302 -281 -568 -443 -728 -443 -444 0 -955 -757 -642 -950 160 -99 326 48 211 187 -121 145 -35 294 257 448 334 175 410 143 487 -209 42 -189 237 -475 471 -688 383 -350 395 -381 306 -752 l-92 -386 -464 33 c-439 31 -489 6 -953 -460 -269 -271 -516 -560 -547 -642 -32 -83 -337 -360 -677 -616 -519 -390 -690 -465 -1061 -465 l-442 0 213 425 c280 558 577 874 757 805 79 -30 319 85 533 257 214 172 431 313 483 313 51 0 150 68 219 152 103 123 87 271 -86 797 -164 499 -189 706 -111 912 78 204 65 322 -55 505 -87 132 -130 283 -97 337 33 53 -10 97 -96 97 -86 0 -156 -67 -156 -150 0 -82 -84 -150 -187 -150 -104 0 -362 -160 -575 -355 -280 -256 -448 -339 -607 -299 -120 30 -250 5 -287 -56 -43 -69 -214 -88 -444 -52 -285 46 -435 13 -623 -135 -164 -129 -479 -215 -937 -257 -833 -75 -1214 -207 -1291 -448 -131 -413 -308 -432 -995 -107 -684 323 -751 404 -505 608 178 148 105 316 -102 236 -289 -111 -138 186 365 718 281 297 607 568 725 600 117 33 303 99 413 147 110 47 358 153 550 234 193 82 868 224 1500 317 633 93 1330 232 1550 308 220 76 544 139 719 140 176 0 346 44 379 97 37 61 151 55 305 -16 201 -91 282 -80 438 62 140 127 465 193 1225 250 1186 88 1673 289 2204 907 290 337 386 385 787 393 252 4 679 -67 950 -158z m-23005 -791 c160 -43 203 -138 203 -451 0 -338 61 -453 422 -782 407 -372 533 -610 323 -610 -55 0 -100 40 -100 90 0 139 -913 682 -1274 758 -438 91 -468 178 -228 649 207 406 283 446 654 346z m52390 -129 c29 -48 252 -142 494 -210 380 -106 492 -100 797 45 195 92 429 153 520 135 146 -30 142 -61 -38 -267 -184 -212 -267 -230 -884 -191 -1038 67 -1796 288 -1672 489 69 111 714 110 783 -1z m2959 -165 c59 -71 151 -404 205 -741 122 -757 433 -1371 787 -1554 150 -78 521 -134 837 -126 672 16 819 -85 676 -462 -124 -326 -492 -358 -756 -66 -188 208 -550 274 -550 100 0 -55 45 -100 100 -100 55 0 193 -93 306 -206 149 -149 307 -197 575 -175 203 17 347 66 319 110 -62 97 211 276 320 209 44 -28 80 -202 80 -389 0 -333 -5 -337 -301 -234 -166 58 -365 81 -443 51 -245 -94 -870 139 -1115 417 -129 147 -285 413 -346 592 -133 392 -406 428 -593 79 -158 -295 -84 -1364 128 -1873 188 -448 905 -1181 1157 -1181 111 0 323 -104 471 -231 l269 -232 -171 -393 c-348 -802 -605 -1244 -704 -1212 -56 19 -151 132 -211 251 -61 120 -364 400 -674 622 -503 360 -551 424 -443 596 104 166 75 241 -205 529 -313 323 -319 346 -175 624 133 257 132 306 -6 460 -133 146 -140 274 -47 873 135 869 137 1113 9 1113 -55 0 -100 -58 -100 -128 0 -71 -139 -211 -309 -311 -244 -145 -333 -157 -425 -59 -88 94 -85 134 14 171 72 26 241 222 376 436 175 278 306 382 459 365 188 -21 230 58 355 664 78 378 118 750 89 825 -115 299 -360 105 -676 -536 -422 -854 -635 -1083 -1133 -1218 -530 -143 -640 -133 -413 39 160 121 167 162 48 281 -76 77 -239 193 -362 259 -123 65 -223 165 -223 221 0 57 40 78 89 48 48 -30 144 12 212 94 70 85 289 149 508 149 307 0 483 85 880 425 348 298 498 502 504 683 4 142 32 284 63 314 83 83 422 -25 545 -173z m-33638 -174 c-33 -124 -61 -304 -62 -400 -1 -222 -356 -583 -524 -532 -525 157 -524 137 -14 642 553 548 686 612 600 290z m34616 100 c57 -69 136 -302 177 -519 40 -217 181 -502 312 -633 201 -201 301 -229 625 -174 237 40 412 24 453 -42 125 -202 226 -107 177 168 -27 151 -140 376 -253 500 -234 257 -177 389 104 239 104 -56 495 -155 868 -220 818 -142 1300 -503 1403 -1050 81 -437 212 -494 682 -297 589 246 1197 201 1509 -111 145 -145 264 -324 264 -397 0 -74 113 -208 250 -298 138 -90 250 -248 250 -351 0 -287 934 -726 1392 -655 324 51 340 43 171 -85 -410 -307 -1420 157 -2213 1018 -529 574 -554 583 -1575 550 -486 -15 -575 -47 -575 -203 0 -288 573 -1015 801 -1015 433 0 64 -425 -501 -577 -205 -55 -337 -148 -320 -225 17 -72 -21 -255 -84 -407 -63 -152 -85 -370 -48 -484 87 -275 575 -276 1218 0 678 291 1019 201 1737 -460 324 -298 714 -569 868 -602 153 -34 413 -104 577 -156 256 -81 360 -51 728 208 479 338 624 374 624 154 0 -235 -717 -651 -1156 -670 -671 -28 -1420 247 -2043 752 -472 382 -650 467 -977 467 -239 0 -451 -62 -529 -155 -257 -310 -489 -366 -1003 -243 -375 90 -492 163 -492 308 0 123 70 190 200 190 110 0 199 34 198 75 -5 156 -388 569 -460 496 -42 -42 -80 -477 -83 -966 -7 -948 -52 -1100 -253 -857 -70 83 -188 152 -264 152 -196 0 -174 -464 54 -1127 l192 -559 -215 -143 c-143 -95 -208 -231 -193 -407 28 -335 -15 -331 -406 36 -176 165 -403 327 -505 360 -164 53 -181 149 -147 825 33 646 99 882 422 1515 542 1061 742 1864 770 3100 19 831 -16 1160 -168 1574 -106 288 -248 524 -317 525 -175 1 -156 -213 70 -785 141 -358 194 -741 195 -1393 2 -1069 -191 -1817 -777 -3011 -352 -717 -413 -934 -413 -1475 0 -349 -34 -634 -75 -633 -41 1 -184 86 -318 189 l-242 186 231 737 c127 405 478 1226 780 1826 l549 1089 -46 1028 c-51 1142 -216 1567 -572 1474 -325 -85 -1178 168 -1435 425 -131 131 -294 424 -362 651 -69 228 -148 477 -178 553 -67 175 205 187 347 15z m16414 -1138 c528 -677 1049 -1880 917 -2116 -54 -95 -52 -260 3 -405 51 -134 69 -268 39 -297 -29 -29 -281 0 -560 64 -279 64 -635 117 -791 117 -215 0 -336 82 -493 337 -114 185 -210 399 -212 475 -4 137 -653 683 -1438 1212 -231 156 -619 303 -895 340 -290 39 -431 94 -350 137 196 103 1467 204 1505 120 18 -39 297 -251 621 -471 734 -499 1692 -1426 1912 -1851 100 -194 202 -286 257 -231 138 138 -580 1827 -950 2232 -485 533 -581 682 -511 796 162 262 517 90 946 -459z m-64703 -212 c-5 -206 -39 -615 -75 -909 l-65 -534 -242 259 c-134 142 -306 259 -383 259 -101 0 -81 74 74 271 125 159 206 396 197 575 -24 445 -19 454 254 454 224 0 249 -39 240 -375z m1742 210 c36 -36 -80 -173 -258 -304 -382 -282 -458 -442 -467 -991 -8 -475 267 -813 564 -690 148 60 153 82 29 123 -406 135 -545 851 -225 1162 664 644 864 725 1839 746 914 19 930 15 697 -156 -131 -96 -491 -409 -800 -694 -525 -486 -561 -549 -561 -979 l0 -459 -736 23 c-494 16 -752 66 -785 154 -28 71 -134 130 -235 130 -114 0 -288 174 -451 453 -236 403 -252 485 -142 749 67 163 101 409 75 547 -48 249 -43 251 671 251 396 0 749 -29 785 -65z m52225 -123 c-30 -49 -179 -112 -331 -141 -152 -29 -388 -83 -526 -120 l-250 -68 250 206 c242 200 969 303 857 123z m1315 -187 c36 -96 282 -389 547 -650 364 -358 557 -475 788 -475 261 0 302 -34 275 -225 -28 -196 -86 -223 -454 -207 -512 22 -1212 470 -1524 976 -118 191 -336 438 -484 548 l-270 202 528 3 c413 2 543 -35 594 -172z m1774 -60 c254 -185 110 -365 -291 -365 -302 0 -455 130 -455 387 0 131 560 114 746 -22z m904 -65 c-34 -55 -82 -100 -106 -100 -24 0 -44 45 -44 100 0 55 48 100 106 100 58 0 78 -45 44 -100z m2850 -301 c-169 -314 -41 -688 278 -811 150 -58 565 -167 922 -243 1146 -243 1210 -267 1370 -511 86 -132 140 -254 119 -271 -22 -17 -545 -87 -1164 -155 l-1125 -125 -393 312 c-673 532 -766 1268 -232 1829 295 310 398 299 225 -25z m-1000 66 c0 -19 -73 -181 -163 -360 -200 -403 -75 -925 341 -1420 l272 -325 -345 195 c-602 340 -817 643 -766 1080 24 211 146 493 270 625 197 209 391 311 391 205z m-50219 -686 c27 -232 -16 -283 -300 -357 l-331 -88 34 -592 c20 -330 99 -664 180 -755 128 -143 126 -183 -16 -325 -402 -402 -715 -76 -805 839 -69 703 -173 876 -295 492 -42 -131 -121 -186 -215 -150 -82 31 -395 57 -695 57 -511 0 -538 12 -440 196 89 166 194 192 679 168 616 -30 731 12 1415 515 516 380 745 380 789 0z m38476 -962 c95 -202 327 -513 515 -692 306 -291 404 -325 929 -325 610 0 795 -96 560 -291 -97 -80 -215 -84 -405 -11 -148 56 -376 102 -508 102 -289 0 -748 198 -748 323 0 49 -129 198 -286 331 -299 251 -634 833 -554 963 92 149 328 -41 497 -400z m-38343 -122 c144 -468 143 -511 -17 -597 -269 -143 -519 195 -446 606 117 664 257 662 463 -9z m44720 -232 c180 -75 456 -256 614 -402 484 -449 916 -666 1449 -729 629 -75 798 -293 485 -628 -280 -301 -748 -225 -1328 216 -239 181 -718 547 -1064 811 -346 265 -762 508 -925 541 -275 55 -282 68 -111 193 234 171 467 171 880 -2z m-16584 -516 c110 -42 352 -189 537 -326 185 -137 603 -332 927 -433 546 -170 625 -172 1048 -29 422 144 471 142 648 -18 278 -251 421 -863 277 -1180 -168 -368 -287 -224 -287 345 0 291 -45 494 -109 494 -116 0 -79 -870 53 -1260 47 -139 15 -266 -93 -375 -294 -294 -367 -194 -304 419 58 562 -53 1116 -223 1116 -45 0 -63 -442 -42 -982 33 -822 12 -1009 -128 -1150 -93 -92 -236 -168 -318 -168 -126 0 -139 125 -80 798 48 556 32 891 -55 1100 -145 350 -357 420 -233 77 131 -360 62 -2089 -88 -2226 -72 -64 -373 -219 -670 -342 -434 -181 -587 -204 -780 -116 -132 60 -378 109 -546 109 l-307 0 80 775 c105 1012 63 2023 -118 2804 -80 347 -122 668 -93 715 51 82 490 11 904 -147z m-22594 -70 c31 -31 3 -342 -63 -692 -66 -349 -125 -1209 -132 -1910 l-11 -1275 -382 0 c-233 0 -558 -103 -831 -263 -858 -503 -1894 -146 -2672 922 -748 1026 -965 1964 -611 2649 324 627 658 737 1144 377 344 -254 882 -222 1852 109 558 190 1551 238 1706 83z m-7956 -771 c0 -52 -43 -121 -96 -154 -61 -37 -62 -150 -3 -305 118 -310 17 -847 -159 -847 -72 0 -172 -71 -220 -158 -52 -92 -264 -175 -505 -198 -386 -37 -417 -22 -417 203 0 134 -52 358 -116 499 -64 140 -88 284 -53 319 106 106 363 -170 469 -503 92 -291 96 -282 57 125 -47 499 10 713 188 713 68 0 205 90 305 200 185 205 550 275 550 106z m2338 -1220 c-297 -327 -852 -531 -1454 -534 -480 -2 -641 -53 -1039 -334 -366 -258 -553 -325 -833 -300 -491 44 -553 -146 -85 -261 323 -80 416 -61 650 128 512 414 1018 603 1358 505 357 -102 599 -45 996 234 154 109 296 182 314 162 19 -20 4 -216 -33 -436 -65 -391 -76 -400 -465 -389 -218 6 -562 45 -763 87 -308 63 -503 12 -1252 -333 -930 -429 -1274 -454 -1386 -102 -78 246 -502 526 -653 433 -78 -48 -93 -237 -48 -580 64 -486 59 -501 -114 -347 -289 257 -905 474 -1257 442 -408 -36 -428 -211 -24 -211 363 0 942 -265 1199 -549 185 -204 184 -212 -32 -429 l-221 -220 -226 284 c-313 392 -940 459 -1603 173 -575 -248 -567 -247 -567 -66 0 79 91 172 202 208 111 35 290 237 398 449 108 212 285 414 393 448 215 68 1607 1406 1607 1545 0 86 238 207 408 207 51 0 92 -68 92 -150 0 -182 117 -193 284 -26 99 99 144 94 219 -25 51 -82 79 -194 62 -249 -43 -134 -693 -139 -799 -6 -51 63 -62 36 -29 -69 37 -113 5 -175 -90 -175 -81 0 -147 -46 -147 -102 0 -57 -112 -146 -250 -198 -137 -52 -250 -141 -250 -198 0 -152 88 -128 578 159 439 258 454 259 936 103 493 -159 884 -109 1033 131 124 200 799 423 1385 456 502 28 652 87 1100 437 l518 406 32 -256 c19 -144 -44 -341 -144 -452z m32446 153 c213 -438 325 -1083 468 -2699 65 -733 -133 -1734 -385 -1945 -64 -54 -432 -331 -817 -615 -385 -284 -1065 -846 -1511 -1248 -447 -403 -866 -732 -931 -732 -66 0 -98 -36 -71 -80 28 -44 -105 -387 -294 -762 -188 -375 -346 -800 -350 -945 -4 -145 -40 -346 -80 -448 -133 -338 -329 75 -432 909 -52 427 -134 911 -182 1076 -47 165 -109 458 -138 650 -81 545 -347 1222 -575 1465 l-207 220 223 683 c178 541 329 785 736 1184 281 276 692 586 912 687 1155 535 1989 991 2202 1204 394 394 948 1330 948 1602 0 401 238 300 484 -206z m-31625 -813 c327 -748 662 -1146 1360 -1615 506 -340 696 -411 1094 -411 628 0 1434 -366 1901 -863 419 -445 418 -443 685 -1838 423 -2212 697 -3182 1003 -3552 92 -110 -46 -217 -718 -555 -457 -230 -971 -525 -1142 -655 -175 -134 -449 -237 -626 -237 -366 0 -369 8 -155 421 332 643 105 1454 -642 2293 -347 390 -433 854 -505 2746 -46 1212 -105 1758 -201 1874 -205 248 -331 92 -173 -215 97 -188 149 -770 174 -1944 20 -921 10 -1675 -21 -1675 -31 0 -218 146 -416 325 -337 305 -366 380 -474 1232 -63 499 -104 1129 -91 1400 32 632 -100 1524 -237 1608 -71 45 -85 -42 -41 -262 37 -181 94 -829 128 -1441 33 -612 95 -1302 136 -1534 41 -232 52 -444 24 -472 -27 -28 -176 24 -330 114 -314 186 -433 516 -339 943 45 204 20 303 -85 344 -203 78 -295 781 -276 2100 15 1065 -33 1443 -185 1443 -122 0 3 -2821 152 -3414 171 -686 171 -687 16 -683 -209 5 -507 488 -389 630 64 78 68 178 10 270 -51 81 -100 327 -109 547 l-17 400 -61 -450 c-60 -446 -62 -448 -201 -202 -100 178 -135 561 -123 1337 10 598 44 1131 77 1184 32 53 75 239 95 414 62 553 155 1112 210 1267 40 111 81 86 159 -100 58 -137 207 -486 333 -774z m47697 99 c42 -96 94 -314 115 -483 34 -266 -13 -343 -341 -557 -564 -368 -1388 -523 -1993 -375 -563 138 -1037 357 -1037 481 0 47 -242 208 -538 358 -704 356 -1072 290 -1415 -254 -291 -461 -514 -595 -990 -595 -514 0 -484 277 39 361 303 48 500 176 833 538 391 424 496 481 994 543 661 83 1458 -113 2250 -552 288 -159 617 -290 731 -290 251 0 969 557 1051 815 74 233 201 237 301 10z m-65832 -442 c323 -157 314 -242 -48 -462 -320 -194 -338 -181 -431 320 -79 421 -91 418 479 142z m16036 -379 c160 -52 470 -111 690 -131 l400 -35 -35 -494 c-19 -272 -49 -508 -65 -526 -76 -80 -450 248 -450 394 0 196 -534 441 -716 328 -71 -44 -355 -83 -631 -88 -577 -11 -1734 -511 -1567 -678 64 -64 289 11 643 214 597 342 1043 402 1138 153 45 -116 143 -143 372 -100 641 120 1254 -592 1087 -1264 -75 -300 -407 -771 -750 -1061 -170 -144 -276 -333 -276 -492 0 -303 258 -624 502 -624 254 0 698 -386 698 -607 0 -106 68 -193 150 -193 472 0 -186 922 -736 1032 -419 84 -519 438 -201 712 131 113 343 353 470 532 252 354 417 347 417 -18 0 -127 113 -396 250 -598 315 -465 314 -560 -8 -560 -164 0 -243 -46 -215 -125 27 -78 185 -114 417 -95 393 32 699 -129 587 -310 -36 -60 -74 -327 -83 -596 -11 -298 -127 -716 -300 -1077 -273 -573 -277 -607 -146 -1153 154 -644 68 -894 -309 -894 -185 0 -249 69 -302 330 -90 440 -130 465 -432 266 -251 -164 -259 -162 -259 46 0 307 290 708 512 708 212 0 242 106 76 272 -82 82 -38 207 164 472 152 199 242 394 200 434 -41 39 -126 -12 -189 -114 -62 -103 -327 -467 -588 -810 -505 -662 -895 -1605 -806 -1947 48 -183 9 -207 -327 -207 l-381 0 328 339 c321 331 325 344 170 643 -87 168 -201 332 -255 365 -149 93 190 577 766 1095 547 492 721 901 534 1251 -129 241 -605 507 -907 507 -328 0 -185 -206 247 -354 705 -243 732 -575 98 -1209 l-458 -458 -295 301 c-240 245 -354 292 -613 251 -666 -104 -1098 -654 -1008 -1281 82 -569 185 -633 512 -319 154 148 335 269 400 269 66 0 120 68 120 150 0 205 -124 188 -437 -57 -301 -237 -320 -199 -120 242 79 173 158 404 176 514 41 247 331 312 644 144 242 -129 318 -431 137 -543 -172 -106 -109 -611 100 -800 295 -267 245 -506 -157 -755 -265 -163 -387 -191 -470 -108 -151 151 -273 143 -273 -19 0 -95 -167 -131 -600 -127 -330 3 -600 40 -600 82 0 42 40 77 89 77 48 0 165 163 260 362 166 350 165 370 -42 650 -188 255 -201 338 -107 689 65 239 211 467 364 568 305 199 945 1051 1126 1500 84 206 236 356 435 425 288 100 296 117 140 289 -264 293 -201 642 183 1015 635 616 706 1366 156 1650 -377 195 -650 192 -958 -10 -196 -128 -247 -133 -249 -25 -2 98 -42 86 -136 -38 -73 -96 -218 -176 -322 -176 -304 -3 -639 -115 -639 -214 0 -53 218 -63 510 -24 366 48 533 32 589 -59 61 -99 145 -87 383 53 253 150 331 158 461 50 132 -108 157 -103 157 33 0 89 43 162 96 162 154 0 321 -390 255 -596 -102 -322 -457 -704 -655 -704 -104 0 -348 -76 -543 -169 -344 -164 -362 -162 -671 66 -278 206 -364 222 -697 133 -316 -84 -406 -72 -533 67 -209 232 -193 292 110 408 210 79 288 65 387 -71 116 -158 144 -154 399 47 322 253 452 209 452 -152 0 -250 7 -254 193 -85 126 114 266 151 407 106 149 -47 255 -13 347 112 111 153 156 160 292 47 139 -115 161 -106 161 62 0 279 -95 338 -336 210 -339 -182 -784 -194 -968 -27 -141 128 -216 133 -440 30 -214 -97 -286 -97 -346 0 -42 68 -151 94 -243 59 -223 -86 -211 74 29 379 162 207 239 489 297 1103 4 41 108 76 232 77 234 2 1080 352 1172 484 44 63 585 265 813 304 33 5 191 -33 350 -86z m-2909 -472 c285 -681 -43 -1507 -887 -2238 -371 -321 -392 -327 -525 -145 -77 104 -139 216 -139 249 0 33 269 321 597 641 636 620 778 961 671 1619 -69 428 79 362 283 -126z m45899 -432 c34 -55 17 -100 -38 -100 -55 0 -128 45 -162 100 -34 55 -17 100 38 100 55 0 128 -45 162 -100z m-36015 -147 c31 -81 15 -172 -36 -203 -140 -87 -1406 158 -1343 260 31 50 341 90 689 90 465 0 649 -39 690 -147z m-8035 -753 c-196 -127 -328 -127 -250 0 34 55 138 99 231 98 146 -1 148 -14 19 -98z m47021 -653 c165 -138 568 -327 896 -418 364 -101 635 -240 698 -358 57 -105 234 -329 394 -496 403 -422 385 -713 -53 -847 -404 -124 -472 -85 -362 207 88 234 -12 603 -194 715 -165 102 -258 -32 -118 -172 327 -327 18 -1219 -576 -1657 -304 -225 -399 -421 -204 -421 56 0 292 198 525 440 412 429 794 584 1049 426 77 -48 149 -18 185 78 83 216 247 198 171 -19 -90 -258 -533 -709 -932 -952 -192 -116 -387 -272 -431 -345 -64 -105 -208 -65 -675 183 -327 174 -594 356 -594 403 0 48 180 249 400 448 318 287 400 431 400 703 0 482 -220 950 -593 1264 -309 260 -558 808 -448 985 79 129 135 109 462 -167z m5613 -414 c173 -173 -878 -833 -1328 -833 -93 0 -284 -124 -426 -275 -204 -218 -273 -421 -329 -975 -40 -385 -132 -816 -206 -959 -164 -318 -768 -790 -1013 -793 -100 0 -249 -47 -332 -103 -111 -76 -32 -96 300 -76 399 25 454 3 482 -196 18 -122 76 -223 129 -223 154 0 1420 401 1628 515 173 95 184 76 127 -209 -138 -693 663 -415 1914 664 831 716 1230 857 727 255 -498 -595 -507 -609 -507 -771 0 -231 169 -188 671 171 476 341 1529 1535 1529 1734 0 64 62 168 138 231 106 88 339 47 1006 -177 928 -312 1118 -413 774 -413 -139 0 -301 -133 -457 -375 -419 -650 -1777 -1880 -2672 -2419 -473 -286 -923 -530 -1000 -543 -76 -13 -274 -94 -439 -180 -232 -121 -548 -149 -1400 -124 -605 18 -1717 42 -2472 55 l-1372 22 203 329 c163 264 190 421 136 783 -65 433 -223 660 -695 994 -327 232 -117 271 303 56 483 -246 729 -268 547 -48 -189 228 12 397 654 551 688 165 894 425 988 1249 109 950 234 1232 665 1505 214 135 514 245 666 246 152 0 412 87 577 192 341 219 391 233 484 140z m-17334 -433 c0 -55 -45 -100 -100 -100 -55 0 -100 45 -100 100 0 55 45 100 100 100 55 0 100 -45 100 -100z m17800 -606 c0 -273 -57 -330 -541 -544 -531 -235 -875 -582 -1187 -1200 -190 -376 -663 -892 -744 -812 -33 34 3 140 81 236 251 312 391 618 391 851 0 461 454 1111 1014 1450 704 426 986 431 986 19z m-23516 -369 c145 -369 416 -1461 416 -1677 0 -149 -23 -154 -169 -35 -146 119 -160 116 -108 -25 34 -89 90 -382 126 -650 96 -712 139 -819 255 -635 79 125 93 122 94 -20 1 -91 -48 -183 -108 -203 -133 -44 70 -841 277 -1088 73 -87 133 -237 133 -333 0 -217 -223 -160 -256 65 -14 90 -119 265 -234 389 -116 123 -214 261 -219 306 -5 44 -17 250 -27 456 -35 710 -292 1573 -577 1943 -268 345 -279 398 -188 877 169 889 390 1127 585 630z m6482 198 c87 -55 82 -122 -20 -262 -113 -154 -257 -184 -810 -172 -370 8 -690 31 -710 52 -21 21 -269 -23 -552 -98 -557 -147 -731 -105 -441 107 225 165 1061 287 1438 211 161 -33 385 5 529 88 285 164 401 179 566 74z m19734 -385 c0 -27 -126 -183 -279 -347 -245 -262 -368 -307 -1000 -360 -510 -42 -721 -27 -721 54 0 66 158 115 369 115 398 0 831 311 831 597 0 329 212 408 516 192 156 -112 284 -224 284 -251z m-14577 -74 c104 -129 173 -389 175 -656 2 -494 213 -808 542 -808 192 1 187 20 -69 225 -208 167 -288 329 -310 625 -16 220 -64 479 -106 575 -68 156 -10 175 536 175 1026 0 1509 -461 1509 -1440 0 -424 -265 -1071 -463 -1133 -62 -20 -206 124 -321 319 -216 365 -558 472 -785 245 -275 -275 -900 506 -1129 1409 -63 247 -138 533 -168 635 -45 155 -15 173 181 114 129 -39 313 -167 408 -285z m-3923 51 c0 -46 -69 -223 -154 -393 -85 -170 -196 -567 -248 -881 -108 -668 -399 -1041 -810 -1041 -152 0 -304 -45 -338 -100 -34 -55 -242 -100 -462 -100 -220 0 -598 -50 -841 -111 l-441 -111 -528 574 c-290 316 -541 608 -557 648 -15 39 210 178 500 308 385 171 788 250 1480 290 880 51 985 80 1425 395 261 188 474 401 474 474 0 75 109 133 250 133 138 0 250 -38 250 -85z m3077 -35 c-44 -132 -564 -300 -689 -223 -44 27 -54 115 -23 196 70 182 772 209 712 27z m6123 -136 c0 -24 -45 -44 -100 -44 -55 0 -100 48 -100 106 0 58 45 78 100 44 55 -34 100 -82 100 -106z m-7213 -201 c221 -280 809 -489 1110 -394 153 49 231 -33 401 -418 117 -263 305 -578 419 -700 l208 -221 -321 -405 c-336 -424 -621 -542 -537 -221 37 142 -51 221 -393 351 -242 93 -557 292 -700 442 -279 293 -467 823 -292 823 57 0 201 -124 319 -275 119 -151 313 -330 432 -396 263 -148 967 -168 967 -29 0 55 -160 100 -356 100 -310 0 -438 87 -992 675 -350 371 -669 641 -710 600 -41 -40 12 -172 117 -291 167 -191 170 -210 19 -155 -94 34 -198 20 -230 -32 -82 -134 317 -998 599 -1297 129 -137 283 -430 342 -650 126 -475 371 -850 555 -850 73 0 252 157 399 350 147 193 332 350 412 350 206 0 180 -374 -45 -660 -105 -133 -169 -326 -142 -427 34 -131 -19 -203 -177 -244 -307 -81 -442 22 -232 175 150 110 122 134 -231 190 -221 35 -452 125 -514 199 -184 222 -914 1684 -914 1831 0 75 -39 136 -87 136 -183 0 -1 -1442 245 -1934 133 -267 242 -500 242 -519 0 -107 -948 -157 -1158 -62 -239 109 -331 448 -151 559 136 84 408 945 316 1002 -86 53 -656 -1200 -658 -1446 -1 -118 -143 -150 -675 -150 -370 0 -673 25 -674 56 0 112 258 368 600 595 434 288 859 730 1041 1082 182 352 393 1768 312 2092 -79 314 65 421 565 423 276 2 417 -61 569 -255z m-1564 -857 c-4 -630 -33 -723 -382 -1198 -400 -546 -871 -822 -1590 -933 -431 -66 -1051 -572 -1051 -857 0 -117 -91 -163 -325 -162 -179 0 -864 -13 -1522 -30 l-1197 -30 -278 333 c-411 492 -386 1081 81 1906 197 349 375 652 396 673 90 90 738 -309 796 -490 34 -109 93 -201 131 -206 540 -60 835 -382 1093 -1191 209 -657 407 -735 818 -323 328 328 887 622 1182 622 275 0 990 541 1167 885 82 158 171 406 197 550 26 144 70 299 99 346 28 46 61 283 73 526 47 967 319 599 312 -421z m14916 614 c-10 -348 -61 -433 -400 -659 -214 -142 -524 -410 -689 -596 -165 -186 -435 -367 -600 -403 -280 -61 -262 -29 275 479 316 300 575 598 575 663 0 66 101 274 225 464 194 298 294 375 575 440 28 7 45 -168 39 -388z m-53039 246 c0 -30 -88 -227 -197 -439 -171 -335 -1045 -1205 -1213 -1206 -33 -1 -163 89 -290 199 -127 110 -278 200 -335 200 -57 0 40 148 215 330 176 181 320 377 320 434 0 214 364 423 800 462 248 21 506 47 575 57 69 9 125 -7 125 -37z m4740 -405 c88 -229 4 -313 -364 -365 -179 -25 -405 -80 -501 -121 -127 -55 -175 -31 -175 88 0 98 173 242 425 354 532 236 541 237 615 44z m24802 -792 c194 -296 512 -1628 413 -1727 -100 -100 -444 391 -384 548 32 81 -1 112 -85 80 -215 -82 -679 406 -616 648 30 113 94 230 142 259 48 30 88 142 88 249 0 273 246 241 442 -57z m3558 151 c0 -55 -45 -100 -100 -100 -55 0 -100 45 -100 100 0 55 45 100 100 100 55 0 100 -45 100 -100z m-27220 -320 c188 -188 157 -229 -485 -625 -765 -472 -1302 -1029 -1607 -1666 l-238 -498 -650 55 c-357 30 -755 55 -883 55 -127 0 -319 46 -425 103 -250 134 -256 496 -7 496 101 0 266 90 366 201 203 224 272 197 320 -129 34 -230 281 -472 484 -472 228 0 645 489 645 756 0 146 101 393 225 548 124 156 302 394 397 529 206 296 1115 767 1478 767 143 0 314 -54 380 -120z m-8609 -157 c-497 -549 -718 -1668 -415 -2101 180 -258 344 -290 344 -67 0 287 308 753 561 849 138 53 226 136 195 186 -107 174 -482 -22 -678 -355 -109 -184 -238 -310 -288 -279 -279 173 117 1313 556 1601 228 149 296 154 516 36 361 -193 454 -417 326 -785 -99 -282 -84 -332 151 -518 321 -251 329 -369 34 -481 -125 -48 -290 -204 -367 -348 -136 -254 -167 -261 -1098 -261 l-958 0 4 875 c1 481 -31 976 -73 1100 -86 255 88 302 434 117 253 -135 355 -47 185 158 -147 177 -151 171 250 318 438 161 500 153 321 -45z m33269 -256 c45 -186 32 -262 -36 -219 -57 35 -104 181 -104 325 0 313 48 277 140 -106z m-44496 -120 c252 -191 927 -187 1299 7 162 84 364 124 450 89 106 -44 -38 -139 -443 -294 -647 -248 -1057 -246 -1802 7 -236 80 -500 118 -588 84 -88 -34 -239 -26 -335 17 -133 61 -80 95 225 147 666 113 990 97 1194 -57z m9106 53 c34 -55 142 -100 240 -100 243 0 548 -356 474 -551 -34 -87 -210 -220 -392 -296 -182 -76 -392 -254 -468 -396 -182 -340 -304 -326 -304 35 0 167 109 422 253 593 272 323 197 500 -113 265 -258 -195 -340 -185 -340 43 0 357 491 664 650 407z m47899 -262 c187 -449 188 -437 -24 -442 -287 -5 -710 -422 -855 -842 -160 -462 -428 -680 -565 -460 -61 97 -27 224 103 388 221 282 240 503 74 867 -97 213 -89 287 43 418 88 88 219 137 292 109 226 -86 331 -34 300 149 -22 129 38 175 225 175 199 0 289 -80 407 -362z m-36649 64 c0 -54 -121 -128 -268 -166 -463 -116 -742 -305 -991 -671 -133 -195 -242 -391 -244 -435 -8 -187 -413 -548 -711 -634 -178 -51 -337 -79 -353 -62 -64 64 1416 1595 1759 1819 368 242 808 323 808 149z m39371 -277 c158 -151 375 -325 483 -386 179 -102 185 -142 64 -475 -72 -201 -105 -449 -72 -551 53 -166 -18 -194 -642 -256 -406 -40 -773 -28 -874 28 -150 84 -124 125 199 316 204 120 371 259 371 309 0 144 -154 105 -427 -110 -308 -242 -373 -249 -373 -40 0 185 790 1440 906 1440 43 0 208 -124 365 -275z m-1271 -266 c0 -75 -67 -265 -149 -423 -83 -157 -151 -353 -154 -436 -5 -215 -243 -500 -418 -500 -179 0 -398 238 -617 670 -202 398 -204 530 -11 530 83 0 291 134 461 297 297 283 323 290 599 147 159 -82 289 -210 289 -285z m-53966 -52 c536 -244 1266 -902 1266 -1142 0 -275 -392 -199 -505 98 -94 247 -127 259 -572 195 -260 -38 -548 -69 -639 -70 -91 -1 -244 -89 -340 -195 -159 -175 -321 -193 -1735 -193 -1453 0 -1570 14 -1686 200 -68 110 -174 200 -233 200 -163 0 -677 388 -787 594 -91 171 -74 172 325 33 544 -190 1366 -117 2022 179 960 433 2070 472 2884 101z m16066 -323 c0 -64 -211 -309 -469 -546 -490 -450 -972 -637 -1161 -448 -80 80 -23 110 208 110 249 0 424 106 795 484 503 510 627 590 627 400z m-10661 -142 c119 -309 58 -530 -202 -735 -321 -252 -837 -281 -837 -47 0 229 388 741 637 841 303 122 334 118 402 -59z m46959 -138 c86 -161 64 -217 -122 -316 -124 -66 -285 -203 -357 -304 -332 -468 -371 83 -42 591 180 277 382 288 521 29z m-60629 -247 c121 -37 309 -10 422 61 158 98 231 100 323 8 166 -166 -285 -326 -921 -326 -450 0 -493 20 -493 233 0 316 102 396 292 229 87 -76 256 -168 377 -205z m2165 -14 c237 -285 259 -352 128 -402 -86 -33 -276 34 -423 149 -146 116 -327 210 -402 210 -193 0 -170 171 38 292 266 155 351 123 659 -249z m25718 -18 c188 -470 181 -582 -33 -548 -93 15 -560 -25 -1037 -88 -1452 -194 -1521 3 -232 654 919 464 1110 461 1302 -18z m45977 -24 c28 -110 191 -278 361 -375 362 -207 385 -283 104 -356 -254 -67 -894 463 -894 740 0 258 361 250 429 -9z m-24974 -175 c70 -96 207 -175 303 -175 96 -1 194 -57 217 -126 27 -81 -62 -125 -255 -125 -192 0 -318 62 -358 175 -34 96 -88 231 -120 300 -87 186 67 151 213 -49z m4895 -26 c-34 -55 -82 -100 -106 -100 -24 0 -44 45 -44 100 0 55 48 100 106 100 58 0 78 -45 44 -100z m4208 0 c23 0 42 -67 42 -150 0 -181 -117 -193 -280 -30 -171 171 -148 312 38 241 87 -34 177 -61 200 -61z m-59358 -89 c0 -121 -259 -212 -583 -205 -250 5 -245 13 83 138 446 168 500 176 500 67z m62276 -36 c-64 -194 -576 -222 -576 -32 0 109 95 157 308 157 202 0 294 -43 268 -125z m14075 -73 c-29 -47 4 -105 73 -130 69 -24 90 -83 46 -130 -45 -48 -123 -20 -174 61 -125 197 -121 424 6 346 56 -35 78 -101 49 -147z m-28751 -302 c225 -72 212 -81 -119 -90 -203 -6 -397 35 -431 90 -71 116 189 116 550 0z"/>
<path d="M53200 20000 c0 -55 115 -100 256 -100 145 0 229 43 194 100 -34 55 -149 100 -256 100 -107 0 -194 -45 -194 -100z"/>
<path d="M56943 19596 c493 -246 573 -244 271 7 -130 108 -332 195 -450 193 -161 -3 -117 -52 179 -200z"/>
<path d="M55550 18859 c165 -72 342 -107 393 -78 114 65 -217 204 -493 207 -147 2 -121 -32 100 -129z"/>
<path d="M54850 18600 c-151 -65 -88 -88 263 -93 291 -4 511 -65 592 -164 150 -180 693 -478 756 -415 24 23 -168 207 -426 407 -468 365 -786 436 -1185 265z"/>
<path d="M52657 18511 c-30 -49 80 -108 244 -132 316 -47 408 58 141 160 -218 84 -321 76 -385 -28z"/>
<path d="M51550 18202 c360 -92 738 -257 970 -423 299 -214 341 28 49 280 -223 192 -385 239 -800 231 -446 -9 -477 -21 -219 -88z"/>
<path d="M57250 17600 c-168 -72 -149 -87 121 -93 316 -7 394 -60 679 -457 131 -182 144 -184 147 -20 4 209 -428 673 -617 663 -72 -4 -220 -46 -330 -93z"/>
<path d="M50700 17408 c0 -151 917 -909 1021 -845 54 33 -121 255 -387 494 -489 438 -634 519 -634 351z"/>
<path d="M53450 16700 c34 -55 196 -100 359 -100 207 0 405 -107 648 -350 192 -193 371 -350 396 -350 131 0 12 223 -290 543 -282 299 -405 357 -756 357 -254 0 -394 -39 -357 -100z"/>
<path d="M57057 16711 c-74 -119 383 -411 643 -411 238 0 953 -343 1053 -505 37 -60 -14 -167 -112 -239 -206 -151 -187 -178 534 -741 455 -355 550 -615 225 -615 -322 0 -236 -148 350 -600 537 -414 726 -800 392 -800 -220 0 -124 -226 155 -366 243 -122 703 -576 703 -694 0 -37 -73 -121 -162 -187 -141 -103 -98 -166 339 -486 501 -368 681 -699 557 -1023 -46 -120 -24 -157 75 -125 78 26 155 183 171 351 24 235 -50 390 -325 681 -195 207 -355 440 -355 518 0 254 -275 677 -593 911 -242 178 -291 267 -218 397 125 224 -93 633 -511 961 -309 242 -316 262 -140 391 178 130 172 153 -136 504 -178 202 -380 367 -450 367 -70 0 -179 62 -241 137 -86 103 -78 166 32 257 80 66 120 186 89 267 -84 218 -830 701 -1443 934 -630 239 -563 227 -632 116z"/>
<path d="M57700 15453 c0 -92 615 -365 732 -325 65 22 -26 115 -202 206 -315 163 -530 212 -530 119z"/>
<path d="M53600 15216 c0 -110 463 -320 538 -244 73 72 -243 320 -413 325 -69 2 -125 -35 -125 -81z"/>
<path d="M58610 14368 c344 -234 511 -184 287 85 -67 81 -235 147 -374 147 -245 0 -242 -7 87 -232z"/>
<path d="M58441 13015 c36 -59 220 -136 409 -172 219 -41 366 -136 407 -264 39 -123 98 -164 156 -106 127 127 7 409 -197 466 -516 144 -837 175 -775 76z"/>
<path d="M59050 11853 c322 -264 450 -309 450 -159 0 129 -409 406 -597 406 -98 -1 -44 -90 147 -247z"/>
<path d="M62000 11100 c0 -55 70 -100 156 -100 86 0 128 45 94 100 -34 55 -104 100 -156 100 -52 0 -94 -45 -94 -100z"/>
<path d="M62700 10608 c0 -51 225 -167 500 -258 540 -179 620 -327 291 -532 -205 -128 -201 -138 163 -453 297 -257 359 -367 303 -544 -40 -124 -152 -221 -258 -221 -208 0 -564 -428 -401 -483 55 -18 171 38 258 125 87 87 246 158 354 158 395 0 466 1031 79 1153 -207 66 -228 131 -104 326 115 182 875 -161 1259 -568 161 -171 362 -311 445 -311 269 0 -573 759 -1121 1010 -285 131 -542 271 -572 311 -67 91 -872 379 -1059 379 -75 0 -137 -41 -137 -92z"/>
<path d="M60420 10298 c202 -166 386 -402 410 -525 31 -161 47 -134 56 98 16 365 -298 729 -628 729 -169 0 -142 -51 162 -302z"/>
<path d="M58200 9304 c0 -166 395 -318 730 -280 l320 35 -300 77 c-165 42 -378 118 -474 170 -219 119 -276 118 -276 -2z"/>
<path d="M61932 9235 c35 -36 167 -116 291 -178 125 -62 227 -197 227 -300 0 -157 -97 -195 -600 -235 -330 -27 -724 -49 -875 -49 -329 -2 -332 -16 -73 -275 169 -169 212 -178 260 -53 76 199 734 323 836 158 100 -161 452 17 607 306 155 291 -119 691 -474 691 -145 0 -235 -29 -199 -65z"/>
<path d="M64600 9106 c0 -52 45 -122 100 -156 55 -34 100 -149 100 -255 0 -116 160 -294 405 -448 222 -141 430 -321 460 -401 69 -178 468 -198 413 -21 -22 69 -248 260 -503 425 -255 165 -467 375 -470 467 -10 307 -125 483 -316 483 -104 0 -189 -42 -189 -94z"/>
<path d="M57400 8857 c0 -223 1008 -754 1354 -714 163 19 397 39 521 46 124 6 225 60 225 120 0 74 -161 88 -489 43 -387 -54 -571 -25 -887 136 -220 112 -426 273 -459 358 -74 194 -265 202 -265 11z"/>
<path d="M64400 8021 c0 -113 602 -552 668 -486 29 28 22 100 -14 159 -92 149 -654 430 -654 327z"/>
<path d="M65600 6700 c0 -55 41 -100 90 -100 50 0 122 -270 160 -600 38 -330 116 -600 174 -600 104 0 42 911 -85 1241 -66 174 -339 221 -339 59z"/>
<path d="M66502 6425 c5 -149 386 -570 455 -502 85 85 -221 577 -359 577 -54 0 -97 -34 -96 -75z"/>
<path d="M66900 5700 c0 -55 45 -100 100 -100 55 0 100 45 100 100 0 55 -45 100 -100 100 -55 0 -100 -45 -100 -100z"/>
<path d="M25900 20790 c-192 -104 -395 -206 -450 -226 -55 -20 -68 -71 -29 -113 39 -42 278 21 531 139 252 119 514 204 581 188 68 -15 144 17 170 72 83 176 -441 137 -803 -60z"/>
<path d="M28700 20464 c0 -169 269 -295 350 -165 30 50 -36 140 -147 200 -160 85 -203 78 -203 -35z"/>
<path d="M21450 18693 c-165 -105 -469 -192 -675 -192 -206 -1 -375 -45 -375 -99 0 -54 222 -93 494 -87 405 9 543 62 768 298 314 328 226 361 -212 80z"/>
<path d="M23369 18759 c-161 -125 -126 -138 325 -124 286 8 492 58 473 115 -51 157 -598 164 -798 9z"/>
<path d="M19010 17992 c-131 -53 -221 -110 -200 -127 91 -69 990 63 990 145 0 116 -481 105 -790 -18z"/>
<path d="M21700 17822 c-440 -208 -444 -211 -381 -275 59 -59 981 316 981 399 0 95 -241 45 -600 -124z"/>
<path d="M18111 17410 c-296 -276 -425 -710 -211 -710 55 0 100 93 100 206 0 113 145 338 322 500 178 162 272 294 211 294 -62 0 -252 -131 -422 -290z"/>
<path d="M20700 17500 c0 -55 70 -100 156 -100 86 0 128 45 94 100 -34 55 -104 100 -156 100 -52 0 -94 -45 -94 -100z"/>
<path d="M19500 17400 c-82 -53 -127 -101 -100 -106 28 -5 137 -26 244 -46 259 -48 412 55 242 163 -172 108 -203 108 -386 -11z"/>
<path d="M59950 18400 c-35 -57 -221 -169 -414 -249 -386 -162 -383 -351 4 -277 293 56 720 477 574 567 -55 34 -129 16 -164 -41z"/>
<path d="M61246 15330 c17 -161 272 -783 576 -1402 101 -207 752 -728 908 -728 185 0 34 228 -269 407 -257 152 -393 344 -562 796 -123 329 -266 597 -317 597 -52 0 -80 100 -63 223 20 142 -27 234 -131 254 -105 21 -155 -30 -142 -147z"/>
<path d="M66100 16272 c0 -70 69 -226 153 -346 132 -188 188 -203 400 -106 305 138 310 225 25 424 -269 189 -578 204 -578 28z"/>
<path d="M64300 12219 c0 -131 279 -473 338 -414 100 99 -60 495 -200 495 -76 0 -138 -36 -138 -81z"/>
<path d="M16416 18000 c-303 -289 -440 -800 -216 -800 55 0 100 87 100 192 0 106 118 333 262 505 349 414 251 483 -146 103z"/>
<path d="M14700 17906 c0 -58 45 -106 100 -106 55 0 100 20 100 44 0 24 -45 72 -100 106 -55 34 -100 14 -100 -44z"/>
<path d="M75900 16056 c0 -106 192 -150 249 -58 35 56 -7 102 -93 102 -86 0 -156 -20 -156 -44z"/>
<path d="M52975 14042 c-34 -35 -20 -173 31 -309 52 -135 94 -680 94 -1210 0 -663 32 -931 103 -860 139 139 84 2358 -59 2406 -59 19 -135 7 -169 -27z"/>
<path d="M27449 14684 c-31 -82 -10 -273 47 -423 57 -151 104 -696 104 -1212 0 -604 41 -963 116 -1009 87 -54 101 261 53 1262 -60 1240 -178 1752 -320 1382z"/>
<path d="M21075 14225 c-20 -41 -6 -232 31 -425 l68 -350 13 425 c12 399 -27 523 -112 350z"/>
<path d="M20700 13450 c0 -266 27 -456 60 -423 33 33 60 223 60 423 0 200 -27 390 -60 423 -33 33 -60 -157 -60 -423z"/>
<path d="M51700 9449 c0 -29 44 -130 97 -225 90 -160 490 -2650 518 -3224 7 -137 -18 -319 -54 -404 -46 -107 -5 -158 137 -168 249 -19 251 -91 -48 1722 -279 1693 -436 2350 -563 2350 -48 0 -87 -23 -87 -51z"/>
<path d="M52602 9031 c0 -45 45 -148 98 -231 84 -129 97 -127 98 19 1 93 -43 197 -98 231 -55 34 -99 25 -98 -19z"/>
<path d="M52766 7881 c55 -711 276 -1657 356 -1522 30 50 -6 316 -80 591 -73 275 -135 711 -138 969 -2 258 -45 494 -95 525 -53 33 -71 -204 -43 -563z"/>
<path d="M51711 7625 c113 -339 189 -417 189 -194 0 72 -67 218 -149 325 -136 177 -139 166 -40 -131z"/>
<path d="M51974 6825 c-21 -41 -7 -210 32 -375 69 -295 71 -294 82 75 11 356 -30 465 -114 300z"/>
<path d="M52256 5171 c38 -99 94 -154 125 -124 30 31 0 112 -69 180 -98 98 -110 86 -56 -56z"/>
<path d="M24000 10617 c0 -174 46 -317 102 -317 60 0 75 112 36 275 -94 393 -138 406 -138 42z"/>
<path d="M24839 10453 c36 -247 161 -301 161 -70 0 120 -41 217 -91 217 -50 0 -82 -66 -70 -147z"/>
<path d="M25900 10223 c0 -226 46 -440 102 -474 68 -42 80 84 36 369 -87 571 -138 610 -138 105z"/>
<path d="M24866 9625 c41 -206 70 -476 65 -600 -5 -124 30 -225 80 -225 106 0 110 119 25 736 -35 255 -104 464 -154 464 -52 0 -59 -162 -16 -375z"/>
<path d="M26100 8556 c0 -24 45 -72 100 -106 55 -34 100 -14 100 44 0 58 -45 106 -100 106 -55 0 -100 -20 -100 -44z"/>
<path d="M26202 7781 c-1 -93 43 -197 98 -231 127 -78 127 54 0 250 -84 129 -97 127 -98 -19z"/>
<path d="M76836 4750 c-31 -82 -106 -150 -165 -150 -60 0 -201 -85 -315 -190 -298 -273 -1386 -676 -2273 -841 -677 -125 -785 -124 -918 9 -134 134 -228 130 -857 -33 -667 -173 -726 -174 -1060 -14 -370 176 -848 227 -848 90 0 -112 832 -321 1276 -320 206 0 547 48 758 107 313 87 416 78 555 -48 141 -127 266 -137 716 -55 300 55 748 127 995 160 248 33 518 117 600 186 148 124 553 282 752 293 141 8 1048 759 1048 868 0 146 -202 99 -264 -62z"/>
<path d="M50703 7047 c2 -53 118 -277 259 -497 244 -380 253 -385 191 -100 -62 282 -457 807 -450 597z"/>
<path d="M57818 6499 c-451 -525 -988 -760 -1501 -659 -400 79 -960 -232 -997 -552 -23 -192 22 -276 169 -314 256 -67 341 19 194 196 -193 233 57 362 778 402 758 42 1105 190 1470 624 248 295 426 680 349 757 -21 21 -228 -184 -462 -454z"/>
<path d="M50150 5400 c-34 -55 10 -100 97 -100 88 0 200 -101 250 -225 50 -124 93 -166 97 -93 8 181 -181 518 -292 518 -49 0 -118 -45 -152 -100z"/>
<path d="M64704 4107 c-210 -392 -13 -439 237 -57 140 215 143 250 15 250 -82 0 -196 -87 -252 -193z"/>
<path d="M52463 23921 c-33 -54 13 -160 103 -235 91 -75 228 -271 305 -436 l140 -300 -58 350 c-62 374 -387 787 -490 621z"/>
<path d="M79300 23693 c0 -58 109 -250 242 -425 362 -476 398 -779 211 -1815 -189 -1052 -170 -1503 43 -1003 70 165 149 840 176 1500 47 1193 46 1202 -227 1525 -278 330 -445 412 -445 218z"/>
<path d="M40960 23627 c-25 -25 -465 -65 -978 -89 -513 -23 -1224 -113 -1582 -200 -987 -239 -2021 -551 -2300 -692 -137 -70 -497 -243 -800 -385 -704 -329 -944 -493 -1712 -1163 -911 -795 -1257 -1185 -1552 -1748 -144 -275 -408 -725 -587 -1000 -447 -688 -962 -2411 -1090 -3650 -31 -302 -103 -837 -158 -1187 -68 -426 -68 -841 -2 -1250 55 -337 101 -950 103 -1363 1 -412 50 -952 107 -1200 58 -247 120 -562 138 -700 164 -1240 550 -2778 876 -3500 162 -357 376 -830 475 -1050 583 -1294 1250 -2627 1401 -2800 96 -110 237 -318 313 -462 398 -755 596 -1081 693 -1141 202 -125 223 45 41 324 -100 152 -394 682 -653 1178 -259 495 -634 1168 -832 1495 -199 327 -361 634 -361 683 0 49 169 -16 375 -144 331 -206 497 -233 1425 -231 953 2 1105 29 1644 291 l595 290 755 -265 c785 -275 1313 -346 1656 -222 158 58 169 51 50 -33 -131 -92 -129 -121 14 -234 165 -130 336 -1437 200 -1520 -35 -21 -406 -70 -825 -109 l-760 -71 -66 415 c-75 465 -263 461 -263 -5 0 -330 -322 -691 -789 -885 -157 -64 -344 -230 -418 -367 -184 -344 -19 -579 434 -618 305 -26 362 3 390 193 18 122 94 242 168 267 100 33 119 -18 70 -192 -64 -233 -62 -233 96 -37 155 192 167 193 296 19 84 -114 158 -142 199 -75 92 149 286 133 227 -19 -34 -91 132 -133 604 -153 576 -24 637 -10 525 125 -69 84 -212 153 -316 153 -250 0 -986 232 -986 311 0 72 779 189 1264 189 300 0 336 -30 338 -275 1 -297 150 -606 246 -510 32 32 -10 716 -95 1519 -174 1657 -192 2549 -57 2763 59 93 53 194 -16 277 -149 180 31 3497 197 3621 40 30 85 1158 101 2505 22 1966 -5 2595 -135 3186 -180 819 -151 893 378 979 l353 57 70 -646 c38 -356 23 -1542 -32 -2636 -116 -2279 -108 -11640 10 -11640 89 0 94 251 133 6550 16 2530 77 5140 135 5800 59 660 89 1459 67 1775 -36 535 -24 575 177 573 418 -2 514 -142 389 -565 -63 -211 -193 -1242 -288 -2291 -167 -1829 -167 -1996 9 -4000 191 -2191 258 -5746 132 -7067 l-73 -775 2455 0 2455 0 268 316 c1233 1448 3066 5403 3516 7584 51 247 163 720 248 1050 86 330 162 848 170 1150 8 303 69 820 136 1150 137 681 33 3533 -162 4400 -121 541 -486 1554 -795 2211 -107 226 -194 441 -194 478 0 37 -220 350 -488 695 -268 346 -556 761 -640 922 -326 632 -2157 2210 -3164 2727 -712 366 -2483 927 -2733 866 -124 -30 -437 -15 -697 34 -259 50 -492 69 -518 44z m-1463 -502 c-2 -41 -69 -162 -150 -269 -207 -274 -183 -497 89 -823 206 -246 230 -358 187 -865 -59 -706 -161 -764 -1173 -670 -996 93 -1836 -114 -2650 -655 -917 -609 -979 -668 -1160 -1100 -185 -444 -205 -1641 -29 -1750 62 -38 92 -131 67 -206 -26 -76 -13 -258 29 -407 95 -335 -17 -431 -604 -521 -246 -38 -471 -107 -500 -153 -71 -115 -1455 129 -1649 291 -193 160 -194 277 -4 467 415 416 -101 822 -616 485 l-264 -173 60 298 c87 437 1022 1926 1209 1926 34 0 61 -135 61 -300 0 -165 50 -300 111 -300 68 0 96 152 72 400 -42 434 -14 479 156 252 70 -94 195 -126 336 -89 308 82 289 337 -25 337 -217 0 -250 44 -250 339 0 301 106 435 956 1204 642 580 1176 967 1625 1175 368 171 788 372 934 446 146 75 338 136 427 136 88 0 239 41 334 91 538 280 2429 619 2421 434z m1481 -446 c183 -383 -5 -649 -520 -736 -369 -62 -423 -41 -679 266 -154 183 -279 393 -279 465 0 194 386 321 899 297 380 -18 469 -63 579 -292z m2295 -648 c-97 -26 -232 -24 -300 3 -68 28 12 49 177 47 165 -3 220 -25 123 -50z m-2731 -806 c150 -718 253 -1820 314 -3375 37 -935 73 -1735 81 -1779 7 -43 -263 -91 -600 -106 l-613 -28 -2 1656 c0 912 -11 1702 -23 1757 -44 196 3 338 169 503 128 128 142 208 60 340 -105 167 -44 741 120 1132 117 278 428 215 494 -100z m3661 -225 c53 0 97 -54 97 -120 0 -93 -27 -93 -120 0 -66 66 -201 120 -300 120 -192 0 -219 82 -114 354 55 146 86 132 203 -91 75 -145 181 -263 234 -263z m97 -404 c0 -70 60 -71 188 -3 350 188 1412 -487 1412 -897 0 -250 -110 -249 -327 4 -94 110 -273 201 -397 202 -315 2 -1017 418 -1057 626 -19 94 15 172 74 172 59 0 107 -47 107 -104z m-5377 -696 c54 0 72 68 41 150 -35 91 0 150 89 150 151 0 193 -263 86 -542 -75 -196 -239 -208 -239 -17 0 88 -70 122 -187 91 -139 -36 -199 17 -235 207 -66 342 38 425 209 169 75 -115 182 -208 236 -208z m-1543 80 c164 -164 152 -480 -18 -480 -76 0 -166 79 -200 175 -34 96 -88 231 -120 300 -75 160 180 163 338 5z m520 -186 c0 -107 -45 -194 -100 -194 -55 0 -100 115 -100 256 0 145 43 229 100 194 55 -34 100 -149 100 -256z m433 163 c57 -148 -195 -429 -295 -329 -77 77 55 472 158 472 45 0 107 -64 137 -143z m1072 -212 c-86 -290 -88 -290 -96 -37 -5 142 21 289 58 325 116 116 129 16 38 -288z m-2466 -3 c166 -431 -80 -619 -316 -242 -68 110 -192 200 -274 200 -82 0 -149 45 -149 100 0 170 672 117 739 -58z m4661 -142 c138 -108 301 -197 364 -198 62 -1 400 -136 750 -299 599 -280 1622 -497 2369 -501 236 -1 417 83 625 290 356 356 391 263 42 -113 -319 -345 -753 -422 -1908 -341 -922 65 -1535 262 -2139 688 -136 96 -322 174 -414 174 -97 0 -185 103 -213 250 -60 311 163 333 524 50z m-5125 -225 c346 -276 -31 -374 -432 -111 -137 89 -282 130 -321 89 -40 -41 29 -143 153 -226 124 -83 225 -219 225 -301 0 -106 -65 -132 -225 -89 -124 33 -396 61 -606 62 -434 1 -415 153 32 251 294 65 419 247 174 253 -78 2 -60 53 46 133 184 140 747 104 954 -61z m2408 -29 c464 -81 595 -454 561 -1596 -15 -495 10 -1101 55 -1346 99 -542 -45 -696 -654 -701 -509 -4 -645 131 -645 642 -1 508 -316 1049 -624 1071 -404 27 -720 -26 -1017 -173 -160 -79 -312 -123 -337 -98 -25 25 -85 254 -133 508 -65 350 -49 533 64 752 161 311 827 819 964 735 144 -90 90 -224 -117 -290 -294 -93 -249 -284 50 -209 142 36 255 19 263 -39 6 -56 23 -147 37 -202 14 -55 31 -167 38 -250 6 -82 56 -150 110 -150 53 0 71 128 40 286 -51 256 -26 291 252 347 371 74 414 267 60 267 -193 0 -250 51 -249 225 0 198 58 228 475 252 261 14 624 0 807 -31z m-3118 -900 c85 -221 13 -254 -330 -156 -178 51 -370 48 -468 -7 -123 -68 -167 -54 -167 54 0 179 149 245 578 255 209 5 350 -48 387 -146z m-145 -421 c147 -169 380 -754 380 -951 0 -54 -117 -21 -259 73 -162 106 -352 147 -505 108 -322 -80 -482 19 -329 204 136 163 552 189 644 39 35 -56 112 -71 171 -34 147 90 -197 336 -471 336 -116 0 -260 -49 -320 -109 -137 -137 -255 29 -173 244 108 282 648 338 862 90z m2136 -967 c153 -112 194 -264 195 -713 1 -489 35 -595 236 -728 329 -218 1270 -242 1798 -45 401 150 459 150 750 0 304 -157 720 -217 1286 -187 337 18 503 297 575 965 50 459 77 503 337 532 334 39 1025 -266 1704 -751 267 -191 640 -372 827 -403 187 -30 356 -83 375 -116 19 -34 -22 -242 -92 -462 -81 -257 -130 -324 -137 -186 -8 164 -95 230 -379 283 -203 38 -661 246 -1019 461 -933 563 -1156 517 -1168 -241 -4 -217 -69 -421 -150 -473 -202 -128 -893 -110 -1944 50 -784 119 -951 118 -1300 -13 -1056 -395 -1782 -522 -1900 -331 -34 55 -150 100 -257 100 -211 0 -592 531 -593 826 0 97 55 265 122 373 97 154 97 222 1 318 -97 97 -191 58 -448 -182 -583 -546 -1017 -811 -1475 -903 -530 -107 -800 -68 -800 114 0 143 498 514 636 473 86 -26 705 401 1308 904 570 475 1146 602 1512 335z m-2300 -111 c-213 -161 -456 -195 -456 -64 0 148 127 217 392 214 248 -3 251 -9 64 -150z m-3656 -225 c0 -43 -93 -157 -206 -254 -114 -98 -192 -253 -174 -346 50 -262 838 -646 1354 -660 311 -9 489 -67 563 -184 194 -308 -37 -370 -816 -221 -777 149 -1122 289 -1251 508 -90 151 -370 185 -370 44 0 -175 612 -605 1030 -723 231 -66 463 -157 515 -203 52 -46 278 -83 502 -83 449 0 380 117 737 -1250 43 -165 44 -457 1 -650 -42 -192 -173 -777 -291 -1300 -118 -522 -252 -1197 -299 -1500 -47 -302 -154 -989 -238 -1525 -84 -537 -223 -1112 -309 -1278 -86 -167 -129 -347 -96 -401 98 -158 -258 -237 -557 -125 -212 80 -309 72 -417 -36 -120 -120 -173 41 -370 1137 -126 703 -292 1579 -368 1948 -77 368 -140 967 -140 1331 0 363 -50 984 -112 1380 -92 590 -83 881 50 1619 89 495 205 1187 259 1537 108 706 481 1313 808 1313 107 0 195 -35 195 -78z m4100 -6 c0 -104 -507 -343 -577 -272 -28 28 5 120 75 204 134 161 502 211 502 68z m-800 -372 c0 -24 -45 -44 -100 -44 -55 0 -100 48 -100 106 0 58 45 78 100 44 55 -34 100 -82 100 -106z m13700 -737 c0 -106 -121 -288 -269 -404 -345 -271 -1358 -262 -1411 13 -25 135 51 165 413 159 285 -4 566 68 781 201 427 264 486 267 486 31z m-12069 -213 c71 -273 -160 -355 -444 -156 l-222 155 242 97 c344 138 364 134 424 -96z m-2692 -670 c16 -806 124 -1005 450 -830 169 90 211 84 211 -29 0 -131 -281 -260 -573 -264 -346 -3 -615 1104 -409 1682 156 438 307 176 321 -559z m12221 403 c-101 -102 -185 51 -102 186 63 102 87 102 121 1 23 -70 15 -154 -19 -187z m552 -1055 c-83 -83 -109 68 -99 583 l13 695 99 -583 c72 -418 68 -614 -13 -695z m-10604 928 c106 0 192 -50 192 -111 0 -61 66 -85 147 -54 228 87 265 -80 94 -424 -182 -364 -385 -312 -298 75 54 238 47 247 -77 89 -199 -252 -298 -215 -223 83 57 226 39 250 -139 193 -228 -72 -268 45 -80 233 79 79 136 86 158 20 19 -57 121 -104 226 -104z m-1703 -209 c122 -229 51 -691 -107 -691 -54 0 -98 62 -98 138 0 75 -28 278 -62 450 -73 362 94 426 267 103z m1863 -928 c399 -202 2182 -660 2582 -664 560 -4 567 -27 540 -1790 -27 -1769 -41 -1809 -642 -1809 -145 0 -789 -162 -1431 -360 -642 -198 -1232 -366 -1311 -375 -105 -11 -189 218 -306 835 -89 468 -188 918 -220 1000 -32 83 -109 398 -172 700 -62 303 -201 931 -308 1396 -168 730 -180 939 -82 1529 l113 683 459 -492 c253 -270 603 -564 778 -653z m732 693 c0 -79 -45 -172 -100 -206 -55 -34 -99 -115 -97 -181 2 -65 84 -22 183 95 200 240 714 221 714 -26 0 -172 168 -182 225 -13 34 99 76 97 202 -6 135 -112 176 -100 274 83 206 385 208 140 3 -312 -126 -278 -202 -366 -205 -240 -5 188 -14 189 -138 25 -185 -243 -360 -219 -364 50 -3 201 -14 206 -105 50 -142 -243 -290 -219 -304 50 -8 169 -23 182 -57 50 -52 -200 -163 -219 -438 -71 -215 115 -245 313 -89 603 121 227 296 256 296 49z m9210 -462 c68 -42 89 -151 50 -253 -60 -157 -87 -143 -214 101 -80 154 -142 399 -137 544 l8 264 87 -291 c48 -161 141 -325 206 -365z m-7093 41 c369 -334 131 -776 -386 -717 -240 27 -278 73 -261 316 21 303 188 566 359 566 58 0 188 -74 288 -165z m4033 -628 c770 -11 1599 -64 1842 -117 243 -54 507 -74 586 -43 101 39 126 7 83 -105 -34 -88 -89 -270 -123 -403 -57 -229 -91 -239 -574 -181 -283 34 -671 100 -864 148 -369 92 -1426 191 -2225 209 -385 9 -475 45 -475 190 0 310 114 508 237 411 62 -49 743 -98 1513 -109z m-9005 -482 c-33 -151 -105 -500 -161 -775 -56 -275 -142 -663 -193 -862 -50 -198 -91 -499 -91 -667 0 -370 -320 -2044 -620 -3246 -142 -570 -267 -875 -356 -875 -90 0 -116 66 -77 192 92 287 137 524 405 2108 135 798 361 1990 502 2650 141 660 282 1324 314 1475 31 151 120 275 196 275 100 0 123 -78 81 -275z m309 -2650 c-25 -1444 -47 -2887 -50 -3208 -3 -421 -39 -572 -129 -542 -179 59 -272 1187 -171 2075 84 733 233 3628 210 4075 -7 124 33 225 87 225 64 0 83 -933 53 -2625z m12007 150 c-32 -1251 -58 -2626 -59 -3056 -1 -556 -35 -761 -115 -711 -83 52 -94 796 -39 2781 64 2311 100 3104 144 3236 4 14 35 25 67 25 33 0 34 -1024 2 -2275z m1037 1950 c481 -741 577 -1167 344 -1524 -95 -144 -205 -225 -247 -181 -87 93 -495 1561 -495 1781 0 224 232 179 398 -76z m-1732 -302 c-28 -68 -49 12 -47 177 3 165 25 220 50 123 26 -97 24 -232 -3 -300z m-10807 -48 c37 -206 219 -1027 404 -1825 185 -797 336 -1524 337 -1614 0 -137 -284 -352 -348 -263 -11 15 -141 815 -289 1777 -149 963 -290 1874 -314 2025 -68 422 133 327 210 -100z m-897 -1157 c-23 -127 -75 -1129 -114 -2225 -40 -1096 -92 -2027 -116 -2068 -57 -98 -732 -98 -732 1 0 41 49 233 109 425 177 566 486 2179 609 3174 62 509 152 925 200 925 47 0 67 -104 44 -232z m13380 -955 c191 -1012 195 -1090 45 -940 -100 100 -385 1537 -382 1927 2 350 184 -182 337 -987z m-12507 -219 c210 -1213 214 -1781 15 -1858 -240 -92 -183 -326 63 -261 154 40 201 16 167 -85 -26 -77 -155 -140 -288 -140 l-242 0 -27 1747 c-16 998 9 1706 59 1650 48 -53 162 -527 253 -1053z m11065 506 c0 -330 -41 -600 -92 -600 -50 0 -157 -25 -237 -56 -123 -47 -132 27 -54 475 117 678 154 781 280 781 59 0 103 -254 103 -600z m893 25 c4 -124 -38 -225 -93 -225 -55 0 -97 191 -93 425 5 329 26 380 93 225 47 -110 89 -301 93 -425z m-1537 -280 c-36 -190 -111 -345 -167 -345 -56 0 -79 79 -50 175 28 96 84 310 123 474 95 398 176 135 94 -304z m-413 80 c-34 -151 -84 -358 -112 -460 -28 -102 -249 -273 -491 -380 -453 -200 -761 -245 -2265 -327 l-875 -48 2 270 c2 404 99 486 648 551 654 77 1871 321 2500 501 275 79 535 149 577 156 42 6 49 -112 16 -263z m-5643 -781 c0 -86 -45 -128 -100 -94 -55 34 -100 104 -100 156 0 52 45 94 100 94 55 0 100 -70 100 -156z m-625 -138 c124 -104 225 -265 225 -359 0 -135 30 -147 138 -57 107 89 153 79 200 -46 92 -238 90 -239 -288 -225 -293 11 -350 50 -350 240 0 125 -67 294 -150 377 -304 304 -124 360 225 70z m6296 -1202 c-127 -682 -285 -1259 -350 -1280 -131 -44 -102 216 138 1209 78 321 141 667 141 769 0 249 214 775 263 646 21 -57 -65 -661 -192 -1344z m-6684 987 c222 -208 255 -494 63 -557 -82 -27 -364 341 -531 691 -76 159 254 65 468 -134z m-1037 9 c-34 -55 -82 -100 -106 -100 -24 0 -44 45 -44 100 0 55 48 100 106 100 58 0 78 -45 44 -100z m567 -265 c223 -202 235 -394 30 -472 -103 -40 -186 25 -250 195 -178 467 -99 566 220 277z m9972 -410 c71 -316 154 -682 184 -813 39 -169 17 -225 -77 -194 -119 40 -373 958 -390 1407 -14 387 161 140 283 -400z m-10565 350 c205 -158 266 -490 101 -548 -69 -24 -125 22 -125 102 0 81 -67 203 -150 271 -296 246 -132 411 174 175z m-363 -309 c179 -154 251 -291 209 -400 -79 -207 -270 -218 -270 -16 0 83 -90 240 -200 350 -373 373 -159 427 261 66z m-975 -533 c138 -687 147 -1201 21 -1279 -138 -85 -194 53 -348 862 -96 505 -107 773 -37 859 180 220 248 138 364 -442z m594 347 c66 -66 120 -251 120 -412 l0 -292 -311 304 c-296 290 -320 520 -53 520 68 0 178 -54 244 -120z m2756 43 c26 -42 7 -289 -42 -550 -48 -260 -112 -1045 -141 -1743 -29 -698 -87 -1301 -128 -1339 -41 -38 -366 5 -722 95 -634 161 -648 171 -729 564 -67 325 -41 729 59 934 30 62 -776 313 -1008 314 -182 2 -225 58 -225 297 0 234 97 370 464 650 256 195 517 355 580 355 64 0 170 54 236 120 280 280 1529 509 1656 303z m-3863 -1091 c24 -72 -92 -131 -292 -150 -349 -34 -374 -218 -31 -227 341 -9 269 -205 -75 -205 -275 0 -330 40 -355 258 -22 187 33 288 200 369 276 134 499 116 553 -45z m12587 -505 c-101 -102 -185 51 -102 186 63 102 87 102 121 1 23 -70 15 -154 -19 -187z m-11810 -379 c495 -69 1050 -262 1050 -366 0 -42 -139 -149 -308 -236 -307 -159 -597 -669 -616 -1085 -43 -897 -1825 -1246 -3108 -610 -661 328 -797 513 -840 1149 -41 616 -85 700 -363 700 -230 0 -547 252 -445 354 178 177 3541 245 4630 94z m11475 -9 c939 -82 1104 -216 791 -639 -119 -161 -216 -334 -216 -385 0 -250 -393 -922 -681 -1164 -245 -206 -499 -296 -1057 -375 -727 -102 -740 -99 -1357 230 -692 368 -1047 767 -1154 1294 -39 193 -131 446 -206 564 -117 185 -112 235 36 368 254 230 1916 277 3844 107z m-15548 -1260 c64 -150 80 -294 36 -321 -99 -61 -424 598 -338 683 77 78 155 -16 302 -362z m5035 -645 c-193 -364 -203 -370 -208 -116 -2 147 69 341 158 430 251 251 273 110 50 -314z m357 -135 c-62 -166 -160 -284 -216 -265 -120 43 -80 360 68 540 174 212 267 40 148 -275z m376 -24 c-37 -124 -107 -267 -155 -318 -147 -158 -201 1 -95 279 123 326 348 360 250 39z m1017 -6 c182 69 177 -179 -9 -425 -142 -187 -147 -186 -156 56 -10 249 -10 249 -100 25 -92 -230 -297 -311 -297 -118 0 61 -85 79 -200 43 -131 -42 -199 -18 -198 68 2 231 159 391 321 329 86 -34 189 -9 228 55 48 78 105 82 172 15 56 -56 163 -78 239 -48z m4138 -651 c248 -89 598 -261 778 -383 181 -121 361 -235 400 -253 40 -17 180 -239 312 -492 337 -647 252 -890 -412 -1181 -535 -233 -614 -236 -1796 -52 -203 32 -459 9 -569 -50 -144 -77 -220 -77 -268 1 -130 211 159 335 724 311 732 -30 1508 222 1652 537 137 300 -82 667 -488 819 -574 216 -1327 425 -1527 425 -151 0 -206 64 -206 243 0 381 479 407 1400 75z m-3956 -2410 c3 -23 -84 -52 -194 -66 -1793 -219 -1996 -286 -2158 -713 -106 -279 -292 -302 -292 -36 0 384 820 798 1666 840 207 11 333 69 334 154 0 106 32 111 138 23 108 -90 154 -76 207 62 64 166 76 164 181 -22 61 -110 115 -219 118 -242z m-2603 -458 c-164 -249 -417 -362 -281 -125 136 239 265 375 355 375 49 0 16 -112 -74 -250z"/>
<path d="M37058 20913 c-43 -69 -51 -153 -18 -186 89 -90 187 42 139 187 -34 101 -58 101 -121 -1z"/>
<path d="M32150 13400 c-82 -132 38 -319 157 -246 121 75 121 346 -1 346 -52 0 -122 -45 -156 -100z"/>
<path d="M32146 12425 c-286 -1366 -418 -1622 -803 -1548 -200 38 -257 15 -223 -88 68 -207 477 -231 619 -37 107 147 139 117 258 -242 160 -485 303 -534 303 -103 0 261 30 297 200 243 228 -72 600 21 600 150 0 48 -123 101 -273 118 -242 28 -288 95 -401 582 -70 303 -102 696 -72 875 67 398 -125 444 -208 50z"/>
<path d="M37256 13210 c-30 -49 12 -115 95 -146 90 -35 149 0 149 89 0 162 -156 199 -244 57z"/>
<path d="M37385 12575 c-9 -69 -26 -408 -38 -754 -25 -700 -218 -1021 -612 -1021 -129 0 -235 -51 -235 -113 0 -74 137 -95 400 -60 361 49 407 30 461 -186 99 -396 255 -278 178 134 -63 336 -54 361 90 242 185 -153 587 -122 644 51 22 67 -81 131 -242 150 -274 31 -283 52 -370 857 -49 454 -127 825 -175 825 -47 0 -93 -56 -101 -125z"/>
<path d="M38925 14034 c-69 -28 -125 -140 -125 -248 0 -242 156 -165 229 112 29 111 45 198 37 194 -9 -4 -72 -30 -141 -58z"/>
<path d="M24271 23225 c42 -151 74 -511 72 -800 -1 -289 28 -525 66 -525 125 0 203 1056 98 1331 -137 361 -335 356 -236 -6z"/>
<path d="M78024 22875 c23 -69 136 -139 252 -156 375 -56 458 -288 505 -1424 58 -1416 231 -1323 212 114 -13 919 -46 1132 -211 1342 -210 266 -838 369 -758 124z"/>
<path d="M20500 22353 c0 -33 101 -199 225 -367 204 -276 224 -413 217 -1446 -4 -627 26 -1140 68 -1140 96 0 235 992 232 1655 -2 565 -311 1275 -577 1327 -91 18 -165 5 -165 -29z"/>
<path d="M18200 21900 c0 -55 65 -100 144 -100 229 0 456 -410 456 -822 0 -208 45 -378 100 -378 55 0 100 217 100 481 0 346 -57 543 -204 700 -208 223 -596 300 -596 119z"/>
<path d="M24256 21429 c-54 -142 -42 -154 56 -56 69 68 99 149 69 180 -31 30 -87 -25 -125 -124z"/>
<path d="M0 19806 c0 -107 83 -253 185 -325 290 -205 629 -1071 689 -1756 29 -344 29 -625 -1 -625 -31 0 -150 197 -267 437 -116 240 -300 517 -409 615 -194 176 -197 170 -197 -431 0 -459 62 -727 250 -1081 160 -300 246 -618 239 -880 l-10 -410 -100 448 c-55 246 -163 538 -239 647 -125 178 -140 117 -140 -570 0 -599 49 -863 221 -1194 288 -552 322 -2083 61 -2781 -92 -247 -194 -709 -226 -1025 -47 -471 -31 -575 93 -575 93 0 151 93 151 243 0 134 49 371 110 525 374 962 600 2483 637 4282 15 715 58 1593 97 1950 70 647 32 846 -367 1920 -120 322 -541 780 -718 780 -32 0 -59 -87 -59 -194z m756 -5096 c-123 -199 -256 -115 -256 161 0 251 13 259 162 110 89 -89 131 -211 94 -271z"/>
<path d="M7656 19410 c-36 -59 26 -316 139 -572 222 -502 263 -890 105 -988 -124 -77 -132 -350 -11 -350 49 0 156 167 238 371 134 338 131 421 -42 922 -209 609 -328 780 -429 617z"/>
<path d="M10600 18358 c0 -79 -112 -276 -250 -440 -365 -434 -347 -1036 42 -1426 288 -288 508 -376 508 -204 0 48 -70 146 -157 217 -454 377 -516 1007 -134 1353 199 180 265 642 91 642 -55 0 -100 -64 -100 -142z"/>
<path d="M11870 16337 c-35 -35 44 -148 175 -251 145 -114 264 -342 305 -586 77 -456 336 -702 1010 -959 326 -125 479 -142 559 -62 80 80 31 129 -180 179 -726 175 -1130 514 -1136 954 -5 445 -512 946 -733 725z"/>
<path d="M21100 15627 c-137 -25 -301 -88 -364 -140 -63 -52 -310 -127 -549 -168 -278 -47 -471 -145 -538 -271 -57 -109 -405 -509 -772 -890 -367 -381 -641 -736 -608 -788 62 -100 1631 1455 1631 1616 0 95 206 147 1300 330 735 123 805 157 597 288 -153 96 -275 100 -697 23z"/>
<path d="M8567 15333 c-131 -131 -63 -218 219 -280 295 -65 484 -327 535 -743 31 -258 321 -502 446 -376 43 42 16 115 -59 161 -75 46 -164 256 -198 466 -47 286 -148 440 -401 611 -362 244 -438 266 -542 161z"/>
<path d="M7000 14712 c0 -256 254 -467 359 -298 43 70 25 141 -41 163 -65 22 -118 103 -118 181 0 78 -45 142 -100 142 -55 0 -100 -84 -100 -188z"/>
<path d="M17585 13820 c-198 -264 -392 -590 -434 -725 -41 -136 154 58 437 435 282 373 512 700 512 725 0 154 -205 -19 -515 -435z"/>
<path d="M77986 14149 c-292 -159 -1665 -263 -1746 -132 -29 46 -162 83 -296 83 -195 0 -244 -51 -244 -254 0 -486 697 -1130 1683 -1556 641 -276 919 -337 1692 -370 885 -38 925 -30 925 170 0 221 -39 237 -600 251 -320 8 -353 37 -381 334 -36 367 -116 388 -709 179 -302 -107 -540 -124 -874 -61 -446 83 -942 363 -972 547 -26 167 651 120 742 -51 128 -239 727 -300 1237 -126 385 131 440 186 425 419 -18 265 -11 268 557 237 558 -29 575 -23 575 225 0 255 -2 256 -875 252 -563 -3 -969 -55 -1139 -147z"/>
<path d="M8140 13949 c-136 -207 -146 -305 -55 -505 133 -293 559 -480 898 -395 254 64 213 194 -67 211 -91 6 -246 17 -344 25 -257 22 -387 423 -204 630 92 105 108 188 43 228 -56 35 -178 -52 -271 -194z"/>
<path d="M15286 13677 c-207 -167 -287 -413 -187 -576 119 -192 399 -43 413 221 8 171 23 184 57 52 59 -224 231 -125 231 132 0 107 -19 194 -42 194 -23 0 -103 23 -178 52 -75 29 -207 -5 -294 -75z"/>
<path d="M6400 13462 c0 -158 278 -418 359 -336 67 66 -177 474 -283 474 -42 0 -76 -62 -76 -138z"/>
<path d="M2740 13102 c-601 -243 -1979 -1302 -1694 -1302 79 0 1001 526 1054 601 99 141 664 383 855 366 133 -12 205 55 227 208 34 240 -82 273 -442 127z"/>
<path d="M8300 12519 c0 -111 978 -275 1073 -179 98 98 5 134 -548 208 -330 45 -525 34 -525 -29z"/>
<path d="M13745 11895 c-150 -166 -259 -193 -561 -142 -366 62 -984 -174 -984 -375 0 -116 278 -95 353 27 36 57 307 95 604 83 555 -23 943 174 943 477 0 194 -141 166 -355 -70z"/>
<path d="M7600 11500 c0 -128 702 -128 900 0 107 69 1 97 -375 98 -289 1 -525 -43 -525 -98z"/>
<path d="M74104 11175 c2 -69 81 -268 175 -443 185 -345 981 -978 1062 -846 28 45 -149 222 -392 393 -255 180 -506 463 -591 667 -149 358 -262 459 -254 229z"/>
<path d="M6031 10652 c-292 -301 -531 -594 -531 -650 0 -199 306 -98 393 129 124 328 800 896 995 837 1350 -403 1452 -414 2146 -226 366 99 666 219 666 267 0 47 -124 38 -275 -22 -404 -158 -1432 -129 -1869 54 -682 285 -935 221 -1525 -389z"/>
<path d="M78423 11081 c83 -249 573 -505 1041 -543 l486 -41 -478 137 c-263 75 -581 233 -706 351 -253 237 -404 280 -343 96z"/>
<path d="M76200 10803 c0 -54 135 -168 300 -253 360 -186 402 -40 54 188 -286 187 -354 200 -354 65z"/>
<path d="M11088 10617 c-131 -101 -328 -218 -438 -262 -115 -45 -150 -97 -82 -122 148 -57 932 338 932 469 0 148 -147 118 -412 -85z"/>
<path d="M75532 10561 c37 -98 68 -195 68 -217 0 -111 796 -431 851 -343 34 55 -20 129 -120 164 -99 36 -335 179 -524 319 -272 201 -329 217 -275 77z"/>
<path d="M9301 10373 c-219 -140 -568 -242 -942 -273 -383 -32 -610 -99 -639 -189 -38 -114 67 -127 574 -70 591 67 1184 311 1502 618 242 233 -85 176 -495 -86z"/>
<path d="M78400 10519 c0 -170 1533 -1664 1576 -1537 25 73 -49 233 -165 357 -265 281 -269 399 -11 332 145 -38 200 -3 200 128 0 114 -175 270 -475 425 -503 260 -1125 423 -1125 295z"/>
<path d="M6785 10093 c-256 -167 -521 -438 -589 -602 -162 -391 -53 -491 137 -125 176 339 718 759 999 773 111 6 220 67 243 136 73 220 -310 132 -790 -182z"/>
<path d="M11450 10100 c-100 -110 -255 -200 -345 -200 -91 0 -208 -41 -260 -92 -52 -50 -207 -111 -345 -136 -184 -33 -152 -48 122 -58 431 -16 990 223 1161 496 167 267 -90 259 -333 -10z"/>
<path d="M15652 10019 c-28 -29 -52 -90 -52 -136 0 -111 474 -107 543 6 59 95 -403 217 -491 130z"/>
<path d="M12381 9725 c-72 -96 -266 -237 -431 -312 -165 -75 -381 -178 -479 -228 -99 -51 -213 -71 -255 -45 -41 26 -134 10 -206 -34 -72 -45 -91 -106 -41 -137 144 -89 1247 401 1523 678 139 139 201 253 136 253 -64 0 -175 -79 -247 -175z"/>
<path d="M6800 9300 c0 -55 45 -100 100 -100 55 0 100 45 100 100 0 55 -45 100 -100 100 -55 0 -100 -45 -100 -100z"/>
<path d="M14547 8740 c-198 -198 -334 -386 -302 -418 32 -32 206 85 386 260 181 175 405 318 499 318 93 0 170 45 170 100 0 222 -415 79 -753 -260z"/>
<path d="M5466 8138 c-271 -553 -290 -727 -64 -587 115 71 498 884 498 1057 0 239 -184 40 -434 -470z"/>
<path d="M19000 8000 c0 -55 45 -100 100 -100 55 0 100 45 100 100 0 55 -45 100 -100 100 -55 0 -100 -45 -100 -100z"/>
<path d="M17525 7778 c-237 -114 -314 -479 -100 -476 206 2 405 168 336 281 -36 57 14 151 112 208 247 144 -46 133 -348 -13z"/>
<path d="M18700 7800 c0 -55 20 -100 44 -100 24 0 72 45 106 100 34 55 14 100 -44 100 -58 0 -106 -45 -106 -100z"/>
<path d="M16296 7304 c-190 -163 -402 -298 -471 -300 -193 -6 -148 -175 61 -229 218 -57 542 99 465 223 -29 47 94 202 273 343 200 158 267 257 172 258 -84 1 -309 -132 -500 -295z"/>
<path d="M12273 7000 c-140 -110 -340 -200 -445 -200 -104 0 -277 -64 -384 -143 -187 -138 -187 -145 -9 -214 102 -40 214 -26 250 31 36 56 279 203 540 325 261 123 475 263 475 312 0 144 -155 103 -427 -111z"/>
<path d="M37350 3000 c-82 -132 38 -319 157 -246 121 75 121 346 -1 346 -52 0 -122 -45 -156 -100z"/>
</g>
</svg>