<svg xmlns="http://www.w3.org/2000/svg" version="1.0" width="800" height="250" viewBox="0 0 800.000000 250.000000" preserveAspectRatio="xMidYMid meet">
<metadata>
Created by potrace 1.10, written by Peter Selinger 2001-2011
</metadata>
<g transform="translate(0.000000,250.000000) scale(0.010000,-0.010000)" fill="#555555" stroke="none">
<path d="M13550 21498 c-1434 -51 -9423 -172 -12880 -194 l-679 -4 29 -660 30 -661 448 -151 c365 -123 511 -129 780 -31 276 99 369 93 552 -35 614 -432 863 -792 1108 -1594 97 -321 264 -670 369 -775 106 -106 193 -204 193 -218 0 -14 -787 -10 -1750 8 -1209 23 -1750 0 -1750 -75 0 -69 369 -115 1025 -129 564 -11 1250 -32 1525 -47 275 -14 1297 -41 2272 -59 974 -18 1803 -65 1841 -103 66 -66 -630 -81 -4938 -109 -1201 -8 -1725 -45 -1725 -123 0 -136 1264 -276 1641 -181 146 36 638 35 1095 -3 798 -66 837 -81 1013 -387 101 -174 356 -537 567 -805 211 -268 384 -595 384 -725 0 -194 52 -237 285 -237 268 0 297 42 467 675 176 653 437 1141 748 1396 97 80 483 119 1100 113 867 -9 902 -17 400 -85 -303 -42 -668 -123 -812 -180 -483 -192 -1272 -1344 -1433 -2093 -52 -240 -11 -442 159 -783 245 -491 436 -641 866 -681 149 -14 259 -77 246 -140 -76 -368 1428 -1021 2356 -1022 391 0 429 -22 400 -225 -28 -196 -100 -229 -557 -255 -289 -17 -525 12 -525 63 0 51 -209 146 -465 210 -544 137 -892 307 -1225 597 -132 116 -369 210 -525 210 -182 0 -285 52 -285 145 0 80 -70 184 -157 233 -199 111 -1042 1416 -1046 1619 -4 216 -655 892 -977 1015 -152 57 -516 73 -836 36 -455 -53 -657 -25 -1038 143 -259 115 -556 209 -659 209 -292 0 -219 -269 113 -416 363 -161 378 -243 58 -323 -295 -74 -856 221 -857 450 -1 114 -68 148 -231 117 -183 -35 -233 -112 -240 -374 -8 -278 21 -322 182 -280 220 58 775 -455 562 -518 -68 -20 -203 -62 -300 -94 -147 -47 -166 -14 -112 200 59 235 48 246 -132 133 -167 -104 -200 -248 -216 -937 l-19 -815 741 -422 c407 -231 786 -421 843 -421 56 0 320 -110 587 -245 266 -135 889 -343 1384 -461 495 -118 1091 -300 1325 -403 362 -160 425 -232 425 -484 0 -270 78 -338 875 -766 481 -259 1190 -627 1575 -818 385 -191 715 -387 733 -435 19 -48 199 -89 400 -90 202 -2 547 -47 767 -101 673 -166 1868 -382 2500 -452 330 -36 705 -132 833 -213 128 -81 304 -120 391 -87 89 34 249 -26 369 -139 210 -197 1322 -421 2957 -597 358 -38 805 -151 994 -251 281 -150 453 -168 950 -105 333 42 1574 81 2756 87 1298 6 2368 59 2700 133 1371 307 2236 427 3073 427 908 0 2157 217 2634 457 213 107 299 106 500 -10 134 -76 335 -189 448 -250 113 -61 260 -198 326 -304 104 -167 93 -193 -80 -193 -111 0 -201 50 -201 111 0 69 -124 92 -325 61 -660 -102 -1648 -291 -2475 -474 -467 -103 -1265 -213 -1773 -244 -508 -31 -1250 -119 -1650 -195 -400 -76 -1031 -171 -1402 -211 -442 -47 -675 -115 -675 -199 0 -161 -2891 -204 -3824 -56 -344 55 -1121 117 -1726 140 -626 23 -1372 117 -1730 218 -532 151 -687 159 -1005 54 -524 -173 -839 -106 -990 211 -200 418 -688 643 -1558 717 -427 36 -876 119 -997 185 -121 66 -602 197 -1070 291 -467 93 -1232 314 -1700 491 -467 177 -1277 475 -1800 663 -522 189 -1114 429 -1316 534 -201 105 -555 241 -786 304 -244 65 -590 276 -825 502 -440 422 -1107 778 -1973 1053 -302 95 -595 205 -650 244 -55 39 -201 96 -325 126 -223 55 -225 47 -225 -1082 0 -1031 19 -1147 198 -1243 109 -58 309 -78 445 -44 240 61 398 -51 826 -587 66 -82 179 -171 250 -197 102 -37 105 -76 11 -175 -97 -103 -167 -97 -365 33 -228 149 -260 147 -470 -35 -290 -252 -595 -256 -595 -8 0 103 -69 245 -153 314 -136 113 -151 -39 -142 -1387 7 -833 38 -1515 70 -1515 33 0 141 74 240 164 148 133 209 140 333 38 206 -171 192 -403 -23 -385 -401 34 -625 -26 -625 -165 0 -164 417 -305 644 -218 202 77 8528 217 12506 210 13383 -24 60667 -164 63425 -187 2831 -23 3425 -5 3425 107 0 98 -160 137 -575 140 -1826 14 -3311 186 -4294 499 -732 233 -916 240 -1175 44 -107 -81 -293 -147 -413 -147 -198 0 -214 40 -170 431 47 414 29 449 -462 890 -281 253 -511 482 -511 510 0 27 210 173 466 323 459 269 475 271 925 118 253 -85 777 -178 1165 -206 882 -64 1444 -311 1444 -635 0 -168 169 -355 613 -683 337 -248 708 -472 825 -498 116 -27 415 -95 662 -152 248 -57 590 -119 761 -139 171 -20 407 -67 525 -104 l214 -68 0 2567 c0 2407 -11 2563 -175 2493 -96 -42 -400 -154 -675 -251 -275 -96 -725 -274 -1000 -394 -689 -300 -2202 -796 -4137 -1354 -878 -253 -1419 -469 -2013 -804 -358 -202 -553 -178 -859 106 -422 391 -1046 349 -1736 -115 -442 -298 -672 -379 -1248 -440 -389 -41 -999 -163 -1357 -272 -357 -109 -1167 -251 -1800 -315 -633 -64 -1465 -160 -1850 -214 -879 -124 -5310 -178 -4837 -59 501 125 1082 382 1362 603 137 107 367 204 512 216 145 12 773 95 1397 184 624 90 1591 186 2150 214 1885 93 2954 249 3436 501 154 80 378 146 498 146 344 1 652 150 1118 539 401 336 447 350 645 211 249 -174 601 -192 875 -46 139 75 343 59 739 -56 414 -120 627 -134 876 -57 900 278 1558 549 1829 753 367 277 1419 621 2117 692 285 30 740 167 1013 305 272 138 715 302 983 364 637 149 1546 493 1745 662 87 74 210 134 275 134 88 0 115 1024 111 4075 -4 2408 -42 3987 -93 3860 -48 -118 -245 -421 -437 -673 -192 -252 -379 -551 -415 -665 -63 -200 -127 -207 -1782 -193 -945 8 -2021 -13 -2392 -46 -444 -40 -675 -25 -675 45 0 137 372 870 620 1222 289 410 634 369 855 -100 257 -548 505 -536 1036 48 685 755 988 925 1811 1019 400 45 897 153 1103 240 360 151 375 178 375 639 l0 482 -17625 -2 c-15258 -1 -22057 46 -29875 205 -3018 62 -9713 98 -9757 53 -24 -23 -594 -28 -1268 -10 -674 18 -2260 38 -3525 44 -1265 5 -2368 35 -2450 65 -82 30 -960 26 -1950 -10z m18500 -696 c165 5 683 -47 1150 -115 793 -115 1184 -272 2200 -887 83 -49 578 -276 1100 -503 523 -227 1113 -542 1313 -700 200 -158 482 -317 628 -354 345 -86 231 -223 -493 -589 l-556 -282 -221 207 c-206 193 -2326 1421 -2453 1421 -31 0 -172 105 -313 233 -261 239 -918 475 -1455 524 -165 15 -660 78 -1100 141 -683 97 -887 90 -1395 -53 -327 -91 -698 -234 -825 -317 -241 -158 -316 -54 -110 152 66 66 100 123 75 128 -173 29 -754 100 -1374 166 -1059 114 -3101 -199 -3771 -579 -165 -93 -435 -201 -600 -240 -1063 -251 -3375 -2204 -4067 -3435 -243 -433 -383 -1846 -195 -1963 81 -50 56 -147 -86 -327 -267 -339 -266 -1129 0 -1716 109 -240 198 -489 198 -554 0 -183 1495 -1253 2032 -1454 744 -279 2397 45 2886 566 143 153 354 466 469 696 l210 418 -804 832 c-799 826 -1333 1649 -1273 1961 17 89 143 189 281 221 171 40 257 135 275 304 79 738 353 1472 679 1817 190 201 345 414 345 472 0 206 279 104 460 -168 134 -201 188 -489 202 -1075 18 -796 151 -1350 323 -1350 50 0 251 67 447 149 550 230 650 141 536 -478 -151 -825 -724 -2396 -1051 -2879 -164 -243 -438 -545 -608 -670 -302 -223 -395 -457 -224 -563 47 -29 464 134 925 363 665 329 1008 587 1647 1239 871 887 834 805 1141 2522 164 917 272 1166 444 1024 205 -171 602 -32 844 295 328 444 1039 882 1681 1037 321 77 752 213 958 302 372 160 375 160 375 -71 0 -297 -834 -1939 -1156 -2275 -332 -348 -307 -516 110 -740 208 -112 342 -254 324 -344 -57 -296 -1203 -1113 -1778 -1267 -1035 -278 -1251 -360 -2119 -802 -477 -243 -923 -442 -991 -442 -220 0 -1012 -518 -925 -605 47 -46 512 -31 1035 35 989 125 1931 86 2700 -110 248 -63 723 -165 1058 -227 l607 -113 -3 -515 c-9 -1176 387 -2449 891 -2868 80 -66 123 -154 97 -196 -74 -121 -855 298 -1339 718 -242 210 -514 381 -606 381 -92 0 -400 225 -686 500 -551 531 -755 590 -1218 350 -283 -146 -484 -65 -355 144 122 198 -81 923 -336 1195 -238 255 -348 288 -1161 349 -825 61 -986 41 -1949 -247 -754 -224 -1336 -327 -2065 -364 -935 -48 -1072 -31 -1750 226 -1363 515 -1999 1100 -2680 2468 -133 268 -97 1629 61 2256 102 408 -182 222 -472 -308 -379 -693 -741 -1022 -1549 -1406 -400 -189 -819 -437 -933 -551 -185 -185 -898 -455 -2498 -947 -563 -173 -1115 -218 -1112 -90 4 225 197 348 462 295 178 -36 437 14 686 130 220 103 657 276 970 384 351 122 719 345 957 582 422 419 1056 834 1275 834 76 0 177 70 225 155 48 86 249 255 447 375 353 215 1876 2174 1876 2413 0 183 726 1254 1231 1816 640 711 1454 1305 1875 1368 561 85 1107 352 1164 569 36 137 165 216 416 255 460 70 1324 347 1492 479 378 295 1193 361 3872 313 1485 -27 2835 -45 3000 -41z m-13455 -350 c291 -147 668 -252 907 -252 370 0 422 -32 550 -341 98 -233 268 -398 543 -525 447 -206 507 -372 196 -539 -115 -61 -389 -275 -610 -474 -220 -199 -467 -372 -549 -384 -327 -48 -427 -133 -364 -308 43 -120 -20 -91 -192 90 -257 271 -1288 647 -1468 536 -52 -32 -166 44 -253 168 -150 214 -145 237 93 410 298 217 325 445 66 545 -178 69 -1214 1140 -1214 1255 0 83 686 139 1273 104 307 -19 731 -137 1022 -285z m29032 48 c94 -110 273 -200 397 -201 124 0 744 -46 1376 -101 1122 -99 1800 -243 1800 -383 0 -38 162 -157 361 -264 357 -192 362 -192 504 3 141 191 162 187 910 -204 1172 -612 2579 -1852 3054 -2691 376 -664 664 -809 1604 -807 991 3 1353 168 1713 782 279 476 316 832 136 1327 -106 294 -90 367 159 744 203 306 306 388 388 306 61 -61 234 -111 384 -111 225 0 326 94 581 540 442 772 835 937 2232 941 766 2 1074 -32 1074 -117 0 -65 -360 -477 -800 -914 -440 -437 -800 -851 -800 -919 0 -163 323 -331 638 -331 424 0 384 -166 -130 -534 -270 -195 -619 -467 -775 -606 -716 -640 -1192 -977 -1810 -1281 -609 -300 -763 -332 -1758 -363 -880 -28 -1167 0 -1482 141 -876 396 -608 -355 479 -1340 1721 -1559 2630 -2236 3188 -2376 221 -55 244 -89 133 -197 -109 -108 -230 -105 -680 13 -301 78 -631 143 -734 143 -103 0 -306 135 -450 300 -145 165 -300 300 -344 300 -44 0 -245 146 -447 325 -201 179 -568 505 -816 725 -247 220 -574 526 -727 681 -423 429 -606 263 -883 -801 -324 -1245 -706 -2016 -1320 -2659 -986 -1033 -1641 -1353 -2821 -1381 l-734 -17 -414 414 c-227 227 -497 413 -601 413 -196 0 -450 229 -357 322 97 97 1045 -436 1045 -587 0 -121 130 -139 729 -97 896 63 1121 146 1848 680 1402 1030 2067 2177 2190 3775 50 648 27 831 -158 1238 -127 278 -321 524 -466 590 -140 64 -270 225 -299 371 -153 771 -1031 1963 -1606 2183 -159 60 -583 224 -944 363 -361 139 -811 276 -1000 305 -189 28 -636 124 -994 212 -1393 344 -1808 379 -2380 199 -340 -107 -558 -240 -605 -367 -73 -197 -75 -197 -260 7 -157 174 -306 206 -955 206 -1713 0 -3556 -566 -6549 -2011 -1542 -744 -2555 -2299 -2798 -4293 -57 -471 43 -1184 260 -1860 38 -115 -510 -929 -627 -934 -36 -1 -88 167 -115 373 -28 206 -143 768 -256 1248 -186 792 -193 940 -76 1600 196 1103 1413 3291 1996 3591 118 61 328 213 465 338 138 125 475 347 750 494 275 148 635 355 800 460 447 287 1064 560 1454 642 190 41 441 161 558 268 267 245 1852 754 2781 894 389 58 932 168 1207 243 1029 282 1563 297 1777 47z m-34227 -143 c0 -180 -815 -857 -1032 -857 -230 0 -868 -587 -868 -798 0 -98 96 -241 213 -319 272 -180 193 -467 -209 -764 -222 -164 -496 -233 -1124 -280 -522 -39 -894 -118 -1003 -214 -272 -240 -101 -356 411 -279 417 63 1466 74 2111 24 140 -12 262 -92 280 -185 27 -141 -57 -160 -594 -132 -345 17 -696 -2 -781 -44 -85 -42 -649 -39 -1254 7 -951 72 -1726 126 -2500 175 -167 10 -175 28 -50 109 83 53 251 98 375 98 124 1 225 52 225 112 0 69 -169 97 -455 74 -442 -35 -453 -29 -392 214 35 138 106 302 158 365 52 63 210 333 351 601 142 267 320 602 396 743 76 141 326 408 556 592 l417 336 228 -286 227 -285 832 407 c570 279 1037 431 1482 482 1265 146 1851 217 1925 232 41 8 75 -49 75 -128z m53851 -258 c34 -56 239 -192 456 -302 318 -163 448 -324 687 -849 338 -747 536 -818 1106 -398 422 312 513 209 486 -550 -23 -636 71 -1325 285 -2087 115 -410 124 -594 40 -780 -162 -354 -136 -644 89 -983 109 -165 199 -431 199 -592 1 -161 78 -377 172 -482 163 -179 159 -212 -64 -634 -130 -245 -212 -470 -182 -501 31 -30 536 270 1123 667 980 662 1088 767 1318 1282 138 308 297 808 355 1110 57 303 157 820 223 1150 l120 600 693 -19 c381 -11 1492 -20 2468 -21 1772 -1 1775 -1 2032 -258 141 -141 242 -326 225 -411 -18 -86 -347 -289 -732 -452 -385 -164 -790 -349 -900 -413 -110 -63 -695 -148 -1300 -187 -1579 -103 -1738 -169 -2633 -1103 -422 -440 -782 -841 -800 -893 -64 -179 424 -90 1474 269 622 213 1306 375 1659 394 330 17 1082 64 1672 103 1026 68 1087 60 1425 -169 236 -160 332 -290 290 -390 -159 -379 -136 -608 108 -1089 251 -496 263 -711 40 -711 -57 0 -219 -91 -360 -202 -297 -234 -430 -210 -1268 225 -608 316 -802 320 -1476 32 -145 -61 -179 16 -237 531 -80 700 -283 975 -793 1070 -440 83 -1542 -160 -2260 -498 -297 -140 -792 -340 -1099 -445 -307 -105 -800 -374 -1096 -597 -1410 -1068 -5784 -1797 -7564 -1262 -120 36 -242 129 -272 206 -30 77 -120 140 -200 140 -80 0 -160 101 -178 225 -23 165 -99 225 -282 225 -211 0 -244 -39 -209 -250 23 -137 45 -745 49 -1350 6 -873 -28 -1167 -169 -1425 -212 -390 -359 -407 -671 -75 -382 407 -696 289 -973 -363 -169 -397 -1656 -1487 -2029 -1487 -62 0 -27 121 82 275 133 190 215 537 265 1123 76 889 148 1107 485 1477 240 263 231 277 -276 446 -214 71 -406 181 -427 245 -45 139 963 534 1365 534 500 0 944 272 1539 944 525 592 619 656 964 656 297 0 418 -55 546 -250 90 -137 241 -254 336 -258 105 -5 124 -28 48 -58 -215 -87 -138 -189 247 -328 516 -187 2898 -161 4010 44 584 108 1142 298 1705 580 857 430 1055 618 1207 1148 76 267 43 350 -285 712 -204 225 -449 410 -545 410 -543 0 -1789 1226 -2271 2234 -174 363 -378 712 -454 775 -296 246 -30 591 454 591 223 0 274 193 99 368 -95 95 -385 1774 -390 2257 -2 191 149 236 249 74z m-54951 -1299 c0 -55 -48 -100 -106 -100 -58 0 -78 45 -44 100 34 55 82 100 106 100 24 0 44 -45 44 -100z m37281 -1055 c27 -107 68 -622 92 -1144 24 -543 89 -978 153 -1017 61 -38 280 17 486 122 l375 191 33 -273 c69 -566 -477 -2057 -967 -2639 -138 -164 -322 -554 -409 -867 -249 -898 -226 -867 -445 -589 -110 139 -199 349 -199 467 0 321 -248 740 -878 1483 -550 648 -569 691 -606 1339 l-38 670 476 31 c459 30 479 44 594 431 229 769 992 2087 1174 2026 61 -20 133 -124 159 -231z m23070 -301 c-195 -148 -195 -151 31 -210 l228 -60 -209 -223 c-171 -182 -296 -217 -676 -188 -543 40 -1425 313 -1425 441 0 78 268 170 950 327 110 25 448 50 750 54 510 8 535 -2 351 -141z m2399 -247 c55 -10 -57 -55 -250 -101 -393 -93 -1222 -13 -1145 111 40 66 990 59 1395 -10z m1332 -110 c169 -7 102 -39 -180 -84 -470 -76 -802 -34 -802 100 0 133 236 174 482 83 127 -47 352 -92 500 -99z m-62054 -236 c505 -82 397 -207 -250 -291 -1100 -144 -1278 -130 -1278 100 0 166 65 211 310 218 171 5 335 34 365 64 30 30 149 35 265 12 115 -23 380 -70 588 -103z m25134 -28 c61 -40 208 -264 326 -497 173 -341 212 -586 203 -1262 -9 -649 28 -900 165 -1110 170 -259 170 -291 -6 -787 -298 -839 -1769 -2831 -2583 -3498 -906 -742 -2633 -1702 -3726 -2072 -476 -161 -923 -341 -994 -399 -161 -134 -447 233 -447 573 0 174 53 223 225 209 193 -16 1312 446 1775 732 83 51 375 204 650 340 464 230 1128 673 1672 1114 438 356 1596 1679 1854 2119 319 544 455 1155 454 2033 0 690 -125 1128 -457 1611 -220 319 -150 465 377 787 337 206 356 210 512 107z m-1744 -1745 c-71 -71 -118 -77 -118 -15 0 134 118 252 185 185 28 -28 -2 -105 -67 -170z m-24400 -157 c488 -178 941 -549 1406 -1153 218 -282 368 -370 725 -423 619 -93 568 -245 -82 -245 -478 0 -591 46 -1112 450 -318 248 -685 450 -814 450 -299 0 -488 -325 -345 -593 155 -290 125 -1032 -52 -1285 -110 -158 -257 -222 -506 -222 -546 0 -703 -144 -943 -864 -186 -559 -343 -793 -980 -1460 -631 -661 -1315 -1176 -1561 -1176 -147 0 -22 352 241 681 434 542 621 1072 675 1917 52 800 -126 1453 -426 1568 -308 118 -368 421 -153 763 293 464 1120 1178 1731 1494 632 326 1467 364 2196 98z m32447 -2040 c377 -257 764 -498 860 -535 96 -37 175 -127 175 -200 0 -73 89 -161 197 -195 109 -35 354 -246 546 -469 347 -406 657 -470 657 -135 0 84 45 153 100 153 55 0 100 -112 100 -250 0 -267 -41 -280 -756 -253 -525 20 -1484 -309 -2504 -860 -446 -240 -860 -437 -920 -437 -101 0 -307 373 -461 836 -48 148 -119 172 -335 116 -333 -86 -2640 -227 -2759 -169 -47 23 12 137 130 254 118 117 347 399 509 625 334 467 1177 1085 1757 1288 278 97 383 188 367 318 -49 412 39 455 863 417 750 -34 822 -59 1474 -504z m3538 -1886 c60 -113 92 -304 70 -425 -33 -191 -61 -171 -206 152 -194 431 -201 478 -71 478 54 0 146 -92 207 -205z m775 -1351 c309 -217 278 -293 -126 -301 -567 -13 -946 -474 -1155 -1408 -60 -267 -190 -575 -288 -685 -99 -110 -206 -276 -238 -368 -51 -143 -105 -152 -355 -57 -282 106 -319 86 -831 -460 -433 -461 -640 -600 -1085 -726 -1092 -309 -1027 -335 -705 284 155 300 313 743 351 986 38 242 159 638 268 879 141 311 168 470 93 545 -192 192 -113 341 218 406 179 36 570 232 868 438 515 353 592 375 1450 407 499 19 950 75 1002 125 136 130 279 113 533 -65z m-11675 -498 c208 -250 2169 -1202 3163 -1535 486 -162 1222 -326 1634 -363 545 -50 810 -124 969 -270 160 -147 316 -190 580 -159 337 39 359 25 331 -214 -26 -223 -74 -253 -380 -237 -497 25 -1400 193 -1732 322 -154 61 -448 110 -651 110 -486 0 -2637 636 -3102 917 -201 121 -635 445 -965 721 -330 275 -638 532 -685 571 -47 39 11 167 127 283 227 227 437 184 711 -146z m-35958 -1738 c31 -51 -112 -146 -319 -212 -207 -66 -477 -213 -601 -326 -254 -231 -277 -193 -109 175 64 140 196 255 294 255 98 0 206 45 240 100 78 125 419 131 495 8z m316 -587 c415 -362 597 -705 411 -777 -76 -28 -261 -5 -411 52 -151 57 -417 106 -593 108 -175 1 -427 64 -561 138 l-243 134 300 156 c165 85 359 225 431 311 178 216 305 193 666 -122z m55339 179 c0 -55 -48 -100 -106 -100 -58 0 -78 45 -44 100 34 55 82 100 106 100 24 0 44 -45 44 -100z m-259 -485 c28 -47 -36 -180 -144 -296 -222 -238 -256 -419 -77 -419 86 0 89 -31 12 -108 -197 -197 -7197 -281 -7831 -95 -192 57 -716 103 -1163 103 -892 0 -1438 79 -1438 209 0 46 92 169 204 273 248 231 1368 362 1774 207 149 -57 655 -98 1122 -90 468 8 1120 1 1450 -14 1584 -75 5291 70 5542 216 200 118 480 125 549 14z m-56041 -1571 c0 -24 -70 -44 -156 -44 -86 0 -128 46 -93 102 57 92 249 48 249 -58z"/>
<path d="M8700 17000 c0 -55 45 -100 100 -100 55 0 100 45 100 100 0 55 -45 100 -100 100 -55 0 -100 -45 -100 -100z"/>
<path d="M125 15734 c-69 -28 -125 -138 -125 -245 0 -184 13 -185 250 -30 377 247 289 442 -125 275z"/>
<path d="M741 8237 c34 -89 10 -225 -54 -302 -194 -234 4 -288 230 -63 232 232 190 528 -75 528 -110 0 -143 -53 -101 -163z"/>
<path d="M54867 3838 c-9 -7 -9737 -42 -21617 -78 -20766 -63 -26606 -104 -29200 -207 -660 -27 -1841 -49 -2625 -51 -1371 -2 -1425 -10 -1425 -208 0 -229 -811 -225 7500 -42 3790 84 16524 143 29800 139 6463 -2 13438 5 15500 14 8856 43 16225 25 21525 -50 5518 -79 5675 -76 5675 107 0 177 -111 189 -1925 201 -1059 7 -4827 45 -8375 85 -5872 65 -14792 120 -14833 90z"/>
<path d="M1025 724 c-889 -27 -1025 -54 -1025 -202 0 -162 914 -172 15275 -176 15830 -5 27365 -24 27625 -47 83 -7 5168 -31 11300 -54 6133 -23 14446 -55 18475 -71 6961 -28 7325 -20 7325 148 0 163 -139 178 -1675 182 -921 3 -4892 24 -8825 49 -21372 133 -66081 245 -68475 171z"/>
</g>
</svg>