<svg xmlns="http://www.w3.org/2000/svg" version="1.0" width="800" height="250" viewBox="0 0 800.000000 250.000000" preserveAspectRatio="xMidYMid meet">
<metadata>
Created by potrace 1.10, written by Peter Selinger 2001-2011
</metadata>
<g transform="translate(0.000000,250.000000) scale(0.010000,-0.010000)" fill="#555555" stroke="none">
<path d="M92 24625 c-5 -206 4 -2715 18 -5575 35 -6757 14 -11367 -58 -13050 -42 -981 -21 -1491 78 -1866 100 -378 125 -1001 93 -2325 l-42 -1809 1709 0 1710 0 0 489 c0 639 252 1969 551 2911 131 413 372 1178 536 1700 293 935 813 2106 1066 2400 71 83 504 878 963 1768 842 1633 950 1787 1873 2673 502 481 607 688 413 808 -186 114 -521 -167 -711 -597 -105 -237 -258 -456 -341 -488 -82 -32 -150 -33 -150 -4 0 124 1125 2193 1209 2223 127 47 114 -220 -17 -351 -178 -178 -70 -582 156 -582 135 0 310 189 553 600 318 536 436 639 1094 967 821 409 1874 1275 1960 1613 32 125 293 367 601 558 299 186 544 376 544 423 0 79 223 219 1210 755 219 120 488 332 599 473 112 142 389 307 621 369 230 62 577 193 769 292 193 98 801 342 1351 543 550 200 1078 408 1174 461 95 53 235 96 311 96 76 0 246 85 378 189 132 104 622 289 1088 412 467 123 1089 351 1383 507 294 155 744 313 1000 350 1196 175 2113 1111 1827 1864 -54 142 -75 281 -46 310 114 114 809 -81 1246 -349 320 -196 594 -283 895 -283 629 0 405 -154 -820 -566 -919 -308 -1639 -593 -2080 -823 -200 -104 -253 -311 -80 -311 79 0 521 139 984 308 462 170 1065 376 1340 459 275 83 543 192 595 242 52 50 181 91 286 91 104 0 324 113 487 250 240 202 407 250 865 252 312 0 972 86 1467 189 495 103 1215 194 1600 203 746 17 815 22 3350 264 908 86 1808 145 2000 131 745 -55 1165 -9 1547 173 433 205 723 612 623 872 -59 153 -944 166 -11472 166 l-11407 0 -171 -311 c-93 -171 -349 -557 -568 -858 l-397 -547 -178 219 c-234 290 -223 447 58 829 130 175 263 397 297 493 58 166 -362 175 -7935 175 l-7997 0 -8 -375z m13644 -525 c158 0 300 -80 369 -209 83 -155 172 -193 350 -149 205 52 251 14 323 -266 55 -213 153 -336 284 -355 116 -18 266 -176 356 -374 134 -295 138 -420 29 -871 -69 -289 -202 -673 -295 -853 -121 -234 -150 -441 -101 -726 88 -523 299 -633 863 -452 240 76 603 167 807 201 215 36 447 159 554 295 101 128 465 467 809 754 345 286 870 851 1169 1254 594 804 1227 1449 1422 1450 148 1 169 -460 25 -549 -55 -34 -100 -132 -100 -218 0 -112 70 -142 250 -108 380 73 354 20 -450 -920 -373 -436 -642 -617 -1575 -1064 -619 -296 -1125 -575 -1125 -619 0 -44 -224 -213 -498 -375 -274 -163 -499 -330 -500 -371 -1 -41 -203 -75 -448 -75 -246 0 -675 -90 -954 -200 -544 -215 -963 -252 -1193 -106 -105 66 -38 109 250 161 703 127 921 342 592 584 -84 61 -192 361 -242 668 -82 506 -514 1403 -867 1801 -121 137 -107 188 110 392 273 256 321 459 125 526 -146 50 -892 -515 -1325 -1002 -267 -301 -330 -327 -566 -237 -147 56 -297 205 -333 332 -37 127 -89 310 -116 406 -35 128 10 175 170 175 185 0 211 45 174 299 -33 221 17 356 188 517 128 120 247 199 265 176 18 -23 155 -256 304 -517 150 -261 313 -475 362 -475 226 0 173 233 -198 876 -220 382 -400 722 -400 756 0 34 198 -72 440 -235 241 -164 555 -297 696 -297z m6914 400 c-34 -55 -107 -100 -162 -100 -55 0 -72 45 -38 100 34 55 107 100 162 100 55 0 72 -45 38 -100z m-8312 -155 c34 -89 18 -129 -39 -94 -55 33 -99 103 -99 155 0 144 72 112 138 -61z m-4635 -292 c-163 -174 -245 -402 -276 -775 -57 -683 -303 -1350 -566 -1534 -171 -120 -188 -178 -93 -331 94 -150 78 -222 -84 -385 -168 -167 -189 -275 -131 -664 44 -292 120 -464 206 -464 166 0 283 410 196 683 -71 224 287 814 682 1125 136 107 279 340 318 518 155 716 1031 1488 1488 1313 223 -86 295 -431 147 -707 -109 -204 -108 -259 6 -330 76 -46 237 -46 360 0 390 149 644 14 644 -342 0 -532 -423 -902 -1500 -1314 -1023 -391 -1196 -495 -1045 -632 163 -147 2341 160 3095 437 786 289 928 382 1179 774 190 297 371 362 371 133 0 -257 -556 -701 -1410 -1125 -1069 -532 -1430 -640 -2209 -664 -749 -23 -848 -209 -231 -433 280 -101 613 -128 1110 -88 390 32 785 28 878 -7 221 -85 477 -585 401 -783 -56 -146 -610 -356 -945 -357 -86 -1 -243 -69 -350 -151 -189 -147 -186 -158 106 -402 225 -188 267 -271 170 -334 -72 -45 -123 -123 -113 -173 9 -50 11 -212 5 -359 -32 -720 -945 -264 -2047 1022 -123 144 -218 183 -285 116 -157 -157 129 -819 419 -970 602 -314 890 -935 820 -1773 l-31 -372 -496 655 c-272 361 -509 743 -525 849 -16 107 -83 247 -148 312 -66 66 -119 203 -119 306 0 269 -182 583 -525 904 -433 405 -813 208 -391 -202 102 -98 263 -425 359 -725 96 -300 235 -632 310 -738 114 -163 112 -215 -10 -337 -165 -165 -105 -329 120 -329 234 0 119 -328 -164 -471 -414 -210 -880 -160 -1142 123 -286 308 -448 256 -707 -228 -387 -724 -1172 -494 -1111 325 29 388 310 940 481 948 39 2 101 172 137 378 36 206 124 469 196 583 185 298 292 1102 157 1186 -63 39 -157 -52 -222 -213 -378 -944 -1024 -2129 -1188 -2181 -103 -33 -334 -226 -512 -429 -217 -248 -417 -374 -606 -383 -156 -8 -443 -137 -639 -286 -196 -150 -383 -245 -417 -212 -92 92 356 528 681 663 157 65 313 203 346 305 32 103 310 379 618 614 433 332 653 605 976 1214 229 432 493 828 585 880 182 102 232 384 68 384 -55 0 -100 70 -100 156 0 119 -89 149 -375 125 -460 -38 -519 -304 -84 -380 273 -48 280 -60 109 -201 -100 -82 -427 -458 -728 -835 -601 -753 -1054 -1019 -1569 -922 -250 47 -353 145 -498 474 -177 401 -177 426 -2 752 237 439 98 618 -340 436 -545 -225 -868 24 -725 562 61 231 174 316 618 466 299 100 837 207 1194 238 358 30 695 86 750 123 91 61 587 54 1096 -17 268 -37 319 281 68 416 -236 126 -732 146 -1203 50 -259 -53 -359 -32 -430 94 -53 94 -217 163 -393 163 -165 0 -377 41 -470 91 -375 202 -994 892 -1046 1167 -30 161 -102 471 -158 690 -76 291 -71 465 18 650 186 389 311 301 349 -248 39 -571 397 -1266 782 -1518 258 -169 983 -344 1437 -346 356 -2 1471 -778 1589 -1105 91 -253 77 -271 -214 -300 -453 -45 -481 -281 -33 -281 197 0 358 45 358 100 0 55 68 100 150 100 377 0 50 775 -528 1252 -260 214 -508 447 -552 518 -95 154 -432 173 -520 30 -96 -155 -433 67 -655 431 -348 570 -237 1386 213 1572 381 158 526 89 734 -350 178 -375 422 -442 556 -153 323 696 367 746 738 834 486 115 639 -24 725 -653 46 -334 5 -658 -149 -1163 -116 -384 -212 -793 -212 -909 0 -142 -64 -209 -200 -209 -110 0 -200 -21 -200 -47 0 -158 357 -753 452 -753 215 0 240 125 90 438 l-150 312 289 -328 c232 -264 311 -302 399 -196 61 73 93 266 72 429 -21 162 -41 329 -45 370 -4 41 -74 75 -157 75 -211 0 -189 122 132 723 154 290 337 782 405 1093 137 630 817 1684 1086 1684 130 0 117 -48 -70 -247z m12064 -378 c-271 -289 -741 -855 -1045 -1258 -466 -619 -1459 -1517 -1678 -1517 -131 0 108 1406 319 1875 139 308 337 441 337 225 0 -207 294 -89 500 200 157 221 294 300 517 300 178 0 427 103 601 250 164 138 381 250 484 250 102 0 214 45 248 100 34 55 95 100 136 100 41 0 -148 -236 -419 -525z m-5772 -2200 c450 -811 494 -1071 212 -1247 -105 -66 -207 -223 -225 -349 -27 -192 -101 -234 -464 -260 -422 -30 -429 -26 -312 200 65 127 210 331 321 453 233 255 203 276 -552 377 -261 35 -475 86 -475 114 0 27 124 155 276 282 165 139 327 420 400 694 76 283 180 461 270 461 81 0 328 -326 549 -725z m-1675 -2086 c166 -89 180 -128 69 -198 -321 -203 -989 -48 -989 229 0 119 682 97 920 -31z m780 -954 c0 -35 -150 -249 -333 -475 -182 -225 -520 -689 -750 -1030 -230 -342 -577 -742 -772 -891 -195 -148 -440 -458 -545 -688 -206 -453 -1032 -1205 -1205 -1098 -181 112 0 616 362 1011 189 206 343 480 343 608 0 146 219 469 587 864 322 346 668 762 768 922 404 650 658 842 1114 842 237 0 431 -29 431 -65z m-9300 -5777 c517 -165 853 -343 1082 -574 l332 -334 243 281 c238 274 443 287 443 28 0 -71 113 -341 251 -601 205 -385 254 -630 271 -1340 19 -802 -2 -902 -266 -1315 l-286 -447 -220 763 c-253 876 -547 1415 -1251 2292 -275 342 -499 655 -499 696 0 41 -202 203 -450 359 -247 156 -450 318 -450 359 0 96 -68 110 800 -167z m73 -1233 c771 -1038 1118 -1626 1191 -2018 37 -196 128 -502 202 -679 186 -446 164 -1034 -50 -1312 -164 -213 -214 -224 -575 -127 -696 187 -1528 1299 -1542 2061 -4 165 -70 413 -149 550 -214 375 -182 499 163 619 307 107 311 118 253 620 -32 281 -88 612 -124 736 -118 407 122 236 631 -450z m-3004 -4642 c127 -120 231 -295 231 -388 0 -286 239 -413 550 -295 346 132 480 28 636 -492 l118 -394 -477 -454 c-262 -251 -532 -456 -599 -458 -67 -1 -187 234 -266 523 -259 946 -528 2175 -476 2175 28 0 155 -98 283 -217z m-432 -1095 c35 -172 63 -438 63 -590 0 -153 137 -538 304 -855 270 -514 287 -595 154 -728 -129 -129 -157 -130 -195 -8 -291 942 -363 1218 -415 1599 -33 244 -81 545 -106 669 -25 124 -6 225 44 225 49 0 117 -141 151 -312z m3908 -163 c-80 -261 -192 -644 -249 -850 -111 -401 -203 -457 -387 -236 -177 213 -602 255 -1039 100 -468 -165 -470 -165 -470 -46 0 51 171 168 381 261 209 92 423 264 475 382 52 118 285 306 517 417 233 112 479 259 545 325 67 67 178 122 247 122 98 0 93 -105 -20 -475z m-871 -1450 c157 -200 230 -630 163 -965 -46 -230 -117 -310 -274 -310 -225 0 -1104 308 -1225 429 -123 123 -438 77 -438 -64 0 -73 79 -204 175 -289 200 -177 1034 -476 1328 -476 212 0 233 -95 132 -598 -138 -691 -1028 -833 -1627 -260 -148 142 -336 258 -417 258 -216 0 -491 526 -491 940 0 299 36 360 209 360 115 0 441 196 725 435 284 240 606 486 716 547 271 152 903 147 1024 -7z"/>
<path d="M7347 19796 c-35 -58 -9 -171 58 -252 93 -112 154 -119 260 -32 104 87 110 148 24 251 -136 164 -254 175 -342 33z"/>
<path d="M7374 19140 c-124 -123 56 -340 281 -340 312 0 398 165 154 295 -222 119 -349 132 -435 45z"/>
<path d="M7700 18437 c-192 -69 -429 -128 -525 -131 -204 -7 -225 -116 -55 -286 169 -169 480 -149 480 30 0 83 84 150 188 150 202 0 473 256 342 323 -44 22 -237 -16 -430 -86z"/>
<path d="M5654 17837 c-70 -374 44 -612 237 -492 60 37 109 244 109 461 0 515 -251 538 -346 31z"/>
<path d="M6200 17850 c-172 -452 -108 -685 160 -582 161 62 193 687 40 782 -55 34 -145 -56 -200 -200z"/>
<path d="M40100 24962 c0 -205 546 -1186 722 -1298 163 -103 654 -157 1728 -189 949 -28 1684 -100 2000 -198 906 -279 2177 -611 2441 -636 142 -14 439 -90 659 -170 220 -79 605 -171 856 -203 552 -71 1039 179 1229 631 l124 294 276 -255 c270 -251 272 -262 103 -522 -95 -146 -244 -319 -330 -384 -127 -95 -133 -143 -32 -246 136 -138 1583 -473 2077 -481 347 -6 1028 -190 1897 -514 542 -202 757 -221 2228 -201 896 12 1931 82 2300 157 1099 222 2250 708 2627 1109 253 268 395 312 394 119 0 -69 -129 -198 -287 -288 -158 -90 -409 -389 -559 -665 -291 -534 -469 -622 -1259 -622 -210 0 -504 -47 -654 -104 -167 -63 -308 -68 -365 -11 -111 111 -2185 28 -2316 -93 -50 -46 -104 -200 -119 -342 -24 -228 45 -291 591 -540 882 -401 1651 -638 1835 -568 88 34 493 -97 901 -290 407 -194 780 -352 827 -352 121 0 312 -584 211 -647 -45 -28 -132 9 -193 83 -172 207 -883 496 -1057 430 -246 -95 -180 -331 128 -459 156 -65 452 -319 657 -565 309 -369 378 -534 397 -945 13 -273 -5 -497 -38 -497 -108 0 -571 540 -729 850 -84 165 -280 419 -436 563 -439 408 -1628 1187 -1810 1187 -90 0 -323 106 -519 235 -1317 872 -1846 1178 -2131 1230 -178 33 -674 230 -1103 437 -428 208 -864 355 -968 328 -242 -64 -345 -323 -151 -384 81 -25 215 -67 298 -93 83 -26 150 -112 150 -191 0 -202 1136 -1399 1826 -1924 563 -428 837 -522 1029 -355 387 336 1488 377 1747 64 67 -81 184 -147 260 -147 76 0 138 -35 138 -78 0 -44 146 -163 325 -265 179 -102 431 -281 560 -396 366 -329 843 -1361 628 -1361 -55 0 -129 94 -166 208 -36 114 -275 419 -531 676 -982 987 -1736 1348 -2336 1119 -778 -297 -965 -419 -1121 -727 -90 -179 -220 -409 -287 -510 -103 -156 -87 -208 103 -338 189 -128 225 -243 224 -715 0 -596 -149 -1276 -326 -1493 -83 -102 -138 -57 -245 199 -76 181 -236 433 -354 559 l-216 229 337 972 c185 534 396 1042 470 1129 245 287 143 482 -454 865 -324 207 -773 609 -996 894 -224 284 -577 641 -786 794 -208 152 -521 409 -695 569 -222 205 -455 308 -775 344 -587 66 -595 -49 -58 -926 519 -847 767 -1390 893 -1948 121 -540 140 -2600 24 -2600 -45 0 -184 117 -308 260 -190 219 -209 302 -120 525 130 326 170 1640 64 2115 -80 358 -780 1642 -953 1750 -53 32 -352 398 -664 813 -614 816 -701 870 -1652 1034 -349 59 -995 194 -1435 299 -440 105 -1170 217 -1623 250 -491 35 -1180 175 -1711 349 -757 247 -951 276 -1315 194 -336 -75 -522 -59 -877 76 -429 164 -456 164 -582 -9 -100 -137 -199 -163 -412 -106 -270 71 -1876 71 -2660 0 -209 -19 -444 -87 -521 -151 -84 -70 -263 -90 -445 -50 -253 56 -416 -8 -979 -382 -728 -484 -1989 -1036 -2104 -921 -39 39 54 161 206 272 434 316 511 536 308 881 -96 162 -149 321 -117 352 31 32 277 73 545 91 268 18 543 39 612 46 155 15 165 276 13 369 -139 86 -1028 -107 -1888 -409 -598 -210 -1711 -426 -2621 -508 -203 -19 -525 -98 -715 -178 -596 -249 -1457 -393 -1607 -268 -93 77 -213 80 -401 8 -148 -56 -395 -102 -549 -102 -154 0 -392 -88 -530 -197 -226 -177 -1064 -434 -1251 -383 -205 56 -1571 -561 -2173 -982 -109 -76 -294 -138 -412 -138 -118 0 -321 -84 -453 -186 -131 -103 -350 -221 -488 -263 -547 -168 -3278 -2855 -3540 -3485 -50 -119 -241 -531 -425 -917 -337 -706 -397 -954 -261 -1089 100 -101 121 -651 26 -710 -42 -26 -133 88 -202 254 -68 165 -188 336 -265 380 -113 63 -93 130 105 344 149 161 294 494 366 844 167 809 419 1265 1333 2408 323 404 694 775 825 825 326 124 299 346 -61 495 -250 103 -386 95 -823 -48 -288 -94 -637 -249 -776 -345 -139 -96 -589 -365 -1002 -597 -412 -233 -907 -530 -1100 -661 -842 -572 -2166 -1535 -2686 -1951 -310 -249 -689 -517 -842 -594 -310 -157 -2133 -2213 -2309 -2604 -62 -138 -295 -498 -518 -800 -451 -612 -823 -1232 -1320 -2197 -184 -356 -368 -671 -410 -700 -42 -29 -133 -193 -202 -363 -104 -259 -167 -302 -383 -261 -243 47 -254 32 -181 -240 43 -159 98 -739 122 -1288 l43 -999 -238 224 c-325 305 -444 284 -838 -146 -323 -353 -338 -358 -334 -125 3 135 74 425 158 645 85 220 259 738 386 1150 128 413 264 829 303 925 48 120 24 175 -78 175 -82 0 -196 -124 -253 -275 -57 -151 -237 -616 -400 -1034 -164 -417 -329 -912 -368 -1100 -38 -187 -136 -540 -216 -782 -255 -778 42 -960 554 -340 167 204 327 348 353 321 27 -27 -105 -346 -294 -708 -334 -639 -847 -2645 -848 -3313 -1 -263 22 -279 371 -250 321 27 384 74 462 348 122 429 501 529 829 221 130 -123 237 -305 237 -405 0 -160 89 -183 700 -183 532 0 700 33 700 139 0 77 93 442 208 812 170 550 313 780 791 1272 322 332 632 570 692 533 60 -37 108 -234 106 -437 -3 -328 -18 -350 -136 -194 -189 249 -301 220 -640 -167 -279 -318 -604 -1038 -758 -1681 l-66 -273 2142 0 c2331 1 2261 -17 2261 581 0 278 313 954 562 1214 124 129 134 103 76 -200 -36 -192 -149 -574 -252 -849 -102 -275 -186 -556 -186 -625 0 -202 214 -143 271 74 28 109 90 175 136 147 46 -29 60 -117 29 -196 -44 -116 84 -142 694 -139 747 4 749 5 1059 391 171 212 311 411 311 441 0 243 2187 2355 2440 2356 105 1 465 131 800 289 336 158 900 362 1255 453 354 91 662 182 683 204 62 62 1077 -311 1371 -504 148 -97 308 -277 355 -401 47 -124 247 -302 443 -395 197 -94 542 -378 766 -633 384 -435 405 -490 352 -937 l-56 -475 343 0 c383 0 701 -344 590 -636 -57 -147 74 -164 1259 -164 l1323 0 -165 225 c-92 124 -288 420 -438 659 -597 955 -1461 2035 -2318 2897 -497 499 -903 932 -903 961 0 29 143 127 318 217 236 122 455 148 851 102 606 -72 2292 225 3031 534 423 176 1228 332 2328 451 524 56 1572 491 1572 653 0 55 69 101 154 101 266 0 1702 820 1997 1140 56 61 292 258 525 440 300 233 424 285 424 178 0 -83 -90 -199 -200 -258 -110 -59 -200 -182 -200 -274 0 -227 848 606 1006 989 138 333 177 345 355 110 112 -147 133 -150 136 -20 2 85 -50 208 -115 273 -65 65 -87 150 -48 189 39 39 146 -39 239 -173 387 -561 701 -797 939 -709 415 153 464 375 154 698 -240 251 -280 379 -296 944 -19 696 128 995 558 1132 213 67 930 505 1175 718 81 69 338 261 571 425 343 241 436 374 488 699 52 326 90 380 201 288 110 -91 137 -65 137 127 0 178 82 271 315 359 173 65 353 95 401 65 130 -80 495 61 430 167 -32 51 1 93 73 93 90 0 138 -181 153 -582 21 -580 20 -583 -356 -775 -207 -106 -594 -429 -859 -717 -425 -462 -466 -544 -345 -691 76 -91 117 -170 92 -175 -25 -6 45 -212 157 -460 318 -703 458 -1113 546 -1600 62 -338 71 -239 39 400 -30 593 -2 922 91 1087 130 231 136 225 256 -250 67 -268 258 -797 424 -1175 242 -553 275 -705 167 -774 -175 -111 -284 -110 -284 1 0 50 -180 107 -400 128 -375 36 -400 22 -400 -224 0 -269 268 -593 491 -593 191 0 68 -245 -143 -286 -101 -20 -244 45 -316 144 -125 170 -132 169 -132 -27 0 -113 -67 -263 -150 -331 -82 -68 -150 -190 -150 -270 0 -111 74 -130 308 -78 280 61 305 47 275 -163 -21 -149 -122 -253 -283 -292 -214 -52 -246 -110 -222 -402 16 -187 95 -441 175 -564 201 -307 184 -666 -41 -870 -306 -278 -833 -303 -1682 -83 -429 112 -908 232 -1064 267 -235 52 -263 88 -163 209 96 115 95 146 -4 146 -235 0 -750 -385 -1200 -898 -247 -281 -674 -676 -949 -879 -275 -202 -556 -444 -625 -537 -69 -93 -294 -272 -500 -396 -570 -345 -914 -765 -1300 -1590 -193 -412 -424 -834 -513 -937 -151 -174 -149 -184 38 -150 133 25 328 289 580 787 209 413 444 846 521 964 186 286 1351 1167 1434 1084 36 -35 65 -689 65 -1451 l0 -1387 1079 5 c913 4 1061 26 963 145 -64 77 -182 140 -263 140 -80 0 -126 56 -102 125 81 230 944 121 1321 -167 186 -142 420 -257 520 -256 360 4 -571 679 -1110 805 -717 168 -870 261 -554 340 157 40 418 -12 698 -140 485 -219 698 -256 698 -121 0 175 -1179 623 -1455 554 -223 -56 -259 -37 -229 122 27 143 138 195 460 219 489 35 620 318 149 321 -446 2 -594 159 -221 234 664 133 1039 74 1398 -221 445 -364 797 -549 882 -464 36 36 -46 153 -184 259 -137 106 -422 332 -633 503 -367 299 -410 309 -1050 249 -663 -63 -1067 39 -866 218 54 49 347 156 649 237 918 246 2534 -56 3128 -586 329 -293 1329 -729 1830 -798 242 -33 491 -121 553 -196 147 -178 389 -176 389 2 0 153 -576 461 -865 461 -280 0 -1449 579 -1752 868 -147 139 -317 223 -379 185 -61 -38 -291 24 -509 138 -219 114 -645 237 -947 272 -301 36 -548 103 -548 151 0 218 1685 10 2400 -297 955 -410 2564 -914 3105 -972 355 -38 891 -131 1191 -207 300 -76 709 -138 908 -138 477 0 868 -379 705 -684 -115 -214 -229 -265 -834 -372 -248 -44 -375 -29 -375 45 0 61 45 111 100 111 55 0 100 68 100 150 0 83 68 150 150 150 83 0 150 -45 150 -100 0 -55 90 -100 200 -100 308 0 237 260 -111 404 -303 126 -321 117 -737 -335 -373 -407 -473 -462 -808 -450 -235 9 -399 -35 -426 -115 -24 -71 -127 -213 -231 -317 -319 -319 -222 -387 552 -387 561 0 753 36 797 148 32 85 123 123 210 90 100 -39 154 -2 154 104 0 148 26 149 295 11 162 -84 410 -153 550 -153 140 0 255 -34 255 -75 0 -41 653 -83 1450 -93 l1450 -19 0 392 c0 649 379 1653 676 1788 423 194 463 2 182 -886 -284 -899 -330 -1348 -133 -1282 69 23 156 256 193 518 76 533 139 640 286 493 67 -67 50 -221 -52 -465 -206 -494 -193 -571 98 -571 169 0 252 57 257 175 15 344 99 662 211 796 198 239 293 22 371 -846 6 -69 46 -125 89 -125 117 0 133 892 20 1103 -54 101 -179 209 -278 241 -534 169 -570 2167 -49 2771 79 93 290 165 479 165 185 0 380 27 432 59 146 90 293 -147 366 -589 36 -220 89 -524 117 -675 42 -226 15 -275 -151 -275 -253 0 -315 -99 -357 -573 -42 -472 -282 -549 -450 -145 -115 278 -26 1192 164 1688 41 106 15 143 -80 113 -253 -80 -491 -707 -491 -1295 0 -654 264 -1099 631 -1061 183 19 212 -18 175 -227 -80 -451 -58 -931 44 -966 57 -19 103 177 107 459 4 272 59 556 122 632 64 76 102 304 87 506 -33 414 58 628 223 526 137 -85 147 -781 13 -915 -53 -53 -108 -358 -121 -677 -14 -319 -60 -602 -103 -628 -188 -117 -50 -237 272 -237 318 0 350 26 350 283 0 156 30 314 68 351 88 89 532 -330 532 -501 0 -73 68 -133 151 -133 123 0 139 97 88 537 -38 319 -23 561 36 598 59 36 127 -180 167 -537 46 -402 112 -598 203 -598 106 0 125 172 90 796 -26 447 -1 881 56 988 116 216 902 616 1210 616 139 0 253 -118 363 -375 88 -206 197 -449 243 -540 45 -90 91 -461 103 -825 14 -436 62 -660 142 -660 89 0 107 249 70 951 -48 928 -43 957 214 1195 320 296 327 391 49 669 -208 208 -209 220 -31 350 246 180 385 170 564 -40 331 -388 432 -867 424 -2000 -7 -921 18 -1125 136 -1125 122 0 139 207 103 1275 -37 1076 -79 1343 -270 1711 l-226 435 208 221 c255 272 295 556 49 352 -130 -109 -173 -107 -248 12 -50 79 -92 199 -92 265 -3 178 374 350 603 277 291 -92 695 -744 695 -1121 0 -180 42 -327 94 -327 363 0 121 964 -368 1468 -299 308 -384 344 -660 284 -513 -113 -592 -109 -642 33 -34 97 10 118 152 73 134 -43 221 -11 262 97 46 121 136 145 362 95 184 -40 300 -25 300 39 0 156 -393 336 -610 279 -278 -72 -244 244 61 574 190 204 328 263 565 239 283 -28 357 -114 753 -881 543 -1051 630 -1563 630 -3725 l1 -1675 662 0 662 0 -68 925 c-37 509 -85 1533 -108 2275 -22 742 -68 1575 -101 1850 -34 275 -9 1063 56 1750 135 1429 200 9286 78 9361 -44 28 -75 357 -70 732 6 375 -19 773 -54 886 -112 352 85 321 522 -82 344 -318 423 -458 433 -768 6 -208 1 -424 -12 -479 -48 -197 -19 -886 166 -3990 33 -544 1 -1917 -69 -3050 -154 -2478 -176 -3855 -75 -4660 67 -538 76 -1039 64 -3500 -7 -1324 -28 -1250 364 -1250 395 0 378 -56 365 1200 -4 413 -10 1380 -14 2150 -3 770 -42 2143 -87 3050 -45 908 -49 1718 -9 1800 129 268 191 4800 81 5850 -153 1447 -132 2463 68 3268 61 245 13 302 -546 650 -472 294 -669 493 -854 862 -231 463 -247 685 -101 1420 21 110 315 443 653 740 453 398 736 565 1079 636 267 55 2212 85 4565 69 4008 -26 4875 -26 8250 2 908 8 2201 -17 2875 -55 l1225 -69 0 1713 0 1714 -637 0 c-629 0 -639 -4 -698 -300 -33 -165 -34 -429 -3 -586 42 -207 -15 -402 -203 -700 -281 -446 -357 -479 -655 -293 -165 103 -250 76 -574 -184 -209 -167 -470 -349 -580 -404 -213 -106 -2020 -170 -1919 -68 33 33 383 172 778 308 752 261 1517 782 2483 1693 l558 527 -300 3 c-232 3 -436 -127 -900 -576 -769 -743 -1592 -1278 -2100 -1364 -220 -37 -647 -160 -950 -273 -626 -234 -1827 -344 -2200 -202 -218 83 -173 104 350 163 947 107 1448 323 1515 655 32 160 155 324 290 385 130 59 306 243 391 409 184 355 432 507 827 507 158 0 330 42 382 92 52 51 230 112 395 135 165 24 -1018 50 -2629 58 -2432 12 -2966 -10 -3153 -133 -311 -203 -1679 -452 -2488 -452 -792 0 -2611 -333 -3151 -578 -210 -94 -523 -273 -696 -397 -173 -124 -336 -225 -362 -225 -27 0 -70 146 -97 325 -86 569 384 1262 758 1118 72 -28 331 38 575 146 l443 197 -3550 -1 c-1952 0 -3483 -24 -3400 -53 83 -29 342 -142 578 -252 332 -156 458 -174 568 -83 183 152 605 -112 809 -506 198 -383 45 -447 -554 -232 -505 182 -830 173 -4484 -125 -693 -57 -1159 17 -1065 169 33 53 293 98 579 99 623 1 817 103 743 388 -42 160 -3 221 160 251 119 22 396 78 616 126 232 49 622 46 929 -8 445 -79 556 -67 696 74 157 156 -420 167 -8904 167 -4989 0 -9071 -17 -9071 -38z m29400 -850 c0 -95 -382 -266 -825 -369 -262 -62 -318 -143 -283 -414 8 -66 -133 -195 -314 -287 -180 -91 -403 -232 -495 -312 -141 -124 -285 -128 -950 -26 -489 74 -1157 94 -1779 52 l-996 -68 190 210 c189 208 830 536 1402 717 532 168 1982 381 2650 390 358 5 740 48 850 95 267 115 550 121 550 12z m-16100 -562 c75 -91 83 -150 20 -150 -183 0 -420 119 -420 211 0 143 264 103 400 -61z m6344 -56 c584 -219 868 -451 410 -336 -304 76 -654 -177 -654 -473 0 -103 -71 -185 -159 -185 -88 0 -274 -90 -414 -200 -285 -224 -638 -257 -914 -85 -140 88 -297 88 -643 0 -754 -189 -952 -157 -988 160 -30 254 -67 275 -482 280 -1111 13 -1233 35 -1098 197 166 200 79 274 -485 415 -425 106 -379 112 519 68 556 -27 1189 0 1450 62 255 61 1004 148 1664 193 660 45 1210 88 1221 96 12 8 270 -79 573 -192z m1406 -194 c177 -196 175 -200 -84 -178 -180 15 -266 79 -266 200 0 233 126 226 350 -22z m-19763 -1657 c20 -18 -12 -171 -71 -339 -98 -282 -78 -335 242 -655 303 -304 412 -349 839 -349 662 0 707 -143 108 -339 -364 -119 -561 -135 -755 -61 -145 55 -363 100 -486 100 -288 0 -953 857 -1030 1327 -53 332 -46 340 244 298 164 -24 330 7 369 69 59 97 411 63 540 -51z m-1587 -147 c0 -112 96 -393 214 -624 145 -283 166 -380 65 -296 -90 75 -272 100 -455 64 -254 -51 -334 -18 -476 199 -94 144 -233 261 -310 261 -76 0 -138 90 -138 200 0 110 -45 200 -100 200 -55 0 -100 45 -100 100 0 56 283 100 650 100 588 0 650 -20 650 -204z m-10145 -841 c298 -299 321 -856 66 -1605 -156 -456 -196 -497 -452 -470 -246 26 -301 -21 -440 -375 -106 -269 -221 -405 -343 -405 -106 0 -292 -172 -441 -407 -220 -349 -279 -389 -412 -279 -131 109 -186 92 -344 -103 -304 -376 -219 -170 220 530 351 560 658 1265 1239 2844 208 565 519 658 907 270z m17199 143 c355 -135 284 -415 -304 -1187 -329 -433 -589 -653 -1000 -848 -575 -272 -744 -302 -1124 -200 -279 75 -196 237 121 237 155 0 343 134 545 389 368 465 378 549 84 681 -222 98 -221 102 91 263 238 123 302 213 262 365 -41 160 -4 202 184 204 131 0 305 45 387 98 194 125 422 125 754 -2z m1316 -477 c352 -352 467 -1221 162 -1221 -107 0 -297 -139 -422 -309 -172 -231 -283 -294 -448 -253 -130 33 -355 -27 -547 -144 -621 -377 -715 98 -142 718 552 596 726 900 726 1270 1 288 28 323 204 267 112 -35 322 -183 467 -328z m-21671 104 c-3 -144 -726 -543 -1236 -681 -282 -76 -625 -170 -763 -209 -221 -62 -235 -51 -118 92 115 140 573 334 1768 748 165 57 311 109 325 114 14 6 24 -23 24 -64z m1701 -30 c0 -58 -64 -228 -141 -378 -78 -151 -174 -452 -214 -670 -40 -219 -199 -644 -354 -947 -263 -514 -282 -530 -286 -244 -3 168 -71 393 -152 500 -81 107 -148 318 -150 470 -3 310 565 1244 797 1309 289 81 500 64 500 -40z m-1705 -753 c-329 -340 -1517 -1242 -1638 -1242 -31 0 -57 75 -57 167 0 92 -77 252 -171 356 -214 236 -124 301 653 475 311 70 723 234 915 364 533 363 698 296 298 -120z m6505 58 c-82 -53 -217 -97 -300 -97 -133 0 -133 11 0 97 83 53 218 97 300 97 133 0 133 -11 0 -97z m1719 32 c-72 -29 -159 -26 -192 8 -33 33 26 56 131 52 117 -5 141 -28 61 -60z m4888 -879 c-114 -706 -109 -770 86 -1043 250 -351 256 -410 42 -410 -390 0 -4871 -1840 -5533 -2273 -192 -125 -401 -227 -466 -227 -231 0 -1795 -720 -2317 -1066 -719 -477 -2170 -1138 -2555 -1163 -374 -25 -525 167 -164 207 515 58 700 130 700 274 0 163 -156 200 -244 58 -31 -50 -207 -86 -391 -81 -254 8 -326 48 -295 168 108 413 -1066 908 -1749 737 -197 -50 -234 -27 -205 128 24 125 169 219 435 281 219 52 413 103 430 115 17 11 -84 136 -225 277 -278 278 -338 565 -118 565 76 0 194 -68 262 -150 68 -82 180 -150 247 -150 67 0 203 -90 303 -200 191 -211 450 -269 450 -100 0 55 68 100 150 100 170 0 201 -157 50 -250 -178 -110 -106 -514 139 -779 351 -378 900 -452 1405 -189 223 116 530 257 681 312 337 124 380 539 75 729 -236 148 -260 277 -51 277 82 0 206 -90 274 -200 171 -274 505 -251 989 70 629 416 775 1020 343 1425 -169 159 -324 215 -500 182 -277 -54 -323 15 -135 203 145 145 580 160 580 20 0 -55 68 -100 150 -100 171 0 180 99 58 625 -116 500 127 520 306 25 69 -192 162 -350 206 -350 44 0 80 -175 80 -388 0 -501 339 -760 886 -674 200 32 551 85 779 119 274 41 511 161 694 353 176 183 380 290 555 290 195 0 350 97 531 334 429 563 321 928 -377 1285 -235 120 -259 164 -142 261 112 93 225 46 551 -233 396 -339 615 -332 482 16 -77 199 42 937 150 937 190 0 293 -387 172 -651 -94 -207 -93 -280 4 -340 96 -59 83 -151 -55 -398 -175 -312 -174 -325 14 -466 355 -265 740 -184 969 205 199 337 387 458 387 250 0 -207 294 -89 501 201 161 227 198 378 146 612 -47 213 -10 429 117 691 102 209 203 362 225 341 21 -22 -15 -378 -82 -792z m-5257 647 c79 -128 -252 -128 -450 0 -117 76 -91 97 119 98 148 1 297 -43 331 -98z m-950 -100 c-82 -53 -217 -94 -300 -91 -99 3 -82 34 50 91 275 118 433 118 250 0z m1800 -56 c0 -24 -45 -44 -100 -44 -55 0 -100 48 -100 106 0 58 45 78 100 44 55 -34 100 -82 100 -106z m-3500 -91 c0 -79 -615 -372 -668 -318 -27 27 78 119 234 203 294 159 434 196 434 115z m900 8 c0 -22 -70 -66 -155 -99 -89 -34 -129 -18 -94 39 58 95 249 141 249 60z m5847 -157 c33 -52 132 -67 221 -33 97 37 215 -12 296 -124 163 -222 177 -447 29 -447 -143 0 -793 501 -793 612 0 118 173 112 247 -8z m-5299 -394 c-164 -159 -410 -316 -548 -349 -181 -43 -161 -18 75 90 432 199 411 286 -50 208 -318 -54 -345 -45 -178 56 175 106 637 247 901 275 54 5 -36 -120 -200 -280z m952 129 c0 -21 -67 -39 -150 -39 -82 0 -150 44 -150 97 0 53 68 71 150 39 83 -31 150 -75 150 -97z m1545 -46 c59 -58 -43 -93 -269 -93 -359 0 -536 106 -401 241 83 83 536 -17 670 -148z m705 107 c160 -69 123 -87 -181 -93 -230 -4 -356 33 -319 93 73 118 225 118 500 0z m-1831 -68 c-72 -29 -159 -26 -192 8 -33 33 26 56 131 52 117 -5 141 -28 61 -60z m3513 -198 c103 -103 -136 -334 -344 -334 -236 0 -243 158 -13 292 209 122 271 129 357 42z m-2982 -128 c295 -70 293 -73 -150 -167 -300 -64 -524 -61 -670 8 -195 91 -201 111 -50 171 210 84 478 80 870 -12z m3550 -206 c0 -55 -45 -100 -100 -100 -55 0 -100 45 -100 100 0 55 45 100 100 100 55 0 100 -45 100 -100z m-7000 -39 c0 -21 -326 -230 -725 -464 -399 -234 -804 -493 -900 -577 -96 -83 -175 -105 -175 -49 0 112 500 475 1200 872 427 242 600 305 600 218z m3897 -257 c243 -153 44 -229 -403 -153 -295 50 -379 97 -282 158 180 115 500 112 685 -5z m-2347 -104 c-34 -55 -129 -100 -212 -100 -82 0 -122 45 -88 100 34 55 129 100 212 100 82 0 122 -45 88 -100z m10365 -200 c404 -164 793 -299 865 -300 164 0 753 -301 698 -356 -23 -22 -372 28 -777 112 -1353 283 -2087 340 -2497 195 -373 -131 -752 -450 -965 -813 -61 -103 -196 -204 -300 -225 -179 -34 -180 -26 -18 154 94 105 239 352 322 550 94 226 324 475 621 671 610 404 1082 407 2051 12z m7362 100 c114 -183 100 -200 -176 -200 -321 0 -376 85 -181 280 163 163 212 152 357 -80z m-16877 -11 c0 -70 102 -87 275 -47 204 48 236 38 125 -37 -187 -127 -769 -136 -845 -14 -31 51 0 115 69 143 220 88 376 70 376 -45z m-1824 -114 c-23 -69 -173 -137 -334 -152 -279 -26 -283 -21 -98 125 235 184 488 200 432 27z m-1029 -265 c-220 -211 -647 -370 -647 -240 0 111 511 424 697 427 112 2 99 -43 -50 -187z m4037 2 c100 -63 75 -98 -100 -136 -129 -28 -315 -84 -413 -125 -126 -53 -171 -35 -150 62 57 270 393 370 663 199z m1169 -17 c43 -70 -106 -98 -439 -83 -277 13 -481 60 -453 106 74 120 816 101 892 -23z m-2876 -114 c-22 -65 -93 -136 -158 -158 -73 -24 -96 21 -58 119 69 181 276 219 216 39z m587 -132 c-336 -175 -364 -179 -364 -56 0 91 210 174 500 195 83 6 21 -56 -136 -139z m-2195 -51 c-155 -46 -335 -126 -400 -177 -66 -52 -237 -121 -381 -156 -144 -34 -492 -221 -775 -415 -526 -362 -691 -349 -288 23 490 452 1296 810 1825 810 l300 0 -281 -85z m4081 -98 c-34 -55 -129 -100 -212 -100 -82 0 -122 45 -88 100 34 55 129 100 212 100 82 0 122 -45 88 -100z m7800 -164 c538 -158 1469 -130 1527 46 63 187 1042 16 1441 -252 263 -177 415 -222 531 -156 109 60 338 31 682 -88 286 -99 619 -181 740 -183 496 -7 1374 -442 1969 -976 1105 -990 1380 -1274 1477 -1525 206 -533 -163 -1783 -574 -1941 -201 -77 -1317 1047 -1406 1416 -92 386 -521 1100 -760 1268 -149 104 -382 126 -887 84 -1051 -88 -2795 370 -3346 880 -186 172 -278 181 -950 94 -409 -53 -803 -98 -874 -100 -72 -2 -199 -149 -282 -328 -406 -866 -548 -1075 -731 -1075 -176 0 -180 22 -53 278 77 153 199 513 273 800 73 287 176 563 228 612 52 50 514 162 1026 249 513 86 985 192 1050 234 111 72 -1170 223 -1911 225 -181 1 -514 -93 -740 -208 -834 -426 -1980 -756 -1980 -571 0 50 169 161 375 246 206 85 465 237 575 338 110 100 462 340 782 533 634 381 830 392 1818 100z m-8450 -36 c0 -55 -44 -100 -99 -100 -54 0 -88 -101 -75 -225 15 -143 -30 -225 -125 -225 -220 0 -250 367 -43 518 215 157 342 169 342 32z m21757 -114 c435 -204 1643 -1303 1643 -1494 0 -307 -1085 235 -1739 869 -311 301 -607 523 -657 492 -49 -31 -122 -5 -160 57 -73 119 119 286 332 288 69 1 331 -94 581 -212z m-16997 -447 c0 -259 -37 -330 -155 -297 -431 120 -1037 169 -1092 89 -35 -50 -333 -189 -662 -308 -509 -185 -620 -197 -737 -80 -210 210 -37 387 311 317 181 -36 559 20 948 140 357 110 756 200 888 200 131 0 239 50 239 111 0 135 -722 43 -1321 -168 -479 -169 -743 -182 -831 -39 -42 67 24 82 184 42 157 -40 344 -1 506 105 435 285 1065 429 1412 323 267 -82 310 -142 310 -435z m-11260 11 c-58 -153 -128 -255 -156 -228 -27 28 -2 175 56 328 58 153 128 255 156 228 27 -28 2 -175 -56 -328z m25286 261 c246 -156 -485 -2111 -790 -2111 -163 0 -393 639 -326 909 78 320 229 503 352 427 60 -37 75 17 37 136 -39 124 15 295 147 462 219 279 354 320 580 177z m2162 -564 c389 -504 578 -886 860 -1746 339 -1031 344 -1226 25 -1023 -65 41 -273 533 -464 1093 -193 570 -526 1290 -757 1635 -459 687 -462 695 -287 690 69 -2 349 -294 623 -649z m-26748 518 c0 -19 -90 -138 -200 -265 -110 -127 -200 -194 -200 -148 0 45 74 165 165 265 159 175 235 223 235 148z m1600 -165 c0 -55 -102 -100 -228 -100 -125 0 -328 -70 -450 -156 -122 -85 -222 -130 -222 -98 0 84 630 453 775 454 69 0 125 -45 125 -100z m3100 61 c0 -22 -67 -66 -150 -97 -82 -32 -150 -14 -150 39 0 53 68 97 150 97 83 0 150 -18 150 -39z m2850 -461 c-34 -55 -107 -100 -162 -100 -55 0 -72 45 -38 100 34 55 107 100 162 100 55 0 72 -45 38 -100z m-6050 -46 c0 -26 -101 -96 -225 -156 -216 -105 -217 -103 -31 46 204 164 256 186 256 110z m8150 -54 c34 -55 133 -100 219 -100 87 0 311 -95 498 -210 541 -335 301 -489 -754 -484 -1112 6 -1979 -46 -2388 -144 -273 -65 -315 -53 -264 80 33 87 140 158 237 158 98 0 234 68 302 150 68 82 164 150 212 150 49 0 88 -68 88 -150 0 -185 42 -185 590 6 335 117 511 128 740 49 385 -135 1002 -138 920 -5 -34 55 -160 101 -281 102 -314 2 -508 152 -437 338 70 181 225 210 318 60z m-9571 -220 c-81 -120 -203 -238 -272 -261 -83 -28 -67 49 45 219 94 144 216 262 272 262 55 0 35 -99 -45 -220z m6821 181 c0 -22 -70 -66 -155 -99 -89 -34 -129 -18 -94 39 58 95 249 141 249 60z m-20850 -161 c-34 -55 -82 -100 -106 -100 -24 0 -44 45 -44 100 0 55 48 100 106 100 58 0 78 -45 44 -100z m12939 -60 c22 -19 -17 -104 -87 -188 -197 -237 -402 -184 -402 105 0 220 32 247 225 187 124 -38 243 -85 264 -104z m2586 -65 c-23 -69 -126 -141 -230 -162 -163 -31 -171 -14 -55 125 159 192 344 215 285 37z m625 86 c0 -22 -70 -66 -155 -99 -89 -34 -129 -18 -94 39 58 95 249 141 249 60z m3887 -220 c-177 -177 -335 -245 -498 -215 -220 40 -213 50 80 120 175 42 342 139 371 215 30 77 110 139 180 139 69 0 9 -116 -133 -259z m1270 171 c-30 -49 -197 -110 -371 -135 -286 -42 -299 -34 -132 88 205 150 589 185 503 47z m-16057 -256 c0 -79 -47 -173 -105 -209 -72 -45 -71 -106 5 -197 91 -110 157 -109 380 8 149 77 477 141 730 141 374 1 518 -55 768 -293 170 -162 503 -347 740 -411 547 -147 1182 -798 1182 -1212 0 -349 -123 -364 -298 -36 -204 380 -777 715 -1604 937 -640 173 -865 189 -1500 109 -904 -113 -1666 -354 -1783 -562 -59 -105 -156 -132 -308 -83 -211 67 -213 79 -50 259 94 104 266 381 383 615 138 278 385 540 710 752 542 355 750 405 750 182z m-5300 -210 c0 -361 -838 -1546 -1093 -1546 -45 0 -60 198 -33 440 44 390 24 447 -176 511 -222 70 -220 77 108 335 291 230 621 354 1069 401 69 7 125 -56 125 -141z m25150 -46 c-34 -55 -138 -99 -231 -98 -146 1 -148 14 -19 98 196 127 328 127 250 0z m4565 -59 c181 -112 -738 -337 -1390 -339 -617 -2 -734 228 -200 392 354 109 1384 74 1590 -53z m-9217 -116 c-2 -41 -271 -255 -598 -475 -327 -220 -596 -456 -598 -525 -3 -179 68 -158 455 137 189 144 343 215 343 159 0 -160 -585 -614 -883 -685 -467 -113 -1200 -525 -1259 -709 -31 -97 -297 -424 -591 -727 -424 -436 -821 -694 -1925 -1249 -766 -384 -1538 -831 -1717 -994 -179 -163 -325 -248 -325 -188 0 282 1355 1331 1720 1331 99 0 180 64 180 141 0 83 288 252 693 407 651 248 1358 810 1628 1294 48 85 288 272 533 416 472 276 602 504 221 385 -352 -109 -888 -534 -1325 -1049 -376 -443 -819 -758 -921 -656 -26 25 43 94 153 152 109 59 337 331 505 605 368 597 811 905 1813 1260 413 146 885 390 1050 542 438 404 854 614 848 428z m2947 -17 c83 -134 -1014 -610 -1382 -599 -270 8 -245 28 187 145 277 76 561 228 637 341 142 212 458 275 558 113z m-4845 -108 c0 -55 -70 -100 -156 -100 -86 0 -128 45 -94 100 34 55 104 100 156 100 52 0 94 -45 94 -100z m795 -155 c-162 -196 -495 -379 -495 -272 0 69 481 417 587 424 21 2 -21 -67 -92 -152z m2655 55 c-34 -55 -144 -100 -244 -100 -100 0 -238 -68 -306 -150 -68 -82 -198 -150 -287 -150 -90 0 -478 -326 -863 -726 -549 -569 -818 -767 -1248 -918 -549 -193 -1426 -959 -1552 -1355 -30 -96 -355 -299 -727 -454 -629 -263 -1499 -693 -1829 -904 -79 -50 -244 -94 -366 -97 -208 -5 -212 6 -59 175 188 208 697 479 899 479 147 0 1773 827 2005 1019 76 63 206 276 288 473 231 553 617 890 1508 1316 560 268 875 485 992 684 95 161 266 341 381 400 625 323 1541 524 1408 308z m-7696 -293 c-36 -59 -114 -107 -172 -107 -66 0 -59 57 20 152 137 166 260 129 152 -45z m9396 93 c34 -55 -34 -100 -150 -100 -116 0 -184 45 -150 100 34 55 101 100 150 100 49 0 116 -45 150 -100z m-6500 -300 c-34 -55 -115 -99 -181 -98 -71 0 -59 40 31 98 192 124 227 124 150 0z m883 -81 c-229 -93 -450 -203 -491 -244 -42 -41 -147 -74 -234 -72 -87 2 22 114 242 250 220 135 513 244 650 241 205 -4 176 -35 -167 -175z m4993 -132 c-42 -41 -317 -101 -612 -135 -753 -85 -1457 -466 -1767 -957 -140 -222 -368 -446 -507 -499 -319 -121 -367 -121 -290 4 117 189 -112 100 -448 -175 -185 -151 -731 -621 -1213 -1044 -594 -521 -1016 -809 -1308 -892 -237 -68 -498 -178 -581 -244 -82 -66 -352 -211 -600 -322 -437 -195 -773 -474 -1038 -862 -99 -144 -172 -165 -307 -90 -157 88 -122 154 312 589 360 361 796 635 1651 1040 819 388 1211 631 1328 825 91 151 253 275 360 275 128 0 194 69 194 202 0 223 808 798 1121 798 100 0 529 331 955 736 426 404 831 753 902 775 233 74 1925 52 1848 -24z m1306 -577 c-50 -189 -255 -317 -216 -135 9 41 -19 154 -61 251 -46 106 -25 240 53 334 118 141 139 137 205 -41 40 -110 49 -294 19 -409z m13444 340 c-47 -245 19 -291 399 -277 147 6 156 -69 31 -267 -51 -80 -240 -147 -422 -150 -259 -5 -359 -66 -463 -281 -77 -162 -213 -275 -328 -275 -164 0 -186 46 -131 275 36 151 109 331 163 399 54 68 72 190 41 271 -63 163 368 555 609 555 104 0 134 -74 101 -250z m-30824 -80 c576 -59 1030 -318 1570 -894 334 -356 448 -547 390 -651 -64 -114 -136 -60 -319 239 -358 582 -581 729 -1112 733 -258 2 -497 -42 -531 -97 -34 -55 -299 -100 -588 -100 -436 0 -563 -43 -743 -250 -245 -282 -631 -327 -823 -96 -83 101 -218 135 -389 98 -145 -32 -337 -1 -432 70 -223 167 -273 593 -75 638 83 18 398 126 700 239 544 202 952 215 2352 71z m9748 30 c0 -55 -45 -100 -100 -100 -55 0 -100 45 -100 100 0 55 45 100 100 100 55 0 100 -45 100 -100z m-13700 -100 c0 -55 -115 -100 -256 -100 -145 0 -229 43 -194 100 34 55 149 100 256 100 107 0 194 -45 194 -100z m20450 0 c-34 -55 -82 -100 -106 -100 -24 0 -44 45 -44 100 0 55 48 100 106 100 58 0 78 -45 44 -100z m-400 -100 c-34 -55 -82 -100 -106 -100 -24 0 -44 45 -44 100 0 55 48 100 106 100 58 0 78 -45 44 -100z m-22550 -350 c393 -405 625 -440 844 -128 226 323 191 149 -53 -266 -206 -347 -213 -351 -375 -157 -164 195 -172 195 -566 9 -220 -103 -699 -481 -1065 -840 -501 -491 -718 -794 -880 -1228 -119 -317 -242 -620 -275 -672 -104 -168 -304 470 -253 807 43 285 22 325 -176 325 -186 0 -204 26 -105 145 68 82 91 239 52 361 -54 169 10 279 298 517 212 175 344 360 313 440 -55 144 620 637 874 637 75 0 217 90 317 200 278 307 660 252 1050 -150z m21300 311 c0 -22 -70 -66 -155 -99 -89 -34 -129 -18 -94 39 58 95 249 141 249 60z m-5199 -256 c-136 -105 -271 -168 -299 -140 -64 64 298 336 442 333 58 -1 -6 -88 -143 -193z m24499 -63 c0 -81 113 -190 250 -242 178 -68 250 -170 250 -354 0 -143 44 -341 97 -440 53 -100 144 -513 202 -918 408 -2848 412 -3129 55 -3938 -241 -547 -311 -273 -96 375 250 751 234 1373 -41 1556 -125 83 -217 248 -217 391 0 161 -68 265 -197 298 -171 45 -188 110 -134 505 l62 453 -365 -68 c-361 -68 -366 -65 -365 260 0 182 67 459 150 616 216 415 194 599 -63 532 -196 -51 -209 -25 -159 342 29 219 127 510 216 647 168 255 355 247 355 -15z m-25102 6 c-70 -84 -153 -127 -184 -95 -32 32 8 100 89 151 212 134 239 117 95 -56z m6502 67 c0 -47 -416 -299 -925 -559 -509 -261 -1015 -552 -1125 -646 -110 -95 -312 -219 -450 -278 -137 -58 -464 -269 -726 -469 -516 -394 -827 -489 -516 -157 505 540 645 661 908 784 156 73 352 173 434 222 83 49 250 132 372 184 122 53 324 255 450 448 269 415 530 564 449 257 -68 -261 17 -254 544 48 466 267 585 300 585 166z m1350 -115 c-34 -55 -115 -99 -181 -98 -71 0 -59 40 31 98 192 124 227 124 150 0z m3825 -421 c81 -93 345 -200 587 -236 489 -73 566 -189 189 -284 -532 -133 -1266 418 -1097 824 59 142 77 144 121 17 28 -82 118 -227 200 -321z m15606 -279 c265 -521 351 -845 433 -1631 101 -974 100 -983 -145 -1210 -146 -135 -275 -398 -316 -644 -81 -475 -128 -496 -446 -200 -214 199 -227 276 -186 1060 34 641 12 857 -88 896 -76 28 -135 208 -137 415 -3 200 -86 702 -186 1114 -204 841 -168 911 440 870 262 -17 342 -103 631 -670z m-27194 433 c-193 -235 -895 -734 -1027 -730 -61 2 -30 64 69 139 98 75 166 197 150 272 -16 75 39 138 121 141 83 3 285 80 450 171 380 211 405 211 237 7z m9807 -291 c-87 -104 -158 -118 -229 -47 -72 72 -44 148 90 248 226 166 324 23 139 -201z m-11017 58 c116 -186 100 -200 -226 -200 -391 0 -435 64 -176 261 232 176 256 172 402 -61z m23307 112 c157 -100 119 -529 -53 -585 -149 -49 -471 428 -384 569 78 125 254 132 437 16z m-25884 -112 c0 -55 -48 -100 -106 -100 -58 0 -78 45 -44 100 34 55 82 100 106 100 24 0 44 -45 44 -100z m19852 23 c257 -184 478 -697 492 -1140 10 -328 85 -569 235 -757 121 -152 334 -490 472 -751 197 -371 306 -475 501 -475 227 0 248 -38 248 -447 0 -381 44 -480 300 -669 241 -178 300 -296 300 -597 0 -206 38 -399 85 -428 83 -51 385 -1808 345 -2009 -70 -359 -459 -1311 -645 -1579 -363 -523 -861 -971 -1080 -971 -204 0 -204 1 -9 196 324 324 604 971 604 1397 0 220 91 575 202 788 111 213 182 496 157 628 -24 133 -47 410 -52 616 -6 309 -43 375 -212 375 -191 0 -203 -53 -181 -799 24 -796 22 -801 -320 -1109 -294 -264 -401 -302 -733 -258 -546 71 -708 271 -710 875 -1 367 -47 531 -168 599 -197 110 -579 -13 -774 -248 -200 -240 -580 -198 -765 85 -137 210 -141 284 -27 521 171 356 1675 1309 1785 1131 41 -67 136 -101 211 -75 76 25 191 -26 256 -113 100 -134 152 -139 331 -29 117 71 291 105 387 74 218 -69 568 176 472 331 -92 149 -386 148 -537 -3 -90 -90 -159 -81 -295 37 -97 85 -230 136 -294 112 -65 -23 -132 61 -150 188 -22 153 -100 231 -233 231 -132 0 -199 67 -200 198 0 255 -347 328 -508 108 -166 -227 -1676 -956 -1980 -956 -275 0 -862 444 -862 652 0 173 477 548 698 548 94 0 253 90 353 201 160 177 166 231 44 458 -75 141 -218 300 -316 352 -205 110 -231 403 -64 721 151 286 279 365 600 366 277 2 809 -502 929 -881 35 -107 140 -224 234 -259 95 -34 305 -136 467 -226 295 -162 295 -163 67 -247 -298 -110 -222 -326 129 -367 223 -27 269 2 239 150 -20 100 32 238 116 307 169 137 132 179 -638 725 -194 138 -354 303 -355 367 -5 198 -1697 1616 -2011 1685 -161 35 -269 104 -239 152 101 165 754 225 1030 95 147 -69 368 -172 492 -229 124 -57 225 -188 225 -292 0 -262 275 -765 640 -1173 707 -786 964 -1020 1078 -982 251 83 179 279 -269 733 -583 592 -949 1167 -949 1492 0 441 536 803 852 575z m-15898 -216 c-36 -58 -164 -157 -285 -220 -209 -109 -208 -102 23 149 230 250 402 297 262 71z m5946 145 c0 -27 -214 -161 -475 -298 -605 -317 -825 -493 -825 -657 0 -212 -313 -497 -546 -497 -119 0 -479 -158 -800 -352 -321 -193 -603 -332 -627 -309 -23 24 232 229 567 457 334 227 754 558 932 736 325 324 1006 727 1474 873 138 43 261 82 275 86 14 5 25 -13 25 -39z m12397 -147 c58 -107 224 -253 370 -325 430 -211 512 -433 261 -701 -155 -164 -225 -383 -247 -776 -26 -466 -69 -567 -288 -690 -376 -210 -722 -84 -923 337 -174 366 -229 852 -95 848 41 -1 202 -181 356 -400 393 -554 529 -515 600 175 36 344 121 618 214 686 174 127 208 341 55 341 -229 0 -500 -411 -500 -758 0 -431 -165 -418 -429 34 -154 263 -161 342 -51 518 71 115 208 233 305 264 202 64 237 242 47 242 -261 0 -577 -325 -783 -804 -224 -521 -389 -568 -389 -110 0 328 452 1059 742 1200 335 162 643 129 755 -81z m-8997 -267 c0 -76 -86 -138 -192 -138 -105 0 -263 -27 -350 -61 -221 -85 -197 82 51 347 165 177 238 200 350 107 77 -65 141 -179 141 -255z m-22807 -713 c4 -124 -33 -225 -81 -225 -96 0 -317 776 -305 1069 10 245 376 -556 386 -844z m8407 808 c-192 -83 -496 -262 -675 -397 -179 -135 -325 -200 -325 -145 0 56 101 155 225 219 124 64 306 201 404 304 98 102 301 182 450 178 263 -8 261 -13 -79 -159z m2199 92 c-1 -91 -814 -443 -877 -380 -60 59 594 454 753 455 69 0 125 -34 124 -75z m-12463 -250 c33 -124 12 -504 -47 -845 -83 -474 -164 -656 -348 -777 -133 -87 -241 -233 -241 -325 0 -131 -27 -141 -120 -48 -185 185 -374 143 -489 -111 -58 -127 -235 -280 -393 -339 -318 -120 -697 -660 -698 -994 0 -177 -263 -410 -355 -313 -311 328 557 2359 1321 3089 444 424 1094 887 1247 888 35 0 90 -101 123 -225z m35665 -273 c-124 -298 -782 -802 -1049 -802 -333 0 -35 424 398 566 165 54 390 236 500 404 232 354 325 252 151 -168z m831 432 c37 -36 16 -127 -46 -201 -85 -102 -146 -108 -249 -22 -75 62 -137 153 -137 201 0 102 335 119 432 22z m-23330 -382 c-120 -145 -702 -475 -702 -398 0 43 724 546 785 546 22 0 -16 -67 -83 -148z m7448 -252 c-215 -220 -406 -400 -424 -400 -96 0 208 412 437 592 418 329 412 243 -13 -192z m-6050 209 c0 -50 -206 -191 -457 -312 -251 -122 -591 -334 -755 -472 -231 -194 -344 -230 -504 -159 -180 80 -119 133 480 416 377 178 799 389 936 468 300 174 300 174 300 59z m22400 -290 c0 -781 -570 -955 -859 -263 -175 420 -175 444 6 444 89 0 124 -59 89 -150 -83 -216 15 -186 323 100 366 338 441 316 441 -131z m-24955 195 c-218 -196 -1245 -917 -1245 -873 0 26 92 203 204 393 137 232 260 331 375 301 94 -25 261 24 371 107 213 162 462 222 295 72z m-1645 -50 c0 -20 -157 -233 -349 -475 -192 -241 -349 -514 -350 -607 -1 -175 -493 -624 -584 -532 -29 28 68 178 215 332 148 153 268 325 268 380 0 56 161 290 358 520 326 381 442 481 442 382z m500 -43 c0 -44 -202 -278 -450 -521 -537 -527 -597 -408 -92 182 335 392 542 521 542 339z m13500 -71 c0 -168 -18 -175 -242 -89 -223 85 -196 239 42 239 111 0 200 -67 200 -150z m11379 -942 c-36 -300 -255 -389 -347 -141 -37 101 -104 208 -148 238 -45 30 -7 160 83 289 159 227 169 229 303 46 76 -105 125 -299 109 -432z m1675 351 c221 -338 286 -1059 95 -1059 -270 0 -474 458 -400 897 38 222 86 403 107 403 22 0 111 -109 198 -241z m-25354 106 c0 -18 -101 -120 -225 -225 l-225 -190 190 225 c180 211 260 271 260 190z m-1140 -611 c-253 -252 -460 -503 -460 -557 0 -53 -48 -97 -106 -97 -130 0 54 270 552 809 206 222 397 382 424 355 27 -28 -158 -257 -410 -510z m-6517 357 c30 -48 -12 -144 -94 -212 -257 -213 -169 -274 500 -345 630 -68 861 -174 653 -303 -222 -137 -80 -351 360 -546 550 -244 503 -366 -268 -698 -450 -194 -515 -200 -654 -61 -85 85 -220 154 -300 154 -306 0 -1115 500 -1519 939 -232 251 -421 480 -421 509 0 122 445 482 687 555 365 111 990 115 1056 8z m-1493 -1391 c263 -292 685 -638 939 -770 316 -165 396 -242 255 -245 -113 -3 -352 103 -530 235 -204 150 -462 240 -691 240 -274 0 -418 65 -573 260 -114 143 -308 260 -431 260 -142 0 -265 92 -339 254 -97 213 -79 330 110 719 l226 466 278 -445 c153 -244 493 -683 756 -974z m5924 1211 c-93 -93 -203 -136 -244 -95 -41 41 -8 117 73 168 243 154 352 108 171 -73z m8726 78 c0 -49 -227 -254 -505 -453 -503 -362 -1974 -913 -2217 -832 -71 24 97 119 372 212 275 93 905 391 1400 664 1014 558 950 531 950 409z m-5100 -57 c0 -26 -238 -297 -528 -601 -291 -305 -615 -722 -721 -928 -186 -359 -616 -812 -779 -819 -43 -2 -236 -161 -429 -354 -192 -192 -401 -350 -463 -350 -62 0 265 378 728 840 463 462 1112 1158 1442 1548 531 626 750 821 750 664z m24463 -519 c60 -238 -183 -733 -360 -733 -50 0 -209 101 -353 225 -230 198 -253 274 -195 638 l67 412 391 -153 c257 -101 411 -234 450 -389z m-26463 279 c0 -126 -294 -352 -365 -281 -102 103 51 369 212 369 84 0 153 -39 153 -88z m8147 -16 c-35 -57 -229 -211 -430 -341 -202 -130 -509 -369 -682 -531 -432 -404 -1341 -955 -1270 -770 37 95 -9 149 -129 153 -102 4 43 89 323 189 279 99 774 379 1100 622 586 437 1062 767 1122 777 17 3 2 -42 -34 -99z m16116 -121 c447 -506 544 -1093 286 -1713 -100 -238 -218 -362 -344 -362 -208 0 -256 110 -351 817 -35 257 -126 518 -202 582 -116 96 -107 146 55 308 106 106 193 283 193 393 0 261 118 253 363 -25z m-23385 -50 c-85 -96 -225 -316 -312 -487 -87 -172 -250 -337 -362 -366 -112 -29 -204 -32 -204 -6 0 96 853 1034 940 1034 50 0 22 -79 -62 -175z m7962 14 c45 -115 19 -145 -89 -103 -83 32 -151 14 -151 -39 0 -53 -74 -97 -165 -97 -149 0 -148 20 15 200 219 242 309 251 390 39z m1372 -753 c76 -39 217 -96 313 -126 258 -79 219 -360 -50 -360 -396 0 -958 867 -811 1250 54 140 105 85 239 -257 93 -240 232 -468 309 -507z m-2812 778 c0 -89 -1140 -780 -1523 -923 -784 -292 -1477 -475 -1544 -408 -104 105 -28 140 769 355 754 204 1579 564 1948 850 189 147 350 205 350 126z m1834 -264 c-97 -165 -215 -300 -261 -300 -96 0 -14 166 208 425 227 265 251 210 53 -125z m-11034 100 c0 -55 -48 -100 -106 -100 -58 0 -78 45 -44 100 34 55 82 100 106 100 24 0 44 -45 44 -100z m1200 -38 c0 -21 -79 -99 -175 -175 -159 -124 -162 -121 -38 38 131 167 213 220 213 137z m25892 -299 c249 -403 261 -596 51 -806 -240 -240 -343 -189 -343 169 0 179 -42 471 -93 650 -128 445 106 438 385 -13z m-40906 -21 c20 -17 -171 -128 -423 -246 -473 -223 -788 -613 -924 -1146 l-77 -300 -80 380 c-124 581 341 1379 868 1492 167 36 491 -56 636 -180z m43696 -548 l311 -555 -290 -171 c-359 -213 -451 -105 -457 532 -2 248 -42 585 -88 750 -73 265 -66 283 65 150 82 -82 288 -400 459 -706z m-28700 296 c-126 -225 -349 -471 -494 -546 -146 -75 -437 -319 -649 -543 -225 -237 -443 -383 -526 -351 -77 30 -246 -14 -374 -98 -180 -118 -221 -122 -181 -18 71 186 594 561 1192 856 275 135 535 303 577 373 123 202 586 737 638 737 26 0 -56 -184 -183 -410z m-2121 -98 c-71 -169 -238 -362 -370 -427 -133 -66 -353 -294 -491 -506 -191 -295 -258 -344 -285 -208 -22 112 197 408 600 811 349 348 644 635 655 636 11 1 -38 -137 -109 -306z m795 155 c-107 -81 -264 -146 -350 -144 -125 3 -117 33 38 150 107 81 264 146 350 144 125 -3 117 -33 -38 -150z m4644 115 c0 -21 -79 -99 -175 -175 -159 -124 -162 -121 -38 38 131 167 213 220 213 137z m5449 -163 c-99 -110 -203 -179 -229 -152 -67 67 182 353 308 353 57 0 21 -90 -79 -201z m15331 -131 c211 -584 112 -869 -180 -518 -99 120 -99 181 4 304 96 117 99 183 12 270 -134 134 -152 276 -36 276 44 0 134 -149 200 -332z m-37781 52 c191 -94 364 -250 383 -348 31 -164 -6 -161 -499 35 -293 117 -634 236 -758 264 -124 29 -225 92 -225 141 0 149 730 88 1099 -92z m41623 -53 c103 -161 94 -290 -31 -467 -80 -113 -119 -119 -157 -25 -28 69 -109 125 -180 125 -198 0 -365 254 -292 445 48 126 132 153 326 105 143 -36 294 -119 334 -183z m-43330 -292 c-282 -270 -495 -589 -585 -875 -192 -610 -351 -762 -261 -250 104 590 318 966 724 1275 550 417 622 329 122 -150z m14650 189 c-60 -155 -342 -238 -342 -100 0 74 336 334 377 292 15 -15 -1 -101 -35 -192z m-8892 -64 c38 -62 374 -77 881 -38 794 60 828 53 1113 -213 327 -306 349 -304 -560 -33 -247 74 -652 81 -1249 22 -875 -87 -884 -91 -934 -382 -62 -360 -566 -687 -972 -632 -288 39 -250 67 321 239 239 72 328 181 441 539 77 246 189 481 250 521 161 109 637 93 709 -23z m11744 -156 c-135 -145 -256 -207 -277 -144 -21 62 46 176 148 253 306 232 387 165 129 -109z m2606 156 c0 -55 -48 -100 -106 -100 -58 0 -78 45 -44 100 34 55 82 100 106 100 24 0 44 -45 44 -100z m-6294 -294 c-189 -162 -383 -270 -431 -240 -48 29 -175 -25 -281 -122 -242 -218 -254 -140 -19 116 173 189 781 521 975 533 55 4 -55 -126 -244 -287z m28401 190 c259 -138 251 -558 -14 -700 -161 -86 -261 -75 -453 51 -242 159 -243 166 -72 457 192 325 252 346 539 192z m-41707 -74 c0 -44 -135 -159 -301 -256 -165 -98 -371 -314 -457 -481 -86 -167 -181 -279 -211 -250 -80 81 353 743 599 915 237 166 370 191 370 72z m14900 -225 c-385 -303 -431 -336 -725 -525 -151 -97 -275 -139 -275 -93 0 102 557 528 900 688 360 168 383 152 100 -70z m-14327 34 c-97 -26 -232 -24 -300 3 -68 28 12 49 177 47 165 -3 220 -25 123 -50z m20177 -31 c-275 -118 -433 -118 -250 0 83 53 218 94 300 91 99 -3 82 -34 -50 -91z m-14331 -168 c-72 -29 -159 -26 -192 8 -33 33 26 56 131 52 117 -5 141 -28 61 -60z m2156 -189 c-67 -67 -566 91 -520 165 29 46 163 34 299 -28 136 -62 235 -124 221 -137z m9427 9 c-70 -83 -173 -152 -230 -152 -57 0 -21 90 79 201 206 228 344 184 151 -49z m3898 98 c-68 -82 -169 -150 -224 -150 -56 0 -45 66 24 150 68 83 169 150 224 150 56 0 45 -66 -24 -150z m20643 35 c206 -94 242 -163 191 -375 -114 -480 -219 -525 -522 -222 -126 126 -172 276 -139 450 56 294 110 311 470 147z m-40947 -178 c160 -298 124 -356 -96 -157 -214 194 -260 350 -104 350 54 0 144 -87 200 -193z m5329 127 c-69 -28 -181 -28 -250 0 -69 28 -12 50 125 50 138 0 194 -22 125 -50z m12975 11 c0 -61 -647 -347 -772 -342 -43 2 28 92 158 200 217 181 614 272 614 142z m1000 -35 c-246 -136 -764 -238 -650 -127 102 100 383 187 650 202 133 8 133 0 0 -75z m11265 -392 c-34 -210 -18 -535 36 -722 81 -280 50 -476 -171 -1100 -261 -737 -265 -781 -134 -1477 135 -714 79 -1199 -186 -1609 -135 -210 -773 184 -725 449 18 105 25 349 13 541 -12 193 -14 485 -6 650 9 165 12 560 8 877 -5 370 48 657 146 798 85 121 154 323 154 449 0 149 89 271 251 344 172 79 283 243 354 523 147 574 180 659 255 659 36 0 38 -172 5 -382z m8804 165 c290 -273 304 -646 26 -735 -112 -35 -263 -16 -334 43 -71 59 -156 81 -189 48 -32 -33 -153 6 -268 87 -184 129 -190 161 -56 272 84 70 152 185 152 256 0 123 141 221 344 238 51 4 197 -90 325 -209z m-22333 -181 c-169 -339 -336 -478 -336 -280 0 168 282 578 398 578 48 0 20 -134 -62 -298z m25654 -58 c246 -416 272 -868 61 -1043 -259 -215 -423 -43 -493 521 -67 532 -10 878 143 878 44 0 174 -160 289 -356z m-37340 156 c177 -76 169 -87 -75 -93 -151 -4 -275 38 -275 93 0 117 77 117 350 0z m14306 -237 c-268 -229 -1924 -963 -2175 -963 -68 0 437 281 1122 625 686 344 1266 614 1288 601 23 -14 -83 -132 -235 -263z m-9190 -305 c-269 -462 -612 -745 -744 -614 -20 20 170 242 421 494 251 251 457 503 457 559 0 57 41 103 91 103 51 0 -50 -244 -225 -542z m31488 -78 c62 -281 -46 -473 -267 -478 -161 -4 -356 475 -313 769 46 310 55 315 280 167 128 -84 263 -290 300 -458z m-40483 195 c19 -305 11 -313 -125 -131 -179 238 -189 456 -21 456 70 0 134 -143 146 -325z m1493 -125 c-74 -192 -696 -294 -953 -156 -299 160 -262 260 106 288 175 13 434 80 575 149 211 102 264 101 291 -9 19 -73 10 -196 -19 -272z m9936 375 c-1 -41 -342 -412 -759 -825 -416 -412 -800 -828 -851 -923 -52 -95 -184 -220 -292 -278 -227 -122 -256 -73 -69 119 71 73 206 245 299 382 218 320 1493 1600 1595 1600 42 0 77 -34 77 -75z m5792 -52 c-215 -140 -893 -465 -1092 -524 l-250 -74 270 216 c271 216 993 517 1072 446 23 -20 23 -49 0 -64z m2058 27 c-34 -55 -115 -99 -181 -98 -71 0 -59 40 31 98 192 124 227 124 150 0z m13527 -25 c-23 -69 -251 -240 -507 -380 -257 -141 -620 -391 -806 -556 -187 -165 -525 -356 -753 -424 -462 -138 -1025 -588 -1284 -1026 -224 -380 -327 -365 -327 46 0 690 928 1665 1586 1665 199 0 541 116 805 274 755 451 1362 640 1286 401z m-33672 -184 c164 -306 63 -326 -205 -41 -191 203 -204 250 -71 250 90 0 214 -94 276 -209z m3445 -33 c-343 -274 -414 -265 -255 33 62 116 211 209 334 209 207 -1 201 -17 -79 -242z m3269 174 c-72 -29 -159 -26 -192 8 -33 33 26 56 131 52 117 -5 141 -28 61 -60z m33087 -157 c246 -295 242 -587 -13 -911 -168 -214 -243 -244 -398 -161 -314 168 -431 475 -250 657 85 85 155 234 155 330 0 369 236 408 506 85z m-31349 -27 c-106 -80 -217 -121 -247 -92 -63 63 191 242 340 239 55 -1 13 -67 -93 -147z m5943 69 c0 -80 -1114 -328 -1184 -264 -18 17 94 101 250 185 303 164 934 217 934 79z m-7275 -180 c376 -72 345 -179 -100 -353 -267 -103 -490 -121 -773 -61 -478 100 -580 187 -492 418 67 175 437 173 1365 -4z m23520 9 c180 -136 183 -161 35 -309 -202 -202 -380 -100 -380 219 0 280 70 298 345 90z m-34339 -171 c103 -124 189 -338 191 -475 5 -381 258 -1505 432 -1917 85 -202 244 -415 354 -474 276 -148 347 -568 263 -1570 -76 -917 -196 -998 -278 -189 -28 275 -76 736 -107 1025 -58 549 -232 971 -608 1475 -283 379 -325 530 -401 1443 -35 409 -85 780 -113 825 -109 176 89 70 267 -143z m14233 -28 c-91 -139 -190 -230 -219 -201 -48 48 263 454 348 454 20 0 -38 -114 -129 -253z m27656 -348 c355 -642 500 -1280 377 -1649 -157 -466 -270 -576 -446 -430 -119 98 -135 276 -81 892 41 475 29 792 -32 830 -149 92 -208 -63 -278 -733 -35 -335 -102 -609 -149 -609 -47 0 -88 56 -91 125 -3 69 -42 440 -86 825 -66 566 -51 753 78 978 214 373 411 309 708 -229z m-37495 190 c0 -128 -58 -110 -202 63 -106 128 -99 142 38 90 90 -35 164 -104 164 -153z m7714 8 c-130 -108 -310 -195 -400 -193 -92 3 -10 89 186 196 447 245 511 244 214 -3z m7436 103 c35 -56 -42 -100 -174 -100 -130 0 -286 -50 -346 -110 -117 -117 -1217 -380 -1611 -386 -129 -2 -204 40 -169 96 34 55 250 103 481 106 230 3 689 111 1019 238 725 281 723 281 800 156z m-14184 -182 c230 -72 384 -63 567 32 250 129 783 157 709 37 -38 -61 -322 -132 -1010 -252 -372 -65 -1062 135 -972 282 35 55 136 78 226 50 90 -28 306 -95 480 -149z m8895 -284 c-342 -518 -519 -734 -603 -734 -39 0 119 271 351 601 457 652 667 763 252 133z m3712 397 c-97 -26 -232 -24 -300 3 -68 28 12 49 177 47 165 -3 220 -25 123 -50z m26454 -304 c229 -392 154 -703 -192 -790 -348 -87 -597 161 -445 445 61 113 110 324 110 469 0 362 282 296 527 -124z m-35902 77 c-127 -136 -255 -177 -419 -135 -224 59 -226 69 -52 197 101 73 290 134 419 134 229 0 230 -5 52 -196z m3810 -90 c-255 -394 -1110 -1115 -1316 -1109 -115 4 -41 109 227 325 218 176 578 488 800 692 488 450 529 463 289 92z m3394 61 c-537 -703 -798 -997 -1006 -1134 -234 -153 -231 -139 58 274 388 555 797 985 935 985 71 0 76 -43 13 -125z m-6729 -75 c0 -55 -70 -100 -156 -100 -86 0 -128 45 -94 100 34 55 104 100 156 100 52 0 94 -45 94 -100z m1116 -62 c205 -59 207 -67 31 -166 -134 -75 -197 -71 -225 12 -21 64 -181 117 -355 118 -241 1 -281 24 -167 97 83 53 229 75 325 49 96 -26 272 -76 391 -110z m3834 62 c-34 -55 -82 -100 -106 -100 -24 0 -44 45 -44 100 0 55 48 100 106 100 58 0 78 -45 44 -100z m6391 1 c-101 -101 -1011 -301 -1371 -301 -309 0 -166 79 435 240 653 176 1079 204 936 61z m1809 -1 c-34 -55 -183 -99 -331 -98 -210 1 -236 22 -119 98 198 128 529 128 450 0z m-17450 -91 c0 -49 -90 -67 -200 -38 -110 29 -200 70 -200 91 0 21 90 38 200 38 110 0 200 -41 200 -91z m8857 -129 c0 -128 -163 -367 -391 -575 -470 -427 -727 -547 -345 -160 150 152 302 372 338 490 138 452 398 612 398 245z m29042 21 c59 -109 241 -268 404 -353 351 -181 387 -474 86 -685 -310 -216 -488 -99 -492 323 -2 200 -69 451 -150 558 -81 107 -147 231 -147 275 0 156 194 79 299 -118z m3801 -190 c0 -370 -96 -446 -313 -249 -169 153 -169 174 -8 389 208 278 321 229 321 -140z m-42841 -294 c-269 -530 -471 -731 -536 -535 -75 224 -339 117 -697 -282 -390 -435 -526 -494 -526 -229 0 94 -124 271 -275 393 -194 156 -244 253 -170 329 140 142 1168 407 1582 407 221 0 405 82 563 250 333 355 353 247 59 -333z m7398 215 c-57 -148 -82 -153 -157 -32 -57 92 -47 171 27 217 160 99 211 26 130 -185z m34375 153 c412 -217 464 -444 181 -794 -181 -224 -195 -226 -450 -59 -196 129 -263 257 -263 504 0 482 124 563 532 349z m-37606 -159 c-178 -89 -352 -255 -386 -369 -76 -251 -417 -637 -690 -781 -192 -101 -193 -97 -26 91 95 108 202 338 237 512 72 362 545 720 939 713 238 -5 234 -13 -74 -166z m894 -46 c-64 -64 -150 -83 -190 -43 -41 41 -9 114 70 163 187 115 271 31 120 -120z m4280 39 c0 -45 -129 -205 -286 -356 -225 -215 -343 -259 -555 -206 -256 64 -260 76 -98 255 204 226 355 246 275 38 -93 -244 127 -171 305 100 158 241 359 336 359 169z m7300 -19 c-196 -127 -328 -127 -250 0 34 55 138 99 231 98 146 -1 148 -14 19 -98z m-19400 -566 c0 -125 130 -360 288 -522 213 -218 275 -361 238 -553 -27 -142 -61 -259 -76 -259 -97 0 -387 599 -500 1033 -75 284 -165 607 -201 717 -64 197 -63 197 93 6 87 -107 158 -297 158 -422z m9335 266 c-158 -316 -335 -399 -335 -156 0 111 351 456 465 456 11 0 -48 -135 -130 -300z m8865 100 c-197 -127 -429 -127 -350 0 34 55 160 99 281 98 178 -1 191 -19 69 -98z m-10100 -39 c0 -22 -70 -66 -155 -99 -89 -34 -129 -18 -94 39 58 95 249 141 249 60z m7444 -51 c30 -49 -16 -116 -103 -150 -275 -105 -373 -69 -241 90 141 170 263 192 344 60z m19156 36 c0 -29 -73 -164 -162 -300 -99 -151 -118 -246 -50 -246 62 0 112 -88 112 -195 0 -108 49 -302 108 -433 86 -188 60 -381 -125 -932 -336 -1001 -551 -1240 -1116 -1240 -251 0 -482 44 -516 98 -47 77 113 844 205 981 10 16 178 -46 373 -139 207 -99 429 -138 537 -96 165 65 151 100 -135 341 -578 488 -671 1033 -260 1521 352 419 1029 840 1029 640z m-27100 -190 c0 -79 -40 -169 -90 -200 -102 -63 -227 194 -136 284 107 108 226 63 226 -84z m9000 105 c0 -22 -70 -66 -155 -99 -89 -34 -129 -18 -94 39 58 95 249 141 249 60z m-8715 -601 c-294 -297 -555 -521 -579 -497 -58 55 911 1037 1025 1037 49 0 -152 -243 -446 -540z m35493 -110 c-21 -227 -84 -308 -259 -333 -255 -36 -519 136 -519 339 0 72 43 245 97 385 95 251 99 252 402 81 250 -140 302 -227 279 -472z m3412 525 c-5 -69 -42 -237 -81 -375 l-71 -250 -119 218 c-65 120 -91 288 -58 375 72 186 343 213 329 32z m-37190 -275 c-117 -165 -273 -300 -346 -300 -73 0 -279 -136 -457 -303 -387 -361 -470 -352 -153 17 208 241 1028 886 1128 886 23 0 -55 -135 -172 -300z m1300 219 c0 -101 -906 -746 -965 -687 -35 34 849 754 940 765 14 2 25 -33 25 -78z m-5100 -115 c0 -54 -101 -150 -225 -215 -224 -117 -224 -117 -35 96 212 239 260 261 260 119z m40000 -343 c0 -576 -210 -666 -613 -264 -249 249 -279 331 -188 500 76 144 209 203 455 203 342 0 346 -5 346 -439z m-33050 39 c-34 -55 -107 -100 -162 -100 -55 0 -72 45 -38 100 34 55 107 100 162 100 55 0 72 -45 38 -100z m31588 -51 c407 -171 465 -400 185 -746 -137 -168 -239 -203 -446 -151 -420 105 -515 280 -378 694 133 404 147 408 639 203z m-39921 -114 c247 -224 230 -401 -42 -460 -124 -27 -304 -82 -400 -123 -107 -45 -175 -29 -175 40 0 62 135 140 300 173 379 76 392 235 19 235 -154 0 -368 66 -475 147 -181 137 -168 147 198 150 229 2 469 -66 575 -162z m2585 -83 c-70 -83 -204 -152 -299 -152 -95 0 -276 -90 -403 -200 -212 -184 -628 -297 -460 -125 115 118 1206 694 1249 660 22 -16 -17 -99 -87 -183z m4698 205 c0 -102 -327 -357 -457 -357 -217 0 -171 156 82 278 246 118 375 146 375 79z m-9300 -274 c0 -209 -347 -753 -675 -1058 -413 -384 -437 -388 -608 -115 -142 228 -161 193 564 1000 231 257 390 353 525 317 107 -27 194 -92 194 -144z m1000 170 c0 -27 -135 -118 -300 -203 -165 -85 -300 -113 -300 -61 0 75 222 192 575 303 14 4 25 -13 25 -39z m38934 -20 c126 -127 -266 -433 -554 -433 l-289 0 179 247 c171 234 518 331 664 186z m-1710 -280 c26 -136 9 -223 -38 -194 -83 51 -125 441 -48 441 21 0 60 -111 86 -247z m5407 -473 c-100 -173 -239 -333 -307 -355 -183 -61 -153 343 31 413 85 33 208 206 273 386 106 292 122 302 153 98 18 -126 -49 -370 -150 -542z m-36430 495 c-60 -69 -170 -215 -246 -325 -76 -110 -165 -173 -198 -140 -75 74 323 590 454 590 57 0 52 -52 -10 -125z m-1661 -515 c-269 -482 -540 -767 -540 -568 0 135 617 998 718 1004 37 2 -43 -194 -178 -436z m35011 139 c105 -170 -55 -499 -242 -499 -98 0 -256 86 -351 191 -163 180 -163 201 2 394 175 204 435 166 591 -86z m-39847 8 c-249 -466 295 -1049 1095 -1173 716 -112 762 -312 136 -600 l-470 -217 -183 233 c-100 128 -378 327 -617 443 -552 267 -724 603 -515 1007 140 270 395 490 579 497 43 2 31 -84 -25 -190z m42151 -116 c148 -286 147 -323 -13 -500 -210 -232 -309 -238 -512 -35 -141 140 -138 188 30 500 102 189 219 344 260 344 41 0 147 -139 235 -309z m-45782 -593 l123 -523 -518 -486 -518 -487 -217 204 c-386 363 -186 1529 338 1965 114 94 202 91 407 -15 198 -103 292 -264 385 -658z m4048 402 c50 -336 -73 -409 -171 -101 -55 174 -1 401 95 401 18 0 52 -135 76 -300z m40348 -200 c219 -268 -116 -900 -478 -900 -195 0 -880 405 -887 525 -2 41 112 75 254 75 208 0 288 77 416 401 154 393 162 398 365 225 114 -97 263 -243 330 -326z m2681 400 c-34 -55 -107 -100 -162 -100 -55 0 -72 45 -38 100 34 55 107 100 162 100 55 0 72 -45 38 -100z m-39832 -322 c-71 -71 -118 -77 -118 -15 0 134 118 252 185 185 28 -28 -2 -105 -67 -170z m-967 22 l424 0 -163 -336 c-89 -185 -176 -275 -194 -201 -27 111 -83 108 -320 -14 -366 -190 -598 -190 -598 -1 0 81 -112 221 -250 311 -393 257 -309 376 214 305 255 -35 654 -64 887 -64z m2699 0 c-34 -55 -82 -100 -106 -100 -24 0 -44 45 -44 100 0 55 48 100 106 100 58 0 78 -45 44 -100z m4260 -330 c-183 -183 -377 79 -208 282 122 147 141 147 226 -5 60 -108 54 -205 -18 -277z m33641 -151 c-60 -154 -78 -152 -206 23 -109 147 -114 224 -26 331 98 118 130 115 207 -23 50 -89 61 -238 25 -331z m-42201 181 c34 -55 -6 -100 -88 -100 -83 0 -178 45 -212 100 -34 55 6 100 88 100 83 0 178 -45 212 -100z m-2041 -231 c-60 -60 -109 -182 -109 -270 0 -194 -535 -730 -632 -634 -160 160 -43 455 306 775 205 188 412 319 458 290 47 -29 37 -101 -23 -161z m42487 85 c159 -191 50 -354 -238 -354 -192 0 -222 42 -182 250 53 279 237 325 420 104z m-43645 -359 c37 -167 23 -358 -31 -424 -53 -67 -129 -312 -167 -545 -39 -234 -118 -454 -176 -490 -69 -43 -86 19 -48 174 32 132 89 565 127 963 71 741 178 857 295 322z m12974 255 c-41 -163 -170 -163 -379 1 -187 147 -183 152 104 126 165 -15 289 -72 275 -127z m31983 -50 c121 0 115 -211 -11 -400 -87 -130 -121 -124 -249 44 -198 260 -193 495 10 417 87 -34 200 -61 250 -61z m-32666 -164 c78 -206 12 -278 -186 -202 -88 34 -128 124 -94 212 77 201 200 196 280 -10z m29824 -536 c273 0 98 -348 -192 -382 -245 -28 -274 1 -274 267 0 164 -26 381 -58 482 -37 115 22 81 158 -92 119 -151 284 -275 366 -275z m-37468 275 c0 -69 -39 -185 -86 -258 -67 -107 -97 -100 -148 34 -36 92 -39 208 -8 258 82 134 244 111 242 -34z m629 -250 c-50 -328 -227 -459 -227 -168 0 165 195 583 246 527 17 -19 8 -180 -19 -359z m39173 119 c0 -79 -67 -144 -150 -144 -151 0 -206 211 -86 331 93 93 236 -20 236 -187z m-30312 -684 c662 -838 907 -1225 701 -1103 -212 125 -711 728 -883 1067 -77 151 -244 344 -373 428 -128 84 -233 225 -233 313 0 224 188 56 788 -705z m29360 521 c-33 -85 -176 -150 -328 -148 -149 2 -356 -35 -461 -82 -347 -154 -72 138 322 342 382 197 569 153 467 -112z m452 219 c0 -55 -45 -100 -100 -100 -55 0 -100 45 -100 100 0 55 45 100 100 100 55 0 100 -45 100 -100z m-30851 -402 c-35 -56 -105 -75 -156 -44 -51 32 -93 -12 -93 -98 0 -86 70 -156 156 -156 86 0 126 -48 89 -108 -42 -68 -154 -24 -310 122 -225 211 -230 236 -65 301 269 106 450 98 379 -17z m-9700 -399 c-158 -164 -331 -299 -385 -299 -54 0 -189 -79 -299 -175 -199 -173 -199 -172 -33 75 177 264 888 811 961 740 23 -23 -86 -177 -244 -341z m41951 245 c0 -86 -46 -128 -102 -93 -56 35 -75 105 -44 156 86 139 146 113 146 -63z m-373 -317 c-36 -94 -87 -107 -154 -40 -55 55 -69 180 -31 278 56 145 85 153 154 41 47 -76 61 -201 31 -279z m-2501 48 l-56 -225 265 242 c304 279 429 243 216 -61 -191 -272 -651 -369 -651 -137 0 134 174 406 261 406 11 0 -5 -101 -35 -225z m-28926 -175 c0 -55 -45 -100 -100 -100 -55 0 -100 45 -100 100 0 55 45 100 100 100 55 0 100 -45 100 -100z m11500 -150 c0 -76 -45 -166 -100 -200 -57 -35 -100 51 -100 200 0 149 43 235 100 200 55 -34 100 -124 100 -200z m17100 -361 c0 -138 -127 -102 -400 112 -212 168 -227 213 -100 298 111 74 195 46 325 -111 96 -115 175 -250 175 -299z m-17500 305 c0 -58 -45 -78 -100 -44 -55 34 -100 82 -100 106 0 24 45 44 100 44 55 0 100 -48 100 -106z m-25188 -361 c-87 -150 -106 -155 -109 -25 -3 169 102 320 173 250 23 -24 -5 -125 -64 -225z m14388 167 c0 -55 -67 -100 -150 -100 -82 0 -150 45 -150 100 0 55 68 100 150 100 83 0 150 -45 150 -100z m25650 -201 c35 -55 -10 -128 -98 -162 -191 -74 -298 7 -206 156 83 135 223 137 304 6z m-25350 -299 c-104 -194 -400 -282 -400 -120 0 126 227 320 374 320 102 0 108 -46 26 -200z m27552 -25 c-39 -124 -131 -427 -205 -675 -141 -475 -190 -343 -147 400 24 423 65 500 268 500 116 0 137 -58 84 -225z m-17192 -148 c-33 -33 -56 26 -52 131 5 117 28 141 60 61 29 -72 26 -159 -8 -192z m-21180 -122 c-68 -108 -136 -182 -154 -165 -59 60 96 360 186 360 49 0 35 -88 -32 -195z m-3880 -350 c0 -215 -57 -356 -162 -396 -129 -49 -150 -16 -101 165 33 124 61 330 62 457 0 128 45 203 101 169 55 -34 100 -212 100 -395z m15200 345 c0 -55 -45 -100 -100 -100 -55 0 -100 45 -100 100 0 55 45 100 100 100 55 0 100 -45 100 -100z m27600 -50 c0 -82 -45 -150 -100 -150 -55 0 -100 68 -100 150 0 82 45 150 100 150 55 0 100 -68 100 -150z m-17757 -261 c-22 -36 -131 -89 -241 -118 -160 -41 -202 -4 -202 179 0 209 23 220 241 117 133 -62 224 -143 202 -178z m557 -51 c0 -141 -44 -223 -100 -188 -55 34 -100 174 -100 312 0 141 44 223 100 188 55 -34 100 -174 100 -312z m-9645 -217 c-80 -80 -251 174 -253 376 -1 95 55 66 158 -81 88 -126 131 -258 95 -295z m-637 129 c-26 -147 -244 -122 -296 35 -29 86 19 122 134 100 99 -19 172 -80 162 -135z m18511 -150 c-56 -213 -118 -236 -371 -139 -274 105 -182 339 133 339 241 0 281 -34 238 -200z"/>
<path d="M49200 15096 c0 -187 131 -396 247 -396 69 0 239 -113 377 -252 156 -156 313 -227 414 -189 208 80 205 174 -13 359 -247 210 -1025 573 -1025 478z"/>
<path d="M34050 12716 c-363 -222 -603 -497 -512 -587 37 -37 136 32 220 152 84 120 211 219 282 219 71 0 210 90 310 200 226 250 94 257 -300 16z"/>
<path d="M36100 13180 c0 -65 -120 -245 -268 -398 -147 -154 -236 -311 -198 -350 83 -82 656 561 662 743 2 69 -41 125 -96 125 -55 0 -100 -54 -100 -120z"/>
<path d="M51159 9577 c34 -151 12 -417 -49 -591 -115 -330 -74 -492 84 -329 187 192 223 786 60 993 -152 193 -155 191 -95 -73z"/>
<path d="M54000 9100 c0 -55 45 -100 100 -100 55 0 100 45 100 100 0 55 -45 100 -100 100 -55 0 -100 -45 -100 -100z"/>
<path d="M66200 24961 c0 -97 282 -134 409 -53 103 65 66 89 -134 90 -151 1 -275 -16 -275 -37z"/>
<path d="M67773 24934 c68 -27 203 -29 300 -3 97 25 42 47 -123 50 -165 2 -245 -19 -177 -47z"/>
<path d="M69675 24934 c69 -28 181 -28 250 0 69 28 13 50 -125 50 -137 0 -194 -22 -125 -50z"/>
<path d="M77227 24940 c33 -34 120 -37 192 -8 80 32 56 55 -61 60 -105 4 -164 -19 -131 -52z"/>
<path d="M36621 23376 c-126 -61 -215 -181 -199 -268 26 -134 253 -162 1479 -187 1539 -30 1938 13 1873 206 -28 86 -367 110 -1206 87 -995 -28 -1176 -9 -1228 127 -70 181 -383 197 -719 35z"/>
<path d="M40500 23420 c0 -52 -135 -122 -300 -155 -379 -76 -382 -207 -9 -361 380 -158 735 10 690 327 -30 209 -381 383 -381 189z"/>
<path d="M42243 23289 c-79 -128 127 -285 376 -287 93 -1 197 -47 231 -102 78 -126 450 -132 450 -7 0 51 -119 186 -263 300 -287 225 -684 273 -794 96z"/>
<path d="M32400 22909 c-82 -46 -603 -131 -1157 -188 -1011 -103 -1743 -320 -1743 -516 0 -142 221 -132 835 37 710 196 1965 300 1965 164 0 -175 457 -120 635 77 207 230 210 378 7 456 -210 81 -361 73 -542 -30z"/>
<path d="M45225 22634 c-69 -28 -125 -107 -125 -177 0 -230 342 -429 1000 -584 358 -85 973 -268 1367 -407 887 -314 1982 -462 1914 -259 -25 74 -312 185 -638 247 -326 61 -885 226 -1243 368 -357 141 -782 287 -943 324 -162 37 -424 177 -583 310 -279 235 -485 284 -749 178z"/>
<path d="M23250 20601 c-275 -43 -792 -201 -1150 -350 -357 -149 -751 -310 -875 -359 -124 -48 -225 -134 -225 -190 0 -159 340 -121 847 97 630 270 1628 520 1889 474 164 -29 73 -103 -386 -317 -330 -153 -704 -318 -831 -367 -127 -49 -206 -129 -176 -178 77 -124 1121 268 1638 616 755 509 438 758 -731 574z"/>
<path d="M66297 18746 c-176 -256 -509 -652 -740 -881 -1215 -1201 -1230 -2317 -60 -4325 641 -1099 761 -1502 657 -2196 -86 -576 -501 -887 -1054 -788 -468 83 -611 216 -538 505 97 386 -242 438 -527 81 -129 -161 -234 -359 -235 -442 0 -82 -158 -411 -350 -730 -567 -940 -376 -1196 350 -470 405 405 698 484 1146 309 114 -44 300 -22 450 55 140 72 424 205 632 296 209 92 429 261 490 378 62 117 218 339 347 495 266 320 314 1020 134 1978 -100 533 -725 1959 -1084 2473 -294 421 -350 1159 -126 1664 246 557 351 608 715 349 312 -222 596 -207 596 32 0 74 -71 372 -157 663 -86 290 -134 588 -106 661 28 73 -10 183 -85 245 -107 89 -202 15 -455 -352z"/>
<path d="M17100 18679 c-758 -526 -1500 -1187 -1500 -1337 0 -224 235 -168 700 170 555 401 1178 683 1519 686 327 2 446 156 219 283 -179 100 -511 50 -713 -108 -82 -64 -125 -63 -125 3 0 56 158 176 350 267 193 92 350 209 350 262 0 183 -354 83 -800 -226z"/>
<path d="M77079 18450 c-203 -137 -419 -250 -481 -250 -209 0 -998 -518 -938 -616 33 -53 200 -83 371 -65 283 28 317 0 383 -319 40 -192 87 -1677 104 -3300 30 -2784 21 -2968 -164 -3274 -122 -202 -160 -356 -100 -410 53 -47 479 -59 946 -26 l850 60 31 375 c19 228 -13 375 -81 375 -61 0 -84 -45 -50 -100 34 -55 17 -100 -38 -100 -270 0 -384 652 -458 2614 -30 804 -100 1699 -154 1988 -55 289 -100 688 -100 887 l1 361 314 -335 c471 -502 2104 -2848 2343 -3365 63 -138 101 182 120 1032 27 1175 17 1245 -212 1517 -132 157 -411 593 -619 968 -208 376 -574 870 -813 1098 -276 264 -434 502 -434 655 0 251 -165 480 -347 480 -59 0 -272 -112 -474 -250z"/>
<path d="M74146 18459 c-141 -103 -381 -126 -901 -86 -971 73 -1440 -203 -985 -581 141 -117 156 -519 130 -3537 -27 -3124 -45 -3420 -210 -3584 -331 -329 -230 -470 345 -478 663 -8 1148 -43 2003 -143 604 -71 694 -59 822 110 80 105 125 245 101 312 -23 68 16 158 89 200 372 221 468 899 166 1172 -253 230 -434 111 -358 -234 47 -216 -1 -324 -244 -540 -249 -222 -397 -270 -841 -270 -723 0 -797 105 -718 1021 34 401 25 1126 -21 1611 -48 506 -46 905 5 936 49 30 262 -114 473 -320 475 -464 765 -429 648 79 -40 177 -106 538 -144 800 -103 698 -297 812 -561 332 -58 -105 -177 -202 -264 -215 -137 -20 -157 156 -152 1367 4 1252 22 1389 179 1389 273 0 992 -516 992 -712 0 -382 442 -332 541 62 75 298 -62 662 -415 1104 -306 383 -398 411 -680 205z"/>
<path d="M68175 18427 c-710 -38 -794 -112 -537 -480 156 -224 215 -602 356 -2296 56 -659 125 -1312 156 -1450 60 -274 88 -3397 34 -3801 -34 -247 -26 -250 716 -250 l750 0 -14 300 c-8 165 -61 480 -118 700 -56 220 -134 946 -172 1613 l-70 1214 746 38 c856 43 1219 251 1732 990 275 398 296 491 296 1344 0 831 -25 954 -275 1330 -409 619 -747 754 -1925 770 -550 7 -1304 -3 -1675 -22z m2091 -683 c517 -394 770 -972 773 -1768 2 -752 -181 -1116 -690 -1365 -280 -137 -1003 -190 -1111 -82 -79 78 -70 3238 9 3366 119 193 677 111 1019 -151z"/>
<path d="M79467 18333 c-126 -125 -67 -218 233 -368 299 -149 300 -149 300 143 0 239 -42 292 -233 292 -129 0 -264 -30 -300 -67z"/>
<path d="M13513 16243 c-794 -397 -1049 -686 -704 -796 186 -59 151 -106 -300 -409 -477 -321 -641 -538 -408 -538 130 0 965 581 1824 1268 1069 856 851 1107 -412 475z m-102 -549 c-132 -109 -262 -176 -289 -149 -86 86 194 355 365 352 126 -3 109 -49 -76 -203z"/>
<path d="M63124 15584 c-280 -280 39 -784 496 -784 213 0 353 461 210 690 -127 202 -542 258 -706 94z"/>
<path d="M8512 11100 c-386 -374 -533 -700 -317 -700 52 0 215 158 362 350 246 322 543 467 543 265 0 -126 -458 -720 -1589 -2065 -922 -1096 -1150 -1450 -932 -1450 44 0 246 214 448 475 203 261 551 678 774 925 224 248 551 625 728 840 176 214 443 534 592 709 256 300 479 747 479 958 0 51 -152 93 -338 93 -259 0 -434 -94 -750 -400z"/>
<path d="M79744 10590 c-37 -60 5 -182 94 -271 149 -149 162 -141 162 110 0 276 -133 360 -256 161z"/>
<path d="M68124 7103 c-164 -176 -316 -197 -1379 -194 -657 1 -1420 11 -1695 22 -595 23 -689 -190 -189 -431 l311 -150 66 -1600 c36 -880 81 -2297 101 -3150 l35 -1550 663 -30 c493 -22 662 4 660 100 -2 72 -48 445 -102 830 -54 385 -119 1071 -145 1525 l-47 825 396 0 c314 0 431 -53 562 -253 124 -189 218 -236 377 -186 288 90 359 222 360 671 3 693 -426 1052 -649 543 -81 -183 -188 -229 -574 -245 l-475 -20 0 1270 0 1270 875 18 c803 16 919 -7 1408 -280 422 -236 563 -274 675 -181 78 65 142 172 142 238 0 156 -933 1155 -1080 1155 -62 0 -195 -89 -296 -197z"/>
<path d="M70850 7050 c-669 -237 -1173 -1050 -650 -1050 110 0 200 62 200 138 0 76 69 195 153 264 127 106 195 88 401 -106 136 -128 423 -258 636 -289 l389 -57 -178 -550 c-98 -302 -412 -1202 -699 -2000 -286 -797 -666 -1891 -843 -2430 l-321 -980 405 30 c316 23 412 74 436 230 17 110 73 290 124 400 51 110 135 317 187 460 l94 260 1253 -10 c815 -6 1294 -51 1371 -128 64 -64 171 -357 237 -650 l119 -532 618 -30 c687 -33 731 25 510 661 -60 171 -237 842 -394 1490 -157 649 -383 1494 -503 1879 -120 385 -319 1060 -444 1500 -447 1589 -691 1906 -1100 1431 -119 -139 -373 -282 -564 -318 -300 -56 -388 -23 -636 236 -331 345 -279 335 -801 151z m2656 -4133 c116 -458 187 -858 157 -887 -60 -60 -2285 -41 -2347 20 -21 22 32 233 118 470 86 236 334 925 551 1530 660 1845 610 1811 987 673 177 -535 417 -1348 534 -1806z"/>
<path d="M79046 6994 c-43 -70 -442 -88 -1166 -53 -824 39 -1187 17 -1441 -89 -380 -159 -441 -344 -139 -423 110 -29 203 -58 206 -66 4 -7 28 -395 54 -863 26 -467 114 -1435 195 -2150 82 -715 159 -1761 172 -2325 l23 -1025 590 0 589 0 -64 925 c-36 509 -94 1229 -129 1600 l-63 675 297 0 c221 0 327 -65 412 -250 121 -267 401 -327 598 -130 228 228 90 1480 -163 1480 -48 0 -232 -139 -410 -308 -190 -182 -383 -284 -473 -250 -82 32 -192 58 -242 58 -51 0 -92 559 -92 1253 0 946 32 1266 132 1304 73 28 466 3 875 -56 1160 -165 1134 -166 1174 34 78 386 -745 966 -935 659z"/>
<path d="M58542 5787 c-39 -62 8 -157 102 -210 124 -69 155 -168 110 -346 -43 -172 -25 -238 57 -211 214 72 284 442 126 668 -166 237 -291 268 -395 99z"/>
<path d="M63228 3775 c-228 -294 -232 -508 -13 -741 277 -295 600 -298 933 -9 l260 225 -298 325 c-311 338 -706 428 -882 200z"/>
<path d="M19187 3149 c-145 -79 -290 -212 -322 -296 -32 -84 -131 -153 -220 -153 -171 0 -2044 -1831 -2429 -2375 -219 -310 -221 -325 -35 -325 108 0 323 167 481 375 612 805 2423 2485 2856 2649 107 41 167 120 133 175 -81 130 -145 123 -464 -50z"/>
<path d="M58670 2800 c97 -423 57 -1785 -68 -2341 -50 -222 -68 -426 -41 -453 114 -115 230 281 288 989 112 1346 93 1714 -104 1961 -144 181 -149 171 -75 -156z"/>
<path d="M23993 2025 c-3 -41 -14 -514 -25 -1050 -13 -688 16 -975 99 -975 64 0 151 146 192 325 85 367 76 1537 -13 1681 -69 112 -243 125 -253 19z"/>
<path d="M50294 1659 c-108 -242 -218 -659 -246 -925 l-51 -484 185 618 c102 340 261 732 352 872 194 295 205 360 60 360 -58 0 -193 -198 -300 -441z"/>
<path d="M59098 1281 c-2 -292 -42 -702 -91 -911 -100 -430 87 -487 205 -63 107 382 99 1375 -12 1443 -62 38 -101 -141 -102 -469z"/>
<path d="M18335 975 c-341 -363 -635 -779 -635 -897 0 -237 320 -14 594 413 174 270 381 516 461 547 80 31 145 102 145 159 0 202 -266 98 -565 -222z"/>
<path d="M17360 634 c-357 -486 -424 -636 -285 -632 103 2 751 1005 690 1067 -28 27 -210 -169 -405 -435z"/>
<path d="M20273 975 c-215 -163 -405 -975 -228 -975 68 0 177 178 242 396 107 358 271 580 361 489 19 -19 0 -226 -43 -460 -59 -323 -47 -425 53 -425 165 0 200 65 283 525 55 301 37 375 -86 375 -85 0 -155 45 -155 100 0 139 -229 125 -427 -25z"/>
<path d="M18710 548 c-320 -604 -204 -686 129 -91 286 512 296 543 186 543 -42 0 -183 -203 -315 -452z"/>
<path d="M4159 492 c-290 -344 -326 -492 -121 -492 76 0 162 90 191 200 29 110 101 200 162 200 60 0 109 -90 109 -200 0 -133 67 -200 200 -200 224 0 269 284 96 607 -147 274 -339 240 -637 -115z"/>
<path d="M56310 625 c5 -96 46 -287 90 -425 68 -212 82 -186 90 175 6 234 -35 425 -90 425 -55 0 -96 -79 -90 -175z"/>
<path d="M18956 344 c-95 -144 -149 -284 -122 -311 28 -28 127 67 222 211 94 144 149 285 121 312 -27 28 -127 -68 -221 -212z"/>
<path d="M24867 333 c-122 -121 -69 -333 83 -333 83 0 150 89 150 200 0 199 -107 260 -233 133z"/>
<path d="M55100 200 c0 -110 45 -200 100 -200 55 0 100 90 100 200 0 110 -45 200 -100 200 -55 0 -100 -90 -100 -200z"/>
<path d="M55560 216 c-35 -56 -15 -132 45 -169 154 -95 253 35 125 163 -72 72 -128 74 -170 6z"/>
</g>
</svg>