<svg xmlns="http://www.w3.org/2000/svg" version="1.0" width="800" height="250" viewBox="0 0 800.000000 250.000000" preserveAspectRatio="xMidYMid meet">
<metadata>
Created by potrace 1.10, written by Peter Selinger 2001-2011
</metadata>
<g transform="translate(0.000000,250.000000) scale(0.010000,-0.010000)" fill="#555555" stroke="none">
<path d="M38900 22768 c-152 -148 -8094 -243 -13550 -162 -1265 19 -3492 31 -4950 28 -1457 -3 -4293 -4 -6300 -2 -2007 3 -4347 -48 -5200 -111 -1969 -147 -5208 -164 -6258 -34 -444 55 -1221 131 -1725 168 -888 65 -917 61 -917 -144 0 -190 57 -211 575 -212 316 0 1073 -63 1681 -138 868 -108 1689 -119 3800 -51 1482 48 3009 123 3394 165 385 43 2703 69 5150 59 2448 -10 5260 -11 6250 -1 990 9 3060 -5 4600 -33 1540 -27 4105 -41 5700 -31 7615 50 12424 46 13700 -10 900 -40 2024 -10 3145 83 959 80 1785 120 1836 89 51 -32 1741 -49 3756 -40 2425 11 4491 -37 6113 -141 1947 -126 3158 -142 5900 -79 3825 88 5016 81 7950 -45 1829 -78 4983 -11 6025 129 234 32 425 105 425 163 0 74 -604 84 -1975 35 -1086 -40 -2005 -91 -2041 -113 -36 -22 -1364 27 -2950 108 -1737 90 -3282 120 -3884 76 -2170 -160 -10223 -40 -11738 174 -356 51 -673 76 -705 57 -135 -84 -6292 -143 -6631 -64 -212 50 -707 49 -1150 -1 -427 -48 -1361 -104 -2076 -123 -1557 -42 -6575 81 -7350 180 -302 38 -572 48 -600 21z"/>
<path d="M9331 21141 c25 -645 -1 -811 -150 -960 -100 -100 -181 -201 -181 -226 0 -24 456 -35 1014 -25 832 16 1034 51 1122 190 156 249 19 320 -262 136 -134 -87 -352 -139 -484 -115 -132 24 -344 47 -472 52 -192 6 -226 54 -200 282 27 235 72 270 307 243 197 -23 275 12 275 125 0 108 -94 157 -300 157 -250 0 -300 40 -300 239 0 329 554 427 856 150 272 -249 365 -239 326 36 -28 197 -107 232 -632 283 -330 31 -678 92 -774 135 -159 71 -172 8 -145 -702z"/>
<path d="M17347 21712 c-546 -248 -747 -470 -747 -826 0 -445 147 -643 616 -831 550 -220 1319 -132 1535 177 254 362 180 704 -259 1204 -454 515 -562 541 -1145 276z m920 -412 c9 0 69 -155 131 -345 184 -558 -80 -888 -627 -784 -429 83 -771 467 -771 868 0 320 27 351 325 381 179 18 460 -1 624 -43 165 -43 308 -77 318 -77z"/>
<path d="M50620 21817 c-104 -68 -99 -110 23 -211 83 -69 182 -286 218 -482 54 -283 29 -384 -121 -494 -163 -119 -168 -151 -40 -232 298 -188 895 -112 1155 147 135 135 245 315 245 400 0 85 48 155 108 155 63 0 94 -154 75 -375 l-32 -375 674 -2 c557 -2 675 26 675 160 0 135 -86 154 -500 115 -458 -44 -500 -31 -500 164 0 161 62 213 250 213 156 0 250 57 250 150 0 93 -94 150 -250 150 -186 0 -250 53 -250 206 0 172 53 201 315 175 187 -18 333 20 358 94 32 90 -110 125 -509 125 -526 0 -785 -114 -566 -249 117 -72 140 -453 27 -447 -41 2 -166 148 -276 325 -178 283 -260 324 -700 347 -275 14 -557 -12 -629 -59z m1071 -351 c177 -330 105 -806 -129 -850 -246 -47 -320 88 -348 635 -20 381 5 449 164 449 104 0 245 -105 313 -234z"/>
<path d="M56077 21640 c-145 -320 -13 -436 181 -159 313 447 642 155 642 -569 0 -220 -46 -428 -102 -463 -179 -111 -12 -224 255 -173 195 37 240 90 185 212 -40 89 -92 376 -115 636 -34 376 -8 488 124 539 92 35 217 13 280 -50 167 -167 292 -137 254 62 -28 147 -158 177 -814 191 -734 14 -786 1 -890 -226z"/>
<path d="M3757 21643 c-86 -87 -157 -199 -157 -250 0 -149 173 -107 236 57 38 98 194 150 452 150 l393 0 41 -575 c26 -380 -5 -629 -91 -733 -165 -199 -76 -292 280 -292 357 0 440 143 245 422 -93 133 -156 434 -156 750 0 493 16 528 244 528 134 0 272 -45 306 -100 95 -154 350 -118 350 50 0 225 -1918 218 -2143 -7z"/>
<path d="M13839 21682 c-34 -55 -11 -150 50 -211 174 -174 142 -1165 -39 -1235 -82 -31 -150 -125 -150 -207 0 -96 57 -128 158 -90 87 34 250 61 363 61 170 0 195 46 148 280 -77 383 15 486 481 542 690 84 1092 -240 739 -593 -187 -187 -4 -327 340 -261 418 79 433 98 242 308 -104 115 -171 407 -191 826 -22 485 -66 648 -175 648 -98 0 -146 -113 -150 -350 -5 -321 -30 -350 -305 -350 -591 0 -1000 102 -1010 252 -22 330 -48 377 -240 427 -110 29 -227 8 -261 -47z"/>
<path d="M19475 21724 c-197 -44 -222 -137 -76 -283 55 -55 129 -378 164 -718 67 -641 208 -804 573 -665 200 77 217 242 24 242 -201 0 -369 561 -299 998 63 393 -38 504 -386 426z"/>
<path d="M23025 21688 c-358 -103 -402 -200 -175 -388 200 -166 191 -789 -14 -1015 -151 -167 -151 -185 1 -244 90 -34 276 -34 415 0 205 52 240 107 191 302 -47 185 -12 253 153 306 257 81 706 -184 778 -459 36 -139 139 -190 388 -190 186 0 338 17 338 37 0 20 -185 159 -412 309 -374 248 -406 302 -357 604 63 388 -68 599 -463 745 -325 121 -402 121 -843 -7z m882 -292 c271 -145 241 -266 -110 -448 -353 -182 -497 -127 -497 191 0 371 220 464 607 257z"/>
<path d="M25356 21677 c-137 -76 -154 -207 -103 -809 87 -1025 37 -971 869 -929 928 48 878 37 878 205 0 245 -195 281 -567 105 -279 -133 -410 -146 -595 -62 -353 161 -288 552 104 626 332 64 306 287 -34 287 -235 0 -308 45 -308 188 0 237 341 334 660 189 267 -122 438 -35 267 136 -140 140 -956 184 -1171 64z"/>
<path d="M27692 21611 c-216 -177 -226 -215 -92 -351 83 -84 328 -215 544 -290 648 -224 746 -665 195 -874 -334 -127 -610 -43 -691 209 -34 107 -121 195 -193 195 -157 0 -284 -411 -164 -531 172 -172 858 -185 1237 -24 793 336 694 1025 -179 1245 -287 72 -447 163 -420 238 46 132 214 138 506 19 147 -60 178 -37 149 113 -52 274 -583 305 -892 51z"/>
<path d="M53769 21736 c-125 -125 46 -235 221 -141 220 118 610 26 610 -144 0 -190 -283 -829 -398 -900 -154 -95 -122 -251 50 -251 84 0 193 106 243 236 100 263 289 367 569 314 102 -19 219 -38 258 -42 40 -5 143 -143 228 -308 168 -324 220 -348 450 -201 127 81 116 120 -76 255 -125 88 -295 323 -379 524 -262 627 -406 722 -1094 722 -340 0 -646 -29 -682 -64z m1431 -543 c0 -257 -331 -228 -381 33 -23 120 31 174 174 174 143 0 207 -64 207 -207z"/>
<path d="M59254 21707 c-31 -51 -12 -121 44 -156 56 -35 102 -150 102 -257 0 -155 -70 -194 -352 -194 -279 0 -376 52 -466 250 -204 447 -353 300 -303 -300 30 -354 1 -603 -79 -700 -105 -127 -84 -150 138 -150 231 0 262 40 262 339 0 370 95 442 550 418 278 -15 302 -47 331 -437 25 -345 67 -420 233 -420 166 0 193 48 149 275 -29 151 -82 478 -119 725 -87 589 -322 879 -490 607z"/>
<path d="M63825 21736 c-69 -29 -125 -184 -125 -344 0 -245 -40 -292 -250 -292 -340 0 -337 -382 7 -791 l258 -305 394 201 395 201 234 -253 c129 -139 331 -253 448 -253 298 0 266 120 -87 320 -404 230 -376 426 105 745 430 284 411 493 -34 381 -162 -41 -270 -145 -289 -280 -22 -156 -101 -216 -281 -216 -194 0 -243 44 -217 200 99 593 71 700 -183 719 -137 11 -306 -4 -375 -33z m430 -245 c37 -60 28 -148 -20 -196 -118 -118 -378 54 -292 194 87 141 226 142 312 2z m-118 -777 c150 -165 151 -199 16 -311 -241 -201 -804 213 -586 430 125 125 402 67 570 -119z"/>
<path d="M6668 21052 c41 -436 22 -694 -59 -791 -143 -172 -1 -290 238 -198 121 46 157 161 134 425 -27 315 0 366 204 395 316 45 1128 -202 1190 -362 27 -71 -24 -209 -113 -308 -239 -264 -202 -307 213 -243 453 70 521 118 323 229 -103 58 -160 283 -181 714 -36 728 -61 787 -323 787 -206 0 -261 -147 -94 -250 55 -34 100 -151 100 -261 0 -185 -45 -194 -625 -131 -713 78 -876 168 -803 446 35 134 1 196 -107 196 -133 0 -148 -99 -97 -648z"/>
<path d="M20445 21592 c-38 -61 -11 -219 60 -351 99 -185 103 -324 18 -601 -109 -354 -107 -357 87 -181 191 172 206 168 494 -147 470 -515 684 -413 1017 488 330 894 331 900 88 900 -133 0 -176 -53 -144 -177 26 -98 -23 -312 -109 -475 -85 -164 -155 -345 -155 -403 -2 -207 -225 -339 -408 -241 -293 156 -349 673 -103 936 248 264 264 360 61 360 -82 0 -206 -90 -274 -200 -145 -232 -377 -266 -377 -56 0 191 -168 289 -255 148z"/>
<path d="M67676 20910 c45 -635 32 -699 -172 -808 -341 -182 -153 -253 578 -217 720 35 880 110 782 366 -55 143 -82 145 -208 19 -84 -84 -251 -124 -400 -96 -221 43 -256 101 -256 425 0 562 -109 1001 -249 1001 -92 0 -111 -181 -75 -690z"/>
<path d="M70000 21549 c0 -13 71 -193 157 -400 86 -206 143 -560 127 -786 -24 -327 6 -418 146 -445 149 -29 171 32 148 399 -26 406 -11 435 247 465 151 17 275 70 275 118 0 48 -124 101 -275 118 -164 19 -275 93 -275 182 0 108 133 159 475 180 286 19 475 -11 475 -75 0 -58 45 -105 100 -105 55 0 100 89 100 198 0 184 -65 198 -850 187 -467 -6 -850 -22 -850 -36z"/>
<path d="M69244 21247 c251 -233 268 -295 206 -750 -66 -477 -49 -514 225 -491 110 9 24 1222 -97 1369 -56 69 -216 125 -355 125 l-252 0 273 -253z"/>
<path d="M72132 20853 c51 -547 33 -663 -111 -744 -120 -68 38 -91 535 -78 397 11 704 63 700 119 -3 55 -146 88 -317 72 -576 -51 -736 521 -170 606 269 40 267 43 -44 57 -253 12 -325 59 -325 215 0 167 67 200 400 200 220 0 400 45 400 100 0 55 -254 100 -564 100 l-565 0 61 -647z"/>
<path d="M1800 21167 c0 -74 30 -163 66 -199 90 -91 345 133 277 243 -85 138 -343 105 -343 -44z"/>
<path d="M30507 20959 c-84 -101 -86 -160 -7 -209 160 -99 400 19 400 197 0 192 -237 199 -393 12z"/>
<path d="M48600 20956 c0 -179 165 -289 305 -203 72 44 68 109 -12 206 -151 182 -293 181 -293 -3z"/>
<path d="M74000 21000 c0 -55 45 -100 100 -100 55 0 100 45 100 100 0 55 -45 100 -100 100 -55 0 -100 -45 -100 -100z"/>
<path d="M12300 20900 c0 -55 42 -100 94 -100 52 0 122 45 156 100 34 55 -8 100 -94 100 -86 0 -156 -45 -156 -100z"/>
<path d="M61069 20935 c-142 -141 -62 -335 138 -335 140 0 197 54 175 167 -35 184 -206 276 -313 168z"/>
<path d="M66517 20737 c20 -103 80 -176 134 -162 146 37 120 251 -36 303 -87 29 -122 -20 -98 -141z"/>
<path d="M50400 19774 c-1591 -128 -1880 -148 -3900 -259 -1072 -59 -2962 -103 -4200 -98 -1237 5 -3315 -43 -4616 -107 -1771 -88 -2537 -88 -3050 -3 -723 120 -7878 191 -17284 172 -2860 -6 -6730 7 -8600 30 -6763 82 -8694 57 -8726 -109 -25 -131 478 -151 4027 -158 2323 -5 4092 -48 4140 -100 47 -51 114 -257 150 -458 61 -347 48 -370 -237 -433 -622 -137 -370 -225 523 -183 1046 49 2133 258 2723 522 1389 623 1505 644 1409 260 -84 -334 97 -319 261 21 71 149 243 302 380 340 398 110 2481 101 2550 -11 37 -61 -102 -100 -354 -100 -494 0 -976 -257 -1017 -544 -20 -141 -116 -216 -304 -238 -151 -17 -320 -115 -374 -217 -55 -102 -172 -258 -261 -347 -148 -148 -180 -140 -396 93 -129 139 -323 253 -431 253 -108 0 -262 25 -342 56 -172 66 -500 -229 -412 -370 33 -54 -18 -186 -115 -292 -96 -107 -124 -194 -62 -194 61 0 212 135 334 300 248 336 436 372 758 147 184 -129 203 -195 119 -415 -82 -216 -62 -296 114 -460 159 -149 181 -217 87 -276 -158 -97 -552 48 -520 191 15 68 -55 77 -200 23 -312 -116 -280 -223 106 -353 181 -61 362 -163 400 -225 50 -81 185 -58 468 79 464 226 618 191 755 -169 80 -211 58 -331 -113 -607 -190 -308 -196 -363 -63 -515 166 -188 299 -1892 155 -1981 -140 -87 -90 -306 70 -306 182 0 203 93 350 1540 100 978 94 1164 -44 1440 -87 175 -158 386 -158 469 0 84 -75 235 -166 336 -91 101 -137 212 -102 247 84 84 368 -156 368 -311 0 -67 113 -174 252 -237 139 -63 296 -229 349 -370 53 -140 219 -367 368 -505 259 -241 265 -270 151 -698 -167 -624 -151 -710 81 -416 154 197 197 392 187 850 -13 554 -34 606 -326 772 -496 284 -762 567 -762 812 0 371 145 353 558 -70 353 -362 401 -383 514 -229 104 142 167 151 377 56 139 -64 241 -157 227 -209 -14 -51 134 -288 330 -526 578 -704 574 -635 69 -1191 -181 -200 -231 -394 -100 -391 136 2 289 145 360 337 123 333 189 88 72 -267 -88 -269 -80 -466 40 -928 195 -747 193 -772 -46 -645 -109 59 -228 222 -263 363 -44 176 -89 217 -142 132 -94 -152 -29 -335 274 -783 262 -387 293 -894 124 -2042 -167 -1134 -1055 -3569 -1301 -3569 -132 0 -115 775 25 1163 85 234 89 422 16 662 -63 206 -69 428 -14 576 62 168 43 333 -64 545 -84 167 -202 500 -261 739 -59 239 -134 409 -165 378 -32 -32 1 -267 73 -524 202 -720 176 -3327 -41 -4139 -95 -357 -199 -762 -231 -900 -32 -137 -102 -306 -157 -375 -123 -155 -1633 -173 -1727 -20 -44 71 -111 67 -208 -14 -248 -206 -270 -23 -89 743 96 409 152 804 125 879 -27 76 -84 -43 -127 -263 -42 -220 -185 -639 -318 -930 l-241 -531 -469 31 c-335 21 -462 69 -441 167 20 95 -26 116 -150 67 -621 -246 -1133 -125 -566 134 145 66 244 138 221 161 -23 23 -265 -66 -538 -198 -542 -262 -1194 -315 -3352 -273 -1620 31 -1565 -40 -1236 1624 146 741 305 1618 352 1948 47 330 147 960 221 1400 83 491 102 892 50 1038 -143 397 2 593 675 915 354 169 644 324 644 345 0 53 -476 -96 -929 -291 -209 -90 -418 -140 -464 -111 -46 28 -116 219 -154 423 -38 203 -266 755 -506 1226 -402 787 -426 873 -292 1076 198 304 177 633 -61 918 -262 315 -380 184 -164 -183 221 -373 214 -535 -30 -756 -272 -246 -252 -421 84 -735 322 -301 658 -1127 871 -2139 192 -912 183 -1396 -46 -2503 -105 -508 -243 -1283 -307 -1723 -144 -1001 -395 -2061 -526 -2225 -55 -69 -207 -125 -338 -125 -263 0 -294 169 -243 1325 16 367 -15 575 -85 575 -66 0 -111 -212 -114 -525 -1 -289 -67 -637 -146 -775 -184 -322 -184 -400 0 -400 183 0 195 -138 24 -280 -209 -173 -1363 -27 -1478 187 -90 169 79 1365 257 1818 40 102 23 175 -40 175 -60 0 -136 -124 -169 -275 -33 -151 -102 -405 -152 -565 -51 -159 -92 -487 -92 -728 0 -485 -151 -619 -492 -436 -197 105 -200 130 -58 470 83 197 146 612 140 921 l-9 563 -118 -650 c-65 -357 -205 -796 -312 -975 -184 -308 -226 -325 -779 -325 -539 0 -580 16 -522 199 51 162 29 187 -118 132 -100 -37 -241 -150 -314 -251 -72 -101 -174 -157 -225 -126 -51 32 -93 -33 -93 -144 0 -193 60 -202 1225 -197 674 4 2440 -18 3925 -47 1485 -30 7088 -77 12450 -104 5363 -28 10695 -74 11850 -104 1155 -29 3697 -80 5649 -112 1952 -33 3767 -102 4034 -152 306 -58 1116 -52 2201 18 1898 121 2663 140 10266 245 4904 68 6890 76 9016 37 477 -9 919 16 983 56 65 39 575 64 1134 55 4259 -68 11322 -101 13617 -65 330 6 1286 -23 2125 -64 1319 -65 1525 -54 1525 75 0 108 -118 151 -425 155 -234 4 -852 36 -1375 71 -522 35 -1175 60 -1450 54 -1916 -39 -5387 -20 -5469 31 -58 35 -72 216 -34 425 37 200 99 948 139 1663 77 1380 125 1537 608 1983 344 319 379 445 147 534 -314 121 -1141 1003 -1141 1218 0 251 76 264 344 62 406 -307 721 -168 1526 674 346 361 363 367 644 222 159 -83 410 -137 557 -122 224 25 277 -18 331 -271 101 -464 462 -1103 718 -1271 150 -99 310 -394 454 -841 365 -1134 1384 -2596 2054 -2947 209 -109 427 -169 486 -132 103 63 61 629 -72 975 -42 109 20 160 225 184 244 28 281 74 271 332 -6 165 -145 641 -309 1059 -163 417 -353 1047 -422 1400 -243 1238 -1011 3211 -1416 3636 -50 52 -91 180 -91 285 0 104 -63 309 -140 455 -77 146 -192 513 -255 815 -129 619 -147 592 765 1100 247 138 524 376 615 531 154 261 153 287 -1 375 -102 58 -146 170 -113 294 67 257 -70 253 -529 -18 -358 -211 -373 -212 -505 -31 -129 177 -154 178 -484 21 -328 -157 -391 -267 -475 -822 -25 -163 -76 -125 -273 200 -692 1145 -1853 2054 -2615 2047 -501 -5 -872 -376 -988 -988 -150 -787 -333 -1108 -1090 -1909 -390 -412 -710 -784 -711 -825 0 -41 -53 -75 -116 -75 -73 0 -58 65 39 175 109 124 156 400 161 940 4 421 58 968 121 1216 103 410 93 479 -112 756 -224 303 -437 341 -329 60 31 -81 7 -147 -54 -147 -61 0 -111 61 -111 135 0 375 -887 638 -1177 348 -88 -88 -180 -89 -363 -6 -193 88 -270 81 -365 -33 -66 -79 -204 -144 -307 -144 -120 0 -188 -71 -188 -197 0 -127 -49 -178 -140 -143 -221 85 -278 -121 -159 -565 85 -315 82 -445 -14 -560 -99 -120 -98 -166 5 -230 99 -61 103 -128 15 -292 -135 -253 -29 -503 331 -779 133 -101 272 -285 309 -409 61 -208 35 -225 -345 -225 -303 0 -476 64 -657 245 -135 135 -245 291 -245 346 0 55 -112 266 -250 469 -327 482 -354 1315 -50 1590 451 408 29 1070 -543 853 -149 -57 -374 -103 -500 -103 -404 0 -1612 -683 -2190 -1238 -565 -543 -667 -580 -667 -242 0 696 -1069 1798 -2140 2204 -278 106 -552 222 -608 259 -235 152 713 157 2398 13 2002 -172 10223 -205 12625 -50 1147 73 1325 65 1325 -65 0 -221 1241 -557 1358 -368 30 48 -109 87 -309 87 -362 0 -749 144 -749 279 0 39 1001 85 2223 102 1223 17 2243 51 2267 75 127 128 -190 165 -1210 143 -1489 -32 -1337 -34 -2883 43 -881 44 -2016 17 -3250 -78 -2165 -166 -9334 -142 -11179 38 -595 58 -1781 104 -2636 104 -855 -1 -1637 43 -1737 97 -227 121 -5387 176 -6695 71z m6426 -360 c63 -63 204 -114 314 -114 156 0 173 -27 80 -120 -183 -183 -144 -280 111 -280 127 0 330 -92 451 -204 202 -188 207 -226 75 -483 -182 -352 -313 -455 -798 -625 -317 -112 -400 -113 -435 -9 -87 260 -531 702 -864 860 -475 225 -1262 57 -1810 -385 -523 -422 -714 -519 -1523 -768 -940 -291 -2061 -304 -2527 -30 -416 244 -430 356 -100 804 175 237 398 384 743 490 625 190 611 191 854 -69 251 -270 434 -138 386 279 -22 186 -143 358 -354 499 -177 119 -299 238 -272 265 109 109 5555 4 5669 -110z m-5676 -190 c285 -75 450 -224 450 -404 0 -121 -52 -106 -238 69 -214 201 -301 216 -852 154 -470 -53 -808 -180 -1437 -540 -453 -259 -1164 -650 -1580 -869 -416 -218 -862 -471 -991 -562 -129 -90 -269 -142 -311 -116 -43 26 -105 2 -140 -54 -35 -56 -114 -102 -176 -102 -142 0 496 477 743 556 320 101 195 215 -168 153 -344 -58 -1190 -637 -1292 -884 -61 -148 202 -170 292 -25 101 163 277 114 210 -60 -49 -128 1 -120 264 46 687 433 1538 829 1826 851 357 26 1050 345 1050 483 0 53 54 79 120 57 168 -56 480 231 480 441 0 191 744 475 876 334 41 -44 14 -101 -60 -127 -73 -26 -430 -274 -792 -552 -767 -588 -2491 -1507 -2687 -1432 -73 28 -179 -32 -233 -134 -152 -283 -2419 -2007 -2641 -2007 -191 0 -371 -169 -1853 -1746 -408 -433 -657 -645 -554 -471 103 175 222 317 266 317 43 0 76 56 74 125 -7 221 -596 -559 -596 -790 0 -123 -53 -256 -117 -296 -79 -49 -96 -17 -51 100 38 99 25 146 -31 112 -138 -85 -988 -1203 -1079 -1419 -136 -321 -545 -942 -591 -896 -56 55 308 776 657 1304 164 247 218 408 147 432 -124 41 36 728 170 728 110 0 38 597 -87 722 -82 82 -129 60 -178 -80 -187 -536 -479 -1131 -780 -1586 -392 -593 -732 -1236 -1167 -2206 -246 -550 -321 -872 -350 -1500 -40 -865 -249 -1987 -434 -2334 -167 -311 90 -288 482 42 281 236 709 1010 709 1281 0 62 106 315 236 562 130 247 292 621 360 831 68 210 187 406 264 436 77 29 140 139 140 244 0 106 225 591 500 1078 275 488 500 915 500 950 0 311 1629 2151 2297 2596 349 232 482 207 816 -150 l294 -314 241 226 c507 477 768 -138 487 -1151 -195 -705 -217 -2078 -36 -2296 142 -171 301 -111 301 115 0 84 64 296 141 469 78 173 197 495 265 715 276 896 1227 2156 1619 2147 69 -1 255 -135 414 -297 262 -267 283 -339 227 -772 -56 -433 -48 -460 84 -287 80 106 223 398 317 650 94 253 353 728 577 1058 704 1037 806 1252 359 751 -221 -247 -540 -709 -708 -1025 -313 -587 -516 -754 -426 -350 104 469 462 1530 555 1649 54 68 71 194 38 280 -33 86 -24 134 20 107 44 -27 269 258 500 632 748 1212 1515 1531 3518 1463 688 -23 1317 -67 1400 -99 83 -31 285 -15 450 35 281 85 284 91 50 98 -137 4 -657 61 -1154 127 l-904 120 804 398 c442 218 894 474 1004 567 291 248 1103 494 1372 415 128 -37 326 -134 441 -217 225 -161 636 -780 637 -959 0 -60 -381 -165 -850 -235 -467 -70 -850 -167 -850 -216 0 -128 236 -113 1170 73 936 185 1130 148 1130 -216 0 -241 -14 -249 -205 -114 -321 224 -1437 -108 -1326 -395 29 -76 3 -138 -58 -138 -61 0 -111 45 -111 100 0 55 -87 100 -194 100 -107 0 -222 -45 -256 -100 -34 -55 -175 -100 -312 -100 -138 0 -337 -46 -442 -102 -104 -56 -450 -119 -768 -140 -318 -21 -652 -68 -743 -105 -91 -37 -194 -19 -231 40 -38 63 20 107 140 107 113 0 206 50 206 112 0 67 -90 87 -225 51 -124 -33 -302 -61 -397 -62 -107 0 -151 -55 -118 -142 40 -104 -96 -175 -513 -268 -538 -121 -1431 -641 -1309 -763 32 -31 124 -1 205 66 81 68 310 206 509 307 301 154 369 160 415 41 30 -78 24 -221 -12 -317 -43 -113 -33 -140 29 -75 53 55 112 186 131 292 51 280 250 303 321 37 34 -126 62 -690 63 -1254 l1 -1025 -294 0 c-358 0 -498 -171 -182 -223 146 -25 335 63 537 249 289 266 324 275 475 123 90 -90 167 -284 171 -431 11 -409 98 -1056 148 -1106 25 -25 45 219 45 541 0 706 140 629 279 -153 l97 -550 12 725 c9 546 46 725 151 725 169 0 383 -824 609 -2347 90 -603 183 -1117 207 -1142 76 -75 50 334 -55 887 -205 1084 -138 1592 211 1600 64 2 518 -980 635 -1373 66 -222 454 -329 454 -125 0 55 -44 100 -98 100 -116 0 -444 628 -543 1038 -64 266 -52 283 161 215 126 -40 297 -66 380 -59 1356 126 1600 119 1600 -42 0 -91 -47 -252 -104 -359 -71 -133 -71 -193 0 -193 57 0 104 56 105 125 0 69 72 260 159 425 96 180 166 579 175 1000 12 564 64 773 265 1074 138 205 284 374 325 375 129 2 82 -395 -84 -716 -87 -168 -133 -402 -103 -518 31 -116 -13 -475 -96 -798 -165 -636 -134 -1039 36 -467 59 200 108 266 113 155 22 -485 213 84 367 1095 210 1378 390 1639 311 450 -31 -467 -108 -1075 -172 -1350 -250 -1076 -423 -1730 -645 -2450 -225 -729 -264 -1120 -53 -539 58 159 150 379 205 489 54 110 208 644 342 1186 133 542 273 1014 310 1050 38 35 44 -26 13 -136 -91 -323 -107 -1385 -24 -1575 45 -103 -15 -517 -146 -1000 -299 -1108 -410 -3275 -167 -3275 155 0 272 294 430 1083 92 462 218 482 288 45 133 -828 349 -889 514 -145 122 550 236 780 236 476 0 -110 63 -162 171 -141 107 21 227 223 325 546 101 336 265 605 476 781 256 213 337 371 388 762 36 271 103 493 149 493 46 0 133 -191 193 -425 350 -1351 451 -1663 654 -2025 331 -591 588 -2026 369 -2063 -533 -90 -402 -88 -4600 -85 l-2825 2 -1 323 c0 178 -47 492 -104 698 -71 256 -72 432 -3 550 96 165 102 165 105 -5 5 -319 299 -770 501 -770 226 0 1124 1063 1374 1625 92 206 198 375 236 375 83 0 426 700 370 756 -22 21 -216 -264 -431 -634 -562 -966 -1239 -1772 -1489 -1772 -183 0 -241 142 -489 1200 -154 660 -301 1301 -327 1425 -25 124 -119 225 -208 225 -142 0 -153 -106 -91 -875 59 -736 294 -2613 382 -3049 16 -82 -97 -126 -325 -126 -322 0 -353 26 -381 325 -20 199 -87 325 -173 325 -179 0 -219 204 -294 1462 -39 660 -20 1098 53 1258 88 193 78 328 -47 625 -87 209 -161 678 -165 1042 -4 365 -46 753 -93 863 -93 215 -54 -1096 105 -3583 145 -2266 139 -2367 -134 -2367 -228 0 -228 0 -188 1304 34 1091 15 1333 -118 1480 -125 137 -166 465 -192 1521 -18 740 -18 625 0 -255 18 -880 43 -2103 55 -2717 12 -614 -6 -1144 -39 -1178 -34 -34 -1050 -87 -2259 -119 l-2197 -57 -118 286 c-65 157 -134 510 -154 785 -19 275 -69 842 -111 1261 -87 862 81 2830 315 3689 246 901 840 2439 1005 2600 138 135 147 88 95 -450 -155 -1595 -184 -2250 -101 -2250 50 0 103 406 119 903 41 1311 240 2318 557 2820 l270 427 -441 -469 c-1277 -1359 -2345 -4368 -2773 -7813 -68 -540 -153 -945 -190 -900 -37 45 -37 667 0 1382 50 957 151 1622 381 2519 327 1276 392 1707 213 1431 -108 -167 -310 -827 -608 -1984 -142 -549 -214 -1262 -257 -2516 -32 -962 -70 -1762 -83 -1778 -28 -32 -5267 -171 -6302 -167 -385 1 -1780 58 -3100 126 -1320 69 -3705 121 -5300 117 -3052 -7 -4677 66 -4986 225 -123 63 -222 59 -295 -14 -60 -60 -190 -109 -289 -109 -211 0 -246 387 -65 732 113 216 113 217 -100 28 -118 -105 -215 -288 -215 -405 0 -371 -168 -437 -984 -383 -1002 67 -1145 286 -664 1013 139 210 353 580 475 823 212 421 246 443 705 473 349 22 578 -26 831 -175 374 -221 698 -259 934 -110 203 129 85 216 -365 270 -210 25 -512 88 -672 140 -159 51 -487 94 -727 94 -412 0 -455 -27 -734 -468 -163 -257 -326 -561 -362 -675 -35 -114 -171 -334 -301 -490 -130 -155 -236 -404 -236 -552 l0 -270 -4050 -9 c-3670 -8 -4050 7 -4050 153 0 346 210 862 589 1449 217 337 486 891 596 1232 110 341 266 769 346 950 457 1038 720 2464 572 3105 -54 234 -99 459 -101 500 -4 143 236 74 455 -131 398 -374 1431 -230 1932 271 275 274 481 665 671 1272 71 226 265 375 920 709 456 233 881 475 945 539 176 176 415 138 578 -92 81 -113 317 -302 525 -420 262 -147 360 -261 318 -368 -185 -479 -165 -688 81 -849 147 -96 248 -258 248 -396 0 -260 713 -1060 944 -1060 79 0 230 -64 337 -142 110 -81 308 -120 457 -90 144 29 293 3 331 -58 100 -162 677 -134 1046 50 177 88 409 137 517 109 127 -33 232 17 299 143 137 256 326 130 252 -167 -32 -128 -20 -257 28 -286 48 -30 115 226 150 568 142 1405 192 1680 302 1643 129 -44 145 -712 34 -1370 -75 -442 -74 -445 73 -169 82 155 180 510 217 789 50 374 116 519 253 555 223 58 242 210 35 289 -82 31 -150 148 -150 259 0 160 -28 178 -138 87 -237 -197 -256 97 -43 667 107 288 235 523 285 523 130 0 796 -1072 796 -1282 0 -98 52 -230 117 -295 137 -137 118 -1270 -26 -1541 -66 -122 -211 -182 -445 -182 -339 0 -483 -204 -246 -350 55 -34 103 -250 106 -481 8 -536 265 -2018 281 -1619 6 165 -32 682 -86 1149 -91 787 -83 863 102 1048 238 239 502 127 610 -256 58 -209 68 -214 77 -36 21 432 510 624 510 201 0 -134 45 -272 100 -306 56 -35 100 47 100 188 0 358 159 407 282 86 406 -1056 284 -3341 -273 -5101 -236 -746 -339 -1323 -236 -1323 103 0 474 1219 670 2206 380 1906 418 3200 116 3994 -31 83 -21 207 24 277 62 97 175 75 496 -100 350 -191 447 -207 617 -102 111 69 313 125 449 125 136 0 291 80 343 178 53 98 293 277 533 397 629 314 916 656 928 1103 11 465 83 583 400 663 137 34 603 287 1035 561 431 274 893 499 1025 499 387 3 691 112 691 250 0 70 69 154 152 186 170 65 128 397 -114 905 -182 381 -42 603 680 1083 713 474 1352 1102 1181 1159 -72 24 -190 -41 -261 -145 -148 -216 -165 -232 -638 -620 -418 -344 -743 -440 -1035 -308 -128 58 -376 64 -614 14 -448 -94 -551 -302 -342 -692 112 -208 103 -264 -65 -423 -253 -239 -1124 -510 -1638 -510 -421 0 -479 -78 -302 -407 136 -255 328 -250 246 7 -52 165 -18 200 196 200 142 0 515 90 828 200 313 110 582 200 598 200 15 0 28 -90 28 -200 0 -128 -67 -200 -185 -200 -101 0 -263 -88 -360 -195 -173 -191 -165 -193 493 -145 450 33 648 15 605 -56 -36 -57 -147 -104 -248 -104 -100 0 -555 -246 -1011 -548 -455 -301 -989 -599 -1186 -663 -197 -63 -403 -148 -458 -188 -222 -163 -953 -204 -1176 -65 -123 76 -561 191 -974 256 -615 97 -788 166 -963 385 -199 249 -190 489 29 811 14 20 354 -64 755 -187 1703 -523 1494 -506 2656 -215 631 157 1076 321 1104 405 34 104 -3 120 -142 63 -104 -43 -571 -183 -1039 -311 -624 -172 -930 -211 -1150 -147 -1088 317 -1746 558 -2051 752 -194 123 -452 255 -575 294 -299 95 -282 183 63 336 158 70 495 290 750 488 403 314 463 409 463 732 0 227 68 432 175 529 377 339 1347 547 3075 660 2000 131 2708 240 3827 587 454 141 857 225 895 187 38 -38 22 -192 -34 -343 l-104 -274 585 13 c666 15 933 143 298 143 -346 0 -417 33 -417 194 0 107 48 224 106 260 59 36 1285 80 2725 97 1441 17 2912 58 3269 90 635 57 642 55 300 -84 -518 -210 -22 -245 750 -53 499 125 2348 284 2550 220 83 -25 240 -71 350 -100z m-30693 -231 c134 -125 243 -265 243 -310 0 -46 -250 -83 -555 -83 -537 0 -1341 -283 -1067 -376 71 -23 186 5 257 64 72 59 542 103 1072 100 1266 -8 3234 163 3901 340 1364 362 1992 462 1992 315 0 -31 -47 -143 -104 -250 -144 -269 6 -241 255 48 l207 241 3083 48 c1733 27 3396 6 3796 -48 780 -106 3954 -127 5463 -37 675 40 883 28 720 -43 -490 -212 -3713 -602 -4972 -602 -708 0 -1675 -297 -2018 -619 -160 -150 -230 -329 -230 -587 0 -469 -208 -716 -885 -1050 -666 -329 -843 -227 -529 305 354 600 226 1269 -350 1826 -309 298 -389 325 -981 325 -860 0 -1159 -236 -1230 -973 -53 -552 -6 -625 767 -1210 170 -128 308 -296 308 -375 0 -183 190 -185 260 -2 30 77 141 163 247 191 320 84 220 272 -131 244 -253 -19 -346 24 -424 200 -55 124 -158 225 -230 225 -87 0 -121 109 -101 325 33 366 -153 549 -203 200 -51 -362 -318 -277 -316 100 2 437 146 667 314 499 68 -68 250 -124 404 -124 213 0 280 -48 280 -200 0 -140 68 -201 225 -203 432 -6 592 -239 674 -983 42 -385 54 -815 27 -956 -49 -254 119 -372 197 -138 28 84 177 55 509 -101 257 -121 468 -245 468 -276 0 -167 -229 -443 -367 -443 -130 0 -146 -68 -87 -375 136 -709 124 -775 -141 -775 -180 0 -262 67 -305 250 -50 210 -70 222 -126 75 -102 -265 -242 -210 -366 144 -102 293 -85 345 209 648 176 182 289 360 253 397 -37 36 -161 -53 -276 -199 -276 -350 -459 -334 -695 60 -107 179 -353 432 -546 563 -344 232 -455 412 -253 412 55 0 100 41 100 90 0 50 -173 68 -385 39 -307 -41 -470 4 -800 223 -377 250 -415 313 -415 696 0 548 -203 727 -1069 939 -642 157 -680 182 -662 438 18 265 13 268 -225 112 -464 -304 -319 -500 509 -684 792 -177 1146 -422 1148 -797 3 -415 131 -667 412 -813 362 -187 368 -418 12 -550 -151 -56 -320 -158 -375 -227 -55 -69 -408 -293 -784 -498 -670 -366 -690 -371 -1000 -212 -174 89 -650 272 -1058 407 -409 136 -795 318 -860 406 -181 248 -177 1033 7 1237 145 159 143 173 -24 159 -144 -12 -175 46 -149 285 17 165 96 431 175 591 79 160 128 307 109 326 -19 20 -209 46 -422 59 -293 18 -395 -16 -421 -143 -23 -112 42 -178 196 -200 193 -28 228 -88 215 -372 -9 -186 -77 -376 -150 -422 -108 -67 -110 -122 -11 -282 178 -287 55 -507 -284 -507 -246 0 -289 40 -289 264 0 145 79 322 175 393 166 122 166 144 -9 441 -101 172 -157 381 -125 466 37 95 12 137 -66 110 -128 -45 -138 -334 -26 -774 53 -206 10 -282 -242 -431 -250 -147 -307 -246 -307 -531 0 -193 -49 -443 -110 -556 -86 -162 -81 -196 25 -161 74 25 189 152 255 283 103 204 129 215 184 71 52 -136 149 -157 492 -110 473 65 712 -104 295 -208 -310 -78 -1041 -549 -1041 -670 0 -48 -75 -87 -166 -87 -92 0 -365 -116 -607 -258 -562 -330 -1769 -742 -2171 -742 -170 0 -475 113 -677 250 -203 138 -431 250 -508 250 -194 0 -352 392 -302 750 33 231 -28 376 -263 631 -168 181 -354 422 -414 534 -204 381 150 162 648 -401 261 -295 679 -693 931 -885 396 -303 488 -334 697 -239 133 61 476 110 762 110 594 0 1084 120 1441 355 369 242 207 284 -191 49 l-346 -203 -231 246 c-255 272 -411 256 -336 -33 43 -165 -34 -195 -660 -256 -839 -83 -982 -2 -1803 1018 -551 683 -604 824 -309 824 250 0 705 206 705 319 0 47 -133 17 -295 -66 -310 -161 -1405 -214 -1405 -68 0 46 84 160 186 252 120 109 169 255 138 416 -26 137 6 313 72 393 97 116 60 232 -189 594 -170 247 -354 477 -408 511 -388 239 243 310 2533 285 1187 -13 1300 -31 1525 -243z m1367 55 c483 -224 836 -252 450 -36 -389 218 -130 288 1068 288 1221 0 1558 -43 1558 -201 0 -153 -1030 -324 -1656 -274 -453 37 -645 16 -680 -74 -31 -82 -292 -130 -751 -140 -606 -12 -730 16 -908 206 -233 251 -255 350 -91 404 279 93 526 51 1010 -173z m-12624 -98 c186 -137 398 -250 469 -250 72 0 131 -45 131 -100 0 -55 56 -99 125 -97 69 1 -32 135 -225 297 l-350 295 400 13 c326 11 1711 8 2095 -5 509 -17 -1411 -658 -2271 -759 -629 -73 -825 13 -985 435 -180 473 96 551 611 171z m6545 -206 c132 -86 321 -142 422 -125 110 19 183 -29 183 -119 0 -106 -85 -141 -288 -119 -214 23 -365 -48 -587 -275 -164 -168 -400 -306 -525 -306 -124 0 -282 -67 -350 -150 -104 -125 -90 -150 88 -150 225 0 284 -144 105 -254 -59 -37 -82 -129 -53 -206 65 -171 -36 -175 -249 -12 -87 67 -138 183 -113 257 37 111 3 112 -191 8 -131 -69 -287 -193 -348 -276 -133 -180 -439 -88 -439 132 0 85 108 204 239 264 131 60 287 215 347 345 59 130 221 265 361 300 139 35 253 95 253 134 0 38 119 213 265 389 293 354 524 397 880 163z m43936 -338 c25 -75 -12 -112 -87 -87 -72 24 -151 103 -175 175 -25 75 12 112 87 87 72 -24 151 -103 175 -175z m9106 -372 c-136 -163 -287 -82 -287 155 0 270 130 342 271 150 92 -126 96 -208 16 -305z m3313 362 c0 -57 95 -233 212 -391 311 -421 148 -561 -268 -230 -350 279 -445 567 -219 659 204 82 275 72 275 -38z m766 -21 c88 -141 97 -190 119 -656 20 -437 215 -313 215 137 0 189 32 344 72 344 40 0 332 -257 650 -572 790 -781 786 -1196 -12 -1425 -392 -113 -396 -4 -10 281 284 210 416 616 200 616 -55 0 -100 -88 -100 -196 0 -414 -654 -539 -800 -154 -53 141 -175 250 -278 250 -100 0 -235 53 -300 118 -166 166 -278 20 -125 -164 167 -202 59 -454 -194 -454 -254 0 -254 -49 -3 -300 110 -110 200 -269 200 -353 0 -230 -309 -307 -450 -113 -158 216 -268 212 -241 -9 35 -280 -115 -525 -320 -525 -135 0 -189 -71 -189 -250 0 -259 -143 -315 -396 -155 -127 81 -125 117 16 274 89 100 182 294 207 431 45 243 46 244 59 17 16 -268 245 -247 298 27 45 230 -83 351 -440 416 -159 29 -313 75 -341 104 -88 88 630 617 767 564 73 -28 130 21 130 111 0 89 -67 161 -150 161 -189 0 -193 143 -9 327 77 77 156 249 175 382 l34 241 277 -272 c230 -227 317 -256 525 -177 283 107 312 324 97 735 -82 158 -149 304 -149 325 0 98 397 25 466 -86z m-42512 -220 c204 -86 388 -253 447 -407 226 -596 105 -586 -601 49 -578 520 -526 642 154 358z m37846 -5 c0 -82 -45 -150 -100 -150 -55 0 -100 68 -100 150 0 83 45 150 100 150 55 0 100 -67 100 -150z m-7836 -205 c130 -140 236 -314 236 -386 0 -71 115 -254 255 -405 236 -255 242 -284 83 -401 -162 -118 -161 -146 25 -464 109 -187 623 -661 1142 -1055 l945 -717 900 -3 c495 -2 990 -8 1100 -14 110 -5 439 47 730 116 419 99 572 100 726 4 163 -103 278 -81 699 133 523 264 542 289 632 812 43 253 16 324 -142 365 -205 54 -271 411 -95 520 55 34 100 169 100 301 0 155 121 331 346 503 281 214 408 250 675 193 409 -87 583 -221 515 -396 -28 -75 3 -237 69 -360 100 -186 92 -246 -42 -344 -90 -66 -163 -167 -163 -225 0 -58 -56 -126 -125 -151 -86 -32 -55 -114 100 -262 250 -241 289 -404 100 -420 -368 -31 -745 47 -901 186 -96 86 -209 124 -250 83 -92 -93 434 -558 632 -558 181 0 179 -177 -6 -500 -169 -295 -189 -500 -50 -500 55 0 100 49 100 109 0 60 94 229 208 374 194 247 254 262 875 231 367 -19 750 -79 851 -133 101 -54 653 -101 1226 -106 923 -7 1068 16 1266 200 123 114 517 341 874 505 358 163 740 398 850 523 l200 227 -273 -66 c-235 -57 -282 -31 -337 192 -39 152 -16 307 54 376 92 91 177 52 369 -169 l248 -287 226 212 c124 117 297 212 384 212 87 0 184 68 215 150 32 83 14 150 -39 150 -217 0 -76 188 218 290 407 142 500 139 464 -18 -38 -168 31 -200 250 -116 99 38 207 41 241 7 96 -95 -216 -392 -639 -608 -407 -209 -931 -699 -931 -872 0 -150 -1355 -1483 -1508 -1483 -71 0 -224 -89 -339 -198 -286 -268 -2103 -564 -2803 -456 -461 71 -480 85 -250 177 l250 100 -285 100 c-241 85 -278 144 -242 389 52 357 -52 373 -207 32 -84 -184 -87 -311 -10 -456 59 -110 80 -322 47 -472 -34 -159 3 -398 91 -575 83 -166 181 -637 218 -1046 47 -531 150 -908 357 -1310 160 -311 300 -753 311 -982 19 -402 6 -422 -380 -558 -621 -220 -850 -192 -850 105 0 138 -44 250 -97 250 -56 0 -72 -131 -38 -300 47 -235 25 -300 -102 -300 -90 0 -163 53 -163 117 0 221 -331 483 -610 483 -153 0 -306 45 -340 100 -100 162 -351 118 -286 -50 40 -105 -8 -150 -164 -150 -136 0 -203 48 -174 125 95 250 -112 575 -367 575 -339 0 -378 104 -247 672 105 452 93 527 -149 983 -178 334 -263 647 -263 970 0 454 -10 471 -203 351 -168 -104 -220 -100 -299 24 -124 196 -125 572 -1 648 54 33 176 -31 273 -144 209 -245 330 -261 330 -45 0 191 -1110 1247 -1232 1171 -47 -29 81 -225 286 -434 l373 -382 -383 -72 c-607 -114 -3308 34 -3623 198 -481 252 -1363 1206 -1662 1799 -177 350 -384 613 -525 667 -248 94 -253 103 -288 494 -12 138 -58 385 -101 550 -71 272 -63 287 88 163 96 -79 167 -282 167 -475 0 -186 45 -338 100 -338 55 0 100 135 100 300 0 165 50 300 111 300 143 0 25 514 -150 650 -71 55 -182 201 -248 325 -169 318 45 299 351 -30z m5075 97 c101 -262 76 -306 -314 -557 -484 -312 -966 -257 -1168 133 -76 147 -112 294 -81 325 127 127 414 45 471 -134 33 -105 125 -215 204 -245 185 -72 314 134 147 237 -70 43 -99 151 -66 239 84 217 724 218 807 2z m2211 58 c34 -55 35 -143 3 -196 -83 -133 -353 -13 -353 157 0 160 258 189 350 39z m-51387 -401 c17 -317 -284 -999 -441 -999 -33 0 -187 121 -342 269 -387 371 -359 633 96 903 502 298 664 257 687 -173z m47379 -60 c87 -33 158 -144 158 -246 0 -102 91 -235 203 -294 297 -160 134 -316 -287 -276 -262 24 -394 97 -465 256 -54 121 -133 221 -175 221 -135 0 -81 -381 77 -539 194 -194 94 -661 -142 -661 -94 0 -217 -131 -280 -300 -79 -208 -181 -300 -334 -300 -171 0 -209 45 -168 200 39 148 3 200 -138 200 -273 0 -265 553 9 700 169 90 200 76 200 -91 0 -250 182 -367 334 -214 88 89 74 141 -59 216 -210 119 -225 326 -38 507 295 285 641 558 774 611 76 30 147 59 156 63 9 4 88 -19 175 -53z m3558 -139 c0 -55 -67 -100 -150 -100 -82 0 -150 45 -150 100 0 55 68 100 150 100 83 0 150 -45 150 -100z m-50640 -373 c-33 -33 -56 26 -52 131 5 117 28 141 60 61 29 -72 26 -159 -8 -192z m50938 98 c-1 -41 -90 -187 -198 -325 -183 -234 -196 -237 -198 -45 -2 206 169 445 318 445 44 0 79 -34 78 -75z m-2467 -625 c38 -322 168 -659 364 -943 539 -783 440 -868 -1076 -917 -986 -32 -1028 -25 -968 163 43 136 16 197 -87 197 -83 0 -170 101 -194 225 l-45 225 -75 -229 c-76 -232 -255 -255 -326 -43 -42 125 406 622 560 622 51 0 116 -89 145 -199 28 -109 169 -243 311 -297 143 -55 260 -150 260 -213 0 -70 104 -94 271 -62 183 34 311 -3 393 -114 92 -123 152 -136 238 -51 82 81 84 133 7 181 -60 37 -110 188 -112 336 -3 231 -17 244 -105 94 -56 -96 -190 -175 -297 -175 -275 0 -248 313 55 641 291 313 303 359 100 359 -211 0 -186 223 54 481 324 348 461 275 527 -281z m10613 275 c-80 -262 -126 -326 -190 -262 -76 76 62 487 164 487 53 0 64 -101 26 -225z m-37344 -208 c0 -208 -118 -276 -266 -154 -194 161 -165 287 66 287 110 0 200 -60 200 -133z m9857 -124 c-106 -78 -215 -118 -242 -91 -28 28 36 113 142 191 106 77 215 118 243 91 27 -28 -37 -114 -143 -191z m-17257 1 c0 -24 -45 -44 -100 -44 -55 0 -100 48 -100 106 0 58 45 78 100 44 55 -34 100 -82 100 -106z m42100 -97 c0 -274 -250 -437 -415 -272 -70 70 -44 170 79 314 238 279 336 266 336 -42z m-8974 -175 c162 -486 -251 -775 -511 -358 -110 175 -111 257 -6 454 164 305 398 262 517 -96z m-7449 -53 c22 -66 -51 -119 -162 -119 -229 0 -361 -299 -265 -600 66 -207 -89 -280 -203 -95 -89 144 -975 6 -1077 -169 -114 -193 -245 -169 -373 70 -82 154 -80 244 8 350 136 164 652 194 745 44 120 -195 351 -96 574 247 281 431 655 566 753 272z m10583 -92 c-33 -33 -56 26 -52 131 5 117 28 141 60 61 29 -72 26 -159 -8 -192z m-9025 -127 c35 -176 123 -300 213 -300 85 0 152 -87 152 -200 0 -110 -38 -200 -85 -200 -46 0 -133 -101 -193 -225 -99 -205 -109 -192 -115 153 -4 216 -64 400 -139 429 -83 32 -116 160 -89 347 56 381 179 379 256 -4z m-19939 7 c57 -107 104 -290 104 -407 0 -319 -537 -244 -583 82 -70 492 268 720 479 325z m19205 -5 c-88 -165 -78 -187 58 -135 142 55 148 33 46 -158 -96 -178 -147 -198 -262 -103 -175 145 -183 314 -23 474 188 188 298 141 181 -78z m-9801 42 c0 -109 -648 -1044 -723 -1044 -158 0 -67 244 248 662 293 389 475 536 475 382z m26700 -407 c0 -295 -431 -260 -548 43 -38 100 8 216 116 296 152 111 199 104 306 -42 69 -95 126 -228 126 -297z m-743 -54 c26 -297 -14 -397 -207 -523 -228 -150 -249 -143 -488 163 -196 250 -226 350 -135 459 96 116 155 93 349 -133 298 -347 420 -239 183 162 -179 304 -179 306 43 272 176 -26 229 -110 255 -400z m-2917 -39 c-41 -160 -19 -244 61 -244 97 0 97 -32 -1 -150 -314 -378 -510 -52 -300 500 122 321 324 232 240 -106z m-47615 190 c-69 -28 -181 -28 -250 0 -69 28 -12 50 125 50 138 0 194 -22 125 -50z m5628 -713 c29 -399 6 -444 -336 -657 -431 -267 -1834 -837 -2273 -922 -344 -67 -1364 302 -1820 659 -151 117 -488 344 -749 504 -527 322 -586 460 -250 585 161 60 289 33 451 -93 124 -98 565 -301 978 -452 414 -151 776 -312 805 -360 102 -165 481 -82 1033 229 307 172 581 347 608 389 116 177 1066 603 1284 576 203 -25 242 -92 269 -458z m24876 304 c545 -1811 668 -2358 562 -2486 -167 -201 -294 -173 -611 130 -268 257 -280 259 -280 56 0 -221 -213 -431 -271 -268 -87 250 -222 356 -488 384 l-291 31 -28 1129 c-26 1004 -12 1115 124 1002 212 -176 453 -1037 460 -1646 6 -427 22 -469 103 -267 90 226 17 988 -167 1748 -54 222 -38 277 69 242 80 -27 166 -254 204 -538 35 -271 111 -604 168 -742 l104 -250 2 250 c1 138 -36 449 -83 693 -47 244 -63 503 -35 575 73 192 397 162 458 -43z m619 -398 c300 -655 430 -1367 268 -1467 -113 -70 -616 1415 -616 1820 0 334 62 272 348 -353z m3206 11 c362 -441 364 -448 246 -936 -136 -571 -341 -805 -529 -605 -95 100 -93 138 6 175 168 61 423 563 423 832 0 128 -78 235 -193 265 -114 30 -171 108 -140 189 67 175 -358 348 -681 278 l-236 -51 230 202 c290 256 422 203 874 -349z m15413 69 c78 -105 84 -196 17 -276 -142 -171 -368 -53 -542 284 -83 161 -193 265 -245 233 -52 -32 -70 7 -39 86 47 124 99 122 374 -13 175 -87 371 -228 435 -314z m-2667 193 c-122 -227 -300 -267 -300 -67 0 171 97 267 270 267 106 0 113 -45 30 -200z m-41102 -125 c-1 -182 -20 -196 -98 -75 -125 194 -125 300 0 300 55 0 99 -101 98 -225z m26302 -81 c0 -52 -67 -94 -150 -94 -155 0 -199 118 -86 231 80 80 236 -11 236 -137z m-416 -569 c115 -261 211 -416 213 -343 5 224 439 86 573 -182 107 -213 102 -255 -35 -285 -292 -63 -936 316 -994 585 -133 619 -140 700 -56 700 49 0 184 -214 299 -475z m17216 375 c0 -55 -93 -100 -206 -100 -113 0 -178 45 -144 100 34 55 127 100 206 100 79 0 144 -45 144 -100z m-11300 -207 c0 -290 -180 -593 -354 -593 -181 0 -181 23 -1 453 160 384 355 461 355 140z m14665 54 c37 -97 128 -131 247 -93 196 62 277 -187 97 -298 -108 -67 90 -732 763 -2556 537 -1456 861 -2641 1025 -3750 57 -385 154 -893 217 -1128 62 -235 89 -453 58 -483 -115 -116 -472 178 -473 390 -4 493 -805 4136 -1153 5240 -385 1218 -860 2450 -922 2388 -20 -19 120 -524 310 -1121 322 -1013 782 -2527 907 -2986 101 -370 559 -2942 556 -3122 -6 -350 -597 440 -597 799 -1 291 -79 817 -387 2585 -141 808 -333 1459 -386 1310 -25 -71 22 -453 104 -850 277 -1340 390 -2121 348 -2422 l-42 -300 -181 400 c-100 220 -225 693 -278 1050 -174 1175 -372 2136 -628 3050 -356 1275 -389 1450 -274 1450 56 0 129 -146 163 -325 73 -385 591 -1740 707 -1849 154 -145 -66 729 -355 1409 -328 773 -353 947 -147 1026 79 31 119 119 89 197 -30 78 -3 142 59 142 63 0 141 -69 173 -153z m-29170 -769 c-237 -400 -481 -796 -543 -878 -61 -82 -172 -330 -247 -550 -146 -429 -489 -950 -626 -950 -46 0 -4 140 93 310 464 811 728 1343 728 1468 0 339 845 1510 987 1368 22 -22 -154 -367 -392 -768z m10443 571 c409 -171 453 -335 162 -599 -239 -216 -260 -576 -45 -754 86 -71 142 -243 125 -385 -24 -204 -127 -292 -513 -435 -265 -98 -524 -153 -575 -121 -50 31 -92 249 -92 483 0 326 59 483 250 662 138 129 250 287 250 350 0 63 -112 221 -250 350 -310 291 -319 473 -25 529 124 24 253 50 288 57 34 8 226 -54 425 -137z m2102 -722 c188 -2216 190 -2421 15 -2878 -94 -246 -201 -466 -238 -488 -37 -23 -56 876 -42 1998 14 1122 25 2088 25 2146 0 59 39 83 87 53 47 -29 116 -403 153 -831z m-640 667 c0 -58 -45 -78 -100 -44 -55 34 -100 82 -100 106 0 24 45 44 100 44 55 0 100 -48 100 -106z m3296 -666 c2 -67 67 -98 144 -68 264 101 266 -155 7 -1531 -142 -758 -285 -1536 -317 -1729 -72 -435 -214 -722 -323 -654 -146 90 -20 902 536 3479 21 96 3 197 -40 223 -147 91 -542 -1865 -706 -3498 -132 -1312 -265 -1877 -428 -1824 -174 58 -205 453 -79 1023 60 276 178 929 261 1451 175 1102 305 1699 566 2593 124 424 154 676 89 741 -112 112 -108 125 -335 -884 -264 -1167 -445 -2116 -762 -3988 -166 -984 -326 -1813 -356 -1842 -29 -29 -87 -19 -128 22 -103 104 -56 1903 65 2457 182 838 225 1222 130 1163 -52 -32 -119 -250 -151 -485 -32 -235 -109 -719 -173 -1077 -63 -357 -127 -837 -144 -1066 -16 -229 -52 -454 -81 -500 -28 -46 -83 -342 -122 -658 -118 -947 -258 -544 -193 556 72 1228 94 1485 179 2068 122 841 -109 89 -384 -1250 -315 -1536 -434 -1950 -559 -1950 -121 0 -116 350 16 1231 217 1443 1631 5704 1956 5894 47 27 161 22 252 -13 149 -56 152 -103 30 -458 -75 -218 -118 -415 -95 -438 49 -49 158 203 460 1066 l221 632 230 -282 c127 -155 232 -337 234 -404z m-33046 39 c0 -261 -196 -245 -233 19 -23 162 8 222 100 192 73 -25 133 -120 133 -211z m-10633 58 c18 -41 206 -204 418 -363 417 -312 460 -309 1595 92 331 116 388 114 439 -17 32 -83 7 -201 -56 -264 -62 -62 -113 -186 -113 -275 0 -89 -112 -260 -250 -379 -137 -120 -250 -263 -250 -318 0 -56 -129 -101 -288 -101 -158 0 -344 -67 -412 -150 -326 -393 -1015 91 -1248 876 -191 642 -194 974 -10 974 78 0 156 -34 175 -75z m10083 -1023 c0 -1095 -1 -1096 -744 -1346 -474 -160 -503 -159 -762 33 -165 122 -353 177 -485 142 -129 -33 -289 11 -400 111 -101 91 -225 153 -274 137 -50 -16 -261 141 -469 349 -287 286 -372 445 -348 650 26 218 -13 278 -193 304 -161 23 -225 99 -225 269 0 130 39 261 86 290 47 29 463 -104 925 -297 l839 -350 829 319 c456 175 851 355 878 398 27 44 115 55 196 24 115 -44 147 -267 147 -1033z m46885 217 c507 -1689 697 -2819 473 -2819 -317 0 -647 841 -806 2048 -84 646 -180 1216 -212 1268 -32 51 -31 164 2 250 106 276 327 -29 543 -747z m-42703 553 c58 -70 106 -498 107 -950 2 -654 -28 -822 -143 -822 -81 0 -151 100 -158 225 -9 178 -21 187 -58 44 -101 -390 -281 -80 -310 536 -34 713 41 750 172 84 82 -419 87 -405 97 286 11 711 80 853 293 597z m1318 -179 c248 -50 548 -143 667 -205 160 -84 300 -84 536 -2 176 61 360 87 408 57 139 -86 105 -476 -62 -714 -157 -225 -683 -529 -914 -529 -73 0 -190 -90 -258 -200 -75 -120 -233 -200 -395 -200 -149 0 -298 -45 -332 -100 -88 -142 -406 -124 -534 31 -163 197 -249 1471 -122 1805 90 235 150 274 333 218 123 -38 426 -110 673 -161z m22096 -38 c102 -123 69 -137 -218 -90 -376 61 -510 -47 -618 -499 -58 -240 -13 -336 285 -618 195 -184 456 -352 580 -373 210 -37 212 -45 35 -124 -112 -50 -371 -36 -627 32 -240 65 -593 117 -784 117 -410 0 -460 202 -149 600 108 138 198 295 201 350 11 193 397 567 671 649 407 123 491 117 624 -44z m18594 -80 c283 -748 207 -1675 -136 -1675 -246 0 -473 311 -410 561 32 128 17 416 -33 639 -71 316 -58 438 56 553 213 212 425 181 523 -78z m-11839 -649 c-69 -643 -283 -1367 -466 -1571 -126 -141 -105 215 69 1159 188 1018 210 1086 355 1086 82 0 94 -192 42 -674z m-33958 -209 c5 -307 -30 -420 -118 -388 -69 25 -110 108 -91 184 19 75 37 338 41 583 9 578 158 242 168 -379z m35676 658 c111 -148 108 -2470 -4 -2651 -144 -233 -446 -141 -497 151 -66 378 -12 1903 81 2300 78 335 256 419 420 200z m9270 -33 c150 -390 0 -1415 -180 -1234 -90 90 -341 1277 -282 1336 115 115 404 51 462 -102z m-42501 -784 c-36 -304 -104 -529 -151 -500 -101 63 -117 947 -22 1195 128 335 241 -117 173 -695z m24643 756 c143 -91 260 -767 160 -929 -37 -59 -184 15 -352 176 -477 456 -319 1077 192 753z m7276 -868 c-62 -1063 -134 -1446 -271 -1446 -199 0 -210 367 -39 1288 98 529 198 996 222 1037 118 206 139 -7 88 -879z m578 -404 c-24 -1290 -88 -1520 -390 -1404 -123 47 -152 137 -109 338 33 151 89 702 125 1224 62 886 167 1256 330 1156 37 -23 57 -614 44 -1314z m1543 168 c24 -959 2 -1166 -142 -1326 -94 -104 -213 -175 -263 -158 -132 44 -174 2394 -46 2553 58 71 176 116 264 99 132 -25 164 -222 187 -1168z m637 132 c66 -1000 0 -1342 -260 -1342 -108 0 -138 238 -143 1114 -6 1150 24 1324 222 1258 71 -23 141 -420 181 -1030z m526 883 c30 -96 99 -490 154 -875 87 -611 79 -716 -67 -825 -91 -69 -195 -125 -231 -125 -111 0 -271 1538 -184 1775 98 269 253 292 328 50z m6542 -100 c245 -626 326 -1121 217 -1325 -59 -110 -139 -200 -179 -200 -145 0 -562 1450 -478 1667 86 225 327 148 440 -142z m-41167 -50 c39 -564 -100 -975 -328 -975 -102 0 -121 1034 -21 1133 142 143 334 56 349 -158z m39553 -183 c140 -400 170 -1456 44 -1534 -47 -29 -141 294 -208 719 -66 425 -146 880 -177 1011 -89 376 200 210 341 -196z m835 208 c40 -82 188 -494 327 -914 228 -688 238 -785 105 -975 -168 -240 -406 -266 -661 -72 -123 94 -176 277 -179 622 -3 269 -44 691 -91 938 -48 247 -64 486 -37 531 79 127 453 37 536 -130z m5129 -550 c139 -275 395 -1062 568 -1750 174 -687 429 -1565 567 -1950 393 -1095 389 -1050 94 -1050 -240 0 -262 35 -262 407 0 411 -303 1802 -554 2543 -316 935 -570 1607 -641 1700 -115 150 -227 813 -117 697 50 -53 205 -322 345 -597z m-20058 -225 c21 -62 -133 -159 -341 -217 -507 -140 -675 31 -223 227 373 162 507 160 564 -10z m9825 -447 c0 -101 62 -208 137 -237 190 -73 502 -795 428 -988 -41 -108 -134 -139 -294 -99 -174 43 -326 -27 -602 -280 -442 -405 -472 -636 -92 -719 443 -97 709 -955 296 -955 -73 0 -191 56 -263 125 -105 101 -122 87 -93 -75 24 -134 116 -201 277 -202 330 -3 348 -131 113 -828 -112 -331 -250 -1020 -308 -1531 -58 -511 -129 -952 -158 -981 -84 -84 -3164 -25 -3252 63 -43 43 -37 259 14 479 138 599 114 1761 -63 3050 -87 633 -182 1323 -211 1535 -51 375 -46 381 178 261 305 -163 1722 -57 2019 151 120 84 295 153 389 153 93 0 303 113 467 250 163 138 368 250 454 250 237 0 390 375 321 786 -57 340 -51 351 91 170 83 -107 152 -277 152 -378z m-9500 272 c0 -82 -67 -150 -150 -150 -156 0 -198 118 -83 233 115 115 233 73 233 -83z m-17273 -625 c-99 -261 -1027 -1860 -1146 -1975 -126 -122 -42 222 195 800 204 498 824 1336 996 1348 12 1 -8 -77 -45 -173z m358 -979 c-262 -384 -458 -471 -273 -121 253 478 430 699 468 584 22 -65 -66 -273 -195 -463z m26795 -578 c158 -436 152 -535 -38 -607 -127 -49 -152 5 -128 284 17 189 -2 377 -42 416 -96 97 -92 239 8 239 44 0 134 -149 200 -332z m-19268 -938 c-114 -1015 -94 -1906 74 -3280 54 -440 90 -805 81 -811 -9 -5 -165 -38 -346 -73 -243 -46 -344 -23 -387 89 -50 131 -74 129 -181 -17 -67 -93 -174 -137 -238 -97 -141 87 -154 559 -15 559 55 0 100 -45 100 -100 0 -55 73 -100 163 -100 126 0 149 65 102 298 -74 371 200 2794 385 3402 75 248 165 623 200 835 125 764 170 254 62 -705z m18888 920 c0 -83 -89 -150 -200 -150 -111 0 -200 67 -200 150 0 83 89 150 200 150 111 0 200 -67 200 -150z m-27563 -930 c-145 -217 -187 -237 -215 -101 -19 93 47 293 146 445 149 226 187 244 215 101 18 -96 -47 -296 -146 -445z m32663 488 c0 -161 -119 -408 -197 -408 -41 0 -54 113 -27 250 44 234 224 360 224 158z m-4056 -401 c115 -127 151 -266 105 -410 -81 -255 -180 -172 -330 278 -122 367 -34 418 225 132z m1356 -57 c0 -83 -89 -150 -200 -150 -199 0 -260 107 -133 233 121 122 333 69 333 -83z m-600 -244 c0 -252 -161 -351 -240 -147 -95 249 -71 341 90 341 83 0 150 -87 150 -194z m961 -48 c79 -206 -138 -560 -305 -497 -202 78 -278 341 -145 502 148 178 381 175 450 -5z m-2011 -158 c44 -140 151 -200 357 -200 245 0 293 -41 293 -246 0 -135 83 -327 185 -425 341 -329 404 -726 259 -1628 -73 -458 -192 -884 -263 -947 -88 -76 -414 -96 -981 -59 l-850 55 29 550 c37 704 194 1547 377 2027 79 207 144 504 144 658 0 444 328 601 450 215z m3748 75 c0 -69 -45 -192 -100 -275 -83 -128 -111 -129 -189 -9 -50 77 -67 201 -39 275 65 169 331 177 328 9z m-498 -333 c0 -314 -235 -279 -282 41 -21 144 21 217 125 217 102 0 157 -90 157 -258z m618 36 c-71 -71 -118 -77 -118 -15 0 134 118 252 185 185 28 -28 -2 -105 -67 -170z m-32883 -131 c-50 -130 -235 -213 -235 -105 0 148 135 348 206 304 47 -29 60 -118 29 -199z m401 103 c-31 -82 -96 -150 -144 -150 -47 0 -60 68 -28 150 31 83 96 150 144 150 47 0 60 -67 28 -150z m31264 11 c0 -77 -67 -166 -150 -197 -196 -76 -190 -215 22 -463 229 -267 412 -253 732 53 229 220 282 234 388 106 182 -220 233 -1522 86 -2210 l-128 -600 -619 -88 c-931 -133 -931 -133 -931 1027 0 761 41 1068 175 1308 172 308 171 317 -63 510 l-238 196 268 249 c301 278 458 316 458 109z m-1269 -99 c61 -158 -109 -362 -301 -362 -163 0 -169 221 -10 380 157 157 246 152 311 -18z m1619 -363 c0 -215 -291 -184 -333 35 -25 134 15 174 149 149 101 -20 184 -103 184 -184z m-31963 -308 c-136 -407 -348 -669 -235 -291 142 475 254 728 301 680 26 -26 -3 -201 -66 -389z m30613 209 c0 -256 -62 -256 -129 0 -29 110 -11 200 38 200 50 0 91 -90 91 -200z m-100 -562 c0 -82 -45 -122 -100 -88 -55 34 -100 129 -100 212 0 82 45 122 100 88 55 -34 100 -129 100 -212z m300 -1382 c0 -675 -18 -737 -225 -793 -471 -126 -498 -97 -423 450 75 548 408 1223 558 1131 49 -31 90 -385 90 -788z m-31309 -72 c-79 -148 -140 -186 -167 -105 -44 131 170 460 248 382 24 -24 -12 -149 -81 -277z m15809 -604 c0 -162 -30 -190 -111 -109 -61 61 -81 160 -44 220 103 168 155 130 155 -111z"/>
<path d="M54946 19193 c-24 -38 97 -97 268 -131 432 -86 607 -78 543 27 -68 110 -753 198 -811 104z"/>
<path d="M52157 19089 c57 -93 1323 -42 1422 57 26 26 -297 45 -717 43 -463 -2 -741 -42 -705 -100z"/>
<path d="M53762 19098 c67 -67 238 -70 495 -10 l393 92 -495 10 c-337 7 -462 -23 -393 -92z"/>
<path d="M52300 18500 c0 -55 93 -100 206 -100 113 0 178 45 144 100 -34 55 -127 100 -206 100 -79 0 -144 -45 -144 -100z"/>
<path d="M52850 18500 c-35 -57 51 -100 200 -100 149 0 235 43 200 100 -34 55 -124 100 -200 100 -76 0 -166 -45 -200 -100z"/>
<path d="M51054 17994 c62 -100 546 -181 546 -91 0 41 -133 94 -295 118 -162 23 -275 11 -251 -27z"/>
<path d="M50470 17390 c79 -79 163 -80 295 -3 162 94 149 107 -110 110 -215 2 -265 -27 -185 -107z"/>
<path d="M45925 18697 c-238 -96 -291 -244 -125 -347 55 -34 100 -12 100 49 0 61 146 174 325 252 367 159 89 202 -300 46z"/>
<path d="M42300 18600 c-133 -86 -133 -97 0 -100 83 -1 330 -27 550 -58 376 -53 388 -47 206 101 -219 177 -533 201 -756 57z"/>
<path d="M43900 18500 c-114 -74 -72 -97 175 -98 179 -1 325 43 325 98 0 127 -303 127 -500 0z"/>
<path d="M45350 18422 c-191 -41 -830 -519 -1289 -963 -119 -115 -361 -317 -538 -449 -344 -256 -412 -410 -182 -410 78 0 255 135 394 300 138 165 277 300 306 300 30 0 238 199 462 442 445 483 1072 800 952 481 -62 -163 -56 -163 110 1 205 202 88 364 -215 298z"/>
<path d="M46344 18153 c-107 -81 -149 -147 -94 -147 55 0 187 66 294 147 107 81 149 147 94 147 -55 0 -187 -66 -294 -147z"/>
<path d="M45050 17891 c-55 -55 -190 -163 -300 -242 -110 -78 -155 -144 -100 -145 55 -2 235 108 400 243 165 135 255 245 200 244 -55 0 -145 -46 -200 -100z"/>
<path d="M40727 17840 c33 -34 120 -37 192 -8 80 32 56 55 -61 60 -105 4 -164 -19 -131 -52z"/>
<path d="M45477 17494 l-327 -305 307 149 c344 166 636 462 457 462 -61 0 -258 -138 -437 -306z"/>
<path d="M40111 16992 c-603 -119 -670 -234 -87 -149 355 52 531 30 698 -87 248 -174 1045 -208 1278 -54 242 159 -63 295 -667 296 -284 1 -577 19 -650 41 -73 21 -330 0 -572 -47z"/>
<path d="M44331 16492 c-561 -490 -816 -792 -671 -792 86 0 1042 879 1221 1122 219 298 58 202 -550 -330z"/>
<path d="M40351 16102 c-35 -56 7 -102 93 -102 176 0 202 60 63 146 -51 31 -121 12 -156 -44z"/>
<path d="M42461 15915 l-190 -265 234 222 c129 122 214 242 189 265 -24 24 -129 -76 -233 -222z"/>
<path d="M44486 15703 c-130 -108 -187 -198 -126 -200 60 -2 190 87 290 197 232 256 141 258 -164 3z"/>
<path d="M51000 15536 c-247 -85 -517 -221 -600 -302 -103 -101 24 -78 400 71 303 121 663 255 800 298 201 64 211 81 50 84 -110 2 -402 -66 -650 -151z"/>
<path d="M42270 15150 c-357 -368 -529 -449 -436 -205 106 277 -213 46 -490 -354 -150 -217 -469 -590 -709 -829 -239 -240 -435 -513 -435 -607 0 -125 68 -89 259 137 142 170 317 308 388 308 162 0 361 235 395 468 15 97 122 201 239 230 116 28 442 311 723 627 562 631 605 781 66 225z m-493 -469 c-22 -65 -93 -136 -158 -158 -73 -24 -96 21 -58 119 69 181 276 219 216 39z"/>
<path d="M42868 15089 c-395 -430 -279 -463 133 -38 186 192 296 348 244 347 -52 -1 -222 -140 -377 -309z"/>
<path d="M43856 15229 c-54 -142 -42 -154 56 -56 69 68 99 149 69 180 -31 30 -87 -25 -125 -124z"/>
<path d="M49945 14987 c-113 -55 -261 -189 -329 -299 -112 -178 -106 -190 56 -103 167 89 610 524 518 508 -22 -3 -132 -51 -245 -106z"/>
<path d="M39800 14609 c0 -102 256 -87 364 21 38 39 -28 70 -147 70 -119 0 -217 -41 -217 -91z"/>
<path d="M42249 14399 c-99 -110 -162 -219 -139 -242 23 -24 140 67 259 200 119 134 181 243 139 243 -42 0 -159 -90 -259 -201z"/>
<path d="M51116 14246 c-139 -307 -143 -346 -27 -346 92 0 251 493 182 562 -21 21 -91 -76 -155 -216z"/>
<path d="M42861 14242 c-94 -245 -74 -269 89 -106 170 170 192 264 61 264 -49 0 -117 -71 -150 -158z"/>
<path d="M39650 14000 l-600 -66 625 -17 c361 -10 625 25 625 83 0 55 -11 92 -25 83 -14 -9 -295 -46 -625 -83z"/>
<path d="M42300 14000 c0 -55 20 -100 44 -100 24 0 72 45 106 100 34 55 14 100 -44 100 -58 0 -106 -45 -106 -100z"/>
<path d="M22027 13840 c33 -34 120 -37 192 -8 80 32 56 55 -61 60 -105 4 -164 -19 -131 -52z"/>
<path d="M22700 13800 c194 -125 300 -125 300 0 0 55 -101 99 -225 98 -182 -1 -196 -20 -75 -98z"/>
<path d="M42246 13493 c-36 -58 -45 -128 -18 -154 26 -26 74 22 107 107 67 176 9 207 -89 47z"/>
<path d="M36926 13292 c96 -57 215 -78 264 -48 49 30 241 -9 427 -87 358 -149 1535 -238 1649 -124 37 37 -199 68 -524 70 -361 2 -668 61 -786 150 -113 86 -406 146 -700 144 -394 -2 -467 -26 -330 -105z"/>
<path d="M21400 13200 c0 -55 45 -100 100 -100 55 0 100 45 100 100 0 55 -45 100 -100 100 -55 0 -100 -45 -100 -100z"/>
<path d="M22024 13231 c95 -25 275 -26 400 -2 124 24 46 45 -174 46 -220 1 -322 -19 -226 -44z"/>
<path d="M41546 13193 c-36 -58 -42 -130 -13 -160 72 -71 267 55 267 173 0 128 -173 119 -254 -13z"/>
<path d="M41050 12600 c-34 -55 -14 -100 44 -100 58 0 106 45 106 100 0 55 -20 100 -44 100 -24 0 -72 -45 -106 -100z"/>
<path d="M37600 12500 c196 -127 328 -127 250 0 -34 55 -138 99 -231 98 -146 -1 -148 -14 -19 -98z"/>
<path d="M51809 12317 c-133 -249 -139 -348 -17 -272 51 32 112 -22 134 -119 31 -131 62 -104 121 106 101 363 -80 580 -238 285z"/>
<path d="M22024 11975 c-56 -69 -132 -271 -170 -450 -49 -229 -141 -343 -308 -385 -131 -33 -290 -123 -354 -200 -95 -114 -68 -140 142 -140 142 0 316 -72 387 -159 71 -88 230 -262 354 -387 124 -125 225 -278 225 -340 0 -63 45 -114 100 -114 55 0 100 147 100 328 0 410 218 730 555 814 290 73 282 289 -13 343 -253 47 -544 310 -651 590 -97 252 -218 285 -367 100z m344 -350 c34 -96 124 -247 200 -336 118 -138 103 -220 -104 -584 -252 -443 -261 -442 -544 92 -90 170 -101 309 -34 450 53 111 121 282 152 378 31 96 104 175 162 175 58 0 134 -79 168 -175z"/>
<path d="M51760 11440 c-36 -93 -42 -191 -15 -219 28 -27 79 26 115 119 36 93 42 191 15 219 -28 27 -79 -26 -115 -119z"/>
<path d="M55772 10955 c-233 -489 -214 -576 39 -182 113 178 190 373 170 433 -20 61 -114 -53 -209 -251z"/>
<path d="M29087 10914 c-144 -145 -293 -433 -330 -640 -40 -229 -155 -434 -293 -524 -125 -82 -328 -408 -452 -724 -124 -317 -268 -654 -319 -750 -134 -250 -115 -376 57 -376 213 0 186 -237 -51 -451 -175 -158 -499 -695 -499 -826 0 -25 113 28 250 118 472 309 293 -158 -305 -798 -306 -326 -610 -657 -675 -736 -279 -333 214 60 581 464 444 488 611 472 398 -39 -207 -494 -187 -529 103 -182 137 165 244 255 237 200 -28 -220 16 -359 98 -308 111 68 197 740 261 2042 40 803 109 1171 309 1650 141 339 303 774 359 966 56 193 210 453 343 579 132 126 241 317 241 425 0 235 14 239 -313 -90z m-1089 -2739 c-1 -176 -21 -193 -93 -80 -50 80 -70 181 -42 225 86 141 137 86 135 -145z m-138 -1148 c-101 -102 -185 51 -102 186 63 102 87 102 121 1 23 -70 15 -154 -19 -187z"/>
<path d="M57200 10550 c-66 -200 -97 -386 -70 -413 28 -28 104 113 170 313 66 200 97 386 70 413 -28 28 -104 -113 -170 -313z"/>
<path d="M57612 10833 c-7 -64 -41 -199 -77 -300 -50 -142 -37 -157 60 -69 68 63 102 198 76 300 -26 102 -53 133 -59 69z"/>
<path d="M28300 10400 c0 -220 18 -400 39 -400 22 0 57 180 78 400 21 220 3 400 -39 400 -43 0 -78 -180 -78 -400z"/>
<path d="M30689 10792 c-5 -23 -20 -717 -33 -1542 -14 -929 10 -1386 61 -1200 93 336 126 2641 39 2728 -31 30 -61 37 -67 14z"/>
<path d="M52600 10656 c0 -86 45 -156 100 -156 55 0 100 42 100 94 0 52 -45 122 -100 156 -55 34 -100 -8 -100 -94z"/>
<path d="M54319 10550 c-2 -165 19 -245 47 -177 27 68 29 203 3 300 -25 97 -47 42 -50 -123z"/>
<path d="M27869 10625 c-24 -41 -75 -412 -114 -825 -45 -470 -146 -871 -271 -1075 -161 -261 -172 -325 -54 -325 238 0 449 591 525 1475 64 743 38 967 -86 750z"/>
<path d="M31266 10227 c-34 -205 -17 -416 37 -470 63 -63 97 68 97 373 0 566 -52 604 -134 97z"/>
<path d="M36250 10494 c-220 -45 -574 -85 -786 -88 -309 -5 -373 -37 -325 -164 34 -87 61 -203 61 -257 0 -54 124 -84 275 -67 151 18 275 90 275 161 0 178 249 318 569 319 148 1 297 47 331 102 34 55 48 95 31 89 -17 -7 -211 -49 -431 -95z"/>
<path d="M51619 10250 c-2 -165 19 -245 47 -177 27 68 29 203 3 300 -25 97 -47 42 -50 -123z"/>
<path d="M33800 10113 c0 -156 962 -345 1169 -228 150 84 156 110 31 150 -339 110 -1200 166 -1200 78z"/>
<path d="M54408 9900 c-2 -572 610 -1912 994 -2175 437 -300 536 -287 974 132 211 201 283 312 166 255 -115 -55 -267 -171 -337 -257 -184 -220 -436 -192 -731 81 -325 302 -550 736 -837 1614 -195 598 -228 649 -229 350z"/>
<path d="M35900 10000 c0 -55 45 -100 100 -100 55 0 100 45 100 100 0 55 -45 100 -100 100 -55 0 -100 -45 -100 -100z"/>
<path d="M57408 9958 c-4 -105 19 -164 52 -131 34 33 37 120 8 192 -32 80 -55 56 -60 -61z"/>
<path d="M30200 9756 c0 -176 60 -202 146 -63 31 51 12 121 -44 156 -56 35 -102 -7 -102 -93z"/>
<path d="M49219 9650 c-2 -165 19 -245 47 -177 27 68 29 203 3 300 -25 97 -47 42 -50 -123z"/>
<path d="M56918 9778 c-140 -140 -154 -278 -29 -278 92 0 243 302 182 363 -19 18 -88 -20 -153 -85z"/>
<path d="M41000 9695 c-113 -79 -31 -98 325 -75 342 23 475 -5 475 -100 0 -93 125 -122 425 -101 297 22 425 76 425 181 0 118 -161 156 -750 176 -412 14 -817 -22 -900 -81z"/>
<path d="M31161 9013 c-39 -295 -50 -558 -23 -584 66 -67 192 830 139 990 -24 72 -76 -111 -116 -406z"/>
<path d="M50002 9131 c2 -512 135 -717 370 -570 98 61 191 196 207 300 27 177 21 178 -81 12 -149 -239 -298 -126 -298 227 0 159 -45 316 -100 350 -60 37 -99 -90 -98 -319z"/>
<path d="M57104 9225 c-283 -604 -404 -925 -350 -925 73 0 567 1112 516 1163 -20 21 -95 -86 -166 -238z"/>
<path d="M49250 8450 c44 -821 354 -2890 502 -3358 107 -336 280 -222 200 133 -40 179 -114 505 -164 725 -50 220 -158 934 -240 1587 -203 1620 -363 2112 -298 913z"/>
<path d="M29900 8800 c0 -55 20 -100 44 -100 24 0 72 45 106 100 34 55 14 100 -44 100 -58 0 -106 -45 -106 -100z"/>
<path d="M29325 7405 c-87 -926 -178 -1340 -414 -1895 -166 -390 -257 -710 -203 -710 152 0 467 813 628 1623 202 1013 295 2046 189 2112 -49 30 -139 -479 -200 -1130z"/>
<path d="M30208 8358 c-4 -105 19 -164 52 -131 34 33 37 120 8 192 -32 80 -55 56 -60 -61z"/>
<path d="M43100 8400 c0 -56 250 -95 575 -88 473 10 522 25 275 88 -446 113 -850 113 -850 0z"/>
<path d="M44400 8398 c-106 -70 49 -95 528 -84 373 8 702 54 731 101 74 119 -1076 104 -1259 -17z"/>
<path d="M55750 8400 c-34 -55 31 -100 144 -100 113 0 206 45 206 100 0 55 -65 100 -144 100 -79 0 -172 -45 -206 -100z"/>
<path d="M39827 8340 c33 -34 120 -37 192 -8 80 32 56 55 -61 60 -105 4 -164 -19 -131 -52z"/>
<path d="M41134 8281 c201 -73 316 -71 395 8 81 81 6 109 -284 103 -391 -8 -392 -9 -111 -111z"/>
<path d="M19550 8233 c-945 -76 -1463 -154 -1406 -211 146 -145 5050 -158 5201 -13 58 55 -119 92 -450 95 -1524 10 -2661 52 -2795 104 -82 31 -330 43 -550 25z"/>
<path d="M30902 7705 c-99 -468 -155 -591 -207 -450 -57 157 -85 121 -144 -181 -41 -207 -50 -468 -21 -580 30 -111 -10 -325 -88 -473 -161 -310 -190 -980 -45 -1069 94 -58 140 73 241 698 26 165 144 745 260 1289 117 543 196 1083 176 1200 -20 118 -96 -73 -172 -434z"/>
<path d="M33604 8202 c-81 -50 76 -97 407 -122 297 -23 558 -28 581 -11 180 134 -777 264 -988 133z"/>
<path d="M35850 8200 c-34 -55 8 -100 94 -100 86 0 156 45 156 100 0 55 -42 100 -94 100 -52 0 -122 -45 -156 -100z"/>
<path d="M34900 8100 c0 -55 132 -100 294 -100 162 0 322 45 356 100 37 60 -82 100 -294 100 -196 0 -356 -45 -356 -100z"/>
<path d="M29800 7706 c0 -168 17 -306 38 -306 85 0 129 509 49 558 -48 30 -87 -84 -87 -252z"/>
<path d="M42352 7674 c-22 -68 -55 -214 -72 -323 -22 -132 -133 -217 -330 -251 -422 -73 -473 -400 -63 -400 339 0 613 -301 613 -672 0 -136 61 -228 150 -228 99 0 150 99 150 293 0 299 382 707 663 707 230 0 152 284 -87 318 -131 19 -288 158 -375 332 -157 311 -573 455 -649 224z m646 -795 c1 -40 -86 -119 -194 -177 -271 -145 -466 195 -295 514 l116 217 185 -242 c102 -132 187 -273 188 -312z"/>
<path d="M30118 7275 c-10 -151 -10 -286 -1 -300 9 -14 -46 -137 -124 -275 -77 -137 -194 -497 -260 -800 -66 -302 -151 -674 -188 -825 -44 -176 -28 -275 43 -275 62 0 114 101 116 225 7 348 234 1129 378 1303 82 99 116 350 92 689 -20 293 -45 409 -56 258z"/>
<path d="M34425 7128 c-179 -23 -325 -88 -325 -147 0 -65 119 -82 313 -43 171 34 374 62 450 62 75 0 137 45 137 100 0 55 -56 93 -125 84 -69 -9 -271 -34 -450 -56z"/>
<path d="M33575 6934 c69 -28 181 -28 250 0 69 28 13 50 -125 50 -137 0 -194 -22 -125 -50z"/>
<path d="M25050 6523 c-55 -40 -167 -161 -250 -268 -146 -191 -144 -191 97 -25 136 93 398 170 581 170 197 0 308 41 272 100 -71 116 -553 132 -700 23z"/>
<path d="M26800 6402 c-82 -47 -298 -140 -478 -207 -181 -67 -313 -137 -295 -156 63 -63 731 158 928 307 208 158 95 199 -155 56z"/>
<path d="M25010 5647 c-170 -195 -310 -408 -310 -474 0 -66 114 49 254 254 163 240 332 374 475 375 121 0 289 45 371 98 114 74 75 97 -165 98 -236 2 -392 -86 -625 -351z"/>
<path d="M17582 5189 c-72 -45 498 -55 1268 -22 770 33 1421 79 1447 102 91 81 -2583 1 -2715 -80z"/>
<path d="M20675 5234 c69 -28 181 -28 250 0 69 28 13 50 -125 50 -137 0 -194 -22 -125 -50z"/>
<path d="M39550 5000 c-70 -113 156 -113 600 0 283 72 277 77 -119 88 -231 7 -447 -33 -481 -88z"/>
<path d="M33473 4934 c68 -27 203 -29 300 -3 97 25 42 47 -123 50 -165 2 -245 -19 -177 -47z"/>
<path d="M38927 4940 c33 -34 120 -37 192 -8 80 32 56 55 -61 60 -105 4 -164 -19 -131 -52z"/>
<path d="M44827 4940 c33 -34 120 -37 192 -8 80 32 56 55 -61 60 -105 4 -164 -19 -131 -52z"/>
<path d="M18567 18025 c-102 -172 -174 -909 -94 -958 183 -113 354 110 288 374 -36 145 -18 352 40 461 83 156 75 198 -42 198 -81 0 -167 -34 -192 -75z"/>
<path d="M24667 17433 c-129 -128 -67 -327 83 -269 83 31 150 120 150 197 0 147 -121 184 -233 72z"/>
<path d="M24850 16800 c-177 -76 -169 -87 75 -93 151 -4 275 38 275 93 0 117 -77 117 -350 0z"/>
<path d="M25451 16802 c-35 -56 7 -102 93 -102 176 0 202 60 63 146 -51 31 -121 12 -156 -44z"/>
<path d="M73400 17754 c0 -37 47 -154 104 -261 71 -134 70 -254 -4 -393 -118 -220 -9 -269 180 -80 110 110 175 680 78 680 -23 0 -113 27 -200 61 -87 33 -158 30 -158 -7z"/>
<path d="M71839 17042 c34 -87 62 -211 64 -275 2 -64 49 -38 105 59 110 188 48 374 -125 374 -57 0 -77 -71 -44 -158z"/>
<path d="M71138 16380 c-76 -123 -36 -154 253 -195 132 -19 258 16 279 78 47 137 -452 247 -532 117z"/>
<path d="M68243 17089 c-38 -61 -26 -140 26 -175 53 -35 126 -146 163 -247 102 -276 314 -145 349 216 28 280 2 317 -219 317 -138 0 -281 -50 -319 -111z"/>
<path d="M67500 14400 c0 -55 113 -100 250 -100 138 0 250 45 250 100 0 55 -112 100 -250 100 -137 0 -250 -45 -250 -100z"/>
<path d="M69050 14200 c34 -55 104 -100 156 -100 52 0 94 45 94 100 0 55 -70 100 -156 100 -86 0 -128 -45 -94 -100z"/>
<path d="M69400 10000 c0 -55 90 -100 200 -100 110 0 200 45 200 100 0 55 -90 100 -200 100 -110 0 -200 -45 -200 -100z"/>
<path d="M15700 17757 c0 -92 85 -157 208 -157 244 0 210 234 -41 282 -99 19 -167 -32 -167 -125z"/>
<path d="M53219 13550 c-2 -165 19 -245 47 -177 27 68 29 203 3 300 -25 97 -47 42 -50 -123z"/>
<path d="M60146 13193 c-36 -58 -45 -128 -18 -154 26 -26 74 22 107 107 67 176 9 207 -89 47z"/>
<path d="M59782 12267 c-37 -182 -23 -248 40 -185 53 53 79 180 57 282 -29 138 -54 113 -97 -97z"/>
<path d="M60147 12128 c-34 -208 -104 -509 -155 -669 -130 -408 -41 -440 106 -39 205 556 285 978 197 1033 -47 29 -113 -117 -148 -325z"/>
<path d="M59550 11600 c-38 -118 -46 -238 -18 -265 27 -28 80 47 118 165 38 118 46 238 18 265 -27 28 -80 -47 -118 -165z"/>
<path d="M59408 11058 c-4 -105 19 -164 52 -131 34 33 37 120 8 192 -32 80 -55 56 -60 -61z"/>
<path d="M78588 18992 c-179 -46 -99 -80 319 -136 799 -107 1181 -31 481 96 -308 56 -668 74 -800 40z"/>
<path d="M60650 18900 c34 -55 152 -100 262 -100 110 0 172 45 138 100 -34 55 -152 100 -262 100 -110 0 -172 -45 -138 -100z"/>
<path d="M61450 18900 c34 -55 205 -97 381 -93 269 6 288 21 119 93 -279 120 -574 120 -500 0z"/>
<path d="M3100 18800 c0 -55 68 -100 150 -100 83 0 150 45 150 100 0 55 -67 100 -150 100 -82 0 -150 -45 -150 -100z"/>
<path d="M66473 18834 c68 -27 203 -29 300 -3 97 25 42 47 -123 50 -165 2 -245 -19 -177 -47z"/>
<path d="M77373 18834 c68 -27 203 -29 300 -3 97 25 42 47 -123 50 -165 2 -245 -19 -177 -47z"/>
<path d="M4144 18720 c-113 -39 -330 -169 -481 -289 -229 -183 -258 -253 -170 -418 59 -109 76 -281 38 -381 -60 -160 -48 -166 100 -45 93 76 169 214 169 308 0 180 205 309 829 520 299 101 420 102 574 7 107 -67 285 -122 396 -122 224 0 252 -118 97 -407 -73 -136 -71 -193 7 -193 65 0 97 -151 78 -375 -28 -339 -59 -375 -321 -379 -207 -3 -363 -98 -543 -331 l-252 -328 267 67 c181 46 268 28 268 -54 0 -67 66 -96 147 -65 191 73 453 -300 453 -646 0 -358 775 -1889 956 -1889 187 0 187 262 -1 334 -212 82 -655 1081 -655 1479 0 237 -92 453 -296 691 -163 190 -298 381 -300 424 -2 42 236 69 528 60 293 -10 619 31 725 90 156 88 98 105 -307 90 -449 -16 -497 2 -467 182 18 110 48 380 66 600 18 220 65 524 104 675 51 199 32 278 -66 286 -76 5 -317 22 -537 36 -220 14 -580 52 -800 84 -220 33 -493 27 -606 -11z"/>
<path d="M13924 18731 c95 -25 275 -26 400 -2 124 24 46 45 -174 46 -220 1 -322 -19 -226 -44z"/>
<path d="M227 18603 c-208 -88 -223 -155 -211 -924 11 -680 50 -869 216 -1054 112 -124 280 -225 373 -225 215 0 348 -167 439 -550 39 -165 142 -378 227 -473 86 -94 236 -409 335 -700 l180 -527 7 528 c5 382 -35 544 -143 586 -82 31 -150 120 -150 197 0 76 68 139 150 139 83 0 150 45 150 100 0 135 -134 126 -278 -18 -114 -114 -205 35 -454 743 -35 100 -163 175 -299 175 -237 0 -569 273 -569 467 0 56 90 183 199 282 198 179 198 181 -50 411 -427 396 -250 619 395 498 276 -52 351 -118 383 -336 40 -271 40 -271 119 55 97 398 184 458 645 442 252 -9 426 -90 584 -272 257 -295 197 -509 -252 -895 -257 -221 -240 -452 33 -452 211 0 176 -160 -81 -368 -124 -101 -287 -262 -362 -358 -122 -154 -113 -174 77 -174 137 0 249 90 310 250 111 293 275 320 461 75 123 -162 133 -158 136 50 3 251 179 304 265 80 31 -80 214 -239 407 -353 193 -114 374 -294 402 -401 28 -107 129 -219 225 -250 229 -73 405 -474 332 -757 -44 -165 -26 -204 66 -148 78 49 104 187 69 362 -36 182 -4 337 90 431 180 180 184 228 21 228 -179 0 -881 463 -1162 766 -321 347 -218 539 331 621 585 88 505 238 -91 171 -372 -42 -452 -22 -452 112 0 231 -208 203 -271 -37 -34 -130 -136 -200 -294 -200 -363 0 -408 276 -93 568 379 352 323 728 -142 946 -417 195 -1957 323 -2273 189z"/>
<path d="M7527 18640 c33 -34 120 -37 192 -8 80 32 56 55 -61 60 -105 4 -164 -19 -131 -52z"/>
<path d="M70600 18156 c0 -106 192 -150 249 -58 35 56 -7 102 -93 102 -86 0 -156 -20 -156 -44z"/>
<path d="M76573 18134 c68 -27 203 -29 300 -3 97 25 42 47 -123 50 -165 2 -245 -19 -177 -47z"/>
<path d="M7260 17684 c-192 -274 -216 -719 -35 -659 109 36 302 773 225 856 -16 18 -102 -71 -190 -197z"/>
<path d="M5298 17648 c-106 -128 -99 -142 38 -90 90 35 164 104 164 153 0 128 -58 110 -202 -63z"/>
<path d="M802 17601 c-124 -76 -112 -127 76 -327 122 -130 222 -290 222 -355 0 -66 48 -119 107 -119 113 0 51 288 -145 671 -82 160 -154 196 -260 130z"/>
<path d="M4667 17433 c-112 -111 -75 -233 71 -233 76 0 194 68 262 150 103 125 91 150 -71 150 -108 0 -226 -30 -262 -67z"/>
<path d="M11356 17075 c-20 -69 -62 -204 -93 -300 -119 -368 233 -129 368 250 42 117 13 175 -87 175 -83 0 -167 -56 -188 -125z"/>
<path d="M10328 16188 c-62 -62 -89 -174 -60 -248 68 -178 432 3 432 214 0 173 -213 193 -372 34z"/>
<path d="M0 15977 c0 -53 86 -118 192 -146 105 -27 214 -147 242 -265 94 -396 176 -1109 199 -1739 21 -558 59 -659 365 -975 374 -386 825 -472 984 -188 127 228 318 80 316 -245 -2 -373 -133 -544 -416 -544 -302 0 -1353 482 -1667 764 l-234 211 34 -240 c44 -305 1010 -816 1675 -887 253 -27 516 -94 585 -148 145 -115 146 -104 163 1125 7 492 54 850 112 850 58 0 94 -282 86 -675 -17 -795 109 -895 206 -163 38 282 139 583 225 669 122 122 141 269 87 663 -38 278 -101 808 -140 1176 -84 796 -214 1007 -214 348 0 -562 -520 -2240 -808 -2605 -460 -586 -954 -156 -1089 947 -114 938 -277 1867 -347 1980 -77 125 -556 200 -556 87z m3020 -2027 c17 -220 -15 -422 -70 -450 -59 -29 -113 176 -131 500 -36 642 154 595 201 -50z"/>
<path d="M8552 15625 c-413 -412 -624 -1085 -302 -961 118 45 150 -26 148 -328 -1 -285 -80 -475 -300 -725 -164 -186 -296 -366 -294 -400 2 -33 173 126 380 354 302 334 426 405 635 365 276 -52 681 112 681 277 0 55 64 252 142 439 l142 339 564 -292 c577 -300 752 -350 752 -217 0 41 -217 175 -483 297 -291 133 -529 323 -600 480 -65 142 -163 231 -217 197 -55 -34 -100 1 -100 78 0 154 -405 372 -691 372 -100 0 -306 -124 -457 -275z m673 -100 c87 -96 172 -265 191 -375 29 -168 -13 -195 -265 -167 -164 17 -370 107 -456 198 -145 152 -141 182 48 340 261 217 292 218 482 4z m-725 -425 c0 -55 -48 -100 -106 -100 -58 0 -78 45 -44 100 34 55 82 100 106 100 24 0 44 -45 44 -100z m450 -300 c34 -56 -40 -99 -169 -98 -186 1 -202 20 -81 98 186 120 176 120 250 0z m388 -454 c33 -86 -4 -178 -84 -208 -235 -90 -499 3 -535 188 -26 134 35 174 263 174 175 0 321 -63 356 -154z"/>
<path d="M78500 15100 c-183 -118 -25 -118 250 0 132 57 149 88 50 91 -82 3 -217 -38 -300 -91z"/>
<path d="M78027 15040 c33 -34 120 -37 192 -8 80 32 56 55 -61 60 -105 4 -164 -19 -131 -52z"/>
<path d="M13649 14503 c85 -387 -321 -2499 -524 -2728 -86 -96 -228 -176 -315 -177 -88 0 -227 -46 -310 -101 -110 -74 -50 -91 226 -65 459 42 903 419 816 692 -99 315 59 1176 217 1176 109 0 141 172 141 750 0 617 -28 750 -158 750 -123 0 -144 -65 -93 -297z"/>
<path d="M78750 14600 c34 -55 138 -99 231 -98 146 1 148 14 19 98 -196 127 -328 127 -250 0z"/>
<path d="M15308 14458 c-4 -105 19 -164 52 -131 34 33 37 120 8 192 -32 80 -55 56 -60 -61z"/>
<path d="M16269 14535 c-38 -37 -69 -218 -69 -402 0 -270 39 -333 206 -333 176 0 202 53 175 367 -30 352 -167 514 -312 368z"/>
<path d="M7800 14400 c-90 -58 -102 -98 -31 -98 66 -1 147 43 181 98 77 124 42 124 -150 0z"/>
<path d="M7144 14045 c-186 -149 -184 -153 56 -89 309 82 500 244 289 244 -83 0 -238 -70 -345 -155z"/>
<path d="M8514 13525 c-52 -96 -146 -369 -209 -606 -64 -237 -144 -507 -177 -600 -58 -158 -49 -158 130 -3 154 134 325 156 867 112 470 -39 675 -21 675 58 0 66 -168 114 -400 114 -220 0 -400 41 -400 91 0 50 180 122 400 159 449 76 509 241 200 550 -268 268 -359 252 -354 -62 5 -340 -267 -528 -492 -341 -114 94 -144 220 -101 419 71 319 2 373 -139 109z"/>
<path d="M16171 13099 c-56 -212 1 -299 196 -299 177 0 171 364 -7 432 -83 32 -160 -23 -189 -133z"/>
<path d="M79631 13007 c-31 -117 -162 -269 -292 -337 l-235 -124 246 -298 c135 -164 294 -354 352 -423 169 -200 298 -145 298 125 0 178 -54 250 -188 250 -103 0 -248 72 -321 161 -113 136 -105 181 55 298 145 106 220 111 329 20 118 -98 136 -69 109 169 -41 349 -276 455 -353 159z"/>
<path d="M7300 12900 c0 -55 20 -100 44 -100 24 0 72 45 106 100 34 55 14 100 -44 100 -58 0 -106 -45 -106 -100z"/>
<path d="M11043 12868 c-91 -236 324 -1044 575 -1121 127 -39 306 -136 397 -215 91 -80 188 -108 216 -63 75 121 -288 531 -469 531 -208 0 -466 513 -395 785 41 156 11 215 -108 215 -91 0 -188 -60 -216 -132z"/>
<path d="M6675 12634 c69 -28 181 -28 250 0 69 28 13 50 -125 50 -137 0 -194 -22 -125 -50z"/>
<path d="M15753 12304 c-33 -52 -125 -70 -206 -39 -81 31 -147 7 -147 -54 0 -61 59 -111 131 -111 166 0 560 293 400 297 -66 2 -146 -40 -178 -93z"/>
<path d="M2956 12085 c-349 -1293 -474 -2364 -408 -3479 52 -880 152 -1382 152 -764 0 341 235 299 283 -50 19 -133 80 -287 136 -342 69 -68 77 12 25 250 -43 193 -77 845 -76 1450 1 605 -16 1010 -37 900 -107 -551 -142 -650 -233 -650 -206 0 8 1612 323 2431 75 195 76 312 3 385 -72 72 -123 33 -168 -131z m-90 -3210 c-28 -69 -50 -12 -50 125 0 138 22 194 50 125 28 -69 28 -181 0 -250z"/>
<path d="M14225 11500 c26 -82 -29 -262 -121 -400 -92 -137 -223 -441 -290 -675 -72 -250 -182 -425 -268 -425 -179 0 -178 134 4 646 178 501 119 576 -109 138 -214 -410 -301 -1637 -97 -1359 223 305 370 211 313 -200 -47 -334 180 458 303 1059 30 146 100 215 184 182 203 -78 263 34 140 264 -87 163 -74 230 64 331 163 119 163 139 2 357 -94 128 -150 165 -125 82z"/>
<path d="M16716 10900 c0 -137 22 -194 50 -125 28 69 28 181 0 250 -28 69 -50 13 -50 -125z"/>
<path d="M2105 10550 c-65 -165 -159 -509 -208 -766 -48 -256 -185 -764 -303 -1131 -248 -765 -201 -1006 55 -284 322 909 351 907 288 -19 -34 -495 -145 -1122 -247 -1394 -213 -569 -179 -687 100 -345 245 300 316 672 363 1901 20 538 83 1150 139 1360 62 227 69 502 18 680 l-85 298 -120 -300z"/>
<path d="M4437 10514 c151 -158 341 -507 422 -775 116 -384 325 -2248 339 -3020 1 -72 40 -108 86 -79 46 28 87 546 92 1150 7 837 -25 1126 -134 1216 -78 65 -142 249 -142 409 0 568 -463 1385 -784 1385 -110 0 -75 -82 121 -286z"/>
<path d="M3116 10500 c0 -137 22 -194 50 -125 28 69 28 181 0 250 -28 69 -50 13 -50 -125z"/>
<path d="M16606 10195 c6 -324 13 -330 103 -103 64 160 62 277 -6 345 -71 71 -101 -5 -97 -242z"/>
<path d="M9185 10125 c-9 -41 -26 -120 -39 -175 -12 -55 -28 -157 -34 -227 -7 -69 -170 -202 -364 -294 -403 -192 -407 -364 -9 -411 286 -34 660 -510 661 -843 0 -96 43 -175 95 -175 52 0 108 213 125 474 26 413 68 493 323 614 l294 140 -311 277 c-170 153 -360 371 -421 486 -110 206 -290 281 -320 134z m461 -583 c295 -450 -85 -848 -455 -477 -168 167 -176 227 -67 463 158 340 306 344 522 14z"/>
<path d="M12399 9760 c-62 -170 -199 -533 -306 -805 -124 -319 -158 -530 -96 -592 62 -62 117 -28 155 95 32 106 146 372 254 592 107 220 194 440 194 488 0 49 91 167 202 263 200 174 200 175 -45 222 -202 39 -265 -7 -358 -263z"/>
<path d="M14362 9625 c-28 -96 -145 -760 -260 -1475 -115 -715 -249 -1390 -298 -1500 -146 -330 -220 -772 -119 -709 51 31 122 215 158 408 83 441 253 458 270 26 7 -179 70 305 141 1075 71 770 161 1614 201 1875 70 461 11 654 -93 300z"/>
<path d="M13321 8376 c-107 -179 -317 -573 -466 -875 -149 -302 -432 -774 -630 -1048 -302 -421 -320 -474 -119 -340 252 167 408 400 843 1262 146 289 305 525 353 525 181 0 -368 -1505 -601 -1650 -56 -34 -101 -108 -101 -164 0 -56 117 37 259 206 142 170 318 308 391 308 87 0 171 249 246 725 63 399 138 844 165 990 76 397 -117 431 -340 61z"/>
<path d="M967 7175 c-193 -344 -489 -757 -659 -919 -169 -161 -308 -361 -308 -443 0 -395 988 916 1291 1712 169 446 50 318 -324 -350z"/>
<path d="M2508 7358 c-4 -105 19 -164 52 -131 34 33 37 120 8 192 -32 80 -55 56 -60 -61z"/>
<path d="M73427 7040 c33 -34 120 -37 192 -8 80 32 56 55 -61 60 -105 4 -164 -19 -131 -52z"/>
<path d="M5112 6268 c-162 -407 -130 -566 48 -237 84 155 133 335 108 400 -24 65 -95 -8 -156 -163z"/>
<path d="M1731 5875 c-114 -547 -86 -724 73 -472 83 132 140 997 66 997 -17 0 -79 -236 -139 -525z"/>
<path d="M7127 6340 c33 -34 120 -37 192 -8 80 32 56 55 -61 60 -105 4 -164 -19 -131 -52z"/>
<path d="M7615 6252 c73 -73 1484 -86 1556 -15 34 35 -313 63 -771 63 -458 0 -812 -22 -785 -48z"/>
<path d="M1181 5926 c-235 -274 -302 -426 -189 -426 120 0 458 483 388 554 -27 26 -116 -32 -199 -128z"/>
<path d="M12302 5752 c-79 -95 -86 -152 -20 -152 121 0 262 190 192 259 -25 25 -102 -23 -172 -107z"/>
<path d="M14007 5525 c-4 -234 10 -425 31 -425 85 0 122 476 52 657 -54 137 -78 69 -83 -232z"/>
<path d="M72945 5808 c37 -60 274 -108 528 -108 569 0 530 52 -109 145 -337 49 -465 38 -419 -37z"/>
<path d="M74650 5800 l-500 -69 625 -15 c360 -9 625 26 625 84 0 55 -56 93 -125 84 -69 -8 -350 -46 -625 -84z"/>
<path d="M75600 5800 c0 -55 155 -100 344 -100 189 0 372 45 406 100 37 60 -99 100 -344 100 -223 0 -406 -45 -406 -100z"/>
<path d="M11856 5229 c-54 -142 -42 -154 56 -56 69 68 99 149 69 180 -31 30 -87 -25 -125 -124z"/>
<path d="M8425 5226 c-488 -20 -825 -77 -825 -139 0 -110 1369 -37 2150 114 l400 77 -450 -9 c-247 -5 -821 -25 -1275 -43z"/>
<path d="M6727 5140 c33 -34 120 -37 192 -8 80 32 56 55 -61 60 -105 4 -164 -19 -131 -52z"/>
<path d="M7400 3734 c-692 -71 -1000 -145 -1000 -239 0 -52 34 -90 75 -83 432 68 751 -237 825 -789 63 -472 392 -562 718 -195 l216 243 347 -236 c399 -270 933 -306 1162 -78 306 306 158 465 -163 175 -175 -159 -213 -156 -633 48 -504 245 -563 387 -197 479 299 75 355 499 75 576 -304 84 -1061 136 -1425 99z m706 -445 c187 -349 -50 -477 -355 -190 -316 297 -317 401 -5 401 149 0 292 -84 360 -211z"/>
<path d="M25267 3654 c-197 -86 -184 -99 133 -130 290 -29 401 -114 650 -497 165 -255 427 -556 583 -670 l283 -207 285 319 c247 276 302 298 410 168 177 -213 584 -408 1023 -491 314 -59 418 -32 622 159 134 127 244 312 244 412 0 266 -149 224 -288 -80 -106 -233 -160 -255 -488 -202 -584 95 -874 369 -874 827 l0 388 -1183 50 c-658 28 -1279 8 -1400 -46z m1819 -457 c138 -115 212 -259 178 -347 -83 -215 -166 -189 -614 198 l-400 344 300 1 c165 0 406 -88 536 -196z"/>
<path d="M67430 3701 c-268 -111 -1150 -137 -1636 -48 -263 48 -390 23 -489 -97 -181 -218 -73 -300 185 -139 192 120 266 73 917 -582 760 -765 1019 -843 1202 -361 52 135 149 226 217 200 68 -25 364 -106 657 -181 461 -117 569 -115 800 15 276 155 361 494 142 567 -72 24 -125 -43 -125 -160 0 -273 -290 -346 -834 -209 -492 124 -663 351 -407 538 420 308 -91 679 -629 457z m66 -494 c187 -349 122 -404 -302 -255 -523 185 -610 242 -540 355 111 179 733 105 842 -100z"/>
<path d="M45367 3583 c-208 -116 -221 -298 -17 -219 296 114 610 -64 887 -502 159 -251 415 -501 587 -572 283 -117 322 -107 536 142 127 147 260 268 297 268 37 0 220 -135 408 -300 445 -391 898 -410 1037 -43 54 141 98 321 98 400 0 238 -174 161 -241 -107 -85 -337 -375 -323 -779 39 -288 257 -308 307 -180 461 125 151 119 189 -54 320 -216 163 -1303 113 -1484 -68 -63 -63 -141 -61 -220 5 -213 176 -700 275 -875 176z m1915 -508 c43 -229 -103 -221 -505 29 l-327 204 399 -29 c287 -21 409 -78 433 -204z"/>
<path d="M6125 3334 c-143 -58 -170 -234 -36 -234 49 0 116 68 147 150 32 83 48 146 36 142 -12 -4 -78 -30 -147 -58z"/>
<path d="M15650 1547 c-715 -132 -1412 -214 -1550 -181 -137 33 -610 71 -1050 86 -440 15 -1340 63 -2000 108 -1624 110 -2646 81 -3600 -102 -816 -156 -1860 -220 -4700 -287 -2744 -65 -2750 -65 -2750 -186 0 -85 394 -98 1500 -48 1233 56 1500 43 1500 -69 0 -238 -484 -368 -1380 -369 -1074 -1 -1620 -86 -1620 -251 0 -168 230 -248 708 -248 269 0 392 44 392 140 0 106 204 148 840 175 766 32 863 59 1096 310 140 151 290 277 334 279 905 50 1300 80 1905 146 603 66 725 54 725 -67 0 -83 -201 -213 -475 -307 -1356 -463 -1751 -628 -1566 -655 245 -36 2232 644 2450 839 87 78 579 234 1093 346 828 180 1148 197 2792 142 2017 -68 2785 -236 3264 -715 128 -128 304 -233 391 -233 88 0 335 -90 551 -200 216 -110 494 -200 618 -200 221 0 222 3 29 135 -108 75 -464 235 -791 356 -486 181 -1056 589 -1056 757 0 21 146 -6 325 -60 179 -53 618 -84 975 -68 609 28 652 16 682 -196 48 -335 547 -542 1486 -615 455 -35 882 -119 949 -186 168 -168 383 -155 383 23 0 230 -336 354 -957 354 -687 0 -1279 164 -1509 418 -211 233 -119 322 485 468 664 161 774 145 878 -127 68 -179 232 -282 638 -400 300 -88 595 -159 655 -159 61 0 110 -161 110 -357 0 -288 34 -351 175 -322 144 29 170 125 144 547 -20 320 13 540 88 586 65 41 9844 88 21731 105 27905 39 31153 39 35687 -2 3583 -33 3775 -26 3775 145 0 170 -234 182 -4275 209 -2351 15 -16200 32 -30775 37 -14575 5 -26837 39 -27250 75 -580 50 -1045 10 -2050 -176z m2525 -118 c230 -36 325 -104 325 -234 0 -101 -37 -206 -82 -234 -109 -67 -884 165 -1027 308 -170 170 -4 360 245 279 118 -38 360 -92 539 -119z"/>
<path d="M12241 749 c106 -80 398 -221 650 -314 253 -93 530 -229 617 -302 87 -73 216 -133 287 -133 272 0 -149 333 -779 615 -704 316 -1108 386 -775 134z"/>
<path d="M1827 40 c33 -34 120 -37 192 -8 80 32 56 55 -61 60 -105 4 -164 -19 -131 -52z"/>
</g>
</svg>