<svg xmlns="http://www.w3.org/2000/svg" version="1.0" width="250" height="250" viewBox="0 0 250.000000 250.000000" preserveAspectRatio="xMidYMid meet">
<metadata>
Created by potrace 1.10, written by Peter Selinger 2001-2011
</metadata>
<g transform="translate(0.000000,250.000000) scale(0.010000,-0.010000)" fill="#555555" stroke="none">
<path d="M138 24685 c133 -664 517 -814 410 -160 l-69 425 260 -379 c303 -442 318 -528 103 -610 -254 -98 -611 37 -717 272 -76 166 -100 35 -101 -555 -2 -748 8 -778 312 -1010 173 -132 517 -342 764 -468 248 -126 589 -335 759 -464 171 -130 346 -236 391 -236 45 0 243 -124 440 -275 197 -151 516 -347 709 -436 595 -272 1194 -984 1743 -2072 170 -335 319 -515 401 -483 138 52 957 -715 957 -898 0 -58 126 -281 279 -496 384 -536 758 -1543 623 -1678 -145 -145 -383 114 -549 598 -239 694 -359 345 -198 -572 53 -298 23 -401 -164 -575 -213 -198 -215 -213 -36 -213 167 0 155 -35 -92 -264 -375 -348 -548 -137 -242 294 162 227 179 308 78 371 -92 57 -113 238 -71 639 44 427 26 560 -75 560 -197 0 -251 -236 -184 -807 44 -369 24 -535 -70 -594 -286 -176 -399 11 -399 662 0 524 -29 639 -163 639 -132 0 -152 -70 -105 -360 97 -598 -10 -873 -435 -1117 -213 -123 -411 -223 -442 -223 -146 0 -27 288 201 487 233 202 254 282 228 866 -16 354 -75 662 -132 685 -179 74 -734 1292 -864 1896 -95 448 -177 605 -347 669 -122 47 -250 130 -284 186 -34 55 -667 420 -1407 811 -740 391 -1371 753 -1403 805 -143 231 -238 60 -184 -330 32 -234 65 -582 74 -775 17 -391 195 -477 246 -119 26 187 59 208 175 113 114 -95 142 -83 142 60 0 174 137 121 163 -62 6 -51 18 -137 25 -192 6 -55 58 -100 114 -100 59 0 75 106 39 252 -59 235 -47 245 187 156 138 -52 560 -305 937 -561 638 -434 1003 -904 1028 -1322 15 -268 -603 -40 -1126 416 -156 136 -418 276 -582 312 -164 36 -323 129 -352 206 -78 202 -201 174 -262 -59 -53 -201 -371 -287 -371 -100 0 55 -45 100 -100 100 -55 0 -100 -84 -100 -188 0 -103 -68 -244 -150 -312 -113 -94 -150 -345 -150 -1011 l0 -887 585 306 c677 355 1271 457 1576 271 1088 -666 1397 -1041 1505 -1832 36 -263 148 -561 250 -663 101 -101 184 -286 184 -412 0 -125 68 -324 151 -443 83 -118 179 -551 214 -963 l63 -748 -363 -443 c-200 -244 -333 -474 -296 -511 95 -95 631 512 631 714 0 140 34 132 215 -49 192 -192 202 -247 90 -517 -189 -456 97 -2412 353 -2412 28 0 20 164 -17 364 -40 214 -31 341 23 308 52 -32 92 262 92 686 0 408 -30 742 -65 742 -36 0 -93 191 -127 425 -34 234 -90 571 -124 749 -90 468 24 826 262 826 109 0 198 63 198 139 0 162 213 261 561 261 330 0 401 -238 147 -492 -208 -208 -287 -608 -120 -608 48 0 155 101 237 225 143 215 153 196 224 -417 45 -389 206 -921 406 -1348 246 -522 304 -739 224 -835 -59 -71 -76 -161 -38 -200 39 -38 107 -9 152 64 134 216 180 2 153 -714 -17 -479 11 -675 98 -675 88 0 109 160 76 564 -34 406 -15 545 66 494 63 -38 114 -202 114 -364 0 -162 50 -294 111 -294 61 0 85 66 54 147 -31 81 -18 170 29 199 99 62 184 -661 124 -1066 -44 -305 -218 -285 -218 26 0 107 -50 194 -112 194 -67 0 -91 -107 -60 -269 l52 -269 -175 231 c-157 209 -181 214 -242 56 -97 -253 384 -843 747 -916 336 -67 447 -186 276 -292 -241 -148 -1336 -328 -1431 -235 -160 158 -638 106 -747 -81 -97 -167 -102 -167 -105 0 -2 107 -80 175 -201 175 -232 0 -475 338 -637 885 -63 215 -149 396 -190 403 -269 44 -375 -12 -375 -199 0 -151 -45 -193 -159 -149 -88 33 -258 86 -378 116 -207 52 -862 884 -864 1096 0 54 -70 233 -156 397 -100 191 -134 417 -95 625 55 292 37 326 -170 326 -547 0 -1297 1962 -1200 3137 31 378 10 563 -66 563 -61 0 -115 -124 -119 -275 -4 -151 -49 -365 -100 -475 -66 -142 -84 -18 -62 425 24 466 -2 625 -100 625 -72 0 -131 89 -131 197 0 135 48 178 153 138 127 -49 143 15 98 378 -30 240 -79 516 -109 612 -71 226 39 575 182 575 61 0 193 -74 293 -165 175 -159 183 -145 183 312 0 413 -20 461 -150 353 -83 -68 -150 -185 -150 -259 0 -79 -62 -111 -150 -77 -82 31 -150 13 -150 -42 0 -54 -84 -121 -187 -148 -134 -35 -206 -179 -256 -511 -47 -314 -118 -463 -219 -463 -82 0 -122 -45 -88 -100 34 -55 38 -100 8 -100 -29 0 -123 135 -208 300 -138 268 -139 300 -3 300 84 0 153 -45 153 -100 0 -55 45 -100 100 -100 55 0 100 115 100 257 0 141 49 347 108 458 146 272 12 385 -166 141 -92 -125 -142 -146 -142 -58 0 75 70 214 157 309 233 259 8 323 -295 84 -228 -179 -262 -280 -262 -776 0 -364 59 -654 162 -802 181 -258 143 -1128 -52 -1193 -72 -24 -110 -475 -110 -1314 l0 -1277 325 -441 c179 -243 426 -576 551 -740 469 -621 526 -724 772 -1401 435 -1200 300 -2962 -296 -3862 -137 -207 -497 -564 -801 -793 -397 -300 -551 -482 -551 -654 0 -142 59 -238 146 -238 164 0 354 -298 354 -554 0 -129 -58 -153 -250 -105 -188 47 -250 23 -250 -95 0 -87 43 -131 96 -98 128 79 534 -727 461 -916 -62 -162 -321 -121 -285 46 12 57 -44 158 -125 225 -127 105 -147 36 -147 -491 0 -533 24 -612 188 -612 104 0 263 112 353 250 201 307 414 320 567 35 102 -190 94 -207 -71 -143 -302 117 -359 115 -408 -17 -33 -91 108 -125 513 -125 661 0 689 77 260 710 -337 498 -362 590 -159 590 168 0 425 -479 515 -960 50 -264 113 -340 283 -340 121 0 279 56 352 125 105 100 141 100 178 0 68 -186 192 -153 470 125 315 315 503 315 818 0 215 -215 340 -250 896 -250 546 0 645 27 648 175 3 167 10 167 136 0 73 -96 229 -175 347 -175 175 0 214 60 214 328 0 180 74 433 164 562 147 210 220 229 688 181 619 -64 1539 -493 1178 -549 -122 -19 -347 56 -500 168 -718 520 -1423 266 -1429 -515 -2 -299 179 -192 255 150 62 279 82 297 144 125 40 -110 51 -256 25 -325 -35 -96 246 -125 1207 -125 l1254 0 -93 324 c-122 426 -119 876 7 876 55 0 100 -155 100 -345 0 -190 52 -460 116 -600 95 -209 186 -255 500 -255 389 0 469 75 280 264 -73 73 -59 142 45 228 238 198 505 90 541 -218 24 -215 84 -274 275 -274 164 0 244 57 246 175 3 167 10 167 136 0 145 -190 761 -246 761 -68 0 61 -85 79 -200 43 -139 -44 -200 -18 -200 85 0 315 128 465 398 465 339 0 541 -220 454 -495 -54 -169 -22 -205 181 -205 135 0 272 68 303 150 76 197 430 193 541 -6 65 -116 214 -148 580 -125 460 29 495 50 526 317 23 204 -45 368 -235 566 -192 200 -249 339 -201 489 90 284 189 264 497 -102 212 -252 239 -339 140 -458 -95 -115 -95 -163 3 -223 79 -49 100 -174 58 -342 -65 -259 -55 -266 394 -266 254 0 461 45 461 100 0 55 68 100 150 100 82 0 150 -45 150 -100 0 -55 179 -100 397 -100 314 0 385 32 338 152 -46 120 12 146 272 125 276 -23 339 12 389 216 83 337 248 360 387 55 156 -344 155 -348 -133 -348 -137 0 -250 -45 -250 -100 0 -55 225 -100 500 -100 560 0 599 70 359 644 -77 185 -235 367 -350 403 -263 84 -264 170 -5 332 217 136 441 74 338 -92 -34 -54 60 -273 207 -486 182 -262 248 -454 203 -594 -56 -179 -23 -207 241 -207 206 0 307 49 307 150 0 83 45 150 100 150 55 0 100 84 100 188 0 211 268 477 374 372 37 -38 14 -156 -53 -263 -211 -339 -153 -597 135 -597 141 0 230 42 198 93 -31 51 -11 122 45 156 56 35 129 -7 162 -93 33 -86 171 -156 306 -156 134 0 219 42 187 93 -31 51 -11 122 45 156 56 35 129 -7 162 -93 33 -86 134 -156 225 -156 134 0 158 88 130 491 -27 394 7 532 175 700 292 292 458 262 764 -139 236 -309 253 -384 155 -665 -60 -174 -110 -333 -110 -352 0 -19 608 -35 1350 -35 l1350 0 0 457 c0 251 -51 552 -114 670 -86 160 -86 223 0 252 187 62 129 221 -80 221 -301 0 -344 187 -60 258 363 91 314 248 -67 217 -230 -18 -331 21 -355 138 -25 118 64 181 321 229 195 37 355 115 355 174 0 64 -92 81 -225 43 -627 -178 -775 -184 -775 -31 0 100 173 198 500 282 275 70 500 170 500 221 0 51 -124 62 -275 25 -621 -153 -825 -174 -825 -83 0 99 652 327 937 327 89 0 163 45 163 100 0 139 -204 125 -700 -50 -234 -83 -464 -150 -513 -150 -163 0 -88 286 88 333 96 25 389 101 650 169 261 68 475 168 475 222 0 53 -79 66 -175 28 -339 -134 -1219 -291 -1282 -229 -139 140 86 260 706 377 358 67 651 157 651 198 0 118 -1430 -201 -1608 -358 -186 -165 -292 -179 -292 -40 0 55 57 100 126 100 69 0 178 83 242 185 74 119 335 229 724 305 334 66 608 163 608 215 0 118 -26 118 -343 -2 -271 -103 -557 -45 -557 114 0 52 39 71 87 41 47 -29 283 9 525 85 285 89 360 141 213 147 -305 14 -288 291 25 410 330 126 321 240 -12 156 -242 -61 -257 -46 -198 190 35 140 29 250 -13 243 -419 -68 -445 269 -27 361 420 92 376 250 -50 181 -227 -37 -350 -17 -350 56 0 62 90 113 200 113 274 0 250 126 -51 266 -225 104 -256 92 -310 -125 -33 -132 -37 -303 -7 -379 37 -98 -4 -124 -140 -89 -106 28 -260 -5 -343 -73 -119 -100 -149 -98 -149 8 0 88 -33 99 -100 32 -67 -67 -58 -190 25 -371 104 -227 170 -262 400 -212 209 45 291 15 343 -124 37 -101 111 -212 164 -248 54 -36 65 -148 26 -250 -66 -172 -78 -173 -167 -14 -54 95 -162 145 -244 114 -81 -31 -147 -7 -147 54 0 61 -45 111 -100 111 -55 0 -100 -81 -100 -180 0 -372 -511 -569 -780 -300 -211 211 -130 297 246 263 234 -21 381 13 409 96 32 93 -25 112 -198 69 -158 -40 -287 -6 -372 96 -183 221 -304 194 -308 -69 -3 -208 -13 -212 -136 -50 -185 244 -294 218 -225 -53 70 -282 -27 -689 -147 -615 -49 30 -89 187 -89 349 0 162 -48 294 -106 294 -120 0 -54 -567 124 -1060 133 -369 47 -794 -178 -880 -124 -48 -146 -21 -94 114 133 345 178 726 84 726 -52 0 -136 -165 -187 -367 -51 -202 -160 -390 -243 -417 -125 -40 -129 -23 -21 108 78 94 105 271 69 441 -33 157 -81 386 -106 510 -92 452 -207 209 -162 -339 l47 -565 -263 51 c-181 34 -264 7 -264 -86 0 -80 108 -136 262 -136 208 0 239 -28 151 -134 -90 -109 -22 -136 360 -141 259 -4 488 -57 507 -116 20 -60 100 -109 178 -109 185 0 183 -163 -2 -234 -79 -30 -221 -172 -314 -315 -139 -211 -149 -306 -55 -513 142 -311 54 -497 -153 -325 -240 199 -555 896 -500 1105 36 138 -19 219 -193 285 -133 51 -231 127 -217 170 14 42 -19 77 -74 77 -55 0 -84 -45 -64 -100 19 -55 46 -145 59 -200 14 -55 50 -167 82 -250 31 -82 80 -262 109 -400 110 -531 319 -1000 444 -1000 73 0 104 -44 71 -99 -107 -173 -551 200 -551 464 0 133 -71 350 -157 482 -87 132 -143 344 -125 471 21 151 -19 231 -118 233 -108 2 -147 107 -138 379 11 367 6 372 -183 201 -118 -106 -177 -262 -152 -397 61 -315 -80 -521 -243 -358 -94 94 -99 221 -21 514 79 298 72 450 -33 649 -75 144 -148 261 -163 261 -14 0 -24 -356 -21 -792 3 -629 -30 -812 -160 -894 -255 -159 -314 454 -76 784 156 216 167 320 78 727 -91 417 -79 516 104 812 247 400 255 463 61 463 -85 0 -124 59 -93 140 29 77 9 167 -46 201 -55 34 -130 -34 -168 -152 -41 -131 -18 -244 60 -293 101 -62 90 -137 -50 -350 -128 -196 -161 -377 -117 -649 55 -342 41 -373 -139 -326 -129 34 -200 137 -200 291 0 131 -45 238 -100 238 -163 0 -114 -582 57 -678 176 -99 169 -832 -9 -890 -134 -44 -452 1181 -379 1459 31 120 186 284 344 366 158 81 287 214 287 296 0 192 -162 190 -236 -3 -32 -82 -104 -150 -161 -150 -190 0 -105 247 197 570 165 175 300 367 300 425 0 149 474 131 528 -20 25 -69 80 -92 123 -52 123 115 -153 377 -398 377 -122 0 -375 -146 -563 -325 -401 -384 -757 -392 -851 -18 -68 272 -50 263 -564 293 -390 22 -520 -64 -603 -400 -38 -156 -51 -141 -60 68 -8 166 73 337 213 452 310 254 318 411 20 354 -172 -33 -245 -3 -245 102 0 256 -254 400 -399 225 -112 -135 -74 -191 114 -166 95 12 202 -477 129 -594 -89 -144 -344 90 -344 315 0 100 -44 210 -99 243 -121 75 -82 383 73 570 74 88 81 190 22 284 -188 297 -85 251 357 -161 552 -514 1122 -807 1273 -656 74 74 63 157 -35 276 -111 134 -114 180 -14 213 70 24 190 106 268 184 77 78 166 141 198 141 107 0 57 -460 -63 -580 -93 -93 -68 -120 112 -120 191 0 211 -26 113 -144 -66 -79 -214 -158 -329 -175 -116 -17 -231 -94 -257 -171 -62 -191 548 -71 799 157 201 181 240 485 77 586 -73 45 -72 104 3 194 78 95 68 144 -38 185 -79 31 -159 156 -177 279 -38 257 -283 385 -283 147 0 -185 -114 -204 -272 -46 -82 82 -194 27 -426 -210 -253 -258 -365 -308 -577 -255 -312 79 -505 301 -589 678 -33 151 -123 275 -198 275 -173 0 -171 178 6 497 76 138 114 386 85 562 -29 178 -3 345 60 384 61 38 111 181 111 319 0 141 -44 223 -100 188 -55 -34 -100 -42 -100 -17 0 115 301 606 416 677 70 43 91 115 46 160 -91 90 -662 -544 -662 -735 0 -68 -44 -151 -99 -184 -114 -71 -23 231 129 426 54 70 66 160 26 200 -40 40 -142 -17 -226 -127 -146 -189 -151 -182 -92 137 54 292 42 321 -88 213 -125 -104 -150 -90 -150 88 0 148 -63 212 -207 212 -161 0 -193 44 -143 200 36 113 18 200 -41 200 -133 0 -272 -529 -150 -570 50 -16 136 -38 191 -48 194 -36 320 -421 215 -660 -71 -162 -122 -192 -177 -103 -280 454 -20 -1007 276 -1548 84 -154 161 -491 171 -750 10 -259 50 -520 88 -580 87 -137 -446 -541 -713 -541 -109 0 -226 -45 -260 -100 -34 -55 -168 -100 -298 -100 -130 0 -379 -119 -552 -265 l-316 -266 -1288 128 c-709 70 -1356 101 -1439 70 -90 -35 -231 45 -353 201 -286 363 -268 552 46 473 198 -50 252 -24 258 123 5 110 29 134 59 59 74 -185 732 -437 956 -366 140 45 206 3 248 -158 47 -177 109 -208 334 -163 189 38 295 9 333 -90 59 -156 462 -206 462 -58 0 48 -214 259 -475 469 -261 209 -556 462 -654 562 -98 99 -241 181 -318 181 -76 0 -153 101 -171 225 -20 138 -97 220 -199 212 -97 -7 -147 41 -118 115 27 70 -2 159 -65 198 -67 41 -136 -16 -168 -140 -31 -115 -68 -210 -84 -210 -131 0 -1370 633 -1642 840 -190 143 -399 260 -464 260 -189 0 -601 374 -512 463 45 45 121 16 170 -63 49 -79 117 -116 152 -82 72 73 -349 772 -580 964 -129 107 -172 101 -249 -37 -77 -137 -129 -94 -311 255 -311 597 -527 1671 -368 1830 67 67 103 178 81 246 -23 68 21 124 98 124 123 0 577 507 577 644 0 28 -110 2 -244 -59 -134 -61 -321 -81 -416 -45 -151 58 -132 108 143 393 175 180 317 381 317 447 0 66 68 120 150 120 99 0 150 -99 150 -289 0 -165 64 -314 150 -347 82 -32 150 -115 150 -184 0 -211 426 -1211 651 -1530 117 -165 267 -554 335 -864 127 -579 431 -1002 565 -784 87 141 493 49 843 -191 236 -162 1488 -511 1833 -511 82 0 203 -65 269 -145 66 -80 285 -197 487 -262 202 -64 490 -232 641 -373 151 -140 300 -229 333 -196 93 93 -254 562 -466 629 -251 80 -245 247 9 247 110 0 200 51 200 113 0 77 -152 93 -477 49 -357 -47 -536 -22 -709 99 -261 183 -1370 540 -1548 499 -64 -15 -82 -8 -41 15 142 79 75 246 -75 189 -204 -78 -189 35 25 192 96 70 144 159 106 196 -38 38 -190 -52 -338 -200 -243 -243 -284 -254 -424 -114 -140 140 -131 165 88 252 l243 97 -239 7 c-131 3 -299 -73 -372 -169 -126 -166 -133 -166 -136 3 -2 118 97 197 297 237 165 33 300 96 300 140 0 201 972 728 1425 773 457 46 661 207 300 237 -691 57 -1405 -264 -2267 -1021 -362 -319 -390 -310 -500 146 -38 159 -247 584 -464 943 -435 723 -480 911 -219 929 96 6 243 17 325 25 83 7 390 -17 684 -55 354 -44 690 -20 1000 74 501 153 1378 193 1433 67 18 -43 191 -23 383 44 193 67 271 124 175 127 -96 3 -175 53 -175 111 0 128 1740 44 2343 -113 224 -58 520 -226 657 -374 210 -225 343 -271 825 -286 564 -18 793 120 350 210 -124 25 -360 74 -525 108 -165 34 -457 169 -650 299 -193 129 -541 286 -775 347 -234 62 -425 154 -425 205 0 58 93 59 240 3 132 -50 267 -64 300 -31 33 33 161 14 285 -42 462 -212 1539 -559 1951 -628 624 -105 1219 -417 1286 -674 32 -121 121 -273 198 -337 77 -64 140 -201 140 -304 0 -214 -290 -249 -760 -91 -602 202 -2540 201 -2540 -2 0 -43 495 -64 1100 -45 605 18 1100 3 1099 -33 -1 -37 -188 -146 -417 -242 -459 -193 -480 -345 -24 -172 157 60 602 116 989 124 638 15 752 -15 1231 -316 350 -220 583 -455 692 -696 146 -324 169 -340 204 -140 42 236 106 265 368 164 232 -89 193 -264 -42 -189 -241 77 -250 19 -41 -299 87 -133 129 -289 94 -347 -36 -57 12 -104 105 -104 195 0 368 -196 628 -711 177 -350 176 -364 -2 -476 -255 -159 -231 -304 41 -246 209 44 212 37 50 -96 -96 -78 -175 -202 -175 -274 0 -72 -77 -217 -172 -321 -166 -183 -161 -189 125 -158 252 27 302 -6 329 -218 55 -428 542 -641 918 -401 127 81 116 119 -75 254 -131 92 -225 263 -225 407 0 137 -115 364 -256 505 -270 270 -264 403 11 297 90 -35 187 -153 216 -263 46 -174 229 -291 229 -145 0 173 -353 546 -518 546 -130 0 -185 58 -166 175 16 96 -9 235 -55 309 -46 74 -42 175 10 227 150 150 943 -708 869 -941 -51 -163 -26 -178 175 -108 129 45 359 78 510 74 283 -8 371 108 150 198 -69 28 -25 54 97 58 158 6 287 -107 450 -391 345 -605 504 -492 266 189 -110 317 -43 561 94 339 48 -78 146 -37 306 129 183 190 195 229 56 176 -139 -53 -164 -31 -114 99 87 228 -60 210 -280 -33 -180 -199 -550 -277 -550 -115 0 46 90 165 200 265 110 100 200 226 200 281 0 55 -82 26 -183 -66 -202 -182 -517 -222 -517 -65 0 55 -88 100 -196 100 -109 0 -244 87 -300 193 -142 264 -132 306 71 311 206 4 735 287 547 292 -71 2 -290 -63 -487 -146 -198 -82 -444 -150 -547 -150 -103 0 -188 -45 -188 -100 0 -55 62 -100 138 -100 173 0 414 -281 321 -375 -39 -38 -106 -11 -150 60 -125 203 -785 322 -850 153 -29 -76 -107 -138 -173 -138 -67 0 -17 111 111 247 215 229 228 307 179 1094 -41 654 -101 909 -262 1114 -115 146 -238 420 -273 608 -51 269 -102 331 -241 287 -277 -88 -312 197 -88 704 200 451 196 746 -9 746 -57 0 -103 -101 -103 -225 -1 -124 -88 -368 -195 -543 -106 -175 -236 -535 -289 -800 -77 -387 -280 -1035 -380 -1215 -11 -18 -113 17 -227 78 -243 130 -268 469 -56 749 81 107 147 291 147 408 0 118 34 249 75 290 112 113 91 1296 -25 1385 -62 47 -23 136 100 231 179 138 183 163 38 245 -128 73 -147 176 -89 493 41 220 126 464 190 541 138 166 97 1841 -43 1763 -50 -27 -79 -365 -66 -750 14 -385 -20 -768 -76 -850 -111 -165 -130 -77 -123 575 1 179 -36 325 -83 325 -47 0 -78 -311 -67 -692 10 -380 5 -677 -12 -660 -59 59 -317 1102 -318 1286 0 102 84 207 189 234 283 74 242 752 -49 828 -141 36 -204 126 -193 273 10 121 -31 211 -90 200 -59 -10 -108 127 -107 306 1 179 -38 325 -87 325 -48 0 -64 90 -35 200 29 110 13 200 -35 200 -48 0 -59 75 -24 166 41 107 25 143 -46 99 -61 -38 -137 -26 -169 26 -32 53 -13 123 43 158 118 73 138 257 27 239 -196 -31 -238 25 -123 164 106 128 99 142 -38 90 -260 -100 -193 89 194 540 409 478 336 571 -92 118 -156 -165 -313 -300 -350 -300 -113 0 -329 574 -338 901 -6 215 -49 293 -143 257 -204 -78 -167 313 40 434 144 84 148 102 20 105 -85 2 -209 -51 -275 -117 -86 -86 -120 -88 -120 -6 0 63 45 142 100 176 55 34 100 110 100 168 0 68 -53 62 -147 -16 -118 -97 -180 -89 -310 41 -130 130 -138 192 -41 310 68 81 180 147 250 147 69 0 153 68 184 150 89 231 -80 179 -374 -115 -271 -271 -492 -262 -265 11 103 124 95 163 -41 216 -92 35 -144 124 -116 198 28 73 8 160 -44 193 -160 98 -108 328 123 543 120 112 180 204 133 204 -48 0 -165 -71 -260 -157 -163 -148 -183 -121 -299 400 -103 461 -161 556 -334 553 -260 -4 -727 -254 -659 -352 61 -89 -871 -371 -1033 -314 -65 23 86 101 333 174 543 159 537 155 451 294 -46 75 -209 28 -505 -145 -338 -198 -534 -246 -869 -214 -454 45 -1402 -127 -1544 -279 -48 -52 21 -59 167 -16 138 40 498 92 800 115 l550 42 -400 -158 c-469 -186 -2350 -301 -2350 -145 0 56 53 102 117 102 64 0 93 24 64 52 -29 29 -494 -14 -1034 -95 -540 -81 -1019 -124 -1064 -96 -46 28 -83 4 -83 -53 0 -182 408 -215 2050 -168 988 28 1868 109 2300 212 385 91 948 203 1250 247 540 80 1140 322 1254 507 108 175 246 95 246 -141 0 -128 -90 -315 -200 -415 -110 -100 -199 -230 -197 -290 2 -61 63 -31 136 65 164 216 261 224 261 20 0 -85 -135 -231 -299 -325 -396 -225 -389 -371 8 -165 357 184 538 98 241 -115 -110 -79 -271 -204 -359 -277 -87 -73 -278 -163 -425 -200 -309 -78 -361 -363 -66 -363 237 0 267 -181 44 -266 -85 -33 -131 -123 -101 -201 61 -160 -229 -311 -328 -171 -36 51 -189 146 -340 213 -151 66 -275 167 -275 223 0 56 -129 102 -286 102 -253 0 -281 30 -238 255 45 233 27 249 -217 188 -441 -110 -610 -100 -582 37 19 97 -65 113 -332 63 -302 -57 -365 -37 -409 128 -45 174 -130 194 -748 175 -804 -25 -978 -105 -423 -196 212 -34 488 -105 615 -156 126 -52 340 -94 475 -94 135 0 245 -45 245 -100 0 -55 106 -100 235 -100 129 0 365 -63 525 -140 159 -77 560 -265 890 -419 330 -153 870 -453 1200 -667 330 -213 870 -515 1200 -669 804 -378 1175 -799 1546 -1755 170 -440 359 -898 420 -1017 60 -119 109 -333 109 -475 0 -162 55 -258 150 -258 116 0 124 -31 35 -138 -90 -108 -71 -149 88 -190 241 -63 271 -272 40 -272 -133 0 -140 -27 -39 -149 100 -120 93 -160 -38 -211 -88 -34 -161 -106 -161 -161 0 -55 68 -74 150 -43 82 32 150 14 150 -39 0 -53 -112 -103 -250 -109 -373 -19 -426 -31 -508 -113 -42 -41 90 -75 291 -75 202 0 367 -40 367 -88 0 -130 -420 -189 -1171 -162 -596 20 -644 8 -471 -121 145 -108 360 -128 876 -81 468 43 664 29 619 -43 -36 -58 -208 -109 -384 -113 l-319 -8 275 -100 c361 -132 347 -239 -50 -379 -283 -100 -302 -128 -150 -215 96 -55 175 -188 175 -295 0 -244 -448 -262 -1071 -45 -232 80 -492 120 -577 87 -86 -33 -286 -6 -445 60 -159 66 -481 128 -715 137 -237 9 -444 71 -467 140 -28 86 47 110 242 80 156 -24 623 -68 1039 -96 416 -29 920 -121 1122 -205 419 -176 572 -192 572 -61 0 51 -134 122 -299 158 -164 36 -325 109 -358 162 -37 58 51 69 224 28 155 -38 248 -31 205 15 -43 46 -200 95 -350 108 -150 13 -497 53 -772 89 -275 36 -779 75 -1120 86 -598 18 -1017 155 -522 169 225 7 228 13 42 93 -366 157 948 110 1619 -58 784 -197 1070 -127 360 88 -541 163 -2018 250 -2212 130 -68 -41 -135 41 -172 211 -106 482 -267 833 -440 958 -415 300 -348 391 234 318 388 -48 561 -36 561 41 0 102 -578 169 -1175 136 -161 -8 -225 44 -225 183 0 172 48 188 400 131 268 -42 400 -26 400 49 0 62 -124 114 -275 115 -300 1 -975 212 -1098 343 -42 45 96 50 308 12 262 -48 364 -36 319 37 -36 58 -189 106 -340 106 -269 0 -514 156 -514 326 0 47 45 58 100 24 55 -34 100 -14 100 44 0 58 -56 108 -125 110 -182 6 -575 667 -575 966 0 266 -555 1330 -694 1330 -44 0 -205 191 -358 425 -153 234 -542 724 -863 1088 -322 365 -585 714 -585 775 0 66 185 112 450 112 270 0 450 46 450 114 0 80 -190 94 -638 48 -635 -65 -641 -63 -1000 296 -199 199 -362 399 -362 445 0 46 -91 112 -201 147 -111 36 -176 106 -144 157 31 52 -61 138 -205 193 -144 55 -236 142 -203 195 59 96 -243 305 -440 305 -241 0 -50 -243 1118 -1425 674 -681 1405 -1458 1625 -1726 220 -267 631 -748 913 -1067 571 -646 837 -1130 837 -1524 0 -143 130 -497 290 -785 159 -287 323 -635 362 -773 40 -137 395 -548 789 -913 602 -558 743 -753 895 -1234 99 -314 165 -585 147 -604 -81 -80 -371 236 -563 611 -206 404 -589 740 -844 740 -72 0 -209 90 -303 200 -94 110 -228 200 -298 200 -70 0 -248 113 -397 250 -526 488 -535 448 -332 -1326 38 -333 -201 -715 -348 -555 -131 142 -215 1009 -105 1077 66 40 69 125 10 234 -176 324 -590 1772 -649 2270 -42 353 -14 584 93 786 188 353 188 364 5 364 -81 0 -227 123 -325 273 -97 151 -256 353 -352 450 -96 98 -175 222 -175 277 0 55 -99 100 -220 100 -171 0 -193 -27 -100 -120 396 -396 -142 -510 -682 -144 -191 130 -600 355 -907 500 -308 145 -641 354 -741 464 -99 110 -243 200 -319 200 -187 0 -1668 844 -2262 1289 -937 703 -1130 901 -1365 1403 l-238 508 -930 0 c-785 0 -921 -23 -872 -150 64 -168 236 -204 236 -50 0 55 45 100 100 100 55 0 100 -90 100 -200 0 -288 -359 -256 -559 50 -130 198 -248 250 -565 250 -397 0 -400 -3 -338 -315z m3262 -1135 c0 -71 121 -159 270 -196 211 -53 238 -88 125 -159 -262 -166 -595 -112 -595 97 0 105 -28 263 -61 351 -45 117 -18 143 100 97 88 -34 161 -119 161 -190z m12900 -500 c-68 -82 -166 -150 -216 -150 -115 0 134 291 253 296 48 2 31 -63 -37 -146z m-12200 -38 c0 -87 -330 -208 -575 -211 -217 -2 -135 183 100 228 393 76 475 73 475 -17z m11657 -264 c-106 -80 -217 -121 -247 -92 -63 63 191 242 340 239 55 -1 13 -67 -93 -147z m-14357 -48 c0 -55 -45 -100 -100 -100 -55 0 -100 45 -100 100 0 55 45 100 100 100 55 0 100 -45 100 -100z m3200 0 c106 -69 -10 -95 -400 -91 -399 4 -495 29 -350 91 272 117 569 117 750 0z m9100 -39 c0 -22 -68 -66 -150 -97 -82 -32 -150 -14 -150 39 0 53 68 97 150 97 82 0 150 -18 150 -39z m-8400 -429 c242 -138 238 -141 -150 -89 -220 30 -681 55 -1025 56 -503 1 -625 32 -625 160 0 137 104 149 775 87 426 -39 888 -135 1025 -214z m11000 100 c0 -24 -88 -30 -195 -13 -108 17 -257 -53 -332 -155 -75 -102 -222 -169 -327 -149 -160 31 -137 71 143 248 283 179 711 221 711 69z m293 -457 c11 -121 -273 -86 -314 39 -56 168 -479 -78 -479 -278 0 -114 63 -142 226 -101 364 91 517 -65 276 -283 -112 -101 -237 -151 -277 -110 -41 41 13 138 119 216 107 78 143 142 81 142 -62 0 -137 -39 -167 -87 -72 -117 -526 -22 -660 140 -83 99 -54 147 122 200 126 39 320 149 430 246 369 324 605 279 643 -124z m-10618 33 c14 -5 25 -48 25 -98 0 -49 -517 -96 -1150 -103 -1002 -12 -1150 8 -1150 150 0 144 130 157 1125 110 619 -28 1136 -55 1150 -59z m-1725 -454 c173 -66 797 -99 1025 -55 41 8 -15 54 -125 101 -135 58 63 88 606 93 547 5 868 -38 1000 -135 106 -78 171 -163 144 -189 -28 -26 -711 -68 -1520 -94 -1219 -38 -1479 -21 -1525 99 -62 160 21 350 127 293 37 -20 158 -71 268 -113z m12437 -364 c-176 -112 -387 -114 -387 -5 0 132 443 306 487 190 21 -54 -24 -137 -100 -185z m-8688 -340 c317 -192 632 -416 700 -499 68 -82 166 -122 219 -90 52 32 384 -249 738 -626 465 -495 630 -740 595 -885 -27 -110 -49 -328 -50 -485 l-1 -285 -725 71 c-772 76 -866 15 -219 -142 l394 -95 -475 12 c-426 10 -475 35 -475 243 0 374 4 382 181 360 93 -12 390 -53 659 -90 358 -50 471 -38 419 46 -39 63 -204 115 -366 115 -368 0 -1093 220 -1093 332 0 45 242 52 538 15 352 -44 561 -29 606 43 45 73 -67 110 -332 110 -459 0 -912 148 -912 298 0 56 135 102 300 102 165 0 300 45 300 100 0 55 -124 101 -275 101 -589 3 -957 224 -550 330 122 32 101 49 -68 57 -134 7 -508 106 -831 221 -323 114 -643 187 -712 160 -68 -26 -234 17 -369 97 -226 133 -188 141 480 102 399 -23 725 -2 725 45 0 48 -268 87 -595 87 -328 0 -711 53 -853 117 -197 90 -285 90 -375 0 -64 -64 -187 -114 -272 -110 -111 5 -98 33 45 97 139 63 -11 86 -494 76 -444 -10 -708 26 -733 100 -27 81 362 123 1345 145 760 17 1511 41 1669 53 181 14 499 -107 862 -328z m-2306 -607 c299 -137 773 -268 1054 -292 713 -61 1239 -301 1361 -621 55 -146 81 -314 58 -374 -23 -60 19 -401 92 -758 231 -1114 -4 -3098 -366 -3098 -135 0 -292 361 -292 671 0 287 -684 1734 -969 2049 -124 138 -133 231 -44 487 61 174 86 356 56 404 -89 144 -417 102 -479 -61 -32 -82 -118 -150 -191 -150 -197 0 -740 597 -911 1000 -82 193 -287 499 -455 681 -169 182 -307 357 -307 388 0 116 869 -87 1393 -326z m4084 -24 c24 -73 -21 -96 -119 -58 -87 33 -158 104 -158 158 0 131 227 49 277 -100z m323 -375 c0 -24 -45 -44 -100 -44 -55 0 -100 48 -100 106 0 58 45 78 100 44 55 -34 100 -82 100 -106z m-1100 -2238 c0 -136 -176 -225 -240 -122 -60 97 26 216 157 216 46 0 83 -42 83 -94z m1560 -83 c60 -40 139 -326 174 -636 76 -662 -51 -843 -520 -740 -171 37 -323 20 -360 -41 -102 -165 -554 -129 -554 44 0 102 103 150 325 152 514 2 630 121 424 435 -95 145 -248 263 -341 263 -92 0 -222 54 -288 120 -141 141 -283 26 -336 -270 -22 -121 -130 -213 -276 -234 -224 -32 -229 -23 -74 132 91 91 166 248 166 348 0 129 103 201 352 248 193 36 396 38 450 5 53 -33 198 10 320 95 245 172 372 190 538 79z m2334 -1401 c352 -176 600 -381 705 -583 89 -172 371 -528 627 -791 500 -514 541 -723 97 -492 -361 189 -508 181 -961 -50 -414 -211 -829 -148 -829 126 0 82 56 128 124 102 67 -26 152 0 189 59 36 59 -3 107 -87 107 -304 0 -34 299 376 416 268 77 351 133 235 159 -98 23 -312 -5 -475 -62 -205 -71 -295 -71 -295 3 0 58 -61 82 -136 53 -145 -55 -464 504 -464 814 0 169 179 421 295 414 30 -2 300 -126 599 -275z m-4044 78 c-34 -55 -82 -100 -106 -100 -24 0 -44 45 -44 100 0 55 48 100 106 100 58 0 78 -45 44 -100z m1100 -405 c495 -44 923 -90 950 -103 164 -79 -1135 -128 -1550 -58 -689 116 -773 149 -696 272 36 59 140 76 231 37 91 -38 570 -105 1065 -148z m-5790 -368 c-33 -33 -56 26 -52 131 5 117 28 141 60 61 29 -72 26 -159 -8 -192z m6615 -85 c124 -25 225 -84 225 -130 0 -47 -191 -48 -425 -3 -234 45 -726 84 -1094 87 -368 2 -697 49 -731 103 -58 95 1488 51 2025 -57z m8659 -141 c137 -233 165 -436 123 -907 -29 -333 -84 -656 -121 -717 -46 -75 -6 -87 123 -38 157 60 168 50 61 -58 -72 -72 -286 -131 -475 -131 -273 0 -348 42 -360 200 -9 110 -22 268 -29 350 -37 416 284 1600 435 1600 36 0 145 -135 243 -299z m-15084 -101 c-34 -55 -82 -100 -106 -100 -24 0 -44 45 -44 100 0 55 48 100 106 100 58 0 78 -45 44 -100z m3050 -100 c0 -55 -45 -100 -100 -100 -55 0 -100 -65 -100 -145 0 -275 -223 -633 -461 -742 -266 -121 -321 -6 -89 187 83 68 150 184 150 256 0 313 204 644 398 644 111 0 202 -45 202 -100z m1700 0 c0 -55 -65 -100 -144 -100 -79 0 -172 45 -206 100 -34 55 31 100 144 100 113 0 206 -45 206 -100z m1100 0 c0 -126 -204 -126 -400 0 -117 76 -89 97 125 98 151 1 275 -43 275 -98z m673 -69 c-97 -26 -232 -24 -300 3 -68 28 12 49 177 47 165 -3 220 -25 123 -50z m4827 -131 c0 -55 -45 -100 -100 -100 -55 0 -100 45 -100 100 0 55 45 100 100 100 55 0 100 -45 100 -100z m-4350 -215 c136 -62 44 -73 -289 -38 -269 29 -663 53 -875 53 -212 0 -386 36 -386 80 0 102 1286 23 1550 -95z m-2258 -49 c23 -20 -76 -36 -219 -36 -144 0 -290 47 -325 104 -59 94 426 34 544 -68z m-3292 -75 c0 -22 -67 -66 -150 -97 -82 -32 -150 -14 -150 39 0 53 68 97 150 97 83 0 150 -18 150 -39z m4945 -169 c-66 -107 -1414 -57 -1527 57 -28 28 319 51 771 51 566 0 802 -34 756 -108z m3252 -196 c-161 -102 -397 -127 -397 -43 0 75 440 233 497 180 26 -24 -19 -86 -100 -137z m2503 6 c303 -48 730 -127 950 -176 220 -50 445 -98 500 -108 183 -33 169 -218 -17 -220 -141 -1 -152 -21 -47 -87 239 -151 -24 -189 -386 -55 -302 111 -317 130 -105 136 528 17 20 211 -651 250 -382 21 -784 63 -894 92 -110 30 -324 80 -475 112 -151 32 -275 104 -275 161 0 102 168 89 1400 -105z m-7700 -123 c0 -111 -276 -99 -346 15 -32 52 33 87 144 79 111 -9 202 -51 202 -94z m-4200 -179 c0 -55 -45 -100 -100 -100 -55 0 -100 45 -100 100 0 55 45 100 100 100 55 0 100 -45 100 -100z m1400 -56 c0 -24 -70 -44 -156 -44 -86 0 -128 46 -93 102 57 92 249 48 249 -58z m-1000 -344 c0 -55 -90 -100 -200 -100 -110 0 -200 45 -200 100 0 55 90 100 200 100 110 0 200 -45 200 -100z m350 -100 c-34 -55 -82 -100 -106 -100 -24 0 -44 45 -44 100 0 55 48 100 106 100 58 0 78 -45 44 -100z m1550 -206 c0 -58 -45 -78 -100 -44 -55 34 -100 82 -100 106 0 24 45 44 100 44 55 0 100 -48 100 -106z m12200 67 c0 -22 -67 -66 -150 -97 -82 -32 -150 -14 -150 39 0 53 68 97 150 97 83 0 150 -18 150 -39z m-14231 -335 c-154 -154 -169 -154 -169 -6 0 90 56 183 125 208 204 73 225 -21 44 -202z m-3594 -1526 c177 -615 454 -1214 688 -1488 229 -267 543 -1012 427 -1012 -54 0 -176 139 -270 310 -240 437 -534 809 -592 751 -28 -27 48 -187 168 -355 120 -168 183 -306 141 -306 -42 0 -23 -54 43 -120 135 -135 158 -280 45 -279 -85 0 -378 470 -633 1012 -94 199 -221 393 -282 431 -60 37 -110 135 -110 218 0 213 195 65 309 -236 53 -139 119 -231 146 -204 77 77 -294 1477 -392 1478 -47 0 -64 -85 -37 -189 27 -104 13 -248 -31 -320 -85 -136 -122 -24 -237 709 -48 306 -38 328 79 177 169 -221 275 -123 169 158 -44 118 -54 373 -22 565 56 338 61 331 146 -200 48 -302 158 -797 245 -1100z m17825 1444 c0 -86 -45 -128 -100 -94 -55 34 -100 104 -100 156 0 52 45 94 100 94 55 0 100 -70 100 -156z m-18440 -417 c-33 -33 -56 26 -52 131 5 117 28 141 60 61 29 -72 26 -159 -8 -192z m18740 -33 c0 -113 -43 -179 -96 -147 -52 33 -70 125 -39 206 79 207 135 183 135 -59z m-17903 -627 c131 -633 394 -1155 887 -1761 245 -302 365 -554 373 -787 l12 -343 -182 237 c-101 130 -184 308 -185 396 -1 87 -156 357 -343 600 -342 441 -759 1518 -759 1958 0 386 79 265 197 -300z m19729 -90 c172 -375 320 -1378 202 -1375 -211 4 -335 206 -428 700 -126 662 -301 890 -281 365 7 -202 -19 -400 -58 -440 -112 -111 -263 202 -198 410 32 104 9 219 -52 256 -78 48 -67 127 37 263 127 166 162 172 245 47 83 -127 106 -123 162 24 85 222 185 154 371 -250z m196 -1610 c140 -219 78 -289 -196 -220 -265 66 -421 210 -424 389 -3 119 529 -25 620 -169z m-6183 -25 c81 -210 77 -242 -27 -242 -49 0 -112 90 -141 200 -62 236 80 271 168 42z m-10173 -469 c-28 -68 -49 12 -47 177 3 165 25 220 50 123 26 -97 24 -232 -3 -300z m2634 327 c0 -55 -45 -100 -100 -100 -55 0 -100 45 -100 100 0 55 45 100 100 100 55 0 100 -45 100 -100z m14585 -675 c229 -194 400 -725 233 -725 -58 0 -133 91 -169 203 -35 111 -173 274 -306 361 -133 87 -217 198 -186 247 82 132 197 109 428 -86z m-13852 -1425 c14 -463 -13 -660 -79 -594 -55 55 -114 448 -131 872 -24 595 -5 731 80 594 61 -98 119 -490 130 -872z m15146 815 c32 -97 -14 -117 -160 -71 -137 43 -235 10 -298 -104 -117 -208 -321 -99 -321 172 0 169 56 195 367 169 202 -17 388 -92 412 -166z m-14689 -740 c6 -151 55 -275 110 -275 55 0 100 -115 100 -256 0 -145 -43 -229 -100 -194 -55 34 -100 144 -100 244 0 100 -67 238 -150 306 -155 129 -207 710 -75 841 86 87 201 -268 215 -666z m307 25 c0 -133 -11 -133 -97 0 -53 83 -97 218 -97 300 0 133 11 133 97 0 53 -82 97 -217 97 -300z m303 6 c0 -107 45 -222 100 -256 134 -83 128 -621 -9 -705 -60 -37 -160 -16 -224 48 -87 87 -84 135 13 195 97 59 105 182 35 496 -54 241 -56 416 -4 416 49 0 89 -87 89 -194z m349 -8 c-35 -56 -105 -75 -156 -44 -139 86 -113 146 63 146 86 0 128 -46 93 -102z m832 -151 c-31 -30 -87 25 -125 124 -54 142 -42 154 56 56 69 -68 99 -149 69 -180z m11099 33 c66 -66 120 -218 120 -338 0 -120 68 -274 150 -342 205 -170 188 -300 -39 -300 -192 0 -322 195 -359 540 -12 104 -95 244 -186 311 -91 67 -166 150 -166 185 0 111 355 69 480 -56z m-18003 -461 c60 -180 -147 -142 -216 39 -38 98 -15 143 58 119 65 -22 136 -93 158 -158z m4323 -31 c0 -55 -45 -72 -100 -38 -55 34 -100 107 -100 162 0 55 45 72 100 38 55 -34 100 -107 100 -162z m660 -361 c-33 -33 -56 26 -52 131 5 117 28 141 60 61 29 -72 26 -159 -8 -192z m-4158 -379 c178 -215 75 -272 -260 -145 -228 87 -256 127 -139 201 201 127 253 120 399 -56z m10098 -98 c0 -189 -109 -190 -356 -3 -186 140 -182 147 81 150 179 2 275 -49 275 -147z m858 -200 c4 -228 -39 -350 -125 -350 -73 0 -133 -54 -133 -119 0 -66 -62 -35 -138 69 -121 166 -107 220 125 464 145 152 263 278 263 281 0 2 3 -153 8 -345z m8213 188 c23 -70 -56 -94 -216 -63 -139 26 -226 90 -195 142 76 122 362 66 411 -79z m-18371 -144 c0 -58 -45 -78 -100 -44 -55 34 -100 82 -100 106 0 24 45 44 100 44 55 0 100 -48 100 -106z m9546 -344 c9 -216 -9 -230 -131 -107 -80 80 -114 216 -76 314 85 221 193 112 207 -207z m9204 250 c34 -55 17 -100 -38 -100 -55 0 -128 45 -162 100 -34 55 -17 100 38 100 55 0 128 -45 162 -100z m-7400 -300 c-34 -55 -82 -100 -106 -100 -24 0 -44 45 -44 100 0 55 48 100 106 100 58 0 78 -45 44 -100z m679 -100 c29 -110 8 -227 -45 -260 -119 -73 -140 -51 -228 235 -50 162 -29 225 76 225 79 0 168 -90 197 -200z m-3829 0 c0 -55 -45 -100 -100 -100 -55 0 -100 45 -100 100 0 55 45 100 100 100 55 0 100 -45 100 -100z m360 -273 c-101 -102 -185 51 -102 186 63 102 87 102 121 1 23 -70 15 -154 -19 -187z m740 184 c0 -113 -260 -218 -340 -137 -121 120 -55 226 140 226 110 0 200 -40 200 -89z m1000 -17 c0 -58 -45 -78 -100 -44 -55 34 -100 82 -100 106 0 24 45 44 100 44 55 0 100 -48 100 -106z m-4612 -257 l233 -163 -307 -195 c-331 -209 -514 -171 -514 107 0 167 178 414 298 414 32 0 162 -73 290 -163z m5012 -37 c0 -110 -64 -200 -142 -200 -211 0 -458 110 -458 204 0 70 100 105 525 182 41 8 75 -76 75 -186z m-7400 -11 c0 -49 -112 -89 -250 -89 -326 0 -326 146 0 164 138 8 250 -25 250 -75z m1245 -315 c-70 -184 -622 -338 -748 -209 -195 201 -128 358 203 476 396 141 653 15 545 -267z m2484 249 c213 -235 90 -424 -204 -314 -132 50 -225 169 -225 288 0 250 215 263 429 26z m1027 30 c186 -140 182 -147 -81 -150 -179 -2 -275 49 -275 147 0 189 109 190 356 3z m3194 47 c34 -55 17 -100 -38 -100 -55 0 -128 45 -162 100 -34 55 -17 100 38 100 55 0 128 -45 162 -100z m-9255 -144 c120 -145 92 -1202 -36 -1330 -35 -35 -139 11 -230 102 -142 142 -147 201 -35 411 156 292 66 761 -146 761 -81 0 -148 45 -148 100 0 153 460 119 595 -44z m9951 50 c32 -51 -6 -130 -85 -175 -79 -44 -159 -213 -177 -374 -24 -202 -127 -343 -334 -458 -165 -91 -317 -250 -337 -355 -20 -104 -93 -235 -162 -292 -143 -117 -15 -752 152 -752 128 0 125 371 -3 450 -163 101 -114 250 81 250 195 0 619 -346 619 -504 0 -53 -85 -96 -189 -96 -117 0 -251 -132 -354 -350 -208 -437 -440 -470 -379 -54 24 163 -29 508 -117 768 -195 571 -194 536 -11 536 285 0 148 183 -300 400 -477 231 -549 340 -292 439 255 98 303 75 428 -199 88 -192 164 -240 291 -186 95 40 253 69 350 65 199 -8 426 296 527 706 69 279 187 352 292 181z m580 -148 c-29 -154 -137 -264 -298 -305 -357 -89 -399 9 -128 297 301 320 486 324 426 8z m-11326 42 c0 -55 -45 -100 -100 -100 -55 0 -100 45 -100 100 0 55 45 100 100 100 55 0 100 -45 100 -100z m8246 -75 c64 -163 78 -162 212 20 111 151 169 168 263 74 94 -94 72 -155 -100 -276 -122 -85 -221 -232 -221 -327 0 -106 -77 -173 -200 -173 -250 0 -270 321 -25 396 96 30 50 39 -102 21 -325 -39 -441 88 -269 294 163 197 360 184 442 -29z m7712 -122 c324 -330 527 -387 506 -143 -8 88 87 228 211 312 204 138 225 137 225 -13 0 -91 -63 -190 -141 -219 -78 -30 -169 -168 -204 -306 -47 -189 -106 -235 -234 -182 -94 38 -317 112 -496 164 -272 78 -325 141 -325 389 0 371 92 371 458 -2z m-5976 0 c31 -93 -9 -114 -129 -68 -128 49 -160 28 -119 -81 73 -189 -117 -311 -260 -168 -79 79 -58 166 76 314 199 219 360 220 432 3z m-8040 -155 c187 -141 187 -150 5 -351 -345 -382 -870 -36 -543 358 150 181 292 179 538 -7z m5058 -205 c0 -210 -245 -280 -500 -143 -205 110 -208 126 -46 305 131 144 215 165 359 88 103 -55 187 -167 187 -250z m-1850 -105 c-135 -99 -228 -103 -388 -18 -199 107 -192 119 139 232 392 134 545 2 249 -214z m5972 -134 c-24 -163 -95 -287 -158 -275 -142 26 -215 -718 -83 -850 93 -93 -65 -432 -556 -1184 -151 -232 -224 -287 -225 -169 0 200 167 519 425 813 205 233 216 361 59 706 -91 200 -86 314 21 530 75 151 140 320 143 375 12 173 159 350 291 350 83 0 112 -101 83 -296z m-7563 -19 c94 -152 -260 -407 -484 -349 -96 25 -200 4 -231 -45 -109 -178 -321 -87 -368 157 -26 136 -24 271 5 300 103 103 1009 50 1078 -63z m391 15 c-34 -55 -82 -100 -106 -100 -24 0 -44 45 -44 100 0 55 48 100 106 100 58 0 78 -45 44 -100z m-7550 -212 c0 -55 -45 -72 -100 -38 -55 34 -100 107 -100 162 0 55 45 72 100 38 55 -34 100 -107 100 -162z m9550 112 c34 55 134 100 221 100 138 0 134 -28 -26 -206 -153 -168 -165 -240 -67 -397 100 -159 88 -208 -72 -294 -294 -157 -488 -124 -610 105 -89 166 -77 247 56 394 92 102 135 238 96 302 -54 87 -21 88 134 6 136 -73 227 -76 268 -10z m10207 -112 c91 -147 -224 -98 -350 54 -97 117 -81 133 89 88 114 -30 232 -94 261 -142z m-16205 -397 c2 -242 38 -542 82 -666 61 -173 42 -225 -80 -225 -240 0 -270 -194 -120 -775 75 -289 98 -525 51 -525 -71 0 -115 135 -73 225 32 68 -334 838 -440 926 -279 231 -778 958 -721 1050 112 181 207 103 428 -351 212 -436 518 -598 669 -353 71 114 -290 854 -472 969 -85 54 -28 101 174 144 453 98 500 60 502 -419z m4737 321 c269 -207 220 -264 -315 -364 -326 -61 -374 -46 -374 121 0 209 179 432 345 429 58 -1 212 -85 344 -186z m10822 -141 c-81 -81 -111 -70 -111 42 0 199 134 334 184 185 21 -64 -12 -166 -73 -227z m-18711 -183 c0 -165 -40 -275 -88 -245 -103 63 -206 529 -134 602 109 109 222 -73 222 -357z m11100 312 c98 -63 107 -97 26 -98 -68 -1 -117 -81 -109 -177 32 -381 -18 -518 -167 -461 -154 59 -198 395 -89 678 70 182 131 193 339 58z m2405 -191 c-105 -197 -305 -289 -305 -142 0 100 325 441 374 392 23 -23 -8 -136 -69 -250z m-3432 122 c-97 -26 -232 -24 -300 3 -68 28 12 49 177 47 165 -3 220 -25 123 -50z m2266 -88 c88 -229 -96 -511 -378 -581 -327 -82 -530 7 -596 262 -72 273 -2 376 253 376 172 0 186 -25 82 -150 -102 -123 -94 -150 47 -150 95 0 195 90 224 200 62 238 283 264 368 43z m2101 -202 c68 -177 -2 -341 -146 -341 -52 0 -94 113 -94 250 0 280 146 335 240 91z m-9174 -266 c-28 -69 -50 -12 -50 125 0 138 22 194 50 125 28 -69 28 -181 0 -250z m13834 25 c0 -165 -45 -300 -100 -300 -55 0 -100 135 -100 300 0 165 45 300 100 300 55 0 100 -135 100 -300z m-8900 6 c0 -232 -153 -345 -359 -266 -117 44 -126 101 -42 259 138 256 401 261 401 7z m-8842 -256 c4 -193 -30 -350 -75 -350 -130 0 -97 -434 67 -900 83 -234 149 -543 147 -688 -3 -239 -15 -247 -136 -87 -73 96 -196 176 -272 178 -232 5 -489 257 -489 478 0 115 113 330 250 478 138 149 249 387 248 531 -1 195 -24 224 -92 116 -77 -122 -115 -123 -257 -5 -156 129 -156 147 2 262 93 68 232 99 309 69 84 -32 140 10 140 107 0 328 150 147 158 -189z m4742 50 c0 -104 -45 -216 -100 -250 -58 -36 -100 68 -100 250 0 182 42 286 100 250 55 -34 100 -146 100 -250z m2100 100 c0 -55 -42 -100 -94 -100 -52 0 -122 45 -156 100 -34 55 8 100 94 100 86 0 156 -45 156 -100z m-1600 -300 c0 -55 -48 -100 -106 -100 -58 0 -78 45 -44 100 34 55 82 100 106 100 24 0 44 -45 44 -100z m1347 -227 c-81 -46 -147 -191 -147 -322 0 -132 -92 -395 -204 -586 -138 -234 -183 -430 -139 -606 64 -258 -10 -322 -214 -182 -114 78 -121 474 -12 723 37 83 56 350 43 594 -21 381 10 462 216 567 181 92 284 94 422 8 155 -97 161 -126 35 -196z m1587 -289 c213 -181 213 -186 22 -334 -280 -217 -349 -190 -510 193 -78 189 -189 372 -244 406 -185 114 -106 237 173 269 207 24 283 -16 309 -159 19 -106 131 -274 250 -375z m-4187 321 c68 -110 -337 -359 -522 -322 -164 34 -159 -136 13 -412 179 -288 286 -871 160 -871 -54 0 -98 113 -98 250 0 174 -55 250 -180 250 -447 0 -568 597 -195 965 230 228 716 311 822 140z m11550 -674 c5 -217 -164 -227 -382 -24 -118 111 -215 292 -215 403 0 135 -41 177 -125 127 -77 -46 -69 -6 20 103 136 168 162 159 422 -156 153 -184 279 -388 280 -453z m-14500 76 c187 -451 291 -1003 200 -1059 -91 -56 -152 108 -252 673 -82 463 -287 665 -425 419 -87 -156 -107 -151 -216 52 -66 123 -96 285 -67 361 83 216 615 -96 760 -446z m7959 203 c-97 -157 -225 -136 -296 49 -95 248 42 382 214 210 82 -82 119 -199 82 -259z m8344 297 c0 -211 333 -420 574 -360 176 44 233 25 201 -68 -92 -270 -975 68 -975 373 0 82 45 148 100 148 55 0 100 -42 100 -93z m-12020 -227 c164 -164 151 -430 -30 -580 -82 -68 -150 -274 -150 -456 0 -183 -48 -362 -106 -398 -59 -36 -154 -185 -211 -331 -98 -247 -110 -252 -179 -65 -41 110 -27 275 30 367 80 129 42 257 -168 560 -267 386 -276 590 -38 898 123 159 694 163 852 5z m4720 17 c130 -87 124 -121 -44 -249 -197 -150 -476 -194 -578 -92 -31 30 -33 143 -5 250 55 211 377 258 627 91z m900 -47 c0 -161 -92 -185 -342 -89 -243 93 -187 239 92 239 156 0 250 -57 250 -150z m2052 -443 c-79 -359 -252 -412 -252 -77 0 220 191 512 278 425 22 -22 11 -179 -26 -348z m648 149 c0 -198 -130 -261 -305 -149 -126 81 -126 106 5 191 210 138 300 126 300 -42z m337 -229 c-45 -247 -229 -469 -316 -381 -41 41 264 654 325 654 22 0 18 -123 -9 -273z m273 -98 c-96 -165 -104 -163 -107 29 -3 232 124 412 177 252 19 -56 -13 -183 -70 -281z m-17528 46 c-18 -124 -99 -225 -182 -225 -82 0 -164 101 -182 225 -25 173 17 225 182 225 165 0 207 -52 182 -225z m2318 -77 c0 -45 -44 -96 -97 -115 -53 -18 -107 -176 -121 -351 -13 -175 -60 -296 -104 -268 -45 27 -54 94 -21 147 77 124 -150 405 -268 332 -201 -124 -71 144 136 282 221 147 475 132 475 -27z m11593 15 c55 -103 73 -214 39 -247 -33 -34 -4 -129 65 -212 69 -83 94 -231 56 -328 -57 -145 -103 -111 -260 193 -105 203 -286 435 -401 516 -197 138 -199 150 -26 194 345 89 427 71 527 -116z m-3143 -109 c0 -226 -659 -326 -873 -133 -253 229 -134 317 399 297 341 -13 474 -59 474 -164z m1524 25 c51 -155 -677 -466 -801 -342 -55 55 -46 177 24 308 88 164 192 209 427 186 171 -17 328 -85 350 -152z m-6467 -33 c264 -141 243 -296 -40 -296 -285 0 -370 75 -299 260 64 168 89 170 339 36z m9993 -408 c0 -229 -39 -232 -353 -27 -297 195 -245 330 101 264 163 -31 252 -115 252 -237z m2550 212 c34 -55 -34 -100 -150 -100 -116 0 -184 45 -150 100 34 55 101 100 150 100 49 0 116 -45 150 -100z m-692 -200 c279 0 326 -155 67 -222 -276 -72 -426 20 -417 255 4 120 30 161 58 92 28 -69 159 -125 292 -125z m-16958 -224 c0 -56 -66 -45 -150 24 -82 68 -150 169 -150 224 0 56 66 45 150 -24 83 -68 150 -169 150 -224z m11161 -61 c448 33 488 16 670 -295 246 -421 167 -498 -220 -212 -191 141 -432 220 -648 212 -192 -7 -397 51 -464 131 -65 79 -283 175 -484 213 l-365 69 300 125 c264 110 326 101 517 -76 169 -157 322 -194 694 -167z m7189 -148 c0 -478 -191 -415 -232 76 -23 278 4 366 100 334 77 -26 132 -196 132 -410z m-17484 8 c-28 -69 -50 -12 -50 125 0 138 22 194 50 125 28 -69 28 -181 0 -250z m8535 76 c-125 -150 -301 -118 -301 55 0 52 96 94 212 94 177 0 192 -25 89 -149z m4799 -51 c0 -55 -45 -100 -100 -100 -55 0 -100 45 -100 100 0 55 45 100 100 100 55 0 100 -45 100 -100z m-13500 -256 c0 -24 -45 -44 -100 -44 -55 0 -100 48 -100 106 0 58 45 78 100 44 55 -34 100 -82 100 -106z m4643 -101 c190 -190 197 -243 31 -243 -69 0 -182 90 -251 200 -148 238 -3 266 220 43z m8607 57 c34 -55 -8 -100 -94 -100 -86 0 -156 45 -156 100 0 55 42 100 94 100 52 0 122 -45 156 -100z"/>
<path d="M6724 20831 c95 -25 275 -26 400 -2 124 24 46 45 -174 46 -220 1 -322 -19 -226 -44z"/>
<path d="M7800 20300 c0 -55 70 -100 156 -100 86 0 128 45 94 100 -34 55 -104 100 -156 100 -52 0 -94 -45 -94 -100z"/>
<path d="M22300 4706 c0 -58 45 -106 100 -106 55 0 100 20 100 44 0 24 -45 72 -100 106 -55 34 -100 14 -100 -44z"/>
<path d="M4242 1752 c-77 -306 -14 -401 211 -315 96 37 148 149 129 280 -47 317 -264 340 -340 35z"/>
<path d="M9483 2153 c-91 -200 -90 -286 4 -380 95 -95 142 -89 216 28 124 196 122 472 -3 549 -54 34 -152 -55 -217 -197z"/>
<path d="M8900 24900 l-750 -64 925 -18 c562 -11 925 21 925 82 0 55 -79 92 -175 82 -96 -10 -512 -47 -925 -82z"/>
<path d="M13900 24900 c-222 -71 -207 -81 131 -90 231 -6 356 29 319 90 -69 112 -99 112 -450 0z"/>
<path d="M20668 23725 c15 -701 72 -1657 126 -2125 54 -467 125 -1300 157 -1850 33 -550 127 -1460 210 -2021 174 -1185 196 -1747 97 -2579 -50 -431 -30 -699 73 -950 79 -193 174 -664 211 -1048 38 -384 126 -766 196 -850 253 -301 498 -1164 505 -1778 6 -518 33 -615 157 -559 83 37 363 139 624 226 504 169 662 376 201 264 -779 -191 -725 -201 -725 140 0 287 51 338 550 559 714 316 709 403 -7 135 -306 -115 -582 -184 -612 -153 -103 102 63 368 292 469 210 92 207 96 -46 46 -255 -50 -294 -10 -560 578 -184 404 -306 872 -340 1302 -30 369 -110 738 -177 819 -99 119 -88 299 52 896 182 772 177 881 -98 2400 -80 438 -130 811 -112 829 43 43 554 -282 1720 -1096 894 -623 1443 -1144 1718 -1629 93 -164 114 -74 117 501 3 605 -26 719 -207 832 -115 72 -184 157 -152 188 31 32 126 1 210 -69 126 -105 152 -97 152 50 0 97 -79 236 -175 309 -167 126 -167 133 0 136 320 6 181 203 -150 213 -179 5 -437 46 -575 90 -264 84 -255 86 616 140 91 5 200 44 242 85 134 133 -999 79 -1595 -76 -319 -83 -626 -122 -684 -86 -140 87 404 307 967 392 251 37 485 114 519 170 91 147 -1036 0 -1447 -189 -332 -152 -681 -119 -574 55 31 50 248 122 482 158 707 112 1183 256 1129 342 -50 82 -732 -20 -1312 -197 -380 -116 -772 -122 -703 -11 28 46 289 137 580 203 548 123 861 266 774 353 -70 71 -885 -118 -1259 -293 -363 -168 -435 -179 -435 -61 0 92 529 335 1125 516 206 63 375 161 375 217 0 57 -65 79 -144 48 -79 -30 -332 -106 -563 -168 -231 -62 -501 -164 -602 -227 -194 -121 -351 -49 -250 114 34 55 274 178 535 274 567 208 816 402 374 292 -946 -237 -962 -238 -931 -76 17 87 189 215 381 286 l350 129 -425 -58 c-345 -47 -425 -28 -425 101 0 101 125 181 349 223 192 36 325 105 296 152 -29 47 -186 59 -349 26 -188 -37 -296 -18 -296 54 0 61 65 112 144 112 79 0 174 49 211 108 40 65 -8 100 -119 89 -312 -33 -365 -3 -246 141 89 107 80 152 -37 197 -197 76 -199 265 -3 265 83 0 150 45 150 100 0 55 -97 100 -215 100 -209 0 -210 7 -37 198 165 182 166 203 13 262 -98 37 -134 110 -89 177 43 62 64 619 47 1238 -28 990 -52 1125 -205 1125 -158 0 -171 -120 -146 -1275z m3028 -5872 c-93 -93 -236 -124 -391 -83 -226 59 -230 69 -50 140 107 42 283 79 391 83 173 6 179 -11 50 -140z"/>
<path d="M12750 24700 l-500 -69 550 -14 c303 -8 618 30 700 83 174 112 69 112 -750 0z"/>
<path d="M9805 24586 c-574 -47 -1090 -131 -1146 -187 -70 -70 -8 -87 194 -53 288 48 1568 143 2022 150 124 2 225 49 225 104 0 55 -56 94 -125 86 -69 -8 -595 -52 -1170 -100z"/>
<path d="M17950 24600 c-34 -55 -17 -100 38 -100 55 0 128 45 162 100 34 55 17 100 -38 100 -55 0 -128 -45 -162 -100z"/>
<path d="M16600 24300 c0 -55 20 -100 44 -100 24 0 72 45 106 100 34 55 14 100 -44 100 -58 0 -106 -45 -106 -100z"/>
<path d="M18061 23942 c-38 -98 -15 -143 58 -119 149 50 231 277 100 277 -54 0 -125 -71 -158 -158z"/>
<path d="M14300 23750 c-145 -83 -187 -143 -100 -143 82 0 237 65 344 146 247 187 85 185 -244 -3z"/>
<path d="M13300 23500 c0 -55 93 -100 206 -100 113 0 178 45 144 100 -34 55 -127 100 -206 100 -79 0 -144 -45 -144 -100z"/>
<path d="M14950 23500 c-34 -55 -17 -100 38 -100 55 0 128 45 162 100 34 55 17 100 -38 100 -55 0 -128 -45 -162 -100z"/>
<path d="M18203 23504 c-81 -51 -114 -127 -73 -168 41 -41 151 2 244 95 181 181 72 227 -171 73z"/>
<path d="M12500 23300 c-133 -86 -133 -97 0 -97 83 0 218 44 300 97 133 86 133 97 0 97 -82 0 -217 -44 -300 -97z"/>
<path d="M14466 23255 c-37 -97 -8 -126 89 -89 79 30 119 95 89 144 -77 124 -114 113 -178 -55z"/>
<path d="M14714 22991 c-596 -323 -432 -406 183 -92 365 186 615 412 434 392 -45 -4 -322 -139 -617 -300z"/>
<path d="M13304 23105 c-106 -67 -58 -90 175 -84 177 5 321 48 321 94 0 113 -312 106 -496 -10z"/>
<path d="M18300 23000 c0 -55 45 -100 100 -100 55 0 100 45 100 100 0 55 -45 100 -100 100 -55 0 -100 -45 -100 -100z"/>
<path d="M17300 22500 c0 -55 42 -100 94 -100 52 0 122 45 156 100 34 55 -8 100 -94 100 -86 0 -156 -45 -156 -100z"/>
<path d="M18450 22500 c-34 -55 -17 -100 38 -100 55 0 128 45 162 100 34 55 17 100 -38 100 -55 0 -128 -45 -162 -100z"/>
<path d="M14600 22300 c-129 -84 -127 -97 19 -98 93 -1 197 43 231 98 78 127 -54 127 -250 0z"/>
<path d="M18646 21693 c-36 -58 -42 -130 -13 -160 72 -71 267 55 267 173 0 128 -173 119 -254 -13z"/>
<path d="M9100 21256 c0 -24 45 -72 100 -106 55 -34 100 -14 100 44 0 58 -45 106 -100 106 -55 0 -100 -20 -100 -44z"/>
<path d="M19021 20646 c-71 -80 -88 -146 -37 -146 50 0 148 68 216 150 160 193 -8 190 -179 -4z"/>
<path d="M19143 20157 c-106 -77 -167 -166 -136 -198 32 -31 144 6 250 84 106 77 167 166 136 198 -32 31 -144 -6 -250 -84z"/>
<path d="M19203 19704 c-81 -51 -114 -127 -73 -168 41 -41 151 2 244 95 181 181 72 227 -171 73z"/>
<path d="M19200 19200 c0 -55 45 -100 100 -100 55 0 100 45 100 100 0 55 -45 100 -100 100 -55 0 -100 -45 -100 -100z"/>
<path d="M19500 18200 c0 -55 20 -100 44 -100 24 0 72 45 106 100 34 55 14 100 -44 100 -58 0 -106 -45 -106 -100z"/>
<path d="M19300 17856 c0 -106 192 -150 249 -58 35 56 -7 102 -93 102 -86 0 -156 -20 -156 -44z"/>
<path d="M14300 16498 c0 -108 649 -297 1025 -297 151 -1 275 44 275 99 0 55 -147 100 -326 100 -179 0 -471 42 -650 93 -184 53 -324 55 -324 5z"/>
<path d="M14600 15911 c0 -46 239 -112 530 -146 292 -34 674 -91 850 -126 198 -40 320 -24 320 41 0 58 -259 133 -575 167 -316 33 -699 80 -850 104 -151 24 -275 6 -275 -40z"/>
<path d="M17600 14997 c0 -53 68 -97 150 -97 83 0 150 18 150 39 0 22 -67 66 -150 97 -82 32 -150 14 -150 -39z"/>
<path d="M3520 14180 c-66 -66 -120 -208 -120 -315 0 -190 6 -190 200 -15 200 181 271 450 120 450 -44 0 -134 -54 -200 -120z"/>
<path d="M2800 13600 c0 -55 42 -100 94 -100 52 0 122 45 156 100 34 55 -8 100 -94 100 -86 0 -156 -45 -156 -100z"/>
<path d="M22700 13406 c0 -58 45 -106 100 -106 55 0 100 20 100 44 0 24 -45 72 -100 106 -55 34 -100 14 -100 -44z"/>
<path d="M12351 12902 c-35 -56 7 -102 93 -102 176 0 202 60 63 146 -51 31 -121 12 -156 -44z"/>
<path d="M22700 12600 c0 -55 45 -100 100 -100 55 0 100 45 100 100 0 55 -45 100 -100 100 -55 0 -100 -45 -100 -100z"/>
<path d="M11300 12500 c-114 -74 -74 -97 169 -98 176 -1 347 43 381 98 79 128 -352 128 -550 0z"/>
<path d="M12650 12100 c-34 -55 31 -100 144 -100 113 0 206 45 206 100 0 55 -65 100 -144 100 -79 0 -172 -45 -206 -100z"/>
<path d="M22625 12134 c-205 -83 -142 -220 75 -163 110 29 200 92 200 141 0 95 -78 101 -275 22z"/>
<path d="M6800 11900 c0 -55 45 -100 100 -100 55 0 100 45 100 100 0 55 -45 100 -100 100 -55 0 -100 -45 -100 -100z"/>
<path d="M23027 11840 c33 -34 120 -37 192 -8 80 32 56 55 -61 60 -105 4 -164 -19 -131 -52z"/>
<path d="M24166 11638 c-156 -84 -263 -174 -238 -200 67 -66 572 179 572 278 0 105 7 107 -334 -78z"/>
<path d="M24350 11200 c-34 -55 8 -100 94 -100 86 0 156 45 156 100 0 55 -42 100 -94 100 -52 0 -122 -45 -156 -100z"/>
<path d="M7054 11007 c-31 -51 -12 -121 44 -156 56 -35 102 7 102 93 0 176 -60 202 -146 63z"/>
<path d="M16647 10899 c-248 -93 -500 -380 -412 -467 35 -35 146 11 247 102 101 91 234 166 295 166 141 0 252 171 150 231 -43 25 -169 11 -280 -32z"/>
<path d="M23200 10928 c-82 -31 -257 -97 -389 -145 -131 -49 -214 -113 -185 -143 77 -77 874 174 874 276 0 93 -76 96 -300 12z"/>
<path d="M17013 9966 c-61 -74 -82 -164 -46 -199 75 -75 333 115 333 245 0 132 -161 106 -287 -46z"/>
<path d="M17813 10030 c-127 -51 -274 -171 -738 -602 -162 -151 -175 -150 -175 5 0 92 -45 167 -100 167 -55 0 -100 -135 -100 -300 0 -165 -9 -334 -19 -375 -11 -41 83 -126 208 -188 125 -63 278 -164 339 -225 182 -182 552 -132 620 83 34 107 150 223 257 257 229 72 264 348 45 348 -82 0 -150 -45 -150 -100 0 -55 -91 -100 -203 -100 -112 0 -229 -67 -261 -150 -73 -190 -436 -197 -436 -8 0 78 124 187 275 242 151 55 219 104 150 108 -239 15 -123 208 125 208 138 0 250 45 250 100 0 55 65 100 144 100 211 0 291 187 152 354 -128 155 -165 162 -383 76z"/>
<path d="M19750 9300 c-100 -110 -261 -200 -358 -200 -250 0 -492 -271 -492 -551 0 -358 193 -405 465 -111 283 305 509 333 696 87 121 -160 133 -152 136 88 2 144 -64 318 -145 385 -110 91 -122 172 -46 313 133 249 -27 242 -256 -11z"/>
<path d="M23927 9440 c33 -34 120 -37 192 -8 80 32 56 55 -61 60 -105 4 -164 -19 -131 -52z"/>
<path d="M23213 9235 c52 -63 183 -91 292 -63 342 90 313 215 -44 196 -245 -13 -316 -51 -248 -133z"/>
<path d="M24850 8900 c-34 -55 -14 -100 44 -100 58 0 106 45 106 100 0 55 -20 100 -44 100 -24 0 -72 -45 -106 -100z"/>
<path d="M5447 8675 c39 -124 106 -382 150 -575 44 -192 89 -305 99 -250 11 55 36 186 55 292 36 190 -201 758 -315 758 -33 0 -28 -101 11 -225z"/>
<path d="M3400 8590 c0 -238 330 -787 567 -942 341 -223 426 -100 106 152 -142 112 -310 360 -374 552 -108 327 -299 480 -299 238z"/>
<path d="M24587 8234 c-124 -151 -116 -156 88 -47 233 124 290 213 137 213 -48 0 -149 -75 -225 -166z"/>
<path d="M19475 8170 c-151 -60 -275 -145 -275 -189 0 -158 372 -78 550 119 199 220 141 234 -275 70z"/>
<path d="M20085 8010 c-133 -105 -353 -206 -488 -225 -322 -46 -319 -227 4 -264 180 -21 349 71 595 325 365 376 294 482 -111 164z"/>
<path d="M5200 8000 c0 -55 45 -100 100 -100 55 0 100 45 100 100 0 55 -45 100 -100 100 -55 0 -100 -45 -100 -100z"/>
<path d="M23440 7529 c29 -177 10 -348 -43 -381 -53 -33 -97 -109 -97 -169 0 -61 90 -29 200 71 241 218 250 350 43 606 -149 184 -155 178 -103 -127z"/>
<path d="M24367 7733 c-37 -36 -67 -113 -67 -170 0 -62 47 -56 118 15 65 65 95 142 67 170 -28 29 -82 22 -118 -15z"/>
<path d="M22655 7441 c-137 -100 -151 -141 -49 -139 201 2 433 162 329 227 -48 29 -174 -10 -280 -88z"/>
<path d="M22650 7011 c-209 -45 -260 -90 -169 -148 159 -100 619 3 619 139 0 106 -4 106 -450 9z"/>
<path d="M20558 6794 c726 -775 843 -841 840 -469 -2 228 -392 825 -396 606 -1 -66 43 -147 98 -181 130 -81 129 -250 -2 -250 -56 0 -154 113 -216 250 -67 146 -198 250 -316 250 -199 0 -199 -2 -8 -206z"/>
<path d="M22600 6606 c0 -58 45 -106 100 -106 55 0 100 20 100 44 0 24 -45 72 -100 106 -55 34 -100 14 -100 -44z"/>
<path d="M19576 6403 c-194 -226 -116 -314 174 -198 110 45 138 84 63 88 -111 6 -113 36 -13 157 68 83 84 150 34 150 -49 0 -165 -88 -258 -197z"/>
<path d="M16958 6413 c-43 -69 -51 -153 -18 -186 89 -90 187 42 139 187 -34 101 -58 101 -121 -1z"/>
<path d="M20500 6369 c0 -72 71 -218 157 -325 152 -187 156 -185 102 56 -31 138 -57 284 -58 325 -2 134 -201 79 -201 -56z"/>
<path d="M21800 6199 c179 -114 500 -130 500 -24 0 41 -147 85 -325 97 -240 17 -286 -3 -175 -73z"/>
<path d="M19775 5868 c-308 -253 -347 -368 -125 -368 83 0 150 -67 150 -150 0 -82 45 -150 100 -150 55 0 100 135 100 300 0 165 45 300 100 300 55 0 100 -90 100 -200 0 -110 45 -200 100 -200 55 0 100 19 100 42 0 23 25 107 56 187 52 137 -192 475 -338 467 -37 -2 -192 -105 -343 -228z"/>
<path d="M20700 5600 c0 -55 45 -100 100 -100 55 0 100 45 100 100 0 55 -45 100 -100 100 -55 0 -100 -45 -100 -100z"/>
<path d="M666 4556 c-137 -299 -343 -602 -458 -674 -118 -74 -208 -235 -208 -374 0 -237 9 -235 309 99 463 514 925 1493 705 1493 -55 0 -211 -245 -348 -544z"/>
<path d="M20354 4675 c73 -341 121 -436 184 -367 76 83 -63 692 -157 692 -57 0 -68 -135 -27 -325z"/>
<path d="M19304 4755 c-154 -186 -102 -454 116 -591 229 -144 343 -10 169 199 -76 92 -125 251 -108 352 38 223 -15 235 -177 40z"/>
<path d="M20002 4348 c70 -84 147 -132 172 -107 70 69 -71 259 -192 259 -66 0 -59 -57 20 -152z"/>
<path d="M19600 3850 c0 -83 45 -150 100 -150 55 0 100 67 100 150 0 83 -45 150 -100 150 -55 0 -100 -67 -100 -150z"/>
<path d="M21000 2816 c0 -160 68 -348 150 -416 83 -68 151 -85 151 -37 1 48 28 184 60 303 41 155 -2 249 -152 329 -190 102 -209 85 -209 -179z"/>
<path d="M21539 558 c-85 -222 25 -458 215 -458 114 0 150 76 128 267 -37 306 -252 427 -343 191z"/>
<path d="M3275 34 c69 -28 181 -28 250 0 69 28 13 50 -125 50 -137 0 -194 -22 -125 -50z"/>
</g>
</svg>