<svg xmlns="http://www.w3.org/2000/svg" version="1.0" width="250" height="250" viewBox="0 0 250.000000 250.000000" preserveAspectRatio="xMidYMid meet">
<metadata>
Created by potrace 1.10, written by Peter Selinger 2001-2011
</metadata>
<g transform="translate(0.000000,250.000000) scale(0.010000,-0.010000)" fill="#555555" stroke="none">
<path d="M0 24707 c0 -162 47 -417 104 -567 63 -165 67 -297 11 -332 -52 -33 -93 -1080 -93 -2408 l-2 -2350 182 500 c122 333 185 423 190 269 12 -335 -207 -1158 -329 -1237 -69 -46 -57 -155 37 -332 111 -208 115 -302 20 -455 -140 -224 -167 -1836 -29 -1751 49 31 67 146 38 256 -29 112 -3 200 59 200 167 0 135 -662 -40 -837 -118 -119 -148 -388 -137 -1252 l15 -1101 762 600 c1588 1252 2625 2010 2677 1958 150 -150 -115 -667 -513 -1000 -242 -202 -471 -368 -510 -368 -38 0 -260 -169 -493 -375 -608 -538 -1144 -952 -1563 -1206 l-364 -222 -11 -742 c-6 -409 29 -768 79 -799 50 -31 69 -142 42 -246 -36 -138 55 -262 332 -450 840 -571 1426 -210 2634 1625 339 514 639 911 668 883 28 -29 -110 -448 -307 -931 -198 -484 -359 -931 -359 -993 0 -257 -330 -747 -630 -933 -176 -110 -377 -292 -446 -405 -69 -113 -191 -206 -271 -206 -163 0 -381 338 -283 437 35 35 13 63 -47 63 -211 0 -240 -210 -66 -474 120 -183 138 -278 58 -304 -64 -22 -91 -80 -60 -131 77 -124 645 -116 645 9 0 55 -74 100 -164 100 -130 0 -115 48 75 237 132 130 333 265 448 301 357 111 601 476 980 1462 377 982 631 1477 512 1000 -68 -273 -188 -594 -607 -1626 -151 -372 -247 -704 -213 -738 55 -56 126 80 371 714 43 110 154 373 247 585 94 212 249 617 345 900 158 466 358 657 355 340 -6 -618 -186 -1677 -283 -1666 -296 37 -377 -16 -317 -206 78 -247 -222 -929 -634 -1440 -172 -213 -291 -421 -265 -464 72 -116 -640 -624 -793 -566 -73 28 -179 5 -236 -52 -57 -57 -153 -73 -214 -36 -138 86 -507 801 -507 983 0 287 -313 1172 -415 1172 -64 0 -82 -100 -45 -247 47 -184 28 -234 -73 -196 -107 42 -140 -120 -152 -755 -8 -444 -57 -995 -109 -1224 -51 -230 -76 -445 -55 -479 21 -34 -25 -239 -102 -456 -109 -304 -141 -1108 -145 -3568 l-4 -3175 525 0 525 0 -31 1050 c-23 765 1 1050 88 1050 81 0 100 -115 60 -364 -66 -410 64 -736 293 -736 108 0 135 59 90 200 -50 156 -18 200 143 200 163 0 207 -63 207 -300 0 -394 148 -382 311 25 l130 325 35 -481 c29 -388 68 -475 205 -449 139 28 163 128 134 561 l-34 528 270 -68 c252 -63 263 -53 156 145 -92 174 -86 214 33 214 92 0 159 -119 179 -316 61 -621 781 -367 781 276 0 180 45 356 100 390 147 91 124 -684 -25 -842 -100 -106 -100 -142 0 -179 81 -29 125 -255 125 -637 0 -512 25 -592 188 -592 256 0 324 410 206 1243 -76 532 -63 784 62 1213 187 644 396 855 277 279 -209 -1014 26 -1638 856 -2269 532 -404 676 -466 1087 -464 362 1 439 26 324 107 -115 82 -79 93 150 49 165 -31 525 -80 800 -108 434 -45 464 -37 225 57 -418 166 -328 279 125 158 220 -58 400 -142 400 -186 0 -43 93 -79 206 -79 113 0 180 41 149 91 -31 51 0 111 69 134 99 33 96 78 -11 209 -76 91 -175 166 -220 166 -46 0 -205 114 -355 253 -443 409 -146 455 493 76 572 -340 579 -349 425 -584 -207 -316 -199 -345 91 -345 179 0 294 91 415 325 91 179 261 442 377 586 116 144 279 362 361 484 261 390 480 628 1620 1773 1225 1230 1956 1721 2314 1554 212 -99 212 -102 16 -172 -1010 -362 -1919 -1124 -3100 -2600 -220 -275 -433 -515 -472 -532 -107 -48 -778 -1175 -778 -1306 0 -62 68 -112 150 -112 83 0 150 68 150 152 0 194 386 797 798 1248 176 193 463 547 636 788 363 504 1843 1807 2066 1820 318 18 943 446 999 685 88 377 221 337 628 -191 212 -275 474 -502 600 -520 196 -28 684 -665 1336 -1744 186 -308 251 -97 90 290 -185 442 -106 972 145 972 109 0 207 -119 265 -321 74 -259 160 -336 437 -392 190 -39 364 -130 388 -202 24 -72 176 -245 337 -383 287 -247 1075 -1320 1075 -1464 0 -40 -101 16 -225 125 -321 282 -1139 671 -1258 598 -55 -34 -228 43 -384 173 -228 189 -492 259 -1362 361 -1067 124 -1082 123 -1424 -110 -212 -144 -346 -318 -346 -449 -1 -215 848 -1336 1011 -1336 159 0 93 123 -362 676 -247 301 -450 579 -450 618 0 39 110 174 244 301 196 183 311 216 575 163 182 -36 444 -80 581 -96 138 -17 302 -38 366 -46 64 -9 92 -105 63 -216 -61 -232 148 -277 235 -50 97 254 566 173 933 -162 l342 -312 -285 -149 c-173 -91 -429 -130 -657 -99 -329 44 -372 25 -372 -165 0 -224 440 -632 556 -515 37 37 -11 111 -107 164 -218 123 -226 288 -13 288 88 0 249 -112 357 -250 108 -137 289 -250 403 -250 190 0 185 16 -58 207 -144 114 -263 249 -263 300 0 178 260 91 604 -203 190 -163 436 -297 546 -298 183 -1 179 15 -50 203 -137 112 -379 262 -538 334 -176 79 -244 157 -175 199 62 38 113 157 113 264 0 234 -17 232 463 35 431 -178 937 -611 937 -803 0 -142 195 -206 699 -229 330 -15 338 -8 150 134 -110 83 -253 152 -318 154 -204 5 -251 197 -89 360 141 140 188 131 487 -98 362 -276 977 -559 1215 -559 269 0 52 286 -307 404 -190 63 -548 269 -795 457 -350 267 -488 321 -629 246 -153 -82 -246 -1 -595 523 -483 723 -1469 1712 -1616 1621 -117 -72 -333 418 -247 557 31 51 114 92 184 92 135 0 1461 -1280 1461 -1410 0 -42 89 -105 198 -139 109 -35 275 -194 370 -354 94 -160 294 -334 444 -386 150 -52 324 -191 386 -308 77 -144 174 -194 299 -154 219 70 1265 -671 1357 -961 75 -236 646 -270 646 -38 0 192 141 192 300 0 164 -198 700 -200 700 -3 0 82 -59 124 -134 95 -74 -28 -195 23 -270 113 -118 142 -99 237 134 682 222 424 270 647 270 1247 0 851 -56 833 -589 -186 -187 -356 -375 -688 -419 -737 -117 -131 -402 198 -331 383 45 116 18 142 -100 96 -117 -44 -161 -3 -161 149 0 269 -70 266 -314 -14 l-196 -225 63 325 c61 313 345 911 712 1496 245 390 1168 1572 1260 1612 41 19 75 129 75 245 0 191 -34 178 -350 -128 -192 -187 -350 -291 -350 -233 0 174 404 633 557 633 114 0 143 200 143 1000 0 550 -19 1000 -42 1000 -23 0 -139 -158 -259 -351 -119 -193 -337 -475 -483 -625 -147 -151 -558 -604 -914 -1006 -356 -403 -663 -684 -683 -625 -50 151 529 879 1806 2274 316 345 573 708 571 805 -3 131 -88 79 -325 -197 -352 -411 -481 -453 -674 -222 -70 85 -177 136 -237 115 -61 -22 -239 51 -398 162 l-287 202 -191 -241 c-335 -423 -1426 -1985 -1652 -2365 -223 -372 -204 -696 22 -387 68 92 175 156 238 140 63 -16 292 174 508 421 427 487 563 409 147 -85 -141 -168 -209 -326 -155 -360 54 -33 152 42 219 167 164 311 880 998 997 959 53 -18 -29 -174 -181 -346 -152 -173 -434 -546 -627 -829 -192 -282 -442 -635 -555 -785 -112 -149 -334 -608 -493 -1021 -312 -811 -502 -1125 -409 -675 31 151 82 393 112 538 44 208 23 250 -100 203 -102 -39 -155 -3 -155 106 0 143 -22 139 -155 -28 -145 -182 -151 -173 -94 156 l61 350 -199 -249 c-110 -136 -225 -222 -257 -191 -158 158 659 1877 1225 2577 1195 1480 1622 2241 1697 3020 49 509 100 575 297 378 82 -82 85 -172 13 -308 -57 -106 -74 -268 -38 -360 51 -132 94 -99 202 155 l136 323 353 -148 c194 -81 489 -147 656 -147 287 0 303 21 303 400 0 411 -143 517 -378 282 -166 -166 -288 -9 -154 198 61 93 205 159 321 146 192 -22 210 23 198 500 l-12 524 -104 -371 c-102 -363 -335 -563 -475 -407 -115 128 -191 828 -90 828 52 0 94 -112 94 -250 0 -163 56 -250 161 -250 123 0 145 61 95 262 -51 202 -16 297 152 415 206 144 214 202 155 1162 -34 556 -91 1186 -125 1400 -45 275 -30 368 49 319 72 -45 113 19 113 175 0 135 -67 272 -150 303 -82 32 -150 148 -150 258 0 136 47 182 150 142 131 -50 148 278 136 2628 -7 1477 -30 2574 -52 2436 -148 -965 -69 -875 -761 -871 -483 3 -740 -56 -1145 -262 -765 -391 -828 -370 -828 285 l0 553 231 -152 c216 -141 264 -131 689 138 251 159 487 339 524 399 37 61 142 110 233 110 272 0 1123 965 1123 1273 l0 269 -425 -410 c-810 -781 -970 -899 -1382 -1022 -227 -68 -471 -146 -541 -173 -77 -30 -154 62 -194 232 -37 155 -91 360 -119 456 -38 126 4 175 151 175 112 0 374 94 582 208 444 245 1928 1680 1928 1865 0 77 -82 45 -208 -81 -313 -313 -356 -146 -54 211 144 172 262 380 262 464 0 83 -296 -212 -658 -655 -1011 -1237 -1509 -1460 -2050 -920 -238 238 -292 378 -292 750 0 403 26 458 216 458 119 0 423 118 675 263 512 292 1390 1137 1183 1137 -73 0 -330 -201 -571 -447 -509 -518 -1022 -792 -1311 -700 -296 93 -179 287 216 358 514 92 816 240 1084 528 194 208 210 261 80 261 -89 0 -198 -60 -242 -134 -120 -201 -539 -434 -901 -501 -386 -70 -546 102 -180 194 141 35 302 149 357 253 114 212 -2 252 -188 66 -97 -97 -164 -97 -319 0 -273 170 -388 152 -336 -53 24 -96 7 -594 -39 -1107 -48 -540 -46 -954 6 -987 49 -30 63 -443 30 -918 -215 -3122 -233 -4806 -52 -4918 50 -31 95 -593 100 -1248 4 -654 33 -1232 64 -1283 95 -153 124 -1555 34 -1611 -47 -28 -292 40 -545 152 l-461 204 -25 1371 c-54 2978 -46 4458 37 6520 161 3999 161 4000 19 4000 -89 0 -131 -146 -131 -450 0 -247 -43 -450 -96 -450 -141 0 -304 346 -304 643 0 325 -159 335 -239 15 -64 -253 -2 -515 174 -742 133 -171 85 -984 -78 -1313 -69 -139 -206 -545 -303 -903 -224 -817 -883 -2122 -1310 -2592 -179 -197 -491 -446 -692 -553 -313 -166 -379 -173 -457 -50 -137 216 -124 242 243 504 636 454 1560 1713 1754 2391 70 248 214 702 318 1010 202 594 258 1590 90 1590 -55 0 -100 -177 -100 -394 0 -217 -48 -424 -107 -460 -59 -37 -81 -132 -50 -213 69 -180 -128 -1026 -286 -1233 -63 -82 -196 -330 -295 -550 -482 -1066 -1442 -1853 -2257 -1848 -849 6 -1592 351 -1326 617 95 95 121 84 121 -47 0 -219 390 -313 1002 -240 331 39 498 19 525 -62 44 -132 1173 670 1173 833 0 157 -78 117 -482 -248 -277 -251 -442 -330 -601 -288 -199 52 -180 82 207 332 482 312 1242 1069 1157 1153 -30 31 -309 -188 -620 -487 -725 -696 -1042 -836 -1426 -627 -266 144 -270 154 -59 158 125 2 305 47 400 99 96 52 354 175 574 273 220 98 571 359 780 580 505 535 1097 1420 1048 1567 -21 65 -130 -36 -241 -224 -482 -814 -1258 -1611 -1803 -1852 -693 -307 -914 -304 -1034 11 -58 153 -174 250 -298 250 -145 0 -202 66 -202 233 0 129 28 261 61 295 88 88 639 -340 639 -497 0 -179 365 -166 435 16 31 81 211 211 400 290 624 261 1994 1732 2355 2528 54 119 145 245 204 281 58 36 106 204 106 374 l0 308 -573 -68 c-315 -37 -722 -155 -905 -264 -184 -108 -395 -196 -471 -196 -75 0 -198 -56 -273 -125 -174 -160 -477 -340 -1246 -740 l-617 -321 -102 293 c-57 161 -166 293 -242 293 -249 0 -1111 -479 -2638 -1466 -284 -184 -544 -334 -577 -334 -33 0 -250 -121 -483 -268 -233 -148 -679 -414 -991 -591 -567 -322 -568 -322 -750 -121 -100 111 -405 314 -677 452 -580 295 -1180 272 -1848 -69 -450 -229 -476 -313 -256 -841 l152 -362 -277 -12 c-152 -6 -332 -4 -401 5 -69 8 -125 -29 -125 -83 0 -55 236 -113 525 -130 524 -30 525 -31 555 -390 42 -499 -272 -705 -952 -625 l-491 58 -2 739 -2 738 358 2 c269 1 321 25 209 98 -82 53 -300 98 -483 98 -323 2 -331 12 -263 327 38 179 115 381 170 451 56 69 73 301 38 520 -43 272 -11 503 102 741 100 210 134 417 87 529 -80 191 -99 359 -132 1159 -10 261 -58 475 -106 475 -136 0 -215 -699 -101 -884 72 -115 69 -256 -8 -458 -108 -281 -117 -285 -250 -94 -76 108 -135 262 -130 342 33 606 -37 1106 -149 1069 -69 -23 -125 -119 -126 -213 -1 -160 -205 -357 -374 -360 -41 -1 -75 66 -75 148 0 83 -45 150 -100 150 -55 0 -100 68 -100 150 0 83 -46 150 -102 150 -127 0 -298 -431 -298 -750 0 -193 46 -231 250 -210 138 15 280 57 317 93 114 115 233 73 233 -81 0 -81 117 -224 259 -317 219 -144 248 -217 190 -477 -39 -170 -76 -615 -84 -991 -11 -507 -57 -714 -180 -804 -154 -112 -224 -340 -197 -638 22 -237 212 -125 212 125 0 138 45 250 100 250 139 0 125 -335 -20 -480 -66 -66 -201 -120 -300 -120 -139 0 -180 80 -180 350 0 193 -45 350 -100 350 -126 0 -132 368 -7 446 51 31 122 11 157 -46 109 -176 250 -3 250 306 0 345 -151 392 -234 73 -32 -121 -89 -189 -128 -151 -38 39 -126 23 -195 -34 -69 -57 -146 -68 -172 -24 -105 178 -181 730 -101 730 48 0 96 225 108 500 12 275 -17 500 -66 500 -112 0 -356 -1547 -267 -1692 82 -132 -43 -138 -243 -11 -130 82 -127 151 24 559 95 256 149 504 120 550 -98 160 -334 -22 -365 -282 -38 -321 -232 -405 -255 -109 -9 119 -57 244 -106 276 -107 70 185 627 359 685 67 23 121 -31 121 -118 0 -87 45 -158 100 -158 55 0 100 110 100 244 0 134 45 272 100 306 168 104 124 850 -50 850 -83 0 -150 -62 -150 -139 0 -76 -71 -267 -159 -425 l-159 -286 52 368 c28 202 27 461 -3 575 -60 229 -281 278 -373 82 -46 -100 -70 -100 -116 0 -104 223 -359 144 -324 -100 23 -164 89 -217 244 -196 150 21 230 -38 274 -200 97 -361 75 -479 -86 -479 -83 0 -150 65 -150 144 0 109 -90 130 -375 87 -352 -53 -365 -45 -212 116 132 140 142 226 53 462 -106 281 -366 408 -366 179 0 -74 -55 -67 -161 21 -136 113 -182 105 -300 -57 -76 -105 -139 -227 -139 -271 0 -45 -45 -81 -100 -81 -55 0 -100 113 -100 250 0 219 -43 250 -350 250 -265 0 -351 -42 -353 -175 -3 -167 -10 -167 -136 0 -73 96 -252 175 -397 175 -225 0 -264 -43 -264 -293z m19457 -50 c79 -78 143 -171 143 -205 0 -137 -816 -1253 -1314 -1799 -1149 -1256 -1961 -1395 -2384 -407 -176 410 -363 626 -459 530 -24 -24 28 -188 116 -364 88 -176 129 -397 91 -491 -38 -94 -82 -365 -99 -602 -51 -742 -144 -582 -140 240 3 488 -38 800 -106 823 -68 22 -87 163 -49 367 36 187 11 426 -57 552 -96 181 -89 251 36 377 161 160 219 88 401 -495 69 -222 347 -145 1114 306 330 194 879 451 1219 570 341 120 769 335 950 478 390 307 358 300 538 120z m-16957 -57 c0 -55 -45 -100 -100 -100 -55 0 -100 45 -100 100 0 55 45 100 100 100 55 0 100 -45 100 -100z m-1616 -400 c67 -455 -84 -1052 -300 -1187 -196 -122 -206 -114 -147 120 36 143 17 266 -44 286 -69 23 -82 218 -37 556 61 457 95 516 282 488 133 -20 225 -118 246 -263z m816 -144 c0 -79 -45 -172 -100 -206 -55 -34 -100 31 -100 144 0 113 45 206 100 206 55 0 100 -65 100 -144z m400 -345 c0 -157 -177 -311 -358 -311 -90 0 -35 267 78 380 174 174 280 148 280 -69z m393 -235 c-51 -179 -93 -331 -93 -340 0 -8 -67 -41 -150 -72 -224 -86 -188 257 54 517 272 292 299 277 189 -105z m547 99 c-41 -124 -65 -371 -54 -550 15 -234 -23 -325 -133 -325 -84 0 -153 74 -153 163 0 279 227 937 323 937 50 0 57 -101 17 -225z m17742 -50 c-18 -151 -77 -275 -132 -275 -55 0 -114 124 -132 275 -23 201 13 275 132 275 119 0 155 -74 132 -275z m-19282 -175 c0 -142 126 -197 350 -155 55 11 43 -39 -28 -111 -95 -96 -172 -102 -300 -21 -197 124 -290 437 -129 437 59 0 107 -67 107 -150z m13495 -141 c88 -163 35 -232 -372 -484 -260 -162 -842 -526 -1294 -810 -451 -284 -924 -556 -1050 -604 -126 -48 -475 -273 -776 -499 -301 -227 -594 -412 -651 -412 -57 0 -164 96 -237 213 -154 246 -155 245 635 654 275 142 633 354 796 471 414 297 2689 1657 2775 1660 40 1 118 -84 174 -189z m-8747 -6 c33 -53 -14 -240 -104 -414 -97 -189 -141 -430 -107 -598 57 -288 -98 -891 -230 -891 -158 0 -190 132 -94 383 54 144 103 489 107 765 11 681 233 1071 428 755z m-5093 -211 c88 -143 -162 -1026 -262 -922 -98 101 5 1030 114 1030 45 0 111 -49 148 -108z m19396 -867 c-20 -481 -40 -1001 -44 -1156 -4 -154 -47 -256 -95 -227 -48 30 -114 -68 -147 -219 -69 -317 -231 -590 -306 -516 -28 29 13 176 91 328 222 428 335 927 244 1075 -95 153 -113 117 -289 -572 -99 -385 -705 -1294 -705 -1057 0 109 426 954 585 1159 47 60 161 425 253 810 163 680 354 1250 418 1250 17 0 15 -394 -5 -875z m3749 740 c0 -71 -618 -680 -654 -644 -20 20 99 181 264 358 275 294 390 378 390 286z m-21825 -490 c238 -246 321 -429 339 -750 34 -570 -169 -783 -324 -340 -87 250 -154 308 -301 262 -105 -34 -189 -13 -189 46 0 59 38 107 83 107 46 0 84 135 84 300 0 327 -141 405 -227 125 -30 -96 -99 -258 -153 -358 -55 -101 -70 -316 -35 -478 46 -205 1 -419 -148 -703 -164 -316 -198 -506 -149 -835 69 -462 -209 -1951 -365 -1951 -124 0 -114 873 10 950 55 34 100 283 100 552 0 389 -42 513 -200 598 -285 152 -247 384 75 465 333 83 535 324 465 557 -28 94 4 533 72 975 109 714 146 803 336 803 117 0 354 -146 527 -325z m12632 -472 c-46 -29 -185 -268 -308 -530 -432 -924 -1606 -1866 -1845 -1480 -31 51 139 233 378 405 658 472 1468 1620 1468 2080 0 351 134 326 263 -49 71 -205 91 -396 44 -426z m-14743 447 c-32 -82 -14 -150 39 -150 128 0 125 -471 -3 -550 -55 -34 -100 22 -100 124 0 102 -51 237 -113 299 -131 131 -47 427 121 427 62 0 87 -67 56 -150z m14096 -457 c-367 -871 -1628 -1894 -2330 -1892 -477 2 -830 94 -830 216 0 113 609 683 729 683 47 0 281 135 521 300 240 165 457 300 484 300 26 0 377 204 781 452 403 249 746 415 762 368 15 -46 -37 -239 -117 -427z m8290 65 c220 0 490 36 600 80 149 59 128 14 -81 -179 -299 -276 -563 -323 -876 -155 -161 86 -193 70 -193 -100 0 -112 -45 -204 -100 -204 -55 0 -100 162 -100 361 0 308 26 348 175 279 96 -45 355 -82 575 -82z m-21469 -483 c-26 -362 -61 -420 -231 -392 -327 55 -376 176 -206 506 244 472 475 412 437 -114z m13872 -734 c-61 -565 -101 -652 -381 -829 -444 -281 -553 -145 -155 195 445 380 213 374 -267 -7 -597 -474 -694 -349 -135 174 289 270 599 685 721 965 252 578 316 430 217 -498z m-11176 559 c68 -110 166 -200 216 -200 148 0 888 -776 925 -971 20 -99 124 -180 234 -181 177 -2 194 -59 163 -549 -18 -301 -75 -624 -125 -717 -162 -303 -110 -782 85 -785 134 -3 105 -61 -125 -252 -165 -136 -371 -315 -458 -397 -270 -252 -388 -185 -262 149 72 192 138 255 185 178 96 -154 213 -34 244 251 14 123 46 421 72 661 26 241 90 466 142 500 111 73 44 813 -73 813 -123 0 -211 -309 -146 -514 33 -102 11 -186 -47 -186 -107 0 -154 260 -120 667 10 120 -28 247 -84 281 -57 35 -103 20 -103 -33 0 -53 -90 -73 -200 -44 -185 48 -195 17 -136 -434 34 -268 125 -640 201 -828 122 -301 119 -361 -29 -525 -257 -284 -339 -221 -284 216 39 309 17 400 -97 400 -82 0 -196 -90 -255 -200 -59 -110 -150 -200 -204 -200 -53 0 -96 90 -96 200 0 246 -86 255 -261 25 -117 -154 -133 -122 -136 265 l-3 441 -213 -191 c-213 -189 -213 -189 -137 60 42 138 115 265 163 283 48 19 87 217 87 441 0 401 -3 404 -200 226 -194 -175 -200 -175 -200 24 0 112 -64 229 -142 259 -87 34 -122 135 -89 261 65 247 186 267 271 45 57 -148 82 -148 308 0 332 218 346 209 292 -164 -61 -418 84 -662 291 -491 117 97 158 89 207 -40 108 -279 70 -469 -81 -411 -192 74 -380 -171 -340 -445 39 -261 421 -334 602 -115 146 175 174 1841 31 1794 -55 -18 -115 -133 -133 -256 -18 -122 -84 -205 -147 -184 -195 65 -184 1073 13 1073 38 0 125 -90 194 -200z m5404 -237 c287 -201 726 -523 978 -714 251 -192 514 -349 585 -349 197 0 656 -395 656 -565 0 -119 -54 -107 -262 56 -144 114 -298 184 -343 156 -45 -28 -110 -4 -145 53 -35 57 -108 76 -161 43 -53 -33 -188 57 -300 199 -176 223 -489 356 -489 208 0 -121 713 -790 866 -813 93 -13 208 -95 256 -181 88 -157 584 -217 714 -86 165 165 1354 196 1640 43 116 -62 374 -113 574 -113 302 0 667 -113 837 -259 76 -65 -280 -341 -441 -341 -133 0 -153 -57 -99 -272 66 -263 61 -266 -122 -100 -236 213 -467 226 -389 22 64 -167 -89 -208 -186 -50 -125 202 -252 93 -188 -161 60 -239 48 -251 -142 -150 -286 154 -320 142 -320 -108 0 -196 -13 -202 -125 -56 -85 110 -213 145 -399 107 -238 -48 -266 -90 -210 -318 63 -261 62 -262 -145 -79 -253 224 -423 146 -346 -160 56 -222 54 -223 -157 -36 -193 170 -220 173 -277 25 -34 -90 -125 -164 -202 -164 -76 0 -139 -39 -139 -86 0 -47 -157 -74 -350 -58 -245 19 -350 -14 -350 -111 0 -82 -61 -115 -150 -81 -82 31 -150 5 -150 -60 0 -72 -78 -93 -200 -54 -149 47 -200 18 -200 -113 0 -138 -27 -150 -120 -57 -170 170 -279 149 -288 -55 -5 -105 -28 -125 -58 -50 -83 206 -261 141 -205 -75 29 -110 12 -175 -38 -144 -50 31 -91 122 -91 203 0 81 -66 172 -146 203 -107 41 -134 172 -102 492 51 499 -70 654 -232 299 -82 -179 -79 -254 10 -296 91 -43 89 -71 -7 -116 -152 -70 -423 -685 -423 -957 0 -160 32 -174 200 -84 140 75 200 75 200 1 0 -58 -124 -159 -275 -225 -151 -65 -421 -227 -600 -359 -298 -221 -325 -225 -325 -54 0 205 295 1019 535 1477 83 159 210 486 280 725 71 239 186 435 257 435 145 0 175 166 38 217 -52 19 -49 282 8 633 132 809 47 1331 -315 1944 -373 634 -377 761 -28 895 480 185 1043 70 1606 -326z m12819 -299 c0 -178 56 -380 124 -448 99 -99 94 -144 -25 -219 -264 -167 -299 -108 -299 509 0 378 38 583 100 544 55 -34 100 -208 100 -386z m2098 284 c-70 -84 -147 -132 -172 -107 -70 69 71 259 192 259 66 0 59 -57 -20 -152z m-23900 -73 c0 -69 -45 -192 -98 -275 -76 -117 -97 -89 -98 125 -1 151 43 275 98 275 55 0 99 -56 98 -125z m402 -275 c0 -111 -67 -200 -150 -200 -181 0 -193 117 -30 280 161 161 180 153 180 -80z m15677 -578 l373 -165 -284 -36 c-286 -36 -1114 410 -1035 558 21 39 70 158 108 265 63 175 90 162 267 -131 109 -179 366 -400 571 -491z m-14296 361 c-41 -414 -281 -506 -281 -108 0 160 30 322 67 358 153 153 244 47 214 -250z m3819 -665 c0 -609 -261 -1618 -419 -1618 -61 0 -77 93 -38 225 37 124 114 550 171 948 89 615 81 746 -50 878 -86 85 -131 218 -102 294 44 116 87 111 246 -25 145 -124 192 -295 192 -702z m17150 429 c-295 -242 -650 -330 -650 -161 0 84 646 388 850 401 55 3 -35 -105 -200 -240z m-3507 -694 c-236 -359 -295 -244 -84 163 95 184 191 280 213 215 23 -65 -36 -235 -129 -378z m-4485 63 c-214 -42 -301 34 -209 182 49 80 113 75 225 -18 142 -117 140 -133 -16 -164z m5542 76 c0 -59 -132 -239 -292 -400 -410 -410 -686 -385 -369 33 73 96 186 175 250 175 65 0 143 68 175 150 66 172 236 203 236 42z m-18717 -300 c48 -344 179 -448 369 -290 142 118 153 103 96 -125 -52 -207 9 -339 305 -667 403 -447 407 -710 8 -710 -218 0 -241 38 -216 353 34 436 -105 545 -261 203 -149 -329 -325 -333 -243 -6 78 311 -73 328 -219 25 -103 -213 -109 -209 -115 92 -4 174 49 335 118 358 96 33 99 98 12 284 -160 341 -167 818 -12 766 69 -22 140 -150 158 -283z m10817 108 c0 -55 -214 -94 -475 -87 -464 13 -467 15 -125 87 521 110 600 110 600 0z m2100 -115 c455 -105 667 -182 1298 -474 375 -173 1402 -1129 1402 -1304 0 -63 -226 -107 -546 -107 l-546 0 -108 398 c-68 255 -232 499 -453 675 -385 308 -1608 721 -2147 726 -446 5 -800 99 -800 213 0 105 1255 21 1900 -127z m2995 58 c-177 -212 -640 -443 -890 -443 -369 0 -215 195 247 311 248 62 476 153 506 201 29 49 102 88 160 88 65 0 56 -61 -23 -157z m1223 -165 c-71 -71 -118 -77 -118 -15 0 57 30 134 67 170 36 37 90 44 118 15 28 -28 -2 -105 -67 -170z m628 -148 c-114 -174 -197 -228 -224 -147 -44 134 274 554 358 471 26 -26 -34 -172 -134 -324z m4799 54 c140 -64 255 -154 255 -200 0 -93 -55 -105 -700 -143 -247 -15 -581 -42 -740 -59 -407 -45 -427 148 -37 343 392 194 874 218 1222 59z m-23645 -179 c0 -157 -227 -605 -306 -605 -41 0 -74 158 -74 350 0 277 40 350 190 350 105 0 190 -43 190 -95z m6385 -826 c-368 -321 -1262 -962 -2371 -1701 -143 -95 -338 -275 -434 -400 l-176 -228 -2 315 c-2 281 87 380 810 900 446 322 1200 896 1675 1277 811 650 865 677 898 453 26 -178 -74 -332 -400 -616z m11915 687 c0 -140 -404 -366 -655 -366 -80 0 -145 39 -145 86 0 69 254 202 775 404 14 6 25 -50 25 -124z m-12304 -41 c-3 -41 -234 -252 -515 -469 l-510 -394 73 393 c41 217 95 428 121 469 61 99 836 99 831 1z m13540 -175 c-61 -159 -236 -208 -236 -67 0 106 109 217 214 217 44 0 54 -67 22 -150z m2764 -232 c193 -92 368 -178 389 -191 22 -12 -13 -86 -77 -163 -96 -115 -53 -153 235 -207 392 -73 414 -118 198 -404 -142 -188 -163 -189 -472 -29 -178 92 -492 197 -699 233 -425 74 -552 192 -309 285 91 35 244 -10 344 -100 250 -226 439 -146 254 108 -106 145 -254 194 -554 186 -333 -8 -409 24 -409 172 0 400 411 441 1100 110z m1199 185 c101 -64 117 -127 48 -196 -125 -125 -668 5 -724 173 -48 145 457 161 676 23z m-6199 -203 c-59 -110 -184 -199 -279 -197 -141 3 -129 39 65 200 299 249 349 248 214 -3z m6698 -425 c1 -178 -51 -275 -148 -275 -157 0 -203 346 -86 650 88 229 232 -3 234 -375z m-5998 325 c0 -55 -41 -100 -92 -100 -50 0 -163 -27 -250 -61 -87 -33 -158 -14 -158 43 0 89 155 165 425 206 41 7 75 -33 75 -88z m1525 -70 c41 -23 75 -102 75 -176 0 -89 -127 -133 -375 -132 -455 3 -1313 -241 -1413 -402 -94 -152 -681 55 -763 268 -83 218 178 339 321 148 99 -132 174 -140 439 -48 177 62 417 112 534 112 117 0 290 91 385 202 161 187 493 199 797 28z m-16425 -62 c0 -327 -227 -1328 -321 -1418 -102 -97 -92 0 92 975 38 203 12 275 -101 275 -84 0 -176 -56 -204 -125 -29 -73 -53 -52 -58 53 -4 98 93 219 217 269 315 126 375 122 375 -29z m20392 -130 c23 -21 21 -59 -5 -84 -76 -76 -487 62 -487 164 0 84 379 21 492 -80z m-23592 -38 c0 -55 -45 -100 -100 -100 -55 0 -100 45 -100 100 0 55 45 100 100 100 55 0 100 -45 100 -100z m15400 -362 c0 -180 -144 -176 -296 8 -165 198 -35 404 155 247 78 -65 141 -179 141 -255z m-661 104 c94 -245 74 -277 -89 -142 -166 138 -199 300 -61 300 49 0 117 -71 150 -158z m-13739 -92 c0 -168 -18 -175 -242 -89 -223 85 -196 239 42 239 111 0 200 -67 200 -150z m700 -116 c0 -123 -322 -645 -369 -598 -30 30 -25 212 11 405 47 252 106 334 212 294 80 -31 146 -76 146 -101z m4850 66 c36 -58 -57 -99 -219 -98 -218 1 -247 23 -131 98 192 124 273 124 350 0z m7820 -89 c111 -178 81 -311 -71 -311 -37 0 -118 113 -181 250 -140 309 66 358 252 61z m-370 -376 c0 -74 -42 -135 -94 -135 -136 0 -408 416 -342 523 71 115 436 -210 436 -388z m-10482 143 c-71 -71 -118 -77 -118 -15 0 134 118 252 185 185 28 -28 -2 -105 -67 -170z m16182 -53 c0 -124 -45 -225 -100 -225 -55 0 -89 56 -75 125 31 156 -892 127 -1086 -34 -138 -115 -339 -45 -339 118 0 170 430 279 1025 259 524 -16 575 -38 575 -243z m2343 185 c234 -91 131 -161 -368 -251 -285 -52 -375 -35 -375 70 0 273 314 349 743 181z m1455 -62 c-70 -84 -147 -132 -172 -107 -70 69 71 259 192 259 66 0 59 -57 -20 -152z m-21400 -23 c-3 -183 -162 -309 -288 -231 -75 46 -105 134 -67 195 77 124 358 153 355 36z m-1975 -202 c26 -98 -23 -402 -107 -675 l-153 -498 -62 350 c-35 193 -26 393 18 445 45 52 81 199 81 325 0 271 156 308 223 53z m2477 -185 c0 -76 -50 -138 -111 -138 -61 0 -84 68 -53 150 32 83 14 150 -39 150 -53 0 -97 51 -97 112 0 78 46 74 150 -12 83 -68 150 -186 150 -262z m10848 -23 c-75 -75 -248 105 -248 260 0 137 23 131 142 -31 78 -106 126 -210 106 -229z m9180 71 c98 -172 151 -340 118 -373 -74 -74 -441 390 -444 562 -4 219 142 134 326 -189z m-5703 -3 c185 -95 245 -483 75 -483 -55 0 -100 45 -100 100 0 55 -50 100 -111 100 -61 0 -84 -67 -53 -150 32 -82 10 -150 -49 -150 -58 0 -128 85 -155 188 -27 103 -158 237 -290 298 -382 173 -298 333 133 255 206 -37 454 -108 550 -158z m-3844 -77 c25 -75 -12 -112 -87 -87 -72 24 -151 103 -175 175 -25 75 12 112 87 87 72 -24 151 -103 175 -175z m6218 119 c-1 -41 -181 -161 -400 -266 -659 -316 -508 -393 419 -214 104 20 148 -17 117 -98 -27 -71 32 -148 133 -170 100 -22 -110 -77 -468 -120 -712 -87 -830 -128 -750 -257 29 -47 176 -51 326 -10 151 41 387 45 524 9 138 -37 306 -24 375 29 93 72 125 27 125 -172 0 -236 -28 -260 -225 -190 -270 95 -690 90 -1200 -15 -456 -94 -483 21 -117 500 150 197 244 434 225 569 -28 193 32 249 367 345 508 147 550 151 549 60z m3876 -50 c57 -71 66 -211 20 -325 -76 -188 -81 -188 -88 -11 -4 104 -86 249 -182 322 -155 118 -157 133 -12 136 89 2 207 -53 262 -122z m525 -331 c0 -189 -45 -344 -100 -344 -55 0 -100 183 -100 406 0 245 40 381 100 344 55 -34 100 -217 100 -406z m-6000 -62 c0 -266 -165 -143 -224 167 -39 205 -23 231 88 140 75 -63 136 -201 136 -307z m4469 201 c304 -286 293 -402 -26 -281 -141 54 -366 98 -500 98 -255 0 -341 244 -118 334 250 101 417 62 644 -151z m-21733 -33 c-31 -82 -75 -150 -97 -150 -21 0 -39 68 -39 150 0 83 44 150 97 150 53 0 71 -67 39 -150z m1547 -88 c39 -202 -166 -484 -294 -405 -105 65 -119 479 -20 578 108 109 278 15 314 -173z m10676 -36 c-69 -70 -259 71 -259 192 0 66 57 59 152 -20 84 -70 132 -147 107 -172z m-7430 -26 c-29 -110 -70 -200 -91 -200 -21 0 -38 90 -38 200 0 110 41 200 91 200 49 0 67 -90 38 -200z m871 0 c0 -55 -138 -100 -306 -100 -178 0 -280 42 -244 100 34 55 172 100 306 100 134 0 244 -45 244 -100z m8098 -425 c3 -140 -225 -76 -359 100 -236 311 -157 463 109 210 137 -129 249 -269 250 -310z m367 271 c94 -243 -15 -266 -214 -47 -166 183 -167 201 -13 201 92 0 195 -69 227 -154z m-11515 -46 c-34 -55 -107 -100 -162 -100 -55 0 -72 45 -38 100 34 55 107 100 162 100 55 0 72 -45 38 -100z m10450 58 c0 -23 28 -113 61 -201 44 -114 18 -143 -92 -100 -211 81 -300 343 -116 343 81 0 147 -19 147 -42z m9456 -100 c106 -78 160 -175 119 -216 -105 -105 -599 138 -525 258 84 135 177 126 406 -42z m-544 -267 c148 -105 335 -191 416 -191 81 0 206 -70 277 -156 114 -138 95 -148 -163 -86 -160 38 -406 127 -545 197 -140 71 -421 159 -625 198 -233 43 -372 125 -372 219 0 201 636 87 1012 -181z m-17015 5 c-189 -119 -297 -120 -297 -3 0 95 312 200 397 133 26 -20 -19 -79 -100 -130z m7026 -342 c440 -639 1013 -869 1540 -618 273 130 337 218 337 462 0 243 42 302 217 302 255 0 583 -268 583 -477 0 -98 67 -129 202 -93 251 65 765 -182 899 -431 145 -272 121 -656 -51 -799 -82 -68 -150 -243 -150 -388 0 -269 -247 -501 -667 -626 -172 -51 -229 -15 -276 173 -83 328 -592 575 -1020 495 -375 -70 -625 -373 -729 -882 -58 -283 -144 -355 -712 -589 -355 -147 -736 -268 -846 -267 -110 0 -6 68 232 152 281 100 414 199 380 286 -28 74 25 149 119 168 93 20 -146 33 -531 29 -621 -5 -733 -36 -991 -279 -160 -151 -258 -306 -219 -345 39 -39 105 -15 147 53 86 137 651 323 962 315 131 -4 67 -61 -182 -164 -245 -101 -340 -186 -263 -233 75 -47 -26 -122 -267 -200 -853 -276 -2053 -1014 -2724 -1673 -94 -92 -267 -114 -560 -70 -379 57 -447 35 -635 -205 -263 -334 -458 -283 -478 125 -9 171 -116 451 -239 624 -217 305 -219 325 -58 747 108 281 242 453 385 490 162 43 189 87 106 170 -178 178 -501 -54 -634 -455 -63 -193 -149 -351 -189 -351 -40 0 -199 130 -351 290 l-278 290 198 447 c108 246 247 478 309 516 61 38 111 120 111 183 0 82 -34 80 -120 -6 -184 -184 -258 -146 -328 169 -44 200 -1 389 139 621 117 192 180 423 148 547 -42 167 29 267 320 454 206 131 490 315 633 408 142 93 378 190 524 217 147 26 353 94 459 151 106 56 639 214 1184 350 545 136 1104 294 1241 352 138 57 595 93 1017 80 l767 -24 339 -491z m-11931 -201 c-69 -309 -163 -585 -209 -613 -107 -67 -105 -23 26 541 153 659 188 755 252 691 31 -31 0 -310 -69 -619z m2790 373 c-44 -379 -347 -430 -325 -54 21 344 11 328 200 328 111 0 147 -78 125 -274z m1154 124 c-31 -82 -120 -150 -197 -150 -173 0 -183 166 -14 234 221 89 270 69 211 -84z m12876 -116 c89 -78 188 -332 220 -566 32 -234 158 -684 279 -1002 187 -488 299 -626 730 -898 736 -464 938 -568 1105 -568 81 0 296 -81 476 -180 295 -161 627 -277 1369 -478 210 -57 172 -89 -300 -245 -1357 -450 -2576 -794 -2962 -834 -768 -82 -1656 200 -2466 781 -821 589 -1214 756 -1778 756 -318 0 -385 35 -385 200 0 214 158 275 221 86 29 -86 93 -85 255 1 143 77 197 175 158 290 -32 95 23 61 123 -77 246 -340 443 -446 768 -413 178 18 297 -28 336 -129 36 -94 179 -158 350 -158 306 0 362 87 176 273 -63 63 -85 189 -50 280 57 146 89 138 260 -68 223 -267 254 -162 91 305 -175 505 -40 466 299 -85 171 -278 356 -505 411 -505 103 0 -464 999 -633 1115 -112 77 -13 385 125 385 52 0 212 -236 355 -525 460 -931 519 -1012 595 -814 37 95 23 200 -31 233 -130 81 -809 1461 -809 1646 0 79 -107 272 -237 427 -258 308 -445 933 -279 933 55 0 130 -138 167 -307 38 -168 142 -334 233 -367 227 -84 313 -230 314 -537 2 -290 518 -1331 809 -1633 320 -332 318 -103 -3 372 -386 573 -699 1258 -702 1539 -3 317 -105 533 -252 533 -139 0 -280 271 -205 392 70 114 684 2 867 -158z m6229 -649 c-40 -404 -93 -675 -118 -602 -56 165 77 1451 143 1385 26 -27 15 -379 -25 -783z m419 542 c-33 -33 -56 26 -52 131 5 117 28 141 60 61 29 -72 26 -159 -8 -192z m-22648 -299 c-83 -145 -95 -123 -68 122 43 390 69 438 124 228 25 -94 0 -252 -56 -350z m14488 430 c0 -23 27 -113 61 -200 40 -104 5 -158 -100 -158 -94 0 -161 83 -161 200 0 110 45 200 100 200 55 0 100 -19 100 -42z m-15640 -331 c-33 -33 -56 26 -52 131 5 117 28 141 60 61 29 -72 26 -159 -8 -192z m4540 117 c0 -86 -46 -128 -102 -93 -56 35 -75 105 -44 156 86 139 146 113 146 -63z m1000 56 c0 -55 -93 -100 -206 -100 -113 0 -178 45 -144 100 34 55 127 100 206 100 79 0 144 -45 144 -100z m16515 -113 c663 -242 786 -446 210 -351 -206 34 -521 62 -700 63 -280 1 -325 36 -325 251 0 304 71 308 815 37z m-21269 -194 c-86 -139 -146 -113 -146 63 0 86 46 128 102 93 56 -35 75 -105 44 -156z m4704 -94 c80 -128 -201 -239 -406 -160 -201 76 -90 261 156 261 104 0 216 -45 250 -101z m-1950 -149 c0 -82 -45 -150 -100 -150 -55 0 -100 68 -100 150 0 82 45 150 100 150 55 0 100 -68 100 -150z m15955 41 c37 -60 23 -153 -32 -208 -67 -67 -123 -64 -168 8 -97 158 -772 128 -999 -44 -361 -273 -645 -76 -336 233 151 151 1443 161 1535 11z m-16508 -477 c-39 -200 -81 -551 -92 -779 -21 -446 -431 -1208 -1353 -2515 -522 -741 -990 -1126 -1352 -1111 -145 5 -108 48 137 154 451 197 336 278 -191 136 -340 -92 -441 -88 -509 18 -138 218 -50 308 419 427 575 146 1239 607 1754 1219 587 698 726 1020 826 1919 96 851 167 1059 330 958 61 -38 73 -208 31 -426z m1153 380 c0 -58 -45 -78 -100 -44 -55 34 -100 82 -100 106 0 24 45 44 100 44 55 0 100 -48 100 -106z m487 -28 c61 -74 82 -164 46 -199 -75 -75 -333 115 -333 245 0 132 161 106 287 -46z m17638 -71 c206 -58 375 -147 375 -200 0 -127 -571 -123 -650 5 -34 55 -217 100 -406 100 -189 0 -344 45 -344 100 0 130 548 127 1025 -5z m-22675 -245 c0 -286 -198 -281 -215 5 -9 152 32 239 100 217 63 -21 115 -121 115 -222z m5828 -33 c30 -91 -29 -123 -184 -100 -126 18 -248 93 -272 166 -30 91 29 123 184 100 126 -18 248 -93 272 -166z m-1951 -982 c-13 -585 -47 -1088 -76 -1117 -112 -113 -333 330 -246 492 48 90 78 463 66 830 -16 501 16 690 129 762 83 52 150 96 150 97 0 0 -10 -478 -23 -1064z m454 707 c7 -196 80 -635 162 -975 82 -339 196 -884 253 -1210 123 -701 465 -1457 660 -1457 104 0 87 85 -68 348 -113 192 -187 404 -165 471 22 67 172 -137 332 -453 163 -322 425 -661 593 -769 252 -162 269 -194 101 -195 -111 -1 -373 89 -581 201 -208 112 -455 191 -548 175 -115 -19 -181 52 -205 218 -19 135 -101 295 -181 354 -100 73 -169 393 -216 996 -42 554 -114 903 -189 928 -85 28 -119 -101 -113 -424 5 -255 -42 -516 -104 -578 -85 -85 -101 -1 -62 332 93 793 134 1335 142 1871 9 586 168 727 189 167z m15419 212 c440 -165 255 -250 -500 -229 -302 8 -633 -23 -735 -70 -148 -67 -178 -47 -150 101 62 322 780 424 1385 198z m-18900 -48 c0 -52 -45 -122 -100 -156 -55 -34 -100 8 -100 94 0 86 45 156 100 156 55 0 100 -42 100 -94z m2000 -6 c0 -55 -45 -100 -100 -100 -55 0 -100 45 -100 100 0 55 45 100 100 100 55 0 100 -45 100 -100z m19400 -50 c68 -82 254 -150 412 -150 199 0 288 -50 288 -162 0 -126 -60 -146 -275 -92 -151 39 -444 94 -650 123 -283 39 -375 99 -375 242 0 234 415 261 600 39z m-17100 -206 c0 -24 -45 -44 -100 -44 -55 0 -100 48 -100 106 0 58 45 78 100 44 55 -34 100 -82 100 -106z m18697 -394 c87 -213 303 -1413 303 -1687 0 -89 -48 -163 -107 -163 -58 0 -82 79 -51 175 30 96 -6 294 -82 440 -76 146 -165 596 -198 1000 -32 404 -34 667 -3 585 30 -82 93 -240 138 -350z m-23597 250 c0 -55 -45 -100 -100 -100 -55 0 -100 45 -100 100 0 55 45 100 100 100 55 0 100 -45 100 -100z m4600 -604 c0 -366 198 -903 422 -1143 160 -172 200 -179 281 -52 132 209 120 58 -20 -249 -65 -141 -166 -241 -225 -222 -179 57 -435 681 -553 1344 -61 343 -135 703 -166 800 -48 152 -33 149 103 -18 87 -107 158 -314 158 -460z m15076 479 c-23 -69 -240 -139 -482 -157 -242 -17 -489 -73 -549 -122 -108 -89 -345 61 -345 217 0 86 372 151 983 172 307 11 422 -21 393 -110z m2417 -97 c196 -67 369 -128 384 -135 15 -8 4 -77 -26 -154 -38 -100 -193 -129 -552 -104 -394 27 -499 71 -499 208 0 334 144 372 693 185z m-2351 -239 c87 -33 158 -96 158 -139 0 -131 -736 -180 -950 -63 -179 98 -157 117 200 172 220 35 408 69 417 77 9 8 88 -13 175 -47z m3058 -439 c0 -220 -37 -400 -83 -400 -98 0 -123 255 -59 575 71 352 142 265 142 -175z m-575 77 c96 6 175 -54 175 -133 0 -106 -132 -144 -500 -144 -365 0 -500 38 -500 142 0 179 192 257 450 182 110 -32 279 -53 375 -47z m-2325 -177 c0 -55 -67 -100 -150 -100 -82 0 -150 45 -150 100 0 55 68 100 150 100 83 0 150 -45 150 -100z m-5240 -273 c-33 -33 -56 26 -52 131 5 117 28 141 60 61 29 -72 26 -159 -8 -192z m8622 -232 l-32 -330 -138 261 c-76 143 -109 339 -72 434 106 276 279 15 242 -365z m-22671 -24 c-81 -81 -111 -70 -111 42 0 199 134 334 184 185 21 -64 -12 -166 -73 -227z m21089 79 c-68 -82 -164 -150 -212 -150 -49 0 -88 68 -88 150 0 86 90 150 212 150 178 0 192 -25 88 -150z m-20440 -323 c-33 -33 -56 26 -52 131 5 117 28 141 60 61 29 -72 26 -159 -8 -192z m21248 -127 c51 0 92 -37 92 -83 0 -45 -135 -63 -299 -38 -164 24 -272 86 -240 139 33 53 126 70 207 39 82 -31 190 -57 240 -57z m-21378 -366 c-47 -122 -74 -126 -142 -17 -47 73 -86 195 -86 270 -2 108 29 112 142 18 79 -66 118 -188 86 -271z m13070 75 c0 -49 -90 -67 -200 -38 -110 29 -200 70 -200 91 0 21 90 38 200 38 110 0 200 -41 200 -91z m-600 -48 c0 -22 -68 -66 -150 -97 -82 -32 -150 -14 -150 39 0 53 68 97 150 97 82 0 150 -18 150 -39z m1554 -68 c36 -58 45 -127 20 -152 -69 -70 -374 68 -374 170 0 125 274 111 354 -18z m-2054 -132 c0 -22 -70 -66 -155 -99 -89 -34 -129 -18 -94 39 58 95 249 141 249 60z m1125 -127 c-69 -28 -181 -28 -250 0 -69 28 -12 50 125 50 138 0 194 -22 125 -50z m8675 -18 c0 -94 -1876 -1378 -2165 -1480 -102 -37 -264 -134 -361 -217 -96 -83 -205 -121 -242 -84 -89 89 140 260 1234 923 503 306 994 642 1090 749 178 196 444 262 444 109z m-18900 -512 c0 -254 -82 -623 -183 -820 -100 -197 -187 -579 -193 -848 -15 -628 -289 -1262 -913 -2110 -722 -981 -772 -1026 -1153 -1026 -477 0 -882 374 -1143 1055 -209 548 -317 1270 -119 795 100 -238 477 -650 596 -650 187 0 773 295 925 467 89 101 376 498 637 883 261 385 513 715 560 733 47 19 86 100 86 181 0 81 40 123 89 93 171 -106 312 219 369 853 75 811 89 857 282 857 123 0 160 -106 160 -463z m9800 456 c0 -22 -135 -87 -300 -145 -347 -121 -410 -53 -75 82 253 102 375 122 375 63z m-13250 -160 c-34 -55 -82 -100 -106 -100 -24 0 -44 45 -44 100 0 55 48 100 106 100 58 0 78 -45 44 -100z m11850 -160 c0 -160 -116 -368 -300 -540 -165 -154 -300 -327 -300 -384 0 -57 -53 -137 -117 -177 -78 -48 -96 -18 -56 88 35 89 -25 270 -133 407 -233 297 -257 444 -37 223 201 -201 383 -199 552 4 113 136 105 182 -57 300 -105 76 -227 139 -271 139 -45 0 -81 45 -81 100 0 55 180 100 400 100 364 0 400 -23 400 -260z m600 221 c0 -22 -70 -66 -155 -99 -89 -34 -129 -18 -94 39 58 95 249 141 249 60z m650 -314 c-315 -258 -237 -344 103 -113 240 164 647 274 647 175 0 -40 -157 -147 -350 -239 -193 -92 -350 -212 -350 -268 0 -134 132 -130 271 9 61 61 166 93 232 71 66 -22 -65 -162 -291 -312 -446 -295 -488 -383 -271 -562 111 -93 196 -62 406 148 146 146 296 234 334 196 38 -37 -10 -126 -106 -196 -96 -71 -175 -185 -175 -254 0 -100 33 -99 158 4 219 182 274 66 492 -1041 l182 -926 -362 -644 c-397 -708 -733 -1009 -833 -747 -77 201 -237 195 -237 -10 0 -89 -135 -315 -300 -503 -165 -188 -300 -381 -300 -428 0 -144 -536 -707 -672 -707 -71 0 -128 83 -128 185 0 101 -90 265 -200 365 -236 214 -271 499 -50 414 97 -37 151 3 153 114 2 95 69 259 150 366 81 107 147 267 147 356 0 89 124 208 275 266 l275 104 -266 73 c-183 51 -346 21 -528 -98 -228 -150 -245 -193 -125 -334 109 -128 113 -207 17 -390 l-120 -228 -148 228 c-82 126 -175 342 -207 479 -52 223 1 280 497 527 389 194 591 247 677 176 154 -128 257 -31 180 170 -32 85 -18 135 32 112 50 -23 215 -104 366 -179 369 -185 488 -40 175 214 -137 111 -250 240 -250 286 0 185 -226 278 -750 308 -302 18 -610 -5 -683 -52 -100 -63 -125 -25 -100 152 22 161 89 227 209 206 292 -49 308 249 33 609 -142 186 -228 368 -192 405 85 85 -148 68 -467 -34 -137 -44 -194 -85 -125 -90 69 -6 125 -55 125 -110 0 -144 -274 -123 -335 25 -29 69 -43 35 -31 -75 12 -110 50 -245 84 -300 35 -55 78 -280 97 -500 35 -397 32 -400 -340 -431 l-375 -31 0 437 c0 241 -84 615 -188 831 -351 737 -353 818 -22 989 387 200 578 208 420 17 -81 -98 -85 -215 -11 -408 56 -149 77 -312 46 -362 -75 -121 23 -116 262 12 241 129 256 313 18 226 -116 -42 -82 31 101 218 259 263 287 271 458 117 241 -219 446 -208 666 35 100 110 242 200 315 200 76 0 135 106 135 243 0 133 71 313 157 400 229 229 306 192 92 -44 -268 -296 -119 -344 213 -68 239 199 734 440 938 458 28 2 -85 -107 -250 -242z m1687 150 c-68 -68 -185 -70 -345 -6 -227 90 -221 97 103 103 237 4 313 -26 242 -97z m40 -563 c-102 -102 -229 -135 -344 -90 -158 62 -142 90 117 200 359 153 447 110 227 -110z m7748 200 c-69 -28 -125 -114 -125 -192 0 -78 -47 -142 -104 -142 -70 0 -69 64 4 200 59 110 162 196 229 192 91 -6 90 -20 -4 -58z m-6825 -118 c0 -46 -112 -135 -250 -198 -270 -123 -281 -115 -189 124 62 162 439 226 439 74z m-6144 -169 c-107 -81 -242 -146 -300 -144 -58 2 -19 69 88 150 107 81 242 146 300 144 58 -2 19 -69 -88 -150z m10444 3 c-68 -82 -173 -150 -231 -150 -59 0 -20 66 87 147 251 190 300 191 144 3z m-9400 -106 c0 -86 -45 -128 -100 -94 -55 34 -100 104 -100 156 0 52 45 94 100 94 55 0 100 -70 100 -156z m8319 -12 c-72 -29 -159 -26 -192 8 -33 33 26 56 131 52 117 -5 141 -28 61 -60z m-5475 -279 c-107 -81 -239 -147 -294 -147 -55 0 -13 66 94 147 107 81 239 147 294 147 55 0 13 -66 -94 -147z m1556 58 c0 -100 -241 -211 -458 -211 -202 0 -176 176 33 231 300 78 425 72 425 -20z m800 13 c0 -42 -90 -132 -200 -201 -175 -109 -200 -100 -200 76 0 134 66 201 200 201 110 0 200 -34 200 -76z m-11900 -124 c0 -55 -42 -100 -94 -100 -52 0 -122 45 -156 100 -34 55 8 100 94 100 86 0 156 -45 156 -100z m1027 -83 c602 -188 657 -319 131 -314 -274 3 -758 283 -758 438 0 76 -40 84 627 -124z m3936 -317 c204 0 635 -970 636 -1431 1 -229 -39 -356 -99 -319 -55 34 -100 172 -100 307 0 134 -108 339 -241 454 -132 115 -269 359 -303 542 -34 183 -114 350 -177 371 -71 23 -82 91 -28 177 62 101 97 106 126 19 22 -66 105 -120 186 -120z m6337 133 c0 -37 -74 -150 -165 -250 -174 -192 -735 -255 -735 -83 0 55 107 100 238 100 131 0 294 68 362 150 128 154 300 202 300 83z m1443 -22 c30 -48 -35 -112 -144 -140 -196 -51 -263 31 -132 162 92 93 211 84 276 -22z m587 -117 c45 -169 29 -184 -88 -87 -159 132 -189 293 -54 293 49 0 113 -93 142 -206z m-1280 6 c34 -55 3 -100 -70 -100 -72 0 -324 -182 -559 -403 -236 -222 -472 -378 -524 -345 -52 32 90 234 316 449 519 494 719 589 837 399z m-10350 -200 c0 -55 -101 -99 -225 -98 -182 1 -196 20 -75 98 194 125 300 125 300 0z m-875 -166 c-69 -28 -181 -28 -250 0 -69 28 -12 50 125 50 138 0 194 -22 125 -50z m12288 -103 c120 -148 115 -160 -39 -102 -97 36 -289 15 -426 -48 -296 -135 -427 -47 -250 167 168 202 544 193 715 -17z m-1013 -20 c0 -96 -243 -213 -433 -208 -64 2 -30 69 77 150 220 167 356 189 356 58z m-16562 -166 c34 -89 18 -129 -39 -94 -55 33 -99 103 -99 155 0 144 72 112 138 -61z m6362 55 c0 -55 -169 -100 -375 -101 -206 -1 -544 -29 -750 -63 -239 -40 -375 -23 -375 45 0 99 336 156 1175 202 179 9 325 -28 325 -83z m12800 -50 c0 -82 -40 -150 -89 -150 -49 0 -116 68 -147 150 -35 91 0 150 89 150 81 0 147 -67 147 -150z m750 50 c34 -55 -8 -100 -94 -100 -86 0 -156 45 -156 100 0 55 42 100 94 100 52 0 122 -45 156 -100z m-15350 -100 c0 -115 -240 -115 -600 0 -212 68 -186 82 175 90 234 6 425 -35 425 -90z m7097 4 c81 -51 117 -124 79 -161 -91 -91 -376 25 -376 154 0 127 104 129 297 7z m8986 -155 c274 -138 638 -278 808 -312 170 -34 309 -99 309 -144 0 -179 -186 -175 -534 11 -201 108 -399 186 -441 173 -104 -32 -725 348 -725 445 0 113 33 104 583 -173z m-13701 -193 c-128 -65 -308 -100 -401 -77 -291 71 19 286 343 239 l290 -43 -232 -119z m2199 42 c231 -112 419 -247 419 -300 0 -144 -158 -119 -295 46 -66 79 -214 158 -329 175 -116 17 -229 87 -252 156 -53 164 -35 160 457 -77z m9015 56 c131 -157 50 -394 -102 -300 -51 31 -140 145 -197 252 -80 149 -72 194 37 194 78 0 196 -66 262 -146z m3423 78 c-72 -29 -159 -26 -192 8 -33 33 26 56 131 52 117 -5 141 -28 61 -60z m-16143 -157 c-50 -151 -476 -231 -476 -89 0 87 167 165 433 202 46 7 65 -44 43 -113z m5774 25 c-34 -55 -82 -100 -106 -100 -24 0 -44 45 -44 100 0 55 48 100 106 100 58 0 78 -45 44 -100z m5447 4 c92 -58 193 -54 273 13 200 166 630 13 630 -225 0 -128 -43 -177 -115 -133 -103 64 -593 145 -985 163 -82 4 -229 -27 -325 -68 -259 -112 -213 97 50 224 285 137 295 138 472 26z m3603 -358 c0 -80 -36 -146 -80 -146 -126 0 -320 227 -320 374 0 102 46 108 200 26 110 -59 200 -173 200 -254z m-11567 -71 c180 -179 544 -516 809 -748 407 -357 455 -435 305 -492 -132 -51 -257 34 -483 323 -167 216 -504 583 -748 817 -244 234 -391 425 -327 425 65 0 265 -146 444 -325z m10603 -96 c-49 -82 -536 118 -536 220 0 37 28 96 62 130 80 79 532 -255 474 -350z m-15436 165 c0 -24 -70 -44 -156 -44 -86 0 -128 46 -93 102 57 92 249 48 249 -58z m3500 67 c0 -49 -67 -116 -150 -147 -91 -35 -150 0 -150 89 0 81 68 147 150 147 83 0 150 -40 150 -89z m8275 -36 c-23 -69 -124 -125 -225 -125 -101 0 -202 56 -225 125 -26 79 56 125 225 125 169 0 251 -46 225 -125z m5697 -375 c290 0 297 -159 10 -234 -202 -52 -782 198 -782 339 0 157 145 175 335 41 115 -80 312 -146 437 -146z m-4719 96 c35 -57 148 -77 252 -45 205 66 595 -101 595 -255 0 -134 -573 -121 -657 16 -42 67 -241 92 -506 62 -453 -51 -565 42 -262 218 228 133 497 135 578 4z m1401 2 c220 -83 246 -127 146 -248 -145 -175 -500 -31 -500 204 0 174 11 175 354 44z m1948 -150 c161 -194 99 -256 -181 -182 -122 31 -221 120 -221 196 0 184 244 176 402 -14z m-14683 -16 c-72 -29 -159 -26 -192 8 -33 33 26 56 131 52 117 -5 141 -28 61 -60z m7381 -136 c-188 -150 -336 -184 -599 -139 -757 132 -614 344 230 341 l619 -2 -250 -200z m6345 88 c283 -129 336 -359 104 -448 -196 -76 -449 136 -449 376 0 221 13 224 345 72z m-14712 -127 c30 -78 -10 -196 -89 -262 -119 -99 -144 -74 -144 143 0 281 143 354 233 119z m11296 -57 c-29 -111 -136 -200 -241 -200 -210 0 -258 255 -63 334 260 105 355 63 304 -134z m-7754 -8 c-217 -126 -228 -292 -19 -292 86 0 128 -45 94 -100 -34 -55 -149 -100 -256 -100 -149 0 -194 70 -194 300 0 261 35 300 275 297 235 -3 250 -18 100 -105z m3200 8 c231 0 244 -25 174 -325 -43 -179 -82 -446 -88 -595 -15 -360 -228 -583 -322 -337 -38 98 -21 206 36 242 104 65 159 317 137 626 -9 116 -82 148 -263 113 -252 -48 -549 115 -549 301 0 59 129 74 313 38 171 -35 425 -63 562 -63z m9674 -159 c133 -87 289 -129 347 -94 57 36 104 0 104 -79 0 -95 -95 -139 -275 -129 -342 18 -525 129 -525 317 0 183 51 181 349 -15z m-14224 -7 c-69 -28 -181 -28 -250 0 -69 28 -12 50 125 50 138 0 194 -22 125 -50z m9775 -34 c-196 -127 -328 -127 -250 0 34 55 138 99 231 98 146 -1 148 -14 19 -98z m3480 -20 c176 -176 147 -280 -80 -280 -110 0 -200 19 -200 42 0 23 -27 113 -61 200 -72 189 164 215 341 38z m-1537 -151 c-69 -69 -143 -178 -164 -242 -29 -87 -92 -87 -259 2 -349 187 -269 366 164 366 309 0 360 -25 259 -126z m-14443 -32 c0 -120 -282 -248 -364 -166 -88 88 61 269 220 269 79 0 144 -46 144 -103z m13482 -172 c36 -255 -52 -279 -307 -86 -247 188 -219 381 50 343 145 -21 236 -112 257 -257z m-14222 -198 c-101 -102 -185 51 -102 186 63 102 87 102 121 1 23 -70 15 -154 -19 -187z m12440 177 c0 -54 -85 -143 -189 -198 -140 -75 -221 -65 -306 38 -91 109 -77 149 65 186 311 81 430 73 430 -26z m3600 -54 c0 -82 -67 -150 -150 -150 -260 0 -176 197 125 292 14 4 25 -59 25 -142z m-13635 -196 c-32 -85 -105 -154 -162 -154 -146 0 -128 274 22 328 170 61 211 10 140 -174z m10835 146 c0 -55 -45 -100 -100 -100 -55 0 -100 45 -100 100 0 55 45 100 100 100 55 0 100 -45 100 -100z m4250 -47 c385 -139 399 -160 125 -193 -69 -8 -113 -89 -97 -180 32 -194 -122 -307 -473 -345 -176 -18 -323 57 -476 244 -244 298 -282 421 -129 421 55 0 100 -69 100 -152 0 -204 465 -378 683 -255 155 87 154 99 -8 161 -96 37 -175 153 -175 257 0 104 11 188 25 187 14 0 205 -66 425 -145z m-13850 -139 c0 -48 -112 -65 -250 -38 -137 26 -250 65 -250 86 0 21 113 38 250 38 138 0 250 -39 250 -86z m3775 -189 c-25 -151 -78 -348 -117 -437 -49 -115 -6 -178 153 -220 167 -44 196 -90 117 -188 -58 -71 -159 -377 -225 -680 -125 -576 -65 -781 560 -1930 122 -224 128 -310 30 -429 -179 -215 -340 -118 -362 217 -31 488 -155 886 -313 1002 -98 73 -148 272 -143 575 4 256 -16 465 -44 465 -27 0 -170 -85 -316 -189 -146 -104 -310 -183 -365 -175 -55 8 -104 -53 -110 -136 -20 -313 -44 -333 -175 -154 -214 293 -298 8 -107 -368 276 -546 642 -978 828 -978 97 0 304 -133 461 -296 240 -252 264 -321 153 -454 -116 -140 -151 -127 -311 117 -100 152 -267 307 -372 346 -104 39 -399 369 -654 734 -373 533 -463 744 -462 1083 0 525 180 1194 300 1119 50 -30 65 -121 34 -202 -73 -190 13 -186 319 15 291 190 326 382 57 312 -360 -94 -458 91 -154 290 156 102 385 287 509 411 124 124 317 225 429 225 113 0 205 45 205 100 0 55 28 100 61 100 34 0 40 -124 14 -275z m7519 9 c24 -22 -26 -109 -112 -195 -130 -130 -191 -135 -359 -30 -286 178 -172 406 162 326 146 -35 285 -80 309 -101z m-14294 -34 c0 -55 -70 -100 -156 -100 -86 0 -128 45 -94 100 34 55 104 100 156 100 52 0 94 -45 94 -100z m5800 19 c0 -45 -134 -181 -298 -302 -456 -337 -877 -1291 -932 -2113 -21 -324 -81 -442 -274 -540 -135 -69 -240 -202 -232 -295 8 -93 -41 -169 -108 -169 -216 0 -567 -449 -446 -570 60 -60 93 -185 74 -279 -51 -253 -840 554 -917 938 -83 415 291 1311 546 1311 103 0 187 69 187 154 0 88 70 142 162 125 226 -41 391 407 179 488 -221 85 -907 -685 -1200 -1348 -379 -855 -333 -1212 228 -1772 258 -258 640 -582 849 -720 208 -138 354 -291 324 -339 -91 -149 -217 -100 -561 219 -182 169 -462 402 -623 519 l-291 211 55 -211 c40 -152 17 -196 -83 -158 -77 29 -139 4 -139 -57 0 -61 -67 -111 -150 -111 -82 0 -150 -63 -150 -139 0 -77 -67 -166 -150 -197 -267 -103 -160 -345 300 -675 247 -177 450 -385 450 -462 0 -128 -1021 575 -1404 966 -328 335 -410 737 -311 1515 98 770 431 1692 611 1692 57 0 104 62 104 138 0 161 724 764 1130 940 154 67 407 122 562 122 342 0 1178 351 1471 618 220 201 830 566 962 576 41 3 75 -31 75 -75z m7450 -19 c-34 -55 -107 -100 -162 -100 -55 0 -72 45 -38 100 34 55 107 100 162 100 55 0 72 -45 38 -100z m-1718 -66 c118 -118 -134 -315 -336 -262 -201 53 -247 144 -129 261 85 86 380 87 465 1z m828 -207 c-101 -102 -185 51 -102 186 63 102 87 102 121 1 23 -70 15 -154 -19 -187z m-13324 23 c-31 -82 -126 -150 -209 -150 -123 0 -128 28 -27 150 68 83 163 150 209 150 47 0 59 -67 27 -150z m2790 -108 c54 -285 -112 -407 -401 -296 -163 64 -162 78 19 211 175 129 177 143 19 143 -96 0 -147 45 -113 100 125 203 426 103 476 -158z m1044 58 c127 0 230 -45 230 -100 0 -55 -157 -100 -350 -100 -294 0 -350 35 -350 220 0 171 27 193 120 100 66 -66 224 -120 350 -120z m12330 100 c0 -55 -45 -100 -100 -100 -55 0 -100 45 -100 100 0 55 45 100 100 100 55 0 100 -45 100 -100z m2700 14 c0 -118 -814 -1034 -869 -978 -63 63 669 1064 778 1064 50 0 91 -39 91 -86z m-13681 -282 c-72 -29 -159 -26 -192 8 -33 33 26 56 131 52 117 -5 141 -28 61 -60z m6481 -82 c0 -82 -68 -150 -150 -150 -260 0 -176 197 125 292 14 4 25 -59 25 -142z m2336 -100 c-61 -159 -236 -208 -236 -67 0 106 109 217 214 217 44 0 54 -67 22 -150z m2714 50 c34 -55 172 -100 306 -100 275 0 314 -117 98 -296 -166 -138 -354 -60 -354 147 0 76 -79 185 -175 241 -96 56 -121 103 -56 105 66 2 147 -42 181 -97z m-15750 -150 c0 -82 -67 -150 -150 -150 -260 0 -176 197 125 292 14 4 25 -59 25 -142z m14900 -50 c-59 -110 -150 -200 -204 -200 -53 0 -96 90 -96 200 0 134 67 200 204 200 172 0 187 -30 96 -200z m-16023 -19 c-62 -185 -277 -216 -277 -39 0 87 71 158 158 158 87 0 141 -53 119 -119z m3880 31 c-70 -115 -457 -215 -457 -119 0 126 126 207 323 207 104 0 164 -40 134 -88z m11353 -350 c-61 -74 -234 -109 -408 -84 -368 54 -411 -147 -52 -237 269 -67 344 -241 105 -241 -80 0 -257 51 -392 112 -216 99 -234 143 -139 350 83 182 187 238 445 238 228 0 360 57 406 175 65 165 71 165 105 -5 20 -99 -11 -237 -70 -308z m5490 380 c0 -75 -668 -887 -1025 -1246 -311 -313 -338 -396 -129 -396 80 0 271 162 425 359 153 198 424 524 602 725 177 201 323 405 325 453 1 48 67 33 147 -33 124 -103 90 -177 -225 -495 -571 -576 -1020 -1140 -1020 -1281 0 -152 162 -170 250 -28 34 55 106 100 161 100 54 0 -32 -191 -193 -425 -160 -234 -383 -605 -496 -825 -113 -220 -303 -459 -422 -531 -202 -122 -212 -115 -147 90 56 177 38 209 -91 159 -117 -45 -162 -4 -162 147 0 184 -20 193 -166 72 -151 -124 -156 -116 -50 81 64 121 116 267 116 325 0 223 -170 92 -349 -268 -349 -704 -267 -85 90 680 427 914 721 1302 843 1114 62 -95 254 60 711 575 556 628 805 828 805 648z m-4225 -167 c-47 -142 -208 -126 -258 25 -19 55 41 100 133 100 92 0 148 -56 125 -125z m-13756 -43 c-72 -29 -159 -26 -192 8 -33 33 26 56 131 52 117 -5 141 -28 61 -60z m-5719 -176 c0 -79 -45 -172 -100 -206 -55 -34 -100 31 -100 144 0 113 45 206 100 206 55 0 100 -65 100 -144z m638 -131 c-94 -393 -138 -406 -138 -42 0 175 46 317 102 317 60 0 75 -112 36 -275z m11053 34 c124 -132 287 -413 361 -625 114 -325 175 -381 400 -364 202 15 251 -17 207 -133 -33 -84 -59 -197 -59 -251 0 -111 -605 -686 -722 -686 -135 0 -85 155 122 377 110 118 199 295 197 394 -3 171 -9 172 -138 1 -122 -160 -142 -162 -197 -17 -34 89 -62 270 -62 403 0 258 -145 329 -229 111 -28 -73 -30 -264 -6 -425 42 -273 30 -266 -160 99 -202 387 -263 890 -144 1199 82 215 165 199 430 -83z m-7553 -179 c-28 -44 -115 -80 -194 -80 -177 0 -192 267 -19 327 140 48 289 -124 213 -247z m1662 120 c0 -55 -70 -100 -156 -100 -86 0 -128 45 -94 100 34 55 104 100 156 100 52 0 94 -45 94 -100z m14271 -138 c-53 -159 -371 -202 -506 -67 -85 85 -79 135 22 197 177 109 532 14 484 -130z m-17171 38 c0 -55 -45 -100 -100 -100 -55 0 -100 45 -100 100 0 55 45 100 100 100 55 0 100 -45 100 -100z m2160 -173 c-33 -33 -56 26 -52 131 5 117 28 141 60 61 29 -72 26 -159 -8 -192z m10900 59 c104 -117 335 -275 513 -350 203 -86 398 -283 524 -530 110 -216 246 -421 302 -455 126 -78 133 -519 9 -596 -51 -31 -238 168 -417 444 -179 276 -399 501 -490 501 -196 0 -485 305 -781 825 -199 350 -201 375 -32 375 99 0 267 -96 372 -214z m-15860 -142 c0 -24 -45 -44 -100 -44 -55 0 -100 48 -100 106 0 58 45 78 100 44 55 -34 100 -82 100 -106z m19000 50 c0 -58 -45 -78 -100 -44 -55 34 -100 82 -100 106 0 24 45 44 100 44 55 0 100 -48 100 -106z m-16240 -367 c-101 -102 -185 51 -102 186 63 102 87 102 121 1 23 -70 15 -154 -19 -187z m1340 120 c0 -160 -266 -315 -367 -214 -32 32 -31 128 2 213 76 200 365 200 365 1z m-4102 -322 c1 -69 -43 -125 -98 -125 -55 0 -99 124 -98 275 1 214 22 242 98 125 53 -82 98 -206 98 -275z m1402 225 c0 -93 -94 -150 -250 -150 -311 0 -330 171 -25 229 124 24 236 50 250 57 14 8 25 -53 25 -136z m18042 89 c87 -33 158 -123 158 -200 0 -209 -278 -167 -400 61 -111 208 -41 248 242 139z m-14952 -670 c6 -99 -35 -153 -90 -119 -55 34 -96 228 -90 431 9 331 18 344 90 119 44 -137 85 -331 90 -431z m14210 475 c0 -86 -45 -128 -100 -94 -55 34 -100 104 -100 156 0 52 45 94 100 94 55 0 100 -70 100 -156z m4900 -33 c0 -166 -269 -375 -363 -282 -31 32 282 467 338 470 14 0 25 -84 25 -188z m-20800 -311 c0 -55 -45 -100 -100 -100 -55 0 -100 45 -100 100 0 55 45 100 100 100 55 0 100 -45 100 -100z m1300 -89 c0 -227 -232 -339 -385 -186 -80 80 -80 146 0 243 161 194 385 161 385 -57z m15100 -72 c0 -76 -39 -139 -88 -139 -124 0 -322 257 -251 327 96 97 339 -38 339 -188z m-18136 -9 c-107 -106 -373 -125 -309 -21 31 50 129 91 218 91 88 0 129 -31 91 -70z m3111 -393 c344 -92 268 -237 -125 -237 -244 0 -350 45 -350 150 0 161 118 183 475 87z m-2706 -712 c13 -455 -10 -610 -68 -475 -108 248 -128 1150 -26 1150 41 0 84 -304 94 -675z m397 148 c-28 -68 -49 12 -47 177 3 165 25 220 50 123 26 -97 24 -232 -3 -300z m-2100 2 c-28 -69 -50 -12 -50 125 0 138 22 194 50 125 28 -69 28 -181 0 -250z m928 -200 c-6 -304 -13 -310 -101 -91 -51 129 -68 275 -37 325 102 166 144 95 138 -234z m3381 200 c-23 -69 -102 -125 -175 -125 -73 0 -152 56 -175 125 -25 74 46 125 175 125 129 0 200 -51 175 -125z m-257 -597 c-71 -71 -118 -77 -118 -15 0 134 118 252 185 185 28 -28 -2 -105 -67 -170z m5573 -39 c-93 -112 -81 -185 61 -341 98 -109 249 -198 333 -198 121 0 128 27 35 120 -135 135 -159 282 -45 277 171 -7 416 -277 479 -527 86 -343 -195 -489 -401 -208 -75 103 -170 154 -211 113 -41 -40 5 -161 102 -268 96 -107 144 -246 105 -308 -48 -78 -110 -56 -198 69 -70 100 -129 205 -131 232 -2 27 -99 293 -216 591 -166 419 -185 559 -89 618 187 116 312 -6 176 -170z m-6691 -77 c0 -21 -90 -62 -200 -91 -110 -29 -200 -11 -200 38 0 50 90 91 200 91 110 0 200 -17 200 -38z m18418 -384 c-71 -71 -118 -77 -118 -15 0 134 118 252 185 185 28 -28 -2 -105 -67 -170z m-19218 -284 c0 -223 -36 -383 -81 -356 -77 48 -38 762 42 762 21 0 39 -183 39 -406z m800 368 c0 -21 -90 -62 -200 -91 -110 -29 -200 -11 -200 38 0 50 90 91 200 91 110 0 200 -17 200 -38z m18742 -298 c-35 -90 -105 -164 -156 -164 -51 0 -43 94 19 209 127 237 232 204 137 -45z m-12342 -20 c0 -24 -45 -44 -100 -44 -55 0 -100 48 -100 106 0 58 45 78 100 44 55 -34 100 -82 100 -106z m-6782 -166 c-71 -71 -118 -77 -118 -15 0 57 30 134 67 170 36 37 90 44 118 15 28 -28 -2 -105 -67 -170z m19642 -251 c-33 -33 -56 26 -52 131 5 117 28 141 60 61 29 -72 26 -159 -8 -192z m2252 -94 c-118 -203 -146 -138 -50 113 35 90 84 142 110 116 25 -26 -1 -129 -60 -229z m-1370 -269 c-65 -167 -242 -229 -242 -84 0 97 223 330 271 283 18 -19 5 -108 -29 -199z m-16642 -20 c0 -24 -45 -44 -100 -44 -55 0 -100 48 -100 106 0 58 45 78 100 44 55 -34 100 -82 100 -106z m3500 -175 c0 -163 -348 -14 -382 163 -31 159 -10 165 173 50 115 -72 209 -168 209 -213z m13498 6 c0 -69 -45 -192 -98 -275 -76 -117 -97 -89 -98 125 -1 151 43 275 98 275 55 0 99 -56 98 -125z m-16198 -225 c69 -84 80 -150 24 -150 -55 0 -156 68 -224 150 -69 84 -80 150 -24 150 55 0 156 -68 224 -150z"/>
<path d="M500 23844 c0 -212 40 -331 100 -294 55 34 100 194 100 356 0 162 -45 294 -100 294 -55 0 -100 -160 -100 -356z"/>
<path d="M7734 21074 c-28 -46 5 -150 73 -232 342 -412 752 -1581 705 -2007 -17 -153 28 -210 157 -200 159 13 180 -68 172 -674 -7 -613 7 -668 132 -500 102 137 124 349 80 772 -42 401 -27 563 46 518 58 -36 96 -119 83 -184 -31 -161 301 -767 421 -767 157 0 112 192 -98 418 -107 115 -223 338 -258 496 -55 248 -176 330 -452 305 -30 -3 -99 240 -154 539 -119 651 27 689 236 61 77 -231 193 -419 258 -419 66 0 229 -201 364 -448 225 -412 463 -623 575 -511 26 25 -47 146 -162 269 -114 122 -256 369 -315 548 -59 179 -212 394 -340 478 -128 84 -264 279 -303 433 -38 155 -141 360 -227 456 -87 96 -111 175 -53 175 58 0 252 -228 430 -507 238 -370 349 -471 413 -375 69 104 118 92 233 -60 104 -136 116 -228 43 -317 -203 -244 387 -976 738 -915 208 36 205 44 -51 152 -266 111 -678 722 -488 722 53 0 268 -157 477 -350 391 -358 573 -425 681 -250 34 55 -10 100 -99 100 -193 0 -1050 797 -1051 978 0 71 -67 154 -150 186 -82 31 -150 138 -150 236 0 183 -481 800 -622 800 -43 0 -79 -79 -81 -175 -3 -153 -19 -156 -125 -25 -270 332 -994 506 -1138 274z m1666 -855 c0 -126 -29 -119 -147 37 -192 254 -194 402 -3 244 83 -68 150 -195 150 -281z"/>
<path d="M8572 18012 c-43 -241 -55 -463 -25 -492 113 -113 164 77 134 495 l-31 435 -78 -438z"/>
<path d="M11338 16021 c-534 -82 -605 -122 -589 -332 9 -119 90 -270 180 -336 99 -73 128 -156 72 -211 -55 -56 203 -92 654 -92 660 0 745 21 745 187 0 144 -56 176 -244 140 -133 -26 -302 -9 -375 37 -90 57 -54 84 119 86 272 3 382 63 579 315 117 149 75 169 -412 200 -298 19 -626 22 -729 6z m681 -289 c-72 -29 -159 -26 -192 8 -33 33 26 56 131 52 117 -5 141 -28 61 -60z m-400 -100 c-72 -29 -159 -26 -192 8 -33 33 26 56 131 52 117 -5 141 -28 61 -60z"/>
<path d="M7979 14964 c-204 -64 -429 -178 -500 -255 -108 -116 -96 -126 71 -62 457 174 550 176 550 15 0 -89 56 -163 125 -164 83 -1 75 -33 -25 -98 -118 -76 -121 -97 -13 -98 111 -2 113 -31 13 -152 -68 -82 -169 -150 -224 -150 -56 0 -45 66 24 150 144 173 -4 206 -172 38 -62 -62 -87 -186 -56 -275 31 -90 -109 13 -311 228 -285 304 -395 365 -487 273 -93 -93 -61 -170 144 -342 480 -405 643 -972 279 -972 -112 0 -227 -79 -255 -175 -29 -96 -142 -345 -251 -552 -192 -362 -186 -573 15 -573 52 0 94 59 94 131 0 73 135 261 300 419 165 158 300 365 300 460 0 96 49 190 109 210 60 20 116 170 124 333 18 376 371 699 992 905 261 87 475 202 475 256 0 54 -46 69 -103 34 -212 -131 -697 -232 -697 -145 0 49 180 143 400 209 220 66 400 163 400 215 0 93 -117 77 -550 -74 -187 -65 -189 -60 -25 75 96 79 175 173 175 208 0 97 -504 57 -921 -72z"/>
<path d="M15596 14917 c-455 -369 9 -1047 548 -801 295 134 334 429 100 762 -189 270 -351 280 -648 39z m465 -192 c193 -255 169 -325 -111 -325 -200 0 -250 50 -250 250 0 291 170 326 361 75z"/>
<path d="M10255 14389 c-1160 -310 -1555 -499 -1555 -744 0 -255 277 -275 646 -48 333 206 1638 571 2297 642 224 24 316 91 339 247 27 184 -15 213 -300 205 -183 -6 -825 -141 -1427 -302z"/>
<path d="M7740 14450 c-204 -155 -109 -183 203 -60 112 43 150 103 90 140 -57 35 -189 -1 -293 -80z"/>
<path d="M12500 14300 c0 -165 -24 -300 -54 -300 -305 0 -1841 -396 -2816 -726 -970 -328 -1265 -472 -1434 -701 -264 -357 -206 -652 202 -1037 164 -155 376 -497 470 -759 189 -525 391 -649 298 -182 -48 239 -9 335 201 500 143 113 317 205 387 205 78 0 107 77 75 200 -29 110 -92 200 -141 200 -169 0 -87 170 137 283 361 182 -498 29 -914 -163 -326 -150 -347 -147 -527 75 -178 220 -179 237 -10 365 97 73 227 135 289 137 219 6 1280 539 1156 580 -69 23 -240 -34 -381 -126 -140 -92 -282 -140 -314 -108 -112 112 327 342 776 407 248 36 540 122 650 192 214 135 850 286 850 202 0 -28 -101 -91 -225 -141 -152 -61 -172 -92 -62 -97 89 -3 324 62 522 144 582 243 655 167 122 -127 -487 -269 -767 -596 -390 -454 161 60 167 48 46 -100 -172 -211 -104 -212 365 -4 271 120 325 177 197 207 -96 24 -175 80 -175 126 0 109 564 302 885 302 282 0 194 150 -135 229 -146 35 -123 51 86 59 232 10 271 45 211 187 -42 96 -97 299 -122 450 -64 369 -225 351 -225 -25z m-3286 -2703 c-256 -214 -414 -252 -414 -102 0 119 301 299 500 299 104 -1 78 -61 -86 -197z m264 -247 c-277 -257 -478 -322 -478 -156 0 128 408 406 596 406 104 0 68 -78 -118 -250z"/>
<path d="M12300 13100 c-126 -81 -119 -97 42 -98 106 -1 263 -64 350 -140 109 -95 221 -110 358 -48 184 83 182 87 -25 47 -147 -27 -225 7 -225 98 0 78 -19 141 -42 141 -23 0 -102 22 -175 49 -73 27 -200 5 -283 -49z"/>
<path d="M9444 12443 c-187 -152 -185 -156 56 -102 138 31 284 57 325 58 41 0 75 46 75 101 0 150 -237 120 -456 -57z"/>
<path d="M8675 12192 c-96 -56 -175 -152 -175 -212 0 -65 73 -48 175 41 96 84 243 178 325 208 133 49 133 56 0 60 -82 3 -229 -41 -325 -97z"/>
<path d="M9420 10880 c-191 -191 -139 -294 80 -157 202 126 267 277 120 277 -44 0 -134 -54 -200 -120z"/>
<path d="M17834 15425 c58 -345 243 -825 318 -825 55 0 -16 555 -117 925 -79 285 -251 199 -201 -100z"/>
<path d="M3733 9131 c-36 -99 -245 -440 -465 -757 -380 -549 -474 -873 -145 -500 354 403 870 1318 776 1377 -55 34 -130 -20 -166 -120z"/>
<path d="M2565 7286 c-102 -59 -319 -80 -483 -47 -212 42 -286 24 -257 -65 70 -213 619 -202 883 18 257 214 166 274 -143 94z"/>
<path d="M13850 7400 c-34 -55 -14 -100 44 -100 58 0 106 45 106 100 0 55 -20 100 -44 100 -24 0 -72 -45 -106 -100z"/>
<path d="M13525 6680 c-120 -145 -51 -680 87 -680 164 0 488 399 488 600 0 217 -146 268 -257 89 -49 -80 -88 -78 -139 5 -53 85 -100 82 -179 -14z"/>
<path d="M13508 5758 c-4 -105 19 -164 52 -131 34 33 37 120 8 192 -32 80 -55 56 -60 -61z"/>
<path d="M10600 6056 c0 -176 60 -202 146 -63 31 51 12 121 -44 156 -56 35 -102 -7 -102 -93z"/>
<path d="M8725 5636 c-274 -296 -278 -336 -37 -336 104 0 216 79 250 175 34 96 88 231 120 300 94 201 -89 124 -333 -139z"/>
<path d="M6467 4533 c-37 -36 -67 -113 -67 -170 0 -62 47 -56 118 15 65 65 95 142 67 170 -28 29 -82 22 -118 -15z"/>
<path d="M5850 4100 c-82 -132 38 -319 157 -246 121 75 121 346 -1 346 -52 0 -122 -45 -156 -100z"/>
<path d="M12323 24929 c150 -23 420 -24 600 -1 180 22 57 40 -273 41 -330 1 -477 -18 -327 -40z"/>
<path d="M13300 24875 c0 -41 728 -75 1617 -75 889 0 1586 30 1549 67 -93 93 -3166 101 -3166 8z"/>
<path d="M16676 24614 c-702 -338 -1128 -614 -946 -614 110 0 1970 900 1970 953 0 109 -296 12 -1024 -339z"/>
<path d="M24400 24400 c-289 -334 -548 -585 -575 -558 -27 26 114 239 313 471 575 672 420 684 -213 16 -316 -334 -710 -653 -875 -710 -179 -62 -228 -106 -120 -111 99 -4 317 63 484 149 429 222 472 103 82 -228 -498 -423 -714 -478 -911 -235 -194 239 -285 262 -285 71 0 -256 373 -493 663 -421 378 95 2161 1965 2014 2112 -28 28 -288 -222 -577 -556z"/>
<path d="M10900 24285 c-467 -36 -1334 -70 -1925 -75 -713 -7 -1075 -47 -1075 -121 0 -77 265 -92 875 -48 1842 130 2440 153 4550 177 1196 14 2175 58 2175 98 0 86 -3374 63 -4600 -31z"/>
<path d="M7500 24100 c0 -55 42 -100 94 -100 52 0 122 45 156 100 34 55 -8 100 -94 100 -86 0 -156 -45 -156 -100z"/>
<path d="M4864 23331 c-98 -98 -76 -1031 24 -1031 107 0 209 349 211 719 1 272 -117 429 -235 312z"/>
<path d="M7700 22887 c0 -105 986 -140 2300 -81 688 31 1093 69 900 84 -744 59 -3200 57 -3200 -3z"/>
<path d="M11450 22900 c-145 -62 -34 -91 400 -104 808 -23 1171 6 1350 111 198 115 -1481 109 -1750 -7z"/>
<path d="M24702 22569 c-134 -175 -519 -600 -856 -944 -448 -457 -684 -625 -879 -625 -252 0 -358 -132 -191 -235 220 -136 1317 671 1705 1255 93 140 254 374 358 521 271 383 153 407 -137 28z"/>
<path d="M23924 19931 c95 -25 275 -26 400 -2 124 24 46 45 -174 46 -220 1 -322 -19 -226 -44z"/>
<path d="M67 10233 c-37 -36 -64 -250 -60 -475 6 -378 14 -389 110 -158 57 138 144 328 193 424 50 95 90 196 90 225 0 74 -255 63 -333 -16z"/>
<path d="M2175 8982 c-316 -322 -575 -607 -575 -634 0 -212 630 316 1046 877 400 540 194 434 -471 -243z"/>
<path d="M23646 8993 c-76 -123 -85 -114 286 -274 283 -121 468 -88 468 84 0 50 -67 65 -150 33 -95 -36 -150 2 -150 103 0 181 -350 222 -454 54z"/>
<path d="M24446 8593 c-36 -58 -42 -130 -13 -160 72 -71 267 55 267 173 0 128 -173 119 -254 -13z"/>
<path d="M24705 4599 c-133 -192 -415 -559 -626 -816 -478 -581 -318 -776 178 -218 336 377 485 362 196 -21 -81 -107 -148 -256 -150 -331 -3 -116 22 -116 161 -1 147 121 157 112 94 -88 -39 -123 -34 -224 13 -224 117 0 475 687 397 765 -35 35 -92 -10 -126 -101 -35 -90 -106 -164 -159 -164 -53 0 7 183 132 406 195 347 207 419 82 500 -122 78 -124 109 -12 181 74 48 118 171 99 274 -30 154 -78 126 -279 -162z"/>
<path d="M15153 3904 c-227 -252 -131 -504 192 -504 183 0 268 66 313 244 114 458 -186 612 -505 260z m324 -185 c22 -66 -32 -119 -119 -119 -87 0 -158 71 -158 158 0 177 215 146 277 -39z"/>
<path d="M16331 3401 c-259 -107 -592 -576 -481 -679 43 -40 94 -27 115 28 106 278 242 370 624 421 243 33 403 103 382 168 -48 145 -364 176 -640 62z"/>
<path d="M13238 2646 c-214 -326 -92 -584 291 -613 243 -19 257 6 240 397 -23 513 -270 613 -531 216z m262 -252 c0 -58 -45 -78 -100 -44 -55 34 -100 82 -100 106 0 24 45 44 100 44 55 0 100 -48 100 -106z"/>
<path d="M14557 2463 c-413 -390 -465 -755 -147 -1050 l209 -196 -203 -108 c-277 -149 -316 -139 -316 79 0 553 -597 434 -1185 -236 -306 -349 -443 -952 -215 -952 55 0 101 101 103 225 4 325 734 1075 1047 1075 34 0 48 -101 31 -225 -25 -180 23 -231 238 -256 514 -59 956 728 478 853 -473 123 226 970 728 881 198 -34 275 -6 275 100 0 296 -654 177 -1043 -190z"/>
<path d="M16700 2700 c0 -55 93 -100 206 -100 113 0 178 45 144 100 -34 55 -127 100 -206 100 -79 0 -144 -45 -144 -100z"/>
<path d="M16100 2501 c0 -185 -40 -213 -240 -163 -162 41 -258 12 -296 -89 -86 -223 465 -193 673 37 150 165 152 199 16 312 -129 107 -153 92 -153 -97z"/>
<path d="M16600 1550 c0 -82 45 -150 100 -150 55 0 100 68 100 150 0 83 -45 150 -100 150 -55 0 -100 -67 -100 -150z"/>
<path d="M16199 1251 c125 -150 301 -118 301 55 0 52 -96 94 -212 94 -177 0 -192 -25 -89 -149z"/>
<path d="M17050 1300 c-34 -55 8 -100 94 -100 86 0 156 45 156 100 0 55 -42 100 -94 100 -52 0 -122 -45 -156 -100z"/>
<path d="M15197 1146 c-174 -209 -29 -321 165 -127 93 94 117 182 59 218 -54 33 -155 -7 -224 -91z"/>
<path d="M18600 1000 c0 -55 20 -100 44 -100 24 0 72 45 106 100 34 55 14 100 -44 100 -58 0 -106 -45 -106 -100z"/>
<path d="M3200 900 c0 -55 45 -100 100 -100 55 0 100 45 100 100 0 55 -45 100 -100 100 -55 0 -100 -45 -100 -100z"/>
<path d="M3900 750 c0 -137 45 -250 100 -250 55 0 100 113 100 250 0 138 -45 250 -100 250 -55 0 -100 -112 -100 -250z"/>
<path d="M16700 900 c0 -55 20 -100 44 -100 24 0 72 45 106 100 34 55 14 100 -44 100 -58 0 -106 -45 -106 -100z"/>
<path d="M17350 900 c-34 -55 8 -100 94 -100 86 0 156 45 156 100 0 55 -42 100 -94 100 -52 0 -122 -45 -156 -100z"/>
<path d="M11620 780 c-141 -141 -160 -544 -29 -624 142 -88 396 44 457 239 124 388 -165 648 -428 385z m230 -280 c-79 -128 -150 -128 -150 0 0 55 48 100 106 100 58 0 78 -45 44 -100z"/>
<path d="M19500 813 c0 -98 890 -813 1013 -813 171 0 -42 264 -464 575 -464 342 -549 379 -549 238z"/>
<path d="M1465 723 c-97 -155 143 -737 284 -690 56 18 116 159 134 313 25 218 -1 268 -119 223 -94 -36 -164 7 -185 112 -25 127 -54 137 -114 42z"/>
<path d="M3593 731 c-3 -45 -26 -227 -49 -406 -30 -231 -2 -325 97 -325 157 0 200 663 49 756 -49 31 -93 19 -97 -25z"/>
<path d="M4951 475 c36 -427 29 -416 186 -286 104 86 167 77 262 -38 69 -83 221 -151 338 -151 177 0 138 67 -237 396 -247 218 -478 397 -513 400 -35 2 -51 -142 -36 -321z"/>
<path d="M17300 450 c0 -82 68 -150 150 -150 83 0 150 68 150 150 0 83 -67 150 -150 150 -82 0 -150 -67 -150 -150z"/>
<path d="M2958 413 c-31 -50 11 -146 93 -214 121 -100 149 -94 149 33 0 187 -163 309 -242 181z"/>
<path d="M14744 358 c-106 -78 -166 -169 -133 -202 99 -99 389 54 389 205 0 173 -16 173 -256 -3z"/>
<path d="M16817 400 c50 -151 211 -167 258 -25 23 69 -33 125 -125 125 -92 0 -152 -45 -133 -100z"/>
<path d="M2100 106 c0 -58 45 -106 100 -106 55 0 100 20 100 44 0 24 -45 72 -100 106 -55 34 -100 14 -100 -44z"/>
<path d="M13550 100 c-34 -55 31 -100 144 -100 113 0 206 45 206 100 0 55 -65 100 -144 100 -79 0 -172 -45 -206 -100z"/>
</g>
</svg>