<svg xmlns="http://www.w3.org/2000/svg" version="1.0" width="250" height="250" viewBox="0 0 250.000000 250.000000" preserveAspectRatio="xMidYMid meet">
<metadata>
Created by potrace 1.10, written by Peter Selinger 2001-2011
</metadata>
<g transform="translate(0.000000,250.000000) scale(0.010000,-0.010000)" fill="#555555" stroke="none">
<path d="M0 24900 c0 -55 20 -100 44 -100 24 0 72 45 106 100 34 55 14 100 -44 100 -58 0 -106 -45 -106 -100z"/>
<path d="M218 24611 c-120 -213 -216 -517 -214 -675 l4 -286 166 300 c255 459 275 82 31 -561 -113 -297 -205 -649 -205 -783 0 -233 12 -229 254 100 140 189 331 558 424 819 193 544 276 590 354 200 37 -183 4 -315 -99 -394 -85 -66 -263 -336 -396 -600 -132 -265 -317 -602 -411 -750 -94 -148 -138 -302 -99 -341 104 -105 455 244 748 743 181 310 276 396 335 301 52 -85 -6 -224 -164 -388 -135 -142 -246 -311 -246 -376 0 -66 -157 -294 -350 -507 -192 -213 -350 -464 -350 -559 0 -256 757 374 999 832 143 271 193 312 197 161 2 -111 -57 -291 -132 -400 -74 -108 -192 -377 -261 -597 -69 -220 -233 -588 -364 -818 -277 -484 -286 -532 -104 -532 186 0 405 264 696 841 187 369 258 443 289 300 23 -105 -62 -318 -189 -474 -127 -155 -231 -346 -231 -425 0 -78 -40 -142 -88 -142 -48 0 -142 -132 -209 -293 -67 -161 -207 -370 -312 -465 -262 -237 -239 -342 72 -342 244 0 257 -22 186 -325 -133 -574 -146 -4775 -15 -4775 64 0 123 118 131 263 9 145 59 291 113 325 53 34 127 219 163 412 129 678 291 1251 390 1379 67 86 67 163 1 229 -134 134 -269 -41 -472 -608 l-161 -450 49 700 c27 385 51 828 54 985 3 184 66 302 178 331 96 25 296 257 444 515 191 331 271 409 273 263 2 -114 -76 -294 -172 -400 -266 -294 -533 -927 -422 -996 140 -86 277 23 450 358 84 162 196 294 250 294 176 0 101 -462 -153 -940 -137 -259 -250 -491 -250 -515 0 -105 248 -32 418 121 229 208 256 179 343 -360 50 -312 37 -417 -43 -367 -132 82 -187 -140 -253 -1019 -34 -451 -14 -620 69 -592 64 21 141 225 172 453 66 483 167 624 298 416 123 -195 122 -697 -1 -697 -118 0 -403 -528 -403 -745 0 -282 195 -161 355 220 206 491 253 403 689 -1292 298 -1158 656 -2257 1086 -3332 66 -164 260 -574 430 -911 l311 -613 -332 -457 c-183 -252 -592 -639 -911 -860 -318 -221 -690 -493 -828 -604 -137 -111 -296 -203 -352 -204 -56 -1 -483 -249 -948 -552 -465 -302 -914 -551 -998 -553 -201 -4 -502 -238 -502 -390 0 -76 83 -99 225 -61 l225 60 -225 -165 c-206 -151 -224 -242 -217 -1078 8 -950 7 -951 341 137 236 770 571 1167 1227 1457 307 136 742 394 966 574 541 433 905 662 1508 947 275 130 575 276 666 325 110 58 204 43 277 -45 85 -103 -31 -252 -523 -670 -349 -296 -762 -628 -919 -738 -614 -430 -1174 -1008 -1603 -1653 -246 -371 -448 -727 -448 -791 0 -65 -45 -90 -100 -56 -62 39 -44 168 50 351 190 367 190 457 0 299 -289 -239 -166 161 154 504 345 369 357 578 20 341 -357 -249 -539 -713 -685 -1739 -74 -526 -136 -1006 -137 -1068 -1 -70 239 -117 640 -126 l642 -14 116 351 c76 233 178 351 300 351 122 0 223 118 300 350 63 192 191 407 283 477 250 191 1625 1668 1956 2102 300 393 459 441 266 80 -208 -388 50 -212 424 288 606 812 1242 991 1853 520 231 -177 231 -180 58 -623 -176 -448 -796 -1494 -886 -1494 -27 0 -22 135 11 300 70 352 -32 399 -162 75 -83 -206 -91 -208 -94 -25 -3 110 83 313 191 450 211 270 259 500 103 500 -185 0 -464 -724 -559 -1450 -78 -595 -275 -1195 -543 -1648 -166 -281 -301 -523 -301 -537 0 -15 214 -30 475 -33 l475 -6 416 712 c229 392 518 914 643 1162 125 248 315 563 422 700 l194 250 -51 -350 c-39 -258 -1 -405 142 -562 184 -201 187 -245 46 -850 -82 -351 -180 -728 -219 -838 -64 -179 -55 -184 84 -50 188 182 473 1008 473 1371 0 145 -68 339 -152 431 -144 159 -324 1198 -208 1198 30 0 251 -196 490 -436 368 -367 439 -502 453 -863 18 -474 -199 -1308 -435 -1668 -135 -206 -135 -233 -3 -233 83 0 215 101 295 225 234 364 494 1390 471 1859 -15 313 12 414 97 361 85 -52 99 -304 51 -884 -51 -619 -125 -900 -314 -1186 l-248 -375 253 0 c139 0 339 54 444 119 148 93 250 93 453 0 144 -65 482 -119 751 -119 401 0 500 36 552 200 86 270 392 270 321 0 -42 -159 -3 -200 188 -200 267 0 280 24 154 276 -405 805 -755 1639 -1016 2416 -344 1029 -853 2367 -1000 2632 -169 303 -114 339 728 466 454 68 974 211 1156 317 182 106 350 193 375 193 24 0 44 -160 44 -356 0 -212 -40 -331 -100 -294 -55 34 -103 -42 -107 -169 -5 -176 -23 -192 -75 -70 -41 98 -132 138 -231 100 -239 -90 -58 -489 258 -569 464 -116 563 -3 509 580 -27 291 -74 836 -105 1212 l-56 684 228 -249 c126 -138 409 -613 629 -1058 371 -750 550 -976 550 -696 0 64 -157 397 -350 742 -354 632 -477 1049 -203 687 137 -181 147 -182 150 -13 2 100 50 152 107 116 58 -35 177 -4 266 69 88 74 188 128 220 120 33 -8 222 68 419 169 376 191 767 594 1191 1222 138 205 283 372 323 372 102 1 1061 1771 1071 1976 14 292 -215 87 -447 -400 -427 -896 -635 -1197 -1688 -2443 -336 -398 -847 -678 -1389 -762 -347 -54 -427 -18 -913 410 -294 259 -724 583 -956 720 -233 138 -773 619 -1201 1070 -1252 1319 -1423 2337 -359 2137 50 -10 128 41 173 113 64 100 83 101 84 5 3 -178 297 -155 367 28 51 133 75 130 186 -21 70 -95 102 -239 71 -319 -39 -102 -16 -121 78 -63 97 60 117 38 73 -77 -34 -88 -18 -175 35 -192 53 -18 107 -190 119 -382 31 -466 179 -599 666 -599 295 0 407 41 407 150 0 83 51 150 113 150 167 0 587 521 587 728 0 192 -263 345 -379 221 -39 -42 -15 -96 54 -121 218 -78 135 -228 -127 -228 -173 0 -289 -80 -368 -255 -88 -192 -179 -247 -373 -225 -213 25 -276 107 -368 480 -61 248 -209 630 -327 850 -119 220 -244 573 -278 785 -43 264 -185 507 -448 768 -213 210 -386 430 -386 489 0 59 -45 108 -100 108 -55 0 -100 -87 -100 -194 0 -232 -179 -363 -439 -320 -113 19 -283 -83 -422 -252 -188 -231 -232 -250 -235 -102 -6 301 190 568 419 568 206 0 207 6 30 136 -291 212 -122 441 382 517 354 53 513 147 773 457 180 214 387 390 460 390 180 0 167 193 -18 264 -83 31 -150 120 -150 197 0 240 195 152 395 -178 171 -280 177 -340 49 -522 -294 -420 -154 -718 437 -929 273 -98 340 -94 385 25 84 218 222 170 163 -57 -36 -139 -3 -200 109 -200 119 0 162 -95 162 -358 0 -343 12 -355 290 -294 160 35 317 21 349 -31 77 -124 689 87 957 329 112 102 204 259 204 349 0 91 53 218 118 283 184 184 28 257 -595 280 -887 31 -898 35 -623 192 138 79 489 145 781 146 328 3 507 42 469 104 -34 55 -138 100 -231 101 -93 0 -343 48 -555 107 l-386 108 236 163 c130 89 295 221 368 292 186 182 269 162 404 -96 65 -124 230 -378 366 -565 136 -187 248 -431 248 -542 0 -111 230 -467 512 -791 467 -537 507 -622 455 -958 -50 -321 -41 -346 74 -194 231 308 450 214 520 -223 35 -219 105 -373 154 -343 116 72 477 -358 482 -573 2 -91 71 -191 153 -222 110 -42 150 -216 150 -655 0 -328 46 -626 103 -661 65 -40 82 -382 46 -931 -32 -477 -21 -1452 24 -2167 54 -865 43 -1584 -33 -2150 -115 -851 -79 -2000 63 -2000 103 0 218 486 143 606 -86 140 161 1994 266 1994 129 0 107 341 -30 478 -251 251 14 213 576 -82 323 -170 639 -352 701 -404 157 -130 329 -1068 273 -1492 -105 -801 -460 -2451 -640 -2973 -106 -308 -170 -582 -142 -610 28 -28 166 11 306 86 203 109 297 112 449 17 106 -66 351 -120 546 -120 336 0 349 13 279 275 -146 544 -92 1605 90 1788 161 160 162 144 32 -289 -120 -400 -117 -544 22 -1116 150 -618 177 -658 443 -658 272 0 283 19 283 488 0 268 -68 649 -150 847 -202 482 -196 865 13 865 280 0 784 -641 1131 -1437 183 -419 394 -763 470 -763 75 0 136 54 136 120 0 93 27 93 120 0 223 -223 373 -142 286 155 -154 526 -917 1877 -1217 2154 l-301 279 231 198 c156 134 340 187 570 164 261 -25 350 9 387 148 26 100 87 182 136 182 132 0 106 -277 -30 -323 -193 -64 11 -277 265 -277 521 0 1153 -1272 1153 -2318 0 -265 45 -482 100 -482 55 0 105 79 112 175 11 167 13 167 57 0 25 -96 137 -175 249 -175 174 0 196 48 153 325 -27 179 -84 433 -126 566 -55 171 -43 220 39 169 80 -49 116 43 116 296 0 302 -25 348 -138 254 -107 -89 -153 -79 -200 46 -103 267 -72 344 138 344 146 0 200 67 200 248 0 224 -24 238 -257 150 -351 -134 -443 -123 -443 52 0 134 190 192 579 176 189 -7 144 2544 -46 2617 -73 28 -134 198 -136 379 -2 180 -69 415 -150 522 -193 255 -188 415 7 252 219 -181 432 30 250 249 -104 126 -98 164 35 215 217 83 206 321 -14 304 -209 -17 -296 380 -128 583 85 101 74 286 -42 734 -188 727 -188 719 -16 719 86 0 178 -183 238 -475 l99 -475 12 632 c12 631 -156 1011 -384 870 -117 -72 -240 354 -179 615 37 155 59 145 149 -71 58 -140 177 -314 266 -387 143 -120 160 -77 160 411 0 463 -53 619 -351 1037 -364 511 -306 688 146 446 181 -97 205 -81 205 137 0 225 -64 261 -758 415 -652 145 -812 225 -1151 579 -407 423 -835 1183 -772 1372 19 59 146 -116 282 -387 136 -274 299 -474 364 -449 65 25 246 -24 402 -108 156 -85 227 -156 158 -158 -217 -7 -134 -146 225 -379 367 -238 650 -292 650 -125 0 55 -63 100 -139 100 -76 0 -245 89 -375 197 -211 176 -216 197 -48 200 104 2 340 -91 525 -205 276 -171 337 -181 337 -57 0 83 -90 180 -200 215 -110 35 -200 105 -200 157 0 149 153 109 437 -114 207 -163 263 -176 263 -59 0 82 -56 172 -125 200 -100 40 -100 52 0 58 228 14 130 328 -225 721 -192 213 -350 433 -350 488 0 56 -85 292 -189 525 -104 233 -215 503 -247 599 -113 341 -279 180 -259 -250 31 -641 -249 -1129 -576 -1003 -71 27 -129 0 -129 -61 0 -249 -264 -84 -469 294 -308 567 -252 1232 151 1819 268 390 906 976 1061 976 31 0 245 183 476 407 230 223 504 452 607 507 169 90 177 79 78 -106 -61 -115 -154 -208 -206 -208 -125 0 -390 -615 -554 -1288 -120 -487 -113 -587 70 -1075 226 -606 653 -1405 798 -1494 59 -37 84 316 67 924 l-29 983 -275 -11 c-295 -12 -321 48 -282 661 14 210 140 498 315 719 l292 369 0 1451 0 1451 -475 -155 c-674 -219 -1025 -274 -1025 -158 0 129 -591 218 -664 100 -30 -49 -197 -57 -371 -17 -173 39 -508 62 -744 51 l-429 -21 62 530 c34 292 104 662 155 824 119 375 -58 603 -193 247 -91 -242 -454 -2299 -574 -3253 -35 -282 -98 -567 -139 -633 -41 -66 -564 -183 -1164 -260 -599 -77 -1201 -164 -1339 -193 -221 -48 -215 -36 50 99 l300 154 -415 -60 c-250 -36 -441 -17 -481 48 -43 71 113 107 465 108 506 0 1632 146 2006 260 322 97 193 268 -150 198 -1253 -253 -2122 -277 -1761 -48 88 56 -23 88 -314 91 -247 3 -558 65 -690 138 -213 118 -160 129 491 101 983 -43 2899 156 2899 301 0 110 -2541 132 -3400 30 -192 -23 -440 -6 -550 37 -200 78 -200 78 0 97 110 11 332 16 492 12 161 -3 385 43 497 103 114 61 782 113 1524 119 1246 9 1567 63 1397 233 -40 40 -632 74 -1316 75 -837 1 -1244 38 -1244 112 0 73 483 129 1408 166 774 31 1434 83 1468 117 163 163 -190 233 -826 162 -385 -42 -742 -53 -793 -24 -149 85 255 204 718 212 247 4 425 55 425 121 0 81 -167 92 -575 38 -889 -118 -3825 -65 -3825 69 0 43 169 83 375 87 206 4 1303 20 2437 36 1134 15 2113 60 2176 99 312 192 -81 257 -1176 195 -873 -49 -1235 -33 -1414 63 -237 127 -237 130 -32 206 115 43 384 37 597 -12 430 -100 831 -56 1612 176 675 201 675 335 0 254 -754 -90 -2081 -44 -2228 77 -69 57 -389 121 -711 141 -322 21 -665 69 -762 108 -99 40 -244 16 -330 -56 -106 -88 -184 -95 -257 -22 -73 73 -66 128 21 182 198 122 1389 48 1989 -125 980 -281 3203 -21 3203 376 0 71 -68 88 -175 43 -625 -258 -2548 -366 -2760 -154 -73 73 58 106 440 108 499 3 870 42 2358 249 l514 71 -38 -287 c-35 -266 -30 -263 65 39 152 486 224 392 144 -188 -113 -822 121 -497 266 371 117 694 143 749 332 682 112 -40 606 -91 1096 -114 959 -44 1358 69 1358 385 0 161 -24 164 -275 34 -172 -90 -573 -143 -1075 -143 -1120 1 -1250 48 -1250 451 0 325 4 328 301 216 280 -106 286 -119 94 -191 -114 -42 -181 -120 -148 -173 39 -63 150 -63 313 -1 139 53 427 96 639 96 670 0 1401 213 1401 407 0 160 -37 162 -466 33 -256 -77 -613 -140 -792 -140 -532 0 -1342 222 -1342 367 0 73 -90 133 -200 133 -132 0 -200 -67 -200 -196 0 -277 -636 -439 -1750 -448 -737 -5 -972 33 -1300 208 -220 118 -389 264 -375 325 35 157 -262 138 -428 -27 -153 -153 -1320 -116 -1492 48 -52 49 -693 90 -1423 90 -1512 0 -1364 103 -1477 -1032 -41 -404 -9 -724 102 -1050 206 -602 303 -1718 149 -1718 -150 0 -258 312 -462 1335 -94 476 -210 865 -258 865 -47 0 -86 162 -86 359 0 276 47 372 200 412 232 61 237 92 90 514 -82 235 -170 315 -350 315 -147 0 -240 -58 -240 -150 0 -82 -39 -150 -88 -150 -48 0 -144 68 -212 150 -84 101 -310 150 -699 150 l-575 0 -174 -620 c-129 -460 -157 -794 -108 -1289 97 -987 30 -1150 -556 -1345 -487 -162 -494 -161 -689 70 -272 323 -349 668 -223 1001 76 202 74 556 -6 1233 -113 945 -115 950 -392 950 l-278 0 0 -885 c0 -487 -42 -1016 -93 -1175 -51 -160 -122 -594 -158 -965 -36 -371 -113 -675 -171 -675 -71 0 -86 219 -46 650 36 392 22 650 -36 650 -53 0 -96 64 -96 142 0 168 310 779 444 875 56 41 50 120 -17 200 -64 78 -89 350 -60 658 l50 525 -1009 0 -1008 0 0 -738 c0 -655 -23 -745 -200 -791 -252 -66 -259 -232 -13 -297 252 -66 403 -960 188 -1119 -224 -165 -375 -513 -375 -865 0 -178 -30 -293 -67 -256 -124 123 -22 1311 132 1549 136 211 134 252 -22 425 -147 163 -164 329 -116 1141 l57 951 -853 0 c-834 0 -851 -5 -796 -225 82 -331 253 -3144 226 -3725 -46 -985 -190 -2050 -277 -2050 -48 0 -62 435 -29 975 34 566 -7 1787 -98 2911 -86 1064 -157 1975 -157 2025 0 49 -157 89 -350 89 -283 0 -350 -38 -350 -200 0 -118 -67 -200 -163 -200 -135 0 -151 -71 -94 -425 38 -234 87 -717 109 -1075 22 -357 76 -1083 119 -1613 43 -530 53 -1295 20 -1700 -32 -405 -66 -613 -75 -462 -9 151 -59 275 -112 275 -54 0 -110 -433 -125 -967 -20 -663 -68 -980 -154 -1008 -95 -32 -125 212 -125 1003 0 574 29 1254 64 1510 54 396 92 458 250 408 212 -68 254 103 55 224 -141 86 -374 2321 -371 3555 l2 675 -750 0 c-517 0 -750 -37 -750 -120 0 -93 -27 -93 -120 0 -174 174 -460 148 -444 -41 8 -89 -88 -200 -213 -248 -203 -77 -216 -65 -125 105 134 251 129 304 -30 304 -72 0 -229 -175 -350 -389z m3348 -436 c-28 -69 -50 -12 -50 125 0 138 22 194 50 125 28 -69 28 -181 0 -250z m13592 236 c-508 -79 -605 -311 -130 -311 199 0 458 -89 611 -210 147 -115 335 -183 418 -151 83 32 174 -2 202 -76 90 -235 1347 -410 2002 -278 315 63 717 115 893 115 177 0 383 74 459 166 126 152 86 158 -513 76 -1382 -191 -2600 -15 -2600 374 0 204 260 254 324 63 86 -259 1920 -204 2916 88 171 50 184 14 133 -368 -32 -233 -95 -459 -140 -504 -232 -225 -2829 -341 -3293 -147 -185 77 -506 122 -713 99 -207 -22 -298 -16 -202 13 404 126 98 372 -609 489 -381 63 -427 98 -376 286 31 118 58 249 59 290 0 41 215 69 476 61 l475 -14 -392 -61z m1035 -52 c73 -89 80 -164 19 -202 -54 -33 -126 -15 -161 41 -35 56 -161 105 -282 109 -211 7 -212 10 -19 93 281 121 311 118 443 -41z m-16643 -59 c-34 -55 -82 -100 -106 -100 -24 0 -44 45 -44 100 0 55 48 100 106 100 58 0 78 -45 44 -100z m10309 -507 c-86 -273 -143 -359 -149 -225 -11 247 171 784 242 714 25 -26 -17 -246 -93 -489z m-3659 119 c0 -110 -92 -213 -221 -246 -322 -85 -363 23 -93 243 292 237 314 237 314 3z m13795 -448 c-97 -88 -110 -73 -60 69 36 101 70 236 77 300 6 64 33 33 59 -69 26 -102 -8 -237 -76 -300z m-5000 68 c223 -60 227 -72 51 -133 -227 -80 -546 -14 -546 113 0 104 157 110 495 20z m-14923 -906 c-23 -152 -43 -51 -43 224 -1 275 18 399 41 276 24 -123 25 -348 2 -500z m15453 410 c206 -34 375 -106 375 -160 0 -60 -107 -66 -275 -16 -151 44 -509 80 -795 78 -286 -2 -497 34 -469 79 60 98 633 107 1164 19z m-2181 -572 c-36 -146 -113 -295 -171 -331 -68 -41 -82 21 -40 176 35 133 65 329 66 436 1 137 32 164 107 89 58 -58 75 -224 38 -370z m2748 -527 c96 -85 -93 -119 -1017 -179 -821 -53 -975 -40 -975 84 0 107 143 156 525 178 538 31 1392 -18 1467 -83z m-6710 -1048 c0 -478 -33 -678 -100 -611 -109 109 -206 1102 -122 1239 144 233 222 12 222 -628z m967 647 c235 -90 385 -524 242 -697 -62 -75 -85 -210 -50 -300 112 -294 -99 -422 -491 -300 -409 128 -413 144 -150 611 110 196 200 445 200 553 0 218 12 225 249 133z m5651 -48 c0 -48 -56 -90 -125 -92 -69 -3 -530 -23 -1025 -46 -873 -40 -885 -38 -400 79 602 146 1550 182 1550 59z m-11000 -288 c0 -104 -45 -216 -100 -250 -58 -36 -100 68 -100 250 0 182 42 286 100 250 55 -34 100 -146 100 -250z m3939 41 c-36 -142 -70 -438 -76 -657 l-10 -398 -187 231 c-170 211 -184 213 -153 32 19 -110 -1 -199 -43 -199 -43 0 -110 -53 -150 -117 -39 -64 -184 -145 -321 -178 -203 -50 -272 -11 -374 212 -149 326 -166 1033 -25 1033 55 0 101 -146 101 -325 2 -438 100 -775 225 -775 66 0 80 215 40 598 l-62 597 323 94 c178 51 425 97 550 102 195 8 218 -27 162 -250z m1027 109 c18 -55 -72 -148 -200 -207 -211 -99 -228 -87 -186 129 45 235 317 289 386 78z m1234 -300 c0 -69 -72 -298 -160 -508 -138 -331 -173 -359 -259 -205 -67 121 -62 266 15 454 63 152 107 318 98 368 -40 209 15 258 156 141 82 -68 150 -181 150 -250z m1759 -124 c-109 -110 -184 64 -106 245 74 171 80 171 121 -4 24 -100 17 -209 -15 -241z m-934 -31 c206 -58 375 -146 375 -196 0 -144 -387 -315 -630 -280 -121 18 -273 -35 -337 -118 -186 -241 -263 -46 -135 342 128 390 173 406 727 252z m-4789 -245 c-74 -243 -11 -202 -489 -319 -366 -90 -420 -77 -581 136 -257 341 -129 437 539 408 541 -23 587 -42 531 -225z m9364 -174 c0 -42 -222 -76 -494 -76 -272 0 -517 -37 -544 -81 -67 -108 -558 -69 -1010 80 -319 106 -382 99 -493 -54 -90 -122 -150 -141 -200 -60 -39 63 -48 151 -21 196 63 102 2762 98 2762 -5z m-3700 -68 c0 -50 -88 -298 -196 -550 -142 -330 -254 -458 -400 -458 -121 0 -204 -66 -204 -161 0 -118 61 -145 229 -103 187 47 250 2 342 -239 80 -213 178 -297 345 -297 148 0 337 -130 513 -350 154 -193 340 -350 415 -350 74 0 286 -145 470 -322 185 -177 516 -442 736 -589 220 -148 660 -520 977 -828 318 -309 644 -561 725 -561 82 0 148 -48 148 -107 0 -121 -239 -63 -888 218 -240 104 -510 190 -600 191 -89 1 -274 90 -412 198 -137 108 -327 197 -422 198 -259 3 -878 323 -878 454 0 234 -461 372 -997 298 -463 -63 -536 -47 -670 144 -110 157 -185 187 -276 112 -69 -58 -153 -76 -188 -42 -34 34 51 152 189 260 138 109 237 241 219 295 -36 108 -896 437 -1559 596 -607 146 -2089 67 -2518 -135 -192 -90 -444 -191 -558 -223 -243 -70 -1101 -868 -1420 -1322 -138 -197 -222 -465 -222 -709 0 -216 -33 -426 -73 -466 -99 -99 -323 1132 -258 1415 78 334 203 273 152 -75 -57 -393 42 -382 214 25 242 574 1130 1301 1989 1629 425 163 774 355 775 428 1 91 -69 110 -224 61 -212 -66 -216 -59 -63 119 197 229 140 438 -120 438 -210 0 -270 160 -67 178 69 6 453 58 853 114 824 117 1744 85 2137 -73 145 -58 288 -83 316 -55 28 29 168 -24 310 -117 358 -235 535 -130 668 399 85 337 163 454 303 454 103 0 188 -41 188 -92z m7003 -171 c-174 -73 -293 -173 -262 -222 76 -123 574 -20 785 164 260 227 328 70 83 -193 -297 -319 -208 -440 302 -412 701 40 1311 237 1364 443 27 101 105 183 174 183 70 0 184 69 255 154 87 106 160 122 230 52 121 -121 135 -105 -409 -444 -234 -145 -425 -303 -425 -351 0 -192 -627 -324 -1686 -353 -615 -17 -1143 8 -1172 55 -30 48 50 88 177 89 521 3 623 326 131 415 -338 61 -243 392 150 526 464 158 719 69 303 -106z m-13703 -343 c0 -92 93 -286 207 -431 198 -251 166 -344 -65 -186 -162 110 -442 725 -439 963 3 206 6 206 150 16 81 -107 147 -270 147 -362z m15480 203 c390 -4 81 -156 -455 -224 -481 -61 -516 -8 -210 320 189 203 225 211 305 68 49 -88 211 -162 360 -164z m-15694 -746 c118 -200 169 -335 114 -301 -55 34 -100 1 -100 -73 0 -74 -79 -137 -175 -141 -96 -4 -245 -37 -330 -75 -112 -48 -203 33 -325 289 -229 481 -220 539 155 926 l325 335 61 -298 c33 -164 157 -462 275 -662z m1311 666 c-53 -19 -97 -109 -97 -200 0 -199 -472 -235 -546 -42 -28 74 33 125 148 125 108 0 251 88 319 196 88 141 143 162 197 75 42 -67 32 -136 -21 -154z m5903 -5 c0 -48 -68 -144 -150 -212 -163 -135 -183 -103 -89 142 64 167 239 219 239 70z m693 -358 c73 -45 76 -126 8 -252 -55 -102 -72 -324 -38 -494 49 -243 28 -308 -100 -308 -156 0 -215 207 -180 625 22 260 -170 212 -301 -75 -118 -259 -322 -327 -435 -146 -82 133 194 579 537 869 251 212 266 214 333 35 38 -103 117 -217 176 -254z m1407 134 c0 -118 -973 -113 -1046 6 -32 51 112 108 319 125 455 37 727 -11 727 -131z m-15802 -263 c-1 -96 -90 -287 -198 -425 -108 -137 -197 -306 -198 -375 -3 -156 -202 -167 -202 -11 0 176 425 986 518 986 45 0 81 -79 80 -175z m8425 -75 c41 -55 75 -224 75 -375 2 -297 -234 -385 -334 -125 -66 171 -245 191 -463 53 -111 -70 -120 -124 -36 -208 80 -80 132 -81 180 -4 94 154 255 135 255 -29 0 -182 -549 -404 -773 -313 -165 68 -164 77 16 144 121 45 152 98 84 140 -106 66 -427 -9 -427 -100 0 -26 45 -130 100 -232 108 -202 38 -501 -117 -501 -53 0 -70 84 -37 187 49 155 17 178 -194 138 -138 -27 -252 -15 -252 27 0 122 740 848 864 848 63 0 142 72 176 160 34 89 118 138 186 110 465 -190 525 -200 399 -65 -69 74 -125 173 -125 219 0 112 330 54 423 -74z m14428 -345 c-74 -339 -315 -496 -1066 -700 -626 -169 -2335 -96 -2335 100 0 102 122 131 462 110 384 -24 470 3 511 164 44 167 147 193 789 197 l738 5 -500 -121 c-582 -141 -583 -326 -2 -276 453 39 985 281 905 412 -52 84 462 523 531 453 19 -19 5 -174 -33 -344z m-21851 -811 c0 -578 -36 -883 -100 -844 -143 88 -83 1750 64 1750 20 0 36 -408 36 -906z m13797 760 c142 -172 55 -686 -145 -852 -183 -152 -311 57 -152 248 71 85 91 263 51 446 -72 326 44 400 246 158z m8353 46 c-34 -55 -82 -100 -106 -100 -24 0 -44 45 -44 100 0 55 48 100 106 100 58 0 78 -45 44 -100z m-19480 -375 c-225 -1128 -158 -2125 142 -2125 98 0 121 -433 28 -526 -109 -110 -340 45 -340 228 0 100 -48 197 -106 217 -167 55 -240 854 -96 1029 80 97 101 278 57 509 -88 473 19 943 215 943 116 0 141 -70 100 -275z m16530 178 c0 -57 -138 -72 -325 -36 -456 87 -470 133 -42 133 202 0 367 -44 367 -97z m-4520 -477 c-144 -173 -380 -159 -380 24 0 83 -56 151 -125 152 -93 1 -91 23 9 86 200 127 630 -100 496 -262z m-15580 130 c0 -79 -49 -174 -108 -211 -60 -37 -193 -265 -297 -506 -209 -489 -295 -551 -295 -213 0 124 113 347 250 496 138 148 250 339 250 424 0 85 45 154 100 154 55 0 100 -65 100 -144z m5266 -107 c104 -226 92 -256 -130 -311 -318 -80 -364 -24 -241 298 125 329 222 333 371 13z m-2533 -374 c-120 -857 -97 -2127 41 -2294 128 -154 75 -281 -116 -281 -59 0 -113 124 -120 275 -6 151 -33 500 -60 775 -27 275 -18 740 20 1034 61 474 46 543 -126 607 -183 67 -184 82 -26 240 337 338 468 218 387 -356z m3267 213 c0 -103 -120 -113 -342 -27 -251 96 -183 216 92 163 138 -26 250 -87 250 -136z m9084 -344 c33 -286 30 -288 -168 -108 -112 100 -178 248 -147 328 88 230 278 98 315 -220z m7116 309 c0 -26 -247 -168 -550 -316 -302 -148 -550 -297 -550 -331 0 -34 -135 -209 -300 -390 -165 -181 -300 -363 -300 -406 0 -69 -507 -232 -1584 -511 -184 -47 -431 -48 -550 -2 -270 104 -173 138 833 294 861 134 1267 374 451 267 -275 -36 -629 -91 -788 -122 -175 -35 -263 -19 -226 41 33 54 418 154 855 222 605 94 781 156 741 262 -37 97 26 139 207 139 144 0 261 56 261 125 0 88 -206 125 -695 125 -550 0 -703 -33 -736 -158 -23 -87 -104 -159 -180 -160 -77 -1 -634 -29 -1239 -63 -1054 -58 -1081 -55 -650 82 l450 144 -800 -58 c-440 -31 -768 -24 -728 17 86 87 2090 434 2553 441 224 3 325 -41 325 -145 0 -82 45 -150 100 -150 55 0 100 84 100 188 0 258 219 425 403 308 224 -142 1491 -111 1997 49 504 159 600 176 600 108z m-11458 -140 c30 -48 190 -114 357 -148 l304 -61 -220 -252 c-274 -315 -543 -350 -382 -50 111 208 60 398 -107 398 -52 0 -94 -67 -94 -150 0 -82 -64 -150 -143 -150 -79 0 -171 -86 -204 -191 -33 -105 -131 -218 -218 -251 -111 -43 -140 -16 -99 91 34 90 2 151 -82 151 -77 0 -170 -92 -206 -206 -36 -113 -117 -188 -181 -167 -158 52 -208 653 -69 820 94 114 179 124 489 61 21 -5 -19 -77 -89 -160 -70 -84 -93 -185 -52 -225 41 -40 189 73 327 252 242 311 555 423 669 238z m-4862 -283 c-17 -79 -153 -218 -304 -310 -263 -158 -285 -156 -495 54 -121 121 -194 246 -162 278 31 32 134 -19 228 -113 144 -145 185 -149 261 -30 49 77 90 193 90 257 1 67 88 93 207 62 113 -30 191 -119 175 -198z m757 -145 c-69 -122 -637 -280 -637 -177 0 54 70 125 156 158 85 33 134 117 107 187 -27 70 -22 154 11 187 72 73 416 -263 363 -355z m2479 -235 c39 -496 -74 -608 -178 -175 -102 425 -163 479 -258 225 -47 -129 -50 -260 -5 -292 163 -116 70 -359 -150 -390 -152 -21 -208 11 -176 100 27 73 4 200 -50 282 -88 133 -110 133 -196 0 -62 -97 -62 -162 0 -183 164 -57 107 -304 -95 -413 -137 -73 -203 -69 -231 15 -56 167 -277 2 -277 -207 0 -212 -361 -562 -677 -658 -223 -67 -222 -64 31 209 185 201 241 345 198 516 -49 194 -28 227 119 181 231 -72 530 107 361 217 -86 55 -66 143 74 325 150 194 212 219 280 114 67 -103 138 -64 303 168 125 176 330 321 488 345 150 22 302 48 338 56 36 8 81 -187 101 -435z m6284 156 c0 -136 -176 -225 -240 -122 -60 97 26 216 157 216 46 0 83 -42 83 -94z m-9800 -524 c0 -131 -408 -39 -557 126 -137 151 -120 155 204 53 194 -60 353 -141 353 -179z m14392 181 c-23 -21 -267 -67 -542 -104 -355 -48 -457 -38 -350 35 135 93 992 158 892 69z m-8346 -312 c-14 -304 -18 -307 -415 -383 -281 -53 -338 -25 -465 230 -166 332 -114 369 537 390 316 11 352 -15 343 -237z m-10167 -402 c2 -310 -36 -526 -87 -494 -161 99 -105 1045 62 1045 11 0 22 -248 25 -551z m10875 358 c-36 -59 -114 -107 -172 -107 -66 0 -59 57 20 152 137 166 260 129 152 -45z m6257 87 c-318 -130 -1322 -200 -1622 -113 -249 72 263 144 1361 190 411 18 458 4 261 -77z m-14011 -188 c0 -196 -169 -370 -266 -274 -78 79 65 468 173 468 51 0 93 -87 93 -194z m5600 -50 c0 -287 -154 -421 -236 -205 -32 82 -109 149 -172 149 -73 0 -56 -91 49 -250 90 -137 116 -250 59 -250 -58 0 -148 113 -200 250 -120 317 -287 327 -227 14 30 -157 -10 -257 -120 -299 -136 -52 -160 -6 -134 261 26 270 90 344 381 443 512 175 600 158 600 -113z m-4604 -382 c134 -625 131 -678 -33 -615 -124 47 -663 927 -663 1081 0 35 133 53 296 41 268 -21 306 -69 400 -507z m4954 326 c-34 -55 -82 -100 -106 -100 -24 0 -44 45 -44 100 0 55 48 100 106 100 58 0 78 -45 44 -100z m6450 -56 c0 -24 -70 -44 -156 -44 -86 0 -128 46 -93 102 57 92 249 48 249 -58z m419 -12 c-72 -29 -159 -26 -192 8 -33 33 26 56 131 52 117 -5 141 -28 61 -60z m-8760 -195 c-34 -89 -10 -225 54 -302 135 -163 158 -139 -401 -423 -328 -166 -423 -185 -381 -74 32 81 -7 201 -86 266 -78 65 -118 159 -88 207 91 148 206 101 330 -136 108 -206 114 -197 67 104 -42 272 -12 344 173 419 331 133 401 120 332 -61z m441 -37 c0 -55 -45 -100 -100 -100 -55 0 -100 45 -100 100 0 55 45 100 100 100 55 0 100 -45 100 -100z m4050 0 c78 -127 -54 -127 -250 0 -129 84 -127 97 19 98 93 1 197 -43 231 -98z m4950 0 c0 -55 -124 -97 -275 -93 -244 6 -252 17 -75 93 273 117 350 117 350 0z m2100 -38 c0 -89 -405 -136 -456 -53 -31 50 59 91 200 91 141 0 256 -17 256 -38z m-5700 -218 c0 -24 -45 -44 -100 -44 -55 0 -100 48 -100 106 0 58 45 78 100 44 55 -34 100 -82 100 -106z m-3555 -327 c-163 -35 -445 149 -445 291 0 45 135 6 299 -88 208 -117 252 -180 146 -203z m7501 290 c32 -52 -56 -82 -194 -67 -349 37 -444 160 -125 160 144 0 287 -42 319 -93z m-8305 -257 c176 -269 65 -348 -141 -100 -204 245 -299 170 -149 -118 76 -147 115 -307 85 -354 -40 -65 -436 559 -436 686 0 19 250 95 413 124 35 7 138 -100 228 -238z m4364 -9 c890 -310 1095 -414 1095 -554 0 -59 -164 -10 -364 108 -200 118 -614 280 -920 360 -305 79 -600 189 -656 245 -160 160 40 123 845 -159z m745 69 c514 -239 1137 -814 700 -646 -82 31 -150 100 -150 151 0 52 -281 224 -625 382 -344 159 -557 291 -475 293 82 3 330 -78 550 -180z m4850 101 c0 -135 -268 -211 -738 -211 -232 0 -465 -41 -517 -92 -164 -157 -1197 -173 -1100 -16 31 50 405 121 831 157 426 36 887 104 1024 150 338 115 500 119 500 12z m-6953 -511 c58 -211 36 -199 -139 77 -239 376 -273 534 -69 319 77 -80 170 -258 208 -396z m-9216 -26 l181 -424 239 296 c291 359 397 292 269 -171 -130 -470 2 -675 435 -675 322 0 345 22 348 325 6 617 220 1 248 -714 24 -590 -16 -752 -369 -1506 -217 -464 -377 -914 -354 -1000 27 -105 -35 -160 -194 -169 -271 -17 -325 292 -98 556 185 214 464 1077 464 1433 0 238 -33 278 -189 228 -109 -34 -255 6 -343 94 -182 182 -330 195 -426 39 -41 -64 71 -237 259 -402 301 -262 319 -309 204 -524 -69 -130 -97 -328 -61 -440 74 -235 -94 -394 -180 -169 -32 82 -119 149 -194 149 -108 0 -127 -167 -91 -795 51 -872 -46 -1352 -183 -905 -42 138 -81 604 -86 1037 -9 722 -24 776 -176 650 -151 -124 -156 -116 -50 82 77 144 82 240 16 281 -119 74 -162 -42 -243 -650 -37 -281 -26 -398 30 -313 118 180 198 -603 91 -892 -136 -370 -256 -114 -328 706 -52 585 -37 844 54 953 142 173 120 213 -141 261 -165 31 -192 -45 -226 -615 -71 -1186 -18 -1599 254 -1966 116 -158 256 -556 310 -885 132 -806 118 -884 -61 -349 -83 248 -178 518 -211 600 -32 83 -76 237 -96 344 -49 255 -54 258 -318 189 -138 -36 -206 -113 -174 -196 29 -75 14 -137 -33 -137 -119 0 -209 263 -202 583 6 259 9 261 97 42 152 -378 332 -274 259 150 -35 206 -109 684 -164 1062 -55 377 -126 727 -156 776 -101 163 -244 -21 -191 -244 65 -270 -100 -1177 -176 -969 -30 83 -128 589 -218 1126 -91 538 -187 1036 -215 1108 -28 73 61 181 204 246 330 151 333 358 4 296 -219 -42 -250 -13 -250 232 0 154 -45 308 -100 342 -143 88 -125 475 20 427 67 -23 158 -183 203 -356 98 -381 340 -530 661 -409 l234 88 -259 308 c-271 322 -340 730 -143 852 79 49 98 3 59 -144 -42 -163 -11 -216 126 -216 123 0 205 -101 250 -307 38 -168 131 -331 208 -360 108 -42 70 -144 -159 -433 -165 -208 -300 -395 -300 -414 0 -20 203 -49 452 -65 358 -23 465 8 520 150 82 215 431 521 599 526 163 4 358 383 290 561 -99 258 -435 162 -546 -157 -118 -340 -359 -323 -454 31 -88 331 -80 344 188 293 330 -63 501 316 291 646 -172 273 -175 329 -15 328 69 -1 206 -192 306 -425z m8046 342 c97 -61 75 -127 -89 -273 -144 -128 -231 -154 -258 -77 -29 82 -135 90 -356 26 -215 -61 -349 -54 -420 24 -74 80 -69 93 18 45 67 -38 292 21 500 131 438 231 438 231 605 124z m-10349 -211 c34 -132 -27 -247 -189 -353 -269 -176 -295 -113 -114 277 148 320 233 341 303 76z m5703 -485 c-432 -322 -506 -328 -562 -43 -74 374 79 501 329 275 208 -188 290 -80 91 119 -61 61 -79 164 -40 228 47 75 123 17 217 -164 131 -253 128 -292 -35 -415z m419 580 c-34 -55 -104 -100 -156 -100 -52 0 -94 45 -94 100 0 55 70 100 156 100 86 0 128 -45 94 -100z m1050 -270 c0 -201 -29 -241 -113 -157 -63 63 -86 184 -53 270 91 239 166 188 166 -113z m5004 -328 c84 -84 388 -362 675 -618 325 -290 444 -445 315 -411 -260 67 -1314 1150 -1414 1452 -71 211 -65 210 97 -23 95 -136 242 -316 327 -400z m6396 402 c0 -109 -94 -247 -209 -309 -281 -150 -392 -17 -141 170 110 82 189 191 175 242 -14 51 20 93 75 93 55 0 100 -88 100 -196z m-9482 -254 c164 -137 369 -250 456 -250 276 0 42 -131 -299 -167 -179 -19 -447 -125 -596 -234 -327 -240 -537 -254 -619 -40 -79 207 24 368 195 303 77 -30 162 35 199 152 50 156 121 189 305 143 279 -70 323 85 66 235 -96 56 -136 103 -89 105 47 2 219 -109 382 -247z m3801 182 c-72 -29 -159 -26 -192 8 -33 33 26 56 131 52 117 -5 141 -28 61 -60z m2081 -32 c83 -53 105 -97 50 -97 -55 0 -167 44 -250 97 -82 53 -105 97 -50 97 55 0 168 -44 250 -97z m-8200 -100 c0 -55 -45 -100 -100 -100 -55 0 -100 45 -100 100 0 55 45 100 100 100 55 0 100 -45 100 -100z m5935 -247 c32 -84 116 -154 187 -155 139 -1 1080 -794 946 -796 -223 -5 -1568 1043 -1568 1220 0 131 369 -97 435 -269z m809 194 c107 -81 149 -147 94 -147 -55 0 -187 66 -294 147 -107 81 -149 147 -94 147 55 0 187 -66 294 -147z m-12184 -220 c-33 -33 -56 26 -52 131 5 117 28 141 60 61 29 -72 26 -159 -8 -192z m3415 134 c-96 -73 -175 -187 -175 -253 0 -66 -48 -90 -107 -54 -122 76 170 448 347 443 61 -2 31 -63 -65 -136z m13125 -11 c0 -98 -98 -150 -285 -150 -157 0 -640 -24 -1075 -53 -641 -42 -743 -31 -540 62 243 110 1067 251 1625 278 184 9 275 -37 275 -137z m-11613 -260 c-249 -158 -321 -93 -130 118 121 134 202 165 228 88 21 -65 -22 -158 -98 -206z m-1287 54 c0 -86 -46 -128 -102 -93 -56 35 -75 105 -44 156 86 139 146 113 146 -63z m9407 52 c106 -56 193 -170 193 -252 0 -130 -38 -129 -303 8 -167 86 -277 200 -244 252 74 121 115 120 354 -8z m593 -108 c0 -55 -45 -72 -100 -38 -55 34 -100 107 -100 162 0 55 45 72 100 38 55 -34 100 -107 100 -162z m-8082 -110 c-71 -71 -118 -77 -118 -15 0 134 118 252 185 185 28 -28 -2 -105 -67 -170z m11627 32 c-147 -139 -945 -245 -945 -125 0 98 280 169 795 200 148 9 207 -20 150 -75z m-3945 -523 c0 -51 -134 6 -299 128 -164 121 -324 195 -356 163 -31 -31 148 -204 399 -384 251 -181 456 -368 456 -417 0 -114 -149 -23 -672 410 -311 258 -395 383 -319 474 81 98 178 81 447 -78 189 -112 344 -245 344 -296z m2700 313 c-202 -130 -1031 -130 -950 0 34 55 295 99 581 98 372 -1 477 -29 369 -98z m-11726 -425 c27 -577 -60 -1075 -189 -1075 -59 0 -79 72 -45 159 33 88 82 279 108 425 l48 266 -117 -275 c-168 -394 -314 -341 -234 85 46 244 33 338 -39 294 -121 -75 -139 46 -29 196 40 55 163 154 273 219 110 66 201 122 202 125 1 3 11 -185 22 -419z m6326 213 c0 -55 -45 -72 -100 -38 -55 34 -100 107 -100 162 0 55 45 72 100 38 55 -34 100 -107 100 -162z m6675 -213 c-23 -70 -226 -131 -462 -139 -231 -8 -551 -69 -711 -135 -278 -115 -502 -76 -502 88 0 62 619 178 1583 295 74 9 115 -40 92 -109z m-5338 -598 c268 -179 532 -439 587 -576 155 -384 206 -1065 95 -1263 -83 -149 -124 -95 -247 320 -163 548 -440 987 -1002 1587 -412 439 -490 665 -145 419 124 -88 444 -307 712 -487z m2976 -33 c156 -353 169 -474 72 -686 -112 -248 -282 -328 -414 -196 -34 35 32 139 146 232 193 156 199 198 76 537 -78 216 -170 332 -222 280 -53 -53 -40 -181 29 -311 214 -401 -43 -397 -381 6 -298 356 -329 564 -41 276 65 -65 150 -87 189 -49 38 39 16 124 -49 189 -187 187 -139 254 144 200 191 -36 313 -166 451 -478z m-6213 206 c0 -183 -53 -250 -200 -250 -247 0 -263 254 -25 392 234 136 225 142 225 -142z m11200 50 c0 -55 -42 -100 -94 -100 -52 0 -122 45 -156 100 -34 55 8 100 94 100 86 0 156 -45 156 -100z m-7550 -100 c34 -55 145 -100 246 -100 102 0 374 -157 604 -350 230 -193 472 -350 536 -350 65 0 283 -112 485 -250 445 -302 743 -320 829 -50 35 110 103 200 151 200 139 0 212 -180 101 -249 -56 -35 -102 -165 -102 -291 0 -188 -50 -225 -286 -211 -157 10 -423 115 -590 234 -168 119 -377 217 -464 217 -88 0 -160 56 -161 125 -1 127 -1291 975 -1483 975 -57 0 -132 45 -166 100 -34 55 6 100 88 100 83 0 178 -45 212 -100z m5050 23 c0 -76 -651 -273 -1265 -381 -177 -31 -344 -9 -381 51 -36 59 -7 113 65 120 238 23 1492 245 1556 275 14 7 25 -23 25 -65z m-6150 -223 c100 -110 158 -200 131 -200 -28 0 -131 90 -231 200 -100 110 -158 200 -131 200 28 0 131 -90 231 -200z m2331 -104 c121 -112 219 -226 219 -253 0 -83 -357 135 -495 302 -189 226 20 190 276 -49z m-9881 -84 c0 -42 -162 -265 -360 -497 -199 -232 -490 -656 -649 -943 -277 -504 -287 -511 -289 -210 -2 313 264 742 658 1060 117 94 269 307 338 473 109 263 302 338 302 117z m13876 -137 c-52 -158 -1390 -393 -1521 -267 -52 51 -75 97 -50 103 158 38 1369 263 1478 275 74 8 115 -42 93 -111z m-13676 -167 c0 -51 -107 -220 -237 -375 -392 -468 -863 -1260 -863 -1453 0 -99 -50 -180 -111 -180 -160 0 -24 472 274 950 626 1003 937 1354 937 1058z m418 -330 c-71 -71 -118 -77 -118 -15 0 134 118 252 185 185 28 -28 -2 -105 -67 -170z m759 103 c-62 -185 -277 -216 -277 -39 0 87 71 158 158 158 87 0 141 -53 119 -119z m8073 -82 c0 -215 -291 -184 -333 35 -25 134 15 174 149 149 101 -20 184 -103 184 -184z m4800 -49 c0 -55 -292 -127 -650 -160 -357 -32 -796 -94 -975 -137 -210 -50 -325 -41 -325 27 0 93 541 242 1300 358 384 59 650 23 650 -88z m-13990 -210 c-36 -93 -87 -146 -115 -119 -27 28 -21 126 15 219 36 93 87 146 115 119 27 -28 21 -126 -15 -219z m11740 -47 c0 -171 -198 -493 -304 -493 -136 0 -119 337 24 480 149 149 280 155 280 13z m-10362 -147 c34 -88 -6 -178 -94 -212 -198 -76 -264 -4 -186 202 80 206 203 211 280 10z m9083 -321 c99 -86 280 -129 425 -101 317 60 319 23 11 -179 -224 -146 -265 -145 -525 16 -307 190 -532 428 -532 562 0 98 372 -81 621 -298z m3779 282 c0 -52 -79 -116 -175 -144 -1102 -320 -2225 -417 -2225 -192 0 81 141 133 375 140 206 6 668 67 1025 135 850 164 1000 173 1000 61z m-14814 -863 c-205 -411 -235 -435 -306 -242 -57 154 -3 343 195 681 236 400 280 435 307 242 18 -124 -70 -430 -196 -681z m9521 323 c-83 -83 -101 -48 -67 135 65 354 78 370 131 162 26 -102 -3 -236 -64 -297z m5836 344 c93 -151 -171 -281 -693 -340 l-500 -57 450 158 c248 87 465 196 483 243 44 111 190 109 260 -4z m-14719 -433 c-104 -214 -111 -207 -117 117 -5 263 21 317 110 228 86 -86 88 -176 7 -345z m336 -51 c-33 -33 -56 26 -52 131 5 117 28 141 60 61 29 -72 26 -159 -8 -192z m10735 -136 c-61 -114 -136 -183 -167 -152 -31 31 0 125 70 209 180 216 228 188 97 -57z m3930 60 c36 -140 -458 -356 -900 -394 -206 -17 -600 -59 -875 -93 -459 -56 -471 -52 -150 44 193 58 665 208 1050 335 757 248 837 258 875 108z m-15225 -207 c0 -145 -43 -229 -100 -194 -55 34 -100 149 -100 256 0 107 45 194 100 194 55 0 100 -115 100 -256z m10967 -94 c-60 -181 -401 -176 -535 8 -205 280 -160 321 218 203 193 -61 335 -155 317 -211z m1821 142 c169 -8 -444 -271 -663 -284 -69 -5 -125 88 -125 205 0 184 41 204 313 150 171 -35 385 -66 475 -71z m-15042 -299 c-86 -139 -146 -113 -146 63 0 86 46 128 102 93 56 -35 75 -105 44 -156z m383 -93 c29 -110 11 -200 -38 -200 -50 0 -91 90 -91 200 0 110 17 200 38 200 21 0 62 -90 91 -200z m1584 -432 c-27 -653 99 -1006 436 -1226 356 -234 414 -120 107 211 -288 311 -331 470 -104 382 127 -48 135 -14 50 210 -130 342 -131 655 -2 655 55 0 100 -138 100 -307 0 -168 52 -403 116 -522 211 -395 279 -871 123 -871 -223 0 -161 -135 161 -350 165 -110 300 -239 300 -287 0 -48 -169 42 -375 198 -622 473 -825 669 -825 795 0 66 -67 176 -150 244 -154 128 -212 1021 -88 1346 108 281 173 74 151 -478z m11568 -565 c-24 -301 -63 -377 -164 -314 -106 66 -110 167 -17 509 78 292 82 460 12 530 -70 70 -65 169 18 312 109 191 123 171 151 -215 17 -234 17 -604 0 -822z m-1005 1004 c96 -51 264 -121 374 -157 197 -63 197 -66 6 -207 -172 -127 -219 -119 -425 75 -263 247 -331 58 -78 -221 122 -135 131 -227 43 -458 -99 -260 -120 -271 -211 -108 -56 100 -76 249 -44 331 32 83 -10 281 -92 439 -82 159 -149 314 -149 344 0 89 387 63 576 -38z m4781 -59 c-205 -156 -320 -131 -211 45 36 59 142 106 235 104 148 -3 145 -21 -24 -149z m-3269 -126 c153 -285 -145 -1427 -442 -1692 -135 -121 -246 -268 -246 -327 0 -103 -575 -502 -725 -503 -41 0 -75 90 -75 200 0 110 59 200 132 200 249 0 960 705 1054 1044 50 184 69 542 40 795 -54 480 80 624 262 283z m2483 -82 c19 -60 -89 -113 -243 -118 -153 -5 -545 -79 -871 -165 -325 -85 -614 -133 -641 -106 -76 75 -11 109 634 326 643 217 1062 240 1121 63z m-15636 -87 c31 -81 13 -173 -39 -206 -53 -32 -96 34 -96 147 0 242 56 266 135 59z m-435 -52 c0 -43 186 -264 414 -492 423 -422 457 -577 103 -465 -108 35 -225 174 -259 310 -48 190 -127 246 -348 246 -218 0 -297 54 -330 225 -34 178 5 228 189 239 127 8 231 -20 231 -63z m2673 -633 c-21 -61 -113 41 -205 226 -235 471 -209 625 37 221 113 -185 188 -386 168 -447z m14327 543 c0 -117 -93 -213 -241 -250 -132 -33 -323 -90 -425 -125 -105 -38 -36 70 159 249 395 363 507 391 507 126z m-4259 -136 c-40 -124 -73 -281 -73 -350 -1 -68 -91 -203 -202 -300 -191 -167 -197 -167 -133 9 38 102 97 304 133 450 55 226 195 409 316 414 17 1 -1 -99 -41 -223z m-11943 -206 c-1 -178 -19 -191 -98 -69 -127 197 -127 429 0 350 55 -34 99 -160 98 -281z m2340 -402 c65 -358 143 -466 343 -474 137 -6 131 -23 -31 -89 -264 -107 -347 -16 -462 509 -52 240 -118 527 -145 637 -35 141 -6 123 99 -60 82 -143 170 -378 196 -523z m14486 208 c56 -513 -63 -657 -156 -190 -49 246 13 777 81 694 14 -16 47 -243 75 -504z m-1624 385 c0 -117 -719 -438 -1105 -494 -245 -35 -602 -88 -795 -118 -314 -47 -299 -32 150 158 728 307 1750 572 1750 454z m-3862 -674 c-155 -170 -159 -211 -34 -291 213 -134 280 -118 419 105 69 110 159 200 201 200 164 0 62 -230 -233 -524 l-309 -309 -333 364 c-346 377 -533 769 -367 769 52 0 118 -90 147 -200 80 -306 337 -238 475 125 96 252 134 284 169 143 24 -101 -36 -272 -135 -382z m4762 170 c0 -162 -373 -456 -579 -456 -78 0 -18 122 148 295 314 330 431 374 431 161z m-17400 -106 c0 -82 -18 -150 -39 -150 -22 0 -66 68 -97 150 -32 83 -14 150 39 150 53 0 97 -67 97 -150z m3938 -5 c34 -89 18 -129 -39 -94 -55 33 -99 103 -99 155 0 144 72 112 138 -61z m-474 -596 c128 -223 650 -236 929 -24 86 65 56 5 -68 -134 -262 -295 -287 -409 -74 -327 109 42 134 12 89 -104 -82 -214 -498 -311 -771 -179 -203 98 -195 106 106 112 393 8 440 206 50 209 -363 2 -625 166 -448 280 98 64 82 124 -68 260 -107 97 -170 242 -140 322 58 151 88 120 395 -415z m12414 334 c-78 -234 -1778 -623 -1778 -407 1 132 1089 407 1129 286 24 -70 123 -49 279 59 288 200 423 223 370 62z m-16332 -491 c-27 -87 42 -240 153 -341 225 -204 267 -451 75 -451 -145 0 -352 437 -378 800 -28 386 -1 463 103 300 53 -82 74 -221 47 -308z m1004 225 c0 -196 -195 -180 -233 20 -24 121 11 170 98 141 74 -24 135 -97 135 -161z m946 -1125 c123 -1013 149 -1092 358 -1092 110 0 130 107 90 475 -97 885 -127 1075 -196 1250 -40 100 -24 175 37 175 58 0 132 -169 163 -375 32 -206 107 -620 167 -920 108 -541 106 -547 -205 -825 -172 -154 -369 -279 -437 -277 -73 2 -52 57 52 136 256 195 224 390 -50 305 -124 -39 -242 -115 -262 -170 -21 -54 -130 -191 -242 -303 -204 -204 -204 -204 -278 -4 -41 110 -132 541 -202 957 -113 676 -109 784 41 1013 92 141 168 348 168 459 0 112 42 204 93 204 56 0 52 -130 -8 -325 -56 -179 -121 -392 -146 -475 -73 -246 201 -1530 336 -1575 69 -23 125 30 125 117 0 87 68 158 150 158 215 0 193 604 -50 1400 -109 358 -199 729 -199 825 -1 161 14 160 191 -17 138 -138 222 -446 304 -1116z m15004 1205 c0 -100 -414 -306 -485 -242 -19 18 26 101 100 185 155 175 385 209 385 57z m1748 -545 c100 -588 126 -2071 34 -1926 -43 68 -80 200 -80 293 -1 93 -81 228 -177 300 -257 193 -449 617 -402 891 39 225 47 227 117 40 136 -364 209 -466 310 -433 188 62 -11 1083 -211 1083 -77 0 -139 86 -139 191 0 166 31 176 240 77 171 -81 259 -228 308 -516z m-18110 236 c89 -446 72 -696 -29 -438 -152 385 -212 750 -123 750 49 0 117 -141 152 -312z m12362 -366 c0 -144 -146 -86 -154 61 -1 37 -60 180 -130 317 l-127 250 205 -236 c113 -130 206 -306 206 -392z m4700 487 c0 -50 -187 -123 -415 -162 -240 -40 -509 -170 -635 -307 -199 -215 -350 -228 -350 -31 0 101 1004 583 1225 587 96 2 175 -37 175 -87z m-1950 -309 c-34 -55 -138 -99 -231 -98 -146 1 -148 14 -19 98 196 127 328 127 250 0z m-13050 -106 c0 -58 -45 -78 -100 -44 -55 34 -100 82 -100 106 0 24 45 44 100 44 55 0 100 -48 100 -106z m12197 -98 c-191 -121 -497 -122 -497 -3 0 90 499 197 597 129 26 -18 -19 -75 -100 -126z m-9638 -364 c-149 -128 -391 -231 -540 -229 -252 3 -256 10 -69 116 110 62 237 174 281 249 45 75 118 113 164 85 45 -28 142 21 215 109 101 121 143 129 176 31 23 -71 -79 -233 -227 -361z m10715 240 c-45 -136 -243 -201 -1124 -371 -933 -181 -1509 -237 -1417 -139 101 106 990 336 1442 372 179 15 368 69 421 121 147 147 726 161 678 17z m1726 28 c0 -55 -67 -100 -150 -100 -82 0 -150 -45 -150 -100 0 -55 -117 -100 -261 -100 -143 0 -394 -112 -557 -250 -328 -275 -483 -316 -480 -125 2 223 138 321 748 542 687 248 850 273 850 133z m-17932 -154 c19 -57 -56 -110 -167 -118 -119 -9 -201 46 -201 136 0 166 312 152 368 -18z m3232 4 c0 -82 -45 -150 -100 -150 -55 0 -100 68 -100 150 0 83 45 150 100 150 55 0 100 -67 100 -150z m9360 -223 c-33 -33 -56 26 -52 131 5 117 28 141 60 61 29 -72 26 -159 -8 -192z m400 -100 c-33 -33 -56 26 -52 131 5 117 28 141 60 61 29 -72 26 -159 -8 -192z m-12660 -238 c0 -104 -45 -189 -100 -189 -55 0 -100 41 -100 92 0 50 -28 163 -61 251 -45 117 -18 143 100 97 88 -34 161 -147 161 -251z m1491 -189 c-5 -229 -12 -233 -91 -50 -47 110 -88 290 -91 400 -5 165 11 174 91 50 53 -82 94 -262 91 -400z m1409 350 c0 -82 -18 -150 -39 -150 -22 0 -66 68 -97 150 -32 83 -14 150 39 150 53 0 97 -67 97 -150z m2599 75 c-1 -124 -544 -393 -693 -344 -88 30 -14 113 202 229 378 201 492 228 491 115z m-4961 -200 c48 -166 262 -1312 262 -1406 0 -24 -62 8 -139 72 -76 63 -170 368 -209 678 -39 309 -94 623 -122 697 -28 74 -5 134 53 134 57 0 127 -79 155 -175z m5164 -73 c-70 -83 -173 -152 -230 -152 -57 0 -21 90 79 201 206 228 344 184 151 -49z m498 68 c0 -241 -194 -421 -445 -415 -199 5 -198 10 20 162 124 87 225 219 225 295 0 76 45 138 100 138 55 0 100 -81 100 -180z m300 74 c0 -58 -45 -78 -100 -44 -55 34 -100 82 -100 106 0 24 45 44 100 44 55 0 100 -48 100 -106z m8900 6 c0 -55 -79 -101 -175 -103 -240 -5 -502 -220 -451 -371 53 -158 -456 -358 -666 -263 -111 50 -54 88 192 129 500 83 337 265 -200 223 -605 -48 -461 64 367 285 819 218 933 230 933 100z m2117 -400 c-34 -362 -79 -418 -466 -589 -477 -211 -1362 -388 -1201 -240 55 51 426 220 825 377 399 156 725 319 725 362 0 167 -205 191 -422 50 -125 -82 -419 -192 -653 -244 -340 -76 -425 -67 -425 43 0 75 124 164 275 196 151 32 500 143 775 246 275 102 524 189 553 193 29 3 35 -174 14 -394z m-13361 -277 c-33 -34 -138 20 -233 120 -165 172 -163 175 61 61 128 -66 206 -148 172 -181z m-4056 -29 c0 -113 -45 -178 -100 -144 -55 34 -100 127 -100 206 0 79 45 144 100 144 55 0 100 -93 100 -206z m3550 6 c-34 -55 -149 -100 -256 -100 -107 0 -194 45 -194 100 0 55 115 100 256 100 145 0 229 -43 194 -100z m11925 -25 c-53 -160 -963 -501 -1148 -430 -185 71 -64 255 167 255 101 0 312 67 470 149 349 183 567 194 511 26z m-10375 -163 c0 -49 95 -113 210 -144 184 -48 192 -273 9 -265 -116 5 -436 497 -324 497 58 0 105 -40 105 -88z m12909 -494 c-13 -85 61 -121 210 -100 190 26 237 -20 264 -258 31 -274 24 -281 -138 -120 -94 95 -229 149 -300 122 -163 -63 -247 154 -239 621 6 353 11 357 116 117 60 -137 99 -310 87 -382z m-13409 440 c0 -23 29 -117 64 -210 58 -149 40 -152 -150 -34 -249 156 -278 286 -64 286 83 0 150 -19 150 -42z m13800 -164 c0 -52 -45 -94 -100 -94 -55 0 -100 70 -100 156 0 86 45 128 100 94 55 -34 100 -104 100 -156z m-14546 -1 c103 -166 11 -189 -133 -33 -71 77 -85 140 -31 140 54 0 128 -48 164 -107z m8496 -76 c0 -196 -195 -180 -233 20 -24 121 11 170 98 141 74 -24 135 -97 135 -161z m4984 -120 c-108 -104 -1279 -497 -1481 -497 -376 0 -89 196 622 426 723 233 1055 260 859 71z m-1934 -31 c0 -86 -134 -138 -375 -145 -373 -11 -374 -11 -125 130 318 180 500 186 500 15z m-15933 -91 c43 -69 65 -204 49 -300 -19 -119 37 -175 178 -175 113 0 206 -38 206 -84 0 -47 -285 -80 -634 -75 l-635 9 310 373 c337 407 407 441 526 252z m4222 -81 c353 -293 219 -314 -240 -37 -285 173 -342 241 -199 239 110 -1 308 -92 439 -202z m9266 -3 c103 -166 -128 -358 -266 -220 -116 116 -43 329 111 329 49 0 118 -49 155 -109z m900 -362 c-318 -274 -555 -296 -555 -52 0 253 504 544 684 395 113 -94 90 -155 -129 -343z m3545 126 c0 -117 -999 -480 -1400 -509 -393 -27 -419 -18 -200 75 450 191 847 354 1000 409 189 68 600 85 600 25z m-2700 -155 c0 -55 -45 -100 -100 -100 -55 0 -100 45 -100 100 0 55 45 100 100 100 55 0 100 -45 100 -100z m700 12 c0 -90 -518 -226 -590 -155 -38 38 366 224 515 237 41 3 75 -34 75 -82z m-11806 -145 c251 -106 289 -156 184 -244 -250 -208 -878 -41 -878 233 0 180 281 184 694 11z m14743 -667 l62 -350 -192 400 c-231 481 -274 791 -70 497 76 -108 165 -354 200 -547z m-3964 226 c56 -147 -125 -322 -336 -324 -121 -2 -259 382 -182 506 71 115 456 -20 518 -182z m1027 174 c116 -75 87 -97 -131 -98 -162 -1 -255 40 -219 98 77 124 158 124 350 0z m-13900 -100 c0 -55 -65 -100 -144 -100 -79 0 -172 45 -206 100 -34 55 31 100 144 100 113 0 206 -45 206 -100z m15894 -97 c-214 -126 -1634 -502 -1529 -405 151 138 1178 492 1435 494 198 1 217 -17 94 -89z m-15216 -288 c29 -86 -19 -122 -133 -100 -98 19 -199 96 -223 170 -29 86 19 122 133 100 98 -19 199 -96 223 -170z m-1378 36 c0 -54 -765 -551 -848 -551 -101 0 -50 216 82 348 115 115 229 154 691 238 41 8 75 -8 75 -35z m3380 -71 c230 -230 143 -480 -168 -480 -326 0 -563 223 -476 449 69 180 475 200 644 31z m14807 -830 c-1 -200 -1 -200 -87 0 -47 110 -84 380 -81 600 l4 400 83 -400 c45 -220 82 -490 81 -600z m-1155 610 c40 -104 -110 -171 -590 -262 -355 -66 -670 -162 -700 -211 -63 -102 -242 -20 -242 111 0 117 912 444 1364 490 63 7 139 -51 168 -128z m-15232 -110 c102 -123 95 -150 -38 -150 -89 0 -162 68 -162 150 0 83 17 150 38 150 21 0 94 -67 162 -150z m12000 16 c0 -74 -114 -186 -253 -249 -211 -96 -264 -89 -315 44 -34 87 2 199 78 248 211 133 490 108 490 -43z m-15250 -166 c-34 -55 -152 -100 -262 -100 -110 0 -172 45 -138 100 34 55 152 100 262 100 110 0 172 -45 138 -100z m529 -275 c-20 -96 -105 -164 -188 -150 -85 14 -496 -371 -934 -874 -873 -1001 -1057 -1179 -1057 -1020 0 57 56 164 125 237 69 73 291 339 495 593 910 1133 1662 1719 1559 1214z m18063 114 c293 -112 161 -312 -289 -438 -453 -127 -753 -90 -753 94 0 56 124 127 275 159 151 32 343 98 425 146 83 49 158 91 167 94 9 3 88 -21 175 -55z m-21606 -189 c-31 -83 -94 -150 -139 -150 -44 0 -163 -27 -264 -61 -101 -33 -48 34 117 150 359 251 359 251 286 61z m7157 -93 c125 -133 198 -291 162 -350 -107 -171 -214 -125 -337 143 -62 138 -182 250 -265 250 -254 0 -136 -484 219 -899 181 -211 328 -413 328 -449 0 -118 -540 354 -722 630 -446 676 76 1249 615 675z m-4841 -149 c-64 -204 -352 -298 -352 -115 0 122 310 430 371 369 26 -26 18 -140 -19 -254z m5991 -95 c82 -158 121 -316 86 -350 -120 -121 -506 -61 -639 98 -114 139 -100 189 99 350 295 239 278 242 454 -98z m14157 75 c0 -55 -45 -72 -100 -38 -55 34 -100 107 -100 162 0 55 45 72 100 38 55 -34 100 -107 100 -162z m-4551 -189 c-199 -219 -308 -196 -214 47 32 85 135 154 227 154 154 0 153 -18 -13 -201z m-16167 -223 c-18 -123 -111 -239 -207 -257 -201 -39 -234 182 -55 361 186 186 297 142 262 -104z m20193 99 c-62 -187 -341 -207 -409 -30 -44 115 6 155 195 155 160 0 240 -47 214 -125z m-15975 -119 c0 -150 -180 -310 -259 -230 -70 69 68 374 170 374 49 0 89 -65 89 -144z m14357 71 c-161 -24 -532 -197 -825 -384 -619 -396 -696 -333 -157 128 309 265 454 320 825 310 322 -8 366 -23 157 -54z m-1678 -212 c32 -98 -14 -117 -167 -69 -154 49 -212 25 -212 -89 0 -86 -48 -157 -106 -157 -58 0 -88 34 -65 75 22 41 69 157 105 257 73 204 375 192 445 -17z m3879 -215 c23 0 42 -67 42 -150 0 -167 -353 -206 -450 -50 -94 151 51 321 218 257 82 -31 167 -57 190 -57z m-21321 -414 c-212 -235 -337 -237 -337 -6 0 273 205 440 370 303 112 -93 107 -143 -33 -297z m7494 139 c64 -321 -82 -507 -427 -547 -338 -39 -384 260 -87 573 303 320 447 313 514 -26z m9069 -25 c0 -110 -45 -200 -100 -200 -55 0 -100 90 -100 200 0 110 45 200 100 200 55 0 100 -90 100 -200z m-12305 -109 c-61 -114 -131 -188 -155 -164 -70 70 71 373 174 373 51 0 43 -94 -19 -209z m-4626 -633 c-41 -123 -346 -314 -405 -254 -26 25 -23 167 5 315 46 236 76 255 242 151 104 -65 175 -161 158 -212z m4331 48 c0 -118 -195 -244 -267 -173 -71 72 55 267 173 267 52 0 94 -42 94 -94z m3817 -249 c22 -129 -79 -270 -304 -423 -578 -395 -739 11 -188 475 338 285 435 275 492 -52z m8846 118 c-33 -124 -61 -259 -62 -300 0 -41 -91 -75 -201 -75 -226 0 -273 287 -80 480 208 208 410 146 343 -105z m-17543 -443 c97 -124 -225 -532 -420 -532 -141 0 -125 149 61 578 108 249 179 322 214 222 28 -82 94 -203 145 -268z m19880 62 c0 -52 -45 -94 -100 -94 -55 0 -100 70 -100 156 0 86 45 128 100 94 55 -34 100 -104 100 -156z m-15483 -347 c-164 -360 -333 -222 -199 163 75 213 139 273 212 200 73 -73 69 -183 -13 -363z m14177 -455 c49 -298 52 -580 8 -626 -86 -91 -396 1127 -323 1268 89 171 230 -117 315 -642z m-9634 367 c54 -139 -233 -559 -382 -559 -111 0 -97 279 26 507 121 227 280 251 356 52z m11179 -17 c38 -98 15 -143 -58 -119 -149 50 -231 277 -100 277 54 0 125 -71 158 -158z m-2639 1 c0 -160 -226 -443 -354 -443 -147 0 -204 309 -79 433 81 81 433 90 433 10z m-17940 -443 c124 0 119 -41 -30 -247 -255 -350 -430 -318 -430 80 0 390 103 537 224 320 47 -84 153 -153 236 -153z m4540 58 c0 -160 -144 -358 -261 -358 -157 0 -163 20 -78 242 52 136 339 234 339 116z m16300 -208 c0 -82 -45 -150 -100 -150 -55 0 -100 68 -100 150 0 83 45 150 100 150 55 0 100 -67 100 -150z"/>
<path d="M12068 20935 c-106 -107 -80 -435 35 -435 148 0 241 296 129 408 -53 53 -126 65 -164 27z"/>
<path d="M11900 19700 c0 -55 -112 -100 -250 -100 -275 0 -316 -94 -126 -284 99 -99 94 -144 -25 -219 -256 -162 -372 -108 -434 203 -33 165 -108 300 -166 300 -154 0 -257 -331 -117 -377 65 -22 118 -99 118 -171 0 -160 221 -252 606 -252 271 0 285 20 226 316 -47 234 -32 296 59 240 72 -45 180 0 262 109 183 241 182 335 -3 335 -82 0 -150 -45 -150 -100z"/>
<path d="M12267 19633 c-37 -36 -66 -138 -65 -225 1 -138 13 -139 98 -8 76 117 97 89 98 -125 1 -151 -43 -275 -98 -275 -250 0 -63 -201 275 -295 523 -145 594 -134 657 105 30 116 102 180 161 144 154 -95 133 272 -28 492 -93 128 -156 149 -206 69 -39 -63 -28 -115 24 -115 53 0 124 -74 159 -164 53 -138 38 -144 -92 -36 -191 159 -320 55 -165 -132 143 -173 59 -261 -187 -196 -192 50 -367 392 -258 501 65 65 -124 327 -236 327 -39 0 -101 -30 -137 -67z"/>
<path d="M13780 18880 c204 -204 152 -404 -74 -283 -107 57 -216 68 -242 25 -69 -111 542 -511 832 -544 210 -24 245 16 262 297 20 355 -145 446 -229 125 -57 -218 -180 -260 -282 -96 -35 58 8 215 97 350 88 135 115 246 58 246 -56 0 -102 -54 -102 -120 0 -93 -27 -93 -120 0 -66 66 -165 120 -220 120 -56 0 -47 -53 20 -120z"/>
<path d="M14961 18042 c-38 -98 -15 -143 58 -119 149 50 231 277 100 277 -54 0 -125 -71 -158 -158z"/>
<path d="M15400 17850 c0 -82 45 -150 100 -150 55 0 100 68 100 150 0 83 -45 150 -100 150 -55 0 -100 -67 -100 -150z"/>
<path d="M14246 17793 c-80 -128 -60 -148 229 -237 245 -76 296 33 105 224 -148 148 -248 152 -334 13z"/>
<path d="M14800 17622 c0 -44 135 -159 300 -256 331 -196 404 -91 117 169 -192 173 -417 220 -417 87z"/>
<path d="M14250 17300 c34 -55 104 -100 156 -100 52 0 94 45 94 100 0 55 -70 100 -156 100 -86 0 -128 -45 -94 -100z"/>
<path d="M15903 17154 c-99 -120 -62 -183 213 -354 184 -114 459 -234 611 -267 152 -32 301 -98 331 -146 72 -117 542 -112 542 6 0 52 -101 122 -225 157 -709 200 -1258 477 -1208 609 71 185 -109 182 -264 -5z"/>
<path d="M19675 17619 c-206 -17 -375 -73 -375 -125 0 -130 673 -119 754 13 87 141 61 148 -379 112z"/>
<path d="M12600 16906 c0 -52 45 -122 100 -156 55 -34 100 -11 100 50 0 61 45 84 100 50 55 -34 100 -14 100 44 0 58 -90 106 -200 106 -110 0 -200 -42 -200 -94z"/>
<path d="M9900 16212 c0 -55 45 -128 100 -162 55 -34 100 -17 100 38 0 55 -45 128 -100 162 -55 34 -100 17 -100 -38z"/>
<path d="M6048 14197 c-39 -63 -24 -161 34 -219 134 -134 448 -17 393 147 -56 167 -339 215 -427 72z"/>
<path d="M6600 14100 c0 -111 67 -200 150 -200 83 0 150 89 150 200 0 111 -67 200 -150 200 -83 0 -150 -89 -150 -200z"/>
<path d="M7008 13658 c-4 -105 19 -164 52 -131 34 33 37 120 8 192 -32 80 -55 56 -60 -61z"/>
<path d="M3548 13497 c-79 -128 205 -585 415 -666 192 -74 360 91 287 283 -84 218 -622 513 -702 383z"/>
<path d="M4800 13262 c0 -195 579 -423 719 -283 59 59 80 178 47 264 -78 204 -766 221 -766 19z"/>
<path d="M5769 12836 c-80 -80 11 -236 137 -236 52 0 94 68 94 150 0 155 -118 199 -231 86z"/>
<path d="M8461 15258 c33 -87 104 -158 158 -158 131 0 49 227 -100 277 -73 24 -96 -21 -58 -119z"/>
<path d="M10000 24405 c0 -461 -39 -618 -175 -698 -120 -71 -140 -127 -62 -180 61 -42 131 -381 154 -753 51 -818 217 -1059 563 -817 215 151 223 212 211 1600 l-13 1443 -339 0 -339 0 0 -595z"/>
<path d="M17324 24931 c95 -25 275 -26 400 -2 124 24 46 45 -174 46 -220 1 -322 -19 -226 -44z"/>
<path d="M18800 24954 c0 -98 415 -262 893 -353 373 -70 582 -60 828 42 181 74 527 162 770 195 831 114 541 162 -974 162 -834 0 -1517 -21 -1517 -46z"/>
<path d="M22700 24934 c138 -28 293 -92 345 -142 159 -153 1196 -109 1411 60 180 141 165 147 -206 78 -407 -75 -552 -74 -1350 9 -247 26 -337 24 -200 -5z"/>
<path d="M24550 23224 c-220 -83 -760 -156 -1200 -162 -1067 -16 -1145 -203 -100 -242 859 -33 1635 125 1721 350 81 210 15 218 -421 54z"/>
<path d="M24858 22814 c-29 -48 -258 -144 -508 -214 -496 -139 -647 -269 -414 -359 217 -83 1064 318 1064 503 0 173 -60 202 -142 70z"/>
<path d="M22803 22405 c-182 -117 -115 -192 203 -228 161 -18 244 23 244 122 0 179 -244 237 -447 106z"/>
<path d="M24871 22234 c-74 -120 -1090 -329 -1461 -302 -310 23 -388 -194 -102 -284 254 -81 1315 123 1555 299 91 66 144 182 119 257 -30 89 -68 99 -111 30z"/>
<path d="M21925 21932 c-124 -25 -225 -113 -225 -196 0 -110 59 -130 225 -75 124 41 397 69 607 62 256 -9 368 26 342 107 -41 125 -560 181 -949 102z"/>
<path d="M24300 21399 c-192 -107 -522 -242 -731 -302 -223 -63 -364 -158 -338 -228 24 -65 106 -104 182 -85 75 18 320 46 544 61 224 15 539 110 700 211 161 101 305 191 320 199 15 9 -1 90 -35 181 -81 209 -208 202 -642 -37z"/>
<path d="M22069 21232 c-278 -85 -464 -196 -441 -264 50 -149 553 -92 817 92 110 77 367 140 571 140 205 0 400 45 434 100 92 149 -817 105 -1381 -68z"/>
<path d="M18675 18827 c-206 -21 -375 -87 -375 -146 0 -122 941 -26 1195 122 165 97 -63 103 -820 24z"/>
<path d="M3 17725 c3 -261 11 -265 147 -85 145 191 118 360 -56 360 -52 0 -93 -124 -91 -275z"/>
<path d="M0 16256 c0 -86 45 -156 100 -156 55 0 100 42 100 94 0 52 -45 122 -100 156 -55 34 -100 -8 -100 -94z"/>
<path d="M1420 15080 c-167 -167 -150 -347 39 -420 226 -86 341 14 341 296 0 261 -183 321 -380 124z"/>
<path d="M1057 13649 c42 -225 20 -406 -60 -503 -189 -227 -28 -305 202 -97 223 202 266 646 81 831 -212 212 -291 129 -223 -231z"/>
<path d="M1670 13138 c-74 -75 -470 -918 -470 -1001 0 -20 66 -37 147 -37 197 0 473 550 434 866 -17 139 -67 217 -111 172z"/>
<path d="M73 13040 c-40 -41 -73 -142 -73 -227 0 -112 30 -123 111 -42 61 61 94 163 73 227 -21 63 -71 82 -111 42z"/>
<path d="M499 12149 c-100 -121 -94 -149 33 -149 187 0 309 163 181 242 -50 31 -146 -11 -214 -93z"/>
<path d="M0 12044 c0 -86 45 -128 100 -94 129 80 129 250 0 250 -55 0 -100 -70 -100 -156z"/>
<path d="M1866 11873 c-75 -180 -301 -452 -501 -605 -370 -282 -482 -568 -223 -568 78 0 166 -56 196 -125 30 -69 28 -1 -3 150 -35 169 -14 275 54 275 61 0 111 70 111 156 0 86 42 130 94 98 126 -78 472 304 596 659 146 421 -146 385 -324 -40z"/>
<path d="M2418 11691 c-115 -183 -109 -204 50 -173 99 19 195 113 213 208 46 239 -105 219 -263 -35z"/>
<path d="M0 11544 c0 -86 45 -128 100 -94 129 80 129 250 0 250 -55 0 -100 -70 -100 -156z"/>
<path d="M2599 10975 c-109 -179 -198 -451 -199 -604 0 -154 -98 -412 -218 -574 -285 -385 -151 -511 186 -174 185 185 260 361 253 595 -6 182 78 481 185 663 223 379 232 419 93 419 -56 0 -191 -146 -300 -325z"/>
<path d="M1996 10894 c-120 -168 -190 -333 -157 -367 84 -84 561 376 561 540 0 224 -175 149 -404 -173z"/>
<path d="M0 10544 c0 -86 45 -128 100 -94 129 80 129 250 0 250 -55 0 -100 -70 -100 -156z"/>
<path d="M700 10450 c0 -82 45 -150 100 -150 55 0 100 68 100 150 0 83 -45 150 -100 150 -55 0 -100 -67 -100 -150z"/>
<path d="M13522 10399 c-90 -145 -191 -185 -359 -143 -146 36 -293 -1 -391 -99 -87 -86 -255 -157 -374 -157 -131 0 -237 -77 -268 -195 -41 -156 -109 -184 -340 -138 -301 60 -411 -99 -140 -203 83 -32 150 -127 150 -211 0 -84 83 -153 183 -153 101 0 304 -135 451 -300 262 -294 466 -387 466 -212 0 48 137 144 304 214 167 69 286 175 263 237 -22 61 25 239 104 395 79 156 119 347 89 425 -37 97 21 141 184 141 224 0 231 19 125 300 -132 350 -271 380 -447 99z m-508 -802 c-130 -108 -310 -197 -400 -196 -105 0 -56 69 136 192 393 252 565 254 264 4z m286 -287 c0 -50 -142 -140 -315 -200 -381 -133 -385 -133 -385 -18 0 50 124 137 275 192 358 131 425 135 425 26z"/>
<path d="M864 9931 c-113 -113 -69 -231 86 -231 83 0 150 42 150 94 0 126 -156 217 -236 137z"/>
<path d="M2800 9047 c0 -165 -153 -405 -445 -697 -262 -262 -401 -472 -339 -510 106 -65 1284 1112 1284 1282 0 49 -42 64 -93 32 -51 -31 -121 -12 -156 44 -115 187 -251 105 -251 -151z"/>
<path d="M1569 9036 c-80 -80 11 -236 137 -236 52 0 94 68 94 150 0 155 -118 199 -231 86z"/>
<path d="M16 8700 c0 -137 22 -194 50 -125 28 69 28 181 0 250 -28 69 -50 13 -50 -125z"/>
<path d="M704 8307 c-141 -263 -131 -407 30 -407 110 0 366 388 366 555 0 132 -308 17 -396 -148z"/>
<path d="M1513 8366 c-61 -74 -82 -164 -46 -199 75 -75 333 115 333 245 0 132 -161 106 -287 -46z"/>
<path d="M3088 8025 c-194 -206 -440 -433 -546 -504 -170 -115 -153 -123 158 -76 353 54 900 556 900 826 0 215 -141 147 -512 -246z"/>
<path d="M3700 7917 c0 -141 113 -206 260 -149 208 80 169 232 -60 232 -110 0 -200 -37 -200 -83z"/>
<path d="M375 7389 c-96 -55 -175 -142 -175 -194 0 -131 373 -120 455 14 105 168 -85 290 -280 180z"/>
<path d="M1299 7349 c-100 -121 -94 -149 33 -149 187 0 309 163 181 242 -50 31 -146 -11 -214 -93z"/>
<path d="M8 7158 c-4 -105 19 -164 52 -131 34 33 37 120 8 192 -32 80 -55 56 -60 -61z"/>
<path d="M3277 6969 c-491 -331 -586 -469 -323 -469 279 0 933 503 943 725 5 129 -132 72 -620 -256z"/>
<path d="M4235 6946 c-33 -85 -35 -180 -4 -210 88 -88 269 61 269 220 0 192 -191 184 -265 -10z"/>
<path d="M1869 6836 c-35 -35 -39 -103 -9 -152 64 -103 240 -14 240 122 0 107 -136 125 -231 30z"/>
<path d="M2303 6553 c-67 -80 -104 -199 -83 -263 22 -65 117 1 212 146 181 277 80 369 -129 117z"/>
<path d="M155 6406 c-200 -221 -192 -275 45 -308 413 -59 491 39 271 340 -121 166 -138 164 -316 -32z"/>
<path d="M864 6349 c-35 -90 0 -149 89 -149 162 0 199 156 57 244 -49 30 -115 -12 -146 -95z"/>
<path d="M3401 6151 c-185 -191 -308 -378 -271 -414 100 -100 870 444 870 614 0 249 -243 168 -599 -200z"/>
<path d="M1664 6131 c-113 -113 -69 -231 86 -231 83 0 150 42 150 94 0 126 -156 217 -236 137z"/>
<path d="M2632 5972 c-100 -125 -328 -330 -507 -457 -411 -289 -428 -487 -21 -247 400 237 896 694 896 826 0 177 -175 119 -368 -122z"/>
<path d="M577 5700 c-69 -110 -206 -200 -304 -200 -99 0 -205 -66 -236 -147 -131 -343 45 -307 513 104 337 296 443 440 326 441 -96 1 -231 -88 -299 -198z"/>
<path d="M753 5046 c-274 -246 -555 -446 -625 -446 -71 0 -128 -65 -128 -145 0 -118 56 -125 309 -37 480 167 1357 1098 1016 1078 -41 -3 -299 -205 -572 -450z"/>
<path d="M11202 5381 c-1 -93 43 -197 98 -231 127 -78 127 54 0 250 -84 129 -97 127 -98 -19z"/>
<path d="M11502 5331 c-1 -121 43 -247 98 -281 127 -79 127 153 0 350 -79 122 -97 109 -98 -69z"/>
<path d="M10500 5356 c0 -24 45 -72 100 -106 55 -34 100 -14 100 44 0 58 -45 106 -100 106 -55 0 -100 -20 -100 -44z"/>
<path d="M10900 5306 c0 -58 45 -106 100 -106 55 0 100 20 100 44 0 24 -45 72 -100 106 -55 34 -100 14 -100 -44z"/>
<path d="M10300 5206 c0 -58 45 -106 100 -106 55 0 100 20 100 44 0 24 -45 72 -100 106 -55 34 -100 14 -100 -44z"/>
<path d="M1400 4741 c-247 -141 -523 -322 -611 -402 -89 -80 -258 -164 -376 -186 -306 -59 -413 -143 -413 -321 0 -127 28 -133 149 -33 82 68 221 96 310 62 96 -37 278 36 451 182 160 134 470 346 690 469 220 124 400 284 400 356 0 184 -86 166 -600 -127z"/>
<path d="M5300 3172 c0 -70 -151 -443 -336 -829 -244 -509 -482 -825 -864 -1148 -1313 -1109 -1622 -1620 -363 -599 864 700 1058 945 1468 1850 316 697 352 854 195 854 -55 0 -100 -58 -100 -128z"/>
<path d="M23200 1810 c0 -183 633 -1356 672 -1243 21 64 -99 390 -268 725 -291 576 -404 721 -404 518z"/>
<path d="M16276 1681 c-90 -235 24 -581 192 -581 79 0 114 49 77 108 -36 59 -98 226 -137 371 -54 203 -85 226 -132 102z"/>
<path d="M21336 1425 c32 -151 115 -534 183 -850 136 -632 328 -801 227 -200 -80 478 -346 1325 -415 1325 -30 0 -27 -124 5 -275z"/>
<path d="M15600 1400 c0 -55 20 -100 44 -100 24 0 72 45 106 100 34 55 14 100 -44 100 -58 0 -106 -45 -106 -100z"/>
<path d="M15500 1120 c0 -67 -133 -120 -300 -120 -165 0 -300 -45 -300 -100 0 -136 671 -128 755 9 37 60 17 159 -44 220 -81 81 -111 79 -111 -9z"/>
<path d="M3650 352 c-220 -189 -351 -346 -290 -348 116 -4 940 563 940 647 0 142 -296 6 -650 -299z"/>
<path d="M7500 100 c0 -55 45 -100 100 -100 55 0 100 45 100 100 0 55 -45 100 -100 100 -55 0 -100 -45 -100 -100z"/>
</g>
</svg>