<svg xmlns="http://www.w3.org/2000/svg" version="1.0" width="250" height="250" viewBox="0 0 250.000000 250.000000" preserveAspectRatio="xMidYMid meet">
<metadata>
Created by potrace 1.10, written by Peter Selinger 2001-2011
</metadata>
<g transform="translate(0.000000,250.000000) scale(0.010000,-0.010000)" fill="#555555" stroke="none">
<path d="M10 23525 c-4 -1056 23 -1425 97 -1300 229 390 1194 668 1042 300 -40 -96 -108 -325 -152 -507 -43 -183 -151 -412 -238 -508 -88 -97 -159 -234 -159 -304 0 -96 -63 -88 -246 32 -325 213 -354 206 -354 -86 0 -306 235 -460 1150 -754 385 -123 768 -281 850 -351 83 -70 600 -365 1150 -657 1295 -686 3223 -2254 3116 -2534 -50 -130 840 -606 1134 -606 83 0 164 -101 182 -225 20 -139 101 -225 213 -225 99 0 234 -65 300 -144 66 -79 178 -122 249 -94 73 28 153 -41 183 -156 30 -113 137 -207 239 -208 101 -1 290 -113 419 -250 130 -136 276 -248 325 -248 50 0 90 -82 90 -181 0 -433 1066 -1006 1661 -892 386 73 1668 -376 2229 -781 533 -385 789 -736 616 -842 -62 -39 -117 -281 -122 -539 -5 -258 -49 -493 -97 -523 -98 -61 -96 -75 -168 983 -26 373 -219 351 -219 -25 0 -195 -51 -300 -144 -300 -185 0 -290 167 -158 249 150 92 124 708 -35 840 -111 92 -149 37 -202 -294 -51 -316 -105 -401 -238 -375 -137 27 -166 120 -141 439 22 277 -18 446 -125 535 -86 72 -160 114 -164 93 -5 -20 -28 -149 -52 -287 -85 -490 -118 -520 -375 -351 -170 111 -225 222 -192 391 58 307 -138 424 -365 218 -165 -149 -198 -145 -447 50 -147 116 -337 185 -422 152 -85 -33 -392 53 -682 190 -290 138 -595 250 -677 250 -201 0 -518 -360 -435 -494 94 -151 309 -131 453 43 68 82 166 123 217 91 57 -35 52 -109 -12 -186 -77 -92 -64 -162 47 -255 125 -104 186 -97 336 40 235 212 542 111 459 -151 -84 -264 213 -356 451 -140 240 217 445 117 303 -147 -156 -293 -124 -328 236 -260 375 70 598 -98 545 -409 -31 -180 141 -220 519 -121 105 27 143 -29 126 -189 -28 -260 227 -409 401 -235 123 123 473 156 473 44 0 -37 -97 -171 -215 -297 -200 -213 -203 -233 -37 -297 98 -38 260 -17 361 45 233 146 393 -60 173 -222 -82 -61 -129 -170 -105 -243 37 -110 8 -110 -172 0 -188 115 -235 109 -347 -42 -72 -96 -225 -175 -341 -175 -387 0 -1291 491 -1858 1009 -343 313 -617 490 -708 455 -87 -33 -192 25 -254 143 -128 238 -292 166 -310 -138 -8 -127 -39 -73 -75 130 -41 231 -125 361 -248 384 -197 38 -578 265 -1761 1049 -401 266 -918 575 -1149 687 -361 176 -415 241 -373 458 43 228 23 246 -207 188 -141 -35 -317 -88 -393 -117 -185 -71 -530 193 -440 337 39 63 304 116 590 118 774 5 459 158 -734 357 -248 41 -557 248 -1045 699 -382 353 -750 641 -819 641 -69 0 -213 95 -321 210 -298 320 -717 511 -860 392 -86 -72 -152 -32 -230 140 -60 132 -214 273 -341 313 -127 40 -358 179 -514 309 -155 130 -324 236 -375 236 -161 0 -99 -423 83 -562 146 -112 152 -150 35 -226 -170 -112 -73 -412 133 -412 83 0 198 90 257 200 59 110 150 200 204 200 122 0 122 -403 0 -597 -59 -93 -53 -194 17 -278 88 -106 157 -88 358 97 l249 228 -68 -285 c-38 -156 -27 -336 25 -400 51 -63 110 -204 130 -313 25 -134 118 -199 286 -200 262 -2 296 -149 146 -627 -58 -184 -32 -225 139 -225 343 0 463 723 160 959 -115 89 -119 168 -21 426 154 409 331 344 304 -112 -25 -423 196 -564 408 -261 165 235 279 122 197 -195 -35 -133 -136 -217 -261 -217 -195 0 -196 -8 -29 -193 216 -239 137 -530 -191 -705 -210 -113 -283 -105 -523 51 -385 249 -1194 909 -1706 1390 l-426 401 9 -2322 10 -2322 291 0 c161 0 292 -51 292 -112 0 -72 -109 -91 -300 -53 l-300 60 0 -2797 0 -2798 650 0 c412 0 650 -41 650 -112 0 -78 -197 -90 -650 -42 l-650 70 0 -558 0 -558 450 0 c248 0 450 -45 450 -100 0 -55 -202 -100 -450 -100 -413 0 -450 -20 -450 -250 0 -147 57 -250 140 -250 156 0 1460 -1248 1460 -1397 0 -52 81 -176 181 -274 100 -98 266 -438 371 -755 160 -485 251 -607 574 -776 301 -157 427 -176 587 -91 240 128 399 28 184 -117 -241 -162 -901 -21 -1657 353 -817 404 -890 476 -980 972 -36 201 -147 471 -247 600 -101 129 -215 366 -254 527 -39 160 -136 384 -215 497 -130 186 -144 131 -144 -588 0 -713 24 -814 239 -997 244 -208 439 -854 257 -854 -54 0 -188 146 -297 325 l-198 325 -1 -625 c0 -344 35 -625 77 -625 42 0 250 118 462 262 l386 262 835 -412 c908 -448 1524 -532 1910 -262 294 206 396 711 189 940 -170 188 -216 510 -72 510 133 0 613 -402 613 -514 0 -55 113 -247 250 -427 138 -180 250 -393 250 -473 0 -320 232 -386 1359 -386 974 0 1128 23 1187 175 65 167 75 167 198 -1 120 -163 422 -174 4217 -158 l4089 18 -17 652 c-13 473 36 756 175 1029 106 208 192 441 192 518 0 221 1010 292 1163 82 96 -131 68 -189 -161 -329 -400 -243 -602 -577 -602 -996 0 -569 112 -990 263 -990 104 0 125 108 84 448 -54 446 147 1052 348 1052 49 0 22 -135 -60 -300 -164 -328 -141 -664 43 -626 79 16 97 -75 56 -279 l-61 -303 989 29 988 29 -33 625 c-17 344 -12 625 13 625 24 0 256 -94 515 -208 367 -163 455 -245 398 -375 -167 -389 -169 -717 -4 -717 88 0 161 62 161 138 0 76 61 188 136 251 111 91 127 65 89 -138 -66 -343 135 -320 210 24 71 327 232 592 311 512 31 -31 -12 -221 -96 -422 l-153 -365 299 0 c241 0 286 33 234 175 -61 167 -54 167 136 0 113 -99 360 -175 570 -175 l371 0 -67 525 c-37 289 -118 638 -181 775 -63 138 -107 318 -98 400 9 83 21 229 27 325 10 145 110 175 587 175 l575 0 23 -617 23 -617 -294 282 c-162 156 -271 321 -243 367 29 47 -17 85 -103 85 -246 0 -183 -339 139 -743 162 -205 353 -503 424 -664 127 -288 144 -293 905 -293 698 0 776 19 776 192 0 105 -56 212 -125 237 -100 37 -100 73 0 179 69 72 125 301 125 507 0 430 -177 650 -982 1219 -479 338 -575 370 -962 312 -303 -46 -521 -18 -738 95 -350 180 -560 207 -468 59 115 -186 -198 -101 -460 125 -326 281 -590 785 -590 1123 0 377 472 1248 729 1345 335 127 330 43 -16 -248 -172 -144 -313 -337 -313 -428 0 -125 62 -98 254 109 140 151 306 274 370 274 86 0 85 -31 -4 -120 -167 -167 -150 -380 30 -380 190 0 190 -74 0 -264 -331 -331 9 -474 428 -180 318 223 911 152 1098 -131 147 -223 146 -224 -289 -166 -492 66 -987 -82 -987 -296 0 -183 228 -270 409 -155 288 182 846 102 1089 -156 162 -173 300 -231 454 -193 170 43 302 -40 584 -370 l364 -425 0 569 c0 546 -8 564 -203 443 -263 -163 -399 27 -331 465 40 264 2 334 -259 479 -169 94 -307 223 -307 287 0 73 100 51 270 -61 149 -97 396 -192 550 -210 382 -44 370 207 -28 587 -232 222 -368 279 -550 234 -196 -49 -242 -22 -242 140 0 111 -90 258 -200 326 -320 200 -232 308 194 240 227 -37 420 -21 456 37 34 55 194 100 356 100 275 0 294 25 294 387 0 370 -17 390 -375 447 -206 33 -476 34 -600 2 -356 -94 -263 98 225 464 248 185 450 398 450 472 0 74 68 160 150 192 83 31 150 150 150 264 l0 207 -225 -200 c-374 -332 -1553 -1135 -1668 -1135 -364 0 106 407 910 788 612 291 759 467 602 719 -166 265 -153 293 131 293 239 0 250 27 250 600 0 413 -39 600 -125 601 -69 1 -226 29 -350 62 -357 96 -269 -158 100 -288 321 -113 322 -115 75 -174 -171 -41 -357 12 -589 169 -186 127 -411 234 -500 238 -89 4 -37 53 114 108 222 81 275 162 275 422 0 177 53 375 118 440 65 65 99 136 75 158 -103 94 -1207 122 -1263 32 -84 -136 258 -368 545 -368 141 0 210 -43 171 -106 -36 -58 -185 -92 -331 -75 -223 26 -261 -5 -241 -194 13 -124 -21 -225 -75 -225 -55 0 -99 62 -99 138 0 76 -71 197 -158 269 -120 99 -144 234 -97 547 48 318 24 447 -102 551 -421 350 -359 1040 89 976 151 -21 208 -89 185 -220 -41 -239 142 -358 555 -359 245 -2 308 34 264 148 -31 83 -120 150 -197 150 -173 0 -183 167 -14 229 354 130 -666 529 -1050 411 -172 -53 -222 48 -177 360 33 237 50 235 752 -100 366 -175 696 -288 733 -251 90 91 -430 464 -922 662 -221 89 -419 213 -440 275 -53 159 377 136 679 -36 323 -184 400 -184 400 2 0 83 -169 224 -375 312 -206 88 -446 195 -532 238 -129 63 -209 -84 -439 -805 -154 -486 -251 -960 -215 -1054 38 -99 -1 -246 -92 -346 -145 -161 -130 -205 197 -561 420 -456 430 -532 121 -903 -129 -156 -265 -407 -302 -558 -37 -154 -136 -275 -223 -275 -212 0 -1440 304 -1696 420 -113 51 -248 85 -300 75 -219 -43 -324 18 -376 218 -40 150 -106 194 -225 148 -92 -35 -219 -27 -281 18 -61 46 -494 211 -962 367 -467 157 -902 325 -965 374 -127 97 -612 10 -809 -145 -85 -67 -142 -49 -184 60 -33 87 -157 188 -274 225 -290 92 -865 471 -867 571 0 44 50 49 113 10 63 -39 412 -127 775 -197 2190 -419 3742 -795 4308 -1043 711 -313 1042 -272 984 124 -19 128 78 320 244 485 240 240 275 352 275 886 0 376 58 699 151 841 235 360 100 828 -261 900 -371 74 -366 195 18 469 289 205 308 207 289 32 -57 -534 220 -620 393 -123 148 425 142 461 -97 537 -192 61 -195 75 -35 192 135 98 160 219 115 555 -32 236 -117 470 -190 518 -73 49 -200 132 -283 186 -132 85 -131 109 12 194 267 162 136 575 -369 1166 -360 422 -470 629 -462 870 18 543 -162 1016 -475 1247 -164 121 -340 220 -391 220 -52 0 -120 68 -151 150 -32 83 -14 150 39 150 133 0 123 865 -13 1119 -84 156 -80 225 16 284 205 128 392 -4 554 -390 140 -332 164 -348 284 -186 107 145 181 159 402 75 272 -104 454 -65 454 96 0 48 -158 139 -351 202 -193 64 -395 199 -450 301 -169 318 -110 340 153 57 179 -194 330 -263 524 -240 261 31 285 -7 591 -918 176 -522 322 -979 326 -1014 9 -82 -696 275 -837 424 -77 82 -46 94 119 45 427 -130 248 237 -230 469 -366 178 -472 195 -538 88 -57 -93 -103 -100 -150 -23 -118 190 -457 130 -457 -81 0 -379 130 -511 652 -663 292 -85 715 -287 939 -450 300 -217 409 -256 409 -146 0 230 182 180 218 -60 23 -148 176 -265 518 -394 267 -101 566 -256 663 -344 138 -125 1403 -651 1566 -651 19 0 35 315 35 700 0 386 -44 700 -97 700 -187 0 -1808 1367 -2113 1782 -192 262 -248 396 -149 358 88 -34 159 -100 159 -147 0 -47 394 -317 875 -599 481 -283 976 -607 1100 -722 l225 -207 0 416 c0 359 -34 424 -250 478 -137 34 -250 100 -250 145 0 106 -602 406 -698 347 -40 -24 -180 69 -310 208 -280 298 -223 285 790 -173 348 -157 644 -286 659 -286 15 0 34 203 44 450 12 334 -21 450 -128 450 -80 0 -176 50 -214 111 -46 74 1 88 144 43 193 -61 213 -30 213 336 0 313 -33 391 -146 348 -190 -73 -800 356 -679 477 53 53 239 27 457 -64 l368 -154 0 852 0 851 -1447 0 c-1245 0 -1439 -21 -1389 -150 31 -82 13 -150 -41 -150 -54 0 -155 68 -223 150 -183 221 -1500 215 -1500 -7 0 -116 -58 -139 -225 -88 -124 37 -268 107 -320 156 -129 121 -482 113 -407 -8 33 -53 -11 -235 -98 -403 -87 -168 -134 -346 -103 -394 30 -49 -2 -112 -71 -140 -92 -37 -94 -52 -6 -58 66 -4 196 -167 288 -361 158 -333 157 -364 -9 -548 -96 -107 -212 -172 -255 -145 -44 27 -109 3 -143 -53 -43 -69 -125 -68 -256 1 -146 79 -288 55 -590 -99 -468 -239 -505 -245 -505 -70 0 200 435 567 673 567 116 0 228 53 250 118 40 121 196 77 497 -139 307 -220 295 -12 -25 463 -262 389 -339 446 -462 344 -96 -79 -172 -88 -216 -23 -94 139 -517 120 -517 -24 0 -113 -215 -239 -408 -239 -51 0 -92 90 -92 200 0 110 59 200 131 200 72 0 233 95 357 210 158 147 316 197 523 167 337 -49 461 65 292 270 -91 109 -67 147 116 182 127 24 -365 50 -1094 57 -729 8 -1325 -26 -1325 -75 0 -50 -101 -91 -225 -93 -124 -2 -489 -30 -811 -62 -497 -50 -578 -36 -528 93 49 128 -76 151 -814 150 -757 -2 -840 -18 -630 -125 269 -138 462 -589 362 -849 -53 -139 -80 -144 -150 -31 -47 76 -62 200 -33 276 88 227 -254 510 -615 510 -183 0 -424 50 -537 110 -113 61 -432 110 -709 110 -501 0 -503 -1 -609 -396 -178 -660 -273 -647 -839 115 l-189 254 -2205 17 -2205 17 268 -249 c148 -136 269 -315 269 -396 0 -82 101 -179 225 -217 124 -38 315 -170 425 -295 215 -244 911 -477 1400 -470 1583 23 1972 53 2450 187 787 221 1579 118 2441 -318 380 -192 756 -349 835 -349 80 0 287 -120 460 -266 l314 -266 -275 68 c-324 80 -339 13 -87 -369 222 -337 151 -830 -184 -1283 -217 -294 -77 -416 182 -159 101 100 113 90 59 -50 -42 -112 -19 -175 66 -175 191 0 -64 -228 -561 -503 -448 -248 -1760 -697 -2036 -697 -350 0 -628 -440 -686 -1090 l-56 -608 439 -401 c669 -612 932 -701 2065 -701 548 0 1239 47 1535 105 840 163 2000 207 2358 89 178 -59 433 -237 567 -395 133 -158 262 -268 286 -243 25 24 45 -35 46 -131 1 -96 -42 -204 -96 -239 -141 -92 9 -287 172 -224 173 66 230 -125 304 -1012 42 -507 126 -802 305 -1072 136 -206 247 -440 247 -520 0 -80 45 -174 100 -208 55 -34 100 -130 100 -213 0 -125 -22 -128 -129 -19 -215 221 -541 815 -612 1116 -42 175 -117 265 -197 235 -122 -47 -190 149 -407 1156 -68 319 -662 752 -1193 872 -221 50 -565 29 -931 -57 -667 -157 -2608 -184 -2831 -40 -119 77 -100 97 95 98 325 2 161 145 -345 301 -220 68 -505 189 -633 270 -208 131 -254 129 -417 -19 -248 -224 -462 -99 -973 570 -456 597 -576 1002 -482 1629 68 456 527 1051 809 1051 84 0 178 68 210 150 31 83 143 150 247 150 104 0 189 68 189 150 0 83 52 150 115 150 63 0 352 120 642 267 468 237 540 316 637 702 91 359 81 490 -56 757 -294 573 -541 814 -1020 996 -586 222 -940 225 -1540 10 -403 -145 -508 -150 -722 -35 -201 107 -385 111 -943 19 -381 -63 -757 -139 -835 -169 -78 -30 -310 80 -516 244 -206 164 -438 274 -514 244 -76 -29 -326 52 -556 181 -317 178 -472 359 -649 759 -151 341 -293 525 -405 525 -95 0 -256 76 -359 169 -141 128 -429 178 -1194 208 -906 35 -1053 15 -1446 -194 -351 -186 -473 -209 -614 -117 -96 63 -164 165 -150 225 17 73 -287 109 -917 109 l-943 0 -5 -1475z m746 1222 c-222 -168 -356 -189 -356 -55 0 103 176 190 400 197 112 3 101 -33 -44 -142z m8094 53 c-34 -55 -104 -100 -156 -100 -52 0 -94 45 -94 100 0 55 70 100 156 100 86 0 128 -45 94 -100z m15100 0 c34 -55 17 -100 -38 -100 -55 0 -128 45 -162 100 -34 55 -17 100 38 100 55 0 128 -45 162 -100z m-20814 -150 c70 -182 -644 -579 -880 -489 -195 75 -103 239 134 239 99 0 260 90 360 200 216 239 309 251 386 50z m3864 44 c0 -58 -45 -78 -100 -44 -55 34 -100 82 -100 106 0 24 45 44 100 44 55 0 100 -48 100 -106z m2642 45 c342 -131 186 -227 -581 -357 -338 -57 -288 205 57 304 183 53 340 100 349 105 9 5 88 -18 175 -52z m7312 -146 c108 -174 -15 -211 -152 -45 -79 95 -86 152 -20 152 58 0 136 -48 172 -107z m4444 -218 c334 -367 369 -475 152 -475 -82 0 -150 40 -150 89 0 48 -156 162 -346 252 -231 110 -327 213 -289 312 90 235 315 172 633 -178z m1202 69 c0 -165 -158 -193 -250 -44 -82 132 38 319 157 246 51 -32 93 -123 93 -202z m800 106 c68 -82 102 -150 74 -150 -27 0 -106 68 -174 150 -68 83 -102 150 -74 150 27 0 106 -67 174 -150z m-22264 -98 c69 -181 -289 -409 -389 -247 -94 151 23 395 189 395 79 0 168 -67 200 -148z m19543 -670 l212 -501 -265 66 c-346 87 -752 552 -620 710 54 65 69 192 34 284 -55 143 -31 151 182 54 151 -69 327 -305 457 -613z m-17281 421 c90 -167 60 -220 -203 -356 -170 -87 -429 -145 -577 -128 -264 31 -261 36 172 356 242 179 454 325 471 325 18 0 79 -88 137 -197z m6688 -88 c-75 -23 -203 -76 -286 -117 -82 -41 -262 -28 -400 28 -246 101 -244 104 150 225 289 89 438 93 536 15 115 -92 115 -115 0 -151z m12955 125 c87 -34 134 -99 105 -146 -64 -104 -346 -8 -346 117 0 105 32 109 241 29z m1003 -93 c107 -81 152 -146 100 -144 -52 2 -181 69 -288 150 -107 81 -152 146 -100 144 52 -2 181 -69 288 -150z m-19848 -497 c1 -107 -137 74 -306 400 -69 133 -35 116 101 -50 113 -137 205 -295 205 -350z m-3796 350 c0 -55 -42 -100 -94 -100 -52 0 -122 45 -156 100 -34 55 8 100 94 100 86 0 156 -45 156 -100z m1171 -63 c49 -148 -278 -270 -399 -149 -52 52 -63 146 -24 209 85 138 371 98 423 -60z m20629 -353 c0 -50 -91 -42 -203 17 -111 60 -175 154 -141 209 68 111 344 -70 344 -226z m-21300 -88 c0 -53 -62 -96 -138 -96 -166 0 -385 243 -298 331 81 81 436 -110 436 -235z m2775 129 c50 -150 -532 -445 -799 -406 -358 53 -315 265 69 337 196 36 383 109 415 161 72 116 264 60 315 -92z m1324 -23 c85 -158 77 -187 -39 -142 -168 65 -298 340 -160 340 51 0 141 -89 199 -198z m18901 98 c0 -55 -45 -100 -100 -100 -55 0 -100 45 -100 100 0 55 45 100 100 100 55 0 100 -45 100 -100z m-9057 -150 c4 -55 -94 -114 -218 -132 -219 -31 -296 78 -155 219 97 97 364 35 373 -87z m2157 -91 c0 -71 -191 -208 -425 -304 -234 -97 -503 -216 -599 -265 -251 -130 -476 -110 -476 41 0 195 541 559 972 654 418 92 528 66 528 -126z m-15100 -9 c0 -83 -89 -150 -200 -150 -111 0 -200 67 -200 150 0 83 89 150 200 150 111 0 200 -67 200 -150z m20750 -50 c34 -55 -8 -100 -94 -100 -86 0 -156 45 -156 100 0 55 42 100 94 100 52 0 122 -45 156 -100z m-18676 -323 c-71 -185 -789 -402 -915 -276 -53 53 -76 108 -52 122 670 413 1092 480 967 154z m-2825 121 c-35 -56 -105 -75 -156 -44 -139 86 -113 146 63 146 86 0 128 -46 93 -102z m1451 -604 c0 -141 -122 -111 -391 95 -173 133 -220 238 -167 373 67 173 92 166 315 -93 134 -154 243 -323 243 -375z m18614 -23 c136 -243 -76 -303 -284 -80 -101 108 -306 243 -456 300 -151 57 -274 146 -274 197 0 140 912 -235 1014 -417z m-1472 110 c177 -253 188 -234 -167 -319 -241 -58 -275 -37 -275 169 0 418 205 488 442 150z m3009 117 c35 -56 100 -79 145 -51 45 28 131 -9 192 -83 61 -73 291 -214 511 -314 221 -99 401 -216 401 -260 0 -80 -1464 567 -1645 726 -55 49 -5 84 119 84 118 0 242 -46 277 -102z m-18451 -143 c0 -131 -548 -353 -875 -354 -257 -2 -113 262 200 364 476 157 675 153 675 -10z m1592 -117 c23 -21 14 -65 -19 -98 -33 -33 -164 16 -292 109 l-231 170 250 -72 c138 -40 269 -89 292 -109z m-3692 -138 c129 -84 127 -97 -19 -98 -93 -1 -197 43 -231 98 -78 127 54 127 250 0z m2402 -152 c160 -193 105 -245 -366 -351 -578 -131 -758 80 -265 310 478 223 479 223 631 41z m7517 84 c-72 -29 -159 -26 -192 8 -33 33 26 56 131 52 117 -5 141 -28 61 -60z m-9269 -232 c132 -57 149 -88 50 -91 -82 -3 -217 38 -300 91 -183 118 -25 118 250 0z m5690 -221 c-214 -39 -636 -44 -938 -11 -461 51 -510 75 -311 148 130 48 377 62 548 30 171 -32 424 -16 561 36 170 65 295 59 390 -18 112 -91 62 -128 -250 -185z m1320 -52 c-101 -102 -185 51 -102 186 63 102 87 102 121 1 23 -70 15 -154 -19 -187z m440 173 c0 -55 -42 -100 -94 -100 -52 0 -122 45 -156 100 -34 55 8 100 94 100 86 0 156 -45 156 -100z m4717 -65 c232 -210 236 -348 8 -264 -179 66 -321 221 -323 354 -3 122 119 87 315 -90z m2808 -127 c41 -4 75 -75 75 -158 0 -109 -113 -150 -414 -150 -249 0 -458 -59 -525 -148 -130 -173 -428 -41 -316 140 98 159 661 376 903 348 111 -13 236 -27 277 -32z m1270 -148 c71 -133 99 -289 63 -348 -75 -121 -852 -352 -928 -275 -57 57 569 863 670 863 36 0 124 -108 195 -240z m-14257 38 c-56 -56 -245 -143 -420 -193 -246 -71 -318 -60 -318 45 0 120 183 182 695 235 98 10 112 -18 43 -87z m6081 -66 c-72 -29 -159 -26 -192 8 -33 33 26 56 131 52 117 -5 141 -28 61 -60z m1363 -207 c28 -197 -12 -225 -319 -225 -193 0 -379 45 -413 100 -34 55 -14 100 44 100 58 0 106 70 106 157 0 265 543 142 582 -132z m3574 -318 c117 -290 193 -629 169 -753 -50 -263 -590 -554 -1028 -554 -405 0 -400 284 7 366 410 82 512 316 432 993 -86 733 114 708 420 -52z m-12956 391 c133 -87 133 -109 0 -194 -503 -321 -596 -436 -538 -667 59 -236 -91 -333 -212 -137 -34 55 -149 100 -256 100 -340 0 -222 362 226 691 452 333 549 359 780 207z m3400 -54 c0 -24 -45 -44 -100 -44 -55 0 -100 48 -100 106 0 58 45 78 100 44 55 -34 100 -82 100 -106z m4000 56 c-137 -44 -340 -84 -450 -89 -165 -6 -174 9 -50 89 83 53 285 93 450 89 294 -9 295 -11 50 -89z m2900 -2 c133 -87 133 -109 0 -196 -216 -142 -500 -124 -500 31 0 267 229 343 500 165z m-8000 -132 c0 -198 -501 -405 -640 -264 -80 81 -57 150 84 255 245 180 556 185 556 9z m3232 -85 c-149 -72 -369 -74 -700 -5 l-482 100 700 5 c559 4 656 -16 482 -100z m-3296 -431 c-65 -169 -196 -196 -281 -58 -32 51 22 114 119 139 97 25 186 51 198 57 12 7 -4 -55 -36 -138z m464 53 c0 -53 -67 -71 -150 -39 -82 31 -150 75 -150 97 0 21 68 39 150 39 83 0 150 -44 150 -97z m5745 -96 c-150 -147 -645 -243 -645 -125 0 107 209 186 545 206 121 8 159 -23 100 -81z m655 -4 c0 -53 -67 -71 -150 -39 -82 31 -150 75 -150 97 0 21 68 39 150 39 83 0 150 -44 150 -97z m777 -21 c-58 -174 -355 -337 -447 -245 -44 44 8 143 114 221 236 173 387 184 333 24z m-6727 -236 c-165 -75 -412 -138 -550 -138 -241 -2 -243 4 -56 145 107 81 354 143 550 139 l356 -8 -300 -138z m12050 -46 c0 -117 -77 -117 -350 0 -177 76 -169 87 75 93 151 4 275 -38 275 -93z m800 -6 c0 -58 -45 -78 -100 -44 -55 34 -100 82 -100 106 0 24 45 44 100 44 55 0 100 -48 100 -106z m-11955 -85 c-196 -187 -820 -386 -954 -304 -163 101 -130 136 259 273 380 135 824 154 695 31z m-2267 -191 c24 -72 -48 -155 -159 -184 -112 -29 -257 -184 -323 -344 -138 -332 -159 -341 -351 -149 -78 78 -198 161 -268 185 -92 33 -72 107 73 271 343 389 931 515 1028 221z m5672 88 c-346 -140 -1312 -239 -1200 -123 92 95 521 168 1150 194 223 9 228 1 50 -71z m-2400 -106 c34 -55 -20 -101 -119 -101 -100 -1 -371 -68 -602 -149 -232 -80 -500 -117 -595 -80 -137 53 -90 104 221 241 443 195 1001 241 1095 89z m10527 -143 c28 -29 -5 -121 -75 -205 -134 -161 -708 -194 -1049 -61 -181 71 -173 90 100 237 269 145 890 163 1024 29z m-9977 -97 c-192 -66 -471 -180 -619 -253 -156 -78 -344 -101 -450 -56 -141 60 -59 117 369 257 303 99 663 178 800 175 214 -3 200 -21 -100 -123z m2116 -20 c-149 -104 -358 -144 -597 -115 -255 31 -522 -27 -863 -190 -481 -229 -1298 -334 -1101 -142 154 151 1857 585 2342 596 438 11 443 8 219 -149z m9124 46 c223 -101 527 -653 419 -760 -23 -23 -153 31 -289 120 -210 138 -318 145 -707 47 -253 -64 -538 -86 -634 -49 -148 57 -114 120 223 408 431 369 604 410 988 234z m-2940 -386 c0 -55 -42 -100 -94 -100 -52 0 -122 45 -156 100 -34 55 8 100 94 100 86 0 156 -45 156 -100z m-2354 -335 c244 -178 115 -365 -252 -365 -325 0 -341 26 -190 307 122 229 196 238 442 58z m1354 -22 c0 -93 -68 -144 -167 -125 -251 48 -285 282 -41 282 123 0 208 -65 208 -157z m8156 -120 c-33 -34 -138 20 -233 120 -165 172 -163 175 61 61 128 -66 206 -148 172 -181z m-17146 2 c-53 -96 -235 -324 -403 -506 -233 -252 -293 -391 -246 -575 33 -134 18 -244 -35 -244 -207 0 -726 322 -726 451 0 177 1096 1038 1329 1044 140 4 157 -32 81 -170z m5816 -235 c-32 -123 3 -247 85 -299 95 -60 100 -88 17 -89 -67 -1 -96 -69 -64 -151 31 -83 92 -128 136 -101 43 27 97 -109 119 -301 52 -448 -127 -459 -435 -27 -230 323 -253 660 -70 1003 130 244 279 219 212 -35z m-4726 -90 c0 -55 -45 -100 -100 -100 -55 0 -100 45 -100 100 0 55 45 100 100 100 55 0 100 -45 100 -100z m4152 -75 c-201 -508 -171 -776 123 -1113 209 -239 379 -337 585 -336 159 1 338 -37 397 -85 59 -47 350 -148 647 -224 479 -123 630 -118 1365 43 454 99 906 223 1003 275 246 131 787 53 1279 -185 226 -110 468 -200 536 -200 244 0 713 -309 713 -470 0 -142 -31 -137 -225 38 -260 234 -975 447 -1536 458 -214 3 -1109 -65 -1989 -152 l-1600 -158 -371 240 c-203 133 -428 219 -500 192 -71 -27 -327 122 -569 331 -390 337 -426 404 -325 594 63 118 115 344 115 504 0 324 65 423 277 423 97 0 122 -57 75 -175z m3498 75 c34 -55 -8 -100 -94 -100 -86 0 -156 45 -156 100 0 55 42 100 94 100 52 0 122 -45 156 -100z m3050 -56 c0 -24 -45 -44 -100 -44 -55 0 -100 48 -100 106 0 58 45 78 100 44 55 -34 100 -82 100 -106z m-9850 -244 c-34 -55 -82 -100 -106 -100 -24 0 -44 45 -44 100 0 55 48 100 106 100 58 0 78 -45 44 -100z m8150 -25 c0 -117 -146 -88 -187 38 -21 61 13 95 75 75 61 -21 112 -72 112 -113z m1675 -33 c124 -25 225 0 225 57 0 64 71 58 192 -17 183 -114 180 -125 -62 -251 -358 -185 -808 -162 -1086 56 -385 303 -199 342 731 155z m-2327 -327 c-75 -75 -248 105 -248 260 0 137 23 131 142 -31 78 -106 126 -210 106 -229z m-1487 157 c40 -39 -3 -72 -96 -72 -92 0 -256 -55 -364 -122 -216 -136 -479 16 -360 207 70 113 704 103 820 -13z m-7461 -205 c0 -208 -118 -276 -266 -154 -194 161 -165 287 66 287 110 0 200 -60 200 -133z m13618 -295 c147 -230 258 -429 245 -442 -12 -12 -242 43 -510 124 -268 81 -536 141 -595 135 -263 -30 -358 24 -358 206 0 242 257 399 650 398 243 -1 351 -82 568 -421z m-10943 70 c-95 -96 -286 59 -215 174 42 68 98 66 170 -6 58 -58 79 -134 45 -168z m-1475 54 c128 -86 118 -127 -75 -289 -124 -104 -225 -283 -225 -398 0 -115 -45 -209 -100 -209 -55 0 -100 -116 -100 -258 0 -164 -46 -243 -125 -215 -72 25 -111 166 -93 333 l32 290 -219 -234 c-189 -202 -239 -215 -361 -93 -202 202 -96 376 490 802 572 415 565 413 776 271z m8219 -64 c-72 -29 -159 -26 -192 8 -33 33 26 56 131 52 117 -5 141 -28 61 -60z m-7619 -138 c0 -58 -45 -78 -100 -44 -55 34 -100 82 -100 106 0 24 45 44 100 44 55 0 100 -48 100 -106z m6550 -159 c-55 -18 -436 -118 -846 -222 -623 -157 -803 -168 -1094 -67 -603 208 -465 317 314 245 503 -46 779 -30 899 54 95 67 320 99 500 72 180 -27 282 -64 227 -82z m-5352 -110 c-3 -173 -184 -345 -292 -279 -88 54 -87 106 1 213 126 151 294 189 291 66z m9949 -520 c80 -129 -325 -335 -516 -262 -124 48 -130 88 -30 208 139 167 456 199 546 54z m-11129 -155 c-26 -147 -244 -122 -296 35 -29 86 19 122 134 100 99 -19 172 -80 162 -135z m1278 -45 c127 -81 125 -116 -12 -274 -87 -100 -200 -313 -252 -475 -52 -161 -153 -313 -224 -337 -91 -30 -109 20 -62 169 85 267 -49 273 -273 12 -192 -225 -573 -270 -573 -68 0 159 571 798 850 952 246 135 358 139 546 21z m-8494 -353 c-102 -123 -101 -183 8 -314 116 -140 108 -156 -63 -121 -132 27 -186 105 -162 237 39 227 220 474 294 401 27 -28 -7 -119 -77 -203z m19441 -9 c86 -87 157 -278 157 -425 0 -265 -10 -269 -750 -297 -412 -16 -749 6 -748 50 3 172 166 293 568 422 231 75 443 197 472 271 66 174 109 171 301 -21z m-8693 -442 c175 -74 148 -105 -225 -258 l-425 -173 0 -535 c0 -417 -48 -583 -219 -754 -141 -141 -233 -176 -258 -100 -22 66 -222 119 -451 119 -321 0 -385 27 -292 120 66 66 120 195 120 287 0 144 333 520 1072 1210 199 186 383 209 678 84z m6650 -337 c0 -127 -46 -70 -192 236 -112 236 -110 239 36 56 86 -107 156 -238 156 -292z m-8300 136 c0 -110 -45 -200 -100 -200 -55 0 -100 19 -100 42 0 23 -27 113 -61 200 -40 104 -5 158 100 158 94 0 161 -83 161 -200z m8700 -62 c0 -82 -45 -122 -100 -88 -55 34 -100 129 -100 212 0 82 45 122 100 88 55 -34 100 -129 100 -212z m-900 56 c0 -58 -45 -78 -100 -44 -55 34 -100 82 -100 106 0 24 45 44 100 44 55 0 100 -48 100 -106z m-15200 -250 c0 -24 -45 -44 -100 -44 -55 0 -100 48 -100 106 0 58 45 78 100 44 55 -34 100 -82 100 -106z m13828 -179 c177 -73 385 -210 462 -303 128 -154 116 -159 -139 -62 -400 152 -445 29 -91 -248 420 -329 612 -927 417 -1300 l-146 -278 -121 618 c-100 506 -198 697 -549 1062 -241 252 -518 446 -638 446 -116 0 -239 45 -273 100 -92 149 700 124 1078 -35z m1762 -290 c119 -434 120 -993 2 -920 -36 22 -93 210 -127 418 -33 207 -90 501 -125 652 -104 451 123 315 250 -150z m-9290 119 c0 -52 -45 -94 -100 -94 -55 0 -100 70 -100 156 0 86 45 128 100 94 55 -34 100 -104 100 -156z m9597 -144 c0 -55 -44 -32 -97 50 -53 82 -97 195 -97 250 0 55 44 32 97 -50 53 -82 97 -195 97 -250z m-16012 65 c312 -312 56 -1215 -345 -1215 -233 0 -264 211 -62 432 273 299 365 646 218 823 -174 209 -30 179 189 -40z m885 -179 c-134 -133 381 -669 852 -887 300 -139 447 -256 376 -300 -65 -40 -228 -13 -364 60 -206 110 -261 109 -330 -3 -47 -76 -156 -107 -250 -71 -92 35 -136 113 -99 173 37 60 -84 252 -269 427 -303 285 -321 333 -186 482 83 92 191 170 242 175 50 4 63 -21 28 -56z m15787 -449 c170 -330 181 -422 37 -333 -59 36 -150 180 -203 320 -133 351 -220 218 -249 -382 -27 -549 -70 -648 -235 -546 -156 96 -131 591 55 1054 134 335 187 384 306 285 80 -66 210 -245 289 -398z m-6366 -432 c67 -495 57 -555 -82 -494 -144 63 -382 102 -809 134 -110 8 -96 42 50 126 248 142 427 357 556 668 135 323 195 231 285 -434z m1709 345 c0 -55 -45 -100 -100 -100 -55 0 -100 45 -100 100 0 55 45 100 100 100 55 0 100 -45 100 -100z m-11525 -868 c-77 -77 -215 -110 -307 -75 -179 69 -232 243 -74 243 52 0 176 139 275 308 l181 308 32 -322 c19 -183 -28 -383 -107 -462z m11275 668 c34 -55 -8 -100 -94 -100 -86 0 -156 45 -156 100 0 55 42 100 94 100 52 0 122 -45 156 -100z m5450 -963 c0 -42 -157 76 -350 263 -192 187 -350 369 -350 406 0 37 158 -81 350 -262 193 -182 350 -365 350 -407z m-5509 -404 c-156 -291 -265 -288 -634 14 l-294 240 259 65 c143 36 365 178 494 316 l234 251 33 -327 c18 -180 -24 -431 -92 -559z m-8680 386 c241 -210 642 -475 889 -590 490 -227 1625 -1171 1527 -1269 -137 -137 -341 -38 -708 345 -214 222 -520 481 -680 575 -901 528 -1639 1060 -1639 1181 0 221 141 165 611 -242z m12189 111 c0 -186 -32 -238 -103 -167 -57 57 -75 179 -40 270 93 242 143 205 143 -103z m-13930 4 c43 -111 -30 -240 -218 -390 -182 -145 -259 -281 -220 -384 86 -223 204 -201 569 106 232 196 304 328 271 500 -53 278 -38 282 282 72 296 -194 324 -382 46 -309 -219 57 -260 -29 -93 -196 76 -76 29 -169 -163 -320 -149 -117 -332 -213 -407 -213 -162 0 -182 -161 -31 -254 191 -118 619 60 919 381 l295 315 497 -521 c273 -286 539 -521 590 -521 51 0 93 -67 93 -150 0 -82 -21 -150 -47 -150 -114 0 -753 634 -753 748 0 182 -270 382 -404 299 -82 -50 -83 -100 -5 -178 60 -60 109 -147 109 -194 0 -149 -639 -359 -925 -304 -385 73 -343 -53 75 -227 309 -129 393 -129 712 5 468 195 538 190 538 -37 0 -297 -242 -432 -642 -357 -392 74 -429 11 -242 -400 136 -299 206 -311 538 -93 135 88 246 126 246 84 0 -152 400 289 403 444 3 132 29 126 149 -33 129 -169 128 -213 -3 -358 -82 -91 -149 -220 -149 -289 0 -76 -73 -100 -192 -63 -198 63 -351 -84 -355 -344 -2 -94 -118 -152 -326 -163 -299 -15 -342 24 -573 530 -138 301 -381 712 -539 914 -159 201 -319 463 -355 582 -37 119 -200 366 -362 550 -347 394 -371 547 -98 634 110 35 247 150 304 257 126 237 380 252 466 27z m-1470 -221 c0 -48 180 -313 400 -589 433 -544 468 -624 272 -624 -71 0 -179 135 -241 300 -119 315 -331 409 -331 147 0 -84 74 -182 164 -216 149 -57 147 -76 -17 -195 -171 -126 -171 -143 -10 -322 157 -173 158 -195 9 -252 -319 -122 -76 -312 462 -362 393 -36 542 -91 542 -200 0 -94 -74 -138 -200 -117 -110 18 -347 57 -527 86 -180 30 -383 130 -450 224 -68 93 -205 201 -304 238 -100 37 -154 113 -119 168 34 56 -3 101 -83 101 -178 0 -280 679 -118 781 61 38 167 260 235 494 68 234 167 425 220 425 53 0 96 -39 96 -87z m-2125 -238 c-23 -69 -126 -141 -230 -162 -163 -31 -171 -14 -55 125 159 192 344 215 285 37z m19221 -525 c2 -55 -108 35 -243 200 -135 165 -247 345 -249 400 -2 55 108 -35 243 -200 135 -165 247 -345 249 -400z m-18396 94 c0 -86 -46 -128 -102 -93 -56 35 -75 105 -44 156 86 139 146 113 146 -63z m18975 31 c-47 -142 -208 -126 -258 25 -19 55 41 100 133 100 92 0 148 -56 125 -125z m-725 -625 c186 -75 187 -84 18 -124 -101 -24 -270 35 -375 131 -241 217 -257 429 -18 224 96 -83 265 -187 375 -231z m-5425 -112 c236 -83 222 -238 -21 -238 -109 0 -248 95 -310 212 -91 169 -87 199 21 150 74 -34 214 -90 310 -124z m-12925 -500 c0 -132 -312 -2 -404 169 -108 202 -105 203 147 39 141 -93 257 -186 257 -208z m6298 -136 c335 -239 448 -682 234 -921 -83 -92 -122 -216 -86 -274 36 -58 -71 -252 -237 -430 -280 -298 -326 -314 -605 -209 -410 155 -520 -36 -169 -292 334 -243 242 -450 -100 -225 -413 270 -514 107 -146 -238 186 -176 309 -348 273 -384 -36 -36 -119 -12 -184 53 -196 196 -400 144 -328 -83 47 -148 7 -221 -152 -280 -195 -72 -200 -93 -54 -214 147 -122 147 -149 4 -307 -143 -159 -143 -189 5 -336 146 -147 147 -168 4 -223 -409 -157 135 -536 774 -538 99 -1 153 -46 119 -101 -34 -55 -239 -100 -456 -100 -408 0 -480 -74 -274 -280 201 -201 556 -135 902 168 l328 289 175 -232 c215 -285 225 -532 25 -609 -170 -65 -207 -436 -43 -436 58 0 190 45 292 100 137 73 268 52 493 -75 333 -190 415 -369 133 -289 -96 27 -400 78 -675 114 -275 35 -612 125 -750 199 l-250 135 268 67 c320 80 628 394 535 544 -46 75 -149 64 -335 -36 -147 -79 -351 -170 -453 -202 -118 -37 -164 -116 -126 -214 113 -294 -365 -37 -812 437 -399 422 -476 580 -434 896 9 70 -53 153 -138 186 -219 84 -192 238 41 238 109 0 245 90 304 200 91 170 76 200 -99 200 -383 0 -506 732 -284 1692 85 366 165 508 288 508 94 0 227 68 295 150 68 83 203 150 300 150 97 0 232 68 300 150 68 83 271 150 451 150 372 0 501 251 342 667 -183 483 -116 534 305 235z m1508 -45 c-68 -82 -94 -195 -59 -253 97 -156 451 -125 517 46 83 216 236 185 236 -48 0 -108 -112 -271 -249 -361 -313 -205 -220 -380 161 -304 356 72 373 -77 33 -299 -217 -142 -290 -148 -500 -36 -135 73 -245 161 -245 196 0 35 -79 154 -175 263 -96 110 -231 298 -300 418 -219 383 -124 680 135 421 68 -68 165 -54 295 41 234 171 322 122 151 -84z m7465 84 c177 -27 353 -99 391 -160 49 -80 -111 -91 -572 -39 -1116 127 -1818 76 -2006 -146 -220 -259 -266 -247 -208 55 32 171 132 270 311 309 145 32 308 73 363 91 111 37 1219 -34 1721 -110z m-2874 -549 c-67 -161 -162 -292 -212 -292 -49 0 -21 133 62 295 84 162 158 376 165 475 11 170 14 170 58 -3 26 -101 -7 -314 -73 -475z m3812 103 c108 -58 172 -145 142 -194 -30 -49 20 -131 113 -183 113 -63 -173 -92 -873 -88 -573 3 -1198 -28 -1391 -69 -257 -55 -310 -47 -200 30 82 58 251 107 375 107 141 1 225 63 225 166 0 137 -78 154 -475 107 -261 -31 -565 -91 -675 -133 -174 -66 -183 -55 -69 86 108 132 279 153 950 115 1316 -74 1408 -71 1448 48 47 141 177 143 430 8z m1337 -444 c382 -145 1056 -326 1498 -403 866 -151 1056 -289 1056 -767 0 -324 -73 -354 -261 -106 -168 221 -187 1 -26 -300 98 -183 72 -250 -194 -487 -277 -247 -341 -264 -638 -168 -662 215 -781 278 -781 415 0 77 -298 291 -662 477 -364 186 -684 394 -710 463 -34 85 -171 104 -439 62 -270 -44 -389 -26 -389 57 0 176 -449 83 -455 -94 -2 -82 -54 -140 -115 -128 -61 12 -498 31 -970 42 l-860 20 -365 -365 c-200 -201 -493 -422 -650 -492 -314 -139 -371 -323 -128 -416 167 -64 479 65 768 317 157 138 175 137 175 -7 0 -87 -45 -187 -100 -221 -155 -96 -118 -450 46 -450 81 0 199 101 263 225 64 124 205 322 313 441 135 149 175 285 128 435 -56 176 -34 210 115 181 141 -27 177 -107 150 -334 -20 -164 -75 -372 -123 -462 -60 -112 -38 -206 68 -294 192 -160 291 -36 463 584 152 543 318 493 357 -107 32 -484 -125 -763 -505 -900 -296 -106 -211 -369 119 -369 314 0 606 300 606 622 0 98 48 178 107 178 122 0 59 -249 -219 -870 -204 -454 -245 -830 -92 -830 54 0 145 90 204 200 123 230 322 274 237 53 -84 -219 -937 -753 -1204 -753 -284 0 -307 -163 -36 -249 494 -157 1348 339 1774 1030 182 296 232 328 287 185 39 -102 -1 -247 -96 -353 -202 -223 -207 -603 -13 -977 163 -312 187 -870 51 -1186 -97 -227 -130 -133 -102 289 24 353 -266 1028 -478 1108 -161 63 -316 -100 -318 -334 -2 -109 28 -113 144 -16 120 99 157 75 211 -140 36 -143 42 -383 14 -533 -64 -333 78 -624 304 -624 154 0 154 -14 -7 -175 -145 -144 -190 -151 -260 -37 -47 76 -136 106 -198 68 -62 -38 -90 -107 -62 -153 85 -137 -512 -703 -742 -703 -117 0 -313 -64 -435 -142 -323 -208 -1259 -353 -1721 -266 -456 85 -951 320 -1432 680 -309 232 -320 258 -150 374 100 69 380 150 622 182 465 60 779 338 1019 902 73 170 173 260 255 228 75 -28 136 -8 136 45 0 53 -45 97 -100 97 -55 0 -101 214 -103 475 -4 580 -274 1053 -932 1632 -471 415 -800 984 -708 1225 71 186 623 378 671 234 61 -184 587 101 551 299 -39 219 1251 931 1691 933 176 1 553 52 837 113 546 117 1124 46 2335 -285 444 -122 544 -179 400 -232 -174 -63 -166 -82 83 -198 332 -155 405 -102 322 232 -63 250 -454 453 -1192 619 -222 50 -260 88 -153 154 154 95 147 109 -152 291 -200 122 -200 122 0 71 110 -27 513 -168 896 -312z m-8169 -32 c22 -66 -32 -119 -119 -119 -87 0 -158 71 -158 158 0 177 215 146 277 -39z m11711 -110 c107 -67 86 -104 -95 -161 -129 -41 -295 -136 -370 -211 -178 -178 -323 -175 -323 7 0 151 369 457 547 454 57 0 165 -40 241 -89z m-7988 -108 c0 -80 -424 -287 -832 -408 l-282 -83 282 277 c254 251 832 399 832 214z m-4050 -401 c-34 -55 -138 -99 -231 -98 -146 1 -148 14 -19 98 196 127 328 127 250 0z m-5856 -437 c-24 -24 -129 76 -233 222 l-190 265 234 -222 c129 -122 214 -242 189 -265z m4450 131 l426 -306 -156 -344 c-93 -206 -228 -344 -335 -344 -125 0 -179 -76 -179 -253 0 -351 259 -938 445 -1009 85 -33 155 -116 155 -186 0 -143 436 -252 1007 -252 209 0 412 -49 449 -110 37 -60 220 -91 406 -70 435 51 282 -109 -212 -220 -500 -113 -1238 15 -1685 291 -378 233 -476 345 -215 245 83 -31 150 -13 150 42 0 55 -151 128 -336 163 -677 127 -915 667 -767 1734 150 1078 179 1099 847 619z m3606 175 c605 -2 654 -14 358 -93 -188 -50 -424 -69 -525 -43 -270 71 -318 -97 -76 -267 208 -145 208 -148 10 -211 -314 -99 -717 41 -717 250 0 101 -45 211 -100 245 -194 120 -101 264 125 192 124 -39 540 -72 925 -73z m9589 -219 c61 -110 167 -236 236 -280 135 -86 173 -370 50 -370 -157 2 -611 460 -676 684 -55 188 -34 228 106 200 95 -19 223 -124 284 -234z m1361 -51 c0 -154 -450 -192 -592 -49 -125 124 -112 155 99 235 235 89 493 -8 493 -186z m800 -6 c0 -64 -71 -62 -200 7 -110 59 -200 152 -200 207 0 64 71 62 200 -7 110 -59 200 -152 200 -207z m-23357 -91 c308 -116 343 -449 64 -598 -317 -170 -658 -119 -895 133 -206 220 -211 250 -60 400 184 185 515 209 891 65z m2657 4 c0 -174 -198 -219 -660 -149 -312 46 -417 96 -325 154 183 117 985 112 985 -5z m4060 -279 c-101 -102 -185 51 -102 186 63 102 87 102 121 1 23 -70 15 -154 -19 -187z m15940 -223 c0 -187 -265 -404 -493 -404 -198 0 -109 352 118 464 330 164 375 156 375 -60z m-13913 -38 c132 -159 50 -266 -204 -266 -179 0 -249 201 -116 333 101 101 197 81 320 -67z m2146 -183 c137 -174 225 -376 197 -450 -64 -166 -230 -175 -230 -13 0 66 -144 269 -320 450 -293 303 -302 330 -107 330 120 0 321 -138 460 -317z m-8250 -130 c347 -189 205 -187 -732 6 -423 88 -855 137 -960 110 -105 -28 -220 -2 -257 56 -97 159 1620 6 1949 -172z m14217 -109 c0 -79 -45 -144 -100 -144 -55 0 -100 93 -100 206 0 113 45 178 100 144 55 -34 100 -127 100 -206z m619 188 c-72 -29 -159 -26 -192 8 -33 33 26 56 131 52 117 -5 141 -28 61 -60z m3581 -15 c0 -135 -494 -557 -567 -484 -37 37 38 180 167 317 237 252 400 320 400 167z m-11090 -347 c-128 -128 -258 -29 -163 125 37 60 113 80 169 45 68 -42 66 -98 -6 -170z m11690 118 c0 -136 -699 -788 -845 -787 -58 0 98 199 345 442 514 503 500 494 500 345z m-15150 -188 c0 -73 -67 -148 -150 -167 -99 -22 -106 -13 -21 27 106 49 106 88 0 216 -108 131 -104 148 21 107 83 -27 150 -110 150 -183z m3910 -343 c-92 -195 -253 -400 -357 -456 -291 -155 -1040 -122 -1259 57 -179 146 -180 154 -10 100 457 -145 639 -142 966 20 196 96 416 312 500 490 86 182 188 280 239 230 52 -50 19 -234 -79 -441z m5800 170 c-33 -33 -56 26 -52 131 5 117 28 141 60 61 29 -72 26 -159 -8 -192z m-16268 9 c23 -20 -34 -36 -125 -36 -92 0 -167 -40 -167 -88 0 -187 -402 -194 -501 -10 -55 102 -99 211 -99 243 0 58 814 -41 892 -109z m5733 22 c14 -50 -31 -110 -100 -133 -69 -23 -125 33 -125 125 0 169 179 176 225 8z m-4533 -122 c23 -20 -214 -36 -525 -36 -324 0 -567 44 -567 103 0 94 977 34 1092 -67z m758 64 c37 -59 -74 -99 -269 -98 -251 1 -295 25 -181 98 194 126 372 126 450 0z m6650 -266 c0 -20 -90 21 -200 89 -110 69 -200 166 -200 217 0 50 90 10 200 -90 110 -100 200 -197 200 -216z m11750 266 c-34 -55 -82 -100 -106 -100 -24 0 -44 45 -44 100 0 55 48 100 106 100 58 0 78 -45 44 -100z m-2566 -346 c-58 -125 -165 -223 -238 -216 -74 7 -126 -33 -115 -88 10 -55 42 -93 69 -84 28 9 145 -226 261 -522 116 -296 175 -516 131 -489 -160 99 -12 -950 157 -1119 120 -119 152 -258 108 -474 -108 -542 -257 -543 -257 -2 0 275 -52 552 -116 616 -63 63 -119 409 -125 768 -6 423 -53 670 -134 701 -69 27 -125 118 -125 202 0 86 -87 153 -200 153 -156 0 -200 67 -200 300 0 200 50 300 150 300 83 0 150 42 150 93 0 107 294 189 469 130 87 -29 91 -101 15 -269z m1391 22 c196 -157 150 -248 -182 -364 -239 -83 -300 -157 -275 -333 26 -184 118 -242 482 -303 248 -42 630 -113 850 -159 l400 -83 -400 -104 c-220 -57 -616 -93 -880 -78 -440 23 -478 7 -450 -188 23 -166 93 -210 310 -194 245 17 272 -8 213 -200 -163 -533 -261 -498 -710 251 -538 900 -553 1274 -58 1415 330 94 455 364 169 364 -86 0 -127 47 -91 104 68 110 413 39 622 -128z m-8151 -127 c-26 -139 -88 -276 -136 -306 -102 -63 -121 390 -21 490 137 137 204 59 157 -184z m9136 40 c104 -117 294 -252 421 -300 259 -99 207 -289 -78 -289 -181 0 -703 525 -703 708 0 156 159 103 360 -119z m-14460 11 c0 -55 -45 -100 -100 -100 -55 0 -100 45 -100 100 0 55 45 100 100 100 55 0 100 -45 100 -100z m1251 -102 c177 -195 177 -206 -9 -346 -230 -174 -310 -185 -392 -52 -34 55 -14 100 44 100 58 0 106 68 106 150 0 83 -79 151 -175 152 -150 1 -153 15 -25 98 209 135 245 127 451 -102z m-6925 32 c-123 -24 -348 -25 -500 -2 -152 23 -51 43 224 43 275 1 399 -18 276 -41z m16074 -180 c0 -82 -44 -150 -97 -150 -53 0 -71 68 -39 150 31 83 75 150 97 150 21 0 39 -67 39 -150z m-12681 -18 c-72 -29 -159 -26 -192 8 -33 33 26 56 131 52 117 -5 141 -28 61 -60z m6937 -290 c-187 -136 -456 -193 -456 -95 0 78 546 339 600 286 27 -27 -38 -113 -144 -191z m-7852 4 c208 -252 -19 -395 -411 -258 -427 148 -593 141 -593 -26 0 -104 -114 -125 -475 -88 -695 73 -767 226 -107 226 374 0 599 49 682 150 162 196 740 193 904 -4z m20041 -365 c142 -121 -94 -100 -390 35 -140 64 -255 153 -255 198 0 84 474 -88 645 -233z m-896 20 c35 -57 -5 -73 -94 -39 -173 66 -205 138 -61 138 52 0 122 -44 155 -99z m-14549 -162 c0 -121 61 -145 250 -98 217 55 250 30 250 -189 0 -255 136 -337 251 -150 69 111 249 38 249 -101 0 -48 -72 -159 -160 -247 -218 -217 -11 -499 261 -354 149 80 171 63 128 -102 -84 -319 -267 -234 -816 377 -284 316 -613 676 -731 800 l-214 225 266 0 c178 0 266 -53 266 -161z m4336 -137 c-82 -164 -183 -319 -225 -345 -42 -26 -501 -69 -1019 -95 l-942 -47 664 117 c400 71 818 223 1050 383 529 363 658 359 472 -13z m9650 109 c82 -52 96 -110 36 -147 -55 -34 -155 5 -223 87 -135 163 -29 197 187 60z m-3809 -192 c60 -180 -147 -142 -216 39 -38 98 -15 143 58 119 65 -22 136 -93 158 -158z m-8811 -544 c-28 -69 -50 -12 -50 125 0 138 22 194 50 125 28 -69 28 -181 0 -250z m13277 135 c185 -72 186 -78 7 -146 -115 -44 -244 -13 -339 82 -131 132 -133 153 -7 147 80 -4 233 -41 339 -83z m-8808 -86 c66 -107 -366 -1097 -565 -1297 -288 -288 -269 -88 36 365 162 241 294 566 294 723 0 266 129 381 235 209z m5545 -377 c273 -562 280 -1087 20 -1597 -110 -216 -176 -468 -147 -561 40 -125 -79 -234 -469 -428 -594 -296 -1097 -336 -1292 -102 -118 143 -85 152 325 91 791 -119 1007 74 1494 1330 130 336 109 847 -45 1073 -163 239 -274 647 -177 647 39 0 170 -204 291 -453z m2434 256 l236 -196 -342 -4 c-188 -2 -312 27 -276 63 37 36 16 126 -45 200 -179 216 151 168 427 -63z m-18575 -105 c145 -141 -446 -242 -654 -112 -119 74 -391 93 -760 52 -394 -43 -543 -31 -475 40 55 56 190 119 299 139 336 60 1495 -26 1590 -119z m773 -108 c-124 -116 -256 -179 -293 -142 -38 38 19 132 125 210 299 218 422 168 168 -68z m7728 10 c-53 -53 -252 -122 -443 -154 l-347 -58 399 198 c394 196 579 202 391 14z m1252 -359 c-125 -133 -298 -240 -384 -238 -133 3 -130 19 17 105 96 56 251 246 345 422 137 258 177 285 209 136 22 -101 -63 -292 -187 -425z m5292 284 c228 -575 234 -781 31 -1031 -109 -134 -232 -209 -275 -167 -42 42 -23 130 42 195 164 164 148 631 -35 983 -128 248 -130 295 -12 295 78 0 190 -124 249 -275z m-5784 -59 c0 -74 -115 -186 -256 -251 -184 -83 -247 -180 -225 -341 27 -198 -18 -228 -394 -255 -251 -18 -425 13 -425 75 0 58 90 106 200 106 110 0 385 180 612 400 455 442 488 460 488 266z m-1650 -341 c191 -106 187 -116 -82 -218 -358 -136 -837 -138 -920 -3 -42 67 26 81 194 39 225 -56 258 -33 258 179 0 312 115 429 247 251 57 -75 193 -187 303 -248z m-8975 6 c-96 -25 -254 -25 -350 0 -96 25 -17 46 175 46 193 0 271 -21 175 -46z m1750 -297 c-69 -28 -181 -28 -250 0 -69 28 -12 50 125 50 138 0 194 -22 125 -50z m2525 -134 c34 -55 -28 -100 -138 -100 -110 0 -228 45 -262 100 -34 55 28 100 138 100 110 0 228 -45 262 -100z m-3500 -100 c78 -127 -54 -127 -250 0 -129 84 -127 97 19 98 93 1 197 -43 231 -98z m-1250 -200 c0 -125 -106 -125 -300 0 -121 78 -107 97 75 98 124 1 225 -43 225 -98z m22100 -56 c0 -86 -45 -128 -100 -94 -55 34 -100 104 -100 156 0 52 45 94 100 94 55 0 100 -70 100 -156z m-18442 -228 c-214 -42 -301 34 -209 182 49 80 113 75 225 -18 142 -117 140 -133 -16 -164z m2842 -52 c0 -198 -40 -229 -250 -188 -296 56 -309 107 -75 285 252 191 325 170 325 -97z m10350 -164 c-34 -55 -174 -100 -312 -100 -141 0 -223 44 -188 100 34 55 174 100 312 100 141 0 223 -44 188 -100z m-16050 -200 c-196 -127 -328 -127 -250 0 34 55 138 99 231 98 146 -1 148 -14 19 -98z m17682 -67 c-17 -91 -85 -184 -149 -205 -75 -25 -98 35 -63 166 63 245 259 281 212 39z m-13321 -97 c577 -68 845 -238 370 -234 -419 4 -1040 166 -1168 305 -87 94 -71 107 71 58 100 -36 428 -94 727 -129z m12095 74 c-98 -159 -598 -278 -856 -203 -211 62 -188 75 150 85 220 6 468 55 550 108 188 122 227 124 156 10z m-15337 -478 c-72 -29 -159 -26 -192 8 -33 33 26 56 131 52 117 -5 141 -28 61 -60z m16957 -57 c-49 -149 -524 -221 -759 -115 -126 56 -81 91 183 144 546 109 620 105 576 -29z m-16126 -75 c74 -119 -122 -119 -400 0 -179 77 -171 87 69 93 148 4 297 -38 331 -93z m3950 -206 c0 -52 -157 -94 -350 -94 -414 0 -472 171 -75 222 314 40 425 7 425 -128z m11290 -32 c90 -109 67 -150 -109 -196 -266 -70 -326 -26 -246 180 73 191 205 197 355 16z m-16640 -62 c-34 -55 -82 -100 -106 -100 -24 0 -44 45 -44 100 0 55 48 100 106 100 58 0 78 -45 44 -100z m17615 -246 c-77 -202 -665 -211 -665 -10 0 88 124 156 325 176 395 39 415 29 340 -166z m-1565 -54 c0 -55 -45 -100 -100 -100 -55 0 -100 45 -100 100 0 55 45 100 100 100 55 0 100 -45 100 -100z m2059 -484 c-145 -145 -159 -144 -159 14 0 95 56 264 125 375 124 202 125 201 159 -14 18 -119 -38 -288 -125 -375z m-16759 378 c0 -58 -45 -78 -100 -44 -55 34 -100 82 -100 106 0 24 45 44 100 44 55 0 100 -48 100 -106z m13400 -185 c0 -138 -524 -909 -618 -909 -123 0 -102 95 127 568 184 380 491 593 491 341z m2425 -77 c402 -62 457 -139 235 -324 -160 -132 -589 -55 -934 169 -269 174 -191 367 110 277 118 -36 383 -91 589 -122z m-15206 -100 c-72 -29 -159 -26 -192 8 -33 33 26 56 131 52 117 -5 141 -28 61 -60z m1600 0 c-72 -29 -159 -26 -192 8 -33 33 26 56 131 52 117 -5 141 -28 61 -60z m7931 -32 c37 -60 -72 -96 -269 -90 -311 9 -316 15 -81 90 138 44 259 85 269 90 11 6 47 -35 81 -90z m-1561 -45 c-107 -107 -1573 -162 -1635 -61 -45 72 218 106 807 106 480 0 852 -20 828 -45z m-3947 -342 c60 -97 -914 -74 -1013 24 -34 35 168 63 448 63 281 0 535 -39 565 -87z m-2442 -107 c0 -52 -45 -122 -100 -156 -55 -34 -100 8 -100 94 0 86 45 156 100 156 55 0 100 -42 100 -94z m-1181 -174 c-72 -29 -159 -26 -192 8 -33 33 26 56 131 52 117 -5 141 -28 61 -60z m16181 -138 c0 -113 -45 -178 -100 -144 -55 34 -100 127 -100 206 0 79 45 144 100 144 55 0 100 -93 100 -206z m-6900 6 c0 -55 -48 -100 -106 -100 -58 0 -78 45 -44 100 34 55 82 100 106 100 24 0 44 -45 44 -100z m9500 -244 c0 -79 -45 -172 -100 -206 -55 -34 -100 31 -100 144 0 113 45 206 100 206 55 0 100 -65 100 -144z"/>
<path d="M7600 9450 c0 -82 45 -150 100 -150 55 0 100 68 100 150 0 83 -45 150 -100 150 -55 0 -100 -67 -100 -150z"/>
<path d="M20300 9345 c0 -86 131 -201 292 -257 346 -121 483 -388 262 -512 -219 -122 -191 -208 116 -351 215 -99 285 -99 348 0 236 372 -38 897 -587 1126 -437 183 -431 183 -431 -6z"/>
<path d="M20022 8785 c52 -157 270 -182 296 -35 10 55 -63 116 -162 135 -115 22 -163 -14 -134 -100z"/>
<path d="M20500 8700 c0 -55 45 -100 100 -100 55 0 100 45 100 100 0 55 -45 100 -100 100 -55 0 -100 -45 -100 -100z"/>
<path d="M13900 7606 c0 -52 45 -122 100 -156 55 -34 100 8 100 94 0 86 -45 156 -100 156 -55 0 -100 -42 -100 -94z"/>
<path d="M15100 7142 c0 -177 215 -146 277 39 22 66 -32 119 -119 119 -87 0 -158 -71 -158 -158z"/>
<path d="M15800 6850 c0 -247 135 -335 244 -159 73 117 -38 409 -155 409 -49 0 -89 -112 -89 -250z"/>
<path d="M14500 6750 c0 -82 40 -150 89 -150 49 0 116 68 147 150 35 91 0 150 -89 150 -81 0 -147 -67 -147 -150z"/>
<path d="M16458 6613 c-43 -69 -51 -153 -18 -186 89 -90 187 42 139 187 -34 101 -58 101 -121 -1z"/>
<path d="M15098 6108 c46 -161 71 -308 56 -325 -15 -18 -58 -202 -95 -408 -61 -333 -45 -375 136 -375 183 0 205 62 205 580 0 524 -113 820 -313 820 -40 0 -35 -132 11 -292z"/>
<path d="M15645 6271 c-84 -216 -17 -300 202 -255 145 30 147 56 15 234 -139 188 -152 189 -217 21z"/>
<path d="M16400 6039 c0 -105 54 -140 158 -100 87 34 188 62 225 63 90 2 -212 195 -308 196 -41 1 -75 -70 -75 -159z"/>
<path d="M16700 4850 c0 -82 41 -150 91 -150 49 0 65 -97 34 -216 -42 -160 -23 -194 74 -135 101 63 114 15 59 -209 -100 -411 -374 -651 -836 -736 l-400 -73 239 449 c286 539 323 1051 72 1002 -99 -19 -182 -153 -205 -332 -50 -379 -439 -965 -600 -904 -68 25 -158 -9 -200 -75 -102 -159 -828 -493 -828 -382 0 48 69 144 154 215 264 218 9 300 -382 123 -400 -181 -499 -427 -172 -427 110 0 189 -54 175 -119 -33 -156 977 -314 1209 -190 106 57 239 54 351 -8 180 -101 494 77 697 395 53 83 194 108 400 70 308 -57 325 -41 541 495 171 423 201 613 128 805 -53 139 -142 252 -199 252 -56 0 -102 68 -102 150 0 83 -67 150 -150 150 -82 0 -150 -67 -150 -150z"/>
<path d="M14968 4320 c-239 -265 -208 -420 85 -420 303 0 432 258 229 461 -127 127 -166 122 -314 -41z"/>
<path d="M16350 4199 c-35 -55 10 -128 98 -162 191 -74 298 7 206 156 -83 135 -223 137 -304 6z"/>
<path d="M8727 22940 c33 -34 120 -37 192 -8 80 32 56 55 -61 60 -105 4 -164 -19 -131 -52z"/>
<path d="M13699 21422 c-1 -95 -31 -284 -66 -422 -64 -249 -64 -249 151 -60 250 221 283 513 66 596 -97 37 -150 -3 -151 -114z"/>
<path d="M0 20365 c0 -74 169 -207 375 -294 405 -173 1025 -317 1025 -238 0 44 -1271 667 -1361 667 -22 0 -39 -61 -39 -135z"/>
<path d="M20737 19680 c-34 -56 67 -212 225 -346 266 -225 270 -239 56 -180 -230 63 -231 61 -73 -245 88 -170 199 -309 246 -309 89 0 809 -1153 809 -1296 0 -45 67 -210 149 -368 191 -364 191 -536 1 -536 -114 0 -99 -51 63 -213 180 -180 204 -292 159 -733 -30 -287 -23 -572 15 -634 105 -169 794 -432 859 -327 66 108 -413 507 -609 507 -76 0 -137 44 -137 98 0 55 131 71 300 37 342 -68 434 149 100 236 -110 29 -200 115 -200 191 0 191 129 173 427 -62 140 -110 292 -200 339 -200 141 -1 760 -407 705 -463 -29 -28 -189 19 -356 105 -409 212 -515 23 -168 -298 177 -164 246 -308 207 -432 -45 -140 16 -217 247 -313 169 -69 289 -176 267 -238 -56 -157 317 -661 489 -661 223 0 173 411 -57 471 -110 29 -200 95 -200 147 0 53 90 67 200 32 139 -44 200 -18 200 86 0 81 -158 201 -351 264 -410 136 -359 347 63 263 l288 -58 0 1389 0 1389 -275 205 c-151 113 -221 207 -156 209 66 2 147 -42 181 -97 134 -217 248 -81 234 282 -15 363 -45 397 -625 685 -335 167 -811 383 -1059 479 -247 97 -574 241 -725 320 -325 172 -370 27 -86 -277 104 -112 215 -334 247 -495 32 -160 150 -369 261 -465 112 -95 203 -212 203 -259 0 -47 126 -211 279 -365 155 -155 360 -541 461 -867 99 -323 241 -712 316 -863 74 -151 103 -274 64 -273 -121 4 -493 341 -550 498 -33 92 -57 55 -62 -94 l-8 -243 -275 262 c-151 144 -399 309 -550 366 -151 57 -275 173 -275 257 0 210 95 192 521 -98 391 -265 628 -314 729 -150 34 55 -21 100 -122 100 -249 0 -628 277 -628 460 0 114 49 102 217 -54 171 -160 247 -177 359 -85 120 100 111 129 -57 191 -108 41 -269 176 -357 302 -88 125 -371 344 -629 486 -258 142 -487 312 -509 379 -66 198 128 138 417 -129 290 -269 413 -306 507 -153 33 53 -32 154 -144 224 -112 70 -204 169 -204 219 0 270 -357 860 -519 860 -100 0 -181 46 -181 102 0 57 -110 145 -245 196 -134 51 -316 203 -404 337 -176 269 -515 404 -614 245z m1219 -1022 c106 -78 166 -169 133 -203 -87 -87 -589 120 -589 243 0 146 229 126 456 -40z m2044 -977 c0 -131 -227 -49 -277 100 -24 73 21 96 119 58 87 -33 158 -104 158 -158z m-1275 -675 c151 -76 275 -183 275 -239 0 -55 -28 -72 -63 -37 -35 35 -148 18 -251 -38 -155 -83 -205 -55 -287 160 -119 313 -123 377 -24 328 41 -20 199 -98 350 -174z m2127 -2488 c-19 -19 -127 15 -240 75 -130 70 -182 168 -143 271 52 136 89 124 240 -75 97 -130 162 -252 143 -271z"/>
<path d="M0 19107 c0 -279 39 -507 87 -507 47 0 208 96 357 213 350 276 476 138 310 -339 -72 -207 -100 -395 -63 -419 134 -82 356 140 466 465 61 182 190 345 287 364 150 30 165 -13 104 -294 -40 -181 -140 -397 -224 -480 -108 -108 -117 -162 -32 -191 171 -57 512 276 673 656 76 179 182 325 236 325 158 0 114 -373 -51 -436 -173 -67 -185 -153 -52 -364 84 -132 114 -131 256 11 88 88 198 324 243 523 76 339 59 377 -242 563 -220 136 -483 197 -818 189 -452 -10 -902 49 -1362 178 -150 42 -175 -23 -175 -457z"/>
<path d="M2744 18718 c32 -101 -14 -327 -102 -504 -219 -439 -126 -635 282 -595 255 24 359 101 476 354 83 177 184 324 225 325 131 4 81 -296 -95 -564 -164 -251 -162 -266 61 -447 323 -262 575 -237 650 63 35 138 107 250 161 250 136 0 123 -68 -63 -353 -183 -279 -125 -547 119 -547 123 0 149 -60 104 -240 -89 -352 175 -400 535 -97 261 220 303 230 303 77 0 -97 -91 -275 -203 -394 -181 -192 -187 -230 -50 -343 84 -70 153 -183 153 -250 0 -181 337 -453 561 -453 107 0 306 -78 442 -173 136 -95 251 -152 255 -125 4 26 174 -41 376 -151 217 -116 349 -252 319 -328 -76 -200 233 -267 426 -92 132 119 217 130 371 47 289 -155 290 -159 156 -321 -68 -82 -94 -195 -59 -253 112 -180 342 -114 513 148 130 197 195 227 303 138 111 -93 136 -60 131 173 -8 344 -495 734 -1524 1220 -735 348 -1179 433 -820 157 190 -146 185 -150 -100 -82 -662 158 -697 190 -708 643 -7 298 -68 471 -201 569 -105 78 -175 217 -156 311 18 93 0 136 -41 95 -121 -119 -344 127 -344 378 0 303 -548 730 -1523 1186 -872 409 -1015 436 -933 178z m406 -418 c-34 -55 -82 -100 -106 -100 -24 0 -44 45 -44 100 0 55 48 100 106 100 58 0 78 -45 44 -100z m1048 -175 c0 -41 -45 -142 -98 -225 -78 -121 -97 -107 -98 75 -1 124 43 225 98 225 55 0 99 -34 98 -75z m3002 -3325 c83 -53 105 -97 50 -97 -55 0 -167 44 -250 97 -82 53 -105 97 -50 97 55 0 168 -44 250 -97z m1177 -281 c22 -66 -32 -119 -119 -119 -87 0 -158 71 -158 158 0 177 215 146 277 -39z"/>
<path d="M1858 17636 c-34 -91 -41 -186 -15 -213 93 -93 357 73 357 224 0 205 -262 196 -342 -11z"/>
<path d="M3346 16693 c-36 -58 -41 -131 -10 -162 82 -82 364 46 364 166 0 136 -270 133 -354 -4z"/>
<path d="M4125 16328 c-172 -61 -158 -228 19 -228 166 0 297 165 183 230 -43 23 -133 23 -202 -2z"/>
<path d="M16700 16266 c0 -86 619 -366 809 -366 99 0 207 -45 241 -100 34 -55 103 -100 153 -100 137 0 17 240 -184 365 -194 121 -1019 284 -1019 201z"/>
<path d="M6400 14000 c0 -55 42 -100 94 -100 52 0 122 45 156 100 34 55 -8 100 -94 100 -86 0 -156 -45 -156 -100z"/>
<path d="M7700 13800 c0 -55 42 -100 94 -100 52 0 122 45 156 100 34 55 -8 100 -94 100 -86 0 -156 -45 -156 -100z"/>
<path d="M23667 13533 c-136 -136 -60 -233 183 -233 279 0 335 146 92 239 -196 75 -194 75 -275 -6z"/>
<path d="M24025 12934 c-174 -70 -157 -234 25 -234 83 0 150 68 150 150 0 82 -11 146 -25 142 -14 -4 -81 -30 -150 -58z"/>
<path d="M10164 11950 c-35 -91 0 -150 89 -150 81 0 147 68 147 150 0 83 -40 150 -89 150 -49 0 -116 -67 -147 -150z"/>
<path d="M23120 11915 c-178 -113 23 -267 455 -348 436 -83 444 172 10 323 -173 61 -319 109 -325 108 -5 0 -68 -38 -140 -83z"/>
<path d="M10900 11658 c0 -87 71 -158 158 -158 177 0 146 215 -39 277 -66 22 -119 -32 -119 -119z"/>
<path d="M11267 11133 c-112 -111 -75 -233 71 -233 76 0 193 -67 260 -148 96 -115 169 -123 329 -38 204 110 204 112 -36 296 -247 190 -506 241 -624 123z"/>
<path d="M21483 10844 c-149 -252 -241 -326 -317 -250 -163 163 -266 127 -266 -94 0 -154 67 -200 292 -200 241 0 303 51 356 292 35 160 129 316 208 347 165 63 196 261 41 261 -57 0 -198 -160 -314 -356z"/>
<path d="M12300 10700 c0 -55 90 -100 200 -100 110 0 200 45 200 100 0 55 -90 100 -200 100 -110 0 -200 -45 -200 -100z"/>
<path d="M19900 10700 c0 -55 70 -100 156 -100 86 0 128 45 94 100 -34 55 -104 100 -156 100 -52 0 -94 -45 -94 -100z"/>
<path d="M24854 5307 c-31 -51 -12 -121 44 -156 56 -35 102 7 102 93 0 176 -60 202 -146 63z"/>
<path d="M46 293 c-102 -165 -45 -181 858 -240 l846 -55 -400 199 c-431 213 -1197 270 -1304 96z"/>
</g>
</svg>