<svg xmlns="http://www.w3.org/2000/svg" version="1.0" width="250" height="250" viewBox="0 0 250.000000 250.000000" preserveAspectRatio="xMidYMid meet">
<metadata>
Created by potrace 1.10, written by Peter Selinger 2001-2011
</metadata>
<g transform="translate(0.000000,250.000000) scale(0.010000,-0.010000)" fill="#555555" stroke="none">
<path d="M0 12500 c0 -10548 22 -12500 138 -12500 116 0 139 1532 151 9675 7 5321 40 10946 72 12500 60 2824 60 2825 -150 2825 l-211 0 0 -12500z"/>
<path d="M1009 12731 c1 -6755 27 -12382 58 -12506 33 -135 131 -225 244 -225 168 0 189 80 189 707 0 672 10 703 210 640 184 -59 200 -38 133 168 -127 385 -104 635 57 635 99 0 161 -120 182 -350 34 -363 474 -939 639 -837 50 31 134 170 187 308 80 211 140 241 369 187 478 -113 551 -111 596 17 24 69 -21 125 -100 125 -79 0 -263 144 -408 319 -205 247 -265 428 -265 794 0 262 -52 507 -116 547 -85 52 -100 -126 -58 -684 43 -576 22 -806 -90 -966 -279 -398 -536 -211 -536 391 0 314 -332 507 -530 309 -228 -228 -270 -82 -258 915 6 564 33 935 59 825 89 -367 228 -415 442 -150 135 168 219 209 253 125 28 -69 114 -125 192 -125 178 0 194 620 24 892 -92 147 -91 284 5 605 123 411 387 521 339 142 -57 -456 106 -959 420 -1292 326 -345 554 -444 554 -241 0 59 -132 218 -293 354 -162 135 -345 401 -407 589 -96 291 -81 415 95 812 190 431 201 756 15 455 -49 -79 -174 -104 -330 -65 -215 54 -275 13 -421 -296 -93 -197 -212 -613 -262 -924 -102 -625 -250 -870 -357 -591 -37 95 -7 286 67 423 108 202 109 288 7 452 -72 114 -100 322 -65 480 48 217 21 290 -121 327 -254 66 -276 478 -26 478 105 0 440 93 745 207 522 196 584 199 1075 55 402 -118 540 -125 600 -32 139 214 276 -150 211 -562 -47 -297 -14 -445 153 -671 118 -159 214 -326 214 -371 0 -45 138 -232 306 -416 272 -298 348 -329 700 -282 217 29 394 17 394 -27 0 -102 -257 -201 -522 -201 -113 0 -261 -75 -328 -166 -70 -97 -189 -141 -282 -105 -176 68 -468 682 -468 983 0 262 -183 235 -311 -47 -88 -192 -60 -329 149 -741 141 -278 314 -526 384 -551 70 -25 92 -84 48 -131 -45 -48 -112 -37 -150 24 -39 61 -182 104 -320 97 -228 -12 -258 -67 -338 -632 -49 -340 -59 -695 -23 -788 60 -157 79 -158 244 -9 170 154 177 128 152 -539 -18 -469 -78 -752 -181 -855 -85 -85 -154 -286 -154 -447 0 -229 45 -293 205 -293 161 0 185 35 113 164 -160 286 -23 536 294 536 308 0 404 234 138 336 -174 67 -216 1011 -50 1114 55 34 100 145 100 247 0 198 699 819 1350 1198 1399 816 1446 834 2039 767 308 -34 809 -90 1111 -123 550 -60 1286 -352 1850 -734 358 -243 875 -266 1093 -48 202 202 198 283 -43 969 -250 711 -250 885 0 1375 195 381 600 722 600 503 0 -56 143 -87 317 -68 214 24 344 105 397 250 95 255 240 277 327 51 38 -98 -62 -358 -246 -645 -221 -343 -299 -575 -277 -811 28 -289 71 -335 343 -361 275 -27 319 4 371 266 81 405 611 986 972 1065 163 36 296 104 296 152 0 136 -727 -196 -957 -438 -114 -120 -288 -341 -387 -492 -204 -311 -308 -342 -395 -117 -72 188 146 629 426 864 577 483 1994 958 3248 1089 1199 126 1758 371 2375 1041 229 247 477 450 552 450 75 0 216 168 312 372 97 205 282 425 412 490 129 64 407 279 616 478 209 198 429 360 489 360 60 0 109 70 109 156 0 86 -45 128 -100 94 -130 -80 -126 -17 17 298 153 336 320 271 383 -148 28 -184 113 -355 190 -380 142 -47 134 87 -51 905 -47 206 -24 275 88 275 256 0 334 -1046 109 -1463 -224 -417 -336 -429 -336 -37 0 165 -45 300 -100 300 -55 0 -100 -223 -100 -495 0 -273 -52 -609 -115 -749 -106 -232 -126 -238 -241 -81 -111 152 -134 128 -197 -208 -98 -523 -488 -967 -849 -967 -324 0 -699 -399 -696 -738 2 -206 7 -205 186 27 129 167 205 202 258 118 55 -89 123 -76 264 52 166 151 190 152 190 15 0 -87 -180 -300 -400 -474 -498 -395 -514 -545 -50 -469 257 41 350 20 350 -81 0 -205 -336 -272 -970 -193 l-568 71 419 197 c230 108 419 237 419 286 0 124 -31 119 -834 -152 -394 -133 -1028 -313 -1409 -401 -678 -155 -1231 -418 -1118 -530 31 -31 114 -13 184 40 203 155 906 329 1541 382 535 45 569 37 392 -100 -195 -151 -358 -188 -681 -155 -96 10 -175 -30 -175 -89 0 -58 -131 -106 -292 -106 -160 0 -306 -34 -325 -76 -18 -42 -355 -181 -748 -308 -393 -128 -812 -336 -931 -462 -119 -127 -391 -258 -603 -292 -444 -71 -747 -391 -840 -887 -33 -180 -160 -388 -280 -464 -194 -121 -238 -113 -386 71 -92 113 -196 423 -232 689 -48 366 -117 506 -286 580 -126 56 -263 246 -318 439 -88 309 -71 360 197 574 274 219 279 235 75 236 -121 0 -247 -45 -281 -100 -34 -55 -109 -100 -168 -100 -105 0 -76 272 69 650 71 184 64 188 -92 41 -101 -94 -208 -432 -265 -830 -84 -595 -70 -732 122 -1192 119 -285 254 -562 300 -614 145 -164 93 238 -72 557 -86 166 -136 355 -112 420 24 65 92 -1 150 -147 58 -146 153 -295 212 -331 58 -36 106 -190 106 -342 0 -315 684 -1095 1189 -1356 395 -205 520 -452 534 -1055 12 -558 -138 -801 -494 -801 -230 0 -242 25 -182 383 85 503 -118 1285 -382 1470 -115 81 -407 147 -649 147 -286 0 -609 93 -928 266 -501 273 -720 263 -484 -21 228 -275 917 -568 1321 -563 474 7 721 -214 819 -733 53 -286 31 -416 -93 -538 -150 -148 -174 -146 -299 22 -130 176 -141 175 -252 -33 -63 -118 -89 -285 -56 -371 34 -87 -17 -212 -117 -289 -152 -115 -54 -134 707 -137 796 -3 903 19 1072 222 103 124 189 279 191 344 7 271 208 217 335 -89 97 -235 105 -351 27 -403 -60 -41 15 -75 167 -75 l277 -2 -152 362 c-189 452 -187 732 5 986 115 153 187 174 316 93 187 -118 299 -741 134 -741 -145 0 -134 -432 14 -580 68 -68 393 -120 747 -120 539 0 618 23 564 164 -44 113 -20 148 78 112 78 -28 130 -102 116 -164 -14 -64 106 -112 280 -112 l304 0 -179 243 c-99 134 -281 270 -405 302 -239 63 -293 247 -120 420 136 136 -504 635 -816 635 -124 0 -370 53 -548 117 -273 99 -366 89 -591 -58 -393 -257 -427 -111 -56 235 177 165 291 349 254 409 -88 143 29 597 154 597 54 0 98 -62 98 -138 0 -221 296 -405 613 -381 491 38 1274 -513 1881 -1323 334 -445 586 -611 470 -308 -32 82 -14 150 39 150 53 0 97 -202 97 -450 l0 -450 494 0 494 0 39 375 39 375 17 -375 c12 -253 64 -375 162 -375 109 0 153 159 175 625 27 561 53 628 255 657 214 30 225 -1 225 -625 l0 -657 407 0 c361 0 399 22 343 200 -36 115 -18 200 43 200 59 0 107 -90 107 -200 0 -111 67 -200 150 -200 83 0 150 62 150 138 0 76 68 194 150 262 121 101 150 97 150 -18 0 -78 -54 -196 -120 -262 -93 -93 -4 -120 400 -120 l520 0 0 450 c0 479 6 484 489 387 241 -48 290 -92 208 -191 -59 -71 -128 -245 -154 -387 -45 -247 -26 -259 397 -259 413 0 452 23 550 325 58 179 132 493 164 698 l58 372 -419 -147 c-478 -169 -893 -193 -893 -52 0 131 339 304 593 304 153 0 207 64 207 245 0 336 203 755 366 755 74 0 134 87 134 193 0 137 -81 203 -275 225 -151 18 -275 77 -275 132 0 55 124 114 275 132 376 43 349 218 -33 218 -204 0 -294 42 -264 125 24 69 163 117 308 106 327 -23 351 196 39 347 -224 108 -224 108 -10 115 176 6 215 68 215 342 l0 335 -360 -124 c-198 -68 -384 -192 -415 -276 -52 -143 -1289 -1107 -1955 -1523 -165 -104 -502 -350 -750 -549 -521 -418 -1158 -736 -1301 -648 -116 72 106 547 350 749 89 74 225 285 302 469 77 183 249 375 382 426 134 51 340 228 459 394 118 166 459 511 757 765 474 406 657 507 976 539 41 5 75 73 75 152 0 79 338 482 750 896 744 747 750 757 750 1281 -1 346 -68 639 -194 846 -106 174 -249 511 -317 750 -68 238 -175 501 -237 583 -204 270 -359 720 -306 887 56 176 443 458 521 380 26 -26 115 -311 199 -632 212 -813 357 -1012 303 -415 -24 259 -137 660 -252 892 -196 395 -198 430 -38 552 94 71 205 131 246 133 93 4 101 303 8 303 -37 0 -148 -73 -246 -162 -229 -207 -455 -120 -611 234 -67 153 -270 515 -453 804 l-331 526 275 255 275 255 155 -680 c112 -488 204 -689 329 -713 192 -37 230 85 74 241 -54 54 -147 358 -205 674 l-107 574 456 463 c534 541 610 866 181 774 l-275 -60 275 253 c321 294 357 413 82 266 -107 -57 -243 -104 -304 -104 -150 0 70 408 313 581 180 128 257 421 109 417 -41 -1 -187 -120 -325 -266 l-250 -265 -32 267 c-17 146 -73 266 -125 266 -130 0 -116 -539 22 -842 88 -194 85 -287 -12 -404 -149 -180 -341 -97 -261 112 31 80 -18 311 -108 515 -91 203 -154 437 -140 519 44 273 513 800 711 800 217 0 265 159 70 227 -157 55 189 473 390 473 74 0 135 69 135 153 0 136 -29 136 -275 1 -539 -295 -850 -619 -786 -818 42 -134 -5 -218 -165 -288 -173 -76 -231 -195 -255 -529 -51 -704 424 -1855 628 -1524 92 149 253 130 253 -30 0 -223 -339 -462 -570 -402 -118 31 -261 176 -319 322 -349 875 -515 2434 -302 2832 248 463 179 1992 -125 2773 -131 338 30 457 583 433 520 -22 647 -90 430 -227 -229 -145 -497 -112 -497 60 0 87 -48 126 -109 88 -69 -43 -82 -199 -35 -430 41 -200 82 -499 92 -664 58 -1009 116 -1130 455 -948 203 108 210 133 63 215 -204 114 -219 383 -22 383 204 0 300 196 163 333 -87 87 -136 82 -200 -22 -129 -208 -307 -36 -307 297 0 219 65 326 250 410 328 150 450 21 169 -176 -120 -84 -219 -205 -219 -268 0 -82 33 -81 120 6 187 187 493 142 551 -80 29 -110 102 -200 163 -200 61 0 16 -66 -99 -147 -224 -156 -408 -605 -201 -488 286 161 566 486 566 658 0 119 -43 162 -117 116 -84 -51 -92 -17 -31 120 48 105 104 469 126 809 38 603 31 622 -265 775 -382 198 -752 201 -913 7 -68 -82 -182 -150 -253 -150 -193 0 -1414 -565 -1491 -691 -106 -172 -256 -128 -256 76 0 202 202 400 624 611 324 162 587 530 596 836 4 120 69 440 144 711 75 271 136 736 136 1033 0 463 -41 581 -292 832 -310 310 -682 373 -1148 196 -300 -114 -441 28 -252 256 111 133 59 148 -416 121 -522 -30 -548 -45 -728 -427 -124 -264 -149 -409 -75 -434 61 -20 111 -112 111 -203 0 -152 596 -717 756 -717 37 0 -5 110 -93 245 -92 140 -121 269 -67 303 128 78 330 -630 287 -1000 l-36 -298 -181 334 c-169 314 -189 323 -316 150 -119 -161 -107 -209 96 -384 355 -306 381 -735 101 -1700 -136 -469 -247 -934 -247 -1032 0 -99 -66 -267 -147 -374 -193 -256 -195 -482 -3 -408 223 86 181 -113 -66 -312 -119 -96 -411 -376 -649 -624 l-434 -450 66 493 c36 271 243 832 460 1247 659 1258 862 2455 494 2909 -256 317 -1077 512 -1415 337 -340 -177 -395 -5 -118 370 117 157 212 313 212 347 0 34 203 395 450 802 248 408 450 765 450 793 0 96 -301 53 -501 -72 -158 -99 -240 -99 -398 0 -109 68 -450 124 -757 124 -515 0 -546 -12 -396 -163 196 -195 164 -687 -45 -687 -93 0 -178 156 -231 425 -82 414 -94 425 -478 425 -440 0 -458 -47 -244 -646 77 -218 125 -412 106 -432 -20 -19 -154 92 -298 246 -195 210 -247 349 -205 545 55 250 37 264 -348 269 -223 3 -405 -28 -405 -69 0 -41 248 -375 552 -744 522 -633 568 -787 172 -577 -96 50 -339 163 -541 251 -217 94 -518 364 -734 658 -201 274 -429 499 -506 499 -167 0 -312 -495 -171 -586 136 -87 531 -2089 596 -3014 48 -675 38 -730 -93 -550 -86 118 -173 568 -212 1095 -52 692 -110 934 -257 1071 -208 194 -357 1038 -287 1632 l41 352 -905 0 -905 -1 -18 -351 c-10 -193 19 -328 64 -301 125 78 270 -151 411 -647 70 -247 182 -517 248 -600 66 -82 173 -315 237 -517 212 -658 707 -800 811 -232 55 297 56 298 180 73 140 -253 301 -2147 237 -2799 -38 -390 -64 -425 -324 -425 -198 0 -344 87 -489 290 -235 330 -257 467 -93 568 63 40 192 -33 290 -164 151 -200 201 -215 337 -102 204 170 202 504 -5 925 -550 1116 -577 1140 -1073 931 -159 -67 -176 -45 -115 147 56 175 -2 301 -258 565 -181 187 -405 340 -497 340 -93 0 -225 68 -294 151 -105 127 -75 168 188 260 334 116 371 225 215 632 -71 189 -65 258 25 260 68 2 44 49 -53 106 -129 75 -215 65 -317 -37 -195 -196 -778 -104 -736 115 20 109 155 173 405 194 423 35 414 22 258 364 -101 222 -178 255 -600 255 -490 0 -555 -62 -396 -376 84 -166 123 -305 407 -1474 120 -494 235 -933 552 -2100 232 -855 231 -896 -22 -932 -270 -38 -390 -409 -230 -709 81 -150 209 -209 459 -209 396 0 372 76 395 -1250 9 -550 52 -1228 95 -1506 56 -362 28 -730 -96 -1290 -139 -623 -161 -1020 -108 -1944 53 -922 34 -1270 -93 -1695 -148 -494 -148 -548 6 -718 156 -173 149 -205 -115 -536 -154 -193 -290 -342 -301 -331 -11 11 27 227 85 481 123 538 23 1421 -154 1362 -65 -22 -109 -81 -99 -131 135 -647 127 -1048 -27 -1433 -139 -348 -147 -444 -40 -510 96 -60 41 -137 -206 -287 -185 -112 -351 -190 -369 -172 -18 18 18 162 79 321 164 422 188 2758 27 2625 -67 -56 -141 -267 -165 -469 -23 -202 -38 541 -32 1651 7 1480 40 1994 122 1926 63 -53 137 -567 169 -1169 63 -1168 205 -1733 391 -1547 81 81 80 186 -2 391 -62 155 -156 821 -208 1481 -77 987 -69 1239 48 1420 107 166 117 287 41 488 -56 147 -122 655 -147 1129 -63 1214 -182 1922 -371 2213 -150 232 -252 682 -474 2100 -48 303 -162 798 -254 1100 -93 303 -255 832 -360 1177 -105 345 -191 694 -191 775 0 81 -71 148 -157 148 -103 0 -138 -60 -103 -175 29 -96 125 -535 214 -975 89 -440 203 -843 254 -895 50 -52 92 -184 92 -293 0 -109 42 -336 92 -505 51 -169 138 -532 194 -807 243 -1198 365 -1618 551 -1890 109 -159 206 -452 216 -650 10 -198 54 -514 98 -702 68 -286 56 -332 -73 -282 -196 75 -275 -359 -277 -1518 -2 -1279 -86 -921 -148 633 -31 761 -75 1414 -99 1452 -95 154 -448 2035 -398 2117 55 89 -256 1566 -503 2390 -74 248 -194 664 -266 925 -115 419 -287 645 -287 378 0 -53 -58 -75 -129 -47 -70 27 -128 138 -128 246 0 229 63 248 252 73 110 -102 123 -92 70 58 -36 101 -65 247 -65 325 0 166 -651 202 -750 42 -34 -55 -141 -100 -237 -100 -97 0 -278 -139 -404 -309 -199 -269 -271 -302 -558 -248 -280 53 -366 18 -573 -228 -134 -159 -342 -342 -462 -406 -192 -103 -229 -87 -314 137 -108 282 -278 312 -770 134 -394 -143 -551 -34 -425 295 59 152 169 225 343 225 341 0 864 225 1050 452 140 170 133 177 -100 106 -137 -42 -473 -111 -745 -152 -395 -60 -557 -148 -806 -436 -416 -481 -1049 -736 -1049 -423 0 89 59 124 150 89 196 -75 195 167 0 420 -147 189 -156 187 -379 -81 -180 -216 -313 -275 -625 -273 -580 2 -722 122 -458 386 117 117 274 212 350 212 76 0 199 75 275 167 124 151 106 161 -200 100 -186 -37 -397 -67 -468 -67 -216 0 -445 -297 -445 -577 0 -378 -179 -151 -218 277 -29 313 -66 353 -354 381 l-322 31 3 -12281z m16420 11870 c-28 -109 -92 -174 -140 -144 -142 87 -103 343 52 343 91 0 122 -70 88 -199z m-8329 -107 c0 -52 -45 -94 -100 -94 -55 0 -100 70 -100 156 0 86 45 128 100 94 55 -34 100 -104 100 -156z m-525 -388 c124 -104 225 -283 225 -399 0 -116 108 -424 240 -684 179 -354 256 -712 305 -1423 81 -1185 127 -1369 354 -1429 115 -30 178 -134 171 -284 -5 -130 28 -349 74 -487 64 -193 -18 -140 -363 235 -438 475 -450 507 -614 1601 -92 615 -167 1207 -167 1317 0 109 -83 251 -185 314 -121 76 -205 283 -243 600 -32 265 -88 562 -126 658 -87 226 45 218 329 -19z m6980 -270 l264 -264 -2 -1711 c-2 -941 -50 -1913 -107 -2161 -109 -465 -153 -2277 -54 -2177 31 30 77 409 102 841 63 1069 308 2510 346 2036 31 -396 26 -507 -49 -1000 -29 -192 -75 -858 -102 -1478 -28 -621 -90 -1206 -138 -1300 -49 -95 -121 -509 -160 -920 -40 -412 -136 -902 -215 -1091 -128 -307 -122 -526 12 -393 74 75 319 1054 401 1607 67 460 183 607 275 350 25 -69 76 -97 113 -62 38 35 16 366 -48 737 -88 505 -89 850 -5 1386 166 1051 209 2232 94 2595 -56 176 -113 679 -127 1119 -14 440 -7 710 16 600 23 -110 154 -664 290 -1232 136 -568 225 -1108 198 -1200 -28 -92 -60 -640 -73 -1218 -12 -577 -89 -1315 -170 -1640 -138 -551 -136 -598 33 -721 220 -161 406 -75 248 114 -120 145 51 1550 226 1847 52 88 55 -56 7 -350 -44 -275 -68 -860 -54 -1300 17 -493 -21 -890 -97 -1035 -105 -199 -97 -254 49 -361 245 -179 226 -554 -28 -554 -117 0 -200 -67 -200 -161 0 -101 55 -139 150 -103 240 92 177 -153 -200 -779 -193 -320 -350 -667 -350 -772 0 -106 -118 -424 -262 -708 -229 -452 -254 -594 -199 -1130 59 -578 44 -640 -254 -1055 -175 -243 -356 -457 -404 -476 -112 -45 -881 -1177 -881 -1298 0 -52 -307 -383 -682 -737 -375 -354 -711 -720 -747 -812 -36 -93 -113 -169 -172 -169 -188 0 -483 -342 -692 -803 -218 -481 -274 -1158 -101 -1216 154 -51 252 -881 105 -881 -146 0 -313 428 -372 950 -25 220 -67 461 -93 536 -119 337 187 966 763 1565 325 339 591 654 591 701 0 142 -589 -465 -1070 -1102 -433 -574 -450 -622 -399 -1125 55 -526 -55 -722 -168 -300 -198 739 45 1648 596 2225 600 629 1049 1175 1003 1221 -45 45 -864 -760 -1245 -1224 -92 -111 -324 -312 -517 -446 -575 -400 -874 -906 -917 -1552 -38 -551 472 -954 797 -629 91 91 120 92 120 2 0 -241 -489 -278 -1596 -120 -729 104 -1033 198 -641 198 200 0 437 174 437 320 0 44 -90 80 -200 80 -227 0 -276 370 -95 709 134 251 295 155 295 -176 0 -180 42 -238 143 -199 98 37 164 -39 208 -239 64 -293 214 -463 317 -360 30 30 8 189 -49 353 -140 402 -48 712 213 712 150 0 178 30 99 109 -79 79 -166 79 -314 0 -272 -145 -317 -138 -317 50 0 187 789 1341 917 1341 48 0 -7 -184 -122 -410 -115 -225 -191 -427 -169 -450 55 -54 674 909 674 1049 0 61 65 111 144 111 183 0 816 573 729 660 -196 196 -2167 -1469 -2171 -1835 -1 -69 -69 -125 -152 -125 -471 0 304 1160 1313 1964 695 554 821 611 1437 659 327 25 353 53 404 430 38 289 225 629 659 1200 964 1270 1480 2370 1687 3592 37 217 142 450 233 517 141 102 172 366 201 1680 31 1427 19 1558 -140 1558 -159 0 -169 94 -110 1058 36 582 109 1133 163 1225 56 98 98 115 100 42 2 -69 49 -125 106 -125 154 0 104 2113 -63 2668 -132 438 -193 1232 -95 1232 25 0 165 -119 310 -264z m6145 14 c0 -82 -45 -150 -100 -150 -55 0 -100 68 -100 150 0 83 45 150 100 150 55 0 100 -67 100 -150z m206 -831 c-58 -20 -106 -129 -106 -244 0 -115 -28 -181 -62 -147 -34 34 0 368 75 742 l137 680 31 -498 c19 -290 -12 -512 -75 -533z m-19506 623 c0 -87 -53 -141 -119 -119 -185 62 -216 277 -39 277 87 0 158 -71 158 -158z m5515 -420 c-63 -21 -115 -102 -115 -180 0 -174 -42 -176 -326 -17 -292 163 -368 275 -301 448 36 94 136 121 293 82 171 -43 257 -11 305 112 53 140 84 118 162 -117 69 -206 64 -301 -18 -328z m-3279 328 c73 -189 392 -192 750 -7 171 88 329 109 417 55 117 -72 112 -99 -31 -153 -95 -37 -172 -108 -172 -160 0 -51 -96 -223 -213 -382 -180 -243 -242 -270 -398 -173 -140 87 -213 86 -305 -6 -95 -95 -162 -84 -309 49 -104 94 -328 172 -498 174 -171 1 -329 59 -352 128 -26 78 16 103 112 66 229 -88 399 46 264 208 -84 101 -45 155 170 233 395 145 500 139 565 -32z m13751 -433 c57 -265 79 -574 50 -686 -39 -149 5 -219 164 -260 189 -50 208 -102 146 -389 -74 -340 -219 -503 -397 -447 -55 17 -134 275 -176 573 -78 550 -278 822 -533 725 -189 -73 -293 234 -141 417 80 96 210 126 373 85 219 -55 241 -37 182 150 -75 234 10 448 144 366 47 -29 131 -270 188 -534z m-11387 156 c0 -234 733 -1832 951 -2073 124 -137 295 -385 378 -550 84 -165 370 -529 637 -808 266 -279 677 -783 914 -1120 266 -379 481 -592 565 -560 74 28 157 15 184 -30 99 -163 194 -2032 104 -2032 -50 0 -258 309 -462 687 -380 704 -463 945 -251 733 66 -66 186 -120 267 -120 113 0 100 53 -57 225 -113 124 -256 324 -318 445 -62 121 -300 435 -527 698 -228 263 -476 625 -551 805 -121 289 -434 465 -434 244 0 -80 396 -641 1075 -1524 179 -233 324 -473 322 -533 -2 -61 -100 19 -218 178 -118 158 -510 601 -872 984 -361 383 -689 783 -729 887 -39 105 -114 191 -167 191 -235 0 -1411 2538 -1411 3047 0 502 536 -489 647 -1197 60 -377 922 -1815 1026 -1710 26 26 -119 316 -322 645 -360 584 -1068 2490 -981 2642 59 103 230 -11 230 -154z m15509 -181 c-90 -227 -97 -221 -103 103 -4 237 26 313 97 242 68 -68 70 -185 6 -345z m-20568 90 c140 -199 185 -207 531 -100 364 113 388 105 639 -199 222 -269 323 -314 670 -301 225 9 437 -30 472 -87 84 -135 -134 -395 -331 -395 -85 0 -479 -163 -876 -362 l-722 -362 -307 227 c-311 230 -468 479 -366 582 31 30 246 -13 478 -97 468 -170 848 -120 1008 134 156 248 16 317 -268 131 -154 -101 -342 -139 -497 -100 -277 70 -920 889 -822 1047 97 157 226 119 391 -118z m10209 118 c-34 -55 -82 -100 -106 -100 -24 0 -44 45 -44 100 0 55 48 100 106 100 58 0 78 -45 44 -100z m4548 -225 c0 -69 -45 -192 -98 -275 -76 -117 -97 -89 -98 125 -1 151 43 275 98 275 55 0 99 -56 98 -125z m-11203 -691 c-194 -375 -412 -584 -610 -584 -222 0 -248 -282 -34 -364 83 -32 253 9 379 92 192 126 258 128 411 16 226 -165 158 -517 -174 -903 -222 -259 -240 -263 -482 -105 -138 91 -281 135 -318 98 -137 -137 -60 -430 140 -538 257 -137 632 81 878 512 182 321 315 377 315 133 0 -88 -236 -407 -525 -709 -886 -929 -897 -938 -1033 -825 -87 72 -236 56 -495 -52 -204 -85 -451 -155 -548 -155 -97 0 -250 -112 -340 -250 -90 -137 -222 -250 -293 -250 -72 0 -307 -134 -523 -297 -486 -367 -743 -391 -743 -68 0 258 329 609 586 625 90 6 311 17 490 25 253 12 371 88 523 338 168 275 246 318 536 293 272 -23 384 26 560 250 152 194 182 292 96 320 -68 23 -177 -32 -243 -122 -158 -216 -349 -209 -345 11 4 206 331 625 488 625 203 0 110 276 -112 335 -280 73 -603 -201 -526 -446 37 -115 -15 -215 -148 -286 -113 -61 -205 -171 -205 -246 0 -75 -131 -276 -290 -446 -251 -269 -359 -311 -800 -311 -374 0 -510 38 -510 142 0 274 129 474 364 563 350 133 298 376 -89 414 -250 24 -332 83 -357 258 -25 177 42 258 305 368 528 221 918 302 840 176 -37 -60 32 -202 154 -315 251 -234 276 -240 483 -106 122 79 109 97 -69 98 -276 2 -367 146 -289 456 70 278 570 659 630 479 21 -61 125 -89 233 -61 107 28 195 1 195 -60 0 -62 67 -112 150 -112 98 0 150 98 150 285 0 378 299 644 630 561 202 -51 289 -10 425 198 207 315 311 269 140 -60z m17162 -60 c-177 -166 -182 -165 -121 9 35 101 64 234 64 295 0 78 37 75 121 -9 94 -94 80 -159 -64 -295z m-16318 18 c38 -98 15 -143 -58 -119 -149 50 -231 277 -100 277 54 0 125 -71 158 -158z m3561 58 c0 -55 -70 -100 -156 -100 -86 0 -128 45 -94 100 34 55 104 100 156 100 52 0 94 -45 94 -100z m2623 -342 c26 -135 11 -303 -32 -373 -99 -161 -325 381 -246 589 74 192 222 78 278 -216z m7077 299 c0 -135 -214 -576 -258 -533 -79 79 67 576 169 576 49 0 89 -20 89 -43z m2100 -157 c0 -111 -67 -200 -150 -200 -181 0 -193 117 -30 280 161 161 180 153 180 -80z m-15200 -557 c0 -160 -226 -443 -354 -443 -203 0 -183 268 29 392 198 115 325 135 325 51z m15400 -492 c0 -129 -203 -351 -320 -351 -97 0 -106 417 -14 656 62 161 75 160 200 -11 74 -101 134 -233 134 -294z m-19900 149 c0 -86 -418 -216 -483 -150 -23 23 -16 107 15 188 56 148 468 115 468 -38z m11150 -178 c110 -173 256 -316 325 -318 118 -4 169 -391 131 -1005 -10 -159 114 -404 339 -666 321 -375 444 -633 302 -633 -251 0 -758 344 -940 639 -123 198 -276 365 -340 370 -64 5 -252 16 -417 25 -461 25 -391 304 92 366 505 64 550 227 160 583 -263 241 -302 333 -244 577 133 553 270 567 592 62z m5682 -822 c189 -844 170 -1000 -126 -1000 -213 0 -346 381 -196 562 112 135 21 807 -121 895 -157 97 -95 343 87 343 138 0 214 -171 356 -800z m5945 0 c109 -174 100 -200 -70 -200 -221 0 -349 150 -257 300 93 151 188 122 327 -100z m-18391 -300 c63 0 114 -45 114 -100 0 -55 -157 -100 -350 -100 -387 0 -400 19 -237 325 104 194 123 197 236 43 68 -92 174 -168 237 -168z m857 -88 c-38 -89 -78 -250 -89 -358 -25 -243 -639 -609 -781 -467 -164 164 -4 396 296 431 235 27 286 85 312 352 23 236 70 304 181 262 93 -36 124 -119 81 -220z m12457 -32 c0 -162 -30 -190 -111 -109 -61 61 -81 160 -44 220 103 168 155 130 155 -111z m-1669 -1034 c-87 -625 -331 -886 -331 -354 0 169 45 308 100 308 55 0 100 68 100 150 0 83 -89 150 -200 150 -236 0 -263 223 -50 400 83 68 151 220 152 337 2 175 30 158 157 -99 119 -242 135 -444 72 -892z m3369 1076 c0 -108 -408 -447 -468 -388 -88 89 172 466 322 466 80 0 146 -35 146 -78z m1117 -645 c-89 -89 -115 -35 -110 228 6 324 13 331 117 117 81 -169 79 -259 -7 -345z m-16631 224 c82 0 112 -63 75 -159 -34 -87 7 -255 89 -372 83 -118 150 -358 150 -532 0 -267 -51 -336 -315 -428 -419 -146 -443 -140 -262 65 191 216 333 825 193 825 -55 0 -151 -153 -213 -340 -211 -640 -903 -546 -903 122 0 227 28 241 400 191 433 -58 468 -22 254 262 -191 252 -84 497 185 424 116 -31 272 -57 347 -58z m11091 -151 c11 -137 -24 -250 -78 -250 -111 0 -136 330 -32 433 91 91 87 98 110 -183z m5081 -304 c-40 -158 -133 -246 -260 -246 -260 0 -251 181 25 475 241 256 334 165 235 -229z m-758 1 c0 -139 -69 -280 -154 -312 -185 -71 -335 46 -186 145 58 39 134 149 169 245 93 251 171 216 171 -78z m-2300 -140 c0 -162 44 -409 97 -549 54 -142 61 -354 16 -475 -65 -175 -93 -113 -143 309 -35 291 -114 590 -175 664 -117 141 -52 344 111 344 52 0 94 -132 94 -293z m-11300 104 c0 -49 -203 -294 -450 -545 -247 -251 -450 -504 -450 -561 0 -58 -65 -105 -144 -105 -108 0 -131 92 -92 375 94 681 229 847 657 806 209 -20 379 -1 379 41 0 43 22 78 50 78 28 0 50 -40 50 -89z m-3600 -182 c0 -39 -119 -166 -264 -282 -146 -116 -246 -267 -223 -336 29 -87 112 -63 279 82 319 276 433 261 636 -83 212 -359 231 -754 33 -678 -77 29 -324 -38 -550 -150 -322 -159 -413 -260 -418 -467 -4 -146 -40 -348 -80 -450 -67 -172 -91 -166 -318 73 -322 339 -482 329 -611 -40 -139 -399 -417 -550 -627 -341 -206 207 -198 404 30 728 214 304 363 708 328 890 -13 69 48 125 135 125 205 0 750 403 750 555 0 65 169 187 375 272 442 181 525 197 525 102z m12900 -35 c0 -58 -45 -78 -100 -44 -55 34 -100 82 -100 106 0 24 45 44 100 44 55 0 100 -48 100 -106z m2260 -167 c-33 -33 -56 26 -52 131 5 117 28 141 60 61 29 -72 26 -159 -8 -192z m-10503 -202 l387 -375 -388 -32 c-324 -27 -439 19 -697 278 -259 260 -285 325 -159 405 266 170 461 107 857 -276z m12707 -300 c32 -96 114 -310 184 -475 70 -165 105 -469 78 -675 -67 -527 126 -479 401 99 222 469 573 701 573 379 0 -205 -352 -908 -661 -1321 -302 -402 -299 -431 36 -435 352 -4 625 -212 625 -475 0 -175 -63 -205 -425 -205 -234 0 -661 -93 -950 -207 -289 -114 -525 -183 -525 -154 0 30 160 303 355 609 195 305 340 600 322 655 -40 118 -625 -795 -729 -1136 -39 -129 -314 -467 -610 -753 -296 -285 -539 -600 -540 -700 0 -99 -43 -247 -94 -329 -77 -121 -109 -107 -178 81 -115 311 420 1422 998 2073 919 1035 1274 2149 837 2632 -155 171 -166 236 -63 360 167 200 295 192 366 -23z m-13544 -194 c220 -211 280 -359 280 -689 0 -725 -509 -659 -904 117 -202 395 -246 658 -129 774 145 145 486 54 753 -202z m10236 -321 c-101 -163 -353 -133 -424 50 -85 222 181 369 355 196 75 -75 106 -186 69 -246z m-3056 -260 c0 -488 -172 -523 -218 -44 -21 222 -19 423 4 446 106 107 214 -95 214 -402z m5295 241 c-61 -114 -136 -184 -165 -154 -83 83 49 363 170 363 74 0 73 -64 -5 -209z m-14220 -82 c331 -131 404 -248 225 -359 -135 -84 -126 -583 16 -895 95 -209 86 -287 -50 -437 -216 -239 -209 -381 34 -691 129 -163 200 -405 200 -678 0 -396 -18 -424 -275 -425 -151 -1 -329 42 -394 95 -82 66 -176 31 -298 -111 -242 -284 -333 -261 -333 84 0 160 -54 309 -120 331 -154 52 72 637 277 716 77 29 115 118 84 198 -30 79 67 338 217 576 212 335 268 540 255 922 -10 270 -42 531 -71 578 -97 157 -327 91 -392 -113 -83 -260 -250 -258 -250 3 0 178 354 431 500 359 28 -14 196 -83 375 -153z m925 -371 c0 -76 -45 -138 -100 -138 -55 0 -100 41 -100 92 0 50 -31 174 -69 275 -60 161 -48 167 100 46 93 -76 169 -199 169 -275z m10200 62 c0 -165 -45 -300 -100 -300 -55 0 -100 135 -100 300 0 165 45 300 100 300 55 0 100 -135 100 -300z m-12200 12 c0 -103 -75 -249 -167 -325 -151 -123 -161 -111 -102 113 37 138 67 284 68 325 3 171 201 60 201 -113z m14324 -112 c250 0 271 -370 51 -892 -168 -397 -261 -498 -491 -532 -295 -43 -325 11 -221 399 41 154 136 225 299 225 296 0 313 157 25 232 -166 44 -200 107 -152 287 34 127 64 321 67 431 4 188 13 189 137 25 73 -96 202 -175 285 -175z m-7785 -512 c24 -343 -13 -642 -97 -794 -122 -220 -135 -155 -138 651 -4 992 169 1097 235 143z m6760 380 c2 -157 -447 -17 -479 150 -28 147 1 153 223 50 141 -65 256 -155 256 -200z m-5035 -309 c-23 -60 -86 4 -141 141 -55 138 -75 291 -45 342 69 116 243 -336 186 -483z m-3855 -254 c209 -697 269 -1005 194 -1005 -61 0 -291 639 -575 1600 -28 95 14 78 115 -45 87 -108 207 -355 266 -550z m-3809 201 c0 -304 -353 -1006 -506 -1006 -47 0 -136 185 -197 411 -100 372 -89 434 114 650 320 342 589 316 589 -55z m8664 -57 c32 -83 0 -221 -70 -307 -113 -135 -139 -136 -212 -7 -93 167 -9 465 132 465 51 0 118 -68 150 -151z m-7498 -274 c-28 -69 -50 -12 -50 125 0 138 22 194 50 125 28 -69 28 -181 0 -250z m11309 200 c-47 -142 -208 -126 -258 25 -19 55 41 100 133 100 92 0 148 -56 125 -125z m-10075 -287 c0 -55 -45 -72 -100 -38 -55 34 -100 107 -100 162 0 55 45 72 100 38 55 -34 100 -107 100 -162z m7046 -313 c-17 -289 -80 -637 -141 -775 -92 -208 -101 -158 -58 300 28 303 52 651 52 775 1 124 41 225 89 225 49 0 75 -236 58 -525z m3314 252 c-33 -33 -56 26 -52 131 5 117 28 141 60 61 29 -72 26 -159 -8 -192z m-3745 -241 l-97 -336 -9 308 c-5 170 21 339 58 375 125 126 144 -11 48 -347z m-11715 108 c0 -52 -45 -94 -100 -94 -55 0 -100 70 -100 156 0 86 45 128 100 94 55 -34 100 -104 100 -156z m7538 -1140 c-34 -87 -112 -151 -174 -144 -276 33 -355 -47 -659 -665 -343 -698 -343 -945 3 -945 183 0 204 -40 147 -275 -128 -533 -579 -641 -698 -168 -64 257 -246 314 -426 134 -78 -78 -127 -78 -176 0 -37 60 -178 109 -314 109 -298 0 -398 207 -241 499 88 166 192 208 449 186 257 -22 400 37 616 253 273 272 275 285 89 421 -106 78 -265 141 -353 141 -189 0 -401 190 -401 359 0 131 695 441 990 441 102 0 242 -68 310 -150 68 -82 191 -150 272 -150 121 0 136 113 86 625 l-62 625 301 -570 c165 -313 274 -640 241 -726z m3497 451 c206 -78 268 -154 222 -273 -35 -91 -91 -428 -125 -749 -52 -499 -37 -583 104 -583 187 0 208 -172 66 -543 -92 -244 -336 -345 -437 -182 -25 41 -78 425 -116 853 -61 672 -109 817 -354 1062 -266 266 -277 308 -169 658 l115 375 204 -255 c113 -141 333 -304 490 -363z m4265 376 c0 -131 -227 -49 -277 100 -24 73 21 96 119 58 87 -33 158 -104 158 -158z m-13475 -190 c216 -379 220 -532 18 -734 -275 -274 -373 -188 -304 268 85 565 -70 330 -346 -525 -141 -435 -314 -741 -523 -925 -355 -313 -493 -338 -669 -126 -76 91 -212 127 -352 92 -125 -31 -258 -7 -297 55 -91 148 211 604 400 604 232 0 548 375 548 650 0 145 58 250 137 250 272 0 1063 413 1063 555 0 235 137 166 325 -164z m2175 -47 c0 -24 -45 -44 -100 -44 -55 0 -100 48 -100 106 0 58 45 78 100 44 55 -34 100 -82 100 -106z m12660 -117 c-33 -33 -56 26 -52 131 5 117 28 141 60 61 29 -72 26 -159 -8 -192z m-771 -727 c-159 -495 -289 -1012 -289 -1148 0 -318 -505 -1352 -660 -1352 -121 0 -243 -223 -237 -433 2 -64 69 -30 150 77 81 107 147 141 147 75 0 -65 101 -121 225 -124 192 -4 174 -32 -125 -195 -726 -394 -747 -397 -782 -129 -18 136 35 321 117 413 134 147 338 632 829 1966 82 220 258 623 392 895 134 272 244 549 244 616 0 67 56 145 125 173 69 28 131 54 139 58 8 4 -115 -397 -275 -892z m-10899 485 c132 -378 144 -785 23 -785 -49 0 -114 130 -146 288 -31 159 -87 406 -123 550 -94 374 113 329 246 -53z m10510 149 c0 -57 -298 -634 -328 -634 -21 0 -10 496 16 697 11 91 312 31 312 -63z m-11034 -559 c-28 -69 -50 -12 -50 125 0 138 22 194 50 125 28 -69 28 -181 0 -250z m3660 -1678 c-21 -1699 -2 -2013 125 -2061 82 -32 149 -127 149 -212 0 -134 -328 -914 -609 -1448 -50 -95 -91 -261 -91 -369 0 -225 -178 -370 -301 -243 -46 47 49 352 212 678 163 325 254 618 203 650 -56 35 -58 274 -6 601 58 372 51 586 -25 678 -74 89 -88 375 -42 856 39 398 93 1083 120 1523 39 630 186 1350 276 1350 7 0 2 -901 -11 -2003z m8374 1609 c0 -52 -45 -122 -100 -156 -55 -34 -100 8 -100 94 0 86 45 156 100 156 55 0 100 -42 100 -94z m-9013 -281 c0 -96 32 -374 72 -617 66 -407 57 -435 -119 -364 -104 43 -280 85 -390 94 -273 22 -236 508 63 826 264 281 375 299 374 61z m11022 -256 c-79 -79 -109 -53 -109 94 0 265 140 405 184 185 19 -93 -14 -218 -75 -279z m-14329 -837 c164 -299 151 -532 -30 -532 -82 0 -150 16 -150 36 0 20 -45 276 -101 569 -55 292 -69 625 -30 738 57 166 83 129 132 -193 33 -220 114 -498 179 -618z m15557 658 c78 -388 -50 -638 -148 -289 -101 363 -101 599 -1 599 48 0 115 -140 149 -310z m-18037 122 c0 -48 -67 -144 -150 -212 -122 -101 -150 -97 -150 21 0 80 30 176 67 212 95 95 233 83 233 -21z m16400 -262 c0 -156 -57 -250 -150 -250 -150 0 -209 308 -83 433 136 136 233 60 233 -183z m-3190 -422 c-93 -159 -104 -160 -107 -11 -2 92 29 249 69 350 66 167 75 168 107 11 19 -94 -12 -252 -69 -350z m3871 39 c17 -202 -9 -367 -58 -367 -146 0 -354 474 -286 652 106 275 311 105 344 -285z m-16781 -29 c0 -76 -19 -138 -42 -138 -23 0 -113 -27 -200 -61 -117 -45 -158 2 -158 184 0 134 30 273 66 309 90 91 334 -125 334 -294z m15471 -10 c-161 -161 -171 -159 -171 34 0 262 108 370 239 239 70 -70 48 -157 -68 -273z m-16177 -585 c-150 -181 -494 -187 -494 -9 0 74 124 293 275 488 l275 355 31 -346 c18 -190 -22 -409 -87 -488z m1806 760 c0 -192 -422 -901 -506 -850 -98 61 -12 347 104 347 42 0 104 135 137 300 55 273 265 434 265 203z m-600 -109 c0 -58 -45 -78 -100 -44 -55 34 -100 82 -100 106 0 24 45 44 100 44 55 0 100 -48 100 -106z m-3600 -763 c0 -127 -45 -231 -100 -231 -55 0 -101 79 -101 175 -1 96 -27 288 -58 425 -54 241 -50 243 102 56 86 -107 157 -298 157 -425z m1749 368 c-199 -219 -308 -196 -214 47 32 85 135 154 227 154 154 0 153 -18 -13 -201z m14031 -94 c-68 -108 -142 -177 -165 -153 -43 43 175 348 248 348 21 0 -16 -88 -83 -195z m2282 -86 c-86 -86 -187 -127 -224 -90 -96 95 166 381 283 308 58 -36 34 -124 -59 -218z m838 111 c0 -173 -472 -730 -619 -730 -169 0 -71 382 164 635 282 304 455 340 455 95z m600 70 c0 -55 -45 -100 -100 -100 -55 0 -100 45 -100 100 0 55 45 100 100 100 55 0 100 -45 100 -100z m1100 -158 c0 -177 -215 -146 -277 39 -22 66 32 119 119 119 87 0 158 -71 158 -158z m-14834 -267 c-28 -69 -50 -12 -50 125 0 138 22 194 50 125 28 -69 28 -181 0 -250z m-3906 -465 l141 -336 -339 55 c-279 45 -357 16 -444 -162 -78 -162 -106 -176 -111 -53 -4 91 -74 191 -157 222 -235 91 -176 429 116 659 226 177 294 189 459 80 106 -71 257 -280 335 -465z m-1349 161 c-81 -81 -111 -70 -111 42 0 199 134 334 184 185 21 -64 -12 -166 -73 -227z m2190 27 c123 -230 56 -398 -160 -398 -176 0 -285 241 -205 450 80 209 237 187 365 -52z m16854 -63 c135 -145 245 -339 245 -430 0 -206 -192 -405 -390 -405 -117 0 -123 27 -30 120 163 163 151 280 -28 280 -82 0 -178 124 -215 275 -38 151 -117 308 -177 348 -63 42 -11 75 120 75 126 1 340 -117 475 -263z m1099 72 c-88 -143 -424 -136 -515 10 -47 76 -19 97 79 59 82 -32 212 -19 288 28 165 101 240 52 148 -97z m-6011 -132 c-146 -468 -250 -701 -295 -657 -25 26 28 234 118 464 173 441 296 575 177 193z m6725 -822 c43 -459 27 -653 -54 -653 -62 0 -117 34 -120 75 -86 1008 -83 1552 8 1403 58 -95 132 -466 166 -825z m-16077 -140 c-9 -730 -105 -572 -231 379 -64 484 -55 528 84 413 114 -95 154 -306 147 -792z m13009 810 c0 -15 -113 -206 -251 -425 -220 -348 -298 -398 -625 -398 l-374 1 266 224 c146 124 313 322 373 440 71 142 192 209 359 200 138 -8 252 -27 252 -42z m-17626 -573 c56 -220 135 -479 175 -575 43 -103 28 -175 -35 -175 -158 0 -279 287 -359 850 -83 582 62 516 219 -100z m2974 -24 c39 -262 137 -670 218 -907 80 -238 131 -530 113 -650 -19 -126 -131 142 -265 631 -295 1077 -371 1547 -238 1465 55 -34 133 -277 172 -539z m17162 344 c-128 -128 -258 -29 -163 125 37 60 113 80 169 45 68 -42 66 -98 -6 -170z m-3639 -244 c-192 -193 -299 -238 -376 -161 -78 78 -15 165 223 307 428 255 493 193 153 -146z m1764 227 c60 -157 -64 -290 -171 -184 -95 96 -77 331 25 331 49 0 115 -66 146 -147z m1465 3 c0 -79 -42 -170 -93 -202 -119 -73 -239 114 -157 246 92 149 250 121 250 -44z m-12070 -119 c136 -48 166 -129 121 -334 -38 -173 -9 -313 81 -388 81 -67 120 -221 92 -366 -53 -280 -67 -287 -315 -154 -132 71 -271 31 -545 -155 -410 -278 -564 -247 -564 116 0 146 -58 244 -144 244 -222 0 -276 168 -134 421 185 331 277 376 773 377 346 2 418 29 325 122 -157 157 -154 313 5 238 69 -32 206 -86 305 -121z m3070 -143 c0 -107 -40 -194 -88 -194 -103 0 -216 363 -137 441 95 95 225 -48 225 -247z m-8846 0 c35 -58 37 -215 4 -349 -54 -215 -85 -230 -260 -121 -226 142 -251 283 -78 456 148 148 248 152 334 14z m15846 -206 c0 -55 -45 -72 -100 -38 -55 34 -100 107 -100 162 0 55 45 72 100 38 55 -34 100 -107 100 -162z m-13961 -738 c36 -275 24 -635 -27 -800 -76 -250 -91 -193 -88 350 2 358 -25 808 -61 1000 -44 240 -36 287 24 150 48 -110 117 -425 152 -700z m12148 616 c130 -157 51 -266 -191 -266 -95 0 -233 -74 -308 -164 -122 -147 -111 -157 100 -90 163 52 216 41 169 -35 -38 -61 -130 -111 -205 -111 -76 0 -309 -177 -519 -394 -423 -435 -792 -570 -769 -280 13 160 -19 156 -338 -41 -194 -120 -515 -274 -714 -344 -221 -77 -352 -182 -335 -271 16 -87 -75 -165 -225 -194 -139 -27 -252 -28 -252 -4 0 165 760 928 924 928 218 0 1174 551 1859 1071 473 360 635 399 804 195z m-13390 -416 c0 -166 -17 -174 -97 -50 -53 83 -97 240 -97 350 0 166 17 174 97 50 53 -82 97 -240 97 -350z m2683 175 c161 -424 241 -1025 135 -1025 -123 0 -215 244 -308 825 -85 523 9 631 173 200z m-5833 -120 c197 -380 193 -543 -4 -180 -82 151 -193 275 -246 275 -53 0 -97 45 -97 100 0 203 199 91 347 -195z m6453 -46 c0 -120 56 -275 124 -343 99 -99 94 -143 -24 -216 -198 -123 -266 -30 -349 475 -59 364 -46 417 90 365 88 -34 159 -160 159 -281z m-4300 -215 c0 -86 -45 -128 -100 -94 -55 34 -100 104 -100 156 0 52 45 94 100 94 55 0 100 -70 100 -156z m12500 109 c0 -27 -135 -118 -300 -203 -334 -173 -379 -143 -143 93 145 145 443 219 443 110z m2400 -53 c0 -55 -42 -100 -94 -100 -52 0 -122 45 -156 100 -34 55 8 100 94 100 86 0 156 -45 156 -100z m-505 -275 c-46 -453 -3 -499 508 -548 338 -32 550 -111 644 -238 138 -185 143 -185 282 1 94 127 163 153 209 79 97 -156 -428 -919 -631 -919 -92 0 -217 -50 -278 -111 -134 -134 -329 -34 -329 167 0 210 -232 176 -377 -56 -68 -110 -170 -200 -225 -200 -160 0 -497 623 -498 919 0 325 162 457 245 198 70 -221 411 -392 958 -479 572 -92 493 100 -104 253 -276 70 -557 207 -625 303 -68 96 -191 200 -274 232 -119 46 -113 60 27 66 98 4 221 121 273 258 110 288 221 331 195 75z m1455 75 c-34 -55 -82 -100 -106 -100 -24 0 -44 45 -44 100 0 55 48 100 106 100 58 0 78 -45 44 -100z m-16950 -138 c0 -76 -67 -194 -150 -262 -125 -103 -150 -91 -150 71 0 108 30 226 67 262 111 112 233 75 233 -71z m4266 -187 c-28 -69 -50 -12 -50 125 0 138 22 194 50 125 28 -69 28 -181 0 -250z m-3624 0 c25 -124 74 -472 109 -775 34 -302 120 -865 191 -1250 121 -665 73 -1050 -132 -1050 -78 0 -191 778 -263 1800 -18 248 -64 686 -103 975 -50 363 -37 525 40 525 62 0 133 -101 158 -225z m17651 -34 c-65 -78 -157 -141 -205 -141 -136 0 -104 278 37 328 200 72 295 -34 168 -187z m-15793 -153 c0 -35 -62 -115 -138 -178 -145 -120 -262 36 -262 349 0 118 35 121 200 18 110 -69 200 -154 200 -189z m4677 37 c-84 -96 -174 -435 -199 -754 -25 -318 -103 -633 -174 -700 -106 -98 -118 12 -67 596 78 890 132 1033 389 1033 187 0 192 -15 51 -175z m-8035 -238 c-79 -128 -242 -6 -242 181 0 127 28 133 149 33 82 -68 124 -164 93 -214z m6810 -706 c11 -374 -12 -681 -52 -681 -80 0 -199 854 -196 1400 4 662 225 21 248 -719z m14248 769 c0 -137 -40 -250 -89 -250 -117 0 -228 292 -155 409 109 176 244 88 244 -159z m-16115 61 c181 -114 106 -450 -111 -492 -135 -26 -174 36 -174 274 0 319 57 363 285 218z m4175 -271 c-36 -93 -87 -146 -115 -119 -27 28 -21 126 15 219 36 93 87 146 115 119 27 -28 21 -126 -15 -219z m-6707 -355 c75 -342 -20 -985 -146 -985 -147 0 -194 397 -57 475 109 62 108 145 -7 475 -178 509 -178 604 1 455 79 -65 173 -254 209 -420z m624 -514 c45 -697 -61 -1171 -262 -1171 -42 0 -61 281 -41 625 20 344 40 820 43 1058 12 706 206 323 260 -512z m4283 656 c-101 -102 -185 51 -102 186 63 102 87 102 121 1 23 -70 15 -154 -19 -187z m6856 -151 c-56 -56 -184 -71 -284 -32 -167 65 -161 88 68 275 228 186 253 189 284 32 19 -95 -11 -218 -68 -275z m-10228 -668 c18 -664 -56 -453 -119 342 -35 442 -26 589 26 400 45 -165 87 -499 93 -742z m2001 308 c-21 -599 -68 -816 -177 -816 -36 0 -60 304 -52 675 18 846 18 850 145 772 57 -36 95 -319 84 -631z m-6191 15 c1 -66 -43 -147 -98 -181 -55 -34 -104 -205 -110 -381 -9 -305 -14 -308 -90 -69 -44 138 -84 475 -88 750 l-8 500 196 -250 c108 -137 197 -304 198 -369z m14917 55 c-73 -252 -99 -280 -106 -111 -9 225 -209 329 -209 108 0 -64 -24 -93 -52 -64 -94 94 65 369 236 407 233 52 239 37 131 -340z m-14315 -306 c0 -577 -172 -560 -202 20 -24 460 -16 500 102 500 55 0 100 -234 100 -520z m14800 164 c0 -79 45 -144 100 -144 109 0 137 -686 39 -942 -82 -213 -718 -208 -956 7 -180 164 -270 939 -108 932 189 -8 430 -297 487 -583 70 -349 152 -388 341 -161 104 126 95 176 -52 284 -142 104 -165 208 -110 500 65 345 259 425 259 107z m-10644 -721 c-116 -116 -141 45 -75 479 l69 448 31 -435 c17 -240 6 -461 -25 -492z m-3292 9 c42 -325 29 -449 -39 -382 -56 55 -123 342 -150 639 -59 659 99 445 189 -257z m2227 368 c-3 -99 -34 -82 -91 50 -118 275 -118 433 0 250 53 -82 94 -217 91 -300z m1909 150 c0 -82 -44 -150 -97 -150 -53 0 -71 68 -39 150 31 83 75 150 97 150 21 0 39 -67 39 -150z m15866 -277 c-28 -68 -49 12 -47 177 3 165 25 220 50 123 26 -97 24 -232 -3 -300z m-8486 32 c-68 -108 -136 -182 -154 -165 -59 60 96 360 186 360 49 0 35 -88 -32 -195z m7520 51 c0 -79 -45 -172 -100 -206 -55 -34 -100 31 -100 144 0 113 45 206 100 206 55 0 100 -65 100 -144z m-4250 -157 c35 -55 -8 -127 -94 -160 -242 -93 -184 -239 94 -239 138 0 250 -45 250 -100 0 -167 -573 -115 -639 58 -121 315 -65 542 133 542 107 0 222 -45 256 -101z m1050 1 c0 -55 -90 -100 -200 -100 -110 0 -200 -45 -200 -100 0 -55 -73 -100 -162 -100 -236 0 9 275 294 330 120 24 229 49 243 56 14 8 25 -31 25 -86z m-9500 -119 c0 -160 -231 -193 -371 -53 -136 136 -125 151 109 137 144 -8 262 -46 262 -84z m13972 -656 c-23 -151 -42 -28 -42 275 0 303 19 426 42 275 23 -151 23 -399 0 -550z m-16472 375 c0 -55 -45 -100 -100 -100 -55 0 -100 45 -100 100 0 55 45 100 100 100 55 0 100 -45 100 -100z m7000 6 c0 -118 -195 -244 -267 -173 -71 72 55 267 173 267 52 0 94 -42 94 -94z m9900 -62 c0 -24 -45 -44 -100 -44 -55 0 -100 48 -100 106 0 58 45 78 100 44 55 -34 100 -82 100 -106z m-21434 -269 c-28 -69 -50 -12 -50 125 0 138 22 194 50 125 28 -69 28 -181 0 -250z m6419 215 c173 -60 315 -144 315 -185 0 -153 -739 -1039 -775 -929 -21 62 10 203 69 312 71 133 73 221 6 262 -126 78 -328 -433 -265 -673 26 -99 -47 -402 -163 -675 -163 -388 -238 -472 -341 -387 -72 60 -131 303 -131 541 0 343 41 443 200 494 126 40 200 151 200 301 0 130 45 265 100 299 131 81 129 250 -3 250 -57 0 -203 -168 -324 -374 -168 -283 -229 -330 -255 -195 -19 98 16 240 79 315 71 86 77 158 15 197 -120 74 -412 -323 -412 -559 0 -95 45 -200 100 -234 55 -34 100 -286 100 -561 0 -411 47 -542 265 -744 145 -135 303 -245 350 -245 47 0 85 -45 85 -100 0 -55 -199 -100 -442 -100 -313 0 -526 -67 -725 -229 -156 -127 -542 -384 -858 -572 -316 -187 -575 -377 -575 -420 0 -136 -353 -86 -556 79 -169 138 -171 151 -17 102 105 -33 260 27 379 146 111 111 313 244 450 296 136 52 291 209 344 349 111 291 215 345 759 394 215 19 436 40 491 47 55 7 -7 94 -137 195 -186 143 -236 273 -231 611 7 479 -213 811 -408 616 -63 -63 -198 -114 -301 -114 -103 0 -380 -113 -616 -251 -236 -139 -604 -262 -818 -275 -382 -24 -390 -17 -420 351 -28 342 -9 375 219 375 138 0 278 -45 312 -100 76 -124 518 -132 593 -12 30 49 253 182 495 296 297 140 436 266 427 387 -11 132 47 172 219 154 163 -18 250 35 287 175 36 139 136 200 330 200 155 0 303 67 335 150 70 181 779 204 1249 40z m13813 -371 c1 -129 -42 -203 -98 -169 -55 34 -99 205 -98 381 1 243 24 283 98 169 53 -82 98 -254 98 -381z m-20649 -298 c188 -100 184 -109 -66 -172 -398 -99 -683 98 -683 473 l0 315 275 -255 c151 -140 364 -303 474 -361z m151 273 c0 -58 -45 -78 -100 -44 -55 34 -100 82 -100 106 0 24 45 44 100 44 55 0 100 -48 100 -106z m992 -30 c-111 -94 -696 -152 -641 -62 33 54 201 98 372 98 170 0 292 -16 269 -36z m18408 -149 c0 -46 -90 -165 -200 -265 -159 -144 -200 -151 -200 -35 0 156 190 385 320 385 44 0 80 -38 80 -85z m-15931 -461 c-35 -104 -469 -213 -469 -117 0 27 48 177 107 331 105 273 112 276 252 86 79 -108 128 -243 110 -300z m16091 -27 c-101 -102 -185 51 -102 186 63 102 87 102 121 1 23 -70 15 -154 -19 -187z m1340 -27 c0 -110 -45 -200 -100 -200 -55 0 -100 90 -100 200 0 110 45 200 100 200 55 0 100 -90 100 -200z m-12345 -375 c-33 -152 -67 -534 -75 -850 -13 -469 -47 -575 -185 -575 -491 0 -502 895 -17 1404 339 357 352 358 277 21z m11502 -282 c-199 -199 -203 -443 -7 -443 239 0 174 -261 -111 -448 -248 -163 -279 -162 -609 13 -415 221 -488 317 -346 459 74 74 180 57 357 -59 305 -200 359 -205 359 -30 0 267 -368 488 -693 416 l-307 -67 171 298 c145 252 219 291 475 251 167 -27 417 -5 554 47 208 79 255 64 282 -93 18 -103 -39 -258 -125 -344z m-15535 -368 c-44 -494 -185 -641 -240 -250 -38 268 -225 211 -247 -75 -29 -382 -39 -399 -135 -250 -53 83 -98 299 -98 481 -1 195 -43 305 -102 269 -55 -34 -100 -278 -100 -542 0 -458 -11 -478 -250 -432 -255 48 -327 306 -188 670 90 234 598 468 870 400 149 -38 280 -2 365 100 171 206 176 191 125 -371z m1758 37 c-71 -226 -163 -412 -204 -412 -115 0 -92 168 75 569 200 479 292 367 129 -157z m14597 370 c-58 -174 -355 -337 -447 -245 -44 44 8 143 114 221 236 173 387 184 333 24z m-2427 -282 c-100 -110 -268 -200 -374 -200 -304 0 -146 -246 182 -283 160 -18 335 -74 387 -125 52 -50 168 -92 258 -92 89 0 261 -106 383 -235 206 -219 209 -245 51 -375 -131 -109 -179 -112 -212 -15 -23 69 -123 125 -222 125 -99 0 -254 113 -344 250 -90 138 -208 250 -261 250 -172 0 -105 -363 102 -550 261 -236 254 -372 -15 -332 -150 22 -258 155 -353 430 -76 219 -271 536 -435 705 -163 169 -297 338 -297 377 0 38 169 74 375 80 206 5 488 46 625 90 138 44 268 85 290 90 23 6 -40 -80 -140 -190z m-15527 -558 c-44 -229 -67 -241 -198 -110 -160 160 -94 368 117 368 86 0 114 -88 81 -258z m13791 -243 c68 -479 -45 -1798 -186 -2178 -85 -228 -85 -228 -312 79 -202 273 -214 342 -106 641 164 452 67 709 -203 540 -238 -149 -420 -14 -205 152 247 191 498 643 498 897 0 582 428 473 514 -131z m-17485 1 c29 -110 11 -200 -38 -200 -50 0 -91 90 -91 200 0 110 17 200 38 200 21 0 62 -90 91 -200z m16271 8 c0 -264 -106 -516 -194 -462 -100 62 -5 654 105 654 49 0 89 -86 89 -192z m1782 -197 c329 -586 277 -883 -104 -586 -175 137 -352 975 -205 975 50 0 188 -175 309 -389z m-2301 -786 c14 -977 -128 -1448 -218 -717 -66 541 -66 736 2 1217 92 658 202 404 216 -500z m-5926 -144 c-139 -98 -355 107 -355 338 0 107 52 292 117 412 109 204 124 188 227 -231 72 -294 76 -474 11 -519z m5131 -337 c17 -897 -122 -1083 -212 -285 -44 390 65 1141 166 1141 16 0 37 -385 46 -856z m-5667 688 c-72 -29 -159 -26 -192 8 -33 33 26 56 131 52 117 -5 141 -28 61 -60z m4281 -270 c0 -176 -67 -251 -252 -287 -220 -42 -244 -21 -187 163 123 396 439 485 439 124z m500 38 c0 -55 -45 -100 -100 -100 -55 0 -100 45 -100 100 0 55 45 100 100 100 55 0 100 -45 100 -100z m4700 -588 c0 -493 -43 -723 -152 -814 -134 -111 -150 -38 -138 613 14 771 40 889 196 889 52 0 94 -309 94 -688z m444 297 c69 -111 -36 -409 -143 -409 -43 0 -99 113 -125 250 -48 247 144 360 268 159z m-4844 -265 c0 -79 -45 -144 -100 -144 -55 0 -100 93 -100 206 0 113 45 178 100 144 55 -34 100 -127 100 -206z m2053 52 c35 -58 8 -172 -61 -255 -100 -121 -141 -125 -207 -21 -45 72 -83 186 -83 255 -2 151 260 167 351 21z m1816 -471 c-25 -96 -46 -17 -46 175 0 192 21 271 46 175 25 -96 25 -254 0 -350z m3681 375 c-34 -55 -82 -100 -106 -100 -24 0 -44 45 -44 100 0 55 48 100 106 100 58 0 78 -45 44 -100z m-8244 -184 c160 -131 206 -240 155 -373 -57 -149 -89 -159 -156 -51 -47 76 -157 109 -247 75 -157 -60 -134 -167 122 -564 17 -26 71 18 120 97 49 79 117 117 150 83 34 -33 -54 -185 -194 -336 -199 -214 -256 -238 -256 -107 0 93 -135 246 -299 340 -234 133 -291 225 -259 420 23 138 45 329 50 425 11 239 514 233 814 -9z m-10963 -349 c-36 -92 -109 -167 -164 -167 -55 0 -73 71 -40 158 34 87 61 209 61 270 0 77 32 80 103 9 57 -57 75 -179 40 -270z m19245 -292 c-11 -390 -17 -400 -81 -125 -38 165 -51 356 -28 425 80 237 121 124 109 -300z m-5632 -93 c34 -109 36 -223 4 -256 -80 -80 -460 275 -460 430 0 196 385 49 456 -174z m444 68 c0 -82 -45 -150 -100 -150 -55 0 -100 68 -100 150 0 83 45 150 100 150 55 0 100 -67 100 -150z m1019 -647 c26 -550 5 -651 -144 -682 -146 -30 -175 39 -175 409 0 587 107 1103 208 1001 44 -44 94 -372 111 -728z m431 347 c0 -156 -56 -302 -125 -325 -85 -28 -125 76 -125 325 0 249 40 353 125 325 69 -23 125 -169 125 -325z m2851 75 c1 -151 29 -376 62 -500 105 -393 -126 -242 -247 162 -152 507 -146 613 34 613 97 0 150 -98 151 -275z m468 -301 c-25 -96 -45 6 -44 226 1 220 22 298 46 174 24 -125 23 -305 -2 -400z m-923 -243 c122 -411 128 -535 29 -597 -138 -86 -243 230 -263 791 -17 464 57 403 234 -194z m-3346 19 c0 -242 -162 -344 -236 -149 -74 191 29 465 146 393 50 -31 90 -140 90 -244z m2800 -138 c0 -76 -67 -194 -150 -262 -125 -103 -150 -91 -150 71 0 108 30 226 67 262 111 112 233 75 233 -71z m-4900 -462 c0 -110 -42 -200 -94 -200 -134 0 -229 182 -156 300 105 169 250 111 250 -100z m3012 -560 l-92 -390 -10 358 c-5 197 20 389 57 425 123 123 137 0 45 -393z m2634 153 c-86 -139 -146 -113 -146 63 0 86 46 128 102 93 56 -35 75 -105 44 -156z m-3037 -424 c-79 -79 -109 -53 -109 94 0 265 140 405 184 185 19 -93 -14 -218 -75 -279z m-2609 131 c0 -133 -67 -200 -200 -200 -193 0 -271 196 -133 333 137 138 333 60 333 -133z m-2955 -209 c-32 -52 -101 -68 -154 -36 -52 32 -68 101 -36 154 32 52 101 68 154 36 52 -32 68 -101 36 -154z m10655 59 c0 -83 -89 -150 -200 -150 -221 0 -271 155 -75 234 218 88 275 70 275 -84z"/>
<path d="M16466 15989 c-293 -1555 -329 -1919 -148 -1489 179 424 369 1545 279 1639 -49 51 -105 -13 -131 -150z"/>
<path d="M15856 13635 c-146 -318 -351 -658 -456 -756 -105 -98 -218 -347 -251 -554 -64 -402 -252 -846 -500 -1186 -137 -187 -138 -224 -3 -335 126 -105 166 -84 246 125 53 139 139 278 192 311 53 33 149 296 214 585 128 575 307 1097 401 1175 94 78 508 1126 462 1172 -22 22 -160 -219 -305 -537z"/>
<path d="M15271 13668 c-94 -143 -279 -594 -413 -1002 -305 -936 -555 -1425 -1114 -2185 -244 -332 -443 -654 -441 -717 3 -111 68 -40 459 498 103 142 327 445 496 673 170 228 454 843 632 1365 178 523 390 1054 473 1181 82 127 133 280 114 339 -20 59 -113 -10 -206 -152z"/>
<path d="M14000 9935 c0 -55 -180 -340 -399 -634 -220 -295 -374 -561 -343 -592 31 -32 95 10 141 92 46 82 200 284 343 449 278 322 413 629 317 724 -32 33 -59 15 -59 -39z"/>
<path d="M14457 9531 c-188 -345 -457 -636 -830 -896 -554 -387 -1265 -997 -1076 -924 56 21 466 309 912 639 783 579 1398 1316 1314 1570 -23 68 -167 -107 -320 -389z"/>
<path d="M4470 24850 c117 -82 285 -123 372 -89 283 108 167 239 -214 239 -360 0 -365 -5 -158 -150z"/>
<path d="M10534 24725 c77 -151 192 -635 256 -1075 64 -440 250 -1180 413 -1645 163 -465 297 -969 297 -1119 0 -151 45 -302 100 -336 178 -110 108 485 -160 1355 -143 465 -340 1273 -437 1795 -206 1110 -274 1300 -466 1300 -122 0 -123 -39 -3 -275z"/>
<path d="M15500 24919 c0 -147 282 -470 351 -401 109 109 -52 482 -208 482 -79 0 -143 -36 -143 -81z"/>
<path d="M22327 24940 c33 -34 120 -37 192 -8 80 32 56 55 -61 60 -105 4 -164 -19 -131 -52z"/>
<path d="M23432 24930 c105 -27 160 -106 130 -186 -96 -248 103 -243 322 9 l215 247 -425 -12 c-233 -6 -342 -32 -242 -58z"/>
<path d="M23963 24558 c-305 -334 -415 -839 -242 -1113 36 -57 24 -170 -26 -250 -123 -194 -120 -422 5 -345 179 111 105 -216 -111 -492 -117 -148 -191 -290 -165 -316 26 -25 391 344 812 821 570 647 764 939 764 1152 0 157 -34 285 -75 285 -41 0 -165 135 -275 300 -110 165 -239 300 -287 300 -47 0 -227 -154 -400 -342z m380 -608 c-147 -192 -312 -350 -367 -350 -95 0 -21 125 310 525 274 330 324 175 57 -175z m407 50 c-34 -55 -82 -100 -106 -100 -24 0 -44 45 -44 100 0 55 48 100 106 100 58 0 78 -45 44 -100z m-452 -652 c-70 -84 -147 -132 -172 -107 -70 69 71 259 192 259 66 0 59 -57 -20 -152z"/>
<path d="M19689 23522 c-500 -515 -531 -597 -229 -597 141 0 280 62 309 138 30 78 195 137 386 137 388 0 564 188 252 269 -153 40 -196 108 -153 243 97 306 -170 216 -565 -190z"/>
<path d="M24458 22441 c-271 -325 -541 -637 -600 -693 -264 -249 -481 -548 -398 -548 49 0 420 314 823 697 545 519 723 753 699 916 -28 189 -99 138 -524 -372z"/>
<path d="M24633 21999 c-318 -357 -357 -532 -129 -576 99 -19 220 119 335 380 232 525 154 599 -206 196z"/>
<path d="M24222 18109 c-910 -949 -854 -877 -777 -1000 73 -118 455 75 455 230 0 127 807 861 947 861 62 0 118 158 123 350 6 193 3 343 -5 334 -8 -8 -343 -357 -743 -775z"/>
<path d="M12349 18225 c39 -261 70 -970 69 -1575 -1 -735 25 -993 77 -778 102 420 134 2023 49 2475 -103 546 -279 436 -195 -122z"/>
<path d="M24908 17058 c-4 -105 19 -164 52 -131 34 33 37 120 8 192 -32 80 -55 56 -60 -61z"/>
<path d="M24547 16668 c-40 -100 -28 -227 28 -283 141 -141 216 22 123 265 -72 188 -81 189 -151 18z"/>
<path d="M12303 15245 c3 -259 16 -272 110 -110 77 132 76 216 -3 295 -80 80 -109 30 -107 -185z"/>
<path d="M12286 14675 c-52 -839 -43 -1893 18 -2275 86 -536 103 -372 127 1275 11 674 -15 1225 -56 1225 -41 0 -81 -101 -89 -225z"/>
<path d="M24451 13702 c-55 -89 84 -1097 211 -1527 28 -96 116 -175 195 -175 162 0 186 114 54 255 -136 145 -309 1082 -245 1328 58 218 -100 305 -215 119z"/>
<path d="M20697 8447 c-187 -193 -487 -451 -668 -574 -181 -122 -351 -290 -378 -373 -27 -82 -241 -271 -475 -418 -386 -243 -519 -269 -1423 -273 -983 -5 -1003 -10 -1537 -378 -298 -205 -492 -389 -432 -409 61 -20 258 74 438 210 386 290 1703 555 1909 384 278 -231 987 166 2019 1130 550 514 974 960 943 993 -31 32 -209 -100 -396 -292z"/>
<path d="M16604 6082 c-521 -599 -907 -934 -1542 -1341 -379 -243 -714 -441 -746 -441 -153 0 777 833 1066 955 324 137 357 345 55 345 -429 0 -1815 -1578 -1536 -1750 54 -34 101 -160 103 -281 3 -184 25 -171 137 87 239 547 747 959 1908 1544 164 82 351 257 416 389 145 294 316 407 618 409 291 2 238 239 -63 284 -128 18 -295 -62 -416 -200z"/>
<path d="M24634 5523 c-174 -150 -491 -421 -704 -602 -213 -181 -449 -429 -525 -550 -109 -175 -65 -159 215 79 194 165 584 424 866 575 408 218 514 326 514 525 0 137 -11 249 -25 248 -14 0 -167 -124 -341 -275z"/>
<path d="M22499 3697 c-192 -158 -675 -503 -1072 -767 -398 -264 -725 -519 -725 -567 -1 -47 122 -7 273 89 519 330 1840 1291 1892 1376 121 196 -41 138 -368 -131z"/>
<path d="M3475 3543 c-177 -180 -11 -1547 216 -1774 148 -148 250 -14 152 202 -45 98 -130 510 -188 914 -58 404 -139 700 -180 658z"/>
<path d="M6625 3378 c-234 -113 -304 -278 -118 -278 171 0 493 198 493 304 0 119 -86 113 -375 -26z"/>
<path d="M9900 3262 c0 -29 137 -286 305 -570 167 -284 287 -534 265 -555 -21 -21 -192 72 -379 208 -638 462 -931 581 -1543 630 -636 51 -937 -47 -1428 -468 -211 -181 -221 -232 -120 -607 117 -435 361 -622 509 -390 185 294 92 -209 -109 -584 -110 -205 -200 -434 -200 -508 0 -74 -56 -116 -125 -93 -81 26 -146 348 -185 904 -65 952 -189 1197 -581 1151 -210 -24 -254 -78 -234 -280 84 -855 67 -1022 -114 -1154 -123 -90 -163 -197 -116 -316 66 -171 76 -171 198 -5 169 230 257 221 257 -25 0 -110 -40 -200 -89 -200 -49 0 -115 -65 -145 -145 -80 -207 814 -341 953 -143 74 107 108 110 147 13 93 -230 234 -128 234 169 0 377 133 455 438 255 133 -88 370 -146 525 -129 171 18 289 -20 297 -95 8 -69 21 -159 28 -200 7 -41 440 -89 962 -105 789 -25 950 -5 950 119 0 82 52 181 116 221 79 49 98 4 59 -143 -50 -194 -18 -213 327 -200 280 11 396 65 431 199 64 245 272 235 338 -16 29 -110 115 -200 191 -200 165 0 171 51 34 307 -90 168 -69 193 161 193 232 0 257 -31 202 -250 -77 -305 45 -321 300 -40 187 206 186 212 -60 411 -137 111 -249 249 -249 307 0 58 -135 149 -300 202 -365 117 -650 353 -650 539 0 75 -79 167 -175 204 -189 71 -425 277 -425 370 0 100 586 61 650 -43 79 -128 350 -130 350 -3 0 181 -545 375 -919 329 -347 -44 -381 -23 -551 337 -99 212 -259 399 -355 418 -96 19 -175 10 -175 -19z m-1422 -1495 c17 -477 -6 -867 -51 -867 -140 0 -340 1078 -270 1453 119 635 289 326 321 -586z m673 -120 c35 -493 80 -953 103 -1022 64 -200 -94 -144 -236 84 -170 272 -135 2041 37 1870 19 -20 62 -439 96 -932z m-1651 659 c0 -52 -45 -122 -100 -156 -55 -34 -100 8 -100 94 0 86 45 156 100 156 55 0 100 -42 100 -94z m2151 -7 c87 -141 -45 -514 -158 -445 -122 76 -121 546 1 546 52 0 122 -45 157 -101z m-2980 -1220 c34 -1075 -140 -907 -229 222 -56 711 -45 828 68 722 87 -83 144 -418 161 -944z m1229 865 c0 -24 -45 -44 -100 -44 -55 0 -100 48 -100 106 0 58 45 78 100 44 55 -34 100 -82 100 -106z m2500 -138 c0 -52 -45 -122 -100 -156 -55 -34 -100 8 -100 94 0 86 45 156 100 156 55 0 100 -42 100 -94z m911 -863 c120 -643 -40 -803 -281 -283 -99 215 -236 449 -305 522 -135 143 -169 541 -55 654 145 146 553 -423 641 -893z m-3318 382 c4 -69 -38 -125 -93 -125 -55 0 -97 146 -93 325 6 272 21 293 93 125 47 -110 89 -256 93 -325z m1918 -554 c-81 -81 -109 -6 -103 284 8 391 9 392 111 111 73 -201 71 -316 -8 -395z m1989 71 c0 -87 -53 -141 -119 -119 -185 62 -216 277 -39 277 87 0 158 -71 158 -158z m-1327 -312 c-217 -217 -323 -111 -172 172 86 161 147 190 229 108 82 -82 67 -156 -57 -280z m-473 -386 c0 -24 -45 -44 -100 -44 -55 0 -100 48 -100 106 0 58 45 78 100 44 55 -34 100 -82 100 -106z"/>
<path d="M12325 1575 c164 -247 582 -304 653 -90 33 97 -12 118 -154 73 -132 -42 -220 -11 -259 89 -32 84 -133 153 -224 153 -149 0 -151 -22 -16 -225z"/>
<path d="M17400 1662 c0 -76 66 -192 147 -259 81 -67 137 -168 125 -225 -12 -57 34 -124 103 -149 176 -64 155 232 -37 525 -177 271 -338 323 -338 108z"/>
<path d="M20600 500 c0 -275 45 -500 100 -500 55 0 100 225 100 500 0 275 -45 500 -100 500 -55 0 -100 -225 -100 -500z"/>
<path d="M2053 271 c-43 -99 -50 -208 -15 -242 101 -102 183 41 136 238 -41 175 -47 175 -121 4z"/>
<path d="M4950 100 c-34 -55 8 -100 94 -100 86 0 156 45 156 100 0 55 -42 100 -94 100 -52 0 -122 -45 -156 -100z"/>
</g>
</svg>