<svg xmlns="http://www.w3.org/2000/svg" version="1.0" width="250" height="250" viewBox="0 0 250.000000 250.000000" preserveAspectRatio="xMidYMid meet">
<metadata>
Created by potrace 1.10, written by Peter Selinger 2001-2011
</metadata>
<g transform="translate(0.000000,250.000000) scale(0.010000,-0.010000)" fill="#555555" stroke="none">
<path d="M0 12500 l0 -12500 250 0 c204 0 251 50 258 275 l8 275 100 -275 c232 -634 658 -120 671 809 12 891 192 2231 364 2720 81 229 122 458 92 508 -31 50 87 341 262 647 335 585 1093 1234 1448 1239 111 1 291 63 400 138 223 154 658 256 1412 330 l516 51 415 -561 c228 -309 458 -534 512 -501 54 34 -14 192 -155 360 -284 338 -319 485 -114 485 76 0 235 -204 353 -454 117 -250 257 -428 310 -395 57 35 15 219 -103 450 -212 416 -248 599 -120 599 44 0 166 -255 272 -566 106 -312 269 -638 363 -726 104 -97 206 -422 261 -828 95 -710 -2 -823 -170 -198 -117 435 -357 799 -459 697 -98 -98 578 -1676 718 -1678 209 -2 486 -971 331 -1157 -60 -73 -10 -360 141 -803 128 -380 265 -860 303 -1066 46 -243 125 -375 226 -375 110 0 135 52 83 175 -139 332 -441 1709 -434 1975 5 172 15 168 71 -31 36 -127 110 -217 165 -200 55 17 90 60 78 96 -12 36 -44 454 -71 928 -27 475 -76 907 -109 960 -32 52 -15 174 39 270 84 150 106 132 161 -124 35 -165 106 -488 158 -718 52 -231 94 -687 94 -1013 0 -585 194 -1241 405 -1371 158 -98 193 -33 353 654 80 343 193 696 250 786 85 131 94 114 47 -87 -32 -137 -102 -587 -156 -1000 -53 -412 -124 -874 -156 -1025 -43 -203 -20 -275 90 -275 104 0 167 155 211 525 136 1144 296 1858 577 2575 162 413 336 793 386 845 51 52 93 158 93 235 0 76 92 268 204 426 177 249 237 273 460 189 141 -54 736 -114 1321 -133 l1065 -36 31 -486 c18 -267 71 -510 118 -539 47 -29 -49 -323 -214 -652 -165 -330 -361 -763 -435 -964 -74 -201 -258 -617 -408 -925 -263 -536 -455 -682 -595 -455 -86 140 -273 72 -304 -110 -13 -80 -56 -227 -96 -326 -65 -161 -25 -178 350 -150 387 28 445 70 672 481 136 248 347 608 469 800 122 193 355 636 517 985 709 1526 1007 2065 1159 2094 211 40 786 -472 611 -544 -69 -28 -125 -127 -126 -218 -1 -92 -158 -365 -350 -606 -192 -242 -349 -534 -349 -650 0 -116 -197 -509 -436 -874 -536 -815 -798 -1487 -580 -1487 46 0 144 181 216 401 73 221 193 452 266 513 74 61 134 169 134 241 0 71 108 258 240 415 132 157 291 474 353 704 62 229 161 448 220 484 181 112 14 -339 -504 -1358 -603 -1188 -674 -1400 -468 -1400 86 0 186 123 224 274 84 336 553 1126 667 1126 47 0 69 -315 51 -700 -23 -487 3 -700 84 -700 181 0 259 545 184 1280 -38 367 -88 698 -111 737 -24 38 -1 95 50 127 183 113 337 -662 281 -1410 -31 -404 -17 -734 30 -734 100 0 159 184 254 800 38 248 179 667 313 933 144 285 231 610 213 792 -38 377 -281 503 -281 146 0 -391 -117 -871 -212 -871 -49 0 -88 83 -88 185 0 101 -88 264 -196 362 -195 176 -195 182 59 640 140 255 289 498 329 541 134 141 386 -36 441 -310 30 -147 108 -476 174 -730 100 -383 96 -511 -26 -750 -81 -158 -263 -513 -405 -788 -320 -620 -421 -950 -290 -950 55 0 215 236 356 525 141 289 370 723 508 966 264 466 321 1010 150 1459 -91 240 -82 258 109 197 548 -174 1213 -521 1114 -583 -64 -40 -87 -209 -54 -412 51 -313 4 -399 -537 -973 -740 -785 -1003 -1179 -787 -1179 83 0 227 124 320 275 93 151 416 530 717 843 399 414 564 669 608 944 l62 377 193 -295 c216 -327 477 -1519 350 -1597 -110 -68 -222 128 -145 253 34 55 -10 100 -98 100 -185 0 -1017 -589 -1094 -775 -86 -208 255 -140 456 91 103 119 221 180 262 136 41 -44 18 -99 -51 -124 -69 -25 -125 -86 -125 -136 0 -53 956 -92 2259 -92 l2258 0 -242 425 c-133 234 -338 594 -457 800 -131 228 -169 375 -98 375 161 0 900 -810 1132 -1241 187 -348 204 -355 770 -339 623 17 689 62 378 257 -260 162 -260 356 0 273 187 -59 200 -18 200 649 0 392 -39 689 -86 660 -47 -29 -63 -285 -36 -569 40 -411 22 -507 -89 -470 -149 50 -155 348 -107 6064 12 1503 -6 2951 -42 3217 -56 422 -37 499 148 615 171 106 212 231 212 638 0 278 -56 566 -125 638 -100 106 -100 142 0 179 69 25 125 182 125 348 0 266 -28 296 -230 245 -126 -32 -362 -22 -525 21 -346 93 -469 415 -158 415 111 0 227 42 258 92 32 51 192 122 356 158 165 36 299 131 299 211 0 118 -119 132 -650 78 -645 -66 -650 -65 -650 185 0 138 -67 308 -150 376 -82 68 -150 172 -150 231 0 184 444 768 584 768 74 1 249 91 389 201 140 110 338 200 440 200 169 0 187 87 184 875 -2 551 -51 937 -131 1043 -95 125 -105 317 -40 750 49 320 112 1105 140 1744 49 1147 47 1166 -208 1421 -326 326 -327 638 -3 1115 141 207 242 472 224 589 -29 201 -49 195 -356 -106 -179 -175 -353 -458 -388 -630 -43 -217 -106 -295 -207 -256 -79 30 -186 55 -236 55 -153 0 -103 589 78 930 131 246 179 280 207 145 60 -281 293 -202 357 122 42 210 135 316 313 361 232 58 253 109 253 603 l0 539 -345 0 c-341 0 -344 -3 -237 -308 79 -226 76 -338 -10 -424 -89 -89 -134 -88 -190 4 -158 255 -724 405 -1134 301 -453 -115 -577 -44 -404 232 118 190 87 195 -1179 195 -912 0 -1294 -34 -1276 -112 14 -62 -31 -134 -100 -159 -80 -29 -103 11 -64 113 49 128 -17 158 -350 158 -282 0 -411 -43 -411 -138 0 -209 253 -374 455 -296 142 54 166 32 112 -107 -37 -96 -67 -211 -67 -255 0 -43 -157 -6 -349 84 -303 141 -341 198 -292 437 52 253 32 275 -251 275 -327 0 -384 -84 -188 -280 93 -93 85 -120 -38 -120 -87 0 -182 90 -211 200 -29 110 -118 200 -198 200 -107 0 -135 -93 -107 -350 21 -192 9 -350 -28 -350 -113 0 -331 342 -335 525 -2 107 -80 175 -201 175 -170 0 -184 -35 -100 -257 125 -326 123 -849 -2 -1043 -74 -114 -97 -74 -98 169 -1 176 -47 347 -102 381 -55 34 -100 148 -100 252 0 251 -290 397 -575 289 -255 -96 -260 -119 -132 -567 105 -367 20 -414 -237 -131 -189 210 -148 501 108 756 134 135 123 151 -96 151 -141 0 -275 -74 -313 -172 -56 -147 -79 -151 -157 -25 -69 112 -335 151 -1132 162 -1018 15 -1041 10 -996 -200 45 -215 45 -215 -153 10 -333 377 -568 263 -270 -131 81 -107 148 -228 150 -269 6 -148 -289 -72 -385 99 -179 320 -246 33 -81 -348 90 -207 189 -556 220 -776 l57 -400 -208 378 c-114 208 -250 353 -301 322 -99 -62 124 -621 430 -1075 241 -359 49 -359 -213 0 -110 151 -230 244 -267 207 -102 -101 42 -465 265 -673 196 -184 196 -186 -99 -289 -164 -57 -317 -85 -340 -61 -50 49 -1 1823 72 2666 40 464 21 575 -99 575 -109 0 -149 -123 -152 -475 -2 -261 -30 -1097 -62 -1858 -55 -1295 -74 -1398 -304 -1628 -224 -224 -240 -227 -180 -39 36 114 64 997 62 1962 -2 1496 19 1748 143 1700 92 -35 145 7 145 116 0 110 -85 177 -234 185 l-235 14 -69 -2364 c-75 -2532 -138 -3122 -342 -3190 -89 -29 -113 29 -78 192 75 347 105 1712 80 3660 -19 1457 -45 1725 -172 1725 -82 0 -150 -70 -150 -156 0 -86 -44 -129 -98 -95 -59 36 -89 -100 -75 -344 13 -222 57 -404 98 -404 113 -1 90 -279 -26 -318 -57 -19 -104 -430 -108 -955 -8 -962 59 -1256 230 -1014 62 89 75 -161 38 -714 -32 -467 -58 -1019 -58 -1225 -1 -209 -50 -375 -113 -375 -78 0 -90 197 -42 650 48 442 35 650 -38 650 -67 0 -108 -267 -108 -706 0 -388 -34 -685 -75 -659 -41 25 -70 1310 -63 2855 12 2684 4 2810 -175 2810 -163 0 -187 -81 -187 -629 0 -346 -19 -1369 -42 -2275 -26 -1023 0 -1804 69 -2065 123 -462 -24 -983 -253 -904 -89 30 -125 380 -128 1232 -14 4004 -42 4641 -200 4641 -131 0 -144 -128 -85 -900 57 -756 44 -900 -79 -900 -116 0 -152 173 -168 814 -19 798 -56 986 -195 986 -38 0 -85 -1046 -105 -2325 -20 -1279 -42 -2685 -50 -3125 -8 -448 30 -822 86 -850 64 -32 132 755 189 2179 63 1548 124 2217 200 2191 75 -25 120 -705 138 -2106 l27 -2070 -438 -422 c-241 -232 -493 -512 -559 -622 -100 -166 -109 -115 -56 300 36 275 86 1929 113 3675 40 2706 26 3175 -95 3175 -120 0 -141 -381 -131 -2395 10 -1915 -16 -2421 -126 -2525 -115 -109 -129 -86 -88 145 26 151 10 275 -38 275 -47 0 -79 -461 -71 -1025 12 -810 30 -931 88 -575 59 364 72 288 67 -400 -4 -674 -48 -922 -213 -1200 -196 -332 -209 -338 -241 -112 -50 356 77 912 209 912 84 0 83 32 -5 120 -204 204 -113 2649 94 2522 47 -30 86 59 86 196 0 138 -50 281 -112 319 -79 49 -91 536 -39 1695 39 895 41 1721 4 1837 -148 468 -236 148 -290 -1064 -32 -701 -84 -1500 -116 -1775 -42 -362 -29 -458 46 -350 77 110 104 -28 105 -525 1 -371 -32 -675 -73 -675 -41 0 -79 -529 -85 -1175 -13 -1623 -76 -2623 -165 -2624 -125 -2 -139 2473 -31 5519 72 2026 18 2880 -180 2880 -82 0 -105 -517 -83 -1850 20 -1161 -5 -1850 -66 -1850 -54 0 -121 56 -149 125 -28 69 -54 -130 -58 -442 -4 -315 39 -582 97 -601 73 -25 76 -327 10 -984 -58 -565 -60 -961 -6 -981 147 -54 114 -1987 -34 -2044 -69 -26 -159 -65 -200 -85 -66 -34 -139 3157 -166 7287 -7 1078 -40 1425 -136 1425 -99 0 -121 -570 -102 -2675 14 -1471 41 -2979 61 -3350 20 -371 -1 -675 -48 -675 -46 0 -84 248 -84 550 0 303 -34 550 -75 550 -41 -1 -85 -671 -98 -1491 -16 -1101 10 -1502 100 -1536 94 -36 106 -377 51 -1435 -77 -1502 -84 -5619 -10 -6057 33 -195 89 -253 202 -209 106 40 142 14 110 -81 -26 -78 -101 -141 -167 -141 -66 0 -158 -61 -204 -136 -71 -114 -98 -114 -171 0 -131 202 -150 10082 -22 10986 58 413 107 1650 109 2750 5 2911 2 2950 -185 2950 -140 0 -152 -107 -95 -825 47 -584 36 -781 -38 -675 -83 120 -104 95 -105 -125 -1 -151 43 -275 98 -275 55 0 96 -101 92 -225 -4 -124 -31 -168 -58 -99 -64 157 -234 61 -234 -132 0 -79 68 -144 150 -144 126 0 150 -223 150 -1403 0 -1030 -33 -1416 -125 -1451 -95 -37 -121 -502 -108 -1922 10 -1031 17 -2751 16 -3824 -1 -1072 2 -2816 6 -3875 8 -1758 -54 -2221 -234 -1752 -36 95 -38 466 -4 825 45 469 33 610 -43 502 -58 -82 -108 -352 -113 -600 -6 -381 -22 -415 -101 -218 -58 145 -56 756 6 1614 115 1614 137 2691 117 5654 -5 660 7 1403 27 1650 19 248 66 1778 103 3400 38 1623 85 3164 104 3425 26 346 -1 475 -98 475 -151 0 -208 -884 -312 -4850 -72 -2738 -180 -9893 -172 -11425 5 -937 -10 -1025 -182 -1025 -191 0 -223 79 -191 475 12 146 -37 225 -139 225 -128 0 -157 -130 -157 -700 0 -656 -117 -927 -224 -519 -95 362 -86 4581 11 5019 55 249 126 3080 160 6350 34 3245 86 6024 115 6175 39 199 14 275 -93 275 -227 0 -285 -680 -265 -3131 24 -2998 -83 -9454 -158 -9575 -119 -193 -115 -4901 4 -4975 82 -50 78 -137 -17 -319 -96 -184 -130 -204 -132 -75 0 96 -41 175 -90 175 -86 0 -129 5474 -44 5622 23 40 57 805 76 1700 18 895 13 1526 -12 1402 -73 -363 -196 -172 -149 231 29 254 69 325 129 231 58 -92 86 -29 87 195 1 195 -39 306 -98 269 -55 -34 -100 -18 -100 36 0 53 51 114 114 135 157 53 247 1530 98 1621 -152 94 -142 529 13 592 99 40 99 69 -3 141 -152 107 -128 1233 28 1350 63 47 44 112 -50 175 -94 63 -113 128 -50 175 154 115 150 4025 -4 4025 -253 0 -358 -3141 -382 -11523 -15 -5016 -49 -6602 -142 -6695 -96 -96 -125 399 -137 2323 -26 3965 13 10044 72 11445 132 3137 126 4450 -19 4450 -93 0 -144 -138 -156 -425 -10 -234 -31 -740 -47 -1125 -15 -385 -42 -4314 -60 -8731 -26 -6591 -56 -8045 -166 -8114 -76 -47 -101 -136 -58 -207 50 -81 28 -108 -62 -78 -139 47 -155 1796 -42 4730 35 908 38 1711 26 6350 -2 798 32 2834 77 4525 55 2107 48 3075 -23 3075 -156 0 -220 -836 -231 -3000 -6 -1072 -32 -2152 -59 -2400 -28 -247 -36 -1192 -19 -2100 56 -3055 -1 -7736 -119 -9700 -65 -1072 -117 -2017 -117 -2100 3 -262 -202 -700 -298 -640 -54 33 -39 124 36 214 100 121 120 595 85 2066 -52 2236 -56 3341 -23 5860 13 1018 23 2781 22 3919 -1 1138 18 2128 42 2200 155 454 342 5526 209 5659 -148 148 -206 -193 -215 -1261 -6 -642 -68 -1819 -139 -2617 -77 -871 -139 -3427 -155 -6400 -15 -2722 -58 -5062 -95 -5200 -37 -137 -64 -317 -59 -400 4 -82 3 -645 -2 -1250 -5 -605 -7 -1303 -5 -1550 6 -659 -203 -2100 -305 -2100 -49 0 -75 484 -59 1075 16 591 15 1638 -2 2325 -41 1667 2 6965 53 6423 54 -577 228 -436 228 184 0 273 52 579 116 681 69 111 83 261 34 374 -64 149 -106 84 -196 -311 -149 -649 -252 -378 -148 388 45 325 106 1720 138 3100 31 1381 80 2849 108 3261 28 413 72 1324 97 2025 40 1080 24 1275 -101 1275 -159 0 -156 30 -204 -2000 -99 -4203 -268 -8063 -356 -8150 -100 -98 -95 245 80 5450 150 4433 152 4700 41 4700 -60 0 -115 -34 -123 -75 -31 -163 -179 -4213 -187 -5125 -4 -434 -27 -512 -110 -369 -69 118 -94 1114 -72 2875 31 2512 21 2694 -142 2694 -166 0 -175 -662 -175 -12500z m15319 12075 c87 -69 233 -246 326 -393 162 -257 160 -272 -47 -383 -118 -63 -226 -100 -238 -82 -141 199 -460 816 -460 889 0 134 233 116 419 -31z m6505 -108 c745 -260 1076 -847 1076 -1908 0 -349 -63 -527 -277 -781 -153 -180 -381 -541 -506 -801 -246 -507 -368 -636 -462 -485 -32 52 -197 164 -365 248 -284 142 -340 138 -748 -54 -243 -115 -442 -248 -442 -297 0 -49 -45 -89 -100 -89 -179 0 -105 718 110 1066 251 407 656 634 1129 634 370 0 661 -274 661 -622 0 -98 68 -178 150 -178 88 0 151 93 153 225 2 124 69 312 150 419 365 483 28 1514 -576 1765 -357 149 -909 40 -1238 -243 -217 -187 -263 -314 -269 -746 -5 -286 -45 -520 -89 -520 -45 0 -81 138 -81 307 0 168 -50 400 -111 514 -83 154 -82 309 4 594 116 389 274 478 480 272 63 -63 190 -84 284 -48 160 61 160 77 1 252 -159 176 -154 198 100 398 312 245 454 256 966 78z m2113 -353 c137 -151 144 -205 36 -295 -99 -82 -162 -59 -257 93 -77 123 -211 190 -346 172 -198 -26 -270 18 -270 166 0 140 688 29 837 -136z m-4918 -57 c491 -206 844 -1054 377 -906 -113 36 -384 35 -603 -2 -308 -52 -454 -150 -646 -431 -266 -392 -327 -981 -139 -1333 219 -409 -141 -336 -454 92 -419 570 -147 1807 527 2397 421 369 469 378 938 183z m-4400 -232 c331 -385 317 -433 -103 -366 -375 60 -409 45 -568 -263 -197 -381 -146 -922 113 -1208 94 -104 123 -188 66 -188 -149 0 -389 397 -474 787 -194 881 505 1775 966 1238z m-3753 -550 c-28 -69 -50 -12 -50 125 0 138 22 194 50 125 28 -69 28 -181 0 -250z m5496 248 c216 -140 638 -853 638 -1075 0 -204 -37 -219 -429 -175 -505 57 -639 -59 -880 -760 l-159 -463 -220 497 c-121 273 -244 647 -273 831 -45 283 -25 329 129 303 137 -23 190 43 214 269 50 472 623 807 980 573z m838 -23 c0 -55 -45 -100 -100 -100 -55 0 -100 45 -100 100 0 55 45 100 100 100 55 0 100 -45 100 -100z m4796 -419 c208 -224 282 -821 114 -925 -50 -31 -141 88 -202 265 -218 625 -364 763 -728 689 -261 -53 -355 -139 -449 -414 -112 -323 -120 -328 -125 -78 -13 588 969 915 1390 463z m-7134 -26 c96 -250 -49 -363 -292 -228 -121 68 -236 131 -255 141 -19 10 -5 67 31 125 97 157 451 130 516 -38z m-3993 -531 c-25 -96 -45 6 -44 226 1 220 22 298 46 174 24 -125 23 -305 -2 -400z m8711 256 c66 -66 120 -190 121 -275 0 -85 68 -284 150 -442 139 -266 133 -315 -68 -650 -120 -200 -229 -379 -243 -398 -14 -18 -164 -4 -333 33 -425 94 -410 361 18 327 l325 -25 30 525 c28 475 7 535 -217 637 -393 180 -709 41 -907 -398 -143 -318 -153 -432 -56 -614 97 -181 94 -215 -15 -179 -208 68 -221 670 -23 1039 124 230 286 358 533 424 494 132 549 132 685 -4z m3820 -230 c0 -192 -45 -350 -100 -350 -55 0 -100 158 -100 350 0 193 45 350 100 350 55 0 100 -157 100 -350z m-8665 -497 c31 -81 13 -173 -39 -206 -53 -32 -96 34 -96 147 0 242 56 266 135 59z m2208 -210 c86 -87 157 -208 157 -269 0 -61 -92 -13 -204 107 -237 255 -241 255 -528 103 -197 -106 -205 -101 -81 50 173 209 452 213 656 9z m-4077 -468 c-28 -69 -50 -12 -50 125 0 138 22 194 50 125 28 -69 28 -181 0 -250z m2104 -28 c99 -140 304 -416 455 -614 151 -198 275 -399 275 -447 0 -194 -167 -63 -400 314 -136 220 -289 400 -341 400 -147 0 -459 317 -459 465 0 223 278 152 470 -118z m9490 -187 c296 -296 339 -403 334 -825 -3 -267 -90 -687 -195 -935 l-189 -450 57 604 c57 604 57 604 -314 887 -325 248 -433 276 -887 234 -284 -27 -595 -82 -691 -123 -263 -111 -227 266 50 517 365 330 599 425 1060 428 363 3 491 -53 775 -337z m-7260 -310 c-110 -117 -200 -262 -200 -323 0 -223 256 -188 475 64 124 142 225 212 225 154 0 -58 -39 -148 -87 -200 -136 -149 -413 -1052 -413 -1345 0 -234 -33 -260 -283 -224 -223 33 -321 -17 -463 -234 -235 -358 -113 -749 265 -850 317 -84 381 -38 381 275 0 128 45 233 100 233 180 0 105 -501 -125 -829 -123 -177 -236 -340 -251 -364 -54 -87 -639 552 -877 958 -329 560 -348 1480 -40 1872 263 333 460 332 813 -6 209 -200 310 -241 394 -157 162 162 36 407 -312 605 -378 215 -392 415 -27 390 236 -16 280 23 309 280 32 283 41 289 175 106 124 -170 117 -218 -59 -405z m-3600 200 c250 -266 250 -412 0 -217 -234 182 -435 467 -330 467 52 0 201 -112 330 -250z m2583 -60 c72 -115 106 -234 76 -264 -81 -82 -359 178 -359 336 0 202 133 168 283 -72z m-3883 -340 c0 -131 -45 -266 -100 -300 -60 -37 -100 84 -100 300 0 216 40 337 100 300 55 -34 100 -169 100 -300z m882 -110 c346 -391 422 -560 143 -321 -351 302 -461 328 -400 97 65 -248 -73 -296 -164 -58 -88 229 -75 642 21 642 44 0 224 -162 400 -360z m5644 254 c444 -123 630 -380 722 -994 36 -247 89 -529 116 -625 32 -113 -6 -175 -107 -175 -86 0 -157 82 -157 181 0 276 -543 744 -863 744 -265 0 -597 -287 -906 -784 -112 -179 -120 -175 -125 60 -9 395 372 1331 619 1522 268 206 231 202 701 71z m-3907 -414 c172 -176 272 -329 222 -341 -50 -12 -216 -49 -369 -83 -163 -36 -326 -166 -393 -312 -137 -300 -275 -151 -277 300 -2 239 319 756 469 756 20 0 176 -144 348 -320z m-2872 -280 c84 0 153 -67 153 -150 0 -83 -89 -150 -200 -150 -122 0 -200 -67 -200 -170 0 -101 -34 -132 -85 -75 -47 52 -63 298 -37 545 41 379 62 415 132 225 46 -124 153 -225 237 -225z m12064 -20 c140 -262 20 -914 -227 -1227 -131 -168 -297 -253 -491 -253 -380 0 -373 116 18 289 509 225 798 1175 389 1282 -110 29 -200 88 -200 131 0 150 406 -27 511 -222z m-3736 -226 c-81 -264 -75 -383 24 -502 117 -142 152 -141 374 4 274 179 276 179 370 -126 58 -190 21 -228 -287 -286 -464 -87 -610 -21 -732 330 -74 212 -65 376 33 608 183 435 354 414 218 -28z m2227 -50 c-275 -539 -256 -706 128 -1125 l331 -361 -337 -301 c-198 -177 -351 -252 -371 -184 -126 422 -124 567 6 567 161 0 191 257 41 350 -55 34 -100 270 -100 524 0 338 59 526 217 695 303 321 318 291 85 -165z m-481 -4 c-24 -165 -84 -300 -132 -300 -103 0 -121 435 -22 533 140 141 197 56 154 -233z m-9221 -248 c0 -74 56 -160 125 -190 69 -31 -55 -29 -275 3 -446 66 -717 235 -376 235 118 0 242 46 277 102 80 129 249 28 249 -150z m800 148 c0 -55 -45 -100 -100 -100 -55 0 -100 45 -100 100 0 55 45 100 100 100 55 0 100 -45 100 -100z m5300 -300 c209 -209 272 -744 100 -850 -60 -37 -100 100 -100 347 0 456 -158 586 -492 407 -227 -121 -280 -16 -88 176 173 173 352 148 580 -80z m2796 -375 c2 -69 -91 -125 -207 -125 -151 0 -193 45 -150 158 34 87 63 256 65 375 3 208 9 206 146 -33 79 -137 145 -306 146 -375z m-6419 294 c60 -180 -147 -142 -216 39 -38 98 -15 143 58 119 65 -22 136 -93 158 -158z m2790 -466 c22 -552 81 -653 383 -653 275 0 370 -105 259 -286 -61 -98 -157 -88 -442 48 -425 203 -584 683 -363 1096 72 133 133 242 138 242 4 0 16 -201 25 -447z m4887 254 c-36 -59 -114 -107 -172 -107 -66 0 -59 57 20 152 137 166 260 129 152 -45z m-22554 -513 c0 -333 -38 -582 -85 -553 -46 28 -72 222 -56 431 16 208 32 457 35 553 3 96 28 175 56 175 28 0 50 -273 50 -606z m11590 231 c106 -206 467 -655 802 -996 334 -342 607 -702 605 -800 -3 -171 -83 -98 -690 621 -47 55 -247 226 -446 379 -198 154 -361 340 -361 414 0 74 -112 208 -250 298 -293 192 -319 326 -75 390 96 25 185 51 198 57 13 7 110 -157 217 -363z m657 -20 c108 -161 303 -341 433 -400 129 -59 216 -163 191 -231 -24 -68 -1 -207 51 -308 180 -349 -8 -282 -389 140 -551 609 -834 1012 -776 1105 81 131 279 7 490 -306z m-1558 89 c132 -109 212 -227 178 -261 -34 -34 -131 -5 -215 65 -125 104 -152 100 -152 -24 0 -203 262 -416 346 -281 81 132 454 -89 454 -269 0 -70 146 -200 325 -288 325 -161 1175 -1058 1175 -1240 0 -257 -341 -37 -557 358 -58 108 -304 292 -545 410 -241 117 -531 323 -643 457 -113 135 -351 345 -530 469 -306 210 -431 571 -258 743 99 100 160 80 422 -139z m4086 -533 c489 -303 567 -518 150 -414 -335 83 -680 393 -878 788 -205 411 -178 460 82 153 121 -145 412 -381 646 -527z m-4775 550 c0 -49 -67 -116 -150 -147 -281 -108 -147 -314 497 -764 618 -431 772 -600 550 -600 -57 0 -129 68 -161 150 -83 217 -236 184 -236 -50 0 -312 -337 -244 -743 150 -416 404 -502 432 -426 141 53 -201 47 -202 -138 -35 -106 96 -193 240 -193 320 0 219 503 69 770 -230 264 -295 430 -316 430 -54 0 111 -147 282 -350 408 -359 222 -442 468 -230 680 140 140 380 160 380 31z m2781 -105 c25 -75 -12 -112 -87 -87 -72 24 -151 103 -175 175 -25 75 12 112 87 87 72 -24 151 -103 175 -175z m8547 -425 c223 -264 137 -371 -115 -143 -103 94 -350 197 -549 229 -198 32 -333 102 -301 155 96 155 771 -14 965 -241z m-7848 99 c182 -182 145 -280 -106 -280 -124 0 -282 90 -351 200 -111 178 -100 200 106 200 127 0 285 -54 351 -120z m6124 -186 c252 -354 210 -462 -114 -289 -196 105 -251 92 -408 -103 -100 -123 -182 -332 -182 -463 0 -294 -163 -314 -252 -32 -137 430 214 1193 547 1193 105 0 289 -138 409 -306z m-16526 -389 c5 -166 -33 -327 -85 -359 -52 -32 -93 125 -93 354 0 466 165 471 178 5z m5722 203 c0 -50 -54 -109 -120 -131 -91 -31 -88 -116 14 -362 169 -408 71 -515 -188 -204 -245 294 -251 374 -41 606 179 197 335 240 335 91z m12130 29 c35 -35 -25 -176 -133 -314 -240 -305 -254 -607 -33 -692 206 -79 435 214 439 563 3 233 13 239 112 68 129 -222 -30 -867 -262 -1059 -118 -99 -193 -70 -399 152 -197 213 -254 380 -254 743 0 258 30 499 67 535 84 85 380 87 463 4z m-15045 -512 c0 -628 -78 -1141 -165 -1087 -66 41 -76 339 -37 1187 25 547 202 459 202 -100z m17532 336 c255 -35 435 -222 630 -654 225 -499 139 -1037 -219 -1369 -333 -309 -426 -219 -154 149 226 304 256 412 238 833 -8 182 -125 356 -358 534 -315 240 -378 254 -699 148 -193 -64 -449 -237 -568 -384 l-215 -268 64 340 c105 548 490 863 914 748 110 -30 275 -65 367 -77z m-9137 -146 c151 -96 45 -202 -393 -388 -298 -126 -487 -13 -487 293 0 142 80 180 375 178 206 0 433 -38 505 -83z m1403 -551 c183 -173 381 -404 439 -514 99 -189 91 -188 -133 14 -370 332 -832 393 -1082 143 -345 -345 -209 -1229 208 -1362 238 -75 240 -245 2 -245 -272 0 -611 416 -771 947 -120 400 -121 519 -4 798 170 407 533 675 805 594 112 -34 353 -202 536 -375z m2414 151 c147 -108 280 -339 327 -566 44 -211 117 -432 162 -491 169 -220 208 -458 77 -458 -72 0 -185 179 -250 397 -149 497 -680 931 -1080 885 -244 -28 -288 -86 -354 -477 -54 -318 -36 -506 62 -656 161 -245 929 -578 1015 -440 31 51 -40 128 -158 172 -212 79 -212 80 33 192 227 104 253 90 300 -155 55 -283 -158 -618 -392 -618 -501 0 -1241 960 -1237 1605 2 351 227 724 498 829 234 90 725 -18 997 -219z m1703 -43 c0 -289 -280 -696 -420 -610 -67 42 -46 99 57 157 93 52 163 217 163 386 0 162 45 295 100 295 55 0 100 -102 100 -228z m-16834 -297 c-28 -69 -50 -12 -50 125 0 138 22 194 50 125 28 -69 28 -181 0 -250z m4959 83 c14 -50 -31 -110 -100 -133 -69 -23 -125 33 -125 125 0 169 179 176 225 8z m15580 -63 c142 -142 185 -273 139 -425 -124 -412 -262 -440 -230 -47 38 467 -111 643 -395 466 -406 -254 -490 -880 -155 -1151 117 -95 115 -131 -13 -237 -145 -120 -168 -100 -192 171 -6 66 -95 183 -198 258 -166 121 -174 178 -67 503 208 629 728 845 1111 462z m-11655 -95 c158 -174 160 -200 21 -200 -87 0 -187 45 -221 100 -34 55 -149 100 -256 100 -107 0 -194 45 -194 100 0 177 463 106 650 -100z m1844 -198 c-363 -310 -494 -365 -494 -206 0 118 719 619 788 549 27 -27 -105 -181 -294 -343z m-2702 65 c87 -73 401 -208 698 -301 297 -92 597 -246 667 -342 108 -148 172 -157 435 -58 190 72 413 85 583 34 151 -46 219 -87 150 -91 -69 -5 -125 -77 -125 -161 0 -112 66 -135 250 -89 278 70 332 -67 101 -258 -82 -68 -122 -166 -90 -219 33 -53 142 -20 250 78 269 244 352 100 99 -172 -339 -364 -261 -574 89 -239 387 371 463 293 118 -122 l-267 -322 -722 109 c-397 60 -802 172 -900 248 -169 131 -169 143 -3 243 264 158 210 295 -116 295 -189 0 -471 142 -807 408 -284 224 -580 384 -657 354 -213 -82 -83 -284 357 -556 446 -276 450 -355 11 -259 -169 37 -511 281 -782 557 -636 649 -1013 682 -512 45 141 -180 168 -262 75 -231 -79 26 -249 235 -376 464 -228 409 -418 542 -418 293 1 -69 93 -276 206 -461 113 -185 187 -355 165 -377 -126 -126 -1471 798 -1471 1010 0 230 2731 340 2992 120z m6458 -417 c0 -465 -92 -589 -196 -263 -50 157 82 713 169 713 15 0 27 -202 27 -450z m3047 25 c2 -41 -64 -75 -147 -75 -96 0 -150 97 -150 269 0 258 6 261 147 75 81 -107 148 -228 150 -269z m-4997 249 c0 -42 -90 -132 -200 -201 -165 -103 -200 -100 -200 18 0 78 56 165 125 193 191 77 275 74 275 -10z m-7680 -244 c-93 -93 -147 -93 -240 0 -93 93 -67 120 120 120 187 0 213 -27 120 -120z m11446 43 c88 -56 85 -119 -13 -252 -116 -159 -136 -161 -191 -16 -125 326 -47 428 204 268z m-3223 -190 c35 -91 17 -213 -40 -270 -71 -71 -103 -68 -103 9 0 61 -27 183 -61 270 -33 87 -15 158 40 158 55 0 128 -75 164 -167z m-8983 -306 c-33 -33 -56 26 -52 131 5 117 28 141 60 61 29 -72 26 -159 -8 -192z m-510 -27 c-34 -55 -82 -100 -106 -100 -24 0 -44 45 -44 100 0 55 48 100 106 100 58 0 78 -45 44 -100z m1734 -114 l266 -214 -300 71 c-165 38 -366 135 -446 214 -247 242 168 181 480 -71z m13233 -33 c85 -186 83 -283 -6 -390 -93 -112 -91 -154 10 -192 99 -37 93 -79 -28 -185 -236 -204 -439 -584 -583 -1086 -71 -247 -259 -679 -418 -960 -159 -280 -263 -535 -232 -567 99 -99 142 -1173 47 -1173 -50 0 -105 34 -124 75 -18 41 -235 146 -483 234 -363 128 -456 210 -482 425 -25 212 10 266 175 266 114 0 207 45 207 100 0 55 69 100 153 100 84 0 179 68 211 150 31 83 110 150 175 150 165 0 422 478 505 940 39 214 90 772 114 1240 24 468 93 911 155 985 177 214 481 157 604 -112z m-1248 -253 c176 -516 166 -1916 -16 -2156 -136 -180 -147 -160 -150 269 -2 254 -73 630 -159 835 -91 219 -130 489 -93 655 54 248 37 275 -145 228 -168 -44 -206 -8 -206 199 0 504 595 481 769 -30z m2031 358 c0 -23 27 -113 61 -200 40 -104 5 -158 -100 -158 -94 0 -161 83 -161 200 0 110 45 200 100 200 55 0 100 -19 100 -42z m-5864 -172 c102 16 159 -13 126 -67 -106 -172 -727 -230 -1024 -97 l-282 128 397 54 c218 30 442 32 497 3 55 -29 184 -38 286 -21z m-9931 -296 l112 -209 202 216 c247 266 521 240 1615 -150 623 -222 749 -299 613 -375 -94 -52 -357 -63 -584 -24 -430 74 -569 80 -1311 52 -769 -29 -1394 290 -1196 609 102 166 435 94 549 -119z m2695 50 c290 -101 593 -134 850 -94 356 56 383 47 250 -87 -82 -82 -341 -180 -575 -217 -340 -54 -425 -38 -425 82 0 82 -169 218 -375 303 -496 203 -297 213 275 13z m13954 -233 c-36 -59 -114 -107 -172 -107 -66 0 -59 57 20 152 137 166 260 129 152 -45z m-20181 -307 c-8 -220 -51 -400 -94 -400 -44 0 -79 180 -79 400 0 220 43 400 95 400 52 0 87 -180 78 -400z m14215 45 c123 -122 -239 -295 -618 -295 -357 0 -425 -33 -451 -220 -20 -136 44 -268 168 -345 152 -95 176 -166 102 -305 -223 -417 -789 -4 -789 576 0 344 344 821 627 868 198 34 833 -151 961 -279z m2111 33 c324 -347 589 -1343 500 -1878 -63 -384 -76 -403 -86 -127 -7 178 -152 551 -323 828 -175 284 -284 572 -250 660 91 235 -33 369 -207 225 -119 -99 -166 -95 -239 20 -50 79 -92 223 -92 319 -3 255 444 225 697 -47z m-19407 -503 c-7 -477 -17 -499 -110 -246 -93 255 -46 771 70 771 26 0 44 -236 40 -525z m14908 281 c0 -204 -196 -300 -333 -163 -87 87 -79 138 34 210 211 133 299 119 299 -47z m505 -147 c-62 -115 -183 -209 -271 -209 -137 0 -140 24 -21 175 289 369 483 391 292 34z m7043 129 c233 -233 149 -482 -176 -520 -168 -19 -343 -137 -447 -300 -248 -391 -856 -1118 -935 -1118 -154 0 775 1936 964 2009 302 119 418 105 594 -71z m-16250 -313 c0 -206 -45 -443 -98 -525 -69 -107 -97 -1 -98 375 -1 289 43 525 98 525 55 0 99 -169 98 -375z m1902 183 c0 -117 -213 -192 -375 -133 -216 80 -136 225 125 225 138 0 250 -41 250 -92z m-800 -124 c0 -46 -157 -84 -350 -84 -192 0 -350 44 -350 97 0 53 158 91 350 84 193 -7 350 -51 350 -97z m-7046 -2876 c-2 -1535 -31 -2818 -64 -2851 -79 -79 -214 3765 -139 3960 64 166 123 724 139 1308 5 206 23 375 39 375 16 0 27 -1256 25 -2792z m7295 2493 c-109 -32 -324 -120 -477 -197 -210 -105 -306 -110 -393 -23 -162 162 -43 246 448 319 452 67 753 -3 422 -99z m4348 -184 c102 -224 94 -231 -217 -163 -362 80 -680 254 -680 372 0 44 178 66 395 51 302 -21 420 -82 502 -260z m7228 -149 c301 -347 431 -645 327 -750 -37 -36 -111 12 -164 108 -54 96 -231 243 -393 327 -162 83 -295 218 -295 300 0 178 -117 190 -280 27 -93 -93 -120 -75 -120 83 0 112 32 236 72 276 138 137 580 -54 853 -371z m-1225 82 c0 -83 -89 -150 -200 -150 -110 0 -200 -38 -200 -85 0 -46 -81 -177 -179 -291 l-180 -207 -130 294 c-197 445 -90 589 436 589 336 0 453 -39 453 -150z m-10065 -125 c81 -132 -310 -528 -463 -469 -83 31 -174 -17 -210 -112 -52 -135 -92 -143 -213 -43 -280 232 -174 399 251 399 289 0 400 42 400 150 0 156 154 205 235 75z m15014 -23 c33 -54 8 -195 -55 -313 -93 -174 -134 -189 -209 -78 -76 112 -124 96 -252 -86 -86 -124 -195 -225 -241 -225 -46 0 -312 -135 -592 -300 -280 -165 -532 -300 -560 -300 -118 0 816 1016 1101 1199 333 213 710 261 808 103z m-16752 -777 c-2 -487 -30 -629 -101 -508 -53 92 -78 272 -54 400 24 128 46 357 51 508 4 151 29 275 57 275 28 0 49 -304 47 -675z m8303 514 c0 -105 -54 -140 -158 -100 -87 34 -188 62 -225 63 -90 2 212 195 308 196 41 1 75 -70 75 -159z m1111 -268 c-161 -161 -201 -53 -84 229 90 217 109 225 148 64 24 -102 -5 -234 -64 -293z m-9111 -1077 c0 -912 -35 -1384 -100 -1344 -58 36 -100 595 -100 1339 0 1122 34 1411 167 1411 18 0 33 -633 33 -1406z m7500 1156 c0 -76 -45 -166 -100 -200 -57 -35 -100 51 -100 200 0 149 43 235 100 200 55 -34 100 -124 100 -200z m5154 -356 c36 -59 37 -137 1 -173 -36 -36 -107 1 -156 81 -77 125 -112 118 -230 -43 -76 -104 -190 -158 -254 -118 -122 75 -158 483 -52 588 73 74 594 -179 691 -335z m-8616 151 c34 -89 18 -129 -39 -94 -55 33 -99 103 -99 155 0 144 72 112 138 -61z m7444 -162 c-18 -120 -95 -238 -173 -264 -101 -33 -121 5 -72 134 41 107 17 214 -59 262 -87 56 -54 82 104 83 182 2 225 -45 200 -215z m-9836 -283 c73 0 126 -77 118 -171 -8 -94 70 -189 174 -210 206 -42 386 160 315 353 -24 67 -6 145 40 174 133 82 192 -429 68 -595 -61 -81 -251 -176 -423 -210 -295 -57 -316 -41 -380 299 -40 217 -125 360 -213 360 -177 0 -193 167 -20 226 69 24 140 -17 157 -91 18 -74 92 -135 164 -135z m7515 -147 c-138 -443 -301 -465 -207 -28 86 400 137 492 239 429 43 -26 29 -207 -32 -401z m7439 259 c0 -254 -174 -373 -650 -446 -843 -129 -1392 -272 -1458 -379 -38 -62 -120 -82 -181 -44 -165 102 -134 257 52 257 89 0 414 144 720 319 484 277 929 427 1392 470 69 6 125 -73 125 -177z m-16087 -124 c-20 -76 -48 -565 -61 -1088 -29 -1135 -24 -1100 -163 -1100 -78 0 -94 319 -54 1075 31 591 59 1135 61 1208 2 74 60 113 129 88 69 -25 108 -108 88 -183z m7787 -188 c0 -55 -48 -100 -106 -100 -58 0 -78 45 -44 100 34 55 82 100 106 100 24 0 44 -45 44 -100z m400 12 c0 -48 -68 -144 -150 -212 -122 -101 -150 -97 -150 21 0 80 30 176 67 212 95 95 233 83 233 -21z m5560 -185 c-33 -33 -56 26 -52 131 5 117 28 141 60 61 29 -72 26 -159 -8 -192z m-3767 -1777 c-8 -1072 -53 -1950 -101 -1950 -89 0 -116 3680 -29 3821 126 204 144 -54 130 -1871z m-919 325 c-20 -289 -37 -52 -37 525 0 578 17 814 37 525 20 -289 20 -761 0 -1050z m7700 1400 c178 -227 225 -638 94 -818 -112 -153 -183 -161 -548 -62 -323 87 -420 161 -420 322 0 189 39 202 419 142 413 -67 417 -65 241 130 -99 109 -150 246 -114 305 87 141 207 134 328 -19z m-6351 -1201 c2 -575 -44 -1129 -101 -1231 -75 -135 -101 176 -95 1138 6 804 45 1287 101 1231 51 -51 93 -563 95 -1138z m-1992 601 c-92 -549 -102 -2837 -13 -2927 159 -159 243 75 188 522 -79 642 -8 2343 96 2279 46 -28 87 -673 92 -1432 l9 -1381 -396 -318 c-217 -175 -420 -318 -451 -318 -122 0 -47 435 94 539 82 61 146 224 143 361 -32 1104 -96 2037 -145 2085 -127 128 -219 -228 -172 -669 35 -338 18 -438 -62 -362 -61 57 -123 327 -138 600 -25 478 -15 497 257 528 194 23 266 77 229 173 -66 173 125 745 249 745 52 0 61 -183 20 -425z m2485 -200 c20 -806 0 -999 -119 -1118 -63 -63 -97 228 -97 823 0 1036 190 1297 216 295z m4484 376 c0 -217 -329 -266 -757 -113 -424 152 -352 231 257 286 418 37 500 8 500 -173z m-5814 -1604 c-4 -933 -47 -1621 -97 -1590 -49 30 -89 797 -89 1705 0 1043 36 1628 97 1590 57 -36 94 -738 89 -1705z m-9426 1380 c-33 -33 -56 26 -52 131 5 117 28 141 60 61 29 -72 26 -159 -8 -192z m11233 -108 c-4 -148 -43 -359 -87 -469 -60 -151 -89 -82 -119 282 -22 265 -21 500 1 522 97 98 211 -89 205 -335z m-9912 -141 c33 -395 -215 -2008 -392 -2554 -58 -179 -146 -300 -197 -269 -118 73 -119 630 -2 1005 434 1395 529 1754 480 1803 -112 112 -248 -67 -313 -412 -40 -214 -124 -351 -215 -351 -81 0 -166 -56 -189 -125 -22 -69 -162 -530 -311 -1025 -149 -495 -295 -967 -323 -1050 -31 -92 46 -61 202 80 233 212 257 216 299 50 67 -261 -134 -686 -517 -1092 -582 -616 -728 -676 -1308 -537 -469 113 -1047 88 -1436 -61 -308 -118 -162 241 216 534 451 349 857 520 1337 564 447 40 578 119 564 339 -11 162 203 720 450 1173 426 781 1071 2123 1072 2232 1 84 101 120 277 100 238 -28 279 -82 306 -404z m4709 284 c91 -110 63 -148 -140 -187 -266 -50 -406 54 -300 225 88 142 306 124 440 -38z m710 -212 c0 -164 -91 -185 -360 -83 -163 63 -161 73 17 143 290 114 343 104 343 -60z m5667 -68 c420 -190 451 -224 243 -259 -271 -46 -673 136 -752 341 -67 176 -61 175 509 -82z m1479 11 c-86 -139 -146 -113 -146 63 0 86 46 128 102 93 56 -35 75 -105 44 -156z m-7930 -342 c745 -1 901 -77 657 -321 -137 -137 -210 -145 -424 -48 -142 65 -344 118 -449 118 -249 0 -700 207 -700 322 0 49 56 54 125 10 69 -44 425 -81 791 -81z m6447 -251 c144 0 237 -59 237 -150 0 -82 -40 -150 -88 -150 -173 0 -780 291 -894 428 -192 232 -9 280 259 69 137 -108 356 -197 486 -197z m-13389 -1225 c-20 -289 -37 -52 -37 525 0 578 17 814 37 525 20 -289 20 -761 0 -1050z m15563 1438 c203 -80 213 -424 119 -4063 -21 -825 -43 -2242 -49 -3150 -11 -1643 -12 -1649 -202 -1402 -249 324 -651 1741 -559 1972 39 99 88 1193 109 2430 38 2280 129 4088 211 4225 54 88 120 86 371 -12z m663 -357 c0 -189 45 -372 100 -406 60 -37 100 101 100 350 0 280 36 389 113 342 73 -45 92 -264 54 -629 -31 -307 -21 -500 24 -427 162 262 199 -445 157 -2978 -29 -1774 -77 -2574 -160 -2650 -87 -80 -102 -64 -57 64 33 94 22 195 -24 224 -46 28 -85 -538 -86 -1258 -2 -720 -44 -1351 -94 -1401 -56 -56 -160 -16 -266 100 -157 174 -172 451 -155 2878 18 2667 47 4750 78 5660 18 539 216 659 216 131z m-1552 -59 c-30 -49 3 -182 74 -296 106 -172 103 -222 -19 -299 -81 -50 -118 -121 -81 -157 36 -36 24 -175 -27 -309 -127 -332 -194 -1425 -92 -1488 46 -28 102 51 126 176 24 124 50 -321 57 -991 10 -842 -22 -1228 -102 -1255 -73 -24 -108 -261 -97 -651 19 -620 -99 -855 -320 -634 -74 74 -80 140 -16 186 60 43 107 1088 119 2661 13 1643 59 2629 125 2695 58 58 105 211 105 341 0 134 44 209 102 173 56 -35 77 -103 46 -152z m-14348 -697 c0 -400 -43 -700 -100 -700 -112 0 -133 610 -37 1088 97 486 137 373 137 -388z m8055 -151 c129 -546 169 -909 112 -1011 -55 -99 -46 -254 22 -404 163 -357 136 -1023 -65 -1588 -233 -653 -299 -746 -530 -746 -149 0 -198 -75 -209 -325 -26 -557 -33 -581 -186 -678 -164 -103 -831 -132 -924 -39 -32 32 51 218 184 414 132 196 241 413 241 482 0 70 161 319 357 555 415 496 733 1090 674 1257 -23 64 6 145 64 181 58 36 105 236 105 445 0 280 -79 470 -298 719 -302 342 -382 628 -206 736 52 33 70 126 39 207 -58 150 207 646 344 646 42 0 166 -383 276 -851z m4751 493 c149 -179 76 -179 -359 3 -432 180 -478 390 -53 242 162 -56 348 -167 412 -245z m4755 -117 c39 -206 41 -2287 5 -4625 -36 -2337 -66 -4353 -66 -4478 0 -144 -82 -259 -222 -310 -184 -69 -265 -22 -483 278 -144 198 -337 422 -428 497 -92 76 -162 256 -155 400 11 254 14 253 76 -36 35 -164 131 -311 213 -327 124 -24 149 142 152 998 5 1814 168 7825 214 7903 25 41 175 75 334 75 256 0 298 -44 360 -375z m-24074 -600 c3 -426 35 -1256 71 -1843 37 -587 31 -1285 -12 -1550 l-79 -482 -78 400 c-88 457 -108 3884 -24 4104 99 256 116 163 122 -629z m16082 300 c-25 -96 -46 -17 -46 175 0 193 21 271 46 175 25 -96 25 -254 0 -350z m4153 78 c-50 -337 -223 -521 -221 -234 3 291 116 633 194 584 39 -24 51 -182 27 -350z m-1111 -45 c217 -90 248 -147 179 -333 -97 -260 -325 -284 -803 -84 -460 193 -496 247 -309 464 167 196 378 185 933 -47z m648 -532 c-108 -108 -165 43 -89 235 71 180 76 180 111 6 20 -100 10 -209 -22 -241z m-2359 18 c0 -86 -45 -128 -100 -94 -55 34 -100 104 -100 156 0 52 45 94 100 94 55 0 100 -70 100 -156z m876 -161 c594 -273 573 -253 443 -410 -60 -73 -273 -462 -472 -865 -240 -486 -396 -699 -462 -633 -66 66 21 287 258 657 347 543 460 968 257 968 -55 0 -100 -65 -100 -144 0 -168 -392 -871 -546 -979 -199 -141 -330 -75 -456 227 -116 281 -101 339 188 742 173 240 314 486 314 545 0 147 31 141 576 -108z m-4551 -339 c53 -252 45 -404 -22 -426 -147 -49 -127 -208 47 -382 82 -83 150 -285 150 -450 0 -291 -416 -1009 -742 -1279 -87 -72 -158 -200 -158 -284 0 -85 -146 -348 -325 -585 -262 -349 -386 -432 -644 -435 -372 -4 -501 142 -320 360 85 103 222 135 411 98 239 -48 303 -14 405 216 66 150 185 340 263 421 340 354 612 1168 598 1788 -8 338 -53 614 -101 614 -48 0 -91 -101 -96 -225 -7 -167 -34 -137 -107 116 -121 422 -40 780 191 839 298 77 366 18 450 -386z m7135 183 c-33 -33 -56 26 -52 131 5 117 28 141 60 61 29 -72 26 -159 -8 -192z m-1001 -402 c-36 -316 -100 -1012 -142 -1547 -70 -889 -143 -1185 -262 -1067 -39 40 12 700 190 2472 29 294 79 575 110 625 132 214 166 56 104 -483z m284 -1500 c-56 -2001 -84 -2224 -256 -2052 -74 74 -73 166 4 310 72 135 75 226 9 267 -55 34 -100 -39 -100 -164 0 -137 -35 -189 -89 -131 -144 153 -15 740 149 677 154 -59 188 74 57 223 -63 72 93 2587 169 2720 89 157 102 -261 57 -1850z m-5962 922 c-31 -30 -87 25 -125 124 -54 142 -42 154 56 56 69 -68 99 -149 69 -180z m4719 -103 c0 -86 -45 -128 -100 -94 -55 34 -100 104 -100 156 0 52 45 94 100 94 55 0 100 -70 100 -156z m-18534 -371 c-28 -68 -49 12 -47 177 3 165 25 220 50 123 26 -97 24 -232 -3 -300z m18845 -202 c-81 -81 -109 -6 -103 284 8 391 9 392 111 111 73 -201 71 -316 -8 -395z m-11211 129 c0 -55 -67 -100 -150 -100 -85 0 -155 -97 -162 -225 -9 -178 -21 -187 -58 -44 -26 99 -22 246 8 325 63 162 362 199 362 44z m4593 -175 c-6 -244 -17 -252 -93 -75 -117 273 -117 350 0 350 55 0 97 -124 93 -275z m6307 175 c0 -55 -70 -100 -156 -100 -86 0 -128 45 -94 100 34 55 104 100 156 100 52 0 94 -45 94 -100z m-11414 -677 c56 -262 172 -611 257 -775 86 -164 156 -444 156 -623 1 -179 41 -325 89 -325 49 0 120 -439 158 -975 38 -536 95 -1087 126 -1225 92 -408 -63 -169 -266 411 -104 296 -218 832 -253 1189 -68 686 -249 1481 -500 2193 -84 235 -127 469 -96 518 121 196 231 66 329 -388z m-6217 -98 c-25 -96 -46 -17 -46 175 0 193 21 271 46 175 25 -96 25 -254 0 -350z m7031 231 c0 -134 -45 -272 -101 -306 -126 -79 -240 200 -163 400 91 237 264 175 264 -94z m4700 137 c0 -184 -188 -467 -352 -530 -87 -33 -135 -23 -106 24 29 46 97 203 153 349 98 260 305 366 305 157z m5300 -93 c0 -55 -45 -100 -100 -100 -55 0 -100 45 -100 100 0 55 45 100 100 100 55 0 100 -45 100 -100z m600 -150 c0 -156 -57 -250 -150 -250 -93 0 -150 94 -150 250 0 156 57 250 150 250 93 0 150 -94 150 -250z m300 50 c0 -110 -41 -200 -91 -200 -49 0 -67 90 -38 200 29 110 70 200 91 200 21 0 38 -90 38 -200z m-10350 -601 c-78 -125 -450 -131 -450 -6 0 51 75 167 166 259 151 151 174 152 255 6 50 -88 62 -204 29 -259z m3148 326 c0 -41 -43 -142 -95 -224 -72 -113 -123 -121 -210 -34 -64 64 -85 164 -48 224 75 123 356 150 353 34z m-9342 -312 c-144 -143 -174 -145 -256 -13 -66 108 -44 168 79 212 261 96 360 -16 177 -199z m6924 -33 c196 -196 138 -295 -154 -262 -320 37 -458 382 -153 382 103 0 241 -54 307 -120z m9556 -30 c-31 -82 -75 -150 -97 -150 -21 0 -39 68 -39 150 0 83 44 150 97 150 53 0 71 -67 39 -150z m-18865 -2067 c-127 -310 -134 -272 -100 567 57 1405 173 1786 208 683 19 -606 -18 -1029 -108 -1250z m12229 2029 c0 -150 -282 -330 -463 -295 -163 31 -163 43 2 208 184 184 461 236 461 87z m-1950 -113 c80 -128 -201 -239 -406 -160 -201 76 -90 261 156 261 104 0 216 -45 250 -101z m850 12 c0 -102 -305 -240 -374 -170 -25 25 -16 94 20 152 80 129 354 143 354 18z m-2900 -461 c0 -82 -45 -150 -100 -150 -55 0 -100 68 -100 150 0 83 45 150 100 150 55 0 100 -67 100 -150z m2900 -17 c0 -101 -319 -433 -415 -433 -148 0 -92 223 90 361 193 146 325 175 325 72z m-11410 -714 c-5 -258 -46 -581 -89 -719 -52 -164 -75 13 -65 515 8 421 48 745 89 719 41 -25 71 -257 65 -515z m9010 331 c0 -82 -67 -150 -150 -150 -156 0 -198 118 -83 233 115 115 233 73 233 -83z m1700 -53 c0 -236 -264 -373 -420 -217 -156 156 -19 420 217 420 137 0 203 -66 203 -203z m-824 -72 c60 -185 -344 -154 -415 32 -45 117 -5 149 157 125 119 -18 235 -88 258 -157z m5020 -366 c2 -49 -119 -251 -269 -449 l-274 -358 -71 399 c-39 219 -73 521 -76 669 l-6 271 346 -221 c190 -121 347 -261 350 -311z m4348 94 c-107 -81 -239 -147 -294 -147 -55 0 -13 66 94 147 107 81 239 147 294 147 55 0 13 -66 -94 -147z m-10778 -380 c-28 -68 -49 12 -47 177 3 165 25 220 50 123 26 -97 24 -232 -3 -300z m9734 127 c0 -55 -45 -100 -100 -100 -55 0 -100 45 -100 100 0 55 45 100 100 100 55 0 100 -45 100 -100z m-8840 -273 c-33 -33 -56 26 -52 131 5 117 28 141 60 61 29 -72 26 -159 -8 -192z m10313 -127 c-140 -110 -288 -200 -329 -200 -41 0 6 90 106 200 100 110 248 200 329 200 95 0 57 -71 -106 -200z m527 -100 c0 -55 -75 -100 -167 -100 -92 0 -251 -76 -354 -169 -159 -144 -178 -146 -127 -13 92 242 648 484 648 282z m-19307 -725 c4 -41 -38 -75 -93 -75 -55 0 -97 124 -93 275 6 244 17 252 93 75 47 -110 89 -234 93 -275z m-458 72 c-79 -207 -135 -183 -135 59 0 113 43 179 96 147 52 -33 70 -125 39 -206z m9715 -316 c-90 -155 -132 -191 -95 -81 37 110 93 289 124 397 31 109 74 145 95 81 21 -64 -35 -242 -124 -397z m-9257 -256 c-4 -179 -44 -527 -88 -775 -74 -415 -81 -390 -92 325 -8 458 28 775 87 775 55 0 97 -146 93 -325z m19807 136 c0 -49 -112 -118 -250 -152 -137 -35 -250 -107 -250 -161 0 -54 -56 -96 -125 -94 -69 2 10 114 175 249 316 259 450 306 450 158z m-1005 -220 c-61 -114 -136 -183 -167 -152 -31 31 0 125 70 209 180 216 228 188 97 -57z m-19624 -616 c-24 -124 -44 -22 -44 225 0 248 20 349 44 225 23 -124 23 -326 0 -450z m20679 164 c-309 -238 -550 -354 -550 -266 0 95 505 422 650 421 55 0 10 -70 -100 -155z m-20351 -777 c-87 -84 -109 -25 -88 238 39 495 133 612 171 212 18 -185 -20 -388 -83 -450z m-333 -389 c-28 -68 -49 12 -47 177 3 165 25 220 50 123 26 -97 24 -232 -3 -300z m734 -29 c0 -141 -41 -231 -91 -200 -49 31 -67 146 -38 256 72 275 129 251 129 -56z m-440 -517 c-33 -33 -56 26 -52 131 5 117 28 141 60 61 29 -72 26 -159 -8 -192z m23576 -276 c-31 -83 -97 -125 -146 -95 -142 88 -105 244 57 244 89 0 124 -59 89 -149z"/>
<path d="M21247 21195 c-95 -154 35 -253 163 -125 72 72 74 128 6 170 -56 35 -132 15 -169 -45z"/>
<path d="M6900 8100 c0 -55 45 -100 100 -100 55 0 100 45 100 100 0 55 -45 100 -100 100 -55 0 -100 -45 -100 -100z"/>
<path d="M5257 7507 c-142 -156 -115 -170 370 -178 480 -8 773 92 773 264 0 38 -223 72 -495 76 -345 5 -541 -43 -648 -162z"/>
<path d="M22887 7875 c-37 -1109 39 -3270 105 -3025 15 55 40 1034 56 2175 32 2223 -94 2886 -161 850z"/>
<path d="M20800 6956 c0 -24 45 -72 100 -106 55 -34 100 -14 100 44 0 58 -45 106 -100 106 -55 0 -100 -20 -100 -44z"/>
<path d="M4653 24125 c-36 -481 -111 -1229 -166 -1663 -55 -433 -119 -3515 -141 -6850 -25 -3545 -83 -6228 -141 -6462 -136 -542 -129 -650 38 -650 140 0 199 289 304 1500 22 248 50 2543 63 5100 22 4411 77 6375 246 8825 51 739 41 1075 -32 1075 -62 0 -133 -365 -171 -875z"/>
<path d="M6684 23475 c19 -839 76 -1592 127 -1675 58 -94 75 412 45 1350 -26 825 -50 1579 -52 1675 -2 96 -38 175 -79 175 -41 0 -60 -686 -41 -1525z"/>
<path d="M12016 24200 c0 -137 22 -194 50 -125 28 69 28 181 0 250 -28 69 -50 13 -50 -125z"/>
<path d="M12008 23058 c-4 -105 19 -164 52 -131 34 33 37 120 8 192 -32 80 -55 56 -60 -61z"/>
<path d="M24839 22443 c-35 -141 -18 -400 38 -575 96 -298 103 -282 113 257 11 615 -46 735 -151 318z"/>
<path d="M5508 22058 c-4 -105 19 -164 52 -131 34 33 37 120 8 192 -32 80 -55 56 -60 -61z"/>
<path d="M5514 20781 c-8 -554 29 -996 86 -1031 116 -72 118 624 4 1450 -69 504 -77 469 -90 -419z"/>
<path d="M10643 21368 c-28 -72 -6 -241 47 -375 90 -224 98 -213 104 132 6 380 -58 484 -151 243z"/>
<path d="M7456 21044 c-38 -200 -46 -387 -19 -414 28 -28 81 114 119 314 37 201 46 388 18 415 -27 28 -81 -114 -118 -315z"/>
<path d="M9840 19750 c41 -378 160 -428 160 -67 0 175 -42 317 -93 317 -51 0 -81 -113 -67 -250z"/>
<path d="M6767 17765 c-44 -212 -56 -410 -26 -440 91 -90 176 241 140 542 -33 264 -40 257 -114 -102z"/>
<path d="M24283 15196 c-155 -90 -583 -697 -583 -826 0 -30 64 -119 142 -197 113 -114 240 -121 650 -38 l508 104 0 531 c0 512 -9 530 -275 527 -151 -2 -350 -47 -442 -101z"/>
<path d="M1063 12650 c36 -495 105 -990 153 -1100 52 -120 63 178 26 750 -33 523 -102 1018 -152 1100 -57 93 -67 -190 -27 -750z"/>
<path d="M1150 11100 c-34 -55 -14 -100 44 -100 58 0 106 45 106 100 0 55 -20 100 -44 100 -24 0 -72 -45 -106 -100z"/>
<path d="M5000 6248 c0 -113 532 -848 613 -848 261 0 -274 893 -538 898 -41 1 -75 -21 -75 -50z"/>
<path d="M24929 5850 c0 -275 20 -376 43 -224 23 152 22 377 -2 500 -23 123 -42 -1 -41 -276z"/>
<path d="M4735 4858 c94 -252 99 -1754 6 -1997 -53 -137 -35 -176 68 -142 106 36 148 295 169 1049 24 849 2 1023 -143 1142 -154 125 -165 119 -100 -52z"/>
<path d="M4341 4575 c35 -124 92 -439 125 -700 77 -589 -118 -656 -216 -75 -37 220 -109 400 -159 400 -126 0 -114 -370 21 -623 62 -115 133 -706 157 -1313 43 -1054 134 -1464 325 -1464 48 0 39 158 -21 351 -93 305 -82 373 85 509 166 135 168 149 17 101 -143 -45 -178 13 -194 317 -44 878 -25 1204 69 1189 59 -10 88 189 71 483 -42 708 -120 1050 -241 1050 -60 0 -76 -95 -39 -225z"/>
<path d="M3146 3025 c37 -96 154 -557 259 -1025 377 -1671 502 -2000 758 -2000 212 0 223 24 128 275 -58 151 -171 348 -252 437 -109 121 -149 454 -157 1322 -5 638 -49 1137 -96 1107 -47 -29 -86 -113 -86 -188 0 -85 -73 -115 -200 -82 -110 29 -200 115 -200 191 0 76 -50 138 -111 138 -64 0 -82 -73 -43 -175z"/>
<path d="M2401 2695 c1 -228 487 -1567 493 -1360 8 245 -292 1290 -405 1410 -55 58 -89 39 -88 -50z"/>
<path d="M17984 2289 c33 -344 -4 -452 -223 -655 -377 -350 -1002 -1637 -793 -1632 45 1 187 244 315 540 135 312 312 559 419 588 368 96 715 1570 370 1570 -89 0 -115 -124 -88 -411z"/>
<path d="M10666 1490 c-130 -297 -268 -675 -306 -840 -38 -165 -93 -379 -121 -475 -29 -96 -12 -175 38 -175 50 0 146 191 212 425 67 234 215 663 329 954 277 704 149 799 -152 111z"/>
<path d="M11461 1036 c-256 -530 -442 -988 -414 -1017 29 -29 71 -34 92 -11 109 116 961 1781 961 1879 0 310 -217 21 -639 -851z"/>
<path d="M2300 1721 c0 -108 65 -353 145 -544 89 -212 109 -383 53 -439 -52 -52 -58 -224 -14 -390 59 -224 146 -306 348 -330 230 -27 268 5 268 228 0 143 -70 287 -156 320 -85 33 -134 117 -107 187 27 70 19 158 -18 195 -37 37 -113 252 -168 477 -106 430 -351 636 -351 296z"/>
<path d="M7358 1525 c34 -151 190 -556 347 -900 214 -471 335 -625 490 -625 234 0 272 151 68 270 -185 108 -586 916 -528 1062 26 65 106 -28 178 -207 169 -420 323 -420 233 0 -95 443 -140 500 -351 445 -100 -27 -206 14 -235 91 -100 260 -266 148 -202 -136z"/>
<path d="M12600 1713 c0 -48 -225 -432 -500 -853 -527 -808 -552 -860 -412 -860 48 0 302 316 564 703 261 386 514 726 562 755 143 89 96 342 -64 342 -82 0 -150 -39 -150 -87z"/>
<path d="M18541 1101 c-505 -520 -799 -976 -697 -1078 63 -63 217 114 581 670 124 188 357 415 518 504 326 180 452 403 228 403 -80 0 -364 -225 -630 -499z"/>
<path d="M7058 1114 c-34 -55 -16 -128 40 -163 122 -75 137 -351 19 -351 -46 0 -143 112 -217 250 -133 249 -300 335 -300 156 0 -51 124 -297 275 -547 193 -318 342 -454 500 -456 124 -2 224 8 222 22 -15 111 -380 1091 -422 1134 -30 30 -83 9 -117 -45z"/>
<path d="M5792 725 c-5 -105 -28 -125 -58 -50 -50 122 -334 180 -334 68 0 -31 118 -211 262 -400 169 -221 346 -343 500 -343 287 0 294 73 38 400 -108 138 -197 306 -198 375 -3 194 -201 147 -210 -50z"/>
<path d="M9172 836 c-78 -127 130 -836 245 -836 111 0 94 178 -57 594 -68 190 -153 299 -188 242z"/>
<path d="M1500 373 c0 -144 47 -290 103 -325 66 -41 86 35 55 206 -67 369 -158 437 -158 119z"/>
<path d="M4600 458 c0 -251 118 -458 261 -458 169 0 170 22 23 345 -126 277 -284 340 -284 113z"/>
<path d="M10661 442 c-34 -87 -59 -233 -57 -325 2 -119 44 -96 146 83 79 138 145 284 146 325 7 140 -174 76 -235 -83z"/>
</g>
</svg>