<svg xmlns="http://www.w3.org/2000/svg" version="1.0" width="250" height="250" viewBox="0 0 250.000000 250.000000" preserveAspectRatio="xMidYMid meet">
<metadata>
Created by potrace 1.10, written by Peter Selinger 2001-2011
</metadata>
<g transform="translate(0.000000,250.000000) scale(0.010000,-0.010000)" fill="#555555" stroke="none">
<path d="M0 24614 c0 -365 28 -400 494 -621 561 -266 558 -261 716 -1650 100 -885 94 -1046 -51 -1325 -90 -175 -198 -318 -240 -318 -42 0 -230 461 -419 1025 -188 564 -380 1070 -426 1125 -47 55 -68 -552 -48 -1350 28 -1137 77 -1551 227 -1920 l192 -470 -223 -236 c-237 -253 -304 -891 -123 -1174 65 -103 76 -33 35 224 -38 236 -14 430 65 525 187 225 252 185 239 -149 -7 -165 -19 -825 -26 -1467 -6 -641 -42 -1137 -78 -1100 -37 36 -59 269 -49 517 9 247 -29 450 -84 450 -56 0 -100 101 -99 225 1 182 20 196 98 75 79 -122 97 -109 98 69 3 304 -162 377 -235 105 -33 -123 -61 -910 -62 -1749 -1 -1191 28 -1525 130 -1525 202 0 448 228 487 450 19 110 90 196 158 190 68 -5 259 -17 424 -25 375 -19 387 -182 25 -336 -151 -64 -489 -335 -750 -600 -404 -412 -475 -542 -475 -877 0 -286 68 -461 250 -643 239 -239 333 -477 175 -443 -41 9 -154 -19 -250 -61 -155 -68 -175 -241 -175 -1525 0 -1031 46 -1608 160 -1998 161 -555 121 -1294 -65 -1179 -56 35 -95 -194 -95 -558 l0 -618 445 67 c245 37 807 17 1249 -43 1396 -191 3306 -122 3306 120 0 101 -1912 1963 -2170 2113 -93 54 -213 22 -337 -91 -227 -204 -256 -543 -48 -543 80 0 181 -58 225 -129 44 -70 210 -228 368 -350 303 -232 199 -301 -162 -108 -171 92 -234 79 -342 -68 -178 -244 -310 -90 -147 171 141 227 72 345 -236 400 -124 23 -195 111 -190 235 24 562 52 660 203 718 91 35 348 259 573 497 224 239 480 434 567 434 88 0 258 113 377 250 240 276 539 315 948 125 351 -163 357 -377 10 -314 -524 95 -1165 -277 -983 -570 31 -50 -73 -91 -230 -91 -268 0 -526 -152 -526 -309 0 -38 118 -99 263 -135 328 -83 1314 -746 1642 -1104 135 -147 497 -523 806 -835 308 -312 594 -679 635 -817 41 -137 209 -421 374 -631 285 -363 292 -396 153 -683 l-146 -302 -347 433 c-191 238 -497 647 -680 908 -410 584 -765 665 -657 150 167 -790 227 -1971 152 -2979 -92 -1248 -9 -1692 372 -1991 250 -197 388 -205 3460 -205 l3199 0 -53 400 c-30 220 -16 423 30 452 46 28 115 -152 152 -400 54 -363 107 -452 268 -452 184 0 197 52 158 600 -24 330 -9 600 33 600 42 0 90 -258 106 -574 24 -453 67 -581 205 -607 143 -28 178 46 192 399 l18 432 38 -425 38 -425 635 0 c606 0 633 10 587 225 l-48 225 198 -225 c226 -255 617 -303 617 -75 0 83 45 150 100 150 55 0 100 -67 100 -150 0 -90 93 -150 233 -150 177 0 231 54 225 225 -6 181 40 220 238 198 254 -29 428 -204 342 -343 -28 -44 84 -80 247 -80 247 0 288 33 244 200 -41 158 -2 201 184 203 131 2 417 129 637 283 337 236 398 331 384 606 -9 183 -114 431 -242 567 l-227 241 362 0 c365 0 563 133 373 250 -57 35 -77 106 -46 157 78 125 618 119 697 -9 34 -55 217 -166 406 -244 526 -220 412 -471 -272 -594 -305 -55 -485 -210 -485 -418 0 -23 128 -42 285 -42 280 0 615 -260 615 -478 0 -198 -320 -309 -566 -197 -271 124 -534 -42 -534 -337 0 -356 785 -233 1332 209 170 137 178 129 115 -125 -76 -300 97 -378 292 -131 61 77 257 171 436 208 258 53 325 34 325 -91 0 -177 84 -197 289 -67 112 71 116 151 21 423 -162 461 -256 1493 -117 1273 57 -90 166 -431 242 -758 167 -713 337 -1056 497 -1000 65 23 113 149 106 281 -6 132 31 267 83 300 53 35 7 203 -105 389 -110 180 -175 390 -146 468 30 77 -11 218 -92 312 -498 584 -1000 2474 -1279 4821 -108 908 -242 1920 -297 2250 -368 2197 355 7730 1145 8766 112 146 350 510 531 809 404 669 809 1068 1150 1130 396 71 435 -145 85 -472 -172 -161 -376 -415 -452 -563 -242 -471 -567 -1644 -669 -2420 -54 -412 -137 -840 -184 -950 -267 -626 -418 -5975 -207 -7350 47 -303 136 -910 199 -1350 63 -440 201 -1182 306 -1650 105 -467 218 -1075 252 -1350 33 -275 141 -770 240 -1100 100 -330 306 -1016 460 -1525 l279 -925 640 0 641 0 -250 296 c-137 163 -268 355 -292 425 -35 104 -76 102 -208 -7 -144 -119 -177 -103 -263 124 -61 160 -64 347 -8 486 69 172 92 185 97 51 4 -110 85 -175 218 -175 181 0 201 40 143 275 -188 750 -178 883 95 1207 209 249 320 304 509 257 215 -54 241 -28 241 239 0 180 -63 325 -156 361 -86 33 -133 98 -104 146 30 47 -8 169 -82 271 -210 287 -488 13 -436 -428 27 -233 -17 -383 -147 -501 -172 -155 -204 -155 -455 -3 -226 137 -270 233 -270 595 0 451 -20 434 575 470 205 13 241 311 37 311 -76 0 -192 66 -260 147 -67 81 -218 137 -337 125 -167 -17 -222 39 -247 253 -35 308 121 367 270 101 53 -96 132 -139 176 -96 43 44 19 175 -55 292 -115 184 -109 231 44 342 213 156 329 97 453 -230 l94 -247 304 216 c167 118 367 191 446 161 118 -45 142 139 142 1086 0 913 -27 1130 -134 1089 -78 -30 -397 240 -771 654 -350 388 -666 705 -701 706 -36 1 -91 -68 -123 -152 -38 -98 120 -342 438 -675 538 -565 590 -672 329 -672 -93 0 -455 304 -804 675 l-635 675 -204 -275 c-247 -334 -387 -352 -386 -50 2 256 612 643 1699 1077 531 212 646 297 628 468 -18 170 20 200 200 157 122 -29 278 -123 347 -209 105 -131 125 -84 125 288 -1 874 -896 2112 -1889 2614 -251 126 -517 287 -591 356 -208 192 -344 39 -300 -338 27 -231 -1 -338 -90 -338 -140 0 -164 788 -40 1350 62 285 88 298 513 269 246 -16 569 -118 718 -225 149 -107 309 -194 355 -194 46 0 337 -225 645 -500 309 -275 588 -500 620 -500 32 0 59 990 59 2200 0 1746 -27 2200 -131 2200 -235 0 -472 240 -380 385 67 106 132 111 298 22 203 -109 213 -92 213 339 0 321 -41 454 -139 454 -131 0 -261 203 -261 408 0 51 90 92 200 92 239 0 268 253 39 340 -147 57 -147 82 1 309 126 192 160 485 152 1299 -6 579 -35 1052 -65 1052 -30 0 -105 -63 -166 -141 -92 -116 -147 -94 -324 127 l-213 267 388 -37 c465 -44 537 159 88 249 -165 33 -300 105 -300 160 0 58 127 75 300 40 l300 -60 0 498 c0 273 -40 497 -89 497 -86 0 -411 600 -411 760 0 43 113 -74 250 -260 l250 -339 0 337 c0 186 -54 487 -120 670 -96 266 -175 332 -394 332 -151 0 -304 -49 -341 -109 -49 -78 -98 -78 -176 0 -60 60 -257 109 -438 109 -306 0 -333 -27 -393 -402 -71 -445 -195 -581 -371 -405 -87 87 -84 135 12 194 322 199 -285 610 -904 612 -246 1 -237 -466 10 -544 102 -33 316 -192 475 -354 160 -163 347 -297 417 -298 127 -3 369 -491 285 -574 -24 -24 -216 116 -428 312 -1353 1252 -1947 1472 -3924 1449 -790 -9 -1393 -62 -1534 -135 -239 -124 -976 -92 -976 43 0 42 -252 82 -560 89 -420 9 -632 -39 -850 -194 -292 -208 -398 -145 -165 97 101 105 87 123 -72 94 -108 -20 -325 -226 -481 -460 -187 -278 -360 -425 -504 -427 -120 -2 -305 -69 -412 -150 -409 -309 -470 -120 -131 403 247 382 425 464 325 150 -42 -131 -18 -199 68 -198 198 2 323 118 457 423 l121 275 -854 0 c-544 0 -831 -36 -792 -100 34 -55 128 -100 209 -100 93 0 27 -122 -181 -336 -370 -378 -476 -384 -278 -14 168 313 52 451 -162 193 -139 -169 -139 -159 4 82 l163 275 -401 0 c-340 0 -409 -36 -461 -242 -99 -394 -11 -611 236 -584 279 30 277 -29 -31 -686 -138 -296 -226 -441 -196 -321 31 119 9 245 -48 280 -57 36 -104 395 -104 799 l0 734 -1025 8 c-940 7 -1004 -4 -775 -137 l250 -144 -282 -3 c-155 -2 -352 66 -438 151 -201 202 -668 150 -711 -80 -25 -129 14 -160 149 -118 100 31 70 -11 -68 -93 -240 -144 -252 -139 -300 118 -43 226 -109 273 -425 299 -356 29 -375 16 -375 -264 0 -432 -311 -1055 -683 -1368 -402 -338 -545 -247 -198 127 140 151 305 485 367 743 198 816 239 781 -915 781 l-1030 0 -270 -831 c-149 -457 -271 -952 -271 -1100 0 -172 -54 -269 -150 -269 -199 0 -199 558 -1 1032 82 196 121 429 87 517 -37 97 32 261 172 410 l234 249 -996 -29 -996 -29 -32 -281 c-25 -217 5 -274 133 -250 144 27 169 -111 197 -1069 l33 -1100 -193 422 c-249 544 -412 1254 -427 1853 -12 501 -105 574 -455 356 -148 -93 -250 -93 -453 0 -144 65 -485 119 -758 119 l-495 0 0 -386z m3800 92 c0 -52 -45 -122 -100 -156 -55 -34 -100 8 -100 94 0 86 45 156 100 156 55 0 100 -42 100 -94z m15219 26 c-72 -29 -159 -26 -192 8 -33 33 26 56 131 52 117 -5 141 -28 61 -60z m-12957 -178 c106 -275 -189 -904 -617 -1320 -440 -426 -788 -607 -880 -458 -74 119 42 252 361 417 246 126 645 780 814 1332 65 213 246 229 322 29z m4629 -858 c-7 -902 -141 -1270 -255 -701 -48 238 -91 284 -191 201 -98 -82 -185 -34 -356 198 -336 454 -663 404 -591 -92 13 -88 -57 -52 -170 88 -167 207 -220 221 -420 114 -152 -81 -263 -89 -329 -23 -66 66 -20 124 134 173 129 41 401 209 605 373 249 199 431 276 549 230 149 -57 154 -82 33 -157 -122 -75 -117 -100 28 -155 95 -37 172 -147 172 -245 0 -216 292 -348 441 -199 76 76 64 134 -42 202 -126 80 -122 94 26 95 195 2 234 154 66 257 -78 49 -78 98 0 176 60 60 109 193 109 295 0 102 44 158 99 125 54 -34 95 -464 92 -955z m6855 897 c-36 -58 17 -174 119 -257 176 -143 174 -148 -46 -101 -258 55 -756 -128 -1305 -481 -200 -128 -544 -289 -764 -358 -220 -68 -715 -334 -1100 -590 -385 -257 -756 -501 -825 -542 -201 -122 -147 174 75 413 110 118 200 258 200 311 0 53 154 147 342 209 188 62 396 178 462 258 66 80 200 145 298 145 98 0 463 142 813 315 349 173 826 337 1060 363 383 43 473 115 437 347 -7 41 58 75 144 75 86 0 126 -48 90 -107z m954 7 c-194 -125 -300 -125 -300 0 0 55 101 99 225 98 182 -1 196 -20 75 -98z m3950 0 c34 -55 17 -100 -38 -100 -55 0 -128 45 -162 100 -34 55 -17 100 38 100 55 0 128 -45 162 -100z m-7412 -275 l-66 -275 245 225 c241 220 583 305 583 144 0 -121 -670 -419 -940 -419 -128 0 -402 -135 -610 -300 -616 -490 -691 -419 -249 235 208 310 354 432 475 401 96 -25 264 23 374 106 264 200 264 201 188 -117z m-13638 18 c137 -39 200 -142 200 -330 0 -150 37 -316 83 -368 177 -202 329 -980 265 -1356 -96 -569 -218 -393 -299 436 -88 900 -264 1340 -594 1491 -301 137 -344 323 -55 241 109 -31 289 -82 400 -114z m6125 -114 c-69 -25 -125 -92 -125 -149 0 -100 295 -72 600 58 113 48 155 -13 171 -243 20 -276 0 -299 -200 -228 -121 43 -367 79 -546 81 -179 1 -325 15 -325 30 0 16 69 192 152 393 123 294 176 339 275 234 97 -103 97 -140 -2 -176z m-3988 -104 c-36 -151 -112 -387 -167 -525 -98 -242 -104 -237 -177 150 -60 313 -42 427 84 525 252 195 333 149 260 -150z m16263 186 c0 -123 -257 -211 -615 -211 -435 0 -646 -147 -947 -662 -301 -513 -474 -434 -374 171 47 286 130 377 521 562 464 220 1415 314 1415 140z m1045 -230 c135 -115 -121 -101 -595 33 -334 94 -367 124 -200 185 189 69 587 -40 795 -218z m-1530 -532 c-548 -313 -610 -313 -315 1 134 142 346 249 492 249 230 -1 211 -28 -177 -250z m-6775 -186 c-171 -555 -456 -1238 -614 -1475 -97 -143 -300 -447 -452 -675 -371 -554 -491 -522 -289 78 116 345 199 463 279 397 121 -100 336 212 679 988 201 454 161 635 -93 424 -85 -71 -133 -150 -107 -177 27 -26 -43 -227 -154 -445 -361 -707 -326 -310 40 461 305 642 384 739 565 691 162 -42 196 -105 146 -267z m-4890 -112 c165 -42 467 -79 671 -84 309 -6 391 -55 487 -287 64 -154 156 -280 204 -280 48 0 88 -45 88 -100 0 -156 -143 -120 -511 130 -186 127 -564 291 -839 365 -537 145 -881 374 -788 525 33 52 130 30 223 -50 91 -79 300 -178 465 -219z m5550 173 c0 -42 -101 -138 -225 -214 -224 -138 -224 -138 -35 76 204 229 260 259 260 138z m3900 -333 c118 -67 104 -86 -67 -88 -287 -4 -533 95 -533 214 0 98 325 29 600 -126z m4600 138 c0 -39 -180 -327 -400 -641 -220 -313 -400 -637 -400 -720 0 -82 -120 -381 -267 -664 -251 -484 -260 -548 -156 -1110 106 -569 100 -608 -133 -860 -134 -145 -289 -426 -344 -624 -147 -531 -331 -756 -253 -310 117 679 176 900 239 900 35 0 74 362 86 804 13 443 86 949 164 1125 492 1119 601 1329 725 1401 76 44 139 153 139 242 0 203 286 528 465 528 74 0 135 -32 135 -71z m2298 -354 c1 -41 -43 -75 -98 -75 -55 0 -99 101 -98 225 1 182 20 196 98 75 53 -82 98 -184 98 -225z m-4337 67 c-34 -87 -67 -413 -74 -725 l-12 -567 -70 427 c-38 235 -122 480 -187 545 -218 218 -140 478 143 478 196 0 245 -39 200 -158z m2839 -37 c0 -101 -308 -230 -379 -160 -79 80 192 359 290 298 49 -30 89 -92 89 -138z m-15638 -50 c113 -79 416 -197 672 -261 496 -125 588 -242 272 -342 -333 -106 -776 -709 -900 -1226 -151 -631 -521 -858 -1684 -1035 -764 -117 -843 -151 -1025 -446 -108 -175 -197 -431 -197 -569 0 -258 -425 -1650 -609 -1993 -57 -107 -237 -668 -400 -1247 -162 -580 -384 -1219 -493 -1420 l-197 -366 54 700 c30 385 130 916 222 1181 129 372 139 497 44 556 -137 85 -2 1045 178 1262 54 65 118 272 142 459 53 411 487 1762 692 2159 96 184 405 418 882 669 913 480 1685 973 1685 1075 0 205 -234 174 -561 -76 -199 -152 -728 -458 -1176 -681 -892 -443 -1103 -709 -1465 -1850 -199 -626 -316 -714 -479 -357 -124 273 -276 329 -345 128 -47 -135 79 -614 237 -907 101 -185 -91 -1283 -335 -1918 -63 -165 -104 -615 -90 -1000 28 -781 -89 -787 -276 -16 -142 585 -150 1587 -22 2877 52 529 89 1024 82 1100 -20 217 335 1289 425 1289 45 0 105 90 134 200 74 281 271 250 271 -43 0 -338 181 -781 290 -713 50 31 67 317 38 636 -84 936 352 1620 1034 1620 706 0 2338 425 2338 608 0 141 331 109 562 -53z m8713 20 c-47 -142 -208 -126 -258 25 -19 55 41 100 133 100 92 0 148 -56 125 -125z m2519 -75 c43 0 57 -113 30 -251 -26 -137 13 -323 86 -412 74 -88 140 -313 146 -499 10 -285 -23 -338 -208 -338 -187 0 -243 96 -380 651 -170 691 -136 996 103 905 80 -31 180 -56 223 -56z m783 -75 c-6 -96 21 -287 61 -425 l73 -250 -206 236 c-210 241 -257 429 -138 547 121 121 221 70 210 -108z m-8898 -98 c500 -318 524 -441 155 -783 -301 -279 -303 -274 156 -429 248 -84 376 -85 472 -5 84 69 41 -160 -114 -617 -137 -401 -248 -823 -248 -938 0 -116 -63 -301 -140 -411 -77 -110 -156 -310 -175 -446 -39 -272 -338 -387 -521 -200 -86 87 -62 158 95 287 159 130 185 210 107 332 -75 119 -57 206 66 330 92 92 176 322 186 510 9 189 25 482 35 652 9 170 -39 330 -109 357 -77 30 -123 223 -119 495 8 499 -169 789 -328 538 -73 -116 -94 -92 -95 109 -3 434 149 491 577 219z m1021 73 c0 -55 -45 -100 -100 -100 -55 0 -100 45 -100 100 0 55 45 100 100 100 55 0 100 -45 100 -100z m4885 -525 c-423 -718 -797 -1889 -859 -2691 l-52 -667 413 -210 c227 -116 413 -273 413 -348 0 -76 74 -166 164 -201 91 -34 138 -89 106 -122 -90 -90 -729 336 -1016 677 -288 343 -333 922 -149 1917 188 1016 805 2170 1160 2170 84 0 20 -186 -180 -525z m7311 106 l205 -219 -268 -280 c-303 -316 -407 -307 -233 19 99 184 82 255 -109 458 l-226 241 214 0 c117 0 305 -99 417 -219z m-12057 -156 c-91 -387 -239 -520 -239 -215 0 210 156 490 272 490 17 0 3 -124 -33 -275z m1762 -223 c-117 -165 -200 -382 -183 -482 35 -210 -271 -720 -433 -720 -74 0 -71 46 11 146 131 157 50 394 -103 300 -51 -32 -93 2 -93 74 0 73 99 177 219 231 121 55 253 227 294 384 77 294 412 621 470 459 18 -50 -64 -226 -182 -392z m9357 367 c-465 -288 -956 -809 -1060 -1126 -106 -321 -298 -474 -298 -236 0 366 1023 1496 1346 1487 199 -6 199 -9 12 -125z m-8272 -367 c-128 -172 -250 -261 -271 -197 -36 108 394 604 469 540 18 -16 -71 -170 -198 -343z m1114 356 c0 -23 -114 -269 -254 -548 -228 -453 -275 -494 -445 -388 -273 171 -511 -79 -944 -992 -392 -824 -429 -979 -214 -897 117 45 124 2 38 -243 -139 -401 -324 -316 -363 168 -22 273 -107 453 -282 593 l-251 202 327 -2 c256 -1 361 60 483 280 142 257 141 291 -18 410 -210 155 -130 259 199 259 159 0 261 69 295 200 29 110 128 200 220 200 93 0 344 180 559 400 330 338 650 514 650 358z m-6420 -349 c32 -96 -4 -121 -114 -79 -96 37 -200 -6 -260 -109 -89 -153 -100 -149 -103 37 -2 115 29 240 67 279 108 108 358 30 410 -128z m620 -478 c0 -182 -45 -331 -100 -331 -55 0 -100 154 -100 342 0 188 -26 424 -58 525 -53 167 -45 167 100 -11 87 -107 158 -343 158 -525z m7939 486 c29 -45 -81 -228 -244 -406 -162 -178 -297 -377 -300 -442 -7 -179 -685 -1440 -690 -1284 -7 201 299 1223 470 1565 276 555 616 807 764 567z m5161 -253 c0 -148 -206 -427 -773 -1050 -634 -694 -566 -891 177 -512 218 111 396 181 396 156 0 -26 -94 -207 -210 -402 -207 -351 -419 -452 -540 -256 -34 55 -149 100 -256 100 -149 0 -194 70 -194 300 0 165 42 300 94 300 51 0 149 156 218 346 93 256 201 363 417 410 211 47 261 94 181 174 -157 157 -139 236 105 463 220 205 385 192 385 -29z m952 -312 c-218 -187 -421 -316 -450 -286 -66 68 604 635 744 630 57 -2 -75 -157 -294 -344z m-14751 -227 c1 -151 29 -376 62 -500 36 -135 16 -225 -51 -225 -62 0 -112 119 -112 265 0 265 -1 265 -215 75 l-216 -190 66 338 c36 185 65 376 65 425 0 48 90 87 200 87 151 0 200 -67 201 -275z m8709 -55 c-128 -128 -258 -29 -163 125 37 60 113 80 169 45 68 -42 66 -98 -6 -170z m6233 -345 c-121 -542 -158 -625 -279 -625 -188 0 -138 453 76 690 249 274 276 265 203 -65z m657 237 c0 -21 -79 -99 -175 -175 -159 -124 -162 -121 -38 38 131 167 213 220 213 137z m-8388 -329 c-87 -150 -106 -155 -109 -25 -3 169 102 320 173 250 23 -24 -5 -125 -64 -225z m3321 -39 c21 -139 105 -245 195 -245 217 -2 308 -112 240 -289 -50 -130 -107 -129 -464 12 -340 133 -397 194 -343 369 70 229 248 483 301 430 18 -18 50 -143 71 -277z m-17333 128 c0 -170 -364 -1022 -437 -1022 -85 0 -17 832 82 992 49 80 355 105 355 30z m16600 -118 c0 -215 -363 -604 -564 -604 -172 0 -636 217 -636 297 0 139 260 388 450 433 496 116 750 73 750 -126z m5886 -301 c-177 -239 -201 -332 -104 -392 100 -61 93 -108 -32 -211 -134 -112 -186 -106 -325 32 -152 152 -136 193 229 559 455 458 566 464 232 12z m-12158 72 c-30 -124 -104 -270 -166 -325 -162 -145 -462 -824 -462 -1048 0 -195 -395 -941 -462 -873 -21 20 48 371 152 779 104 408 166 780 138 827 -120 196 -320 -255 -580 -1305 -270 -1092 -285 -1122 -588 -1186 -338 -72 -683 -325 -608 -447 26 -42 215 -38 420 8 205 46 389 67 410 46 98 -98 -113 -230 -455 -286 -253 -40 -556 -217 -921 -538 -299 -262 -682 -523 -850 -579 -224 -74 -304 -161 -298 -325 11 -298 -84 -281 -445 79 -376 377 -701 344 -1545 -157 -575 -340 -968 -440 -968 -245 0 55 93 100 206 100 113 0 326 127 475 282 458 479 1054 889 1401 965 334 72 355 98 458 553 30 138 161 380 289 538 252 312 241 313 1296 -64 479 -171 314 -298 -300 -230 -476 52 -631 28 -900 -139 -544 -338 -402 -502 216 -249 140 57 171 45 115 -46 -76 -123 292 -610 461 -610 146 0 89 428 -82 617 -159 175 -145 183 292 183 416 0 473 30 618 319 189 380 97 518 -438 653 -366 93 -543 328 -247 328 98 0 281 98 409 217 190 179 231 189 231 56 0 -206 137 -291 344 -211 101 38 141 129 105 241 -31 99 -15 206 36 237 197 123 207 -385 11 -594 -274 -292 -259 -569 29 -528 171 24 226 99 230 314 2 154 70 322 150 371 91 56 149 268 156 568 18 769 26 791 310 920 149 68 331 210 405 316 75 106 189 193 255 193 65 1 254 112 419 247 165 135 307 247 316 249 8 2 -9 -97 -38 -221z m-2836 -556 c-62 -176 -143 -319 -181 -319 -127 0 -118 634 10 713 209 129 289 -55 171 -394z m408 381 c0 -55 -48 -100 -106 -100 -58 0 -78 45 -44 100 34 55 82 100 106 100 24 0 44 -45 44 -100z m-1135 -375 c22 -148 -17 -225 -116 -225 -82 0 -149 41 -149 92 0 50 -29 167 -65 260 -47 125 -18 159 116 133 98 -19 195 -136 214 -260z m-1365 -237 c0 -55 -45 -72 -100 -38 -55 34 -100 107 -100 162 0 55 45 72 100 38 55 -34 100 -107 100 -162z m10142 51 c200 -76 200 -267 2 -650 -131 -253 -206 -296 -475 -270 -295 29 -318 57 -302 376 23 476 352 707 775 544z m1938 -157 c41 -217 -280 -386 -838 -441 -506 -49 -565 65 -220 432 175 186 307 230 624 207 282 -21 412 -80 434 -198z m5320 173 c0 -128 -243 -555 -316 -555 -110 0 -106 42 32 345 99 217 284 354 284 210z m-19400 -155 c0 -55 -48 -100 -106 -100 -58 0 -78 45 -44 100 34 55 82 100 106 100 24 0 44 -45 44 -100z m7381 -175 c-20 -106 -142 -188 -307 -207 -331 -38 -364 152 -49 279 333 134 393 122 356 -72z m1481 -77 c-89 -89 -162 -317 -162 -505 0 -189 -46 -343 -103 -343 -160 0 -237 300 -110 427 62 62 113 192 113 288 0 96 78 219 174 273 238 132 285 57 88 -140z m7531 -205 c123 -117 117 -183 -45 -483 -103 -193 -234 -318 -292 -281 -59 36 -176 54 -263 40 -86 -14 -236 63 -334 171 -464 513 423 1038 934 553z m-13505 95 c171 -35 312 -95 312 -134 0 -39 -247 -241 -548 -448 -302 -208 -702 -548 -889 -755 -270 -299 -395 -367 -599 -328 -466 89 -1650 -779 -1912 -1401 -69 -166 -154 -250 -190 -191 -94 152 451 970 988 1485 273 261 430 486 387 556 -80 129 -1537 -1364 -1537 -1574 0 -68 -66 -179 -147 -246 -81 -67 -174 -264 -207 -437 -33 -173 -195 -472 -361 -665 -274 -318 -296 -327 -238 -100 35 138 88 385 118 550 30 165 97 379 148 475 52 96 69 175 38 175 -80 0 328 775 430 816 47 19 254 279 458 579 205 299 516 641 692 758 285 191 955 547 1028 547 16 0 3 -157 -28 -350 -39 -237 -18 -350 63 -350 72 0 96 75 59 189 -81 257 165 481 676 618 232 61 489 150 571 196 189 107 298 112 688 35z m11512 -238 c0 -55 -62 -100 -139 -100 -76 0 -301 -167 -500 -372 -324 -334 -361 -350 -361 -154 0 141 134 310 373 472 390 266 627 324 627 154z m4100 15 c0 -46 -90 -165 -200 -265 -110 -100 -200 -253 -200 -340 -1 -88 -91 -307 -200 -487 -110 -180 -203 -405 -207 -500 -4 -95 -93 -353 -198 -573 l-191 -400 60 500 c33 275 99 543 148 595 48 52 88 187 89 300 1 113 111 441 245 730 179 383 300 525 449 525 113 0 205 -38 205 -85z m-14462 -271 c45 -116 -83 -219 -495 -401 -305 -135 -788 -403 -1073 -594 -284 -192 -581 -349 -658 -349 -238 0 838 994 1353 1249 572 284 792 308 873 95z m14967 -155 c106 -256 105 -350 -3 -522 -72 -116 -144 -370 -160 -564 -16 -194 -97 -533 -181 -753 -123 -325 -153 -353 -154 -150 -1 138 43 447 99 688 55 241 73 466 39 500 -76 75 -544 -490 -545 -657 0 -66 -42 -145 -94 -177 -56 -35 -70 94 -35 319 33 207 116 411 185 452 70 41 158 266 197 500 120 728 429 901 652 364z m-12207 86 c0 -69 -43 -192 -95 -274 -124 -195 -357 15 -269 242 71 186 367 212 364 32z m6163 -234 c-26 -67 21 -408 104 -757 83 -349 170 -859 192 -1134 l42 -500 -255 700 c-349 962 -381 1116 -247 1198 85 53 77 116 -29 237 -79 91 -175 267 -213 391 -65 213 -54 219 192 107 143 -65 240 -174 214 -242z m-16761 -22 c0 -154 -66 -368 -147 -475 -142 -187 -147 -185 -151 56 -3 138 -32 351 -65 475 -49 181 -19 225 151 225 166 0 212 -62 212 -281z m13782 -434 c770 -518 918 -688 918 -1052 0 -482 -147 -410 -456 221 -278 568 -522 787 -771 691 -169 -65 -417 202 -326 351 92 147 114 140 635 -211z m-1482 -133 c0 -77 -49 -171 -110 -208 -157 -97 -429 210 -355 403 49 128 103 140 264 54 110 -60 201 -171 201 -249z m7477 87 c-66 -144 -137 -210 -158 -147 -21 63 17 181 84 261 181 219 207 179 74 -114z m-8976 -234 c749 -234 999 -380 999 -586 0 -261 286 -619 494 -619 101 0 312 67 470 149 425 222 1104 198 1232 -42 198 -370 128 -679 -171 -754 -151 -38 -343 -129 -425 -203 -286 -257 -662 -283 -869 -61 -105 113 -358 241 -562 283 -314 66 -437 178 -796 728 -384 588 -460 653 -799 681 -206 17 -375 85 -375 150 -1 65 -31 228 -66 361 -56 209 -39 231 126 163 105 -43 439 -156 742 -250z m6744 170 c57 -185 162 -2016 113 -1967 -23 23 -93 425 -155 892 -62 468 -136 929 -165 1025 -28 96 -2 175 58 175 61 0 128 -56 149 -125z m802 -450 c-105 -628 -173 -702 -254 -275 -60 314 -42 427 84 525 230 179 239 166 170 -250z m-2251 -114 c134 -405 58 -757 -107 -497 -47 75 -87 237 -87 361 -3 306 -265 287 -343 -25 -87 -348 -259 -313 -259 53 0 221 61 328 225 394 375 150 438 119 571 -286z m2904 239 c0 -82 -45 -150 -100 -150 -55 0 -100 68 -100 150 0 83 45 150 100 150 55 0 100 -67 100 -150z m-5300 -250 c0 -55 -45 -100 -100 -100 -55 0 -100 45 -100 100 0 55 45 100 100 100 55 0 100 -45 100 -100z m-9050 -285 c-406 -250 -1401 -1333 -1595 -1737 -153 -318 -755 -1069 -755 -942 0 35 152 277 338 539 186 261 455 700 598 975 142 275 317 568 387 650 230 271 921 700 1126 700 166 -1 149 -33 -99 -185z m5424 -83 c179 -30 300 -93 270 -141 -104 -169 84 -809 321 -1091 223 -265 278 -281 774 -230 359 37 558 16 607 -64 109 -176 -40 -276 -153 -103 -82 124 -128 110 -292 -86 -137 -163 -256 -213 -398 -168 -117 37 -203 19 -203 -42 0 -253 -205 -62 -610 568 -239 371 -604 849 -812 1062 -208 212 -378 409 -378 436 0 28 124 19 275 -18 151 -38 421 -93 599 -123z m-4374 -25 c0 -51 -71 -163 -157 -250 -174 -173 -643 -215 -643 -57 0 55 84 100 188 100 103 0 244 68 312 150 139 168 300 199 300 57z m17600 -94 c0 -48 -110 -329 -244 -625 l-244 -538 -6 467 c-3 257 21 538 55 625 63 164 439 225 439 71z m-14100 -413 c0 -55 -70 -100 -156 -100 -86 0 -128 45 -94 100 34 55 104 100 156 100 52 0 94 -45 94 -100z m-536 -355 c271 -293 257 -253 277 -848 9 -287 95 -566 232 -760 165 -231 190 -334 103 -421 -304 -304 -742 6 -632 447 37 146 36 510 -1 809 -72 573 -280 791 -482 503 -369 -525 -371 -528 -324 -362 26 89 3 207 -51 261 -64 64 10 189 216 362 172 145 338 264 369 264 31 0 162 -115 293 -255z m7027 -61 c191 -550 -34 -515 -270 41 -95 224 -91 275 21 275 76 0 188 -142 249 -316z m-220 -836 c1319 -1362 1603 -1704 1875 -2248 151 -302 425 -775 609 -1050 270 -405 350 -648 421 -1277 61 -541 55 -767 -20 -742 -58 20 -121 122 -138 227 -18 106 -204 552 -413 992 -209 440 -458 980 -554 1200 -246 563 -1053 1759 -1350 1999 -137 110 -317 284 -400 386 -83 101 -362 394 -619 650 -392 389 -451 496 -363 652 84 150 121 160 189 50 47 -75 390 -453 763 -839z m5537 320 c-129 -129 -143 53 -32 432 l73 250 33 -287 c19 -158 -15 -336 -74 -395z m-3089 -768 c59 0 212 113 340 250 352 381 540 331 474 -125 -38 -266 -164 -477 -435 -725 -401 -368 -577 -739 -402 -847 122 -76 141 -353 24 -353 -44 0 -179 191 -300 425 -120 234 -275 503 -343 599 -105 146 -89 199 99 331 137 95 224 261 225 426 1 148 34 449 75 669 l74 400 30 -525 c17 -292 79 -525 139 -525z m4350 424 c-25 -96 -45 6 -44 226 1 220 22 298 46 174 24 -125 23 -305 -2 -400z m-22975 18 c-92 -110 -155 -121 -235 -40 -79 81 -54 152 90 258 233 172 338 15 145 -218z m14756 158 c34 -55 17 -100 -38 -100 -55 0 -128 45 -162 100 -34 55 -17 100 38 100 55 0 128 -45 162 -100z m-14050 -100 c0 -55 -42 -100 -94 -100 -52 0 -122 45 -156 100 -34 55 8 100 94 100 86 0 156 -45 156 -100z m16442 -64 c34 -91 40 -187 13 -215 -64 -63 -355 175 -355 291 0 156 276 94 342 -76z m-11433 -515 c-67 -160 -320 -556 -564 -881 -243 -324 -443 -628 -444 -673 -1 -46 -203 -342 -451 -657 -247 -315 -450 -621 -450 -680 0 -173 371 -219 580 -72 107 74 219 109 251 78 31 -31 419 -55 863 -52 830 6 1003 -96 656 -384 -82 -68 -150 -209 -150 -312 0 -104 -45 -188 -100 -188 -55 0 -100 61 -100 135 0 299 -351 456 -1087 486 -656 26 -749 6 -913 -196 -100 -124 -281 -225 -402 -225 -189 0 -210 38 -152 275 38 151 267 611 511 1022 244 411 443 802 443 869 0 68 79 181 175 253 96 72 239 255 317 406 78 152 300 433 492 625 192 193 314 350 270 350 -43 0 -21 69 50 154 204 247 348 13 205 -333z m3150 -193 c-76 -735 -123 -847 -263 -625 -175 277 -149 1100 39 1220 250 160 290 54 224 -595z m-2604 282 c-82 -159 -180 -485 -217 -725 -68 -435 -173 -581 -419 -583 -104 -2 -102 53 12 273 78 151 249 511 381 798 131 288 273 525 316 525 42 1 10 -128 -73 -288z m4686 29 c39 -103 134 -143 260 -110 122 32 199 3 199 -76 0 -71 -116 -128 -261 -128 -144 0 -290 -39 -325 -87 -35 -49 -154 -156 -264 -238 -180 -135 -188 -134 -79 5 66 86 94 259 60 385 -87 336 288 564 410 249z m10619 -112 c-33 -33 -56 26 -52 131 5 117 28 141 60 61 29 -72 26 -159 -8 -192z m1533 -158 c4 -44 -38 -53 -93 -19 -55 34 -97 160 -93 281 7 211 10 212 93 19 47 -110 89 -236 93 -281z m-9965 131 c193 0 184 -28 -108 -330 -176 -181 -320 -400 -320 -485 0 -160 -549 -257 -1934 -342 -496 -31 -576 -13 -525 119 32 85 59 196 59 246 0 51 45 92 100 92 55 0 100 -64 100 -142 0 -237 1093 -177 1375 75 123 111 254 171 290 135 95 -95 335 128 335 311 0 199 333 573 381 429 20 -60 131 -108 247 -108z m1136 50 c-35 -91 0 -150 89 -150 192 0 188 -297 -9 -578 -191 -273 -393 -297 -224 -27 68 108 84 232 38 275 -47 44 -105 24 -130 -45 -46 -127 -328 -179 -328 -59 0 89 497 734 566 734 30 0 29 -68 -2 -150z m1294 -150 c175 0 242 -55 242 -200 0 -245 -156 -261 -285 -30 -168 299 -401 -21 -435 -595 -19 -329 -80 -526 -171 -556 -96 -31 -121 5 -79 114 34 88 18 187 -34 220 -153 94 -111 447 54 447 106 0 150 107 150 361 0 288 32 348 158 300 87 -34 267 -61 400 -61z m-11756 -248 c-70 -83 -173 -152 -230 -152 -57 0 -21 90 79 201 206 228 344 184 151 -49z m7498 -52 c0 -55 -48 -100 -106 -100 -58 0 -78 45 -44 100 34 55 82 100 106 100 24 0 44 -45 44 -100z m-9400 -461 c0 -215 480 -168 623 61 69 110 160 200 202 200 42 0 -25 -157 -149 -349 -124 -192 -280 -349 -347 -350 -66 0 -232 -121 -367 -267 l-247 -266 -54 341 c-45 279 -30 767 26 863 46 79 313 -120 313 -233z m14446 54 c-86 -139 -146 -113 -146 63 0 86 46 128 102 93 56 -35 75 -105 44 -156z m-15546 23 c0 -77 -431 -316 -570 -316 -34 0 20 90 120 200 183 202 450 271 450 116z m12601 -65 c-125 -150 -301 -118 -301 55 0 52 96 94 212 94 177 0 192 -25 89 -149z m10799 -7 c0 -86 -45 -128 -100 -94 -55 34 -100 104 -100 156 0 52 45 94 100 94 55 0 100 -70 100 -156z m-20148 -40 c-67 -110 -767 -322 -835 -254 -25 24 63 84 194 133 132 48 307 114 389 145 235 88 317 80 252 -24z m-3101 -915 c25 -351 19 -875 -14 -1164 -54 -470 -85 -525 -299 -525 -203 0 -238 49 -238 330 0 182 -118 567 -262 856 -143 288 -242 543 -219 566 114 114 930 632 956 606 16 -16 50 -317 76 -669z m8149 523 c0 -103 -67 -244 -150 -312 -82 -68 -150 -181 -150 -251 0 -69 -85 -148 -189 -175 -208 -54 -811 198 -811 338 0 131 128 107 382 -71 286 -200 518 -117 518 186 0 230 164 473 320 473 44 0 80 -84 80 -188z m7853 -218 c142 -274 123 -340 -89 -302 -47 8 -149 -38 -227 -103 -177 -147 -316 -28 -155 133 65 65 118 247 118 404 0 337 137 285 353 -132z m-9535 118 c110 -100 -55 -659 -204 -691 -74 -15 -202 27 -283 95 -232 192 -1031 142 -1571 -100 -554 -247 -731 -200 -359 94 787 622 2049 937 2417 602z m7135 92 c-33 -52 -125 -70 -206 -39 -207 79 -183 135 59 135 113 0 179 -43 147 -96z m-4853 -43 c0 -22 -67 -66 -150 -97 -82 -32 -150 -14 -150 39 0 53 68 97 150 97 83 0 150 -18 150 -39z m3769 -177 c66 -55 336 -156 600 -226 490 -130 1631 -794 1631 -950 0 -47 169 -164 375 -261 206 -96 607 -405 890 -686 652 -646 1217 -1061 1444 -1061 108 0 190 -88 209 -225 20 -143 112 -236 254 -257 162 -23 235 -117 273 -350 28 -175 97 -585 153 -911 122 -712 121 -657 18 -657 -47 0 -187 199 -313 443 -222 433 -1840 2257 -2001 2257 -44 0 -412 316 -816 702 -1040 993 -2732 1947 -3646 2056 -613 74 -765 120 -706 216 66 108 1491 28 1635 -90z m-9619 16 c-34 -55 -152 -100 -262 -100 -110 0 -172 45 -138 100 34 55 152 100 262 100 110 0 172 -45 138 -100z m11794 -125 c-84 -274 -126 -326 -203 -249 -86 86 55 474 172 474 58 0 71 -96 31 -225z m-13234 -389 c-459 -199 -615 -183 -429 42 61 73 281 136 490 140 l379 8 -440 -190z m8693 20 c-137 -256 -360 -398 -274 -176 97 254 -91 298 -658 154 -518 -131 -610 -202 -2037 -1578 -173 -168 -418 -519 -543 -780 -126 -262 -306 -588 -400 -726 -95 -137 -226 -486 -292 -775 -129 -570 -299 -702 -299 -233 0 333 473 1578 925 2435 313 592 964 1273 1219 1273 78 0 170 88 204 195 77 240 635 379 1581 394 642 10 673 1 574 -183z m-7687 -237 c-57 -68 -275 -184 -485 -258 -209 -74 -529 -202 -710 -286 -325 -150 -495 -125 -383 56 53 86 750 439 1362 690 270 111 386 3 216 -202z m8884 131 c0 -55 -65 -100 -144 -100 -79 0 -172 45 -206 100 -34 55 31 100 144 100 113 0 206 -45 206 -100z m-4700 -206 c0 -58 -45 -78 -100 -44 -55 34 -100 82 -100 106 0 24 45 44 100 44 55 0 100 -48 100 -106z m8900 -27 c0 -189 -96 -262 -262 -198 -110 42 -116 87 -28 193 145 175 290 178 290 5z m-3820 -142 c-23 -113 -110 -165 -246 -146 -166 24 -261 -73 -439 -450 -291 -613 -272 -597 -443 -372 -166 220 -198 383 -58 297 52 -32 153 15 225 104 512 632 1035 942 961 567z m10220 25 c68 -82 93 -150 55 -150 -38 0 -137 68 -219 150 -83 83 -108 150 -55 150 52 0 151 -67 219 -150z m-15016 -250 c-222 -301 -384 -386 -384 -201 0 154 329 501 475 501 88 0 58 -99 -91 -300z m5814 136 l328 -164 -354 -311 c-446 -391 -545 -592 -624 -1269 -73 -618 -208 -1032 -454 -1392 -94 -137 -229 -452 -300 -700 -161 -568 -341 -784 -248 -300 84 441 231 874 414 1218 79 148 154 535 168 861 14 327 76 656 139 732 62 77 158 342 212 589 55 248 104 371 110 275 14 -227 178 -224 301 5 58 111 60 237 5 325 -93 147 -123 295 -60 295 19 0 182 -74 363 -164z m-2767 -140 c-10 -80 -84 -324 -164 -543 l-146 -396 -125 418 c-102 340 -101 448 5 576 157 189 457 151 430 -55z m-3992 -153 c33 -86 -5 -278 -85 -425 l-146 -268 -4 425 c-4 424 121 566 235 268z m16224 -307 l-155 -286 -4 308 c-4 346 87 491 223 355 54 -54 29 -206 -64 -377z m-5363 264 c0 -55 -45 -100 -100 -100 -55 0 -100 45 -100 100 0 55 45 100 100 100 55 0 100 -45 100 -100z m-7900 -147 c0 -89 -59 -124 -149 -89 -83 31 -125 97 -95 146 88 142 244 105 244 -57z m-9961 -111 c99 -257 70 -825 -46 -896 -145 -90 -204 -13 -286 374 -99 465 184 909 332 522z m14561 -1 c0 -33 -89 -173 -199 -312 -124 -158 -178 -336 -143 -473 33 -136 -6 -271 -103 -352 -218 -181 -696 -1209 -1003 -2159 -286 -885 -407 -1124 -513 -1018 -115 116 142 843 732 2073 304 633 576 1330 604 1550 54 424 268 750 490 750 74 0 135 -27 135 -59z m-12350 -216 c-39 -96 -113 -316 -163 -489 -50 -173 -157 -370 -239 -437 -127 -106 -148 -59 -148 333 0 359 48 490 222 612 292 205 416 198 328 -19z m20429 76 c96 -1 102 -50 24 -196 -88 -164 -49 -240 246 -475 376 -300 438 -430 206 -430 -80 0 -290 180 -467 400 -177 220 -381 400 -455 400 -73 0 -133 95 -133 212 0 170 44 200 225 151 124 -33 283 -61 354 -62z m-12770 -633 c111 -209 256 -363 321 -340 68 24 236 -212 389 -543 285 -620 522 -705 642 -228 59 235 306 509 387 429 64 -65 -461 -1086 -558 -1086 -337 0 -1283 1007 -1288 1372 -1 67 -93 284 -204 481 -111 198 -173 407 -137 464 72 118 140 34 448 -549z m5138 268 c-24 -404 -264 -621 -471 -428 -100 93 -64 187 174 454 165 185 304 337 310 337 5 1 -1 -163 -13 -363z m6527 -25 c-36 -269 -6 -436 97 -539 132 -132 130 -177 -15 -399 -90 -137 -157 -289 -148 -336 31 -172 -10 -337 -83 -336 -101 0 -96 1717 6 1874 146 225 196 132 143 -264z m-14283 -127 c-79 -148 -140 -186 -167 -105 -44 131 170 460 248 382 24 -24 -12 -149 -81 -277z m1412 22 c-161 -301 -321 -354 -188 -62 65 141 156 256 205 256 48 0 40 -87 -17 -194z m-3954 -8 c-35 -56 -105 -75 -156 -44 -139 86 -113 146 63 146 86 0 128 -46 93 -102z m7724 -23 c-26 -69 -128 -463 -226 -875 -98 -413 -220 -804 -271 -871 -51 -66 -69 -160 -39 -208 75 -121 -214 -1045 -354 -1132 -174 -107 -383 10 -383 215 0 113 86 194 225 214 188 27 220 85 194 352 -17 176 36 423 118 550 82 126 194 478 249 780 83 448 75 571 -42 661 -206 159 -178 329 45 271 104 -27 219 -1 256 59 93 151 287 137 228 -16z m-11623 -327 c-368 -318 -952 -494 -796 -241 37 59 129 83 206 53 79 -30 208 51 297 187 144 219 314 316 593 338 55 4 -80 -148 -300 -337z m1650 2 c-129 -138 -276 -250 -326 -250 -50 0 35 133 188 296 154 163 300 275 326 249 25 -25 -59 -158 -188 -295z m4119 -1 c47 -399 -55 -660 -155 -399 -95 246 -78 750 25 750 49 0 108 -158 130 -351z m9099 -132 c-159 -149 -324 -383 -366 -519 -42 -136 -420 -585 -839 -998 -420 -412 -875 -918 -1013 -1124 -251 -377 -443 -506 -336 -226 31 83 98 150 147 150 49 0 89 47 89 105 0 196 482 816 770 991 160 98 436 456 626 814 513 967 802 1298 1028 1177 172 -92 165 -117 -106 -370z m-11749 -33 c71 -58 196 -80 279 -49 144 56 591 -306 1586 -1283 357 -351 402 -446 378 -800 -28 -422 -313 -825 -502 -708 -60 37 -110 228 -110 425 0 341 -367 1098 -774 1597 -353 432 -931 734 -1407 734 -407 0 -498 -46 -886 -452 -238 -248 -433 -496 -433 -550 0 -54 -45 -98 -100 -98 -140 0 -125 330 25 523 69 89 326 327 571 529 399 329 487 360 845 303 219 -35 457 -112 528 -171z m1373 55 c146 -56 230 -339 101 -339 -74 0 -343 269 -343 343 0 72 45 72 242 -4z m-4095 -434 c207 -400 192 -609 -25 -350 -95 113 -262 240 -372 282 -198 76 -198 79 -6 220 249 183 226 192 403 -152z m15738 -237 c98 -118 73 -153 -135 -193 -140 -26 -279 -9 -308 38 -111 179 -311 65 -992 -564 -705 -651 -1081 -855 -827 -449 69 110 156 200 194 200 38 0 147 78 242 173 95 95 447 382 782 638 620 473 764 494 1044 157z m5615 227 c0 -132 -259 -295 -470 -295 -207 0 -311 186 -178 319 69 68 647 47 648 -24z m-14100 -301 c0 -52 -67 -94 -150 -94 -155 0 -199 118 -86 231 80 80 236 -11 236 -137z m1100 -433 c828 -500 873 -542 604 -582 -220 -32 -302 2 -339 142 -26 102 -85 174 -131 160 -106 -31 -1130 642 -1132 744 -3 128 78 90 998 -464z m-8881 73 c381 -421 384 -817 23 -2699 -33 -176 -125 -221 -500 -251 -253 -20 -481 -2 -507 40 -26 42 -9 76 36 76 161 0 321 1227 222 1700 -238 1137 -239 1115 14 1305 253 191 421 151 712 -171z m7651 -384 c21 -110 61 -515 88 -900 81 -1168 251 -2060 402 -2118 103 -39 140 -255 140 -813 0 -894 -171 -877 -219 22 -24 462 -69 601 -206 637 -96 25 -175 74 -175 109 -1 227 -413 2854 -460 2929 -98 159 50 401 225 366 91 -17 184 -122 205 -232z m8687 178 c-106 -27 -256 -112 -332 -189 -77 -76 -198 -139 -270 -139 -72 0 -187 -67 -255 -150 -68 -82 -231 -150 -361 -150 -131 0 -294 -90 -362 -200 -120 -191 -387 -282 -368 -125 22 172 913 855 1151 881 142 16 284 54 315 86 32 32 197 53 367 46 203 -7 242 -28 115 -60z m-12377 -148 c191 -191 145 -230 -280 -235 -220 -3 -400 31 -400 75 0 44 90 80 200 80 110 0 200 45 200 100 0 136 134 126 280 -20z m-1080 -180 c0 -55 -67 -100 -150 -100 -83 0 -150 45 -150 100 0 55 67 100 150 100 83 0 150 -45 150 -100z m5631 -144 c160 -121 168 -188 69 -558 -139 -514 -110 -1156 67 -1518 73 -149 131 -374 129 -500 l-4 -230 -136 250 c-230 423 -537 2707 -362 2697 31 -2 138 -65 237 -141z m1623 -163 c108 -174 -15 -211 -152 -45 -79 95 -86 152 -20 152 58 0 136 -48 172 -107z m12457 -1371 c499 -568 315 -575 -285 -12 -544 512 -1120 1241 -1124 1424 -2 81 823 -746 1409 -1412z m-13289 1060 c-153 -153 -266 -40 -181 180 50 131 93 144 182 55 89 -89 89 -145 -1 -235z m7614 118 l208 0 -210 -210 c-202 -202 -220 -204 -474 -37 -191 125 -381 157 -687 117 -408 -54 -414 -51 -173 89 163 95 402 127 689 93 241 -29 533 -52 647 -52z m3964 -56 c0 -24 -45 -44 -100 -44 -55 0 -100 48 -100 106 0 58 45 78 100 44 55 -34 100 -82 100 -106z m-13934 -369 c-28 -69 -50 -12 -50 125 0 138 22 194 50 125 28 -69 28 -181 0 -250z m7234 25 c0 -55 -48 -100 -106 -100 -58 0 -78 45 -44 100 34 55 82 100 106 100 24 0 44 -45 44 -100z m3838 -155 c34 -89 18 -129 -39 -94 -55 33 -99 103 -99 155 0 144 72 112 138 -61z m-2038 -92 c0 -74 -574 -353 -720 -351 -195 4 342 393 545 396 96 1 175 -19 175 -45z m7392 -290 c221 -357 275 -616 107 -513 -141 88 -499 850 -398 850 45 0 176 -152 291 -337z m-13242 -63 c-38 -118 -91 -193 -118 -165 -28 27 -20 147 18 265 38 118 91 193 118 165 28 -27 20 -147 -18 -265z m11087 -98 c145 -219 263 -506 263 -639 0 -133 68 -268 150 -299 191 -73 193 -369 3 -620 -143 -190 -147 -189 -150 23 -4 316 -106 533 -250 533 -74 0 -150 194 -187 475 -33 261 -90 576 -125 700 -94 330 -1 276 296 -173z m-6468 134 c-82 -82 -1369 -197 -1369 -123 0 72 263 134 900 214 259 33 539 -22 469 -91z m3031 -128 c0 -160 27 -363 61 -450 100 -261 -246 -187 -499 108 -221 256 -529 256 -433 -1 198 -528 200 -525 -452 -809 -345 -151 -852 -379 -1127 -507 -1029 -481 -1827 -828 -2750 -1196 -522 -208 -1151 -468 -1397 -577 -246 -109 -538 -238 -650 -287 -112 -48 -270 -132 -353 -186 -82 -53 -456 -235 -831 -405 -686 -310 -944 -319 -1172 -44 -67 80 -260 146 -429 146 -463 0 -247 120 1154 640 700 260 1629 647 2065 860 437 213 1214 567 1728 786 514 220 1261 563 1659 763 398 200 770 336 826 301 56 -35 240 75 409 243 168 169 373 307 454 307 81 0 359 97 617 215 440 201 873 357 1045 376 41 5 75 -122 75 -283z m904 -640 c175 -621 38 -662 -229 -68 -136 303 -280 663 -320 800 -69 241 -63 240 185 -50 141 -165 305 -472 364 -682z m-13967 529 c176 176 269 114 206 -138 -46 -186 -13 -255 150 -307 211 -67 569 -623 466 -726 -30 -30 -202 99 -382 288 -180 189 -496 468 -702 620 -206 152 -375 345 -375 428 0 122 53 111 267 -58 183 -144 300 -177 370 -107z m6438 104 c326 -199 361 -270 331 -663 -36 -461 646 -281 712 188 39 270 402 351 747 166 276 -148 293 -249 77 -464 -87 -87 -137 -237 -112 -333 51 -195 -170 -382 -1042 -876 -642 -364 -911 -420 -653 -136 288 318 201 417 -366 417 -305 0 -613 61 -725 144 -191 141 -191 146 -3 285 118 88 167 205 128 307 -82 214 94 213 214 -1 106 -190 417 -118 417 97 0 75 -90 241 -200 368 -295 340 -252 639 100 692 28 4 196 -82 375 -191z m-4475 -151 c53 -140 175 -250 276 -250 100 0 188 -78 196 -175 59 -700 253 -1928 345 -2183 73 -203 79 -404 17 -589 l-93 -280 -133 438 c-463 1530 -666 2055 -972 2510 -379 563 -376 779 13 779 181 0 284 -73 351 -250z m15200 -11 c0 -195 -75 -173 -199 59 -86 161 -78 187 47 139 83 -32 152 -121 152 -198z m-8100 -245 c0 -58 -45 -78 -100 -44 -55 34 -100 82 -100 106 0 24 45 44 100 44 55 0 100 -48 100 -106z m-12300 -344 c101 -122 96 -150 -26 -150 -82 0 -206 68 -274 150 -101 122 -96 150 26 150 82 0 206 -67 274 -150z m-746 -57 c117 -189 -54 -236 -228 -62 -156 156 -156 169 -3 169 91 0 195 -48 231 -107z m17452 -259 c137 -360 -55 -572 -263 -290 -79 107 -143 276 -143 375 0 277 292 215 406 -85z m-625 -159 c25 -128 -32 -175 -210 -175 -286 0 -771 -351 -771 -559 0 -175 -529 -510 -946 -599 -167 -36 -506 -159 -754 -275 -302 -141 -623 -205 -976 -194 -897 27 -1564 -393 -1571 -987 -3 -291 -38 -313 -1103 -701 -605 -219 -1178 -441 -1274 -492 -249 -133 -433 -115 -576 57 -68 83 -231 150 -362 150 -131 0 -238 44 -238 97 0 124 2407 1298 3450 1683 767 282 1189 470 3750 1668 1190 557 1524 626 1581 327z m5637 3 c-71 -71 -118 -77 -118 -15 0 134 118 252 185 185 28 -28 -2 -105 -67 -170z m-13318 -189 c0 -49 -67 -89 -150 -89 -82 0 -150 66 -150 147 0 89 59 124 150 89 83 -31 150 -98 150 -147z m9375 -1181 c244 -1267 262 -1523 112 -1618 -216 -137 -545 -105 -878 85 -294 167 -420 425 -209 425 55 0 100 67 100 150 0 83 -62 150 -138 150 -76 0 -194 -67 -262 -150 -173 -209 -981 -198 -1217 15 -226 205 -242 691 -25 774 87 34 330 61 539 61 526 0 605 242 149 459 -536 254 -450 441 204 441 487 0 550 -23 550 -204 0 -268 286 -696 465 -696 223 0 272 278 96 547 -201 307 -205 453 -11 453 83 0 151 56 153 125 7 306 239 -327 372 -1017z m-10316 636 c124 -260 139 -386 59 -466 -81 -81 -139 -37 -214 162 -106 279 -140 660 -59 660 25 0 122 -160 214 -356z m-3159 164 c0 -50 26 -174 58 -275 53 -167 45 -167 -100 11 -181 222 -203 356 -58 356 55 0 100 -41 100 -92z m4300 -308 c0 -55 -65 -100 -145 -100 -80 0 -191 -79 -247 -175 -87 -150 -102 -135 -105 100 -2 227 40 275 247 275 138 0 250 -45 250 -100z m100 -300 c0 -55 -45 -100 -100 -100 -55 0 -100 45 -100 100 0 55 45 100 100 100 55 0 100 -45 100 -100z m11598 -519 c1 -38 -43 -97 -98 -131 -97 -60 -302 341 -298 582 2 120 392 -324 396 -451z m-5580 97 c-71 -71 -118 -77 -118 -15 0 134 118 252 185 185 28 -28 -2 -105 -67 -170z m-6668 -178 c-34 -55 -107 -100 -162 -100 -55 0 -72 45 -38 100 34 55 107 100 162 100 55 0 72 -45 38 -100z m-3369 -972 c-32 -268 -318 -525 -444 -398 -40 39 3 128 96 196 139 103 151 184 68 473 -175 605 -117 798 109 369 111 -210 188 -498 171 -640z m619 839 c0 -171 -104 -276 -210 -211 -100 62 -2 344 121 344 49 0 89 -60 89 -133z m9044 -189 c207 -296 209 -878 3 -878 -85 0 -247 -157 -360 -350 -201 -341 -387 -385 -387 -93 0 80 55 233 121 340 67 107 96 220 65 251 -118 117 -376 -74 -472 -349 -92 -266 -130 -283 -548 -249 -247 20 -594 118 -770 218 -177 100 -404 226 -507 280 -470 248 -204 752 397 752 264 0 439 -82 687 -323 270 -261 366 -302 505 -213 106 67 160 205 141 362 -24 200 28 275 250 356 451 164 709 134 875 -104z m-10964 -198 c142 -142 160 -480 26 -480 -52 0 -163 97 -246 216 -221 316 -44 528 220 264z m2271 -672 l-66 -392 479 17 c382 14 486 -18 514 -156 25 -118 -78 -228 -321 -344 -394 -187 -488 -395 -132 -289 505 150 971 173 1300 64 l349 -115 -128 -371 c-84 -243 -192 -374 -312 -377 -287 -9 -960 -148 -1214 -251 -126 -52 -649 -141 -1160 -198 -991 -110 -1671 -28 -1933 234 -128 128 -112 197 127 558 156 236 493 540 785 708 622 359 1043 743 1165 1064 64 169 168 240 352 240 249 0 258 -19 195 -392z m-2251 -347 c0 -76 -94 -245 -208 -375 -182 -206 -200 -210 -139 -36 38 110 92 279 120 375 60 208 227 235 227 36z m422 -179 c-153 -153 -266 -40 -181 180 50 131 93 144 182 55 89 -89 89 -145 -1 -235z m13978 12 c0 -58 -45 -78 -100 -44 -55 34 -100 82 -100 106 0 24 45 44 100 44 55 0 100 -48 100 -106z m-4136 -444 c-35 -91 0 -150 89 -150 81 0 147 45 147 100 0 255 1013 -62 1186 -371 166 -296 -46 -554 -393 -477 -173 38 -293 23 -293 -37 0 -157 -617 -108 -932 73 -263 150 -292 150 -409 -9 -215 -293 -596 -383 -918 -216 -841 436 -369 1107 691 982 341 -40 458 -16 503 101 32 85 132 154 223 154 104 0 143 -54 106 -150z m-3104 -923 c-101 -102 -185 51 -102 186 63 102 87 102 121 1 23 -70 15 -154 -19 -187z"/>
<path d="M10241 21062 c-85 -220 28 -333 181 -180 90 90 90 146 1 235 -89 89 -132 76 -182 -55z"/>
<path d="M19756 3775 c82 -269 236 -475 354 -475 109 0 -231 694 -342 698 -45 1 -50 -99 -12 -223z"/>
<path d="M8260 1416 c-35 -56 -15 -132 45 -169 154 -95 253 35 125 163 -72 72 -128 74 -170 6z"/>
<path d="M253 23305 c-111 -180 81 -655 378 -933 366 -343 448 -281 273 206 -242 673 -504 965 -651 727z"/>
<path d="M24456 9009 c-31 -50 67 -281 219 -513 l275 -422 32 322 c43 430 -354 892 -526 613z"/>
<path d="M1469 5361 c-494 -153 -1240 -891 -1368 -1352 -55 -197 -100 -712 -100 -1144 -1 -896 153 -1257 674 -1580 316 -196 427 -385 225 -385 -55 0 -103 56 -107 125 -3 69 -55 24 -115 -100 -75 -155 -197 -225 -393 -225 -238 0 -285 -42 -285 -253 0 -222 40 -252 325 -240 179 7 1225 -34 2325 -92 1705 -89 2022 -83 2146 40 268 265 -28 338 -1398 345 -1297 7 -2698 169 -2698 312 0 38 85 47 189 20 104 -27 219 0 256 59 45 74 385 90 1036 50 749 -46 1067 -23 1403 99 513 186 1216 717 1216 918 0 206 -83 178 -465 -158 -188 -165 -432 -300 -542 -300 -352 0 -662 278 -671 603 -5 165 -76 434 -158 598 -192 386 -25 403 496 49 278 -189 497 -250 898 -250 292 0 557 43 589 95 82 133 -276 305 -635 305 -165 0 -328 45 -362 101 -78 125 -605 402 -858 450 -103 20 -258 76 -345 125 -128 71 -92 122 191 274 341 184 615 584 513 749 -87 140 -2241 72 -2296 -72 -81 -212 296 -324 985 -293 711 33 899 -88 285 -183 -1096 -170 -1174 -197 -1206 -423 -25 -172 30 -235 250 -285 764 -173 870 -210 905 -315 22 -67 -39 -92 -150 -63 -143 37 -231 -47 -371 -358 -101 -224 -226 -407 -278 -407 -52 0 -221 135 -375 300 -339 363 -500 382 -500 57 0 -253 163 -463 563 -725 320 -209 450 -136 720 406 255 511 315 543 540 287 278 -317 308 -601 76 -725 -116 -62 -241 -190 -280 -284 -115 -285 -1032 -84 -1460 319 -297 280 -347 402 -410 994 -89 826 141 1463 686 1909 307 250 434 287 984 283 649 -3 1743 -243 1921 -421 151 -151 560 -121 560 41 0 192 -574 663 -733 601 -71 -27 -418 20 -773 103 -747 176 -1097 180 -1625 16z"/>
<path d="M24800 4750 c0 -82 45 -150 100 -150 55 0 100 68 100 150 0 83 -45 150 -100 150 -55 0 -100 -67 -100 -150z"/>
<path d="M3631 3937 c-61 -159 236 -837 367 -837 141 0 902 650 902 771 0 218 -268 143 -443 -124 -184 -282 -324 -248 -461 113 -105 277 -274 313 -365 77z"/>
<path d="M24704 1054 c-139 -167 -59 -354 152 -354 87 0 144 99 144 250 0 281 -116 322 -296 104z"/>
</g>
</svg>