<svg xmlns="http://www.w3.org/2000/svg" version="1.0" width="250" height="250" viewBox="0 0 250.000000 250.000000" preserveAspectRatio="xMidYMid meet">
<metadata>
Created by potrace 1.10, written by Peter Selinger 2001-2011
</metadata>
<g transform="translate(0.000000,250.000000) scale(0.010000,-0.010000)" fill="#555555" stroke="none">
<path d="M0 24900 c0 -119 174 -119 450 0 168 72 147 87 -125 93 -179 4 -325 -38 -325 -93z"/>
<path d="M1781 24725 c-11 -151 -25 -407 -31 -569 l-11 -293 -869 -1 c-793 -2 -870 -19 -870 -195 0 -182 61 -191 998 -146 871 42 1005 27 1051 -119 29 -92 144 -264 255 -383 l201 -216 -264 -399 c-231 -348 -255 -460 -193 -877 39 -262 103 -522 143 -577 140 -192 310 -904 334 -1400 14 -275 70 -500 125 -500 186 0 162 954 -44 1751 -223 861 -250 1175 -117 1384 70 110 129 112 318 11 211 -113 260 -93 521 215 261 308 282 388 229 864 -38 342 -15 595 66 725 158 252 346 257 424 9 154 -483 664 -264 1235 530 279 390 302 461 149 461 -106 0 -300 -189 -469 -455 -349 -553 -652 -580 -784 -70 -91 354 -161 390 -391 200 -345 -286 -502 -698 -525 -1380 -25 -747 -69 -852 -315 -758 -102 39 -139 129 -102 246 36 114 -28 281 -168 438 -545 608 -577 677 -577 1230 0 421 -35 549 -150 549 -92 0 -157 -106 -169 -275z"/>
<path d="M4573 24934 c68 -27 203 -29 300 -3 97 25 42 47 -123 50 -165 2 -245 -19 -177 -47z"/>
<path d="M6200 24784 c0 -101 70 -184 155 -184 156 0 745 272 745 344 0 21 -203 35 -450 31 -368 -5 -450 -40 -450 -191z"/>
<path d="M8137 24853 c-121 -317 21 -403 669 -403 534 0 645 -29 675 -179 20 -104 -73 -265 -223 -383 -143 -112 -309 -296 -369 -408 -91 -171 -67 -245 151 -447 575 -533 84 -981 -961 -876 -551 56 -663 37 -904 -154 -327 -259 -344 -409 -75 -653 110 -100 200 -221 200 -271 0 -199 -663 -363 -1254 -311 -510 46 -636 22 -871 -165 -319 -253 -340 -412 -104 -812 223 -376 83 -525 -512 -545 -243 -8 -577 -71 -742 -139 -317 -131 -580 -598 -482 -855 94 -243 244 -176 313 138 100 454 338 606 901 573 420 -25 527 8 729 226 231 250 238 339 69 884 -57 183 -18 243 217 334 157 61 489 88 736 60 832 -93 1474 423 1220 979 -142 312 -82 346 716 398 359 23 742 91 852 149 265 142 312 135 312 -47 0 -85 93 -337 207 -560 248 -485 203 -679 -140 -614 -337 65 -506 -258 -425 -808 137 -929 140 -917 -211 -882 -271 27 -343 -15 -480 -281 -89 -172 -171 -568 -181 -882 l-20 -569 -371 -21 c-205 -11 -503 -88 -663 -171 -160 -82 -319 -122 -353 -87 -149 148 -44 555 196 761 152 131 313 428 390 720 73 274 164 577 202 673 62 153 6 175 -434 175 -595 0 -938 -116 -1339 -453 -161 -136 -399 -247 -529 -247 -301 0 -649 -477 -649 -890 0 -265 -37 -310 -253 -310 -375 0 -1116 -779 -1204 -1266 -38 -211 -115 -471 -170 -578 -98 -190 -104 -189 -273 19 -222 274 -162 1162 105 1540 486 691 289 1585 -350 1585 -376 0 -480 215 -306 633 203 485 190 687 -59 955 -163 174 -301 219 -606 197 -509 -37 -605 113 -529 823 59 547 53 564 -307 880 -383 336 -576 361 -630 79 -22 -113 15 -148 118 -108 216 83 596 -692 537 -1095 -24 -169 -3 -461 49 -648 89 -320 114 -336 443 -283 777 126 1021 -236 664 -985 -221 -462 -95 -681 431 -748 352 -45 399 -86 481 -418 95 -386 71 -443 -460 -1107 -171 -214 -194 -302 -101 -395 198 -198 139 -410 -260 -941 -335 -447 -378 -568 -364 -1023 20 -627 -170 -698 -341 -127 -64 214 -224 460 -357 546 -202 133 -234 222 -200 565 21 224 87 497 146 607 202 378 -150 993 -569 993 -296 0 -306 -221 -16 -351 305 -138 337 -327 62 -366 -322 -46 -390 -483 -75 -483 197 0 214 -38 161 -362 -32 -200 -128 -440 -213 -533 -227 -251 -188 -384 97 -329 307 58 504 -96 758 -594 127 -248 264 -382 393 -382 164 0 198 -68 198 -394 0 -332 -47 -423 -300 -572 -165 -97 -301 -224 -303 -281 -2 -56 -69 -16 -150 91 -81 107 -147 367 -147 578 0 493 -225 1031 -492 1173 -170 92 -208 83 -208 -45 0 -86 68 -262 152 -389 84 -128 189 -533 233 -901 44 -367 147 -735 230 -818 132 -132 181 -124 431 73 l282 222 197 -244 c168 -206 188 -336 135 -857 -76 -742 47 -1136 355 -1136 120 0 296 70 390 155 157 141 177 132 236 -106 36 -144 40 -427 8 -630 -161 -1021 -161 -1019 -12 -1019 152 0 363 749 363 1286 0 339 136 521 639 855 421 280 751 329 941 139 93 -93 120 -71 120 100 0 158 -63 223 -225 232 -376 20 -474 -13 -989 -330 -476 -293 -502 -298 -632 -120 -129 176 -145 177 -328 12 -105 -96 -272 -174 -370 -174 -147 0 -168 57 -118 325 33 179 86 504 118 724 32 219 266 827 519 1350 373 770 567 1042 1022 1433 649 556 1422 1006 2194 1278 666 234 1096 240 1554 22 194 -92 385 -135 425 -95 128 128 -130 409 -509 553 -384 146 -565 114 -2061 -361 -1305 -415 -2662 -1886 -3142 -3404 -98 -307 -210 -282 -360 81 -95 229 -98 334 -12 420 68 68 114 465 114 988 0 481 45 902 100 936 55 34 100 146 100 250 0 278 210 358 368 142 128 -174 160 -177 410 -37 197 110 328 321 476 768 113 338 288 708 391 821 256 284 537 264 614 -44 34 -137 119 -250 187 -250 118 0 875 508 1120 752 64 64 255 96 425 71 258 -38 309 -90 309 -318 0 -149 25 -296 55 -327 30 -30 314 15 630 100 332 89 692 124 852 84 243 -61 270 -105 215 -352 -55 -249 -24 -297 268 -412 660 -261 832 -564 519 -910 -108 -119 -249 -161 -425 -127 -150 29 -348 -11 -458 -93 -177 -130 -183 -182 -71 -558 148 -493 117 -561 -330 -708 -279 -92 -400 -84 -649 45 -168 87 -306 200 -306 252 0 161 -407 321 -658 258 -132 -33 -310 -169 -397 -301 -144 -219 -144 -268 -1 -545 149 -287 146 -309 -50 -414 -164 -88 -288 -68 -603 96 -450 235 -766 260 -1139 90 -302 -138 -415 -479 -256 -776 147 -274 67 -391 -229 -335 -256 49 -643 -244 -856 -649 -198 -375 -8 -470 213 -106 258 426 346 480 797 481 409 2 638 247 474 507 -51 80 -93 246 -93 370 -2 194 50 225 379 225 209 0 468 -66 575 -147 278 -210 675 -186 987 60 238 187 263 258 205 599 -94 555 159 628 609 177 l338 -339 -735 -750 c-1032 -1053 -2190 -2888 -2714 -4300 -182 -491 -235 -550 -490 -550 -237 0 -307 60 -407 350 -67 193 -237 521 -379 730 -141 208 -423 714 -626 1125 -263 534 -543 908 -981 1314 -555 514 -616 547 -645 347 -24 -162 103 -344 466 -670 319 -287 630 -708 865 -1172 202 -398 428 -791 502 -874 283 -315 569 -1155 562 -1650 -10 -651 -375 -1785 -668 -2073 -768 -755 -1384 -1156 -1498 -973 -113 184 -247 94 -247 -165 0 -227 32 -253 245 -199 196 49 292 -3 486 -264 426 -574 413 -751 -90 -1240 -247 -240 -492 -436 -545 -436 -53 0 -96 -157 -96 -350 0 -366 154 -456 384 -226 99 99 144 94 220 -25 160 -249 62 -437 -280 -535 -244 -70 -324 -150 -324 -321 l0 -229 440 246 c542 303 633 409 676 790 33 290 49 299 484 266 248 -19 469 -53 493 -77 24 -23 -48 -165 -161 -316 -140 -186 -296 -273 -491 -273 -347 0 -459 -296 -143 -378 270 -71 736 319 899 751 68 180 168 423 223 540 114 241 19 480 -311 779 -133 121 -209 311 -209 527 0 186 -69 443 -152 570 -137 209 -137 246 1 360 117 97 126 160 40 264 -83 101 -84 172 -2 271 61 74 79 166 40 206 -39 39 -22 102 38 140 307 196 786 1376 888 2189 43 340 136 431 439 431 245 0 309 70 519 569 597 1419 1725 3387 2139 3731 84 70 298 205 476 301 223 120 315 236 295 372 -39 268 637 910 1038 985 174 33 526 233 783 446 257 212 724 508 1038 658 591 282 712 300 2620 393 1454 71 2452 303 2709 629 220 280 151 496 -94 291 -396 -330 -989 -468 -2290 -534 -957 -48 -1325 -35 -1325 46 0 62 39 113 86 113 47 0 295 184 550 408 469 414 583 733 346 970 -90 90 -75 165 66 320 234 258 452 259 452 2 0 -328 355 -600 784 -600 312 0 405 -47 498 -250 122 -269 140 -275 818 -290 444 -10 450 -14 425 -335 -38 -487 256 -422 820 180 380 406 449 532 354 646 -75 90 -93 287 -51 539 50 294 14 517 -139 863 l-207 467 -476 -60 c-899 -115 -950 -112 -1061 63 -85 132 -71 240 62 465 355 601 104 822 -644 568 -242 -82 -596 -162 -787 -178 -284 -23 -351 9 -375 178 -17 113 62 288 175 390 474 429 103 824 -617 658 -605 -140 -949 -127 -1012 37 -29 77 123 378 340 668 216 290 393 563 393 608 0 44 -152 144 -338 221 -453 190 -496 291 -253 600 269 342 681 347 972 12 120 -137 324 -250 453 -250 242 0 566 276 566 483 0 64 45 117 100 117 55 0 100 85 100 189 0 104 78 220 174 256 253 97 487 -244 563 -822 38 -279 153 -581 270 -707 l204 -220 449 368 c554 454 651 387 790 -543 93 -626 117 -670 350 -662 138 5 369 43 515 83 240 68 275 40 388 -300 98 -299 97 -512 -7 -1063 -71 -378 -158 -705 -192 -726 -34 -22 -163 149 -287 379 -124 230 -436 576 -695 768 -258 193 -573 471 -700 620 -127 148 -330 300 -451 337 -122 37 -446 168 -721 292 -699 315 -829 353 -1000 287 -231 -89 -178 -207 125 -282 1043 -255 2819 -1558 3235 -2373 443 -869 421 -2279 -43 -2764 -319 -333 -333 -417 -67 -417 110 0 200 42 200 92 0 138 581 693 895 855 502 260 1221 995 1372 1403 751 2029 900 2932 591 3575 -154 319 -229 375 -506 375 -479 0 -871 345 -832 734 23 238 130 377 464 601 383 256 416 307 286 438 -82 81 -502 290 -934 462 -622 249 -793 362 -818 540 -23 161 -99 225 -270 225 -223 0 -231 -20 -132 -325 58 -179 213 -424 345 -545 297 -274 297 -309 -6 -625 -135 -141 -380 -502 -545 -803 -290 -530 -301 -539 -394 -295 -118 310 -372 532 -512 446 -162 -101 -328 457 -253 847 193 996 213 1300 85 1300 -196 0 -360 -746 -394 -1789 -17 -517 -72 -981 -122 -1031 -89 -89 -472 739 -540 1170 -18 110 -199 289 -402 399 -335 180 -376 247 -435 725 -52 414 -104 526 -245 526 -161 0 -177 -104 -163 -1065 11 -774 -19 -1077 -110 -1108 -81 -28 -125 57 -125 240 0 156 -90 520 -200 809 -110 289 -200 661 -200 825 0 164 -45 299 -100 299 -163 0 -109 -707 102 -1341 268 -800 262 -953 -27 -688 -124 113 -329 238 -456 276 -299 91 -419 424 -419 1160 0 372 -42 593 -112 593 -78 0 -99 -276 -69 -900 30 -629 9 -900 -71 -900 -188 0 -548 -448 -548 -681 0 -332 -162 -263 -367 156 -157 321 -226 372 -483 351 -186 -14 -395 57 -548 186 l-249 208 235 190 c129 105 297 190 373 190 76 0 139 86 139 192 0 105 209 375 464 600 367 323 422 408 262 408 -111 0 -260 -70 -331 -155 -283 -343 -481 -366 -831 -99 -347 265 -564 324 -564 154 0 -55 -112 -100 -250 -100 -137 0 -250 45 -250 100 0 154 -199 118 -263 -47z m10102 -1158 c50 -47 -25 -219 -175 -397 -333 -396 -415 -716 -258 -1009 105 -197 97 -246 -58 -335 -99 -57 -274 -194 -389 -304 -114 -110 -361 -282 -548 -383 -275 -148 -355 -158 -424 -50 -152 241 -101 562 88 547 133 -11 168 50 144 254 -17 147 45 417 138 600 182 355 721 1085 890 1205 111 78 448 6 592 -128z m-7980 -1345 c90 -137 249 -250 353 -250 103 0 188 -67 188 -148 0 -82 124 -175 275 -209 151 -33 308 -68 348 -77 40 -9 -91 -251 -292 -539 -322 -462 -351 -553 -250 -775 78 -171 195 -252 364 -252 368 0 595 -491 513 -1109 -58 -442 -46 -479 165 -509 181 -25 233 -105 257 -390 23 -274 -52 -479 -325 -885 -377 -560 -435 -734 -227 -686 126 29 172 -29 172 -216 0 -155 -911 -805 -1128 -805 -109 0 -303 -112 -431 -250 -130 -141 -343 -250 -486 -250 -140 0 -255 17 -255 37 0 173 331 899 575 1264 283 422 485 860 865 1876 210 560 217 1423 12 1423 -82 0 -167 -101 -191 -225 -370 -1939 -470 -2239 -1030 -3085 l-241 -365 -287 288 c-158 158 -353 287 -432 287 -189 0 -251 466 -178 1343 54 659 71 697 342 769 450 120 567 356 539 1088 -22 606 -9 652 201 682 264 37 376 368 287 844 -158 839 -183 1076 -128 1219 86 225 238 191 425 -95z m8501 -650 c275 0 540 -431 540 -878 0 -416 -214 -1422 -303 -1422 -41 0 -104 146 -139 325 -103 519 -311 720 -746 720 -364 0 -388 21 -509 433 -121 407 -114 447 109 685 184 196 301 239 525 195 158 -32 394 -58 523 -58z m-6160 -1645 c0 -125 -380 -523 -426 -446 -281 473 -283 494 -51 580 267 100 477 40 477 -134z m5723 -30 c84 -96 186 -287 227 -425 41 -137 140 -326 221 -418 172 -196 111 -456 -236 -1005 -129 -205 -236 -430 -238 -500 -3 -159 -576 -731 -654 -653 -32 31 17 275 108 542 172 504 137 1382 -70 1770 -55 102 -71 338 -36 525 51 269 112 339 294 339 127 0 299 -79 384 -175z m-4189 -892 c37 -37 -5 -176 -92 -309 -91 -139 -134 -340 -102 -471 53 -210 16 -233 -466 -296 -288 -37 -625 -93 -749 -123 -202 -50 -219 -27 -167 232 44 221 -2 353 -200 566 -253 273 -373 523 -138 288 162 -162 741 -149 1230 27 456 164 589 181 684 86z m-7095 -451 c-10 -350 -215 -682 -420 -682 -52 0 -151 -67 -219 -150 -186 -225 -252 -188 -449 248 -207 458 -126 633 399 865 507 224 702 145 689 -281z m10494 -339 c36 -499 -244 -1668 -357 -1485 -31 51 -70 452 -85 892 -44 1213 356 1750 442 593z m-12065 -168 c365 -406 356 -452 -178 -874 -284 -224 -537 -387 -562 -362 -66 65 187 1187 301 1336 133 175 207 158 439 -100z m10225 -362 c55 -104 131 -385 167 -625 37 -241 113 -496 168 -566 73 -92 35 -198 -131 -375 -127 -136 -264 -247 -304 -247 -163 0 -179 505 -30 944 l161 470 -281 293 c-268 280 -271 293 -65 293 118 0 260 -84 315 -187z m-1409 -165 c69 -67 -92 -419 -290 -631 -153 -164 -270 -203 -474 -154 -586 139 -830 656 -395 838 194 81 1061 42 1159 -53z m765 -166 c138 -120 251 -321 251 -446 0 -306 -373 -636 -719 -636 -232 0 -281 43 -281 247 0 222 363 1053 459 1053 22 0 152 -98 290 -218z m-5851 -2557 c-1 -96 -147 -277 -325 -401 -300 -211 -332 -215 -448 -56 -174 237 -163 261 202 443 436 219 573 222 571 14z m-7798 -10492 c0 -155 -347 -433 -540 -433 -189 1 -180 26 90 247 303 248 450 309 450 186z m175 -1267 c61 -135 70 -293 21 -372 -111 -180 -179 -103 -257 288 -75 372 79 427 236 84z m425 -1071 c0 -237 -1194 -444 -1273 -220 -24 69 35 155 132 192 97 37 260 152 362 254 178 178 198 179 483 11 163 -96 296 -203 296 -237z"/>
<path d="M18900 24903 c0 -118 412 -933 507 -1003 38 -27 128 -444 202 -925 134 -881 182 -979 369 -750 103 127 -12 1190 -154 1416 -38 60 -71 154 -74 209 -2 55 -110 336 -240 625 -162 363 -292 525 -422 525 -104 0 -188 -44 -188 -97z"/>
<path d="M21097 24712 c82 -287 -136 -770 -522 -1152 -278 -276 -221 -526 136 -597 280 -56 304 -89 244 -338 -37 -151 -244 -575 -461 -942 -217 -368 -394 -728 -394 -801 0 -172 -521 -1641 -720 -2032 -195 -381 -319 -1050 -196 -1050 51 0 320 73 598 163 489 158 888 132 775 -51 -30 -49 -224 -121 -431 -160 -890 -166 -2533 -1153 -2329 -1399 75 -89 47 -197 -96 -380 -111 -140 -201 -352 -201 -470 0 -214 14 -215 1280 -147 1146 63 1298 52 1456 -106 168 -168 165 -188 -80 -444 -264 -275 -330 -549 -158 -655 54 -33 448 -72 875 -86 773 -25 1327 -233 1327 -498 0 -60 -124 -209 -275 -332 -417 -337 -222 -554 636 -710 918 -166 1205 -528 689 -866 -395 -258 -287 -859 155 -859 90 0 239 -83 330 -183 136 -151 147 -240 57 -496 -152 -437 -444 -505 -782 -181 -290 279 -504 326 -679 151 -168 -168 -601 164 -731 559 -159 481 -304 571 -642 396 -453 -235 -540 -188 -610 329 -96 703 -139 809 -355 877 -132 42 -300 -24 -508 -199 -478 -402 -641 -308 -605 348 38 684 -32 966 -270 1094 -144 77 -250 52 -449 -104 -143 -113 -362 -191 -486 -173 -180 26 -221 90 -205 319 12 158 91 364 175 458 232 256 187 624 -120 986 -235 275 -355 329 -821 366 -517 40 -804 -54 -804 -264 0 -51 150 -64 334 -29 466 87 1040 -167 1123 -497 38 -150 -2 -424 -96 -659 -378 -945 -50 -1328 792 -927 310 149 371 152 449 26 161 -261 42 -499 -459 -911 -271 -224 -529 -470 -573 -546 -132 -231 -240 -161 -411 266 -89 224 -275 511 -413 639 -202 187 -233 277 -161 468 174 465 230 1345 103 1624 -184 403 -341 257 -319 -298 17 -423 5 -455 -85 -239 -57 138 -166 396 -242 575 -77 179 -212 325 -302 325 -174 0 -170 -33 99 -763 116 -317 128 -498 50 -781 -59 -212 -152 -350 -220 -326 -66 23 -240 -19 -389 -94 -238 -120 -308 -113 -600 60 -181 108 -393 344 -470 525 -76 181 -208 409 -292 506 -202 234 -78 340 491 424 480 70 596 12 931 -467 79 -113 193 -176 252 -139 188 116 114 496 -144 741 -209 198 -315 225 -673 174 -234 -34 -976 -89 -1650 -123 -945 -47 -1225 -93 -1225 -199 0 -97 134 -138 450 -138 248 0 450 -45 450 -100 0 -55 102 -100 228 -100 305 0 639 -246 827 -609 182 -353 144 -435 -301 -646 -411 -195 -854 -807 -854 -1180 0 -200 81 -320 299 -445 165 -93 300 -202 300 -240 1 -72 -646 -278 -874 -279 -186 -1 -165 974 25 1163 174 174 201 693 41 792 -141 87 -709 1332 -728 1594 -12 171 -73 195 -414 165 -219 -19 -447 -74 -505 -122 -59 -47 -270 -60 -471 -27 -361 58 -434 28 -1523 -635 -110 -67 -433 -232 -717 -367 -284 -135 -593 -362 -686 -505 -160 -244 -160 -274 3 -523 171 -261 178 -263 1070 -195 854 64 920 54 1353 -199 l456 -267 -365 -344 c-200 -189 -364 -414 -364 -501 0 -108 -66 -74 -210 110 -385 490 -1055 742 -2134 804 l-974 56 -266 -301 c-491 -554 -1565 -2637 -1662 -3223 -48 -288 -119 -389 -308 -436 -135 -34 -246 -129 -246 -212 0 -102 55 -127 175 -79 508 205 917 175 1395 -103 264 -153 503 -308 530 -343 130 -168 566 -403 747 -403 112 -1 359 -96 550 -212 l346 -211 -233 -189 c-127 -103 -339 -188 -469 -188 -171 0 -255 -71 -302 -256 -103 -411 73 -650 612 -829 350 -117 561 -265 722 -505 293 -439 287 -500 -69 -624 -163 -56 -324 -191 -358 -299 -88 -278 208 -683 550 -751 158 -32 438 -185 621 -341 l333 -284 -425 -171 c-337 -135 -425 -221 -425 -415 0 -160 69 -262 200 -296 275 -72 251 -215 -56 -331 -183 -70 -444 -50 -925 70 -848 211 -1248 433 -1318 730 -82 346 -336 471 -633 312 -302 -162 -636 -67 -723 206 -38 118 11 376 114 604 132 292 152 441 75 564 -126 201 -516 274 -666 124 -137 -137 -668 -142 -668 -6 0 56 115 284 256 507 346 549 301 910 -131 1037 -369 108 -400 186 -150 373 222 166 684 859 774 1163 156 524 -587 818 -1063 421 l-236 -196 428 -4 c692 -5 669 -300 -93 -1217 -483 -581 -489 -744 -30 -830 350 -66 564 -314 380 -441 -166 -114 -535 -691 -535 -836 0 -78 60 -223 134 -323 122 -168 176 -172 648 -51 283 73 547 100 586 60 39 -39 -5 -200 -98 -359 -94 -158 -170 -382 -170 -497 0 -116 -137 -399 -303 -630 -296 -408 -326 -621 -203 -1474 3 -25 60 9 126 75 66 66 247 120 403 120 375 0 881 221 1119 488 199 223 303 219 908 -37 529 -224 1417 -380 1777 -312 415 78 1203 621 1147 791 -22 66 -137 134 -257 152 -295 43 -272 136 84 338 548 312 333 713 -634 1180 -555 268 -665 506 -276 598 427 101 488 346 214 863 -270 509 -547 732 -1033 831 -370 76 -461 429 -126 493 387 75 654 329 654 624 0 336 -266 543 -834 646 -438 80 -980 496 -806 618 185 129 340 498 340 810 0 174 63 320 155 355 84 33 226 229 314 436 88 207 179 320 204 251 52 -149 389 -167 477 -25 34 55 122 100 195 100 272 0 255 -334 -43 -862 -333 -591 -386 -984 -144 -1077 87 -34 385 -61 662 -61 500 0 503 -2 433 -275 -262 -1021 -113 -1476 405 -1240 375 171 520 142 705 -140 164 -251 160 -263 -212 -644 -310 -317 -388 -479 -427 -884 -43 -445 -25 -503 174 -566 187 -60 211 -120 159 -397 -33 -180 -32 -402 3 -494 82 -214 556 -460 885 -460 369 0 313 -143 -134 -345 -390 -176 -649 -540 -556 -783 28 -72 190 -183 360 -247 242 -91 293 -156 234 -296 -41 -98 -97 -280 -124 -404 l-48 -225 1512 0 c1389 0 1527 16 1684 200 219 256 346 253 511 -12 111 -177 203 -204 553 -165 590 67 1091 329 1298 679 97 164 215 298 261 298 47 0 281 -164 520 -364 486 -408 958 -636 1318 -636 190 0 254 66 304 313 116 584 67 776 -295 1137 -415 416 -413 653 7 768 231 64 323 45 400 -79 298 -480 479 -643 654 -588 152 49 189 -4 215 -311 40 -482 479 -852 783 -662 299 187 491 147 616 -128 97 -212 182 -250 556 -250 357 0 499 57 741 300 165 165 342 300 393 300 50 0 92 -180 92 -400 l0 -400 425 1 c408 2 415 7 175 129 -170 86 -251 212 -255 395 -2 147 -36 299 -75 338 -38 39 -70 165 -70 281 0 117 -64 303 -143 415 -78 113 -157 377 -175 588 -44 531 -264 646 -667 348 -427 -315 -588 -168 -408 371 144 430 141 826 -7 974 -55 55 -281 88 -502 75 -222 -13 -445 2 -496 34 -99 61 212 666 523 1016 283 319 204 776 -143 816 -486 56 -539 253 -245 908 145 322 263 725 263 896 0 269 -80 362 -620 712 -387 252 -737 403 -931 403 -338 0 -1044 303 -1230 528 -64 76 -179 318 -256 535 -115 325 -117 428 -11 573 144 197 195 148 291 -286 152 -685 891 -1142 1834 -1135 l485 4 128 465 c70 257 143 517 161 579 18 62 143 91 277 66 254 -49 458 206 263 327 -126 78 78 344 263 344 72 0 181 -154 243 -342 153 -464 301 -563 850 -574 295 -6 488 -60 521 -145 70 -183 745 -366 874 -237 203 203 358 98 358 -240 0 -268 -83 -414 -400 -700 -462 -417 -435 -409 -741 -209 -128 84 -476 181 -771 214 -631 72 -1088 277 -1088 489 0 83 68 312 150 509 331 792 30 807 -398 21 -193 -354 -257 -587 -217 -787 34 -170 12 -300 -55 -322 -66 -22 73 -343 338 -782 662 -1094 896 -1804 1226 -3720 40 -232 121 -375 211 -375 461 0 -137 2597 -911 3955 -244 429 -444 789 -444 802 0 12 169 -17 375 -65 206 -48 540 -88 742 -90 247 -1 469 -87 675 -261 373 -314 381 -405 58 -659 -138 -108 -250 -300 -250 -428 0 -241 259 -406 1026 -650 664 -212 766 -713 199 -978 -551 -259 -561 -607 -32 -1180 517 -561 518 -773 7 -1096 -455 -287 -496 -487 -200 -973 250 -411 251 -540 5 -605 -268 -70 -389 -567 -169 -690 193 -108 219 -443 39 -516 -69 -28 -6 -54 139 -58 237 -7 270 37 330 440 37 246 110 474 162 506 147 90 110 786 -53 1002 -224 297 -182 510 147 744 424 302 426 910 4 1404 -378 442 -379 652 -4 846 266 138 300 206 300 607 0 565 -289 887 -942 1051 -496 125 -637 422 -258 542 201 64 238 151 205 477 -10 98 170 390 400 650 591 668 652 833 473 1292 -101 257 -122 477 -67 675 106 381 -88 795 -393 839 -341 48 -394 314 -110 544 194 157 242 290 243 669 1 362 67 559 280 838 392 514 461 1193 178 1748 -198 388 -202 441 -61 714 196 380 194 1032 -4 1416 -101 194 -123 345 -63 420 51 65 125 294 163 508 63 350 41 414 -212 617 l-282 227 257 283 c412 454 633 1064 545 1505 -109 546 -95 726 90 1216 217 572 233 1577 32 1966 -105 203 -138 450 -101 772 48 434 35 474 -160 474 -189 0 -213 -56 -213 -507 0 -376 -61 -588 -237 -825 -130 -175 -315 -644 -411 -1043 -95 -399 -203 -725 -238 -725 -36 0 -125 135 -198 300 -197 444 -483 395 -719 -125 -106 -234 -194 -501 -195 -593 -1 -93 -50 -296 -110 -450 l-108 -282 -199 245 c-155 191 -236 222 -363 141 -242 -152 -489 -642 -572 -1137 -41 -239 -158 -586 -262 -770 -353 -629 -183 -731 227 -137 146 211 318 637 382 946 122 587 196 662 403 412 318 -383 715 -27 902 810 145 646 199 704 403 433 152 -201 210 -218 420 -123 256 117 575 674 575 1005 0 213 351 587 428 457 102 -174 -154 -1499 -351 -1820 l-209 -337 222 -168 c245 -184 308 -640 133 -961 -59 -108 -265 -349 -459 -535 -318 -305 -381 -329 -634 -233 -154 59 -604 136 -1001 170 l-721 63 -429 -392 c-387 -354 -561 -430 -1229 -537 -232 -37 -234 -47 106 868 142 385 318 903 390 1150 231 795 608 1374 1005 1542 293 124 1449 1427 1449 1632 0 56 63 154 140 217 131 109 460 969 460 1203 0 58 -62 106 -137 106 -77 0 -193 -198 -264 -455 -70 -250 -277 -703 -460 -1006 -356 -592 -1290 -1621 -1384 -1527 -32 32 10 220 94 419 219 525 192 758 -99 869 -137 52 -250 121 -250 154 0 32 158 264 350 516 193 252 350 505 350 561 0 56 30 72 67 35 71 -71 433 213 433 340 0 41 -221 77 -491 79 -490 3 -491 3 -412 -273z m655 -6696 l-65 -784 418 -666 c450 -718 476 -1062 94 -1266 -123 -66 -221 -255 -261 -503 l-64 -397 -681 0 c-763 0 -913 109 -603 439 298 317 262 502 -140 718 -389 210 -397 229 -236 584 172 377 -54 852 -443 930 -280 56 -288 69 -117 194 273 200 806 164 1234 -82 213 -123 450 -190 545 -153 200 76 223 270 32 270 -303 0 -637 695 -503 1045 66 172 501 444 721 451 106 3 120 -160 69 -780z m1092 631 c107 -81 276 -147 375 -147 252 0 241 -515 -16 -747 -172 -156 -999 -389 -1083 -306 -17 17 -36 258 -42 536 -17 742 300 1016 766 664z m1180 -858 c-14 -131 -132 -329 -262 -439 -322 -271 -662 -1085 -664 -1588 -1 -450 -128 -755 -239 -576 -37 59 -37 333 0 610 64 486 54 514 -326 895 l-393 392 440 66 c343 52 532 162 855 499 452 470 629 513 589 141z m-4443 -893 c219 -204 296 -723 142 -958 -112 -172 -1456 -385 -1670 -265 -161 90 -144 136 185 500 199 221 362 437 362 481 0 168 340 446 547 446 118 0 314 -92 434 -204z m4383 -464 c38 -154 -9 -575 -112 -987 l-179 -718 225 -225 c290 -290 232 -846 -147 -1419 -216 -326 -308 -390 -484 -337 -119 35 -386 91 -592 122 -406 63 -458 139 -225 332 192 160 190 432 -6 812 -86 166 -142 400 -125 520 27 191 83 214 450 185 l419 -33 156 526 c86 290 156 654 156 810 0 286 186 680 322 680 41 0 104 -121 142 -268z m-12491 -2690 c233 -408 293 -742 135 -742 -51 0 -142 150 -203 334 -60 183 -196 426 -301 539 -106 113 -164 234 -129 268 118 119 275 -7 498 -399z m-1231 171 c30 -48 180 -112 334 -143 196 -39 332 -165 452 -417 224 -469 217 -622 -36 -758 -115 -61 -274 -267 -354 -457 -130 -312 -159 -331 -299 -191 -340 339 -598 403 -1637 403 -916 0 -1052 22 -1082 174 -22 113 64 216 248 295 155 67 462 241 682 386 1052 693 1215 783 1419 789 121 3 243 -33 273 -81z m5794 -1092 c-102 -199 -383 -701 -625 -1116 -548 -945 -869 -1788 -1015 -2670 -62 -377 -199 -923 -305 -1214 -201 -557 -261 -1621 -91 -1621 55 0 100 204 100 454 0 250 86 622 191 828 105 206 239 635 298 954 111 600 437 1791 634 2314 166 441 994 1537 1124 1487 110 -42 188 -206 562 -1186 289 -753 273 -789 -309 -720 -428 51 -530 29 -700 -155 -268 -287 -252 -620 56 -1146 314 -535 293 -867 -56 -914 -294 -40 -660 -353 -732 -626 -27 -107 58 -398 191 -647 132 -250 241 -586 241 -748 0 -281 -21 -295 -430 -295 -665 0 -867 -343 -470 -800 110 -127 200 -270 200 -318 0 -145 -293 -212 -430 -99 -175 146 -415 -21 -334 -232 52 -136 141 -156 464 -101 326 55 412 36 466 -106 93 -243 -245 -472 -566 -385 -385 106 -605 70 -1084 -176 -515 -265 -690 -557 -523 -870 63 -117 157 -213 211 -213 158 0 108 -274 -62 -339 -87 -34 -395 -61 -685 -61 -851 0 -1300 -566 -825 -1041 l243 -244 -318 -309 c-268 -259 -371 -298 -638 -245 -344 69 -378 142 -211 454 85 158 70 243 -66 393 -95 106 -256 192 -357 192 -366 0 -174 282 365 537 594 281 723 563 350 763 -325 174 -232 381 293 646 476 241 807 575 807 813 0 63 -134 266 -298 452 -165 187 -300 367 -300 402 -4 134 280 287 508 273 132 -7 368 38 523 101 156 63 320 92 364 65 44 -27 80 -278 80 -557 0 -391 52 -563 229 -751 266 -284 419 -305 637 -87 219 219 196 376 -46 313 -268 -70 -519 310 -495 750 10 181 14 408 8 503 -15 253 -443 326 -746 127 -245 -161 -464 -136 -464 52 0 49 135 318 300 598 165 280 300 643 300 808 l0 299 -487 -65 c-694 -92 -720 63 -121 719 693 758 669 1239 -62 1239 -263 0 -330 40 -330 200 0 313 746 1000 1085 1000 360 0 957 394 991 653 18 138 -72 242 -300 347 -485 223 -483 530 5 838 460 290 1064 431 1163 271 107 -173 506 -127 783 91 140 110 327 200 416 200 89 0 211 124 271 275 69 171 128 225 159 141 27 -73 -34 -296 -137 -495z m-3951 -310 c74 -47 118 -169 99 -272 -27 -140 -162 -206 -535 -261 -275 -41 -554 -54 -622 -30 -154 55 -51 352 121 352 70 0 184 68 252 150 137 165 474 195 685 61z m6415 -707 c0 -352 359 -446 809 -211 219 114 436 207 483 207 47 0 117 -214 156 -475 39 -261 108 -520 154 -576 45 -56 3 -393 -94 -750 -170 -624 -190 -650 -518 -682 -756 -74 -1685 527 -1536 995 33 104 -11 331 -97 504 -211 423 -200 517 102 876 295 351 541 401 541 112z m-6704 -197 c150 -279 128 -1036 -36 -1260 -124 -170 -168 -176 -392 -56 -197 105 -267 241 -319 617 -74 537 -28 666 286 793 313 126 347 119 461 -94z m-1096 -399 c0 -160 25 -357 56 -438 40 -105 -37 -159 -275 -195 -182 -27 -387 -27 -456 -1 -173 66 -157 292 32 447 86 71 231 208 322 304 235 249 321 218 321 -117z m-3439 -42 l273 -235 -311 -633 -311 -633 -122 267 c-131 288 -634 490 -988 398 -111 -30 -202 -23 -202 13 0 114 316 698 478 882 228 260 848 229 1183 -59z m1258 -141 c473 -303 643 -489 883 -966 164 -325 298 -642 298 -705 0 -156 755 -1849 881 -1975 144 -144 321 -6 256 199 -30 95 -183 442 -342 772 -353 735 -595 1413 -595 1663 0 266 784 263 1114 -5 l236 -191 -275 -69 c-151 -39 -275 -104 -275 -145 0 -148 756 -582 1125 -647 206 -36 375 -108 375 -159 0 -52 -225 -343 -500 -647 -574 -634 -653 -997 -250 -1150 137 -52 385 -68 550 -35 368 74 368 26 -4 -665 -163 -302 -297 -617 -298 -700 -1 -133 -12 -133 -97 0 -78 123 -150 84 -405 -225 -492 -595 -909 -497 -1048 246 -38 205 -132 424 -208 488 -77 63 -140 200 -140 303 0 237 -50 235 -461 -19 -185 -114 -381 -179 -437 -144 -149 92 -124 483 45 707 81 107 148 272 150 367 5 256 -433 498 -840 463 -555 -48 -606 100 -260 758 166 317 303 656 303 754 0 274 -259 434 -574 355 -152 -38 -298 -66 -326 -61 -111 18 -50 283 169 730 127 259 231 608 231 775 0 167 30 303 67 303 37 0 330 -169 652 -375z m-2164 -1070 c313 -314 326 -806 28 -1124 -120 -127 -278 -231 -350 -231 -155 0 -179 -260 -33 -350 139 -86 125 -278 -38 -501 -128 -174 -172 -178 -575 -51 -240 75 -533 222 -650 326 -201 178 -206 215 -77 641 262 872 789 1481 1320 1524 71 6 240 -99 375 -234z m10401 -55 c78 0 256 -227 396 -504 141 -278 365 -554 502 -616 135 -62 246 -179 246 -260 0 -81 71 -200 158 -263 266 -195 291 -1176 58 -2357 -281 -1425 -282 -1458 -73 -2219 101 -367 156 -740 122 -827 -104 -272 -361 -293 -620 -50 -134 127 -275 199 -313 161 -38 -38 -101 -341 -140 -673 -113 -951 -516 -1240 -1024 -733 -284 284 -468 249 -468 -90 -1 -403 -350 -823 -840 -1010 -1019 -389 -1032 106 -25 929 404 330 1045 922 1425 1314 725 751 1693 2154 1547 2243 -88 55 -357 -275 -851 -1045 -365 -568 -1607 -1806 -2456 -2448 -357 -270 -869 -685 -1136 -922 -550 -487 -1006 -570 -1307 -237 -168 185 -163 199 134 352 387 200 389 309 9 505 -575 298 -333 579 589 683 828 93 1121 457 703 875 -114 114 -183 270 -154 347 87 227 770 461 1161 398 532 -87 1001 235 1001 687 0 478 88 660 371 768 177 67 303 51 459 -58 436 -305 743 -173 1189 513 386 595 552 1493 406 2192 -149 709 -401 1054 -995 1360 -579 298 -840 682 -634 930 75 90 200 140 278 110 78 -30 205 -55 282 -55z m265 -1475 c369 -392 609 -1170 531 -1725 -69 -491 -471 -1408 -701 -1599 -116 -96 -199 -78 -411 89 -336 264 -480 263 -917 -7 -340 -210 -355 -211 -487 -31 -203 277 -168 348 168 348 378 0 651 249 743 677 54 255 13 424 -189 768 -142 242 -258 485 -258 539 0 54 203 197 452 317 429 208 707 507 584 629 -68 68 45 270 151 270 42 0 192 -124 334 -275z m2647 -495 c237 -195 432 -418 432 -495 0 -78 -112 -364 -250 -635 -405 -799 -301 -1528 190 -1340 291 112 259 -179 -85 -764 -554 -945 -443 -1269 403 -1177 266 28 291 4 285 -269 -5 -165 -41 -457 -81 -650 -101 -484 96 -754 441 -606 136 58 327 162 425 231 266 187 379 -61 348 -765 -22 -508 -63 -617 -295 -790 -253 -188 -285 -190 -518 -38 -136 90 -277 254 -312 365 -76 238 -374 267 -551 53 -280 -337 -700 1 -700 563 0 368 -10 380 -291 324 -352 -71 -508 154 -510 731 -1 210 -74 630 -163 932 -180 614 -255 1300 -141 1300 41 0 160 -96 265 -214 183 -206 723 -486 937 -486 235 0 77 264 -270 450 -205 110 -425 307 -491 439 -65 131 -175 273 -245 317 -104 64 -103 155 4 479 90 274 117 734 85 1465 l-48 1066 352 -66 c193 -36 546 -225 784 -420z m-8987 -3269 c255 51 351 8 608 -275 398 -438 390 -617 -34 -771 -318 -115 -657 -436 -905 -858 -141 -240 -413 -106 -544 268 -87 250 -77 342 57 489 153 170 147 187 -100 281 -145 55 -268 180 -274 278 -24 378 36 672 181 894 l152 231 279 -299 c229 -245 332 -287 580 -238z m-6135 -3277 c200 -92 310 -88 507 18 634 339 368 -321 -307 -764 -520 -341 -1122 133 -775 610 207 285 234 291 575 136z m13109 -331 c189 -453 185 -753 -10 -753 -208 0 -678 249 -842 446 -112 136 -97 197 100 407 329 350 578 317 752 -100z"/>
<path d="M7464 24129 c-381 -98 -1437 -780 -2119 -1370 -990 -855 -1587 -1685 -2174 -3024 -99 -226 -17 -475 127 -387 46 29 152 253 235 498 524 1538 3127 3954 4260 3954 295 0 407 41 407 150 0 83 -64 150 -142 150 -78 0 -202 17 -275 38 -73 21 -217 17 -319 -9z"/>
<path d="M0 19572 c0 -159 181 -534 433 -897 504 -727 724 -1152 818 -1579 86 -393 307 -323 274 87 -30 377 -546 1418 -918 1851 -149 174 -347 427 -439 563 l-168 248 0 -273z"/>
<path d="M1199 16225 c0 -96 -29 -422 -63 -725 -50 -445 -37 -527 66 -430 140 131 303 1001 225 1204 -72 186 -227 153 -228 -49z"/>
<path d="M17900 14856 c0 -65 1139 -1156 1207 -1156 32 0 346 -271 696 -603 351 -332 753 -630 893 -662 140 -32 360 -125 490 -206 387 -242 476 1 112 307 -172 145 -360 264 -416 264 -132 0 -718 460 -1752 1375 -451 399 -912 725 -1025 725 -113 0 -205 -20 -205 -44z"/>
<path d="M12 7891 c-13 -779 12 -999 111 -966 70 24 127 197 127 384 0 322 21 343 377 372 366 30 383 17 624 -500 298 -641 308 -781 56 -781 -423 0 -777 -877 -518 -1286 137 -215 463 -47 750 387 340 514 360 1332 49 1975 -238 489 -529 651 -1004 556 l-315 -63 63 465 c56 409 42 466 -119 466 -165 0 -186 -103 -201 -1009z m1388 -2179 c0 -130 -258 -320 -333 -245 -75 75 115 333 245 333 49 0 88 -39 88 -88z"/>
<path d="M4522 7125 c561 -1093 776 -1686 902 -2488 150 -958 548 -1837 830 -1837 219 0 175 202 -146 676 -206 303 -308 604 -356 1050 -92 851 -217 1300 -568 2042 -221 468 -351 632 -500 632 -110 0 -183 -34 -162 -75z"/>
<path d="M0 6323 c0 -215 364 -593 469 -487 38 37 25 190 -27 340 -115 326 -442 434 -442 147z"/>
<path d="M23 4800 c0 -192 21 -271 46 -175 25 96 25 254 0 350 -25 96 -46 18 -46 -175z"/>
</g>
</svg>