<svg xmlns="http://www.w3.org/2000/svg" version="1.0" width="250" height="250" viewBox="0 0 250.000000 250.000000" preserveAspectRatio="xMidYMid meet">
<metadata>
Created by potrace 1.10, written by Peter Selinger 2001-2011
</metadata>
<g transform="translate(0.000000,250.000000) scale(0.010000,-0.010000)" fill="#555555" stroke="none">
<path d="M0 24259 l0 -759 356 0 c416 0 383 -147 -54 -235 -294 -58 -302 -75 -301 -637 1 -319 67 -690 146 -828 80 -137 186 -340 237 -450 154 -331 459 -545 771 -542 162 1 666 -28 1120 -66 550 -45 825 -33 825 37 0 102 -955 223 -1760 222 -283 -1 -465 61 -590 199 -179 197 -175 200 322 200 277 0 669 -69 871 -154 242 -101 727 -158 1417 -167 l1049 -13 -315 -200 c-319 -201 -1093 -390 -1644 -400 -650 -11 -1907 242 -2175 438 l-275 202 0 -246 c0 -159 71 -269 200 -310 249 -79 258 -211 19 -274 -158 -41 -183 -179 -201 -1116 l-20 -1069 362 68 c257 48 386 28 446 -69 124 -200 -185 -490 -521 -490 -218 0 -285 -47 -285 -200 0 -110 56 -204 125 -208 100 -6 100 -18 0 -58 -95 -39 -125 -613 -125 -2392 0 -1288 34 -2335 75 -2326 41 9 188 -15 326 -54 144 -41 507 -5 846 83 754 197 1098 196 1296 -2 309 -309 186 -393 -601 -406 -804 -13 -1056 -118 -798 -332 119 -99 289 -103 768 -19 711 126 811 92 728 -242 -64 -254 44 -320 226 -138 74 74 137 21 213 -175 321 -837 255 -910 -334 -370 -378 346 -416 358 -933 297 -296 -34 -583 -90 -636 -123 -177 -109 163 -232 647 -233 421 -2 523 -50 925 -435 336 -321 452 -508 450 -725 0 -161 -34 -245 -75 -187 -40 58 -241 207 -446 332 -205 125 -362 278 -350 342 31 154 -1249 93 -1350 -64 -124 -194 -27 -306 330 -382 635 -134 1084 -423 1292 -830 221 -434 192 -564 -73 -331 -229 201 -1155 612 -1726 766 -247 66 -529 146 -625 178 -135 44 -175 1 -175 -194 0 -138 68 -277 150 -308 83 -32 150 -130 150 -218 0 -115 57 -141 205 -94 112 35 268 12 345 -52 90 -75 197 -83 304 -24 180 101 646 47 646 -75 0 -266 -820 -467 -1033 -254 -79 79 -235 117 -354 85 -152 -39 -213 -9 -213 106 0 89 -45 162 -100 162 -57 0 -100 -287 -100 -662 0 -578 19 -647 150 -538 108 90 150 92 150 9 0 -63 -60 -138 -132 -166 -173 -66 -215 -1143 -45 -1143 87 0 87 -30 -3 -120 -66 -66 -120 -165 -120 -220 0 -56 53 -47 120 20 197 197 325 136 141 -68 -183 -202 -316 -712 -185 -712 44 0 146 94 227 208 81 115 264 270 406 345 222 116 281 114 408 -13 132 -132 177 -127 390 45 222 180 231 221 117 537 -158 435 -156 478 22 478 208 0 533 379 605 705 82 374 913 1026 1212 951 176 -44 239 6 327 257 59 172 86 486 59 700 -27 213 -71 560 -98 772 l-48 384 1173 380 c646 208 1219 414 1274 457 55 42 188 14 294 -64 107 -78 332 -143 500 -144 298 -1 293 -9 -194 -298 -275 -163 -432 -296 -350 -295 83 1 263 66 400 145 332 190 522 186 482 -8 -17 -87 -260 -238 -538 -336 -279 -98 -870 -342 -1313 -542 -443 -200 -877 -364 -963 -364 -86 0 -184 -45 -218 -100 -135 -218 477 -5 2032 710 712 327 904 364 718 140 -102 -123 -95 -150 35 -150 88 0 228 131 310 291 83 160 208 310 277 333 70 23 127 125 128 226 0 297 220 282 300 -21 40 -153 103 -965 138 -1803 59 -1378 86 -1544 280 -1739 l215 -215 659 233 c362 127 658 269 658 313 0 119 -152 102 -713 -82 -373 -122 -529 -134 -613 -50 -85 85 -84 114 6 114 66 0 120 113 120 250 0 141 -58 250 -132 250 -101 0 -125 170 -101 699 18 385 -10 1002 -63 1371 -52 370 -81 686 -65 703 17 16 148 -62 291 -175 143 -113 409 -253 590 -311 182 -59 488 -178 680 -265 509 -230 1315 -272 1873 -97 319 99 742 135 1277 108 679 -35 826 -74 971 -262 185 -240 390 -941 414 -1421 8 -165 43 -345 78 -400 34 -55 60 -437 56 -850 -3 -412 -23 -649 -44 -525 -75 433 -225 220 -225 -319 0 -299 -48 -574 -106 -610 -73 -45 -84 128 -35 559 51 459 40 606 -44 554 -63 -39 -118 -192 -122 -340 -4 -148 -46 -359 -93 -469 -76 -176 -87 -166 -93 81 -13 529 -207 161 -217 -412 -5 -313 -46 -681 -89 -819 -45 -141 -56 122 -26 600 30 485 15 815 -35 768 -48 -45 -92 -135 -98 -200 -7 -65 -20 -208 -30 -318 -32 -349 -210 75 -229 542 -9 224 -53 408 -99 408 -143 0 -93 -734 124 -1814 519 -2582 629 -3966 345 -4342 -234 -309 -188 -344 454 -344 643 0 893 133 893 474 0 103 131 703 290 1332 160 629 343 1402 407 1717 104 511 243 770 355 658 21 -21 -25 -307 -103 -635 -77 -328 -263 -1136 -412 -1796 -149 -660 -330 -1289 -404 -1397 -73 -109 -133 -226 -133 -261 0 -35 268 -67 595 -72 478 -7 605 25 644 161 62 216 503 2097 664 2832 68 310 95 610 60 666 -75 122 23 421 138 421 44 0 57 -90 28 -200 -75 -285 37 -247 223 75 l159 275 -59 -350 c-32 -192 -172 -1002 -312 -1800 -139 -798 -279 -1596 -310 -1775 -62 -358 114 -459 220 -126 62 197 352 1745 562 3001 109 647 279 1126 285 800 4 -239 -266 -1770 -481 -2728 -295 -1310 -382 -1225 1229 -1207 919 11 1414 55 1490 135 89 93 -64 112 -676 85 -780 -35 -944 26 -777 290 80 125 387 142 1818 100 643 -20 806 12 1143 220 247 153 341 260 255 289 -76 25 -154 -3 -174 -63 -47 -139 -1055 -369 -1265 -288 -104 40 -159 184 -159 420 0 198 42 333 94 301 101 -63 111 12 107 831 -2 568 -47 715 -220 715 -70 0 -85 -165 -44 -476 50 -375 20 -558 -144 -864 -129 -240 -185 -477 -149 -624 57 -224 35 -236 -430 -236 -440 0 -501 28 -602 275 -61 151 -131 598 -155 992 -24 394 -109 844 -190 1001 -199 383 -242 677 -101 680 138 2 1134 1342 1134 1525 0 196 -71 158 -477 -261 -297 -306 -493 -410 -925 -493 -860 -164 -1716 -221 -2098 -138 -327 71 -358 112 -468 623 -65 300 -189 794 -276 1096 -105 362 -151 862 -135 1463 14 545 -21 969 -86 1050 -196 247 -362 1182 -286 1619 40 230 91 576 114 768 23 193 86 594 139 892 54 298 78 561 54 585 -71 71 -233 -667 -363 -1652 -67 -509 -160 -925 -207 -925 -47 0 -89 101 -94 225 -4 124 -24 314 -44 422 -20 108 35 347 122 531 116 245 129 363 47 445 -81 81 -137 46 -208 -131 -95 -240 -96 -240 -103 -17 -9 315 -133 280 -294 -83 -81 -184 -114 -472 -82 -712 36 -268 21 -371 -45 -305 -55 55 -108 330 -117 612 -10 282 -46 513 -81 513 -123 0 -163 -386 -84 -816 44 -239 64 -450 45 -469 -75 -76 -248 106 -248 260 0 137 -23 131 -142 -31 -193 -264 -294 -127 -275 371 9 228 -24 464 -73 525 -104 127 140 1550 292 1702 120 120 129 358 14 358 -126 0 -278 -387 -413 -1053 -67 -328 -187 -720 -266 -870 -80 -149 -132 -392 -116 -539 38 -352 -181 -423 -247 -79 -61 316 172 1506 333 1699 61 74 93 192 70 262 -102 304 -433 -508 -537 -1315 -78 -608 -134 -799 -192 -663 -46 108 -33 481 29 847 62 360 94 674 71 697 -94 94 -260 -566 -316 -1254 -51 -635 -37 -732 105 -732 89 0 163 -67 163 -150 0 -187 -94 -186 -345 4 -157 119 -194 266 -190 759 4 547 -8 586 -120 377 -78 -144 -108 -448 -79 -787 38 -451 25 -519 -71 -367 -70 112 -100 423 -75 775 24 324 6 589 -39 589 -82 0 -111 -222 -124 -950 -11 -637 -203 -574 -237 78 -17 318 -71 552 -121 521 -50 -31 -67 -279 -38 -552 35 -321 16 -497 -54 -497 -59 0 -107 158 -107 350 0 193 -51 350 -112 350 -72 0 -91 -109 -53 -300 34 -169 18 -300 -37 -300 -54 0 -99 101 -101 225 -3 208 -13 212 -136 50 -178 -234 -291 -222 -780 87 l-415 262 329 138 c180 76 370 138 421 138 154 0 1189 802 1677 1299 675 687 2186 1801 2444 1801 52 0 242 113 422 250 375 286 487 314 405 100 -32 -82 -18 -150 31 -150 48 0 109 56 134 125 35 96 75 98 171 8 68 -65 186 -94 262 -64 86 32 141 -18 146 -133 4 -106 30 -132 58 -61 96 238 238 124 185 -150 l-52 -275 109 275 c122 308 304 352 496 120 80 -96 152 -116 192 -52 109 177 789 -65 758 -270 -14 -95 -6 -117 18 -48 93 271 229 103 242 -300 8 -272 29 -335 58 -175 54 299 228 515 228 282 0 -87 93 -183 207 -213 115 -30 233 -149 263 -266 54 -207 236 -234 299 -45 64 190 -612 868 -1060 1062 -883 383 -960 412 -1041 394 -46 -11 -56 24 -24 77 33 52 18 121 -32 152 -50 31 -115 -5 -143 -80 -57 -149 -569 -287 -569 -154 0 45 -169 112 -375 148 -206 37 -664 217 -1016 402 -708 370 -670 379 -1082 -284 -94 -152 -453 -422 -797 -600 -792 -410 -966 -340 -1010 410 -25 425 -63 515 -217 515 -102 0 -209 -56 -237 -125 -34 -85 -52 -77 -56 25 -3 82 82 263 190 400 244 311 252 428 25 365 -96 -27 -276 -78 -399 -114 -177 -50 -249 -9 -341 193 -65 141 -175 256 -245 256 -188 0 -286 -210 -140 -300 90 -56 63 -98 -94 -148 -122 -39 -235 -55 -252 -36 -36 39 -654 1582 -654 1632 0 101 654 236 905 186 245 -49 295 -26 295 134 0 105 -55 247 -122 314 -95 95 -96 166 -6 310 64 102 89 214 55 247 -130 131 -284 47 -451 -246 -196 -344 -322 -322 -422 75 -37 148 -137 320 -222 383 -138 101 -137 130 14 281 189 188 411 219 504 68 34 -55 191 -100 350 -100 159 0 316 -45 350 -100 34 -55 177 -100 317 -100 l255 0 -236 197 -236 196 255 4 c140 2 308 -50 373 -115 148 -148 247 -63 168 144 -76 197 -721 282 -790 104 -93 -242 -603 -146 -906 170 -346 362 -474 382 -394 62 47 -186 -5 -283 -237 -449 -534 -380 -502 -993 45 -865 168 40 229 -7 281 -213 103 -411 -97 -516 -388 -202 -136 147 -310 267 -387 267 -77 0 -221 180 -320 401 -100 220 -241 450 -315 512 -384 318 40 725 653 627 240 -38 413 -19 455 49 44 70 -25 111 -187 111 -161 0 -256 56 -256 150 0 83 -64 150 -142 150 -78 0 -213 27 -300 61 -118 45 -158 -3 -158 -190 0 -206 -159 -371 -358 -371 -23 0 -43 124 -45 275 -3 265 -9 268 -152 78 -82 -109 -128 -253 -102 -322 61 -157 -107 -270 -193 -131 -94 152 -250 19 -250 -213 0 -266 -333 -210 -385 64 -21 110 -89 231 -151 270 -76 48 -48 119 86 218 182 134 205 128 253 -66 49 -193 91 -169 439 249 434 518 1014 732 1180 436 98 -176 432 -213 528 -58 34 55 194 100 356 100 200 0 294 50 294 157 0 112 79 147 275 125 184 -22 267 -84 250 -190 -25 -153 42 -168 825 -181 1033 -17 1095 -11 950 85 -82 55 -229 75 -325 45 -253 -79 -216 50 42 146 120 44 171 109 115 143 -56 35 -269 -21 -473 -125 -458 -234 -426 -46 49 281 285 197 300 224 92 163 -137 -40 -317 -129 -400 -197 -265 -221 -694 -272 -862 -104 -85 85 -195 129 -245 98 -50 -31 -65 11 -34 93 32 82 199 180 371 218 399 87 670 256 670 417 0 139 358 175 439 44 27 -45 -82 -160 -244 -255 -162 -96 -295 -217 -295 -269 0 -140 77 -117 393 117 231 171 363 197 700 140 349 -59 405 -100 354 -260 -87 -276 48 -236 418 124 180 174 496 351 705 395 376 78 376 79 -95 59 -470 -20 -473 -18 -250 153 248 191 1375 255 1375 78 0 -55 -68 -100 -150 -100 -82 0 -150 -46 -150 -102 0 -58 117 -77 275 -44 394 82 1153 259 1300 303 69 20 125 0 125 -44 0 -45 -175 -134 -388 -198 -375 -112 -694 -366 -590 -470 28 -28 283 66 566 209 495 248 1062 302 1062 101 0 -53 -180 -143 -400 -200 -220 -58 -521 -187 -669 -287 -149 -101 -393 -168 -550 -150 -154 17 -303 -13 -331 -68 -75 -149 480 -183 803 -49 155 65 383 85 506 46 215 -68 216 -75 32 -182 -105 -61 -435 -134 -733 -163 -298 -29 -560 -106 -582 -172 -29 -88 42 -96 267 -32 627 180 186 -295 -677 -729 -551 -277 -916 -344 -916 -169 0 104 17 111 354 148 261 29 576 198 741 397 180 215 41 194 -366 -58 -190 -117 -521 -218 -737 -223 -370 -10 -546 -196 -272 -287 274 -92 -100 -137 -475 -59 -293 62 -453 168 -580 384 -195 330 -376 376 -567 146 -113 -136 -153 -135 -376 11 -175 115 -383 149 -691 114 -512 -58 -558 -87 -473 -309 86 -223 208 -207 271 36 67 255 269 253 710 -7 273 -161 393 -183 549 -100 291 156 344 137 531 -190 162 -287 162 -293 -21 -179 -309 194 -351 -2 -58 -273 193 -180 339 -235 506 -193 182 46 251 10 304 -159 59 -186 119 -208 410 -154 259 49 340 30 340 -80 0 -79 79 -174 175 -211 164 -64 163 -77 -15 -208 -216 -159 -400 -94 -320 114 34 88 -13 140 -124 140 -98 0 -265 66 -372 147 -249 189 -344 190 -344 4 0 -83 182 -282 406 -444 403 -292 407 -293 836 -134 272 101 426 218 419 318 -14 204 363 213 391 9 11 -82 52 -481 91 -885 39 -405 95 -798 125 -875 31 -81 -9 -140 -95 -140 -147 0 -446 -560 -351 -656 106 -105 344 76 514 393 156 289 166 426 77 1066 -104 751 -86 897 111 897 62 0 220 100 350 222 189 178 253 195 320 87 86 -138 916 -322 1454 -321 163 0 433 -61 600 -135 365 -164 1252 -263 1252 -141 0 201 201 69 210 -137 10 -218 12 -217 78 19 56 201 185 275 715 414 356 93 939 263 1297 378 610 196 743 202 2200 105 1445 -97 1885 -161 2325 -341 154 -63 175 -5 175 489 0 422 -36 561 -144 561 -240 0 -291 210 -66 268 255 67 273 312 35 493 -167 126 -167 133 0 136 151 3 175 108 175 778 l-1 775 -424 165 c-234 91 -780 225 -1214 298 -624 104 -876 200 -1200 458 -226 180 -470 327 -541 328 -72 1 -296 114 -499 251 -202 138 -414 250 -470 250 -134 0 -651 480 -651 604 0 128 1071 124 1150 -4 34 -55 10 -100 -52 -100 -63 0 -94 -56 -69 -125 25 -69 102 -112 170 -96 68 16 221 -35 340 -112 118 -78 405 -174 638 -213 232 -39 448 -113 479 -163 31 -51 189 -161 351 -245 223 -115 344 -126 497 -44 150 80 356 69 807 -47 333 -85 624 -155 647 -155 23 0 42 428 42 950 l0 950 -1325 8 c-1988 12 -6351 74 -9725 138 -1650 31 -5464 83 -8475 115 l-5475 58 0 -760z m825 170 c-124 -23 -326 -23 -450 0 -124 24 -22 44 225 44 248 0 349 -20 225 -44z m1400 -95 c-69 -28 -181 -28 -250 0 -69 28 -12 50 125 50 138 0 194 -22 125 -50z m2755 -45 c-58 -174 -851 -404 -1261 -366 l-369 34 400 77 c220 42 513 141 650 219 300 170 631 191 580 36z m5220 34 c0 -42 -223 -155 -495 -252 -273 -97 -628 -287 -790 -423 -161 -137 -389 -248 -504 -248 -116 0 -211 -45 -211 -100 0 -55 48 -100 106 -100 58 0 75 -50 37 -111 -48 -78 -91 -73 -147 17 -81 132 -79 133 -774 -369 -245 -178 -421 -130 -204 54 1174 995 2982 1924 2982 1532z m788 -265 c-178 -185 -274 -219 -412 -145 -99 53 -224 69 -278 36 -54 -34 -98 -24 -98 21 0 125 414 304 735 318 l286 12 -233 -242z m2370 167 c-41 -41 -280 -81 -530 -88 -306 -8 -486 -66 -546 -173 -178 -318 -470 -392 -842 -216 -401 191 -354 393 70 300 310 -68 419 104 115 183 -96 25 271 51 817 57 545 7 958 -22 916 -63z m6181 -82 c42 -110 10 -148 -106 -125 -92 17 -185 88 -208 157 -61 184 243 153 314 -32z m-4967 -282 c69 -69 -95 -348 -236 -403 -176 -67 -700 184 -761 365 -86 255 247 371 619 215 190 -79 360 -159 378 -177z m628 153 c0 -144 -56 -176 -247 -139 -136 26 -299 110 -362 186 -95 114 -51 139 247 139 286 0 362 -39 362 -186z m6639 28 c94 -245 74 -277 -89 -142 -166 138 -199 300 -61 300 49 0 117 -71 150 -158z m1061 -42 c190 -190 285 -556 125 -482 -353 165 -814 519 -769 592 97 156 436 98 644 -110z m-15960 -255 c-60 -239 -46 -251 223 -187 213 50 259 38 181 -46 -59 -63 -289 -130 -512 -149 -354 -30 -400 -11 -357 151 26 102 106 186 176 186 70 0 154 68 185 150 95 248 173 169 104 -105z m5960 105 c68 -82 206 -150 306 -150 270 0 354 -386 129 -602 -266 -256 -835 -363 -835 -157 0 103 -77 148 -225 133 -169 -18 -233 35 -258 214 -30 211 -5 231 224 173 224 -56 259 -33 259 170 0 380 183 480 400 219z m4300 50 c0 -55 -79 -99 -175 -98 -150 1 -153 15 -25 98 189 122 200 122 200 0z m-14850 -199 c-495 -101 -990 -216 -1100 -257 -140 -51 -170 -41 -100 33 147 157 1131 397 1650 402 359 3 269 -33 -450 -178z m3927 80 c-22 -65 -228 -181 -458 -258 -559 -186 -531 -310 56 -249 679 72 420 -110 -375 -262 -357 -69 -908 -218 -1224 -332 -464 -166 -603 -182 -724 -82 -161 134 -452 73 -452 -95 0 -57 68 -103 150 -103 240 0 173 -273 -82 -337 -128 -32 -403 -173 -611 -315 -373 -253 -385 -254 -909 -102 -292 85 -602 127 -689 94 -100 -39 -159 -8 -159 84 0 162 978 665 1750 900 275 84 770 143 1100 132 546 -18 1250 156 1250 308 0 34 -146 39 -325 12 -179 -28 -409 -20 -512 17 -149 54 -109 91 200 179 213 61 590 143 837 181 248 39 563 131 700 205 313 168 529 179 477 23z m3423 30 c0 -82 -598 -411 -747 -411 -194 0 414 416 722 494 14 3 25 -34 25 -83z m14050 -111 c34 -55 -6 -100 -88 -100 -83 0 -178 45 -212 100 -34 55 6 100 88 100 83 0 178 -45 212 -100z m-13600 -100 c34 -55 -6 -100 -88 -100 -83 0 -178 45 -212 100 -34 55 6 100 88 100 83 0 178 -45 212 -100z m1300 -100 c178 -197 175 -200 -272 -200 -271 0 -501 58 -572 143 -119 143 -94 153 554 242 60 8 190 -75 290 -185z m7381 -7 c30 -115 147 -232 262 -262 114 -30 207 -97 207 -149 0 -141 -417 11 -672 244 -227 208 -220 374 16 374 73 0 157 -93 187 -207z m-3406 -40 c226 -96 226 -514 1 -641 -96 -53 -145 -126 -109 -162 36 -37 189 15 340 114 214 140 263 147 226 34 -27 -81 -193 -230 -368 -333 -254 -148 -349 -161 -465 -65 -165 137 -450 672 -450 845 0 302 377 397 825 208z m675 53 c0 -52 -45 -122 -100 -156 -55 -34 -100 8 -100 94 0 86 45 156 100 156 55 0 100 -42 100 -94z m1278 -162 c256 -179 288 -464 72 -644 -120 -100 -181 -98 -307 5 -126 105 -222 106 -499 6 -384 -138 -544 -85 -544 179 0 260 320 512 567 447 116 -30 241 -6 278 54 90 146 170 138 433 -47z m-15128 -44 c-34 -55 -127 -100 -206 -100 -79 0 -239 -95 -356 -212 -125 -125 -238 -170 -275 -111 -35 55 -153 121 -263 146 -228 53 -153 91 500 253 549 136 672 141 600 24z m7198 -202 c-114 -126 -219 -167 -277 -109 -135 135 6 311 250 311 204 0 205 -5 27 -202z m10694 141 c261 -100 179 -239 -142 -239 -287 0 -377 90 -233 233 82 83 171 84 375 6z m-9517 -181 c14 -50 -31 -110 -100 -133 -69 -23 -125 33 -125 125 0 169 179 176 225 8z m-1775 -58 c34 -55 -8 -100 -94 -100 -86 0 -156 45 -156 100 0 55 42 100 94 100 52 0 122 -45 156 -100z m1237 -157 c20 -105 124 -252 230 -326 152 -106 168 -165 76 -276 -65 -78 -165 -141 -222 -141 -58 0 -194 -79 -303 -175 -144 -128 -209 -142 -241 -50 -24 69 -156 125 -292 125 -201 0 -243 43 -217 225 23 161 103 228 282 236 407 18 430 32 300 189 -99 120 -99 181 3 303 158 192 335 141 384 -110z m1663 64 c0 -78 -135 -179 -300 -223 -165 -44 -352 -152 -416 -239 -103 -141 -124 -134 -184 55 -100 315 211 617 595 580 184 -18 305 -87 305 -173z m2400 47 l300 -138 -267 -8 c-322 -10 -583 81 -583 203 0 124 198 104 550 -57z m-13850 -54 c0 -55 -45 -100 -100 -100 -55 0 -100 45 -100 100 0 55 45 100 100 100 55 0 100 -45 100 -100z m8347 -258 c272 -178 236 -442 -61 -442 -270 0 -886 270 -886 388 0 88 208 159 579 198 70 8 236 -57 368 -144z m-7647 -42 c0 -55 -79 -99 -175 -98 -150 1 -153 15 -25 98 189 122 200 122 200 0z m12919 32 c-72 -29 -159 -26 -192 8 -33 33 26 56 131 52 117 -5 141 -28 61 -60z m4531 -32 c34 -55 -8 -100 -94 -100 -86 0 -156 45 -156 100 0 55 42 100 94 100 52 0 122 -45 156 -100z m-6600 -99 c-90 -147 -450 -322 -450 -220 0 49 101 137 225 197 290 140 298 141 225 23z m750 -49 c0 -26 -191 -144 -425 -262 -234 -117 -502 -281 -596 -364 -101 -88 -245 -122 -350 -81 -142 54 -54 140 421 410 533 304 950 434 950 297z m863 -82 c39 -38 -72 -70 -246 -70 -174 0 -317 47 -317 103 0 111 445 85 563 -33z m2437 54 c0 -42 -90 -132 -200 -201 -219 -137 -271 -34 -80 157 135 135 280 158 280 44z m1100 -8 c0 -46 -172 -265 -383 -486 -306 -322 -413 -380 -533 -291 -210 156 -293 536 -129 599 73 28 147 -21 164 -109 25 -128 81 -107 281 104 238 251 600 362 600 183z m2882 -149 c22 -113 -35 -167 -175 -167 -114 0 -207 60 -207 133 0 307 324 335 382 34z m2118 133 c0 -55 -45 -100 -100 -100 -55 0 -100 45 -100 100 0 55 45 100 100 100 55 0 100 -45 100 -100z m-16002 -75 c-4 -215 -185 -332 -422 -273 -144 37 -283 17 -321 -44 -37 -59 -164 -108 -283 -108 -216 0 -216 1 -14 142 112 78 358 187 548 241 445 128 494 132 492 42z m8324 -84 c-382 -134 -443 -134 -582 4 -139 140 -97 155 428 150 l582 -5 -428 -149z m4637 -215 c-109 -110 -184 64 -106 245 74 171 80 171 121 -4 24 -100 17 -209 -15 -241z m-336 -80 c260 -135 559 -246 663 -246 104 0 246 -67 314 -150 108 -130 63 -150 -331 -150 -359 0 -468 40 -516 189 -123 389 -1050 549 -1745 301 -258 -92 -258 -91 34 169 250 223 351 252 700 197 225 -35 621 -175 881 -310z m-12023 154 c0 -55 -48 -100 -106 -100 -58 0 -78 45 -44 100 34 55 82 100 106 100 24 0 44 -45 44 -100z m622 -128 c-38 -219 157 -314 337 -164 122 101 180 96 300 -24 214 -214 99 -403 -409 -673 -366 -194 -475 -215 -599 -112 -203 169 -191 467 24 594 148 87 153 118 31 198 -120 79 -122 120 -10 255 160 193 365 146 326 -74z m16062 -358 c-149 -53 -318 150 -236 283 49 80 112 59 205 -66 82 -112 94 -195 31 -217z m-14284 202 c0 -71 -140 -160 -625 -396 -41 -20 -75 11 -75 68 0 58 124 173 275 255 318 172 425 191 425 73z m-4800 -96 c0 -150 -239 -320 -445 -317 -197 4 -195 12 31 200 247 206 414 253 414 117z m5346 -185 c-101 -74 -242 -135 -312 -135 -70 0 -275 -124 -456 -275 -488 -409 -767 -542 -990 -471 -247 78 -187 304 73 273 222 -26 655 169 768 347 109 170 896 522 1010 452 50 -31 8 -117 -93 -191z m8700 130 c169 -123 151 -140 -206 -200 -422 -70 -719 -219 -626 -312 32 -32 167 -17 300 33 147 56 749 57 1521 4 798 -56 1346 -54 1457 6 216 116 419 -50 334 -273 -47 -123 -6 -140 213 -85 199 50 406 -4 768 -202 561 -305 807 -536 571 -536 -81 0 -286 69 -455 153 -291 146 -1322 447 -1528 447 -52 0 -95 -65 -95 -144 0 -95 160 -167 475 -213 261 -37 700 -153 975 -256 275 -103 624 -187 776 -187 199 0 417 -141 775 -501 275 -276 499 -518 499 -538 0 -20 -281 27 -625 104 -1394 314 -2052 366 -2474 197 -217 -87 -459 -133 -538 -103 -78 30 -177 -1 -219 -68 -58 -94 37 -103 415 -38 589 102 1629 108 2221 12 779 -125 355 -221 -673 -152 -710 48 -1180 28 -1583 -66 -346 -81 -611 -98 -667 -43 -51 50 -141 54 -200 8 -196 -152 -757 -305 -757 -207 0 52 67 95 148 95 82 0 296 138 475 306 307 287 312 302 79 236 -137 -39 -370 -160 -518 -270 -167 -123 -353 -177 -488 -142 -119 31 -331 14 -470 -39 -189 -72 -314 -56 -495 62 -134 88 -364 145 -512 128 -149 -17 -327 36 -400 119 -100 114 -144 120 -184 25 -59 -143 -735 -173 -735 -33 0 50 197 167 437 258 416 159 457 158 875 -28 560 -248 1466 -287 1738 -74 189 148 177 153 -200 100 l-400 -57 350 200 c264 152 539 202 1119 205 423 2 797 49 831 104 34 55 183 96 331 92 l269 -8 -291 -129 c-378 -166 -142 -252 375 -136 270 61 572 39 1022 -74 822 -206 1167 -146 475 83 -285 95 -602 172 -705 172 -102 0 -236 50 -298 112 -140 140 -696 146 -1978 21 -806 -79 -1082 -150 -1423 -365 -486 -308 -576 -320 -951 -124 -151 79 -353 154 -450 168 -238 34 -804 -105 -1202 -294 -237 -113 -356 -126 -436 -46 -79 79 -53 140 98 220 123 66 184 171 150 260 -32 81 -8 148 53 148 61 0 111 68 111 150 0 204 -60 190 -441 -100 -211 -161 -468 -254 -718 -260 -542 -14 -924 -127 -763 -226 69 -43 271 -33 449 22 178 55 456 98 618 95 l295 -6 -386 -198 c-303 -156 -493 -184 -879 -133 -332 44 -471 31 -428 -39 36 -58 194 -105 352 -105 387 0 828 -176 751 -300 -80 -130 -450 -130 -450 0 0 55 -225 100 -500 100 -378 0 -500 -37 -500 -150 0 -176 -257 -201 -359 -35 -40 64 3 170 94 236 91 67 165 155 165 197 0 42 -56 32 -125 -23 -243 -193 -838 -240 -973 -77 -70 84 -211 152 -314 152 -104 0 -188 34 -188 75 0 41 348 86 774 99 563 17 843 74 1025 207 338 246 580 334 1025 371 205 17 492 125 638 240 146 114 326 208 401 208 76 0 137 45 137 100 0 55 -45 100 -100 100 -55 0 -100 50 -100 111 0 61 68 84 151 52 172 -66 649 121 799 313 55 70 235 153 400 182 165 30 390 136 500 235 463 416 872 509 1196 272z m2485 -9 c168 -127 158 -142 -136 -207 -251 -55 -363 -25 -529 140 l-210 211 347 -3 c191 -2 429 -65 528 -141z m-3931 -159 c0 -136 -243 -225 -469 -171 -154 37 -143 60 69 152 324 141 400 145 400 19z m5124 -297 c397 -389 410 -548 20 -253 -107 81 -252 148 -323 150 -202 5 -625 315 -564 414 121 197 480 68 867 -311z m-15721 147 c106 -128 90 -189 -96 -362 -136 -127 -205 -283 -175 -397 27 -103 6 -214 -46 -247 -162 -100 -386 170 -386 465 0 155 -49 312 -109 349 -75 47 -77 99 -4 172 73 73 151 66 258 -23 126 -104 164 -98 215 35 77 202 180 204 343 8z m9364 -9 c-158 -85 -357 -122 -450 -82 -139 59 -124 85 83 148 138 42 340 79 450 82 161 5 144 -24 -83 -148z m478 -124 c-110 -101 -745 -324 -745 -262 0 23 124 109 275 191 301 163 626 212 470 71z m7321 -364 c344 -320 432 -450 304 -450 -99 0 -256 135 -350 299 -177 312 -490 429 -381 143 39 -101 16 -143 -64 -117 -69 23 -126 106 -128 184 -1 77 -38 197 -81 266 -185 296 251 93 700 -325z m1434 350 c0 -55 -42 -100 -94 -100 -52 0 -122 45 -156 100 -34 55 8 100 94 100 86 0 156 -45 156 -100z m-18200 -392 c0 -199 -128 -408 -250 -408 -148 0 -278 274 -194 409 73 119 444 118 444 -1z m-1320 -228 c66 -66 120 -223 120 -350 0 -193 -52 -229 -325 -227 -297 3 -309 15 -144 141 120 91 144 160 71 205 -171 105 -427 -149 -302 -300 110 -132 35 -449 -106 -449 -46 0 -125 74 -176 164 -50 90 -141 134 -200 97 -162 -100 -25 -361 190 -361 126 0 167 -49 127 -154 -33 -84 14 -234 103 -333 89 -99 135 -207 101 -241 -96 -96 -539 233 -539 400 0 95 -58 127 -157 89 -120 -46 -141 -13 -93 140 55 171 23 194 -223 167 -397 -43 -527 -143 -527 -405 0 -124 -66 -312 -147 -419 -81 -107 -148 -291 -150 -411 -3 -234 -154 -326 -423 -256 -148 38 -138 77 75 307 214 231 326 516 203 516 -23 0 -113 27 -200 61 -119 45 -158 -4 -158 -200 0 -151 -56 -261 -133 -261 -229 0 -272 124 -90 262 161 123 161 132 3 135 -94 2 -214 -75 -268 -171 -53 -96 -133 -139 -176 -95 -119 118 95 401 423 560 160 77 306 178 325 225 18 47 75 60 125 28 130 -80 491 48 491 174 0 59 -99 80 -225 49 -217 -55 -218 -52 -31 88 107 80 265 145 351 145 86 0 213 90 282 200 68 110 231 200 362 200 130 0 295 70 366 156 76 92 217 135 338 105 115 -29 276 -10 358 42 195 123 236 120 379 -23z m17476 -60 c107 -99 273 -210 369 -247 96 -37 175 -112 175 -167 0 -55 -68 -74 -151 -42 -200 77 -796 636 -678 636 50 0 179 -81 285 -180z m-8245 -331 c-132 -107 -262 -172 -289 -144 -28 27 57 137 189 244 131 107 262 171 289 144 28 -28 -58 -137 -189 -244z m-13286 -206 c-48 -181 -26 -205 134 -144 174 65 177 58 34 -87 -153 -155 -493 -119 -493 52 0 78 279 396 348 396 18 0 8 -98 -23 -217z m23175 -255 c0 -70 -60 -128 -133 -128 -168 0 -590 443 -504 530 94 93 637 -249 637 -402z m-18990 -146 c109 -205 108 -205 -140 -19 -137 103 -228 221 -203 264 65 106 211 1 343 -245z m18790 -167 c589 -429 853 -815 556 -815 -155 0 -1356 1082 -1356 1222 0 103 326 -63 800 -407z m-19039 -90 c156 -206 183 -625 39 -625 -55 0 -100 87 -100 194 0 107 -45 222 -100 256 -110 68 -139 350 -36 350 35 0 124 -79 197 -175z m-4126 -1 c56 -90 -211 -481 -280 -412 -26 26 -21 146 11 267 57 221 181 288 269 145z m14007 -285 c221 -84 198 -239 -36 -239 -209 0 -341 132 -237 236 79 78 78 78 273 3z m-11106 -712 c-46 -176 -95 -203 -234 -128 -228 122 -502 -162 -502 -521 0 -248 -390 -847 -397 -609 -2 66 42 147 97 181 221 137 81 226 -192 122 -323 -122 -608 21 -608 306 0 130 29 127 193 -22 247 -223 586 -124 666 195 71 281 469 570 676 491 235 -90 277 116 63 310 -109 99 -198 227 -198 286 0 59 111 -4 247 -140 174 -174 230 -315 189 -471z m2224 400 c-33 -33 -56 26 -52 131 5 117 28 141 60 61 29 -72 26 -159 -8 -192z m-460 73 c0 -55 -45 -100 -100 -100 -55 0 -100 45 -100 100 0 55 45 100 100 100 55 0 100 -45 100 -100z m1244 -210 c-88 -142 -244 -105 -244 57 0 89 59 124 149 89 83 -31 125 -97 95 -146z m8921 133 c64 -40 131 -118 150 -173 19 -55 215 -100 435 -100 220 0 511 -79 647 -175 136 -96 361 -180 500 -185 207 -9 189 -26 -97 -94 -241 -57 -412 -43 -550 45 -110 70 -447 156 -749 191 -303 36 -565 111 -585 169 -21 63 -171 79 -375 41 -227 -43 -341 -26 -341 50 0 220 715 391 965 231z m454 -91 c-72 -29 -159 -26 -192 8 -33 33 26 56 131 52 117 -5 141 -28 61 -60z m1331 -75 c396 -138 397 -140 128 -208 -198 -51 -343 -13 -538 141 -308 243 -161 267 410 67z m-13300 -57 c-34 -55 -82 -100 -106 -100 -24 0 -44 45 -44 100 0 55 48 100 106 100 58 0 78 -45 44 -100z m1070 -120 c-64 -64 -150 -83 -190 -43 -41 41 -9 114 70 163 187 115 271 31 120 -120z m1189 -188 c87 -40 222 -33 300 16 78 49 231 89 341 89 159 0 133 -43 -129 -211 -417 -267 -361 -334 114 -136 201 84 365 111 365 61 0 -50 -146 -145 -325 -211 -181 -67 -268 -142 -197 -170 71 -27 202 12 292 86 121 100 173 104 203 15 22 -66 104 -95 183 -65 192 74 274 -175 158 -479 -70 -185 -47 -348 93 -642 102 -217 188 -524 190 -681 2 -182 93 -356 253 -482 138 -108 250 -256 250 -328 0 -201 -419 -265 -669 -101 -281 185 -331 184 -331 -3 0 -82 -71 -150 -157 -150 -106 0 -146 -74 -125 -225 22 -154 94 -219 228 -208 229 21 554 -134 554 -264 0 -50 -146 -104 -324 -122 -232 -22 -334 -88 -359 -231 -19 -110 -132 -278 -251 -374 -168 -136 -187 -193 -85 -260 73 -47 242 -65 377 -39 194 37 232 13 183 -115 -36 -95 -12 -162 59 -162 67 0 96 -66 65 -147 -89 -233 76 -260 521 -85 353 139 414 205 414 454 0 160 43 372 96 471 64 119 58 282 -16 479 -62 164 -80 384 -39 488 69 180 80 180 202 15 71 -96 169 -175 219 -175 49 0 89 -551 89 -1225 -1 -1188 -7 -1225 -217 -1225 -119 0 -250 -34 -292 -75 -41 -41 -158 -75 -259 -75 -100 0 -183 -50 -183 -111 0 -71 100 -86 275 -43 430 106 133 -96 -337 -229 -509 -145 -567 -146 -482 -7 50 80 12 80 -137 0 -285 -152 -366 -137 -219 40 68 83 186 150 262 150 76 0 138 46 138 103 0 145 -267 231 -472 152 -141 -54 -147 -82 -34 -151 99 -62 30 -116 -247 -192 -405 -112 -593 -64 -347 88 217 134 48 233 -185 108 -307 -164 -481 -131 -259 49 187 152 185 156 -56 94 -477 -122 -649 -153 -525 -94 195 93 148 274 -50 194 -96 -39 -231 -93 -300 -121 -69 -28 -125 -7 -125 48 0 54 101 129 225 167 142 43 178 88 97 121 -71 29 -196 -3 -278 -71 -82 -68 -178 -94 -214 -58 -36 36 21 131 127 213 176 134 163 137 -137 37 -424 -141 -538 -28 -219 218 137 105 195 192 130 193 -66 1 -147 -43 -181 -98 -78 -126 -350 -131 -350 -7 0 52 90 122 200 157 110 35 200 111 200 168 0 58 -116 29 -259 -64 -142 -94 -278 -150 -303 -126 -104 105 -218 672 -134 672 49 0 64 68 32 150 -31 82 -110 150 -175 150 -65 0 -127 117 -139 259 -31 382 -107 456 -342 331 -114 -62 -164 -140 -111 -176 283 -190 122 -744 -165 -567 -57 36 -104 17 -104 -41 0 -58 67 -106 150 -106 162 0 204 -155 65 -241 -144 -89 -608 475 -567 691 20 110 40 239 44 287 5 47 98 63 208 34 130 -34 200 -3 200 88 0 78 -49 141 -108 141 -185 0 -42 231 162 261 106 15 208 76 228 134 19 58 75 105 123 105 49 0 65 -63 35 -140 -83 -216 103 -268 348 -97 145 101 200 217 162 337 -41 128 4 204 146 249 112 35 204 107 204 159 0 52 -163 27 -362 -57 -325 -135 -349 -135 -236 1 174 210 62 290 -187 134 -153 -95 -177 -161 -98 -257 211 -254 -175 -136 -399 122 -253 291 -292 571 -68 485 82 -31 150 -8 150 53 0 61 56 100 125 86 79 -16 115 67 97 225 -27 233 -17 238 139 82 156 -156 185 -154 445 38 237 176 273 264 246 618 -21 273 23 473 129 593 130 146 137 217 40 373 -173 277 -152 306 129 178 138 -63 250 -149 250 -191 0 -84 589 61 689 170 33 37 -109 41 -316 9 -472 -73 -403 83 76 173 256 48 351 118 351 257 0 182 15 183 325 28 179 -89 397 -195 484 -236z m7376 163 c22 -114 -14 -162 -100 -133 -74 24 -151 125 -170 223 -22 114 14 162 100 133 74 -24 151 -125 170 -223z m-12279 2 c-65 -78 -104 -224 -87 -325 19 -109 -29 -182 -119 -182 -93 0 -139 76 -120 200 53 357 111 450 279 450 132 0 141 -29 47 -143z m344 -157 c-34 -55 -82 -100 -106 -100 -24 0 -44 45 -44 100 0 55 48 100 106 100 58 0 78 -45 44 -100z m16550 0 c0 -55 -160 -100 -356 -100 -212 0 -331 40 -294 100 34 55 194 100 356 100 162 0 294 -45 294 -100z m-14325 -348 c0 -137 -39 -224 -87 -194 -49 29 -88 141 -88 248 0 107 39 194 88 194 48 0 87 -112 87 -248z m-704 -262 c-55 -415 -396 -890 -638 -890 -213 0 -153 159 104 276 157 72 281 260 371 566 168 568 236 588 163 48z m-921 210 c-34 -55 -82 -100 -106 -100 -24 0 -44 45 -44 100 0 55 48 100 106 100 58 0 78 -45 44 -100z m-1404 -407 c-86 -139 -146 -113 -146 63 0 86 46 128 102 93 56 -35 75 -105 44 -156z m2779 65 c14 -50 -31 -110 -100 -133 -69 -23 -125 33 -125 125 0 169 179 176 225 8z m-2325 -465 c0 -185 -239 -343 -525 -347 -368 -5 -351 144 25 219 165 33 300 99 300 148 0 48 45 87 100 87 55 0 100 -48 100 -107z m1013 -643 c65 -66 158 -20 278 138 99 131 233 221 299 199 78 -26 47 -117 -91 -265 -115 -123 -184 -266 -152 -317 34 -56 -63 -58 -245 -6 l-302 87 64 -401 c58 -360 33 -429 -250 -687 -306 -279 -405 -498 -225 -498 49 0 108 -157 130 -350 44 -378 -66 -476 -169 -150 -35 110 -111 200 -168 200 -58 0 -82 -90 -53 -200 75 -286 -75 -247 -213 55 -159 350 -147 422 84 495 110 35 200 120 200 189 0 70 113 232 250 361 281 264 325 613 100 800 -191 158 -198 440 -10 368 193 -74 281 36 152 191 -75 92 -68 195 26 360 130 227 133 225 164 -119 18 -192 76 -395 131 -450z m1368 261 c-15 -198 -65 -273 -158 -237 -90 35 -103 86 -38 151 55 55 76 161 46 237 -29 76 -2 138 60 138 62 0 102 -129 90 -289z m-2218 -121 c-72 -362 19 -813 148 -733 49 30 89 -38 89 -151 0 -307 -154 -250 -386 142 -190 322 -194 375 -58 700 181 435 290 457 207 42z m-831 -530 c32 -83 -24 -161 -139 -191 -215 -56 -218 -51 -132 173 75 196 200 204 271 18z m545 -279 c-22 -65 -93 -136 -158 -158 -73 -24 -96 21 -58 119 69 181 276 219 216 39z m7273 19 c-34 -55 -82 -100 -106 -100 -24 0 -44 45 -44 100 0 55 48 100 106 100 58 0 78 -45 44 -100z m1350 -156 c0 -24 -45 -44 -100 -44 -55 0 -100 48 -100 106 0 58 45 78 100 44 55 -34 100 -82 100 -106z m-1181 -112 c-72 -29 -159 -26 -192 8 -33 33 26 56 131 52 117 -5 141 -28 61 -60z m-7761 -132 c23 0 42 -66 42 -147 0 -89 -59 -124 -150 -89 -94 36 -150 -1 -150 -97 0 -266 -156 -266 -178 0 -27 324 59 462 246 390 82 -31 167 -57 190 -57z m542 -250 c0 -82 -45 -150 -100 -150 -55 0 -100 68 -100 150 0 82 45 150 100 150 55 0 100 -68 100 -150z m1483 -60 c169 -271 45 -400 -141 -146 -78 107 -142 231 -142 275 0 151 151 82 283 -129z m-385 -255 c1 -67 -145 -111 -350 -105 -199 5 -335 55 -314 115 20 58 106 93 190 78 84 -14 183 52 220 147 57 149 80 153 160 27 51 -81 94 -199 94 -262z m6559 177 c-29 -48 -147 -112 -261 -142 -170 -45 -186 -29 -89 88 126 152 441 201 350 54z m-8867 -503 c93 -59 112 -150 57 -274 -75 -168 -86 -164 -122 46 -33 187 -68 208 -183 113 -113 -94 -142 -85 -142 44 0 178 171 209 390 71z m710 -48 c0 -77 -62 -164 -139 -193 -97 -37 -123 4 -88 139 58 222 227 262 227 54z m1300 -105 c0 -79 -45 -172 -100 -206 -55 -34 -100 31 -100 144 0 113 45 206 100 206 55 0 100 -65 100 -144z m7600 -6 c0 -82 -44 -150 -97 -150 -53 0 -71 68 -39 150 31 82 75 150 97 150 21 0 39 -68 39 -150z m-8702 -575 c-1 -247 -24 -289 -98 -175 -127 197 -127 500 0 500 55 0 99 -146 98 -325z m6352 25 c-34 -55 -82 -100 -106 -100 -24 0 -44 45 -44 100 0 55 48 100 106 100 58 0 78 -45 44 -100z m-6753 -444 c-2 -58 -69 -19 -150 88 -81 107 -146 242 -144 300 2 58 69 19 150 -88 81 -107 146 -242 144 -300z m9903 255 c0 -49 -67 -116 -150 -147 -152 -59 -205 48 -83 169 95 96 233 83 233 -22z m-8600 -111 c0 -55 -45 -100 -100 -100 -55 0 -100 45 -100 100 0 55 45 100 100 100 55 0 100 -45 100 -100z m6200 -188 c0 -102 -415 -230 -493 -153 -64 65 201 237 368 239 69 1 125 -38 125 -86z m-7371 -312 c-44 -167 -229 -295 -229 -158 0 23 -27 113 -61 200 -43 112 -2 158 141 158 152 0 188 -49 149 -200z m671 100 c0 -55 -93 -100 -206 -100 -113 0 -178 45 -144 100 34 55 127 100 206 100 79 0 144 -45 144 -100z m1875 -125 c-23 -69 -126 -141 -230 -162 -163 -31 -171 -14 -55 125 159 192 344 215 285 37z m68 -385 c-278 -109 -603 -109 -488 0 122 116 467 189 588 125 52 -27 7 -84 -100 -125z m355 -187 c118 -74 71 -126 -221 -248 -204 -85 -440 -155 -524 -155 -258 0 -170 277 122 384 356 130 444 133 623 19z m302 -303 c0 -55 68 -100 150 -100 181 0 202 -364 25 -430 -69 -26 45 -36 254 -22 448 29 458 -165 13 -261 l-292 -63 268 -12 c148 -7 391 34 539 91 149 56 294 79 322 51 29 -28 -124 -121 -339 -207 -214 -86 -480 -194 -590 -240 -110 -45 -387 -161 -616 -256 -400 -166 -634 -146 -634 55 0 52 203 149 450 215 248 66 450 156 450 200 0 109 -38 102 -502 -84 -458 -183 -465 -180 -513 160 -29 208 38 284 415 469 248 122 383 223 300 225 -82 1 -262 -62 -400 -141 -297 -170 -400 -184 -400 -54 0 99 751 480 975 496 69 4 125 -37 125 -92z m-1500 -400 c0 -55 -45 -100 -100 -100 -55 0 -100 45 -100 100 0 55 45 100 100 100 55 0 100 -45 100 -100z m9742 -1285 c-16 -19 -77 -5 -135 31 -121 75 -146 781 -32 896 69 70 234 -846 167 -927z m1397 127 c81 -210 77 -242 -27 -242 -49 0 -112 90 -141 200 -62 236 80 271 168 42z m-1875 -142 c26 0 20 -45 -14 -100 -98 -159 -350 -116 -350 61 0 105 54 140 158 100 87 -34 180 -61 206 -61z m-814 -200 c34 -55 -8 -100 -94 -100 -86 0 -156 45 -156 100 0 55 42 100 94 100 52 0 122 -45 156 -100z m-8212 -1180 c27 -44 12 -139 -33 -213 -107 -172 -314 -46 -240 146 62 160 195 193 273 67z m-1478 -1172 c-503 -459 -730 -538 -940 -328 -191 191 -140 379 105 387 124 4 405 91 625 193 659 305 728 222 210 -252z m140 -444 c0 -415 -757 -848 -1053 -602 -191 159 -19 397 290 400 117 1 326 90 463 198 309 242 300 241 300 4z m-989 -1013 c269 -225 489 -450 489 -500 0 -156 -284 -100 -471 93 -98 101 -252 210 -341 242 -142 50 -336 574 -213 574 26 0 267 -184 536 -409z m13991 -993 c-79 -335 -82 -330 -89 152 -5 337 22 450 82 348 50 -84 53 -307 7 -500z m-14490 92 c-124 -116 -247 -188 -273 -162 -67 67 250 372 387 372 61 0 10 -95 -114 -210z m14141 -560 c-99 -529 -189 -310 -98 240 43 264 98 397 121 295 23 -102 13 -343 -23 -535z m600 -200 c-99 -528 -179 -320 -91 236 42 266 95 401 117 299 22 -102 10 -343 -26 -535z m-1252 22 c-135 -356 -192 -298 -127 131 31 200 87 296 142 241 55 -55 49 -203 -15 -372z m751 -1009 c-112 -501 -212 -743 -309 -743 -165 0 -191 159 -40 252 56 35 93 116 81 181 -36 201 358 1428 397 1235 20 -99 -38 -516 -129 -925z m3648 563 c0 -136 -176 -225 -240 -122 -60 97 26 216 157 216 46 0 83 -42 83 -94z m-3950 -306 c-38 -118 -91 -193 -118 -165 -28 27 -20 147 18 265 38 118 91 193 118 165 28 -27 20 -147 -18 -265z m607 -325 c-91 -820 -157 -1075 -279 -1075 -60 0 -74 112 -34 275 38 151 117 534 176 850 143 763 223 733 137 -50z m312 150 c-25 -96 -46 -17 -46 175 0 192 21 271 46 175 25 -96 25 -254 0 -350z m1127 350 c-2 -14 -116 -385 -253 -825 l-248 -800 59 645 c62 664 181 1005 350 1005 53 0 94 -11 92 -25z m94 -733 c-60 -326 -167 -772 -237 -992 -71 -220 -186 -617 -256 -882 -82 -313 -155 -437 -206 -353 -56 91 -110 47 -185 -150 -58 -153 -110 -354 -114 -447 -5 -108 -26 -123 -59 -40 -89 221 171 1114 309 1061 86 -33 198 244 357 882 339 1360 411 1602 458 1555 23 -23 -7 -309 -67 -634z m1610 -47 c0 -241 -328 -1552 -411 -1640 -130 -139 -112 82 78 968 92 427 204 777 250 777 46 0 83 -47 83 -105z m216 -1023 c-20 -357 -194 -1227 -381 -1897 -27 -96 -96 -175 -153 -175 -60 0 -80 96 -45 225 33 124 131 653 217 1175 86 523 178 1013 204 1089 87 258 181 9 158 -417z m-2456 -145 c-33 -33 -56 26 -52 131 5 117 28 141 60 61 29 -72 26 -159 -8 -192z m2640 -821 c0 -107 -45 -222 -100 -256 -57 -35 -100 49 -100 194 0 141 45 256 100 256 55 0 100 -87 100 -194z"/>
<path d="M1880 22213 c-259 -149 -506 -310 -550 -358 -44 -48 -28 -57 37 -20 64 36 240 20 390 -38 237 -90 311 -69 539 149 146 140 322 254 393 254 203 0 66 248 -147 266 -106 9 -404 -105 -662 -253z"/>
<path d="M17352 20808 c-164 -111 -420 -229 -568 -262 -149 -32 -330 -131 -402 -219 -118 -142 -99 -151 168 -81 626 164 2028 27 2118 -207 59 -153 1597 -176 1690 -26 55 88 -28 110 -433 113 -371 2 -254 159 150 201 275 29 220 44 -206 56 -337 10 -557 -22 -523 -76 110 -179 -157 -223 -397 -66 -133 88 -372 159 -531 159 -158 0 -437 52 -618 115 -278 97 -306 133 -178 227 158 116 1536 133 1648 21 35 -35 222 -63 417 -63 280 0 328 25 229 124 -78 78 -517 135 -1195 155 -942 28 -1107 7 -1369 -171z"/>
<path d="M16754 20127 c-108 -27 -291 -112 -408 -189 -116 -76 -239 -112 -272 -78 -34 33 -113 27 -178 -12 -89 -55 -87 -92 8 -150 127 -79 670 60 841 216 144 131 458 103 430 -39 -15 -76 73 -120 225 -112 138 7 419 19 625 25 206 7 375 60 375 119 0 72 -183 85 -550 39 -468 -59 -550 -45 -550 92 0 161 -161 187 -546 89z"/>
<path d="M2727 19140 c33 -34 120 -37 192 -8 80 32 56 55 -61 60 -105 4 -164 -19 -131 -52z"/>
<path d="M5900 17406 c-82 -57 -267 -104 -410 -104 -263 -2 -418 -136 -722 -624 -159 -257 -159 -269 7 -217 166 52 166 48 2 -88 -96 -78 -152 -164 -126 -191 27 -26 -64 -153 -201 -282 -297 -279 -329 -449 -57 -304 106 57 275 74 375 39 148 -52 159 -39 59 69 -101 108 -55 157 246 260 316 109 396 105 540 -25 136 -124 241 -133 548 -49 273 76 399 74 448 -5 131 -211 305 26 239 325 -40 180 -23 290 44 290 59 0 108 -40 108 -89 0 -49 68 -116 151 -147 125 -48 140 13 88 364 -35 232 -141 504 -236 605 -203 213 -887 321 -1103 173z m-300 -445 c0 -22 -70 -66 -155 -99 -89 -34 -129 -18 -94 39 58 95 249 141 249 60z m-323 -536 c-231 -246 -476 -315 -281 -79 67 80 99 181 72 225 -27 43 57 79 185 79 l235 0 -211 -225z m473 75 c-34 -55 -82 -100 -106 -100 -24 0 -44 45 -44 100 0 55 48 100 106 100 58 0 78 -45 44 -100z m336 -289 c74 -47 93 -112 42 -144 -125 -77 -528 33 -528 145 0 112 308 112 486 -1z"/>
<path d="M4346 16093 c-108 -174 15 -211 152 -45 79 95 86 152 20 152 -58 0 -136 -48 -172 -107z"/>
<path d="M3556 15609 c-31 -50 34 -67 144 -38 233 61 263 129 56 129 -79 0 -169 -41 -200 -91z"/>
<path d="M4325 14478 c-124 -60 -225 -142 -225 -184 0 -115 378 9 509 167 135 163 31 169 -284 17z"/>
<path d="M4527 14190 c-289 -185 -307 -224 -173 -359 102 -101 192 -119 274 -54 67 53 257 147 422 210 253 96 261 108 50 76 -137 -20 -340 -71 -450 -112 -138 -51 -106 7 100 184 361 310 227 343 -223 55z"/>
<path d="M4686 13605 c-234 -193 -234 -194 -14 -139 122 31 273 118 337 195 174 209 -48 171 -323 -56z"/>
<path d="M4744 13258 c-106 -78 -159 -177 -116 -219 43 -43 176 21 297 142 245 244 121 297 -181 77z"/>
<path d="M3925 11297 c-335 -135 -272 -203 75 -82 165 58 300 123 300 145 0 59 -122 39 -375 -63z"/>
<path d="M21655 23308 c-65 -106 438 -408 678 -408 78 0 198 -67 266 -149 68 -82 166 -122 219 -90 123 76 -218 457 -361 404 -59 -22 -250 46 -424 151 -192 115 -341 151 -378 92z"/>
<path d="M23400 22500 c0 -55 68 -100 150 -100 83 0 150 45 150 100 0 55 -67 100 -150 100 -82 0 -150 -45 -150 -100z"/>
<path d="M12500 21259 c-233 -84 -349 -190 -350 -318 0 -129 -113 -228 -350 -307 -275 -91 -313 -130 -178 -185 202 -80 878 301 878 496 0 70 169 197 375 282 460 189 137 216 -375 32z"/>
<path d="M10900 21206 c0 -58 45 -106 100 -106 55 0 100 20 100 44 0 24 -45 72 -100 106 -55 34 -100 14 -100 -44z"/>
<path d="M13014 20858 c-185 -64 -393 -193 -461 -287 -69 -94 -210 -172 -314 -174 -104 -2 -276 -69 -383 -150 -107 -81 -276 -147 -375 -147 -100 0 -181 -45 -181 -100 0 -131 262 -128 513 7 110 59 294 125 409 147 115 22 304 128 419 234 115 107 365 257 555 334 434 175 275 293 -182 136z"/>
<path d="M8400 20300 c0 -127 403 -127 600 0 112 72 54 97 -225 98 -206 1 -375 -43 -375 -98z"/>
<path d="M10400 18700 c0 -167 67 -200 400 -200 220 0 400 39 400 88 0 48 -122 87 -271 87 -149 0 -288 51 -308 113 -63 188 -221 125 -221 -88z"/>
<path d="M247 17895 c-92 -149 -19 -201 142 -102 86 53 96 105 29 146 -57 35 -134 16 -171 -44z"/>
<path d="M18567 17733 c-97 -96 -82 -533 18 -533 46 0 88 135 93 300 9 316 -3 341 -111 233z"/>
<path d="M18893 17480 c-71 -181 -148 -364 -170 -405 -22 -41 6 -75 61 -75 109 0 367 683 288 762 -27 26 -107 -100 -179 -282z"/>
<path d="M13953 16071 c-43 -99 -50 -208 -15 -242 101 -102 183 41 136 238 -41 175 -47 175 -121 4z"/>
<path d="M14262 15817 c-44 -127 -54 -259 -21 -291 104 -104 176 49 138 290 l-36 234 -81 -233z"/>
<path d="M22673 15940 c-40 -41 -72 -167 -70 -282 3 -192 11 -194 107 -29 112 192 83 431 -37 311z"/>
<path d="M14573 15740 c-40 -41 -73 -142 -73 -227 0 -112 30 -123 111 -42 61 61 94 163 73 227 -21 63 -71 82 -111 42z"/>
<path d="M23008 15658 c-4 -105 19 -164 52 -131 34 33 37 120 8 192 -32 80 -55 56 -60 -61z"/>
<path d="M23367 15627 c-81 -131 18 -427 144 -427 104 0 104 77 -1 343 -47 121 -101 153 -143 84z"/>
<path d="M14900 15400 c0 -55 45 -100 100 -100 55 0 100 45 100 100 0 55 -45 100 -100 100 -55 0 -100 -45 -100 -100z"/>
<path d="M15266 15332 c-36 -36 -66 -131 -66 -211 0 -114 30 -120 142 -28 112 93 151 80 188 -63 38 -146 49 -149 58 -17 14 185 -223 419 -322 319z"/>
<path d="M22600 15312 c0 -55 45 -128 100 -162 55 -34 100 -17 100 38 0 55 -45 128 -100 162 -55 34 -100 17 -100 -38z"/>
<path d="M23056 15009 c-100 -162 55 -396 252 -381 218 16 250 174 72 352 -143 143 -248 153 -324 29z"/>
<path d="M15573 14208 c-43 -166 -30 -205 44 -131 58 58 86 165 62 237 -25 75 -71 29 -106 -106z"/>
<path d="M14800 14055 c0 -80 -78 -189 -174 -243 -96 -53 -138 -133 -93 -178 44 -45 167 31 272 167 214 279 243 399 95 399 -55 0 -100 -65 -100 -145z"/>
<path d="M15800 13850 c0 -82 18 -150 39 -150 22 0 66 68 97 150 32 82 14 150 -39 150 -53 0 -97 -68 -97 -150z"/>
<path d="M14100 13800 c0 -55 20 -100 44 -100 24 0 72 45 106 100 34 55 14 100 -44 100 -58 0 -106 -45 -106 -100z"/>
<path d="M13548 13460 c-188 -450 -184 -565 13 -310 276 359 346 534 237 601 -56 35 -169 -96 -250 -291z"/>
<path d="M16674 13567 c-116 -287 -95 -528 34 -399 60 60 93 215 75 345 -31 209 -44 215 -109 54z"/>
<path d="M14950 13500 c-34 -55 -14 -100 44 -100 58 0 106 45 106 100 0 55 -20 100 -44 100 -24 0 -72 -45 -106 -100z"/>
<path d="M15674 13367 c-116 -287 -95 -528 34 -399 60 60 93 215 75 345 -31 209 -44 215 -109 54z"/>
<path d="M16016 13300 c0 -137 22 -194 50 -125 28 69 28 181 0 250 -28 69 -50 13 -50 -125z"/>
<path d="M13854 13307 c-31 -51 -12 -121 44 -156 56 -35 102 7 102 93 0 176 -60 202 -146 63z"/>
<path d="M14647 12757 c-92 -243 -148 -502 -122 -575 26 -72 106 71 178 318 73 248 175 506 227 575 61 81 58 125 -9 125 -58 0 -181 -199 -274 -443z"/>
<path d="M16299 12904 c-1 -30 -30 -166 -65 -304 l-64 -250 265 280 c146 154 265 291 265 304 0 50 -400 20 -401 -30z"/>
<path d="M13227 12391 c-208 -999 -231 -1262 -135 -1502 82 -206 96 -176 102 218 3 251 54 715 112 1031 138 743 68 964 -79 253z"/>
<path d="M13773 12840 c-40 -41 -72 -167 -70 -282 3 -192 11 -194 107 -29 112 192 83 431 -37 311z"/>
<path d="M14164 12750 c-32 -82 -14 -150 39 -150 53 0 97 68 97 150 0 82 -18 150 -39 150 -22 0 -66 -68 -97 -150z"/>
<path d="M15908 12758 c-4 -105 19 -164 52 -131 34 33 37 120 8 192 -32 80 -55 56 -60 -61z"/>
<path d="M13600 11983 c0 -364 44 -351 138 42 39 163 24 275 -36 275 -56 0 -102 -142 -102 -317z"/>
<path d="M14108 12158 c-4 -105 19 -164 52 -131 34 33 37 120 8 192 -32 80 -55 56 -60 -61z"/>
<path d="M15700 12200 c0 -55 20 -100 44 -100 24 0 72 45 106 100 34 55 14 100 -44 100 -58 0 -106 -45 -106 -100z"/>
<path d="M15408 12058 c-4 -105 19 -164 52 -131 34 33 37 120 8 192 -32 80 -55 56 -60 -61z"/>
<path d="M15586 11660 c-86 -189 -90 -296 -13 -373 76 -76 127 -15 176 210 90 409 -7 506 -163 163z"/>
<path d="M14959 10434 c-43 -420 -29 -704 37 -770 72 -72 108 1 118 241 7 190 21 536 31 770 28 673 -110 494 -186 -241z"/>
<path d="M5645 10752 c-491 -155 -1575 -755 -1500 -830 60 -60 755 290 755 381 0 76 560 269 1025 352 206 37 375 107 375 156 0 114 -152 100 -655 -59z"/>
<path d="M24488 10541 c-24 -50 80 -338 231 -641 l275 -550 3 369 c3 363 -409 1029 -509 822z"/>
<path d="M5350 10156 c-609 -199 -1320 -541 -1142 -549 87 -4 447 112 800 258 353 145 777 298 942 339 270 68 275 76 50 79 -137 2 -430 -55 -650 -127z"/>
<path d="M6000 9409 c-447 -176 -1067 -435 -1450 -606 -143 -64 -156 -91 -45 -96 85 -4 558 172 1050 391 919 410 1209 487 1087 289 -42 -69 -15 -95 69 -67 76 26 139 88 139 138 0 158 -381 136 -850 -49z"/>
<path d="M6787 9134 c-125 -153 -116 -156 113 -37 335 174 360 203 179 203 -85 0 -216 -75 -292 -166z"/>
<path d="M19557 8978 c-88 -198 -24 -1004 137 -1728 61 -275 117 -561 125 -635 8 -74 119 -182 248 -241 128 -58 233 -166 233 -238 0 -73 111 -160 246 -194 135 -34 289 -113 342 -177 55 -67 391 -115 802 -115 658 0 704 -14 656 -200 -38 -148 8 -124 176 94 126 162 407 463 626 669 218 207 369 403 336 437 -34 33 -186 -54 -337 -194 -152 -141 -317 -256 -368 -256 -50 0 -65 -42 -33 -93 31 -51 0 -129 -69 -172 -130 -81 -1177 -145 -1177 -71 0 99 535 836 607 836 155 0 202 -197 94 -398 -75 -141 -76 -202 -2 -202 58 0 148 110 199 245 65 170 216 278 496 353 406 110 606 332 606 674 0 146 -83 189 -392 201 -422 17 -670 -166 -572 -422 32 -83 152 -151 267 -151 115 0 181 -45 147 -100 -34 -55 -191 -100 -350 -100 -159 0 -316 45 -350 100 -83 134 -250 127 -250 -11 0 -95 -145 -303 -605 -864 -57 -69 -155 -125 -219 -125 -86 0 -85 31 4 120 166 166 151 331 -17 191 -474 -394 -1280 831 -1440 2189 -58 487 -116 690 -166 578z"/>
<path d="M5437 8756 c-493 -215 -481 -347 15 -169 247 89 448 196 448 237 0 105 -99 90 -463 -68z"/>
<path d="M11262 8713 c-94 -103 -196 -343 -226 -531 -45 -276 -3 -406 218 -669 170 -202 309 -290 368 -231 58 58 -4 191 -164 351 -303 303 -311 375 -95 830 190 401 142 519 -101 250z"/>
<path d="M10311 8442 c-225 -287 -282 -642 -103 -642 60 0 89 56 65 125 -25 69 44 251 152 406 257 366 161 460 -114 111z"/>
<path d="M10758 8536 c-83 -218 28 -320 146 -133 118 187 121 297 7 297 -49 0 -118 -74 -153 -164z"/>
<path d="M4625 8429 c-124 -23 -225 -85 -225 -136 0 -146 262 -109 400 57 68 83 108 144 87 136 -20 -7 -138 -33 -262 -57z"/>
<path d="M5403 8304 c-247 -156 -72 -194 247 -53 232 103 255 134 100 139 -110 4 -266 -35 -347 -86z"/>
<path d="M4950 8100 c-34 -55 -14 -100 44 -100 58 0 106 45 106 100 0 55 -20 100 -44 100 -24 0 -72 -45 -106 -100z"/>
<path d="M10577 8140 c-69 -116 75 -499 223 -590 178 -110 177 -27 -3 340 -91 187 -191 300 -220 250z"/>
<path d="M24909 8100 c-14 -82 -34 -262 -45 -400 -11 -137 -215 -537 -454 -887 -239 -351 -373 -618 -297 -594 75 25 309 292 519 595 330 477 376 611 342 994 -21 243 -51 375 -65 292z"/>
<path d="M4527 7940 c33 -34 120 -37 192 -8 80 32 56 55 -61 60 -105 4 -164 -19 -131 -52z"/>
<path d="M5213 7737 c-185 -81 -316 -168 -291 -192 72 -72 678 165 678 265 0 49 -11 86 -25 82 -14 -5 -176 -74 -362 -155z"/>
<path d="M22425 7728 c-141 -50 -173 -328 -37 -328 131 0 334 275 242 328 -44 25 -136 25 -205 0z"/>
<path d="M5300 7400 c0 -55 42 -100 94 -100 52 0 122 45 156 100 34 55 -8 100 -94 100 -86 0 -156 -45 -156 -100z"/>
<path d="M7206 6857 c-102 -123 -108 -195 -25 -278 83 -83 129 -70 175 51 102 266 5 414 -150 227z"/>
<path d="M23900 6811 c0 -49 -179 -305 -397 -570 -218 -264 -372 -505 -340 -536 70 -69 598 550 784 920 76 151 96 275 45 275 -50 0 -92 -40 -92 -89z"/>
<path d="M6530 6625 c-99 -144 -136 -151 -214 -37 -108 159 -316 67 -316 -140 0 -78 95 -192 212 -254 241 -130 419 -3 534 381 80 267 -48 297 -216 50z"/>
<path d="M12200 6656 c0 -176 60 -202 146 -63 31 51 12 121 -44 156 -56 35 -102 -7 -102 -93z"/>
<path d="M12569 6727 c-24 -43 -12 -165 27 -272 67 -185 73 -184 128 25 55 212 -64 403 -155 247z"/>
<path d="M21409 6561 c-71 -85 -81 -167 -24 -202 52 -32 122 16 157 106 85 221 14 273 -133 96z"/>
<path d="M24923 6400 c0 -192 21 -271 46 -175 25 96 25 254 0 350 -25 96 -46 18 -46 -175z"/>
<path d="M21146 5293 c-36 -58 -42 -130 -13 -160 72 -71 267 55 267 173 0 128 -173 119 -254 -13z"/>
<path d="M686 5103 c-164 -136 -190 -196 -86 -196 161 -1 500 223 500 329 0 121 -178 64 -414 -133z"/>
<path d="M6455 4409 c-104 -169 44 -350 176 -218 79 79 79 139 0 218 -78 78 -127 78 -176 0z"/>
<path d="M19100 4400 c0 -55 45 -100 100 -100 55 0 100 45 100 100 0 55 -45 100 -100 100 -55 0 -100 -45 -100 -100z"/>
<path d="M20368 4400 c-132 -385 -164 -700 -70 -700 56 0 102 64 102 142 0 78 47 157 105 176 71 24 74 117 10 284 -69 181 -109 208 -147 98z"/>
<path d="M18973 4140 c-40 -41 -73 -142 -73 -227 0 -112 30 -123 111 -42 61 61 94 163 73 227 -21 63 -71 82 -111 42z"/>
<path d="M19158 3913 c-43 -69 -51 -153 -18 -186 89 -90 187 42 139 187 -34 101 -58 101 -121 -1z"/>
<path d="M6303 2304 c-81 -51 -125 -115 -98 -142 80 -81 895 57 895 151 0 116 -611 109 -797 -9z"/>
<path d="M238 1718 c-209 -139 -236 -440 -67 -727 95 -160 205 -291 245 -291 154 0 171 179 34 360 -201 266 -184 364 50 290 129 -41 200 -18 200 66 0 70 75 22 166 -108 156 -223 155 -246 -18 -372 -208 -152 -138 -292 100 -201 235 91 289 334 149 672 -91 221 -183 296 -336 276 -116 -15 -258 3 -316 38 -57 36 -151 35 -207 -3z"/>
<path d="M12314 1265 c-252 -268 -266 -766 -25 -845 104 -34 123 17 77 201 -72 286 96 547 384 597 261 45 258 224 -4 261 -115 17 -302 -76 -432 -214z"/>
<path d="M12775 931 c-217 -57 -228 -205 -19 -249 132 -27 125 -67 -50 -253 -211 -226 -270 -429 -123 -429 179 0 517 478 517 731 0 148 -34 264 -75 257 -41 -6 -154 -32 -250 -57z"/>
<path d="M6367 833 c-37 -36 -67 -132 -67 -212 0 -116 29 -121 146 -24 89 74 264 95 450 54 351 -77 423 94 79 186 -298 80 -526 78 -608 -4z"/>
<path d="M196 417 c-123 -100 -207 -234 -185 -298 25 -75 144 -33 331 116 174 139 249 259 185 298 -58 36 -207 -16 -331 -116z"/>
<path d="M5800 300 c-165 -231 -180 -300 -68 -300 127 0 468 398 468 546 0 150 -211 20 -400 -246z"/>
<path d="M9450 200 c-34 -55 -14 -100 44 -100 58 0 106 45 106 100 0 55 -20 100 -44 100 -24 0 -72 -45 -106 -100z"/>
<path d="M20227 240 c33 -34 120 -37 192 -8 80 32 56 55 -61 60 -105 4 -164 -19 -131 -52z"/>
<path d="M450 100 c-34 -55 34 -100 150 -100 116 0 184 45 150 100 -34 55 -101 100 -150 100 -49 0 -116 -45 -150 -100z"/>
</g>
</svg>