<svg xmlns="http://www.w3.org/2000/svg" version="1.0" width="250" height="250" viewBox="0 0 250.000000 250.000000" preserveAspectRatio="xMidYMid meet">
<metadata>
Created by potrace 1.10, written by Peter Selinger 2001-2011
</metadata>
<g transform="translate(0.000000,250.000000) scale(0.010000,-0.010000)" fill="#555555" stroke="none">
<path d="M107 24275 c5 -498 34 -662 93 -525 61 143 88 29 94 -400 5 -330 36 -701 69 -825 36 -135 16 -225 -51 -225 -69 0 -112 210 -112 544 0 299 -35 566 -78 592 -43 27 -37 -387 13 -919 49 -532 89 -1709 87 -2617 -4 -2874 -30 -3507 -139 -3439 -60 37 -85 -15 -62 -124 23 -103 94 -176 160 -162 149 31 156 -198 10 -344 -151 -151 -262 -3387 -114 -3295 65 40 89 248 59 514 -62 569 163 972 727 1302 452 265 965 363 1468 282 378 -62 782 -333 599 -402 -89 -34 -78 -134 43 -387 139 -293 143 -378 28 -593 -74 -139 -175 -252 -224 -252 -48 0 -9 134 88 299 171 288 170 304 -19 446 -272 206 -382 146 -485 -264 -127 -501 -16 -834 325 -975 338 -140 507 -464 585 -1124 45 -385 24 -490 -107 -541 -200 -76 -209 -224 -26 -433 179 -205 306 -1069 169 -1153 -59 -37 -77 -243 -43 -494 47 -346 26 -443 -109 -495 -92 -36 -141 -108 -108 -161 33 -53 125 -71 206 -40 101 39 147 -11 147 -160 0 -119 -41 -191 -91 -160 -51 31 -110 3 -131 -62 -65 -194 -372 -11 -487 289 -102 268 -82 685 61 1245 52 203 18 311 -142 447 -231 199 -270 436 -99 607 140 140 15 360 -166 291 -154 -59 -278 236 -193 458 94 245 -197 416 -444 262 -114 -72 -208 -153 -208 -181 0 -28 -115 -185 -256 -348 -225 -262 -237 -311 -100 -411 86 -63 156 -189 156 -281 0 -143 -73 -158 -495 -102 -474 63 -498 54 -561 -197 -36 -144 -106 -262 -155 -262 -49 0 -89 -162 -89 -361 0 -288 32 -348 159 -300 366 141 1241 189 1241 68 0 -75 76 -97 200 -57 225 71 245 21 100 -250 -79 -147 -266 -201 -900 -256 l-800 -70 0 -2543 c0 -1701 34 -2522 102 -2480 96 59 233 292 885 1499 211 391 376 551 755 733 352 170 506 202 558 116 53 -85 188 -58 495 98 390 199 439 204 639 58 119 -86 396 -279 616 -427 294 -198 355 -279 231 -305 -93 -19 -277 35 -408 121 -518 339 -1473 -23 -1473 -559 0 -93 -112 -303 -250 -467 -137 -163 -250 -332 -250 -375 0 -42 -75 -160 -167 -262 -101 -112 -214 -526 -286 -1057 -124 -903 -110 -1074 67 -821 75 108 87 55 43 -198 -33 -190 -103 -372 -156 -404 -113 -70 -423 -913 -359 -977 86 -85 258 90 258 263 0 96 70 262 155 369 143 181 150 165 91 -231 -67 -448 107 -622 199 -200 170 773 279 1459 269 1675 -25 496 219 1457 450 1768 130 175 236 371 236 436 0 65 67 92 150 60 92 -36 214 41 318 199 147 224 214 249 525 189 196 -37 527 -63 735 -56 533 17 589 -48 405 -475 -280 -648 -316 -762 -376 -1196 -58 -413 81 -610 176 -250 25 96 99 378 163 625 124 475 362 875 461 776 32 -32 -10 -164 -94 -292 -162 -248 -463 -1297 -463 -1613 0 -402 253 -78 324 414 84 582 320 1215 454 1215 49 0 146 -108 217 -240 104 -194 104 -335 4 -727 -100 -390 -100 -587 0 -985 69 -274 147 -779 172 -1123 35 -473 83 -625 198 -625 128 0 144 119 99 725 -30 399 -100 964 -156 1255 -56 292 -77 596 -46 675 65 171 334 196 334 31 0 -62 113 -217 250 -345 184 -170 255 -345 267 -661 10 -237 27 -497 39 -580 13 -82 28 -364 33 -625 8 -339 52 -475 153 -475 108 0 139 134 130 546 -20 836 246 874 384 54 102 -603 99 -600 749 -600 l611 0 -33 366 c-22 247 12 381 107 413 109 37 126 -23 78 -266 -38 -189 -22 -313 40 -313 57 0 76 -45 42 -100 -96 -155 410 -118 541 40 216 259 785 290 1247 66 298 -144 623 -206 1087 -206 616 0 676 20 868 290 304 427 273 616 -93 575 -166 -18 -331 -62 -367 -99 -37 -37 -162 -5 -277 71 -293 192 -1010 299 -1220 181 -134 -75 -216 -43 -359 138 -101 129 -246 211 -321 183 -74 -29 -165 -5 -202 54 -36 59 -144 107 -240 107 -328 0 -664 234 -1138 792 -312 368 -474 651 -475 832 -1 165 -81 324 -201 399 -110 69 -200 179 -200 244 0 66 -90 148 -200 183 -110 35 -200 132 -200 216 0 241 -325 728 -527 793 -102 32 -225 166 -276 298 -60 158 -143 219 -244 180 -158 -61 -210 73 -78 205 41 41 75 126 75 188 0 63 315 208 700 324 929 279 1369 484 2088 972 1034 702 2262 2017 2262 2423 0 287 214 259 329 -44 67 -178 211 -336 333 -367 161 -40 270 -222 434 -721 120 -367 316 -824 435 -1017 120 -192 205 -403 190 -467 -14 -65 19 -146 75 -181 61 -37 79 10 44 118 -43 137 -7 124 151 -55 114 -130 183 -276 152 -326 -30 -49 49 -133 176 -186 273 -114 581 -348 581 -442 0 -111 -632 245 -950 536 -165 151 -382 303 -482 338 -151 53 -170 26 -112 -161 99 -324 252 -485 434 -459 211 31 610 -107 610 -210 0 -45 101 -114 225 -154 192 -62 199 -79 49 -119 -97 -26 -151 -89 -119 -140 31 -50 -58 -92 -199 -92 -141 0 -256 45 -256 100 0 55 68 100 150 100 82 0 150 39 150 88 0 135 -296 349 -375 271 -38 -39 -3 -112 78 -163 120 -76 112 -93 -45 -94 -106 -1 -275 72 -375 163 -165 150 -183 151 -183 6 0 -88 100 -230 222 -315 122 -86 176 -156 120 -156 -56 0 -155 53 -220 118 -65 65 -151 86 -191 46 -40 -40 40 -172 178 -293 138 -122 199 -188 137 -147 -221 144 -235 -51 -17 -233 241 -201 85 -259 -236 -87 -109 58 -193 63 -193 11 0 -50 100 -118 223 -150 177 -46 198 -84 100 -182 -96 -96 -150 -96 -243 -3 -168 168 -313 150 -244 -30 32 -82 3 -152 -64 -154 -67 -2 -3 -68 142 -147 225 -122 340 -124 781 -9 537 139 846 430 865 813 12 250 229 671 322 626 1069 -514 1218 -676 1218 -1334 0 -232 -47 -345 -142 -345 -121 0 -122 -43 -12 -275 72 -151 154 -435 183 -631 49 -335 24 -375 -438 -691 -270 -184 -491 -373 -491 -419 0 -47 190 53 423 221 533 386 645 196 133 -226 -201 -166 -342 -327 -312 -357 30 -30 145 28 256 128 209 189 420 130 227 -63 -63 -63 -86 -261 -54 -456 42 -263 22 -340 -84 -319 -76 15 -239 -7 -360 -48 -125 -42 -313 -26 -433 38 -180 96 -219 82 -265 -95 -64 -244 -284 -274 -369 -51 -92 239 -799 156 -847 -99 -20 -106 -108 -264 -194 -350 -144 -143 -138 -160 75 -191 129 -19 341 23 471 93 182 98 264 100 355 9 131 -131 519 -165 441 -38 -28 44 -13 139 32 213 105 168 337 34 265 -153 -39 -101 30 -140 243 -140 340 0 397 155 91 252 -211 67 -220 306 -11 288 65 -5 263 -20 442 -31 298 -20 306 -29 102 -112 -289 -115 -194 -397 134 -397 231 0 239 25 243 775 1 426 59 876 128 1000 l125 224 109 -291 c97 -257 87 -297 -91 -343 -137 -36 -181 -105 -138 -217 35 -90 63 -386 63 -656 0 -525 159 -676 228 -217 l42 275 15 -275 c9 -160 73 -275 153 -275 172 0 310 1264 210 1927 -70 467 59 1554 318 2692 146 638 143 696 -57 1229 -219 585 -271 1102 -121 1195 87 53 153 -88 414 -893 130 -402 159 -2144 44 -2668 -33 -149 -15 -354 40 -455 54 -102 121 -487 149 -856 29 -384 111 -731 192 -812 78 -79 200 -416 271 -751 102 -480 168 -608 316 -608 127 0 186 72 186 230 0 126 56 287 125 357 100 101 86 155 -69 270 -186 137 -183 143 69 143 145 0 291 45 325 100 34 55 104 100 156 100 126 0 121 -372 -6 -450 -181 -112 -104 -265 100 -200 146 46 200 18 200 -106 0 -133 -61 -157 -285 -112 -252 50 -515 -66 -515 -227 0 -112 794 -51 915 70 69 69 183 125 255 125 72 0 130 71 130 158 0 87 56 140 125 117 228 -76 139 -421 -125 -488 -172 -44 -86 -67 275 -75 l525 -12 0 356 c0 212 40 331 100 294 55 -34 100 -169 100 -300 0 -131 45 -266 100 -300 178 -110 108 642 -97 1043 l-196 385 221 59 c122 32 237 13 256 -41 19 -55 100 -166 182 -248 201 -201 342 -730 271 -1015 -61 -241 106 -332 197 -108 40 100 52 100 58 0 4 -69 80 -125 169 -125 105 0 140 54 100 158 -34 87 -61 213 -61 280 0 199 -798 1368 -981 1437 -233 88 -373 239 -440 475 -31 110 -86 272 -122 360 -78 186 493 668 855 724 125 19 245 86 266 150 88 263 694 118 1259 -301 310 -229 563 -454 563 -500 0 -46 60 -83 134 -83 161 0 836 -781 1114 -1288 l199 -362 34 282 c25 213 -85 440 -449 923 -265 352 -540 641 -611 643 -71 1 -341 198 -600 438 -834 772 -1306 872 -1976 417 -399 -271 -545 -312 -545 -154 0 127 748 601 948 601 176 0 202 157 42 256 -60 37 -234 -25 -388 -138 l-278 -206 15 304 c9 173 100 365 212 447 173 127 211 124 320 -24 101 -139 150 -146 276 -42 164 137 201 118 736 -372 136 -124 375 -225 534 -225 214 0 443 -147 886 -569 328 -313 597 -646 597 -742 0 -244 105 -489 211 -489 49 0 89 585 89 1300 0 715 -34 1300 -76 1300 -42 0 -133 -92 -203 -204 -70 -112 -171 -177 -224 -144 -168 104 -107 231 198 411 292 172 319 337 57 337 -75 0 -265 -108 -423 -241 -214 -180 -329 -217 -458 -145 -94 53 -171 158 -171 234 0 132 514 448 740 455 184 6 560 369 560 540 0 125 -61 146 -275 94 -274 -67 -274 -66 -87 146 104 117 228 188 275 159 48 -30 87 82 87 249 0 228 -37 289 -150 245 -110 -42 -150 13 -150 206 0 146 68 290 150 322 148 56 215 336 81 336 -37 0 -172 -98 -299 -217 -272 -256 -381 -194 -291 166 52 208 116 252 337 229 l272 -28 29 967 c27 929 20 964 -175 913 -270 -70 -270 179 -2 422 174 157 199 292 183 965 -14 575 -55 783 -152 783 -182 0 -168 265 17 336 83 32 149 160 148 286 -1 171 -23 193 -89 88 -56 -87 -158 -112 -274 -67 -166 65 -156 88 90 218 365 193 388 486 25 321 -138 -63 -284 -81 -325 -40 -102 102 288 374 447 313 77 -29 128 29 128 148 0 234 -127 249 -429 51 -145 -95 -274 -114 -369 -55 -128 79 -128 97 1 143 582 207 697 263 697 340 0 100 -965 86 -1066 -15 -116 -115 -234 -73 -234 83 0 302 -949 69 -1053 -258 -33 -106 -142 -192 -241 -192 -100 0 -238 -67 -306 -150 -130 -157 -500 -209 -500 -70 0 44 169 143 375 220 l375 140 -300 58 -300 58 337 170 c186 94 380 145 432 112 52 -32 152 21 223 118 78 107 194 151 294 113 231 -88 464 22 464 220 0 138 120 171 700 188 750 23 984 -145 275 -196 -296 -22 -425 -76 -425 -180 0 -211 273 -236 690 -62 328 137 360 186 360 550 0 220 -49 429 -109 466 -78 49 -78 98 0 176 122 122 152 1269 33 1269 -42 0 -121 -98 -175 -219 -119 -262 -349 -359 -349 -147 0 84 119 245 265 360 207 163 275 319 314 722 51 535 -93 612 -280 149 -82 -205 -87 -203 -93 40 -3 140 48 309 114 375 66 66 87 120 47 120 -39 0 -3 133 80 295 118 228 153 654 153 1867 0 864 -19 1553 -41 1530 -23 -23 -61 -414 -84 -868 -79 -1510 -175 -983 -175 959 0 1055 39 1917 86 1917 48 0 95 -393 106 -872 30 -1365 108 -1108 108 355 0 811 -38 1317 -100 1317 -55 0 -106 -101 -114 -225 l-13 -225 -44 225 c-23 124 -83 225 -131 225 -162 0 -214 -646 -165 -2056 54 -1596 -23 -3344 -148 -3344 -47 0 -85 1215 -85 2700 0 1904 -33 2700 -110 2700 -76 0 -102 -341 -83 -1075 34 -1335 -26 -3618 -81 -3076 -23 219 -78 444 -124 500 -75 91 -74 796 7 2901 26 665 15 702 -205 734 -192 28 -219 2 -153 -150 150 -348 173 -851 64 -1417 -60 -312 -138 -1141 -172 -1842 -35 -713 -103 -1250 -153 -1219 -50 31 -90 143 -90 250 0 107 -45 194 -100 194 -55 0 -101 -101 -103 -225 -6 -447 -211 104 -224 604 -27 948 61 2512 137 2465 44 -27 67 -568 52 -1202 -18 -797 12 -1205 98 -1322 112 -153 129 -146 178 80 114 522 170 3800 65 3800 -56 0 -106 -146 -109 -325 -6 -304 -13 -310 -101 -91 -51 129 -68 275 -37 325 31 50 8 91 -50 91 -58 0 -107 -124 -109 -275 -3 -236 -18 -250 -105 -99 -57 96 -75 220 -42 275 34 54 25 99 -19 99 -45 0 -90 -705 -102 -1567 -21 -1538 -43 -1646 -359 -1758 -45 -16 -83 -185 -86 -377 -4 -328 26 -593 175 -1548 42 -265 29 -366 -37 -300 -124 125 -333 1539 -321 2175 5 271 -36 475 -96 475 -107 0 -153 -436 -121 -1150 74 -1631 77 -1594 -134 -1635 -194 -37 -195 -33 -17 165 264 293 199 614 -215 1073 -80 89 -90 147 -25 147 66 0 107 265 107 686 0 954 109 1716 209 1460 52 -131 79 -20 84 335 4 302 -33 506 -86 474 -98 -61 -270 1016 -177 1109 30 30 86 -152 124 -405 41 -276 121 -459 200 -459 220 0 374 -678 322 -1414 -27 -377 -16 -686 25 -686 99 0 173 458 153 950 -9 220 -25 816 -35 1325 -17 841 -37 925 -212 925 -121 0 -209 -84 -236 -225 l-44 -225 -13 225 c-11 170 -75 225 -266 225 l-253 0 63 -1252 c46 -917 31 -1291 -59 -1399 -67 -80 -93 -221 -58 -312 35 -91 -7 -272 -92 -403 -86 -131 -147 -338 -137 -461 11 -123 11 -313 2 -423 -14 -164 -34 -174 -110 -52 -52 81 -67 347 -33 590 44 323 29 424 -55 372 -64 -40 -116 -227 -116 -416 0 -189 -48 -344 -106 -344 -72 0 -83 636 -35 2058 l70 2058 -273 -33 c-272 -33 -273 -35 -309 -972 -20 -528 -86 -988 -150 -1050 -86 -83 -106 152 -81 939 33 1015 27 1051 -184 1081 -212 30 -216 11 -162 -800 102 -1512 87 -2464 -41 -2592 -95 -95 -120 6 -114 470 8 522 -55 2247 -101 2791 -12 141 -41 163 -97 74 -44 -69 -64 -1003 -44 -2075 25 -1315 2 -1949 -68 -1949 -58 0 -105 63 -105 139 0 77 -67 166 -150 197 -121 46 -148 259 -141 1086 5 689 35 940 89 760 44 -147 63 -563 42 -925 -23 -395 1 -657 61 -657 110 0 138 2501 35 3125 -55 329 -96 375 -342 375 -351 0 -453 -267 -292 -757 77 -231 98 -728 61 -1424 -31 -588 -58 -1170 -60 -1294 -1 -124 -48 -225 -103 -225 -56 0 -100 283 -100 650 0 367 -44 650 -100 650 -55 0 -100 90 -100 200 0 110 45 200 100 200 60 0 100 400 100 1000 0 733 -33 1000 -125 1000 -80 0 -127 -154 -129 -425 -3 -234 -30 -864 -61 -1400 -31 -536 -18 -975 29 -975 47 0 86 -52 86 -117 0 -64 -31 -85 -69 -47 -38 38 -124 -56 -192 -209 -122 -275 -123 -274 -131 145 -7 351 -36 411 -174 358 -112 -43 -143 -26 -95 53 40 64 128 117 195 117 84 0 122 191 120 600 -2 330 -38 600 -79 600 -41 0 -80 -101 -87 -225 -8 -166 -23 -180 -57 -52 -25 95 26 274 112 397 173 248 218 1180 57 1180 -55 0 -102 -124 -105 -275 l-4 -275 -137 300 c-171 373 -173 355 -156 -1050 8 -632 -32 -1262 -89 -1400 -81 -194 -101 -27 -90 750 24 1685 0 1950 -177 1950 -121 0 -153 -97 -139 -425 23 -524 -97 -1091 -215 -1018 -84 53 -21 1209 75 1365 27 43 -10 78 -82 78 -93 0 -142 -213 -167 -725 -20 -399 -46 -860 -57 -1025 -11 -165 -33 -592 -49 -950 -26 -589 -36 -617 -112 -300 -46 193 -65 530 -43 750 103 1013 134 2250 56 2250 -133 0 -206 -387 -208 -1100 -3 -1051 -123 -2300 -221 -2300 -53 0 -65 705 -29 1700 42 1172 28 1700 -45 1700 -58 0 -115 -169 -125 -375 -11 -206 -30 -487 -41 -625 -12 -137 -26 -306 -31 -375 -5 -69 -65 -114 -134 -100 -137 27 -149 -49 -164 -1067 -17 -1108 -140 -669 -151 540 -9 1021 66 1412 169 877 31 -157 50 -119 64 125 11 193 39 489 61 658 37 279 15 309 -232 308 l-272 0 -19 -1403 c-11 -771 -45 -1506 -77 -1633 -32 -127 -12 -230 44 -230 150 0 124 -257 -40 -393 -212 -176 -287 172 -204 948 85 788 -39 2831 -159 2637 -46 -75 -83 -801 -83 -1613 1 -812 -27 -1523 -62 -1579 -168 -272 -210 122 -172 1644 28 1155 7 1656 -69 1656 -60 0 -115 -169 -122 -375 -7 -206 -21 -555 -32 -775 -10 -220 -27 -931 -37 -1581 -10 -649 -54 -1158 -99 -1131 -45 28 -74 500 -65 1050 8 550 -22 1058 -68 1131 -54 85 -83 14 -84 -202 -1 -222 -44 -320 -127 -292 -84 27 -142 366 -176 1033 -57 1121 -170 884 -227 -480 -35 -826 -160 -1168 -190 -520 -10 216 -13 493 -6 617 6 124 -35 225 -93 225 -71 0 -82 -482 -37 -1500 40 -891 31 -1500 -24 -1500 -115 0 -211 1806 -172 3225 25 897 5 1075 -119 1075 -127 0 -144 -268 -120 -1847 16 -1016 3 -1872 -28 -1904 -90 -89 -209 2900 -134 3348 55 324 39 403 -84 403 -103 0 -166 -122 -192 -375 l-39 -375 -17 375 c-16 361 -30 375 -380 375 l-363 0 59 -775 c33 -426 108 -1022 167 -1325 132 -678 193 -3553 79 -3725 -63 -95 -108 -82 -187 52 -57 98 -148 150 -203 116 -176 -109 -389 174 -389 519 0 186 -45 338 -100 338 -97 0 -142 -266 -105 -625 24 -236 -166 -224 -242 15 -75 238 -79 1136 -7 1641 37 257 19 359 -53 315 -58 -36 -80 -135 -48 -219 32 -84 10 -210 -48 -281 -95 -114 -181 -753 -193 -1421 -2 -124 -52 -225 -111 -225 -71 0 -85 178 -41 530 84 670 138 4195 72 4695 -27 206 -103 375 -169 375 -88 0 -124 -547 -140 -2075 -36 -3591 -76 -3825 -664 -3825 -116 0 -271 -56 -343 -125 -106 -100 -142 -100 -179 0 -72 197 -229 146 -229 -75 0 -110 -51 -200 -114 -200 -215 0 75 4495 315 4876 87 140 102 101 74 -201 -19 -206 1 -375 45 -375 44 0 73 394 65 875 -8 481 -34 751 -57 600 -23 -151 -79 -275 -125 -275 -46 0 -60 180 -30 400 32 241 13 400 -49 400 -59 0 -131 -437 -170 -1025 -38 -564 -110 -1417 -162 -1896 -51 -480 -115 -1379 -143 -1999 -27 -620 -97 -1274 -157 -1453 -116 -352 -349 -436 -423 -152 -28 108 -50 69 -57 -100 -8 -173 -68 -275 -162 -275 -126 0 -150 213 -148 1325 0 729 43 1843 95 2475 173 2110 157 3288 -40 3090 -52 -52 -208 -4734 -204 -6115 1 -536 -29 -975 -67 -975 -38 0 -139 -27 -224 -59 -137 -53 -150 145 -113 1725 23 981 69 2347 103 3034 60 1223 -7 2401 -137 2399 -36 0 -69 -912 -75 -2027 -6 -1304 -50 -2103 -123 -2240 -91 -171 -83 -223 41 -271 127 -49 143 -173 91 -685 -73 -707 -145 -876 -158 -368 l-8 342 -95 -300 c-52 -165 -67 -536 -34 -825 36 -309 21 -525 -35 -525 -152 0 -215 381 -231 1400 -13 820 -25 882 -87 450 -40 -275 -57 -860 -38 -1300 27 -620 75 -829 211 -930 165 -122 160 -143 -74 -323 -306 -236 -460 -247 -539 -39 -34 87 -61 987 -61 2000 0 1114 -38 1842 -96 1842 -141 0 -66 -3854 78 -4028 85 -102 83 -167 -4 -254 -339 -339 -460 -42 -587 1432 -67 777 -72 715 -39 -461 38 -1351 36 -1362 -199 -1469 -185 -85 -248 -77 -290 33 -30 77 -11 167 41 200 112 69 133 2847 21 2847 -41 0 -72 -563 -67 -1250 4 -688 -25 -1250 -64 -1250 -117 0 -156 400 -138 1425 11 609 -21 975 -85 975 -90 0 -47 -2840 48 -3173 17 -59 -14 -114 -69 -123 -183 -29 -230 429 -240 2321 -7 1301 -44 1875 -121 1875 -78 0 -103 -538 -84 -1825 41 -2807 36 -2867 -216 -2801 -189 49 -207 111 -167 591 33 401 11 535 -89 535 -80 0 -139 -129 -149 -325 -21 -444 -16 -523 63 -945 61 -326 51 -353 -87 -238 -86 71 -160 226 -164 344 -5 118 -32 610 -60 1095 -36 625 -9 1004 95 1308 95 279 114 485 54 592 -108 192 -181 1660 -216 4339 -22 1725 -69 2163 -216 2016 -26 -25 -3 -1507 51 -3291 54 -1785 64 -3807 23 -4495 -82 -1363 -82 -1293 19 -1809 66 -339 51 -368 -263 -495 -183 -74 -366 -182 -406 -240 -44 -63 -75 -35 -75 69 -1 96 43 175 98 175 137 0 127 474 -12 521 -225 75 -288 1222 -296 5354 -7 4099 -13 4225 -200 4225 -172 0 -191 -74 -185 -725z m10993 319 c0 -113 -45 -178 -100 -144 -55 34 -100 127 -100 206 0 79 45 144 100 144 55 0 100 -93 100 -206z m9200 -911 c0 -821 -96 -1026 -147 -315 -29 392 43 1132 110 1132 20 0 37 -367 37 -817z m-3140 344 c-33 -33 -56 26 -52 131 5 117 28 141 60 61 29 -72 26 -159 -8 -192z m5940 -19 c0 -47 -90 -108 -200 -137 -160 -42 -200 -3 -200 192 0 213 25 230 200 137 110 -59 200 -145 200 -192z m-11846 -1139 c30 -571 21 -637 -46 -319 -171 820 -221 1413 -102 1219 61 -100 128 -505 148 -900z m5131 118 c-92 -60 -101 -111 -28 -162 164 -114 28 -1067 -157 -1107 -120 -26 -125 -7 -25 95 145 147 167 603 36 742 -113 120 -19 762 100 688 49 -30 94 4 101 76 6 72 33 46 59 -57 27 -103 -12 -227 -86 -275z m-1314 -312 c-24 -124 -44 -22 -44 225 0 248 20 349 44 225 23 -124 23 -326 0 -450z m4954 50 c20 -41 -44 -232 -144 -425 l-181 -350 0 425 c0 303 41 425 144 425 79 0 161 -34 181 -75z m-7009 -884 c-14 -685 -116 -676 -116 9 0 321 28 555 63 521 34 -35 58 -273 53 -530z m-257 85 c-108 -108 -165 43 -89 235 71 180 76 180 111 6 20 -100 10 -209 -22 -241z m-1399 -99 c-33 -33 -56 26 -52 131 5 117 28 141 60 61 29 -72 26 -159 -8 -192z m3665 -342 c-55 -55 -70 38 -37 237 46 278 60 292 92 91 20 -130 -4 -277 -55 -328z m4875 171 c0 -79 -45 -172 -100 -206 -55 -34 -100 31 -100 144 0 113 45 206 100 206 55 0 100 -65 100 -144z m-8434 -506 c-45 -323 -27 -450 61 -452 89 -1 91 -22 10 -75 -63 -40 -136 -163 -164 -273 -27 -110 -55 10 -61 267 -7 256 -63 483 -126 504 -80 27 -73 102 24 259 219 350 322 257 256 -230z m1334 50 c0 -55 -45 -100 -100 -100 -55 0 -100 45 -100 100 0 55 45 100 100 100 55 0 100 -45 100 -100z m4042 39 c87 -33 158 -146 158 -250 0 -230 80 -238 306 -33 156 141 208 141 548 -1 756 -316 1213 -1345 926 -2085 -80 -206 -77 -348 12 -541 101 -223 98 -245 -22 -145 -84 69 -270 91 -457 54 -258 -52 -306 -35 -258 89 74 192 -150 343 -255 173 -115 -186 -318 -14 -247 208 68 216 -52 253 -233 72 -174 -174 -147 -455 55 -571 150 -85 128 -110 -152 -167 -524 -108 -480 -243 71 -217 323 16 505 70 505 150 1 155 56 156 333 6 120 -65 361 -107 536 -93 235 19 346 -28 428 -181 90 -168 82 -207 -42 -207 -85 0 -154 53 -154 117 0 64 -24 93 -52 64 -101 -100 75 -381 238 -381 110 -1 260 -239 455 -725 161 -399 350 -794 422 -879 147 -174 437 -835 437 -997 0 -59 -158 18 -351 172 -193 153 -328 338 -300 411 64 169 -549 914 -754 916 -85 1 -209 56 -275 122 -83 83 -120 86 -120 8 0 -61 56 -138 125 -170 100 -46 100 -70 0 -116 -209 -98 -141 -197 150 -219 361 -28 725 -223 725 -390 0 -161 -121 -172 -268 -25 -188 188 -1543 492 -2175 489 -1008 -6 -2084 -253 -3444 -788 -711 -280 -1349 -509 -1418 -509 -69 0 -355 -108 -635 -240 -467 -220 -836 -299 -1276 -271 -151 10 -148 47 25 406 233 482 235 577 26 1068 -90 213 -183 610 -206 882 -23 272 -46 520 -52 550 -5 30 25 145 66 255 42 110 122 324 179 475 56 151 170 275 253 275 113 0 135 73 91 294 -51 256 21 382 553 975 693 771 1532 1365 1823 1290 107 -27 243 18 304 102 68 94 391 187 834 243 398 50 819 142 935 204 123 66 378 87 606 50 258 -41 372 -27 330 40 -69 112 429 142 691 41z m3404 -146 c-86 -139 -146 -113 -146 63 0 86 46 128 102 93 56 -35 75 -105 44 -156z m-1038 -525 c-77 -77 -108 -22 -108 195 0 395 140 536 183 184 18 -149 -16 -320 -75 -379z m992 132 c0 -55 -48 -100 -106 -100 -58 0 -78 45 -44 100 34 55 82 100 106 100 24 0 44 -45 44 -100z m327 -673 c-29 -288 -93 -498 -143 -467 -49 30 -63 221 -29 423 134 811 250 841 172 44z m1976 -111 c-74 -127 -96 -71 -94 234 3 350 15 371 97 166 59 -147 58 -295 -3 -400z m-2434 9 c-25 -96 -46 -17 -46 175 0 193 21 271 46 175 25 -96 25 -254 0 -350z m1080 274 c-99 -110 -203 -179 -229 -152 -67 67 182 353 308 353 57 0 21 -90 -79 -201z m2851 1 c0 -110 -48 -200 -106 -200 -58 0 -78 -45 -44 -100 34 -55 17 -100 -38 -100 -154 0 -208 143 -146 383 72 273 334 286 334 17z m-4200 -194 c0 -107 -45 -222 -100 -256 -57 -35 -100 49 -100 194 0 141 45 256 100 256 55 0 100 -87 100 -194z m3575 69 c-47 -142 -208 -126 -258 25 -19 55 41 100 133 100 92 0 148 -56 125 -125z m-515 -548 c-33 -33 -56 26 -52 131 5 117 28 141 60 61 29 -72 26 -159 -8 -192z m2000 0 c-33 -33 -56 26 -52 131 5 117 28 141 60 61 29 -72 26 -159 -8 -192z m-4100 -200 c-33 -33 -56 26 -52 131 5 117 28 141 60 61 29 -72 26 -159 -8 -192z m-160 -83 c0 -24 -45 -44 -100 -44 -55 0 -100 48 -100 106 0 58 45 78 100 44 55 -34 100 -82 100 -106z m-9900 -316 c87 -78 -413 -428 -611 -428 -104 0 -189 -48 -189 -106 0 -58 -44 -79 -98 -45 -54 33 -178 18 -275 -33 -203 -107 -2359 -206 -2249 -103 324 304 1541 740 2272 814 335 33 1073 -30 1150 -99z m11613 -19 c376 -7 474 -47 516 -209 35 -135 105 -181 213 -139 88 34 234 1 323 -73 140 -116 183 -104 311 88 82 123 233 224 336 224 238 0 236 -44 -24 -395 -119 -161 -179 -339 -137 -407 148 -239 235 -838 146 -1003 -50 -93 -270 -197 -493 -233 -222 -35 -404 -115 -404 -176 0 -75 139 -90 425 -44 374 59 407 50 275 -79 -184 -180 -476 -226 -780 -124 -266 90 -720 -157 -720 -391 0 -190 91 -187 309 10 135 122 220 133 376 50 300 -160 448 -135 866 149 337 229 394 240 529 106 135 -135 112 -170 -215 -326 -264 -126 -351 -222 -313 -344 39 -122 -20 -188 -211 -236 -145 -37 -289 -42 -319 -12 -31 30 -3 55 61 55 268 0 90 196 -232 256 -633 119 -1066 -121 -840 -465 78 -118 115 -113 227 34 142 186 562 243 562 76 0 -103 -564 -478 -1007 -669 -331 -143 -1193 -53 -1193 125 0 174 170 273 249 145 83 -135 521 -131 605 5 108 174 -30 231 -557 231 -285 0 -497 46 -497 107 0 63 173 95 425 78 459 -32 742 88 632 266 -99 160 -463 137 -660 -42 -151 -136 -181 -136 -295 0 -105 127 -97 153 50 153 97 0 226 68 287 152 61 84 245 177 409 206 391 71 438 131 225 288 -167 122 -165 133 35 185 268 70 201 308 -99 352 -276 40 -660 -272 -514 -418 141 -141 -66 -365 -337 -365 -192 0 -213 44 -175 364 29 252 8 342 -70 294 -65 -40 -113 -4 -113 86 0 91 86 156 207 156 240 0 593 171 593 287 0 141 -679 63 -868 -100 -261 -224 -515 -296 -594 -167 -38 60 6 165 97 231 232 170 205 249 -85 249 -137 0 -250 56 -251 125 0 69 -67 253 -149 410 -185 355 -95 537 154 312 200 -182 418 -121 336 94 -35 90 59 155 287 198 186 35 425 127 531 205 120 89 362 129 642 108 248 -19 659 -38 913 -43z m2087 -609 c0 -55 -45 -100 -100 -100 -55 0 -100 45 -100 100 0 55 45 100 100 100 55 0 100 -45 100 -100z m-14335 -254 c95 -246 -17 -267 -276 -52 l-239 199 228 4 c126 2 255 -66 287 -151z m-412 -291 c273 -114 347 -202 347 -411 0 -195 -40 -250 -150 -208 -82 32 -150 14 -150 -39 0 -53 45 -97 100 -97 55 0 100 -79 100 -175 -1 -140 -46 -121 -225 91 -354 420 -822 612 -1204 496 -1460 -444 -1853 -587 -2118 -766 -286 -194 -776 -257 -915 -118 -78 79 -652 -211 -1524 -767 -1009 -645 -1587 -905 -1497 -675 18 47 298 316 622 598 465 405 639 500 826 453 177 -44 224 -24 184 80 -35 92 212 312 724 646 824 537 1328 748 1730 724 136 -9 382 58 547 148 397 216 2102 229 2603 20z m-2897 -1308 c-107 -81 -242 -146 -300 -144 -58 2 -19 69 88 150 107 81 242 146 300 144 58 -2 19 -69 -88 -150z m13513 28 c84 -112 92 -207 40 -450 -18 -82 -300 379 -305 500 -6 119 162 87 265 -50z m-15419 -476 c-67 -108 -650 -432 -650 -361 0 40 616 457 681 460 17 1 3 -43 -31 -99z m500 1 c-34 -55 -115 -99 -181 -98 -71 0 -59 40 31 98 192 124 227 124 150 0z m2647 4 c227 -144 62 -222 -232 -110 -145 55 -339 72 -431 36 -112 -43 -143 -26 -95 53 87 139 551 152 758 21z m603 -410 c0 -58 -45 -78 -100 -44 -55 34 -100 82 -100 106 0 24 45 44 100 44 55 0 100 -48 100 -106z m-4082 -360 c-313 -238 -470 -153 -217 117 167 178 258 216 310 131 42 -68 2 -176 -93 -248z m12182 256 c-117 -84 -95 -94 100 -45 663 166 943 166 1619 0 402 -98 674 -197 606 -220 -241 -80 -121 -217 250 -283 487 -87 725 -304 725 -658 0 -183 93 -366 261 -510 143 -123 300 -328 349 -455 50 -127 135 -203 190 -169 55 34 100 -31 100 -144 0 -113 -50 -206 -111 -206 -74 0 -87 -140 -41 -425 102 -628 150 -1975 71 -1974 -85 1 -319 492 -319 669 0 71 68 130 150 130 190 0 196 338 8 493 -112 93 -150 81 -184 -63 -41 -173 -46 -173 -121 0 -53 123 -22 221 99 309 134 98 160 200 106 420 -40 160 -84 392 -98 515 -36 317 -102 355 -473 273 l-328 -72 270 -233 c149 -128 271 -264 271 -303 0 -38 -79 1 -175 87 -196 175 -771 168 -951 -12 -63 -63 -172 -114 -244 -114 -71 0 -130 -36 -130 -80 0 -133 230 -320 395 -320 85 -1 275 -102 422 -225 222 -187 252 -265 174 -461 -87 -221 -132 -233 -717 -185 -590 48 -645 33 -1003 -268 -323 -271 -403 -422 -536 -1015 -86 -383 -179 -955 -208 -1272 -45 -511 -79 -583 -301 -639 -200 -50 -298 -1 -495 251 -285 365 -479 398 -635 107 -94 -176 -79 -216 98 -262 114 -30 234 -159 266 -285 50 -200 104 -223 399 -175 456 74 445 -121 -16 -273 -309 -102 -373 -95 -485 58 -77 106 -195 151 -292 114 -90 -34 -291 11 -448 101 -156 90 -362 133 -457 97 -217 -83 -116 -268 147 -268 121 0 239 -106 307 -275 317 -792 453 -871 1001 -585 260 136 267 131 332 -213 55 -297 23 -396 -210 -639 -233 -244 -354 -288 -788 -288 -496 0 -535 21 -1157 635 -354 349 -711 675 -794 725 -222 133 -699 803 -699 981 0 85 -61 325 -135 532 -286 803 -345 1027 -267 1027 122 0 176 686 62 800 -67 67 -60 100 20 100 66 0 120 64 120 142 0 78 180 334 400 570 220 236 400 468 400 514 0 47 45 58 100 24 55 -34 100 -149 100 -256 0 -107 46 -194 102 -194 56 0 77 -101 47 -225 -67 -275 248 -664 776 -961 363 -204 376 -204 548 -22 98 102 267 203 377 223 124 23 242 168 311 380 l111 343 177 -371 c140 -296 203 -348 313 -257 229 190 158 431 -237 806 -324 308 -501 382 -1297 539 -751 148 -901 207 -810 317 62 74 162 117 222 95 140 -51 660 209 660 329 0 50 146 69 325 41 179 -28 618 18 975 102 794 187 1259 610 1150 1046 -95 379 -129 386 -408 85 -137 -148 -316 -270 -396 -270 -80 0 -146 -68 -146 -150 0 -82 -45 -150 -100 -150 -258 0 -56 397 350 689 404 290 569 511 381 511 -37 0 -282 -180 -543 -400 -260 -220 -549 -400 -642 -400 -127 0 -153 -58 -108 -240 42 -166 12 -258 -97 -300 -269 -103 -395 -74 -261 60 145 145 160 317 20 230 -55 -34 -100 8 -100 94 0 86 45 156 100 156 55 0 99 79 97 175 -3 156 -20 153 -155 -25 -106 -141 -268 -200 -546 -200 -417 0 -535 132 -196 221 309 81 237 242 -75 167 -388 -93 -400 -104 -400 -396 0 -235 29 -256 288 -204 236 47 287 23 287 -135 0 -105 51 -223 114 -261 141 -88 -565 -445 -857 -434 -159 6 -131 41 123 152 305 134 317 157 167 308 -151 151 -216 146 -859 -65 -383 -126 -724 -200 -759 -166 -34 35 -10 63 54 63 65 0 117 42 117 94 0 173 -747 -18 -1005 -257 -285 -264 -455 -300 -524 -112 -36 100 -88 100 -258 -1 -171 -101 -253 -101 -416 0 -168 104 -220 100 -299 -24 -128 -202 -124 -36 6 207 119 223 -23 262 -195 53 -64 -76 -203 -313 -309 -525 l-192 -385 -4 337 c-3 254 -36 316 -134 250 -71 -48 -37 -6 75 94 113 99 372 339 576 533 203 194 412 327 463 296 51 -32 150 10 219 93 74 90 203 127 318 90 124 -39 339 40 602 223 274 190 358 294 254 314 -160 31 -311 389 -193 458 36 22 267 72 512 113 246 40 516 110 600 154 635 330 1485 506 1343 278 -48 -79 -17 -96 95 -53 108 42 166 13 166 -83 0 -81 48 -147 106 -147 58 0 78 -45 44 -101 -111 -179 259 -233 429 -63 152 152 151 164 -13 164 -98 0 -150 45 -116 100 34 55 -3 100 -82 100 -79 0 -197 64 -262 143 -134 162 69 314 694 521 469 154 1409 175 1200 26z m7800 10 c0 -55 -101 -99 -225 -98 -182 1 -196 20 -75 98 194 125 300 125 300 0z m-16617 -88 c102 -64 86 -97 -70 -138 -112 -29 -285 8 -383 83 -167 127 -162 137 70 138 138 1 310 -36 383 -83z m-1262 -214 c414 -181 1029 -576 1029 -662 0 -46 -79 -98 -175 -117 -121 -23 -157 13 -116 118 39 103 -1 149 -125 144 -261 -12 -1059 358 -1235 572 -139 167 -130 175 122 113 148 -37 373 -113 500 -168z m-811 -308 c339 -347 526 -753 444 -966 -35 -92 -205 80 -486 492 -380 559 -469 784 -309 784 26 0 184 -139 351 -310z m2594 156 c95 -116 99 -183 13 -269 -133 -133 -168 -106 -261 198 -80 258 59 298 248 71z m1896 -246 c0 -55 -45 -100 -100 -100 -55 0 -100 45 -100 100 0 55 45 100 100 100 55 0 100 -45 100 -100z m-5402 -1100 c37 -27 96 -130 132 -228 64 -171 56 -171 -179 0 -134 98 -246 231 -248 296 -5 184 -690 703 -1038 786 l-315 75 350 61 c324 56 382 23 791 -440 243 -275 471 -522 507 -550z m102 972 c338 -275 716 -886 651 -1052 -54 -136 -106 -95 -261 203 -106 205 -327 472 -491 594 -165 121 -299 257 -299 302 0 119 228 93 400 -47z m1687 -362 c76 -48 119 -141 98 -206 -26 -77 -107 -46 -228 88 -191 211 -119 276 130 118z m14774 -230 c-177 -99 -396 -17 -313 118 29 46 147 58 264 28 184 -48 190 -67 49 -146z m-1061 -30 c0 -82 -17 -150 -38 -150 -21 0 -94 68 -162 150 -102 123 -95 150 38 150 89 0 162 -68 162 -150z m-16400 -305 c0 -73 -45 -161 -100 -195 -55 -34 -101 -228 -102 -431 0 -203 -44 -436 -96 -519 -87 -137 -89 50 -13 1222 13 203 311 130 311 -77z m6750 -103 c-165 -132 -371 -217 -459 -189 -87 27 -275 -58 -418 -190 -257 -238 -261 -239 -466 -48 -403 376 -195 553 718 609 371 23 705 72 741 109 37 37 94 40 126 8 32 -32 -77 -167 -242 -299z m10143 -123 c4 -72 -38 -103 -93 -69 -55 34 -97 183 -93 331 6 240 16 248 93 69 47 -110 89 -259 93 -331z m3034 421 c125 -126 -168 -535 -456 -635 -386 -135 -371 -139 -371 97 0 122 96 239 240 294 132 51 270 139 306 198 73 118 190 137 281 46z m-16885 -353 c-79 -128 -242 -6 -242 181 0 127 28 133 149 33 82 -68 124 -164 93 -214z m4808 214 c-33 -55 -160 -152 -281 -215 -217 -114 -218 -114 -29 99 191 215 426 303 310 116z m10621 -432 c-30 -79 -182 -168 -338 -197 -156 -29 -384 -85 -508 -124 -141 -45 -225 -30 -225 40 0 62 79 112 175 112 96 1 310 110 475 243 300 242 527 202 421 -74z m-18221 -356 c-99 -661 -279 -901 -207 -274 32 269 57 575 57 681 0 114 45 164 110 124 70 -44 85 -232 40 -531z m-890 -86 c-33 -33 -56 26 -52 131 5 117 28 141 60 61 29 -72 26 -159 -8 -192z m1919 -41 c-25 -75 -71 -29 -106 106 -43 166 -30 205 44 131 58 -58 86 -165 62 -237z m4921 268 c0 -26 -89 -95 -198 -153 -161 -86 -187 -78 -139 47 52 135 337 224 337 106z m13700 -93 c0 -85 -137 -155 -350 -180 -400 -47 -454 38 -125 197 314 152 475 146 475 -17z m-19163 -619 c39 -488 -78 -917 -341 -1242 l-201 -250 66 300 c37 165 99 345 139 400 39 55 100 246 133 425 75 395 -101 440 -196 50 -84 -348 -460 -1023 -570 -1024 -95 -1 -105 -27 250 701 147 301 323 697 390 879 148 400 287 300 330 -239z m17963 410 c0 -106 -106 -144 -375 -136 -206 7 -487 -23 -625 -65 -187 -59 -223 -49 -143 38 86 93 559 226 1068 300 41 6 75 -55 75 -137z m1562 -532 c36 -193 127 -468 201 -611 75 -142 136 -310 136 -372 1 -62 69 -169 151 -237 83 -68 150 -179 150 -246 0 -173 -506 -388 -626 -268 -121 121 -9 314 182 314 79 0 144 46 144 103 0 168 -290 229 -451 96 -82 -68 -149 -99 -149 -69 0 29 -25 119 -56 199 -35 92 24 165 161 201 304 80 185 327 -140 291 -146 -16 -265 18 -265 75 0 57 116 104 258 104 372 0 250 243 -141 281 -225 23 -317 83 -317 209 0 236 33 258 390 271 274 9 313 -27 372 -341z m-10438 30 c-26 -137 -86 -250 -133 -250 -47 0 -152 -124 -232 -275 -132 -249 -907 -1125 -995 -1125 -20 0 33 210 117 468 154 466 329 704 683 927 159 101 143 108 -114 54 -165 -35 -401 -158 -525 -274 -197 -184 -225 -189 -225 -39 0 185 669 631 875 584 70 -16 205 17 301 72 262 153 301 131 248 -142z m9076 12 c0 -185 -189 -330 -545 -420 l-293 -73 344 312 c380 346 494 388 494 181z m-15700 -318 c0 -134 -45 -244 -100 -244 -55 0 -100 138 -100 306 0 178 42 280 100 244 55 -34 100 -172 100 -306z m12600 256 c0 -55 -48 -100 -106 -100 -58 0 -78 45 -44 100 34 55 82 100 106 100 24 0 44 -45 44 -100z m-7600 -255 c0 -118 -189 -118 -234 0 -37 97 -8 126 89 89 80 -30 145 -70 145 -89z m2000 55 c-196 -127 -328 -127 -250 0 34 55 138 99 231 98 146 -1 148 -14 19 -98z m-3023 -84 c92 -58 29 -169 -232 -407 -442 -402 -537 -347 -227 130 251 387 269 398 459 277z m10063 -249 c45 -186 32 -262 -36 -219 -57 35 -104 181 -104 325 0 313 48 277 140 -106z m660 233 c0 -55 -67 -100 -150 -100 -82 0 -150 45 -150 100 0 55 68 100 150 100 83 0 150 -45 150 -100z m-12492 -410 c-52 -132 -98 -187 -102 -123 -8 156 108 452 159 402 21 -22 -4 -148 -57 -279z m13509 -77 c-245 -185 -766 -176 -884 14 -40 65 14 84 143 50 114 -30 335 25 491 122 367 229 585 67 250 -186z m-11251 -457 c-27 -70 -244 -228 -482 -352 -239 -124 -466 -277 -505 -339 -52 -84 -101 -83 -187 3 -64 64 -185 90 -268 58 -100 -38 -135 -10 -104 83 27 80 185 144 364 147 351 6 1057 594 974 809 -26 67 7 140 73 163 125 43 219 -353 135 -572z m610 134 c-248 -470 -617 -890 -1003 -1146 -463 -307 -608 -258 -219 74 392 333 845 819 846 907 0 105 407 501 460 448 24 -24 -14 -151 -84 -283z m-7358 -12 c-71 -71 -118 -77 -118 -15 0 134 118 252 185 185 28 -28 -2 -105 -67 -170z m5246 122 c26 0 20 -45 -14 -100 -98 -159 -350 -116 -350 61 0 105 54 140 158 100 87 -34 180 -61 206 -61z m5036 -100 c0 -55 -87 -100 -194 -100 -107 0 -222 45 -256 100 -35 57 49 100 194 100 141 0 256 -45 256 -100z m8100 -38 c0 -166 -243 -385 -331 -298 -81 81 110 436 235 436 53 0 96 -62 96 -138z m-7550 -62 c34 -55 17 -100 -38 -100 -55 0 -128 45 -162 100 -34 55 -17 100 38 100 55 0 128 -45 162 -100z m4316 -225 c-28 -69 -50 -12 -50 125 0 138 22 194 50 125 28 -69 28 -181 0 -250z m-9810 72 c-197 -149 -356 -191 -356 -94 0 49 382 230 500 237 28 2 -37 -62 -144 -143z m12216 -308 c-97 -98 -372 158 -372 345 0 129 43 117 219 -59 121 -121 190 -250 153 -286z m-7065 257 c244 -130 248 -359 9 -488 -133 -71 -278 -51 -519 72 -545 276 -486 437 185 506 72 8 218 -33 325 -90z m3850 -39 c160 -159 190 -357 55 -357 -48 0 -107 -268 -131 -596 -27 -368 -108 -668 -212 -783 -93 -103 -169 -252 -169 -331 0 -79 -138 -312 -306 -516 -169 -205 -282 -413 -251 -462 30 -49 17 -294 -30 -544 -49 -262 -45 -702 9 -1037 81 -502 57 -717 -175 -1581 -148 -550 -305 -1090 -349 -1200 -118 -291 -91 1130 28 1500 53 165 130 773 172 1350 42 578 110 1174 150 1326 106 396 -142 274 -398 -195 -204 -375 -541 -611 -419 -295 34 90 19 164 -34 164 -147 0 -116 460 40 589 80 66 156 393 185 788 51 723 390 1579 456 1154 59 -377 1061 -375 1160 2 83 318 -87 430 -447 294 -226 -85 -371 -86 -549 -5 -313 142 -305 192 67 403 377 215 579 222 655 25 93 -244 263 -171 199 85 -89 354 54 462 294 222z m-9957 -363 c0 -52 -66 -94 -147 -94 -89 0 -124 59 -89 149 59 154 236 113 236 -55z m6600 100 c0 -58 -45 -78 -100 -44 -55 34 -100 82 -100 106 0 24 45 44 100 44 55 0 100 -48 100 -106z m5450 -596 c60 -411 38 -481 -242 -774 -169 -177 -308 -358 -308 -402 0 -81 -715 -440 -769 -386 -16 16 218 295 520 619 560 602 645 809 425 1029 -99 99 -98 140 3 203 76 47 100 157 60 271 -60 172 -51 176 89 42 86 -82 186 -353 222 -602z m2186 552 c-31 -82 -126 -150 -209 -150 -123 0 -128 28 -27 150 68 83 163 150 209 150 47 0 59 -67 27 -150z m-13896 -274 c-312 -368 -568 -581 -628 -522 -62 63 588 719 728 736 50 5 5 -91 -100 -214z m10372 -43 c-87 -150 -106 -155 -109 -25 -3 169 102 320 173 250 23 -24 -5 -125 -64 -225z m-252 -106 c-33 -33 -56 26 -52 131 5 117 28 141 60 61 29 -72 26 -159 -8 -192z m2702 -211 c-250 -250 -262 -252 -262 -51 0 116 101 279 225 362 324 217 350 2 37 -311z m1338 178 c0 -52 -96 -94 -212 -94 -177 0 -192 25 -89 149 125 150 301 118 301 -55z m-13653 2 c-35 -58 -10 -170 57 -250 97 -117 90 -146 -36 -146 -86 0 -181 41 -212 91 -75 120 39 409 161 409 52 0 66 -47 30 -104z m2013 -456 c-48 -126 -97 -143 -177 -63 -60 60 -80 188 -43 283 48 126 97 143 177 63 60 -60 80 -188 43 -283z m8640 54 c0 -107 -45 -194 -100 -194 -55 0 -100 115 -100 256 0 145 43 229 100 194 55 -34 100 -149 100 -256z m-534 -321 c-28 -68 -49 12 -47 177 3 165 25 220 50 123 26 -97 24 -232 -3 -300z m2811 309 c-54 -164 -353 -339 -436 -256 -96 95 150 374 330 374 80 0 128 -53 106 -118z m1082 -156 c-69 -70 -259 71 -259 192 0 66 57 59 152 -20 84 -70 132 -147 107 -172z m-15559 -20 c0 -118 -195 -244 -267 -173 -71 72 55 267 173 267 52 0 94 -42 94 -94z m-3159 -170 c58 -150 78 -150 240 -4 162 147 186 144 297 -35 180 -288 168 -297 -412 -297 -294 0 -755 -67 -1025 -149 -576 -175 -777 -189 -691 -51 34 55 149 100 256 100 107 0 194 45 194 100 0 55 -67 100 -150 100 -83 0 -150 39 -150 86 0 47 281 131 625 186 344 55 654 106 689 114 36 8 93 -60 127 -150z m2394 -54 c-47 -73 -139 -289 -206 -482 l-121 -350 58 350 c65 394 224 744 302 665 29 -28 14 -111 -33 -183z m12025 -55 c-33 -33 -56 26 -52 131 5 117 28 141 60 61 29 -72 26 -159 -8 -192z m-9841 105 c-72 -29 -159 -26 -192 8 -33 33 26 56 131 52 117 -5 141 -28 61 -60z m9703 -507 c74 -91 58 -125 -60 -125 -123 0 -159 90 -148 375 10 276 25 309 59 125 25 -137 92 -306 149 -375z m3708 328 c-179 -246 -430 -338 -430 -159 0 103 394 406 527 406 45 0 1 -111 -97 -247z m1250 127 c160 -160 152 -280 -18 -280 -169 0 -385 244 -294 334 95 96 176 82 312 -54z m-15769 -409 c-81 -81 -111 -70 -111 42 0 199 134 334 184 185 21 -64 -12 -166 -73 -227z m-714 54 c-2 -41 -68 -161 -147 -265 -135 -179 -149 -180 -212 -15 -40 105 -11 211 72 264 173 109 291 115 287 16z m1803 -25 c0 -55 -45 -100 -100 -100 -55 0 -100 45 -100 100 0 55 45 100 100 100 55 0 100 -45 100 -100z m13850 0 c-34 -55 -129 -100 -212 -100 -82 0 -122 45 -88 100 34 55 129 100 212 100 82 0 122 -45 88 -100z m-2190 -373 c-33 -33 -56 26 -52 131 5 117 28 141 60 61 29 -72 26 -159 -8 -192z m1040 173 c0 -55 -70 -100 -156 -100 -86 0 -128 45 -94 100 34 55 104 100 156 100 52 0 94 -45 94 -100z m-13058 -335 c-35 -90 -103 -139 -151 -109 -49 30 -33 115 35 189 153 167 199 135 116 -80z m10096 -185 l312 -30 -331 -236 c-182 -130 -360 -206 -397 -169 -36 36 0 109 81 162 127 84 123 115 -28 231 -96 74 -172 219 -168 323 6 168 18 165 113 -31 69 -143 215 -230 418 -250z m3105 12 c-117 -129 -212 -163 -277 -98 -64 64 -15 166 143 294 287 234 388 85 134 -196z m807 308 c-34 -55 -107 -100 -162 -100 -55 0 -72 45 -38 100 34 55 107 100 162 100 55 0 72 -45 38 -100z m750 33 c0 -101 -319 -433 -415 -433 -101 0 -114 337 -18 433 87 87 433 87 433 0z m-18581 -101 c-72 -29 -159 -26 -192 8 -33 33 26 56 131 52 117 -5 141 -28 61 -60z m4331 -32 c-34 -55 -82 -100 -106 -100 -24 0 -44 45 -44 100 0 55 48 100 106 100 58 0 78 -45 44 -100z m11217 -158 c36 -95 135 -139 247 -109 196 51 257 -78 86 -183 -123 -76 -133 -450 -12 -450 48 0 152 98 232 217 89 134 191 188 268 140 96 -59 86 -120 -44 -263 -92 -103 -142 -256 -109 -340 75 -198 265 -200 265 -4 0 161 175 192 462 82 142 -55 99 -102 -217 -235 -350 -147 -421 -150 -620 -20 -311 202 -953 1097 -876 1221 93 151 249 124 318 -56z m-12971 -17 c-1 -41 -72 -187 -156 -325 l-153 -250 55 250 c31 138 56 284 57 325 0 41 46 75 101 75 55 0 98 -34 96 -75z m10604 -275 c0 -82 -45 -150 -100 -150 -55 0 -100 68 -100 150 0 83 45 150 100 150 55 0 100 -67 100 -150z m4400 -3 c0 -160 -266 -315 -367 -214 -32 32 -31 128 2 213 76 200 365 200 365 1z m-18054 -254 c-86 -139 -146 -113 -146 63 0 86 46 128 102 93 56 -35 75 -105 44 -156z m15180 -468 c-42 -316 -76 -965 -76 -1442 0 -681 -27 -844 -125 -762 -156 129 -174 2300 -21 2586 201 376 299 206 222 -382z m3408 408 c103 -103 -451 -432 -728 -432 -234 -1 -230 10 94 249 345 255 514 303 634 183z m-23615 -101 c-72 -29 -159 -26 -192 8 -33 33 26 56 131 52 117 -5 141 -28 61 -60z m18419 -185 c-188 -187 -240 -350 -247 -767 -7 -444 -22 -485 -91 -254 -71 234 -23 604 144 1127 18 56 123 109 233 118 187 14 185 0 -39 -224z m-17238 66 c0 -48 -169 -115 -375 -149 -823 -136 -1134 -12 -351 140 543 105 726 108 726 9z m2214 -2 c-124 -79 -514 -40 -514 51 0 21 146 37 325 36 221 -1 281 -29 189 -87z m17439 -461 c-31 -110 -81 -492 -111 -850 -74 -879 -126 -1100 -258 -1100 -128 0 -67 2185 68 2402 116 189 373 -197 301 -452z m-16824 50 c-29 -110 -92 -200 -141 -200 -104 0 -108 32 -27 242 88 229 230 194 168 -42z m1471 100 c0 -55 -48 -100 -106 -100 -58 0 -78 45 -44 100 34 55 82 100 106 100 24 0 44 -45 44 -100z m10075 -158 c-95 -96 -286 59 -215 174 42 68 98 66 170 -6 58 -58 79 -134 45 -168z m442 -65 c-55 -55 -153 -66 -219 -26 -91 56 -88 93 12 155 170 105 338 2 207 -129z m-14767 23 c-34 -55 -191 -100 -349 -100 -159 0 -411 -47 -561 -104 -176 -67 -307 -69 -369 -7 -94 94 114 152 879 245 165 20 336 43 381 51 44 8 53 -30 19 -85z m16119 -400 c-7 -490 -93 -641 -203 -356 -71 184 36 856 136 856 41 0 71 -225 67 -500z m5297 83 c-181 -101 -230 -483 -63 -483 57 0 129 68 161 150 31 83 159 150 283 150 124 0 340 90 480 200 284 223 612 268 548 75 -23 -69 -150 -148 -283 -175 -347 -72 -867 -372 -973 -563 -82 -147 -123 -140 -400 65 -419 310 -478 508 -216 721 171 138 258 151 422 63 186 -99 190 -119 41 -203z m-1547 -458 c-22 -371 -86 -720 -143 -775 -69 -68 -82 28 -40 300 34 220 62 569 63 775 1 206 37 375 81 375 44 0 61 -304 39 -675z m407 -36 c-31 -706 -103 -904 -240 -661 -131 235 -2 1295 151 1241 69 -25 104 -249 89 -580z m-19714 354 c-242 -76 -486 -109 -544 -73 -150 93 216 216 632 213 l350 -3 -438 -137z m3488 -35 c0 -228 -137 -408 -311 -408 -104 0 -189 -46 -189 -102 0 -293 -1076 -321 -1172 -31 -63 188 273 237 518 76 249 -163 397 -71 299 185 -87 225 257 306 416 99 127 -166 140 -163 199 48 62 219 240 318 240 133z m-3100 -314 c0 -58 -45 -78 -100 -44 -55 34 -100 82 -100 106 0 24 45 44 100 44 55 0 100 -48 100 -106z m21775 -119 c-24 -69 -157 -111 -297 -94 -179 21 -316 -48 -462 -234 -115 -145 -255 -235 -312 -199 -150 92 -128 252 35 252 77 0 164 64 194 143 48 125 232 184 750 242 74 8 115 -41 92 -110z m-18600 -300 c-23 -69 -72 -114 -108 -100 -37 14 -146 26 -242 27 -150 1 -153 15 -25 98 212 137 424 123 375 -25z m16561 -25 c-31 -82 -75 -150 -97 -150 -21 0 -39 68 -39 150 0 83 44 150 97 150 53 0 71 -67 39 -150z m-17086 -250 c34 -55 -8 -100 -94 -100 -86 0 -156 45 -156 100 0 55 42 100 94 100 52 0 122 -45 156 -100z m11450 -306 c0 -245 -40 -381 -100 -344 -55 34 -100 121 -100 194 0 72 -70 189 -155 260 -123 102 -128 145 -25 211 276 174 380 86 380 -321z m6000 136 c0 -186 -32 -238 -103 -167 -57 57 -75 179 -40 270 93 242 143 205 143 -103z m-3502 -123 c257 -182 567 -1002 417 -1102 -46 -30 -117 -190 -158 -355 -40 -165 -276 -494 -525 -732 -248 -238 -425 -459 -393 -491 32 -31 154 64 271 213 117 149 237 247 266 218 29 -29 -5 -123 -76 -208 -108 -130 -64 -216 286 -560 443 -434 444 -437 314 -740 -75 -176 -87 -166 -93 82 -14 565 -568 788 -672 270 -68 -343 -272 -548 -470 -472 -324 125 -487 1783 -225 2286 83 160 102 302 47 357 -55 55 -30 262 61 522 84 236 152 529 152 651 0 121 30 251 68 288 92 92 429 -13 730 -227z m-5198 97 c0 -54 -90 -145 -200 -204 -155 -83 -200 -76 -200 30 0 75 30 167 67 203 100 101 333 80 333 -29z m-7900 -104 c0 -55 -45 -100 -100 -100 -55 0 -100 45 -100 100 0 55 45 100 100 100 55 0 100 -45 100 -100z m17100 -212 c0 -110 -45 -172 -100 -138 -55 34 -100 152 -100 262 0 110 45 172 100 138 55 -34 100 -152 100 -262z m-19616 -28 c-394 -206 -977 -759 -1248 -1185 -131 -207 -307 -699 -390 -1095 -177 -839 -308 -1056 -200 -330 41 275 70 613 65 752 -7 158 142 436 398 747 225 272 496 665 602 873 178 348 227 378 616 377 422 0 422 -1 157 -139z m10716 73 c0 -101 -319 -433 -415 -433 -47 0 -85 68 -85 150 0 83 70 150 156 150 86 0 128 45 94 100 -34 55 8 100 94 100 86 0 156 -30 156 -67z m6045 -249 c140 -64 255 -157 255 -206 0 -49 -56 -61 -125 -26 -69 34 -38 -8 68 -94 106 -86 166 -183 133 -215 -96 -96 -476 151 -476 311 0 80 -67 146 -150 146 -82 0 -150 45 -150 100 0 131 133 126 445 -16z m-14326 -52 c-72 -29 -159 -26 -192 8 -33 33 26 56 131 52 117 -5 141 -28 61 -60z m7654 -132 c8 -110 -43 -200 -113 -200 -222 0 -263 126 -83 262 95 72 175 133 177 135 2 2 10 -87 19 -197z m2715 -945 c-2 -705 -40 -1053 -120 -1084 -83 -32 -122 172 -130 692 -8 434 28 737 87 737 62 0 75 159 35 407 -40 254 -28 385 32 348 54 -33 96 -528 96 -1100z m3637 803 c14 -50 -31 -110 -100 -133 -69 -23 -125 33 -125 125 0 169 179 176 225 8z m-3127 -233 c-1 -200 -25 -237 -90 -134 -49 77 -66 201 -38 275 81 211 130 158 128 -141z m-9998 75 c0 -55 -42 -100 -94 -100 -52 0 -122 45 -156 100 -34 55 8 100 94 100 86 0 156 -45 156 -100z m-800 -100 c0 -55 -79 -99 -175 -98 -150 1 -153 15 -25 98 189 122 200 122 200 0z m14344 -190 c66 -108 -224 -234 -355 -153 -51 31 -66 99 -35 150 74 118 317 121 390 3z m-712 -450 c57 -147 -8 -260 -149 -260 -45 0 -83 90 -83 200 0 229 152 268 232 60z m912 -85 c-95 -309 -141 -342 -242 -178 -58 94 -31 184 80 269 229 174 242 167 162 -91z m-14144 -25 c0 -83 -45 -150 -100 -150 -55 0 -100 67 -100 150 0 83 45 150 100 150 55 0 100 -67 100 -150z m600 -50 c0 -55 -48 -100 -106 -100 -58 0 -78 45 -44 100 34 55 82 100 106 100 24 0 44 -45 44 -100z m300 -406 c0 -52 -45 -94 -100 -94 -55 0 -100 70 -100 156 0 86 45 128 100 94 55 -34 100 -104 100 -156z m12855 32 c134 -183 29 -526 -162 -526 -67 0 -66 63 0 188 86 160 64 187 -153 187 -140 0 -306 -84 -371 -187 -134 -215 -269 -247 -268 -63 1 100 626 552 788 571 21 2 96 -74 166 -170z m-12255 -151 c0 -41 -112 -75 -250 -75 -137 0 -250 40 -250 89 0 50 112 83 250 75 137 -8 250 -48 250 -89z m-1000 -75 c0 -126 -204 -126 -400 0 -117 76 -89 97 125 98 151 1 275 -43 275 -98z m400 -300 c0 -55 -45 -100 -100 -100 -55 0 -100 45 -100 100 0 55 45 100 100 100 55 0 100 -45 100 -100z m12700 -550 c0 -279 -146 -335 -239 -92 -96 250 -72 342 89 342 93 0 150 -94 150 -250z m-12634 -275 c-28 -69 -50 -12 -50 125 0 138 22 194 50 125 28 -69 28 -181 0 -250z m434 125 c0 -55 -45 -100 -100 -100 -55 0 -100 45 -100 100 0 55 45 100 100 100 55 0 100 -45 100 -100z m1050 0 c34 -55 17 -100 -38 -100 -55 0 -128 45 -162 100 -34 55 -17 100 38 100 55 0 128 -45 162 -100z m10350 -150 c0 -82 -67 -150 -150 -150 -82 0 -150 68 -150 150 0 83 68 150 150 150 83 0 150 -67 150 -150z m-10700 -50 c0 -55 -45 -100 -100 -100 -55 0 -100 45 -100 100 0 55 45 100 100 100 55 0 100 -45 100 -100z m11300 -200 c0 -55 -45 -100 -100 -100 -55 0 -100 45 -100 100 0 55 45 100 100 100 55 0 100 -45 100 -100z m793 -275 c-6 -240 -17 -250 -88 -75 -44 110 -60 234 -37 275 85 146 132 71 125 -200z m-493 -25 c0 -133 -67 -200 -200 -200 -227 0 -256 104 -80 280 176 176 280 147 280 -80z m-10600 -250 c0 -137 -45 -250 -100 -250 -55 0 -100 113 -100 250 0 138 45 250 100 250 55 0 100 -112 100 -250z m-964 -100 c-31 -82 -70 -150 -84 -150 -15 0 -84 68 -152 150 -104 125 -90 150 85 150 144 0 191 -46 151 -150z m2694 16 c37 -97 -17 -122 -189 -89 -133 26 -241 86 -241 135 0 141 373 101 430 -46z m777 -266 c258 0 246 -170 -17 -253 -277 -88 -399 49 -316 355 52 190 76 207 104 73 20 -96 123 -175 229 -175z m6393 -17 c0 -364 -44 -351 -138 42 -39 163 -24 275 36 275 56 0 102 -142 102 -317z m-5900 5 c0 -55 -45 -72 -100 -38 -55 34 -100 107 -100 162 0 55 45 72 100 38 55 -34 100 -107 100 -162z m1100 87 c0 -117 -146 -88 -187 38 -21 61 13 95 75 75 61 -21 112 -72 112 -113z m-5500 -175 c59 -110 66 -200 15 -200 -50 0 -115 90 -144 200 -29 110 -36 200 -15 200 20 0 85 -90 144 -200z"/>
<path d="M17460 20816 c-35 -56 -15 -132 45 -169 154 -95 253 35 125 163 -72 72 -128 74 -170 6z"/>
<path d="M16267 20633 c-37 -36 -67 -124 -67 -195 0 -71 -112 -241 -250 -379 -229 -229 -250 -234 -250 -54 0 107 -42 195 -94 195 -163 0 -219 -189 -114 -385 164 -307 -11 -341 -209 -41 -136 207 -182 232 -182 100 -1 -97 55 -266 122 -374 105 -167 91 -231 -88 -409 -408 -409 -1050 134 -847 716 88 253 77 293 -79 293 -117 0 -212 -113 -273 -325 -52 -179 -144 -325 -206 -325 -201 0 -238 -115 -171 -537 41 -251 120 -413 204 -413 164 0 170 52 33 308 -64 120 -70 257 -14 356 76 136 99 124 150 -80 46 -182 169 -270 510 -361 486 -130 1069 -66 1048 115 -8 62 -8 213 -2 337 13 251 212 315 212 68 0 -102 61 -139 175 -105 487 143 925 178 925 73 0 -61 -76 -111 -170 -111 -109 0 -136 -34 -73 -97 110 -110 566 -21 493 97 -26 43 16 130 94 195 112 93 182 79 327 -66 140 -140 296 -175 657 -146 453 36 682 217 274 217 -172 0 -195 57 -167 425 35 468 -10 675 -146 675 -49 0 -89 -204 -89 -453 0 -323 -46 -471 -160 -515 -200 -77 -357 147 -307 439 24 139 -50 304 -197 442 -256 240 -445 189 -236 -64 99 -119 103 -212 17 -402 -62 -136 -159 -247 -216 -247 -184 0 -498 627 -437 871 55 217 -53 306 -197 162z"/>
<path d="M13600 20385 c0 -47 135 -85 300 -85 165 0 300 42 300 93 0 52 -135 90 -300 85 -165 -5 -300 -47 -300 -93z"/>
<path d="M14900 20400 c0 -55 45 -100 100 -100 55 0 100 45 100 100 0 55 -45 100 -100 100 -55 0 -100 -45 -100 -100z"/>
<path d="M14600 20250 c0 -82 44 -150 97 -150 53 0 71 68 39 150 -31 83 -75 150 -97 150 -21 0 -39 -67 -39 -150z"/>
<path d="M12725 20023 c-258 -42 -296 -174 -75 -259 83 -32 150 -17 150 32 0 49 79 105 175 124 253 50 18 147 -250 103z"/>
<path d="M13042 19169 c64 -601 -56 -1069 -275 -1069 -76 0 -261 114 -411 253 -239 222 -264 301 -206 650 43 249 29 397 -35 397 -152 0 -194 -105 -258 -650 -33 -283 -122 -528 -207 -576 -83 -46 -150 -189 -150 -317 0 -273 239 -506 411 -400 86 53 70 109 -58 203 -116 85 -154 193 -109 310 65 169 75 169 166 8 73 -130 173 -156 409 -109 223 44 292 29 241 -53 -40 -64 -137 -116 -216 -116 -79 0 -144 -45 -144 -100 0 -55 42 -100 94 -100 52 0 122 45 156 100 34 55 154 100 267 100 165 0 193 -46 145 -236 -40 -161 2 -291 131 -408 181 -164 201 -162 399 36 114 114 208 298 208 408 0 212 -146 269 -251 98 -35 -56 -108 -73 -163 -39 -118 73 288 541 469 541 66 0 176 66 243 147 106 129 83 128 -177 -2 -165 -82 -355 -216 -423 -297 -67 -81 -241 -144 -385 -140 -153 4 -200 31 -113 62 453 165 863 817 611 973 -48 30 -118 211 -154 402 -112 600 -281 541 -215 -76z"/>
<path d="M18423 19581 c22 -65 93 -136 158 -158 73 -24 96 21 58 119 -69 181 -276 219 -216 39z"/>
<path d="M18200 18700 c0 -238 154 -265 239 -42 86 224 79 242 -89 242 -83 0 -150 -89 -150 -200z"/>
<path d="M16600 18538 c0 -131 -28 -139 -146 -42 -165 138 -354 60 -354 -145 0 -222 384 -284 655 -107 296 194 322 456 45 456 -118 0 -200 -67 -200 -162z"/>
<path d="M15125 18486 c-69 -69 -125 -202 -125 -295 0 -225 179 -278 575 -172 256 68 325 140 325 334 0 153 -57 247 -150 247 -83 0 -150 -89 -150 -200 0 -264 -277 -259 -318 6 -26 166 -57 182 -157 80z"/>
<path d="M14300 18400 c0 -55 20 -100 44 -100 24 0 72 45 106 100 34 55 14 100 -44 100 -58 0 -106 -45 -106 -100z"/>
<path d="M11045 17730 c25 -651 -86 -904 -313 -715 -165 137 -397 -29 -287 -206 104 -169 403 -129 685 93 157 123 280 162 319 100 89 -144 167 -126 451 107 229 187 231 195 23 93 -232 -114 -467 -54 -375 94 28 46 -14 108 -92 138 -80 30 -157 221 -175 428 -53 638 -261 522 -236 -132z"/>
<path d="M14018 18078 c-164 -164 -148 -478 25 -478 215 0 657 184 655 273 0 42 -49 145 -107 227 -83 117 -118 121 -158 21 -37 -90 -90 -98 -175 -28 -84 70 -160 65 -240 -15z"/>
<path d="M15975 17884 c-151 -55 -275 -142 -275 -192 0 -151 233 -100 500 108 273 213 202 240 -225 84z"/>
<path d="M14500 17420 c-354 -172 -488 -279 -375 -301 156 -30 1275 446 1275 543 0 107 -410 -3 -900 -242z"/>
<path d="M17800 17656 c0 -24 45 -72 100 -106 55 -34 100 -14 100 44 0 58 -45 106 -100 106 -55 0 -100 -20 -100 -44z"/>
<path d="M18500 17400 c0 -55 45 -100 100 -100 55 0 100 45 100 100 0 55 -45 100 -100 100 -55 0 -100 -45 -100 -100z"/>
<path d="M16250 17200 c52 -164 22 -195 -164 -175 -149 16 -240 -35 -264 -150 -52 -248 395 -232 626 23 147 162 157 226 54 350 -180 216 -327 188 -252 -48z"/>
<path d="M16950 17217 c-128 -129 -35 -417 135 -417 163 0 515 284 515 416 0 66 -585 66 -650 1z"/>
<path d="M17967 17233 c-37 -36 -67 -152 -67 -258 0 -158 49 -180 287 -128 234 52 297 26 341 -142 37 -144 135 -205 327 -205 150 0 330 -79 401 -175 183 -251 264 -109 118 207 -68 146 -197 267 -287 267 -89 1 -219 69 -287 151 -68 83 -206 150 -306 150 -100 0 -210 45 -244 100 -71 115 -188 129 -283 33z"/>
<path d="M12521 17029 c17 -99 -45 -187 -146 -208 -129 -26 -157 9 -109 135 45 116 23 157 -66 127 -214 -71 -323 -480 -146 -548 273 -105 746 166 746 427 0 148 -58 238 -154 238 -91 0 -143 -71 -125 -171z"/>
<path d="M15164 16949 c43 -111 -3 -144 -174 -125 -154 17 -244 -33 -268 -149 -53 -252 237 -325 530 -133 208 136 233 199 146 361 -123 230 -319 268 -234 46z"/>
<path d="M11469 16591 c-42 -158 -105 -193 -262 -143 -254 80 -294 -193 -43 -290 209 -80 94 -201 -194 -205 -279 -4 -293 -293 -16 -332 117 -17 305 79 442 225 131 140 211 254 177 254 -33 0 1 121 78 268 136 262 118 432 -45 432 -46 0 -107 -94 -137 -209z"/>
<path d="M12949 16639 c-233 -110 -248 -132 -66 -97 168 31 218 5 180 -95 -38 -98 70 -76 367 74 231 118 434 224 452 236 137 98 -699 -8 -933 -118z"/>
<path d="M16908 16507 c-188 -31 -357 -102 -375 -157 -20 -62 329 -100 917 -100 877 0 1094 49 858 195 -141 87 -1018 126 -1400 62z"/>
<path d="M10569 16219 c-65 -339 -39 -363 156 -145 128 144 133 198 26 295 -103 95 -140 64 -182 -150z"/>
<path d="M13761 16342 c-94 -245 -73 -342 74 -342 135 0 465 307 465 433 0 141 -482 59 -539 -91z"/>
<path d="M12122 16244 c-122 -85 -222 -206 -222 -269 0 -62 56 -43 125 42 69 85 215 184 325 220 143 46 107 -22 -127 -236 -179 -166 -283 -301 -230 -301 52 0 125 48 161 106 36 59 173 147 304 197 157 60 218 143 179 244 -74 195 -234 194 -515 -3z"/>
<path d="M13184 16233 c-219 -58 -316 -324 -179 -489 81 -97 59 -156 -85 -234 -218 -116 -331 -55 -256 140 88 230 -150 264 -364 50 -257 -257 -181 -400 212 -400 364 0 688 159 688 338 0 72 89 211 198 310 108 98 173 218 144 265 -56 91 -85 92 -358 20z"/>
<path d="M15325 16075 c-179 -57 -325 -141 -325 -187 0 -46 115 -39 257 14 141 54 366 98 500 98 133 0 243 45 243 100 0 122 -244 114 -675 -25z"/>
<path d="M14050 15553 c-220 -73 -310 -135 -200 -138 110 -3 335 56 500 131 381 175 220 178 -300 7z"/>
<path d="M10750 15300 c-78 -127 54 -127 250 0 129 84 127 97 -19 98 -93 1 -197 -43 -231 -98z"/>
<path d="M11226 15157 l-224 -124 246 -132 c199 -106 274 -107 399 -4 380 315 49 519 -421 260z"/>
<path d="M13175 15242 c-32 -32 -276 -122 -542 -199 l-483 -141 484 38 c449 35 772 188 651 308 -28 29 -78 26 -110 -6z"/>
<path d="M10785 14503 c-163 -137 -189 -196 -85 -196 207 -1 534 260 416 333 -52 32 -201 -29 -331 -137z"/>
<path d="M21100 18713 c-153 -44 -262 -157 -282 -292 -36 -249 157 -303 247 -69 44 115 144 137 406 87 305 -57 344 -41 313 123 -39 205 -294 261 -684 151z"/>
<path d="M23000 18150 c0 -157 174 -192 442 -89 261 100 179 239 -142 239 -200 0 -300 -50 -300 -150z"/>
<path d="M20930 18075 c-44 -69 -214 -125 -379 -125 -190 0 -309 -56 -328 -156 -24 -122 60 -152 398 -140 252 8 420 60 406 124 -13 60 66 138 175 173 109 34 198 104 198 156 0 138 -377 113 -470 -32z"/>
<path d="M21625 17629 c-195 -419 -157 -529 182 -529 255 0 296 32 247 188 -40 126 -1 211 118 257 158 62 150 85 -72 209 -332 185 -331 185 -475 -125z"/>
<path d="M22900 17498 c0 -128 478 -353 565 -267 35 35 7 133 -63 217 -142 171 -502 207 -502 50z"/>
<path d="M22700 16961 c0 -177 252 -220 350 -61 34 55 40 100 14 100 -26 0 -119 27 -206 61 -104 40 -158 5 -158 -100z"/>
<path d="M21850 15900 c-34 -55 8 -100 94 -100 86 0 156 45 156 100 0 55 -42 100 -94 100 -52 0 -122 -45 -156 -100z"/>
<path d="M5500 17078 c-192 -83 -212 -118 -87 -148 90 -22 315 26 500 107 308 134 315 147 87 149 -137 1 -362 -48 -500 -108z"/>
<path d="M16746 15193 c-36 -58 -41 -131 -10 -162 82 -82 364 46 364 166 0 136 -270 133 -354 -4z"/>
<path d="M15027 15040 c33 -34 120 -37 192 -8 80 32 56 55 -61 60 -105 4 -164 -19 -131 -52z"/>
<path d="M16974 14875 c-144 -109 -147 -149 -23 -315 113 -150 172 -165 286 -71 78 65 119 207 91 315 -60 229 -129 242 -354 71z"/>
<path d="M17464 14650 c31 -82 96 -150 144 -150 47 0 60 68 28 150 -31 82 -96 150 -144 150 -47 0 -60 -68 -28 -150z"/>
<path d="M18956 14653 c107 -81 239 -147 294 -147 55 0 13 66 -94 147 -107 81 -239 147 -294 147 -55 0 -13 -66 94 -147z"/>
<path d="M13500 14627 c-82 -31 -186 -117 -230 -192 -44 -74 -187 -135 -317 -135 -301 0 -553 -96 -553 -211 0 -49 79 -90 175 -92 167 -3 167 -8 0 -105 -96 -56 -175 -166 -175 -245 0 -216 633 109 755 387 52 118 219 274 370 346 396 189 375 399 -25 247z"/>
<path d="M17950 14600 c34 -55 107 -100 162 -100 55 0 72 45 38 100 -34 55 -107 100 -162 100 -55 0 -72 -45 -38 -100z"/>
<path d="M15867 14533 c-238 -238 91 -311 389 -86 187 141 184 147 -64 150 -142 2 -289 -27 -325 -64z"/>
<path d="M18726 14431 c93 -93 203 -136 244 -95 41 41 8 117 -73 168 -243 154 -352 108 -171 -73z"/>
<path d="M13720 14280 c-141 -141 -162 -318 -27 -234 51 31 121 12 156 -44 124 -200 351 -104 351 148 0 274 -265 345 -480 130z"/>
<path d="M17923 14281 c50 -149 277 -231 277 -100 0 54 -71 125 -158 158 -98 38 -143 15 -119 -58z"/>
<path d="M15100 14182 c-137 -58 -201 -123 -142 -146 60 -23 240 27 400 111 328 170 129 198 -258 35z"/>
<path d="M16450 14047 c-191 -157 -245 -246 -147 -247 188 0 597 277 597 406 0 150 -128 105 -450 -159z"/>
<path d="M17600 14224 c0 -99 180 -1156 255 -1499 59 -272 370 -297 831 -67 329 164 332 396 3 310 -104 -27 -189 -9 -189 40 0 49 -101 79 -225 66 -183 -20 -231 32 -258 276 -18 165 -74 343 -125 395 -50 52 -92 173 -92 269 0 96 -45 202 -100 236 -55 34 -100 22 -100 -26z"/>
<path d="M15525 14029 c-124 -23 -225 -85 -225 -136 0 -140 237 -112 456 54 197 149 169 159 -231 82z"/>
<path d="M18331 13863 c36 -93 -9 -197 -109 -253 -273 -153 -48 -258 232 -108 286 153 289 427 5 482 -137 26 -172 -6 -128 -121z"/>
<path d="M19134 13652 c152 -325 294 -371 563 -183 163 114 191 183 107 267 -83 83 -136 75 -202 -33 -77 -125 -116 -121 -279 26 -263 238 -324 213 -189 -77z"/>
<path d="M13145 13487 c-113 -55 -256 -182 -320 -283 -98 -158 -72 -202 186 -309 225 -93 329 -95 415 -9 63 63 198 114 301 114 148 0 172 47 116 225 -115 369 -320 446 -698 262z m353 -339 c-70 -84 -147 -132 -172 -107 -70 69 71 259 192 259 66 0 59 -57 -20 -152z"/>
<path d="M18500 13306 c0 -58 45 -106 100 -106 55 0 100 20 100 44 0 24 -45 72 -100 106 -55 34 -100 14 -100 -44z"/>
<path d="M18839 13242 c34 -87 61 -177 61 -200 0 -23 113 -42 250 -42 294 0 316 78 75 261 -245 186 -460 175 -386 -19z"/>
<path d="M11525 13101 c-179 -109 -325 -269 -325 -355 0 -87 42 -132 93 -100 51 31 124 7 163 -55 49 -80 94 -73 155 23 63 100 86 103 87 11 3 -219 192 -135 336 150 261 518 39 660 -509 326z"/>
<path d="M10856 12947 c-107 -81 -146 -147 -87 -147 58 0 163 68 231 150 156 188 107 187 -144 -3z"/>
<path d="M18258 3236 c-95 -249 10 -282 137 -45 62 115 70 209 19 209 -51 0 -121 -74 -156 -164z"/>
<path d="M18500 3100 c-59 -110 -71 -200 -28 -200 44 0 136 90 205 200 69 111 81 200 27 200 -53 0 -145 -90 -204 -200z"/>
<path d="M18658 2313 c-43 -69 -51 -153 -18 -186 89 -90 187 42 139 187 -34 101 -58 101 -121 -1z"/>
<path d="M1850 24025 c40 -536 71 -1762 69 -2725 -3 -962 32 -1907 77 -2100 48 -209 85 892 90 2725 8 2749 -8 3075 -151 3075 -139 0 -150 -119 -85 -975z"/>
<path d="M2800 23875 c1 -1576 115 -3378 210 -3319 44 27 65 262 47 522 -18 260 -38 1248 -45 2197 -7 1075 -50 1725 -112 1725 -61 0 -100 -441 -100 -1125z"/>
<path d="M3290 24925 c-9 -74 3 -3299 17 -4275 5 -371 29 -449 93 -300 124 290 124 4650 0 4650 -55 0 -104 -34 -110 -75z"/>
<path d="M3958 24779 c-37 -126 -105 -1331 -150 -2679 -97 -2855 -97 -2830 -2 -2728 77 83 330 5525 260 5595 -22 22 -71 -62 -108 -188z"/>
<path d="M4992 24975 c-4 -14 -22 -947 -40 -2075 -19 -1209 1 -1886 48 -1650 90 444 136 3750 53 3750 -29 0 -56 -11 -61 -25z"/>
<path d="M6602 24325 c1 -473 30 -630 98 -525 128 198 128 1200 0 1200 -57 0 -99 -291 -98 -675z"/>
<path d="M9500 24662 c0 -193 45 -378 100 -412 59 -37 100 80 100 288 0 193 -45 378 -100 412 -59 37 -100 -80 -100 -288z"/>
<path d="M12206 24775 c3 -124 40 -405 83 -625 76 -392 79 -388 119 225 31 456 8 625 -83 625 -69 0 -122 -101 -119 -225z"/>
<path d="M12875 24934 c80 -33 125 -261 125 -636 0 -323 45 -614 100 -648 63 -39 100 199 100 644 0 668 -12 706 -225 698 -124 -4 -169 -30 -100 -58z"/>
<path d="M20700 24925 c-1 -41 -15 -528 -33 -1081 -40 -1220 72 -1684 166 -690 96 1019 81 1846 -33 1846 -55 0 -100 -34 -100 -75z"/>
<path d="M8258 24712 c-30 -48 -82 -576 -117 -1175 -34 -598 -95 -1269 -135 -1492 -40 -223 -42 -492 -5 -599 61 -173 170 513 256 1604 12 165 56 626 96 1025 67 671 40 856 -95 637z"/>
<path d="M10000 24600 c0 -55 20 -100 44 -100 24 0 72 45 106 100 34 55 14 100 -44 100 -58 0 -106 -45 -106 -100z"/>
<path d="M9588 23975 c-60 -130 -42 -1360 22 -1475 51 -90 85 179 87 675 2 680 -35 958 -109 800z"/>
<path d="M10000 23906 c0 -58 45 -106 100 -106 55 0 100 20 100 44 0 24 -45 72 -100 106 -55 34 -100 14 -100 -44z"/>
<path d="M10025 23050 c0 -302 39 -550 88 -550 48 0 87 248 87 550 0 303 -39 550 -87 550 -49 0 -88 -247 -88 -550z"/>
<path d="M6619 23150 c-2 -165 19 -245 47 -177 27 68 29 203 3 300 -25 97 -47 42 -50 -123z"/>
<path d="M7676 22025 c-66 -1092 -37 -1555 99 -1600 58 -19 160 127 226 327 126 382 57 593 -113 345 -69 -101 -80 160 -35 828 40 595 29 975 -29 975 -53 0 -119 -394 -148 -875z"/>
<path d="M6615 22400 c-10 -137 -46 -362 -80 -500 -48 -192 -34 -224 58 -138 70 64 104 275 81 500 -23 219 -48 279 -59 138z"/>
<path d="M20700 22200 c0 -55 45 -100 100 -100 55 0 100 45 100 100 0 55 -45 100 -100 100 -55 0 -100 -45 -100 -100z"/>
<path d="M6500 21000 c0 -293 18 -515 41 -492 76 78 101 883 30 954 -39 39 -71 -169 -71 -462z"/>
<path d="M2902 19975 c1 -311 27 -385 98 -275 128 197 128 700 0 700 -55 0 -99 -191 -98 -425z"/>
<path d="M6392 19992 c-4 -243 -15 -618 -25 -834 -10 -242 32 -408 111 -434 101 -34 114 135 61 792 -75 939 -135 1134 -147 476z"/>
<path d="M7800 19706 c0 -470 129 -747 223 -480 71 200 -36 974 -134 974 -49 0 -89 -222 -89 -494z"/>
<path d="M10516 19800 c0 -137 22 -194 50 -125 28 69 28 181 0 250 -28 69 -50 13 -50 -125z"/>
<path d="M2087 18675 c-15 -30 -44 -234 -140 -985 -59 -466 -44 -570 91 -622 141 -54 162 46 162 785 0 705 -37 971 -113 822z"/>
<path d="M24908 5658 c-4 -105 19 -164 52 -131 34 33 37 120 8 192 -32 80 -55 56 -60 -61z"/>
<path d="M14600 4806 c0 -58 45 -106 100 -106 55 0 100 20 100 44 0 24 -45 72 -100 106 -55 34 -100 14 -100 -44z"/>
<path d="M1202 4339 c-480 -756 -969 -2739 -676 -2739 56 0 159 -78 228 -173 110 -150 135 -108 191 325 35 274 163 858 284 1298 122 440 209 886 194 990 -14 105 50 275 143 378 124 137 140 216 58 298 -82 82 -194 -19 -422 -377z m27 -641 c-63 -240 -229 -367 -229 -174 0 112 183 376 261 376 11 0 -3 -91 -32 -202z m-377 -1207 l-149 -641 51 589 c49 564 121 820 206 734 22 -22 -26 -329 -108 -682z"/>
<path d="M3756 3775 c-337 -756 -397 -1075 -204 -1075 103 0 146 -76 127 -225 -16 -124 16 -243 71 -265 55 -23 133 188 173 468 41 280 138 697 218 927 144 419 121 695 -57 695 -52 0 -200 -236 -328 -525z"/>
<path d="M11900 4223 c0 -49 -100 -85 -222 -81 -140 5 -236 -61 -259 -178 -67 -331 124 -360 401 -62 149 161 228 318 175 351 -52 32 -95 19 -95 -30z"/>
<path d="M13844 4151 c-107 -82 -441 -223 -744 -314 -594 -177 -696 -266 -698 -612 -2 -229 138 -303 245 -129 33 52 125 70 206 39 81 -31 147 -10 147 46 0 56 -53 120 -118 142 -241 80 15 353 434 462 409 107 1056 508 828 513 -58 1 -193 -65 -300 -147z"/>
<path d="M14704 3855 c-184 -190 -462 -374 -618 -408 -156 -34 -310 -106 -343 -159 -74 -119 404 -12 774 175 272 136 768 737 609 737 -48 0 -237 -155 -422 -345z"/>
<path d="M12400 4006 c0 -58 45 -106 100 -106 55 0 100 20 100 44 0 24 -45 72 -100 106 -55 34 -100 14 -100 -44z"/>
<path d="M14099 3895 c-137 -105 -342 -192 -455 -193 -203 -2 -688 -294 -494 -297 319 -6 1354 524 1242 636 -25 25 -157 -41 -293 -146z"/>
<path d="M14800 3300 c-90 -58 -102 -98 -31 -98 66 -1 147 43 181 98 77 124 42 124 -150 0z"/>
<path d="M15302 3152 c-79 -95 -86 -152 -20 -152 121 0 262 190 192 259 -25 25 -102 -23 -172 -107z"/>
<path d="M14246 3093 c-106 -171 -11 -188 198 -35 162 119 168 142 31 142 -90 0 -193 -48 -229 -107z"/>
<path d="M20925 2934 c-69 -28 -125 -113 -125 -189 0 -84 61 -115 154 -80 84 33 242 -21 350 -119 254 -229 336 -143 184 191 -114 250 -284 309 -563 197z"/>
<path d="M14603 2804 c-81 -51 -114 -127 -73 -168 41 -41 151 2 244 95 181 181 72 227 -171 73z"/>
<path d="M15500 2811 c0 -48 -157 -163 -350 -254 -193 -92 -350 -213 -350 -270 0 -117 25 -108 473 165 325 199 505 448 324 448 -53 0 -97 -40 -97 -89z"/>
<path d="M21720 2532 c0 -370 299 -957 624 -1227 148 -123 183 -123 259 0 55 89 41 220 -36 344 -229 371 -365 751 -267 751 52 0 329 -223 615 -495 669 -638 831 -547 226 127 -522 584 -602 642 -946 689 -135 19 -297 67 -360 106 -79 50 -115 -43 -115 -295z"/>
<path d="M21261 2047 c189 -288 290 -264 191 45 -36 115 -131 208 -211 208 -122 0 -119 -41 20 -253z"/>
<path d="M4375 2143 c-41 -42 -75 -446 -75 -897 0 -608 -39 -854 -150 -946 -83 -68 -150 -164 -150 -212 0 -49 67 -88 150 -88 83 0 150 45 150 100 0 55 81 100 180 100 144 0 203 139 302 714 133 777 95 980 -100 525 -122 -285 -124 -282 -178 245 -30 294 -88 501 -129 459z"/>
<path d="M3320 1613 c-303 -188 -454 -1613 -170 -1613 113 0 150 121 150 485 0 267 50 629 112 805 122 352 97 439 -92 323z"/>
<path d="M1062 1182 c-188 -286 -481 -1096 -420 -1158 91 -90 258 94 258 286 0 109 93 381 207 604 229 449 197 638 -45 268z"/>
<path d="M4946 725 c-103 -612 -102 -652 29 -698 78 -27 125 49 125 202 0 135 28 387 63 559 39 195 22 312 -46 312 -59 0 -136 -169 -171 -375z"/>
<path d="M22400 200 c0 -117 67 -200 161 -200 105 0 140 54 100 158 -34 87 -61 177 -61 200 0 23 -45 42 -100 42 -55 0 -100 -90 -100 -200z"/>
</g>
</svg>