<svg xmlns="http://www.w3.org/2000/svg" version="1.0" width="250" height="250" viewBox="0 0 250.000000 250.000000" preserveAspectRatio="xMidYMid meet">
<metadata>
Created by potrace 1.10, written by Peter Selinger 2001-2011
</metadata>
<g transform="translate(0.000000,250.000000) scale(0.010000,-0.010000)" fill="#555555" stroke="none">
<path d="M18986 24588 l-341 -413 -396 213 c-481 258 -747 267 -1061 37 -530 -390 -851 -522 -972 -401 -64 64 -116 194 -116 290 0 317 -215 314 -509 -8 -312 -342 -325 -340 -905 111 -471 365 -606 357 -1029 -67 -193 -192 -388 -350 -435 -350 -47 0 -161 159 -253 353 -234 490 -414 527 -759 158 -160 -171 -349 -311 -420 -311 -71 0 -299 -118 -507 -262 -208 -144 -446 -235 -530 -203 -141 54 -345 425 -503 915 -60 186 -84 179 -347 -116 l-284 -316 -354 241 c-195 133 -394 241 -442 241 -48 0 -366 -135 -707 -300 -340 -165 -660 -300 -710 -300 -50 0 -180 113 -288 250 -248 315 -355 314 -586 -4 -181 -248 -193 -250 -509 -93 -178 89 -323 202 -323 251 0 49 -88 136 -195 194 -158 84 -259 51 -525 -172 -320 -268 -902 -626 -1018 -626 -31 0 -128 137 -214 304 -87 168 -277 350 -423 406 -224 85 -292 67 -427 -112 l-160 -213 -330 307 c-388 363 -422 369 -656 110 -99 -109 -342 -227 -541 -263 -198 -35 -551 -182 -782 -327 l-422 -262 0 -2650 c-1 -2225 21 -2622 132 -2475 73 96 173 175 222 174 126 -1 802 -1095 877 -1418 68 -291 -132 -1184 -368 -1645 -80 -157 -179 -482 -219 -721 -49 -298 -104 -402 -175 -331 -196 196 -301 1859 -144 2291 51 141 43 225 -21 225 -182 0 -305 -723 -296 -1750 6 -814 45 -1061 208 -1331 111 -182 255 -542 320 -800 134 -523 402 -684 478 -287 26 134 14 485 -25 780 -126 946 148 2085 578 2407 97 72 306 322 465 556 158 234 303 425 320 425 18 0 152 -204 299 -454 268 -458 295 -913 103 -1746 -32 -137 -105 -475 -162 -750 -136 -653 -250 -839 -412 -677 -142 142 -160 542 -63 1377 l71 600 -159 -350 c-87 -193 -195 -611 -240 -929 -79 -562 -510 -1471 -696 -1471 -50 0 -214 -209 -364 -464 l-272 -465 -231 290 c-224 279 -232 281 -233 60 0 -126 91 -352 203 -503 134 -182 220 -492 254 -921 48 -596 40 -632 -103 -453 -85 107 -154 231 -154 275 0 45 -45 81 -100 81 -170 0 -110 -705 84 -985 102 -146 270 -505 374 -799 186 -529 186 -536 -10 -680 -109 -80 -281 -124 -382 -98 -177 46 -182 -91 -129 -3520 30 -1962 56 -3827 59 -4143 4 -541 18 -575 247 -575 147 0 260 69 288 175 44 167 46 167 57 0 7 -96 85 -175 173 -175 127 0 149 69 103 325 -143 805 -177 2867 -61 3675 138 955 143 1135 45 1520 -54 211 -16 319 176 500 148 139 271 396 311 651 36 231 178 631 315 890 264 496 314 739 151 739 -127 0 -654 -1048 -750 -1493 l-75 -343 -136 243 c-95 170 -116 421 -73 837 53 494 135 688 495 1161 437 575 864 935 977 823 33 -34 61 -159 61 -279 0 -120 71 -360 157 -533 143 -286 143 -364 1 -841 -86 -289 -292 -723 -457 -965 -166 -242 -301 -503 -301 -580 0 -77 -113 -306 -250 -509 -312 -459 -340 -868 -53 -793 179 47 191 13 138 -375 -32 -235 -16 -453 37 -486 56 -35 66 -276 24 -588 -91 -670 -56 -3171 47 -3404 43 -96 186 -175 318 -175 283 0 279 -21 84 446 -181 435 -354 1669 -250 1783 40 43 203 102 364 130 160 29 441 141 625 249 l334 196 -62 -777 c-34 -427 -80 -889 -102 -1027 -22 -137 -68 -419 -102 -625 -47 -292 -28 -375 87 -375 232 0 299 367 461 2522 134 1774 153 1818 525 1221 266 -427 285 -513 190 -835 -133 -449 -224 -2908 -108 -2908 47 0 116 226 153 502 36 276 99 522 138 547 40 24 171 -70 293 -210 184 -211 293 -249 640 -222 317 25 419 -3 419 -114 0 -94 -160 -178 -450 -234 -764 -147 -699 -269 144 -269 l785 0 -74 725 c-40 399 -81 1281 -89 1960 l-16 1234 425 32 425 33 8 -1117 c8 -1281 64 -2316 142 -2642 49 -205 112 -225 705 -225 422 0 736 55 890 156 219 144 246 142 340 -25 67 -118 135 -146 195 -81 101 110 339 1465 269 1535 -86 86 -349 -213 -349 -396 0 -203 -847 -882 -1105 -887 -85 -1 -276 54 -424 123 -219 102 -270 192 -270 483 l-1 358 575 -29 575 -30 -428 103 c-333 80 -486 191 -691 500 -196 297 -234 427 -149 512 84 84 159 72 294 -51 471 -426 1523 -647 1972 -414 151 79 287 143 302 143 97 0 111 -721 21 -1069 -183 -702 242 -1267 538 -715 87 164 86 429 -6 1102 -67 487 -124 1099 -128 1359 -4 260 -67 617 -140 792 -127 304 -119 329 157 525 159 113 317 206 352 206 34 0 55 -291 45 -647 -11 -394 31 -706 106 -797 96 -115 100 -305 17 -828 -113 -716 -140 -1073 -123 -1603 11 -317 22 -325 461 -325 260 0 450 46 450 110 0 153 394 690 507 690 51 0 93 -180 93 -400 0 -336 33 -400 205 -400 175 0 196 47 151 325 -257 1570 -292 4479 -56 4625 45 28 58 140 29 250 -44 169 -3 200 262 200 392 0 469 -176 319 -728 -141 -520 -170 -2277 -61 -3647 l81 -1025 1197 0 c987 0 1178 23 1087 134 -61 73 -288 191 -504 263 -356 117 -436 108 -857 -95 -255 -124 -487 -202 -515 -173 -86 86 -268 1475 -201 1541 34 34 164 8 288 -59 124 -66 352 -190 507 -274 264 -145 313 -138 818 118 690 348 845 290 866 -327 8 -263 21 -600 28 -748 21 -438 254 -536 277 -116 16 299 -122 2547 -185 3007 -42 308 -15 464 98 577 136 136 138 205 20 541 -180 510 -270 2021 -130 2189 58 71 102 266 98 433 -8 284 505 1111 815 1312 390 254 554 -2 761 -1189 152 -872 56 -1302 -410 -1824 -215 -242 -406 -422 -423 -400 -48 62 201 1816 287 2025 61 146 38 178 -108 150 -269 -52 -449 -756 -503 -1974 -25 -571 -64 -1068 -87 -1104 -22 -37 -2 -130 46 -207 113 -183 812 553 1155 1219 134 259 315 510 404 560 89 50 388 311 665 581 l503 490 -51 -855 c-67 -1115 -372 -1777 -1097 -2380 -287 -239 -539 -384 -560 -323 -43 131 518 1165 803 1476 110 120 182 269 161 332 -78 234 -541 -290 -983 -1113 -427 -795 -452 -821 -481 -512 -21 211 -85 325 -184 325 -133 0 -144 -167 -81 -1275 40 -701 85 -1387 101 -1525 16 -137 32 -376 37 -530 8 -276 15 -280 575 -250 377 20 583 77 614 170 35 109 -32 128 -301 84 -191 -31 -398 -25 -460 14 -62 38 -144 332 -182 652 l-68 583 300 -66 c177 -39 477 -5 733 83 239 82 470 126 515 99 134 -83 94 -404 -118 -963 -238 -626 -242 -676 -58 -676 190 0 672 1307 796 2160 33 225 124 630 203 900 78 269 193 681 255 915 118 448 207 513 394 287 81 -98 85 -215 12 -408 -57 -149 -124 -570 -150 -937 -25 -367 -141 -912 -256 -1211 -115 -299 -187 -629 -160 -734 28 -105 -37 -332 -143 -506 -106 -174 -192 -342 -193 -375 0 -32 171 -65 381 -73 378 -15 380 -13 405 401 13 229 95 757 182 1174 86 416 176 937 199 1157 86 826 101 850 535 850 287 0 398 -42 398 -150 0 -83 -43 -150 -96 -150 -124 0 -238 -476 -454 -1899 -96 -632 -196 -1206 -223 -1276 -37 -94 105 -123 563 -113 562 13 636 42 908 351 163 185 316 337 341 337 25 0 97 -157 161 -350 64 -193 178 -350 255 -350 76 0 121 56 99 125 -23 69 -65 327 -94 575 -72 605 -317 1478 -465 1656 -164 198 -258 183 -636 -106 -406 -309 -459 -311 -459 -12 0 549 130 872 408 1016 310 161 338 140 438 -329 42 -195 131 -325 224 -325 111 0 136 62 91 225 -34 124 -90 474 -124 778 -56 505 -37 582 220 887 250 297 287 313 348 146 38 -102 102 -590 143 -1083 40 -493 115 -1005 165 -1137 50 -132 135 -547 188 -923 53 -376 170 -866 259 -1088 134 -336 209 -405 437 -405 235 0 269 35 231 234 -32 166 46 325 271 550 174 174 358 316 409 316 50 0 92 -247 92 -550 0 -346 42 -550 115 -550 82 0 94 206 43 725 -39 399 -66 770 -60 825 6 55 30 370 52 700 36 531 30 557 -53 223 -186 -742 -821 -1673 -1142 -1673 -194 0 -201 282 -14 492 234 262 660 1126 602 1220 -83 133 -343 105 -344 -37 -1 -313 -222 -875 -343 -875 -74 0 -164 118 -200 262 -49 196 39 465 353 1075 406 790 658 1163 783 1163 34 0 138 -124 232 -275 l171 -275 2 463 c3 378 -33 473 -193 515 -108 28 -249 -12 -313 -88 -63 -77 -155 -140 -203 -140 -172 0 -83 243 287 780 349 507 377 602 411 1395 34 811 24 860 -223 1072 l-258 222 247 233 c210 197 246 319 238 790 l-10 558 -165 -528 c-161 -516 -568 -1058 -966 -1286 -170 -98 -181 -145 -76 -321 106 -177 92 -228 -97 -361 -487 -340 -599 -138 -276 496 110 216 200 471 200 567 0 96 112 340 250 543 137 202 250 407 250 454 0 135 -163 101 -299 -63 -180 -216 -301 -90 -301 314 0 299 86 434 570 891 313 296 594 514 625 484 30 -29 106 -287 168 -572 103 -472 113 -395 111 882 -3 1271 -14 1362 -127 992 -69 -225 -193 -540 -276 -700 -181 -348 -1192 -1269 -1432 -1304 -176 -26 -335 -211 -337 -395 -1 -59 -103 -199 -227 -312 -317 -289 -841 -889 -955 -1091 -58 -104 -159 -146 -258 -109 -175 68 -226 369 -62 369 55 0 100 46 100 102 0 238 513 898 698 898 107 0 242 87 298 193 147 275 129 410 -46 343 -196 -75 -189 10 37 450 156 305 478 1069 920 2189 138 349 675 624 1218 625 l475 0 0 892 c0 615 -39 909 -125 950 -100 46 -100 70 0 116 92 43 125 446 125 1506 0 1508 -127 2336 -359 2336 -160 0 -818 -355 -1067 -576 -96 -86 -200 -131 -231 -100 -31 31 3 104 75 163 789 645 1007 898 1272 1478 54 119 145 245 204 281 70 43 106 832 106 2299 0 1945 -20 2241 -158 2294 -274 105 -357 67 -294 -133 44 -139 -4 -227 -168 -312 -127 -65 -372 -252 -546 -417 l-315 -298 -205 462 c-112 254 -271 487 -354 519 -91 35 -420 -162 -841 -501 -380 -308 -739 -559 -797 -559 -58 0 -206 163 -329 361 -127 206 -376 426 -577 510 -194 81 -495 256 -669 388 -174 133 -340 241 -368 241 -29 0 -206 -186 -393 -412z m-16692 -583 l316 -294 -237 -375 c-131 -206 -289 -391 -353 -413 -64 -21 -230 219 -369 533 -192 436 -225 604 -139 708 177 214 440 161 782 -159z m3148 104 c95 -105 282 -218 415 -252 272 -68 287 -144 138 -682 -58 -207 -168 -375 -245 -375 -78 0 -331 180 -562 400 -231 220 -440 400 -463 400 -24 0 -126 -101 -227 -225 -184 -224 -186 -224 -335 -25 -176 236 -134 290 510 657 591 336 560 332 769 102z m3549 16 c169 -96 308 -203 308 -238 1 -34 -150 -314 -336 -622 -327 -544 -463 -618 -463 -252 0 99 -135 334 -300 522 -165 188 -300 368 -300 400 0 77 516 356 667 361 64 2 255 -75 424 -171z m10819 8 c556 -274 961 -621 1093 -939 126 -305 78 -1067 -86 -1360 -131 -234 -416 101 -423 498 -8 467 -222 1018 -394 1018 -163 0 -190 -324 -64 -750 l75 -250 -198 226 c-108 125 -217 282 -241 350 -32 92 -125 77 -359 -57 -287 -165 -320 -167 -377 -19 -87 228 33 1143 173 1311 153 184 386 176 801 -28z m-7166 -155 c207 -295 197 -570 -29 -822 -209 -232 -561 -867 -711 -1281 -164 -455 -286 -312 -271 319 11 488 -26 636 -210 831 -339 361 -275 514 352 845 716 378 683 374 869 108z m-9025 -521 c112 -224 267 -479 344 -567 121 -138 108 -232 -99 -700 -132 -297 -270 -629 -307 -737 -132 -384 -266 69 -236 797 36 871 -131 1003 -284 225 -121 -609 -394 -1275 -525 -1275 -74 0 -312 872 -312 1146 0 73 161 366 359 653 197 287 405 654 461 815 84 242 127 271 248 171 81 -67 239 -305 351 -528z m10789 529 c468 -141 541 -299 277 -603 -112 -128 -287 -345 -388 -483 -233 -314 -464 -204 -728 346 -180 374 -179 380 42 616 257 273 284 278 797 124z m3683 -61 c270 -154 309 -230 314 -625 3 -247 62 -607 129 -800 99 -280 98 -439 -5 -791 -71 -242 -129 -501 -129 -575 0 -260 189 -130 314 216 94 262 184 350 356 350 249 0 303 187 110 380 -92 92 -93 147 -2 238 65 65 132 99 148 75 16 -23 332 -370 702 -770 l672 -727 0 -723 c-1 -544 -50 -803 -199 -1048 -109 -179 -210 -325 -225 -325 -14 0 -33 326 -42 725 -18 772 -169 1327 -334 1225 -62 -38 -76 -328 -36 -756 39 -420 27 -694 -31 -694 -168 0 -624 544 -743 887 -96 274 -157 323 -354 286 -192 -37 -252 6 -304 216 -36 143 -232 621 -436 1061 -203 440 -400 887 -437 993 -60 175 -100 159 -424 -175 -197 -202 -398 -368 -446 -368 -49 0 -89 178 -89 395 0 218 -53 512 -118 654 -140 308 27 529 546 718 459 168 712 158 1063 -42z m4934 -150 c94 -179 197 -505 229 -725 62 -422 76 -393 -954 -1955 l-350 -531 -31 308 c-18 188 86 552 271 939 165 347 282 650 260 673 -179 178 -621 -635 -966 -1777 -74 -243 -190 -461 -259 -483 -192 -62 -157 851 67 1754 105 424 216 889 248 1031 52 243 969 1061 1212 1082 57 5 179 -137 273 -316z m1799 -176 c44 -247 68 -629 53 -849 l-27 -400 -650 -58 c-357 -31 -679 -31 -714 0 -130 118 303 1137 625 1470 432 445 613 404 713 -163z m-23823 -74 c-65 -494 -276 -926 -450 -924 -56 1 -176 228 -268 506 l-168 505 318 194 c531 324 641 269 568 -281z m6632 -169 c303 -175 567 -804 567 -1352 0 -388 -36 -504 -155 -504 -180 0 -540 732 -543 1106 -1 141 -59 333 -128 428 -109 149 -152 154 -312 37 -177 -130 -178 -150 -13 -469 145 -280 154 -397 59 -714 -209 -700 -454 -618 -750 251 -182 535 -182 570 -9 1032 275 735 318 765 739 510 199 -121 444 -267 545 -325z m8370 -31 c336 -887 347 -1206 61 -1725 -136 -247 -327 -596 -424 -775 -236 -433 -340 -410 -340 75 0 329 34 400 194 400 299 0 349 191 116 439 -158 168 -210 353 -210 742 0 377 -38 519 -139 519 -169 0 -261 -215 -261 -608 0 -161 -38 -292 -85 -292 -174 0 -432 390 -375 569 63 200 1042 1231 1168 1231 43 0 176 -259 295 -575z m-5843 250 c108 -124 310 -316 449 -425 140 -110 334 -322 431 -471 l178 -271 -430 -500 c-237 -274 -450 -479 -475 -455 -24 25 -52 281 -62 571 -14 377 -59 526 -160 526 -186 0 -245 -866 -94 -1375 135 -454 4 -977 -355 -1425 l-241 -300 -17 600 c-10 330 -21 713 -26 850 -4 138 -115 399 -245 582 -193 271 -224 406 -172 735 79 495 299 944 639 1308 311 333 332 334 580 50z m3085 -765 c83 -160 304 -386 492 -502 188 -116 415 -323 505 -460 89 -136 225 -248 302 -248 198 0 456 -864 419 -1400 -18 -247 -39 -569 -47 -714 -9 -145 -97 -364 -196 -486 l-180 -222 -265 686 c-146 377 -361 945 -478 1261 -124 338 -271 575 -356 575 -148 0 -125 -242 74 -782 130 -354 105 -483 -151 -781 l-236 -274 -70 471 c-54 359 -166 572 -473 894 -366 384 -397 457 -341 806 58 365 364 1070 580 1341 154 192 257 151 421 -165z m-11431 -823 c256 -727 240 -1146 -56 -1471 -133 -146 -356 -401 -497 -566 -233 -275 -255 -282 -258 -88 -2 117 62 397 142 623 225 637 5 584 -249 -61 -284 -717 -317 -754 -532 -597 -134 98 -185 318 -219 950 l-45 823 375 425 c206 234 412 441 456 460 45 20 129 155 186 300 l103 265 204 -267 c112 -147 287 -506 390 -796z m3459 513 c288 -192 525 -417 526 -500 1 -82 92 -285 201 -450 109 -165 199 -466 199 -668 1 -375 -255 -1729 -357 -1896 -88 -142 -615 480 -748 883 -66 199 -112 715 -103 1146 14 647 -10 785 -137 785 -117 0 -154 -115 -156 -475 -1 -357 -94 -645 -375 -1161 -348 -640 -610 -873 -545 -483 16 93 66 574 113 1069 46 495 119 990 162 1100 144 368 570 1059 634 1029 35 -16 298 -186 586 -379z m12514 -1361 c355 -774 427 -1029 385 -1346 -58 -433 -637 -1317 -710 -1084 -25 78 -93 294 -153 481 -60 187 -109 496 -109 687 0 298 -22 330 -150 223 -232 -192 -200 -1110 50 -1427 198 -251 261 -473 135 -473 -35 0 -274 191 -530 425 -256 234 -544 470 -638 525 -245 142 -268 1431 -32 1791 220 336 1085 1160 1213 1156 56 -2 299 -433 539 -958z m7043 278 c-48 -1063 -659 -2029 -1607 -2545 -410 -223 -519 -247 -611 -137 -85 103 -64 178 88 315 110 100 200 225 200 279 0 54 180 294 400 533 415 450 494 638 269 638 -73 0 -353 -292 -623 -650 -270 -357 -520 -650 -556 -650 -161 0 -309 323 -263 574 111 607 361 1372 459 1405 57 19 228 133 379 253 279 221 1177 458 1635 432 229 -13 248 -50 230 -447z m-13632 -64 c73 -136 307 -368 520 -516 532 -368 982 -1004 982 -1387 0 -222 -97 -405 -341 -642 -358 -347 -559 -341 -559 16 0 348 -230 876 -381 876 -107 0 -125 -79 -73 -325 165 -776 173 -1381 21 -1613 -84 -128 -167 -382 -185 -564 -38 -398 -282 -537 -282 -162 0 139 40 277 88 307 179 110 -17 991 -321 1440 -375 556 -472 1323 -228 1796 89 171 161 389 161 483 0 172 271 538 399 538 37 0 127 -111 199 -247z m-2926 -450 c470 31 498 11 627 -449 161 -574 60 -1219 -250 -1600 -286 -352 -350 -311 -414 263 -83 752 -136 922 -252 806 -104 -104 -65 -1142 74 -1945 58 -335 37 -385 -200 -493 -241 -110 -290 -93 -539 179 -151 165 -335 500 -409 743 -74 244 -197 585 -272 758 -266 612 -102 1379 403 1884 l250 250 352 -207 c193 -114 477 -199 630 -189z m-5033 -305 c243 -606 205 -1322 -106 -2035 -329 -752 -413 -858 -531 -666 -76 124 -120 117 -296 -41 -263 -238 -259 -177 32 522 364 876 397 1022 232 1022 -89 0 -169 -145 -208 -375 -35 -206 -217 -620 -404 -920 l-341 -545 -170 585 c-103 356 -150 760 -119 1035 45 403 126 521 774 1135 397 377 779 685 849 685 70 0 200 -181 288 -402z m18361 -892 c0 -107 45 -222 100 -256 55 -34 100 -150 100 -258 0 -108 117 -372 259 -588 499 -753 605 -1819 212 -2127 -122 -95 -255 -174 -296 -175 -41 -1 -75 317 -75 706 0 505 -34 697 -120 669 -205 -69 -288 -594 -235 -1502 28 -481 26 -875 -3 -875 -109 0 -817 617 -1014 884 -185 249 -196 356 -125 1135 43 472 144 965 226 1095 81 130 179 371 217 536 76 328 508 950 659 950 52 0 95 -87 95 -194z m-16900 -112 c0 -100 618 -1010 914 -1347 515 -584 614 -2747 125 -2747 -170 0 -179 120 -21 278 91 91 34 240 -245 645 -203 295 -393 716 -431 956 -89 553 -283 494 -322 -98 -24 -360 20 -514 210 -742 293 -353 503 -739 437 -805 -64 -65 -667 249 -667 348 0 42 -141 120 -312 172 -714 219 -919 2022 -337 2951 154 245 326 476 384 513 122 80 265 13 265 -124z m14526 -478 c622 -666 776 -1005 798 -1762 15 -516 -22 -703 -187 -925 -113 -154 -291 -436 -394 -629 l-188 -350 -88 550 c-49 303 -90 833 -91 1179 -2 766 -164 781 -332 31 -96 -425 -93 -616 18 -985 141 -468 184 -1025 79 -1025 -32 0 -141 101 -241 224 -99 124 -262 225 -361 225 -131 1 -239 176 -402 651 -123 358 -271 728 -330 824 -59 95 -107 265 -107 378 0 230 446 1161 582 1214 48 19 208 225 354 459 147 234 305 425 352 425 46 0 288 -218 538 -484z m-5184 -259 c111 -289 158 -656 138 -1073 l-30 -634 -340 27 c-210 17 -410 -36 -525 -141 -283 -256 -310 -117 -78 407 115 260 185 499 154 530 -106 105 -339 -180 -553 -677 -166 -386 -190 -542 -107 -698 109 -204 40 -861 -100 -947 -42 -26 -285 175 -539 446 -426 456 -462 534 -462 1013 0 566 70 654 1513 1905 603 522 674 510 929 -158z m-3773 -384 c412 -611 419 -637 389 -1373 l-30 -750 -489 -327 c-473 -316 -490 -320 -523 -112 -18 118 16 409 75 646 144 571 139 870 -14 819 -174 -58 -378 -806 -444 -1626 -55 -686 -180 -1027 -272 -742 -25 78 -121 381 -214 674 -92 293 -228 555 -302 584 -89 34 -129 219 -122 561 12 495 143 782 940 2048 252 400 545 282 1006 -402z m6325 -438 c245 -311 430 -863 388 -1154 -18 -122 -234 -376 -482 -565 l-450 -343 -30 612 c-24 499 -68 634 -235 723 -278 149 -442 -14 -294 -291 60 -112 109 -433 109 -712 0 -496 -190 -1305 -307 -1305 -32 0 -205 304 -383 675 -179 371 -358 738 -397 815 -121 235 83 1534 307 1960 359 683 341 678 987 237 326 -222 679 -515 787 -652z m-10109 425 c326 -737 359 -1030 127 -1153 -226 -121 -269 -74 -293 321 -10 153 -88 414 -173 580 -153 295 -120 692 56 692 49 0 176 -198 283 -440z m18152 -778 c256 -551 282 -698 243 -1379 -49 -841 -231 -1256 -706 -1607 -160 -117 -305 -198 -325 -179 -52 53 300 1051 424 1202 59 72 123 288 142 479 27 270 -5 357 -140 383 -136 26 -175 -35 -175 -277 0 -344 -245 -1006 -370 -1000 -44 3 -176 156 -294 340 -230 362 -222 468 142 1736 132 460 490 923 710 919 34 -1 191 -278 349 -617z m-21306 -282 c33 -275 134 -658 226 -851 134 -282 142 -380 42 -500 -216 -260 -348 -162 -372 277 -13 233 -75 522 -138 641 -120 228 -43 933 102 933 44 0 108 -225 140 -500z m19732 147 c-70 -182 -263 -194 -263 -17 0 182 237 409 283 270 20 -58 11 -173 -20 -253z m-15633 -674 c-44 -70 -201 -306 -348 -525 -156 -231 -319 -671 -388 -1048 -176 -961 -176 -961 -344 -740 -243 321 -184 933 202 2124 57 176 132 223 306 190 126 -24 288 -6 361 40 195 124 302 103 211 -41z m703 -868 c310 -573 394 -858 478 -1612 96 -856 89 -930 -97 -1129 -111 -118 -295 -435 -411 -705 -147 -344 -242 -460 -315 -387 -73 73 -56 200 57 419 201 389 185 2116 -20 2184 -94 31 -125 -176 -125 -822 0 -1016 -157 -1753 -373 -1753 -106 0 -132 67 -90 234 32 129 -30 488 -139 798 -226 643 -264 1762 -81 2406 116 410 526 1062 667 1062 41 0 243 -313 449 -695z m5754 520 c116 -96 395 -557 622 -1024 371 -765 407 -908 369 -1439 -36 -502 -83 -618 -318 -789 -152 -111 -316 -307 -365 -437 -56 -146 -171 -236 -303 -236 -183 0 -204 39 -145 275 38 151 140 355 228 452 123 136 155 366 139 998 -20 832 -98 1058 -318 922 -88 -54 -104 -272 -58 -770 67 -712 -62 -1477 -247 -1477 -56 0 -201 214 -322 475 -308 669 -307 2066 4 2750 232 511 385 575 714 300z m3609 -636 c218 -598 219 -621 46 -1073 -212 -555 -1202 -2116 -1343 -2116 -168 0 -111 196 184 632 351 519 641 1242 526 1313 -126 78 -227 -75 -884 -1345 -584 -1128 -599 -1146 -760 -931 -173 229 -218 439 -90 419 237 -37 275 78 275 837 0 1076 334 1829 979 2207 232 136 507 342 612 458 104 115 199 210 211 210 12 0 121 -275 244 -611z m-6316 -497 c38 -1086 -133 -2119 -390 -2351 -268 -243 -406 -79 -467 553 -52 548 -121 591 -583 363 -159 -79 -411 -173 -560 -210 l-269 -66 274 651 c183 434 429 794 738 1084 656 614 1011 881 1127 847 55 -16 113 -408 130 -871z m9473 5 l597 -603 0 -994 c0 -880 -24 -1019 -212 -1207 l-212 -212 -66 435 c-79 523 -197 735 -355 637 -80 -49 -96 -242 -49 -613 76 -612 0 -666 -376 -265 -275 294 -480 1171 -480 2056 0 420 345 1369 498 1369 32 0 327 -271 655 -603z m-8735 253 c164 -137 361 -250 440 -250 111 0 142 -175 142 -802 0 -778 -8 -806 -267 -905 -522 -198 -688 117 -377 719 209 404 135 577 -127 296 -195 -209 -213 -212 -258 -42 -27 101 -35 319 -18 484 17 165 34 401 39 525 10 285 61 282 426 -25z m10758 51 c179 -110 418 -346 531 -525 178 -282 197 -426 143 -1071 -62 -740 -385 -1705 -572 -1705 -60 0 -67 197 -16 525 132 859 110 1325 -62 1325 -115 0 -154 -140 -165 -600 -17 -662 -141 -1169 -299 -1221 -225 -75 -362 743 -317 1887 40 1028 167 1585 360 1584 39 -1 218 -90 397 -199z m-18698 -157 c252 -176 269 -313 107 -853 -92 -307 -146 -365 -276 -296 -103 55 -254 36 -411 -50 -415 -230 -523 -187 -445 180 38 179 154 418 258 531 104 114 189 251 189 305 0 107 204 339 298 339 32 0 158 -70 280 -156z m1300 -373 c437 -229 569 -367 772 -799 134 -287 364 -738 510 -1001 256 -462 255 -800 -1 -450 -113 154 -147 156 -339 22 -202 -142 -223 -129 -416 250 -112 219 -204 468 -204 553 0 85 -67 154 -150 154 -212 0 -185 -331 92 -1144 222 -654 227 -714 79 -1025 -188 -393 -321 -427 -321 -81 0 152 -57 250 -146 250 -207 0 -615 756 -744 1380 -139 671 -140 1197 -1 1630 60 187 127 400 150 473 23 74 75 118 116 100 41 -19 312 -159 603 -312z m13210 -616 c249 -518 -189 -1788 -581 -1686 -128 34 -228 -38 -330 -235 -399 -772 -531 -938 -727 -911 -152 20 -207 115 -231 398 -26 312 86 565 697 1578 771 1279 919 1386 1172 856z m612 -444 c0 -775 285 -1503 766 -1958 416 -394 418 -399 255 -675 -165 -280 -321 -365 -321 -176 0 56 -170 293 -378 525 -208 233 -427 536 -487 673 -320 728 -323 756 -119 1210 108 242 178 541 154 665 -23 124 -4 225 44 225 47 0 86 -220 86 -489z m5661 331 c-34 -87 -61 -307 -61 -488 0 -283 -41 -337 -288 -387 -159 -31 -410 -88 -558 -125 -250 -63 -267 -47 -237 216 23 196 167 385 466 613 468 356 779 434 678 171z m-20962 -788 c51 -135 122 -467 158 -737 69 -517 -7 -708 -538 -1361 -131 -162 -287 -410 -347 -550 -94 -223 -118 -146 -184 581 -42 460 -118 955 -168 1100 -129 372 101 848 530 1093 307 175 446 143 549 -126z m6299 -945 c264 -833 228 -1144 -253 -2160 -254 -538 -1308 -1719 -1427 -1600 -37 36 6 107 95 156 88 50 239 210 335 355 190 291 566 1737 485 1868 -97 156 -333 -154 -333 -437 0 -393 -417 -1290 -736 -1583 -145 -134 -264 -299 -264 -369 0 -69 -90 -154 -200 -189 -127 -40 -200 -151 -200 -303 0 -135 -85 -285 -193 -343 -300 -161 -327 -124 -88 115 130 130 173 234 106 256 -76 25 -51 182 80 487 278 648 457 1363 598 2388 133 963 274 1298 589 1398 109 34 226 151 260 258 66 209 760 624 854 511 31 -37 162 -400 292 -808z m2462 451 c89 -233 -144 -914 -489 -1426 -284 -420 -366 -480 -623 -451 -390 42 -404 67 -213 359 244 372 14 422 -336 72 -164 -164 -299 -370 -299 -456 0 -87 -45 -158 -100 -158 -125 0 -123 23 43 720 167 696 481 1160 839 1239 147 32 381 96 518 142 381 127 601 113 660 -41z m-10390 -347 c250 -438 500 -1920 395 -2340 -38 -150 -125 -273 -195 -273 -69 0 -212 -101 -319 -225 l-193 -225 -97 336 c-67 233 -59 476 25 789 66 248 98 475 70 502 -101 102 -284 -545 -346 -1227 -63 -692 -145 -950 -303 -950 -162 0 -407 1184 -407 1971 0 799 4 813 450 1418 247 336 506 611 575 610 69 0 224 -174 345 -386z m11126 -309 c295 -371 305 -412 173 -675 -78 -153 -171 -403 -207 -554 -84 -350 -313 -353 -482 -7 -181 372 -360 398 -440 64 -37 -155 -136 -361 -219 -458 -184 -211 -103 -330 135 -197 203 114 846 -54 840 -219 -1 -59 -67 -220 -146 -358 -190 -333 -187 -769 6 -878 113 -63 137 -164 88 -361 -66 -262 -79 -249 -290 268 -121 298 -312 673 -424 832 -112 159 -277 433 -367 609 -159 311 -155 332 120 750 155 237 392 688 525 1003 133 316 272 574 309 575 36 1 207 -176 379 -394z m1540 -384 c304 -438 333 -862 123 -1758 -125 -531 -269 -756 -486 -760 -79 -2 -22 352 127 798 192 574 208 800 55 800 -148 0 -367 -621 -500 -1419 -61 -366 -326 -572 -554 -432 -148 92 -123 1363 36 1814 152 431 732 1337 856 1337 44 0 198 -171 343 -380z m-8032 -133 c602 -507 849 -1076 767 -1763 -59 -487 -451 -1624 -560 -1624 -97 1 -390 809 -463 1275 -86 559 -248 546 -248 -20 0 -507 -170 -955 -362 -955 -491 0 -347 2735 160 3049 56 35 102 150 102 257 0 268 46 251 604 -219z m14935 72 c89 -188 190 -673 224 -1078 56 -662 37 -787 -192 -1234 -535 -1043 -770 -1135 -528 -208 139 535 126 861 -35 861 -39 0 -130 -293 -201 -651 -136 -686 -284 -908 -375 -561 -42 162 -92 187 -230 113 -262 -140 -314 -14 -136 330 118 227 143 458 97 892 -54 516 -30 633 198 994 280 444 722 875 903 880 62 2 186 -151 275 -338z m-3139 28 c0 -62 162 -292 360 -511 424 -470 595 -845 693 -1526 40 -275 111 -574 158 -664 55 -107 37 -204 -49 -276 -106 -88 -168 -22 -298 318 -90 236 -164 503 -164 594 0 215 -188 330 -321 197 -151 -151 210 -1218 505 -1491 150 -140 220 -290 185 -401 -205 -651 -370 -964 -586 -1110 -135 -92 -418 -358 -626 -592 -209 -234 -420 -425 -469 -425 -48 0 -88 240 -88 533 0 666 -189 1653 -366 1914 -74 109 -134 322 -134 475 0 153 -34 278 -75 278 -101 1 -96 1718 6 1875 161 249 369 136 368 -200 0 -179 53 -673 117 -1098 109 -716 104 -789 -73 -985 -189 -209 -188 -213 44 -402 129 -104 311 -190 403 -190 93 0 343 -190 556 -421 374 -408 390 -415 484 -204 73 162 55 277 -67 447 -90 125 -313 435 -495 687 -269 373 -355 623 -460 1328 -114 765 -87 1653 58 1888 72 117 334 88 334 -38z m-14061 -245 c102 -265 75 -305 -330 -488 -579 -261 -695 -159 -313 276 349 398 547 463 643 212z m17961 8 c0 -82 -44 -150 -97 -150 -53 0 -71 68 -39 150 31 83 75 150 97 150 21 0 39 -67 39 -150z m-6170 -297 c31 -191 172 -577 313 -858 375 -745 321 -1446 -165 -2158 -198 -290 -590 -598 -428 -337 115 186 350 1211 350 1525 0 477 -168 213 -290 -456 -103 -568 -424 -1169 -624 -1169 -55 0 -71 89 -37 197 35 109 12 548 -50 975 -111 757 -105 800 196 1617 171 461 334 877 363 925 124 199 320 62 372 -261z m-11383 -548 c235 -455 189 -909 -147 -1439 -165 -260 -300 -530 -300 -600 0 -181 -271 -529 -350 -450 -36 37 11 184 105 327 136 208 141 249 24 204 -161 -61 -530 -724 -512 -921 6 -68 -29 -99 -77 -70 -49 30 -203 -60 -344 -201 -140 -140 -298 -255 -351 -255 -145 0 -113 272 39 330 73 28 256 303 407 611 151 307 309 559 353 559 143 0 606 756 606 989 0 342 -231 204 -373 -223 -67 -202 -281 -527 -475 -720 -194 -194 -352 -396 -352 -449 0 -53 -39 -97 -86 -97 -158 0 -311 1054 -207 1429 116 421 204 497 821 702 262 87 595 251 738 364 144 113 276 205 295 205 19 0 103 -133 186 -295z m5911 -529 c83 -83 -243 -676 -372 -676 -63 0 -89 107 -62 250 27 138 10 250 -38 250 -47 0 -86 -63 -86 -139 0 -77 -67 -166 -150 -197 -82 -32 -150 -142 -150 -245 0 -103 -114 -239 -253 -302 -281 -128 -477 -513 -337 -662 145 -153 103 -538 -67 -633 -87 -49 -212 -197 -278 -330 -181 -362 -311 -293 -346 183 -17 234 -57 425 -89 425 -33 0 -276 -202 -540 -450 -449 -420 -964 -614 -863 -325 24 69 120 111 213 95 93 -17 293 95 443 250 151 154 497 475 770 713 450 392 655 621 1439 1598 224 280 588 372 766 195z m697 -253 c251 -175 657 -830 794 -1283 173 -568 203 -1740 46 -1740 -126 0 -395 611 -395 897 0 114 -66 203 -150 203 -221 0 -192 -619 55 -1161 314 -689 168 -1861 -156 -1255 -553 1037 -749 1541 -804 2068 -34 329 -101 722 -148 874 -98 310 98 992 371 1294 180 198 232 212 387 103z m-6255 -1003 c0 -154 -41 -323 -91 -375 -140 -147 -306 -845 -201 -845 51 0 92 42 92 93 0 52 47 217 104 368 98 256 115 263 272 105 158 -157 155 -195 -54 -592 -130 -248 -240 -673 -265 -1024 -24 -330 -47 -635 -50 -678 -4 -43 -138 19 -299 138 -197 145 -370 196 -533 155 l-240 -60 87 652 c64 480 210 877 551 1498 254 465 500 845 545 845 45 0 82 -126 82 -280z m4961 5 c141 -186 198 -1626 64 -1624 -41 0 -177 150 -301 332 -169 249 -210 412 -162 650 50 252 30 317 -99 317 -217 0 -208 264 12 392 248 144 335 132 486 -67z m4710 -325 c310 -615 71 -1578 -555 -2233 -350 -367 -1088 -829 -1178 -738 -97 96 190 623 523 961 449 456 892 1297 756 1433 -147 147 -274 29 -520 -479 -121 -250 -417 -686 -658 -968 -242 -283 -439 -613 -439 -734 0 -247 -280 -411 -357 -210 -71 185 517 1932 770 2286 293 412 1095 987 1334 957 109 -14 255 -137 324 -275z m8108 -556 c33 -800 -179 -1757 -479 -2165 -110 -149 -202 -351 -204 -450 -6 -249 -526 -1256 -674 -1305 -193 -64 -145 388 66 620 103 113 266 565 362 1004 95 439 196 855 223 925 26 70 0 127 -60 127 -167 0 -382 -496 -458 -1055 -168 -1241 -420 -741 -307 611 65 781 101 887 445 1322 205 259 449 534 540 609 92 76 167 225 167 333 0 131 57 184 175 161 143 -27 180 -160 204 -737z m-16564 181 c60 -151 104 -567 96 -925 -11 -516 -84 -794 -353 -1350 -263 -543 -355 -660 -411 -520 -42 104 13 409 129 726 227 615 117 845 -144 299 -206 -433 -289 -446 -366 -59 -63 314 146 1037 375 1299 74 85 209 301 300 480 90 179 187 325 214 325 27 0 99 -124 160 -275z m14164 -515 c305 -197 415 -731 467 -2253 29 -862 82 -1689 118 -1837 64 -262 60 -265 -132 -95 -109 96 -266 175 -349 175 -271 0 -610 541 -1035 1650 -142 372 -38 1768 175 2347 300 815 385 885 537 443 70 -204 168 -397 219 -430z m-20229 -210 c-34 -55 -82 -100 -106 -100 -24 0 -44 45 -44 100 0 55 48 100 106 100 58 0 78 -45 44 -100z m15207 -277 c-172 -165 -175 -163 -61 61 66 128 148 206 181 172 34 -33 -20 -138 -120 -233z m-7157 -587 c0 -567 -45 -738 -312 -1175 -398 -652 -946 -1161 -1251 -1161 -195 0 -237 51 -237 290 0 209 103 380 375 617 409 358 725 813 725 1045 0 251 -172 164 -365 -186 -102 -183 -402 -529 -667 -769 l-481 -435 65 294 c148 662 266 924 532 1179 343 328 1320 959 1491 962 88 2 125 -195 125 -661z m1622 225 c535 -124 926 -766 1032 -1692 l60 -519 -360 550 c-198 303 -415 550 -482 550 -204 0 -103 -523 172 -883 279 -366 327 -619 131 -693 -225 -86 -535 99 -945 566 -381 433 -406 501 -454 1234 -28 427 -12 879 35 1004 79 209 105 216 313 87 124 -78 349 -170 498 -204z m-6370 -236 c-99 -659 -265 -1019 -674 -1453 -229 -242 -441 -372 -609 -372 -141 0 -285 -45 -319 -100 -34 -55 -108 -100 -165 -100 -57 0 37 259 209 575 l313 575 -303 -346 c-167 -191 -304 -382 -304 -425 0 -44 -51 -79 -113 -79 -252 0 -9 812 380 1270 392 462 1131 930 1468 930 167 0 180 -52 117 -475z m20929 -369 c25 -382 -41 -630 -331 -1240 -427 -900 -597 -1080 -1000 -1063 -332 15 -445 283 -262 625 78 145 56 225 -94 354 -241 206 -249 518 -19 725 431 385 1484 1122 1575 1101 55 -13 114 -239 131 -502z m-24081 -18 c0 -141 -44 -223 -100 -188 -55 34 -100 174 -100 312 0 141 44 223 100 188 55 -34 100 -174 100 -312z m14800 -529 c0 -543 -188 -530 -497 36 -237 432 -238 450 -60 647 l183 202 187 -238 c113 -144 187 -398 187 -647z m-14749 -891 c-103 -409 -248 -63 -245 582 l4 550 153 -437 c86 -246 124 -550 88 -695z m4185 657 c136 -179 365 -593 509 -922 145 -328 327 -666 404 -752 202 -223 36 -444 -276 -366 -228 57 -319 200 -515 801 -47 146 -91 161 -198 72 -118 -97 -118 -184 1 -578 77 -255 117 -486 89 -514 -129 -128 -564 474 -752 1041 -192 576 -203 1162 -29 1468 111 194 536 56 767 -250z m4075 -107 c78 -293 77 -295 -153 -207 -184 70 -222 577 -38 516 65 -22 151 -161 191 -309z m5914 -307 c458 -548 824 -1288 743 -1500 -46 -121 -199 -161 -616 -161 -487 0 -599 40 -911 326 -313 287 -362 399 -410 929 -51 562 -39 612 182 718 429 206 631 144 1012 -312z m-3065 -134 c-101 -102 -185 51 -102 186 63 102 87 102 121 1 23 -70 15 -154 -19 -187z m7838 -77 c1 -55 -92 -252 -205 -438 -311 -511 -450 -261 -191 343 161 375 231 454 302 342 51 -81 93 -192 94 -247z m-15982 -774 c-59 -59 -171 -54 -299 15 -112 60 -319 109 -460 109 -351 0 -329 246 36 397 161 67 375 212 475 323 179 198 183 194 262 -275 47 -280 41 -514 -14 -569z m5255 699 c420 -459 829 -1464 829 -2035 0 -297 -45 -540 -100 -540 -55 0 -100 236 -100 525 -1 675 -380 1302 -1088 1796 -149 104 -216 225 -178 323 86 225 398 192 637 -69z m-8268 -1010 c-122 -125 -229 297 -142 560 68 204 82 193 150 -125 42 -192 38 -388 -8 -435z m11397 239 c0 -285 -53 -425 -187 -497 -135 -72 -205 -262 -253 -689 -37 -324 -131 -674 -210 -778 -144 -190 -156 -177 -199 226 -12 119 -54 450 -92 737 -55 417 -35 557 102 709 93 103 230 188 303 188 73 0 160 113 195 250 103 411 341 309 341 -146z m-9701 -6 c-146 -272 -41 -427 200 -298 260 139 529 125 753 -39 184 -135 181 -153 -102 -560 -160 -232 -404 -465 -542 -517 -303 -115 -784 -20 -638 126 55 55 79 316 54 580 -46 476 89 910 283 910 64 0 61 -73 -8 -202z m6327 -297 c513 -599 761 -1635 423 -1765 -188 -72 -1140 229 -1368 433 -175 157 -342 703 -245 801 31 30 196 -63 367 -208 598 -502 880 -257 350 305 -374 397 -387 427 -292 675 104 271 409 175 765 -241z m4823 3 c170 -537 1074 -923 1707 -728 317 97 336 89 396 -185 79 -360 3 -487 -253 -420 -199 52 -499 -117 -499 -282 0 -48 96 -76 214 -63 380 42 299 -173 -159 -423 -437 -239 -453 -240 -776 -69 -972 519 -879 369 -879 1421 0 884 105 1201 249 749z m10297 -542 c-388 -706 -537 -815 -561 -412 -8 138 -19 291 -25 341 -10 91 863 811 920 760 16 -15 -134 -325 -334 -689z m-4746 554 c0 -46 -60 -284 -134 -529 -73 -244 -103 -532 -65 -639 97 -277 4 -548 -188 -549 -89 0 -298 -90 -463 -199 -346 -229 -658 -253 -976 -75 -123 69 -237 131 -253 138 -17 7 -51 129 -77 273 -44 244 -28 256 267 197 292 -59 365 -9 1027 700 678 726 862 872 862 683z m-13300 -816 c0 -55 -90 -100 -200 -100 -110 0 -200 45 -200 100 0 55 90 100 200 100 110 0 200 -45 200 -100z m-419 -450 c396 -191 511 -296 488 -447 -47 -307 -150 -351 -366 -155 -181 163 -204 165 -262 16 -101 -265 33 -464 357 -529 514 -102 335 -570 -199 -517 -408 40 -693 395 -769 960 -58 437 22 922 153 922 44 0 313 -112 598 -250z m6712 -1062 c5 -279 -86 -479 -402 -875 -225 -283 -449 -489 -498 -458 -50 30 -82 327 -73 660 14 534 45 619 256 715 131 60 310 246 397 414 145 281 163 289 235 105 43 -109 81 -362 85 -561z m10040 -51 c75 -462 -137 -847 -653 -1189 -505 -334 -702 -326 -662 27 21 177 91 275 198 275 172 0 584 451 584 641 0 202 -204 111 -296 -131 -97 -254 -281 -416 -371 -327 -29 30 -23 232 14 449 51 303 106 386 235 355 92 -23 300 47 462 155 359 241 413 212 489 -255z m-21464 -812 c-25 -96 -46 -18 -46 175 0 193 21 271 46 175 25 -96 25 -254 0 -350z"/>
<path d="M6274 10840 c-91 -90 34 -347 136 -284 50 31 90 121 90 200 0 147 -119 192 -226 84z"/>
<path d="M20380 6525 c-52 -968 143 -1625 482 -1625 178 0 174 90 -24 563 -89 213 -157 623 -151 912 9 404 -22 525 -137 525 -103 0 -156 -118 -170 -375z"/>
<path d="M2767 6533 c-37 -36 -67 -113 -67 -170 0 -62 47 -56 118 15 65 65 95 142 67 170 -28 29 -82 22 -118 -15z"/>
<path d="M14343 4489 c-83 -134 437 -580 682 -585 250 -6 216 167 -90 451 -286 265 -483 310 -592 134z"/>
<path d="M2315 3599 c-122 -165 -186 -298 -143 -296 100 4 461 497 406 553 -23 23 -142 -93 -263 -257z"/>
<path d="M13500 3009 c0 -174 436 -409 760 -409 344 0 673 263 426 341 -347 110 -1186 158 -1186 68z"/>
<path d="M23785 11231 c-129 -203 -278 -447 -331 -543 -53 -96 -255 -259 -449 -361 -327 -172 -545 -527 -324 -527 190 0 1219 929 1219 1100 0 97 68 232 150 300 164 136 204 400 60 400 -50 0 -196 -166 -325 -369z"/>
<path d="M0 8950 c0 -82 44 -150 97 -150 53 0 71 68 39 150 -31 83 -75 150 -97 150 -21 0 -39 -67 -39 -150z"/>
<path d="M1160 3787 c-79 -382 -18 -1637 80 -1637 84 0 92 1752 8 1835 -21 21 -61 -68 -88 -198z"/>
</g>
</svg>