<svg xmlns="http://www.w3.org/2000/svg" version="1.0" width="250" height="250" viewBox="0 0 250.000000 250.000000" preserveAspectRatio="xMidYMid meet">
<metadata>
Created by potrace 1.10, written by Peter Selinger 2001-2011
</metadata>
<g transform="translate(0.000000,250.000000) scale(0.010000,-0.010000)" fill="#555555" stroke="none">
<path d="M50 24900 c-34 -55 8 -100 94 -100 86 0 156 45 156 100 0 55 -42 100 -94 100 -52 0 -122 -45 -156 -100z"/>
<path d="M475 24934 c69 -28 181 -28 250 0 69 28 13 50 -125 50 -137 0 -194 -22 -125 -50z"/>
<path d="M6900 24900 c127 -82 122 -97 -31 -98 -264 -3 -119 -167 204 -232 152 -31 356 -86 452 -124 102 -39 175 -21 175 43 0 61 -88 111 -196 111 -109 0 -245 90 -304 200 -59 110 -184 199 -279 198 -147 -1 -150 -15 -21 -98z"/>
<path d="M8050 24900 c34 -55 147 -100 252 -100 105 0 530 -108 944 -239 748 -238 924 -259 569 -69 -166 89 -1626 508 -1769 508 -32 0 -30 -45 4 -100z"/>
<path d="M9500 24927 c0 -103 1000 -561 1070 -490 26 25 -171 149 -437 275 -266 125 -517 245 -558 266 -41 21 -75 -2 -75 -51z"/>
<path d="M12373 24888 c68 -69 149 -99 180 -69 30 31 -25 87 -124 125 -142 54 -154 42 -56 -56z"/>
<path d="M13800 24700 c117 -165 259 -300 314 -300 117 0 -323 586 -446 594 -45 4 15 -129 132 -294z"/>
<path d="M14400 24913 c0 -35 203 -321 450 -636 248 -315 450 -619 450 -675 0 -56 45 -102 100 -102 55 0 100 68 100 150 0 83 68 150 150 150 83 0 150 89 150 200 0 165 -67 200 -383 200 -306 0 -410 50 -517 250 -73 137 -101 282 -61 322 40 40 362 60 717 44 421 -19 644 9 644 82 0 73 -300 105 -900 94 -495 -9 -900 -45 -900 -79z"/>
<path d="M16400 24900 c0 -55 90 -100 200 -100 110 0 200 45 200 100 0 55 -90 100 -200 100 -110 0 -200 -45 -200 -100z"/>
<path d="M19950 24754 c220 -134 573 -339 784 -455 211 -117 526 -378 699 -581 174 -202 462 -506 641 -675 180 -169 326 -343 326 -387 0 -45 201 -258 447 -474 438 -386 724 -987 580 -1220 -37 -59 -58 -490 -48 -959 21 -1002 -127 -2190 -342 -2750 -104 -270 -118 -409 -44 -434 59 -20 83 -77 52 -128 -84 -135 -422 -111 -470 34 -34 100 -73 100 -193 1 -223 -184 -282 -51 -135 307 252 617 275 767 121 767 -85 0 -164 124 -189 300 -34 233 -9 295 113 275 102 -16 170 63 191 225 32 243 29 245 -118 50 -147 -196 -152 -194 -258 82 -144 379 -139 400 99 338 130 -35 191 -12 167 63 -21 64 -153 131 -293 147 -254 31 -254 29 -149 -432 85 -372 79 -480 -32 -548 -90 -56 -180 -27 -260 82 -67 92 -159 132 -203 87 -44 -44 -19 -118 56 -164 166 -103 70 -405 -128 -405 -79 0 -167 -65 -198 -144 -39 -103 33 -153 257 -175 564 -56 420 -249 -231 -308 -338 -31 -666 -111 -729 -177 -87 -94 -45 -107 187 -58 767 162 953 182 1107 123 128 -49 139 -95 52 -201 -88 -105 -79 -150 38 -195 84 -32 153 -133 153 -224 0 -127 -31 -140 -134 -54 -74 61 -164 82 -200 45 -36 -36 -66 10 -66 101 0 137 -104 167 -575 166 -715 -2 -1098 -91 -908 -211 91 -58 95 -85 14 -86 -213 -3 -255 206 -79 400 165 183 159 187 -187 131 -317 -51 -372 -27 -479 207 -92 203 -93 293 -3 383 64 64 116 164 114 222 -2 58 -89 3 -193 -122 -280 -336 -376 -70 -107 294 121 164 190 329 154 366 -37 37 -130 -23 -206 -133 -220 -318 -347 -450 -432 -450 -44 0 -231 188 -415 418 -185 229 -284 385 -221 346 95 -58 285 8 617 213 24 15 47 293 50 618 6 618 -138 581 -197 -50 -52 -563 -141 -638 -547 -466 -192 82 -294 168 -225 193 243 87 121 228 -200 232 -179 1 -417 58 -528 125 -486 289 -1247 924 -1247 1039 0 71 -66 100 -150 68 -98 -38 -154 6 -162 128 -9 148 -20 153 -54 25 -36 -134 -616 -389 -884 -389 -43 0 -49 242 -14 537 34 295 21 667 -31 825 -51 158 -113 481 -136 717 -42 415 -169 715 -169 399 0 -203 -441 -177 -870 51 -479 256 -642 203 -180 -58 290 -164 409 -301 432 -499 35 -306 -174 -373 -382 -122 -137 165 -300 199 -300 62 0 -166 635 -408 772 -293 93 77 128 68 129 -32 0 -223 210 -910 261 -858 26 26 -19 333 -99 682 -154 668 -110 942 129 794 135 -84 402 -2145 292 -2255 -27 -26 -192 -77 -366 -111 -297 -60 -318 -45 -325 224 -4 158 -49 377 -100 487 -63 137 -74 34 -33 -325 73 -649 -73 -690 -357 -100 -113 234 -179 335 -147 225 141 -484 163 -750 63 -750 -58 0 -137 101 -176 225 -38 124 -204 395 -367 603 -220 279 -331 351 -423 275 -91 -76 -197 -32 -389 160 -145 145 -264 224 -264 175 0 -50 315 -398 700 -774 385 -376 700 -724 700 -774 0 -49 248 -90 550 -90 403 0 550 37 550 139 0 161 207 222 1075 318 438 48 625 35 625 -44 0 -62 -169 -117 -375 -123 -206 -5 -487 -49 -625 -98 -162 -57 35 -69 558 -34 655 43 833 23 938 -103 105 -127 104 -156 -9 -159 -75 -3 20 -62 213 -131 550 -200 1216 -658 1138 -784 -46 -75 2 -94 146 -56 146 38 216 10 216 -84 0 -97 -133 -145 -425 -155 l-425 -14 400 -68 c383 -64 389 -70 132 -145 -281 -81 -292 -359 -15 -359 79 0 117 45 83 100 -34 55 27 100 136 100 109 0 272 28 362 63 113 44 181 -3 220 -150 30 -117 101 -213 158 -213 107 0 365 -296 371 -425 4 -91 -617 -100 -847 -11 -133 51 -140 81 -33 148 87 56 13 86 -217 89 -192 2 -530 88 -750 190 -399 185 -399 186 -150 285 206 82 150 97 -325 87 -316 -7 -575 -37 -575 -66 0 -30 191 -128 425 -219 1199 -465 1946 -809 2131 -984 114 -107 257 -194 318 -194 62 0 171 -56 244 -125 73 -69 312 -248 532 -397 492 -335 2350 -2120 2350 -2257 0 -55 71 -127 158 -160 224 -86 242 -79 242 89 0 82 39 150 88 150 171 0 328 -294 264 -495 -40 -124 -21 -205 47 -205 62 0 85 -45 51 -100 -105 -170 -237 -111 -393 175 -82 151 -151 211 -153 133 -2 -78 70 -225 161 -325 356 -393 -87 -164 -492 254 -233 241 -580 517 -773 614 -192 98 -457 261 -588 363 -138 107 -401 186 -620 186 -209 0 -408 45 -442 100 -82 133 -1350 131 -1350 -2 0 -59 116 -77 275 -43 203 43 171 9 -125 -132 -220 -104 -516 -219 -658 -254 -142 -35 -380 -178 -530 -317 -285 -263 -462 -322 -462 -152 0 55 224 224 499 375 274 151 499 309 500 351 0 42 -178 -37 -397 -175 -219 -138 -443 -251 -498 -251 -55 0 -173 -112 -263 -250 -90 -137 -203 -250 -250 -250 -144 0 97 508 335 707 123 102 172 188 109 190 -143 4 -735 -661 -735 -826 0 -68 -90 -179 -200 -248 -176 -110 -200 -100 -200 87 0 147 46 194 150 154 93 -36 150 0 150 95 0 84 -48 123 -106 87 -73 -45 -85 57 -38 319 49 275 37 356 -41 283 -59 -56 -120 -250 -134 -433 -24 -323 -377 -685 -384 -394 -2 72 -52 45 -112 -58 -82 -142 -75 -208 28 -275 114 -73 112 -104 -13 -186 -241 -159 -275 -123 -262 273 7 209 89 452 187 550 238 238 228 470 -18 406 -106 -28 -172 -105 -147 -171 52 -135 -426 -627 -520 -534 -33 34 12 164 100 290 197 282 215 497 18 228 -78 -106 -175 -160 -216 -119 -41 40 5 161 102 268 100 111 143 247 99 318 -53 87 -100 59 -156 -94 -124 -335 -287 -266 -188 80 47 163 117 348 156 411 39 63 15 149 -53 190 -95 60 -96 126 -4 298 65 122 94 246 64 275 -30 30 -108 -63 -174 -208 -67 -147 -202 -263 -306 -263 -151 0 -174 -52 -126 -275 46 -212 36 -241 -46 -125 -151 212 -135 455 40 600 211 175 186 291 -50 229 -239 -63 -271 123 -36 213 91 34 137 91 103 125 -34 34 -127 8 -206 -58 -114 -95 -174 -75 -297 101 -135 193 -136 253 -9 499 134 259 120 339 -193 1110 -186 457 -310 860 -275 895 35 35 170 96 301 136 226 68 231 60 92 -137 -199 -284 -117 -813 125 -813 101 0 213 48 249 107 40 64 -8 94 -119 75 -145 -25 -178 21 -153 218 18 138 108 309 200 382 93 73 157 174 143 225 -14 51 20 93 75 93 55 0 100 49 100 108 0 128 -520 34 -906 -163 -257 -131 -630 -41 -405 98 192 119 121 257 -133 257 -139 0 -312 96 -400 222 -215 307 -198 470 44 407 110 -29 200 -106 200 -171 0 -260 219 -350 463 -190 314 205 300 331 -38 335 -327 4 -627 240 -802 632 -70 157 -217 308 -325 337 -109 28 -198 82 -198 119 0 37 -180 261 -400 497 -221 236 -376 471 -345 521 31 50 0 91 -69 91 -70 0 -264 131 -431 290 -168 160 -530 366 -805 457 -275 92 -590 248 -700 348 -250 228 -650 358 -650 212 0 -59 34 -108 75 -109 79 -1 744 -627 1308 -1230 183 -195 386 -336 450 -313 64 24 410 -228 767 -560 992 -921 1159 -921 225 -1 -760 749 -950 1006 -747 1006 43 0 461 -398 929 -884 723 -750 829 -903 709 -1016 -112 -104 -182 -107 -333 -13 -105 66 -227 98 -271 70 -44 -27 -231 107 -416 297 -184 190 -381 346 -436 346 -55 0 75 -180 290 -400 283 -290 360 -430 280 -510 -79 -79 -274 -18 -712 225 -339 188 -639 295 -685 246 -46 -49 -22 -110 53 -137 115 -41 115 -63 0 -143 -97 -67 -76 -77 75 -35 283 79 563 -39 498 -209 -32 -83 15 -137 119 -138 95 0 301 -67 458 -150 158 -82 405 -147 550 -145 253 3 256 8 59 125 -190 113 -230 471 -52 471 155 0 1207 -1187 1207 -1362 0 -41 83 -168 185 -282 265 -296 713 -1492 650 -1735 -44 -168 -112 -196 -371 -154 -186 30 -571 -35 -937 -158 -341 -115 -645 -209 -674 -209 -29 0 -54 124 -54 275 -3 510 -108 725 -355 725 -128 0 -260 -46 -295 -101 -37 -60 -125 -67 -214 -17 -169 95 -1178 -37 -1426 -186 -104 -62 209 -73 902 -32 750 45 1081 30 1131 -51 90 -146 -185 -253 -667 -259 -206 -2 -375 -35 -375 -72 0 -37 -101 -89 -225 -114 -149 -30 -107 -48 125 -53 390 -9 1300 -230 1300 -316 0 -30 -371 -113 -825 -184 -454 -71 -870 -175 -925 -232 -69 -72 5 -82 237 -33 222 47 363 31 411 -47 40 -65 260 -143 488 -174 586 -78 515 -186 -95 -144 -794 55 -2991 -301 -2991 -485 0 -41 281 -19 625 51 708 144 2053 166 2133 35 30 -47 -118 -87 -327 -88 -210 0 -448 -49 -531 -107 -110 -77 -22 -88 325 -42 324 43 475 27 475 -50 0 -64 117 -99 272 -81 246 29 273 0 289 -313 11 -221 98 -411 239 -525 173 -140 187 -180 61 -180 -89 0 -161 45 -161 100 0 55 -134 100 -297 100 -223 0 -282 37 -239 150 61 158 -262 219 -405 76 -40 -41 -410 -75 -820 -75 -410 -1 -778 -48 -818 -105 -39 -58 -274 -164 -521 -237 -247 -73 -517 -157 -600 -188 -399 -146 -1055 -298 -1100 -254 -27 28 60 139 194 248 l245 199 -270 -68 c-404 -101 -325 103 89 230 302 93 349 87 302 -35 -44 -116 -16 -125 137 -43 105 57 217 144 249 195 31 50 191 121 355 157 174 38 299 130 299 220 0 176 76 194 -1500 -363 -640 -227 -1137 -457 -1121 -519 16 -63 -37 -87 -121 -55 -82 32 -350 -11 -595 -94 -562 -191 -2323 -142 -3263 92 -357 89 -684 164 -725 165 -114 6 -90 -975 26 -1047 56 -34 236 -66 400 -71 165 -5 299 -47 299 -93 0 -47 93 -85 206 -85 113 0 178 -45 144 -100 -87 -140 -885 -125 -1030 20 -93 93 -120 74 -120 -89 0 -168 93 -230 475 -314 l475 -105 -476 20 -476 20 16 -460 c17 -465 109 -548 483 -428 121 38 123 62 13 130 -82 51 66 80 376 76 509 -8 511 -9 363 -236 -82 -125 -149 -317 -149 -428 0 -173 -46 -192 -325 -139 -179 33 -401 100 -493 147 -233 119 -282 109 -282 -57 0 -98 171 -164 542 -210 584 -73 758 -23 758 218 0 85 88 277 195 428 127 179 174 357 134 515 -58 234 -54 236 138 67 245 -216 423 -221 711 -19 122 85 222 128 222 94 0 -34 50 -31 111 7 79 48 76 89 -11 143 -87 54 -90 95 -11 143 61 38 111 16 111 -48 0 -146 331 -85 1180 214 628 222 683 395 120 382 -211 -4 -221 -16 -63 -79 347 -136 -533 -298 -1412 -260 -472 20 -825 -5 -825 -58 0 -52 127 -94 283 -94 184 0 284 -52 284 -149 0 -153 -337 -314 -441 -210 -33 32 -7 59 57 59 64 0 117 48 117 108 0 61 -147 95 -345 78 -189 -17 -377 2 -416 42 -40 40 3 72 94 72 92 0 167 45 167 100 0 55 -67 100 -150 100 -82 0 -150 42 -150 94 0 51 156 68 346 37 431 -70 772 34 554 169 -157 97 -72 152 341 219 104 17 202 114 217 215 15 101 53 210 85 242 32 32 569 63 1194 68 757 6 1188 52 1289 136 124 103 180 100 295 -16 98 -98 195 -113 309 -49 92 51 553 177 1026 281 473 103 944 264 1047 357 208 188 1355 229 1530 54 53 -53 225 -70 382 -39 158 32 285 13 285 -41 0 -54 -472 -154 -1050 -222 -577 -69 -1050 -166 -1050 -217 0 -50 101 -70 225 -43 386 84 2370 355 2599 355 203 0 207 -12 55 -164 -114 -114 -339 -165 -725 -165 -308 0 -584 -39 -614 -87 -30 -48 -88 -66 -130 -40 -42 26 -77 -18 -77 -98 0 -173 108 -184 379 -39 252 134 906 17 662 -119 -87 -49 -432 -118 -766 -153 -817 -85 -780 -226 42 -160 455 37 650 18 650 -63 0 -73 91 -93 244 -54 309 77 537 -41 342 -178 -133 -93 412 -36 796 84 156 49 156 43 3 -81 -91 -73 -260 -199 -375 -280 -266 -186 -272 -336 -11 -253 283 89 163 -183 -154 -353 -135 -72 -245 -168 -245 -214 0 -253 530 151 744 567 l155 300 0 -306 c1 -211 -93 -397 -299 -594 -382 -366 -379 -459 12 -347 307 89 311 86 251 -215 -44 -218 -26 -292 63 -263 85 29 125 306 129 883 5 949 278 1996 749 2876 208 388 244 517 130 474 -120 -46 -138 -19 -78 116 121 274 173 1010 84 1202 -54 118 -104 -53 -156 -526 -133 -1213 -149 -1290 -367 -1750 -117 -247 -214 -529 -215 -625 -1 -118 -81 -175 -245 -175 -299 0 -797 581 -650 759 207 249 -159 641 -600 641 -266 0 -260 96 41 754 252 553 806 1062 1377 1267 151 54 275 142 275 196 0 208 -732 -166 -1276 -652 -167 -149 -256 -173 -339 -90 -143 143 -41 410 188 495 97 36 212 123 255 194 94 155 703 335 1140 335 231 1 336 -54 382 -199 35 -110 100 -200 145 -200 227 0 545 -1507 448 -2119 -38 -237 -81 -566 -95 -731 -30 -355 324 -1110 834 -1779 280 -367 357 -553 331 -799 -40 -386 -223 -759 -488 -999 -180 -163 -677 -1146 -1073 -2121 -122 -301 -183 -364 -250 -256 -166 270 10 1236 358 1964 187 391 340 763 340 825 0 607 -743 -1250 -913 -2283 -92 -557 -152 -702 -291 -702 -220 0 -335 282 -188 460 61 74 108 304 103 512 -19 761 -68 1218 -139 1289 -40 40 -7 173 72 295 159 242 115 344 -149 344 -207 0 -321 -464 -180 -729 133 -247 68 -685 -115 -775 -82 -41 -322 -158 -533 -260 -406 -197 -525 -311 -428 -409 33 -33 280 60 549 207 1427 777 586 -228 -1020 -1218 -210 -130 -361 -256 -337 -281 60 -59 697 299 1304 732 266 191 503 328 526 306 70 -70 -894 -970 -1108 -1035 -112 -34 -345 -167 -518 -297 -292 -219 -839 -466 -1760 -797 -609 -219 -433 -82 472 366 466 231 826 453 801 493 -81 131 -1786 -781 -1866 -999 -55 -147 -165 -204 -397 -204 -461 0 -1165 -371 -1338 -705 -81 -157 -147 -305 -147 -329 0 -107 340 -163 400 -66 96 156 720 235 1241 157 553 -83 1493 -854 1293 -1060 -89 -92 -168 -60 -341 140 -238 273 -1677 807 -1979 733 -126 -30 -106 -65 86 -148 232 -102 220 -110 -175 -116 -234 -3 -425 39 -425 94 0 214 -163 81 -420 -344 -354 -586 -766 -797 -1407 -721 -424 50 -475 38 -370 -89 101 -121 81 -147 -116 -149 -204 -3 -213 -17 -68 -102 93 -54 588 -81 1100 -59 756 32 1004 4 1320 -146 213 -102 423 -163 466 -137 43 27 205 0 359 -58 256 -98 306 -77 552 224 l271 331 838 -22 c958 -26 1835 -327 1733 -594 -32 -83 -58 -170 -58 -194 0 -25 -111 28 -248 118 -687 450 -1441 351 -1952 -258 -319 -380 -364 -400 -893 -396 -574 3 -1111 112 -2407 488 -412 120 -930 265 -1150 323 -220 57 -477 144 -570 193 -94 48 -194 51 -221 6 -75 -121 -712 -77 -877 59 -192 160 -1782 717 -1782 625 0 -73 117 -125 1028 -455 263 -95 504 -214 535 -264 128 -208 -90 -190 -710 59 -703 281 -853 312 -853 174 0 -164 946 -489 2500 -860 853 -203 1810 -432 2127 -509 923 -224 3971 -545 5154 -544 529 1 808 -35 769 -99 -39 -63 -1097 -100 -2845 -100 -2391 0 -2915 28 -3719 198 -1594 337 -3470 860 -3631 1012 -259 246 -355 81 -355 -610 l0 -700 12285 0 12285 0 69 2425 c134 4680 154 5993 217 14250 l64 8325 -2685 -2 -2685 -1 400 -243z m-10443 -2358 c258 -138 253 -453 -7 -453 -116 0 -200 67 -200 158 0 88 -54 213 -120 279 -155 155 48 166 327 16z m2893 -1652 c0 -86 -45 -128 -100 -94 -55 34 -100 104 -100 156 0 52 45 94 100 94 55 0 100 -70 100 -156z m11300 -394 c0 -82 -45 -150 -100 -150 -55 0 -100 68 -100 150 0 83 45 150 100 150 55 0 100 -67 100 -150z m-1607 -2875 c-5 -301 -29 -369 -83 -232 -70 181 -33 657 52 657 21 0 35 -191 31 -425z m-3220 -444 c-97 -26 -232 -24 -300 3 -68 28 12 49 177 47 165 -3 220 -25 123 -50z m2412 -483 c24 -24 -13 -112 -83 -196 -81 -98 -299 -152 -608 -152 -510 0 -734 142 -395 250 110 35 201 111 201 170 0 99 778 36 885 -72z m2464 53 c35 -57 -5 -73 -94 -39 -173 66 -205 138 -61 138 52 0 122 -44 155 -99z m-12899 -301 c-34 -55 -183 -96 -331 -90 l-269 10 250 80 c355 114 420 114 350 0z m13064 -100 c205 -174 210 -192 36 -135 -110 36 -245 100 -300 141 -55 41 -212 96 -350 121 -218 40 -210 48 64 59 185 8 411 -68 550 -186z m-1995 -168 c-72 -29 -159 -26 -192 8 -33 33 26 56 131 52 117 -5 141 -28 61 -60z m1831 -332 c34 -55 17 -100 -38 -100 -55 0 -128 45 -162 100 -34 55 -17 100 38 100 55 0 128 -45 162 -100z m-13096 -107 c92 -149 -15 -230 -206 -156 -88 34 -133 107 -98 162 81 131 221 129 304 -6z m10996 7 c34 -55 17 -100 -38 -100 -55 0 -128 45 -162 100 -34 55 -17 100 38 100 55 0 128 -45 162 -100z m1857 -675 c214 -151 390 -309 391 -350 4 -154 -215 -67 -439 175 -166 178 -336 250 -595 250 -200 0 -364 45 -364 100 0 203 626 94 1007 -175z m-9484 -182 c-33 -176 -81 -225 -152 -154 -70 70 -62 151 25 257 172 207 184 197 127 -103z m10037 -16 c-33 -33 -56 26 -52 131 5 117 28 141 60 61 29 -72 26 -159 -8 -192z m-1660 73 c0 -55 -48 -100 -106 -100 -58 0 -78 45 -44 100 34 55 82 100 106 100 24 0 44 -45 44 -100z m1200 -511 c0 -143 -174 -102 -234 56 -37 97 -8 126 89 89 80 -30 145 -96 145 -145z m675 -137 c0 -139 -39 -252 -87 -252 -49 0 -88 138 -88 306 0 168 39 281 88 252 48 -30 87 -168 87 -306z m-10406 110 c-30 -76 -1 -190 63 -254 82 -82 85 -137 9 -187 -60 -39 -160 -161 -224 -271 -97 -166 -109 -115 -73 300 24 275 47 511 50 525 3 14 56 25 117 25 61 0 87 -62 58 -138z m6481 -53 c592 -235 1242 -638 1307 -809 58 -153 1143 -1049 1143 -944 0 31 -49 148 -108 259 -95 177 -80 197 125 168 211 -30 233 -85 238 -583 5 -543 250 -1200 448 -1200 53 0 97 -45 97 -100 0 -55 -34 -95 -75 -88 -215 34 -238 -32 -75 -212 252 -279 331 -252 404 138 51 272 102 329 257 288 158 -41 171 -78 71 -198 -67 -81 -125 -265 -127 -409 -3 -165 -85 -302 -219 -369 -425 -213 -536 -371 -536 -762 0 -217 -49 -388 -111 -388 -61 0 -82 -73 -48 -163 75 -195 -383 -837 -596 -837 -80 0 -145 -87 -145 -193 0 -195 -81 -238 -675 -357 -179 -36 -325 -113 -325 -170 0 -61 -92 -75 -225 -34 -124 37 -292 65 -375 60 -82 -5 -251 -9 -375 -9 -279 1 -297 -197 -25 -268 128 -34 200 -136 200 -287 0 -130 86 -281 193 -338 287 -154 335 -129 269 135 -66 262 116 357 691 360 166 0 403 71 525 157 217 152 222 147 222 -200 0 -294 -36 -356 -209 -356 -115 0 -326 -134 -470 -297 -242 -276 -274 -286 -437 -138 -220 199 -458 115 -579 -203 -121 -317 -279 -409 -705 -411 -266 -1 -374 -55 -449 -226 -141 -323 -299 -277 -312 92 -8 218 -94 375 -275 508 -145 105 -264 233 -264 283 0 162 442 94 700 -108 138 -108 284 -197 325 -198 124 -3 85 347 -61 546 -75 102 -115 268 -89 367 32 122 -30 216 -189 286 -344 152 -798 500 -1345 1032 -264 257 -517 467 -561 467 -44 0 -80 45 -80 100 0 55 68 100 150 100 218 0 186 396 -50 600 -171 149 -184 216 -90 486 63 180 180 315 275 316 290 2 413 149 552 654 74 272 168 572 209 668 107 249 -206 343 -438 133 -214 -193 -708 -121 -708 104 0 204 -333 169 -470 -49 -138 -222 -999 -544 -1084 -405 -32 51 -168 93 -302 93 -177 0 -244 55 -244 200 0 111 67 200 150 200 82 0 150 45 150 100 0 55 -56 101 -125 101 -69 1 -12 60 125 131 140 72 238 201 222 292 -24 142 830 847 978 806 164 -45 78 64 -94 118 -266 84 -169 252 145 252 131 0 275 61 319 135 99 168 376 316 943 505 875 291 1621 314 2237 69z m-6250 -715 c0 -52 -45 -94 -100 -94 -55 0 -100 70 -100 156 0 86 45 128 100 94 55 -34 100 -104 100 -156z m9640 -53 c73 -191 -17 -367 -147 -287 -119 74 -122 446 -4 446 49 0 117 -72 151 -159z m460 -197 c0 -86 -46 -128 -102 -93 -56 35 -75 105 -44 156 86 139 146 113 146 -63z m-18600 -44 c0 -55 -45 -100 -100 -100 -55 0 -100 45 -100 100 0 55 45 100 100 100 55 0 100 -45 100 -100z m8656 -53 c-190 -144 -189 -147 25 -147 120 0 219 -45 219 -100 0 -55 -45 -100 -100 -100 -55 0 -100 -48 -100 -107 0 -61 85 -79 200 -43 110 35 200 24 200 -24 0 -176 -413 -526 -619 -526 -203 0 -205 8 -37 194 182 201 139 406 -84 406 -71 0 -203 82 -293 181 -222 245 -42 420 428 416 334 -3 343 -12 161 -150z m2044 -47 c0 -55 -68 -100 -150 -100 -82 0 -150 45 -150 100 0 55 68 100 150 100 82 0 150 -45 150 -100z m-700 -38 c0 -21 -68 -94 -150 -162 -123 -102 -150 -95 -150 38 0 89 68 162 150 162 82 0 150 -17 150 -38z m-10300 -162 c0 -55 -90 -100 -200 -100 -110 0 -200 45 -200 100 0 55 90 100 200 100 110 0 200 -45 200 -100z m18400 -108 c0 -47 -67 -60 -150 -28 -82 31 -150 96 -150 144 0 47 68 60 150 28 83 -31 150 -96 150 -144z m477 8 c68 -110 102 -200 74 -200 -28 0 -141 90 -251 200 -122 122 -151 200 -74 200 69 0 182 -90 251 -200z m-23377 -138 c0 -215 275 -394 474 -307 97 42 210 69 253 60 42 -9 323 -22 625 -29 695 -16 708 -139 23 -221 -853 -103 -1229 -76 -1664 119 -434 194 -454 356 -30 249 206 -51 240 -33 189 102 -35 91 -20 165 33 165 53 0 97 -62 97 -138z m450 38 c34 -55 -6 -100 -88 -100 -83 0 -178 45 -212 100 -34 55 6 100 88 100 83 0 178 -45 212 -100z m10000 0 c-34 -55 -127 -100 -206 -100 -79 0 -144 45 -144 100 0 55 93 100 206 100 113 0 178 -45 144 -100z m-8800 -100 c34 -55 -34 -100 -150 -100 -116 0 -184 45 -150 100 34 55 101 100 150 100 49 0 116 -45 150 -100z m11550 -150 c0 -82 -68 -150 -150 -150 -156 0 -198 118 -83 233 115 115 233 73 233 -83z m10216 -173 c131 -206 96 -377 -77 -377 -95 0 -139 56 -108 138 31 80 -44 181 -181 244 -184 84 -245 75 -290 -43 -32 -82 -16 -124 34 -93 162 100 210 -118 55 -247 -118 -98 -180 -98 -299 1 -367 305 -13 733 487 589 164 -47 335 -142 379 -212z m-13241 98 c-23 -69 -126 -141 -230 -162 -163 -31 -171 -14 -55 125 159 192 344 215 285 37z m525 86 c0 -22 -67 -66 -150 -97 -82 -32 -150 -14 -150 39 0 53 68 97 150 97 83 0 150 -18 150 -39z m3500 -61 c0 -55 -48 -100 -106 -100 -58 0 -78 45 -44 100 34 55 82 100 106 100 24 0 44 -45 44 -100z m-3000 -152 c0 -103 -519 -248 -632 -178 -73 45 -23 97 133 141 322 89 499 102 499 37z m2411 -354 c-132 -109 -262 -176 -289 -149 -86 86 194 355 365 352 126 -3 109 -49 -76 -203z m289 -305 c0 -151 -45 -193 -158 -150 -87 34 -208 61 -269 61 -119 0 227 292 352 297 41 2 75 -92 75 -208z m2535 -342 c-31 -80 -94 -122 -141 -93 -47 29 -60 118 -29 199 31 80 94 122 141 93 47 -29 60 -118 29 -199z m6565 97 c0 -86 -45 -128 -100 -94 -55 34 -100 104 -100 156 0 52 45 94 100 94 55 0 100 -70 100 -156z m-7800 -339 c245 -73 242 -77 -100 -181 l-350 -106 445 -9 c316 -6 414 -40 338 -116 -131 -131 -889 -82 -868 57 8 55 -27 179 -78 275 -77 144 -53 173 134 165 126 -5 342 -44 479 -85z m1000 -5 c0 -55 -101 -99 -225 -98 -182 1 -196 20 -75 98 194 125 300 125 300 0z m-1950 -300 c-34 -55 -82 -100 -106 -100 -24 0 -44 45 -44 100 0 55 48 100 106 100 58 0 78 -45 44 -100z m2932 -167 c-18 -94 -137 -174 -274 -184 l-242 -18 228 184 c281 228 330 231 288 18z m-1432 -323 c193 -112 311 -270 332 -442 30 -260 15 -268 -500 -280 -432 -9 -475 -25 -232 -80 165 -37 446 -58 625 -46 224 15 325 -23 325 -120 0 -236 -952 -190 -1200 58 -311 311 -242 399 325 412 l525 13 -532 77 c-648 95 -788 198 -268 198 211 0 350 33 310 74 -74 74 -117 82 -535 111 -124 8 -225 60 -225 115 0 162 725 100 1050 -90z m-1550 -310 c0 -55 -68 -100 -150 -100 -82 0 -150 45 -150 100 0 55 68 100 150 100 82 0 150 -45 150 -100z m8676 -201 c-70 -112 -142 -151 -163 -88 -20 61 24 151 100 199 197 125 203 113 63 -111z m422 -324 c-1 -182 -20 -196 -98 -75 -81 125 -99 116 -106 -50 -6 -113 -32 -144 -61 -72 -67 167 32 422 164 422 57 0 102 -101 101 -225z m-238 -1125 c38 -279 27 -271 -152 100 -106 220 -195 535 -196 700 -3 289 3 285 152 -100 85 -220 173 -535 196 -700z m-9060 794 c0 -24 -45 -44 -100 -44 -55 0 -100 48 -100 106 0 58 45 78 100 44 55 -34 100 -82 100 -106z m800 56 c0 -55 -45 -100 -100 -100 -55 0 -100 45 -100 100 0 55 45 100 100 100 55 0 100 -45 100 -100z m-1269 -137 c29 -75 -55 -311 -186 -525 -131 -213 -240 -533 -242 -710 -2 -259 -36 -309 -170 -258 -135 52 -152 27 -85 -128 45 -105 103 -338 128 -517 77 -545 224 -362 224 279 0 409 65 732 202 1000 248 486 302 498 230 54 -83 -511 146 -1339 421 -1519 289 -189 393 -447 225 -557 -147 -96 -1143 -1 -1403 134 -96 50 -175 199 -175 332 0 133 -96 308 -216 392 l-216 151 326 779 c415 996 801 1447 937 1093z m2769 -108 c0 -103 -87 -135 -299 -108 -164 21 -324 -4 -356 -54 -31 -51 92 -94 274 -95 182 0 399 -45 481 -98 117 -76 91 -97 -119 -98 -148 -1 -293 -40 -322 -88 -29 -47 65 -80 210 -75 144 6 281 -45 305 -114 27 -80 -59 -126 -241 -128 -240 -3 -257 -18 -108 -105 179 -104 239 -292 94 -292 -199 0 -525 424 -467 608 34 106 17 192 -38 192 -55 0 -167 135 -249 300 l-150 300 493 0 c363 0 492 -38 492 -145z m6500 -731 c0 -168 -78 -325 -200 -401 -110 -68 -200 -172 -200 -231 0 -60 86 -78 200 -42 138 44 200 18 200 -83 0 -177 -168 -250 -501 -217 -137 13 -310 30 -384 37 -87 8 -24 141 173 365 170 193 337 463 371 600 86 342 341 321 341 -28z m-7981 108 c-72 -29 -159 -26 -192 8 -33 33 26 56 131 52 117 -5 141 -28 61 -60z m481 -88 c0 -24 -45 -44 -100 -44 -55 0 -100 48 -100 106 0 58 45 78 100 44 55 -34 100 -82 100 -106z m-50 -344 c34 -55 -6 -100 -88 -100 -83 0 -178 45 -212 100 -34 55 6 100 88 100 83 0 178 -45 212 -100z m2550 -503 c130 -87 124 -121 -44 -249 -107 -81 -245 -148 -306 -148 -61 0 -199 67 -306 148 -168 128 -174 162 -44 249 83 55 240 100 350 100 110 0 268 -45 350 -100z m-2430 -157 c21 -62 -94 -113 -267 -118 -305 -9 -410 117 -178 213 185 76 403 30 445 -95z m7580 -340 c-38 -118 -91 -193 -118 -165 -28 27 -20 147 18 265 38 118 91 193 118 165 28 -27 20 -147 -18 -265z m-850 -127 c0 -199 -13 -203 -162 -54 -89 89 -131 212 -93 273 101 163 255 30 255 -219z m350 227 c-34 -55 -82 -100 -106 -100 -24 0 -44 45 -44 100 0 55 48 100 106 100 58 0 78 -45 44 -100z m-8012 -155 c34 -89 18 -129 -39 -94 -55 33 -99 103 -99 155 0 144 72 112 138 -61z m3062 -151 c0 -58 -45 -78 -100 -44 -55 34 -100 82 -100 106 0 24 45 44 100 44 55 0 100 -48 100 -106z m4497 -1037 c-63 -63 -94 42 -88 298 8 390 9 392 97 97 55 -184 52 -334 -9 -395z m-6123 268 c234 -96 425 -206 426 -244 0 -60 -874 277 -992 382 -101 90 175 23 566 -138z m5576 -125 c-34 -55 -82 -100 -106 -100 -24 0 -44 45 -44 100 0 55 48 100 106 100 58 0 78 -45 44 -100z m1950 0 c0 -55 -45 -100 -100 -100 -55 0 -100 45 -100 100 0 55 45 100 100 100 55 0 100 -45 100 -100z m-5475 -66 c-69 -28 -181 -28 -250 0 -69 28 -12 50 125 50 138 0 194 -22 125 -50z m-3425 -280 c0 -168 -300 -354 -568 -354 -144 1 -119 53 118 247 348 286 450 310 450 107z m1119 78 c-72 -29 -159 -26 -192 8 -33 33 26 56 131 52 117 -5 141 -28 61 -60z m-3119 -126 c0 -118 -195 -244 -267 -173 -71 72 55 267 173 267 52 0 94 -42 94 -94z m7880 -291 c-149 -57 -211 62 -132 256 69 167 79 166 149 -21 42 -110 34 -216 -17 -235z m-8630 185 c-34 -55 -183 -97 -331 -93 -240 6 -248 16 -69 93 278 119 474 119 400 0z m5050 -100 c0 -55 -48 -100 -106 -100 -58 0 -78 45 -44 100 34 55 82 100 106 100 24 0 44 -45 44 -100z m-868 -125 c146 -106 95 -127 -341 -140 -609 -19 -548 116 115 253 31 7 133 -44 226 -113z m1238 -174 c-65 -173 -150 -261 -201 -210 -122 122 14 509 179 509 108 0 112 -59 22 -299z m5030 43 c0 -24 -45 -44 -100 -44 -55 0 -100 48 -100 106 0 58 45 78 100 44 55 -34 100 -82 100 -106z m-10850 -150 c495 -49 1280 -90 1745 -91 611 -2 815 -33 736 -112 -111 -111 -1587 -73 -3281 85 -690 64 -772 91 -600 196 110 68 268 98 350 67 83 -31 555 -96 1050 -145z m8350 -56 c0 -82 -45 -122 -100 -88 -55 34 -100 129 -100 212 0 82 45 122 100 88 55 -34 100 -129 100 -212z m-3200 12 c0 -82 -45 -150 -100 -150 -55 0 -100 68 -100 150 0 83 45 150 100 150 55 0 100 -67 100 -150z m1393 -109 c-65 -78 -157 -141 -205 -141 -136 0 -104 278 37 328 200 72 295 -34 168 -187z m567 -314 c-33 -33 -56 26 -52 131 5 117 28 141 60 61 29 -72 26 -159 -8 -192z m-460 -233 c0 -178 -42 -280 -100 -244 -55 34 -100 172 -100 306 0 134 45 244 100 244 55 0 100 -138 100 -306z m-1400 100 c0 -58 -45 -78 -100 -44 -55 34 -100 82 -100 106 0 24 45 44 100 44 55 0 100 -48 100 -106z m-4181 -244 c602 -291 875 -310 1295 -93 168 87 331 131 364 99 97 -97 -104 -231 -511 -341 -320 -86 -498 -64 -1090 136 -728 246 -1065 449 -747 449 94 0 404 -112 689 -250z m8141 -23 c-101 -102 -185 51 -102 186 63 102 87 102 121 1 23 -70 15 -154 -19 -187z m-3316 -89 c36 -144 52 -275 36 -291 -74 -73 -488 359 -432 450 118 190 330 105 396 -159z m1722 -165 c-28 -68 -49 12 -47 177 3 165 25 220 50 123 26 -97 24 -232 -3 -300z m664 260 c-25 -65 5 -211 66 -325 76 -143 78 -208 5 -208 -58 0 -150 115 -203 256 -54 141 -143 228 -198 194 -55 -34 -100 -3 -100 69 0 72 107 131 237 131 141 0 219 -48 193 -117z m1870 -39 c0 -58 -45 -78 -100 -44 -55 34 -100 82 -100 106 0 24 45 44 100 44 55 0 100 -48 100 -106z m-400 -756 c0 -28 -136 45 -301 163 -166 118 -274 258 -241 312 53 85 542 -343 542 -475z m-14881 394 c-72 -29 -159 -26 -192 8 -33 33 26 56 131 52 117 -5 141 -28 61 -60z m13081 -128 c0 -109 90 -245 200 -304 194 -104 278 -303 125 -297 -282 12 -711 797 -436 797 61 0 111 -88 111 -196z m-13550 -48 c165 -33 390 -77 500 -99 110 -21 334 -91 497 -154 l298 -115 -412 -185 c-227 -101 -456 -262 -510 -358 -90 -161 -137 -162 -685 -19 -541 142 -560 156 -238 176 193 12 400 16 462 9 61 -8 168 54 237 138 69 83 210 151 313 151 104 0 188 44 188 98 0 106 -186 157 -927 253 -272 35 -451 104 -417 159 34 54 136 77 227 52 92 -26 302 -74 467 -106z m1547 -225 c100 -90 11 -79 -275 34 -232 91 -422 203 -422 248 0 101 493 -99 697 -282z m4687 219 c121 -121 -79 -118 -684 10 l-650 137 642 -49 c353 -26 664 -71 692 -98z m5720 -307 c97 -181 102 -277 21 -358 -82 -82 -153 -11 -268 264 -190 456 -191 458 -21 393 75 -29 195 -164 268 -299z m5177 163 c25 -75 -12 -112 -87 -87 -72 24 -151 103 -175 175 -25 75 12 112 87 87 72 -24 151 -103 175 -175z m-7601 -26 c66 -66 120 -223 120 -350 0 -126 46 -230 101 -230 60 0 79 -152 46 -375 -50 -339 -13 -419 382 -835 374 -393 512 -470 950 -528 282 -37 544 -119 582 -181 50 -79 -27 -93 -258 -47 -180 36 -491 68 -690 71 -308 3 -429 80 -804 508 -411 470 -442 548 -473 1159 -19 360 -85 716 -147 791 -140 169 25 183 191 17z m4824 -316 c-121 -121 -156 -89 -255 236 -75 250 -75 250 140 57 145 -129 183 -225 115 -293z m-15244 63 c-101 -102 -185 51 -102 186 63 102 87 102 121 1 23 -70 15 -154 -19 -187z m13990 173 c34 -55 17 -100 -38 -100 -55 0 -128 45 -162 100 -34 55 -17 100 38 100 55 0 128 -45 162 -100z m3211 -453 c357 -352 562 -847 351 -847 -48 0 -141 129 -207 287 -65 158 -273 436 -462 619 -189 183 -343 376 -343 429 0 97 274 -105 661 -488z m378 395 c38 -98 15 -143 -58 -119 -149 50 -231 277 -100 277 54 0 125 -71 158 -158z m-7939 -198 c0 -24 -45 -44 -100 -44 -55 0 -100 48 -100 106 0 58 45 78 100 44 55 -34 100 -82 100 -106z m-3050 -182 c639 -133 1012 -319 1100 -549 93 -242 -3 -225 -459 85 -531 359 -647 371 -734 77 l-67 -225 -90 220 c-49 121 -261 315 -470 430 -262 146 -303 191 -130 148 138 -34 520 -118 850 -186z m4750 -52 c0 -99 90 -260 200 -360 196 -177 273 -454 125 -446 -41 2 -199 105 -352 230 -232 190 -266 277 -212 544 65 328 239 350 239 32z m2800 82 c0 -47 -67 -60 -150 -28 -82 31 -150 96 -150 144 0 47 68 60 150 28 83 -31 150 -96 150 -144z m-11881 40 c-72 -29 -159 -26 -192 8 -33 33 26 56 131 52 117 -5 141 -28 61 -60z m9678 -28 c81 -51 117 -124 79 -161 -91 -91 -376 25 -376 154 0 127 104 129 297 7z m1776 -104 c140 -110 315 -200 390 -200 76 0 136 -100 134 -225 -3 -222 -5 -223 -156 -25 -84 110 -206 191 -272 179 -65 -11 -200 90 -299 225 -217 298 -140 315 203 46z m4215 -163 c171 -376 58 -416 -133 -46 -88 170 -121 309 -74 309 48 0 141 -118 207 -263z m-12117 -49 c292 -92 320 -135 300 -470 -20 -349 5 -381 485 -625 278 -141 488 -310 467 -375 -24 -72 22 -95 119 -57 332 127 135 331 -517 537 -442 139 -535 266 -270 368 88 33 253 -33 382 -153 124 -117 268 -215 319 -218 52 -3 274 -182 494 -399 220 -217 496 -395 614 -395 118 -1 241 -68 272 -151 47 -121 -39 -150 -439 -150 -273 0 -497 45 -497 100 0 55 45 100 100 100 55 0 100 39 100 86 0 47 -218 112 -484 144 -709 83 -1616 552 -1616 834 0 212 -240 544 -382 529 -198 -21 -470 -178 -480 -278 -7 -63 -19 -160 -25 -215 -7 -55 -47 -100 -88 -100 -113 0 -90 938 25 1027 109 84 614 22 1121 -139z m3411 -113 c109 -179 255 -516 324 -750 69 -234 158 -425 197 -425 40 0 72 -112 72 -248 0 -137 -40 -224 -89 -193 -144 89 -486 816 -486 1034 0 110 -89 360 -198 554 -249 443 -89 468 180 28z m818 225 c0 -55 -45 -100 -100 -100 -55 0 -100 45 -100 100 0 55 45 100 100 100 55 0 100 -45 100 -100z m-1252 -162 c89 -89 136 -188 104 -219 -32 -32 -156 41 -277 162 -121 120 -168 219 -104 219 63 0 188 -73 277 -162z m7024 -232 c67 -86 122 -223 122 -306 0 -114 -36 -104 -146 43 -80 106 -173 165 -206 132 -74 -73 170 -775 269 -775 141 0 -41 -410 -246 -553 -252 -177 -454 -196 -285 -27 136 136 160 962 34 1161 -46 73 -63 238 -39 368 50 260 276 240 497 -43z m-5972 38 c0 -24 -45 -44 -100 -44 -55 0 -100 48 -100 106 0 58 45 78 100 44 55 -34 100 -82 100 -106z m6860 -464 c164 -316 182 -580 40 -580 -55 0 -100 108 -100 240 0 131 -112 345 -248 475 -314 297 -354 608 -42 326 116 -105 273 -312 350 -461z m-9760 220 c121 -226 74 -247 -209 -95 -108 58 -170 148 -138 200 94 152 232 111 347 -105z m748 -298 c269 -273 469 -518 444 -544 -51 -50 -778 589 -986 867 -267 358 68 158 542 -323z m9552 148 c0 -137 -40 -250 -88 -250 -105 0 -215 364 -134 444 125 126 222 41 222 -194z m-4001 -25 c-1 -279 -485 -489 -1024 -444 -388 32 -475 74 -475 231 0 182 14 183 247 31 233 -153 270 -148 675 88 526 306 578 314 577 94z m-9292 -29 c295 -158 232 -264 -197 -333 -458 -73 -1357 31 -1241 144 105 101 716 272 1013 284 127 5 318 -38 425 -95z m1318 38 c-69 -28 -181 -28 -250 0 -69 28 -12 50 125 50 138 0 194 -22 125 -50z m8775 -34 c0 -55 -45 -100 -100 -100 -55 0 -100 45 -100 100 0 55 45 100 100 100 55 0 100 -45 100 -100z m736 -395 c-50 -251 -147 -361 -412 -472 -190 -80 -370 -121 -399 -91 -75 75 175 358 316 358 64 0 197 138 297 307 219 371 286 337 198 -102z m-17217 227 c-72 -29 -159 -26 -192 8 -33 33 26 56 131 52 117 -5 141 -28 61 -60z m16281 -282 c-71 -85 -151 -132 -179 -105 -27 28 8 120 79 205 71 85 151 132 179 105 27 -28 -8 -120 -79 -205z m-4841 -324 c-109 -110 -184 64 -106 245 74 171 80 171 121 -4 24 -100 17 -209 -15 -241z m9140 172 c-60 -111 -194 -256 -299 -321 -141 -88 -162 -152 -83 -248 82 -98 57 -129 -105 -129 -294 0 -268 84 158 521 421 431 482 464 329 177z m-14649 2 c142 -61 27 -88 -400 -91 -330 -3 -667 38 -750 91 -193 125 860 125 1150 0z m9950 -100 c0 -55 -48 -100 -106 -100 -58 0 -78 45 -44 100 34 55 82 100 106 100 24 0 44 -45 44 -100z m-10050 -169 c550 -31 1068 -97 1150 -148 132 -82 -1808 -41 -2600 55 -137 17 -407 45 -600 62 -321 29 -309 37 150 102 275 39 590 51 700 27 110 -24 650 -68 1200 -98z m7250 -155 c0 -114 -145 -91 -280 44 -191 191 -139 294 80 157 110 -69 200 -159 200 -201z m-4150 30 c977 -417 942 -390 550 -409 -933 -45 -2031 179 -2080 425 -42 216 1010 205 1530 -16z m10455 -97 c-86 -161 -209 -209 -529 -209 -486 0 -420 125 176 335 467 164 501 152 353 -126z m-21955 91 c34 -55 17 -100 -38 -100 -55 0 -128 45 -162 100 -34 55 -17 100 38 100 55 0 128 -45 162 -100z m23250 0 c0 -55 -48 -100 -106 -100 -58 0 -78 45 -44 100 34 55 82 100 106 100 24 0 44 -45 44 -100z m-21700 -356 c0 -24 -45 -44 -100 -44 -55 0 -100 48 -100 106 0 58 45 78 100 44 55 -34 100 -82 100 -106z m17650 56 c-273 -117 -350 -117 -350 0 0 55 124 97 275 93 244 -6 252 -17 75 -93z m825 31 c-96 -25 -254 -25 -350 0 -96 25 -17 46 175 46 193 0 271 -21 175 -46z m-18050 -197 c-69 -28 -181 -28 -250 0 -69 28 -12 50 125 50 138 0 194 -22 125 -50z"/>
<path d="M20600 16462 c0 -21 90 -62 200 -91 110 -29 200 -11 200 38 0 50 -90 91 -200 91 -110 0 -200 -17 -200 -38z"/>
<path d="M15500 11500 c-122 -79 -109 -97 69 -98 121 -1 247 43 281 98 79 127 -153 127 -350 0z"/>
<path d="M22150 9842 c-186 -83 -234 -135 -125 -137 107 -3 175 -83 175 -205 0 -281 146 -249 289 65 156 344 36 442 -339 277z"/>
<path d="M18500 9713 c0 -229 -218 -410 -277 -231 -62 186 -194 138 -254 -92 -75 -284 6 -460 240 -521 234 -62 726 523 673 800 -50 260 -382 298 -382 44z"/>
<path d="M21250 9500 c-34 -55 -138 -100 -232 -100 -94 0 -215 -101 -269 -225 -69 -156 -168 -215 -324 -194 -285 40 -308 -236 -25 -310 113 -30 197 -132 192 -237 -4 -105 -29 -130 -58 -59 -71 176 -334 156 -334 -25 0 -82 65 -150 145 -150 80 0 254 -109 387 -241 206 -206 314 -235 730 -199 772 69 806 101 988 938 69 314 60 335 -87 213 -90 -75 -163 -220 -163 -322 0 -103 -90 -244 -200 -312 -110 -69 -204 -193 -208 -276 -5 -94 -26 -106 -56 -32 -27 66 -114 95 -192 65 -218 -84 -470 43 -378 190 82 131 93 184 119 541 11 159 113 241 390 316 329 88 348 109 157 170 -132 42 -197 124 -164 209 62 163 -319 200 -418 40z m-323 -1207 c-32 -122 -90 -170 -144 -116 -106 106 1 445 118 372 44 -27 56 -142 26 -256z"/>
<path d="M2450 24675 c-440 -46 -867 -113 -950 -147 -82 -34 -240 -74 -350 -89 -438 -57 -1150 -277 -1150 -356 0 -117 275 -103 516 25 111 60 611 126 1110 147 591 25 938 83 993 167 66 99 108 89 188 -47 77 -131 221 -172 573 -161 261 7 363 33 229 59 -154 29 -198 72 -123 118 86 53 69 115 -59 222 -144 120 -326 132 -977 62z m750 -181 c0 -58 -45 -78 -100 -44 -55 34 -100 82 -100 106 0 24 45 44 100 44 55 0 100 -48 100 -106z m-881 -62 c-72 -29 -159 -26 -192 8 -33 33 26 56 131 52 117 -5 141 -28 61 -60z"/>
<path d="M3600 24698 c0 -54 81 -98 180 -98 99 0 230 -50 291 -111 63 -63 169 -76 242 -31 72 45 286 85 476 89 191 4 362 55 381 112 21 65 -266 110 -768 120 -470 10 -802 -23 -802 -81z"/>
<path d="M12892 24561 c78 -95 235 -222 350 -283 189 -101 195 -95 66 61 -78 95 -235 222 -350 283 -189 101 -195 95 -66 -61z"/>
<path d="M17950 24600 c34 -55 138 -99 231 -98 146 1 148 14 19 98 -196 127 -328 127 -250 0z"/>
<path d="M5640 24516 c40 -64 130 -116 201 -116 70 0 232 -90 359 -200 127 -110 347 -197 490 -194 l260 7 -248 98 c-184 74 -213 120 -114 182 185 114 23 196 -545 274 -347 47 -455 33 -403 -51z"/>
<path d="M19093 24144 c409 -192 787 -334 840 -316 113 37 -1275 674 -1459 668 -68 -2 210 -160 619 -352z"/>
<path d="M8241 24315 c39 -63 162 -115 274 -115 120 0 225 -83 256 -200 29 -110 120 -200 203 -200 129 0 131 24 13 167 -122 149 -112 161 88 110 124 -32 225 -23 225 20 0 43 -130 104 -288 136 -159 31 -413 89 -565 127 -196 49 -256 36 -206 -45z"/>
<path d="M7300 24200 c83 -53 218 -97 300 -97 133 0 133 11 0 97 -82 53 -217 97 -300 97 -133 0 -133 -11 0 -97z"/>
<path d="M11000 24200 c83 -53 195 -97 250 -97 55 0 33 44 -50 97 -82 53 -195 97 -250 97 -55 0 -32 -44 50 -97z"/>
<path d="M13500 24112 c0 -55 45 -128 100 -162 55 -34 100 -17 100 38 0 55 -45 128 -100 162 -55 34 -100 17 -100 -38z"/>
<path d="M14422 24150 c97 -281 320 -650 394 -650 145 0 92 140 -173 450 -140 165 -240 255 -221 200z"/>
<path d="M16142 24071 c188 -140 188 -144 0 -264 -175 -110 -170 -116 58 -65 138 30 354 56 482 57 220 1 223 10 59 174 -95 95 -312 188 -482 207 -288 31 -296 24 -117 -109z"/>
<path d="M4800 24062 c0 -21 90 -62 200 -91 110 -29 200 -11 200 38 0 50 -90 91 -200 91 -110 0 -200 -17 -200 -38z"/>
<path d="M9550 24000 c34 -55 107 -100 162 -100 55 0 72 45 38 100 -34 55 -107 100 -162 100 -55 0 -72 -45 -38 -100z"/>
<path d="M7250 23900 c34 -55 160 -97 281 -93 211 7 212 10 19 93 -275 118 -373 118 -300 0z"/>
<path d="M18850 23900 c34 -55 107 -100 162 -100 55 0 72 45 38 100 -34 55 -107 100 -162 100 -55 0 -72 -45 -38 -100z"/>
<path d="M5500 23811 c0 -54 90 -126 200 -161 276 -88 254 -285 -25 -216 -124 30 -472 78 -775 107 -538 51 -535 49 141 -94 380 -80 796 -214 925 -298 271 -178 319 -86 59 112 -151 114 -153 133 -17 136 87 2 192 -31 234 -72 41 -41 105 -77 141 -80 196 -14 517 -171 517 -252 0 -51 -154 -93 -342 -93 -188 0 -360 -56 -383 -125 -34 -99 -76 -98 -200 5 -181 150 -1275 243 -1275 109 0 -98 116 -119 509 -94 143 9 511 -98 819 -239 617 -283 672 -296 672 -168 0 49 -101 123 -225 164 -216 73 -213 78 55 119 169 26 416 -37 625 -161 190 -112 345 -159 345 -104 0 54 -112 150 -250 212 -179 82 -250 193 -250 390 0 231 -53 287 -325 344 -179 37 -516 178 -750 312 -234 134 -425 201 -425 147z"/>
<path d="M1947 23695 c-95 -154 35 -253 163 -125 72 72 74 128 6 170 -56 35 -132 15 -169 -45z"/>
<path d="M2500 23703 c0 -59 243 -103 567 -103 682 0 667 49 -42 140 -338 43 -525 30 -525 -37z"/>
<path d="M6375 23734 c69 -28 181 -28 250 0 69 28 13 50 -125 50 -137 0 -194 -22 -125 -50z"/>
<path d="M8000 23700 c138 -44 340 -81 450 -83 200 -3 200 -3 0 83 -110 47 -312 85 -450 83 l-250 -3 250 -80z"/>
<path d="M11300 23700 c196 -127 328 -127 250 0 -34 55 -138 99 -231 98 -146 -1 -148 -14 -19 -98z"/>
<path d="M14080 23501 c127 -223 246 -302 470 -309 165 -5 401 -20 525 -34 124 -13 225 13 225 59 0 46 -97 83 -216 83 -264 0 -984 307 -984 419 0 45 -43 81 -95 81 -53 0 -19 -135 75 -299z"/>
<path d="M17150 23700 c273 -117 350 -117 350 0 0 55 -124 97 -275 93 -244 -6 -252 -17 -75 -93z"/>
<path d="M3980 23580 c93 -93 147 -93 240 0 93 93 67 120 -120 120 -187 0 -213 -27 -120 -120z"/>
<path d="M15566 23556 c-35 -93 20 -195 141 -259 231 -124 165 -318 -77 -226 -109 42 -139 24 -91 -54 40 -64 149 -117 242 -118 93 0 293 -65 444 -144 151 -79 275 -101 275 -49 0 156 274 106 339 -62 33 -86 107 -127 166 -91 64 39 -15 180 -199 356 -291 278 -586 402 -456 191 34 -55 14 -100 -44 -100 -116 0 -556 409 -556 517 0 153 -130 180 -184 39z"/>
<path d="M18000 23612 c0 -50 108 -118 241 -151 132 -33 323 -90 425 -127 323 -116 88 54 -296 214 -204 85 -370 114 -370 64z"/>
<path d="M19600 23600 c196 -127 328 -127 250 0 -34 55 -138 99 -231 98 -146 -1 -148 -14 -19 -98z"/>
<path d="M468 23455 c-211 -75 -413 -170 -450 -212 -38 -41 15 -45 116 -9 101 37 371 95 600 130 229 34 484 100 566 146 252 141 -405 97 -832 -55z"/>
<path d="M7100 23512 c0 -49 123 -112 273 -141 256 -49 261 -43 81 88 -220 161 -354 181 -354 53z"/>
<path d="M8800 23500 c83 -53 218 -97 300 -97 133 0 133 11 0 97 -82 53 -217 97 -300 97 -133 0 -133 -11 0 -97z"/>
<path d="M16050 23500 c275 -118 433 -118 250 0 -82 53 -218 94 -300 91 -99 -3 -82 -34 50 -91z"/>
<path d="M20359 23351 c89 -137 206 -223 258 -190 55 33 22 141 -76 249 -248 274 -374 234 -182 -59z"/>
<path d="M16675 23434 c69 -28 181 -28 250 0 69 28 13 50 -125 50 -137 0 -194 -22 -125 -50z"/>
<path d="M4350 23300 c-34 -55 8 -100 94 -100 86 0 156 45 156 100 0 55 -42 100 -94 100 -52 0 -122 -45 -156 -100z"/>
<path d="M12100 23357 c0 -27 90 -98 200 -157 110 -59 200 -85 200 -57 0 27 -90 98 -200 157 -110 59 -200 85 -200 57z"/>
<path d="M20064 23331 c-113 -113 -69 -231 86 -231 83 0 150 42 150 94 0 126 -156 217 -236 137z"/>
<path d="M17450 23200 c34 -55 107 -100 162 -100 55 0 72 45 38 100 -34 55 -107 100 -162 100 -55 0 -72 -45 -38 -100z"/>
<path d="M18900 23206 c0 -58 45 -106 100 -106 55 0 100 20 100 44 0 24 -45 72 -100 106 -55 34 -100 14 -100 -44z"/>
<path d="M1809 23084 c-353 -51 -713 -136 -800 -189 -112 -69 -71 -76 141 -24 165 41 626 66 1025 56 578 -15 725 11 725 127 0 163 -132 167 -1091 30z"/>
<path d="M3100 23050 c-107 -129 -70 -150 263 -147 362 3 374 13 193 150 -243 184 -301 184 -456 -3z"/>
<path d="M7200 23126 c0 -50 113 -197 250 -326 294 -276 339 -698 75 -704 -118 -3 -77 -56 125 -163 405 -215 416 -230 247 -338 -129 -83 -129 -107 3 -193 195 -129 500 -130 500 -2 0 175 292 108 697 -160 216 -143 451 -241 521 -217 71 23 -240 234 -691 469 -757 394 -844 472 -1153 1036 -303 551 -574 834 -574 598z"/>
<path d="M8800 23083 c193 -54 699 -224 1125 -378 426 -154 775 -248 775 -209 0 98 -1802 709 -2050 695 -119 -7 -59 -51 150 -108z"/>
<path d="M10500 23100 c196 -127 328 -127 250 0 -34 55 -138 99 -231 98 -146 -1 -148 -14 -19 -98z"/>
<path d="M4073 22934 c68 -27 203 -29 300 -3 97 25 42 47 -123 50 -165 2 -245 -19 -177 -47z"/>
<path d="M14505 22900 c-2 -179 164 -464 231 -397 26 26 -15 160 -91 297 -80 145 -139 187 -140 100z"/>
<path d="M15100 22656 c0 -189 35 -366 77 -392 42 -26 60 129 39 344 -46 484 -116 513 -116 48z"/>
<path d="M17100 22911 c0 -102 497 -248 576 -169 28 29 -70 99 -219 155 -329 126 -357 127 -357 14z"/>
<path d="M11400 22809 c83 -47 263 -115 400 -151 l250 -66 -250 150 c-137 83 -317 151 -400 151 -133 1 -133 -9 0 -84z"/>
<path d="M400 22700 c-122 -79 -109 -97 69 -98 121 -1 247 43 281 98 79 127 -153 127 -350 0z"/>
<path d="M15619 22550 c-2 -165 19 -245 47 -177 27 68 29 203 3 300 -25 97 -47 42 -50 -123z"/>
<path d="M18036 22549 c363 -189 472 -187 220 4 -107 81 -264 147 -350 146 -86 0 -27 -67 130 -150z"/>
<path d="M3320 22444 c-587 -158 -964 -333 -886 -411 28 -28 316 43 640 158 324 115 721 210 883 211 161 0 361 45 443 98 231 149 -449 114 -1080 -56z"/>
<path d="M4843 22448 c106 -80 217 -121 247 -92 63 63 -191 242 -340 239 -55 -1 -13 -67 93 -147z"/>
<path d="M17525 22393 c206 -109 375 -222 375 -252 0 -30 -105 -198 -234 -373 -129 -175 -337 -498 -464 -718 l-229 -400 415 440 c229 241 441 542 473 667 31 126 123 254 204 285 208 80 81 236 -334 410 -511 213 -648 174 -206 -59z"/>
<path d="M19427 22540 c33 -34 120 -37 192 -8 80 32 56 55 -61 60 -105 4 -164 -19 -131 -52z"/>
<path d="M20150 22461 c220 -74 419 -118 442 -98 79 70 -44 119 -442 175 l-400 57 400 -134z"/>
<path d="M1250 22293 c-385 -107 -824 -223 -975 -257 -151 -33 -275 -123 -275 -198 0 -115 58 -115 375 1 399 146 999 315 1450 408 151 31 275 101 275 155 0 125 -16 123 -850 -109z"/>
<path d="M2375 22434 c69 -28 181 -28 250 0 69 28 13 50 -125 50 -137 0 -194 -22 -125 -50z"/>
<path d="M5500 22457 c0 -48 599 -357 690 -356 33 0 -75 90 -240 199 -288 191 -450 248 -450 157z"/>
<path d="M6900 22300 c83 -53 195 -97 250 -97 55 0 33 44 -50 97 -82 53 -195 97 -250 97 -55 0 -32 -44 50 -97z"/>
<path d="M3758 22165 c-270 -63 -512 -176 -536 -250 -35 -103 -1 -111 141 -35 103 55 400 132 661 171 261 39 449 111 419 160 -64 103 -45 105 -685 -46z"/>
<path d="M16862 22117 c-44 -127 -54 -259 -21 -291 104 -104 176 49 138 290 l-36 234 -81 -233z"/>
<path d="M15582 21967 c-37 -182 -23 -248 40 -185 53 53 79 180 57 282 -29 138 -54 113 -97 -97z"/>
<path d="M18409 22080 c87 -71 138 -191 113 -265 -36 -107 -2 -112 168 -20 173 92 224 84 275 -47 34 -89 14 -209 -45 -268 -194 -194 66 -446 417 -404 214 26 271 9 180 -55 -109 -76 -104 -105 25 -154 292 -112 168 223 -142 383 -265 137 -424 453 -225 448 161 -3 347 -181 289 -275 -34 -55 50 -122 187 -148 342 -65 325 173 -26 363 -455 245 -878 434 -1134 505 -209 58 -220 50 -82 -63z"/>
<path d="M4917 22000 c18 -55 67 -100 108 -100 596 0 621 5 475 100 -198 128 -626 128 -583 0z"/>
<path d="M6541 21934 c306 -165 859 -347 859 -282 0 59 -911 449 -1038 444 -61 -2 19 -75 179 -162z"/>
<path d="M14777 21575 c-23 -289 -6 -592 38 -675 46 -88 80 131 82 525 4 804 -61 885 -120 150z"/>
<path d="M15884 21650 c-19 -247 -1 -450 40 -450 42 0 76 203 76 450 0 248 -18 450 -40 450 -22 0 -56 -202 -76 -450z"/>
<path d="M4050 21900 c-200 -86 -200 -86 0 -86 110 0 290 39 400 86 200 86 200 86 0 86 -110 0 -290 -39 -400 -86z"/>
<path d="M16300 21658 c0 -188 -29 -424 -65 -525 -43 -124 -31 -151 38 -83 133 131 235 950 117 950 -49 0 -90 -154 -90 -342z"/>
<path d="M10900 21814 c0 -179 214 -244 840 -258 730 -16 892 -95 801 -389 -63 -201 -54 -206 121 -67 103 83 289 207 413 276 188 105 225 102 225 -19 0 -80 44 -172 97 -205 57 -35 92 87 84 294 -15 402 -43 419 -298 188 -162 -146 -234 -150 -608 -33 -234 73 -560 141 -725 150 -165 10 -446 51 -625 91 -202 46 -325 35 -325 -28z"/>
<path d="M1900 21389 c-777 -423 -1649 -1073 -1560 -1163 29 -28 357 172 731 445 373 272 814 550 979 616 341 136 852 508 700 509 -55 1 -437 -182 -850 -407z"/>
<path d="M3128 21489 c-374 -181 -898 -567 -1314 -970 -381 -368 -952 -907 -1267 -1197 -316 -291 -546 -557 -511 -591 61 -62 876 660 1764 1563 628 639 1080 953 1575 1093 251 72 425 181 425 267 0 80 -11 144 -25 141 -14 -3 -305 -141 -647 -306z"/>
<path d="M6300 21718 c0 -97 334 -217 600 -214 133 2 133 12 0 87 -273 155 -600 224 -600 127z"/>
<path d="M4950 21600 c34 -55 273 -97 531 -93 354 5 420 28 269 93 -284 122 -875 122 -800 0z"/>
<path d="M16802 21475 c1 -182 20 -196 98 -75 125 194 125 300 0 300 -55 0 -99 -101 -98 -225z"/>
<path d="M18419 21350 c-2 -165 19 -245 47 -177 27 68 29 203 3 300 -25 97 -47 42 -50 -123z"/>
<path d="M477 21266 c-455 -208 -614 -371 -352 -361 69 2 372 135 675 295 640 338 386 390 -323 66z"/>
<path d="M6050 21400 c34 -55 125 -100 203 -100 77 0 487 -113 910 -251 422 -138 791 -228 819 -200 77 77 34 96 -854 384 -870 283 -1179 331 -1078 167z"/>
<path d="M7200 21400 c83 -53 218 -94 300 -91 99 3 82 34 -50 91 -275 118 -433 118 -250 0z"/>
<path d="M18095 21291 c-61 -114 -92 -227 -69 -250 23 -23 93 71 156 209 137 302 70 335 -87 41z"/>
<path d="M4000 21300 c-121 -78 -107 -97 75 -98 124 -1 225 43 225 98 0 125 -106 125 -300 0z"/>
<path d="M20065 21175 c30 -48 -20 -143 -111 -210 -142 -104 -81 -152 440 -339 333 -120 606 -174 606 -119 0 54 -134 125 -298 158 -164 32 -353 126 -420 207 -107 128 -46 138 473 75 327 -40 565 -41 529 -2 -101 108 -1281 331 -1219 230z"/>
<path d="M3494 21028 c-239 -164 -991 -925 -2094 -2118 -354 -383 -710 -658 -998 -770 -247 -96 -397 -192 -333 -213 337 -112 1900 1029 2198 1605 163 316 1046 1222 1394 1431 104 63 164 140 133 173 -31 33 -166 -16 -300 -108z"/>
<path d="M15100 21156 c0 -24 45 -72 100 -106 55 -34 100 -14 100 44 0 58 -45 106 -100 106 -55 0 -100 -20 -100 -44z"/>
<path d="M17520 20830 c-148 -482 -76 -554 80 -80 66 200 100 383 77 407 -24 23 -95 -124 -157 -327z"/>
<path d="M4380 20941 c-259 -79 -502 -196 -541 -260 -50 -81 -15 -91 120 -35 105 45 371 146 591 225 713 258 597 306 -170 70z"/>
<path d="M5473 21034 c68 -27 203 -29 300 -3 97 25 42 47 -123 50 -165 2 -245 -19 -177 -47z"/>
<path d="M8850 20788 c448 -204 650 -234 650 -94 0 153 -203 235 -640 256 l-410 21 400 -183z"/>
<path d="M16162 20746 c-34 -89 -58 -237 -53 -329 4 -92 48 -34 96 128 95 316 61 472 -43 201z"/>
<path d="M18271 20528 c-99 -194 -161 -371 -139 -394 72 -71 382 472 349 612 -17 74 -112 -24 -210 -218z"/>
<path d="M5436 20722 c27 -43 190 -89 364 -102 193 -15 290 15 251 78 -34 56 -198 102 -363 102 -165 0 -278 -35 -252 -78z"/>
<path d="M8200 20751 c0 -83 730 -358 843 -318 59 21 -67 112 -280 203 -396 168 -563 202 -563 115z"/>
<path d="M18892 20775 c-43 -130 -70 -594 -29 -500 82 190 310 151 716 -125 202 -137 458 -250 569 -250 260 0 1129 -780 938 -842 -75 -25 -383 -95 -685 -155 -708 -143 -1001 -332 -930 -601 64 -247 190 -338 340 -245 78 48 72 92 -19 148 -105 65 -105 109 2 237 165 199 367 203 442 8 73 -189 269 -192 520 -7 187 137 188 142 5 125 -385 -36 -279 227 118 290 574 92 668 170 509 424 -72 116 -219 223 -327 239 -107 16 -214 85 -237 154 -27 82 22 105 143 66 133 -44 117 -6 -60 139 -227 185 -231 201 -50 239 155 33 140 52 -77 96 -149 31 -261 28 -250 -5 11 -33 -25 -60 -80 -60 -55 0 -90 29 -78 65 12 36 -53 126 -144 200 -144 118 -157 112 -97 -47 55 -146 24 -176 -156 -150 -147 21 -215 91 -197 201 20 121 -81 200 -350 275 -381 106 -521 127 -536 81z"/>
<path d="M4650 20600 c-79 -128 252 -128 450 0 117 76 91 97 -119 98 -148 1 -297 -43 -331 -98z"/>
<path d="M9814 20509 c130 -106 258 -169 286 -142 58 58 -296 333 -430 333 -51 0 14 -86 144 -191z"/>
<path d="M14008 20558 c-4 -105 19 -164 52 -131 34 33 37 120 8 192 -32 80 -55 56 -60 -61z"/>
<path d="M3400 20400 c-90 -58 -102 -98 -31 -98 66 -1 147 43 181 98 77 124 42 124 -150 0z"/>
<path d="M17656 20329 c-54 -142 -42 -154 56 -56 69 68 99 149 69 180 -31 30 -87 -25 -125 -124z"/>
<path d="M3675 20047 c-261 -192 -475 -424 -475 -517 0 -135 54 -117 275 91 151 142 450 376 664 519 272 182 332 259 200 258 -104 -2 -403 -160 -664 -351z"/>
<path d="M16450 20300 c-34 -55 -14 -100 44 -100 58 0 106 45 106 100 0 55 -20 100 -44 100 -24 0 -72 -45 -106 -100z"/>
<path d="M6068 20235 c-143 -143 57 -206 539 -170 325 24 760 -36 1188 -164 761 -226 840 -238 762 -112 -126 204 -2334 600 -2489 446z"/>
<path d="M5020 20101 c-525 -124 -517 -235 12 -166 558 73 988 264 568 252 -137 -4 -399 -43 -580 -86z"/>
<path d="M17000 19950 c-71 -85 -106 -177 -79 -205 28 -27 108 20 179 105 71 85 106 177 79 205 -28 27 -108 -20 -179 -105z"/>
<path d="M17446 19993 c-36 -58 -45 -128 -18 -154 26 -26 74 22 107 107 67 176 9 207 -89 47z"/>
<path d="M14200 19800 c0 -55 20 -100 44 -100 24 0 72 45 106 100 34 55 14 100 -44 100 -58 0 -106 -45 -106 -100z"/>
<path d="M9250 19718 c55 -57 235 -132 400 -167 207 -44 254 -34 150 31 -243 152 -666 258 -550 136z"/>
<path d="M18008 19658 c-4 -105 19 -164 52 -131 34 33 37 120 8 192 -32 80 -55 56 -60 -61z"/>
<path d="M19080 19680 c66 -66 121 -257 123 -425 3 -267 17 -282 111 -119 126 216 -31 664 -232 664 -95 0 -95 -27 -2 -120z"/>
<path d="M22970 19300 c31 -302 73 -569 94 -592 70 -80 15 644 -67 892 -54 161 -64 55 -27 -300z"/>
<path d="M8921 19587 c21 -62 268 -198 549 -303 281 -105 539 -262 572 -350 45 -117 15 -144 -116 -103 -603 190 -656 198 -586 85 40 -64 148 -118 241 -120 93 -1 282 -67 419 -146 346 -198 47 -198 -635 -1 -764 221 -1462 336 -1516 250 -53 -86 290 -196 619 -198 120 0 277 -57 350 -126 73 -69 290 -129 482 -133 193 -5 545 -99 783 -210 388 -180 418 -217 282 -353 -118 -118 -126 -180 -34 -279 95 -101 73 -116 -106 -73 -124 30 -225 10 -225 -43 0 -54 -90 -69 -200 -34 -110 35 -200 18 -200 -37 0 -55 79 -119 175 -144 262 -66 1225 -77 1225 -14 0 30 -70 191 -156 357 -114 221 -127 338 -48 433 82 99 24 205 -244 440 -194 170 -352 377 -352 461 0 84 -263 284 -597 453 -659 332 -737 354 -682 188z"/>
<path d="M14920 19501 c-182 -43 -361 -108 -398 -146 -78 -78 903 39 1278 152 208 63 183 76 -150 74 -220 -1 -549 -37 -730 -80z"/>
<path d="M19818 19478 c-65 -65 -118 -187 -118 -270 0 -105 50 -81 160 76 176 251 147 383 -42 194z"/>
<path d="M4000 19307 c-192 -106 -448 -239 -567 -295 -242 -113 -1862 -1752 -1920 -1941 -20 -67 340 241 800 684 844 813 1267 1076 1927 1200 198 37 360 112 360 167 0 56 -76 67 -175 26 -284 -119 -681 -182 -600 -95 42 45 244 160 450 256 206 96 308 178 225 183 -82 4 -307 -79 -500 -185z"/>
<path d="M10100 19356 c0 -24 45 -72 100 -106 55 -34 100 -14 100 44 0 58 -45 106 -100 106 -55 0 -100 -20 -100 -44z"/>
<path d="M12944 19243 c-187 -152 -185 -155 56 -86 138 39 430 66 650 59 291 -9 359 14 250 84 -230 149 -740 118 -956 -57z"/>
<path d="M22643 18846 c0 -300 35 -546 78 -546 102 0 100 812 -1 971 -42 67 -77 -124 -77 -425z"/>
<path d="M10500 19225 c1 -143 948 -468 1275 -437 305 29 85 181 -282 195 -225 9 -505 84 -623 167 -235 164 -370 192 -370 75z"/>
<path d="M15100 19100 c-326 -69 -313 -75 175 -87 292 -7 525 31 525 87 0 111 -175 111 -700 0z"/>
<path d="M808 18858 c-125 -133 -358 -296 -518 -362 -273 -113 -397 -296 -201 -296 141 0 1044 648 1088 780 66 199 -128 135 -369 -122z"/>
<path d="M16327 19040 c33 -34 120 -37 192 -8 80 32 56 55 -61 60 -105 4 -164 -19 -131 -52z"/>
<path d="M19199 18749 c-209 -216 -434 -349 -589 -349 -182 0 -220 -30 -140 -110 60 -60 196 -83 301 -49 221 70 890 731 815 806 -27 28 -202 -107 -387 -298z"/>
<path d="M14150 18900 c-126 -54 -145 -86 -50 -86 82 0 240 39 350 86 126 54 145 86 50 86 -82 0 -240 -39 -350 -86z"/>
<path d="M21434 18776 c-217 -99 -395 -476 -225 -476 50 0 91 68 91 150 0 131 183 200 425 162 41 -7 75 30 75 82 0 156 -138 187 -366 82z"/>
<path d="M15075 18676 c-815 -140 -716 -256 122 -143 384 52 674 133 645 181 -30 47 -85 80 -123 73 -38 -7 -328 -57 -644 -111z"/>
<path d="M16373 18734 c68 -27 203 -29 300 -3 97 25 42 47 -123 50 -165 2 -245 -19 -177 -47z"/>
<path d="M16975 18734 c69 -28 181 -28 250 0 69 28 13 50 -125 50 -137 0 -194 -22 -125 -50z"/>
<path d="M4100 18400 c0 -55 87 -100 194 -100 107 0 222 45 256 100 35 57 -49 100 -194 100 -141 0 -256 -45 -256 -100z"/>
<path d="M1684 18175 c-407 -374 -1043 -781 -1347 -863 -158 -42 -302 -154 -320 -249 -31 -160 -8 -162 334 -19 202 84 667 387 1033 673 892 695 880 683 701 683 -86 0 -266 -101 -401 -225z"/>
<path d="M2849 18099 c-183 -191 -234 -298 -143 -296 146 3 549 476 472 553 -24 23 -171 -93 -329 -257z"/>
<path d="M13800 18300 c0 -55 20 -100 44 -100 24 0 72 45 106 100 34 55 14 100 -44 100 -58 0 -106 -45 -106 -100z"/>
<path d="M15450 18300 c-258 -111 665 -111 1100 0 239 61 177 77 -300 81 -330 3 -690 -34 -800 -81z"/>
<path d="M3225 17894 c-179 -167 -325 -357 -325 -422 0 -65 101 -17 225 106 124 123 338 312 475 420 168 131 201 196 100 198 -83 2 -296 -134 -475 -302z"/>
<path d="M4248 18061 c-104 -76 -237 -123 -294 -103 -142 49 -507 -238 -417 -328 40 -40 160 -18 268 50 163 102 195 95 195 -40 0 -106 54 -141 158 -101 87 34 177 61 200 61 23 0 42 53 42 117 0 65 74 200 165 300 138 152 141 183 20 183 -81 0 -232 -62 -337 -139z"/>
<path d="M9100 18100 c0 -55 42 -100 94 -100 52 0 122 45 156 100 34 55 -8 100 -94 100 -86 0 -156 -45 -156 -100z"/>
<path d="M9650 18100 c34 -55 160 -97 281 -93 211 7 212 10 19 93 -275 118 -373 118 -300 0z"/>
<path d="M14189 18109 c82 -52 117 -176 85 -299 -31 -115 -14 -210 35 -210 50 0 91 68 91 150 0 83 44 150 97 150 53 0 71 68 39 150 -31 83 -154 149 -272 148 -162 -1 -180 -22 -75 -89z"/>
<path d="M22400 18112 c0 -55 45 -128 100 -162 55 -34 100 -17 100 38 0 55 -45 128 -100 162 -55 34 -100 17 -100 -38z"/>
<path d="M17975 17834 c69 -28 181 -28 250 0 69 28 13 50 -125 50 -137 0 -194 -22 -125 -50z"/>
<path d="M8957 17633 c-71 -185 94 -329 379 -331 132 -2 167 46 121 165 -35 92 -6 204 65 248 82 52 14 82 -186 83 -203 1 -337 -57 -379 -165z"/>
<path d="M20400 17700 c0 -55 42 -100 94 -100 52 0 122 45 156 100 34 55 -8 100 -94 100 -86 0 -156 -45 -156 -100z"/>
<path d="M2012 17201 c-261 -226 -409 -425 -366 -495 88 -142 354 45 354 248 0 71 124 219 275 330 151 110 252 221 225 248 -28 26 -247 -123 -488 -331z"/>
<path d="M3719 17532 c-73 -29 -172 -159 -222 -290 -82 -216 -765 -607 -872 -500 -78 78 87 269 310 359 215 86 215 86 5 93 -218 6 -540 -276 -540 -475 0 -142 -400 -411 -696 -468 -121 -23 -306 -70 -412 -104 -263 -83 -242 95 33 280 124 83 188 190 142 237 -46 47 -136 14 -201 -75 -64 -88 -218 -192 -343 -232 -124 -39 -200 -113 -169 -164 32 -51 -12 -93 -98 -93 -86 0 -156 42 -156 93 0 137 295 407 445 407 72 0 187 68 255 150 194 234 20 178 -466 -150 -244 -165 -509 -300 -589 -300 -80 0 -145 -68 -145 -150 0 -101 107 -153 325 -159 179 -4 482 -16 675 -25 193 -9 410 41 483 110 73 69 184 95 245 57 81 -50 79 -81 -8 -110 -66 -22 -120 -82 -120 -135 0 -124 425 99 531 279 45 75 117 115 161 88 43 -27 183 62 311 198 127 136 313 247 411 247 187 0 886 634 886 803 0 54 -11 93 -25 89 -14 -4 -84 -31 -156 -60z"/>
<path d="M7550 17500 c-220 -56 -94 -79 475 -88 458 -7 775 29 775 88 0 114 -801 114 -1250 0z"/>
<path d="M13350 17400 c-103 -113 -131 -200 -65 -200 63 0 115 35 115 78 0 43 122 88 271 101 400 33 540 221 164 221 -177 0 -379 -83 -485 -200z"/>
<path d="M14946 17493 c-36 -58 -42 -130 -13 -160 72 -71 267 55 267 173 0 128 -173 119 -254 -13z"/>
<path d="M19831 17353 c-365 -321 -173 -321 219 0 165 135 246 246 181 247 -66 0 -246 -111 -400 -247z"/>
<path d="M11919 17332 c-237 -84 -408 -176 -380 -204 94 -94 738 74 863 225 149 179 74 176 -483 -21z"/>
<path d="M14155 16950 c-202 -247 -324 -450 -269 -450 55 0 236 203 404 450 167 248 288 450 269 450 -19 0 -201 -202 -404 -450z"/>
<path d="M5011 17088 c-125 -116 -438 -291 -694 -388 -257 -96 -557 -211 -667 -255 -199 -79 -199 -78 -2 146 l198 226 -298 -130 c-164 -72 -478 -274 -698 -449 -220 -175 -557 -387 -750 -470 -192 -84 -282 -154 -200 -158 225 -9 919 336 1180 587 127 121 292 197 367 168 254 -97 2051 656 2052 860 2 146 -265 72 -488 -137z"/>
<path d="M15327 17140 c33 -34 120 -37 192 -8 80 32 56 55 -61 60 -105 4 -164 -19 -131 -52z"/>
<path d="M4210 16992 c-131 -53 -216 -119 -188 -147 58 -58 578 124 578 203 0 72 -108 56 -390 -56z"/>
<path d="M12300 16941 l-350 -144 347 54 c191 29 391 97 445 151 134 134 -18 113 -442 -61z"/>
<path d="M13650 17000 c-34 -55 -17 -100 38 -100 55 0 128 45 162 100 34 55 17 100 -38 100 -55 0 -128 -45 -162 -100z"/>
<path d="M14724 17033 c-70 -28 -176 -143 -237 -257 -107 -200 -101 -200 201 16 394 280 410 392 36 241z"/>
<path d="M7150 16700 l-300 -76 300 -11 c165 -5 368 34 450 87 133 86 133 96 0 87 -82 -6 -285 -45 -450 -87z"/>
<path d="M8075 16734 c69 -28 181 -28 250 0 69 28 13 50 -125 50 -137 0 -194 -22 -125 -50z"/>
<path d="M11450 16700 c-34 -55 6 -100 88 -100 83 0 178 45 212 100 34 55 -6 100 -88 100 -83 0 -178 -45 -212 -100z"/>
<path d="M4782 16571 c-73 -71 -334 -207 -582 -303 -247 -95 -538 -240 -645 -321 -257 -196 -88 -358 243 -231 184 70 213 115 114 177 -207 128 49 238 368 158 148 -37 237 -35 198 4 -79 80 342 445 513 445 60 0 109 45 109 100 0 139 -160 125 -318 -29z"/>
<path d="M14900 16600 c0 -55 45 -100 100 -100 55 0 100 45 100 100 0 55 -45 100 -100 100 -55 0 -100 -45 -100 -100z"/>
<path d="M14583 16475 c-146 -118 -324 -475 -237 -475 22 0 137 135 254 300 231 324 226 371 -17 175z"/>
<path d="M13400 16350 c-69 -84 -80 -150 -24 -150 55 0 156 68 224 150 69 84 80 150 24 150 -55 0 -156 -67 -224 -150z"/>
<path d="M4975 16231 c-96 -25 -175 -92 -175 -149 0 -57 71 -76 158 -43 87 34 222 61 300 61 78 0 142 45 142 100 0 103 -118 111 -425 31z"/>
<path d="M8238 16219 c48 -77 762 -38 762 42 0 21 -183 39 -406 39 -223 0 -383 -36 -356 -81z"/>
<path d="M14800 16050 c-129 -137 -190 -250 -135 -250 55 0 206 113 335 250 129 138 190 250 135 250 -55 0 -206 -112 -335 -250z"/>
<path d="M15808 16181 c-10 -219 113 -292 297 -176 122 77 118 92 -22 93 -91 1 -189 58 -217 127 -31 77 -53 60 -58 -44z"/>
<path d="M7375 16034 c69 -28 181 -28 250 0 69 28 13 50 -125 50 -137 0 -194 -22 -125 -50z"/>
<path d="M9575 16028 c-151 -23 -275 -88 -275 -145 0 -58 71 -77 158 -44 87 34 267 61 400 61 133 0 242 45 242 100 0 101 -32 103 -525 28z"/>
<path d="M6254 15927 c-245 -62 -675 -339 -617 -397 24 -24 262 70 528 208 471 246 493 292 89 189z"/>
<path d="M16100 15791 c-310 -178 -319 -195 -84 -146 146 30 348 82 450 116 101 35 14 -57 -193 -204 -207 -147 -418 -241 -468 -210 -50 31 -119 -35 -155 -146 -35 -111 -150 -248 -257 -305 -232 -124 -271 -520 -43 -432 82 31 150 145 150 251 0 113 128 265 307 365 169 93 401 249 516 345 114 96 273 175 353 175 91 0 123 59 85 158 -34 87 -61 177 -61 200 0 97 -273 20 -600 -167z"/>
<path d="M4813 15734 c-185 -79 -312 -168 -283 -197 29 -29 144 -5 255 55 111 59 337 108 503 108 165 0 321 34 346 75 83 134 -475 106 -821 -41z"/>
<path d="M8200 15787 c-137 -56 -497 -147 -800 -203 -303 -56 -617 -162 -700 -236 -82 -73 -195 -144 -250 -156 -55 -13 -246 -84 -426 -159 -467 -195 -1477 -414 -2174 -471 -747 -61 -742 -59 -500 -156 110 -43 304 -40 432 7 127 48 371 87 543 87 392 0 1519 268 1955 465 182 82 484 174 671 205 187 30 331 102 320 159 -20 98 203 165 1054 314 206 36 375 109 375 162 0 119 -176 112 -500 -18z"/>
<path d="M8827 15840 c33 -34 120 -37 192 -8 80 32 56 55 -61 60 -105 4 -164 -19 -131 -52z"/>
<path d="M3084 15613 c-151 -176 -146 -188 78 -188 131 0 238 39 238 88 0 48 -48 87 -106 87 -58 0 -78 45 -44 100 101 164 6 114 -166 -87z"/>
<path d="M15017 15568 c-119 -127 -217 -269 -217 -317 0 -47 -79 -175 -175 -284 -169 -192 -167 -196 50 -142 248 62 290 -20 105 -205 -89 -89 -90 -120 -4 -120 166 0 342 369 307 642 -17 126 32 305 107 397 218 261 69 286 -173 29z"/>
<path d="M0 15350 c0 -168 57 -253 175 -258 96 -5 438 -42 760 -82 445 -55 598 -41 636 59 59 153 329 178 329 31 0 -55 191 -94 425 -86 272 8 335 29 175 58 -137 25 -293 86 -345 136 -141 137 -829 111 -897 -33 -46 -100 -70 -100 -116 0 -32 69 -215 125 -406 125 -227 0 -324 38 -280 110 42 67 227 86 481 50 227 -33 481 -15 563 39 105 68 -99 98 -675 99 -814 2 -825 -1 -825 -248z"/>
<path d="M5025 15475 c-179 -57 -325 -140 -325 -184 0 -45 169 -11 375 75 601 249 573 309 -50 109z"/>
<path d="M14423 15400 c-104 -167 -100 -200 26 -200 84 0 151 88 151 200 0 110 -12 200 -26 200 -14 0 -82 -90 -151 -200z"/>
<path d="M2344 15345 c-186 -149 -184 -153 56 -89 309 82 500 244 289 244 -83 0 -238 -70 -345 -155z"/>
<path d="M5744 15353 c-251 -190 -60 -193 370 -7 314 137 320 146 80 150 -141 2 -343 -62 -450 -143z"/>
<path d="M3300 15245 c-241 -133 -242 -138 -31 -141 121 -2 249 44 285 103 107 172 13 186 -254 38z"/>
<path d="M16650 15200 c-78 -127 54 -127 250 0 129 84 127 97 -19 98 -93 1 -197 -43 -231 -98z"/>
<path d="M4081 15094 c-19 -58 -281 -165 -583 -239 -301 -73 -444 -138 -317 -144 355 -17 1100 195 1228 350 92 111 74 139 -88 139 -113 0 -220 -48 -240 -106z"/>
<path d="M4925 15129 c-124 -23 -225 -79 -225 -122 0 -102 486 -11 557 105 30 48 18 82 -26 74 -45 -7 -182 -33 -306 -57z"/>
<path d="M7400 15100 c-82 -49 -420 -162 -750 -253 -772 -211 -1100 -392 -1100 -608 -1 -95 -57 -191 -125 -214 -69 -23 -125 -100 -125 -171 0 -101 79 -94 350 29 368 167 459 317 192 317 -608 0 816 592 2158 897 l350 80 -400 6 c-220 3 -467 -35 -550 -83z"/>
<path d="M18050 15000 c-36 -58 64 -100 238 -100 165 0 328 45 362 100 36 58 -64 100 -238 100 -165 0 -328 -45 -362 -100z"/>
<path d="M16725 14929 c-124 -23 -225 -90 -225 -148 0 -59 97 -78 225 -44 124 33 281 61 350 62 69 0 125 46 125 101 0 102 -75 106 -475 29z"/>
<path d="M91 14783 c-103 -72 -64 -86 142 -53 155 25 470 1 700 -54 668 -158 886 -196 1425 -246 417 -38 509 -18 509 112 0 100 -96 163 -259 172 -142 8 -505 26 -808 40 -302 14 -779 48 -1059 76 -280 29 -572 7 -650 -47z"/>
<path d="M16000 14806 c0 -58 45 -106 100 -106 55 0 100 20 100 44 0 24 -45 72 -100 106 -55 34 -100 14 -100 -44z"/>
<path d="M17344 14658 c-106 -78 -171 -165 -142 -193 28 -28 163 35 299 140 285 218 138 269 -157 53z"/>
<path d="M6400 14400 c-124 -80 -116 -97 50 -97 110 0 268 44 350 97 124 80 116 97 -50 97 -110 0 -267 -44 -350 -97z"/>
<path d="M200 14193 c0 -111 79 -172 225 -173 124 0 540 -21 925 -47 758 -51 1322 55 850 159 -385 85 -1208 193 -1625 215 -296 15 -375 -18 -375 -154z"/>
<path d="M5100 14306 c0 -58 45 -106 100 -106 55 0 100 20 100 44 0 24 -45 72 -100 106 -55 34 -100 14 -100 -44z"/>
<path d="M7878 14211 c-255 -42 -349 -99 -298 -181 54 -86 186 -93 473 -27 546 127 1352 120 1740 -15 209 -74 356 -79 420 -15 222 222 -1411 389 -2335 238z"/>
<path d="M15956 14129 c-54 -142 -42 -154 56 -56 69 68 99 149 69 180 -31 30 -87 -25 -125 -124z"/>
<path d="M4200 14098 c0 -60 112 -75 275 -36 393 94 406 138 42 138 -174 0 -317 -46 -317 -102z"/>
<path d="M2500 13985 c0 -108 1083 -99 1350 11 128 53 -78 81 -575 78 -426 -2 -775 -42 -775 -89z"/>
<path d="M15300 13900 c0 -55 45 -100 100 -100 55 0 100 45 100 100 0 55 -45 100 -100 100 -55 0 -100 -45 -100 -100z"/>
<path d="M68 13834 c-38 -37 -68 -98 -68 -135 0 -72 791 -259 1466 -345 370 -48 410 -33 366 136 -40 152 -180 202 -716 255 -366 37 -737 87 -823 112 -87 25 -188 15 -225 -23z"/>
<path d="M4214 13746 c-186 -80 -422 -146 -525 -146 -104 0 -189 -45 -189 -100 0 -56 -274 -99 -625 -98 -388 0 -573 34 -489 87 74 47 96 110 49 140 -48 29 -165 -3 -259 -73 -159 -115 -153 -134 72 -237 134 -61 392 -94 573 -73 181 20 602 67 936 103 642 70 713 99 930 376 176 225 12 232 -473 21z"/>
<path d="M12307 13514 c-114 -223 -207 -487 -206 -585 1 -98 114 64 252 361 295 632 257 817 -46 224z"/>
<path d="M7225 12797 c-328 -132 -275 -202 100 -130 568 108 253 -37 -575 -266 -778 -214 -1341 -503 -700 -359 894 202 1340 284 1700 313 762 61 1266 128 1310 172 25 25 -236 70 -580 101 -344 32 -641 105 -661 165 -42 127 -283 129 -594 4z"/>
<path d="M9200 12656 c0 -24 45 -72 100 -106 55 -34 100 -14 100 44 0 58 -45 106 -100 106 -55 0 -100 -20 -100 -44z"/>
<path d="M5100 12450 l-350 -135 313 -7 c172 -5 369 60 437 142 149 179 66 179 -400 0z"/>
<path d="M4100 12400 c-122 -79 -109 -100 75 -113 124 -10 278 -21 342 -27 64 -5 135 46 158 115 50 150 -355 167 -575 25z"/>
<path d="M3025 12076 c-289 -110 -525 -235 -525 -277 0 -137 545 -50 797 127 136 96 302 174 369 174 67 0 150 45 184 100 93 151 -239 101 -825 -124z"/>
<path d="M5259 12213 c-177 -38 -301 -135 -317 -249 -23 -157 19 -177 278 -125 168 34 342 61 386 61 45 0 75 90 67 200 -9 110 -40 195 -69 188 -30 -6 -185 -40 -345 -75z"/>
<path d="M5350 11438 c-828 -243 -644 -251 399 -15 330 74 555 161 500 193 -54 32 -459 -48 -899 -178z"/>
<path d="M8000 11540 l-250 -152 347 58 c394 66 659 256 348 250 -107 -1 -307 -72 -445 -156z"/>
<path d="M6400 11395 c0 -182 40 -196 375 -132 206 40 465 67 575 60 197 -11 197 -9 6 133 -107 79 -366 144 -575 144 -317 0 -381 -34 -381 -205z"/>
<path d="M5800 11200 c-128 -83 -125 -97 25 -98 96 -1 175 43 175 98 0 122 -11 122 -200 0z"/>
<path d="M12917 11047 c-62 -136 -175 -247 -251 -247 -89 0 -162 -166 -203 -466 -81 -591 -9 -676 131 -156 59 219 177 456 262 527 219 182 360 473 259 536 -47 29 -136 -58 -198 -194z"/>
<path d="M3835 11101 c-256 -104 -401 -303 -216 -297 72 2 289 91 481 196 256 140 296 191 150 189 -110 -1 -297 -41 -415 -88z"/>
<path d="M5100 11000 c-82 -53 -105 -97 -50 -97 55 0 168 44 250 97 83 53 105 97 50 97 -55 0 -167 -44 -250 -97z"/>
<path d="M4200 10800 c-121 -78 -105 -97 81 -98 129 -1 203 42 169 98 -74 120 -64 120 -250 0z"/>
<path d="M8673 10754 c-428 -223 -2075 -534 -2548 -481 -260 29 -425 7 -425 -57 0 -57 34 -125 75 -150 207 -128 3360 547 3482 745 85 139 -277 103 -584 -57z"/>
<path d="M2841 10732 c-293 -58 -1018 -832 -1060 -1132 -20 -137 -91 -239 -158 -225 -68 14 -123 -23 -123 -82 0 -236 339 -23 441 278 116 340 795 1029 1016 1029 72 0 159 45 193 100 34 55 25 94 -19 86 -45 -7 -175 -32 -290 -54z"/>
<path d="M3600 10495 l-250 -200 275 118 c151 66 275 157 275 203 0 114 -14 109 -300 -121z"/>
<path d="M5450 10627 c-220 -22 -445 -88 -500 -147 -70 -75 1 -88 238 -43 185 35 523 64 750 65 303 1 372 27 262 98 -82 53 -195 90 -250 82 -55 -9 -280 -34 -500 -55z"/>
<path d="M11043 10152 c-169 -128 -172 -146 -24 -149 93 -2 199 45 235 104 109 176 -6 201 -211 45z"/>
<path d="M8156 10088 c-553 -130 -586 -210 -52 -129 456 69 909 243 596 228 -82 -4 -327 -49 -544 -99z"/>
<path d="M2864 10023 c-26 -42 124 -60 332 -41 303 29 411 -8 535 -186 113 -161 206 -201 338 -144 169 74 168 82 -19 125 -110 25 -236 108 -280 184 -84 147 -822 197 -906 62z"/>
<path d="M11511 10007 c-86 -53 -96 -105 -29 -146 57 -35 134 -16 171 44 92 149 19 201 -142 102z"/>
<path d="M4700 9807 c-730 -92 -323 -189 650 -154 1254 45 1719 197 627 205 -455 3 -1029 -20 -1277 -51z"/>
<path d="M9000 9750 c-328 -188 -116 -190 314 -4 232 101 274 146 136 147 -110 0 -312 -64 -450 -143z"/>
<path d="M2703 9604 c-200 -126 -95 -209 175 -139 121 32 195 98 165 146 -69 112 -154 110 -340 -7z"/>
<path d="M10958 9494 c-106 -107 -147 -194 -91 -194 56 0 183 90 283 200 232 256 63 251 -192 -6z"/>
<path d="M12266 9181 c-55 -470 -29 -685 71 -573 74 84 132 1092 62 1092 -39 0 -99 -234 -133 -519z"/>
<path d="M8427 9540 c33 -34 120 -37 192 -8 80 32 56 55 -61 60 -105 4 -164 -19 -131 -52z"/>
<path d="M7425 9373 c-289 -56 -525 -143 -525 -194 0 -51 79 -69 175 -41 96 28 344 81 551 118 207 37 401 107 431 155 30 49 18 83 -26 76 -45 -7 -317 -59 -606 -114z"/>
<path d="M9200 9289 c-302 -108 -1067 -308 -1700 -444 l-1150 -247 795 55 c437 31 854 104 925 164 84 69 130 71 130 6 0 -56 -67 -128 -150 -159 -82 -32 -150 -107 -150 -168 0 -60 131 -17 290 97 160 114 361 207 447 207 85 0 236 84 334 187 98 102 346 217 550 254 205 37 399 110 431 163 87 140 -131 107 -752 -115z"/>
<path d="M11050 9047 c-220 -135 -347 -246 -283 -246 159 -1 732 331 732 424 1 101 6 103 -449 -178z"/>
<path d="M150 9100 c273 -117 350 -117 350 0 0 55 -124 97 -275 93 -244 -6 -252 -17 -75 -93z"/>
<path d="M2400 9108 c0 -131 497 -286 1125 -351 359 -37 575 -21 575 42 0 88 -365 147 -788 126 -76 -4 -312 54 -525 130 -213 75 -387 99 -387 53z"/>
<path d="M4800 9100 c0 -55 42 -100 94 -100 52 0 122 45 156 100 34 55 -8 100 -94 100 -86 0 -156 -45 -156 -100z"/>
<path d="M5850 9100 c-70 -114 252 -114 700 0 269 69 252 78 -169 88 -258 7 -497 -33 -531 -88z"/>
<path d="M850 9000 c34 -55 129 -100 212 -100 82 0 122 45 88 100 -34 55 -129 100 -212 100 -82 0 -122 -45 -88 -100z"/>
<path d="M5327 9040 c33 -34 120 -37 192 -8 80 32 56 55 -61 60 -105 4 -164 -19 -131 -52z"/>
<path d="M0 8757 c0 -115 100 -156 375 -154 384 3 326 96 -150 242 -167 51 -225 28 -225 -88z"/>
<path d="M1933 8828 c81 -132 567 -229 567 -114 0 47 -34 87 -75 87 -41 1 -183 31 -316 66 -154 42 -217 27 -176 -39z"/>
<path d="M11191 8640 c-73 -89 -247 -206 -387 -262 -545 -218 -1969 -578 -2284 -578 -196 0 -306 -41 -270 -100 96 -155 780 -118 1028 56 122 86 465 170 760 188 424 25 636 104 996 369 439 323 566 487 378 487 -48 0 -147 -72 -221 -160z"/>
<path d="M800 8600 c0 -55 90 -100 200 -100 110 0 200 45 200 100 0 55 -90 100 -200 100 -110 0 -200 -45 -200 -100z"/>
<path d="M4850 8600 c-256 -65 -224 -78 225 -88 291 -7 525 33 525 88 0 113 -306 113 -750 0z"/>
<path d="M5700 8600 c0 -55 146 -99 325 -98 247 1 289 24 175 98 -197 127 -500 127 -500 0z"/>
<path d="M9850 8598 c-110 -49 -425 -157 -700 -241 -472 -143 -478 -149 -100 -98 565 76 1150 258 1150 357 0 102 -88 98 -350 -18z"/>
<path d="M2727 8540 c33 -34 120 -37 192 -8 80 32 56 55 -61 60 -105 4 -164 -19 -131 -52z"/>
<path d="M3175 8334 c69 -28 181 -28 250 0 69 28 13 50 -125 50 -137 0 -194 -22 -125 -50z"/>
<path d="M300 8210 c0 -96 604 -339 672 -271 35 35 -542 361 -637 361 -19 0 -35 -41 -35 -90z"/>
<path d="M1900 8211 c0 -49 -180 -161 -400 -249 -625 -251 -469 -385 170 -146 456 171 625 192 850 107 249 -94 280 -83 280 97 0 168 -51 195 -300 159 -165 -25 -300 -7 -300 38 0 46 -67 83 -150 83 -82 0 -150 -40 -150 -89z"/>
<path d="M5750 8099 l-900 -55 1225 -47 c674 -26 1225 -13 1225 28 0 41 -34 80 -75 86 -261 40 -685 37 -1475 -12z"/>
<path d="M7500 8156 c0 -24 45 -72 100 -106 55 -34 100 -14 100 44 0 58 -45 106 -100 106 -55 0 -100 -20 -100 -44z"/>
<path d="M7950 8100 c-34 -55 -14 -100 44 -100 58 0 106 45 106 100 0 55 -20 100 -44 100 -24 0 -72 -45 -106 -100z"/>
<path d="M3700 7850 c-589 -259 -436 -351 165 -100 198 83 455 151 572 152 174 1 186 19 63 98 -194 125 -160 131 -800 -150z"/>
<path d="M10225 7585 c-63 -63 -488 -221 -945 -351 -748 -213 -780 -232 -330 -191 441 40 1550 475 1550 607 0 90 -158 52 -275 -65z"/>
<path d="M10900 7500 c-192 -105 -305 -192 -250 -192 55 0 258 87 450 192 193 105 305 192 250 192 -55 0 -257 -87 -450 -192z"/>
<path d="M7772 7538 c-34 -33 -480 -57 -992 -52 -511 4 -997 -35 -1080 -87 -103 -66 95 -96 631 -97 495 -1 758 -39 719 -102 -34 -55 28 -100 138 -100 311 0 679 169 745 342 60 156 -41 216 -161 96z"/>
<path d="M4451 7302 c-35 -56 7 -102 93 -102 176 0 202 60 63 146 -51 31 -121 12 -156 -44z"/>
<path d="M5150 7316 c-164 -19 -330 -83 -367 -143 -97 -157 -1283 -230 -1283 -79 0 65 -48 88 -107 52 -123 -76 -1245 -320 -1857 -403 -541 -74 -1187 105 -1389 385 l-161 222 32 -243 c24 -185 148 -291 520 -443 483 -198 500 -198 1550 -14 1190 208 2136 271 2214 147 28 -46 261 -38 518 17 687 146 968 574 330 502z"/>
<path d="M3650 7200 c-74 -119 122 -119 400 0 179 77 171 87 -69 93 -148 4 -297 -38 -331 -93z"/>
<path d="M9784 7007 c-311 -154 -691 -312 -844 -350 -152 -39 -325 -133 -384 -210 -58 -77 -556 -372 -1106 -656 -550 -285 -1127 -584 -1281 -665 -335 -175 -290 -293 47 -127 225 110 225 107 -16 -91 -137 -112 -329 -231 -425 -263 -164 -55 -251 -245 -111 -245 35 0 361 196 725 436 363 239 886 556 1161 703 975 520 1494 844 1530 952 20 60 120 109 222 109 103 0 213 44 246 97 33 54 261 186 506 295 245 108 446 222 446 252 0 97 -134 52 -716 -237z"/>
<path d="M7875 6934 c69 -28 181 -28 250 0 69 28 13 50 -125 50 -137 0 -194 -22 -125 -50z"/>
<path d="M5850 6800 c-132 -57 -149 -88 -50 -91 83 -3 218 38 300 91 183 118 25 118 -250 0z"/>
<path d="M7327 6840 c33 -34 120 -37 192 -8 80 32 56 55 -61 60 -105 4 -164 -19 -131 -52z"/>
<path d="M6300 6563 c-412 -124 -791 -222 -842 -219 -50 3 -112 -55 -136 -129 -36 -107 -2 -112 168 -20 118 63 254 90 302 60 48 -30 216 13 373 95 157 82 353 151 435 153 83 2 263 68 400 147 342 196 180 175 -700 -87z"/>
<path d="M3625 6627 c-234 -21 -425 -87 -425 -146 0 -127 798 -22 945 124 60 60 60 89 0 78 -52 -10 -286 -35 -520 -56z"/>
<path d="M0 6518 c0 -221 845 -541 1532 -580 395 -22 842 -61 993 -87 151 -25 275 -6 275 42 0 90 -623 182 -1350 201 -220 6 -618 122 -884 258 -537 275 -566 283 -566 166z"/>
<path d="M7650 6429 c-220 -81 -713 -188 -1095 -238 -382 -50 -742 -142 -800 -204 -77 -84 -39 -95 145 -43 920 264 939 135 50 -344 -357 -192 -612 -362 -568 -377 45 -15 416 157 825 383 409 226 990 503 1293 615 303 112 593 243 645 291 129 120 -9 97 -495 -83z"/>
<path d="M2123 6429 c150 -23 420 -24 600 -1 180 22 57 40 -273 41 -330 1 -477 -18 -327 -40z"/>
<path d="M4006 6086 c-550 -91 -681 -144 -588 -238 83 -83 1582 167 1582 264 0 104 -253 97 -994 -26z"/>
<path d="M5050 5800 c-126 -54 -145 -86 -50 -86 83 0 240 39 350 86 126 54 145 86 50 86 -82 0 -240 -39 -350 -86z"/>
<path d="M1500 5610 c0 -50 146 -148 325 -218 l325 -127 -450 -62 -450 -63 495 -84 c295 -51 508 -47 526 7 17 51 205 75 418 55 213 -20 415 8 449 63 38 61 -132 101 -440 104 -351 2 -581 66 -763 209 -280 220 -435 262 -435 116z"/>
<path d="M3950 5455 c-385 -129 -630 -240 -544 -245 170 -11 1394 383 1394 449 0 69 -125 39 -850 -204z"/>
<path d="M100 5500 c83 -53 218 -94 300 -91 99 3 82 34 -50 91 -275 118 -433 118 -250 0z"/>
<path d="M827 5240 c33 -34 120 -37 192 -8 80 32 56 55 -61 60 -105 4 -164 -19 -131 -52z"/>
<path d="M0 5015 c0 -108 360 -282 844 -408 409 -105 629 -64 295 56 -104 38 -403 151 -664 251 -261 101 -475 146 -475 101z"/>
<path d="M4232 4870 c-95 -153 75 -214 265 -95 146 91 200 90 238 -4 38 -92 70 -93 133 -4 46 64 241 137 433 163 192 25 41 41 -334 35 -376 -6 -707 -49 -735 -95z"/>
<path d="M4250 4400 c-100 -110 -131 -200 -69 -200 62 0 160 90 219 200 59 110 90 200 69 200 -21 0 -119 -90 -219 -200z"/>
<path d="M1550 4400 c34 -55 174 -100 312 -100 141 0 223 44 188 100 -34 55 -174 100 -312 100 -141 0 -223 -44 -188 -100z"/>
<path d="M896 4192 c301 -107 591 -180 646 -161 115 38 -865 373 -1061 362 -72 -4 115 -95 415 -201z"/>
<path d="M3400 4300 c-83 -53 -375 -72 -650 -42 -349 38 -454 24 -347 -45 318 -204 1150 -180 1233 37 66 172 -19 190 -236 50z"/>
<path d="M5202 4253 c-67 -81 -331 -288 -587 -461 -301 -203 -377 -287 -215 -240 328 96 1023 564 1076 723 56 172 -125 157 -274 -22z"/>
<path d="M0 4208 c0 -51 136 -122 302 -158 190 -42 355 -171 448 -349 80 -156 203 -306 273 -334 71 -29 39 -56 -73 -62 -278 -15 -71 -129 752 -413 357 -123 766 -311 911 -418 144 -106 347 -171 450 -144 169 44 165 56 -38 121 -124 40 -225 138 -225 217 0 100 -63 126 -200 82 -110 -35 -200 -20 -200 32 0 53 -114 125 -253 160 -138 35 -331 141 -428 236 -96 94 -346 252 -555 349 -209 97 -361 232 -338 300 23 68 -120 200 -317 295 -414 198 -509 214 -509 86z"/>
<path d="M4196 3992 c-101 -188 -93 -197 91 -99 270 144 361 307 172 307 -83 0 -202 -93 -263 -208z"/>
<path d="M1850 3900 c34 -55 104 -100 156 -100 52 0 94 45 94 100 0 55 -70 100 -156 100 -86 0 -128 -45 -94 -100z"/>
<path d="M1450 3700 c34 -55 131 -100 217 -100 101 0 133 -56 92 -162 -48 -126 -15 -150 150 -107 225 59 691 -107 691 -247 0 -46 45 -84 100 -84 269 0 36 210 -544 490 -691 333 -803 366 -706 210z"/>
<path d="M3300 3661 c0 -22 67 -66 150 -97 83 -32 150 -14 150 39 0 53 -67 97 -150 97 -83 0 -150 -18 -150 -39z"/>
<path d="M3727 3640 c33 -34 120 -37 192 -8 80 32 56 55 -61 60 -105 4 -164 -19 -131 -52z"/>
<path d="M2850 3400 c34 -55 107 -100 162 -100 55 0 72 45 38 100 -34 55 -107 100 -162 100 -55 0 -72 -45 -38 -100z"/>
<path d="M4850 3229 c-110 -27 -244 -90 -297 -141 -124 -118 561 6 692 125 101 93 -50 99 -395 16z"/>
<path d="M0 3052 c0 -124 1336 -659 1485 -595 121 52 68 93 -201 153 -201 46 -529 175 -728 287 -351 197 -556 254 -556 155z"/>
</g>
</svg>