<svg xmlns="http://www.w3.org/2000/svg" version="1.0" width="250" height="250" viewBox="0 0 250.000000 250.000000" preserveAspectRatio="xMidYMid meet">
<metadata>
Created by potrace 1.10, written by Peter Selinger 2001-2011
</metadata>
<g transform="translate(0.000000,250.000000) scale(0.010000,-0.010000)" fill="#555555" stroke="none">
<path d="M1653 24791 c102 -322 74 -1007 -55 -1346 -60 -159 -101 -515 -90 -792 11 -277 10 -978 -2 -1558 -20 -964 0 -1096 236 -1540 182 -342 258 -638 258 -1004 0 -456 -30 -533 -250 -633 -248 -113 -332 -355 -161 -461 48 -30 147 16 219 103 117 141 139 136 208 -51 43 -115 147 -209 231 -209 84 0 153 -72 153 -161 0 -101 -55 -139 -150 -103 -118 45 -150 -27 -150 -339 0 -273 44 -397 139 -397 148 0 305 -290 209 -386 -31 -31 -146 -1 -255 67 -164 103 -208 96 -259 -37 -40 -103 50 -261 252 -446 173 -158 314 -332 314 -386 0 -167 -217 -246 -301 -110 -43 70 -147 101 -230 69 -108 -41 -170 -280 -217 -839 -37 -430 -78 -825 -91 -878 -14 -53 -154 256 -311 688 -279 765 -284 807 -179 1746 205 1843 62 4490 -383 7112 -103 610 -499 1400 -702 1400 -117 0 -94 -3399 28 -4150 141 -865 354 -3085 307 -3182 -75 -150 -106 -20 -163 683 -126 1561 -237 1432 -248 -288 -10 -1640 -4 -1685 190 -1634 137 36 200 3 200 -105 0 -87 -30 -128 -66 -92 -106 106 -334 -139 -334 -358 0 -111 62 -252 137 -313 76 -61 301 -536 501 -1056 200 -520 486 -1124 637 -1342 338 -487 351 -1112 52 -2613 -109 -550 -206 -1202 -216 -1450 -9 -247 -62 -705 -117 -1017 -55 -312 -88 -1370 -73 -2350 20 -1328 -8 -1866 -109 -2108 -134 -320 -391 -476 -272 -165 34 89 -62 388 -214 669 l-276 508 -35 -543 c-45 -700 168 -2113 340 -2250 175 -141 25 -838 -219 -1016 -147 -108 -63 -128 545 -128 l719 0 0 1080 0 1081 358 344 c197 190 418 487 491 661 73 174 231 414 350 533 119 119 274 382 343 584 70 202 234 422 366 488 232 117 244 105 348 -359 106 -471 381 -952 689 -1208 85 -71 155 -235 155 -366 0 -131 47 -238 104 -238 58 0 -10 -195 -150 -434 -140 -238 -254 -548 -254 -688 0 -139 -67 -415 -150 -613 -183 -437 -195 -865 -24 -865 133 0 574 1228 574 1597 0 119 110 361 245 538 135 177 276 514 314 749 38 235 173 571 300 746 403 554 513 800 693 1545 96 399 210 725 252 725 43 0 206 202 362 450 156 247 318 450 359 450 110 0 91 -144 -36 -271 -61 -61 -92 -169 -69 -239 30 -90 104 -66 253 83 247 247 401 175 171 -80 -192 -212 -12 -374 210 -189 207 171 181 470 -52 595 -376 201 -435 470 -206 943 216 446 435 686 717 785 111 39 147 136 115 305 -37 191 3 264 175 319 240 76 393 -70 395 -380 1 -113 65 -169 171 -150 116 20 199 -73 264 -296 139 -472 306 -409 227 85 -151 942 -526 1372 -1031 1181 -131 -49 -246 -44 -281 13 -33 53 10 102 96 109 287 23 339 37 414 112 42 41 -22 75 -141 75 -119 0 -217 51 -217 112 0 81 -40 80 -141 -5 -191 -158 -283 9 -200 363 63 267 58 272 -114 109 -154 -146 -164 -225 -72 -525 59 -195 71 -354 24 -354 -140 0 -220 397 -152 758 98 524 448 562 956 103 220 -199 462 -361 539 -361 76 0 165 -68 197 -152 32 -83 172 -194 310 -247 172 -65 253 -172 253 -333 0 -130 86 -314 190 -409 208 -188 352 -86 205 146 -171 271 -111 403 155 336 189 -47 250 -23 250 98 0 89 -67 161 -150 161 -82 0 -150 45 -150 100 0 55 -62 100 -138 100 -77 0 -211 110 -299 244 -87 134 -282 302 -432 375 -198 95 -329 289 -477 702 -235 660 -347 795 -685 832 -134 15 -339 77 -455 140 -181 97 -264 64 -587 -232 -361 -331 -399 -634 -47 -382 334 240 449 253 584 68 198 -270 176 -486 -39 -392 -328 144 -621 67 -1128 -297 -570 -410 -773 -394 -547 43 83 159 150 361 150 448 0 215 373 936 664 1284 332 397 309 657 -64 732 -165 33 -300 95 -300 137 0 124 613 745 737 747 62 0 219 76 349 168 278 197 205 439 -85 283 -104 -55 -213 -100 -244 -100 -119 0 -50 419 113 679 93 149 176 283 184 297 8 15 213 -61 456 -169 1086 -481 1195 -1107 192 -1107 -392 0 -505 -49 -780 -341 -377 -400 -390 -468 -122 -636 110 -68 200 -192 200 -274 0 -82 45 -149 100 -149 55 0 100 -84 100 -188 0 -287 277 -478 483 -332 92 65 333 208 536 318 334 181 383 185 525 44 86 -86 156 -198 156 -249 0 -51 63 -93 141 -93 171 0 99 -363 -87 -434 -86 -34 -106 -168 -63 -432 34 -211 107 -361 161 -334 54 28 121 -130 148 -350 52 -415 284 -559 584 -364 112 73 112 123 1 301 -161 258 -283 274 -291 38 -6 -147 -19 -143 -82 25 -41 110 -56 439 -33 730 38 487 73 551 431 788 388 257 415 295 415 582 0 283 -25 350 -131 350 -59 0 -99 -79 -89 -175 36 -355 -11 -425 -288 -425 -237 0 -301 58 -391 350 -59 192 -85 436 -57 541 50 191 -181 494 -521 684 -95 54 -154 157 -130 230 34 100 93 84 239 -61 107 -107 320 -292 472 -411 153 -119 235 -243 184 -275 -108 -67 88 -556 224 -557 47 -1 65 110 39 245 -40 210 -21 231 131 150 335 -179 493 -411 496 -728 3 -301 11 -308 150 -124 141 187 147 184 147 -69 0 -145 45 -291 100 -325 55 -34 100 -14 100 44 0 58 45 106 100 106 55 0 100 -67 100 -150 0 -82 68 -150 150 -150 83 0 150 -45 150 -100 0 -55 90 -100 200 -100 242 0 244 -25 39 -420 -147 -286 -147 -378 8 -1158 298 -1498 92 -2192 -928 -3136 -411 -381 -778 -827 -912 -1110 -271 -573 -363 -645 -451 -350 l-66 224 -107 -250 c-63 -149 -125 -199 -153 -124 -26 69 -88 100 -139 69 -162 -101 -97 -245 112 -245 189 0 193 -18 57 -275 -80 -151 -368 -511 -640 -798 -273 -288 -574 -693 -670 -900 -219 -474 -636 -927 -853 -927 -211 0 -428 -254 -597 -700 -169 -444 -359 -668 -810 -955 -199 -126 -456 -390 -572 -587 -196 -333 -199 -358 -32 -358 99 0 242 116 319 259 76 142 257 319 402 394 344 178 888 802 1013 1163 55 156 163 284 239 284 256 0 906 687 1235 1304 178 334 376 589 439 568 192 -64 262 -789 106 -1092 -76 -149 -139 -331 -139 -406 0 -75 -135 -266 -300 -424 -165 -158 -300 -246 -300 -195 0 51 -114 -30 -254 -181 -140 -151 -286 -277 -325 -281 -747 -72 -1121 -409 -1121 -1008 0 -258 45 -385 136 -385 92 0 120 83 87 255 -62 326 303 746 584 672 107 -28 270 11 363 86 145 118 157 116 83 -13 -47 -82 -168 -269 -269 -415 -242 -350 -235 -585 16 -585 127 0 200 67 200 183 0 100 115 290 256 422 140 132 385 468 544 745 159 278 478 662 710 853 231 191 515 438 630 550 116 112 361 266 545 342 184 75 489 242 678 370 188 128 445 224 571 213 125 -10 360 73 522 185 536 370 1573 723 2261 768 539 36 657 18 615 -93 -35 -91 20 -138 163 -138 132 0 190 -43 149 -110 -37 -60 -205 -89 -374 -64 -418 61 -957 -71 -2020 -497 -526 -210 -1086 -364 -1349 -370 -328 -6 -457 -52 -479 -170 -56 -289 679 -306 1361 -30 1088 439 2544 705 3270 596 437 -66 630 -255 260 -255 -103 0 -469 -90 -814 -200 -344 -110 -811 -220 -1038 -243 -740 -78 -1208 -185 -1408 -322 -109 -74 -308 -135 -443 -135 -191 0 -800 -159 -988 -258 -84 -44 -195 -647 -126 -689 44 -28 187 32 317 133 317 244 1574 714 1911 714 148 0 478 71 734 158 475 161 1057 117 874 -66 -53 -53 -386 -166 -739 -252 -354 -85 -854 -265 -1111 -400 -257 -134 -505 -233 -550 -218 -115 37 -1108 -402 -1183 -523 -130 -211 291 -219 714 -14 243 118 522 215 620 215 97 0 220 39 272 88 52 48 337 166 632 262 449 145 551 151 623 37 145 -228 107 -275 -320 -390 -225 -60 -669 -242 -987 -403 -318 -162 -667 -294 -776 -294 -110 0 -366 -157 -570 -350 l-371 -350 457 0 c251 0 457 44 457 97 0 107 519 403 706 403 73 0 93 -91 53 -250 -45 -178 -22 -250 78 -250 83 0 169 153 211 375 69 367 190 520 415 523 74 1 95 -150 62 -448 -41 -360 -20 -450 103 -450 108 0 173 145 220 486 60 433 109 509 459 706 l393 221 0 -707 c0 -625 22 -706 188 -706 169 0 193 101 229 975 48 1138 80 1207 1087 2308 545 596 510 1194 -75 1280 -82 12 -215 116 -295 230 -80 114 -208 207 -284 207 -244 0 -257 173 -53 718 302 806 606 1082 1190 1082 264 0 509 30 545 66 148 147 -182 334 -591 334 -706 0 -1239 -614 -1606 -1850 -88 -298 -96 -301 -987 -363 -494 -35 -910 -53 -925 -40 -39 34 305 755 531 1113 435 687 1317 1563 1933 1919 1268 733 1472 835 2113 1051 544 184 747 206 1250 136 330 -46 766 -153 968 -237 384 -160 1272 -1091 1696 -1779 832 -1351 1860 -4446 2234 -6725 83 -509 252 -565 252 -83 0 897 -960 4350 -1532 5508 -81 165 -270 562 -419 883 -306 657 -1309 1953 -1761 2275 -355 253 -332 292 233 397 421 78 438 70 884 -403 250 -265 672 -813 937 -1217 265 -404 565 -855 667 -1003 173 -248 1028 -2384 1274 -3182 94 -304 105 -238 86 500 -19 722 -81 993 -405 1800 -481 1195 -613 1484 -828 1817 -165 255 -164 288 20 699 107 237 430 696 719 1020 l525 589 0 1141 c0 1110 -5 1138 -200 1034 -110 -59 -200 -197 -200 -307 0 -109 -69 -226 -154 -258 -84 -33 -220 -189 -302 -347 -198 -382 -444 -379 -444 6 0 162 -45 322 -100 356 -55 34 -99 138 -97 231 3 156 14 155 136 -6 179 -235 380 -220 679 50 556 502 682 805 682 1639 l0 783 -358 -358 -357 -358 257 -379 c239 -352 317 -552 217 -552 -23 0 -160 211 -304 469 -288 515 -285 581 65 1760 111 373 264 741 341 818 148 148 195 853 56 853 -127 0 -474 -412 -664 -788 -242 -478 -423 -1161 -498 -1882 -57 -553 -34 -676 215 -1150 368 -699 361 -680 252 -680 -52 0 -202 203 -333 450 -131 248 -266 450 -298 450 -33 0 -141 -90 -241 -200 -100 -110 -209 -200 -243 -200 -33 0 -169 197 -300 438 -234 428 -237 459 -114 1375 220 1651 472 2285 1091 2758 319 243 534 329 824 329 l392 0 -1 675 -1 675 -256 -325 c-281 -356 -642 -438 -642 -145 0 105 189 299 450 465 247 156 450 324 450 374 0 49 -187 267 -416 485 -482 459 -451 614 62 312 l354 -209 0 267 c0 164 -125 399 -325 610 l-325 343 321 -60 321 -60 -9 771 c-7 535 -35 703 -93 547 -46 -124 -121 -225 -168 -225 -178 0 -700 -892 -823 -1408 -71 -298 -216 -709 -323 -913 -214 -413 -492 -1411 -485 -1743 3 -118 -62 -270 -143 -338 -127 -105 -151 -41 -170 465 -12 323 -15 767 -6 987 9 220 -46 873 -121 1450 -193 1483 -12 2334 569 2679 233 139 303 142 527 23 351 -188 570 3 320 279 -92 102 -137 215 -101 252 118 118 182 73 311 -217 69 -156 235 -342 370 -414 134 -72 263 -203 287 -291 23 -89 48 25 54 252 10 341 -33 444 -245 582 -207 136 -233 196 -137 312 65 79 180 143 256 143 97 0 138 134 138 450 l0 450 -675 -8 c-371 -4 -619 -30 -550 -58 164 -66 160 -281 -8 -420 -102 -84 -183 -41 -353 188 -286 388 -514 390 -514 6 0 -358 -212 -1308 -292 -1308 -32 0 -48 259 -35 575 33 842 -27 1025 -338 1025 -245 0 -257 -22 -201 -375 96 -603 -68 -677 -266 -121 -157 443 -208 496 -472 496 -163 0 -296 -36 -296 -79 0 -44 162 -640 361 -1325 832 -2876 846 -2968 906 -6296 43 -2387 27 -2983 -82 -3125 -124 -160 -155 -144 -382 200 -137 206 -434 600 -662 875 -228 275 -539 703 -692 950 -153 248 -329 480 -391 517 -68 41 -123 438 -138 1000 -25 948 -153 2169 -313 2983 -49 248 -137 720 -196 1050 -60 330 -185 845 -279 1143 -127 405 -140 554 -52 584 208 69 140 503 -90 576 -119 38 -294 257 -405 507 -164 372 -238 440 -480 440 l-287 0 157 -525 c86 -289 237 -705 334 -925 98 -220 248 -737 334 -1150 86 -412 268 -1222 405 -1800 137 -577 279 -1500 315 -2050 l65 -1000 -275 250 c-151 138 -439 494 -639 792 -200 298 -462 685 -582 861 -185 272 -215 443 -200 1165 16 754 -9 885 -232 1212 -137 201 -375 418 -529 482 -462 192 -643 821 -314 1094 260 215 543 862 543 1240 0 311 -30 354 -250 354 -191 0 -252 -53 -257 -225 l-7 -225 -108 225 c-67 139 -199 225 -344 225 -216 0 -232 -33 -184 -375 30 -206 66 -763 82 -1238 32 -945 191 -1325 623 -1489 149 -56 245 -173 245 -296 0 -295 -157 -251 -688 198 -261 220 -548 400 -638 400 -89 0 -190 45 -224 100 -34 56 -341 290 -681 521 -341 231 -719 520 -841 642 -122 122 -309 249 -415 283 -152 48 -209 192 -263 658 -48 407 -113 596 -208 596 -172 0 -283 -412 -191 -705 51 -160 33 -207 -66 -174 -77 26 -148 222 -166 462 l-30 417 -445 0 c-412 0 -444 -19 -444 -262 0 -225 -31 -252 -225 -190 -124 39 -494 108 -822 153 -329 45 -614 131 -634 191 -45 136 -419 143 -419 8 0 -55 -157 -100 -350 -100 -192 0 -350 45 -350 100 0 154 -1299 129 -1302 -25 -3 -180 -393 -1014 -448 -958 -26 25 7 187 72 360 169 449 -91 723 -687 723 -239 0 -435 -44 -435 -97 0 -54 203 -300 450 -548 247 -247 450 -496 450 -552 0 -212 -202 -89 -564 344 -287 343 -404 421 -505 338 -103 -87 -131 -44 -131 203 0 262 -38 312 -237 312 -187 0 -252 -68 -302 -319 -35 -175 -18 -364 38 -420 55 -55 101 -341 101 -634 0 -484 32 -561 350 -840 193 -169 348 -382 346 -472 -2 -112 -108 -44 -325 210 -372 435 -427 452 -504 158 -39 -148 36 -334 238 -589 378 -477 383 -656 5 -201 l-284 343 -123 -230 c-67 -126 -129 -471 -138 -767 -8 -295 -55 -538 -104 -538 -48 -1 -60 -204 -26 -452 59 -436 44 -470 -457 -1025 -285 -316 -719 -727 -963 -915 l-445 -341 71 532 c38 292 135 657 215 811 79 153 144 405 145 559 0 154 48 453 107 664 59 212 92 399 74 416 -17 17 -252 64 -520 104 l-488 73 62 -539 c39 -334 11 -746 -75 -1088 -77 -302 -145 -460 -152 -350 -7 110 -149 402 -316 648 -199 293 -284 519 -245 650 32 111 87 623 121 1137 47 719 31 953 -71 1016 -214 133 4 741 280 781 245 35 289 211 100 400 -68 68 -147 358 -175 645 -46 454 -84 527 -287 556 -203 29 -225 3 -163 -192z m10507 -364 c-101 -102 -185 51 -102 186 63 102 87 102 121 1 23 -70 15 -154 -19 -187z m-660 -317 c248 -113 556 -207 687 -208 246 -2 875 -419 1813 -1200 303 -252 707 -575 900 -717 791 -584 2086 -1995 2788 -3038 406 -604 908 -1277 1115 -1497 471 -499 1715 -2097 2454 -3151 307 -438 599 -822 650 -854 51 -31 93 -144 93 -251 0 -107 59 -194 131 -194 161 0 568 -534 622 -815 22 -113 81 -257 132 -320 126 -157 252 -755 230 -1090 -13 -200 29 -275 153 -275 351 0 -37 -178 -868 -399 -1524 -406 -1755 -419 -3367 -197 -816 113 -1582 204 -1703 202 -318 -4 -370 156 -154 470 294 427 417 812 520 1624 133 1057 -81 3135 -447 4341 -174 572 -190 859 -48 859 129 0 967 -1157 1326 -1830 285 -535 1402 -1900 2142 -2615 425 -411 831 -1047 831 -1301 0 -218 -496 -554 -818 -554 -161 0 -423 68 -584 151 -252 130 -284 193 -233 450 69 342 -99 409 -261 106 -132 -246 14 -656 285 -801 109 -58 450 -106 759 -106 462 0 604 43 807 245 268 268 322 719 132 1087 -63 120 -389 515 -725 879 -1297 1401 -1709 1914 -2064 2568 -507 935 -1273 1977 -1542 2100 -374 171 -480 13 -429 -641 25 -323 114 -881 196 -1238 516 -2233 472 -5000 -81 -5000 -69 0 -141 -47 -160 -105 -23 -67 -166 -50 -405 50 -204 85 -608 156 -899 157 -1086 4 -1663 283 -3212 1554 -339 278 -793 676 -1009 884 -215 209 -575 495 -800 636 -224 141 -735 541 -1135 890 -401 349 -777 634 -837 634 -59 0 -429 199 -821 442 -735 455 -1455 658 -2338 658 -539 0 -488 115 206 466 285 144 654 366 819 492 508 387 1948 1052 2712 1252 399 104 874 274 1056 378 182 103 619 295 972 425 1279 473 1863 1533 1206 2190 -286 286 -571 243 -957 -143 -256 -256 -340 -426 -340 -688 0 -453 -262 -1072 -453 -1072 -168 0 -113 388 106 750 67 110 202 432 300 714 176 507 176 522 -37 974 -119 253 -216 525 -216 604 0 79 -167 281 -372 450 -313 258 -447 303 -849 285 -585 -25 -904 202 -673 481 204 245 2056 144 2694 -148z m-5322 -612 c68 -109 93 -198 56 -198 -100 0 -434 317 -434 412 0 136 246 -3 378 -214z m2789 -197 c189 -2 346 -635 272 -1098 -67 -421 -591 -1304 -819 -1380 -72 -24 -120 61 -120 211 0 138 -116 388 -257 556 -287 341 -279 418 130 1294 211 451 283 525 463 476 118 -31 267 -58 331 -59z m1225 -243 c250 -266 253 -576 19 -2008 -154 -941 -274 -1279 -504 -1423 -266 -166 -1419 -548 -1478 -490 -108 108 116 503 591 1041 726 822 816 1086 751 2197 -54 908 -51 925 170 925 123 0 326 -109 451 -242z m-3677 -993 c-98 -261 -280 -573 -403 -694 -207 -205 -202 -176 60 379 155 330 320 659 365 732 165 263 154 45 -22 -417z m5685 -765 c0 -220 -110 -407 -412 -700 -577 -560 -693 -533 -524 125 139 545 421 875 747 875 143 0 189 -73 189 -300z m-6800 0 c59 -110 71 -200 28 -200 -44 0 -136 90 -205 200 -69 111 -81 200 -27 200 53 0 145 -90 204 -200z m2398 -990 c-71 -473 -127 -988 -124 -1144 3 -229 -77 -332 -410 -528 -228 -134 -715 -422 -1084 -641 -368 -218 -694 -397 -725 -397 -30 0 -55 88 -55 195 0 211 485 628 925 796 309 117 674 646 675 978 0 315 -170 375 -311 109 -145 -275 -413 -521 -911 -839 -460 -294 -639 -567 -726 -1108 -45 -277 -145 -469 -297 -569 -147 -96 -332 -435 -510 -931 -278 -780 -409 -1031 -537 -1031 -37 0 -49 160 -26 356 69 590 -419 1841 -633 1626 -26 -26 24 -291 110 -589 196 -678 290 -1267 187 -1169 -85 82 -346 -96 -346 -236 0 -49 68 -88 150 -88 83 0 150 45 150 100 0 55 42 100 93 100 163 0 176 -339 27 -730 -93 -241 -124 -539 -86 -816 45 -330 24 -449 -87 -491 -198 -76 -187 -363 14 -363 114 0 139 -50 86 -175 -337 -796 -381 -1037 -379 -2075 2 -1256 65 -1895 204 -2075 142 -183 233 -475 149 -475 -40 0 -129 90 -198 200 -195 313 -350 238 -657 -317 -316 -574 -853 -3004 -676 -3063 219 -73 610 -443 610 -577 0 -204 -166 -177 -412 69 -153 153 -232 178 -286 91 -163 -264 -195 248 -92 1476 59 699 119 1451 134 1671 50 769 374 3004 506 3500 73 275 163 995 199 1600 85 1426 103 1546 283 1886 117 222 138 497 95 1226 -47 776 -25 1010 124 1341 181 400 674 797 990 797 416 0 1659 929 1659 1242 0 59 293 287 651 505 617 377 1166 1011 1388 1603 72 195 77 195 181 10 76 -135 70 -433 -22 -1050z m-1956 415 c-151 -843 -701 -1701 -1013 -1581 -139 53 -139 80 -8 233 82 95 344 522 584 948 239 426 450 775 469 775 19 0 5 -169 -32 -375z m18458 -1732 c0 -64 -71 -62 -200 7 -110 59 -200 152 -200 207 0 64 71 62 200 -7 110 -59 200 -152 200 -207z m-20000 -387 c0 -118 -195 -244 -267 -173 -71 72 55 267 173 267 52 0 94 -42 94 -94z m608 -2591 c-189 -354 -119 -594 338 -1155 245 -301 524 -719 620 -929 95 -209 194 -426 220 -481 146 -314 -355 275 -593 697 -157 277 -466 682 -689 899 -477 466 -513 758 -129 1038 319 232 384 213 233 -69z m457 102 c-305 -337 -207 -698 338 -1249 483 -488 699 -899 551 -1047 -93 -93 -354 270 -354 492 0 97 -79 234 -175 306 -283 212 -725 852 -725 1052 0 225 270 629 421 629 61 0 36 -82 -56 -183z m420 -60 c-131 -287 -48 -693 193 -938 390 -397 718 -909 622 -969 -56 -35 -131 19 -168 119 -36 99 -283 444 -549 765 -266 321 -483 615 -483 653 0 71 413 613 466 613 17 0 -20 -109 -81 -243z m281 -167 c-77 -208 -127 -256 -149 -146 -19 91 21 231 87 311 178 215 192 180 62 -165z m644 -404 c283 -397 230 -462 -110 -136 -286 274 -387 629 -225 793 41 42 91 -29 110 -157 19 -128 121 -353 225 -500z m274 259 c138 -303 142 -345 32 -345 -73 0 -316 427 -316 555 0 144 185 7 284 -210z m-537 -545 c133 0 346 -335 350 -550 2 -157 -84 -102 -393 250 -406 462 -548 761 -221 465 100 -91 219 -165 264 -165z m-1776 -451 c277 -194 829 -1157 829 -1446 0 -127 75 -241 176 -268 97 -25 269 -212 383 -415 l208 -370 -209 -602 c-114 -330 -287 -712 -383 -847 -263 -370 -226 -598 100 -617 473 -27 667 17 753 169 45 81 143 147 219 147 75 0 156 56 181 125 25 69 77 95 116 59 40 -37 0 -177 -89 -312 -88 -135 -222 -622 -297 -1083 -76 -462 -235 -1238 -354 -1727 -118 -488 -191 -952 -161 -1031 31 -79 -6 -265 -81 -412 -76 -148 -203 -562 -284 -919 -105 -467 -268 -812 -577 -1225 -236 -316 -439 -575 -451 -575 -11 0 -136 107 -277 238 -176 163 -279 391 -328 725 -39 268 -85 567 -102 664 -18 97 145 512 362 921 324 611 395 845 395 1304 0 773 194 1967 348 2148 224 261 268 579 121 870 -77 154 -167 453 -200 664 -108 699 -494 901 -650 341 -49 -179 -209 -500 -354 -714 -146 -214 -265 -487 -265 -606 0 -119 -64 -304 -142 -411 -136 -185 -145 -181 -217 105 -103 412 111 1785 349 2232 251 471 355 1808 147 1888 -213 82 -162 429 118 797 291 381 321 390 616 183z m4620 -688 c120 -145 125 -144 -1066 -323 -265 -40 -425 -25 -425 38 0 145 252 224 708 224 216 0 392 45 392 100 0 147 258 122 391 -39z m275 -511 c-43 -132 -789 -130 -834 3 -20 60 152 101 417 100 254 -2 436 -46 417 -103z m-1006 -702 c-159 -84 -316 -126 -347 -94 -83 83 203 243 437 244 160 1 142 -30 -90 -150z m1244 -2 c84 -101 94 -188 29 -253 -65 -65 -138 -12 -214 154 -127 280 -15 340 185 99z m3335 -1450 c565 -496 1435 -796 2309 -796 619 0 787 -35 952 -200 357 -357 257 -472 -525 -604 -885 -149 -1633 -472 -2002 -866 l-277 -295 -383 364 c-340 323 -397 450 -505 1108 -157 955 -139 1593 44 1593 23 0 197 -137 387 -304z m-4389 -221 c95 -234 199 -492 231 -574 32 -82 -130 0 -361 183 -460 365 -588 816 -231 816 129 0 244 -135 361 -425z m14150 -1442 c0 -37 -71 -146 -158 -241 -86 -96 -173 -257 -192 -358 -19 -101 -38 -199 -42 -217 -5 -18 -126 108 -270 280 -145 171 -244 330 -222 353 167 166 884 315 884 183z m-15300 -736 c0 -68 -86 -264 -191 -435 -106 -172 -312 -613 -459 -982 -147 -368 -334 -725 -415 -792 -166 -138 -169 -162 189 1259 111 439 200 912 200 1050 -1 139 41 333 92 430 85 161 116 150 339 -114 135 -161 245 -348 245 -416z m10450 562 l300 -133 -400 -75 c-574 -108 -1627 -645 -2334 -1188 -1106 -852 -2109 -2254 -2378 -3325 -33 -131 -96 -238 -141 -238 -44 0 -159 -30 -255 -67 -146 -56 -162 -28 -101 175 40 133 142 625 226 1092 433 2397 1307 3394 3123 3563 391 36 790 125 886 198 222 169 689 168 1074 -2z m-13775 -234 c-52 -300 -454 -1763 -789 -2875 -341 -1129 -697 -2050 -793 -2050 -49 0 -39 109 22 242 98 216 71 276 -253 560 -199 176 -362 380 -362 455 0 215 243 67 441 -269 201 -340 305 -294 404 177 51 242 24 347 -116 450 -207 153 -529 627 -529 778 0 207 273 -15 434 -353 196 -409 332 -372 423 114 56 299 22 391 -246 666 -314 321 -417 630 -186 557 69 -21 189 -182 268 -358 160 -357 283 -404 375 -144 34 96 146 367 250 601 103 235 265 719 358 1075 167 635 393 918 299 374z m8921 -744 c249 -267 249 -250 4 -757 -110 -228 -200 -459 -200 -514 0 -55 -58 -136 -129 -180 -70 -44 -293 -331 -493 -638 -325 -494 -1016 -1092 -1264 -1092 -87 0 -349 -277 -1129 -1191 l-365 -428 -66 301 c-56 256 5 391 415 920 265 340 578 783 698 984 204 343 242 362 664 332 362 -26 488 11 658 194 116 124 211 282 211 352 0 69 74 167 164 218 92 52 132 143 91 210 -95 153 -313 -20 -514 -410 -146 -282 -469 -379 -593 -178 -36 57 207 369 540 692 345 336 631 709 666 871 106 480 135 533 289 533 82 0 241 -98 353 -219z m-566 -2953 c-197 -1044 -360 -1407 -669 -1484 -139 -35 -296 -48 -349 -29 -84 31 375 1074 720 1635 67 110 179 301 249 425 69 124 142 225 161 225 18 0 -32 -347 -112 -772z m-930 -373 c0 -101 -520 -1013 -751 -1316 -234 -306 -1254 -1068 -1329 -992 -122 121 1405 2053 1623 2053 75 0 162 68 193 150 51 134 264 218 264 105z m-9803 -1906 c2 -55 -94 -161 -211 -235 -206 -128 -212 -121 -150 189 35 177 64 370 64 429 0 133 292 -244 297 -383z"/>
<path d="M11322 23183 c22 -65 265 -195 541 -288 691 -235 1399 -773 1538 -1169 92 -260 84 -385 -35 -625 -173 -346 -31 -526 186 -236 214 286 275 702 153 1060 -110 323 -724 781 -1598 1193 -423 198 -841 233 -785 65z"/>
<path d="M14600 20229 c-82 -29 -339 -234 -569 -456 -485 -467 -774 -541 -2533 -654 l-1153 -74 -754 -567 c-728 -549 -991 -885 -991 -1270 0 -238 124 -326 850 -608 330 -128 651 -272 714 -319 62 -48 488 -224 947 -391 870 -317 1236 -326 1787 -41 401 207 911 1251 611 1251 -50 0 -190 -203 -310 -452 -257 -531 -450 -655 -1024 -657 -518 -2 -622 31 -2100 657 -1278 541 -1364 643 -900 1064 911 826 1484 1087 2397 1091 373 2 1014 47 1425 100 696 90 777 127 1203 547 251 247 531 450 621 450 228 0 557 -446 691 -938 166 -612 -10 -6437 -198 -6554 -296 -182 -586 21 -1380 967 -197 234 -420 425 -496 425 -176 0 -179 -165 -5 -270 73 -44 309 -317 523 -607 354 -478 991 -923 1323 -923 64 0 195 119 290 265 141 215 192 658 274 2375 147 3107 115 4138 -147 4747 -295 685 -687 987 -1096 842z"/>
<path d="M5036 12550 c-82 -214 31 -450 214 -450 212 0 301 268 149 451 -158 190 -290 190 -363 -1z"/>
<path d="M5459 8238 c-36 -94 -22 -215 31 -268 145 -145 430 4 391 204 -45 234 -339 279 -422 64z"/>
<path d="M5220 6580 c-179 -179 -146 -400 55 -361 96 18 189 134 207 257 35 246 -76 290 -262 104z"/>
<path d="M4903 5506 c-69 -129 -70 -215 -3 -256 149 -92 300 36 300 256 0 250 -163 250 -297 0z"/>
<path d="M4635 4346 c-33 -85 -33 -182 0 -215 71 -71 365 155 365 281 0 151 -303 96 -365 -66z"/>
<path d="M2864 24075 c29 -568 -8 -1253 -96 -1775 -160 -947 -158 -950 475 -1057 349 -59 424 -35 628 202 286 332 239 419 -271 505 -617 104 -610 272 11 233 425 -26 539 -1 565 127 24 116 -82 184 -389 250 -231 49 -442 153 -468 231 -31 95 5 121 110 81 86 -33 317 -90 514 -127 332 -63 357 -50 357 182 0 186 -87 292 -340 412 -423 200 -435 200 -494 -14 -26 -96 -23 241 7 750 l56 925 -357 0 -356 0 48 -925z"/>
<path d="M3699 24343 c-71 -376 -87 -694 -37 -743 49 -46 257 -115 463 -153 355 -66 375 -55 375 192 0 143 11 295 25 336 14 41 -132 132 -325 202 l-350 127 334 -36 c271 -29 355 8 439 192 166 365 34 540 -409 540 l-391 0 -124 -657z"/>
<path d="M13809 24872 c247 -190 360 -474 436 -1097 81 -672 252 -748 556 -250 137 224 198 503 199 900 l0 575 -675 -3 c-551 -3 -646 -26 -516 -125z"/>
<path d="M19736 24901 c-259 -104 -536 -479 -536 -723 0 -223 257 -234 341 -15 53 138 99 123 306 -100 284 -307 334 -315 631 -107 260 182 286 508 66 822 -161 230 -438 272 -808 123z m640 -659 c-99 -98 -276 53 -276 235 0 153 13 153 169 -3 93 -93 141 -197 107 -232z"/>
<path d="M23000 21009 c0 -428 207 -697 372 -485 130 166 -26 737 -222 812 -117 45 -150 -26 -150 -327z"/>
<path d="M18060 19941 c-82 -213 10 -341 246 -341 203 0 234 79 133 342 -78 204 -300 204 -379 -1z"/>
<path d="M18662 19046 c-34 -89 7 -179 96 -213 187 -72 391 106 297 258 -98 159 -324 133 -393 -45z"/>
<path d="M23261 15118 c-96 -156 64 -1226 178 -1186 61 21 96 146 78 278 -18 132 -30 409 -27 615 5 346 -107 490 -229 293z"/>
<path d="M8203 14904 c-81 -51 -126 -114 -100 -140 77 -76 597 52 597 148 0 115 -310 110 -497 -8z"/>
<path d="M470 13337 c-31 -32 -15 -168 36 -304 60 -157 58 -314 -6 -433 -55 -103 -100 -347 -100 -543 0 -406 -119 -463 -278 -132 -80 166 -108 -646 -107 -3125 2 -2232 33 -3250 96 -3050 53 169 65 835 28 1529 -60 1110 -49 1241 112 1360 164 119 166 156 29 431 -133 267 -133 335 -3 591 82 159 204 357 271 439 183 221 330 959 345 1727 19 917 -208 1725 -423 1510z"/>
<path d="M10760 12241 c-33 -86 -60 -249 -60 -361 0 -162 46 -191 225 -143 124 33 259 61 300 62 114 2 89 401 -25 401 -55 0 -100 -67 -100 -150 0 -82 -50 -150 -112 -150 -62 0 -88 88 -59 200 63 241 -83 364 -169 141z"/>
<path d="M10229 11900 c-76 -180 -74 -289 8 -391 96 -118 118 -115 145 24 18 91 14 266 -8 391 -39 226 -39 226 -145 -24z"/>
<path d="M10681 11248 c-78 -79 36 -648 130 -648 114 0 117 571 3 641 -47 30 -107 33 -133 7z"/>
<path d="M11044 10972 c-94 -246 61 -439 180 -225 64 114 61 208 -10 279 -76 76 -125 61 -170 -54z"/>
<path d="M11164 9949 c-69 -177 20 -449 147 -449 116 0 116 472 -1 544 -49 30 -115 -12 -146 -95z"/>
<path d="M11600 9800 c0 -55 45 -100 100 -100 55 0 100 45 100 100 0 55 -45 100 -100 100 -55 0 -100 -45 -100 -100z"/>
<path d="M9317 9323 c368 -853 680 -1229 537 -648 -86 349 -327 725 -465 725 -58 0 -91 -35 -72 -77z"/>
<path d="M11600 8908 c0 -50 -27 -162 -60 -249 -79 -204 215 -321 407 -162 115 96 120 158 24 312 -122 196 -371 263 -371 99z"/>
<path d="M10691 8771 c-81 -639 134 -1056 268 -520 46 183 16 317 -96 429 -90 90 -167 131 -172 91z"/>
<path d="M17973 8391 c-270 -158 -129 -258 371 -266 938 -14 1600 -623 1870 -1720 95 -387 137 -1280 140 -2955 7 -3230 18 -3450 180 -3450 129 0 192 1644 187 4850 -4 2035 -563 3166 -1739 3518 -518 155 -772 161 -1009 23z"/>
<path d="M8400 8144 c0 -145 43 -229 100 -194 55 34 100 149 100 256 0 107 -45 194 -100 194 -55 0 -100 -115 -100 -256z"/>
<path d="M7889 7875 c-7 -69 -26 -249 -44 -400 -28 -229 5 -275 195 -275 145 0 269 89 340 246 132 289 -17 446 -171 181 -89 -153 -103 -139 -106 98 -3 268 -192 400 -214 150z"/>
<path d="M9888 7931 c-6 -45 -4 -156 5 -247 9 -92 -31 -195 -88 -231 -239 -148 -101 -318 220 -272 361 52 485 176 400 399 -48 124 -79 118 -191 -35 -124 -170 -134 -164 -134 80 0 237 -184 502 -212 306z"/>
<path d="M24908 7458 c-4 -105 19 -164 52 -131 34 33 37 120 8 192 -32 80 -55 56 -60 -61z"/>
<path d="M8850 6900 c42 -134 11 -221 -93 -261 -198 -76 -205 -239 -11 -239 182 0 388 366 315 558 -86 224 -283 169 -211 -58z"/>
<path d="M9118 6550 c-93 -204 -87 -250 31 -250 161 0 379 339 281 437 -115 115 -197 66 -312 -187z"/>
<path d="M18050 5903 c-110 -46 -423 -313 -696 -593 -366 -376 -466 -538 -383 -621 83 -83 241 8 606 349 519 486 893 589 1124 311 223 -268 63 -1396 -382 -2699 -359 -1053 -619 -2110 -619 -2518 0 -252 278 -131 329 143 126 676 487 1945 775 2725 540 1464 447 2658 -227 2893 -169 59 -311 104 -317 101 -5 -4 -100 -45 -210 -91z"/>
<path d="M7867 5183 c-212 -231 -137 -376 113 -219 178 112 295 442 152 428 -45 -5 -164 -99 -265 -209z"/>
<path d="M8254 5041 c-94 -142 -150 -278 -126 -302 92 -92 372 90 380 247 5 109 25 121 59 36 29 -71 -3 -195 -70 -275 -98 -119 -91 -147 37 -147 88 0 211 98 275 217 96 180 85 240 -65 350 -250 183 -296 171 -490 -126z"/>
<path d="M6223 4466 c-166 -281 -183 -366 -75 -366 78 0 186 78 240 174 53 96 131 140 173 99 42 -42 22 -130 -43 -195 -65 -65 -118 -178 -118 -252 0 -102 46 -108 200 -26 238 127 286 700 58 700 -78 0 -159 52 -180 116 -21 64 -136 -48 -255 -250z"/>
<path d="M21774 4741 c-31 -31 46 -210 173 -396 385 -568 511 -2376 213 -3067 -171 -396 -220 -1278 -71 -1278 131 0 205 251 144 486 -32 120 39 358 170 570 212 342 221 431 157 1529 -51 852 -123 1277 -270 1582 -210 438 -419 670 -516 574z"/>
<path d="M7164 4331 c-35 -36 -64 -168 -64 -295 0 -163 43 -213 150 -172 83 31 150 140 150 241 0 200 -134 328 -236 226z"/>
<path d="M3550 3334 c-86 -205 -273 -526 -416 -714 -447 -586 -633 -1498 -471 -2308 47 -237 115 -312 285 -312 211 0 222 40 226 825 4 751 37 886 365 1507 353 667 459 1196 264 1316 -53 33 -167 -108 -253 -314z"/>
<path d="M7675 3394 c-152 -155 -235 -307 -186 -337 139 -86 538 283 497 461 -28 124 -93 99 -311 -124z"/>
<path d="M5200 2200 c0 -55 20 -100 44 -100 24 0 72 45 106 100 34 55 14 100 -44 100 -58 0 -106 -45 -106 -100z"/>
<path d="M5900 2012 c0 -103 -101 -256 -225 -339 -269 -181 -178 -335 108 -182 146 78 211 76 239 -6 72 -217 478 101 478 374 0 143 -43 226 -100 191 -55 -34 -100 -127 -100 -206 0 -79 -45 -144 -100 -144 -55 0 -100 113 -100 250 0 138 -45 250 -100 250 -55 0 -100 -85 -100 -188z"/>
<path d="M4923 1675 c-236 -252 -289 -522 -123 -625 55 -34 100 16 100 111 0 95 72 253 160 350 250 276 117 434 -137 164z"/>
<path d="M4995 391 c-61 -114 -81 -238 -45 -274 68 -68 350 256 350 402 0 159 -195 77 -305 -128z"/>
<path d="M4448 292 c-61 -190 0 -383 90 -284 106 118 163 492 75 492 -55 0 -129 -93 -165 -208z"/>
</g>
</svg>