<svg xmlns="http://www.w3.org/2000/svg" version="1.0" width="250" height="250" viewBox="0 0 250.000000 250.000000" preserveAspectRatio="xMidYMid meet">
<metadata>
Created by potrace 1.10, written by Peter Selinger 2001-2011
</metadata>
<g transform="translate(0.000000,250.000000) scale(0.010000,-0.010000)" fill="#555555" stroke="none">
<path d="M400 24907 c0 -59 -90 -107 -200 -107 -196 0 -200 -67 -200 -3300 0 -1815 16 -3300 35 -3300 150 0 770 270 1013 440 380 268 1880 1132 2402 1383 220 106 467 235 550 288 83 52 392 212 689 355 296 144 622 345 725 448 102 102 251 186 331 186 80 0 345 135 589 300 245 165 478 300 519 300 40 0 292 158 560 350 268 193 549 350 624 350 75 0 250 90 390 200 140 110 305 200 368 200 178 0 854 369 1001 545 129 155 1907 1055 2085 1055 48 0 169 90 269 200 180 199 175 200 -1474 200 -1233 0 -1666 -32 -1699 -125 -25 -69 -15 -417 21 -775 72 -710 28 -793 -533 -994 -242 -87 -276 -79 -225 54 33 86 61 254 63 373 3 212 7 212 149 24 80 -106 165 -173 188 -150 23 24 73 392 111 818 l70 775 -585 0 -586 0 34 -550 c22 -352 -5 -550 -75 -550 -60 0 -109 135 -109 300 0 165 -39 300 -86 300 -48 0 -65 113 -38 250 47 247 38 250 -625 250 -542 0 -662 -28 -618 -143 31 -78 86 -315 124 -525 38 -210 108 -458 156 -550 51 -100 40 -372 -29 -669 -98 -425 -91 -537 47 -747 178 -272 111 -383 -306 -510 -153 -47 -229 -27 -237 62 -30 343 27 2280 77 2657 l58 425 -962 0 c-952 0 -961 -2 -961 -244 0 -134 39 -268 87 -298 86 -53 53 -290 -189 -1356 -81 -358 -102 -866 -59 -1471 l65 -924 -297 -154 c-426 -220 -467 -202 -672 297 -185 449 -335 583 -335 300 0 -325 -187 -126 -254 271 -81 485 -240 779 -418 779 -224 0 -552 791 -482 1164 51 270 11 405 -198 680 -144 189 -295 470 -337 624 -54 208 -145 290 -343 314 -147 17 -268 -17 -268 -75z m4599 -1107 c65 -412 136 -846 158 -964 34 -174 -4 -212 -198 -200 -191 11 -221 48 -150 181 50 92 69 587 44 1100 -51 1023 -30 1005 146 -117z m2244 489 c-88 -142 -239 83 -241 358 -2 186 7 184 154 -25 85 -122 125 -272 87 -333z m3006 10 c-204 -225 -285 -210 -191 37 35 90 133 164 218 164 131 0 127 -31 -27 -201z m-9956 -274 c-6 -301 -24 -335 -93 -175 -119 278 -119 550 0 550 55 0 97 -169 93 -375z m9457 -125 c-34 -55 -82 -100 -106 -100 -24 0 -44 45 -44 100 0 55 48 100 106 100 58 0 78 -45 44 -100z m-5306 -444 c-37 -201 -88 -345 -112 -321 -25 25 -14 209 24 409 37 201 88 345 112 321 25 -25 14 -209 -24 -409z m1102 37 c-86 -139 -146 -113 -146 63 0 86 46 128 102 93 56 -35 75 -105 44 -156z m1714 -666 c-33 -33 -56 26 -52 131 5 117 28 141 60 61 29 -72 26 -159 -8 -192z m-5760 -737 c0 -190 -103 -230 -832 -328 l-382 -52 282 282 c155 155 350 303 432 329 254 79 500 -35 500 -231z m2960 -363 c-33 -33 -56 26 -52 131 5 117 28 141 60 61 29 -72 26 -159 -8 -192z m-3819 -940 c36 -228 42 -438 12 -467 -86 -86 -122 5 -180 455 -70 547 80 558 168 12z m1040 -345 c57 -165 -88 -742 -186 -742 -52 0 -95 108 -95 239 0 132 -67 266 -150 297 -82 32 -150 121 -150 199 0 158 528 164 581 7z m1319 -185 c0 -31 -67 -57 -150 -57 -85 0 -150 90 -150 207 0 184 17 191 150 57 83 -82 150 -175 150 -207z m-2000 -807 c0 -192 -45 -350 -100 -350 -111 0 -139 528 -33 633 115 115 133 77 133 -283z"/>
<path d="M1539 24680 c110 -551 839 -2132 1150 -2496 563 -660 811 -823 811 -534 0 83 -40 150 -88 150 -49 0 -112 90 -141 200 -34 129 -3 200 86 200 159 0 209 173 329 1150 47 385 124 790 170 900 83 196 79 196 -193 18 l-277 -182 68 457 69 457 -1024 0 -1024 0 64 -320z m1856 -1589 c-52 -98 -95 -291 -95 -429 0 -137 -42 -276 -93 -308 -138 -85 -245 348 -117 476 61 61 110 232 110 382 0 149 31 352 69 451 57 149 82 131 145 -107 42 -157 34 -367 -19 -465z"/>
<path d="M13100 24812 c-137 -99 -610 -374 -1050 -609 -440 -235 -912 -507 -1050 -604 -137 -97 -610 -369 -1050 -605 -1067 -571 -2407 -1306 -2900 -1591 -220 -127 -733 -407 -1139 -622 -407 -215 -947 -534 -1200 -708 -254 -175 -627 -409 -830 -520 -644 -354 -2101 -1114 -3001 -1566 -584 -294 -871 -494 -875 -612 -3 -96 11 -175 30 -175 43 0 676 342 1665 902 413 233 1133 622 1600 864 467 243 1120 620 1450 838 330 218 724 446 875 506 151 60 275 150 275 200 0 49 41 90 90 90 50 0 376 163 725 362 853 487 1321 749 2035 1137 330 180 1020 568 1533 864 513 295 951 537 973 537 22 0 277 150 567 334 290 183 820 480 1177 659 357 178 693 366 745 416 180 173 -391 87 -645 -97z"/>
<path d="M14485 24639 c-451 -304 -1537 -940 -3185 -1866 -192 -108 -463 -270 -600 -360 -138 -90 -324 -208 -413 -263 -89 -55 -426 -284 -749 -508 -323 -225 -925 -592 -1338 -816 -412 -224 -997 -546 -1300 -715 -303 -169 -622 -308 -710 -309 -87 -1 -239 -91 -338 -199 -98 -109 -264 -225 -369 -258 -105 -34 -650 -364 -1212 -735 -561 -371 -1323 -841 -1693 -1045 -369 -204 -707 -427 -750 -495 -129 -206 -1040 -765 -1264 -776 -151 -7 -605 -586 -524 -667 35 -35 117 -10 182 55 173 173 278 144 278 -76 0 -107 38 -218 85 -247 47 -29 115 -332 151 -674 35 -342 132 -724 214 -850 83 -125 150 -350 150 -500 0 -150 93 -371 207 -493 115 -121 274 -507 355 -856 81 -350 278 -816 437 -1036 160 -220 431 -684 603 -1031 291 -586 590 -794 516 -358 -18 104 -63 367 -100 584 -79 459 106 2541 270 3054 143 448 147 434 -94 371 -154 -41 -197 -12 -172 113 21 106 111 156 247 137 117 -16 241 15 275 70 70 113 -272 326 -459 286 -68 -14 -138 42 -156 124 -24 106 61 157 286 172 339 24 570 176 450 297 -40 39 -200 24 -356 -35 -262 -99 -284 -89 -284 129 0 131 62 243 138 250 75 6 190 18 254 25 64 6 137 74 162 150 35 103 -30 127 -256 94 -369 -54 -336 186 38 280 335 84 298 238 -58 238 -380 0 -311 274 80 319 382 44 329 222 -83 282 -375 54 -309 160 183 292 l267 72 -225 121 c-164 88 -280 92 -425 14 -274 -146 -261 46 16 240 119 83 251 130 293 104 141 -87 219 177 79 268 -110 71 -87 130 112 287 437 344 414 428 454 -1699 10 -577 -21 -1455 -70 -1950 -48 -495 -109 -1822 -135 -2950 -38 -1662 -18 -2121 102 -2427 164 -416 210 -1124 57 -882 -49 77 -68 197 -42 265 26 68 0 153 -59 190 -71 43 -107 -112 -107 -458 0 -441 -59 -609 -372 -1064 -593 -861 -671 -853 -823 86 -129 791 -80 1093 125 775 84 -131 153 -143 338 -59 310 142 297 312 -18 233 -327 -82 -327 110 0 259 137 63 250 152 250 198 0 118 -275 105 -350 -16 -108 -175 -226 -108 -295 167 -37 147 -155 378 -261 514 -203 257 -261 472 -101 373 51 -31 123 -9 160 51 83 133 -227 489 -525 603 -122 47 -250 193 -283 326 -33 132 -170 299 -304 371 -169 90 -226 186 -185 313 32 102 8 182 -55 182 -62 0 -88 40 -58 89 30 48 -57 397 -194 774 -137 377 -249 754 -250 837 0 82 -72 285 -160 450 -99 185 -166 577 -175 1025 -9 468 -54 724 -128 725 -63 0 -142 -71 -175 -158 -34 -87 -61 -2067 -61 -4400 l0 -4242 238 0 c162 0 259 72 301 225 l62 225 175 -220 c96 -121 309 -292 474 -380 l300 -160 -600 36 c-330 20 -679 72 -775 116 -147 67 -175 28 -175 -239 0 -280 50 -339 403 -477 404 -159 478 -347 161 -409 -98 -19 -158 22 -142 98 16 72 -73 146 -197 165 -211 32 -225 -2 -225 -523 0 -552 3 -557 300 -557 388 0 388 -165 0 -250 -271 -60 -300 -104 -300 -458 0 -325 34 -392 200 -392 259 0 259 -161 0 -229 -110 -29 -200 -119 -200 -200 0 -161 289 -267 731 -270 423 -2 234 -169 -280 -246 l-451 -67 0 -1094 0 -1094 488 0 c547 0 502 -60 909 1213 116 365 300 743 407 841 108 97 196 223 196 279 0 56 160 335 356 619 320 464 374 645 538 1782 178 1237 370 1766 642 1766 72 0 314 174 537 386 326 310 509 399 931 455 718 95 796 -19 410 -602 -279 -421 -395 -739 -270 -739 24 0 190 203 368 452 220 307 349 412 400 328 53 -85 106 -45 172 127 135 356 360 513 681 475 233 -27 290 -94 358 -422 58 -285 43 -434 -59 -550 -76 -88 -193 -328 -259 -534 -66 -205 -161 -399 -212 -431 -247 -152 33 924 290 1115 81 60 106 135 56 166 -188 116 -422 -202 -591 -806 -159 -565 -161 -640 -20 -797 271 -302 294 -820 76 -1664 -112 -435 -204 -944 -204 -1130 0 -186 -68 -469 -150 -629 -184 -357 -434 -1404 -376 -1575 32 -94 413 -124 1484 -119 1319 7 1451 24 1546 201 115 214 2 259 -184 73 -93 -93 -120 -85 -120 38 0 87 67 214 150 282 198 164 191 300 -15 300 -151 0 -149 18 11 196 160 176 162 210 23 350 -166 165 -821 212 -912 65 -30 -48 35 -112 144 -140 280 -73 251 -425 -53 -641 -138 -99 -348 -259 -465 -355 -118 -96 -285 -179 -373 -185 -274 -16 -958 26 -995 62 -108 106 225 734 443 833 341 156 342 155 342 -179 0 -382 196 -509 212 -137 6 155 4 339 -6 411 -9 71 87 213 214 316 126 103 194 223 150 267 -45 45 -112 33 -150 -27 -81 -126 -661 -436 -815 -436 -222 0 -92 310 170 405 440 159 725 322 725 414 0 48 -133 17 -295 -66 -162 -84 -320 -153 -350 -153 -104 0 -55 1260 54 1369 60 60 134 566 165 1124 l56 1016 465 495 c256 273 517 496 580 496 396 0 1260 -1419 1376 -2261 37 -269 218 -984 401 -1589 183 -605 386 -1426 450 -1825 85 -530 157 -725 268 -725 86 0 129 58 100 134 -28 74 -83 389 -122 700 -60 477 -46 566 86 566 287 0 661 -228 724 -440 146 -502 391 -960 511 -960 187 0 209 -69 -398 1271 -73 159 -221 239 -533 286 -672 101 -722 241 -342 970 451 868 662 1073 1104 1073 500 0 1270 -271 1745 -614 217 -158 455 -286 529 -286 144 0 1224 -1091 1225 -1237 1 -48 136 -240 301 -428 210 -239 300 -446 300 -688 0 -303 31 -347 250 -347 283 0 322 116 100 300 -82 68 -150 201 -150 294 0 94 -134 347 -297 563 -164 216 -299 425 -300 464 -2 39 -182 264 -402 500 -219 236 -399 462 -400 503 0 40 -170 145 -376 233 l-375 160 225 154 c253 172 306 382 75 293 -168 -64 -207 89 -48 187 56 35 75 105 44 156 -32 51 -10 93 48 93 58 0 106 -90 106 -200 0 -144 67 -200 238 -200 151 0 257 -70 289 -193 35 -132 9 -176 -84 -141 -191 74 -344 -47 -278 -219 73 -191 376 -189 535 3 68 83 228 150 355 150 127 0 296 65 375 144 81 82 236 120 357 88 149 -39 213 -9 213 99 0 118 -106 151 -450 141 -247 -7 -450 -49 -450 -92 0 -44 -116 -80 -257 -80 -192 0 -249 45 -223 175 30 150 156 175 898 175 475 0 896 32 936 71 40 40 257 47 484 17 227 -30 510 -17 629 29 119 46 625 477 1125 958 499 481 952 875 1008 875 55 0 100 45 100 100 0 300 -433 4 -1417 -966 l-667 -657 -783 -76 c-982 -96 -2716 -40 -2875 92 -66 55 -364 164 -664 242 -970 255 -1838 571 -2115 770 -149 107 -300 195 -337 195 -96 0 -762 706 -972 1031 -99 153 -291 328 -425 390 -135 61 -245 143 -245 181 0 39 281 196 625 349 910 404 1103 570 1322 1139 182 470 353 664 353 399 0 -61 68 -84 150 -53 251 97 169 -48 -225 -396 -206 -183 -313 -334 -238 -336 111 -3 113 -33 13 -154 -174 -209 -33 -187 363 58 390 241 434 335 112 238 -212 -63 -215 -57 -58 107 184 191 483 137 483 -88 0 -77 -124 -192 -275 -256 -291 -121 -925 -638 -925 -754 0 -38 144 34 320 159 434 310 1005 594 1067 532 28 -28 -36 -112 -143 -187 -442 -310 -687 -553 -561 -556 73 -2 326 155 560 347 290 237 530 350 746 350 508 0 921 232 1534 861 732 752 826 890 1234 1820 186 423 342 747 348 719 6 -27 19 -612 30 -1300 17 -1109 45 -1295 253 -1650 350 -599 418 -663 978 -911 283 -126 542 -271 575 -324 32 -53 385 -264 784 -469 960 -494 1270 -721 1379 -1008 50 -131 160 -238 244 -238 121 0 152 -136 152 -663 0 -365 -43 -827 -95 -1025 -53 -199 -172 -711 -265 -1137 -93 -426 -197 -775 -231 -775 -33 0 -213 449 -398 998 -215 634 -399 1016 -505 1050 -448 142 -2002 -1052 -2404 -1848 -261 -518 -501 -2000 -323 -2000 44 0 157 414 253 919 125 663 249 1019 445 1275 542 713 743 874 1647 1320 95 47 198 86 228 86 105 0 655 -1405 1165 -2975 140 -432 254 -625 368 -625 130 0 167 105 172 500 4 275 -29 500 -75 500 -45 0 -85 -79 -88 -175 -5 -123 -36 -101 -106 73 -85 215 -58 282 205 500 297 247 324 323 574 1602 48 242 54 243 191 56 198 -271 179 -457 -104 -988 -156 -294 -207 -485 -141 -526 58 -36 139 -26 181 22 203 230 415 1023 408 1525 -5 309 -4 643 0 744 5 101 -43 246 -108 324 -97 117 -168 87 -428 -183 -306 -319 -312 -320 -346 -92 -20 128 38 389 129 580 96 203 141 460 107 618 -48 227 -3 305 282 489 471 303 705 207 1159 -476 514 -774 564 -953 308 -1090 -113 -61 -205 -200 -205 -311 0 -110 -277 -750 -616 -1421 -339 -672 -699 -1388 -800 -1591 -279 -561 -227 -905 77 -505 73 96 134 255 136 352 2 97 107 345 233 550 308 499 1170 2295 1170 2437 0 62 112 216 248 343 235 218 241 249 113 612 -74 210 -276 591 -448 846 -172 255 -313 531 -313 613 0 83 -79 248 -176 367 -155 192 -213 204 -475 105 -359 -136 -749 -484 -749 -667 0 -175 -146 -169 -296 12 -185 223 -47 483 416 782 664 431 978 377 1733 -299 680 -608 1048 -1265 1465 -2613 216 -700 196 -1059 -121 -2075 -284 -912 -360 -1478 -190 -1421 76 25 163 155 195 288 48 206 67 216 124 68 134 -349 289 -178 273 300 -9 261 -10 655 -1 875 17 431 73 362 289 -350 94 -309 101 -274 63 300 -65 978 -208 1809 -377 2200 -84 192 -314 712 -512 1154 -490 1094 -473 1212 135 898 177 -92 385 -350 542 -675 l255 -527 3 1775 c3 1119 -33 1775 -96 1775 -55 0 -100 68 -100 150 0 83 45 150 100 150 61 0 100 449 100 1148 0 1141 -1 1149 -250 1211 -280 70 -310 204 -106 473 134 176 142 176 244 0 84 -145 107 -73 109 349 2 332 -35 507 -98 469 -178 -111 -229 251 -61 437 125 137 162 390 162 1096 0 883 -46 1031 -259 818 -64 -64 -137 5 -212 203 -110 291 -104 300 154 274 259 -27 268 -10 297 547 16 316 -6 575 -50 575 -44 1 -88 158 -98 350 -10 193 24 350 75 350 55 0 93 1316 93 3250 0 1846 -39 3250 -89 3250 -50 0 -112 -169 -140 -375 -27 -206 -153 -1063 -280 -1904 -214 -1427 -219 -1547 -67 -1804 133 -225 147 -401 79 -971 -46 -383 -115 -1146 -154 -1696 -38 -550 -82 -1022 -99 -1050 -149 -249 -297 -2328 -298 -4200 -2 -2479 -185 -4896 -380 -5019 -205 -130 -314 -93 -661 223 l-333 305 72 1670 c93 2158 84 2389 -98 2649 -86 122 -149 414 -144 669 7 423 15 435 108 178 192 -525 312 -310 223 400 -145 1174 -21 2625 225 2625 112 0 129 56 69 225 -86 239 -68 3209 21 3488 49 154 437 329 527 239 22 -22 -31 -389 -118 -815 -87 -427 -137 -797 -110 -823 196 -196 347 855 412 2861 61 1885 24 2068 -319 1600 l-165 -225 70 237 c39 130 86 400 107 600 146 1454 383 1843 499 819 78 -684 243 -820 243 -199 0 223 47 493 104 600 97 181 124 184 400 41 290 -150 296 -148 296 99 0 139 -56 256 -125 261 -69 4 -215 27 -325 51 -110 24 -416 72 -679 107 -317 41 -528 131 -621 265 -184 262 -100 385 207 308 140 -35 311 -7 399 66 109 90 183 96 260 19 60 -60 171 -84 247 -55 76 29 251 -20 388 -110 243 -159 249 -157 249 89 l0 252 -2206 0 c-1580 0 -2186 -31 -2138 -110 38 -61 191 -86 342 -55 334 66 502 -85 502 -455 0 -189 -52 -280 -159 -280 -177 0 -1407 664 -1496 808 -31 51 -176 92 -321 92 -205 0 -237 -27 -144 -120 66 -66 120 -325 120 -575 0 -250 90 -1062 200 -1805 110 -742 245 -1687 300 -2100 122 -922 287 -1753 427 -2150 223 -632 988 -2387 1127 -2586 80 -115 146 -315 146 -446 0 -130 85 -357 189 -503 177 -248 353 -983 479 -1998 52 -418 47 -428 -156 -301 -211 131 -612 1137 -612 1533 0 116 -38 254 -84 306 -47 52 -186 365 -310 695 -124 330 -264 690 -312 800 -47 110 -134 389 -193 621 -58 231 -150 448 -204 481 -53 33 -97 167 -97 299 0 131 -58 275 -128 319 -70 44 -207 339 -305 655 -109 354 -233 575 -322 575 -171 0 -188 -117 -38 -267 59 -59 93 -260 75 -445 -29 -308 -42 -320 -146 -138 -111 195 -152 439 -289 1725 -63 589 -54 625 143 625 197 0 207 47 184 802 -19 650 -52 797 -174 774 -95 -18 -172 -191 -210 -477 -53 -394 -63 -357 -86 301 -64 1905 -55 2200 71 2200 170 0 159 448 -15 592 -77 64 -168 227 -202 362 -34 135 -129 246 -212 246 -108 0 -133 -67 -89 -241 62 -248 -274 -1159 -427 -1159 -45 0 -136 87 -202 193 -67 106 -245 207 -398 225 -345 40 -541 481 -350 787 114 182 93 195 -324 195 -307 0 -474 -51 -536 -161 -62 -111 -159 -140 -307 -93 -119 38 -190 110 -159 161 128 207 -179 69 -776 -349 -759 -530 -1034 -812 -884 -904 59 -37 133 0 164 81 31 82 234 265 450 408 507 336 519 115 15 -302 -757 -626 -1123 -680 -1123 -163 0 320 245 539 1080 962 286 145 520 285 520 312 0 154 -452 -1 -915 -313z m1562 -214 c-42 -96 -97 -302 -123 -456 -39 -224 -6 -293 164 -337 116 -30 212 -77 212 -104 0 -128 -632 -828 -748 -828 -284 0 -351 918 -102 1400 213 412 761 711 597 325z m4653 -1031 c0 -312 -38 -482 -100 -444 -55 34 -100 262 -100 506 0 244 45 444 100 444 55 0 100 -228 100 -506z m-5747 2 c35 -58 -7 -214 -94 -347 -92 -140 -159 -454 -159 -745 0 -277 -45 -504 -100 -504 -133 0 -130 1258 4 1507 114 214 250 248 349 89z m-753 -1146 c0 -560 -34 -750 -134 -750 -98 0 -129 153 -116 575 25 837 39 925 150 925 58 0 100 -317 100 -750z m3394 375 c-3 -206 -39 -555 -80 -775 -74 -395 -75 -392 -136 238 -34 351 -38 700 -9 775 102 267 231 131 225 -238z m4606 75 c0 -111 -67 -200 -150 -200 -168 0 -175 18 -89 242 85 223 239 196 239 -42z m-6920 -1129 c-24 -608 -57 -748 -164 -681 -90 56 -145 367 -168 962 -35 877 -34 879 163 681 169 -169 194 -309 169 -962z m537 220 c-37 -905 -128 -975 -189 -147 -32 436 77 955 201 956 11 0 6 -364 -12 -809z m5443 436 c-33 -33 -56 26 -52 131 5 117 28 141 60 61 29 -72 26 -159 -8 -192z m-4260 -433 c0 -272 -39 -494 -86 -494 -103 0 -238 880 -157 1012 125 201 243 -51 243 -518z m1010 -20 c-73 -178 -139 -433 -146 -566 -19 -323 -182 -359 -474 -106 -233 203 -234 207 -21 148 254 -69 375 102 485 684 51 275 101 351 180 272 78 -78 72 -199 -24 -432z m4240 426 c-34 -55 -82 -100 -106 -100 -24 0 -44 45 -44 100 0 55 48 100 106 100 58 0 78 -45 44 -100z m-8750 -425 c0 -117 -146 -88 -187 38 -21 61 13 95 75 75 61 -21 112 -72 112 -113z m8179 -227 c17 -122 -92 -319 -274 -493 -339 -325 -510 -289 -268 57 113 161 128 260 52 352 -148 178 -12 353 245 317 127 -18 228 -114 245 -233z m-7579 -424 c563 -259 759 -474 1344 -1474 257 -440 509 -867 560 -950 326 -522 495 -935 607 -1478 134 -648 90 -831 -151 -630 -80 66 -205 112 -278 102 -330 -45 -482 18 -482 199 0 350 -791 820 -1915 1139 -573 162 -2850 206 -2942 56 -28 -45 -375 -178 -772 -295 -397 -117 -788 -265 -871 -328 -82 -63 -252 -172 -377 -242 -193 -108 -237 -103 -288 30 -33 87 -21 295 27 462 79 273 172 330 938 577 468 150 1075 327 1350 391 1005 237 2993 160 3280 -127 71 -72 263 -199 425 -283 162 -84 555 -405 872 -713 871 -845 917 -776 321 490 -181 385 -363 790 -406 900 -74 192 -79 191 -117 -25 -57 -329 -183 -276 -355 150 -160 395 -512 825 -674 825 -53 0 -96 45 -96 100 0 132 -369 498 -435 432 -28 -28 -27 -115 3 -192 43 -112 -87 -140 -649 -140 l-702 0 182 374 c101 206 162 409 136 450 -98 159 -212 64 -270 -224 -43 -215 -117 -300 -262 -300 -215 0 -291 334 -103 450 123 76 132 250 12 250 -131 0 -343 -574 -277 -748 33 -84 150 -152 262 -152 286 0 253 -186 -45 -248 -136 -28 -368 -77 -515 -108 -147 -30 -295 -14 -328 37 -32 50 -160 124 -284 162 -167 53 -225 30 -225 -86 0 -86 45 -157 100 -157 55 0 100 -45 100 -100 0 -221 -218 -80 -347 225 -117 275 -149 297 -209 143 -39 -100 -20 -232 43 -295 203 -203 123 -246 -579 -315 -409 -41 -741 -128 -812 -213 -66 -80 -177 -145 -246 -145 -226 0 -1009 -389 -1194 -593 -114 -126 -163 -294 -132 -453 59 -312 -179 -352 -276 -47 -39 122 -123 186 -203 155 -94 -36 -158 55 -201 286 -104 555 396 1426 1015 1768 306 169 527 236 586 177 159 -156 272 -104 208 97 -47 148 38 244 385 438 375 209 589 251 1353 263 499 8 1009 54 1133 103 124 48 699 76 1276 62 811 -19 1152 -72 1500 -232z m9500 -844 c0 -645 -35 -985 -95 -925 -86 86 -29 1945 60 1945 19 0 35 -459 35 -1020z m-334 495 c-28 -69 -50 -12 -50 125 0 138 22 194 50 125 28 -69 28 -181 0 -250z m-5635 -426 c471 -433 476 -444 234 -504 -342 -86 -665 110 -665 403 0 132 -45 268 -100 302 -117 72 -135 252 -25 246 41 -2 291 -203 556 -447z m5128 244 c213 -177 169 -312 -57 -171 -155 97 -223 97 -320 0 -149 -149 -1082 -164 -1082 -17 0 324 1121 468 1459 188z m-3961 -268 c-2 -254 -158 -462 -287 -382 -122 76 -150 385 -44 490 130 131 333 64 331 -108z m2002 -325 c0 -55 -45 -100 -100 -100 -55 0 -100 45 -100 100 0 55 45 100 100 100 55 0 100 -45 100 -100z m-6840 -314 c257 -123 787 -872 688 -971 -22 -23 -211 42 -419 143 -277 135 -675 195 -1479 223 -1171 41 -1668 -38 -3474 -553 l-975 -278 0 -475 c-1 -355 -39 -475 -151 -475 -82 0 -150 19 -150 42 0 23 -27 113 -61 200 -41 108 -1 161 125 168 132 7 114 30 -64 79 -417 116 -337 518 152 761 843 420 1414 635 1848 698 248 36 675 138 950 226 1202 386 2463 475 3010 212z m8290 114 c-34 -55 -82 -100 -106 -100 -24 0 -44 45 -44 100 0 55 48 100 106 100 58 0 78 -45 44 -100z m-850 -256 c0 -79 -45 -144 -100 -144 -55 0 -100 93 -100 206 0 113 45 178 100 144 55 -34 100 -127 100 -206z m-4061 -302 c89 -230 97 -220 -352 -449 -368 -187 -429 -194 -564 -59 -207 207 -83 466 224 466 139 0 253 45 253 100 0 163 373 114 439 -58z m3398 -361 c35 -148 24 -293 -25 -324 -94 -58 -208 261 -211 588 -1 258 155 84 236 -264z m-2664 -416 c-21 -63 -237 -174 -480 -246 -244 -72 -522 -174 -618 -226 -140 -76 -175 -55 -175 106 0 369 306 560 832 518 300 -24 464 -80 441 -152z m-2573 -421 c0 -24 -45 -44 -100 -44 -55 0 -100 48 -100 106 0 58 45 78 100 44 55 -34 100 -82 100 -106z m3200 87 c0 -122 -431 -531 -560 -531 -215 0 -211 343 5 471 224 133 555 169 555 60z m-5333 -275 c156 -80 553 -244 883 -367 659 -244 818 -341 948 -586 81 -150 24 -153 -674 -33 -455 78 -844 206 -968 319 -345 314 -1272 333 -2086 41 -374 -134 -734 -225 -799 -204 -65 22 -343 -43 -618 -143 -537 -196 -1123 -256 -856 -87 188 119 85 229 -134 145 -92 -35 -154 -137 -140 -227 21 -127 -45 -158 -292 -139 -176 13 -347 -20 -381 -75 -62 -100 -84 -176 -226 -793 -44 -188 -139 -362 -212 -386 -90 -30 -115 15 -77 142 31 103 107 395 169 650 82 332 183 495 360 575 316 144 467 143 376 -3 -44 -73 -27 -89 46 -44 65 40 94 110 66 156 -73 118 558 470 1388 774 509 186 1008 278 1760 326 578 36 1080 75 1117 85 37 10 194 -47 350 -126z m-5681 -545 c181 -590 -75 -688 -575 -221 -428 399 -404 565 79 565 358 0 399 -29 496 -344z m9439 137 c26 -139 9 -277 -38 -306 -48 -30 -87 84 -87 252 0 371 59 397 125 54z m4575 8 c0 -126 -480 -509 -551 -439 -18 18 -63 154 -100 301 -58 232 -41 261 131 216 108 -28 228 -2 266 59 83 136 254 44 254 -137z m-8550 -351 c166 -67 131 -93 -200 -150 -559 -98 -1444 -345 -1800 -503 -165 -74 -390 -157 -500 -185 -110 -29 -515 -170 -900 -315 -1431 -538 -1558 -546 -1394 -86 95 266 211 317 1444 635 644 167 1417 402 1650 502 445 193 1344 246 1700 102z m7394 -1042 c86 -213 156 -470 156 -572 0 -181 194 -686 463 -1206 75 -146 137 -355 137 -464 0 -109 67 -327 149 -485 83 -157 150 -379 150 -494 1 -114 112 -311 247 -438 159 -150 269 -393 313 -693 37 -253 158 -641 269 -861 186 -368 194 -467 90 -1250 -61 -467 -111 -1226 -110 -1687 1 -460 -22 -861 -52 -891 -30 -30 -146 28 -257 129 -173 157 -196 275 -159 841 23 362 99 963 169 1337 135 723 33 1460 -270 1942 -76 122 -139 356 -139 520 0 163 -45 325 -100 359 -55 34 -100 221 -100 415 0 270 -48 366 -200 406 -213 56 -267 190 -98 246 101 34 -328 1395 -843 2677 -143 354 -258 759 -257 900 3 255 3 254 144 -44 78 -165 212 -474 298 -687z m-3315 537 c39 -148 3 -200 -138 -200 -211 0 -218 13 -130 242 83 217 205 198 268 -42z m-2685 -379 c870 -50 900 -44 756 132 -137 168 -134 178 34 115 102 -38 293 -96 425 -129 133 -33 241 -114 241 -180 0 -287 267 -674 500 -724 158 -34 389 -257 629 -607 512 -746 416 -915 -113 -199 -260 352 -583 651 -844 782 -232 116 -512 293 -622 393 -237 215 -1850 422 -2540 327 -328 -46 -422 -31 -367 58 41 65 160 92 266 58 124 -39 213 -6 251 94 48 125 102 133 269 44 115 -62 617 -136 1115 -164z m2006 32 c318 -115 349 -144 150 -145 -137 -1 -337 64 -444 145 -239 181 -209 181 294 0z m5619 -529 c-25 -96 -45 6 -44 226 1 220 22 298 46 174 24 -125 23 -305 -2 -400z m-17362 372 c106 -56 193 -165 193 -240 0 -110 -49 -115 -249 -22 -137 64 -250 172 -250 241 -1 152 54 156 306 21z m6332 -230 c104 -39 162 -98 128 -132 -87 -88 -568 247 -564 393 2 80 46 68 125 -33 67 -86 207 -188 311 -228z m6861 184 c69 -84 80 -150 24 -150 -55 0 -156 68 -224 150 -69 84 -80 150 -24 150 55 0 156 -68 224 -150z m-17002 -175 c-1 -182 -20 -196 -98 -75 -125 194 -125 300 0 300 55 0 99 -101 98 -225z m10952 125 c78 -127 -54 -127 -250 0 -129 84 -127 97 19 98 93 1 197 -43 231 -98z m5555 -109 c174 -325 17 -359 -281 -61 -262 263 -263 270 -50 270 120 0 269 -94 331 -209z m-15405 3 c0 -58 -45 -78 -100 -44 -55 34 -100 82 -100 106 0 24 45 44 100 44 55 0 100 -48 100 -106z m10300 -50 c0 -24 -45 -44 -100 -44 -55 0 -100 48 -100 106 0 58 45 78 100 44 55 -34 100 -82 100 -106z m-1900 -100 c0 -24 -45 -44 -100 -44 -55 0 -100 48 -100 106 0 58 45 78 100 44 55 -34 100 -82 100 -106z m3937 26 c35 35 63 6 63 -65 0 -84 -77 -108 -225 -68 -124 33 -261 61 -306 62 -44 0 -53 46 -19 101 41 66 125 67 243 4 99 -53 209 -69 244 -34z m-12877 -243 c-33 -33 -56 26 -52 131 5 117 28 141 60 61 29 -72 26 -159 -8 -192z m11240 11 c0 -82 -45 -122 -100 -88 -55 34 -100 129 -100 212 0 82 45 122 100 88 55 -34 100 -129 100 -212z m-10000 6 c0 -86 -45 -128 -100 -94 -55 34 -100 104 -100 156 0 52 45 94 100 94 55 0 100 -70 100 -156z m7235 6 c197 -82 541 -150 763 -150 223 0 505 -52 628 -116 123 -63 289 -145 368 -182 230 -106 235 -279 9 -351 -230 -73 -567 -521 -467 -620 34 -35 145 11 245 102 100 90 337 191 526 222 302 51 319 44 143 -65 -339 -209 -495 -567 -196 -452 90 34 147 8 138 -65 -37 -291 14 -392 169 -333 108 42 145 19 111 -69 -30 -78 71 -185 246 -263 266 -118 315 -110 489 76 106 114 193 256 193 316 0 60 56 98 125 85 69 -13 226 10 349 52 168 57 369 -12 800 -275 317 -194 689 -379 826 -413 138 -34 381 -168 541 -297 271 -219 279 -246 125 -400 -91 -92 -166 -277 -166 -412 0 -312 -560 -1778 -856 -2240 -245 -384 -1065 -1179 -1418 -1375 -123 -69 -402 -125 -621 -125 -309 0 -426 50 -523 225 -68 124 -113 266 -98 316 15 50 -32 127 -103 171 -71 44 -130 160 -130 259 -1 116 -81 183 -229 190 -126 7 -259 43 -297 81 -86 86 185 263 297 194 45 -28 223 68 394 212 202 170 347 229 410 166 118 -118 12 -314 -170 -314 -72 0 -188 -67 -256 -150 -168 -202 15 -199 413 7 183 94 282 211 251 294 -33 86 29 148 167 168 129 18 231 113 248 231 24 173 -33 202 -425 217 -250 10 -454 -24 -454 -75 0 -50 -86 -92 -191 -92 -268 0 -155 383 155 525 130 59 236 167 236 241 0 228 -452 148 -687 -122 -302 -348 -634 -297 -686 106 -22 165 -191 638 -376 1050 -185 413 -365 863 -400 1000 -85 339 -605 900 -834 900 -102 0 -267 -90 -367 -200 -100 -110 -281 -200 -404 -200 -309 0 -365 386 -131 908 102 227 185 470 185 538 0 116 438 654 533 654 23 0 204 -68 402 -150z m1862 -46 c81 -51 123 -118 93 -148 -30 -29 -141 12 -247 92 -211 159 -83 206 154 56z m3503 -65 c0 -21 -68 -39 -150 -39 -82 0 -150 44 -150 97 0 53 68 71 150 39 82 -31 150 -75 150 -97z m-9400 -95 c0 -24 -45 -44 -100 -44 -55 0 -100 48 -100 106 0 58 45 78 100 44 55 -34 100 -82 100 -106z m445 -269 c-37 -124 -114 -270 -171 -325 -71 -68 -83 -42 -39 83 36 101 65 247 65 325 0 78 48 142 107 142 64 0 79 -90 38 -225z m2355 31 c0 -107 -53 -227 -117 -267 -81 -49 -95 -15 -47 112 42 109 19 216 -58 264 -94 60 -82 82 47 83 107 1 175 -73 175 -192z m6200 -116 c0 -49 -64 -90 -142 -90 -248 0 -458 117 -458 255 0 106 64 112 300 30 165 -58 300 -145 300 -195z m1656 -536 c422 -531 660 -748 822 -750 127 -2 253 -81 284 -179 30 -96 167 -414 303 -706 136 -292 233 -630 216 -750 -23 -161 -94 -68 -268 356 -170 413 -289 575 -425 575 -103 0 -188 -45 -188 -100 0 -153 -267 -119 -443 57 -248 248 -190 366 143 293 399 -88 384 59 -50 493 -192 193 -350 397 -350 454 0 57 -124 104 -275 105 -270 1 -709 193 -450 196 198 3 145 284 -75 402 -249 134 -260 300 -19 300 107 0 429 -310 775 -746z m-14056 396 c0 -139 -680 -307 -785 -193 -36 39 -15 88 46 110 61 22 194 101 296 175 207 152 443 103 443 -92z m5641 -125 c-81 -452 -68 -432 -220 -338 -94 58 -97 151 -12 395 154 443 316 404 232 -57z m4759 175 c0 -55 -45 -100 -100 -100 -55 0 -100 45 -100 100 0 55 45 100 100 100 55 0 100 -45 100 -100z m6300 -371 c0 -236 -247 -85 -285 174 -30 207 -14 221 125 105 88 -73 160 -198 160 -279z m-11600 51 c0 -162 -30 -190 -111 -109 -61 61 -81 160 -44 220 103 168 155 130 155 -111z m6300 0 c120 -76 113 -83 -33 -38 -101 32 -270 58 -375 58 -106 0 -192 48 -192 107 0 113 335 42 600 -127z m4258 -205 c39 -124 154 -284 256 -356 267 -187 241 -414 -39 -346 -354 87 -575 333 -575 642 0 346 254 389 358 60z m-2758 18 c0 -151 -193 -493 -279 -493 -39 0 -80 135 -92 300 -17 238 19 300 175 300 108 0 196 -48 196 -107z m-12740 -366 c-101 -102 -185 51 -102 186 63 102 87 102 121 1 23 -70 15 -154 -19 -187z m5440 -132 c0 -275 -169 -325 -237 -69 -89 333 -78 373 87 310 83 -31 150 -140 150 -241z m4419 237 c-72 -29 -159 -26 -192 8 -33 33 26 56 131 52 117 -5 141 -28 61 -60z m12281 -182 c0 -137 -45 -250 -100 -250 -55 0 -100 113 -100 250 0 138 45 250 100 250 55 0 100 -112 100 -250z m-10196 -57 c108 -202 105 -203 -147 -39 -294 193 -318 246 -111 246 81 0 197 -93 258 -207z m-7283 -511 c-23 -96 -101 -145 -181 -114 -148 57 -182 307 -77 580 53 138 81 128 181 -67 65 -127 100 -307 77 -399z m8929 418 c34 -55 17 -100 -38 -100 -55 0 -128 45 -162 100 -34 55 -17 100 38 100 55 0 128 -45 162 -100z m3752 -157 c131 -342 123 -468 -24 -419 -144 48 -295 676 -163 676 50 0 134 -115 187 -257z m-17904 -318 c-1 -214 -22 -242 -98 -125 -126 196 -126 400 0 400 55 0 99 -124 98 -275z m6649 -711 c-111 -111 -443 431 -445 726 -2 269 16 256 252 -188 140 -263 227 -505 193 -538z m-5987 613 c-33 -33 -56 26 -52 131 5 117 28 141 60 61 29 -72 26 -159 -8 -192z m5340 173 c0 -55 -48 -100 -106 -100 -58 0 -78 45 -44 100 34 55 82 100 106 100 24 0 44 -45 44 -100z m8065 -156 c141 -141 233 -279 204 -308 -74 -74 -542 249 -607 420 -88 227 123 168 403 -112z m-15867 -175 c-1 -178 -19 -191 -98 -69 -127 197 -127 429 0 350 55 -34 99 -160 98 -281z m9802 175 c0 -24 -70 -44 -156 -44 -86 0 -128 46 -93 102 57 92 249 48 249 -58z m-2249 -1037 c61 -405 52 -434 -96 -311 -89 74 -151 206 -136 294 14 88 -11 219 -56 291 -46 73 -49 298 -8 500 l75 369 77 -348 c43 -192 107 -550 144 -795z m11629 680 c-32 -201 -46 -187 -92 91 -33 199 -18 292 37 237 51 -51 75 -198 55 -328z m-880 -111 c0 -56 -66 -45 -150 24 -82 68 -150 169 -150 224 0 56 66 45 150 -24 83 -68 150 -169 150 -224z m-15850 124 c-34 -55 -104 -100 -156 -100 -52 0 -94 45 -94 100 0 55 70 100 156 100 86 0 128 -45 94 -100z m2810 -273 c-33 -33 -56 26 -52 131 5 117 28 141 60 61 29 -72 26 -159 -8 -192z m14569 -354 c31 -318 18 -552 -30 -522 -119 73 -237 907 -149 1049 100 162 116 117 179 -527z m-11629 -562 c0 -322 -305 143 -359 546 l-52 393 206 -393 c113 -216 205 -462 205 -546z m-6007 514 c-6 -244 -17 -252 -93 -75 -117 273 -117 350 0 350 55 0 97 -124 93 -275z m7340 -15 c-45 -34 -117 -103 -158 -153 -41 -50 -75 6 -75 123 0 154 44 197 158 153 87 -33 121 -89 75 -123z m7151 -65 c163 -357 145 -403 -76 -203 -153 139 -233 151 -400 62 -169 -90 -208 -82 -208 42 0 87 87 154 200 154 110 0 200 45 200 100 0 191 168 99 284 -155z m554 80 c34 -96 87 -242 118 -325 31 -82 -36 -44 -150 86 -218 249 -265 414 -118 414 49 0 116 -79 150 -175z m-12038 -175 c0 -137 -39 -250 -86 -250 -48 0 -65 113 -38 250 26 138 65 250 86 250 21 0 38 -112 38 -250z m5298 -346 c128 -273 242 -657 254 -854 13 -216 97 -415 210 -498 174 -129 176 -152 25 -306 -152 -154 -210 -117 -823 519 -724 751 -808 1018 -447 1404 333 354 521 290 781 -265z m-10424 -263 c-128 -128 -274 84 -268 390 l7 319 161 -324 c89 -178 134 -351 100 -385z m19086 386 c-33 -33 -56 26 -52 131 5 117 28 141 60 61 29 -72 26 -159 -8 -192z m-12300 -100 c-33 -33 -56 26 -52 131 5 117 28 141 60 61 29 -72 26 -159 -8 -192z m2137 -327 c0 -133 -11 -133 -97 0 -53 83 -97 218 -97 300 0 133 11 133 97 0 53 -82 97 -217 97 -300z m9703 0 c0 -220 -45 -400 -100 -400 -110 0 -134 394 -39 642 98 256 139 184 139 -242z m-1300 -50 c0 -65 107 -166 237 -226 139 -63 259 -224 291 -390 77 -404 -34 -511 -178 -172 -67 159 -231 401 -363 538 -132 138 -304 331 -381 431 -131 168 -122 172 127 58 147 -66 267 -174 267 -239z m-9663 25 c102 -379 72 -405 -180 -162 -171 164 -208 256 -125 309 187 119 241 93 305 -147z m10563 131 c0 -136 -176 -225 -240 -122 -60 97 26 216 157 216 46 0 83 -42 83 -94z m-10900 -579 c231 -524 232 -527 100 -527 -55 0 -100 43 -100 96 0 52 -112 261 -250 464 -286 421 -315 559 -100 476 83 -32 240 -261 350 -509z m1100 102 c0 -236 -247 -85 -285 174 -30 207 -14 221 125 105 88 -73 160 -198 160 -279z m677 -210 c60 -180 -147 -142 -216 39 -38 98 -15 143 58 119 65 -22 136 -93 158 -158z m7684 -251 c12 -425 -79 -383 -245 114 -98 293 -90 328 62 298 124 -23 175 -138 183 -412z m3268 23 c12 -133 -24 -263 -79 -291 -56 -28 -114 126 -132 350 -23 292 -1 370 79 291 61 -60 120 -217 132 -350z m-15129 20 c0 -98 -29 -206 -64 -242 -122 -122 -209 28 -161 277 53 276 225 249 225 -35z m-3964 -162 c-32 -83 53 -297 189 -475 135 -178 279 -428 319 -556 41 -127 208 -384 373 -572 164 -187 284 -419 265 -516 -23 -120 -186 55 -510 547 -262 398 -528 836 -590 973 -137 301 -282 326 -282 50 0 -110 -45 -200 -100 -200 -55 0 -100 203 -100 450 0 412 21 450 247 450 179 0 231 -41 189 -151z m8842 -134 c29 -86 -19 -122 -133 -100 -98 19 -199 96 -223 170 -29 86 19 122 133 100 98 -19 199 -96 223 -170z m-641 -212 c71 -71 5 -103 -209 -103 -349 0 -628 85 -628 192 0 107 718 30 837 -89z m2313 97 c-34 -55 -107 -100 -162 -100 -55 0 -72 45 -38 100 34 55 107 100 162 100 55 0 72 -45 38 -100z m5912 -771 c-133 -134 -562 207 -562 446 0 239 2 238 312 -72 172 -171 284 -340 250 -374z m2089 -17 c-152 -150 -159 -139 -99 138 114 526 183 622 225 312 24 -179 -24 -350 -126 -450z m-15122 388 c63 -241 -83 -364 -169 -141 -85 221 -75 341 28 341 49 0 112 -90 141 -200z m12071 44 c0 -24 -45 -44 -100 -44 -55 0 -100 48 -100 106 0 58 45 78 100 44 55 -34 100 -82 100 -106z m-5250 -44 c-34 -55 -82 -100 -106 -100 -24 0 -44 45 -44 100 0 55 48 100 106 100 58 0 78 -45 44 -100z m-1496 -107 c36 -58 45 -127 20 -152 -69 -70 -374 68 -374 170 0 125 274 111 354 -18z m8546 1 c0 -58 -45 -78 -100 -44 -55 34 -100 82 -100 106 0 24 45 44 100 44 55 0 100 -48 100 -106z m682 -227 c34 -289 -122 -366 -221 -109 -100 261 -69 461 64 418 69 -23 139 -162 157 -309z m-12322 -140 c-33 -33 -56 26 -52 131 5 117 28 141 60 61 29 -72 26 -159 -8 -192z m2390 -27 c34 -55 17 -100 -38 -100 -55 0 -128 45 -162 100 -34 55 -17 100 38 100 55 0 128 -45 162 -100z m-1026 -825 c47 -767 32 -971 -62 -867 -72 81 -128 1692 -58 1692 39 0 93 -371 120 -825z m2385 294 c-79 -79 -109 -53 -109 94 0 265 140 405 184 185 19 -93 -14 -218 -75 -279z m8977 -8 c-16 -186 23 -401 87 -478 107 -130 4 -495 -108 -380 -102 105 -108 1197 -7 1197 31 0 44 -152 28 -339z m-1220 -188 c-28 -68 -49 12 -47 177 3 165 25 220 50 123 26 -97 24 -232 -3 -300z m-761 -165 c221 -160 367 -312 324 -338 -104 -61 -829 404 -829 531 0 150 67 124 505 -193z m-10339 -235 c-28 -68 -49 12 -47 177 3 165 25 220 50 123 26 -97 24 -232 -3 -300z m11619 -471 c-259 -351 -385 -384 -385 -102 0 110 46 200 102 200 57 0 150 124 208 275 92 243 115 255 201 102 72 -130 40 -251 -126 -475z m4981 273 c-28 -69 -50 -12 -50 125 0 138 22 194 50 125 28 -69 28 -181 0 -250z m-18316 42 c0 -196 -195 -180 -233 20 -24 121 11 170 98 141 74 -24 135 -97 135 -161z m11700 -117 c34 -55 17 -100 -38 -100 -55 0 -128 45 -162 100 -34 55 -17 100 38 100 55 0 128 -45 162 -100z m-16184 -527 c-28 -68 -49 12 -47 177 3 165 25 220 50 123 26 -97 24 -232 -3 -300z m824 -720 c84 -84 109 -152 56 -151 -160 2 -837 255 -919 344 -142 152 707 -37 863 -193z m6392 55 c-79 -126 -224 -188 -426 -181 -168 6 -391 -27 -495 -74 -141 -64 -177 -50 -142 56 25 78 245 194 488 258 660 174 717 168 575 -59z m748 30 c176 -89 394 -227 484 -306 192 -168 133 -532 -86 -532 -92 0 -127 58 -92 150 34 88 2 150 -78 150 -166 0 -285 -274 -189 -434 38 -64 150 -175 250 -247 248 -179 227 -319 -47 -319 -147 0 -291 105 -400 290 -214 362 -216 506 -10 657 210 153 109 488 -189 632 -123 59 -165 111 -93 114 71 4 274 -66 450 -155z m12870 -638 c0 -55 -90 -100 -200 -100 -110 0 -200 45 -200 100 0 55 90 100 200 100 110 0 200 -45 200 -100z m-11482 -725 c127 -179 232 -370 232 -425 0 -55 135 -106 300 -114 165 -7 525 -112 800 -232 451 -197 480 -229 300 -324 -110 -57 -254 -172 -320 -255 -147 -184 -630 -89 -630 123 0 181 -367 386 -558 313 -78 -30 -142 -171 -142 -314 0 -353 -166 -226 -224 172 -36 244 4 364 163 493 116 94 178 204 138 244 -40 40 -143 14 -230 -58 -134 -111 -166 -99 -214 86 -31 119 -115 216 -186 216 -176 0 -240 211 -129 426 118 229 380 98 700 -351z m-9418 325 c0 -55 -48 -100 -106 -100 -58 0 -78 45 -44 100 34 55 82 100 106 100 24 0 44 -45 44 -100z m1524 -67 c87 -51 46 -396 -59 -501 -40 -40 -99 28 -132 151 -32 123 -176 291 -321 374 l-262 150 350 -65 c193 -36 383 -85 424 -109z m-1495 -696 c126 -126 -638 -427 -863 -341 -211 82 -211 86 -16 152 110 38 290 107 400 154 249 105 398 116 479 35z m959 1 c171 -35 312 -101 312 -148 0 -95 -566 -9 -800 121 -129 71 -128 83 13 86 89 2 303 -25 475 -59z m7812 -105 c0 -91 -28 -138 -63 -103 -35 35 -145 19 -244 -34 -241 -129 -356 58 -120 195 262 153 427 130 427 -58z m-8740 -606 c-101 -102 -185 51 -102 186 63 102 87 102 121 1 23 -70 15 -154 -19 -187z m8840 173 c0 -55 -67 -100 -150 -100 -82 0 -150 45 -150 100 0 55 68 100 150 100 83 0 150 -45 150 -100z m-7603 -147 c226 -272 55 -338 -247 -95 -272 219 -280 241 -87 242 117 0 267 -66 334 -147z m10750 -48 c32 -52 -33 -144 -144 -204 -112 -59 -203 -174 -203 -255 0 -80 -68 -146 -150 -146 -82 0 -150 39 -150 88 0 48 68 144 150 212 82 68 150 186 150 262 0 156 257 188 347 43z m-2247 -105 c0 -55 -45 -100 -100 -100 -55 0 -100 45 -100 100 0 55 45 100 100 100 55 0 100 -45 100 -100z m1600 6 c0 -118 -195 -244 -267 -173 -71 72 55 267 173 267 52 0 94 -42 94 -94z m-11011 -106 c150 0 349 -56 443 -125 141 -104 34 -127 -637 -136 -456 -6 -857 -61 -921 -125 -133 -133 -374 -152 -374 -30 0 46 182 144 405 218 223 73 430 173 460 222 30 50 122 64 203 33 82 -31 271 -57 421 -57z m8388 -48 c15 -12 -37 -145 -115 -295 -151 -292 -196 -266 -302 176 -62 260 -49 277 161 213 126 -39 241 -81 256 -94z m3652 -336 c-183 -321 -365 -400 -483 -209 -37 59 29 131 145 162 116 30 239 165 273 300 37 149 97 210 153 154 56 -56 21 -216 -88 -407z m7821 84 c34 -54 -59 -211 -207 -348 -164 -152 -299 -414 -348 -675 -120 -641 -279 -999 -407 -920 -70 43 -89 224 -52 481 114 785 256 1107 589 1331 394 265 351 251 425 131z m-11050 -103 c0 -120 -282 -248 -364 -166 -88 88 61 269 220 269 79 0 144 -46 144 -103z m-8571 -297 c-29 -110 -74 -200 -100 -200 -26 0 -162 90 -302 200 l-254 200 354 0 c305 0 347 -28 302 -200z m8408 -141 c221 85 208 -138 -29 -498 l-191 -290 -108 390 c-142 510 -137 587 28 450 76 -63 211 -86 300 -52z m-9137 -105 c0 -26 -90 -95 -200 -154 -121 -65 -200 -69 -200 -11 0 53 79 117 175 142 96 25 186 51 200 57 14 7 25 -9 25 -34z m700 -343 c0 -129 -273 -215 -458 -144 -128 49 -133 77 -25 145 176 112 483 111 483 -1z m-1344 -2064 c-107 -81 -242 -146 -300 -144 -58 2 -19 69 88 150 107 81 242 146 300 144 58 -2 19 -69 -88 -150z m7644 -253 c0 -58 -45 -78 -100 -44 -55 34 -100 82 -100 106 0 24 45 44 100 44 55 0 100 -48 100 -106z"/>
<path d="M13200 21000 c0 -55 45 -100 100 -100 55 0 100 45 100 100 0 55 -45 100 -100 100 -55 0 -100 -45 -100 -100z"/>
<path d="M9403 20904 c-167 -106 -157 -119 222 -282 291 -125 342 -311 171 -629 -67 -126 -68 -193 -3 -193 141 0 307 342 307 632 0 150 -95 308 -246 406 -288 189 -263 185 -451 66z"/>
<path d="M14203 20406 c-65 -121 -68 -216 -8 -253 83 -51 305 233 305 390 0 134 -202 41 -297 -137z"/>
<path d="M9275 20367 c-127 -311 -84 -555 118 -663 288 -154 358 -126 181 71 -87 96 -172 310 -191 475 -27 243 -47 265 -108 117z"/>
<path d="M7500 19717 c0 -46 34 -118 75 -159 41 -42 75 -191 75 -333 0 -141 53 -275 117 -297 127 -43 121 549 -8 757 -82 133 -259 155 -259 32z"/>
<path d="M6971 19338 c-39 -39 -71 -147 -71 -239 0 -196 461 -442 553 -295 33 54 -14 126 -105 161 -91 34 -196 149 -235 253 -39 105 -103 159 -142 120z"/>
<path d="M9556 18035 c-431 -156 -656 -310 -656 -450 0 -49 101 -26 225 52 124 77 394 194 600 260 206 65 375 160 375 211 0 112 -46 106 -544 -73z"/>
<path d="M11100 19300 c0 -55 68 -100 150 -100 83 0 150 45 150 100 0 55 -67 100 -150 100 -82 0 -150 -45 -150 -100z"/>
<path d="M9003 18804 c-81 -51 -126 -113 -100 -137 82 -75 697 52 697 144 0 117 -409 112 -597 -7z"/>
<path d="M11412 4510 c-179 -114 -56 -310 194 -310 214 0 221 13 133 242 -69 179 -130 192 -327 68z"/>
<path d="M17643 24800 c31 -109 82 -289 114 -400 58 -205 287 -271 387 -110 30 49 27 229 -7 400 -49 245 -113 310 -306 310 -197 0 -233 -39 -188 -200z"/>
<path d="M3200 20742 c0 -87 53 -141 119 -119 185 62 216 277 39 277 -87 0 -158 -71 -158 -158z"/>
<path d="M3600 18856 c-1166 -595 -1800 -969 -1800 -1064 0 -50 15 -92 34 -92 18 0 564 293 1212 650 648 358 1216 650 1260 650 45 0 110 45 144 100 111 180 -188 94 -850 -244z"/>
<path d="M23041 12133 c6 -537 48 -779 140 -810 104 -35 116 87 57 592 -42 349 -76 714 -78 810 -2 96 -31 175 -66 175 -34 0 -58 -345 -53 -767z"/>
<path d="M3500 11794 c0 -113 43 -179 96 -147 52 33 70 125 39 206 -79 207 -135 183 -135 -59z"/>
<path d="M3507 10975 c6 -272 21 -293 93 -125 119 276 119 450 0 450 -55 0 -97 -146 -93 -325z"/>
<path d="M3366 10182 c-61 -236 -8 -382 140 -382 119 0 124 470 5 543 -48 30 -114 -43 -145 -161z"/>
<path d="M3211 8861 c-131 -73 -198 -156 -150 -185 125 -74 539 96 539 221 0 134 -97 126 -389 -36z"/>
<path d="M12566 7511 c-157 -103 -244 -213 -195 -243 50 -31 223 52 385 184 349 286 216 327 -190 59z"/>
<path d="M3035 7346 c-171 -129 -160 -140 140 -143 331 -3 439 132 185 229 -77 30 -224 -9 -325 -86z"/>
<path d="M12800 7200 c-122 -79 -109 -97 69 -98 121 -1 247 43 281 98 79 127 -153 127 -350 0z"/>
<path d="M4241 6325 c-171 -259 -328 -1645 -168 -1485 61 61 515 1522 523 1685 9 167 -184 58 -355 -200z"/>
<path d="M14548 6097 c-39 -63 -24 -161 34 -219 134 -134 448 -17 393 147 -56 167 -339 215 -427 72z"/>
<path d="M3663 5588 c-35 -172 -63 -466 -63 -654 0 -187 -107 -553 -237 -812 -130 -260 -271 -584 -312 -722 -41 -137 -264 -542 -497 -900 -342 -525 -1254 -2318 -1254 -2464 0 -20 68 -36 150 -36 85 0 156 98 164 225 l13 225 44 -225 c65 -341 209 -270 325 162 58 212 235 550 394 750 159 201 410 668 558 1039 147 371 371 787 496 924 239 261 1156 1647 1156 1747 0 31 116 240 257 464 142 225 232 434 200 465 -31 32 -70 39 -87 16 -16 -23 -269 -413 -562 -867 -293 -454 -569 -825 -612 -825 -44 0 -55 405 -26 900 55 908 8 1163 -107 588z m-163 -1976 c0 -48 -67 -144 -150 -212 -163 -135 -183 -103 -89 142 64 167 239 219 239 70z m-862 -1652 c-147 -430 -538 -918 -538 -671 0 228 524 1111 659 1111 16 0 -39 -198 -121 -440z"/>
<path d="M5900 5700 c0 -55 20 -100 44 -100 24 0 72 45 106 100 34 55 14 100 -44 100 -58 0 -106 -45 -106 -100z"/>
<path d="M4908 3858 c-4 -105 19 -164 52 -131 34 33 37 120 8 192 -32 80 -55 56 -60 -61z"/>
<path d="M4764 3350 c-91 -357 -787 -1562 -1008 -1745 -269 -223 -181 50 303 946 253 467 421 849 375 848 -46 0 -188 -192 -316 -425 -128 -233 -416 -761 -640 -1174 -495 -913 -520 -942 -430 -500 39 193 269 751 512 1242 436 881 548 1336 146 593 -114 -212 -252 -452 -305 -535 -286 -445 -602 -1276 -556 -1462 36 -145 -58 -352 -294 -650 -213 -269 -301 -453 -229 -478 65 -22 133 5 151 60 19 55 151 253 294 440 143 187 225 250 184 140 -145 -379 -174 -650 -70 -650 127 0 356 659 274 791 -100 162 145 234 316 93 123 -103 171 -105 202 -12 23 67 170 359 327 650 663 1226 914 1782 878 1950 -26 125 -60 88 -114 -122z m-1246 -2172 c-71 -71 -118 -77 -118 -15 0 134 118 252 185 185 28 -28 -2 -105 -67 -170z"/>
<path d="M6877 3103 c-220 -200 -276 -298 -171 -300 86 -2 286 132 444 297 372 388 153 391 -273 3z"/>
<path d="M16600 3300 c0 -55 90 -100 200 -100 110 0 200 45 200 100 0 55 -90 100 -200 100 -110 0 -200 -45 -200 -100z"/>
<path d="M22672 1631 c-691 -1384 -867 -1867 -576 -1574 150 150 1504 2858 1504 3007 0 334 -201 24 -928 -1433z"/>
<path d="M15648 2860 c-109 -61 -227 -150 -263 -200 -36 -49 -135 -62 -222 -29 -186 72 -326 -108 -191 -243 60 -60 203 -51 387 24 160 66 327 112 370 103 119 -27 471 180 471 277 0 142 -342 184 -552 68z"/>
<path d="M6922 2484 c-177 -112 -322 -246 -322 -297 0 -101 209 -7 550 247 315 236 130 277 -228 50z"/>
<path d="M15400 1805 c0 -152 65 -205 250 -205 138 0 250 -45 250 -100 0 -146 257 -122 389 37 151 181 -20 315 -514 404 -333 61 -375 45 -375 -136z"/>
<path d="M16907 295 c6 -324 13 -331 117 -117 81 169 79 259 -7 345 -89 89 -115 35 -110 -228z"/>
<path d="M14750 401 c-33 -55 -15 -179 42 -275 87 -151 102 -137 105 99 3 288 -43 343 -147 176z"/>
<path d="M14325 234 c-214 -87 -137 -234 122 -234 178 0 231 42 189 150 -60 156 -103 168 -311 84z"/>
<path d="M12800 100 c0 -55 68 -100 150 -100 82 0 150 45 150 100 0 55 -68 100 -150 100 -82 0 -150 -45 -150 -100z"/>
</g>
</svg>