<svg xmlns="http://www.w3.org/2000/svg" version="1.0" width="250" height="250" viewBox="0 0 250.000000 250.000000" preserveAspectRatio="xMidYMid meet">
<metadata>
Created by potrace 1.10, written by Peter Selinger 2001-2011
</metadata>
<g transform="translate(0.000000,250.000000) scale(0.010000,-0.010000)" fill="#555555" stroke="none">
<path d="M2025 24623 l-2025 -27 0 -987 c0 -786 31 -999 150 -1045 190 -73 188 -455 -3 -708 -81 -107 -144 -287 -140 -400 6 -197 11 -197 115 19 60 124 192 225 293 225 261 0 231 -119 -115 -450 -229 -219 -300 -376 -300 -663 0 -206 45 -403 100 -437 130 -80 130 -450 0 -450 -58 0 -100 -313 -100 -739 0 -563 36 -753 149 -797 98 -37 204 48 308 249 87 168 179 285 204 259 101 -101 -378 -759 -514 -707 -113 43 -139 -95 -136 -707 2 -439 43 -736 96 -703 51 31 98 155 105 276 9 171 21 180 57 43 25 -97 -27 -398 -117 -668 -90 -270 -149 -708 -132 -973 l30 -483 1750 117 1750 118 -1625 -43 c-894 -23 -1625 -24 -1625 -1 0 169 149 360 286 367 103 5 118 26 39 58 -206 83 -141 327 100 378 2171 457 7175 524 7175 95 0 -118 -273 -138 -1634 -116 -1286 21 -1670 -3 -1804 -114 -137 -113 -470 -128 -1741 -78 -934 37 -1632 23 -1721 -33 -98 -62 393 -95 1425 -96 1442 -2 1575 -17 1575 -180 0 -98 -66 -272 -147 -387 -128 -183 -282 -217 -1225 -269 -593 -34 -1438 -93 -1878 -132 -698 -63 -751 -80 -418 -138 210 -37 772 -7 1250 65 1140 173 2018 179 2016 14 -3 -269 -159 -383 -401 -293 -131 48 -398 51 -593 5 -195 -45 -860 -83 -1479 -85 -682 -1 -1125 -41 -1125 -102 0 -55 101 -102 225 -105 1186 -26 2309 -4 2555 51 406 89 500 -98 205 -413 -360 -385 -435 -415 -1456 -575 -67 -10 -313 -174 -548 -363 -234 -190 -562 -373 -729 -407 -284 -58 -278 -62 93 -75 394 -13 402 -158 12 -228 -287 -52 -151 -221 184 -228 160 -4 311 -67 336 -140 35 -104 -55 -118 -416 -63 -386 57 -461 42 -461 -93 0 -121 98 -161 394 -161 217 0 421 -44 454 -97 69 -111 -331 -234 -606 -185 -116 20 -199 -37 -223 -155 -28 -136 -2 -164 96 -102 244 153 785 141 785 -17 0 -103 -122 -144 -428 -144 -377 0 -431 -28 -448 -234 -17 -210 19 -233 340 -213 197 12 398 84 446 159 65 103 87 82 88 -81 2 -183 -72 -230 -448 -286 -389 -59 -450 -100 -450 -306 0 -199 50 -239 300 -239 165 0 300 45 300 100 0 55 -45 100 -100 100 -55 0 -100 41 -100 91 0 49 92 66 205 37 356 -94 207 -463 -230 -571 -474 -117 -485 -257 -19 -257 196 0 333 -37 304 -83 -28 -46 -188 -64 -356 -39 -183 27 -304 1 -304 -67 0 -61 124 -118 275 -126 l275 -15 -275 -42 c-253 -38 -401 -228 -178 -228 53 0 72 -64 42 -142 -35 -92 28 -158 178 -186 209 -40 205 -46 -42 -58 -180 -9 -275 -69 -275 -175 0 -121 61 -145 250 -98 144 36 250 20 250 -39 0 -56 -112 -102 -250 -102 -137 0 -250 -45 -250 -100 0 -55 113 -100 250 -100 138 0 250 -45 250 -100 0 -55 -112 -100 -250 -100 -210 0 -250 -47 -250 -293 0 -210 60 -312 208 -360 167 -53 196 -119 145 -331 -35 -146 -124 -312 -197 -368 -103 -80 -136 -698 -149 -2825 -17 -2584 -8 -2723 166 -2723 104 0 190 77 198 175 41 533 446 2770 530 2927 54 102 99 278 99 391 0 114 158 684 351 1268 354 1068 540 1500 546 1264 4 -163 371 -163 437 0 30 75 53 56 58 -49 4 -96 -82 -411 -192 -700 -110 -289 -200 -619 -200 -732 0 -113 -68 -293 -150 -400 -111 -143 -136 -151 -93 -29 85 246 -164 348 -322 131 -196 -268 -166 -446 77 -446 179 0 202 -42 151 -275 -326 -1473 -559 -2802 -561 -3200 -2 -250 41 -325 183 -325 133 0 187 77 193 275 21 666 570 3346 814 3975 148 380 326 901 410 1200 46 165 159 548 250 850 92 303 228 753 302 1000 75 247 275 900 445 1450 170 550 394 1405 497 1900 104 495 239 1103 302 1350 155 612 201 1007 229 1967 25 872 84 1032 312 842 278 -231 383 -1015 270 -2026 -128 -1149 -261 -1554 -536 -1642 -182 -57 -190 -81 -58 -179 135 -99 127 -192 -70 -812 -122 -385 -342 -1105 -490 -1600 -148 -495 -443 -1350 -657 -1900 -214 -550 -480 -1427 -591 -1950 -189 -892 -772 -3819 -880 -4425 l-50 -275 724 0 725 0 -64 400 c-47 289 -29 400 62 399 130 -1 376 -438 376 -669 0 -89 156 -130 500 -130 275 0 500 40 500 90 0 49 205 306 456 572 294 311 439 545 409 660 -50 194 98 230 333 81 125 -79 108 -137 -109 -373 -402 -438 -718 -935 -641 -1011 68 -68 224 96 783 821 155 200 324 338 377 305 53 -33 -85 -265 -306 -516 -221 -252 -402 -496 -402 -543 0 -208 294 -56 512 263 131 192 275 350 320 350 45 1 -16 -137 -136 -305 -120 -168 -195 -328 -168 -356 97 -96 472 545 412 703 -76 198 94 209 254 16 94 -113 83 -199 -51 -403 -93 -143 -145 -285 -115 -316 31 -30 106 39 167 153 151 281 505 279 505 -3 0 -186 20 -196 166 -75 130 107 176 109 209 12 28 -85 280 -125 790 -125 729 0 757 9 1086 358 343 364 640 421 732 142 43 -129 26 -131 -119 -11 -145 120 -195 114 -366 -41 -209 -189 -266 -448 -98 -448 55 0 100 45 100 100 0 55 110 100 244 100 134 0 272 -45 306 -100 76 -123 750 -134 750 -12 0 48 -67 144 -150 212 -82 68 -150 181 -150 250 0 69 -58 173 -128 232 -78 64 -114 259 -92 490 32 337 79 397 378 491 335 105 494 17 186 -102 -86 -33 -127 -108 -91 -166 91 -147 666 -16 826 189 113 145 141 147 227 16 54 -83 72 -262 38 -400 -33 -137 -84 -430 -113 -650 -30 -220 -99 -456 -154 -525 -80 -98 56 -125 621 -125 646 0 717 19 662 175 -58 167 -54 167 76 0 111 -143 296 -175 1011 -175 l875 0 -63 275 -63 275 175 -275 c295 -463 689 -381 1628 337 1574 1202 2466 2343 2798 3578 63 231 190 447 283 480 94 33 299 176 456 320 l285 260 314 -400 c642 -818 1147 -1206 2329 -1788 652 -321 1264 -624 1360 -673 250 -129 276 -115 276 147 0 191 -92 271 -475 413 -1076 400 -2363 1232 -2863 1852 -199 247 -475 562 -612 700 -313 315 -312 376 20 1336 l273 786 -264 494 c-203 381 -228 488 -110 464 85 -17 269 -312 410 -656 271 -661 489 -839 384 -313 -54 270 -42 295 87 188 83 -68 150 -186 150 -262 0 -76 45 -138 100 -138 55 0 100 -71 100 -157 0 -316 435 -578 528 -318 29 82 133 30 303 -150 302 -320 418 -341 569 -100 91 146 98 133 41 -75 -38 -137 -88 -302 -111 -365 -51 -135 345 -435 575 -435 123 0 150 -73 114 -313 -55 -379 184 -363 297 20 39 134 48 18 20 -257 -47 -463 -31 -509 207 -616 l257 -115 0 631 c0 569 -34 674 -345 1066 -767 966 -918 1128 -1230 1312 -279 165 -325 247 -325 586 0 445 -254 991 -669 1439 -353 381 -731 912 -731 1026 0 48 113 148 251 221 320 172 501 776 340 1131 -135 294 -490 477 -781 401 -115 -31 -210 -10 -210 46 0 163 282 224 557 119 141 -53 366 -97 500 -97 156 0 243 -57 243 -161 0 -103 54 -139 150 -100 199 81 420 139 325 86 -177 -99 -58 -233 150 -168 180 57 140 -21 -200 -391 -234 -254 -425 -508 -425 -564 0 -56 -93 -195 -206 -308 -114 -114 -192 -274 -175 -357 26 -126 63 -120 231 34 110 102 281 169 380 149 99 -20 242 15 318 78 193 160 588 -111 793 -543 181 -382 305 -450 715 -394 162 22 227 12 144 -23 -467 -195 -1300 -1343 -1300 -1791 0 -255 160 -86 399 423 225 480 746 1026 980 1028 97 2 124 193 106 752 -23 715 -35 750 -260 750 -133 0 -210 44 -175 100 34 55 149 100 256 100 107 0 194 51 194 113 0 74 -124 93 -357 55 -252 -41 -345 -23 -317 62 22 66 137 134 257 152 119 18 217 79 217 137 0 102 -310 73 -750 -70 -197 -64 -197 -63 -6 93 107 87 298 158 425 158 127 0 231 45 231 100 0 55 68 100 150 100 83 0 150 68 150 150 0 111 -117 150 -450 150 -456 0 -577 133 -339 371 153 153 24 329 -242 331 -178 1 -191 19 -69 98 83 53 364 98 625 98 440 2 475 21 475 252 0 216 -45 250 -325 249 -179 0 -572 -40 -875 -89 -980 -159 -2300 -239 -2300 -139 0 109 1340 331 1997 330 545 -1 1503 211 1503 333 0 49 -146 62 -325 30 -698 -126 -2880 -284 -3114 -226 -212 53 -450 406 -345 511 19 19 746 -11 1616 -67 1207 -77 1651 -72 1875 21 161 67 293 161 293 209 0 108 20 109 -392 -10 -472 -135 -3311 58 -3490 238 -110 109 111 143 1300 195 1556 70 2503 157 2582 239 28 29 -467 14 -1100 -32 -1479 -109 -3105 -115 -3169 -11 -66 107 -528 293 -781 315 -460 41 -950 184 -1052 307 -66 78 -83 277 -43 489 l67 358 864 15 864 14 -877 71 c-482 38 -892 88 -912 110 -20 22 -67 141 -105 265 -66 214 -43 225 462 223 293 -2 712 -49 932 -106 923 -239 1133 -277 1800 -327 l700 -52 -750 168 c-412 93 -799 201 -858 239 -60 39 -420 101 -800 139 -1035 101 -1128 234 -167 238 454 2 825 39 825 83 0 43 -427 61 -950 38 -522 -23 -950 -16 -950 15 0 32 52 172 116 312 104 229 174 255 675 256 307 0 807 24 1109 52 389 36 491 23 350 -44 -110 -52 -459 -98 -775 -102 -316 -4 -575 -43 -575 -88 0 -44 630 -78 1400 -75 770 3 1400 43 1400 87 0 45 79 74 175 64 96 -10 288 -8 425 4 664 57 -584 211 -2178 268 -951 34 -1752 101 -1782 148 -120 195 433 230 1933 125 1825 -128 2190 -220 3652 -921 105 -50 95 757 -10 822 -47 29 -373 59 -725 68 -760 18 -990 67 -990 211 0 108 932 59 1525 -79 244 -57 275 -36 275 189 0 139 -56 276 -125 304 -98 40 -97 71 7 143 153 108 -834 221 -1938 222 -605 1 -754 38 -1050 263 l-344 261 1050 -59 c578 -32 1354 -89 1725 -126 587 -58 675 -45 675 98 0 120 -91 164 -344 164 -189 0 -370 42 -402 93 -78 126 300 235 546 157 110 -35 200 -18 200 37 0 187 -385 222 -755 67 -492 -205 -705 -194 -947 48 -171 171 -237 184 -425 83 -123 -65 -560 -115 -973 -111 -540 6 -680 -16 -500 -78 292 -101 -604 -41 -1550 104 -968 148 -1977 242 -2308 214 -228 -19 -415 63 -715 314 -224 187 -535 386 -692 442 -1278 459 -1422 488 -2885 563 -330 17 -712 70 -850 118 -238 83 -232 90 132 153 210 37 570 30 800 -14 230 -45 1149 -83 2043 -86 894 -2 1625 -27 1625 -55 0 -29 -55 -140 -122 -248 -89 -142 -93 -226 -13 -306 80 -80 127 -40 174 146 43 173 153 275 338 315 150 33 364 103 475 156 143 69 310 52 570 -57 377 -157 530 -101 381 141 -105 169 -23 404 140 404 67 0 228 113 357 250 255 272 584 315 1078 143 239 -84 358 -75 540 38 127 80 448 172 713 206 431 54 506 33 725 -203 259 -280 309 -482 142 -585 -149 -92 -17 -250 155 -184 394 151 -49 1120 -523 1144 -553 29 -1091 -44 -1290 -175 -171 -112 -276 -122 -427 -41 -416 223 -862 127 -1400 -302 -282 -224 -513 -473 -513 -553 0 -111 -44 -121 -187 -45 -114 61 -305 67 -485 15 -164 -47 -676 -67 -1138 -45 -462 23 -2956 60 -5541 83 -2595 22 -4813 83 -4950 135 -141 54 -467 61 -749 18 -275 -43 -927 -54 -1450 -25 -550 31 -915 16 -867 -35 46 -49 721 -97 1500 -106 779 -10 1879 -64 2444 -121 565 -57 1083 -84 1150 -60 221 80 3273 120 3273 43 0 -118 -649 -656 -1275 -1056 -316 -203 -800 -589 -1075 -859 l-500 -492 -550 72 c-1027 134 -3440 115 -3550 -28 -55 -71 -310 -141 -566 -155 -314 -18 -437 -62 -378 -133 102 -125 -949 -124 -1232 1 -136 60 -162 41 -114 -84 45 -118 3 -161 -155 -161 -189 0 -213 48 -186 371 25 298 80 385 281 440 237 66 238 70 25 79 -124 6 -225 44 -225 85 0 102 5158 87 6125 -18 658 -72 775 -62 775 65 0 230 -1083 312 -4241 320 -2139 6 -2802 37 -2834 133 -23 69 -112 125 -197 125 -128 0 -145 89 -96 507 77 645 0 1020 -265 1305 -131 141 -200 330 -182 497 15 149 -21 301 -80 338 -343 212 250 258 3277 253 1798 -3 7194 -4 11993 -3 l8725 3 0 263 0 263 -10475 -38 c-5761 -21 -11386 -50 -12500 -65z m-1492 -1257 c37 37 65 -176 62 -474 l-5 -542 -153 400 c-83 220 -194 478 -244 574 -144 270 -110 323 90 141 101 -91 213 -135 250 -99z m590 -1222 c-68 -357 -123 -298 -121 131 1 239 31 327 84 244 46 -73 63 -242 37 -375z m10929 53 c35 -57 263 -197 506 -311 243 -115 442 -245 442 -291 0 -46 273 -229 607 -407 646 -344 1216 -918 1653 -1664 220 -376 247 -490 150 -644 -129 -208 -69 -380 133 -380 135 0 429 -862 328 -963 -32 -31 -113 129 -181 356 -68 227 -172 396 -232 375 -118 -41 -121 -387 -6 -744 57 -179 40 -215 -80 -169 -84 33 -174 142 -201 244 -34 132 -124 178 -311 157 -205 -22 -276 23 -322 208 -75 297 -267 302 -471 11 l-157 -225 -5 283 c-7 383 -219 297 -345 -140 l-100 -343 -55 450 c-58 472 -232 609 -287 225 -40 -281 -219 -293 -291 -19 -31 120 -109 184 -189 153 -74 -28 -184 41 -245 154 -72 135 -176 189 -301 156 -106 -28 -219 -6 -253 49 -34 55 -146 77 -250 50 -119 -31 -189 3 -189 91 0 78 -90 141 -200 141 -110 0 -200 45 -200 100 0 55 -56 100 -125 100 -196 0 -652 435 -685 653 -74 478 318 1134 683 1144 68 2 371 162 675 356 548 351 689 601 402 711 -165 63 -206 236 -56 236 52 0 123 -46 158 -103z m-766 -713 c-130 -100 -416 -272 -636 -381 -220 -109 -638 -407 -930 -662 -291 -256 -558 -436 -594 -401 -100 101 923 1012 1505 1341 289 163 592 376 672 473 140 169 149 169 183 -5 20 -104 -66 -261 -200 -365z m3214 275 c809 -172 1694 -584 2019 -939 809 -887 1261 -2144 1094 -3043 -124 -670 -252 -1002 -447 -1164 -133 -110 -170 -71 -267 290 -62 229 -88 442 -58 471 30 30 74 -8 97 -85 133 -433 169 -497 252 -445 50 31 68 146 39 255 -33 126 7 221 110 260 217 84 226 741 9 741 -116 0 -135 -66 -83 -275 60 -243 50 -260 -91 -144 -130 107 -196 107 -366 1 -246 -154 -252 -257 -60 -981 128 -477 128 -568 3 -693 -158 -158 -187 -118 -281 392 -107 583 -807 2976 -957 3270 -332 652 -1057 1399 -1688 1741 -344 187 -625 373 -625 414 0 116 582 86 1300 -66z m-13448 -640 c-60 -156 -73 -155 -167 12 -56 100 -72 257 -37 350 60 156 73 155 167 -12 56 -100 72 -257 37 -350z m-352 -357 c0 -21 -67 -94 -150 -162 -123 -102 -150 -95 -150 38 0 89 68 162 150 162 83 0 150 -17 150 -38z m800 -304 c0 -398 -84 -658 -212 -658 -50 0 -62 180 -26 400 55 346 38 401 -124 407 -176 7 -175 13 12 93 321 138 350 118 350 -242z m17021 181 c346 -29 874 -95 1172 -146 299 -51 745 -93 992 -93 247 0 419 -29 384 -64 -65 -65 -1308 -58 -2419 14 -330 21 -543 15 -474 -14 176 -74 51 -236 -182 -236 -217 0 -263 156 -69 234 69 28 26 54 -94 58 -121 4 -250 58 -288 119 -74 120 148 306 273 229 42 -26 359 -71 705 -101z m4579 61 c0 -55 -70 -100 -156 -100 -86 0 -128 45 -94 100 34 55 104 100 156 100 52 0 94 -45 94 -100z m-22200 -556 c0 -86 -45 -128 -100 -94 -55 34 -100 104 -100 156 0 52 45 94 100 94 55 0 100 -70 100 -156z m6925 -6 c371 -32 675 -102 675 -156 0 -61 -248 -71 -658 -27 -481 51 -728 33 -917 -67 -200 -107 -267 -110 -299 -15 -31 93 -334 111 -1209 72 -811 -36 -1121 -21 -1017 50 83 56 330 103 550 105 220 2 468 49 550 105 142 97 578 85 2325 -67z m1097 -532 c-92 -161 -182 -280 -198 -263 -63 62 176 557 269 557 54 0 22 -132 -71 -294z m10478 194 c0 -125 -106 -125 -300 0 -121 78 -107 97 75 98 124 1 225 -43 225 -98z m3350 -152 c330 -10 823 -25 1095 -33 750 -23 428 -201 -395 -220 -385 -8 -947 7 -1250 33 -302 27 -696 54 -875 60 -347 13 -439 164 -150 248 96 28 355 24 575 -9 220 -33 670 -68 1000 -79z m-14487 -78 c75 -75 -76 -353 -222 -409 -78 -31 -266 -8 -417 50 -285 109 -4594 152 -4700 47 -31 -32 636 -65 1484 -72 1409 -14 2437 -39 2932 -73 179 -12 181 -24 24 -198 -141 -155 -284 -179 -891 -147 -1520 78 -4040 79 -4435 0 -372 -73 -417 -60 -468 135 -124 476 10 554 1188 691 676 78 5424 58 5505 -24z m11556 -38 c-72 -29 -159 -26 -192 8 -33 33 26 56 131 52 117 -5 141 -28 61 -60z m-19262 -489 c-37 -147 -89 -244 -117 -217 -27 28 -20 170 17 317 37 146 90 244 117 216 28 -27 20 -170 -17 -316z m18743 263 c0 -52 -45 -122 -100 -156 -55 -34 -100 8 -100 94 0 86 45 156 100 156 55 0 100 -42 100 -94z m1845 7 c-152 -139 -627 -223 -690 -121 -62 101 151 178 540 196 145 7 206 -24 150 -75z m1280 -279 c-69 -28 -181 -28 -250 0 -69 28 -12 50 125 50 138 0 194 -22 125 -50z m-16400 -393 c788 -48 1075 -100 1075 -196 0 -250 -461 -291 -2948 -262 -1373 16 -2467 -1 -2430 -38 37 -37 932 -83 1988 -102 1057 -19 1957 -70 2001 -114 214 -214 -115 -316 -1098 -340 -569 -14 -1333 -83 -1698 -153 l-665 -128 900 66 c1762 129 2275 99 2591 -149 176 -138 425 -225 647 -226 631 -2 1112 -117 1112 -266 0 -105 -46 -115 -183 -42 -413 221 -5917 121 -5917 -108 0 -49 430 -53 975 -10 536 42 1808 73 2825 67 1503 -7 1925 -41 2248 -179 509 -217 325 -358 -327 -250 -1023 168 -4240 23 -5909 -266 -299 -52 -330 -38 -265 123 41 100 111 430 156 732 110 745 437 1609 655 1730 97 55 541 134 985 175 788 74 1074 68 3282 -64z m1894 91 c-72 -29 -159 -26 -192 8 -33 33 26 56 131 52 117 -5 141 -28 61 -60z m1081 -13 c0 -44 -66 -168 -147 -275 -144 -191 -147 -190 -150 14 -2 115 27 239 64 275 92 93 233 84 233 -14z m9600 -25 c0 -58 -45 -78 -100 -44 -55 34 -100 82 -100 106 0 24 45 44 100 44 55 0 100 -48 100 -106z m5888 -56 c171 -35 312 -101 312 -148 0 -102 -609 -1 -745 123 -114 105 0 111 433 25z m-16229 -412 c-108 -108 -165 43 -89 235 71 180 76 180 111 6 20 -100 10 -209 -22 -241z m1968 3 c185 -104 -64 -217 -356 -161 -387 73 -409 89 -325 226 59 95 465 56 681 -65z m12192 103 c-72 -29 -159 -26 -192 8 -33 33 26 56 131 52 117 -5 141 -28 61 -60z m-14669 -132 c-34 -55 -82 -100 -106 -100 -24 0 -44 45 -44 100 0 55 48 100 106 100 58 0 78 -45 44 -100z m-1308 -525 c-105 -124 -201 -243 -214 -264 -13 -22 -92 18 -177 88 -206 171 -18 401 327 401 252 0 252 -1 64 -225z m1431 58 c24 -75 -37 -98 -169 -63 -293 77 -375 254 -98 213 126 -18 246 -86 267 -150z m2077 -57 c68 -71 21 -84 -150 -41 -137 34 -534 63 -881 64 -429 1 -609 36 -563 110 83 134 1446 21 1594 -133z m1350 57 c0 -91 -30 -137 -66 -101 -36 37 -124 18 -195 -41 -133 -111 -339 -46 -339 106 0 46 85 62 189 35 104 -27 219 -1 256 59 96 156 155 134 155 -58z m7892 -97 c23 -20 -126 -36 -331 -36 -224 0 -348 40 -311 100 54 87 521 40 642 -64z m-18760 -11 c23 -41 11 -164 -29 -273 -70 -193 -74 -192 -187 19 -64 119 -116 241 -116 272 0 85 281 69 332 -18z m14234 -452 c-28 -68 -49 12 -47 177 3 165 25 220 50 123 26 -97 24 -232 -3 -300z m-7247 259 c-72 -29 -159 -26 -192 8 -33 33 26 56 131 52 117 -5 141 -28 61 -60z m4001 -252 c-93 -93 -120 -67 -120 120 0 187 27 213 120 120 93 -93 93 -147 0 -240z m-2820 132 c0 -87 -330 -208 -575 -211 -217 -2 -135 183 100 228 393 76 475 73 475 -17z m819 20 c-72 -29 -159 -26 -192 8 -33 33 26 56 131 52 117 -5 141 -28 61 -60z m2637 -203 c-31 -80 -59 -243 -63 -362 -7 -210 -10 -211 -93 -17 -149 346 -120 651 56 584 85 -33 130 -125 100 -205z m2330 -396 c147 -729 140 -826 -39 -589 -81 107 -147 347 -147 533 0 229 -41 325 -125 296 -84 -30 -119 -239 -107 -634 l17 -589 -187 450 c-251 605 -253 900 -4 900 107 0 222 45 256 100 131 212 227 79 336 -467z m3814 317 c0 -82 -67 -150 -150 -150 -82 0 -150 68 -150 150 0 83 68 150 150 150 83 0 150 -67 150 -150z m-9100 -144 c0 -152 -186 -224 -401 -156 -301 96 -238 250 101 250 165 0 300 -42 300 -94z m6196 -1231 c10 -198 -163 -31 -312 303 -104 234 -145 502 -110 721 54 341 61 333 237 -300 100 -357 184 -683 185 -724z m2964 852 c-101 -102 -185 51 -102 186 63 102 87 102 121 1 23 -70 15 -154 -19 -187z m-4981 -141 c-25 -75 -71 -29 -106 106 -43 166 -30 205 44 131 58 -58 86 -165 62 -237z m-2333 79 c102 -74 156 -181 120 -238 -82 -134 -692 -249 -898 -170 -131 50 -112 102 112 299 314 276 415 293 666 109z m6954 -207 c0 -78 -27 -212 -60 -297 -52 -138 -77 -139 -208 -8 -81 82 -186 125 -233 96 -113 -69 -228 124 -149 251 98 158 650 123 650 -42z m-8900 -426 c0 -127 -28 -133 -149 -33 -82 68 -124 164 -93 214 79 128 242 6 242 -181z m2500 222 c0 -26 -101 -101 -225 -167 -204 -109 -212 -104 -88 47 128 155 313 225 313 120z m4529 -79 c290 -135 357 -275 132 -275 -162 0 -662 392 -506 397 58 2 226 -53 374 -122z m-2944 -85 c173 -60 315 -153 315 -205 0 -171 -873 -495 -1147 -427 -397 100 -400 233 -10 395 196 83 357 194 357 248 0 127 97 125 485 -11z m-3553 -65 c113 -191 175 -725 86 -725 -90 0 -318 513 -318 715 0 105 172 112 232 10z m-2766 -236 c972 -18 1245 -56 1419 -197 282 -229 272 -290 -36 -208 -138 37 -735 37 -1325 1 -968 -61 -1123 -46 -1574 149 l-500 216 350 56 c193 30 375 44 406 31 31 -14 598 -35 1260 -48z m10684 11 c78 -127 -54 -127 -250 0 -129 84 -127 97 19 98 93 1 197 -43 231 -98z m-7250 -156 c0 -86 -45 -128 -100 -94 -55 34 -100 104 -100 156 0 52 45 94 100 94 55 0 100 -70 100 -156z m8788 -150 c217 -113 613 -259 879 -325 409 -101 511 -176 665 -491 293 -601 330 -1365 87 -1840 -333 -653 -432 -690 -934 -353 -239 161 -611 366 -825 455 -215 90 -680 417 -1034 727 -681 598 -931 1005 -705 1148 197 125 279 101 279 -82 0 -191 279 -533 435 -533 65 0 59 46 -15 120 -186 186 -143 280 130 280 289 0 311 67 96 304 -141 156 -134 170 75 158 173 -9 224 37 207 188 -28 262 41 450 166 450 55 0 277 -93 494 -206z m-8065 -515 c40 -757 -21 -1179 -173 -1179 -178 0 -185 48 -45 309 72 135 73 367 1 755 -107 576 -49 889 110 603 49 -87 97 -306 107 -488z m5277 494 c0 -257 -617 -481 -1131 -410 -505 69 -508 126 -19 380 370 192 1150 212 1150 30z m-2700 -73 c0 -55 -70 -100 -156 -100 -86 0 -128 45 -94 100 34 55 104 100 156 100 52 0 94 -45 94 -100z m-2000 -256 c0 -79 -45 -144 -100 -144 -55 0 -100 93 -100 206 0 113 45 178 100 144 55 -34 100 -127 100 -206z m5175 131 c-23 -69 -126 -141 -230 -162 -163 -31 -171 -14 -55 125 159 192 344 215 285 37z m-8653 -31 c31 -30 35 -138 8 -240 -43 -165 -130 -178 -864 -130 -449 29 -782 16 -740 -28 42 -45 222 -87 400 -94 951 -34 1074 -57 1074 -194 0 -233 -1381 -467 -1660 -281 -61 40 -134 186 -162 323 -29 138 -84 326 -124 419 -60 143 4 175 413 207 859 67 1598 75 1655 18z m1538 -748 c-113 -282 -135 -456 -68 -537 55 -66 74 -218 42 -339 -44 -168 -131 -220 -371 -218 -375 1 -615 134 -520 287 106 171 338 132 379 -64 60 -284 297 231 331 716 37 540 144 802 274 672 67 -67 45 -238 -67 -517z m2590 504 c34 -55 17 -100 -38 -100 -55 0 -128 45 -162 100 -34 55 -17 100 38 100 55 0 128 -45 162 -100z m-3050 -456 c0 -79 -67 -144 -150 -144 -168 0 -175 18 -90 241 71 183 240 115 240 -97z m2326 -615 c-115 -240 -35 -2329 89 -2329 54 0 83 101 66 225 -25 181 13 220 194 201 232 -24 305 113 120 227 -125 77 -94 2447 32 2447 46 0 69 -506 53 -1125 -29 -1096 -24 -1126 191 -1156 167 -24 238 31 286 224 52 206 108 244 294 198 339 -85 462 198 284 650 l-141 359 198 -230 c164 -191 260 -219 550 -165 193 36 399 124 458 195 59 71 201 105 316 75 134 -35 243 5 302 110 50 91 155 165 231 165 207 0 285 188 147 354 -69 84 -78 146 -20 146 55 0 157 -69 228 -154 96 -117 99 -183 12 -270 -195 -195 -130 -376 134 -376 268 0 301 64 154 297 -61 97 -53 172 23 220 72 44 164 -43 243 -230 71 -169 173 -272 233 -235 74 46 70 110 -12 209 -66 79 -84 176 -42 216 43 40 95 28 116 -27 91 -239 230 -389 297 -321 41 40 -2 232 -94 426 -194 407 -207 481 -66 394 55 -34 166 -218 245 -407 165 -395 570 -797 1337 -1324 905 -625 1055 -697 1333 -645 245 45 771 -216 780 -387 2 -36 -301 -139 -672 -229 -758 -185 -2243 -226 -3230 -89 -850 118 -2285 -76 -2690 -365 -157 -111 -314 -203 -349 -203 -35 0 -186 -90 -335 -200 -149 -110 -448 -212 -664 -225 -347 -22 -419 14 -628 320 -129 189 -213 401 -187 471 27 70 15 149 -27 175 -43 26 -65 241 -51 478 15 237 49 840 75 1340 27 500 85 1040 130 1200 l81 291 31 -371 c17 -204 -8 -451 -55 -550z m1934 598 c-33 -33 -56 26 -52 131 5 117 28 141 60 61 29 -72 26 -159 -8 -192z m664 -176 c27 -138 10 -251 -38 -251 -47 0 -86 64 -86 142 0 78 -30 220 -67 316 -42 110 -28 151 38 110 58 -36 127 -178 153 -317z m-3725 -453 c-161 -389 -591 -555 -444 -172 32 85 146 177 252 205 138 36 197 145 207 385 10 251 24 276 58 100 24 -129 -8 -362 -73 -518z m-1974 130 c-69 -25 -125 -108 -125 -186 0 -78 -67 -142 -150 -142 -82 0 -150 42 -150 94 0 127 423 418 494 340 31 -34 0 -81 -69 -106z m4173 -770 c-60 -60 -101 -61 -105 -3 -4 52 -25 230 -48 395 -70 508 77 642 168 153 52 -276 46 -484 -15 -545z m-8221 661 c22 -66 -32 -119 -121 -119 -121 0 -144 -61 -97 -251 49 -194 30 -239 -82 -196 -172 66 -422 -199 -330 -349 96 -155 264 -126 414 71 123 163 133 160 136 -39 2 -117 -61 -432 -139 -700 -79 -267 -196 -736 -261 -1041 -88 -409 -166 -558 -297 -567 -129 -10 -164 39 -127 179 28 106 5 193 -50 193 -138 0 -260 -703 -142 -821 61 -61 179 -10 322 138 201 207 218 211 150 33 -41 -110 -97 -274 -123 -363 -29 -101 -117 -145 -230 -116 -117 31 -224 -29 -296 -164 -134 -249 -58 -422 149 -342 85 33 146 -1 146 -79 -3 -225 -380 -1350 -390 -1161 -11 214 -143 225 -308 26 -139 -167 -58 -498 98 -401 143 88 126 -130 -60 -757 -200 -677 -236 -736 -368 -604 -75 75 -145 74 -239 -4 -72 -60 -132 -81 -132 -45 0 69 332 1311 565 2110 368 1264 631 3021 475 3177 -33 33 -242 -72 -465 -234 -223 -161 -511 -293 -640 -293 -200 0 -235 50 -235 335 0 435 187 965 340 965 317 0 484 -536 242 -778 -65 -65 -93 -144 -62 -175 31 -31 134 21 229 116 126 126 159 276 121 555 -30 226 -9 382 51 382 177 0 1061 797 1285 1160 210 340 390 401 471 159z m3023 -131 c0 -185 -41 -205 -312 -150 -172 34 -442 62 -600 62 -189 0 -288 51 -288 150 0 117 133 150 600 150 545 0 600 -19 600 -212z m10446 -365 c69 -178 -240 -5 -496 277 l-197 218 322 -184 c177 -101 344 -241 371 -311z m-10081 -28 c162 -162 1130 -411 1666 -429 406 -14 506 -58 645 -287 190 -311 77 -524 -128 -243 -126 173 -255 182 -1811 126 -996 -36 -1718 -104 -1781 -169 -76 -78 159 -89 839 -36 1102 84 990 81 1755 52 432 -15 543 -45 395 -105 -259 -104 -2009 -239 -2770 -212 -529 18 -575 2 -575 -197 0 -190 41 -210 325 -162 838 144 1701 190 1637 87 -118 -191 131 -236 683 -121 298 62 712 81 919 42 l377 -71 -495 -131 c-597 -157 -1886 -185 -1796 -39 34 56 -40 99 -169 98 -165 -1 -193 -25 -98 -86 230 -145 -67 -190 -908 -136 -513 33 -775 91 -775 171 0 67 88 378 196 690 107 313 171 632 142 708 -29 77 -3 233 58 347 97 181 204 208 838 208 399 0 773 -47 831 -105z m15333 30 c-2 -41 -155 -151 -342 -243 -277 -138 -404 -149 -697 -59 -504 155 -447 260 166 303 289 20 604 45 700 56 96 10 174 -16 173 -57z m-12438 -698 c-33 -33 -56 26 -52 131 5 117 28 141 60 61 29 -72 26 -159 -8 -192z m8284 -80 c107 -81 149 -147 94 -147 -55 0 -187 66 -294 147 -107 81 -149 147 -94 147 55 0 187 -66 294 -147z m5133 -567 c-22 -65 -172 -154 -334 -196 l-293 -77 250 194 c286 222 435 254 377 79z m-13852 -51 c-124 -23 -326 -23 -450 0 -124 24 -22 44 225 44 248 0 349 -20 225 -44z m11543 -354 c182 -124 331 -259 331 -300 2 -153 -297 -68 -490 138 -115 124 -263 188 -353 153 -216 -83 -195 -275 37 -335 258 -68 356 -346 161 -455 -102 -57 -154 -233 -154 -518 l0 -432 -1025 -68 c-977 -65 -2097 -277 -3256 -616 -555 -163 -819 -92 -819 220 0 76 -65 138 -144 138 -187 0 -328 -226 -173 -278 65 -21 85 -91 45 -156 -40 -64 -74 -177 -75 -252 -4 -173 -1246 -930 -1385 -844 -61 37 -24 94 89 135 173 63 159 90 -131 257 -227 131 -344 287 -387 516 -49 258 -101 316 -242 271 -99 -31 -206 -15 -237 36 -86 138 359 224 510 99 94 -79 171 -74 279 15 199 165 100 299 -230 311 -227 9 -208 27 120 113 326 87 403 77 480 -60 50 -90 156 -163 236 -163 80 0 134 -54 120 -119 -46 -218 340 -202 581 24 301 283 237 389 -208 347 -265 -24 -386 18 -496 175 -125 179 -180 192 -399 93 -139 -64 -253 -76 -253 -28 0 49 135 135 300 193 182 64 300 67 300 10 0 -52 113 -95 250 -95 138 0 250 46 250 102 0 128 -483 320 -608 243 -120 -74 -115 64 8 255 65 100 97 108 98 25 3 -185 398 -152 471 39 58 150 74 149 190 -10 98 -133 101 -232 15 -421 -129 -283 27 -453 374 -409 296 39 314 560 23 667 l-218 81 228 72 c136 43 287 24 373 -48 114 -94 197 -86 392 42 420 275 837 185 536 -116 -146 -146 -109 -186 249 -276 228 -57 291 -34 332 122 56 217 480 418 1110 527 361 62 432 46 482 -111 80 -251 232 -231 336 43 94 247 944 725 1109 623 56 -34 128 8 161 94 84 218 320 195 707 -69z m-11168 25 c0 -55 -45 -100 -100 -100 -55 0 -100 45 -100 100 0 55 45 100 100 100 55 0 100 -45 100 -100z m-4055 -587 c-123 -113 -945 -217 -945 -120 0 155 148 207 587 207 264 0 413 -36 358 -87z m3440 22 c1043 -74 1235 -235 280 -235 -988 0 -2165 120 -2106 214 63 103 590 109 1826 21z m-2223 -368 c-426 -128 -1262 -100 -1262 43 0 50 371 87 825 82 790 -7 809 -12 437 -125z m6659 -167 c-24 -165 -89 -300 -144 -300 -55 0 -73 101 -40 225 33 124 61 259 62 300 0 41 38 75 84 75 45 0 63 -135 38 -300z m-12179 -282 c-4 -265 -41 -535 -81 -600 -106 -171 -265 -145 -197 32 69 181 -77 197 -247 27 -97 -97 -117 -71 -95 125 17 148 109 270 228 303 110 30 205 143 210 250 15 293 33 345 115 345 41 0 71 -217 67 -482z m7358 382 c0 -126 -204 -126 -400 0 -117 76 -89 97 125 98 151 1 275 -43 275 -98z m1300 0 c104 -67 -66 -93 -550 -83 -651 12 -668 18 -250 83 248 38 495 76 550 83 55 8 168 -30 250 -83z m-5092 -104 c107 -58 735 -106 1395 -107 660 -2 1176 -42 1146 -90 -29 -48 116 -65 324 -39 207 26 530 67 717 90 419 52 1210 -49 1210 -155 0 -43 -491 -77 -1090 -76 -600 0 -1185 -29 -1300 -66 -134 -42 -210 -23 -210 53 0 83 -116 101 -369 60 -202 -33 -418 -18 -479 33 -61 50 -466 105 -899 121 -518 20 -801 73 -828 155 -51 152 120 161 383 21z m2867 35 c-96 -25 -254 -25 -350 0 -96 25 -17 46 175 46 193 0 271 -21 175 -46z m2444 -299 c-72 -29 -159 -26 -192 8 -33 33 26 56 131 52 117 -5 141 -28 61 -60z m2130 -336 c-58 -181 -34 -196 218 -136 l283 68 -233 -208 c-128 -114 -297 -183 -375 -153 -169 65 -167 53 -44 376 115 304 245 349 151 53z m-3599 4 c-110 -47 -537 -89 -950 -93 -1456 -15 -3300 -139 -3300 -222 0 -47 79 -89 175 -95 113 -6 87 -36 -75 -84 -378 -113 -492 -6 -307 286 70 110 455 151 1723 183 898 23 1652 60 1675 83 23 23 316 39 651 35 432 -5 550 -32 408 -93z m2299 -202 c-35 -56 -105 -75 -156 -44 -139 86 -113 146 63 146 86 0 128 -46 93 -102z m-3373 -215 c-158 -100 -887 -105 -1041 -6 -63 40 173 76 526 79 354 4 584 -29 515 -73z m-2457 -51 c-72 -29 -159 -26 -192 8 -33 33 26 56 131 52 117 -5 141 -28 61 -60z m5281 -110 c248 -52 577 -146 732 -208 154 -63 454 -114 666 -114 507 0 702 -83 702 -297 0 -97 180 -441 400 -765 220 -323 400 -639 400 -700 0 -215 411 -1041 610 -1226 178 -166 184 -204 52 -336 -82 -82 -289 -369 -459 -637 -299 -471 -307 -516 -247 -1289 48 -625 26 -884 -103 -1185 -157 -369 -172 -379 -353 -215 -104 94 -216 294 -249 445 -64 293 -540 798 -950 1009 -424 219 -1868 159 -2476 -103 -285 -122 -573 -288 -638 -367 -101 -121 -197 -68 -603 332 -266 262 -484 518 -484 569 0 198 1120 1355 1507 1557 601 313 1502 410 2290 245 359 -76 766 -137 904 -137 138 0 465 -114 728 -254 442 -235 671 -253 671 -52 0 46 -93 107 -207 137 -115 30 -233 150 -263 267 -45 172 -108 201 -328 153 -323 -71 -1737 205 -1785 349 -44 130 -417 130 -417 0 0 -55 -90 -100 -200 -100 -110 0 -200 42 -200 93 0 51 -79 113 -175 138 -96 25 -29 51 150 57 267 10 325 52 323 237 -2 410 -153 518 -753 536 -501 15 -599 54 -865 345 -253 277 -291 385 -243 684 33 201 157 431 285 530 l228 176 -316 2 c-196 1 -517 -130 -844 -346 -552 -363 -745 -389 -447 -60 197 217 755 504 1207 619 344 88 1094 50 1750 -89z m9700 28 c0 -82 68 -150 150 -150 98 0 148 -95 145 -275 l-5 -275 -157 225 c-101 145 -260 225 -445 225 -353 0 -358 -87 -38 -560 316 -465 338 -697 50 -517 -110 69 -200 184 -200 255 0 71 -90 307 -200 523 -147 286 -245 376 -364 330 -111 -43 -149 -19 -117 75 92 277 1181 409 1181 144z m-18749 -133 c-28 -73 -52 -208 -53 -300 -2 -304 -165 -469 -328 -334 -79 66 -213 94 -297 62 -194 -74 -288 70 -168 260 69 109 92 113 93 13 1 -84 101 -120 277 -100 331 38 365 219 50 264 -215 31 -284 125 -173 237 29 29 187 47 351 42 205 -8 283 -53 248 -144z m5199 83 c55 -2 33 -47 -50 -100 -192 -124 -770 -129 -846 -7 -67 108 307 200 596 147 110 -21 245 -39 300 -40z m12010 -175 c2 -96 37 -276 79 -400 41 -124 34 -225 -16 -225 -105 0 -323 441 -323 655 0 209 257 180 260 -30z m-960 -14 c0 -109 -302 -250 -475 -222 -188 30 -151 -141 100 -457 408 -513 510 -749 364 -839 -155 -96 -316 -17 -234 115 32 51 -29 217 -136 368 -106 151 -225 378 -264 505 -89 286 -357 254 -515 -63 -92 -186 -126 -200 -174 -74 -77 202 -366 203 -366 1 0 -195 255 -703 553 -1101 125 -169 243 -470 260 -670 37 -436 -63 -586 -153 -229 -35 140 -113 255 -173 255 -151 0 -21 -471 226 -819 111 -155 265 -281 344 -281 174 0 178 47 22 297 -151 241 -38 376 171 203 92 -76 130 -206 94 -319 -71 -224 112 -481 343 -482 116 -1 230 -220 393 -757 l229 -756 -352 -631 c-367 -656 -1883 -2196 -2093 -2126 -61 20 -152 179 -202 354 -50 174 -129 317 -176 317 -123 0 -106 -157 58 -551 85 -204 106 -368 50 -403 -115 -71 -294 30 -294 165 0 55 -88 293 -195 529 -108 235 -240 706 -295 1045 -54 339 -128 663 -163 720 -99 160 -134 999 -39 940 46 -29 115 -219 152 -424 97 -530 226 -841 324 -781 108 67 -424 2242 -586 2395 -93 88 -108 69 -69 -85 29 -110 80 -335 113 -500 58 -283 53 -289 -90 -106 -228 292 -199 820 48 885 126 33 200 136 200 278 0 470 146 58 155 -438 12 -637 309 -1569 501 -1569 111 0 118 55 32 275 -58 151 -166 663 -238 1137 -86 564 -216 997 -376 1250 -134 214 -305 557 -379 763 -143 396 -264 472 -359 226 -66 -173 -236 -104 -236 96 0 145 1055 782 1800 1088 449 184 1738 549 1975 559 69 4 125 -34 125 -83z m-12050 -211 c211 -54 39 -80 -581 -88 -565 -8 -859 24 -819 88 71 114 952 114 1400 0z m1226 -25 c-23 -69 -139 -139 -259 -157 -119 -18 -217 -74 -217 -125 0 -51 -169 -87 -375 -80 l-375 13 350 62 c193 34 328 102 300 152 -28 49 40 125 150 168 304 119 471 106 426 -33z m12479 -222 c203 -486 173 -570 -55 -153 -199 364 -239 500 -145 500 30 0 120 -156 200 -347z m1738 57 c114 -160 205 -374 203 -475 -3 -135 -48 -103 -164 115 -88 165 -221 336 -296 380 -75 44 -136 123 -136 175 0 185 189 91 393 -195z m-16493 -260 c0 -82 -65 -150 -144 -150 -167 0 -280 143 -187 236 120 120 331 65 331 -86z m16297 -237 c-3 -137 -27 -132 -150 31 -191 253 -189 416 3 256 83 -68 149 -198 147 -287z m-15447 87 c-34 -55 -228 -97 -431 -93 -297 6 -330 24 -169 93 281 121 675 121 600 0z m650 -80 c0 -184 -263 -319 -595 -305 -311 13 -321 20 -74 57 154 23 305 107 336 185 57 150 333 202 333 63z m799 -587 c-216 -1061 -918 -2911 -1111 -2928 -35 -3 -86 231 -114 520 -38 390 -3 618 133 888 102 199 163 383 138 409 -65 64 336 954 465 1034 210 130 188 -47 -114 -902 -170 -481 -284 -899 -254 -930 74 -73 348 596 523 1276 78 303 167 634 199 738 37 122 19 163 -53 119 -166 -103 -134 52 55 261 240 265 266 170 133 -485z m12255 560 c108 -174 -15 -211 -152 -45 -79 95 -86 152 -20 152 58 0 136 -48 172 -107z m-19354 -154 c0 -21 -67 -39 -150 -39 -82 0 -150 44 -150 97 0 53 68 71 150 39 83 -31 150 -75 150 -97z m1000 61 c0 -55 -45 -100 -100 -100 -55 0 -100 45 -100 100 0 55 45 100 100 100 55 0 100 -45 100 -100z m16413 -627 c-191 -191 -463 48 -463 406 l0 308 291 -298 c224 -229 264 -324 172 -416z m1424 42 c-34 -146 -113 -320 -176 -388 -87 -93 -120 27 -139 500 l-25 623 201 -235 c141 -166 182 -314 139 -500z m-13937 485 c0 -55 -67 -100 -150 -100 -82 0 -150 45 -150 100 0 55 68 100 150 100 83 0 150 -45 150 -100z m15194 -632 c51 -135 35 -313 -43 -468 -68 -137 -155 -418 -192 -623 -90 -496 -338 -1077 -460 -1077 -55 0 -99 58 -99 129 0 157 -807 765 -1327 999 -438 198 -682 606 -479 800 104 98 114 74 54 -128 -71 -239 -66 -243 114 -82 232 207 328 211 608 28 241 -158 484 -110 569 112 96 248 361 164 361 -115 0 -211 -35 -245 -200 -193 -110 35 -200 18 -200 -37 0 -317 509 -171 709 204 92 172 83 230 -48 303 -202 113 -204 223 -4 423 193 193 512 56 637 -275z m-14344 232 c34 -56 -40 -99 -169 -98 -186 1 -202 20 -81 98 186 120 176 120 250 0z m2600 0 c-34 -55 -82 -100 -106 -100 -24 0 -44 45 -44 100 0 55 48 100 106 100 58 0 78 -45 44 -100z m-7343 -185 c155 -145 178 -236 106 -425 l-91 -240 -72 275 c-39 151 -112 275 -161 275 -49 0 -89 68 -89 150 0 197 66 189 307 -35z m6429 -65 c32 -82 149 -150 261 -150 250 0 275 -370 54 -799 -82 -158 -123 -370 -91 -470 45 -139 36 -149 -40 -43 -78 110 -113 90 -173 -98 -41 -130 -164 -356 -273 -503 -108 -147 -175 -328 -148 -402 33 -87 87 -43 153 123 57 141 211 328 342 414 132 86 388 435 569 775 181 339 354 592 384 562 109 -109 -298 -966 -677 -1425 -213 -258 -361 -512 -328 -565 33 -53 154 61 270 253 116 192 376 531 577 754 311 344 373 377 414 219 34 -128 -67 -281 -323 -489 -204 -167 -431 -413 -503 -548 -195 -364 -574 -484 -1027 -326 -205 72 -405 162 -443 201 -38 38 44 328 184 643 347 785 603 1529 619 1799 15 258 115 295 199 75z m-2336 -50 c-197 -127 -429 -127 -350 0 34 55 160 99 281 98 178 -1 191 -19 69 -98z m3900 -146 c0 -26 -101 -101 -225 -167 -204 -109 -212 -104 -88 47 128 155 313 225 313 120z m-8100 -493 c83 -34 15 -36 -150 -3 -359 70 -391 95 -300 241 49 80 103 71 185 -32 63 -79 183 -172 265 -206z m3196 214 c-6 -186 -387 -849 -392 -682 -6 216 225 807 316 807 44 0 78 -56 76 -125z m1404 32 c0 -117 -392 -248 -480 -161 -75 75 171 250 355 252 69 1 125 -40 125 -91z m2612 -174 c-87 -150 -106 -155 -109 -25 -3 169 102 320 173 250 23 -24 -5 -125 -64 -225z m1719 -189 c-100 -76 -223 -139 -275 -141 -51 -2 -197 -101 -325 -220 -127 -120 -230 -176 -229 -125 2 154 132 290 494 514 366 227 642 204 335 -28z m13587 -66 c-71 -71 -118 -77 -118 -15 0 134 118 252 185 185 28 -28 -2 -105 -67 -170z m-23060 -753 c-115 -116 -174 65 -96 292 l81 233 36 -234 c21 -128 11 -259 -21 -291z m17897 -70 c135 -135 245 -312 245 -392 0 -81 27 -218 61 -305 33 -87 16 -158 -38 -158 -54 0 -123 124 -154 275 -32 158 -154 318 -287 375 -239 104 -382 450 -185 450 62 0 223 -110 358 -245z m-15253 -698 c-141 -429 -324 -483 -203 -60 103 360 204 533 271 466 27 -27 -3 -210 -68 -406z m2598 143 c-59 -110 -128 -200 -154 -200 -25 0 -46 90 -46 200 0 113 67 200 154 200 122 0 131 -40 46 -200z m18660 -73 c-33 -33 -56 26 -52 131 5 117 28 141 60 61 29 -72 26 -159 -8 -192z m-20160 79 c0 -52 -45 -122 -100 -156 -55 -34 -100 8 -100 94 0 86 45 156 100 156 55 0 100 -42 100 -94z m-3700 -162 c0 -86 -45 -128 -100 -94 -55 34 -100 104 -100 156 0 52 45 94 100 94 55 0 100 -70 100 -156z m5212 -371 c-98 -98 -110 -86 -56 56 38 99 94 154 125 124 30 -31 0 -112 -69 -180z m8928 -873 c55 -597 349 -1650 760 -2725 243 -632 71 -708 -235 -104 -302 600 -573 1791 -812 3579 l-53 400 154 -400 c85 -220 169 -558 186 -750z m4160 688 c0 -55 -45 -72 -100 -38 -55 34 -100 107 -100 162 0 55 45 72 100 38 55 -34 100 -107 100 -162z m-12764 -400 c-223 -382 -532 -554 -335 -187 96 179 92 244 -16 321 -104 75 -97 85 33 43 92 -29 222 13 289 93 207 250 227 68 29 -270z m1064 187 c-1 -69 -91 -272 -200 -452 -249 -409 -254 -503 -16 -287 175 158 183 151 166 -136 -10 -166 -47 -330 -82 -365 -79 -80 -868 432 -868 563 0 52 140 254 310 449 305 347 690 474 690 228z m-1900 -75 c0 -55 -48 -100 -106 -100 -58 0 -78 45 -44 100 34 55 82 100 106 100 24 0 44 -45 44 -100z m9116 -925 c20 -261 21 -475 3 -475 -18 0 -102 69 -186 153 -117 116 -126 185 -39 290 67 81 87 256 47 422 -46 195 -34 253 36 185 57 -55 120 -314 139 -575z m-10620 332 c177 -330 116 -749 -177 -1212 -154 -245 -309 -521 -344 -614 -72 -189 -553 -537 -632 -457 -47 47 325 762 455 876 166 145 438 965 419 1260 -26 374 118 449 279 147z m1804 -7 c0 -55 -45 -100 -100 -100 -55 0 -100 45 -100 100 0 55 45 100 100 100 55 0 100 -45 100 -100z m2125 -72 c-69 -25 -125 -103 -125 -174 0 -71 -67 -186 -150 -254 -214 -177 -185 -31 61 315 116 163 240 265 275 227 35 -38 8 -89 -61 -114z m4325 72 c35 -57 -49 -100 -194 -100 -141 0 -256 45 -256 100 0 55 87 100 194 100 107 0 222 -45 256 -100z m-1850 -100 c0 -55 -34 -100 -75 -100 -41 -1 -221 -138 -400 -306 -216 -202 -325 -255 -325 -156 0 81 146 263 325 404 349 275 475 317 475 158z m-6900 -31 c0 -18 -135 -161 -300 -319 -224 -215 -300 -247 -300 -126 0 200 265 476 457 476 79 0 143 -14 143 -31z m4818 -191 c-71 -71 -118 -77 -118 -15 0 134 118 252 185 185 28 -28 -2 -105 -67 -170z m4382 11 c0 -128 -58 -110 -202 63 -106 128 -99 142 38 90 90 -35 164 -104 164 -153z m-7375 -136 c-57 -296 -277 -511 -370 -361 -67 108 215 608 343 608 41 0 53 -111 27 -247z m4295 27 c-64 -64 -150 -83 -190 -43 -41 41 -9 114 70 163 187 115 271 31 120 -120z m2732 -200 c54 -120 166 -237 248 -261 121 -36 126 -18 25 89 -205 217 -141 338 75 142 110 -100 202 -140 204 -90 2 49 86 -63 186 -251 175 -329 175 -357 -4 -846 -204 -558 -413 -805 -776 -914 -217 -65 -232 -49 -164 165 225 710 195 878 -234 1286 -515 490 -1002 605 -1481 347 -257 -139 -364 -154 -454 -64 -175 175 -3 290 675 448 668 156 895 109 1420 -291 355 -271 455 -186 128 110 -222 201 -272 471 -73 395 70 -27 171 -146 225 -265z m-5661 -362 c-51 -147 -194 -393 -317 -546 l-224 -278 -421 167 -421 166 346 405 c190 222 346 438 346 479 0 141 351 149 568 13 182 -115 202 -181 123 -406z m2409 27 c0 -73 -44 -160 -97 -193 -54 -33 -173 -219 -264 -412 -100 -210 -204 -315 -258 -261 -105 105 99 629 292 751 169 106 163 278 -7 212 -73 -28 -209 -210 -302 -404 -203 -427 -417 -395 -407 62 5 240 57 340 186 359 98 15 248 127 334 249 l156 223 184 -227 c100 -124 183 -286 183 -359z m-1003 380 c-6 -134 -293 -462 -353 -402 -69 68 171 477 280 477 42 0 75 -34 73 -75z m-5191 -553 c-129 -122 -198 -154 -154 -72 139 264 275 406 332 350 30 -31 -50 -156 -178 -278z m11665 160 c52 32 153 -176 226 -462 72 -286 155 -587 183 -670 29 -82 -61 -30 -201 116 -139 146 -283 394 -321 550 -37 156 -91 374 -119 484 -39 149 -28 165 43 62 53 -76 138 -112 189 -80z m-10061 -162 c-128 -128 -258 -29 -163 125 37 60 113 80 169 45 68 -42 66 -98 -6 -170z m2282 -212 c-261 -380 -384 -414 -174 -48 177 307 323 478 371 432 22 -21 -67 -193 -197 -384z m2649 117 c-39 -69 -162 -226 -273 -350 -112 -124 -153 -225 -91 -225 61 0 138 43 170 96 33 52 118 73 190 45 72 -28 189 19 259 104 140 169 404 210 404 64 0 -50 -138 -208 -308 -350 -216 -182 -423 -259 -700 -259 -215 0 -392 21 -392 47 0 106 645 953 725 953 48 0 55 -56 16 -125z m1345 -66 c-130 -106 -258 -169 -286 -142 -58 58 296 333 430 333 51 0 -14 -86 -144 -191z m-986 -5 c0 -54 -93 -147 -208 -208 -189 -102 -198 -93 -96 96 114 214 304 283 304 112z m-6902 -256 c-70 -84 -147 -132 -172 -107 -70 69 71 259 192 259 66 0 59 -57 -20 -152z m2094 27 c-23 -14 -176 -137 -339 -275 -221 -186 -259 -199 -150 -50 181 246 432 448 489 392 23 -23 23 -53 0 -67z m2434 -362 c-109 -147 -230 -370 -270 -495 -58 -181 -102 -204 -211 -114 -116 97 -112 156 27 380 91 146 257 370 369 497 272 307 343 82 85 -268z m547 74 c119 -119 -25 -420 -398 -831 -281 -311 -435 -63 -221 358 303 596 412 680 619 473z m-3676 -362 c-6 -145 -296 -460 -362 -393 -37 37 15 157 114 267 195 216 253 245 248 126z m3973 -50 c-192 -470 -192 -475 9 -475 110 0 226 67 257 150 32 82 7 150 -56 150 -62 0 -91 23 -63 51 82 82 683 -67 683 -169 0 -52 -46 -65 -102 -31 -56 35 -240 -52 -408 -194 -306 -258 -890 -356 -890 -150 0 126 181 478 339 658 144 165 297 172 231 10z m6030 -275 c0 -110 -17 -200 -38 -200 -21 0 -62 90 -91 200 -29 110 -11 200 38 200 50 0 91 -90 91 -200z m579 -114 c-25 -75 -71 -29 -106 106 -43 166 -30 205 44 131 58 -58 86 -165 62 -237z m-10382 39 c-6 -120 -397 -558 -451 -504 -27 26 45 168 160 314 212 269 297 325 291 190z m9163 -298 c-33 -33 -56 26 -52 131 5 117 28 141 60 61 29 -72 26 -159 -8 -192z"/>
<path d="M11978 21457 c-250 -300 -272 -457 -65 -457 145 0 487 435 487 619 0 257 -110 215 -422 -162z"/>
<path d="M12324 21174 c-218 -313 -139 -529 105 -285 169 169 313 132 167 -43 -178 -215 28 -433 242 -256 174 144 562 -46 562 -276 0 -90 72 -119 210 -83 306 81 522 -22 388 -184 -123 -148 34 -301 202 -197 157 97 111 378 -104 637 -155 186 -227 212 -337 121 -110 -92 -198 -62 -414 138 -151 140 -335 254 -410 254 -74 0 -135 45 -135 100 0 55 34 89 75 75 41 -14 84 20 94 75 11 55 -46 94 -125 86 -79 -8 -144 26 -144 75 0 177 -155 79 -376 -237z"/>
<path d="M14561 19443 c-33 -87 -14 -244 43 -350 130 -244 346 -260 242 -18 -41 96 -78 254 -82 350 -9 218 -122 228 -203 18z"/>
<path d="M15000 18506 c0 -52 45 -122 100 -156 55 -34 100 8 100 94 0 86 -45 156 -100 156 -55 0 -100 -42 -100 -94z"/>
<path d="M14000 21616 c0 -104 507 -343 577 -272 28 28 -5 120 -75 204 -134 161 -502 211 -502 68z"/>
<path d="M16900 19643 c0 -31 46 -142 102 -248 93 -172 74 -185 -187 -133 -167 33 -320 11 -359 -52 -49 -80 -124 -80 -271 -2 -111 59 -221 89 -244 66 -64 -64 168 -674 256 -674 43 0 106 -141 140 -312 53 -264 86 -293 213 -188 82 68 150 87 150 42 0 -45 50 -32 112 30 82 82 71 191 -40 414 -145 291 -132 414 45 414 46 0 83 -90 83 -200 0 -110 58 -200 128 -200 108 0 158 603 85 1025 -15 86 -213 104 -213 18z m-300 -1093 c0 -82 -18 -150 -39 -150 -22 0 -66 68 -97 150 -32 83 -14 150 39 150 53 0 97 -67 97 -150z"/>
<path d="M6700 20000 c0 -55 45 -100 100 -100 55 0 100 45 100 100 0 55 -45 100 -100 100 -55 0 -100 -45 -100 -100z"/>
<path d="M2400 19219 c-192 -18 -389 -71 -437 -118 -81 -79 737 -17 829 63 80 70 -45 87 -392 55z"/>
<path d="M1700 17321 c-137 -21 -295 -84 -350 -140 -68 -69 12 -79 250 -30 514 106 595 244 100 170z"/>
<path d="M19900 14600 c0 -55 45 -100 100 -100 55 0 100 45 100 100 0 55 -45 100 -100 100 -55 0 -100 -45 -100 -100z"/>
<path d="M19754 14007 c-31 -51 -12 -121 44 -156 120 -74 302 20 302 155 0 122 -271 122 -346 1z"/>
<path d="M17600 12514 c0 -96 434 -514 534 -514 114 0 -232 478 -390 538 -79 31 -144 20 -144 -24z"/>
<path d="M15950 11900 c-34 -55 34 -100 150 -100 116 0 184 45 150 100 -34 55 -101 100 -150 100 -49 0 -116 -45 -150 -100z"/>
<path d="M19000 11700 c0 -55 45 -100 100 -100 55 0 100 45 100 100 0 55 -45 100 -100 100 -55 0 -100 -45 -100 -100z"/>
<path d="M17400 11600 c0 -55 68 -100 150 -100 83 0 150 45 150 100 0 55 -67 100 -150 100 -82 0 -150 -45 -150 -100z"/>
<path d="M12647 11295 c-95 -154 35 -253 163 -125 72 72 74 128 6 170 -56 35 -132 15 -169 -45z"/>
<path d="M11761 10958 c33 -87 104 -158 158 -158 131 0 49 227 -100 277 -73 24 -96 -21 -58 -119z"/>
<path d="M3492 12525 c-5 -105 -28 -125 -58 -50 -28 69 -113 125 -190 125 -105 0 -117 -58 -49 -237 59 -156 52 -276 -21 -349 -61 -61 -76 -145 -34 -187 42 -42 129 -5 193 82 64 87 173 140 242 116 85 -28 125 74 125 317 0 353 -193 523 -208 183z"/>
<path d="M2767 12233 c-82 -81 -89 -433 -10 -433 98 0 343 280 343 393 0 118 -228 146 -333 40z"/>
<path d="M1867 11833 c-127 -126 -66 -233 133 -233 111 0 200 67 200 150 0 152 -212 205 -333 83z"/>
<path d="M3425 11534 c-69 -28 -125 -140 -125 -250 0 -279 341 -197 382 92 32 223 -19 254 -257 158z"/>
<path d="M6375 12837 c-294 -87 -198 -247 100 -166 301 81 519 79 1275 -14 411 -50 456 -42 250 47 -284 123 -1362 211 -1625 133z"/>
<path d="M6673 11434 c68 -27 203 -29 300 -3 97 25 42 47 -123 50 -165 2 -245 -19 -177 -47z"/>
<path d="M21025 10934 c-176 -71 -156 -334 25 -334 83 0 150 89 150 200 0 110 -11 196 -25 192 -14 -4 -81 -30 -150 -58z"/>
<path d="M20100 10742 c0 -177 215 -146 277 39 22 66 -32 119 -119 119 -87 0 -158 -71 -158 -158z"/>
<path d="M18300 10450 c0 -83 89 -150 200 -150 111 0 200 67 200 150 0 83 -89 150 -200 150 -111 0 -200 -67 -200 -150z"/>
<path d="M16475 10392 c-244 -142 -218 -292 50 -290 297 2 518 148 432 287 -84 136 -251 137 -482 3z"/>
<path d="M20146 10293 c-92 -149 15 -230 206 -156 88 34 133 107 98 162 -81 131 -221 129 -304 -6z"/>
<path d="M19400 10150 c0 -100 66 -152 168 -132 92 17 168 77 168 132 0 55 -76 115 -168 132 -102 20 -168 -32 -168 -132z"/>
<path d="M18246 9993 c-36 -58 -45 -127 -20 -152 69 -70 374 68 374 170 0 125 -274 111 -354 -18z"/>
<path d="M16540 9749 c-134 -205 -141 -278 -36 -404 142 -171 509 -159 567 17 21 62 -55 137 -167 166 -259 68 -267 272 -10 272 107 0 222 45 256 100 35 57 -48 100 -192 100 -160 0 -314 -92 -418 -251z"/>
<path d="M17457 9848 c-106 -80 -162 -176 -125 -213 100 -101 589 150 518 265 -82 133 -162 122 -393 -52z"/>
<path d="M14275 8889 c-236 -134 -223 -318 17 -242 137 44 210 3 257 -143 41 -130 151 -204 302 -204 279 0 375 117 285 351 -47 123 -139 153 -344 112 -192 -38 -289 -12 -310 85 -24 103 -78 114 -207 41z"/>
<path d="M11646 8894 c-65 -106 338 -284 829 -366 207 -34 325 -13 325 59 0 62 -91 113 -203 113 -112 0 -358 65 -548 144 -205 86 -368 106 -403 50z"/>
<path d="M12425 8220 c-234 -17 -425 -66 -425 -109 0 -91 956 -88 1047 3 97 96 -158 140 -622 106z"/>
<path d="M12300 7800 c0 -55 203 -100 450 -100 248 0 450 45 450 100 0 55 -202 100 -450 100 -247 0 -450 -45 -450 -100z"/>
<path d="M12900 7494 c-224 -43 -269 -72 -125 -81 124 -7 225 -58 225 -113 0 -156 272 -118 335 47 75 196 -18 227 -435 147z"/>
<path d="M13500 6600 c0 -55 70 -100 156 -100 86 0 128 45 94 100 -34 55 -104 100 -156 100 -52 0 -94 -45 -94 -100z"/>
<path d="M13902 6248 c70 -84 147 -132 172 -107 70 69 -71 259 -192 259 -66 0 -59 -57 20 -152z"/>
<path d="M9541 5051 c-428 -413 -730 -751 -672 -751 59 0 163 68 231 150 68 83 175 146 237 142 71 -5 67 -27 -12 -58 -186 -75 -151 -212 70 -283 114 -36 311 14 471 119 366 240 1257 414 1959 383 698 -31 669 68 -70 246 -433 104 -612 107 -814 15 -200 -91 -250 -91 -219 2 96 288 364 329 1015 156 355 -95 726 -172 824 -172 166 0 166 8 -8 135 -174 128 -169 139 81 202 368 92 333 259 -59 282 -179 10 -482 33 -675 51 -192 18 -627 55 -965 82 l-616 50 -778 -751z m2609 249 c34 -55 -8 -100 -94 -100 -86 0 -156 45 -156 100 0 55 42 100 94 100 52 0 122 -45 156 -100z m-2187 -664 c-157 -135 -315 -215 -350 -177 -34 37 -2 90 73 117 75 26 208 131 295 233 87 102 183 160 214 129 30 -30 -74 -166 -232 -302z"/>
<path d="M12946 5293 c-36 -58 -50 -118 -31 -132 19 -14 249 -148 510 -297 l475 -272 0 235 c0 172 -96 282 -353 404 -413 197 -511 207 -601 62z"/>
<path d="M12900 4704 c0 -95 316 -304 459 -304 40 0 -9 90 -109 200 -194 214 -350 260 -350 104z"/>
<path d="M11550 4617 c-26 -27 -286 -56 -577 -64 -316 -10 -660 -93 -851 -206 -357 -211 -433 -396 -122 -297 110 35 200 20 200 -34 0 -54 173 -14 384 88 212 102 470 168 575 147 541 -109 941 -128 941 -45 0 52 -110 94 -244 94 -134 0 -273 46 -308 103 -41 66 65 89 294 64 197 -22 358 -6 358 35 0 86 -577 188 -650 115z m-1100 -417 c-34 -55 -104 -100 -156 -100 -52 0 -94 45 -94 100 0 55 70 100 156 100 86 0 128 -45 94 -100z"/>
<path d="M12600 4511 c0 -96 243 -213 433 -208 64 2 30 69 -77 150 -220 167 -356 189 -356 58z"/>
<path d="M13500 3900 c0 -55 45 -100 100 -100 55 0 100 45 100 100 0 55 -45 100 -100 100 -55 0 -100 -45 -100 -100z"/>
<path d="M13100 3819 c0 -45 157 -157 350 -249 435 -207 468 -44 35 173 -364 181 -385 185 -385 76z"/>
<path d="M15941 8049 l-291 -253 304 -566 c308 -573 546 -783 546 -483 0 91 -112 366 -250 612 -277 497 -290 541 -159 541 106 0 809 -955 809 -1100 0 -55 68 -100 150 -100 83 0 150 75 150 166 0 192 -516 1027 -785 1270 -171 155 -201 149 -474 -87z"/>
<path d="M15356 7609 c-93 -149 376 -1309 528 -1309 179 0 210 144 76 349 -78 119 -198 403 -266 633 -123 409 -226 509 -338 327z"/>
<path d="M16734 6144 c-82 -214 127 -644 314 -644 183 0 186 41 32 468 -130 360 -252 422 -346 176z"/>
<path d="M16154 5675 c102 -478 246 -715 363 -598 147 147 -87 923 -279 923 -121 0 -139 -69 -84 -325z"/>
<path d="M7966 6575 c-75 -179 -238 -559 -362 -845 -379 -878 -162 -831 279 61 230 462 417 901 417 975 0 249 -196 136 -334 -191z"/>
<path d="M6600 2575 c0 -69 -113 -256 -251 -416 -137 -160 -226 -315 -197 -344 70 -70 639 601 644 760 2 69 -41 125 -96 125 -55 0 -100 -56 -100 -125z"/>
<path d="M23800 23789 c-302 -47 -651 -63 -775 -35 -124 27 -225 4 -225 -52 0 -118 241 -125 1375 -37 454 36 825 103 825 150 0 101 -446 92 -1200 -26z"/>
<path d="M1900 23594 c0 -114 1450 -77 1568 40 36 36 -302 66 -751 66 -508 0 -817 -40 -817 -106z"/>
<path d="M3950 23600 c-208 -53 -15 -80 625 -88 509 -7 959 -21 1000 -32 491 -131 1834 -215 2475 -155 1438 134 8124 213 9614 114 581 -39 982 -22 1100 46 149 86 77 108 -364 108 -302 1 -2372 4 -4600 7 -2227 4 -4641 -36 -5364 -88 -1011 -73 -1542 -63 -2300 44 -1065 151 -1713 164 -2186 44z"/>
<path d="M23444 23211 c-98 -99 95 -211 362 -211 195 0 294 -51 294 -150 0 -82 45 -150 100 -150 55 0 100 45 100 100 0 55 158 100 350 100 236 0 350 46 350 142 0 108 -185 150 -759 175 -417 18 -776 15 -797 -6z"/>
<path d="M23124 22446 c-356 -250 -312 -843 84 -1136 346 -256 512 -209 258 72 -91 101 -166 262 -166 357 0 262 188 561 354 561 80 0 146 45 146 100 0 55 -41 100 -92 100 -50 0 -152 23 -226 51 -73 29 -234 -19 -358 -105z m180 -239 c-57 -107 -104 -317 -104 -467 0 -379 -111 -234 -122 159 -5 176 54 360 132 409 200 127 210 116 94 -101z"/>
<path d="M23906 22183 c-245 -263 -269 -706 -48 -890 147 -122 1142 -309 1142 -214 0 23 -112 131 -250 239 -303 238 -312 376 -48 712 121 154 161 281 101 318 -157 97 -516 -563 -451 -830 47 -198 21 -228 -173 -200 -326 46 -378 601 -77 812 122 86 170 176 111 212 -55 34 -194 -37 -307 -159z"/>
<path d="M17700 22225 c1 -41 211 -83 469 -92 313 -12 420 12 324 73 -173 110 -793 124 -793 19z"/>
<path d="M2112 21954 c146 -154 422 -168 2800 -142 1451 15 3009 19 3463 8 472 -12 825 20 825 75 0 59 -1269 90 -3325 81 -1829 -8 -3460 22 -3625 67 -280 76 -289 70 -138 -89z"/>
<path d="M9650 22000 c34 -55 127 -100 206 -100 79 0 144 45 144 100 0 55 -93 100 -206 100 -113 0 -178 -45 -144 -100z"/>
<path d="M17511 21809 c-93 -59 35 -100 385 -123 585 -40 769 56 290 152 -406 81 -508 77 -675 -29z"/>
<path d="M22300 21761 c0 -95 299 -143 353 -57 32 53 -34 96 -147 96 -113 0 -206 -18 -206 -39z"/>
<path d="M2100 21516 c0 -53 214 -117 475 -143 261 -25 577 -72 701 -104 270 -69 847 112 768 241 -32 52 -143 44 -262 -20 -191 -102 -1047 -61 -1507 73 -96 28 -175 7 -175 -47z"/>
<path d="M5700 21500 c360 -115 600 -115 600 0 0 55 -191 96 -425 90 -361 -8 -387 -22 -175 -90z"/>
<path d="M7000 21507 c1149 -141 2785 -203 2450 -94 -165 54 -930 115 -1700 135 -1014 28 -1221 16 -750 -41z"/>
<path d="M17900 21400 c0 -55 124 -99 275 -98 214 1 242 22 125 98 -196 126 -400 126 -400 0z"/>
<path d="M20600 21382 c-412 -51 -964 -70 -1225 -42 -270 29 -475 9 -475 -45 0 -97 53 -112 522 -146 149 -10 330 -68 402 -128 163 -135 2268 -69 2413 76 164 164 32 198 -390 100 -218 -51 -712 -88 -1097 -83 -756 10 -720 38 175 137 316 35 575 105 575 156 0 51 -34 87 -75 80 -41 -7 -412 -55 -825 -105z"/>
<path d="M2300 20300 c0 -55 68 -100 150 -100 83 0 150 45 150 100 0 55 -67 100 -150 100 -82 0 -150 -45 -150 -100z"/>
<path d="M2800 20295 c0 -39 225 -68 500 -64 284 4 446 41 375 86 -153 96 -875 78 -875 -22z"/>
<path d="M3100 20000 c0 -55 45 -100 100 -100 55 0 100 45 100 100 0 55 -45 100 -100 100 -55 0 -100 -45 -100 -100z"/>
<path d="M22830 17732 c34 -54 187 -82 341 -62 153 20 628 -49 1054 -153 777 -190 1104 -122 400 83 -539 157 -1871 255 -1795 132z"/>
<path d="M22016 17454 c256 -71 729 -161 1050 -200 833 -101 555 91 -335 232 -944 150 -1315 133 -715 -32z"/>
<path d="M23539 16889 c103 -63 486 -132 850 -154 837 -49 531 109 -389 202 -509 51 -609 41 -461 -48z"/>
<path d="M22800 16603 c-82 -55 -127 -104 -100 -110 28 -5 163 -24 300 -43 138 -18 565 -81 950 -139 859 -128 1050 -134 1050 -31 0 45 -371 131 -825 193 -454 62 -915 138 -1025 171 -110 32 -267 14 -350 -41z"/>
<path d="M19208 16462 c23 -20 560 -64 1192 -98 723 -38 1076 -27 950 31 -187 85 -2233 150 -2142 67z"/>
<path d="M19200 16001 c0 -63 520 -103 1375 -107 1666 -7 2691 -157 1325 -194 -467 -13 -940 -14 -1050 -3 -157 16 -174 -6 -80 -103 94 -97 427 -99 1565 -9 794 63 1719 115 2055 115 335 0 610 39 610 86 0 78 -1392 161 -4575 273 -786 28 -1225 7 -1225 -58z"/>
<path d="M24500 14900 c-223 -71 -210 -81 125 -90 206 -6 375 35 375 90 0 114 -143 114 -500 0z"/>
<path d="M1700 13500 c0 -55 87 -100 194 -100 107 0 222 45 256 100 35 57 -49 100 -194 100 -141 0 -256 -45 -256 -100z"/>
<path d="M0 13310 c0 -53 85 -123 188 -156 323 -103 1502 -151 1556 -64 67 108 -794 226 -1095 151 -126 -32 -325 -8 -440 54 -124 67 -209 73 -209 15z"/>
<path d="M0 12580 c0 -44 157 -80 350 -80 450 0 450 66 0 119 -193 22 -350 5 -350 -39z"/>
<path d="M23020 10380 c-66 -66 -120 -207 -120 -312 0 -163 24 -173 156 -63 137 114 148 98 93 -125 -57 -224 -33 -255 193 -255 142 0 258 8 258 19 0 48 -408 856 -432 856 -16 0 -82 -54 -148 -120z"/>
<path d="M22460 10241 c-80 -209 -76 -241 29 -241 125 0 221 282 117 346 -47 29 -112 -18 -146 -105z"/>
<path d="M24600 9000 c-117 -165 -190 -300 -161 -300 64 0 561 491 561 555 0 141 -215 4 -400 -255z"/>
<path d="M24624 8399 c-365 -434 -404 -583 -149 -563 228 18 347 188 197 281 -81 51 -44 149 123 327 131 141 220 275 196 298 -24 24 -189 -130 -367 -343z"/>
<path d="M24908 6458 c-4 -105 19 -164 52 -131 34 33 37 120 8 192 -32 80 -55 56 -60 -61z"/>
<path d="M20665 3875 c30 -399 180 -1107 333 -1575 153 -467 336 -1176 406 -1575 l128 -725 341 0 c277 0 331 33 290 175 -28 96 -104 378 -170 625 -101 385 -131 421 -208 250 -64 -146 -76 -96 -42 182 44 359 -70 849 -224 966 -165 124 -310 524 -519 1432 -124 533 -261 970 -307 970 -45 0 -57 -326 -28 -725z m1201 -3602 c-28 -68 -49 12 -47 177 3 165 25 220 50 123 26 -97 24 -232 -3 -300z"/>
<path d="M21305 3414 c-3 -129 130 -519 296 -866 280 -586 694 -1988 697 -2360 2 -126 114 -164 506 -173 l504 -12 -68 374 c-123 669 -248 816 -191 223 48 -504 40 -534 -98 -356 -83 107 -152 287 -153 400 -2 333 -269 1006 -399 1006 -65 0 -261 344 -434 765 -173 421 -391 871 -485 1000 l-170 235 -5 -236z"/>
<path d="M967 2533 c-94 -93 -84 -433 13 -433 125 0 320 226 320 370 0 136 -219 178 -333 63z"/>
<path d="M621 781 c-161 -161 -154 -430 16 -570 181 -151 391 92 346 401 -39 265 -194 337 -362 169z"/>
<path d="M23500 400 c0 -420 143 -537 249 -204 56 177 -87 604 -203 604 -25 0 -46 -180 -46 -400z"/>
<path d="M23923 372 c16 -219 79 -372 154 -372 87 0 107 85 62 275 -105 445 -245 508 -216 97z"/>
<path d="M24358 613 c-43 -69 -51 -153 -18 -186 89 -90 187 42 139 187 -34 101 -58 101 -121 -1z"/>
<path d="M24919 250 c-2 -165 19 -245 47 -177 27 68 29 203 3 300 -25 97 -47 42 -50 -123z"/>
<path d="M17856 310 c-43 -70 -29 -177 31 -237 148 -148 204 -66 118 170 -52 143 -91 161 -149 67z"/>
<path d="M16900 150 c0 -82 66 -150 147 -150 89 0 124 59 89 150 -74 194 -236 194 -236 0z"/>
<path d="M17360 216 c-35 -56 -15 -132 45 -169 154 -95 253 35 125 163 -72 72 -128 74 -170 6z"/>
<path d="M24450 100 c-34 -55 31 -100 144 -100 113 0 206 45 206 100 0 55 -65 100 -144 100 -79 0 -172 -45 -206 -100z"/>
</g>
</svg>