<svg xmlns="http://www.w3.org/2000/svg" version="1.0" width="250" height="250" viewBox="0 0 250.000000 250.000000" preserveAspectRatio="xMidYMid meet">
<metadata>
Created by potrace 1.10, written by Peter Selinger 2001-2011
</metadata>
<g transform="translate(0.000000,250.000000) scale(0.010000,-0.010000)" fill="#555555" stroke="none">
<path d="M0 24845 c0 -175 260 -719 451 -945 70 -82 159 -386 198 -675 69 -520 67 -525 -165 -440 -164 60 -269 217 -353 525 -116 426 -119 412 -100 -410 18 -787 35 -852 234 -881 128 -18 265 -151 339 -328 156 -376 71 -463 -247 -255 -138 90 -274 164 -303 164 -30 0 -54 -247 -54 -550 0 -302 43 -550 96 -550 114 0 504 -402 504 -519 0 -136 -224 -91 -417 84 -175 158 -183 147 -183 -255 l0 -420 825 19 c454 11 1119 -31 1478 -93 1080 -187 2353 -261 4147 -242 1597 17 2327 72 4150 313 981 130 1602 -37 2248 -606 256 -226 744 -555 1084 -733 1153 -603 1618 -908 1716 -1126 54 -120 222 -262 374 -315 365 -127 1078 -705 1078 -874 0 -73 45 -133 100 -133 55 0 100 45 100 100 0 55 40 100 89 100 49 0 88 -349 86 -775 -2 -426 44 -1000 103 -1275 58 -275 86 -519 62 -543 -87 -88 -258 179 -356 556 -191 735 -207 939 -84 1087 76 92 95 251 50 424 l-73 276 -146 -400 c-99 -270 -129 -603 -93 -1025 42 -483 24 -625 -80 -625 -215 0 -334 216 -412 750 -40 275 -112 604 -159 731 -58 154 -40 320 54 502 l141 272 -391 0 c-294 0 -430 56 -551 229 -94 134 -222 206 -308 173 -246 -95 -531 129 -538 422 -7 267 -8 268 -99 40 -119 -296 -226 -225 -493 326 -118 244 -305 559 -415 699 -201 255 -487 346 -487 156 0 -55 34 -100 77 -100 151 0 723 -1088 723 -1377 0 -162 115 -465 256 -672 482 -710 3 -912 -594 -251 -284 315 -362 484 -362 787 0 280 -84 491 -309 774 -322 406 -464 445 -408 113 32 -186 12 -184 -387 40 -505 283 -796 629 -796 946 0 331 -287 456 -735 319 -485 -150 -462 -248 57 -238 322 7 430 -31 456 -161 27 -131 -97 -209 -534 -336 -387 -113 -584 -226 -618 -355 -27 -104 -128 -189 -225 -189 -96 0 -552 -128 -1013 -285 -1585 -540 -2140 -704 -2888 -859 -412 -84 -1267 -269 -1900 -410 -1588 -354 -2217 -442 -3179 -444 l-828 -2 16 -1440 16 -1439 337 -319 c495 -466 464 -624 -67 -349 l-295 152 1 -577 c1 -574 4 -580 425 -828 233 -137 537 -289 674 -337 138 -48 455 -257 705 -464 467 -387 1163 -800 1344 -797 55 1 -47 96 -228 212 -181 116 -305 235 -276 265 69 68 1723 -174 2055 -301 138 -53 583 -181 989 -286 849 -219 1068 -353 905 -550 -75 -90 -177 -103 -327 -42 -119 48 -509 135 -867 193 -357 58 -771 196 -920 306 -267 198 -680 274 -680 125 0 -41 138 -136 306 -211 441 -195 286 -255 -298 -115 -276 66 -676 91 -888 55 -463 -78 -1588 102 -2249 360 -533 208 -671 229 -671 99 0 -49 101 -114 225 -144 124 -31 585 -147 1025 -259 456 -115 1144 -204 1600 -207 450 -3 1125 -90 1543 -198 409 -107 791 -164 849 -128 158 97 777 22 979 -119 149 -105 -10 -146 -997 -257 -646 -72 -1241 -144 -1324 -158 -83 -15 -229 -30 -325 -34 -96 -5 -175 -45 -175 -91 0 -98 727 -64 1823 86 900 123 1132 79 1213 -230 82 -315 -25 -378 -827 -478 -394 -50 -1040 -208 -1437 -352 -1220 -442 -2884 -943 -3134 -943 -353 0 -288 -154 77 -181 302 -24 1134 225 1330 398 52 45 197 83 322 83 125 0 487 115 805 256 794 352 3242 826 2828 548 -82 -56 -246 -102 -364 -102 -117 -1 -342 -71 -500 -154 l-286 -152 450 60 c248 33 579 101 736 151 317 100 464 51 464 -154 0 -74 135 -249 300 -388 165 -138 300 -273 300 -298 0 -25 -232 -195 -515 -377 -283 -181 -460 -348 -393 -371 67 -22 220 46 340 152 631 557 1107 621 1665 225 212 -151 249 -259 257 -753 9 -528 38 -600 351 -861 411 -343 358 -486 -305 -828 -620 -319 -1079 -475 -1550 -526 -324 -35 -486 15 -850 263 -482 327 -600 368 -600 208 0 -196 653 -694 998 -762 191 -37 482 -149 646 -249 167 -102 393 -157 514 -127 168 42 230 0 277 -186 33 -132 163 -294 288 -359 125 -65 362 -208 527 -317 524 -348 933 -499 1322 -489 374 10 373 12 -195 195 -314 102 -708 286 -874 409 l-303 223 217 231 c273 290 193 399 -95 131 -226 -210 -522 -267 -522 -100 0 55 157 201 349 325 344 223 446 376 251 376 -55 0 -100 -37 -100 -81 0 -45 -158 -157 -350 -249 -290 -138 -350 -143 -350 -25 0 78 101 174 225 213 280 88 696 355 640 410 -22 23 -226 -55 -451 -173 -541 -281 -1214 -378 -1214 -174 0 141 389 379 619 379 110 0 220 48 1831 806 1905 895 2221 1027 2900 1205 l700 184 -566 -47 c-578 -49 -1645 -456 -2711 -1035 -318 -172 -617 -313 -666 -313 -48 0 -65 173 -36 385 39 295 14 400 -111 447 -134 52 -151 15 -96 -210 l66 -272 -229 200 c-343 300 -487 717 -394 1133 45 196 59 391 33 434 -70 113 -628 355 -1097 476 -455 117 -684 337 -1082 1035 -228 399 -262 549 -207 914 113 750 636 1392 855 1048 122 -194 117 30 -10 362 -73 193 -69 255 14 227 63 -21 201 -261 307 -534 106 -272 272 -576 370 -676 171 -174 177 -172 169 50 -5 127 -110 313 -234 413 -124 100 -225 231 -225 291 0 197 -496 1159 -618 1200 -132 44 -266 1110 -276 2191 -4 459 55 799 192 1100 109 240 199 357 200 261 1 -96 47 -175 102 -175 55 0 100 117 100 260 0 142 63 379 140 525 77 146 196 456 266 690 69 234 154 425 189 425 35 0 241 168 458 373 329 310 401 342 430 194 43 -224 352 -178 398 59 21 110 -29 174 -136 174 -139 0 -147 27 -45 150 68 82 172 150 231 150 58 0 213 100 343 222 180 170 255 192 316 95 51 -83 182 -106 369 -66 274 59 280 54 102 -91 -104 -84 -239 -171 -300 -193 -61 -22 -82 -71 -46 -110 78 -84 435 105 793 420 303 267 800 428 1088 353 360 -94 218 -230 -240 -230 -650 0 -684 -197 -37 -212 642 -14 591 -18 807 66 134 52 162 30 114 -93 -34 -88 -12 -161 49 -161 61 0 111 -79 112 -175 0 -96 170 -400 378 -675 416 -550 834 -692 1227 -417 114 80 305 121 425 91 252 -62 174 54 -144 216 -330 167 -471 444 -287 561 213 136 241 126 351 -126 103 -234 322 -232 268 3 -23 101 32 93 220 -30 281 -184 661 -893 661 -1233 0 -122 73 -389 163 -593 90 -205 158 -477 151 -605 -15 -274 371 -1217 498 -1217 146 0 98 232 -112 550 -109 165 -199 400 -199 522 -1 303 245 195 263 -115 8 -133 107 -342 221 -464 165 -177 185 -262 100 -421 -58 -109 -78 -373 -44 -585 62 -394 -85 -549 -211 -221 -53 139 -80 126 -162 -75 -90 -218 -108 -191 -191 284 -115 653 -265 686 -243 54 13 -377 -19 -479 -159 -508 -121 -25 -175 27 -175 166 0 111 -45 229 -100 263 -55 34 -100 -28 -100 -137 0 -168 -89 -209 -575 -262 -316 -36 -673 -112 -792 -170 -273 -134 -1075 -21 -1237 173 -66 80 -98 229 -71 332 54 207 -364 1544 -496 1588 -46 15 -84 -150 -84 -368 0 -287 47 -407 170 -439 168 -44 318 -680 260 -1105 -35 -257 644 -499 1125 -400 193 40 554 79 804 86 250 8 506 46 569 85 63 39 303 29 533 -23 230 -52 475 -73 545 -46 173 67 1347 -435 1633 -699 729 -672 593 -1992 -233 -2265 -453 -149 -706 -59 -277 99 353 131 486 460 518 1277 14 371 -16 438 -238 522 -140 54 -254 161 -254 239 0 141 -272 313 -436 275 -47 -10 -146 31 -220 93 -184 153 -366 21 -292 -212 39 -121 -33 -312 -196 -526 -308 -404 -324 -511 -56 -367 143 77 200 76 200 -2 0 -216 186 10 250 304 37 165 103 277 148 249 44 -27 37 -241 -17 -475 -54 -234 -114 -549 -134 -700 -53 -391 -473 -1055 -995 -1569 -247 -244 -427 -466 -399 -493 27 -27 140 49 252 168 112 120 252 218 312 218 149 0 483 397 483 575 0 198 354 630 638 777 l236 123 -155 -396 c-214 -542 -820 -1157 -1756 -1779 -860 -571 -1405 -718 -1826 -493 -228 122 -235 142 -70 207 274 108 553 100 483 -14 -34 -55 11 -100 99 -100 227 0 751 285 751 408 0 57 -100 33 -222 -52 -255 -179 -522 -209 -423 -48 40 65 -7 99 -119 85 -262 -33 -547 108 -470 233 97 157 -777 -5 -971 -181 -89 -80 -213 -145 -278 -145 -64 0 -117 -67 -117 -150 0 -100 -100 -150 -300 -150 -165 0 -300 45 -300 100 0 55 111 100 246 100 145 0 291 83 354 200 59 110 180 200 270 200 90 0 135 29 100 63 -35 35 -191 11 -346 -53 -224 -93 -354 -88 -628 24 -482 197 -1264 299 -1341 175 -36 -60 53 -99 216 -97 411 8 1128 -170 1262 -312 92 -97 53 -113 -183 -76 -165 26 -379 81 -475 123 -96 41 -175 34 -175 -14 0 -49 139 -142 309 -206 186 -70 282 -161 240 -229 -38 -61 -143 -82 -234 -45 -91 36 -367 88 -615 115 -458 49 -693 173 -567 299 39 38 124 16 189 -49 145 -145 378 -155 378 -16 0 57 -141 131 -313 166 -189 37 -333 137 -363 251 -52 198 -551 516 -847 540 -95 7 -230 60 -300 116 -70 56 -274 133 -454 172 -239 51 -386 174 -550 461 -123 215 -248 391 -279 391 -104 2 -311 -988 -248 -1186 34 -108 20 -223 -33 -255 -52 -32 -72 -144 -45 -248 83 -317 554 -664 1082 -797 827 -208 1162 -695 803 -1169 -191 -253 -193 -607 -3 -680 104 -40 150 7 150 152 0 116 92 360 205 542 190 307 194 355 54 625 -83 161 -221 319 -305 352 -85 32 -154 102 -154 155 0 120 1454 42 1704 -92 162 -87 972 -192 2696 -352 799 -73 898 -90 1150 -189 609 -239 845 -383 1203 -733 219 -213 656 -553 972 -755 343 -218 575 -438 575 -543 1 -97 92 -326 204 -509 421 -690 639 -2068 346 -2181 -82 -31 -150 -116 -150 -187 0 -95 215 -132 800 -139 l800 -8 8 424 c5 233 27 537 50 674 23 138 48 633 56 1100 22 1344 196 509 202 -975 l6 -1225 614 0 614 0 15 1475 c25 2596 107 4899 178 5014 86 138 957 148 957 11 0 -55 112 -100 249 -100 198 0 244 -46 225 -225 -23 -217 5 -225 793 -225 449 0 843 -27 877 -60 33 -33 56 -776 50 -1650 -5 -875 -9 -1680 -9 -1790 -1 -110 32 -706 72 -1325 71 -1099 79 -1125 312 -1125 l238 0 -16 3175 c-9 1746 -38 3230 -64 3298 -31 83 -265 121 -698 115 -501 -8 -696 -55 -844 -203 -190 -190 -196 -189 -467 86 -331 336 -410 829 -134 829 277 0 334 -114 156 -311 -195 -216 -95 -459 118 -283 77 64 212 89 300 55 109 -42 178 6 216 151 52 197 106 209 741 164 377 -27 685 -10 685 37 0 48 -60 87 -134 87 -147 0 -388 444 -293 540 33 33 143 60 244 60 164 0 183 94 183 900 0 633 -36 900 -120 900 -93 0 -93 27 0 120 66 66 116 212 112 325 -4 113 -30 149 -58 80 -69 -170 -283 -157 -434 25 -68 83 -215 150 -326 150 -111 0 -255 73 -320 162 -147 200 -706 107 -798 -132 -80 -210 17 -297 166 -148 125 125 578 165 578 51 0 -37 -75 -150 -166 -251 -223 -246 -87 -361 161 -136 134 121 278 157 451 114 358 -90 316 -325 -71 -401 -179 -35 -392 -78 -475 -94 -82 -16 -307 -128 -500 -247 -474 -294 -700 -284 -700 32 0 156 -57 250 -150 250 -82 0 -150 -37 -150 -81 0 -100 -650 -419 -853 -419 -304 0 -131 273 253 400 220 73 400 160 400 194 0 35 135 143 300 240 286 169 400 366 211 366 -49 0 -322 -161 -608 -357 -286 -197 -579 -335 -651 -308 -72 28 -249 -81 -393 -242 -287 -323 -474 -366 -652 -152 -132 160 -102 186 416 353 378 122 723 493 791 852 50 266 1087 587 1611 499 293 -49 388 -27 437 100 83 215 568 460 722 365 68 -42 99 -140 70 -218 -89 -242 79 -369 421 -318 298 45 482 326 213 326 -80 0 -78 42 7 144 99 120 59 156 -239 211 -197 37 -380 103 -407 146 -74 121 239 206 509 138 225 -57 242 -34 242 334 0 327 -44 415 -257 512 -296 135 -460 71 -436 -169 29 -302 -5 -322 -294 -173 -326 169 -413 125 -413 -210 0 -140 -60 -233 -150 -233 -82 0 -150 42 -150 93 0 51 -101 109 -225 127 -124 19 -213 91 -199 159 18 88 -56 105 -250 58 -303 -74 -422 -201 -424 -450 -2 -134 78 -153 448 -112 298 34 450 13 450 -62 0 -169 497 -136 564 37 31 83 154 148 272 146 190 -4 176 -37 -132 -300 -257 -219 -449 -296 -740 -296 -216 0 -658 -96 -981 -214 -473 -173 -655 -307 -941 -697 -270 -367 -438 -498 -706 -548 -194 -37 -377 -132 -408 -212 -43 -113 -73 -117 -133 -20 -61 97 -134 88 -333 -42 -292 -191 -462 -214 -462 -62 0 58 169 172 375 253 206 81 443 191 525 245 83 53 251 141 375 195 124 53 225 143 225 200 0 183 -378 108 -667 -133 -308 -256 -672 -466 -801 -463 -45 1 31 95 168 208 l250 206 -250 -57 c-137 -32 -351 -86 -475 -120 -133 -37 -225 -18 -225 46 0 143 360 331 566 294 94 -17 238 97 341 271 250 421 236 666 -19 325 -112 -151 -268 -275 -346 -275 -163 0 -190 159 -42 250 55 34 100 149 100 256 0 143 -69 194 -263 194 l-264 0 254 200 c140 110 337 201 439 201 101 1 454 293 784 650 627 678 809 793 696 437 -48 -153 -29 -199 69 -167 74 25 148 132 164 237 75 498 136 642 273 642 81 0 148 47 148 105 0 58 127 150 283 204 224 78 284 160 284 390 0 160 63 367 141 461 214 257 709 438 908 331 115 -61 266 -35 474 84 253 145 340 153 506 50 255 -158 304 -157 304 8 0 72 -112 237 -249 366 -185 174 -221 266 -141 362 58 71 77 222 42 334 -84 265 -29 259 505 -55 426 -249 443 -251 443 -56 0 115 -87 230 -200 266 -258 82 -258 353 0 421 157 41 200 136 200 441 0 321 -34 388 -200 388 -259 0 -259 203 0 271 136 36 200 136 200 316 0 221 -66 285 -398 389 -220 68 -501 125 -625 127 -210 3 -213 11 -42 111 102 59 315 81 474 49 334 -67 591 8 591 173 0 123 -891 136 -1254 18 -277 -90 -746 286 -746 598 0 271 -240 445 -514 373 -102 -26 -186 -20 -186 15 0 109 237 485 627 993 250 325 346 529 285 604 -51 62 -108 222 -127 355 -47 325 -205 358 -495 104 l-240 -210 275 59 c304 65 355 -50 124 -282 -83 -83 -193 -255 -244 -382 -65 -162 -94 -181 -99 -63 -3 93 -96 197 -206 232 -238 76 -254 181 -50 350 225 186 195 600 -43 600 -137 0 -203 81 -225 275 -44 375 -399 422 -687 91 -211 -243 -218 -243 -405 -56 -250 250 -249 428 2 272 151 -94 225 -92 350 11 87 72 158 193 158 269 0 76 73 138 162 138 119 0 145 60 101 225 -33 124 -61 484 -62 800 -1 459 -33 575 -160 575 -127 0 -154 -97 -134 -475 43 -790 13 -925 -207 -925 -207 0 -276 241 -100 350 55 34 100 284 100 556 l0 494 -350 0 c-277 0 -350 -40 -350 -189 0 -104 68 -216 150 -247 228 -88 195 -564 -39 -564 -206 0 -368 535 -252 837 45 119 6 163 -148 163 -182 0 -211 -59 -211 -437 0 -402 -21 -438 -253 -438 -140 0 -334 -73 -433 -162 -335 -303 -415 -205 -349 429 l62 591 -1114 9 c-612 5 -1113 -29 -1113 -76 0 -47 86 -163 191 -258 105 -95 289 -402 410 -684 200 -464 206 -522 60 -629 -172 -125 -218 -345 -73 -345 49 0 112 -90 141 -200 69 -263 271 -258 271 7 0 161 44 193 200 143 110 -35 200 -19 200 36 0 54 134 32 299 -50 292 -146 501 -117 501 70 0 52 -63 94 -139 94 -77 0 -166 68 -197 150 -32 83 -14 150 39 150 53 0 97 -45 97 -100 0 -168 202 -111 268 75 95 267 346 525 510 525 110 0 132 -76 87 -302 -55 -275 -43 -293 130 -200 388 207 411 48 66 -461 l-239 -352 -164 233 -163 232 -57 -219 c-69 -258 -470 -421 -889 -360 -209 31 -413 -33 -678 -213 -436 -296 -471 -305 -471 -128 0 72 -50 180 -111 241 -61 61 -126 312 -146 559 -32 405 -16 444 161 398 422 -110 131 476 -695 1397 -223 249 -311 275 -928 275 -625 0 -787 -61 -617 -231 36 -35 169 -321 296 -634 217 -532 221 -578 61 -699 -382 -290 -471 -144 -587 961 l-62 603 -1032 0 -1032 0 56 -675 c36 -438 126 -774 255 -958 248 -352 157 -482 -110 -156 -172 210 -222 223 -407 111 -115 -71 -245 -107 -288 -80 -43 26 -58 433 -34 903 l45 855 -566 0 -567 0 29 -575 c16 -316 -11 -597 -60 -625 -162 -91 -481 465 -481 837 l0 363 -590 0 -590 0 0 -456 c0 -279 -39 -432 -100 -394 -55 34 -78 250 -49 481 49 408 47 411 -69 119 l-119 -300 -61 250 c-46 192 -134 257 -381 281 -181 18 -321 -15 -321 -76 0 -70 -70 -63 -203 19 -168 104 -220 100 -299 -24 -63 -100 -95 -108 -96 -25 -2 90 -233 124 -827 122 l-825 -3 264 -233 c145 -127 443 -261 664 -296 305 -49 414 -118 457 -291 46 -181 204 -270 786 -443 1533 -452 1861 -513 2054 -377 137 96 305 101 703 23 287 -57 521 -131 519 -165 -2 -34 -88 -163 -191 -287 -209 -250 -856 -312 -1221 -117 -156 83 -241 72 -376 -50 -216 -195 -371 -202 -441 -18 -30 77 -361 215 -736 306 -375 91 -839 206 -1032 255 -192 49 -442 204 -554 344 -112 140 -380 345 -596 455 -215 110 -430 267 -476 350 -46 82 -174 150 -283 150 -110 0 -296 90 -414 200 -193 179 -353 200 -1556 200 l-1341 0 44 -475 c48 -510 -103 -1525 -227 -1525 -132 0 -208 329 -100 437 154 154 124 932 -50 1268 -106 206 -227 295 -400 295 -291 0 -295 -19 -90 -451 182 -384 156 -963 -47 -1030 -108 -35 -126 24 -80 256 78 388 -419 1225 -728 1225 -116 0 -202 -66 -202 -155z m13600 -145 c0 -55 -87 -100 -194 -100 -107 0 -222 45 -256 100 -35 57 49 100 194 100 141 0 256 -45 256 -100z m-4000 -350 c0 -192 -45 -350 -100 -350 -111 0 -139 528 -33 633 115 115 133 77 133 -283z m-4750 -50 c34 -55 -8 -100 -94 -100 -86 0 -156 45 -156 100 0 55 42 100 94 100 52 0 122 -45 156 -100z m-1286 -976 c125 -325 151 -629 111 -1281 -30 -470 -85 -886 -122 -924 -184 -184 -331 345 -345 1236 -8 521 -51 1048 -96 1171 -46 123 -112 359 -149 524 l-65 300 251 -300 c138 -165 325 -492 415 -726z m4933 780 c81 -51 124 -116 96 -145 -78 -77 -493 51 -493 153 0 114 210 110 397 -8z m5203 -104 c0 -55 -41 -100 -92 -100 -50 0 -163 -27 -250 -61 -87 -33 -158 -14 -158 43 0 89 155 165 425 206 41 7 75 -33 75 -88z m-7615 -997 c454 -567 485 -687 537 -2053 28 -715 32 -1210 10 -1100 -22 110 -145 448 -275 750 -130 303 -286 826 -348 1164 -62 338 -268 914 -459 1280 l-348 666 300 -177 c165 -98 427 -336 583 -530z m9933 375 c-71 -71 -118 -77 -118 -15 0 57 30 134 67 170 36 37 90 44 118 15 28 -28 -2 -105 -67 -170z m-14763 -284 c145 -160 181 -338 163 -801 -13 -328 22 -681 77 -784 55 -103 209 -530 342 -948 233 -733 235 -761 50 -761 -117 0 -234 108 -300 275 -226 578 -469 1602 -536 2267 -39 381 -94 753 -122 825 -77 202 117 159 326 -73z m12781 48 c83 -32 129 -118 101 -190 -90 -235 120 -248 551 -35 492 244 636 178 329 -149 -119 -127 -217 -284 -217 -349 0 -201 253 -132 481 131 199 228 419 331 419 195 0 -122 -297 -618 -443 -739 -128 -107 -217 -100 -506 37 -193 92 -351 209 -351 262 0 52 -72 95 -159 95 -88 0 -183 89 -211 197 -28 108 -139 224 -246 258 -155 49 -171 91 -77 203 135 163 127 161 329 84z m-9483 -162 c145 -66 349 -289 455 -496 221 -434 230 -484 87 -484 -58 0 -153 137 -212 305 -75 217 -219 351 -495 461 -387 155 -517 334 -243 334 80 0 264 -54 408 -120z m7747 -30 c0 -82 -8 -161 -17 -175 -9 -14 37 -126 104 -250 154 -289 -29 -304 -384 -30 -244 187 -245 193 -60 397 222 245 357 267 357 58z m8044 -75 c-99 -324 -242 -475 -450 -475 -312 0 -307 171 13 441 381 320 529 331 437 34z m-8801 37 c30 -49 -35 -202 -144 -341 -245 -311 -276 -559 -46 -368 127 105 178 94 297 -63 183 -242 183 -288 0 -440 -153 -127 -207 -400 -79 -400 39 0 167 120 284 266 233 293 493 243 392 -74 -63 -198 94 -269 203 -92 34 55 107 100 162 100 54 0 20 -134 -76 -297 -188 -318 -101 -564 102 -287 66 91 209 181 316 200 161 28 191 -16 167 -241 -23 -219 13 -275 175 -275 143 0 204 -65 204 -219 0 -213 7 -211 280 50 155 148 335 269 400 269 195 0 137 -241 -92 -384 -152 -95 -181 -163 -103 -241 78 -78 249 23 607 358 570 533 861 621 707 213 -136 -357 159 -467 400 -147 183 243 458 193 359 -65 -32 -83 59 -252 210 -392 204 -189 239 -275 149 -365 -64 -64 -117 -198 -117 -297 0 -111 -74 -180 -194 -180 -165 0 -185 51 -137 349 90 555 -331 878 -623 479 -112 -154 -154 -157 -392 -30 -280 150 -548 69 -635 -191 -30 -91 21 -108 175 -59 199 63 207 52 91 -135 -171 -274 -56 -363 231 -178 129 82 414 182 634 222 392 70 397 67 225 -126 -96 -108 -175 -254 -175 -323 0 -86 -135 -117 -425 -98 -234 15 -549 -33 -700 -107 -288 -141 -526 -58 -276 97 123 76 120 139 -26 444 -198 415 -510 472 -850 156 -118 -110 -262 -200 -319 -200 -133 0 -135 169 -4 250 153 95 115 374 -87 638 -170 220 -204 227 -470 100 -275 -132 -327 -367 -68 -308 258 59 113 -161 -188 -286 -275 -113 -329 -108 -439 42 -131 178 -465 167 -996 -35 -181 -69 -316 -63 -450 21 -155 97 -226 87 -379 -51 -242 -219 -288 -215 -352 29 -74 284 -453 260 -566 -36 -109 -287 -491 -417 -576 -196 -32 84 4 191 81 238 76 47 148 207 160 355 36 477 100 559 323 420 256 -160 334 -71 347 392 10 360 25 376 335 362 283 -13 325 18 325 232 0 135 49 338 110 451 92 172 172 195 500 142 334 -53 390 -36 390 120 0 192 344 620 498 620 50 0 115 -40 145 -88z m-9683 -285 c-33 -33 -56 26 -52 131 5 117 28 141 60 61 29 -72 26 -159 -8 -192z m11240 134 c0 -142 -288 -306 -379 -216 -63 64 175 355 291 355 49 0 88 -63 88 -139z m3145 -333 c33 -86 38 -178 12 -204 -64 -65 -357 235 -357 366 0 151 274 22 345 -162z m-2547 -53 c0 -69 -42 -190 -93 -270 -155 -245 -1 -325 279 -145 263 169 264 169 91 -27 -167 -190 -235 -433 -121 -433 29 0 166 74 305 165 188 123 280 136 365 51 86 -86 43 -190 -173 -415 -367 -383 -772 -405 -933 -51 -62 138 -181 250 -262 250 -82 0 -198 91 -257 203 -60 111 -149 178 -197 148 -192 -119 -185 134 9 309 196 177 214 178 334 14 193 -264 455 -220 455 76 0 138 45 250 100 250 55 0 99 -56 98 -125z m-3952 -68 c100 -162 -118 -211 -247 -56 -100 121 -94 149 33 149 86 0 182 -42 214 -93z m10813 -157 c-84 -335 162 -335 382 0 160 245 459 345 459 153 0 -53 -76 -255 -168 -448 -198 -415 -116 -562 168 -305 242 219 358 145 208 -135 -162 -302 -136 -337 192 -265 189 41 300 26 300 -42 0 -172 -372 -497 -647 -566 -139 -35 -253 -131 -253 -214 0 -92 58 -127 150 -92 102 39 150 -5 150 -139 0 -143 68 -197 250 -197 280 0 349 -194 75 -211 -96 -7 -490 -12 -875 -12 -712 0 -1103 -110 -997 -282 37 -59 137 -54 264 14 148 79 235 79 314 0 60 -60 89 -112 64 -116 -25 -3 -202 -25 -395 -48 -192 -24 -449 -66 -571 -95 -154 -36 -254 9 -329 149 -63 118 -209 201 -354 201 -285 0 -338 257 -71 343 186 60 525 582 525 808 0 169 493 565 612 492 146 -91 104 -187 -262 -586 -383 -418 -401 -475 -244 -768 78 -145 165 -181 325 -132 414 126 588 360 523 704 -54 288 -30 328 260 429 351 122 488 72 304 -112 -154 -154 -151 -279 7 -275 188 5 501 485 432 664 -59 156 -210 151 -832 -26 -180 -51 -225 -24 -225 137 0 110 -67 226 -149 258 -197 76 -150 449 92 736 254 300 394 290 316 -22z m-1679 -45 c-148 -237 -41 -380 159 -214 84 70 167 80 201 25 77 -125 -81 -238 -756 -542 -529 -238 -569 -243 -613 -73 -26 100 -151 197 -278 216 -216 31 -220 43 -62 201 93 92 169 244 169 338 0 136 66 160 325 120 179 -28 415 -15 525 30 367 147 466 117 330 -101z m-16380 -105 c0 -55 -45 -100 -100 -100 -55 0 -100 45 -100 100 0 55 45 100 100 100 55 0 100 -45 100 -100z m5461 -673 c228 -785 30 -903 -246 -147 -118 325 -215 670 -215 768 0 345 296 -53 461 -621z m7697 417 c-87 -87 -158 -200 -158 -251 0 -196 275 -79 600 257 408 421 715 491 463 105 -188 -286 -85 -389 293 -295 249 63 258 54 147 -155 -90 -168 -178 -208 -355 -163 -269 67 -444 -120 -236 -252 217 -137 622 -105 872 70 362 253 384 70 35 -290 -300 -310 -307 -335 -139 -480 99 -84 256 -182 349 -218 94 -36 171 -135 171 -219 0 -190 -93 -190 -344 0 -107 81 -298 147 -425 147 -127 0 -231 45 -231 100 0 55 -67 100 -150 100 -88 0 -151 92 -152 225 -2 299 -101 441 -400 569 -136 58 -316 145 -398 194 -82 49 -274 147 -425 217 -304 142 -364 295 -116 295 88 0 278 93 423 207 290 228 434 95 176 -163z m-7160 -125 c1 -72 -43 -103 -98 -69 -55 34 -99 160 -98 281 1 178 19 191 98 69 53 -82 98 -209 98 -281z m-6498 81 c85 -160 76 -200 -46 -200 -85 0 -154 19 -154 42 0 23 -27 113 -61 200 -88 230 135 194 261 -42z m3225 -148 c151 -133 275 -286 275 -340 0 -53 115 -234 256 -401 141 -167 292 -430 336 -583 85 -297 -22 -728 -181 -728 -90 0 -321 623 -455 1228 -33 152 -223 456 -420 675 -392 434 -256 541 189 149z m-2698 -274 c-94 -203 -114 -209 -177 -53 -102 251 23 542 170 395 82 -82 84 -177 7 -342z m17273 330 c0 -186 -523 -708 -709 -708 -339 0 -230 326 209 621 279 188 500 226 500 87z m-16500 -980 c0 -89 -30 -132 -66 -96 -36 37 -125 17 -198 -44 -103 -85 -156 -49 -234 158 -121 317 -129 494 -28 595 96 96 526 -404 526 -613z m1198 -132 c1 -84 87 -321 192 -525 205 -403 139 -525 -233 -432 -179 45 -246 151 -297 470 -47 292 -123 426 -263 463 -244 64 -245 57 28 366 l225 255 173 -221 c95 -122 174 -291 175 -376z m13898 298 c-246 -345 -211 -463 89 -302 111 59 297 108 413 108 177 0 128 -84 -293 -505 -524 -523 -611 -695 -355 -695 83 0 150 -45 150 -100 0 -55 -45 -100 -100 -100 -55 0 -100 -67 -100 -150 0 -187 94 -186 344 3 244 185 456 189 456 9 0 -259 -256 -364 -727 -300 -331 46 -443 101 -404 201 67 175 32 172 -367 -27 -180 -90 -350 -247 -377 -350 -51 -198 -117 -221 -361 -128 -83 32 -127 122 -97 200 78 204 -140 175 -538 -71 -199 -123 -381 -175 -432 -124 -155 155 41 321 807 680 628 295 699 351 446 355 -231 4 -266 27 -150 102 184 119 214 120 388 9 116 -73 112 -125 -25 -320 -203 -290 -206 -389 -12 -389 84 0 238 146 343 325 106 179 293 424 416 544 180 177 200 248 103 366 -67 80 -232 173 -367 207 -217 54 -231 85 -121 261 69 110 188 175 265 146 77 -30 225 37 329 148 104 112 258 203 342 203 123 0 110 -60 -65 -306z m-17771 67 c96 -73 175 -220 175 -327 0 -107 54 -248 120 -314 66 -66 77 -119 25 -119 -52 1 -197 158 -321 350 -124 192 -293 349 -375 349 -82 0 -149 45 -149 100 0 142 318 118 525 -39z m6639 -270 c164 -189 230 -838 86 -847 -106 -7 -344 770 -338 1106 3 141 20 156 59 50 30 -82 117 -222 193 -309z m15186 309 c-34 -55 -82 -100 -106 -100 -24 0 -44 45 -44 100 0 55 48 100 106 100 58 0 78 -45 44 -100z m-17225 -858 c108 -108 93 -342 -22 -342 -122 0 -399 914 -319 1050 33 55 106 -65 163 -267 56 -202 137 -400 178 -441z m-2827 277 c-1 -146 -14 -148 -98 -19 -127 196 -127 328 0 250 55 -34 99 -138 98 -231z m19703 32 c-68 -82 -164 -124 -214 -93 -128 79 -6 242 181 242 127 0 133 -28 33 -149z m-2101 -301 c-68 -82 -198 -149 -287 -147 -137 3 -132 27 31 150 253 191 416 189 256 -3z m2700 -433 c0 -46 -30 -114 -67 -150 -103 -103 -134 -604 -41 -664 108 -69 -55 -503 -189 -503 -57 0 -103 50 -103 111 0 72 -118 89 -337 48 -316 -59 -333 -48 -288 186 26 137 110 301 186 364 76 64 139 189 139 280 0 90 101 214 225 275 282 140 475 161 475 53z m-8974 -167 c-20 -192 -313 -303 -447 -169 -103 103 -99 146 22 223 181 116 439 84 425 -54z m7616 -11 c236 -90 191 -328 -86 -454 -255 -116 -556 -60 -556 105 0 118 284 410 399 410 47 0 156 -27 243 -61z m-1097 -531 c102 -166 -530 -534 -799 -466 -135 34 -246 106 -246 160 0 54 -11 132 -25 173 -21 63 314 142 894 211 66 8 145 -28 176 -78z m3055 -58 c135 -163 103 -183 -142 -89 -87 33 -158 101 -158 150 0 138 162 105 300 -61z m-8461 -107 c40 -104 127 -135 261 -93 140 44 200 18 200 -87 0 -209 -168 -293 -445 -223 -240 60 -399 308 -299 469 85 139 216 109 283 -66z m3561 -354 c0 -49 75 -89 167 -89 91 0 138 -28 104 -63 -35 -34 -354 -68 -710 -75 -602 -11 -636 0 -494 157 228 252 933 305 933 70z m2800 17 c237 -70 229 -80 -147 -188 -401 -115 -637 -35 -508 173 74 121 280 126 655 15z m2662 -121 c62 -49 186 -60 275 -26 194 74 212 -59 38 -277 -200 -250 -558 -290 -705 -80 -71 101 -251 214 -399 252 -269 67 -331 152 -206 278 83 83 848 -30 997 -147z m-7225 -291 c308 -165 497 -195 949 -150 542 53 546 32 28 -160 -189 -70 -213 -115 -118 -229 93 -112 75 -163 -83 -248 -287 -153 -590 -144 -433 13 155 155 155 308 -1 256 -67 -22 -225 72 -352 208 -207 224 -264 238 -579 142 -191 -59 -333 -78 -314 -42 20 36 63 145 97 241 83 231 336 221 806 -31z m3463 8 c128 -81 121 -115 -50 -244 -196 -147 -506 -123 -695 53 -52 49 -187 94 -300 101 -143 8 -114 35 95 88 432 110 778 111 950 2z m1741 -153 c-35 -139 -16 -309 42 -379 59 -70 69 -185 24 -259 -63 -102 -113 -86 -224 72 -146 209 -597 237 -1022 63 -264 -109 -164 170 111 308 114 57 268 154 342 215 117 96 240 134 713 217 42 8 48 -99 14 -237z m-3133 -418 c273 72 237 -97 -62 -293 -204 -133 -303 -144 -500 -54 -322 146 -311 329 29 521 257 145 277 143 308 -34 23 -132 92 -175 225 -140z m-7459 67 c-35 -56 -105 -75 -156 -44 -139 86 -113 146 63 146 86 0 128 -46 93 -102z m12218 -88 c65 -5 259 -152 432 -325 365 -364 263 -521 -274 -422 -407 74 -429 -93 -64 -474 222 -232 247 -316 167 -556 -84 -252 -147 -286 -583 -314 -270 -18 -536 -70 -593 -117 -57 -47 -562 -67 -1122 -43 -750 32 -1040 10 -1099 -83 -45 -69 -258 -216 -474 -326 -216 -110 -457 -265 -537 -344 -126 -126 -122 -153 30 -206 151 -53 138 -85 -94 -237 -327 -214 -551 -173 -319 59 255 255 194 378 -187 378 -192 0 -350 39 -350 88 0 130 258 320 334 245 61 -61 627 76 1141 275 321 125 278 292 -75 292 -165 0 -300 -38 -300 -84 0 -46 -111 -134 -246 -196 -349 -159 -452 53 -143 294 335 262 610 317 1015 205 194 -53 410 -59 486 -12 75 47 240 59 367 27 158 -40 277 1 374 129 139 180 146 179 207 -38 37 -131 142 -225 252 -225 103 0 221 -11 262 -25 40 -14 87 49 105 139 19 98 -104 247 -311 375 -401 247 -668 272 -668 61 0 -82 -34 -149 -75 -148 -151 3 -375 194 -375 319 0 71 -101 173 -225 228 -124 54 -225 157 -225 230 0 72 -132 186 -294 254 -205 86 -270 164 -213 256 116 187 716 51 641 -145 -32 -83 23 -170 131 -208 102 -36 288 -158 413 -271 243 -219 673 -325 758 -187 29 46 -103 166 -292 268 -363 196 -418 296 -228 414 66 40 193 -23 291 -144 96 -119 247 -216 335 -216 89 0 244 -52 346 -116 258 -161 509 -45 444 203 -43 164 11 212 297 266 193 36 436 19 541 -37 114 -61 248 -66 334 -14 237 147 -556 431 -888 319 -270 -92 -816 26 -816 175 0 62 721 69 1367 14z m-12822 -99 c-154 -143 -545 -234 -545 -126 0 116 173 196 445 207 118 5 157 -27 100 -81z m5875 -131 c-64 -64 -150 -83 -190 -43 -41 41 -9 114 70 163 187 115 271 31 120 -120z m2800 -300 c-66 -66 -120 -196 -120 -289 0 -206 -294 -337 -437 -194 -57 57 -186 103 -287 103 -177 0 -177 7 -5 190 161 172 396 256 824 296 113 11 118 -13 25 -106z m-1275 -314 c165 -121 167 -140 19 -197 -90 -34 -164 -19 -164 34 0 53 -93 97 -206 97 -113 0 -178 45 -144 100 85 138 278 125 495 -34z m1855 -66 c0 -55 -67 -100 -150 -100 -82 0 -150 45 -150 100 0 55 68 100 150 100 83 0 150 -45 150 -100z m-2100 -300 c0 -55 -48 -100 -106 -100 -58 0 -78 45 -44 100 34 55 82 100 106 100 24 0 44 -45 44 -100z m2124 -88 c170 95 677 21 674 -98 -5 -240 -171 -307 -474 -192 -274 103 -371 90 -725 -99 -358 -191 -415 -198 -468 -60 -47 123 -148 144 -453 95 -503 -80 -417 66 142 242 236 74 470 170 520 212 49 43 208 17 353 -58 177 -92 318 -106 431 -42z m-12821 -618 c178 -332 63 -418 -123 -92 -94 164 -129 298 -79 298 51 0 141 -92 202 -206z m-1040 -494 c115 -564 42 -667 -124 -175 -60 179 -143 404 -185 500 -52 120 -31 175 66 175 88 0 178 -185 243 -500z m-932 -225 c31 -206 16 -375 -33 -375 -112 0 -310 699 -233 824 91 148 204 -42 266 -449z m465 132 c139 -259 131 -433 -16 -384 -141 47 -302 577 -175 577 48 0 135 -87 191 -193z m-1875 -371 c-15 -162 86 -553 225 -868 140 -316 254 -634 254 -707 0 -74 90 -248 200 -388 234 -298 248 -373 69 -373 -162 0 -469 620 -469 947 0 133 -42 267 -93 299 -103 64 -407 1036 -407 1303 0 92 56 148 125 124 72 -24 113 -169 96 -337z m18379 235 c0 -147 -668 -871 -804 -871 -41 0 -101 70 -134 156 -42 109 30 187 247 262 203 71 273 140 206 207 -66 66 -333 28 -798 -113 -832 -253 -817 -252 -817 -62 0 82 88 150 196 150 109 0 241 82 294 181 81 152 221 181 853 175 416 -3 757 -42 757 -85z m-3800 -65 c0 -118 -195 -244 -267 -173 -71 72 55 267 173 267 52 0 94 -42 94 -94z m-16143 -431 c19 -206 19 -375 2 -375 -18 0 -154 183 -302 407 l-269 407 268 -32 c230 -27 273 -85 301 -407z m4478 178 c31 -81 13 -173 -39 -206 -53 -32 -96 34 -96 147 0 242 56 266 135 59z m-3935 -377 c0 -56 -66 -45 -150 24 -82 68 -150 169 -150 224 0 56 66 45 150 -24 83 -68 150 -169 150 -224z m17200 224 c0 -55 -70 -100 -156 -100 -86 0 -128 45 -94 100 34 55 104 100 156 100 52 0 94 -45 94 -100z m1100 -167 c0 -146 -341 -433 -515 -433 -260 0 -231 288 40 397 275 111 475 126 475 36z m-15700 -376 c0 -134 -47 -367 -104 -517 -77 -204 -132 -244 -218 -158 -85 85 -83 172 11 347 68 127 116 275 106 327 -32 164 2 244 105 244 55 0 100 -110 100 -243z m-3900 -7 c102 -123 95 -150 -38 -150 -227 0 -202 -194 63 -482 207 -226 209 -237 22 -140 -244 127 -747 617 -747 729 0 43 101 99 225 122 124 24 253 50 288 57 34 8 119 -54 187 -136z m18550 50 c-34 -55 -127 -100 -206 -100 -79 0 -144 -50 -144 -111 0 -68 96 -87 250 -48 138 35 250 22 250 -27 0 -128 -443 -230 -483 -111 -19 53 -97 97 -175 97 -266 0 -143 194 183 288 179 52 339 98 356 103 17 5 3 -36 -31 -91z m-17216 -425 l184 -322 -218 197 c-282 256 -455 565 -277 496 70 -27 210 -194 311 -371z m3241 64 c236 -370 297 -739 123 -739 -57 0 -129 132 -162 294 -32 161 -121 317 -197 346 -142 55 -199 463 -64 456 41 -3 176 -163 300 -357z m12425 205 c0 -24 -45 -44 -100 -44 -55 0 -100 48 -100 106 0 58 45 78 100 44 55 -34 100 -82 100 -106z m-15000 -359 c0 -47 90 -175 200 -285 235 -235 275 -800 56 -800 -79 0 -172 45 -206 100 -34 55 -14 100 44 100 178 0 120 193 -194 650 -347 505 -401 772 -100 500 110 -100 200 -219 200 -265z m14800 -97 c0 -174 -178 -83 -230 118 -45 169 -29 184 88 87 78 -64 142 -157 142 -205z m859 -38 c-248 -230 -459 -322 -459 -200 0 131 371 434 540 442 162 7 151 -27 -81 -242z m1541 104 c0 -86 -165 -191 -399 -254 -234 -63 -594 -292 -871 -553 -260 -246 -538 -447 -617 -447 -113 0 -105 43 38 201 208 230 130 391 -99 201 -86 -72 -152 -83 -152 -25 0 143 243 219 491 154 175 -45 206 -14 185 181 -22 200 41 255 424 367 248 73 518 172 600 221 230 135 400 116 400 -46z m-18020 -374 c164 -164 151 -286 -22 -219 -155 59 -299 339 -175 339 42 0 131 -54 197 -120z m-1242 -403 c353 -246 458 -372 460 -552 3 -227 -254 -130 -598 225 -187 193 -418 350 -514 350 -200 0 -325 155 -238 296 74 120 460 -19 890 -319z m4260 42 c-1 -146 -14 -148 -98 -19 -127 196 -127 328 0 250 55 -34 99 -138 98 -231z m12200 -256 c-1 -239 -24 -277 -98 -163 -78 121 -97 107 -98 -75 -1 -124 -40 -225 -86 -225 -96 0 -144 773 -57 915 109 176 341 -133 339 -452z m1937 -19 c-289 -289 -407 -266 -240 47 62 115 198 209 304 209 173 0 166 -26 -64 -256z m-16964 -161 c219 -90 241 -123 104 -156 -96 -23 -175 -79 -175 -125 0 -209 453 -903 594 -908 163 -7 856 -877 768 -965 -109 -110 -2062 2060 -2062 2291 0 109 306 54 771 -137z m2613 -431 c5 -249 -35 -452 -88 -452 -53 0 -96 228 -96 506 0 623 171 573 184 -54z m12161 -312 c74 -395 -3 -569 -149 -337 -119 188 -124 697 -7 697 49 0 119 -162 156 -360z m-14049 67 c165 -308 121 -357 -96 -107 -226 261 -240 300 -104 300 54 0 144 -87 200 -193z m14375 -432 c-24 -124 -44 -22 -44 225 0 248 20 349 44 225 23 -124 23 -326 0 -450z m-15529 161 c95 -249 -10 -282 -137 -45 -62 115 -70 209 -19 209 51 0 121 -74 156 -164z m-696 -243 c-86 -139 -146 -113 -146 63 0 86 46 128 102 93 56 -35 75 -105 44 -156z m-746 -99 c0 -58 -45 -78 -100 -44 -55 34 -100 82 -100 106 0 24 45 44 100 44 55 0 100 -48 100 -106z m4954 -401 c116 -225 129 -342 50 -438 -74 -89 -77 -213 -10 -389 60 -159 62 -281 5 -317 -51 -31 -119 68 -151 222 -31 153 -102 449 -157 656 -88 333 -62 573 62 573 23 0 113 -138 201 -307z m-1154 -799 c0 -52 -45 -94 -100 -94 -55 0 -100 70 -100 156 0 86 45 128 100 94 55 -34 100 -104 100 -156z m12699 -946 c-118 -191 -233 -348 -255 -348 -90 0 101 666 247 866 151 205 161 206 191 23 18 -106 -65 -349 -183 -541z m6920 584 c-72 -29 -159 -26 -192 8 -33 33 26 56 131 52 117 -5 141 -28 61 -60z m-4651 -487 c-268 -235 -468 -250 -468 -36 0 107 362 276 600 282 96 2 49 -86 -132 -246z m2638 97 c97 -116 225 -140 488 -92 196 36 399 107 451 158 52 51 165 89 250 85 105 -4 84 -41 -64 -112 -174 -84 -216 -186 -204 -488 10 -243 71 -400 169 -434 85 -29 231 -109 324 -178 235 -171 306 -62 179 272 -134 352 -5 450 492 375 514 -77 602 -206 229 -336 -177 -62 -374 -229 -445 -376 -159 -334 -566 -396 -1079 -164 -420 189 -705 105 -904 -268 -173 -323 -289 -48 -290 691 -1 391 -44 625 -113 625 -75 0 -99 -229 -72 -700 25 -440 1 -701 -64 -701 -57 -1 -204 -29 -328 -62 -181 -49 -225 -19 -225 151 0 117 46 212 101 212 61 0 78 150 43 375 -83 530 64 841 465 987 450 162 446 162 597 -20z m-3236 -1857 c15 -860 -11 -1184 -86 -1109 -61 61 -105 523 -103 1090 4 1234 4 1234 94 1234 41 0 84 -547 95 -1215z m461 -478 c34 -1114 18 -1491 -58 -1355 -118 210 -214 2705 -114 2945 101 242 122 52 172 -1590z m-11293 506 c161 -178 157 -184 -84 -138 -253 48 -314 132 -187 258 88 89 78 93 271 -120z m11762 -269 c0 -278 -39 -432 -100 -394 -55 34 -100 239 -100 456 0 217 45 394 100 394 55 0 100 -205 100 -456z m-2739 198 c-34 -87 -61 -209 -61 -270 0 -77 -32 -80 -103 -9 -118 118 -27 437 124 437 55 0 73 -71 40 -158z m-7761 -345 c0 -135 -68 -122 -354 65 -348 228 -306 374 54 188 165 -85 300 -199 300 -253z m-700 -132 c246 -42 703 -380 643 -476 -68 -111 -1343 -119 -1343 -9 0 44 54 134 120 200 93 93 93 120 0 120 -66 0 -120 73 -120 162 0 125 61 147 275 95 151 -37 343 -78 425 -92z m8966 -390 c-28 -69 -50 -12 -50 125 0 138 22 194 50 125 28 -69 28 -181 0 -250z m-4166 75 c0 -93 -94 -150 -250 -150 -137 0 -250 -43 -250 -96 0 -151 -408 -336 -512 -232 -109 109 273 486 562 556 364 88 450 74 450 -78z m3400 -100 c0 -82 -45 -150 -100 -150 -55 0 -100 68 -100 150 0 83 45 150 100 150 55 0 100 -67 100 -150z m3300 -620 c0 -201 -29 -241 -113 -157 -63 63 -86 184 -53 270 91 239 166 188 166 -113z m-1234 -255 c-28 -69 -50 -12 -50 125 0 138 22 194 50 125 28 -69 28 -181 0 -250z m-643 -769 c4 -446 -17 -833 -45 -861 -71 -72 -164 1337 -103 1571 92 351 143 109 148 -710z m-1489 573 c67 -253 26 -328 -127 -233 -129 79 -144 454 -19 454 49 0 115 -99 146 -221z m2380 -1160 c12 -910 -45 -1173 -231 -1059 -62 39 -74 189 -29 377 41 172 67 673 58 1113 -11 583 12 755 87 633 56 -92 108 -571 115 -1064z m824 569 c92 -463 75 -1688 -24 -1688 -82 0 -212 1014 -213 1675 -1 414 155 422 237 13z m4620 -1163 c-109 -109 -150 33 -81 279 l69 246 35 -234 c19 -128 9 -259 -23 -291z m-5412 -1700 c-71 -783 -101 -903 -201 -803 -92 92 75 1578 177 1578 58 0 67 -304 24 -775z m1179 -754 c96 -36 175 -156 175 -268 0 -262 -203 -264 -271 -3 -29 110 -115 200 -191 200 -147 0 -183 122 -70 235 38 37 94 30 125 -16 31 -46 136 -113 232 -148z"/>
<path d="M10829 21931 c-36 -94 -13 -186 52 -208 86 -29 89 -93 10 -240 -91 -169 -79 -195 71 -166 99 19 208 146 243 284 101 398 -236 695 -376 330z"/>
<path d="M10225 21434 c-176 -71 -156 -334 25 -334 100 0 150 -100 150 -300 0 -165 45 -300 100 -300 55 0 100 -67 100 -150 0 -185 94 -186 335 -3 198 150 146 353 -91 353 -86 0 -144 98 -144 242 0 486 -137 628 -475 492z"/>
<path d="M9416 20702 c-75 -214 -72 -317 9 -367 62 -39 131 -17 152 47 22 65 126 118 231 118 249 0 248 263 -1 396 -268 144 -275 141 -391 -194z"/>
<path d="M11348 20593 c-85 -388 -12 -461 297 -296 296 159 408 407 233 518 -266 169 -462 87 -530 -222z"/>
<path d="M18120 21780 c-245 -245 -137 -373 180 -215 165 82 300 191 300 242 0 134 -339 114 -480 -27z"/>
<path d="M22771 16438 c-83 -83 306 -838 431 -838 175 0 104 456 -106 681 -225 241 -235 246 -325 157z"/>
<path d="M22000 16163 c0 -202 772 -689 862 -543 42 68 -68 232 -266 398 -367 306 -596 362 -596 145z"/>
<path d="M22102 24681 c-1 -203 43 -397 98 -431 129 -80 129 450 0 650 -72 112 -97 56 -98 -219z"/>
<path d="M23539 24842 c34 -87 61 -720 61 -1406 0 -806 35 -1226 100 -1186 110 68 135 1773 36 2375 -34 206 -106 375 -160 375 -53 0 -70 -71 -37 -158z"/>
<path d="M24156 23250 c7 -1527 -12 -1750 -149 -1750 -86 -1 -320 -147 -519 -325 -199 -179 -458 -403 -575 -499 -117 -96 -213 -211 -213 -256 0 -157 584 -642 692 -575 170 105 127 236 -102 308 -441 140 -14 231 510 108 l550 -128 -300 -136 c-340 -154 -650 -393 -650 -501 0 -83 712 -46 1125 58 177 45 275 30 275 -42 0 -62 48 -112 106 -112 61 0 93 158 75 375 -25 304 -75 381 -262 408 -187 26 -208 59 -113 175 65 78 180 142 256 142 108 0 138 211 138 961 0 867 -30 1023 -309 1608 -170 355 -282 673 -250 705 32 32 171 7 309 -56 l250 -114 0 578 c0 655 -109 818 -546 818 l-306 0 8 -1750z m644 -2266 c0 -53 -44 -69 -98 -35 -54 33 -279 6 -501 -60 -429 -129 -597 -75 -423 135 123 148 1022 113 1022 -40z"/>
<path d="M24300 15686 c0 -154 309 -379 525 -383 270 -5 207 175 -120 344 -353 183 -405 188 -405 39z"/>
<path d="M8559 15050 c-106 -163 -123 -250 -47 -250 118 0 379 288 385 425 7 161 -182 63 -338 -175z"/>
<path d="M15600 15062 c0 -83 45 -178 100 -212 55 -34 100 6 100 88 0 83 -45 178 -100 212 -55 34 -100 -6 -100 -88z"/>
<path d="M22806 14782 c-210 -77 -355 -267 -268 -353 31 -32 127 0 212 71 321 267 242 12 -104 -334 -451 -451 -434 -716 47 -716 187 0 359 56 382 125 24 73 -44 125 -167 125 -233 0 -277 218 -78 384 212 176 570 26 570 -240 0 -291 43 -316 681 -401 445 -59 519 -45 519 97 0 182 -64 213 -637 309 -375 63 -381 70 -178 212 116 81 335 134 488 118 243 -25 273 1 245 221 -18 138 -103 305 -190 372 -163 126 -1187 133 -1522 10z m1049 -291 c37 -60 16 -160 -48 -224 -87 -87 -138 -79 -210 34 -52 82 -95 183 -95 224 -3 116 278 89 353 -34z"/>
<path d="M15700 14206 c0 -58 45 -106 100 -106 55 0 100 20 100 44 0 24 -45 72 -100 106 -55 34 -100 14 -100 -44z"/>
<path d="M24625 13875 c63 -189 375 -216 375 -32 0 92 -85 157 -208 157 -123 0 -191 -52 -167 -125z"/>
<path d="M7967 13533 c-104 -103 -79 -614 33 -683 60 -37 100 99 100 344 0 415 -16 456 -133 339z"/>
<path d="M21367 13233 c-153 -153 -47 -244 250 -214 414 41 506 281 108 281 -160 0 -322 -30 -358 -67z"/>
<path d="M23728 13097 c-49 -189 -69 -193 -287 -50 -129 84 -292 152 -362 150 -170 -5 -579 -349 -579 -488 0 -149 70 -138 417 66 284 167 304 167 426 0 158 -214 443 -228 521 -25 31 82 146 150 255 150 257 0 186 207 -108 316 -186 68 -240 46 -283 -119z"/>
<path d="M15900 12956 c0 -79 45 -172 100 -206 55 -34 100 31 100 144 0 113 -45 206 -100 206 -55 0 -100 -65 -100 -144z"/>
<path d="M21343 12421 c-183 -96 -232 -166 -151 -216 136 -84 1008 90 1008 200 0 144 -592 155 -857 16z"/>
<path d="M15158 12213 c-43 -69 -51 -153 -18 -186 89 -90 187 42 139 187 -34 101 -58 101 -121 -1z"/>
<path d="M20369 12228 c-307 -46 -472 -303 -274 -425 83 -51 14 -115 -204 -191 -234 -82 -297 -146 -221 -222 170 -170 565 -61 690 192 64 128 212 299 329 382 190 133 211 360 30 321 -38 -8 -195 -34 -350 -57z"/>
<path d="M12263 11747 c-69 -179 44 -439 399 -914 391 -525 644 -595 2013 -558 1130 31 1439 -31 1125 -225 -55 -34 -98 -138 -96 -231 3 -114 52 -80 153 106 157 289 331 347 510 168 75 -75 124 -61 166 49 131 341 -719 462 -2256 321 -599 -54 -838 -37 -1063 80 -298 154 -734 772 -764 1082 -24 251 -115 310 -187 122z"/>
<path d="M21100 11756 c0 -112 100 -156 358 -156 452 0 418 236 -41 281 -234 23 -317 -9 -317 -125z"/>
<path d="M7302 11650 c-90 -412 126 -1350 310 -1350 117 0 112 136 -10 258 -53 53 -138 344 -188 645 -50 301 -100 502 -112 447z"/>
<path d="M21083 11150 c-27 -28 -234 -57 -460 -66 -289 -12 -506 -99 -741 -300 -367 -313 -320 -379 83 -115 153 100 415 159 645 146 400 -24 790 119 790 289 0 100 -229 133 -317 46z"/>
<path d="M8000 10844 c0 -238 253 -624 347 -530 35 35 -28 215 -141 400 -165 270 -205 296 -206 130z"/>
<path d="M22141 10562 c-84 -217 -25 -276 161 -161 114 71 120 117 25 212 -94 94 -135 83 -186 -51z"/>
<path d="M0 10122 c0 -142 344 -374 825 -557 685 -262 819 -147 147 126 -310 126 -616 292 -680 369 -126 152 -292 187 -292 62z"/>
<path d="M22814 9811 c-99 -63 -104 -105 -20 -157 143 -89 406 4 406 143 0 125 -200 132 -386 14z"/>
<path d="M0 9564 c0 -135 2182 -1015 2278 -919 28 28 -35 78 -139 111 -104 34 -409 148 -677 253 -269 105 -535 191 -592 191 -58 0 -175 62 -262 138 -167 146 -608 310 -608 226z"/>
<path d="M8000 9368 c0 -86 101 -262 225 -391 124 -129 191 -190 150 -135 -41 54 -75 173 -75 266 0 92 -67 224 -150 292 -122 102 -150 96 -150 -32z"/>
<path d="M13898 9348 c-193 -233 -55 -277 151 -49 100 111 136 201 79 201 -57 0 -160 -69 -230 -152z"/>
<path d="M14756 9347 c-156 -118 -163 -147 -37 -147 86 0 213 68 281 150 158 191 10 189 -244 -3z"/>
<path d="M10200 9211 c0 -49 71 -117 158 -150 245 -94 277 -74 142 89 -138 166 -300 199 -300 61z"/>
<path d="M15640 8745 c-205 -251 -485 -514 -621 -586 -142 -74 -203 -157 -143 -194 105 -65 961 733 1137 1060 163 304 13 191 -373 -280z"/>
<path d="M9200 9006 c0 -108 396 -406 540 -406 52 0 -11 113 -140 250 -243 259 -400 320 -400 156z"/>
<path d="M12767 9033 c-37 -36 -67 -113 -67 -170 0 -62 47 -56 118 15 65 65 95 142 67 170 -28 29 -82 22 -118 -15z"/>
<path d="M14769 8747 c-154 -136 -231 -247 -170 -247 61 0 223 113 360 250 322 322 177 320 -190 -3z"/>
<path d="M11136 8831 c115 -116 450 -135 515 -30 35 57 -75 99 -262 99 -177 0 -291 -31 -253 -69z"/>
<path d="M16348 8225 c-162 -316 -310 -609 -329 -650 -20 -41 3 -75 50 -75 80 0 731 1102 731 1238 0 209 -198 -16 -452 -513z"/>
<path d="M16100 8540 c0 -87 -98 -301 -217 -475 l-217 -315 317 294 c303 281 427 656 217 656 -55 0 -100 -72 -100 -160z"/>
<path d="M13300 8500 c0 -55 90 -100 200 -100 110 0 200 45 200 100 0 55 -90 100 -200 100 -110 0 -200 -45 -200 -100z"/>
<path d="M10350 8300 c34 -55 183 -99 331 -98 210 1 236 22 119 98 -198 128 -529 128 -450 0z"/>
<path d="M9100 8229 c0 -52 217 -191 482 -311 535 -242 618 -259 618 -129 0 76 -191 171 -975 483 -69 27 -125 8 -125 -43z"/>
<path d="M13450 8000 c-193 -83 -192 -86 19 -93 121 -4 247 38 281 93 73 118 -25 118 -300 0z"/>
<path d="M57 7912 c-59 -96 267 -168 563 -126 38 6 511 -56 1050 -137 996 -150 1604 -190 1513 -98 -44 43 -682 143 -2645 415 -254 35 -438 14 -481 -54z"/>
<path d="M12950 7900 c-34 -55 -14 -100 44 -100 58 0 106 45 106 100 0 55 -20 100 -44 100 -24 0 -72 -45 -106 -100z"/>
<path d="M13900 7650 c-157 -90 -545 -144 -1042 -146 -968 -5 -965 -94 4 -114 535 -11 792 34 1094 193 217 115 349 209 294 209 -55 1 -212 -63 -350 -142z"/>
<path d="M14650 7496 c-275 -162 -442 -295 -371 -295 200 -1 921 391 921 501 0 125 34 138 -550 -206z"/>
<path d="M9100 7600 c0 -55 68 -100 150 -100 83 0 150 45 150 100 0 55 -67 100 -150 100 -82 0 -150 -45 -150 -100z"/>
<path d="M10948 7597 c-51 -83 185 -197 410 -197 78 0 142 40 142 88 0 114 -489 210 -552 109z"/>
<path d="M9500 7212 c0 -93 412 -233 481 -165 21 22 9 88 -27 146 -79 129 -454 144 -454 19z"/>
<path d="M14400 7094 c-418 -220 -239 -255 253 -49 191 80 347 118 347 86 0 -108 -347 -325 -525 -328 -96 -2 -175 -53 -175 -114 0 -180 525 -2 775 263 124 132 225 254 225 272 0 112 -606 24 -900 -130z"/>
<path d="M15700 7225 c0 -41 -198 -200 -440 -353 -513 -324 -892 -706 -459 -463 419 236 1091 736 1095 816 2 41 -41 75 -96 75 -55 0 -100 -34 -100 -75z"/>
<path d="M0 7075 c0 -41 515 -75 1144 -75 629 0 1165 34 1191 75 25 41 -490 75 -1144 75 -655 0 -1191 -34 -1191 -75z"/>
<path d="M10350 6900 c34 -55 129 -100 212 -100 82 0 122 45 88 100 -34 55 -129 100 -212 100 -82 0 -122 -45 -88 -100z"/>
<path d="M11581 6886 c-104 -66 -100 -84 19 -86 83 -1 251 -30 375 -63 124 -33 225 -15 225 40 0 134 -453 214 -619 109z"/>
<path d="M12700 6900 c-346 -73 -347 -74 -50 -85 165 -7 368 32 450 85 167 108 111 108 -400 0z"/>
<path d="M0 6594 c0 -52 154 -94 342 -94 188 0 424 -26 525 -58 145 -45 152 -38 33 37 -220 137 -900 224 -900 115z"/>
<path d="M21702 6107 c-71 -217 -103 -528 -70 -691 44 -219 17 -314 -101 -359 -133 -51 -150 -176 -102 -746 32 -382 15 -727 -37 -779 -98 -98 133 -674 314 -786 207 -128 304 74 149 310 -174 265 -210 998 -54 1095 60 37 92 442 79 981 -13 505 15 1019 60 1143 50 134 45 225 -12 225 -53 0 -154 -177 -226 -393z"/>
<path d="M4100 5742 l-250 -150 250 65 c138 36 293 105 345 154 153 143 -66 99 -345 -69z"/>
<path d="M2700 5254 c-586 -233 -940 -320 -1141 -280 -205 40 -269 23 -219 -58 128 -206 591 -123 1560 282 523 218 883 395 800 395 -83 -1 -532 -153 -1000 -339z"/>
<path d="M23378 5444 c-34 -33 4 -216 84 -406 97 -233 143 -711 141 -1467 -5 -2446 -2 -2529 91 -2310 49 116 82 1048 72 2072 -14 1534 -44 1888 -172 2016 -86 86 -183 129 -216 95z"/>
<path d="M4150 5300 c-34 -55 -14 -100 44 -100 58 0 106 45 106 100 0 55 -20 100 -44 100 -24 0 -72 -45 -106 -100z"/>
<path d="M125 5131 c96 -25 254 -25 350 0 96 25 18 46 -175 46 -193 0 -271 -21 -175 -46z"/>
<path d="M4249 4999 c-34 -56 -244 -194 -465 -307 -222 -113 -381 -228 -353 -256 27 -27 226 40 441 150 410 209 734 514 546 514 -58 0 -134 -46 -169 -101z"/>
<path d="M3225 4763 c-234 -115 -425 -241 -425 -282 0 -105 291 14 698 286 419 280 307 278 -273 -4z"/>
<path d="M14344 4650 c214 -166 811 -203 902 -57 70 113 -165 179 -696 195 -374 11 -387 2 -206 -138z"/>
<path d="M700 4506 c0 -133 894 -290 1325 -233 547 71 458 177 -150 179 -289 1 -671 34 -850 72 -179 39 -325 31 -325 -18z"/>
<path d="M6537 4325 c-457 -304 -1280 -1115 -1206 -1189 43 -44 1669 1347 1669 1428 0 62 -40 42 -463 -239z"/>
<path d="M27 4440 c33 -34 120 -37 192 -8 80 32 56 55 -61 60 -105 4 -164 -19 -131 -52z"/>
<path d="M5650 4148 c-812 -541 -858 -586 -763 -733 70 -108 170 -80 500 138 227 151 413 321 413 379 0 58 98 209 217 337 279 296 240 283 -367 -121z"/>
<path d="M350 3900 c34 -55 273 -103 531 -107 493 -8 1440 -151 1269 -192 -55 -13 -415 -34 -800 -47 -881 -29 -1350 -133 -1350 -299 0 -98 104 -110 427 -49 963 179 2420 204 2864 47 237 -83 472 -126 523 -94 51 31 426 -82 832 -251 806 -335 854 -348 854 -225 0 46 -224 188 -499 316 -393 185 -475 262 -387 367 87 105 59 137 -127 146 -130 6 -293 5 -361 -4 -68 -9 -316 35 -550 99 -1143 308 -3360 510 -3226 293z"/>
<path d="M10025 2501 c-327 -199 -405 -301 -231 -301 97 0 696 491 606 496 -27 2 -196 -86 -375 -195z"/>
<path d="M22999 2650 c-60 -205 -46 -2630 15 -2517 136 251 175 954 97 1767 -45 468 -96 805 -112 750z"/>
<path d="M14879 1975 c-264 -414 -291 -475 -210 -474 45 1 183 158 307 350 124 192 186 349 136 349 -49 0 -154 -101 -233 -225z"/>
<path d="M21600 1050 c0 -578 39 -1050 86 -1050 111 0 209 1198 140 1709 -100 750 -226 383 -226 -659z"/>
<path d="M14054 1626 c-151 -150 -361 -431 -468 -625 -107 -193 -286 -497 -399 -676 -113 -179 -158 -325 -101 -325 57 0 265 281 462 625 196 344 474 771 617 950 318 396 260 423 -111 51z"/>
<path d="M13964 684 c-442 -685 -440 -862 3 -309 382 477 554 800 458 859 -41 26 -249 -221 -461 -550z"/>
<path d="M14521 725 c-106 -151 -251 -387 -323 -525 -224 -429 123 -76 387 394 260 464 223 540 -64 131z"/>
<path d="M17464 731 c-99 -99 -76 -750 24 -688 113 69 202 651 109 709 -38 23 -98 14 -133 -21z"/>
<path d="M8201 525 c8 -423 304 -692 441 -400 46 100 70 100 116 0 101 -216 329 -146 269 83 -68 260 -319 367 -432 184 -68 -110 -97 -103 -150 36 -66 170 -246 242 -244 97z"/>
<path d="M14858 213 c-43 -69 -51 -153 -18 -186 89 -90 187 42 139 187 -34 101 -58 101 -121 -1z"/>
</g>
</svg>