<svg xmlns="http://www.w3.org/2000/svg" version="1.0" width="250" height="250" viewBox="0 0 250.000000 250.000000" preserveAspectRatio="xMidYMid meet">
<metadata>
Created by potrace 1.10, written by Peter Selinger 2001-2011
</metadata>
<g transform="translate(0.000000,250.000000) scale(0.010000,-0.010000)" fill="#555555" stroke="none">
<path d="M260 24725 c62 -266 58 -268 -95 -75 -152 191 -159 182 -162 -215 -3 -373 44 -454 472 -816 261 -220 450 -427 419 -458 -31 -31 -211 75 -400 237 -410 350 -494 367 -494 102 0 -110 56 -204 125 -208 100 -6 100 -18 0 -58 -170 -69 -158 -328 19 -395 79 -31 119 -119 89 -197 -30 -77 -88 -120 -130 -94 -43 26 -82 -176 -88 -450 -11 -495 -10 -498 312 -506 507 -12 1176 -481 1609 -1127 387 -576 631 -733 310 -199 -140 233 -103 214 206 -105 368 -381 375 -383 307 -110 -39 153 -175 361 -302 462 -128 100 -258 281 -290 401 -48 184 -9 167 240 -105 163 -179 384 -490 490 -692 159 -301 195 -327 199 -145 2 121 -131 375 -296 563 -328 373 -424 692 -136 454 90 -75 269 -294 399 -488 130 -193 346 -508 481 -701 134 -192 247 -476 250 -631 3 -154 49 -254 102 -222 52 33 78 114 58 181 -21 67 -65 247 -98 400 -34 152 -139 355 -234 450 -244 244 -641 936 -575 1002 201 201 1353 -1632 1353 -2152 0 -119 45 -244 100 -278 176 -109 107 336 -150 969 -282 695 -299 770 -133 604 247 -247 652 -1598 744 -2481 59 -571 47 -621 -196 -812 -407 -320 -1056 -129 -1681 495 -266 267 -484 561 -484 655 0 93 -118 238 -263 320 -144 83 -403 420 -576 749 -333 634 -660 848 -662 433 -2 -363 411 -1488 721 -1962 154 -237 280 -487 280 -557 0 -70 160 -304 356 -520 196 -216 466 -604 598 -861 133 -257 288 -496 344 -530 55 -35 150 -155 210 -267 101 -189 86 -187 -207 30 -174 128 -340 357 -371 509 -30 151 -229 433 -442 625 -214 193 -388 394 -388 447 0 53 -128 299 -285 546 -156 247 -367 665 -469 928 -167 434 -190 456 -244 234 -35 -145 -161 -278 -306 -323 -178 -56 -147 -63 113 -27 l360 49 290 -671 c402 -927 402 -932 3 -482 -195 220 -356 459 -358 531 -5 179 -624 114 -685 -72 -34 -103 4 -121 142 -65 104 41 234 93 289 115 120 47 651 -885 647 -1134 -3 -158 -17 -156 -150 19 -81 107 -147 143 -147 81 0 -62 225 -370 500 -685 275 -314 500 -609 500 -656 0 -46 57 -84 126 -84 69 0 182 -90 251 -200 253 -405 -97 -194 -661 400 -314 330 -607 600 -650 600 -101 0 215 -439 664 -925 l347 -375 -352 0 c-219 0 -403 67 -486 175 -112 147 -133 150 -136 20 -5 -243 209 -395 556 -395 175 0 421 -83 546 -184 445 -360 17 -301 -863 119 -823 393 -1508 665 -1674 665 -37 0 -68 -266 -68 -591 l0 -592 725 -273 c987 -372 1466 -619 1851 -955 257 -225 387 -271 625 -224 206 41 299 21 299 -66 0 -185 -1013 -51 -1125 149 -47 83 -125 152 -175 152 -49 0 -199 101 -333 225 -134 124 -458 304 -719 400 -387 143 -506 152 -637 50 -143 -111 -146 -105 -24 50 123 157 111 175 -114 175 -138 0 -279 -71 -312 -158 -95 -247 -72 -340 70 -286 154 60 2302 -1028 2357 -1193 24 -73 -10 -69 -95 12 -203 191 -293 151 -293 -130 0 -140 106 -353 234 -475 730 -686 1606 -1417 1675 -1397 43 13 108 -68 143 -178 35 -111 167 -301 293 -423 251 -243 680 -902 453 -697 -286 259 -283 110 6 -301 182 -258 333 -633 384 -952 106 -674 203 -780 140 -152 -26 264 -135 653 -242 865 l-193 385 278 -217 c231 -180 298 -340 392 -935 l114 -718 11 525 c16 717 212 670 210 -50 -1 -710 -222 -1526 -356 -1317 -227 355 -342 631 -342 823 0 144 -32 177 -104 105 -160 -160 214 -926 697 -1428 230 -240 537 -598 682 -797 145 -199 316 -406 379 -461 191 -165 735 -1331 880 -1887 77 -294 115 -770 89 -1092 -30 -351 -9 -571 54 -571 119 0 242 425 179 617 -24 73 -68 313 -97 533 -70 535 -206 978 -466 1515 -119 245 -198 463 -176 485 76 77 518 -201 556 -350 26 -101 3 -93 -72 25 -179 282 -304 201 -156 -100 413 -836 541 -1250 603 -1950 53 -597 104 -775 221 -775 105 0 131 55 83 175 -37 96 -91 423 -119 725 -27 303 -75 618 -106 700 -66 172 -91 254 -185 600 -60 221 -51 233 79 100 165 -169 354 -775 442 -1418 32 -238 100 -499 150 -582 59 -96 68 26 26 336 -62 463 -55 483 148 418 153 -48 213 -25 213 83 0 228 410 321 553 125 66 -89 159 -162 208 -162 206 1 1009 -474 1310 -775 468 -467 571 -402 118 75 -210 220 -424 400 -477 400 -144 0 -711 339 -711 425 -1 41 89 75 199 75 110 0 200 41 200 91 0 116 383 18 468 -120 40 -65 1 -81 -102 -41 -271 104 -189 -73 119 -255 157 -93 467 -350 688 -572 222 -222 454 -403 515 -403 146 0 142 83 -13 244 -722 746 -1089 1175 -1045 1219 75 75 470 -150 470 -267 0 -53 178 -257 396 -454 217 -197 423 -444 456 -550 67 -209 348 -267 348 -72 0 93 27 93 120 0 131 -131 680 -167 680 -45 -1 41 -181 312 -400 602 -220 290 -400 551 -400 580 0 174 699 -523 859 -855 183 -383 211 -400 666 -401 261 0 475 44 475 99 0 55 56 100 125 101 69 0 242 61 384 136 143 74 431 167 640 206 209 39 486 141 616 226 129 85 238 138 243 118 69 -330 48 -443 -114 -617 -106 -113 -166 -231 -135 -263 32 -31 124 33 205 143 144 195 152 195 287 13 128 -173 151 -175 301 -25 191 191 394 217 283 37 -43 -69 56 -37 219 69 452 297 852 483 912 423 98 -98 -74 -267 -272 -267 -107 0 -194 -45 -194 -100 0 -124 24 -124 343 -2 222 84 257 70 257 -100 0 -184 184 -290 213 -123 69 409 35 626 -146 924 -117 192 -214 417 -215 500 -1 83 -58 140 -127 126 -69 -14 -125 61 -125 167 0 368 -116 508 -420 508 -165 0 -423 73 -574 163 -263 154 -288 151 -541 -68 -314 -274 -345 -434 -66 -345 153 48 186 27 140 -93 -33 -87 -102 -157 -153 -157 -52 0 -44 -92 17 -206 61 -113 164 -188 229 -165 143 49 466 -408 467 -662 1 -153 53 -172 326 -115 309 64 315 60 125 -89 -277 -217 -423 -201 -562 62 -160 300 -471 514 -837 575 -270 45 -307 96 -364 500 -49 349 -18 533 139 817 194 353 195 384 34 788 -93 231 -145 443 -117 471 28 29 94 -61 147 -198 98 -259 359 -421 519 -322 50 31 91 -35 91 -145 0 -280 272 -410 609 -293 204 71 353 55 583 -64 254 -131 308 -220 308 -507 0 -445 152 -445 312 0 69 190 190 371 270 401 174 67 418 -118 418 -319 0 -219 245 -95 280 142 19 128 -69 284 -231 412 -214 168 -306 187 -498 99 -139 -63 -352 -75 -519 -28 -155 43 -312 73 -348 65 -127 -25 -784 784 -796 981 -7 110 -24 245 -38 300 -14 55 -31 145 -37 200 -7 55 -74 100 -148 100 -128 0 -465 305 -465 421 0 31 101 86 225 122 l225 67 -230 94 c-126 51 -277 229 -334 394 -58 166 -146 277 -196 246 -122 -76 -115 -517 10 -594 66 -41 63 -133 -10 -269 -96 -179 -57 -259 285 -591 218 -212 474 -588 569 -837 95 -249 214 -453 264 -453 51 0 92 -45 92 -100 0 -55 -90 -100 -200 -100 -113 0 -200 67 -200 153 0 85 -135 286 -300 447 -165 161 -301 351 -303 422 -2 70 -95 238 -207 373 -173 208 -233 226 -397 124 -151 -95 -236 -94 -393 4 -236 148 -266 558 -47 642 84 32 215 177 290 321 185 352 -42 843 -366 795 -251 -37 -366 -281 -132 -281 220 0 320 -303 146 -441 -188 -151 -391 -519 -391 -712 0 -370 -575 -1234 -828 -1244 -157 -6 -6 500 208 700 175 163 220 317 220 751 0 300 -40 546 -89 546 -143 0 -218 -299 -122 -482 98 -188 -10 -558 -197 -673 -72 -45 -179 2 -261 114 -120 164 -152 169 -233 41 -52 -83 -95 -172 -95 -200 0 -93 252 -748 365 -950 62 -110 145 -418 185 -685 72 -481 71 -485 -153 -365 -124 66 -274 251 -334 410 -61 160 -145 290 -188 290 -74 0 -96 -70 -119 -392 -5 -78 -66 -160 -134 -183 -160 -53 -174 886 -17 1043 60 60 94 210 75 334 -31 211 -59 200 -458 -188 -433 -422 -607 -370 -203 60 140 149 184 262 119 306 -58 39 -109 243 -113 455 -12 513 -186 688 -324 325 -57 -150 -104 -343 -104 -429 0 -120 -31 -130 -137 -42 -85 71 -126 272 -109 537 15 241 -35 521 -116 649 -80 127 -98 225 -40 225 56 0 102 -45 102 -100 0 -55 68 -100 150 -100 178 0 185 48 42 314 -61 114 -169 178 -250 147 -189 -73 -179 -12 32 199 125 125 139 186 50 215 -68 23 -124 103 -124 179 0 88 93 50 265 -109 152 -141 385 -245 550 -245 350 0 352 41 29 425 -172 204 -222 337 -154 405 132 132 -44 470 -247 470 -82 0 -175 -67 -207 -150 -31 -82 -124 -150 -205 -150 -81 0 -215 -174 -299 -386 -105 -269 -259 -437 -504 -554 -194 -93 -329 -193 -299 -222 30 -30 145 -6 256 54 286 153 493 146 335 -12 -66 -66 -120 -196 -120 -288 0 -92 -135 -224 -300 -292 -165 -68 -300 -169 -300 -224 0 -54 111 -26 246 62 303 198 354 201 354 20 0 -78 -124 -233 -275 -345 l-275 -203 250 62 c210 53 231 40 131 -83 -76 -92 -86 -199 -30 -291 59 -95 38 -226 -59 -375 -83 -126 -125 -270 -93 -321 31 -51 61 -263 67 -472 6 -258 77 -434 220 -548 116 -93 177 -202 135 -244 -41 -42 -277 122 -523 364 -246 242 -448 393 -448 336 0 -57 109 -206 243 -331 133 -126 220 -287 193 -358 -28 -72 91 -281 263 -465 194 -206 275 -254 213 -126 -56 115 -171 267 -257 337 -85 71 -155 176 -155 233 0 57 79 34 175 -51 96 -84 276 -184 400 -222 149 -45 225 -147 225 -300 0 -266 -216 -352 -887 -354 -394 -1 -477 44 -834 449 -218 247 -435 450 -482 450 -47 0 47 -145 209 -322 319 -350 380 -532 147 -443 -81 31 -173 13 -206 -39 -87 -141 -347 -117 -347 32 0 70 -78 239 -174 375 -96 136 -180 370 -188 521 -13 247 11 268 246 209 394 -99 839 -394 1102 -731 130 -166 282 -302 337 -302 107 0 -588 815 -767 900 -58 28 -228 133 -377 234 -148 101 -312 157 -363 126 -51 -32 -147 7 -212 85 -65 79 -183 118 -261 88 -79 -30 -143 -5 -143 56 0 61 -62 111 -138 111 -202 0 -442 414 -670 1154 -112 361 -320 770 -471 925 -294 301 -689 1087 -593 1182 136 136 851 -91 1141 -362 171 -159 439 -317 596 -350 l285 -59 -300 169 c-410 232 -622 578 -325 529 69 -11 251 15 404 58 250 69 551 109 1096 143 96 6 175 79 175 161 0 84 89 150 203 150 112 0 227 61 255 135 29 74 185 139 349 143 204 6 274 -28 225 -110 -40 -65 95 38 298 229 420 394 473 486 148 259 -466 -327 -472 -136 -10 315 265 258 505 473 532 476 28 3 99 37 158 75 113 72 113 -241 0 -947 -65 -405 25 -486 210 -189 93 149 191 173 499 123 325 -52 388 -103 415 -335 33 -288 223 -360 397 -149 150 181 111 875 -49 875 -71 0 -131 101 -133 225 -2 124 -69 312 -150 419 -207 274 -187 355 197 806 l341 400 101 -250 c101 -249 101 -249 108 -19 3 127 49 204 102 172 52 -33 73 -118 45 -190 -62 -162 449 -963 615 -963 66 0 176 67 244 150 177 213 400 186 400 -50 0 -286 247 -247 387 62 100 218 96 253 -22 208 -77 -30 -192 -3 -254 59 -63 63 -260 116 -438 118 -254 2 -323 45 -323 201 0 169 75 201 520 217 349 12 558 -29 639 -126 66 -79 91 -172 56 -207 -35 -36 37 -114 160 -176 123 -61 239 -194 259 -295 20 -108 -8 -158 -67 -121 -57 35 -133 14 -170 -45 -37 -60 -129 -85 -204 -56 -174 67 -298 -124 -166 -256 66 -66 162 -65 286 1 103 56 265 125 360 155 96 29 152 111 126 182 -66 180 105 419 240 336 163 -101 135 -526 -39 -593 -227 -87 -180 -235 98 -305 152 -38 273 -157 310 -307 34 -135 150 -273 258 -307 107 -34 246 -182 308 -329 111 -263 112 -264 152 -35 42 246 -128 527 -298 491 -178 -38 -203 225 -28 292 276 106 654 -361 700 -864 53 -581 421 -976 745 -803 343 184 533 59 455 -297 -78 -356 65 -395 275 -74 171 261 76 642 -187 743 -92 35 -296 15 -453 -44 -247 -93 -306 -79 -435 106 -83 117 -150 398 -150 623 0 313 -59 462 -251 628 -274 239 -548 279 -720 107 -177 -177 -344 250 -309 789 30 467 33 472 355 439 185 -18 325 14 325 75 0 130 365 145 444 18 30 -49 -9 -114 -87 -143 -216 -83 -70 -460 205 -529 131 -33 238 -100 238 -149 0 -49 59 -89 131 -89 73 0 206 -155 297 -345 130 -273 135 -335 26 -293 -76 30 -163 117 -193 196 -30 78 -142 142 -249 142 -209 0 -658 471 -762 799 -35 111 -105 201 -157 201 -125 0 -123 -6 112 -537 183 -415 286 -510 515 -477 151 22 780 -672 780 -861 0 -231 252 -484 340 -341 32 51 -9 149 -91 217 -233 193 -182 378 89 326 294 -57 465 165 184 238 -185 49 -332 258 -459 657 -30 94 -214 238 -409 320 -384 160 -476 271 -154 187 266 -69 255 121 -17 311 l-216 152 278 106 c443 168 1034 -135 1116 -572 35 -185 126 -398 202 -475 76 -76 99 -163 51 -193 -110 -67 -514 273 -514 434 0 65 -69 251 -153 413 -112 217 -224 295 -425 295 l-272 -1 266 -224 c147 -124 336 -364 420 -534 175 -355 947 -1002 830 -696 -63 163 -51 168 107 44 97 -76 200 -162 227 -189 304 -305 2300 -830 2300 -606 0 91 -608 304 -872 305 -67 1 -101 57 -75 126 26 69 -74 181 -223 250 -389 180 -487 154 -280 -75 240 -265 129 -253 -327 38 -576 367 -923 731 -923 969 0 182 25 197 150 93 175 -145 193 -67 46 207 -145 272 53 249 248 -29 86 -122 156 -322 156 -444 0 -206 313 -411 536 -350 47 13 241 -68 430 -180 364 -215 634 -264 634 -115 0 102 -614 411 -818 411 -238 0 -582 303 -582 512 0 161 45 189 225 137 124 -36 324 -174 445 -307 265 -291 330 -302 330 -53 0 203 -733 611 -1099 611 -120 0 -201 66 -201 164 0 210 -287 429 -569 433 -121 2 -251 55 -290 118 -88 141 388 37 759 -168 307 -168 619 -318 1178 -563 254 -111 465 -285 519 -426 50 -131 140 -269 201 -307 131 -81 711 332 1202 856 299 319 408 371 750 358 347 -13 404 16 433 216 30 214 7 226 -325 164 -218 -41 -358 -28 -358 33 0 118 237 222 508 222 164 0 192 74 192 511 0 494 -8 509 -248 448 l-248 -62 248 467 c417 783 283 893 -521 432 l-320 -183 82 219 c50 136 167 219 311 220 315 3 366 227 79 342 -201 80 -174 94 192 100 412 6 425 16 423 331 -1 254 -24 292 -104 175 -85 -124 -98 -115 -76 50 15 110 -9 257 -52 326 -44 70 -15 256 66 418 95 191 151 645 160 1309 l14 1017 -266 -210 c-423 -333 -526 -244 -113 97 320 264 373 366 373 719 l0 411 -275 -256 c-467 -436 -695 -508 -1380 -434 -565 60 -700 36 -1329 -240 -736 -323 -966 -369 -1063 -212 -98 159 46 556 239 659 100 53 411 220 691 371 281 151 636 275 789 276 153 0 448 47 655 105 486 135 1146 941 1237 1511 37 227 144 449 250 515 190 119 257 368 98 368 -48 0 -144 -67 -212 -150 -68 -82 -215 -150 -325 -150 -162 0 -119 73 221 375 361 322 417 423 388 710 l-34 336 -532 -367 c-292 -202 -715 -398 -940 -436 -556 -95 -799 -441 -884 -1256 -72 -701 -289 -1087 -712 -1267 -400 -169 -889 -554 -809 -635 39 -39 -7 -41 -102 -4 -96 36 -241 10 -323 -58 -83 -68 -395 -122 -694 -119 -936 8 -1176 189 -754 571 166 150 286 550 165 550 -172 0 -781 -283 -1056 -491 -219 -165 -325 -204 -294 -108 52 160 1676 1041 1762 955 28 -28 -6 -121 -77 -206 -164 -198 -52 -318 144 -155 82 68 319 132 528 143 208 11 446 55 528 98 83 44 39 -18 -96 -137 -176 -154 -326 -200 -525 -160 -200 40 -279 16 -279 -86 0 -241 173 -266 687 -98 378 124 543 136 701 51 156 -83 258 -79 410 16 236 148 268 378 52 378 -216 0 -186 93 103 320 234 184 248 243 197 816 -42 462 -18 668 94 816 140 185 150 186 153 15 4 -236 241 -161 290 91 20 105 122 299 225 430 304 386 188 923 -119 553 -107 -129 -105 -172 13 -249 118 -77 99 -128 -106 -288 l-250 -195 -32 250 c-26 200 -72 237 -235 186 -199 -64 -199 -61 7 145 116 116 259 210 318 210 146 0 63 226 -103 282 -79 26 -105 -2 -64 -68 45 -72 12 -90 -91 -50 -212 81 -650 -335 -650 -619 0 -467 -447 -1233 -988 -1694 -627 -535 -783 -542 -252 -11 202 202 337 397 300 434 -37 36 -180 -55 -318 -204 -137 -148 -267 -270 -287 -270 -77 0 85 442 359 978 157 307 286 681 286 830 0 154 68 297 157 331 106 40 136 127 92 265 -81 254 74 450 527 665 203 97 404 293 482 473 133 304 134 305 138 48 2 -142 -86 -340 -196 -440 -183 -166 -275 -450 -146 -450 123 0 440 372 539 633 194 508 130 776 -275 1157 -209 198 -483 529 -608 735 -179 296 -288 375 -518 375 -351 0 -384 -202 -92 -573 110 -140 200 -338 200 -440 0 -103 43 -187 96 -187 53 0 152 -186 220 -413 116 -387 109 -425 -107 -600 -309 -250 -425 -236 -355 44 32 127 -5 413 -82 637 -160 466 -958 1532 -1146 1532 -220 0 -136 -366 153 -663 153 -158 345 -375 425 -482 141 -188 138 -190 -85 -36 -323 221 -846 956 -770 1079 40 65 -172 102 -591 102 -725 0 -720 10 -323 -742 134 -254 136 -335 13 -627 -86 -207 -109 -418 -60 -551 73 -197 94 -183 271 178 229 470 462 544 621 196 64 -140 184 -254 268 -254 222 0 187 -214 -98 -600 -273 -369 -319 -691 -128 -882 97 -97 97 -165 -2 -323 -133 -214 -56 -458 218 -685 82 -68 179 -362 216 -653 57 -463 33 -582 -194 -942 -156 -247 -365 -438 -522 -477 -575 -144 -1542 -811 -1660 -1145 -28 -79 -89 -107 -136 -63 -46 43 -30 167 38 275 67 107 84 195 38 195 -69 0 -213 -228 -388 -615 -75 -165 271 -149 454 22 204 190 210 189 476 -57 148 -138 350 -250 449 -250 98 0 212 -53 252 -117 49 -80 16 -96 -103 -50 -117 45 -160 26 -130 -58 24 -69 163 -117 308 -106 170 12 264 -32 264 -123 0 -176 406 -287 718 -197 491 142 620 143 332 5 -165 -80 -424 -147 -575 -149 -297 -5 -345 -95 -155 -285 93 -93 82 -120 -50 -120 -93 0 -170 -45 -170 -100 0 -55 71 -100 157 -100 87 0 225 -68 308 -150 133 -134 131 -158 -21 -216 -94 -36 -254 -14 -355 50 -226 141 -768 -56 -1418 -516 -198 -140 -303 -158 -454 -77 -145 78 -224 70 -306 -27 -60 -73 -82 -160 -48 -194 34 -34 35 -132 2 -218 -52 -135 -88 -129 -263 46 -220 220 -408 256 -558 106 -53 -53 -155 -59 -230 -12 -111 68 -103 132 40 351 178 271 84 554 -138 417 -172 -106 -355 -774 -232 -850 126 -78 94 -542 -51 -729 -187 -241 -238 -505 -123 -643 76 -91 86 -293 32 -612 -44 -262 -87 -566 -94 -676 -37 -533 -47 -550 -336 -550 -421 0 -548 206 -442 721 49 236 54 654 11 929 -47 308 -36 615 31 800 258 717 277 949 84 1052 -131 70 -182 208 -178 483 3 211 -28 488 -68 614 -70 221 -55 228 346 174 372 -50 398 -40 236 82 -100 76 -256 140 -346 142 -90 2 -292 70 -450 152 -157 83 -342 150 -411 150 -215 1 -137 -182 135 -319 220 -110 265 -208 293 -633 l32 -503 -398 -124 c-492 -154 -608 -89 -572 315 22 236 -8 306 -118 278 -387 -97 -447 -60 -477 299 -28 330 3 381 344 557 205 107 388 237 405 289 40 118 -747 467 -875 388 -52 -32 -94 11 -94 95 0 83 -80 195 -179 248 -149 79 -174 208 -151 778 26 677 24 685 -322 933 -385 276 -648 707 -648 1061 0 180 -81 252 -375 334 -206 57 -484 104 -618 104 -362 1 -1434 744 -1957 1357 -253 296 -581 596 -729 667 -148 71 -332 260 -409 421 -146 304 -541 680 -1029 980 -162 99 -283 261 -283 378 0 113 -73 316 -162 452 -143 219 -231 246 -801 246 l-640 0 252 -398 c138 -219 251 -462 251 -541 0 -193 569 -661 803 -661 127 0 254 -150 393 -464 126 -285 449 -687 840 -1045 601 -551 639 -613 701 -1141 72 -610 483 -1500 763 -1650 211 -113 314 -446 180 -580 -63 -63 -59 -121 11 -165 60 -37 109 -114 109 -172 0 -59 -111 -33 -250 58 -137 90 -250 133 -250 96 0 -37 -90 13 -200 113 -262 237 -257 387 9 245 308 -165 356 -32 109 302 -120 162 -218 322 -218 356 0 34 -68 129 -150 211 -83 83 -150 298 -150 478 0 320 -367 944 -733 1245 -143 118 -167 116 -167 -13 0 -82 75 -211 166 -287 295 -244 512 -868 460 -1325 -34 -303 18 -576 181 -957 191 -443 300 -564 654 -720 233 -103 560 -359 725 -567 313 -395 507 -918 340 -918 -144 0 -426 345 -426 522 0 87 -218 297 -486 469 -267 171 -566 401 -665 510 -99 110 -235 199 -302 199 -240 0 -339 271 -352 956 -20 1050 -127 1345 -643 1776 -249 208 -453 320 -455 248 -2 -79 -66 -51 -162 70 -98 124 -174 157 -201 85 -111 -293 -1629 909 -1640 1299 -4 134 -164 331 -423 518 -229 167 -480 437 -558 600 -77 164 -192 409 -254 545 -78 169 -237 275 -511 339 -219 51 -434 153 -478 228 -45 77 -246 136 -466 136 -346 0 -381 -23 -342 -225 l43 -225 -118 225 c-163 313 -304 282 -227 -50z m778 -80 c34 -89 18 -129 -39 -94 -55 33 -99 103 -99 155 0 144 72 112 138 -61z m3986 -392 c88 -460 -90 -293 -407 382 -22 46 50 36 159 -22 110 -59 221 -221 248 -360z m15176 -762 c0 60 42 109 92 109 186 0 344 -962 215 -1300 -61 -157 -196 457 -146 658 37 148 17 242 -52 242 -197 0 -797 444 -844 625 -29 110 -143 175 -308 175 -189 0 -289 71 -359 257 -188 492 -93 463 652 -204 413 -369 750 -622 750 -562z m-18031 176 c331 -354 716 -718 856 -810 250 -163 481 -632 241 -488 -204 123 -2064 1978 -2065 2060 -2 165 389 -143 968 -762z m544 -1320 c323 -331 587 -669 587 -750 -1 -81 -225 101 -500 403 -275 303 -499 577 -500 611 0 34 -202 169 -450 300 -248 131 -450 299 -450 373 0 74 -83 255 -184 401 -388 562 -324 542 282 -85 345 -357 892 -921 1215 -1253z m2885 1522 c1 -44 -43 -53 -98 -19 -55 34 -99 138 -98 231 1 146 14 148 98 19 53 -82 98 -186 98 -231z m-4548 -269 c100 -110 136 -200 81 -200 -55 0 -181 90 -281 200 -100 110 -136 200 -81 200 55 0 181 -90 281 -200z m1107 -1391 c510 -573 134 -372 -457 245 -334 349 -384 434 -193 333 142 -76 435 -336 650 -578z m-1000 195 c357 -178 370 -196 133 -200 -142 -2 -340 86 -440 196 -225 249 -185 250 307 4z m18643 -54 c-71 -85 -151 -132 -179 -105 -27 28 8 120 79 205 71 85 151 132 179 105 27 -28 -8 -120 -79 -205z m-13100 -109 c0 -19 -67 -9 -150 23 -82 31 -150 103 -150 159 0 58 64 49 150 -23 83 -68 150 -140 150 -159z m500 -353 c0 -55 -45 -72 -100 -38 -55 34 -100 107 -100 162 0 55 45 72 100 38 55 -34 100 -107 100 -162z m12460 -761 c-33 -33 -56 26 -52 131 5 117 28 141 60 61 29 -72 26 -159 -8 -192z m699 -301 c-109 -110 -184 64 -106 245 74 171 80 171 121 -4 24 -100 17 -209 -15 -241z m-12421 -401 c142 -280 432 -617 705 -821 427 -319 526 -475 594 -933 13 -92 118 -269 232 -394 114 -125 279 -368 366 -540 87 -172 224 -338 305 -369 81 -31 193 -143 249 -248 89 -166 72 -185 -132 -146 -128 25 -265 -7 -304 -70 -48 -76 -151 -28 -312 146 -291 314 -323 556 -40 299 110 -99 227 -154 260 -122 78 78 -440 755 -673 879 -100 54 -235 279 -302 502 -83 276 -241 490 -498 673 -359 256 -579 653 -744 1344 -99 415 24 331 294 -200z m-2357 181 c25 -75 -12 -112 -87 -87 -72 24 -151 103 -175 175 -25 75 12 112 87 87 72 -24 151 -103 175 -175z m600 -102 c125 -169 217 -437 215 -625 l-5 -329 -133 374 c-74 206 -208 487 -298 625 -231 352 -44 314 221 -45z m-2008 65 c241 -134 831 -1050 1014 -1574 118 -338 160 -1375 51 -1266 -34 34 -99 261 -145 505 -45 244 -209 771 -363 1171 -217 565 -353 772 -605 922 -479 284 -434 510 48 242z m5183 -216 c107 -81 146 -148 88 -150 -58 -2 -193 63 -300 144 -107 81 -146 148 -88 150 58 2 193 -63 300 -144z m10844 -9 c0 -86 -45 -128 -100 -94 -55 34 -100 104 -100 156 0 52 45 94 100 94 55 0 100 -70 100 -156z m3923 -44 c-426 -260 -665 -260 -273 0 165 109 368 199 450 199 83 0 3 -90 -177 -199z m-15523 -56 c0 -24 -45 -44 -100 -44 -55 0 -100 48 -100 106 0 58 45 78 100 44 55 -34 100 -82 100 -106z m-3320 -669 c340 -663 373 -775 231 -775 -49 0 -119 118 -155 263 -37 144 -176 425 -311 623 -255 376 -300 514 -165 514 43 0 223 -281 400 -625z m4774 218 c108 -174 -15 -211 -152 -45 -79 95 -86 152 -20 152 58 0 136 -48 172 -107z m946 -93 c0 -55 -45 -100 -100 -100 -55 0 -100 45 -100 100 0 55 45 100 100 100 55 0 100 -45 100 -100z m12745 -504 c-15 -277 -81 -569 -148 -650 -159 -192 -497 -188 -497 6 0 112 66 135 250 89 189 -47 250 -23 250 98 0 89 -50 161 -111 161 -127 0 -35 474 131 674 152 183 155 174 125 -378z m553 179 c-2 -509 -145 -645 -295 -282 -102 245 -102 337 -3 457 197 237 300 177 298 -175z m-17838 -148 c-33 -33 -56 26 -52 131 5 117 28 141 60 61 29 -72 26 -159 -8 -192z m14480 -66 c-59 -154 -515 -419 -591 -343 -83 83 443 598 547 534 52 -32 72 -118 44 -191z m828 0 c-31 -81 -158 -202 -281 -268 -221 -118 -221 -116 19 180 252 310 361 347 262 88z m-11918 39 c34 -55 -8 -100 -94 -100 -86 0 -156 45 -156 100 0 55 42 100 94 100 52 0 122 -45 156 -100z m-8267 -458 c37 -333 -117 -237 -232 145 -54 176 -37 225 64 192 74 -24 150 -176 168 -337z m4806 -242 c-81 -361 -58 -450 235 -899 179 -274 381 -479 448 -454 67 24 148 1 180 -51 33 -52 147 -142 254 -199 301 -161 235 45 -143 446 -185 196 -279 357 -208 357 70 0 266 -174 435 -387 169 -213 624 -647 1011 -964 388 -317 686 -596 662 -619 -79 -80 -1010 447 -1255 710 -134 143 -280 260 -325 260 -154 0 -84 -236 142 -477 l225 -241 -275 125 c-151 69 -275 182 -275 252 0 70 -214 299 -475 509 -572 460 -600 495 -716 903 -97 345 -33 1129 94 1129 41 0 35 -180 -14 -400z m3911 200 c0 -55 -42 -100 -94 -100 -52 0 -122 45 -156 100 -34 55 8 100 94 100 86 0 156 -45 156 -100z m-1600 -300 c0 -55 -45 -100 -100 -100 -55 0 -100 45 -100 100 0 55 45 100 100 100 55 0 100 -45 100 -100z m2280 -20 c145 -145 156 -280 24 -280 -54 0 -145 90 -204 200 -118 220 -9 269 180 80z m-5282 -411 c1 -99 -43 -153 -98 -119 -55 34 -99 183 -98 331 1 210 22 236 98 119 53 -82 98 -231 98 -331z m4752 18 c220 -154 564 -427 764 -608 201 -181 448 -380 550 -442 102 -63 160 -141 129 -174 -107 -113 -561 175 -763 484 -111 168 -376 395 -590 504 -453 231 -1002 703 -682 586 106 -39 372 -196 592 -350z m12363 196 c-44 -119 -177 -252 -296 -296 -260 -96 -268 -57 -55 267 206 315 465 337 351 29z m-21013 -89 c0 -58 -45 -78 -100 -44 -55 34 -100 82 -100 106 0 24 45 44 100 44 55 0 100 -48 100 -106z m7159 -368 c-69 -70 -259 71 -259 192 0 66 57 59 152 -20 84 -70 132 -147 107 -172z m10141 236 c0 -21 -79 -99 -175 -175 -159 -124 -162 -121 -38 38 131 167 213 220 213 137z m-16509 -876 c241 -280 309 -426 233 -502 -134 -134 -324 -24 -324 187 0 88 -114 310 -254 493 -343 450 -81 314 345 -178z m15968 252 c-51 -134 -92 -145 -186 -51 -95 95 -89 141 25 212 186 115 245 56 161 -161z m-9159 -442 c0 -101 84 -209 187 -242 103 -32 267 -148 365 -257 174 -191 172 -197 -62 -199 -132 0 -307 -45 -390 -98 -162 -105 -84 -133 283 -103 355 30 619 -262 550 -607 -45 -223 -15 -301 130 -349 103 -35 428 -176 723 -314 534 -251 535 -254 475 -632 -43 -265 -17 -424 83 -525 146 -146 107 -570 -53 -570 -46 0 -58 69 -26 154 33 84 -17 238 -111 341 -93 103 -157 270 -143 371 49 335 -118 632 -393 699 -375 91 -1018 616 -1018 831 0 99 -67 236 -150 304 -104 86 -150 90 -150 12 0 -225 -167 -103 -331 241 -208 436 -213 558 -19 483 165 -63 202 70 59 219 -50 52 -162 275 -249 495 l-159 400 200 -236 c109 -130 199 -318 199 -418z m1697 71 c6 -152 -227 -10 -388 236 l-159 241 272 -197 c149 -108 273 -234 275 -280z m8253 -69 l300 -78 -306 -10 c-168 -5 -393 61 -500 148 -191 156 -191 157 6 88 110 -39 335 -106 500 -148z m5450 13 c0 -49 -74 -118 -164 -153 -137 -52 -144 -38 -38 90 144 173 202 191 202 63z m-19200 -223 c0 -55 -45 -72 -100 -38 -55 34 -100 107 -100 162 0 55 45 72 100 38 55 -34 100 -107 100 -162z m1236 -38 c32 -82 42 -150 23 -150 -19 0 -91 68 -159 150 -72 86 -81 150 -23 150 56 0 128 -67 159 -150z m3752 -348 c165 -246 280 -468 255 -492 -61 -61 -443 355 -443 482 0 56 -91 150 -203 209 -111 60 -175 154 -141 209 98 159 211 72 532 -408z m9412 398 c0 -55 -124 -97 -275 -93 -244 6 -252 17 -75 93 273 117 350 117 350 0z m-8400 -782 c0 -73 -546 301 -675 463 -281 354 -98 333 275 -31 220 -215 400 -409 400 -432z m-8100 -37 c0 -200 -7 -198 -186 31 -103 131 -218 351 -256 488 l-69 250 255 -281 c141 -154 256 -374 256 -488z m3562 219 c62 0 172 -70 243 -156 114 -138 95 -148 -163 -85 -160 40 -307 110 -325 156 -19 47 -115 85 -215 85 -99 0 -208 72 -242 159 -113 295 49 341 319 90 148 -137 320 -249 383 -249z m16138 300 c0 -55 -70 -100 -156 -100 -86 0 -128 45 -94 100 34 55 104 100 156 100 52 0 94 -45 94 -100z m-17800 -156 c0 -86 -45 -128 -100 -94 -55 34 -100 104 -100 156 0 52 45 94 100 94 55 0 100 -70 100 -156z m18456 -97 c-107 -81 -239 -147 -294 -147 -55 0 -13 66 94 147 107 81 239 147 294 147 55 0 13 -66 -94 -147z m-21366 -400 c170 -195 310 -426 310 -514 0 -154 472 -633 625 -633 134 0 79 -177 -74 -236 -101 -39 -277 133 -553 540 -223 328 -446 596 -495 596 -139 0 -403 299 -403 457 0 251 269 154 590 -210z m19718 193 c95 -114 66 -140 -154 -140 -173 0 -255 -45 -227 -125 26 -77 220 -123 504 -119 363 5 439 -21 357 -121 -59 -70 -181 -151 -272 -179 -229 -71 -890 171 -844 309 20 61 -30 179 -113 261 -82 83 -131 169 -107 192 106 106 752 47 856 -78z m1992 121 c0 -22 -70 -66 -155 -99 -89 -34 -129 -18 -94 39 58 95 249 141 249 60z m536 -111 c-31 -82 -103 -150 -159 -150 -58 0 -49 64 23 150 68 82 140 150 159 150 19 0 9 -68 -23 -150z m-19063 -217 c24 -75 -37 -98 -169 -63 -293 77 -375 254 -98 213 126 -18 246 -86 267 -150z m2416 104 c268 -53 296 -85 188 -216 -110 -133 -93 -146 123 -93 150 36 328 2 447 -86 108 -80 378 -195 598 -254 221 -60 560 -232 753 -383 194 -152 477 -306 631 -343 285 -69 469 -378 473 -794 1 -120 100 -420 220 -668 120 -247 250 -540 288 -650 66 -188 71 -186 80 25 6 124 55 225 110 225 136 0 127 -333 -13 -473 -149 -149 -34 -439 146 -370 207 80 312 -277 122 -415 -85 -63 -155 -165 -155 -228 0 -63 -51 -114 -114 -114 -81 0 -94 -237 -46 -829 99 -1218 -120 -1684 -1090 -2321 -886 -582 -1870 -881 -2933 -891 -864 -8 -948 8 -1124 225 -105 129 -235 399 -290 600 -55 202 -327 810 -605 1353 -520 1019 -898 2163 -830 2513 21 110 49 301 61 425 26 274 78 279 359 35 125 -108 303 -168 415 -138 155 40 197 1 195 -185 0 -131 -40 -298 -87 -372 -50 -80 -29 -326 53 -600 228 -770 207 -746 482 -545 329 239 317 392 -46 580 -320 166 -354 252 -207 526 51 96 168 577 259 1069 152 817 152 905 7 1011 -87 64 -159 166 -159 228 0 253 -446 415 -905 329 -427 -81 -435 -88 -195 -192 138 -60 211 -111 163 -115 -48 -3 -36 -68 27 -144 135 -163 -110 -664 -420 -858 -249 -155 -290 -99 -345 475 -41 426 -4 550 317 1052 273 427 423 569 599 569 129 0 279 56 332 125 154 197 220 575 101 575 -59 0 -74 33 -34 74 123 123 683 124 1183 4 523 -127 733 -39 433 180 -223 163 -100 186 433 79z m4221 -255 c56 -106 81 -247 54 -313 -27 -67 -52 -47 -56 48 -4 91 -132 258 -283 370 -251 185 -255 198 -47 146 126 -32 275 -145 332 -251z m7640 218 c-34 -55 -107 -100 -162 -100 -55 0 -72 45 -38 100 34 55 107 100 162 100 55 0 72 -45 38 -100z m600 -100 c-34 -55 -107 -100 -162 -100 -55 0 -72 45 -38 100 34 55 107 100 162 100 55 0 72 -45 38 -100z m-8701 -171 c348 -199 116 -219 -249 -22 -211 113 -270 177 -150 162 110 -15 290 -78 399 -140z m-7149 -35 c0 -58 -45 -78 -100 -44 -55 34 -100 82 -100 106 0 24 45 44 100 44 55 0 100 -48 100 -106z m6498 -384 c-2 -117 -56 -92 -198 90 -255 326 -255 481 0 250 110 -100 199 -253 198 -340z m13227 288 c-105 -123 -188 -158 -211 -89 -21 63 23 153 99 201 238 151 291 97 112 -112z m-20225 -54 c0 -24 -45 -44 -100 -44 -55 0 -100 48 -100 106 0 58 45 78 100 44 55 -34 100 -82 100 -106z m1250 -44 c-34 -55 -138 -99 -231 -98 -146 1 -148 14 -19 98 196 127 328 127 250 0z m5309 -174 c-69 -70 -259 71 -259 192 0 66 57 59 152 -20 84 -70 132 -147 107 -172z m9995 167 c92 -148 6 -210 -189 -135 -90 35 -139 103 -109 152 75 122 218 113 298 -17z m-14897 -145 c-106 -80 -217 -121 -247 -92 -63 63 191 242 340 239 55 -1 13 -67 -93 -147z m18948 -139 c-62 -115 -155 -209 -209 -209 -137 0 -120 70 74 296 209 244 285 194 135 -87z m-12929 -84 c59 -180 -227 -154 -384 35 -116 139 -102 155 105 125 131 -19 256 -91 279 -160z m7724 47 c0 -166 -539 -369 -799 -301 -275 72 -255 210 24 163 124 -21 338 26 475 104 138 78 261 147 275 152 14 6 25 -48 25 -118z m1800 22 c0 -58 -45 -78 -100 -44 -55 34 -100 82 -100 106 0 24 45 44 100 44 55 0 100 -48 100 -106z m2118 -116 c-71 -71 -118 -77 -118 -15 0 57 30 134 67 170 36 37 90 44 118 15 28 -28 -2 -105 -67 -170z m-18718 22 c0 -55 -42 -100 -94 -100 -52 0 -122 45 -156 100 -34 55 8 100 94 100 86 0 156 -45 156 -100z m15777 -181 c60 -180 -147 -142 -216 39 -38 98 -15 143 58 119 65 -22 136 -93 158 -158z m587 -189 c-41 -41 -117 -8 -168 73 -154 243 -108 352 73 171 93 -93 136 -203 95 -244z m996 97 c-101 -102 -185 51 -102 186 63 102 87 102 121 1 23 -70 15 -154 -19 -187z m640 173 c0 -55 -70 -100 -156 -100 -86 0 -128 45 -94 100 34 55 104 100 156 100 52 0 94 -45 94 -100z m400 -150 c0 -82 -44 -150 -97 -150 -53 0 -71 68 -39 150 31 82 75 150 97 150 21 0 39 -68 39 -150z m-3679 -307 c-122 -85 -221 -214 -221 -286 0 -73 -101 -208 -225 -299 -124 -92 -169 -140 -100 -107 240 116 123 -135 -183 -392 -177 -149 -431 -259 -600 -259 -331 0 -391 -155 -97 -248 246 -79 728 166 928 471 84 128 248 240 365 249 240 18 270 -71 87 -263 -83 -88 -21 -80 187 26 297 149 438 133 438 -52 0 -45 -98 -83 -219 -83 -120 0 -367 -101 -549 -225 -355 -242 -458 -450 -139 -279 242 130 307 131 307 4 0 -55 -79 -104 -175 -108 -111 -5 -128 -27 -46 -60 99 -39 102 -84 13 -192 -131 -157 -538 -195 -443 -41 76 122 -188 27 -607 -218 -460 -270 -1129 -269 -1348 2 -97 119 -225 217 -285 217 -60 0 -109 51 -109 114 0 63 -71 166 -159 230 -140 103 -126 152 123 436 277 316 593 437 509 195 -40 -118 614 -521 703 -432 89 88 -96 457 -229 457 -77 0 -185 85 -241 189 -93 174 -74 183 256 108 380 -85 915 39 1090 254 57 69 188 142 292 162 251 49 323 285 89 295 -115 5 -72 47 117 115 165 58 338 172 385 251 63 106 116 115 196 35 81 -81 51 -153 -110 -266z m-15421 -99 c0 -24 -45 -44 -100 -44 -55 0 -100 48 -100 106 0 58 45 78 100 44 55 -34 100 -82 100 -106z m14350 -144 c-240 -464 -850 -393 -850 99 0 45 79 62 176 36 97 -25 289 -1 425 53 387 154 415 133 249 -188z m4818 19 c-99 -217 -115 -222 -181 -53 -109 275 -103 291 101 291 162 0 173 -33 80 -238z m-11132 -316 c-67 -67 -233 218 -231 397 1 87 60 45 140 -100 76 -137 117 -271 91 -297z m7575 68 c-171 -171 -238 -12 -93 223 111 178 138 186 166 49 19 -90 -14 -213 -73 -272z m1307 279 c-26 -147 -244 -122 -296 35 -29 86 19 122 134 100 99 -19 172 -80 162 -135z m-6669 -52 c-35 -56 -105 -75 -156 -44 -139 86 -113 146 63 146 86 0 128 -46 93 -102z m-331 -460 c137 -151 173 -287 126 -475 -77 -308 -155 -327 -371 -88 -237 263 -315 688 -157 859 92 101 146 110 172 31 20 -63 124 -210 230 -327z m7439 185 c-172 -165 -175 -163 -61 61 66 128 148 206 181 172 34 -33 -20 -138 -120 -233z m-20657 -48 c181 -224 177 -375 -12 -375 -55 0 -74 41 -43 92 31 51 -62 186 -208 300 -205 161 -225 208 -92 208 95 0 255 -101 355 -225z m2600 128 c0 -53 -67 -71 -150 -39 -82 31 -150 75 -150 97 0 21 68 39 150 39 83 0 150 -44 150 -97z m12700 -59 c0 -24 -45 -44 -100 -44 -55 0 -100 48 -100 106 0 58 45 78 100 44 55 -34 100 -82 100 -106z m-14532 -64 c183 -66 332 -158 332 -204 0 -45 -87 -36 -193 20 -107 57 -287 104 -400 104 -114 0 -207 45 -207 100 0 129 64 126 468 -20z m10868 -130 c32 -82 14 -150 -39 -150 -53 0 -97 68 -97 150 0 82 18 150 39 150 22 0 66 -68 97 -150z m7564 50 c0 -55 -70 -100 -156 -100 -86 0 -128 45 -94 100 34 55 104 100 156 100 52 0 94 -45 94 -100z m2368 34 c-37 -36 -16 -126 45 -200 86 -103 74 -134 -51 -134 -89 0 -162 60 -162 133 0 135 91 267 183 267 28 0 21 -30 -15 -66z m-6118 -134 c-34 -55 -138 -99 -231 -98 -146 1 -148 14 -19 98 196 127 328 127 250 0z m-12266 -669 c20 -10 20 -70 -1 -133 -43 -129 -539 328 -704 649 -68 132 30 81 282 -147 213 -193 403 -358 423 -369z m17216 575 c0 -52 -45 -122 -100 -156 -55 -34 -100 8 -100 94 0 86 45 156 100 156 55 0 100 -42 100 -94z m3000 -44 c0 -210 -288 -414 -411 -291 -69 69 -50 154 62 265 199 200 349 211 349 26z m-2600 -182 c0 -162 -30 -190 -111 -109 -61 61 -81 160 -44 220 103 168 155 130 155 -111z m-19400 -297 c193 -159 409 -338 482 -397 72 -58 108 -129 80 -157 -58 -58 -526 254 -1162 776 l-250 206 250 -69 c138 -38 408 -199 600 -359z m13500 317 c0 -55 -48 -100 -106 -100 -58 0 -78 45 -44 100 34 55 82 100 106 100 24 0 44 -45 44 -100z m-13200 -100 c0 -55 -45 -100 -100 -100 -55 0 -100 45 -100 100 0 55 45 100 100 100 55 0 100 -45 100 -100z m18300 0 c0 -55 -70 -100 -156 -100 -86 0 -128 45 -94 100 34 55 104 100 156 100 52 0 94 -45 94 -100z m-8513 -316 c-116 -212 -132 -216 -167 -46 -22 103 20 225 92 270 194 120 221 40 75 -224z m10338 63 c31 -160 -23 -345 -145 -500 -232 -294 -432 -320 -452 -58 -10 137 37 175 169 141 112 -30 181 4 178 86 -27 571 158 814 250 331z m-6375 53 c-281 -121 -675 -121 -600 0 34 55 228 97 431 93 297 -6 330 -24 169 -93z m-12771 -146 c123 -122 -53 -119 -429 7 l-400 135 387 -44 c213 -24 412 -68 442 -98z m2393 -169 c-20 -243 -79 -324 -256 -351 -197 -30 -220 -3 -161 191 162 526 456 639 417 160z m7114 -45 c152 -334 138 -735 -36 -1040 -79 -137 -145 -374 -146 -525 -3 -207 -53 -275 -204 -275 -255 0 -253 136 7 488 114 154 247 456 297 671 75 324 57 437 -107 662 -232 319 -246 392 -61 320 76 -28 188 -164 250 -301z m7957 148 c-65 -105 -243 -21 -243 115 0 50 67 65 149 33 83 -31 125 -98 94 -148z m811 -81 c-36 -59 -139 -107 -229 -107 -137 0 -131 23 31 142 209 153 304 136 198 -35z m-20569 -117 c173 -60 290 -150 259 -200 -81 -130 -163 -110 -444 110 -288 226 -253 243 185 90z m14715 10 c0 -55 -70 -100 -156 -100 -86 0 -128 45 -94 100 34 55 104 100 156 100 52 0 94 -45 94 -100z m-12593 -104 c252 -134 249 -292 -4 -226 -240 63 -490 330 -309 330 66 0 206 -47 313 -104z m9366 -55 c135 -135 138 -173 18 -249 -228 -144 -391 -106 -391 91 0 332 140 391 373 158z m10927 76 c0 -45 -112 -188 -250 -317 -286 -269 -323 -205 -88 154 157 240 338 328 338 163z m-9930 -342 c170 -179 341 -474 379 -656 46 -221 150 -361 310 -423 133 -50 241 -159 241 -242 0 -98 80 -143 225 -128 188 20 230 -31 257 -311 21 -216 -5 -312 -73 -271 -58 36 -193 18 -301 -40 -132 -71 -216 -72 -259 -3 -34 56 -108 75 -162 41 -123 -76 -502 252 -429 371 30 48 2 87 -62 87 -158 0 -696 392 -696 507 0 51 92 93 205 93 181 0 196 42 136 375 -38 206 -108 479 -155 607 -163 438 -38 436 384 -7z m8078 -115 c322 -298 1100 -760 1279 -760 84 0 178 68 209 150 32 83 124 150 206 150 81 0 194 79 250 175 65 111 103 127 105 42 5 -209 -559 -717 -796 -717 -607 0 -1701 582 -1701 905 0 127 -671 123 -750 -5 -36 -58 64 -100 238 -100 165 0 328 -45 362 -100 34 -55 19 -100 -34 -100 -52 0 -231 -119 -398 -265 -340 -298 -928 -531 -1349 -533 -178 -1 -256 -42 -213 -111 37 -61 243 -93 462 -72 341 32 371 20 219 -91 -96 -70 -372 -128 -612 -128 -266 0 -413 -39 -375 -100 34 -55 149 -100 256 -100 107 0 194 -50 194 -111 0 -72 -96 -85 -275 -37 -151 40 -342 74 -425 75 -82 1 -268 84 -411 184 -246 172 -389 162 -389 -26 0 -45 179 -201 398 -346 458 -303 447 -479 -20 -316 -238 83 -327 81 -356 -8 -25 -74 -183 -4 -421 184 -242 192 -443 279 -548 238 -99 -38 -286 24 -456 150 -361 266 -428 268 -345 5 58 -180 30 -203 -217 -175 -370 43 -412 297 -100 609 291 291 810 367 2613 387 1069 12 1237 38 1566 246 340 215 569 441 446 441 -28 0 -217 -112 -420 -250 -202 -137 -408 -250 -457 -250 -126 0 332 599 461 604 58 2 239 112 402 245 248 203 365 232 735 181 242 -33 542 -155 667 -270z m1665 -162 c-214 -180 -396 -258 -500 -216 -134 54 -125 72 50 97 116 18 315 142 442 276 126 134 255 217 287 185 32 -33 -94 -187 -279 -342z m-7213 202 c0 -55 -68 -100 -150 -100 -82 0 -150 -45 -150 -100 0 -55 -112 -100 -250 -100 -352 0 -311 152 75 275 434 140 475 142 475 25z m3400 0 c0 -55 -48 -100 -106 -100 -58 0 -78 45 -44 100 34 55 82 100 106 100 24 0 44 -45 44 -100z m4912 -267 c-87 -150 -106 -155 -109 -25 -3 169 102 320 173 250 23 -24 -5 -125 -64 -225z m-362 -33 c-34 -55 -82 -100 -106 -100 -24 0 -44 45 -44 100 0 55 48 100 106 100 58 0 78 -45 44 -100z m-7657 -142 c97 -117 82 -133 -87 -89 -113 30 -322 -22 -464 -115 -340 -223 -439 -116 -131 140 284 237 521 259 682 64z m7794 -283 c-84 -156 -134 -183 -166 -88 -25 75 16 175 92 223 200 127 207 114 74 -135z m-20924 -145 c-83 -83 -363 49 -363 170 0 74 64 73 209 -5 114 -61 184 -136 154 -165z m18114 89 c60 -180 -147 -142 -216 39 -38 98 -15 143 58 119 65 -22 136 -93 158 -158z m-16877 -131 c0 -55 -45 -72 -100 -38 -55 34 -100 107 -100 162 0 55 45 72 100 38 55 -34 100 -107 100 -162z m-1100 -747 c0 -191 272 -375 325 -220 50 146 677 -466 672 -657 -2 -63 -136 32 -299 211 -348 383 -434 408 -349 100 53 -188 17 -172 -218 101 -155 179 -326 326 -381 326 -55 1 -226 229 -380 509 l-280 508 455 -381 c250 -209 455 -433 455 -497z m20981 585 c-18 -96 -168 -238 -332 -315 -165 -78 -450 -272 -635 -432 -184 -160 -358 -269 -385 -241 -90 89 801 1044 928 996 67 -26 152 0 189 59 105 171 272 123 235 -67z m-21900 -179 c-31 -30 -87 25 -125 124 -54 142 -42 154 56 56 69 -68 99 -149 69 -180z m19174 -29 c-217 -18 -523 -124 -680 -236 -392 -279 -267 -355 154 -95 434 268 517 188 183 -176 -255 -279 -267 -281 -593 -126 -284 136 -310 175 -175 273 86 63 156 163 156 222 0 183 917 405 1150 279 176 -96 153 -113 -195 -141z m1695 82 c-200 -221 -1050 -293 -1050 -89 0 64 95 88 225 57 124 -30 360 7 525 81 428 192 507 180 300 -49z m1350 -6 c0 -58 -45 -78 -100 -44 -55 34 -100 82 -100 106 0 24 45 44 100 44 55 0 100 -48 100 -106z m-20217 -719 c19 -41 97 -75 175 -75 78 0 142 -37 142 -83 0 -300 -887 319 -897 625 -3 93 517 -326 580 -467z m15867 425 c-34 -55 -82 -100 -106 -100 -24 0 -44 45 -44 100 0 55 48 100 106 100 58 0 78 -45 44 -100z m1935 -300 c58 -165 157 -300 221 -300 72 0 98 -99 69 -255 -42 -217 -6 -264 238 -313 158 -31 287 -102 287 -156 0 -55 -101 -72 -225 -39 -124 33 -270 62 -325 65 -55 2 -187 70 -294 151 -186 140 -186 153 -15 278 168 123 164 148 -81 439 -296 352 -318 430 -120 430 77 0 187 -135 245 -300z m1821 54 c-183 -135 -384 -349 -447 -475 -86 -173 -211 -235 -511 -254 l-398 -25 300 162 c165 89 413 263 550 386 278 250 600 444 744 449 52 2 -55 -108 -238 -243z m-1306 -54 c0 -55 -45 -100 -100 -100 -55 0 -100 45 -100 100 0 55 45 100 100 100 55 0 100 -45 100 -100z m-10700 -220 c0 -162 -30 -190 -111 -109 -61 61 -81 160 -44 220 103 168 155 130 155 -111z m860 -53 c-33 -33 -56 26 -52 131 5 117 28 141 60 61 29 -72 26 -159 -8 -192z m8940 73 c0 -125 -106 -125 -300 0 -121 78 -107 97 75 98 124 1 225 -43 225 -98z m-8900 -456 c0 -79 -45 -144 -100 -144 -55 0 -100 93 -100 206 0 113 45 178 100 144 55 -34 100 -127 100 -206z m7158 56 c78 0 142 -45 142 -100 0 -150 -237 -120 -456 58 -178 145 -178 153 -11 100 101 -32 247 -58 325 -58z m1361 32 c-72 -29 -159 -26 -192 8 -33 33 26 56 131 52 117 -5 141 -28 61 -60z m-4400 -100 c-72 -29 -159 -26 -192 8 -33 33 26 56 131 52 117 -5 141 -28 61 -60z m-12318 -509 c220 -362 250 -523 99 -523 -55 0 -100 58 -100 128 0 71 -128 176 -285 236 -375 141 -484 497 -149 490 157 -3 303 -114 435 -331z m241 213 c95 -249 -10 -282 -137 -45 -62 115 -70 209 -19 209 51 0 121 -74 156 -164z m358 -786 c0 -82 -18 -150 -39 -150 -22 0 -66 68 -97 150 -32 83 -14 150 39 150 53 0 97 -67 97 -150z m335 -650 c82 -165 113 -300 67 -300 -45 0 -129 135 -187 300 -58 165 -88 300 -67 300 20 0 105 -135 187 -300z m7165 144 c0 -24 -45 -44 -100 -44 -55 0 -100 48 -100 106 0 58 45 78 100 44 55 -34 100 -82 100 -106z m550 -244 c-34 -55 -82 -100 -106 -100 -24 0 -44 45 -44 100 0 55 48 100 106 100 58 0 78 -45 44 -100z m-7290 -1673 c-33 -33 -56 26 -52 131 5 117 28 141 60 61 29 -72 26 -159 -8 -192z m496 -505 c-84 -83 -256 93 -253 259 3 148 21 145 149 -24 80 -106 127 -211 104 -235z m-289 -24 c105 -178 235 -280 315 -249 75 28 268 -88 427 -259 240 -257 292 -279 294 -126 3 177 10 177 150 -8 176 -232 196 -498 31 -396 -82 51 -93 2 -38 -169 42 -133 76 -353 74 -490 -1 -136 38 -323 87 -414 78 -146 59 -152 -151 -53 -140 66 -196 141 -135 179 61 38 -165 325 -533 676 -589 563 -902 776 -728 496 44 -73 27 -89 -46 -44 -65 40 -93 112 -64 159 29 47 8 114 -48 149 -56 35 -102 136 -102 224 0 147 16 147 175 -5 96 -92 321 -284 500 -427 268 -213 315 -227 267 -75 -46 144 -14 133 150 -52 114 -130 208 -189 208 -131 0 58 -116 232 -259 386 -179 195 -241 225 -200 98 77 -240 -140 -172 -284 89 -59 106 -189 317 -289 469 -100 151 -136 275 -80 275 55 0 181 -136 279 -302z m288 -1315 c100 -314 1 -304 -190 19 -145 245 -149 286 -24 238 83 -32 180 -148 214 -257z m5345 -227 c0 -21 -87 -15 -193 13 -152 40 -183 9 -143 -142 60 -230 536 -806 536 -648 0 60 -45 137 -100 171 -55 34 -100 158 -100 275 0 212 1 212 213 -16 134 -144 230 -403 256 -694 l42 -465 -401 446 c-221 245 -429 419 -462 385 -33 -33 82 -222 256 -420 355 -405 285 -477 -118 -122 -314 276 -506 1225 -277 1366 113 70 491 -45 491 -149z m3989 -222 c149 -326 146 -334 -119 -334 -126 0 -284 -54 -350 -120 -140 -140 -163 -680 -29 -680 144 0 230 -731 121 -1018 -83 -219 -60 -296 146 -489 182 -171 212 -250 118 -310 -192 -122 -248 -101 -305 117 -82 314 -284 244 -216 -75 l59 -275 -204 233 c-118 133 -255 201 -322 159 -66 -40 -174 3 -243 98 -69 94 -332 318 -585 498 -254 180 -431 358 -394 395 116 115 203 76 545 -243 183 -171 349 -261 369 -200 23 69 138 32 299 -95 l262 -206 87 230 c104 276 20 899 -172 1269 -117 226 -117 304 0 514 75 136 139 301 140 366 2 66 48 234 101 375 87 227 124 243 339 145 133 -60 292 -220 353 -354z m353 302 c92 -240 20 -258 -122 -31 -67 107 -81 195 -32 195 50 0 119 -74 154 -164z m-8173 -663 c57 -279 231 -483 231 -271 0 132 586 -306 594 -444 4 -51 -106 13 -244 142 -137 129 -272 211 -300 184 -27 -28 114 -384 314 -792 200 -408 384 -684 409 -614 25 71 -18 228 -96 350 -293 458 -279 625 24 276 164 -191 299 -408 299 -482 0 -189 -226 -397 -376 -347 -68 23 -124 -10 -124 -73 0 -62 -46 -86 -102 -51 -56 35 -77 103 -46 152 91 147 -389 1169 -527 1123 -69 -24 -125 2 -125 57 0 55 46 116 103 135 61 20 26 193 -88 433 -105 219 -221 512 -258 649 -66 244 -63 245 94 50 89 -110 187 -325 218 -477z m931 -429 c0 -24 -45 -44 -100 -44 -55 0 -100 48 -100 106 0 58 45 78 100 44 55 -34 100 -82 100 -106z m6860 -217 c-33 -33 -56 26 -52 131 5 117 28 141 60 61 29 -72 26 -159 -8 -192z m-2882 -212 c29 -86 -19 -122 -133 -100 -98 19 -199 96 -223 170 -29 86 19 122 133 100 98 -19 199 -96 223 -170z m222 -417 c0 -107 -299 -211 -409 -142 -172 106 -90 219 159 219 138 0 250 -35 250 -77z m-624 -192 c96 -52 296 -120 445 -151 189 -40 254 -103 214 -207 -38 -101 -11 -132 85 -96 79 30 230 -46 336 -170 l194 -224 -290 183 c-283 179 -289 179 -220 -1 60 -157 35 -152 -166 37 -130 123 -328 223 -439 223 -119 0 -250 103 -317 250 -125 274 -102 297 158 156z m1924 -56 c0 -82 -17 -150 -38 -150 -21 0 -94 68 -162 150 -102 123 -95 150 38 150 89 0 162 -67 162 -150z m3593 -464 c-142 -264 -329 -235 -256 39 33 124 62 293 65 375 3 116 36 108 147 -39 103 -136 115 -241 44 -375z m-758 260 c-33 -85 -81 -133 -107 -107 -27 26 -18 96 18 154 98 160 156 129 89 -47z m-4957 -549 c-15 -91 34 -241 109 -332 89 -107 98 -165 25 -165 -61 0 -112 38 -112 85 0 46 -101 133 -225 193 -179 86 -189 110 -50 115 215 9 225 141 25 307 -82 68 -150 171 -150 228 0 57 91 20 203 -81 112 -101 191 -259 175 -350z m2339 -490 c89 -241 -37 -274 -216 -58 -68 82 -157 128 -198 103 -64 -40 -303 363 -303 513 0 132 648 -371 717 -558z m-887 -10 c75 -287 7 -241 -170 113 -117 234 -121 282 -18 197 75 -63 160 -202 188 -310z m2470 303 c0 -55 -42 -100 -94 -100 -52 0 -122 45 -156 100 -34 55 8 100 94 100 86 0 156 -45 156 -100z m-3270 -603 c76 -292 -3 -239 -193 128 -142 275 -144 305 -13 197 85 -71 178 -217 206 -325z m1330 -157 c-48 -126 -97 -143 -177 -63 -60 60 -80 188 -43 283 48 126 97 143 177 63 60 -60 80 -188 43 -283z"/>
<path d="M7700 15321 c0 -138 256 -223 633 -211 l317 10 -300 78 c-165 42 -379 110 -475 150 -99 42 -175 30 -175 -27z"/>
<path d="M8083 14330 c-183 -148 -351 -283 -374 -299 -71 -51 497 -531 629 -531 85 0 113 -100 83 -299 -24 -164 -88 -272 -142 -238 -55 34 -82 -22 -62 -125 19 -102 114 -201 209 -219 144 -28 174 43 174 413 0 305 48 465 150 504 83 32 150 127 150 211 0 84 42 153 93 153 127 0 225 -337 152 -526 -32 -84 -11 -183 48 -220 175 -108 122 -254 -93 -254 -111 0 -200 -67 -200 -150 0 -204 484 -196 714 13 126 114 153 212 91 328 -67 125 -46 166 85 166 127 0 162 -61 130 -228 -56 -294 171 -304 415 -19 99 115 165 216 147 225 -18 9 -179 119 -359 245 -180 126 -371 202 -425 169 -117 -72 -128 149 -16 325 57 91 168 98 416 26 367 -105 536 -46 299 103 -266 168 -1383 497 -1685 497 -173 0 -435 -112 -629 -270z m1277 -245 l190 -216 -275 177 c-284 183 -337 254 -190 254 46 0 170 -97 275 -215z m-763 -54 c-136 -93 -275 -211 -309 -261 -37 -53 -90 -48 -127 12 -74 119 308 418 534 418 95 0 59 -62 -98 -169z"/>
<path d="M11472 12534 c-96 -152 165 -1163 313 -1212 146 -49 145 -19 -27 500 -77 235 -157 518 -177 628 -23 129 -61 159 -109 84z"/>
<path d="M11360 11600 c63 -349 328 -940 336 -750 2 55 -87 325 -198 600 -170 419 -192 443 -138 150z"/>
<path d="M7125 11090 c-124 -46 -225 -128 -225 -183 0 -126 353 -321 434 -239 34 33 119 16 189 -37 84 -66 204 -58 356 21 l228 120 -228 147 c-354 226 -510 262 -754 171z"/>
<path d="M7361 9943 c-36 -94 -130 -135 -236 -102 -287 89 -466 -104 -495 -535 -23 -347 2 -406 172 -406 132 0 198 -67 198 -203 0 -258 377 -413 650 -266 192 103 190 109 -50 174 l-250 67 300 124 c252 105 516 159 975 198 221 18 20 438 -360 749 -464 381 -806 456 -904 200z m338 -446 c-186 -117 -499 -125 -499 -12 0 46 101 131 225 189 270 124 508 -29 274 -177z"/>
<path d="M8000 8700 c-121 -78 -107 -97 75 -98 124 -1 225 43 225 98 0 125 -106 125 -300 0z"/>
<path d="M7300 4312 c0 -48 75 -149 166 -225 151 -124 156 -116 47 88 -124 233 -213 290 -213 137z"/>
<path d="M2525 24750 c183 -172 275 -360 275 -562 0 -216 113 -425 391 -721 215 -229 558 -608 762 -842 204 -234 441 -425 526 -425 86 0 282 -146 435 -325 312 -364 389 -202 99 210 -233 330 -358 715 -232 715 136 0 320 -245 367 -490 54 -280 234 -524 631 -858 397 -334 493 -282 272 146 -315 609 -873 1255 -1385 1602 -424 287 -534 425 -617 767 -146 606 -285 668 -224 100 37 -346 131 -565 331 -774 154 -160 256 -314 228 -342 -57 -57 -587 578 -774 929 -67 126 -154 418 -193 650 l-72 420 -547 29 -548 30 275 -259z"/>
<path d="M6153 24613 c145 -219 423 -462 640 -560 368 -166 607 -488 607 -817 0 -221 1372 -1561 1458 -1424 39 64 -134 285 -403 515 -283 241 -565 608 -706 917 -140 305 -462 725 -792 1032 -307 285 -557 565 -557 621 0 57 -113 103 -251 103 l-252 0 256 -387z"/>
<path d="M6600 24906 c0 -150 234 -254 277 -124 73 219 201 120 361 -282 170 -424 422 -565 312 -175 -150 536 -277 675 -617 675 -183 0 -333 -42 -333 -94z"/>
<path d="M7744 24675 c38 -179 89 -415 112 -525 115 -533 215 -790 324 -827 66 -22 120 32 120 119 0 87 45 158 100 158 55 0 100 45 100 100 0 55 -65 100 -144 100 -90 0 -211 227 -322 600 -186 627 -410 839 -290 275z"/>
<path d="M8357 24625 c36 -206 128 -475 205 -597 213 -340 829 -928 973 -928 157 0 615 -595 615 -799 0 -82 150 -220 333 -306 182 -86 368 -216 413 -289 45 -72 134 -99 198 -60 165 102 -41 326 -486 528 l-358 163 595 59 c591 59 598 57 937 -318 389 -431 523 -477 446 -153 -52 222 -51 222 106 25 88 -110 161 -281 163 -380 2 -98 140 -256 307 -350 380 -213 865 -1177 941 -1870 54 -494 53 -497 -91 -200 -80 165 -147 424 -149 575 -6 331 -173 366 -234 50 l-44 -225 -13 219 c-17 272 -371 531 -724 531 -377 0 -526 226 -463 701 56 413 -66 550 -177 200 -35 -110 -125 -261 -200 -337 -116 -116 -82 -200 223 -550 246 -282 443 -415 619 -417 200 -2 297 -87 430 -377 95 -206 244 -464 330 -572 149 -188 154 -180 97 152 -45 260 -34 311 43 200 58 -82 106 -208 106 -279 3 -183 417 -721 555 -721 185 0 447 -346 447 -591 0 -255 540 -846 719 -786 217 72 189 241 -57 353 -154 70 -270 231 -315 437 -61 277 -32 358 185 532 363 290 467 627 298 965 -120 240 -182 269 -470 222 -447 -72 -720 94 -862 524 -65 197 -100 375 -79 397 22 21 172 -75 335 -215 248 -213 360 -244 702 -192 428 64 581 -30 830 -513 92 -177 67 -294 -136 -650 -240 -420 -331 -883 -172 -883 43 0 156 264 252 587 121 409 264 655 472 815 406 311 409 734 4 628 -128 -33 -168 -112 -133 -264 28 -119 -89 -2 -259 259 -328 503 -407 544 -702 359 -106 -66 -266 -83 -374 -38 -129 53 -148 92 -59 125 92 35 99 85 25 174 -58 70 -77 263 -44 430 59 294 67 298 242 123 109 -109 415 -211 761 -254 319 -40 628 -122 687 -183 509 -523 595 -1170 217 -1628 -404 -489 -767 -1074 -765 -1231 2 -234 163 -435 287 -359 79 49 81 126 7 264 -84 157 -46 280 193 627 164 238 391 497 505 574 224 154 378 894 272 1310 -101 398 -621 882 -947 882 -334 0 -819 422 -819 714 0 102 -46 186 -103 186 -174 0 -223 -281 -107 -615 109 -313 108 -314 -90 -135 -110 99 -205 298 -212 440 -7 170 -27 199 -57 85 -56 -215 -289 -230 -367 -24 -32 83 -172 203 -311 266 -139 63 -253 181 -253 261 0 119 28 123 150 22 95 -79 150 -85 150 -18 0 58 -39 130 -87 160 -48 29 -118 329 -156 666 -91 808 -363 1109 -923 1024 -474 -73 -757 -301 -679 -549 53 -165 -37 -230 -272 -198 -37 6 -210 -154 -386 -354 l-319 -363 -514 183 c-578 205 -660 287 -662 662 -2 179 -66 281 -202 316 -110 29 -233 140 -275 247 -41 108 -220 359 -397 560 -239 270 -401 364 -629 364 -301 0 -307 -9 -242 -375z m1218 -919 c250 -209 284 -306 108 -306 -140 0 -483 295 -483 415 0 133 130 95 375 -109z m3881 -113 c187 -206 230 -865 86 -1317 -44 -139 56 -297 372 -589 344 -318 426 -457 403 -683 -17 -156 18 -314 77 -350 184 -114 115 -238 -102 -181 -114 30 -254 172 -311 316 -95 241 -109 246 -176 65 -67 -181 -87 -174 -263 100 -105 163 -296 381 -425 485 -239 193 -244 325 -45 1152 47 195 26 230 -107 179 -125 -48 -165 -6 -165 177 0 136 -97 310 -222 397 -200 140 -204 156 -35 156 104 0 333 -111 510 -246 177 -135 350 -217 385 -183 120 121 60 323 -157 525 -120 112 -172 204 -115 204 56 0 187 -93 290 -207z m-856 -741 c0 -77 -45 -168 -100 -202 -55 -34 -100 10 -100 97 0 88 -67 185 -149 217 -83 31 -125 97 -94 147 78 126 443 -87 443 -259z m-500 -202 c73 -137 104 -280 67 -317 -37 -36 -67 9 -67 100 0 92 -63 167 -139 167 -77 0 -166 68 -197 150 -98 254 193 168 336 -100z m550 -350 c-34 -55 -82 -100 -106 -100 -24 0 -44 45 -44 100 0 55 48 100 106 100 58 0 78 -45 44 -100z m2022 -3392 c67 -87 102 -217 76 -288 -26 -75 0 -102 63 -63 59 36 87 175 62 307 -56 292 79 404 208 174 132 -236 37 -503 -244 -687 -277 -182 -437 -126 -437 152 0 128 -49 172 -150 133 -113 -43 -150 17 -150 244 0 263 29 294 225 243 124 -32 280 -129 347 -215z"/>
<path d="M9600 24899 c0 -56 150 -265 333 -465 278 -304 424 -375 898 -439 589 -80 969 -34 969 117 0 48 -126 88 -280 88 -154 0 -332 52 -396 116 -87 87 -150 87 -258 -3 -116 -96 -194 -59 -405 192 -143 171 -261 352 -261 403 0 50 -135 92 -300 92 -165 0 -300 -46 -300 -101z"/>
<path d="M10808 24959 c75 -75 1085 -99 1156 -28 38 38 -216 69 -564 69 -348 0 -615 -19 -592 -41z"/>
<path d="M12850 24930 c449 -31 543 -82 925 -501 234 -257 425 -526 425 -598 0 -72 40 -131 89 -131 181 0 199 -305 35 -590 -211 -368 -76 -870 226 -843 104 10 247 -58 317 -150 98 -130 127 -135 130 -25 2 78 -72 226 -164 327 -157 174 -156 209 23 558 l192 373 32 -450 c23 -321 109 -530 297 -727 230 -241 333 -274 796 -259 456 15 585 -26 904 -284 531 -429 740 -842 790 -1560 l43 -620 -505 -548 c-278 -301 -505 -606 -505 -678 0 -72 -72 -241 -159 -374 -261 -398 -105 -506 163 -114 148 217 425 438 696 555 495 215 1087 792 1292 1259 72 165 165 368 206 451 41 83 37 252 -9 375 -102 278 -226 299 -139 24 109 -345 -88 -218 -379 243 -272 430 -276 453 -124 815 168 402 139 538 -77 359 -105 -87 -230 -21 -561 298 -392 376 -421 439 -361 772 37 200 153 512 259 694 248 425 243 664 -22 1093 -211 342 -225 347 -725 285 -281 -35 -555 -60 -610 -55 -983 87 -1578 89 -1453 5 81 -54 112 -133 69 -177 -137 -137 -865 -64 -1052 105 -135 122 -354 158 -872 145 -578 -15 -609 -24 -192 -52z m4379 -228 c45 -173 25 -184 -152 -90 -164 88 -177 127 -66 197 77 48 145 89 152 89 8 1 37 -87 66 -196z m-1149 -968 c259 -360 457 -734 441 -832 -16 -97 40 -204 125 -237 201 -77 198 -327 -4 -404 -270 -104 -538 -69 -492 64 58 163 -209 512 -332 436 -52 -32 -128 42 -167 165 -61 190 -79 198 -119 49 -26 -96 -87 -175 -137 -175 -52 0 -48 110 7 257 110 287 0 582 -252 679 -142 55 -350 -262 -350 -530 0 -45 -68 -138 -150 -206 -177 -147 -192 -66 -40 218 85 159 70 293 -66 595 -96 214 -149 415 -117 447 32 32 230 118 440 190 498 171 632 92 1213 -716z m120 666 c69 -129 71 -200 7 -200 -55 0 -148 90 -207 200 -69 129 -71 200 -7 200 55 0 148 -90 207 -200z m700 -606 c0 -100 -45 -210 -100 -244 -59 -36 -101 74 -102 269 0 182 -42 396 -93 476 -50 80 -66 187 -35 238 68 110 330 -477 330 -739z m294 -331 c-95 -87 -109 -71 -59 70 36 101 71 258 79 350 7 92 33 61 58 -70 25 -130 -10 -287 -78 -350z m-125 -1239 c-25 -96 -45 6 -44 226 1 220 22 298 46 174 24 -125 23 -305 -2 -400z m-1069 64 c0 -55 -45 -72 -100 -38 -55 34 -100 107 -100 162 0 55 45 72 100 38 55 -34 100 -107 100 -162z m1866 -913 c-28 -69 -50 -12 -50 125 0 138 22 194 50 125 28 -69 28 -181 0 -250z m534 -1181 c0 -52 -45 -94 -100 -94 -55 0 -100 70 -100 156 0 86 45 128 100 94 55 -34 100 -104 100 -156z m100 -867 c-93 -145 -103 -116 -57 161 32 185 64 410 73 500 9 89 34 17 56 -161 22 -177 -10 -402 -72 -500z m-508 -286 c-125 -133 -272 -241 -328 -241 -56 0 20 126 167 280 148 155 274 346 281 425 7 88 30 72 59 -39 27 -106 -49 -286 -179 -425z m-542 -541 c-34 -55 -82 -100 -106 -100 -24 0 -44 45 -44 100 0 55 48 100 106 100 58 0 78 -45 44 -100z"/>
<path d="M21700 24892 c0 -97 194 -294 885 -899 195 -171 226 -275 187 -624 -26 -231 -82 -525 -124 -655 -67 -205 -51 -228 121 -174 148 47 227 -1 314 -193 64 -141 117 -303 117 -359 0 -56 66 -168 147 -249 129 -130 183 -129 447 8 360 186 506 432 506 852 0 172 42 287 93 255 51 -31 121 -12 156 44 35 56 152 102 261 102 186 0 197 62 174 1000 -22 887 -45 1000 -204 1000 -99 0 -185 -56 -192 -125 -28 -285 -6 -535 61 -699 48 -116 18 -195 -89 -236 -109 -42 -160 -186 -160 -457 0 -492 -155 -420 -307 144 -86 317 -84 464 6 609 94 150 92 208 -11 271 -102 64 -90 125 56 287 185 204 184 206 -118 206 -185 0 -328 -62 -365 -158 -109 -284 -64 -1007 89 -1442 256 -727 152 -1500 -204 -1500 -174 0 -175 10 -41 364 138 362 25 1006 -219 1250 -109 109 -161 245 -119 313 41 66 88 357 105 647 l30 526 -801 0 c-505 0 -801 -40 -801 -108z m2960 -1465 c-33 -33 -56 26 -52 131 5 117 28 141 60 61 29 -72 26 -159 -8 -192z m-1370 -558 c-9 -305 -14 -308 -90 -69 -115 359 -115 521 0 450 55 -34 96 -205 90 -381z"/>
<path d="M18539 22757 c-30 -78 -40 -247 -21 -375 32 -215 47 -207 208 108 211 413 211 410 21 410 -84 0 -178 -64 -208 -143z"/>
<path d="M18837 22553 c-111 -291 26 -374 195 -117 151 231 153 264 17 264 -85 0 -181 -66 -212 -147z"/>
<path d="M9070 22363 c98 -131 296 -282 439 -336 143 -54 285 -194 316 -312 70 -269 -40 -275 -275 -15 -211 233 -350 258 -350 62 0 -157 328 -396 700 -509 138 -42 330 -147 427 -232 306 -269 393 -4 115 351 -228 291 -1370 1228 -1498 1228 -29 0 27 -107 126 -237z"/>
<path d="M24834 21649 c-93 -202 -89 -249 25 -249 84 0 141 102 141 250 0 311 -21 311 -166 -1z"/>
<path d="M11400 21006 c0 -58 45 -106 100 -106 55 0 100 20 100 44 0 24 -45 72 -100 106 -55 34 -100 14 -100 -44z"/>
<path d="M12500 20964 c0 -93 69 -197 154 -229 231 -89 243 -9 33 207 -168 173 -187 175 -187 22z"/>
<path d="M16860 20860 c77 -200 540 -273 540 -85 0 88 -59 124 -147 90 -81 -31 -173 -13 -206 39 -92 149 -247 113 -187 -44z"/>
<path d="M19300 20233 c0 -293 121 -244 169 70 16 108 -15 197 -70 197 -54 0 -99 -120 -99 -267z"/>
<path d="M1550 20200 c34 -55 107 -100 162 -100 55 0 72 45 38 100 -34 55 -107 100 -162 100 -55 0 -72 -45 -38 -100z"/>
<path d="M24916 19625 c-9 -69 -21 -159 -26 -200 -6 -41 -114 -255 -239 -475 -126 -220 -282 -569 -348 -776 -129 -406 -346 -574 -740 -574 -368 0 -786 -182 -708 -309 49 -78 98 -78 176 0 60 60 307 109 549 109 543 0 1020 306 1020 654 0 132 93 418 207 637 130 249 192 519 166 728 -23 182 -48 275 -57 206z"/>
<path d="M12505 19291 c61 -114 136 -184 165 -154 83 83 -49 363 -170 363 -74 0 -73 -64 5 -209z"/>
<path d="M19075 19053 c-96 -132 -175 -271 -175 -309 0 -105 299 167 409 373 142 265 -28 219 -234 -64z"/>
<path d="M16800 18700 c0 -55 20 -100 44 -100 24 0 72 45 106 100 34 55 14 100 -44 100 -58 0 -106 -45 -106 -100z"/>
<path d="M2500 18556 c0 -79 45 -172 100 -206 55 -34 100 31 100 144 0 113 -45 206 -100 206 -55 0 -100 -65 -100 -144z"/>
<path d="M16416 18288 c-103 -165 -106 -237 -12 -325 92 -86 109 -77 72 37 -28 83 19 229 103 325 83 96 111 175 61 175 -51 0 -151 -95 -224 -212z"/>
<path d="M12838 18256 c-81 -213 -7 -483 147 -534 106 -36 111 -2 25 159 -60 113 -82 275 -49 362 33 86 32 157 -3 157 -36 0 -89 -65 -120 -144z"/>
<path d="M13600 17765 c0 -91 -45 -165 -100 -165 -55 0 -100 -54 -100 -120 0 -91 28 -92 115 -5 80 80 173 85 300 17 246 -132 236 31 -15 258 -180 163 -200 164 -200 15z"/>
<path d="M12523 17681 c22 -65 93 -136 158 -158 73 -24 96 21 58 119 -69 181 -276 219 -216 39z"/>
<path d="M14200 17656 c0 -86 45 -156 100 -156 55 0 100 42 100 94 0 52 -45 122 -100 156 -55 34 -100 -8 -100 -94z"/>
<path d="M15064 17650 c31 -82 75 -150 97 -150 21 0 39 68 39 150 0 83 -44 150 -97 150 -53 0 -71 -67 -39 -150z"/>
<path d="M19942 17687 c-30 -48 84 -87 252 -87 168 0 306 17 306 38 0 85 -509 129 -558 49z"/>
<path d="M13000 17322 c0 -145 350 -422 533 -422 92 0 167 53 167 117 0 64 -29 88 -64 53 -35 -35 -192 28 -350 140 -157 112 -286 163 -286 112z"/>
<path d="M16250 17300 c-34 -55 -14 -100 44 -100 58 0 106 45 106 100 0 55 -20 100 -44 100 -24 0 -72 -45 -106 -100z"/>
<path d="M15650 17200 c34 -55 129 -100 212 -100 82 0 122 45 88 100 -34 55 -129 100 -212 100 -82 0 -122 -45 -88 -100z"/>
<path d="M17900 16511 c0 -61 56 -112 125 -112 69 -1 238 -30 375 -64 175 -43 220 -30 150 44 -152 163 -650 263 -650 132z"/>
<path d="M14701 16386 c179 -180 699 -329 699 -200 0 50 -101 113 -225 139 -124 27 -315 86 -425 132 -179 73 -184 66 -49 -71z"/>
<path d="M15751 16098 c33 -54 201 -98 372 -98 377 0 339 50 -103 134 -206 39 -307 26 -269 -36z"/>
<path d="M17400 16098 c0 -107 683 -249 771 -160 92 92 19 128 -396 192 -206 31 -375 17 -375 -32z"/>
<path d="M16873 15991 c-97 -57 -457 -117 -800 -133 -633 -31 -851 -182 -347 -240 449 -51 1374 177 1374 339 0 167 2 167 -227 34z"/>
<path d="M12900 15906 c0 -58 45 -106 100 -106 55 0 100 20 100 44 0 24 -45 72 -100 106 -55 34 -100 14 -100 -44z"/>
<path d="M0 15706 c0 -113 45 -206 100 -206 55 0 100 65 100 144 0 79 -45 172 -100 206 -55 34 -100 -31 -100 -144z"/>
<path d="M17200 15600 c0 -55 160 -100 356 -100 212 0 331 40 294 100 -34 55 -194 100 -356 100 -162 0 -294 -45 -294 -100z"/>
<path d="M1771 10600 c-29 -110 -8 -227 45 -260 119 -73 140 -51 228 235 50 162 29 225 -76 225 -79 0 -168 -90 -197 -200z"/>
<path d="M2400 10389 c0 -157 466 -658 540 -581 22 23 -90 198 -250 388 -178 212 -290 287 -290 193z"/>
<path d="M2556 9571 c38 -99 94 -154 125 -124 30 31 0 112 -69 180 -98 98 -110 86 -56 -56z"/>
<path d="M3161 9558 c30 -79 118 -167 197 -197 139 -53 209 -661 76 -661 -36 0 -194 143 -350 318 -156 175 -284 276 -284 224 0 -52 113 -216 252 -366 139 -149 283 -419 320 -599 l67 -327 123 400 c188 613 162 837 -127 1105 -305 283 -350 299 -274 103z"/>
<path d="M1587 9395 c-55 -195 -46 -495 16 -495 132 0 208 329 100 437 -57 57 -109 83 -116 58z"/>
<path d="M24121 8960 c-270 -253 -566 -460 -656 -460 -91 0 -165 -45 -165 -100 0 -256 462 -54 922 403 642 638 556 772 -101 157z"/>
<path d="M24767 9020 c-101 -112 -264 -354 -362 -537 -98 -183 -324 -419 -503 -524 -314 -185 -338 -185 -656 -14 -518 279 -641 85 -187 -296 l384 -323 304 210 c488 338 853 692 853 827 0 69 94 191 208 272 130 91 196 229 175 367 l-33 221 -183 -203z"/>
<path d="M17575 9042 c-119 -120 -87 -407 59 -529 160 -132 303 -29 176 128 -49 60 -105 192 -124 293 -20 101 -70 150 -111 108z"/>
<path d="M2400 8956 c0 -24 45 -72 100 -106 55 -34 100 -14 100 44 0 58 -45 106 -100 106 -55 0 -100 -20 -100 -44z"/>
<path d="M17 6650 c4 -1764 23 -2028 118 -1650 127 510 101 3198 -36 3535 -52 131 -85 -604 -82 -1885z"/>
<path d="M2600 8606 c0 -58 45 -106 100 -106 55 0 100 20 100 44 0 24 -45 72 -100 106 -55 34 -100 14 -100 -44z"/>
<path d="M11898 8248 c-70 -84 -107 -172 -83 -196 23 -24 97 45 165 153 145 232 96 258 -82 43z"/>
<path d="M24800 8300 c0 -55 45 -100 100 -100 55 0 100 45 100 100 0 55 -45 100 -100 100 -55 0 -100 -45 -100 -100z"/>
<path d="M2403 8175 c4 -144 237 -475 336 -475 36 0 -4 135 -89 300 -165 318 -252 380 -247 175z"/>
<path d="M3077 8144 c-31 -31 -24 -178 16 -325 72 -272 230 -323 290 -94 19 73 -16 62 -84 -25 -92 -120 -105 -85 -60 175 51 296 -19 412 -162 269z"/>
<path d="M15202 7981 c-1 -148 43 -297 98 -331 128 -79 128 252 0 450 -76 117 -97 91 -98 -119z"/>
<path d="M14056 7700 c82 -309 244 -500 244 -289 0 83 -70 238 -155 345 -149 186 -153 184 -89 -56z"/>
<path d="M24865 7625 c-43 -124 -132 -231 -197 -239 -162 -20 -474 -48 -743 -69 -124 -9 -225 -81 -225 -159 0 -140 335 -281 975 -409 279 -56 325 -37 325 134 0 153 -51 187 -225 150 l-225 -48 232 204 c149 131 220 287 197 433 l-36 228 -78 -225z m-465 -525 c0 -55 -93 -100 -206 -100 -113 0 -178 45 -144 100 34 55 127 100 206 100 79 0 144 -45 144 -100z"/>
<path d="M2420 7405 c68 -108 136 -182 154 -165 59 60 -96 360 -186 360 -49 0 -35 -88 32 -195z"/>
<path d="M16308 7458 c-4 -105 19 -164 52 -131 34 33 37 120 8 192 -32 80 -55 56 -60 -61z"/>
<path d="M18861 7325 c72 -310 301 -596 399 -499 35 36 -9 137 -98 226 -89 89 -162 249 -162 355 0 106 -46 193 -102 193 -60 0 -75 -113 -37 -275z"/>
<path d="M2807 7268 c-140 -367 -132 -572 13 -322 110 190 115 191 180 5 62 -179 70 -177 123 25 31 118 -4 296 -76 394 -123 167 -140 160 -240 -102z"/>
<path d="M19958 7246 c-110 -438 112 -1006 519 -1326 205 -161 474 -325 598 -363 124 -39 225 -112 225 -163 0 -51 228 -326 507 -610 425 -434 496 -559 441 -776 -79 -315 -160 -400 -221 -230 -70 196 -815 539 -1027 472 -275 -87 -508 384 -369 750 114 303 28 648 -137 546 -59 -36 -84 -128 -55 -203 29 -75 -13 -262 -92 -415 -255 -491 51 -961 690 -1060 482 -74 736 -295 975 -849 176 -407 388 -491 388 -155 0 84 56 134 125 111 69 -23 125 -123 126 -222 0 -100 112 -224 250 -277 l249 -96 -250 -109 -250 -109 275 -37 c164 -23 275 -100 275 -191 0 -121 101 -146 484 -119 390 28 478 6 451 -115 -21 -95 133 -232 416 -371 l449 -221 0 355 c0 271 -47 368 -199 408 -109 28 -175 90 -147 136 29 46 118 59 199 28 172 -66 206 217 38 320 -59 37 -321 79 -581 93 -583 31 -1210 249 -1210 420 0 70 -114 202 -254 294 -365 239 -446 445 -347 885 68 301 51 434 -81 615 -92 128 -224 233 -292 235 -68 2 -241 182 -386 400 -152 229 -485 522 -789 694 -551 311 -751 637 -751 1224 0 353 -156 374 -242 31z m4042 -5046 c130 -84 127 -97 -17 -98 -92 -1 -249 -33 -350 -71 -161 -60 -167 -48 -46 100 158 194 207 202 413 69z"/>
<path d="M20382 7336 c53 -102 154 -321 224 -486 96 -226 138 -258 168 -128 49 215 -179 698 -357 756 -99 33 -108 -2 -35 -142z"/>
<path d="M11718 7272 c-58 -71 -345 -215 -637 -322 -344 -125 -466 -206 -345 -231 102 -21 234 11 295 72 60 60 182 109 272 109 89 0 268 113 397 250 129 138 210 250 180 250 -31 0 -103 -58 -162 -128z"/>
<path d="M16700 7250 c0 -82 45 -150 100 -150 55 0 100 68 100 150 0 83 -45 150 -100 150 -55 0 -100 -67 -100 -150z"/>
<path d="M17239 7142 c34 -87 61 -267 61 -400 0 -133 34 -242 75 -242 41 0 69 135 63 300 -20 464 -30 500 -149 500 -61 0 -83 -71 -50 -158z"/>
<path d="M4445 6873 c-217 -358 -358 -673 -301 -673 64 0 576 914 535 955 -22 21 -127 -106 -234 -282z"/>
<path d="M14400 6950 c0 -149 43 -235 100 -200 55 34 100 124 100 200 0 76 -45 166 -100 200 -57 35 -100 -51 -100 -200z"/>
<path d="M20903 7125 c5 -112 289 -467 334 -418 71 76 -127 493 -234 493 -57 0 -102 -34 -100 -75z"/>
<path d="M21478 7044 c122 -85 222 -220 222 -300 0 -79 45 -144 100 -144 55 0 100 64 100 142 0 302 -131 458 -383 458 l-262 0 223 -156z"/>
<path d="M13474 6955 c-96 -70 -174 -156 -174 -191 0 -119 275 -65 393 77 157 190 -2 273 -219 114z"/>
<path d="M22468 6835 c-111 -111 37 -235 280 -235 363 0 552 -104 552 -303 0 -288 110 -497 261 -497 76 0 139 45 139 100 0 55 178 100 395 100 467 0 905 177 905 366 0 164 -50 167 -285 20 -202 -126 -1115 -34 -1115 113 0 196 -304 368 -675 383 -217 8 -422 -13 -457 -47z"/>
<path d="M2453 6503 c-209 -231 -333 -619 -333 -1043 0 -258 33 -347 102 -278 56 56 99 276 96 490 -6 480 64 598 381 643 309 44 397 342 100 342 -114 0 -269 -69 -346 -154z"/>
<path d="M13772 6572 c-27 -71 -234 -217 -459 -325 -435 -209 -527 -345 -238 -350 167 -3 167 -10 0 -136 -96 -73 -175 -184 -175 -247 0 -146 267 -149 357 -3 48 78 91 74 146 -16 102 -165 707 295 642 488 -25 73 -45 265 -45 425 0 297 -138 397 -228 164z"/>
<path d="M16507 6425 c6 -244 17 -252 93 -75 117 273 117 350 0 350 -55 0 -97 -124 -93 -275z"/>
<path d="M17793 6487 c-111 -207 -4 -381 235 -385 44 -1 50 -221 14 -488 -66 -499 80 -974 264 -860 52 32 166 -12 252 -98 168 -167 542 -214 542 -67 0 49 -112 118 -250 152 -172 43 -250 132 -252 286 -1 176 -21 192 -94 76 -147 -232 -337 348 -198 607 113 212 41 590 -113 590 -51 0 -93 90 -93 200 0 262 -163 255 -307 -13z"/>
<path d="M21336 6449 c-81 -211 143 -449 422 -449 392 0 707 -203 930 -600 216 -383 381 -500 709 -500 106 0 206 -96 240 -233 63 -253 434 -467 810 -467 445 0 553 100 553 511 0 389 0 389 -411 389 -329 0 -399 31 -351 154 49 127 -1 143 -279 91 -267 -50 -361 -25 -443 121 -78 139 -132 156 -220 68 -89 -87 -222 -6 -552 338 -352 368 -483 444 -696 403 -185 -35 -296 5 -379 138 -142 226 -255 239 -333 36z m3183 -1917 c-72 -29 -159 -26 -192 8 -33 33 26 56 131 52 117 -5 141 -28 61 -60z"/>
<path d="M9200 6000 c194 -125 300 -125 300 0 0 55 -101 99 -225 98 -182 -1 -196 -20 -75 -98z"/>
<path d="M2665 5853 c-60 -157 64 -290 171 -184 95 96 77 331 -25 331 -49 0 -115 -66 -146 -147z"/>
<path d="M5600 5856 c0 -79 45 -172 100 -206 55 -34 100 31 100 144 0 113 -45 206 -100 206 -55 0 -100 -65 -100 -144z"/>
<path d="M9827 5940 c33 -34 120 -37 192 -8 80 32 56 55 -61 60 -105 4 -164 -19 -131 -52z"/>
<path d="M11300 5900 c-90 -58 -102 -98 -31 -98 66 -1 147 43 181 98 77 124 42 124 -150 0z"/>
<path d="M14567 5933 c-98 -98 -82 -433 21 -433 49 0 110 113 136 250 47 242 -20 320 -157 183z"/>
<path d="M4500 5756 c0 -24 45 -72 100 -106 55 -34 100 -14 100 44 0 58 -45 106 -100 106 -55 0 -100 -20 -100 -44z"/>
<path d="M10827 5740 c33 -34 120 -37 192 -8 80 32 56 55 -61 60 -105 4 -164 -19 -131 -52z"/>
<path d="M18900 5617 c0 -212 94 -333 205 -264 99 61 -1 447 -117 447 -48 0 -88 -82 -88 -183z"/>
<path d="M19958 5650 c-40 -110 -114 -278 -165 -374 -133 -249 -115 -446 47 -508 193 -74 281 36 152 191 -75 91 -73 190 7 340 63 116 95 288 73 381 -36 147 -51 143 -114 -30z"/>
<path d="M24800 5600 c0 -55 45 -100 100 -100 55 0 100 45 100 100 0 55 -45 100 -100 100 -55 0 -100 -45 -100 -100z"/>
<path d="M5100 5362 c0 -83 45 -178 100 -212 55 -34 100 6 100 88 0 83 -45 178 -100 212 -55 34 -100 -6 -100 -88z"/>
<path d="M2647 5211 c35 -112 -8 -258 -106 -355 -237 -237 -134 -274 142 -50 163 133 213 248 168 391 -36 112 -109 203 -164 203 -55 0 -73 -85 -40 -189z"/>
<path d="M13716 5170 c-138 -167 -35 -570 146 -570 76 0 138 85 138 188 0 103 101 258 225 345 l225 157 -313 5 c-172 3 -361 -54 -421 -125z"/>
<path d="M5479 4710 c97 -159 405 -495 684 -746 363 -326 634 -708 948 -1335 424 -849 439 -909 427 -1754 -7 -481 27 -875 75 -875 48 0 86 394 85 875 -1 847 -17 906 -484 1825 -356 700 -659 1128 -1153 1625 -368 371 -690 675 -714 675 -24 0 35 -130 132 -290z"/>
<path d="M22600 4706 c0 -52 49 -124 108 -161 66 -41 85 -245 50 -531 -70 -555 115 -895 401 -735 96 54 341 75 545 48 217 -29 399 -4 439 62 42 68 -12 111 -141 111 -289 0 -749 309 -598 403 88 54 86 129 -8 305 -223 416 -796 775 -796 498z m597 -1150 c-2 -58 -69 -19 -150 88 -81 107 -146 242 -144 300 2 58 69 19 150 -88 81 -107 146 -242 144 -300z"/>
<path d="M13300 4350 c0 -82 45 -150 100 -150 55 0 100 68 100 150 0 83 -45 150 -100 150 -55 0 -100 -67 -100 -150z"/>
<path d="M18094 4343 c-214 -258 1 -648 506 -917 410 -217 485 -228 838 -112 371 121 398 114 625 -149 188 -219 237 -391 237 -829 0 -398 35 -541 125 -511 417 138 256 1264 -250 1749 l-280 269 -339 -183 c-356 -191 -556 -153 -556 107 0 99 -56 133 -157 94 -246 -94 -570 125 -512 347 66 252 -74 331 -237 135z"/>
<path d="M1879 3978 c-266 -409 -388 -678 -308 -677 90 1 550 812 493 868 -20 21 -104 -65 -185 -191z"/>
<path d="M2550 3900 c-34 -55 -14 -100 44 -100 58 0 106 45 106 100 0 55 -20 100 -44 100 -24 0 -72 -45 -106 -100z"/>
<path d="M24400 3639 c0 -196 39 -245 158 -200 87 34 222 61 300 61 229 0 163 271 -83 337 -350 94 -375 80 -375 -198z"/>
<path d="M10002 3332 c4 -126 1398 -1597 1398 -1474 0 59 -112 213 -250 342 -137 129 -251 283 -253 342 -2 60 -205 280 -450 490 -246 210 -446 345 -445 300z"/>
<path d="M20713 3266 c-130 -157 -51 -274 137 -202 71 27 159 2 196 -57 99 -160 454 -129 454 39 0 296 -587 460 -787 220z"/>
<path d="M24050 3229 c-349 -84 -380 -207 -68 -275 166 -36 402 -154 525 -260 285 -248 493 -248 493 -1 0 121 -84 209 -225 236 l-225 44 225 13 c127 8 225 79 225 164 0 151 -483 191 -950 79z"/>
<path d="M1308 3015 c-59 -111 -106 -261 -104 -333 2 -73 73 -4 158 152 84 156 131 306 104 333 -27 28 -98 -41 -158 -152z"/>
<path d="M6403 3079 c-3 -62 437 -752 553 -868 24 -24 44 30 44 121 0 156 -591 896 -597 747z"/>
<path d="M9300 2569 c0 -18 142 -164 315 -325 307 -285 309 -174 4 181 -130 152 -319 237 -319 144z"/>
<path d="M0 1425 c0 -793 36 -1123 125 -1159 94 -38 88 -77 -25 -157 -110 -78 95 -106 775 -107 940 -2 1145 89 650 290 -470 189 -977 613 -946 791 25 143 15 145 -71 18 -171 -255 -315 21 -369 707 -79 996 -139 831 -139 -383z"/>
<path d="M21553 2335 c169 -379 5 -1335 -228 -1335 -126 0 -143 99 -96 550 57 558 -37 708 -225 357 -132 -246 -134 -764 -5 -1006 55 -102 257 -237 450 -301 237 -78 371 -194 412 -358 64 -255 229 -312 403 -138 57 57 298 127 537 155 384 47 418 35 304 -103 -91 -110 -95 -156 -14 -156 63 0 139 61 168 136 31 83 281 161 630 197 318 33 649 88 737 122 123 47 147 13 105 -146 -29 -114 -101 -178 -158 -142 -60 37 -74 15 -33 -52 40 -63 159 -115 266 -115 166 0 194 72 194 500 0 352 -40 500 -135 500 -74 0 -287 78 -475 172 -244 124 -544 167 -1061 152 -635 -18 -714 0 -658 145 50 129 23 150 -118 96 -144 -55 -158 -42 -69 66 84 101 79 181 -20 317 -154 210 -323 49 -223 -211 36 -92 12 -138 -59 -114 -64 21 -167 216 -228 432 -70 250 -178 406 -297 429 -149 29 -170 -1 -104 -149z m2647 -1335 c116 -75 87 -97 -131 -98 -162 -1 -255 40 -219 98 77 124 158 124 350 0z m-625 -69 c-96 -25 -254 -25 -350 0 -96 25 -17 46 175 46 193 0 271 -21 175 -46z m-1175 -570 c0 -22 -67 -66 -150 -97 -82 -32 -150 -14 -150 39 0 53 68 97 150 97 83 0 150 -18 150 -39z"/>
<path d="M19265 2253 c-60 -157 64 -290 171 -184 95 96 77 331 -25 331 -49 0 -115 -66 -146 -147z"/>
<path d="M1216 2100 c0 -137 22 -194 50 -125 28 69 28 181 0 250 -28 69 -50 13 -50 -125z"/>
<path d="M2476 2134 c-137 -138 -193 -144 -321 -38 -168 139 -205 37 -66 -181 96 -152 379 -45 606 230 173 208 -8 199 -219 -11z"/>
<path d="M6541 2014 c160 -180 191 -367 188 -1115 -3 -494 35 -899 83 -899 135 0 102 1617 -38 1892 -68 133 -191 264 -274 290 -110 35 -99 -10 41 -168z"/>
<path d="M1647 1695 c-95 -154 35 -253 163 -125 72 72 74 128 6 170 -56 35 -132 15 -169 -45z"/>
<path d="M6200 1743 c0 -32 76 -133 169 -225 159 -157 165 -156 100 15 -38 101 -69 202 -69 225 0 23 -45 42 -100 42 -55 0 -100 -26 -100 -57z"/>
<path d="M7121 800 c3 -831 5 -839 97 -336 59 325 58 636 -3 850 -81 281 -96 196 -94 -514z"/>
<path d="M19486 1375 c-21 -344 29 -1019 80 -1072 24 -26 85 17 133 96 76 122 117 118 278 -28 104 -94 241 -171 306 -171 64 0 117 -36 117 -81 0 -44 225 -81 500 -81 275 0 500 16 500 35 0 84 -948 430 -1060 387 -164 -63 -273 86 -490 665 -190 510 -341 614 -364 250z"/>
<path d="M20300 1450 c0 -82 45 -150 100 -150 55 0 100 68 100 150 0 83 -45 150 -100 150 -55 0 -100 -67 -100 -150z"/>
<path d="M1500 1268 c0 -78 -28 -284 -62 -455 -38 -187 -22 -313 39 -313 121 0 215 793 101 863 -43 27 -78 -16 -78 -95z"/>
<path d="M6248 1139 c43 -104 93 -386 111 -626 50 -695 155 -624 121 82 -21 440 -74 654 -171 686 -104 34 -120 -3 -61 -142z"/>
<path d="M10200 509 c83 -47 262 -119 399 -161 223 -69 235 -60 113 88 -75 90 -255 163 -399 161 -196 -2 -225 -25 -113 -88z"/>
<path d="M16349 299 c-99 -110 -152 -230 -116 -265 36 -36 176 54 311 200 147 158 194 266 117 266 -72 0 -212 -90 -312 -201z"/>
<path d="M11100 106 c0 -58 45 -106 100 -106 55 0 100 20 100 44 0 24 -45 72 -100 106 -55 34 -100 14 -100 -44z"/>
<path d="M18150 100 c-34 -55 -14 -100 44 -100 58 0 106 45 106 100 0 55 -20 100 -44 100 -24 0 -72 -45 -106 -100z"/>
<path d="M23450 100 c-34 -55 -17 -100 38 -100 55 0 128 45 162 100 34 55 17 100 -38 100 -55 0 -128 -45 -162 -100z"/>
</g>
</svg>