<svg xmlns="http://www.w3.org/2000/svg" version="1.0" width="250" height="250" viewBox="0 0 250.000000 250.000000" preserveAspectRatio="xMidYMid meet">
<metadata>
Created by potrace 1.10, written by Peter Selinger 2001-2011
</metadata>
<g transform="translate(0.000000,250.000000) scale(0.010000,-0.010000)" fill="#555555" stroke="none">
<path d="M2290 23825 c-6 -646 -23 -1512 -39 -1925 -16 -412 -57 -2122 -91 -3800 -117 -5785 -166 -7954 -209 -9300 -24 -742 -74 -3026 -112 -5075 l-68 -3725 265 0 264 0 0 1100 c0 605 35 1100 78 1100 43 0 174 -68 292 -150 201 -141 210 -209 157 -1100 l-56 -950 962 0 963 0 -63 462 c-62 451 -58 459 155 344 184 -98 209 -172 154 -461 l-64 -345 755 0 755 0 -19 275 c-15 218 29 282 212 308 280 40 519 -142 519 -395 0 -163 79 -188 586 -188 571 0 585 6 538 250 -62 328 151 328 276 0 126 -332 296 -318 315 25 l15 275 42 -275 c53 -352 424 -395 435 -50 l7 225 108 -225 c138 -286 300 -292 259 -9 -45 311 199 347 276 41 57 -227 116 -257 501 -257 432 0 436 3 377 300 -40 199 -20 300 59 300 65 0 111 -79 101 -175 -36 -356 12 -425 295 -425 261 0 288 31 275 314 -21 448 208 475 388 45 140 -336 178 -359 598 -359 387 0 449 29 449 207 0 320 187 593 407 593 203 0 231 -43 337 -525 84 -386 336 -352 375 50 39 406 202 399 320 -13 108 -374 261 -411 261 -62 0 154 57 250 148 250 82 0 176 -112 211 -250 81 -323 241 -323 241 0 0 156 57 250 150 250 93 0 150 -94 150 -250 0 -156 57 -250 150 -250 86 0 150 90 150 212 0 177 25 192 149 89 82 -68 124 -164 94 -212 -30 -49 -11 -89 43 -89 53 0 120 56 148 125 40 99 70 98 142 -4 65 -93 340 -121 982 -100 840 27 874 37 592 163 -593 266 -2249 715 -3165 859 -1342 212 -2886 360 -3235 311 -165 -24 -660 -74 -1100 -112 -440 -38 -878 -109 -973 -158 -95 -49 -500 -83 -900 -76 -400 6 -1087 5 -1527 -3 -1616 -31 -2938 459 -3156 1172 -150 489 -246 5079 -108 5164 55 34 401 -51 769 -189 368 -139 855 -253 1082 -253 227 -1 616 -73 863 -159 589 -206 2086 -228 3761 -55 2071 213 4587 73 5939 -332 248 -74 781 -192 1185 -262 l734 -127 245 -534 c235 -514 244 -614 238 -2607 -4 -1140 -25 -2242 -46 -2448 -35 -338 -16 -375 194 -375 214 0 239 54 295 625 33 344 45 1514 25 2600 -26 1491 -6 1975 85 1975 165 0 316 -198 397 -521 37 -149 132 -324 211 -390 120 -100 132 -455 75 -2204 l-69 -2085 259 0 259 0 7 3161 c4 1738 26 3190 48 3226 23 37 69 1551 102 3365 34 1814 86 3883 115 4598 29 715 71 3404 94 5975 40 4599 38 4675 -156 4675 -185 0 -198 -76 -205 -1275 -21 -3078 -79 -6594 -133 -8025 -32 -852 -78 -3012 -102 -4800 -23 -1787 -74 -3792 -114 -4455 l-71 -1205 -385 345 c-291 262 -359 378 -278 476 67 80 123 1008 149 2459 23 1282 63 2713 90 3180 51 909 203 8986 200 10650 -1 550 -41 1371 -89 1825 -82 775 -102 825 -323 825 -214 0 -236 -44 -236 -457 0 -416 -14 -443 -157 -300 -87 86 -201 157 -255 157 -54 0 -145 135 -203 300 -124 356 -258 389 -303 75 -21 -147 -101 -225 -231 -225 -290 0 -317 324 -32 379 127 24 -5 50 -294 57 -517 14 -525 9 -525 -279 0 -375 422 -725 846 -703 496 26 532 10 697 -319 320 -643 184 -1085 -335 -1085 -203 0 -457 -66 -564 -147 -107 -81 -306 -148 -444 -150 -137 -3 -379 -71 -536 -154 -158 -82 -293 -149 -300 -149 -8 1 -27 304 -44 675 -25 581 144 1653 341 2169 45 115 -4 156 -186 156 -225 0 -257 -56 -356 -625 l-108 -625 43 625 c49 714 -95 836 -237 200 -71 -317 -98 -357 -106 -158 -6 147 -39 339 -73 428 -55 145 -75 143 -197 -17 -127 -168 -135 -168 -138 -3 -3 148 -99 174 -628 172 -610 -4 -620 -8 -415 -179 116 -97 266 -280 334 -406 149 -279 59 -712 -148 -712 -108 0 -133 67 -90 239 72 285 -176 811 -450 958 -106 57 -455 102 -774 100 -549 -3 -896 -81 -2578 -586 -438 -132 -731 -174 -791 -114 -148 148 111 387 574 527 410 125 406 126 -486 155 -571 19 -982 -15 -1127 -93 -175 -94 -255 -95 -346 -4 -65 65 -244 118 -398 118 -232 0 -280 -43 -280 -250 0 -137 -42 -250 -93 -250 -240 0 -607 210 -607 348 0 113 -113 152 -442 152 -408 0 -447 -23 -507 -295 -38 -173 -149 -323 -268 -360 -149 -48 -191 -128 -157 -305 34 -176 2 -240 -120 -240 -247 0 -1432 407 -1606 552 -83 68 -249 154 -370 191 -121 37 -248 155 -282 262 -50 159 -154 195 -555 195 l-493 0 -10 -1175z m11897 80 c-68 -194 -175 -305 -294 -305 -161 0 -174 38 -90 257 84 221 55 300 -203 558 -351 352 -353 357 -125 414 106 26 302 -88 497 -288 292 -300 311 -359 215 -636z m-10798 122 c46 -26 29 -1930 -49 -5510 l-56 -2533 -311 -442 c-298 -423 -512 -582 -426 -317 32 101 142 6473 151 8819 l2 593 325 -293 c178 -162 342 -304 364 -317z m9910 308 c256 -215 303 -314 250 -524 -67 -266 -210 -407 -417 -409 -85 -2 -93 86 -28 311 90 316 -12 655 -244 810 -78 53 -76 74 7 75 65 1 259 -117 432 -263z m-3999 21 c0 -202 -75 -232 -790 -313 -619 -70 -630 -67 -521 137 84 157 232 219 587 247 261 20 530 45 599 55 69 10 125 -47 125 -126z m3446 -52 c233 -257 135 -853 -165 -1014 -193 -103 -204 -93 -133 124 103 312 106 694 9 911 -106 236 68 223 289 -21z m-566 -24 c140 -140 161 -643 31 -723 -49 -31 -121 67 -158 218 -38 150 -116 302 -174 338 -108 66 -26 287 107 287 41 0 128 -54 194 -120z m2937 -403 c-89 -89 -115 -35 -110 228 6 324 13 331 117 117 81 -169 79 -259 -7 -345z m-3456 148 c73 -96 134 -266 136 -378 4 -255 -265 -647 -443 -647 -108 0 -114 70 -28 349 78 254 76 418 -7 600 -97 212 -89 251 47 251 89 0 222 -79 295 -175z m-4115 -16 c157 -61 118 -89 -200 -141 -572 -95 -1046 -83 -1046 26 0 52 191 112 425 133 234 21 470 43 525 49 55 5 188 -24 296 -67z m3617 -418 c-66 -330 -342 -791 -475 -791 -121 0 -113 40 83 452 134 281 146 398 56 542 -148 237 -55 328 197 193 152 -81 184 -172 139 -396z m-609 203 c109 -176 -51 -791 -260 -1000 -302 -302 -399 -230 -231 173 113 270 127 426 52 590 -56 123 -75 250 -42 283 99 98 410 68 481 -46z m-1255 -269 c0 -96 -70 -310 -156 -474 -86 -165 -189 -457 -229 -650 -44 -212 -140 -363 -243 -383 -238 -45 -222 290 37 798 128 251 185 498 148 646 -51 204 -23 238 192 238 174 0 252 -54 251 -175z m601 -195 c0 -381 -391 -1024 -625 -1028 -124 -3 -87 195 150 799 231 590 475 707 475 229z m-5800 -2197 c0 -1356 -24 -2442 -54 -2412 -30 30 -56 1106 -58 2392 -3 2613 -6 2487 62 2487 28 0 50 -1110 50 -2467z m4500 2189 c0 -153 -70 -378 -156 -500 -85 -122 -166 -391 -179 -597 -14 -206 -67 -364 -120 -350 -52 14 -136 39 -187 56 -52 17 -41 173 25 364 65 184 117 438 117 563 0 358 180 742 348 742 100 0 152 -96 152 -278z m7248 17 c235 -359 109 -448 -766 -546 -803 -89 -4769 -1085 -5300 -1330 -182 -85 -692 -288 -1132 -451 -440 -163 -1031 -387 -1313 -499 -282 -112 -541 -175 -575 -141 -105 104 -69 228 65 228 70 0 367 158 659 350 292 193 553 350 579 350 26 0 304 117 616 260 1185 542 2324 923 3969 1327 935 230 1819 417 1964 416 145 -2 392 64 550 146 394 206 487 191 684 -110z m-11016 -3052 c-18 -3140 -101 -4047 -363 -3960 -89 30 -113 671 -95 2531 13 1371 24 2979 25 3574 1 1064 5 1081 226 1050 l225 -32 -18 -3163z m1359 2796 c-58 -107 -145 -496 -195 -864 -150 -1101 -214 -1418 -296 -1469 -115 -71 11 2488 125 2563 54 34 181 41 284 14 151 -40 166 -86 82 -244z m5827 95 c-71 -71 -118 -77 -118 -15 0 134 118 252 185 185 28 -28 -2 -105 -67 -170z m-6572 -203 c-23 -179 -62 -1247 -86 -2375 -33 -1501 -86 -2171 -200 -2500 l-156 -450 58 1000 c32 550 54 1780 47 2733 -6 954 15 1775 46 1825 31 51 119 92 195 92 97 0 125 -95 96 -325z m2354 -325 c-64 -77 -103 -322 -87 -545 20 -268 -24 -459 -128 -563 -125 -125 -168 -130 -208 -25 -55 145 133 956 333 1433 119 285 128 289 166 69 21 -126 -13 -293 -76 -369z m-400 263 c0 -49 -67 -279 -150 -513 -82 -234 -151 -588 -152 -788 -1 -270 -26 -324 -98 -212 -151 234 -117 858 69 1247 156 328 331 468 331 266z m7449 -688 c-39 -96 -94 -254 -122 -350 -82 -284 -176 -200 -195 175 -15 291 16 350 186 350 154 0 186 -42 131 -175z m707 84 c-31 -49 -146 -67 -256 -38 -275 72 -251 129 56 129 141 0 231 -41 200 -91z m-1220 -260 c54 -139 -80 -649 -170 -649 -21 0 -39 180 -39 400 0 404 103 527 209 249z m-453 -182 c49 -259 -67 -667 -191 -667 -57 0 -75 47 -39 104 35 58 -7 214 -94 347 -88 133 -159 292 -159 352 0 186 446 60 483 -136z m4454 -1324 c-13 -1250 12 -1568 124 -1611 76 -29 139 -124 139 -210 0 -126 -44 -116 -225 54 -261 244 -690 424 -1013 424 -222 0 -224 13 -202 1308 12 719 45 1331 74 1360 29 28 103 21 164 -17 72 -44 88 -226 45 -510 -55 -371 -39 -441 100 -441 91 0 158 56 150 125 -9 69 -11 319 -5 556 14 513 212 478 212 -37 0 -189 45 -344 100 -344 55 0 100 203 100 450 0 295 43 450 126 450 97 0 123 -363 111 -1557z m-5041 1164 c145 -270 124 -613 -55 -907 -151 -249 -151 -248 -95 109 43 270 7 424 -144 616 -252 320 -252 375 -6 375 109 0 244 -87 300 -193z m2564 -162 c35 -140 37 -281 4 -314 -98 -98 -364 180 -364 381 0 280 286 227 360 -67z m1110 -945 c-11 -659 -52 -1199 -90 -1200 -159 0 -252 719 -183 1422 67 678 144 978 254 978 22 0 30 -540 19 -1200z m-4222 902 c225 -248 157 -942 -119 -1217 -181 -182 -186 -172 -183 409 3 381 -46 642 -134 726 -117 110 -129 79 -78 -193 33 -177 7 -582 -59 -900 l-119 -577 -78 450 c-43 248 -107 641 -141 875 -35 234 -108 425 -164 425 -65 0 -73 -203 -23 -575 111 -817 91 -1234 -76 -1550 -139 -264 -148 -240 -207 600 -34 481 -27 1033 15 1225 65 300 126 359 422 412 612 109 762 92 944 -110z m2579 -127 c23 -69 -4 -228 -60 -354 -81 -181 -157 -217 -366 -171 -180 39 -412 -26 -737 -208 -474 -265 -730 -263 -458 4 211 208 1312 854 1455 854 67 0 142 -56 166 -125z m-4627 -374 c-53 -185 -69 -789 -36 -1343 48 -804 28 -1079 -99 -1358 -152 -336 -158 -288 -137 1210 16 1160 58 1603 161 1727 192 231 225 160 111 -236z m448 -876 c-2 -904 -46 -1372 -150 -1607 -139 -311 -147 -247 -139 1050 9 1316 71 1832 223 1832 37 0 67 -574 66 -1275z m-885 850 c-33 -124 -62 -315 -63 -425 -3 -166 -20 -174 -100 -50 -161 250 -122 700 62 700 119 0 145 -60 101 -225z m-420 -324 c41 -216 8 -520 -87 -798 -94 -278 -144 -730 -130 -1182 19 -589 -15 -789 -175 -1026 -144 -215 -199 -464 -200 -915 0 -341 -46 -665 -101 -720 -149 -149 -122 1688 29 1959 124 224 346 2026 317 2577 -23 425 -14 454 143 454 79 0 167 -149 204 -349z m-646 -1105 c-56 -603 -186 -1343 -289 -1646 -143 -422 -169 -667 -109 -1050 81 -519 -52 -1153 -257 -1220 -61 -20 -111 106 -115 292 -5 181 -40 559 -79 842 -61 439 -26 631 244 1331 342 886 546 2405 323 2405 -63 0 -118 -34 -121 -75 -119 -1413 -186 -1749 -447 -2240 -271 -511 -283 -591 -269 -1772 11 -923 -23 -1310 -134 -1525 -82 -158 -162 -288 -177 -288 -59 0 -101 794 -89 1690 14 989 143 1556 634 2778 158 395 288 897 288 1117 0 345 37 411 275 494 151 53 308 66 349 29 41 -37 29 -560 -27 -1162z m-922 232 c-87 -291 -303 -933 -480 -1428 -381 -1071 -531 -2333 -373 -3150 93 -482 82 -595 -90 -915 l-196 -364 16 1614 c9 1042 60 1721 141 1915 69 165 189 538 266 828 77 290 231 706 342 924 111 218 219 588 241 822 21 234 43 446 48 471 6 25 63 -8 127 -72 90 -90 80 -242 -42 -645z m6325 522 c0 -55 -70 -100 -156 -100 -86 0 -128 45 -94 100 34 55 104 100 156 100 52 0 94 -45 94 -100z m856 -53 c-217 -164 -356 -189 -356 -64 0 140 123 217 342 214 204 -3 205 -6 14 -150z m-5297 -1079 c-10 -1000 -41 -1186 -260 -1600 -137 -257 -282 -468 -324 -468 -120 0 -89 131 132 554 168 321 197 508 150 985 -49 505 -12 782 201 1536 86 303 112 50 101 -1007z m-2304 566 c-95 -378 -187 -207 -100 184 41 183 95 274 120 203 24 -71 15 -245 -20 -387z m-493 41 c-77 -179 -252 -572 -388 -875 -261 -578 -465 -1391 -487 -1930 -10 -278 -21 -263 -82 112 -79 483 124 1824 335 2218 73 138 115 302 92 366 -47 127 337 434 542 434 103 0 100 -66 -12 -325z m5818 105 c66 -66 120 -223 120 -350 0 -126 43 -230 95 -230 52 0 216 -112 364 -250 149 -137 346 -250 439 -250 248 0 308 -102 190 -322 -129 -241 -33 -678 148 -678 136 0 304 454 424 1150 58 335 79 362 130 169 33 -127 105 -226 160 -219 107 13 111 157 10 400 -37 90 14 198 126 268 150 94 234 87 402 -31 330 -231 487 -628 526 -1334 30 -536 8 -653 -126 -680 -95 -19 -184 50 -215 169 -43 167 -131 200 -514 192 -394 -8 -470 -43 -519 -239 -96 -384 -6 -598 242 -571 160 18 251 -48 321 -231 130 -343 125 -364 -78 -308 -96 26 -336 75 -534 108 -345 58 -363 45 -485 -325 -70 -212 -111 -467 -92 -568 49 -253 286 -314 286 -74 0 252 350 565 546 489 212 -81 193 -237 -46 -365 -210 -112 -276 -541 -100 -650 55 -34 100 17 100 114 0 198 454 -363 558 -689 100 -316 -228 -575 -728 -575 -518 0 -930 191 -1226 568 -118 149 -268 280 -334 291 -908 144 -2044 708 -2255 1120 -48 94 -115 381 -148 639 -54 414 -21 534 291 1050 209 347 410 570 497 553 98 -20 145 57 145 238 0 325 331 894 736 1266 339 311 377 322 544 155z m401 -133 c-31 -30 -87 25 -125 124 -54 142 -42 154 56 56 69 -68 99 -149 69 -180z m5654 -499 c-8 -384 -20 -912 -25 -1173 -6 -261 -51 -475 -101 -475 -50 0 -94 497 -97 1105 -3 607 -35 1152 -71 1209 -39 63 11 90 122 69 163 -32 185 -126 172 -735z m-12735 252 c0 -55 -40 -100 -90 -100 -225 0 -870 -2302 -1107 -3950 -63 -440 -180 -1182 -259 -1650 -80 -468 -144 -991 -144 -1164 0 -173 -89 -420 -199 -550 l-198 -236 -189 241 c-125 159 -246 218 -358 175 -128 -49 -156 -23 -115 110 49 154 542 1973 753 2774 44 165 148 457 231 650 157 360 289 764 779 2387 156 515 384 1044 507 1175 236 251 389 305 389 138z m7886 -89 c94 -60 102 -107 25 -154 -127 -79 -311 10 -311 149 0 116 107 118 286 5z m-7014 -986 c-168 -509 -327 -903 -353 -877 -89 89 205 1239 399 1557 106 175 208 301 227 281 18 -20 -104 -452 -273 -961z m10499 50 c601 -549 757 -929 807 -1963 53 -1106 -86 -1704 -590 -2539 -158 -262 -288 -497 -288 -523 0 -130 -932 -1237 -1262 -1500 -207 -165 -570 -491 -806 -725 -236 -234 -457 -425 -492 -425 -274 0 -2340 1825 -2340 2067 0 67 101 240 225 384 210 243 294 264 1188 295 1071 38 1265 108 1633 590 316 414 316 526 4 985 -309 455 -309 522 1 1064 137 240 249 510 249 600 0 91 163 295 361 453 335 267 358 319 307 700 -30 227 -87 517 -125 645 -69 228 -60 232 418 163 269 -38 588 -160 710 -271z m-6471 75 c-68 -82 -140 -150 -159 -150 -19 0 -9 68 23 150 31 83 103 150 159 150 58 0 49 -64 -23 -150z m-7329 -1127 c-22 -150 -41 -3 -40 327 1 330 19 453 41 273 23 -180 22 -450 -1 -600z m6612 168 c-118 -344 -669 -1086 -808 -1089 -127 -3 -83 392 78 703 83 162 175 295 203 295 28 0 4 -87 -52 -193 -57 -107 -104 -242 -104 -300 0 -241 167 -75 445 440 327 608 417 661 238 144z m-6683 -941 c0 -192 -45 -350 -100 -350 -111 0 -133 298 -39 542 95 248 139 187 139 -192z m1942 -780 c-232 -130 -195 -1483 49 -1784 262 -322 329 -209 159 268 -142 398 -208 1437 -83 1313 36 -37 101 -320 143 -629 42 -308 189 -790 328 -1071 139 -280 236 -526 216 -546 -20 -21 -128 11 -239 71 -111 59 -341 108 -511 108 -330 0 -497 244 -489 717 5 330 176 1532 310 2183 l113 550 73 -550 c57 -429 42 -568 -69 -630z m524 405 c-28 -69 -50 -12 -50 125 0 138 22 194 50 125 28 -69 28 -181 0 -250z m4111 206 c-22 -65 -93 -136 -158 -158 -73 -24 -96 21 -58 119 69 181 276 219 216 39z m-977 -231 c0 -82 -44 -150 -97 -150 -53 0 -71 68 -39 150 31 82 75 150 97 150 21 0 39 -68 39 -150z m949 -710 c28 -458 438 -2346 613 -2821 88 -237 141 -450 118 -472 -23 -23 -276 117 -563 310 -561 378 -1607 943 -1746 943 -184 0 -1071 431 -1071 520 0 53 166 346 368 651 245 369 487 604 723 703 196 81 464 234 597 338 163 128 357 179 593 155 307 -32 353 -73 368 -327z m-6249 110 c0 -82 -45 -150 -100 -150 -55 0 -100 68 -100 150 0 82 45 150 100 150 55 0 100 -68 100 -150z m-552 -2150 c-123 -412 -281 -941 -352 -1175 -71 -235 -95 -460 -54 -500 72 -72 109 -83 383 -114 69 -8 191 -56 271 -107 120 -76 98 -130 -125 -305 -149 -118 -271 -269 -271 -336 0 -68 -56 -179 -125 -247 -69 -69 -195 -334 -282 -589 l-156 -465 -175 904 c-134 695 -161 1181 -117 2094 101 2044 224 2472 820 2834 l285 173 61 -709 c49 -570 18 -854 -163 -1458z m3150 1625 c-1 -408 -29 -531 -98 -425 -166 256 -116 1000 67 1000 18 0 32 -259 31 -575z m12232 -1225 c-20 -193 -47 -1115 -60 -2050 -16 -1111 -66 -1769 -145 -1900 -103 -170 -113 -133 -72 250 104 959 113 1765 35 3082 -58 978 -47 1468 37 1718 l118 350 62 -550 c34 -302 45 -707 25 -900z m-7601 900 c-29 -110 -70 -200 -91 -200 -21 0 -38 90 -38 200 0 110 41 200 91 200 49 0 67 -90 38 -200z m769 -161 c383 -153 402 -182 402 -593 0 -512 -101 -791 -430 -1191 l-243 -295 -208 470 c-187 423 -419 628 -419 370 0 -55 -45 -100 -100 -100 -55 0 -100 68 -100 150 0 82 69 150 152 150 187 0 348 396 348 857 0 391 44 404 598 182z m1302 -645 c0 -58 -45 -78 -100 -44 -55 34 -100 82 -100 106 0 24 45 44 100 44 55 0 100 -48 100 -106z m5050 -1519 c0 -2864 -54 -4066 -166 -3725 -142 428 -132 4873 10 5139 62 116 123 211 135 211 11 0 21 -732 21 -1625z m-10965 1036 c146 -104 500 -258 788 -344 288 -85 796 -315 1130 -511 334 -196 631 -356 659 -356 302 0 2286 -1919 2585 -2500 127 -247 326 -536 442 -641 116 -104 367 -469 557 -809 191 -341 416 -677 500 -747 85 -70 154 -192 154 -271 0 -119 -186 -132 -1125 -79 -1351 76 -1375 82 -1375 362 0 122 -87 472 -193 778 -107 307 -309 942 -450 1412 -202 673 -336 931 -632 1220 -497 485 -1957 1440 -2412 1577 -299 90 -1269 481 -1398 562 -58 37 329 529 420 533 46 2 204 -82 350 -186z m-2252 -636 c-87 -456 -133 -470 -133 -42 0 202 44 367 98 367 56 0 71 -138 35 -325z m327 52 c-33 -33 -56 26 -52 131 5 117 28 141 60 61 29 -72 26 -159 -8 -192z m12377 -2010 c12 -1624 -13 -2151 -94 -2030 -69 101 -119 885 -134 2063 -21 1718 26 2348 164 2210 27 -27 56 -1036 64 -2243z m-6533 1525 c228 -533 256 -742 76 -562 -115 115 -391 1020 -311 1020 21 0 127 -206 235 -458z m-4304 -42 c216 -110 473 -201 571 -202 328 -5 1173 -540 1313 -833 119 -248 115 -326 -33 -600 -130 -243 -159 -487 -124 -1065 40 -684 195 -1822 322 -2367 102 -437 -1089 -456 -2732 -44 -202 50 -613 121 -915 158 -301 36 -593 100 -650 141 -56 42 -293 136 -527 210 -295 93 -425 190 -425 316 0 111 -98 207 -251 245 -361 91 -425 276 -331 958 115 846 386 1394 884 1792 235 187 626 541 868 785 243 244 541 498 661 565 338 187 936 162 1369 -59z m10400 50 c0 -82 -44 -150 -97 -150 -53 0 -71 68 -39 150 31 83 75 150 97 150 21 0 39 -67 39 -150z m-5300 -356 c0 -113 -45 -178 -100 -144 -55 34 -100 127 -100 206 0 79 45 144 100 144 55 0 100 -93 100 -206z m4928 -1976 c-35 -155 -87 -199 -153 -133 -135 135 -157 1380 -33 1815 91 320 106 273 170 -550 38 -495 46 -1005 16 -1132z m363 710 c11 -700 -4 -1248 -33 -1219 -139 139 -155 2491 -17 2491 16 0 38 -573 50 -1272z m-2916 -431 c454 -389 824 -762 823 -828 -1 -65 -88 -7 -193 130 -250 324 -384 187 -157 -159 244 -373 1145 -2571 1090 -2659 -25 -41 -159 -30 -298 23 -139 53 -390 96 -557 96 -249 0 -292 32 -236 175 79 203 81 217 65 450 -7 104 -93 175 -210 175 -126 0 -272 136 -401 375 -112 206 -433 735 -714 1175 -280 440 -623 1015 -760 1278 -230 438 -351 1012 -253 1199 22 42 251 -103 508 -322 257 -220 839 -718 1293 -1108z m1975 -81 c-167 -167 -271 508 -117 757 39 62 22 143 -36 179 -73 45 -66 116 23 223 110 133 135 61 160 -470 17 -346 3 -655 -30 -689z m-6683 645 c307 -259 384 -688 192 -1072 -86 -172 -132 -352 -102 -400 29 -48 8 -336 -49 -640 -74 -399 -70 -628 14 -826 107 -254 119 -228 178 380 45 467 137 762 326 1040 l263 387 66 -290 c37 -160 181 -638 322 -1063 199 -605 232 -823 150 -1000 -105 -226 -106 -225 -229 73 -67 165 -146 516 -173 779 -31 290 -95 464 -163 442 -180 -59 -189 -547 -20 -1044 87 -254 143 -475 126 -492 -17 -17 -332 -49 -699 -70 l-669 -39 0 279 c0 153 38 293 86 312 109 42 -85 1483 -200 1483 -47 0 -89 -56 -93 -125 -4 -69 -46 -35 -93 75 -159 369 -109 1134 100 1523 118 221 173 454 135 574 -69 219 -57 212 532 -286z m6188 -439 c-32 -32 -110 -7 -174 57 -87 87 -82 183 23 393 l139 278 36 -335 c19 -184 9 -361 -24 -393z m-455 -22 c0 -55 -45 -100 -100 -100 -55 0 -100 45 -100 100 0 55 45 100 100 100 55 0 100 -45 100 -100z m-5140 -373 c-33 -33 -56 26 -52 131 5 117 28 141 60 61 29 -72 26 -159 -8 -192z m-8059 -408 c1 -285 374 -1417 561 -1701 157 -239 177 -564 182 -2985 l6 -2718 -381 214 c-209 118 -426 269 -481 336 -91 109 -101 1349 -49 6100 6 559 45 995 86 969 41 -25 75 -122 76 -215z m13998 111 c620 -435 1590 -1946 1784 -2780 51 -220 126 -481 167 -580 66 -157 38 -171 -212 -110 -677 164 -695 184 -886 1006 -196 847 -588 1734 -766 1734 -78 0 -79 -37 -5 -127 139 -168 645 -1681 582 -1743 -50 -50 -420 712 -695 1434 -87 228 -250 565 -362 750 -113 185 -205 392 -206 461 0 178 313 154 599 -45z m-485 -1305 c628 -1359 800 -1824 652 -1767 -71 27 -186 216 -255 420 -70 205 -188 507 -261 672 -690 1555 -688 1550 -595 1550 30 0 236 -394 459 -875z m2752 550 c-28 -69 -50 -12 -50 125 0 138 22 194 50 125 28 -69 28 -181 0 -250z m-269 -1000 c-2 -259 -23 -291 -100 -159 -54 92 -70 238 -36 325 94 246 139 190 136 -166z m263 -48 c-33 -33 -56 26 -52 131 5 117 28 141 60 61 29 -72 26 -159 -8 -192z m-15213 -6990 c56 -448 38 -595 -88 -721 -145 -145 -159 -96 -159 563 0 857 148 953 247 158z m675 -340 c34 -230 5 -297 -127 -297 -176 0 -350 530 -236 715 97 156 315 -96 363 -418z m8405 -204 c-36 -137 -87 -173 -154 -106 -119 119 -14 450 117 369 50 -31 67 -149 37 -263z m-6845 -57 c-46 -237 -349 -409 -483 -275 -168 168 -2 439 269 439 175 0 237 -48 214 -164z m4718 -98 c0 -82 -45 -122 -100 -88 -55 34 -100 129 -100 212 0 82 45 122 100 88 55 -34 100 -129 100 -212z"/>
<path d="M3600 24850 c0 -92 93 -150 239 -150 132 0 266 68 297 150 43 113 -16 150 -239 150 -197 0 -297 -50 -297 -150z"/>
<path d="M22078 24475 c-23 -289 -50 -2167 -61 -4175 -10 -2007 -62 -5518 -114 -7800 -52 -2282 -123 -6029 -158 -8325 l-63 -4175 209 0 c135 0 209 64 209 180 0 99 52 232 116 296 87 87 85 152 -11 267 -86 105 -115 419 -90 1002 29 710 71 885 252 1066 145 145 277 194 400 146 101 -38 201 -56 223 -38 22 17 44 326 50 686 11 725 230 1195 558 1195 300 0 434 -616 239 -1103 -120 -299 -128 -428 -37 -597 107 -199 130 -204 291 -58 380 344 443 215 374 -761 -69 -966 -128 -1077 -570 -1079 -329 -2 -495 169 -495 510 0 399 98 588 304 588 134 0 192 -88 215 -325 35 -367 215 -440 262 -107 53 372 -250 832 -548 832 -355 0 -526 -261 -530 -812 -5 -690 268 -988 904 -988 l493 0 0 -450 c0 -371 33 -450 184 -450 170 0 190 139 250 1725 36 949 66 6574 66 12500 l0 10775 -206 0 c-192 0 -195 -14 -50 -222 86 -122 156 -344 156 -493 0 -353 -441 -882 -683 -818 -162 42 -177 -12 -139 -535 33 -474 5 -624 -155 -807 -286 -328 -472 -277 -650 176 -124 314 -139 534 -70 1018 48 339 64 654 36 699 -89 144 -223 89 -289 -118 -35 -110 -123 -200 -195 -200 -161 0 -252 312 -254 875 -1 351 -34 425 -191 425 -158 0 -198 -90 -232 -525z m709 -1209 c61 -74 85 -161 52 -194 -33 -32 40 -358 161 -723 262 -787 527 -985 950 -708 298 195 450 532 450 996 0 177 54 377 120 443 335 335 356 163 358 -2964 l2 -3084 -365 21 c-343 19 -374 50 -523 509 -252 780 -981 1146 -1353 678 -61 -77 -140 -140 -176 -140 -35 0 -42 1069 -15 2375 28 1306 50 2499 51 2650 1 298 112 353 288 141z m775 -5421 c105 -160 176 -501 190 -920 25 -733 133 -866 386 -479 187 285 475 330 662 104 169 -204 86 -1334 -107 -1456 -79 -50 -267 -92 -418 -92 -227 -2 -275 42 -275 248 0 276 93 316 288 125 104 -101 123 -79 95 115 -18 132 -115 289 -214 350 -148 89 -218 66 -375 -126 -265 -323 -245 -479 110 -833 247 -247 360 -293 600 -245 l296 59 0 -841 0 -841 -337 54 c-295 48 -368 13 -600 -291 -287 -377 -341 -840 -138 -1202 162 -289 275 -368 441 -304 208 80 160 442 -66 501 -356 93 -178 829 200 829 284 0 433 -367 428 -1058 -5 -633 -146 -1044 -357 -1039 -174 5 -420 212 -558 472 -172 322 -352 288 -267 -50 37 -151 71 -387 74 -525 8 -387 -420 -1204 -697 -1331 -217 -98 -276 -78 -486 167 -225 262 -237 335 -190 1196 28 505 75 1976 104 3268 29 1293 95 2665 147 3050 53 385 97 728 99 762 2 33 96 180 210 325 262 332 541 336 755 8z m1095 -10638 c-35 -1633 -102 -3101 -148 -3263 -90 -314 -105 -293 -298 417 -124 459 -458 939 -653 939 -374 0 -858 -806 -858 -1431 0 -264 -55 -362 -253 -452 -207 -95 -264 -88 -311 34 -32 82 -31 218 1 302 33 84 62 1277 67 2650 4 1373 29 2497 55 2497 26 0 153 -69 281 -153 177 -116 297 -128 497 -52 300 114 863 935 863 1258 0 291 39 314 458 265 l364 -42 -65 -2969z"/>
<path d="M24000 24607 c0 -310 44 -407 208 -459 266 -85 355 6 194 199 -69 84 -104 265 -78 402 38 195 7 251 -138 251 -150 0 -186 -76 -186 -393z"/>
<path d="M4925 6634 c-69 -28 -125 -200 -125 -383 0 -283 47 -349 325 -449 301 -110 311 -127 134 -235 -342 -209 -553 -457 -622 -732 -54 -216 -14 -315 199 -498 146 -126 313 -353 370 -504 89 -234 73 -298 -111 -436 -202 -153 -205 -173 -44 -333 109 -110 247 -148 385 -107 359 106 484 352 437 863 -47 517 48 680 397 680 182 0 232 -58 241 -275 22 -548 -34 -761 -242 -930 -337 -273 -92 -469 555 -444 514 19 526 26 508 309 -84 1328 -54 2543 66 2688 176 212 10 382 -367 375 -155 -2 -528 -11 -831 -19 -479 -13 -576 18 -754 240 -203 255 -285 285 -521 190z m1675 -1334 c0 -283 -22 -300 -400 -300 -460 0 -537 193 -178 444 364 255 578 202 578 -144z"/>
<path d="M10306 6457 c-95 -114 -78 -165 88 -254 261 -139 263 -319 5 -481 -176 -110 -215 -96 -307 107 -154 337 -470 514 -650 364 -190 -157 -180 -362 24 -476 149 -83 145 -104 -44 -205 -138 -74 -231 -78 -272 -12 -108 175 -434 108 -502 -105 -35 -112 -11 -269 55 -349 66 -79 96 -203 68 -277 -28 -73 -16 -320 26 -550 55 -301 39 -448 -56 -527 -267 -221 -358 14 -329 846 16 449 -6 871 -48 939 -103 167 -385 155 -620 -27 -176 -136 -179 -161 -33 -276 135 -106 153 -288 112 -1150 -40 -826 -23 -1026 89 -1035 301 -24 644 36 763 133 84 68 166 69 250 3 69 -55 370 -95 670 -88 l544 13 26 943 c22 790 58 975 228 1144 111 111 229 174 263 140 34 -34 22 -497 -26 -1028 -94 -1019 -15 -1341 296 -1222 114 44 173 269 220 841 80 975 132 1232 252 1232 181 0 325 -847 273 -1600 -68 -969 -128 -1115 -423 -1040 -288 72 -600 -338 -500 -655 99 -311 468 -252 843 136 576 593 781 2149 425 3209 -158 468 -189 499 -492 485 -260 -12 -324 24 -324 182 0 586 -589 1008 -894 640z m-635 -2117 c-60 -802 -93 -900 -264 -794 -115 71 -150 1377 -40 1487 36 37 133 67 214 67 123 0 138 -130 90 -760z"/>
<path d="M15961 6043 c-33 -87 -15 -241 39 -344 119 -220 130 -400 25 -397 -200 4 -366 213 -370 466 -4 215 -59 290 -230 314 -270 38 -402 -218 -224 -433 69 -84 80 -149 23 -149 -55 0 -157 70 -228 155 -70 85 -189 131 -263 102 -74 -28 -246 -9 -383 43 -289 110 -510 47 -593 -167 -37 -97 13 -170 139 -203 109 -28 226 -140 260 -249 83 -260 -51 -1598 -175 -1751 -54 -66 -83 -188 -64 -271 29 -134 68 -134 347 2 347 170 434 421 439 1277 3 435 43 541 265 703 l263 191 -68 -741 c-37 -407 -93 -950 -124 -1205 -63 -510 42 -657 349 -492 161 86 205 261 264 1054 40 524 106 952 148 952 235 0 284 -299 200 -1203 -56 -593 -54 -983 6 -1043 166 -166 378 168 444 696 129 1046 200 1297 377 1331 214 41 230 -341 52 -1205 -98 -474 -96 -626 11 -797 122 -195 88 -250 -429 -704 -761 -667 -750 -1042 16 -575 472 288 598 253 902 -247 321 -529 463 -562 610 -142 92 264 77 356 -97 601 -113 158 -299 338 -412 399 -201 107 -199 117 101 375 250 214 329 387 420 914 214 1236 229 1493 99 1650 -195 235 -400 -5 -400 -468 0 -507 -195 -1282 -323 -1282 -54 0 -75 101 -45 225 159 670 182 1381 54 1669 -149 337 -296 384 -486 156 -181 -218 -300 -184 -300 85 0 415 -208 865 -399 865 -99 0 -207 -71 -240 -157z"/>
<path d="M12692 5652 l-257 -140 43 -1131 c24 -622 81 -1170 125 -1218 166 -178 603 -85 848 179 318 343 390 647 294 1234 -43 261 -67 557 -54 658 33 245 -271 567 -531 562 -116 -2 -326 -67 -468 -144z m544 -967 c96 -917 82 -1085 -86 -1085 -122 0 -150 161 -150 850 0 988 142 1130 236 235z"/>
<path d="M23573 34 c68 -27 203 -29 300 -3 97 25 42 47 -123 50 -165 2 -245 -19 -177 -47z"/>
</g>
</svg>