<svg xmlns="http://www.w3.org/2000/svg" version="1.0" width="250" height="250" viewBox="0 0 250.000000 250.000000" preserveAspectRatio="xMidYMid meet">
<metadata>
Created by potrace 1.10, written by Peter Selinger 2001-2011
</metadata>
<g transform="translate(0.000000,250.000000) scale(0.010000,-0.010000)" fill="#555555" stroke="none">
<path d="M632 24775 c29 -124 83 -3847 120 -8275 36 -4427 81 -9242 98 -10700 18 -1457 37 -3359 41 -4225 8 -1330 32 -1575 159 -1575 130 0 199 399 171 1000 -1 28 -31 3672 -67 8100 -36 4428 -82 8883 -102 9900 -20 1018 -40 2784 -44 3925 -8 2041 -11 2075 -219 2075 -168 0 -200 -46 -157 -225z"/>
<path d="M1638 23325 c60 -1472 173 -16140 165 -21400 -3 -1622 20 -1925 143 -1925 117 0 137 128 103 650 -42 646 71 880 193 397 147 -588 694 -791 1421 -529 410 149 837 -12 837 -316 0 -236 153 -270 236 -52 97 252 -37 436 -446 616 -214 95 -390 224 -390 287 0 120 599 634 968 831 358 190 947 134 1417 -135 705 -403 1012 -293 360 129 -410 266 -1214 442 -1557 342 -131 -39 -466 -237 -744 -441 -470 -344 -641 -564 -782 -1004 -95 -298 -574 -207 -885 168 -209 253 -277 448 -290 839 -25 703 96 818 868 818 984 0 1193 403 695 1341 -168 316 -230 553 -189 719 116 461 1044 721 1379 385 85 -84 202 -343 261 -575 233 -925 425 -1064 926 -670 140 110 342 200 448 200 230 0 583 -352 441 -440 -161 -100 -13 -895 202 -1082 331 -290 697 -895 636 -1054 -45 -117 -159 -137 -512 -88 -415 57 -450 45 -394 -129 92 -291 -123 -348 -565 -149 -362 163 -439 166 -816 36 -337 -117 -426 -201 -471 -444 -73 -390 -7 -650 163 -650 98 0 119 85 75 303 -106 533 379 858 880 589 169 -90 191 -169 135 -500 -52 -308 -35 -392 80 -392 80 0 174 124 209 275 78 341 550 719 985 790 243 39 400 -4 611 -170 243 -191 274 -271 220 -559 -39 -207 -23 -336 41 -336 58 0 105 90 105 200 0 110 45 200 100 200 55 0 100 -90 100 -200 0 -170 67 -200 450 -200 248 0 450 14 450 31 0 125 -594 1218 -931 1714 -640 943 -843 1324 -1868 3505 -155 330 -425 983 -600 1450 -175 468 -467 1233 -648 1700 -182 468 -363 1053 -402 1300 -87 546 -318 1465 -402 1602 -34 54 -73 492 -86 973 -14 481 -106 1438 -205 2125 -207 1445 -178 2944 84 4350 343 1836 590 2808 786 3090 110 160 206 363 213 450 7 88 128 340 271 560 142 220 329 535 417 700 185 350 812 1030 1171 1272 l250 168 -356 5 c-224 3 -436 -69 -571 -195 -281 -261 -422 -253 -426 25 -3 217 -8 219 -147 35 -130 -172 -151 -174 -208 -25 -35 91 -154 165 -265 165 -186 0 -197 -44 -137 -575 93 -829 87 -929 -74 -1111 -156 -178 -966 -2482 -966 -2750 0 -195 -17 -198 -342 -49 -312 142 -516 2 -608 -414 -83 -381 -396 -726 -619 -683 -212 41 -519 620 -526 991 -8 414 423 1114 903 1466 1385 1017 1842 1641 1725 2359 -33 204 -105 399 -161 433 -247 153 -706 20 -1237 -360 -312 -224 -648 -407 -746 -407 -247 0 -489 381 -489 772 0 181 -45 328 -100 328 -194 0 -113 -887 100 -1100 302 -302 683 -245 1338 200 324 220 645 400 713 400 232 0 377 -292 319 -645 -82 -508 -432 -919 -1254 -1476 -1027 -696 -1434 -1421 -1299 -2313 82 -537 213 -744 553 -874 336 -127 475 -35 772 511 305 561 366 616 552 501 154 -95 166 -357 65 -1404 -118 -1230 -76 -1161 -698 -1155 -689 6 -1045 -238 -1285 -883 -148 -398 -156 -533 -54 -917 122 -454 578 -1032 578 -732 0 81 -47 194 -105 252 -58 58 -164 329 -237 603 -112 426 -109 541 17 790 320 632 970 847 1269 420 241 -344 191 -731 -144 -1113 -165 -188 -300 -390 -300 -450 0 -59 135 -246 300 -415 552 -565 302 -1442 -406 -1422 -449 13 -620 256 -544 772 55 374 49 387 -95 206 -192 -240 -201 -755 -18 -1005 90 -123 279 -194 555 -207 274 -13 467 -85 560 -207 159 -210 195 -537 59 -537 -50 0 -230 -131 -400 -290 -232 -216 -311 -378 -311 -636 0 -429 407 -917 690 -827 120 38 307 -38 524 -214 185 -150 354 -286 376 -301 22 -16 188 -670 369 -1455 182 -785 468 -1805 638 -2266 169 -462 285 -862 257 -890 -28 -29 -143 65 -254 207 -317 403 -1082 461 -1809 137 -578 -257 -1057 -719 -1137 -1098 -26 -119 -37 -394 -25 -611 18 -330 -21 -417 -238 -541 -143 -82 -337 -119 -432 -82 -153 58 -170 220 -150 1441 12 757 64 1431 117 1499 68 88 303 105 823 61 400 -34 839 -34 974 0 723 182 1262 1191 916 1718 -148 226 -226 248 -881 248 -462 0 -789 51 -913 141 -190 139 -190 144 1 355 106 117 342 284 524 370 233 111 330 225 330 388 0 197 -86 255 -575 389 -952 261 -1076 357 -1067 825 5 257 88 508 225 683 266 339 283 858 34 1084 -100 91 -213 165 -250 165 -119 0 -71 -210 83 -364 83 -83 150 -253 150 -378 0 -244 -345 -628 -434 -484 -29 48 -51 1524 -47 3281 4 1757 1 4646 -6 6420 l-13 3225 -215 0 c-213 0 -214 -7 -147 -1675z m4665 1173 c204 -109 165 -398 -53 -398 -122 0 -250 209 -250 408 0 118 68 116 303 -10z m-2103 -8756 c0 -243 -41 -345 -125 -317 -175 58 -215 356 -71 530 174 210 196 186 196 -213z m324 -2443 c120 -686 273 -2235 226 -2283 -24 -23 -198 31 -387 121 -189 90 -433 163 -542 163 -449 0 -432 703 29 1213 369 409 416 578 245 896 -126 236 -37 414 187 371 106 -21 190 -188 242 -481z m-2011 -2739 c185 -78 489 -165 675 -194 186 -29 383 -97 437 -151 133 -133 4 -315 -224 -315 -103 0 -354 -158 -559 -351 -355 -334 -364 -359 -201 -539 214 -236 994 -440 1367 -358 154 34 373 12 486 -49 302 -161 282 -803 -35 -1172 -253 -295 -434 -315 -2010 -223 l-401 24 -27 1734 c-14 983 13 1734 64 1734 50 0 242 -63 428 -140z m3008 -4506 c94 -40 199 -158 232 -263 33 -105 136 -192 229 -192 160 -1 401 -315 712 -924 77 -151 121 -286 98 -300 -23 -14 -195 -133 -383 -265 -446 -313 -603 -210 -828 548 -96 325 -252 647 -347 716 -385 282 -1128 70 -1525 -435 -270 -343 -263 -496 48 -1176 157 -342 232 -641 193 -764 -57 -180 -137 -199 -727 -176 -649 26 -667 20 -868 -294 -113 -177 -232 -323 -264 -325 -33 -2 -69 284 -80 637 l-21 640 353 117 c547 180 786 552 731 1133 -57 604 221 1079 688 1175 171 35 406 130 524 213 211 148 807 117 1235 -65z m2217 -2809 c34 -89 18 -129 -39 -94 -55 33 -99 103 -99 155 0 144 72 112 138 -61z"/>
<path d="M8338 24600 c-267 -220 -516 -400 -554 -400 -38 0 -400 -378 -806 -840 -683 -779 -756 -909 -1011 -1775 -520 -1767 -584 -2037 -668 -2835 -128 -1216 -187 -4645 -85 -4993 49 -169 138 -757 198 -1307 59 -550 171 -1246 248 -1546 77 -300 140 -710 140 -909 0 -513 313 -1353 738 -1980 199 -294 362 -648 362 -786 0 -138 138 -539 306 -892 168 -353 392 -892 498 -1198 105 -306 294 -637 420 -736 198 -156 569 -857 902 -1703 304 -773 1408 -2696 1549 -2698 69 -1 125 38 125 88 0 122 -529 1125 -1112 2110 -147 248 -298 563 -337 700 -162 573 -650 1469 -940 1726 -171 151 -311 366 -311 476 0 110 -41 279 -91 374 -328 627 -709 1567 -711 1753 -1 122 -112 401 -248 621 -466 754 -833 1608 -882 2054 -27 245 -122 805 -211 1243 -302 1488 -399 2798 -387 5253 12 2288 93 3189 338 3750 199 454 322 837 486 1515 139 573 271 834 665 1312 471 573 1501 1381 2227 1747 492 248 496 276 42 276 -327 0 -501 -79 -890 -400z"/>
<path d="M12298 24645 c-67 -204 -128 -1113 -142 -2125 -32 -2170 -144 -3447 -296 -3373 -61 29 -189 81 -285 115 -119 42 -175 167 -175 395 0 716 -410 1116 -1039 1014 -332 -54 -351 -41 -380 254 -42 422 -247 459 -334 59 -49 -220 -33 -339 49 -366 71 -24 -8 -149 -191 -304 -178 -151 -414 -521 -551 -864 -276 -695 -511 -863 -1154 -826 -373 22 -455 63 -480 239 -25 172 21 212 242 212 465 0 701 564 404 970 -197 270 -950 139 -1289 -224 -756 -812 -624 -1498 398 -2070 357 -199 554 -249 799 -203 l326 61 -2 -429 c-1 -237 -70 -857 -154 -1380 -83 -522 -193 -1220 -244 -1550 -176 -1145 -407 -2092 -528 -2169 -67 -43 -265 -79 -439 -79 -174 -1 -388 -29 -475 -63 -257 -98 -183 -421 136 -586 161 -83 496 -415 744 -738 533 -693 864 -856 1606 -795 646 54 1290 436 1540 912 91 175 340 485 553 689 225 216 365 430 333 512 -57 148 -899 322 -1065 220 -179 -111 -276 210 -467 1547 -20 138 -79 610 -131 1050 -52 440 -149 1240 -216 1777 -66 538 -95 1003 -64 1033 31 31 147 8 258 -52 377 -201 938 -125 1415 192 459 305 742 374 846 206 74 -118 69 -3357 -12 -8406 -69 -4274 -56 -4189 -609 -4197 -179 -2 -225 53 -227 272 -1 151 -85 382 -185 513 -186 242 -197 243 -1056 95 -136 -23 -212 40 -257 217 -59 228 -70 233 -122 50 -32 -110 -64 -570 -70 -1021 -12 -752 6 -833 215 -966 218 -138 941 -273 1677 -311 215 -12 340 -65 323 -140 -35 -161 150 -1950 310 -2987 84 -549 93 -859 27 -925 -162 -162 363 -114 584 53 257 194 845 192 920 -3 67 -176 536 -205 536 -33 0 65 -75 200 -166 301 -147 162 -153 279 -53 1008 61 453 111 1217 109 1697 -2 481 25 920 59 975 35 56 257 102 494 102 732 0 1064 115 1480 511 343 325 391 421 331 660 -100 406 -442 729 -771 729 -324 0 -683 -310 -683 -589 0 -243 -277 -351 -488 -191 -89 68 -177 133 -196 144 -126 76 -222 1047 -262 2647 -26 1024 -89 2441 -141 3150 -53 709 -96 2121 -97 3139 -2 1018 -50 2143 -109 2500 -151 930 -137 1751 33 1892 78 64 250 89 383 56 352 -88 559 183 286 374 -185 130 -409 561 -409 789 0 54 110 209 245 344 355 354 1028 345 1393 -21 258 -257 326 -420 384 -926 20 -177 200 -347 668 -633 546 -333 694 -382 999 -324 752 141 952 475 408 681 -344 130 -364 401 -33 448 306 44 636 -416 636 -886 0 -546 -378 -831 -999 -754 -248 30 -590 69 -761 86 -170 17 -454 153 -632 302 -399 336 -682 354 -726 47 -31 -216 -67 -224 -932 -204 -870 21 -893 16 -690 -154 162 -135 376 -172 921 -162 390 7 775 67 855 133 117 98 231 60 591 -193 l445 -314 -187 -916 c-199 -974 -502 -2368 -764 -3515 -88 -385 -200 -727 -249 -761 -155 -107 -504 -44 -552 100 -26 80 -1 111 60 73 177 -109 221 90 95 424 -168 445 -300 343 -443 -343 -161 -776 -168 -730 111 -800 330 -83 509 -303 726 -893 224 -607 623 -850 1398 -850 431 0 588 54 938 325 231 179 520 505 641 725 121 220 322 451 446 513 438 221 446 310 48 498 -245 117 -619 182 -1052 185 -369 2 -709 42 -755 88 -97 98 -94 4411 4 4801 37 146 123 265 192 265 87 0 125 -203 126 -675 1 -371 57 -1027 123 -1457 67 -430 122 -1060 123 -1400 0 -746 158 -1368 347 -1368 108 0 118 70 45 324 -51 179 -93 579 -93 889 0 311 -64 919 -142 1351 -188 1044 -277 2159 -184 2297 42 61 215 182 385 269 433 222 841 791 841 1173 0 607 -638 1184 -1164 1052 -361 -90 -484 -710 -176 -885 77 -44 140 -128 140 -187 0 -183 -579 -7 -1055 320 -379 261 -445 357 -445 645 0 295 35 343 275 370 255 30 273 62 247 432 -16 220 -51 464 -79 542 -78 223 -268 -29 -296 -395 -33 -416 -223 -612 -359 -370 -238 421 -517 573 -1053 573 -449 0 -581 -47 -885 -314 -505 -443 -593 -641 -444 -1001 87 -209 92 -327 16 -403 -147 -147 -211 426 -260 2318 -22 853 -99 1989 -171 2525 -122 901 -148 975 -353 975 -166 0 -252 -90 -340 -355z m452 -1045 c114 -1118 124 -1284 195 -3400 36 -1072 108 -2371 160 -2885 53 -514 118 -1841 145 -2950 27 -1108 93 -2690 147 -3515 55 -825 100 -2202 101 -3060 1 -884 50 -1699 114 -1880 61 -176 83 -348 49 -382 -107 -108 -562 398 -645 716 -92 356 -314 399 -467 92 -151 -303 -356 -536 -472 -536 -64 0 -76 1007 -34 2875 36 1581 102 4861 148 7288 46 2428 113 4463 151 4523 37 61 66 943 65 1961 -1 1830 46 2321 195 2039 39 -75 106 -473 148 -886z m-1806 -3422 c173 -247 212 -1032 56 -1128 -55 -34 -100 -104 -100 -156 0 -126 334 -120 463 9 70 70 187 37 370 -107 341 -269 347 -496 13 -496 -140 0 -376 -89 -525 -197 -149 -109 -431 -263 -627 -344 -649 -266 -1124 226 -757 785 84 128 125 261 90 295 -95 96 -527 -351 -527 -544 0 -240 -235 -420 -371 -284 -75 75 -196 59 -413 -52 -524 -272 -1136 -208 -1633 170 -369 281 -437 390 -463 736 -27 359 12 442 335 726 464 408 879 401 927 -15 29 -253 9 -269 -256 -216 -377 75 -567 -145 -477 -553 52 -240 140 -322 433 -404 502 -139 568 -133 1022 99 319 163 451 324 681 831 344 758 698 1067 1223 1067 280 0 422 -59 536 -222z m-1844 -3040 c0 -358 66 -1109 146 -1669 81 -561 219 -1524 308 -2142 88 -618 132 -1169 97 -1225 -77 -125 -549 -132 -741 -11 -77 50 -112 161 -77 251 35 90 70 1376 78 2858 9 1486 55 2671 103 2642 47 -30 86 -347 86 -704z m-410 -1863 c-5 -1224 -38 -2427 -74 -2675 -65 -446 -70 -450 -491 -481 -499 -36 -504 -19 -286 1110 155 800 293 1693 461 2971 150 1141 187 1300 301 1300 61 0 95 -839 89 -2225z m7962 850 c-22 -481 -42 -1539 -46 -2350 l-6 -1475 -507 0 c-464 0 -501 17 -442 204 36 112 85 366 110 564 24 198 68 399 98 446 29 48 91 300 136 561 277 1583 577 2925 654 2925 23 0 24 -394 3 -875z m1690 -4234 c111 -110 -509 -1095 -845 -1343 -338 -250 -945 -326 -1468 -186 -265 71 -729 941 -729 1367 l0 290 1492 -35 c820 -19 1518 -60 1550 -93z m-7642 -210 c0 -277 -797 -1218 -1220 -1440 -370 -193 -1277 -182 -1565 20 -571 400 -1017 1348 -690 1468 233 86 3475 42 3475 -48z m-158 -5713 c206 -151 177 -511 -44 -531 -81 -8 -204 -19 -273 -25 -69 -7 -125 -102 -125 -212 0 -173 65 -199 475 -196 636 6 1111 189 1661 640 l458 375 481 -493 c371 -382 574 -508 897 -560 575 -92 909 74 948 473 24 253 80 317 295 342 186 21 314 -38 425 -198 241 -343 196 -546 -184 -835 -373 -285 -384 -285 -2753 -91 -568 46 -888 19 -1335 -117 -499 -151 -669 -160 -1139 -62 -698 147 -829 259 -827 709 1 415 51 508 395 744 298 203 409 210 645 37z m2685 -1582 c178 -96 182 -120 40 -262 -124 -123 -188 -131 -301 -37 -107 89 -263 92 -618 13 -261 -59 -492 -89 -514 -68 -83 84 92 358 250 390 389 79 961 61 1143 -36z m-98 -675 c81 -81 6 -111 -284 -112 -476 -2 -845 -92 -845 -206 0 -46 221 -57 492 -25 595 70 1008 -20 1008 -220 0 -179 72 -155 -647 -208 -329 -25 -644 -92 -700 -149 -71 -72 5 -97 247 -80 740 52 1100 -4 1100 -173 0 -128 -65 -150 -306 -102 -326 65 -915 -127 -1048 -343 -58 -94 -29 -107 113 -50 384 154 939 184 1090 58 172 -143 197 -568 53 -944 -81 -216 -160 -257 -488 -257 -309 0 -389 -36 -378 -171 22 -273 -321 -283 -374 -11 -417 2124 -460 2832 -187 3049 200 159 977 121 1154 -56z"/>
<path d="M9000 13508 c0 -161 119 -408 197 -408 41 0 54 113 27 250 -44 234 -224 360 -224 158z"/>
<path d="M12530 1648 c-258 -189 -149 -228 420 -151 275 38 432 95 350 127 -356 139 -603 146 -770 24z"/>
<path d="M16074 24915 c574 -166 2199 -1756 2381 -2330 39 -123 214 -429 390 -679 1007 -1440 1205 -2418 1205 -5956 0 -1958 -8 -2036 -383 -3686 -210 -927 -649 -2496 -975 -3487 -325 -991 -592 -1845 -592 -1898 0 -197 -536 -1466 -1047 -2479 -292 -577 -562 -1207 -601 -1400 -39 -192 -178 -575 -308 -850 -624 -1320 -944 -2027 -944 -2085 0 -36 56 -64 125 -63 69 1 235 259 369 575 134 315 325 680 425 811 99 132 181 289 182 350 0 149 717 1970 1047 2662 451 946 532 1131 796 1826 141 372 256 744 256 826 0 83 39 229 88 324 127 253 312 865 312 1035 0 81 90 324 200 540 111 216 289 704 396 1083 219 774 263 847 412 698 72 -72 -126 -796 -652 -2373 -416 -1248 -756 -2313 -756 -2366 0 -54 -173 -467 -385 -920 -212 -453 -438 -1038 -502 -1301 -140 -570 -696 -1751 -1071 -2272 -59 -82 -179 -375 -266 -650 -87 -275 -189 -579 -228 -675 -55 -140 -17 -175 191 -175 144 0 261 57 261 126 0 243 964 1058 1332 1127 514 97 591 8 552 -639 l-34 -564 625 -30 c355 -17 625 12 625 67 0 53 -54 114 -120 136 -94 32 -94 298 1 1207 139 1330 221 1569 625 1808 l289 170 177 -372 c272 -568 292 -561 1166 389 334 363 734 372 823 18 69 -278 -92 -743 -259 -743 -56 0 -102 -72 -102 -161 0 -112 53 -140 175 -92 380 148 507 90 672 -304 91 -218 193 -330 262 -288 133 83 45 -402 -166 -907 -166 -396 -440 -532 -512 -255 -54 204 -499 407 -893 407 -358 0 -854 -289 -1225 -714 -305 -350 -317 -386 -128 -386 114 0 254 86 310 191 188 350 775 637 1157 565 427 -80 617 -372 391 -599 -143 -143 -143 -157 3 -157 210 0 656 289 887 575 196 244 387 212 360 -59 -49 -502 133 -655 501 -422 117 74 120 119 16 244 -99 119 -137 1609 -170 6733 -40 6031 -57 16023 -28 16204 6 41 6 446 0 900 -11 752 -30 825 -210 825 -196 0 -199 -79 -194 -5075 l4 -5074 -256 -204 c-308 -246 -319 -478 -56 -1171 283 -746 262 -1132 -81 -1459 -367 -350 -657 -577 -903 -708 -290 -155 -380 -673 -160 -916 96 -106 258 -193 359 -193 102 0 276 -91 387 -202 345 -345 125 -557 -661 -638 -826 -84 -1249 -255 -1471 -593 -235 -360 -213 -534 93 -735 190 -124 454 -169 954 -161 809 12 1083 -175 1083 -742 0 -509 -285 -597 -1462 -448 -814 103 -988 98 -1241 -32 -379 -196 -622 -661 -535 -1023 125 -524 202 -556 1185 -485 816 59 946 43 1353 -163 377 -191 455 -281 481 -553 26 -270 -3 -325 -171 -325 -250 0 -869 -530 -1068 -915 -193 -374 -302 -360 -439 57 -62 188 -246 526 -409 750 -249 345 -350 408 -649 408 -479 0 -1110 -339 -1354 -729 -302 -484 -199 -932 322 -1400 402 -361 421 -405 402 -900 -24 -625 -185 -1071 -387 -1071 -118 0 -134 94 -81 479 56 405 35 507 -138 663 -260 235 -870 171 -1304 -139 -233 -165 -305 -182 -305 -72 0 79 68 201 150 269 82 68 150 187 150 264 0 77 108 308 241 513 132 205 273 531 313 723 40 193 157 507 259 699 103 191 187 404 187 473 0 68 132 406 294 751 162 345 394 897 515 1227 122 330 410 1072 641 1650 231 578 474 1253 541 1500 67 248 168 585 225 750 57 165 134 432 171 592 45 192 192 365 428 500 751 434 1152 894 1377 1581 170 518 70 756 -348 835 -371 69 -424 218 -246 685 75 199 167 257 403 257 199 0 328 61 370 175 35 96 172 348 304 559 198 318 241 526 251 1200 11 757 -170 1542 -414 1792 -71 73 -807 -36 -1117 -167 -129 -54 -176 90 -281 863 -69 510 -140 1018 -158 1128 -40 251 -312 1031 -609 1750 -125 303 -309 753 -409 1000 -100 248 -352 732 -560 1077 -208 344 -378 731 -378 858 0 225 -28 232 -925 242 -784 9 -887 -7 -675 -108 389 -185 781 -570 1052 -1032 136 -232 361 -512 500 -621 139 -109 339 -439 444 -732 105 -294 344 -939 532 -1434 311 -822 607 -2154 855 -3850 134 -916 57 -2463 -171 -3429 -106 -451 -252 -1174 -324 -1605 -103 -622 -181 -825 -374 -977 -135 -105 -259 -178 -276 -160 -17 17 81 569 218 1226 137 657 293 1443 346 1745 129 732 123 2842 -11 3900 -59 468 -123 1171 -141 1563 -40 859 -420 2048 -674 2114 -97 26 -177 120 -178 210 -1 89 -136 361 -300 603 -164 242 -298 498 -298 569 0 71 -80 188 -177 260 -97 72 -261 264 -365 426 -448 700 -1390 1359 -1924 1345 -291 -8 -330 -26 -160 -75z m6522 -7355 c388 -907 276 -2086 -242 -2532 -290 -249 -646 -296 -834 -108 -172 172 -146 365 122 911 l236 481 -203 481 c-318 752 -124 1109 654 1198 43 5 163 -189 267 -431z m700 -3591 l-4 -319 -150 277 c-83 153 -123 322 -90 377 111 179 248 -9 244 -335z m-1869 -461 c32 -122 156 -205 337 -225 357 -41 419 -329 178 -836 -171 -359 -1000 -1085 -1141 -998 -102 64 -24 683 151 1184 80 229 146 563 147 742 1 361 243 458 328 133z m1896 -6433 c23 -2626 25 -4775 4 -4775 -20 0 -141 122 -269 270 -190 221 -245 433 -300 1164 -113 1497 -377 1733 -1899 1692 -1173 -31 -1451 191 -913 729 242 242 267 245 1393 181 l1146 -66 207 340 c266 437 268 987 4 1323 -186 236 -278 262 -1025 288 -733 26 -824 50 -849 229 -40 280 287 452 1062 562 722 102 973 265 1067 692 74 339 -186 796 -454 796 -330 0 -497 119 -497 353 0 177 132 308 548 546 301 172 576 358 610 414 34 55 76 86 93 69 17 -18 50 -2181 72 -4807z m-3386 -3197 c87 -139 47 -235 -209 -500 -175 -180 -389 -499 -476 -708 l-158 -379 -297 211 c-252 180 -297 278 -297 651 0 599 373 966 940 925 236 -17 432 -96 497 -200z"/>
<path d="M21750 24860 c416 -184 950 -879 950 -1239 0 -283 -258 -621 -474 -621 -59 0 -316 203 -571 450 -294 286 -552 450 -709 450 -304 0 -646 -326 -646 -617 0 -302 734 -977 1453 -1336 651 -325 843 -596 923 -1301 64 -568 -249 -886 -801 -814 -465 61 -530 -182 -75 -282 362 -79 891 210 1101 601 113 212 116 333 13 679 -68 231 -141 527 -162 658 -47 300 -128 379 -666 646 -753 374 -1278 798 -1282 1035 -6 358 192 374 534 42 177 -171 376 -311 442 -311 66 0 120 -45 120 -100 0 -55 70 -100 155 -100 303 0 708 290 899 644 l194 360 -233 439 c-371 699 -565 858 -1044 853 l-421 -4 300 -132z"/>
<path d="M24252 24625 c41 -206 65 -442 55 -525 -30 -233 3 -5454 39 -6350 18 -440 30 -867 26 -950 -13 -292 6 -5526 41 -11125 35 -5605 38 -5675 236 -5675 231 0 231 79 106 9800 -36 2778 -72 5534 -79 6125 -7 591 -41 1075 -74 1075 -34 0 -28 346 12 770 40 423 56 798 34 834 -22 35 -46 1489 -54 3230 -13 3103 -17 3166 -215 3166 -179 0 -193 -41 -127 -375z"/>
<path d="M11100 23419 c0 -154 -66 -368 -147 -475 -175 -231 -197 -383 -42 -287 61 38 151 7 200 -69 61 -94 113 -104 164 -31 41 59 160 139 264 177 175 65 177 83 25 251 -90 99 -164 301 -164 448 0 171 -54 267 -150 267 -98 0 -150 -98 -150 -281z"/>
<path d="M8261 23442 c-34 -87 -61 -287 -61 -444 0 -158 -45 -314 -100 -348 -151 -93 -120 -250 50 -250 83 0 150 -45 150 -100 0 -168 145 -111 284 112 95 152 102 242 24 320 -59 59 -108 279 -108 488 0 387 -130 508 -239 222z"/>
<path d="M14556 23475 c-21 -69 -86 -274 -144 -457 -89 -276 -77 -364 68 -520 110 -118 224 -157 308 -106 224 139 138 1208 -98 1208 -53 0 -113 -56 -134 -125z"/>
<path d="M16955 23473 c-21 -68 -61 -289 -89 -491 -55 -394 18 -432 614 -319 l230 43 -205 261 c-113 143 -205 317 -205 386 0 171 -298 275 -345 120z"/>
<path d="M10200 17006 c0 -58 45 -106 100 -106 55 0 100 20 100 44 0 24 -45 72 -100 106 -55 34 -100 14 -100 -44z"/>
<path d="M7465 16325 c-33 -151 -89 -376 -124 -500 -55 -191 -26 -225 190 -225 235 0 248 23 170 296 -46 162 -61 387 -31 500 29 112 9 204 -46 204 -54 0 -126 -124 -159 -275z"/>
<path d="M14499 16375 c-1 -124 -29 -326 -62 -450 -51 -191 -21 -225 199 -225 237 0 254 27 203 325 -83 481 -122 575 -236 575 -57 0 -104 -101 -104 -225z"/>
<path d="M18470 16325 c-31 -151 -82 -343 -114 -425 -43 -112 19 -153 243 -161 298 -10 395 91 201 211 -55 34 -100 194 -100 356 0 371 -157 384 -230 19z"/>
<path d="M11000 16363 c0 -76 -27 -272 -60 -436 -45 -228 -18 -314 117 -366 274 -105 344 52 226 515 -101 401 -283 585 -283 287z"/>
<path d="M17200 13700 c0 -165 45 -300 100 -300 55 0 100 135 100 300 0 165 -45 300 -100 300 -55 0 -100 -135 -100 -300z"/>
<path d="M11170 13025 c-23 -41 -71 -194 -105 -339 -50 -209 -22 -274 136 -315 174 -46 199 -2 199 338 0 351 -119 514 -230 316z"/>
<path d="M11054 9375 c-135 -429 -111 -818 61 -990 139 -139 185 -150 185 -43 0 78 40 156 89 175 49 18 39 242 -23 508 -109 463 -232 602 -312 350z"/>
<path d="M17839 9325 c-30 -96 -113 -340 -185 -541 -128 -357 -125 -366 133 -416 326 -62 379 -17 213 182 -71 85 -97 186 -59 225 39 38 110 4 159 -75 161 -261 216 -27 91 390 -130 435 -262 523 -352 235z"/>
<path d="M14800 9374 c0 -14 -42 -173 -94 -353 -81 -281 -70 -323 75 -299 113 19 159 -30 140 -147 -17 -96 17 -175 75 -175 112 0 143 583 43 842 -49 127 -239 233 -239 132z"/>
<path d="M7866 9000 c-266 -830 -263 -794 -59 -904 300 -160 420 -23 343 390 -38 200 -106 432 -152 514 -75 133 -90 133 -132 0z"/>
<path d="M16350 6828 c-34 -208 -78 -459 -98 -559 -23 -116 51 -220 209 -292 393 -179 481 8 283 611 -213 653 -318 716 -394 240z"/>
<path d="M14853 2337 c-38 -254 -93 -524 -122 -600 -38 -99 38 -137 269 -137 269 0 309 29 244 175 -43 96 -97 366 -121 600 -57 558 -183 541 -270 -38z"/>
<path d="M10769 2335 c-28 -102 -78 -342 -110 -535 -54 -321 -38 -350 186 -350 231 0 241 24 187 450 -66 509 -187 710 -263 435z"/>
</g>
</svg>