<svg xmlns="http://www.w3.org/2000/svg" version="1.0" width="250" height="250" viewBox="0 0 250.000000 250.000000" preserveAspectRatio="xMidYMid meet">
<metadata>
Created by potrace 1.10, written by Peter Selinger 2001-2011
</metadata>
<g transform="translate(0.000000,250.000000) scale(0.010000,-0.010000)" fill="#555555" stroke="none">
<path d="M286 24525 c-180 -383 -228 -678 -245 -1525 -19 -897 -12 -956 51 -400 41 358 167 830 282 1050 247 473 811 1071 937 993 157 -97 96 -323 -139 -511 -575 -460 -657 -708 -772 -2330 -59 -840 -84 -1552 -54 -1581 104 -105 454 314 454 544 0 324 182 296 261 -40 35 -151 124 -513 197 -804 73 -290 107 -596 75 -678 -31 -83 -252 -284 -491 -449 -289 -198 -503 -453 -638 -759 -193 -435 -204 -657 -204 -3998 0 -2291 35 -3537 100 -3537 117 0 126 96 106 1100 -11 533 44 915 189 1323 174 485 205 813 205 2161 0 1487 14 1608 222 1878 121 158 262 317 312 352 50 35 146 280 213 545 149 587 353 705 353 204 0 -441 -170 -833 -512 -1184 -145 -149 -286 -419 -314 -600 -57 -383 2 -1989 77 -2063 28 -29 174 61 325 197 151 137 398 302 549 366 l275 117 0 -591 c0 -632 -6 -642 -990 -1515 -170 -151 -343 -445 -411 -700 -65 -242 -162 -523 -215 -625 -54 -101 -70 -213 -35 -247 80 -80 236 162 311 482 128 546 368 909 794 1202 245 169 446 350 446 403 0 52 39 95 86 95 47 0 113 -230 147 -511 87 -739 -187 -1191 -951 -1573 -241 -121 -422 -345 -661 -820 -475 -947 -581 -1741 -423 -3176 130 -1182 194 -1499 655 -3220 215 -805 245 -1076 191 -1778 -38 -499 -17 -1035 52 -1350 64 -287 136 -623 162 -747 39 -191 110 -225 469 -225 l423 0 1 1125 c0 1475 73 1777 552 2291 218 233 422 505 453 604 85 267 244 218 244 -75 0 -140 -104 -354 -231 -475 -127 -121 -339 -399 -471 -617 -215 -354 -244 -529 -267 -1625 -19 -936 5 -1228 101 -1228 207 0 1375 2135 1510 2759 37 170 212 530 390 800 177 270 383 694 456 941 74 248 219 569 323 715 104 146 189 312 189 368 0 56 107 229 237 384 131 156 438 643 683 1083 708 1270 2359 3754 3058 4600 472 571 1142 1500 1286 1781 90 175 253 448 364 605 175 249 214 265 294 122 67 -120 178 -150 410 -110 259 44 380 -3 654 -256 244 -224 306 -340 227 -419 -79 -79 -176 -73 -351 21 -297 159 -462 72 -462 -244 0 -209 -53 -242 -422 -269 -380 -28 -431 -63 -515 -358 -51 -179 -64 -355 -28 -391 35 -35 264 -57 509 -48 413 16 472 -15 819 -430 441 -528 534 -573 1030 -494 329 53 376 94 367 324 -9 224 -66 272 -391 325 -253 41 -512 190 -775 446 -440 430 -473 523 -219 614 96 35 297 148 446 251 l270 187 392 -353 c405 -366 760 -445 1124 -250 106 56 193 191 193 300 0 152 -68 196 -306 196 -231 0 -426 118 -800 487 -414 407 -494 546 -494 853 0 562 218 555 858 -29 612 -561 618 -563 992 -393 326 149 314 532 -18 532 -119 0 -359 135 -531 300 -261 249 -304 352 -255 611 82 438 -6 598 -458 833 -369 193 -398 195 -451 31 -30 -96 -97 -288 -148 -425 -51 -138 -89 -408 -85 -600 8 -328 -95 -1000 -153 -1000 -14 0 -237 94 -496 208 -458 202 -477 203 -680 25 -145 -127 -77 61 224 617 239 440 510 913 604 1050 93 138 552 998 1020 1913 467 915 1002 1869 1188 2120 187 251 519 711 739 1023 220 311 887 1135 1482 1830 1379 1611 1528 1814 1333 1814 -82 0 -169 -56 -194 -125 -37 -100 -72 -100 -178 0 -221 208 -313 142 -243 -174 57 -259 6 -363 -381 -775 -245 -262 -725 -825 -1066 -1251 -340 -426 -661 -775 -711 -775 -51 0 -92 461 -93 1025 -1 1230 -92 2075 -223 2075 -57 0 -72 -233 -36 -575 33 -316 70 -1115 84 -1775 l24 -1200 -474 -663 c-261 -364 -474 -693 -474 -730 0 -36 -155 -309 -345 -605 -189 -297 -667 -1161 -1061 -1921 -395 -759 -778 -1450 -852 -1535 -74 -84 -224 -356 -333 -603 -109 -247 -328 -628 -485 -846 -158 -218 -637 -908 -1065 -1532 -428 -624 -839 -1209 -914 -1300 -216 -263 -1025 -1425 -1323 -1900 -149 -239 -508 -795 -797 -1236 -289 -441 -525 -841 -525 -890 0 -49 -47 -89 -106 -89 -249 0 23 5493 338 6807 147 616 374 1844 569 3081 47 295 132 655 189 800 107 267 333 1280 527 2362 123 680 223 850 503 850 257 0 1560 653 1880 942 385 348 900 682 900 583 0 -48 337 -324 749 -611 l749 -523 -65 -1512 c-49 -1137 -37 -1493 51 -1439 73 45 116 377 117 891 1 1365 88 1832 362 1957 154 70 237 192 237 348 0 162 70 259 213 296 170 45 199 104 143 287 -38 127 -110 591 -159 1031 -49 440 -118 901 -154 1025 -78 265 -264 304 -238 50 38 -368 -9 -425 -349 -425 -347 0 -1056 342 -1056 510 0 171 -257 90 -269 -85 -59 -900 -171 -1245 -480 -1481 -176 -134 -392 -244 -480 -244 -88 0 -219 -123 -292 -274 -163 -341 -1298 -941 -1854 -981 -215 -15 -560 -143 -768 -284 -207 -140 -541 -283 -742 -317 -547 -91 -548 -91 -572 -300 -13 -107 -48 -419 -79 -694 l-57 -500 105 450 c58 248 146 540 196 650 135 299 0 -1660 -177 -2550 -82 -412 -208 -1097 -281 -1520 -73 -424 -156 -809 -185 -856 -30 -48 -127 -511 -218 -1030 -390 -2239 -472 -3270 -504 -6283 -20 -1964 -69 -3077 -137 -3145 -58 -58 -106 -181 -106 -274 0 -92 -74 -229 -165 -304 -149 -124 -160 -104 -114 212 33 224 -4 434 -105 588 -123 187 -165 627 -198 2050 -22 997 -77 1857 -120 1912 -44 55 -154 637 -245 1293 -91 656 -207 1271 -259 1368 -52 97 -137 573 -189 1058 -397 3700 -691 6122 -767 6331 -30 83 -50 596 -44 1141 14 1279 232 1859 700 1859 341 0 371 -85 166 -480 -257 -497 -297 -1356 -109 -2323 95 -493 213 -897 261 -897 124 0 107 257 -60 950 -280 1159 -147 2088 369 2569 167 157 414 281 557 281 l257 0 -202 -225 c-530 -589 -649 -1673 -436 -3975 54 -577 118 -1781 143 -2674 26 -893 78 -1675 117 -1738 88 -142 73 -4772 -18 -5374 -52 -350 -37 -430 73 -393 110 36 142 438 160 1987 11 1068 43 2403 69 2967 26 564 9 1025 -39 1025 -106 0 -182 816 -248 2660 -28 776 -80 1789 -115 2252 -55 707 -39 864 97 976 89 74 230 108 313 76 126 -48 153 -349 165 -1836 11 -1509 25 -1665 94 -1028 45 413 63 1258 40 1879 -37 1002 -22 1136 130 1182 406 124 1041 453 984 510 -34 35 -163 15 -287 -44 -374 -177 -1472 -496 -1525 -443 -28 27 -50 275 -50 551 0 564 309 1309 610 1470 104 56 190 163 190 237 0 140 473 282 547 163 23 -37 -46 -200 -152 -361 -107 -162 -194 -350 -194 -419 -2 -244 251 -116 399 202 106 228 229 332 418 354 147 17 321 96 387 175 66 79 204 144 307 144 133 0 188 72 188 244 0 134 45 272 100 306 55 34 101 205 103 381 3 282 186 669 316 669 26 0 48 -135 48 -300 0 -430 83 -460 441 -159 174 147 446 333 604 415 158 82 288 193 288 247 0 171 -393 104 -600 -103 -200 -200 -500 -272 -500 -120 0 44 54 134 120 200 181 181 -626 157 -984 -29 -369 -193 -826 -193 -900 -1 -89 232 -236 177 -236 -89 0 -192 66 -251 338 -302 185 -35 455 -19 600 36 206 79 262 70 262 -42 0 -77 -56 -177 -125 -221 -263 -167 -1644 -524 -2042 -528 l-417 -4 -70 650 c-38 358 -109 650 -158 650 -48 0 -88 -339 -88 -753 0 -601 33 -766 161 -815 154 -59 1089 121 2011 386 462 133 629 64 465 -195 -70 -111 -359 -207 -862 -284 -416 -65 -907 -165 -1090 -224 -184 -58 -605 -119 -935 -136 l-600 -29 37 1025 c26 711 3 1025 -75 1025 -69 0 -112 -207 -112 -536 0 -653 -132 -1387 -414 -2305 -183 -594 -204 -841 -152 -1750 34 -583 107 -1396 162 -1809 56 -412 131 -1042 166 -1400 l66 -650 -218 270 c-119 149 -267 419 -327 600 -61 182 -190 420 -288 530 -335 378 -1027 2914 -1151 4216 -67 700 -63 718 168 750 136 20 289 146 361 296 161 337 388 524 529 436 62 -37 83 -142 48 -233 -35 -91 -122 -445 -194 -788 -101 -480 -104 -660 -13 -784 97 -133 136 -138 224 -27 182 228 264 903 121 991 -100 62 -101 134 -7 341 168 368 148 747 -43 821 -110 42 -293 -75 -564 -360 -468 -492 -670 -432 -435 131 119 285 269 420 682 612 291 135 578 246 639 247 60 1 190 91 290 201 232 257 193 252 -502 -55 -389 -172 -610 -223 -679 -154 -68 68 -59 151 27 255 114 136 52 154 -529 154 l-658 0 -223 -475z m11964 -184 c165 -87 480 -189 700 -227 311 -53 407 -118 432 -291 23 -164 -19 -223 -159 -223 -298 0 -1423 599 -1423 758 0 181 79 178 450 -17z m128 -679 c260 -130 614 -268 787 -305 284 -62 523 -402 382 -544 -166 -165 -1847 690 -1847 939 0 204 130 187 678 -90z m-270 -568 c160 -113 482 -261 716 -329 376 -108 430 -161 457 -444 21 -208 -13 -321 -94 -321 -135 0 -915 501 -970 623 -18 40 -209 172 -425 293 -215 122 -392 258 -392 302 0 155 420 81 708 -124z m-4270 -2219 c-32 -179 -141 -662 -242 -1075 -221 -894 -587 -2674 -989 -4800 -294 -1550 -364 -2337 -459 -5150 -28 -825 -77 -1715 -109 -1978 -35 -283 -15 -531 49 -608 81 -97 31 -253 -198 -614 -234 -369 -328 -450 -395 -342 -111 180 -37 4907 91 5842 53 385 150 1038 215 1450 65 413 148 1047 184 1410 36 362 116 722 179 800 62 77 146 433 185 790 39 358 131 920 203 1250 73 330 183 1086 245 1679 133 1283 133 1281 480 1497 450 278 628 231 561 -151z m-5324 -4031 c157 -315 278 -443 389 -414 138 36 186 -184 335 -1519 236 -2111 367 -2984 520 -3470 71 -226 160 -811 199 -1300 38 -490 102 -936 143 -991 40 -55 103 -909 140 -1899 37 -989 111 -1842 164 -1895 53 -53 96 -335 96 -628 0 -410 -71 -657 -312 -1084 -172 -304 -341 -525 -375 -490 -35 34 -120 407 -189 829 -69 422 -171 1015 -226 1317 -55 303 -234 1716 -398 3141 -164 1424 -318 2610 -342 2634 -24 25 -135 -134 -246 -352 -111 -217 -368 -529 -570 -691 -298 -239 -383 -389 -449 -789 -177 -1080 -50 -1865 198 -1218 116 304 728 775 1008 775 224 0 80 -398 -249 -687 -192 -169 -350 -353 -350 -410 0 -162 103 -122 293 114 256 315 529 181 488 -240 -26 -277 -100 -358 -493 -544 -568 -269 -888 -658 -888 -1078 0 -175 -48 -580 -107 -899 -62 -336 -71 -618 -20 -669 51 -51 144 301 219 832 71 506 172 1012 224 1125 98 216 1078 795 1177 696 31 -32 55 -414 52 -849 -2 -435 31 -791 75 -791 44 0 80 -54 80 -120 0 -84 -32 -88 -105 -15 -73 73 -229 71 -515 -5 -487 -130 -610 -360 -850 -1596 -175 -900 -330 -1204 -330 -649 0 195 -44 486 -98 645 -54 160 -119 515 -144 790 -87 963 -107 4904 -27 5282 54 254 260 578 614 963 294 319 562 671 598 782 35 111 144 222 242 248 166 43 170 105 53 886 -69 461 -155 1379 -191 2039 -36 660 -100 1470 -143 1800 -69 529 -50 850 50 850 17 0 134 -205 260 -456z m11128 -1005 c87 -33 158 -146 158 -250 0 -232 -80 -238 -317 -24 -300 272 -216 418 159 274z"/>
<path d="M2475 6092 c-303 -176 -190 -305 125 -142 165 85 300 176 300 203 0 80 -241 46 -425 -61z"/>
<path d="M9574 24746 c-335 -311 -363 -500 -49 -333 231 123 466 378 472 512 6 141 -149 75 -423 -179z"/>
<path d="M10700 24912 c0 -49 -126 -217 -281 -375 -335 -342 -656 -837 -544 -837 152 0 1023 1042 1024 1225 1 41 -44 75 -99 75 -55 0 -100 -40 -100 -88z"/>
<path d="M11199 24875 c-1 -434 -230 -873 -551 -1063 -216 -127 -348 -282 -348 -409 0 -282 69 -258 495 172 244 245 412 537 489 844 141 570 141 581 16 581 -55 0 -100 -56 -101 -125z"/>
<path d="M16346 24825 c38 -96 93 -301 124 -454 31 -153 107 -262 168 -242 62 21 105 56 96 79 -8 23 -47 211 -86 417 -44 235 -126 375 -220 375 -101 0 -128 -56 -82 -175z"/>
<path d="M22461 24405 c-202 -328 -496 -699 -654 -825 -157 -127 -477 -612 -710 -1080 -497 -997 -905 -1614 -1394 -2104 -194 -195 -555 -595 -803 -889 -247 -294 -660 -771 -916 -1061 -590 -669 -1290 -1832 -2584 -4296 -1143 -2177 -1320 -2495 -1687 -3035 -199 -295 -408 -611 -463 -702 -55 -92 -201 -308 -325 -481 -124 -172 -227 -351 -229 -397 -2 -47 -272 -467 -599 -935 -326 -467 -821 -1195 -1099 -1616 -605 -916 -798 -1108 -798 -793 0 280 -291 393 -450 175 -67 -91 -157 -166 -200 -166 -183 0 -1151 935 -1390 1342 -305 520 -322 641 -89 622 196 -16 298 307 146 459 -229 229 -587 -11 -816 -547 -124 -289 -287 -562 -362 -606 -169 -97 -614 -1021 -700 -1452 -146 -729 596 -1455 1488 -1456 522 -1 670 99 962 644 169 315 224 344 648 347 255 1 463 -30 463 -70 0 -40 -309 -536 -687 -1103 -377 -566 -1034 -1705 -1458 -2530 -424 -825 -813 -1543 -863 -1595 -144 -148 -109 -255 83 -254 146 0 564 557 713 949 21 55 122 289 225 520 103 230 187 444 187 475 0 31 137 246 305 478 168 231 387 607 488 835 204 460 1640 2689 1794 2784 55 34 403 560 775 1170 371 610 735 1131 807 1159 72 28 131 96 131 151 0 56 158 316 350 578 193 262 350 524 350 581 0 57 149 299 332 538 449 589 1190 1823 1454 2421 119 270 242 465 273 434 32 -32 10 -477 -48 -991 -158 -1388 -386 -3878 -562 -6133 -302 -3859 -348 -4326 -498 -5110 -179 -934 -172 -840 -61 -840 191 0 396 1362 601 4000 208 2667 328 4154 356 4400 15 138 80 880 145 1650 64 770 160 1675 212 2012 53 336 96 805 96 1041 0 346 141 688 718 1739 395 719 823 1511 951 1758 491 952 1701 2463 1853 2315 40 -38 121 -383 180 -767 377 -2449 419 -7292 86 -9898 -223 -1744 -296 -2355 -440 -3700 -83 -770 -171 -1467 -197 -1550 -45 -149 -348 -2635 -350 -2875 -1 -69 112 -125 249 -125 192 0 251 52 253 225 7 512 293 3542 354 3750 37 124 117 225 180 225 82 0 104 -582 79 -2100 -23 -1467 -1 -2100 75 -2100 60 0 111 34 114 75 3 41 16 1043 29 2225 21 1881 48 2197 214 2525 104 206 220 375 258 375 37 0 99 -281 137 -625 38 -344 219 -1008 403 -1475 486 -1239 741 -2055 815 -2610 l65 -490 537 0 c411 0 537 35 537 150 0 83 -50 150 -111 150 -61 0 -89 56 -63 125 91 238 -124 585 -428 691 -492 171 -622 546 -506 1464 53 428 148 911 209 1073 62 162 86 432 55 600 -32 168 37 799 153 1401 116 603 244 1367 286 1699 41 332 123 693 181 803 59 110 160 491 224 847 64 356 225 1023 358 1483 281 971 325 2066 95 2370 -81 107 -148 361 -150 564 -5 586 -205 1383 -497 1980 -149 303 -328 753 -399 1000 -71 248 -211 698 -312 1000 -246 739 -448 1520 -588 2274 -64 343 -176 793 -249 1000 -118 338 -112 404 62 651 107 151 229 275 272 275 129 0 383 -689 656 -1779 141 -565 464 -1533 716 -2150 252 -616 520 -1327 596 -1580 76 -252 228 -540 339 -640 111 -100 201 -270 201 -377 0 -107 72 -472 160 -810 127 -489 138 -716 53 -1114 -58 -275 -127 -761 -153 -1080 -43 -539 -29 -588 197 -691 134 -61 243 -171 243 -244 0 -74 135 -254 300 -401 l300 -267 0 -1534 c0 -1392 -73 -1809 -239 -1375 -34 87 -61 639 -61 1226 0 587 -43 1218 -96 1403 -86 298 -342 601 -516 610 -34 2 -93 -278 -131 -622 -83 -749 -474 -2548 -852 -3925 -151 -550 -333 -1360 -404 -1800 -71 -440 -187 -867 -257 -950 -70 -83 -157 -330 -194 -550 -37 -220 -111 -546 -166 -723 -163 -536 58 -885 679 -1070 323 -96 345 106 311 2893 -6 498 202 1632 337 1843 73 112 79 72 20 -143 -44 -165 -81 -1335 -81 -2600 0 -1976 21 -2300 150 -2303 178 -5 715 -308 1102 -622 152 -124 372 -225 487 -225 187 0 211 58 211 517 l0 518 -250 -235 c-282 -265 -332 -162 -90 184 97 139 180 529 211 997 61 916 -159 1691 -773 2719 -213 358 -441 875 -505 1150 -65 275 -159 608 -210 740 -137 355 62 485 207 135 65 -157 217 -397 339 -533 395 -442 731 -1301 795 -2034 14 -161 88 -313 163 -338 110 -36 130 86 96 607 -31 489 -124 809 -373 1284 -182 348 -391 679 -464 736 -212 164 -646 1059 -646 1330 l0 248 298 -287 c756 -730 862 -873 1017 -1364 162 -514 166 -465 175 2482 9 2849 0 3017 -185 3216 -131 140 -299 202 -510 187 l-315 -22 51 507 c27 278 82 584 120 680 38 95 20 316 -41 491 -61 175 -89 339 -63 365 97 97 353 -211 353 -423 0 -256 252 -638 354 -537 174 175 -85 839 -463 1188 -317 293 -391 430 -391 727 0 407 8 411 451 251 197 -71 367 -231 453 -425 l137 -311 35 591 c19 325 -7 617 -58 650 -52 32 -125 262 -163 509 -90 585 -315 1071 -552 1199 -284 151 -303 134 -303 -284 0 -212 -29 -665 -65 -1007 -103 -990 -232 -501 -234 892 -1 688 -44 1520 -94 1850 -51 330 -124 1023 -162 1541 -59 813 -101 970 -307 1161 -131 122 -238 283 -238 359 -1 77 -111 454 -246 838 l-245 700 234 250 c213 229 557 812 557 946 0 30 -61 55 -136 55 -74 0 -301 -268 -503 -595z m-57 -1835 c142 -603 269 -876 479 -1031 266 -196 689 -5039 440 -5039 -55 0 -124 79 -153 175 -30 96 -275 715 -545 1375 -270 660 -568 1560 -661 2000 -94 440 -302 1065 -462 1389 l-292 590 190 371 c282 553 624 905 765 788 65 -54 172 -332 239 -618z m-2103 -2545 c0 -261 43 -857 95 -1325 52 -467 120 -1227 151 -1687 31 -460 81 -878 113 -928 105 -171 51 -1245 -97 -1942 -82 -381 -146 -850 -143 -1043 18 -1164 -38 -1939 -129 -1778 -105 184 -139 645 -296 3978 -56 1183 -160 2690 -231 3350 l-129 1200 257 318 c142 175 292 321 333 325 41 4 75 -207 76 -468z m547 -725 c93 -467 299 -1232 458 -1700 159 -467 340 -1097 403 -1400 62 -302 199 -691 303 -864 259 -427 473 -1163 548 -1888 l63 -601 -455 -399 c-250 -219 -587 -498 -749 -620 -377 -285 -619 -800 -619 -1318 0 -539 -165 -528 -228 15 -47 403 76 870 485 1844 74 176 372 507 664 736 584 460 681 595 427 595 -212 0 -1221 -1046 -1399 -1450 l-133 -300 -7 400 c-9 448 182 790 666 1196 197 165 325 364 325 507 0 407 -215 406 -568 -3 -363 -420 -379 -381 -195 489 94 447 196 646 419 825 l294 235 -325 1 c-269 0 -325 38 -328 225 -1 124 -47 675 -102 1225 -251 2519 -278 2877 -226 3014 80 208 92 175 279 -764z m-1288 -1365 c46 -1043 -109 -754 -217 405 -53 558 -41 685 56 595 71 -68 138 -481 161 -1000z m240 -2335 c19 -1039 9 -1242 -59 -1174 -84 84 -223 2294 -156 2474 87 232 200 -452 215 -1300z m1600 -1567 c0 -103 -320 -433 -420 -433 -49 0 -8 111 90 247 173 237 330 326 330 186z m-1450 -2501 c38 -705 101 -1664 142 -2132 69 -802 57 -884 -209 -1450 -156 -330 -283 -675 -283 -767 0 -238 -109 -489 -190 -439 -38 23 -36 417 3 874 78 899 141 2030 253 4532 80 1800 165 1616 284 -618z m2950 851 c0 -145 -46 -187 -158 -144 -87 34 -207 61 -266 61 -59 0 -27 89 72 198 206 228 352 180 352 -115z m-128 -1019 l51 -414 -317 337 c-289 308 -352 331 -727 271 -368 -59 -396 -49 -276 95 73 88 289 241 480 339 337 172 353 172 543 -18 108 -108 219 -382 246 -610z m-496 -275 c96 -116 235 -275 309 -353 107 -112 109 -172 13 -289 -136 -163 -398 -199 -398 -55 0 184 -600 231 -851 67 -315 -207 -317 -206 -326 117 -6 203 76 334 309 494 407 279 725 285 944 19z m-1857 -1155 c-102 -281 -103 -280 -111 111 -6 290 22 365 103 284 79 -79 81 -194 8 -395z m1649 141 c334 -372 343 -548 83 -1609 -507 -2064 -767 -3429 -745 -3916 33 -755 32 -764 -111 -1300 -204 -762 -277 -743 -251 65 13 404 -17 788 -66 852 -49 64 -103 356 -121 650 -19 317 -120 681 -249 899 -128 215 -225 565 -238 850 -27 632 -202 622 -284 -16 -78 -601 -648 -1850 -845 -1850 -175 0 -175 12 8 364 83 157 150 430 150 605 1 196 72 370 185 450 130 93 203 316 249 765 78 756 488 1559 878 1720 230 96 270 183 326 720 96 923 567 1266 1031 751z m-1244 -625 c-26 -137 -87 -250 -136 -250 -48 0 -88 113 -88 250 0 144 58 250 136 250 91 0 121 -82 88 -250z m-13093 -2353 c78 -111 328 -401 555 -644 515 -549 570 -999 143 -1161 -399 -152 -733 -27 -1144 426 -650 716 -558 1498 184 1570 66 7 184 -79 262 -191z m11478 -1028 c-79 -79 -109 -53 -109 94 0 265 140 405 184 185 19 -93 -14 -218 -75 -279z m1189 -544 c0 -41 -45 -142 -98 -225 -78 -121 -97 -107 -98 75 -1 124 43 225 98 225 55 0 99 -34 98 -75z m202 -445 c0 -162 -30 -190 -111 -109 -61 61 -81 160 -44 220 103 168 155 130 155 -111z m3499 -1261 c0 -530 -157 -1181 -306 -1273 -93 -58 -39 1405 65 1735 87 280 242 -16 241 -462z m-3338 124 c107 -426 -29 -500 -197 -106 -200 472 -200 470 -13 399 83 -32 177 -164 210 -293z m2999 -2316 c-33 -33 -56 26 -52 131 5 117 28 141 60 61 29 -72 26 -159 -8 -192z m179 -285 c100 -261 71 -342 -125 -342 -145 0 -176 56 -138 250 54 284 174 326 263 92z m-5479 -1115 c-33 -33 -56 26 -52 131 5 117 28 141 60 61 29 -72 26 -159 -8 -192z"/>
<path d="M23325 24375 c47 -344 131 -805 187 -1025 189 -742 268 -1493 324 -3050 46 -1278 91 -1623 259 -1968 111 -230 289 -445 395 -479 254 -81 324 -269 409 -1103 58 -570 74 -410 86 863 16 1704 7 1734 -570 1849 l-315 63 0 738 c0 425 42 737 100 737 55 0 100 -45 100 -100 0 -55 68 -100 150 -100 233 0 177 282 -114 574 -328 327 -452 1060 -197 1158 403 155 652 -279 673 -1172 28 -1208 165 -1040 176 215 7 729 -25 1325 -70 1325 -45 0 -162 259 -261 575 -200 644 -402 925 -665 925 -281 0 -524 291 -383 461 93 112 69 139 -127 139 -240 0 -241 -7 -157 -625z"/>
<path d="M24050 24800 c100 -110 236 -200 304 -200 158 0 407 -380 531 -812 84 -295 98 -238 106 437 l9 775 -565 0 c-560 0 -564 -2 -385 -200z"/>
<path d="M17970 22037 c-178 -179 -43 -430 331 -615 489 -241 569 -155 269 290 -224 332 -463 462 -600 325z"/>
<path d="M8 21558 c-4 -105 19 -164 52 -131 34 33 37 120 8 192 -32 80 -55 56 -60 -61z"/>
<path d="M15770 21166 c-28 -74 -82 -378 -119 -675 l-67 -541 633 -632 c582 -580 661 -627 976 -578 683 106 830 640 176 640 -503 0 -802 186 -727 454 33 119 88 400 121 626 57 386 40 422 -288 625 -400 247 -631 273 -705 81z m508 -622 c236 -165 296 -487 112 -600 -167 -104 -611 385 -533 587 80 209 139 210 421 13z"/>
<path d="M5800 20041 c0 -873 -273 -3835 -472 -5116 -27 -179 -6 -325 47 -325 114 0 275 1194 431 3200 62 798 137 1754 167 2125 37 468 19 675 -60 675 -71 0 -113 -209 -113 -559z"/>
<path d="M14520 19880 c-147 -147 -153 -509 -15 -1004 114 -412 -4 -776 -254 -776 -125 0 -551 -783 -551 -1014 0 -49 146 -222 325 -384 381 -347 775 -402 775 -108 0 520 374 166 535 -506 98 -410 424 -764 571 -619 95 92 85 154 -42 282 -234 233 -209 318 206 698 356 326 365 350 225 612 -147 277 -926 839 -1163 839 -191 0 -290 502 -121 609 248 157 373 98 752 -355 433 -518 553 -581 874 -459 407 155 401 387 -15 560 -205 85 -507 285 -672 443 -165 159 -427 319 -581 357 -233 58 -291 34 -337 -143 -52 -198 -230 -303 -233 -137 -1 41 -29 176 -62 300 -44 162 -17 225 95 225 206 0 316 372 164 555 -147 176 -316 185 -476 25z m302 -2386 c-12 -399 -38 -421 -358 -299 -340 129 -363 529 -39 679 287 132 408 17 397 -380z m789 -312 l418 -217 -226 -183 c-257 -207 -364 -226 -455 -79 -89 144 -243 697 -194 697 22 0 228 -98 457 -218z"/>
<path d="M475 19440 c-434 -418 -622 -840 -375 -840 55 0 100 85 100 188 0 104 174 346 386 538 420 379 572 575 445 573 -45 -1 -295 -207 -556 -459z"/>
<path d="M8 19658 c-4 -105 19 -164 52 -131 34 33 37 120 8 192 -32 80 -55 56 -60 -61z"/>
<path d="M12700 18650 c0 -82 44 -150 97 -150 53 0 71 68 39 150 -31 83 -75 150 -97 150 -21 0 -39 -67 -39 -150z"/>
<path d="M4934 16000 c0 -412 17 -581 39 -375 21 206 21 544 0 750 -22 206 -39 38 -39 -375z"/>
<path d="M17793 15781 c-4 -127 -29 -411 -55 -631 -30 -250 -13 -362 45 -300 127 137 213 1040 105 1107 -48 30 -91 -49 -95 -176z"/>
<path d="M17671 14313 c-39 -186 -72 -569 -73 -850 -1 -282 -43 -796 -93 -1142 -50 -346 -118 -1336 -150 -2200 -112 -2940 -270 -5069 -466 -6271 -264 -1623 -372 -2316 -441 -2850 -32 -247 -82 -574 -111 -725 -30 -153 -8 -275 48 -275 131 0 241 591 709 3800 213 1455 272 2199 368 4600 83 2092 95 2300 235 4213 123 1668 112 2360 -26 1700z"/>
<path d="M1449 14099 c-99 -110 -152 -230 -116 -266 73 -73 467 250 467 382 0 146 -162 93 -351 -116z"/>
<path d="M1515 12356 c-129 -127 -192 -258 -140 -290 52 -33 222 75 378 238 340 354 118 403 -238 52z"/>
<path d="M10209 11438 c-251 -318 -192 -450 170 -377 229 45 360 -34 839 -509 550 -546 583 -563 1050 -533 436 28 485 56 512 292 28 236 -8 266 -371 315 -356 48 -912 402 -1491 949 -211 199 -487 146 -709 -137z"/>
<path d="M9700 10500 c-263 -263 -257 -438 13 -368 217 57 694 -353 1166 -1001 166 -227 265 -269 585 -248 440 29 583 146 679 554 l67 287 -453 -68 c-448 -67 -461 -60 -1023 488 -313 306 -629 556 -702 556 -72 0 -222 -90 -332 -200z"/>
<path d="M13598 9575 c-4 -658 -106 -2455 -198 -3475 -52 -577 -115 -1500 -140 -2050 -65 -1451 97 -552 234 1300 61 825 130 1590 153 1700 23 110 72 796 109 1525 49 950 36 1325 -44 1325 -62 0 -113 -146 -114 -325z"/>
<path d="M8756 9578 c-86 -122 -156 -417 -156 -655 0 -376 60 -496 471 -935 573 -613 778 -730 1224 -701 472 30 605 169 605 633 0 355 -72 468 -728 1137 -799 814 -1126 935 -1416 521z m1056 -923 c531 -507 652 -737 433 -821 -97 -37 -375 153 -773 529 -342 323 -637 621 -655 662 -19 41 94 74 250 73 196 -2 425 -138 745 -443z"/>
<path d="M12360 8316 c-29 -47 -75 -890 -104 -1875 -100 -3479 -169 -5397 -213 -5916 -33 -388 -11 -525 86 -525 85 0 130 132 130 375 -3 847 246 7014 303 7500 40 341 24 525 -45 525 -58 0 -129 -38 -157 -84z"/>
<path d="M1 5083 c-1 -250 82 -466 258 -676 347 -412 509 -287 230 177 -121 201 -280 479 -354 616 -133 248 -134 248 -134 -117z"/>
<path d="M-2 3837 c-3 -196 554 -1137 673 -1137 178 0 166 52 -126 549 -257 440 -544 748 -547 588z"/>
<path d="M0 1773 c0 -1553 77 -1773 623 -1773 325 0 382 29 339 175 -28 96 -77 400 -110 675 -140 1181 -273 1633 -564 1912 l-288 275 0 -1264z"/>
<path d="M13116 2600 c0 -137 22 -194 50 -125 28 69 28 181 0 250 -28 69 -50 13 -50 -125z"/>
<path d="M5206 2557 c-103 -123 -76 -194 149 -403 151 -140 315 -254 366 -254 50 0 66 -40 36 -89 -30 -48 12 -144 94 -212 198 -165 191 0 -18 418 -92 183 -196 398 -232 477 -95 209 -253 234 -395 63z"/>
<path d="M13010 1895 l10 -445 84 350 c48 205 44 389 -11 445 -58 59 -89 -73 -83 -350z"/>
<path d="M12863 1120 c-28 -44 -8 -145 42 -225 72 -113 92 -96 93 80 2 231 -49 286 -135 145z"/>
<path d="M12758 213 c-43 -69 -51 -153 -18 -186 89 -90 187 42 139 187 -34 101 -58 101 -121 -1z"/>
<path d="M22864 150 c-43 -112 16 -150 236 -150 220 0 279 38 236 150 -74 194 -398 194 -472 0z"/>
<path d="M23627 40 c33 -34 120 -37 192 -8 80 32 56 55 -61 60 -105 4 -164 -19 -131 -52z"/>
</g>
</svg>