<svg xmlns="http://www.w3.org/2000/svg" version="1.0" width="250" height="250" viewBox="0 0 250.000000 250.000000" preserveAspectRatio="xMidYMid meet">
<metadata>
Created by potrace 1.10, written by Peter Selinger 2001-2011
</metadata>
<g transform="translate(0.000000,250.000000) scale(0.010000,-0.010000)" fill="#555555" stroke="none">
<path d="M6667 24933 c-171 -171 -17 -233 575 -233 694 0 989 69 902 210 -64 103 -1377 124 -1477 23z"/>
<path d="M19473 24934 c68 -27 203 -29 300 -3 97 25 42 47 -123 50 -165 2 -245 -19 -177 -47z"/>
<path d="M18603 24704 c-222 -140 293 -304 954 -304 405 0 543 36 543 143 0 79 -79 163 -175 188 -327 82 -1174 65 -1322 -27z"/>
<path d="M6700 24298 c-249 -163 69 -295 717 -296 657 -2 883 64 883 259 0 106 -171 139 -725 137 -399 0 -792 -45 -875 -100z"/>
<path d="M18675 24086 c-440 -164 -320 -286 282 -286 477 0 553 25 524 175 -39 207 -411 258 -806 111z"/>
<path d="M10461 23947 c-94 -94 -242 -130 -385 -95 -156 40 -356 -25 -609 -197 -207 -140 -427 -255 -489 -255 -62 0 -193 -73 -291 -162 -116 -105 -243 -135 -358 -85 -99 43 -462 67 -807 53 -459 -18 -700 22 -892 148 -220 144 -370 158 -921 87 -824 -105 -2194 -80 -2529 48 -163 61 -649 60 -1364 -5 -953 -86 -1157 -78 -1429 58 -175 87 -333 158 -352 158 -19 0 -35 -287 -35 -638 0 -418 47 -677 137 -751 87 -72 154 -406 183 -904 29 -503 107 -883 213 -1045 204 -311 207 -362 25 -362 -78 0 -234 124 -346 275 l-206 275 -3 -725 -3 -725 325 -3 c391 -4 632 -171 770 -533 73 -192 69 -324 -12 -454 -91 -146 -69 -277 110 -646 234 -483 397 -568 605 -316 133 160 671 452 833 452 176 0 1132 485 1261 640 164 198 113 963 -80 1190 -120 143 -235 167 -544 115 -723 -123 -1188 350 -1088 1105 30 220 57 634 62 920 l8 520 250 -239 c313 -298 715 -454 988 -383 323 84 675 -42 1060 -380 446 -391 458 -703 40 -1085 -288 -262 -314 -339 -325 -957 -9 -444 28 -687 108 -718 67 -26 348 29 625 121 298 99 622 141 794 103 167 -37 319 -19 356 42 36 58 181 106 322 106 217 0 237 -23 132 -150 -76 -92 -296 -150 -567 -150 -463 0 -1033 -228 -1033 -413 0 -65 -71 -79 -175 -35 -273 115 -832 56 -993 -106 -81 -80 -199 -146 -263 -146 -97 0 -690 -259 -1369 -597 -316 -158 -159 -346 300 -359 248 -7 614 -47 814 -90 298 -63 420 -35 675 154 255 188 362 213 586 134 254 -88 279 -147 325 -744 33 -426 129 -782 281 -1039 216 -366 220 -400 61 -550 -94 -87 -137 -100 -96 -28 96 172 -119 683 -330 784 -91 44 -457 81 -813 83 -553 2 -653 30 -685 190 -21 104 22 299 94 435 117 217 110 264 -55 384 -245 179 -1178 118 -1508 -99 -456 -298 -1000 -1635 -894 -2198 62 -330 73 -337 479 -291 620 71 666 99 666 416 0 393 211 550 621 462 451 -96 536 -183 742 -755 146 -407 234 -511 482 -576 171 -44 320 -157 339 -256 30 -158 -24 -169 -515 -108 -530 66 -555 58 -777 -242 -421 -568 -1042 -344 -1042 376 0 323 -31 362 -335 424 -544 112 -713 -141 -725 -1085 -13 -1051 -119 -1875 -240 -1875 -60 0 -108 509 -121 1284 -20 1278 -92 1566 -391 1566 -112 0 -138 -345 -138 -1850 l0 -1850 239 0 c196 0 251 66 311 375 71 372 73 373 223 150 83 -124 251 -225 373 -225 289 0 379 -99 241 -266 -86 -103 -73 -134 57 -134 93 0 399 -75 681 -168 538 -176 514 -234 -154 -378 -159 -34 -318 -156 -369 -282 -87 -217 -89 -217 -96 33 -3 140 48 309 114 375 86 86 88 120 6 120 -63 0 -142 -45 -176 -100 -34 -55 -166 -100 -294 -100 -127 0 -288 -67 -356 -150 -185 -223 -388 -182 -457 93 -34 133 -124 267 -202 297 -110 42 -141 -62 -141 -478 0 -531 0 -532 324 -541 178 -5 403 63 500 151 163 147 176 143 176 -57 0 -339 433 -275 884 132 401 363 574 388 1391 202 313 -71 325 -63 325 239 0 354 -68 389 -264 137 -128 -164 -148 -161 -336 61 -110 130 -200 271 -200 314 0 99 673 229 795 153 50 -31 119 -11 154 45 35 56 173 102 307 102 134 0 244 45 244 100 0 55 68 100 150 100 83 0 150 89 150 200 0 110 -37 200 -83 200 -133 0 43 1031 259 1519 108 244 229 705 269 1024 73 590 359 1386 535 1495 54 33 124 -41 156 -164 106 -405 373 22 428 687 55 664 301 1606 443 1693 51 32 93 385 93 784 0 691 18 747 364 1151 360 420 371 425 856 358 378 -52 532 -31 665 90 129 116 250 135 469 72 l296 -84 -282 -112 c-154 -62 -349 -113 -431 -113 -101 0 -131 -61 -91 -186 34 -107 -6 -239 -94 -312 -193 -160 -195 -302 -6 -302 81 0 193 86 250 192 313 586 715 607 1754 90 636 -317 1203 -383 1675 -196 291 115 374 314 132 314 -79 0 -267 -47 -418 -104 -150 -57 -344 -76 -431 -42 -217 85 539 481 935 490 276 6 301 41 430 620 l136 615 490 -315 c269 -173 492 -342 495 -377 3 -34 -202 -39 -457 -10 -367 41 -454 23 -417 -87 27 -82 272 -172 588 -219 483 -70 557 -56 679 125 215 319 569 249 1065 -209 354 -326 448 -481 448 -737 0 -272 1050 -2833 1239 -3022 33 -33 139 8 235 91 275 235 496 281 817 169 194 -68 278 -153 242 -246 -81 -212 240 -176 817 92 499 233 1976 426 2300 302 93 -35 150 -188 150 -399 0 -315 -19 -336 -255 -277 -239 60 -251 46 -187 -223 37 -158 182 -410 323 -561 364 -392 219 -433 -241 -69 -441 350 -631 639 -636 968 -5 277 -302 306 -372 36 -41 -158 -116 -181 -441 -137 -473 63 -555 -175 -116 -336 l275 -100 -400 -222 c-220 -121 -547 -310 -728 -418 -180 -108 -574 -226 -875 -261 -507 -60 -567 -44 -797 203 -197 213 -286 248 -434 169 -154 -83 -290 -1 -790 471 -333 313 -626 683 -652 820 -26 138 -61 295 -79 350 -18 55 4 342 47 637 46 309 42 564 -10 600 -128 89 -932 1317 -932 1424 0 49 -51 89 -113 89 -207 0 -10 -689 307 -1074 382 -464 382 -526 -1 -526 -240 0 -300 -38 -272 -175 26 -127 124 -171 358 -160 274 12 321 -20 321 -219 0 -301 -104 -359 -461 -258 -324 91 -570 42 -484 -97 31 -50 227 -91 435 -91 308 0 399 -47 494 -255 161 -353 170 -345 -359 -346 -261 0 -604 -68 -763 -150 -158 -83 -530 -179 -827 -214 -298 -35 -564 -101 -592 -146 -105 -170 475 -206 933 -58 734 237 1335 285 1674 135 l300 -133 -400 -73 c-458 -84 -1144 -374 -1147 -485 -5 -128 349 -82 553 72 377 285 1647 121 1839 -238 76 -141 42 -233 -149 -413 -135 -127 -246 -304 -246 -393 0 -242 -205 -403 -513 -403 -190 0 -339 -92 -490 -304 -165 -232 -248 -278 -347 -196 -170 141 -589 33 -806 -207 -140 -155 -149 -217 -46 -341 184 -221 429 -196 356 36 -42 132 -2 202 140 239 274 72 457 -160 257 -326 -224 -186 -184 -301 107 -301 314 0 279 -235 -41 -282 -254 -37 -277 -144 -67 -318 213 -177 186 -400 -50 -400 -189 0 -243 95 -209 367 23 192 -159 243 -292 82 -133 -161 -499 -205 -499 -61 0 48 68 144 150 212 220 183 183 300 -94 300 -335 0 -403 156 -147 335 304 213 146 424 -165 220 -294 -193 -344 -194 -344 -7 0 209 -450 297 -794 154 -247 -102 -332 -92 -573 68 -156 103 -370 234 -477 291 -314 167 -396 575 -200 988 94 197 143 385 110 419 -117 116 -459 -420 -475 -743 -9 -179 -22 -376 -28 -439 -7 -62 -140 -127 -295 -144 -156 -16 -347 -83 -425 -148 -113 -94 -143 -87 -143 32 0 82 -68 206 -150 274 -188 156 -193 300 -12 300 158 0 418 278 336 359 -30 30 -146 -3 -259 -73 -172 -107 -235 -99 -399 50 -137 123 -217 143 -266 64 -49 -79 -127 -61 -260 59 -205 186 -252 491 -90 591 186 115 112 450 -100 450 -157 0 -200 67 -200 307 0 256 31 297 192 246 207 -66 377 93 210 196 -56 35 -102 130 -102 213 0 131 27 130 222 -6 271 -190 813 -212 754 -31 -23 69 -151 141 -284 160 -229 33 -387 171 -390 341 -1 42 87 20 196 -48 158 -99 222 -97 325 12 101 107 101 144 2 181 -69 25 -125 109 -125 187 0 163 -159 190 -250 42 -124 -200 -242 -92 -301 275 -33 206 -102 443 -153 525 -51 83 -159 296 -239 475 -179 396 -478 429 -641 70 -168 -368 -145 -468 91 -393 331 105 467 -191 444 -963 -14 -436 -81 -770 -188 -934 -212 -323 -284 -325 -204 -5 66 265 -67 337 -232 125 -54 -69 -183 -413 -286 -766 -117 -396 -299 -752 -479 -931 -197 -197 -257 -323 -188 -392 152 -152 446 69 768 577 152 241 322 437 379 437 159 0 -5 -912 -218 -1208 -101 -143 -231 -426 -287 -630 -148 -537 -538 -1153 -1019 -1612 -376 -359 -412 -374 -347 -150 110 378 109 422 -10 466 -62 23 -179 -201 -267 -511 -186 -654 -782 -1427 -1252 -1624 -181 -75 -353 -215 -383 -309 -95 -310 -186 -438 -288 -405 -55 18 -89 116 -75 216 30 213 -163 181 -309 -50 -155 -246 -5 -483 306 -481 358 2 463 76 668 476 116 225 263 348 466 388 164 33 322 99 352 147 80 130 690 93 1639 -99 824 -167 848 -181 912 -492 36 -176 232 -638 436 -1026 351 -667 371 -756 378 -1675 4 -534 -26 -1250 -67 -1591 -70 -581 -58 -637 180 -875 342 -343 707 -327 1079 45 165 165 319 300 343 300 23 0 42 -125 42 -277 0 -192 81 -326 263 -436 227 -138 321 -142 693 -30 382 115 489 107 962 -71 813 -306 805 -288 687 -1536 -57 -597 -84 -1104 -61 -1128 115 -115 251 131 306 555 110 838 243 935 201 148 -34 -645 -18 -725 141 -725 146 0 192 115 244 621 43 412 149 748 315 998 137 207 249 423 249 479 0 205 -271 95 -385 -156 -279 -612 -547 218 -318 985 126 422 667 1273 810 1273 130 0 116 437 -18 571 -61 61 -81 161 -43 222 210 340 671 -734 676 -1573 3 -639 136 -920 435 -920 204 0 178 -282 -106 -1171 -322 -1008 -328 -1329 -26 -1329 185 0 314 179 730 1015 l504 1016 796 300 c505 190 955 293 1233 282 240 -9 489 26 551 78 63 53 314 110 558 127 386 28 470 77 648 382 175 298 205 521 205 1512 0 1304 -40 1263 750 767 248 -155 569 -334 714 -398 145 -64 344 -255 443 -424 99 -169 302 -464 451 -657 430 -554 454 -763 109 -941 -501 -259 -832 -736 -797 -1148 37 -450 213 -472 280 -35 28 179 178 461 333 625 279 294 567 395 567 199 0 -178 290 -106 400 100 59 110 156 200 215 200 60 0 260 133 445 296 186 162 518 344 739 404 399 107 401 110 401 598 0 270 -49 520 -109 557 -78 49 -78 98 0 176 138 138 141 722 5 976 -80 149 -210 193 -575 191 -581 -1 -661 -53 -814 -522 -67 -205 -165 -400 -218 -433 -208 -128 -600 -869 -542 -1022 48 -124 13 -116 -154 35 -119 107 -257 303 -308 435 -77 202 -42 294 212 556 298 308 703 1255 703 1646 0 492 -436 959 -1078 1153 -168 51 -274 11 -408 -153 -140 -174 -241 -208 -451 -155 -150 37 -301 145 -338 240 -88 231 -612 1002 -730 1075 -52 32 -138 141 -193 243 -89 167 -64 180 275 135 288 -38 457 9 744 204 430 294 952 271 1245 -52 152 -168 158 -234 45 -513 -223 -555 -238 -666 -97 -716 345 -122 651 -264 817 -379 151 -104 203 -95 318 60 166 223 124 2141 -53 2472 -81 152 -79 243 8 348 169 203 296 84 296 -278 0 -503 213 -1577 312 -1577 51 0 141 107 201 238 59 131 272 324 473 429 420 221 497 483 270 921 -197 381 -200 751 -6 912 123 102 150 441 150 1876 0 1549 -20 1768 -175 1891 -348 278 -639 344 -996 226 -363 -120 -574 -47 -326 112 81 52 316 142 522 199 405 112 425 151 277 539 -154 407 27 757 392 757 l299 0 2 1900 c1 1045 -33 1900 -75 1900 -42 0 -159 -139 -260 -309 -174 -296 -176 -771 -6 -1216 87 -226 -270 -577 -683 -670 -329 -75 -418 -52 -681 169 -169 142 -337 215 -382 165 -264 -292 -407 -1400 -207 -1600 130 -130 178 -973 60 -1039 -49 -27 -143 161 -208 419 -66 259 -173 535 -239 614 -132 159 -10 916 203 1257 63 101 88 254 55 339 -54 141 -111 141 -591 -2 -292 -87 -711 -169 -931 -182 -220 -13 -461 -29 -536 -34 -78 -7 -111 -75 -78 -161 32 -82 14 -150 -39 -150 -53 0 -97 40 -97 89 0 48 -153 161 -340 250 -463 219 -2360 234 -2360 18 0 -78 58 -202 129 -275 71 -73 204 -240 296 -373 134 -195 258 -243 642 -250 402 -8 496 -48 604 -259 137 -267 96 -802 -118 -1525 -143 -485 -315 -586 -441 -258 -135 352 -417 561 -908 671 -420 94 -797 411 -802 675 -3 167 260 354 467 333 346 -36 431 5 431 211 0 281 -165 581 -536 973 -294 310 -348 328 -936 309 -552 -18 -654 9 -882 238 -243 243 -251 282 -137 662 147 491 17 711 -421 711 -310 0 -688 304 -688 554 0 84 203 350 450 591 305 296 450 521 450 696 0 374 269 327 437 -75 89 -212 281 -407 526 -534 213 -110 453 -317 534 -461 137 -242 131 -278 -92 -516 -132 -140 -317 -255 -410 -255 -270 0 -411 -253 -428 -770 l-17 -479 850 -78 c468 -43 1271 -66 1785 -51 l934 28 139 400 c193 554 176 825 -58 950 -110 59 -200 76 -200 38 0 -38 -90 12 -200 112 -337 305 -244 520 441 1012 521 375 653 527 707 813 38 204 103 314 155 262 51 -51 43 -265 -19 -510 -138 -545 -70 -701 390 -893 422 -175 522 -289 524 -594 3 -312 -320 -545 -860 -623 -457 -65 -485 -88 -571 -451 -60 -252 -55 -418 15 -488 182 -182 1717 -319 2172 -193 560 155 881 462 731 702 -181 290 -20 901 273 1035 197 90 319 78 599 -55 397 -190 741 -144 1168 154 263 184 275 229 275 1036 l0 843 -875 14 c-481 8 -1371 19 -1977 25 -981 10 -1133 36 -1388 236 -346 271 -840 290 -2051 77 -851 -150 -2841 -116 -3059 52 -85 66 -1709 -98 -2143 -215 -85 -24 -239 133 -386 393 l-244 432 -863 -50 c-652 -37 -912 -14 -1058 94 -245 179 -306 178 -495 -11z m539 -535 c0 -103 68 -244 150 -312 83 -68 150 -184 150 -256 0 -225 -204 -272 -403 -92 -104 95 -247 150 -318 123 -200 -77 -330 -37 -301 92 15 65 -19 146 -75 181 -217 134 -89 244 214 184 267 -54 307 -38 253 102 -46 120 -9 166 133 166 126 0 197 -68 197 -188z m-1234 -157 c-70 -147 -152 -209 -207 -154 -54 54 -39 152 37 245 197 237 299 183 170 -91z m2719 170 c150 150 159 -156 11 -432 -141 -264 -280 -242 -355 57 -34 138 -105 250 -158 250 -52 0 -67 45 -33 100 40 65 125 67 241 5 120 -64 216 -58 294 20z m-3435 -525 c-52 -165 -18 -200 193 -200 303 0 331 -106 70 -269 -128 -80 -173 -195 -141 -362 67 -353 -161 -447 -387 -158 -183 234 -191 235 -335 46 -180 -234 -206 -209 -280 268 -60 390 -14 428 455 380 126 -13 175 55 175 239 0 166 55 256 157 256 111 0 138 -58 93 -200z m2750 -206 c0 -107 -45 -194 -100 -194 -55 0 -100 115 -100 256 0 145 43 229 100 194 55 -34 100 -149 100 -256z m1284 -37 c27 -136 -11 -162 -166 -113 -111 35 -230 17 -265 -40 -36 -57 -163 -101 -284 -98 -213 7 -214 9 -16 89 112 46 265 157 340 247 164 197 344 158 391 -85z m5516 -146 c0 -123 -282 -221 -344 -121 -28 45 -22 111 13 146 96 95 331 77 331 -25z m-8600 -167 c0 -86 -46 -128 -102 -93 -56 35 -75 105 -44 156 86 139 146 113 146 -63z m3600 2 c0 -85 -85 -246 -189 -358 -244 -261 -388 -70 -206 272 144 268 395 323 395 86z m3700 4 c0 -82 -67 -150 -150 -150 -82 0 -150 68 -150 150 0 83 68 150 150 150 83 0 150 -67 150 -150z m4300 -100 c0 -82 -42 -150 -94 -150 -126 0 -217 156 -137 236 113 113 231 69 231 -86z m-9737 -50 c75 0 137 -69 137 -153 0 -84 70 -180 156 -213 86 -33 130 -125 99 -206 -30 -80 37 -264 150 -408 144 -182 187 -338 143 -515 -150 -595 -453 -649 -1112 -195 -484 333 -619 332 -439 -4 155 -290 53 -406 -359 -406 -208 0 -325 41 -288 100 34 55 149 100 256 100 209 0 248 160 97 399 -83 131 -129 129 -378 -18 l-283 -168 -15 384 c-15 362 4 386 330 448 191 35 392 37 447 3 136 -85 705 175 661 301 -20 56 -196 96 -393 90 l-357 -10 217 293 c179 242 267 283 505 236 158 -32 350 -58 426 -58z m10986 -2 c-35 -56 -105 -75 -156 -44 -139 86 -113 146 63 146 86 0 128 -46 93 -102z m-13249 -154 c0 -86 -45 -128 -100 -94 -55 34 -100 104 -100 156 0 52 45 94 100 94 55 0 100 -70 100 -156z m3160 -217 c-33 -33 -56 26 -52 131 5 117 28 141 60 61 29 -72 26 -159 -8 -192z m-4860 43 c0 -184 -235 -668 -325 -669 -41 -1 -75 68 -75 152 0 84 -69 180 -154 212 -137 53 -135 81 15 247 194 215 539 252 539 58z m2085 -281 c-74 -47 -247 -84 -385 -81 l-250 5 249 99 c137 55 293 176 347 269 89 155 100 154 135 -19 21 -103 -22 -226 -96 -273z m515 111 c-196 -127 -328 -127 -250 0 34 55 138 99 231 98 146 -1 148 -14 19 -98z m2464 -250 c31 -82 25 -229 -14 -325 -66 -161 -78 -159 -154 25 -45 110 -85 256 -89 325 -10 175 187 156 257 -25z m648 -117 c-118 -203 -146 -138 -50 113 35 90 84 142 110 116 25 -26 -1 -129 -60 -229z m-5551 -73 c-84 -338 38 -860 202 -860 75 0 137 -89 137 -198 0 -135 88 -217 275 -258 454 -100 525 -133 525 -244 0 -144 -304 -252 -385 -138 -36 51 -189 146 -340 213 -169 74 -275 198 -275 323 0 135 -66 202 -200 202 -237 0 -269 345 -80 868 139 385 230 444 141 92z m9757 90 c-26 -147 -244 -122 -296 35 -29 86 19 122 134 100 99 -19 172 -80 162 -135z m4502 30 c-93 -93 -147 -93 -240 0 -93 93 -67 120 120 120 187 0 213 -27 120 -120z m-13320 -141 c0 -21 -67 -39 -150 -39 -82 0 -150 44 -150 97 0 53 68 71 150 39 83 -31 150 -75 150 -97z m300 -239 c0 -55 -48 -100 -106 -100 -58 0 -78 45 -44 100 34 55 82 100 106 100 24 0 44 -45 44 -100z m-400 -858 c0 -20 -67 -10 -150 22 -82 31 -150 120 -150 197 0 76 -76 139 -169 139 -148 0 -145 18 23 140 175 128 203 114 319 -161 70 -166 127 -318 127 -337z m960 7 c77 -118 113 -242 80 -276 -33 -33 12 -163 100 -289 303 -432 159 -397 -339 84 -275 265 -500 524 -500 576 -1 51 100 201 224 334 l225 241 34 -227 c19 -125 98 -324 176 -443z m-4042 401 c-26 -147 -244 -122 -296 35 -29 86 19 122 134 100 99 -19 172 -80 162 -135z m1132 50 c34 -55 -34 -100 -150 -100 -116 0 -184 45 -150 100 34 55 101 100 150 100 49 0 116 -45 150 -100z m4659 -628 c87 -67 140 -178 116 -247 -23 -69 30 -125 117 -125 87 0 158 58 158 128 0 71 135 179 300 241 343 130 351 118 160 -249 -391 -751 -1735 -1365 -2011 -918 -27 44 39 56 146 28 210 -55 805 166 805 299 0 44 -152 51 -339 17 -401 -76 -596 116 -215 212 289 72 344 242 79 242 -133 1 -103 60 125 247 348 285 350 285 559 125z m-5109 -328 c0 -170 -258 -193 -357 -33 -75 122 149 306 277 227 44 -28 80 -115 80 -194z m4100 -83 c0 -22 -67 -66 -150 -97 -82 -32 -150 -14 -150 39 0 53 68 97 150 97 83 0 150 -18 150 -39z m-2150 -161 c-34 -55 -82 -100 -106 -100 -24 0 -44 45 -44 100 0 55 48 100 106 100 58 0 78 -45 44 -100z m-5996 -707 c92 -149 -15 -230 -206 -156 -88 34 -133 107 -98 162 81 131 221 129 304 -6z m3446 -1212 c0 -131 -227 -49 -277 100 -24 73 21 96 119 58 87 -33 158 -104 158 -158z m500 -376 c0 -159 -227 -605 -308 -605 -356 0 -514 338 -272 580 143 143 580 161 580 25z m14998 -405 c158 0 402 -428 402 -703 0 -66 -1302 -12 -1383 58 -51 43 163 410 345 593 90 90 229 138 309 108 80 -31 227 -56 327 -56z m902 -456 c0 -24 -70 -44 -156 -44 -86 0 -128 46 -93 102 57 92 249 48 249 -58z m572 -509 c24 -73 -79 -110 -280 -100 -266 12 -345 -38 -480 -308 -189 -375 -312 -419 -312 -108 0 344 393 696 739 661 163 -17 313 -82 333 -145z m-20372 -185 c0 -82 -42 -150 -94 -150 -126 0 -217 156 -137 236 113 113 231 69 231 -86z m20300 -585 c0 -53 -89 -16 -198 83 -108 98 -169 225 -134 281 65 105 332 -187 332 -364z m818 -87 c-71 -71 -118 -77 -118 -15 0 57 30 134 67 170 36 37 90 44 118 15 28 -28 -2 -105 -67 -170z m879 -175 c245 -245 364 -682 223 -823 -294 -294 -820 203 -820 775 0 308 312 333 597 48z m-2015 -277 c-44 -379 -347 -430 -325 -54 21 344 11 328 200 328 111 0 147 -78 125 -274z m1079 -601 c269 -261 579 -527 689 -590 186 -108 189 -127 35 -287 -150 -155 -205 -158 -600 -27 -326 107 -478 230 -605 486 -181 365 -237 893 -94 893 47 0 306 -214 575 -475z m-895 -252 c-28 -68 -49 12 -47 177 3 165 25 220 50 123 26 -97 24 -232 -3 -300z m-737 -89 c-154 -154 -280 -193 -470 -145 -334 84 -343 300 -9 237 137 -27 328 9 425 80 259 189 296 71 54 -172z m-5010 -68 c-24 -162 20 -216 175 -216 234 0 263 -102 81 -285 -100 -101 -75 -163 124 -314 136 -103 215 -220 175 -260 -97 -98 -574 124 -574 267 0 61 -72 264 -161 451 -170 358 -124 687 86 615 69 -23 111 -140 94 -258z m5481 -310 c0 -247 706 -869 1078 -951 340 -75 345 -313 12 -614 -162 -147 -247 -156 -567 -60 -455 137 -1092 763 -1216 1195 -83 289 -64 331 226 505 354 212 467 194 467 -75z m-1758 133 c250 -96 185 -320 -141 -489 -469 -242 -635 -572 -556 -1100 51 -340 35 -449 -64 -446 -146 4 -721 941 -820 1339 -57 226 -34 257 192 257 142 0 423 113 626 250 384 261 500 290 763 189z m2862 -590 c164 -36 271 -108 238 -161 -139 -227 -1042 370 -1042 688 0 77 114 4 253 -161 139 -165 387 -330 551 -366z m-7004 52 c114 -72 124 -137 43 -267 -187 -299 -343 -273 -343 58 0 325 56 365 300 209z m5387 -834 c200 -211 521 -472 713 -580 l350 -197 -350 53 c-486 74 -1303 961 -1292 1401 l8 306 104 -300 c57 -165 268 -472 467 -683z m-13287 633 c0 -110 64 -200 143 -200 95 0 141 -103 135 -305 -8 -279 -32 -299 -284 -244 -153 34 -304 14 -340 -45 -114 -184 -238 -115 -181 102 42 162 13 200 -134 175 -133 -23 -199 35 -221 196 -29 202 -2 221 231 162 214 -53 274 -26 319 147 70 269 332 279 332 12z m12432 -184 c123 -617 1107 -1516 1660 -1516 l245 0 -287 -300 c-388 -405 -803 -400 -1397 19 -302 213 -453 392 -453 539 0 135 -77 239 -200 271 -116 30 -200 136 -200 253 0 111 -24 265 -54 342 -64 166 312 676 499 676 71 0 156 -128 187 -284z m-5873 -166 c-35 -137 -33 -250 3 -250 36 0 169 113 297 250 284 306 441 319 441 36 0 -118 74 -268 165 -335 199 -145 99 -351 -171 -351 -234 0 -239 -39 -39 -344 175 -266 40 -442 -156 -205 -140 169 -399 200 -399 49 0 -55 -51 -100 -113 -100 -74 0 -95 136 -61 393 42 309 23 381 -86 339 -103 -39 -140 37 -140 291 0 351 60 477 228 477 51 0 65 -112 31 -250z m-5162 -293 c68 -178 181 -252 422 -275 424 -41 514 -345 132 -441 -179 -45 -245 -113 -206 -214 45 -116 2 -135 -190 -87 -185 46 -274 11 -355 -139 -59 -111 -173 -201 -254 -201 -192 0 -189 362 4 436 239 92 174 248 -117 282 -367 44 -413 260 -64 300 199 23 284 90 291 232 16 310 32 350 142 350 57 0 145 -109 195 -243z m6803 143 c0 -55 -90 -100 -200 -100 -110 0 -200 45 -200 100 0 55 90 100 200 100 110 0 200 -45 200 -100z m1000 8 c0 -50 -56 -112 -125 -137 -97 -35 -99 -89 -7 -245 87 -149 89 -229 5 -313 -158 -158 -273 -141 -273 40 0 84 -67 179 -150 211 -82 31 -150 165 -150 297 0 207 48 239 350 239 193 0 350 -41 350 -92z m-5445 -417 c37 -60 17 -159 -44 -220 -167 -167 -135 -254 106 -289 320 -47 355 -282 41 -282 -259 0 -360 -225 -156 -351 149 -92 17 -250 -155 -184 -81 31 -147 142 -147 246 0 233 -80 238 -319 21 -290 -262 -435 -28 -182 294 196 249 130 465 -99 324 -154 -95 -298 38 -231 214 46 120 148 143 435 97 281 -45 389 -22 432 89 68 176 224 196 319 41z m4245 -291 c0 -218 256 -277 328 -75 25 69 83 89 130 45 128 -120 -163 -267 -533 -268 -329 -2 -374 55 -264 340 87 226 339 195 339 -42z m-8144 -90 c-30 -49 11 -217 92 -373 137 -263 133 -290 -48 -357 -157 -58 -184 -133 -136 -376 67 -333 -107 -433 -191 -110 -37 139 -110 178 -262 138 -240 -63 -291 148 -86 353 100 101 79 161 -108 302 -187 141 -206 196 -100 281 267 211 954 328 839 142z m-5768 -287 c52 -97 127 -351 167 -565 l73 -389 -327 66 c-179 36 -388 65 -464 65 -95 0 -137 132 -137 433 0 239 30 464 67 500 132 133 528 63 621 -110z m6412 -214 c0 -148 47 -316 104 -373 69 -69 71 -189 6 -359 -53 -141 -71 -282 -39 -314 106 -107 -193 -363 -423 -363 -124 0 -253 -67 -284 -150 -32 -82 -104 -150 -161 -150 -190 0 -102 348 149 585 136 130 248 319 248 420 0 101 49 214 109 251 61 37 94 237 74 444 -26 272 -1 362 91 327 69 -27 126 -170 126 -318z m10100 135 c0 -168 -90 -180 -300 -42 -131 85 -131 110 -5 191 175 112 305 49 305 -149z m-383 -751 c1085 -1124 1718 -2039 1636 -2365 -32 -128 -6 -329 57 -447 101 -189 75 -249 -212 -483 -381 -311 -247 -518 162 -251 317 208 440 532 325 853 -73 202 -22 173 263 -150 291 -328 344 -454 295 -700 -32 -165 -61 -425 -65 -577 -5 -234 -39 -268 -217 -214 -116 35 -351 149 -523 252 -171 104 -445 189 -609 189 -340 0 -605 384 -405 584 79 79 56 129 -82 179 -391 142 -750 463 -889 795 -160 383 -515 496 -398 127 58 -182 39 -203 -118 -135 -103 43 -446 167 -762 274 -703 237 -753 450 -164 698 l409 172 -38 528 c-32 459 -6 553 199 717 225 180 236 283 70 686 -167 404 238 126 1066 -732z m-7717 463 c0 -189 -34 -363 -75 -386 -160 -89 -1061 86 -1104 215 -29 88 19 120 142 92 216 -48 737 182 737 326 0 53 68 97 150 97 104 0 150 -105 150 -344z m4157 87 c286 72 286 71 100 -136 -103 -114 -218 -207 -254 -207 -140 0 -504 417 -446 512 37 59 114 30 187 -71 93 -127 198 -152 413 -98z m-7958 8 c68 -82 96 -220 63 -307 -34 -87 -19 -237 32 -332 75 -140 25 -210 -258 -362 -300 -162 -363 -168 -441 -45 -149 235 -109 438 113 577 163 102 183 159 91 269 -132 159 -53 349 145 349 72 0 187 -67 255 -149z m10172 -13 c52 -159 -396 -258 -491 -109 -42 66 -78 158 -78 203 -3 122 527 35 569 -94z m-833 -92 c33 -87 -5 -178 -90 -210 -81 -32 -148 -143 -148 -247 0 -122 -70 -189 -200 -189 -148 0 -200 -67 -200 -256 0 -160 -41 -230 -109 -188 -61 37 -89 175 -64 306 34 179 1 238 -135 238 -244 0 -323 156 -197 391 161 301 1041 420 1143 155z m-3588 -146 c34 -55 173 -100 309 -100 137 0 361 -74 499 -164 203 -133 298 -143 504 -49 275 126 438 77 438 -131 0 -72 68 -188 150 -256 217 -180 184 -324 -56 -248 -190 60 -201 36 -139 -293 79 -422 -106 -501 -255 -109 -93 245 -300 348 -300 150 0 -55 -68 -100 -150 -100 -151 0 -188 102 -155 424 14 142 -38 162 -289 112 -342 -68 -379 15 -150 342 181 259 88 293 -169 60 -161 -145 -193 -146 -333 -7 -170 170 -208 469 -60 469 52 0 122 -45 156 -100z m-1138 -341 c220 -92 394 -109 506 -50 250 135 354 -107 122 -286 -133 -102 -152 -160 -65 -193 174 -65 157 -230 -25 -230 -93 0 -150 -94 -150 -250 0 -324 -160 -323 -242 2 -53 212 -93 236 -254 150 -385 -206 -546 -58 -254 234 209 209 188 264 -100 264 -386 0 -329 443 64 492 34 4 214 -55 398 -133z m-2012 -262 c0 -200 5 -199 301 19 207 154 333 190 404 119 71 -71 56 -143 -51 -231 -207 -173 -194 -270 46 -333 224 -58 275 -271 65 -271 -195 0 -498 -369 -436 -530 71 -186 -80 -412 -218 -327 -61 38 -111 201 -111 363 0 224 -46 294 -194 294 -389 0 -363 262 44 441 65 28 62 73 -7 126 -142 109 -245 398 -169 473 132 133 326 48 326 -143z m7156 -67 c-30 -80 -14 -222 37 -318 70 -129 42 -204 -108 -298 -175 -109 -233 -91 -447 140 l-246 265 269 232 c281 241 591 228 495 -21z m-5956 -242 c0 -55 -45 -72 -100 -38 -55 34 -100 107 -100 162 0 55 45 72 100 38 55 -34 100 -107 100 -162z m4905 -436 c295 -2 361 -242 178 -654 -100 -227 -198 -298 -407 -298 -240 0 -276 39 -276 300 0 233 -44 300 -200 300 -242 0 -253 163 -39 593 l162 323 170 -281 c110 -182 255 -281 412 -283z m-2571 248 c65 0 163 -101 217 -225 56 -126 217 -247 368 -275 338 -63 757 -425 887 -766 113 -298 48 -428 -128 -252 -123 123 -478 164 -478 56 0 -35 203 -242 452 -460 248 -219 568 -597 711 -841 286 -488 462 -1110 335 -1188 -44 -27 -31 -180 29 -339 88 -235 77 -339 -61 -550 -309 -471 -966 -224 -966 364 0 351 -211 329 -312 -31 -60 -213 -71 -200 -88 107 -11 193 -12 496 -2 675 22 409 -182 429 -263 25 -73 -365 -145 -373 -450 -52 -129 137 -282 249 -339 250 -481 8 -1870 1255 -2429 2180 l-319 528 218 295 c177 239 246 272 363 175 128 -106 555 -288 1034 -441 110 -35 268 96 494 410 205 285 385 441 470 408 77 -29 193 -53 257 -53z m-5467 -1125 c80 -126 140 -675 74 -675 -57 0 -341 579 -341 695 0 145 171 132 267 -20z m2112 -656 c236 -125 468 -327 515 -448 47 -122 225 -353 396 -515 170 -161 310 -347 310 -412 0 -66 59 -168 130 -228 264 -219 903 -1655 949 -2133 26 -265 6 -483 -44 -483 -179 0 -549 325 -639 560 -91 240 -296 333 -296 135 0 -280 347 -725 670 -860 518 -216 285 -381 -265 -187 -503 178 -1036 196 -1318 45 -277 -148 -505 50 -425 370 81 323 -132 566 -430 492 -229 -58 -232 -48 -232 781 0 931 -161 1513 -565 2042 -261 343 -572 1182 -488 1317 66 108 1240 -215 1732 -476z m623 229 c179 -216 70 -276 -242 -134 -192 87 -230 143 -138 202 181 114 237 104 380 -68z m4998 -105 c0 -75 87 -182 193 -239 218 -117 507 91 507 366 0 187 289 144 1103 -162 674 -254 912 -578 1262 -1718 245 -799 249 -848 89 -1145 -107 -200 -143 -405 -99 -578 76 -306 -168 -767 -407 -767 -82 0 -148 35 -148 78 0 124 -590 440 -697 374 -54 -33 -152 -243 -219 -467 -126 -419 -585 -806 -1115 -939 -233 -59 -252 -33 -317 439 -57 418 -35 547 139 783 173 234 212 444 226 1232 18 986 -7 1081 -623 2350 -233 479 -247 664 -44 586 82 -31 150 -118 150 -193z m-4105 -1008 c278 -256 505 -515 505 -576 0 -62 85 -270 189 -464 208 -388 543 -1596 465 -1674 -27 -27 -69 13 -93 90 -277 880 -402 1171 -753 1757 -224 375 -526 828 -671 1007 -370 458 -232 404 358 -140z m7505 38 c0 -70 123 -306 272 -525 243 -355 277 -507 311 -1407 46 -1197 -104 -1641 -553 -1641 -146 0 -417 -55 -602 -122 -266 -96 -378 -95 -536 4 -110 69 -240 100 -289 70 -155 -96 -202 111 -68 294 112 154 147 158 274 31 80 -80 242 -197 360 -260 187 -100 248 -75 473 192 142 168 278 404 302 524 25 119 95 446 157 727 95 434 81 633 -95 1339 -241 968 -233 901 -106 901 55 0 100 -57 100 -127z m-10326 -491 c256 -387 277 -494 285 -1484 6 -587 39 -1114 74 -1171 95 -153 -187 -347 -449 -310 -310 45 -399 533 -270 1476 56 408 71 1004 34 1325 -37 320 -41 582 -9 582 32 0 183 -188 335 -418z m4259 -631 c278 -117 380 -233 462 -525 139 -503 152 -449 -248 -1074 -369 -576 -547 -691 -547 -352 0 110 56 189 125 175 177 -35 119 1166 -75 1555 -220 440 -227 434 283 221z m11407 -576 c-165 -179 -401 -550 -526 -825 -346 -764 -370 -798 -588 -830 -184 -28 -200 15 -172 437 37 549 420 1096 955 1363 545 272 666 219 331 -145z m-8959 -1022 c329 2 396 -22 284 -104 -80 -59 -198 -299 -261 -533 -129 -480 -304 -594 -660 -431 -276 125 -315 332 -96 513 131 109 131 148 0 335 -209 298 -184 394 77 299 124 -45 419 -81 656 -79z m119 -1648 c0 -457 -162 -869 -375 -951 -97 -37 -129 -9 -94 82 29 76 85 358 124 626 79 546 115 638 251 638 52 0 94 -178 94 -395z m-610 -1624 c-70 -131 -141 -179 -163 -111 -22 65 15 223 83 349 70 131 141 179 163 111 22 -65 -15 -223 -83 -349z"/>
<path d="M11100 21200 c-117 -76 -89 -97 125 -98 151 -1 275 43 275 98 0 126 -204 126 -400 0z"/>
<path d="M8650 4500 c-163 -315 -145 -600 38 -600 103 0 265 781 179 866 -29 29 -126 -91 -217 -266z"/>
<path d="M325 17151 l-325 -346 0 -1441 c0 -1403 6 -1442 221 -1499 383 -100 579 188 579 850 0 365 95 859 255 1321 l254 737 -214 363 c-118 200 -267 363 -330 362 -63 -1 -261 -157 -440 -347z"/>
<path d="M11520 16374 c-57 -69 -136 -254 -176 -413 -40 -158 -156 -309 -258 -336 -191 -50 -261 -225 -91 -225 248 0 616 258 669 470 32 129 144 281 248 336 103 56 188 144 188 198 0 140 -458 118 -580 -30z"/>
<path d="M12471 16099 c55 -210 382 -342 696 -281 268 51 223 227 -67 265 -137 19 -293 75 -345 125 -171 165 -339 101 -284 -109z"/>
<path d="M9400 15261 c0 -176 302 -299 428 -173 52 52 64 143 27 203 -97 158 -455 134 -455 -30z"/>
<path d="M12100 15150 c0 -82 68 -150 150 -150 83 0 150 68 150 150 0 82 -67 150 -150 150 -82 0 -150 -68 -150 -150z"/>
<path d="M16420 14880 c-207 -207 -133 -280 280 -280 275 0 400 43 400 139 0 248 -474 347 -680 141z"/>
<path d="M10100 14743 c0 -93 68 -144 167 -125 251 48 285 282 41 282 -123 0 -208 -65 -208 -157z"/>
<path d="M9467 14433 c-110 -109 -77 -208 92 -273 233 -89 373 31 234 199 -129 155 -224 176 -326 74z"/>
<path d="M11200 14400 c0 -55 45 -100 100 -100 55 0 100 45 100 100 0 55 -45 100 -100 100 -55 0 -100 -45 -100 -100z"/>
<path d="M12779 14008 c-445 -63 -664 -158 -571 -249 40 -38 1427 -95 1642 -67 129 16 -368 407 -500 392 -55 -6 -312 -40 -571 -76z"/>
<path d="M9100 13697 c0 -148 269 -231 475 -147 161 66 159 78 -25 154 -282 116 -450 113 -450 -7z"/>
<path d="M13548 13098 c-256 -283 -73 -444 401 -355 386 73 449 331 67 276 -160 -23 -199 9 -155 125 85 220 -96 194 -313 -46z"/>
<path d="M24310 8944 c-116 -195 -211 -409 -211 -475 -1 -65 -91 -404 -200 -753 -110 -349 -199 -754 -199 -900 0 -260 15 -266 650 -273 l650 -8 0 533 c0 292 -45 532 -100 532 -55 0 -100 68 -100 150 0 83 45 150 100 150 159 0 116 417 -64 615 -151 167 -151 185 0 244 90 34 164 170 164 302 0 394 -432 321 -690 -117z"/>
<path d="M222 6644 c-210 -147 -222 -226 -222 -1437 0 -1014 31 -1308 149 -1406 155 -129 106 -347 -56 -247 -51 32 -93 -77 -93 -241 0 -234 49 -306 225 -331 220 -31 226 -63 253 -1507 l27 -1475 971 0 971 0 -298 215 c-165 118 -490 442 -724 720 -402 477 -425 540 -425 1135 0 346 38 630 85 630 173 0 382 -367 511 -900 218 -900 379 -1144 989 -1494 442 -254 625 -307 863 -252 166 38 542 65 835 60 364 -6 520 27 493 107 -73 220 -576 311 -980 178 -210 -70 -463 -94 -564 -55 -300 117 317 390 731 323 375 -61 509 48 286 234 -182 151 -998 -25 -1276 -276 -130 -117 -208 -130 -288 -50 -81 81 14 199 352 437 255 180 463 363 463 407 0 160 -219 75 -601 -232 -214 -172 -454 -287 -533 -257 -79 30 -233 331 -342 667 l-198 613 437 665 c455 693 531 925 302 925 -74 0 -215 -179 -314 -397 -243 -540 -482 -747 -718 -621 -262 141 -662 612 -980 1154 -237 405 -265 534 -205 942 89 604 373 1065 753 1222 306 127 397 350 174 426 -160 54 -853 -498 -930 -741 -32 -102 -105 -185 -163 -185 -204 0 26 744 301 971 314 261 94 322 -261 73z"/>
<path d="M5754 6606 c-29 -46 15 -246 97 -442 233 -558 191 -1208 -113 -1726 -276 -471 -259 -669 36 -425 97 80 290 156 430 170 331 34 625 -480 792 -1383 164 -880 46 -1438 -311 -1480 -150 -18 -311 -133 -388 -275 -179 -335 -46 -428 192 -134 254 313 363 185 354 -419 -5 -334 33 -492 119 -492 196 0 261 176 290 786 15 310 69 822 121 1137 160 984 -360 2434 -903 2514 -335 49 -286 158 66 144 504 -19 545 71 122 272 -345 164 -358 190 -358 704 0 293 -51 646 -114 783 -121 267 -346 405 -432 266z"/>
<path d="M3369 4536 c-126 -126 289 -671 726 -951 517 -332 998 -369 1246 -95 209 231 53 370 -222 199 -294 -184 -714 -21 -1202 468 -490 489 -459 468 -548 379z"/>
<path d="M20038 3454 c-31 -81 15 -432 103 -782 216 -861 201 -1719 -38 -2247 -192 -422 -192 -425 4 -425 123 0 239 104 305 275 177 452 280 1546 186 1975 -282 1285 -417 1577 -560 1204z"/>
<path d="M24694 2143 c-282 -340 -884 -557 -1350 -487 -504 76 -1011 -109 -1469 -537 -330 -308 -354 -596 -59 -705 l216 -80 -238 -167 -239 -167 263 0 c311 0 903 649 983 1078 70 376 423 414 734 79 286 -309 365 -321 365 -57 0 111 67 200 150 200 187 0 190 -236 10 -834 l-140 -466 390 0 c214 0 390 19 390 42 0 23 27 113 61 200 82 215 -155 203 -322 -17 -171 -225 -170 -87 2 475 l138 450 120 -300 c66 -165 158 -390 204 -500 53 -126 87 198 91 875 6 1064 -46 1223 -300 918z m-2484 -1273 c-128 -128 -258 -29 -163 125 37 60 113 80 169 45 68 -42 66 -98 -6 -170z"/>
<path d="M16184 1511 c-446 -283 -884 -948 -884 -1343 0 -277 271 -190 330 107 88 438 496 960 899 1151 366 173 495 374 241 374 -72 0 -336 -130 -586 -289z"/>
<path d="M18157 350 c-239 -313 -247 -350 -81 -350 159 0 624 482 624 646 0 175 -315 3 -543 -296z"/>
</g>
</svg>