<svg xmlns="http://www.w3.org/2000/svg" version="1.0" width="250" height="250" viewBox="0 0 250.000000 250.000000" preserveAspectRatio="xMidYMid meet">
<metadata>
Created by potrace 1.10, written by Peter Selinger 2001-2011
</metadata>
<g transform="translate(0.000000,250.000000) scale(0.010000,-0.010000)" fill="#555555" stroke="none">
<path d="M1600 24862 c0 -83 45 -178 100 -212 55 -34 100 6 100 88 0 83 -45 178 -100 212 -55 34 -100 -6 -100 -88z"/>
<path d="M3357 24800 c68 -275 422 -1040 752 -1625 194 -345 491 -511 491 -275 0 55 -43 100 -95 100 -52 0 -153 106 -225 236 -71 130 -322 591 -558 1025 -235 434 -399 677 -365 539z"/>
<path d="M3993 24494 c200 -525 651 -1194 806 -1194 214 0 171 185 -88 376 -158 117 -381 453 -508 766 -282 696 -473 743 -210 52z"/>
<path d="M4738 24625 c73 -214 225 -418 356 -475 213 -94 224 -141 168 -750 -34 -357 -61 -1021 -61 -1475 -1 -806 -7 -825 -243 -825 -133 0 -261 56 -286 125 -25 69 -80 92 -123 52 -127 -118 156 -377 413 -377 240 0 294 -137 177 -442 -87 -226 -213 -197 -499 117 -242 264 -249 266 -186 41 60 -215 48 -224 -156 -115 -179 96 -213 93 -176 -16 24 -74 153 -162 286 -195 616 -152 692 -208 692 -513 0 -284 -17 -297 -325 -240 -179 33 -592 104 -919 157 -622 101 -1959 719 -2703 1250 -236 168 -592 502 -791 740 l-362 435 0 -315 c0 -212 38 -292 114 -245 82 50 94 -12 42 -219 -41 -160 -93 -492 -116 -740 l-43 -450 161 450 c220 614 385 759 311 275 -31 -207 -14 -375 37 -375 52 0 94 65 94 144 0 233 206 293 385 112 153 -156 153 -174 -3 -263 -95 -54 -215 -323 -276 -619 -145 -707 -300 -3004 -209 -3104 40 -44 101 451 134 1100 59 1151 278 2129 548 2455 110 132 201 113 748 -151 777 -375 763 -361 523 -536 -170 -124 -200 -262 -200 -909 0 -521 40 -775 125 -804 69 -23 125 -105 125 -183 0 -78 42 -142 93 -142 52 0 69 230 38 526 -30 289 -7 694 50 901 57 206 63 350 14 320 -49 -31 -142 -245 -206 -476 -64 -232 -137 -362 -163 -291 -68 192 59 742 221 956 134 177 166 178 615 25 261 -88 580 -161 710 -161 212 0 231 -35 183 -325 -29 -179 -75 -748 -103 -1265 -27 -517 -72 -964 -101 -992 -45 -45 -98 881 -73 1282 5 83 22 349 37 593 45 727 -178 593 -247 -149 -79 -841 -453 -1599 -1126 -2280 -360 -364 -663 -832 -1036 -1602 -476 -979 -522 -1133 -467 -1550 34 -254 19 -610 -33 -790 -121 -422 73 -1193 412 -1641 478 -630 503 -730 323 -1279 -90 -276 -202 -502 -249 -502 -140 0 -307 -392 -494 -1159 -97 -398 -242 -852 -321 -1008 -613 -1203 -579 -989 -573 -3598 l5 -2415 294 147 c162 80 329 200 372 265 42 65 231 253 420 418 l342 300 -342 -450 c-578 -758 -766 -933 -936 -867 -122 46 -159 -4 -159 -213 0 -268 15 -275 650 -304 537 -24 650 -2 650 129 0 174 1412 1977 1488 1900 27 -27 -47 -171 -163 -322 -615 -793 -1149 -1632 -1080 -1698 43 -41 161 37 263 175 962 1303 1192 1653 1192 1814 0 102 36 186 79 186 44 0 205 273 358 606 152 333 345 632 428 664 298 114 497 -298 451 -933 -9 -118 -219 -509 -466 -871 -248 -361 -450 -731 -450 -821 0 -90 -90 -278 -200 -418 -110 -140 -200 -293 -200 -340 0 -130 442 -105 580 33 93 93 120 93 120 0 0 -145 463 -161 550 -20 34 55 -29 100 -141 100 -139 0 -185 47 -145 150 31 83 143 150 247 150 104 0 189 45 189 100 0 168 -359 111 -627 -100 -316 -248 -367 -250 -305 -12 43 166 160 246 732 502 83 37 420 80 750 95 330 15 643 70 695 121 151 150 410 109 592 -92 149 -164 151 -200 18 -310 -128 -106 -455 -660 -455 -769 0 -19 630 -35 1400 -35 1049 0 1402 31 1408 125 6 100 18 100 58 0 102 -252 731 -140 1167 208 384 306 1119 767 1223 767 24 0 44 -44 44 -98 0 -54 -214 -210 -475 -347 -572 -298 -1025 -650 -843 -653 72 -1 282 113 465 253 184 140 490 280 679 310 322 53 349 36 407 -254 50 -249 112 -311 315 -311 305 0 309 31 49 383 -271 366 -315 878 -72 838 96 -17 175 15 175 70 0 121 810 609 1009 608 77 0 -61 -121 -309 -268 -247 -146 -482 -314 -522 -374 -150 -224 109 -150 680 194 828 499 965 518 1392 192 496 -378 681 -765 598 -1252 -58 -347 -43 -391 136 -391 111 0 295 119 409 263 258 329 270 570 13 262 -104 -124 -219 -225 -257 -225 -39 0 70 159 241 353 170 195 310 397 310 450 0 54 74 97 165 97 149 0 148 -20 -16 -201 -99 -110 -157 -224 -127 -254 75 -76 578 541 578 710 0 207 -475 4 -720 -307 -236 -301 -380 -318 -380 -45 0 111 -214 414 -475 673 -547 542 -1025 1116 -1025 1230 0 44 254 203 563 355 476 232 688 275 1357 270 450 -2 843 -54 907 -118 120 -120 473 -157 473 -49 0 35 -79 124 -175 197 -257 195 -42 168 690 -88 381 -133 634 -276 611 -345 -27 -81 -149 -55 -396 83 -234 132 -392 167 -456 103 -64 -64 39 -168 296 -299 562 -286 1447 -1007 1377 -1120 -33 -53 31 -224 142 -380 127 -178 228 -532 270 -949 84 -814 241 -878 241 -98 0 536 -113 1062 -313 1457 -49 96 -51 175 -5 175 203 0 686 -1631 591 -1994 -49 -185 -9 -206 386 -206 499 0 509 24 302 757 -77 271 -163 598 -193 727 -52 226 -47 228 139 60 118 -107 196 -314 201 -534 4 -198 64 -516 132 -707 111 -307 137 -326 228 -164 91 162 109 165 164 22 87 -226 397 -212 328 14 -29 96 -79 468 -110 825 l-58 650 248 -500 c137 -275 251 -646 254 -825 l6 -325 1202 0 1202 0 -65 275 c-36 151 -64 298 -64 325 22 1119 36 1238 125 1100 53 -82 98 -265 98 -406 1 -141 68 -343 149 -450 81 -107 148 -340 150 -519 2 -252 46 -325 193 -325 158 0 198 91 236 525 24 289 52 5914 62 12500 l17 11975 -3518 0 c-3512 0 -3518 0 -3337 -200 100 -110 264 -200 365 -200 102 0 185 -39 185 -87 0 -49 28 -229 62 -400 59 -295 46 -313 -237 -313 -344 0 -557 -200 -466 -437 34 -90 16 -163 -41 -163 -167 0 -360 698 -229 829 176 176 129 371 -89 371 -156 0 -200 67 -200 300 l0 300 -875 -1 c-852 -1 -878 -8 -1000 -270 -69 -148 -125 -324 -125 -391 0 -68 -113 -256 -250 -420 -321 -382 -333 -573 -25 -397 205 118 480 166 1024 182 109 3 214 -41 233 -99 19 -57 76 -104 128 -104 51 0 67 190 36 425 -54 408 -51 415 87 175 79 -137 175 -396 213 -575 l70 -325 -418 0 c-411 0 -1098 -250 -1098 -399 0 -42 68 -133 150 -201 82 -68 150 -211 150 -317 0 -105 56 -184 125 -176 69 9 325 11 570 5 l444 -12 -319 -330 -320 -329 150 -575 c83 -317 150 -599 150 -627 0 -28 44 -24 97 9 53 33 73 204 44 381 l-53 321 154 -250 154 -250 64 228 c46 162 116 211 244 171 99 -32 208 -10 243 47 123 197 231 103 299 -261 38 -200 139 -472 225 -603 86 -131 127 -267 92 -302 -35 -36 -350 -12 -700 53 -350 64 -779 117 -953 117 -214 0 -333 56 -370 175 -172 568 -363 786 -832 953 -267 95 -686 172 -931 172 -421 0 -477 35 -962 592 -283 326 -515 666 -515 757 0 260 192 551 364 551 104 0 136 55 96 161 -34 88 -15 334 42 547 100 371 111 379 284 206 98 -98 211 -261 249 -361 105 -273 183 -122 227 441 23 299 -2 506 -61 506 -56 0 -101 -110 -101 -244 0 -134 -42 -270 -94 -302 -56 -35 -79 145 -57 444 35 466 21 502 -190 502 -275 0 -459 -353 -459 -881 0 -204 -112 -582 -250 -840 -137 -259 -250 -537 -250 -619 0 -225 -132 -263 -534 -152 -453 125 -497 276 -451 1538 19 525 7 954 -28 954 -35 0 -95 -518 -135 -1151 -71 -1141 -74 -1151 -337 -1204 -524 -105 -1120 -480 -1564 -983 -833 -942 -980 -1062 -1313 -1062 -242 0 -329 52 -375 225 -100 372 -71 1575 37 1575 55 0 100 -225 100 -500 0 -275 41 -500 91 -500 111 0 27 2989 -95 3377 -52 165 -64 -222 -29 -977 67 -1454 -67 -1543 -302 -200 -171 981 -313 1400 -473 1400 -68 0 -86 -71 -45 -175 367 -933 598 -3996 334 -4419 -94 -150 -92 -253 11 -474 194 -420 325 -1613 203 -1841 -139 -259 -364 -241 -417 34 -24 124 -32 945 -17 1825 55 3357 50 3807 -48 4050 -87 217 -103 177 -119 -300 -10 -302 -11 -589 -2 -636 18 -100 26 -2162 15 -3969 l-7 -1255 -356 -128 c-216 -79 -392 -226 -450 -377 -132 -347 -122 -402 117 -623 251 -234 174 -412 -176 -412 -244 0 -252 18 -197 475 55 457 101 1668 70 1875 -8 55 -14 1394 -13 2975 1 1817 -35 2875 -97 2875 -82 0 -159 -751 -105 -1039 32 -172 5 -4221 -33 -4911 -21 -385 -3 -745 40 -800 43 -55 54 -538 25 -1072 -47 -883 -74 -987 -288 -1128 l-237 -155 -16 478 c-19 592 -18 620 28 927 30 197 -9 257 -187 282 -193 27 -225 92 -225 460 0 236 43 559 95 718 89 275 191 2065 203 3590 3 437 38 648 92 563 48 -76 70 -537 50 -1025 -25 -618 -2 -888 78 -888 139 0 36 3086 -109 3231 -51 51 -70 358 -41 681 35 393 16 588 -58 588 -60 0 -110 -159 -110 -354 0 -315 -20 -342 -188 -252 -104 55 -218 214 -252 353 -35 139 -106 253 -157 253 -51 0 -35 -169 35 -375z m16598 125 c32 -82 14 -150 -39 -150 -53 0 -97 68 -97 150 0 83 18 150 39 150 22 0 66 -67 97 -150z m2745 -200 c-35 -302 -12 -350 169 -350 116 0 264 54 330 120 93 93 120 50 120 -194 0 -211 -73 -366 -220 -469 -208 -146 -226 -138 -345 145 -69 164 -195 298 -280 298 -188 0 -214 501 -35 680 211 211 303 130 261 -230z m-1781 94 c0 -86 -45 -128 -100 -94 -55 34 -100 104 -100 156 0 52 45 94 100 94 55 0 100 -70 100 -156z m-2927 -375 c-67 -201 -273 -186 -273 20 0 143 46 187 154 146 85 -33 138 -108 119 -166z m-1838 -644 c249 -490 293 -725 134 -725 -206 0 -333 193 -410 625 -81 447 71 502 276 100z m4025 -598 c-101 -102 -185 51 -102 186 63 102 87 102 121 1 23 -70 15 -154 -19 -187z m-1477 -121 c79 -225 70 -320 -36 -408 -207 -172 -347 -28 -347 358 0 433 239 464 383 50z m3117 194 c0 -55 -67 -100 -150 -100 -82 0 -150 45 -150 100 0 55 68 100 150 100 83 0 150 -45 150 -100z m-17734 -425 c-28 -69 -50 -12 -50 125 0 138 22 194 50 125 28 -69 28 -181 0 -250z m17161 -233 c846 -496 1140 -859 1221 -1510 73 -582 25 -733 -229 -730 -308 2 -450 175 -464 564 -10 318 -51 390 -239 417 -279 40 -494 -127 -535 -415 -37 -258 -266 -287 -413 -53 -74 117 -65 329 30 728 l135 562 -316 262 c-175 144 -317 297 -317 340 0 69 186 147 433 181 46 7 358 -149 694 -346z m-10553 -463 c-16 -142 38 -234 151 -257 122 -26 175 26 175 171 0 293 150 257 488 -118 654 -724 687 -788 603 -1167 -206 -934 -513 -2820 -466 -2866 28 -29 17 -207 -26 -398 -101 -448 74 -562 229 -150 102 269 155 304 386 253 311 -68 370 46 394 753 18 536 263 1506 504 1997 187 380 141 504 -197 529 -320 24 -260 174 70 174 390 0 915 -194 915 -338 0 -64 -59 -206 -132 -315 -134 -200 -626 -1637 -911 -2662 -86 -311 -157 -770 -157 -1019 0 -485 -144 -970 -321 -1079 -60 -37 -77 -148 -36 -252 68 -178 77 -177 217 13 178 243 288 664 439 1683 110 742 793 3049 998 3369 84 131 118 128 273 -27 145 -145 155 -208 53 -350 -68 -95 -149 -240 -180 -323 -314 -846 -461 -1280 -696 -2050 -151 -495 -319 -997 -373 -1115 -54 -119 -72 -257 -41 -307 30 -50 24 -311 -14 -580 -66 -457 -94 -496 -420 -574 -192 -46 -417 -87 -499 -92 -219 -12 -492 -272 -815 -777 -550 -858 -277 -1456 634 -1387 408 30 433 17 463 -250 25 -215 -16 -296 -168 -335 -316 -83 -344 -332 -66 -590 416 -385 262 -780 -263 -675 -342 68 -396 -151 -85 -345 236 -147 264 -477 49 -560 -83 -31 -286 -31 -450 2 -332 67 -376 -14 -146 -268 136 -151 136 -181 -1 -295 -202 -168 -652 -162 -766 11 -50 75 -118 261 -151 412 -66 301 -208 361 -299 125 -70 -182 -474 -198 -609 -25 -159 203 -208 534 -106 717 84 149 55 163 -238 112 -372 -65 -500 -5 -668 314 -154 294 -58 497 293 620 343 119 366 217 92 389 -191 119 -268 422 -139 550 33 34 141 11 239 -50 136 -85 272 -76 565 37 327 127 382 191 365 424 -43 600 -347 996 -1030 1339 -541 272 -744 322 -1212 300 l-561 -27 -57 2000 c-48 1660 -126 2543 -299 3375 -12 55 24 116 79 136 245 88 360 -182 476 -1118 146 -1171 338 -1264 295 -143 -16 413 -54 874 -83 1025 -41 211 -15 275 112 275 92 0 147 -56 123 -125 -24 -69 -7 -226 39 -350 77 -209 125 -2117 64 -2575 -36 -275 417 -318 1000 -95 l447 170 -71 1326 c-45 839 -35 1348 27 1386 164 101 218 -324 220 -1715 1 -1089 -26 -1339 -149 -1386 -197 -75 -224 -1677 -28 -1612 67 22 153 150 190 283 57 203 70 182 78 -127 6 -212 72 -405 157 -452 101 -57 155 -291 175 -755 17 -421 71 -672 142 -673 196 0 231 268 139 1073 -93 814 -179 1137 -327 1237 -136 92 -126 3580 11 3717 161 161 140 373 -37 373 -104 0 -150 105 -150 343 0 280 42 349 225 375 307 44 381 482 82 482 -338 0 -267 389 93 515 284 99 415 285 200 285 -55 0 -100 68 -100 150 0 100 100 150 299 150 249 0 295 -37 275 -221z m-1128 -292 c-80 -226 -146 -584 -146 -794 0 -397 -159 -616 -259 -355 -70 183 142 1264 282 1437 205 253 264 114 123 -288z m10354 13 c0 -110 -45 -200 -100 -200 -55 0 -100 90 -100 200 0 110 45 200 100 200 55 0 100 -90 100 -200z m-10913 -65 c-105 -127 -137 -583 -137 -1941 0 -976 -34 -1754 -75 -1729 -41 26 -75 785 -75 1686 0 1578 87 2149 328 2149 53 0 35 -74 -41 -165z m11124 -364 c-81 -81 -111 -70 -111 42 0 85 33 186 73 227 40 40 90 21 111 -42 21 -64 -12 -166 -73 -227z m-3361 29 c-34 -55 -82 -100 -106 -100 -24 0 -44 45 -44 100 0 55 48 100 106 100 58 0 78 -45 44 -100z m1786 -257 c188 5 336 -68 433 -212 137 -204 120 -247 -259 -658 -796 -864 -1672 -991 -1829 -266 -88 408 -39 593 157 593 91 0 170 -149 212 -400 37 -220 109 -400 159 -400 134 0 111 540 -28 679 -93 93 -31 204 275 495 274 262 424 343 494 269 55 -59 229 -104 386 -100z m4730 -168 c-28 -69 -50 -12 -50 125 0 138 22 194 50 125 28 -69 28 -181 0 -250z m-3266 -83 c0 -244 -234 -210 -282 41 -19 99 32 167 125 167 92 0 157 -85 157 -208z m-7400 -239 c0 -25 -65 -194 -144 -375 -80 -180 -172 -495 -204 -699 -33 -205 -98 -396 -145 -425 -82 -50 -8 381 201 1171 55 206 143 375 196 375 53 0 96 -21 96 -47z m10666 -578 c-28 -69 -50 -12 -50 125 0 138 22 194 50 125 28 -69 28 -181 0 -250z m-3535 -112 c29 -76 84 -343 121 -594 63 -418 53 -451 -125 -405 -191 50 -570 960 -449 1080 107 108 401 55 453 -81z m1612 -313 c4 -55 -94 -114 -218 -132 -124 -18 -229 -63 -233 -100 -5 -37 -26 -237 -48 -443 -21 -207 -108 -508 -192 -670 -83 -162 -152 -365 -152 -450 0 -85 -49 -155 -109 -155 -73 0 -97 319 -75 975 l34 975 265 -31 c146 -17 297 19 335 81 81 132 383 94 393 -50z m1950 -325 c-5 -286 -26 -328 -85 -177 -71 183 -35 552 54 552 21 0 35 -169 31 -375z m-20293 -342 c0 -618 -50 -604 -143 42 -46 312 -33 475 37 475 61 0 106 -219 106 -517z m655 -205 c-86 -764 -247 -1109 -252 -540 -3 381 183 1162 276 1162 26 0 15 -280 -24 -622z m-355 22 c0 -275 -40 -500 -89 -500 -49 0 -73 214 -54 475 41 574 33 525 93 525 28 0 50 -225 50 -500z m18400 350 c0 -82 -45 -150 -100 -150 -55 0 -100 68 -100 150 0 83 45 150 100 150 55 0 100 -67 100 -150z m-6264 -200 c-40 -104 7 -150 153 -150 116 0 200 -56 186 -125 -16 -78 98 -129 305 -135 418 -13 626 -193 330 -287 -310 -98 -255 -253 90 -253 319 0 422 -232 150 -336 -233 -89 -182 -287 55 -212 116 36 274 7 365 -68 141 -117 114 -146 -224 -241 -521 -146 -588 -355 -76 -236 498 116 630 114 630 -7 0 -55 -101 -101 -225 -101 -311 -2 -675 -107 -675 -196 0 -145 1563 -58 1750 97 166 137 173 130 103 -101 -106 -348 -208 -434 -545 -458 -161 -11 -342 -50 -401 -86 -182 -113 -118 -239 93 -184 112 29 200 3 200 -59 0 -62 -84 -112 -188 -112 -211 0 -467 -254 -337 -334 46 -29 150 -11 230 39 223 141 395 112 331 -55 -31 -82 -4 -150 62 -150 263 0 14 -253 -296 -300 -190 -29 -378 -135 -442 -250 -238 -432 -647 -472 -1019 -100 -138 138 -297 250 -353 250 -57 0 -232 129 -390 286 -221 222 -259 313 -167 407 92 93 51 181 -181 391 -288 259 -376 550 -233 769 37 56 -47 212 -186 346 -142 136 -205 260 -142 281 164 54 135 220 -39 220 -181 0 -193 117 -30 280 93 93 78 120 -67 120 -175 0 -173 16 30 231 242 258 283 526 92 603 -100 40 -100 52 0 58 69 4 125 76 125 158 0 113 122 150 497 150 400 0 486 -29 439 -150z m2214 -300 c0 -166 -388 -168 -601 -2 -188 146 -178 153 201 128 220 -14 400 -71 400 -126z m5647 -425 c-2 -390 -32 -525 -93 -421 -82 139 -30 996 59 996 20 0 36 -259 34 -575z m-11328 -100 c-25 -96 -46 -17 -46 175 0 193 21 271 46 175 25 -96 25 -254 0 -350z m5931 175 c0 -55 -70 -100 -156 -100 -86 0 -128 45 -94 100 34 55 104 100 156 100 52 0 94 -45 94 -100z m500 -369 c0 -37 -98 -172 -217 -299 -264 -282 -165 -437 117 -182 238 215 345 151 250 -150 -39 -124 -125 -193 -202 -163 -73 28 -187 -13 -252 -92 -158 -190 -296 -91 -296 211 0 150 -58 244 -150 244 -262 0 -162 194 175 342 364 159 575 192 575 89z m-9534 -456 c-28 -69 -50 -12 -50 125 0 138 22 194 50 125 28 -69 28 -181 0 -250z m-5978 -250 c-11 -369 -13 -370 -82 -75 -67 284 -48 450 50 450 24 0 39 -169 32 -375z m432 -100 c11 -261 26 -621 32 -799 13 -356 142 -573 159 -268 5 106 20 260 33 342 12 82 29 229 39 325 10 105 100 175 224 175 168 0 194 -42 137 -225 -39 -124 -109 -240 -157 -258 -48 -19 -86 -424 -85 -900 1 -580 32 -818 95 -719 52 82 69 459 38 838 -39 488 -24 669 55 620 61 -38 110 -349 110 -706 0 -351 45 -666 100 -700 167 -103 112 -250 -94 -250 -107 0 -353 -94 -547 -208 -194 -114 -398 -180 -453 -146 -56 35 -80 272 -55 533 35 354 24 409 -42 221 -49 -137 -94 -376 -99 -529 -6 -153 -100 -455 -210 -671 -188 -369 -191 -419 -45 -848 85 -251 127 -500 94 -554 -88 -142 -450 -120 -446 27 8 306 198 1596 248 1677 30 48 73 483 96 966 23 494 87 893 147 913 58 20 106 147 106 283 0 149 42 222 106 182 68 -41 81 -261 38 -606 -46 -371 -32 -540 44 -540 103 0 167 818 150 1925 -8 550 158 458 182 -100z m17434 282 c-36 -59 -114 -107 -172 -107 -66 0 -59 57 20 152 137 166 260 129 152 -45z m-18843 -436 c-81 -81 -111 -70 -111 42 0 199 134 334 184 185 21 -64 -12 -166 -73 -227z m3549 56 c-33 -33 -56 26 -52 131 5 117 28 141 60 61 29 -72 26 -159 -8 -192z m13900 0 c-33 -33 -56 26 -52 131 5 117 28 141 60 61 29 -72 26 -159 -8 -192z m-17162 -3307 c-62 -512 -175 -1120 -250 -1350 -128 -391 -133 -345 -80 680 32 605 81 1141 110 1191 29 49 61 634 71 1300 9 665 58 1322 109 1459 144 390 175 -2179 40 -3280z m18960 3014 c59 -296 46 -312 -302 -352 -552 -65 -651 143 -245 514 363 331 454 304 547 -162z m-2454 -221 c-127 -442 -304 -725 -412 -658 -59 36 -16 194 105 390 112 181 203 405 203 498 0 93 42 143 93 112 53 -33 58 -179 11 -342z m-12338 -140 c-28 -68 -49 12 -47 177 3 165 25 220 50 123 26 -97 24 -232 -3 -300z m-4604 -556 c9 -392 -38 -625 -150 -757 -121 -141 -130 -200 -37 -233 69 -24 122 -164 118 -310 -6 -239 -16 -246 -93 -67 -136 317 -125 -416 12 -796 129 -355 3 -1767 -162 -1821 -122 -41 -39 4351 86 4549 139 218 213 32 226 -565z m19938 577 c0 -58 -45 -78 -100 -44 -55 34 -100 82 -100 106 0 24 45 44 100 44 55 0 100 -48 100 -106z m-15834 -1111 c-76 -577 -187 -1135 -248 -1241 -104 -178 -112 -174 -108 58 3 138 39 488 80 780 41 291 44 549 5 573 -38 24 -99 -260 -136 -630 -76 -770 -253 -1194 -261 -623 -3 287 -23 318 -106 175 -109 -188 -442 -237 -539 -80 -83 135 48 605 169 605 54 0 76 -62 47 -137 -36 -93 23 -138 181 -138 253 0 346 198 349 744 0 176 46 347 101 381 55 34 100 9 100 -56 0 -230 285 109 353 420 137 625 144 177 13 -831z m308 242 c-29 -481 -104 -987 -166 -1125 -90 -200 -101 -91 -57 550 31 440 82 946 113 1125 108 607 164 328 110 -550z m-4929 -116 c-39 -445 -99 -809 -133 -809 -69 0 -31 1370 45 1589 113 329 153 -29 88 -780z m5235 -248 c-25 -501 -27 -832 -5 -735 22 97 78 153 124 125 95 -59 -103 -651 -218 -651 -41 0 -48 79 -14 175 48 141 30 136 -95 -25 -208 -267 -304 -147 -168 210 60 158 135 658 167 1111 81 1149 268 962 209 -210z m7570 839 c-34 -55 -82 -100 -106 -100 -24 0 -44 45 -44 100 0 55 48 100 106 100 58 0 78 -45 44 -100z m4611 -740 c-251 -599 -347 -404 -121 246 160 463 217 548 241 360 17 -135 -37 -408 -120 -606z m-13461 646 c0 -52 -45 -122 -100 -156 -55 -34 -100 8 -100 94 0 86 45 156 100 156 55 0 100 -42 100 -94z m-4321 -867 l-32 -489 -49 570 c-26 314 -12 534 33 489 45 -44 66 -301 48 -570z m17421 405 c0 -24 -70 -44 -156 -44 -86 0 -128 46 -93 102 57 92 249 48 249 -58z m-17750 -944 c-50 -634 -39 -900 39 -900 61 0 111 -70 111 -156 0 -86 -45 -128 -100 -94 -55 34 -100 -8 -100 -94 0 -86 56 -157 125 -158 97 -1 98 -18 3 -78 -68 -44 -130 -329 -140 -653 -19 -561 -109 -776 -239 -566 -63 102 109 2934 206 3374 112 514 161 165 95 -675z m4150 744 c0 -24 -45 -44 -100 -44 -55 0 -100 48 -100 106 0 58 45 78 100 44 55 -34 100 -82 100 -106z m8793 -175 c-7 -211 -10 -212 -93 -19 -118 275 -118 373 0 300 55 -34 97 -160 93 -281z m8366 -43 c-109 -110 -184 64 -106 245 74 171 80 171 121 -4 24 -100 17 -209 -15 -241z m-859 118 c0 -86 -46 -128 -102 -93 -56 35 -75 105 -44 156 86 139 146 113 146 -63z m-427 -169 c197 -251 217 -611 51 -893 -178 -300 -387 -391 -284 -123 146 381 164 616 68 870 -106 279 -7 367 165 146z m-7416 -900 c-106 -1124 -174 -1475 -284 -1475 -66 0 -83 351 -47 994 55 1011 103 1206 293 1206 72 0 85 -234 38 -725z m-1145 258 c-118 -203 -146 -138 -50 113 35 90 84 142 110 116 25 -26 -1 -129 -60 -229z m587 -114 c-3 -462 -113 -731 -287 -697 -121 23 -153 119 -127 380 67 664 417 932 414 317z m1043 106 c32 -151 32 -612 0 -1025 -33 -412 -53 -1009 -45 -1325 8 -336 -28 -575 -88 -575 -57 0 -79 63 -49 140 29 77 6 169 -53 206 -123 75 -135 633 -42 1939 65 917 168 1155 277 640z m-5842 94 c0 -44 -66 -168 -147 -275 -150 -198 -202 -87 -92 198 62 163 239 220 239 77z m265 -165 c-32 -85 -107 -154 -165 -154 -74 0 -73 64 5 209 124 232 254 188 160 -55z m-6965 -160 c0 -168 -39 -282 -87 -252 -80 49 -36 558 49 558 21 0 38 -138 38 -306z m6300 225 c0 -44 -66 -168 -147 -275 -142 -187 -147 -186 -156 56 -10 249 -10 249 -100 25 -121 -301 -297 -286 -297 25 0 219 43 250 350 250 193 0 350 -36 350 -81z m950 -119 c-34 -55 -82 -100 -106 -100 -24 0 -44 45 -44 100 0 55 48 100 106 100 58 0 78 -45 44 -100z m-8304 -1454 c-63 -1098 -62 -1104 183 -1235 188 -101 296 -105 459 -18 191 103 212 88 212 -148 0 -167 -45 -245 -125 -216 -69 25 -204 -24 -300 -107 -158 -138 -193 -132 -362 63 -275 317 -450 1039 -361 1486 41 208 66 592 54 852 -23 537 66 776 211 563 52 -77 65 -616 29 -1240z m15454 1258 c0 -54 -101 -150 -225 -215 -224 -117 -224 -117 -35 96 212 239 260 261 260 119z m3962 -429 c-64 -289 -161 -502 -214 -475 -116 59 -90 342 65 725 185 457 273 309 149 -250z m634 400 c-2 -69 -95 -282 -206 -475 -111 -193 -174 -260 -139 -150 35 110 88 324 119 475 54 272 234 391 226 150z m2236 -462 l-57 -221 -146 208 c-119 169 -122 237 -20 361 106 127 138 129 204 13 42 -77 51 -239 19 -361z m-6390 78 c-105 -115 -280 -256 -391 -313 -143 -74 -117 -14 93 209 322 344 603 441 298 104z m-11792 8 c35 -55 -10 -128 -98 -162 -191 -74 -298 7 -206 156 83 135 223 137 304 6z m10551 -1201 c271 -751 382 -1237 545 -2392 61 -435 58 -441 -131 -269 -107 96 -218 274 -246 394 -212 882 -467 2156 -468 2338 0 121 -53 251 -116 290 -213 132 -358 -235 -306 -773 38 -399 21 -498 -77 -437 -94 58 -109 274 -60 839 57 640 112 1121 150 1300 34 164 470 -630 709 -1290z m-9601 1118 c0 -93 -503 -346 -565 -284 -22 22 -11 113 23 204 64 165 542 236 542 80z m500 -16 c0 -55 -45 -100 -100 -100 -55 0 -100 45 -100 100 0 55 45 100 100 100 55 0 100 -45 100 -100z m1450 3 c-110 -46 -278 -178 -374 -294 -204 -245 -376 -272 -376 -59 0 82 84 150 188 150 103 0 244 68 312 150 68 82 198 147 287 144 125 -5 116 -27 -37 -91z m9350 47 c0 -130 -733 -841 -815 -790 -52 31 77 233 285 449 345 355 530 474 530 341z m-15309 -2091 c-89 -83 -102 24 -55 441 34 303 72 798 84 1100 12 303 37 104 55 -441 22 -666 -6 -1027 -84 -1100z m2327 1819 c-71 -71 -118 -77 -118 -15 0 134 118 252 185 185 28 -28 -2 -105 -67 -170z m14132 122 c-34 -55 -82 -100 -106 -100 -24 0 -44 45 -44 100 0 55 48 100 106 100 58 0 78 -45 44 -100z m4505 -455 c101 -809 -106 -899 -352 -153 -108 325 -109 431 -6 555 214 257 286 176 358 -402z m-14155 355 c0 -55 -34 -101 -75 -101 -41 -1 -187 -27 -325 -59 l-250 -57 250 149 c307 182 400 198 400 68z m-2000 -200 c-194 -125 -300 -125 -300 0 0 55 101 99 225 98 182 -1 196 -20 75 -98z m11918 -122 c-71 -71 -118 -77 -118 -15 0 57 30 134 67 170 36 37 90 44 118 15 28 -28 -2 -105 -67 -170z m2210 -3 c-30 -124 -112 -273 -183 -331 -106 -86 -101 -193 26 -581 116 -351 127 -505 45 -587 -175 -175 -250 -21 -295 606 -36 498 -10 614 193 846 286 326 280 324 214 47z m-14828 40 c0 -46 -90 -165 -200 -265 -194 -175 -200 -175 -200 18 0 109 30 229 67 265 95 96 333 83 333 -18z m1700 -168 c0 -161 -266 -314 -369 -212 -71 71 155 365 281 365 49 0 88 -69 88 -153z m1100 89 c0 -97 -333 -329 -479 -333 -97 -2 -102 45 -21 197 97 181 500 291 500 136z m10300 -92 c0 -24 -45 -44 -100 -44 -55 0 -100 48 -100 106 0 58 45 78 100 44 55 -34 100 -82 100 -106z m865 -544 c-182 -427 -726 -1240 -976 -1458 -364 -317 -993 -652 -1100 -585 -53 33 70 191 273 352 202 161 475 439 605 617 130 178 314 382 409 452 94 71 172 184 173 250 0 67 136 308 301 535 235 323 313 377 361 250 33 -90 13 -275 -46 -413z m-14864 351 c-68 -82 -164 -124 -214 -93 -128 79 -6 242 181 242 127 0 133 -28 33 -149z m1970 -88 c-44 -134 -471 -216 -471 -90 0 48 50 137 112 199 135 135 412 50 359 -109z m15297 -212 c108 -311 109 -403 8 -467 -77 -48 -138 -24 -157 60 -43 198 -281 265 -560 160 -252 -97 -359 -51 -359 154 0 129 676 528 842 498 50 -10 152 -192 226 -405z m-16018 148 c80 -128 -201 -239 -406 -160 -201 76 -90 261 156 261 104 0 216 -45 250 -101z m-1750 -105 c0 -58 -45 -78 -100 -44 -55 34 -100 82 -100 106 0 24 45 44 100 44 55 0 100 -48 100 -106z m-2900 -350 c0 -196 -37 -333 -83 -304 -79 48 -38 660 44 660 22 0 39 -160 39 -356z m3650 256 c-34 -55 -82 -100 -106 -100 -24 0 -44 45 -44 100 0 55 48 100 106 100 58 0 78 -45 44 -100z m2648 -52 c-70 -84 -153 -127 -184 -95 -32 32 8 100 89 151 212 134 239 117 95 -56z m13184 -181 c17 -147 -18 -267 -79 -267 -125 0 -304 409 -232 530 93 158 280 0 311 -263z m-13807 -25 c-95 -96 -286 59 -215 174 42 68 98 66 170 -6 58 -58 79 -134 45 -168z m9825 162 c0 -54 -86 -143 -192 -200 -106 -56 -266 -176 -355 -265 -89 -90 -192 -133 -228 -98 -79 80 476 633 650 648 69 6 125 -32 125 -85z m-10600 -98 c0 -139 -184 -228 -311 -149 -77 47 -69 94 25 154 179 113 286 111 286 -5z m1610 -236 c-128 -128 -258 -29 -163 125 37 60 113 80 169 45 68 -42 66 -98 -6 -170z m-2824 41 c214 -136 -47 -239 -284 -112 -111 59 -202 129 -202 155 0 78 342 48 486 -43z m11764 -211 c-158 -165 -335 -300 -394 -300 -127 0 452 586 588 594 51 3 -36 -129 -194 -294z m3010 27 c-101 -102 -185 51 -102 186 63 102 87 102 121 1 23 -70 15 -154 -19 -187z m1790 73 c35 -57 -51 -100 -200 -100 -149 0 -235 43 -200 100 34 55 124 100 200 100 76 0 166 -45 200 -100z m-14901 -102 c-35 -56 -105 -75 -156 -44 -139 86 -113 146 63 146 86 0 128 -46 93 -102z m651 -110 c0 -55 -45 -72 -100 -38 -55 34 -100 107 -100 162 0 55 45 72 100 38 55 -34 100 -107 100 -162z m1000 56 c0 -86 -45 -128 -100 -94 -55 34 -100 104 -100 156 0 52 45 94 100 94 55 0 100 -70 100 -156z m-5267 -186 c45 -117 -303 -458 -468 -458 -111 0 -143 452 -36 520 194 123 445 92 504 -62z m1422 34 c123 -199 -103 -298 -384 -167 -148 69 -270 149 -270 179 -2 106 587 96 654 -12z m3545 -104 c0 -55 -45 -72 -100 -38 -55 34 -100 107 -100 162 0 55 45 72 100 38 55 -34 100 -107 100 -162z m-2331 -39 c451 -189 410 -225 -194 -171 -320 28 -475 88 -475 182 0 181 217 177 669 -11z m11334 -43 c-141 -263 -303 -352 -303 -167 0 83 79 197 175 253 240 140 247 135 128 -86z m2595 119 c-2 -137 -186 -370 -245 -311 -79 78 47 386 158 386 49 0 88 -34 87 -75z m-3514 -555 c48 -176 135 -310 194 -298 59 13 268 -201 464 -475 271 -377 319 -497 196 -497 -163 0 -161 -176 7 -650 155 -436 -261 189 -556 835 -210 462 -331 620 -440 579 -120 -47 -149 40 -149 445 0 553 142 584 284 61z m3817 305 c1 -14 68 -250 149 -525 148 -499 148 -500 -43 -253 -201 260 -330 803 -190 803 46 0 83 -11 84 -25z m-17672 -349 c63 -332 12 -436 -178 -362 -168 64 -291 390 -202 535 120 194 328 99 380 -173z m1821 174 c34 -55 149 -100 256 -100 107 0 194 -45 194 -100 0 -55 -67 -100 -150 -100 -82 0 -242 -92 -354 -204 -325 -325 -484 -140 -298 347 101 266 245 330 352 157z m3250 0 c0 -55 -45 -100 -100 -100 -55 0 -100 45 -100 100 0 55 45 100 100 100 55 0 100 -45 100 -100z m5712 -375 c-110 -328 -169 -411 -190 -268 -37 248 137 743 262 743 49 0 16 -214 -72 -475z m8051 163 c-35 -172 -66 -386 -69 -475 -4 -100 -45 -67 -105 85 -114 283 -39 702 125 702 71 0 88 -113 49 -312z m-17897 57 c66 -173 -324 -645 -533 -645 -195 0 -162 236 74 537 236 300 373 332 459 108z m2514 35 c158 -158 154 -480 -5 -481 -69 -1 -226 -29 -350 -62 -197 -53 -225 -23 -225 243 0 384 327 553 580 300z m-4598 -230 c-134 -293 -282 -328 -282 -67 0 217 84 317 265 317 103 0 107 -52 17 -250z m12318 169 c0 -44 -68 -168 -152 -275 -140 -180 -143 -174 -34 81 118 275 186 346 186 194z m-8500 -175 c0 -24 -45 -44 -100 -44 -55 0 -100 48 -100 106 0 58 45 78 100 44 55 -34 100 -82 100 -106z m1960 -303 c212 -506 108 -677 -115 -191 -102 220 -202 434 -223 475 -21 41 12 75 75 75 62 0 181 -162 263 -359z m-504 -231 c-123 -199 -256 -115 -256 161 0 251 13 259 162 110 89 -89 131 -211 94 -271z m12844 348 c0 -23 28 -113 61 -201 45 -117 18 -143 -100 -97 -175 67 -224 340 -61 340 55 0 100 -19 100 -42z m1560 -283 c42 -179 86 -380 99 -447 12 -67 164 -597 336 -1177 296 -994 317 -1251 103 -1251 -86 0 -149 190 -399 1200 -61 248 -157 608 -213 800 -55 193 -101 428 -100 523 1 95 -41 199 -92 231 -148 91 -109 446 48 446 78 0 176 -146 218 -325z m-16277 -55 c24 -171 79 -214 216 -170 101 32 213 12 248 -45 41 -66 154 -44 316 63 248 162 259 158 609 -226 197 -216 331 -317 299 -224 -33 92 5 221 83 286 116 95 176 59 319 -193 98 -171 256 -337 352 -368 96 -31 175 -137 175 -234 0 -258 -663 -207 -854 66 -155 222 -563 338 -759 217 -79 -49 -212 14 -352 165 -173 187 -328 243 -668 243 -257 0 -491 -59 -558 -140 -92 -110 -189 -117 -462 -33 -252 77 -415 74 -604 -12 -142 -65 -300 -92 -350 -60 -127 78 -118 345 11 345 58 0 223 110 368 244 207 192 304 223 451 144 104 -56 213 -166 243 -245 92 -239 283 -161 407 165 137 364 458 371 510 12z m4824 -396 c-201 -707 -241 -1024 -131 -1024 54 0 127 177 161 394 35 217 109 423 166 458 67 41 79 -78 37 -345 -87 -539 115 -545 260 -7 149 555 311 509 232 -67 -56 -408 -43 -459 102 -403 111 43 166 12 166 -91 0 -262 248 -91 282 194 43 365 218 339 218 -33 0 -237 44 -300 207 -300 113 0 293 47 400 104 171 91 193 69 193 -194 0 -368 161 -810 296 -810 61 0 77 173 39 444 -73 538 224 1756 430 1756 74 0 135 -76 135 -170 0 -210 158 -62 235 220 30 110 29 -92 -3 -450 -141 -1579 -87 -2588 126 -2376 24 25 90 532 147 1127 64 681 152 1122 237 1191 75 59 164 272 200 473 35 201 138 426 229 500 145 118 158 112 98 -47 -55 -147 -30 -169 132 -118 109 35 199 49 199 32 0 -18 -68 -358 -151 -756 -166 -795 -209 -1816 -95 -2262 51 -198 31 -313 -65 -377 -115 -75 -108 -115 40 -228 98 -75 198 -237 221 -361 24 -124 68 -249 97 -278 141 -142 159 131 53 829 -64 421 -87 841 -51 933 36 92 106 525 156 962 58 506 150 851 254 950 174 167 175 189 -28 -532 -34 -121 -13 -163 58 -119 61 38 111 131 111 207 0 76 34 159 75 185 41 25 79 -456 83 -1070 5 -784 61 -1278 187 -1665 179 -549 459 -1005 307 -500 -110 365 -166 1914 -58 1600 47 -137 91 -434 96 -659 16 -646 524 -2006 707 -1893 48 30 -15 314 -139 632 -185 471 -458 1969 -458 2509 0 146 349 106 352 -40 2 -55 54 -302 117 -549 63 -247 194 -800 293 -1227 133 -579 238 -815 409 -927 126 -83 232 -228 236 -323 7 -161 12 -161 77 3 58 147 101 117 258 -175 104 -193 251 -351 325 -351 96 0 47 176 -166 597 -165 329 -301 679 -301 779 0 100 -90 358 -200 574 -110 216 -200 503 -200 638 0 262 102 94 864 -1425 190 -378 366 -667 391 -641 25 25 -45 307 -155 628 -239 695 -194 827 92 266 113 -221 248 -429 300 -461 53 -33 237 -306 409 -607 173 -301 367 -551 431 -555 65 -3 321 -160 568 -348 248 -188 617 -433 822 -544 432 -235 1078 -781 1078 -911 0 -50 -86 -4 -191 101 -105 105 -432 241 -727 302 -294 61 -669 181 -834 267 -164 85 -793 283 -1398 440 -605 157 -1235 337 -1400 402 -165 64 -547 184 -850 266 -302 82 -775 214 -1050 292 -275 79 -756 184 -1070 233 -628 100 -2832 958 -3652 1423 -288 162 -615 425 -728 584 -113 158 -290 315 -393 348 -103 33 -262 215 -352 405 -169 357 -150 592 138 1697 57 220 129 530 161 689 43 219 85 262 172 175 87 -87 82 -232 -19 -590z m10293 476 c0 -55 -48 -100 -106 -100 -58 0 -78 45 -44 100 34 55 82 100 106 100 24 0 44 -45 44 -100z m4088 -175 c-6 -151 -46 -410 -88 -575 -63 -247 -78 -198 -88 275 -7 325 32 575 88 575 55 0 95 -124 88 -275z m-7485 -550 c118 -391 -39 -342 -183 57 -155 429 -158 840 -3 468 57 -137 141 -374 186 -525z m2703 -1234 c264 -384 287 -541 77 -541 -45 0 -83 70 -83 156 0 207 -597 744 -827 744 -117 0 -239 134 -337 369 -85 203 -263 528 -395 723 -133 195 -240 400 -238 456 4 138 1445 -1386 1803 -1907z m-252 1766 c-36 -59 -114 -107 -172 -107 -66 0 -59 57 20 152 137 166 260 129 152 -45z m3046 -63 c0 -24 -45 -44 -100 -44 -55 0 -100 48 -100 106 0 58 45 78 100 44 55 -34 100 -82 100 -106z m-19437 -1239 c-106 -907 -373 -2570 -515 -3205 l-145 -650 62 600 c35 330 72 848 83 1150 10 303 75 753 144 1000 69 247 129 855 134 1350 9 873 14 889 150 555 87 -212 120 -520 87 -800z m17621 739 c-52 -271 -205 -268 -534 11 l-300 254 325 -62 c230 -45 325 -25 325 65 0 93 30 98 109 19 61 -61 94 -190 75 -287z m-778 -167 c344 -225 525 -421 580 -627 73 -279 58 -302 -214 -332 -216 -24 -335 29 -454 200 -89 128 -365 453 -614 723 l-454 490 328 -63 c181 -36 553 -211 828 -391z m3322 -277 c-30 -857 -116 -1319 -233 -1247 -52 32 -95 259 -95 503 0 266 -46 444 -114 444 -81 0 -96 -203 -50 -700 38 -408 27 -700 -27 -700 -51 0 -237 461 -414 1025 -177 564 -341 1059 -364 1100 -24 41 7 75 68 75 61 0 187 -135 281 -299 215 -379 362 -387 288 -16 -70 348 93 534 431 494 242 -28 250 -53 229 -679z m-11930 375 c0 -69 -45 -192 -98 -275 -76 -117 -97 -89 -98 125 -1 151 43 275 98 275 55 0 99 -56 98 -125z m-5691 -79 c106 -56 193 -191 193 -300 0 -232 224 -258 400 -46 165 198 261 189 498 -48 280 -280 255 -1245 -54 -2098 -232 -639 -238 -939 -12 -553 271 462 565 1433 566 1874 3 654 231 630 557 -59 l253 -534 -211 -791 c-254 -951 -680 -2119 -801 -2194 -48 -29 -155 77 -237 236 -110 212 -311 349 -756 516 -334 125 -631 266 -661 314 -30 48 -220 88 -423 90 -203 2 -456 69 -563 150 -108 82 -407 147 -672 147 -657 0 -729 155 -593 1268 113 925 232 1170 523 1078 139 -44 186 -9 186 139 0 476 -251 697 -329 290 -40 -208 -45 -205 -57 30 -26 471 492 674 838 329 137 -137 159 -320 125 -1025 -23 -473 -77 -938 -120 -1034 -57 -127 -34 -175 82 -175 89 0 161 81 161 180 0 99 43 223 95 275 52 52 150 430 218 839 94 569 95 753 5 783 -65 22 -118 126 -118 231 0 153 72 192 357 192 196 0 443 -47 550 -104z m15787 -461 c75 -255 150 -559 166 -675 15 -115 99 -533 184 -929 156 -717 112 -1123 -139 -1278 -150 -93 -182 51 -292 1332 -79 927 -135 1176 -305 1356 -212 227 -282 559 -116 559 50 0 114 -56 142 -125 30 -75 53 -55 58 50 15 322 163 180 302 -290z m-8944 265 c-34 -55 -82 -100 -106 -100 -24 0 -44 45 -44 100 0 55 48 100 106 100 58 0 78 -45 44 -100z m-484 -325 c-28 -69 -50 -12 -50 125 0 138 22 194 50 125 28 -69 28 -181 0 -250z m4534 119 c0 -52 -45 -94 -100 -94 -55 0 -100 70 -100 156 0 86 45 128 100 94 55 -34 100 -104 100 -156z m7866 -221 c-28 -68 -49 12 -47 177 3 165 25 220 50 123 26 -97 24 -232 -3 -300z m-19706 -46 c-33 -33 -56 26 -52 131 5 117 28 141 60 61 29 -72 26 -159 -8 -192z m14404 -597 c-41 -41 -117 -8 -168 73 -154 243 -108 352 73 171 93 -93 136 -203 95 -244z m-17769 -266 c-97 -88 -110 -73 -60 69 36 101 70 236 77 300 6 64 33 33 59 -69 26 -102 -8 -237 -76 -300z m19736 361 c24 -41 75 -412 113 -825 61 -661 52 -732 -78 -600 -168 171 -320 1500 -172 1500 52 0 114 -34 137 -75z m-19431 -725 c0 -55 -48 -100 -106 -100 -58 0 -78 45 -44 100 34 55 82 100 106 100 24 0 44 -45 44 -100z m15700 -500 c0 -110 -17 -200 -38 -200 -21 0 -62 90 -91 200 -29 110 -11 200 38 200 50 0 91 -90 91 -200z m-15907 -511 c-183 -285 -351 -466 -372 -401 -39 117 595 1026 667 956 21 -20 -112 -270 -295 -555z m-293 211 c-64 -119 -138 -195 -165 -168 -27 27 9 141 79 254 167 267 237 196 86 -86z m19313 -125 c417 -854 487 -1099 336 -1175 -54 -27 -218 299 -363 725 -270 794 -256 1030 27 450z m1744 -552 c-115 -242 -200 -320 -271 -249 -71 71 -53 199 55 410 88 168 163 410 167 536 7 208 18 202 112 -58 82 -225 69 -364 -63 -639z m643 771 c0 -58 -45 -78 -100 -44 -55 34 -100 82 -100 106 0 24 45 44 100 44 55 0 100 -48 100 -106z m-3139 -759 c72 -207 110 -398 84 -423 -71 -72 -121 9 -399 643 -252 576 -253 588 -38 377 123 -121 282 -389 353 -597z m-18106 12 c-85 -204 -158 -467 -162 -584 -7 -206 -10 -206 -85 -14 -49 127 -4 375 127 690 113 271 221 444 240 386 20 -59 -34 -274 -120 -478z m6495 328 c-109 -388 -275 -783 -313 -745 -47 47 267 970 329 970 26 0 19 -101 -16 -225z m14857 -412 c6 -293 13 -299 113 -93 109 226 639 477 723 342 26 -42 58 -267 72 -501 31 -520 155 -615 396 -300 181 235 183 216 181 -1186 -2 -827 -43 -1425 -97 -1425 -52 0 -95 70 -95 155 0 85 -73 296 -162 468 -149 288 -149 322 0 431 227 166 202 272 -47 193 -165 -52 -307 44 -690 469 -403 446 -474 583 -435 834 43 271 36 281 -74 100 -67 -110 -138 -219 -157 -242 -20 -23 -142 57 -271 179 l-235 221 191 385 c146 296 236 374 385 335 139 -37 197 -142 202 -365z m-21907 -289 c0 -69 -90 -182 -200 -251 -162 -101 -200 -100 -200 6 0 145 195 371 320 371 44 0 80 -57 80 -126z m3200 -24 c68 -82 267 -150 442 -150 175 0 361 -37 413 -82 52 -46 370 -189 706 -318 526 -203 630 -286 741 -593 168 -464 166 -434 31 -479 -64 -22 -144 50 -179 160 -93 293 -1299 930 -1613 851 -162 -41 -311 -6 -428 99 -195 177 -507 211 -953 103 -207 -50 -269 -37 -219 45 40 64 2 142 -85 175 -86 33 -156 123 -156 200 0 203 1130 194 1300 -11z m7830 -492 c-231 -132 -520 -334 -644 -449 -123 -115 -271 -209 -330 -208 -181 1 580 660 895 775 494 179 523 136 79 -118z m9273 -276 c-287 -232 -357 -229 -376 18 -10 134 47 200 173 200 104 0 222 54 262 120 56 90 86 86 121 -18 25 -75 -56 -219 -180 -320z m-20680 -207 c20 -206 6 -375 -31 -375 -102 0 -176 488 -113 732 64 242 91 174 144 -357z m419 361 c83 -218 -28 -320 -146 -133 -118 187 -121 297 -7 297 49 0 118 -74 153 -164z m3014 -143 c144 -159 261 -193 506 -147 466 87 1445 -500 1615 -969 199 -551 169 -693 -119 -562 -175 80 -238 182 -225 372 13 208 -34 270 -225 297 -133 19 -372 165 -532 325 -238 238 -326 271 -486 186 -153 -82 -260 -59 -493 107 -163 116 -297 261 -297 320 0 60 -82 35 -183 -57 -225 -204 -717 -221 -717 -25 0 78 168 185 375 240 544 144 575 141 781 -87z m5944 7 c0 -55 -45 -100 -100 -100 -55 0 -100 45 -100 100 0 55 45 100 100 100 55 0 100 -45 100 -100z m2400 -158 c-572 -324 -1399 -1177 -1644 -1694 -258 -546 -969 -1375 -1082 -1262 -111 111 284 1064 587 1414 118 138 412 493 652 790 493 609 941 968 823 659 -55 -143 8 -127 321 86 214 146 480 264 591 264 139 -1 61 -81 -248 -257z m9685 71 c118 -102 215 -237 215 -300 0 -62 54 -113 120 -113 164 0 680 -507 680 -669 0 -73 -110 -131 -251 -131 -178 0 -331 113 -525 389 -151 214 -395 471 -543 572 -201 137 -242 215 -163 311 142 171 212 162 467 -59z m-19835 -413 c-235 -521 -297 -460 -83 83 90 231 187 397 214 369 28 -27 -31 -231 -131 -452z m12795 288 c56 -52 -66 -91 -300 -96 -217 -5 -530 -30 -695 -56 -307 -49 -1950 -921 -1950 -1035 0 -178 -652 -701 -873 -701 -248 0 -249 2 -74 269 337 514 1311 1204 2231 1581 542 222 1441 243 1661 38z m-5745 12 c0 -55 -93 -100 -206 -100 -113 0 -178 45 -144 100 34 55 127 100 206 100 79 0 144 -45 144 -100z m12029 -300 c-29 -110 -92 -200 -141 -200 -103 0 -118 236 -21 333 131 131 213 64 162 -133z m-5256 31 c-97 -26 -232 -24 -300 3 -68 28 12 49 177 47 165 -3 220 -25 123 -50z m-12573 -284 c0 -288 -275 -447 -409 -237 -147 234 -103 374 134 419 124 24 236 50 250 57 14 8 25 -100 25 -239z m836 -89 c131 51 164 0 164 -251 l0 -314 -350 350 c-362 362 -493 618 -164 320 104 -94 257 -140 350 -105z m10240 34 c-540 -80 -1542 -594 -1721 -884 -98 -158 -555 -134 -555 30 0 200 202 339 968 666 517 220 827 288 1282 281 l600 -9 -574 -84z m-13626 -92 c-34 -55 -82 -100 -106 -100 -24 0 -44 45 -44 100 0 55 48 100 106 100 58 0 78 -45 44 -100z m9750 59 c0 -22 -146 -216 -325 -430 -179 -215 -414 -557 -523 -760 -108 -203 -232 -369 -275 -369 -111 0 -101 37 142 492 295 552 981 1299 981 1067z m-7861 -417 c113 -293 63 -416 -524 -1286 -721 -1070 -1469 -1879 -1697 -1836 -328 64 -230 233 912 1563 264 308 623 820 798 1138 336 612 414 676 511 421z m2598 -22 c77 -124 -53 -920 -150 -920 -48 0 -87 104 -87 230 0 127 -51 281 -113 343 -63 63 -86 184 -53 270 63 165 319 214 403 77z m-3903 -486 c-228 -354 -1054 -1234 -1159 -1234 -42 0 225 358 595 795 670 791 911 979 564 439z m22257 -834 c-5 -103 -23 -111 -57 -24 -28 69 -92 100 -143 69 -122 -76 -292 389 -288 787 3 310 10 305 249 -182 135 -275 243 -567 239 -650z m-5392 701 c136 -103 219 -216 184 -251 -35 -36 -147 6 -248 91 -102 85 -275 221 -385 302 -200 147 -200 147 0 97 110 -28 312 -135 449 -239z m4639 44 c34 -89 18 -129 -39 -94 -55 33 -99 103 -99 155 0 144 72 112 138 -61z m-21329 -128 c-54 -101 -177 -247 -273 -325 -108 -88 -84 -18 64 183 262 359 361 425 209 142z m4195 -700 c-80 -299 -195 -459 -408 -569 -352 -182 -372 -89 -96 452 110 216 200 452 200 526 0 74 56 190 124 258 205 205 310 -185 180 -667z m3250 676 c103 -166 11 -189 -133 -33 -71 77 -85 140 -31 140 54 0 128 -48 164 -107z m-7154 -28 c0 -18 -101 -120 -225 -225 l-225 -190 190 225 c180 211 260 271 260 190z m3011 -465 c39 -468 -182 -900 -460 -900 -329 0 -355 86 -149 485 103 201 237 496 297 656 131 353 272 245 312 -241z m3525 250 c32 -82 14 -150 -39 -150 -53 0 -97 68 -97 150 0 83 18 150 39 150 22 0 66 -67 97 -150z m10864 -262 c0 -48 90 -88 200 -88 110 0 200 -45 200 -100 0 -220 -367 -65 -650 275 l-300 361 275 -179 c151 -99 275 -220 275 -269z m3886 -146 c75 -271 200 -528 276 -572 155 -90 186 -428 47 -515 -131 -81 -600 803 -675 1273 -94 586 175 443 352 -186z m-15333 162 c-33 -52 -125 -70 -206 -39 -207 79 -183 135 59 135 113 0 179 -43 147 -96z m3797 -204 c-234 -259 -109 -256 260 7 159 114 290 168 290 121 0 -146 -574 -432 -741 -368 -221 85 -199 190 66 318 318 153 328 147 125 -78z m-3030 -520 c-93 -93 -120 -67 -120 120 0 187 27 213 120 120 93 -93 93 -147 0 -240z m-912 -190 c-88 -221 -96 -223 -102 -32 -3 115 24 239 61 275 119 120 139 1 41 -243z m1688 185 c-2 -69 -137 -281 -300 -471 -225 -263 -296 -303 -296 -166 0 209 368 762 507 762 51 0 91 -56 89 -125z m10304 -31 c0 -24 -45 -44 -100 -44 -55 0 -100 48 -100 106 0 58 45 78 100 44 55 -34 100 -82 100 -106z m-12400 -214 c0 -201 -29 -241 -113 -157 -63 63 -86 184 -53 270 91 239 166 188 166 -113z m3100 -130 c-196 -127 -328 -127 -250 0 34 55 138 99 231 98 146 -1 148 -14 19 -98z m12600 -519 c0 -143 -177 -86 -239 77 -110 285 -58 396 92 198 81 -107 147 -231 147 -275z m-2409 -131 c3 -55 -38 -32 -91 50 -53 83 -94 218 -91 300 5 158 172 -161 182 -350z"/>
<path d="M12218 21125 c-59 -151 -122 -365 -141 -475 -26 -144 -102 -192 -274 -173 -238 27 -435 -145 -340 -297 27 -44 153 -80 279 -80 218 0 226 -24 149 -425 -116 -602 -110 -2051 9 -2125 64 -39 101 258 102 819 1 762 210 2067 449 2806 105 326 -105 281 -233 -50z"/>
<path d="M12825 21275 c-157 -198 -345 -861 -276 -973 120 -194 251 -101 251 179 0 154 66 368 147 475 165 218 198 444 65 444 -48 0 -132 -56 -187 -125z"/>
<path d="M12300 16006 c0 -384 48 -724 107 -760 58 -36 121 -50 139 -31 73 77 -79 1485 -159 1485 -48 0 -87 -312 -87 -694z"/>
<path d="M10068 16529 c-34 -55 -19 -366 34 -690 53 -324 97 -600 97 -614 1 -14 46 -25 101 -25 149 0 121 1034 -35 1246 -79 108 -160 143 -197 83z"/>
<path d="M9500 15892 c0 -203 43 -294 125 -267 69 23 114 72 100 108 -14 37 -25 157 -25 267 0 110 -45 200 -100 200 -55 0 -100 -139 -100 -308z"/>
<path d="M13172 16039 c-105 -105 -88 -439 22 -439 143 0 188 130 115 330 -36 99 -98 148 -137 109z"/>
<path d="M11700 12229 c-556 -203 -772 -843 -399 -1180 322 -291 784 -235 1115 136 354 396 353 461 -8 823 -289 289 -416 328 -708 221z m507 -333 c258 -138 245 -448 -27 -639 -186 -130 -252 -133 -420 -22 -323 215 -416 426 -267 607 151 182 435 204 714 54z"/>
<path d="M4700 15514 c0 -102 -28 -406 -63 -675 -42 -327 -30 -456 37 -389 142 141 254 1250 127 1250 -56 0 -101 -84 -101 -186z"/>
<path d="M10043 8089 c-63 -102 112 -284 276 -287 174 -4 167 199 -10 293 -140 75 -217 73 -266 -6z"/>
<path d="M15400 5856 c0 -106 192 -150 249 -58 35 56 -7 102 -93 102 -86 0 -156 -20 -156 -44z"/>
<path d="M16270 5437 c-35 -35 -15 -152 43 -261 125 -233 350 -84 253 167 -62 163 -187 203 -296 94z"/>
<path d="M6175 8425 c-134 -30 -175 -143 -175 -481 0 -243 -86 -667 -190 -943 -217 -571 -87 -810 142 -261 81 194 148 395 148 446 0 51 64 117 143 147 164 64 326 944 194 1057 -48 42 -166 57 -262 35z"/>
<path d="M5700 24756 c0 -134 45 -272 100 -306 58 -36 100 66 100 244 0 168 -45 306 -100 306 -55 0 -100 -110 -100 -244z"/>
<path d="M6200 24800 c0 -110 45 -200 100 -200 55 0 100 90 100 200 0 110 -45 200 -100 200 -55 0 -100 -90 -100 -200z"/>
<path d="M6800 24206 c0 -472 -45 -822 -110 -862 -77 -48 -100 88 -75 444 21 313 -4 499 -65 477 -120 -41 -89 -1322 57 -2313 56 -384 98 -1306 92 -2050 -12 -1817 -8 -1945 59 -1877 151 151 275 6975 127 6975 -47 0 -85 -357 -85 -794z"/>
<path d="M8542 24775 c112 -547 165 -1366 165 -2526 0 -687 39 -1249 86 -1249 47 0 104 56 126 125 60 183 -86 3415 -165 3664 -90 283 -270 271 -212 -14z"/>
<path d="M9100 24767 c0 -147 45 -267 99 -267 55 0 86 89 70 197 -48 314 -169 363 -169 70z"/>
<path d="M9718 24379 c47 -342 64 -995 38 -1450 -29 -496 -10 -829 48 -829 107 0 117 133 108 1538 -7 996 -61 1362 -202 1362 -42 0 -39 -280 8 -621z"/>
<path d="M12900 24808 c0 -105 -27 -263 -61 -350 -33 -87 -16 -158 39 -158 55 0 119 158 141 350 22 193 5 350 -39 350 -44 0 -80 -86 -80 -192z"/>
<path d="M14150 24900 c34 -55 104 -100 156 -100 52 0 94 45 94 100 0 55 -70 100 -156 100 -86 0 -128 -45 -94 -100z"/>
<path d="M15200 24850 c0 -82 45 -150 100 -150 55 0 100 68 100 150 0 83 -45 150 -100 150 -55 0 -100 -67 -100 -150z"/>
<path d="M900 24656 c0 -24 45 -72 100 -106 55 -34 100 -14 100 44 0 58 -45 106 -100 106 -55 0 -100 -20 -100 -44z"/>
<path d="M2600 24522 c0 -291 556 -1339 945 -1779 190 -216 349 -342 351 -280 2 62 -65 170 -150 240 -201 167 -813 1271 -900 1623 -82 331 -246 462 -246 196z"/>
<path d="M11900 24183 c0 -364 44 -351 138 42 39 163 24 275 -36 275 -56 0 -102 -142 -102 -317z"/>
<path d="M15067 24433 c-115 -115 -73 -233 83 -233 82 0 150 68 150 150 0 156 -118 198 -233 83z"/>
<path d="M9239 23050 c1 -770 16 -1072 35 -671 19 402 19 1032 0 1400 -19 369 -35 41 -35 -729z"/>
<path d="M14600 24300 c0 -55 45 -100 100 -100 55 0 100 45 100 100 0 55 -45 100 -100 100 -55 0 -100 -45 -100 -100z"/>
<path d="M2 23729 c-3 -299 389 -1329 505 -1329 123 0 124 -2 -107 450 -110 216 -201 484 -202 596 0 112 -45 272 -98 354 -79 122 -97 108 -98 -71z"/>
<path d="M603 23707 c-4 -300 208 -907 317 -907 99 0 109 -52 -120 600 -125 355 -195 464 -197 307z"/>
<path d="M14525 23828 c-172 -61 -158 -228 19 -228 166 0 297 165 183 230 -43 23 -133 23 -202 -2z"/>
<path d="M1500 23400 c0 -55 45 -100 100 -100 55 0 100 45 100 100 0 55 -45 100 -100 100 -55 0 -100 -45 -100 -100z"/>
<path d="M13907 23259 c-74 -90 -106 -193 -70 -230 94 -93 294 129 246 273 -28 83 -82 69 -176 -43z"/>
<path d="M2501 23036 c-1 -221 343 -725 433 -635 28 27 -58 230 -191 450 -190 313 -242 353 -242 185z"/>
<path d="M14600 23100 c0 -55 45 -100 100 -100 55 0 100 45 100 100 0 55 -45 100 -100 100 -55 0 -100 -45 -100 -100z"/>
<path d="M1700 23002 c0 -133 338 -778 547 -1045 297 -379 266 -62 -37 379 -171 248 -310 496 -310 551 0 56 -45 129 -100 163 -55 34 -100 12 -100 -48z"/>
<path d="M15100 22700 c0 -55 45 -100 100 -100 55 0 100 45 100 100 0 55 -45 100 -100 100 -55 0 -100 -45 -100 -100z"/>
<path d="M4100 22604 c0 -95 316 -304 459 -304 40 0 -9 90 -109 200 -194 214 -350 260 -350 104z"/>
<path d="M13200 22500 c0 -55 45 -100 100 -100 55 0 100 45 100 100 0 55 -45 100 -100 100 -55 0 -100 -45 -100 -100z"/>
<path d="M14456 22510 c-30 -49 12 -115 95 -146 90 -35 149 0 149 89 0 162 -156 199 -244 57z"/>
<path d="M1300 22299 c0 -163 389 -928 602 -1183 107 -129 243 -218 303 -198 60 20 -6 168 -149 334 -141 164 -347 489 -457 723 -195 415 -299 527 -299 324z"/>
<path d="M15200 22300 c0 -55 42 -100 94 -100 52 0 122 45 156 100 34 55 -8 100 -94 100 -86 0 -156 -45 -156 -100z"/>
<path d="M702 22221 c-6 -374 709 -1346 837 -1138 33 53 -2 120 -77 148 -75 29 -276 293 -447 586 -171 293 -312 475 -313 404z"/>
<path d="M13825 22129 c-124 -23 -225 -80 -225 -125 0 -146 321 -211 463 -93 146 121 186 298 62 275 -41 -7 -176 -33 -300 -57z"/>
<path d="M3900 21812 c0 -128 294 -351 367 -279 72 73 -151 367 -279 367 -49 0 -88 -39 -88 -88z"/>
<path d="M14602 21825 c0 -41 43 -142 95 -224 72 -113 123 -121 210 -34 64 64 85 164 48 224 -75 123 -356 150 -353 34z"/>
<path d="M15500 21600 c0 -55 90 -100 200 -100 110 0 200 45 200 100 0 55 -90 100 -200 100 -110 0 -200 -45 -200 -100z"/>
<path d="M2700 20817 c0 -135 494 -557 567 -484 37 37 -38 180 -167 317 -237 252 -400 320 -400 167z"/>
<path d="M335 20139 c-39 -104 -119 -226 -178 -272 -74 -57 -69 -98 18 -133 69 -28 131 -148 138 -267 8 -119 46 8 86 283 77 534 50 698 -64 389z"/>
<path d="M1257 19843 c-37 -147 -44 -289 -17 -317 28 -27 80 70 117 217 37 146 45 289 17 316 -27 28 -80 -70 -117 -216z"/>
<path d="M1602 19904 c-58 -108 -168 -457 -245 -775 -77 -319 -145 -467 -150 -329 -7 171 -36 209 -92 120 -105 -164 -137 -904 -46 -1051 38 -61 57 -298 43 -526 -27 -447 236 -1499 401 -1601 150 -93 230 35 114 181 -160 199 -427 1215 -336 1274 45 29 86 343 90 698 11 890 105 1397 328 1786 218 378 228 419 95 419 -54 0 -144 -88 -202 -196z"/>
<path d="M1893 19587 c-263 -491 -188 -2332 106 -2626 182 -182 204 5 52 436 -83 235 -151 753 -151 1150 0 579 40 768 200 953 239 276 243 300 54 300 -81 0 -198 -96 -261 -213z"/>
<path d="M5600 19550 c0 -82 45 -150 100 -150 55 0 100 68 100 150 0 83 -45 150 -100 150 -55 0 -100 -67 -100 -150z"/>
<path d="M1100 19306 c0 -58 45 -106 100 -106 55 0 100 20 100 44 0 24 -45 72 -100 106 -55 34 -100 14 -100 -44z"/>
<path d="M3150 19300 c-34 -55 -14 -100 44 -100 58 0 106 45 106 100 0 55 -20 100 -44 100 -24 0 -72 -45 -106 -100z"/>
<path d="M180 18848 c-36 -166 -90 -706 -119 -1200 l-53 -898 147 1000 c145 988 162 1732 25 1098z"/>
<path d="M3107 18619 c-4 -330 31 -507 93 -469 120 74 120 521 0 800 -63 147 -88 58 -93 -331z"/>
<path d="M5500 18650 c0 -82 18 -150 39 -150 22 0 66 68 97 150 32 83 14 150 -39 150 -53 0 -97 -67 -97 -150z"/>
<path d="M5400 17750 c0 -82 18 -150 39 -150 22 0 66 68 97 150 32 83 14 150 -39 150 -53 0 -97 -67 -97 -150z"/>
<path d="M495 16592 c-49 -447 -57 -2392 -10 -2390 251 5 283 197 208 1232 -43 597 -104 1110 -136 1142 -31 32 -59 39 -62 16z"/>
<path d="M961 15550 c35 -220 106 -468 158 -550 61 -99 70 -13 28 250 -36 220 -107 468 -158 550 -61 99 -71 13 -28 -250z"/>
<path d="M31 10550 c-1 -2671 25 -3684 78 -3050 43 522 54 1076 25 1231 -29 154 -20 559 21 900 81 696 158 618 347 -354 61 -316 153 -599 205 -631 144 -89 111 250 -107 1104 -110 430 -200 907 -200 1060 0 153 -45 306 -100 340 -55 34 -104 430 -110 881 -5 450 -43 1201 -84 1669 -46 522 -75 -696 -75 -3150z"/>
<path d="M508 13958 c-4 -105 19 -164 52 -131 34 33 37 120 8 192 -32 80 -55 56 -60 -61z"/>
<path d="M450 12425 c22 -748 35 -825 129 -825 44 0 71 281 61 625 -24 781 -23 775 -124 775 -46 0 -76 -259 -66 -575z"/>
<path d="M900 10197 c0 -201 291 -797 389 -797 204 0 211 200 15 396 -112 112 -204 272 -204 354 0 83 -45 150 -100 150 -55 0 -100 -46 -100 -103z"/>
<path d="M307 8292 c8 -586 118 -994 223 -825 66 108 -83 1220 -177 1313 -29 29 -50 -190 -46 -488z"/>
<path d="M8 6058 c-4 -105 19 -164 52 -131 34 33 37 120 8 192 -32 80 -55 56 -60 -61z"/>
<path d="M4000 2857 c0 -78 -59 -202 -131 -275 -71 -73 -276 -433 -455 -800 -178 -368 -356 -683 -394 -700 -105 -48 -620 -862 -620 -980 0 -213 162 -88 352 271 109 204 266 442 350 527 252 255 698 1072 698 1277 0 106 90 273 200 373 211 191 269 450 100 450 -55 0 -100 -64 -100 -143z"/>
<path d="M15167 2033 c-37 -36 -67 -113 -67 -170 0 -62 47 -56 118 15 65 65 95 142 67 170 -28 29 -82 22 -118 -15z"/>
<path d="M17667 1733 c-37 -36 -67 -139 -67 -228 0 -89 -124 -239 -275 -333 -417 -260 -1392 -1170 -1255 -1171 66 -1 242 112 390 250 149 138 477 387 729 554 443 294 700 610 707 870 4 135 -121 167 -229 58z"/>
<path d="M13446 1394 c-36 -59 -188 -79 -343 -45 -221 49 -287 21 -329 -137 -36 -139 -111 -184 -248 -148 -135 36 -278 -47 -465 -269 -148 -176 -241 -348 -207 -383 35 -34 145 39 246 163 100 124 271 225 379 225 108 0 253 69 323 152 69 84 199 131 287 105 148 -45 611 247 611 384 0 99 -184 65 -254 -47z"/>
<path d="M18550 976 c-158 -561 -285 -776 -456 -776 -100 0 -210 -45 -244 -100 -36 -58 58 -100 223 -100 302 0 538 292 664 819 78 328 -97 475 -187 157z"/>
<path d="M17830 933 c-35 -91 -242 -339 -459 -550 -314 -304 -356 -383 -205 -383 222 0 773 552 876 876 84 262 -113 315 -212 57z"/>
<path d="M16794 302 c-189 -162 -299 -294 -244 -295 125 -1 689 488 630 546 -23 24 -197 -89 -386 -251z"/>
<path d="M18800 428 c0 -61 -27 -183 -61 -270 -33 -87 -15 -158 40 -158 151 0 242 319 124 437 -71 71 -103 68 -103 -9z"/>
<path d="M10500 150 c-221 -126 -227 -143 -50 -143 110 0 313 64 450 143 221 126 227 143 50 143 -110 0 -312 -64 -450 -143z"/>
</g>
</svg>