<svg xmlns="http://www.w3.org/2000/svg" version="1.0" width="250" height="250" viewBox="0 0 250.000000 250.000000" preserveAspectRatio="xMidYMid meet">
<metadata>
Created by potrace 1.10, written by Peter Selinger 2001-2011
</metadata>
<g transform="translate(0.000000,250.000000) scale(0.010000,-0.010000)" fill="#555555" stroke="none">
<path d="M290 17925 c-6 -3891 -17 -9407 -25 -12258 -15 -5024 -9 -5187 179 -5325 365 -267 452 -184 386 369 l-61 512 341 -73 c187 -41 357 -89 377 -107 89 -81 -104 -543 -227 -543 -75 0 -159 -87 -187 -193 -37 -139 -160 -205 -437 -233 -212 -22 -4 -47 464 -56 580 -10 802 16 700 82 -121 78 -107 97 75 98 124 1 225 -43 225 -98 0 -55 135 -100 300 -100 165 0 300 45 300 100 0 57 266 94 625 87 546 -12 581 -23 275 -91 -276 -61 -207 -74 325 -64 371 7 675 48 675 91 0 42 180 77 400 77 220 0 400 -45 400 -100 0 -66 3279 -94 9675 -81 5321 11 9248 44 8725 75 -592 35 -861 82 -713 125 131 38 453 43 716 12 543 -64 1197 31 1197 174 0 52 -267 95 -594 95 -327 0 -622 45 -656 100 -39 63 182 100 594 100 591 0 656 20 656 202 0 172 -40 191 -275 125 -365 -102 -1113 -61 -1270 69 -69 57 -316 112 -549 121 -344 13 -440 61 -512 250 -70 184 -169 235 -467 245 -388 12 -348 26 548 200 550 107 643 226 350 449 -107 81 -126 134 -50 136 172 4 159 203 -13 203 -76 0 -197 -72 -270 -160 -112 -134 -106 -174 40 -256 311 -174 67 -284 -632 -284 -379 0 -718 -48 -754 -106 -117 -189 265 -494 619 -494 350 0 449 -135 177 -239 -87 -34 -278 -61 -425 -61 -147 0 -548 -133 -892 -296 -344 -162 -625 -272 -625 -244 0 29 -47 23 -105 -13 -71 -44 -65 -112 18 -212 149 -180 549 -101 837 164 219 202 1077 408 1975 476 466 35 575 14 575 -109 0 -83 79 -169 175 -191 263 -59 -945 -308 -1569 -324 -320 -8 -560 -62 -583 -132 -29 -87 -651 -119 -2340 -119 -1795 0 -2291 27 -2259 125 56 169 759 218 1032 72 169 -91 272 -89 453 8 228 122 222 129 -213 258 -245 74 -581 136 -746 139 -165 2 -390 73 -500 157 -132 100 -378 144 -724 128 -661 -30 -739 46 -249 242 516 207 676 402 469 574 -205 170 -23 293 437 295 223 1 319 44 290 127 -49 143 -580 122 -993 -39 -569 -223 -501 -2 92 299 698 353 849 385 762 160 -49 -128 -9 -141 228 -77 274 74 555 77 977 11 104 -16 208 24 231 90 56 156 -538 316 -948 256 -198 -30 -322 -5 -322 64 0 143 -467 145 -555 2 -101 -163 -1849 -991 -2088 -989 -296 2 -529 167 -406 287 200 196 1139 613 1464 650 184 21 365 44 402 50 37 6 195 114 350 241 361 293 1249 522 1502 387 177 -95 689 -147 1256 -127 178 7 275 65 275 165 0 120 -107 152 -475 141 -547 -16 -1325 99 -1325 197 0 188 1350 327 3550 364 1320 23 2666 64 2991 92 578 50 586 47 416 -141 -278 -308 -166 -553 269 -589 277 -23 374 7 374 117 0 81 -56 168 -125 193 -100 37 -100 73 0 179 69 72 125 303 125 512 0 290 -40 380 -169 380 -147 0 -144 18 25 142 327 239 75 306 -1038 277 -814 -22 -1040 -1 -951 88 79 79 440 104 1125 76 776 -31 1008 -10 1008 88 0 71 -79 130 -175 132 -167 3 -167 8 0 105 96 56 175 212 175 347 0 227 -36 245 -495 245 -272 0 -846 -109 -1275 -243 -429 -133 -1095 -273 -1480 -311 -385 -37 -966 -156 -1290 -263 -612 -203 -797 -149 -735 210 43 245 2491 757 3475 728 303 -9 820 40 1150 110 485 102 606 167 631 338 l30 212 -413 -205 c-309 -153 -646 -211 -1331 -230 -789 -21 -2260 -211 -3192 -410 -213 -46 -275 -22 -275 106 0 220 -541 740 -852 817 -393 99 -289 241 177 242 234 1 646 68 916 150 270 82 720 151 1000 153 280 3 712 47 959 99 248 52 720 123 1050 158 330 35 671 125 758 201 87 76 222 138 300 139 78 0 311 47 517 104 309 86 375 149 375 362 l0 258 -1142 -64 c-771 -43 -1224 -27 -1393 50 -184 84 -333 85 -567 3 -226 -78 -375 -80 -516 -4 -152 81 -240 69 -373 -52 -272 -246 -1109 -172 -1109 98 0 151 -1629 131 -3750 -46 -660 -56 -2302 -125 -3650 -155 -1347 -29 -2592 -94 -2765 -145 -639 -184 -2091 -35 -2422 248 -63 55 531 536 666 539 70 2 240 -70 376 -160 200 -130 392 -149 972 -97 944 86 1683 270 1747 436 83 216 -37 248 -340 92 -290 -149 -1852 -254 -2134 -143 -295 116 -1104 150 -1166 48 -66 -106 -2502 -38 -2614 74 -32 32 52 134 186 228 198 139 479 172 1504 173 922 2 1304 39 1426 140 127 106 140 171 53 275 -152 183 -289 173 -289 -20 0 -137 -185 -153 -1425 -128 -1046 21 -1525 -9 -1800 -113 -417 -158 -492 -390 -155 -478 453 -119 -149 -210 -1437 -217 -1346 -7 -1583 -47 -1583 -265 0 -98 83 -120 295 -78 162 32 421 16 575 -36 189 -65 523 -53 1030 35 1017 177 1576 198 2725 101 928 -79 1203 -178 1011 -366 -47 -46 -782 -37 -1632 20 -1333 91 -1588 84 -1850 -48 -167 -84 -637 -178 -1044 -207 -816 -59 -963 -138 -862 -457 47 -148 123 -197 245 -158 369 117 3165 81 3562 -46 784 -251 691 -349 -291 -307 -408 18 -532 -23 -769 -250 -273 -261 -290 -264 -463 -91 -127 127 -144 192 -57 221 67 22 224 131 349 240 l226 200 -250 -66 c-548 -144 -1165 -227 -1450 -195 -165 19 -630 55 -1034 80 l-735 46 -15 1351 c-9 744 16 1384 55 1423 40 40 366 66 726 58 672 -15 1553 150 1553 290 0 72 -1097 47 -2031 -46 -374 -38 -380 -33 -350 278 31 313 38 316 631 344 330 16 735 91 900 167 165 76 708 170 1208 208 750 58 963 41 1232 -98 275 -142 536 -160 1702 -114 758 30 1443 79 1522 109 171 66 486 -571 486 -980 0 -378 284 -492 1027 -412 679 73 1329 341 2157 889 294 194 570 331 615 304 44 -28 456 15 916 95 459 80 1138 175 1508 213 734 74 826 241 132 241 -397 0 -1830 -229 -2305 -369 -110 -32 228 351 750 851 678 650 1001 895 1129 856 98 -30 795 68 1550 217 1242 245 1520 265 2946 221 1524 -48 2063 30 1111 160 -937 129 -2801 67 -3800 -126 -1231 -238 -1836 -311 -1836 -222 0 213 589 735 900 799 l350 71 0 595 c0 486 -32 600 -175 628 -241 46 -425 -442 -283 -753 95 -210 80 -228 -194 -228 -349 0 -347 -9 -129 448 115 241 136 387 67 456 -169 169 -374 19 -596 -437 -486 -995 -2665 -3301 -3146 -3328 -109 -7 -285 -90 -390 -186 -106 -95 -251 -153 -323 -128 -79 28 15 134 235 265 201 121 391 285 422 365 31 80 172 145 313 145 284 0 749 401 749 645 0 202 -140 197 -313 -10 -75 -92 -278 -225 -450 -297 -172 -72 -442 -236 -600 -366 -596 -487 -939 -694 -875 -526 34 88 146 205 250 260 198 107 260 394 85 394 -57 0 -326 -112 -597 -250 -567 -287 -924 -330 -836 -100 31 83 125 150 207 150 83 0 376 114 653 253 279 140 584 226 685 194 232 -73 591 113 591 307 0 123 -34 127 -203 22 -167 -103 -219 -100 -292 16 -76 122 -121 121 -321 -9 -279 -179 -1200 -501 -1261 -439 -96 95 109 257 654 515 315 149 649 262 742 251 202 -25 1078 508 921 560 -60 20 -240 -17 -400 -82 -159 -66 -361 -111 -449 -100 -87 10 -357 -95 -600 -233 -473 -271 -936 -340 -866 -130 22 69 341 270 708 448 367 178 667 369 667 425 0 136 5 138 -634 -145 -338 -150 -582 -208 -619 -148 -34 55 106 169 311 255 571 238 865 457 759 563 -58 58 -249 14 -501 -115 -453 -231 -516 -246 -516 -124 0 115 935 616 1150 616 94 0 393 143 663 318 620 402 500 615 -137 242 -244 -143 -507 -262 -585 -263 -77 -2 -320 -88 -539 -192 -679 -321 -733 -52 -58 292 209 107 403 279 430 383 29 110 171 214 339 248 159 31 397 151 529 265 131 114 298 207 371 207 189 0 1037 425 1037 520 0 44 -51 80 -112 80 -73 0 -64 58 25 166 107 130 109 176 12 209 -69 23 -125 105 -125 183 0 195 364 180 440 -19 49 -126 144 -146 436 -95 206 36 555 89 775 119 l401 53 299 -916 c298 -913 485 -1163 748 -1001 114 71 93 206 -122 768 -144 376 -292 796 -331 933 -38 138 -129 318 -202 402 -101 115 -110 255 -37 582 93 412 8 1003 -182 1272 -154 217 -578 444 -830 444 -148 0 -361 107 -494 249 -196 209 -217 287 -126 486 59 131 197 261 306 289 250 65 834 -212 889 -421 48 -182 637 -176 1714 15 455 81 765 82 1100 6 487 -111 950 -90 1984 89 596 103 890 63 785 -109 -106 -171 250 -314 732 -292 276 13 561 -23 634 -79 77 -60 667 -93 1431 -82 1547 24 1550 25 1550 138 0 49 -259 90 -575 92 -316 2 -687 13 -825 23 -137 11 -485 -15 -773 -56 -377 -54 -567 -39 -680 54 -86 72 -323 124 -527 116 -501 -20 -689 52 -750 285 -59 225 -479 263 -1073 98 -220 -61 -703 -66 -1277 -13 -640 59 -1084 49 -1447 -34 -293 -66 -673 -86 -864 -45 -188 40 -394 52 -459 27 -65 -25 -166 13 -225 84 -83 102 -27 133 259 146 370 15 978 205 903 281 -73 73 -1230 78 -1437 6 -191 -66 -192 -62 -18 80 99 82 482 221 850 310 560 136 890 147 2037 68 754 -51 1654 -58 2000 -16 714 87 1993 64 2406 -45 151 -39 275 -31 275 19 0 208 -269 331 -720 331 -347 0 -536 56 -680 200 -238 238 -700 271 -700 50 0 -82 68 -150 150 -150 83 0 150 -45 150 -100 0 -62 -557 -99 -1475 -98 -1294 1 -1554 30 -2115 235 l-639 233 289 121 c451 188 740 351 740 417 0 33 -116 113 -258 177 -382 175 -252 370 216 325 1258 -123 1519 36 540 329 -520 155 -689 168 -953 73 -229 -83 -399 -86 -595 -12 -151 57 -427 76 -612 41 -219 -41 -338 -24 -338 48 0 161 -2042 149 -2304 -14 -150 -93 -221 -95 -274 -11 -48 77 -581 118 -1630 125 l-1558 10 41 -575 c112 -1591 67 -2677 -139 -3374 -114 -385 -261 -924 -327 -1198 -70 -289 -286 -712 -512 -1006 -391 -507 -450 -721 -415 -1514 23 -533 247 -771 648 -691 l297 59 -61 -625 c-33 -344 -107 -1139 -163 -1767 -57 -627 -129 -1167 -161 -1199 -32 -33 -325 -43 -650 -25 -382 22 -592 -4 -592 -75 0 -63 199 -110 475 -111 261 0 542 -44 625 -96 128 -81 121 -117 -50 -253 -288 -228 -2324 -154 -2711 99 -206 135 -391 161 -827 117 -1453 -147 -1654 -161 -1537 -107 262 122 121 267 -200 206 -1010 -193 -1326 -278 -1467 -396 -365 -303 -443 -162 -483 863 l-38 981 331 -60 c1028 -184 1285 -203 1821 -130 496 67 608 53 712 -90 106 -145 206 -155 711 -75 671 106 709 294 52 253 -324 -20 -416 5 -360 96 73 118 1023 96 2721 -64 327 -30 525 -10 525 54 0 60 -284 109 -675 116 -1271 22 -1308 159 -43 160 704 1 1275 45 1333 103 184 184 -136 269 -890 238 -405 -17 -725 11 -725 63 0 132 -1364 308 -2064 266 -1249 -75 -2848 -280 -2905 -373 -39 -63 205 -74 679 -31 1676 153 3262 188 3332 75 49 -79 -103 -113 -501 -113 -314 0 -913 -69 -1331 -154 -462 -94 -1134 -143 -1710 -125 l-950 29 8 1400 c5 770 16 1910 25 2533 l17 1133 1075 -33 c1050 -32 1076 -28 1107 192 27 187 75 214 286 161 391 -98 777 -96 832 4 67 121 -965 467 -1165 391 -86 -34 -545 -65 -1021 -71 -1171 -14 -1216 -196 -64 -260 495 -27 847 -84 783 -126 -65 -42 -498 -47 -963 -11 l-845 65 -65 716 c-35 394 -36 1535 -2 2536 l63 1820 -310 0 -311 0 -10 -7075z m11210 6725 c102 -123 95 -150 -38 -150 -89 0 -162 68 -162 150 0 83 17 150 38 150 21 0 94 -67 162 -150z m1800 -456 c0 -100 -40 -207 -90 -238 -104 -64 -210 171 -210 464 0 170 25 184 150 80 82 -68 150 -206 150 -306z m-1000 -255 c0 -196 -39 -245 -158 -200 -87 34 -173 61 -191 61 -18 0 -9 90 20 200 77 295 329 249 329 -61z m1300 -489 c75 -91 83 -150 20 -150 -183 0 -420 119 -420 211 0 143 264 103 400 -61z m-1446 -57 c92 -149 -15 -230 -206 -156 -88 34 -133 107 -98 162 81 131 221 129 304 -6z m-18 -943 c-31 -82 -119 -150 -194 -150 -80 0 -112 62 -78 150 31 83 119 150 194 150 80 0 112 -62 78 -150z m-126 -680 c-128 -128 -258 -29 -163 125 37 60 113 80 169 45 68 -42 66 -98 -6 -170z m44 -627 c-36 -330 -176 -467 -392 -384 -155 60 -152 79 33 209 113 79 205 233 205 344 0 110 41 174 91 143 50 -31 79 -171 63 -312z m-1093 -386 c-36 -141 -128 -257 -206 -257 -112 0 -122 68 -48 324 51 179 93 345 93 370 0 25 51 -5 113 -67 63 -63 84 -224 48 -370z m1595 96 c163 -123 168 -147 31 -150 -89 -2 -219 65 -287 147 -160 192 3 194 256 3z m1444 -759 c0 -52 -45 -94 -100 -94 -55 0 -100 70 -100 156 0 86 45 128 100 94 55 -34 100 -104 100 -156z m-1266 12 c328 -125 666 -497 666 -734 0 -217 -303 -772 -422 -772 -43 0 -78 199 -78 442 0 733 -28 758 -861 758 -764 0 -942 109 -464 284 358 130 849 140 1159 22z m-10634 -5803 c0 -53 -67 -71 -150 -39 -82 31 -150 75 -150 97 0 21 68 39 150 39 83 0 150 -44 150 -97z m7248 -2205 c-179 -198 -417 -223 -379 -40 16 75 178 147 521 232 23 6 -41 -81 -142 -192z m752 -501 c129 -87 122 -118 -50 -224 -299 -184 -687 -251 -932 -160 -305 113 -272 286 57 294 151 4 365 46 475 93 264 113 275 113 450 -3z m9100 -2547 c-284 -162 -700 -196 -700 -57 0 110 239 181 650 192 l300 8 -250 -143z m-11769 -219 c327 -165 2133 -186 3416 -39 482 55 866 55 969 -1 94 -50 347 -91 563 -91 215 0 535 -50 711 -112 352 -122 561 -31 284 124 -96 54 -174 143 -174 199 0 55 47 72 103 37 139 -86 1721 -70 1959 19 162 61 170 49 58 -89 -200 -247 -29 -283 1096 -233 569 25 1214 12 1434 -30 378 -71 358 -80 -350 -146 -412 -39 -2077 -99 -3700 -134 -1622 -35 -3085 -72 -3250 -82 -165 -10 -536 -26 -825 -36 -600 -19 -661 -108 -212 -307 236 -104 549 -121 1275 -69 1684 120 2149 161 2712 239 647 90 3071 -1 2700 -101 -812 -218 -2198 -387 -2380 -290 -221 119 -1704 -14 -1996 -178 -165 -92 -165 -101 3 -166 97 -37 299 -36 450 2 150 38 453 90 673 116 375 43 388 36 206 -108 -135 -108 -416 -155 -919 -155 -906 0 -2637 286 -2817 465 -74 74 -322 135 -552 136 -653 1 -1700 197 -1868 349 -84 76 -332 183 -551 239 -220 55 -601 151 -849 214 -247 64 -675 153 -950 200 -1339 226 -1174 283 650 227 1306 -40 1933 -99 2131 -199z m9069 94 c0 -41 -221 -75 -490 -75 -270 0 -439 33 -375 73 152 97 865 98 865 2z m1734 -31 c-73 -73 -215 -76 -445 -9 l-339 97 445 9 c314 6 414 -22 339 -97z m1716 6 c34 -55 -28 -100 -138 -100 -110 0 -228 -45 -262 -100 -34 -55 -138 -99 -231 -98 -132 2 -114 45 81 198 278 218 457 250 550 100z m4233 50 c-28 -28 -307 -98 -620 -156 -607 -112 -1104 -45 -851 115 143 91 1560 130 1471 41z m-2024 -135 c-29 -47 -335 -113 -681 -146 -345 -33 -785 -91 -978 -128 -282 -54 -327 -43 -230 61 66 70 291 161 500 201 542 105 1452 113 1389 12z m-15556 -765 c-54 -116 -307 -79 -453 66 -66 66 1 88 200 67 165 -18 279 -78 253 -133z m-5643 -223 c-101 -102 -185 51 -102 186 63 102 87 102 121 1 23 -70 15 -154 -19 -187z m2496 -17 c-64 -104 -1311 -203 -1731 -138 -674 105 -286 222 728 220 579 -2 1030 -38 1003 -82z m3216 -394 c417 -212 766 -316 1060 -316 310 0 490 -58 618 -200 217 -240 350 -257 350 -44 0 125 84 146 425 104 2007 -249 2276 -261 3210 -145 662 82 802 74 900 -54 91 -121 207 -134 565 -66 248 47 990 166 1650 263 660 98 1276 241 1368 319 97 81 253 114 370 77 117 -37 304 1 440 91 295 193 431 86 207 -162 -172 -190 -119 -228 268 -192 216 20 597 -360 597 -596 0 -109 56 -290 125 -402 105 -172 98 -220 -50 -304 -306 -173 -203 -320 182 -257 505 82 402 -124 -209 -419 -307 -148 -659 -234 -933 -229 -549 11 -651 94 -223 179 293 59 508 327 508 632 0 255 -843 146 -1900 -245 -247 -91 -720 -223 -1050 -292 -330 -69 -577 -167 -550 -217 72 -131 416 -73 1562 263 557 163 1165 293 1350 289 l338 -6 -400 -126 c-532 -168 -863 -384 -807 -528 24 -64 -24 -143 -107 -175 -260 -99 -436 -64 -436 88 0 127 -51 127 -413 0 -226 -80 -490 -146 -586 -146 -95 0 -596 -131 -1112 -292 -517 -160 -1186 -361 -1489 -445 -590 -166 -994 -403 -879 -517 39 -39 258 4 487 96 229 91 436 147 459 124 24 -23 -313 -292 -747 -596 -962 -674 -1476 -1254 -1647 -1860 -81 -288 -211 -498 -350 -567 -122 -61 -304 -186 -405 -277 -122 -110 -350 -164 -676 -159 -367 5 -441 29 -292 93 110 47 321 89 469 93 312 8 454 174 290 338 -85 85 -164 83 -310 -9 -281 -175 -506 -156 -432 37 47 122 6 151 -178 125 -169 -24 -230 -88 -207 -220 20 -117 -16 -169 -100 -141 -73 24 -132 182 -132 350 0 257 28 293 168 217 221 -118 1290 -113 1479 6 221 140 93 200 -480 225 -284 12 -515 46 -513 76 2 29 133 203 290 387 332 388 651 399 654 24 3 -387 181 -333 487 149 616 971 226 2402 -950 3491 -322 298 -585 590 -585 650 0 276 -333 602 -615 602 -161 0 -392 65 -514 144 -403 263 -1885 856 -2136 856 -360 0 -611 -163 -794 -517 -118 -229 -134 -366 -60 -522 56 -116 128 -295 161 -397 41 -127 124 -170 259 -135 171 45 199 2 199 -299 0 -279 -32 -339 -158 -291 -87 34 -264 61 -392 61 -181 0 -250 71 -304 316 -172 786 -60 1226 449 1761 327 343 1333 269 2177 -161z m10128 238 c-357 -68 -819 -158 -1025 -200 -228 -46 -375 -38 -375 21 0 124 899 298 1550 301 l500 2 -650 -124z m-12932 -254 c-18 -28 -113 -237 -211 -465 l-179 -414 -1114 -49 c-613 -27 -1215 -82 -1339 -122 -216 -70 -225 -50 -225 513 l0 587 1550 0 c853 0 1536 -22 1518 -50z m1230 -175 c-5 -148 -371 -550 -422 -464 -88 149 108 539 271 539 84 0 152 -34 151 -75z m502 -358 c0 -72 -112 -238 -250 -367 -287 -270 -314 -214 -97 205 158 306 347 394 347 162z m13752 -275 c37 -114 37 -236 2 -272 -75 -75 -250 171 -252 355 -3 203 179 143 250 -83z m-13441 -350 c-447 -569 -55 -780 406 -219 147 179 302 291 344 250 42 -42 -101 -258 -317 -479 -287 -294 -461 -395 -643 -373 -392 45 -388 430 9 839 377 390 513 378 201 -18z m-2330 -317 c23 -232 -10 -325 -114 -325 -80 0 -171 65 -201 145 -45 118 -226 136 -936 97 -484 -28 -1026 -68 -1205 -90 -237 -29 -325 0 -325 107 0 81 67 173 148 204 234 90 1551 216 2102 201 488 -14 501 -22 531 -339z m3722 -70 c-132 -245 -385 -406 -485 -306 -29 29 75 187 232 351 325 339 447 317 253 -45z m-5940 -986 l13 -631 -288 42 c-280 42 -288 59 -288 631 0 576 6 589 275 589 270 0 275 -13 288 -631z m20937 531 c0 -55 -146 -96 -325 -90 -308 9 -312 14 -75 90 353 113 400 113 400 0z m-18800 -206 c248 -53 724 -113 1060 -133 335 -21 707 -90 826 -154 173 -92 262 -85 438 39 309 216 935 203 1025 -21 100 -248 335 -2187 415 -3408 l66 -1032 -390 179 c-252 116 -585 172 -940 159 -1298 -48 -3925 -32 -3981 24 -33 34 -51 678 -40 1432 13 815 -34 1675 -114 2121 -75 413 -117 784 -95 825 59 105 1191 85 1730 -31z m20302 -42 c-146 -175 -676 -452 -867 -452 -76 0 -135 106 -135 244 0 248 102 287 887 340 199 13 218 -8 115 -132z m-3302 5 c0 -72 -1118 -372 -1175 -315 -30 29 9 71 86 92 76 21 274 85 439 142 321 110 650 151 650 81z m-12636 -207 c31 -82 143 -150 247 -150 262 0 242 -49 -185 -440 -256 -234 -398 -306 -449 -227 -92 146 -100 810 -10 900 117 118 337 72 397 -83z m14525 -11 c311 -98 -34 -166 -995 -195 -558 -18 -985 -1 -948 37 230 234 1400 329 1943 158z m2149 -159 c-61 -99 -379 -105 -474 -10 -39 38 32 124 157 191 228 122 432 6 317 -181z m-15438 -195 c0 -47 -65 -85 -145 -85 -80 0 -278 -191 -440 -425 -162 -234 -435 -557 -605 -719 l-310 -293 3 243 c2 154 206 465 550 840 301 327 547 661 547 740 0 114 42 107 200 -36 110 -100 200 -219 200 -265z m300 -491 c0 -107 -45 -194 -100 -194 -55 0 -100 115 -100 256 0 145 43 229 100 194 55 -34 100 -149 100 -256z m6700 166 c0 -25 -461 -187 -1025 -360 -564 -173 -1339 -435 -1724 -582 -946 -363 -927 -358 -701 -191 580 427 1818 1003 2285 1063 763 98 1165 122 1165 70z m-14613 -420 c21 -17 11 -101 -22 -186 -89 -232 -665 -207 -665 29 0 101 29 213 65 249 58 57 528 -11 622 -92z m15470 71 c-30 -48 -224 -119 -431 -156 -207 -38 -477 -93 -601 -123 -351 -84 -264 126 100 243 408 131 1005 154 932 36z m-8466 -1177 c-217 -407 8 -395 356 18 184 219 369 364 411 323 99 -98 -307 -535 -775 -833 -262 -167 -353 -287 -318 -420 52 -196 -220 -500 -340 -380 -39 39 -94 304 -123 589 -52 506 -42 531 398 994 447 471 450 473 483 209 18 -147 -23 -372 -92 -500z m-6941 366 c0 -101 -122 -160 -375 -181 -279 -23 -375 7 -375 118 0 81 79 170 175 196 308 83 575 22 575 -133z m8211 -758 c-52 -136 -561 -208 -561 -81 0 34 124 204 275 378 272 314 275 315 307 81 18 -130 8 -301 -21 -378z m3995 305 c-253 -191 -416 -189 -256 3 68 83 198 149 287 147 137 -3 132 -27 -31 -150z m-12191 -101 c76 -196 62 -206 -390 -276 -319 -49 -375 -30 -375 128 0 305 657 431 765 148z m10635 -293 c0 -26 -123 -111 -273 -190 -150 -78 -433 -384 -628 -678 -221 -335 -437 -547 -577 -567 -286 -41 -280 20 51 480 285 396 806 806 1166 917 116 36 222 70 236 75 14 6 25 -11 25 -37z m1034 -250 c-135 -119 -1034 -337 -1104 -267 -101 101 12 165 533 300 481 125 733 111 571 -33z m-11776 -103 c23 0 42 -85 42 -189 0 -142 -88 -199 -350 -230 -307 -36 -350 -14 -350 182 0 222 224 349 483 275 73 -21 152 -38 175 -38z m14319 -344 c106 -106 -478 -243 -807 -190 -432 70 -1696 -211 -2186 -487 -356 -200 -385 -202 -727 -39 -196 93 -357 205 -357 249 0 126 684 461 768 376 42 -42 11 -116 -68 -165 -79 -49 -112 -121 -72 -161 39 -40 308 44 597 185 289 142 593 282 675 312 178 64 2104 -6 2177 -80z m-1177 -706 c94 -113 346 -150 1018 -150 623 0 873 -33 826 -110 -37 -60 -197 -90 -356 -67 -398 58 -360 -45 87 -239 l375 -162 -975 3 c-536 2 -975 42 -975 89 0 121 -675 108 -750 -14 -34 -55 -211 -100 -394 -100 -305 0 -331 24 -318 297 18 350 123 470 462 531 525 94 880 67 1000 -78z m-8350 -350 c37 -60 -84 -100 -300 -100 -216 0 -337 40 -300 100 34 55 169 100 300 100 131 0 266 -45 300 -100z m5641 -17 c403 -93 483 -144 395 -250 -80 -97 -425 -133 -1265 -133 -635 0 -1121 34 -1080 75 105 107 969 398 1226 413 120 6 445 -41 724 -105z m-4572 -351 c-72 -29 -159 -26 -192 8 -33 33 26 56 131 52 117 -5 141 -28 61 -60z"/>
<path d="M7643 8370 c-262 -147 -147 -270 250 -270 424 0 973 167 875 266 -92 91 -964 95 -1125 4z"/>
<path d="M16950 6900 c-220 -41 -827 -167 -1350 -279 -713 -152 -1275 -199 -2250 -188 -715 9 -1357 -21 -1427 -66 -237 -152 -25 -246 351 -155 207 49 742 62 1190 28 801 -61 1663 31 2886 307 330 74 769 164 975 199 206 35 375 106 375 159 0 106 -163 105 -750 -5z"/>
<path d="M9037 6514 c94 -104 140 -257 105 -350 -53 -137 11 -164 393 -164 514 0 926 154 1012 378 83 215 -28 285 -227 143 -452 -323 -641 -338 -916 -75 -316 303 -632 362 -367 68z"/>
<path d="M9969 5821 c-186 -205 -216 -380 -81 -463 149 -93 1069 229 1261 441 176 195 176 201 -14 201 -108 0 -284 -66 -391 -147 -238 -180 -352 -192 -319 -34 42 199 -276 200 -456 2z"/>
<path d="M12134 5326 c-447 -25 -633 -79 -677 -193 -51 -133 -7 -147 266 -89 180 38 591 109 913 157 623 92 893 212 406 180 -161 -11 -569 -35 -908 -55z"/>
<path d="M13500 4967 c-270 -70 -450 -174 -450 -260 0 -192 -920 -430 -1161 -301 -251 134 -389 116 -389 -50 0 -216 -168 -278 -386 -141 -271 169 -740 -132 -695 -446 26 -186 93 -218 441 -211 237 4 532 92 700 208 160 111 515 261 790 335 275 73 725 233 1000 355 275 123 582 250 683 284 183 60 190 277 11 320 -52 13 -296 -29 -544 -93z"/>
<path d="M1050 7063 c-190 -149 -177 -157 250 -160 248 -2 821 -33 1275 -68 546 -43 825 -29 825 39 0 163 -237 218 -1229 284 -750 50 -958 32 -1121 -95z"/>
<path d="M6067 4733 c-37 -36 -67 -146 -67 -244 0 -275 -113 -288 -703 -84 -784 270 -1676 257 -2105 -32 -581 -392 -792 -810 -792 -1569 0 -616 24 -691 325 -1000 179 -184 505 -416 725 -517 1026 -468 3356 33 3111 670 -61 160 -83 157 -289 -32 -252 -233 -915 -529 -1159 -517 -104 5 -118 26 -38 58 187 76 151 212 -75 284 -147 47 -200 151 -200 396 0 460 220 510 804 182 514 -289 744 -257 455 62 -167 184 -162 198 109 327 280 135 282 143 291 1109 8 848 -12 974 -158 974 -92 0 -198 -30 -234 -67z m-1067 -676 c584 -168 898 -380 1086 -730 168 -315 -66 -419 -286 -127 -191 253 -400 197 -400 -106 0 -237 -27 -238 -430 -24 -277 147 -293 175 -120 211 260 53 450 210 450 373 0 172 -1134 295 -1601 174 -495 -128 -341 -285 238 -243 337 25 466 2 419 -75 -37 -60 -226 -110 -419 -110 -276 0 -345 -36 -319 -169 18 -92 173 -205 344 -249 282 -73 317 -126 368 -556 45 -374 21 -504 -112 -608 -92 -73 -158 -170 -146 -216 29 -110 -363 10 -647 197 -290 192 -286 301 13 301 277 0 419 145 515 526 83 332 -65 360 -340 64 l-196 -209 -112 209 c-62 116 -178 210 -259 210 -226 0 -179 521 82 910 176 262 320 354 625 400 454 68 502 62 1247 -153z m-327 -2626 c-97 -26 -232 -24 -300 3 -68 28 12 49 177 47 165 -3 220 -25 123 -50z"/>
<path d="M19075 24929 c124 -23 326 -23 450 0 124 24 23 44 -225 44 -247 0 -349 -20 -225 -44z"/>
<path d="M20955 24913 c52 -49 410 -116 795 -150 635 -57 682 -49 506 87 -209 161 -1474 222 -1301 63z"/>
<path d="M23754 24775 c108 -363 339 -675 499 -675 205 0 747 534 747 736 0 231 -160 204 -352 -61 l-163 -225 -155 225 c-89 130 -258 225 -399 225 -207 0 -234 -35 -177 -225z"/>
<path d="M8075 24830 c-194 -50 -230 -184 -74 -281 147 -90 516 49 473 178 -44 133 -164 164 -399 103z"/>
<path d="M4450 24528 c-298 -74 -474 -244 -365 -353 58 -58 174 -50 305 20 117 62 268 106 336 97 341 -44 424 14 230 161 -107 81 -219 142 -250 135 -31 -6 -146 -33 -256 -60z"/>
<path d="M2175 24134 c69 -28 181 -28 250 0 69 28 13 50 -125 50 -137 0 -194 -22 -125 -50z"/>
<path d="M1544 24009 c31 -49 146 -67 256 -38 275 72 251 129 -56 129 -141 0 -231 -41 -200 -91z"/>
<path d="M17900 24026 c-737 -63 -744 -241 -8 -206 402 19 658 77 683 155 23 69 -18 117 -92 108 -73 -10 -335 -35 -583 -57z"/>
<path d="M24050 23773 c-438 -511 -778 -1878 -530 -2127 117 -117 736 44 1094 285 335 226 336 229 364 1123 l28 896 -390 14 c-282 10 -439 -43 -566 -191z m750 -264 c0 -113 -687 -946 -822 -996 -96 -36 -60 147 134 665 104 277 688 559 688 331z m0 -1003 c0 -52 -45 -122 -100 -156 -55 -34 -100 8 -100 94 0 86 45 156 100 156 55 0 100 -42 100 -94z"/>
<path d="M21923 23780 c52 -156 1064 -183 1102 -30 14 56 -234 113 -560 130 -446 23 -575 0 -542 -100z"/>
<path d="M2374 23741 c-39 -39 -44 -177 -11 -306 57 -228 40 -235 -560 -235 -452 0 -608 -34 -577 -125 24 -69 174 -117 334 -106 159 10 729 24 1265 31 932 12 1233 108 750 237 -124 33 -371 61 -550 62 -179 0 -325 37 -325 82 0 150 -255 431 -326 360z"/>
<path d="M6025 23675 c40 -123 1212 -356 1850 -369 613 -12 325 160 -550 328 -1051 201 -1357 211 -1300 41z"/>
<path d="M7020 23103 c-181 -44 -844 -112 -1475 -151 -1043 -65 -1356 -151 -1020 -278 69 -26 418 -10 775 35 358 45 1055 95 1550 111 720 24 900 60 900 180 0 176 -270 215 -730 103z"/>
<path d="M1175 22544 c-143 -147 -74 -244 175 -244 156 0 250 -57 250 -150 0 -169 730 -195 1676 -61 507 73 535 64 763 -232 237 -307 237 -307 1130 -277 775 25 926 2 1152 -175 278 -219 480 -242 1215 -141 314 43 464 111 464 211 0 121 -99 136 -536 81 -444 -55 -610 -29 -958 153 -368 191 -521 212 -1205 159 -667 -51 -792 -36 -845 103 -35 90 -5 203 66 252 163 114 1784 31 2385 -122 543 -137 1126 -23 1175 231 48 250 -283 338 -444 118 -124 -169 -188 -173 -843 -56 -452 81 -1315 114 -2377 91 -918 -19 -2005 4 -2418 51 -412 47 -784 50 -825 8z"/>
<path d="M16125 22434 c-69 -28 -125 -97 -125 -153 0 -121 698 -16 845 127 100 97 -491 118 -720 26z"/>
<path d="M15846 21193 c-36 -58 -50 -120 -31 -136 19 -16 553 -56 1185 -87 1335 -67 1297 71 -61 227 -1091 124 -1014 125 -1093 -4z"/>
<path d="M24500 21100 c0 -55 113 -100 250 -100 138 0 250 45 250 100 0 55 -112 100 -250 100 -137 0 -250 -45 -250 -100z"/>
<path d="M16304 20507 c-60 -112 -259 -227 -455 -264 -192 -36 -349 -101 -349 -145 0 -93 858 -215 1150 -164 230 40 216 224 -14 201 -112 -12 -137 47 -94 219 75 300 -99 413 -238 153z"/>
<path d="M21803 20504 c-81 -51 -117 -124 -79 -161 91 -91 376 25 376 154 0 127 -104 129 -297 7z"/>
<path d="M23800 20500 c0 -55 68 -100 150 -100 83 0 150 45 150 100 0 55 -67 100 -150 100 -82 0 -150 -45 -150 -100z"/>
<path d="M24800 20300 c0 -55 45 -100 100 -100 55 0 100 45 100 100 0 55 -45 100 -100 100 -55 0 -100 -45 -100 -100z"/>
<path d="M17000 20000 c0 -55 225 -100 500 -100 275 0 500 45 500 100 0 55 -225 100 -500 100 -275 0 -500 -45 -500 -100z"/>
<path d="M19225 19920 c-289 -17 -525 -68 -525 -115 0 -158 250 -176 995 -74 550 76 931 70 1450 -21 388 -68 1020 -145 1405 -170 385 -26 822 -66 971 -90 149 -24 297 -2 328 48 109 177 -356 310 -1025 293 -371 -9 -896 36 -1168 101 -452 107 -950 113 -2431 28z"/>
<path d="M16257 19623 c-159 -158 19 -199 810 -187 1167 19 1248 227 92 237 -465 4 -871 -19 -902 -50z"/>
<path d="M1900 19100 c-172 -55 6 -83 569 -90 451 -6 847 35 881 90 74 120 -1076 120 -1450 0z"/>
<path d="M6418 19023 c-516 -23 -719 -68 -690 -153 44 -128 1914 -161 2040 -36 187 188 -187 240 -1350 189z"/>
<path d="M2466 18798 c-856 -82 -1076 -195 -870 -444 102 -122 349 -152 1191 -147 585 4 1311 44 1613 88 326 48 598 42 668 -14 155 -123 756 -63 803 80 55 168 -618 243 -1537 173 -754 -57 -815 -48 -800 123 20 225 -72 237 -1068 141z"/>
<path d="M20475 18826 c-532 -41 -656 -227 -150 -225 420 2 775 99 775 211 0 48 -34 80 -75 70 -41 -10 -289 -35 -550 -56z"/>
<path d="M18975 18729 c-297 -74 -193 -229 153 -229 180 0 431 -73 558 -162 149 -104 265 -127 328 -64 191 191 -638 554 -1039 455z"/>
<path d="M14822 18482 c24 -73 191 -146 371 -164 237 -23 316 4 285 100 -24 73 -191 146 -371 164 -237 23 -316 -4 -285 -100z"/>
<path d="M22400 18500 c0 -55 90 -100 200 -100 110 0 200 45 200 100 0 55 -90 100 -200 100 -110 0 -200 -45 -200 -100z"/>
<path d="M16898 18248 c-70 -84 -95 -184 -57 -222 83 -83 382 92 436 256 57 171 -230 145 -379 -34z"/>
<path d="M22886 18162 c-255 -69 -607 -246 -782 -394 -176 -147 -383 -268 -462 -268 -78 0 -142 -47 -142 -104 0 -156 1623 -80 1675 79 23 69 -33 125 -124 125 -103 0 -153 65 -132 173 60 313 1471 443 1859 171 212 -148 222 -144 222 100 0 254 -5 256 -825 249 -454 -3 -1034 -63 -1289 -131z"/>
<path d="M13107 17959 c-179 -216 46 -297 395 -142 164 73 298 166 298 207 0 135 -572 81 -693 -65z"/>
<path d="M13575 17661 c-204 -155 -231 -361 -47 -361 197 0 582 302 518 407 -80 129 -264 111 -471 -46z"/>
<path d="M17153 17505 c-86 -140 35 -175 861 -250 498 -46 787 -34 830 35 74 120 -148 176 -1014 252 -342 29 -646 13 -677 -37z"/>
<path d="M13715 17139 c-289 -202 -150 -377 226 -282 169 42 258 125 239 222 -44 224 -202 245 -465 60z"/>
<path d="M16269 17136 c-132 -133 30 -191 424 -154 224 22 407 79 407 129 0 101 -732 123 -831 25z"/>
<path d="M20074 17140 c-119 -118 28 -240 290 -240 157 0 237 47 212 125 -47 140 -397 221 -502 115z"/>
<path d="M23539 16883 c-105 -170 57 -226 766 -266 467 -27 695 -3 695 72 0 61 -146 112 -325 113 -179 2 -494 42 -701 90 -231 54 -398 50 -435 -9z"/>
<path d="M10517 16628 c-289 -168 -400 -285 -333 -352 114 -114 925 293 992 499 61 187 -175 135 -659 -147z"/>
<path d="M17550 16626 c-1270 -228 -1284 -232 -1189 -322 85 -81 428 -37 1456 186 302 65 584 67 799 5 427 -122 884 -122 884 0 0 85 -191 134 -950 246 -110 16 -560 -35 -1000 -115z"/>
<path d="M13771 16631 c-63 -109 35 -731 115 -729 173 4 302 180 331 449 27 242 -8 305 -183 330 -118 17 -237 -6 -263 -50z"/>
<path d="M20888 16525 c-6 -96 -5 -228 3 -292 8 -65 -34 -148 -94 -185 -121 -74 572 -737 778 -744 173 -6 157 245 -25 396 -82 68 -150 212 -150 319 0 239 130 206 1250 -325 772 -366 1632 -986 1375 -991 -249 -6 -115 -188 359 -493 266 -170 513 -310 550 -310 120 0 68 382 -59 434 -100 40 -100 52 0 58 211 13 140 390 -86 462 -117 36 -555 300 -975 586 -706 480 -2417 1260 -2765 1260 -82 0 -154 -79 -161 -175z"/>
<path d="M2819 16401 c-139 -116 -468 -219 -827 -260 -557 -63 -797 -168 -619 -271 43 -25 379 -7 749 38 696 86 1178 313 1178 554 0 193 -208 167 -481 -61z"/>
<path d="M4458 16014 c-39 -64 -12 -136 61 -160 479 -164 3281 -316 3281 -178 0 249 -3196 573 -3342 338z"/>
<path d="M19373 15991 c-97 -57 -262 -76 -367 -43 -241 77 -722 -41 -649 -159 30 -49 150 -89 266 -89 115 0 186 -24 157 -53 -70 -70 -548 -136 -1555 -213 -454 -35 -825 -102 -825 -149 0 -112 457 -107 1714 19 1260 126 1399 165 1364 379 -23 135 71 173 497 197 289 17 525 73 525 125 0 127 -904 116 -1127 -14z"/>
<path d="M24325 16029 c-243 -46 -313 -229 -87 -229 297 0 762 130 762 213 0 88 -267 95 -675 16z"/>
<path d="M10819 15539 c-230 -138 -419 -315 -419 -395 0 -79 26 -144 57 -144 124 0 943 524 943 604 0 191 -185 171 -581 -65z"/>
<path d="M24700 15512 c0 -48 68 -144 150 -212 125 -104 150 -90 150 88 0 122 -64 212 -150 212 -82 0 -150 -39 -150 -88z"/>
<path d="M20650 15100 c-34 -55 62 -329 215 -609 220 -405 386 -564 812 -780 l536 -270 -1032 -12 c-1488 -16 -3914 -224 -4031 -346 -69 -72 331 -81 1300 -30 2352 125 3277 121 3625 -15 179 -70 325 -175 325 -233 0 -136 -230 -135 -366 1 -58 58 -348 91 -645 73 l-539 -33 300 -139 c298 -138 295 -139 -450 -248 -435 -63 -729 -151 -700 -209 65 -130 836 -86 1888 107 461 85 900 131 975 102 208 -80 164 -259 -63 -259 -110 0 -200 -37 -200 -83 0 -45 360 -138 800 -205 440 -67 956 -188 1147 -267 191 -80 371 -145 400 -145 29 0 53 263 53 584 l0 584 -605 183 c-332 101 -628 221 -656 266 -28 46 -194 83 -370 83 -207 0 -438 102 -660 292 -187 160 -457 349 -600 420 -281 139 -909 687 -909 793 0 36 338 43 750 17 640 -41 750 -25 750 111 0 249 -355 397 -594 248 -156 -98 -269 -98 -534 -3 -408 148 -838 158 -922 22z m3100 -2900 c193 -83 192 -86 -19 -93 -121 -4 -247 38 -281 93 -73 118 25 118 300 0z"/>
<path d="M10663 14842 c-157 -139 -258 -281 -223 -315 76 -76 580 284 637 454 63 189 -104 133 -414 -139z"/>
<path d="M12100 14708 c0 -50 -157 -240 -350 -422 -412 -389 -435 -486 -112 -486 279 0 811 628 724 855 -61 159 -262 200 -262 53z"/>
<path d="M22036 14449 c-72 -187 111 -420 398 -507 119 -36 306 -147 416 -246 110 -100 560 -302 1000 -449 440 -147 882 -312 983 -365 154 -82 178 -63 150 120 -26 175 -180 264 -769 451 -404 128 -832 317 -950 421 -118 103 -339 241 -492 306 -153 65 -304 186 -336 269 -74 195 -325 195 -400 0z"/>
<path d="M7100 14000 c-82 -53 -409 -98 -725 -98 -316 -1 -575 -42 -575 -91 0 -118 -549 -215 -1500 -265 -710 -37 -783 -23 -830 158 -45 173 -88 184 -334 91 -155 -59 -315 -160 -354 -225 -48 -77 -316 -106 -789 -84 -566 26 -707 5 -672 -101 51 -152 819 -271 1429 -221 848 70 2736 142 3503 135 733 -8 824 14 1038 241 331 353 186 703 -191 460z"/>
<path d="M16363 13746 c-598 -130 -1112 -261 -1142 -291 -129 -130 91 -167 397 -67 383 124 2066 349 2582 345 193 -2 840 -13 1439 -24 1364 -27 1617 136 350 226 -1536 109 -2487 59 -3626 -189z"/>
<path d="M19300 12863 c0 -132 513 -269 950 -254 137 5 73 67 -200 196 -475 225 -750 246 -750 58z"/>
<path d="M16150 12635 c-110 -24 -303 -65 -429 -92 -275 -59 -197 -243 103 -243 279 0 876 218 876 320 0 83 -203 88 -550 15z"/>
<path d="M17300 12599 c0 -132 253 -299 455 -299 287 0 871 208 795 283 -78 78 -1250 93 -1250 16z"/>
<path d="M20703 12027 c-135 -26 -352 -130 -481 -231 -196 -155 -352 -176 -943 -131 -883 68 -1805 -36 -1751 -198 27 -81 452 -120 1380 -127 1269 -10 1362 3 1714 236 261 173 465 234 680 202 392 -57 491 92 148 222 -271 103 -328 105 -747 27z"/>
<path d="M17383 11850 c-27 -28 -946 -64 -2041 -81 -1655 -26 -2048 -60 -2320 -204 -445 -235 -315 -407 158 -209 235 98 645 150 1120 143 1841 -29 3300 109 3300 312 0 96 -135 120 -217 39z"/>
<path d="M3700 11661 c0 -298 775 -473 2068 -468 1356 5 2029 128 2291 417 207 229 171 234 -294 40 -527 -220 -2960 -227 -3553 -10 -529 194 -512 193 -512 21z"/>
<path d="M21875 11428 c-305 -46 -361 -174 -117 -267 255 -98 593 -70 722 59 265 265 112 317 -605 208z"/>
<path d="M11425 11334 c-69 -28 -125 -120 -125 -205 0 -120 71 -140 318 -90 375 75 424 112 336 254 -68 111 -310 129 -529 41z"/>
<path d="M23121 11288 c29 -87 337 -181 837 -255 1044 -155 1042 -155 1042 10 0 182 -167 228 -1138 314 -646 56 -779 44 -741 -69z"/>
<path d="M2550 10999 c-73 -118 69 -177 550 -229 192 -21 -125 -45 -706 -54 -753 -11 -1111 -58 -1250 -163 -229 -173 -258 -169 976 -154 1342 17 1856 187 1710 567 -62 161 -1184 190 -1280 33z"/>
<path d="M16886 10952 c-35 -34 -472 -74 -971 -87 -500 -14 -940 -57 -979 -95 -196 -197 217 -232 1989 -170 506 18 782 126 653 256 -82 82 -630 158 -692 96z"/>
<path d="M12167 10833 c-183 -183 16 -233 925 -233 1004 0 1308 49 1308 211 0 102 -2132 124 -2233 22z"/>
<path d="M21000 10815 c0 -194 511 -263 1924 -260 908 2 1340 -31 1275 -96 -162 -162 -114 -259 126 -258 412 3 675 119 675 300 0 225 -339 285 -1650 293 -550 3 -1304 34 -1675 69 -466 43 -675 28 -675 -48z"/>
<path d="M19269 10719 c-320 -20 -468 -71 -440 -150 72 -202 1571 -82 1571 126 0 88 -101 90 -1131 24z"/>
<path d="M9169 10626 c-318 -25 -468 -78 -440 -157 29 -84 335 -111 1031 -93 1118 29 1371 80 1137 228 -143 91 -755 99 -1728 22z"/>
<path d="M12930 10262 c-53 -91 -326 -152 -798 -178 -522 -29 -774 -91 -925 -228 -195 -177 -198 -200 -42 -372 230 -255 435 -230 435 53 0 221 44 239 709 287 709 51 1088 238 947 466 -93 150 -230 138 -326 -28z"/>
<path d="M14100 10162 c0 -243 233 -343 1066 -457 677 -93 938 -85 1549 48 1308 284 1485 296 1485 98 0 -148 51 -163 325 -95 179 44 685 92 1125 106 440 13 860 28 933 31 234 12 60 257 -191 269 -133 7 -745 42 -1361 79 -960 57 -1236 36 -1950 -147 -972 -251 -2048 -228 -2201 46 -114 204 -780 223 -780 22z"/>
<path d="M21200 10100 c0 -62 552 -100 1456 -100 945 0 1434 35 1394 100 -36 59 -634 100 -1456 100 -863 0 -1394 -38 -1394 -100z"/>
<path d="M24200 9777 c-412 -40 -1369 -56 -2125 -34 -1546 43 -1939 -86 -600 -198 840 -70 3404 0 3499 96 153 153 -116 200 -774 136z"/>
<path d="M13325 9575 c23 -69 124 -125 225 -125 101 0 202 56 225 125 26 79 -56 125 -225 125 -169 0 -251 -46 -225 -125z"/>
<path d="M24350 8054 c-275 -71 -1062 -204 -1750 -298 -2120 -287 -2623 -393 -2737 -576 -166 -266 -3 -322 306 -104 278 195 665 280 1731 378 1320 121 3024 466 3075 621 49 147 28 146 -625 -21z"/>
<path d="M20017 3969 c-119 -128 -217 -263 -217 -300 0 -128 405 -70 653 92 135 89 317 133 405 100 233 -90 374 29 235 198 -191 230 -825 176 -1076 -90z"/>
<path d="M23199 3949 c-100 -120 -258 -138 -762 -87 -1006 103 -1884 -300 -1642 -753 94 -176 75 -213 -137 -266 -136 -34 -292 -34 -348 1 -158 97 -589 -45 -655 -217 -78 -203 182 -594 452 -679 287 -91 467 92 295 300 -72 86 -105 182 -74 213 125 125 912 240 1232 181 316 -60 340 -46 340 197 0 189 -52 261 -188 261 -103 0 -243 67 -311 148 -102 123 -77 166 145 250 412 157 872 121 1227 -96 364 -222 627 -175 627 111 0 133 92 210 300 252 329 66 388 180 142 274 -267 103 -511 68 -643 -90z"/>
<path d="M19400 2977 c-787 -344 -1100 -526 -1100 -640 0 -70 -169 -158 -375 -196 -206 -37 -454 -108 -550 -158 -211 -109 -228 -473 -33 -739 181 -247 313 -129 149 133 -210 337 -51 501 561 578 310 38 673 70 806 70 256 0 317 160 131 346 -169 169 -41 289 458 428 249 70 453 166 453 214 0 114 -189 100 -500 -36z"/>
<path d="M24000 3018 c-359 -163 -600 -379 -600 -537 0 -148 101 -168 747 -151 733 20 749 26 810 302 74 335 -39 508 -123 189 -49 -187 -127 -221 -515 -221 -423 0 -443 11 -263 147 107 81 250 148 319 150 69 2 125 48 125 103 0 112 -271 122 -500 18z"/>
<path d="M23410 1472 c181 -138 1190 -106 1190 38 0 49 -304 89 -675 87 -552 -3 -646 -26 -515 -125z"/>
<path d="M18100 1331 c0 -186 250 -331 570 -331 227 0 330 -47 330 -150 0 -180 466 -200 1025 -45 674 187 487 321 -625 446 -302 34 -719 86 -925 116 -206 30 -375 13 -375 -36z"/>
</g>
</svg>