<svg xmlns="http://www.w3.org/2000/svg" version="1.0" width="250" height="250" viewBox="0 0 250.000000 250.000000" preserveAspectRatio="xMidYMid meet">
<metadata>
Created by potrace 1.10, written by Peter Selinger 2001-2011
</metadata>
<g transform="translate(0.000000,250.000000) scale(0.010000,-0.010000)" fill="#555555" stroke="none">
<path d="M114 23225 c5 -976 -1 -1820 -13 -1875 -12 -55 -8 -865 8 -1800 52 -3005 48 -3393 -45 -3781 -56 -232 -55 -418 1 -474 54 -54 60 -486 15 -1052 -48 -598 -40 -1031 21 -1146 66 -123 66 -206 -1 -247 -125 -77 -134 -1550 -9 -1550 54 0 71 -2293 43 -5650 l-48 -5650 256 0 255 0 -26 2446 c-15 1345 3 2526 39 2625 121 329 225 -562 233 -1995 5 -1001 41 -1387 132 -1422 151 -58 172 -1013 25 -1104 -55 -34 -100 -172 -100 -306 0 -192 52 -244 244 -244 333 0 370 98 259 684 -94 498 -170 1500 -246 3266 -22 495 -89 1028 -150 1185 -158 411 -215 1834 -86 2150 60 146 99 704 86 1240 -15 646 14 975 85 975 67 0 111 -277 115 -725 4 -399 18 -905 31 -1125 12 -220 -17 -710 -65 -1088 -98 -772 -23 -949 323 -764 200 107 216 187 204 1034 -8 505 33 1211 91 1568 58 358 106 886 107 1175 1 291 48 525 105 525 68 0 82 -591 41 -1780 -55 -1573 -43 -1796 101 -1916 341 -283 404 11 423 1976 9 1028 32 1960 50 2070 24 154 -17 193 -179 171 -136 -19 -270 61 -377 225 -104 159 -259 254 -414 254 -137 0 -248 45 -248 100 0 191 -204 98 -498 -225 l-296 -325 -3 518 c-3 432 30 529 197 582 271 86 251 195 -63 338 -232 106 -255 160 -203 482 107 663 492 661 1090 -4 205 -229 535 -583 733 -787 198 -204 331 -417 297 -473 -35 -56 -10 -201 54 -321 67 -125 113 -587 106 -1072 -7 -558 34 -923 122 -1057 212 -327 246 -710 145 -1627 -101 -923 -27 -1175 272 -926 133 110 177 111 243 3 166 -267 354 -46 357 420 2 308 65 528 193 670 170 187 192 381 198 1752 3 885 49 1584 106 1642 67 67 97 -640 92 -2120 -5 -1221 -21 -2265 -37 -2320 -61 -213 2 -350 162 -350 91 0 142 -24 112 -54 -82 -83 -1585 -148 -1853 -81 -165 41 -226 119 -205 263 42 296 -202 331 -276 39 -34 -137 -148 -271 -253 -298 -214 -56 -236 -147 -90 -369 83 -127 112 -129 188 -10 72 111 173 118 500 35 237 -60 560 -70 763 -24 194 43 522 57 728 29 226 -30 527 12 752 106 216 91 498 133 665 99 406 -81 925 160 863 401 -32 125 16 203 145 237 107 28 194 111 194 185 0 74 88 182 195 239 165 89 187 178 140 579 -45 382 76 1269 269 1974 27 99 8 164 -255 850 -74 193 -158 586 -187 875 -50 501 -42 525 185 525 527 0 515 53 499 -2308 -11 -1510 -52 -2238 -131 -2317 -63 -63 -115 -376 -115 -695 0 -319 -23 -580 -51 -580 -29 0 -140 55 -248 122 -154 97 -222 97 -318 1 -96 -96 -81 -153 72 -265 183 -134 193 -258 167 -2025 -15 -1036 -37 -2063 -50 -2283 -18 -332 9 -397 159 -385 122 10 251 -129 395 -425 156 -321 273 -440 433 -440 121 0 246 68 277 150 39 101 -5 150 -133 150 -126 0 -232 116 -314 343 -68 189 -206 364 -307 391 -128 33 -182 142 -182 369 0 270 23 302 146 201 211 -176 375 -27 308 281 -91 420 106 2796 246 2965 100 120 98 182 -7 309 -237 285 -392 -104 -400 -1003 -4 -443 -41 -1008 -81 -1256 l-73 -450 -77 323 c-71 300 13 2525 100 2619 21 23 136 49 255 57 185 14 243 130 399 809 101 435 205 888 232 1004 52 224 518 383 801 275 232 -90 213 -1319 -24 -1494 -163 -121 -164 -149 -14 -399 115 -192 137 -346 77 -532 -163 -502 -588 -3202 -588 -3730 1 -357 67 -641 203 -863 111 -182 175 -373 143 -425 -32 -52 12 -94 98 -94 201 0 204 384 7 764 -213 407 -191 1614 49 2736 110 515 200 1052 201 1193 0 141 60 372 133 512 181 347 285 1272 151 1354 -61 38 -80 234 -46 478 32 227 10 593 -49 813 -173 646 -319 1655 -249 1724 168 168 382 -290 415 -888 19 -350 99 -877 177 -1171 79 -294 121 -621 93 -725 -62 -240 141 -252 217 -13 31 98 191 325 356 506 327 357 376 562 167 687 -73 44 -285 373 -470 730 -185 358 -508 894 -716 1191 -209 298 -380 584 -380 637 0 52 -259 351 -576 664 -419 414 -704 604 -1050 701 -531 149 -595 266 -221 408 303 115 430 386 237 505 -101 63 -109 115 -28 196 81 81 167 15 321 -246 116 -196 255 -356 310 -356 56 0 77 -61 48 -136 -29 -76 87 -254 260 -399 172 -145 283 -310 247 -368 -73 -118 121 -397 275 -397 54 0 72 68 41 150 -43 112 15 150 227 150 244 0 348 -99 712 -675 234 -371 503 -789 598 -928 385 -565 614 -1125 555 -1359 -48 -192 -21 -238 142 -238 124 0 203 67 205 175 8 418 589 809 1594 1070 493 129 436 31 1106 1895 157 435 351 857 433 939 131 131 167 86 306 -384 170 -573 220 -1530 59 -1130 -48 118 -135 244 -194 281 -59 36 -107 224 -107 418 0 490 -240 387 -282 -122 -18 -215 -98 -464 -178 -552 -179 -199 -469 -1542 -387 -1799 33 -104 -11 -289 -97 -412 -128 -183 -156 -192 -156 -51 0 180 -247 238 -345 80 -95 -154 130 -608 302 -608 89 0 185 -90 214 -200 85 -324 229 -229 229 150 0 465 149 442 406 -62 269 -526 159 -673 -379 -506 -349 109 -408 96 -789 -171 -283 -198 -491 -273 -666 -240 -196 38 -354 -43 -688 -352 -239 -221 -517 -543 -619 -717 -181 -310 -181 -317 15 -368 179 -47 194 -112 145 -653 -40 -444 -19 -623 80 -684 75 -46 171 -62 215 -35 111 69 101 514 -13 584 -102 63 -32 702 107 973 52 101 47 194 -14 231 -164 101 -116 245 169 509 198 183 337 234 531 191 185 -41 348 9 548 166 227 179 428 228 987 241 637 15 724 43 922 291 184 231 214 377 186 911 -18 349 1 656 43 682 103 64 14 759 -97 759 -187 0 -81 379 121 432 185 48 206 115 175 561 -19 279 -3 507 35 507 193 0 274 -1854 141 -3187 -68 -676 -59 -829 48 -793 242 80 310 716 264 2480 -51 1972 -201 2761 -520 2733 -178 -16 -442 215 -450 394 -2 42 105 50 236 17 138 -35 270 -10 312 58 94 151 -293 545 -444 452 -118 -73 -1207 -2184 -1207 -2340 0 -49 -75 -264 -166 -477 -161 -374 -169 -378 -232 -137 -89 345 131 1460 332 1683 91 100 167 292 168 425 1 133 126 490 278 792 231 461 324 555 573 579 531 53 623 116 403 278 -279 206 -502 177 -768 -99 -274 -285 -388 -248 -387 123 1 240 63 288 575 446 316 97 642 177 724 178 226 2 527 265 475 414 -26 72 -11 228 33 346 44 118 52 242 19 275 -98 97 -427 -254 -427 -455 0 -226 -40 -229 -354 -23 -276 180 -322 338 -98 338 81 0 218 107 304 239 135 206 202 228 503 160 402 -91 535 27 253 224 -124 87 -165 184 -114 267 44 72 46 281 5 465 -73 324 -44 445 106 445 166 0 409 -747 409 -1255 0 -406 37 -545 143 -545 260 0 186 1089 -111 1648 -140 263 -232 499 -206 526 91 90 674 -397 767 -642 51 -135 93 -403 93 -597 0 -234 41 -338 123 -311 67 23 124 150 125 284 2 210 49 242 352 242 295 0 355 -38 384 -244 21 -147 -33 -294 -135 -369 -233 -170 -100 -337 270 -337 381 0 1080 -194 1281 -355 83 -66 360 -151 616 -188 408 -58 485 -39 620 153 95 136 132 327 96 505 -72 359 127 384 286 35 126 -275 382 -340 382 -96 0 85 -95 282 -210 439 -196 265 -373 1201 -386 2044 -3 248 17 270 150 159 247 -204 374 15 209 361 -170 358 -285 943 -185 943 41 0 130 -90 199 -200 68 -110 186 -200 262 -200 233 0 365 -517 338 -1324 -15 -426 -52 -774 -83 -775 -31 -1 -114 226 -186 504 -97 379 -170 497 -294 471 -181 -37 -181 -13 13 -1076 75 -412 178 -750 230 -750 51 0 150 158 221 350 l127 350 -40 -475 c-38 -448 -26 -475 203 -475 435 0 1116 -216 1291 -410 95 -105 228 -190 296 -190 85 0 146 -315 196 -1018 40 -559 107 -1136 149 -1281 86 -300 515 -801 686 -801 140 0 143 -102 11 -300 -88 -131 -114 -128 -204 25 -57 96 -160 175 -229 175 -257 0 -653 540 -661 900 -4 193 -32 791 -62 1331 -58 1038 -174 1202 -398 563 -100 -286 -133 -313 -195 -163 -41 100 -25 290 35 422 122 268 -21 449 -209 261 -135 -135 -369 -798 -376 -1064 -4 -197 -6 -197 -151 -6 -81 107 -147 277 -147 378 0 244 -298 352 -439 161 -61 -83 -212 -204 -336 -270 -274 -146 -304 -439 -41 -394 244 41 1189 -698 1652 -1293 962 -1236 1139 -1497 1205 -1776 40 -165 186 -466 325 -670 140 -203 315 -541 390 -750 124 -350 136 -255 140 1189 2 943 -36 1594 -96 1631 -55 34 -99 160 -98 281 1 178 19 191 98 69 67 -103 97 123 98 725 2 809 -13 875 -198 875 -133 0 -200 67 -200 200 0 247 -155 260 -292 25 -81 -140 -104 -145 -112 -25 -25 359 -112 659 -251 872 -97 148 -110 228 -36 228 71 0 89 94 49 255 -59 234 -47 246 144 144 115 -61 197 -188 184 -280 -45 -303 243 -919 428 -919 267 0 298 140 135 602 -188 533 -188 698 -1 698 125 0 145 303 133 2050 -8 1128 -37 2050 -65 2050 -28 0 -130 -72 -227 -160 -165 -149 -209 -127 -637 313 -437 450 -451 482 -290 660 93 103 270 187 394 187 162 0 255 88 334 315 132 378 138 485 26 485 -46 0 -138 -119 -205 -265 -85 -188 -152 -234 -227 -159 -76 76 -46 173 104 335 224 240 251 316 149 419 -100 99 -437 -121 -437 -285 0 -109 -67 -132 -250 -86 -300 75 -356 -189 -75 -348 162 -92 163 -112 12 -265 -129 -130 -207 -142 -369 -56 -113 61 -281 110 -374 110 -138 0 -146 -27 -44 -150 270 -325 -121 -142 -457 214 -346 368 -467 878 -226 958 149 50 -279 463 -617 595 l-250 99 250 189 c424 323 700 598 700 699 0 146 -160 115 -305 -61 -162 -194 -633 -443 -840 -443 -85 0 -155 68 -155 150 0 83 87 150 194 150 225 0 789 450 689 550 -37 37 -199 -30 -361 -149 -357 -265 -888 -249 -843 24 23 135 -40 175 -275 175 -360 0 -367 -30 -97 -410 188 -264 193 -305 50 -447 -177 -178 -208 -500 -56 -593 91 -57 126 1 262 443 30 97 186 -17 480 -350 333 -378 490 -678 668 -1282 253 -862 389 -1061 724 -1061 121 0 323 -72 449 -160 212 -149 216 -168 53 -287 -358 -262 -347 -1851 15 -1990 195 -75 187 -689 -15 -1213 -85 -220 -184 -553 -221 -740 -53 -273 -88 -313 -178 -200 -68 85 -139 916 -181 2123 -68 1947 -66 1983 137 2036 310 81 248 302 -99 353 -377 55 -495 -127 -495 -765 0 -440 -110 -584 -260 -342 -74 120 -247 1752 -255 2410 -5 410 -120 484 -281 182 -149 -277 -128 -628 50 -883 116 -165 129 -269 50 -416 -57 -107 -104 -333 -104 -501 0 -512 -172 -343 -245 240 -80 638 -547 1267 -790 1065 -73 -60 -162 -81 -198 -46 -35 35 -125 -81 -200 -259 l-136 -324 -123 297 c-163 394 -744 1020 -946 1020 -247 0 -193 -257 92 -444 328 -214 481 -604 341 -865 -74 -138 -68 -432 19 -1004 134 -876 295 -1071 587 -710 l170 209 199 -266 c182 -243 222 -256 472 -142 349 159 524 61 311 -174 -120 -133 -143 -281 -93 -596 39 -241 22 -513 -40 -639 -58 -120 -182 -388 -275 -594 -92 -206 -208 -375 -256 -375 -85 0 -98 88 -139 900 -37 730 -54 800 -189 800 -169 0 -258 -210 -269 -633 -7 -267 -38 -222 -200 283 -293 920 -307 950 -436 950 -122 0 -144 -194 -158 -1350 -7 -576 -13 -590 -149 -338 -78 145 -223 284 -321 310 -258 68 -391 418 -523 1378 -208 1515 -397 2085 -829 2500 -213 205 -488 519 -612 700 -127 186 -373 375 -569 438 -364 118 -445 290 -163 344 92 18 336 -106 541 -275 357 -294 727 -405 727 -218 0 48 -164 166 -364 261 l-363 172 56 739 c30 407 21 739 -21 739 -42 0 -132 -250 -201 -556 -130 -584 -326 -768 -563 -531 -120 120 -120 179 0 409 170 327 96 678 -143 678 -198 0 -298 -419 -300 -1263 -1 -318 -55 -557 -142 -630 -191 -158 -259 -25 -295 581 -25 413 2 506 153 545 101 27 183 139 183 249 0 395 -111 518 -469 518 -333 0 -344 -12 -281 -300 36 -165 29 -299 -17 -297 -166 7 -546 394 -485 494 41 66 -126 103 -458 103 l-521 0 191 -211 c104 -115 357 -295 560 -399 386 -197 573 -515 925 -1575 97 -291 239 -553 315 -583 77 -29 140 -172 140 -318 0 -275 353 -1300 500 -1451 46 -48 62 -145 35 -216 -27 -71 66 -374 208 -673 316 -668 334 -974 57 -974 -207 0 -276 -241 -100 -350 55 -34 100 -191 100 -349 0 -159 38 -392 85 -519 47 -128 116 -355 152 -506 58 -239 39 -271 -151 -250 -170 19 -237 -48 -305 -301 -65 -244 -142 -325 -309 -323 -122 0 -267 34 -323 75 -128 93 -314 650 -400 1197 -78 500 -205 612 -433 385 -154 -154 -139 -217 209 -893 206 -400 375 -824 375 -941 0 -117 45 -241 100 -275 148 -92 121 -421 -40 -482 -185 -71 -260 14 -260 299 0 128 -40 233 -89 233 -116 0 -227 -443 -156 -626 30 -78 -23 -205 -117 -283 -156 -129 -165 -116 -100 146 66 265 54 283 -167 227 -223 -56 -240 -31 -255 382 l-17 442 338 -55 c425 -69 552 107 286 399 -109 120 -228 387 -265 593 -42 235 -123 375 -216 375 -81 0 -174 68 -206 150 -31 83 -118 150 -191 150 -110 0 -123 -471 -74 -2628 47 -2087 32 -2679 -74 -2875 -76 -142 -152 -703 -178 -1322 -24 -591 -80 -1075 -124 -1075 -44 0 -290 -161 -547 -357 -257 -196 -476 -342 -486 -325 -10 18 -95 201 -188 407 l-171 375 249 0 c291 0 309 67 81 319 -93 102 -187 416 -212 708 -40 464 -84 548 -390 748 -374 244 -584 282 -681 125 -42 -67 -124 -67 -249 0 -104 55 -259 100 -347 100 -261 0 -1136 713 -1203 981 -97 387 102 498 398 220 l251 -236 0 280 c0 237 23 261 150 155 83 -68 150 -279 150 -469 0 -422 154 -731 364 -731 112 0 136 51 83 175 -41 96 -112 423 -159 725 -72 474 -37 730 258 1850 316 1206 341 1260 333 750 -4 -302 24 -690 62 -862 58 -262 36 -321 -137 -366 -190 -50 -202 -112 -163 -838 54 -981 101 -1097 521 -1296 275 -131 368 -138 491 -35 136 112 136 144 0 294 -84 93 -148 300 -143 461 l11 292 114 -350 c158 -481 262 -622 418 -563 257 99 459 -406 436 -1092 -11 -356 8 -675 43 -710 109 -110 370 179 291 321 -41 73 -38 754 7 1514 116 1953 56 4256 -117 4464 -177 214 -255 155 -532 -403 -191 -384 -237 -426 -264 -242 -46 312 -244 211 -386 -197 l-120 -342 -5 358 c-7 422 -87 533 -272 379 -146 -121 -177 -16 -76 249 47 123 106 131 301 42 133 -61 267 -85 298 -54 114 114 -212 476 -429 476 -293 0 -541 -500 -769 -1550 -251 -1155 -353 -1326 -299 -500 84 1277 233 1963 494 2274 136 160 246 328 246 374 0 45 214 101 475 124 424 37 515 6 848 -288 205 -181 435 -306 510 -277 76 30 199 236 272 459 152 458 366 596 545 350 137 -187 350 -222 350 -58 0 59 -135 242 -300 407 -260 260 -300 373 -300 843 0 584 23 606 428 417 176 -82 251 -181 218 -286 -36 -113 127 -278 542 -550 584 -383 594 -397 661 -957 38 -312 41 -657 6 -766 -81 -254 83 -361 248 -162 93 112 109 397 61 1069 -68 970 -186 1250 -402 958 -114 -154 -163 -134 -530 212 -322 303 -385 416 -308 553 85 153 119 137 285 -136 340 -559 589 -345 288 246 -193 379 -182 939 12 632 49 -76 89 -259 89 -407 1 -148 51 -299 111 -336 671 -416 -564 3173 -1459 4237 -281 333 -847 560 -1254 503 -203 -29 -240 -83 -214 -310 23 -197 -12 -275 -124 -275 -86 0 -288 -182 -449 -404 -230 -317 -301 -366 -331 -225 -62 291 98 864 278 995 154 114 153 151 -20 526 -112 243 -255 404 -361 405 -213 4 -215 -29 -26 -396 145 -280 116 -601 -55 -601 -47 0 -199 52 -339 116 -287 130 -817 -34 -704 -218 35 -56 108 -74 162 -40 55 34 255 33 443 -3 294 -55 343 -104 338 -335 -7 -266 -8 -267 -99 -39 -149 371 -294 154 -309 -462 -7 -313 -33 -456 -58 -319 -73 411 -462 667 -1129 742 -329 37 -599 109 -599 159 0 144 357 299 688 299 399 0 488 167 130 246 -501 110 -1252 -369 -1700 -1085 -211 -336 -412 -690 -447 -786 -36 -96 -111 -175 -167 -175 -119 0 -404 -642 -404 -912 0 -302 -149 -217 -286 162 -128 353 -249 436 -365 248 -100 -162 -249 -8 -249 258 0 256 -244 343 -334 119 -28 -69 -54 -24 -58 100 -12 338 -278 271 -395 -100 -202 -638 -240 -1072 -108 -1231 106 -127 72 -289 -198 -942 -322 -780 -324 -792 -141 -1044 203 -281 501 -300 455 -29 -20 112 36 171 163 171 263 0 360 -494 131 -668 -202 -153 -315 -165 -315 -32 0 55 -69 100 -153 100 -129 0 -141 -86 -75 -525 75 -503 63 -3593 -17 -4425 -59 -605 -702 -2938 -849 -3077 -105 -100 -116 -19 -63 433 38 314 22 673 -36 825 -87 229 -76 269 75 269 290 0 441 211 251 350 -119 87 -157 270 -146 708 11 487 53 621 238 761 216 162 225 232 225 1650 0 1941 -395 3795 -623 2924 -41 -159 -108 -194 -284 -150 -127 32 -259 13 -293 -43 -93 -151 -250 -120 -250 50 0 196 -289 194 -365 -3 -45 -117 -90 -126 -196 -38 -170 142 -94 275 229 398 182 69 342 50 594 -69 402 -191 519 -129 356 187 -64 124 -140 540 -169 925 -56 739 -232 1842 -317 1978 -27 45 -113 29 -191 -35 -114 -95 -141 -75 -141 103 0 279 -208 221 -374 -104 -117 -230 -123 -221 -125 172 -1 296 47 433 166 479 117 45 135 95 60 170 -246 246 -796 -337 -676 -716 34 -107 27 -251 -15 -320 -53 -85 -97 -46 -139 124 -35 144 -128 244 -220 237 -186 -15 -254 299 -273 1271 -10 466 29 694 131 779 80 66 173 230 207 365 78 313 509 439 734 214 145 -145 136 -167 -104 -259 -296 -112 -521 -487 -625 -1036 -57 -304 -40 -372 92 -372 97 0 161 84 161 210 0 115 73 363 161 550 129 271 220 340 450 340 310 0 319 22 332 850 6 329 45 405 220 430 272 39 537 -226 537 -537 0 -319 136 -308 384 32 110 151 228 247 262 213 98 -98 -376 -766 -584 -824 -144 -40 -172 -106 -118 -283 165 -542 587 -2070 699 -2531 122 -498 277 -641 340 -314 18 95 -101 632 -264 1193 -453 1550 -459 1604 -218 1822 209 189 209 189 104 -87 -149 -392 -130 -664 45 -664 92 0 150 94 150 244 0 134 45 272 100 306 55 34 100 145 100 246 0 105 151 274 350 391 337 199 464 413 244 413 -58 0 -78 45 -44 100 127 206 520 90 850 -250 187 -192 375 -350 420 -350 190 0 54 346 -260 660 -289 289 -409 340 -806 340 -256 0 -441 -40 -410 -90 108 -175 -269 -214 -396 -41 -108 148 -165 155 -398 49 -198 -90 -308 -94 -403 -15 -72 60 -349 95 -614 78 -411 -26 -488 -64 -514 -252 -27 -186 -78 -212 -319 -164 -202 40 -376 -6 -584 -154 -163 -116 -324 -211 -358 -211 -33 0 -32 180 4 400 60 380 51 400 -196 400 l-260 0 8 -1775z m3836 1075 c-100 -110 -226 -200 -281 -200 -55 0 -19 90 81 200 100 110 226 200 281 200 55 0 19 -90 -81 -200z m7850 -600 c0 -110 -17 -200 -38 -200 -21 0 -62 90 -91 200 -29 110 -11 200 38 200 50 0 91 -90 91 -200z m621 -300 c30 -205 2 -300 -88 -300 -81 0 -133 117 -133 300 0 165 40 300 89 300 48 0 108 -135 132 -300z m-4904 -132 c-258 -275 -168 -445 104 -199 178 161 776 201 1182 78 195 -59 497 -565 497 -832 0 -257 -195 -385 -308 -203 -167 267 -438 -44 -497 -572 -54 -475 -119 -458 -234 60 -60 270 -542 559 -688 413 -48 -48 -147 -307 -221 -575 -90 -328 -137 -406 -144 -238 -19 457 -128 711 -292 679 -86 -16 -182 -134 -212 -260 -30 -127 -99 -228 -154 -225 -167 10 -168 174 -2 340 87 87 220 334 296 550 183 517 628 1216 775 1216 64 0 18 -105 -102 -232z m4078 -593 c364 -1129 488 -1753 560 -2829 94 -1389 -146 -2595 -455 -2286 -54 54 -123 750 -151 1545 -68 1884 -223 3143 -452 3669 -172 395 -173 430 -16 521 93 55 194 100 224 102 31 2 161 -323 290 -722z m3505 227 c0 -54 124 -129 275 -166 332 -81 1376 -1096 1452 -1411 30 -124 36 -225 14 -225 -131 0 -579 500 -695 775 -95 228 -202 325 -358 325 -122 0 -305 74 -405 165 -170 154 -196 154 -366 0 -100 -91 -208 -165 -238 -165 -104 0 -148 480 -58 640 97 174 379 220 379 62z m-2260 -261 c68 -177 -2 -341 -146 -341 -52 0 -94 113 -94 250 0 280 146 335 240 91z m-3018 -2741 c6 -1851 -57 -2378 -338 -2855 -118 -199 -230 -659 -284 -1162 -50 -458 -121 -1114 -159 -1458 -65 -589 -167 -782 -262 -500 -23 69 -53 435 -67 815 -19 484 13 713 105 771 105 64 106 106 7 205 -173 173 -155 689 29 824 136 99 136 164 1 611 -84 274 -151 657 -150 849 2 329 11 339 149 156 81 -107 147 -347 147 -533 0 -486 228 -362 342 185 51 243 136 471 188 506 53 35 61 120 18 189 -84 137 -47 2865 52 3747 69 622 217 -941 222 -2350z m978 2406 c0 -52 -45 -122 -100 -156 -55 -34 -100 8 -100 94 0 86 45 156 100 156 55 0 100 -42 100 -94z m2600 -262 c0 -24 -70 -44 -156 -44 -86 0 -128 46 -93 102 57 92 249 48 249 -58z m6732 -569 c81 -289 174 -727 208 -975 l63 -450 -204 314 c-190 291 -412 1636 -271 1636 32 0 124 -236 204 -525z m-4366 268 c93 -241 -91 -348 -316 -182 -171 126 -178 160 -50 241 212 134 298 121 366 -59z m-4575 -1293 c4 -293 -20 -360 -91 -250 -53 83 -92 465 -86 850 11 672 14 682 91 250 44 -247 83 -630 86 -850z m-591 430 c0 -206 -34 -286 -97 -223 -53 53 -70 197 -38 320 82 315 135 277 135 -97z m5800 -24 c0 -467 -145 -524 -273 -108 -110 358 -81 452 140 452 85 0 133 -124 133 -344z m-657 -668 c-93 -150 -289 -98 -421 113 -104 167 -96 246 46 462 l171 261 129 -373 c71 -206 105 -414 75 -463z m-9893 212 c131 0 266 -45 300 -100 94 -153 421 -119 486 50 32 83 30 229 -5 325 -34 96 38 51 161 -100 122 -151 301 -275 397 -275 125 0 226 -164 355 -575 100 -316 243 -664 319 -772 225 -323 177 -463 -120 -351 -141 54 -394 98 -562 98 -256 0 -286 24 -185 146 147 177 39 389 -160 313 -82 -32 -172 19 -209 118 -143 383 -629 536 -1027 323 -125 -67 -275 -67 -451 1 -315 119 -491 36 -765 -359 l-203 -292 60 491 c77 634 348 1099 664 1142 135 19 287 74 337 123 55 53 149 8 231 -109 76 -108 246 -197 377 -197z m17750 150 c0 -82 -45 -150 -100 -150 -55 0 -100 68 -100 150 0 83 45 150 100 150 55 0 100 -67 100 -150z m-10579 -350 c25 -165 7 -300 -38 -300 -46 0 -83 64 -83 142 0 78 -27 213 -61 300 -33 87 -16 158 39 158 55 0 119 -135 143 -300z m3845 -25 c-28 -69 -50 -12 -50 125 0 138 22 194 50 125 28 -69 28 -181 0 -250z m-6269 150 c-7 -143 -402 -553 -469 -486 -37 37 43 175 177 308 275 271 296 284 292 178z m5303 -823 c0 -536 84 -702 355 -702 128 0 261 -45 295 -100 34 -55 183 -100 331 -100 269 -1 912 -329 927 -474 4 -42 19 -211 33 -376 14 -165 60 -379 103 -475 44 -99 36 -175 -18 -175 -132 0 -926 583 -926 679 0 57 -1065 671 -1163 671 -7 0 -45 354 -84 787 -52 561 -41 767 37 719 61 -37 110 -241 110 -454z m-4965 99 c106 -213 117 -319 38 -368 -61 -38 -128 -18 -149 44 -20 61 -102 87 -180 57 -169 -65 -187 100 -40 373 135 253 155 247 331 -106z m-2035 -457 c0 -165 -158 -193 -250 -44 -82 132 38 319 157 246 51 -32 93 -123 93 -202z m-6500 -256 c0 -49 -110 -88 -245 -88 -450 0 -759 -230 -1133 -843 l-372 -607 -32 385 c-20 246 25 447 125 558 87 95 157 265 157 378 0 298 192 412 753 448 483 30 747 -52 747 -231z m21160 -61 c-33 -33 -56 26 -52 131 5 117 28 141 60 61 29 -72 26 -159 -8 -192z m-13052 -144 c-261 -96 -264 -237 -8 -456 110 -94 200 -213 200 -265 0 -51 -82 -19 -183 73 -100 91 -241 165 -312 165 -92 0 -112 91 -67 313 34 171 62 350 62 397 0 47 116 33 258 -32 249 -114 251 -120 50 -195z m713 -86 c-25 -172 -82 -275 -126 -230 -96 100 -3 650 100 586 39 -24 51 -185 26 -356z m13379 -315 c0 -220 -589 -977 -763 -980 -62 -1 -169 -69 -237 -152 -68 -82 -164 -150 -212 -150 -149 0 -97 303 62 364 83 31 150 154 150 273 0 128 92 256 225 314 148 65 235 201 254 399 55 558 115 625 328 364 106 -130 193 -324 193 -432z m-16696 -120 c279 -117 355 -229 518 -757 148 -483 164 -652 72 -763 -165 -199 -294 -177 -294 50 0 105 -56 212 -125 238 -91 34 -79 84 44 184 212 171 135 650 -127 790 -318 171 -419 -190 -297 -1064 122 -874 135 -1404 34 -1302 -39 39 -95 282 -125 541 -43 368 -93 468 -230 457 -192 -15 -234 115 -69 217 72 44 68 109 -12 206 -93 111 -84 141 43 141 137 0 152 90 98 600 -68 657 -46 679 470 462z m-2600 -170 c61 -114 82 -283 47 -375 -56 -145 -75 -147 -146 -17 -44 83 -112 251 -150 375 -87 286 99 299 249 17z m1394 -682 c85 -500 87 -797 10 -1075 -59 -212 -107 -586 -107 -832 -1 -442 -3 -445 -164 -215 -124 178 -147 358 -99 772 72 614 -68 729 -279 228 l-131 -312 -66 262 c-78 312 -224 341 -312 62 -114 -358 -268 -215 -234 216 20 237 -12 432 -74 452 -116 40 -373 -436 -300 -555 25 -40 8 -133 -38 -206 -105 -171 -158 -10 -334 1018 -144 840 -54 1010 250 474 98 -171 254 -299 365 -299 106 0 218 -64 248 -142 32 -83 135 -121 247 -92 135 35 209 -12 247 -158 64 -243 296 -272 473 -58 95 115 97 183 8 290 -66 80 -89 253 -51 400 42 169 24 260 -52 260 -64 0 -89 45 -55 100 173 280 338 64 448 -590z m13902 190 c0 -195 -51 -300 -145 -300 -117 0 -125 57 -40 300 58 165 123 300 145 300 22 0 40 -135 40 -300z m-19200 50 c0 -82 -44 -150 -97 -150 -53 0 -71 68 -39 150 31 83 75 150 97 150 21 0 39 -67 39 -150z m4435 -97 c31 -81 13 -173 -39 -206 -53 -32 -96 34 -96 147 0 242 56 266 135 59z m-4704 -828 c-33 -371 -121 -764 -196 -872 -87 -128 -135 -497 -135 -1045 0 -619 -30 -818 -110 -738 -68 68 -106 488 -99 1074 10 784 61 1084 272 1610 142 355 274 646 294 646 19 0 8 -304 -26 -675z m23544 500 c24 -73 -44 -125 -167 -125 -123 0 -208 65 -208 157 0 184 312 157 375 -32z m-22310 -1093 c117 -89 128 -161 47 -300 -98 -168 -106 -165 -109 40 -2 155 -48 205 -153 164 -121 -46 -148 35 -141 428 l9 486 97 -350 c54 -193 166 -403 250 -468z m18074 410 c94 -244 74 -696 -26 -587 -125 137 -224 745 -121 745 48 0 114 -71 147 -158z m-1739 -92 c0 -82 -17 -150 -38 -150 -21 0 -94 68 -162 150 -102 123 -95 150 38 150 89 0 162 -67 162 -150z m-15900 -1120 c0 -274 -29 -341 -113 -257 -63 63 -84 224 -48 370 92 366 161 318 161 -113z m2071 -507 c-22 -150 -41 -3 -40 327 1 330 19 453 41 273 23 -180 22 -450 -1 -600z m6929 421 c0 -278 -39 -432 -100 -394 -55 34 -100 239 -100 456 0 217 45 394 100 394 55 0 100 -205 100 -456z m-10407 -575 c-5 -550 -35 -753 -93 -619 -124 288 -124 1577 0 1500 55 -34 97 -430 93 -881z m2074 217 c-57 -479 -124 -676 -198 -578 -78 105 62 1092 155 1092 66 0 82 -185 43 -514z m3233 -192 c0 -107 -45 -194 -100 -194 -55 0 -100 115 -100 256 0 145 43 229 100 194 55 -34 100 -149 100 -256z m4800 -300 c0 -52 -45 -94 -100 -94 -55 0 -100 70 -100 156 0 86 45 128 100 94 55 -34 100 -104 100 -156z m-5451 -292 c33 -54 283 -76 557 -49 358 36 566 4 747 -114 235 -154 239 -173 74 -298 -97 -74 -253 -136 -346 -138 -93 -2 -235 -96 -315 -210 -124 -177 -258 -244 -574 -285 -32 -5 -322 -345 -645 -758 -466 -595 -642 -750 -851 -750 -185 0 -298 -75 -379 -253 -63 -139 -184 -279 -268 -311 -129 -50 -142 -234 -86 -1248 59 -1061 47 -1211 -113 -1388 -126 -139 -184 -378 -195 -799 -9 -352 -70 -653 -148 -726 -110 -104 -122 35 -70 809 34 513 93 983 131 1044 84 138 75 1322 -12 1463 -35 56 68 565 230 1131 161 565 323 1199 359 1408 40 230 133 401 236 432 347 107 475 217 690 598 248 438 820 697 978 442z m4276 -826 c29 -379 13 -650 -37 -619 -48 30 -88 352 -88 716 0 829 58 784 125 -97z m-9427 282 c-135 -135 -235 1 -155 210 57 150 81 154 158 30 55 -88 53 -184 -3 -240z m3802 192 c0 -82 -45 -150 -100 -150 -55 0 -100 68 -100 150 0 82 45 150 100 150 55 0 100 -68 100 -150z m6743 -635 c-38 -283 -108 -515 -156 -515 -102 0 -119 1035 -19 1135 156 156 238 -139 175 -620z m-9514 185 c29 -110 11 -200 -38 -200 -50 0 -91 90 -91 200 0 110 17 200 38 200 21 0 62 -90 91 -200z m11783 -67 c-87 -150 -106 -155 -109 -25 -3 169 102 320 173 250 23 -24 -5 -125 -64 -225z m-10922 -758 c-8 -413 -27 -472 -90 -275 -116 362 -116 800 0 800 55 0 96 -235 90 -525z m10370 252 c-33 -33 -56 26 -52 131 5 117 28 141 60 61 29 -72 26 -159 -8 -192z m-6101 -201 c-108 -108 -165 43 -89 235 71 180 76 180 111 6 20 -100 10 -209 -22 -241z m6501 1 c-33 -33 -56 26 -52 131 5 117 28 141 60 61 29 -72 26 -159 -8 -192z m-7260 -27 c0 -55 -48 -100 -106 -100 -58 0 -78 45 -44 100 34 55 82 100 106 100 24 0 44 -45 44 -100z m-236 -1825 c83 -869 -89 -896 -247 -38 -134 731 -148 1099 -44 1203 100 99 214 -358 291 -1165z m2488 250 c246 -280 320 -525 159 -525 -49 0 -118 113 -152 250 -35 138 -129 250 -211 250 -81 0 -148 68 -148 150 0 215 77 187 352 -125z m1970 219 c31 -30 33 -144 5 -252 -49 -187 -58 -188 -186 -19 -74 97 -136 211 -138 252 -4 87 237 102 319 19z m-9059 -369 c-33 -124 -61 -326 -62 -450 0 -139 -62 -225 -162 -225 -115 0 -139 50 -86 175 42 96 97 299 122 450 26 151 93 275 148 275 55 0 73 -101 40 -225z m3654 -175 c-21 -220 -56 -400 -78 -400 -21 0 -39 180 -39 400 0 220 35 400 78 400 42 0 60 -180 39 -400z m1595 -7 c134 -477 90 -2130 -68 -2583 -84 -242 -127 -561 -94 -709 39 -179 7 -312 -96 -397 -84 -71 -154 -279 -154 -463 0 -256 -35 -321 -150 -277 -166 63 -210 536 -50 536 55 0 100 68 100 150 0 83 -67 150 -150 150 -82 0 -150 73 -150 162 0 135 26 141 154 34 259 -214 352 15 281 692 -57 546 -89 621 -250 579 -132 -34 -185 6 -185 142 0 231 9 230 -394 29 -286 -143 -318 -198 -270 -475 130 -746 186 -1963 91 -1963 -121 0 -212 612 -293 1964 l-60 1013 253 -48 c194 -37 269 1 320 161 37 116 131 210 210 210 79 0 177 11 218 25 41 14 98 -132 125 -325 38 -267 98 -350 250 -350 220 0 223 45 92 1387 -54 554 -41 679 68 643 74 -25 165 -154 202 -287z m-6046 -320 c-28 -68 -49 12 -47 177 3 165 25 220 50 123 26 -97 24 -232 -3 -300z m13950 -98 c8 -234 21 -548 28 -698 7 -151 68 -329 134 -395 139 -139 168 -1082 35 -1082 -49 0 -114 132 -147 293 -41 206 -125 302 -287 325 -315 44 -361 496 -86 846 217 276 278 636 107 636 -112 0 -137 330 -33 433 155 155 234 41 249 -358z m-11296 -619 c-23 -196 -82 -356 -131 -356 -101 0 -119 405 -29 641 103 269 203 90 160 -285z m7060 -1542 c94 -268 2 -629 -127 -500 -102 102 -156 786 -62 786 49 0 134 -129 189 -286z m-4380 -270 c0 -134 -45 -244 -100 -244 -55 0 -100 138 -100 306 0 178 42 280 100 244 55 -34 100 -172 100 -306z m2040 -1219 c-75 -627 -119 -750 -239 -675 -112 68 -140 977 -34 1083 36 37 125 67 198 67 98 0 117 -121 75 -475z m-7394 -832 c-86 -139 -146 -113 -146 63 0 86 46 128 102 93 56 -35 75 -105 44 -156z"/>
<path d="M4965 12917 c-197 -218 -210 -318 -40 -314 134 4 575 340 575 438 0 134 -381 46 -535 -124z"/>
<path d="M8300 24900 c0 -55 68 -100 150 -100 83 0 150 45 150 100 0 55 -67 100 -150 100 -82 0 -150 -45 -150 -100z"/>
<path d="M11275 24934 c69 -28 181 -28 250 0 69 28 13 50 -125 50 -137 0 -194 -22 -125 -50z"/>
<path d="M16648 24760 c-215 -327 -243 -810 -48 -810 99 0 152 102 156 300 3 165 61 401 128 525 167 306 -34 294 -236 -15z"/>
<path d="M17663 24775 c-93 -349 -75 -1028 25 -920 125 137 238 1145 127 1145 -50 0 -119 -101 -152 -225z"/>
<path d="M19322 24885 c52 -157 270 -182 296 -35 10 55 -63 116 -162 135 -115 22 -163 -14 -134 -100z"/>
<path d="M22667 24933 c-91 -91 -85 -333 9 -333 42 0 132 90 201 200 101 163 100 200 -9 200 -74 0 -165 -30 -201 -67z"/>
<path d="M23100 24907 c0 -52 46 -215 103 -364 99 -261 108 -264 300 -91 308 279 257 548 -103 548 -165 0 -300 -42 -300 -93z"/>
<path d="M7500 24767 c0 -208 118 -276 266 -154 194 161 165 287 -66 287 -110 0 -200 -60 -200 -133z"/>
<path d="M6397 24618 c-124 -101 -205 -243 -181 -317 31 -93 147 -40 389 180 242 219 296 314 181 316 -90 2 -265 -79 -389 -179z"/>
<path d="M18810 24575 c-124 -328 -301 -1117 -259 -1159 100 -101 241 136 349 584 66 275 161 526 210 556 144 89 104 244 -62 244 -84 0 -191 -101 -238 -225z"/>
<path d="M18178 23875 c-127 -452 -127 -530 -5 -559 79 -18 155 -18 171 0 77 92 135 1084 64 1084 -45 0 -149 -236 -230 -525z"/>
<path d="M19500 24150 c-69 -83 -148 -359 -177 -613 -41 -367 -23 -454 88 -417 79 26 153 214 171 438 18 215 97 428 175 472 79 44 143 123 143 175 0 148 -262 112 -400 -55z"/>
<path d="M22175 24143 c-156 -85 -275 -234 -275 -346 0 -258 118 -249 368 28 430 478 399 585 -93 318z"/>
<path d="M22559 23992 c-269 -320 -327 -492 -164 -492 97 0 605 616 605 734 0 154 -201 44 -441 -242z"/>
<path d="M6561 23942 c-87 -225 -76 -342 32 -342 149 0 414 307 352 408 -90 146 -318 107 -384 -66z"/>
<path d="M17046 23893 c-117 -189 54 -236 228 -62 156 156 156 169 3 169 -91 0 -195 -48 -231 -107z"/>
<path d="M2134 23745 c-32 -85 32 -456 144 -825 196 -647 446 -1842 600 -2862 41 -271 135 -512 209 -537 106 -35 120 49 66 392 -99 635 -339 1901 -560 2960 -106 508 -193 947 -193 975 0 121 -211 39 -266 -103z"/>
<path d="M5070 23447 c-225 -309 -527 -321 -605 -24 -46 175 -85 197 -179 103 -92 -92 -93 -180 -5 -373 132 -291 519 -344 723 -98 70 85 194 129 275 98 80 -31 197 -15 259 36 61 50 224 107 361 126 139 20 264 112 282 210 40 208 -189 231 -495 50 -170 -100 -221 -100 -257 0 -66 182 -156 150 -359 -128z"/>
<path d="M24667 23533 c-113 -112 -74 -233 75 -233 78 0 164 -56 192 -125 28 -69 54 -1 58 150 8 260 -164 369 -325 208z"/>
<path d="M16950 23199 c-35 -55 10 -128 98 -162 88 -34 153 -135 145 -224 -53 -545 100 -876 358 -776 135 51 146 96 55 206 -64 77 -126 290 -139 473 -12 184 -57 390 -100 459 -95 150 -331 164 -417 24z"/>
<path d="M19741 23050 c-90 -359 16 -550 306 -550 181 0 253 54 253 188 0 103 68 244 150 312 249 206 171 300 -248 300 -341 0 -407 -36 -461 -250z"/>
<path d="M6100 23003 c-192 -104 -448 -166 -567 -137 -158 37 -264 -20 -388 -210 -95 -144 -155 -272 -134 -284 22 -13 180 -121 353 -242 331 -231 436 -211 436 82 0 98 180 323 400 500 595 478 540 636 -100 291z"/>
<path d="M3940 22923 c-198 -132 -352 -526 -287 -732 90 -284 291 -182 330 167 18 160 74 335 125 387 193 199 66 335 -168 178z"/>
<path d="M24914 22393 c-13 -239 -539 -818 -832 -916 -65 -21 -84 -93 -43 -159 54 -88 184 -44 469 155 412 290 539 547 464 942 -43 228 -45 228 -58 -22z"/>
<path d="M17936 21775 c136 -707 341 -1322 425 -1275 136 77 79 810 -95 1228 -197 471 -417 502 -330 47z"/>
<path d="M17450 21600 c-34 -55 8 -100 94 -100 86 0 156 45 156 100 0 55 -42 100 -94 100 -52 0 -122 -45 -156 -100z"/>
<path d="M24625 21254 c-255 -255 -282 -354 -97 -354 143 0 472 349 472 501 0 151 -127 101 -375 -147z"/>
<path d="M17536 20749 c-71 -183 21 -735 229 -1380 127 -395 192 -475 367 -450 309 45 313 605 9 1214 -133 266 -241 547 -241 625 0 189 -291 182 -364 -9z"/>
<path d="M19935 19247 c-86 -225 88 -911 215 -847 137 69 106 931 -36 979 -62 20 -143 -39 -179 -132z"/>
<path d="M12900 18715 c0 -132 302 -705 406 -769 217 -134 287 77 130 385 -203 396 -536 635 -536 384z"/>
<path d="M24908 16358 c-4 -105 19 -164 52 -131 34 33 37 120 8 192 -32 80 -55 56 -60 -61z"/>
<path d="M16950 15626 c-110 -28 -327 -157 -483 -288 -155 -131 -322 -238 -371 -238 -49 0 -141 -98 -205 -217 -96 -180 -85 -240 65 -350 299 -219 475 -169 404 115 -53 208 0 289 336 511 220 146 460 241 536 212 185 -71 410 80 325 218 -71 114 -257 126 -607 37z"/>
<path d="M17201 15026 c-263 -104 -723 -626 -662 -753 33 -68 112 -196 176 -284 150 -208 43 -489 -187 -491 -407 -3 -433 -117 -221 -1002 282 -1182 268 -3963 -26 -5069 -37 -140 131 -527 229 -527 53 0 208 73 344 162 264 173 323 396 122 463 -82 27 3 225 251 584 583 848 824 1065 1260 1139 219 37 424 136 456 220 32 84 117 130 188 103 71 -27 239 12 374 86 508 282 522 126 35 -382 -276 -289 -687 -777 -913 -1084 -225 -308 -470 -625 -543 -705 -74 -81 -264 -289 -424 -462 -248 -271 -309 -456 -424 -1286 -94 -679 -103 -1007 -30 -1096 74 -88 67 -311 -23 -745 -100 -485 -176 -637 -352 -704 -275 -105 -395 -522 -246 -850 142 -312 365 -327 268 -18 -148 475 -55 785 178 591 185 -154 575 114 410 282 -114 115 -40 833 132 1286 52 138 51 527 -3 940 -82 635 -68 753 137 1190 125 268 259 486 299 486 39 0 352 371 693 825 684 907 990 1185 777 705 -69 -154 -200 -363 -292 -465 -211 -234 -332 -1225 -193 -1590 75 -200 173 -275 357 -275 167 0 252 55 252 165 0 91 158 318 350 505 193 187 350 411 350 499 0 189 822 1175 1168 1402 173 113 273 128 350 51 69 -69 191 -76 344 -18 305 117 576 -159 780 -795 184 -576 189 -1958 8 -2359 l-136 -300 9 452 c17 989 -672 2185 -976 1693 -36 -58 44 -207 178 -331 134 -124 321 -427 415 -673 155 -406 157 -511 26 -1144 -82 -393 -108 -743 -60 -802 47 -58 58 -210 25 -339 -44 -166 -24 -220 70 -189 72 24 293 514 490 1088 197 575 427 1098 509 1162 83 64 150 267 150 450 0 266 40 333 200 333 153 0 207 77 232 331 36 377 263 517 483 297 212 -212 84 -878 -169 -878 -343 0 -520 -293 -451 -750 115 -766 154 -2750 54 -2750 -89 0 -144 161 -224 650 -20 125 -97 189 -204 171 -209 -36 -211 -79 27 574 109 298 179 562 154 586 -115 116 -352 -103 -352 -325 0 -138 -108 -488 -241 -778 -383 -841 -439 -2078 -94 -2078 188 0 272 240 163 467 -51 108 -43 451 21 833 108 651 199 710 234 153 27 -430 230 -598 582 -482 255 85 291 151 342 637 31 298 20 557 -25 575 -126 51 -97 496 37 579 66 40 137 20 158 -44 22 -65 132 -118 246 -118 199 0 203 31 127 1025 -83 1096 -83 1109 9 1738 48 334 24 439 -130 550 -129 93 -194 272 -204 562 -16 468 85 548 253 200 95 -197 109 -165 115 250 4 261 -38 475 -93 475 -55 0 -100 42 -100 93 0 113 -351 680 -725 1173 -151 199 -275 401 -275 449 0 348 -1929 2238 -2730 2675 -501 273 -957 232 -1042 -95 -28 -107 -129 -195 -225 -195 -755 0 -1266 -755 -1347 -1994 -26 -391 -75 -755 -108 -810 -97 -156 -245 -9 -184 182 30 95 75 235 99 313 23 77 58 572 76 1100 41 1154 184 1613 495 1581 161 -16 208 25 184 164 -17 102 61 251 175 330 271 190 263 396 -18 471 -283 76 -1774 67 -1974 -11z m1259 -699 c-33 -33 -56 26 -52 131 5 117 28 141 60 61 29 -72 26 -159 -8 -192z m-500 -100 c-33 -33 -56 26 -52 131 5 117 28 141 60 61 29 -72 26 -159 -8 -192z m3140 -721 c0 -52 -45 -122 -100 -156 -55 -34 -100 8 -100 94 0 86 45 156 100 156 55 0 100 -42 100 -94z m-3450 -785 c0 -385 -35 -575 -95 -516 -52 52 -171 95 -263 95 -100 0 -188 101 -216 250 -38 194 -7 250 138 250 141 0 186 74 186 308 0 203 43 294 125 266 82 -27 125 -254 125 -653z m2239 -196 c-10 -817 -17 -846 -109 -434 -88 395 -35 1309 76 1309 24 0 39 -394 33 -875z m1688 594 c60 -180 -147 -142 -216 39 -38 98 -15 143 58 119 65 -22 136 -93 158 -158z m-2225 -754 c-11 -658 -58 -906 -222 -1164 -179 -284 -215 -303 -262 -140 -165 580 145 2139 427 2139 39 0 65 -376 57 -835z m1148 385 c0 -76 -45 -166 -100 -200 -57 -35 -100 51 -100 200 0 149 43 235 100 200 55 -34 100 -124 100 -200z m700 -462 c0 -66 105 -91 257 -62 143 27 429 -34 645 -139 214 -103 476 -187 583 -187 262 0 866 -689 727 -828 -71 -71 -148 -66 -247 16 -79 65 -182 112 -229 104 -229 -41 -336 26 -336 210 0 530 -1024 494 -1573 -55 -374 -374 -501 -290 -391 260 93 463 564 1032 564 681z m-3207 -413 c-4 -124 -91 -405 -193 -625 l-185 -400 -8 581 c-4 363 30 558 93 519 55 -34 100 -14 100 44 0 58 45 106 100 106 55 0 97 -101 93 -225z m2236 -275 c29 -110 11 -225 -38 -256 -50 -31 -91 59 -91 200 0 307 57 331 129 56z m-620 -409 c-64 -159 -98 -185 -103 -74 -8 221 121 551 165 419 19 -57 -9 -212 -62 -345z m2491 229 c0 -44 -47 -127 -105 -185 -57 -57 -145 -504 -196 -993 -67 -652 -138 -923 -264 -1016 -155 -113 -335 -167 -335 -101 1 193 341 1567 436 1763 71 144 111 341 89 437 -28 123 22 175 168 175 114 0 207 -36 207 -80z m-685 -343 c-255 -404 -466 -498 -363 -164 98 320 242 487 420 487 118 0 107 -64 -57 -323z m-4235 -711 c21 -392 -18 -637 -125 -789 -174 -248 -210 -932 -54 -1028 56 -34 128 73 162 241 51 256 373 520 481 394 17 -19 -217 -394 -518 -834 l-548 -800 74 500 c106 710 214 1851 205 2175 -4 151 32 275 79 275 47 0 56 117 20 260 -47 188 -29 248 65 217 80 -27 140 -257 159 -611z m3520 238 c0 -152 -377 -323 -450 -204 -34 55 -34 145 0 200 79 128 450 131 450 4z m3060 -277 c-33 -33 -56 26 -52 131 5 117 28 141 60 61 29 -72 26 -159 -8 -192z m-2762 -884 c-66 -235 -91 -473 -57 -528 34 -56 16 -129 -40 -164 -56 -35 -145 52 -199 193 -53 141 -144 256 -201 256 -62 0 -79 103 -42 251 54 214 36 241 -123 183 -177 -65 -176 -57 8 153 106 121 309 276 450 344 227 110 260 103 290 -68 19 -106 -20 -385 -86 -620z m3214 90 c-87 -150 -106 -155 -109 -25 -3 169 102 320 173 250 23 -24 -5 -125 -64 -225z m-4012 -78 c0 -167 -256 -555 -366 -555 -183 0 -168 196 31 417 154 169 335 244 335 138z m315 -818 c173 -157 172 -174 -24 -450 -258 -362 -388 -366 -346 -12 18 151 37 354 44 450 14 218 95 221 326 12z m3528 -326 c61 -98 -218 -369 -298 -290 -70 71 59 379 160 379 46 0 108 -40 138 -89z m-3994 -713 c-35 -56 -105 -75 -156 -44 -139 86 -113 146 63 146 86 0 128 -46 93 -102z"/>
<path d="M15614 13867 c-120 -145 -58 -467 90 -467 45 0 113 95 149 210 86 270 -80 448 -239 257z"/>
<path d="M3620 13280 c-176 -176 -154 -680 30 -680 83 0 151 79 151 175 1 96 29 276 62 400 66 245 -52 296 -243 105z"/>
<path d="M11277 11169 c-58 -516 12 -1069 134 -1069 49 0 89 338 89 750 0 812 -144 1018 -223 319z"/>
<path d="M9800 10075 c0 -69 156 -345 347 -613 190 -268 421 -684 513 -925 170 -446 341 -577 339 -262 -1 247 -441 1162 -757 1577 -273 358 -442 443 -442 223z"/>
<path d="M12122 8540 c-227 -254 -465 -625 -529 -825 -173 -547 -1064 -2288 -1497 -2928 -217 -320 -343 -600 -293 -650 49 -49 -17 -453 -156 -937 -285 -1001 -294 -1100 -101 -1100 200 0 379 363 301 609 -98 309 321 1548 652 1925 186 211 258 369 198 429 -60 60 98 462 431 1095 290 550 588 1187 663 1415 162 490 725 1081 949 995 206 -79 307 105 156 286 -193 233 -333 176 -774 -314z"/>
<path d="M12704 8007 c-134 -251 -132 -478 5 -562 165 -102 322 111 332 451 10 345 -179 407 -337 111z"/>
<path d="M20341 6954 c-670 -670 -1377 -2054 -1049 -2054 50 0 116 56 146 125 30 69 28 -201 -4 -600 -39 -469 -24 -725 43 -725 57 0 142 -165 190 -368 102 -430 653 -823 885 -631 108 90 105 157 -12 379 -111 210 -131 557 -89 1570 59 1456 301 2475 602 2535 132 27 159 -8 109 -140 -67 -174 -290 -1463 -411 -2370 -51 -384 -34 -475 87 -475 225 0 283 159 276 757 -8 635 160 738 205 126 17 -230 87 -436 156 -459 94 -31 125 198 125 930 0 851 -18 955 -150 846 -124 -103 -150 -92 -148 63 2 286 146 451 331 380 111 -43 167 -13 167 89 0 182 -508 568 -747 568 -91 0 -412 -246 -712 -546z m107 -461 c-148 -420 -189 -720 -301 -2218 -37 -498 -110 -875 -169 -875 -64 0 -83 157 -50 407 46 339 29 398 -99 349 -131 -50 -147 27 -106 517 26 317 1 652 -57 744 -80 128 -39 266 178 600 261 401 653 883 719 883 15 0 -36 -183 -115 -407z m852 -749 c0 -86 -46 -128 -102 -93 -56 35 -75 105 -44 156 86 139 146 113 146 -63z"/>
<path d="M18308 7114 c-67 -125 -104 -523 -87 -941 26 -649 51 -726 240 -753 177 -25 222 35 275 364 41 258 14 490 -79 668 -77 150 -118 332 -91 404 28 73 7 209 -46 304 -87 157 -106 153 -212 -46z"/>
<path d="M8917 7032 c-135 -252 -354 -1792 -281 -1980 87 -229 254 -183 385 105 94 206 90 274 -21 343 -115 71 -118 213 -18 858 124 800 106 993 -65 674z"/>
<path d="M14548 6897 c-101 -164 220 -469 354 -335 70 70 42 157 -90 277 -138 125 -212 141 -264 58z"/>
<path d="M13419 6604 c-121 -163 -218 -354 -216 -425 2 -76 65 -47 154 71 129 171 164 178 245 50 52 -83 98 -285 101 -450 3 -165 74 -480 157 -700 82 -220 177 -771 209 -1225 50 -701 86 -825 237 -825 262 0 273 149 77 1041 -204 928 -224 1196 -83 1109 55 -34 100 -149 100 -256 0 -192 241 -271 339 -111 131 211 -538 1857 -794 1955 -254 98 -294 80 -526 -234z m719 -720 c58 -288 19 -479 -76 -376 -99 107 -168 692 -82 692 52 0 123 -142 158 -316z"/>
<path d="M15259 6714 c-82 -132 43 -1403 144 -1466 189 -117 322 275 263 773 -62 522 -282 896 -407 693z"/>
<path d="M16331 6681 c-121 -59 -239 -159 -264 -223 -109 -283 -294 -1943 -235 -2098 92 -239 298 -86 231 171 -80 304 146 1695 303 1865 113 124 134 29 134 -612 0 -418 -60 -911 -134 -1097 -157 -394 -221 -1287 -93 -1287 49 0 172 61 273 135 128 93 149 156 69 206 -162 100 -143 541 46 1097 123 361 145 649 92 1217 -39 410 -100 742 -137 738 -36 -3 -165 -54 -285 -112z"/>
<path d="M12110 6306 c-287 -178 107 -1906 435 -1906 233 0 289 203 95 345 -125 92 -212 363 -285 890 -84 608 -133 741 -245 671z"/>
<path d="M12753 6005 c-36 -58 -37 -149 -4 -204 131 -212 651 -1742 651 -1916 0 -102 68 -185 150 -185 245 0 179 505 -191 1462 -333 861 -474 1057 -606 843z"/>
<path d="M1635 5679 c-58 -77 -72 -532 -34 -1129 35 -550 48 -1499 28 -2109 -30 -905 -9 -1133 116 -1237 253 -210 280 54 237 2296 -40 2036 -112 2492 -347 2179z"/>
<path d="M5800 5173 c0 -218 -27 -226 -728 -190 -1229 62 -1859 -212 -2261 -985 -264 -506 -281 -1299 -36 -1714 226 -384 1046 -842 1645 -919 548 -70 1531 86 1855 295 134 86 225 245 225 392 0 315 -177 321 -295 12 -151 -398 -818 -513 -1001 -172 -110 207 -33 808 105 808 46 0 223 -136 393 -302 170 -167 353 -276 405 -243 191 117 -368 834 -952 1221 l-453 300 348 237 c192 130 349 271 349 312 1 41 -340 75 -757 75 -554 0 -748 -33 -718 -122 26 -78 194 -112 458 -93 251 18 418 -13 418 -77 0 -60 -85 -108 -189 -108 -104 0 -292 -84 -419 -186 l-230 -187 232 -124 233 -124 -325 -158 c-298 -144 -332 -143 -418 11 -52 92 -137 168 -189 168 -188 0 -90 -370 160 -605 l255 -239 252 322 c139 177 313 322 387 322 163 0 260 -400 236 -975 -16 -379 -44 -425 -262 -425 -332 0 -1209 582 -1382 918 -217 419 -178 1097 85 1488 325 482 720 567 2302 498 542 -24 707 -70 817 -228 135 -192 355 -168 355 39 0 178 -628 985 -767 985 -73 0 -133 -102 -133 -227z"/>
<path d="M21946 5293 c-92 -149 15 -230 206 -156 88 34 133 107 98 162 -81 131 -221 129 -304 -6z"/>
<path d="M15099 4725 c0 -206 -29 -679 -64 -1050 -55 -578 -41 -675 96 -675 231 0 374 304 251 534 -56 104 -72 381 -37 617 69 461 -11 949 -156 949 -49 0 -89 -169 -90 -375z"/>
<path d="M18000 4742 c0 -177 215 -146 277 39 22 66 -32 119 -119 119 -87 0 -158 -71 -158 -158z"/>
<path d="M18754 4144 c121 -1293 244 -1532 602 -1173 161 160 163 182 18 210 -156 30 -321 599 -395 1361 -16 161 -90 312 -164 337 -109 36 -120 -103 -61 -735z"/>
<path d="M8493 4675 c-83 -277 -293 -1904 -293 -2263 0 -366 136 -610 267 -479 29 29 66 495 81 1035 16 540 62 1151 102 1357 48 252 36 375 -39 375 -61 0 -114 -11 -118 -25z"/>
<path d="M10725 4036 c-101 -199 -217 -644 -479 -1836 -90 -412 -186 -829 -212 -925 -60 -222 193 -233 373 -17 97 117 103 203 23 331 -80 129 -50 392 121 1053 125 485 286 990 356 1122 93 173 99 270 20 349 -78 78 -135 56 -202 -77z"/>
<path d="M21900 4000 c0 -110 65 -200 144 -200 209 0 305 207 144 310 -214 135 -288 107 -288 -110z"/>
<path d="M5500 3937 c0 -186 441 -737 589 -737 194 0 711 495 711 680 0 187 -185 141 -323 -80 -69 -110 -175 -200 -236 -200 -60 0 -191 90 -291 200 -171 189 -450 274 -450 137z"/>
<path d="M11936 3850 c-106 -276 -54 -744 216 -1930 187 -824 190 -830 485 -800 164 17 318 93 344 170 32 99 -13 125 -157 87 -217 -56 -290 153 -387 1110 -24 240 -114 572 -200 737 -85 166 -135 408 -110 539 50 260 -99 328 -191 87z"/>
<path d="M17993 3842 c-158 -191 -256 -1319 -126 -1449 114 -114 561 181 478 315 -32 53 -96 72 -141 44 -166 -102 -204 455 -56 809 84 200 152 380 152 401 0 96 -189 22 -307 -120z"/>
<path d="M21214 3727 c-52 -99 -91 -350 -85 -560 9 -311 43 -372 187 -334 97 26 231 -19 296 -98 66 -79 253 -239 414 -354 368 -261 496 -115 328 375 -155 450 -217 499 -418 333 -155 -127 -164 -111 -105 186 67 339 -6 410 -211 205 -93 -93 -120 -72 -120 94 0 286 -167 375 -286 153z"/>
<path d="M24919 3550 c-2 -165 19 -245 47 -177 27 68 29 203 3 300 -25 97 -47 42 -50 -123z"/>
<path d="M12745 3392 c-37 -60 45 -228 182 -375 206 -222 268 -436 367 -1267 161 -1366 183 -1452 349 -1389 192 74 282 338 164 481 -53 64 -151 542 -217 1062 -93 729 -177 1021 -367 1271 -261 344 -369 393 -478 217z"/>
<path d="M11073 3191 c48 -180 391 -360 494 -258 28 29 23 140 -11 247 -84 265 -552 276 -483 11z"/>
<path d="M15727 2475 c-63 -234 -184 -515 -268 -625 -144 -189 -153 -176 -156 233 -2 302 -41 421 -128 392 -81 -27 -125 -249 -125 -632 0 -750 223 -858 500 -243 121 269 232 390 324 355 178 -68 550 125 476 246 -31 49 -128 63 -216 29 -132 -51 -152 1 -117 304 60 511 -148 469 -290 -59z"/>
<path d="M24580 2791 c-271 -152 -449 -623 -412 -1089 43 -543 203 -774 400 -576 115 114 111 186 -23 454 -179 358 -126 656 174 984 214 234 127 375 -139 227z"/>
<path d="M10938 2655 c-97 -253 354 -1255 565 -1255 216 0 272 135 216 519 -39 261 -54 271 -171 112 -115 -157 -140 -132 -241 242 -125 465 -277 622 -369 382z"/>
<path d="M14158 2712 c-31 -50 -53 -681 -48 -1401 8 -1205 24 -1311 194 -1311 222 0 365 195 212 290 -67 42 -114 514 -123 1239 -12 1067 -84 1428 -235 1183z"/>
<path d="M19720 2480 c-156 -156 -153 -428 5 -559 69 -57 338 -101 598 -97 375 6 486 47 534 199 87 274 -7 322 -352 179 -388 -161 -640 -71 -555 198 71 223 -46 264 -230 80z"/>
<path d="M19016 2376 c-293 -293 -36 -933 346 -859 215 42 307 283 107 283 -172 0 -286 239 -209 440 72 187 -98 282 -244 136z"/>
<path d="M23636 2043 c-131 -201 -148 -335 -77 -617 50 -199 149 -380 221 -403 100 -33 115 70 64 454 -43 324 -28 521 45 566 61 38 111 111 111 163 0 180 -197 92 -364 -163z"/>
<path d="M21373 2040 c-109 -109 23 -240 241 -240 118 0 185 52 161 125 -47 143 -302 215 -402 115z"/>
<path d="M18054 1813 c-92 -290 115 -706 406 -817 296 -112 540 17 540 286 0 119 -28 130 -115 43 -192 -192 -485 38 -485 379 0 335 -249 414 -346 109z"/>
<path d="M22365 1817 c-272 -301 -139 -1117 183 -1117 179 0 184 41 54 495 -77 267 -66 379 50 507 82 90 118 194 82 231 -107 106 -191 80 -369 -116z"/>
<path d="M16965 1431 c-268 -511 117 -1045 635 -881 280 89 249 250 -48 250 -295 0 -451 419 -266 715 93 149 87 185 -32 185 -81 0 -211 -121 -289 -269z"/>
<path d="M21440 1371 c-177 -371 -78 -1021 155 -1021 94 0 136 190 147 675 8 371 -21 675 -65 675 -44 0 -151 -148 -237 -329z"/>
<path d="M16053 1362 c-431 -430 -316 -1262 174 -1262 263 0 590 192 520 305 -38 61 -125 60 -238 0 -245 -131 -409 54 -409 463 0 268 47 340 254 392 140 35 239 112 219 171 -69 207 -270 181 -520 -69z"/>
<path d="M9201 1403 c-116 -74 -123 -121 -29 -215 93 -93 154 -91 274 8 299 248 94 421 -245 207z"/>
<path d="M10643 1189 c-80 -129 128 -285 382 -287 233 -3 223 165 -18 294 -244 131 -279 130 -364 -7z"/>
<path d="M20485 957 c-112 -247 -67 -587 114 -857 154 -229 322 74 184 332 -57 106 -77 322 -46 480 71 352 -98 382 -252 45z"/>
<path d="M24657 638 c-141 -309 -257 -579 -257 -600 0 -21 124 -38 276 -38 268 0 278 19 307 600 16 330 7 600 -19 600 -27 0 -165 -253 -307 -562z"/>
<path d="M5400 986 c-247 -51 -585 -74 -750 -51 -165 23 -741 -2 -1280 -54 -737 -73 -1017 -67 -1125 23 -113 94 -178 93 -295 -4 -233 -193 -181 -400 100 -400 200 0 250 -50 250 -250 0 -183 53 -250 200 -250 144 0 200 67 200 239 0 235 164 361 471 361 118 0 140 -70 94 -300 -45 -225 -23 -300 88 -300 88 0 147 95 147 238 0 283 221 492 470 444 138 -27 172 -111 147 -359 -26 -263 4 -323 159 -323 108 0 242 110 307 252 110 242 468 448 777 448 114 0 124 -43 44 -193 -178 -333 -126 -507 153 -507 209 0 245 36 194 196 -85 270 123 635 319 560 216 -83 489 145 310 259 -157 99 -387 92 -980 -29z"/>
<path d="M19302 780 c-235 -386 -249 -480 -73 -480 158 0 483 681 361 756 -48 30 -177 -95 -288 -276z"/>
<path d="M11800 875 c1 -189 382 -774 545 -837 79 -30 225 -39 324 -19 159 31 148 65 -86 269 -147 129 -294 342 -327 473 -63 250 -456 349 -456 114z"/>
<path d="M23667 733 c-37 -36 -67 -134 -67 -217 0 -83 -74 -233 -165 -333 -158 -174 -149 -183 177 -183 340 0 343 4 305 400 -36 384 -107 477 -250 333z"/>
<path d="M9898 343 c-130 -340 -129 -343 102 -343 156 0 200 67 200 300 0 367 -170 392 -302 43z"/>
<path d="M10749 499 c-109 -177 57 -499 258 -499 223 0 225 4 95 343 -101 267 -245 330 -353 156z"/>
<path d="M15100 300 c0 -200 50 -300 150 -300 165 0 176 44 87 375 -87 324 -237 277 -237 -75z"/>
<path d="M13000 393 c0 -138 293 -433 362 -365 64 65 -182 472 -286 472 -42 0 -76 -48 -76 -107z"/>
<path d="M18367 433 c-138 -138 -64 -433 109 -433 186 0 455 336 351 439 -81 81 -377 78 -460 -6z"/>
<path d="M22761 342 c-103 -267 -70 -342 150 -342 151 0 193 45 150 158 -34 87 -61 200 -61 250 0 152 -174 104 -239 -66z"/>
<path d="M6661 242 c-87 -227 -80 -242 115 -242 97 0 232 90 301 200 112 179 100 200 -115 200 -133 0 -268 -71 -301 -158z"/>
<path d="M20061 244 c-33 -86 -102 -131 -153 -99 -52 32 -122 13 -157 -43 -38 -62 81 -102 304 -102 293 0 354 32 306 158 -34 87 -61 177 -61 200 0 112 -186 23 -239 -114z"/>
<path d="M21920 280 c-191 -191 -141 -281 155 -272 151 4 221 30 156 56 -66 27 -95 114 -65 192 67 175 -81 189 -246 24z"/>
<path d="M11500 106 c0 -58 45 -106 100 -106 55 0 100 20 100 44 0 24 -45 72 -100 106 -55 34 -100 14 -100 -44z"/>
</g>
</svg>