<svg xmlns="http://www.w3.org/2000/svg" version="1.0" width="250" height="250" viewBox="0 0 250.000000 250.000000" preserveAspectRatio="xMidYMid meet">
<metadata>
Created by potrace 1.10, written by Peter Selinger 2001-2011
</metadata>
<g transform="translate(0.000000,250.000000) scale(0.010000,-0.010000)" fill="#555555" stroke="none">
<path d="M0 12483 l0 -12483 844 0 c830 0 1204 134 716 256 -189 48 -256 138 -279 378 -24 241 -81 319 -242 327 -290 14 -439 120 -439 311 0 233 614 1154 706 1059 43 -45 110 -300 149 -569 58 -392 45 -479 -67 -442 -76 25 -162 200 -191 388 -50 328 -57 333 -175 124 -176 -315 7 -774 280 -703 154 41 198 2 198 -175 0 -125 90 -341 200 -481 110 -140 200 -304 200 -364 0 -60 72 -109 161 -109 100 0 139 55 104 147 -31 81 -10 175 46 210 56 35 127 -31 157 -147 45 -172 133 -210 485 -210 255 0 447 51 472 125 33 97 75 98 185 7 188 -154 1515 -141 1455 14 -69 180 393 1502 478 1366 41 -66 31 -175 -21 -241 -52 -67 -119 -301 -149 -521 -29 -220 -85 -479 -124 -575 -60 -150 -11 -175 340 -175 438 0 554 139 194 233 l-217 57 221 180 c198 162 209 214 105 513 -128 365 -30 564 205 419 102 -63 147 -280 149 -719 3 -535 32 -635 192 -666 103 -20 225 24 271 97 66 107 108 109 207 10 70 -70 373 -124 694 -124 550 0 574 11 680 315 144 413 143 417 -90 356 -130 -34 -200 -3 -200 88 0 168 -160 187 -257 30 -47 -77 -94 -69 -154 25 -175 277 -102 405 196 339 221 -48 337 -8 517 179 139 144 305 221 415 193 241 -64 233 -189 -17 -254 -222 -58 -275 -419 -75 -513 100 -46 100 -70 0 -116 -161 -76 -154 -245 20 -475 134 -176 147 -175 347 25 265 265 441 269 358 8 -56 -176 -18 -200 312 -200 249 0 458 75 621 225 l247 225 -56 -225 c-100 -406 268 -263 515 200 164 307 211 351 169 159 -31 -146 -85 -337 -118 -425 -40 -104 -7 -159 95 -159 185 0 419 706 580 1750 132 860 260 1215 390 1085 61 -61 58 -275 -10 -591 -59 -272 -145 -719 -192 -994 -47 -275 -157 -669 -245 -875 -153 -356 -151 -375 25 -375 142 0 216 129 318 555 73 305 177 581 231 615 60 37 72 -52 32 -230 -188 -834 -192 -940 -40 -940 105 0 170 151 216 496 36 273 113 525 170 560 57 35 80 126 51 201 -29 76 17 177 101 224 130 73 137 152 42 505 -62 230 -89 457 -60 505 30 47 -31 108 -135 136 -142 37 -201 169 -240 536 -97 908 -264 1586 -420 1700 -122 89 -150 292 -131 965 20 709 45 825 150 687 69 -91 127 -443 129 -783 3 -669 131 -1132 311 -1132 69 0 85 68 40 175 -72 173 -206 1282 -300 2497 -27 342 -116 821 -198 1064 -226 665 -269 1505 -103 1989 156 453 109 644 -80 324 -191 -325 -247 -569 -257 -1141 -17 -918 -106 -503 -134 623 -20 810 6 1079 106 1118 72 27 110 129 82 226 -129 457 -173 829 -98 816 202 -35 215 31 71 374 -113 270 -122 383 -35 436 64 39 107 179 96 310 -32 376 -5 505 91 446 48 -30 150 20 225 111 121 148 111 160 -89 109 -216 -56 -225 -32 -225 574 0 348 -27 704 -61 791 -33 87 -11 158 50 158 66 0 111 -200 111 -494 0 -487 151 -747 297 -510 131 211 207 -171 264 -1338 40 -799 26 -1066 -51 -958 -59 83 -108 410 -108 728 -2 428 -42 594 -156 637 -205 79 -301 -28 -170 -188 58 -70 105 -293 105 -495 -1 -202 32 -562 73 -800 40 -238 88 -589 105 -782 128 -1390 216 -1827 350 -1745 56 35 76 186 43 336 -33 149 -19 380 30 513 84 226 94 229 147 44 32 -109 50 -679 40 -1268 -13 -744 19 -1108 106 -1195 95 -95 128 -96 138 -5 29 287 41 320 112 320 104 0 106 -69 16 -750 -44 -330 -85 -667 -92 -750 -21 -259 150 -500 356 -500 165 0 187 -45 133 -264 -37 -145 -72 -1585 -77 -3200 -10 -2775 -1 -2936 171 -2936 127 0 165 53 127 175 -30 96 -11 243 42 325 82 128 96 124 97 -25 1 -96 47 -175 102 -175 126 0 127 -23 -46 1050 -184 1146 -250 1986 -146 1881 77 -77 307 -1503 327 -2031 6 -137 66 -308 134 -378 68 -71 152 -284 188 -475 80 -424 277 -448 623 -74 l253 273 -68 -273 c-66 -263 -54 -273 325 -273 l393 0 107 525 c59 289 197 818 306 1175 108 358 240 853 292 1100 l95 450 -41 -550 c-79 -1045 -161 -1551 -286 -1750 -205 -329 -270 -950 -100 -950 79 0 151 101 159 225 9 124 20 280 26 346 6 67 67 177 135 245 99 99 124 28 124 -346 0 -351 38 -470 150 -470 172 0 199 379 62 860 -49 169 -55 574 -14 899 42 325 82 467 89 316 21 -447 312 -355 317 100 12 1233 116 2778 196 2915 132 224 127 -2601 -5 -3894 -66 -640 -70 -1061 -12 -1119 210 -210 268 298 367 3173 20 605 40 1183 44 1283 3 101 60 166 125 144 89 -30 112 -553 92 -2017 -27 -1873 -18 -1976 156 -1941 133 26 179 118 167 334 -65 1247 -72 1766 -44 2997 26 1115 55 1349 141 1150 93 -212 118 -113 166 650 31 495 92 956 136 1025 50 79 25 125 -69 125 -120 0 -139 112 -101 575 44 536 207 1325 274 1325 16 0 34 -551 40 -1225 6 -674 39 -1615 75 -2093 62 -840 57 -866 -141 -814 -300 79 -475 -341 -323 -775 61 -178 112 -696 112 -1152 0 -456 45 -857 100 -891 55 -34 100 -484 100 -1006 l0 -944 495 0 496 0 35 675 35 675 19 -675 c18 -594 43 -675 214 -675 167 0 186 52 139 375 -53 364 -50 368 106 158 89 -119 134 -288 100 -375 -52 -137 64 -158 888 -158 602 0 1075 53 1295 145 191 79 437 121 547 92 110 -29 476 64 813 205 336 142 703 258 815 258 188 0 203 62 203 850 0 519 -40 850 -104 850 -71 0 -71 60 0 193 137 256 137 1707 0 1707 -71 0 -71 60 0 193 93 172 158 7807 67 7807 -18 0 -138 -92 -267 -204 -279 -242 -529 -219 -581 52 -33 171 -17 178 126 60 90 -75 175 -119 190 -97 14 21 88 163 164 314 76 151 199 275 272 275 99 0 133 192 133 750 0 413 -40 750 -89 750 -49 0 -120 120 -156 268 -48 190 -23 292 89 354 136 77 156 480 156 3183 0 2942 -9 3095 -185 3095 -241 0 -515 309 -515 583 0 281 224 280 351 -2 55 -120 155 -236 224 -258 209 -67 140 244 -125 559 -138 163 -250 358 -249 432 0 75 82 12 182 -140 100 -151 212 -245 250 -208 110 110 79 953 -33 884 -55 -34 -100 8 -100 94 0 86 45 156 100 156 55 0 100 68 100 150 0 83 -64 150 -143 150 -164 0 -303 345 -204 505 42 68 116 42 203 -74 121 -160 138 -107 141 444 l3 625 -800 0 c-440 0 -800 -36 -800 -81 0 -44 59 -161 131 -260 103 -140 108 -302 25 -744 -137 -730 -232 -886 -401 -655 -114 156 -132 147 -192 -94 -58 -231 -368 -396 -360 -191 6 142 290 453 517 566 307 153 346 418 72 490 -162 42 -200 104 -148 238 39 100 95 305 126 456 52 258 34 275 -297 275 -242 0 -373 -54 -419 -175 -65 -167 -74 -167 -197 0 -71 96 -186 175 -255 175 -74 0 -103 -72 -70 -175 177 -563 185 -625 80 -625 -62 0 -112 -152 -112 -338 0 -543 -114 -962 -262 -962 -85 0 -138 111 -138 289 0 165 -64 314 -150 347 -233 90 -185 445 65 482 356 53 449 318 200 567 -118 118 -215 260 -215 315 0 55 -89 100 -199 100 -132 0 -247 -117 -345 -350 -80 -192 -193 -350 -251 -350 -58 0 -105 158 -105 350 0 348 -3 350 -448 350 -443 0 -447 -2 -387 -300 37 -183 19 -300 -47 -300 -149 0 -268 217 -234 425 33 204 -91 228 -268 51 -97 -97 -141 -98 -199 -3 -43 69 -276 116 -550 111 -421 -8 -493 -43 -628 -305 -84 -162 -138 -431 -121 -597 18 -166 -13 -309 -68 -317 -142 -21 -185 722 -52 883 133 159 -9 280 -229 196 -82 -32 -178 -10 -215 49 -41 66 -518 107 -1248 107 -1099 0 -1186 -14 -1235 -200 -59 -226 -371 -175 -371 61 0 92 -118 139 -352 139 -281 0 -372 -49 -444 -240 -135 -354 -304 -418 -304 -116 0 281 -92 323 -286 131 -101 -100 -113 -90 -59 50 48 128 16 175 -119 174 -121 -1 -255 -150 -381 -425 l-196 -424 -35 431 c-36 430 -37 430 -405 400 -358 -30 -369 -42 -357 -413 14 -459 -157 -352 -190 119 -21 310 -36 321 -422 292 -341 -25 -405 -66 -433 -279 -41 -300 -217 -520 -217 -270 0 94 -90 260 -200 370 -217 217 -716 276 -675 81 14 -66 -54 -136 -150 -157 -109 -24 -175 21 -175 119 0 186 -263 212 -329 32 -37 -100 -72 -100 -178 0 -149 141 -393 168 -393 44 0 -45 96 -185 214 -311 170 -182 684 -1069 686 -1183 0 -14 -69 -25 -152 -25 -90 0 -178 123 -212 297 -33 163 -142 323 -241 355 -100 31 -259 258 -352 503 -94 245 -203 445 -244 445 -41 0 -150 -146 -242 -325 l-169 -325 39 325 c37 317 29 325 -344 325 -231 0 -383 -48 -383 -120 0 -93 -27 -93 -120 0 -70 70 -403 120 -793 120 -618 0 -677 -18 -717 -225 l-45 -225 -73 222 c-69 208 -131 221 -1007 219 -680 -2 -923 -35 -891 -122 23 -65 84 -657 136 -1314 74 -959 128 -1221 270 -1325 167 -121 164 -130 -37 -130 -272 0 -392 411 -479 1632 -44 620 -105 898 -204 935 -77 30 -140 117 -140 194 0 76 -71 139 -157 139 -139 0 -149 -167 -86 -1425 39 -784 132 -1627 206 -1875 74 -247 135 -658 136 -912 1 -255 63 -639 139 -853 86 -246 113 -539 70 -788 l-67 -397 -78 296 c-43 163 -98 565 -123 893 -25 328 -84 645 -131 704 -78 97 -167 685 -273 1807 -21 220 -39 884 -40 1475 l-2 1075 -447 0 c-430 0 -447 -11 -447 -300 0 -165 -51 -300 -112 -300 -72 0 -91 108 -54 294 l59 294 -497 -11 -496 -11 0 -12483z m10798 11892 c-2 -688 -162 -963 -212 -363 -45 550 1 888 121 888 51 0 92 -236 91 -525z m997 -1135 c-202 -376 -283 -109 -247 811 17 439 41 822 53 849 12 28 90 -279 174 -681 127 -614 130 -772 20 -979z m12386 1486 c-18 -95 -114 -189 -213 -208 -159 -31 -165 -10 -50 173 158 254 309 274 263 35z m-17839 -676 c47 -283 24 -459 -80 -600 -140 -189 -151 -190 -218 -19 -39 100 -20 291 41 425 91 200 83 244 -40 244 -88 0 -176 -128 -212 -308 -43 -218 -86 -269 -146 -175 -145 229 -95 575 113 783 110 110 200 255 200 322 0 256 278 -290 342 -672z m9340 418 c24 -208 -3 -253 -125 -207 -188 72 -219 576 -32 515 69 -23 139 -161 157 -308z m2830 65 c-87 -150 -106 -155 -109 -25 -3 169 102 320 173 250 23 -24 -5 -125 -64 -225z m1710 -38 c34 -229 -3 -332 -147 -408 -261 -140 -287 -87 -168 344 124 449 255 475 315 64z m-5057 51 c81 -211 -54 -325 -169 -143 -122 193 -120 297 7 297 57 0 130 -69 162 -154z m9392 -139 c-87 -95 -157 -220 -157 -278 0 -57 -67 -161 -150 -229 -82 -68 -150 -254 -150 -412 0 -159 -45 -288 -100 -288 -110 0 -118 423 -15 769 92 309 501 751 624 675 67 -41 48 -126 -52 -237z m-17618 36 c55 -143 -138 -443 -285 -443 -128 0 -228 450 -116 523 182 119 336 88 401 -80z m9421 -116 c-33 -33 -56 26 -52 131 5 117 28 141 60 61 29 -72 26 -159 -8 -192z m-11214 80 c31 -51 -26 -153 -129 -225 -102 -73 -211 -199 -243 -282 -45 -117 -60 -110 -66 32 -16 376 292 711 438 475z m3953 -410 c-110 -205 -120 -206 -254 -30 -193 254 -179 314 80 351 277 40 322 -43 174 -321z m3505 210 c-57 -107 -105 -613 -106 -1125 -1 -606 -33 -881 -93 -787 -51 80 -66 274 -35 432 32 157 2 456 -67 664 -106 321 -100 425 39 693 90 174 209 316 264 316 67 0 66 -65 -2 -193z m4355 -81 c-69 -70 -259 71 -259 192 0 66 57 59 152 -20 84 -70 132 -147 107 -172z m2041 218 c0 -250 -243 -929 -316 -884 -51 31 -165 -3 -253 -76 -141 -117 -151 -104 -84 106 66 209 49 232 -136 184 -160 -42 -211 -9 -211 135 0 209 76 235 291 99 214 -136 409 -15 409 253 0 146 58 239 150 239 83 0 150 -25 150 -56z m-17711 -819 c74 -1692 42 -2089 -155 -1893 -119 120 -20 2668 104 2668 9 0 32 -349 51 -775z m12971 616 c-33 -87 -89 -335 -123 -550 -37 -234 -118 -391 -200 -391 -75 0 -137 -52 -137 -117 0 -64 -28 -88 -63 -53 -35 34 15 228 111 429 143 302 150 381 38 450 -107 66 -94 114 64 234 261 197 386 196 310 -2z m738 -366 c1 -41 -66 -75 -148 -75 -82 0 -150 64 -150 142 0 78 -27 224 -59 325 -43 131 0 112 147 -67 114 -137 209 -284 210 -325z m7502 345 c0 -99 50 -230 111 -291 167 -167 10 -371 -170 -222 -160 133 -193 693 -41 693 55 0 100 -81 100 -180z m-15000 -120 c59 -110 85 -200 57 -200 -27 0 -98 90 -157 200 -59 110 -85 200 -57 200 27 0 98 -90 157 -200z m2560 -73 c-33 -33 -56 26 -52 131 5 117 28 141 60 61 29 -72 26 -159 -8 -192z m3440 -45 c0 -174 -24 -186 -152 -80 -219 181 -276 76 -370 -680 -180 -1439 -257 -1622 -222 -522 18 578 36 1129 39 1225 3 105 83 175 199 175 107 0 222 46 257 102 94 152 249 15 249 -220z m-3707 -157 c-6 -343 -16 -356 -115 -150 -60 124 -169 225 -243 225 -170 0 -177 166 -10 234 300 121 375 59 368 -309z m9549 -285 c-26 -306 -121 -722 -213 -923 l-166 -367 -38 274 c-21 150 29 369 111 486 82 117 125 276 95 352 -76 201 62 854 168 789 49 -30 68 -305 43 -611z m1519 402 c-34 -87 -61 -202 -61 -256 0 -54 -41 -73 -91 -42 -114 71 -19 456 113 456 55 0 72 -71 39 -158z m-17192 -517 c-25 -96 -46 -17 -46 175 0 193 21 271 46 175 25 -96 25 -254 0 -350z m570 -50 c-27 -289 -113 -716 -192 -950 -80 -234 -174 -616 -209 -850 -77 -500 -197 -684 -398 -607 -95 36 -113 94 -51 169 52 62 112 325 133 584 22 259 115 554 207 655 139 154 239 678 266 1399 3 69 69 125 148 125 112 0 133 -114 96 -525z m3251 123 c398 -378 689 -449 570 -138 -75 195 -29 177 286 -115 294 -273 513 -277 490 -9 -8 90 26 164 75 164 49 0 89 -157 89 -350 0 -302 33 -350 238 -350 131 0 294 68 362 150 181 218 270 185 328 -118 52 -273 -97 -732 -237 -732 -43 0 -106 90 -141 200 -35 110 -133 200 -218 200 -156 0 -152 -114 22 -675 52 -171 29 -225 -95 -225 -204 0 -249 116 -288 750 -24 400 -69 507 -223 536 -106 21 -243 106 -305 190 -76 104 -195 133 -367 89 -152 -38 -372 -3 -541 85 -556 290 -739 76 -292 -343 133 -126 218 -291 189 -368 -87 -227 -232 -158 -232 111 0 261 -229 346 -361 133 -107 -174 -251 284 -179 572 33 131 149 266 257 300 117 38 175 121 143 204 -79 208 -34 181 430 -261z m9347 -173 c41 -263 27 -425 -36 -425 -55 0 -101 210 -101 467 0 555 48 540 137 -42z m2952 -28 c-132 -586 -331 -798 -234 -247 72 406 231 797 297 731 20 -20 -8 -238 -63 -484z m-9511 -497 l-3 -450 -80 450 c-44 248 -79 563 -78 700 l3 250 80 -250 c44 -137 79 -452 78 -700z m465 15 c-104 -121 -241 155 -233 466 l11 369 126 -400 c70 -220 113 -416 96 -435z m2681 535 c-26 -137 -65 -250 -86 -250 -21 0 -38 113 -38 250 0 138 39 250 86 250 48 0 65 -112 38 -250z m1176 94 c0 -24 -45 -44 -100 -44 -55 0 -100 48 -100 106 0 58 45 78 100 44 55 -34 100 -82 100 -106z m6000 -643 c0 -224 -65 -431 -160 -510 -145 -120 -158 -74 -128 463 19 328 -3 664 -47 746 -44 83 13 44 127 -86 132 -150 208 -374 208 -613z m-14604 104 c6 -236 -164 14 -234 345 l-64 300 148 -250 c81 -137 149 -315 150 -395z m5304 39 c0 -565 -134 -668 -228 -176 -49 259 64 732 176 732 28 0 52 -250 52 -556z m5200 306 c0 -156 -57 -250 -150 -250 -150 0 -209 308 -83 433 136 136 233 60 233 -183z m-7064 -172 c-85 -139 -231 20 -168 184 47 121 77 127 139 26 44 -71 57 -165 29 -210z m5962 97 c-1 -182 -20 -196 -98 -75 -125 194 -125 300 0 300 55 0 99 -101 98 -225z m468 -100 c-28 -69 -50 -12 -50 125 0 138 22 194 50 125 28 -69 28 -181 0 -250z m8683 227 c68 -111 -115 -502 -235 -502 -44 0 -60 135 -35 300 44 301 157 385 270 202z m-9749 -340 c0 -186 -61 -388 -135 -449 -133 -111 -135 -97 -71 712 3 41 51 75 106 75 55 0 100 -152 100 -338z m-2700 -12 c0 -156 -57 -250 -150 -250 -150 0 -209 308 -83 433 136 136 233 60 233 -183z m10089 -292 c-80 -291 -76 -404 15 -461 67 -41 90 -125 52 -187 -206 -334 -296 324 -163 1185 4 25 51 1 105 -53 64 -64 61 -232 -9 -484z m-8192 -264 c-81 -150 -147 -184 -220 -111 -74 74 -48 220 83 486 185 375 189 376 220 111 18 -149 -20 -367 -83 -486z m3638 559 c31 -81 13 -173 -39 -206 -53 -32 -96 34 -96 147 0 242 56 266 135 59z m865 58 c0 -49 -74 -118 -164 -153 -137 -52 -144 -38 -38 90 144 173 202 191 202 63z m2560 -184 c-33 -33 -56 26 -52 131 5 117 28 141 60 61 29 -72 26 -159 -8 -192z m2623 -235 c18 -188 91 -375 162 -414 146 -83 88 -578 -67 -578 -56 0 -72 109 -37 250 67 268 -27 324 -219 132 -169 -169 -189 -99 -143 498 46 597 250 673 304 112z m-17283 -43 c0 -76 79 -184 175 -238 164 -93 163 -108 -21 -245 -145 -106 -264 -119 -448 -49 -391 148 -428 308 -127 548 283 225 421 220 421 -16z m1946 158 c69 -113 -304 -245 -445 -158 -56 35 -101 105 -101 157 0 122 470 123 546 1z m3616 -307 c95 0 138 -128 138 -406 0 -233 -41 -381 -96 -347 -52 33 -70 125 -39 206 31 81 26 226 -11 322 -64 166 -72 166 -167 -2 -148 -264 -288 -111 -282 308 5 365 7 366 162 144 87 -124 219 -225 295 -225z m3635 -75 c-2 -277 -27 -334 -95 -217 -83 140 -37 592 60 592 21 0 37 -169 35 -375z m1603 244 c0 -72 -64 -218 -143 -325 -133 -181 -147 -182 -211 -19 -37 96 -41 243 -10 325 71 184 364 200 364 19z m660 -142 c-33 -33 -56 26 -52 131 5 117 28 141 60 61 29 -72 26 -159 -8 -192z m600 0 c-33 -33 -56 26 -52 131 5 117 28 141 60 61 29 -72 26 -159 -8 -192z m1390 -60 c0 -261 -196 -245 -233 19 -23 162 8 222 100 192 73 -25 133 -120 133 -211z m-18050 -17 c0 -82 -45 -150 -100 -150 -55 0 -100 68 -100 150 0 83 45 150 100 150 55 0 100 -67 100 -150z m3007 -175 c69 -179 115 -486 103 -682 -29 -432 252 -2757 412 -3415 92 -380 87 -524 -24 -732 -119 -223 -118 -272 7 -353 126 -81 126 -106 -5 -191 -302 -199 -350 -94 -376 816 -14 505 -70 1081 -123 1280 -54 199 -110 1005 -124 1791 -14 786 -60 1451 -102 1476 -106 66 -94 335 15 335 50 0 147 -146 217 -325z m18227 -123 c48 -351 17 -524 -146 -800 -358 -607 -497 -430 -235 298 79 220 145 524 145 675 3 439 169 318 236 -173z m-14434 256 c0 -173 -121 -408 -211 -408 -49 0 -89 113 -89 250 0 156 57 250 150 250 83 0 150 -41 150 -92z m7596 -345 c-3 -201 -11 -198 -146 37 -187 327 -187 455 0 300 82 -68 148 -220 146 -337z m5565 295 c29 -77 39 -254 21 -392 -32 -250 -33 -250 -265 -61 -163 133 -213 249 -168 392 74 233 331 271 412 61z m-6584 -208 c11 -137 -24 -250 -78 -250 -55 0 -99 113 -99 250 0 138 35 250 78 250 43 0 88 -112 99 -250z m2372 148 c-35 -56 -105 -75 -156 -44 -139 86 -113 146 63 146 86 0 128 -46 93 -102z m-9507 -253 c91 -363 -23 -493 -252 -286 -249 225 -249 541 -1 541 119 0 213 -94 253 -255z m12880 -49 c35 -238 10 -298 -114 -274 -207 39 -279 578 -76 578 85 0 164 -125 190 -304z m-10556 -223 c-28 -68 -49 12 -47 177 3 165 25 220 50 123 26 -97 24 -232 -3 -300z m1034 -285 c0 -152 -43 -303 -96 -335 -129 -80 -404 471 -404 809 l0 273 250 -235 c150 -141 250 -346 250 -512z m-4719 350 c-89 -88 -222 -139 -296 -111 -89 33 -50 86 115 155 346 146 366 141 181 -44z m10963 71 c89 -144 -50 -409 -215 -409 -96 0 -128 57 -90 158 34 87 61 200 61 250 0 119 171 119 244 1z m1331 -465 c6 -400 -10 -438 -117 -279 -69 102 -115 320 -104 485 25 370 27 374 130 310 46 -29 87 -261 91 -516z m573 71 c-88 -88 -248 118 -244 316 3 211 8 210 141 -31 76 -137 123 -266 103 -285z m-9252 -1165 c15 -55 17 -415 3 -800 -22 -637 -36 -580 -157 642 -73 737 -155 1397 -181 1465 -26 68 -17 154 21 192 37 38 117 -262 177 -665 61 -404 122 -779 137 -834z m9888 1250 c186 -252 196 -300 60 -300 -181 0 -552 407 -479 525 85 137 195 78 419 -225z m-18642 -1485 c-51 -1222 -39 -1705 44 -1756 167 -104 139 -459 -36 -459 -82 0 -150 66 -150 146 0 81 -94 197 -208 258 -169 91 -233 78 -342 -71 -154 -211 -285 -141 -192 103 35 90 170 164 301 164 292 0 311 80 392 1650 61 1168 124 1650 216 1650 25 0 13 -758 -25 -1685z m5758 1373 c0 -49 -67 -88 -150 -88 -86 0 -150 90 -150 212 0 178 25 192 150 88 83 -68 150 -164 150 -212z m6054 205 c73 -117 -256 -403 -378 -328 -95 58 97 435 222 435 49 0 120 -48 156 -107z m5006 -166 c-33 -33 -56 26 -52 131 5 117 28 141 60 61 29 -72 26 -159 -8 -192z m-4713 -615 c-59 -302 -83 -329 -145 -162 -41 110 -62 245 -47 300 16 55 63 235 105 400 72 282 78 286 117 62 22 -131 9 -401 -30 -600z m2853 688 c0 -55 -45 -100 -100 -100 -55 0 -100 45 -100 100 0 55 45 100 100 100 55 0 100 -45 100 -100z m-7800 -35 c0 -154 -238 -665 -310 -665 -104 0 -123 533 -23 633 68 69 333 94 333 32z m-8340 -338 c-33 -33 -56 26 -52 131 5 117 28 141 60 61 29 -72 26 -159 -8 -192z m3876 123 c-31 -82 -96 -150 -144 -150 -47 0 -60 68 -28 150 31 83 96 150 144 150 47 0 60 -67 28 -150z m8118 -725 c-89 -1230 -156 -1625 -274 -1625 -59 0 -75 106 -38 252 35 139 84 631 110 1093 41 740 26 846 -128 883 -143 34 -129 61 76 150 138 60 265 112 284 116 19 3 5 -388 -30 -869z m11736 650 c63 -170 37 -257 -104 -356 -102 -72 -186 -195 -186 -275 0 -146 -119 -192 -225 -85 -106 105 241 941 390 941 23 0 79 -101 125 -225z m-11424 -200 c-28 -69 -50 -12 -50 125 0 138 22 194 50 125 28 -69 28 -181 0 -250z m-3046 -295 c-62 -62 -167 -52 -295 28 -274 171 -504 56 -543 -269 -18 -151 -88 -292 -157 -315 -186 -61 -151 228 73 599 154 253 284 338 575 377 312 41 383 18 410 -137 19 -102 -10 -230 -63 -283z m1213 -395 c-35 -239 -72 -907 -84 -1485 -27 -1398 -33 -1457 -138 -1345 -50 54 -55 806 -12 1745 42 914 37 1699 -11 1759 -47 60 -55 141 -17 179 149 149 324 -423 262 -853z m6067 715 c0 -110 -45 -200 -100 -200 -55 0 -100 90 -100 200 0 110 45 200 100 200 55 0 100 -90 100 -200z m4700 50 c0 -82 -45 -150 -100 -150 -55 0 -100 68 -100 150 0 83 45 150 100 150 55 0 100 -67 100 -150z m-14129 -325 c-249 -248 -471 -237 -471 23 0 144 492 358 635 276 47 -27 -27 -161 -164 -299z m10129 119 c0 -174 -49 -178 -329 -28 -211 113 -212 117 -19 187 237 86 348 36 348 -159z m400 100 c0 -24 -45 -44 -100 -44 -55 0 -100 48 -100 106 0 58 45 78 100 44 55 -34 100 -82 100 -106z m-11200 -44 c0 -55 -45 -100 -100 -100 -55 0 -100 45 -100 100 0 55 45 100 100 100 55 0 100 -45 100 -100z m9600 -106 c0 -52 -45 -94 -100 -94 -55 0 -100 70 -100 156 0 86 45 128 100 94 55 -34 100 -104 100 -156z m3100 -436 c0 -582 -68 -858 -211 -858 -100 0 -119 829 -26 1175 109 407 237 235 237 -317z m1668 184 c10 -160 -5 -213 -32 -117 -28 96 -92 175 -143 175 -51 0 -93 71 -93 158 0 285 250 84 268 -216z m-20468 152 c0 -58 -45 -78 -100 -44 -55 34 -100 82 -100 106 0 24 45 44 100 44 55 0 100 -48 100 -106z m2854 -544 c-45 -418 -34 -650 31 -650 129 0 259 -363 267 -750 4 -165 41 -412 82 -550 63 -208 57 -220 -35 -73 -61 98 -150 153 -198 123 -121 -74 -226 124 -260 490 -15 171 -83 582 -150 915 -109 538 -103 634 55 875 97 148 200 270 227 270 28 0 19 -292 -19 -650z m11506 281 c42 -226 21 -488 -56 -675 -69 -168 -159 -498 -199 -732 -40 -234 -103 -455 -139 -492 -97 -97 -80 366 36 976 55 295 108 706 116 914 19 483 152 488 242 9z m9340 213 c0 -86 -45 -128 -100 -94 -55 34 -100 104 -100 156 0 52 45 94 100 94 55 0 100 -70 100 -156z m-4389 -1248 c-79 -197 -100 -105 -105 462 -3 390 28 743 69 784 115 117 147 -969 36 -1246z m751 462 c-80 -695 -262 -835 -263 -203 -1 272 -30 601 -65 730 -59 220 -49 226 161 100 197 -119 216 -193 167 -627z m938 486 c0 -79 -45 -144 -100 -144 -55 0 -100 93 -100 206 0 113 45 178 100 144 55 -34 100 -127 100 -206z m-21340 -117 c-33 -33 -56 26 -52 131 5 117 28 141 60 61 29 -72 26 -159 -8 -192z m18055 -442 l-97 -335 -9 458 c-5 252 25 493 66 535 120 122 145 -292 40 -658z m-10273 554 c232 -89 193 -264 -42 -189 -134 42 -221 11 -261 -93 -78 -202 -201 -201 -279 2 -115 301 170 438 582 280z m8926 -235 c110 -292 109 -294 -120 -144 -304 200 -396 440 -167 440 102 0 222 -123 287 -296z m770 66 c381 -354 175 -510 -214 -163 -178 160 -324 313 -324 342 0 132 315 28 538 -179z m-6744 -407 c-95 -87 -109 -71 -59 70 36 101 71 258 79 350 7 92 33 61 58 -70 25 -130 -10 -287 -78 -350z m2647 -152 c-41 -308 -65 -741 -53 -960 16 -318 -5 -374 -104 -275 -68 68 -111 293 -95 499 16 206 33 607 38 890 6 399 39 503 148 462 110 -43 125 -175 66 -616z m8495 539 c32 -82 19 -150 -28 -150 -48 0 -113 68 -144 150 -32 83 -19 150 28 150 48 0 113 -67 144 -150z m-15636 -156 c0 -58 -45 -78 -100 -44 -55 34 -100 82 -100 106 0 24 45 44 100 44 55 0 100 -48 100 -106z m-6228 -1021 c-22 -178 -40 -8 -39 377 0 385 18 530 40 323 22 -208 21 -523 -1 -700z m1503 302 c-37 -212 -44 -209 -118 50 -43 151 -43 353 0 450 69 154 83 148 118 -50 21 -124 21 -326 0 -450z m12185 352 c-33 -33 -56 26 -52 131 5 117 28 141 60 61 29 -72 26 -159 -8 -192z m9437 198 c-5 -103 -255 -425 -331 -425 -34 0 -10 113 52 250 106 232 286 345 279 175z m-15660 -1147 c-19 -919 -160 -1258 -285 -689 -37 168 -15 394 51 516 83 157 85 247 6 326 -167 167 -130 547 66 661 96 56 176 103 178 105 2 2 -5 -412 -16 -919z m8270 217 c-94 -582 -236 -899 -351 -784 -52 51 209 1252 306 1408 126 204 142 -22 45 -624z m-9645 260 c82 -213 -63 -414 -173 -241 -118 186 -111 386 14 386 57 0 128 -65 159 -145z m7547 -286 c-79 -79 -109 -53 -109 94 0 265 140 405 184 185 19 -93 -14 -218 -75 -279z m9257 106 c-28 -69 -50 -12 -50 125 0 138 22 194 50 125 28 -69 28 -181 0 -250z m-21010 -141 c-27 -147 -102 -316 -167 -375 -89 -82 -102 -63 -54 74 36 101 65 270 65 375 0 106 46 192 102 192 56 0 80 -120 54 -266z m14900 -812 c-123 -122 -148 66 -79 584 l73 544 31 -536 c16 -295 5 -561 -25 -592z m2234 403 c-8 -387 -25 -429 -90 -225 -116 361 -116 700 0 700 55 0 96 -214 90 -475z m-10470 55 c-93 -93 -120 -67 -120 120 0 187 27 213 120 120 93 -93 93 -147 0 -240z m6240 47 c-33 -33 -56 26 -52 131 5 117 28 141 60 61 29 -72 26 -159 -8 -192z m3640 23 c0 -137 -45 -250 -100 -250 -112 0 -137 330 -33 433 110 111 133 79 133 -183z m-16118 -250 c3 -220 -37 -400 -88 -400 -52 0 -94 180 -94 400 0 220 40 400 88 400 49 0 91 -180 94 -400z m1718 129 c0 -259 -8 -264 -175 -97 -153 153 -156 187 -25 270 204 129 200 133 200 -173z m7024 21 c-26 -137 -65 -250 -86 -250 -21 0 -38 113 -38 250 0 138 39 250 86 250 48 0 65 -112 38 -250z m-4895 -50 c-53 -201 -144 -251 -255 -140 -95 94 34 340 177 340 81 0 110 -76 78 -200z m13642 -425 c-24 -124 -44 -22 -44 225 0 248 20 349 44 225 23 -124 23 -326 0 -450z m-19805 -2 c-28 -68 -49 12 -47 177 3 165 25 220 50 123 26 -97 24 -232 -3 -300z m11935 -1312 c-78 -78 -104 75 -92 540 23 958 136 1163 171 309 17 -438 -15 -785 -79 -849z m-876 715 c-100 -312 -105 -302 -108 224 -3 464 13 515 105 326 76 -158 77 -320 3 -550z m-6818 224 c51 0 93 -45 93 -100 0 -157 -272 -117 -336 50 -32 83 -26 229 13 325 61 151 76 144 104 -50 18 -124 75 -225 126 -225z m19394 198 c60 -111 76 -254 36 -318 -48 -79 -96 -54 -147 77 -162 414 -79 595 111 241z m-22801 22 c0 -125 -226 -320 -370 -320 -195 0 -157 278 45 331 285 74 325 73 325 -11z m2498 -245 c1 -41 -43 -75 -98 -75 -55 0 -99 101 -98 225 1 182 20 196 98 75 53 -82 98 -184 98 -225z m5400 173 c-70 -84 -153 -127 -184 -95 -32 32 8 100 89 151 212 134 239 117 95 -56z m4476 -711 c-75 -1215 -280 -1441 -260 -287 l16 900 -315 -33 c-253 -26 -303 -1 -253 127 44 116 170 152 462 133 l401 -27 -51 -813z m1400 513 c-59 -192 -145 -350 -191 -350 -105 0 -105 7 27 385 150 432 297 400 164 -35z m876 250 c-34 -55 -107 -100 -162 -100 -55 0 -72 45 -38 100 34 55 107 100 162 100 55 0 72 -45 38 -100z m4779 -100 c-29 -110 -70 -200 -91 -200 -21 0 -38 90 -38 200 0 110 41 200 91 200 49 0 67 -90 38 -200z m2783 -67 c-118 -203 -146 -138 -50 113 35 90 84 142 110 116 25 -26 -1 -129 -60 -229z m-16812 67 c0 -55 -48 -100 -106 -100 -58 0 -78 45 -44 100 34 55 82 100 106 100 24 0 44 -45 44 -100z m3511 -229 c-81 -81 -111 -70 -111 42 0 199 134 334 184 185 21 -64 -12 -166 -73 -227z m9755 -198 c-28 -68 -49 12 -47 177 3 165 25 220 50 123 26 -97 24 -232 -3 -300z m-18206 44 c-95 -19 -248 -3 -341 35 -151 62 -148 78 31 146 116 45 259 30 341 -35 118 -95 113 -118 -31 -146z m990 183 c35 -56 -42 -100 -174 -100 -130 0 -289 -53 -354 -118 -65 -65 -146 -91 -179 -58 -33 33 67 130 223 214 340 185 403 193 484 62z m19650 -25 c0 -41 -79 -83 -175 -92 -96 -10 -242 -27 -325 -39 -82 -13 -189 -28 -237 -33 -48 -6 -31 -79 38 -162 95 -115 158 -124 262 -38 102 85 137 84 137 -1 0 -176 -499 -336 -652 -209 -70 58 -188 93 -262 78 -79 -17 -136 55 -136 171 0 134 57 190 173 171 96 -16 296 35 445 113 281 147 732 173 732 41z m-21600 -137 c0 -21 -90 -38 -200 -38 -110 0 -200 41 -200 91 0 49 90 67 200 38 110 -29 200 -70 200 -91z m8700 -98 c0 -121 -25 -125 -140 -19 -76 71 -118 163 -93 206 70 114 233 -17 233 -187z m7300 110 c193 -74 305 -140 250 -147 -553 -67 -1052 -63 -1163 7 -102 64 -80 87 82 88 121 1 247 47 281 102 76 122 111 119 550 -50z m2100 -573 c-71 -345 -170 -695 -221 -777 -102 -166 -84 -44 135 920 174 769 248 647 86 -143z m739 39 c150 -657 148 -699 -49 -1075 l-206 -391 36 727 c30 594 11 718 -104 674 -104 -40 -125 4 -79 173 33 124 61 305 62 401 3 412 197 122 340 -509z m-11562 465 c-22 -65 -93 -136 -158 -158 -73 -24 -96 21 -58 119 69 181 276 219 216 39z m-1354 -238 c-33 -172 -82 -224 -149 -157 -111 111 -31 414 109 414 49 0 67 -116 40 -257z m3623 50 c-86 -139 -146 -113 -146 63 0 86 46 128 102 93 56 -35 75 -105 44 -156z m2754 -310 c0 -284 -30 -487 -66 -450 -88 88 -150 680 -89 840 98 256 155 114 155 -390z m1463 205 c-35 -172 -63 -429 -63 -570 0 -147 -36 -217 -83 -163 -115 130 -22 1045 106 1045 61 0 77 -125 40 -312z m-11763 16 c0 -54 -90 -145 -200 -204 -220 -118 -269 -9 -80 180 145 145 280 156 280 24z m1050 -4 c-34 -55 -82 -100 -106 -100 -24 0 -44 45 -44 100 0 55 48 100 106 100 58 0 78 -45 44 -100z m950 -50 c0 -82 -45 -150 -100 -150 -55 0 -100 68 -100 150 0 83 45 150 100 150 55 0 100 -67 100 -150z m19929 -148 c29 -111 22 -202 -14 -202 -103 0 -311 371 -245 437 89 89 200 -12 259 -235z m-23707 80 c305 -92 439 -92 586 0 215 134 592 159 592 38 0 -44 -52 -132 -117 -197 -88 -88 -146 -75 -241 55 -114 155 -133 144 -196 -109 -48 -191 -118 -263 -217 -225 -80 31 -187 56 -237 56 -51 0 -92 73 -92 162 0 133 -27 140 -150 38 -111 -92 -185 -96 -284 -13 -74 61 -164 82 -200 45 -36 -36 -66 10 -66 101 0 198 97 206 622 49z m13028 -182 c-38 -118 -91 -193 -118 -165 -28 27 -20 147 18 265 38 118 91 193 118 165 28 -27 20 -147 -18 -265z m2468 -22 c-165 -165 -147 -258 57 -298 119 -24 137 -58 58 -108 -64 -41 -186 -4 -271 80 -139 139 -138 174 11 348 92 107 188 172 215 145 27 -26 -5 -102 -70 -167z m580 147 c0 -41 -45 -142 -98 -225 -78 -121 -97 -107 -98 75 -1 124 43 225 98 225 55 0 99 -34 98 -75z m-5655 -250 c-44 -124 -96 -799 -117 -1500 -28 -949 -70 -1275 -165 -1275 -70 0 -148 21 -174 46 -41 42 24 958 153 2154 27 248 51 529 54 625 3 96 79 175 168 175 124 0 143 -51 81 -225z m6806 -400 c-39 -344 -115 -693 -168 -775 -77 -120 -85 -114 -39 33 32 101 58 450 58 775 0 363 42 592 110 592 75 0 88 -195 39 -625z m4953 377 c-160 -192 -402 -198 -402 -9 0 79 101 159 225 179 295 47 330 14 177 -170z m-19334 -640 c30 -576 8 -700 -133 -754 -198 -76 -359 125 -274 342 32 82 82 210 112 283 36 87 -10 121 -134 100 -277 -48 -328 412 -54 484 111 29 228 122 260 207 107 277 187 40 223 -662z m16389 513 c-32 -151 -66 -581 -76 -955 -9 -374 -54 -703 -99 -731 -45 -28 -82 -3 -82 55 0 58 -72 106 -161 106 -125 0 -146 61 -92 275 37 151 109 290 160 308 51 19 93 131 94 250 0 269 189 967 262 967 29 0 26 -124 -6 -275z m1661 53 c-71 -71 -118 -77 -118 -15 0 57 30 134 67 170 36 37 90 44 118 15 28 -28 -2 -105 -67 -170z m-12193 -21 c151 -4 275 -36 275 -70 0 -80 -378 -184 -675 -186 -124 0 -225 -46 -225 -101 0 -55 135 -100 300 -100 165 0 300 -45 300 -100 0 -55 -147 -100 -326 -100 -218 0 -367 -66 -452 -201 -92 -148 -190 -186 -367 -141 -197 49 -269 4 -400 -249 -88 -170 -226 -309 -308 -309 -202 0 -184 124 47 322 107 92 226 338 263 547 93 513 206 631 605 631 186 0 338 50 338 111 0 68 66 81 175 32 96 -43 299 -82 450 -86z m11335 -130 c-33 -33 -56 26 -52 131 5 117 28 141 60 61 29 -72 26 -159 -8 -192z m-15862 -129 c-337 -301 -502 -336 -573 -123 -44 132 439 415 718 421 157 3 130 -52 -145 -298z m2538 152 c-33 -87 -1 -151 78 -153 82 -2 43 -81 -100 -200 -350 -292 -431 -240 -244 153 161 338 383 505 266 200z m16464 50 c0 -55 -48 -100 -106 -100 -58 0 -78 45 -44 100 34 55 82 100 106 100 24 0 44 -45 44 -100z m-17600 -103 c0 -120 -282 -248 -364 -166 -88 88 61 269 220 269 79 0 144 -46 144 -103z m5500 -720 c0 -390 -17 -692 -37 -669 -20 23 -69 373 -107 777 -49 513 -38 716 37 669 60 -37 107 -379 107 -777z m3499 598 c-2 -331 -110 -675 -211 -675 -48 0 -87 101 -87 225 2 331 110 675 211 675 48 0 87 -101 87 -225z m8097 32 c144 -269 133 -296 -98 -236 -238 63 -334 190 -248 329 96 155 233 119 346 -93z m-13338 -483 c-121 -120 -179 78 -101 346 l82 280 38 -284 c21 -156 12 -310 -19 -342z m2166 -374 c27 -330 18 -712 -19 -850 -49 -182 -86 -59 -136 450 -37 385 -65 857 -62 1050 9 533 157 89 217 -650z m11973 500 c0 -166 -17 -174 -97 -50 -53 82 -97 240 -97 350 0 166 17 174 97 50 53 -82 97 -240 97 -350z m-23797 150 c0 -111 -67 -200 -150 -200 -152 0 -205 212 -83 333 126 127 233 66 233 -133z m1300 -11 c0 -49 -214 -88 -475 -86 -411 3 -452 21 -304 133 182 139 779 102 779 -47z m951 110 c111 -181 -58 -499 -266 -499 -126 0 -180 47 -143 125 32 69 86 204 120 300 68 195 194 227 289 74z m4091 -235 c-65 -167 -242 -229 -242 -84 0 97 223 330 271 283 18 -19 5 -108 -29 -199z m9794 86 c-31 -82 -98 -150 -147 -150 -49 0 -89 68 -89 150 0 82 66 150 147 150 89 0 124 -59 89 -150z m4230 -175 c-28 -69 -50 -12 -50 125 0 138 22 194 50 125 28 -69 28 -181 0 -250z m-6466 -129 c0 -184 -50 -365 -111 -403 -77 -47 -89 27 -42 244 38 174 28 313 -23 313 -213 0 -649 -2204 -594 -3000 40 -576 -52 -1062 -234 -1243 -77 -76 -89 -57 -41 68 37 97 32 299 -11 450 -74 260 -82 251 -162 -175 -46 -247 -119 -742 -161 -1100 -108 -920 -255 -1098 -330 -400 -33 303 -29 595 8 650 118 173 294 1169 354 2000 70 973 246 1253 249 395 1 -421 29 -551 98 -445 53 82 100 353 103 600 3 248 45 652 92 900 52 267 50 472 -5 506 -50 31 -64 256 -30 500 60 435 69 444 451 459 377 15 389 5 389 -319z m4453 -1271 c-32 -1506 -184 -3140 -303 -3258 -75 -75 -52 554 90 2383 71 919 89 1700 42 1762 -47 62 -58 197 -24 300 34 104 78 244 98 313 105 350 129 -21 97 -1500z m3007 1252 c-101 -102 -185 51 -102 186 63 102 87 102 121 1 23 -70 15 -154 -19 -187z m-16917 84 c31 -49 -57 -118 -194 -152 -297 -75 -333 -259 -49 -259 305 0 238 -266 -111 -441 -305 -152 -310 -150 -251 68 32 123 60 343 61 491 1 242 83 314 420 370 38 7 94 -28 124 -77z m17657 -11 c0 -55 -48 -100 -106 -100 -58 0 -78 45 -44 100 34 55 82 100 106 100 24 0 44 -45 44 -100z m-21400 -220 c0 -99 -45 -180 -100 -180 -55 0 -100 -45 -100 -100 0 -55 70 -100 156 -100 86 0 128 -45 94 -100 -90 -146 -450 -122 -450 30 0 71 -53 183 -119 249 -91 91 -160 81 -300 -46 -169 -153 -181 -150 -181 47 0 262 239 402 669 390 249 -7 331 -54 331 -190z m6100 17 c0 -57 -69 -130 -153 -162 -103 -40 -131 -127 -87 -267 61 -193 54 -196 -97 -45 -282 282 -185 544 212 569 69 4 125 -38 125 -95z m2815 -1322 c-141 -141 -496 6 -569 236 -51 163 -119 189 -355 137 -387 -85 -374 93 18 256 336 139 486 38 489 -329 1 -96 72 -175 158 -175 93 0 145 71 128 175 -16 96 1 223 38 282 37 59 6 227 -71 374 -122 235 -118 277 31 361 149 84 171 20 198 -564 16 -362 -13 -701 -65 -753z m7365 1275 c57 -50 -401 -850 -487 -850 -48 0 -61 68 -29 150 69 180 -123 204 -204 25 -31 -69 -46 -35 -32 75 14 121 112 213 248 232 123 18 224 66 224 108 0 182 -142 183 -460 5 l-340 -192 0 242 c0 199 59 249 325 281 288 35 671 -4 755 -76z m-7850 -13 c104 -104 -109 -408 -327 -465 -232 -61 -257 44 -79 329 124 199 288 254 406 136z m3470 -237 c0 -55 -70 -100 -156 -100 -86 0 -128 45 -94 100 34 55 104 100 156 100 52 0 94 -45 94 -100z m8761 -58 c-34 -87 -61 -200 -61 -250 0 -156 -175 -102 -243 75 -35 92 -6 204 65 248 203 130 305 98 239 -73z m2205 -167 c-28 -69 -50 -12 -50 125 0 138 22 194 50 125 28 -69 28 -181 0 -250z m634 225 c0 -55 -45 -100 -100 -100 -55 0 -100 45 -100 100 0 55 45 100 100 100 55 0 100 -45 100 -100z m-8690 -606 c-92 -232 -98 -233 -104 -27 -3 119 26 299 66 400 59 151 78 155 104 27 17 -86 -12 -266 -66 -400z m6788 431 c-1 -41 -90 -187 -198 -325 -206 -264 -272 -122 -96 207 100 188 298 268 294 118z m-20198 -119 c0 -52 -133 -173 -296 -270 -226 -133 -271 -206 -188 -305 60 -72 170 -131 246 -131 304 0 111 -303 -312 -490 -248 -109 -450 -246 -450 -304 0 -141 56 -134 405 47 280 144 295 142 295 -50 0 -150 -66 -203 -250 -203 -243 0 -348 -150 -152 -217 116 -39 -326 -999 -545 -1180 -126 -105 -153 -100 -153 29 0 86 44 184 99 217 79 49 82 247 8 530 -4 15 -104 -24 -222 -87 -183 -98 -206 -91 -154 44 36 94 -9 200 -110 260 -150 88 -152 113 -21 201 211 141 274 129 493 -90 250 -250 465 -58 256 228 -75 101 -109 253 -77 336 49 129 24 134 -165 33 -278 -149 -349 -86 -268 239 57 225 89 240 306 141 290 -132 603 -42 489 140 -43 69 -65 227 -49 351 20 150 -23 225 -128 225 -86 0 -157 72 -157 161 0 120 61 145 242 100 133 -33 346 -19 475 33 307 123 383 125 383 12z m12773 -266 c-123 -123 -371 49 -308 214 56 146 77 147 218 6 85 -85 126 -184 90 -220z m-14616 48 c30 -48 -15 -88 -101 -88 -85 0 -219 -146 -298 -325 l-142 -325 -8 461 c-8 440 3 459 243 413 139 -26 276 -88 306 -136z m4543 62 c0 -82 -18 -150 -39 -150 -22 0 -66 68 -97 150 -32 82 -14 150 39 150 53 0 97 -68 97 -150z m2718 -72 c-71 -71 -118 -77 -118 -15 0 134 118 252 185 185 28 -28 -2 -105 -67 -170z m382 72 c0 -82 -44 -150 -97 -150 -53 0 -71 68 -39 150 31 82 75 150 97 150 21 0 39 -68 39 -150z m-4725 -175 c-23 -69 -124 -125 -225 -125 -101 0 -202 56 -225 125 -26 79 56 125 225 125 169 0 251 -46 225 -125z m1019 -478 c-75 -47 -96 -175 -56 -336 36 -144 25 -261 -24 -261 -247 0 -281 952 -39 1089 145 82 181 55 208 -159 18 -142 -22 -292 -89 -333z m19506 509 c0 -118 -195 -244 -267 -173 -71 72 55 267 173 267 52 0 94 -42 94 -94z m-900 -106 c0 -55 -70 -100 -156 -100 -86 0 -128 45 -94 100 34 55 104 100 156 100 52 0 94 -45 94 -100z m-7580 -443 c-30 -52 -86 -7 -125 100 -38 106 -45 235 -15 286 30 52 86 7 125 -100 38 -106 45 -235 15 -286z m5080 343 c0 -55 -48 -100 -106 -100 -58 0 -78 45 -44 100 34 55 82 100 106 100 24 0 44 -45 44 -100z m-19800 -94 c0 -118 -195 -244 -267 -173 -71 72 55 267 173 267 52 0 94 -42 94 -94z m7249 -8 c-35 -56 -105 -75 -156 -44 -139 86 -113 146 63 146 86 0 128 -46 93 -102z m6846 -154 c-60 -73 -175 -107 -255 -76 -108 41 -117 89 -35 188 60 73 175 107 255 76 108 -41 117 -89 35 -188z m1426 99 c-124 -86 -200 -195 -171 -243 29 -47 8 -114 -48 -149 -143 -88 -128 283 18 429 66 66 189 120 272 120 106 0 84 -48 -71 -157z m1179 69 c0 -48 -67 -144 -150 -212 -125 -104 -150 -90 -150 88 0 122 64 212 150 212 83 0 150 -39 150 -88z m-14000 -112 c0 -55 -45 -100 -100 -100 -55 0 -100 45 -100 100 0 55 45 100 100 100 55 0 100 -45 100 -100z m5600 -50 c0 -82 -42 -150 -94 -150 -126 0 -217 156 -137 236 113 113 231 69 231 -86z m-3500 -100 c0 -82 -44 -150 -97 -150 -53 0 -71 68 -39 150 31 82 75 150 97 150 21 0 39 -68 39 -150z m500 111 c0 -21 -67 -167 -149 -325 l-150 -286 0 325 c-1 222 46 325 149 325 83 0 150 -17 150 -39z m15800 -157 c0 -138 -1000 -598 -1165 -535 -75 30 -213 -8 -305 -83 -147 -119 -159 -114 -99 47 38 101 69 213 69 250 0 37 201 80 446 96 245 16 571 94 725 174 332 173 329 173 329 51z m644 -314 c-104 -167 -261 51 -182 254 61 161 76 162 158 16 50 -89 61 -210 24 -270z m-19390 117 c-36 -59 -114 -107 -172 -107 -66 0 -59 57 20 152 137 166 260 129 152 -45z m4526 4 c26 -79 -29 -116 -144 -97 -102 17 -242 -4 -311 -47 -69 -44 -125 -34 -125 22 0 122 312 316 444 277 51 -16 113 -86 136 -155z m-7520 -261 c0 -193 -36 -350 -80 -350 -44 0 -80 157 -80 350 0 193 36 350 80 350 44 0 80 -157 80 -350z m14700 77 c-33 -33 -56 26 -52 131 5 117 28 141 60 61 29 -72 26 -159 -8 -192z m2040 -39 c0 -49 -90 -88 -200 -88 -221 0 -227 12 -138 244 47 125 93 135 200 46 76 -63 138 -154 138 -202z m-7700 119 c0 -51 -101 -113 -225 -137 l-225 -45 225 -74 c124 -41 225 -111 225 -155 0 -45 79 -102 175 -127 96 -25 6 -51 -200 -57 -264 -9 -375 30 -375 131 0 226 -615 172 -675 -59 -64 -244 -230 -235 -296 16 -63 240 -203 254 -436 43 -109 -98 -196 -118 -236 -54 -143 232 551 448 1918 597 69 8 125 -28 125 -79z m10593 -232 c-4 -179 -46 -415 -93 -525 -63 -147 -88 -61 -93 325 -4 289 38 525 93 525 55 0 97 -146 93 -325z m-7223 -689 c-32 -503 -110 -965 -173 -1025 -86 -83 -95 65 -38 589 42 385 84 813 93 950 23 346 38 400 113 400 35 0 38 -411 5 -914z m6950 -477 c-7 -243 -57 -486 -112 -541 -65 -65 -96 238 -90 892 8 915 16 956 112 540 57 -247 97 -649 90 -891z m4180 1141 c0 -82 -40 -150 -89 -150 -49 0 -116 68 -147 150 -35 91 0 150 89 150 81 0 147 -68 147 -150z m-20557 -39 c65 -105 -221 -366 -308 -280 -83 84 37 369 156 369 53 0 122 -40 152 -89z m890 -53 c35 -90 135 -122 273 -85 213 55 214 50 50 -200 -93 -141 -160 -317 -150 -390 33 -245 -5 -383 -106 -383 -55 0 -100 155 -100 344 0 189 -45 372 -100 406 -124 77 -133 450 -11 450 49 0 114 -64 144 -142z m10667 -119 c0 -76 -84 -139 -188 -139 -253 0 -447 -254 -383 -499 29 -111 11 -226 -38 -257 -50 -31 -91 -188 -91 -350 0 -162 -49 -294 -110 -294 -75 0 -88 189 -40 601 51 435 140 681 325 891 253 289 525 313 525 47z m2500 161 c0 -55 -48 -100 -106 -100 -58 0 -78 45 -44 100 34 55 82 100 106 100 24 0 44 -45 44 -100z m-6543 -111 c97 -158 109 -1089 13 -1089 -116 0 -370 650 -370 947 0 260 227 351 357 142z m10843 11 c0 -55 -48 -100 -106 -100 -58 0 -78 45 -44 100 34 55 82 100 106 100 24 0 44 -45 44 -100z m2800 61 c0 -22 -70 -66 -155 -99 -89 -34 -129 -18 -94 39 58 95 249 141 249 60z m-18600 -161 c0 -55 -45 -100 -100 -100 -55 0 -100 45 -100 100 0 55 45 100 100 100 55 0 100 -45 100 -100z m10726 -243 c-30 -157 -96 -224 -186 -189 -241 92 -152 432 113 432 72 0 101 -95 73 -243z m4771 68 c-7 -151 -269 -420 -340 -348 -41 40 -115 73 -165 73 -191 0 -94 203 127 265 330 93 381 94 378 10z m2303 -25 c0 -55 -45 -100 -100 -100 -55 0 -100 45 -100 100 0 55 45 100 100 100 55 0 100 -45 100 -100z m-15041 -410 c-119 -281 -156 -309 -214 -161 -43 111 -2 252 109 375 242 267 278 194 105 -214z m941 160 c68 -82 108 -154 87 -158 -273 -61 -587 -89 -587 -54 0 336 294 460 500 212z m5191 -135 c-148 -51 -223 52 -139 189 54 87 95 82 157 -18 50 -80 42 -151 -18 -171z m-9365 60 c-55 -69 -124 -192 -155 -275 -31 -85 -59 -32 -63 125 -6 190 42 275 154 275 116 0 134 -36 64 -125z m2474 -69 c0 -267 -166 -348 -228 -111 -52 199 -1 305 145 305 46 0 83 -87 83 -194z m14682 -81 c-18 -151 -77 -275 -132 -275 -55 0 -114 124 -132 275 -23 201 13 275 132 275 119 0 155 -74 132 -275z m-4816 -150 c-28 -69 -50 -12 -50 125 0 138 22 194 50 125 28 -69 28 -181 0 -250z m-14466 75 c0 -69 -67 -182 -150 -250 -123 -102 -150 -94 -150 48 0 113 -52 153 -150 116 -145 -56 -207 46 -96 157 108 108 546 51 546 -71z m13150 50 c-34 -55 -107 -100 -162 -100 -55 0 -72 45 -38 100 34 55 107 100 162 100 55 0 72 -45 38 -100z m649 -49 c70 -84 92 -225 51 -325 -50 -119 -88 -136 -120 -51 -87 234 -230 126 -230 -175 0 -165 -45 -300 -100 -300 -141 0 -124 564 24 801 149 238 212 247 375 50z m-16830 -426 c-25 -96 -46 -17 -46 175 0 193 21 271 46 175 25 -96 25 -254 0 -350z m19031 -281 c0 -656 -126 -854 -244 -383 -82 328 36 1156 155 1082 49 -30 89 -345 89 -699z m-4200 398 c0 -314 -235 -279 -282 41 -21 144 21 217 125 217 102 0 157 -90 157 -258z m-9402 -123 c-1 -146 -14 -148 -98 -19 -127 196 -127 328 0 250 55 -34 99 -138 98 -231z m15002 192 c0 -49 -67 -116 -150 -147 -91 -35 -150 0 -150 89 0 81 68 147 150 147 83 0 150 -40 150 -89z m1200 4 c0 -46 -82 -158 -181 -248 -224 -203 -492 -26 -304 201 121 146 485 182 485 47z m-17764 -165 c-35 -92 0 -150 93 -150 82 0 177 70 210 156 33 86 105 129 160 94 124 -76 135 -450 13 -450 -178 0 -346 -597 -235 -840 130 -286 -45 -1272 -186 -1048 -49 76 -89 262 -89 413 -1 177 -55 275 -152 275 -212 0 -186 225 50 427 246 211 284 873 50 873 -83 0 -150 89 -150 200 0 110 66 200 147 200 89 0 124 -59 89 -150z m3764 -18 c0 -25 -67 -114 -150 -196 -133 -134 -150 -122 -150 104 0 184 41 238 150 196 83 -31 150 -78 150 -104z m1251 -114 c-81 -81 -374 -115 -472 -55 -163 100 21 209 273 161 141 -27 231 -75 199 -106z m3087 -300 c44 -285 32 -411 -36 -369 -56 34 -102 248 -102 474 0 505 51 466 138 -105z m11212 382 c34 -55 -28 -100 -138 -100 -110 0 -228 -45 -262 -100 -34 -55 -11 -100 50 -100 61 0 84 -45 50 -100 -93 -151 -250 -120 -250 50 0 83 -45 150 -100 150 -197 0 -95 187 125 229 396 77 462 73 525 -29z m-13592 -134 c68 25 92 -73 64 -263 -45 -304 -222 -430 -222 -159 0 80 -90 207 -199 284 -228 160 -157 307 87 182 89 -46 211 -65 270 -44z m-6810 -398 c20 -65 63 -455 96 -868 49 -621 38 -716 -64 -550 -69 110 -148 425 -177 700 -30 285 -96 478 -153 450 -144 -72 -129 -902 22 -1220 70 -149 128 -407 128 -575 0 -168 40 -305 88 -305 49 0 111 -86 139 -191 34 -132 -12 -208 -149 -244 -109 -28 -168 -100 -132 -158 36 -59 29 -107 -15 -107 -45 0 -89 276 -99 613 -10 337 -66 661 -125 720 -119 119 -140 895 -44 1600 57 416 82 450 256 357 106 -57 209 -156 229 -222z m7781 132 c29 -110 12 -175 -38 -144 -50 31 -91 121 -91 200 0 207 68 177 129 -56z m9671 -6 c0 -52 -45 -94 -100 -94 -55 0 -100 70 -100 156 0 86 45 128 100 94 55 -34 100 -104 100 -156z m-11525 -21 c69 24 125 -29 125 -119 0 -164 -369 -954 -445 -954 -88 0 63 549 168 614 67 42 -13 144 -206 261 -342 208 -330 362 18 233 118 -44 271 -59 340 -35z m13225 -23 c0 -82 -45 -150 -100 -150 -55 0 -100 68 -100 150 0 83 45 150 100 150 55 0 100 -67 100 -150z m-14420 -217 c30 -200 -234 -512 -342 -404 -31 31 -26 197 12 369 74 339 282 361 330 35z m9951 -361 c-32 -315 -101 -572 -151 -572 -51 0 -80 79 -64 175 16 96 -8 234 -53 306 -50 80 -20 200 77 308 88 97 160 237 160 311 0 73 20 113 45 88 25 -24 18 -302 -14 -616z m-12431 372 c0 -24 -45 -44 -100 -44 -55 0 -100 48 -100 106 0 58 45 78 100 44 55 -34 100 -82 100 -106z m4200 -64 c0 -162 -30 -190 -111 -109 -61 61 -81 160 -44 220 103 168 155 130 155 -111z m8660 -53 c-33 -33 -56 26 -52 131 5 117 28 141 60 61 29 -72 26 -159 -8 -192z m-17801 -77 c75 -301 271 -320 539 -52 318 318 537 158 462 -338 -187 -1234 -150 -1565 214 -1925 103 -102 180 -252 171 -335 -30 -275 -167 -600 -255 -600 -47 0 -31 120 36 267 93 204 94 276 3 307 -65 21 -93 104 -63 182 31 79 4 144 -58 144 -63 0 -140 -67 -172 -150 -31 -82 -125 -150 -207 -150 -105 0 -128 53 -77 175 143 340 166 602 57 669 -134 83 -143 753 -15 1089 131 346 31 392 -306 142 -355 -262 -483 -166 -550 412 -52 454 117 578 221 163z m13043 -725 c-63 -261 -115 -554 -115 -650 0 -106 -75 -175 -190 -175 -105 0 -258 -123 -340 -275 l-149 -275 -4 271 c-2 166 95 363 253 510 178 164 273 376 307 679 26 242 74 553 105 690 l56 250 96 -275 c64 -183 57 -432 -19 -750z m1704 800 c44 -1326 90 -1831 183 -2004 152 -285 139 -607 -32 -778 -78 -79 -162 -143 -186 -143 -24 0 -71 394 -105 875 -34 481 -91 1179 -127 1550 -58 585 -45 675 97 675 90 0 167 -79 170 -175z m7994 -75 c0 -82 -17 -150 -38 -150 -21 0 -94 68 -162 150 -102 123 -95 150 38 150 89 0 162 -67 162 -150z m-6276 -475 c39 -355 18 -475 -82 -475 -74 0 -188 -180 -254 -400 -126 -421 -228 -500 -325 -249 -73 191 36 761 134 701 41 -25 150 10 244 79 199 145 110 510 -104 428 -154 -59 -162 -40 -79 177 32 83 122 127 200 97 78 -30 142 3 142 73 0 281 76 16 124 -431z m4876 369 c0 -86 -46 -128 -102 -93 -56 35 -75 105 -44 156 86 139 146 113 146 -63z m-15608 -84 c64 -77 131 -471 150 -875 18 -404 67 -862 108 -1018 57 -213 24 -353 -133 -565 -305 -413 -401 -922 -447 -2371 -18 -550 -55 -653 -337 -929 -174 -170 -342 -268 -374 -217 -31 51 12 150 97 220 84 70 130 188 101 262 -28 74 -4 258 53 409 57 151 120 454 138 674 46 546 193 1122 407 1600 228 509 218 2170 -15 2528 -222 342 -2 588 252 282z m-2392 2 c0 -21 -67 -94 -150 -162 -123 -102 -150 -95 -150 38 0 89 67 162 150 162 83 0 150 -17 150 -38z m14698 -2147 c-63 -404 -133 -1119 -155 -1589 -55 -1210 -144 -1157 -140 82 3 861 227 3514 313 3692 90 189 76 -1591 -18 -2185z m462 1912 c-33 -33 -56 26 -52 131 5 117 28 141 60 61 29 -72 26 -159 -8 -192z m594 -293 c-95 -505 -175 -349 -91 177 39 241 90 380 114 308 24 -71 13 -289 -23 -485z m-5354 266 c0 -110 -45 -200 -100 -200 -55 0 -100 90 -100 200 0 110 45 200 100 200 55 0 100 -90 100 -200z m5657 -613 l-154 -337 60 450 c71 529 174 738 217 437 17 -117 -39 -364 -123 -550z m3243 557 c0 -24 -45 -44 -100 -44 -55 0 -100 48 -100 106 0 58 45 78 100 44 55 -34 100 -82 100 -106z m-15256 -504 c-168 -721 -244 -788 -244 -215 0 542 74 775 248 775 101 0 100 -111 -4 -560z m633 279 c22 -66 -32 -119 -119 -119 -87 0 -158 71 -158 158 0 177 215 146 277 -39z m-3027 -19 c-34 -55 -82 -100 -106 -100 -24 0 -44 45 -44 100 0 55 48 100 106 100 58 0 78 -45 44 -100z m19143 -337 c4 -48 -58 -34 -137 32 -79 66 -116 192 -83 280 53 138 72 134 137 -32 42 -106 79 -232 83 -280z m-22427 12 c-28 -69 -50 -12 -50 125 0 138 22 194 50 125 28 -69 28 -181 0 -250z m7491 -452 c-118 -117 -148 51 -79 432 l72 395 32 -385 c17 -212 6 -411 -25 -442z m11587 333 c-37 -201 -91 -343 -118 -315 -28 27 -19 214 18 415 38 200 91 342 119 314 27 -27 19 -214 -19 -414z m1483 244 c140 -110 304 -200 364 -200 60 0 109 -50 109 -111 0 -65 -71 -82 -175 -39 -96 39 -299 115 -450 170 -151 55 -275 163 -275 240 0 193 128 175 427 -60z m-5227 -1369 c-134 -750 -205 -1528 -194 -2131 13 -687 -27 -1053 -144 -1322 -114 -262 -162 -672 -162 -1391 0 -561 -19 -1002 -41 -979 -23 23 -62 559 -86 1192 -59 1516 268 4716 531 5208 53 98 96 287 96 419 0 255 124 452 179 286 18 -55 -62 -632 -179 -1282z m-400 969 c0 -165 -37 -300 -83 -300 -45 0 -63 135 -38 300 24 165 61 300 82 300 22 0 39 -135 39 -300z m904 -1017 c-63 -678 -152 -1480 -199 -1783 -78 -501 -85 -461 -84 450 2 550 37 1068 78 1150 61 120 179 985 197 1442 2 50 31 65 63 32 33 -32 8 -614 -55 -1291z m5737 1202 c-40 -64 11 -176 111 -249 209 -152 156 -271 -80 -181 -215 83 -306 361 -150 460 175 112 202 105 119 -30z m-16602 -243 c34 -87 61 -267 61 -400 0 -133 45 -242 100 -242 124 0 125 -105 4 -297 -125 -197 -222 -81 -265 318 -19 181 -60 430 -89 554 -61 254 96 310 189 67z m13561 58 c0 -55 -48 -100 -106 -100 -58 0 -78 45 -44 100 34 55 82 100 106 100 24 0 44 -45 44 -100z m-12234 -427 c-28 -68 -49 12 -47 177 3 165 25 220 50 123 26 -97 24 -232 -3 -300z m813 52 c61 -206 132 -508 156 -671 51 -332 -140 -1254 -259 -1254 -88 0 -23 1262 79 1527 37 97 24 231 -28 299 -147 190 -230 474 -140 474 45 0 131 -169 192 -375z m1687 50 c-28 -69 -50 -12 -50 125 0 138 22 194 50 125 28 -69 28 -181 0 -250z m11034 113 c0 -55 -45 -72 -100 -38 -55 34 -100 107 -100 162 0 55 45 72 100 38 55 -34 100 -107 100 -162z m-13982 -110 c-65 -65 -118 -199 -118 -298 0 -99 -45 -180 -100 -180 -55 0 -100 67 -100 149 0 169 314 571 388 496 27 -26 -5 -102 -70 -167z m11472 -359 c-5 -258 -44 -716 -86 -1019 -66 -480 -78 -413 -90 531 -9 698 21 1059 86 1019 55 -34 96 -273 90 -531z m-14490 275 c0 -113 -45 -178 -100 -144 -55 34 -100 127 -100 206 0 79 45 144 100 144 55 0 100 -93 100 -206z m16600 -188 c0 -101 90 -206 200 -235 110 -29 200 -106 200 -172 0 -81 -90 -98 -275 -53 -381 94 -461 198 -385 501 72 284 260 254 260 -41z m3099 -131 c1 -117 -246 -88 -379 45 -198 198 -136 269 129 146 137 -64 250 -150 250 -191z m-20176 -16 c41 -218 7 -245 -364 -284 -521 -55 -582 -4 -177 149 175 66 318 177 318 248 0 225 175 137 223 -113z m5377 -65 c0 -107 -45 -194 -100 -194 -55 0 -100 115 -100 256 0 145 43 229 100 194 55 -34 100 -149 100 -256z m-1373 12 c28 -107 27 -219 -4 -249 -81 -82 -323 146 -323 305 0 211 270 164 327 -56z m2854 -723 c-101 -306 -117 -551 -57 -833 152 -703 206 -1660 99 -1767 -67 -67 -125 206 -174 833 -40 514 -114 1041 -163 1171 -60 156 -51 284 24 375 62 75 88 236 56 357 -68 260 117 538 262 393 62 -62 45 -251 -47 -529z m5119 523 c0 -52 -45 -122 -100 -156 -55 -34 -100 8 -100 94 0 86 45 156 100 156 55 0 100 -42 100 -94z m7613 -206 c54 0 71 -45 37 -100 -88 -143 -450 67 -450 261 0 136 17 136 157 -4 87 -86 202 -157 256 -157z m-23633 -108 c-34 -436 -180 -475 -180 -48 0 196 46 356 102 356 55 0 91 -138 78 -308z m5120 114 c0 -52 -45 -122 -100 -156 -55 -34 -100 8 -100 94 0 86 45 156 100 156 55 0 100 -42 100 -94z m15500 -156 c0 -82 -45 -150 -100 -150 -55 0 -100 68 -100 150 0 83 45 150 100 150 55 0 100 -67 100 -150z m-17335 -196 c-78 -203 -306 -196 -478 15 -91 113 -96 145 -13 95 69 -41 203 -31 299 23 211 118 272 75 192 -133z m535 46 c0 -110 -45 -200 -100 -200 -55 0 -100 90 -100 200 0 110 45 200 100 200 55 0 100 -90 100 -200z m400 106 c0 -52 -45 -122 -100 -156 -55 -34 -100 8 -100 94 0 86 45 156 100 156 55 0 100 -42 100 -94z m2836 -197 c-107 -87 -235 -249 -283 -359 -83 -188 -91 -186 -130 46 -46 270 314 655 504 538 66 -41 32 -125 -91 -225z m-6136 -65 c0 -86 -45 -128 -100 -94 -55 34 -100 104 -100 156 0 52 45 94 100 94 55 0 100 -70 100 -156z m980 -194 c0 -192 -45 -350 -101 -350 -55 0 -74 68 -43 150 35 91 0 150 -89 150 -81 0 -147 90 -147 200 0 130 67 200 190 200 150 0 190 -73 190 -350z m18007 95 c31 -163 14 -171 -125 -55 -192 159 -215 344 -37 285 69 -23 141 -126 162 -230z m-10487 116 c0 -22 -70 -66 -155 -99 -89 -34 -129 -18 -94 39 58 95 249 141 249 60z m1936 -736 c79 -506 -47 -560 -216 -93 -135 374 -155 700 -49 806 88 88 179 -157 265 -713z m10500 625 c32 -82 19 -150 -28 -150 -48 0 -113 68 -144 150 -32 83 -19 150 28 150 48 0 113 -67 144 -150z m2164 7 c0 -276 -831 -368 -1341 -149 -146 62 -73 73 241 35 319 -40 508 -11 650 98 253 194 450 201 450 16z m-21400 -96 c0 -77 -67 -166 -150 -197 -192 -74 -194 -403 -2 -562 110 -91 122 -172 46 -313 -153 -285 -273 -228 -282 136 -5 179 -17 393 -26 475 -47 408 21 600 214 600 110 0 200 -63 200 -139z m-2397 -36 c2 -41 90 -179 195 -305 180 -215 211 -220 475 -84 437 226 660 54 575 -445 -70 -415 33 -505 261 -230 120 144 142 131 209 -120 90 -334 40 -413 -158 -250 -115 96 -164 84 -244 -60 -138 -246 -236 -116 -236 313 0 462 -121 526 -395 210 -290 -334 -366 -321 -404 71 l-31 325 -139 -245 c-100 -176 -107 -256 -25 -284 166 -55 140 -221 -36 -221 -82 0 -150 45 -150 100 0 55 -39 100 -86 100 -47 0 -75 -304 -62 -675 22 -637 37 -675 261 -675 186 0 232 48 213 225 -29 275 85 291 245 34 96 -154 91 -216 -25 -313 -81 -66 -150 -216 -154 -333 -4 -117 -30 -157 -58 -88 -85 211 -334 139 -434 -125 -52 -137 -119 -250 -148 -250 -28 0 -52 608 -52 1350 0 1177 21 1350 162 1350 160 0 157 115 -11 525 -51 124 -26 175 88 175 89 0 162 -34 164 -75z m7043 -259 c-34 -184 -10 -528 54 -764 93 -346 89 -449 -17 -524 -104 -73 -106 -104 -8 -144 207 -84 141 -250 -86 -216 -148 23 -254 163 -360 476 -135 400 -133 471 11 716 88 149 160 388 160 530 0 168 55 260 155 260 121 0 140 -72 91 -334z m13115 159 c154 -203 179 -425 49 -425 -50 0 -137 135 -195 300 -117 336 -55 389 146 125z m-16321 -195 c-96 -408 -205 -481 -279 -187 -77 307 -239 322 -698 64 -338 -190 -463 -180 -463 36 0 168 394 304 978 337 l528 30 -66 -280z m6019 -104 c-109 -110 -184 64 -106 245 74 171 80 171 121 -4 24 -100 17 -209 -15 -241z m-577 -59 c38 -324 -135 -357 -219 -42 -89 331 -77 396 62 351 69 -23 139 -162 157 -309z m3484 8 c-28 -69 -50 -12 -50 125 0 138 22 194 50 125 28 -69 28 -181 0 -250z m8587 221 c35 -58 9 -171 -58 -252 -93 -112 -154 -119 -260 -32 -104 87 -110 148 -24 251 136 164 254 175 342 33z m-15603 -96 c-34 -55 -82 -100 -106 -100 -24 0 -44 45 -44 100 0 55 48 100 106 100 58 0 78 -45 44 -100z m1810 -273 c-33 -33 -56 26 -52 131 5 117 28 141 60 61 29 -72 26 -159 -8 -192z m7140 -129 c0 -97 -73 -204 -161 -238 -115 -45 -145 -19 -103 89 35 92 1 151 -89 151 -177 0 -190 117 -29 278 148 148 382 -22 382 -280z m8049 300 c-35 -56 -105 -75 -156 -44 -139 86 -113 146 63 146 86 0 128 -46 93 -102z m1151 -37 c0 -77 68 -166 150 -197 83 -32 150 -130 150 -219 0 -111 -77 -69 -250 137 -271 322 -305 418 -150 418 55 0 100 -63 100 -139z m-2046 -254 c-36 -59 -142 -106 -235 -104 -148 3 -145 21 24 149 205 156 320 131 211 -45z m-13001 -11 c69 -113 -121 -396 -265 -396 -49 0 -88 113 -88 250 0 254 228 348 353 146z m3745 -327 c1 -99 -43 -153 -98 -119 -55 34 -99 183 -98 331 1 210 22 236 98 119 53 -82 98 -231 98 -331z m8302 392 c0 -22 -67 -66 -150 -97 -82 -32 -150 -14 -150 39 0 53 68 97 150 97 83 0 150 -18 150 -39z m-17341 -138 c133 -89 -56 -1738 -202 -1760 -142 -20 -260 545 -154 742 60 112 54 288 -15 486 -167 479 30 762 371 532z m16616 -241 c177 12 225 -37 225 -233 0 -277 -173 -336 -267 -91 -39 101 -134 139 -263 105 -228 -59 -570 90 -570 248 0 67 118 78 325 30 179 -41 426 -67 550 -59z m-10932 -139 c168 -168 190 -382 96 -951 -48 -289 -100 -353 -274 -337 -226 20 -233 45 -113 445 74 249 74 249 -139 59 -354 -316 -347 -109 7 246 208 207 283 344 205 370 -144 48 -171 325 -32 325 51 0 163 -71 250 -157z m13257 115 c0 -23 28 -113 61 -201 45 -117 18 -143 -100 -97 -175 67 -224 340 -61 340 55 0 100 -19 100 -42z m-7705 -202 c86 -104 90 -198 12 -343 -139 -260 -138 -1042 2 -1182 79 -79 78 -168 -3 -320 -117 -218 -306 -287 -306 -111 0 55 44 100 97 100 132 0 11 321 -180 475 -139 112 -137 125 14 125 93 0 169 66 169 147 0 85 -59 124 -140 93 -99 -38 -139 28 -139 228 2 843 181 1141 474 788z m7305 -162 c0 -58 -45 -78 -100 -44 -55 34 -100 82 -100 106 0 24 45 44 100 44 55 0 100 -48 100 -106z m-20381 -622 c35 -344 281 -507 281 -186 0 211 169 379 275 272 34 -34 8 -115 -57 -180 -65 -65 -118 -244 -118 -398 0 -375 -367 -398 -459 -29 -35 138 -120 285 -189 325 -69 41 -154 164 -188 274 -49 160 -13 203 182 214 202 12 248 -38 273 -292z m19531 -100 c162 -40 152 -51 -55 -60 -256 -12 -495 145 -495 323 0 53 79 26 175 -59 96 -86 265 -177 375 -204z m-16850 122 c0 -58 -45 -78 -100 -44 -55 34 -100 82 -100 106 0 24 45 44 100 44 55 0 100 -48 100 -106z m1712 -121 c-98 -98 -110 -86 -56 56 38 99 94 154 125 124 30 -31 0 -112 -69 -180z m2089 102 c1 -69 28 -223 60 -343 49 -182 25 -210 -144 -165 -135 35 -183 106 -143 210 45 117 17 141 -107 93 -166 -63 -238 125 -100 263 115 115 433 73 434 -58z m1837 -150 c-84 -348 -97 -362 -284 -290 -210 80 -195 440 21 496 316 83 329 72 263 -206z m-2766 -112 c66 -90 168 -218 225 -284 75 -88 50 -150 -90 -225 -322 -173 -435 -128 -366 146 81 324 -89 323 -302 -3 -91 -139 -189 -230 -217 -203 -28 28 6 120 76 204 107 128 92 152 -96 152 -163 0 -207 43 -163 158 34 87 61 197 61 244 0 145 743 -16 872 -189z m11828 181 c0 -58 -45 -78 -100 -44 -55 34 -100 82 -100 106 0 24 45 44 100 44 55 0 100 -48 100 -106z m-16400 -200 c0 -52 -45 -94 -100 -94 -55 0 -100 70 -100 156 0 86 45 128 100 94 55 -34 100 -104 100 -156z m2936 56 c-31 -82 -75 -150 -97 -150 -21 0 -39 68 -39 150 0 83 44 150 97 150 53 0 71 -67 39 -150z m4764 -6 c0 -86 -46 -128 -102 -93 -56 35 -75 105 -44 156 86 139 146 113 146 -63z m12133 -186 c30 -78 -22 -173 -114 -210 -151 -62 -148 -78 31 -152 170 -70 174 -83 25 -89 -310 -12 -325 -8 -337 93 -7 55 -19 151 -25 212 -9 79 -58 75 -163 -12 -82 -68 -150 -90 -150 -48 0 119 332 341 514 345 91 2 189 -61 219 -139z m967 42 c0 -55 -50 -100 -111 -100 -61 0 -86 -64 -55 -143 40 -105 -22 -141 -231 -135 -218 6 -271 46 -226 168 32 88 107 193 166 233 157 108 457 93 457 -23z m-17400 -85 c0 -159 -387 -435 -507 -360 -84 51 -49 128 118 257 261 201 389 235 389 103z m15400 -15 c0 -55 -93 -100 -206 -100 -113 0 -178 45 -144 100 34 55 127 100 206 100 79 0 144 -45 144 -100z m-20200 -137 c0 -159 -377 -663 -497 -663 -123 0 -214 302 -130 434 41 64 80 150 88 191 8 41 20 98 27 125 29 120 512 38 512 -87z m19244 -73 c-73 -118 -444 -116 -444 2 0 50 56 111 125 135 175 61 385 -30 319 -137z m-18043 -389 c-269 -377 -467 -399 -234 -26 293 471 373 556 412 437 20 -60 -60 -245 -178 -411z m6999 199 c0 -55 -48 -100 -106 -100 -58 0 -78 45 -44 100 34 55 82 100 106 100 24 0 44 -45 44 -100z m565 -83 c-91 -100 -165 -283 -165 -406 0 -134 -43 -196 -108 -156 -129 80 -28 560 141 667 220 140 298 78 132 -105z m695 -90 c-33 -33 -56 26 -52 131 5 117 28 141 60 61 29 -72 26 -159 -8 -192z m-2260 23 c0 -82 -44 -150 -97 -150 -53 0 -71 68 -39 150 31 83 75 150 97 150 21 0 39 -67 39 -150z m13315 -75 c-56 -56 -183 -68 -283 -28 -171 70 -170 79 18 151 243 93 406 18 265 -123z m-6244 -500 c-24 -124 -44 -22 -44 225 0 248 20 349 44 225 23 -124 23 -326 0 -450z m-7671 394 c0 -72 -66 -218 -147 -325 -141 -187 -147 -184 -150 64 -2 142 27 289 64 325 109 110 233 76 233 -64z m11798 56 c0 -41 -45 -142 -98 -225 -78 -121 -97 -107 -98 75 -1 124 43 225 98 225 55 0 99 -34 98 -75z m1402 -25 c-196 -127 -328 -127 -250 0 34 55 138 99 231 98 146 -1 148 -14 19 -98z m-19259 -372 c-154 -243 -341 -274 -341 -56 0 259 210 458 343 325 70 -70 69 -155 -2 -269z m3059 102 c0 -201 -29 -241 -113 -157 -63 63 -86 184 -53 270 91 239 166 188 166 -113z m13359 -294 c-32 -82 -103 -121 -158 -86 -144 88 -125 525 24 576 139 48 222 -258 134 -490z m-14709 231 c0 -261 -196 -245 -233 19 -23 162 8 222 100 192 73 -25 133 -120 133 -211z m2316 -92 c-28 -69 -50 -12 -50 125 0 138 22 194 50 125 28 -69 28 -181 0 -250z m4634 55 c0 -201 -29 -241 -113 -157 -63 63 -86 184 -53 270 91 239 166 188 166 -113z m489 -580 l-9 -600 -142 450 c-78 248 -113 580 -79 738 100 461 239 104 230 -588z m2411 588 c0 -125 -31 -137 -134 -51 -74 61 -164 82 -200 45 -36 -36 -66 -13 -66 51 0 65 90 117 200 117 118 0 200 -67 200 -162z m9149 60 c-35 -56 -105 -75 -156 -44 -139 86 -113 146 63 146 86 0 128 -46 93 -102z m-22251 -373 c-1 -279 -26 -337 -98 -225 -127 197 -127 600 0 600 55 0 99 -169 98 -375z m2602 31 c0 -127 -67 -288 -150 -356 -124 -103 -150 -92 -149 63 3 320 118 637 210 580 49 -30 89 -159 89 -287z m15835 91 c-79 -207 -135 -183 -135 59 0 113 43 179 96 147 52 -33 70 -125 39 -206z m2160 158 c113 -71 85 -106 -130 -160 -300 -75 -422 -18 -319 148 80 130 255 135 449 12z m-11405 -280 c-5 -96 -46 -287 -90 -425 -68 -212 -82 -186 -90 175 -6 234 35 425 90 425 55 0 96 -79 90 -175z m12610 75 c0 -55 -45 -100 -100 -100 -55 0 -100 45 -100 100 0 55 45 100 100 100 55 0 100 -45 100 -100z m-20002 -281 c0 -93 -45 -236 -98 -319 -72 -111 -97 -52 -98 231 -1 229 38 356 98 319 55 -34 99 -138 98 -231z m13762 8 c-33 -33 -56 26 -52 131 5 117 28 141 60 61 29 -72 26 -159 -8 -192z m-5860 79 c0 -52 -45 -122 -100 -156 -55 -34 -100 8 -100 94 0 86 45 156 100 156 55 0 100 -42 100 -94z m13377 -25 c-62 -185 -246 -206 -312 -35 -41 108 3 154 146 154 114 0 188 -53 166 -119z m-7779 -262 c0 -93 -45 -236 -98 -319 -72 -111 -97 -52 -98 231 -1 229 38 356 98 319 55 -34 99 -138 98 -231z m-7649 -289 l-76 -380 -83 294 c-53 188 -43 342 28 427 168 203 214 80 131 -341z m12051 314 c0 -24 -70 -44 -156 -44 -86 0 -128 46 -93 102 57 92 249 48 249 -58z m3700 6 c0 -83 -45 -150 -100 -150 -55 0 -100 67 -100 150 0 83 45 150 100 150 55 0 100 -67 100 -150z m-22386 -1150 c-34 -867 -47 -921 -153 -619 -83 236 -88 531 -20 1026 132 951 219 744 173 -407z m3986 844 c0 -145 -43 -229 -100 -194 -55 34 -100 149 -100 256 0 107 45 194 100 194 55 0 100 -115 100 -256z m16450 -144 c-34 -55 -82 -100 -106 -100 -24 0 -44 45 -44 100 0 55 48 100 106 100 58 0 78 -45 44 -100z m427 -19 c-22 -65 -93 -136 -158 -158 -73 -24 -96 21 -58 119 69 181 276 219 216 39z m-11479 -512 c1 -99 -43 -153 -98 -119 -55 34 -99 183 -98 331 1 210 22 236 98 119 53 -82 98 -231 98 -331z m4802 111 c0 -233 -30 -290 -110 -210 -60 60 -80 204 -43 320 95 301 153 259 153 -110z m-12310 -505 c6 -96 -32 -175 -83 -175 -121 0 -177 286 -117 600 l47 250 71 -250 c40 -137 77 -329 82 -425z m2810 519 c0 -58 -45 -78 -100 -44 -55 34 -100 82 -100 106 0 24 45 44 100 44 55 0 100 -48 100 -106z m-3931 -770 c-25 -96 -45 6 -44 226 1 220 22 298 46 174 24 -125 23 -305 -2 -400z m531 276 c0 -187 -170 -364 -262 -272 -26 27 -18 166 18 310 72 287 244 260 244 -38z m19765 -46 c-32 -85 -136 -154 -229 -154 -153 0 -151 19 22 187 216 210 296 198 207 -33z m-7365 2 c0 -159 -181 -308 -269 -220 -82 82 46 364 166 364 57 0 103 -65 103 -144z m6051 -138 c-79 -80 -251 101 -190 200 41 67 93 57 146 -29 45 -73 65 -150 44 -171z m-21051 38 c0 -79 -45 -172 -100 -206 -55 -34 -100 31 -100 144 0 113 45 206 100 206 55 0 100 -65 100 -144z m20290 -631 c-2 -371 -28 -776 -57 -899 -87 -359 -238 -151 -186 255 25 203 73 583 106 844 33 261 77 475 99 475 23 0 39 -304 38 -675z m-18490 -31 c0 -272 -45 -494 -100 -494 -55 0 -100 250 -100 556 0 345 38 532 100 494 55 -34 100 -284 100 -556z m13410 134 c-93 -159 -104 -160 -107 -11 -2 92 29 249 69 350 66 167 75 168 107 11 19 -94 -12 -252 -69 -350z m-4850 -101 c-33 -33 -56 26 -52 131 5 117 28 141 60 61 29 -72 26 -159 -8 -192z m13058 51 c-71 -71 -118 -77 -118 -15 0 134 118 252 185 185 28 -28 -2 -105 -67 -170z m-19861 -323 c-77 -414 -251 -488 -185 -80 65 407 125 561 192 494 33 -33 30 -219 -7 -414z m17198 79 c21 -156 12 -460 -20 -676 -80 -540 -247 -233 -194 357 21 239 44 499 49 577 16 222 122 56 165 -258z m-14855 116 c0 -93 94 -150 250 -150 149 0 250 -57 250 -142 0 -78 25 -207 56 -287 97 -254 -231 -267 -498 -20 -253 234 -361 749 -158 749 55 0 100 -67 100 -150z m2596 -337 c75 -262 59 -330 -103 -417 -175 -94 -193 -67 -193 284 0 353 78 575 170 484 20 -20 77 -178 126 -351z m264 114 c-33 -33 -56 26 -52 131 5 117 28 141 60 61 29 -72 26 -159 -8 -192z m300 0 c-33 -33 -56 26 -52 131 5 117 28 141 60 61 29 -72 26 -159 -8 -192z m12990 173 c-34 -55 -104 -100 -156 -100 -52 0 -94 45 -94 100 0 55 70 100 156 100 86 0 128 -45 94 -100z m717 -266 c-33 -202 -113 -416 -178 -475 -89 -82 -102 -63 -54 74 36 101 65 315 65 475 0 161 51 292 113 292 74 0 93 -125 54 -366z m1333 266 c0 -55 -48 -100 -106 -100 -58 0 -78 45 -44 100 34 55 82 100 106 100 24 0 44 -45 44 -100z m-21440 -273 c-33 -33 -56 26 -52 131 5 117 28 141 60 61 29 -72 26 -159 -8 -192z m7239 -128 c-118 -166 -263 -271 -323 -234 -68 42 2 156 182 301 380 304 399 295 141 -67z m-5845 -292 c-169 -326 -634 -461 -515 -149 34 87 61 198 61 247 0 124 543 398 581 294 17 -47 -40 -223 -127 -392z m-1134 -127 c-152 -152 -208 44 -91 320 l106 250 41 -237 c22 -130 -3 -280 -56 -333z m6154 251 c-93 -93 -197 -141 -232 -107 -98 99 53 276 235 276 153 0 153 -13 -3 -169z m12192 -256 c-28 -69 -50 -12 -50 125 0 138 22 194 50 125 28 -69 28 -181 0 -250z m-21462 -83 c102 -189 93 -198 -96 -96 -115 61 -208 154 -208 208 0 171 190 102 304 -112z m496 -142 c0 -83 -45 -150 -100 -150 -55 0 -100 67 -100 150 0 83 45 150 100 150 55 0 100 -67 100 -150z m6500 -6 c0 -24 -45 -44 -100 -44 -55 0 -100 48 -100 106 0 58 45 78 100 44 55 -34 100 -82 100 -106z m11800 -56 c0 -55 -45 -72 -100 -38 -55 34 -100 107 -100 162 0 55 45 72 100 38 55 -34 100 -107 100 -162z"/>
<path d="M8390 15990 c-258 -258 -123 -445 253 -351 253 64 363 261 145 261 -78 0 -74 46 12 150 202 244 -159 191 -410 -60z"/>
<path d="M7440 6961 c-65 -170 23 -361 166 -361 126 0 121 372 -7 450 -55 35 -127 -6 -159 -89z"/>
<path d="M20600 24900 c0 -55 45 -100 100 -100 55 0 100 45 100 100 0 55 -45 100 -100 100 -55 0 -100 -45 -100 -100z"/>
<path d="M24850 12500 c-34 -55 -14 -100 44 -100 58 0 106 45 106 100 0 55 -20 100 -44 100 -24 0 -72 -45 -106 -100z"/>
<path d="M12422 7775 c-182 -222 -192 -915 -13 -855 90 30 228 980 142 980 -15 0 -73 -56 -129 -125z"/>
<path d="M12552 5325 c41 -261 63 -542 50 -625 -73 -440 -24 -1318 79 -1421 66 -66 119 -200 119 -299 0 -99 45 -180 100 -180 155 0 113 1689 -53 2150 -79 220 -145 501 -145 625 -1 124 -52 225 -113 225 -77 0 -88 -148 -37 -475z"/>
<path d="M12961 2442 c-34 -87 -61 -447 -61 -800 0 -353 -40 -642 -89 -642 -149 0 -219 -307 -152 -663 71 -377 339 -465 339 -112 -1 124 43 540 96 925 52 385 98 869 101 1075 5 382 -125 502 -234 217z"/>
<path d="M18169 362 c-61 -158 109 -362 301 -362 157 0 162 54 26 307 -121 226 -253 249 -327 55z"/>
<path d="M17864 231 c-113 -113 -69 -231 86 -231 83 0 150 42 150 94 0 126 -156 217 -236 137z"/>
</g>
</svg>