<svg xmlns="http://www.w3.org/2000/svg" version="1.0" width="250" height="250" viewBox="0 0 250.000000 250.000000" preserveAspectRatio="xMidYMid meet">
<metadata>
Created by potrace 1.10, written by Peter Selinger 2001-2011
</metadata>
<g transform="translate(0.000000,250.000000) scale(0.010000,-0.010000)" fill="#555555" stroke="none">
<path d="M67 24933 c-94 -94 -81 -857 18 -1012 59 -92 151 -102 327 -35 334 126 457 296 540 739 61 324 45 375 -116 375 -144 -1 -190 -84 -205 -364 -18 -348 -170 -631 -279 -521 -29 29 -59 239 -68 468 -16 400 -74 494 -217 350z"/>
<path d="M1200 24865 c0 -69 48 -173 107 -232 77 -77 76 -226 -3 -520 -131 -485 -557 -767 -1018 -675 l-286 57 0 -11747 0 -11748 2050 0 2050 0 0 1592 c0 1669 33 1908 261 1908 156 0 188 -158 49 -244 -50 -31 -93 -776 -96 -1656 l-5 -1600 240 0 c239 0 241 8 232 997 -6 646 33 1049 111 1144 89 107 94 243 18 518 -118 427 -40 654 140 408 82 -112 105 -475 72 -1155 -56 -1157 32 -1912 222 -1912 103 0 123 278 96 1314 -19 722 -12 1350 16 1395 28 45 116 57 197 26 167 -64 198 -391 47 -485 -159 -98 -116 -883 62 -1137 119 -169 146 -351 102 -672 -48 -350 -30 -441 88 -441 121 0 148 189 148 1050 0 578 29 1050 65 1050 35 0 260 -161 500 -357 347 -284 435 -421 436 -675 2 -603 120 -1068 271 -1068 119 0 133 97 78 500 -77 563 3 620 350 250 129 -138 295 -250 367 -250 75 0 133 -109 133 -250 0 -347 278 -325 318 25 25 216 91 282 307 307 247 28 275 0 275 -275 0 -206 49 -307 150 -307 105 0 150 106 150 357 0 357 145 743 279 743 39 0 56 -247 37 -550 -28 -451 -6 -550 125 -550 122 0 159 105 159 450 0 248 45 450 100 450 55 0 100 -202 100 -450 l0 -450 1030 0 c668 0 1072 42 1150 120 93 93 120 93 120 0 0 -79 181 -119 525 -117 612 4 996 250 964 617 -36 417 9 680 118 680 64 0 101 -193 92 -475 -25 -722 -10 -825 126 -825 96 0 130 613 145 2675 19 2688 81 3725 219 3725 41 0 57 -1440 35 -3200 -28 -2250 -8 -3200 68 -3200 67 0 111 292 117 775 4 426 19 1247 33 1825 13 578 32 1556 41 2175 13 880 47 1125 155 1125 184 0 216 -516 214 -3475 l-2 -2425 263 0 c256 0 266 22 334 775 38 426 161 1518 272 2425 111 908 235 1978 276 2379 40 401 131 783 201 850 104 98 117 7 68 -479 -82 -828 -105 -2343 -36 -2412 76 -75 151 579 216 1873 29 584 99 1169 157 1300 103 238 74 -1230 -63 -3145 -52 -724 -42 -781 128 -746 120 24 172 106 148 234 -111 614 55 3251 232 3662 129 302 143 99 142 -2116 -1 -1347 20 -2832 48 -3300 27 -468 52 -951 56 -1075 7 -182 66 -225 308 -225 l300 0 12 1125 c6 619 6 1215 0 1325 -10 200 -10 200 76 0 48 -110 75 -706 59 -1325 -20 -839 4 -1125 96 -1125 93 0 115 357 92 1475 -59 2857 -34 5279 60 5672 66 278 61 419 -17 467 -78 48 -83 170 -16 402 75 261 151 335 345 339 136 3 303 39 371 81 67 42 162 51 212 20 49 -30 116 14 148 99 46 121 102 131 261 46 110 -60 201 -157 201 -217 0 -71 -52 -66 -150 16 -122 102 -150 96 -150 -31 0 -85 -69 -224 -154 -309 -190 -190 -313 -1307 -155 -1404 137 -85 144 -456 9 -456 -161 0 -115 -317 66 -450 252 -184 97 -450 -263 -450 -314 0 -356 -93 -203 -450 82 -191 86 -190 93 25 7 239 207 322 207 86 0 -77 68 -166 150 -197 194 -74 194 -326 0 -400 -200 -77 -191 -362 16 -514 256 -187 97 -487 -217 -409 -202 51 -249 26 -249 -132 0 -139 80 -205 275 -227 264 -31 276 -58 305 -657 19 -399 -9 -625 -78 -625 -60 0 -149 -101 -199 -225 l-90 -225 -7 225 c-9 341 -206 269 -206 -75 0 -251 40 -300 242 -300 133 0 264 56 292 125 28 69 54 -205 58 -607 7 -643 29 -728 183 -694 96 21 158 103 137 182 -90 338 -102 3929 -14 4080 67 114 102 -126 117 -786 26 -1167 70 -2401 107 -3000 24 -380 63 -455 253 -482 l225 -32 17 1732 17 1732 72 -1300 c39 -715 76 -1491 83 -1725 8 -324 50 -425 176 -425 149 0 158 114 88 1125 -88 1280 -221 7785 -168 8194 26 194 120 298 340 375 400 139 475 134 475 -33 0 -182 313 -301 404 -154 133 215 192 -565 249 -3307 54 -2658 154 -3548 389 -3469 141 48 94 1203 -79 1952 -72 312 -117 770 -100 1017 18 248 35 670 38 938 7 481 112 569 162 135 24 -205 115 -1357 130 -1648 11 -193 206 -148 217 50 6 96 73 -207 150 -675 77 -467 192 -951 257 -1075 254 -489 312 -220 246 1150 -71 1458 -252 2122 -580 2124 -246 2 -310 442 -324 2219 -9 1165 17 1543 102 1473 68 -57 132 -561 158 -1257 40 -1045 67 -1181 263 -1340 148 -119 218 -287 218 -523 0 -190 68 -403 150 -471 83 -68 150 -209 150 -312 0 -104 50 -188 111 -188 68 0 95 138 69 360 -37 317 -26 339 89 181 72 -99 133 -339 135 -535 1 -196 67 -468 146 -606 131 -229 143 -167 146 758 4 947 -11 1021 -246 1242 -137 129 -250 187 -250 128 0 -59 -73 -134 -161 -168 -133 -51 -149 -14 -93 208 79 314 -238 1532 -398 1532 -58 0 -113 101 -122 224 -13 173 3 190 74 76 144 -233 315 13 374 541 80 711 226 542 230 -266 2 -453 58 -819 150 -975 133 -225 141 -105 87 1213 -37 906 -23 1486 37 1523 60 37 130 -597 184 -1663 l88 -1723 27 1943 c21 1483 -3 1964 -100 2032 -101 72 -101 101 -2 141 82 33 125 277 125 712 0 515 -27 635 -120 542 -66 -66 -197 -120 -292 -120 -94 0 -189 -52 -210 -117 -50 -150 -343 -177 -1975 -181 -1369 -3 -1703 -43 -1703 -207 0 -50 394 -79 875 -65 481 14 1213 -31 1625 -100 413 -68 941 -154 1175 -191 234 -36 425 -102 425 -145 0 -312 -1325 -791 -1681 -608 -93 48 -313 90 -490 94 -176 3 -468 77 -650 162 -524 249 -1486 376 -1545 204 -20 -57 43 -110 140 -118 346 -29 979 -195 1176 -308 110 -64 391 -163 625 -222 234 -58 425 -149 425 -202 0 -53 183 -96 406 -96 262 0 382 -38 340 -107 -37 -59 -128 -83 -203 -54 -75 29 -163 9 -196 -44 -115 -185 253 -214 718 -55 258 88 486 143 506 122 21 -20 -110 -161 -290 -313 -314 -264 -361 -273 -1129 -218 -1232 88 -1921 343 -3028 1121 -183 128 -206 195 -121 353 87 163 71 195 -98 195 -147 0 -196 -58 -179 -210 17 -144 -70 -262 -276 -375 -293 -161 -297 -172 -157 -490 79 -179 180 -325 225 -325 111 0 103 174 -19 402 -80 149 -61 211 87 291 175 93 185 67 139 -342 -72 -636 -17 -715 463 -669 390 37 495 218 126 218 -258 0 -390 179 -338 454 47 242 49 243 360 70 173 -96 348 -226 389 -290 41 -64 392 -241 780 -393 388 -152 724 -308 748 -345 110 -179 -383 -432 -855 -439 -314 -4 -498 -51 -498 -126 0 -245 -237 -257 -431 -22 -130 159 -213 198 -242 116 -177 -505 -1045 497 -1170 1351 -32 216 -257 286 -257 79 0 -175 -373 -358 -575 -281 -69 26 -125 130 -125 231 0 101 -45 211 -100 245 -58 36 -100 -60 -100 -229 0 -578 -691 -818 -842 -293 -57 197 -81 176 -210 -178 -80 -220 -146 -411 -146 -425 -7 -107 -332 16 -490 185 l-196 211 -161 -311 c-88 -170 -225 -310 -304 -310 -231 0 -366 348 -251 650 55 145 100 336 100 425 0 131 -40 120 -206 -58 -113 -122 -248 -195 -300 -163 -145 89 -112 476 62 724 141 201 141 222 -3 222 -175 0 -353 -381 -353 -753 0 -160 93 -291 275 -390 151 -82 216 -151 143 -153 -73 -2 -202 -74 -287 -159 -239 -239 -486 -138 -452 184 16 149 -13 271 -64 271 -153 0 -234 -506 -107 -660 153 -184 535 -179 692 10 513 618 313 -581 -255 -1524 -237 -394 -340 -403 -681 -62 -319 318 -327 460 -53 904 245 396 160 591 -111 257 -112 -139 -244 -202 -341 -165 -176 68 -229 -205 -61 -309 55 -34 101 -160 104 -281 4 -121 9 -344 13 -495 3 -151 43 -275 89 -275 45 0 109 -79 142 -175 32 -96 173 -258 313 -360 239 -173 265 -174 440 -16 188 171 601 133 601 -55 0 -138 -873 -1396 -1234 -1778 -364 -384 -677 -561 -1152 -651 -292 -56 -326 -42 -264 110 377 927 444 1612 164 1704 -102 34 -119 -27 -72 -243 75 -340 -234 -1317 -538 -1704 -112 -142 -205 -332 -205 -420 -2 -266 -367 -1350 -585 -1738 -423 -752 -723 -1178 -915 -1298 -110 -68 -200 -170 -201 -225 -5 -233 -402 -592 -838 -757 -534 -203 -727 -146 -1243 363 -163 161 -563 493 -889 737 -325 244 -701 596 -835 781 -364 505 -499 633 -602 570 -51 -32 -216 29 -367 136 -151 106 -533 268 -849 359 -316 91 -575 212 -575 269 0 57 -79 92 -175 78 -348 -50 -632 123 -692 423 -89 446 -207 438 -285 -19 -46 -273 -102 -377 -169 -310 -155 155 13 709 267 876 360 236 870 355 1012 236 87 -72 147 -65 200 21 57 91 92 80 134 -42 104 -296 238 -229 352 177 119 423 284 516 724 406 208 -53 241 -106 190 -309 -60 -240 -47 -246 515 -248 601 -2 1270 -237 1513 -531 89 -108 111 -260 64 -441 -65 -246 -81 -255 -145 -80 -71 194 -73 194 -185 0 -107 -185 -115 -182 -125 54 -6 138 -33 194 -61 125 -62 -153 -234 -166 -234 -18 0 157 -192 316 -707 585 l-456 238 -478 -280 c-564 -331 -1220 -476 -1463 -324 -192 120 -496 38 -496 -134 0 -71 93 -90 250 -51 182 46 250 23 250 -84 0 -223 971 -83 1350 194 416 304 632 366 860 244 134 -72 187 -190 168 -372 -26 -251 28 -287 972 -645 1021 -387 1330 -628 1296 -1012 -20 -227 117 -466 266 -466 49 0 88 183 88 406 0 245 40 381 100 344 208 -128 297 62 141 300 -180 275 -206 970 -51 1375 76 200 174 275 358 275 356 0 313 139 -92 298 -310 121 -339 166 -293 443 47 282 39 293 -94 132 -136 -168 -148 -165 -205 50 -34 125 -62 325 -63 444 0 119 -52 233 -114 254 -208 69 17 662 370 972 389 341 442 514 133 433 -233 -61 -786 -767 -796 -1016 -4 -100 -49 -66 -120 90 l-114 250 -36 -325 c-42 -369 -216 -442 -240 -100 -66 934 361 1460 1306 1609 184 29 498 181 697 337 200 157 488 364 641 461 166 105 304 301 340 481 33 167 122 328 196 356 75 29 136 145 136 257 0 185 -17 191 -175 57 -391 -331 -961 -98 -717 293 130 208 643 583 766 559 42 -8 60 -163 41 -345 -30 -288 -14 -314 119 -203 85 70 135 181 111 245 -71 195 392 909 678 1046 153 74 319 274 392 475 153 423 283 434 659 57 220 -220 354 -277 558 -238 274 52 344 212 171 385 -63 63 41 98 297 98 528 0 723 190 415 406 -131 91 -220 250 -210 374 10 118 7 249 -6 290 -13 41 -30 301 -36 577 -11 424 6 475 112 331 69 -94 125 -345 125 -558 0 -232 40 -362 100 -325 282 174 -45 1403 -343 1289 -182 -70 -557 303 -557 554 0 268 176 707 284 707 48 0 67 -113 40 -251 -58 -303 126 -549 410 -549 204 0 204 5 -22 163 -199 139 -224 220 -171 550 56 351 41 387 -158 387 -121 0 -324 -98 -451 -217 -280 -263 -373 -203 -237 153 78 206 167 264 406 264 202 0 325 59 364 175 33 96 178 276 322 400 257 219 258 224 41 225 -131 0 -313 -123 -444 -300 -122 -165 -283 -300 -358 -300 -255 0 -712 -297 -778 -506 -36 -115 -88 -187 -115 -161 -116 117 300 646 760 967 276 193 504 384 505 425 1 41 333 75 739 75 585 0 788 41 990 200 312 245 666 283 473 50 -68 -82 -85 -154 -37 -160 48 -5 199 -17 337 -25 137 -8 249 -73 250 -144 0 -70 50 -160 112 -200 61 -39 143 -172 181 -295 53 -172 36 -212 -74 -170 -96 37 -160 -29 -192 -200 -39 -200 -9 -256 137 -256 102 0 186 -65 186 -144 0 -273 -186 -258 -515 43 -200 183 -272 301 -182 301 94 0 151 108 158 300 12 360 -133 398 -218 57 -34 -133 -131 -269 -216 -302 -137 -52 -137 -79 -6 -232 82 -95 180 -262 219 -370 58 -163 87 -172 160 -53 75 121 101 114 159 -38 43 -112 17 -215 -69 -268 -110 -68 -113 -111 -14 -210 193 -193 145 -803 -84 -1084 -198 -242 -202 -242 -142 -25 48 171 22 225 -111 225 -153 0 -148 28 44 231 119 128 216 319 214 425 -3 174 -16 177 -126 34 -200 -263 -541 -326 -656 -120 -181 324 -249 40 -89 -369 87 -221 117 -401 66 -401 -51 0 -92 37 -92 82 0 132 -562 723 -626 659 -32 -32 -38 -224 -14 -425 34 -282 23 -320 -49 -166 -52 110 -120 282 -152 381 -32 100 -100 156 -151 124 -57 -35 -53 -183 10 -381 196 -612 207 -871 48 -1114 -214 -327 -29 -860 300 -860 369 0 368 -186 -4 -558 -289 -289 -662 -857 -662 -1007 0 -19 63 -35 139 -35 77 0 165 102 196 227 31 124 216 380 410 568 313 303 444 353 1175 448 817 106 823 109 888 429 110 542 350 790 1138 1179 l757 374 1223 -106 c673 -58 1292 -116 1374 -128 383 -57 1300 20 1300 109 0 55 -79 101 -175 103 -293 5 84 184 539 255 212 34 521 117 686 184 165 68 581 182 925 254 559 118 625 157 625 374 0 207 -34 233 -225 173 -277 -86 -576 -214 -775 -331 -224 -132 -1125 -413 -1322 -412 -94 0 -341 -73 -550 -162 -983 -421 -1000 -426 -1116 -310 -171 171 -140 236 213 441 396 230 956 447 2525 976 l1200 405 19 550 c31 854 -66 1427 -219 1300 -170 -141 -250 81 -250 697 0 662 -540 2708 -1208 4574 -126 353 -147 505 -64 473 236 -91 563 -704 868 -1628 170 -513 403 -1118 518 -1344 167 -326 186 -448 96 -594 -87 -139 -80 -318 31 -755 80 -315 165 -685 189 -823 24 -137 45 223 47 800 2 1127 -176 2016 -471 2350 -97 110 -234 425 -304 700 -136 529 -556 1350 -690 1350 -44 0 -165 157 -269 350 -176 327 -221 350 -679 350 l-490 0 51 -475 c51 -476 -50 -356 -170 200 -32 151 -101 275 -153 275 -55 0 -74 -401 -47 -975 170 -3540 267 -5163 347 -5775 50 -385 93 -1024 95 -1420 l3 -721 -465 -206 c-256 -113 -484 -187 -507 -164 -23 23 -62 1069 -88 2326 -26 1257 -75 2533 -111 2835 -35 303 -56 1349 -46 2325 l17 1775 -391 0 -391 0 -66 -875 c-36 -481 -135 -1257 -221 -1725 -197 -1074 -299 -3654 -141 -3556 61 37 110 223 110 412 0 189 49 344 108 344 64 0 86 -112 54 -275 -116 -597 -104 -1925 17 -1925 96 0 368 4005 379 5600 11 1460 15 1496 143 1300 86 -132 56 -1922 -51 -3000 -19 -192 -64 -1407 -100 -2700 -92 -3257 -97 -3344 -204 -3400 -58 -30 -96 373 -96 1025 0 672 -37 1062 -100 1041 -55 -18 -113 -209 -128 -424 -15 -216 -42 -617 -60 -892 -48 -740 -89 -769 -154 -108 -86 879 -308 862 -308 -23 0 -528 -37 -712 -150 -755 -294 -113 -173 4322 204 7536 271 2307 278 2400 165 2400 -59 0 -124 -146 -147 -325 l-40 -325 -16 325 c-24 487 -195 391 -267 -150 -35 -261 -127 -869 -206 -1350 -79 -481 -143 -900 -143 -931 0 -31 -38 -32 -85 -3 -46 28 -53 256 -15 506 50 329 31 486 -67 567 -104 86 -120 296 -70 899 46 555 33 787 -47 787 -62 0 -139 -124 -173 -275 -104 -470 -127 -487 -135 -100 -8 360 -22 375 -358 375 -280 0 -350 -39 -350 -194 0 -107 -49 -225 -109 -262 -148 -91 -1915 134 -2565 327 -349 104 -566 123 -650 58 -128 -99 -1095 -90 -1826 17 -383 56 -415 38 -750 -401 -474 -621 -625 -692 -1158 -543 -442 124 -855 66 -684 -95 51 -48 497 -187 992 -308 1007 -248 1250 -350 1251 -528 0 -66 67 -249 149 -406 171 -328 113 -976 -120 -1349 -116 -186 -200 -220 -413 -167 -381 96 -503 226 -576 613 -64 344 106 938 269 938 142 0 225 -505 103 -627 -62 -62 -113 -216 -113 -343 0 -295 348 -314 501 -28 126 235 -77 1294 -249 1304 -56 3 -269 19 -473 34 -234 18 -475 -40 -650 -155 -154 -101 -335 -184 -404 -184 -177 -1 -156 466 25 535 225 86 184 288 -44 216 -221 -70 -406 189 -406 569 0 310 -328 579 -707 579 -168 0 -280 -40 -250 -89 30 -48 -27 -110 -127 -136 -114 -29 -271 -286 -421 -686 -138 -366 -255 -564 -275 -463 -19 97 -79 150 -132 117 -53 -33 -206 11 -339 98 -133 88 -266 159 -295 159 -100 0 -55 -185 78 -318 104 -104 111 -290 33 -882 -113 -849 -111 -845 -263 -751 -81 50 -79 108 7 212 225 271 -6 268 -400 -5 -217 -150 -477 -254 -577 -230 -145 34 -121 67 118 164 165 67 440 277 610 467 283 315 306 393 263 870 -42 472 -319 988 -511 953 -34 -7 -143 23 -241 66 -262 115 -355 -39 -121 -200 634 -435 782 -911 454 -1466 -219 -373 -501 -491 -960 -403 -342 65 -549 406 -596 981 -42 521 30 710 414 1095 244 244 306 256 1223 237 531 -11 1074 -60 1206 -109 358 -131 503 66 234 317 -156 146 -294 183 -512 140 -184 -37 -422 2 -621 101 -499 249 -1155 210 -1510 -89 -300 -252 -638 -366 -410 -138 136 136 57 388 -122 388 -179 0 -276 -299 -147 -454 79 -95 48 -170 -123 -290 -216 -152 -232 -150 -261 35 -17 109 40 306 126 438 l158 241 -601 18 c-331 10 -602 -10 -602 -45 0 -34 83 -182 185 -328 251 -359 299 -598 362 -1818 49 -950 303 -2135 561 -2621 148 -278 109 -404 -108 -347 -151 40 -200 3 -200 -151 0 -303 -260 -51 -335 324 -33 164 -109 298 -168 298 -139 0 -897 606 -897 717 0 118 375 104 450 -17 93 -151 250 -120 250 50 0 83 -71 150 -157 150 -113 0 -138 58 -91 207 40 126 7 273 -86 375 -83 92 -228 393 -321 668 -93 275 -258 626 -367 779 -229 324 -379 1471 -192 1471 63 0 114 64 114 142 0 106 -150 143 -600 145 -414 2 -600 -36 -600 -122z m4984 -53 c98 -62 64 -99 -125 -135 -176 -33 -259 -6 -259 87 0 153 182 176 384 48z m16358 -862 c128 -610 128 -719 2 -846 -126 -128 -144 -89 -144 311 0 251 -23 677 -51 946 -66 630 9 472 193 -411z m-7620 610 c383 -125 1298 -242 2278 -292 204 -11 341 -66 328 -134 -73 -386 -119 -783 -178 -1559 -38 -481 -106 -875 -152 -875 -46 0 -455 180 -910 400 -455 220 -895 400 -978 400 -114 0 -122 28 -33 117 89 89 209 89 506 0 478 -143 1084 -152 1167 -17 37 60 -97 100 -338 100 -414 0 -980 165 -886 259 30 30 385 62 789 73 441 11 715 57 685 116 -57 112 -35 107 -900 187 -787 72 -1718 363 -1781 556 -34 104 3 120 142 63 194 -80 1516 -258 2139 -287 193 -10 373 28 400 83 28 55 -62 105 -200 110 -137 6 -520 61 -850 124 -330 63 -893 126 -1250 140 -664 27 -796 93 -798 401 -2 214 239 225 820 35z m-1153 -222 c39 -102 -10 -205 -129 -275 -255 -151 -1054 -446 -1235 -455 -267 -15 33 164 569 337 288 94 549 212 581 263 83 134 -112 113 -520 -58 -434 -181 -623 -198 -468 -43 118 118 805 382 1011 389 71 2 156 -69 191 -158z m-4789 -454 c17 -138 -38 -307 -121 -376 -127 -106 -161 -84 -216 133 -79 317 14 590 182 535 69 -23 139 -154 155 -292z m3070 216 c-34 -55 -82 -100 -106 -100 -24 0 -44 45 -44 100 0 55 48 100 106 100 58 0 78 -45 44 -100z m11342 -1401 c150 -598 328 -1152 393 -1232 135 -162 290 -1561 160 -1439 -46 42 -95 280 -110 527 -14 247 -54 494 -87 549 -112 181 -242 -7 -197 -283 25 -149 65 -496 89 -771 24 -275 68 -680 98 -900 129 -954 159 -1850 63 -1850 -58 0 -102 290 -103 675 -1 371 -68 1080 -149 1575 -82 495 -148 1093 -149 1329 0 267 -74 531 -196 700 -160 220 -206 486 -244 1421 -55 1358 28 1300 432 -301z m-9392 1069 c0 -104 -368 -231 -1275 -440 -124 -28 -225 -6 -225 49 0 56 147 128 327 162 180 34 484 146 675 250 359 194 498 188 498 -21z m5366 -195 c-28 -68 -49 12 -47 177 3 165 25 220 50 123 26 -97 24 -232 -3 -300z m2927 -154 c4 -72 -38 -103 -93 -69 -55 34 -97 183 -93 331 6 240 16 248 93 69 47 -110 89 -259 93 -331z m-17643 281 c-34 -55 -107 -100 -162 -100 -55 0 -72 45 -38 100 34 55 107 100 162 100 55 0 72 -45 38 -100z m-2600 -199 c34 -110 34 -245 0 -302 -103 -166 160 -1234 336 -1363 89 -65 196 -97 238 -71 42 26 76 -51 76 -171 0 -184 -24 -199 -152 -92 -208 172 -290 63 -149 -200 113 -211 110 -212 -192 -55 -169 87 -307 229 -307 316 0 162 -199 419 -775 997 -375 377 -411 540 -119 540 114 0 321 135 459 300 293 348 495 383 585 101z m7492 -676 c89 -426 355 -1297 590 -1934 l428 -1159 -389 -373 c-214 -206 -449 -350 -523 -322 -120 46 -854 1100 -1125 1616 -58 111 -155 555 -215 985 -60 430 -128 813 -151 851 -71 114 154 1016 240 963 44 -27 110 -207 146 -400 36 -192 153 -541 259 -776 107 -234 196 -561 199 -726 3 -165 83 -525 179 -801 231 -669 920 -1533 920 -1154 0 52 -158 364 -351 693 -430 733 -694 1968 -593 2773 37 296 102 539 145 539 44 0 152 -349 241 -775z m4958 625 c105 -127 84 -150 -138 -150 -253 0 -333 95 -195 233 103 104 198 80 333 -83z m-9982 -272 c-71 -71 -118 -77 -118 -15 0 134 118 252 185 185 28 -28 -2 -105 -67 -170z m8925 17 c-106 -38 -214 -51 -240 -27 -81 74 232 222 336 158 54 -33 11 -92 -96 -131z m1990 -161 c36 -36 -24 -129 -134 -206 -109 -77 -199 -193 -199 -260 0 -66 -93 -178 -206 -248 -159 -100 -199 -213 -175 -499 21 -249 80 -371 181 -371 108 0 142 88 120 316 -35 365 91 478 436 392 261 -66 325 -296 119 -428 -69 -44 -182 -181 -251 -305 -107 -192 -102 -225 35 -225 88 0 183 90 212 200 61 232 329 273 329 50 0 -82 -90 -240 -200 -350 -303 -303 -1200 -258 -1200 61 0 76 -67 139 -148 139 -161 0 -311 429 -262 748 47 305 536 937 760 983 341 71 514 72 583 3z m-10833 -122 c0 -48 -67 -144 -150 -212 -122 -101 -150 -97 -150 21 0 80 30 176 67 212 95 95 233 83 233 -21z m8346 -5 c74 -120 -114 -238 -248 -156 -111 69 -38 249 102 249 49 0 114 -42 146 -93z m-2027 -412 c-244 -198 -304 -849 -111 -1210 60 -111 92 -219 72 -239 -85 -85 -515 221 -587 418 -65 178 -47 205 114 163 206 -54 267 116 83 229 -65 40 -85 194 -49 372 59 299 57 301 -140 123 -171 -155 -201 -159 -201 -26 0 246 608 567 844 447 189 -97 189 -104 -25 -277z m2537 252 c-107 -81 -242 -146 -300 -144 -58 2 -19 69 88 150 107 81 242 146 300 144 58 -2 19 -69 -88 -150z m644 -1 c0 -30 -94 -238 -209 -464 -117 -228 -188 -517 -162 -654 28 -150 -7 -264 -91 -297 -216 -82 -162 -230 87 -237 l225 -7 -226 -91 c-146 -58 -315 -50 -475 23 -200 91 -282 82 -424 -46 -97 -88 -298 -176 -447 -196 -486 -65 -467 -233 22 -186 97 9 79 -28 -50 -105 -110 -65 -234 -168 -275 -227 -51 -74 -106 -61 -173 41 -160 243 -117 485 107 605 115 62 315 350 443 640 203 458 319 577 866 888 624 355 782 419 782 313z m-9400 -346 c0 -55 -19 -100 -42 -100 -23 0 -113 -27 -200 -61 -104 -40 -158 -5 -158 100 0 94 83 161 200 161 110 0 200 -45 200 -100z m18351 -1139 c60 -140 45 -176 -60 -141 -161 53 -266 450 -271 1030 -3 384 2 378 123 -150 70 -302 163 -635 208 -739z m-615 617 c-98 -159 -247 176 -169 379 59 154 77 148 150 -50 46 -124 55 -272 19 -329z m-14836 341 c0 -45 79 -169 175 -275 201 -222 425 -811 425 -1115 0 -371 1285 -2129 1557 -2129 66 0 142 -101 168 -225 27 -124 84 -309 127 -412 68 -161 46 -176 -160 -110 -879 279 -2098 2007 -2397 3397 -118 546 -115 950 5 950 55 0 100 -37 100 -81z m-2700 -117 c0 -138 -492 -444 -577 -359 -38 39 42 157 178 262 278 213 399 243 399 97z m14251 -496 c-39 -285 -112 -480 -166 -447 -88 54 -57 385 82 874 99 350 153 76 84 -427z m-992 -856 c-47 -1112 -62 -1250 -134 -1250 -67 0 -93 2202 -29 2450 55 214 183 -727 163 -1200z m503 775 c-64 -460 -99 -1243 -212 -4713 -30 -901 -79 -1678 -109 -1726 -237 -385 -266 627 -89 3164 23 330 72 1253 108 2050 59 1281 137 1700 316 1700 28 0 22 -214 -14 -475z m-13098 145 c38 -39 -53 -70 -203 -70 -150 0 -247 41 -217 91 63 100 311 88 420 -21z m-814 -70 c-34 -55 -104 -100 -156 -100 -52 0 -94 45 -94 100 0 55 70 100 156 100 86 0 128 -45 94 -100z m11986 -236 c-16 -192 126 -221 194 -39 35 95 84 89 206 -26 119 -113 139 -227 78 -450 -75 -275 -113 -297 -478 -269 -458 34 -2119 -314 -2541 -532 -347 -180 -626 -192 -571 -25 65 193 1477 554 2473 632 497 39 903 110 903 158 0 48 -90 87 -200 87 -130 0 -200 67 -200 192 0 105 -30 269 -66 363 -46 122 -24 158 75 123 78 -27 135 -123 127 -214z m3324 -37 c-33 -33 -56 26 -52 131 5 117 28 141 60 61 29 -72 26 -159 -8 -192z m-12926 -208 c59 -306 51 -318 -100 -168 -123 124 -311 155 -773 131 -490 -26 -611 -2 -611 117 0 111 142 157 550 179 303 16 618 42 700 57 187 35 161 71 234 -316z m-1974 -92 c-101 -102 -185 51 -102 186 63 102 87 102 121 1 23 -70 15 -154 -19 -187z m-301 -180 c-38 -421 -159 -590 -159 -222 0 142 -27 330 -61 417 -39 102 -6 158 96 158 117 0 148 -86 124 -353z m17917 -940 c32 -639 14 -924 -53 -857 -55 55 -129 573 -164 1150 -50 825 -39 1009 53 857 65 -106 139 -623 164 -1150z m-6476 1037 c0 -24 -70 -44 -156 -44 -86 0 -128 46 -93 102 57 92 249 48 249 -58z m3712 -473 c-44 -610 -112 -593 -112 29 0 293 32 501 71 462 39 -39 57 -260 41 -491z m3231 4 c46 -312 33 -475 -37 -475 -61 0 -106 219 -106 517 0 618 50 604 143 -42z m-16415 101 c25 -69 10 -195 -34 -280 -85 -167 -115 -831 -102 -2271 6 -669 43 -925 133 -925 90 0 138 -316 170 -1125 82 -2032 67 -2504 -82 -2554 -111 -37 -131 165 -108 1092 41 1611 10 2287 -105 2287 -65 0 -85 -872 -57 -2496 36 -2053 73 -2558 210 -2845 138 -292 166 -712 169 -2529 4 -2054 60 -2515 289 -2373 49 30 89 7 89 -51 0 -58 -65 -106 -145 -106 -105 0 -153 -149 -175 -540 l-30 -540 -350 166 c-323 153 -352 204 -379 665 -51 876 -27 9822 33 11932 59 2129 30 2317 -366 2317 -246 0 -229 402 -184 -4550 18 -1871 -10 -3304 -66 -3450 -117 -308 -57 -1724 70 -1645 51 31 101 155 113 276 11 120 45 -906 75 -2281 63 -2934 57 -3017 -231 -3072 -208 -39 -215 -7 -228 966 -7 553 -40 2086 -75 3406 -34 1320 -59 2760 -56 3200 4 440 15 2269 25 4065 11 1796 50 3246 88 3223 38 -23 105 23 150 102 161 287 1051 238 1159 -64z m7230 238 c-29 -48 -258 -144 -508 -214 -250 -70 -479 -166 -508 -214 -30 -47 -175 -83 -323 -80 l-269 7 300 130 c313 137 1141 424 1281 445 44 7 57 -27 27 -74z m-8858 -220 c0 -58 -45 -78 -100 -44 -55 34 -100 82 -100 106 0 24 45 44 100 44 55 0 100 -48 100 -106z m9255 15 c-31 -51 -234 -122 -453 -159 -218 -36 -506 -153 -640 -258 -138 -109 -388 -188 -578 -183 -314 8 -319 13 -84 91 138 46 520 195 850 333 624 259 1003 333 905 176z m4516 -986 c-22 -150 -41 -3 -40 327 1 330 19 453 41 273 23 -180 22 -450 -1 -600z m-15732 619 c34 -87 61 -254 61 -370 0 -273 -153 -111 -239 253 -69 291 75 385 178 117z m13940 -117 c-21 -101 -109 -163 -208 -146 -94 17 -171 -18 -171 -77 0 -60 -98 -81 -229 -48 -126 31 -518 11 -872 -46 -420 -68 -677 -70 -741 -6 -145 145 -238 120 -289 -77 -35 -133 -49 -121 -57 48 -8 154 57 239 213 276 845 196 1099 232 1707 241 600 9 678 -11 647 -165z m-9379 -382 c0 -63 101 -223 225 -357 124 -134 379 -438 568 -676 188 -238 570 -613 850 -832 656 -517 813 -800 655 -1182 -65 -157 -94 -344 -65 -416 34 -83 78 -48 122 97 38 124 121 214 185 200 176 -41 186 44 48 373 -70 165 -137 548 -151 850 -13 303 -54 719 -91 925 -54 299 -37 375 85 375 84 0 172 56 196 125 32 92 97 78 241 -50 109 -96 260 -175 335 -175 191 0 934 -807 1091 -1185 109 -264 106 -365 -22 -639 -299 -644 -415 -1439 -289 -1986 169 -732 151 -860 -130 -930 -292 -74 -413 -272 -482 -792 -62 -465 -121 -534 -319 -370 -125 104 -152 100 -152 -24 0 -82 61 -200 136 -262 114 -95 109 -195 -30 -619 -137 -422 -231 -539 -560 -701 -218 -108 -519 -273 -670 -369 -347 -219 -613 -81 -656 340 -24 236 45 355 350 607 209 173 576 475 814 672 620 510 333 444 -395 -92 -733 -539 -1148 -600 -1252 -182 -118 469 139 763 805 922 469 112 654 116 919 20 394 -143 739 -10 739 285 0 104 31 271 69 372 59 157 46 165 -90 54 -88 -71 -187 -240 -221 -375 -34 -135 -128 -246 -210 -246 -154 0 -180 83 -155 500 l15 250 -179 -212 c-138 -164 -1370 -638 -1658 -638 -26 0 -69 112 -95 248 -72 376 183 670 559 644 410 -29 1253 108 1318 213 28 46 -26 126 -121 179 -151 84 -155 118 -30 268 126 152 120 167 -55 134 -111 -22 -211 -134 -228 -257 -38 -267 -321 -370 -778 -284 -371 70 -443 277 -208 599 108 148 171 161 343 69 298 -160 692 -140 760 37 32 82 128 150 214 150 120 0 134 42 60 180 -119 224 -29 380 293 509 l247 98 -267 7 c-146 3 -281 -38 -300 -92 -69 -204 -1011 207 -1814 790 -1134 824 -1640 1527 -869 1208 169 -70 335 -99 369 -64 34 34 247 -88 472 -271 561 -457 1224 -865 1407 -865 215 0 189 275 -32 345 -546 173 -2416 1838 -2416 2150 0 99 -29 327 -65 507 l-66 328 316 -187 c173 -102 315 -237 315 -300z m-2602 132 c-1 -182 -20 -196 -98 -75 -125 194 -125 300 0 300 55 0 99 -101 98 -225z m12555 -1000 c-40 -619 -102 -1178 -138 -1243 -92 -165 -68 1539 28 1993 143 675 184 395 110 -750z m-3368 680 c22 -114 -14 -162 -100 -133 -74 24 -151 125 -170 223 -22 114 14 162 100 133 74 -24 151 -125 170 -223z m-7285 51 c0 -52 -45 -122 -100 -156 -55 -34 -100 8 -100 94 0 86 45 156 100 156 55 0 100 -42 100 -94z m9446 -1293 c-22 -23 -110 15 -194 85 -192 159 -214 1164 -27 1228 87 29 146 -156 194 -615 38 -361 50 -675 27 -698z m534 1267 c173 -173 148 -328 -30 -180 -123 102 -150 95 -150 -38 0 -89 40 -162 89 -162 85 0 49 -1508 -48 -1979 -98 -479 -191 -105 -184 744 14 1790 36 1902 323 1615z m-12554 -1980 c-20 -797 -36 -1495 -36 -1550 0 -55 9 -2272 20 -4926 12 -2655 -9 -4856 -45 -4892 -36 -36 -91 -40 -122 -8 -73 73 -91 8889 -22 11149 29 963 14 1699 -34 1669 -118 -73 -110 -1 36 318 l123 270 58 -290 c32 -159 42 -942 22 -1740z m1574 1794 c0 -113 -43 -179 -96 -147 -52 33 -70 125 -39 206 79 207 135 183 135 -59z m9900 -144 c0 -376 -4 -381 -242 -289 -94 36 -158 178 -158 350 0 222 46 289 200 289 162 0 200 -67 200 -350z m-645 34 c14 -92 -60 -188 -165 -216 -149 -39 -190 4 -190 199 0 177 47 238 166 215 91 -17 176 -107 189 -198z m8843 -180 c2 -123 -25 -120 -160 15 -89 89 -128 216 -87 282 86 140 245 -50 247 -297z m-18998 84 c0 -55 -45 -72 -100 -38 -55 34 -100 107 -100 162 0 55 45 72 100 38 55 -34 100 -107 100 -162z m1893 -363 c4 -69 -38 -125 -93 -125 -55 0 -97 146 -93 325 6 272 21 293 93 125 47 -110 89 -256 93 -325z m7640 260 c53 -202 -197 -855 -291 -761 -70 70 78 976 160 976 41 0 100 -97 131 -215z m4146 -1903 c-30 -1592 -66 -2028 -174 -2064 -112 -37 -124 100 -68 743 37 434 97 1363 131 2064 35 701 82 1275 105 1275 24 0 26 -908 6 -2018z m4487 1593 c-28 -69 -50 -12 -50 125 0 138 22 194 50 125 28 -69 28 -181 0 -250z m-17266 69 c0 -86 -46 -128 -102 -93 -56 35 -75 105 -44 156 86 139 146 113 146 -63z m-880 -69 c23 -69 3 -822 -43 -1675 -84 -1533 -29 -7541 86 -9423 60 -971 8 -1477 -151 -1477 -46 0 -123 326 -171 725 -101 839 -112 8159 -14 10225 36 770 67 1479 69 1575 5 201 162 236 224 50z m10030 25 c-34 -55 -115 -99 -181 -98 -71 0 -59 40 31 98 192 124 227 124 150 0z m5506 -1353 c37 -714 100 -1334 141 -1378 100 -108 -20 -673 -147 -699 -63 -13 -110 629 -127 1724 -16 959 -6 1723 20 1697 26 -27 77 -631 113 -1344z m3513 577 c-25 -96 -45 6 -44 226 1 220 22 298 46 174 24 -125 23 -305 -2 -400z m-1503 51 c-28 -69 -50 -12 -50 125 0 138 22 194 50 125 28 -69 28 -181 0 -250z m-16666 19 c0 -52 -45 -94 -100 -94 -55 0 -100 70 -100 156 0 86 45 128 100 94 55 -34 100 -104 100 -156z m860 -467 c-33 -33 -56 26 -52 131 5 117 28 141 60 61 29 -72 26 -159 -8 -192z m15800 -100 c-33 -33 -56 26 -52 131 5 117 28 141 60 61 29 -72 26 -159 -8 -192z m1978 -202 c-86 -356 -120 -389 -196 -189 -77 199 13 464 157 464 64 0 79 -108 39 -275z m-17396 -235 c37 -285 120 -533 313 -940 114 -241 143 -987 145 -3788 2 -1918 28 -3527 58 -3574 50 -82 -433 -578 -570 -585 -34 -2 -49 188 -33 422 57 856 49 6140 -9 6625 -56 458 -48 483 87 302 140 -187 148 -177 138 175 -7 234 -59 373 -141 373 -71 0 -134 101 -139 225 -42 997 -36 1160 37 1087 45 -45 97 -190 114 -322z m16924 85 c-28 -69 -50 -12 -50 125 0 138 22 194 50 125 28 -69 28 -181 0 -250z m-1432 -300 c45 -343 28 -475 -61 -475 -86 0 -112 153 -88 507 42 603 67 598 149 -32z m-5965 -550 c-25 -96 -46 -18 -46 175 0 193 21 271 46 175 25 -96 25 -254 0 -350z m-8200 37 c270 -186 677 -369 905 -408 372 -63 406 -91 334 -287 -110 -296 -350 -322 -698 -74 -160 114 -359 207 -443 207 -212 0 -899 667 -820 795 100 161 192 132 722 -233z m9100 -137 c-25 -96 -46 -18 -46 175 0 193 21 271 46 175 25 -96 25 -254 0 -350z m-5169 35 c0 -71 -87 -208 -194 -305 -107 -97 -214 -250 -237 -340 -23 -91 -29 -52 -13 85 48 406 236 817 344 750 55 -34 100 -120 100 -190z m613 -1021 c227 -245 375 -939 200 -939 -63 0 -168 203 -234 450 -129 480 -345 638 -240 175 34 -151 85 -432 113 -625 l50 -350 -158 340 c-86 187 -159 525 -161 750 -3 226 -50 466 -106 535 -70 86 -59 227 33 449 l134 324 87 -449 c48 -247 175 -544 282 -660z m3387 682 c0 -153 90 -455 200 -671 261 -513 254 -916 -21 -1202 -122 -126 -273 -380 -335 -564 -94 -276 -164 -334 -404 -334 -159 0 -314 32 -344 72 -29 39 -182 4 -340 -77 -157 -82 -309 -125 -338 -96 -91 91 387 527 562 514 124 -10 170 71 176 309 4 176 75 401 159 500 329 387 510 946 449 1393 -48 344 -29 435 88 435 95 0 148 -99 148 -279z m911 -350 c-81 -81 -109 -6 -103 284 8 391 9 392 111 111 73 -201 71 -316 -8 -395z m-9191 -432 c11 -406 -118 -939 -228 -939 -105 0 -127 1231 -24 1335 114 114 244 -90 252 -396z m4217 -159 c-34 -560 -36 -564 -130 -330 -91 226 -22 871 86 804 39 -24 59 -237 44 -474z m5363 120 c0 -110 -45 -200 -100 -200 -55 0 -100 90 -100 200 0 110 45 200 100 200 55 0 100 -90 100 -200z m-540 -273 c-33 -33 -56 26 -52 131 5 117 28 141 60 61 29 -72 26 -159 -8 -192z m-1678 -210 c21 -144 -21 -217 -125 -217 -102 0 -157 90 -157 258 0 314 235 279 282 -41z m-761 -224 c-184 -214 -321 -163 -321 119 0 110 42 174 93 142 51 -31 124 -7 163 55 50 81 90 78 145 -11 42 -68 7 -204 -80 -305z m142 -446 c-31 -81 -102 -147 -158 -147 -63 0 -56 97 18 261 120 263 245 160 140 -114z m224 -155 c-191 -118 -208 -56 -72 269 119 285 121 286 162 50 22 -131 -18 -275 -90 -319z m-687 26 c0 -93 90 -226 200 -295 130 -81 200 -88 200 -18 0 59 46 79 102 44 143 -89 20 -249 -190 -249 -251 0 -651 454 -575 651 75 197 263 102 263 -133z m-2627 7 c-86 -96 -189 -300 -227 -453 -38 -152 -165 -328 -283 -389 -207 -109 -208 -106 -36 88 98 110 152 269 119 352 -36 94 45 234 211 365 328 257 431 275 216 37z m207 -220 c-68 -108 -142 -177 -165 -153 -43 43 175 348 248 348 21 0 -16 -88 -83 -195z m820 -55 c0 -156 -57 -250 -150 -250 -177 0 -185 48 -46 307 139 260 196 243 196 -57z m500 38 c0 -178 -25 -192 -150 -88 -82 68 -150 164 -150 212 0 49 68 88 150 88 86 0 150 -90 150 -212z m-1000 -238 c0 -137 -40 -250 -89 -250 -117 0 -228 292 -155 409 109 176 244 88 244 -159z m1150 -150 c-34 -55 -82 -100 -106 -100 -24 0 -44 45 -44 100 0 55 48 100 106 100 58 0 78 -45 44 -100z m11250 -100 c0 -55 -70 -100 -156 -100 -86 0 -128 45 -94 100 34 55 104 100 156 100 52 0 94 -45 94 -100z m-17881 -762 l-95 -588 -12 695 c-8 492 19 664 95 588 73 -73 76 -291 12 -695z m5847 437 c-28 -69 -50 -12 -50 125 0 138 22 194 50 125 28 -69 28 -181 0 -250z m-1466 -225 c-71 -85 -151 -132 -179 -105 -27 28 8 120 79 205 71 85 151 132 179 105 27 -28 -8 -120 -79 -205z m-5403 -475 c-3 -276 -19 -298 -108 -144 -58 100 -81 246 -51 325 93 241 162 162 159 -181z m2530 -500 c46 -122 18 -175 -94 -175 -135 0 -151 -83 -98 -525 35 -289 64 -671 64 -850 1 -179 51 -325 111 -325 78 0 90 248 41 825 -63 744 -55 810 85 675 167 -161 335 -1297 284 -1914 -26 -308 -73 -372 -300 -411 -149 -26 -337 -76 -420 -112 -130 -56 -150 176 -150 1764 l0 1828 205 -303 c113 -166 235 -381 272 -477z m10188 -750 c237 -591 350 -774 760 -1231 234 -260 425 -497 425 -527 0 -184 -368 -367 -738 -367 -233 0 -511 -66 -618 -147 -312 -236 -444 -184 -444 175 0 180 -60 416 -133 525 -74 108 -211 479 -306 824 -154 559 -156 642 -21 777 96 96 241 129 395 91 134 -34 273 -13 310 47 114 184 254 120 370 -167z m-1490 -224 c41 0 75 -67 75 -148 0 -203 278 -1039 471 -1415 88 -172 132 -385 98 -475 -72 -187 -376 -216 -540 -52 -114 114 -329 44 -329 -105 0 -46 90 -106 200 -135 135 -35 200 -136 200 -310 0 -323 -590 -1147 -827 -1155 -98 -3 -221 -118 -273 -256 -110 -289 -203 -305 -592 -104 -186 96 -303 253 -345 462 -53 268 -86 297 -213 192 -206 -171 -189 -10 25 232 129 145 142 209 49 241 -227 80 -19 227 320 227 182 0 388 68 456 150 205 247 385 173 424 -175 30 -275 48 -294 114 -125 43 110 114 290 157 400 114 293 79 392 -142 396 -153 3 -215 103 -279 454 -109 596 -32 1051 247 1466 168 250 282 326 429 288 110 -28 234 -52 275 -53z m-7735 -591 c-9 -198 0 -422 22 -497 21 -76 -13 -157 -74 -180 -141 -52 -235 287 -237 854 -1 382 19 421 152 310 93 -77 147 -268 137 -487z m6594 315 c50 -96 55 -265 10 -375 -44 -110 -83 -544 -87 -964 -5 -601 -41 -778 -165 -825 -250 -96 -642 -71 -642 41 0 59 -106 75 -248 39 -202 -50 -267 -15 -343 186 -74 193 -41 354 148 727 134 264 243 541 243 615 0 75 121 182 269 238 148 56 330 190 406 298 169 241 291 247 409 20z m6865 -428 c-50 -156 -94 -186 -148 -99 -108 175 -1 542 122 419 53 -53 65 -197 26 -320z m-13049 103 c0 -55 -45 -100 -100 -100 -55 0 -100 45 -100 100 0 55 45 100 100 100 55 0 100 -45 100 -100z m11100 -1450 c0 -82 -45 -150 -100 -150 -55 0 -100 68 -100 150 0 83 45 150 100 150 55 0 100 -67 100 -150z m2866 -277 c-28 -68 -49 12 -47 177 3 165 25 220 50 123 26 -97 24 -232 -3 -300z m-2907 -447 c-109 -110 -184 64 -106 245 74 171 80 171 121 -4 24 -100 17 -209 -15 -241z m-2574 -551 l-15 -725 -68 650 c-37 358 -50 684 -29 725 97 189 126 21 112 -650z m-457 221 c-29 -112 -76 -182 -103 -154 -54 54 41 358 112 358 25 0 20 -92 -9 -204z m3047 -353 c0 -155 -36 -222 -91 -167 -50 50 -62 166 -27 257 89 232 118 209 118 -90z m-499 -268 c-50 -150 -476 -231 -476 -90 0 105 165 194 383 207 74 4 115 -48 93 -117z m-12816 -348 c-33 -33 -56 26 -52 131 5 117 28 141 60 61 29 -72 26 -159 -8 -192z m10647 -1438 c-54 -736 -127 -1766 -162 -2289 -110 -1633 -166 -1140 -130 1153 28 1784 63 2233 185 2364 83 90 162 151 177 137 15 -14 -16 -628 -70 -1365z m2336 1122 c95 -154 -220 -332 -457 -257 -215 69 -217 76 -36 209 216 157 414 177 493 48z m-12798 -445 c264 -346 317 -842 163 -1516 -120 -521 -217 20 -117 649 67 423 54 595 -55 750 -140 199 -141 199 -200 -23 -80 -303 -236 -184 -236 180 0 384 131 372 445 -40z m8210 -703 c-29 -392 -116 -1028 -194 -1413 l-142 -700 -9 1408 c-6 775 17 1436 50 1468 33 33 124 35 203 5 113 -43 132 -206 92 -768z m4795 436 c0 -95 -118 -160 -325 -180 -363 -35 -411 43 -150 243 219 168 475 134 475 -63z m-13090 -372 c-33 -33 -56 26 -52 131 5 117 28 141 60 61 29 -72 26 -159 -8 -192z m-300 -100 c-33 -33 -56 26 -52 131 5 117 28 141 60 61 29 -72 26 -159 -8 -192z m900 -100 c-33 -33 -56 26 -52 131 5 117 28 141 60 61 29 -72 26 -159 -8 -192z m-760 -677 c0 -137 -45 -250 -100 -250 -112 0 -137 330 -33 433 110 111 133 79 133 -183z m700 -556 c0 -52 -66 -94 -147 -94 -89 0 -124 59 -89 149 59 154 236 113 236 -55z m5960 -1554 c-33 -86 -60 -194 -60 -239 0 -46 -127 -36 -282 23 -440 166 -808 23 -976 -378 -80 -190 -189 -346 -243 -346 -146 0 -121 114 98 450 252 386 627 594 1125 623 326 20 387 -5 338 -133z m-1442 -162 c-71 -71 -118 -77 -118 -15 0 134 118 252 185 185 28 -28 -2 -105 -67 -170z m1163 -468 c34 -104 -15 -124 -189 -79 -149 39 -300 2 -413 -100 -182 -165 -229 -78 -116 216 77 202 649 172 718 -37z m-1626 -285 c-38 -151 -93 -421 -123 -600 -58 -350 -174 -421 -271 -167 -93 242 -74 475 64 771 171 368 422 365 330 -4z m1494 -227 c-27 -44 -140 -55 -251 -26 -160 41 -178 82 -87 191 87 105 149 112 251 27 75 -62 114 -148 87 -192z m-1018 -341 c-165 -143 -318 -206 -372 -154 -138 135 131 397 409 397 l243 0 -280 -243z m851 -174 c-45 -308 -229 -332 -246 -33 -10 159 38 250 132 250 93 0 134 -79 114 -217z"/>
<path d="M16750 22200 c-34 -55 8 -100 94 -100 86 0 156 45 156 100 0 55 -42 100 -94 100 -52 0 -122 -45 -156 -100z"/>
<path d="M14398 22343 c-122 -319 -127 -643 -9 -643 48 0 110 124 136 275 25 151 80 354 122 450 46 108 31 175 -39 175 -62 0 -157 -115 -210 -257z"/>
<path d="M10460 18584 c-226 -323 -93 -408 192 -123 286 287 303 339 104 339 -80 0 -213 -97 -296 -216z"/>
<path d="M11067 18133 c-104 -103 -79 -433 33 -433 55 0 100 68 100 150 0 83 45 150 100 150 55 0 100 45 100 100 0 112 -231 136 -333 33z"/>
<path d="M10600 17297 c0 -194 250 -380 361 -269 65 65 -181 472 -285 472 -42 0 -76 -91 -76 -203z"/>
<path d="M10867 15533 c-122 -121 -70 -506 85 -635 214 -177 287 -61 130 205 -104 177 -106 233 -7 268 69 25 125 87 125 137 0 106 -235 124 -333 25z"/>
<path d="M10773 14640 c-40 -41 -73 -142 -73 -227 0 -112 30 -123 111 -42 61 61 94 163 73 227 -21 63 -71 82 -111 42z"/>
<path d="M18253 10291 c150 -473 463 -1091 552 -1091 131 0 129 9 -168 693 -145 334 -305 607 -357 607 -51 0 -64 -94 -27 -209z"/>
<path d="M16700 10356 c0 -79 45 -172 100 -206 55 -34 100 31 100 144 0 113 -45 206 -100 206 -55 0 -100 -65 -100 -144z"/>
<path d="M16900 9756 c0 -176 60 -202 146 -63 31 51 12 121 -44 156 -56 35 -102 -7 -102 -93z"/>
<path d="M8600 24900 c0 -55 132 -100 294 -100 162 0 318 -39 348 -87 29 -48 270 -115 534 -150 265 -36 582 -134 704 -220 266 -187 656 -154 697 59 32 170 -767 398 -1399 398 -201 0 -394 45 -428 100 -34 55 -217 100 -406 100 -189 0 -344 -45 -344 -100z"/>
<path d="M18757 24775 c-92 -450 -126 -1282 -54 -1327 41 -25 104 167 141 428 36 261 91 620 122 799 64 370 -133 464 -209 100z"/>
<path d="M21178 23575 c-16 -784 30 -2032 100 -2775 79 -829 108 -2016 75 -3075 -28 -949 -14 -1725 33 -1725 155 0 217 1323 150 3200 -37 1018 -71 2739 -76 3825 -8 1484 -40 1975 -132 1975 -90 0 -130 -384 -150 -1425z"/>
<path d="M23600 24946 c0 -30 185 -305 411 -611 226 -306 540 -833 698 -1171 l287 -614 -18 700 c-16 678 -31 717 -472 1224 -296 339 -535 524 -681 525 -124 0 -225 -23 -225 -53z m1100 -1002 c0 -24 -45 -44 -100 -44 -55 0 -100 48 -100 106 0 58 45 78 100 44 55 -34 100 -82 100 -106z"/>
<path d="M24600 24900 c0 -55 45 -100 100 -100 55 0 100 -65 100 -144 0 -79 45 -172 100 -206 58 -36 100 66 100 244 0 239 -44 306 -200 306 -110 0 -200 -45 -200 -100z"/>
<path d="M7200 24000 c0 -55 160 -100 356 -100 212 0 331 40 294 100 -34 55 -194 100 -356 100 -162 0 -294 -45 -294 -100z"/>
<path d="M5398 23543 c-127 -333 -124 -508 17 -775 204 -388 389 -450 628 -211 205 205 201 582 -9 756 -150 125 -159 103 -95 -238 81 -436 -80 -514 -257 -125 -86 188 -85 313 2 505 149 326 147 345 -36 345 -84 0 -197 -115 -250 -257z"/>
<path d="M19667 18633 c-105 -104 -78 -533 33 -533 55 0 100 135 100 300 0 311 -20 346 -133 233z"/>
<path d="M14625 17878 c-244 -118 -301 -277 -100 -279 69 -1 238 -31 375 -68 230 -60 238 -51 105 111 -133 162 -124 176 100 157 374 -32 466 6 245 101 -266 114 -454 109 -725 -22z"/>
<path d="M19546 17793 c-38 -61 -24 -155 29 -208 64 -64 119 -45 157 55 70 182 -88 312 -186 153z"/>
<path d="M15600 17650 c-102 -123 -95 -150 38 -150 89 0 162 68 162 150 0 83 -17 150 -38 150 -21 0 -94 -67 -162 -150z"/>
<path d="M13875 17331 c-96 -25 -175 -111 -175 -191 0 -125 42 -123 300 10 433 224 373 311 -125 181z"/>
<path d="M19500 17056 c0 -86 45 -156 100 -156 55 0 100 42 100 94 0 52 -45 122 -100 156 -55 34 -100 -8 -100 -94z"/>
<path d="M14800 16900 c0 -55 43 -100 96 -100 53 0 188 -98 300 -219 155 -166 204 -182 204 -65 0 175 -308 484 -483 484 -64 0 -117 -45 -117 -100z"/>
<path d="M14342 16688 c-79 -128 130 -284 383 -286 235 -3 221 45 -70 235 -170 112 -265 127 -313 51z"/>
<path d="M14100 16307 c0 -117 392 -248 480 -161 75 75 -171 250 -355 252 -69 1 -125 -40 -125 -91z"/>
<path d="M15446 16093 c-36 -58 -42 -130 -13 -160 72 -71 267 55 267 173 0 128 -173 119 -254 -13z"/>
<path d="M24897 14864 c-29 -29 -412 -82 -850 -117 -438 -36 -851 -109 -917 -164 -66 -54 -246 -84 -400 -67 -173 20 -271 -13 -257 -85 31 -165 -513 -263 -1032 -185 -361 54 -441 38 -441 -90 0 -86 -65 -156 -144 -156 -79 0 -172 -46 -207 -102 -41 -66 137 -83 519 -47 458 42 531 32 342 -51 -328 -143 -225 -206 220 -134 379 62 508 224 195 246 -96 7 163 71 575 144 1858 325 2424 435 2469 480 27 27 33 123 15 215 -19 92 -58 143 -87 113z"/>
<path d="M19123 14200 c-68 -110 -212 -200 -318 -200 -106 0 -221 -45 -255 -100 -36 -58 60 -100 229 -100 288 0 621 259 621 483 0 180 -138 139 -277 -83z"/>
<path d="M17960 14216 c-35 -56 -15 -132 45 -169 154 -95 253 35 125 163 -72 72 -128 74 -170 6z"/>
<path d="M20000 14100 c0 -110 45 -200 100 -200 55 0 100 90 100 200 0 110 -45 200 -100 200 -55 0 -100 -90 -100 -200z"/>
<path d="M16958 13536 c-34 -91 -40 -187 -13 -215 64 -63 355 175 355 291 0 156 -276 94 -342 -76z"/>
<path d="M20126 13375 c19 -179 -33 -232 -253 -257 -152 -17 -250 -74 -219 -125 95 -153 404 -106 581 90 205 227 215 517 16 517 -95 0 -140 -82 -125 -225z"/>
<path d="M17646 13293 c-91 -147 251 -386 559 -390 248 -3 495 155 495 317 0 137 -222 88 -342 -75 -131 -180 -458 -98 -458 116 0 164 -160 185 -254 32z"/>
<path d="M19200 13000 c0 -133 -67 -200 -200 -200 -110 0 -200 -45 -200 -100 0 -167 358 -112 535 83 206 228 213 417 15 417 -83 0 -150 -89 -150 -200z"/>
<path d="M18300 12548 c0 -234 -457 -409 -649 -248 -213 176 -328 34 -131 -163 97 -97 236 -133 361 -93 302 96 729 459 664 564 -90 145 -245 107 -245 -60z"/>
<path d="M15714 12411 c-82 -52 -96 -110 -36 -147 55 -34 155 5 223 87 135 163 29 197 -187 60z"/>
<path d="M12643 11875 c-605 -645 -869 -1065 -790 -1257 61 -150 77 -146 147 32 67 171 88 177 144 40 36 -88 52 -220 36 -294 -49 -219 296 -230 365 -11 35 108 131 223 215 255 84 32 123 106 87 164 -44 72 -118 65 -231 -22 -109 -85 -99 -51 30 101 165 193 173 243 53 318 -120 74 -116 99 28 154 95 36 145 109 112 162 -33 55 -151 18 -274 -85 l-215 -182 200 247 c110 136 301 330 425 432 224 184 297 371 146 371 -44 0 -259 -191 -478 -425z"/>
<path d="M16180 11925 c-129 -268 -580 -449 -580 -232 0 59 -45 107 -100 107 -154 0 -118 -360 49 -500 122 -100 202 -88 425 63 152 103 407 187 567 187 160 0 311 61 337 135 33 99 -13 117 -166 69 -208 -66 -260 10 -219 321 29 229 -180 129 -313 -150z"/>
<path d="M11067 10933 c-115 -115 -73 -233 83 -233 83 0 150 68 150 150 0 156 -118 198 -233 83z"/>
<path d="M11221 9653 c-582 -613 -840 -768 -1596 -959 -473 -119 -628 -257 -468 -418 31 -31 178 6 325 83 147 77 331 140 407 140 378 2 2000 1315 2009 1626 5 177 -192 40 -677 -472z"/>
<path d="M22100 9005 c0 -198 60 -297 200 -334 169 -44 200 -3 200 267 0 248 -45 323 -200 335 -156 11 -200 -47 -200 -268z"/>
<path d="M22100 8300 c0 -55 90 -100 200 -100 110 0 200 45 200 100 0 55 -90 100 -200 100 -110 0 -200 -45 -200 -100z"/>
<path d="M10100 7942 c0 -177 215 -146 277 39 22 66 -32 119 -119 119 -87 0 -158 -71 -158 -158z"/>
<path d="M22122 7885 c24 -74 125 -151 223 -170 114 -22 162 14 133 100 -24 74 -125 151 -223 170 -114 22 -162 -14 -133 -100z"/>
<path d="M19353 7771 c-43 -99 -50 -208 -15 -242 101 -102 183 41 136 238 -41 175 -47 175 -121 4z"/>
<path d="M22169 7436 c-93 -93 20 -236 187 -236 79 0 144 68 144 150 0 151 -211 206 -331 86z"/>
<path d="M19334 6943 c-33 -86 -10 -207 53 -270 84 -84 113 -44 113 157 0 301 -75 352 -166 113z"/>
<path d="M10942 6865 c-89 -231 -5 -695 133 -741 86 -28 125 85 125 362 0 413 -157 643 -258 379z"/>
<path d="M22217 6736 c18 -157 78 -275 133 -261 148 37 121 451 -33 503 -94 31 -123 -39 -100 -242z"/>
<path d="M19300 6056 c0 -134 45 -272 100 -306 58 -36 100 66 100 244 0 168 -45 306 -100 306 -55 0 -100 -110 -100 -244z"/>
<path d="M22270 5075 c-69 -1305 68 -1686 164 -455 88 1125 82 1580 -19 1580 -47 0 -112 -506 -145 -1125z"/>
<path d="M24360 4150 c59 -1713 76 -1850 239 -1850 71 0 83 267 38 814 -56 674 -44 805 72 766 105 -34 155 -326 196 -1138 50 -978 58 -902 75 726 20 1805 18 1819 -205 1890 -123 39 -280 143 -347 232 -98 128 -112 -163 -68 -1440z m475 450 c46 -246 36 -306 -34 -200 -54 83 -99 259 -99 392 -3 321 54 239 133 -192z"/>
<path d="M19378 4344 c-81 -80 29 -444 134 -444 48 0 88 113 88 250 0 235 -97 320 -222 194z"/>
<path d="M4952 4106 c-79 -249 9 -415 184 -347 154 59 146 464 -10 516 -60 20 -138 -56 -174 -169z"/>
<path d="M22239 3442 c34 -87 61 -177 61 -200 0 -23 45 -42 100 -42 55 0 100 90 100 200 0 117 -67 200 -161 200 -105 0 -140 -54 -100 -158z"/>
<path d="M22341 2862 c-85 -220 28 -333 181 -180 90 90 90 146 1 235 -89 89 -132 76 -182 -55z"/>
<path d="M23439 2730 c32 -188 -6 -436 -92 -600 -135 -259 -146 -264 -146 -55 -1 124 -49 225 -108 225 -58 0 -92 -124 -75 -275 18 -154 94 -275 172 -275 193 0 295 -307 303 -917 8 -604 79 -833 257 -833 98 0 116 198 75 852 -48 762 -36 846 111 790 90 -35 164 -167 164 -295 0 -301 97 -547 216 -547 158 0 30 819 -150 950 -91 67 -166 172 -166 233 0 61 -67 85 -150 53 -115 -44 -150 22 -150 284 0 188 -71 429 -157 536 -149 184 -155 178 -104 -126z"/>
<path d="M16475 2842 c-41 -41 -75 -352 -75 -690 0 -554 -128 -1517 -262 -1977 -33 -110 3 -175 95 -175 93 0 165 136 197 375 28 206 97 690 152 1075 100 697 36 1535 -107 1392z"/>
<path d="M16861 2458 c-114 -456 -183 -2458 -84 -2458 52 0 121 506 153 1125 32 619 88 1226 126 1350 39 129 24 225 -33 225 -56 0 -129 -109 -162 -242z"/>
<path d="M19400 2462 c0 -152 70 -257 194 -289 251 -66 288 -22 230 279 -64 337 -424 345 -424 10z"/>
<path d="M17345 2191 c-37 -60 -17 -159 44 -220 81 -81 111 -53 111 109 0 241 -52 279 -155 111z"/>
<path d="M8748 1661 c-109 -80 -167 -176 -129 -213 90 -91 633 92 624 210 -12 154 -286 156 -495 3z"/>
<path d="M22343 1568 c-80 -209 20 -345 155 -210 56 56 58 152 3 240 -77 124 -101 120 -158 -30z"/>
<path d="M23050 1500 c-34 -55 -14 -100 44 -100 58 0 106 45 106 100 0 55 -20 100 -44 100 -24 0 -72 -45 -106 -100z"/>
<path d="M24551 887 c85 -512 120 -587 280 -587 65 0 125 112 133 249 8 138 -22 227 -68 199 -45 -28 -97 70 -114 218 -18 148 -93 289 -168 313 -107 36 -121 -46 -63 -392z"/>
<path d="M22900 1008 c0 -123 65 -208 157 -208 93 0 144 68 125 167 -48 251 -282 285 -282 41z"/>
<path d="M19500 657 c0 -193 51 -257 207 -257 157 0 199 54 175 224 -47 332 -382 362 -382 33z"/>
<path d="M22400 450 c0 -347 37 -450 161 -450 105 0 140 54 100 158 -34 87 -61 290 -61 450 0 161 -45 292 -100 292 -55 0 -100 -202 -100 -450z"/>
<path d="M17375 642 c-41 -41 -75 -167 -75 -279 0 -147 30 -173 109 -94 61 61 94 186 75 279 -19 94 -68 136 -109 94z"/>
<path d="M23000 367 c0 -171 104 -276 210 -211 100 62 2 344 -121 344 -49 0 -89 -60 -89 -133z"/>
</g>
</svg>