<svg xmlns="http://www.w3.org/2000/svg" version="1.0" width="250" height="250" viewBox="0 0 250.000000 250.000000" preserveAspectRatio="xMidYMid meet">
<metadata>
Created by potrace 1.10, written by Peter Selinger 2001-2011
</metadata>
<g transform="translate(0.000000,250.000000) scale(0.010000,-0.010000)" fill="#555555" stroke="none">
<path d="M0 24735 c0 -248 12 -255 177 -106 97 88 289 205 425 259 224 90 206 100 -177 106 -395 6 -425 -13 -425 -259z"/>
<path d="M4700 24898 c-494 -297 -2899 -1598 -2955 -1598 -37 0 -209 -115 -381 -255 -173 -140 -550 -434 -839 -652 l-525 -398 2 -1922 c0 -1058 34 -1873 75 -1812 40 61 290 143 556 182 465 69 482 63 450 -161 -30 -214 -73 -229 -558 -198 -422 28 -525 4 -525 -120 0 -127 91 -144 510 -94 464 55 507 43 473 -130 -30 -155 -125 -190 -510 -190 -354 0 -473 -38 -473 -150 0 -118 107 -143 500 -115 406 28 500 4 500 -125 0 -155 -80 -177 -725 -199 -194 -6 -275 -62 -275 -189 0 -146 36 -160 193 -76 107 57 332 104 500 104 240 0 307 -43 307 -200 0 -173 -67 -200 -500 -200 -363 0 -500 -39 -500 -140 0 -104 98 -129 375 -96 424 50 589 -28 640 -304 30 -162 -30 -191 -415 -200 -247 -5 -457 -55 -465 -110 -8 -55 35 -86 96 -68 220 63 769 -94 769 -220 0 -73 -201 -168 -468 -220 -257 -51 -486 -150 -509 -221 -41 -126 108 -116 702 45 198 54 355 -226 210 -371 -76 -76 -403 -147 -860 -188 -41 -4 -75 -55 -75 -114 0 -59 101 -99 225 -89 124 10 305 13 404 7 288 -18 29 -382 -328 -461 -311 -68 -394 -199 -176 -279 100 -37 100 -73 0 -179 -69 -72 -123 -292 -120 -487 l5 -355 156 375 c85 206 188 375 228 375 40 0 244 249 453 553 210 304 398 536 418 515 71 -71 -259 -874 -760 -1850 -367 -713 -505 -1095 -505 -1395 l0 -414 225 232 c253 261 447 536 536 759 34 83 146 341 250 574 104 233 189 527 189 653 0 126 61 317 135 426 150 220 447 988 500 1297 19 110 61 268 92 350 103 273 386 1561 363 1656 -12 52 5 162 38 244 32 83 111 488 174 900 196 1287 339 1706 1062 3115 75 146 136 329 136 406 0 369 1257 1836 2300 2686 303 247 663 547 800 667 138 120 340 286 450 369 188 141 170 151 -275 154 -261 2 -475 -42 -475 -97 0 -55 -138 -100 -306 -100 -178 0 -280 42 -244 100 78 127 -1039 125 -1250 -2z m1175 -291 c69 -4 125 -41 125 -82 0 -41 -225 -75 -500 -76 -275 0 -500 30 -500 68 0 92 303 162 550 126 110 -15 256 -31 325 -36z m-1025 -407 c37 -59 -74 -99 -269 -98 -251 1 -295 25 -181 98 194 126 372 126 450 0z m687 -21 c-70 -114 -437 -97 -437 20 0 54 109 90 243 79 133 -11 221 -56 194 -99z m-1517 -399 c-93 -93 -147 -93 -240 0 -93 93 -67 120 120 120 187 0 213 -27 120 -120z m1255 51 c-96 -25 -254 -25 -350 0 -96 25 -17 46 175 46 193 0 271 -21 175 -46z m-475 -331 c111 -72 52 -97 -231 -98 -229 -1 -356 38 -319 98 78 126 354 126 550 0z m-1900 -462 c0 -21 -138 -38 -306 -38 -168 0 -282 39 -252 87 49 80 558 36 558 -49z m1150 69 c55 -11 -8 -63 -139 -115 -249 -100 -648 -33 -569 95 39 64 423 74 708 20z m-900 -307 c37 -59 -72 -97 -269 -93 -276 6 -298 21 -131 93 271 117 328 117 400 0z m-546 -362 c53 -7 242 -20 421 -29 l325 -17 -340 -147 c-187 -82 -364 -125 -392 -96 -29 28 -157 -17 -285 -101 l-233 -153 44 428 c25 235 49 450 53 477 5 28 77 -40 160 -150 84 -110 195 -206 247 -212z m1151 -29 c-37 -60 -133 -109 -214 -109 -120 0 -126 41 -35 211 76 143 145 178 215 108 56 -56 71 -150 34 -210z m-2555 -209 c0 -55 -101 -99 -225 -98 -182 1 -196 20 -75 98 194 125 300 125 300 0z m536 -2275 c-28 -1306 -95 -2870 -150 -3475 -54 -605 -96 -1201 -93 -1325 2 -124 -40 -225 -94 -225 -126 0 -123 2862 4 4700 141 2034 216 2700 304 2700 44 0 57 -1069 29 -2375z m-497 1587 c-83 -458 -77 -453 -497 -441 -226 6 -338 -32 -311 -106 23 -64 202 -105 405 -93 451 27 487 -147 39 -191 -271 -26 -330 -77 -357 -306 -25 -221 9 -275 175 -275 253 0 263 84 32 266 -158 125 -146 136 125 111 166 -15 296 -83 290 -152 -5 -69 -17 -458 -25 -865 l-15 -741 -500 -34 c-303 -21 -487 4 -467 65 18 55 198 114 400 131 495 42 469 219 -33 219 -333 0 -400 33 -400 200 0 170 67 200 450 200 248 0 450 45 450 100 0 55 -209 100 -464 100 l-465 0 70 923 c42 558 125 984 209 1077 77 85 319 158 546 164 l408 10 -65 -362z m1261 142 c0 -26 -90 -95 -200 -154 -121 -65 -200 -69 -200 -11 0 53 79 117 175 142 96 25 186 51 200 57 14 7 25 -9 25 -34z m800 -234 c0 -205 -281 -319 -745 -303 -503 18 -503 18 -80 56 286 26 425 86 425 183 0 79 90 144 200 144 110 0 200 -36 200 -80z m-900 -631 c0 -67 120 -94 303 -67 190 28 288 4 265 -64 -49 -138 -791 -75 -843 72 -48 136 -24 170 125 170 83 0 150 -50 150 -111z m200 -527 c0 -165 -326 -269 -502 -161 -68 42 -93 127 -55 188 100 161 557 139 557 -27z m-200 -462 c0 -55 -90 -100 -200 -100 -110 0 -200 45 -200 100 0 55 90 100 200 100 110 0 200 -45 200 -100z m-100 -400 c0 -55 -42 -100 -94 -100 -52 0 -122 45 -156 100 -34 55 8 100 94 100 86 0 156 -45 156 -100z"/>
<path d="M571 21638 c-174 -175 -62 -350 204 -320 164 19 275 93 275 182 0 157 -357 260 -479 138z"/>
<path d="M11700 24671 c0 -197 -45 -387 -100 -421 -55 -34 -100 -149 -100 -256 0 -107 -48 -194 -107 -194 -59 0 -80 84 -47 188 38 119 4 210 -93 247 -84 32 -153 128 -153 212 0 84 -50 153 -111 153 -69 0 -80 -66 -31 -175 107 -235 81 -774 -48 -996 -88 -151 -104 -128 -107 146 -2 179 -48 325 -103 325 -55 0 -100 -103 -100 -230 0 -126 -40 -273 -88 -325 -119 -127 -205 -1138 -102 -1201 44 -28 131 135 191 361 82 304 151 396 263 353 84 -32 171 -58 194 -58 136 0 8 -311 -166 -405 -115 -61 -269 -255 -342 -430 -74 -176 -227 -404 -342 -508 -114 -103 -208 -243 -208 -310 0 -182 -280 -381 -553 -393 -202 -9 -231 26 -183 218 34 135 12 228 -53 228 -61 0 -111 45 -111 100 0 160 273 115 339 -56 106 -278 245 -55 316 508 69 554 245 764 245 292 0 -145 43 -229 100 -194 154 95 130 1377 -25 1322 -69 -24 -114 -140 -101 -258 27 -245 -221 -297 -310 -64 -68 177 -364 203 -364 31 0 -65 97 -222 216 -349 211 -224 212 -235 33 -433 -125 -138 -207 -167 -254 -91 -51 83 -89 83 -138 3 -38 -61 -212 -112 -388 -114 -288 -3 -302 -16 -142 -137 213 -162 144 -390 -182 -604 -222 -145 -234 -144 -174 19 35 96 97 198 138 225 86 60 -2 600 -99 600 -36 0 -75 -105 -86 -234 -10 -128 -155 -553 -322 -944 -166 -391 -302 -758 -302 -816 0 -58 -197 -521 -437 -1030 -240 -509 -489 -1038 -552 -1176 -108 -234 -113 -227 -72 112 43 353 418 1288 556 1388 122 88 201 395 141 550 -87 227 -236 180 -236 -75 -1 -124 -158 -530 -349 -903 -192 -373 -347 -778 -345 -900 6 -494 -161 -1635 -310 -2122 -51 -165 -183 -690 -294 -1166 -111 -476 -317 -1096 -458 -1377 -156 -311 -232 -588 -193 -709 42 -133 9 -220 -98 -261 -89 -34 -180 -43 -203 -21 -46 46 157 664 282 859 113 176 568 1532 568 1693 0 335 -180 77 -291 -417 -68 -302 -300 -910 -516 -1353 -663 -1357 -894 -2023 -540 -1554 208 275 190 199 -203 -855 -375 -1008 -405 -1135 -250 -1039 156 97 117 -190 -55 -406 -150 -187 -153 -185 -95 56 59 245 57 246 -105 50 -164 -198 -165 -197 -99 25 118 395 -23 242 -277 -300 -227 -483 -290 -690 -418 -1367 -51 -267 -580 -807 -1210 -1235 -478 -325 -734 -561 -941 -869 -82 -122 -251 -362 -375 -533 -124 -170 -224 -425 -223 -565 2 -226 36 -201 300 219 362 577 909 1136 1530 1563 565 389 1363 1210 1366 1406 4 246 767 1445 1210 1902 353 364 403 463 309 613 -85 136 -76 264 34 528 149 356 349 565 349 364 0 -61 -71 -249 -159 -417 -205 -399 -45 -609 257 -336 111 101 202 153 202 116 0 -106 -714 -1175 -1073 -1607 -180 -216 -327 -452 -327 -525 0 -73 -34 -132 -76 -132 -126 0 -335 -401 -267 -511 79 -127 443 184 443 380 0 75 66 162 146 193 80 31 256 243 391 472 283 480 863 1066 863 872 0 -72 -272 -530 -603 -1019 -332 -489 -633 -967 -668 -1063 -162 -443 -1301 -2221 -1681 -2624 -503 -535 -1886 -2857 -1813 -3046 28 -74 -123 -272 -342 -448 -222 -178 -393 -403 -393 -516 0 -180 26 -172 252 79 l253 281 -253 -587 c-138 -324 -252 -605 -252 -625 0 -21 265 -38 589 -38 545 0 594 19 652 250 35 138 134 250 222 250 119 0 143 -62 96 -250 l-63 -250 1302 0 c974 0 1302 31 1304 125 1 98 18 98 79 3 54 -85 354 -116 972 -100 789 19 899 44 931 212 27 142 -5 173 -131 125 -130 -50 -160 -14 -135 160 20 138 172 300 394 419 346 185 380 186 807 23 287 -109 548 -310 738 -566 282 -381 315 -396 868 -399 390 -1 578 38 583 123 6 100 18 100 58 0 67 -167 831 -167 842 0 6 100 18 100 58 0 35 -87 325 -125 955 -125 780 0 887 20 783 146 -139 167 -59 354 152 354 87 0 144 -99 144 -250 0 -206 48 -250 275 -248 198 1 236 26 135 89 -145 92 -86 409 76 409 51 0 121 -113 155 -250 58 -231 107 -250 655 -250 l592 0 63 425 c35 234 77 582 94 775 27 308 168 974 470 2220 50 204 149 430 222 503 192 191 363 538 363 735 0 153 367 782 911 1563 104 149 189 340 189 425 0 85 44 154 97 154 54 0 163 124 243 275 80 151 355 433 610 625 255 193 607 467 782 610 1229 1003 3339 2065 4555 2292 255 48 666 133 913 190 248 57 664 130 925 162 395 48 475 93 475 265 0 182 -44 200 -375 150 -537 -81 -1312 -151 -1075 -97 408 92 408 242 0 210 -309 -25 -397 -72 -386 -207 8 -108 -56 -175 -169 -175 -101 0 -211 -45 -245 -100 -34 -55 -129 -100 -212 -100 -82 0 -124 42 -92 93 88 143 -124 229 -308 126 -128 -71 -135 -109 -35 -171 87 -54 -13 -137 -312 -258 -502 -204 -731 -236 -641 -90 34 55 -31 100 -144 100 -118 0 -206 -65 -206 -152 0 -84 -112 -196 -250 -248 -137 -52 -250 -141 -250 -198 0 -56 -44 -102 -97 -102 -53 0 -69 73 -34 163 39 103 -21 225 -166 334 l-227 172 184 714 c172 669 173 751 22 1315 -123 462 -137 694 -60 999 116 456 32 1061 -162 1175 -205 121 -387 803 -315 1185 88 469 -194 1064 -806 1703 -531 553 -914 1140 -745 1140 152 0 130 221 -47 474 -91 129 -214 194 -304 159 -131 -50 -128 -86 28 -266 98 -115 -16 -53 -254 137 -532 425 -1590 981 -1885 989 -299 9 -532 268 -531 589 0 362 183 996 308 1074 231 142 606 -68 755 -424 83 -199 221 -431 306 -517 224 -223 781 -195 1052 54 126 115 386 242 578 282 193 40 405 116 472 171 215 173 261 740 89 1087 -173 346 -141 405 389 709 178 102 185 97 66 -47 -184 -224 -63 -371 307 -371 584 0 1608 -219 1463 -312 -191 -123 79 -299 406 -264 269 29 418 276 166 276 -217 0 -201 186 17 192 1015 26 3170 -8 3238 -50 138 -85 487 57 487 198 0 92 -278 132 -1022 149 -563 12 -1041 40 -1063 62 -21 22 167 353 419 735 453 687 569 771 1316 948 110 27 -111 41 -492 32 -676 -16 -694 -23 -788 -316 -96 -303 -469 -785 -546 -707 -23 22 52 169 166 324 192 263 204 733 17 733 -84 0 -507 -560 -507 -671 0 -43 -226 -314 -502 -602 -418 -436 -563 -525 -874 -535 -576 -21 -1824 127 -1883 223 -29 47 10 85 88 85 77 0 221 89 319 198 99 109 331 227 517 261 558 105 538 282 -24 207 -328 -43 -537 -132 -628 -266 -168 -244 -565 -280 -474 -42 34 87 61 269 61 404 0 207 29 230 184 147 209 -112 642 -32 559 102 -30 49 -160 89 -290 89 -185 0 -223 42 -182 200 49 188 3 200 -759 200 -745 0 -812 -16 -812 -200 0 -257 -162 -257 -300 0 -101 189 -208 199 -2063 195 l-1957 -4 -921 -898 c-1060 -1033 -1360 -1270 -1358 -1074 4 328 133 589 266 538 79 -30 165 22 196 120 31 95 77 239 102 320 40 130 57 130 138 0 73 -116 119 -78 218 180 73 191 177 307 250 279 146 -56 368 301 278 446 -97 157 -422 113 -490 -66 -58 -149 -81 -147 -261 16 -194 175 -198 171 -198 -181z m2987 -87 c-116 -212 -132 -216 -167 -46 -22 103 20 225 92 270 194 120 221 40 75 -224z m801 -121 c-66 -145 -156 -263 -199 -263 -44 0 -4 132 89 294 204 355 276 334 110 -31z m1083 -34 c-91 -92 -201 -132 -243 -90 -43 43 9 141 115 218 250 183 345 88 128 -128z m-2961 -501 c-91 -156 -104 -146 -107 80 -2 142 31 293 72 334 120 121 149 -218 35 -414z m2290 383 c0 -49 -74 -118 -164 -153 -137 -52 -144 -38 -38 90 144 173 202 191 202 63z m6519 -879 c-72 -29 -159 -26 -192 8 -33 33 26 56 131 52 117 -5 141 -28 61 -60z m-9886 -1057 c-234 -244 -561 -765 -765 -1223 -196 -439 -404 -814 -462 -833 -153 -51 -130 442 27 600 73 73 308 462 523 865 347 653 686 999 990 1012 53 2 -88 -187 -313 -421z m5626 -549 c-109 -110 -184 64 -106 245 74 171 80 171 121 -4 24 -100 17 -209 -15 -241z m-4313 -201 c38 -261 93 -576 122 -700 43 -181 11 -225 -163 -225 -119 0 -189 45 -155 100 118 191 -60 321 -235 172 -376 -322 -435 -268 -73 65 216 199 370 385 342 413 -123 122 -719 -203 -893 -488 -105 -172 -190 -247 -191 -167 0 174 491 705 653 705 64 0 190 82 280 181 127 140 137 209 46 300 -92 92 -83 119 40 119 113 0 178 -137 227 -475z m-4934 -292 c-118 -203 -146 -138 -50 113 35 90 84 142 110 116 25 -26 -1 -129 -60 -229z m-112 -678 c0 -25 -52 -160 -116 -301 -159 -348 -33 -436 204 -144 l194 239 -57 -298 c-67 -351 -335 -670 -400 -475 -23 68 -105 124 -183 124 -78 0 -142 22 -142 48 0 154 336 852 411 852 49 0 89 -20 89 -45z m703 -349 c-105 -197 -303 -367 -303 -261 0 110 249 455 328 455 43 0 32 -87 -25 -194z m2597 -394 c0 -48 -71 -146 -158 -218 -130 -109 -172 -107 -244 10 -55 88 -43 169 32 217 163 103 370 99 370 -9z m919 -180 c-72 -29 -159 -26 -192 8 -33 33 26 56 131 52 117 -5 141 -28 61 -60z m-5254 -501 c-139 -138 -253 92 -138 278 122 197 123 196 156 -14 18 -117 10 -235 -18 -264z m4935 355 c0 -77 145 -93 450 -52 359 50 450 32 450 -86 0 -95 99 -148 275 -149 l275 0 -250 -129 c-137 -71 -497 -185 -800 -252 -302 -68 -730 -185 -950 -261 -265 -92 -440 -106 -519 -41 -78 64 -190 59 -330 -15 -116 -63 -288 -95 -381 -73 -115 27 -23 108 280 246 444 202 447 206 200 309 -177 74 -199 106 -75 111 202 7 235 165 50 240 -78 31 -62 53 42 58 91 4 184 -46 206 -112 28 -84 171 -54 484 100 504 250 593 266 593 106z m-1817 -176 c-65 -104 -301 -250 -524 -324 -223 -73 -603 -284 -843 -467 -241 -184 -418 -275 -394 -203 63 189 1257 984 1479 984 103 0 215 45 249 100 34 55 82 100 107 100 24 0 -9 -85 -74 -190z m5817 -123 c0 -118 -433 62 -479 199 -30 90 22 90 220 0 142 -65 259 -154 259 -199z m-8300 113 c83 -53 120 -98 83 -98 -37 -1 -138 -29 -225 -63 -104 -40 -158 -5 -158 100 0 183 84 200 300 61z m8200 -550 c69 -84 80 -150 24 -150 -55 0 -156 68 -224 150 -69 84 -80 150 -24 150 55 0 156 -67 224 -150z m-5900 7 c0 -23 -273 -209 -608 -412 -334 -203 -705 -466 -825 -585 -586 -584 -859 -934 -921 -1185 -98 -397 132 -353 303 58 138 330 451 676 451 499 0 -51 -135 -306 -300 -566 -301 -474 -398 -838 -189 -709 74 46 88 -1 43 -144 -104 -327 119 -256 301 96 88 170 183 287 210 259 28 -28 -7 -156 -78 -284 -71 -129 -121 -265 -110 -303 41 -148 -765 -879 -909 -824 -347 133 -382 1628 -54 2272 265 520 678 1071 803 1071 51 0 -28 -159 -176 -353 -439 -575 -213 -497 456 158 677 663 1153 994 1428 995 96 0 175 -19 175 -43z m4138 -145 c131 -51 244 -295 375 -810 102 -405 175 -744 162 -754 -23 -17 -372 -96 -1575 -356 -247 -53 -518 -100 -600 -104 -263 -13 -1537 -408 -1900 -589 -815 -406 -1566 -844 -1783 -1040 -491 -442 -620 -606 -573 -729 27 -70 -69 -252 -214 -404 -266 -279 -226 -123 51 199 85 100 103 175 42 175 -131 0 -491 -443 -576 -708 -45 -142 -121 -177 -290 -135 -157 40 -249 7 -292 -103 -61 -159 183 -339 301 -222 77 78 734 -888 734 -1080 0 -240 -368 -178 -634 109 -157 169 -265 221 -310 148 -83 -134 467 -709 679 -709 336 0 490 309 419 843 -36 279 -102 520 -146 536 -44 15 -165 93 -269 171 -173 132 -174 144 -14 147 96 2 175 42 175 89 0 48 134 256 299 462 164 207 272 418 240 470 -67 108 240 482 395 482 57 0 2 -95 -122 -210 -245 -228 -213 -399 36 -192 257 213 169 -2 -148 -363 -298 -340 -391 -635 -200 -635 55 0 100 56 100 125 1 69 112 260 247 425 233 285 246 289 249 75 2 -124 38 -225 79 -225 41 -1 399 163 794 364 435 220 921 384 1227 413 521 50 668 139 548 333 -137 222 -101 1121 47 1170 97 33 121 -4 78 -116 -37 -97 -13 -163 59 -162 144 1 465 194 328 196 -51 1 7 96 130 210 388 362 1314 532 1314 242 0 -82 -68 -150 -150 -150 -82 0 -150 -45 -150 -100 0 -55 124 -101 275 -101 151 -1 377 -29 501 -62 209 -56 222 -34 180 297 -45 348 -39 355 211 259 180 -68 300 -62 398 19 77 64 171 85 210 47 38 -39 9 -107 -66 -153 -94 -58 -148 -404 -180 -1152 -40 -920 -22 -1096 129 -1263 136 -150 256 -180 534 -134 l358 60 -431 -222 c-440 -226 -505 -220 -1019 96 -82 51 -394 191 -693 311 -470 189 -685 213 -1600 178 -892 -34 -1144 -82 -1617 -310 -307 -149 -615 -270 -682 -270 -68 0 -301 -169 -518 -375 -217 -206 -483 -454 -592 -550 -200 -177 -255 -603 -135 -1050 59 -221 337 -322 337 -123 0 57 113 146 250 198 289 110 346 344 62 254 -121 -38 -210 -3 -249 98 -34 89 -19 132 35 99 53 -32 228 9 388 92 l292 151 70 -464 c38 -255 137 -566 219 -692 137 -210 131 -264 -73 -627 -368 -655 -1662 -1420 -2675 -1581 -250 -40 -387 -1 -560 162 l-229 215 387 422 c213 231 438 589 501 795 90 297 141 351 248 263 162 -135 177 -387 23 -387 -61 0 -85 -66 -54 -147 31 -81 13 -173 -39 -206 -174 -107 -100 -247 129 -244 271 4 1035 523 1001 679 -13 61 18 220 69 354 120 317 36 389 -240 208 -338 -222 -815 -78 -1253 378 -306 318 -387 487 -425 882 -26 268 -19 658 16 867 52 318 98 374 281 348 168 -23 252 50 364 317 80 191 329 526 553 744 225 218 409 425 409 459 0 35 138 254 308 487 309 426 318 494 176 1322 -27 157 24 200 241 205 172 4 275 -46 275 -134 0 -102 76 -123 275 -78 260 59 264 54 83 -88 -165 -129 -175 -186 -72 -413 101 -222 94 -283 -48 -386 -368 -270 82 -253 735 27 372 160 760 320 862 356 102 36 163 124 135 196 -55 145 327 377 1008 612 314 109 498 121 693 47 216 -82 301 -65 461 95 119 120 171 262 131 364 -83 218 -692 165 -1835 -158 -452 -128 -842 -212 -866 -188 -23 25 -59 128 -77 230 -27 141 84 232 465 384 275 110 587 217 693 238 106 21 218 73 250 116 31 42 347 89 701 105 355 15 666 48 692 75 63 63 224 49 452 -41z m2710 -174 c253 -254 94 -285 -269 -52 -286 183 -300 211 -111 212 120 1 291 -71 380 -160z m-7500 -502 c-219 -146 -502 -358 -629 -473 -201 -182 -221 -185 -161 -27 39 99 277 311 531 471 577 362 799 387 259 29z m7102 72 c0 -78 -56 -160 -125 -183 -69 -23 -125 30 -125 117 0 87 -56 157 -125 156 -153 -1 -465 -193 -325 -200 55 -2 17 -52 -85 -111 -132 -77 -216 -76 -295 3 -80 80 -75 110 21 110 77 0 106 64 71 155 -50 130 25 151 464 125 371 -21 524 -71 524 -172z m-10090 -181 c-33 -33 -56 26 -52 131 5 117 28 141 60 61 29 -72 26 -159 -8 -192z m3840 173 c-196 -127 -328 -127 -250 0 34 55 138 99 231 98 146 -1 148 -14 19 -98z m-608 -228 c-23 -16 -132 -95 -242 -175 -185 -136 -190 -134 -63 28 76 96 184 175 242 175 57 0 86 -13 63 -28z m7580 -182 c818 -455 1008 -822 220 -427 -279 140 -482 280 -451 311 31 31 -22 115 -118 188 -266 202 -73 162 349 -72z m-10906 -215 c-28 -69 -50 -12 -50 125 0 138 22 194 50 125 28 -69 28 -181 0 -250z m3834 279 c0 -26 -101 -96 -225 -156 -216 -105 -217 -103 -31 46 204 164 256 186 256 110z m1650 -354 c-34 -55 -129 -100 -212 -100 -82 0 -122 45 -88 100 34 55 129 100 212 100 82 0 122 -45 88 -100z m4308 -184 c-214 -42 -301 34 -209 182 49 80 113 75 225 -18 142 -117 140 -133 -16 -164z m-10253 -1107 c-58 -108 -105 -335 -105 -505 0 -327 -433 -1716 -794 -2545 -166 -384 -239 -466 -334 -371 -84 84 -88 142 -13 191 97 64 290 578 790 2099 95 291 192 784 214 1096 22 312 96 749 163 971 l123 405 31 -572 c16 -315 -17 -661 -75 -769z m349 -155 c-39 -414 -117 -754 -173 -754 -63 0 -79 147 -43 375 33 206 89 568 124 803 105 693 168 396 92 -424z m2446 815 c0 -16 -112 -183 -250 -369 -137 -186 -250 -305 -250 -264 0 154 309 664 403 664 53 0 97 -14 97 -31z m8342 -30 c87 -33 158 -123 158 -200 0 -76 84 -139 188 -139 103 0 244 -68 312 -150 204 -246 -173 -189 -497 75 -152 124 -361 279 -465 344 -163 103 -166 120 -21 125 92 3 238 -21 325 -55z m-630 -505 c269 -147 470 -285 447 -308 -23 -23 -137 9 -254 71 -117 63 -304 85 -416 49 -206 -65 -523 217 -424 378 70 113 114 100 647 -190z m1959 -59 c-28 -344 -200 -363 -229 -25 -20 235 34 350 163 350 51 0 81 -146 66 -325z m-2121 -575 c147 -63 58 -88 -331 -93 -330 -4 -507 31 -469 93 74 120 521 120 800 0z m1807 -175 c251 -159 478 -398 539 -569 59 -161 179 -373 267 -470 114 -126 139 -259 87 -457 -43 -159 -96 -222 -123 -146 -118 321 -1424 664 -1578 415 -35 -56 -110 -72 -169 -36 -67 42 -46 99 57 157 90 50 163 156 163 236 0 168 39 176 276 60 843 -414 935 -444 1035 -344 74 74 43 150 -107 255 -117 82 -199 207 -183 277 34 149 -476 476 -580 372 -38 -39 -13 -139 57 -223 106 -128 94 -152 -76 -152 -158 0 -191 47 -148 213 36 136 -2 245 -105 302 -166 93 -125 385 54 385 55 0 296 -124 534 -275z m-1657 -325 c-196 -126 -400 -126 -400 0 0 55 124 99 275 98 214 -1 242 -22 125 -98z m700 9 c0 -49 -90 -67 -200 -38 -110 29 -200 70 -200 91 0 21 90 38 200 38 110 0 200 -41 200 -91z m-11055 -334 c-39 -179 -138 -415 -220 -525 -154 -206 -147 -161 81 475 165 461 234 486 139 50z m3655 161 c0 -84 -324 -329 -440 -333 -50 -2 -10 87 90 197 177 196 350 263 350 136z m7100 -616 c0 -44 -169 -64 -375 -44 -643 61 -695 100 -150 112 289 7 525 -24 525 -68z m-11400 -1187 c-326 -612 -320 -541 33 367 118 303 229 475 246 383 18 -92 -108 -429 -279 -750z m6644 677 c30 -49 -12 -115 -95 -146 -193 -75 -193 -264 1 -264 83 0 150 -45 150 -100 0 -149 -322 -115 -550 58 -198 150 -197 154 50 345 281 217 364 237 444 107z m1056 3 c0 -86 -811 -235 -884 -162 -40 40 544 225 759 240 69 5 125 -30 125 -78z m5300 -113 c110 -110 256 -189 325 -175 72 14 112 -53 94 -157 -17 -101 27 -258 99 -350 71 -93 -66 23 -306 257 -239 234 -495 425 -568 425 -73 0 -160 45 -194 100 -115 186 348 102 550 -100z m-8400 -344 c0 -79 -45 -172 -100 -206 -55 -34 -100 31 -100 144 0 113 45 206 100 206 55 0 100 -65 100 -144z m2819 76 c-72 -29 -159 -26 -192 8 -33 33 26 56 131 52 117 -5 141 -28 61 -60z m481 -32 c0 -55 -42 -100 -94 -100 -52 0 -122 45 -156 100 -34 55 8 100 94 100 86 0 156 -45 156 -100z m850 0 c-273 -117 -350 -117 -350 0 0 55 124 97 275 93 244 -6 252 -17 75 -93z m650 -125 c0 -117 -146 -88 -187 38 -21 61 13 95 75 75 61 -21 112 -72 112 -113z m-3561 -121 c168 -220 656 -268 952 -93 231 136 291 136 547 3 217 -112 354 -124 550 -47 457 177 1047 158 1193 -39 73 -101 259 -178 425 -178 297 0 399 141 169 234 -69 28 -21 54 106 58 144 5 205 -34 163 -102 -44 -71 14 -66 162 13 288 154 1259 234 1336 110 31 -50 -63 -122 -208 -158 -164 -41 -293 -21 -339 53 -51 83 -107 56 -184 -88 -61 -114 -111 -224 -111 -244 0 -52 510 -12 877 69 531 117 546 -297 20 -530 -165 -73 -369 -143 -453 -156 -84 -12 -229 -87 -323 -167 -94 -80 -247 -131 -341 -113 -93 19 -261 -15 -373 -75 -175 -94 -197 -182 -157 -631 25 -288 68 -853 97 -1256 28 -403 78 -777 112 -832 34 -54 -24 -121 -128 -148 -252 -66 -244 -507 13 -695 107 -78 152 -143 100 -145 -52 -2 -12 -51 88 -109 176 -102 176 -110 0 -244 -240 -182 -468 -182 -399 -1 86 224 -198 403 -456 288 -160 -71 -292 -55 -490 58 -250 143 -288 141 -467 -21 -107 -97 -358 -203 -558 -235 -510 -83 -482 -333 37 -333 350 0 396 -26 375 -218 -19 -176 44 -233 323 -292 191 -41 364 -122 384 -182 19 -59 80 -108 134 -108 55 0 164 -64 242 -143 125 -124 119 -151 -44 -203 -117 -37 -188 -153 -188 -305 0 -152 43 -222 113 -183 72 41 70 17 -7 -65 -162 -176 -574 -163 -1231 36 -302 92 -595 179 -650 193 -55 14 -145 53 -200 86 -55 34 -290 92 -523 131 -392 65 -433 50 -544 -194 -112 -245 -92 -290 266 -609 480 -426 246 -458 -318 -43 -340 250 -419 274 -469 145 -42 -110 88 -248 443 -468 323 -201 459 -338 382 -386 -204 -126 -630 123 -1450 848 -243 214 -472 358 -510 321 -38 -38 53 -174 202 -302 149 -128 271 -284 271 -347 0 -62 225 -252 500 -422 275 -169 500 -331 500 -361 0 -133 -650 94 -847 296 -120 124 -305 296 -411 384 -249 206 -641 672 -645 767 -2 41 -91 179 -198 307 -217 261 -440 202 -346 -91 83 -264 -36 -237 -496 111 -216 163 -452 297 -523 297 -135 0 -406 548 -500 1009 -44 218 46 353 565 848 507 483 670 584 909 559 315 -33 423 212 142 320 -229 88 -179 233 74 214 166 -12 250 -110 325 -375 56 -197 135 -392 176 -433 41 -42 75 -155 75 -253 0 -242 187 -340 264 -139 57 148 -8 352 -281 883 -61 118 -57 227 10 309 58 70 72 160 31 200 -40 41 14 138 120 216 107 78 138 142 69 142 -69 0 -94 50 -56 111 47 77 93 70 151 -24 47 -76 41 -178 -12 -231 -169 -169 -103 -262 96 -138 185 116 204 191 204 809 0 202 67 302 247 370 220 84 236 127 156 408 -50 173 -142 377 -206 453 -172 208 185 1139 481 1251 124 47 226 155 226 239 0 192 96 194 239 6z m-1339 -254 c0 -55 -70 -100 -156 -100 -86 0 -128 45 -94 100 34 55 104 100 156 100 52 0 94 -45 94 -100z m-5400 -1000 c-59 -110 -130 -200 -157 -200 -28 0 -2 90 57 200 59 110 130 200 157 200 28 0 2 -90 -57 -200z m14566 -327 c-28 -68 -49 12 -47 177 3 165 25 220 50 123 26 -97 24 -232 -3 -300z m-1332 252 c26 -41 -83 -80 -241 -85 -158 -6 -263 27 -234 75 65 105 412 113 475 10z m-13619 -303 c-63 -21 -115 -122 -115 -224 0 -103 -45 -214 -100 -248 -138 -85 -126 -4 61 428 106 244 180 322 215 227 30 -80 2 -162 -61 -183z m14428 -750 c247 -373 134 -460 -125 -97 -255 358 -363 771 -262 1000 58 132 92 76 140 -225 35 -220 146 -525 247 -678z m-2643 678 c-68 -82 -218 -150 -332 -150 -244 0 -120 156 182 229 110 26 217 53 237 59 21 7 -19 -55 -87 -138z m502 -2 c70 -84 109 -164 87 -179 -21 -14 -116 -85 -211 -157 -154 -118 -169 -100 -150 178 25 346 88 382 274 158z m711 -755 c-17 -248 -93 -478 -172 -523 -78 -44 -141 -163 -141 -264 0 -102 -72 -212 -160 -246 -89 -34 -136 -125 -107 -203 66 -171 -362 -657 -578 -657 -130 0 -148 136 -114 872 21 479 77 880 124 891 47 12 253 49 459 83 290 49 388 119 437 313 104 412 287 219 252 -266z m630 318 c30 -48 -35 -112 -144 -140 -196 -51 -263 31 -132 162 92 93 211 84 276 -22z m-12143 -711 c0 -55 -45 -100 -100 -100 -55 0 -100 45 -100 100 0 55 45 100 100 100 55 0 100 -45 100 -100z m12619 -168 c-72 -29 -159 -26 -192 8 -33 33 26 56 131 52 117 -5 141 -28 61 -60z m981 -128 c0 -153 -377 -323 -450 -203 -49 78 168 228 425 293 14 3 25 -37 25 -90z m-13600 -260 c0 -24 -45 -44 -100 -44 -55 0 -100 48 -100 106 0 58 45 78 100 44 55 -34 100 -82 100 -106z m12053 -624 c-77 -77 -454 98 -400 185 32 52 139 39 247 -28 105 -66 174 -136 153 -157z m-11553 -464 c0 -511 -82 -596 -442 -459 -374 142 -364 623 17 773 419 166 425 161 425 -314z m10000 -156 c-231 -181 -500 -263 -500 -153 0 64 526 345 650 347 55 1 -12 -86 -150 -194z m-500 61 c0 -22 -70 -66 -155 -99 -89 -34 -129 -18 -94 39 58 95 249 141 249 60z m900 -158 c0 -104 -517 -403 -695 -403 -205 0 -96 152 222 311 401 201 473 215 473 92z m-11858 -811 c-346 -1361 -391 -1492 -515 -1492 -185 0 -162 146 184 1148 171 496 334 970 362 1052 28 85 68 103 91 42 23 -60 -32 -397 -122 -750z m9225 -38 c0 -80 -38 -122 -84 -94 -45 29 -83 94 -83 146 0 52 38 94 83 94 46 0 84 -66 84 -146z m2233 61 c0 -115 -786 -463 -865 -383 -35 35 22 89 126 121 104 32 302 119 439 193 318 173 300 168 300 69z m-10231 -153 c-85 -220 129 -370 355 -249 162 86 188 73 159 -79 -43 -222 -340 -294 -538 -130 -170 141 -196 596 -34 596 61 0 87 -62 58 -138z m531 41 c0 -53 -67 -71 -150 -39 -82 31 -150 75 -150 97 0 21 68 39 150 39 83 0 150 -44 150 -97z m7730 -313 c-79 -79 -163 -80 -295 -3 -162 94 -149 107 110 110 215 2 265 -27 185 -107z m520 -90 c-34 -55 -82 -100 -106 -100 -24 0 -44 45 -44 100 0 55 48 100 106 100 58 0 78 -45 44 -100z m600 -200 c-34 -55 -115 -99 -181 -98 -71 0 -59 40 31 98 192 124 227 124 150 0z m-8584 -977 c35 -140 19 -326 -36 -413 -114 -183 -630 -278 -630 -117 0 59 56 108 125 110 176 5 499 471 377 546 -128 79 -466 -105 -596 -325 -86 -145 -118 -151 -195 -33 -203 309 182 621 656 530 149 -28 259 -138 299 -298z m1612 -159 c206 -130 436 -311 512 -402 104 -126 169 -138 273 -51 160 133 437 -42 437 -277 0 -77 158 -234 350 -347 193 -114 350 -223 350 -243 0 -20 -94 -87 -208 -148 -162 -87 -246 -79 -375 34 -245 215 -585 294 -790 185 -122 -66 -280 -55 -493 35 -262 110 -331 212 -417 616 -58 266 -134 563 -171 659 -93 242 85 221 532 -61z m3519 40 c93 -59 194 -53 277 16 72 60 162 77 201 39 38 -39 3 -113 -78 -166 -125 -83 -119 -118 47 -245 107 -81 248 -148 314 -148 116 0 284 -291 211 -365 -80 -79 -640 276 -964 610 -326 336 -330 462 -8 259z m-8194 -398 c-108 -202 -303 -283 -303 -126 0 43 79 177 175 296 202 250 290 133 128 -170z m9347 94 c34 -55 -31 -100 -144 -100 -113 0 -206 45 -206 100 0 55 65 100 144 100 79 0 172 -45 206 -100z m-7550 -600 c85 -158 76 -200 -41 -200 -81 0 -177 49 -214 109 -37 60 -152 86 -256 59 -104 -27 -189 -16 -189 25 0 273 555 279 700 7z m8150 100 c34 -55 17 -100 -38 -100 -55 0 -128 45 -162 100 -34 55 -17 100 38 100 55 0 128 -45 162 -100z m-9968 -408 c-75 -215 -138 -276 -212 -202 -74 74 -50 166 78 308 244 269 261 257 134 -106z m530 41 c-87 -150 -106 -155 -109 -25 -3 169 102 320 173 250 23 -24 -5 -125 -64 -225z m-1280 -97 c-95 -145 -190 -211 -212 -146 -63 188 61 410 229 410 136 0 134 -33 -17 -264z m4001 164 c-156 -63 -202 -146 -164 -294 63 -240 -90 -272 -269 -56 -173 208 40 452 387 444 250 -6 253 -11 46 -94z m6411 -53 c107 -81 149 -147 94 -147 -55 0 -187 66 -294 147 -107 81 -149 147 -94 147 55 0 187 -66 294 -147z m-5564 -236 c30 -92 -44 -83 -269 33 -171 89 -311 179 -311 200 0 98 542 -120 580 -233z m5020 112 c0 -80 703 -464 1042 -570 143 -44 163 -88 78 -173 -152 -152 -920 95 -920 295 0 79 -101 227 -225 331 -124 103 -169 189 -100 191 69 2 125 -32 125 -74z m-7480 -223 c154 0 280 53 280 117 0 64 26 90 58 58 32 -32 8 -152 -53 -266 -136 -254 -653 -289 -744 -51 -104 270 -75 396 59 262 66 -66 246 -120 400 -120z m7293 -224 c75 -27 103 -85 61 -130 -42 -45 -238 -5 -435 89 -290 138 -336 198 -242 311 99 119 144 113 297 -40 100 -100 243 -203 319 -230z m-8553 -36 c-36 -93 -87 -146 -115 -119 -27 28 -21 126 15 219 36 93 87 146 115 119 27 -28 21 -126 -15 -219z m5330 22 c94 -113 38 -135 -313 -128 -235 5 -512 -30 -616 -78 -141 -66 -177 -53 -142 50 87 263 886 379 1071 156z m2461 -321 c202 -153 447 -230 750 -236 780 -15 1099 -53 1099 -130 0 -104 -437 -94 -730 17 -173 66 -326 50 -528 -54 -264 -137 -295 -133 -446 67 -106 141 -296 225 -554 246 -1603 132 -1758 172 -1332 338 394 154 1399 10 1741 -248z m-8567 42 c111 -145 101 -160 -78 -113 -113 29 -206 86 -206 125 0 73 124 226 145 180 6 -14 69 -100 139 -192z m4270 110 c101 -164 -18 -224 -303 -152 -143 36 -232 109 -199 162 80 130 420 124 502 -10z m-5156 -118 c-2 -184 -177 -430 -252 -355 -87 88 44 480 161 480 51 0 92 -56 91 -125z m5325 -488 c1132 -175 1398 -328 2118 -1215 467 -576 422 -741 -54 -196 -692 793 -1328 1111 -2652 1326 -369 60 -624 53 -790 -22 -447 -204 -255 -285 630 -263 812 20 909 0 1350 -272 512 -316 591 -445 275 -445 -228 0 -240 -38 -96 -307 132 -247 18 -249 -195 -4 -190 219 -774 480 -1380 616 -310 69 -538 57 -851 -44 -235 -77 -556 -168 -713 -204 -407 -94 -300 141 179 393 407 214 449 412 81 381 -124 -10 -225 17 -225 60 0 293 1101 386 2323 196z m-4521 -239 c164 -198 49 -315 -148 -151 -83 69 -220 99 -303 67 -83 -32 -151 -22 -151 22 0 248 412 290 602 62z m8493 -92 c206 -248 89 -602 -211 -637 -339 -39 -739 345 -570 548 157 189 286 164 286 -55 0 -104 87 -212 194 -239 277 -73 319 14 139 288 -168 257 -36 334 162 95z m1212 -263 c168 -168 183 -234 83 -355 -67 -81 -239 -135 -381 -118 -211 24 -265 90 -290 355 -27 272 2 325 175 325 113 0 299 -93 413 -207z m-11009 -18 c-2 -167 -174 -432 -239 -368 -77 78 51 493 153 493 48 0 87 -56 86 -125z m1060 -275 c23 0 42 -67 42 -150 0 -82 45 -150 100 -150 136 0 127 -371 -11 -457 -61 -38 -144 -16 -184 48 -39 65 -203 153 -364 195 -347 93 -463 414 -148 414 114 0 207 50 207 111 0 61 71 83 158 50 87 -34 177 -61 200 -61z m4418 -472 c372 -136 422 -191 404 -434 -26 -333 -384 -447 -778 -248 -521 263 -932 266 -1581 12 -521 -204 -605 -216 -530 -75 141 261 526 577 909 748 648 288 782 288 1576 -3z m4539 -253 c-103 -103 -315 -22 -315 122 0 46 93 60 207 30 134 -35 172 -88 108 -152z m-8015 -22 c0 -125 -432 -855 -478 -808 -73 72 287 855 393 855 47 0 85 -21 85 -47z m712 -220 c-118 -203 -146 -138 -50 113 35 90 84 142 110 116 25 -26 -1 -129 -60 -229z m6779 5 c188 -239 201 -440 28 -437 -38 1 -171 158 -295 350 -277 428 -57 500 267 87z m1609 -138 c0 -159 -48 -318 -107 -354 -181 -112 -233 43 -98 295 71 132 94 296 51 365 -50 81 -36 100 39 54 63 -40 115 -201 115 -360z m-10450 1 c0 -161 -276 -251 -504 -163 -82 31 -117 122 -82 214 79 203 586 160 586 -51z m9708 -276 c-109 -109 -150 33 -81 279 l69 246 35 -234 c19 -128 9 -259 -23 -291z m-1802 130 c113 -172 132 -295 64 -416 -104 -185 -84 -217 -277 461 -77 272 19 251 213 -45z m-975 -308 c-31 -30 -87 25 -125 124 -54 142 -42 154 56 56 69 -68 99 -149 69 -180z m-7231 -403 c0 -135 -79 -196 -275 -211 -312 -24 -349 79 -113 314 199 200 388 150 388 -103z m5750 -200 c0 -24 -45 -44 -100 -44 -55 0 -100 48 -100 106 0 58 45 78 100 44 55 -34 100 -82 100 -106z"/>
<path d="M9836 11740 c-141 -99 -197 -218 -163 -349 64 -242 277 -196 277 59 1 101 57 202 125 225 134 45 175 229 50 220 -41 -3 -171 -73 -289 -155z"/>
<path d="M16175 12792 c-96 -56 -175 -187 -175 -291 0 -104 -46 -217 -102 -252 -56 -35 -75 -105 -44 -156 108 -174 242 -94 308 182 35 151 133 354 217 450 168 193 68 226 -204 67z"/>
<path d="M12024 12737 c-214 -92 -28 -237 307 -239 441 -2 1231 -248 1086 -338 -64 -39 -159 -46 -210 -14 -51 31 -121 12 -156 -44 -55 -89 232 -155 482 -111 45 8 53 -78 17 -191 -36 -113 -28 -199 17 -191 339 59 20 -288 -409 -445 -128 -47 -158 -104 -91 -171 67 -67 191 -66 373 3 150 57 405 104 567 104 194 0 293 51 293 150 0 83 68 150 150 150 82 0 150 41 150 90 0 50 161 251 358 448 206 206 343 433 323 535 -52 274 -227 209 -263 -98 -43 -380 -444 -480 -754 -188 -362 340 -1869 711 -2240 550z m2276 -1139 c0 -180 -258 -347 -338 -218 -24 39 -20 196 9 348 43 221 81 254 191 162 76 -63 138 -194 138 -292z"/>
<path d="M12125 12126 c-220 -75 -134 -327 147 -434 297 -113 836 48 668 199 -142 128 -677 283 -815 235z"/>
<path d="M13200 11550 c0 -82 45 -150 100 -150 55 0 100 68 100 150 0 83 -45 150 -100 150 -55 0 -100 -67 -100 -150z"/>
<path d="M10256 9247 c-107 -81 -152 -146 -100 -144 52 2 181 69 288 150 107 81 152 146 100 144 -52 -2 -181 -69 -288 -150z"/>
<path d="M14325 8978 c-124 -60 -225 -168 -225 -241 0 -139 466 -305 568 -203 32 33 152 -7 267 -88 262 -183 440 -185 617 -8 165 165 92 262 -196 262 -117 0 -289 90 -383 200 -190 222 -317 238 -648 78z"/>
<path d="M10500 7763 c0 -246 368 -938 669 -1257 388 -413 567 -491 686 -299 77 125 -330 593 -516 593 -69 0 -154 90 -189 200 -35 110 -100 200 -145 200 -44 0 -137 135 -205 300 -68 165 -164 300 -212 300 -48 0 -88 -17 -88 -37z"/>
<path d="M11000 6234 c0 -180 375 -591 461 -506 43 43 -43 199 -191 348 -149 148 -270 219 -270 158z"/>
<path d="M10700 5933 c0 -128 384 -483 450 -416 27 27 -63 154 -200 283 -138 129 -250 189 -250 133z"/>
<path d="M16527 9140 c33 -34 120 -37 192 -8 80 32 56 55 -61 60 -105 4 -164 -19 -131 -52z"/>
<path d="M6100 8647 c0 -203 282 -305 431 -156 90 90 82 139 -32 212 -223 141 -399 116 -399 -56z"/>
<path d="M12939 2582 c-34 -55 -15 -146 43 -204 115 -115 418 -38 418 107 0 133 -389 214 -461 97z"/>
<path d="M12827 24940 c33 -34 120 -37 192 -8 80 32 56 55 -61 60 -105 4 -164 -19 -131 -52z"/>
<path d="M19800 24900 c0 -55 42 -100 94 -100 52 0 122 45 156 100 34 55 -8 100 -94 100 -86 0 -156 -45 -156 -100z"/>
<path d="M11300 24674 c0 -82 68 -206 150 -274 122 -101 150 -96 150 26 0 82 -67 206 -150 274 -122 101 -150 96 -150 -26z"/>
<path d="M20819 24709 c-268 -68 -339 -243 -117 -286 182 -35 567 225 438 296 -49 27 -194 23 -321 -10z"/>
<path d="M22150 24700 c-34 -55 6 -100 88 -100 83 0 178 45 212 100 34 55 -6 100 -88 100 -83 0 -178 -45 -212 -100z"/>
<path d="M10200 24511 c0 -49 68 -116 150 -147 91 -35 150 0 150 89 0 81 -67 147 -150 147 -82 0 -150 -40 -150 -89z"/>
<path d="M21275 24431 c-96 -25 -175 -107 -175 -181 0 -106 72 -115 324 -43 179 51 336 93 350 93 14 0 26 45 26 100 0 102 -208 114 -525 31z"/>
<path d="M24100 24407 c0 -135 367 -231 600 -157 337 107 223 250 -200 250 -220 0 -400 -42 -400 -93z"/>
<path d="M21400 23950 c0 -82 68 -150 150 -150 83 0 150 68 150 150 0 83 -67 150 -150 150 -82 0 -150 -67 -150 -150z"/>
<path d="M20475 23762 c-459 -119 -505 -313 -53 -223 305 61 565 221 471 289 -23 18 -212 -12 -418 -66z"/>
<path d="M24720 23780 c-176 -176 -147 -280 80 -280 133 0 200 67 200 200 0 227 -104 256 -280 80z"/>
<path d="M10105 23591 c61 -114 131 -188 155 -164 70 70 -71 373 -174 373 -51 0 -43 -94 19 -209z"/>
<path d="M9588 23480 c45 -121 138 -239 206 -261 81 -27 64 51 -46 219 -209 320 -269 335 -160 42z"/>
<path d="M23725 23597 c-124 -50 -225 -115 -225 -144 0 -110 369 -47 556 94 226 171 41 199 -331 50z"/>
<path d="M9000 23500 c0 -55 45 -100 100 -100 55 0 100 45 100 100 0 55 -45 100 -100 100 -55 0 -100 -45 -100 -100z"/>
<path d="M8300 23424 c0 -107 215 -324 320 -324 155 0 77 194 -120 300 -110 59 -200 69 -200 24z"/>
<path d="M7500 23200 c0 -55 45 -100 100 -100 55 0 100 45 100 100 0 55 -45 100 -100 100 -55 0 -100 -45 -100 -100z"/>
<path d="M7900 23006 c0 -58 45 -106 100 -106 55 0 100 20 100 44 0 24 -45 72 -100 106 -55 34 -100 14 -100 -44z"/>
<path d="M7100 22797 c0 -129 285 -245 376 -154 38 37 2 110 -79 161 -193 122 -297 120 -297 -7z"/>
<path d="M19000 22561 c0 -176 270 -284 514 -207 228 73 240 204 28 285 -274 105 -542 66 -542 -78z"/>
<path d="M22900 22450 c0 -130 92 -155 475 -130 261 16 475 75 475 130 0 55 -214 114 -475 130 -383 25 -475 0 -475 -130z"/>
<path d="M24000 22507 c0 -59 118 -107 262 -107 225 0 244 -22 134 -154 -95 -115 -99 -183 -14 -268 163 -163 680 76 537 249 -56 68 -95 167 -85 220 9 53 -175 113 -409 132 -258 22 -425 -6 -425 -72z"/>
<path d="M5546 22394 c-57 -93 561 -420 642 -340 30 31 7 132 -52 226 -111 176 -504 252 -590 114z"/>
<path d="M6772 22099 c-94 -111 -172 -223 -172 -250 0 -113 237 -36 346 112 107 146 132 147 274 5 215 -215 320 -76 115 151 -213 235 -349 231 -563 -18z"/>
<path d="M21553 22205 c-36 -59 2 -132 85 -164 203 -78 512 -11 512 110 0 138 -516 184 -597 54z"/>
<path d="M7681 21594 c37 -512 9 -658 -171 -902 -119 -161 -167 -292 -107 -292 59 0 214 240 343 532 174 392 218 621 167 868 -121 595 -280 454 -232 -206z"/>
<path d="M19250 21900 c-606 -61 -660 -238 -85 -280 342 -25 427 -73 475 -267 33 -131 33 -308 0 -394 -75 -194 247 -342 357 -164 60 98 119 97 281 -5 276 -172 522 27 522 422 0 313 144 354 788 226 239 -48 312 -116 312 -288 0 -345 244 -495 627 -386 280 80 330 145 373 489 50 395 52 397 450 365 432 -35 650 -228 650 -575 0 -141 78 -240 216 -276 311 -81 584 100 584 387 0 135 45 246 100 246 55 0 100 90 100 200 0 164 -67 200 -375 202 -206 2 -553 44 -770 94 -243 57 -704 55 -1200 -5 -464 -56 -1250 -64 -1855 -19 -577 43 -1275 56 -1550 28z"/>
<path d="M6018 21743 c-98 -111 -106 -221 -33 -421 l99 -272 8 269 c4 148 53 297 108 331 117 72 135 252 25 246 -41 -2 -134 -71 -207 -153z"/>
<path d="M6352 21704 c-84 -137 -9 -240 139 -189 60 20 68 91 18 171 -62 100 -103 105 -157 18z"/>
<path d="M15500 21400 c0 -55 68 -100 150 -100 82 0 150 45 150 100 0 55 -68 100 -150 100 -82 0 -150 -45 -150 -100z"/>
<path d="M18399 21298 c-134 -250 -52 -398 219 -398 164 0 193 45 145 225 -33 124 -61 259 -62 300 -2 151 -197 69 -302 -127z"/>
<path d="M6275 21020 c-29 -215 -130 -555 -225 -755 -94 -200 -145 -433 -113 -518 33 -85 6 -241 -60 -346 -66 -106 -85 -226 -43 -269 116 -115 271 184 242 468 -17 160 25 249 116 250 78 0 162 63 188 139 31 93 3 112 -83 59 -97 -60 -111 -21 -56 161 250 826 281 1009 187 1103 -67 67 -118 -31 -153 -292z"/>
<path d="M6716 21231 c36 -416 -25 -726 -173 -874 -87 -86 -120 -157 -74 -157 153 0 930 820 870 918 -33 53 -125 3 -205 -111 -194 -277 -317 -262 -261 31 25 131 -3 269 -63 306 -66 40 -103 -5 -94 -113z"/>
<path d="M21300 21100 c0 -55 68 -100 150 -100 83 0 150 45 150 100 0 55 -67 100 -150 100 -82 0 -150 -45 -150 -100z"/>
<path d="M5900 20720 c0 -99 -53 -233 -118 -298 -65 -65 -91 -146 -58 -180 34 -33 132 76 219 244 184 356 192 414 57 414 -55 0 -100 -81 -100 -180z"/>
<path d="M23125 20834 c-261 -105 -109 -234 275 -234 220 0 400 45 400 100 0 55 -64 100 -142 100 -78 0 -202 19 -275 42 -73 23 -189 19 -258 -8z"/>
<path d="M16500 20500 c0 -55 87 -100 194 -100 107 0 222 45 256 100 35 57 -49 100 -194 100 -141 0 -256 -45 -256 -100z"/>
<path d="M17825 20528 c-197 -71 -146 -228 75 -228 110 0 200 42 200 94 0 128 -124 188 -275 134z"/>
<path d="M6800 20090 c-262 -292 -319 -501 -150 -556 84 -27 497 767 425 817 -14 9 -137 -108 -275 -261z"/>
<path d="M21169 20336 c-113 -113 36 -236 287 -236 274 0 327 147 86 239 -202 78 -293 77 -373 -3z"/>
<path d="M20147 20195 c-95 -154 35 -253 163 -125 72 72 74 128 6 170 -56 35 -132 15 -169 -45z"/>
<path d="M24669 19936 c-93 -93 20 -236 187 -236 79 0 144 68 144 150 0 151 -211 206 -331 86z"/>
<path d="M23575 19831 c-180 -47 -233 -185 -100 -263 129 -76 541 125 476 231 -65 105 -88 107 -376 32z"/>
<path d="M18151 19502 c-106 -171 79 -402 321 -402 208 0 242 -37 195 -216 -67 -257 100 -616 245 -527 56 35 87 227 70 428 -17 201 14 365 68 365 55 0 114 -149 132 -331 38 -395 253 -381 300 19 22 185 116 304 291 371 156 59 223 135 168 189 -120 119 -1723 212 -1790 104z"/>
<path d="M20338 19455 c-87 -227 151 -489 319 -349 71 59 275 93 453 76 282 -28 326 -71 339 -332 8 -165 -32 -377 -88 -470 -57 -94 -72 -202 -35 -240 127 -126 343 156 352 458 13 445 157 615 220 260 71 -401 262 -432 338 -55 34 171 105 283 158 250 54 -32 73 -122 44 -199 -63 -163 403 -503 558 -406 58 35 78 172 45 304 -50 198 -15 251 204 306 368 92 403 16 231 -507 -94 -287 -114 -478 -52 -516 117 -72 272 146 274 384 1 93 47 197 102 231 55 34 100 -8 100 -94 0 -272 181 -168 250 143 91 417 232 467 215 76 -13 -283 14 -321 210 -294 169 24 225 -18 225 -169 0 -110 45 -228 100 -262 63 -39 100 191 100 619 l0 681 -975 9 c-1686 16 -3383 103 -3507 180 -69 43 -145 7 -180 -84z m4412 -555 c-34 -55 -82 -100 -106 -100 -24 0 -44 45 -44 100 0 55 48 100 106 100 58 0 78 -45 44 -100z"/>
<path d="M6300 19300 c0 -55 20 -100 44 -100 24 0 72 45 106 100 34 55 14 100 -44 100 -58 0 -106 -45 -106 -100z"/>
<path d="M20775 19043 c-41 -42 -75 -181 -75 -310 0 -192 52 -233 300 -233 206 0 300 49 300 157 0 109 -58 138 -192 95 -145 -45 -201 -7 -225 153 -18 118 -67 180 -108 138z"/>
<path d="M6087 18865 c-103 -75 -187 -340 -228 -717 -35 -329 -90 -724 -121 -877 -30 -154 -10 -334 46 -401 70 -85 43 -292 -88 -671 -209 -606 -242 -839 -107 -756 146 91 442 1328 376 1576 -68 257 107 1429 256 1715 122 234 73 282 -134 131z"/>
<path d="M19800 18700 c0 -55 90 -100 200 -100 110 0 200 45 200 100 0 55 -90 100 -200 100 -110 0 -200 -45 -200 -100z"/>
<path d="M22649 17998 c-81 -257 -13 -344 204 -261 178 69 165 374 -20 435 -64 22 -146 -57 -184 -174z"/>
<path d="M20125 17928 c-366 -46 -447 -229 -100 -227 414 2 975 124 975 212 0 87 -259 91 -875 15z"/>
<path d="M21967 17733 c-136 -136 -60 -233 183 -233 279 0 335 146 92 239 -196 75 -194 75 -275 -6z"/>
<path d="M24100 17690 c0 -116 462 -226 650 -154 289 111 146 251 -250 246 -220 -3 -400 -44 -400 -92z"/>
<path d="M23600 17400 c0 -55 87 -100 194 -100 107 0 222 45 256 100 35 57 -49 100 -194 100 -141 0 -256 -45 -256 -100z"/>
<path d="M20250 16900 c34 -55 191 -100 350 -100 159 0 316 45 350 100 37 60 -101 100 -350 100 -249 0 -387 -40 -350 -100z"/>
<path d="M22329 16762 c55 -168 771 -206 771 -41 0 86 -140 136 -404 143 -258 7 -391 -30 -367 -102z"/>
<path d="M24174 16641 c-133 -133 42 -241 390 -241 237 0 339 41 312 125 -45 136 -591 227 -702 116z"/>
<path d="M20975 16224 c-474 -35 -631 -162 -300 -244 96 -24 288 -15 425 21 138 35 373 30 524 -11 158 -44 299 -34 335 24 33 55 45 112 26 129 -88 73 -577 113 -1010 81z"/>
<path d="M24414 16011 c-94 -60 -102 -107 -25 -154 127 -79 311 10 311 149 0 116 -107 118 -286 5z"/>
<path d="M23225 15675 c23 -69 102 -125 175 -125 73 0 152 56 175 125 25 74 -46 125 -175 125 -129 0 -200 -51 -175 -125z"/>
<path d="M20856 15210 c-66 -107 144 -198 319 -137 69 24 125 85 125 135 0 118 -371 120 -444 2z"/>
<path d="M24625 15175 c63 -189 375 -216 375 -32 0 92 -85 157 -208 157 -123 0 -191 -52 -167 -125z"/>
<path d="M23000 14800 c0 -55 135 -100 300 -100 165 0 300 45 300 100 0 55 -135 100 -300 100 -165 0 -300 -45 -300 -100z"/>
<path d="M22200 14700 c0 -55 65 -100 144 -100 79 0 172 45 206 100 34 55 -31 100 -144 100 -113 0 -206 -45 -206 -100z"/>
<path d="M21119 14415 c-127 -36 -217 -110 -200 -165 17 -55 70 -87 118 -71 47 16 330 32 628 35 452 6 523 30 426 146 -119 144 -566 169 -972 55z"/>
<path d="M23800 13854 c0 -168 222 -254 658 -254 329 0 475 165 217 245 -418 128 -875 133 -875 9z"/>
<path d="M20053 13405 c-100 -163 309 -321 436 -169 60 73 80 162 43 198 -98 99 -412 80 -479 -29z"/>
<path d="M21467 13033 c-135 -135 -61 -233 177 -233 292 0 419 154 197 240 -203 77 -292 76 -374 -7z"/>
<path d="M22919 12890 c-128 -48 -204 -134 -170 -189 78 -126 255 -127 450 -4 228 144 0 301 -280 193z"/>
<path d="M23925 12597 c-379 -153 -274 -328 149 -249 453 85 547 137 472 259 -71 114 -322 110 -621 -10z"/>
<path d="M20844 12257 c-175 -129 -178 -149 -27 -208 185 -71 583 102 583 255 0 144 -335 116 -556 -47z"/>
<path d="M22000 11900 c0 -55 56 -101 125 -101 69 -1 226 -29 350 -62 165 -44 225 -18 225 101 0 118 -94 162 -350 162 -192 0 -350 -45 -350 -100z"/>
<path d="M21200 11256 c0 -79 40 -169 90 -200 102 -63 227 194 136 284 -107 108 -226 63 -226 -84z"/>
<path d="M3899 11175 c-1 -69 -26 -237 -56 -375 -39 -182 -12 -158 102 86 183 397 185 414 55 414 -55 0 -101 -56 -101 -125z"/>
<path d="M20350 11000 c-34 -55 -35 -143 -3 -196 83 -133 353 -13 353 157 0 160 -258 189 -350 39z"/>
<path d="M23350 10407 c-440 -96 -979 -271 -1199 -390 -219 -119 -449 -217 -512 -217 -334 0 -2328 -1000 -2889 -1449 -220 -176 -501 -374 -625 -439 -124 -66 -586 -533 -1027 -1039 -642 -737 -942 -1200 -1504 -2322 -733 -1464 -942 -2123 -981 -3086 -13 -317 -59 -671 -101 -787 -117 -315 -16 -678 187 -678 141 0 185 109 222 550 54 648 92 704 377 551 173 -92 202 -172 150 -408 -50 -227 -29 -293 94 -293 87 0 158 83 158 185 0 235 410 712 470 546 24 -66 103 -97 176 -69 74 29 163 4 200 -55 117 -190 254 -113 254 143 0 138 37 250 83 250 127 0 717 861 717 1046 0 317 -297 733 -597 838 -340 119 -376 267 -146 596 204 291 143 506 -79 283 -203 -203 -278 -206 -278 -13 0 194 -90 190 -317 -15 -101 -92 -183 -120 -183 -63 0 57 66 158 146 225 80 66 176 218 212 337 240 789 744 1505 891 1268 90 -146 351 59 351 276 0 84 179 324 399 532 227 217 354 407 295 443 -56 36 -169 9 -251 -59 -81 -67 -170 -100 -198 -72 -50 49 589 578 698 578 31 0 57 -217 57 -483 0 -389 50 -529 258 -725 219 -206 354 -241 896 -236 569 6 660 35 849 275 116 148 272 269 347 269 188 0 523 449 601 806 131 593 1219 1163 2347 1230 708 41 733 36 466 -104 -156 -82 -582 -194 -948 -250 -366 -56 -838 -198 -1049 -315 -328 -182 -377 -253 -341 -496 33 -225 -11 -310 -218 -417 -358 -185 -642 -519 -557 -655 49 -79 136 -55 285 79 117 106 360 277 539 379 325 186 436 436 200 451 -179 11 1041 591 1244 592 93 0 197 45 231 100 34 55 214 100 401 100 214 0 427 83 578 225 219 206 240 305 245 1200 l6 975 -415 -10 c-228 -6 -775 -88 -1215 -183z m975 -373 c-69 -28 -181 -28 -250 0 -69 28 -12 50 125 50 138 0 194 -22 125 -50z m-1025 -176 c0 -23 -236 -117 -525 -210 -289 -92 -597 -250 -685 -350 -165 -189 -1145 -700 -1334 -696 -175 4 370 386 719 504 179 60 325 167 325 237 0 147 614 433 1050 489 165 21 334 45 375 53 41 8 75 -4 75 -27z m500 -450 c0 -81 -277 -168 -1200 -377 -197 -44 -225 -30 -132 69 64 69 357 183 650 254 675 164 682 164 682 54z m650 -208 c36 -58 -57 -99 -219 -98 -218 1 -247 23 -131 98 192 124 273 124 350 0z m-3900 -352 c-356 -297 -956 -578 -1040 -486 -33 36 -15 83 40 103 55 21 325 172 600 335 612 363 804 386 400 48z m1377 -338 c-331 -430 -392 -471 -502 -330 -80 101 -91 194 -30 255 77 77 778 519 882 556 14 5 -143 -212 -350 -481z m-1117 -438 c483 -325 490 -611 28 -1084 -279 -286 -460 -388 -688 -388 -171 0 -353 -41 -405 -91 -58 -55 -247 -30 -480 65 -378 153 -385 164 -321 563 84 526 434 851 1150 1068 368 112 345 116 716 -133z m-3410 -1872 c0 -55 -45 -100 -100 -100 -55 0 -100 45 -100 100 0 55 45 100 100 100 55 0 100 -45 100 -100z m-1000 -2450 c0 -83 -44 -150 -97 -150 -53 0 -71 67 -39 150 31 83 75 150 97 150 21 0 39 -67 39 -150z m387 -793 c462 -239 556 -411 415 -753 -180 -433 -674 -765 -1232 -827 -423 -47 -499 -26 -631 176 -327 499 299 1547 924 1547 136 0 372 -65 524 -143z"/>
<path d="M20330 7343 c-160 -220 -276 -270 -617 -270 -247 0 -406 -43 -386 -104 136 -407 1015 -301 1268 152 111 198 122 302 42 382 -81 81 -164 37 -307 -160z"/>
<path d="M16449 2441 c75 -385 -130 -581 -608 -581 -404 0 -466 -225 -88 -320 180 -45 365 12 650 200 450 298 477 406 189 760 l-204 250 61 -309z"/>
<path d="M15850 2317 c-120 -120 -34 -317 138 -317 155 0 520 281 399 308 -195 44 -497 49 -537 9z"/>
<path d="M24750 8100 c-34 -55 8 -100 94 -100 86 0 156 45 156 100 0 55 -42 100 -94 100 -52 0 -122 -45 -156 -100z"/>
<path d="M23980 7905 c-426 -83 -666 -256 -783 -563 -54 -141 -202 -239 -424 -281 -188 -35 -668 -289 -1066 -563 -397 -274 -734 -498 -747 -498 -13 0 -410 -371 -882 -825 -887 -853 -1617 -1834 -1736 -2337 -38 -158 -175 -431 -305 -606 -130 -175 -237 -380 -237 -455 0 -75 -52 -189 -115 -252 -63 -63 -126 -264 -139 -445 -13 -182 -48 -397 -76 -480 -160 -460 -150 -600 42 -600 159 0 190 62 171 341 -12 187 27 401 88 475 61 74 143 306 183 517 39 211 133 407 209 436 76 29 210 217 298 417 593 1347 871 1749 1937 2806 845 838 1952 1608 2311 1608 99 0 204 41 235 91 53 85 956 122 956 39 0 -170 -434 -830 -546 -830 -178 0 -726 -461 -644 -543 32 -33 222 8 421 92 423 176 569 189 569 51 0 -55 -61 -100 -135 -100 -158 0 -522 -376 -441 -457 77 -78 656 -73 1076 8 345 67 347 66 125 -97 -324 -238 -296 -470 50 -410 l275 47 -300 -256 c-337 -287 -491 -413 -1203 -983 -273 -219 -513 -437 -533 -485 -21 -47 -163 -198 -317 -336 -303 -270 -1096 -1578 -1276 -2106 -105 -308 -98 -325 134 -325 187 0 245 53 246 225 1 124 58 322 125 440 68 118 274 486 458 816 363 652 479 790 1109 1319 230 193 568 487 752 654 183 167 518 392 743 500 422 202 564 536 237 558 -167 11 -167 13 0 57 121 32 175 145 175 371 0 292 -38 334 -374 417 -518 129 -692 492 -480 999 141 338 180 363 503 325 l351 -41 0 580 c0 507 -24 580 -194 580 -107 0 -222 45 -256 100 -34 55 -93 95 -131 89 -38 -7 -235 -44 -439 -84z"/>
<path d="M3026 7033 c-262 -277 -622 -603 -801 -725 -179 -122 -325 -269 -325 -327 0 -58 -202 -284 -450 -502 -547 -481 -1450 -1828 -1450 -2163 l0 -243 200 254 c110 140 200 298 200 352 0 53 68 153 150 221 229 190 183 41 -200 -643 -193 -345 -349 -689 -348 -767 1 -114 19 -112 98 10 83 128 97 125 98 -25 1 -96 -43 -175 -98 -175 -55 0 -98 -101 -96 -225 3 -201 41 -182 345 174 188 220 368 505 400 634 134 531 820 1773 1310 2372 188 228 341 511 341 628 0 131 107 267 283 358 420 217 1071 1045 931 1185 -81 81 -238 -23 -588 -393z m-1973 -2527 c-146 -282 -353 -489 -353 -352 0 84 399 646 459 646 26 0 -22 -132 -106 -294z"/>
<path d="M22584 6082 c-594 -202 -859 -483 -456 -481 122 0 351 67 508 150 158 82 347 149 420 149 72 0 162 49 199 109 142 229 -127 258 -671 73z"/>
<path d="M24602 6004 c-136 -254 -57 -404 211 -404 158 0 194 56 169 267 -40 338 -235 408 -380 137z"/>
<path d="M20821 4696 c-125 -51 -305 -228 -400 -393 -110 -195 -251 -302 -396 -302 -140 -1 -225 -62 -225 -162 0 -99 55 -139 144 -105 113 43 103 -42 -50 -398 -107 -249 -194 -516 -194 -593 0 -249 674 -449 1342 -398 807 61 1318 285 1560 683 244 399 222 1070 -45 1364 -320 354 -1219 511 -1736 304z m1472 -559 c521 -663 35 -1437 -902 -1437 -369 0 -536 50 -664 200 -94 110 -232 200 -306 200 -179 0 -76 339 249 820 273 403 375 451 998 468 340 10 456 -37 625 -251z"/>
<path d="M21575 3501 c-221 -173 -268 -180 -376 -50 -192 232 -315 176 -281 -126 25 -210 92 -282 287 -305 285 -33 795 312 795 537 0 196 -127 179 -425 -56z"/>
<path d="M24750 3700 c-82 -132 38 -319 157 -246 121 75 121 346 -1 346 -52 0 -122 -45 -156 -100z"/>
<path d="M18697 1395 c-141 -264 -55 -511 149 -433 168 65 211 491 59 585 -52 32 -146 -36 -208 -152z"/>
<path d="M20535 1446 c-33 -85 -34 -181 -2 -213 101 -101 367 54 367 214 0 199 -289 199 -365 -1z"/>
<path d="M19199 1248 c-92 -172 -102 -285 -33 -354 120 -120 272 34 378 381 98 318 -172 297 -345 -27z"/>
<path d="M16000 850 c0 -92 56 -148 125 -125 142 47 126 208 -25 258 -55 19 -100 -41 -100 -133z"/>
<path d="M6424 324 c-381 -253 -254 -324 576 -324 440 0 800 39 800 88 0 339 -969 506 -1376 236z"/>
</g>
</svg>