<svg xmlns="http://www.w3.org/2000/svg" version="1.0" width="250" height="250" viewBox="0 0 250.000000 250.000000" preserveAspectRatio="xMidYMid meet">
<metadata>
Created by potrace 1.10, written by Peter Selinger 2001-2011
</metadata>
<g transform="translate(0.000000,250.000000) scale(0.010000,-0.010000)" fill="#555555" stroke="none">
<path d="M0 24597 l0 -402 325 166 325 166 -200 -238 c-110 -132 -256 -275 -325 -319 -69 -44 -125 -111 -125 -150 1 -109 586 -123 653 -16 78 127 447 124 447 -4 0 -55 -87 -100 -193 -100 -106 0 -254 -62 -330 -137 -75 -75 -235 -168 -357 -207 -191 -60 -219 -138 -212 -588 4 -285 30 -462 58 -393 77 190 204 149 266 -86 30 -117 113 -190 186 -164 138 47 141 152 27 839 l-68 414 532 73 c365 50 545 38 570 -39 21 -61 101 -112 179 -112 78 0 142 -44 142 -97 0 -53 -62 -73 -137 -44 -242 93 -274 -267 -56 -620 253 -410 468 -437 511 -65 25 215 85 274 279 275 214 1 257 60 323 451 42 248 156 597 252 776 142 265 152 363 53 520 -76 123 -85 217 -23 255 142 88 298 -36 298 -237 0 -256 207 -433 359 -306 91 75 142 46 191 -107 45 -143 -29 -356 -236 -680 -425 -664 -555 -1034 -397 -1132 96 -59 85 -121 -46 -266 -220 -243 -216 -323 17 -323 114 0 236 117 311 297 148 357 353 544 499 454 65 -40 -72 -265 -345 -569 -450 -500 -568 -782 -327 -782 69 0 180 124 248 275 67 151 246 408 397 570 191 206 279 411 288 677 7 209 80 459 163 554 83 96 181 298 216 449 100 418 -196 354 -337 -73 -64 -192 -216 -428 -339 -525 -122 -98 -255 -262 -295 -366 -39 -104 -96 -166 -125 -136 -77 76 222 760 522 1194 143 207 223 422 181 489 -40 65 -78 211 -84 322 -15 288 -223 322 -300 49 l-65 -229 -140 249 c-104 187 -110 268 -23 324 65 41 -117 75 -402 75 -476 2 -837 -179 -549 -275 165 -55 148 -618 -21 -683 -76 -29 -141 -151 -144 -271 -12 -493 -138 -855 -277 -801 -192 73 -189 967 4 1127 82 68 141 286 138 512 l-6 393 -1238 0 -1238 0 0 -403z m2100 10 c0 -51 -79 -107 -175 -126 -96 -19 -179 -101 -185 -182 -29 -437 -52 -499 -190 -499 -90 0 -150 92 -150 230 0 127 -53 283 -117 347 -128 128 -45 178 417 254 138 23 284 48 325 55 41 8 75 -28 75 -79z m-1350 -507 c-34 -55 -107 -100 -162 -100 -55 0 -72 45 -38 100 34 55 107 100 162 100 55 0 72 -45 38 -100z"/>
<path d="M4365 24682 c78 -408 109 -448 245 -312 158 158 67 573 -134 611 -147 28 -164 -19 -111 -299z"/>
<path d="M5000 24756 c0 -134 49 -274 109 -311 167 -104 319 110 244 345 -93 293 -353 268 -353 -34z"/>
<path d="M5602 24875 c2 -229 162 -383 331 -318 273 105 210 443 -83 443 -137 0 -249 -56 -248 -125z"/>
<path d="M6300 24856 c0 -185 167 -290 249 -158 35 56 108 102 164 102 175 0 -22 -437 -324 -719 -159 -149 -289 -340 -289 -425 0 -86 -50 -156 -111 -156 -61 0 -83 72 -49 159 168 439 179 641 33 641 -91 0 -190 -163 -255 -419 -117 -461 -73 -624 146 -540 183 71 300 -217 149 -368 -156 -156 -142 -441 26 -505 149 -57 661 417 661 612 0 66 -67 120 -148 120 -163 0 -310 426 -206 594 109 176 254 119 254 -100 0 -156 54 -199 224 -175 202 28 220 -5 191 -352 -35 -417 201 -793 439 -702 89 35 165 -60 220 -274 87 -334 326 -526 326 -262 0 284 -305 871 -451 871 -82 0 -149 61 -149 136 0 75 -29 345 -64 600 -74 541 110 649 279 164 97 -279 271 -381 412 -240 33 33 10 168 -50 300 -79 175 -79 307 3 486 76 167 79 267 10 310 -65 40 -39 135 69 254 164 181 162 190 -38 190 -115 0 -237 -45 -271 -100 -34 -55 -107 -100 -162 -100 -55 0 -72 45 -38 100 34 55 25 100 -20 100 -162 0 -332 -407 -272 -648 40 -157 7 -301 -91 -399 -225 -225 -297 -187 -232 122 212 1012 233 925 -224 925 -291 0 -411 -42 -411 -144z"/>
<path d="M8650 24900 c34 -55 117 -100 184 -100 67 0 200 -92 296 -204 97 -113 219 -177 273 -144 53 33 97 -10 97 -96 0 -86 68 -156 150 -156 94 0 150 95 150 257 0 211 -35 245 -200 193 -156 -50 -200 -18 -200 143 0 175 -62 207 -406 207 -245 0 -381 -40 -344 -100z"/>
<path d="M10248 24792 c-37 -114 -43 -231 -14 -260 87 -86 238 51 295 266 71 273 -195 268 -281 -6z"/>
<path d="M10761 24842 c-154 -400 43 -481 221 -92 91 201 87 250 -23 250 -76 0 -165 -71 -198 -158z"/>
<path d="M11660 24841 c-98 -258 53 -396 205 -187 74 101 135 221 135 265 0 148 -278 84 -340 -78z"/>
<path d="M12361 24842 c-95 -246 -73 -342 77 -342 76 0 160 113 186 250 54 280 -162 355 -263 92z"/>
<path d="M13300 24855 c0 -278 219 -623 502 -790 394 -233 453 -55 94 288 -163 157 -296 366 -296 466 0 99 -68 181 -150 181 -82 0 -150 -65 -150 -145z"/>
<path d="M13927 24940 c33 -34 120 -37 192 -8 80 32 56 55 -61 60 -105 4 -164 -19 -131 -52z"/>
<path d="M14500 24956 c0 -106 192 -150 249 -58 35 56 -7 102 -93 102 -86 0 -156 -20 -156 -44z"/>
<path d="M15356 24775 c88 -286 109 -308 228 -235 142 88 18 460 -152 460 -105 0 -126 -63 -76 -225z"/>
<path d="M15800 24750 c0 -156 57 -250 150 -250 161 0 185 92 89 342 -93 243 -239 187 -239 -92z"/>
<path d="M17400 24855 c0 -246 228 -662 342 -624 60 20 93 77 76 127 -18 51 -58 216 -88 367 -57 283 -330 390 -330 130z"/>
<path d="M18041 24750 c-79 -316 8 -550 206 -550 176 0 204 157 45 255 -60 37 -81 174 -48 306 33 133 15 239 -40 239 -55 0 -128 -112 -163 -250z"/>
<path d="M20110 24644 c-237 -401 -270 -705 -85 -773 100 -36 100 -88 -1 -258 -106 -180 -102 -213 28 -213 85 0 177 79 205 175 29 96 140 351 248 566 108 215 167 418 132 450 -35 33 -81 14 -102 -41 -84 -221 -227 -391 -283 -335 -77 76 153 585 264 585 46 0 84 45 84 100 0 229 -295 75 -490 -256z"/>
<path d="M21348 24792 c-37 -114 -43 -231 -14 -260 87 -86 238 51 295 266 71 273 -195 268 -281 -6z"/>
<path d="M21900 24900 c0 -55 63 -100 139 -100 77 0 166 -67 197 -150 58 -151 367 -215 361 -75 -13 295 -697 614 -697 325z"/>
<path d="M22875 24934 c69 -28 181 -28 250 0 69 28 13 50 -125 50 -137 0 -194 -22 -125 -50z"/>
<path d="M23400 24906 c0 -173 176 -205 301 -55 103 124 88 149 -89 149 -116 0 -212 -42 -212 -94z"/>
<path d="M24225 24850 c-69 -78 -127 -200 -129 -271 -2 -71 -135 -283 -296 -470 -160 -188 -263 -388 -229 -444 80 -129 794 691 923 1059 107 308 -46 379 -269 126z"/>
<path d="M24727 24940 c33 -34 120 -37 192 -8 80 32 56 55 -61 60 -105 4 -164 -19 -131 -52z"/>
<path d="M18540 24760 c-76 -198 179 -968 310 -935 55 14 90 93 78 175 -111 763 -269 1071 -388 760z"/>
<path d="M19320 24780 c-162 -162 -158 -880 5 -879 81 0 131 177 143 500 20 552 21 548 -148 379z"/>
<path d="M22705 24489 c-187 -204 -305 -441 -305 -611 0 -308 111 -356 300 -128 68 83 179 150 245 150 153 0 609 480 530 558 -33 33 -197 -42 -366 -167 -382 -283 -480 -209 -199 149 314 399 150 438 -205 49z"/>
<path d="M24595 24545 c-184 -196 -209 -274 -110 -336 145 -89 60 -809 -96 -809 -49 0 -89 45 -89 100 0 55 -71 100 -157 100 -105 0 -146 -73 -125 -223 23 -162 107 -229 304 -244 234 -18 287 31 378 348 127 438 248 1319 181 1319 -25 0 -154 -115 -286 -255z"/>
<path d="M16633 24630 c-133 -26 -259 -162 -325 -351 -143 -408 -137 -479 42 -479 83 0 150 87 150 194 0 107 45 222 100 256 57 35 100 -49 100 -194 0 -141 45 -256 100 -256 55 0 100 149 100 330 0 182 54 384 120 450 128 128 59 137 -387 50z"/>
<path d="M8456 24182 c-174 -349 -124 -682 103 -682 103 0 127 69 84 240 -41 165 -9 269 103 332 100 56 137 155 97 259 -96 251 -210 207 -387 -149z"/>
<path d="M5193 24033 c-109 -289 -62 -533 104 -533 57 0 104 79 104 175 1 96 29 276 62 400 86 322 -145 286 -270 -42z"/>
<path d="M10833 24142 c-65 -168 314 -628 425 -517 78 77 -175 675 -286 675 -43 0 -106 -71 -139 -158z"/>
<path d="M11748 23993 c-36 -114 -39 -317 -5 -451 35 -139 -4 -370 -91 -538 -185 -358 -201 -737 -28 -679 176 58 359 732 368 1350 8 530 -123 700 -244 318z"/>
<path d="M12607 23963 c-70 -130 -111 -321 -91 -424 29 -147 83 -107 260 193 262 444 267 468 91 468 -73 0 -190 -107 -260 -237z"/>
<path d="M14504 24075 c1 -69 67 -237 146 -375 79 -137 145 -374 146 -525 3 -176 58 -275 154 -275 196 0 190 240 -19 825 -154 429 -436 660 -427 350z"/>
<path d="M21549 24099 c-34 -55 -35 -186 -2 -290 87 -274 591 -131 636 181 29 200 10 213 -175 114 -138 -74 -208 -76 -208 -8 0 133 -169 135 -251 3z"/>
<path d="M3331 23875 c-264 -410 -721 -1625 -641 -1705 145 -145 282 -2 351 369 36 187 125 391 200 453 74 62 160 235 190 385 30 150 85 352 123 448 77 200 -100 240 -223 50z"/>
<path d="M10203 23875 c5 -176 282 -523 358 -447 112 111 -60 572 -213 572 -81 0 -147 -56 -145 -125z"/>
<path d="M15421 23633 c-118 -385 -88 -533 110 -533 72 0 126 178 136 450 21 544 -93 583 -246 83z"/>
<path d="M17400 23850 c0 -199 381 -574 505 -497 57 35 2 183 -128 348 -255 323 -377 371 -377 149z"/>
<path d="M21067 23933 c-135 -135 -70 -633 83 -633 105 0 150 106 150 350 0 331 -84 433 -233 283z"/>
<path d="M24919 23650 c-2 -165 19 -245 47 -177 27 68 29 203 3 300 -25 97 -47 42 -50 -123z"/>
<path d="M9475 23541 c-121 -120 -90 -208 184 -533 237 -282 543 -414 540 -233 -3 152 -652 838 -724 766z"/>
<path d="M13120 23480 c-149 -149 -156 -446 -13 -534 58 -36 165 14 236 111 122 167 139 163 284 -65 305 -478 480 -1192 414 -1689 -41 -307 -24 -502 48 -546 61 -38 111 -291 111 -563 0 -372 37 -494 150 -494 175 0 186 -92 52 -443 -61 -162 -174 -257 -304 -257 -861 0 -2672 -1966 -2224 -2414 140 -140 340 -16 319 198 -30 313 7 416 152 416 80 0 181 58 225 129 133 213 648 572 740 515 94 -58 504 132 600 278 34 51 248 135 478 186 342 77 485 59 799 -101 368 -188 386 -221 448 -816 36 -341 65 -1300 64 -2131 l0 -1510 -300 -170 c-308 -176 -399 -380 -169 -380 72 0 183 53 247 117 162 162 204 -1 244 -939 32 -765 30 -774 -247 -889 -349 -144 -440 -63 -292 261 133 293 20 328 -217 67 -207 -229 -212 -477 -12 -555 137 -52 136 -86 -11 -309 -165 -254 -136 -553 55 -553 57 0 103 128 103 285 0 285 199 531 525 647 156 55 175 -16 176 -660 1 -1004 64 -2383 150 -3273 l72 -751 -436 -130 c-241 -72 -669 -190 -953 -263 -738 -190 -1612 -794 -1713 -1183 -101 -388 -321 -482 -321 -137 0 139 -44 369 -99 512 -118 310 64 433 385 260 291 -155 366 45 91 239 -181 127 -199 177 -89 246 200 125 49 299 -202 233 -208 -54 -213 -34 -165 718 l50 774 -343 -64 c-188 -36 -407 -89 -485 -120 -263 -100 -158 328 110 450 207 95 264 88 311 -34 84 -218 217 -182 254 68 18 120 86 235 152 257 161 53 530 -691 530 -1070 0 -189 51 -304 136 -304 105 0 137 239 143 1065 5 648 51 1092 117 1132 59 37 96 172 81 299 -15 128 29 252 98 276 69 25 125 -29 125 -118 0 -90 56 -155 125 -147 277 36 360 -20 463 -316 110 -316 337 -355 392 -67 37 188 -515 842 -782 927 -105 33 -282 11 -394 -49 -119 -64 -204 -70 -204 -14 0 53 56 116 125 141 100 37 100 73 0 179 -171 180 -157 269 50 324 148 40 141 58 -50 119 -254 82 -304 249 -75 249 237 0 174 183 -75 218 -177 25 -221 91 -206 307 13 191 -29 275 -137 275 -127 0 -133 28 -33 149 100 120 93 160 -38 211 -203 77 -210 240 -11 240 82 0 150 45 150 100 0 55 -48 100 -106 100 -58 0 -80 42 -48 93 86 139 -85 207 -251 100 -121 -77 -122 -108 -9 -181 106 -68 108 -104 11 -164 -76 -47 -189 9 -291 144 -131 174 -226 207 -443 152 -163 -41 -255 -120 -226 -195 32 -84 -17 -109 -145 -76 -152 40 -205 -15 -255 -261 -35 -176 -125 -312 -206 -312 -79 0 -136 -79 -126 -175 10 -96 13 -324 7 -507 -11 -291 -38 -323 -226 -263 -206 65 -212 47 -147 -445 66 -493 58 -517 -210 -628 -240 -100 -785 -161 -1587 -178 -377 -8 -1120 -585 -1247 -969 -83 -252 -86 -384 -9 -461 76 -76 164 26 305 355 340 794 1217 1068 2206 689 488 -187 947 -738 868 -1041 -25 -97 -5 -202 44 -233 50 -31 91 -146 91 -256 0 -110 45 -172 100 -138 62 38 100 -132 100 -444 0 -383 -36 -506 -150 -506 -202 0 -201 -749 1 -1136 210 -404 191 -417 -167 -116 -174 147 -388 245 -475 218 -88 -27 -294 -96 -459 -155 -165 -58 -412 -128 -550 -156 -386 -78 -793 -470 -862 -830 -50 -259 -30 -325 100 -325 103 0 162 85 162 233 0 366 423 689 972 741 422 40 525 8 878 -273 220 -175 436 -382 480 -459 44 -78 144 -142 221 -142 125 0 349 -286 349 -443 0 -32 -107 -57 -238 -57 -271 0 -513 -237 -410 -402 37 -62 138 -85 223 -52 326 125 -28 -2091 -523 -3271 -50 -119 -28 -175 69 -175 148 0 532 1028 645 1725 33 206 102 375 153 375 122 0 41 -484 -222 -1335 -200 -649 -193 -1011 13 -643 52 93 156 147 230 118 80 -31 158 41 195 179 99 367 76 507 -74 449 -118 -45 -119 3 -8 314 73 203 172 570 222 818 l90 450 129 -300 c71 -165 168 -401 215 -525 48 -124 155 -225 239 -225 208 0 203 635 -7 844 -353 354 -1038 3224 -1072 4495 -16 600 7 710 156 740 157 32 175 -62 175 -899 0 -665 43 -997 148 -1147 82 -116 219 -633 305 -1147 180 -1074 402 -1824 584 -1975 195 -162 93 -1680 -141 -2119 -80 -149 -70 -192 44 -192 80 0 175 90 210 200 35 110 104 200 153 200 50 0 138 -90 197 -200 129 -241 451 -278 361 -42 -34 87 -61 200 -61 250 0 51 -79 93 -175 95 -158 3 -157 17 19 150 238 180 365 189 306 22 -58 -162 395 -675 595 -675 213 0 196 77 -100 466 l-256 335 243 92 c133 51 538 90 900 88 514 -3 694 -45 828 -192 94 -104 249 -189 343 -189 95 0 229 -67 297 -150 68 -82 186 -150 262 -150 172 0 181 -166 13 -234 -69 -28 -27 -54 92 -58 270 -10 319 129 224 640 -40 221 -102 762 -137 1202 -193 2438 -469 4240 -746 4883 -117 272 -208 698 -208 975 0 271 -45 492 -100 492 -61 0 -94 438 -85 1136 8 625 -16 1184 -52 1242 -36 59 -74 1764 -84 3789 -17 3437 -30 3692 -200 3815 -275 199 -107 341 181 152 239 -156 246 -192 180 -865 -62 -634 -53 -695 100 -637 155 60 168 -50 154 -1239 -9 -718 10 -1330 40 -1361 86 -86 566 58 566 170 0 54 -67 98 -150 98 -168 0 -164 -54 -150 1931 9 1290 107 1869 318 1869 122 0 682 -906 682 -1103 0 -90 34 -198 75 -240 41 -41 75 -258 75 -482 0 -235 53 -424 125 -449 89 -30 131 125 146 541 39 1090 -29 1663 -231 1947 -185 260 -186 278 -17 373 207 116 150 147 -573 308 -643 143 -862 129 -1062 -70 -168 -167 -173 -166 -106 13 39 103 20 249 -43 325 -76 92 -79 137 -7 137 58 0 134 -45 168 -100 92 -150 350 -121 350 39 0 77 -67 166 -150 197 -210 81 -187 288 54 494 113 97 172 227 133 291 -80 129 -637 -476 -637 -692 0 -132 -123 -173 -223 -73 -93 94 239 666 591 1019 402 402 445 825 107 1051 -219 146 -214 149 161 137 381 -13 389 -6 626 587 201 502 231 540 186 231 -72 -487 35 -909 214 -840 159 61 189 -98 36 -192 -56 -35 -73 -109 -38 -165 42 -68 99 -65 171 7 217 217 298 103 87 -122 -172 -183 -191 -256 -93 -354 98 -98 93 -142 -25 -215 -127 -79 -120 -114 50 -243 194 -146 192 -151 -75 -154 -273 -3 -395 -246 -162 -324 62 -21 -28 -171 -200 -333 -332 -314 -409 -504 -166 -411 81 31 173 13 206 -39 116 -189 373 -105 318 104 -29 110 -11 200 38 200 50 0 91 -45 91 -100 0 -168 287 -111 383 75 112 216 212 1096 134 1174 -31 32 -45 249 -31 483 20 316 -31 498 -198 710 -217 276 -218 289 -37 421 103 76 224 137 268 137 45 0 81 49 81 108 0 69 -113 83 -313 39 -226 -49 -292 -36 -240 49 82 132 -214 504 -402 504 -68 0 -149 67 -181 150 -49 127 -330 148 -564 42 -27 -12 -117 -27 -199 -32 -82 -6 -208 -134 -280 -285 -73 -151 -194 -275 -269 -275 -231 0 -570 -515 -506 -770 48 -190 21 -224 -165 -204 -156 17 -262 -58 -356 -250 -129 -261 -146 -267 -371 -119 -152 99 -278 324 -350 624 -62 258 -246 683 -408 944 -298 478 -542 589 -776 355z m3957 -299 c-62 -185 -277 -216 -277 -39 0 87 71 158 158 158 87 0 141 -53 119 -119z m-520 -657 c-101 -101 -285 150 -204 280 55 89 100 76 170 -49 52 -93 68 -197 34 -231z m443 120 c0 -24 -45 -44 -100 -44 -55 0 -100 48 -100 106 0 58 45 78 100 44 55 -34 100 -82 100 -106z m-900 -94 c-68 -82 -169 -150 -224 -150 -56 0 -45 66 24 150 68 83 169 150 224 150 56 0 45 -66 -24 -150z m760 -323 c-33 -33 -56 26 -52 131 5 117 28 141 60 61 29 -72 26 -159 -8 -192z m-660 -83 c0 -24 -45 -44 -100 -44 -55 0 -100 48 -100 106 0 58 45 78 100 44 55 -34 100 -82 100 -106z m-200 -444 c-196 -127 -328 -127 -250 0 34 55 138 99 231 98 146 -1 148 -14 19 -98z m-200 -300 c0 -55 -70 -100 -156 -100 -86 0 -128 45 -94 100 34 55 104 100 156 100 52 0 94 -45 94 -100z m-1374 -160 c33 -33 35 -126 3 -208 -46 -121 -72 -124 -141 -15 -148 232 -42 403 138 223z m1771 -215 c-2 -96 -112 -299 -245 -450 -267 -303 -375 -352 -291 -132 40 104 -1 128 -153 88 -385 -101 -213 160 184 278 262 79 374 163 339 254 -29 76 -3 137 58 137 61 0 110 -79 108 -175z m-1497 -875 c0 -82 -45 -150 -100 -150 -55 0 -100 68 -100 150 0 83 45 150 100 150 55 0 100 -67 100 -150z m3350 50 c-34 -55 -104 -100 -156 -100 -52 0 -94 45 -94 100 0 55 70 100 156 100 86 0 128 -45 94 -100z m-2793 -477 c-91 -90 -370 75 -304 181 44 73 110 68 208 -13 79 -66 122 -141 96 -168z m-329 -627 c-61 -234 -262 -210 -310 37 -22 111 34 167 165 167 150 0 185 -49 145 -204z m1791 -164 c-72 -29 -159 -26 -192 8 -33 33 26 56 131 52 117 -5 141 -28 61 -60z m506 2 c-69 -28 -181 -28 -250 0 -69 28 -12 50 125 50 138 0 194 -22 125 -50z m-1574 -135 c78 -126 -332 -285 -574 -222 -141 37 -156 78 -67 185 133 160 550 184 641 37z m-1124 -59 c59 -59 -658 -438 -1477 -780 l-400 -168 400 364 c570 517 1267 793 1477 584z m3009 -90 c-31 -82 -11 -150 46 -150 119 0 353 -646 295 -818 -21 -63 -114 43 -206 237 -92 195 -236 411 -320 480 -117 97 -126 160 -40 264 152 183 297 175 225 -13z m-886 -46 c179 -74 182 -90 31 -152 -227 -92 -505 -31 -556 123 -47 140 218 155 525 29z m-184 -929 c-28 -69 -50 -12 -50 125 0 138 22 194 50 125 28 -69 28 -181 0 -250z m-4028 -5521 c238 -363 207 -409 -288 -430 -247 -11 -450 24 -450 78 0 54 135 98 300 98 331 0 347 25 196 307 -151 282 52 238 242 -53z m-722 -814 c-236 -165 -387 -135 -270 53 36 59 163 107 282 107 l217 0 -229 -160z m626 99 c87 -33 158 -121 158 -196 0 -130 -339 -373 -550 -394 -55 -5 -230 -65 -389 -132 -159 -68 -316 -95 -349 -62 -78 78 267 281 588 346 163 33 261 128 282 275 35 248 36 249 260 163z m613 -348 c88 -170 143 -327 122 -347 -21 -21 -283 -102 -582 -180 -338 -87 -541 -193 -534 -278 6 -75 44 -329 84 -565 70 -405 53 -449 -293 -775 -201 -190 -408 -346 -459 -346 -162 0 -100 204 82 269 274 99 570 442 446 518 -59 36 -103 133 -98 214 36 621 -20 667 -548 450 -100 -42 -175 -28 -175 30 0 157 1192 719 1524 719 272 0 287 20 226 300 -85 387 2 383 205 -9z m145 -691 c0 -55 -45 -100 -100 -100 -55 0 -100 45 -100 100 0 55 45 100 100 100 55 0 100 -45 100 -100z m0 -327 c0 -152 -431 -240 -657 -133 -124 59 -208 135 -186 171 57 92 843 57 843 -38z m-1684 -333 c-126 -88 -258 -131 -295 -95 -80 80 174 251 376 253 95 1 66 -55 -81 -158z m1739 -690 c6 -642 -149 -725 -394 -210 -257 543 -206 760 181 760 185 0 209 -61 213 -550z m-1163 -482 c-23 -18 -188 -134 -366 -257 -285 -196 -316 -201 -258 -42 85 227 228 328 474 329 105 1 173 -13 150 -30z m-571 -2368 c25 -165 12 -300 -27 -300 -39 0 -91 135 -115 300 -25 165 -12 300 27 300 39 0 91 -135 115 -300z m5022 -289 c72 -359 357 -2189 357 -2296 0 -147 -809 -1015 -946 -1015 -71 0 -196 -100 -277 -222 -186 -281 -722 -264 -1037 32 -240 225 -786 284 -965 105 -63 -63 -150 -115 -192 -115 -134 0 -352 523 -509 1215 l-150 665 563 548 c516 502 1288 1044 1913 1344 598 287 1156 170 1243 -261z m-2387 -164 c-107 -81 -242 -145 -300 -143 -58 1 7 67 144 146 324 185 403 184 156 -3z m-614 -434 c-105 -103 -210 -172 -231 -153 -63 56 203 340 319 340 58 0 18 -84 -88 -187z m-1408 -2184 c38 -236 18 -397 -57 -443 -191 -118 -236 -25 -195 407 49 508 173 526 252 36z m4826 -202 c-33 -33 -56 26 -52 131 5 117 28 141 60 61 29 -72 26 -159 -8 -192z m-461 -730 c-171 -108 -399 -127 -399 -33 0 144 352 320 449 225 65 -64 48 -130 -50 -192z m-2399 -53 c0 -79 -45 -144 -100 -144 -55 0 -100 93 -100 206 0 113 45 178 100 144 55 -34 100 -127 100 -206z m-294 -302 c108 -130 108 -172 -2 -240 -73 -45 -105 -154 -72 -242 39 -102 8 -160 -85 -160 -105 0 -147 115 -147 400 0 425 93 499 306 242z m819 -57 c-50 -50 -175 -60 -276 -21 -177 68 -176 74 8 141 231 84 398 10 268 -120z m675 -290 c0 -55 -110 -71 -249 -36 -178 44 -267 16 -312 -101 -49 -129 -92 -138 -205 -45 -119 99 -98 147 130 296 274 180 636 115 636 -114z m750 105 c-34 -55 -129 -100 -212 -100 -82 0 -122 45 -88 100 34 55 129 100 212 100 82 0 122 -45 88 -100z m-1797 -181 c-31 -30 -112 0 -180 69 -98 98 -86 110 56 56 99 -38 154 -94 124 -125z m2047 -19 c0 -55 -45 -100 -100 -100 -55 0 -100 45 -100 100 0 55 45 100 100 100 55 0 100 -45 100 -100z m538 -280 c87 -142 -86 -314 -228 -226 -75 46 -105 134 -67 195 80 130 224 145 295 31z"/>
<path d="M15065 5174 c-310 -701 -428 -1797 -212 -1977 131 -108 180 -94 307 87 83 119 239 216 346 216 206 0 261 147 94 250 -149 92 -121 408 50 550 184 153 194 300 22 300 -130 0 -488 -518 -462 -669 33 -191 -18 -331 -119 -331 -149 0 -26 856 219 1527 223 610 217 573 89 573 -56 0 -206 -236 -334 -526z"/>
<path d="M13931 4000 c-98 -275 -215 -500 -261 -500 -74 0 -39 193 104 575 26 69 -20 125 -101 125 -93 0 -191 -168 -261 -444 -174 -691 -160 -729 280 -729 l391 0 0 425 c0 234 73 566 161 737 140 269 141 311 13 311 -88 0 -221 -204 -326 -500z"/>
<path d="M18300 23456 c0 -169 394 -471 516 -396 110 68 -229 533 -391 537 -69 2 -125 -62 -125 -141z"/>
<path d="M22067 23333 c-37 -36 -67 -153 -67 -258 0 -259 242 -167 282 108 31 210 -79 287 -215 150z"/>
<path d="M22900 23248 c0 -174 462 -419 575 -306 77 77 -327 458 -486 458 -49 0 -89 -68 -89 -152z"/>
<path d="M832 23038 c-90 -234 93 -680 295 -719 238 -46 351 279 138 398 -91 51 -165 181 -165 288 0 236 -182 258 -268 33z"/>
<path d="M21220 23080 c-163 -163 -151 -280 30 -280 83 0 150 89 150 200 0 233 -19 241 -180 80z"/>
<path d="M19500 22950 c-75 -91 -83 -150 -20 -150 183 0 420 119 420 211 0 143 -264 103 -400 -61z"/>
<path d="M5146 22894 c-92 -149 151 -694 310 -694 175 0 274 170 146 249 -56 35 -102 173 -102 307 0 249 -230 339 -354 138z"/>
<path d="M9069 22936 c-126 -127 -71 -403 114 -571 216 -196 418 -215 413 -40 -5 182 -445 692 -527 611z"/>
<path d="M23869 22796 c-191 -272 -214 -396 -73 -396 126 0 328 379 279 524 -20 62 -113 5 -206 -128z"/>
<path d="M10500 22793 c0 -58 46 -192 102 -297 82 -152 61 -217 -100 -318 -194 -121 -282 -381 -127 -375 41 2 203 116 359 254 204 178 256 284 184 371 -100 121 -118 178 -118 372 0 55 -67 100 -150 100 -82 0 -150 -48 -150 -107z"/>
<path d="M21463 22822 c-26 -44 -58 -392 -71 -775 -23 -729 122 -1046 208 -455 l50 341 142 -266 c197 -370 347 -337 267 58 -37 179 -94 516 -127 750 -45 321 -103 425 -240 425 -99 0 -202 -35 -229 -78z"/>
<path d="M24695 22591 c-129 -241 -70 -341 151 -256 166 63 216 465 58 465 -54 0 -147 -94 -209 -209z"/>
<path d="M8068 22489 c-65 -248 82 -689 230 -689 118 0 128 147 40 588 -73 361 -190 405 -270 101z"/>
<path d="M12387 22583 c-42 -443 -65 -582 -120 -724 -61 -160 175 -235 267 -84 115 189 108 859 -9 899 -69 23 -131 -17 -138 -91z"/>
<path d="M14623 22581 c62 -185 277 -216 277 -39 0 87 -71 158 -158 158 -87 0 -141 -53 -119 -119z"/>
<path d="M20221 21933 c19 -503 72 -781 154 -808 138 -46 175 701 63 1263 -118 585 -247 314 -217 -455z"/>
<path d="M23140 22476 c-74 -222 -60 -886 19 -968 97 -98 167 117 192 588 30 541 -88 753 -211 380z"/>
<path d="M22300 22250 c0 -244 45 -350 150 -350 105 0 150 106 150 350 0 244 -45 350 -150 350 -105 0 -150 -106 -150 -350z"/>
<path d="M20757 22392 c-74 -210 86 -850 197 -792 115 60 71 712 -57 842 -55 55 -110 35 -140 -50z"/>
<path d="M4621 22276 c-127 -154 -383 -1050 -316 -1109 25 -21 162 -67 306 -101 232 -56 280 -17 442 361 101 233 201 457 223 498 22 41 -32 75 -120 75 -88 0 -212 -112 -274 -250 -63 -137 -148 -250 -189 -250 -86 0 -2 400 116 553 44 57 44 161 1 230 -62 101 -100 100 -189 -7z"/>
<path d="M19722 22333 c-186 -75 -515 -767 -546 -1148 -19 -244 18 -336 148 -363 144 -30 164 15 115 259 -37 186 6 434 117 667 150 316 190 345 271 200 91 -162 61 -524 -85 -1023 -39 -135 -22 -225 42 -225 183 0 347 746 273 1240 -69 459 -95 489 -335 393z"/>
<path d="M18865 22224 c-103 -166 -103 -1061 0 -1096 116 -38 235 412 235 885 0 268 -128 384 -235 211z"/>
<path d="M1104 22007 c-144 -269 -130 -407 42 -407 146 0 354 290 354 493 0 181 -287 118 -396 -86z"/>
<path d="M6801 22125 c2 -304 233 -825 365 -825 117 0 139 58 88 225 -39 124 -94 326 -124 450 -48 203 -331 332 -329 150z"/>
<path d="M12844 21742 c-70 -463 63 -788 239 -587 105 119 27 1045 -87 1045 -46 0 -115 -206 -152 -458z"/>
<path d="M6171 21970 c-68 -178 191 -770 337 -770 78 0 96 105 55 313 -35 171 -63 374 -63 450 0 174 -262 180 -329 7z"/>
<path d="M14500 21956 c0 -174 164 -290 296 -209 133 83 13 353 -157 353 -76 0 -139 -65 -139 -144z"/>
<path d="M23761 21878 c-81 -125 -178 -352 -215 -503 -53 -214 -32 -275 93 -275 89 0 161 79 162 175 0 96 64 298 143 448 176 338 20 469 -183 155z"/>
<path d="M9060 21784 c-198 -283 -213 -784 -23 -784 89 0 156 166 191 475 30 261 40 489 23 506 -17 18 -103 -71 -191 -197z"/>
<path d="M24628 21875 c-92 -119 -428 -926 -428 -1027 0 -26 62 -48 138 -48 76 0 205 191 286 425 81 234 181 504 222 600 87 202 -73 238 -218 50z"/>
<path d="M8 21758 c-4 -105 19 -164 52 -131 34 33 37 120 8 192 -32 80 -55 56 -60 -61z"/>
<path d="M22700 21574 c0 -233 428 -774 612 -774 122 0 116 18 -212 574 -280 475 -400 535 -400 200z"/>
<path d="M2401 21551 c-149 -180 -64 -451 142 -451 103 0 143 91 128 300 -23 334 -88 371 -270 151z"/>
<path d="M10653 21405 c-191 -369 -200 -805 -16 -805 82 0 158 150 190 375 29 206 85 454 124 550 120 298 -135 195 -298 -120z"/>
<path d="M1215 21342 c-101 -222 -95 -253 47 -225 90 18 231 134 313 258 138 208 134 225 -47 225 -113 0 -245 -108 -313 -258z"/>
<path d="M17000 21453 c0 -89 59 -124 150 -89 83 31 150 98 150 147 0 49 -67 89 -150 89 -82 0 -150 -66 -150 -147z"/>
<path d="M5300 21308 c0 -298 108 -508 261 -508 150 0 170 123 76 475 -74 274 -337 300 -337 33z"/>
<path d="M346 21293 c-37 -59 -129 -82 -206 -53 -100 38 -140 -29 -140 -235 0 -415 95 -605 304 -605 141 0 179 73 170 325 -6 179 24 404 68 500 87 191 -84 250 -196 68z"/>
<path d="M22200 21294 c-82 -44 -231 -105 -329 -135 -252 -78 -481 -654 -354 -890 54 -102 157 -162 228 -135 193 74 355 -135 355 -456 0 -210 65 -308 250 -378 253 -96 350 -450 143 -519 -75 -25 -72 -175 10 -503 117 -464 116 -468 -247 -842 -367 -378 -440 -726 -171 -815 96 -32 118 14 73 153 -39 125 11 286 136 437 l199 239 5 -350 c6 -423 150 -692 293 -549 67 67 64 242 -7 522 -59 232 -73 502 -32 600 59 138 95 91 162 -208 123 -546 457 -983 721 -946 276 40 355 381 88 381 -136 0 -225 113 -307 387 -154 514 -146 713 29 713 185 0 324 671 172 823 -183 183 -444 -114 -380 -433 54 -271 -140 -462 -342 -337 -145 90 -234 761 -111 837 149 92 -46 810 -219 810 -70 0 -208 184 -307 409 -139 314 -224 397 -369 359 -222 -58 -224 -53 -73 277 138 303 337 329 480 63 152 -284 399 -508 561 -508 209 0 176 132 -114 459 -142 160 -288 364 -325 453 -45 107 -119 135 -218 82z"/>
<path d="M11412 21165 c-162 -195 -267 -1065 -129 -1065 152 0 281 274 364 775 72 433 -21 548 -235 290z"/>
<path d="M9700 20650 c0 -466 147 -620 215 -225 54 315 -11 675 -122 675 -51 0 -93 -202 -93 -450z"/>
<path d="M21087 20825 c-169 -432 -162 -875 13 -875 96 0 156 107 167 300 9 165 48 424 86 575 46 180 31 275 -44 275 -63 0 -162 -124 -222 -275z"/>
<path d="M8252 20904 c-103 -167 143 -904 302 -904 173 0 176 37 42 521 -110 397 -243 545 -344 383z"/>
<path d="M24908 20858 c-4 -105 19 -164 52 -131 34 33 37 120 8 192 -32 80 -55 56 -60 -61z"/>
<path d="M6711 20763 c-92 -111 -38 -149 285 -201 310 -49 434 -131 554 -363 147 -283 550 -429 550 -199 0 55 -37 100 -83 100 -46 0 -144 113 -218 252 -130 244 -604 548 -852 548 -67 0 -174 -62 -236 -137z"/>
<path d="M20300 20658 c0 -168 55 -258 157 -258 104 0 146 73 125 217 -47 320 -282 355 -282 41z"/>
<path d="M655 20443 c-131 -199 -145 -293 -59 -379 86 -86 163 -52 307 136 106 138 179 292 163 344 -61 198 -245 153 -411 -101z"/>
<path d="M4119 20528 c-182 -356 -223 -828 -73 -828 138 0 175 78 295 619 70 316 -90 466 -222 209z"/>
<path d="M12400 20600 c0 -55 45 -100 100 -100 55 0 100 45 100 100 0 55 -45 100 -100 100 -55 0 -100 -45 -100 -100z"/>
<path d="M23950 20500 c-34 -55 -18 -100 36 -100 54 0 93 -247 86 -550 -7 -302 -54 -550 -103 -550 -50 0 -69 -169 -41 -375 28 -211 -19 -575 -107 -835 -148 -434 -145 -492 54 -1050 115 -324 236 -927 269 -1340 l58 -750 -200 300 c-136 204 -183 396 -147 600 50 276 20 314 -366 474 -312 130 -455 146 -554 64 -192 -160 -70 -288 274 -288 176 0 321 -63 356 -154 93 -242 -51 -302 -214 -89 -144 188 -149 188 -211 -32 -78 -279 -240 -296 -240 -25 0 110 -67 200 -148 200 -82 0 -176 113 -211 250 -34 138 -131 250 -214 250 -101 0 -133 -65 -98 -200 56 -215 -164 -285 -284 -91 -37 60 -155 85 -263 57 -188 -49 -189 -41 -23 212 115 175 134 274 59 299 -72 24 1 264 199 656 294 583 467 1467 286 1467 -46 0 -130 -135 -188 -299 -186 -535 -559 -157 -491 499 14 138 -19 250 -74 250 -58 0 -105 -366 -112 -875 -7 -481 21 -875 63 -875 41 0 131 135 199 300 68 165 161 300 206 300 208 0 177 -239 -103 -794 -298 -591 -519 -1184 -644 -1731 -57 -251 -259 -396 -259 -187 0 49 -90 112 -200 141 -234 61 -267 351 -50 435 159 61 215 636 61 636 -49 0 -190 -214 -313 -475 -185 -393 -208 -538 -128 -838 91 -343 83 -363 -137 -350 -173 10 -233 73 -233 246 0 276 -219 246 -297 -40 -92 -335 -345 -643 -527 -643 -133 0 -176 -82 -176 -331 0 -182 -66 -418 -147 -525 -179 -237 -202 -677 -33 -621 67 23 181 285 254 584 215 875 205 864 480 567 272 -293 333 -471 94 -272 -195 162 -291 63 -310 -320 -9 -167 -71 -408 -140 -535 -166 -311 -53 -709 222 -781 121 -32 191 -88 154 -125 -37 -37 -222 6 -411 96 -189 90 -438 163 -553 163 -120 0 -210 64 -210 150 0 197 -81 190 -576 -50 -228 -110 -462 -200 -519 -200 -58 0 -105 -133 -105 -295 0 -295 1 -296 492 -237 713 84 955 0 971 -339 18 -370 228 -1160 326 -1227 119 -79 301 -896 212 -951 -147 -91 -588 354 -620 626 -34 296 -211 360 -263 95 -48 -253 273 -846 489 -903 194 -51 253 -321 116 -533 -40 -63 -272 -131 -516 -150 -429 -35 -446 -25 -531 300 -48 185 -68 355 -45 378 23 23 180 -37 349 -134 485 -278 465 -102 -45 409 -298 297 -503 433 -564 372 -52 -52 -76 -391 -53 -753 23 -362 11 -658 -26 -658 -79 0 -292 793 -292 1084 0 107 -67 221 -150 252 -82 32 -150 149 -150 261 0 112 -51 203 -114 203 -127 0 -71 -978 145 -2550 92 -671 161 -900 271 -900 149 0 162 149 60 664 -79 395 273 264 394 -146 91 -309 321 -368 267 -68 -14 83 -51 285 -81 450 -48 259 -12 324 260 475 173 96 396 175 496 175 168 0 172 -33 53 -425 -216 -710 -348 -915 -748 -1164 -473 -295 -553 -610 -363 -1447 76 -338 174 -974 216 -1414 113 -1164 134 -1260 226 -1028 61 153 134 -1032 145 -2339 l3 -468 633 10 c515 8 612 34 522 143 -88 106 65 215 744 534 470 220 873 453 894 517 23 68 114 88 217 49 146 -56 166 -139 111 -464 -79 -469 6 -804 206 -804 170 0 166 -28 50 376 -52 180 -57 451 -11 611 95 329 36 461 -246 548 -225 70 -445 595 -520 1240 -53 445 -111 504 -310 305 -93 -93 -147 -93 -240 0 -214 214 -608 132 -949 -198 -180 -175 -359 -288 -396 -250 -98 98 482 662 684 665 93 2 202 56 242 120 48 79 17 96 -95 53 -206 -79 -207 -39 -6 350 125 241 180 278 252 170 76 -116 115 -109 230 40 76 99 154 139 173 89 19 -51 136 -124 260 -162 181 -57 244 -21 322 185 53 140 188 444 299 674 112 230 180 442 152 470 -89 88 -288 -177 -457 -609 -205 -525 -403 -620 -332 -159 157 1009 166 1232 42 1116 -67 -63 -161 -266 -209 -450 -79 -304 -83 -307 -47 -34 21 165 91 480 156 700 64 220 157 760 206 1200 117 1062 169 1250 345 1250 114 0 152 153 164 675 9 393 34 529 58 325 78 -642 425 -780 428 -169 0 175 45 387 98 469 76 118 97 95 98 -110 3 -407 204 -884 421 -1000 276 -148 349 -31 132 209 -261 288 -107 248 190 -49 249 -249 433 -849 318 -1035 -96 -155 120 -615 289 -615 171 0 204 156 52 250 -55 34 -100 263 -100 510 0 558 -328 1240 -596 1240 -219 0 -355 157 -213 245 53 32 123 13 158 -43 93 -151 251 -123 251 44 0 81 90 195 200 254 149 80 202 214 208 529 4 231 30 365 58 296 107 -264 209 -106 218 337 5 255 83 576 174 714 l165 252 246 -315 c136 -173 282 -293 326 -266 119 74 -5 592 -165 686 -78 46 -184 196 -237 334 -52 138 -229 302 -394 364 -164 62 -299 172 -299 244 0 72 -67 157 -150 189 -173 66 -217 1083 -51 1185 62 39 76 -101 38 -383 l-61 -444 651 -512 c427 -335 704 -641 804 -886 83 -206 241 -468 350 -584 109 -115 224 -295 254 -400 31 -104 43 69 27 386 -21 416 -86 638 -237 800 -128 138 -228 415 -261 724 -62 575 -245 1150 -367 1150 -45 0 -155 72 -242 160 -175 175 -496 113 -431 -82 22 -67 145 -147 273 -177 127 -30 268 -154 313 -275 126 -340 -111 -398 -358 -88 -154 193 -268 250 -399 199 -159 -61 -174 -33 -114 206 44 172 22 334 -58 430 -111 134 -87 144 196 82 340 -75 467 86 148 187 -270 86 -450 432 -331 636 92 159 100 158 103 -14 3 -195 768 -953 968 -960 151 -5 361 -556 392 -1028 27 -401 243 -976 367 -976 113 0 92 478 -24 550 -55 34 -100 129 -100 212 0 82 44 123 98 89 60 -37 90 119 78 397 -14 325 -57 442 -148 407 -150 -57 -175 204 -28 295 55 34 100 130 100 213 0 105 -60 131 -200 87 -110 -35 -200 -19 -200 35 0 54 -27 170 -61 257 -47 123 8 158 250 158 362 0 372 40 132 533 -128 262 -211 337 -287 261 -76 -76 -126 43 -175 411 -38 285 -47 540 -21 567 106 105 262 -100 363 -476 59 -218 150 -396 203 -396 132 0 121 437 -20 746 -91 198 -88 309 9 492 70 130 107 320 82 424 -39 165 -57 158 -145 -58 l-100 -247 -119 223 c-95 177 -157 202 -304 124 -149 -80 -196 -58 -239 108 -30 114 -29 273 2 353 45 118 91 107 247 -60 217 -233 389 -259 563 -85 170 170 149 285 -40 212 -147 -56 -147 -35 0 248 191 370 201 620 41 972 -82 179 -176 246 -300 214 -212 -55 -211 -58 -80 286 81 214 61 321 -107 557 -218 305 -341 358 -444 191z m422 -1475 c8 -96 47 -305 86 -463 54 -222 38 -277 -68 -242 -149 50 -257 880 -115 880 45 0 89 -79 97 -175z m128 -2081 c0 -79 -45 -144 -100 -144 -55 0 -100 93 -100 206 0 113 45 178 100 144 55 -34 100 -127 100 -206z m-2809 -983 c128 -154 111 -373 -36 -479 -157 -113 -255 12 -255 324 0 318 108 376 291 155z m1074 -874 c14 -400 10 -408 -50 -96 -57 302 -80 323 -199 179 -150 -182 -76 -1095 94 -1155 59 -20 48 -95 -26 -185 -69 -82 -115 -276 -104 -429 12 -154 -21 -386 -73 -515 -91 -227 -95 -225 -101 65 -3 165 -49 449 -100 630 -88 305 -80 324 111 263 147 -46 194 -26 162 68 -24 73 -153 163 -286 200 -159 45 -183 72 -68 78 96 6 175 82 175 171 0 101 -55 139 -150 103 -82 -32 -150 -14 -150 39 0 53 45 97 100 97 55 0 100 45 100 100 0 55 -67 100 -150 100 -209 0 -188 87 75 306 192 160 200 188 50 191 -96 2 -175 68 -175 148 0 107 99 137 375 112 368 -32 375 -41 390 -470z m-2165 313 c0 -55 -45 -100 -100 -100 -55 0 -100 45 -100 100 0 55 45 100 100 100 55 0 100 -45 100 -100z m3082 -150 c62 -137 79 -250 36 -250 -123 0 -318 227 -318 370 0 215 160 147 282 -120z m-1932 -150 c-34 -55 -82 -100 -106 -100 -24 0 -44 45 -44 100 0 55 48 100 106 100 58 0 78 -45 44 -100z m-684 -162 c-156 -84 -309 -129 -339 -98 -31 31 52 99 183 152 375 149 470 116 156 -54z m500 -398 c136 -208 146 -297 52 -448 -158 -253 -149 -325 32 -256 83 32 150 17 150 -32 0 -50 -90 -119 -200 -154 -290 -92 -250 -284 44 -210 290 72 458 -125 220 -258 -216 -121 -210 -281 11 -285 167 -3 167 -10 0 -136 -216 -164 -224 -261 -20 -261 108 0 42 -135 -215 -443 -367 -438 -372 -441 -627 -275 -247 162 -249 169 -43 199 316 46 385 319 80 319 -186 0 -229 39 -180 166 54 141 10 157 -301 106 -407 -66 -593 67 -243 173 200 61 181 82 -176 201 -358 119 -371 134 -125 144 151 5 275 46 275 91 0 44 -124 131 -275 194 -257 106 -249 110 125 63 l400 -51 -239 209 c-132 115 -208 240 -170 279 39 38 107 8 153 -66 46 -74 136 -102 200 -63 86 53 74 138 -45 319 -151 231 -150 245 20 216 130 -22 175 25 159 169 -12 110 3 144 33 75 31 -69 142 -125 247 -125 253 0 247 -162 -8 -229 -110 -29 -200 -106 -200 -172 0 -155 468 -45 669 156 127 127 126 164 -5 295 -82 82 -209 151 -282 152 -97 1 -93 26 18 98 223 144 279 125 466 -160z m-1924 -4 c92 -240 20 -258 -122 -31 -67 107 -81 195 -32 195 50 0 119 -74 154 -164z m4658 64 c0 -55 -45 -100 -100 -100 -55 0 -100 45 -100 100 0 55 45 100 100 100 55 0 100 -45 100 -100z m-5000 -1600 c0 -55 -48 -100 -106 -100 -58 0 -78 45 -44 100 34 55 82 100 106 100 24 0 44 -45 44 -100z m547 -404 c-35 -58 -8 -172 60 -255 92 -110 95 -179 12 -262 -82 -82 -139 -40 -215 161 -141 371 -131 460 52 460 86 0 127 -47 91 -104z m-1847 -302 c0 -52 -146 -92 -325 -90 l-325 3 249 138 c252 139 401 120 401 -51z m2653 -89 c-50 -80 -453 -217 -453 -153 0 19 71 105 158 192 154 154 395 122 295 -39z m-1653 -253 c0 -18 -156 15 -346 73 -191 58 -325 141 -299 183 41 67 645 -172 645 -256z m3736 198 c-31 -82 -155 -150 -274 -150 -119 0 -384 -138 -589 -307 -453 -374 -488 -231 -63 254 240 273 387 353 647 353 258 0 323 -35 279 -150z m564 -50 c-194 -125 -300 -125 -300 0 0 55 101 99 225 98 182 -1 196 -20 75 -98z m-3306 -455 c79 -77 147 -288 150 -468 4 -239 52 -327 177 -328 357 -3 384 -170 226 -1404 -287 -2239 -445 -3194 -639 -3845 -250 -844 -258 -627 -17 476 265 1207 466 3624 303 3624 -52 0 -94 278 -94 618 0 614 -4 623 -514 1114 l-514 495 389 -71 c214 -39 454 -134 533 -211z m3106 150 c0 -58 -69 -238 -153 -400 -91 -177 -155 -575 -159 -996 -5 -576 -39 -719 -191 -801 -129 -69 -207 -63 -259 21 -40 65 -21 137 44 158 77 26 97 168 58 414 -60 372 123 1092 382 1508 136 217 278 266 278 96z m-646 -270 c-83 -338 -354 -657 -354 -416 0 83 53 204 118 269 65 65 85 152 43 194 -41 41 -161 -37 -266 -173 -129 -169 -191 -200 -193 -97 -2 142 443 489 634 495 47 2 55 -121 18 -272z m-3314 -111 c-5 -63 -17 -271 -25 -464 -18 -411 -214 -478 -218 -75 -2 151 -68 360 -147 465 -79 104 -121 226 -94 270 71 114 496 -59 484 -196z m2044 -401 c133 -294 213 -666 209 -970 -7 -530 -26 -508 -344 388 -93 264 -262 567 -375 671 -165 155 -181 219 -82 339 185 222 354 100 592 -428z m-1784 -1113 c0 -55 -45 -100 -100 -100 -55 0 -100 45 -100 100 0 55 45 100 100 100 55 0 100 -45 100 -100z m-96 -1439 c-160 -421 -132 -501 254 -709 322 -173 352 -224 296 -497 -35 -168 -125 -654 -201 -1081 -178 -1004 -429 -1653 -669 -1729 -104 -33 -300 -179 -434 -323 -133 -144 -275 -231 -314 -192 -38 39 35 183 164 320 129 137 200 283 159 325 -42 41 -185 -51 -318 -206 -132 -154 -241 -224 -241 -156 0 68 98 228 217 355 264 281 165 437 -116 183 -270 -245 -271 4 -1 349 219 280 249 400 99 400 -56 0 -187 -139 -290 -309 l-188 -310 -68 398 c-74 438 75 1137 278 1305 101 84 156 9 250 -341 66 -247 189 -476 274 -509 249 -95 297 52 115 360 -221 373 -222 368 141 495 296 103 308 97 245 -115 -184 -618 -174 -922 31 -1047 237 -143 270 -106 365 399 50 267 35 374 -53 374 -120 0 -104 148 57 542 63 153 45 180 -85 130 -230 -88 -292 62 -121 288 187 247 186 340 -5 340 -85 0 -221 -157 -301 -350 -81 -192 -214 -350 -295 -350 -189 0 -188 116 9 578 87 205 248 659 358 1010 176 560 218 621 346 493 113 -114 123 -208 42 -420z m47 -4360 c-166 -239 -323 -367 -410 -334 -202 78 -184 120 234 535 451 449 549 337 176 -201z m-945 -1215 l-205 -336 -1 292 c0 332 328 789 380 530 17 -82 -62 -301 -174 -486z m352 -690 c-340 -313 -458 -496 -458 -709 0 -158 -45 -287 -100 -287 -55 0 -97 146 -93 325 6 262 105 408 511 756 638 546 750 478 140 -85z m1245 357 c-158 -190 -1003 -663 -1003 -561 0 108 295 354 650 541 380 201 509 208 353 20z m-1654 -254 c-199 -219 -308 -196 -214 47 32 85 135 154 227 154 154 0 153 -18 -13 -201z m1151 -449 c-68 -82 -198 -149 -287 -147 -137 3 -132 27 31 150 253 191 416 189 256 -3z m-628 -158 c-17 -226 -372 -492 -372 -278 0 105 282 486 359 486 16 0 22 -94 13 -208z m1328 108 c0 -55 -41 -100 -92 -100 -50 0 -174 -26 -275 -58 -167 -53 -167 -45 11 100 222 181 356 203 356 58z m-150 -560 c-344 -260 -1369 -840 -1484 -840 -201 0 302 416 847 701 595 310 973 393 637 139z m-1670 -635 c-68 -108 -136 -182 -154 -165 -59 60 96 360 186 360 49 0 35 -88 -32 -195z"/>
<path d="M20825 13634 c-174 -70 -157 -234 25 -234 83 0 150 68 150 150 0 82 -11 146 -25 142 -14 -4 -81 -30 -150 -58z"/>
<path d="M20637 13079 c-69 -111 157 -293 307 -246 51 16 109 77 129 136 47 140 -355 242 -436 110z"/>
<path d="M3458 20414 c-81 -132 111 -614 245 -614 141 0 71 625 -75 674 -60 20 -137 -7 -170 -60z"/>
<path d="M13300 20350 c0 -82 45 -150 100 -150 55 0 100 68 100 150 0 83 -45 150 -100 150 -55 0 -100 -67 -100 -150z"/>
<path d="M24930 20000 c0 -302 19 -426 42 -275 23 151 23 399 0 550 -23 151 -42 28 -42 -275z"/>
<path d="M23303 20075 c-50 -124 -93 -169 -97 -100 -3 69 -73 125 -156 125 -167 0 -206 -353 -50 -450 55 -34 100 -149 100 -256 0 -107 68 -201 150 -209 83 -8 203 -19 267 -25 137 -12 189 358 114 815 -62 378 -199 420 -328 100z"/>
<path d="M5830 19875 c-426 -447 -838 -1080 -773 -1187 108 -174 343 -85 343 129 0 120 228 480 507 800 528 608 463 825 -77 258z"/>
<path d="M2329 19986 c-66 -80 -98 -234 -70 -341 28 -107 -19 -392 -104 -633 -179 -505 -190 -612 -63 -612 165 0 422 854 390 1298 -26 357 -54 409 -153 288z"/>
<path d="M12168 19935 c-97 -97 -82 -659 22 -823 162 -256 332 -12 261 374 -72 394 -175 557 -283 449z"/>
<path d="M12765 19924 c-123 -199 -174 -806 -73 -869 121 -75 163 18 255 570 56 337 -50 512 -182 299z"/>
<path d="M18720 19887 c-280 -81 -320 -129 -263 -316 89 -290 139 -337 223 -213 39 56 289 184 556 285 419 157 543 165 899 58 227 -68 502 -186 611 -262 252 -177 354 -176 354 2 0 78 -194 235 -432 350 -467 226 -1346 269 -1948 96z"/>
<path d="M8600 19742 c0 -87 53 -141 119 -119 185 62 216 277 39 277 -87 0 -158 -71 -158 -158z"/>
<path d="M5862 19200 c-380 -421 -465 -700 -212 -700 83 0 150 66 150 147 0 80 135 300 300 488 165 188 300 369 300 403 0 158 -208 28 -538 -338z"/>
<path d="M593 19425 c-42 -469 -115 -781 -208 -893 -137 -166 -50 -278 155 -200 177 68 388 778 300 1007 -62 163 -234 223 -247 86z"/>
<path d="M1300 19225 c-53 -151 -164 -402 -248 -558 -173 -322 -197 -627 -57 -714 52 -32 145 35 206 150 132 245 396 1092 398 1272 2 231 -203 128 -299 -150z"/>
<path d="M7285 19360 c-249 -130 -995 -878 -1068 -1072 -19 -48 49 -85 150 -82 101 3 341 203 533 443 193 240 477 484 633 541 155 58 253 151 219 207 -83 135 -149 129 -467 -37z"/>
<path d="M10136 19349 c-35 -92 10 -322 100 -511 189 -397 213 -849 55 -1007 -61 -61 -94 -193 -74 -295 28 -146 89 -100 282 212 269 435 352 1052 141 1052 -70 0 -141 143 -159 317 -34 352 -245 493 -345 232z"/>
<path d="M19050 19323 c-55 -40 -163 -185 -240 -323 -77 -137 -204 -347 -281 -466 -77 -118 -100 -240 -52 -270 74 -45 823 943 823 1087 0 72 -135 57 -250 -28z"/>
<path d="M8533 19075 c-540 -602 -694 -1039 -324 -922 185 59 196 43 97 -141 -61 -114 -200 -255 -308 -313 -228 -122 -263 -299 -60 -299 76 0 311 214 523 475 212 261 488 587 612 724 273 299 281 388 52 562 -247 187 -362 171 -592 -86z m123 -531 c-95 -144 -197 -236 -228 -206 -30 31 22 174 116 318 95 144 197 236 228 206 30 -31 -22 -174 -116 -318z"/>
<path d="M11120 19180 c-142 -142 -155 -569 -24 -777 129 -203 174 -128 256 422 71 476 -1 586 -232 355z"/>
<path d="M2696 18742 c-232 -541 -232 -542 -71 -542 69 1 204 192 300 426 203 494 213 574 71 574 -57 0 -192 -206 -300 -458z"/>
<path d="M19269 18774 c-294 -503 -363 -788 -203 -844 65 -23 147 104 187 290 40 181 156 449 259 595 209 296 232 385 98 385 -50 0 -203 -192 -341 -426z"/>
<path d="M20267 19133 c-118 -117 -72 -405 85 -535 201 -167 234 -114 175 277 -48 317 -125 393 -260 258z"/>
<path d="M4262 18925 c-153 -520 -50 -1625 151 -1625 50 0 140 124 200 275 60 151 152 358 205 460 123 237 31 330 -166 167 -133 -111 -152 -62 -152 386 0 498 -134 689 -238 337z"/>
<path d="M7220 18480 c-154 -154 -156 -409 -4 -358 64 21 182 138 263 258 125 189 125 220 3 220 -78 0 -196 -54 -262 -120z"/>
<path d="M9207 18337 c-313 -399 -308 -719 17 -1093 301 -346 476 -312 476 94 0 185 30 489 67 675 61 306 51 324 -100 200 -92 -76 -167 -219 -167 -319 0 -100 -45 -210 -100 -244 -150 -93 -119 261 51 586 175 336 179 364 56 364 -51 0 -186 -119 -300 -263z"/>
<path d="M11512 18095 c-126 -171 -208 -401 -186 -525 38 -214 41 -214 124 -20 47 110 195 346 330 525 176 235 204 325 101 325 -79 0 -245 -137 -369 -305z"/>
<path d="M2701 17875 c1 -392 206 -984 362 -1044 115 -44 135 -149 85 -444 -51 -303 -34 -387 81 -387 183 0 272 426 268 1288 -3 599 -17 644 -148 471 -84 -110 -120 -290 -86 -425 33 -132 14 -234 -44 -234 -57 0 -133 146 -169 325 -109 542 -159 675 -257 675 -51 0 -93 -101 -92 -225z"/>
<path d="M14870 17629 c-58 -296 87 -567 172 -321 105 306 103 523 -5 561 -61 22 -137 -86 -167 -240z"/>
<path d="M20916 17645 c-64 -140 -116 -320 -116 -400 0 -235 173 -166 239 96 33 132 88 312 121 400 102 265 -119 178 -244 -96z"/>
<path d="M5605 17425 c-126 -455 -132 -625 -21 -625 121 0 316 467 316 755 0 371 -177 293 -295 -130z"/>
<path d="M19976 17623 c-329 -379 -396 -616 -258 -928 246 -556 384 -360 516 734 42 345 -59 421 -258 194z"/>
<path d="M6106 17039 c-569 -710 -606 -1042 -43 -389 558 647 746 932 654 990 -48 29 -323 -241 -611 -601z"/>
<path d="M1502 17525 c5 -240 481 -879 676 -907 240 -35 307 128 88 212 -74 28 -211 213 -305 411 -147 309 -464 506 -459 284z"/>
<path d="M7264 16975 c-216 -757 -229 -899 -89 -948 69 -24 125 7 125 69 0 142 455 604 595 604 58 0 105 -116 105 -258 0 -356 228 -258 308 132 55 267 32 314 -171 353 -128 24 -331 -24 -450 -107 -208 -146 -214 -142 -152 105 35 141 92 328 125 416 40 103 7 159 -92 159 -100 0 -206 -185 -304 -525z"/>
<path d="M13972 17304 c-72 -276 27 -621 166 -575 61 21 112 188 112 371 0 374 -196 518 -278 204z"/>
<path d="M19136 17350 c-77 -200 37 -479 163 -400 133 81 131 550 -2 550 -57 0 -129 -67 -161 -150z"/>
<path d="M118 17278 c-65 -65 -111 -345 -102 -623 12 -385 25 -422 53 -155 20 193 88 451 151 575 131 259 72 377 -102 203z"/>
<path d="M13374 17334 c-94 -162 77 -968 215 -1014 111 -37 129 51 87 426 -52 459 -204 756 -302 588z"/>
<path d="M954 17207 c-84 -136 125 -1182 253 -1261 225 -139 268 89 120 630 -174 635 -270 797 -373 631z"/>
<path d="M10358 16917 c-186 -411 -133 -1159 76 -1089 106 35 181 309 298 1097 75 505 -145 501 -374 -8z"/>
<path d="M17185 17056 c-119 -259 -59 -556 112 -556 57 0 103 180 103 400 0 460 -58 502 -215 156z"/>
<path d="M8500 17104 c0 -125 355 -316 436 -235 87 88 -132 331 -298 331 -76 0 -138 -43 -138 -96z"/>
<path d="M4356 16875 c-90 -295 -241 -738 -306 -900 -39 -96 -33 -175 14 -174 128 1 536 758 536 994 0 223 -183 283 -244 80z"/>
<path d="M6760 16684 c-187 -267 -84 -489 105 -230 129 176 184 446 91 446 -25 0 -113 -97 -196 -216z"/>
<path d="M4575 16173 c-287 -549 -340 -773 -181 -773 120 0 712 1160 633 1240 -118 118 -180 53 -452 -467z"/>
<path d="M5895 16207 c-223 -234 -388 -478 -367 -542 62 -184 207 -134 330 114 63 126 218 339 345 474 127 136 201 276 164 313 -37 37 -249 -125 -472 -359z"/>
<path d="M12476 16543 c-88 -88 73 -576 204 -620 166 -55 154 424 -14 564 -74 61 -159 86 -190 56z"/>
<path d="M8720 16380 c-162 -162 -151 -499 23 -736 213 -287 356 -73 288 431 -60 447 -115 501 -311 305z"/>
<path d="M9246 16294 c-98 -160 40 -594 189 -594 217 0 254 102 147 409 -105 302 -223 367 -336 185z"/>
<path d="M261 16142 c-111 -288 55 -1542 203 -1542 151 0 178 464 72 1236 -65 474 -167 588 -275 306z"/>
<path d="M2200 16200 c0 -55 68 -100 150 -100 83 0 150 45 150 100 0 55 -67 100 -150 100 -82 0 -150 -45 -150 -100z"/>
<path d="M10761 16142 c-120 -313 -67 -842 84 -842 160 0 315 600 219 849 -75 197 -227 193 -303 -7z"/>
<path d="M14751 16004 c-64 -290 72 -716 172 -542 28 48 81 257 118 463 53 294 36 375 -79 375 -81 0 -175 -132 -211 -296z"/>
<path d="M18206 15908 c-114 -160 -235 -430 -269 -600 -53 -263 -32 -308 140 -308 234 0 355 228 203 380 -73 73 -40 195 108 403 233 328 259 417 119 417 -51 0 -187 -131 -301 -292z"/>
<path d="M18940 15819 c-341 -437 -454 -698 -336 -772 126 -77 396 128 396 302 0 68 90 238 200 378 232 295 248 375 75 367 -69 -3 -219 -126 -335 -275z"/>
<path d="M6250 15701 c-101 -320 59 -464 211 -190 171 310 171 389 -4 389 -79 0 -172 -90 -207 -199z"/>
<path d="M12004 15733 c4 -253 254 -682 327 -563 86 139 -70 660 -211 707 -66 22 -118 -43 -116 -144z"/>
<path d="M17343 15768 c-89 -232 83 -893 247 -948 109 -36 122 53 65 442 -80 545 -214 762 -312 506z"/>
<path d="M13360 15357 c-294 -501 -322 -657 -119 -657 91 0 122 -70 88 -200 -36 -139 -3 -200 109 -200 89 0 162 80 162 177 0 97 117 348 259 558 316 464 257 581 -99 198 -282 -305 -368 -134 -107 211 167 221 189 356 57 356 -50 0 -208 -199 -350 -443z"/>
<path d="M2604 15507 c-144 -268 -137 -1235 8 -1186 101 33 231 1379 134 1379 -22 0 -86 -87 -142 -193z"/>
<path d="M11239 15525 c-31 -96 -97 -278 -147 -405 -119 -296 -118 -620 1 -620 76 0 407 928 407 1140 0 139 -211 46 -261 -115z"/>
<path d="M1652 15025 c93 -680 150 -841 281 -796 134 45 100 819 -47 1096 -181 340 -300 188 -234 -300z"/>
<path d="M7744 15295 c-132 -206 -344 -611 -344 -656 0 -22 57 -39 126 -39 145 0 410 543 351 720 -29 86 -67 79 -133 -25z"/>
<path d="M6436 15149 c-91 -236 59 -867 195 -822 65 22 108 70 94 106 -14 37 -25 247 -25 467 0 396 -153 540 -264 249z"/>
<path d="M4723 14982 c54 -162 353 -340 435 -258 36 37 40 137 7 222 -68 178 -502 214 -442 36z"/>
<path d="M5778 15045 c-79 -80 403 -1045 522 -1045 152 0 121 194 -109 668 -200 414 -292 498 -413 377z"/>
<path d="M8120 14789 c-175 -171 -291 -355 -258 -409 61 -98 738 489 738 640 0 156 -166 76 -480 -231z"/>
<path d="M14856 14975 c-20 -69 -62 -204 -93 -300 -37 -113 -5 -175 90 -175 97 0 147 103 147 300 0 306 -77 400 -144 175z"/>
<path d="M3262 14657 c-144 -189 -262 -392 -262 -450 0 -198 304 -109 401 118 54 124 170 326 260 450 284 391 -97 278 -399 -118z"/>
<path d="M10398 14743 c-122 -319 -124 -443 -8 -443 50 0 140 142 200 315 134 385 134 385 8 385 -57 0 -147 -115 -200 -257z"/>
<path d="M9067 14733 c-127 -126 -67 -539 87 -598 209 -81 230 -38 173 340 -48 317 -125 393 -260 258z"/>
<path d="M18198 14548 c-193 -233 -75 -258 203 -43 186 142 208 191 86 193 -89 1 -219 -67 -289 -150z"/>
<path d="M14156 14510 c-32 -51 -87 -306 -122 -565 -52 -380 -38 -463 76 -425 82 27 163 242 195 519 52 447 -21 678 -149 471z"/>
<path d="M4074 14391 c-225 -131 -674 -578 -674 -671 0 -40 -92 -129 -204 -199 -112 -70 -180 -166 -151 -213 29 -47 -15 -141 -97 -210 -133 -110 -131 -138 15 -245 143 -105 145 -129 15 -178 -115 -44 -144 -207 -126 -705 l23 -648 -503 -66 c-644 -86 -951 -248 -1394 -738 -377 -418 -569 -967 -397 -1139 69 -69 182 23 349 285 314 492 653 795 970 867 138 31 468 109 735 173 353 85 515 86 595 6 60 -60 247 -112 415 -114 251 -3 356 -83 593 -457 479 -756 729 -1678 960 -3538 119 -962 252 -1938 295 -2168 61 -323 43 -454 -77 -575 -142 -141 -134 -176 80 -376 253 -235 117 -400 -148 -180 -81 67 -223 88 -322 48 -97 -40 -354 -85 -572 -99 l-396 -27 232 188 c128 103 340 188 471 188 131 0 239 45 239 100 0 189 -554 100 -917 -147 -316 -215 -783 -805 -783 -990 0 -135 270 -52 633 195 209 142 447 233 528 202 81 -31 235 -2 343 66 156 97 233 97 371 -2 96 -69 333 -204 525 -300 193 -96 365 -208 383 -249 19 -41 103 -75 187 -75 126 0 140 84 82 475 -86 572 -130 655 -312 585 -157 -60 -165 -42 -82 176 32 83 119 128 193 100 74 -28 207 60 296 196 105 159 227 230 344 199 127 -33 200 23 244 186 113 423 82 458 -404 445 l-468 -13 -7 -399 c-8 -551 -277 -550 -372 0 -113 656 -205 1465 -233 2050 -15 303 -58 797 -97 1100 -46 363 -37 503 27 412 180 -256 290 -21 241 510 -103 1101 -433 1332 -362 253 l41 -625 -196 650 c-108 358 -244 728 -301 824 -148 246 -130 385 71 537 249 189 283 173 279 -133 -3 -173 55 -284 158 -305 127 -26 172 76 211 481 72 747 296 934 1124 934 397 0 651 41 648 106 -3 58 -185 250 -406 426 -334 269 -440 306 -648 227 -187 -72 -259 -60 -291 46 -24 77 -64 208 -90 291 -27 83 21 208 105 278 134 111 124 138 -81 213 l-233 87 249 192 c138 105 205 198 150 205 -55 8 -167 20 -250 28 -84 7 -137 90 -121 188 17 96 -28 178 -100 181 -71 3 -298 228 -506 500 -391 514 -695 621 -1099 385z m573 -600 c-59 -186 -43 -196 144 -96 180 97 209 84 209 -91 0 -121 66 -204 161 -204 95 0 139 -56 108 -138 -30 -76 -13 -178 37 -228 118 -118 386 -1539 322 -1705 -27 -71 -174 -129 -326 -129 -153 0 -334 -67 -402 -150 -130 -157 -500 -209 -500 -70 0 44 54 134 120 200 134 134 83 149 -419 120 -349 -19 -349 -19 -160 190 105 116 236 210 293 210 57 0 204 95 327 210 250 236 533 174 330 -71 -165 -198 -52 -279 200 -144 255 137 259 218 28 597 l-180 297 -278 -295 c-262 -278 -549 -373 -692 -230 -35 35 149 200 409 365 513 328 423 510 -112 224 -290 -155 -341 -156 -616 -12 -299 157 -299 158 -45 158 240 1 495 159 495 307 0 37 -108 46 -241 20 -133 -25 -324 2 -425 61 -129 75 -141 108 -40 110 79 2 253 104 387 228 l244 225 -69 -225 c-83 -268 118 -315 212 -50 150 422 609 726 479 316z m-897 -2091 c-34 -55 -82 -100 -106 -100 -24 0 -44 45 -44 100 0 55 48 100 106 100 58 0 78 -45 44 -100z m2893 -250 c4 -55 -125 -115 -287 -134 -262 -29 -280 -15 -159 130 142 171 434 174 446 4z m-3043 -350 c0 -55 79 -101 175 -102 135 -1 144 -21 41 -86 -138 -88 -614 77 -615 213 -1 41 89 75 199 75 110 0 200 -45 200 -100z m-1250 -200 c-110 -47 -267 -86 -350 -86 -95 0 -76 32 50 86 110 47 268 86 350 86 95 0 76 -32 -50 -86z m3247 25 c-6 -134 -293 -462 -353 -402 -69 68 171 477 280 477 42 0 75 -34 73 -75z m-797 -469 c0 -239 -162 -263 -352 -54 -174 192 -172 198 87 198 164 0 265 -55 265 -144z m2000 -6056 c0 -55 -48 -100 -106 -100 -58 0 -78 45 -44 100 34 55 82 100 106 100 24 0 44 -45 44 -100z"/>
<path d="M4500 13257 c0 -92 85 -157 208 -157 244 0 210 234 -41 282 -99 19 -167 -32 -167 -125z"/>
<path d="M9657 14333 c-82 -213 101 -415 246 -270 109 109 31 437 -103 437 -43 0 -107 -75 -143 -167z"/>
<path d="M11850 13999 c-100 -221 -154 -428 -121 -461 71 -71 470 554 471 737 0 252 -174 114 -350 -276z"/>
<path d="M18272 14125 c-210 -233 -393 -727 -329 -892 96 -251 357 -147 358 142 0 151 67 404 150 561 82 158 149 304 149 325 0 99 -184 22 -328 -136z"/>
<path d="M762 13547 c-306 -646 -307 -647 -113 -647 141 0 389 466 515 969 108 431 -139 233 -402 -322z"/>
<path d="M12466 13918 c-186 -206 -219 -418 -64 -418 103 0 336 495 267 564 -20 21 -112 -45 -203 -146z"/>
<path d="M16288 12600 c-7 -770 -19 -1479 -25 -1575 -7 -96 46 -175 119 -175 103 0 138 350 157 1575 20 1253 -1 1575 -107 1575 -103 0 -135 -312 -144 -1400z"/>
<path d="M17457 13800 c-31 -109 -82 -289 -114 -400 -39 -139 -9 -200 100 -200 86 0 162 34 168 75 72 485 71 725 -5 725 -51 0 -118 -90 -149 -200z"/>
<path d="M0 13556 c0 -307 57 -331 129 -56 29 110 11 225 -38 256 -50 31 -91 -59 -91 -200z"/>
<path d="M13500 13611 c0 -187 228 -350 337 -241 77 77 -121 430 -241 430 -53 0 -96 -85 -96 -189z"/>
<path d="M1259 13313 c-143 -225 -259 -477 -259 -561 0 -250 197 -172 309 123 58 151 177 355 266 452 116 128 130 208 51 287 -79 79 -181 -5 -367 -301z"/>
<path d="M6869 13128 c-32 -314 -38 -592 -12 -618 108 -108 235 175 300 665 56 429 42 525 -80 525 -108 0 -165 -158 -208 -572z"/>
<path d="M7580 13450 c-83 -165 -183 -435 -221 -600 -38 -165 -92 -379 -120 -475 -34 -112 2 -175 98 -175 82 0 170 79 196 175 243 926 283 1127 244 1242 -27 81 -104 16 -197 -167z"/>
<path d="M9061 13338 c-218 -321 -256 -643 -75 -635 51 2 297 456 497 920 19 42 -13 77 -71 77 -58 0 -215 -163 -351 -362z"/>
<path d="M2300 13442 c0 -87 53 -141 119 -119 185 62 216 277 39 277 -87 0 -158 -71 -158 -158z"/>
<path d="M8369 13463 c-130 -339 -187 -1063 -84 -1063 151 0 276 276 352 775 51 329 34 425 -75 425 -77 0 -164 -62 -193 -137z"/>
<path d="M10705 13209 c-168 -314 -135 -1009 49 -1009 114 0 150 97 137 375 -9 206 15 449 53 540 101 240 -115 326 -239 94z"/>
<path d="M10025 12706 c-449 -521 -521 -706 -275 -706 83 0 150 50 150 112 0 61 135 265 300 453 242 276 398 635 275 635 -14 0 -216 -222 -450 -494z"/>
<path d="M9600 13019 c0 -50 -134 -244 -298 -430 -384 -437 -568 -917 -335 -871 160 32 211 102 421 582 60 138 180 347 266 465 105 144 122 238 52 281 -58 36 -106 24 -106 -27z"/>
<path d="M1902 12680 c-327 -536 -231 -773 299 -747 316 15 352 47 380 342 39 399 -144 430 -295 50 -145 -362 -236 -113 -101 275 148 424 -41 477 -283 80z"/>
<path d="M14568 12825 c-65 -110 110 -525 220 -525 145 0 196 229 95 425 -94 182 -240 229 -315 100z"/>
<path d="M13800 12306 c0 -220 151 -348 300 -256 67 41 66 127 -3 256 -134 250 -297 250 -297 0z"/>
<path d="M353 11863 c-143 -188 -231 -405 -198 -490 32 -84 11 -182 -48 -219 -59 -36 -107 -134 -107 -217 0 -120 62 -107 304 66 223 159 287 268 241 411 -34 110 8 302 97 437 315 482 77 492 -289 12z"/>
<path d="M6822 12085 c52 -157 270 -182 296 -35 10 55 -63 116 -162 135 -115 22 -163 -14 -134 -100z"/>
<path d="M7753 11805 c-103 -166 150 -442 283 -309 74 74 57 153 -53 264 -113 113 -180 126 -230 45z"/>
<path d="M8348 11692 c-37 -114 -37 -236 -2 -272 75 -75 250 171 252 355 3 203 -179 143 -250 -83z"/>
<path d="M14100 11462 c0 -206 235 -364 395 -265 115 71 111 111 -22 244 -195 196 -373 206 -373 21z"/>
<path d="M17723 11382 c54 -164 353 -339 436 -256 96 95 -150 374 -330 374 -80 0 -128 -53 -106 -118z"/>
<path d="M9693 11158 c-4 -59 -28 -281 -54 -493 -64 -529 191 -441 268 93 l56 392 44 -350 c60 -483 242 -441 249 58 6 383 -12 409 -275 409 -155 0 -284 -49 -288 -109z"/>
<path d="M225 10765 c-124 -122 -225 -322 -225 -444 0 -298 163 -281 240 26 34 136 152 295 261 354 110 58 199 149 199 203 0 164 -239 94 -475 -139z"/>
<path d="M8358 10736 c-565 -384 -758 -564 -758 -708 0 -206 142 -149 456 181 162 170 418 373 569 452 151 79 275 188 275 242 0 154 -126 116 -542 -167z"/>
<path d="M17725 10834 c-69 -28 -125 -116 -125 -196 0 -114 43 -122 200 -38 319 171 256 367 -75 234z"/>
<path d="M24175 10825 c-96 -22 -175 -104 -175 -182 0 -177 97 -177 331 1 199 150 119 243 -156 181z"/>
<path d="M16625 10729 c-124 -23 -225 -107 -225 -186 0 -169 139 -183 407 -39 185 99 274 311 118 282 -41 -7 -176 -33 -300 -57z"/>
<path d="M23485 10200 c-8 -330 -19 -645 -25 -700 -5 -55 33 -111 86 -125 108 -28 331 981 275 1250 -19 96 -100 175 -178 175 -106 0 -147 -154 -158 -600z"/>
<path d="M8625 10475 c-278 -195 -437 -475 -270 -475 95 0 745 546 745 625 0 128 -140 84 -475 -150z"/>
<path d="M6263 10067 c-205 -418 -255 -615 -178 -692 132 -132 540 750 494 1069 -21 150 -107 47 -316 -377z"/>
<path d="M24784 10350 c-123 -201 -205 -1150 -100 -1150 57 0 133 197 169 438 71 470 31 876 -69 712z"/>
<path d="M2700 10243 c0 -160 226 -443 354 -443 173 0 180 49 42 307 -92 173 -396 278 -396 136z"/>
<path d="M23978 10245 c-30 -30 -13 -240 38 -466 70 -313 56 -487 -62 -735 -200 -421 -202 -844 -4 -844 187 0 194 39 -98 -538 -258 -507 -255 -695 9 -594 92 35 135 135 107 244 -28 107 74 354 242 586 334 461 345 502 137 502 -229 0 -294 283 -111 484 134 149 144 273 62 772 -53 327 -97 605 -97 619 -2 47 -168 25 -223 -30z"/>
<path d="M6720 9974 c-144 -174 -260 -674 -156 -673 81 1 536 636 536 748 0 102 -278 48 -380 -75z"/>
<path d="M3667 9927 c-44 -73 -104 -1137 -79 -1402 7 -69 71 -125 142 -125 159 0 234 1448 81 1543 -53 33 -118 26 -144 -16z"/>
<path d="M1958 9613 c-88 -142 318 -444 502 -373 155 59 154 79 -12 262 -189 209 -400 257 -490 111z"/>
<path d="M9600 9107 c0 -51 71 -163 157 -250 284 -284 424 -196 239 150 -105 196 -396 270 -396 100z"/>
<path d="M23143 8852 c99 -525 235 -852 355 -852 128 0 127 40 -30 643 -157 606 -433 784 -325 209z"/>
<path d="M8901 9025 c1 -77 474 -325 619 -325 146 0 83 278 -78 339 -220 85 -542 76 -541 -14z"/>
<path d="M1400 8854 c0 -438 239 -1654 325 -1654 98 0 17 1552 -90 1724 -80 130 -235 84 -235 -70z"/>
<path d="M4110 8819 c-183 -341 -175 -759 15 -798 134 -27 175 31 176 247 1 155 29 383 62 507 73 271 -114 304 -253 44z"/>
<path d="M122 8775 c-57 -69 -105 -370 -107 -670 l-4 -544 241 294 c270 331 292 406 148 495 -56 34 -73 172 -40 306 66 260 -68 327 -238 119z"/>
<path d="M2158 8675 c-173 -860 -148 -1275 78 -1275 73 0 121 266 134 750 19 704 -111 1025 -212 525z"/>
<path d="M14350 8700 c-73 -118 22 -300 156 -300 52 0 94 90 94 200 0 211 -145 269 -250 100z"/>
<path d="M6505 8365 c-123 -374 -55 -665 156 -665 100 0 139 139 139 500 0 576 -135 651 -295 165z"/>
<path d="M8475 8224 c-96 -151 -269 -420 -384 -599 -178 -276 -186 -325 -50 -325 87 0 159 -45 159 -100 0 -55 68 -100 150 -100 83 0 150 40 150 89 0 49 156 263 348 475 191 212 348 420 350 461 5 182 -208 43 -533 -348 -435 -524 -574 -457 -167 81 288 380 381 643 227 641 -41 0 -154 -124 -250 -275z"/>
<path d="M21441 8361 c-35 -88 -146 -161 -249 -161 -248 0 -528 -524 -367 -685 201 -201 384 -136 321 114 -64 258 281 670 400 478 90 -145 480 -136 432 9 -21 64 -137 182 -257 262 -194 128 -226 126 -280 -17z"/>
<path d="M14845 8061 c-63 -338 106 -843 238 -711 37 37 67 288 67 558 0 575 -206 678 -305 153z"/>
<path d="M9649 7999 c-99 -110 -155 -226 -124 -258 73 -72 575 251 575 371 0 158 -265 93 -451 -113z"/>
<path d="M24668 7891 c-194 -296 -316 -1249 -172 -1339 54 -33 126 52 161 190 34 137 126 302 203 366 77 64 139 212 138 329 -1 170 -20 184 -94 66 -142 -224 -236 -50 -106 194 173 323 62 488 -130 194z"/>
<path d="M254 7527 c-265 -389 -324 -627 -155 -627 54 0 162 152 239 338 78 186 191 368 252 406 136 84 145 256 14 256 -53 0 -211 -168 -350 -373z"/>
<path d="M3400 7523 c0 -494 180 -1023 348 -1023 70 0 185 -69 256 -154 201 -243 277 -44 222 583 -32 364 -93 565 -163 542 -62 -21 -117 -101 -122 -179 -33 -457 -46 -520 -98 -468 -31 31 -87 271 -125 533 -86 603 -318 724 -318 166z"/>
<path d="M21456 7541 c-365 -364 -670 -843 -639 -1000 19 -97 144 -181 294 -197 203 -21 343 71 632 417 205 245 355 494 335 555 -40 119 -216 -28 -566 -474 -112 -142 -251 -230 -308 -194 -139 86 -1 333 409 734 231 226 278 318 163 318 -89 0 -233 -71 -320 -159z"/>
<path d="M13986 7419 c-234 -241 -28 -885 266 -836 319 54 358 157 216 568 -155 448 -254 502 -482 268z"/>
<path d="M6643 7146 c-37 -195 -17 -543 43 -775 60 -232 122 -533 137 -671 45 -410 220 -284 290 210 36 252 125 554 198 670 162 260 22 437 -155 195 -211 -289 -285 -201 -231 275 63 558 -180 641 -282 96z"/>
<path d="M15000 7000 c0 -129 51 -200 125 -175 69 23 125 102 125 175 0 73 -56 152 -125 175 -74 25 -125 -46 -125 -175z"/>
<path d="M8997 6775 c-214 -349 -222 -583 -22 -650 76 -25 126 50 128 192 2 128 69 320 150 427 172 227 188 356 46 356 -56 0 -192 -146 -302 -325z"/>
<path d="M5766 6925 c-86 -139 83 -1675 184 -1675 143 0 179 395 102 1120 -61 570 -160 761 -286 555z"/>
<path d="M9559 6692 c-290 -344 -335 -592 -109 -592 83 0 150 61 150 137 0 75 90 250 200 390 374 476 154 535 -241 65z"/>
<path d="M22072 6525 c-154 -318 -171 -1575 -22 -1575 55 0 107 248 115 550 16 595 168 1100 333 1100 56 0 102 45 102 100 0 221 -401 88 -528 -175z"/>
<path d="M1000 6214 c0 -485 132 -729 297 -550 117 126 -26 963 -172 1011 -89 30 -125 -103 -125 -461z"/>
<path d="M2298 6599 c-114 -71 -120 -117 -25 -212 94 -94 135 -83 186 51 84 217 25 276 -161 161z"/>
<path d="M7797 6275 c-225 -496 -253 -875 -64 -875 76 0 180 202 243 475 60 261 140 554 178 650 146 378 -173 154 -357 -250z"/>
<path d="M10260 6541 c-33 -87 -35 -200 -4 -250 102 -165 220 -95 268 159 54 280 -162 355 -264 91z"/>
<path d="M23261 6617 c-35 -56 -11 -218 54 -360 87 -190 89 -318 9 -483 -60 -123 -134 -291 -164 -374 -30 -82 -45 30 -33 250 23 418 -153 566 -209 175 -40 -279 -218 -299 -218 -25 0 110 -66 200 -147 200 -110 0 -136 -97 -106 -398 45 -458 127 -630 260 -548 51 32 93 -77 93 -242 0 -165 -45 -328 -100 -362 -55 -34 -100 8 -100 94 0 240 -269 185 -337 -69 -33 -124 -61 -420 -62 -658 -1 -542 234 -528 280 16 17 202 69 367 116 367 47 0 74 -79 60 -175 -42 -284 97 -675 240 -675 98 0 135 211 143 818 7 449 47 852 90 895 43 43 70 -218 60 -579 -19 -688 50 -933 232 -820 60 36 171 -19 247 -123 120 -164 152 -169 232 -41 51 83 123 353 160 600 96 649 257 973 196 395 -26 -250 -76 -527 -110 -616 -45 -117 36 -209 290 -330 194 -92 401 -138 459 -102 117 73 102 1753 -16 1753 -38 0 -24 131 32 291 56 160 87 461 70 669 -31 360 -40 370 -207 202 -96 -97 -177 -319 -180 -494 -2 -175 -64 -453 -137 -618 l-133 -300 -21 500 c-12 275 -19 627 -16 782 3 179 -39 267 -116 241 -76 -25 -126 -265 -132 -632 -8 -433 -48 -591 -150 -591 -95 0 -163 189 -214 595 -73 585 -286 981 -415 772z m537 -1792 c-2 -136 -289 -877 -300 -775 -77 751 -63 850 117 850 102 0 184 -34 183 -75z"/>
<path d="M1610 6185 c-144 -413 -141 -812 5 -763 87 29 308 641 381 1053 2 14 -59 25 -136 25 -77 0 -190 -142 -250 -315z"/>
<path d="M13200 6300 c0 -55 70 -100 156 -100 86 0 128 45 94 100 -34 55 -104 100 -156 100 -52 0 -94 -45 -94 -100z"/>
<path d="M369 6236 c-35 -35 -39 -103 -9 -152 64 -103 240 -14 240 122 0 107 -136 125 -231 30z"/>
<path d="M20825 6034 c-149 -61 -169 -534 -23 -534 85 0 298 399 298 557 0 53 -109 44 -275 -23z"/>
<path d="M2318 5475 c-214 -289 -416 -604 -450 -700 -94 -267 220 -219 324 50 47 124 226 400 397 614 171 214 311 427 311 475 0 213 -224 44 -582 -439z"/>
<path d="M3900 5717 c0 -141 113 -206 260 -149 208 80 169 232 -60 232 -110 0 -200 -37 -200 -83z"/>
<path d="M600 5306 c0 -241 181 -365 324 -222 77 77 70 152 -20 262 -175 210 -304 193 -304 -40z"/>
<path d="M8269 5436 c-35 -35 -39 -103 -9 -152 64 -103 240 -14 240 122 0 107 -136 125 -231 30z"/>
<path d="M3397 4638 c-333 -419 -589 -813 -568 -875 65 -194 320 -123 351 97 17 116 253 474 525 796 272 322 495 621 495 665 0 223 -257 5 -803 -683z"/>
<path d="M2523 4925 c-431 -549 -560 -828 -441 -947 68 -68 158 10 274 236 94 185 278 463 408 619 130 155 236 324 236 375 0 193 -194 78 -477 -283z"/>
<path d="M3817 4559 c-350 -487 -393 -659 -167 -659 83 0 150 52 150 116 0 63 113 263 250 443 138 180 250 376 250 434 0 216 -174 96 -483 -334z"/>
<path d="M21221 4754 c-275 -350 -454 -823 -382 -1011 98 -257 311 -104 315 228 2 173 122 459 280 666 199 262 235 363 128 363 -81 0 -235 -111 -341 -246z"/>
<path d="M276 4550 c-79 -410 28 -720 288 -838 389 -177 420 -144 415 438 -6 592 -146 738 -244 252 -77 -387 -215 -305 -157 94 56 382 -230 433 -302 54z"/>
<path d="M4773 4587 c-176 -99 -242 -387 -88 -387 136 0 436 375 344 432 -46 28 -161 8 -256 -45z"/>
<path d="M7554 4182 c-191 -643 -192 -746 -7 -817 126 -48 128 -102 13 -375 -152 -361 -104 -690 102 -690 87 0 138 111 138 300 0 166 112 534 249 818 258 535 244 802 -22 407 -83 -124 -196 -225 -250 -225 -54 0 -75 101 -47 225 163 706 179 875 82 875 -57 0 -173 -233 -258 -518z"/>
<path d="M9600 3461 c0 -483 38 -654 154 -699 87 -33 178 5 210 90 32 81 120 148 197 148 76 0 139 93 139 207 0 113 45 290 100 394 162 302 -61 329 -277 33 l-195 -267 -68 367 c-110 583 -260 425 -260 -273z"/>
<path d="M21601 3275 c2 -646 146 -1075 388 -1155 107 -35 124 21 73 242 -37 158 -94 569 -128 913 -42 431 -104 625 -198 625 -100 0 -136 -163 -135 -625z"/>
<path d="M0 3656 c0 -86 45 -156 100 -156 55 0 100 42 100 94 0 52 -45 122 -100 156 -55 34 -100 -8 -100 -94z"/>
<path d="M6482 3549 c-28 -28 13 -377 91 -775 78 -398 198 -1095 268 -1549 136 -888 198 -1026 378 -846 86 86 87 209 2 493 -63 208 -165 783 -227 1278 -148 1170 -306 1604 -512 1399z"/>
<path d="M8600 3200 c0 -110 45 -200 100 -200 55 0 100 90 100 200 0 110 -45 200 -100 200 -55 0 -100 -90 -100 -200z"/>
<path d="M20918 3082 c-213 -336 -158 -557 112 -453 164 63 294 580 176 702 -43 45 -173 -67 -288 -249z"/>
<path d="M1546 2893 c-182 -353 -160 -743 42 -743 94 0 151 166 180 525 23 289 18 525 -10 525 -29 0 -124 -138 -212 -307z"/>
<path d="M2869 3036 c-80 -80 11 -236 137 -236 52 0 94 68 94 150 0 155 -118 199 -231 86z"/>
<path d="M11013 2744 c-192 -244 -206 -444 -32 -444 92 0 355 597 291 661 -27 27 -144 -71 -259 -217z"/>
<path d="M24370 2937 c-33 -34 49 -279 184 -546 136 -266 246 -553 246 -638 0 -84 45 -153 100 -153 149 0 121 569 -43 887 -168 324 -399 538 -487 450z"/>
<path d="M902 2656 c-144 -379 -164 -781 -40 -824 61 -22 138 92 170 252 32 161 88 410 124 554 85 339 -126 353 -254 18z"/>
<path d="M22556 2609 c-87 -140 48 -409 205 -409 82 0 139 103 139 250 0 246 -226 350 -344 159z"/>
<path d="M5461 2417 c-81 -131 100 -517 243 -517 138 0 118 231 -39 446 -91 125 -157 148 -204 71z"/>
<path d="M8363 2420 c-28 -44 -8 -145 42 -225 51 -80 93 -272 93 -428 1 -184 46 -268 127 -239 122 43 130 292 24 747 -53 225 -193 296 -286 145z"/>
<path d="M23387 2275 c-66 -124 -292 -454 -503 -734 -211 -280 -384 -561 -384 -625 0 -235 268 -106 433 209 94 179 303 505 466 725 162 220 296 456 298 525 5 203 -180 143 -310 -100z"/>
<path d="M2022 1928 c-61 -208 -142 -665 -181 -1016 -57 -521 -44 -630 69 -592 88 29 180 334 253 838 64 436 131 854 151 930 20 75 -13 155 -72 177 -60 22 -159 -129 -220 -337z"/>
<path d="M4767 2133 c-101 -100 -80 -1333 22 -1333 143 0 211 276 211 858 0 502 -68 641 -233 475z"/>
<path d="M21144 2067 c-90 -232 202 -561 359 -404 73 73 45 178 -92 346 -181 223 -202 227 -267 58z"/>
<path d="M6261 2018 c-28 -45 16 -394 98 -775 82 -381 175 -817 207 -968 37 -174 124 -275 236 -275 162 0 166 38 43 475 -73 261 -184 734 -246 1050 -105 534 -214 693 -338 493z"/>
<path d="M9016 1976 c-156 -156 -146 -276 23 -276 159 0 294 268 173 343 -44 27 -132 -3 -196 -67z"/>
<path d="M23724 1975 c-182 -227 -727 -1306 -682 -1351 116 -115 537 512 941 1401 56 124 -151 84 -259 -50z"/>
<path d="M2509 1568 c-249 -514 -275 -1049 -55 -1133 223 -86 266 1 149 307 -81 213 -61 355 97 682 222 459 244 576 109 576 -50 0 -185 -194 -300 -432z"/>
<path d="M3968 1925 c-56 -95 91 -1177 179 -1319 35 -58 135 -106 220 -106 111 0 139 64 98 227 -32 124 -108 462 -169 750 -104 481 -217 637 -328 448z"/>
<path d="M3160 1741 c-33 -87 -35 -200 -4 -250 102 -165 220 -95 268 159 54 280 -162 355 -264 91z"/>
<path d="M24261 1642 c-123 -319 -67 -842 89 -842 113 0 150 122 150 500 0 489 -118 658 -239 342z"/>
<path d="M9987 1325 c-60 -151 -172 -394 -248 -540 -383 -732 4 -777 499 -59 393 570 445 727 212 638 -91 -35 -150 0 -150 89 0 245 -197 165 -313 -128z"/>
<path d="M549 1384 c-31 -82 35 -363 147 -625 112 -261 204 -539 204 -617 0 -78 68 -142 150 -142 198 0 189 246 -31 826 -219 576 -386 775 -470 558z"/>
<path d="M5162 1119 c-28 -44 -81 -314 -119 -600 -58 -441 -44 -519 94 -519 90 0 163 61 163 136 0 75 29 345 64 600 41 304 26 464 -45 464 -59 0 -130 -36 -157 -81z"/>
<path d="M21856 1022 c-126 -125 -41 -222 194 -222 138 0 250 40 250 88 0 105 -364 215 -444 134z"/>
<path d="M8959 716 c-172 -331 -211 -716 -74 -716 46 0 159 189 250 420 201 512 58 751 -176 296z"/>
<path d="M0 790 c1 -235 387 -790 551 -790 136 0 137 32 12 275 -190 366 -563 709 -563 515z"/>
<path d="M8074 644 c-59 -310 12 -644 138 -644 48 0 95 135 103 300 8 165 20 353 25 417 21 244 -217 179 -266 -73z"/>
<path d="M5641 664 c-119 -311 2 -613 259 -647 202 -28 226 -9 125 95 -69 70 -125 229 -125 352 0 270 -179 408 -259 200z"/>
<path d="M20104 553 c-540 -227 -864 -549 -407 -404 483 153 1103 466 1103 556 0 128 -62 115 -696 -152z"/>
<path d="M15062 454 c-209 -319 -205 -454 13 -453 182 1 459 463 366 613 -90 147 -212 96 -379 -160z"/>
<path d="M3562 446 c-111 -291 -66 -446 131 -446 151 0 187 60 165 270 -34 312 -204 414 -296 176z"/>
<path d="M12100 150 c0 -194 162 -194 236 0 35 91 0 150 -89 150 -81 0 -147 -67 -147 -150z"/>
<path d="M16200 150 c-107 -129 -67 -150 288 -150 414 0 548 126 254 239 -253 97 -409 72 -542 -89z"/>
<path d="M20150 154 c-326 -150 -168 -193 338 -91 171 34 312 101 312 150 0 126 -304 99 -650 -59z"/>
<path d="M7351 102 c-35 -56 7 -102 93 -102 176 0 202 60 63 146 -51 31 -121 12 -156 -44z"/>
<path d="M15800 100 c0 -55 45 -100 100 -100 55 0 100 45 100 100 0 55 -45 100 -100 100 -55 0 -100 -45 -100 -100z"/>
<path d="M22550 100 c-34 -55 34 -100 150 -100 116 0 184 45 150 100 -34 55 -101 100 -150 100 -49 0 -116 -45 -150 -100z"/>
<path d="M21827 40 c33 -34 120 -37 192 -8 80 32 56 55 -61 60 -105 4 -164 -19 -131 -52z"/>
</g>
</svg>