<svg xmlns="http://www.w3.org/2000/svg" version="1.0" width="250" height="250" viewBox="0 0 250.000000 250.000000" preserveAspectRatio="xMidYMid meet">
<metadata>
Created by potrace 1.10, written by Peter Selinger 2001-2011
</metadata>
<g transform="translate(0.000000,250.000000) scale(0.010000,-0.010000)" fill="#555555" stroke="none">
<path d="M836 18075 c57 -6471 100 -9354 214 -14675 25 -1182 47 -2431 48 -2775 2 -573 20 -625 218 -625 l216 0 -54 5475 c-33 3262 -19 5293 33 5025 49 -247 159 -803 245 -1233 104 -520 151 -1227 137 -2100 -13 -856 26 -1468 111 -1748 98 -322 104 -513 25 -750 -65 -193 -97 -1052 -81 -2169 34 -2465 36 -2500 159 -2500 71 0 102 459 92 1375 -26 2544 -7 3042 112 2968 69 -43 94 -258 64 -564 -43 -449 -25 -503 189 -584 273 -104 299 -259 84 -497 -115 -128 -155 -455 -168 -1381 -15 -1088 29 -1441 165 -1306 24 25 51 516 58 1092 15 1108 67 1497 200 1497 162 0 318 -696 219 -979 -136 -390 12 -1621 195 -1621 75 0 88 258 42 825 -74 922 -65 919 506 -150 198 -371 421 -675 495 -675 164 0 56 331 -320 974 -136 233 -449 928 -697 1544 -248 616 -497 1177 -554 1245 -57 69 -165 476 -241 906 -76 429 -194 999 -262 1265 -98 382 -98 770 -3 1850 66 751 120 1524 119 1716 0 193 66 479 149 636 82 158 150 338 152 400 4 152 484 670 828 894 175 113 488 185 848 194 463 11 681 -45 1158 -298 322 -171 649 -287 726 -257 246 94 460 -178 395 -503 -41 -204 20 -461 197 -836 325 -687 547 -1936 538 -3030 l-7 -850 -219 550 c-331 831 -757 1450 -901 1306 -88 -89 -35 -263 223 -730 348 -629 775 -1861 1256 -3626 150 -550 333 -1180 408 -1400 75 -220 214 -749 310 -1175 162 -721 191 -775 432 -775 171 0 291 75 356 225 193 438 -246 5204 -503 5460 -137 137 -167 -142 -66 -609 125 -573 277 -1893 355 -3076 47 -713 43 -734 -92 -428 -79 176 -163 604 -189 950 -25 345 -113 1011 -195 1478 -83 468 -229 1311 -326 1875 -97 564 -212 1025 -256 1025 -138 0 -85 -507 225 -2150 355 -1881 463 -2803 319 -2714 -55 34 -122 186 -150 338 -27 152 -162 816 -300 1476 -264 1262 -312 1628 -476 3650 -56 688 -128 1340 -160 1450 -47 158 -33 175 66 81 68 -65 208 -511 310 -991 102 -479 208 -895 236 -923 141 -140 159 141 51 783 -212 1257 -29 947 548 -924 241 -784 391 -1070 503 -959 20 21 -51 305 -159 631 -231 700 -200 948 57 452 99 -192 286 -489 416 -659 129 -171 235 -357 235 -415 0 -179 588 -745 702 -675 67 42 -18 222 -228 483 -321 398 -974 1416 -974 1518 0 136 210 -11 800 -559 606 -564 1746 -1393 1914 -1393 253 0 121 219 -269 448 -516 302 -1981 1549 -1907 1623 103 103 1571 -403 1524 -525 -50 -131 452 -652 801 -831 240 -123 372 -602 217 -789 -124 -149 -13 -1026 130 -1026 59 0 70 200 29 511 -67 507 -66 510 158 391 204 -109 221 -179 183 -712 -32 -438 -98 -642 -257 -790 -118 -110 -257 -200 -309 -200 -52 0 -125 262 -162 582 -69 596 -191 913 -307 797 -90 -90 150 -1464 268 -1537 52 -32 68 -156 35 -275 -49 -176 -7 -156 221 104 155 177 395 363 534 414 199 74 301 240 477 779 234 720 289 1336 120 1336 -55 0 -100 -204 -100 -453 0 -394 -216 -1147 -329 -1147 -22 0 -9 199 28 443 67 440 -19 740 -254 881 -67 40 -151 225 -186 411 -50 267 -167 402 -561 647 -519 323 -673 585 -273 463 124 -37 370 -156 548 -263 281 -171 356 -179 593 -64 156 76 372 336 510 613 131 264 346 529 476 588 131 60 284 239 339 399 56 159 340 508 632 774 292 267 633 692 759 944 127 253 279 490 339 527 155 96 37 -959 -149 -1327 -203 -404 -296 -1061 -142 -1009 66 22 120 88 120 148 0 60 34 142 75 183 258 258 -71 -636 -339 -922 -111 -118 -159 -241 -107 -273 244 -151 736 826 715 1418 -24 671 133 1918 264 2095 224 303 373 22 204 -383 -85 -204 -168 -889 -205 -1688 -64 -1362 -82 -1455 -290 -1455 -132 0 -393 -930 -317 -1131 97 -261 250 2 250 431 0 241 38 462 85 491 90 55 215 -1576 215 -2811 0 -790 -182 -1302 -597 -1677 l-218 -198 68 273 c41 160 28 272 -31 272 -55 0 -131 -124 -168 -275 -37 -151 -188 -477 -335 -725 -485 -815 -695 -1900 -369 -1900 111 0 150 117 150 450 0 248 45 450 100 450 55 0 100 -131 100 -292 0 -422 95 -608 311 -608 156 0 189 75 190 425 2 1004 187 1659 648 2285 245 332 471 746 503 922 32 175 16 791 -36 1368 -143 1584 38 5400 257 5400 27 0 260 -176 517 -391 297 -249 583 -623 783 -1025 348 -699 363 -863 330 -3634 -15 -1256 163 -4910 254 -5225 20 -69 158 -125 305 -125 254 0 260 10 103 183 -242 268 -220 613 35 546 158 -41 200 -3 199 184 0 131 -69 369 -153 530 -190 365 -320 3941 -131 3618 147 -250 321 -1575 298 -2255 -11 -299 47 -749 127 -1000 239 -741 360 -1262 360 -1543 0 -167 55 -263 150 -263 83 0 150 11 150 25 0 111 -324 1629 -433 2028 -84 308 -105 590 -55 726 45 123 45 324 -2 447 -106 284 -245 1574 -169 1574 96 0 359 -711 359 -972 0 -136 71 -492 158 -792 117 -402 130 -580 49 -678 -130 -156 73 -1558 226 -1558 51 0 62 145 26 325 -141 685 -178 1229 -76 1083 55 -79 131 -454 170 -835 64 -640 364 -1357 572 -1369 126 -7 84 339 -67 554 -78 112 -196 493 -262 848 -65 354 -230 1094 -366 1644 -135 550 -263 1080 -283 1178 -20 98 -211 548 -424 1000 -444 942 -830 2705 -635 2900 170 170 134 385 -59 351 -105 -18 -187 48 -212 168 -22 108 -140 333 -263 500 -122 167 -320 528 -440 803 -332 759 -367 800 -677 794 -186 -4 -351 75 -469 225 -100 127 -262 231 -360 231 -217 0 -508 305 -508 533 0 104 -81 167 -213 167 -188 0 -208 44 -165 375 27 212 -12 505 -91 675 l-139 300 57 -400 56 -400 -252 281 c-152 168 -253 400 -253 581 0 166 -41 377 -90 470 -50 92 -118 528 -153 968 -35 440 -86 875 -114 967 -28 91 -4 195 53 230 60 37 104 -26 104 -147 0 -116 35 -190 79 -163 113 70 77 475 -66 741 -68 125 -169 199 -225 164 -57 -34 -212 39 -345 164 -227 214 -272 220 -718 104 -957 -249 -994 -247 -1575 81 -449 254 -593 293 -755 206 -220 -117 -175 -297 73 -297 87 0 424 -120 750 -266 l593 -266 521 216 c601 249 783 270 711 83 -28 -73 -7 -250 48 -393 78 -205 60 -309 -84 -492 -128 -163 -195 -456 -224 -982 -33 -608 -109 -885 -397 -1463 -195 -392 -405 -774 -466 -850 -810 -1007 -1556 -1587 -2042 -1587 -238 0 -315 65 -443 371 -152 363 -150 377 105 596 143 123 260 282 260 354 0 72 90 187 200 256 110 68 200 163 200 211 0 139 -723 218 -871 94 -74 -61 -161 -84 -194 -51 -107 108 61 387 266 440 300 79 239 247 -76 211 -197 -23 -284 -96 -307 -257 -25 -180 -96 -225 -350 -225 -312 1 -323 17 -607 897 -325 1009 -580 1484 -837 1564 -96 29 -252 95 -348 146 -95 51 -347 93 -559 93 -391 0 -579 132 -801 563 -87 168 -65 352 101 850 116 351 228 656 248 679 20 23 137 -51 260 -164 189 -174 340 -203 949 -187 692 19 738 6 1028 -293 l304 -314 -203 -258 c-207 -263 -276 -676 -113 -676 50 0 136 131 192 291 88 254 211 327 960 571 500 163 858 334 858 411 0 141 -465 79 -645 -86 -52 -48 -248 -87 -435 -87 -248 0 -415 80 -618 298 -211 225 -387 307 -722 335 -409 34 -999 257 -699 264 241 6 11 203 -237 203 -134 0 -244 -45 -244 -100 0 -55 70 -100 156 -100 86 0 128 -45 94 -100 -102 -164 -336 -114 -449 98 -84 157 -64 239 97 400 111 111 251 202 310 202 60 0 90 56 67 125 -53 160 -325 164 -325 5 0 -66 -62 -178 -137 -250 -115 -109 -127 -72 -73 233 49 276 28 378 -88 422 -184 71 -206 679 -34 997 64 120 108 379 97 576 -14 232 50 448 182 615 112 142 203 304 203 360 0 56 117 240 259 409 205 244 225 308 97 308 -90 0 -262 -168 -383 -374 -170 -287 -229 -332 -256 -192 -48 252 198 493 875 854 634 337 1739 660 1966 573 78 -30 142 -124 142 -208 0 -92 90 -154 225 -154 124 -1 326 -29 450 -62 124 -33 225 -15 225 40 0 56 -157 130 -350 166 -327 62 -502 260 -225 255 238 -5 1279 -389 1501 -554 222 -165 221 -166 -101 -108 -415 75 -423 -82 -11 -226 172 -60 378 -188 456 -285 131 -160 139 -151 86 97 -42 196 -23 259 68 223 148 -58 876 -1080 876 -1231 0 -141 179 -239 301 -164 96 60 -268 802 -568 1158 -203 241 -165 278 242 242 206 -19 792 -66 1303 -106 510 -39 947 -104 971 -143 25 -39 70 -989 101 -2111 30 -1122 76 -2175 101 -2340 53 -346 -80 -646 -200 -452 -41 66 -81 309 -91 540 -10 251 -106 545 -238 731 -122 172 -222 386 -222 476 0 90 -123 286 -274 435 -259 254 -475 688 -595 1192 -61 253 -289 478 -363 357 -27 -44 57 -328 187 -630 255 -591 305 -899 145 -899 -230 0 -73 -196 293 -367 255 -118 417 -271 458 -433 36 -137 127 -319 204 -404 160 -179 221 -692 104 -882 -50 -81 -2 -203 130 -326 219 -203 270 -560 218 -1516 -25 -454 103 -772 310 -772 51 0 63 155 26 350 -37 201 -25 350 30 350 164 0 298 -435 251 -820 -51 -419 236 -1280 426 -1280 68 0 242 -172 388 -382 146 -211 453 -489 684 -618 232 -131 362 -255 290 -279 -71 -24 -180 7 -241 68 -155 155 -271 138 -271 -39 0 -82 66 -150 146 -150 81 0 195 -90 254 -200 118 -220 398 -273 403 -75 2 69 115 -10 252 -175 137 -165 372 -424 522 -575 223 -224 241 -275 98 -275 -96 0 -175 -20 -175 -45 0 -109 623 -955 703 -955 49 0 209 -205 356 -456 195 -333 289 -673 348 -1258 45 -440 132 -863 195 -938 62 -76 211 -331 331 -568 166 -329 276 -432 467 -437 243 -7 505 -83 789 -229 161 -83 661 -997 586 -1072 -28 -28 -143 106 -256 298 -161 273 -288 361 -587 407 -778 121 -871 183 -1160 780 -277 572 -466 729 -479 398 -5 -128 -37 -108 -122 75 -64 138 -157 279 -209 315 -52 37 -66 355 -31 729 54 575 36 689 -134 859 -109 109 -236 197 -284 197 -139 0 -206 -517 -116 -900 81 -342 83 -338 93 145 8 378 38 467 127 378 69 -69 124 -495 136 -1045 21 -1020 243 -1844 712 -2645 221 -376 277 -604 292 -1175 25 -1008 129 -1468 326 -1435 94 16 173 -55 192 -173 56 -351 353 -1294 465 -1475 123 -200 562 -239 556 -50 -1 69 -67 238 -146 375 -79 138 -145 351 -146 475 -3 157 -64 225 -204 225 -156 0 -200 67 -200 306 0 463 -217 1731 -314 1839 -47 52 -86 159 -86 237 0 78 -221 531 -491 1005 -604 1062 -672 1268 -445 1355 211 81 332 -98 334 -494 3 -461 529 -1048 941 -1048 430 0 774 -386 994 -1114 94 -310 237 -620 319 -687 212 -176 195 27 -56 688 -276 724 -190 886 133 252 234 -461 261 -629 271 -1700 6 -654 9 -1245 6 -1314 -10 -209 -373 -140 -529 100 -81 124 -176 383 -212 576 -37 197 -158 409 -277 483 -296 185 -447 1 -190 -232 111 -101 202 -305 202 -454 0 -149 90 -385 200 -525 110 -140 200 -304 200 -364 0 -60 164 -109 364 -109 536 0 628 189 636 1300 l7 950 225 -275 c219 -267 468 -366 468 -186 0 49 -150 307 -334 575 -328 477 -335 512 -413 1936 -104 1908 -88 6164 29 7550 51 605 80 1213 65 1350 -69 627 -163 3594 -193 6100 -18 1513 -65 2829 -104 2925 -86 212 86 193 -2100 234 -990 19 -2021 42 -2292 51 -568 19 -810 -189 -710 -610 32 -137 80 -1847 105 -3800 25 -1952 64 -4101 87 -4775 23 -674 16 -1225 -16 -1225 -31 0 -249 113 -484 250 -499 293 -742 611 -992 1300 -99 275 -219 543 -265 595 -45 52 -83 199 -83 327 0 213 -466 1197 -701 1480 -114 136 -20 748 115 748 51 0 78 1220 63 2825 l-27 2825 -350 -46 c-193 -25 -530 -35 -750 -22 -1356 79 -1823 82 -2007 14 -151 -56 -327 3 -645 216 -240 162 -543 321 -673 353 -205 52 -227 100 -168 372 37 172 147 470 244 661 l177 348 986 28 c1325 36 1150 34 3236 43 1749 7 2971 9 6600 9 2576 0 2400 -23 2398 324 -1 211 -27 259 -89 161 -127 -200 -12809 -242 -12809 -42 0 309 -225 78 -661 -677 -456 -791 -631 -971 -826 -850 -116 71 23 629 298 1202 222 463 221 456 75 456 -150 0 -379 -307 -383 -512 -2 -90 -96 -373 -210 -630 -223 -505 -373 -598 -1152 -714 -270 -41 -851 -244 -1291 -451 l-800 -378 -34 262 c-27 214 98 1061 331 2248 19 99 -26 175 -104 175 -151 0 -153 -6 -385 -1406 -201 -1214 -200 -1394 6 -1394 112 0 25 -149 -279 -475 -243 -261 -518 -585 -611 -719 -358 -516 -311 -199 317 2144 426 1588 470 1850 309 1850 -55 0 -100 -91 -100 -202 0 -219 -370 -1623 -513 -1948 -53 -121 -64 267 -28 975 79 1528 -98 1565 -243 50 -60 -619 -135 -1395 -167 -1725 -33 -330 -99 -1072 -148 -1650 -106 -1261 -199 -1800 -310 -1800 -45 0 -112 169 -150 375 -37 206 -117 438 -179 515 -75 94 -112 883 -112 2400 0 2097 13 2258 175 2231 143 -24 175 45 175 375 0 222 -45 404 -100 404 -55 0 -101 -56 -102 -125 -1 -85 -31 -78 -94 22 -51 81 -127 113 -168 72 -41 -41 -106 -917 -144 -1947 -74 -2005 50 -3814 271 -3949 180 -110 279 -907 144 -1159 -81 -152 -83 -391 -6 -870 98 -615 88 -700 -144 -1207 -178 -389 -233 -639 -189 -867 84 -445 213 -670 386 -670 80 0 146 -13 146 -29 0 -16 -222 -265 -494 -555 -454 -483 -502 -510 -597 -333 -389 728 -404 939 -432 6348 -18 3455 -61 5257 -127 5236 -182 -59 -218 -1365 -172 -6167 36 -3781 73 -4801 183 -5000 76 -137 182 -374 236 -525 65 -183 169 -275 311 -275 164 0 197 -41 142 -175 -39 -96 -113 -310 -164 -475 -86 -280 -939 -1050 -1164 -1050 -52 0 -123 169 -156 375 -34 206 -135 623 -225 925 -380 1277 -578 2452 -799 4750 -32 330 -120 735 -195 900 -105 230 -144 1058 -167 3525 l-30 3224 -238 1 -239 0 63 -6925z m21949 3973 c98 -97 224 -5759 212 -9448 -16 -4773 -44 -7900 -70 -7900 -13 0 -119 191 -236 425 -351 699 -556 868 -988 816 -418 -50 -455 -21 -846 685 -211 380 -270 633 -292 1250 -38 1106 -24 1123 912 1065 964 -60 1151 46 1186 672 13 241 -38 532 -114 649 -153 237 -98 598 131 864 182 210 99 331 -151 218 -98 -45 -263 -84 -365 -88 -119 -4 -241 -144 -341 -395 -143 -358 -142 -400 11 -511 202 -148 207 -415 16 -750 -147 -257 -185 -214 -155 170 10 122 -67 294 -171 383 -159 136 -178 239 -118 630 40 257 56 493 37 525 -62 105 -690 -26 -803 -168 -136 -170 -58 -1160 99 -1263 128 -83 -210 -788 -407 -851 -65 -21 -233 201 -373 493 l-255 531 298 280 c343 322 353 374 145 775 -191 371 -286 370 -563 -5 -122 -165 -256 -300 -298 -300 -42 0 -194 155 -339 345 -229 301 -269 464 -309 1275 -50 1014 -121 9663 -80 9705 57 57 4168 -17 4227 -77z m-16003 -1081 c20 -103 -62 -203 -215 -261 -265 -100 -424 -283 -329 -377 31 -32 126 -1 210 69 125 104 152 98 152 -36 0 -89 11 -191 25 -227 14 -36 -87 -81 -225 -101 -287 -41 -632 -406 -560 -593 26 -70 -17 -180 -96 -246 -79 -66 -144 -79 -144 -28 0 148 679 1737 810 1895 146 177 329 130 372 -95z m-328 -1823 c3 -551 44 -781 150 -849 114 -72 97 -92 -81 -93 -192 -2 -217 -41 -164 -253 79 -314 -38 -974 -160 -899 -50 31 -65 122 -34 202 31 82 -15 173 -105 208 -88 34 -160 174 -160 311 0 182 -41 235 -150 193 -84 -32 -150 -3 -150 67 0 141 351 469 501 469 55 0 99 45 99 100 0 160 -154 116 -350 -100 -215 -238 -350 -257 -350 -50 0 83 45 150 100 150 55 0 100 62 100 138 0 76 83 160 185 187 141 37 174 118 140 349 -34 232 9 339 188 464 127 89 233 162 234 162 2 0 5 -340 7 -756z m-1128 -1355 c-47 -180 -23 -201 159 -144 255 81 277 -49 73 -430 -78 -146 -169 -350 -203 -454 -33 -104 -79 -170 -103 -147 -73 74 -158 1195 -98 1293 109 175 227 93 172 -118z m-3623 -2889 c108 -852 288 -1865 398 -2250 111 -385 269 -932 352 -1216 142 -483 139 -536 -41 -850 -106 -184 -224 -570 -262 -859 -38 -289 -100 -525 -139 -525 -60 0 -365 1372 -467 2111 -20 144 -75 506 -122 806 -47 299 -90 1712 -95 3139 -10 2778 -26 2793 376 -356z m4132 1788 c-102 -212 -219 -386 -260 -387 -151 -2 -69 435 149 787 180 293 230 326 259 174 20 -103 -47 -361 -148 -574z m8495 -754 c-81 -211 -130 -158 -128 141 1 200 25 237 90 134 49 -77 66 -201 38 -275z m370 260 c0 -58 -45 -78 -100 -44 -55 34 -100 82 -100 106 0 24 45 44 100 44 55 0 100 -48 100 -106z m-8800 -203 c0 -60 -135 -228 -300 -372 -393 -345 -388 -576 12 -656 263 -53 293 -87 189 -212 -68 -82 -95 -222 -61 -311 46 -119 20 -146 -98 -101 -88 34 -272 90 -409 124 -304 77 -424 366 -367 885 49 445 78 498 221 410 65 -40 48 -189 -48 -419 -170 -407 -63 -639 295 -639 l210 0 -215 216 -216 216 245 484 c220 434 542 657 542 375z m8344 -666 c-21 -206 -62 -1207 -91 -2225 -30 -1017 -83 -2064 -117 -2325 -39 -297 -24 -475 40 -475 137 0 192 260 319 1500 144 1422 196 1700 317 1700 63 0 78 -117 38 -298 -52 -239 -15 -344 186 -530 137 -128 280 -349 315 -492 36 -143 163 -363 282 -490 120 -126 289 -344 377 -485 151 -241 147 -271 -81 -555 -132 -165 -384 -524 -560 -797 -175 -274 -476 -603 -669 -732 -193 -128 -441 -410 -552 -626 -111 -217 -302 -464 -425 -550 -123 -87 -297 -301 -386 -476 -351 -694 -274 -690 -1996 -111 -857 288 -1659 618 -1781 733 -253 238 -421 266 -493 84 -70 -175 -570 455 -817 1030 -260 605 -444 818 -641 744 -139 -52 -138 -38 8 109 117 118 142 231 84 380 -45 117 -160 577 -255 1024 -166 781 -166 824 12 1125 228 386 462 396 904 38 1077 -873 1004 -775 1074 -1448 75 -730 344 -1548 532 -1620 175 -67 167 142 -18 513 -82 165 -179 515 -215 779 -81 592 104 589 413 -6 186 -358 235 -390 553 -359 563 54 1007 319 1707 1018 919 918 1592 2368 1592 3431 0 475 118 767 310 767 39 0 54 -169 34 -375z m-8000 -300 c162 -179 237 -325 167 -325 -193 0 -733 583 -656 708 37 60 97 72 132 26 36 -46 196 -230 357 -409z m1456 -32 c0 -177 -269 -393 -490 -393 -139 0 -337 385 -278 539 30 78 180 108 408 81 269 -31 360 -89 360 -227z m-861 -451 c76 -196 80 -542 7 -542 -148 0 -846 417 -846 506 0 67 64 67 193 -2 271 -145 407 -130 407 46 0 198 162 192 239 -8z m1650 -539 c118 -273 243 -706 278 -962 60 -439 53 -459 -133 -359 -108 58 -385 309 -615 559 -494 535 -572 1004 -194 1156 383 154 444 118 664 -394z m-2736 -362 c1 -203 69 -321 225 -390 292 -130 283 -251 -21 -251 -433 0 -666 399 -495 846 97 253 288 119 291 -205z m-853 -91 c-129 -137 -257 -227 -284 -199 -28 27 55 162 184 299 129 137 257 227 284 199 28 -27 -55 -162 -184 -299z m1808 83 c56 -153 37 -233 -67 -273 -95 -36 -181 32 -241 190 -67 176 -142 228 -263 181 -119 -45 -147 -28 -94 58 120 195 575 88 665 -156z m9752 -106 c-33 -33 -56 26 -52 131 5 117 28 141 60 61 29 -72 26 -159 -8 -192z m-9260 -127 c0 -110 -63 -200 -141 -200 -91 0 -122 70 -88 200 29 110 92 200 141 200 48 0 88 -90 88 -200z m-2348 -438 c171 -171 67 -302 -118 -149 -135 113 -182 287 -77 287 32 0 119 -62 195 -138z m2448 -19 c0 -32 -72 -130 -161 -218 -130 -130 -147 -285 -94 -818 37 -361 80 -820 97 -1019 16 -199 61 -412 100 -475 95 -153 -18 -316 -178 -255 -86 34 -135 288 -146 771 -22 878 -135 1179 -529 1412 -356 210 -328 256 293 472 553 192 618 205 618 130z m-2890 -573 c-128 -128 -258 -29 -163 125 37 60 113 80 169 45 68 -42 66 -98 -6 -170z m1590 99 c0 -73 135 -261 300 -419 368 -353 425 -665 75 -411 -124 90 -402 281 -618 425 -371 247 -383 270 -206 399 237 173 449 176 449 6z m3536 -47 c47 -26 28 -82 -41 -125 -141 -87 -509 99 -435 219 42 68 257 26 476 -94z m-4035 -497 c542 -338 729 -526 524 -525 -41 1 -296 113 -567 250 -271 138 -619 250 -775 250 -432 0 -375 115 193 388 14 6 295 -157 625 -363z m4818 107 c-72 -29 -159 -26 -192 8 -33 33 26 56 131 52 117 -5 141 -28 61 -60z m9571 -1452 c-95 -177 -390 -255 -390 -102 0 43 73 182 163 310 123 175 182 200 243 103 44 -72 37 -211 -16 -311z m1273 95 c-33 -124 -61 -259 -62 -300 0 -41 -68 -75 -151 -75 -100 0 -150 100 -150 300 0 239 43 300 212 300 170 0 200 -44 151 -225z m1037 125 c0 -55 -48 -100 -106 -100 -58 0 -78 45 -44 100 34 55 82 100 106 100 24 0 44 -45 44 -100z m-4623 -381 c24 -73 -21 -96 -119 -58 -87 33 -158 104 -158 158 0 131 227 49 277 -100z m3823 -819 c0 -253 -39 -300 -250 -300 -271 0 -308 104 -146 407 162 303 396 240 396 -107z m1000 0 c0 -200 -50 -300 -150 -300 -157 0 -192 174 -89 442 100 261 239 179 239 -142z m-14400 -612 c0 -55 -45 -72 -100 -38 -55 34 -100 107 -100 162 0 55 45 72 100 38 55 -34 100 -107 100 -162z m13684 -4093 c285 82 326 62 524 -258 246 -397 212 -535 -57 -238 -119 131 -309 201 -546 201 -345 0 -605 139 -605 324 0 45 84 38 187 -17 117 -62 304 -67 497 -12z m1381 -1263 c-20 -21 -108 109 -195 288 -119 245 -128 344 -39 400 80 49 144 -46 196 -288 42 -199 59 -379 38 -400z m-1968 -1232 c0 -327 -27 -409 -97 -300 -53 83 -97 353 -97 600 0 327 27 409 97 300 53 -82 97 -352 97 -600z m-5823 -905 c9 -223 -20 -502 -64 -621 -71 -191 -88 -174 -148 145 -40 213 -19 467 51 621 66 143 125 260 132 260 7 0 20 -182 29 -405z m-6387 -795 c-4 -314 -12 -325 -80 -100 -42 138 -104 430 -138 650 l-62 400 142 -300 c78 -165 140 -457 138 -650z"/>
<path d="M20675 21793 c-214 -126 -229 -293 -25 -293 163 0 172 -69 150 -1186 -10 -568 16 -725 118 -692 76 25 154 258 183 547 63 608 240 852 590 811 345 -40 405 -476 116 -844 -326 -414 -270 -536 243 -536 333 0 450 39 450 150 0 83 -89 150 -200 150 -233 0 -235 10 -88 499 94 315 83 415 -68 646 -182 277 -409 305 -878 105 -163 -69 -180 -34 -150 310 36 419 -110 529 -441 333z"/>
<path d="M19104 21533 c-206 -262 -190 -738 34 -1022 84 -106 57 -173 -114 -287 -238 -158 -298 -467 -113 -581 61 -38 148 -10 193 63 57 93 120 101 213 28 274 -213 476 -219 727 -21 197 155 256 292 256 592 0 334 -37 400 -250 454 -137 34 -250 108 -250 162 0 55 113 234 250 397 138 164 250 339 250 390 0 138 -277 111 -326 -33 -33 -98 -111 -100 -358 -9 -287 106 -333 94 -512 -133z m596 -426 c0 -187 -354 -386 -474 -267 -68 68 264 460 389 460 47 0 85 -87 85 -193z m354 -713 c35 -58 37 -215 4 -350 -76 -299 -320 -311 -656 -31 -241 201 -243 210 -56 347 227 165 615 184 708 34z"/>
<path d="M19000 19149 c-81 -97 -103 -290 -62 -544 36 -226 20 -419 -38 -455 -55 -34 -100 -278 -100 -542 l0 -479 553 0 c534 0 759 90 549 220 -56 35 -102 413 -102 841 0 628 -36 811 -183 945 -227 205 -454 211 -617 14z m482 -382 c36 -184 -58 -211 -270 -77 -157 100 -53 340 122 282 64 -21 131 -114 148 -205z m-1 -892 c-25 -347 -67 -425 -230 -425 -259 0 -311 294 -107 605 242 369 372 300 337 -180z"/>
<path d="M20083 19029 c-77 -92 -62 -144 56 -189 129 -49 161 -217 161 -858 0 -702 21 -793 173 -763 150 29 170 136 142 793 -25 611 -1 772 122 819 223 86 290 -232 208 -997 -58 -538 -46 -651 67 -614 87 29 175 317 238 787 78 577 139 748 275 774 156 30 175 -61 175 -824 0 -847 3 -857 250 -857 156 0 250 57 250 150 0 83 -47 150 -105 150 -66 0 -96 294 -81 801 29 961 -72 1134 -513 881 -205 -118 -301 -132 -329 -49 -53 159 -957 156 -1089 -4z"/>
<path d="M20425 16688 c-322 -206 -325 -216 -325 -998 0 -434 -11 -824 -25 -865 -14 -41 99 -89 250 -107 306 -35 370 141 119 324 -125 91 -142 222 -87 636 38 287 108 522 156 522 48 0 87 90 87 200 0 147 67 200 250 200 156 0 250 -57 250 -150 0 -195 189 -194 264 1 79 205 -140 449 -401 447 -117 -1 -359 -95 -538 -210z"/>
<path d="M19101 16501 c-170 -170 -190 -288 -143 -825 83 -947 123 -1076 338 -1076 295 0 349 194 115 412 -278 258 -266 507 39 870 285 338 325 668 92 757 -219 84 -218 85 -441 -138z m324 -243 c14 -50 -31 -110 -100 -133 -69 -23 -125 33 -125 125 0 169 179 176 225 8z"/>
<path d="M21672 16487 c-249 -140 -226 -418 28 -337 142 45 200 18 200 -93 0 -86 -42 -157 -92 -157 -51 0 -231 -117 -400 -259 -231 -194 -308 -342 -308 -594 0 -184 40 -360 90 -391 181 -111 1310 68 1310 208 0 75 -70 136 -155 136 -122 0 -140 73 -88 350 141 756 -173 1367 -585 1137z m328 -1133 c0 -231 -242 -454 -493 -454 -176 0 -121 482 68 592 287 167 425 123 425 -138z"/>
<path d="M20446 14193 c-36 -58 17 -171 119 -250 175 -135 176 -149 10 -248 -220 -132 -227 -295 -12 -295 141 0 154 -92 99 -675 -71 -762 9 -979 326 -879 253 81 274 209 48 295 -227 88 -126 1146 128 1332 432 316 528 9 345 -1102 -43 -263 -43 -500 1 -527 147 -91 264 301 280 944 19 703 133 1012 376 1012 130 0 151 -88 113 -482 -25 -265 -121 -631 -212 -815 -191 -382 -76 -634 266 -583 273 41 335 281 89 345 -184 48 -188 73 -54 340 189 379 272 921 192 1242 -60 237 -101 255 -510 220 -244 -21 -502 -83 -572 -137 -306 -237 -374 -228 -526 67 -158 305 -384 393 -506 196z"/>
<path d="M19215 14040 c-169 -119 -215 -253 -215 -633 0 -292 55 -528 140 -599 120 -100 118 -174 -15 -513 -86 -219 -135 -418 -109 -444 26 -26 246 -13 489 28 533 92 709 360 671 1021 -22 381 -57 447 -225 432 -109 -10 -230 34 -269 97 -49 79 -92 60 -137 -57 -104 -271 -245 -201 -245 122 0 352 132 460 324 267 121 -120 157 -114 258 48 151 242 149 319 -7 263 -69 -25 -197 -8 -285 37 -99 51 -240 25 -375 -69z m685 -1640 c-35 -137 -95 -239 -132 -225 -37 14 -135 25 -218 25 -219 0 -183 331 72 655 l222 282 60 -243 c33 -134 31 -356 -4 -494z"/>
<path d="M21500 8629 c-413 -152 -502 -346 -483 -1054 17 -613 52 -728 310 -1004 l291 -312 194 246 c313 396 397 578 296 640 -50 31 -164 -15 -253 -104 -210 -210 -416 -123 -478 203 -39 203 19 318 261 522 637 532 544 1114 -138 863z m74 -498 c-93 -93 -197 -141 -232 -107 -98 99 53 276 235 276 153 0 153 -13 -3 -169z"/>
<path d="M11983 8349 c-107 -106 43 -549 185 -549 104 0 126 64 77 225 -80 267 -187 399 -262 324z"/>
<path d="M2093 24975 c-4 -14 -29 -508 -57 -1099 -53 -1150 180 -4474 412 -5876 220 -1332 242 -1570 149 -1663 -147 -147 198 -2924 438 -3528 240 -603 485 -829 683 -631 98 98 77 157 -103 283 -434 304 -604 1110 -662 3139 -22 798 -110 1788 -194 2200 -195 954 -459 3597 -458 4589 0 475 56 867 148 1044 195 374 321 1567 165 1567 -63 0 -119 -124 -125 -275 l-10 -275 -109 275 c-88 223 -245 365 -277 250z"/>
<path d="M4047 24580 c-39 -231 -43 -1795 -9 -3475 35 -1680 26 -3460 -20 -3955 -141 -1529 135 -3150 537 -3150 131 0 132 27 5 225 -80 124 -193 492 -252 818 -137 756 -143 2457 -8 2457 55 0 100 -45 100 -100 0 -55 45 -100 100 -100 55 0 100 135 100 300 0 323 -161 413 -223 125 -43 -205 -103 2486 -117 5300 -10 1937 -72 2391 -213 1555z"/>
<path d="M7962 24900 c-33 -82 -108 -442 -166 -800 -58 -357 -132 -807 -163 -1000 -118 -725 75 -195 271 745 186 890 216 1443 58 1055z"/>
<path d="M8258 24866 c45 -117 -12 -533 -229 -1691 -85 -451 139 -313 312 193 209 615 217 1632 12 1632 -82 0 -124 -59 -95 -134z"/>
<path d="M8893 24825 c-3 -96 -28 -438 -56 -760 -38 -455 -20 -576 82 -542 163 54 246 1477 85 1477 -57 0 -107 -79 -111 -175z"/>
<path d="M10167 24925 c-24 -41 -76 -266 -114 -500 -58 -351 -43 -425 88 -425 106 0 159 91 160 275 1 151 29 376 62 500 56 210 -93 324 -196 150z"/>
<path d="M24937 23350 c-1 -550 16 -788 36 -528 21 259 21 709 1 1000 -20 290 -37 78 -37 -472z"/>
<path d="M9100 22600 c-82 -53 -262 -99 -400 -101 -137 -2 -362 -91 -500 -199 -272 -213 -208 -265 114 -92 261 139 501 47 421 -162 -43 -110 -135 -143 -292 -103 -127 32 -259 13 -293 -43 -34 -55 28 -100 138 -100 110 0 223 -38 252 -84 28 -46 155 -76 281 -67 182 13 236 84 261 345 25 258 96 353 325 439 161 61 293 146 293 189 0 110 -420 94 -600 -22z"/>
<path d="M9900 22311 c0 -96 243 -213 433 -208 64 2 30 69 -77 150 -220 167 -356 189 -356 58z"/>
<path d="M9357 22011 c-30 -49 91 -111 269 -138 364 -55 423 -34 328 120 -80 129 -520 142 -597 18z"/>
<path d="M11100 22000 c0 -55 90 -100 200 -100 110 0 200 45 200 100 0 55 -90 100 -200 100 -110 0 -200 -45 -200 -100z"/>
<path d="M12600 21550 c68 -82 169 -150 224 -150 56 0 45 66 -24 150 -68 83 -169 150 -224 150 -56 0 -45 -66 24 -150z"/>
<path d="M9100 21500 c0 -55 138 -100 306 -100 178 0 280 42 244 100 -34 55 -172 100 -306 100 -134 0 -244 -45 -244 -100z"/>
<path d="M7947 21395 c-25 -41 26 -102 114 -136 147 -56 147 -81 0 -307 -222 -338 -207 -369 164 -333 268 26 320 69 295 248 -20 148 37 238 181 283 342 109 165 299 -288 309 -231 5 -441 -24 -466 -64z"/>
<path d="M9025 21133 c-213 -85 -137 -249 100 -215 124 18 214 77 200 132 -30 122 -133 150 -300 83z"/>
<path d="M11825 21008 c-283 -239 -279 -314 28 -538 l247 -179 0 304 c0 323 85 380 278 187 165 -165 288 -10 158 198 -150 239 -447 251 -711 28z"/>
<path d="M7344 20858 c-106 -78 -166 -169 -133 -202 99 -99 389 54 389 205 0 173 -16 173 -256 -3z"/>
<path d="M13005 20791 c61 -114 131 -188 155 -164 70 70 -71 373 -174 373 -51 0 -43 -94 19 -209z"/>
<path d="M8700 20450 c0 -83 89 -150 200 -150 111 0 200 67 200 150 0 83 -89 150 -200 150 -111 0 -200 -67 -200 -150z"/>
<path d="M11220 20274 c-57 -69 -133 -242 -169 -386 -54 -215 -26 -271 162 -320 292 -77 359 -6 214 226 -154 247 -36 346 180 150 224 -203 345 -25 172 252 -143 230 -403 266 -559 78z"/>
<path d="M7660 20179 c-88 -49 -160 -130 -160 -179 0 -122 733 -50 775 76 46 136 -418 214 -615 103z"/>
<path d="M8457 19911 c-31 -49 62 -119 205 -155 290 -73 392 -25 292 137 -80 130 -421 142 -497 18z"/>
<path d="M13643 19652 c53 -282 37 -338 -81 -293 -80 31 -239 7 -351 -53 -166 -89 -193 -172 -144 -433 l62 -323 -254 233 c-316 289 -502 99 -199 -203 189 -189 214 -191 451 -36 172 113 236 227 201 361 -28 107 -1 195 60 195 62 0 112 -67 112 -150 0 -82 45 -150 100 -150 55 0 100 74 100 164 0 90 62 214 137 275 101 82 114 195 47 436 -123 447 -325 427 -241 -23z"/>
<path d="M7400 19450 c0 -105 106 -150 350 -150 193 0 350 -48 350 -107 0 -58 124 -92 275 -75 344 40 361 221 25 265 -137 19 -293 75 -345 125 -159 154 -655 110 -655 -58z"/>
<path d="M7100 19202 c0 -39 79 -141 175 -228 220 -196 1125 -346 1125 -185 0 61 -112 111 -250 111 -137 0 -250 36 -250 79 0 44 -180 128 -400 186 -220 59 -400 75 -400 37z"/>
<path d="M11700 19206 c0 -52 45 -122 100 -156 55 -34 100 8 100 94 0 86 -45 156 -100 156 -55 0 -100 -42 -100 -94z"/>
<path d="M10147 18996 c-86 -141 136 -396 345 -396 177 0 408 183 408 322 0 45 -112 54 -250 19 -154 -39 -250 -20 -250 48 0 140 -167 145 -253 7z"/>
<path d="M11265 18759 c-126 -192 -131 -251 -26 -291 157 -60 493 300 408 437 -96 155 -214 110 -382 -146z"/>
<path d="M9000 18800 c0 -55 45 -100 100 -100 55 0 100 45 100 100 0 55 -45 100 -100 100 -55 0 -100 -45 -100 -100z"/>
<path d="M13833 18500 c-156 -63 -202 -146 -164 -294 56 -213 372 -282 481 -106 34 55 -34 100 -150 100 -128 0 -185 43 -144 109 66 107 290 89 694 -55 174 -61 169 -43 -36 138 -256 226 -351 241 -681 108z"/>
<path d="M9757 18411 c-129 -208 729 -487 1082 -351 298 114 -9 332 -382 272 -193 -31 -360 -7 -400 57 -83 134 -225 144 -300 22z"/>
<path d="M12231 18419 c-76 -47 -17 -178 178 -397 284 -318 298 -322 545 -160 292 191 261 307 -39 146 -264 -141 -320 -136 -258 23 65 170 -276 481 -426 388z"/>
<path d="M8025 18227 c-351 -43 -433 -177 -150 -247 240 -60 638 48 631 170 -7 120 -59 128 -481 77z"/>
<path d="M9249 17899 c-67 -109 349 -306 482 -228 45 27 0 110 -100 185 -219 167 -300 176 -382 43z"/>
<path d="M14008 17906 c-188 -31 -362 -117 -387 -192 -35 -106 43 -121 361 -67 339 57 436 34 585 -139 177 -208 433 -282 433 -125 0 87 -380 456 -550 533 -55 25 -254 20 -442 -10z"/>
<path d="M10275 17570 c-521 -146 -482 -315 50 -219 400 71 614 96 1150 133 124 9 225 61 225 116 0 128 -932 108 -1425 -30z"/>
<path d="M12956 17347 c-107 -81 -295 -147 -419 -147 -274 0 -409 -179 -196 -260 181 -70 881 255 937 435 51 165 -82 153 -322 -28z"/>
<path d="M13426 17256 c-329 -181 -166 -261 180 -88 162 81 294 166 294 189 0 78 -246 25 -474 -101z"/>
<path d="M4510 16625 c9 -335 19 -348 90 -125 114 357 114 500 0 500 -55 0 -96 -169 -90 -375z"/>
<path d="M15058 16325 c70 -395 242 -684 242 -407 0 321 -128 782 -217 782 -52 0 -63 -165 -25 -375z"/>
<path d="M9466 15872 c-371 -297 -354 -803 30 -857 135 -19 295 -101 354 -182 95 -130 160 -127 529 20 232 93 421 231 421 308 0 257 9 288 154 509 79 121 103 245 53 276 -91 56 -335 -140 -480 -387 -122 -207 -776 -291 -920 -118 -96 117 -79 187 86 352 373 373 211 429 -227 79z"/>
<path d="M12650 15500 c-34 -55 8 -100 94 -100 86 0 156 45 156 100 0 55 -42 100 -94 100 -52 0 -122 -45 -156 -100z"/>
<path d="M15102 14675 c0 -124 45 -293 98 -375 72 -112 97 -54 98 225 1 206 -43 375 -98 375 -55 0 -99 -101 -98 -225z"/>
<path d="M15572 14339 c-36 -36 -6 -150 67 -253 86 -123 114 -366 82 -703 -43 -445 -27 -507 112 -453 123 47 191 -35 283 -345 74 -245 254 -512 453 -671 182 -145 331 -301 331 -346 0 -122 215 -305 512 -436 143 -63 436 -332 650 -598 213 -265 467 -570 563 -677 215 -239 223 -357 25 -357 -191 0 -189 -48 22 -370 l173 -263 69 241 68 242 71 -225 c39 -124 133 -225 209 -225 186 0 181 22 -157 678 -276 534 -693 1001 -2198 2460 -334 323 -607 638 -607 700 0 62 -106 447 -235 857 -223 707 -345 891 -493 744z m288 -1112 c-33 -33 -56 26 -52 131 5 117 28 141 60 61 29 -72 26 -159 -8 -192z"/>
<path d="M14988 8825 c-125 -206 -400 -582 -611 -835 -276 -332 -376 -540 -361 -750 25 -319 -308 -1340 -436 -1340 -44 0 -80 48 -80 106 0 58 -45 78 -100 44 -186 -115 -102 220 147 586 179 264 208 364 106 364 -78 0 -255 -190 -393 -421 l-251 -422 320 -274 c378 -324 571 -356 571 -95 0 103 117 443 259 754 143 311 231 639 197 728 -35 92 20 251 127 371 259 286 928 1559 820 1559 -48 0 -189 -169 -315 -375z"/>
<path d="M19900 7211 c0 -104 94 -295 208 -425 181 -205 199 -210 138 -36 -40 110 -94 301 -121 425 -59 273 -225 300 -225 36z"/>
<path d="M15259 6578 c-86 -131 -185 -382 -220 -558 -51 -255 -31 -320 99 -320 114 0 162 90 162 307 0 168 49 397 108 508 157 293 36 345 -149 63z"/>
<path d="M14459 6325 c-298 -457 -373 -875 -159 -875 82 0 155 90 160 200 20 382 41 436 299 742 199 237 223 308 101 308 -86 0 -267 -169 -401 -375z"/>
<path d="M13764 4731 c-35 -36 -64 -159 -64 -276 0 -271 -687 -1375 -809 -1299 -197 121 -195 -256 2 -665 114 -236 207 -537 207 -670 0 -132 63 -383 140 -556 77 -173 199 -529 272 -790 72 -261 167 -475 210 -475 145 0 79 488 -171 1271 -137 429 -249 871 -250 984 0 113 -41 248 -90 300 -49 52 -117 191 -153 308 -48 160 -14 225 139 265 191 50 508 630 706 1296 79 261 -4 442 -139 307z"/>
<path d="M11038 4455 c-33 -87 -15 -213 41 -281 199 -242 359 -1362 234 -1636 -148 -323 -62 -471 194 -334 164 88 211 63 294 -156 54 -144 99 -378 99 -521 0 -473 219 -1527 317 -1527 53 0 73 79 45 175 -29 96 -79 513 -112 925 -95 1205 -139 1383 -353 1451 -155 49 -197 153 -197 488 0 474 -252 1419 -403 1513 -54 33 -126 -10 -159 -97z"/>
<path d="M14190 4131 c-61 -155 -226 -517 -367 -806 -233 -477 -251 -800 -31 -568 185 195 693 1540 603 1596 -52 32 -144 -68 -205 -222z"/>
<path d="M14513 3369 c-65 -292 -230 -695 -366 -895 -136 -200 -247 -411 -247 -469 0 -143 154 -132 274 20 161 204 626 1442 626 1667 0 396 -169 206 -287 -323z"/>
<path d="M9637 2037 c1 -1068 -39 -1661 -121 -1812 -182 -334 38 -279 300 75 285 386 425 382 347 -8 -84 -423 152 -337 278 101 66 229 58 386 -26 520 -84 135 -89 248 -17 383 132 246 129 682 -8 1471 -165 944 -309 784 -230 -255 70 -924 -1 -1612 -165 -1612 -55 0 -95 498 -95 1181 0 821 -40 1236 -132 1362 -112 152 -132 -67 -131 -1406z"/>
<path d="M10678 3545 c-30 -30 -11 -244 43 -475 54 -231 74 -723 44 -1093 -33 -421 -14 -697 53 -738 107 -67 65 -741 -68 -1064 -48 -118 -25 -175 71 -175 187 0 454 1265 300 1419 -61 61 -81 324 -50 631 30 290 -1 757 -68 1038 -115 480 -193 589 -325 457z"/>
<path d="M14668 2495 c-377 -722 -432 -895 -283 -895 77 0 815 1394 815 1539 0 222 -216 -39 -532 -644z"/>
<path d="M11489 1050 c-34 -55 -64 -325 -67 -600 -6 -484 -3 -489 92 -164 101 348 82 939 -25 764z"/>
<path d="M19557 611 c-78 -125 35 -611 142 -611 85 0 64 571 -24 659 -30 30 -83 8 -118 -48z"/>
</g>
</svg>