<svg xmlns="http://www.w3.org/2000/svg" version="1.0" width="250" height="250" viewBox="0 0 250.000000 250.000000" preserveAspectRatio="xMidYMid meet">
<metadata>
Created by potrace 1.10, written by Peter Selinger 2001-2011
</metadata>
<g transform="translate(0.000000,250.000000) scale(0.010000,-0.010000)" fill="#555555" stroke="none">
<path d="M0 24836 c0 -68 45 -152 100 -186 55 -34 100 -149 100 -256 0 -107 -45 -194 -100 -194 -55 0 -100 -50 -100 -111 0 -61 68 -84 150 -53 193 74 193 -79 0 -272 -218 -218 -188 -264 175 -266 179 0 390 -42 469 -92 124 -78 124 -114 1 -262 -131 -158 -146 -153 -208 68 -66 235 -67 235 -77 13 -12 -270 -94 -286 -266 -50 -70 96 -159 143 -198 104 -117 -116 47 -579 206 -579 81 0 148 -45 148 -100 0 -55 -49 -100 -108 -100 -67 0 -84 -110 -44 -293 36 -161 -3 -577 -86 -925 -199 -833 -186 -1161 50 -1236 244 -77 241 -251 -6 -315 -166 -44 -193 -142 -193 -685 0 -553 21 -627 168 -574 154 57 154 45 -6 -138 -114 -131 -175 -365 -175 -679 l0 -479 343 262 c189 144 409 262 488 262 156 0 450 -295 306 -308 -634 -55 -1400 -592 -845 -592 114 0 208 -46 208 -102 0 -59 -106 -75 -250 -39 -207 52 -250 27 -250 -148 0 -144 63 -211 200 -211 264 0 264 -337 0 -673 -110 -140 -200 -361 -200 -491 l0 -238 349 226 c344 223 446 376 251 376 -55 0 -100 54 -100 120 0 93 27 93 120 0 140 -140 448 -160 497 -32 18 49 132 51 256 4 190 -71 214 -134 161 -413 -88 -461 -455 -1168 -508 -979 -124 442 -139 453 -276 200 -126 -233 -141 -237 -210 -59 -55 142 0 249 214 421 159 126 256 261 218 300 -129 128 -573 -154 -686 -436 -61 -152 -154 -370 -207 -485 -63 -138 -54 -417 25 -822 91 -463 93 -724 9 -1061 -147 -582 -143 -1083 11 -1420 98 -216 98 -281 0 -313 -75 -25 -124 -226 -124 -508 0 -430 20 -468 255 -482 247 -14 250 -8 94 230 -100 154 -133 326 -89 465 65 203 81 193 203 -130 l132 -350 -21 327 c-18 269 28 353 263 475 336 174 397 183 314 49 -34 -55 2 -74 81 -44 108 41 130 -10 92 -212 -28 -146 -9 -295 43 -331 52 -35 171 -175 264 -311 111 -162 169 -195 169 -94 0 84 59 233 130 331 113 154 128 108 107 -341 -15 -323 -89 -591 -196 -709 -280 -310 -91 -325 239 -20 166 154 323 393 348 530 26 144 51 51 58 -220 8 -276 70 -503 149 -550 75 -44 161 -147 192 -230 33 -86 64 -21 74 150 l17 300 97 -337 c74 -257 58 -434 -66 -744 -133 -334 -140 -448 -39 -638 124 -231 390 -320 390 -131 0 55 66 100 147 100 111 0 86 -89 -100 -364 -136 -200 -252 -436 -259 -525 -20 -280 -38 -352 -185 -736 -79 -206 -184 -375 -234 -375 -133 0 17 531 186 661 201 154 181 239 -55 239 -242 0 -246 37 -36 357 89 137 140 272 112 300 -44 45 -187 -147 -564 -757 -51 -82 -149 -341 -218 -574 -69 -233 -208 -498 -310 -590 -101 -92 -184 -228 -184 -301 0 -74 -36 -135 -80 -135 -177 0 -617 -392 -1179 -1050 l-341 -400 0 -1425 0 -1425 1050 0 c932 0 1050 20 1053 175 3 167 10 167 136 0 155 -204 422 -231 495 -50 40 100 52 100 58 0 10 -160 408 -165 408 -5 0 93 27 93 120 0 88 -88 864 -120 2875 -118 1515 0 2697 38 2626 83 -87 55 85 173 525 360 360 152 654 316 654 364 0 95 -292 -2 -872 -289 -545 -270 -1522 -466 -1655 -333 -125 125 -23 168 593 254 491 69 1437 463 1265 528 -66 24 -224 -12 -350 -80 -216 -115 -1041 -333 -1731 -457 -288 -51 -292 -47 -100 104 236 186 168 204 -216 58 -214 -82 -456 -65 -1032 71 -745 175 -749 178 -402 268 531 137 1066 395 922 443 -71 24 -310 -30 -532 -118 -222 -89 -446 -135 -497 -103 -154 95 -493 -56 -493 -220 0 -168 -216 -137 -275 39 -20 62 213 191 519 287 306 97 556 217 556 268 0 51 -63 68 -140 39 -563 -216 -976 -292 -1071 -197 -72 72 4 124 250 170 377 71 596 262 292 255 -100 -3 -361 -70 -581 -149 -512 -184 -638 -185 -394 -1 175 132 157 136 -190 43 -558 -150 -537 -61 38 162 273 106 496 233 496 283 0 98 -171 61 -700 -155 -202 -82 -495 -118 -691 -86 l-342 57 467 232 c256 128 466 274 466 325 0 51 -168 3 -374 -107 -216 -116 -542 -195 -775 -187 l-401 12 375 105 c206 58 375 147 375 198 0 52 -67 67 -150 36 -266 -102 -159 26 159 191 536 277 224 285 -341 8 -606 -296 -868 -332 -868 -117 0 194 338 369 568 294 147 -48 154 -39 35 45 -120 85 -98 122 125 207 150 57 272 150 272 206 0 57 -240 -32 -533 -197 -513 -290 -1267 -415 -1267 -210 0 49 82 69 183 42 101 -26 337 20 525 103 l342 150 -350 -49 c-330 -46 -320 -34 175 215 289 145 525 310 525 368 0 68 -43 71 -125 8 -184 -142 -975 -437 -975 -363 0 110 343 329 520 332 94 2 206 59 250 128 188 293 780 594 1350 686 336 54 691 141 789 194 337 180 491 114 491 -212 0 -435 148 -658 483 -725 180 -36 312 -136 345 -263 67 -256 615 -288 752 -44 114 203 562 93 481 -117 -77 -203 212 -444 534 -444 154 0 459 -63 677 -140 380 -134 788 -71 539 83 -207 128 -112 257 189 257 233 0 300 -44 300 -200 0 -225 104 -256 276 -84 88 88 162 59 307 -120 233 -287 827 -309 1123 -40 233 211 253 444 38 444 -86 0 -130 -42 -98 -93 31 -51 17 -118 -32 -148 -171 -106 -442 834 -377 1307 82 601 -131 1099 -546 1274 -294 123 -222 138 1006 206 918 51 1357 40 1433 -36 61 -61 238 -110 394 -110 156 0 459 -89 673 -198 534 -273 1603 -1177 1603 -1356 0 -80 45 -146 100 -146 173 0 109 284 -111 488 -238 223 -183 418 99 344 408 -107 1612 753 1612 1152 0 112 39 228 86 257 47 29 111 328 141 664 31 336 71 624 89 640 19 16 339 -18 712 -75 413 -63 714 -68 770 -12 56 56 -33 96 -228 101 -488 15 -901 97 -1147 229 -248 133 -305 265 -76 177 81 -31 171 -17 200 31 30 48 -2 107 -71 132 -276 98 0 150 405 76 357 -66 421 -54 375 67 -31 80 -57 220 -59 312 -3 144 -24 140 -150 -27 -142 -188 -147 -186 -149 50 -1 200 -20 217 -107 94 -84 -119 -97 -98 -62 100 25 138 81 336 125 441 54 130 44 170 -29 124 -60 -37 -140 -205 -177 -373 -37 -168 -130 -330 -207 -359 -78 -30 -141 -117 -141 -194 0 -76 -45 -139 -100 -139 -134 0 -128 171 9 256 66 40 -39 189 -267 377 -207 170 -510 457 -675 638 -164 181 -365 329 -446 329 -114 0 -135 90 -94 400 31 227 15 376 -37 344 -49 -31 -90 -121 -90 -200 0 -79 -45 -144 -100 -144 -55 0 -100 73 -100 162 0 136 -26 141 -156 33 -132 -109 -194 -90 -394 127 -250 269 -233 378 57 378 130 0 160 -57 119 -225 -49 -199 -28 -191 184 69 132 161 313 476 403 700 90 223 225 406 300 406 75 0 170 45 210 100 45 60 75 45 75 -37 2 -108 33 -112 146 -18 101 84 199 89 335 16 144 -77 281 -53 561 96 203 109 415 171 469 137 55 -34 174 -1 265 72 117 96 143 98 89 9 -41 -69 -27 -125 31 -125 128 0 133 102 16 288 -48 76 -138 107 -199 69 -189 -117 -122 89 87 268 127 109 174 232 131 344 -54 141 -23 133 163 -40 146 -136 200 -262 149 -346 -62 -105 -44 -104 90 4 226 183 213 40 -35 -387 l-202 -350 264 300 c146 165 242 231 215 146 -33 -100 13 -153 134 -153 131 0 175 60 150 203 -19 112 -84 193 -146 179 -61 -14 -111 13 -111 60 0 82 -165 284 -802 983 -261 286 -356 322 -935 349 -521 24 -685 -6 -854 -159 -115 -104 -209 -157 -209 -118 0 39 -113 -51 -250 -200 -235 -253 -262 -260 -433 -105 -191 173 -417 220 -417 87 0 -43 69 -175 152 -295 283 -404 -4 -1228 -401 -1152 -168 32 -269 -39 -423 -300 -146 -248 -337 -391 -690 -517 -754 -270 -1056 -306 -1179 -141 -257 343 -494 311 -858 -116 -375 -439 -1101 -730 -1101 -440 0 76 89 139 197 139 108 0 461 265 783 588 322 323 684 619 804 657 271 86 192 256 -84 184 -110 -29 -200 -3 -200 57 0 61 113 138 250 173 290 73 336 241 65 241 -232 0 -558 -350 -465 -500 38 -62 -9 -200 -105 -306 -139 -153 -205 -169 -318 -75 -121 100 -109 144 79 285 141 107 182 192 112 235 -61 37 -286 -91 -501 -286 -437 -394 -660 -475 -354 -128 173 196 437 697 437 830 0 116 -348 24 -609 -161 -159 -114 -335 -179 -390 -144 -154 95 -120 250 55 250 96 0 128 48 84 125 -40 69 -35 92 10 51 45 -41 142 -24 216 37 155 129 184 329 34 237 -55 -34 -100 17 -100 114 0 137 -27 149 -120 56 -66 -66 -165 -120 -220 -120 -56 0 -47 53 20 120 175 175 147 327 -32 178 -84 -70 -185 -94 -225 -54 -106 105 277 356 542 356 215 0 635 343 635 519 0 135 223 91 415 -82 153 -139 225 -145 480 -39 165 68 399 210 519 314 123 107 297 166 395 135 128 -41 185 7 208 174 29 203 89 229 533 233 518 5 511 -4 377 468 -34 119 63 238 313 385 287 170 374 292 423 603 43 267 114 390 225 391 89 0 291 67 448 150 482 251 562 167 194 -201 -192 -192 -374 -350 -404 -350 -114 0 -320 -360 -323 -564 -2 -136 -63 -209 -167 -200 -248 21 -277 -209 -37 -286 284 -90 501 111 501 465 0 243 49 300 303 351 229 45 289 102 247 233 -79 250 196 431 671 442 234 5 430 63 454 134 25 75 -15 103 -101 71 -194 -75 -441 227 -300 368 112 112 626 -155 626 -326 0 -48 68 -88 150 -88 180 0 202 266 26 325 -98 32 -98 97 -2 307 105 232 177 265 549 255 235 -6 522 -71 639 -143 136 -84 245 -97 308 -34 62 62 191 1 363 -170 l267 -267 0 253 c0 139 -68 279 -150 310 -82 32 -151 138 -153 236 -3 164 -15 163 -149 -15 -144 -190 -151 -189 -382 28 -143 135 -299 196 -400 157 -110 -42 -166 -12 -166 91 0 237 346 292 755 121 469 -196 463 -196 426 71 -27 196 13 225 319 225 193 0 409 38 482 85 72 47 153 63 179 37 27 -27 -139 -209 -368 -405 -349 -298 -407 -399 -353 -612 70 -278 260 -351 260 -99 0 86 45 128 100 94 55 -34 100 -129 100 -212 0 -82 -45 -122 -101 -88 -128 80 -202 -114 -233 -609 -23 -355 -65 -410 -470 -605 -245 -117 -491 -179 -546 -136 -124 96 -550 -56 -550 -197 0 -162 -500 -120 -564 47 -31 82 -134 150 -228 150 -93 0 -257 66 -364 147 -281 213 -479 186 -726 -98 -248 -285 -285 -468 -78 -389 149 57 287 -102 331 -382 25 -160 -360 -463 -470 -370 -28 23 -56 -172 -63 -433 -7 -261 29 -475 81 -475 51 0 59 -56 18 -125 -51 -85 -21 -81 94 12 172 140 241 369 81 271 -108 -67 104 568 253 755 191 241 206 429 63 773 -77 185 -118 357 -92 383 109 109 464 -193 467 -398 3 -211 10 -213 144 -36 152 201 353 145 353 -99 0 -119 69 -137 319 -82 176 39 382 132 457 208 162 162 222 168 422 42 98 -63 198 -49 300 39 83 73 265 167 402 208 l250 74 -242 -263 c-134 -144 -211 -262 -173 -262 39 0 1 -133 -82 -295 -176 -340 -198 -887 -44 -1105 80 -113 92 -63 50 200 -74 455 306 1290 720 1585 386 275 422 272 803 -69 412 -368 410 -536 -7 -514 -748 41 -876 6 -996 -277 -65 -151 -188 -361 -273 -467 -86 -106 -100 -159 -31 -119 79 46 125 13 125 -90 0 -90 63 -227 141 -304 78 -78 161 -198 185 -268 33 -93 103 -76 259 63 119 106 215 140 215 75 0 -171 135 -140 381 89 312 290 276 427 -96 372 -285 -41 -298 -33 -131 89 101 74 240 135 308 135 68 0 138 101 156 225 57 401 411 333 812 -158 200 -243 416 -571 480 -729 65 -159 179 -429 253 -601 340 -788 463 -1577 407 -2593 -62 -1105 -203 -1564 -450 -1469 -114 44 -138 15 -91 -107 69 -180 -183 -389 -629 -521 -137 -41 -283 -124 -323 -185 -46 -70 -75 -46 -75 63 -1 96 -42 175 -91 175 -145 0 -205 -266 -87 -384 77 -77 40 -166 -133 -314 l-241 -205 300 57 300 56 -273 -157 c-267 -154 -777 -122 -777 48 0 44 -227 82 -505 84 -357 2 -522 -40 -562 -144 -46 -119 -178 -135 -670 -82 -473 50 -587 38 -501 -54 62 -66 370 -135 684 -155 315 -19 598 -61 630 -92 31 -32 126 -58 211 -58 119 0 126 27 33 120 -193 193 -143 367 88 307 138 -36 193 -114 162 -231 -34 -131 31 -191 256 -236 167 -34 357 -16 423 39 281 234 1260 669 1210 539 -83 -217 84 -162 342 113 l236 251 -318 -63 c-218 -44 -319 -26 -319 57 0 66 56 101 125 77 69 -24 222 -8 341 35 203 76 218 47 250 -487 59 -984 -90 -2890 -267 -3423 -93 -281 -143 -537 -112 -569 32 -32 84 28 116 132 31 104 122 316 202 472 80 156 145 395 145 532 0 137 68 317 150 399 133 134 169 131 319 -19 160 -159 174 -158 243 18 149 378 94 639 -159 754 -136 62 -220 155 -187 208 34 56 96 39 147 -39 73 -114 101 -114 174 -1 122 189 283 -321 262 -832 -9 -218 43 -600 115 -850 l132 -453 -198 236 c-109 130 -198 321 -198 425 0 107 -70 189 -162 189 -120 0 -145 -57 -96 -225 36 -124 85 -308 108 -410 23 -102 83 -237 132 -300 50 -63 120 -240 157 -393 49 -204 144 -294 356 -336 179 -36 272 -107 241 -185 -26 -70 98 -335 276 -588 319 -452 325 -480 300 -1437 -14 -537 -67 -1019 -119 -1071 -148 -150 -109 -255 95 -255 129 0 206 96 249 310 34 171 37 351 7 400 -31 50 -14 90 38 90 83 0 118 821 145 3483 6 578 -31 858 -120 913 -89 55 -95 100 -19 147 142 87 -153 557 -350 557 -76 0 -138 68 -138 150 0 83 67 150 149 150 199 0 845 -705 848 -926 2 -97 138 -362 303 -590 355 -490 391 -317 105 516 -144 419 -316 663 -722 1024 -293 261 -584 474 -647 475 -187 2 -255 325 -101 479 195 194 512 77 769 -284 115 -162 289 -294 386 -294 127 0 177 -79 177 -284 0 -157 75 -392 166 -523 l167 -238 0 418 c0 373 -60 478 -547 970 -624 629 -1010 788 -1219 502 -105 -143 -162 -157 -254 -65 -93 93 -85 120 38 120 87 0 216 71 288 158 101 120 273 148 738 119 333 -21 685 -74 781 -118 147 -68 175 -29 175 244 0 191 -72 381 -175 461 -167 130 -167 142 0 272 221 172 241 764 25 764 -82 0 -150 68 -150 150 0 83 68 150 150 150 231 0 198 571 -37 646 -326 103 -687 -120 -1103 -682 -327 -443 -445 -536 -620 -490 -211 55 -210 60 47 194 144 76 263 203 263 282 0 78 90 191 200 250 110 59 200 192 200 296 0 411 797 767 1080 484 93 -93 120 -63 120 138 0 368 -320 418 -1061 163 -374 -128 -689 -181 -803 -135 -154 63 -118 100 210 217 217 77 490 230 606 339 229 215 556 254 844 100 172 -92 183 -33 187 955 5 1037 2 1052 -214 986 -293 -90 -469 -239 -469 -398 0 -425 -1417 -808 -1835 -497 -180 135 -180 145 0 392 102 140 224 255 272 257 48 2 34 -62 -32 -141 -182 -220 431 -517 759 -368 338 154 295 319 -64 247 -191 -38 -300 -19 -300 53 0 61 108 112 240 112 148 0 356 132 545 348 218 249 421 367 710 413 356 57 405 97 405 332 0 200 -70 296 -275 377 l-275 109 275 10 c364 14 352 178 -18 260 -435 95 -968 -91 -1413 -493 -497 -449 -632 -457 -539 -31 68 317 65 321 -125 150 -108 -96 -303 -175 -435 -175 l-240 0 226 158 c125 87 429 172 677 189 250 17 537 108 643 204 105 95 261 147 345 114 251 -96 184 272 -96 535 -137 129 -250 272 -250 317 0 145 276 89 336 -67 32 -82 110 -150 173 -150 85 0 83 39 -5 146 -163 196 -35 377 212 299 130 -41 250 1 348 121 107 132 163 149 201 59 170 -409 235 69 235 1728 l0 1852 -309 -160 c-436 -225 -449 -135 -42 297 381 404 418 634 256 1608 -48 287 -45 514 6 533 49 19 89 663 89 1431 l0 1397 -425 -30 c-353 -26 -430 -69 -457 -256 -24 -172 -98 -225 -310 -225 -226 0 -310 -72 -453 -389 -194 -429 -153 -686 178 -1135 390 -526 213 -1732 -287 -1959 -214 -98 -238 -169 -225 -661 12 -464 37 -533 156 -433 94 77 124 229 89 445 -43 268 -6 365 202 528 276 218 521 789 528 1235 2 176 45 256 113 213 102 -62 89 -267 -69 -1064 -30 -149 -141 -299 -247 -332 -241 -77 -255 -348 -18 -347 96 0 299 65 450 144 199 103 275 110 273 24 -2 -209 -140 -336 -447 -412 -443 -108 -551 -239 -551 -669 0 -214 -45 -388 -100 -388 -55 0 -100 68 -100 150 0 90 -92 150 -232 150 -187 0 -291 -122 -525 -616 -161 -339 -360 -649 -443 -689 -82 -39 -271 -128 -420 -197 -264 -124 -437 -374 -331 -480 29 -29 109 20 177 110 110 144 146 146 319 16 186 -139 187 -155 22 -320 -153 -152 -186 -155 -273 -24 -85 130 -117 125 -243 -40 -261 -342 17 -447 570 -214 138 58 163 28 127 -156 -79 -409 -290 -538 -641 -393 -189 78 -307 200 -307 315 0 103 -51 188 -112 188 -73 0 -92 115 -52 325 56 303 51 312 -88 131 -81 -107 -148 -248 -148 -314 0 -67 -64 -145 -143 -175 -113 -44 -131 21 -86 314 31 203 102 426 157 496 55 70 69 159 31 198 -93 92 -236 -142 -360 -588 -55 -200 -168 -419 -250 -488 -191 -159 -193 5 -2 257 81 107 148 354 150 549 2 195 56 408 121 473 65 65 84 153 41 195 -42 43 -184 -57 -315 -221 -195 -244 -261 -274 -366 -168 -104 106 -85 165 102 319 127 103 223 246 214 317 -51 376 36 575 340 783 577 395 773 786 832 1663 30 431 85 818 124 860 39 41 316 139 615 216 410 107 562 113 619 25 154 -238 14 -410 -417 -515 -243 -60 -464 -174 -491 -255 -38 -115 -18 -122 93 -34 77 62 275 98 438 80 163 -19 366 25 450 96 332 283 403 280 403 -15 0 -229 -67 -317 -325 -431 -230 -101 -360 -249 -444 -506 -124 -380 -74 -825 82 -729 50 31 69 91 42 133 -26 43 -5 231 47 418 68 244 202 398 472 541 l376 200 30 793 c23 625 -14 894 -175 1269 -243 563 -261 917 -55 1088 178 148 196 300 36 300 -179 0 -379 -324 -383 -620 -2 -154 -113 -381 -258 -525 -301 -302 -345 -312 -347 -80 -1 150 -15 153 -98 25 -74 -115 -97 -80 -97 150 0 385 192 723 199 350 3 -218 17 -227 106 -76 55 96 162 377 237 625 l135 451 -877 0 -877 0 -58 -357 c-32 -196 -17 -465 34 -597 100 -264 13 -1546 -105 -1546 -119 0 -170 449 -79 696 47 126 55 583 19 1016 l-66 788 -749 0 -749 0 63 -625 c35 -344 91 -768 124 -943 l61 -319 -627 19 -626 18 -109 384 c-60 211 -140 353 -178 315 -37 -38 -26 -180 25 -316 118 -309 120 -461 6 -391 -155 96 -336 982 -215 1056 181 112 -162 802 -398 802 -241 0 -243 -25 -33 -430 148 -286 430 -1197 433 -1399 0 -43 -78 -37 -174 12 -96 50 -346 122 -555 159 -427 77 -520 234 -629 1056 -37 279 -109 532 -161 564 -91 56 -56 -250 124 -1107 97 -458 59 -555 -216 -555 -456 0 -568 164 -640 936 l-69 738 -587 14 c-484 11 -576 -13 -528 -138 36 -95 -1 -150 -103 -150 -89 0 -161 67 -161 148 0 122 -189 147 -1060 144 -933 -4 -1039 -22 -875 -145 102 -77 236 -142 298 -144 62 -2 170 -72 241 -157 99 -120 101 -181 8 -274 -94 -94 -139 -90 -204 15 -58 94 -104 101 -151 24 -117 -189 -274 -122 -207 89 94 296 -93 243 -468 -133 -565 -565 -782 -875 -782 -1113 0 -126 -62 -281 -137 -343 -164 -136 -463 -44 -463 143 0 72 -79 211 -175 308 -167 168 -167 174 0 111 111 -42 175 -19 175 63 0 205 -111 265 -299 164 -258 -138 -545 104 -456 384 84 264 704 546 996 453 115 -37 212 -48 216 -27 4 22 86 -39 182 -135 278 -278 581 -183 678 212 43 175 -398 253 -580 102 -92 -76 -137 -79 -137 -7 0 58 45 134 100 168 217 134 77 215 -410 238 -392 17 -543 -19 -650 -158 -129 -165 -135 -165 -80 -5 50 143 3 175 -260 175 -268 0 -309 -29 -246 -175 76 -178 80 -302 18 -698 -43 -280 -172 -420 -172 -187 0 124 -53 157 -188 114 -253 -80 -365 222 -164 443 294 326 193 503 -287 503 -503 0 -580 -104 -490 -660 42 -257 26 -350 -50 -303 -60 37 -140 269 -177 515 -45 303 -115 448 -218 448 -116 0 -136 -73 -88 -315 35 -174 119 -383 187 -465 234 -282 175 -707 -129 -923 -154 -110 -310 -335 -346 -499 -104 -471 -283 -238 -212 276 51 371 36 437 -88 390 -91 -35 -150 0 -150 89 0 81 -45 147 -100 147 -55 0 -100 -112 -100 -250 0 -137 -45 -250 -100 -250 -55 0 -100 136 -100 303 0 361 226 485 460 251 209 -209 577 -161 623 81 60 315 -85 881 -214 834 -65 -24 -105 -103 -88 -175 122 -513 132 -694 38 -694 -140 0 -230 304 -237 797 -3 220 -45 376 -94 346 -48 -30 -88 -158 -88 -283 0 -237 -278 -560 -483 -560 -64 0 -117 -110 -117 -244 0 -266 -149 -420 -249 -258 -94 153 -251 123 -251 -48 0 -82 -45 -150 -100 -150 -173 0 -108 403 75 469 375 133 417 228 242 537 -92 162 -223 273 -292 247 -69 -26 -125 -2 -125 53 0 148 309 241 386 117 36 -59 189 -138 340 -176 208 -52 274 -32 274 81 0 199 -214 272 -800 272 -465 0 -487 -13 -554 -325 -38 -179 -105 -370 -149 -425 -43 -55 -111 -269 -149 -475 -71 -380 13 -474 230 -257 65 65 148 90 183 54 36 -35 -58 -121 -208 -189 -252 -114 -268 -157 -209 -529 36 -222 91 -704 123 -1071 48 -539 95 -676 246 -715 123 -33 167 -105 127 -209 -84 -218 -259 -199 -536 59 l-234 218 -235 -274 c-129 -150 -235 -388 -235 -529 0 -230 -28 -249 -275 -184 -151 39 -500 92 -775 118 -423 40 -538 11 -748 -185 -137 -128 -288 -219 -337 -203 -48 16 -193 -40 -321 -124 -162 -106 -254 -119 -301 -43 -75 120 148 888 257 888 150 0 288 816 347 2050 67 1420 136 2141 214 2268 28 45 8 82 -43 82 -143 0 -194 -289 -332 -1904 -69 -816 -159 -1463 -199 -1438 -95 59 -217 -328 -142 -449 31 -52 -49 -419 -178 -818 -145 -445 -265 -676 -312 -600 -42 69 5 335 104 592 132 344 181 760 185 1582 3 613 40 1094 81 1069 41 -25 75 -111 75 -190 0 -79 37 -144 83 -144 46 0 88 232 95 515 11 488 -109 569 -201 135 -23 -110 -61 9 -84 265 -24 256 -14 448 22 426 97 -60 185 233 185 617 0 398 -211 463 -378 117 l-108 -225 -7 229 c-6 204 -52 226 -407 206 -240 -15 -400 -74 -400 -149z m8600 35 c0 -16 -86 -198 -192 -405 -166 -325 -200 -349 -254 -177 -39 121 5 278 114 404 151 177 332 274 332 178z m4755 -418 c169 -404 186 -653 45 -653 -55 0 -100 93 -100 207 0 246 -172 593 -294 593 -48 0 -76 -226 -62 -502 17 -358 79 -544 215 -647 105 -80 140 -146 78 -148 -62 -2 -168 64 -235 145 -86 104 -175 120 -296 55 -96 -51 -271 -67 -390 -36 -126 33 -216 10 -216 -55 0 -62 -88 -112 -195 -112 -194 0 -394 -462 -411 -950 -6 -180 -16 -177 -99 31 -52 128 -139 204 -194 170 -127 -79 -129 63 -5 389 124 325 812 760 1202 760 231 0 305 47 315 200 6 110 23 245 37 300 14 55 31 213 38 350 19 395 388 332 567 -97z m-2155 47 c0 -55 -48 -100 -106 -100 -58 0 -78 45 -44 100 34 55 82 100 106 100 24 0 44 -45 44 -100z m-10520 -220 c146 -146 160 -580 18 -580 -98 0 -298 408 -298 607 0 129 137 116 280 -27z m23810 -255 c-9 -335 -19 -348 -90 -125 -114 357 -114 500 0 500 55 0 96 -169 90 -375z m-19340 -32 c0 -77 -79 -155 -175 -174 -172 -33 -244 179 -106 316 105 105 281 16 281 -142z m6676 18 c49 -188 -73 -498 -161 -408 -54 56 -94 296 -77 472 18 192 183 148 238 -64z m11901 -236 c-67 -522 -83 -544 -219 -289 -79 147 -77 272 8 458 175 385 272 308 211 -169z m-9427 225 c0 -55 -45 -100 -100 -100 -55 0 -100 45 -100 100 0 55 45 100 100 100 55 0 100 -45 100 -100z m-6397 -695 c-189 -352 -308 -224 -126 135 95 188 187 280 204 206 18 -75 -18 -228 -78 -341z m5754 138 c-37 -147 -89 -244 -117 -217 -27 28 -20 170 17 317 37 146 90 244 117 216 28 -27 20 -170 -17 -316z m-4809 -48 c-87 -167 -170 -516 -185 -775 -15 -258 -69 -447 -119 -420 -50 28 -77 129 -61 225 16 96 -2 175 -41 175 -38 0 -134 -79 -213 -175 -150 -184 -146 -110 44 675 53 219 41 234 -99 119 -137 -113 -151 -103 -104 77 30 114 90 229 134 256 101 63 232 -513 148 -650 -35 -56 -22 -102 29 -102 50 0 169 203 264 450 94 248 214 450 266 450 52 0 23 -137 -63 -305z m2570 155 c-10 -55 -74 -100 -143 -100 -69 0 -149 -87 -178 -193 -29 -106 -112 -212 -185 -236 -148 -50 -70 326 116 558 117 147 417 124 390 -29z m-2349 -499 c-120 -247 -233 -408 -249 -359 -47 139 258 808 369 808 54 0 1 -202 -120 -449z m13906 -23 c158 -338 172 -669 17 -403 -140 240 -320 221 -242 -25 85 -269 7 -252 -184 40 -127 194 -135 287 -40 488 140 296 279 265 449 -100z m-10163 -256 c-83 -83 -112 -70 -112 47 0 280 -288 292 -467 19 -132 -201 -140 -272 -39 -334 89 -56 95 -99 17 -147 -63 -39 -162 45 -230 195 -146 320 -23 565 328 654 300 76 682 -255 503 -434z m-7412 228 c0 -55 -70 -100 -156 -100 -86 0 -128 45 -94 100 34 55 104 100 156 100 52 0 94 -45 94 -100z m2560 -345 c-76 -305 -217 -332 -289 -55 -32 124 10 236 112 293 217 121 255 70 177 -238z m7066 101 c-26 -134 26 -389 115 -567 91 -184 133 -414 96 -530 -64 -202 -67 -202 -148 18 -45 122 -152 223 -236 223 -84 0 -153 73 -153 162 0 133 -27 140 -149 39 -96 -80 -129 -218 -92 -387 44 -205 33 -230 -49 -114 -59 83 -108 299 -108 481 -1 182 -42 306 -91 276 -135 -84 -207 322 -76 430 63 51 228 115 365 140 534 98 574 85 526 -171z m752 88 c122 -85 224 -119 226 -75 2 45 71 -43 153 -194 82 -151 211 -275 285 -275 167 0 224 -155 206 -558 -21 -432 -127 -584 -307 -435 -114 95 -141 77 -141 -95 0 -116 -42 -212 -94 -212 -136 0 -171 590 -61 1022 118 464 -2 603 -254 292 -105 -130 -195 -220 -199 -200 -5 20 -24 126 -42 236 -19 110 -65 301 -103 425 -82 264 22 286 331 69z m1354 -65 c100 -51 394 -82 655 -68 260 14 524 -6 586 -45 62 -38 139 -27 171 24 31 51 180 60 331 20 346 -92 711 -789 719 -1372 4 -253 83 -509 208 -668 137 -174 166 -278 90 -325 -139 -86 -721 536 -656 703 25 68 -39 254 -144 413 -105 159 -191 463 -191 676 -1 333 -22 370 -151 263 -82 -68 -150 -185 -150 -259 0 -74 -63 -111 -140 -81 -77 29 -169 6 -206 -53 -104 -169 -226 -125 -286 103 -30 116 -98 183 -151 151 -53 -33 -123 10 -156 96 -77 202 -261 88 -261 -163 0 -259 -56 -246 -389 95 -155 159 -380 341 -500 405 -119 64 -190 159 -158 211 62 100 467 34 779 -126z m-7397 -104 c-43 -124 -81 -438 -85 -698 -7 -498 -247 -945 -253 -472 l-4 245 -187 -225 c-238 -284 -270 -282 -348 27 -81 324 82 625 359 666 253 37 376 282 141 282 -211 0 -201 165 17 292 306 178 447 132 360 -117z m12465 -31 c0 -90 -103 -144 -275 -145 -151 0 -399 -65 -550 -144 -252 -131 -275 -128 -275 39 0 186 258 302 675 305 124 0 225 49 225 107 0 58 45 78 100 44 55 -34 100 -127 100 -206z m-16350 56 c34 -55 -8 -100 -94 -100 -86 0 -156 45 -156 100 0 55 42 100 94 100 52 0 122 -45 156 -100z m300 0 c-34 -55 -82 -100 -106 -100 -24 0 -44 45 -44 100 0 55 48 100 106 100 58 0 78 -45 44 -100z m-984 -325 c-28 -69 -50 -12 -50 125 0 138 22 194 50 125 28 -69 28 -181 0 -250z m5680 80 c-31 -275 -284 -684 -370 -597 -31 31 5 175 80 320 98 189 106 284 26 333 -69 43 -40 87 78 117 105 27 195 54 201 60 6 7 -1 -98 -15 -233z m-446 45 c0 -55 -45 -100 -100 -100 -55 0 -100 45 -100 100 0 55 45 100 100 100 55 0 100 -45 100 -100z m3409 -309 l-96 -241 -7 258 c-3 142 27 291 67 332 119 118 140 -88 36 -349z m-13109 3 c0 -52 -45 -94 -100 -94 -55 0 -100 70 -100 156 0 86 45 128 100 94 55 -34 100 -104 100 -156z m11200 50 c0 -24 -45 -44 -100 -44 -55 0 -100 48 -100 106 0 58 45 78 100 44 55 -34 100 -82 100 -106z m-301 -276 c2 -157 -447 -17 -479 150 -28 147 1 153 223 50 141 -65 256 -155 256 -200z m-1291 -78 c-88 -221 -96 -223 -102 -32 -3 115 24 239 61 275 119 120 139 1 41 -243z m3078 -165 c-7 -261 -32 -376 -56 -256 -27 142 -94 200 -186 165 -79 -31 -144 -16 -144 33 0 101 288 533 356 533 24 0 38 -214 30 -475z m-1228 175 c208 0 174 -155 -37 -171 -119 -9 -183 60 -190 204 -6 119 11 161 38 92 26 -69 111 -125 189 -125z m-4410 -98 c144 -159 156 -227 57 -346 -67 -81 -96 -190 -63 -243 74 -120 -34 -413 -153 -413 -49 0 -90 124 -92 275 -3 250 -15 259 -136 100 -244 -322 -273 -206 -175 700 21 192 362 148 562 -73z m2212 -175 c-33 -33 -56 26 -52 131 5 117 28 141 60 61 29 -72 26 -159 -8 -192z m-3285 -224 c234 -347 295 -748 128 -851 -53 -33 -126 54 -161 194 -35 140 -126 254 -203 254 -163 0 -177 -186 -41 -543 128 -337 -40 -338 -260 -2 -149 226 -153 317 -36 803 72 301 180 532 240 512 59 -19 209 -185 333 -367z m4609 61 c-163 -313 -162 -313 -372 -54 -242 299 -202 369 181 312 273 -40 291 -65 191 -258z m9676 63 c-33 -33 -56 26 -52 131 5 117 28 141 60 61 29 -72 26 -159 -8 -192z m-20320 -182 c-16 -557 -213 -647 -224 -102 -5 297 34 457 113 457 74 0 117 -138 111 -355z m19560 266 c0 -123 -282 -221 -344 -121 -28 45 -22 111 13 146 96 95 331 77 331 -25z m-6463 -392 c-34 -148 -108 -314 -164 -369 -67 -67 -80 -18 -38 150 34 138 63 331 64 431 0 99 46 153 101 119 56 -34 72 -183 37 -331z m1163 281 c0 -55 -45 -100 -100 -100 -55 0 -100 45 -100 100 0 55 45 100 100 100 55 0 100 -45 100 -100z m-4159 -391 c263 -274 268 -297 93 -391 -102 -54 -388 -114 -635 -132 -421 -31 -451 -16 -480 231 -21 184 39 312 198 423 326 229 508 200 824 -131z m1532 33 c17 -135 5 -147 -40 -42 -35 83 -112 187 -173 233 -71 53 -56 68 40 41 83 -22 160 -127 173 -232z m8393 -67 c-28 -69 -50 -12 -50 125 0 138 22 194 50 125 28 -69 28 -181 0 -250z m-7854 -42 c-87 -150 -106 -155 -109 -25 -3 169 102 320 173 250 23 -24 -5 -125 -64 -225z m4314 -227 c113 -435 40 -605 -228 -534 -287 75 -347 269 -196 634 155 372 312 335 424 -100z m3234 139 c35 -140 37 -281 4 -314 -98 -98 -364 180 -364 381 0 280 286 227 360 -67z m4486 -70 c-79 -367 -241 -713 -305 -650 -23 24 7 196 67 384 60 187 127 397 148 466 82 270 156 106 90 -200z m-10480 -200 c-28 -69 -50 -12 -50 125 0 138 22 194 50 125 28 -69 28 -181 0 -250z m-6010 -429 c-55 -291 -288 -546 -499 -546 -32 0 -57 145 -57 321 0 231 78 384 275 542 311 249 374 178 281 -317z m1144 358 c0 -52 -181 -286 -402 -518 -429 -452 -622 -436 -528 44 41 210 128 295 345 338 159 32 313 97 343 145 72 117 242 111 242 -9z m8497 -50 c98 -118 80 -206 -92 -446 l-213 -300 208 -208 c114 -114 180 -251 148 -304 -99 -159 -207 -110 -350 157 -86 161 -206 243 -329 225 -127 -18 -224 53 -281 203 -75 202 -61 224 113 169 233 -74 599 22 599 157 0 51 -68 93 -151 93 -126 0 -130 33 -26 200 149 239 213 248 374 54z m2935 -41 c-70 -268 -609 -831 -682 -713 -105 171 -543 110 -723 -100 -237 -277 -346 -250 -309 75 27 230 81 276 332 281 752 16 877 54 1131 344 310 353 315 355 251 113z m-9472 -186 c-33 -33 -56 26 -52 131 5 117 28 141 60 61 29 -72 26 -159 -8 -192z m848 -469 c-115 -121 -208 -274 -208 -339 0 -66 -49 -108 -109 -94 -115 26 -233 -139 -341 -475 -59 -187 -70 -189 -163 -23 -80 142 -18 271 307 640 223 253 406 564 406 689 0 315 242 374 283 68 19 -146 -51 -334 -175 -466z m6511 674 c-72 -29 -159 -26 -192 8 -33 33 26 56 131 52 117 -5 141 -28 61 -60z m-7619 -138 c0 -58 -45 -78 -100 -44 -55 34 -100 82 -100 106 0 24 45 44 100 44 55 0 100 -48 100 -106z m2712 -342 c87 -541 24 -652 -371 -652 -278 0 -348 45 -401 254 -42 168 -9 315 98 433 89 98 162 235 162 303 0 71 95 110 224 92 175 -25 237 -118 288 -430z m-9052 97 c297 -297 225 -556 -79 -282 -110 100 -242 260 -294 357 -142 265 77 221 373 -75z m2578 -642 c-104 -419 -405 -543 -455 -188 -22 153 -100 231 -233 231 -277 0 -310 365 -54 596 114 104 204 134 204 69 0 -189 300 -130 304 60 3 120 54 83 163 -119 119 -220 137 -382 71 -649z m8542 542 c73 -455 117 -490 327 -265 238 256 326 267 496 63 142 -172 -15 -337 -528 -555 -151 -64 -275 -156 -275 -204 0 -137 329 -98 544 65 255 193 547 187 624 -13 73 -192 -121 -334 -368 -269 -263 69 -339 -145 -104 -292 323 -201 256 -399 -121 -362 -286 29 -325 4 -325 -208 0 -337 -205 -370 -405 -66 -211 322 -345 245 -345 -199 0 -311 -27 -344 -283 -344 -361 0 -436 78 -307 319 95 178 76 187 -253 126 -235 -44 -357 -29 -357 44 0 61 95 111 212 111 162 0 199 47 159 200 -39 148 -3 200 138 200 105 0 191 64 191 142 0 78 26 211 59 295 48 125 -4 143 -280 98 -358 -58 -501 41 -620 428 -74 242 201 417 378 240 166 -166 263 -120 263 127 0 220 164 470 308 470 38 0 121 -208 184 -461 137 -542 364 -823 531 -656 81 81 67 127 -49 172 -171 65 -335 765 -223 947 106 170 393 68 429 -153z m-5502 -5 c222 -155 276 -387 161 -686 -94 -245 -239 -187 -239 96 0 139 -73 364 -162 500 -184 281 -85 318 240 90z m1120 -19 c0 -41 -45 -142 -98 -225 -78 -121 -97 -107 -98 75 -1 124 43 225 98 225 55 0 99 -34 98 -75z m7383 -116 c31 -95 -5 -121 -110 -81 -86 33 -210 -4 -275 -83 -149 -179 -296 -96 -296 167 0 165 56 195 317 169 175 -17 338 -94 364 -172z m5119 91 c0 -55 -19 -100 -42 -100 -23 0 -113 -28 -201 -61 -117 -45 -143 -18 -97 100 67 175 340 224 340 61z m-14750 -100 c-34 -55 -82 -100 -106 -100 -24 0 -44 45 -44 100 0 55 48 100 106 100 58 0 78 -45 44 -100z m-3063 -255 c31 -163 14 -171 -125 -55 -192 159 -215 344 -37 285 69 -23 141 -126 162 -230z m-1837 55 c34 -55 17 -100 -38 -100 -55 0 -128 45 -162 100 -34 55 -17 100 38 100 55 0 128 -45 162 -100z m-1050 -138 c0 -74 -303 -762 -336 -762 -18 0 -131 85 -250 188 -274 238 -196 563 97 406 147 -79 206 -67 251 52 51 133 238 224 238 116z m2507 -202 c157 -133 341 -259 409 -282 164 -55 -260 -750 -496 -814 -655 -176 -703 -169 -919 135 -258 362 -194 531 152 400 249 -95 547 -41 547 99 0 43 -67 134 -150 202 -200 166 -193 500 11 500 88 0 289 -108 446 -240z m13939 33 c-86 -139 -146 -113 -146 63 0 86 46 128 102 93 56 -35 75 -105 44 -156z m4321 -235 c-33 -87 -124 -158 -202 -158 -182 0 -276 349 -133 492 148 148 417 -120 335 -334z m-21684 104 c24 -121 -10 -168 -98 -137 -74 26 -214 7 -310 -42 -124 -64 -175 -51 -175 43 0 363 517 483 583 136z m6081 -72 c-222 -317 -831 -696 -1008 -629 -173 67 -213 239 -56 239 55 0 100 53 100 117 0 245 311 451 706 466 392 15 400 9 258 -193z m14591 -134 c72 -379 6 -556 -207 -556 -217 0 -348 -336 -348 -889 0 -718 -403 -1511 -767 -1511 -73 0 -133 -68 -133 -150 0 -256 266 -166 587 200 169 193 323 350 343 350 19 0 17 -125 -6 -279 -38 -263 -540 -721 -790 -721 -170 0 -459 379 -383 502 45 73 4 103 -115 83 -102 -18 -208 13 -236 67 -28 56 156 111 426 129 669 42 823 289 697 1118 -81 538 -71 622 84 705 97 51 281 364 409 695 128 331 265 601 304 601 39 0 100 -155 135 -344z m-18582 119 c-24 -69 -121 -111 -216 -94 -228 41 -457 -159 -457 -400 0 -156 -45 -181 -225 -125 -304 93 -308 99 -237 382 68 269 211 333 795 350 267 8 370 -26 340 -113z m-3873 -175 c-67 -42 -218 -50 -336 -18 -205 54 -204 59 36 122 287 74 480 7 300 -104z m22843 -121 c-39 -123 -12 -236 69 -286 104 -65 85 -133 -90 -319 -146 -156 -227 -377 -238 -648 -12 -307 -63 -423 -200 -459 -160 -42 -184 15 -184 437 0 379 55 545 250 755 148 160 250 389 250 562 0 176 41 265 104 226 57 -35 75 -156 39 -268z m-14699 -124 c-191 -292 -525 -507 -627 -405 -37 36 106 224 316 417 428 392 572 386 311 -12z m-7044 74 c0 -176 -265 -164 -334 14 -37 97 9 139 140 129 107 -8 194 -72 194 -143z m12298 -25 c85 -159 65 -217 -107 -309 -267 -143 -397 -14 -284 280 106 277 252 288 391 29z m5511 -235 c-79 -79 -109 -53 -109 94 0 265 140 405 184 185 19 -93 -14 -218 -75 -279z m-8255 224 c36 -58 -23 -130 -132 -158 -108 -29 -257 -172 -330 -318 -234 -467 -313 -544 -407 -397 -128 203 -109 245 290 623 404 383 478 415 579 250z m-9104 -93 c-34 -55 -82 -100 -106 -100 -24 0 -44 45 -44 100 0 55 48 100 106 100 58 0 78 -45 44 -100z m4650 0 c0 -55 -67 -100 -150 -100 -82 0 -150 45 -150 100 0 55 68 100 150 100 83 0 150 -45 150 -100z m5389 -75 c93 -164 109 -162 249 25 143 192 157 192 330 23 172 -171 170 -195 -64 -636 -134 -252 -302 -481 -374 -508 -71 -28 -130 -98 -130 -156 0 -59 27 -79 60 -46 33 33 167 20 297 -30 219 -83 233 -70 181 187 -66 329 79 472 541 537 330 46 514 -52 323 -170 -178 -110 -110 -351 98 -351 110 0 200 -42 200 -93 0 -114 -389 -254 -616 -221 -277 40 -298 -154 -36 -326 217 -142 233 -192 133 -411 -62 -137 -191 -249 -285 -249 -95 0 -196 -90 -225 -200 -80 -307 -338 -238 -464 124 l-113 323 -253 -423 c-272 -458 -441 -543 -441 -224 0 227 -104 256 -280 80 -90 -90 -148 -92 -235 -5 -150 150 127 589 470 746 254 115 342 479 117 479 -70 0 -205 -90 -299 -200 -189 -221 -716 -272 -834 -82 -43 69 17 178 144 262 119 80 217 220 217 312 0 299 178 385 554 267 254 -79 346 -165 346 -323 0 -118 74 -243 164 -278 231 -88 300 17 158 244 -101 161 -88 209 79 299 256 136 259 338 5 272 -144 -38 -216 17 -279 213 -166 516 38 935 262 539z m-11239 -25 c-34 -55 -152 -100 -262 -100 -110 0 -172 45 -138 100 34 55 152 100 262 100 110 0 172 -45 138 -100z m6198 -197 c173 -192 170 -201 -91 -300 -388 -148 -984 -134 -933 22 23 69 151 141 284 160 133 19 278 97 322 175 108 190 206 176 418 -57z m12143 -748 c-56 -58 -91 -18 -91 105 0 110 -52 252 -116 316 -87 87 -81 157 25 285 127 153 147 131 206 -221 37 -214 25 -433 -24 -485z m-18091 539 c0 -52 -45 -94 -100 -94 -55 0 -100 70 -100 156 0 86 45 128 100 94 55 -34 100 -104 100 -156z m3258 -272 c663 -240 846 -357 1122 -719 219 -287 306 -486 257 -593 -40 -88 -72 -280 -70 -426 3 -246 -15 -258 -238 -156 -163 74 -227 169 -195 291 60 229 -118 239 -205 12 -36 -94 -13 -186 53 -208 65 -22 118 -96 118 -166 0 -69 90 -207 200 -307 270 -244 252 -493 -50 -691 -258 -169 -331 -415 -142 -478 125 -42 -84 -581 -225 -581 -47 0 -29 89 39 198 98 157 97 223 -3 323 -101 101 -137 82 -184 -98 -91 -349 -269 -268 -197 90 34 171 62 348 62 393 0 44 83 107 185 139 101 32 237 173 300 313 148 323 4 616 -345 703 -162 41 -220 99 -159 160 113 113 37 479 -99 479 -53 0 -67 90 -32 200 35 110 20 200 -33 200 -145 0 -233 -310 -124 -441 52 -64 59 -175 14 -248 -48 -78 -107 -92 -142 -35 -94 151 -112 667 -29 802 140 225 -43 346 -246 163 -182 -165 -190 -161 -190 88 0 312 -175 452 -267 213 -61 -159 -74 -158 -194 7 -71 97 -197 150 -279 119 -93 -36 -173 16 -212 137 -73 232 -204 253 -284 45 -74 -191 -264 -196 -264 -6 0 79 -52 176 -115 215 -79 49 -96 -3 -53 -171 33 -133 -1 -421 -77 -640 -119 -346 -177 -398 -441 -401 -180 -2 -409 -102 -559 -242 -140 -132 -281 -212 -314 -180 -111 112 135 409 470 567 278 132 346 230 408 595 41 240 155 501 253 579 279 224 1533 101 2486 -244z m4542 284 c0 -173 -176 -205 -301 -55 -103 124 -88 149 89 149 116 0 212 -42 212 -94z m10854 -499 c-36 -59 -139 -107 -229 -107 -137 0 -131 23 31 142 209 153 304 136 198 -35z m-11754 -32 c0 -104 -476 -95 -541 10 -29 48 81 81 244 75 163 -5 297 -44 297 -85z m1082 -151 c39 -275 -137 -294 -278 -31 -145 270 -131 327 71 288 96 -18 189 -134 207 -257z m-6632 -224 c-34 -55 -82 -100 -106 -100 -24 0 -44 45 -44 100 0 55 48 100 106 100 58 0 78 -45 44 -100z m5975 18 c96 -10 175 -85 175 -168 0 -179 -116 -194 -276 -34 -87 87 -152 85 -265 -9 -82 -68 -242 -94 -354 -59 -171 55 -205 22 -205 -198 0 -228 -30 -254 -225 -192 -350 112 -500 103 -548 -33 -24 -69 16 -126 90 -128 180 -4 534 -280 457 -356 -34 -34 -164 11 -290 99 -287 201 -484 205 -484 10 0 -188 -74 -190 -257 -7 -186 186 -181 257 21 257 217 0 428 290 436 600 l7 250 203 -245 c168 -202 220 -219 296 -100 50 80 76 190 56 245 -32 88 600 124 1163 68z m15214 -74 c33 -86 100 -132 150 -101 49 31 117 -14 150 -100 33 -86 105 -128 160 -93 56 34 101 14 101 -44 0 -58 -21 -106 -47 -106 -40 0 -737 304 -838 365 -60 37 92 235 180 235 46 0 111 -70 144 -156z m-17289 -237 c0 -358 -219 -364 -271 -7 -36 242 -11 302 113 278 92 -18 158 -131 158 -271z m13150 193 c0 -55 -48 -100 -106 -100 -58 0 -78 45 -44 100 34 55 82 100 106 100 24 0 44 -45 44 -100z m-10400 -394 c0 -250 -196 -373 -310 -194 -145 230 -101 388 110 388 131 0 200 -67 200 -194z m-757 -158 c106 -80 161 -178 122 -216 -39 -39 -169 28 -290 149 -246 245 -130 292 168 67z m14972 52 c149 0 191 -56 167 -225 -25 -173 -108 -232 -358 -256 -224 -22 -344 17 -385 125 -92 238 39 486 220 416 87 -33 247 -60 356 -60z m-13656 -574 c-109 -110 -184 64 -106 245 74 171 80 171 121 -4 24 -100 17 -209 -15 -241z m9241 274 c0 -55 -45 -100 -100 -100 -55 0 -100 45 -100 100 0 55 45 100 100 100 55 0 100 -45 100 -100z m1618 -122 c-71 -71 -118 -77 -118 -15 0 57 30 134 67 170 36 37 90 44 118 15 28 -28 -2 -105 -67 -170z m-17318 -72 c0 -107 -45 -222 -100 -256 -57 -35 -100 49 -100 194 0 141 45 256 100 256 55 0 100 -87 100 -194z m-2002 -58 c-70 -84 -153 -127 -184 -95 -32 32 8 100 89 151 212 134 239 117 95 -56z m9171 73 c157 -100 348 -612 273 -733 -32 -53 -142 -70 -243 -38 -114 37 -219 -4 -276 -106 -114 -203 -459 -152 -503 75 -36 190 379 879 530 878 55 0 153 -34 219 -76z m-6405 -271 c31 -82 165 -150 297 -150 265 0 330 -244 89 -336 -82 -32 -150 -25 -150 15 0 41 -101 118 -224 172 -124 55 -240 178 -258 274 -40 213 166 234 246 25z m5336 -50 c0 -55 -45 -100 -100 -100 -55 0 -100 45 -100 100 0 55 45 100 100 100 55 0 100 -45 100 -100z m11375 -25 c-23 -69 -126 -141 -230 -162 -163 -31 -171 -14 -55 125 159 192 344 215 285 37z m-18329 -250 c-41 -96 -108 -355 -148 -575 -70 -385 -73 -379 -85 175 -11 467 17 575 148 575 115 0 139 -50 85 -175z m506 -25 c154 0 292 -348 199 -499 -118 -190 -369 -115 -304 91 34 105 14 220 -43 255 -57 36 -100 141 -96 234 5 104 27 121 58 44 28 -69 111 -125 186 -125z m3798 100 c41 -67 131 -64 265 8 237 127 308 90 191 -99 -95 -154 -806 -69 -806 96 0 126 271 122 350 -5z m14315 -151 c-91 -67 -165 -204 -165 -306 0 -174 -11 -175 -167 -19 -156 156 -151 180 75 362 132 108 282 170 332 139 50 -30 16 -110 -75 -176z m2191 141 c90 -145 -154 -590 -323 -590 -163 0 -168 114 -17 445 125 274 232 320 340 145z m-18256 -284 c0 -196 -169 -370 -266 -274 -78 79 65 468 173 468 51 0 93 -87 93 -194z m1060 -79 c-101 -102 -185 51 -102 186 63 102 87 102 121 1 23 -70 15 -154 -19 -187z m1879 -386 c-42 -168 -12 -258 104 -302 132 -51 457 -522 457 -662 0 -19 -231 -32 -514 -30 -445 3 -541 -33 -718 -270 -113 -151 -170 -308 -128 -350 42 -42 134 2 204 98 71 96 233 175 362 175 230 0 228 -6 -78 -325 -172 -179 -406 -426 -520 -550 -206 -223 -477 -317 -358 -125 34 55 -31 100 -144 100 -118 0 -206 -65 -206 -153 0 -84 -67 -179 -150 -211 -82 -31 -150 -123 -150 -202 0 -124 33 -122 222 10 281 197 495 200 235 4 -106 -80 -162 -176 -125 -214 93 -92 575 174 509 281 -115 186 138 70 359 -165 194 -207 206 -250 67 -250 -224 0 -213 -172 15 -244 291 -93 742 -621 773 -906 22 -202 -32 -288 -238 -376 -355 -152 -347 -144 -264 -278 135 -220 119 -896 -21 -896 -73 0 -138 45 -144 100 -7 55 -21 134 -31 175 -157 650 -164 746 -57 875 137 165 50 363 -130 294 -176 -68 -171 -2260 5 -2319 202 -67 143 -325 -75 -325 -222 0 -269 -151 -75 -242 100 -46 100 -70 0 -116 -173 -81 -157 -242 25 -242 100 0 150 -100 150 -300 0 -165 -45 -300 -100 -300 -55 0 -100 45 -100 100 0 55 -71 100 -157 100 -111 0 -138 -58 -93 -200 87 -275 -169 -358 -478 -155 -134 88 -318 131 -408 97 -107 -41 -164 -11 -164 85 0 184 318 463 368 323 127 -359 213 -384 500 -141 230 194 275 299 233 540 -68 387 -320 433 -822 151 -216 -121 -410 -202 -432 -181 -22 22 28 170 110 329 83 159 128 348 100 420 -64 167 -288 175 -232 8 22 -68 -60 -203 -183 -300 -273 -215 -411 -230 -242 -26 121 146 41 204 -225 162 -41 -7 -75 33 -75 88 0 55 68 100 150 100 83 0 150 48 150 106 0 58 -50 75 -111 37 -76 -47 -87 6 -35 169 67 211 57 222 -90 100 -90 -75 -164 -91 -164 -36 0 55 68 156 151 225 95 79 118 167 62 237 -116 145 36 549 235 625 161 62 214 337 64 337 -48 0 -144 -68 -214 -152 -111 -135 -143 -129 -268 50 -78 111 -206 202 -286 202 -79 0 -144 44 -144 97 0 53 73 69 162 34 147 -56 146 -36 -7 197 -160 244 -160 282 -2 615 93 195 200 336 238 313 38 -24 128 -6 202 39 157 98 57 305 -149 305 -97 0 -144 111 -144 343 0 284 -75 405 -435 700 -240 196 -492 357 -562 357 -78 0 -106 78 -72 206 31 119 -1 227 -74 255 -169 65 -76 539 105 539 91 0 138 -119 138 -351 0 -316 44 -373 439 -565 379 -184 463 -284 618 -743 99 -291 214 -509 256 -483 85 53 -183 1042 -322 1187 -56 59 29 135 222 200 239 80 354 210 484 544 134 344 185 401 239 261 38 -98 40 -268 5 -377 -62 -196 -59 -196 196 -11 342 249 434 538 222 694 -152 111 -148 151 57 499 126 213 242 322 266 250 23 -71 -13 -162 -80 -204 -88 -54 -92 -96 -13 -144 145 -90 311 17 311 199 0 92 103 144 285 144 161 0 366 90 472 208 l188 208 177 -218 c113 -140 155 -304 117 -457z m3656 314 c274 -291 212 -555 -130 -555 -345 0 -492 215 -370 538 124 325 208 328 500 17z m11005 145 c0 -55 -67 -100 -150 -100 -82 0 -150 -42 -150 -93 0 -52 -101 -125 -225 -164 -124 -38 -258 -120 -298 -181 -47 -71 -75 -48 -75 59 -2 135 443 426 873 571 14 4 25 -37 25 -92z m-13600 -194 c0 -46 -90 -106 -200 -135 -223 -58 -259 30 -84 205 119 119 284 78 284 -70z m10549 96 c29 -47 -88 -225 -259 -397 -228 -228 -345 -283 -437 -208 -168 140 -73 584 133 626 333 69 511 62 563 -21z m1749 23 c0 -41 -39 -135 -86 -208 -69 -109 -95 -106 -141 15 -32 82 -30 175 3 208 84 84 226 75 224 -15z m-19496 -519 c-104 -362 -295 -700 -299 -529 -2 69 52 302 119 517 139 446 307 457 180 12z m19657 20 c-109 -110 -184 64 -106 245 74 171 80 171 121 -4 24 -100 17 -209 -15 -241z m904 116 c-157 -139 -315 -221 -350 -183 -34 37 -4 89 68 115 71 25 184 108 250 182 65 75 164 137 219 137 55 0 -29 -113 -187 -251z m-16466 -17 c-4 -98 -253 -425 -324 -425 -30 0 -2 112 61 249 109 234 270 342 263 176z m-1450 -120 c75 -121 -290 -321 -465 -254 -72 28 -304 -128 -515 -345 -211 -218 -537 -447 -725 -509 -221 -73 -342 -176 -342 -293 0 -99 -66 -234 -147 -301 -110 -92 -146 -355 -144 -1056 2 -881 19 -955 297 -1304 162 -204 294 -477 294 -607 0 -145 59 -236 154 -236 113 0 130 45 63 175 -50 96 -121 419 -159 717 -78 607 -220 943 -363 855 -124 -77 -123 467 2 795 67 175 146 235 257 193 105 -40 126 -95 61 -160 -109 -109 -39 -771 98 -920 51 -56 87 9 87 160 0 286 270 885 399 885 46 0 291 -88 543 -196 323 -139 458 -255 458 -395 0 -153 -50 -186 -225 -146 -471 108 -528 81 -750 -359 -147 -292 -225 -626 -225 -964 0 -492 27 -546 534 -1060 459 -467 563 -529 750 -446 119 53 216 135 216 181 0 118 -175 107 -250 -16 -76 -121 -1050 777 -1050 968 0 73 45 133 100 133 55 0 100 -45 100 -100 0 -55 114 -100 253 -100 139 0 277 -61 305 -135 30 -79 147 -117 280 -92 161 31 275 -28 388 -200 140 -214 142 -279 19 -516 -77 -149 -134 -302 -127 -339 26 -128 -139 -418 -238 -418 -54 0 -334 202 -623 448 -289 247 -689 517 -889 601 -239 100 -386 238 -427 402 -35 137 -117 249 -183 249 -155 0 -593 771 -464 816 62 22 63 177 2 434 -186 784 -205 1510 -47 1812 82 159 150 337 150 398 1 170 376 467 495 393 59 -36 134 5 167 91 33 86 139 156 234 156 96 0 255 90 355 200 100 110 236 200 303 200 67 0 179 68 247 150 138 166 655 204 747 55z m5253 -16 c0 -108 -369 -120 -435 -14 -25 41 62 81 195 89 132 8 240 -25 240 -75z m-700 -189 c0 -55 -42 -100 -94 -100 -52 0 -122 45 -156 100 -34 55 8 100 94 100 86 0 156 -45 156 -100z m2050 -100 c34 -55 -8 -100 -94 -100 -86 0 -156 45 -156 100 0 55 42 100 94 100 52 0 122 -45 156 -100z m12494 -325 c-414 -464 -485 -517 -819 -620 -264 -80 -312 102 -50 191 96 32 376 238 621 456 588 524 726 508 248 -27z m-19454 -250 c-9 -335 -19 -348 -90 -125 -114 357 -114 500 0 500 55 0 96 -169 90 -375z m2010 275 c0 -55 -48 -100 -106 -100 -58 0 -78 45 -44 100 34 55 82 100 106 100 24 0 44 -45 44 -100z m3471 -132 c-30 -77 -153 -166 -274 -198 l-220 -57 229 243 c236 252 359 257 265 12z m14871 171 c255 -98 182 -239 -124 -239 -196 0 -375 -106 -591 -350 -281 -318 -527 -451 -527 -285 0 35 161 260 357 500 343 419 546 504 885 374z m-8680 -764 c-11 -69 -140 -254 -288 -411 -332 -355 -439 -662 -267 -768 94 -58 45 -149 -183 -341 -171 -144 -362 -418 -425 -608 -114 -344 -299 -474 -299 -209 0 76 -69 195 -154 265 -128 107 -202 81 -450 -156 -335 -322 -394 -253 -102 119 108 137 167 318 134 406 -48 125 -14 148 157 103 170 -44 252 7 366 227 219 423 380 471 182 54 -125 -261 -141 -388 -61 -468 140 -140 328 -29 326 193 -1 146 -14 148 -98 19 -86 -133 -97 -132 -98 3 -1 84 74 261 167 393 120 171 134 253 50 281 -145 48 -159 323 -17 323 56 0 150 105 209 234 146 320 896 620 851 341z m888 25 c73 -118 -25 -118 -300 0 -193 83 -192 86 19 93 121 4 247 -38 281 -93z m-14050 -300 c-59 -110 -130 -200 -157 -200 -28 0 -2 90 57 200 59 110 130 200 157 200 28 0 2 -90 -57 -200z m19400 100 c0 -55 -45 -100 -100 -100 -55 0 -100 45 -100 100 0 55 45 100 100 100 55 0 100 -45 100 -100z m-20700 -206 c0 -52 -45 -94 -100 -94 -55 0 -100 70 -100 156 0 86 45 128 100 94 55 -34 100 -104 100 -156z m15143 8 c326 -123 333 -302 13 -302 -134 0 -272 -45 -306 -100 -85 -137 -450 63 -450 247 0 76 101 159 225 182 124 24 233 50 243 57 11 8 134 -30 275 -84z m8311 -108 c79 -129 -231 -494 -419 -494 -182 0 -171 165 15 236 83 32 150 127 150 211 0 175 156 204 254 47z m-24299 -660 c-95 -378 -187 -207 -100 184 41 183 95 274 120 203 24 -71 15 -245 -20 -387z m411 141 c-28 -69 -50 -12 -50 125 0 138 22 194 50 125 28 -69 28 -181 0 -250z m14769 71 c-33 -85 -81 -133 -107 -107 -27 26 -18 96 18 154 98 160 156 129 89 -47z m1165 -102 c0 -24 -45 -44 -100 -44 -55 0 -100 48 -100 106 0 58 45 78 100 44 55 -34 100 -82 100 -106z m-9000 -44 c0 -55 -48 -100 -106 -100 -58 0 -78 45 -44 100 34 55 82 100 106 100 24 0 44 -45 44 -100z m2100 -130 c0 -200 -216 -370 -470 -370 -306 0 -290 114 45 316 344 208 425 218 425 54z m14000 -12 c0 -68 -632 -430 -888 -507 -346 -106 -180 108 269 346 349 183 619 254 619 161z m615 -183 c-69 -69 -156 -126 -195 -128 -38 -2 -324 -174 -635 -383 -408 -274 -644 -368 -850 -341 -251 34 -261 48 -85 115 573 217 1050 471 1050 558 0 54 146 141 325 192 458 132 533 130 390 -13z m-23622 -706 c-7 -211 -10 -212 -93 -19 -118 275 -118 373 0 300 55 -34 97 -160 93 -281z m-537 -14 c88 -135 141 -326 118 -425 -40 -166 -50 -164 -128 20 -47 110 -144 259 -215 332 -72 73 -131 174 -131 225 0 176 196 92 356 -152z m4026 -5 c-63 -138 -128 -237 -144 -221 -61 61 88 471 172 471 47 0 34 -113 -28 -250z m4530 -243 c498 -490 500 -496 333 -750 -225 -343 -345 -324 -345 55 0 279 -26 306 -252 263 -211 -40 -243 -17 -194 138 33 103 14 187 -41 187 -55 0 -96 135 -91 300 5 165 27 300 49 300 22 0 266 -222 541 -493z m1329 268 c-170 -298 -370 -457 -509 -404 -117 45 -87 109 134 290 313 255 485 308 375 114z m-7741 -181 c0 -58 -45 -78 -100 -44 -55 34 -100 82 -100 106 0 24 45 44 100 44 55 0 100 -48 100 -106z m9973 -394 c-260 -204 -473 -260 -473 -124 0 89 387 294 588 312 77 6 25 -78 -115 -188z m680 5 c-27 -44 -145 -106 -261 -136 -201 -53 -203 -47 -38 136 161 178 409 178 299 0z m9500 99 c-33 -52 -125 -70 -206 -39 -207 79 -183 135 59 135 113 0 179 -43 147 -96z m-9117 -154 c-31 -82 -96 -150 -144 -150 -47 0 -60 68 -28 150 31 83 96 150 144 150 47 0 60 -67 28 -150z m-2798 -245 c-98 -195 -199 -275 -298 -237 -125 48 -113 98 72 295 304 323 403 298 226 -58z m662 256 c0 -22 -67 -66 -150 -97 -82 -32 -150 -14 -150 39 0 53 68 97 150 97 83 0 150 -18 150 -39z m12000 -261 c-194 -125 -300 -125 -300 0 0 55 101 99 225 98 182 -1 196 -20 75 -98z m-10140 -273 c-33 -33 -56 26 -52 131 5 117 28 141 60 61 29 -72 26 -159 -8 -192z m1171 -127 c93 0 169 -45 169 -100 0 -55 -61 -100 -137 -100 -178 0 -663 383 -663 525 0 60 104 12 231 -108 128 -119 308 -217 400 -217z m8219 300 c-34 -55 -107 -100 -162 -100 -55 0 -72 45 -38 100 34 55 107 100 162 100 55 0 72 -45 38 -100z m-11710 -351 c-90 -138 -269 -278 -397 -310 -128 -32 -303 -166 -390 -299 -191 -291 -354 -315 -282 -40 37 141 3 200 -115 200 -92 0 -143 41 -112 90 30 50 223 90 428 90 279 0 424 64 575 254 275 344 517 356 293 15z m759 176 c-1 -97 -519 -339 -584 -273 -66 66 300 341 460 345 69 2 125 -31 124 -72z m11801 -25 c0 -55 -48 -100 -106 -100 -58 0 -78 45 -44 100 34 55 82 100 106 100 24 0 44 -45 44 -100z m-300 -162 c0 -21 -138 -38 -306 -38 -168 0 -282 39 -252 87 49 80 558 36 558 -49z m-11060 -77 c-29 -76 -264 -222 -521 -325 -257 -102 -502 -201 -544 -219 -41 -19 -51 29 -22 105 55 144 647 536 647 429 0 -34 79 -15 175 41 243 142 328 132 265 -31z m560 39 c-196 -127 -328 -127 -250 0 34 55 138 99 231 98 146 -1 148 -14 19 -98z m11632 -231 c-238 -276 -573 -560 -614 -520 -68 67 289 645 455 738 266 149 361 18 159 -218z m-10432 87 c0 -79 -45 -172 -100 -206 -55 -34 -100 31 -100 144 0 113 45 206 100 206 55 0 100 -65 100 -144z m8600 105 c0 -22 -67 -66 -150 -97 -82 -32 -150 -14 -150 39 0 53 68 97 150 97 83 0 150 -18 150 -39z m-13936 -211 c31 -82 115 -150 186 -150 129 0 252 -215 248 -433 -1 -64 -80 -21 -175 95 -95 117 -295 242 -444 277 -187 43 -254 110 -215 212 74 193 326 192 400 -1z m13636 -150 c0 -55 -48 -100 -106 -100 -58 0 -78 45 -44 100 34 55 82 100 106 100 24 0 44 -45 44 -100z m573 31 c-97 -26 -232 -24 -300 3 -68 28 12 49 177 47 165 -3 220 -25 123 -50z m-7673 -73 c0 -23 28 -113 61 -201 45 -117 18 -143 -100 -97 -175 67 -224 340 -61 340 55 0 100 -19 100 -42z m-4370 -261 c69 -264 -587 -1084 -875 -1094 -53 -2 79 176 293 395 378 387 437 701 70 368 -337 -305 -394 -171 -79 183 355 399 515 439 591 148z m1670 103 c0 -55 -48 -100 -106 -100 -58 0 -78 45 -44 100 34 55 82 100 106 100 24 0 44 -45 44 -100z m259 -308 c-142 -169 -259 -355 -259 -414 0 -147 -314 -371 -525 -375 -284 -5 -202 152 229 437 222 147 376 311 343 365 -47 75 212 247 437 289 19 3 -83 -132 -225 -302z m-3855 -246 c68 -83 92 -183 53 -223 -40 -39 -113 2 -163 92 -50 89 -205 191 -343 226 -138 34 -251 126 -251 203 0 120 43 119 289 -4 160 -79 346 -212 415 -294z m5598 -91 c-100 -262 -357 -434 -474 -316 -35 35 51 186 192 337 140 151 236 342 212 424 -31 108 -14 103 63 -17 72 -113 74 -251 7 -428z m8198 404 c0 -95 -70 -122 -220 -83 -209 55 -210 61 -25 134 107 42 206 79 220 83 14 4 25 -56 25 -134z m1750 41 c-34 -55 -138 -99 -231 -98 -146 1 -148 14 -19 98 196 127 328 127 250 0z m-12950 -61 c0 -33 -112 -194 -250 -357 -137 -164 -250 -380 -250 -482 0 -242 -473 -800 -678 -800 -121 0 -97 65 102 275 144 151 293 410 332 575 94 402 744 1092 744 789z m1817 -162 c-55 -55 -153 -66 -219 -26 -91 56 -88 93 12 155 170 105 338 2 207 -129z m-1487 -302 c-361 -396 -560 -931 -435 -1166 87 -162 75 -262 -54 -458 -198 -302 -278 -324 -191 -51 35 110 23 200 -26 200 -125 0 -25 609 140 847 75 109 136 296 136 417 0 187 243 363 592 428 24 4 -49 -93 -162 -217z m1907 -23 c-42 -108 -189 -142 -541 -125 -495 24 -542 121 -96 201 536 96 696 77 637 -76z m9320 60 c-99 -161 -457 -203 -457 -53 0 85 103 141 256 141 141 0 231 -40 201 -88z m-8116 -529 c-79 -154 -267 -340 -418 -414 -267 -132 -1122 -234 -1008 -121 31 31 221 63 421 71 230 8 364 62 364 147 0 74 53 134 117 134 197 0 483 319 485 540 1 166 20 179 92 66 59 -93 40 -243 -53 -423z m854 162 c-160 -171 -202 -303 -155 -489 76 -303 9 -334 -136 -63 -81 150 -54 270 121 538 124 190 262 323 308 296 45 -26 -17 -153 -138 -282z m8359 162 c-36 -59 -114 -107 -172 -107 -66 0 -59 57 20 152 137 166 260 129 152 -45z m-9557 -260 c-205 -247 -318 -163 -127 94 99 132 196 198 214 146 19 -51 -20 -160 -87 -240z m8823 -67 c-64 -64 -150 -83 -190 -43 -41 41 -9 114 70 163 187 115 271 31 120 -120z m-9901 52 c-72 -29 -159 -26 -192 8 -33 33 26 56 131 52 117 -5 141 -28 61 -60z m1881 -21 c0 -135 -564 -711 -696 -711 -63 0 33 179 215 398 324 390 481 492 481 313z m-7036 -431 c-150 -96 -166 -58 -93 219 58 222 68 225 132 46 39 -108 21 -226 -39 -265z m3736 327 c0 -51 -67 -160 -150 -243 -82 -82 -151 -277 -152 -432 -1 -155 -90 -394 -198 -532 -231 -295 -270 -144 -45 176 106 151 134 330 91 563 -51 269 -26 363 120 448 230 134 334 140 334 20z m353 -564 c-90 -190 -138 -386 -107 -436 57 -93 -237 -449 -311 -376 -22 23 12 171 76 330 64 159 133 420 153 580 21 160 94 358 162 440 203 245 222 -128 27 -538z m10366 489 c-72 -29 -159 -26 -192 8 -33 33 26 56 131 52 117 -5 141 -28 61 -60z m-12665 -225 c-87 -141 -554 -138 -554 4 0 61 60 87 134 59 74 -28 196 -13 272 34 165 101 240 52 148 -97z m-2318 -57 c-31 -82 -75 -150 -97 -150 -21 0 -39 68 -39 150 0 83 44 150 97 150 53 0 71 -67 39 -150z m-4636 -156 c0 -113 -43 -179 -96 -147 -52 33 -70 125 -39 206 79 207 135 183 135 -59z m16350 106 c-34 -55 -127 -100 -206 -100 -79 0 -144 45 -144 100 0 55 93 100 206 100 113 0 178 -45 144 -100z m-15650 -250 c-71 -85 -151 -132 -179 -105 -27 28 8 120 79 205 71 85 151 132 179 105 27 -28 -8 -120 -79 -205z m2900 6 c0 -159 -181 -308 -269 -220 -82 82 46 364 166 364 57 0 103 -65 103 -144z m6655 -234 c-25 -25 -161 -17 -302 18 -212 53 -234 89 -130 203 108 117 154 115 303 -18 96 -87 155 -178 129 -203z m2145 183 c0 105 27 108 120 15 196 -196 -47 -367 -298 -210 -168 104 -245 98 -453 -38 -317 -208 -796 -304 -745 -149 40 118 109 160 676 404 313 134 368 134 525 -4 138 -121 175 -125 175 -18z m-4701 20 c0 -41 -135 -152 -300 -245 -354 -202 -391 -139 -74 126 239 199 375 242 374 119z m3457 -15 c-31 -50 -194 -139 -363 -198 -234 -81 -298 -78 -268 13 22 66 149 150 282 187 353 99 411 99 349 -2z m-8007 -112 c-35 -56 -105 -75 -156 -44 -139 86 -113 146 63 146 86 0 128 -46 93 -102z m16371 -173 c186 -215 268 -510 341 -1225 39 -374 126 -620 273 -770 119 -121 263 -279 321 -350 113 -139 150 -1780 41 -1780 -241 0 -699 919 -747 1498 -165 1975 -170 2004 -462 2315 -237 254 -332 293 -585 237 -182 -40 -302 -25 -302 36 0 57 191 120 425 141 234 21 452 46 485 56 32 9 127 -62 210 -158z m-10132 -220 c-120 -162 -290 -323 -378 -356 -88 -34 -5 99 185 295 419 433 483 454 193 61z m-1865 -108 c-222 -202 -429 -296 -650 -295 -313 1 -305 11 227 290 710 373 829 374 423 5z m4554 178 c-21 -69 -194 -206 -383 -305 -408 -214 -1040 -172 -1283 85 -150 159 -144 166 89 96 621 -187 1049 -173 1243 41 208 231 395 277 334 83z m-9696 -325 c-10 -264 -57 -350 -191 -350 -98 0 -205 43 -237 96 -33 52 -137 71 -231 41 -143 -44 -139 -26 22 105 107 87 248 158 314 158 67 0 147 68 178 150 97 253 159 168 145 -200z m2319 50 c0 -104 -45 -216 -100 -250 -58 -36 -100 68 -100 250 0 182 42 286 100 250 55 -34 100 -146 100 -250z m5350 184 c-110 -60 -390 -292 -623 -516 -487 -467 -694 -445 -234 25 169 173 307 354 307 403 0 96 230 176 550 189 200 9 200 9 0 -101z m2650 -22 c0 -21 -90 -62 -200 -91 -110 -29 -175 -12 -144 38 54 87 344 132 344 53z m-7700 -496 c0 -177 -70 -422 -156 -544 -156 -223 -131 -258 169 -229 160 15 359 -455 242 -571 -30 -31 -55 -5 -55 57 0 62 -187 169 -415 237 -243 73 -434 198 -461 303 -26 98 -84 156 -130 128 -45 -29 -73 70 -62 218 12 148 77 288 145 311 80 26 101 -18 59 -126 -51 -132 -14 -160 175 -134 197 28 244 100 270 411 37 450 219 400 219 -61z m600 -34 c0 -203 -28 -233 -134 -145 -74 61 -171 78 -216 37 -45 -41 -59 -29 -31 26 27 55 79 182 115 281 88 248 266 115 266 -199z m6369 9 c-284 -244 -969 -344 -969 -141 0 55 124 100 275 101 151 0 408 88 571 195 392 259 478 151 123 -155z m-7959 -35 c-63 -39 -106 -157 -96 -263 38 -415 -20 -643 -164 -643 -88 0 -150 91 -150 220 0 169 -27 193 -118 102 -86 -86 -153 -88 -250 -7 -151 125 -183 428 -35 337 114 -70 611 225 746 443 73 120 101 123 137 16 24 -74 -7 -166 -70 -205z m8287 -235 c-505 -476 -593 -521 -1025 -521 -730 0 -613 150 228 292 200 34 513 208 731 408 209 193 434 348 500 346 65 -2 -130 -238 -434 -525z m-11697 329 c0 -55 -41 -100 -90 -100 -100 0 -510 -653 -510 -812 0 -55 52 -68 115 -28 75 46 89 27 39 -53 -54 -88 -108 -93 -183 -18 -135 135 301 1111 496 1111 73 0 133 -45 133 -100z m2600 -56 c0 -24 -45 -44 -100 -44 -55 0 -100 48 -100 106 0 58 45 78 100 44 55 -34 100 -82 100 -106z m5500 56 c0 -55 -48 -100 -106 -100 -58 0 -78 45 -44 100 34 55 82 100 106 100 24 0 44 -45 44 -100z m4400 -85 c0 -46 -90 -165 -200 -265 -220 -199 -256 -141 -96 157 104 195 296 265 296 108z m-10200 -370 c0 -135 89 -299 200 -368 110 -69 200 -177 200 -240 0 -64 61 -139 135 -168 221 -84 594 -880 471 -1003 -75 -75 -106 -42 -106 111 0 152 -45 199 -150 159 -95 -36 -150 2 -150 103 0 89 -61 161 -136 161 -91 0 -121 82 -88 250 44 231 19 250 -330 250 -364 0 -371 7 -205 190 237 262 25 376 -302 162 -306 -200 -299 -600 11 -606 278 -5 450 -128 450 -322 0 -128 -27 -137 -120 -44 -66 66 -235 121 -375 122 -140 0 -320 42 -399 92 -224 142 -22 818 290 973 135 67 281 217 324 334 99 267 280 166 280 -156z m-2050 -45 c-34 -55 -82 -100 -106 -100 -24 0 -44 45 -44 100 0 55 48 100 106 100 58 0 78 -45 44 -100z m9950 11 c0 -122 -294 -226 -420 -149 -63 40 -51 95 34 149 178 113 386 112 386 0z m-11439 -169 c-34 -87 -61 -214 -61 -281 0 -68 -67 -210 -148 -317 -138 -180 -144 -169 -92 156 83 509 121 600 248 600 62 0 86 -71 53 -158z m21139 -215 c0 -123 -28 -128 -150 -27 -82 68 -150 163 -150 209 0 47 68 59 150 27 83 -31 150 -126 150 -209z m-14800 -77 c0 -82 34 -145 75 -138 41 6 165 5 275 -3 184 -14 186 -23 25 -117 -96 -56 -175 -190 -175 -297 0 -277 -347 -272 -354 5 -2 83 -40 209 -84 280 -95 155 -10 420 135 420 57 0 103 -67 103 -150z m6618 -172 c-71 -71 -118 -77 -118 -15 0 134 118 252 185 185 28 -28 -2 -105 -67 -170z m-5818 -134 c0 -24 -45 -44 -100 -44 -55 0 -100 48 -100 106 0 58 45 78 100 44 55 -34 100 -82 100 -106z m-2199 -145 c265 -230 212 -367 -81 -210 -204 110 -375 411 -232 411 45 0 185 -90 313 -201z m740 -84 c29 -47 -1 -227 -66 -400 -91 -241 -179 -314 -372 -312 -232 3 -238 15 -78 136 96 73 175 252 175 397 0 255 222 371 341 179z m1309 -115 c-34 -55 -129 -100 -212 -100 -82 0 -122 45 -88 100 34 55 129 100 212 100 82 0 122 -45 88 -100z m-7496 -193 c-36 -59 -114 -107 -172 -107 -66 0 -59 57 20 152 137 166 260 129 152 -45z m3146 -227 c0 -162 -30 -190 -111 -109 -61 61 -81 160 -44 220 103 168 155 130 155 -111z m4500 -30 c-27 -55 -87 -88 -132 -73 -45 15 -258 -71 -474 -192 -346 -195 -420 -205 -643 -86 -353 189 -312 335 74 264 199 -37 422 -5 575 81 279 157 677 161 600 6z m-3650 -150 c-34 -55 -104 -100 -156 -100 -52 0 -94 45 -94 100 0 55 70 100 156 100 86 0 128 -45 94 -100z m550 -200 c0 -55 -45 -100 -100 -100 -55 0 -100 45 -100 100 0 55 45 100 100 100 55 0 100 -45 100 -100z m2929 -200 c-29 -110 -5 -200 52 -200 57 0 125 79 150 175 39 148 48 150 57 12 11 -154 -255 -460 -326 -376 -19 21 -64 163 -100 314 -48 202 -28 275 77 275 93 0 124 -69 90 -200z m-1970 -274 c-109 -110 -184 64 -106 245 74 171 80 171 121 -4 24 -100 17 -209 -15 -241z m341 -232 c0 -58 -45 -78 -100 -44 -55 34 -100 82 -100 106 0 24 45 44 100 44 55 0 100 -48 100 -106z m2100 -238 c0 -187 -170 -289 -360 -216 -124 48 -128 83 -20 205 168 190 380 196 380 11z m-8643 -706 c199 -193 399 -327 445 -299 46 29 112 7 147 -49 35 -56 159 -102 277 -102 148 0 182 -32 110 -104 -117 -117 -888 244 -1386 652 -227 186 -258 246 -127 248 95 2 336 -154 534 -346z m1584 -710 c175 -67 119 -240 -78 -240 -69 0 -212 66 -319 147 -190 143 -189 147 23 150 119 2 288 -24 374 -57z m559 -340 c0 -55 -65 -100 -144 -100 -79 0 -172 45 -206 100 -34 55 31 100 144 100 113 0 206 -45 206 -100z m843 -197 c-61 -61 -211 -64 -395 -9 -295 88 -293 89 97 97 256 6 361 -25 298 -88z m-3043 -815 c0 -55 -45 -72 -100 -38 -55 34 -100 107 -100 162 0 55 45 72 100 38 55 -34 100 -107 100 -162z m-550 12 c-34 -55 -82 -100 -106 -100 -24 0 -44 45 -44 100 0 55 48 100 106 100 58 0 78 -45 44 -100z"/>
<path d="M15100 19206 c0 -52 45 -122 100 -156 55 -34 100 8 100 94 0 86 -45 156 -100 156 -55 0 -100 -42 -100 -94z"/>
<path d="M15269 18836 c-80 -80 11 -236 137 -236 52 0 94 68 94 150 0 155 -118 199 -231 86z"/>
<path d="M15654 18707 c-74 -120 114 -238 248 -156 111 69 38 249 -102 249 -49 0 -114 -42 -146 -93z"/>
<path d="M12450 17000 c-34 -55 8 -100 94 -100 86 0 156 45 156 100 0 55 -42 100 -94 100 -52 0 -122 -45 -156 -100z"/>
<path d="M12100 16700 c0 -110 45 -200 100 -200 55 0 100 90 100 200 0 110 -45 200 -100 200 -55 0 -100 -90 -100 -200z"/>
<path d="M2000 17556 c0 -86 45 -156 100 -156 55 0 100 42 100 94 0 52 -45 122 -100 156 -55 34 -100 -8 -100 -94z"/>
<path d="M5900 12917 c0 -181 327 -310 522 -205 98 52 178 140 178 195 0 63 -76 59 -206 -10 -154 -82 -244 -80 -350 8 -95 79 -144 83 -144 12z"/>
<path d="M5218 10590 c27 -287 75 -345 307 -372 351 -40 346 27 -32 405 l-308 307 33 -340z"/>
<path d="M5800 9864 c0 -81 -28 -219 -61 -307 -45 -117 -18 -143 100 -97 178 68 218 393 61 490 -55 34 -100 -5 -100 -86z"/>
<path d="M6419 9506 c131 -209 281 -182 281 50 0 79 -90 144 -201 144 -173 0 -184 -26 -80 -194z"/>
<path d="M5253 9305 c-36 -58 -17 -105 41 -105 58 0 106 -67 106 -150 0 -82 48 -150 107 -150 141 0 76 423 -73 472 -64 21 -145 -9 -181 -67z"/>
<path d="M6100 9156 c0 -86 45 -156 100 -156 55 0 100 42 100 94 0 52 -45 122 -100 156 -55 34 -100 -8 -100 -94z"/>
<path d="M6600 9019 c0 -54 71 -125 158 -158 98 -38 143 -15 119 58 -50 149 -277 231 -277 100z"/>
<path d="M5558 8624 c-136 -135 -31 -173 385 -140 421 33 440 23 387 -199 -45 -183 -30 -210 66 -121 67 63 107 198 87 300 -27 142 -133 190 -452 202 -229 9 -442 -10 -473 -42z"/>
<path d="M6751 8301 c-154 -170 -158 -201 -27 -201 85 0 183 74 218 164 94 247 13 262 -191 37z"/>
<path d="M23300 4607 c0 -216 207 -615 291 -563 103 64 -89 656 -213 656 -43 0 -78 -42 -78 -93z"/>
<path d="M1428 24500 c-55 -275 -61 -500 -14 -500 47 0 88 34 90 75 3 41 42 266 87 500 45 234 49 425 9 425 -41 0 -118 -225 -172 -500z"/>
<path d="M3175 24867 c-182 -444 -14 -1397 254 -1449 200 -38 245 341 49 406 -70 23 -146 297 -175 633 -36 398 -78 533 -128 410z"/>
<path d="M3610 24575 c-6 -261 35 -475 90 -475 116 0 116 339 0 700 -65 204 -82 162 -90 -225z"/>
<path d="M15650 24575 c42 -234 81 -523 88 -642 17 -312 162 -414 162 -114 0 505 -130 1181 -226 1181 -62 0 -71 -160 -24 -425z"/>
<path d="M23475 24934 c69 -28 181 -28 250 0 69 28 13 50 -125 50 -137 0 -194 -22 -125 -50z"/>
<path d="M16803 24089 c190 -628 259 -760 348 -671 68 68 -370 1282 -462 1282 -39 0 13 -275 114 -611z"/>
<path d="M27 22100 c0 -247 20 -349 44 -225 23 124 23 326 0 450 -24 124 -44 23 -44 -225z"/>
<path d="M1200 21900 c0 -55 45 -100 100 -100 55 0 100 45 100 100 0 55 -45 100 -100 100 -55 0 -100 -45 -100 -100z"/>
<path d="M21563 20726 c58 -631 75 -676 227 -582 57 35 77 197 44 363 -42 210 -7 357 119 496 207 229 126 387 -101 199 -104 -86 -152 -91 -152 -14 0 61 -43 112 -95 112 -56 0 -73 -240 -42 -574z"/>
<path d="M21188 19845 c-6 -52 -6 -131 2 -174 26 -159 -201 -471 -344 -471 -158 0 -199 -156 -62 -240 269 -167 753 643 522 874 -61 61 -111 66 -118 11z"/>
<path d="M21400 18848 c0 -391 -34 -466 -250 -548 -306 -116 -332 -326 -35 -282 352 52 593 471 521 907 -86 520 -236 470 -236 -77z"/>
<path d="M17050 17000 c-36 -165 -107 -300 -158 -300 -155 0 -102 -402 62 -465 84 -33 240 19 347 115 167 152 175 201 57 369 -75 107 -113 281 -85 387 28 107 4 194 -53 194 -57 0 -134 -135 -170 -300z"/>
<path d="M18164 16950 c-32 -82 -127 -150 -211 -150 -170 0 -206 -155 -57 -248 106 -65 504 288 504 448 0 154 -172 118 -236 -50z"/>
<path d="M16165 16623 c109 -69 135 -125 135 -293 0 -38 56 -14 124 54 99 99 94 144 -25 219 -82 52 -194 94 -249 94 -55 0 -48 -33 15 -74z"/>
<path d="M24422 15806 c-453 -414 -423 -574 103 -549 422 20 425 23 456 432 37 503 -103 532 -559 117z"/>
<path d="M13546 14993 c-36 -58 -42 -130 -14 -159 79 -78 468 65 468 173 0 129 -373 118 -454 -14z"/>
<path d="M14549 14780 c-60 -133 -237 -253 -449 -304 -193 -46 -448 -132 -568 -193 -228 -115 -506 -643 -395 -753 34 -35 74 -45 88 -22 14 23 94 177 178 342 119 232 232 307 500 332 374 35 748 318 828 627 69 262 -61 241 -182 -29z"/>
<path d="M12240 14150 c-184 -139 -183 -144 29 -147 234 -3 392 148 247 237 -47 29 -172 -11 -276 -90z"/>
<path d="M15456 14029 c-54 -142 -42 -154 56 -56 69 68 99 149 69 180 -31 30 -87 -25 -125 -124z"/>
<path d="M14400 13850 c0 -93 94 -150 250 -150 156 0 250 57 250 150 0 93 -94 150 -250 150 -156 0 -250 -57 -250 -150z"/>
<path d="M13712 13764 c-63 -75 -86 -268 -53 -435 49 -246 11 -338 -213 -514 -150 -118 -334 -215 -409 -215 -76 0 -137 -45 -137 -100 0 -55 112 -100 249 -100 323 0 796 705 709 1056 -41 161 -5 265 116 336 154 89 156 102 13 105 -89 2 -213 -58 -275 -133z"/>
<path d="M10264 13536 c-259 -258 -350 -536 -176 -536 48 0 158 101 245 225 146 209 157 211 162 30 4 -152 32 -168 125 -75 66 66 224 120 350 120 277 0 293 112 47 335 -256 231 -448 206 -753 -99z"/>
<path d="M11900 13704 c-210 -64 -223 -88 -81 -149 225 -96 504 -35 556 120 46 137 -92 146 -475 29z"/>
<path d="M11673 13100 c-94 -110 -257 -200 -361 -200 -105 0 -219 -74 -254 -164 -88 -232 37 -321 154 -110 54 96 158 174 231 174 73 0 189 68 257 150 68 82 206 150 306 150 100 0 210 45 244 100 118 190 -406 100 -577 -100z"/>
<path d="M12267 12833 c-37 -36 -67 -113 -67 -170 0 -62 47 -56 118 15 65 65 95 142 67 170 -28 29 -82 22 -118 -15z"/>
<path d="M13824 12601 c-69 -111 -193 -201 -275 -201 -82 0 -149 -45 -149 -100 0 -167 258 -112 445 94 96 107 160 242 140 301 -20 59 -92 17 -161 -94z"/>
<path d="M12219 12229 c-127 -25 -211 -97 -187 -162 24 -64 94 -106 156 -92 61 14 112 -20 112 -75 0 -55 -67 -100 -150 -100 -82 0 -150 -63 -150 -141 0 -90 70 -122 197 -89 235 62 355 203 429 505 56 230 35 238 -407 154z"/>
<path d="M19669 12107 c40 -154 -12 -228 -216 -306 -148 -56 -308 -79 -354 -50 -47 29 -113 7 -148 -49 -120 -194 -262 -109 -155 91 145 270 135 288 -136 271 -133 -8 -222 -45 -199 -82 23 -38 -3 -96 -59 -131 -160 -98 -119 -251 49 -187 112 43 134 13 83 -119 -46 -121 -31 -155 48 -106 75 47 95 18 56 -83 -32 -85 -99 -130 -148 -100 -50 31 -90 8 -90 -50 0 -58 41 -106 92 -106 50 0 163 -27 250 -61 100 -38 158 -6 158 88 0 82 68 205 152 275 124 103 188 93 350 -54 223 -201 319 -154 361 178 16 123 42 332 58 464 16 132 -24 258 -88 281 -75 26 -98 -34 -64 -164z"/>
<path d="M17850 12000 c-34 -55 -14 -100 44 -100 58 0 106 45 106 100 0 55 -20 100 -44 100 -24 0 -72 -45 -106 -100z"/>
<path d="M12650 11593 c-165 -105 -388 -192 -495 -192 -141 -1 -165 -31 -85 -111 122 -122 728 117 938 369 160 194 2 165 -358 -66z"/>
<path d="M14898 11143 c-147 -443 -98 -501 194 -229 166 154 194 233 105 288 -67 42 -92 126 -54 187 38 61 25 111 -29 111 -54 0 -151 -161 -216 -357z"/>
<path d="M20435 11347 c-46 -119 -89 -127 -200 -35 -111 92 -189 72 -369 -97 -126 -118 -306 -215 -400 -215 -93 0 -225 -124 -292 -275 -66 -151 -200 -334 -297 -406 -200 -147 -212 -209 -84 -411 77 -121 128 -117 348 27 300 197 322 154 97 -189 -95 -145 -116 -246 -52 -246 60 0 173 124 252 275 191 368 1046 1225 1222 1225 152 0 174 95 79 342 -77 201 -228 203 -304 5z"/>
<path d="M15369 10947 c-186 -390 -226 -794 -69 -697 55 34 100 184 100 334 0 149 70 372 156 494 85 122 116 222 68 222 -48 0 -163 -159 -255 -353z"/>
<path d="M15700 10850 c-192 -359 -73 -401 136 -47 96 163 135 297 87 297 -49 0 -149 -112 -223 -250z"/>
<path d="M20524 10579 c47 -141 -437 -579 -639 -579 -75 0 -197 -97 -271 -214 -119 -191 -115 -208 35 -150 118 45 185 4 222 -136 65 -247 186 -258 266 -25 33 96 171 355 307 575 269 434 318 650 148 650 -60 0 -90 -55 -68 -121z"/>
<path d="M920 10195 c-77 -123 -84 -195 -18 -195 57 0 131 69 163 154 90 235 -7 262 -145 41z"/>
<path d="M15916 10013 c-171 -571 -138 -620 86 -127 225 495 229 514 114 514 -46 0 -136 -174 -200 -387z"/>
<path d="M15476 10183 c-56 -147 166 -408 263 -310 34 33 57 154 53 269 -5 127 -29 155 -62 72 -41 -103 -73 -107 -128 -17 -56 90 -87 87 -126 -14z"/>
<path d="M16172 9855 c-196 -413 -204 -455 -87 -455 46 0 138 101 203 225 90 171 103 177 54 25 -162 -503 -160 -608 8 -350 155 239 160 240 116 25 -76 -362 70 -257 254 183 113 267 131 392 52 366 -65 -22 -188 47 -273 152 -148 183 -161 176 -327 -171z"/>
<path d="M16796 9225 c-80 -206 -162 -420 -183 -475 -25 -67 -4 -67 65 0 146 142 427 850 337 850 -41 0 -140 -169 -219 -375z"/>
<path d="M19567 9433 c-37 -36 -64 -160 -61 -275 6 -191 14 -189 102 32 98 244 78 363 -41 243z"/>
<path d="M17536 9150 c-31 -82 -120 -150 -197 -150 -76 0 -139 -45 -139 -100 0 -55 42 -100 93 -100 120 0 407 287 407 407 0 144 -100 110 -164 -57z"/>
<path d="M19000 9100 c0 -55 45 -100 100 -100 55 0 100 45 100 100 0 55 -45 100 -100 100 -55 0 -100 -45 -100 -100z"/>
<path d="M19942 9056 c-174 -127 -167 -133 85 -85 291 56 324 86 188 170 -47 29 -170 -9 -273 -85z"/>
<path d="M17761 8842 c-127 -330 -75 -456 139 -342 110 59 199 184 197 279 -3 150 -23 146 -161 -29 -154 -197 -156 -196 -90 25 76 255 8 309 -85 67z"/>
<path d="M18200 8656 c0 -307 57 -331 129 -56 29 110 11 225 -38 256 -50 31 -91 -59 -91 -200z"/>
<path d="M19743 8594 c0 -106 58 -194 128 -194 71 0 129 39 129 88 0 48 -58 136 -129 194 -97 81 -128 60 -128 -88z"/>
<path d="M19127 8500 c-8 -110 28 -200 79 -200 52 0 94 90 94 200 0 261 -153 261 -173 0z"/>
<path d="M1400 8400 c0 -55 68 -100 150 -100 83 0 150 45 150 100 0 55 -67 100 -150 100 -82 0 -150 -45 -150 -100z"/>
<path d="M17708 8186 c-4 -91 63 -192 150 -225 214 -82 242 -78 242 39 0 55 -64 100 -142 100 -78 0 -164 56 -192 125 -32 79 -53 64 -58 -39z"/>
<path d="M1220 8045 c-177 -201 -50 -389 136 -203 153 153 194 361 69 354 -41 -2 -134 -70 -205 -151z"/>
<path d="M900 7618 c0 -121 190 -262 259 -192 25 25 -23 102 -107 172 -95 79 -152 86 -152 20z"/>
<path d="M2558 7413 c-42 -69 -88 -223 -102 -344 -15 -120 -57 -376 -96 -569 -65 -328 -60 -338 85 -156 85 107 155 289 155 405 0 116 40 254 89 306 48 52 56 182 17 288 -52 140 -93 159 -148 70z"/>
<path d="M700 7256 c0 -86 45 -156 100 -156 55 0 100 42 100 94 0 52 -45 122 -100 156 -55 34 -100 -8 -100 -94z"/>
<path d="M16800 7208 c0 -89 137 -127 922 -255 205 -34 408 -120 450 -192 89 -151 628 -277 628 -147 0 47 -44 86 -97 86 -53 0 -75 56 -49 125 32 82 -64 132 -278 145 -594 36 -1176 150 -1233 241 -72 117 -343 115 -343 -3z"/>
<path d="M18600 7223 c0 -101 598 -134 763 -42 79 44 -51 84 -314 95 -247 11 -449 -13 -449 -53z"/>
<path d="M300 7012 c0 -55 45 -128 100 -162 55 -34 100 -17 100 38 0 55 -45 128 -100 162 -55 34 -100 17 -100 -38z"/>
<path d="M2037 6853 c-31 -80 -37 -204 -13 -275 24 -70 67 -4 96 147 56 295 9 368 -83 128z"/>
<path d="M16700 6897 c0 -53 68 -97 150 -97 83 0 150 18 150 39 0 22 -67 66 -150 97 -82 32 -150 14 -150 -39z"/>
<path d="M19050 6900 c-34 -55 -17 -100 38 -100 55 0 128 45 162 100 34 55 17 100 -38 100 -55 0 -128 -45 -162 -100z"/>
<path d="M17219 6791 c55 -167 481 -253 481 -98 0 59 -41 107 -92 107 -50 0 -169 30 -263 66 -121 46 -158 24 -126 -75z"/>
<path d="M24802 6825 c0 -41 45 -142 98 -225 78 -121 97 -107 98 75 1 124 -43 225 -98 225 -55 0 -99 -34 -98 -75z"/>
<path d="M1517 6532 c-9 -176 -63 -441 -120 -589 -56 -149 -80 -293 -53 -321 101 -100 265 527 228 872 -38 354 -38 354 -55 38z"/>
<path d="M19100 6603 c0 -53 68 -71 150 -39 83 31 150 75 150 97 0 21 -67 39 -150 39 -82 0 -150 -44 -150 -97z"/>
<path d="M16800 6490 c0 -66 503 -190 768 -190 79 0 119 40 89 89 -65 105 -857 198 -857 101z"/>
<path d="M18100 6291 c-117 -83 -89 -97 127 -62 153 24 302 5 331 -42 30 -48 175 -81 323 -73 236 12 241 19 44 57 -124 23 -225 85 -225 136 0 126 -415 115 -600 -16z"/>
<path d="M400 6200 c0 -55 20 -100 44 -100 24 0 72 45 106 100 34 55 14 100 -44 100 -58 0 -106 -45 -106 -100z"/>
<path d="M1860 6140 c-36 -93 -42 -191 -15 -219 28 -27 79 26 115 119 36 93 42 191 15 219 -28 27 -79 -26 -115 -119z"/>
<path d="M17000 6097 c0 -53 68 -97 150 -97 83 0 150 18 150 39 0 22 -67 66 -150 97 -82 32 -150 14 -150 -39z"/>
<path d="M1009 5861 c-63 -159 -94 -309 -70 -333 74 -74 278 373 229 503 -24 65 -96 -11 -159 -170z"/>
<path d="M17800 5987 c0 -48 165 -87 367 -87 432 0 402 84 -50 137 -175 20 -317 -2 -317 -50z"/>
<path d="M373 5940 c-40 -41 -73 -142 -73 -227 0 -112 30 -123 111 -42 61 61 94 163 73 227 -21 63 -71 82 -111 42z"/>
<path d="M1616 5600 c0 -137 22 -194 50 -125 28 69 28 181 0 250 -28 69 -50 13 -50 -125z"/>
<path d="M1763 5427 c-41 -123 -106 -219 -144 -213 -190 27 -253 -27 -125 -108 120 -76 121 -117 10 -251 -73 -88 -109 -184 -80 -213 92 -91 493 647 453 832 -32 148 -50 141 -114 -47z"/>
<path d="M18200 5500 c0 -55 20 -100 44 -100 24 0 72 45 106 100 34 55 14 100 -44 100 -58 0 -106 -45 -106 -100z"/>
<path d="M18600 5500 c0 -55 70 -100 156 -100 86 0 128 45 94 100 -34 55 -104 100 -156 100 -52 0 -94 -45 -94 -100z"/>
<path d="M1212 5300 c-8 -82 -40 -262 -70 -400 -48 -216 -40 -226 58 -72 62 98 94 278 70 400 -23 122 -50 155 -58 72z"/>
<path d="M18475 5234 c69 -28 181 -28 250 0 69 28 13 50 -125 50 -137 0 -194 -22 -125 -50z"/>
<path d="M625 4950 c-69 -78 -125 -253 -125 -390 0 -136 -52 -280 -116 -320 -79 -49 -98 -3 -59 144 31 119 15 216 -34 216 -90 0 -128 -140 -100 -367 8 -65 -32 -146 -88 -181 -57 -35 -102 -162 -100 -283 3 -217 5 -217 150 -19 352 482 505 641 622 645 75 3 125 144 125 355 0 374 -74 428 -275 200z"/>
<path d="M18400 4900 c0 -55 45 -100 100 -100 55 0 100 45 100 100 0 55 -45 100 -100 100 -55 0 -100 -45 -100 -100z"/>
<path d="M18675 4634 c69 -28 181 -28 250 0 69 28 13 50 -125 50 -137 0 -194 -22 -125 -50z"/>
<path d="M22064 4050 c31 -83 96 -150 144 -150 47 0 60 67 28 150 -31 83 -96 150 -144 150 -47 0 -60 -67 -28 -150z"/>
<path d="M21808 3958 c-4 -105 19 -164 52 -131 34 33 37 120 8 192 -32 80 -55 56 -60 -61z"/>
<path d="M16400 3611 c0 -49 65 -115 145 -145 97 -37 126 -8 89 89 -60 158 -234 199 -234 56z"/>
<path d="M20469 3625 c-23 -41 -72 -255 -108 -475 -61 -371 -55 -386 87 -206 83 107 152 321 152 475 0 277 -48 352 -131 206z"/>
<path d="M16950 3500 c34 -55 107 -100 162 -100 55 0 72 45 38 100 -34 55 -107 100 -162 100 -55 0 -72 -45 -38 -100z"/>
<path d="M17354 3407 c-31 -51 -12 -121 44 -156 56 -35 102 7 102 93 0 176 -60 202 -146 63z"/>
<path d="M19553 3105 c-68 -110 289 -329 383 -236 71 72 -119 331 -242 331 -45 0 -109 -43 -141 -95z"/>
<path d="M11000 2700 c0 -55 90 -100 200 -100 110 0 200 45 200 100 0 55 -90 100 -200 100 -110 0 -200 -45 -200 -100z"/>
<path d="M11450 2400 c-34 -55 6 -100 88 -100 83 0 178 45 212 100 34 55 -6 100 -88 100 -83 0 -178 -45 -212 -100z"/>
<path d="M6503 2104 c-126 -80 -123 -103 25 -159 205 -79 472 7 472 152 0 128 -299 132 -497 7z"/>
<path d="M11550 2100 c-79 -128 252 -128 450 0 117 76 91 97 -119 98 -148 1 -297 -43 -331 -98z"/>
<path d="M12200 1800 c-79 -49 -122 -112 -94 -139 27 -28 115 -10 194 39 79 49 122 112 94 139 -27 28 -115 10 -194 -39z"/>
<path d="M7151 1702 c-35 -56 7 -102 93 -102 176 0 202 60 63 146 -51 31 -121 12 -156 -44z"/>
<path d="M12800 1600 c0 -55 45 -100 100 -100 55 0 100 45 100 100 0 55 -45 100 -100 100 -55 0 -100 -45 -100 -100z"/>
<path d="M11858 1524 c-30 -29 38 -134 151 -232 l205 -178 -216 -115 c-303 -162 -190 -223 134 -73 155 72 247 180 218 257 -27 73 -50 169 -50 214 0 97 -367 203 -442 127z"/>
<path d="M7450 1377 c-165 -58 -389 -167 -497 -242 -109 -74 -277 -135 -375 -135 -98 0 -178 -45 -178 -100 0 -125 159 -127 576 -7 210 60 324 58 324 -6 0 -61 184 -74 475 -35 691 94 860 153 751 262 -58 58 -196 54 -366 -10 -150 -57 -338 -104 -417 -104 -233 0 -163 197 107 300 522 198 145 271 -400 77z"/>
<path d="M6000 856 c0 -106 192 -150 249 -58 35 56 -7 102 -93 102 -86 0 -156 -20 -156 -44z"/>
<path d="M12291 792 c-87 -54 -96 -90 -24 -90 64 -1 188 -29 275 -63 87 -33 158 -15 158 40 0 147 -247 216 -409 113z"/>
<path d="M9755 404 c-719 -354 -762 -391 -450 -384 193 4 421 86 517 186 94 98 331 236 525 306 194 71 353 164 353 208 0 132 -115 94 -945 -316z"/>
<path d="M10690 523 c-252 -150 -440 -329 -416 -398 51 -148 237 -171 201 -24 -14 55 200 234 475 398 275 164 433 298 350 298 -82 0 -357 -123 -610 -274z"/>
<path d="M10808 259 l-243 -135 230 -72 c152 -49 258 -27 314 62 46 75 108 125 137 111 30 -14 110 -22 179 -18 69 4 35 46 -75 93 -264 114 -263 114 -542 -41z"/>
<path d="M12724 31 c95 -25 275 -26 400 -2 124 24 46 45 -174 46 -220 1 -322 -19 -226 -44z"/>
</g>
</svg>