<svg xmlns="http://www.w3.org/2000/svg" version="1.0" width="250" height="250" viewBox="0 0 250.000000 250.000000" preserveAspectRatio="xMidYMid meet">
<metadata>
Created by potrace 1.10, written by Peter Selinger 2001-2011
</metadata>
<g transform="translate(0.000000,250.000000) scale(0.010000,-0.010000)" fill="#555555" stroke="none">
<path d="M11625 24125 l-11625 -26 0 -261 0 -262 10575 59 c5816 33 11441 61 12500 62 l1925 3 0 253 0 252 -875 -27 c-481 -16 -6106 -39 -12500 -53z"/>
<path d="M15850 23390 c-880 -50 -3018 -114 -4750 -141 -1732 -27 -3353 -55 -3600 -62 -247 -7 -630 0 -850 17 -220 16 -1547 -12 -2950 -62 -1402 -51 -2809 -83 -3125 -72 -316 11 -575 -22 -575 -75 0 -52 79 -100 175 -107 167 -11 167 -13 0 -57 -118 -31 -175 -144 -175 -348 l0 -302 475 60 c261 33 766 84 1122 114 355 29 673 96 705 148 34 56 427 70 953 34 492 -33 3250 -61 6128 -61 3781 -1 5245 -32 5275 -114 23 -61 7 -314 -37 -562 -72 -414 -102 -450 -375 -451 -163 -1 -367 -46 -453 -100 -285 -179 -618 -727 -617 -1015 1 -156 -42 -366 -94 -465 -64 -122 -58 -228 20 -322 98 -118 162 -106 407 76 340 251 371 377 91 377 -161 0 -200 67 -200 339 0 548 262 776 948 824 324 22 602 54 619 70 16 17 -24 172 -89 345 -99 260 -90 374 50 668 93 195 241 354 330 354 89 0 289 76 446 168 251 149 331 152 700 31 268 -89 447 -220 504 -370 49 -128 196 -273 327 -323 131 -50 266 -164 300 -253 48 -126 105 -139 257 -57 336 179 581 124 649 -146 61 -245 259 -354 259 -143 0 293 -221 493 -545 493 -515 0 -1216 472 -1009 679 28 28 378 39 777 23 771 -29 3032 -32 5552 -6 1218 12 1525 43 1525 152 0 115 -649 132 -3925 104 -2258 -19 -4214 9 -4605 66 -433 63 -723 64 -800 3 -101 -80 -1985 -153 -6420 -246 -1056 -23 -6564 144 -6512 197 56 56 3313 161 3812 123 220 -17 647 -22 950 -13 303 10 2035 37 3850 59 1815 23 3821 82 4457 132 636 49 1649 68 2250 42 960 -41 3853 -53 6168 -24 452 5 775 51 775 111 0 67 -967 96 -2825 85 -1554 -9 -3252 9 -3775 40 -522 30 -1670 14 -2550 -37z m-14325 -856 c-69 -28 -181 -28 -250 0 -69 28 -12 50 125 50 138 0 194 -22 125 -50z"/>
<path d="M3975 22231 c-427 -112 -99 -180 800 -167 1188 18 1288 36 775 142 -424 88 -1283 101 -1575 25z"/>
<path d="M18700 22105 c0 -61 56 -130 125 -153 246 -83 5433 -131 5825 -54 524 103 543 102 -2650 156 -1512 25 -2874 72 -3025 104 -170 36 -275 15 -275 -53z"/>
<path d="M6604 21538 c-167 -141 -304 -342 -304 -447 0 -229 12 -227 -421 -47 -317 133 -372 128 -685 -62 -187 -114 -396 -280 -464 -370 -176 -230 -163 -778 20 -848 178 -68 201 145 34 312 -88 88 -16 216 297 528 l412 413 395 -222 c459 -258 712 -205 712 148 0 248 341 658 544 655 200 -2 361 -163 406 -405 47 -252 223 -649 384 -869 70 -95 126 -98 229 -13 199 165 437 -66 437 -423 0 -311 161 -378 339 -140 91 121 447 150 1936 158 1004 5 1825 48 1825 96 0 47 -843 86 -1873 85 -1258 0 -1884 35 -1909 108 -75 227 -343 405 -609 405 -200 0 -309 71 -393 255 -255 559 -205 594 859 602 2221 16 3020 54 3077 146 33 54 -86 103 -271 111 -182 7 -533 27 -781 43 -247 17 -817 -18 -1265 -78 -448 -59 -898 -73 -1000 -31 -102 43 -510 93 -906 111 -654 31 -750 11 -1025 -221z"/>
<path d="M18993 21542 c-116 -141 -93 -151 213 -94 302 56 385 22 682 -285 266 -275 344 -445 368 -806 17 -251 0 -459 -38 -461 -37 -2 -583 -26 -1213 -53 -629 -27 -1166 -70 -1191 -96 -26 -26 491 -47 1149 -47 746 0 1239 -42 1308 -111 134 -134 329 -34 329 167 0 98 112 144 350 144 193 0 350 45 350 100 0 55 -180 100 -400 100 -326 0 -400 35 -400 189 0 264 194 313 974 245 475 -42 646 -28 576 46 -55 59 -408 120 -784 136 -668 30 -695 41 -1161 507 -505 506 -870 610 -1112 319z"/>
<path d="M23550 21543 c-495 -259 -650 -452 -650 -811 0 -263 -52 -357 -239 -428 -132 -50 -326 -68 -431 -41 -109 29 -297 -38 -436 -156 l-244 -206 334 -307 c194 -179 398 -284 484 -251 81 31 707 57 1390 57 761 0 1242 39 1242 100 0 62 -543 101 -1425 102 -784 0 -1488 41 -1565 89 -222 141 -51 402 260 398 392 -6 873 53 920 112 21 27 7 151 -33 276 -118 372 141 813 543 925 469 130 477 128 552 -108 36 -113 173 -255 305 -315 185 -85 226 -162 180 -344 -43 -174 -17 -235 102 -235 109 0 161 89 161 278 0 204 -81 327 -300 456 -165 98 -300 242 -300 322 0 79 -64 144 -142 144 -78 0 -202 22 -275 50 -73 27 -268 -21 -433 -107z"/>
<path d="M1875 21225 c-1135 -18 -1875 -68 -1875 -127 0 -125 4766 -133 4844 -8 82 133 -207 213 -677 187 -229 -12 -1261 -36 -2292 -52z"/>
<path d="M0 20616 c0 -109 377 -128 1995 -100 1251 21 2036 74 2103 142 78 78 -488 106 -1995 100 -1687 -6 -2103 -35 -2103 -142z"/>
<path d="M0 19531 c0 -153 75 -192 375 -196 368 -6 1255 -97 1900 -195 179 -27 325 -81 325 -120 0 -74 -1728 -60 -2275 20 -238 35 -325 9 -325 -96 0 -117 237 -146 1275 -152 701 -5 1410 -29 1575 -55 165 -25 574 -55 909 -67 353 -11 682 -80 782 -163 131 -109 437 -136 1291 -115 615 16 1231 30 1368 33 138 3 588 -91 1000 -210 l750 -215 -590 25 c-327 14 -606 -20 -625 -75 -21 -61 333 -109 909 -122 520 -12 1405 -91 1968 -175 1177 -176 1421 -188 1345 -65 -30 49 -359 120 -731 158 -981 101 -1876 344 -2463 667 -773 427 -439 382 1587 -212 385 -113 858 -233 1050 -267 193 -34 395 -94 450 -134 55 -40 436 -103 847 -139 410 -37 845 -131 965 -210 121 -79 427 -196 680 -260 254 -63 490 -162 525 -219 112 -181 -851 10 -1486 295 l-596 267 -492 -177 c-547 -197 -1387 -157 -2177 104 -337 111 -601 122 -1189 49 -462 -58 -850 -58 -998 -2 -324 123 -844 114 -1029 -18 -121 -87 -108 -98 69 -60 344 75 1131 -125 1131 -288 0 -78 87 -142 194 -142 107 0 222 -45 256 -100 99 -160 -1271 -124 -1505 39 -223 157 -717 203 -1898 178 -794 -17 -804 -20 -916 -317 -107 -284 -16 -518 118 -302 103 167 437 116 651 -98 124 -124 200 -333 200 -550 0 -476 -253 -464 -367 17 -121 513 -341 567 -263 65 59 -376 57 -379 -141 -205 -110 98 -284 334 -387 525 -103 192 -222 348 -265 348 -158 0 -69 -342 173 -659 138 -180 250 -398 250 -484 0 -214 821 -214 1147 0 233 153 236 169 97 625 -78 257 -142 479 -143 493 -1 14 111 25 247 25 206 0 297 -105 541 -625 416 -889 722 -1219 1051 -1137 143 36 260 30 260 -15 0 -44 127 -155 282 -246 247 -147 315 -150 552 -27 149 78 341 210 426 295 85 85 204 155 264 155 61 0 193 75 294 166 101 92 360 171 575 176 215 5 425 42 466 83 111 111 -843 91 -1054 -23 -152 -81 -191 -52 -236 175 -74 378 43 457 494 332 459 -128 1137 -143 1137 -26 0 81 -1331 319 -1780 318 -208 -1 -223 -34 -163 -351 57 -307 40 -350 -139 -350 -219 0 -618 478 -618 740 0 108 -90 160 -275 161 -151 0 -432 39 -625 87 -1188 297 -1496 340 -1630 229 -103 -86 -183 -78 -328 32 -184 139 -182 145 58 154 138 4 535 32 883 61 507 42 670 19 821 -117 153 -139 447 -177 1592 -208 888 -24 1404 -1 1404 62 0 54 -93 99 -206 99 -113 0 -184 35 -158 78 52 84 1521 -29 2264 -174 247 -48 465 -72 483 -54 90 89 -438 258 -1051 337 l-682 88 686 12 c608 12 1389 -112 2454 -389 187 -49 412 -54 500 -11 257 125 753 -16 793 -225 24 -124 -4 -161 -84 -112 -208 129 -5112 140 -5070 12 26 -78 722 -115 2279 -123 2268 -11 2338 -19 4992 -528 578 -110 1263 -228 1523 -262 790 -101 611 -201 -295 -163 -522 22 -830 -1 -794 -59 32 -53 361 -105 732 -117 946 -31 1184 -203 284 -206 -784 -3 -1459 147 -1424 316 31 146 -358 258 -939 270 -263 6 -513 70 -579 150 -63 77 -283 163 -487 192 -204 28 -495 83 -646 122 -303 76 -396 -102 -100 -193 96 -30 50 -39 -102 -21 -153 18 -302 -6 -331 -53 -30 -48 84 -87 252 -87 423 0 440 -4 583 -123 70 -58 295 -123 500 -144 205 -22 784 -148 1287 -281 503 -133 1219 -266 1591 -296 821 -66 972 -156 262 -156 -284 0 -517 -34 -517 -75 0 -41 754 -80 1675 -85 921 -6 2305 -14 3075 -19 770 -5 1636 -13 1925 -19 455 -10 525 14 525 181 0 162 -117 212 -725 311 -399 65 -1030 137 -1403 160 -373 23 -764 88 -868 144 -105 56 -295 103 -422 105 -128 2 -322 74 -432 160 -190 149 -184 153 126 89 180 -38 652 -107 1050 -153 398 -47 927 -131 1174 -188 248 -56 686 -104 975 -107 l525 -4 0 1288 c0 1222 -11 1296 -225 1445 l-225 157 225 5 c172 4 225 64 225 255 0 234 -33 250 -525 257 -2139 26 -2905 79 -2995 207 -55 78 -113 94 -138 36 -42 -101 -3257 -110 -5667 -16 -675 26 -1151 8 -1119 -44 32 -51 -650 -64 -1625 -30 -2091 73 -2098 74 -2189 165 -110 110 -442 91 -442 -25 0 -55 -115 -100 -256 -100 -168 0 -231 40 -184 116 51 83 -32 99 -294 56 -341 -55 -1861 225 -2924 540 -332 98 -565 91 -1258 -36 -569 -105 -997 -130 -1293 -76 -242 44 -1161 133 -2041 197 -880 64 -1701 141 -1825 171 -174 41 -225 10 -225 -137z m4232 -530 c136 -124 -421 -215 -889 -145 -240 36 -491 132 -559 213 -106 128 -26 138 622 77 409 -38 781 -104 826 -145z m2481 61 c185 -76 596 -169 912 -207 421 -51 575 -111 575 -223 0 -194 -435 -127 -1467 224 -836 285 -1255 308 -1444 81 -122 -147 -103 -156 192 -91 359 79 1411 -127 1228 -241 -62 -38 -519 -63 -1015 -55 -783 12 -931 43 -1120 232 l-218 218 347 7 c191 4 437 46 547 93 312 134 1091 114 1463 -38z m9506 -1130 c-72 -29 -159 -26 -192 8 -33 33 26 56 131 52 117 -5 141 -28 61 -60z m3381 -247 c0 -93 -585 -285 -868 -285 -132 0 -340 -66 -464 -147 -321 -211 -915 -98 -1050 198 -58 126 -80 254 -49 285 78 78 2431 29 2431 -51z m-9450 -431 c278 -128 226 -138 -725 -146 -574 -4 -1025 33 -1025 85 0 209 1326 255 1750 61z m3006 -111 c183 -149 175 -154 -153 -98 -437 74 -644 255 -292 255 138 0 338 -71 445 -157z m9378 -193 c431 -83 811 -150 845 -150 33 0 18 -38 -34 -85 -108 -97 -2688 -25 -2591 72 34 34 220 69 413 76 192 8 400 64 461 125 62 62 114 112 117 112 3 0 358 -68 789 -150z m-13234 -50 c0 -55 -124 -97 -275 -93 -244 6 -252 17 -75 93 273 117 350 117 350 0z m6882 -257 c348 -75 771 -205 941 -289 169 -85 368 -154 442 -154 74 0 135 -37 135 -82 0 -144 -1395 79 -1777 284 -203 108 -445 173 -540 143 -110 -35 -212 23 -288 164 -110 206 -101 214 169 143 157 -41 571 -135 918 -209z m-9032 -482 c165 -88 357 -160 427 -160 70 -1 181 -120 247 -265 69 -151 284 -333 504 -426 l384 -163 -317 -235 c-403 -298 -721 -182 -906 332 -151 417 -289 464 -289 99 0 -435 -323 -249 -619 357 -148 303 -272 603 -275 668 -7 138 374 45 844 -207z m11700 139 c37 -60 -84 -100 -300 -100 -216 0 -337 40 -300 100 34 55 169 100 300 100 131 0 266 -45 300 -100z m-3175 -69 c-96 -25 -254 -25 -350 0 -96 25 -18 46 175 46 193 0 271 -21 175 -46z m3900 -390 c346 -44 525 -113 525 -204 0 -82 110 -138 275 -141 151 -1 388 -67 525 -146 138 -79 326 -145 418 -146 224 -5 722 -197 663 -256 -72 -72 -2289 353 -2668 511 -186 78 -419 141 -518 141 -99 0 -243 63 -320 139 -76 77 -226 165 -332 196 -215 63 620 8 1432 -94z m-1902 -10 c-97 -26 -232 -24 -300 3 -68 28 12 49 177 47 165 -3 220 -25 123 -50z m5873 -25 c35 -56 -94 -71 -319 -36 -502 78 -542 130 -100 130 199 0 387 -42 419 -94z m-3621 -772 c-69 -28 -181 -28 -250 0 -69 28 -12 50 125 50 138 0 194 -22 125 -50z m575 -344 c93 -52 -107 -85 -525 -87 -541 -2 -675 27 -675 150 0 127 91 142 525 87 289 -36 593 -104 675 -150z m1400 2 c102 -59 21 -87 -256 -89 -223 -2 -493 67 -600 152 -180 143 -162 149 256 88 248 -36 518 -104 600 -151z m2163 -75 c-102 -20 -395 -4 -650 36 -341 53 -413 90 -271 142 106 38 398 22 650 -36 264 -61 379 -121 271 -142z m-1071 -80 c100 -89 -557 -24 -692 68 -107 73 -37 83 250 35 220 -36 419 -83 442 -103z"/>
<path d="M8900 19400 c83 -53 375 -94 650 -91 371 4 448 27 300 91 -291 125 -1143 125 -950 0z"/>
<path d="M11100 19400 c-105 -68 52 -97 525 -98 384 -1 675 41 675 98 0 128 -1002 128 -1200 0z"/>
<path d="M20350 19421 c-460 -93 -364 -221 168 -221 613 0 1182 90 1182 188 0 70 -1042 96 -1350 33z"/>
<path d="M10224 19331 c95 -25 275 -26 400 -2 124 24 46 45 -174 46 -220 1 -322 -19 -226 -44z"/>
<path d="M17300 19300 c0 -61 436 -100 1117 -100 614 0 1098 17 1075 38 -106 96 -2192 156 -2192 62z"/>
<path d="M21665 18824 c-78 -126 1256 -216 1685 -115 268 63 252 72 -150 82 -247 6 -680 38 -961 72 -306 37 -537 21 -574 -39z"/>
<path d="M24350 18700 c34 -55 194 -100 356 -100 162 0 294 45 294 100 0 55 -160 100 -356 100 -212 0 -331 -40 -294 -100z"/>
<path d="M103 18504 c-281 -178 14 -249 911 -221 827 26 906 12 953 -169 50 -192 350 -239 587 -92 53 32 254 43 446 25 193 -19 508 -41 700 -50 l350 -15 -350 -100 c-192 -55 -405 -146 -472 -201 -159 -131 -1291 -4 -1458 163 -140 140 -1770 282 -1770 154 0 -45 146 -112 325 -148 475 -95 1202 -365 1375 -509 206 -171 1600 -305 1600 -154 0 63 -158 113 -356 113 -196 0 -334 35 -307 78 26 43 220 70 430 59 1823 -93 2649 -104 3033 -38 383 65 308 79 -500 98 -522 13 -1197 54 -1500 92 l-550 70 500 72 c275 39 1121 56 1880 36 1001 -27 1349 -6 1270 73 -92 92 -1419 177 -2525 161 -151 -2 -275 35 -275 83 0 48 -298 115 -662 149 -363 34 -714 106 -779 160 -67 55 -646 87 -1339 72 -671 -15 -1220 10 -1220 54 0 106 -115 100 -297 -15z"/>
<path d="M400 17509 c0 -49 -90 -67 -200 -38 -230 60 -265 -92 -60 -262 76 -64 170 -282 208 -484 95 -507 328 -928 481 -869 75 28 193 -97 287 -304 154 -340 153 -352 -44 -352 -113 0 -400 114 -638 254 l-434 255 22 -505 c16 -376 60 -504 175 -505 84 -1 254 -29 378 -62 165 -44 225 -18 225 101 0 236 453 197 1050 -92 l500 -241 -450 11 c-863 21 -1311 -17 -1256 -106 30 -49 427 -82 881 -72 454 10 1095 -35 1425 -99 519 -102 360 -111 -1175 -64 l-1775 55 0 -506 c0 -470 16 -502 225 -462 222 43 222 43 11 -52 -188 -84 -215 -182 -225 -803 l-10 -707 374 -17 375 -17 -375 -39 -375 -39 0 -644 c0 -591 94 -796 250 -544 34 55 309 100 611 100 356 0 715 77 1019 219 259 121 763 252 1120 293 358 40 751 104 875 142 140 43 225 27 225 -42 0 -62 -67 -112 -150 -112 -83 0 -150 -67 -150 -150 0 -118 -143 -151 -675 -152 -371 -2 -832 -45 -1025 -96 -192 -51 -618 -161 -945 -243 -597 -151 -1056 -412 -1134 -646 -24 -71 165 -18 444 126 890 460 1753 661 2837 661 599 0 998 40 998 100 0 55 -79 104 -175 109 -96 4 -40 50 125 100 165 51 570 72 900 47 330 -25 778 -48 995 -51 225 -3 354 -42 300 -90 -150 -134 -2374 -493 -3745 -605 -687 -56 -1425 -152 -1639 -214 -388 -113 -388 -113 -189 -313 250 -250 1282 -368 1622 -186 166 89 198 151 117 232 -81 81 -143 79 -231 -9 -131 -131 -586 -143 -980 -26 -236 71 -228 81 150 184 640 176 2050 268 2050 135 0 -62 -67 -113 -150 -113 -83 0 -150 -45 -150 -100 0 -150 371 -120 715 58 455 235 1189 440 1585 442 193 0 484 71 648 157 164 85 524 157 800 159 276 2 575 43 664 90 237 127 319 -15 98 -170 -104 -73 -509 -162 -900 -199 -390 -36 -710 -108 -710 -160 0 -135 1514 23 1664 173 180 180 1478 288 1743 146 179 -96 297 -71 693 144 262 143 598 260 745 260 215 0 257 37 210 184 -82 260 663 609 893 418 216 -180 189 -327 -35 -187 -206 129 -513 56 -513 -123 0 -62 66 -88 147 -57 81 31 183 -3 225 -76 43 -72 224 -207 403 -298 179 -91 325 -210 325 -264 0 -150 -288 -115 -606 73 -159 93 -319 138 -358 100 -99 -100 -4 -170 431 -320 291 -100 429 -104 582 -16 111 63 287 115 392 115 105 1 210 57 234 126 25 77 -50 125 -198 125 -319 0 -519 177 -678 600 -73 193 -188 418 -256 500 -118 142 -180 409 -155 668 7 65 257 148 562 186 303 38 550 115 550 171 0 65 -200 79 -550 38 -326 -38 -550 -26 -550 30 0 159 199 231 626 225 224 -3 500 59 613 138 113 79 347 144 521 144 174 0 369 64 434 143 165 199 1245 286 1906 153 303 -60 646 -112 763 -114 163 -4 200 -52 160 -207 -30 -111 -137 -224 -240 -250 -148 -39 -181 -130 -160 -449 43 -649 1112 -1699 1556 -1529 124 48 79 111 -202 282 -199 122 -448 334 -554 471 -374 486 -381 1600 -10 1600 239 0 253 -380 19 -551 -154 -113 -150 -132 50 -239 120 -65 218 -194 218 -289 1 -345 1013 -1578 1600 -1948 549 -347 1657 -650 2617 -716 246 -17 548 -85 671 -151 123 -66 620 -160 1104 -210 484 -50 954 -120 1044 -154 140 -54 164 18 164 487 l0 551 -475 43 c-261 24 -518 6 -570 -40 -136 -119 -532 -102 -786 34 -120 64 -331 125 -469 137 -137 11 -542 55 -900 97 -357 43 -987 83 -1400 90 -457 7 -730 50 -700 110 62 122 2501 131 4125 16 1123 -80 1175 -75 1175 109 0 179 -108 197 -1516 258 -834 36 -1914 66 -2400 66 -523 0 -884 41 -884 100 0 56 -279 100 -638 100 -473 0 -673 43 -775 166 -124 150 -116 156 77 53 147 -78 1151 -115 3175 -116 2557 -1 2961 19 2961 148 0 110 -119 149 -456 149 -308 0 -434 36 -387 111 42 68 215 87 456 49 l387 -62 0 501 0 501 -775 20 -775 20 775 34 775 34 0 596 c0 529 -22 596 -200 596 -133 0 -200 -67 -200 -200 0 -130 -67 -200 -192 -200 -105 0 -270 -30 -366 -67 -105 -40 -150 -27 -113 32 100 163 -809 321 -1851 321 -550 1 -1050 50 -1150 114 -135 85 126 99 1081 56 1196 -55 1891 -6 1891 132 0 34 -1215 68 -2700 75 -1500 7 -2700 -26 -2700 -75 0 -97 164 -108 1375 -89 571 9 825 -23 825 -104 0 -86 -543 -111 -2075 -95 -1141 12 -2187 15 -2325 7 -546 -33 -1948 220 -2058 371 -93 127 -284 144 -1102 99 -858 -46 -950 -37 -695 73 322 138 2979 159 3113 25 155 -155 -71 -205 -428 -95 -361 111 -533 89 -395 -49 126 -126 1274 -162 1392 -44 84 84 72 113 -45 113 -87 0 -219 75 -295 166 -124 151 -116 156 88 47 275 -147 1725 -235 1725 -105 0 50 -244 92 -542 92 -298 0 -822 72 -1163 159 -403 103 -767 135 -1033 89 -774 -132 -1697 -99 -1962 69 -429 274 -2508 415 -2736 187 -72 -72 151 -104 716 -104 480 0 820 -41 820 -100 0 -60 -383 -100 -950 -100 -567 0 -950 40 -950 100 0 183 -176 103 -230 -105 -52 -198 -22 -203 1042 -166 647 23 1144 87 1212 155 158 158 906 155 853 -4 -22 -65 -164 -152 -315 -193 -152 -40 -391 -189 -532 -330 -212 -211 -351 -257 -788 -257 -291 0 -558 45 -592 100 -39 62 175 102 569 106 497 5 581 27 397 101 -129 51 -267 73 -306 49 -39 -24 -515 -67 -1057 -95 -599 -31 -1014 -98 -1058 -170 -101 -162 -3222 -76 -3428 95 -91 75 -461 114 -1001 105 -670 -11 -892 21 -1019 147 -89 89 -310 162 -492 162 -411 0 -1133 249 -1386 478 -105 94 -258 341 -341 547 -95 238 -215 375 -329 375 -132 0 -211 131 -300 505 -67 278 -94 533 -60 567 33 34 61 -8 61 -93 0 -85 68 -211 150 -279 227 -189 197 172 -49 575 -187 308 -401 432 -401 234z m2819 -3177 c-72 -29 -159 -26 -192 8 -33 33 26 56 131 52 117 -5 141 -28 61 -60z m1481 -232 c0 -55 -146 -96 -325 -90 -308 9 -312 14 -75 90 353 113 400 113 400 0z m7950 -50 c-110 -79 -266 -201 -346 -272 -149 -130 -1782 -456 -2604 -519 -247 -20 -758 -131 -1136 -247 -855 -264 -962 -265 -701 -4 119 118 396 231 647 263 242 31 489 94 548 141 59 46 329 103 600 126 271 23 560 65 642 93 352 121 797 155 852 66 91 -147 447 -116 508 44 58 150 430 324 840 391 138 22 273 45 300 51 28 6 -40 -54 -150 -133z m-8831 -18 c-72 -29 -159 -26 -192 8 -33 33 26 56 131 52 117 -5 141 -28 61 -60z m6261 -95 c-118 -118 -242 -142 -447 -89 -258 68 -266 82 -83 156 110 45 311 85 446 89 228 6 235 -5 84 -156z m4195 -11 c589 -50 888 -222 400 -230 -124 -1 -337 -67 -475 -146 -137 -79 -464 -145 -725 -146 -354 -3 -475 -42 -475 -154 0 -109 -115 -151 -425 -154 -234 -1 -537 -67 -675 -146 -318 -182 -646 -184 -1150 -7 -393 138 -396 142 -150 236 380 146 1593 219 1872 113 206 -79 255 -61 299 107 43 167 136 201 547 201 337 0 472 35 425 111 -46 75 -270 89 -681 44 -404 -46 -578 -35 -512 30 144 143 774 306 950 246 82 -28 431 -76 775 -105z m-13575 -364 c0 -85 -509 -129 -558 -49 -30 48 84 87 252 87 168 0 306 -17 306 -38z m2295 -57 c25 -3 -4 -54 -64 -114 -126 -126 -1231 -19 -1231 119 0 65 704 63 1295 -5z m15280 -13 c-119 -69 -231 -69 -350 0 -143 83 -111 102 175 102 286 0 318 -19 175 -102z m5144 40 c-72 -29 -159 -26 -192 8 -33 33 26 56 131 52 117 -5 141 -28 61 -60z m-15900 -100 c-72 -29 -159 -26 -192 8 -33 33 26 56 131 52 117 -5 141 -28 61 -60z m15405 -3 c-125 -24 -305 -23 -400 2 -96 25 6 45 226 44 220 -1 298 -22 174 -46z m-21261 -299 c-119 -119 -587 -150 -516 -35 36 58 182 105 326 105 143 0 229 -32 190 -70z m8637 -172 c0 -173 915 -462 1214 -383 176 46 198 21 141 -160 -43 -134 -26 -215 45 -215 63 0 100 -101 82 -225 -41 -289 -303 -291 -429 -3 -54 122 -223 249 -376 283 -153 34 -253 103 -222 153 31 51 -78 92 -243 92 -165 0 -330 -48 -366 -107 -37 -59 -128 -83 -203 -54 -76 29 -180 -23 -231 -115 -81 -144 -128 -149 -337 -38 -133 72 -306 121 -384 110 -77 -11 -208 -14 -291 -6 -274 24 116 207 450 210 454 4 750 108 750 262 0 178 -113 175 -356 -9 -107 -81 -351 -149 -544 -151 -531 -6 -1100 -118 -1100 -215 0 -48 79 -89 175 -92 96 -3 -46 -96 -316 -205 -270 -110 -552 -176 -626 -147 -164 63 -652 -140 -763 -316 -46 -74 -277 -126 -550 -125 -554 1 -444 115 337 344 397 117 559 230 750 526 157 244 333 388 493 407 193 23 216 7 103 -69 -320 -215 20 -220 666 -9 1102 360 2131 484 2131 257z m-5500 -145 c0 -83 -465 -213 -762 -213 -310 0 -110 191 237 227 206 22 409 47 450 56 41 9 75 -22 75 -70z m17324 16 c-125 -24 -305 -23 -400 2 -96 25 6 45 226 44 220 -1 298 -22 174 -46z m949 2 c-97 -26 -232 -24 -300 3 -68 28 12 49 177 47 165 -3 220 -25 123 -50z m-17298 -100 c-96 -25 -254 -25 -350 0 -96 25 -17 46 175 46 193 0 271 -21 175 -46z m14000 0 c-96 -25 -254 -25 -350 0 -96 25 -17 46 175 46 193 0 271 -21 175 -46z m-13430 -519 c-52 -48 -275 -117 -495 -152 -372 -60 -386 -54 -206 88 203 159 870 220 701 64z m3630 -276 c619 -35 1125 -100 1125 -143 0 -44 90 -108 200 -143 110 -35 200 -102 200 -149 0 -151 -336 -164 -791 -30 -553 162 -2740 174 -2994 15 -198 -124 -1115 -35 -1115 108 0 115 389 205 450 105 48 -77 1004 221 1137 355 34 34 197 35 362 3 166 -32 807 -86 1426 -121z m-6430 -31 c-125 -125 -1336 -138 -2095 -22 -534 81 -446 92 795 104 882 8 1360 -22 1300 -82z m1487 -71 c132 -131 -164 -334 -469 -322 -214 8 -250 27 -113 61 110 27 236 112 280 188 87 150 198 177 302 73z m18511 -25 c-122 -113 -3143 -241 -3397 -144 -184 71 -182 79 37 130 398 93 3459 106 3360 14z m-22143 -209 c0 -55 -146 -96 -325 -90 -308 9 -312 14 -75 90 353 113 400 113 400 0z m8900 -350 c68 -82 276 -150 462 -150 186 0 338 -45 338 -100 0 -126 -555 -131 -786 -7 -226 120 -1488 259 -1387 152 113 -121 788 -342 1048 -343 241 -2 307 -152 100 -225 -233 -81 -1575 45 -1575 149 0 66 -280 83 -790 48 -435 -29 -829 -15 -877 33 -48 48 -596 118 -1219 155 -888 54 -1093 93 -949 179 117 69 768 103 1760 91 912 -10 1575 22 1575 75 0 52 488 93 1088 93 845 0 1115 -33 1212 -150z m9419 -318 c-72 -29 -159 -26 -192 8 -33 33 26 56 131 52 117 -5 141 -28 61 -60z m1955 -932 c281 -151 564 -200 1150 -200 646 0 776 -27 776 -161 0 -116 -49 -139 -175 -83 -96 43 -535 107 -975 143 -797 64 -1550 269 -1550 421 0 145 394 84 774 -120z m2901 -272 c-151 -23 -399 -23 -550 0 -151 23 -27 42 275 42 303 0 426 -19 275 -42z"/>
<path d="M11266 13125 c-26 -41 84 -80 244 -86 159 -6 290 28 290 75 0 106 -470 115 -534 11z"/>
<path d="M1150 17300 c34 -55 127 -100 206 -100 79 0 144 -65 144 -144 0 -160 182 -308 270 -219 109 109 -276 563 -478 563 -112 0 -176 -45 -142 -100z"/>
<path d="M3450 17003 c-252 -51 -268 -70 -98 -116 221 -61 642 48 491 128 -51 27 -228 22 -393 -12z"/>
<path d="M1148 16796 c-36 -57 48 -193 186 -302 139 -108 346 -350 461 -536 334 -540 799 -617 486 -80 -108 187 -131 342 -73 497 105 277 208 283 440 28 98 -109 266 -226 373 -260 170 -54 641 -915 550 -1006 -19 -19 -187 123 -372 314 -329 340 -656 470 -576 230 60 -179 750 -712 951 -733 97 -11 311 -79 476 -151 171 -75 730 -139 1300 -149 550 -9 1113 -50 1250 -90 138 -41 329 -96 425 -123 96 -27 175 -1 175 56 0 58 -124 133 -275 167 -151 34 -418 224 -592 422 l-317 360 -369 -195 c-203 -107 -391 -251 -419 -320 -68 -171 -427 -157 -887 35 -450 188 -604 370 -688 815 -41 215 -153 372 -332 465 -149 78 -380 258 -513 400 -292 312 -453 326 -681 60 -94 -110 -222 -200 -284 -200 -61 0 -193 90 -293 200 -203 224 -308 249 -402 96z m4852 -1785 c0 -114 -253 -212 -533 -207 -208 3 -206 9 33 146 287 164 500 190 500 61z"/>
<path d="M12275 16031 c-206 -24 -375 -85 -375 -137 0 -52 -157 -94 -350 -94 -515 0 -426 -163 125 -229 261 -31 610 -127 775 -213 209 -109 557 -154 1150 -147 938 10 774 159 -200 182 -302 7 -730 93 -950 192 l-400 181 579 68 c361 43 656 27 784 -41 220 -118 383 -47 230 100 -120 116 -884 193 -1368 138z"/>
<path d="M6250 14422 c-110 -23 -245 -88 -300 -145 -68 -70 -5 -80 200 -32 437 104 529 265 100 177z"/>
<path d="M14725 13190 c-301 -112 -288 -227 18 -151 193 49 294 -5 494 -261 288 -367 483 -298 260 92 -178 313 -468 433 -772 320z"/>
<path d="M15700 12950 c0 -82 45 -150 100 -150 55 0 100 68 100 150 0 82 -45 150 -100 150 -55 0 -100 -68 -100 -150z"/>
<path d="M13300 12753 c0 -229 160 -414 1087 -1256 240 -218 496 -397 567 -397 261 0 463 133 550 362 76 200 137 225 406 171 246 -49 306 -32 270 77 -25 77 -171 184 -322 238 -246 86 -306 61 -542 -226 -340 -413 -491 -407 -672 27 -108 260 -200 342 -358 325 -155 -18 -273 84 -439 376 -235 416 -547 588 -547 303z"/>
<path d="M12551 12001 c-68 -109 857 -1101 1025 -1101 142 0 -635 1063 -832 1138 -76 29 -163 13 -193 -37z"/>
<path d="M16455 11008 c-31 -51 18 -167 109 -258 239 -239 1582 -850 1868 -850 133 0 348 -83 480 -185 131 -102 306 -214 388 -249 83 -35 -30 -47 -250 -26 -389 36 -761 139 -2000 554 -330 110 -789 248 -1020 306 -232 58 -553 217 -715 353 -476 400 -709 293 -305 -141 316 -339 167 -362 -466 -72 -646 296 -744 313 -744 129 0 -72 221 -228 492 -346 722 -316 1015 -373 1111 -218 67 108 232 100 914 -46 458 -98 896 -230 973 -294 263 -218 2117 -622 2384 -520 147 57 150 80 23 170 -115 81 -104 89 53 36 110 -38 448 -107 750 -154 303 -47 708 -134 900 -193 387 -118 1085 -109 1162 16 28 44 -77 80 -231 80 -388 0 -1943 294 -2155 407 -95 51 -282 93 -414 93 -133 0 -437 112 -677 249 -239 137 -524 249 -632 250 -265 1 -1661 707 -1724 871 -59 151 -192 170 -274 38z"/>
<path d="M10430 10006 c-744 -57 -1036 -135 -922 -247 23 -22 434 -10 912 27 767 60 902 46 1135 -124 226 -164 470 -197 1679 -222 779 -16 1686 -77 2016 -134 761 -133 1550 -136 1550 -6 0 55 -219 100 -486 100 -268 0 -729 49 -1025 109 -297 59 -1175 120 -1953 134 -1275 23 -1442 47 -1689 241 -151 119 -302 209 -335 201 -34 -9 -431 -44 -882 -79z"/>
<path d="M5125 9729 c-246 -47 -312 -229 -83 -229 217 0 458 111 458 211 0 49 -34 83 -75 75 -41 -7 -176 -33 -300 -57z"/>
<path d="M5451 9518 c-150 -151 -12 -238 299 -187 274 44 350 23 350 -98 0 -119 63 -138 275 -84 615 159 1416 221 2247 173 619 -35 878 -16 878 64 0 71 -218 118 -575 125 -2573 49 -3430 51 -3474 7z"/>
<path d="M3962 9298 c134 -134 707 -296 781 -221 33 32 -110 117 -317 189 -457 159 -601 169 -464 32z"/>
<path d="M17286 9291 c-204 -125 -73 -180 569 -239 327 -29 528 -25 445 10 -481 204 -901 299 -1014 229z"/>
<path d="M498 9199 c-199 -123 -51 -239 157 -122 94 52 129 121 78 153 -51 31 -157 17 -235 -31z"/>
<path d="M10200 9200 c0 -58 307 -99 725 -98 505 1 679 30 575 98 -198 128 -1300 128 -1300 0z"/>
<path d="M0 8912 c0 -99 90 -262 200 -362 110 -100 200 -247 200 -328 0 -235 872 -1391 1278 -1694 467 -349 628 -545 574 -698 -125 -356 1595 -2716 1817 -2494 44 44 -400 671 -728 1027 -213 233 -766 1145 -721 1191 26 25 233 -126 461 -336 318 -294 387 -410 296 -501 -147 -147 534 -873 1248 -1332 507 -327 599 -438 275 -335 -211 67 -278 -90 -89 -207 61 -37 410 -77 775 -88 404 -13 781 -87 964 -189 288 -162 225 -168 -1600 -134 -1652 30 -1983 64 -2538 258 -662 232 -1165 542 -1254 775 -91 238 130 145 542 -227 595 -538 481 -286 -252 554 -357 408 -648 824 -648 925 0 101 -45 183 -100 183 -55 0 -100 -98 -100 -219 0 -209 -12 -207 -300 69 -281 269 -300 274 -300 76 0 -128 198 -384 508 -655 389 -341 471 -458 350 -504 -87 -33 -158 -112 -158 -174 0 -189 623 -709 1100 -919 248 -109 393 -219 324 -245 -116 -43 -707 190 -1334 525 -888 475 -1126 290 -264 -204 l524 -300 -525 -30 c-475 -28 -525 -53 -525 -264 0 -324 166 -348 1968 -282 1240 45 1547 31 1486 -68 -53 -85 -292 -117 -741 -99 -365 15 -1124 20 -1688 10 l-1025 -17 0 -500 0 -500 481 0 c405 0 528 -48 769 -300 l287 -300 2507 5 c3425 6 4236 82 5063 472 809 382 1150 473 1238 331 37 -59 205 -108 373 -108 581 0 121 -268 -583 -341 -365 -37 -757 -133 -871 -213 -186 -130 10 -146 1780 -146 1094 0 1956 34 1915 75 -40 41 -214 123 -385 182 -172 59 -327 151 -345 205 -34 104 494 54 1671 -158 1152 -208 1406 -224 4275 -268 1924 -31 2825 -11 2825 60 0 57 124 100 275 94 l275 -10 -250 -80 c-145 -46 580 -84 1725 -90 l1975 -10 -2 425 c-1 299 -28 382 -93 279 -62 -97 -270 -147 -624 -150 -355 -3 -523 -43 -508 -123 13 -65 -77 -154 -200 -196 -339 -117 -1694 -63 -1777 71 -113 184 -1051 153 -1245 -41 -174 -174 -279 -204 -376 -107 -68 69 228 383 497 527 103 55 401 125 661 156 261 31 551 97 646 147 94 51 427 124 739 163 433 53 646 32 891 -90 177 -89 562 -161 856 -161 521 0 535 7 535 284 0 261 -42 293 -525 399 -289 63 -682 106 -875 95 -192 -11 -1047 -7 -1900 9 -1145 22 -1472 55 -1250 124 420 131 3827 138 4225 8 l325 -105 0 643 0 643 -357 0 c-288 0 -351 34 -322 175 26 127 124 171 358 160 261 -12 321 23 321 189 0 191 -40 199 -625 134 -938 -106 -3606 -139 -3456 -44 72 46 604 83 1181 83 578 0 1466 56 1975 123 l925 123 0 428 c0 272 -46 432 -125 437 -100 6 -100 18 0 58 88 36 125 340 125 1028 l0 978 -975 -31 -975 -31 750 136 c413 75 851 113 975 85 210 -49 225 -20 225 451 0 443 -27 509 -225 547 l-225 44 225 13 c179 11 225 74 225 310 l0 295 -3025 7 c-1664 4 -3407 23 -3875 42 -844 35 -3608 49 -9550 49 -6357 1 -7991 21 -8094 99 -255 195 -456 205 -456 24z m12657 -535 c150 -93 1058 -102 2029 -20 661 55 854 41 923 -69 63 -99 88 -103 89 -13 2 141 691 157 1102 25 208 -67 175 -82 -200 -91 -247 -6 -743 -60 -1100 -121 -357 -61 -695 -106 -750 -99 -1091 128 -3869 164 -7090 92 -1323 -29 -2002 -13 -1850 45 132 50 1175 126 2317 168 1142 42 2106 106 2143 142 82 83 2244 29 2387 -59z m-11391 -390 c272 -223 386 -253 813 -212 274 27 581 -1 684 -60 162 -94 140 -111 -163 -127 -192 -10 -417 -22 -500 -28 -174 -12 -215 -151 -104 -350 54 -96 175 -121 382 -79 206 41 320 18 355 -73 28 -73 214 -163 413 -201 206 -38 484 -195 644 -362 155 -162 367 -298 471 -302 178 -7 177 -12 -11 -88 -130 -53 -255 -33 -358 57 -334 292 -390 114 -82 -257 136 -162 227 -206 274 -131 47 77 208 10 489 -205 317 -241 423 -392 433 -619 25 -540 146 -790 477 -984 410 -239 562 -119 192 150 -151 111 -275 274 -275 363 0 111 125 39 400 -229 220 -215 400 -447 400 -515 0 -283 1282 -1002 1582 -887 78 30 402 1 719 -64 509 -105 598 -100 746 48 106 107 252 147 399 110 223 -56 440 93 280 192 -42 26 -570 17 -1172 -20 -878 -55 -1160 -38 -1421 84 -180 84 -328 199 -330 255 -2 57 -138 184 -303 281 -377 223 -390 391 -25 304 529 -125 1177 -357 1405 -503 315 -200 1280 -193 1759 12 215 92 495 141 625 108 181 -45 237 -17 239 118 10 544 584 675 1263 287 291 -167 447 -207 521 -133 74 74 134 30 202 -147 111 -294 290 -380 786 -380 198 0 441 -74 541 -165 197 -178 1339 -316 3130 -378 859 -30 969 -17 800 99 -108 74 -278 216 -379 314 -159 157 -162 184 -25 212 87 18 158 74 158 125 0 51 117 93 259 93 177 0 277 -65 313 -204 48 -184 125 -202 829 -187 427 9 826 -14 887 -52 215 -132 1174 -207 2537 -197 1337 9 1644 -63 1118 -262 -350 -134 -2500 -123 -2993 15 -733 204 -2050 128 -2050 -120 0 -51 101 -94 225 -96 177 -2 193 -22 75 -91 -112 -66 -4274 -71 -6450 -9 -110 4 -1193 -19 -2406 -50 l-2206 -57 -792 305 c-435 168 -856 305 -934 305 -420 0 -2122 1201 -2326 1640 -293 633 -492 901 -1019 1371 -428 381 -547 540 -449 602 91 58 53 84 -123 85 -309 2 -883 571 -1184 1173 -206 411 -282 681 -134 477 40 -55 215 -218 389 -361z m4159 347 c-69 -28 -181 -28 -250 0 -69 28 -12 50 125 50 138 0 194 -22 125 -50z m12299 -105 c-125 -24 -305 -23 -400 2 -96 25 6 45 226 44 220 -1 298 -22 174 -46z m901 -95 c-69 -28 -181 -28 -250 0 -69 28 -12 50 125 50 138 0 194 -22 125 -50z m575 -95 c0 -21 -67 -39 -150 -39 -82 0 -150 44 -150 97 0 53 68 71 150 39 83 -31 150 -75 150 -97z m2450 61 c-34 -55 -273 -95 -531 -88 -421 10 -438 19 -169 88 448 114 770 114 700 0z m2250 0 c0 -97 -1889 -45 -1988 55 -25 25 412 45 971 45 611 0 1017 -40 1017 -100z m-18450 -200 c-34 -55 -104 -100 -156 -100 -52 0 -94 45 -94 100 0 55 70 100 156 100 86 0 128 -45 94 -100z m12028 -108 c-219 -52 -466 -50 -600 4 -175 70 -88 90 372 88 564 -4 577 -9 228 -92z m-11178 -249 l350 -141 -350 59 c-192 33 -393 100 -445 150 -134 126 27 101 445 -68z m9592 -105 c23 -21 -652 -30 -1500 -21 -1200 14 -1398 33 -892 86 609 65 2300 19 2392 -65z m4308 123 c0 -22 -67 -66 -150 -97 -82 -32 -150 -14 -150 39 0 53 68 97 150 97 83 0 150 -18 150 -39z m-12558 -222 c249 -95 186 -208 -156 -277 -303 -60 -586 60 -586 250 0 100 504 119 742 27z m3508 -39 c36 -58 -57 -99 -219 -98 -218 1 -247 23 -131 98 192 124 273 124 350 0z m300 0 c-34 -55 -82 -100 -106 -100 -24 0 -44 45 -44 100 0 55 48 100 106 100 58 0 78 -45 44 -100z m825 31 c-96 -25 -254 -25 -350 0 -96 25 -17 46 175 46 193 0 271 -21 175 -46z m-7851 -102 c-125 -24 -305 -23 -400 2 -96 25 6 45 226 44 220 -1 298 -22 174 -46z m1226 -29 c-34 -55 -127 -100 -206 -100 -79 0 -144 45 -144 100 0 55 93 100 206 100 113 0 178 -45 144 -100z m850 0 c0 -55 -146 -96 -325 -90 -308 9 -312 14 -75 90 353 113 400 113 400 0z m3046 -293 c31 -51 -67 -108 -219 -125 -156 -18 -266 -87 -252 -157 18 -89 -148 -125 -575 -125 -479 0 -643 -43 -813 -213 -183 -183 -296 -206 -825 -165 -698 55 -862 20 -862 -180 0 -176 -4 -175 -808 37 -957 253 -814 421 358 421 576 0 947 41 969 107 20 60 316 133 658 164 343 31 623 94 623 139 0 44 326 97 725 116 399 19 779 43 844 54 66 11 145 -22 177 -73z m10134 -156 c163 -137 401 -288 530 -335 206 -76 178 -95 -225 -156 -330 -49 -578 -21 -876 98 -373 149 -434 151 -588 14 -367 -326 -1950 -512 -2321 -272 -104 67 83 97 613 98 587 2 794 40 900 168 125 151 102 159 -263 91 -480 -90 -421 -10 221 297 699 335 1609 334 2009 -3z m739 81 c-72 -29 -159 -26 -192 8 -33 33 26 56 131 52 117 -5 141 -28 61 -60z m-7474 -122 c166 -65 145 -87 -137 -143 -445 -89 -1446 -85 -1675 7 -145 58 -110 86 167 136 497 90 1415 90 1645 0z m8755 -110 l550 -193 -600 3 c-409 3 -536 30 -400 86 179 73 169 88 -100 151 -472 111 -518 137 -250 142 138 2 498 -83 800 -189z m-5578 -47 c139 -95 -14 -120 -780 -126 -832 -7 -931 10 -773 131 221 169 1305 166 1553 -5z m-2397 -224 c-124 -23 -326 -23 -450 0 -124 24 -22 44 225 44 248 0 349 -20 225 -44z m-3725 -279 c68 -82 254 -150 412 -150 439 0 343 -319 -131 -435 -304 -74 -473 77 -205 184 136 55 64 122 -326 303 -481 222 -488 232 -187 240 172 4 369 -59 437 -142z m3323 -261 c425 -64 748 -155 719 -202 -79 -127 -701 -100 -1442 63 -357 79 -920 152 -1250 163 l-600 21 600 66 c653 71 818 62 1973 -111z m-6304 -57 c-72 -29 -159 -26 -192 8 -33 33 26 56 131 52 117 -5 141 -28 61 -60z m16669 -133 c-140 -75 -3919 -239 -4838 -210 -1598 51 -1961 42 -2550 -59 -357 -61 -862 -184 -1120 -273 -371 -127 -673 -147 -1425 -95 -525 37 -955 104 -955 149 0 45 326 80 725 78 399 -2 852 45 1007 104 154 59 469 108 700 108 230 1 610 69 844 150 312 109 751 139 1650 114 673 -19 2282 -7 3574 26 1293 33 2390 43 2438 21 48 -22 26 -73 -50 -113z m-11232 -489 c-55 -89 577 -516 816 -552 272 -41 241 -158 -42 -158 -192 0 -397 94 -561 258 -183 183 -319 240 -464 194 -113 -36 -205 -107 -205 -159 0 -51 -191 -95 -425 -97 -234 -3 -605 -72 -825 -155 -885 -332 -1243 -422 -1221 -305 14 78 -352 131 -1152 167 -645 29 -1221 101 -1280 160 -146 146 1250 382 1767 299 1278 -205 1764 -182 2586 123 850 316 1096 371 1006 225z m10401 -203 l393 -193 -750 -17 c-412 -9 -907 -22 -1100 -28 -849 -27 -2227 37 -2164 101 39 38 710 122 1492 186 782 64 1493 123 1579 130 87 8 334 -73 550 -179z m-6498 -260 c148 -194 241 -380 207 -414 -189 -190 -1168 -221 -2045 -65 -1030 184 -1058 356 -43 261 617 -57 643 -50 923 256 373 409 625 399 958 -38z m8141 253 c-82 -53 -307 -94 -500 -91 -286 4 -313 21 -150 91 110 47 335 88 500 91 229 5 265 -17 150 -91z m-6350 -344 c330 -3 652 -40 716 -81 98 -64 1368 -98 3234 -86 341 2 402 -18 250 -84 -315 -138 -4299 -124 -4606 16 -196 89 -304 90 -443 3 -154 -97 -211 -73 -355 146 l-170 260 387 -83 c213 -46 657 -87 987 -91z m5100 -156 c-34 -55 -127 -100 -206 -100 -79 0 -144 45 -144 100 0 55 93 100 206 100 113 0 178 -45 144 -100z m-14426 -471 c-125 -24 -305 -23 -400 2 -96 25 6 45 226 44 220 -1 298 -22 174 -46z m8576 -229 c0 -114 -143 -114 -500 0 -223 71 -210 81 125 90 206 6 375 -35 375 -90z m2973 -69 c-97 -26 -232 -24 -300 3 -68 28 12 49 177 47 165 -3 220 -25 123 -50z m-3773 -181 c-51 -103 -1235 -157 -1725 -78 -151 24 -275 87 -275 139 0 57 420 84 1025 67 641 -17 1006 -65 975 -128z m4699 -975 c1 -41 -494 -75 -1099 -75 -605 0 -1100 41 -1100 91 0 51 491 84 1099 75 605 -9 1100 -50 1100 -91z m-18449 -75 c34 -55 -31 -100 -144 -100 -113 0 -206 45 -206 100 0 55 65 100 144 100 79 0 172 -45 206 -100z m9038 -211 c563 -9 671 -29 412 -79 -504 -97 -2061 -11 -1888 104 76 50 267 68 426 39 158 -29 630 -58 1050 -64z m-1988 -89 c-196 -127 -328 -127 -250 0 34 55 138 99 231 98 146 -1 148 -14 19 -98z m3446 -94 c24 -38 -89 -50 -251 -27 -162 24 -295 77 -295 118 0 90 484 9 546 -91z m579 -72 c-69 -28 -181 -28 -250 0 -69 28 -12 50 125 50 138 0 194 -22 125 -50z m800 -5 c-124 -23 -326 -23 -450 0 -124 24 -22 44 225 44 248 0 349 -20 225 -44z m-9900 -195 c-69 -28 -181 -28 -250 0 -69 28 -12 50 125 50 138 0 194 -22 125 -50z m1925 -8 c-165 -24 -353 -88 -418 -142 -79 -65 -212 -47 -400 55 -275 149 -264 153 418 142 385 -6 565 -31 400 -55z m7350 -177 c618 -127 2587 -196 5100 -180 880 6 1044 -12 700 -74 -598 -109 -5511 -21 -6162 110 -281 57 -596 172 -700 256 -176 143 -169 148 112 86 165 -36 593 -125 950 -198z m-11850 -1049 c193 -83 192 -86 -19 -93 -121 -4 -247 38 -281 93 -73 118 25 118 300 0z m16175 1 c481 0 875 -39 875 -86 0 -150 -1974 -82 -2120 74 -109 116 -90 128 120 76 138 -34 644 -63 1125 -64z m1272 -105 c-237 -150 -365 -103 -154 56 106 80 217 121 247 92 30 -30 -12 -97 -93 -148z m-3178 -264 c-72 -29 -159 -26 -192 8 -33 33 26 56 131 52 117 -5 141 -28 61 -60z"/>
<path d="M3400 5872 c0 -131 1607 -2203 1803 -2324 216 -133 213 43 -4 270 -121 128 -335 412 -475 632 -379 596 -1141 1550 -1239 1550 -47 0 -85 -57 -85 -128z"/>
<path d="M10714 3411 c-174 -110 -66 -171 461 -258 689 -114 517 -288 -226 -228 -637 51 -950 -48 -552 -174 357 -113 1470 -103 1614 15 76 63 252 130 389 149 140 20 250 101 250 185 0 117 -108 143 -500 119 -296 -19 -651 32 -872 125 -432 181 -391 177 -564 67z"/>
<path d="M13400 2703 c0 -123 246 -159 814 -118 697 49 598 161 -164 186 -358 11 -650 -19 -650 -68z"/>
<path d="M14500 5100 c0 -55 90 -100 200 -100 110 0 200 45 200 100 0 55 -90 100 -200 100 -110 0 -200 -45 -200 -100z"/>
<path d="M15669 4435 c-131 -130 -68 -235 139 -235 117 0 191 52 169 119 -49 146 -216 209 -308 116z"/>
<path d="M0 7904 c0 -283 394 -902 575 -903 174 -1 168 17 -225 613 -290 440 -350 490 -350 290z"/>
<path d="M959 6715 c-101 -163 121 -615 812 -1653 895 -1345 1988 -2412 2471 -2412 334 0 276 392 -63 431 -530 61 -2120 1845 -2822 3165 -310 584 -320 595 -398 469z"/>
<path d="M0 6146 c0 -242 414 -844 581 -845 145 -1 118 57 -301 639 -197 275 -280 336 -280 206z"/>
<path d="M900 5450 c0 -619 1382 -2208 2384 -2742 424 -226 316 -55 -241 380 -650 508 -1394 1378 -1743 2039 -253 478 -400 598 -400 323z"/>
<path d="M0 3791 c0 -290 365 -566 530 -401 59 59 87 119 63 133 -23 15 -167 136 -318 269 l-275 243 0 -244z"/>
<path d="M22211 630 c-118 -129 -118 -164 0 -242 183 -119 853 -67 792 62 -26 55 -109 86 -185 68 -76 -17 -212 35 -303 116 -145 130 -181 129 -304 -4z"/>
<path d="M24327 740 c33 -34 120 -37 192 -8 80 32 56 55 -61 60 -105 4 -164 -19 -131 -52z"/>
<path d="M0 150 c0 -110 112 -149 425 -146 l425 5 -400 144 c-490 176 -450 177 -450 -3z"/>
</g>
</svg>