<svg xmlns="http://www.w3.org/2000/svg" version="1.0" width="250" height="250" viewBox="0 0 250.000000 250.000000" preserveAspectRatio="xMidYMid meet">
<metadata>
Created by potrace 1.10, written by Peter Selinger 2001-2011
</metadata>
<g transform="translate(0.000000,250.000000) scale(0.010000,-0.010000)" fill="#555555" stroke="none">
<path d="M45 24911 c-25 -24 -45 -217 -45 -428 0 -274 43 -383 150 -383 83 0 150 -45 150 -100 0 -55 -67 -100 -150 -100 -82 0 -150 -69 -150 -152 0 -117 87 -143 371 -112 308 34 416 -8 640 -248 149 -159 410 -317 580 -351 233 -47 309 -116 309 -283 0 -121 -31 -252 -69 -290 -38 -38 -73 -270 -78 -517 -6 -321 31 -447 132 -447 109 0 128 -107 84 -475 -71 -594 -105 -743 -203 -900 -109 -174 -666 -163 -666 14 0 76 71 133 157 125 99 -9 210 134 299 386 173 489 173 450 0 450 -108 0 -130 86 -88 344 72 442 -48 1256 -186 1256 -69 0 -82 -183 -39 -528 95 -760 -274 -2086 -618 -2218 -109 -42 -128 -11 -74 120 40 97 118 379 172 626 55 248 167 527 250 621 112 127 133 287 83 625 -64 426 -176 565 -297 368 -29 -47 -9 -238 45 -425 75 -262 65 -362 -44 -443 -77 -57 -169 -282 -203 -500 -93 -598 -153 -737 -364 -850 -221 -118 -263 -496 -55 -496 187 0 393 -264 328 -422 -33 -81 -78 -45 -121 97 -38 124 -131 225 -207 225 -167 0 -195 -1038 -38 -1449 57 -151 60 -238 7 -205 -54 33 -94 -248 -95 -665 -3 -739 241 -1381 524 -1381 66 0 197 -90 291 -200 94 -110 233 -200 310 -200 76 0 195 -68 263 -150 68 -82 209 -150 312 -150 104 0 188 -46 188 -102 0 -57 113 -146 250 -198 155 -59 250 -173 250 -301 0 -113 79 -238 175 -277 266 -110 1025 -640 1025 -716 0 -38 80 -156 178 -262 371 -405 619 -831 866 -1488 321 -853 324 -1155 6 -543 -245 469 -550 710 -550 434 0 -81 39 -147 86 -147 101 0 552 -985 695 -1517 88 -327 72 -392 -141 -593 l-240 -225 -5 243 c-13 612 -133 1173 -324 1518 -273 492 -425 335 -173 -179 234 -478 435 -1669 349 -2063 -46 -209 -25 -284 81 -284 101 0 161 -171 204 -583 71 -673 148 -917 290 -917 59 0 75 115 38 275 -35 151 -104 545 -152 875 -49 330 -117 670 -152 756 -37 92 16 228 128 330 174 157 197 158 253 11 57 -147 77 -148 220 -4 194 193 355 205 284 20 -78 -204 281 -306 417 -118 154 210 242 195 242 -42 0 -117 -51 -177 -126 -148 -169 65 -504 -723 -430 -1015 31 -125 12 -256 -44 -290 -55 -34 -100 -191 -100 -349 0 -201 -83 -345 -275 -478 -394 -273 -597 -328 -704 -192 -133 171 -521 1678 -521 2027 0 161 -136 693 -302 1180 -165 488 -295 937 -288 999 33 276 -13 400 -110 303 -98 -98 199 -1464 400 -1840 48 -90 86 -341 83 -557 -3 -216 111 -817 254 -1335 255 -932 240 -1208 -66 -1208 -58 0 -176 -63 -263 -141 -381 -340 -519 -246 -762 516 -364 1146 -390 1325 -193 1325 120 0 148 50 98 175 -119 296 -534 2037 -656 2750 -147 861 -348 913 -252 65 44 -384 33 -587 -28 -550 -53 33 -73 150 -44 260 29 112 3 200 -59 200 -69 0 -112 -212 -112 -550 0 -302 40 -550 89 -550 49 0 165 -326 257 -725 166 -712 690 -2807 815 -3251 48 -174 -4 -278 -224 -448 -158 -122 -498 -433 -756 -690 l-468 -469 -100 416 c-256 1068 -445 1667 -525 1667 -49 0 -88 68 -88 150 0 83 -38 150 -84 150 -46 0 -141 253 -210 562 -69 309 -187 703 -262 875 l-136 313 -4 -500 c-3 -541 319 -2889 508 -3700 64 -275 177 -536 252 -580 75 -44 136 -139 136 -212 0 -148 -394 -1080 -489 -1158 -34 -27 -145 -200 -247 -384 -152 -273 -173 -448 -117 -975 l69 -641 617 14 c339 7 516 33 392 57 -230 44 -372 361 -309 688 48 246 271 293 351 74 91 -246 504 -627 803 -741 336 -127 1231 -121 1030 7 -82 53 -233 70 -335 39 -162 -51 -177 -18 -117 252 68 312 -20 398 -211 207 -57 -57 -178 -75 -268 -40 -131 50 -143 104 -59 262 141 263 11 381 -162 146 -74 -102 -186 -153 -249 -114 -78 48 -46 143 104 302 286 304 170 518 -162 300 -248 -162 -278 -139 -244 185 17 157 -26 177 -264 123 -240 -54 -259 -45 -125 62 88 70 190 251 227 402 72 287 211 339 465 175 130 -84 128 -97 -14 -98 -91 -1 -190 -68 -221 -149 -66 -172 92 -304 184 -155 126 204 250 91 497 -448 138 -302 314 -550 391 -550 76 0 261 -159 409 -354 160 -210 390 -378 562 -413 161 -32 292 -97 292 -145 0 -49 180 -88 400 -88 355 0 400 27 400 239 0 170 70 257 243 300 134 34 314 132 400 218 86 87 156 120 155 75 -2 -138 -139 -293 -316 -359 -93 -34 -218 -154 -279 -267 -107 -199 -86 -206 643 -206 604 0 754 30 754 150 0 83 -62 150 -138 150 -135 0 -238 214 -326 675 -46 242 27 277 264 127 142 -90 161 -140 188 -504 7 -84 164 -235 351 -335 264 -142 383 -158 543 -73 273 147 323 139 254 -40 -118 -308 278 -141 725 305 250 251 710 661 1022 913 312 251 728 603 924 782 197 179 451 355 566 392 115 36 264 132 330 212 180 216 672 184 820 -54 163 -261 256 -252 536 50 127 137 321 250 430 250 109 0 527 -263 929 -583 788 -628 2382 -2188 2382 -2330 0 -160 902 -89 1557 123 357 115 828 218 1046 230 218 11 451 74 517 140 176 176 280 147 280 -80 0 -220 -55 -237 -675 -204 -331 17 -425 -13 -425 -137 0 -133 141 -159 863 -159 l863 0 -61 475 c-86 660 -210 2701 -191 3125 8 192 18 485 22 650 5 240 25 268 103 137 53 -89 90 -404 81 -700 -24 -832 118 -2895 229 -3312 171 -650 319 -449 241 329 -64 637 -109 1389 -186 3146 -15 330 -64 1376 -111 2325 -76 1574 -68 1742 92 1919 183 203 138 406 -91 406 -188 0 -359 550 -285 918 47 236 29 298 -76 263 -76 -25 -165 -155 -198 -288 -55 -224 -64 -217 -111 87 -39 256 -8 354 140 433 132 71 168 154 115 270 -42 92 -107 865 -145 1717 -82 1828 -273 4085 -359 4224 -35 58 -95 42 -146 -38 -64 -102 -86 -84 -87 69 -1 113 43 250 97 304 66 66 66 457 0 1158 -56 582 -94 1278 -86 1546 8 268 -38 1072 -102 1787 -63 715 -144 1919 -178 2675 -35 756 -101 1375 -148 1375 -47 0 -91 -101 -99 -225 l-13 -225 -44 225 c-42 222 -65 225 -1586 225 -1746 0 -1633 68 -1448 -867 139 -700 345 -3326 267 -3404 -170 -170 -291 221 -287 929 2 422 -54 909 -125 1080 -71 172 -118 481 -105 687 17 259 -17 375 -110 375 -164 0 -189 -912 -34 -1202 102 -190 142 -1035 71 -1498 -55 -357 -216 -309 -253 75 -20 200 -86 325 -174 325 -79 0 -132 -79 -119 -175 13 -96 -21 -175 -76 -175 -55 0 -91 113 -80 250 43 547 112 1066 184 1386 71 319 63 333 -154 264 -197 -63 -219 -46 -154 113 157 384 174 537 59 537 -110 0 -93 144 69 575 26 69 -25 125 -113 125 -189 0 -197 46 -57 308 81 151 70 208 -50 254 -227 88 -483 -36 -385 -186 44 -69 89 -261 98 -426 59 -1052 138 -1506 278 -1609 126 -92 134 -170 44 -429 -60 -173 -84 -419 -52 -545 64 -257 -193 -706 -349 -610 -62 39 -56 111 16 198 87 104 63 425 -95 1316 -115 649 -209 1438 -209 1754 l0 575 -454 0 c-417 0 -445 -15 -350 -193 142 -265 131 -680 -21 -777 -69 -44 -210 -180 -314 -303 -155 -184 -166 -250 -61 -377 92 -110 113 -418 77 -1104 -27 -524 -69 -971 -92 -994 -23 -24 -232 -73 -464 -110 -395 -63 -421 -53 -423 170 -2 378 -158 540 -485 506 -223 -24 -311 18 -358 167 -145 457 359 1534 934 1995 344 276 411 388 411 689 l0 359 -744 -68 c-847 -77 -2359 -330 -2437 -408 -139 -139 131 -140 1039 -3 1032 156 1642 119 1642 -98 0 -89 -217 -130 -736 -140 -643 -13 -1819 -233 -1951 -365 -126 -126 103 -124 641 5 698 166 1446 192 1446 49 0 -55 -182 -100 -405 -100 -450 0 -1663 -255 -1892 -397 -268 -167 -51 -198 413 -58 579 174 1537 296 1672 212 135 -83 28 -357 -140 -357 -72 0 -152 56 -177 125 -36 100 -89 99 -260 -2 -119 -70 -462 -220 -763 -332 -301 -113 -548 -252 -548 -309 0 -57 56 -82 125 -56 932 357 1578 440 1573 202 -3 -187 -177 -330 -330 -271 -92 35 -142 104 -112 153 104 168 -127 91 -512 -171 -362 -245 -400 -252 -639 -104 -144 89 -252 244 -247 358 6 163 -38 191 -225 144 -185 -47 -233 -18 -233 140 0 326 -236 450 -643 338 -317 -88 -357 -78 -357 88 0 191 516 403 950 390 173 -5 166 -21 -50 -117 l-250 -111 232 -40 c334 -59 518 38 518 272 0 168 -65 203 -376 203 -206 0 -523 -42 -704 -94 -304 -87 -337 -74 -432 174 -56 148 -82 371 -59 495 29 151 -5 225 -105 225 -165 0 -164 -24 112 -2650 207 -1964 234 -3491 72 -4000 -70 -220 -180 -670 -245 -1000 -64 -330 -171 -696 -237 -812 -207 -368 -248 -963 -97 -1388 125 -349 124 -495 -10 -1150 -86 -420 -160 -1354 -170 -2124 -14 -1173 -43 -1404 -198 -1575 -295 -326 -426 -244 -503 311 -38 282 -156 708 -262 946 -120 271 -168 530 -128 689 35 141 22 311 -30 379 -51 68 -175 349 -274 624 -100 275 -237 568 -304 650 -172 210 -439 1784 -516 3045 -36 584 -103 1086 -149 1115 -47 28 -86 -75 -88 -229 -3 -240 -18 -255 -105 -105 -57 96 -73 223 -38 281 36 58 -13 193 -110 299 -152 169 -180 472 -214 2369 -44 2411 -136 2902 -630 3375 -163 156 -345 433 -405 616 -86 259 -166 334 -359 334 -136 0 -222 -42 -190 -93 31 -51 12 -121 -44 -156 -56 -35 -102 7 -102 93 0 211 -172 198 -246 -19 -70 -207 -547 -766 -604 -708 -38 38 34 185 329 671 125 206 114 212 -381 190 -280 -12 -529 -42 -553 -67z m17794 -369 c34 -87 61 -168 61 -179 0 -11 -90 -20 -200 -20 -110 0 -200 9 -200 20 0 104 138 337 200 337 43 0 106 -71 139 -158z m-15808 -277 c28 -75 -36 -210 -142 -302 -171 -146 -201 -148 -253 -13 -58 152 118 450 266 450 42 0 100 -61 129 -135z m-667 -735 c-41 -41 -117 -8 -168 73 -154 243 -108 352 73 171 93 -93 136 -203 95 -244z m16436 214 c0 -24 -45 -44 -100 -44 -55 0 -100 48 -100 106 0 58 45 78 100 44 55 -34 100 -82 100 -106z m-15710 -236 c169 -107 328 -1128 246 -1583 -101 -563 -206 -354 -214 425 -5 540 -52 794 -165 907 -270 270 -176 447 133 251z m14298 -333 c-6 -234 -33 -335 -59 -225 -27 110 -86 239 -131 287 -97 103 -16 363 113 363 49 0 84 -191 77 -425z m512 125 c0 -55 -48 -100 -106 -100 -58 0 -78 45 -44 100 34 55 82 100 106 100 24 0 44 -45 44 -100z m-9081 -68 c-72 -29 -159 -26 -192 8 -33 33 26 56 131 52 117 -5 141 -28 61 -60z m-519 -221 c0 -49 179 -161 398 -248 219 -88 567 -310 775 -493 207 -184 541 -433 742 -554 201 -121 530 -402 731 -625 l365 -404 -330 -380 c-182 -208 -529 -616 -772 -905 -277 -330 -626 -612 -939 -757 -447 -207 -534 -304 -859 -958 -431 -870 -676 -1034 -572 -386 37 236 163 649 279 919 196 456 207 606 148 2061 -34 863 -92 1850 -128 2194 -46 439 -32 625 48 625 63 0 114 -40 114 -89z m10060 -771 c-29 -77 -102 -140 -160 -140 -74 0 -73 63 4 208 61 114 85 276 53 359 -32 83 -24 203 18 267 89 137 165 -485 85 -694z m-14660 260 c0 -110 -17 -200 -38 -200 -21 0 -62 90 -91 200 -29 110 -11 200 38 200 50 0 91 -90 91 -200z m7130 -347 c-210 -288 -355 -314 -536 -95 -164 197 16 338 436 340 279 2 279 2 100 -245z m8168 -128 c0 -96 -41 -237 -89 -314 -71 -111 -108 -100 -194 60 -76 143 -73 231 10 314 166 166 275 142 273 -60z m-7616 -602 c65 -22 118 -160 117 -306 l0 -267 -175 260 c-96 143 -252 336 -347 430 -142 140 -151 204 -50 365 114 184 128 177 229 -124 59 -175 161 -337 226 -358z m-7771 -326 c-98 -245 -98 -245 -103 53 -3 165 28 413 68 550 73 246 75 245 104 -53 16 -167 -15 -415 -69 -550z m15855 478 c-28 -69 -50 -12 -50 125 0 138 22 194 50 125 28 -69 28 -181 0 -250z m-2166 -196 c0 -44 -90 -79 -200 -79 -110 0 -200 42 -200 94 0 51 90 87 200 79 110 -9 200 -51 200 -94z m-5300 -229 c0 -137 -45 -250 -100 -250 -112 0 -137 330 -33 433 110 111 133 79 133 -183z m6460 -123 c-33 -33 -56 26 -52 131 5 117 28 141 60 61 29 -72 26 -159 -8 -192z m-460 -27 c0 -110 -45 -200 -100 -200 -55 0 -100 90 -100 200 0 110 45 200 100 200 55 0 100 -90 100 -200z m1560 -73 c-33 -33 -56 26 -52 131 5 117 28 141 60 61 29 -72 26 -159 -8 -192z m-16300 -100 c-33 -33 -56 26 -52 131 5 117 28 141 60 61 29 -72 26 -159 -8 -192z m10165 -44 c887 68 1701 10 1909 -136 116 -81 302 -147 413 -147 112 -1 338 -81 503 -180 165 -99 525 -264 800 -367 831 -311 1125 -610 1659 -1691 268 -543 537 -1047 598 -1120 61 -73 82 -179 48 -235 -35 -55 8 -239 95 -407 87 -168 130 -352 95 -407 -34 -56 -10 -165 54 -241 88 -107 76 -288 -53 -771 -93 -347 -192 -743 -221 -881 -28 -137 -104 -318 -169 -400 -65 -82 -201 -341 -302 -575 -206 -474 -192 -465 -463 -320 -229 122 -153 328 92 250 136 -43 167 18 167 321 0 316 -36 379 -234 407 -198 28 -224 0 -169 -175 47 -145 23 -208 -79 -208 -79 0 -172 -101 -206 -225 -47 -169 12 -293 238 -499 236 -215 300 -357 300 -667 l0 -394 -300 150 c-165 82 -300 191 -300 242 0 51 -67 93 -150 93 -187 0 -190 -88 -12 -292 76 -87 171 -264 210 -393 63 -205 45 -226 -138 -168 -124 39 -210 23 -210 -40 0 -184 -148 -119 -539 239 -208 190 -352 388 -320 439 51 83 -447 241 -523 166 -18 -18 165 -239 408 -492 289 -302 386 -460 282 -461 -239 -3 1058 -1187 1372 -1253 149 -32 348 -99 444 -151 95 -52 236 -94 312 -94 76 0 347 -92 601 -205 336 -148 463 -261 463 -411 0 -152 -47 -193 -175 -152 -96 30 -418 123 -714 206 -296 83 -656 259 -800 390 -144 131 -532 419 -864 641 -651 435 -1247 984 -1247 1149 0 56 -200 325 -444 596 -244 272 -673 953 -954 1515 -280 562 -597 1156 -705 1321 -199 307 -296 501 -477 961 -110 280 -1557 1189 -1890 1189 -99 -1 -630 222 -1180 493 -1414 699 -1473 707 -1757 240 -128 -211 -262 -405 -298 -433 -36 -27 -118 -151 -184 -275 -65 -124 -182 -225 -260 -225 -77 0 -185 -78 -239 -174 -53 -96 -129 -142 -169 -102 -39 39 103 242 318 450 214 208 503 600 642 872 203 395 322 511 600 582 439 114 511 176 1172 1004 300 375 606 705 680 734 75 28 239 -25 365 -118 l230 -170 -325 58 c-351 64 -434 -63 -150 -228 144 -84 116 -102 -161 -105 -246 -2 -321 -40 -282 -143 33 -86 -30 -164 -164 -202 -201 -57 -204 -69 -41 -166 229 -135 130 -292 -183 -292 -276 0 -338 -192 -69 -215 96 -9 228 -20 293 -27 192 -18 280 -158 99 -158 -92 0 -167 -45 -167 -100 0 -55 59 -100 130 -100 184 0 668 235 669 325 1 41 66 75 145 75 288 0 263 208 -36 312 -170 59 -308 148 -308 198 0 117 39 114 348 -27 217 -99 318 -83 654 106 364 205 673 213 551 15 -28 -45 11 -132 86 -195 171 -142 537 -14 803 281 105 117 263 191 350 164 87 -27 226 -5 308 48 201 131 -23 285 -331 227 -121 -22 -309 33 -419 122 -193 157 -188 161 125 109 413 -70 434 123 23 205 -326 66 -458 186 -307 280 53 32 123 13 158 -43 35 -56 137 -102 228 -102 145 0 148 17 19 140 -194 186 -955 308 -1042 167 -36 -59 -198 -107 -360 -107 -195 0 -294 -51 -294 -150 0 -160 -269 -198 -475 -67 -82 51 129 186 600 382 399 166 736 276 750 244 14 -33 216 -44 450 -26z m3635 -156 c-33 -33 -56 26 -52 131 5 117 28 141 60 61 29 -72 26 -159 -8 -192z m-13784 -585 c-99 -98 -276 53 -276 235 0 153 13 153 169 -3 93 -93 141 -197 107 -232z m9837 -9 c122 -150 112 -161 -90 -109 -125 32 -363 -9 -530 -92 -242 -121 -279 -179 -185 -291 134 -162 13 -185 -208 -39 -127 84 -112 130 100 304 234 190 569 373 713 388 34 3 124 -69 200 -161z m287 -533 c0 -55 -45 -100 -100 -100 -55 0 -100 -67 -100 -150 0 -193 -161 -195 -235 -3 -31 82 20 192 114 247 221 129 321 131 321 6z m5900 -50 c0 -82 -45 -150 -100 -150 -55 0 -100 68 -100 150 0 83 45 150 100 150 55 0 100 -67 100 -150z m-17300 -142 c0 -105 27 -274 59 -375 43 -131 0 -112 -147 67 -246 296 -271 500 -62 500 82 0 150 -86 150 -192z m638 -120 c83 -420 78 -638 -13 -546 -41 41 -79 105 -84 141 -4 37 -42 157 -84 267 -147 387 -149 450 -16 450 74 0 162 -141 197 -312z m222 39 c-33 -33 -56 26 -52 131 5 117 28 141 60 61 29 -72 26 -159 -8 -192z m594 -282 c-51 -407 -12 -818 147 -1549 119 -547 198 -1049 176 -1115 -34 -102 -224 618 -573 2169 -60 269 143 1050 273 1050 25 0 15 -250 -23 -555z m8346 405 c135 -163 103 -183 -142 -89 -87 33 -158 101 -158 150 0 138 162 105 300 -61z m-9249 -1653 c392 -1045 416 -1486 34 -636 -343 766 -482 1170 -483 1414 -1 124 15 225 35 225 21 0 207 -451 414 -1003z m399 704 c33 -55 15 -179 -42 -275 -56 -97 -103 -123 -105 -59 -2 64 -30 188 -64 275 -66 171 110 221 211 59z m-1064 -501 c0 -95 -32 -76 -86 50 -47 110 -86 268 -86 350 0 95 32 76 86 -50 47 -110 86 -267 86 -350z m344 -1150 c41 -198 -22 -119 -185 232 -136 293 -217 583 -179 644 70 113 251 -323 364 -876z m-692 295 c34 -89 18 -129 -39 -94 -55 33 -99 103 -99 155 0 144 72 112 138 -61z m8693 -95 c-7 -161 380 -393 455 -272 139 224 610 -3 936 -451 382 -526 880 -1027 1020 -1027 54 0 44 54 -22 120 -145 145 -159 480 -20 480 55 0 100 -90 100 -200 0 -221 157 -272 229 -75 37 100 73 100 179 0 103 -97 105 -152 12 -245 -204 -204 -134 -305 180 -259 282 42 300 25 300 -291 0 -265 52 -355 250 -430 228 -87 250 -147 250 -698 0 -579 -152 -842 -218 -377 -25 175 -108 232 -371 257 -314 30 -333 16 -263 -200 42 -127 70 -378 64 -557 -18 -482 138 -394 266 150 l111 475 -42 -471 c-45 -503 72 -696 248 -406 88 145 96 127 46 -98 -77 -338 124 -377 256 -50 133 331 122 60 -13 -328 -109 -312 -121 -319 -197 -115 -98 264 -330 294 -262 34 29 -111 -26 -231 -136 -300 -166 -104 -178 -86 -124 185 41 203 20 299 -63 299 -68 0 -101 -58 -74 -129 27 -71 -7 -207 -76 -301 -102 -140 -96 -236 36 -518 196 -418 311 -447 314 -77 1 329 138 574 273 491 172 -107 218 -1358 63 -1729 -77 -185 -185 -337 -239 -337 -122 0 -125 -31 48 450 167 464 194 850 59 850 -52 0 -124 -200 -161 -445 -36 -246 -126 -527 -199 -625 -114 -156 -124 -121 -74 260 45 338 21 468 -102 558 -244 178 -380 902 -212 1123 182 240 177 576 -10 731 -185 153 -333 43 -166 -124 173 -173 144 -424 -80 -692 -169 -201 -213 -214 -298 -86 -56 83 -102 296 -102 475 -1 179 -36 325 -77 325 -41 0 -60 -236 -41 -525 28 -431 11 -502 -96 -398 -129 125 -142 206 -172 1154 -9 264 -55 457 -102 428 -47 -29 -79 -386 -72 -793 12 -682 -1 -731 -163 -630 -96 61 -220 239 -275 397 -87 248 -73 294 98 338 251 66 249 149 -9 443 l-207 236 61 -283 c40 -184 25 -261 -43 -219 -57 35 -104 143 -104 239 0 96 -61 258 -135 359 -205 280 -286 29 -120 -369 139 -333 230 -739 247 -1104 4 -98 121 -221 258 -273 138 -52 250 -145 250 -207 0 -203 -649 260 -682 487 -18 121 -69 220 -113 220 -45 0 -106 93 -135 206 -45 169 -29 184 88 87 235 -195 172 65 -131 534 -149 233 -360 603 -467 823 -176 359 -200 376 -236 167 -22 -130 35 -317 129 -421 153 -169 155 -202 16 -342 -194 -193 -269 -195 -269 -6 0 202 -434 471 -636 394 -90 -35 -164 -104 -164 -153 0 -119 -268 -113 -499 10 -175 94 -167 139 157 803 188 387 342 766 342 843 0 77 113 229 250 337 138 108 250 265 250 349 0 511 271 597 679 217 216 -201 243 -271 132 -340 -109 -68 -91 -112 89 -208 183 -98 200 -140 89 -218 -117 -82 -117 -106 -3 -152 106 -42 109 -71 13 -131 -77 -47 -92 -129 -40 -213 47 -75 95 -199 107 -276 29 -194 314 -463 400 -377 39 39 17 124 -48 189 -65 65 -118 222 -118 350 0 202 35 223 275 167 357 -84 529 -239 265 -239 -110 0 -254 54 -320 120 -147 147 -156 34 -16 -227 57 -108 208 -193 341 -193 131 0 256 -53 278 -118 22 -67 93 -84 165 -40 69 43 97 152 63 243 -50 132 -38 140 63 40 208 -207 312 -142 240 150 -55 222 -44 251 59 150 184 -181 287 -154 287 74 0 153 53 190 225 158 124 -23 255 -45 293 -50 37 -4 86 -86 109 -182 35 -143 61 -130 144 75 91 224 71 263 -196 375 -367 154 -642 160 -730 16 -67 -107 -270 161 -405 534 -77 212 -177 222 -334 32 -95 -114 -77 -186 87 -350 285 -285 260 -376 -118 -432 -434 -65 -575 2 -575 272 0 186 43 217 250 177 271 -51 324 61 125 262 -100 101 -91 145 44 222 148 83 125 137 -191 443 -197 192 -374 349 -393 349 -19 0 -125 -90 -235 -200 -237 -237 -400 -258 -400 -50 0 181 -117 193 -280 30 -93 -93 -120 -81 -120 56 0 166 -17 166 -325 5 -739 -386 -775 -385 -775 24 0 166 93 274 325 377 179 80 438 238 575 351 254 209 539 239 531 57z m-8081 -850 c34 -55 17 -100 -38 -100 -55 0 -128 45 -162 100 -34 55 -17 100 38 100 55 0 128 -45 162 -100z m650 -156 c0 -86 -45 -128 -100 -94 -55 34 -100 104 -100 156 0 52 45 94 100 94 55 0 100 -70 100 -156z m573 -169 c54 -69 145 -260 202 -425 58 -165 136 -379 175 -475 39 -96 28 -175 -24 -175 -53 0 -175 191 -271 425 -97 234 -216 504 -266 600 -104 201 36 240 184 50z m8927 19 c0 -58 -45 -78 -100 -44 -55 34 -100 82 -100 106 0 24 45 44 100 44 55 0 100 -48 100 -106z m-9400 -294 c0 -55 -45 -100 -100 -100 -55 0 -100 45 -100 100 0 55 45 100 100 100 55 0 100 -45 100 -100z m5197 -300 c0 -133 -11 -133 -97 0 -53 82 -97 218 -97 300 0 133 11 133 97 0 53 -82 97 -218 97 -300z m11863 27 c-33 -33 -56 26 -52 131 5 117 28 141 60 61 29 -72 26 -159 -8 -192z m-12060 -583 c0 -24 -45 -44 -100 -44 -55 0 -100 48 -100 106 0 58 45 78 100 44 55 -34 100 -82 100 -106z m900 -100 c0 -24 -45 -44 -100 -44 -55 0 -100 48 -100 106 0 58 45 78 100 44 55 -34 100 -82 100 -106z m-800 -580 c0 -123 54 -278 120 -344 86 -86 90 -150 11 -229 -141 -141 -207 -26 -293 509 -50 314 -37 411 47 359 63 -39 115 -172 115 -295z m-262 -1010 c57 -874 40 -1106 -96 -1370 -148 -285 -175 -300 -265 -139 -149 266 56 2708 219 2608 41 -26 105 -520 142 -1099z m12462 -54 c0 -610 -145 -805 -259 -349 -36 142 -11 314 56 395 66 80 90 237 55 349 -38 119 -21 205 41 205 64 0 107 -241 107 -600z m-12131 -276 c-25 -96 -45 6 -44 226 1 220 22 298 46 174 24 -125 23 -305 -2 -400z m11285 -282 c8 -269 -20 -399 -69 -321 -100 157 -114 941 -15 842 39 -39 77 -273 84 -521z m-4467 203 c31 -163 14 -171 -125 -55 -130 108 -162 109 -162 6 0 -71 -24 -106 -52 -77 -29 29 -24 128 12 221 81 212 278 155 327 -95z m-5115 -174 c33 96 89 96 260 0 363 -202 566 -393 512 -481 -67 -107 193 -614 404 -788 125 -104 133 -152 35 -212 -200 -124 23 -633 294 -672 128 -18 224 -104 226 -200 5 -247 225 -493 391 -437 102 34 82 -50 -70 -290 -117 -185 -272 -355 -344 -377 -104 -31 -105 -13 -5 94 69 72 125 196 125 274 0 118 -27 120 -157 12 -86 -71 -135 -213 -109 -314 27 -101 -19 -250 -100 -332 -82 -81 -111 -149 -66 -151 45 -2 14 -58 -69 -125 -83 -67 -209 -347 -281 -622 -186 -717 -318 -791 -318 -178 0 295 -48 527 -114 549 -144 48 64 471 322 654 96 69 272 281 389 471 175 282 193 385 101 558 -65 122 -174 188 -256 157 -227 -87 -424 36 -372 234 56 216 -159 384 -267 209 -104 -167 -200 225 -202 821 0 261 -46 475 -101 475 -55 0 -100 -70 -100 -156 0 -86 -45 -128 -100 -94 -55 34 -100 172 -100 306 0 142 -58 244 -139 244 -159 0 -263 215 -258 533 4 212 8 212 215 -33 133 -158 227 -205 254 -129z m4682 -637 c-95 -505 -175 -349 -91 177 39 241 90 380 114 308 24 -71 13 -289 -23 -485z m646 266 c49 79 119 114 155 78 84 -84 -332 -678 -474 -678 -65 0 -82 120 -43 313 34 171 65 385 68 475 4 99 45 66 105 -86 80 -198 117 -218 189 -102z m-6161 -58 c93 -241 74 -277 -76 -153 -110 92 -153 49 -217 -212 l-79 -327 -41 281 c-61 424 279 762 413 411z m11361 2 c0 -24 -45 -44 -100 -44 -55 0 -100 48 -100 106 0 58 45 78 100 44 55 -34 100 -82 100 -106z m-1141 -418 c-109 -110 -184 64 -106 245 74 171 80 171 121 -4 24 -100 17 -209 -15 -241z m-10879 -111 c-149 -57 -211 62 -132 256 69 167 79 166 149 -21 42 -110 34 -216 -17 -235z m9920 185 c0 -55 -45 -100 -100 -100 -55 0 -100 45 -100 100 0 55 45 100 100 100 55 0 100 -45 100 -100z m558 -525 c90 -179 256 -398 368 -487 143 -113 183 -220 132 -350 -70 -182 -76 -182 -208 -4 -104 142 -177 161 -318 82 -172 -97 -172 -106 -7 -170 96 -37 175 -105 175 -152 0 -90 -688 166 -843 314 -155 147 26 231 195 90 118 -98 185 -101 272 -14 88 88 79 116 -36 116 -84 0 -250 113 -369 250 -120 138 -263 250 -318 250 -56 0 -101 37 -101 83 0 168 453 45 551 -149 55 -110 156 -182 225 -159 171 57 155 225 -41 442 -152 168 -153 183 -3 183 90 0 236 -146 326 -325z m342 119 c0 -52 -45 -94 -100 -94 -55 0 -100 70 -100 156 0 86 45 128 100 94 55 -34 100 -104 100 -156z m-10850 -294 c-38 -118 -91 -193 -118 -165 -28 27 -20 147 18 265 38 118 91 193 118 165 28 -27 20 -147 -18 -265z m1337 84 c119 -191 111 -236 -65 -375 -111 -88 -230 -256 -265 -375 -36 -119 -131 -271 -211 -337 -182 -152 -189 -297 -13 -297 73 0 191 107 261 238 84 158 189 222 311 190 135 -36 161 -92 97 -213 -48 -91 -118 -255 -155 -365 -61 -179 -75 -182 -133 -29 -45 122 -107 145 -211 81 -125 -77 -114 -128 74 -328 200 -213 208 -256 76 -430 -92 -122 -148 -145 -150 -62 -4 194 -277 441 -353 319 -34 -56 -14 -101 44 -101 58 0 106 -44 106 -97 0 -53 -67 -71 -150 -39 -107 41 -150 -10 -152 -178 -1 -290 -92 -430 -333 -519 -106 -39 -163 -129 -132 -210 63 -163 -164 -277 -383 -193 -177 68 -194 197 -39 293 61 38 145 14 187 -53 48 -78 95 -20 129 162 30 156 9 312 -47 346 -67 42 -64 86 9 131 61 38 153 43 204 11 130 -80 186 40 241 518 53 464 -2 579 -200 415 -216 -179 -155 63 66 263 110 100 200 264 200 365 0 102 38 185 85 185 46 0 138 101 203 225 117 223 96 86 -39 -250 -103 -255 72 -208 279 75 149 206 157 277 50 450 -107 172 -103 222 22 302 210 133 235 125 387 -118z m3358 -384 c72 0 159 -101 192 -225 100 -374 71 -431 -97 -191 -89 127 -223 205 -300 176 -158 -61 -173 66 -65 553 l75 337 31 -325 c18 -187 88 -325 164 -325z m6753 375 c0 -69 -45 -192 -98 -275 -76 -117 -97 -89 -98 125 -1 151 43 275 98 275 55 0 99 -56 98 -125z m-4553 -184 c-32 -52 -101 -68 -154 -36 -52 32 -68 101 -36 154 32 52 101 68 154 36 52 -32 68 -101 36 -154z m-3243 -341 c4 -194 8 -195 147 -12 134 177 151 168 315 -176 131 -273 219 -349 355 -306 150 48 181 0 181 -279 0 -319 -143 -577 -320 -577 -146 0 -83 277 76 339 171 65 105 261 -87 260 -139 0 -514 -594 -484 -766 27 -158 -155 -262 -234 -134 -35 56 24 226 130 377 285 402 363 863 173 1020 -114 96 -154 98 -154 9 0 -259 -257 153 -277 445 -16 226 3 263 76 150 54 -82 100 -240 103 -350z m-4202 275 c-1 -130 -408 -750 -460 -699 -67 68 278 774 379 774 44 0 81 -34 81 -75z m8460 -198 c-33 -33 -56 26 -52 131 5 117 28 141 60 61 29 -72 26 -159 -8 -192z m-1303 -184 c-37 -147 -89 -244 -117 -217 -27 28 -20 170 17 317 37 146 90 244 117 216 28 -27 20 -170 -17 -316z m1799 147 c37 -60 -5 -182 -94 -271 -149 -149 -162 -141 -162 110 0 276 133 360 256 161z m-8456 -190 c0 -55 -101 -99 -225 -98 -182 1 -196 20 -75 98 194 125 300 125 300 0z m-1900 -294 c0 -52 -45 -122 -100 -156 -55 -34 -100 8 -100 94 0 86 45 156 100 156 55 0 100 -42 100 -94z m1282 -156 c-63 -137 -182 -250 -265 -250 -113 0 -92 64 83 250 129 138 249 250 265 250 17 0 -21 -112 -83 -250z m502 -150 c-122 -165 -289 -300 -372 -300 -102 0 -59 95 138 300 158 165 325 300 372 300 46 0 -16 -135 -138 -300z m11413 204 c92 -58 193 -54 273 13 93 77 144 63 188 -52 34 -87 45 -200 26 -252 -41 -112 -784 170 -784 298 0 114 110 111 297 -7z m-16337 -377 c-33 -33 -56 26 -52 131 5 117 28 141 60 61 29 -72 26 -159 -8 -192z m3490 73 c-34 -55 -107 -100 -162 -100 -55 0 -72 45 -38 100 34 55 107 100 162 100 55 0 72 -45 38 -100z m198 -387 c-139 -132 -160 -134 -110 -13 34 83 94 240 133 350 67 189 73 189 110 13 21 -103 -39 -260 -133 -350z m3102 112 c-12 -206 -33 -375 -47 -375 -83 0 -65 -723 21 -827 140 -171 6 -293 -151 -136 -220 221 -68 1713 175 1713 13 0 13 -169 2 -375z m7819 -237 c-109 -175 -127 -164 -236 137 -176 485 -157 533 111 281 204 -192 224 -260 125 -418z m-3276 253 c-176 -211 -313 -170 -174 53 67 106 159 169 206 141 47 -29 32 -116 -32 -194z m1107 -185 c0 -189 -45 -372 -100 -406 -55 -34 -104 -160 -108 -281 -7 -185 -24 -174 -114 72 -76 211 -74 343 8 474 63 100 114 250 114 334 0 83 45 151 100 151 55 0 100 -155 100 -344z m-7465 -109 c-31 -81 -119 -147 -196 -147 -76 0 -139 -52 -139 -117 0 -64 -29 -88 -64 -53 -91 92 255 587 364 520 50 -31 66 -122 35 -203z m7965 53 c0 -110 -45 -200 -100 -200 -55 0 -100 90 -100 200 0 110 45 200 100 200 55 0 100 -90 100 -200z m-1174 -294 c78 -298 59 -368 -143 -531 l-233 -188 225 63 c164 47 225 21 225 -93 0 -86 -45 -157 -100 -157 -166 0 -112 -183 63 -218 222 -44 -1424 -1109 -1757 -1137 -141 -11 -436 -53 -656 -92 l-400 -72 325 208 c377 241 422 355 101 253 -190 -60 -206 -48 -102 77 68 81 304 208 526 281 364 120 744 400 543 400 -45 0 6 64 113 142 170 125 218 122 384 -25 153 -135 180 -138 142 -18 -27 82 14 211 90 287 192 192 118 226 -260 117 -419 -120 -378 61 67 300 385 206 641 411 585 467 -80 79 -1564 -954 -1564 -1089 0 -128 118 -95 335 94 201 175 201 175 8 -97 -182 -257 -506 -448 -601 -353 -24 23 3 174 59 334 92 262 293 434 947 811 114 66 317 236 450 378 314 334 517 288 628 -142z m3417 137 c231 -231 192 -405 -43 -193 -110 100 -200 219 -200 265 0 124 66 105 243 -72z m-14983 -216 c-33 -33 -56 26 -52 131 5 117 28 141 60 61 29 -72 26 -159 -8 -192z m6984 7 c-135 -146 -274 -237 -309 -202 -35 35 44 153 176 262 344 286 422 251 133 -60z m-2941 -128 c-57 -107 -156 -227 -219 -266 -63 -39 -92 -30 -65 20 28 49 78 169 112 265 35 96 111 175 169 175 75 0 76 -58 3 -194z m5500 0 c-105 -197 -303 -367 -303 -261 0 110 249 455 328 455 43 0 32 -87 -25 -194z m5197 -267 c0 -39 -90 11 -200 111 -110 100 -200 228 -200 284 0 57 90 7 200 -111 110 -118 200 -246 200 -284z m-6542 -252 l-151 -337 60 400 c70 470 165 667 211 437 18 -90 -36 -315 -120 -500z m4342 463 c0 -82 -45 -150 -100 -150 -55 0 -100 68 -100 150 0 83 45 150 100 150 55 0 100 -67 100 -150z m1238 -281 c184 -323 192 -384 62 -468 -118 -75 -186 -16 -318 276 -321 716 -126 862 256 192z m-13552 -219 c0 -200 0 -200 -86 0 -47 110 -86 290 -86 400 0 200 0 200 86 0 47 -110 86 -290 86 -400z m4214 306 c0 -174 -285 -406 -377 -307 -40 43 -17 98 52 123 69 25 125 134 125 242 0 109 45 170 100 136 55 -34 100 -121 100 -194z m4345 -65 c-88 -170 -180 -289 -205 -264 -77 77 148 573 260 573 62 0 39 -128 -55 -309z m7155 53 c0 -86 -45 -128 -100 -94 -55 34 -100 104 -100 156 0 52 45 94 100 94 55 0 100 -70 100 -156z m-2693 -501 c82 -101 -61 -843 -163 -843 -25 0 -18 180 18 399 41 258 20 453 -60 549 -75 89 -93 220 -46 326 68 150 85 140 121 -74 23 -137 82 -298 130 -357z m-9409 282 c0 -41 -43 -141 -94 -222 -115 -182 -250 -68 -169 143 59 156 266 218 263 79z m1914 -750 c-116 -241 -212 -527 -212 -635 0 -237 -518 -484 -939 -448 -219 19 -275 -11 -232 -122 40 -105 3 -134 -125 -100 -100 26 -212 -1 -249 -61 -128 -208 -264 -113 -148 104 89 166 84 231 -22 297 -102 64 -19 200 345 562 263 263 450 399 414 303 -36 -96 -107 -175 -158 -175 -181 0 -197 -284 -28 -482 193 -226 361 -173 863 272 426 377 215 448 -278 95 -243 -175 -468 -294 -498 -263 -90 90 412 578 595 578 91 0 194 71 227 158 33 86 163 196 289 244 169 65 217 146 183 318 l-44 230 115 -218 c93 -178 75 -300 -98 -657z m3288 725 c0 -55 -48 -100 -106 -100 -58 0 -78 45 -44 100 34 55 82 100 106 100 24 0 44 -45 44 -100z m6511 -125 c116 -221 114 -222 -87 -43 -194 172 -211 173 -303 9 -89 -159 -106 -155 -212 43 -107 199 -92 216 184 216 209 0 336 -68 418 -225z m-6954 -634 c-108 -296 -145 -335 -150 -159 -7 237 176 669 251 593 24 -23 -22 -219 -101 -434z m6343 153 c0 -52 -45 -94 -100 -94 -55 0 -100 70 -100 156 0 86 45 128 100 94 55 -34 100 -104 100 -156z m1400 100 c0 -58 -45 -78 -100 -44 -55 34 -100 82 -100 106 0 24 45 44 100 44 55 0 100 -48 100 -106z m500 -144 c0 -82 -73 -150 -162 -150 -133 0 -140 27 -38 150 68 83 141 150 162 150 21 0 38 -67 38 -150z m-9900 -256 c0 -107 -45 -194 -100 -194 -55 0 -100 115 -100 256 0 145 43 229 100 194 55 -34 100 -149 100 -256z m4900 112 c0 -52 -87 -155 -193 -230 -106 -74 -225 -264 -265 -422 -76 -303 -95 -300 433 -84 69 28 125 2 125 -59 0 -61 -59 -111 -131 -111 -166 0 -569 -370 -569 -523 0 -63 135 15 300 173 448 429 362 138 -100 -338 -420 -433 -387 -514 104 -260 l293 152 -63 -603 c-52 -496 -31 -638 114 -799 103 -114 149 -264 111 -363 -40 -105 12 -241 138 -358 307 -286 249 -416 -271 -603 -473 -170 -473 -170 -734 80 -316 303 -883 411 -1283 246 -231 -96 -366 -96 -631 -1 -295 107 -390 95 -767 -97 -411 -210 -742 -218 -687 -18 14 52 -131 200 -323 331 -478 325 -607 624 -577 1330 38 883 318 860 1008 -82 217 -296 698 -515 931 -426 148 57 140 93 -67 313 -268 285 -193 425 259 484 162 21 385 70 495 109 187 65 189 60 25 -75 -184 -152 -237 -522 -87 -614 175 -109 691 245 758 519 36 150 165 355 285 456 l219 183 -350 -57 -350 -57 350 297 c193 163 429 323 525 356 96 32 175 102 175 154 0 53 -135 26 -300 -59 -181 -93 -300 -113 -300 -49 0 74 -60 74 -200 -1 -110 -59 -200 -163 -200 -231 0 -139 -670 -532 -758 -444 -32 31 67 117 218 191 320 156 486 467 179 335 -104 -45 -346 -91 -539 -102 -192 -12 -545 -94 -783 -183 -255 -96 -418 -119 -397 -56 47 142 1046 490 1404 490 333 0 944 240 1200 471 203 185 1086 716 1201 724 41 3 75 -37 75 -89z m460 -179 c-101 -102 -185 51 -102 186 63 102 87 102 121 1 23 -70 15 -154 -19 -187z m-8660 17 c0 -24 -45 -44 -100 -44 -55 0 -100 48 -100 106 0 58 45 78 100 44 55 -34 100 -82 100 -106z m9087 -412 c-101 -537 -387 -1204 -545 -1268 -162 -67 -13 751 189 1040 216 308 214 406 -6 326 -157 -57 -156 -42 15 153 324 368 446 280 347 -251z m-6787 218 c0 -82 -44 -150 -97 -150 -53 0 -71 68 -39 150 31 83 75 150 97 150 21 0 39 -67 39 -150z m2100 44 c0 -58 -45 -78 -100 -44 -55 34 -100 82 -100 106 0 24 45 44 100 44 55 0 100 -48 100 -106z m-518 -161 c-17 -91 -85 -184 -149 -205 -75 -25 -98 35 -63 166 63 245 259 281 212 39z m8492 -6 c23 -68 -43 -90 -167 -58 -113 30 -179 96 -147 148 72 115 264 60 314 -90z m780 -34 c108 -174 -15 -211 -152 -45 -79 95 -86 152 -20 152 58 0 136 -48 172 -107z m-2554 -293 c59 -110 94 -203 79 -208 -272 -72 -434 -51 -559 74 -130 130 -132 165 -11 242 223 141 376 108 491 -108z m-7572 -269 c-93 -142 -185 -210 -205 -150 -53 160 172 534 281 467 53 -33 20 -170 -76 -317z m8982 207 c116 -139 108 -156 -55 -125 -104 21 -207 93 -230 162 -59 178 126 155 285 -37z m-8571 -191 c-91 -139 -186 -234 -209 -210 -60 59 199 463 296 463 43 0 4 -114 -87 -253z m9889 -345 c30 -111 24 -202 -12 -202 -76 0 -616 659 -616 751 0 143 580 -364 628 -549z m-9474 305 c-36 -59 -114 -107 -172 -107 -66 0 -59 57 20 152 137 166 260 129 152 -45z m-1354 -63 c0 -86 -46 -128 -102 -93 -56 35 -75 105 -44 156 86 139 146 113 146 -63z m-3477 -89 c131 -187 82 -330 -134 -387 -117 -31 -190 -113 -164 -186 26 -73 9 -233 -37 -357 -50 -136 -45 -225 14 -225 225 0 72 -208 -252 -344 -192 -80 -350 -198 -350 -262 0 -63 59 -93 130 -65 93 35 128 -54 121 -315 -5 -201 -42 -418 -82 -483 -111 -179 91 -249 232 -80 138 167 299 197 299 56 0 -51 -142 -163 -315 -249 -427 -213 -605 -62 -565 477 27 358 2 409 -220 463 -178 43 -259 138 -282 331 -60 513 -345 198 -466 -514 -69 -413 -78 -422 -262 -256 -104 95 -190 215 -190 268 0 53 229 360 509 684 408 471 478 600 350 649 -87 34 -159 129 -159 211 0 88 58 128 140 97 78 -30 380 97 673 281 530 335 872 404 1010 206z m11784 -1438 c61 -403 96 -746 77 -763 -19 -16 -325 -147 -680 -289 -486 -195 -665 -229 -724 -137 -106 168 -100 772 9 772 48 0 112 124 141 275 30 151 104 474 166 717 62 243 84 572 49 731 -63 287 -60 286 394 -142 425 -401 464 -481 568 -1164z m-8845 1338 c82 -213 -63 -414 -173 -241 -118 186 -111 386 14 386 57 0 128 -65 159 -145z m9204 -318 c282 -71 327 -437 54 -437 -115 0 -232 134 -324 375 -196 508 -222 620 -81 348 65 -125 223 -254 351 -286z m1051 238 c151 -170 186 -183 145 -50 -75 237 66 221 297 -35 105 -116 305 -270 444 -342 236 -122 250 -169 201 -664 -46 -452 -87 -539 -272 -565 -119 -17 -271 -96 -337 -175 -232 -279 -268 -219 -428 706 -19 110 -131 459 -249 775 -227 607 -149 743 199 350z m-9217 -131 c0 -24 -45 -44 -100 -44 -55 0 -100 48 -100 106 0 58 45 78 100 44 55 -34 100 -82 100 -106z m-2400 -144 c258 -258 252 -321 -25 -282 -153 22 -229 104 -236 257 -14 275 8 278 261 25z m4800 120 c0 -100 -696 -358 -769 -284 -30 30 97 120 282 201 401 175 487 189 487 83z m-3082 -342 c-71 -71 -118 -77 -118 -15 0 134 118 252 185 185 28 -28 -2 -105 -67 -170z m7182 22 c0 -110 -45 -200 -100 -200 -55 0 -100 90 -100 200 0 110 45 200 100 200 55 0 100 -90 100 -200z m-6740 -273 c-33 -33 -56 26 -52 131 5 117 28 141 60 61 29 -72 26 -159 -8 -192z m11040 -147 c0 -283 -33 -387 -101 -319 -89 89 -33 739 64 739 20 0 37 -189 37 -420z m-12564 170 c35 -90 1 -150 -83 -150 -165 0 -276 143 -184 236 106 105 206 73 267 -86z m664 50 c0 -55 -45 -100 -100 -100 -55 0 -100 45 -100 100 0 55 45 100 100 100 55 0 100 -45 100 -100z m-4800 -82 c0 -45 -158 -259 -352 -475 -283 -316 -370 -365 -443 -248 -67 107 6 232 277 471 373 330 518 401 518 252z m12000 -215 c0 -235 -35 -283 -165 -233 -134 51 -153 17 -104 -179 33 -134 18 -310 -34 -392 -65 -104 -94 24 -95 419 -2 457 32 576 173 613 96 25 186 51 200 57 14 7 25 -122 25 -285z m-9206 39 c102 123 164 134 271 46 114 -95 92 -139 -122 -250 -355 -184 -819 52 -578 294 36 36 117 -6 180 -93 105 -143 128 -142 249 3z m1856 -142 c34 -55 40 -100 14 -100 -26 0 -119 -27 -206 -61 -104 -40 -158 -5 -158 100 0 177 252 220 350 61z m-904 -207 c-36 -58 -92 -81 -123 -49 -31 31 -167 -15 -301 -103 -172 -113 -275 -128 -350 -53 -75 75 -35 134 136 203 334 133 720 135 638 2z m1946 -218 c-75 -261 -61 -349 72 -447 136 -100 143 -149 39 -275 -70 -84 -167 -153 -215 -153 -141 0 -106 1076 37 1134 69 28 133 54 143 58 10 4 -24 -138 -76 -317z m8601 -106 c-6 -269 -21 -288 -93 -119 -120 279 -120 574 0 500 55 -34 97 -205 93 -381z m-11694 -229 c0 -60 -83 -185 -187 -279 -156 -141 -196 -146 -242 -28 -30 79 -4 193 56 253 82 82 46 182 -132 376 l-244 265 374 -238 c205 -132 374 -288 375 -349z m1891 -88 c-132 -249 -273 -452 -315 -452 -117 0 -89 101 75 264 83 83 150 256 150 385 0 206 179 385 290 289 22 -19 -68 -238 -200 -486z m-2590 195 c0 -161 -266 -314 -369 -212 -71 71 155 365 281 365 49 0 88 -69 88 -153z m1810 -177 c-128 -128 -258 -29 -163 125 37 60 113 80 169 45 68 -42 66 -98 -6 -170z m-4760 30 c-34 -55 -82 -100 -106 -100 -24 0 -44 45 -44 100 0 55 48 100 106 100 58 0 78 -45 44 -100z m13048 -842 c-64 -64 -94 89 -87 447 l11 545 87 -447 c55 -280 51 -483 -11 -545z m2829 211 c23 -304 -2 -461 -71 -438 -58 20 -102 111 -98 202 35 686 47 795 88 754 25 -25 62 -258 81 -518z m1373 231 c0 -290 -238 -436 -319 -194 -19 58 -116 74 -216 36 -147 -56 -169 -137 -117 -416 49 -260 33 -336 -64 -304 -71 24 -158 187 -194 362 -60 294 -33 339 347 567 526 315 563 312 563 -51z m-15800 111 c0 -49 -67 -116 -150 -147 -83 -32 -150 -109 -150 -172 0 -62 67 -87 150 -56 175 67 193 -68 46 -343 -86 -161 -70 -193 100 -193 112 0 204 -45 204 -100 0 -55 -45 -100 -100 -100 -55 0 -100 -45 -100 -100 0 -55 67 -100 150 -100 83 0 150 45 150 100 0 55 67 100 150 100 100 0 150 -100 150 -300 0 -283 -22 -300 -400 -300 -376 0 -400 18 -400 294 0 162 -45 322 -100 356 -55 34 -100 149 -100 256 0 107 -67 194 -150 194 -214 0 -185 199 67 469 218 231 483 309 483 142z m2475 -19 c-96 -56 -175 -145 -175 -197 0 -52 79 -95 175 -96 135 0 180 -96 198 -425 26 -472 199 -874 377 -874 64 0 173 -107 243 -237 108 -202 101 -268 -51 -445 -98 -114 -218 -183 -266 -153 -49 30 -14 138 77 239 196 216 123 397 -133 330 -145 -38 -205 55 -314 485 -181 711 -311 981 -472 981 -74 0 -134 42 -134 94 0 113 401 407 547 403 57 -2 24 -49 -72 -105z m1861 -142 c-31 -83 -75 -150 -97 -150 -21 0 -39 67 -39 150 0 83 44 150 97 150 53 0 71 -67 39 -150z m-5891 -275 l-70 -325 213 190 c209 188 212 188 212 -8 0 -259 -490 -507 -615 -312 -46 71 -61 190 -34 263 27 73 49 220 49 325 0 108 69 192 158 192 126 0 144 -66 87 -325z m15408 -150 c-90 -356 -143 -402 -255 -222 -76 121 -128 125 -294 22 -111 -69 -269 -125 -353 -125 -83 0 -151 -49 -151 -108 0 -68 -111 -83 -300 -42 -224 49 -316 26 -361 -92 -33 -87 -143 -158 -244 -158 -101 0 -210 -43 -242 -96 -33 -52 -130 -68 -216 -35 -87 33 -193 2 -237 -69 -102 -165 -400 -55 -400 147 0 86 87 153 199 153 110 0 503 130 875 289 771 330 1589 596 1862 605 153 5 174 -42 117 -269z m-9397 -479 c108 -318 279 -611 391 -671 279 -149 469 -354 379 -408 -42 -25 -243 26 -447 115 -343 150 -375 199 -436 691 -37 291 -106 554 -155 584 -48 30 -88 122 -88 205 0 285 165 46 356 -516z m-726 110 c25 -113 119 -375 209 -581 93 -212 120 -375 62 -375 -55 0 -101 45 -101 100 0 55 -61 100 -136 100 -140 0 -464 719 -464 1029 0 145 31 154 192 53 106 -66 212 -213 238 -326z m1970 233 c0 -49 -89 -89 -197 -89 -130 0 -178 49 -142 144 57 148 339 103 339 -55z m-4302 -41 c-174 -210 -62 -289 188 -134 270 169 391 37 180 -196 -228 -253 -208 -344 59 -263 184 55 202 43 100 -64 -180 -188 -154 -371 50 -355 137 11 168 -50 141 -286 -76 -682 -386 -554 -527 216 -55 299 -165 536 -289 621 -223 153 -267 469 -75 547 238 96 299 65 173 -86z m4782 -168 c146 -146 156 -280 20 -280 -55 0 -100 64 -100 142 0 78 -56 164 -125 192 -69 28 -78 54 -20 58 58 4 159 -46 225 -112z m-6965 -205 c67 -124 148 -381 180 -571 43 -262 117 -360 304 -404 195 -46 252 -130 275 -404 15 -190 4 -407 -24 -482 -79 -207 -364 65 -344 327 29 379 -4 481 -140 429 -196 -75 -306 26 -592 543 -236 426 -244 475 -94 625 216 215 290 205 435 -63z m6243 -75 c78 0 142 -67 142 -150 0 -82 48 -150 106 -150 58 0 78 -45 44 -100 -93 -151 -450 -120 -450 38 0 76 -95 163 -210 194 -124 32 -181 101 -140 168 39 63 137 88 218 57 82 -31 212 -57 290 -57z m9388 7 c78 -127 -300 -235 -546 -157 -134 42 -221 11 -261 -93 -33 -86 -144 -157 -246 -157 -102 0 -237 -96 -300 -214 -89 -165 -133 -183 -198 -78 -67 109 -118 102 -272 -37 -104 -94 -223 -138 -264 -96 -42 41 -134 -5 -205 -103 -113 -154 -138 -157 -189 -25 -90 235 -239 182 -340 -122 l-91 -274 -122 226 c-146 273 -73 423 205 423 112 0 481 127 819 282 338 155 749 330 914 389 381 137 1021 158 1096 36z m624 -507 c182 0 330 -41 330 -92 0 -50 26 -174 58 -275 55 -175 52 -175 -59 -2 -94 148 -142 158 -267 54 -124 -103 -169 -95 -247 45 -52 93 -160 170 -240 170 -80 0 -145 77 -145 170 0 132 27 143 120 50 66 -66 269 -120 450 -120z m-14330 -223 c60 -41 -14 -75 -165 -75 -298 -2 -346 87 -151 282 98 98 132 97 165 -5 22 -71 90 -162 151 -202z m12810 -77 c-34 -55 -82 -100 -106 -100 -24 0 -44 45 -44 100 0 55 48 100 106 100 58 0 78 -45 44 -100z m-9335 -500 c99 0 98 -27 -2 -125 -102 -100 -175 -70 -370 156 -317 365 -315 532 2 214 135 -135 302 -245 370 -245z m-7455 27 c-33 -33 -56 26 -52 131 5 117 28 141 60 61 29 -72 26 -159 -8 -192z m4122 31 c157 -159 156 -179 -26 -314 -239 -177 -356 -183 -356 -18 0 69 -90 182 -200 251 -110 68 -200 164 -200 212 0 150 606 48 782 -131z m13700 -33 c18 -128 105 -228 200 -232 136 -6 130 -24 -32 -93 -328 -141 -434 -112 -468 125 -45 315 -226 281 -264 -50 -32 -284 -218 -391 -218 -125 0 248 -382 180 -418 -75 -29 -205 -170 -279 -191 -100 -4 41 -54 131 -111 199 -144 174 -301 48 -227 -182 77 -244 -132 -255 -317 -17 -129 166 -143 166 -271 2 -141 -181 -265 -139 -265 90 0 73 70 133 156 133 175 0 1009 247 1544 457 500 196 843 145 882 -132z m-11423 -199 c-109 -110 -184 64 -106 245 74 171 80 171 121 -4 24 -100 17 -209 -15 -241z m12073 -223 c-74 -81 -222 232 -158 336 33 54 92 11 131 -96 38 -106 51 -214 27 -240z m-18559 97 c8 -114 -47 -200 -129 -200 -162 0 -169 19 -83 242 84 219 193 198 212 -42z m3608 -194 c25 -75 -12 -112 -87 -87 -72 24 -151 103 -175 175 -25 75 12 112 87 87 72 -24 151 -103 175 -175z m3419 -12 c0 -58 -45 -78 -100 -44 -55 34 -100 82 -100 106 0 24 45 44 100 44 55 0 100 -48 100 -106z"/>
<path d="M11348 18806 c63 -199 52 -207 -135 -91 -259 162 -362 64 -218 -206 134 -251 327 -265 659 -47 291 190 310 292 71 376 -96 34 -236 90 -310 124 -102 46 -118 6 -67 -156z"/>
<path d="M8800 18319 c0 -57 135 -133 301 -169 165 -37 277 -105 247 -153 -60 -97 296 -320 378 -237 29 28 -57 161 -190 295 -263 263 -736 433 -736 264z"/>
<path d="M10565 18125 c60 -242 49 -259 -90 -145 -222 183 -349 -49 -140 -258 145 -145 175 -144 345 10 102 92 233 168 291 168 57 0 161 68 229 150 104 125 90 150 -82 150 -113 0 -234 45 -268 100 -34 55 -128 100 -208 100 -109 0 -129 -69 -77 -275z"/>
<path d="M15903 17521 c-2 -70 73 -250 166 -400 155 -250 142 -246 -162 54 -362 356 -507 406 -507 175 0 -82 -45 -150 -100 -150 -123 0 -134 -270 -13 -317 136 -52 243 -483 120 -483 -59 0 -107 84 -107 188 0 211 -268 477 -374 372 -37 -38 -14 -157 54 -265 67 -107 79 -195 27 -195 -52 0 -125 49 -162 109 -45 72 -101 75 -168 8 -135 -135 -8 -317 224 -317 213 0 579 -314 844 -725 98 -151 264 -275 369 -275 117 0 231 -107 294 -275 57 -151 247 -399 423 -550 259 -224 325 -246 353 -117 19 87 -39 233 -127 325 -89 92 -254 291 -367 443 -113 152 -247 250 -298 219 -160 -99 -100 181 83 387 128 144 142 209 50 241 -219 77 -134 206 125 191 175 -10 250 -72 250 -208 0 -106 98 -297 217 -425 181 -192 190 -231 54 -231 -90 0 -212 90 -271 200 -121 226 -300 267 -300 69 0 -122 71 -206 599 -711 110 -106 201 -292 201 -413 0 -121 69 -277 152 -347 185 -153 333 -43 166 124 -173 173 -144 324 34 176 304 -252 275 12 -34 315 -175 171 -318 347 -318 391 0 223 131 378 274 323 132 -51 148 0 97 314 l-61 376 241 -159 c301 -197 349 -197 349 -4 0 204 -295 646 -432 646 -71 0 -67 -41 12 -120 66 -66 120 -156 120 -200 0 -142 -224 -85 -352 89 -99 136 -97 196 7 300 72 72 179 131 238 131 131 0 132 22 9 343 -119 314 -456 344 -533 48 -42 -160 -105 -193 -267 -142 -116 37 -274 16 -350 -47 -109 -91 -212 -35 -492 267 -195 209 -356 323 -357 252z m-103 -638 c0 -119 -13 -198 -28 -175 -16 23 -89 121 -163 217 -114 150 -110 175 29 175 99 0 162 -83 162 -217z m900 -483 c0 -55 -45 -100 -100 -100 -55 0 -100 45 -100 100 0 55 45 100 100 100 55 0 100 -45 100 -100z m759 -174 c-69 -70 -259 71 -259 192 0 66 57 59 152 -20 84 -70 132 -147 107 -172z m-5 -333 c36 -58 45 -127 20 -152 -69 -70 -374 68 -374 170 0 125 274 111 354 -18z m-1154 -193 c0 -55 -45 -100 -100 -100 -55 0 -100 45 -100 100 0 55 45 100 100 100 55 0 100 -45 100 -100z"/>
<path d="M10800 17311 c0 -118 292 -227 411 -154 51 31 66 99 35 150 -74 119 -446 122 -446 4z"/>
<path d="M12860 16416 c-35 -56 -15 -132 45 -169 154 -95 253 35 125 163 -72 72 -128 74 -170 6z"/>
<path d="M14254 16206 c-32 -52 80 -237 250 -410 410 -419 286 -523 -135 -114 -366 354 -469 391 -469 166 0 -84 113 -196 250 -248 231 -88 289 -184 225 -375 -14 -41 -60 -63 -103 -49 -43 14 -104 -42 -135 -125 -32 -83 -144 -151 -248 -151 -244 0 -240 -27 85 -581 150 -257 261 -538 246 -625 -14 -86 65 -240 177 -341 112 -101 203 -246 203 -322 0 -75 79 -165 175 -199 96 -34 299 -176 451 -316 209 -194 303 -227 392 -138 88 88 55 164 -139 317 -140 110 -278 291 -307 403 -78 297 53 245 248 -99 179 -313 480 -407 480 -149 0 82 -48 150 -107 150 -59 0 -36 71 51 158 144 144 136 195 -90 574 -314 526 -508 612 -423 187 51 -252 25 -320 -142 -373 -283 -89 -319 -21 -239 454 53 315 106 400 223 355 84 -32 207 -13 275 43 90 75 163 -3 279 -298 151 -385 301 -497 415 -312 60 95 -330 915 -492 1037 -64 48 -51 107 36 163 174 112 78 420 -252 813 -276 327 -434 382 -434 149 0 -215 -93 -186 -318 100 -208 265 -333 310 -428 156z m846 -1506 c0 -55 -45 -100 -100 -100 -55 0 -100 45 -100 100 0 55 45 100 100 100 55 0 100 -45 100 -100z m-500 -600 c0 -55 -45 -100 -100 -100 -55 0 -100 45 -100 100 0 55 45 100 100 100 55 0 100 -45 100 -100z"/>
<path d="M13553 15605 c-86 -140 24 -305 203 -305 184 0 185 142 3 293 -97 80 -162 84 -206 12z"/>
<path d="M18021 15480 c176 -264 379 -349 379 -158 0 179 -201 378 -382 378 -122 0 -122 -31 3 -220z"/>
<path d="M17851 15102 c-35 -110 -36 -246 -2 -301 81 -131 351 -131 351 -1 0 55 -50 100 -111 100 -61 0 -85 66 -54 147 31 81 16 171 -32 201 -49 30 -117 -35 -152 -146z"/>
<path d="M15900 14846 c0 -30 86 -223 192 -430 182 -357 649 -692 746 -536 62 101 -154 370 -360 447 -95 35 -201 179 -236 319 -35 140 -126 254 -203 254 -76 0 -139 -24 -139 -54z"/>
<path d="M16246 13594 c-83 -134 234 -494 435 -494 128 0 125 27 -16 183 -91 100 -165 235 -165 300 0 146 -166 153 -254 11z"/>
<path d="M16056 13110 c-74 -120 307 -580 402 -485 84 83 -147 575 -269 575 -42 0 -102 -40 -133 -90z"/>
<path d="M16900 12690 c0 -159 366 -558 442 -481 22 23 -68 176 -200 341 -162 202 -241 248 -242 140z"/>
<path d="M15900 12309 c0 -118 68 -241 150 -273 82 -31 150 -165 150 -297 0 -131 48 -239 106 -239 205 0 57 719 -181 876 -210 138 -225 134 -225 -67z"/>
<path d="M17965 9532 c-38 -38 73 -128 245 -200 467 -197 585 -159 213 68 -371 226 -365 225 -458 132z"/>
<path d="M9400 16400 c0 -55 45 -100 100 -100 55 0 100 45 100 100 0 55 -45 100 -100 100 -55 0 -100 -45 -100 -100z"/>
<path d="M9069 15020 c-99 -20 -161 -89 -138 -153 24 -65 -27 -197 -112 -294 -126 -146 -131 -200 -24 -300 104 -98 121 -93 83 27 -26 82 64 246 200 364 273 237 269 413 -9 356z"/>
<path d="M9200 14500 c0 -55 45 -100 100 -100 55 0 100 45 100 100 0 55 -45 100 -100 100 -55 0 -100 -45 -100 -100z"/>
<path d="M8600 14006 c0 -58 45 -106 100 -106 55 0 100 20 100 44 0 24 -45 72 -100 106 -55 34 -100 14 -100 -44z"/>
<path d="M11822 13157 c12 -142 68 -244 125 -225 145 49 129 393 -22 443 -81 27 -117 -49 -103 -218z"/>
<path d="M11400 12856 c0 -232 158 -431 262 -328 76 76 -74 572 -173 572 -49 0 -89 -110 -89 -244z"/>
<path d="M11573 11975 c-55 -365 -34 -424 120 -329 129 79 144 654 18 654 -48 0 -111 -146 -138 -325z"/>
<path d="M9600 8250 c0 -82 45 -150 100 -150 55 0 100 68 100 150 0 83 -45 150 -100 150 -55 0 -100 -67 -100 -150z"/>
<path d="M12734 7274 c-94 -151 262 -188 463 -47 199 139 195 144 -104 134 -171 -6 -333 -45 -359 -87z"/>
<path d="M12044 6958 c-106 -78 -169 -166 -139 -196 99 -100 495 60 495 200 0 176 -111 175 -356 -4z"/>
<path d="M13175 6692 c-303 -176 -190 -305 125 -142 165 85 300 176 300 203 0 80 -241 46 -425 -61z"/>
<path d="M13575 5124 c-238 -147 -407 -405 -200 -304 485 236 625 325 625 396 0 124 -117 99 -425 -92z"/>
<path d="M12044 4358 c-106 -78 -164 -171 -127 -208 84 -84 483 125 483 254 0 136 -130 119 -356 -46z"/>
<path d="M11850 3800 c-34 -55 6 -100 88 -100 83 0 178 45 212 100 34 55 -6 100 -88 100 -83 0 -178 -45 -212 -100z"/>
<path d="M11927 3440 c33 -34 120 -37 192 -8 80 32 56 55 -61 60 -105 4 -164 -19 -131 -52z"/>
<path d="M3801 5251 c-71 -86 -98 -187 -60 -225 87 -87 377 90 367 224 -13 166 -170 166 -307 1z"/>
<path d="M3903 4804 c-81 -51 -118 -122 -83 -158 88 -87 480 44 480 161 0 119 -207 117 -397 -3z"/>
<path d="M3225 24861 c96 -73 175 -179 175 -235 0 -57 94 -127 209 -157 193 -51 207 -119 190 -937 -23 -1093 -22 -1095 98 -975 126 126 236 1367 154 1739 -93 423 -379 704 -713 701 -261 -3 -271 -16 -113 -136z"/>
<path d="M4537 24675 c33 -179 90 -1506 127 -2950 36 -1444 104 -2625 151 -2625 100 0 102 28 91 1900 -14 2580 -114 4000 -281 4000 -112 0 -133 -78 -88 -325z"/>
<path d="M19200 24875 c0 -69 48 -845 107 -1725 106 -1576 282 -2330 510 -2190 58 36 145 4 193 -72 119 -189 113 -588 -10 -588 -55 0 -100 90 -100 200 0 110 -45 200 -100 200 -157 0 -120 -1881 50 -2534 83 -317 150 -841 150 -1165 0 -324 38 -613 84 -641 47 -29 141 -1010 210 -2181 88 -1486 180 -2295 305 -2679 103 -316 210 -1061 252 -1748 39 -659 109 -1298 155 -1419 150 -393 414 -3815 539 -6983 20 -495 40 -1008 45 -1139 10 -235 24 -239 678 -178 713 67 894 160 798 410 -76 199 -335 202 -530 7 -171 -171 -336 -197 -336 -53 0 53 -67 71 -150 39 -103 -39 -150 6 -150 143 0 224 181 321 602 321 158 0 314 45 348 100 34 55 162 100 284 100 276 0 690 280 609 412 -38 62 -113 55 -201 -19 -77 -64 -285 -95 -462 -69 -188 28 -376 -5 -450 -79 -69 -70 -217 -103 -328 -74 -412 107 -164 360 389 397 556 37 674 111 449 282 -218 165 -898 199 -990 50 -113 -182 -225 -104 -225 157 0 316 316 466 1016 482 543 12 804 261 273 261 -166 0 -329 44 -363 98 -33 54 -283 84 -556 68 -421 -26 -495 -4 -495 150 0 207 313 310 985 324 288 7 464 60 495 150 38 116 -72 128 -629 71 -371 -38 -726 -78 -788 -90 -66 -12 -126 156 -144 404 -35 494 52 552 1006 669 316 39 575 110 575 159 0 119 -649 234 -926 163 -822 -208 -774 -216 -774 133 0 317 7 322 375 266 206 -32 522 -78 703 -102 374 -50 671 -227 1234 -736 661 -597 826 -905 950 -1776 l115 -801 11 1055 c8 688 -29 1096 -105 1172 -90 90 -90 178 0 375 64 142 112 402 107 578 -10 312 -12 311 -103 -78 -139 -593 -332 -717 -237 -152 41 248 107 643 147 878 50 295 38 417 -37 392 -61 -20 -137 -314 -170 -655 -33 -340 -86 -644 -118 -677 -160 -159 -247 134 -256 862 -17 1296 -254 2569 -772 4150 -635 1935 -1346 3093 -2164 3520 -517 271 -493 204 -636 1769 l-63 689 629 -71 c364 -41 745 -154 903 -266 151 -107 402 -185 558 -174 304 24 784 -270 1222 -747 141 -154 448 -366 682 -470 397 -178 425 -179 425 -17 0 96 -124 248 -275 338 -371 221 -751 586 -682 655 31 31 135 -15 232 -103 96 -87 299 -206 450 -264 l275 -104 0 608 c0 521 -23 599 -163 546 -89 -34 -226 -10 -303 54 -108 90 -194 88 -368 -4 -184 -99 -310 -91 -671 44 -245 91 -569 189 -720 218 -295 55 -381 229 -113 229 88 0 383 -79 653 -175 401 -142 508 -150 574 -43 56 91 203 114 471 74 341 -52 362 -44 165 58 -124 64 -225 175 -225 246 0 71 -91 192 -202 270 -168 118 -179 161 -66 255 76 63 287 144 469 180 283 57 323 42 269 -99 -42 -108 -13 -166 83 -166 90 0 147 97 147 250 0 215 -45 250 -325 251 -410 2 -775 98 -775 204 0 44 248 132 552 195 l551 115 -26 2714 -27 2714 -650 204 c-735 230 -1400 562 -1594 796 -142 171 -717 211 -988 69 -115 -61 -335 -12 -699 155 -292 134 -749 270 -1016 301 -453 54 -489 42 -531 -180 -44 -232 -45 -233 -58 -13 -14 231 -214 324 -214 100z m1203 -1010 c-110 -113 -240 495 -139 657 51 83 103 6 150 -223 40 -192 35 -387 -11 -434z m807 -37 c-91 -156 -104 -146 -107 80 -2 142 31 293 72 334 120 121 149 -218 35 -414z m1129 267 c-242 -90 -490 -377 -402 -465 36 -36 121 5 189 90 147 185 593 305 816 219 121 -46 143 -148 95 -447 -34 -212 -2 -753 71 -1202 l132 -815 -445 -388 c-405 -353 -430 -400 -274 -521 155 -120 157 -153 19 -349 -83 -120 -123 -264 -88 -320 35 -56 172 58 306 255 280 412 302 548 92 548 -209 0 -187 129 45 274 246 153 317 44 293 -445 -15 -295 -97 -447 -371 -687 -276 -243 -333 -349 -267 -500 80 -180 88 -178 125 33 47 272 377 483 484 310 39 -63 -6 -172 -100 -241 -94 -68 -130 -150 -81 -181 50 -30 85 -422 78 -870 -12 -684 -45 -838 -210 -959 -181 -133 -200 -123 -246 128 -79 428 -255 386 -255 -61 0 -280 -66 -467 -222 -623 l-223 -222 -3 247 -4 247 -197 -237 c-165 -198 -222 -216 -352 -108 -135 112 -113 146 176 268 298 127 313 153 158 267 -129 96 -143 155 -56 242 63 63 80 149 38 191 -43 43 -163 -29 -269 -159 -171 -211 -191 -216 -191 -47 0 104 79 300 175 436 169 238 444 1110 373 1182 -88 89 -228 -111 -286 -408 -80 -413 -488 -1373 -584 -1375 -133 -3 46 645 235 854 137 151 156 235 74 317 -82 82 -59 186 86 394 242 347 361 900 213 992 -66 41 -2 164 169 322 243 225 255 263 101 317 -160 56 -161 73 -16 194 88 73 160 172 160 220 0 156 -187 94 -396 -131 -112 -120 -204 -179 -204 -130 0 49 143 237 318 418 356 367 312 588 -50 248 -496 -466 -511 -97 -18 426 349 370 435 557 256 557 -52 0 -174 -135 -272 -300 -170 -288 -434 -409 -434 -200 0 55 34 100 77 100 74 0 723 1023 723 1141 0 191 -218 -4 -453 -406 -308 -525 -440 -453 -395 215 38 561 35 550 173 551 154 1 393 490 307 629 -39 62 17 81 141 48 113 -29 260 -20 327 22 67 42 215 51 329 21 201 -52 202 -55 10 -126z m-1515 -870 c-61 -643 -100 -695 -112 -150 -7 289 24 525 68 525 44 0 64 -169 44 -375z m2969 -50 c-4 -124 -44 -427 -88 -675 -78 -440 -80 -436 -92 225 -8 392 29 675 87 675 55 0 97 -101 93 -225z m907 -225 c0 -131 -45 -266 -100 -300 -60 -37 -100 84 -100 300 0 216 40 337 100 300 55 -34 100 -169 100 -300z m-3970 -1025 c-81 -519 -130 -535 -130 -42 0 230 42 417 94 417 52 0 68 -167 36 -375z m-864 -552 c-28 -68 -49 12 -47 177 3 165 25 220 50 123 26 -97 24 -232 -3 -300z m4841 123 c106 -56 192 -203 190 -325 -3 -205 -11 -207 -110 -38 -75 129 -176 166 -341 125 -267 -67 -441 120 -234 252 180 114 261 111 495 -14z m-3590 -701 c13 -190 69 -376 124 -414 63 -43 37 -140 -70 -258 -211 -232 -216 -323 -21 -323 83 0 150 -62 150 -138 0 -76 -67 -194 -150 -262 -82 -68 -150 -231 -150 -362 0 -131 -48 -238 -108 -238 -73 0 -85 217 -38 675 93 911 112 1125 130 1467 21 382 104 291 133 -147z m2883 311 c0 -118 -195 -244 -267 -173 -71 72 55 267 173 267 52 0 94 -42 94 -94z m331 -337 c-31 -50 -92 -31 -137 41 -44 72 -56 171 -25 221 31 50 92 31 137 -41 44 -72 56 -171 25 -221z m532 -194 c-33 -124 -61 -281 -62 -350 0 -69 -46 -125 -101 -125 -55 0 -100 158 -100 350 0 256 44 350 162 350 119 0 145 -60 101 -225z m-954 -306 c-130 -130 -148 15 -37 298 70 176 73 176 109 -3 21 -102 -11 -234 -72 -295z m491 -119 c0 -82 -44 -150 -97 -150 -53 0 -71 68 -39 150 31 83 75 150 97 150 21 0 39 -67 39 -150z m-3834 -1075 c-28 -69 -50 -12 -50 125 0 138 22 194 50 125 28 -69 28 -181 0 -250z m3403 -350 c-25 -96 -46 -17 -46 175 0 193 21 271 46 175 25 -96 25 -254 0 -350z m-3419 -1025 c-34 -55 -82 -100 -106 -100 -24 0 -44 45 -44 100 0 55 48 100 106 100 58 0 78 -45 44 -100z m3396 -293 c82 -132 -97 -219 -295 -143 -134 51 -141 81 -34 148 173 111 258 109 329 -5z m-2946 -307 c0 -55 -48 -100 -106 -100 -58 0 -78 45 -44 100 34 55 82 100 106 100 24 0 44 -45 44 -100z m2307 -98 c-388 -92 -345 -256 115 -445 235 -97 375 -197 310 -222 -64 -26 -299 46 -521 159 -221 113 -529 210 -682 214 -156 4 -213 32 -129 63 83 30 218 112 300 182 185 156 500 227 700 158 105 -36 77 -69 -93 -109z m-1867 -559 c353 -141 720 -344 816 -450 205 -226 97 -245 -256 -43 -141 81 -523 144 -875 146 l-625 4 0 300 c0 373 104 378 940 43z m3460 -1043 c0 -55 -67 -100 -150 -100 -82 0 -184 0 -225 0 -41 0 -90 45 -108 100 -19 55 83 100 225 100 142 0 258 -45 258 -100z m-3231 -2677 c94 -150 287 -430 429 -623 746 -1014 1584 -3879 1767 -6040 65 -768 -3 -925 -265 -610 -68 83 -175 151 -237 152 -289 3 -389 210 -465 961 -209 2055 -480 3126 -1108 4379 -278 554 -585 1077 -682 1161 -179 156 -359 934 -254 1103 88 143 621 -173 815 -483z m-87 -2048 c425 -930 551 -1275 489 -1337 -31 -31 -214 1 -407 71 -343 124 -353 143 -413 784 -34 361 -82 758 -108 882 -92 442 158 214 439 -400z m131 -1802 c-119 -119 -450 -14 -369 117 31 50 149 67 263 37 137 -36 173 -87 106 -154z m673 -798 c199 -1047 222 -1275 128 -1275 -53 0 -325 181 -605 402 -479 379 -509 429 -509 861 0 436 12 456 244 397 134 -33 272 -16 306 40 156 253 341 73 436 -425z m-314 -1300 c483 -328 624 -463 626 -600 4 -196 -304 -30 -788 425 -610 572 -537 650 162 175z m-32 -856 c-234 -57 -540 181 -540 420 0 228 7 226 335 -78 207 -192 286 -323 205 -342z m560 -19 c0 -55 -48 -100 -106 -100 -58 0 -78 45 -44 100 34 55 82 100 106 100 24 0 44 -45 44 -100z"/>
<path d="M21425 23450 c-249 -384 -268 -450 -133 -450 89 0 508 608 508 737 0 160 -170 30 -375 -287z"/>
<path d="M22446 22893 c-108 -174 15 -211 152 -45 79 95 86 152 20 152 -58 0 -136 -48 -172 -107z"/>
<path d="M22600 22200 c0 -55 20 -100 44 -100 24 0 72 45 106 100 34 55 14 100 -44 100 -58 0 -106 -45 -106 -100z"/>
<path d="M22600 21600 c-69 -129 -71 -200 -7 -200 55 0 148 90 207 200 69 129 71 200 7 200 -55 0 -148 -90 -207 -200z"/>
<path d="M22642 18754 c-80 -319 9 -580 104 -304 38 110 111 279 162 375 70 130 56 175 -55 175 -82 0 -177 -111 -211 -246z"/>
<path d="M21300 12557 c0 -187 191 -306 306 -191 52 52 7 141 -108 212 -163 102 -198 98 -198 -21z"/>
<path d="M21900 11312 c0 -126 294 -352 365 -281 102 103 -51 369 -212 369 -84 0 -153 -39 -153 -88z"/>
<path d="M22867 9233 c-115 -115 -73 -233 83 -233 83 0 150 68 150 150 0 156 -118 198 -233 83z"/>
<path d="M23000 7906 c0 -196 169 -370 266 -274 78 79 -65 468 -173 468 -51 0 -93 -87 -93 -194z"/>
<path d="M23284 7050 c-36 -55 -41 -314 -12 -575 43 -378 92 -475 241 -475 143 0 187 74 187 312 0 260 -24 293 -144 193 -119 -99 -148 -56 -175 263 -17 210 -60 337 -97 282z"/>
<path d="M21900 24961 c0 -82 612 -123 660 -44 29 46 -108 83 -304 83 -196 0 -356 -17 -356 -39z"/>
<path d="M7407 24715 c-133 -39 -262 -130 -286 -203 -32 -95 16 -114 168 -66 116 37 415 81 663 98 248 16 462 70 475 118 29 110 -693 147 -1020 53z"/>
<path d="M24700 24721 c0 -53 73 -157 162 -231 139 -116 156 -108 125 55 -38 194 -287 347 -287 176z"/>
<path d="M5536 24577 c-42 -67 -86 -753 -98 -1525 -22 -1385 -78 -2550 -206 -4302 -36 -495 -67 -1744 -69 -2775 -2 -1031 -41 -1837 -86 -1792 -101 101 -255 1264 -374 2817 -224 2925 -321 4500 -312 5075 5 344 -30 625 -78 625 -142 0 -204 -892 -122 -1750 43 -440 42 -846 0 -902 -42 -56 -16 -511 59 -1012 75 -501 162 -1333 193 -1848 32 -516 125 -1365 207 -1888 82 -522 149 -1139 149 -1369 1 -450 158 -659 272 -362 42 109 122 -229 199 -847 133 -1051 337 -1722 525 -1722 154 0 128 423 -42 665 -80 115 -195 428 -255 695 -151 671 -128 4114 50 7640 82 1623 166 3344 188 3825 36 821 -22 1040 -200 752z"/>
<path d="M24200 24319 c0 -71 626 -419 753 -419 26 0 47 47 47 105 0 58 -156 170 -347 250 -400 167 -453 175 -453 64z"/>
<path d="M0 23262 c0 -76 70 -195 155 -266 85 -70 130 -190 101 -266 -72 -187 242 -294 353 -120 127 201 117 232 -154 525 -269 290 -455 342 -455 127z"/>
<path d="M100 21800 c0 -195 106 -261 226 -140 81 80 -24 340 -137 340 -49 0 -89 -90 -89 -200z"/>
<path d="M4 20925 c-2 -179 38 -325 90 -325 171 0 190 149 51 401 l-138 249 -3 -325z"/>
<path d="M20855 15308 c-91 -148 196 -304 750 -409 294 -56 627 -186 740 -289 113 -103 430 -306 705 -451 275 -144 688 -408 919 -586 1099 -849 1031 -811 1031 -580 0 114 -45 207 -100 207 -55 0 -100 90 -100 200 0 113 -67 200 -153 200 -85 0 -480 222 -878 494 -948 645 -1831 1106 -2123 1106 -128 0 -347 43 -486 96 -139 53 -277 58 -305 12z"/>
<path d="M44 13171 c-89 -231 41 -892 161 -818 122 75 121 652 -1 844 -80 126 -103 122 -160 -26z"/>
<path d="M889 12325 c-5 -41 -2 -200 8 -353 12 -184 -26 -268 -114 -250 -93 20 -125 -70 -108 -294 20 -264 -5 -310 -141 -258 -140 54 -156 14 -103 -252 56 -277 33 -323 -184 -378 -221 -55 -247 -112 -238 -526 5 -255 126 -756 269 -1114 306 -767 421 -941 542 -820 51 51 -40 365 -216 745 -317 685 -364 875 -216 875 80 0 185 -220 356 -742 45 -137 93 -161 170 -84 110 110 -135 1064 -326 1271 -49 52 -88 131 -88 175 0 144 225 84 357 -95 103 -138 156 -149 254 -52 99 97 92 158 -33 300 -200 226 -195 1027 7 1027 95 0 119 71 78 225 -33 124 -61 326 -62 450 -1 202 -186 333 -212 150z"/>
<path d="M8 12058 c-4 -105 19 -164 52 -131 34 33 37 120 8 192 -32 80 -55 56 -60 -61z"/>
<path d="M2868 10915 c-31 -154 9 -570 88 -923 270 -1197 445 -2139 561 -3017 104 -793 191 -1012 315 -800 25 41 -20 458 -99 925 -79 468 -185 1120 -235 1450 -49 330 -177 981 -282 1447 -106 465 -173 899 -148 964 25 66 3 145 -49 177 -52 32 -120 -68 -151 -223z"/>
<path d="M1469 9025 c-23 -41 68 -502 204 -1025 135 -522 283 -1153 328 -1400 123 -666 332 -1229 474 -1276 174 -57 158 305 -33 754 -87 205 -221 642 -299 972 -77 330 -216 926 -309 1325 -155 667 -254 845 -365 650z"/>
<path d="M28 8675 c95 -572 480 -1475 629 -1475 159 0 196 256 50 345 -51 32 -145 226 -208 431 -155 498 -394 1024 -467 1024 -32 0 -34 -146 -4 -325z"/>
<path d="M5100 8565 c0 -412 184 -965 320 -965 58 0 70 76 29 175 -40 96 -96 389 -124 650 -58 542 -225 646 -225 140z"/>
<path d="M1257 7525 c38 -261 101 -542 142 -625 40 -82 154 -501 253 -929 99 -428 221 -805 273 -836 244 -151 230 194 -41 1015 -163 495 -323 1114 -354 1375 -39 317 -105 475 -200 475 -113 0 -128 -99 -73 -475z"/>
<path d="M1056 6681 c-63 -146 49 -801 328 -1931 41 -165 117 -300 169 -300 181 0 166 385 -39 1041 -113 362 -246 817 -296 1009 -69 269 -107 311 -162 181z"/>
<path d="M22070 4337 c-141 -141 -64 -250 155 -219 124 18 222 77 218 132 -9 122 -276 184 -373 87z"/>
<path d="M10732 2267 c-121 -60 -266 -212 -323 -338 -58 -126 -173 -229 -257 -229 -176 0 -201 -321 -47 -609 117 -220 318 -167 230 61 -36 94 41 182 219 249 150 58 292 87 313 65 22 -22 -2 -226 -53 -453 -55 -244 -56 -437 -3 -470 138 -85 298 437 361 1182 61 724 22 772 -440 542z m118 -467 c-34 -55 -82 -100 -106 -100 -24 0 -44 45 -44 100 0 55 48 100 106 100 58 0 78 -45 44 -100z"/>
<path d="M13375 1928 c-185 -93 -275 -217 -275 -378 0 -312 126 -379 443 -235 186 85 257 193 257 395 0 350 -80 391 -425 218z"/>
<path d="M11596 1446 c-158 -191 -3 -381 268 -329 264 50 313 483 55 483 -107 0 -252 -69 -323 -154z"/>
<path d="M9448 1161 c-147 -353 -131 -561 45 -561 85 0 225 816 152 888 -23 24 -112 -124 -197 -327z"/>
<path d="M23200 691 c0 -137 71 -191 250 -191 319 0 319 117 -1 266 -219 101 -249 92 -249 -75z"/>
<path d="M9000 308 c0 -59 -132 -108 -294 -108 -162 0 -322 -45 -356 -100 -38 -62 135 -100 451 -100 426 0 508 29 481 167 -36 187 -282 310 -282 141z"/>
<path d="M9400 100 c0 -55 45 -100 100 -100 55 0 100 45 100 100 0 55 -45 100 -100 100 -55 0 -100 -45 -100 -100z"/>
</g>
</svg>