<svg xmlns="http://www.w3.org/2000/svg" version="1.0" width="250" height="250" viewBox="0 0 250.000000 250.000000" preserveAspectRatio="xMidYMid meet">
<metadata>
Created by potrace 1.10, written by Peter Selinger 2001-2011
</metadata>
<g transform="translate(0.000000,250.000000) scale(0.010000,-0.010000)" fill="#555555" stroke="none">
<path d="M543 24125 c39 -481 79 -1266 89 -1745 12 -590 62 -912 156 -1000 117 -110 128 -56 77 345 -34 261 -25 475 19 475 44 0 185 -236 314 -525 128 -289 307 -637 398 -775 322 -489 934 -2010 844 -2095 -49 -47 -292 -109 -540 -137 -248 -29 -765 -137 -1150 -241 -580 -157 -706 -229 -733 -415 -32 -220 -25 -221 270 -69 167 87 390 157 496 157 106 0 354 68 552 150 497 208 1325 187 2013 -49 698 -240 810 -327 1060 -816 197 -386 517 -1593 443 -1668 -64 -64 -351 254 -351 389 0 209 -608 1191 -801 1295 -472 252 -1499 9 -2187 -518 -132 -101 -316 -183 -411 -183 -270 0 -1101 -683 -1101 -905 0 -261 86 -242 496 109 191 163 452 296 582 296 299 0 622 171 622 329 0 212 878 671 1282 671 472 0 765 -205 1026 -716 235 -461 208 -535 -162 -442 -200 50 -238 97 -157 194 76 92 72 163 -11 246 -142 142 -742 157 -826 21 -33 -54 -352 -187 -707 -297 -837 -259 -1016 -355 -1478 -793 -467 -442 -667 -805 -667 -1208 0 -356 -25 -347 437 -154 199 83 756 179 1237 212 1320 92 2487 -248 3250 -947 332 -305 456 -232 220 129 -219 335 -810 673 -1672 959 -582 193 -808 217 -1600 165 -507 -33 -1023 -82 -1147 -109 -568 -123 8 751 736 1117 543 273 1470 355 2089 185 1044 -287 2521 -1309 3152 -2181 361 -498 365 -543 51 -621 -136 -34 -295 -152 -354 -261 -126 -236 -327 -256 -497 -52 -200 242 -723 282 -1341 102 -452 -131 -697 -288 -1148 -733 -546 -539 -1593 -2091 -2142 -3174 -341 -674 -498 -800 -719 -579 -197 196 -150 785 123 1537 219 605 953 1552 1440 1859 307 194 382 294 333 447 -50 159 -4 208 247 258 352 70 485 211 276 292 -151 58 -1536 -275 -1841 -442 -99 -55 -266 -204 -371 -331 -105 -128 -319 -381 -475 -561 -237 -275 -283 -415 -276 -850 7 -494 14 -506 114 -222 127 359 890 1402 1204 1648 235 183 903 330 809 177 -30 -48 -236 -219 -457 -380 -559 -404 -1214 -1373 -1470 -2173 -192 -600 -212 -859 -186 -2422 l28 -1750 278 739 c304 807 1187 2140 1817 2741 296 283 456 366 621 325 122 -31 251 -8 288 51 36 58 185 153 331 211 393 155 1560 583 1590 583 14 0 25 -207 25 -459 0 -371 -38 -470 -194 -510 -337 -89 -1206 -582 -1651 -938 -527 -421 -1602 -1929 -1875 -2627 -376 -962 -780 -2186 -780 -2360 0 -250 309 -85 365 196 82 410 235 480 235 108 0 -214 -114 -421 -393 -714 -215 -227 -418 -479 -449 -561 -31 -81 -102 -120 -157 -85 -62 38 -101 -101 -101 -355 l0 -417 450 586 c1039 1351 1789 2236 1895 2236 33 0 360 247 727 550 978 807 3150 1872 3445 1689 145 -89 89 -314 -92 -370 -595 -184 -2507 -1093 -2869 -1365 -752 -563 -2597 -2534 -2955 -3156 -575 -1000 -611 -1080 -580 -1293 21 -147 192 66 600 745 508 845 864 1303 1294 1663 74 62 473 462 885 888 910 940 1198 1129 2597 1702 1316 539 1503 559 1503 155 0 -219 -109 -387 -443 -681 -437 -385 -853 -1064 -728 -1189 35 -36 259 151 497 414 239 263 491 459 560 436 90 -30 62 -115 -93 -290 -122 -136 -351 -540 -509 -898 -421 -948 -823 -1699 -909 -1700 -41 0 -75 -79 -75 -175 -1 -96 -83 -310 -183 -475 -100 -165 -208 -401 -240 -525 -48 -187 -18 -225 180 -225 165 0 287 95 398 309 162 314 112 558 -59 288 -51 -81 -94 -118 -94 -83 -3 118 249 634 507 1036 286 446 448 745 843 1550 293 597 522 900 679 900 55 0 31 -79 -53 -175 -187 -212 -507 -830 -457 -880 20 -19 192 173 383 428 398 533 763 750 452 268 -104 -160 -322 -426 -485 -591 -250 -253 -1167 -2001 -1475 -2811 -83 -217 -65 -239 193 -239 248 0 312 66 499 516 236 568 365 616 210 78 -124 -434 -128 -665 -8 -539 49 52 186 433 304 845 118 413 241 829 272 925 32 96 14 175 -39 175 -52 0 -149 -178 -214 -396 -82 -273 -162 -379 -260 -341 -93 35 -225 -109 -392 -430 -139 -265 -254 -452 -256 -414 -12 172 965 1949 1155 2103 117 94 404 488 638 875 234 386 462 703 506 703 114 0 396 -294 396 -413 0 -54 -132 -265 -294 -468 -295 -369 -806 -1746 -806 -2170 0 -123 -67 -281 -150 -349 -190 -158 -201 -700 -14 -700 86 0 221 307 363 825 378 1373 501 1708 779 2112 336 488 596 655 956 612 341 -40 454 -133 289 -235 -88 -54 -109 -379 -77 -1169 25 -602 47 -1331 49 -1620 4 -412 39 -525 164 -525 141 0 153 159 106 1338 -46 1165 -29 1382 128 1675 199 371 487 466 411 137 -81 -358 -56 -999 41 -1050 53 -28 109 174 126 450 17 275 54 562 82 638 123 335 1373 -194 1508 -638 34 -110 196 -492 360 -850 294 -642 296 -656 138 -1100 -195 -549 -197 -600 -18 -600 87 0 167 154 209 399 37 220 110 426 163 459 110 68 49 296 -269 995 -126 276 -244 636 -262 800 l-32 297 911 19 912 19 20 -1119 c33 -1820 38 -1869 177 -1869 95 0 134 223 146 825 8 454 8 893 -1 975 -9 83 10 386 41 675 56 505 70 525 362 525 249 0 291 -31 233 -175 -133 -334 -263 -2825 -147 -2825 151 0 281 716 272 1500 -13 1015 143 1460 555 1587 1144 354 1316 268 1420 -708 43 -401 90 -796 105 -879 15 -82 60 -454 100 -825 51 -471 115 -675 210 -675 90 0 122 78 91 225 -113 546 -275 2256 -243 2567 40 379 237 521 327 236 32 -100 196 -334 365 -519 224 -245 337 -306 418 -225 80 80 38 167 -157 320 -337 265 -363 537 -42 445 263 -76 675 -500 675 -696 0 -74 131 -246 292 -381 285 -240 1008 -1555 1008 -1833 0 -82 103 -139 250 -139 254 0 346 250 167 455 -45 52 -143 298 -217 545 -179 594 -384 1005 -625 1250 -108 110 -338 435 -511 721 -173 287 -539 892 -814 1345 -275 453 -849 1189 -1275 1636 -890 932 -909 1007 -527 2089 335 950 405 992 663 402 223 -511 760 -1311 1423 -2123 211 -259 537 -785 724 -1170 412 -846 1267 -2118 1882 -2800 248 -275 580 -680 738 -900 158 -220 560 -636 893 -925 561 -486 644 -525 1118 -525 454 0 511 24 511 212 0 178 -25 192 -150 88 -199 -165 -199 37 0 236 153 153 212 764 74 764 -42 0 -136 96 -210 214 -122 196 -116 210 76 160 201 -53 210 -19 210 813 0 1008 -139 1313 -599 1313 -438 0 -620 -247 -583 -789 25 -357 -2 -461 -118 -461 -110 0 -158 138 -180 522 -36 618 78 870 490 1083 283 146 326 143 647 -46 l343 -202 0 1896 c0 1886 -1 1896 -197 1700 -108 -108 -381 -313 -606 -455 -460 -291 -520 -648 -125 -744 144 -35 195 -97 146 -177 -131 -209 -805 34 -875 317 -89 352 208 856 504 856 301 0 397 150 369 571 -12 181 24 329 81 329 324 0 -59 589 -387 597 -112 2 -106 -35 25 -180 235 -260 204 -331 -88 -198 -203 93 -321 83 -600 -50 -191 -91 -347 -121 -347 -67 0 54 36 98 81 98 44 0 160 180 257 400 168 380 199 400 618 400 334 0 473 -49 567 -200 69 -110 227 -200 351 -200 201 0 226 50 226 443 0 360 -50 481 -266 652 -147 115 -372 236 -500 268 -129 32 -234 95 -234 139 0 43 225 268 500 498 423 354 500 472 500 765 0 191 -42 321 -93 289 -157 -97 -221 126 -95 329 139 222 61 495 -166 583 -230 88 -364 -93 -375 -506 -6 -198 -48 -360 -94 -360 -148 0 -258 441 -157 634 53 101 66 213 30 249 -86 87 -350 -275 -350 -480 0 -271 290 -588 568 -621 308 -37 445 -282 158 -282 -241 0 -778 479 -870 777 -148 476 22 789 551 1016 382 165 540 189 694 107 190 -102 199 -75 199 578 0 636 -25 715 -342 1085 -434 507 -855 678 -2153 874 -1100 166 -1399 328 -1551 838 -85 286 -13 283 806 -25 365 -137 796 -250 958 -250 170 0 268 -42 232 -100 -103 -167 -567 -109 -1195 149 -327 135 -608 231 -625 214 -17 -17 55 -109 160 -204 229 -207 1265 -494 1532 -424 194 51 1054 -194 1223 -348 52 -48 165 -85 250 -83 90 2 40 66 -120 153 -294 160 -348 243 -157 243 65 0 312 -209 550 -464 416 -447 432 -454 432 -200 0 621 -1088 1298 -2278 1418 -235 24 -559 112 -720 195 -160 83 -358 151 -439 151 -81 0 -286 117 -455 259 -316 265 -412 722 -218 1029 109 171 310 60 310 -171 0 -94 112 -335 248 -535 258 -380 554 -518 1352 -632 448 -64 1683 -372 2035 -508 142 -55 177 -31 150 104 -47 236 -832 521 -1828 664 -873 126 -1210 258 -1482 583 -185 221 -238 607 -83 607 50 0 163 27 250 61 118 45 158 -2 158 -186 0 -365 425 -773 820 -787 182 -6 366 -6 410 2 231 39 1445 -244 1595 -372 155 -132 175 -132 175 1 0 184 -538 354 -1509 476 -783 98 -1220 335 -1273 689 -28 192 3 207 300 151 183 -34 462 -192 620 -350 317 -317 442 -357 1287 -413 401 -27 575 -2 575 81 0 77 -245 138 -677 169 -642 45 -1123 222 -1123 412 0 47 405 70 900 51 665 -26 900 -3 900 88 0 141 -208 197 -1050 279 -1834 180 -4297 201 -4718 41 -353 -134 -1948 -93 -1902 49 58 174 1022 217 4445 198 2985 -16 3807 44 2837 208 -317 54 -5412 174 -6712 159 -422 -5 -550 69 -646 376 l-73 233 1885 -28 c1036 -16 1985 6 2109 48 166 57 225 39 225 -69 0 -207 256 -279 570 -159 150 57 502 72 800 35 368 -46 578 -27 684 60 97 81 406 120 849 107 l697 -21 0 299 c0 263 -39 303 -317 331 -175 17 -338 92 -362 166 -43 131 84 117 554 -59 208 -79 140 217 -83 356 -142 88 -246 97 -329 29 -86 -72 -159 -40 -252 109 -123 197 -114 206 154 151 157 -31 364 -87 460 -125 120 -46 175 -19 175 87 0 106 -139 176 -444 221 -244 37 -521 152 -615 256 -203 224 -591 240 -941 40 -353 -202 -575 -183 -705 59 -61 114 -96 217 -78 227 76 43 2256 -119 2508 -186 236 -63 275 -44 275 138 0 122 -64 212 -150 212 -194 0 -194 162 0 236 164 63 207 264 57 264 -51 0 -160 -67 -243 -150 -82 -82 -208 -150 -280 -150 -72 0 33 111 233 247 302 205 363 306 363 600 0 194 -10 353 -23 353 -13 0 -443 -207 -955 -460 -1363 -672 -2002 -876 -2002 -640 0 55 114 100 253 100 139 0 555 155 925 344 369 188 931 462 1247 607 316 145 575 327 575 404 0 146 -254 74 -750 -214 -110 -63 -447 -194 -750 -289 -302 -96 -786 -281 -1075 -412 -399 -181 -525 -205 -525 -100 0 124 1112 659 2535 1219 450 177 663 376 537 502 -29 29 -280 -63 -559 -204 -278 -141 -564 -258 -635 -260 -70 -2 -353 -117 -628 -256 -572 -288 -1352 -553 -1346 -456 5 72 950 529 1496 724 193 68 413 173 490 233 76 59 256 161 400 225 l260 117 -263 8 c-144 4 -424 -59 -622 -142 -451 -188 -521 -188 -365 0 106 128 81 150 -168 150 -160 0 -352 -56 -424 -125 -106 -100 -142 -100 -179 0 -78 214 -391 137 -511 -125 -62 -137 -160 -250 -216 -250 -56 0 -102 113 -102 250 0 156 -57 250 -151 250 -120 0 -138 -81 -89 -387 41 -258 9 -501 -96 -725 -275 -591 -361 -1202 -265 -1881 110 -779 200 -889 603 -737 263 99 317 87 448 -101 83 -117 149 -282 147 -366 -7 -345 -497 -698 -497 -359 0 201 -195 301 -329 167 -61 -61 -216 -111 -343 -111 -396 0 -465 374 -357 1950 124 1811 76 2550 -168 2550 -214 0 -302 -360 -304 -1237 -2 -807 -81 -1103 -254 -959 -97 81 -122 379 -96 1153 32 956 20 1043 -147 1043 -112 0 -222 -114 -285 -294 -109 -313 -606 -625 -1198 -753 -233 -50 -321 -120 -298 -237 17 -91 99 -166 180 -166 266 0 504 -205 583 -501 57 -213 162 -311 397 -372 232 -60 322 -143 330 -305 37 -732 -151 -1188 -245 -596 -83 512 -267 665 -708 582 -313 -59 -372 -29 -667 339 -382 474 -531 514 -444 118 54 -245 -11 -365 -460 -850 -346 -375 -600 -565 -754 -565 -340 0 -285 165 79 237 274 55 305 95 260 330 -60 315 279 1033 488 1033 174 0 184 162 15 226 -69 27 -417 8 -773 -41 -357 -49 -695 -71 -752 -49 -57 22 -390 -19 -740 -91 -706 -146 -1358 -638 -1258 -950 44 -139 -24 -164 -425 -155 -262 5 -679 -26 -927 -69 l-450 -80 350 306 c193 168 466 369 607 448 275 151 640 914 484 1011 -51 31 -119 -13 -152 -99 -42 -108 -108 -128 -217 -67 -99 55 -313 29 -585 -71 -400 -148 -440 -147 -627 22 -109 99 -226 306 -260 461 -34 155 -150 382 -256 505 -107 123 -194 329 -194 458 0 170 -57 235 -205 235 -183 0 -198 -44 -146 -425 33 -234 80 -717 106 -1075 l47 -650 -207 650 c-114 358 -257 841 -318 1075 -96 368 -147 425 -381 425 l-270 0 124 -525 c67 -289 237 -885 376 -1325 140 -440 286 -1056 325 -1368 l70 -569 -385 -69 c-212 -39 -440 -113 -506 -165 -67 -53 -281 -178 -477 -277 l-356 -182 -262 565 c-169 363 -291 851 -343 1365 -43 440 -82 805 -86 811 -3 6 -138 178 -300 381 -214 269 -292 474 -288 754 3 212 -25 435 -62 495 -112 180 -274 123 -211 -75 32 -101 74 -391 93 -644 24 -319 117 -558 303 -779 230 -274 266 -401 248 -885 -17 -462 45 -710 336 -1352 353 -779 379 -995 132 -1089 -207 -80 -1018 2182 -1457 4066 -180 772 -252 948 -349 851 -89 -88 545 -2386 1111 -4032 l343 -997 -227 -175 c-313 -241 -378 -224 -378 95 0 151 -162 590 -359 975 -287 559 -364 831 -384 1350 -13 358 -58 740 -99 850 -41 110 -109 290 -151 400 -43 110 -137 504 -211 875 -87 444 -180 675 -271 675 -85 0 -119 -68 -87 -175 28 -96 83 -355 122 -575 38 -220 153 -643 255 -941 102 -297 185 -772 185 -1056 0 -383 87 -693 340 -1209 609 -1243 696 -1945 372 -2994 -206 -666 -225 -647 -461 450 -89 413 -228 998 -310 1300 -407 1499 -539 2076 -540 2355 0 168 -135 730 -299 1250 -164 520 -299 1091 -300 1270 -2 258 -43 325 -202 325 -284 0 -259 -259 141 -1441 187 -555 372 -1346 411 -1759 39 -412 173 -1087 297 -1500 317 -1047 1133 -4547 1202 -5150 31 -275 83 -635 115 -800 58 -296 56 -297 -144 -118 -129 116 -277 497 -406 1050 -278 1193 -516 2508 -518 2868 -1 165 -91 496 -200 736 -109 240 -198 592 -198 784 0 773 -1130 5330 -1321 5330 -114 0 -97 -440 29 -768 60 -155 172 -619 249 -1032 228 -1213 425 -2049 581 -2463 80 -213 167 -657 194 -987 26 -330 120 -802 208 -1050 89 -247 250 -1063 358 -1811 109 -749 226 -1435 261 -1525 100 -263 -95 -190 -433 161 -290 302 -628 1206 -498 1336 29 29 83 -84 120 -253 37 -168 115 -335 174 -371 136 -85 43 438 -279 1559 -134 465 -243 939 -243 1052 0 114 -225 520 -500 902 -419 583 -500 766 -500 1136 0 563 -194 1214 -361 1214 -72 0 -159 -157 -196 -350 -87 -468 -210 -441 -349 75 -63 234 -155 528 -204 655 -50 126 -90 312 -90 412 0 101 -65 237 -144 303 -155 129 -209 346 -307 1230 -35 316 -110 575 -168 575 -192 0 10 -1504 269 -2009 130 -253 305 -725 390 -1049 147 -563 391 -896 575 -783 47 29 85 137 85 241 0 104 40 213 88 242 104 65 212 -415 212 -940 0 -349 59 -465 647 -1259 155 -211 792 -2337 721 -2408 -22 -22 -116 163 -211 410 -94 247 -292 578 -439 736 -147 158 -327 508 -399 778 -72 270 -172 533 -223 584 -133 135 -244 -14 -124 -166 155 -196 247 -677 130 -677 -158 0 -502 382 -502 557 0 86 -129 345 -287 575 -388 566 -813 1422 -814 1640 -1 98 -92 538 -202 978 -110 440 -244 1129 -297 1531 -130 983 -333 1317 -249 409 34 -364 119 -937 188 -1275 70 -338 113 -615 97 -615 -130 0 -337 713 -443 1525 l-128 975 -346 0 -347 0 71 -875z m21147 -1666 c193 -651 195 -698 33 -817 -326 -238 -424 9 -414 1045 9 1022 10 1022 381 -228z m-2340 841 c-34 -55 -104 -100 -156 -100 -52 0 -94 45 -94 100 0 55 70 100 156 100 86 0 128 -45 94 -100z m5550 52 c0 -82 -932 -520 -1250 -587 -194 -41 -71 57 350 277 612 322 900 420 900 310z m-13840 -325 c-33 -33 -56 26 -52 131 5 117 28 141 60 61 29 -72 26 -159 -8 -192z m140 -427 c0 -55 -48 -100 -106 -100 -58 0 -78 45 -44 100 34 55 82 100 106 100 24 0 44 -45 44 -100z m3256 -53 c-107 -81 -264 -146 -350 -144 -125 3 -117 33 38 150 107 81 264 146 350 144 125 -3 117 -33 -38 -150z m1200 -78 c-107 -65 -377 -287 -600 -491 l-406 -373 300 -7 300 -7 -300 -132 c-269 -118 -341 -108 -699 102 -220 128 -412 271 -427 317 -15 46 134 160 331 254 353 168 358 168 296 -30 -36 -111 -46 -202 -23 -202 95 0 740 347 960 517 132 100 289 180 350 177 62 -3 25 -59 -82 -125z m4415 -527 c-29 -307 -79 -583 -110 -614 -113 -113 -207 365 -177 897 11 180 72 275 178 275 136 0 153 -89 109 -558z m-4371 108 c-68 -82 -169 -150 -224 -150 -56 0 -45 66 24 150 68 83 169 150 224 150 56 0 45 -66 -24 -150z m-4400 -200 c0 -137 11 -280 25 -317 14 -36 -31 -85 -99 -108 -183 -61 -372 484 -205 590 214 136 279 97 279 -165z m7400 150 c0 -55 -45 -100 -100 -100 -55 0 -100 45 -100 100 0 55 45 100 100 100 55 0 100 -45 100 -100z m-1194 -307 c-408 -296 -605 -335 -454 -90 71 115 613 385 788 393 50 2 -101 -134 -334 -303z m6197 -168 c53 -151 142 -354 198 -450 76 -132 66 -175 -43 -175 -80 0 -242 -138 -362 -306 -120 -168 -242 -282 -271 -252 -29 29 4 122 74 206 121 147 103 479 -57 1027 -103 356 333 308 461 -50z m-5853 -25 c-34 -55 -82 -100 -106 -100 -24 0 -44 45 -44 100 0 55 48 100 106 100 58 0 78 -45 44 -100z m5157 -367 c55 -147 88 -335 72 -418 -36 -184 -578 -354 -580 -181 -1 64 -29 285 -63 491 -59 355 -48 375 203 375 196 0 293 -70 368 -267z m-3795 -80 c594 -120 655 -152 773 -410 63 -139 115 -262 115 -273 0 -11 -706 -6 -1568 10 l-1569 30 -400 361 -399 361 443 -56 c244 -31 646 -23 893 16 502 80 1201 65 1712 -39z m-6462 -853 c-34 -55 -107 -100 -162 -100 -55 0 -72 45 -38 100 34 55 107 100 162 100 55 0 72 -45 38 -100z m-1000 -300 c-34 -55 -82 -100 -106 -100 -24 0 -44 45 -44 100 0 55 48 100 106 100 58 0 78 -45 44 -100z m550 -150 c0 -82 -45 -150 -100 -150 -55 0 -100 68 -100 150 0 83 45 150 100 150 55 0 100 -67 100 -150z m1759 -500 c-113 -173 -139 -365 -94 -695 39 -286 24 -455 -41 -455 -291 0 -290 676 1 1316 172 379 233 445 258 283 18 -116 -38 -318 -124 -449z m597 -405 c-114 -175 -159 -469 -155 -1020 3 -426 -36 -1022 -87 -1325 -94 -563 -467 -1685 -609 -1832 -162 -169 0 880 193 1251 239 458 242 481 69 481 -74 0 -252 -236 -397 -525 -144 -289 -264 -450 -266 -359 -2 92 173 474 390 850 316 549 413 842 491 1484 117 954 134 1028 315 1350 121 214 147 224 179 70 21 -99 -35 -290 -123 -425z m-2090 -72 c-28 -68 -49 12 -47 177 3 165 25 220 50 123 26 -97 24 -232 -3 -300z m-1406 54 c-33 -33 -56 26 -52 131 5 117 28 141 60 61 29 -72 26 -159 -8 -192z m4283 48 c-39 -124 -154 -332 -257 -463 -254 -326 -247 -1068 14 -1462 248 -374 250 -444 12 -382 -204 53 -298 391 -373 1331 -63 786 104 1120 593 1189 45 7 50 -89 11 -213z m-3293 -1417 c0 -682 -27 -1268 -61 -1302 -81 -82 -218 2316 -139 2444 157 254 200 11 200 -1142z m7178 1017 c169 -474 -980 -1221 -1220 -793 -84 150 -109 149 -292 -17 -194 -176 -204 -175 -308 20 -59 111 -108 273 -108 361 0 141 31 143 275 17 151 -78 393 -128 538 -112 311 34 747 301 825 505 68 177 230 188 290 19z m-5812 -200 c149 -275 135 -1310 -23 -1693 -125 -301 -342 -280 -262 25 26 102 15 463 -25 803 -114 968 32 1375 310 865z m5040 72 c-222 -168 -813 -197 -907 -45 -35 56 -112 71 -171 34 -65 -40 -80 -20 -38 49 42 67 327 114 691 112 566 -3 602 -16 425 -150z m1244 -296 c0 -369 -116 -521 -651 -852 -267 -165 -441 -204 -695 -156 -410 77 -543 -79 -298 -349 96 -107 126 -194 65 -194 -201 0 -411 409 -327 637 80 213 121 230 628 251 319 14 978 556 978 806 0 95 29 201 64 237 127 126 236 -49 236 -380z m-10538 -117 c-85 -156 -156 -225 -158 -152 -5 172 198 549 262 485 27 -27 -20 -177 -104 -333z m6382 91 c-34 -151 -77 -330 -98 -397 -20 -67 6 -149 60 -181 53 -33 183 134 288 371 106 238 195 360 199 272 4 -87 -66 -306 -155 -484 -113 -226 -144 -459 -103 -762 39 -279 19 -461 -55 -506 -74 -46 -93 -16 -54 85 33 86 -27 318 -133 516 -186 346 -265 1156 -126 1294 149 150 233 51 177 -208z m-4044 11 c0 -90 -68 -214 -151 -275 -127 -94 -138 -287 -73 -1236 82 -1183 -14 -1572 -124 -500 -102 1003 -93 1605 29 1900 125 302 319 370 319 111z m1314 -411 c57 -432 -17 -841 -143 -799 -255 85 -274 1074 -21 1074 70 0 144 -124 164 -275z m-2960 -391 c-37 -195 -91 -330 -120 -301 -30 29 -20 248 21 485 41 238 95 373 120 302 25 -72 15 -290 -21 -486z m7146 -102 c0 -251 98 -444 387 -759 550 -602 719 -991 761 -1754 20 -368 100 -1083 178 -1588 165 -1076 95 -1352 -450 -1768 -413 -315 -517 -330 -447 -63 29 110 11 226 -40 257 -147 91 -362 -538 -482 -1408 -122 -885 -231 -1292 -516 -1923 -105 -233 -191 -582 -191 -775 0 -629 -361 -318 -607 524 -143 487 -293 559 -293 141 0 -446 571 -1484 1013 -1838 216 -174 527 -533 689 -797 163 -265 342 -481 397 -481 56 0 101 -57 101 -127 0 -70 274 -411 609 -758 335 -347 591 -648 568 -671 -22 -22 -195 4 -384 58 -418 121 -1912 160 -2082 55 -131 -81 -1999 -175 -3161 -159 -385 5 -970 80 -1300 166 -330 86 -735 174 -900 196 -576 75 -1404 254 -1881 406 -430 138 -477 182 -450 419 28 236 75 266 431 274 491 12 901 216 1316 656 174 184 494 479 711 654 255 206 419 434 460 641 80 402 233 590 479 590 592 0 1303 693 1600 1560 187 545 690 1230 957 1301 313 84 893 756 975 1131 38 173 180 387 316 476 350 230 500 582 582 1366 65 622 90 680 274 632 322 -85 680 100 680 350 0 270 -389 865 -613 937 -267 87 -310 605 -85 1024 248 463 247 570 -8 982 -167 270 -184 373 -92 545 109 203 123 205 306 39 117 -106 192 -306 192 -511z m-6440 195 c-101 -102 -185 51 -102 186 63 102 87 102 121 1 23 -70 15 -154 -19 -187z m3290 -127 c-38 -118 -91 -193 -118 -165 -28 27 -20 147 18 265 38 118 91 193 118 165 28 -27 20 -147 -18 -265z m5895 -305 c-267 -296 -1245 -527 -1245 -295 0 55 96 100 214 100 274 0 1084 402 1094 543 4 59 31 48 60 -24 29 -72 -26 -218 -123 -324z m-8051 -987 c10 -874 -106 -508 -144 458 -26 674 -14 789 52 484 48 -220 89 -644 92 -942z m-1103 392 c4 -326 -21 -409 -91 -300 -53 82 -94 375 -91 650 7 639 174 318 182 -350z m5709 138 c0 -141 -44 -223 -100 -188 -55 34 -100 174 -100 312 0 141 44 223 100 188 55 -34 100 -174 100 -312z m-3666 -331 c63 -319 -134 -1024 -303 -1080 -99 -33 -82 722 27 1252 61 295 200 208 276 -172z m6924 306 c-135 -218 -619 -323 -915 -197 l-293 124 500 64 c275 36 559 72 631 80 72 9 107 -23 77 -71z m742 -110 c0 -108 138 -468 306 -799 302 -595 304 -606 129 -903 -193 -325 -290 -372 -369 -176 -38 94 -78 88 -160 -25 -95 -130 -130 -124 -262 50 -269 352 -278 650 -41 1360 226 674 397 887 397 493z m-5395 -185 c-44 -155 -126 -369 -181 -475 -55 -106 -170 -350 -256 -543 l-155 -350 -7 320 c-3 176 49 446 115 600 296 681 643 1003 484 448z m283 -703 c-383 -456 -516 -476 -199 -30 117 163 186 365 154 448 -32 83 -1 256 69 384 l127 233 92 -317 c83 -282 56 -362 -243 -718z m-4988 285 c0 -55 -45 -100 -100 -100 -55 0 -100 45 -100 100 0 55 45 100 100 100 55 0 100 -45 100 -100z m693 -275 c-6 -244 -17 -252 -93 -75 -117 273 -117 350 0 350 55 0 97 -124 93 -275z m5207 -25 c0 -165 -45 -300 -100 -300 -55 0 -100 135 -100 300 0 165 45 300 100 300 55 0 100 -135 100 -300z m-4041 -174 c-109 -110 -184 64 -106 245 74 171 80 171 121 -4 24 -100 17 -209 -15 -241z m3412 -201 c-29 -151 -122 -455 -207 -675 l-155 -400 -5 453 c-2 254 64 550 152 675 208 297 278 280 215 -53z m-6836 -325 l63 -450 -152 344 c-84 190 -128 410 -97 490 79 204 114 130 186 -384z m2818 132 c-70 -171 -79 -170 -151 18 -93 243 -18 406 123 265 56 -56 68 -183 28 -283z m11021 44 c179 -142 343 -825 269 -1118 -34 -137 -220 -369 -412 -516 -312 -238 -346 -308 -312 -658 33 -347 14 -389 -166 -363 -298 43 -303 404 -11 751 326 388 441 716 360 1028 -46 174 -124 241 -259 221 -413 -63 -722 -245 -834 -491 -64 -141 -140 -232 -169 -203 -87 86 75 776 168 718 130 -80 708 249 637 363 -34 55 -148 73 -253 39 -125 -39 -192 -13 -192 76 0 291 861 404 1174 153z m-3151 -235 c479 -525 503 -595 487 -1423 -13 -641 -53 -806 -268 -1087 -254 -333 -442 -426 -442 -219 0 61 140 271 311 465 251 287 300 416 258 678 -73 449 -472 1037 -754 1110 -200 52 -226 106 -175 361 33 164 60 338 60 387 0 182 207 74 523 -272z m-2598 -18 c96 -85 175 -246 175 -357 0 -180 -36 -167 -312 115 -171 175 -351 319 -400 319 -48 0 -88 48 -88 107 0 136 391 21 625 -184z m-7089 -520 c-67 -67 -233 218 -231 397 1 87 60 45 140 -100 76 -137 117 -271 91 -297z m-1444 -353 c1 -176 -16 -170 -142 50 -79 138 -141 363 -138 500 4 244 8 243 142 -50 75 -165 137 -390 138 -500z m5206 525 c-2 -167 -174 -432 -239 -368 -77 78 51 493 153 493 48 0 87 -56 86 -125z m7111 -1164 c-92 -515 -96 -749 -13 -903 118 -222 172 -238 679 -210 179 9 325 -31 325 -90 0 -60 -135 -108 -300 -108 -165 0 -300 -45 -300 -100 0 -175 -201 -108 -461 152 -253 253 -498 247 -400 -9 29 -75 6 -165 -50 -200 -205 -126 -204 55 1 604 116 308 210 739 210 957 0 218 45 396 100 396 55 0 100 99 100 220 0 168 28 192 117 103 88 -88 87 -282 -8 -812z m-5698 460 c-81 -81 -111 -70 -111 42 0 85 33 186 73 227 40 40 90 21 111 -42 21 -64 -12 -166 -73 -227z m989 -690 c0 -148 -49 -299 -109 -336 -60 -37 -86 -152 -59 -256 74 -283 -215 -236 -348 56 -84 184 -82 319 8 535 66 159 91 420 57 580 l-62 290 256 -300 c141 -165 256 -421 257 -569z m-5950 619 c34 -55 -8 -100 -94 -100 -86 0 -156 45 -156 100 0 55 42 100 94 100 52 0 122 -45 156 -100z m9486 -722 c-26 -43 -135 -78 -242 -78 -137 0 -194 69 -194 233 0 129 32 266 71 305 87 86 433 -350 365 -460z m-7936 -53 c0 -269 -100 -516 -350 -868 -192 -271 -350 -591 -350 -712 0 -235 -224 -488 -334 -377 -206 205 -13 798 404 1246 143 153 269 436 301 675 72 539 329 566 329 36z m9446 68 c-86 -139 -146 -113 -146 63 0 86 46 128 102 93 56 -35 75 -105 44 -156z m-9012 -265 c45 -279 -3 -511 -193 -925 -267 -585 -618 -1029 -748 -949 -113 70 73 650 313 975 247 334 481 972 421 1146 -24 69 -1 125 52 125 52 0 122 -167 155 -372z m326 -391 c-67 -648 -251 -1158 -466 -1291 -225 -139 -201 56 63 506 190 325 277 617 283 957 6 270 50 490 99 490 49 1 59 -291 21 -662z m-1360 464 c0 -55 -156 -304 -347 -554 -241 -315 -367 -606 -413 -949 -36 -272 -130 -574 -208 -671 -126 -156 -138 -76 -103 668 l40 845 441 380 c451 389 590 455 590 281z m-800 -39 c0 -21 -79 -99 -175 -175 -159 -124 -162 -121 -38 38 131 167 213 220 213 137z m4325 -554 c367 -576 487 -1127 275 -1258 -58 -36 -100 58 -100 221 0 182 -142 454 -400 767 -220 266 -400 498 -400 515 0 102 132 347 186 345 35 -1 233 -267 439 -590z m-8625 392 c132 -85 129 -134 -25 -406 -96 -171 -175 -385 -175 -477 -1 -92 -87 -308 -191 -480 -162 -265 -280 -328 -783 -417 -325 -57 -762 -200 -970 -317 -209 -117 -401 -191 -427 -165 -60 60 521 911 875 1282 146 152 430 346 631 430 201 84 365 197 365 251 0 133 -471 127 -554 -7 -36 -59 -170 -146 -299 -195 -258 -98 -852 -857 -1330 -1701 -171 -301 -470 -674 -664 -827 -552 -437 -465 -178 375 1111 742 1139 1219 1660 1719 1878 355 155 1237 179 1453 40z m7397 -25 c-2 -69 -64 -205 -138 -303 -125 -165 -138 -160 -183 73 -26 138 -24 274 5 303 101 101 319 51 316 -73z m-643 -750 c-38 -151 -116 -320 -175 -375 -74 -70 -87 -25 -44 150 34 138 63 306 64 375 0 69 51 125 112 125 71 0 86 -100 43 -275z m-5094 -632 c-163 -528 -206 -822 -145 -996 81 -235 78 -237 -65 -53 -178 230 -189 558 -40 1106 98 357 374 799 452 722 16 -17 -75 -367 -202 -779z m1312 595 c170 -170 52 -358 -427 -681 -238 -161 -409 -231 -381 -156 29 76 162 209 296 296 187 123 228 215 180 406 -67 267 123 344 332 135z m4388 -471 c-143 -143 -149 -126 -59 187 55 190 105 367 113 395 7 28 33 -56 58 -187 26 -136 -22 -305 -112 -395z m-6207 -1742 c45 -178 31 -275 -41 -275 -105 0 -152 169 -137 488 4 76 -56 318 -134 537 -173 490 -178 776 -20 1143 110 256 127 194 191 -668 39 -522 102 -1074 141 -1225z m7134 1990 c86 -103 20 -262 -288 -692 -219 -307 -399 -601 -399 -654 0 -53 -67 -225 -149 -383 -83 -157 -150 -380 -150 -495 -1 -200 -383 -741 -524 -741 -181 0 583 1759 866 1994 86 72 157 263 157 425 0 318 155 681 291 681 47 0 135 -61 196 -135z m6756 -76 c-69 -113 -543 -117 -543 -6 0 149 100 189 351 141 136 -26 222 -87 192 -135z m-8500 -699 c-161 -170 -450 -390 -643 -490 -347 -180 -1200 -1026 -1200 -1190 0 -47 -67 -142 -150 -210 -272 -226 -164 77 158 444 443 504 266 645 -241 192 -445 -398 -706 -802 -829 -1286 l-77 -300 -36 268 c-50 363 189 793 759 1366 374 376 627 526 1186 706 527 170 784 316 991 565 155 185 302 315 328 290 25 -26 -85 -186 -246 -355z m1901 -30 c-66 -261 -527 -711 -626 -611 -29 28 40 153 152 276 113 124 259 330 326 459 151 293 235 224 148 -124z m8797 -106 c160 -336 136 -794 -46 -907 -46 -29 -114 -258 -152 -509 -77 -515 -239 -418 -241 144 -2 273 -34 321 -182 274 -136 -43 -209 25 -302 283 -155 428 -5 811 371 950 380 139 374 141 552 -235z m-14287 -510 c-68 -454 -185 -568 -293 -286 -102 264 -69 486 108 738 211 302 275 145 185 -452z m4138 281 c-311 -520 -392 -598 -392 -375 0 159 454 750 577 750 22 0 -62 -169 -185 -375z m-7786 125 c3 -55 -402 -241 -900 -414 -499 -172 -1017 -386 -1153 -475 -361 -236 -412 -196 -86 68 469 380 782 551 1397 763 617 212 732 221 742 58z m2994 -112 c0 -82 -45 -122 -100 -88 -55 34 -100 129 -100 212 0 82 45 122 100 88 55 -34 100 -129 100 -212z m3800 -533 c0 -52 -124 -154 -275 -227 -190 -92 -275 -209 -275 -380 0 -319 -190 -419 -232 -122 -21 146 73 330 267 525 299 298 515 384 515 204z m-4402 -336 c1 -44 -43 -53 -98 -19 -55 34 -99 138 -98 231 1 146 14 148 98 19 53 -82 98 -186 98 -231z m605 -194 c211 -465 251 -775 101 -775 -83 0 -404 888 -404 1118 0 192 123 53 303 -343z m9688 -25 c3 -55 -38 -32 -91 50 -53 83 -94 218 -91 300 5 158 172 -161 182 -350z m1355 193 c477 -312 586 -1084 204 -1443 -137 -129 -250 -314 -250 -412 0 -245 -153 -315 -301 -137 -86 103 -89 149 -11 149 61 0 112 110 112 243 0 134 45 362 100 507 214 562 -308 866 -758 442 -277 -259 -354 -145 -206 304 77 233 196 368 364 415 393 109 491 100 746 -68z m2263 -198 c327 -169 591 -514 591 -773 0 -169 -17 -172 -222 -28 -302 212 -551 196 -701 -44 -177 -284 -277 -248 -277 100 0 337 -154 402 -248 105 -74 -233 214 -838 357 -750 55 34 163 9 241 -55 84 -70 263 -91 439 -52 235 51 319 23 404 -135 163 -305 140 -465 -45 -311 -224 186 -293 47 -108 -218 201 -287 205 -545 10 -620 -108 -41 -150 10 -150 183 0 443 -177 730 -519 843 -220 73 -444 276 -669 607 -314 460 -330 519 -212 802 199 482 602 608 1109 346z m982 -395 c3 -55 -38 -32 -91 50 -53 83 -94 218 -91 300 5 158 172 -161 182 -350z m-15293 -131 c1 -72 -43 -103 -98 -69 -55 34 -99 160 -98 281 1 178 19 191 98 69 53 -82 98 -209 98 -281z m4902 181 c0 -55 -48 -100 -106 -100 -58 0 -78 45 -44 100 34 55 82 100 106 100 24 0 44 -45 44 -100z m-6959 -310 c-95 -104 -240 -190 -323 -190 -279 0 -1007 -501 -1528 -1051 -471 -498 -932 -1172 -1483 -2167 -246 -444 -406 -566 -340 -257 68 311 413 957 736 1375 149 193 300 445 336 562 63 201 609 813 1178 1319 296 264 1381 732 1510 652 47 -29 9 -138 -86 -243z m8102 -136 c-215 -328 -708 -683 -869 -626 -68 24 46 145 255 270 208 124 451 367 541 539 89 172 180 259 202 194 23 -65 -36 -235 -129 -377z m-1043 65 c0 -130 -790 -516 -851 -417 -31 49 115 180 323 289 420 222 528 248 528 128z m-2102 -94 c0 -41 -45 -142 -98 -225 -78 -121 -97 -107 -98 75 -1 124 43 225 98 225 55 0 99 -34 98 -75z m-4228 -550 c244 -234 509 -548 588 -697 142 -267 137 -277 -253 -475 -218 -112 -462 -203 -541 -203 -324 0 -2247 -1107 -2814 -1620 -110 -99 -459 -385 -775 -636 -678 -536 -745 -419 -257 444 1100 1943 2264 3244 3107 3471 234 63 442 121 463 128 21 7 238 -178 482 -412z m16686 -52 c-32 -33 -109 -10 -169 50 -80 80 -73 151 26 259 120 130 141 123 170 -51 18 -109 6 -225 -27 -258z m-22091 123 c94 -243 -36 -287 -160 -55 -78 145 -79 209 -5 209 58 0 133 -69 165 -154z m6335 -267 c0 -141 -187 8 -314 252 -114 217 -114 218 99 29 118 -105 215 -232 215 -281z m600 315 c0 -58 -45 -78 -100 -44 -55 34 -100 82 -100 106 0 24 45 44 100 44 55 0 100 -48 100 -106z m2866 -421 c-28 -68 -49 12 -47 177 3 165 25 220 50 123 26 -97 24 -232 -3 -300z m925 152 c341 -194 385 -302 157 -390 -240 -92 -748 164 -748 377 0 235 194 239 591 13z m11557 -530 c-38 -120 1 -305 94 -446 87 -133 158 -307 158 -387 0 -80 56 -168 125 -196 136 -56 -286 -460 -484 -464 -254 -5 -337 474 -176 1019 166 564 217 679 298 679 28 0 21 -92 -15 -205z m-14988 -168 c-33 -33 -56 26 -52 131 5 117 28 141 60 61 29 -72 26 -159 -8 -192z m640 13 c0 -81 91 -326 202 -544 234 -459 118 -516 -248 -122 -236 255 -337 709 -190 857 94 94 236 -21 236 -191z m1194 -458 c12 -140 -409 -194 -555 -73 -138 115 -439 614 -439 728 0 74 988 -578 994 -655z m406 -8 c0 -223 -66 -367 -210 -457 -294 -184 -350 -74 -100 195 230 247 268 388 104 388 -58 0 -78 45 -44 100 126 203 250 91 250 -226z m14550 126 c-34 -55 -82 -100 -106 -100 -24 0 -44 45 -44 100 0 55 48 100 106 100 58 0 78 -45 44 -100z m-16056 -1025 c4 -41 -56 -75 -132 -75 -126 0 -462 404 -462 554 0 86 588 -387 594 -479z m1190 -234 c-89 -88 -263 -140 -396 -117 l-238 41 250 111 c138 61 316 114 396 118 123 5 121 -19 -12 -153z m-2184 -741 c0 -55 -48 -100 -106 -100 -58 0 -78 45 -44 100 34 55 82 100 106 100 24 0 44 -45 44 -100z m750 0 c-34 -55 -107 -100 -162 -100 -55 0 -72 45 -38 100 34 55 107 100 162 100 55 0 72 -45 38 -100z m14028 -485 c70 -89 179 -332 242 -541 90 -301 86 -406 -18 -502 -106 -98 -119 -88 -70 53 34 96 34 175 1 175 -34 0 -125 -79 -204 -175 -130 -158 -138 -144 -89 146 62 373 -85 534 -185 203 -67 -219 -71 -218 -170 51 -109 294 -236 354 -319 150 -76 -188 -262 115 -193 316 142 413 719 484 1005 124z m2672 -915 c48 -167 39 -217 -28 -150 -55 55 -132 213 -172 350 -48 167 -39 217 28 150 55 -55 132 -212 172 -350z m-2412 -1055 c34 -89 18 -129 -39 -94 -55 33 -99 103 -99 155 0 144 72 112 138 -61z m1862 -45 c59 -110 69 -200 24 -200 -107 0 -324 215 -324 320 0 155 194 77 300 -120z m-201 -539 c-125 -128 -430 213 -358 402 51 132 92 119 253 -78 109 -133 154 -273 105 -324z m-463 -311 c-61 -159 -236 -208 -236 -67 0 106 109 217 214 217 44 0 54 -67 22 -150z"/>
<path d="M11300 24898 c0 -38 49 -208 108 -378 82 -235 216 -351 555 -480 438 -167 456 -166 867 58 479 261 670 464 670 712 0 153 -123 172 -1100 164 -605 -4 -1100 -39 -1100 -76z m1900 -78 c0 -105 -217 -320 -324 -320 -45 0 -35 90 24 200 106 197 300 275 300 120z"/>
<path d="M14100 24955 c0 -200 274 -559 488 -640 1112 -419 1202 -436 2029 -382 1740 112 2064 209 2484 740 l219 277 -371 32 c-277 23 -433 -26 -610 -193 -132 -123 -239 -187 -239 -142 0 44 79 141 175 214 159 121 150 133 -100 136 -151 2 -275 -41 -275 -94 0 -129 -581 -426 -732 -375 -65 22 40 126 232 231 l350 191 -506 30 c-279 16 -639 -24 -800 -88 -465 -186 -1344 -207 -1679 -39 -281 140 -665 199 -665 102z"/>
<path d="M13900 23300 c0 -110 45 -200 100 -200 55 0 100 90 100 200 0 110 -45 200 -100 200 -55 0 -100 -90 -100 -200z"/>
<path d="M1150 13772 c-110 -67 -402 -167 -650 -222 -363 -81 -457 -147 -484 -339 -28 -198 -2 -226 150 -163 985 408 1136 437 1811 340 370 -53 953 -67 1295 -31 532 56 676 34 988 -150 423 -249 556 -201 281 103 -358 396 -699 509 -1160 385 -448 -121 -1742 -40 -1837 115 -73 118 -151 110 -394 -38z"/>
<path d="M24686 10602 c-201 -169 -214 -213 -86 -298 268 -180 400 -115 400 196 0 355 -9 358 -314 102z"/>
<path d="M2151 8218 c-448 -475 -1283 -2009 -1534 -2818 -60 -192 -223 -715 -363 -1161 -170 -544 -251 -1021 -244 -1450 l10 -639 135 617 c75 340 198 767 275 950 76 183 195 581 264 883 215 942 841 2398 1031 2399 41 1 75 53 75 117 0 249 631 1088 861 1146 310 78 309 238 -3 238 -135 0 -358 -124 -507 -282z"/>
<path d="M17451 7075 c37 -179 131 -375 208 -436 78 -61 141 -162 141 -225 0 -63 49 -114 108 -114 60 0 94 35 75 78 -18 43 -123 291 -233 550 -230 542 -397 624 -299 147z"/>
<path d="M18597 6007 c182 -357 403 -609 403 -459 0 151 -415 852 -504 852 -55 0 -10 -177 101 -393z"/>
<path d="M19255 4730 c138 -313 374 -722 523 -908 150 -186 363 -500 475 -698 198 -350 447 -541 447 -341 0 55 -274 469 -608 920 -334 450 -624 901 -643 1002 -52 272 -243 595 -351 595 -53 0 18 -256 157 -570z"/>
<path d="M4609 2825 c-307 -316 -682 -790 -833 -1053 -151 -263 -354 -507 -450 -542 -97 -35 -288 -175 -426 -310 -137 -135 -474 -398 -749 -583 -466 -315 -480 -337 -221 -337 561 0 1701 954 2256 1888 222 374 586 844 809 1045 428 387 477 467 289 467 -64 0 -368 -259 -675 -575z"/>
<path d="M9085 3025 c-88 -151 -238 -522 -334 -825 -97 -302 -215 -593 -263 -645 -49 -52 -89 -187 -91 -300 -2 -113 -85 -441 -185 -730 -163 -472 -165 -525 -22 -525 117 1 249 302 492 1125 182 619 440 1350 574 1625 285 589 277 550 116 550 -71 0 -200 -124 -287 -275z"/>
<path d="M5280 2875 c-78 -124 -246 -517 -373 -875 -127 -357 -309 -830 -406 -1050 -279 -639 -330 -950 -155 -950 83 0 180 124 216 275 37 151 144 455 239 675 144 335 359 897 756 1975 93 252 -108 216 -277 -50z"/>
<path d="M16743 2967 c-28 -73 -4 -256 53 -406 57 -151 104 -747 104 -1326 0 -797 30 -1041 125 -1009 93 31 117 356 92 1283 -18 683 -54 1320 -81 1416 -58 207 -221 230 -293 42z"/>
<path d="M13124 2030 c110 -429 222 -1061 247 -1405 33 -442 86 -625 184 -625 108 0 126 142 83 675 -29 371 -94 765 -144 875 -49 110 -126 425 -169 699 -54 337 -132 509 -241 530 -144 28 -139 -52 40 -749z"/>
<path d="M3128 1959 c-880 -792 -1349 -1159 -1481 -1159 -77 0 -188 -90 -247 -199 -58 -110 -274 -288 -478 -396 l-372 -196 309 -5 c225 -3 481 135 950 509 856 685 1887 1619 1889 1712 4 159 -207 61 -570 -266z"/>
<path d="M10373 1525 c42 -151 66 -556 53 -900 -19 -497 7 -625 125 -625 119 0 149 152 149 742 0 831 -56 1058 -263 1058 -106 0 -122 -69 -64 -275z"/>
<path d="M22000 800 c0 -55 82 -100 181 -100 111 0 250 -142 355 -362 185 -388 326 -398 230 -17 -32 127 -190 309 -352 405 -339 200 -414 213 -414 74z"/>
<path d="M21461 158 c33 -87 104 -158 158 -158 131 0 49 227 -100 277 -73 24 -96 -21 -58 -119z"/>
</g>
</svg>