<svg xmlns="http://www.w3.org/2000/svg" version="1.0" width="250" height="250" viewBox="0 0 250.000000 250.000000" preserveAspectRatio="xMidYMid meet">
<metadata>
Created by potrace 1.10, written by Peter Selinger 2001-2011
</metadata>
<g transform="translate(0.000000,250.000000) scale(0.010000,-0.010000)" fill="#555555" stroke="none">
<path d="M392 24975 c-5 -14 -33 -4997 -61 -11075 -33 -6755 -90 -11121 -149 -11231 -65 -124 -57 -228 25 -328 88 -106 102 -442 52 -1243 -67 -1049 -61 -1098 127 -1098 262 0 262 4 292 7600 13 3438 44 8759 68 11825 42 5468 39 5575 -152 5575 -107 0 -198 -11 -202 -25z"/>
<path d="M1212 19975 c-6 -2764 -38 -8389 -71 -12500 -55 -6935 -48 -7475 107 -7475 135 0 164 92 151 475 -48 1399 11 9748 69 9691 37 -38 80 -699 96 -1469 15 -771 75 -1659 132 -1974 303 -1680 390 -2842 350 -4655 -24 -1035 -69 -1924 -100 -1975 -32 -51 55 -93 192 -93 222 0 257 52 313 475 114 848 247 1556 304 1613 140 140 203 -260 179 -1136 -22 -781 0 -952 120 -952 98 0 147 108 148 325 3 405 295 1504 645 2425 146 385 308 835 361 1000 52 165 228 458 391 650 l296 350 2 -928 c3 -938 229 -1889 560 -2363 79 -112 143 -345 143 -519 0 -522 117 -940 263 -940 138 0 159 128 178 1075 7 378 -23 470 -147 450 -146 -23 -468 724 -626 1450 -74 340 97 270 223 -91 157 -453 244 -284 109 215 -229 851 -380 1964 -328 2421 44 393 2 568 -251 1055 -401 770 -619 1608 -501 1927 112 302 210 174 424 -552 81 -275 243 -581 358 -680 183 -155 207 -271 183 -863 -17 -426 18 -740 93 -830 75 -91 117 -479 113 -1036 -6 -913 127 -1503 314 -1388 70 44 63 116 -24 220 -90 108 -123 449 -107 1111 18 734 -14 1012 -136 1198 -123 189 -144 380 -92 863 55 515 37 644 -104 761 -350 291 -713 1462 -548 1773 517 980 734 2015 681 3251 -24 557 -11 590 351 899 256 218 439 499 569 876 254 733 362 1548 216 1638 -164 102 -135 454 43 522 85 33 175 39 201 14 112 -113 229 -1580 151 -1890 -168 -663 -213 -1036 -113 -936 152 152 336 1541 273 2067 -31 261 -20 497 25 524 96 60 248 -2100 159 -2245 -34 -54 -10 -99 53 -99 82 0 106 292 81 1000 -19 550 -9 1000 22 1000 30 0 113 -394 184 -875 141 -964 17 -3325 -188 -3572 -63 -77 -82 -294 -45 -526 48 -299 11 -499 -154 -822 -192 -375 -205 -482 -109 -891 59 -255 112 -644 117 -864 26 -1153 118 -2050 210 -2050 67 0 88 320 60 900 -23 495 -17 900 14 900 31 0 114 -92 184 -204 70 -112 174 -175 231 -140 66 41 50 123 -45 229 -82 91 -163 300 -182 465 -18 165 -83 291 -143 280 -190 -35 -366 991 -228 1329 148 363 258 1076 383 2491 108 1221 184 1575 318 1492 50 -31 70 -595 45 -1260 -25 -662 -18 -1176 15 -1142 84 83 111 434 122 1581 6 534 48 994 94 1022 144 89 203 -1156 94 -1971 -101 -762 -55 -1328 102 -1231 43 26 89 464 103 972 13 508 43 956 67 995 83 134 -181 1742 -318 1939 -75 109 -140 154 -143 100 -29 -433 -80 -767 -126 -812 -146 -146 -249 139 -357 987 -66 510 -141 1029 -167 1153 -31 146 0 225 88 225 92 0 141 -149 153 -466 19 -501 155 -753 383 -710 90 16 251 -221 438 -643 272 -613 298 -769 306 -1850 9 -1222 85 -1723 351 -2344 86 -199 136 -447 111 -550 -37 -149 -71 -120 -170 138 -152 399 -355 438 -260 50 237 -974 229 -1737 -42 -3875 l-88 -700 29 723 c37 891 -102 865 -198 -37 -71 -665 72 -1656 276 -1908 130 -160 119 -1066 -15 -1317 -156 -291 -131 -609 101 -1270 142 -406 194 -755 167 -1116 -30 -391 -6 -525 93 -525 197 0 176 1272 -29 1763 -125 298 -147 547 -94 1087 38 385 63 767 55 850 -56 597 23 2131 156 3050 88 605 210 1602 270 2215 106 1068 100 1140 -122 1700 -175 441 -250 890 -305 1820 l-73 1235 363 337 c199 186 457 339 574 340 116 2 325 93 465 203 140 110 295 200 344 200 104 0 729 626 729 730 0 38 -67 70 -150 70 -82 0 -150 73 -150 163 0 127 65 149 300 102 233 -47 300 -24 300 99 0 165 -330 158 -739 -16 -307 -130 -144 172 217 402 173 110 316 234 318 275 7 139 -344 75 -667 -122 -177 -107 -340 -164 -362 -124 -22 39 -184 508 -361 1042 -176 535 -432 1136 -568 1338 -240 352 -243 381 -99 803 87 256 108 438 50 438 -55 0 -147 -137 -206 -305 -101 -291 -115 -297 -295 -135 -111 102 -188 305 -188 500 0 382 -170 549 -220 216 -34 -225 -35 -225 -151 -18 -65 114 -141 451 -169 750 -30 307 -22 416 19 250 112 -459 269 -404 289 103 25 660 236 1839 328 1839 44 0 180 -315 304 -700 124 -385 282 -700 351 -700 74 0 155 -194 196 -464 72 -483 -12 -631 -360 -634 -189 -2 -446 -276 -350 -373 37 -36 120 -12 185 53 178 178 678 150 678 -38 0 -86 156 -367 347 -625 191 -258 480 -649 643 -870 163 -220 513 -753 778 -1184 265 -432 560 -904 656 -1050 208 -318 222 -351 365 -877 164 -605 141 -849 -85 -908 -114 -30 -245 -202 -315 -416 -66 -200 -361 -854 -655 -1454 -294 -599 -534 -1159 -534 -1245 0 -97 -35 -120 -94 -60 -91 93 -181 497 -198 890 -6 139 -39 164 -115 88 -77 -77 -75 -277 7 -695 153 -776 -88 -2459 -504 -3529 -659 -1695 -700 -2529 -203 -4159 442 -1453 581 -2086 866 -3925 60 -386 341 -453 341 -81 0 134 49 274 108 311 60 37 81 177 46 316 -35 137 -7 413 61 614 l125 365 69 -400 c38 -220 47 -626 19 -903 -46 -452 -31 -504 152 -518 266 -20 354 222 154 423 -110 109 -157 346 -157 778 0 354 -48 652 -113 693 -68 44 -26 75 104 75 259 2 368 -263 273 -664 -52 -220 -39 -258 54 -171 66 62 145 294 175 515 47 351 21 423 -203 570 -388 254 -598 161 -756 -337 -157 -496 -250 -418 -343 289 -32 248 -179 855 -327 1350 -150 504 -279 1208 -294 1600 -15 385 -104 891 -198 1125 -113 281 -149 544 -106 772 76 406 245 549 375 317 51 -90 216 -164 367 -164 317 0 515 -161 515 -420 0 -238 -69 -228 -459 70 -180 138 -376 250 -434 250 -229 0 -86 -196 393 -540 314 -226 500 -434 500 -560 0 -110 -16 -200 -35 -200 -108 0 -447 383 -507 575 -77 244 -358 312 -358 87 0 -76 69 -194 152 -264 84 -70 130 -150 101 -178 -28 -28 0 -114 64 -190 124 -150 142 -834 34 -1325 -40 -181 -26 -305 33 -305 55 0 131 293 170 650 51 478 109 650 218 650 126 0 144 -189 114 -1215 -22 -754 2 -1229 64 -1250 61 -21 103 305 108 840 5 481 64 1043 132 1248 68 205 90 428 49 495 -106 172 -141 1082 -41 1082 141 0 532 -740 412 -780 -319 -106 124 -620 535 -620 188 0 187 9 -28 159 -173 121 -200 191 -116 292 85 102 4 286 -345 785 -573 820 -592 1151 -116 2004 427 766 589 1355 570 2073 -13 480 13 570 179 613 146 38 214 175 267 538 89 608 209 936 342 936 152 0 124 -468 -49 -801 -294 -570 -457 -1688 -410 -2812 25 -590 94 -1162 153 -1273 97 -181 404 -1440 443 -1814 8 -86 -71 -154 -185 -160 -356 -18 -403 -44 -244 -138 189 -110 2678 -304 3994 -311 1611 -8 1710 -7 3166 34 1125 32 1470 76 1680 213 172 113 411 162 684 143 413 -31 421 -38 477 -461 32 -236 24 -451 -17 -476 -41 -26 -75 -569 -75 -1209 0 -925 -32 -1195 -157 -1320 -144 -144 -158 -143 -158 14 0 219 -93 218 -261 -4 -167 -220 -173 -472 -18 -721 97 -156 90 -227 -37 -373 -87 -100 -184 -293 -216 -431 -32 -137 -88 -374 -125 -525 -50 -208 -30 -275 86 -275 162 0 371 483 371 859 0 336 181 392 218 68 18 -152 84 -267 148 -255 180 34 238 -244 78 -377 -226 -188 -170 -295 156 -295 l300 0 13 875 c7 481 19 1055 25 1275 9 297 -24 392 -130 369 -122 -26 -122 -6 -2 138 170 205 236 2322 78 2512 -57 69 -65 179 -18 252 133 204 170 2602 86 5529 -47 1634 -48 4834 -2 9973 18 2021 8 3764 -21 3875 -29 111 -115 202 -191 202 -159 0 -162 -64 -166 -3725 -2 -1361 -41 -2475 -88 -2475 -46 0 -84 71 -84 158 0 86 -131 289 -292 449 -285 286 -293 319 -348 1617 -155 3643 -210 3976 -653 3976 -277 0 -278 -3 -277 -675 2 -665 -134 -1331 -330 -1625 -267 -400 -362 713 -113 1332 138 343 154 1050 20 913 -51 -52 -107 -252 -125 -445 -46 -508 -304 -460 -410 75 -64 325 -129 425 -278 425 -236 0 -240 -80 -30 -605 134 -336 143 -478 49 -790 -136 -455 -408 -739 -422 -442 -5 103 -19 300 -31 437 -11 138 -30 509 -41 825 -19 574 -149 754 -269 374 -36 -111 -104 -177 -153 -147 -48 30 -63 120 -32 201 46 120 -67 147 -622 147 l-678 0 235 -250 c283 -301 442 -323 371 -50 -32 123 -3 200 76 200 249 0 388 -288 446 -925 14 -148 193 -71 234 100 30 129 62 100 120 -109 62 -222 35 -329 -124 -487 -243 -244 -377 -183 -455 207 -72 359 -316 614 -588 614 -252 0 -814 -579 -1093 -1125 -255 -501 -188 -1139 164 -1558 l240 -285 -406 -384 c-457 -433 -714 -813 -1406 -2081 -459 -841 -477 -903 -374 -1286 129 -480 71 -681 -196 -681 -109 0 -324 -109 -478 -241 -237 -204 -279 -315 -271 -705 10 -473 240 -922 240 -468 0 125 45 198 100 164 55 -34 100 -194 100 -356 0 -368 315 -972 478 -918 123 41 160 -77 127 -401 -20 -202 221 -234 375 -49 57 69 136 251 174 406 59 233 35 290 -142 336 -116 30 -211 84 -209 119 7 140 497 613 635 613 334 0 271 -782 -108 -1365 -77 -119 -127 -342 -110 -497 36 -339 -238 -443 -513 -194 -159 144 -192 145 -305 9 -70 -84 -166 -153 -214 -153 -137 0 -103 199 62 364 165 165 204 536 57 536 -52 0 -108 -124 -125 -275 -23 -197 -96 -284 -257 -307 -268 -38 -283 92 -79 671 81 228 121 481 89 563 -70 183 -685 200 -829 23 -55 -69 -207 -256 -337 -416 -130 -160 -281 -263 -336 -229 -57 35 -92 432 -82 916 15 665 59 899 200 1055 99 109 131 199 70 199 -60 0 -137 -45 -171 -100 -90 -146 -248 -122 -313 48 -33 87 126 362 391 675 475 558 500 654 861 3269 34 243 106 457 162 475 194 64 -85 -2326 -384 -3292 -81 -261 -115 -475 -76 -475 194 0 649 2327 768 3925 47 643 33 875 -53 875 -65 0 -111 -79 -101 -175 10 -96 13 -308 7 -470 -10 -236 -37 -270 -137 -170 -124 124 -178 903 -166 2402 9 1009 -97 1713 -258 1713 -71 0 -156 -70 -189 -155 -44 -115 -143 -139 -387 -93 -180 34 -453 13 -607 -45 -225 -86 -359 -68 -692 93 -228 110 -557 200 -733 200 -267 0 -340 -53 -447 -325 -70 -179 -301 -694 -512 -1144 -211 -451 -384 -867 -384 -925 0 -202 -191 -104 -445 228 -140 184 -255 407 -255 496 0 215 -212 670 -313 670 -116 0 -287 -353 -287 -593 0 -114 -39 -207 -88 -207 -195 0 -341 329 -610 1375 -91 351 -151 425 -349 425 -222 0 -232 -23 -147 -325 116 -410 658 -1461 888 -1725 208 -237 153 -526 -170 -895 -157 -180 -294 -244 -450 -210 -123 27 -516 113 -874 192 -357 79 -987 198 -1400 264 -972 155 -1000 165 -1000 346 0 170 352 211 450 53 34 -55 104 -100 156 -100 156 0 106 219 -81 358 -156 116 -159 155 -32 361 310 499 436 824 484 1244 l49 437 -525 0 -526 0 64 -319 c79 -398 -118 -1439 -302 -1592 -144 -119 -173 -396 -78 -750 49 -182 155 -220 761 -270 387 -33 718 -74 736 -92 37 -37 58 -682 47 -1435 -6 -425 -55 -554 -297 -786 -448 -429 -524 -283 -496 953 14 599 -1 1115 -32 1147 -131 130 -195 -855 -133 -2042 37 -718 25 -1399 -29 -1576 -52 -171 -71 -517 -43 -769 44 -387 94 -473 323 -553 212 -73 302 -202 409 -580 173 -610 179 -1192 14 -1357 -103 -103 -143 -102 -207 2 -44 71 -144 116 -221 99 -100 -21 -132 52 -111 251 17 162 -67 436 -199 650 -644 1041 -1019 2282 -777 2574 70 84 72 266 6 560 -53 239 -149 863 -214 1385 -64 523 -184 1238 -268 1590 -177 745 -116 1554 163 2160 313 679 323 750 106 750 -108 0 -197 -67 -197 -150 0 -82 -45 -150 -100 -150 -55 0 -100 -72 -100 -159 0 -88 -90 -183 -200 -212 -242 -63 -247 -111 -40 -340 135 -149 143 -254 49 -691 -88 -408 -80 -631 36 -1081 81 -312 192 -1042 247 -1622 54 -581 129 -1133 165 -1227 36 -94 15 -231 -46 -305 -64 -77 -85 -269 -49 -449 51 -256 31 -314 -111 -314 -160 0 -162 -19 -19 -237 191 -291 714 -1652 870 -2263 131 -517 510 -1210 816 -1496 187 -174 196 -228 85 -496 -68 -166 -190 -356 -271 -423 -210 -174 -494 -773 -573 -1210 -37 -206 -111 -375 -163 -375 -143 0 -683 899 -781 1300 -206 840 -416 2083 -415 2462 0 227 -112 757 -250 1178 -176 539 -250 987 -250 1513 0 727 7 747 246 747 145 0 291 -83 354 -200 122 -228 300 -267 300 -65 0 212 -341 465 -626 465 -190 0 -272 60 -303 225 -54 277 -111 -594 -84 -1275 16 -417 0 -468 -96 -311 -82 133 -98 606 -55 1600 33 776 61 1560 62 1742 1 182 41 307 89 277 48 -30 71 -197 50 -373 -20 -175 -3 -284 38 -243 105 105 94 3358 -11 3358 -47 0 -61 63 -32 140 32 83 -24 161 -139 191 -113 29 -193 137 -193 260 0 119 -64 209 -150 209 -82 0 -150 -85 -150 -188 0 -103 68 -349 150 -547 83 -197 150 -610 150 -917 0 -530 -15 -564 -298 -662 -640 -223 -662 -1719 -30 -2073 153 -85 172 -278 165 -1647 l-8 -1551 -323 -482 c-281 -422 -315 -540 -264 -933 33 -247 150 -562 261 -700 567 -701 581 -987 108 -2330 -216 -614 -391 -1469 -429 -2102 -13 -210 -56 -402 -95 -426 -40 -25 -46 3241 -15 7257 51 6502 40 7301 -96 7301 -134 0 -154 -593 -164 -5025z m11402 4518 c138 -74 290 -76 491 -6 160 55 449 75 643 44 288 -47 352 -101 352 -294 0 -214 -43 -237 -448 -237 -246 0 -630 -73 -854 -162 -357 -143 -425 -145 -577 -15 -94 80 -250 175 -346 209 -356 126 -122 568 302 568 130 0 326 -48 437 -107z m-7354 -766 c-33 -33 -56 26 -52 131 5 117 28 141 60 61 29 -72 26 -159 -8 -192z m6893 -135 c189 -173 224 -175 500 -27 163 87 540 164 837 172 488 12 542 -8 558 -206 15 -187 -22 -211 -251 -165 -189 37 -286 6 -329 -106 -42 -109 -187 -160 -457 -160 -217 0 -524 -74 -681 -164 -279 -161 -293 -158 -584 133 -164 164 -365 322 -447 350 -125 44 -119 86 43 268 215 242 475 211 811 -95z m6747 102 c0 -58 -45 -78 -100 -44 -55 34 -100 82 -100 106 0 24 45 44 100 44 55 0 100 -48 100 -106z m2993 -1370 c-152 -541 -54 -664 146 -185 258 618 288 466 115 -589 -71 -432 -559 -1579 -638 -1499 -165 165 -96 720 133 1065 138 209 251 426 251 482 0 198 -287 99 -359 -123 -62 -194 -88 -163 -186 225 -100 394 -91 472 67 630 99 99 258 459 354 800 l174 620 31 -498 c18 -275 -22 -692 -88 -928z m-3132 1001 c157 -207 181 -525 39 -525 -55 0 -100 90 -100 200 0 111 -67 200 -150 200 -156 0 -198 118 -83 233 100 101 149 83 294 -108z m-568 -166 c82 -100 85 -161 9 -208 -63 -39 -83 -200 -48 -385 32 -175 8 -453 -56 -617 l-114 -299 -136 390 c-112 324 -129 663 -58 1185 17 126 279 83 403 -66z m-6615 -244 c22 -66 -67 -115 -214 -115 -268 0 -415 137 -317 296 73 117 478 -20 531 -181z m8222 -79 c0 -133 -71 -270 -158 -303 -119 -46 -128 -80 -35 -137 94 -59 70 -192 -101 -561 -716 -1538 -1100 -2217 -1462 -2586 -224 -227 -620 -724 -880 -1106 -261 -381 -573 -823 -694 -982 -157 -207 -184 -302 -94 -334 69 -24 101 -83 71 -131 -29 -48 -119 -62 -200 -31 -120 46 -148 -62 -150 -579 -3 -532 -24 -609 -129 -471 -69 91 -237 181 -372 200 -333 47 -337 405 -5 483 132 31 275 123 318 204 42 82 242 494 443 918 230 483 670 1128 1182 1732 870 1026 970 1173 1220 1798 89 220 229 541 313 714 176 363 202 657 96 1103 -67 281 -49 322 156 355 352 56 481 -20 481 -286z m1100 179 c0 -101 -69 -323 -154 -493 -129 -259 -252 -739 -498 -1945 -42 -205 -241 -564 -245 -443 -9 249 431 2159 554 2409 80 161 119 374 87 475 -39 123 -7 182 99 182 86 0 157 -83 157 -185z m-7229 -677 c-23 -24 -116 -14 -207 20 -213 82 -209 326 11 571 170 189 176 185 207 -177 17 -205 12 -391 -11 -414z m-589 534 c202 -243 -18 -385 -482 -310 l-434 69 228 184 c266 216 537 238 688 57z m927 -303 c-79 -79 -109 -53 -109 94 0 265 140 405 184 185 19 -93 -14 -218 -75 -279z m-2628 -344 c24 -244 -8 -325 -128 -325 -88 0 -184 79 -213 175 -30 96 -99 257 -153 357 -85 159 -61 178 183 150 235 -27 285 -85 311 -357z m7607 214 c21 -18 -100 -190 -270 -384 -345 -392 -460 -331 -362 192 60 319 90 345 330 288 145 -35 281 -78 302 -96z m1256 -177 c-36 -144 -128 -262 -205 -262 -179 0 -175 52 25 357 196 300 270 261 180 -95z m-17844 -612 c0 -560 -34 -750 -134 -750 -74 0 -186 115 -250 255 -228 500 -86 1245 238 1245 115 0 146 -158 146 -750z m10242 689 c213 -81 204 -153 -133 -1030 -160 -418 -394 -1130 -519 -1584 -125 -454 -255 -825 -290 -825 -34 0 -161 133 -281 296 -225 304 -274 891 -130 1554 51 234 112 293 279 270 273 -38 375 120 181 281 -90 74 -149 295 -149 554 0 368 33 437 225 474 368 71 649 75 817 10z m1680 -164 c248 -384 66 -1662 -358 -2520 -595 -1201 -772 -1626 -831 -1991 -100 -616 -528 -559 -531 71 -3 405 535 2199 901 3005 170 375 284 707 253 737 -70 71 -63 81 -373 -577 -143 -302 -428 -1079 -634 -1725 -206 -646 -402 -1175 -436 -1174 -35 0 -166 180 -291 400 -125 219 -183 399 -128 399 106 0 413 508 515 850 32 110 18 254 -33 320 -97 127 564 2081 742 2191 52 32 252 29 443 -7 300 -56 340 -96 289 -284 -60 -218 -59 -218 100 -20 88 110 139 279 114 375 -64 247 86 218 258 -50z m6774 -825 c66 -550 134 -1112 152 -1250 18 -137 83 -902 145 -1700 62 -797 155 -1965 208 -2594 52 -629 75 -1164 49 -1189 -25 -25 -114 11 -198 81 -121 101 -182 101 -302 2 -130 -108 -150 -60 -150 350 0 410 -20 458 -150 350 -129 -107 -150 -73 -150 238 0 199 -45 362 -100 362 -55 0 -100 -71 -100 -158 0 -86 -135 -292 -300 -457 -298 -298 -395 -585 -198 -585 57 0 146 113 198 250 52 138 141 250 198 250 179 0 110 -259 -148 -559 -137 -160 -250 -326 -250 -368 0 -43 -108 -127 -240 -187 -200 -91 -329 -62 -775 174 -294 156 -699 408 -899 561 -201 154 -412 279 -469 279 -145 0 -228 312 -204 766 22 403 225 734 452 734 74 0 135 81 135 181 0 99 66 268 147 375 81 107 148 269 150 362 3 158 443 582 605 582 41 0 98 -123 127 -274 62 -323 -108 -722 -226 -531 -53 86 -138 42 -289 -150 -270 -343 -279 -535 -14 -295 174 157 200 160 200 22 0 -256 395 -160 616 150 109 153 251 278 316 278 66 0 175 179 244 398 149 480 158 702 26 702 -63 0 -63 90 0 257 117 307 124 443 23 442 -41 0 -184 -291 -318 -646 -134 -355 -297 -666 -363 -692 -114 -43 124 688 386 1189 57 110 132 335 166 499 83 402 377 458 427 82 l38 -281 132 300 c72 165 130 503 129 750 -1 248 35 608 81 800 187 783 312 1218 341 1185 18 -19 86 -485 152 -1035z m-10199 475 c-3 -339 -17 -358 -140 -195 -102 135 -150 148 -189 50 -34 -84 -55 -68 -60 45 -4 96 60 175 142 175 83 0 150 68 150 150 0 83 23 150 50 150 28 0 49 -169 47 -375z m-4314 -711 c-9 -420 -60 -850 -112 -955 -181 -364 -277 84 -208 976 50 656 96 836 201 796 101 -39 132 -252 119 -817z m1249 537 c359 -150 369 -168 344 -628 l-26 -473 -604 -15 -604 -14 -17 606 c-9 333 9 647 40 698 65 104 330 51 867 -174z m10819 -414 c-246 -589 -617 -1149 -1363 -2059 -745 -907 -1016 -1115 -727 -557 108 209 128 333 57 356 -137 46 20 489 274 773 98 110 205 276 237 368 71 200 471 443 471 286 0 -56 -128 -226 -284 -378 -337 -327 -663 -812 -593 -882 27 -27 176 117 331 321 156 203 472 568 704 810 437 455 588 852 435 1139 -75 140 -35 166 256 166 l345 0 -143 -343z m1046 -664 c-113 -998 -426 -1928 -698 -2073 -278 -149 -757 -121 -901 53 -155 187 -46 467 374 960 158 185 374 540 480 787 292 682 684 1304 769 1219 41 -41 30 -467 -24 -946z m-8519 227 c-138 -737 -171 -840 -247 -764 -104 104 -30 1195 91 1340 194 235 261 -12 156 -576z m-2658 244 c47 -403 -66 -559 -157 -218 -88 326 -76 574 26 574 49 0 108 -160 131 -356z m9382 -192 c-70 -83 -200 -151 -289 -149 -126 3 -109 49 76 203 266 221 411 185 213 -54z m4266 -777 c-34 -289 -90 -626 -126 -750 -49 -167 -24 -225 96 -225 212 0 204 -125 -37 -597 -304 -596 -440 -621 -378 -68 29 256 13 465 -35 465 -49 0 -88 179 -88 397 0 331 123 654 467 1228 118 197 156 28 101 -450z m-14475 -47 c239 90 328 66 644 -175 390 -297 489 -538 504 -1222 8 -367 35 -420 191 -371 170 54 173 39 33 -231 -192 -371 -557 -534 -1312 -587 -775 -54 -1348 182 -1355 558 l-5 250 -134 -242 -134 -242 -124 232 c-221 413 -58 1047 372 1446 207 193 428 352 490 353 62 2 170 72 241 157 78 95 163 119 220 62 57 -57 200 -52 369 12z m6367 -1536 c-209 -1112 -643 -1817 -805 -1308 -60 189 221 1048 674 2059 290 647 340 358 131 -751z m-4979 455 c-31 -30 -87 25 -125 124 -54 142 -42 154 56 56 69 -68 99 -149 69 -180z m665 -694 c-75 -464 -328 -914 -444 -789 -43 47 -55 462 -27 921 l52 835 242 -282 c202 -235 231 -347 177 -685z m13212 204 c20 -250 127 -655 239 -900 209 -460 289 -1522 106 -1409 -53 33 -118 -43 -144 -169 -26 -126 -100 -466 -164 -756 -83 -377 -85 -564 -8 -657 78 -95 64 -191 -52 -357 -282 -402 -39 -1653 262 -1352 63 63 49 281 -40 616 -117 445 -117 536 5 637 229 190 272 44 264 -897 -5 -609 -59 -986 -170 -1200 -88 -172 -188 -313 -220 -313 -33 0 -180 137 -326 305 -329 377 -544 318 -668 -183 -147 -590 -636 -547 -640 55 -1 151 -87 260 -253 323 -243 93 -249 116 -188 775 52 556 34 704 -97 814 -89 73 -233 106 -320 73 -112 -43 -149 -11 -126 109 40 206 691 365 1152 280 405 -74 973 157 1142 466 75 135 136 632 147 1183 10 523 53 1036 96 1141 100 243 -131 661 -423 768 -210 76 -218 55 -216 -540 1 -340 -22 -1001 -53 -1469 -30 -468 -60 -932 -65 -1031 -5 -100 -63 -164 -129 -142 -87 30 -109 409 -81 1406 28 1026 5 1405 -94 1524 -87 106 -97 181 -27 226 57 37 172 199 256 360 146 283 154 286 221 75 127 -398 356 -260 356 215 0 405 75 625 178 523 24 -25 60 -249 80 -499z m-4762 -527 c7 -234 -233 -637 -352 -592 -68 26 -199 -128 -300 -350 -179 -397 -179 -398 -378 -198 -200 199 -199 200 59 590 142 214 315 579 384 810 l126 420 229 -280 c126 -154 230 -334 232 -400z m1551 44 c-66 -264 -747 -993 -747 -801 0 62 68 180 150 263 83 82 150 196 150 252 0 56 60 138 133 182 72 44 163 165 202 269 98 267 188 136 112 -165z m-3347 91 c0 -19 -49 -177 -110 -350 -108 -311 -291 -432 -289 -190 4 291 132 575 261 575 76 0 138 -16 138 -35z m643 -672 c-377 -394 -429 -292 -82 162 155 203 299 315 321 249 22 -66 -85 -251 -239 -411z m-11512 76 c-31 -50 -92 -31 -137 41 -44 72 -56 171 -25 221 31 50 92 31 137 -41 44 -72 56 -171 25 -221z m608 89 c-31 -83 36 -191 159 -257 136 -73 203 -191 183 -325 -48 -326 -253 -320 -425 13 -197 380 -201 711 -9 711 86 0 124 -59 92 -142z m4016 33 c37 -60 17 -159 -44 -220 -140 -140 -141 -574 -2 -771 83 -117 97 -89 62 127 -45 283 97 493 172 254 89 -285 144 -2077 64 -2126 -142 -88 -296 183 -412 727 -62 285 -153 518 -203 518 -146 0 -107 -649 57 -964 83 -157 150 -342 150 -411 1 -192 -378 -148 -430 50 -25 96 -51 29 -57 -150 -13 -364 -152 -423 -308 -132 -168 314 -120 804 112 1129 198 279 265 483 436 1328 33 165 81 401 106 525 49 240 187 294 297 116z m-1003 -196 c36 -113 8 -273 -62 -357 -111 -133 -145 -118 -268 118 -119 226 -120 284 -7 355 204 130 265 108 337 -116z m-6214 -945 c186 -661 265 -1350 154 -1350 -93 0 -121 99 -292 1050 -59 330 -130 713 -157 850 -83 423 136 14 295 -550z m5695 607 c62 -162 -79 -301 -408 -402 -247 -75 -393 124 -289 395 74 192 624 198 697 7z m-1190 -124 c73 -192 -96 -329 -410 -331 -225 -2 -336 159 -258 373 69 188 592 155 668 -42z m-4909 -658 c252 -1185 295 -1575 175 -1575 -60 0 -109 47 -109 104 0 57 -157 338 -350 624 -195 289 -350 645 -350 802 0 263 269 760 415 767 36 2 134 -323 219 -722z m6908 450 c-73 -329 -422 -1125 -493 -1125 -28 0 -44 214 -37 475 10 323 80 547 219 700 273 302 386 284 311 -50z m6010 -310 c-89 -91 -225 -255 -303 -365 -138 -193 -143 -191 -146 69 -2 166 81 328 213 421 273 191 452 96 236 -125z m1346 -340 c2 -322 -251 -380 -347 -79 -84 267 135 687 258 493 48 -77 89 -263 89 -414z m-8144 319 c107 -173 -46 -791 -183 -738 -100 38 -127 300 -79 769 12 112 187 91 262 -31z m-2154 -197 c0 -112 60 -348 133 -525 116 -278 109 -424 -51 -1070 -149 -604 -260 -825 -578 -1150 -508 -520 -636 -861 -507 -1342 66 -245 67 -488 2 -715 -55 -189 -100 -501 -101 -694 -1 -193 -99 -553 -218 -801 l-216 -450 -77 650 c-135 1133 -8 1943 442 2822 220 428 434 778 475 778 109 0 323 587 366 1000 20 193 44 654 54 1025 12 477 55 675 147 675 71 0 129 -91 129 -203z m1260 -370 c-101 -102 -185 51 -102 186 63 102 87 102 121 1 23 -70 15 -154 -19 -187z m9331 -88 c-147 -177 -218 -125 -133 96 35 90 105 138 157 106 57 -35 47 -117 -24 -202z m6359 161 c-34 -55 -82 -100 -106 -100 -24 0 -44 45 -44 100 0 55 48 100 106 100 58 0 78 -45 44 -100z m-12584 -325 c-28 -69 -50 -12 -50 125 0 138 22 194 50 125 28 -69 28 -181 0 -250z m4879 -84 c-32 -52 -101 -68 -154 -36 -52 32 -68 101 -36 154 32 52 101 68 154 36 52 -32 68 -101 36 -154z m7701 -116 c-25 -729 -47 -834 -142 -671 -96 164 -23 996 87 996 36 0 61 -146 55 -325z m-11946 25 c0 -55 -45 -100 -100 -100 -55 0 -100 45 -100 100 0 55 45 100 100 100 55 0 100 -45 100 -100z m5895 -825 c3 -175 -47 -275 -139 -275 -229 0 -282 180 -203 682 l74 468 132 -300 c73 -165 134 -424 136 -575z m-1513 492 c21 -109 -34 -167 -158 -167 -263 0 -344 105 -208 269 141 171 323 120 366 -102z m6618 -123 c0 -86 -46 -128 -102 -93 -56 35 -75 105 -44 156 86 139 146 113 146 -63z m-1800 -132 c0 -192 -264 -481 -356 -389 -71 70 168 577 272 577 46 0 84 -84 84 -188z m-2546 -325 c255 -172 669 -417 921 -545 314 -158 467 -303 489 -461 146 -1066 195 -1230 377 -1265 175 -34 184 12 121 625 -67 651 -63 663 199 763 407 155 398 186 439 -1502 15 -592 -7 -669 -258 -884 -203 -175 -241 -257 -146 -315 101 -63 103 -153 8 -442 -66 -200 -163 -336 -216 -304 -53 33 -69 146 -35 251 65 205 -95 267 -210 81 -48 -77 -92 -71 -150 22 -129 210 -292 -337 -225 -754 56 -345 232 -506 232 -213 0 213 169 280 398 157 247 -132 286 -747 52 -837 -82 -32 -150 -150 -150 -263 0 -113 -112 -482 -250 -820 -282 -695 -279 -681 -169 -681 112 0 419 720 488 1147 100 618 302 362 233 -297 -11 -110 -78 -267 -149 -350 -135 -157 -453 -751 -453 -845 0 -30 115 -55 256 -55 145 0 229 -43 194 -100 -34 -55 -17 -100 38 -100 175 0 223 185 100 382 -97 155 -79 273 94 632 167 344 201 550 156 938 -40 341 8 762 152 1337 248 990 256 1129 50 861 -146 -190 -150 -185 -84 100 89 384 178 478 408 430 144 -29 181 -116 163 -384 -27 -406 -324 -1504 -444 -1641 -126 -144 -99 -477 34 -433 138 46 325 549 582 1563 180 708 259 895 338 807 47 -52 -60 -773 -280 -1892 -225 -1144 -235 -1171 -460 -1230 -161 -42 -197 -139 -199 -536 -1 -455 -176 -1146 -329 -1299 -38 -37 -69 -151 -69 -252 0 -116 -73 -183 -197 -183 -169 0 -189 47 -135 316 45 225 30 295 -52 244 -64 -40 -116 -143 -116 -229 0 -271 -405 -536 -793 -519 -701 31 -1207 198 -1207 400 0 103 -41 188 -90 188 -119 0 -563 772 -648 1125 -67 278 -262 385 -262 144 0 -184 471 -1142 582 -1184 50 -19 122 -134 160 -255 59 -190 22 -228 -281 -284 -407 -77 -561 -7 -561 254 0 228 -159 347 -256 190 -38 -62 -13 -147 56 -190 69 -43 95 -128 57 -189 -77 -125 -263 -152 -245 -36 6 41 6 176 0 300 -16 292 -189 292 -230 0 -29 -206 -92 -227 -752 -254 -692 -28 -732 -17 -1017 282 -185 193 -324 469 -367 729 -39 230 -160 711 -270 1068 -157 508 -198 909 -190 1839 11 1135 227 2361 416 2361 108 0 198 -269 198 -593 0 -322 300 -634 565 -589 152 26 182 -28 169 -300 -18 -394 -95 -497 -253 -339 -88 88 -72 165 67 319 166 183 167 202 15 202 -199 0 -415 -421 -329 -644 81 -211 538 -198 647 19 49 96 78 815 65 1598 -23 1380 -18 1419 170 1318 217 -116 311 -315 491 -1041 68 -275 163 -551 211 -614 277 -359 690 -1820 749 -2643 34 -491 103 -893 151 -893 125 0 213 269 131 402 -38 62 -83 458 -100 880 -28 724 -167 1277 -493 1968 -195 413 -535 1342 -613 1675 -60 254 -41 275 239 275 345 0 820 475 607 607 -71 43 -90 175 -49 337 l66 265 311 -311 c376 -376 457 -748 536 -2469 60 -1304 92 -1475 258 -1372 55 34 71 262 36 526 -34 257 -74 917 -91 1467 -16 550 -83 1196 -149 1435 -128 465 -67 901 87 615 154 -287 330 -1514 276 -1918 -30 -224 -31 -468 -2 -544 95 -247 232 -34 232 360 0 218 54 403 124 427 99 33 99 161 1 629 -81 385 -89 622 -25 686 129 129 -269 560 -517 560 -129 0 -183 75 -183 250 0 138 20 250 45 250 25 0 254 -141 509 -313z m-3357 -62 c-5 -268 -238 -516 -454 -484 -106 15 -170 69 -143 119 28 49 85 78 127 64 43 -14 120 87 173 225 109 287 302 337 297 76z m-11399 -1825 c336 -1376 804 -2600 996 -2600 58 0 106 -90 106 -200 0 -153 -67 -200 -282 -200 -155 0 -515 -69 -800 -154 -431 -128 -588 -133 -932 -30 l-414 124 55 1311 c36 861 109 1442 214 1693 87 209 159 461 159 560 0 99 93 397 207 663 256 597 265 581 691 -1167z m9801 1475 c-2 -259 -204 -1930 -249 -2053 -36 -100 -104 -91 -301 38 -335 220 -446 100 -138 -149 223 -180 239 -260 239 -1177 0 -1438 -324 -2122 -1127 -2377 -182 -57 -223 -32 -223 136 0 116 -65 207 -148 207 -113 0 -127 53 -59 225 49 124 140 595 203 1048 108 784 500 1915 895 2584 100 170 237 474 303 676 67 202 157 367 201 367 44 0 107 135 140 300 58 290 266 428 264 175z m-9706 -400 c4 -41 -38 -75 -93 -75 -55 0 -97 124 -93 275 6 244 17 252 93 75 47 -110 89 -234 93 -275z m16707 175 c0 -82 -65 -150 -144 -150 -167 0 -280 143 -187 236 120 120 331 65 331 -86z m-6649 -352 c34 -55 7 -350 -61 -654 -145 -648 -355 -881 -257 -285 36 215 65 537 66 716 1 317 126 428 252 223z m749 -453 c0 -73 -38 -157 -85 -186 -100 -61 -317 371 -312 621 3 139 40 127 200 -66 108 -130 197 -296 197 -369z m600 -856 c0 -1002 -15 -1089 -189 -1089 -256 0 -311 187 -311 1052 0 857 121 1272 347 1185 124 -47 153 -262 153 -1148z m-10400 -1185 c0 -167 -40 -304 -89 -304 -124 0 -396 711 -468 1223 l-60 427 308 -521 c170 -287 309 -659 309 -825z m18040 937 c83 -217 -40 -402 -151 -227 -113 178 -112 386 0 386 49 0 117 -72 151 -159z m-1403 -166 c94 -350 75 -410 -87 -275 -162 134 -207 500 -62 500 49 0 116 -101 149 -225z m2297 -450 c89 -327 77 -1525 -15 -1525 -51 0 -172 214 -269 475 -98 261 -223 533 -279 603 -72 91 -34 198 132 375 275 293 367 308 431 72z m-1084 -126 c35 -55 -27 -471 -136 -925 -109 -453 -228 -1004 -264 -1224 -36 -220 -242 -921 -458 -1557 -216 -636 -392 -1256 -392 -1378 0 -249 -259 -396 -417 -238 -72 72 -39 140 109 219 118 63 192 149 166 191 -71 115 182 1115 376 1486 174 332 208 489 357 1653 47 372 129 732 180 800 52 68 104 300 116 515 12 216 45 429 73 475 70 114 215 106 290 -17z m626 -1205 c288 -766 441 -1794 460 -3094 15 -1028 45 -984 -566 -841 -206 49 -338 13 -500 -135 -352 -322 -631 -363 -865 -129 -113 113 -204 261 -202 330 5 191 272 502 376 438 50 -31 177 7 281 85 185 138 184 147 -35 303 -124 88 -224 237 -223 330 2 313 270 945 440 1041 127 70 142 127 60 226 -76 91 -80 266 -14 567 53 239 148 696 212 1016 67 331 163 565 225 544 60 -20 218 -326 351 -681z m-18680 -740 c67 -80 93 -191 58 -247 -82 -133 -1009 -407 -1375 -407 -376 0 -425 -170 -236 -808 207 -696 211 -1923 7 -2092 -210 -174 -192 -329 25 -215 187 98 562 -2 671 -178 265 -430 654 337 654 1290 0 779 114 956 307 477 71 -178 211 -431 311 -562 100 -132 182 -317 182 -412 0 -96 -246 -667 -548 -1269 -301 -602 -641 -1407 -755 -1788 -314 -1047 -280 -982 -444 -846 -381 317 -953 3376 -1098 5877 l-66 1124 431 -52 c236 -28 678 13 980 90 727 187 756 188 896 18z m-396 -2148 c0 -830 -41 -1419 -101 -1457 -194 -119 -483 62 -591 370 -59 171 -109 563 -110 871 -2 308 -42 727 -89 932 -92 397 -25 516 341 606 570 140 550 187 550 -1322z m7100 1000 c0 -52 -45 -122 -100 -156 -55 -34 -100 8 -100 94 0 86 45 156 100 156 55 0 100 -42 100 -94z m900 -156 c0 -137 -45 -250 -100 -250 -112 0 -137 330 -33 433 110 111 133 79 133 -183z m-425 -100 c0 -178 -54 -250 -187 -250 -198 0 -228 81 -127 342 95 249 314 185 314 -92z m-877 -2375 c-1 -182 -20 -196 -98 -75 -125 194 -125 300 0 300 55 0 99 -101 98 -225z m-7998 -2637 c0 -141 -44 -223 -100 -188 -55 34 -100 174 -100 312 0 141 44 223 100 188 55 -34 100 -174 100 -312z m21060 -811 c-33 -33 -56 26 -52 131 5 117 28 141 60 61 29 -72 26 -159 -8 -192z m-239 -427 c-24 -168 -105 -300 -182 -300 -169 0 -170 22 -23 345 157 344 259 322 205 -45z"/>
<path d="M20428 19282 c-39 -183 -55 -377 -36 -432 19 -55 27 -269 17 -475 -9 -206 29 -375 86 -375 56 0 92 -79 79 -175 -13 -96 20 -197 75 -225 133 -68 198 309 67 390 -119 74 -173 1079 -71 1325 38 91 20 195 -39 232 -66 40 -136 -65 -178 -265z"/>
<path d="M19838 17325 c-35 -151 -133 -354 -217 -450 -140 -161 -99 -204 154 -163 41 7 131 198 198 425 150 501 148 463 29 463 -54 0 -128 -124 -164 -275z"/>
<path d="M20049 16873 c-40 -97 -47 -299 -17 -450 34 -168 -22 -436 -147 -697 -111 -234 -181 -481 -155 -550 43 -117 105 -7 226 399 21 69 124 125 230 125 153 0 201 85 232 407 21 225 0 432 -47 461 -47 29 -122 149 -168 267 -75 195 -90 198 -154 38z"/>
<path d="M19300 16500 c0 -55 20 -100 44 -100 24 0 72 45 106 100 34 55 14 100 -44 100 -58 0 -106 -45 -106 -100z"/>
<path d="M19573 16075 c-27 -179 -30 -346 -6 -372 75 -81 230 236 231 472 3 344 -169 268 -225 -100z"/>
<path d="M7458 19736 c-34 -91 -42 -185 -17 -210 79 -80 259 80 259 230 0 196 -164 182 -242 -20z"/>
<path d="M7100 19721 c-158 -54 -296 -216 -298 -352 -1 -44 43 -53 98 -19 55 34 100 14 100 -44 0 -212 198 -99 260 149 74 293 47 337 -160 266z"/>
<path d="M8067 19075 c70 -367 107 -434 193 -349 85 86 -59 674 -165 674 -50 0 -62 -146 -28 -325z"/>
<path d="M6322 18595 c-5 -164 33 -273 85 -241 116 72 122 416 8 487 -47 29 -89 -82 -93 -246z"/>
<path d="M21716 14000 c-494 -116 -527 -189 -443 -957 57 -515 115 -693 227 -693 123 0 144 130 115 712 l-34 712 305 45 c304 45 305 44 252 -362 -36 -270 -6 -471 89 -597 245 -327 352 -117 254 503 -126 809 -107 793 -765 637z"/>
<path d="M18500 13802 c0 -54 113 -126 250 -161 228 -57 250 -110 250 -602 0 -296 42 -539 94 -539 147 0 199 138 240 637 36 430 18 472 -263 612 -347 174 -571 194 -571 53z"/>
<path d="M19131 12075 c-45 -69 -129 -282 -187 -475 -95 -316 -137 -347 -434 -323 -229 18 -315 -12 -284 -100 24 -70 179 -127 345 -127 l302 0 -336 -393 c-186 -216 -337 -430 -337 -475 0 -161 198 -78 343 144 82 124 293 311 469 415 282 167 313 170 258 24 -35 -91 -16 -165 43 -165 58 0 129 90 158 201 29 112 170 229 316 264 371 88 412 122 348 287 -37 98 -135 127 -295 86 -198 -49 -240 -22 -240 158 0 258 -170 604 -298 604 -49 0 -127 -56 -171 -125z"/>
<path d="M19769 11836 c-127 -128 50 -236 387 -236 189 0 344 40 344 89 0 171 -588 290 -731 147z"/>
<path d="M19073 10440 c-40 -41 -73 -142 -73 -227 0 -112 30 -123 111 -42 61 61 94 163 73 227 -21 63 -71 82 -111 42z"/>
<path d="M13933 9725 c118 -1312 114 -1293 591 -2950 59 -206 149 -375 199 -375 50 0 67 79 38 175 -28 96 -105 400 -171 675 -65 275 -153 545 -196 600 -94 123 -294 1520 -294 2057 0 218 -49 393 -109 393 -73 0 -92 -194 -58 -575z"/>
<path d="M18314 9382 c-15 -178 -273 -482 -409 -482 -45 0 -108 100 -140 223 -45 170 -86 196 -175 107 -208 -208 -22 -430 360 -430 385 0 495 135 422 518 -25 131 -51 159 -58 64z"/>
<path d="M19562 8740 c-189 -555 -197 -640 -62 -640 55 0 100 70 100 155 0 85 71 293 159 461 101 197 123 342 62 403 -62 62 -155 -74 -259 -379z"/>
<path d="M19200 8944 c0 -86 45 -128 100 -94 55 34 100 104 100 156 0 52 -45 94 -100 94 -55 0 -100 -70 -100 -156z"/>
<path d="M19109 7261 c-81 -98 -86 -164 -13 -208 58 -36 133 7 167 95 84 220 -8 288 -154 113z"/>
<path d="M19500 6194 c0 -113 45 -178 100 -144 55 34 100 127 100 206 0 79 -45 144 -100 144 -55 0 -100 -93 -100 -206z"/>
<path d="M22522 8980 c-245 -815 -267 -980 -130 -980 51 0 120 146 154 325 34 179 110 513 169 742 190 744 36 674 -193 -87z"/>
<path d="M3450 4100 c-34 -55 31 -100 144 -100 113 0 206 45 206 100 0 55 -65 100 -144 100 -79 0 -172 -45 -206 -100z"/>
<path d="M3058 24777 c-190 -209 -190 -211 0 -128 105 46 295 81 422 77 130 -3 213 44 192 109 -64 196 -413 163 -614 -58z"/>
<path d="M6158 24750 c-41 -165 -116 -430 -166 -590 -113 -355 -113 -360 -5 -360 118 0 343 830 289 1063 -34 143 -62 116 -118 -113z"/>
<path d="M16456 24489 c-290 -978 -742 -2949 -1050 -4589 -171 -907 -402 -1847 -513 -2087 -191 -412 -193 -662 -4 -456 106 114 611 1742 611 1967 0 145 408 1860 874 3676 92 358 172 695 177 750 6 55 38 168 71 250 108 268 278 828 278 915 0 47 -66 85 -146 85 -89 0 -205 -199 -298 -511z"/>
<path d="M24525 24917 c-118 -74 -150 -2973 -73 -6517 49 -2276 53 -3869 23 -10928 -28 -6668 -14 -7475 122 -7449 127 25 157 260 176 1378 13 742 21 1484 18 1649 -8 369 -10 -93 16 4350 12 2063 4 4234 -18 4825 -21 591 -16 1075 11 1075 28 0 41 641 31 1425 -57 4231 -54 9656 5 9752 37 60 23 136 -30 169 -53 33 -72 126 -41 207 62 161 -44 189 -240 64z"/>
<path d="M9408 22158 c-4 -105 19 -164 52 -131 34 33 37 120 8 192 -32 80 -55 56 -60 -61z"/>
<path d="M2700 20150 c0 -266 30 -454 66 -417 76 76 65 769 -13 848 -29 29 -53 -165 -53 -431z"/>
<path d="M14535 16884 c-166 -307 -535 -1185 -535 -1271 0 -21 68 19 150 87 82 68 150 167 150 219 0 51 114 344 254 650 281 613 266 845 -19 315z"/>
<path d="M7476 13184 c-41 -285 -33 -297 89 -130 158 215 169 313 46 389 -49 30 -109 -87 -135 -259z"/>
<path d="M6751 13101 c-100 -111 -136 -201 -79 -201 126 0 375 286 308 353 -26 27 -130 -42 -229 -152z"/>
<path d="M6450 12417 c106 -800 -17 -1553 -306 -1864 -134 -145 -248 -317 -252 -383 -5 -66 -22 -232 -37 -370 -41 -357 131 -1513 246 -1651 135 -163 184 -1539 67 -1887 -73 -219 -58 -353 67 -564 176 -297 213 -555 324 -2223 39 -591 112 -1075 162 -1075 51 0 67 298 37 675 -29 371 -81 1058 -114 1525 -33 468 -128 994 -211 1169 -95 201 -122 405 -74 550 123 370 39 1791 -119 2033 -89 135 -151 539 -166 1076 -22 773 -2 879 196 1065 122 113 254 375 295 582 122 616 91 1609 -54 1749 -108 104 -119 32 -61 -407z"/>
<path d="M7051 12303 c-34 -108 -15 -366 43 -575 157 -566 130 -877 -119 -1350 -183 -348 -224 -586 -222 -1278 2 -467 45 -940 96 -1050 51 -110 101 -492 111 -850 11 -357 73 -1077 139 -1600 66 -522 128 -1467 138 -2100 17 -1021 49 -1215 291 -1728 150 -318 272 -665 272 -771 0 -106 84 -274 188 -372 103 -98 218 -280 256 -404 38 -124 111 -225 163 -225 169 0 89 342 -211 900 -163 303 -296 608 -296 679 0 71 -94 313 -209 539 -190 373 -203 510 -139 1538 68 1079 62 1134 -141 1260 -180 113 -211 229 -211 784 0 358 -44 804 -97 990 -60 210 -63 493 -7 743 54 240 55 473 1 573 -50 92 -120 531 -157 975 -63 752 -49 841 205 1328 228 435 262 597 208 981 -35 253 -71 629 -79 835 -15 406 -123 493 -223 178z"/>
<path d="M8351 9525 c171 -415 243 -904 188 -1288 -32 -230 -15 -440 40 -474 59 -36 117 209 145 613 49 697 -107 1324 -330 1324 -71 0 -88 -68 -43 -175z"/>
<path d="M8342 6375 c-5 -373 -96 -866 -225 -1222 -272 -748 -271 -795 30 -1074 274 -254 315 -537 202 -1394 -56 -428 -36 -640 82 -878 86 -172 231 -649 323 -1060 169 -758 346 -990 346 -452 0 307 -201 1150 -390 1637 -154 393 -137 910 44 1342 146 349 142 382 -73 672 -255 342 -303 1140 -144 2379 70 546 60 675 -50 675 -100 0 -139 -167 -145 -625z"/>
<path d="M13303 4775 c-381 -664 -454 -1509 -151 -1736 177 -133 191 -356 34 -513 -86 -86 -83 -191 12 -421 70 -168 100 -441 67 -606 -67 -336 120 -426 206 -99 29 110 97 200 152 200 55 0 77 -90 48 -200 -37 -140 -3 -201 113 -203 91 -2 476 -24 855 -51 756 -51 961 36 961 410 0 128 45 260 100 294 55 34 100 439 100 900 0 502 44 865 110 906 77 48 99 -110 75 -519 -28 -471 -5 -587 115 -587 221 0 268 1168 55 1380 -101 102 -134 252 -95 443 81 408 -137 546 -936 595 -371 22 -844 106 -1051 186 -207 80 -398 146 -423 146 -25 0 -181 -236 -347 -525z m1447 -297 c275 10 618 -29 761 -87 l262 -104 -124 -594 c-69 -326 -102 -796 -74 -1043 49 -428 31 -468 -387 -850 -241 -220 -475 -400 -521 -400 -45 0 -254 169 -464 375 -209 206 -450 430 -536 498 -125 100 -147 299 -115 1050 22 510 42 1011 44 1115 3 161 49 176 329 105 179 -45 550 -74 825 -65z"/>
<path d="M14154 3707 c-31 -51 -12 -121 44 -156 56 -35 102 7 102 93 0 176 -60 202 -146 63z"/>
<path d="M14800 3706 c0 -52 45 -122 100 -156 55 -34 100 8 100 94 0 86 -45 156 -100 156 -55 0 -100 -42 -100 -94z"/>
<path d="M14460 2416 c-35 -56 -15 -132 45 -169 154 -95 253 35 125 163 -72 72 -128 74 -170 6z"/>
<path d="M22900 5200 c-286 -185 -1231 -414 -1465 -355 -171 43 -235 17 -235 -96 0 -86 -67 -181 -150 -213 -216 -83 -207 -920 10 -1004 88 -33 200 2 249 78 68 109 91 96 100 -60 26 -460 -35 -909 -143 -1041 -89 -109 -85 -152 17 -186 74 -25 218 -243 322 -484 241 -562 507 -602 427 -64 -31 206 -113 421 -182 477 -101 83 -207 964 -247 2073 -2 41 -73 75 -159 75 -88 0 -126 48 -88 110 39 62 192 85 352 53 156 -31 310 -15 342 36 35 58 153 57 306 -1 215 -82 265 -60 363 153 62 137 196 249 297 249 101 0 184 68 184 150 0 173 -87 187 -300 50z"/>
<path d="M19965 4955 c-316 -292 -608 -316 -1306 -104 -493 150 -1606 201 -1901 88 -341 -131 -138 -243 329 -181 430 57 504 38 643 -160 154 -220 175 -222 1185 -116 565 60 1046 91 1067 69 22 -21 -34 -233 -124 -470 -91 -241 -177 -813 -194 -1298 -21 -614 -81 -944 -204 -1131 -136 -208 -148 -296 -55 -408 144 -173 295 -97 295 150 0 100 72 242 161 315 132 110 149 255 93 819 l-67 685 217 -217 c202 -202 229 -206 382 -53 199 199 225 1470 31 1535 -212 70 -131 406 108 440 330 47 274 227 -80 262 -217 21 -385 -44 -580 -225z"/>
<path d="M12128 4032 c28 -1005 222 -1041 222 -41 0 494 -41 755 -122 783 -90 30 -116 -164 -100 -742z"/>
<path d="M22954 4408 c-189 -366 -250 -1220 -91 -1277 71 -25 140 177 185 540 40 318 113 655 162 748 55 103 53 192 -5 228 -53 33 -166 -75 -251 -239z"/>
<path d="M17026 4375 c-151 -191 -239 -1229 -129 -1518 54 -141 170 -257 258 -257 138 0 151 91 91 650 -81 759 79 897 262 225 100 -371 120 -1085 60 -2125 -15 -248 17 -295 182 -270 333 50 390 48 661 -25 402 -107 477 216 118 510 -154 125 -332 229 -396 231 -132 4 -224 361 -245 954 -20 544 -251 1343 -453 1567 -196 216 -276 227 -409 58z m910 -2825 c-31 -82 -75 -150 -97 -150 -21 0 -39 68 -39 150 0 83 44 150 97 150 53 0 71 -67 39 -150z"/>
<path d="M18451 3902 c-40 -66 -29 -164 26 -219 131 -131 234 37 129 207 -62 100 -99 103 -155 12z"/>
<path d="M19258 3913 c-43 -69 -51 -153 -18 -186 89 -90 187 42 139 187 -34 101 -58 101 -121 -1z"/>
<path d="M7861 3742 c-137 -357 -45 -1342 125 -1342 35 0 64 338 64 750 0 725 -63 921 -189 592z"/>
<path d="M22100 2742 c0 -177 215 -146 277 39 22 66 -32 119 -119 119 -87 0 -158 -71 -158 -158z"/>
<path d="M18740 2661 c-65 -170 23 -361 166 -361 126 0 121 372 -7 450 -55 35 -127 -6 -159 -89z"/>
<path d="M7000 1871 c0 -86 68 -224 150 -307 97 -97 150 -344 150 -699 0 -651 68 -865 273 -865 126 0 129 27 23 155 -71 85 -136 417 -145 737 -12 429 -74 655 -234 859 -146 185 -217 225 -217 120z"/>
<path d="M20361 1460 c-88 -187 -161 -407 -161 -488 0 -81 -67 -204 -150 -272 -82 -68 -150 -254 -150 -412 0 -252 37 -288 296 -288 l295 0 30 725 c23 565 62 725 179 725 96 0 161 -117 181 -325 20 -202 -13 -325 -87 -325 -205 0 86 -273 366 -344 194 -48 237 -107 189 -259 -51 -160 -16 -197 188 -197 362 0 447 348 146 599 -131 108 -313 169 -414 138 -159 -48 -173 -11 -116 294 140 748 -480 1085 -792 429z m-115 -1267 c-86 -139 -146 -113 -146 63 0 86 46 128 102 93 56 -35 75 -105 44 -156z"/>
<path d="M16107 1437 c-237 -303 -303 -1188 -82 -1109 69 24 116 166 105 315 -33 454 134 757 418 757 235 0 252 -33 252 -488 0 -405 34 -498 200 -541 110 -29 201 -135 202 -237 2 -158 31 -149 209 66 201 244 205 245 157 25 -52 -238 75 -311 174 -100 46 100 70 100 116 0 32 -69 123 -125 202 -125 105 0 127 75 84 275 -119 539 -105 529 -515 391 -586 -199 -686 -137 -643 399 24 312 -8 487 -100 546 -254 161 -571 90 -779 -174z"/>
<path d="M6463 1288 c-35 -172 -63 -414 -63 -537 0 -308 369 -751 626 -751 199 0 195 17 -70 294 -238 249 -281 373 -271 800 13 561 -125 681 -222 194z"/>
<path d="M22000 1061 c0 -22 68 -66 150 -97 83 -32 150 -14 150 39 0 53 -67 97 -150 97 -82 0 -150 -18 -150 -39z"/>
<path d="M13191 986 c-4 -20 -20 -261 -35 -536 l-27 -500 136 325 c181 433 507 433 810 0 283 -405 297 -165 17 288 -115 185 -291 337 -392 337 -101 0 -255 27 -342 61 -87 33 -162 44 -167 25z"/>
<path d="M18700 715 c0 -47 49 -227 110 -400 146 -421 398 -397 612 58 170 362 152 609 -23 325 -72 -117 -116 -121 -215 -22 -140 140 -484 168 -484 39z"/>
<path d="M12873 540 c-40 -41 -70 -190 -67 -332 l7 -258 96 241 c104 261 83 467 -36 349z"/>
<path d="M15304 307 c-191 -357 -45 -425 293 -137 147 127 167 191 76 249 -188 119 -257 98 -369 -112z"/>
<path d="M13700 150 c0 -82 66 -150 147 -150 89 0 124 59 89 150 -74 194 -236 194 -236 0z"/>
<path d="M22900 106 c0 -58 45 -106 100 -106 55 0 100 20 100 44 0 24 -45 72 -100 106 -55 34 -100 14 -100 -44z"/>
</g>
</svg>