<svg xmlns="http://www.w3.org/2000/svg" version="1.0" width="250" height="250" viewBox="0 0 250.000000 250.000000" preserveAspectRatio="xMidYMid meet">
<metadata>
Created by potrace 1.10, written by Peter Selinger 2001-2011
</metadata>
<g transform="translate(0.000000,250.000000) scale(0.010000,-0.010000)" fill="#555555" stroke="none">
<path d="M11750 23283 c-165 -55 -638 -113 -1052 -129 -529 -20 -949 -108 -1421 -297 -566 -226 -759 -258 -1248 -203 -319 35 -939 16 -1379 -43 -440 -58 -1497 -131 -2350 -162 -852 -31 -2022 -76 -2600 -101 -577 -25 -1196 -46 -1375 -47 -264 -1 -325 -41 -325 -213 0 -196 38 -207 525 -150 732 85 4075 196 4075 135 0 -27 -275 -214 -612 -414 -393 -234 -652 -332 -725 -274 -82 65 -2617 -76 -3238 -181 -14 -2 -25 -86 -25 -186 0 -163 57 -174 525 -107 289 41 705 75 925 75 354 1 373 -10 161 -94 -132 -53 -379 -159 -550 -235 -171 -77 -480 -192 -686 -256 -252 -78 -375 -176 -375 -297 0 -168 40 -165 575 51 1314 530 2221 832 2268 756 28 -45 -60 -186 -196 -314 -175 -164 -247 -338 -247 -594 0 -450 145 -603 570 -603 254 0 330 -42 330 -185 0 -223 302 -515 533 -515 108 0 167 -82 167 -231 0 -517 439 -725 1116 -529 264 76 266 73 325 -556 156 -1652 150 -1816 -103 -2601 -307 -950 -422 -1063 -833 -820 -312 184 -373 323 -217 492 48 52 166 343 263 645 96 303 221 607 276 677 56 70 75 155 42 188 -123 123 -365 -66 -431 -336 -38 -153 -179 -515 -315 -804 -193 -412 -296 -525 -479 -525 -128 0 -260 44 -293 99 -34 54 137 425 378 825 475 784 670 1326 453 1253 -69 -23 -247 -263 -396 -534 -148 -271 -389 -712 -536 -980 l-266 -488 -456 63 c-251 34 -538 62 -639 62 -105 0 -254 135 -347 316 -163 314 -162 317 197 675 439 438 1261 1545 1261 1698 0 298 -304 30 -832 -731 -723 -1043 -985 -1185 -1610 -873 -527 264 -558 265 -558 16 0 -129 114 -247 325 -336 179 -76 519 -347 756 -602 319 -343 504 -463 717 -463 586 0 2085 -489 3153 -1029 1020 -516 1162 -560 1931 -600 456 -23 881 -94 944 -157 63 -63 261 -114 442 -114 180 0 567 -98 861 -218 465 -190 549 -268 656 -610 153 -489 31 -672 -447 -672 -259 0 -338 -42 -338 -180 0 -138 79 -180 342 -180 188 0 501 -86 696 -191 478 -257 589 -101 185 259 -179 161 -282 292 -228 292 54 0 164 124 244 275 137 258 150 263 224 75 43 -110 149 -470 235 -799 111 -425 210 -609 339 -634 153 -30 173 10 120 249 l-62 284 577 -28 c565 -27 592 -16 1228 504 775 634 1255 1382 1353 2105 97 718 152 763 322 260 125 -369 129 -574 24 -1338 -68 -497 -186 -1034 -261 -1193 -76 -160 -138 -348 -138 -419 0 -70 -135 -224 -300 -341 -165 -117 -300 -278 -300 -357 0 -197 136 -179 339 45 93 103 412 263 707 356 489 154 725 351 587 490 -30 29 -160 13 -290 -37 -159 -60 -259 -52 -307 26 -39 63 -23 131 37 151 302 101 1047 679 1193 925 293 497 886 709 1900 682 771 -21 954 9 1434 233 303 142 696 399 874 572 178 173 387 314 463 314 76 0 192 65 258 144 65 79 253 173 417 209 370 81 325 287 -72 327 -215 21 -420 -68 -756 -329 l-460 -359 -623 100 c-342 55 -831 203 -1086 329 -306 151 -645 229 -990 229 -289 0 -525 34 -525 75 0 41 45 75 100 75 55 0 100 68 100 150 0 83 -89 150 -200 150 -133 0 -200 67 -200 200 0 110 45 206 100 213 55 6 156 18 224 25 68 6 139 95 159 197 75 389 -750 -113 -910 -553 -84 -233 -415 56 -515 448 -78 308 -61 387 116 541 295 255 395 1046 162 1279 -158 158 -182 159 -290 11 -158 -216 -246 -203 -246 35 0 187 265 404 492 404 58 0 227 -184 376 -409 236 -357 286 -389 389 -249 69 95 186 135 282 99 90 -35 225 -13 300 50 219 181 461 21 461 -307 0 -349 -234 -837 -464 -966 -279 -156 -56 -331 328 -259 192 36 612 10 933 -58 454 -97 804 -99 1573 -9 815 94 1166 88 2008 -39 562 -84 1244 -153 1517 -153 380 0 545 -51 697 -215 396 -425 367 -1472 -55 -1979 -569 -684 -1239 -1317 -1332 -1259 -59 37 -343 -135 -631 -380 -288 -246 -794 -592 -1124 -770 -330 -177 -802 -448 -1050 -602 -247 -155 -585 -312 -750 -350 -165 -38 -401 -132 -525 -209 -221 -138 -293 -83 -148 114 40 55 399 314 798 576 686 450 799 567 670 695 -56 57 -1285 -724 -2015 -1281 -402 -307 -1116 -522 -1318 -397 -58 35 -19 278 96 606 106 300 192 596 192 657 0 60 158 347 350 637 389 587 412 657 212 657 -225 0 -836 -750 -907 -1114 -136 -691 -582 -1958 -919 -2612 -203 -394 -325 -752 -291 -857 62 -196 -422 -768 -1038 -1227 -559 -415 -195 -413 450 3 915 590 1243 957 1243 1391 1 201 97 524 215 716 195 320 221 333 292 150 95 -241 118 -1370 32 -1592 -33 -87 -161 -158 -283 -158 -373 0 -383 -69 -83 -589 12 -22 91 17 175 87 131 109 152 82 152 -191 0 -268 -54 -340 -350 -463 -193 -81 -350 -218 -350 -306 0 -129 69 -147 350 -95 273 52 350 33 350 -83 0 -245 -400 -847 -607 -912 -216 -69 -255 -211 -75 -271 90 -30 90 -175 0 -625 -131 -651 -148 -1337 -53 -2127 59 -495 79 -525 347 -525 268 0 277 14 168 254 -106 232 -84 280 255 559 203 168 436 464 517 656 80 193 320 560 533 816 464 558 1141 1774 1405 2522 105 299 269 696 365 883 161 314 162 350 12 460 -147 108 -140 141 75 343 131 123 288 422 350 665 61 243 155 442 209 442 183 0 248 20 519 160 149 77 314 218 367 313 92 164 107 164 288 0 105 -95 240 -173 300 -173 71 0 99 -235 79 -672 -31 -718 103 -1069 451 -1179 179 -57 177 -77 -34 -479 -182 -345 -221 -585 -221 -1345 0 -556 -40 -925 -101 -925 -186 0 -356 -405 -542 -1291 -101 -483 -228 -964 -281 -1069 -54 -104 -124 -359 -156 -565 -49 -323 -31 -375 134 -375 129 0 212 91 251 275 32 151 122 455 199 675 78 220 207 715 287 1100 80 385 188 812 238 948 l92 248 175 -339 c122 -235 156 -448 111 -697 -156 -880 -354 -2067 -355 -2135 -3 -128 402 -82 448 50 25 69 104 553 177 1075 119 855 155 953 353 982 322 47 353 -154 177 -1172 -189 -1098 -188 -1010 -12 -1010 146 0 242 261 463 1248 111 495 127 513 466 523 l350 10 -69 -891 c-66 -837 -59 -890 124 -890 158 0 204 94 256 525 35 289 65 728 67 975 3 248 70 537 151 644 81 107 143 377 139 600 -8 398 -11 400 -126 140 -190 -426 -477 -684 -763 -684 -318 0 -703 331 -703 604 0 230 -280 265 -364 46 -109 -283 -326 -149 -581 358 -205 410 -255 654 -255 1257 0 838 64 1004 614 1608 212 232 386 469 386 525 0 160 -195 120 -471 -97 -297 -233 -387 -197 -564 231 -230 554 -99 1062 397 1541 241 233 438 492 438 575 0 94 92 152 243 152 628 0 1244 1516 1105 2720 -59 503 -38 608 176 900 426 581 523 1068 338 1691 -88 296 -194 589 -236 649 -160 232 -546 354 -919 291 -236 -40 -619 1 -1018 107 -771 207 -2065 231 -2710 50 -501 -140 -927 -91 -1004 116 -26 69 159 576 411 1126 391 856 463 1112 496 1782 34 673 12 812 -159 1000 -254 279 -396 557 -626 1228 -169 489 -173 585 -44 1019 174 586 540 943 1190 1158 512 170 1321 215 1525 85 65 -41 110 -164 100 -273 -14 -154 38 -195 232 -182 1243 86 1479 73 1873 -105 481 -217 605 -433 354 -617 -211 -154 -140 -242 325 -402 l348 -119 0 397 c0 871 -558 1273 -1800 1298 -613 12 -779 50 -910 211 -356 436 -2265 297 -2923 -213 -190 -147 -448 -416 -573 -598 -213 -310 -254 -326 -636 -262 -224 37 -535 175 -691 306 -203 170 -363 223 -567 187 -201 -35 -368 17 -567 179 -156 126 -409 283 -563 350 -406 176 -1329 153 -1624 -41 -217 -142 -273 -144 -471 -16 -263 170 -1063 382 -1394 369 -127 -4 -366 -53 -531 -108z m1196 -427 c263 -79 589 -248 724 -375 l246 -231 200 275 c165 226 277 275 627 275 612 0 1066 -174 1380 -528 250 -283 292 -298 518 -177 332 178 539 77 717 -349 301 -721 -150 -1509 -1115 -1949 -225 -102 -732 -436 -1127 -742 -732 -565 -897 -634 -1078 -453 -136 136 -1160 331 -1788 342 -275 5 -555 43 -622 86 -68 43 -224 12 -350 -71 -126 -82 -611 -219 -1078 -303 -1035 -188 -1540 -307 -1690 -400 -272 -168 -404 -759 -343 -1541 l60 -778 -514 -505 c-360 -354 -513 -584 -513 -769 0 -291 -73 -316 -434 -152 -339 154 -466 492 -466 1239 l0 642 441 258 c444 260 611 484 498 668 -35 56 -199 -31 -375 -198 -672 -638 -1131 -453 -1029 413 66 554 257 819 738 1020 180 75 327 207 327 292 0 218 -162 193 -532 -82 -447 -332 -1175 -584 -1577 -546 -279 27 -346 79 -370 283 -26 217 35 274 450 426 499 183 899 437 817 520 -27 26 -377 -63 -778 -199 -401 -136 -794 -247 -873 -247 -205 0 -272 248 -135 503 177 332 0 436 -493 288 -544 -163 -676 -47 -513 448 345 1044 2831 2136 4652 2042 551 -29 615 -57 800 -352 245 -390 709 -572 1162 -454 451 117 536 379 94 291 -482 -97 -804 14 -804 276 0 461 1288 818 2298 637 504 -90 560 -81 687 112 166 248 491 267 1161 65z m5479 -1406 c-37 -148 -451 -121 -503 33 -31 94 39 123 242 100 157 -18 275 -78 261 -133z m100 -775 c90 -69 259 -369 375 -667 116 -298 298 -665 405 -815 354 -497 209 -1655 -235 -1872 -402 -196 -937 -327 -1092 -268 -84 32 -222 236 -307 453 -185 472 -361 497 -893 129 -339 -235 -411 -251 -623 -138 -209 112 -296 97 -688 -122 l-448 -250 -49 312 c-27 172 -80 410 -119 529 -48 149 -13 264 115 374 101 87 391 338 644 558 253 220 658 489 900 597 242 108 700 446 1017 751 605 580 730 634 998 429z m-5725 -2136 c0 -21 -67 -39 -150 -39 -82 0 -150 44 -150 97 0 53 68 71 150 39 83 -31 150 -75 150 -97z m900 -189 c68 -82 178 -150 243 -150 196 0 432 -234 506 -500 l70 -250 -242 252 c-133 139 -430 337 -660 440 -229 104 -417 227 -417 273 0 143 368 95 500 -65z m-1281 -133 c646 -119 869 -245 1781 -1009 754 -631 940 -969 335 -606 -212 126 -428 268 -480 314 -52 46 -154 84 -225 84 -226 0 -141 -171 145 -293 151 -64 410 -229 575 -366 l300 -248 -297 109 c-163 60 -351 155 -417 210 -242 200 -3338 314 -4122 151 -486 -101 -931 -308 -1185 -551 -121 -117 -238 -212 -260 -212 -50 0 27 1805 84 1977 97 292 1520 621 2497 577 385 -18 956 -79 1269 -137z m4881 -921 c0 -173 -30 -187 -202 -95 -111 60 -257 75 -325 34 -80 -47 -75 -14 14 96 195 240 513 219 513 -35z m1700 -494 c0 -145 -314 -918 -475 -1171 -77 -120 -201 -196 -274 -167 -152 58 -411 1009 -305 1116 38 38 257 119 487 181 563 152 567 153 567 41z m-7500 -493 c0 -131 -590 -609 -752 -609 -206 0 -283 193 -104 261 86 33 156 120 156 193 0 117 178 189 575 232 69 8 125 -27 125 -77z m1225 -2 c237 -10 220 -157 -48 -407 -294 -274 -638 -231 -596 75 41 294 -242 304 -335 12 -53 -165 16 -287 311 -550 408 -362 542 -398 860 -228 148 79 235 79 314 0 60 -60 190 -109 289 -109 113 0 180 -74 180 -200 0 -234 126 -259 293 -59 81 98 84 161 10 207 -58 36 -76 115 -38 176 104 168 244 -302 174 -582 -45 -181 -20 -242 100 -242 244 0 210 -464 -39 -529 -156 -41 -200 -137 -201 -437 -4 -860 -465 -1731 -1225 -2312 -583 -445 -1100 -608 -1328 -419 -217 180 -180 266 167 386 263 92 293 133 188 260 -159 192 -155 192 -398 -68 -158 -171 -231 -193 -324 -100 -180 180 11 308 575 383 448 60 640 165 644 352 1 37 -180 97 -402 135 -336 56 -385 92 -286 211 193 232 13 286 -361 108 l-348 -166 -148 354 c-81 195 -241 475 -355 623 -114 148 -289 380 -391 516 -164 219 -203 231 -357 103 -155 -129 -198 -113 -406 147 l-232 291 250 232 c172 159 231 294 189 427 -62 196 92 603 228 603 40 0 134 -139 209 -309 133 -300 153 -308 600 -241 567 85 612 111 612 359 0 109 69 224 154 256 84 33 222 191 305 352 164 317 473 486 791 432 110 -19 279 -37 375 -42z m-2225 -74 c0 -163 -351 -433 -562 -433 -441 0 -25 470 437 494 69 3 125 -24 125 -61z m3643 -185 c189 -144 188 -152 -42 -397 -282 -300 -414 -313 -641 -62 -162 179 -157 199 98 400 316 248 333 249 585 59z m-4643 17 c0 -154 -238 -665 -310 -665 -132 0 -110 440 30 580 112 112 280 163 280 85z m5700 -121 c0 -24 -45 -44 -100 -44 -55 0 -100 48 -100 106 0 58 45 78 100 44 55 -34 100 -82 100 -106z m-2244 -397 c-107 -81 -242 -146 -300 -144 -58 2 -19 69 88 150 107 81 242 146 300 144 58 -2 19 -69 -88 -150z m1691 58 c32 -52 -33 -144 -144 -204 -158 -84 -203 -78 -203 29 0 246 231 363 347 175z m-5865 -272 c-36 -305 -228 -418 -317 -187 -81 212 26 454 202 454 100 0 136 -85 115 -267z m6318 56 c0 -49 -68 -89 -150 -89 -82 0 -150 66 -150 147 0 89 59 124 150 89 82 -31 150 -98 150 -147z m-4536 11 c26 0 20 -45 -14 -100 -98 -159 -350 -116 -350 61 0 105 54 140 158 100 87 -34 180 -61 206 -61z m-2146 -776 c279 -73 184 -374 -118 -374 -220 0 -255 54 -318 494 -87 609 27 848 152 318 59 -250 160 -405 284 -438z m811 176 c-29 -110 -115 -200 -191 -200 -172 0 -183 367 -13 428 192 69 261 -8 204 -228z m5321 200 c34 -55 17 -100 -38 -100 -55 0 -128 45 -162 100 -34 55 -17 100 38 100 55 0 128 -45 162 -100z m689 -58 c85 -222 76 -643 -14 -638 -41 3 -172 157 -292 345 -194 304 -199 344 -50 384 283 74 294 72 356 -91z m-9117 -318 c95 -151 223 -342 285 -426 158 -213 -55 -998 -271 -998 -302 0 -836 321 -836 503 0 212 478 1197 580 1196 39 0 147 -124 242 -275z m8544 -551 c-28 -68 -49 12 -47 177 3 165 25 220 50 123 26 -97 24 -232 -3 -300z m-7298 3 c70 -53 96 -222 64 -419 -31 -193 -7 -360 57 -400 160 -99 137 -257 -37 -257 -199 0 -311 483 -166 715 64 102 76 185 27 185 -171 0 -343 -310 -335 -603 7 -250 -30 -297 -235 -297 -271 0 -295 108 -134 610 60 187 125 394 144 459 41 136 438 140 615 7z m8820 -312 c83 -99 88 -167 17 -211 -162 -100 -124 -282 45 -217 238 91 176 -4 -158 -241 -329 -235 -641 -143 -346 101 195 163 198 443 5 603 -82 68 -124 164 -94 213 64 103 351 -31 531 -248z m-7311 36 c142 -228 54 -255 -200 -62 -96 73 -145 161 -109 197 107 107 177 76 309 -135z m6620 -375 c2 -124 -16 -225 -39 -225 -23 0 -113 -27 -200 -61 -128 -49 -158 15 -158 334 0 216 29 423 65 459 99 99 328 -252 332 -507z m-7097 375 c0 -55 -45 -100 -100 -100 -55 0 -100 45 -100 100 0 55 45 100 100 100 55 0 100 -45 100 -100z m-369 -137 c50 -130 261 -191 1194 -350 41 -7 75 -126 75 -264 0 -223 -21 -237 -194 -129 -159 99 -228 91 -379 -45 -164 -149 -225 -152 -580 -25 -254 90 -325 146 -197 155 110 8 290 22 400 30 360 27 309 214 -67 246 -384 31 -647 235 -536 415 90 145 222 130 284 -33z m8951 -180 c-47 -320 -282 -355 -282 -41 0 168 55 258 157 258 104 0 146 -73 125 -217z m974 -98 c114 -101 440 -254 725 -339 286 -84 519 -192 519 -238 0 -88 -596 -182 -1678 -263 -720 -55 -896 102 -547 485 110 121 251 320 314 441 127 246 325 221 667 -86z m-8156 15 c0 -55 -48 -100 -106 -100 -58 0 -78 45 -44 100 34 55 82 100 106 100 24 0 44 -45 44 -100z m461 -617 c112 -182 221 -883 137 -883 -147 0 -614 713 -560 855 67 174 322 191 423 28z m5423 -239 c18 -15 -62 -79 -178 -141 -237 -127 -406 -63 -406 155 0 108 70 129 275 80 151 -36 290 -79 309 -94z m83 -751 c-196 -229 -449 -482 -563 -561 -180 -126 -213 -126 -262 4 -97 250 142 552 636 804 260 132 489 225 509 205 20 -19 -124 -223 -320 -452z m-667 307 c0 -55 -48 -100 -106 -100 -58 0 -78 45 -44 100 34 55 82 100 106 100 24 0 44 -45 44 -100z m-3700 -100 c0 -55 -45 -100 -100 -100 -55 0 -100 45 -100 100 0 55 45 100 100 100 55 0 100 -45 100 -100z m-581 -268 c-72 -29 -159 -26 -192 8 -33 33 26 56 131 52 117 -5 141 -28 61 -60z m13112 -726 c-10 -321 -87 -746 -170 -945 -132 -316 -194 -361 -496 -361 -298 0 -361 -44 -455 -315 -61 -173 -110 -394 -110 -490 0 -198 -647 -620 -880 -575 -84 17 -204 185 -268 374 -154 458 -315 490 -527 104 -443 -805 -759 -980 -1142 -633 -182 165 -243 661 -122 978 34 88 408 332 832 542 425 210 1020 569 1323 798 304 230 655 417 782 417 145 0 378 165 635 451 494 550 625 475 598 -345z m-4631 -2425 c0 -294 66 -488 221 -654 186 -198 202 -267 100 -430 -66 -107 -121 -261 -121 -342 0 -81 -127 -296 -282 -477 -155 -180 -475 -723 -712 -1206 -790 -1612 -1642 -2772 -2036 -2772 -258 0 -168 355 234 926 264 374 301 513 307 1143 9 894 117 1388 364 1666 106 118 293 462 416 765 600 1474 792 1714 1434 1791 41 5 75 -179 75 -410z m-1891 -181 c-321 -274 -509 -309 -509 -94 0 92 554 374 750 382 55 2 -54 -127 -241 -288z m149 -834 c-225 -864 -558 -1223 -558 -601 0 322 296 1059 488 1213 224 181 240 40 70 -612z m1442 -2124 c0 -32 -189 -470 -420 -975 -478 -1044 -1648 -2823 -2045 -3108 l-266 -191 59 440 c38 283 138 504 282 620 354 287 1547 1930 1909 2631 285 551 481 789 481 583z"/>
<path d="M11206 14496 c-505 -271 -564 -282 -830 -149 -249 124 -293 124 -342 -3 -84 -220 154 -444 472 -444 193 0 300 -63 344 -200 60 -190 121 -208 825 -242 96 -4 176 60 178 142 1 82 39 209 85 282 139 222 -29 266 -332 87 -276 -163 -606 -142 -606 38 0 116 381 314 750 389 309 64 418 335 150 371 -82 12 -395 -111 -694 -271z"/>
<path d="M529 18825 c-285 -206 -520 -431 -523 -500 -9 -182 42 -162 594 234 275 198 500 423 500 500 0 186 22 195 -571 -234z"/>
<path d="M725 17441 c-655 -680 -876 -1041 -638 -1041 190 0 1613 1519 1613 1722 0 222 -323 -3 -975 -681z"/>
<path d="M2249 15644 c-260 -304 -446 -581 -413 -614 101 -100 864 486 864 664 0 91 49 215 109 275 68 68 73 131 11 169 -54 33 -310 -189 -571 -494z"/>
<path d="M0 14400 c0 -285 409 -455 815 -339 471 136 509 371 45 284 -257 -48 -432 -21 -610 96 -238 156 -250 154 -250 -41z"/>
<path d="M731 12971 c-42 -67 -63 -200 -47 -296 21 -129 -39 -175 -228 -175 -141 0 -256 -57 -256 -128 0 -204 783 -90 902 131 170 319 -184 765 -371 468z"/>
<path d="M0 11922 c0 -295 14 -304 600 -372 330 -38 600 -116 600 -172 0 -112 -803 -1266 -1057 -1521 -86 -86 -143 -248 -125 -360 26 -166 115 -98 482 372 248 317 578 769 734 1004 170 254 362 427 475 427 236 0 239 38 -54 -570 -409 -849 -1158 -1936 -1414 -2052 -133 -61 -241 -196 -241 -303 0 -172 44 -160 413 111 378 279 1045 1208 1535 2139 109 206 272 375 362 375 128 0 971 -403 1178 -563 79 -62 -839 -1711 -1255 -2255 -741 -969 -1552 -1501 -1750 -1148 -47 84 -165 126 -274 97 -153 -40 -192 -140 -192 -488 l0 -437 1266 -28 1267 -28 26 -3075 c22 -2489 52 -3075 161 -3075 157 0 261 1081 201 2095 -41 708 38 703 303 -19 96 -261 212 -497 258 -525 46 -29 -25 -351 -158 -716 -292 -804 -293 -835 -41 -835 155 0 200 67 200 294 0 439 161 458 509 61 266 -303 375 -355 739 -355 655 0 1142 259 1839 979 l637 657 -72 -818 c-72 -813 -71 -818 163 -818 l235 0 -8 1375 c-5 756 -44 1670 -88 2031 -61 506 -45 722 70 950 83 161 182 510 220 775 39 264 127 502 196 529 189 73 665 -137 945 -418 182 -182 270 -215 326 -125 114 185 -37 386 -628 838 l-533 407 -8 1694 c-11 2306 -181 3065 -769 3437 -301 190 -321 -143 -32 -523 246 -322 356 -870 174 -870 -221 0 -705 229 -754 357 -60 156 -361 199 -361 51 0 -174 122 -408 212 -408 171 0 988 -422 988 -511 0 -132 -341 -108 -483 34 -68 68 -260 131 -427 139 -433 22 -2969 1301 -3412 1721 -357 338 -381 345 -565 179 -182 -165 -213 -164 -627 23 -240 109 -728 227 -1085 264 -357 36 -706 113 -775 171 -97 80 -126 34 -126 -198z m4500 -1825 c0 -35 -187 -409 -417 -830 -450 -829 -708 -978 -885 -511 -73 190 -56 336 66 575 357 698 516 850 886 839 192 -5 350 -38 350 -73z m783 -253 c172 -86 335 -192 361 -235 69 -111 -300 -1046 -587 -1487 -611 -943 -1283 -1409 -1776 -1231 -422 152 -815 1156 -588 1505 82 126 121 123 284 -25 474 -429 979 -80 1498 1035 151 326 324 592 385 593 60 1 250 -69 423 -155z m816 -519 c0 -96 -95 -310 -210 -475 -124 -177 -182 -218 -143 -100 38 110 93 324 124 475 61 303 230 377 229 100z m686 -35 c173 -60 315 -150 315 -199 0 -143 -647 -950 -1034 -1290 -324 -284 -1066 -530 -1066 -353 0 79 614 1052 664 1052 16 0 4 -67 -28 -150 -31 -82 -11 -150 45 -150 118 0 619 859 619 1063 0 166 76 170 485 27z m868 -849 c5 -821 -95 -1065 -799 -1936 -857 -1062 -1664 -1754 -2229 -1912 -393 -110 -465 -102 -706 77 -358 266 -516 596 -516 1080 0 575 95 850 295 850 96 0 340 113 542 250 243 165 507 250 772 250 294 0 547 95 928 348 521 345 1460 1294 1460 1474 0 52 56 76 125 53 77 -26 126 -232 128 -534z m-5353 -851 c0 -60 72 -262 161 -449 272 -574 173 -642 -864 -599 -500 21 -930 57 -954 82 -24 24 147 107 380 184 234 77 583 305 776 508 368 385 501 458 501 274z m4956 -2014 c-354 -745 -1736 -1852 -2429 -1945 -457 -61 -827 96 -827 352 0 132 173 223 705 368 645 177 766 255 1418 916 392 397 756 803 809 902 53 100 168 265 257 368 153 177 163 165 192 -223 17 -227 -39 -556 -125 -738z m-4056 930 c0 -52 -45 -122 -100 -156 -55 -34 -100 8 -100 94 0 86 45 156 100 156 55 0 100 -42 100 -94z m-102 -1131 c-1 -182 -20 -196 -98 -75 -125 194 -125 300 0 300 55 0 99 -101 98 -225z m4088 -1008 c-73 -174 -119 -394 -103 -488 67 -405 -957 -1632 -1723 -2065 -764 -431 -1158 -420 -1538 41 -347 421 -573 1265 -494 1850 71 527 272 772 272 330 0 -481 308 -685 1035 -685 580 0 659 30 1397 539 430 296 880 671 1000 834 172 233 225 260 252 128 18 -92 -26 -310 -98 -484z m-3998 398 c82 -99 83 -220 2 -450 -156 -448 -267 -389 -252 134 13 473 65 539 250 316z m3968 -2209 c57 -305 9 -417 -408 -959 -532 -691 -1108 -1149 -1626 -1292 -417 -115 -621 -28 -921 394 -239 335 -186 542 113 446 109 -34 341 4 517 85 175 80 488 224 694 320 207 95 612 435 900 755 289 320 557 585 595 589 39 3 100 -149 136 -338z"/>
<path d="M12490 9282 c-113 -211 -121 -212 -254 -30 -131 179 -147 180 -310 17 -133 -133 -148 -212 -64 -346 249 -398 865 -185 964 333 59 311 -173 329 -336 26z"/>
<path d="M9036 7051 c-78 -206 112 -346 377 -277 187 49 341 205 272 275 -20 19 -159 66 -309 103 -208 53 -290 28 -340 -101z"/>
<path d="M14650 6928 c-451 -111 -606 -428 -208 -428 373 0 558 103 558 311 0 195 -13 199 -350 117z"/>
<path d="M20565 6624 c-26 -41 -78 -255 -116 -475 -112 -647 -338 -1371 -483 -1541 -74 -87 -239 -450 -366 -808 -260 -726 -1009 -2289 -1289 -2689 -101 -144 -302 -452 -448 -686 -250 -400 -254 -425 -69 -425 139 0 320 210 611 708 493 844 659 848 210 5 -354 -663 -367 -713 -189 -713 70 0 234 225 364 500 131 275 265 500 299 500 34 0 122 146 195 325 73 179 238 573 365 875 428 1015 1251 3799 1251 4235 0 249 -221 374 -335 189z m-1312 -4652 c-83 -197 -201 -390 -264 -429 -63 -39 -95 -31 -72 18 24 49 123 263 219 475 219 481 321 425 117 -64z"/>
<path d="M11300 5900 c-110 -110 -200 -273 -200 -362 0 -148 20 -148 246 0 279 183 611 212 704 62 34 -55 127 -100 206 -100 175 0 190 314 24 480 -190 190 -756 144 -980 -80z"/>
<path d="M21245 4953 c-80 -191 -145 -418 -145 -505 0 -87 -90 -344 -200 -571 -110 -228 -251 -687 -312 -1021 -62 -333 -284 -1112 -494 -1731 l-380 -1125 243 0 c156 0 243 57 243 160 0 87 62 279 138 425 128 246 250 668 482 1665 51 220 160 603 242 850 165 500 538 1960 538 2106 0 224 -222 65 -355 -253z"/>
<path d="M14730 2775 c-113 -124 -259 -329 -324 -456 -76 -147 -200 -225 -338 -214 -374 30 -468 0 -468 -148 0 -180 310 -284 616 -206 238 59 1018 1082 909 1191 -101 100 -184 65 -395 -167z"/>
<path d="M0 1273 c0 -899 13 -959 246 -1111 164 -108 467 -162 900 -162 l654 0 0 468 c0 257 54 618 121 801 106 295 97 358 -77 532 -182 181 -249 188 -839 84 -612 -108 -649 -103 -823 112 -179 222 -182 210 -182 -724z"/>
</g>
</svg>