<svg xmlns="http://www.w3.org/2000/svg" version="1.0" width="250" height="250" viewBox="0 0 250.000000 250.000000" preserveAspectRatio="xMidYMid meet">
<metadata>
Created by potrace 1.10, written by Peter Selinger 2001-2011
</metadata>
<g transform="translate(0.000000,250.000000) scale(0.010000,-0.010000)" fill="#555555" stroke="none">
<path d="M13 24170 c-20 -572 4 -771 87 -720 62 39 90 132 61 207 -29 75 -10 162 41 194 51 32 141 238 201 459 59 222 133 468 164 549 43 110 -15 140 -236 124 l-291 -23 -27 -790z"/>
<path d="M851 24638 c-83 -199 -151 -426 -151 -504 0 -200 -355 -872 -543 -1028 -105 -88 -157 -299 -157 -643 l1 -513 186 300 c103 165 373 493 600 729 236 246 413 526 413 656 0 125 66 314 147 421 189 250 190 344 3 344 -82 0 -150 -45 -150 -100 0 -55 -45 -100 -100 -100 -55 0 -100 68 -100 150 0 83 45 150 100 150 55 0 100 113 100 250 0 362 -174 307 -349 -112z m9 -1221 c-196 -196 -218 -8 -35 288 107 173 130 179 160 37 19 -91 -38 -237 -125 -325z"/>
<path d="M1900 24961 c0 -22 68 -66 150 -97 83 -32 150 -14 150 39 0 53 -67 97 -150 97 -82 0 -150 -18 -150 -39z"/>
<path d="M2500 24912 c0 -48 68 -251 151 -450 132 -314 132 -362 6 -362 -196 0 -256 -117 -304 -600 -44 -442 -484 -1041 -937 -1276 -409 -212 -479 -82 -126 233 387 344 619 756 668 1185 19 170 64 409 100 533 53 183 26 225 -144 225 -149 0 -227 -80 -267 -275 -134 -656 -262 -1025 -396 -1146 -263 -236 -402 -341 -586 -445 -100 -56 -290 -366 -421 -690 -223 -548 -239 -715 -239 -2476 0 -1632 20 -1872 144 -1769 291 242 405 41 125 -218 -273 -253 -397 -881 -174 -881 55 0 100 35 100 78 0 44 136 159 302 257 166 98 277 217 248 265 -67 108 413 600 585 600 69 0 168 43 221 96 53 53 343 159 645 237 413 106 552 187 559 329 22 397 42 431 215 366 96 -35 236 -150 310 -253 75 -104 195 -166 268 -138 105 41 138 -314 164 -1768 31 -1685 51 -1856 276 -2319 458 -945 498 -1050 400 -1050 -160 0 -677 894 -839 1452 -83 286 -156 785 -161 1109 -4 324 -11 792 -14 1039 -3 248 -15 563 -27 700 -11 138 -28 374 -36 525 -19 326 -259 369 -416 75 -62 -115 -209 -200 -348 -200 -132 0 -267 -43 -299 -96 -33 -52 -115 -74 -184 -48 -68 27 -385 -200 -703 -504 -319 -304 -615 -552 -658 -552 -43 0 -220 -228 -393 -507 -323 -519 -412 -1044 -190 -1118 99 -34 99 -74 -3 -197 -94 -114 -120 -558 -100 -1689 l28 -1534 250 -77 c138 -43 435 -123 660 -178 226 -55 541 -216 700 -358 2902 -2591 3240 -2990 3240 -3826 0 -215 65 -546 144 -736 79 -189 141 -476 139 -637 -3 -161 40 -408 96 -548 59 -149 65 -320 15 -410 -119 -212 79 -885 261 -885 80 0 151 -56 158 -125 33 -325 76 -587 225 -1375 89 -467 171 -1221 183 -1675 l22 -825 1004 12 1003 11 -650 146 c-883 197 -900 204 -900 375 0 180 140 160 1800 -255 633 -158 1285 -285 1450 -282 279 5 265 21 -200 238 -491 229 -1057 393 -1950 566 -247 48 -616 161 -818 250 -360 160 -370 179 -428 826 -33 365 -145 1001 -248 1413 -103 413 -216 975 -250 1250 l-63 500 196 -249 c109 -136 227 -218 263 -182 89 88 -362 687 -468 621 -85 -52 -100 0 -135 472 -10 143 -93 367 -184 497 -280 399 -183 448 184 92 191 -185 382 -303 424 -261 42 41 -115 254 -349 471 -233 218 -424 462 -424 543 0 263 193 153 453 -259 252 -399 496 -579 618 -457 35 35 -35 167 -154 294 -119 127 -217 279 -217 338 0 59 -116 183 -259 276 -142 94 -236 192 -208 220 83 83 567 -279 567 -425 0 -75 428 -574 950 -1109 523 -536 950 -1009 950 -1053 0 -43 -71 -79 -157 -79 -129 0 -118 -54 62 -306 126 -179 276 -284 356 -253 88 33 139 -16 139 -132 0 -241 255 -463 351 -307 44 71 195 -15 419 -238 192 -193 405 -329 473 -303 77 30 121 -38 115 -182 -6 -173 41 -223 192 -204 374 46 470 -104 294 -457 -173 -347 -136 -1316 77 -2043 130 -441 432 -512 575 -135 51 132 147 275 215 317 86 53 103 26 56 -91 -37 -91 -94 -234 -128 -316 -44 -110 8 -150 200 -150 176 0 261 54 261 165 0 91 131 529 291 975 375 1045 748 2681 668 2932 -49 153 63 295 514 651 318 251 685 550 817 666 403 354 471 277 455 -514 -12 -567 -116 -1031 -478 -2128 -254 -771 -530 -1491 -612 -1600 -82 -108 -150 -300 -152 -426 -2 -125 -76 -339 -165 -475 -247 -378 49 -321 413 79 472 518 1131 1913 955 2021 -45 28 -137 -94 -204 -272 -266 -712 -442 -1087 -536 -1145 -63 -39 -71 10 -21 130 43 105 115 326 160 491 45 165 259 818 476 1450 217 633 425 1294 463 1469 48 221 114 303 213 265 90 -35 143 8 143 116 0 105 -54 151 -139 118 -165 -63 -316 517 -173 660 133 133 1336 262 1512 162 110 -62 77 -85 -125 -87 -328 -4 -334 -51 -77 -617 109 -240 199 -574 200 -742 2 -333 -383 -1396 -638 -1761 -88 -125 -160 -287 -160 -360 0 -206 -790 -1746 -1025 -1998 -175 -187 -183 -225 -48 -225 89 0 192 50 230 111 47 77 97 70 165 -25 74 -105 84 -96 42 35 -54 168 241 794 697 1481 207 311 345 649 762 1873 165 485 377 418 377 -119 0 -244 43 -471 96 -504 57 -35 74 -380 42 -831 -45 -632 -94 -802 -272 -942 -461 -365 -1058 -1031 -955 -1065 59 -21 297 148 527 375 231 226 498 411 593 411 161 0 162 -23 22 -295 -233 -450 -196 -505 340 -505 385 0 502 38 538 175 43 164 47 164 57 -3 11 -163 135 -177 1412 -166 1096 9 1400 41 1400 146 0 74 72 206 160 294 127 127 135 189 39 306 -97 116 -90 158 35 206 204 78 366 -27 366 -239 1 -139 115 -173 641 -190 530 -17 687 -64 914 -275 206 -191 382 -254 710 -254 l435 0 0 507 c0 278 -45 590 -100 693 -65 121 -66 276 -4 440 63 166 60 356 -10 558 -59 167 -76 383 -39 478 139 362 256 -157 320 -1420 60 -1173 121 -1418 290 -1145 48 78 91 72 148 -18 51 -84 102 10 144 264 113 687 128 705 139 168 7 -289 46 -525 87 -525 128 0 21 3407 -130 4146 -93 451 -109 730 -46 793 148 148 197 48 346 -701 l136 -688 10 820 c7 609 -27 841 -132 900 -105 59 -150 369 -175 1206 -30 1003 -15 1133 141 1182 234 74 222 369 -25 592 -110 100 -200 227 -200 283 0 56 -120 397 -267 759 -256 630 -270 758 -325 3025 -55 2250 -69 2381 -283 2671 -281 379 -280 412 8 412 491 0 978 -937 781 -1503 -76 -219 -66 -441 41 -851 83 -318 145 -1016 145 -1631 0 -591 42 -1118 94 -1170 51 -52 111 -297 132 -545 22 -247 46 1609 54 4125 10 2914 -20 4575 -83 4575 -53 0 -97 48 -97 106 0 58 45 78 100 44 66 -41 100 1049 100 3195 l0 3256 -4900 -3 c-4342 -3 -4900 -21 -4900 -157 0 -85 -51 -250 -114 -366 -109 -205 -119 -200 -275 131 -157 333 -182 345 -787 368 -343 13 -624 -9 -624 -50 0 -41 139 -164 309 -274 169 -110 349 -304 400 -432 141 -358 109 -979 -59 -1118 -82 -68 -150 -200 -150 -292 0 -93 -52 -220 -116 -284 -87 -87 -87 -150 -1 -254 136 -164 55 -278 -143 -202 -227 87 -182 804 60 955 244 152 255 252 34 295 -117 22 -205 222 -296 667 -140 688 -308 985 -467 826 -63 -63 -35 -328 80 -752 129 -476 160 -826 113 -1274 -70 -676 -96 -739 -262 -637 -73 46 -93 348 -58 905 35 554 16 860 -57 905 -145 90 -280 -137 -301 -508 -11 -195 -38 -128 -77 192 -32 271 -111 510 -175 531 -165 54 -266 -512 -186 -1043 53 -353 38 -442 -65 -407 -83 28 -136 219 -142 512 -13 636 -100 675 -346 155 l-208 -440 62 542 c54 467 42 525 -83 421 -131 -109 -298 -645 -311 -1005 -3 -78 -68 -162 -144 -188 -111 -37 -129 60 -89 471 62 653 -108 635 -334 -35 -95 -283 -191 -432 -233 -364 -97 156 32 1053 213 1486 88 210 109 385 55 439 -135 135 -254 -74 -508 -889 -302 -971 -510 -1109 -540 -360 -9 228 74 574 200 828 119 241 191 478 161 527 -93 150 -431 -233 -547 -620 -60 -201 -198 -474 -307 -609 l-197 -244 45 250 c24 138 77 329 118 425 116 278 -137 209 -265 -72 -124 -272 -312 -250 -212 25 35 95 192 363 351 597 262 388 271 425 94 425 -122 0 -253 -127 -357 -344 -156 -331 -591 -756 -772 -756 -166 0 -86 520 120 782 127 161 165 277 97 300 -171 57 -386 -167 -521 -542 -170 -469 -283 -425 -283 110 0 252 -47 450 -107 450 -68 0 -96 -252 -78 -695 16 -382 -4 -727 -43 -767 -139 -138 -222 84 -222 595 0 740 -141 867 -965 867 -611 0 -690 -24 -891 -275 l-221 -275 50 275 49 275 -1086 0 c-597 0 -1086 -40 -1086 -88z m750 -212 c-34 -55 -82 -100 -106 -100 -24 0 -44 45 -44 100 0 55 48 100 106 100 58 0 78 -45 44 -100z m2093 -57 c86 -87 157 -303 157 -480 0 -178 52 -375 116 -439 64 -64 129 -235 144 -381 32 -295 302 -643 500 -643 71 0 197 -97 280 -216 142 -203 135 -226 -105 -350 -142 -74 -312 -134 -378 -134 -155 0 -557 375 -557 519 0 62 90 30 201 -70 110 -99 224 -157 254 -128 48 48 -696 1555 -828 1679 -59 55 28 -686 132 -1125 85 -363 -109 -361 -298 3 -99 192 -114 332 -47 450 74 133 57 172 -72 172 -134 0 -155 62 -103 318 35 176 130 393 212 484 82 90 122 191 89 224 -57 57 29 274 109 274 20 0 107 -71 194 -157z m896 -101 c93 -242 73 -842 -28 -842 -127 0 -211 261 -211 658 0 356 134 458 239 184z m18361 -442 c0 -55 -48 -100 -106 -100 -58 0 -78 45 -44 100 34 55 82 100 106 100 24 0 44 -45 44 -100z m-20100 -616 c0 -718 262 -1158 881 -1475 203 -104 475 -304 605 -443 l237 -253 -212 -297 c-232 -326 -276 -616 -94 -616 64 0 90 -26 58 -58 -125 -125 -494 176 -445 363 55 208 -222 350 -599 307 -156 -18 -264 62 -375 277 -86 165 -229 342 -319 392 -126 71 -139 133 -57 280 97 173 148 144 596 -335 316 -339 601 -546 807 -588 329 -65 462 113 167 226 -82 31 -150 138 -150 237 0 128 -55 166 -190 131 -131 -35 -262 46 -419 259 -126 170 -269 309 -317 309 -126 0 -674 563 -674 692 0 60 -40 108 -89 108 -125 0 -232 478 -158 709 87 275 229 235 265 -76 54 -453 282 -405 282 59 0 224 45 408 100 408 56 0 100 -272 100 -616z m-1532 -97 c172 -199 77 -687 -134 -687 -79 0 -213 -165 -298 -367 -105 -251 -178 -327 -232 -240 -104 169 -417 4 -640 -335 -90 -138 -264 -304 -385 -369 -219 -118 -220 -116 -52 141 94 142 441 526 772 853 330 326 607 689 614 805 6 117 23 257 37 312 14 55 34 156 45 225 14 82 40 74 76 -25 30 -82 119 -223 197 -313z m3432 -137 c0 -194 -162 -194 -236 0 -35 91 0 150 89 150 81 0 147 -67 147 -150z m1213 -250 c200 0 220 -206 26 -270 -148 -50 -553 366 -477 489 42 68 98 48 157 -56 50 -90 182 -163 294 -163z m4847 -173 c-33 -33 -56 26 -52 131 5 117 28 141 60 61 29 -72 26 -159 -8 -192z m2386 -134 c-94 -152 -245 -106 -182 56 31 83 98 125 148 94 50 -31 65 -99 34 -150z m-11148 -418 c2 -188 -50 -275 -160 -275 -129 0 -150 65 -100 313 34 171 63 363 64 425 3 245 195 -206 196 -463z m5728 -783 c-120 -461 -372 -533 -275 -79 40 185 122 427 181 537 94 171 114 176 144 35 19 -91 -3 -313 -50 -493z m467 77 c-57 -203 -145 -369 -198 -369 -124 0 -122 10 61 449 193 462 273 416 137 -80z m-2144 -151 c33 -133 36 -266 6 -296 -30 -31 -55 22 -55 117 0 95 -41 148 -91 117 -247 -153 -555 265 -348 471 107 108 426 -160 488 -409z m9549 333 c158 -82 317 -240 352 -352 76 -237 1014 -899 1276 -899 98 0 358 -114 578 -253 l401 -253 -20 -797 c-11 -438 -52 -797 -91 -797 -40 0 -152 -304 -249 -675 -98 -371 -239 -798 -313 -947 -117 -238 -115 -265 17 -215 204 79 190 -221 -29 -634 -557 -1048 -776 -1401 -1189 -1911 -545 -673 -842 -967 -1381 -1369 -220 -164 -422 -322 -450 -352 -27 -29 -343 -54 -700 -54 -524 1 -723 -47 -1024 -246 -206 -136 -355 -300 -331 -366 24 -65 -47 -234 -158 -375 -227 -288 -148 -343 130 -91 101 92 183 240 183 331 0 181 777 604 1109 604 112 0 295 -49 407 -108 270 -145 714 38 1222 503 678 621 1899 2230 2281 3006 322 653 377 870 427 1695 31 521 92 982 135 1025 88 88 319 -959 280 -1271 -13 -110 -78 -327 -143 -482 -65 -154 -118 -392 -118 -527 0 -411 -380 -1360 -776 -1935 -466 -678 -1639 -1920 -2144 -2270 -209 -145 -380 -311 -380 -369 0 -201 -538 -667 -771 -667 -224 0 -227 10 -75 242 150 229 144 257 -131 565 -236 264 -337 311 -553 257 -407 -102 -595 -600 -574 -1514 15 -639 -353 -1245 -984 -1621 -876 -521 -1343 -574 -3962 -443 -2477 124 -3689 290 -4125 564 -392 247 -938 847 -871 957 101 163 363 100 415 -100 28 -106 121 -220 206 -253 164 -63 791 106 996 268 66 52 168 66 226 30 124 -77 2449 694 3437 1139 377 170 749 309 829 309 79 0 366 113 639 251 l495 251 154 -369 c108 -260 122 -400 47 -475 -145 -145 -291 99 -220 368 47 179 20 195 -221 135 -150 -38 -440 -174 -643 -302 -318 -201 -981 -496 -2514 -1120 -192 -79 -665 -208 -1050 -287 -385 -80 -835 -172 -1000 -206 -543 -112 -610 -147 -461 -239 73 -46 428 -20 797 57 1600 335 1764 387 3039 977 427 198 835 359 906 359 72 0 218 66 325 147 297 225 407 181 134 -54 -132 -114 -352 -307 -490 -428 -137 -122 -509 -327 -825 -455 -511 -207 -747 -410 -478 -410 255 0 1222 518 1593 853 410 371 698 420 376 65 -91 -101 -166 -214 -166 -251 0 -147 205 -49 678 325 463 366 507 381 662 225 268 -268 1133 -225 1535 77 179 134 325 303 325 375 0 180 -72 165 -323 -69 -273 -254 -572 -284 -366 -37 121 146 104 156 -169 96 -430 -94 -883 319 -820 749 28 185 3 284 -64 261 -59 -19 -108 -208 -108 -419 0 -350 38 -404 427 -610 363 -192 397 -235 229 -288 -434 -138 -906 473 -906 1173 0 421 191 607 850 828 275 91 627 286 782 432 255 239 278 314 233 765 -27 275 -80 645 -118 823 -51 236 -16 414 129 658 108 184 251 512 318 727 66 216 160 482 208 592 195 442 305 1049 363 2016 50 832 29 1112 -119 1550 -170 501 -539 984 -752 984 -180 0 -93 -287 106 -350 110 -35 200 -149 200 -253 0 -104 87 -411 194 -682 107 -271 174 -514 149 -538 -25 -25 -71 -424 -104 -886 -63 -914 -250 -1858 -427 -2154 -89 -149 -99 -95 -52 263 33 248 98 608 144 800 161 676 224 2161 106 2519 -62 189 -290 516 -506 727 -384 375 -399 380 -645 219 -313 -205 -459 -210 -459 -15 0 83 53 150 117 150 65 0 188 63 275 140 97 87 476 159 983 188 453 26 886 98 960 160 457 379 1657 525 2163 263z m-13413 -108 c200 -100 315 -233 315 -363 0 -165 -27 -182 -141 -87 -97 80 -162 84 -206 12 -97 -158 47 -328 236 -279 92 24 224 -17 293 -91 69 -74 256 -135 416 -135 160 0 315 -41 346 -91 32 -51 -180 -84 -480 -75 -383 11 -523 52 -490 141 29 76 -37 125 -166 125 -214 0 -466 425 -357 601 29 47 7 113 -49 148 -94 58 -146 251 -67 251 19 0 176 -71 350 -157z m4914 -534 c-67 -114 -91 -31 -87 291 5 415 12 428 92 159 52 -172 49 -357 -5 -450z m2351 291 c-49 -154 -18 -200 135 -200 109 0 221 56 249 125 30 75 53 55 58 -50 7 -142 -77 -175 -447 -175 l-454 0 179 247 c218 299 367 327 280 53z m-2750 -300 c0 -225 -165 -354 -225 -176 -63 186 34 482 136 419 49 -30 89 -139 89 -243z m-1425 -71 c217 -467 159 -884 -150 -1085 -263 -172 -681 -535 -1170 -1019 -250 -247 -334 -267 -549 -131 -119 76 -121 117 -11 250 101 122 163 132 271 43 76 -64 170 -84 209 -46 38 39 3 111 -77 160 -186 115 -38 270 302 316 409 54 306 324 -150 394 -487 74 -1079 327 -985 421 123 122 780 65 979 -85 107 -81 259 -147 339 -147 80 0 202 -79 273 -175 172 -235 319 -69 162 184 -151 241 -76 391 195 391 138 0 191 55 167 175 -25 128 -114 168 -332 147 l-298 -28 300 253 c165 138 322 252 350 252 28 0 106 -122 175 -270z m5100 12 c-26 -25 -128 -14 -228 24 -173 66 -173 73 10 139 176 63 329 -52 218 -163z m-11596 -391 c-253 -521 -420 -601 -259 -125 124 368 264 575 391 575 47 0 -12 -202 -132 -450z m7387 25 c-28 -69 -50 -12 -50 125 0 138 22 194 50 125 28 -69 28 -181 0 -250z m4565 -155 c456 -133 626 -241 784 -496 111 -179 243 -300 294 -269 105 65 114 -9 92 -730 -17 -574 161 -731 228 -200 l40 325 6 -350 c9 -561 37 -577 175 -100 l130 450 10 -382 c13 -489 -153 -823 -333 -674 -102 85 -143 7 -194 -359 -69 -506 -13 -665 152 -432 84 119 93 113 44 -36 -32 -101 -59 -227 -59 -281 0 -54 -45 -70 -100 -36 -55 34 -100 3 -100 -70 0 -72 -110 -338 -245 -591 -134 -253 -221 -548 -193 -656 61 -232 -203 -509 -314 -330 -103 167 -548 -290 -548 -565 0 -124 48 -256 107 -292 59 -37 84 -126 55 -200 -28 -73 3 -151 69 -173 147 -49 -374 -518 -756 -681 -276 -117 -373 -292 -162 -292 62 0 332 157 600 350 693 498 602 349 -182 -298 -612 -504 -1049 -723 -872 -437 109 177 -451 11 -833 -247 -179 -120 -325 -289 -325 -375 -1 -94 -212 -247 -526 -382 -289 -123 -678 -291 -865 -373 -239 -105 -371 -117 -445 -43 -75 75 -12 142 214 228 177 66 321 156 321 199 0 43 52 78 116 78 230 0 884 341 884 461 0 112 559 492 1225 832 276 142 341 254 197 343 -81 50 -1427 -731 -1772 -1030 -277 -239 -1201 -598 -1331 -518 -59 37 149 199 462 361 590 304 741 435 657 571 -28 44 55 80 183 80 128 0 398 113 600 250 203 138 409 250 458 250 50 0 171 90 271 200 303 334 -46 250 -826 -200 -382 -220 -739 -400 -794 -400 -54 0 -180 -90 -280 -200 -100 -110 -268 -200 -375 -200 -108 0 -216 -86 -245 -194 -31 -120 -171 -219 -365 -258 -566 -113 -655 -156 -604 -291 32 -82 -63 -173 -246 -237 -327 -114 -415 -75 -415 185 0 168 287 321 822 438 263 57 1121 583 1224 751 29 46 -15 139 -97 207 -181 150 -699 -28 -793 -271 -47 -122 -4 -139 218 -84 505 125 92 -104 -524 -290 -330 -99 -684 -239 -786 -311 -103 -71 -249 -106 -325 -77 -143 55 -198 429 -64 436 676 34 1337 243 1301 413 -14 66 199 237 474 379 275 142 523 302 550 356 94 185 -447 125 -580 -64 -72 -104 -232 -188 -356 -188 -123 0 -267 -37 -319 -83 -52 -46 -286 -138 -520 -204 -234 -67 -425 -166 -425 -220 0 -153 -438 -287 -519 -159 -110 173 108 356 504 421 575 95 893 246 1062 505 87 132 237 240 333 240 203 0 620 269 620 400 0 135 -548 -80 -1550 -607 -1088 -572 -1350 -662 -1350 -462 0 145 312 307 825 426 151 36 275 102 275 148 0 90 287 262 981 590 593 279 442 457 -160 189 -259 -115 -538 -247 -621 -292 -764 -416 -1448 -684 -1531 -601 -54 54 -118 316 -144 584 -43 446 -23 503 230 669 152 99 393 180 536 179 247 -3 1154 389 1354 584 175 171 -186 97 -484 -99 -200 -131 -392 -174 -618 -137 -242 39 -413 -7 -646 -173 -260 -186 -333 -201 -404 -87 -66 106 41 187 444 339 291 110 599 270 683 355 84 85 339 216 567 291 227 75 413 174 413 220 0 154 -201 88 -1159 -378 -523 -254 -966 -446 -986 -425 -20 20 -4 338 34 707 70 668 288 1080 573 1080 126 0 383 100 1318 513 237 104 406 228 377 276 -29 47 -264 -21 -522 -152 -481 -243 -835 -306 -835 -148 0 49 167 120 372 158 448 85 928 321 928 458 0 54 -176 9 -390 -100 -356 -181 -396 -185 -454 -34 -35 91 4 232 88 316 190 190 329 72 158 -135 -160 -192 -71 -193 296 -3 158 82 427 342 596 578 169 236 465 513 657 617 386 207 474 409 131 300 -382 -121 -801 -418 -918 -652 -63 -124 -181 -244 -264 -267 -131 -35 -131 -27 -3 62 81 56 119 130 85 164 -70 70 -966 -557 -976 -683 -11 -145 -287 -368 -456 -368 -213 0 656 933 1182 1268 925 589 1138 664 3018 1065 396 84 1912 -46 2481 -213z m-11522 -329 l-96 -241 -7 258 c-3 142 27 291 67 332 119 118 140 -88 36 -349z m2291 209 c0 -55 -45 -100 -100 -100 -55 0 -100 45 -100 100 0 55 45 100 100 100 55 0 100 -45 100 -100z m18918 -122 c-71 -71 -118 -77 -118 -15 0 57 30 134 67 170 36 37 90 44 118 15 28 -28 -2 -105 -67 -170z m-18118 33 c0 -49 119 -119 264 -156 174 -43 231 -100 167 -164 -138 -138 -631 63 -631 257 0 83 45 152 100 152 55 0 100 -40 100 -89z m-400 -581 c0 -80 137 -282 304 -450 168 -167 274 -333 237 -367 -38 -35 -89 -4 -115 68 -26 73 -152 172 -281 221 -298 113 -586 547 -505 758 51 132 91 139 211 39 82 -68 149 -189 149 -269z m10300 264 c0 -58 -45 -78 -100 -44 -55 34 -100 82 -100 106 0 24 45 44 100 44 55 0 100 -48 100 -106z m-9000 -94 c0 -55 -45 -100 -100 -100 -55 0 -100 45 -100 100 0 55 45 100 100 100 55 0 100 -45 100 -100z m-475 -299 c41 0 75 -70 75 -154 0 -84 98 -190 217 -234 165 -61 185 -100 84 -162 -87 -54 -194 -8 -308 133 -96 119 -219 216 -272 216 -53 0 -158 75 -234 167 -123 151 -111 161 113 102 138 -37 284 -67 325 -68z m625 -1 c34 -55 17 -100 -38 -100 -55 0 -128 45 -162 100 -34 55 -17 100 38 100 55 0 128 -45 162 -100z m19131 -94 c25 -75 -12 -112 -87 -87 -72 24 -151 103 -175 175 -25 75 12 112 87 87 72 -24 151 -103 175 -175z m-23282 -178 c110 -95 200 -264 198 -375 -3 -203 -4 -203 -156 -3 -144 188 -161 190 -282 27 -184 -249 -257 -117 -126 229 131 346 111 340 366 122z m1351 72 c34 -55 169 -100 300 -100 131 0 264 -42 296 -93 105 -170 -107 -199 -390 -52 -344 179 -687 190 -632 20 22 -69 164 -185 314 -258 220 -107 250 -161 155 -275 -146 -176 -293 -184 -293 -16 0 69 -90 182 -200 251 -227 141 -256 327 -80 503 146 146 445 157 530 20z m2872 -876 c124 -108 146 -198 78 -323 -146 -275 12 -325 267 -85 128 120 266 184 307 143 42 -41 -45 -163 -191 -270 -585 -425 -684 -561 -829 -1127 -246 -966 33 -3487 402 -3628 79 -31 145 -129 147 -220 2 -90 136 -344 297 -564 162 -220 366 -498 454 -617 97 -133 160 -426 162 -750 6 -789 -14 -948 -98 -812 -48 78 -124 87 -221 25 -213 -135 -299 -117 -235 50 31 81 133 171 227 201 115 36 175 167 181 394 8 281 -61 399 -391 675 -220 184 -442 424 -492 534 -49 110 -202 398 -339 641 -136 242 -248 483 -248 535 0 52 -115 324 -256 604 -393 782 -500 1469 -444 2835 41 1001 83 1251 238 1421 107 119 165 291 136 403 -45 173 -11 189 312 139 200 -30 441 -122 536 -204z m-2039 -1088 c-19 -102 -136 -200 -258 -218 -221 -31 -222 -28 -50 271 178 311 371 277 308 -53z m-828 -219 c-69 -219 -355 -377 -355 -197 0 135 313 500 375 438 24 -24 15 -132 -20 -241z m172 -1750 c46 -1126 36 -1251 -84 -1020 -201 388 -306 2007 -143 2203 71 85 139 142 151 127 12 -15 46 -604 76 -1310z m-1093 977 c-33 -85 -125 -130 -205 -100 -80 31 -167 56 -193 56 -26 0 -20 45 14 100 106 171 452 121 384 -56z m12424 -1192 c-299 -393 -306 -433 -116 -644 78 -87 169 -293 201 -458 l58 -300 -132 279 c-73 154 -242 384 -376 510 l-243 231 -220 -235 c-121 -129 -277 -235 -346 -235 -68 0 48 176 258 392 211 216 440 370 510 343 74 -28 226 128 363 371 160 286 246 366 268 252 19 -92 -83 -320 -225 -506z m9195 -72 c145 -66 357 -302 472 -525 182 -352 220 -671 293 -2455 45 -1127 94 -2203 107 -2390 16 -221 -25 -358 -115 -389 -109 -37 -126 23 -77 271 40 198 27 295 -35 257 -128 -80 -127 -819 2 -899 55 -34 100 -214 100 -399 0 -390 161 -865 327 -968 81 -50 60 -132 -71 -277 -129 -142 -223 -175 -305 -107 -66 55 -145 73 -177 42 -104 -105 -279 348 -322 833 -24 262 -45 499 -49 526 -3 28 -44 -10 -91 -84 -126 -198 -50 -970 131 -1333 146 -292 145 -331 -17 -512 -97 -109 -351 -308 -564 -444 -311 -197 -405 -219 -474 -112 -47 74 -87 90 -90 35 -2 -55 -70 -13 -151 94 -81 107 -141 354 -133 550 10 276 24 300 59 106 25 -137 92 -306 148 -374 130 -158 323 -52 198 108 -50 64 -122 245 -160 403 -38 158 -96 259 -130 225 -34 -33 -112 40 -174 164 -143 283 -119 1550 32 1701 140 140 151 1338 13 1423 -55 34 -97 205 -93 381 6 265 21 285 89 119 75 -181 89 -183 152 -29 39 95 -1 314 -89 491 -104 209 -159 585 -159 1097 0 868 -138 1393 -318 1213 -81 -81 -81 -187 -1 -391 224 -574 73 -6274 -174 -6572 -63 -76 -84 -331 -51 -619 69 -593 -98 -406 -202 227 -48 293 -26 487 77 650 177 284 314 2151 161 2202 -63 21 -42 176 55 408 134 320 135 373 11 373 -175 0 -241 230 -202 700 39 479 56 496 144 150 76 -299 76 -298 88 75 9 272 -29 375 -138 375 -110 0 -150 114 -151 425 0 234 -67 554 -150 711 -82 158 -149 353 -149 434 0 81 -56 127 -125 103 -150 -53 -143 -146 64 -917 329 -1222 332 -4756 4 -4756 -77 0 -169 -118 -205 -262 l-66 -262 -136 323 c-189 450 -185 705 7 445 95 -129 177 -160 242 -94 133 136 233 1450 110 1450 -52 0 -95 48 -95 106 0 58 56 72 125 31 97 -58 99 -43 10 69 -63 79 -125 414 -137 744 -29 785 -17 874 102 800 58 -36 100 66 100 244 0 205 -49 306 -150 306 -107 0 -150 109 -150 385 0 443 -183 1038 -297 967 -42 -26 -40 -240 6 -475 45 -235 84 -726 87 -1090 3 -582 -21 -670 -196 -716 -234 -61 -251 10 -65 282 180 262 68 1286 -165 1520 -160 160 -170 157 -170 -46 0 -118 45 -243 100 -277 55 -34 98 -205 96 -381 l-3 -319 -185 400 c-360 781 -361 777 255 1310 312 270 901 826 1308 1236 1101 1112 1335 1234 1882 984z m-9853 -1180 c-136 -102 -270 -164 -297 -136 -28 27 61 134 197 236 136 102 270 164 297 136 28 -27 -61 -134 -197 -236z m300 -96 c0 -54 -101 -150 -225 -215 -224 -117 -224 -117 -35 96 212 239 260 261 260 119z m460 -472 c-32 -100 -148 -239 -258 -308 -181 -112 -197 -102 -165 100 23 144 96 215 200 197 99 -18 163 38 163 141 0 94 27 145 59 112 33 -32 33 -141 1 -242z m-510 68 c-34 -55 -82 -100 -106 -100 -24 0 -44 45 -44 100 0 55 48 100 106 100 58 0 78 -45 44 -100z m-693 -267 c-35 -92 -11 -200 53 -239 79 -49 49 -109 -94 -186 -180 -96 -202 -88 -149 51 54 141 32 148 -152 49 -276 -148 -275 -35 2 261 254 270 432 304 340 64z m6244 -858 c74 -234 171 -468 216 -520 46 -52 83 -176 83 -276 0 -100 90 -258 200 -352 110 -94 200 -247 200 -339 0 -190 -264 -328 -353 -184 -32 53 -146 96 -253 96 -156 0 -194 70 -194 361 0 202 -117 577 -264 848 -219 401 -243 512 -138 638 212 256 363 174 503 -272z m-6634 259 c-94 -94 -1095 -440 -1141 -394 -62 63 706 410 966 436 133 14 212 -5 175 -42z m-1354 -481 c-61 -368 -103 -411 -564 -577 -1175 -423 -1349 -497 -1349 -574 0 -175 1835 507 2150 798 237 219 820 395 708 213 -130 -211 -1671 -915 -2908 -1328 -330 -110 -690 -240 -800 -288 -110 -48 -537 -182 -950 -296 -412 -115 -944 -279 -1181 -366 -237 -86 -455 -132 -485 -103 -73 74 689 412 1596 708 807 264 1331 505 1386 638 40 97 1209 581 1609 667 258 55 395 255 175 255 -214 0 -83 208 275 437 206 132 382 234 389 226 8 -7 -15 -192 -51 -410z m7386 -521 c224 -541 229 -604 106 -1275 -419 -2280 -444 -2529 -307 -3099 178 -741 28 -1186 -450 -1333 -416 -127 -750 -58 -929 193 -72 101 -252 248 -400 327 -366 195 -1029 805 -1055 970 -12 74 -146 345 -298 602 -368 623 -441 1104 -220 1441 95 144 150 348 122 452 -27 105 -8 190 41 190 50 0 91 -67 91 -150 0 -82 45 -150 100 -150 154 0 118 360 -50 500 -82 68 -150 206 -150 306 0 100 -45 210 -100 244 -55 34 -100 111 -100 171 0 61 90 29 200 -71 110 -100 200 -233 200 -297 0 -65 140 -271 311 -460 l311 -343 -72 338 c-47 222 -36 315 32 273 56 -35 132 -198 168 -362 92 -419 250 -375 181 51 -72 439 32 450 229 25 l150 -325 -49 375 c-36 282 -13 375 95 375 79 0 144 -45 144 -100 0 -55 44 -100 98 -100 54 0 71 129 39 292 -52 260 12 360 577 897 350 332 661 606 693 608 31 1 162 -253 292 -565z m-10440 -122 c-94 -104 -360 -242 -590 -305 -231 -64 -475 -140 -544 -169 -69 -29 -125 10 -125 86 0 78 253 233 575 352 752 278 911 287 684 36z m-5559 -199 c0 -49 116 -118 257 -154 266 -66 570 -350 1343 -1251 650 -758 617 -847 -66 -181 -324 316 -641 575 -704 575 -62 0 -173 138 -247 306 -101 233 -233 333 -548 418 -275 74 -398 157 -364 244 56 147 329 183 329 43z m3400 -211 c0 -110 -19 -200 -42 -200 -23 0 -114 -28 -203 -62 -141 -54 -146 -28 -42 200 141 311 287 342 287 62z m9600 -181 c0 -126 -29 -119 -147 37 -192 254 -194 402 -3 244 82 -68 150 -195 150 -281z m-7218 112 c-21 -110 -243 -232 -632 -349 -695 -208 -850 -222 -850 -77 0 112 555 376 1050 500 450 112 467 109 432 -74z m-3432 -271 c520 2 563 -11 322 -99 -177 -65 -258 -153 -224 -243 45 -115 -33 -128 -422 -71 -262 39 -493 117 -513 173 -21 57 -119 173 -220 259 -272 233 -116 359 191 155 182 -122 455 -176 866 -174z m911 -241 c-73 -120 -561 -218 -561 -113 0 79 522 291 585 237 19 -16 9 -72 -24 -124z m13499 -378 c6 -105 17 -315 25 -466 15 -270 215 -402 215 -142 0 82 117 134 300 134 183 0 300 -52 300 -134 0 -73 -71 -133 -157 -133 -87 0 -225 -67 -307 -150 -83 -82 -256 -150 -385 -150 -129 0 -312 -30 -407 -66 -153 -59 -164 -14 -99 416 39 265 113 591 164 724 105 276 336 254 351 -33z m-14710 -141 c34 -55 17 -100 -38 -100 -55 0 -128 45 -162 100 -34 55 -17 100 38 100 55 0 128 -45 162 -100z m15796 -1437 c-90 -476 -223 -468 -186 12 15 206 31 418 34 470 3 53 53 48 113 -12 64 -64 80 -253 39 -470z m4016 -10 c76 -109 138 -332 138 -497 0 -540 -294 -67 -340 547 -22 301 -17 457 12 347 29 -110 114 -289 190 -397z m-9613 -50 c36 -163 177 -461 313 -661 309 -455 229 -567 -147 -206 -288 276 -515 813 -440 1040 73 218 207 134 274 -173z m4551 103 c0 -52 -45 -122 -100 -156 -55 -34 -100 -157 -100 -273 0 -115 -27 -184 -60 -151 -86 87 60 674 168 674 51 0 92 -42 92 -94z m-13481 -369 c266 -133 785 -570 1200 -1009 1480 -1570 3296 -3347 3357 -3286 34 35 -185 321 -488 636 -698 726 -1210 1375 -1435 1822 -258 510 -462 711 -660 648 -115 -37 -254 48 -415 254 -133 170 -441 442 -685 603 -422 280 -430 294 -168 295 151 0 275 -46 275 -102 0 -56 104 -150 231 -208 128 -58 307 -226 398 -373 91 -147 167 -209 168 -138 2 70 -70 239 -159 375 -96 146 -117 246 -52 246 61 0 202 -180 314 -400 112 -220 248 -400 302 -400 152 0 117 149 -102 427 -110 140 -200 277 -200 304 0 124 422 -77 562 -268 l157 -213 -66 225 c-61 207 -34 225 332 225 319 0 438 -55 599 -275 110 -151 232 -242 272 -202 40 40 15 142 -56 227 -151 182 -61 319 123 186 73 -52 790 -67 1677 -35 1208 45 1568 29 1630 -72 118 -190 272 -157 211 46 -29 96 66 -50 210 -325 144 -275 450 -669 680 -875 284 -254 364 -375 250 -375 -93 0 -198 47 -234 104 -35 57 -141 80 -236 50 -241 -77 -610 210 -427 331 112 73 107 143 -27 402 -89 172 -206 313 -260 313 -115 0 -128 -135 -22 -243 41 -42 75 -240 75 -441 0 -213 46 -358 111 -346 61 11 169 -90 242 -225 72 -135 192 -245 267 -245 109 0 114 -44 21 -216 -103 -193 -125 -198 -208 -50 -51 91 -163 166 -249 166 -141 0 -141 -25 4 -246 157 -240 153 -249 -192 -413 -194 -92 -393 -242 -442 -333 -99 -185 -1281 -765 -1372 -673 -32 32 -146 -53 -253 -188 -106 -136 -266 -247 -355 -247 -121 0 -89 -76 126 -300 329 -344 491 -387 403 -108 -73 229 420 740 635 657 75 -29 203 27 283 124 137 166 141 165 79 -23 -75 -223 -130 -435 -246 -950 -97 -428 -289 -896 -298 -725 -3 69 -95 125 -204 125 -110 0 -612 379 -1122 847 -732 672 -968 835 -1144 790 -179 -44 -213 -19 -174 130 31 119 -61 290 -257 478 -168 161 -305 342 -305 402 0 60 -292 399 -650 753 -357 354 -650 700 -650 767 0 68 -157 276 -349 463 -326 316 -594 461 -1431 775 -184 69 -395 250 -479 412 l-149 289 279 -67 c153 -37 490 -173 748 -302z m14081 51 c0 -55 -45 -72 -100 -38 -55 34 -100 107 -100 162 0 55 45 72 100 38 55 -34 100 -107 100 -162z m-1144 -865 c-105 -106 -124 27 -66 477 l58 450 32 -435 c18 -240 7 -461 -24 -492z m-3796 -197 c-90 -90 -860 684 -860 864 0 86 197 -53 462 -325 253 -261 433 -504 398 -539z m-1260 624 c129 -137 205 -278 169 -314 -35 -36 -93 9 -127 99 -35 90 -101 140 -147 112 -47 -29 -134 39 -194 150 -149 280 16 254 299 -47z m6200 44 c0 -52 -67 -94 -150 -94 -155 0 -199 118 -86 231 80 80 236 -11 236 -137z m16 -719 c9 -234 5 -650 -8 -925 -25 -542 134 -1098 287 -1003 52 32 146 -36 208 -152 92 -173 80 -236 -70 -346 -158 -117 -188 -112 -216 33 -19 92 -94 215 -167 273 -133 104 -335 1852 -268 2320 55 385 217 246 234 -200z m4704 0 c23 -124 40 -617 36 -1096 -5 -726 -37 -893 -191 -1005 -166 -122 -172 -177 -59 -555 69 -231 98 -448 64 -482 -118 -118 -370 58 -370 260 0 312 -172 241 -221 -92 -50 -345 70 -605 279 -605 129 0 129 -36 -4 -292 -142 -274 -427 -407 -985 -459 -99 -9 -276 -112 -393 -229 -196 -196 -199 -217 -38 -279 97 -37 226 -17 289 46 180 180 273 133 273 -137 0 -162 -56 -250 -160 -250 -88 0 -358 -210 -600 -466 -418 -443 -607 -493 -293 -78 81 107 148 235 150 284 5 154 -408 -272 -573 -590 -86 -165 -173 -250 -194 -188 -44 129 424 1048 583 1146 59 36 87 151 63 254 -37 155 -152 77 -650 -433 -363 -373 -584 -541 -553 -421 62 236 1022 1207 1540 1557 199 135 490 255 647 267 236 18 289 72 313 320 15 164 39 410 53 548 17 173 -41 278 -189 343 -186 82 -220 198 -261 901 -32 528 -10 830 62 877 203 130 280 -93 280 -815 0 -500 35 -705 116 -678 166 54 210 1448 52 1639 -99 119 -95 166 20 239 262 166 286 101 315 -831 41 -1305 225 -1188 246 156 9 595 41 1146 71 1225 83 216 233 173 282 -81z m-10739 -128 c-31 -30 -87 25 -125 124 -54 142 -42 154 56 56 69 -68 99 -149 69 -180z m5409 -372 c6 -96 -35 -175 -90 -175 -55 0 -96 191 -90 425 8 361 22 387 90 175 44 -137 85 -329 90 -425z m-407 -75 c2 -92 -30 -73 -83 50 -47 110 -85 290 -83 400 2 161 19 151 83 -50 44 -137 81 -317 83 -400z m-3505 26 l472 -474 -426 -90 c-407 -87 -441 -75 -775 269 -347 357 -440 569 -249 569 55 0 100 -43 100 -96 0 -117 719 -619 787 -550 27 27 -94 197 -269 377 -175 181 -318 360 -318 399 0 177 244 32 678 -404z m-7276 122 c193 -233 55 -277 -151 -49 -100 111 -136 201 -79 201 57 0 160 -69 230 -152z m13636 -348 c36 -220 109 -400 163 -400 232 0 64 -219 -420 -544 -350 -236 -556 -318 -634 -254 -63 53 -140 72 -170 42 -77 -77 -277 537 -275 846 1 205 22 228 98 110 53 -82 98 -246 98 -363 2 -211 261 -512 358 -415 27 28 -30 190 -127 360 -131 228 -148 339 -66 421 83 83 130 18 179 -246 48 -255 119 -357 250 -357 314 0 444 252 319 613 -147 421 -140 587 26 587 83 0 163 -159 201 -400z m-1288 200 c-34 -55 -82 -100 -106 -100 -24 0 -44 45 -44 100 0 55 48 100 106 100 58 0 78 -45 44 -100z m-4150 -306 c0 -58 -45 -78 -100 -44 -55 34 -100 82 -100 106 0 24 45 44 100 44 55 0 100 -48 100 -106z m-2090 -374 c-131 -44 -410 156 -410 295 0 49 119 12 264 -83 145 -95 211 -190 146 -212z m6023 -195 c36 -187 21 -325 -35 -325 -54 0 -98 165 -98 367 0 428 46 414 133 -42z m2694 -195 c29 -258 4 -585 -57 -725 -98 -229 -115 -190 -172 395 -35 358 -46 684 -25 725 100 196 206 32 254 -395z m-3897 -761 c18 -154 1 -300 -37 -323 -98 -61 -195 499 -180 1042 l12 462 86 -450 c47 -247 101 -576 119 -731z m-530 892 c0 -22 -70 -66 -155 -99 -89 -34 -129 -18 -94 39 58 95 249 141 249 60z m960 -234 c-33 -33 -56 26 -52 131 5 117 28 141 60 61 29 -72 26 -159 -8 -192z m2927 -502 c-17 -371 6 -735 52 -807 129 -208 -306 -606 -652 -596 -176 5 -389 -83 -539 -224 l-248 -233 0 318 c0 215 -48 317 -150 317 -85 0 -150 90 -150 207 0 113 -49 297 -108 408 -86 161 -71 228 75 336 250 185 341 62 418 -566 46 -380 108 -535 215 -535 151 0 205 256 229 1075 6 206 47 375 91 375 84 0 131 -450 97 -932 -17 -240 14 -278 207 -250 201 28 229 97 256 607 16 316 -12 575 -64 575 -156 0 -228 315 -105 463 62 75 180 137 260 137 118 0 141 -134 116 -675z m-3890 -162 c-4 -486 -137 -335 -254 287 -68 365 -60 388 91 263 107 -88 165 -285 163 -550z m-499 -44 c1 -182 -38 -306 -86 -276 -49 30 -91 244 -94 477 -4 296 22 379 86 276 51 -80 94 -295 94 -477z m1602 189 c0 -105 26 -258 57 -340 38 -100 -3 -143 -125 -133 -181 15 -371 421 -272 581 99 160 340 83 340 -108z m1760 -281 c-33 -33 -56 26 -52 131 5 117 28 141 60 61 29 -72 26 -159 -8 -192z m700 -200 c-33 -33 -56 26 -52 131 5 117 28 141 60 61 29 -72 26 -159 -8 -192z m-4960 -133 c0 -58 -45 -78 -100 -44 -55 34 -100 82 -100 106 0 24 45 44 100 44 55 0 100 -48 100 -106z m3307 -807 c46 -453 45 -891 -2 -974 -56 -101 -107 82 -151 542 -36 382 -104 791 -152 908 -55 135 -46 253 24 323 166 166 191 95 281 -799z m2992 688 c-4 -350 -154 -555 -580 -795 -258 -146 -601 -403 -763 -572 -309 -324 -591 -414 -492 -158 68 176 -5 189 -271 46 -267 -143 -242 22 52 339 135 146 354 265 487 265 290 0 731 327 821 609 95 300 749 533 746 266z m-4916 -269 c22 -145 -6 -204 -75 -161 -59 37 -108 19 -108 -39 0 -58 -45 -106 -100 -106 -112 0 -137 429 -31 535 121 122 280 6 314 -229z m-823 -79 c-33 -33 -56 26 -52 131 5 117 28 141 60 61 29 -72 26 -159 -8 -192z m2134 -1032 c3 -250 47 -498 98 -550 79 -82 151 -1169 119 -1809 -9 -178 -278 -409 -365 -313 -13 15 13 252 58 527 91 557 -127 2437 -329 2835 -102 201 -91 256 78 380 185 136 201 121 266 -235 38 -209 72 -585 75 -835z m4897 -145 c-3 -483 -32 -638 -91 -500 -74 173 -87 159 -97 -100 -10 -266 -31 -244 -182 199 -165 480 -164 515 27 919 253 539 351 391 343 -518z m-3841 215 c0 -425 30 -513 172 -502 158 13 159 -9 16 -286 -217 -419 -352 -232 -352 485 0 717 29 957 106 878 32 -32 58 -291 58 -575z m-2190 262 c-33 -33 -56 26 -52 131 5 117 28 141 60 61 29 -72 26 -159 -8 -192z m430 -555 c6 -237 66 -400 160 -436 112 -43 146 -201 133 -622 -17 -531 -20 -538 -57 -119 -27 308 -67 401 -127 303 -159 -258 -235 -7 -264 878 -20 589 -1 792 58 624 48 -137 92 -420 97 -628z m-856 285 c30 -79 78 -428 106 -775 l52 -632 -98 500 c-54 275 -138 624 -187 775 -91 278 25 397 127 132z m-734 -263 c0 -58 -45 -78 -100 -44 -55 34 -100 82 -100 106 0 24 45 44 100 44 55 0 100 -48 100 -106z m6193 -619 c4 -41 -38 -75 -93 -75 -55 0 -97 124 -93 275 6 244 17 252 93 75 47 -110 89 -234 93 -275z m-12593 225 c0 -55 -45 -100 -100 -100 -55 0 -100 -67 -100 -150 0 -82 -45 -150 -100 -150 -114 0 -127 113 -39 342 66 173 339 219 339 58z m550 -325 c-108 -540 -159 -675 -254 -675 -100 0 -19 549 122 825 141 276 204 205 132 -150z m8906 -122 c46 -246 21 -390 -88 -500 -236 -235 -268 -193 -268 347 0 604 251 713 356 153z m-2696 -226 c-33 -33 -56 26 -52 131 5 117 28 141 60 61 29 -72 26 -159 -8 -192z m6940 117 c0 -86 -45 -128 -100 -94 -55 34 -100 104 -100 156 0 52 45 94 100 94 55 0 100 -70 100 -156z m-334 -369 c-28 -69 -50 -12 -50 125 0 138 22 194 50 125 28 -69 28 -181 0 -250z m-13506 48 c254 -169 324 -470 186 -799 -75 -178 -164 -324 -197 -324 -33 0 -36 40 -5 90 30 49 -12 218 -94 375 -157 301 -202 736 -75 733 41 0 125 -34 185 -75z m7285 -547 c-44 -451 -41 -443 -139 -276 -101 173 -22 722 94 650 42 -26 63 -194 45 -374z m5477 -94 c-63 -63 -77 3 -40 185 43 210 68 235 97 97 22 -102 -4 -229 -57 -282z m744 -209 c-28 -68 -49 12 -47 177 3 165 25 220 50 123 26 -97 24 -232 -3 -300z m-5066 -214 c0 -91 -70 -122 -200 -88 -110 29 -200 92 -200 141 0 48 90 88 200 88 110 0 200 -63 200 -141z"/>
<path d="M15600 21425 c0 -42 135 -203 300 -359 165 -156 300 -360 300 -454 0 -95 56 -235 125 -312 107 -120 99 -121 -52 -6 -98 74 -197 115 -221 91 -72 -72 64 -485 160 -485 48 0 88 -67 88 -150 0 -82 51 -150 114 -150 181 0 32 -1942 -200 -2600 -377 -1073 -634 -1557 -1125 -2122 -483 -555 -495 -584 -433 -1050 60 -456 44 -500 -355 -953 -445 -506 -447 -572 -8 -313 447 264 746 897 607 1288 -53 150 35 325 352 700 507 598 955 1464 1306 2523 201 606 259 986 264 1727 9 1400 -65 1692 -562 2234 -390 425 -660 584 -660 391z"/>
<path d="M17354 20475 c76 -356 120 -435 197 -358 83 83 -68 683 -171 683 -56 0 -67 -137 -26 -325z"/>
<path d="M16902 20581 c0 -72 45 -198 98 -281 79 -122 97 -109 98 69 1 121 -43 247 -98 281 -55 34 -99 3 -98 -69z"/>
<path d="M15007 20418 c4 -37 44 -158 89 -268 77 -185 88 -187 155 -22 59 145 100 154 222 53 125 -104 144 -94 114 61 -24 118 -138 197 -312 215 -151 16 -272 -1 -268 -39z"/>
<path d="M18600 20245 c0 -30 61 -176 136 -325 316 -626 261 -2239 -94 -2791 -78 -122 -142 -268 -142 -323 0 -56 -155 -429 -344 -829 -331 -702 -1299 -1917 -1906 -2395 -445 -350 -1558 -1082 -1646 -1082 -120 0 -341 -296 -272 -365 33 -34 297 91 586 277 289 186 696 415 904 508 413 186 1629 1378 2093 2051 160 233 493 841 739 1352 387 802 540 1309 815 2702 68 346 -188 899 -514 1113 -260 170 -355 199 -355 107z"/>
<path d="M17994 20075 c-4 -14 -22 -470 -41 -1014 -29 -822 -72 -1037 -252 -1281 -241 -326 -206 -580 80 -580 403 0 567 375 719 1646 90 747 83 809 -119 1025 -185 196 -366 291 -387 204z"/>
<path d="M18950 16200 c-34 -55 -14 -100 44 -100 58 0 106 45 106 100 0 55 -20 100 -44 100 -24 0 -72 -45 -106 -100z"/>
<path d="M13175 12429 c-206 -83 -375 -193 -375 -246 0 -52 45 -67 100 -33 124 77 132 -76 11 -205 -125 -133 -18 -721 142 -782 73 -28 290 -7 482 46 280 77 364 160 419 411 59 269 30 344 -200 512 -184 134 -232 220 -151 270 245 151 -68 171 -428 27z m575 -636 c0 -77 -79 -155 -175 -174 -172 -33 -244 179 -106 316 105 105 281 16 281 -142z"/>
<path d="M8750 9500 c-34 -55 -14 -100 44 -100 58 0 106 45 106 100 0 55 -20 100 -44 100 -24 0 -72 -45 -106 -100z"/>
<path d="M7108 8891 c-162 -65 -209 -130 -142 -197 130 -130 434 -13 434 167 0 76 -11 136 -25 133 -14 -4 -134 -50 -267 -103z"/>
<path d="M12203 8704 c-81 -51 -118 -122 -83 -158 88 -87 480 44 480 161 0 119 -207 117 -397 -3z"/>
<path d="M9875 8631 c-96 -25 -175 -90 -175 -145 0 -142 426 -62 476 89 42 128 3 135 -301 56z"/>
<path d="M6760 17630 c-159 -84 -471 -169 -692 -191 -397 -38 -936 -304 -831 -410 30 -29 231 17 448 103 216 87 414 136 441 109 26 -27 289 57 583 186 294 129 491 261 437 294 -53 33 -227 -8 -386 -91z"/>
<path d="M6425 17043 c-234 -140 -425 -207 -425 -149 0 168 -250 124 -524 -91 -150 -118 -251 -300 -251 -450 0 -139 11 -253 25 -253 143 0 738 322 777 421 49 123 521 394 904 519 100 32 154 104 119 159 -89 144 -150 129 -625 -156z m-671 -436 c-36 -59 -114 -107 -172 -107 -66 0 -59 57 20 152 137 166 260 129 152 -45z"/>
<path d="M6852 15123 c-274 -137 -544 -302 -600 -367 -56 -65 -293 -205 -526 -312 -233 -107 -424 -250 -425 -319 -1 -163 -15 -166 637 132 309 142 562 317 562 390 0 73 202 216 450 318 247 102 449 241 450 310 0 69 -11 119 -25 111 -14 -7 -249 -126 -523 -263z"/>
<path d="M5673 14979 c-260 -112 -473 -266 -473 -342 0 -75 24 -137 53 -137 88 0 1047 500 1047 546 0 136 -210 114 -627 -67z"/>
<path d="M9762 13936 c-235 -127 -303 -132 -369 -24 -107 172 -219 54 -253 -267 -24 -220 2 -245 191 -187 445 138 974 453 917 546 -79 127 -143 118 -486 -68z"/>
<path d="M4719 18494 c24 -72 103 -151 175 -175 75 -25 112 12 87 87 -24 72 -103 151 -175 175 -75 25 -112 -12 -87 -87z"/>
<path d="M22477 14944 c-76 -76 232 -844 338 -844 122 0 105 158 -60 553 -148 355 -180 389 -278 291z"/>
<path d="M22078 14844 c-30 -29 32 -330 137 -667 292 -938 435 -3750 256 -5010 -51 -355 -38 -473 50 -443 236 78 297 760 257 2876 -34 1774 -70 2202 -209 2450 -92 165 -168 373 -168 463 -1 177 -236 418 -323 331z"/>
<path d="M22978 14845 c-30 -30 -11 -244 42 -475 54 -231 102 -1556 108 -2945 11 -2439 73 -3031 219 -2063 75 501 87 4617 14 4847 -24 78 -71 265 -105 416 -57 261 -157 341 -278 220z"/>
<path d="M21743 14175 c159 -787 233 -2288 217 -4392 -15 -2146 58 -2818 182 -1656 212 1992 96 5516 -200 6089 -195 377 -280 360 -199 -41z"/>
<path d="M20855 13325 c42 -96 97 -501 122 -900 25 -399 78 -725 119 -725 72 0 29 1424 -50 1675 -22 69 -91 125 -154 125 -71 0 -85 -66 -37 -175z"/>
<path d="M20509 10250 c3 -350 15 -371 97 -166 59 147 58 295 -3 400 -74 127 -96 71 -94 -234z"/>
<path d="M23313 8433 c-15 -470 60 -733 208 -733 58 0 68 75 25 175 -41 96 -108 355 -148 575 l-73 400 -12 -417z"/>
<path d="M22600 7936 c0 -305 61 -573 158 -692 156 -191 157 -191 85 6 -40 110 -83 394 -97 631 -34 610 -146 652 -146 55z"/>
<path d="M22331 7478 c25 -862 170 -1148 415 -823 190 251 193 381 8 310 -107 -41 -162 44 -205 315 -140 892 -242 984 -218 198z"/>
<path d="M8506 7650 c-1 -148 588 -821 591 -677 2 68 -131 271 -294 450 -163 180 -297 282 -297 227z"/>
<path d="M8200 7181 c1 -176 397 -817 464 -750 63 62 -249 748 -376 827 -48 29 -88 -5 -88 -77z"/>
<path d="M12502 6831 c0 -100 45 -248 98 -331 76 -117 97 -91 98 119 1 148 -43 297 -98 331 -55 34 -99 -20 -98 -119z"/>
<path d="M12200 6267 c0 -171 104 -276 210 -211 100 62 2 344 -121 344 -49 0 -89 -60 -89 -133z"/>
<path d="M11769 5436 c-35 -35 -39 -103 -9 -152 64 -103 240 -14 240 122 0 107 -136 125 -231 30z"/>
<path d="M11500 5000 c0 -55 45 -100 100 -100 55 0 100 45 100 100 0 55 -45 100 -100 100 -55 0 -100 -45 -100 -100z"/>
<path d="M11200 4600 c0 -55 45 -100 100 -100 55 0 100 45 100 100 0 55 -45 100 -100 100 -55 0 -100 -45 -100 -100z"/>
<path d="M11258 3613 c-43 -69 -51 -153 -18 -186 89 -90 187 42 139 187 -34 101 -58 101 -121 -1z"/>
<path d="M20602 4175 c-1 -151 43 -275 98 -275 126 0 126 204 0 400 -76 117 -97 89 -98 -125z"/>
<path d="M24164 2550 c31 -82 75 -150 97 -150 21 0 39 68 39 150 0 83 -44 150 -97 150 -53 0 -71 -67 -39 -150z"/>
<path d="M11200 24847 c0 -210 239 -284 565 -175 461 153 404 328 -107 328 -345 0 -458 -38 -458 -153z"/>
<path d="M0 11305 c0 -124 145 -296 375 -445 206 -133 498 -360 648 -504 262 -250 1220 -1794 1536 -2477 84 -181 217 -441 296 -579 79 -137 120 -313 92 -389 -29 -77 13 -212 91 -300 247 -278 387 -974 242 -1206 -104 -167 -96 -251 47 -493 198 -336 228 -647 56 -590 -121 41 -305 495 -428 1056 -60 275 -46 312 96 258 130 -50 159 -14 133 167 -42 287 -251 372 -314 128 -31 -121 -51 -91 -58 88 -12 260 -169 457 -278 348 -51 -50 367 -1818 517 -2192 41 -101 25 -175 -36 -175 -59 0 -160 191 -224 425 -259 942 -561 1715 -687 1757 -94 31 -117 -24 -78 -194 49 -213 346 -1228 521 -1778 37 -116 23 -210 -32 -210 -54 0 -146 221 -204 491 -58 270 -219 659 -358 864 -139 205 -253 412 -253 459 0 47 -42 86 -93 86 -51 0 11 -259 139 -575 127 -316 261 -755 298 -975 74 -449 437 -983 523 -771 40 99 85 102 191 14 176 -146 480 -37 410 147 -37 96 5 122 138 87 136 -35 219 20 283 187 l90 236 108 -275 c171 -436 613 -2728 613 -3179 0 -561 145 -796 491 -796 l284 0 -196 396 c-108 218 -261 724 -340 1125 -79 401 -166 830 -193 954 -36 162 -4 225 115 225 165 0 160 274 -15 725 -39 101 -21 175 41 175 60 0 137 -112 172 -250 114 -454 249 -263 194 275 -54 522 -54 523 78 181 117 -304 369 -543 369 -351 0 290 -257 837 -413 877 -103 27 -187 8 -187 -41 0 -50 -45 -91 -100 -91 -55 0 -194 -94 -308 -208 -238 -238 -261 -230 -330 110 -27 137 -95 383 -152 548 -56 165 -176 638 -267 1050 -91 413 -197 795 -236 850 -68 96 -147 355 -410 1350 -302 1136 -1539 2910 -2267 3250 -209 97 -459 217 -555 267 -139 71 -175 48 -175 -112z m4393 -8080 c-6 -244 -17 -252 -93 -75 -117 273 -117 350 0 350 55 0 97 -124 93 -275z"/>
<path d="M0 10470 c0 -85 180 -308 400 -497 220 -188 449 -484 510 -657 140 -404 423 -439 328 -41 -58 240 -537 784 -1068 1212 -146 118 -170 116 -170 -17z"/>
<path d="M0 9796 c0 -57 88 -277 196 -488 208 -408 452 -573 569 -385 39 64 16 133 -50 155 -66 22 -210 216 -320 431 -187 368 -395 519 -395 287z"/>
<path d="M4 7733 c-2 -174 92 -534 209 -800 530 -1205 754 -2000 445 -1577 -249 341 -283 77 -67 -530 115 -324 209 -665 209 -758 0 -196 160 -225 234 -43 76 187 263 -117 261 -425 -1 -218 -14 -227 -103 -75 -100 172 -395 248 -389 100 2 -41 69 -162 150 -269 81 -107 143 -287 139 -400 -6 -152 -48 -114 -159 144 -184 425 -429 714 -545 642 -48 -29 -19 -215 64 -413 213 -509 104 -531 -152 -29 -254 498 -379 455 -219 -75 63 -206 127 -464 143 -574 41 -286 376 -328 376 -47 l0 218 175 -213 c152 -185 220 -199 520 -112 397 116 471 50 558 -497 30 -192 98 -513 151 -712 53 -198 96 -499 96 -666 0 -552 74 -623 636 -611 463 9 488 21 251 115 -280 111 -232 -26 -925 2624 -328 1254 -705 2340 -1061 3050 -151 303 -358 775 -460 1050 -102 275 -263 658 -359 850 l-174 350 -4 -317z"/>
<path d="M4500 6832 c0 -105 -45 -237 -101 -293 -120 -120 292 -1353 473 -1413 264 -88 49 1549 -234 1784 -109 90 -138 74 -138 -78z"/>
<path d="M4040 6125 l62 -375 -154 342 c-100 226 -187 309 -252 244 -64 -64 -29 -299 103 -683 110 -321 202 -656 203 -744 2 -281 174 -473 306 -341 64 64 174 94 244 67 227 -87 255 141 60 482 -104 183 -244 569 -311 858 -139 604 -357 729 -261 150z m226 -950 c-28 -69 -50 -12 -50 125 0 138 22 194 50 125 28 -69 28 -181 0 -250z"/>
<path d="M6600 5983 c0 -193 361 -527 437 -404 31 51 -54 196 -190 324 -186 174 -247 194 -247 80z"/>
<path d="M6391 5617 c130 -244 399 -461 475 -384 67 66 -367 562 -495 565 -43 1 -34 -80 20 -181z"/>
<path d="M0 5240 c0 -165 40 -343 88 -395 48 -52 142 -264 208 -470 114 -358 304 -514 304 -250 0 176 -396 1205 -508 1320 -57 59 -92 -20 -92 -205z"/>
<path d="M6100 5442 c1 -50 112 -227 247 -392 166 -203 247 -249 249 -142 2 86 -108 263 -246 392 -137 129 -250 193 -250 142z"/>
<path d="M15065 4553 c-31 -81 -18 -170 29 -199 47 -29 110 13 141 93 31 81 18 170 -29 199 -47 29 -110 -13 -141 -93z"/>
<path d="M7600 4490 c0 -158 833 -1090 975 -1090 202 0 144 165 -118 336 -134 88 -323 294 -420 459 -181 307 -437 480 -437 295z"/>
<path d="M8 4358 c-4 -105 19 -164 52 -131 34 33 37 120 8 192 -32 80 -55 56 -60 -61z"/>
<path d="M6403 4294 c-4 -224 252 -548 331 -420 36 58 -23 211 -131 341 -145 174 -197 195 -200 79z"/>
<path d="M15260 4241 c-85 -223 -78 -241 90 -241 82 0 150 65 150 144 0 212 -169 280 -240 97z"/>
<path d="M7300 4099 c-97 -180 -94 -242 15 -310 363 -230 607 34 307 333 l-202 202 -120 -225z"/>
<path d="M12892 4075 c-14 -377 -54 -599 -227 -1258 -190 -728 -201 -851 -72 -771 51 31 149 315 216 631 68 315 159 640 204 723 161 298 90 -374 -106 -1003 -187 -601 -188 -626 -10 -816 179 -193 189 -181 493 608 319 827 385 1211 210 1211 -55 0 -100 -75 -100 -166 0 -265 -328 -1234 -418 -1234 -106 0 -104 31 28 368 201 517 275 1344 124 1402 -73 28 -134 159 -134 291 0 303 -197 317 -208 14z"/>
<path d="M6200 3784 c0 -187 275 -443 372 -345 37 36 -32 165 -153 286 -176 176 -219 188 -219 59z"/>
<path d="M15465 3753 c-60 -157 64 -290 171 -184 95 96 77 331 -25 331 -49 0 -115 -66 -146 -147z"/>
<path d="M7853 3605 c-36 -58 -22 -105 29 -105 52 0 118 -90 147 -200 29 -110 126 -200 215 -200 127 0 141 40 65 183 -152 284 -380 445 -456 322z"/>
<path d="M3325 3192 c-276 -105 -292 -349 -33 -488 166 -89 202 -61 260 204 81 369 62 393 -227 284z"/>
<path d="M2646 2825 c82 -332 202 -469 336 -386 142 87 -89 661 -265 661 -101 0 -120 -74 -71 -275z"/>
<path d="M2201 2895 c3 -274 122 -595 222 -595 57 0 70 114 31 275 -79 319 -255 541 -253 320z"/>
<path d="M8967 2933 c-109 -109 -76 -516 48 -592 183 -113 396 251 278 473 -104 193 -212 233 -326 119z"/>
<path d="M9723 2600 c69 -110 182 -200 251 -200 176 0 157 105 -49 261 -256 194 -345 168 -202 -61z"/>
<path d="M9500 2346 c0 -141 333 -538 411 -489 49 30 10 163 -86 296 -162 223 -325 320 -325 193z"/>
<path d="M16033 2000 c0 -288 99 -392 206 -217 66 106 -40 517 -134 517 -39 0 -72 -135 -72 -300z"/>
<path d="M14423 1617 c-68 -156 -304 -524 -524 -818 -397 -532 -473 -699 -318 -699 137 0 1119 1525 1119 1737 0 164 -164 33 -277 -220z"/>
<path d="M9564 1650 c31 -82 151 -150 266 -150 205 0 205 3 14 147 -251 190 -352 191 -280 3z"/>
<path d="M9589 1163 c62 -75 102 -239 87 -364 -14 -125 25 -245 88 -267 69 -25 107 68 98 238 -18 323 -127 530 -280 530 -72 0 -70 -45 7 -137z"/>
<path d="M14222 649 c-417 -654 -437 -841 -44 -423 214 228 566 963 496 1034 -21 21 -225 -254 -452 -611z"/>
<path d="M12 275 c-12 -271 -3 -275 563 -265 439 8 516 29 325 90 -137 44 -370 85 -518 90 -165 6 -285 77 -313 185 -28 108 -50 69 -57 -100z"/>
</g>
</svg>