<svg xmlns="http://www.w3.org/2000/svg" version="1.0" width="250" height="250" viewBox="0 0 250.000000 250.000000" preserveAspectRatio="xMidYMid meet">
<metadata>
Created by potrace 1.10, written by Peter Selinger 2001-2011
</metadata>
<g transform="translate(0.000000,250.000000) scale(0.010000,-0.010000)" fill="#555555" stroke="none">
<path d="M291 24547 c200 -526 440 -802 608 -698 82 51 46 151 -122 337 -132 145 -292 388 -356 539 -197 464 -313 305 -130 -178z"/>
<path d="M939 24843 c46 -120 13 -141 -140 -93 -284 90 -246 -71 102 -435 340 -356 422 -378 600 -164 103 124 79 196 -138 413 -145 145 -263 302 -263 350 0 47 -50 86 -111 86 -61 0 -83 -70 -50 -157z"/>
<path d="M1400 24943 c0 -83 704 -879 819 -926 45 -19 82 71 83 200 2 204 66 166 525 -317 558 -587 632 -900 211 -900 -166 0 -238 -57 -238 -188 0 -239 503 -455 1088 -466 342 -6 525 -80 827 -334 405 -340 429 -546 54 -466 -121 26 -700 139 -1287 251 -588 112 -1195 270 -1350 351 -155 80 -597 261 -982 402 -385 141 -778 300 -874 353 -95 54 -192 97 -215 97 -97 0 -31 -700 74 -780 113 -86 1031 -270 2015 -404 l500 -68 140 -824 c78 -453 185 -824 238 -824 92 0 69 280 -94 1188 -47 261 -30 327 77 292 89 -30 151 -239 173 -581 35 -552 261 -1034 455 -970 61 20 134 322 161 671 70 891 300 941 300 65 0 -359 50 -779 110 -933 l111 -282 91 238 c50 131 53 288 6 350 -126 167 -87 1088 48 1134 77 26 139 -213 187 -717 39 -415 107 -755 151 -755 135 0 158 323 60 831 -61 314 -58 515 8 581 173 173 418 -185 488 -716 43 -325 114 -496 205 -496 91 0 123 78 93 225 -146 730 -153 890 -32 850 68 -23 163 -252 210 -508 83 -454 186 -573 315 -365 37 60 140 8 249 -125 157 -192 206 -206 318 -89 104 108 105 147 7 183 -69 25 -125 180 -125 345 0 225 41 291 166 266 127 -24 171 -157 185 -562 22 -627 160 -824 450 -642 273 170 282 165 356 -228 37 -200 125 -350 204 -350 187 0 175 317 -28 744 -139 291 -208 341 -400 293 -160 -40 -233 -15 -233 81 0 90 112 138 323 135 275 -2 358 -66 557 -428 243 -440 589 -599 491 -225 -29 110 -15 200 32 200 46 0 112 -90 147 -200 69 -216 201 -260 300 -100 109 176 350 107 350 -100 0 -205 145 -271 243 -111 30 49 224 109 431 134 278 33 454 -11 676 -173 188 -136 461 -221 734 -229 238 -6 497 -64 575 -128 108 -90 176 -88 293 9 124 103 188 93 350 -54 110 -99 229 -151 264 -115 36 36 127 14 202 -48 227 -189 253 -29 52 328 -116 207 -265 337 -388 337 -110 0 -270 58 -357 130 -97 80 -180 92 -218 32 -33 -54 -15 -126 41 -161 56 -35 102 -105 102 -157 0 -184 -217 -90 -461 201 -136 162 -347 323 -468 358 -230 66 -560 203 -1200 498 -450 208 -621 113 -271 -151 283 -213 219 -370 -85 -208 -137 73 -225 255 -270 559 -76 507 -230 679 -315 354 -72 -278 -369 -227 -412 71 -37 260 -188 299 -236 61 -43 -216 -682 -280 -682 -68 0 229 -346 107 -381 -135 -16 -117 -122 -238 -235 -267 -169 -44 -196 -15 -157 165 26 120 81 299 123 398 64 154 38 171 -181 116 -497 -125 -1718 475 -2769 1359 -522 439 -966 854 -986 922 -19 68 -293 371 -609 673 -315 303 -602 629 -636 725 -35 96 -135 175 -223 175 -119 0 -142 -56 -89 -225 65 -212 58 -216 -119 -65 -259 220 -438 315 -438 233z m-250 -2664 c70 -74 25 -87 -150 -44 -137 34 -306 63 -375 64 -69 0 -125 51 -125 112 0 131 498 31 650 -132z m2440 -1254 c-8 -387 -25 -429 -90 -225 -116 361 -116 700 0 700 55 0 96 -214 90 -475z m2754 -116 c69 -111 -36 -409 -143 -409 -97 0 -199 368 -123 444 83 84 203 68 266 -35z m2906 -709 c-34 -55 -82 -100 -106 -100 -24 0 -44 45 -44 100 0 55 48 100 106 100 58 0 78 -45 44 -100z m350 -206 c0 -58 -45 -78 -100 -44 -55 34 -100 82 -100 106 0 24 45 44 100 44 55 0 100 -48 100 -106z m1602 -446 c193 -233 55 -277 -151 -49 -100 111 -136 201 -79 201 57 0 160 -69 230 -152z"/>
<path d="M4828 24658 c473 -730 928 -1511 1090 -1873 119 -267 252 -398 451 -445 154 -36 375 -151 489 -255 371 -335 1795 -513 1601 -199 -30 48 -235 111 -457 141 -224 30 -649 218 -959 423 -596 396 -686 617 -105 258 317 -196 356 -201 440 -50 73 130 135 142 292 58 144 -77 231 -75 315 9 87 87 144 86 235 -5 66 -66 235 -120 375 -120 140 -1 458 -135 705 -300 248 -165 525 -299 617 -300 92 0 295 -104 450 -231 737 -603 968 -699 2467 -1021 1384 -298 2265 -600 3449 -1184 238 -118 455 -248 481 -289 26 -41 -82 -199 -240 -350 -295 -281 -520 -839 -555 -1375 -24 -380 158 -397 200 -19 73 669 454 882 512 286 35 -346 319 -456 319 -123 0 275 190 358 341 151 79 -108 178 -145 257 -96 71 44 224 84 341 90 116 6 200 45 186 86 -14 41 -25 234 -25 427 0 290 -47 371 -266 454 -317 121 -177 353 150 249 153 -49 232 -206 316 -635 153 -779 171 -820 358 -820 130 0 152 67 107 325 -232 1324 -168 1202 -715 1371 -422 130 -495 188 -469 373 23 160 -51 262 -275 378 -168 87 -306 179 -306 206 0 153 372 -19 1082 -503 445 -302 850 -550 901 -550 51 0 70 -196 43 -436 -40 -353 -12 -463 145 -575 160 -114 194 -259 193 -815 -1 -372 47 -725 106 -784 165 -165 227 31 136 433 -52 229 -43 400 24 467 74 74 70 296 -12 744 -198 1074 -156 1153 374 707 336 -282 392 -441 158 -441 -82 0 -150 45 -150 100 0 55 -71 100 -157 100 -245 0 -125 -345 133 -382 168 -24 224 -99 226 -300 2 -385 135 -551 379 -474 114 36 297 9 408 -60 232 -145 407 -40 229 138 -140 140 -158 478 -26 478 51 0 119 -124 153 -275 55 -249 419 -525 692 -525 54 0 179 -74 278 -164 196 -177 171 -201 332 314 26 83 -14 150 -89 150 -177 0 -271 247 -143 375 54 54 84 273 67 487 -26 311 -72 388 -232 388 -184 0 -198 -57 -171 -700 27 -654 19 -687 -129 -500 -95 120 -136 293 -101 432 50 197 24 227 -170 200 -182 -25 -227 14 -221 193 8 233 -101 299 -208 125 -104 -169 -348 -112 -580 135 -121 129 -278 253 -349 276 -347 112 -1617 1265 -1722 1564 -127 359 -174 378 -544 209 -285 -130 -308 -191 -137 -362 225 -225 20 -214 -583 30 -334 134 -1153 402 -1821 594 -668 192 -1325 422 -1461 511 -152 100 -561 182 -1075 215 -455 30 -889 103 -963 161 -100 80 -158 65 -227 -58 -83 -149 -176 -130 -915 184 -453 191 -945 437 -1094 545 -149 108 -399 196 -555 196 -193 0 -490 167 -929 522 -669 542 -2045 1378 -2268 1378 -285 0 -89 -176 598 -536 793 -416 1562 -994 1193 -898 -116 31 -263 118 -327 195 -64 76 -159 139 -213 139 -53 0 -228 93 -387 207 -168 119 -368 182 -475 148 -137 -43 -295 81 -624 493 -392 492 -480 552 -813 552 l-373 0 222 -342z m908 -508 c351 -439 540 -762 508 -867 -29 -91 -5 -195 52 -230 154 -96 126 -253 -44 -253 -82 0 -175 124 -208 275 -94 428 -260 825 -347 825 -81 0 -597 829 -597 959 0 92 -37 133 636 -709z m7737 -2719 c-97 -26 -232 -24 -300 3 -68 28 12 49 177 47 165 -3 220 -25 123 -50z m1477 -578 c165 -16 356 -35 425 -41 69 -7 125 -74 125 -151 0 -76 169 -220 375 -320 275 -133 328 -192 198 -219 -98 -21 -368 54 -600 166 -233 112 -805 301 -1273 419 -1213 307 -1167 290 -1014 385 72 44 431 15 798 -65 366 -80 801 -158 966 -174z m1750 -859 c0 -58 -45 -78 -100 -44 -55 34 -100 82 -100 106 0 24 45 44 100 44 55 0 100 -48 100 -106z m2600 -551 c0 -119 -41 -128 -200 -43 -110 59 -200 175 -200 257 0 119 41 128 200 43 110 -59 200 -175 200 -257z m-2054 -729 c77 -244 -31 -514 -207 -514 -92 0 -139 118 -139 350 0 382 240 496 346 164z m3554 -520 c0 -58 -45 -78 -100 -44 -55 34 -100 82 -100 106 0 24 45 44 100 44 55 0 100 -48 100 -106z"/>
<path d="M9872 24848 c345 -241 1514 -742 2017 -864 254 -61 619 -189 811 -284 2816 -1389 3560 -1743 4179 -1985 705 -277 746 -281 1250 -142 566 156 641 139 1471 -332 626 -355 3026 -1373 3750 -1590 330 -100 836 -284 1125 -410 397 -174 525 -197 525 -94 0 75 -53 154 -118 176 -65 21 -84 94 -42 161 42 68 95 416 118 775 49 768 -118 794 -218 35 -79 -595 -271 -793 -223 -230 46 540 -156 586 -217 49 -50 -436 -50 -436 -238 -227 -144 160 -176 305 -135 612 30 221 18 402 -26 402 -118 0 -201 -272 -201 -658 0 -234 -46 -342 -146 -342 -186 0 -354 309 -354 649 0 150 -43 236 -100 201 -55 -34 -100 -158 -100 -276 0 -166 -27 -187 -120 -94 -163 163 -280 151 -280 -30 0 -215 -167 -185 -226 40 -39 147 -135 188 -419 180 -410 -11 -551 130 -553 555 -1 151 -47 275 -102 275 -55 0 -101 -146 -102 -325 l-2 -325 -196 250 c-108 138 -197 329 -198 425 -1 96 -51 175 -110 175 -68 0 -83 -111 -42 -300 36 -165 48 -300 27 -300 -101 0 -952 447 -1157 607 -126 98 -360 208 -520 243 -162 36 -318 150 -352 257 -34 106 -103 193 -155 193 -51 0 -93 68 -93 150 0 83 -45 150 -100 150 -102 0 -136 -180 -105 -566 21 -262 -268 -378 -702 -283 -347 77 -693 406 -693 661 0 325 -200 728 -309 619 -68 -68 -62 -185 17 -359 65 -143 91 -330 58 -416 -53 -140 -96 -138 -419 16 -288 137 -346 211 -295 374 157 499 176 683 62 613 -62 -39 -114 -130 -114 -203 0 -197 -252 -368 -437 -297 -251 96 -195 302 159 578 177 139 290 285 251 324 -40 39 -154 -4 -255 -95 -101 -91 -259 -166 -351 -166 -92 0 -167 -67 -167 -150 0 -82 -45 -150 -100 -150 -55 0 -100 89 -100 199 0 123 153 295 404 453 353 223 679 698 561 817 -67 66 -365 -272 -365 -415 0 -132 -414 -454 -585 -454 -117 0 -214 489 -110 553 43 27 94 0 113 -58 40 -118 382 -21 382 108 0 134 -332 167 -583 58 -241 -104 -244 -144 -61 -886 57 -234 36 -275 -143 -275 -151 0 -280 139 -463 500 -139 275 -298 500 -352 500 -123 0 -124 -65 0 -297 73 -136 60 -198 -53 -241 -144 -55 -229 69 -384 563 -99 316 -282 199 -209 -134 67 -305 65 -307 -167 -155 -129 84 -452 201 -717 260 -265 60 -812 265 -1215 456 -404 191 -838 348 -966 348 l-232 0 217 -152z"/>
<path d="M11300 24956 c0 -106 192 -150 249 -58 35 56 -7 102 -93 102 -86 0 -156 -20 -156 -44z"/>
<path d="M11882 24949 c-81 -82 29 -549 130 -549 48 0 87 79 86 175 -1 210 -140 450 -216 374z"/>
<path d="M12975 24878 c162 -78 288 -78 450 0 198 95 170 108 -225 108 -395 0 -423 -13 -225 -108z"/>
<path d="M14400 24800 c0 -110 45 -200 100 -200 55 0 100 90 100 200 0 110 -45 200 -100 200 -55 0 -100 -90 -100 -200z"/>
<path d="M16000 24900 c197 -127 600 -127 600 0 0 55 -169 99 -375 98 -279 -1 -337 -26 -225 -98z"/>
<path d="M18535 24846 c-81 -211 54 -325 169 -143 122 193 120 297 -7 297 -57 0 -130 -69 -162 -154z"/>
<path d="M21475 24753 c26 -136 108 -297 182 -359 153 -127 704 -38 808 130 105 170 -353 476 -712 476 -292 0 -320 -25 -278 -247z m624 50 c114 -73 122 -122 32 -212 -149 -149 -431 -47 -431 156 0 172 176 197 399 56z"/>
<path d="M22758 24886 c30 -47 183 -86 342 -86 159 0 312 39 342 86 29 48 -125 87 -342 87 -217 0 -371 -39 -342 -87z"/>
<path d="M24876 24525 c69 -647 124 -666 124 -42 0 285 -39 517 -88 517 -48 0 -64 -214 -36 -475z"/>
<path d="M17960 24816 c-35 -56 -15 -132 45 -169 154 -95 253 35 125 163 -72 72 -128 74 -170 6z"/>
<path d="M20142 24775 c32 -69 86 -204 120 -300 67 -191 238 -240 238 -68 0 177 -200 493 -312 493 -57 0 -78 -56 -46 -125z"/>
<path d="M13900 24506 c0 -168 45 -306 100 -306 55 0 100 110 100 244 0 134 -45 272 -100 306 -58 36 -100 -66 -100 -244z"/>
<path d="M19657 23675 c47 -779 115 -1178 219 -1298 206 -236 296 -151 341 322 25 262 -2 401 -79 401 -110 0 -338 999 -338 1483 0 119 -47 217 -105 217 -72 0 -84 -360 -38 -1125z"/>
<path d="M17100 24424 c0 -110 68 -256 150 -324 125 -104 150 -91 150 76 0 110 -67 256 -150 324 -125 104 -150 91 -150 -76z"/>
<path d="M22700 24208 c0 -292 107 -508 251 -508 78 0 111 75 82 186 -30 112 14 211 109 247 265 102 177 267 -142 267 -229 0 -300 -45 -300 -192z"/>
<path d="M24200 24257 c0 -213 197 -693 259 -631 83 82 -69 774 -170 774 -49 0 -89 -65 -89 -143z"/>
<path d="M16115 23868 c-137 -165 86 -519 375 -594 280 -74 628 199 591 461 -32 220 -481 381 -481 172 0 -59 68 -107 150 -107 190 0 197 -260 10 -332 -208 -80 -504 173 -429 368 75 196 -62 217 -216 32z"/>
<path d="M17900 23949 c0 -29 41 -130 92 -225 50 -96 145 -320 211 -498 66 -178 157 -301 201 -273 154 95 -216 1047 -408 1047 -53 0 -96 -23 -96 -51z"/>
<path d="M20600 23294 c0 -378 38 -583 100 -544 55 34 100 307 100 606 0 299 -45 544 -100 544 -56 0 -100 -269 -100 -606z"/>
<path d="M23561 23742 c-94 -244 -72 -542 39 -542 55 0 100 158 100 350 0 379 -44 440 -139 192z"/>
<path d="M21822 23685 c24 -74 125 -151 223 -170 114 -22 162 14 133 100 -24 74 -125 151 -223 170 -114 22 -162 -14 -133 -100z"/>
<path d="M18872 23635 c-82 -132 80 -368 220 -321 82 27 76 92 -23 227 -76 104 -165 147 -197 94z"/>
<path d="M21872 23125 c-74 -139 -5 -675 87 -675 50 0 105 169 122 375 27 330 -98 509 -209 300z"/>
<path d="M22403 23053 c-67 -80 -104 -199 -83 -263 22 -65 117 1 212 146 181 277 80 369 -129 117z"/>
<path d="M21300 22650 c0 -192 45 -350 100 -350 55 0 100 158 100 350 0 193 -45 350 -100 350 -55 0 -100 -157 -100 -350z"/>
<path d="M24063 22575 c-148 -551 26 -1280 198 -831 33 86 118 156 188 156 123 0 267 551 170 648 -99 99 -219 -71 -219 -310 0 -155 -41 -224 -109 -182 -66 40 -84 201 -45 405 70 375 -87 472 -183 114z"/>
<path d="M18918 22433 c46 -390 282 -424 282 -41 0 213 -48 308 -157 308 -111 0 -147 -78 -125 -267z"/>
<path d="M23467 22633 c-106 -105 -78 -1115 33 -1183 63 -39 100 182 100 594 0 661 -11 711 -133 589z"/>
<path d="M17100 22408 c0 -186 123 -405 201 -357 102 63 5 449 -113 449 -48 0 -88 -41 -88 -92z"/>
<path d="M17500 22250 c0 -82 45 -150 100 -150 55 0 100 68 100 150 0 83 -45 150 -100 150 -55 0 -100 -67 -100 -150z"/>
<path d="M22853 21975 c75 -458 114 -542 207 -448 93 93 -65 873 -178 873 -62 0 -73 -162 -29 -425z"/>
<path d="M22236 21725 c34 -206 62 -434 63 -506 1 -72 46 -103 101 -69 198 122 90 950 -124 950 -62 0 -78 -145 -40 -375z"/>
<path d="M4 20070 l10 -1954 318 -147 c175 -81 419 -177 543 -215 343 -103 276 -277 -325 -845 -303 -286 -550 -540 -550 -565 0 -150 311 9 644 331 255 247 348 300 270 153 -65 -122 -291 -360 -502 -530 -376 -302 -384 -324 -379 -952 6 -622 13 -639 211 -520 114 68 319 124 456 124 197 0 275 75 367 350 l118 350 7 -425 c5 -269 54 -425 133 -425 266 0 160 2807 -143 3822 -152 505 -305 369 -234 -206 l58 -466 -171 400 c-94 220 -202 423 -239 450 -73 53 -179 352 -243 686 -22 111 -1 328 45 483 l85 281 8 -260 c19 -572 409 -1233 409 -693 0 134 48 178 150 139 117 -45 151 28 156 328 6 332 19 355 97 161 50 -124 142 -225 205 -225 109 0 94 264 -63 1128 -25 142 -5 285 46 316 98 61 284 -670 379 -1494 121 -1052 453 -1181 385 -150 -35 539 -15 700 87 700 139 0 258 -421 258 -912 0 -159 49 -288 109 -288 127 0 83 689 -111 1750 -148 807 -151 813 -321 674 -82 -67 -396 -77 -888 -29 -827 82 -989 141 -989 361 0 79 -19 144 -42 144 -23 0 -114 28 -203 62 -145 56 -160 -134 -151 -1892z m862 -395 c-28 -69 -50 -12 -50 125 0 138 22 194 50 125 28 -69 28 -181 0 -250z m-266 -1532 c0 -28 -90 -2 -200 57 -110 59 -200 130 -200 157 0 28 90 2 200 -57 110 -59 200 -130 200 -157z m260 -2116 c-33 -33 -56 26 -52 131 5 117 28 141 60 61 29 -72 26 -159 -8 -192z m-260 -277 c0 -137 -40 -250 -88 -250 -105 0 -215 364 -134 444 125 126 222 41 222 -194z"/>
<path d="M21600 21242 c0 -163 47 -243 125 -217 69 23 114 72 100 108 -14 37 -25 135 -25 217 0 83 -45 150 -100 150 -55 0 -100 -116 -100 -258z"/>
<path d="M3145 19492 c-37 -60 -75 -355 -84 -656 -9 -301 -69 -579 -132 -618 -144 -89 -212 -751 -83 -818 53 -27 126 96 162 274 37 179 109 381 162 450 92 121 168 1476 83 1476 -22 0 -71 -49 -108 -108z"/>
<path d="M5100 19377 c0 -153 194 -377 327 -377 48 0 73 101 55 224 -35 242 -382 381 -382 153z"/>
<path d="M1274 19241 c-32 -32 73 -312 234 -622 160 -310 292 -621 292 -691 0 -71 46 -128 102 -128 57 0 147 -115 200 -256 54 -141 143 -228 198 -194 155 96 118 410 -65 563 -91 75 -292 418 -446 762 -263 587 -373 707 -515 566z"/>
<path d="M3532 18926 c-65 -206 -98 -394 -74 -418 83 -82 336 342 339 567 5 346 -135 267 -265 -149z"/>
<path d="M5949 18987 c39 -185 134 -437 211 -558 77 -122 140 -345 140 -495 0 -384 191 -169 267 300 46 284 26 366 -89 366 -82 0 -190 143 -240 317 -131 455 -382 516 -289 70z"/>
<path d="M4900 18602 c0 -350 167 -734 287 -660 43 27 52 238 20 470 -69 509 -307 656 -307 190z"/>
<path d="M10157 18811 c-73 -119 36 -411 154 -411 118 0 115 372 -4 446 -51 31 -119 16 -150 -35z"/>
<path d="M10800 18727 c0 -231 258 -603 352 -508 95 95 -88 610 -233 658 -66 22 -119 -45 -119 -150z"/>
<path d="M11738 18555 c-31 -80 -27 -193 9 -250 117 -189 253 -110 253 145 0 271 -172 340 -262 105z"/>
<path d="M3862 18354 c-173 -264 -215 -554 -81 -554 71 0 419 626 419 753 0 133 -197 17 -338 -199z"/>
<path d="M8300 18417 c0 -212 94 -333 205 -264 99 61 -1 447 -117 447 -48 0 -88 -82 -88 -183z"/>
<path d="M12954 18492 c-72 -193 80 -720 221 -767 79 -26 97 80 57 343 -66 435 -199 637 -278 424z"/>
<path d="M6946 18394 c-93 -151 41 -614 157 -542 125 77 127 648 3 648 -52 0 -124 -48 -160 -106z"/>
<path d="M9367 18433 c-37 -36 -67 -175 -67 -308 0 -329 241 -237 282 108 30 253 -70 346 -215 200z"/>
<path d="M13500 18246 c0 -197 293 -646 422 -646 116 0 14 487 -142 674 -143 172 -280 158 -280 -28z"/>
<path d="M14558 18313 c-88 -142 214 -842 333 -769 58 36 60 180 3 376 -108 379 -246 539 -336 393z"/>
<path d="M9761 18142 c-88 -229 -75 -542 23 -542 118 0 331 495 261 607 -87 141 -217 111 -284 -65z"/>
<path d="M22913 17840 c-136 -299 -57 -879 142 -1044 161 -134 616 -88 545 54 -27 55 -113 100 -190 100 -199 1 -302 337 -239 775 63 434 -83 499 -258 115z"/>
<path d="M11751 17425 c40 -206 79 -510 86 -675 12 -274 44 -300 362 -300 470 0 549 309 118 459 -308 108 -469 438 -356 733 41 106 4 158 -111 158 -145 0 -161 -59 -99 -375z"/>
<path d="M15200 17562 c0 -131 68 -294 150 -362 129 -107 150 -73 150 238 0 255 -44 362 -150 362 -91 0 -150 -93 -150 -238z"/>
<path d="M8503 17583 c-4 -235 102 -483 208 -483 136 0 106 239 -58 456 -126 167 -147 171 -150 27z"/>
<path d="M12900 17508 c0 -186 123 -405 201 -357 102 63 5 449 -113 449 -48 0 -88 -41 -88 -92z"/>
<path d="M4450 17175 c-65 -354 -29 -730 81 -839 38 -38 70 107 70 322 1 216 29 493 62 617 35 131 15 225 -47 225 -59 0 -134 -146 -166 -325z"/>
<path d="M8 17258 c-4 -105 19 -164 52 -131 34 33 37 120 8 192 -32 80 -55 56 -60 -61z"/>
<path d="M7600 17112 c0 -266 242 -603 354 -492 54 55 -229 780 -305 780 -27 0 -49 -129 -49 -288z"/>
<path d="M10200 17356 c0 -24 45 -72 100 -106 55 -34 100 -14 100 44 0 58 -45 106 -100 106 -55 0 -100 -20 -100 -44z"/>
<path d="M5600 17192 c0 -60 -135 -416 -300 -792 -293 -668 -383 -1063 -218 -961 46 28 145 244 221 481 76 236 219 565 317 730 197 330 236 650 80 650 -55 0 -100 -49 -100 -108z"/>
<path d="M20002 17075 c0 -124 45 -292 98 -375 72 -112 97 -54 98 225 1 206 -43 375 -98 375 -55 0 -99 -101 -98 -225z"/>
<path d="M24705 16825 c-127 -460 -137 -1293 -16 -1368 49 -31 109 271 134 669 25 398 80 803 122 899 46 105 34 175 -30 175 -58 0 -152 -169 -210 -375z"/>
<path d="M3642 16679 c75 -471 104 -524 238 -441 115 71 -81 862 -213 862 -53 0 -63 -182 -25 -421z"/>
<path d="M1733 15946 c39 -870 95 -1152 208 -1038 80 82 89 949 15 1467 -126 881 -269 606 -223 -429z"/>
<path d="M6875 16774 c-59 -161 16 -374 133 -374 118 0 120 371 2 444 -49 30 -110 -1 -135 -70z"/>
<path d="M13878 16844 c-31 -30 -32 -147 -3 -258 40 -155 73 -171 137 -69 162 254 54 516 -134 327z"/>
<path d="M24000 16044 c0 -545 36 -833 100 -794 55 34 100 419 100 856 0 463 -42 794 -100 794 -59 0 -100 -352 -100 -856z"/>
<path d="M14400 16444 c0 -212 40 -331 100 -294 55 34 100 194 100 356 0 162 -45 294 -100 294 -55 0 -100 -160 -100 -356z"/>
<path d="M18761 16642 c-98 -254 -70 -842 39 -842 55 0 100 154 100 342 0 188 27 413 61 500 33 87 15 158 -40 158 -55 0 -127 -71 -160 -158z"/>
<path d="M2100 16306 c0 -217 45 -422 100 -456 61 -38 100 116 100 394 0 251 -45 456 -100 456 -55 0 -100 -177 -100 -394z"/>
<path d="M5931 16577 c-162 -212 -431 -847 -431 -1017 0 -88 -66 -160 -146 -160 -228 0 -528 -383 -535 -680 -8 -371 173 -917 411 -1239 189 -255 190 -286 34 -615 -90 -190 -164 -392 -164 -448 0 -56 -89 -309 -198 -562 -176 -413 -224 -454 -450 -398 -285 72 -323 -59 -149 -515 124 -328 -30 -537 -612 -825 -782 -386 -2080 -2628 -1616 -2791 80 -28 125 53 125 226 0 382 533 1332 1039 1854 481 496 510 518 1217 968 278 176 612 435 742 573 130 139 274 252 319 252 163 0 78 -190 -217 -485 -165 -165 -300 -320 -300 -344 0 -25 201 -101 446 -170 432 -121 788 -108 1204 44 149 54 125 4 -91 -195 -212 -195 -361 -254 -550 -216 -142 29 -335 66 -428 84 -309 58 -188 -166 134 -250 447 -116 743 -14 1134 388 604 621 604 1087 1 557 -352 -309 -798 -403 -1192 -252 -249 95 -185 310 125 418 630 220 1160 1014 1293 1939 l76 524 599 10 c993 16 1252 305 893 996 -164 314 -183 489 -143 1316 13 282 -4 561 -40 618 -87 141 -735 37 -1114 -178 -167 -94 -504 -203 -750 -243 -246 -39 -549 -96 -673 -127 -248 -62 -244 -4 45 649 154 346 132 516 -38 294z m1755 -918 c-89 -194 -233 -256 -849 -361 -408 -70 -771 -97 -807 -61 -124 124 144 279 583 337 240 33 568 139 730 237 357 218 485 161 343 -152z m614 -409 c0 -357 -41 -650 -92 -650 -266 0 -408 146 -408 420 0 302 277 880 422 880 43 0 78 -293 78 -650z m-2544 -160 c44 -72 252 -87 596 -44 341 42 553 27 596 -42 37 -60 345 -235 685 -389 726 -329 967 -544 967 -860 0 -250 -219 -352 -750 -352 -386 0 -595 135 -519 334 33 86 19 182 -32 213 -50 32 -134 -91 -186 -271 -67 -231 -101 -269 -115 -129 -12 110 -13 279 -3 375 10 96 -25 175 -77 175 -122 0 -212 -592 -101 -660 113 -71 105 -815 -14 -1230 -123 -427 -513 -1008 -678 -1009 -203 -1 -145 169 185 546 363 412 458 1076 255 1776 -126 435 -334 511 -280 102 25 -192 -17 -225 -284 -225 -456 0 -656 143 -839 599 -213 533 -208 964 13 1093 232 135 497 134 581 -2z m624 -2010 c141 -141 156 -571 32 -898 -125 -328 -602 -780 -759 -719 -73 28 -162 3 -199 -56 -36 -59 -131 -107 -210 -107 -192 0 -189 492 5 864 83 157 150 355 150 439 1 84 71 253 157 375 171 245 625 301 824 102z m-1480 -2030 c0 -82 -67 -150 -150 -150 -82 0 -150 68 -150 150 0 83 68 150 150 150 83 0 150 -67 150 -150z"/>
<path d="M9700 16645 c0 -155 238 -900 317 -990 97 -111 94 384 -5 738 -61 220 -312 423 -312 252z"/>
<path d="M16325 16529 c-124 -23 -225 -90 -225 -147 0 -58 100 -79 226 -47 124 31 292 15 374 -35 214 -132 17 -294 -449 -369 -355 -58 -378 -47 -326 153 31 119 19 239 -27 268 -136 83 -222 -143 -156 -408 47 -184 129 -244 335 -244 371 1 923 352 923 588 0 171 -209 334 -383 298 -37 -7 -168 -33 -292 -57z"/>
<path d="M10550 16301 c-133 -421 254 -543 664 -208 253 206 234 225 -332 349 -210 46 -282 15 -332 -141z"/>
<path d="M17900 15938 c0 -669 166 -629 217 52 22 287 -10 455 -92 483 -91 32 -125 -115 -125 -535z"/>
<path d="M13100 16028 c-208 -265 -234 -578 -49 -578 55 0 113 126 131 281 43 373 355 328 400 -57 36 -314 177 -361 264 -88 83 264 -19 470 -297 596 -209 95 -268 75 -449 -154z"/>
<path d="M22300 15997 c0 -246 282 -948 353 -877 76 76 -175 1080 -270 1080 -46 0 -83 -91 -83 -203z"/>
<path d="M23000 15955 c0 -321 222 -1155 308 -1155 120 0 116 178 -16 795 -100 464 -292 701 -292 360z"/>
<path d="M9239 15680 c74 -370 379 -877 431 -719 43 128 -334 1039 -429 1039 -36 0 -37 -144 -2 -320z"/>
<path d="M11920 15780 c-186 -186 -142 -297 104 -262 123 18 239 111 257 207 39 201 -182 234 -361 55z"/>
<path d="M21044 15743 c-182 -147 -169 -154 222 -110 462 51 634 -58 634 -403 0 -252 -194 -287 -929 -165 -433 71 -659 358 -466 591 165 199 -47 188 -248 -13 -86 -87 -157 -180 -157 -207 0 -179 241 -431 498 -520 278 -97 298 -135 246 -464 -46 -288 -8 -416 199 -662 160 -191 241 -387 213 -523 -24 -119 -69 -338 -100 -486 -31 -148 -12 -297 44 -331 58 -36 101 57 102 219 0 155 45 349 98 431 76 117 97 89 98 -125 1 -151 47 -275 102 -275 55 0 100 133 100 296 0 326 223 504 631 504 135 0 298 65 364 144 227 273 -164 654 -798 777 -263 50 -207 -167 61 -239 306 -82 558 -276 493 -380 -26 -42 -186 -104 -356 -138 -387 -77 -895 167 -895 430 0 104 -51 206 -114 227 -86 29 -86 92 0 252 93 174 177 204 447 160 590 -95 786 336 450 992 -114 223 -672 233 -939 18z"/>
<path d="M14467 15533 c-113 -112 -74 -414 58 -461 175 -63 475 108 475 271 0 195 -390 334 -533 190z"/>
<path d="M19002 15475 c0 -69 40 -186 87 -261 110 -173 255 28 173 241 -68 178 -263 193 -260 20z"/>
<path d="M3400 15006 c0 -378 128 -604 239 -423 78 126 -50 817 -152 817 -48 0 -87 -177 -87 -394z"/>
<path d="M3962 15125 c-28 -96 -82 -350 -120 -563 -54 -305 -40 -378 68 -342 75 25 147 177 159 338 12 161 48 393 79 517 65 262 -110 310 -186 50z"/>
<path d="M12352 14938 c170 -184 296 -240 420 -188 148 61 153 82 28 126 -82 29 -186 114 -230 189 -44 74 -166 135 -270 135 -174 0 -169 -23 52 -262z"/>
<path d="M13100 14956 c0 -80 96 -212 213 -294 167 -117 197 -208 143 -430 -66 -270 -63 -273 84 -82 215 280 194 464 -81 725 -276 262 -359 280 -359 81z"/>
<path d="M12007 14775 c-4 -151 38 -275 93 -275 117 0 117 77 0 350 -76 177 -87 169 -93 -75z"/>
<path d="M18629 14819 c-377 -54 -848 -571 -811 -891 31 -271 48 -278 651 -278 l619 0 61 -328 c34 -180 98 -305 144 -277 45 29 203 -288 350 -703 233 -657 253 -800 153 -1105 -116 -350 -66 -557 90 -380 45 51 164 408 264 793 99 385 201 756 226 825 88 243 -146 121 -264 -138 -154 -339 -195 -287 -371 467 -159 683 -176 636 434 1217 249 238 293 524 100 647 -142 91 -1313 198 -1646 151z m1246 -282 c235 -63 301 -278 120 -390 -173 -107 -1613 -334 -1760 -277 -229 88 -149 416 140 573 280 152 1094 203 1500 94z"/>
<path d="M8700 14749 c0 -191 448 -949 561 -949 195 0 179 56 -166 557 -281 409 -395 522 -395 392z"/>
<path d="M16400 14506 c0 -162 45 -322 100 -356 60 -37 100 82 100 294 0 196 -45 356 -100 356 -55 0 -100 -132 -100 -294z"/>
<path d="M24666 14726 c-31 -50 32 -357 138 -683 l195 -593 -44 589 c-42 571 -171 878 -289 687z"/>
<path d="M10062 14362 c-69 -274 108 -862 259 -862 57 0 76 99 42 225 -33 124 -61 371 -62 550 -1 378 -152 433 -239 87z"/>
<path d="M11175 14241 c-41 -41 -75 -178 -75 -306 0 -251 241 -355 722 -310 392 36 294 225 -117 225 -278 0 -355 45 -400 233 -31 128 -89 199 -130 158z"/>
<path d="M23800 13993 c0 -343 155 -693 307 -693 65 0 64 67 -3 193 -57 107 -104 332 -104 500 0 169 -45 307 -100 307 -55 0 -100 -138 -100 -307z"/>
<path d="M200 13956 c0 -134 40 -269 89 -299 100 -62 229 333 150 460 -103 168 -239 76 -239 -161z"/>
<path d="M13925 14134 c-257 -104 -113 -219 209 -167 280 45 370 9 550 -220 119 -151 216 -358 216 -460 0 -151 -72 -185 -375 -177 -503 13 -875 124 -875 261 0 193 -117 240 -236 96 -89 -107 -70 -197 85 -394 144 -182 201 -406 201 -784 0 -639 173 -552 219 111 30 442 37 450 359 424 390 -30 922 219 922 432 0 181 -276 644 -487 819 -151 125 -551 154 -788 59z"/>
<path d="M13002 13856 c-107 -283 -202 -316 -382 -136 -145 145 -383 -38 -275 -211 161 -261 955 23 955 341 0 259 -200 263 -298 6z"/>
<path d="M15600 13918 c0 -319 229 -1118 321 -1118 106 0 94 160 -54 720 -140 531 -267 720 -267 398z"/>
<path d="M3462 13919 c-104 -167 197 -570 448 -599 298 -35 756 292 650 464 -102 166 -364 143 -577 -49 -172 -156 -183 -153 -183 50 0 208 -235 301 -338 134z m838 -319 c0 -55 -70 -100 -156 -100 -86 0 -128 45 -94 100 34 55 104 100 156 100 52 0 94 -45 94 -100z"/>
<path d="M1720 13780 c-66 -66 -120 -225 -120 -352 0 -361 431 -481 978 -272 479 182 610 367 422 594 -155 187 -296 107 -234 -131 32 -124 -35 -218 -214 -300 -342 -156 -502 -150 -645 22 -93 112 -70 185 107 350 214 200 215 209 25 209 -110 0 -253 -54 -319 -120z"/>
<path d="M0 13145 c0 -245 299 -758 403 -693 57 35 35 202 -54 416 -82 196 -149 373 -149 394 0 21 -45 38 -100 38 -55 0 -100 -70 -100 -155z"/>
<path d="M10301 13175 c3 -245 124 -575 211 -575 101 0 117 309 27 542 -72 188 -240 211 -238 33z"/>
<path d="M741 12950 c-75 -297 22 -750 161 -750 54 0 98 225 98 500 0 527 -153 674 -259 250z"/>
<path d="M2875 12992 c-242 -141 -230 -655 18 -788 266 -142 721 -125 932 35 243 185 224 461 -32 461 -163 0 -193 -43 -141 -207 59 -184 30 -203 -258 -175 -416 41 -621 337 -364 527 98 74 267 111 375 83 107 -28 195 -1 195 60 0 139 -489 142 -725 4z"/>
<path d="M8967 13033 c-102 -101 -80 -1033 24 -1033 50 0 106 248 125 550 32 525 -1 632 -149 483z"/>
<path d="M9616 12845 c-138 -303 -152 -711 -26 -789 49 -30 109 114 133 320 25 206 79 453 122 549 42 98 35 175 -18 175 -52 0 -147 -115 -211 -255z"/>
<path d="M16734 12855 c36 -94 66 -235 66 -313 0 -78 48 -142 107 -142 156 0 68 526 -98 581 -99 32 -121 -5 -75 -126z"/>
<path d="M17400 12756 c0 -134 45 -272 100 -306 58 -36 100 66 100 244 0 168 -45 306 -100 306 -55 0 -100 -110 -100 -244z"/>
<path d="M23200 12600 c0 -220 45 -400 100 -400 55 0 100 180 100 400 0 220 -45 400 -100 400 -55 0 -100 -180 -100 -400z"/>
<path d="M24250 12801 c-68 -215 4 -401 156 -401 52 0 94 135 94 300 0 339 -154 402 -250 101z"/>
<path d="M12057 12743 c-198 -199 -202 -432 -7 -507 85 -32 150 -181 150 -341 0 -423 166 -444 233 -31 32 199 133 444 225 545 91 101 140 253 107 337 -76 200 -507 198 -708 -3z"/>
<path d="M8200 12489 c0 -358 229 -794 352 -671 75 76 -125 776 -264 927 -52 56 -88 -49 -88 -256z"/>
<path d="M15215 12500 c121 -347 339 -413 248 -75 -33 124 -61 259 -62 300 0 41 -66 75 -146 75 -117 0 -125 -57 -40 -300z"/>
<path d="M1796 12431 c-551 -464 -1089 -1431 -796 -1431 55 0 100 59 100 130 0 166 572 952 900 1236 138 119 222 245 188 280 -35 34 -211 -62 -392 -215z"/>
<path d="M4399 12498 c-76 -141 -83 -254 -21 -316 62 -62 121 -1 164 172 87 347 8 426 -143 144z"/>
<path d="M22280 12647 c-78 -78 150 -817 298 -965 161 -161 164 62 8 528 -128 384 -223 520 -306 437z"/>
<path d="M1914 11802 c-253 -246 -412 -489 -408 -627 6 -215 11 -217 125 -33 65 106 272 366 458 578 460 523 339 580 -175 82z"/>
<path d="M7346 11925 c91 -366 254 -529 254 -253 0 288 -100 528 -222 528 -59 0 -72 -113 -32 -275z"/>
<path d="M14469 11702 c-230 -523 -369 -637 -369 -302 0 111 -67 200 -150 200 -116 0 -140 -95 -106 -425 25 -234 47 -552 50 -708 4 -178 52 -268 128 -243 79 26 112 196 92 470 -21 289 4 406 78 361 59 -37 108 -154 108 -261 0 -107 45 -194 100 -194 55 0 100 158 100 350 0 244 45 350 150 350 111 0 150 117 150 450 0 248 -25 450 -56 450 -31 0 -155 -224 -275 -498z"/>
<path d="M18600 11812 c0 -165 45 -328 100 -362 58 -36 100 64 100 238 0 165 -45 328 -100 362 -58 36 -100 -64 -100 -238z"/>
<path d="M21500 11592 c0 -363 36 -497 125 -467 69 23 114 72 100 108 -14 37 -25 247 -25 467 0 220 -45 400 -100 400 -55 0 -100 -229 -100 -508z"/>
<path d="M23694 11894 c-409 -409 -62 -796 572 -639 385 96 614 445 291 445 -86 0 -157 -67 -157 -150 0 -194 -558 -205 -631 -12 -72 187 122 362 401 362 127 0 230 45 230 100 0 179 -495 105 -706 -106z"/>
<path d="M11400 11606 c0 -217 40 -419 89 -449 105 -65 248 602 160 745 -133 215 -249 77 -249 -296z"/>
<path d="M16564 11923 c-87 -142 89 -757 230 -804 96 -32 118 6 72 126 -36 94 -66 303 -66 463 0 273 -128 389 -236 215z"/>
<path d="M20561 11842 c-95 -248 -71 -642 39 -642 55 0 100 39 100 88 0 48 28 228 63 400 64 324 -91 443 -202 154z"/>
<path d="M9767 11733 c-107 -107 -77 -1133 33 -1133 55 0 100 129 100 288 0 158 28 428 63 600 57 289 -36 406 -196 245z"/>
<path d="M12841 11350 c-69 -274 2 -550 142 -550 49 0 90 180 90 400 0 447 -135 534 -232 150z"/>
<path d="M41 11200 c37 -192 111 -980 164 -1750 153 -2225 156 -2125 -55 -1950 -128 106 -150 79 -150 -179 0 -371 189 -457 408 -186 162 199 163 199 477 -24 330 -235 408 -481 181 -569 -105 -40 -123 -325 -86 -1344 l46 -1293 -288 -122 c-468 -198 -484 -176 -457 592 15 417 -15 725 -71 725 -53 0 -114 101 -136 225 -21 124 -20 -292 3 -925 55 -1499 50 -1864 -30 -2367 l-67 -417 1016 492 c559 271 1049 492 1090 492 40 0 206 233 369 518 162 284 340 511 395 505 126 -16 244 -573 176 -833 -32 -125 -109 -177 -213 -144 -91 29 -297 -63 -463 -205 -270 -230 -278 -251 -74 -207 256 54 463 -217 363 -477 -33 -86 -15 -157 40 -157 55 0 127 73 161 161 53 138 86 142 226 26 150 -124 158 -94 93 340 -74 493 -5 913 136 826 151 -93 229 -1528 104 -1907 -97 -294 -92 -389 26 -527 80 -93 173 -248 207 -344 67 -190 268 -241 268 -69 0 59 79 99 175 89 391 -40 458 -6 319 162 -71 86 -212 135 -312 109 -159 -41 -182 20 -182 493 0 298 -40 541 -89 541 -109 0 -234 751 -256 1550 -9 330 -70 698 -136 818 -65 121 -119 334 -119 475 0 238 -34 257 -450 257 -332 0 -450 39 -450 149 0 238 503 1429 659 1558 118 98 141 42 141 -345 0 -710 179 -548 216 197 50 968 -112 1004 -566 128 -205 -396 -424 -900 -488 -1121 -137 -473 -410 -654 -304 -201 72 304 900 2021 1051 2180 144 151 106 355 -67 355 -186 0 -795 -581 -704 -672 35 -34 175 43 312 172 361 339 390 203 67 -307 -390 -617 -810 -1528 -883 -1916 -33 -180 -138 -417 -233 -527 -94 -110 -199 -279 -233 -375 -34 -96 -111 -175 -171 -175 -60 0 -80 46 -46 102 35 56 63 662 63 1346 0 1140 16 1248 193 1304 288 92 242 202 -317 767 -485 490 -511 545 -545 1123 -117 1963 -240 2895 -402 3049 -157 148 -164 134 -102 -191z m2831 -6912 c82 -82 21 -237 -230 -586 -188 -262 -342 -513 -342 -557 0 -176 -447 -545 -660 -545 -124 0 -295 -69 -379 -153 -122 -123 -865 -447 -1024 -447 -260 0 631 1262 1023 1448 209 99 340 234 340 349 0 428 963 800 1272 491z m467 -646 c94 -244 72 -542 -39 -542 -55 0 -100 86 -100 192 0 105 -27 263 -61 350 -33 87 -15 158 40 158 55 0 127 -71 160 -158z"/>
<path d="M8319 11225 c-49 -96 -143 -378 -210 -627 -89 -328 -205 -499 -423 -625 -374 -214 -352 -509 42 -555 403 -46 583 -382 520 -975 -98 -940 -269 -1897 -471 -2643 -112 -412 -225 -852 -252 -976 -27 -125 -89 -251 -137 -281 -135 -84 -105 -243 46 -243 74 0 191 191 260 425 69 234 211 518 315 631 246 267 795 2229 942 3370 43 329 152 574 355 797 162 177 294 374 294 437 0 180 -258 350 -431 284 -124 -48 -180 64 -275 548 -95 480 -159 608 -303 608 -101 0 -224 -79 -272 -175z m727 -1343 c109 20 159 -18 132 -100 -25 -75 -230 -146 -475 -163 l-432 -32 54 600 c80 879 184 950 378 258 131 -466 205 -588 343 -563z m-288 -1007 c-98 -613 -258 -713 -258 -162 0 456 51 587 229 587 58 0 69 -173 29 -425z m-204 -1241 c-37 -195 -91 -330 -120 -301 -30 29 -20 248 21 485 41 238 95 373 120 302 25 -72 15 -290 -21 -486z"/>
<path d="M2800 11058 c0 -352 100 -558 271 -558 96 0 128 57 90 158 -34 87 -61 267 -61 400 0 148 -58 242 -150 242 -92 0 -150 -94 -150 -242z"/>
<path d="M15771 11200 c-38 -82 -83 -250 -101 -372 -17 -123 -63 -254 -101 -292 -38 -38 -69 -169 -69 -291 0 -162 73 -236 274 -274 337 -65 426 -16 426 235 0 207 -147 261 -251 92 -118 -191 -253 8 -143 213 58 109 90 342 70 519 -24 213 -59 270 -105 170z"/>
<path d="M17639 11156 c-78 -202 35 -656 163 -656 129 0 127 670 -3 750 -55 35 -127 -8 -160 -94z"/>
<path d="M2141 10962 c-82 -213 -13 -488 134 -537 82 -27 125 63 125 261 0 333 -168 513 -259 276z"/>
<path d="M10300 11013 c0 -255 137 -713 213 -713 100 0 117 406 26 642 -64 167 -239 219 -239 71z"/>
<path d="M20800 10679 c-137 -60 -323 -101 -412 -90 -223 26 -550 -668 -415 -882 118 -188 443 -208 502 -32 23 69 -25 125 -106 125 -81 0 -168 56 -194 125 -79 216 33 375 263 375 122 0 272 50 332 110 81 81 193 49 415 -115 391 -289 473 -505 253 -666 -200 -146 -122 -283 110 -194 369 142 306 763 -96 946 -138 63 -252 183 -252 267 0 176 -57 180 -400 31z"/>
<path d="M12577 10600 c-251 -695 -336 -1300 -184 -1300 112 0 338 1030 280 1276 -35 143 -52 147 -96 24z"/>
<path d="M18600 10100 c0 -220 45 -400 100 -400 55 0 100 180 100 400 0 220 -45 400 -100 400 -55 0 -100 -180 -100 -400z"/>
<path d="M22700 10401 c0 -245 251 -1001 332 -1001 86 0 4 860 -98 1025 -67 109 -234 92 -234 -24z"/>
<path d="M24370 10429 c-84 -133 -29 -1203 66 -1298 33 -33 86 9 118 93 83 217 -91 1353 -184 1205z"/>
<path d="M15048 10280 c-36 -94 -37 -218 -1 -275 82 -133 -7 -134 -254 -1 -146 78 -193 71 -193 -30 0 -275 203 -357 508 -205 332 166 348 217 149 487 -131 178 -148 180 -209 24z"/>
<path d="M10899 10098 c-111 -208 -60 -398 107 -398 52 0 94 70 94 156 0 86 46 127 103 92 56 -35 90 -134 75 -220 -16 -87 28 -177 97 -201 81 -28 125 57 125 245 0 496 -395 710 -601 326z"/>
<path d="M16461 10142 c-98 -255 -71 -367 75 -311 199 76 564 -624 459 -881 -137 -337 -111 -850 43 -850 97 0 160 201 210 669 60 554 45 689 -88 786 -88 64 -160 218 -160 342 0 158 -44 207 -150 167 -91 -35 -150 0 -150 89 0 196 -163 188 -239 -11z"/>
<path d="M1260 9841 c-95 -248 -70 -1641 29 -1641 151 0 211 286 211 1002 0 662 -114 966 -240 639z"/>
<path d="M4135 9831 c-278 -55 -586 -387 -442 -477 59 -36 107 -23 107 30 0 53 135 143 300 201 165 58 300 152 300 210 0 58 -11 99 -25 91 -14 -7 -122 -32 -240 -55z"/>
<path d="M13968 9835 c-99 -100 -83 -435 21 -435 131 0 232 319 133 418 -47 47 -116 55 -154 17z"/>
<path d="M10007 9613 c-55 -104 -130 -385 -167 -625 -36 -241 -183 -595 -327 -788 -297 -398 -548 -1087 -702 -1930 -141 -773 -401 -1326 -878 -1870 -217 -247 -505 -630 -639 -850 l-244 -400 -32 276 c-17 152 43 531 133 842 117 401 145 734 98 1140 -45 384 -25 649 58 806 69 128 116 472 104 764 -28 681 55 946 272 877 142 -45 166 26 159 471 -8 572 -172 807 -225 324 -18 -165 -131 -405 -250 -533 -178 -191 -217 -355 -217 -900 0 -536 -51 -755 -260 -1117 -732 -1266 -1486 -3306 -1351 -3657 76 -199 261 -90 261 154 0 280 546 1887 833 2452 247 484 257 491 349 249 90 -238 55 -451 -393 -2348 -51 -220 -162 -625 -246 -900 -83 -275 -191 -635 -240 -800 -49 -165 -122 -407 -161 -538 -55 -181 -38 -228 68 -193 77 25 253 382 390 792 266 795 672 1524 1399 2518 326 444 459 564 484 436 19 -97 -37 -327 -124 -511 -88 -184 -159 -382 -159 -441 0 -249 -901 -2097 -1238 -2539 -144 -188 -262 -395 -262 -458 0 -144 166 -152 253 -12 35 57 147 78 249 45 125 -39 222 9 295 146 115 215 403 284 403 97 0 -60 39 -94 86 -75 485 187 2564 2211 2678 2606 49 171 142 329 206 350 198 66 54 -604 -166 -771 -138 -105 -181 -221 -140 -376 42 -162 -28 -322 -253 -578 -171 -195 -309 -432 -307 -526 2 -131 59 -104 237 114 263 321 399 229 304 -206 l-61 -280 205 250 c127 155 183 326 146 450 -64 222 -63 210 -47 525 8 151 75 225 205 225 173 0 187 -54 137 -536 -36 -348 -15 -561 58 -607 62 -38 140 1 173 87 33 86 101 156 150 156 129 0 110 -539 -24 -673 -127 -127 -50 -427 110 -427 57 0 103 83 103 183 0 101 32 216 72 256 39 39 77 228 84 419 12 341 279 669 494 606 55 -16 113 -229 130 -472 46 -696 434 -887 886 -436 141 142 317 233 392 205 221 -85 271 127 109 469 -308 649 -495 2051 -436 3270 50 1060 43 1132 -100 925 -86 -124 -214 -225 -286 -225 -73 0 -165 -101 -206 -225 l-74 -225 -60 243 c-33 133 -120 262 -193 286 -171 57 -55 -580 133 -729 217 -173 273 -511 107 -648 -83 -70 -152 -188 -152 -264 0 -76 -67 -138 -150 -138 -179 0 -195 231 -33 490 92 148 82 261 -50 539 -92 193 -167 511 -167 705 0 195 -49 385 -110 422 -76 47 -99 -103 -75 -494 25 -409 0 -562 -93 -562 -197 0 -264 292 -147 638 58 171 138 492 177 712 63 355 80 375 155 177 56 -146 139 -203 239 -165 169 65 211 491 58 585 -52 33 -71 122 -42 199 61 159 -312 397 -471 299 -66 -41 -40 -136 74 -261 116 -128 140 -220 71 -265 -172 -112 -343 -499 -419 -949 -63 -368 -107 -424 -358 -453 -259 -30 -280 -10 -216 200 79 257 208 785 368 1504 105 469 47 927 -105 832 -45 -27 -85 -260 -90 -518 -19 -947 -395 -678 -507 363 -42 398 -101 552 -209 552 -107 0 -165 -146 -201 -511 -57 -560 -224 -839 -505 -839 -317 0 -348 -394 -52 -668 144 -134 244 -275 222 -313 -22 -38 -141 -294 -263 -569 -123 -275 -324 -635 -447 -800 -123 -165 -301 -435 -395 -600 -94 -165 -140 -210 -101 -100 39 110 106 403 151 650 279 1573 401 2120 596 2683 120 348 277 655 348 682 71 27 204 350 296 717 93 367 209 746 260 842 116 220 115 276 -5 276 -54 0 -142 -84 -197 -187z m293 -2613 c0 -55 -45 -100 -100 -100 -55 0 -100 45 -100 100 0 55 45 100 100 100 55 0 100 -45 100 -100z m300 -389 c0 -111 -308 -237 -386 -158 -32 32 8 100 89 151 187 118 297 121 297 7z m138 -712 c-88 -221 -139 -486 -112 -589 39 -147 -2 -184 -188 -174 -131 8 -238 67 -238 131 0 268 404 1033 546 1033 135 0 134 -45 -8 -401z m-438 107 c0 -52 -42 -120 -93 -152 -51 -31 -148 -301 -214 -598 -100 -445 -216 -634 -657 -1070 -295 -291 -536 -500 -536 -464 0 35 223 431 495 879 272 449 546 969 608 1157 100 304 397 490 397 248z m942 -1097 c95 -105 304 -245 465 -312 324 -134 371 -246 143 -333 -188 -72 -188 -355 -1 -602 92 -121 278 -193 522 -200 370 -12 380 -2 429 388 61 486 160 360 189 -239 11 -242 79 -749 151 -1129 81 -425 93 -676 31 -656 -54 18 -272 319 -483 668 -252 417 -403 584 -439 489 -63 -163 37 -370 584 -1210 372 -571 400 -813 88 -753 -103 20 -198 209 -266 530 -85 402 -150 506 -329 532 -123 17 -324 -39 -447 -125 -380 -267 -470 -206 -357 241 140 550 59 728 -275 601 -143 -55 -268 -99 -279 -99 -59 1 -31 2400 28 2400 40 0 151 -86 246 -191z m-585 -560 c74 -396 -118 -767 -274 -529 -64 99 -132 70 -282 -120 -108 -137 -198 -326 -199 -419 -2 -172 -176 -340 -263 -253 -61 61 787 1669 881 1671 39 0 101 -157 137 -350z m-1061 -823 c-359 -698 -630 -1049 -1387 -1797 -518 -511 -960 -912 -982 -890 -64 65 540 1209 715 1354 87 72 158 185 158 251 0 146 1820 2069 1891 1998 28 -27 -150 -440 -395 -916z m148 -1051 c-473 -523 -562 -604 -1220 -1118 -344 -268 -646 -468 -670 -444 -25 24 280 366 676 760 929 924 995 984 1172 1053 315 124 325 62 42 -251z"/>
<path d="M12750 9564 c-85 -130 -126 -310 -91 -401 35 -90 33 -322 -3 -514 -49 -265 -115 -349 -272 -349 -158 0 -195 -48 -155 -200 39 -148 3 -200 -138 -200 -211 0 -218 -13 -130 -242 71 -187 439 -214 440 -33 0 159 568 495 908 537 142 18 423 -51 623 -153 305 -155 382 -163 477 -48 87 105 76 151 -48 199 -88 34 -161 147 -161 251 0 205 -148 254 -254 83 -41 -67 -114 -39 -199 75 -126 171 -138 167 -224 -62 l-90 -242 -60 227 c-64 244 -273 200 -273 -56 0 -84 -56 -133 -125 -109 -69 25 -113 130 -98 234 15 104 41 347 58 539 16 193 65 429 108 525 118 263 -112 216 -293 -61z"/>
<path d="M17800 9350 c0 -426 124 -598 234 -325 28 69 54 -66 58 -300 6 -294 51 -425 148 -425 98 0 153 160 181 525 47 603 34 645 -153 490 -183 -152 -278 -38 -205 250 43 174 17 235 -102 235 -124 0 -161 -103 -161 -450z"/>
<path d="M23559 9436 c40 -213 105 -498 144 -636 60 -206 85 -221 142 -83 97 231 -70 1008 -228 1061 -100 33 -113 -47 -58 -342z"/>
<path d="M18846 9293 c-172 -333 -163 -705 18 -765 67 -22 132 118 159 342 24 209 79 459 122 555 135 309 -131 192 -299 -132z"/>
<path d="M1772 9025 c-56 -502 -18 -665 135 -571 118 73 123 1046 6 1046 -48 0 -111 -214 -141 -475z"/>
<path d="M14300 9412 c0 -48 69 -145 154 -216 176 -146 416 10 301 195 -80 130 -455 147 -455 21z"/>
<path d="M13338 9256 c-77 -203 -4 -516 107 -456 131 70 175 600 51 600 -56 0 -127 -65 -158 -144z"/>
<path d="M22400 9200 c0 -137 -71 -204 -225 -212 -226 -12 -285 -3 -588 83 -188 53 -588 -333 -585 -565 2 -120 43 -106 175 59 134 166 263 208 573 186 220 -15 396 -78 390 -139 -5 -62 -17 -224 -25 -362 -9 -144 -76 -250 -159 -250 -178 0 -292 -166 -168 -243 187 -115 542 303 552 651 7 233 58 342 160 342 83 0 146 56 140 125 -5 69 -17 215 -25 325 -8 110 -60 200 -115 200 -55 0 -100 -90 -100 -200z"/>
<path d="M20674 9200 c-103 -267 -183 -1200 -102 -1199 171 1 293 486 228 909 -37 246 -93 374 -126 290z"/>
<path d="M6577 8974 c-37 -106 -32 -540 10 -805 7 -44 58 -53 113 -19 124 77 133 818 10 894 -49 30 -109 -1 -133 -70z"/>
<path d="M3033 8781 c-271 -293 -549 -959 -431 -1032 49 -31 187 171 306 448 250 581 366 634 411 186 17 -175 87 -336 155 -358 90 -30 107 50 59 292 -35 183 -96 356 -134 383 -38 28 -88 109 -111 181 -30 92 -105 63 -255 -100z"/>
<path d="M4196 8792 c-119 -223 -85 -1114 60 -1580 56 -181 41 -228 -66 -193 -77 26 -155 147 -173 270 -26 180 -60 200 -175 105 -329 -273 8 -769 604 -889 429 -87 635 -736 646 -2030 5 -587 48 -975 109 -975 56 0 194 146 307 325 183 291 200 451 167 1525 -20 660 -86 1291 -147 1401 -83 153 -77 246 24 385 154 210 92 464 -113 464 -81 0 -139 -102 -139 -246 0 -243 -245 -454 -527 -454 -177 0 -538 1389 -431 1660 60 154 111 96 266 -310 106 -275 192 -579 192 -675 0 -228 170 -226 243 4 80 252 -369 1364 -567 1402 -89 17 -215 -68 -280 -189z m1173 -2500 c66 -188 116 -769 111 -1292 l-9 -950 -80 800 c-77 774 -184 1296 -345 1689 -57 139 -41 176 63 142 78 -25 195 -200 260 -389z"/>
<path d="M19515 8875 c-201 -201 -125 -342 185 -342 339 0 404 204 115 359 -127 68 -220 63 -300 -17z"/>
<path d="M5482 8849 c-67 -68 305 -1172 439 -1299 73 -69 87 39 46 357 -96 752 -293 1134 -485 942z"/>
<path d="M10617 8636 c18 -157 77 -275 130 -261 145 37 118 453 -32 503 -91 31 -121 -42 -98 -242z"/>
<path d="M14356 8810 c-30 -49 16 -116 103 -150 249 -95 341 -71 341 90 0 161 -352 209 -444 60z"/>
<path d="M11381 8548 c-75 -75 26 -541 131 -605 48 -30 88 105 88 301 0 324 -83 440 -219 304z"/>
<path d="M24382 7961 c-45 -387 -6 -561 126 -561 51 0 92 203 92 450 0 525 -160 607 -218 111z"/>
<path d="M23000 7951 c-99 -262 -41 -551 111 -551 49 0 89 180 89 400 0 459 -64 508 -200 151z"/>
<path d="M14595 7891 c-61 -114 -81 -238 -45 -274 68 -68 350 256 350 402 0 159 -195 77 -305 -128z"/>
<path d="M16600 8000 c0 -55 45 -100 100 -100 55 0 100 45 100 100 0 55 -45 100 -100 100 -55 0 -100 -45 -100 -100z"/>
<path d="M18371 7900 c-35 -82 -54 -307 -43 -500 19 -307 65 -363 372 -453 245 -72 360 -169 382 -325 31 -218 163 -295 250 -147 76 129 -125 541 -231 476 -56 -35 -101 -3 -101 69 0 73 -101 177 -225 231 -150 66 -244 216 -283 449 -37 224 -81 296 -121 200z"/>
<path d="M17300 7355 c0 -585 179 -818 432 -562 91 92 76 143 -64 222 -134 76 -173 196 -150 459 20 221 -16 373 -93 400 -90 31 -125 -113 -125 -519z"/>
<path d="M19349 7761 c-57 -132 -31 -227 85 -311 92 -68 166 -258 166 -430 0 -170 45 -336 100 -370 59 -37 100 80 100 286 0 191 27 419 61 506 43 112 1 158 -143 158 -112 0 -222 79 -245 175 -39 161 -49 160 -124 -14z"/>
<path d="M17700 7737 c0 -250 257 -837 366 -837 157 0 171 133 41 376 -51 96 -117 253 -147 349 -50 163 -260 253 -260 112z"/>
<path d="M23474 7625 c-168 -329 -514 -2318 -420 -2412 44 -44 82 55 207 537 l78 300 35 -300 c19 -165 61 -367 94 -450 80 -202 209 221 222 732 6 209 59 472 118 583 135 251 48 356 -156 187 -132 -110 -144 -83 -89 211 35 185 102 380 150 432 48 52 87 131 87 175 0 101 -275 105 -326 5z"/>
<path d="M16863 7375 c-88 -330 -76 -675 25 -675 82 0 212 465 212 763 0 221 -171 158 -237 -88z"/>
<path d="M20373 7435 c-83 -326 -73 -723 20 -780 128 -80 250 742 127 865 -67 67 -116 39 -147 -85z"/>
<path d="M6500 7464 c0 -20 -45 -272 -99 -559 -68 -360 -66 -584 8 -722 59 -110 132 -176 162 -146 100 100 123 1463 25 1463 -53 0 -96 -16 -96 -36z"/>
<path d="M14500 7399 c0 -56 56 -192 125 -302 107 -171 82 -279 -166 -738 -344 -637 -369 -1144 -65 -1346 259 -173 258 -251 -12 -616 l-218 -295 235 -251 c130 -138 273 -251 318 -251 125 0 99 344 -35 478 -169 169 -36 258 199 132 156 -83 212 -72 259 50 100 260 68 440 -78 440 -75 0 -208 146 -294 324 -134 278 -137 345 -16 478 80 89 116 251 82 378 -46 177 -24 210 105 160 90 -34 238 -1 329 74 152 125 159 55 96 -914 -38 -577 -136 -1365 -217 -1750 -255 -1199 -283 -1450 -160 -1450 62 0 113 38 113 85 0 46 111 683 246 1416 311 1679 435 3437 251 3551 -82 50 -194 0 -304 -136 -245 -303 -293 -273 -293 184 0 360 -25 400 -250 400 -137 0 -250 -46 -250 -101z"/>
<path d="M16072 6229 c31 -696 -7 -1469 -108 -2177 -137 -969 -185 -1120 -410 -1283 -289 -211 -321 -389 -104 -569 223 -185 183 -337 -140 -528 -276 -163 -300 -162 -525 20 -205 166 -234 273 -228 849 8 660 -81 857 -194 434 -33 -124 -61 -380 -62 -570 -1 -257 -30 -316 -114 -232 -128 128 -378 2068 -384 2972 -2 469 -29 569 -125 473 -154 -154 -154 -655 -1 -2118 101 -967 175 -1261 465 -1850 396 -802 941 -1550 1129 -1550 213 0 146 212 -146 465 -219 190 -247 257 -136 327 174 109 707 -65 780 -255 29 -76 -20 -251 -110 -388 -155 -236 -153 -249 31 -249 134 0 231 110 310 350 64 193 169 350 233 350 65 0 179 138 254 307 75 170 245 425 378 569 133 144 218 324 189 401 -30 76 -54 226 -54 331 0 106 -45 192 -100 192 -55 0 -100 -75 -100 -167 0 -215 -613 -1550 -691 -1505 -33 19 -250 122 -483 228 -233 107 -424 217 -425 244 0 28 224 176 499 331 562 315 613 431 250 569 -137 52 -250 143 -250 201 0 109 74 144 508 238 143 31 430 192 639 359 469 372 554 374 791 21 103 -154 317 -354 475 -445 158 -90 287 -207 287 -259 0 -52 -228 -150 -508 -217 -543 -130 -728 -351 -458 -548 252 -185 202 -381 -201 -783 -447 -448 -214 -511 250 -68 313 299 435 591 391 935 -18 135 94 229 418 350 500 188 587 322 358 552 -145 144 -145 206 -5 680 173 582 212 1984 55 1984 -55 0 -105 -259 -111 -575 -16 -810 -64 -1140 -181 -1257 -172 -172 -223 154 -124 788 96 611 2 1109 -188 992 -57 -36 -77 -151 -44 -256 46 -144 23 -176 -94 -131 -106 40 -212 -44 -332 -261 -239 -435 -539 -820 -594 -765 -25 25 -2 129 53 230 54 102 169 348 256 548 93 215 249 387 381 422 167 43 195 88 112 171 -198 198 -479 57 -595 -300 -152 -470 -481 -822 -691 -741 -93 35 -201 11 -241 -54 -40 -65 -69 633 -65 1551 6 1160 -27 1681 -105 1708 -82 28 -100 -263 -65 -1041z m2028 -1829 c0 -192 -196 -271 -332 -134 -76 76 113 334 244 334 49 0 88 -90 88 -200z m-1394 -1242 c-137 -166 -706 -384 -706 -271 0 77 576 395 737 407 48 3 34 -58 -31 -136z m1644 -158 c-80 -129 -250 -129 -250 0 0 55 70 100 156 100 86 0 128 -45 94 -100z"/>
<path d="M22348 6875 c204 -913 244 -1159 248 -1550 2 -250 51 -425 118 -425 144 0 61 1275 -121 1883 -148 495 -352 571 -245 92z"/>
<path d="M21543 6891 c40 -133 114 -468 164 -746 124 -697 345 -1305 453 -1245 50 28 74 95 54 150 -19 55 -70 373 -113 707 -77 609 -299 1168 -516 1302 -83 52 -95 3 -42 -168z"/>
<path d="M24756 6910 c-32 -51 -13 -311 41 -577 53 -265 114 -640 134 -833 20 -192 44 41 53 519 15 788 -75 1138 -228 891z"/>
<path d="M69 6535 c-128 -128 -72 -535 74 -535 127 0 280 -498 381 -1242 14 -105 86 -211 159 -236 161 -53 81 626 -173 1470 -157 521 -294 690 -441 543z"/>
<path d="M17300 6400 c0 -55 45 -100 100 -100 55 0 100 45 100 100 0 55 -45 100 -100 100 -55 0 -100 -45 -100 -100z"/>
<path d="M24100 6190 c0 -346 306 -1290 419 -1290 59 0 79 97 45 225 -33 124 -113 461 -178 750 -118 525 -286 710 -286 315z"/>
<path d="M16772 6103 c-133 -508 238 -966 590 -729 162 109 49 697 -147 767 -91 33 -216 83 -277 113 -62 30 -137 -38 -166 -151z"/>
<path d="M20160 6000 c-30 -82 -67 -394 -82 -692 -17 -324 -78 -559 -153 -583 -91 -30 -125 127 -125 577 0 510 -27 609 -150 562 -82 -32 -150 -14 -150 39 0 53 -45 97 -100 97 -55 0 -100 -67 -100 -150 0 -82 70 -150 155 -150 125 0 149 -104 125 -525 -26 -447 -59 -525 -229 -525 -163 0 -214 -96 -284 -533 -46 -293 -62 -555 -35 -582 27 -27 189 22 359 110 235 122 309 228 309 444 0 256 59 306 589 499 324 118 644 282 712 363 234 282 327 164 258 -326 -37 -261 -94 -693 -126 -959 -57 -459 -74 -482 -322 -432 -602 120 -654 115 -691 -66 -21 -101 38 -266 130 -368 265 -293 155 -546 -251 -577 -682 -53 -816 -113 -746 -334 75 -235 31 -276 -1078 -1001 -426 -279 -775 -548 -775 -598 0 -149 143 -103 500 160 186 137 426 250 533 250 107 0 364 51 571 113 426 128 896 50 896 -148 0 -140 -326 -335 -642 -385 -301 -47 -315 -280 -16 -280 142 0 258 38 258 85 0 46 180 166 400 265 220 99 400 220 400 269 0 48 -157 245 -350 438 -377 377 -440 644 -198 845 222 184 303 38 144 -259 -117 -219 -116 -269 9 -348 243 -154 394 -106 410 130 26 383 37 417 225 700 102 153 159 366 130 481 -40 153 9 229 194 299 406 155 436 121 436 -493 0 -389 49 -628 144 -707 123 -103 139 -2 112 713 -18 458 -84 962 -147 1121 -85 214 -86 377 -4 625 146 442 261 424 407 -64 66 -220 162 -400 215 -400 125 0 11 453 -233 928 -107 208 -194 489 -194 625 0 325 -140 312 -609 -60 -213 -169 -433 -279 -489 -244 -56 34 -99 229 -96 432 6 322 18 340 97 144 141 -351 333 -282 258 93 -73 367 -168 489 -235 302 -34 -96 -81 -83 -179 50 -112 152 -141 157 -187 30z m-684 -4725 c-23 -69 -148 -141 -279 -160 -207 -30 -221 -14 -105 125 157 189 443 215 384 35z"/>
<path d="M4376 5782 c-66 -175 90 -582 223 -582 63 0 79 108 40 275 -81 344 -197 479 -263 307z"/>
<path d="M3652 4875 c39 -234 132 -605 208 -825 75 -220 138 -569 139 -775 1 -279 43 -375 164 -375 140 0 153 85 94 611 -38 337 -107 685 -154 775 -46 90 -135 355 -198 589 -62 234 -160 425 -218 425 -67 0 -80 -151 -35 -425z"/>
<path d="M23791 4901 c-135 -79 -143 -176 -58 -647 132 -730 302 -722 211 10 -92 735 63 646 371 -214 128 -358 286 -650 351 -650 64 0 137 -56 162 -125 25 -69 73 -99 108 -67 99 90 -172 1097 -285 1058 -55 -19 -191 124 -301 317 -224 393 -328 453 -559 318z"/>
<path d="M4300 4581 c0 -79 115 -433 256 -787 148 -371 281 -951 315 -1369 70 -873 229 -964 229 -130 0 659 -408 2104 -651 2306 -120 100 -149 96 -149 -20z"/>
<path d="M22804 4507 c-57 -107 -104 -307 -104 -445 0 -137 -50 -281 -111 -319 -135 -83 -36 -976 142 -1285 66 -116 119 -580 119 -1049 0 -1018 208 -1262 246 -288 38 992 36 1005 -139 1469 -92 243 -136 513 -99 600 66 156 136 1510 78 1510 -16 0 -76 -87 -132 -193z"/>
<path d="M23167 4133 c-112 -112 -75 -520 81 -893 169 -405 402 -385 248 20 -53 139 -96 408 -96 597 0 325 -85 425 -233 276z"/>
<path d="M19509 2938 c-288 -366 -151 -504 147 -149 134 159 244 317 244 350 0 144 -201 41 -391 -201z"/>
<path d="M22043 2558 c-76 -303 -22 -608 108 -608 55 0 103 119 109 264 5 145 38 336 72 425 39 102 9 161 -83 161 -80 0 -173 -109 -206 -242z"/>
<path d="M24800 2206 c0 -327 45 -622 100 -656 63 -39 100 182 100 594 0 371 -43 656 -100 656 -55 0 -100 -265 -100 -594z"/>
<path d="M23770 2500 c-33 -137 -80 -385 -106 -550 -26 -165 -98 -496 -159 -737 -124 -488 -64 -813 152 -813 79 0 143 -90 143 -200 0 -110 45 -200 100 -200 55 0 100 84 100 187 0 104 24 340 52 525 48 307 42 318 -65 113 -65 -124 -156 -225 -202 -225 -129 0 -93 702 57 1123 82 231 105 499 60 700 -70 315 -75 318 -132 77z"/>
<path d="M24121 2050 c43 -518 121 -741 224 -638 25 24 18 302 -14 616 -76 741 -271 761 -210 22z"/>
<path d="M4266 2118 c-91 -101 -166 -305 -166 -454 0 -322 253 -964 379 -964 84 0 75 1479 -9 1563 -21 21 -113 -44 -204 -145z"/>
<path d="M1400 2100 c0 -55 109 -100 243 -100 185 0 369 -169 772 -710 290 -391 544 -664 563 -607 41 124 -187 505 -654 1092 -259 327 -405 425 -631 425 -161 0 -293 -45 -293 -100z"/>
<path d="M5513 1866 c-368 -443 -536 -1439 -279 -1653 178 -147 266 -44 266 310 0 160 48 380 107 490 74 139 75 238 3 325 -74 89 -61 187 44 337 162 232 36 404 -141 191z"/>
<path d="M11 850 c-17 -630 -10 -650 236 -665 139 -8 309 -20 378 -25 125 -10 142 49 163 573 17 396 237 290 345 -166 106 -449 252 -482 232 -53 -17 364 113 448 385 248 156 -114 169 -168 70 -289 -163 -195 -49 -473 194 -473 160 0 175 33 90 193 -150 279 -130 337 96 278 110 -29 199 -23 197 13 -6 129 -455 388 -963 556 -284 94 -542 235 -572 315 -35 92 -197 145 -444 145 l-389 0 -18 -650z m618 339 c-60 -400 -210 -821 -227 -639 -10 110 -32 313 -48 450 -16 138 -8 286 18 330 73 127 280 14 257 -141z"/>
<path d="M22003 1294 c-2 -86 63 -243 144 -350 117 -155 147 -163 150 -38 2 86 -63 243 -144 350 -117 155 -147 163 -150 38z"/>
<path d="M8775 1031 c-281 -145 -475 -315 -475 -415 0 -92 -92 -225 -204 -295 -112 -70 -178 -169 -147 -219 31 -51 219 18 418 153 198 135 417 245 486 245 190 0 771 580 699 697 -90 146 -237 115 -777 -166z"/>
<path d="M20564 1231 c-113 -113 -69 -231 86 -231 83 0 150 42 150 94 0 126 -156 217 -236 137z"/>
<path d="M24662 1046 c-74 -194 147 -1046 272 -1046 53 0 66 199 30 464 -35 255 -64 525 -64 600 0 185 -165 172 -238 -18z"/>
<path d="M10750 700 c-82 -132 38 -319 157 -246 121 75 121 346 -1 346 -52 0 -122 -45 -156 -100z"/>
<path d="M13419 729 c-380 -73 -186 -274 336 -349 586 -84 674 -27 359 229 -238 193 -277 199 -695 120z"/>
<path d="M21143 668 c-38 -100 -24 -227 32 -283 151 -151 258 75 137 289 -93 167 -102 167 -169 -6z"/>
<path d="M11854 607 c-74 -120 114 -238 248 -156 111 69 38 249 -102 249 -49 0 -114 -42 -146 -93z"/>
<path d="M21600 550 c0 -92 56 -148 125 -125 142 47 126 208 -25 258 -55 19 -100 -41 -100 -133z"/>
<path d="M9478 544 c-74 -73 25 -444 118 -444 40 0 149 84 243 188 155 171 156 193 7 250 -201 77 -296 78 -368 6z"/>
<path d="M22254 506 c-81 -131 26 -506 144 -506 88 0 68 467 -25 560 -29 29 -83 5 -119 -54z"/>
</g>
</svg>