<svg xmlns="http://www.w3.org/2000/svg" version="1.0" width="250" height="250" viewBox="0 0 250.000000 250.000000" preserveAspectRatio="xMidYMid meet">
<metadata>
Created by potrace 1.10, written by Peter Selinger 2001-2011
</metadata>
<g transform="translate(0.000000,250.000000) scale(0.010000,-0.010000)" fill="#555555" stroke="none">
<path d="M298 24744 c-66 -173 -60 -405 17 -712 81 -320 90 -863 30 -1819 -46 -750 -68 -1655 -48 -2013 46 -824 39 -1080 -86 -3150 -57 -935 -126 -2195 -154 -2800 l-50 -1100 172 450 c95 248 273 607 396 800 123 193 224 426 225 519 0 93 38 192 84 221 46 28 89 216 97 416 13 341 137 828 329 1294 106 255 278 1104 407 2000 154 1078 288 1526 537 1795 211 228 228 334 223 1376 -4 903 38 1253 209 1751 223 648 280 1228 122 1228 -51 0 -130 -233 -175 -517 -48 -295 -143 -537 -224 -563 -99 -33 -121 4 -75 125 37 95 95 349 129 564 l63 391 -453 0 c-320 0 -469 -46 -512 -158 -34 -87 -61 -635 -61 -1217 0 -582 -27 -1031 -61 -998 -60 61 -84 400 -120 1698 -18 648 -29 675 -269 675 -137 0 -254 -56 -258 -125 -6 -100 -18 -100 -58 0 -86 213 -334 138 -436 -131z m462 -617 c-101 -102 -185 51 -102 186 63 102 87 102 121 1 23 -70 15 -154 -19 -187z m1007 -2756 c17 -755 12 -777 -58 -271 -43 303 -110 730 -151 950 -61 331 -51 378 59 271 85 -84 138 -424 150 -950z m-994 -146 c-40 -167 -46 -167 -118 0 -42 96 -42 254 0 350 72 167 78 167 118 0 23 -96 23 -254 0 -350z m527 175 c0 -55 -45 -100 -100 -100 -55 0 -100 45 -100 100 0 55 45 100 100 100 55 0 100 -45 100 -100z m860 -373 c-33 -33 -56 26 -52 131 5 117 28 141 60 61 29 -72 26 -159 -8 -192z m-1170 -1102 c6 -234 -35 -425 -90 -425 -58 0 -96 285 -90 675 7 490 32 607 90 425 44 -137 85 -441 90 -675z m456 -932 c-86 -139 -146 -113 -146 63 0 86 46 128 102 93 56 -35 75 -105 44 -156z m-846 -3893 c0 -104 -45 -216 -100 -250 -58 -36 -100 68 -100 250 0 182 42 286 100 250 55 -34 100 -146 100 -250z"/>
<path d="M3188 24825 c-6 -96 -5 -213 3 -259 8 -45 -77 -408 -188 -806 -122 -433 -205 -1041 -209 -1516 -8 -1090 -125 -1707 -372 -1971 -136 -146 -228 -414 -266 -773 -128 -1212 -220 -1760 -331 -1960 -142 -257 -628 -2076 -664 -2490 -40 -445 -261 -1052 -532 -1463 -190 -288 -236 -477 -218 -908 12 -300 -17 -608 -65 -685 -47 -77 -124 -614 -170 -1192 -119 -1488 -189 -6082 -90 -5902 46 83 161 510 256 950 349 1611 857 3516 1107 4150 141 358 301 816 356 1019 197 730 1057 1522 2127 1960 942 385 1298 425 1778 196 231 -109 559 -155 992 -140 647 23 648 24 998 494 192 259 426 471 519 471 93 0 197 45 231 100 34 55 135 100 224 100 427 0 1926 1365 1926 1755 0 67 198 186 439 266 l440 145 67 -504 c36 -277 191 -825 343 -1217 202 -520 254 -776 192 -945 -114 -307 77 -870 342 -1013 203 -108 202 -102 -17 254 -124 200 -199 433 -166 518 87 228 240 82 190 -182 -30 -160 20 -256 172 -327 118 -55 312 -257 431 -450 l215 -350 -299 189 -299 190 225 -246 c124 -135 225 -280 225 -321 0 -125 -435 47 -675 267 -123 113 -249 180 -280 149 -54 -54 240 -311 619 -541 176 -106 171 -127 -89 -370 -151 -142 -275 -305 -275 -362 0 -244 -432 16 -966 583 -226 239 -334 302 -334 193 0 -88 211 -339 470 -557 l469 -396 -326 -412 c-225 -284 -317 -496 -295 -681 52 -435 237 -379 237 72 0 316 55 451 247 598 326 250 382 243 458 -58 69 -276 311 -447 633 -447 293 0 257 215 -93 550 -397 381 -414 646 -25 396 l275 -177 -185 209 c-101 115 -153 261 -113 325 47 76 207 -14 474 -269 l404 -384 -304 452 c-297 442 -300 458 -125 675 153 189 245 213 615 162 354 -48 560 -2 1112 251 713 326 1495 412 1882 205 140 -75 304 -72 568 12 1212 384 1885 646 1978 772 89 119 304 126 1300 46 657 -52 1352 -97 1544 -98 593 -4 1828 180 2275 339 400 142 425 173 425 536 0 296 -46 399 -199 448 -110 35 -629 485 -1154 1000 -524 515 -1052 951 -1173 968 -120 18 -274 144 -342 280 -207 416 -632 653 -632 352 0 -82 63 -150 139 -150 77 0 166 -69 198 -152 46 -121 21 -133 -124 -55 -124 67 -219 61 -298 -18 -87 -87 -115 -86 -115 5 0 66 -72 120 -161 120 -121 0 -145 -61 -99 -245 53 -212 -2 -283 -399 -516 -379 -222 -477 -245 -552 -129 -50 77 -64 230 -31 340 246 807 269 1246 100 1851 -96 339 -144 647 -107 683 203 204 2403 -22 2849 -292 83 -50 465 -254 850 -454 385 -200 824 -451 975 -557 l275 -195 0 299 c0 164 -51 315 -114 336 -86 29 -86 92 0 252 63 118 111 588 107 1045 l-7 832 -145 -397 c-80 -218 -124 -454 -96 -525 60 -159 -36 -428 -154 -428 -48 0 -59 208 -24 461 l63 462 -440 -56 c-242 -31 -350 -32 -240 -2 110 30 243 95 295 145 52 49 202 90 332 90 347 0 255 340 -103 382 -313 36 -354 163 -99 306 132 75 230 47 400 -112 l225 -211 0 618 c0 482 -33 617 -150 617 -82 0 -150 72 -150 161 0 101 55 139 150 103 119 -46 150 31 150 375 0 418 -10 432 -275 384 l-275 -49 258 288 c239 266 260 367 279 1313 l21 1025 -349 0 c-223 0 -390 -63 -462 -175 -107 -167 -110 -167 -58 0 81 260 -110 212 -298 -74 -188 -287 -395 -239 -238 55 155 289 -64 246 -258 -50 -193 -295 -500 -246 -340 54 81 151 68 190 -61 190 -89 0 -186 -90 -215 -200 -29 -110 -97 -200 -152 -200 -55 0 -77 90 -48 200 74 282 -188 258 -273 -25 l-67 -225 -110 225 c-131 270 -263 289 -347 50 -76 -215 -437 -625 -549 -625 -134 0 -95 338 64 565 142 203 133 209 -340 220 -278 6 -527 -42 -582 -112 -52 -68 -148 -393 -212 -722 -76 -395 -201 -684 -365 -848 l-248 -248 0 339 c0 187 70 418 155 512 176 194 208 450 94 744 -65 165 -55 178 56 75 194 -180 295 -154 295 75 0 153 -67 200 -285 200 -234 0 -313 -67 -443 -375 -274 -648 -400 -1409 -324 -1958 39 -284 89 -719 110 -967 34 -391 25 -417 -68 -200 -260 607 -219 2587 70 3339 52 137 34 176 -68 142 -224 -75 -376 -760 -384 -1726 -6 -639 -39 -864 -116 -787 -111 111 -74 1433 60 2157 57 304 40 375 -88 375 -97 0 -136 -56 -102 -146 31 -80 8 -294 -51 -475 -59 -181 -115 -563 -125 -848 -21 -640 -135 -860 -221 -429 -35 175 -37 362 -4 415 33 54 73 409 88 790 l29 693 -291 0 c-345 0 -487 -275 -487 -944 0 -237 -28 -572 -62 -744 -123 -611 -208 -297 -187 688 17 788 -7 1000 -115 1000 -139 0 -203 -603 -153 -1440 22 -351 7 -377 -139 -255 -132 109 -156 286 -128 915 24 535 0 780 -78 780 -162 0 -250 -552 -181 -1143 43 -372 30 -467 -48 -357 -58 83 -107 458 -107 833 -2 502 -35 673 -127 642 -69 -23 -128 -173 -131 -334 -21 -955 -56 -1241 -152 -1241 -70 0 -96 275 -75 800 41 1000 -164 1121 -242 144 -84 -1037 -245 -1042 -342 -8 -34 365 -100 664 -147 664 -48 0 -86 -315 -86 -700 0 -400 -43 -700 -100 -700 -57 0 -100 300 -100 700 0 546 -32 700 -146 700 -111 0 -152 -170 -175 -725 -17 -441 -68 -705 -129 -675 -55 28 -104 208 -109 400 -24 892 -44 1000 -185 1000 -118 0 -133 -131 -85 -714 50 -587 35 -704 -80 -664 -99 34 -131 175 -108 474 38 497 -45 904 -185 904 -55 0 -98 -309 -98 -700 0 -400 -43 -700 -100 -700 -57 0 -100 300 -100 700 0 556 -31 700 -150 700 -119 0 -152 -151 -158 -725 -9 -819 -59 -796 -168 77 l-74 598 -525 30 -525 30 -9 -330 -9 -330 -94 325 c-79 273 -142 325 -391 325 -170 0 -298 -53 -299 -125 -1 -84 -32 -76 -95 24 -79 125 -146 128 -423 24 -212 -80 -342 -88 -363 -24 -61 182 -468 106 -669 -124 -242 -277 -448 -656 -448 -824 0 -174 -222 -343 -592 -449 -360 -103 -375 -142 312 823 404 569 449 675 286 675 -107 0 -225 -50 -263 -111 -47 -77 -96 -69 -160 25 -73 108 -124 90 -250 -89 -195 -279 -333 -289 -333 -25 0 111 -67 200 -150 200 -98 0 -150 -98 -150 -283 0 -156 -34 -317 -75 -357 -41 -41 -121 -259 -178 -485 -57 -226 -158 -429 -226 -451 -91 -31 -98 23 -28 207 52 137 69 273 39 303 -30 31 40 209 157 398 241 390 273 668 77 668 -75 0 -211 -250 -311 -575 -309 -1005 -501 -1457 -637 -1502 -199 -66 -56 602 292 1363 337 740 332 714 147 714 -79 0 -172 -90 -207 -200 -35 -110 -111 -200 -168 -200 -58 0 -82 90 -53 200 32 122 3 200 -74 200 -87 0 -146 -283 -192 -925 -36 -509 -127 -1099 -201 -1311 -98 -282 -121 -780 -88 -1850 26 -805 22 -1440 -9 -1411 -30 30 -69 255 -86 500 -18 253 -74 425 -130 397 -55 -27 -88 -185 -74 -350 14 -165 29 -649 33 -1076 5 -445 47 -752 100 -719 51 31 93 178 94 326 1 214 22 238 103 119 62 -91 77 -463 38 -950 -90 -1128 -117 -1328 -205 -1469 -42 -68 -103 -283 -136 -478 -46 -269 -106 -349 -251 -336 -105 10 -310 -44 -456 -119 -145 -76 -365 -111 -488 -79 -197 52 -216 102 -157 418 98 520 65 2226 -61 3213 -60 468 -103 940 -96 1050 7 110 8 631 2 1159 -8 669 36 1073 147 1337 87 208 158 483 158 610 0 128 45 260 100 294 155 96 120 -522 -48 -846 -107 -207 -122 -364 -55 -570 99 -303 235 -2696 223 -3922 -5 -569 20 -712 112 -620 74 74 115 442 111 988 -10 1345 -118 3339 -197 3651 -47 186 -12 412 102 664 95 211 147 467 116 569 -31 102 -23 535 19 963 52 529 43 765 -28 742 -58 -19 -117 -211 -131 -427 -44 -675 -129 -1042 -242 -1042 -72 0 -92 247 -60 750 43 680 31 750 -137 750 -102 0 -185 -65 -185 -144 0 -79 -50 -175 -111 -213 -74 -46 -88 1 -43 144 60 190 29 213 -289 213 -269 0 -360 -43 -369 -175z m8895 -1048 c-20 -936 -19 -930 -358 -1217 -222 -189 -225 -188 -225 13 0 134 61 200 175 191 149 -12 175 77 177 586 4 1216 45 1609 151 1450 54 -82 91 -543 80 -1023z m5831 549 c13 -552 -85 -835 -215 -624 -42 68 -55 309 -30 536 96 842 227 889 245 88z m2881 124 c-1 -110 -117 -335 -258 -500 l-255 -300 65 384 c94 555 267 904 369 744 44 -70 80 -218 79 -328z m3736 -1 c-224 -164 -303 -106 -134 97 69 84 168 125 220 93 52 -32 14 -118 -86 -190z m-20933 -331 c1 -128 -73 -308 -165 -400 -157 -156 -163 -145 -100 170 37 185 68 433 69 550 1 173 19 185 98 62 53 -82 98 -254 98 -382z m4483 -58 c-283 -435 -481 -534 -481 -239 0 215 623 834 681 677 17 -46 -73 -243 -200 -438z m2354 393 c59 -154 -174 -453 -354 -453 -59 0 -78 97 -44 225 33 124 61 259 62 300 2 137 279 78 336 -72z m-6475 -226 c-33 -33 -56 26 -52 131 5 117 28 141 60 61 29 -72 26 -159 -8 -192z m5840 138 c0 -204 -372 -497 -546 -430 -210 80 -195 440 21 496 343 90 525 67 525 -66z m2698 -746 c1 -329 -36 -507 -98 -469 -55 34 -99 340 -98 681 1 437 30 575 98 469 53 -82 98 -389 98 -681z m10477 525 c69 -21 125 -82 125 -136 0 -59 -198 -75 -498 -40 -309 37 -550 16 -634 -53 -75 -62 -166 -84 -202 -48 -36 36 58 143 209 238 248 155 580 168 1000 39z m-12140 -197 c-59 -153 -335 -208 -335 -67 0 128 224 317 312 263 43 -27 54 -115 23 -196z m13105 2 c-90 -138 -273 -279 -406 -312 -132 -33 -305 -184 -383 -335 -91 -177 -252 -297 -449 -337 -392 -78 -789 -473 -866 -862 -62 -307 -336 -430 -336 -152 0 192 211 574 375 679 69 44 125 145 125 225 0 80 82 145 183 145 100 0 288 113 417 250 129 138 307 250 395 250 88 0 238 90 332 200 94 110 233 200 310 200 76 0 195 68 263 150 196 237 221 175 40 -101z m-2340 97 c0 -130 -449 -646 -562 -646 -68 0 -221 -135 -338 -300 -242 -339 -500 -395 -500 -108 0 105 34 206 75 225 41 18 145 168 232 333 123 237 213 294 426 271 171 -18 292 27 329 125 54 141 338 225 338 100z m-10000 -346 c0 -165 -45 -300 -100 -300 -55 0 -100 135 -100 300 0 165 45 300 100 300 55 0 100 -135 100 -300z m-1552 -402 c-95 -105 -324 -241 -510 -302 -186 -61 -338 -176 -338 -254 0 -78 -19 -142 -42 -142 -23 0 -118 -29 -211 -65 -150 -58 -156 -37 -46 175 222 430 1198 1090 1284 868 20 -49 -42 -175 -137 -280z m12431 288 c-21 -62 -239 -192 -483 -288 -386 -151 -468 -236 -613 -641 -193 -538 -350 -757 -545 -757 -216 0 -163 213 128 517 230 240 244 286 100 341 -227 87 -209 242 28 242 107 0 223 47 258 104 206 333 1222 768 1127 482z m-13389 -248 c-63 -76 -233 -137 -377 -136 l-263 2 244 188 c280 215 585 174 396 -54z m15310 -41 c0 -129 -285 -245 -376 -154 -38 37 -2 110 79 161 193 122 297 120 297 -7z m-9011 -156 c22 -20 -17 -105 -87 -189 -108 -130 -88 -152 136 -152 166 0 262 55 262 150 0 168 44 176 490 87 256 -51 304 -100 253 -258 -56 -179 -26 -189 386 -127 487 73 678 -53 465 -309 -146 -176 -62 -298 124 -180 178 113 299 116 507 15 191 -93 239 -440 69 -497 -148 -49 -3 -381 167 -381 76 0 141 56 143 125 3 69 91 -38 196 -237 106 -199 284 -387 396 -416 157 -41 204 -135 204 -407 0 -354 -340 -1065 -510 -1065 -49 0 -90 -112 -90 -250 0 -137 -47 -250 -104 -250 -59 0 -92 159 -75 364 18 225 -19 382 -96 409 -79 27 -125 -51 -125 -213 0 -150 -129 -393 -309 -583 -218 -231 -289 -268 -239 -127 152 431 167 550 71 550 -55 0 -123 -90 -152 -200 -33 -125 -136 -200 -277 -200 -212 0 -215 11 -59 183 210 233 208 303 -10 310 -376 10 -930 134 -982 218 -111 180 -368 95 -315 -105 40 -154 -15 -209 -264 -262 -173 -37 -395 -152 -493 -256 -171 -180 -311 -233 -515 -194 -242 47 -546 -104 -492 -245 72 -187 -375 -206 -660 -28 -156 97 -227 90 -373 -36 -217 -188 -631 -303 -631 -176 0 50 -70 91 -156 91 -86 0 -128 45 -94 100 34 55 192 100 352 100 167 0 374 90 488 212 160 172 266 200 554 146 398 -75 1056 18 1056 149 0 47 -124 83 -275 81 -844 -11 -1525 43 -1525 122 0 50 132 90 294 90 162 0 319 41 350 91 31 49 141 68 245 41 349 -91 329 163 -26 332 -326 155 -371 155 -717 -9 -232 -110 -480 -153 -666 -116 -368 74 -502 1 -1131 -608 -276 -267 -661 -561 -855 -654 -415 -196 -717 -501 -685 -692 12 -74 -12 -214 -55 -311 -42 -98 -53 -266 -25 -375 34 -129 3 -199 -88 -199 -78 0 -144 34 -149 75 -85 827 88 1425 412 1425 99 0 314 113 478 250 163 138 336 250 383 250 130 0 736 689 835 949 74 196 157 228 598 228 330 0 574 57 689 161 219 198 356 204 537 24 185 -185 776 -313 776 -167 0 60 -112 153 -250 205 -137 52 -250 141 -250 198 0 56 -72 102 -161 102 -103 0 -139 55 -102 153 82 213 -419 405 -662 254 -146 -91 -175 -73 -175 105 0 193 -41 209 -408 160 -224 -30 -483 -121 -575 -203 -92 -81 -359 -179 -593 -217 -267 -44 -465 -142 -529 -261 -56 -105 -172 -191 -257 -191 -94 0 13 157 274 400 236 220 469 400 518 400 50 0 232 64 405 142 173 77 450 164 615 191 165 27 480 96 700 153 220 56 526 129 679 161 154 32 252 103 219 156 -84 137 -453 119 -748 -35 -289 -150 -1347 -224 -1262 -88 30 50 305 169 611 265 309 97 600 259 656 365 56 104 159 190 230 190 70 0 227 135 349 300 258 348 545 386 746 98 152 -216 470 -179 470 54 0 72 56 155 125 183 120 49 683 -20 764 -94z m-7989 -4 c0 -168 -252 -910 -368 -1084 -173 -260 -167 -161 18 282 83 197 150 473 150 612 0 139 45 253 100 253 55 0 100 -29 100 -63z m2849 -138 c-99 -110 -208 -174 -240 -141 -32 32 29 122 135 200 274 201 318 176 105 -59z m1211 -72 c-33 -33 -56 26 -52 131 5 117 28 141 60 61 29 -72 26 -159 -8 -192z m-8226 -543 c-24 -779 -27 -800 -109 -750 -41 26 -60 373 -41 773 18 399 64 678 100 618 37 -59 59 -348 50 -641z m3666 491 c-1 -276 -345 -860 -555 -941 -179 -69 -199 -53 -284 224 -49 159 -4 236 189 324 139 63 305 228 368 367 142 312 282 325 282 26z m3894 -100 c-6 -304 -13 -310 -101 -91 -51 129 -68 275 -37 325 102 166 144 95 138 -234z m12971 194 c39 -39 -16 -135 -122 -212 -166 -122 -204 -122 -273 2 -147 260 174 430 395 210z m-15342 -169 c226 -210 205 -225 -323 -242 -209 -7 -250 -57 -250 -308 0 -235 -49 -307 -225 -332 -269 -38 -295 157 -75 582 140 271 396 490 579 497 44 2 176 -87 294 -197z m2777 -100 c0 -110 -45 -200 -100 -200 -55 0 -100 90 -100 200 0 110 45 200 100 200 55 0 100 -90 100 -200z m-702 -831 c1 -319 -37 -557 -84 -528 -110 68 -224 1017 -146 1221 109 284 229 -75 230 -693z m9506 638 c-57 -107 -104 -309 -104 -450 0 -162 -56 -257 -150 -257 -177 0 -191 137 -42 415 130 243 50 358 -140 200 -176 -146 -301 -25 -155 151 61 74 243 134 403 134 257 0 279 -23 188 -193z m2996 88 c0 -168 -305 -725 -533 -974 -176 -193 -190 -261 -88 -425 107 -172 96 -196 -90 -196 -181 0 -202 40 -145 275 38 151 93 399 123 550 36 178 119 275 236 275 120 0 203 102 247 300 62 280 250 427 250 195z m-4700 -251 c0 -86 -46 -128 -102 -93 -56 35 -75 105 -44 156 86 139 146 113 146 -63z m2300 105 c0 -29 -42 -130 -93 -225 -51 -96 -117 -253 -147 -349 -29 -96 -106 -175 -169 -175 -84 0 -81 41 8 149 68 82 96 221 62 309 -34 88 -36 201 -5 251 59 95 344 128 344 40z m3450 -49 c-34 -55 -104 -100 -156 -100 -52 0 -94 45 -94 100 0 55 70 100 156 100 86 0 128 -45 94 -100z m-13981 -698 c53 -328 65 -647 28 -707 -38 -61 -98 62 -133 272 -36 211 -92 529 -126 708 -35 186 -19 325 37 325 54 0 141 -269 194 -598z m-1202 173 c-30 -124 -82 -562 -116 -975 -80 -966 -131 -1200 -260 -1200 -57 0 -79 79 -49 175 31 97 60 423 65 725 19 1030 101 1500 263 1500 107 0 136 -67 97 -225z m15369 75 c-60 -157 -336 -211 -336 -67 0 123 115 217 264 217 74 0 105 -64 72 -150z m-13236 -144 c0 -118 -195 -244 -267 -173 -71 72 55 267 173 267 52 0 94 -42 94 -94z m12600 -56 c102 -123 95 -150 -38 -150 -89 0 -162 68 -162 150 0 83 17 150 38 150 21 0 94 -67 162 -150z m-482 -175 c18 -124 100 -231 182 -238 83 -8 184 -19 225 -25 41 -7 -18 -105 -133 -220 -132 -132 -182 -269 -139 -375 131 -318 99 -467 -100 -467 -153 0 -201 74 -214 332 -10 204 37 354 122 386 238 91 157 332 -111 332 -266 0 -328 182 -130 380 177 177 262 147 298 -105z m-15968 25 c-34 -55 -138 -99 -231 -98 -146 1 -148 14 -19 98 196 127 328 127 250 0z m14062 -428 c-59 -59 -201 -56 -378 9 -172 62 -215 106 -110 111 96 4 230 97 298 207 123 196 125 196 204 -17 45 -120 38 -258 -14 -310z m-1612 228 c0 -110 -45 -200 -100 -200 -55 0 -100 90 -100 200 0 110 45 200 100 200 55 0 100 -90 100 -200z m2261 42 c-34 -87 -61 -290 -61 -450 0 -161 -36 -292 -80 -292 -71 0 -77 129 -33 725 7 96 63 175 124 175 61 0 83 -71 50 -158z m-14241 -162 c-64 -64 -150 -83 -190 -43 -41 41 -9 114 70 163 79 49 165 68 190 43 26 -26 -6 -99 -70 -163z m16622 159 c234 -89 192 -209 -92 -263 -238 -46 -341 99 -183 257 81 81 79 81 275 6z m-20949 -814 c4 -124 -38 -225 -93 -225 -55 0 -97 191 -93 425 5 329 26 380 93 225 47 -110 89 -301 93 -425z m3750 487 c30 -49 -125 -134 -344 -190 -411 -104 -534 -10 -224 170 218 127 496 137 568 20z m2659 -349 c97 -103 16 -363 -113 -363 -49 0 -84 191 -77 425 6 234 33 335 59 225 27 -110 86 -239 131 -287z m10610 212 c6 -69 5 -179 -3 -245 -9 -66 53 -286 138 -488 84 -201 152 -417 150 -479 -6 -203 -235 276 -354 737 -131 510 -415 640 -359 164 22 -187 -4 -263 -75 -219 -150 92 -138 527 16 589 236 95 475 66 487 -59z m3622 -207 c36 36 66 -13 66 -109 0 -240 -337 -163 -385 89 -31 161 -13 174 108 75 80 -67 175 -92 211 -55z m-16240 -793 c-7 -794 -123 -691 -224 200 -49 420 -32 525 85 525 114 0 144 -155 139 -725z m4906 403 c0 -43 -124 -84 -275 -91 -697 -33 -814 -57 -1061 -219 -145 -95 -264 -228 -265 -295 0 -83 -211 -127 -650 -135 -357 -7 -649 24 -649 68 0 87 357 228 600 238 83 3 194 106 248 228 72 166 212 238 550 283 248 33 564 94 700 136 252 75 802 -70 802 -213z m-5900 122 c0 -55 -45 -100 -100 -100 -55 0 -100 45 -100 100 0 55 45 100 100 100 55 0 100 -45 100 -100z m-381 -68 c-72 -29 -159 -26 -192 8 -33 33 26 56 131 52 117 -5 141 -28 61 -60z m15463 -590 c37 -465 -124 -361 -218 141 -45 241 -28 322 62 292 68 -22 138 -217 156 -433z m-14822 85 c-101 -102 -185 51 -102 186 63 102 87 102 121 1 23 -70 15 -154 -19 -187z m14416 -303 c57 -234 68 -447 24 -474 -43 -26 -108 120 -144 326 -37 206 -92 464 -123 574 -36 131 -22 165 42 100 54 -55 144 -292 201 -526z m2423 501 c0 -41 -135 -152 -300 -245 -225 -128 -299 -138 -299 -41 0 72 101 179 225 239 275 133 375 145 374 47z m-14549 -125 c-34 -55 -82 -100 -106 -100 -24 0 -44 45 -44 100 0 55 48 100 106 100 58 0 78 -45 44 -100z m-5550 -156 c0 -24 -45 -44 -100 -44 -55 0 -100 48 -100 106 0 58 45 78 100 44 55 -34 100 -82 100 -106z m16561 -347 c45 -237 33 -315 -37 -247 -57 55 -135 258 -174 450 -51 250 -40 321 38 247 59 -57 138 -259 173 -450z m-17085 -242 c-29 -355 -24 -674 11 -710 35 -35 70 -363 79 -729 8 -366 41 -992 73 -1391 31 -399 40 -725 19 -725 -58 0 -267 1272 -328 2000 -64 759 -58 1189 23 1775 92 660 180 500 123 -220z m16224 202 c0 -288 -33 -332 -252 -332 -355 0 -391 125 -137 469 264 357 389 312 389 -137z m-12412 -674 c7 -260 64 -484 130 -506 73 -24 90 -113 43 -233 -129 -337 -249 42 -304 966 -32 546 -20 735 35 540 46 -165 90 -510 96 -767z m14012 661 c0 -79 -45 -144 -100 -144 -55 0 -100 93 -100 206 0 113 45 178 100 144 55 -34 100 -127 100 -206z m-11400 58 c0 -53 -124 -173 -275 -265 -151 -91 -421 -329 -599 -527 -291 -325 -323 -338 -325 -140 -2 374 230 752 547 890 362 158 652 177 652 42z m941 -87 c85 -138 -467 -600 -894 -747 -292 -100 -424 -214 -497 -431 -135 -397 -517 -871 -598 -740 -35 56 -16 103 42 103 59 0 163 209 231 464 130 486 389 803 975 1188 368 243 653 305 741 163z m1759 -67 c0 -15 -162 -124 -360 -241 -198 -116 -383 -301 -412 -410 -50 -191 -328 -285 -328 -110 0 106 393 623 590 774 120 93 510 83 510 -13z m9866 -173 c-28 -69 -50 -12 -50 125 0 138 22 194 50 125 28 -69 28 -181 0 -250z m400 -102 c-28 -68 -49 12 -47 177 3 165 25 220 50 123 26 -97 24 -232 -3 -300z m805 -198 c-24 -124 -44 -22 -44 225 0 248 20 349 44 225 23 -124 23 -326 0 -450z m-6728 87 l266 -138 -341 -64 c-188 -35 -414 -36 -504 -2 -100 39 -186 1 -224 -98 -34 -88 -150 -160 -257 -160 -108 0 -287 -49 -398 -108 -324 -174 -360 3 -54 267 156 134 408 241 569 241 158 0 316 45 350 100 85 138 279 125 593 -38z m2690 -262 c92 0 167 -67 167 -150 0 -82 58 -150 129 -150 145 0 428 -1108 341 -1333 -29 -77 -150 -165 -269 -196 -167 -43 -203 -21 -157 99 33 85 7 218 -57 295 -63 77 -87 169 -51 204 35 35 64 12 64 -52 0 -64 68 -117 150 -117 83 0 150 48 150 107 0 171 -198 493 -304 493 -124 0 -545 420 -551 550 -2 55 -58 89 -125 75 -126 -26 -168 294 -53 409 37 36 141 -1 233 -84 91 -82 241 -150 333 -150z m-6733 100 c0 -55 -120 -100 -267 -100 -147 0 -350 -74 -450 -165 -182 -165 -246 -88 -106 128 126 196 823 311 823 137z m-4600 -181 c0 -147 -282 -470 -351 -401 -109 109 52 482 208 482 79 0 143 -36 143 -81z m10282 -470 c21 -262 120 -492 290 -671 226 -237 247 -313 165 -600 -95 -327 -97 -328 -659 -294 -311 18 -660 3 -776 -33 -228 -73 -597 -808 -861 -1719 -129 -441 -194 -532 -383 -532 -125 0 -308 90 -408 200 -203 225 -403 257 -510 84 -42 -68 44 -217 203 -353 224 -193 342 -225 641 -171 461 83 616 205 616 487 0 394 213 880 332 761 60 -60 278 -108 485 -108 337 0 369 -21 301 -204 -96 -261 -935 -1118 -1267 -1296 -225 -120 -301 -110 -662 82 -440 235 -838 282 -943 111 -43 -69 -131 -47 -254 64 -174 157 -193 158 -251 5 -35 -90 -9 -230 56 -309 66 -79 92 -189 58 -244 -34 -55 51 -174 188 -264 208 -136 308 -144 603 -46 195 64 354 158 354 209 0 50 68 92 150 92 82 0 150 -36 150 -80 0 -151 -1316 -1128 -1594 -1184 -365 -73 -802 160 -1221 652 -459 539 -1071 2035 -1177 2877 -80 635 -70 698 128 858 118 95 267 174 331 175 64 1 363 227 664 502 l547 500 636 -42 c798 -52 1257 -216 1619 -576 332 -331 467 -356 467 -86 0 126 -161 290 -455 462 -394 231 -491 378 -262 398 308 26 809 203 1001 354 178 139 336 170 654 126 319 -44 453 -18 557 108 232 280 452 147 487 -295z m-11623 -500 c46 -415 34 -568 -38 -499 -57 55 -135 370 -174 700 -50 427 -39 571 38 499 59 -56 138 -371 174 -700z m9319 636 c-32 -98 -767 -379 -1003 -383 -365 -8 428 393 958 484 46 8 66 -38 45 -101z m-1306 -152 c50 -148 -289 -259 -522 -169 -169 65 -169 75 9 205 212 155 455 138 513 -36z m4028 -139 c0 -107 -45 -194 -100 -194 -55 0 -100 115 -100 256 0 145 43 229 100 194 55 -34 100 -149 100 -256z m-7274 -6 c-39 -148 -142 -188 -490 -188 -382 0 -454 -35 -539 -258 -54 -142 -154 -240 -223 -217 -198 66 -145 493 76 605 110 56 268 135 350 176 83 41 313 74 513 73 305 -2 354 -32 313 -191z m2082 112 c51 0 92 -45 92 -100 0 -55 -63 -100 -141 -100 -78 0 -255 -135 -394 -300 -138 -165 -295 -300 -348 -300 -53 0 -122 -67 -153 -150 -88 -229 -212 -179 -228 92 -10 170 50 258 200 297 118 30 304 192 414 359 112 169 259 281 333 252 73 -27 175 -50 225 -50z m-5777 -525 c31 -206 38 -375 15 -375 -107 0 -353 637 -300 776 87 225 218 41 285 -401z m4669 367 c0 -87 -190 -345 -423 -575 -233 -229 -412 -468 -399 -531 30 -135 -254 -262 -393 -177 -54 34 -182 -16 -286 -109 -103 -94 -243 -152 -311 -129 -69 23 26 143 220 276 498 342 992 823 992 967 0 124 374 436 522 436 43 0 78 -71 78 -158z m211 -171 c-81 -81 -111 -70 -111 42 0 199 134 334 184 185 21 -64 -12 -166 -73 -227z m-6420 -496 c-7 -477 -17 -498 -101 -225 -86 279 -47 750 62 750 26 0 44 -236 39 -525z m5156 61 c-225 -165 -320 -95 -150 110 69 84 172 123 229 88 64 -40 33 -116 -79 -198z m-447 64 c0 -55 -45 -100 -100 -100 -55 0 -100 45 -100 100 0 55 45 100 100 100 55 0 100 -45 100 -100z m8298 -175 c-1 -214 -22 -242 -98 -125 -126 196 -126 400 0 400 55 0 99 -124 98 -275z m-11898 -370 c0 -176 -192 -236 -500 -157 l-250 65 300 159 c318 169 450 150 450 -67z m977 64 c24 -73 -21 -96 -119 -58 -87 33 -158 104 -158 158 0 131 227 49 277 -100z m3769 -126 c-75 -120 -346 -121 -346 -1 0 108 217 200 327 138 42 -24 50 -86 19 -137z m-4311 -187 c136 -52 274 -177 306 -279 32 -101 184 -258 338 -349 262 -155 305 -153 711 29 578 258 602 246 230 -118 -274 -267 -368 -302 -662 -247 -189 35 -481 193 -649 350 -168 157 -374 312 -458 344 -83 32 -151 127 -151 211 0 180 11 182 335 59z m11665 -450 c0 -182 -67 -388 -150 -456 -130 -107 -150 -64 -150 321 0 245 29 474 64 510 126 126 236 -49 236 -375z m-13078 228 c27 -81 92 -86 218 -16 234 131 660 47 660 -130 0 -87 -119 -141 -325 -146 -454 -12 -769 -51 -805 -100 -17 -23 -81 -154 -144 -292 -111 -246 -113 -244 -119 92 -9 452 404 926 515 592z m2628 -84 c193 -83 192 -86 -19 -93 -121 -4 -247 38 -281 93 -73 118 25 118 300 0z m9322 -167 c25 -75 -35 -98 -166 -63 -113 29 -206 96 -206 149 0 133 325 58 372 -86z m3028 78 c0 -49 -74 -118 -164 -153 -137 -52 -144 -38 -38 90 144 173 202 191 202 63z m-11400 -99 c0 -48 -64 -141 -142 -205 -117 -97 -133 -82 -88 87 52 201 230 292 230 118z m7900 -212 c0 -55 -90 -100 -200 -100 -110 0 -200 45 -200 100 0 55 90 100 200 100 110 0 200 -45 200 -100z m-10125 -626 c234 -283 391 -545 350 -584 -41 -38 -303 -100 -582 -137 -557 -73 -698 10 -758 446 -22 153 -141 300 -310 381 -495 236 -359 391 354 400 508 7 532 -6 946 -506z m12225 430 c0 -122 -333 -304 -555 -304 -133 0 -119 40 69 197 254 211 486 262 486 107z m2077 -85 c60 -180 -147 -142 -216 39 -38 98 -15 143 58 119 65 -22 136 -93 158 -158z m-13389 -281 c336 -68 403 -182 161 -274 -187 -72 -649 94 -649 234 0 119 64 124 488 40z m11393 -232 c25 -75 -12 -112 -87 -87 -72 24 -151 103 -175 175 -25 75 12 112 87 87 72 -24 151 -103 175 -175z m1272 -379 c84 -201 180 -480 213 -621 94 -400 -121 -122 -266 344 -69 220 -220 507 -337 639 l-213 238 225 -117 c124 -64 294 -282 378 -483z m2049 -35 c90 -375 92 -538 10 -620 -62 -62 -114 -92 -117 -67 -3 25 -18 225 -33 445 -15 220 -63 507 -105 638 -50 152 -42 215 22 175 56 -34 156 -291 223 -571z m-19920 116 c18 -180 4 -400 -30 -490 -99 -256 -249 53 -250 515 -2 478 233 457 280 -25z m3122 238 c185 -223 2 -334 -379 -229 -356 97 -425 242 -150 314 319 83 399 70 529 -85z m-1004 -123 c0 -103 -67 -128 -225 -86 -124 33 -259 61 -300 62 -41 0 -75 43 -75 94 0 52 135 90 300 85 193 -5 300 -61 300 -155z m-828 -86 c20 -62 -83 -143 -229 -180 -316 -79 -370 -44 -283 184 72 186 450 183 512 -4z m14807 -51 c20 -105 -58 -178 -226 -210 -306 -58 -420 73 -246 283 155 186 430 144 472 -73z m1021 14 c0 -55 -45 -100 -100 -100 -55 0 -100 45 -100 100 0 55 45 100 100 100 55 0 100 -45 100 -100z m-14550 -201 c79 -127 -201 -241 -356 -145 -84 52 -79 94 20 157 179 113 261 110 336 -12z m-2050 -193 c0 -107 -45 -222 -100 -256 -57 -35 -100 49 -100 194 0 141 45 256 100 256 55 0 100 -87 100 -194z m1276 -3 c154 -165 326 -199 1078 -209 493 -7 1020 36 1171 94 281 110 374 11 150 -158 -69 -52 -322 -156 -562 -232 -386 -122 -470 -119 -723 26 -197 113 -306 130 -353 55 -113 -182 243 -357 876 -430 720 -84 687 -176 -80 -220 -406 -24 -611 10 -735 123 -95 86 -234 143 -308 127 -76 -16 -150 70 -170 196 -26 173 -100 225 -321 225 -158 0 -315 45 -349 100 -34 55 -194 100 -356 100 -162 0 -294 45 -294 100 0 100 194 139 525 105 96 -10 175 30 175 89 0 154 69 131 276 -91z m1324 97 c0 -55 -70 -100 -156 -100 -86 0 -128 45 -94 100 34 55 104 100 156 100 52 0 94 -45 94 -100z m2050 0 c-34 -55 -183 -99 -331 -98 -210 1 -236 22 -119 98 198 128 529 128 450 0z m11310 -173 c-101 -102 -185 51 -102 186 63 102 87 102 121 1 23 -70 15 -154 -19 -187z m1069 -175 c12 -154 -31 -299 -94 -321 -77 -27 -110 94 -100 358 16 438 160 410 194 -37z m1471 204 c0 -134 -43 -271 -96 -304 -55 -34 -87 71 -75 244 25 361 171 412 171 60z m366 -281 c-28 -69 -50 -12 -50 125 0 138 22 194 50 125 28 -69 28 -181 0 -250z m-20469 -225 c0 -166 -17 -174 -97 -50 -53 82 -97 240 -97 350 0 166 17 174 97 50 53 -82 97 -240 97 -350z m16864 -129 c-147 -285 -433 -482 -541 -374 -51 51 600 730 662 692 18 -11 -36 -154 -121 -318z m-14720 194 c29 -47 -120 -137 -331 -200 -530 -159 -598 -140 -324 88 246 205 564 259 655 112z m10859 -171 c0 -24 -45 -44 -100 -44 -55 0 -100 48 -100 106 0 58 45 78 100 44 55 -34 100 -82 100 -106z m2800 -144 c0 -55 -45 -100 -100 -100 -55 0 -100 45 -100 100 0 55 45 100 100 100 55 0 100 -45 100 -100z m-2851 -302 c-28 -44 -128 -65 -224 -47 -96 19 -209 37 -250 41 -41 5 -75 45 -75 91 0 45 135 63 299 38 164 -24 277 -79 250 -123z m-11199 2 c-275 -118 -433 -118 -250 0 83 53 217 94 300 91 99 -3 82 -34 -50 -91z m12750 -387 c0 -107 -584 -234 -712 -156 -50 31 -65 99 -34 150 73 118 746 123 746 6z m643 -163 c4 -55 -94 -114 -218 -132 -219 -31 -296 78 -155 219 97 97 364 35 373 -87z m-4607 -2300 c65 -168 48 -176 -178 -89 -195 75 -208 239 -19 239 77 0 166 -67 197 -150z m-11770 -275 c-28 -69 -50 -12 -50 125 0 138 22 194 50 125 28 -69 28 -181 0 -250z"/>
<path d="M14204 22554 c-111 -133 -85 -154 192 -154 212 0 307 42 279 125 -62 188 -326 204 -471 29z"/>
<path d="M13025 22536 c-257 -108 -111 -191 322 -183 428 8 793 146 395 148 -106 1 -282 21 -392 45 -110 24 -256 19 -325 -10z"/>
<path d="M15157 22411 c-30 -48 68 -112 219 -140 306 -59 456 -4 370 136 -73 118 -516 122 -589 4z"/>
<path d="M16455 22209 c-70 -114 629 -558 725 -462 74 74 -429 553 -580 553 -48 0 -114 -41 -145 -91z"/>
<path d="M14250 22000 c-36 -58 68 -100 250 -100 182 0 286 42 250 100 -34 55 -146 100 -250 100 -104 0 -216 -45 -250 -100z"/>
<path d="M15600 21811 c0 -122 294 -226 420 -149 63 40 51 95 -34 149 -178 113 -386 112 -386 0z"/>
<path d="M16463 21521 c-30 -49 99 -161 287 -251 338 -161 565 -86 324 106 -196 157 -552 241 -611 145z"/>
<path d="M14700 21350 c0 -82 68 -150 150 -150 82 0 150 -46 150 -103 0 -57 -68 -129 -150 -161 -249 -95 -170 -263 93 -197 159 40 300 3 411 -108 174 -173 1046 -288 1046 -138 0 169 -306 329 -521 273 -238 -63 -579 171 -579 396 0 133 -299 338 -493 338 -59 0 -107 -67 -107 -150z"/>
<path d="M13456 21310 c-30 -49 127 -106 350 -128 425 -40 523 -10 435 132 -70 114 -714 111 -785 -4z"/>
<path d="M17365 21224 c-67 -107 520 -672 608 -585 73 74 -281 580 -445 635 -60 20 -134 -2 -163 -50z"/>
<path d="M13655 20908 c-61 -98 395 -465 650 -523 263 -61 162 157 -182 390 -377 255 -390 259 -468 133z"/>
<path d="M16874 20641 c-108 -109 19 -241 232 -241 107 0 194 -45 194 -100 0 -55 71 -100 157 -100 106 0 146 74 125 225 -24 169 -108 232 -336 255 -167 16 -334 -1 -372 -39z"/>
<path d="M18400 20512 c0 -122 64 -212 150 -212 83 0 150 39 150 88 0 48 -67 144 -150 212 -125 104 -150 90 -150 -88z"/>
<path d="M15973 20239 c-33 -32 -35 -122 -5 -199 64 -167 348 -184 502 -30 81 81 199 26 435 -200 339 -324 759 -406 975 -190 162 162 158 610 -5 553 -69 -24 -112 -118 -96 -208 49 -270 -502 -210 -779 85 -244 260 -541 326 -653 145 -45 -73 -103 -73 -190 -1 -69 57 -152 78 -184 45z"/>
<path d="M18200 20105 c0 -209 240 -605 366 -605 188 0 161 209 -60 475 -200 240 -306 285 -306 130z"/>
<path d="M14300 19990 c0 -266 223 -490 488 -490 273 0 705 341 584 461 -110 111 -1072 137 -1072 29z"/>
<path d="M13898 17387 c0 -76 122 -374 272 -663 292 -563 521 -689 1230 -679 347 5 350 9 350 452 0 377 -39 467 -250 574 -137 69 -443 127 -679 128 -235 0 -539 74 -675 163 -196 128 -246 133 -248 25z m1452 -525 c190 -105 188 -112 -56 -141 -304 -36 -794 133 -794 274 0 117 553 30 850 -133z"/>
<path d="M6821 15440 c360 -444 590 -645 680 -590 141 88 -414 750 -630 750 -151 0 -159 -25 -50 -160z"/>
<path d="M5572 24602 c38 -283 3 -476 -124 -669 -138 -211 -184 -516 -203 -1352 -14 -595 10 -1081 53 -1081 135 0 199 418 201 1303 1 596 46 917 152 1068 83 118 170 421 193 672 37 393 17 457 -141 457 -157 0 -176 -59 -131 -398z"/>
<path d="M24800 13200 c-64 -119 -94 -240 -66 -267 27 -28 102 48 166 167 64 119 94 240 66 267 -27 28 -102 -48 -166 -167z"/>
<path d="M11420 12725 c236 -485 328 -622 450 -669 96 -37 75 41 -64 235 -113 160 -206 339 -206 399 0 61 -49 110 -108 110 -60 0 -92 -34 -72 -75z"/>
<path d="M12000 12712 c0 -55 45 -128 100 -162 55 -34 100 -17 100 38 0 55 -45 128 -100 162 -55 34 -100 17 -100 -38z"/>
<path d="M11300 12212 c0 -48 68 -144 150 -212 163 -135 183 -103 89 142 -64 167 -239 219 -239 70z"/>
<path d="M11900 11550 c129 -137 283 -250 341 -250 59 0 -14 113 -163 250 -148 138 -302 250 -341 250 -40 0 34 -112 163 -250z"/>
<path d="M10800 11619 c0 -84 376 -519 449 -519 23 0 -35 135 -129 299 -162 286 -320 394 -320 220z"/>
<path d="M13503 11544 c-2 -58 63 -193 144 -300 81 -107 148 -146 150 -88 2 58 -63 193 -144 300 -81 107 -148 146 -150 88z"/>
<path d="M16797 10975 c-112 -248 -194 -650 -195 -963 -2 -478 -187 -1798 -267 -1901 -17 -22 -100 18 -185 89 -184 152 -321 60 -181 -123 53 -70 176 -352 273 -627 97 -275 246 -655 331 -844 184 -411 220 -2057 52 -2358 -103 -183 -117 -185 -179 -23 -37 96 -153 175 -257 175 -216 0 -243 -106 -71 -278 65 -65 85 -152 45 -192 -41 -41 -111 -13 -157 61 -46 74 -134 104 -195 66 -150 -93 44 -457 243 -457 201 0 183 -126 -63 -439 -284 -361 -979 -713 -1123 -569 -160 160 -368 131 -368 -53 0 -105 -54 -140 -158 -100 -87 34 -231 61 -319 61 -134 0 -129 27 33 158 191 156 191 157 -6 85 -110 -40 -357 -91 -550 -113 l-350 -40 275 234 c399 339 337 418 -107 137 -367 -231 -387 -234 -498 -55 -97 154 -78 213 107 346 221 160 219 161 -127 145 -528 -26 -573 -3 -300 153 239 137 241 143 33 146 -119 2 -237 60 -263 129 -35 94 -87 86 -211 -31 -152 -145 -143 -186 121 -551 158 -217 266 -455 241 -529 -33 -99 15 -116 180 -64 151 48 202 36 156 -38 -42 -69 -9 -87 88 -50 98 37 155 4 155 -92 0 -102 65 -134 200 -99 112 29 200 3 200 -59 0 -200 1425 -138 1917 83 615 278 808 475 1203 1233 192 368 369 650 393 626 91 -91 -277 -2890 -415 -3154 -43 -82 -110 -364 -149 -625 l-72 -475 550 0 550 0 67 442 c44 298 18 556 -82 796 -146 349 -144 356 132 494 175 88 339 108 436 53 204 -114 301 -585 184 -891 -76 -200 -45 -296 171 -534 146 -160 212 -261 147 -224 -65 37 -146 22 -181 -34 -69 -112 1117 -147 1391 -41 111 42 158 191 158 495 0 378 -46 473 -350 715 -377 301 -472 501 -157 333 259 -139 307 -131 307 46 0 95 96 150 261 150 199 0 246 -38 198 -163 -34 -89 1 -213 79 -275 78 -61 171 -224 207 -362 54 -209 47 -221 -45 -75 -189 302 -280 194 -316 -375 -29 -467 -8 -550 138 -550 112 0 152 53 114 150 -36 95 2 150 103 150 89 0 161 79 161 176 0 186 336 455 439 351 34 -33 -1 -132 -78 -219 -95 -108 -112 -229 -53 -383 75 -198 156 -225 678 -225 l592 0 65 350 c37 193 109 356 162 363 52 6 140 23 195 37 55 14 149 31 208 38 60 6 90 68 67 137 -25 73 -167 112 -345 94 -341 -35 -659 210 -607 468 25 124 146 161 509 156 380 -5 470 26 446 150 -19 99 -160 169 -378 190 -397 38 -600 172 -600 395 0 131 27 128 190 -19 138 -125 282 -155 526 -109 417 78 835 -72 986 -354 158 -295 -48 -779 -365 -858 -130 -33 -237 -100 -237 -149 0 -140 342 -104 556 58 254 192 728 191 1190 -2 344 -144 368 -142 337 17 -18 94 -168 215 -333 268 -378 123 -367 111 -292 306 35 90 132 164 215 164 126 0 138 75 69 425 -93 476 -77 5158 19 5625 34 165 107 356 162 424 55 68 73 193 40 279 -33 85 -7 355 58 598 65 243 88 473 51 510 -37 37 -303 -30 -590 -150 -531 -220 -2172 -555 -2265 -461 -28 28 54 163 183 300 172 183 195 250 86 250 -82 0 -289 -157 -459 -350 -234 -264 -392 -351 -643 -356 -184 -3 -638 -29 -1009 -56 -371 -28 -675 -18 -675 22 0 41 75 157 166 258 91 101 133 217 91 258 -74 73 -400 -264 -485 -502 -25 -68 -81 -91 -124 -50 -44 41 2 165 102 276 100 111 149 235 108 276 -41 40 -206 -73 -366 -253 -291 -325 -385 -284 -188 84 68 128 69 193 2 193 -56 0 -185 -164 -288 -365 -124 -241 -213 -324 -263 -244 -41 67 -3 201 85 298 178 197 205 311 73 311 -48 0 -194 -157 -325 -349 -268 -394 -483 -489 -229 -101 90 138 130 250 89 250 -105 0 -548 -490 -548 -605 0 -52 -46 -95 -103 -95 -57 0 -32 135 58 309 176 341 145 482 -53 243 -140 -168 -350 -211 -252 -51 35 55 -8 127 -94 160 -217 84 -225 1709 -9 1995 175 232 191 344 48 344 -58 0 -192 -191 -298 -425z m1020 -3000 c-101 -195 -696 -1799 -729 -1965 -28 -143 -165 574 -176 920 -15 476 232 985 439 906 93 -36 149 1 149 98 0 152 306 393 391 308 23 -23 -10 -143 -74 -267z m4756 -270 c-29 -217 -16 -409 28 -425 45 -17 109 -296 143 -621 34 -325 122 -640 195 -700 73 -60 164 -199 202 -309 52 -151 -10 -122 -249 115 -274 271 -320 390 -330 850 -10 444 -42 533 -187 521 -183 -14 -243 210 -83 309 51 32 122 192 158 356 96 436 185 366 123 -96z m-3773 -55 c0 -131 -34 -259 -75 -285 -41 -25 -75 103 -75 285 0 182 34 310 75 285 41 -26 75 -154 75 -285z m828 289 c33 -33 -29 -288 -138 -566 -110 -277 -176 -565 -148 -639 32 -82 -20 -134 -134 -134 -197 0 -308 -186 -308 -514 0 -109 -45 -170 -100 -136 -55 34 -100 217 -100 406 0 252 93 446 350 731 213 236 350 490 350 650 0 250 95 335 228 202z m1891 -7 c-72 -29 -159 -26 -192 8 -33 33 26 56 131 52 117 -5 141 -28 61 -60z m-1407 -477 c-201 -529 -288 -634 -363 -439 -78 203 225 884 393 884 114 0 108 -80 -30 -445z m1688 -255 c0 -110 -17 -200 -38 -200 -21 0 -62 90 -91 200 -29 110 -11 200 38 200 50 0 91 -90 91 -200z m-3550 -500 c-34 -55 -82 -100 -106 -100 -24 0 -44 45 -44 100 0 55 48 100 106 100 58 0 78 -45 44 -100z m3916 -425 c-28 -69 -50 -12 -50 125 0 138 22 194 50 125 28 -69 28 -181 0 -250z m-2766 106 c0 -65 101 -226 225 -358 198 -210 223 -336 210 -1037 -15 -837 -85 -1051 -247 -760 -54 96 -158 174 -230 174 -73 0 -291 146 -484 325 -294 272 -337 363 -263 557 126 333 388 239 632 -225 273 -517 478 -591 391 -140 -35 183 -125 422 -199 530 -74 109 -135 300 -135 425 0 126 -41 228 -91 228 -49 0 -67 90 -38 200 56 215 229 277 229 81z m1000 -12 c0 -72 -66 -218 -147 -325 -139 -183 -147 -176 -150 131 -2 224 44 325 147 325 83 0 150 -59 150 -131z m-2643 -945 c-177 -166 -182 -165 -121 9 35 101 64 234 64 295 0 78 37 75 121 -9 94 -94 80 -159 -64 -295z m4587 286 c30 -49 -19 -117 -109 -152 -195 -75 -281 -13 -189 135 80 130 223 139 298 17z m-4103 -491 c-55 -350 -31 -403 299 -655 249 -190 360 -354 360 -532 0 -246 -19 -255 -412 -192 -345 55 -402 41 -353 -87 69 -180 -18 -453 -145 -453 -48 0 -77 225 -64 499 24 493 126 643 238 351 31 -83 120 -150 197 -150 235 0 154 285 -161 566 -431 384 -416 980 26 1026 42 4 49 -163 15 -373z m5425 -44 c-28 -69 -50 -12 -50 125 0 138 22 194 50 125 28 -69 28 -181 0 -250z m-1742 -325 c27 -137 10 -250 -38 -250 -47 0 -86 113 -86 250 0 138 17 250 38 250 21 0 60 -112 86 -250z m-1519 -167 c-273 -254 -270 -643 5 -715 277 -72 148 -268 -177 -268 -240 0 -251 23 -191 375 154 892 160 906 369 851 198 -52 198 -53 -6 -243z m693 -308 c0 -69 -40 -186 -87 -261 -110 -173 -255 28 -173 241 68 178 263 193 260 20z m-1843 -842 c-79 -155 -168 -362 -197 -458 -61 -205 -358 -238 -358 -40 0 74 91 240 203 368 111 129 230 344 264 478 50 199 77 215 147 90 54 -96 32 -260 -59 -438z m3269 115 c-38 -201 -76 -229 -186 -138 -198 164 -170 390 48 390 145 0 176 -56 138 -252z m-1200 -149 c172 -160 190 -225 89 -325 -100 -99 -146 -88 -225 53 -55 98 -143 151 -194 119 -106 -65 -130 185 -27 287 96 97 119 88 357 -134z m-2866 -475 c-109 -108 -140 26 -76 326 l65 300 34 -284 c19 -156 8 -310 -23 -342z m1820 319 c136 43 220 -8 299 -182 79 -174 221 -260 513 -309 381 -65 403 -87 391 -406 -7 -185 46 -408 117 -494 72 -86 105 -182 74 -213 -71 -72 -380 394 -414 625 -31 210 -253 308 -270 119 -34 -384 436 -1255 890 -1647 l248 -214 -232 -74 c-181 -57 -283 -15 -463 195 -127 147 -231 375 -231 506 0 130 -101 392 -225 581 -217 332 -247 344 -828 335 -497 -7 -642 30 -825 213 -358 358 -258 409 281 142 419 -207 545 -230 750 -137 362 165 301 317 -128 319 -211 1 -482 85 -620 191 -219 168 -232 217 -126 451 115 252 129 256 365 101 136 -89 331 -135 434 -102z m1682 -303 c-48 -126 -97 -143 -177 -63 -60 60 -80 188 -43 283 48 126 97 143 177 63 60 -60 80 -188 43 -283z m-3729 -652 c218 -503 162 -590 -168 -260 -169 169 -232 318 -195 461 81 307 163 262 363 -201z m529 -261 c-33 -33 -56 26 -52 131 5 117 28 141 60 61 29 -72 26 -159 -8 -192z m-15 -1072 c-36 -223 -106 -448 -155 -500 -106 -112 -109 -100 -143 676 -26 571 -23 578 169 405 158 -143 182 -254 129 -581z m1988 420 c94 -151 133 -275 85 -275 -79 0 -318 429 -318 571 0 73 8 63 233 -296z m-3611 -1100 c-95 -198 -108 -170 -108 225 0 395 13 423 108 225 78 -162 78 -288 0 -450z m2231 415 c37 -116 17 -260 -43 -320 -80 -80 -110 -66 -110 52 0 89 -53 179 -118 201 -126 42 -27 277 117 277 48 0 118 -95 154 -210z m2240 -674 c-142 -49 -393 60 -393 171 0 53 109 43 247 -21 135 -64 201 -131 146 -150z"/>
<path d="M19500 3125 c0 -117 448 -325 699 -325 202 0 355 156 228 232 -176 104 -927 179 -927 93z"/>
<path d="M10402 11225 c2 -137 186 -370 245 -311 79 78 -47 386 -158 386 -49 0 -88 -34 -87 -75z"/>
<path d="M13995 10810 c136 -255 305 -360 305 -190 0 73 -93 190 -206 261 -189 118 -197 112 -99 -71z"/>
<path d="M13200 10556 c0 -24 45 -72 100 -106 55 -34 100 -14 100 44 0 58 -45 106 -100 106 -55 0 -100 -20 -100 -44z"/>
<path d="M14100 10112 c0 -48 68 -144 150 -212 82 -68 150 -186 150 -262 0 -76 44 -138 98 -138 54 0 24 158 -68 350 -155 326 -330 464 -330 262z"/>
<path d="M14500 10000 c0 -55 38 -100 84 -100 46 0 142 -124 213 -275 71 -151 149 -221 172 -156 24 65 -32 234 -124 375 -170 260 -345 339 -345 156z"/>
<path d="M13815 9701 c121 -164 243 -277 270 -250 86 86 -213 549 -355 549 -96 0 -71 -88 85 -299z"/>
<path d="M23200 9650 c-71 -85 -106 -177 -79 -205 28 -27 108 20 179 105 71 85 106 177 79 205 -28 27 -108 -20 -179 -105z"/>
<path d="M4047 9338 c-288 -674 -286 -1027 13 -1888 384 -1109 368 -1703 -87 -3200 -201 -660 -428 -1560 -504 -2000 -87 -499 -267 -1045 -478 -1450 -187 -357 -355 -684 -374 -725 -18 -41 374 -75 872 -75 l906 0 -48 325 c-27 179 -22 269 10 200 89 -187 181 -156 536 184 383 366 356 487 -40 176 l-277 -218 74 241 75 242 -244 -225 c-134 -124 -275 -225 -312 -225 -163 0 -46 232 235 469 168 141 280 280 251 309 -30 30 -145 -29 -257 -130 -356 -322 -433 -31 -91 344 179 196 236 308 138 270 -122 -47 -151 -23 -108 89 48 127 23 135 -144 45 -146 -78 -185 -169 -141 -327 48 -173 39 -187 -44 -69 -125 178 -131 1365 -8 1650 72 168 87 172 93 28 4 -95 134 -239 289 -319 443 -229 571 -425 406 -623 -120 -145 -113 -157 64 -101 252 80 535 -280 293 -373 -160 -61 -202 -362 -50 -362 52 0 136 73 185 161 83 148 139 148 680 -10 1677 -488 3349 172 4037 1592 238 492 256 1457 28 1532 -92 31 -125 -144 -125 -661 0 -813 -180 -1204 -775 -1681 -831 -667 -2869 -1023 -2654 -465 49 129 27 133 -143 26 -233 -145 -528 -66 -528 142 0 79 79 173 175 209 140 54 150 42 50 -59 -204 -206 -142 -332 69 -141 151 136 168 204 77 302 -95 102 -162 98 -340 -19 -122 -80 -269 -116 -327 -81 -148 92 -129 256 23 198 70 -27 322 149 559 391 506 515 546 893 100 945 -197 22 -317 -43 -468 -256 -222 -312 -151 -598 122 -493 88 34 160 19 160 -34 0 -108 -705 -427 -780 -352 -27 27 25 78 116 112 90 35 164 105 164 156 0 51 -94 43 -209 -19 -279 -149 -376 -33 -134 161 185 148 182 151 -56 85 -231 -65 -238 -56 -101 109 136 164 130 173 -76 108 -268 -85 -291 15 -49 212 121 99 138 158 56 193 -66 27 -95 115 -65 193 31 79 9 144 -47 144 -56 0 -120 -53 -142 -118 -24 -72 -91 -85 -176 -32 -110 67 -101 97 47 149 242 85 313 501 86 501 -148 0 -146 21 16 200 103 113 131 200 65 200 -257 0 -4 718 416 1177 197 216 199 236 34 400 -166 164 -185 160 -368 -77 -142 -184 -193 -208 -195 -88 -1 88 91 280 205 425 190 241 180 311 -40 272 -45 -8 -53 77 -18 188 69 216 -101 290 -177 78 -25 -69 -75 -97 -111 -64 -37 34 -22 178 32 322 98 258 -16 472 -143 267 -244 -394 -319 574 -85 1085 106 230 122 368 51 439 -70 70 -155 -20 -269 -286z m753 -5438 c0 -55 -45 -100 -100 -100 -55 0 -100 45 -100 100 0 55 45 100 100 100 55 0 100 -45 100 -100z m1400 -356 c0 -86 -45 -128 -100 -94 -55 34 -100 104 -100 156 0 52 45 94 100 94 55 0 100 -70 100 -156z"/>
<path d="M22566 9418 c-100 -111 -137 -224 -84 -257 118 -73 350 192 300 343 -22 66 -110 31 -216 -86z"/>
<path d="M20649 9199 c-224 -247 -123 -388 111 -154 114 115 191 134 237 60 44 -72 131 -40 251 93 180 199 178 202 -117 202 -173 0 -377 -85 -482 -201z"/>
<path d="M21523 9200 c-68 -110 -88 -200 -44 -200 104 0 321 216 321 320 0 147 -151 82 -277 -120z"/>
<path d="M20051 9101 c-100 -111 -136 -201 -79 -201 126 0 375 286 308 353 -26 27 -130 -42 -229 -152z"/>
<path d="M24941 4250 c0 -990 15 -1409 33 -930 19 478 19 1288 1 1800 -19 511 -34 120 -34 -870z"/>
<path d="M11764 4150 c-32 -83 -20 -150 27 -150 46 0 141 67 209 150 101 122 96 150 -27 150 -83 0 -178 -67 -209 -150z"/>
<path d="M4111 2863 c-70 -84 -83 -222 -34 -354 80 -216 81 -216 327 53 200 220 211 258 60 203 -140 -50 -172 -29 -128 84 72 189 -73 198 -225 14z"/>
<path d="M22272 1439 c-123 -124 37 -239 334 -239 162 0 294 45 294 100 0 55 -64 100 -142 100 -78 0 -204 24 -280 53 -76 29 -169 23 -206 -14z"/>
<path d="M17549 1283 c-35 -92 -14 -262 48 -377 63 -119 83 -359 46 -557 -53 -281 -34 -349 96 -349 128 0 161 109 161 531 0 578 -228 1067 -351 752z"/>
<path d="M5350 779 c-270 -156 -786 -677 -728 -735 26 -26 219 116 430 314 210 199 476 399 590 445 126 51 149 86 58 88 -82 1 -240 -49 -350 -112z"/>
<path d="M23652 572 c-839 -518 -904 -572 -674 -572 124 0 320 56 436 125 170 100 221 100 257 0 29 -78 238 -125 554 -125 280 0 475 34 433 75 -41 41 -116 81 -166 88 -51 6 -137 18 -192 25 -55 6 -100 62 -100 123 0 61 72 83 159 49 380 -146 641 -176 641 -74 0 268 -1024 485 -1348 286z"/>
<path d="M5203 245 c-291 -205 -313 -245 -137 -245 115 0 266 68 334 150 68 83 184 150 256 150 73 0 160 45 194 100 117 190 -301 90 -647 -155z"/>
</g>
</svg>