<svg xmlns="http://www.w3.org/2000/svg" version="1.0" width="250" height="250" viewBox="0 0 250.000000 250.000000" preserveAspectRatio="xMidYMid meet">
<metadata>
Created by potrace 1.10, written by Peter Selinger 2001-2011
</metadata>
<g transform="translate(0.000000,250.000000) scale(0.010000,-0.010000)" fill="#555555" stroke="none">
<path d="M13753 23320 c-16 -17 -3117 -27 -6891 -23 -6823 7 -6862 6 -6862 -195 0 -185 66 -202 775 -208 426 -3 4960 -23 10075 -46 5115 -22 9908 -50 10650 -63 743 -13 1834 -15 2425 -4 1002 18 1075 33 1075 219 0 195 -71 200 -2875 213 -1581 7 -4105 40 -5609 75 -1503 34 -2747 48 -2763 32z"/>
<path d="M0 21719 l0 -505 910 -32 c500 -18 929 -1 953 38 66 108 -632 210 -1053 154 -381 -51 -710 56 -710 231 0 130 1472 121 1553 -10 44 -71 104 -72 187 -3 121 100 2960 150 2960 52 0 -28 -196 -135 -435 -238 -484 -207 -1645 -1193 -1843 -1565 -134 -251 -852 -678 -959 -570 -70 69 -1116 -423 -1388 -654 -96 -81 -174 -220 -172 -307 3 -131 34 -124 175 40 187 218 839 550 1079 550 82 0 260 72 393 159 530 347 468 55 -123 -580 -385 -413 -659 -812 -736 -1069 -112 -374 -152 -410 -457 -410 -293 0 -334 -32 -334 -261 0 -242 24 -257 336 -198 376 70 614 -116 614 -482 0 -139 64 -208 195 -208 197 -1 337 -294 333 -701 -1 -166 -9 -170 -47 -24 -57 219 -231 128 -231 -121 0 -188 -251 -347 -401 -254 -150 92 -811 -366 -777 -539 25 -123 132 -156 444 -138 352 20 420 -9 471 -200 88 -326 86 -331 -190 -659 -138 -165 -240 -360 -225 -432 18 -83 -67 -133 -222 -133 -198 0 -257 -57 -282 -275 -39 -341 92 -349 441 -25 149 138 331 250 406 250 159 0 182 168 30 218 -61 21 -10 208 125 456 194 354 210 452 105 622 -168 270 -158 552 25 704 176 146 191 71 44 -232 -99 -205 -93 -204 100 18 184 211 206 216 206 49 0 -161 -192 -744 -449 -1360 -102 -245 116 -223 249 25 118 221 1187 800 1476 800 100 0 420 224 711 497 367 345 642 515 896 556 202 32 516 124 699 204 389 171 518 120 518 -205 0 -175 -111 -298 -422 -470 -233 -128 -477 -343 -545 -478 -119 -240 -510 -597 -658 -602 -41 -1 -75 66 -75 148 0 190 -133 190 -505 -3 -311 -161 -417 -415 -126 -303 144 55 140 32 -23 -149 -196 -216 -1469 -1004 -1528 -945 -18 17 41 175 132 350 91 175 142 341 114 369 -110 110 -256 -95 -420 -588 l-172 -517 264 -211 c335 -267 384 -804 64 -703 -236 75 -248 20 -61 -279 76 -121 167 -385 202 -586 36 -201 150 -474 255 -608 106 -133 224 -374 264 -535 40 -161 160 -410 266 -555 l193 -262 -517 -538 c-285 -295 -609 -717 -721 -937 -113 -220 -275 -480 -361 -578 -86 -98 -238 -345 -337 -550 -105 -214 -154 -266 -116 -122 36 138 73 367 82 510 10 144 160 472 334 730 408 605 404 776 -8 404 -179 -161 -269 -228 -200 -148 150 173 162 304 27 304 -54 0 -189 -179 -300 -397 -134 -261 -252 -378 -346 -341 -81 31 -117 122 -84 210 40 104 13 140 -81 108 -98 -32 -147 -235 -160 -666 -12 -366 19 -595 75 -560 52 32 95 156 96 277 0 120 44 287 97 369 137 216 5 -585 -149 -900 -128 -260 -99 -500 58 -500 51 0 92 104 92 231 0 127 68 318 152 425 174 223 190 339 -169 -1206 -152 -651 -221 -1350 -251 -2525 -39 -1518 -29 -1625 140 -1625 163 0 182 103 186 1025 5 1022 180 2066 473 2825 200 517 217 181 29 -554 -213 -826 -360 -1909 -360 -2640 l0 -656 1239 0 c1058 0 1249 24 1303 164 75 196 -23 329 -122 168 -39 -62 -80 119 -92 403 -15 350 8 467 71 365 80 -128 115 -120 244 50 191 253 214 636 35 576 -39 -13 69 212 242 500 172 288 377 649 455 802 220 428 1399 1304 2144 1591 636 246 704 253 1382 137 l713 -121 213 408 c160 306 222 362 251 225 22 -101 -33 -263 -122 -362 -455 -503 -303 -1215 179 -836 127 100 215 230 196 288 -20 59 78 275 217 480 140 206 344 551 455 768 111 217 248 394 306 394 139 0 15 -384 -223 -688 -102 -132 -186 -283 -186 -338 0 -54 -181 -370 -402 -701 -221 -331 -381 -624 -354 -650 114 -115 342 91 544 493 539 1068 762 1422 793 1259 18 -92 -155 -488 -383 -879 -229 -391 -391 -736 -361 -766 109 -109 363 69 363 255 0 105 65 244 144 310 79 65 171 248 206 405 35 157 127 340 206 405 196 163 183 99 -105 -520 -262 -562 -308 -785 -165 -785 48 0 164 203 259 450 94 248 213 450 263 450 150 0 104 -229 -108 -550 -221 -333 -248 -450 -103 -450 53 0 164 124 246 275 129 238 150 247 153 70 2 -113 -45 -254 -105 -314 -78 -78 -78 -127 1 -176 60 -37 136 3 169 89 33 86 103 156 156 156 52 0 67 -45 33 -100 -114 -184 47 -296 291 -203 155 59 273 49 353 -29 91 -91 140 -81 209 43 74 131 223 153 794 119 657 -39 703 -29 703 164 0 306 -30 359 -182 324 -77 -17 -109 16 -72 75 37 60 -8 107 -101 107 -107 0 -146 -54 -109 -150 36 -94 -1 -150 -100 -150 -103 0 -136 55 -96 159 168 440 186 666 49 621 -76 -25 -153 -139 -170 -252 -16 -114 -110 -279 -207 -367 -169 -153 -171 -132 -41 464 74 344 201 834 282 1088 81 255 144 548 140 650 -12 314 -350 -558 -529 -1363 -102 -458 -263 -867 -413 -1050 l-246 -300 184 400 c101 220 286 828 411 1350 125 523 265 998 310 1056 121 155 689 1572 690 1719 0 69 39 125 87 125 76 0 -36 -589 -243 -1275 -70 -234 103 -328 184 -100 25 69 72 100 107 68 63 -57 -136 -702 -245 -793 -104 -88 -197 -600 -109 -600 47 0 136 146 199 325 492 1411 690 1946 770 2075 52 83 193 436 316 786 277 793 371 896 284 314 -37 -247 -37 -420 0 -383 37 36 61 81 53 100 -8 18 52 191 132 383 80 193 178 856 218 1475 85 1309 245 1487 452 500 142 -675 162 -867 256 -2506 52 -897 36 -1100 -89 -1200 -105 -82 -126 -181 -69 -319 51 -123 86 -144 90 -55 6 114 33 119 129 23 182 -182 197 -1389 19 -1458 -160 -61 -194 -360 -41 -360 55 0 100 65 100 145 0 80 74 186 164 237 133 75 152 185 99 580 -36 268 -93 758 -126 1088 l-61 600 337 -351 c185 -193 505 -463 711 -600 402 -267 438 -390 264 -892 -155 -442 4 -601 364 -365 256 168 260 167 156 -26 -58 -109 -162 -219 -232 -244 -69 -24 -89 -84 -43 -133 47 -50 254 109 472 361 214 248 390 389 392 313 2 -75 -271 -445 -606 -823 -539 -608 -592 -704 -460 -836 129 -128 165 -129 268 -6 65 79 85 201 44 273 -41 71 -39 97 4 58 100 -91 453 92 453 235 0 59 -70 80 -156 48 -86 -33 10 142 212 389 399 487 515 569 339 240 -128 -240 -31 -409 109 -188 76 119 94 110 98 -53 4 -197 6 -197 151 -6 221 292 177 78 -64 -312 -321 -519 -152 -510 206 11 173 251 359 457 413 457 154 0 -45 -312 -548 -861 -373 -407 -438 -447 -390 -239 51 219 15 201 -296 -150 -346 -391 -423 -598 -134 -358 80 66 216 106 301 89 86 -17 341 172 566 419 224 248 382 366 349 264 -45 -143 -20 -172 107 -123 136 52 144 37 44 -83 -67 -80 -186 -121 -264 -91 -79 30 -143 7 -143 -50 0 -173 183 -233 383 -126 111 59 223 63 277 9 53 -53 229 -23 433 76 243 118 354 133 381 51 26 -77 198 -97 515 -60 320 38 571 8 768 -92 161 -81 473 -179 693 -216 751 -126 1500 -392 1885 -668 l385 -277 -403 -205 c-222 -114 -433 -254 -469 -312 -36 -58 -235 -173 -442 -256 -346 -139 -1033 -941 -805 -941 49 0 125 56 169 125 44 69 166 193 271 275 153 120 141 69 -61 -251 -451 -717 -789 -1449 -668 -1449 64 0 177 79 252 175 130 167 134 167 76 0 -45 -129 -8 -175 140 -175 133 0 236 101 305 300 135 387 227 387 150 0 -59 -296 95 -432 199 -175 40 100 52 100 58 0 4 -69 91 -125 193 -125 133 0 252 170 425 610 242 614 810 1390 1018 1390 62 0 -47 -169 -241 -375 -421 -446 -960 -1625 -742 -1625 76 0 184 124 239 275 l100 275 8 -275 c10 -337 221 -360 449 -50 l165 225 -60 -225 c-44 -165 -16 -225 103 -225 145 0 159 245 138 2404 -21 2072 -42 2365 -155 2125 l-132 -279 39 300 c22 165 87 450 146 634 92 288 85 326 -51 274 -125 -48 -144 -10 -93 191 85 340 -99 320 -225 -24 -80 -220 -102 -234 -108 -72 -4 111 64 305 152 431 185 264 117 404 -106 219 -126 -104 -167 -81 -252 143 -130 341 -129 487 7 623 78 78 78 127 -1 176 -60 37 -136 -2 -169 -88 -33 -86 -99 -132 -146 -103 -47 29 -43 164 8 300 75 195 62 246 -59 246 -85 0 -124 48 -88 107 36 58 -17 174 -119 256 -133 107 -150 164 -60 202 69 28 125 99 125 157 0 58 79 166 175 239 159 121 150 133 -100 136 -274 3 -365 135 -175 253 55 34 100 122 100 196 0 96 -141 130 -502 119 -384 -11 -497 -50 -480 -165 54 -361 -127 -682 -479 -849 -277 -131 -382 -143 -439 -51 -46 74 -99 83 -135 24 -33 -54 -334 -129 -668 -166 -444 -51 -622 -115 -660 -239 -28 -93 -97 -253 -153 -356 -138 -257 -23 -332 616 -400 303 -32 595 -63 650 -70 55 -6 -125 -74 -400 -152 -687 -193 -1350 -22 -1350 349 0 255 159 830 313 1135 65 127 49 175 -58 175 -86 0 -191 -161 -252 -388 -57 -214 -172 -444 -254 -513 -82 -68 -147 -264 -145 -436 2 -241 88 -377 373 -594 213 -161 447 -260 553 -232 101 26 327 -3 502 -66 l318 -114 -480 -71 c-393 -58 -579 -27 -1031 173 -487 215 -543 270 -481 467 63 197 52 207 -92 87 -264 -219 -314 100 -87 552 524 1046 616 1139 1679 1693 662 345 1042 431 1042 236 0 -60 91 -42 213 44 190 133 231 132 370 -7 141 -141 177 -132 376 100 121 141 237 308 259 372 105 315 1603 153 2055 -222 97 -81 127 -46 127 151 0 277 -91 364 -542 518 -418 143 -420 293 -5 609 299 228 379 252 453 134 67 -106 91 -71 92 132 1 151 -18 275 -43 275 -79 0 -979 -495 -1134 -624 -100 -83 -527 -125 -1282 -125 -1001 -1 -1156 22 -1330 199 -405 413 -329 457 841 483 1397 32 2849 248 2921 434 56 147 -320 533 -520 533 -66 0 -170 113 -233 250 -136 299 -55 314 282 50 138 -108 316 -197 397 -198 97 -1 71 52 -75 154 -260 182 -293 365 -57 323 90 -16 182 22 204 85 52 147 -928 636 -1275 636 -147 0 -374 104 -505 232 -314 304 -1163 768 -1407 768 -126 0 -243 122 -340 353 -147 352 -649 746 -952 747 -87 0 -237 86 -332 191 -95 105 -278 218 -407 250 -160 40 -257 157 -302 365 -41 186 -162 350 -308 416 -132 60 -549 483 -928 940 -610 736 -813 892 -813 625 0 -43 117 -187 260 -320 151 -140 244 -319 223 -429 -23 -114 42 -228 165 -291 111 -56 218 -212 237 -347 19 -134 143 -373 275 -530 258 -306 309 -485 128 -445 -62 14 -135 -35 -162 -108 -31 -87 18 -122 139 -102 120 21 344 -138 623 -441 343 -372 447 -569 487 -922 51 -454 314 -833 400 -577 63 188 225 150 225 -52 0 -98 158 -417 350 -709 338 -514 445 -944 261 -1057 -129 -80 -273 143 -348 536 -36 189 -139 426 -230 525 -177 196 -433 245 -433 82 0 -55 42 -100 93 -100 182 0 407 -319 410 -582 4 -347 214 -618 477 -618 115 0 236 -45 270 -100 38 -61 -109 -100 -375 -100 -370 0 -472 46 -659 300 l-222 300 209 0 c115 0 181 45 147 100 -34 55 -185 100 -336 100 -205 0 -376 120 -669 469 -217 259 -483 560 -591 671 -285 294 -814 1101 -1109 1694 -142 284 -385 676 -540 871 -155 196 -422 654 -592 1018 -357 762 -1285 1821 -1778 2027 -249 104 -317 182 -268 309 54 141 23 160 -176 110 -134 -33 -625 10 -1092 96 -1360 251 -2057 272 -2819 87 -377 -92 -808 -230 -957 -309 -150 -78 -340 -143 -423 -143 -82 -1 -438 -203 -790 -449 -464 -324 -702 -432 -867 -390 -236 59 -464 -210 -495 -585 -8 -95 -89 -256 -181 -357 -92 -102 -167 -235 -167 -297 0 -61 -157 -231 -348 -377 -283 -216 -330 -300 -250 -449 122 -227 123 -501 4 -690 -74 -117 -119 -120 -246 -15 -128 107 -212 93 -494 -81 -404 -250 -466 -258 -466 -60 0 82 -35 150 -78 150 -43 0 -87 247 -99 549 l-21 549 474 243 c261 134 564 316 674 406 195 160 194 162 -50 95 -137 -38 -374 -155 -525 -262 -262 -184 -275 -185 -276 -12 -1 100 -26 272 -56 383 -31 118 22 282 129 400 392 427 607 817 675 1227 99 595 328 1025 508 956 92 -35 145 7 145 116 0 118 -51 152 -164 108 -144 -55 -157 1 -105 442 33 278 89 552 125 610 46 73 1941 89 6180 50 3363 -31 7253 -61 8645 -67 1832 -7 2542 -42 2567 -127 19 -64 64 -245 98 -402 62 -282 58 -285 -316 -231 -209 31 -528 86 -710 123 -315 65 -322 76 -159 256 161 178 159 188 -43 188 -155 0 -236 -88 -301 -325 -98 -358 28 -625 180 -381 74 120 149 123 471 16 211 -69 428 -117 483 -106 316 63 561 -57 1029 -504 622 -593 470 -663 -441 -201 -701 355 -839 370 -839 90 0 -128 -49 -191 -125 -160 -1036 415 -1173 455 -1231 361 -79 -127 -87 -121 433 -324 235 -91 561 -166 725 -166 249 0 298 -40 298 -243 0 -285 308 -552 1036 -897 1033 -490 964 -552 964 870 l0 1243 -400 277 c-224 156 -400 359 -400 464 0 150 76 186 400 186 359 0 400 26 400 247 l0 246 -1125 -5 c-619 -3 -6244 26 -12500 65 l-11375 70 0 -504z m5482 -448 c82 -99 -50 -245 -562 -623 -369 -272 -1084 -844 -1590 -1271 -506 -428 -948 -777 -982 -777 -113 0 73 447 281 675 113 124 277 225 364 225 86 0 534 360 995 800 460 440 899 800 974 800 172 0 181 166 13 234 -69 28 -7 54 138 58 144 4 311 -50 369 -121z m-1195 -439 c-501 -612 -1487 -1372 -1487 -1146 0 106 335 410 997 905 598 447 699 497 490 241z m1207 -307 c-3 -96 -104 -383 -225 -637 -242 -511 -1262 -1423 -1492 -1335 -76 30 -304 -114 -510 -319 -418 -419 -733 -544 -562 -225 56 105 136 191 178 191 42 0 353 270 693 600 339 330 561 600 493 600 -207 0 -1769 -1554 -1770 -1760 0 -104 -85 -318 -188 -474 -103 -157 -170 -359 -150 -450 21 -91 -79 -301 -222 -466 -242 -279 -256 -284 -206 -65 79 348 -124 731 -350 660 -206 -66 -236 70 -79 362 131 245 296 249 296 7 0 -289 441 -228 483 67 34 243 -133 519 -315 519 -70 0 -66 -42 12 -120 66 -66 119 -212 117 -325 -3 -204 -4 -204 -118 -5 -63 110 -176 246 -252 303 -113 84 -96 140 93 311 126 115 334 234 461 264 196 48 212 34 106 -93 -100 -121 -96 -168 19 -241 210 -133 207 -135 659 499 273 383 797 876 1536 1444 616 475 1161 863 1210 863 49 0 86 -79 83 -175z m7456 -1169 c495 -100 990 -218 1100 -262 110 -45 293 -107 407 -139 231 -64 841 -655 676 -655 -58 0 -272 113 -476 252 -204 138 -407 229 -450 202 -115 -71 -5 -554 126 -554 175 0 1044 -964 1272 -1410 217 -426 216 -606 -3 -342 -70 83 -186 152 -259 152 -72 0 -201 99 -285 219 -179 256 -274 212 -195 -90 31 -117 187 -267 347 -333 301 -125 890 -724 890 -906 0 -56 109 -336 242 -621 573 -1231 857 -1903 821 -1940 -58 -57 -695 1143 -906 1707 -113 302 -352 641 -634 900 -579 531 -673 628 -1264 1303 -368 421 -558 561 -760 561 -265 0 -529 198 -973 731 -231 276 -467 346 -576 169 -34 -55 -144 -100 -245 -100 -189 0 -305 186 -305 488 0 104 -132 219 -332 292 -404 146 -768 156 -768 20 0 -55 104 -100 231 -100 127 0 311 -59 410 -131 158 -115 136 -126 -181 -89 -448 52 -468 -43 -35 -168 225 -65 260 -97 115 -103 -304 -13 -840 192 -840 321 0 76 -36 74 -118 -8 -192 -192 152 -472 874 -709 357 -117 737 -213 846 -213 109 0 198 -41 198 -92 0 -50 28 -165 63 -255 52 -136 14 -152 -225 -95 -159 37 -331 107 -383 155 -52 48 -353 87 -669 87 -564 0 -573 5 -555 275 15 222 -28 281 -225 309 -307 44 -559 -249 -390 -453 156 -188 123 -204 -667 -310 -764 -103 -949 -75 -949 146 0 79 40 120 89 90 48 -30 82 23 75 117 -11 139 107 186 621 244 661 75 1157 309 1086 513 -26 74 -202 107 -467 86 -599 -46 -430 159 200 243 494 66 695 240 276 240 -356 0 -46 229 341 251 181 10 397 46 479 79 492 197 1102 178 2350 -74z m10686 94 c32 -82 14 -150 -39 -150 -53 0 -97 68 -97 150 0 83 18 150 39 150 22 0 66 -67 97 -150z m-18537 -475 c-3 -398 -1529 -1815 -2133 -1981 -290 -80 -300 -76 -123 58 106 80 158 180 116 222 -42 42 -163 -32 -270 -163 -107 -132 -214 -220 -238 -196 -88 89 77 485 202 485 72 0 145 34 164 75 18 42 326 267 683 500 358 233 830 580 1050 771 432 374 551 424 549 229z m4058 37 c-29 -48 -147 -112 -261 -142 -170 -45 -186 -29 -89 88 126 152 441 201 350 54z m-507 -531 c-110 -63 -231 -161 -270 -220 -38 -58 -100 -74 -139 -36 -113 114 166 375 396 372 210 -3 210 -5 13 -116z m-4850 -57 c0 -42 -101 -138 -225 -214 -224 -138 -224 -138 -35 76 204 229 260 259 260 138z m5600 -24 c-82 -53 -240 -93 -350 -89 -165 7 -156 23 50 89 354 113 475 113 300 0z m-1658 -261 c87 -33 158 -105 158 -160 0 -55 -66 -75 -147 -44 -81 31 -174 12 -207 -41 -33 -53 -102 -71 -153 -40 -51 32 -146 -68 -211 -223 l-118 -281 -42 247 c-23 135 8 263 68 283 61 20 110 100 110 178 0 147 266 187 542 81z m3708 -39 c-34 -55 -104 -100 -156 -100 -52 0 -94 45 -94 100 0 55 70 100 156 100 86 0 128 -45 94 -100z m4566 -679 c152 -281 366 -786 477 -1122 110 -337 365 -912 566 -1280 201 -368 476 -894 612 -1169 135 -275 334 -657 442 -850 297 -531 469 -923 527 -1202 29 -139 151 -358 271 -487 121 -129 250 -376 288 -548 37 -172 120 -302 184 -288 158 34 724 -878 692 -1115 -14 -104 -103 -238 -198 -298 -142 -89 -228 -46 -478 240 -554 632 -817 1081 -852 1452 -18 201 -99 440 -179 531 -80 91 -179 323 -219 515 -40 193 -230 620 -423 950 -193 330 -373 769 -401 975 -28 206 -84 375 -125 375 -40 0 -197 349 -348 775 -151 426 -360 958 -464 1182 -103 223 -188 440 -188 481 0 161 -540 1226 -739 1457 l-211 246 245 -154 c134 -85 369 -385 521 -666z m-3433 336 c222 -327 743 -657 1036 -657 77 0 338 -202 581 -450 243 -247 386 -450 318 -450 -68 0 -150 68 -182 150 -31 83 -145 150 -253 150 -108 0 -429 106 -714 236 -286 130 -622 269 -747 308 -198 62 -220 117 -164 414 60 322 48 342 -209 342 -232 0 -254 23 -149 150 175 211 220 193 483 -193z m-4973 -287 c-128 -128 -258 -29 -163 125 37 60 113 80 169 45 68 -42 66 -98 -6 -170z m-3210 -187 c0 -274 -756 -1009 -1317 -1280 -562 -271 -700 -251 -333 50 165 135 244 246 175 247 -68 0 -307 -165 -529 -366 -296 -267 -435 -335 -515 -255 -81 81 21 232 379 562 269 248 564 453 655 455 91 2 404 184 697 404 603 453 788 496 788 183z m7410 -288 c42 -80 100 -224 130 -320 64 -209 416 -234 493 -34 94 245 967 -123 967 -409 0 -128 -28 -134 -150 -32 -122 101 -150 96 -150 -26 0 -186 259 -411 385 -333 51 31 168 -57 260 -197 111 -169 240 -244 386 -224 142 19 209 -18 190 -106 -15 -74 15 -187 67 -250 66 -80 23 -118 -146 -128 -132 -8 -217 23 -188 70 29 47 -60 159 -198 249 -233 153 -263 153 -416 0 -153 -153 -151 -176 23 -317 176 -143 171 -148 -88 -93 -205 44 -275 20 -275 -93 0 -84 -45 -152 -100 -152 -55 0 -100 -45 -100 -100 0 -55 100 -100 222 -100 l223 0 -224 -156 c-183 -129 -245 -133 -347 -25 -174 184 -180 472 -14 666 78 91 147 210 154 265 7 55 105 179 217 277 203 176 203 176 -83 475 -157 164 -352 298 -434 298 -112 0 -95 -57 69 -231 259 -277 273 -369 55 -369 -129 0 -138 -29 -45 -142 97 -117 82 -133 -87 -88 -144 37 -206 6 -206 -105 0 -100 -56 -137 -150 -101 -83 32 -150 3 -150 -66 0 -92 -34 -95 -137 -9 -104 87 -168 76 -269 -46 -92 -111 -226 -143 -438 -103 -272 50 -286 41 -131 -78 96 -74 175 -191 175 -260 0 -99 -34 -98 -160 6 -134 112 -174 106 -254 -36 -84 -151 -132 -135 -438 143 -188 172 -317 353 -287 404 32 51 118 40 198 -26 171 -143 189 19 21 187 -173 173 -580 151 -580 -30 0 -82 45 -150 100 -150 55 0 100 -61 100 -135 0 -73 93 -218 207 -321 195 -177 196 -191 25 -258 -100 -40 -290 -75 -423 -79 -297 -9 -909 -462 -909 -673 0 -118 76 -146 311 -111 268 39 324 7 407 -231 97 -280 682 -602 682 -376 0 59 83 4 184 -121 184 -227 186 -227 447 -37 150 109 264 292 266 423 2 134 47 204 107 166 146 -89 396 139 396 362 0 465 850 421 1307 -68 311 -332 948 -641 1321 -641 207 0 306 -58 343 -200 61 -235 310 -266 393 -50 104 271 236 157 236 -203 0 -377 -222 -565 -427 -360 -222 222 -273 102 -279 -662 -7 -986 -93 -1430 -344 -1775 -287 -395 -568 -650 -715 -650 -71 0 -177 -91 -236 -203 -60 -111 -152 -176 -205 -143 -115 71 -192 -103 -286 -648 -5 -24 -66 36 -138 134 -120 164 -140 157 -262 -106 -124 -265 -138 -271 -214 -84 -80 194 -84 193 -150 -25 -88 -294 -243 -294 -167 0 49 192 35 207 -94 101 -83 -68 -184 -91 -225 -51 -40 40 -117 -5 -170 -101 -189 -336 -1288 -155 -1288 212 0 63 -45 114 -99 114 -155 0 -601 421 -601 568 0 73 -34 133 -75 134 -131 2 -1025 850 -1025 971 0 65 -57 153 -127 197 -336 210 -855 1567 -649 1695 56 35 144 -11 194 -101 52 -94 217 -164 383 -164 339 0 499 -209 499 -650 0 -82 71 -150 157 -150 100 0 140 63 110 175 -25 96 -102 390 -170 653 -68 262 -163 501 -211 530 -47 30 -86 161 -86 292 0 132 -107 363 -237 514 -228 265 -255 271 -717 166 -593 -136 -776 -80 -684 207 37 117 81 393 98 613 58 755 104 901 282 885 94 -8 221 93 281 225 137 301 341 306 577 15 156 -192 278 -225 838 -223 811 2 1087 192 459 316 -260 51 -470 162 -537 283 -60 110 -154 230 -207 269 -127 90 203 219 342 133 58 -36 105 -147 105 -248 0 -257 240 -321 616 -163 233 98 398 108 607 35 352 -123 418 -72 235 179 -126 173 -181 179 -594 69 -599 -160 -790 -91 -642 233 61 133 150 242 198 242 49 0 185 90 303 200 118 110 165 200 104 200 -61 0 -182 27 -269 61 -104 40 -158 5 -158 -100 0 -93 -82 -161 -194 -161 -107 0 -222 -46 -257 -102 -35 -56 -105 -75 -157 -43 -51 32 -120 -13 -153 -99 -76 -197 -239 -204 -239 -10 0 81 -100 201 -223 266 -244 131 -528 388 -429 388 34 0 197 -70 363 -155 413 -214 1125 -159 1172 90 32 165 -10 178 -374 117 -264 -45 -409 -32 -409 36 0 58 75 77 166 42 108 -42 143 -25 98 47 -47 77 36 94 271 56 199 -32 368 -9 408 56 86 138 357 147 357 11 0 -55 -51 -89 -112 -75 -62 14 -134 -31 -159 -100 -80 -218 453 -146 572 78 60 111 141 185 179 162 39 -22 273 -10 520 27 529 79 905 5 1010 -197z m-4681 -192 c-92 -108 -188 -177 -213 -152 -60 59 185 349 295 349 48 0 11 -89 -82 -197z m-5791 -258 c34 -89 18 -129 -39 -94 -55 33 -99 103 -99 155 0 144 72 112 138 -61z m17862 -191 c0 -76 118 -279 262 -451 293 -347 268 -486 -52 -286 -116 72 -210 226 -210 342 0 115 -90 291 -200 391 -110 100 -200 221 -200 269 0 48 90 40 200 -19 110 -59 200 -170 200 -246z m-11805 61 c-80 -26 -205 -119 -277 -206 -104 -125 -117 -127 -60 -9 139 286 265 397 373 331 72 -45 60 -84 -36 -116z m-5245 -115 c-34 -55 -82 -100 -106 -100 -24 0 -44 45 -44 100 0 55 48 100 106 100 58 0 78 -45 44 -100z m5339 -207 c-161 -99 -234 -47 -142 102 37 60 114 79 171 44 67 -41 57 -93 -29 -146z m7089 -398 c-363 -89 -687 14 -774 243 -132 347 -27 364 501 81 445 -239 476 -275 273 -324z m-10456 449 c132 -132 -65 -431 -405 -613 -459 -247 -1199 -482 -1276 -406 -145 146 223 504 788 768 646 302 800 345 893 251z m4178 -144 c0 -55 -70 -100 -156 -100 -86 0 -128 45 -94 100 34 55 104 100 156 100 52 0 94 -45 94 -100z m-278 -365 c112 29 269 -12 348 -91 126 -125 101 -144 -188 -142 -446 2 -632 129 -531 363 78 179 81 179 124 1 30 -129 104 -169 247 -131z m-1056 40 c28 69 117 125 198 125 83 0 118 -49 79 -111 -38 -61 -7 -151 69 -199 106 -67 92 -90 -62 -100 -110 -8 -255 -7 -323 2 -67 9 -236 -59 -375 -150 -151 -99 -252 -121 -252 -54 0 61 90 167 200 235 110 69 201 193 202 276 1 134 13 134 107 1 80 -113 119 -119 157 -25z m-2573 -334 c-65 -78 -175 -141 -246 -141 -71 0 -357 -180 -635 -400 -278 -220 -552 -400 -609 -400 -57 0 -103 126 -103 279 0 252 58 299 575 470 316 104 661 246 766 316 236 156 412 69 252 -124z m15573 -166 c-28 -69 -50 -12 -50 125 0 138 22 194 50 125 28 -69 28 -181 0 -250z m-2616 -75 c85 -165 133 -300 105 -300 -27 0 -120 135 -205 300 -85 165 -133 300 -105 300 27 0 120 -135 205 -300z m3598 -157 c150 -196 240 -387 200 -425 -39 -37 -122 19 -185 126 -62 106 -221 297 -353 425 -175 169 -198 231 -86 231 84 0 275 -160 424 -357z m-19048 57 c0 -110 -45 -200 -100 -200 -55 0 -100 90 -100 200 0 110 45 200 100 200 55 0 100 -90 100 -200z m4698 -302 c-122 -122 -188 -280 -154 -368 33 -86 8 -217 -55 -293 -142 -171 -329 -182 -223 -12 43 69 83 269 90 446 7 208 96 390 253 517 319 261 395 16 89 -290z m2102 402 c0 -55 -67 -100 -150 -100 -82 0 -150 45 -150 100 0 55 68 100 150 100 83 0 150 -45 150 -100z m-6062 -280 c27 -45 -82 -130 -243 -191 -271 -103 -285 -97 -190 80 104 195 343 256 433 111z m9335 -220 c9 -123 -47 -200 -146 -200 -88 0 -131 30 -95 66 37 36 16 126 -45 200 -87 104 -69 134 79 134 120 0 197 -75 207 -200z m8227 -12 c0 -55 -45 -72 -100 -38 -55 34 -100 107 -100 162 0 55 45 72 100 38 55 -34 100 -107 100 -162z m-17600 -127 c0 -134 -286 -308 -369 -225 -41 41 248 364 326 364 24 0 43 -63 43 -139z m18000 -11 c68 -82 102 -150 74 -150 -27 0 -106 68 -174 150 -68 82 -102 150 -74 150 27 0 106 -68 174 -150z m-15351 -925 c-83 -1171 -181 -1653 -349 -1708 -127 -42 -130 -25 -16 113 166 201 61 770 -142 770 -197 0 -178 99 68 361 224 238 185 439 -85 439 -125 0 -100 65 106 280 148 155 269 335 269 400 0 66 46 120 102 120 66 0 83 -277 47 -775z m16702 574 c99 -110 152 -230 116 -266 -73 -73 -467 250 -467 382 0 146 162 93 351 -116z m-16091 -272 c-33 -33 -56 26 -52 131 5 117 28 141 60 61 29 -72 26 -159 -8 -192z m15533 132 c83 -101 86 -160 7 -209 -116 -71 -400 115 -400 262 0 138 263 103 393 -53z m-7574 -27 c-72 -29 -159 -26 -192 8 -33 33 26 56 131 52 117 -5 141 -28 61 -60z m-2619 -232 c0 -113 -269 -200 -617 -200 -385 0 -329 228 75 306 318 62 542 18 542 -106z m7648 -764 c274 -322 758 -869 1075 -1215 317 -345 577 -678 577 -738 0 -170 819 -1025 1047 -1094 155 -47 168 -73 53 -110 -337 -109 -759 -258 -900 -318 -108 -45 -154 5 -164 177 -13 240 -736 1410 -1005 1627 -255 207 -1531 2279 -1529 2485 2 195 7 194 175 -14 95 -117 397 -477 671 -800z m-12373 286 c151 -265 156 -322 25 -322 -55 0 -101 79 -103 175 -3 167 -10 167 -136 0 -192 -253 -248 -218 -241 150 11 552 140 551 455 -3z m14924 11 c1 -64 28 -188 62 -275 38 -98 7 -158 -82 -158 -117 0 -278 236 -560 825 -20 42 103 -3 272 -100 169 -96 308 -228 308 -292z m673 117 c14 -110 -1 -144 -32 -75 -31 69 -118 125 -192 125 -75 0 -166 49 -203 108 -43 69 18 97 168 75 146 -20 244 -109 259 -233z m-8053 82 c-72 -29 -159 -26 -192 8 -33 33 26 56 131 52 117 -5 141 -28 61 -60z m-9319 -230 c0 -54 -169 -183 -375 -288 -399 -202 -1025 -368 -1025 -273 0 32 187 193 415 358 398 289 985 409 985 203z m19300 -252 c-27 -55 -129 -89 -225 -76 -96 13 -175 -21 -175 -75 0 -55 -67 -99 -150 -99 -155 0 -204 212 -79 338 108 108 686 27 629 -88z m-1047 -155 c32 -52 -19 -63 -115 -26 -132 50 -158 27 -108 -102 70 -184 -6 -211 -218 -77 -76 48 -113 128 -82 177 75 122 453 142 523 28z m-15033 -315 c-64 -64 -150 -83 -190 -43 -41 41 -9 114 70 163 187 115 271 31 120 -120z m8740 -53 c-33 -33 -56 26 -52 131 5 117 28 141 60 61 29 -72 26 -159 -8 -192z m5392 48 c73 -165 170 -218 366 -197 392 40 454 -168 91 -305 -170 -64 -309 -152 -309 -195 0 -43 -86 -78 -192 -78 -371 0 -508 116 -508 428 l0 307 250 -235 c138 -129 250 -182 250 -116 0 65 -88 193 -195 285 -200 171 -187 331 27 331 66 0 165 -101 220 -225z m-17379 -154 c94 -117 96 -188 8 -294 -188 -227 -774 -427 -1251 -427 -371 0 -438 29 -406 175 39 179 98 190 394 75 132 -52 156 -22 113 142 -65 247 -531 298 -531 58 0 -82 -67 -150 -150 -150 -154 0 -210 251 -75 334 41 26 236 72 432 103 197 31 467 99 600 151 300 117 702 39 866 -167z m19172 45 c162 -118 115 -136 -395 -153 -510 -17 -564 -1 -453 134 157 189 602 199 848 19z m-21495 -266 c-34 -55 -82 -100 -106 -100 -24 0 -44 45 -44 100 0 55 48 100 106 100 58 0 78 -45 44 -100z m22198 -187 c-146 -140 -2255 -391 -2120 -253 43 43 154 90 248 104 94 14 183 63 198 109 16 47 421 95 900 109 543 15 835 -11 774 -69z m-18779 -488 c-29 -206 -99 -584 -155 -839 -57 -255 -150 -1000 -207 -1656 -57 -655 -145 -1323 -195 -1485 -50 -162 -192 -630 -314 -1039 -123 -409 -310 -882 -415 -1050 l-191 -306 65 275 c43 185 25 275 -57 275 -67 0 -96 67 -64 150 32 83 16 150 -35 150 -51 0 -145 -191 -208 -425 -137 -502 -798 -2066 -901 -2130 -75 -46 461 1581 618 1873 57 107 53 193 -11 233 -56 34 -78 102 -49 149 29 48 274 852 544 1787 511 1774 749 2398 635 1663 -90 -587 -89 -636 21 -663 119 -30 222 397 238 987 7 233 125 856 262 1386 138 529 250 979 250 1001 0 21 50 39 111 39 70 0 91 -137 58 -375z m-905 23 c16 -54 -37 -185 -117 -292 -146 -192 -148 -192 -294 0 -81 107 -148 248 -150 313 -4 142 518 123 561 -21z m-630 -348 c253 -428 139 -536 -489 -462 -678 79 -869 156 -805 322 28 74 -25 184 -119 244 -133 84 -77 96 248 52 236 -32 446 -13 481 44 130 210 507 100 684 -200z m12325 -274 c-109 -110 -184 64 -106 245 74 171 80 171 121 -4 24 -100 17 -209 -15 -241z m-11406 -212 c-36 -165 -139 -360 -228 -432 -142 -116 -153 -107 -83 68 43 110 124 326 180 480 129 357 218 279 131 -116z m1313 61 c-28 -69 -50 -12 -50 125 0 138 22 194 50 125 28 -69 28 -181 0 -250z m-3253 -268 c225 120 588 35 585 -139 -2 -227 -171 -382 -557 -515 -328 -113 -431 -112 -662 8 -150 77 -321 231 -380 340 -122 229 -75 248 198 78 294 -184 365 -13 92 222 l-239 205 384 -151 c282 -112 436 -125 579 -48z m1187 -49 c0 -78 -79 -280 -175 -449 -139 -244 -237 -305 -475 -293 l-300 14 277 42 c152 23 254 78 226 123 -66 106 235 705 354 705 51 0 93 -64 93 -142z m18000 -258 c0 -55 -90 -100 -200 -100 -110 0 -200 45 -200 100 0 55 90 100 200 100 110 0 200 -45 200 -100z m-16731 -975 c-25 -96 -46 -17 -46 175 0 193 21 271 46 175 25 -96 25 -254 0 -350z m1092 300 c-155 -525 -175 -725 -72 -725 61 0 111 104 111 231 0 269 250 652 356 546 40 -40 18 -138 -50 -219 -67 -81 -228 -566 -357 -1078 l-236 -930 -7 1108 c-3 610 24 1139 61 1175 129 130 246 65 194 -108z m-2961 -119 c0 -164 -202 -227 -481 -151 l-269 74 250 75 c359 109 500 109 500 2z m14300 -156 c0 -137 -39 -250 -86 -250 -48 0 -65 113 -38 250 26 138 65 250 86 250 21 0 38 -112 38 -250z m260 -323 c-33 -33 -56 26 -52 131 5 117 28 141 60 61 29 -72 26 -159 -8 -192z m-15010 73 c35 -56 -47 -100 -188 -100 -138 0 -278 45 -312 100 -35 56 47 100 188 100 138 0 278 -45 312 -100z m881 -675 c-331 -1040 -447 -1303 -504 -1146 -25 71 26 280 113 465 88 185 160 380 160 433 0 115 394 1023 444 1023 18 0 -77 -349 -213 -775z m3067 600 c0 -41 -45 -142 -98 -225 -78 -121 -97 -107 -98 75 -1 124 43 225 98 225 55 0 99 -34 98 -75z m1002 -6 c0 -44 -68 -168 -152 -275 -140 -180 -143 -174 -34 81 118 275 186 346 186 194z m14900 -13 c0 -52 -45 -122 -100 -156 -55 -34 -100 8 -100 94 0 86 45 156 100 156 55 0 100 -42 100 -94z m-15541 -665 c-144 -314 -285 -548 -314 -520 -28 29 19 182 104 340 85 159 200 419 256 578 55 159 126 263 158 231 32 -31 -60 -314 -204 -629z m10600 185 c-108 -108 -165 43 -89 235 71 180 76 180 111 6 20 -100 10 -209 -22 -241z m-14982 74 c-143 -228 -312 -213 -359 33 -24 121 38 167 226 167 233 0 246 -19 133 -200z m2992 -375 c-25 -96 -46 -17 -46 175 0 193 21 271 46 175 25 -96 25 -254 0 -350z m788 18 c-37 -147 -89 -244 -117 -217 -27 28 -20 170 17 317 37 146 90 244 117 216 28 -27 20 -170 -17 -316z m6543 201 c0 -86 -45 -128 -100 -94 -55 34 -100 104 -100 156 0 52 45 94 100 94 55 0 100 -70 100 -156z m-5665 -98 c-33 -85 -81 -133 -107 -107 -27 26 -18 96 18 154 98 160 156 129 89 -47z m925 -815 c-178 -329 -210 -170 -48 237 61 155 132 228 156 163 25 -65 -24 -245 -108 -400z m4450 -3 c-91 -156 -104 -146 -107 80 -2 142 31 293 72 334 120 121 149 -218 35 -414z m8740 272 c-34 -55 -82 -100 -106 -100 -24 0 -44 45 -44 100 0 55 48 100 106 100 58 0 78 -45 44 -100z m-15115 -253 c-79 -207 -135 -183 -135 59 0 113 43 179 96 147 52 -33 70 -125 39 -206z m5665 198 c0 -133 -320 -658 -371 -607 -77 76 174 662 283 662 48 0 88 -25 88 -55z m5700 1 c0 -30 -111 -174 -246 -321 -136 -146 -272 -381 -303 -522 -31 -141 -170 -391 -308 -555 l-252 -298 67 350 c81 420 510 1269 674 1336 168 68 368 74 368 10z m-15537 -290 c-87 -134 -255 -415 -372 -625 -117 -209 -254 -432 -304 -494 -50 -62 -160 -377 -242 -700 -236 -920 -409 -1228 -651 -1164 -116 30 -184 110 -155 184 27 72 101 325 164 562 63 237 196 521 294 631 99 110 259 358 357 550 170 336 928 1300 1023 1300 25 0 -26 -110 -114 -244z m4399 -122 c-85 -156 -156 -252 -158 -214 -7 119 226 583 270 539 23 -23 -28 -169 -112 -325z m938 340 c0 -15 -182 -363 -405 -775 -425 -785 -443 -657 -36 261 131 297 284 540 340 540 55 0 101 -12 101 -26z m4038 -149 c-79 -247 -185 -516 -375 -954 -90 -209 -206 -547 -257 -750 -152 -611 -378 -1162 -491 -1199 -61 -21 -43 91 40 258 204 409 440 1220 355 1220 -38 0 -113 -43 -166 -96 -57 -57 -154 -60 -240 -6 -123 75 -124 127 -11 339 73 137 107 320 73 406 -75 197 25 474 144 401 50 -31 90 -8 90 50 0 58 -49 106 -108 106 -60 0 -92 51 -71 114 50 149 585 206 738 79 80 -67 136 -50 176 54 82 212 171 193 103 -22z m6460 -82 c-54 -141 -98 -395 -98 -565 0 -303 -4 -305 -200 -128 -272 247 -251 451 75 718 345 282 339 283 223 -25z m-15425 -318 c-25 -206 -182 -645 -348 -975 -167 -330 -332 -697 -368 -815 -44 -146 -122 -199 -247 -167 -173 46 -175 79 -34 565 82 284 279 695 437 912 158 217 287 444 287 505 0 105 196 350 279 350 22 0 19 -169 -6 -375z m19227 225 c-68 -82 -169 -150 -224 -150 -56 0 -45 66 24 150 68 83 169 150 224 150 56 0 45 -66 -24 -150z m-16349 -543 c-70 -413 -251 -662 -251 -345 0 215 223 848 279 792 23 -22 10 -223 -28 -447z m688 -340 c-157 -212 -160 -209 -100 121 34 185 64 388 67 450 4 61 49 7 100 -121 69 -172 51 -291 -67 -450z m1461 470 c0 -136 -426 -744 -482 -688 -75 74 284 751 398 751 46 0 84 -28 84 -63z m3815 -654 c-112 -348 -279 -890 -372 -1205 -108 -367 -253 -627 -406 -727 -130 -86 -237 -112 -237 -58 0 53 61 133 136 177 187 110 424 608 491 1030 67 431 474 1532 542 1465 26 -27 -43 -334 -154 -682z m-3473 103 c-47 -76 -99 -59 -161 52 -51 90 -61 214 -23 276 47 76 99 59 161 -52 51 -90 61 -214 23 -276z m-2176 -11 c-28 -69 -50 -12 -50 125 0 138 22 194 50 125 28 -69 28 -181 0 -250z m2734 175 c0 -82 -45 -150 -100 -150 -55 0 -100 68 -100 150 0 83 45 150 100 150 55 0 100 -67 100 -150z m1301 -697 c-159 -420 -241 -226 -91 215 73 215 145 313 164 224 19 -87 -14 -284 -73 -439z m-9801 197 c0 -82 -44 -150 -97 -150 -53 0 -71 68 -39 150 31 83 75 150 97 150 21 0 39 -67 39 -150z m21700 62 c0 -49 -93 -113 -206 -142 -169 -45 -184 -29 -87 88 132 159 293 189 293 54z m1212 -139 c-98 -98 -110 -86 -56 56 38 99 94 154 125 124 30 -31 0 -112 -69 -180z m-16673 0 c40 39 41 -8 4 -105 -84 -219 -280 -166 -330 87 -30 155 -10 167 110 68 80 -67 177 -89 216 -50z m-1895 -311 c-36 -144 -104 -262 -152 -262 -47 0 -60 79 -29 175 31 96 75 238 99 314 76 248 150 43 82 -227z m1129 32 c-67 -108 -138 -149 -157 -92 -56 167 73 416 181 350 63 -39 54 -133 -24 -258z m2992 -190 c-146 -220 -265 -434 -265 -477 -1 -132 -408 -752 -460 -700 -59 58 477 1208 585 1256 41 19 75 94 75 167 0 127 206 261 290 188 21 -19 -80 -214 -225 -434z m-3353 169 c-98 -98 -110 -86 -56 56 38 99 94 154 125 124 30 -31 0 -112 -69 -180z m17648 -146 c-33 -33 -56 26 -52 131 5 117 28 141 60 61 29 -72 26 -159 -8 -192z m-20151 -236 c-64 -159 -98 -185 -103 -74 -8 221 121 551 165 419 19 -57 -9 -212 -62 -345z m7491 265 c0 -79 -45 -172 -100 -206 -55 -34 -100 31 -100 144 0 113 45 206 100 206 55 0 100 -65 100 -144z m11835 -310 c-33 -85 -81 -133 -107 -107 -27 26 -18 96 18 154 98 160 156 129 89 -47z m-11723 -213 c-87 -150 -106 -155 -109 -25 -3 169 102 320 173 250 23 -24 -5 -125 -64 -225z m8688 67 c0 -55 -48 -100 -106 -100 -58 0 -78 45 -44 100 34 55 82 100 106 100 24 0 44 -45 44 -100z m-14888 -267 c-118 -203 -146 -138 -50 113 35 90 84 142 110 116 25 -26 -1 -129 -60 -229z m-1711 -701 c-195 -354 -205 -360 -141 -82 38 165 74 390 80 500 6 110 56 268 111 350 207 314 163 -383 -50 -768z m20842 779 c67 -108 -393 -205 -653 -137 -104 27 -190 89 -190 138 0 115 772 115 843 -1z m-3693 -111 c-34 -55 -129 -100 -212 -100 -82 0 -122 45 -88 100 34 55 129 100 212 100 82 0 122 -45 88 -100z m569 -68 c-72 -29 -159 -26 -192 8 -33 33 26 56 131 52 117 -5 141 -28 61 -60z m-19364 -1105 c-109 -284 -169 -54 -88 338 74 359 81 366 114 102 18 -156 7 -354 -26 -440z m1105 -200 c-33 -33 -56 26 -52 131 5 117 28 141 60 61 29 -72 26 -159 -8 -192z m-407 -102 c-37 -96 -90 -490 -117 -875 -61 -879 -116 -1150 -231 -1150 -101 0 -44 865 110 1675 54 289 146 525 203 525 58 0 73 -77 35 -175z m-909 -700 c-70 -688 -225 -1269 -238 -894 -8 250 214 1569 265 1569 23 0 11 -304 -27 -675z m23406 -125 c-34 -55 -82 -100 -106 -100 -24 0 -44 45 -44 100 0 55 48 100 106 100 58 0 78 -45 44 -100z m-22074 -125 c-24 -69 -107 -339 -182 -600 -177 -612 -285 -612 -184 0 43 261 81 531 84 600 3 69 78 125 167 125 88 0 140 -56 115 -125z m-1065 -1031 c13 -276 -30 -590 -94 -698 -100 -166 -116 -120 -105 304 13 511 87 985 144 927 18 -17 42 -257 55 -533z m21614 -13 c-166 -371 -525 -833 -525 -675 0 117 619 1159 663 1115 22 -23 -40 -221 -138 -440z m1532 -108 c-172 -165 -175 -163 -61 61 66 128 148 206 181 172 34 -33 -20 -138 -120 -233z m-745 -50 c-98 -98 -110 -86 -56 56 38 99 94 154 125 124 30 -31 0 -112 -69 -180z m-652 -246 c-33 -33 -56 26 -52 131 5 117 28 141 60 61 29 -72 26 -159 -8 -192z m-21391 -402 c-25 -96 -46 -17 -46 175 0 193 21 271 46 175 25 -96 25 -254 0 -350z"/>
<path d="M12800 19056 c0 -106 192 -150 249 -58 35 56 -7 102 -93 102 -86 0 -156 -20 -156 -44z"/>
<path d="M13500 18411 c0 -106 248 -212 483 -208 144 3 140 24 -27 150 -217 164 -456 194 -456 58z"/>
<path d="M12913 18113 c41 -126 187 -155 187 -38 0 41 -51 92 -112 113 -62 20 -96 -14 -75 -75z"/>
<path d="M13450 18000 c34 -55 127 -100 206 -100 79 0 144 45 144 100 0 55 -93 100 -206 100 -113 0 -178 -45 -144 -100z"/>
<path d="M14100 17686 c0 -200 819 -692 1137 -683 158 5 -418 497 -580 497 -73 0 -189 68 -257 150 -148 178 -300 196 -300 36z"/>
<path d="M10500 16700 c0 -55 -112 -100 -250 -100 -187 0 -250 -53 -250 -209 0 -126 -80 -231 -200 -262 -110 -29 -200 -92 -200 -141 0 -109 -28 -113 450 59 220 79 344 146 275 149 -211 7 -138 204 75 204 110 0 200 19 200 42 0 23 27 113 61 200 33 87 11 158 -50 158 -61 0 -111 -45 -111 -100z"/>
<path d="M10960 16716 c-35 -56 -15 -132 45 -169 154 -95 253 35 125 163 -72 72 -128 74 -170 6z"/>
<path d="M11600 16302 c0 -242 -112 -253 -505 -49 -183 94 -295 111 -295 44 0 -59 158 -173 350 -253 455 -191 487 -496 42 -407 -221 44 -296 26 -267 -63 61 -181 775 -281 775 -108 0 74 56 138 125 142 100 6 100 18 0 58 -69 28 -125 92 -125 142 0 51 56 81 125 67 69 -14 112 51 97 144 -22 131 29 158 225 123 253 -46 364 130 128 203 -537 165 -675 156 -675 -43z"/>
<path d="M9600 10700 c-115 -216 -543 -274 -657 -89 -47 77 -94 69 -154 -25 -127 -200 -104 -309 117 -576 195 -234 204 -235 355 -50 148 183 152 182 106 -35 -27 -124 -4 -225 49 -225 54 0 70 -85 37 -190 -42 -134 22 -251 218 -398 154 -115 324 -247 378 -295 170 -146 895 241 898 480 2 121 108 261 253 334 350 175 323 416 -50 432 -165 7 -443 38 -619 67 -262 44 -308 26 -257 -105 46 -121 18 -143 -115 -92 -96 37 -217 67 -267 67 -195 0 -78 273 208 484 393 291 379 416 -46 416 -245 0 -379 -59 -454 -200z m1000 -1389 c0 -49 -67 -116 -150 -147 -91 -35 -150 0 -150 89 0 81 68 147 150 147 83 0 150 -40 150 -89z"/>
<path d="M3044 14853 c-155 -117 -163 -147 -38 -150 86 -2 243 63 350 144 155 117 163 147 38 150 -86 2 -243 -63 -350 -144z"/>
<path d="M4700 7700 c0 -55 20 -100 44 -100 24 0 72 45 106 100 34 55 14 100 -44 100 -58 0 -106 -45 -106 -100z"/>
<path d="M4600 7344 c0 -86 45 -128 100 -94 55 34 100 104 100 156 0 52 -45 94 -100 94 -55 0 -100 -70 -100 -156z"/>
<path d="M11556 6638 c-90 -358 14 -429 141 -95 126 329 127 357 14 357 -49 0 -119 -118 -155 -262z"/>
<path d="M10900 21350 c0 -82 45 -150 100 -150 55 0 100 68 100 150 0 83 -45 150 -100 150 -55 0 -100 -67 -100 -150z"/>
<path d="M16354 21407 c-74 -120 114 -238 248 -156 111 69 38 249 -102 249 -49 0 -114 -42 -146 -93z"/>
<path d="M6800 21300 c0 -55 45 -100 100 -100 55 0 100 45 100 100 0 55 -45 100 -100 100 -55 0 -100 -45 -100 -100z"/>
<path d="M18450 21300 c-34 -55 -14 -100 44 -100 58 0 106 45 106 100 0 55 -20 100 -44 100 -24 0 -72 -45 -106 -100z"/>
<path d="M19400 21300 c0 -55 20 -100 44 -100 24 0 72 45 106 100 34 55 14 100 -44 100 -58 0 -106 -45 -106 -100z"/>
<path d="M2500 21200 c0 -55 68 -100 150 -100 83 0 150 45 150 100 0 55 -67 100 -150 100 -82 0 -150 -45 -150 -100z"/>
<path d="M13800 21206 c0 -58 45 -106 100 -106 55 0 100 20 100 44 0 24 -45 72 -100 106 -55 34 -100 14 -100 -44z"/>
<path d="M15700 21156 c0 -86 45 -156 100 -156 55 0 100 42 100 94 0 52 -45 122 -100 156 -55 34 -100 -8 -100 -94z"/>
<path d="M17600 21058 c0 -87 71 -158 158 -158 87 0 141 53 119 119 -62 185 -277 216 -277 39z"/>
<path d="M10300 21000 c0 -55 45 -100 100 -100 55 0 100 45 100 100 0 55 -45 100 -100 100 -55 0 -100 -45 -100 -100z"/>
<path d="M11900 21000 c0 -55 20 -100 44 -100 24 0 72 45 106 100 34 55 14 100 -44 100 -58 0 -106 -45 -106 -100z"/>
<path d="M20000 20900 c0 -55 42 -100 94 -100 52 0 122 45 156 100 34 55 -8 100 -94 100 -86 0 -156 -45 -156 -100z"/>
<path d="M900 20800 c0 -55 45 -100 100 -100 55 0 100 45 100 100 0 55 -45 100 -100 100 -55 0 -100 -45 -100 -100z"/>
<path d="M21300 20800 c0 -55 68 -100 150 -100 83 0 150 45 150 100 0 55 -67 100 -150 100 -82 0 -150 -45 -150 -100z"/>
<path d="M2300 20700 c0 -55 45 -100 100 -100 55 0 100 45 100 100 0 55 -45 100 -100 100 -55 0 -100 -45 -100 -100z"/>
<path d="M8800 20600 c0 -129 51 -200 125 -175 69 23 125 102 125 175 0 73 -56 152 -125 175 -74 25 -125 -46 -125 -175z"/>
<path d="M0 20600 c0 -55 20 -100 44 -100 24 0 72 45 106 100 34 55 14 100 -44 100 -58 0 -106 -45 -106 -100z"/>
<path d="M300 20600 c0 -55 93 -100 206 -100 113 0 178 45 144 100 -34 55 -127 100 -206 100 -79 0 -144 -45 -144 -100z"/>
<path d="M16969 20536 c-35 -35 -39 -103 -9 -152 64 -103 240 -14 240 122 0 107 -136 125 -231 30z"/>
<path d="M18000 20500 c0 -55 20 -100 44 -100 24 0 72 45 106 100 34 55 14 100 -44 100 -58 0 -106 -45 -106 -100z"/>
<path d="M1400 20428 c-623 -47 -1400 -240 -1400 -347 0 -62 90 -76 225 -34 386 121 1290 241 1425 189 137 -53 308 126 177 184 -43 19 -234 23 -427 8z"/>
<path d="M2200 20400 c0 -55 45 -100 100 -100 55 0 100 45 100 100 0 55 -45 100 -100 100 -55 0 -100 -45 -100 -100z"/>
<path d="M11050 20400 c-34 -55 8 -100 94 -100 86 0 156 45 156 100 0 55 -42 100 -94 100 -52 0 -122 -45 -156 -100z"/>
<path d="M12700 20350 c68 -82 164 -150 212 -150 49 0 88 68 88 150 0 86 -90 150 -212 150 -178 0 -192 -25 -88 -150z"/>
<path d="M16069 20436 c-80 -80 11 -236 137 -236 52 0 94 68 94 150 0 155 -118 199 -231 86z"/>
<path d="M22451 20402 c-35 -56 7 -102 93 -102 176 0 202 60 63 146 -51 31 -121 12 -156 -44z"/>
<path d="M17600 20300 c0 -55 45 -100 100 -100 55 0 100 45 100 100 0 55 -45 100 -100 100 -55 0 -100 -45 -100 -100z"/>
<path d="M20240 20284 c-36 -58 -6 -143 67 -189 143 -88 293 -36 293 100 0 135 -288 206 -360 89z"/>
<path d="M9750 20200 c-34 -55 -14 -100 44 -100 58 0 106 45 106 100 0 55 -20 100 -44 100 -24 0 -72 -45 -106 -100z"/>
<path d="M15100 20000 c0 -55 45 -100 100 -100 55 0 100 45 100 100 0 55 -45 100 -100 100 -55 0 -100 -45 -100 -100z"/>
<path d="M19400 20000 c0 -55 45 -100 100 -100 55 0 100 45 100 100 0 55 -45 100 -100 100 -55 0 -100 -45 -100 -100z"/>
<path d="M0 19800 c0 -126 204 -126 400 0 117 76 89 97 -125 98 -151 1 -275 -43 -275 -98z"/>
<path d="M656 19747 c-107 -81 -298 -147 -425 -147 -201 0 -353 -197 -156 -202 181 -4 1223 359 1224 427 2 129 -440 76 -643 -78z"/>
<path d="M21100 19750 c0 -82 45 -150 100 -150 55 0 100 68 100 150 0 83 -45 150 -100 150 -55 0 -100 -67 -100 -150z"/>
<path d="M6500 19700 c0 -55 68 -100 150 -100 83 0 150 45 150 100 0 55 -67 100 -150 100 -82 0 -150 -45 -150 -100z"/>
<path d="M8500 19700 c0 -55 68 -100 150 -100 83 0 150 45 150 100 0 55 -67 100 -150 100 -82 0 -150 -45 -150 -100z"/>
<path d="M18000 19700 c0 -55 45 -100 100 -100 55 0 100 45 100 100 0 55 -45 100 -100 100 -55 0 -100 -45 -100 -100z"/>
<path d="M5800 19488 c0 -177 25 -192 149 -89 150 125 118 301 -55 301 -52 0 -94 -96 -94 -212z"/>
<path d="M20000 19547 c0 -84 79 -179 175 -211 96 -32 310 -117 475 -189 165 -72 422 -162 571 -199 149 -37 323 -131 387 -208 64 -77 204 -140 310 -140 263 0 1185 -301 1429 -466 109 -74 311 -132 450 -129 196 4 118 71 -347 299 -330 161 -679 294 -776 295 -97 0 -255 39 -350 86 -96 47 -399 189 -674 315 -275 126 -578 268 -674 315 -95 47 -258 85 -362 85 -104 0 -246 68 -314 150 -160 193 -300 192 -300 -3z"/>
<path d="M6900 19500 c0 -55 68 -100 150 -100 83 0 150 45 150 100 0 55 -67 100 -150 100 -82 0 -150 -45 -150 -100z"/>
<path d="M19538 19254 c-35 -89 -41 -184 -15 -211 85 -84 387 78 350 188 -60 180 -269 195 -335 23z"/>
<path d="M22200 19150 c0 -82 68 -150 150 -150 83 0 150 68 150 150 0 83 -67 150 -150 150 -82 0 -150 -67 -150 -150z"/>
<path d="M15800 19100 c0 -55 68 -100 150 -100 82 0 150 45 150 100 0 55 -68 100 -150 100 -82 0 -150 -45 -150 -100z"/>
<path d="M16900 19100 c0 -55 45 -100 100 -100 55 0 100 45 100 100 0 55 -45 100 -100 100 -55 0 -100 -45 -100 -100z"/>
<path d="M6600 19000 c0 -55 45 -100 100 -100 55 0 100 45 100 100 0 55 -45 100 -100 100 -55 0 -100 -45 -100 -100z"/>
<path d="M7500 19000 c0 -55 45 -100 100 -100 55 0 100 45 100 100 0 55 -45 100 -100 100 -55 0 -100 -45 -100 -100z"/>
<path d="M18600 19012 c0 -49 199 -240 442 -425 243 -185 515 -461 605 -612 107 -178 249 -275 405 -275 133 0 286 -84 341 -187 55 -103 257 -262 449 -353 234 -111 331 -214 293 -313 -41 -106 16 -147 202 -147 195 0 275 -64 324 -259 46 -184 193 -314 502 -447 240 -103 437 -245 438 -315 0 -71 63 -249 140 -396 l139 -267 -356 58 c-254 41 -335 24 -284 -58 40 -64 143 -116 231 -116 141 0 962 -774 1047 -987 17 -45 180 -110 362 -146 207 -40 307 -27 269 35 -33 54 -123 98 -198 98 -76 0 -234 135 -351 300 -117 165 -273 300 -346 300 -73 0 -160 73 -194 161 -44 113 -19 145 83 106 79 -31 325 -105 546 -164 369 -99 811 -523 811 -778 0 -104 327 -425 433 -425 37 0 67 336 67 747 0 731 -7 751 -303 905 -167 86 -341 133 -387 104 -46 -28 -164 38 -262 146 -102 113 -129 198 -63 198 233 0 106 177 -166 231 -155 31 -391 151 -525 266 l-244 210 400 -29 c278 -19 392 10 375 97 -15 75 86 128 250 132 151 4 363 42 471 84 142 55 37 93 -374 135 -329 34 -919 214 -1396 427 -1005 446 -1321 531 -1256 336 26 -76 133 -155 238 -175 106 -20 465 -163 799 -319 334 -155 728 -313 875 -349 147 -37 268 -111 268 -165 0 -129 -540 -8 -1075 242 -233 109 -485 175 -559 147 -75 -29 -289 82 -476 246 -187 164 -441 339 -565 388 -124 50 -225 136 -225 190 0 55 68 74 150 42 240 -92 173 119 -75 237 -1263 597 -1575 762 -1575 831 0 45 -142 152 -315 239 -367 183 -385 186 -385 69z m3846 -2598 c210 -102 338 -212 284 -245 -166 -103 -678 86 -712 263 -41 209 -37 209 428 -18z m605 -515 c34 -55 228 -188 430 -294 l369 -194 -400 47 c-434 51 -466 75 400 -310 165 -73 471 -192 680 -263 338 -114 373 -158 317 -382 -93 -371 -124 -373 -444 -22 -205 224 -382 319 -593 319 -184 0 -384 88 -511 224 -213 228 -499 740 -499 891 0 118 175 107 251 -16z"/>
<path d="M5573 18441 c-260 -189 -473 -390 -473 -447 0 -59 54 -70 127 -24 355 224 973 660 973 687 0 151 -232 71 -627 -216z"/>
<path d="M18050 18700 c-34 -55 8 -100 94 -100 86 0 156 45 156 100 0 55 -42 100 -94 100 -52 0 -122 -45 -156 -100z"/>
<path d="M20800 18550 c0 -82 45 -150 100 -150 55 0 100 68 100 150 0 83 -45 150 -100 150 -55 0 -100 -67 -100 -150z"/>
<path d="M16800 18458 c0 -87 71 -158 158 -158 87 0 141 53 119 119 -62 185 -277 216 -277 39z"/>
<path d="M560 18416 c-35 -56 -15 -132 45 -169 154 -95 253 35 125 163 -72 72 -128 74 -170 6z"/>
<path d="M22050 18200 c-35 -56 -4 -123 69 -149 1012 -367 1233 -416 1131 -250 -158 255 -1096 567 -1200 399z"/>
<path d="M19000 18050 c0 -92 56 -148 125 -125 142 47 126 208 -25 258 -55 19 -100 -41 -100 -133z"/>
<path d="M21422 17985 c52 -157 270 -182 296 -35 10 55 -63 116 -162 135 -115 22 -163 -14 -134 -100z"/>
<path d="M275 17843 c-151 -82 -275 -219 -275 -303 0 -126 52 -116 290 53 160 114 343 207 406 207 64 0 88 45 54 100 -80 130 -144 122 -475 -57z"/>
<path d="M16604 17868 c-2 -100 64 -250 146 -332 83 -83 150 -253 150 -378 0 -125 90 -308 200 -408 110 -100 200 -233 200 -296 0 -63 158 -267 350 -454 193 -187 350 -418 350 -514 0 -96 45 -202 100 -236 58 -36 100 59 100 224 0 196 -111 394 -350 626 -192 187 -350 380 -350 429 0 49 -90 204 -200 344 -110 140 -200 327 -200 415 -1 89 -112 297 -247 462 -196 240 -247 263 -249 118z"/>
<path d="M18600 17800 c0 -55 42 -100 94 -100 52 0 122 45 156 100 34 55 -8 100 -94 100 -86 0 -156 -45 -156 -100z"/>
<path d="M23400 17709 c0 -264 443 -625 870 -709 209 -41 459 -108 555 -148 105 -44 175 -29 175 37 0 61 -67 111 -150 111 -82 0 -150 45 -150 100 0 55 68 100 150 100 272 0 156 200 -125 215 l-275 15 275 42 c330 50 372 324 50 329 -124 2 -484 22 -800 43 -495 34 -575 15 -575 -135z m800 -265 c0 -24 -45 -44 -100 -44 -55 0 -100 48 -100 106 0 58 45 78 100 44 55 -34 100 -82 100 -106z"/>
<path d="M22417 17500 c50 -151 211 -167 258 -25 23 69 -33 125 -125 125 -92 0 -152 -45 -133 -100z"/>
<path d="M450 17400 c-34 -55 -14 -100 44 -100 58 0 106 45 106 100 0 55 -20 100 -44 100 -24 0 -72 -45 -106 -100z"/>
<path d="M5817 17237 c20 -103 80 -176 134 -162 146 37 120 251 -36 303 -87 29 -122 -20 -98 -141z"/>
<path d="M19300 17200 c0 -55 45 -100 100 -100 55 0 100 45 100 100 0 55 -45 100 -100 100 -55 0 -100 -45 -100 -100z"/>
<path d="M19854 17207 c-34 -55 42 -189 167 -299 126 -109 400 -347 609 -529 208 -181 508 -458 664 -615 230 -230 321 -266 471 -182 170 96 163 112 -90 208 -151 58 -275 152 -275 210 0 58 -112 148 -250 200 -137 52 -250 137 -250 188 0 157 -980 925 -1046 819z"/>
<path d="M17700 16900 c0 -55 45 -100 100 -100 55 0 100 45 100 100 0 55 -45 100 -100 100 -55 0 -100 -45 -100 -100z"/>
<path d="M5150 16300 c-34 -55 -17 -100 38 -100 55 0 128 45 162 100 34 55 17 100 -38 100 -55 0 -128 -45 -162 -100z"/>
<path d="M19964 16331 c-113 -113 -69 -231 86 -231 83 0 150 42 150 94 0 126 -156 217 -236 137z"/>
<path d="M57 16212 c-65 -106 221 -368 307 -281 33 33 -10 129 -96 215 -85 86 -180 115 -211 66z"/>
<path d="M24394 15994 c-258 -258 -218 -383 214 -677 l342 -232 31 473 c21 310 -14 501 -100 556 -194 123 -260 107 -487 -120z m306 -194 c0 -55 -45 -100 -100 -100 -55 0 -100 45 -100 100 0 55 45 100 100 100 55 0 100 -45 100 -100z"/>
<path d="M255 15528 c-56 -148 -79 -151 -159 -25 -73 115 -93 95 -94 -90 -2 -228 6 -230 244 -75 304 199 354 202 354 15 0 -89 59 -124 150 -89 83 31 150 8 150 -53 0 -61 45 -111 100 -111 55 0 100 95 100 211 0 146 -46 193 -150 153 -91 -35 -150 0 -150 89 0 209 -463 188 -545 -25z"/>
<path d="M18400 15207 c0 -52 90 -122 200 -157 303 -96 239 -262 -75 -194 l-275 60 212 -183 c117 -101 240 -299 273 -441 33 -142 173 -380 312 -529 138 -149 279 -382 313 -517 34 -135 107 -246 162 -246 171 0 -20 533 -295 822 -204 214 -257 369 -252 726 5 354 -40 486 -206 603 -245 171 -369 190 -369 56z"/>
<path d="M21800 14800 c0 -55 42 -100 94 -100 52 0 122 45 156 100 34 55 -8 100 -94 100 -86 0 -156 -45 -156 -100z"/>
<path d="M19300 14300 c0 -55 45 -100 100 -100 55 0 100 45 100 100 0 55 -45 100 -100 100 -55 0 -100 -45 -100 -100z"/>
<path d="M2 13231 c1 -283 26 -342 98 -231 126 196 126 472 0 550 -60 37 -99 -90 -98 -319z"/>
<path d="M19655 13509 c-32 -53 -16 -122 36 -154 53 -32 122 -16 154 36 32 53 16 122 -36 154 -53 32 -122 16 -154 -36z"/>
<path d="M546 11793 c-92 -149 15 -230 206 -156 88 34 133 107 98 162 -81 131 -221 129 -304 -6z"/>
<path d="M19 11250 c-2 -165 19 -245 47 -177 27 68 29 203 3 300 -25 97 -47 42 -50 -123z"/>
<path d="M1209 11061 c-81 -98 -86 -164 -13 -208 58 -36 133 7 167 95 84 220 -8 288 -154 113z"/>
<path d="M0 9744 c0 -86 45 -128 100 -94 129 80 129 250 0 250 -55 0 -100 -70 -100 -156z"/>
<path d="M16 9300 c0 -137 22 -194 50 -125 28 69 28 181 0 250 -28 69 -50 13 -50 -125z"/>
<path d="M23800 8856 c0 -106 192 -150 249 -58 35 56 -7 102 -93 102 -86 0 -156 -20 -156 -44z"/>
<path d="M275 8631 c-263 -69 -210 -231 75 -231 156 0 250 57 250 150 0 154 -24 160 -325 81z"/>
<path d="M24200 8456 c0 -106 192 -150 249 -58 35 56 -7 102 -93 102 -86 0 -156 -20 -156 -44z"/>
<path d="M14100 8150 c0 -82 18 -150 39 -150 22 0 66 68 97 150 32 83 14 150 -39 150 -53 0 -97 -67 -97 -150z"/>
<path d="M23850 8200 c-34 -55 8 -100 94 -100 86 0 156 45 156 100 0 55 -42 100 -94 100 -52 0 -122 -45 -156 -100z"/>
<path d="M24435 8101 c-222 -90 -388 -281 -311 -358 68 -68 676 260 676 364 0 111 -78 109 -365 -6z"/>
<path d="M14275 7548 c-82 -249 -110 -477 -62 -506 89 -55 205 189 324 683 110 453 -102 310 -262 -177z"/>
<path d="M13960 7750 c-43 -110 -164 -420 -269 -688 -216 -552 -250 -819 -65 -500 417 714 482 878 449 1120 -33 242 -45 248 -115 68z"/>
<path d="M24300 7500 c0 -55 135 -100 300 -100 165 0 300 45 300 100 0 55 -135 100 -300 100 -165 0 -300 -45 -300 -100z"/>
<path d="M24775 7056 c-190 -139 -236 -356 -75 -356 55 0 100 64 100 142 0 78 56 161 125 186 69 25 102 70 75 100 -28 31 -129 -2 -225 -72z"/>
<path d="M14943 6625 c-193 -1095 -497 -2104 -603 -1998 -30 30 -7 227 52 439 132 476 135 634 13 634 -53 0 -127 -169 -164 -375 -98 -537 -453 -1268 -544 -1120 -41 67 -127 89 -190 49 -142 -87 -102 -1155 43 -1151 182 6 419 441 428 786 10 347 222 712 222 381 0 -275 166 -195 324 155 260 577 365 914 464 1477 53 304 128 676 165 825 43 169 28 273 -38 273 -58 0 -136 -169 -172 -375z"/>
<path d="M24800 6500 c0 -55 45 -100 100 -100 55 0 100 45 100 100 0 55 -45 100 -100 100 -55 0 -100 -45 -100 -100z"/>
<path d="M14175 6200 c-31 -82 -85 -240 -121 -350 -60 -185 -53 -188 100 -37 91 90 145 247 121 350 -35 149 -55 157 -100 37z"/>
<path d="M15208 6058 c-4 -105 19 -164 52 -131 34 33 37 120 8 192 -32 80 -55 56 -60 -61z"/>
<path d="M13024 5601 c-153 -245 -171 -688 -22 -539 129 129 307 738 215 738 -38 0 -125 -89 -193 -199z"/>
<path d="M15008 5387 c-123 -412 -100 -555 74 -448 113 70 209 755 113 814 -36 22 -120 -142 -187 -366z"/>
<path d="M18167 5033 c-37 -36 -67 -113 -67 -170 0 -62 47 -56 118 15 65 65 95 142 67 170 -28 29 -82 22 -118 -15z"/>
<path d="M13613 4613 c20 -62 71 -113 112 -113 117 0 88 146 -37 188 -62 20 -96 -14 -75 -75z"/>
<path d="M17402 4252 c-242 -246 -408 -479 -370 -517 62 -62 968 797 968 917 0 138 -203 2 -598 -400z"/>
<path d="M16700 3956 c0 -176 60 -202 146 -63 31 51 12 121 -44 156 -56 35 -102 -7 -102 -93z"/>
<path d="M20724 1725 c-393 -666 -776 -1725 -624 -1725 43 0 111 79 150 175 66 160 78 158 149 -25 70 -179 86 -168 153 100 84 339 384 1069 602 1465 162 295 195 685 57 685 -48 0 -268 -304 -487 -675z m-112 -792 c-87 -150 -106 -155 -109 -25 -3 169 102 320 173 250 23 -24 -5 -125 -64 -225z"/>
<path d="M21300 1635 c-162 -257 -363 -702 -447 -991 -177 -609 -181 -644 -69 -644 46 0 145 259 219 575 83 355 261 732 466 985 350 434 395 540 229 540 -56 0 -235 -209 -398 -465z"/>
<path d="M22000 1900 c0 -55 20 -100 44 -100 24 0 72 45 106 100 34 55 14 100 -44 100 -58 0 -106 -45 -106 -100z"/>
<path d="M21542 1287 c-146 -231 -301 -537 -343 -679 -43 -142 -110 -337 -149 -433 -39 -96 -32 -175 16 -175 48 0 196 236 329 525 134 289 325 646 426 793 109 160 143 292 84 329 -54 33 -217 -129 -363 -360z"/>
<path d="M19500 932 c0 -370 187 -932 310 -932 113 0 110 42 -43 620 -153 579 -267 713 -267 312z"/>
<path d="M21715 643 c-121 -315 -196 -596 -167 -624 62 -62 50 -79 329 465 142 277 193 488 140 583 -61 108 -143 -7 -302 -424z"/>
<path d="M3116 845 c-141 -309 -143 -345 -19 -345 54 0 168 135 253 300 126 244 130 300 19 300 -75 0 -189 -115 -253 -255z"/>
<path d="M5526 575 c-55 -69 -152 -226 -216 -350 -97 -186 -91 -225 36 -225 85 0 154 68 154 150 0 83 44 150 97 150 53 0 71 -68 39 -150 -31 -83 -8 -150 51 -150 60 0 137 110 171 244 97 388 -118 602 -332 331z"/>
</g>
</svg>