<svg xmlns="http://www.w3.org/2000/svg" version="1.0" width="250" height="250" viewBox="0 0 250.000000 250.000000" preserveAspectRatio="xMidYMid meet">
<metadata>
Created by potrace 1.10, written by Peter Selinger 2001-2011
</metadata>
<g transform="translate(0.000000,250.000000) scale(0.010000,-0.010000)" fill="#555555" stroke="none">
<path d="M768 24377 c-202 -342 -368 -706 -368 -809 0 -103 -90 -210 -200 -239 -254 -66 -261 -229 -11 -229 121 0 213 -95 256 -266 67 -266 -54 -429 -320 -432 -69 -1 -125 -52 -125 -113 0 -75 143 -90 435 -47 324 49 466 28 558 -84 134 -161 -1 -221 -635 -281 -161 -15 -313 -90 -339 -167 -37 -112 41 -126 393 -70 241 39 641 92 888 119 l450 48 -450 -191 c-247 -105 -641 -223 -875 -262 -234 -40 -425 -118 -425 -174 0 -110 361 -70 1100 122 248 65 608 124 800 133 297 13 355 -21 383 -222 39 -271 -112 -469 -279 -365 -83 51 -79 112 16 227 116 141 82 150 -320 86 -247 -39 -548 -135 -668 -214 -120 -78 -401 -172 -625 -207 -610 -98 -508 -277 118 -207 l525 59 -400 -188 c-220 -104 -456 -193 -525 -197 -69 -4 -125 -74 -125 -156 0 -120 109 -100 562 100 524 232 1166 344 997 174 -42 -41 -398 -187 -792 -325 -646 -225 -720 -279 -750 -539 -28 -246 -6 -277 150 -214 101 41 374 98 608 127 282 35 425 101 425 198 0 114 -93 133 -425 87 l-425 -58 397 152 c218 83 454 130 525 102 165 -63 167 -451 3 -495 -69 -19 -384 -110 -700 -202 l-575 -168 0 -406 c0 -435 0 -435 666 -228 103 33 74 -10 -66 -96 -137 -84 -329 -155 -425 -156 -140 -3 -175 -93 -175 -452 0 -433 7 -444 246 -354 171 66 405 47 772 -63 502 -149 961 -140 1582 31 218 60 233 48 122 -87 -104 -128 -100 -166 25 -214 169 -65 212 -365 53 -365 -55 0 -100 -112 -100 -250 0 -200 -50 -250 -250 -250 -137 0 -250 45 -250 100 0 55 68 100 150 100 198 0 189 66 -42 315 -182 195 -477 177 -354 -22 32 -51 -12 -93 -98 -93 -86 0 -156 46 -156 103 0 167 -406 269 -792 198 -198 -36 -482 -32 -633 8 -199 53 -275 37 -275 -59 0 -73 56 -160 125 -192 100 -46 100 -70 0 -116 -86 -41 -125 -337 -125 -962 0 -886 4 -902 225 -849 l225 55 -225 -155 c-159 -110 -225 -255 -225 -497 0 -315 16 -332 209 -229 255 136 300 100 225 -184 -33 -129 -136 -221 -246 -221 -171 0 -188 -86 -188 -952 0 -915 10 -957 247 -1065 136 -62 222 -153 191 -202 -31 -51 -119 -38 -199 28 -194 161 -300 36 -137 -161 98 -118 101 -185 14 -272 -72 -72 -116 -486 -116 -1093 0 -827 23 -968 150 -919 82 31 150 6 150 -56 0 -63 -68 -140 -150 -172 -202 -77 -191 -336 14 -336 91 0 476 93 857 206 380 114 745 187 810 164 157 -55 -591 -370 -878 -370 -200 0 -842 -179 -942 -262 -22 -18 19 -103 89 -189 104 -124 105 -209 7 -424 -86 -188 -90 -281 -15 -306 136 -45 143 -319 8 -319 -122 0 -134 -367 -15 -441 47 -29 146 131 220 356 162 491 455 885 657 885 100 0 42 -131 -182 -410 -267 -332 -328 -494 -320 -850 6 -307 -32 -440 -125 -440 -80 0 -136 -112 -137 -275 -1 -214 -22 -242 -98 -125 -64 99 -97 -796 -98 -2625 l-2 -2775 4411 0 4411 0 614 490 c338 270 727 611 864 759 262 283 953 665 1041 576 55 -54 -92 -369 -280 -600 -61 -75 -375 -337 -697 -581 -322 -244 -533 -444 -469 -444 64 0 91 -42 59 -93 -34 -56 484 -96 1293 -100 l1351 -7 -211 475 c-790 1785 -873 1899 -1169 1603 -96 -96 -107 -50 -55 212 62 309 26 371 -473 834 -297 275 -630 667 -740 871 -628 1163 -1369 2692 -1773 3655 -420 1002 -1477 4053 -1477 4263 0 241 195 18 534 -609 366 -677 385 -695 696 -636 176 33 403 102 504 154 101 52 213 64 249 28 119 -119 -313 -350 -653 -350 l-333 0 234 -375 c129 -206 265 -461 304 -566 87 -233 1046 -1850 1222 -2059 70 -82 334 -566 587 -1075 252 -509 495 -925 538 -925 44 0 159 -180 256 -400 97 -220 213 -400 257 -400 140 0 505 -972 505 -1344 0 -219 48 -355 125 -353 199 4 722 505 1067 1022 353 528 458 578 541 259 67 -257 -43 -489 -496 -1051 -185 -229 -337 -447 -337 -484 0 -37 -98 -146 -218 -243 l-217 -176 239 -590 c391 -965 691 -1435 959 -1502 136 -34 255 -45 267 -25 21 38 147 275 739 1384 426 797 412 897 -330 2337 -472 918 -610 1106 -901 1227 -388 163 -1138 870 -1138 1074 0 73 -86 212 -191 307 -105 95 -219 284 -253 420 -67 269 -454 1066 -939 1938 -851 1530 -1559 3445 -2386 6450 -120 437 1248 -1366 1507 -1987 78 -187 301 -517 495 -731 194 -215 544 -749 776 -1186 493 -925 1584 -2434 1766 -2441 284 -11 142 258 -612 1157 -451 537 -1403 2591 -1687 3638 -308 1136 -736 3458 -829 4500 -37 413 -130 996 -207 1296 -77 300 -140 630 -140 733 0 232 214 176 350 -91 222 -435 867 -1338 955 -1338 52 0 95 -44 95 -98 0 -54 175 -385 389 -735 215 -350 624 -1149 910 -1776 286 -628 650 -1423 809 -1767 159 -344 319 -749 355 -900 37 -151 167 -499 290 -774 329 -742 484 -1748 416 -2711 -32 -458 -25 -854 17 -880 41 -26 183 -398 316 -828 220 -714 447 -1158 769 -1507 67 -72 162 -276 210 -453 192 -693 854 -2216 1304 -2999 260 -452 600 -1182 754 -1622 582 -1656 680 -1850 929 -1850 128 0 232 48 232 106 0 58 -40 81 -88 51 -90 -55 -830 1644 -955 2193 -38 165 -198 570 -356 900 -297 619 -701 1756 -702 1975 0 69 -61 240 -134 382 -74 141 -166 382 -204 536 -154 614 -906 2199 -1255 2644 -367 469 -475 859 -544 1967 -39 617 -167 1262 -404 2035 -192 623 -379 1454 -417 1847 -39 393 -127 877 -197 1077 -138 394 -398 2267 -325 2340 25 24 150 -214 278 -529 274 -678 507 -1211 966 -2206 185 -403 337 -756 337 -785 0 -29 64 -195 142 -368 78 -173 278 -720 443 -1215 415 -1242 682 -1834 744 -1650 107 319 362 1677 414 2206 78 799 237 1178 563 1347 360 186 451 186 296 0 -204 -246 -548 -1913 -650 -3153 -81 -971 -146 -1300 -260 -1300 -51 0 -92 135 -92 300 0 206 -49 300 -157 300 -100 0 -140 -63 -109 -175 402 -1497 405 -1520 274 -2446 -92 -653 -97 -930 -18 -1009 61 -61 110 -186 110 -280 0 -93 131 -478 291 -855 159 -377 493 -1292 741 -2035 248 -742 585 -1642 748 -2000 164 -357 421 -999 572 -1425 l274 -775 387 0 c213 0 386 34 384 75 -8 184 -290 426 -508 437 -176 8 -192 23 -60 58 154 40 170 118 114 563 -80 641 -83 5770 -3 6317 32 220 85 558 119 750 34 193 80 530 101 750 21 220 87 636 146 925 96 465 137 525 358 525 216 0 231 -19 108 -142 -301 -301 -508 -4904 -352 -7808 76 -1407 210 -2050 428 -2050 76 0 167 -90 202 -200 51 -160 151 -200 503 -200 423 0 443 14 543 375 153 553 267 702 420 549 98 -98 99 -195 4 -456 -66 -183 -120 -363 -120 -400 0 -37 350 -68 777 -68 l778 0 185 375 c102 206 264 532 360 725 96 193 202 469 236 614 40 168 150 286 304 325 133 33 313 88 400 121 139 53 151 -19 95 -574 -35 -350 -110 -748 -167 -886 -182 -444 -151 -700 86 -700 117 0 217 56 222 125 5 69 63 372 130 675 66 303 140 1044 164 1647 l43 1097 -206 -263 c-114 -144 -207 -314 -207 -377 0 -63 -159 -181 -354 -262 -558 -233 -683 -48 -379 562 161 324 271 742 398 1516 53 325 97 373 372 400 243 23 321 83 347 269 27 193 0 226 -142 172 -102 -39 -210 -14 -257 61 -203 319 21 1578 281 1578 108 0 134 417 134 2143 0 2418 88 2187 -881 2310 -441 56 -548 109 -625 313 -52 135 -135 221 -185 190 -100 -63 -93 -243 18 -421 40 -63 3 -140 -82 -173 -90 -35 -145 -8 -133 65 28 178 -117 473 -234 473 -56 0 -73 -108 -37 -250 69 -275 35 -297 -238 -152 -139 75 -198 59 -245 -64 -64 -167 -208 -103 -208 91 0 193 -223 189 -274 -6 -30 -114 -174 -214 -363 -251 -173 -35 -303 -115 -289 -179 16 -70 -142 -126 -401 -143 -235 -15 -595 -114 -800 -219 -489 -249 -1639 -553 -1937 -510 -207 29 -245 106 -312 633 -42 330 -126 687 -187 793 -89 154 -75 219 70 325 100 72 282 132 406 132 124 0 255 48 291 106 77 125 -637 21 -813 -118 -167 -132 -241 5 -241 446 0 232 -69 477 -165 583 -92 101 -120 183 -63 183 57 0 160 -68 228 -150 130 -157 800 -212 800 -66 0 100 -448 316 -655 316 -80 0 -145 68 -145 150 0 83 -89 150 -200 150 -152 0 -199 66 -197 275 5 387 188 583 622 664 456 85 496 261 58 261 -174 0 -288 28 -254 62 34 35 -54 216 -197 403 -143 187 -240 360 -215 385 24 25 212 -2 417 -58 319 -88 424 -72 720 110 233 144 435 195 621 157 151 -31 567 -83 924 -115 357 -31 721 -122 808 -200 87 -79 224 -144 304 -144 219 0 818 -679 752 -852 -35 -91 -189 -148 -402 -148 -408 0 -661 -84 -661 -219 0 -53 123 -71 275 -38 151 32 590 58 975 57 385 0 809 -1 943 0 134 0 337 62 452 137 221 146 962 348 1580 433 336 46 375 81 375 343 0 219 -62 316 -250 387 -137 52 -256 130 -263 173 -7 42 -23 174 -36 293 -34 317 -131 534 -241 534 -54 0 -74 -195 -46 -450 47 -431 38 -450 -212 -450 -257 0 -261 10 -232 625 l30 625 625 30 c604 29 794 134 467 259 -87 34 -247 61 -356 61 -109 0 -172 42 -140 93 31 51 11 122 -45 156 -56 35 -129 -7 -162 -93 -35 -90 -179 -156 -340 -156 -270 0 -282 22 -315 559 -19 307 11 590 66 629 129 90 708 277 1125 362 612 124 325 231 -475 176 l-800 -55 0 458 c0 370 38 470 200 521 110 35 200 105 200 157 0 51 113 93 250 93 138 0 250 40 250 88 0 48 136 144 302 213 382 158 498 328 167 245 -251 -63 -520 154 -287 231 190 64 135 223 -76 223 -220 0 -356 -165 -356 -431 0 -99 -125 -257 -278 -350 -246 -149 -291 -151 -380 -19 -55 83 -83 395 -62 694 34 473 84 581 376 825 185 155 406 277 490 273 103 -5 113 -24 29 -58 -242 -98 -122 -237 150 -174 266 62 268 58 75 -95 -144 -115 -160 -160 -55 -162 113 -2 118 -30 25 -123 -190 -190 -140 -281 105 -190 124 46 227 168 230 272 2 103 58 177 125 163 89 -19 120 359 120 1475 0 1362 -16 1500 -175 1499 -150 -1 -179 -117 -203 -808 -15 -443 16 -964 69 -1156 l97 -351 -419 70 c-783 129 -1073 417 -1352 1346 -58 193 -80 474 -49 625 l55 275 -913 0 c-551 0 -997 -50 -1124 -125 -170 -100 -221 -100 -257 0 -32 86 -304 125 -884 125 -736 0 -831 -20 -776 -164 44 -113 20 -148 -78 -112 -78 28 -128 107 -112 174 22 95 -246 112 -1150 73 -1205 -51 -1529 -114 -1529 -295 0 -61 141 -79 350 -45 438 71 491 -177 75 -351 -269 -113 -270 -117 -45 -156 204 -35 227 -88 200 -454 -23 -326 -84 -442 -280 -541 -245 -123 -245 -126 -25 -128 124 0 224 -57 223 -126 -3 -288 -195 -409 -678 -426 -341 -12 -648 -105 -974 -296 -578 -339 -1948 -539 -2321 -340 -346 186 -281 387 125 387 256 0 350 -43 350 -162 0 -130 65 -150 320 -99 176 35 345 105 376 155 31 50 281 146 555 213 275 67 583 165 686 217 103 53 396 131 650 174 439 74 444 79 104 90 -197 7 -692 -72 -1100 -174 -1380 -347 -1291 -339 -1291 -117 0 154 104 226 450 313 261 66 450 172 450 252 0 76 68 138 150 138 82 0 150 -39 150 -86 0 -47 203 -40 450 17 248 56 450 133 450 169 0 37 -461 56 -1025 43 -826 -18 -1205 -82 -1953 -325 -1158 -376 -1678 -470 -1772 -318 -107 172 -47 196 1014 410 1195 241 1336 281 1336 383 0 85 -468 4 -1789 -311 -695 -166 -885 -179 -1100 -78 -144 68 -366 171 -494 230 -337 156 -464 441 -318 714 145 271 100 670 -84 731 -107 35 -112 1 -20 -169 149 -279 41 -441 -244 -369 -139 35 -276 0 -350 -90 -67 -81 -341 -176 -610 -212 -268 -35 -466 -99 -440 -141 27 -43 217 -38 423 10 501 116 526 114 526 -45 0 -90 -180 -161 -525 -206 -725 -94 -975 -163 -975 -269 0 -90 576 -37 1150 106 369 91 550 38 550 -164 0 -123 -84 -141 -425 -92 -414 60 -791 -55 -648 -198 39 -40 21 -132 -40 -206 -161 -193 23 -174 831 86 530 170 709 193 802 100 198 -198 -32 -321 -779 -421 -1493 -200 -1914 -278 -2132 -394 -282 -151 -359 -84 -214 186 81 150 210 209 459 209 347 0 500 190 171 212 -321 22 -473 -28 -681 -221 -272 -251 -365 -241 -326 34 25 175 126 245 457 314 404 85 591 261 278 261 -232 0 -63 294 208 362 255 64 316 196 120 261 -160 53 -579 -146 -580 -276 -1 -138 -349 -428 -560 -466 -322 -58 -248 193 80 273 l329 81 -333 39 c-260 31 -320 77 -275 208 32 92 -54 33 -192 -132 -137 -165 -249 -356 -250 -425 0 -69 -45 -125 -100 -125 -191 0 -100 571 132 821 313 337 508 835 414 1052 -60 139 -91 101 -142 -176 -96 -520 -205 -667 -349 -470 -99 134 -157 94 -410 -281 -248 -369 -358 -446 -695 -487 -977 -121 -1250 -135 -1250 -62 0 100 514 203 1013 203 213 0 387 40 387 88 0 139 -414 212 -610 107 -210 -113 -795 -128 -778 -20 63 399 -8 453 -512 394 -275 -33 -500 -37 -500 -9 0 28 113 216 250 419 138 202 250 402 250 444 0 42 -262 77 -582 77 l-581 0 -369 -623z m19691 62 c40 -216 22 -398 -46 -466 -84 -84 -113 -37 -114 182 -1 162 -31 403 -66 536 -44 164 -29 218 47 171 62 -38 142 -228 179 -423z m-2882 -39 c-69 -110 -159 -200 -201 -200 -42 0 -76 90 -76 200 0 134 67 200 201 200 176 0 185 -25 76 -200z m2423 -50 c0 -82 -45 -150 -100 -150 -55 0 -100 68 -100 150 0 83 45 150 100 150 55 0 100 -67 100 -150z m1976 -208 c-99 -98 -276 53 -276 235 0 153 13 153 169 -3 93 -93 141 -197 107 -232z m-2488 94 c-127 -154 -547 -183 -633 -45 -68 111 51 155 448 170 240 8 276 -16 185 -125z m1862 64 c34 -55 -8 -100 -94 -100 -86 0 -156 45 -156 100 0 55 42 100 94 100 52 0 122 -45 156 -100z m-2850 -200 c0 -55 -48 -100 -106 -100 -58 0 -78 45 -44 100 34 55 82 100 106 100 24 0 44 -45 44 -100z m2411 -229 c-81 -81 -111 -70 -111 42 0 85 33 186 73 227 40 40 90 21 111 -42 21 -64 -12 -166 -73 -227z m-11851 -144 c-33 -33 -56 26 -52 131 5 117 28 141 60 61 29 -72 26 -159 -8 -192z m-6760 -189 c0 -131 -58 -238 -130 -238 -181 0 -370 208 -370 406 0 123 64 154 250 118 183 -35 250 -111 250 -286z m360 89 c-101 -102 -185 51 -102 186 63 102 87 102 121 1 23 -70 15 -154 -19 -187z m14691 137 c102 -102 107 -166 23 -250 -172 -172 -224 -140 -224 136 0 289 16 298 201 114z m549 30 c0 -58 -45 -78 -100 -44 -55 34 -100 82 -100 106 0 24 45 44 100 44 55 0 100 -48 100 -106z m-16752 -719 c42 -99 30 -175 -27 -175 -138 0 -223 256 -211 633 l10 317 78 -300 c42 -165 110 -379 150 -475z m19260 -325 c-62 -356 -78 -374 -148 -168 -43 128 -51 339 -19 469 33 130 17 263 -36 296 -53 33 -67 135 -32 228 119 308 314 -377 235 -825z m444 539 c38 -170 24 -353 -31 -408 -66 -66 -111 53 -135 350 -40 501 61 536 166 58z m-11493 -63 c-69 -70 -259 71 -259 192 0 66 57 59 152 -20 84 -70 132 -147 107 -172z m9969 121 c-36 -165 -752 -269 -844 -124 -134 210 -103 227 391 224 261 -2 465 -47 453 -100z m-1428 -47 c0 -55 -48 -100 -106 -100 -58 0 -78 45 -44 100 34 55 82 100 106 100 24 0 44 -45 44 -100z m-464 -352 c-66 -170 311 -214 414 -48 34 55 138 96 231 92 123 -6 131 -23 32 -62 -76 -30 -225 -142 -331 -248 -117 -117 -265 -169 -379 -133 -102 33 -213 15 -247 -39 -73 -118 161 -910 268 -910 42 0 76 -45 76 -100 0 -55 -64 -100 -142 -100 -78 0 -157 -48 -177 -106 -19 -58 -115 -75 -214 -37 -120 47 -155 121 -105 231 41 89 70 297 65 462 -4 165 39 534 97 821 93 458 127 509 287 423 104 -56 157 -160 125 -246z m4364 196 c0 -86 -46 -128 -102 -93 -56 35 -75 105 -44 156 86 139 146 113 146 -63z m-17408 -169 c128 -206 126 -213 -26 -87 -160 132 -568 114 -1241 -54 -124 -30 -225 -13 -225 39 0 76 532 209 1251 312 55 8 164 -86 241 -210z m9866 137 c-30 -48 -267 -141 -526 -206 -260 -66 -533 -206 -608 -313 -89 -127 -253 -193 -480 -193 -348 0 -447 120 -221 269 462 304 1975 670 1835 443z m8081 -370 c38 -98 15 -143 -58 -119 -149 50 -231 277 -100 277 54 0 125 -71 158 -158z m-20239 -259 c0 -158 -369 -83 -544 111 -172 189 -168 191 184 83 198 -61 360 -148 360 -194z m1996 175 c-187 -182 -433 -235 -490 -107 -25 54 88 127 250 162 162 35 315 69 340 75 26 7 -19 -52 -100 -130z m17804 36 c0 -58 -45 -78 -100 -44 -55 34 -100 82 -100 106 0 24 45 44 100 44 55 0 100 -48 100 -106z m-11800 -94 c0 -55 -67 -100 -150 -100 -82 0 -150 45 -150 100 0 55 68 100 150 100 83 0 150 -45 150 -100z m-7055 -213 c55 -51 -55 -87 -264 -87 -224 0 -381 55 -416 147 -45 116 9 134 264 86 177 -33 364 -98 416 -146z m2255 107 c0 -58 -45 -78 -100 -44 -55 34 -100 82 -100 106 0 24 45 44 100 44 55 0 100 -48 100 -106z m6800 26 c0 -166 -250 -320 -520 -320 -313 0 -394 255 -105 331 300 78 625 73 625 -11z m5763 -428 c-307 -241 -357 -241 -293 3 28 107 125 211 215 232 293 67 328 -38 78 -235z m-13663 108 c0 -55 -101 -99 -225 -98 -182 1 -196 20 -75 98 194 125 300 125 300 0z m5960 -173 c-33 -33 -56 26 -52 131 5 117 28 141 60 61 29 -72 26 -159 -8 -192z m6147 169 c234 -125 259 -343 29 -254 -90 34 -259 1 -375 -75 -224 -145 -1161 -288 -1161 -177 0 86 1011 607 1182 609 72 0 218 -46 325 -103z m-5407 -90 c0 -52 -45 -122 -100 -156 -55 -34 -100 8 -100 94 0 86 45 156 100 156 55 0 100 -42 100 -94z m8706 -118 c92 -171 80 -243 -60 -375 -162 -151 -170 -150 -115 9 33 94 17 198 -35 231 -125 77 -124 347 0 347 54 0 148 -95 210 -212z m-15106 -138 c0 -98 -96 -149 -275 -147 -263 3 -267 10 -81 150 247 187 356 186 356 -3z m7500 -100 c0 -183 -53 -250 -200 -250 -352 0 -237 454 125 492 41 4 75 -104 75 -242z m-6800 -200 c0 -76 -45 -166 -100 -200 -57 -35 -100 51 -100 200 0 149 43 235 100 200 55 -34 100 -124 100 -200z m3044 -75 c-162 -178 -311 -347 -331 -375 -21 -27 -4 63 37 200 100 335 242 500 431 500 114 0 76 -89 -137 -325z m10206 225 c-34 -55 -82 -100 -106 -100 -24 0 -44 45 -44 100 0 55 48 100 106 100 58 0 78 -45 44 -100z m2099 1 c35 -57 -5 -73 -94 -39 -173 66 -205 138 -61 138 52 0 122 -44 155 -99z m-6430 -169 c-72 -29 -159 -26 -192 8 -33 33 26 56 131 52 117 -5 141 -28 61 -60z m-574 -124 c61 -98 507 -78 1005 46 165 41 271 42 235 3 -36 -39 -328 -132 -650 -208 -548 -129 -598 -125 -782 57 -172 169 -176 194 -31 194 91 0 192 -42 223 -92z m3002 -3 c58 -95 -291 -180 -939 -229 -189 -14 -363 -89 -388 -165 -38 -114 65 -127 558 -71 375 42 629 30 668 -33 91 -148 -410 -242 -1171 -219 -273 9 -375 56 -375 173 0 116 -63 146 -225 107 -667 -160 -1001 -191 -936 -86 37 61 235 140 440 177 204 37 461 116 571 175 359 195 1703 322 1797 171z m6166 -172 c124 -151 106 -161 -200 -100 -186 37 -490 67 -675 67 -186 0 -338 45 -338 100 0 178 1060 119 1213 -67z m-10370 -83 c4 -55 -139 -114 -318 -131 -339 -33 -455 132 -150 213 255 68 460 33 468 -82z m-743 -106 c0 -24 -70 -44 -156 -44 -86 0 -128 46 -93 102 57 92 249 48 249 -58z m5854 49 c92 -149 -15 -230 -206 -156 -88 34 -133 107 -98 162 81 131 221 129 304 -6z m-13604 -193 c-34 -55 -107 -100 -162 -100 -55 0 -72 45 -38 100 34 55 107 100 162 100 55 0 72 -45 38 -100z m17427 -100 c103 -165 100 -200 -20 -200 -80 0 -174 47 -210 104 -35 58 -161 73 -280 35 -120 -38 -464 -85 -767 -104 -1722 -108 -3688 -322 -3873 -421 -118 -63 -417 -114 -665 -114 -247 0 -478 -45 -512 -100 -81 -130 1064 -128 1600 3 220 54 963 140 1650 192 688 52 1448 126 1690 165 301 48 420 37 375 -35 -79 -128 -822 -238 -1853 -274 -419 -15 -1122 -84 -1562 -155 -731 -118 -3014 -165 -3115 -65 -54 55 1076 364 1665 456 248 39 497 99 553 134 56 34 1001 136 2099 226 1099 89 2156 201 2348 247 564 138 744 118 877 -94z m1508 43 c19 -16 5 -78 -31 -136 -100 -162 -463 -121 -854 95 l-350 194 600 -62 c330 -34 616 -75 635 -91z m-16885 -132 c0 -49 -67 -116 -150 -147 -91 -35 -150 0 -150 89 0 81 68 147 150 147 83 0 150 -40 150 -89z m8125 -177 c-69 -28 -125 -85 -125 -127 0 -42 214 -21 475 46 424 110 713 102 595 -16 -83 -84 -1283 -358 -1335 -305 -128 128 91 468 297 460 120 -4 162 -30 93 -58z m7925 -34 c34 -55 -28 -100 -138 -100 -110 0 -228 45 -262 100 -34 55 28 100 138 100 110 0 228 -45 262 -100z m-17034 -1025 c60 -151 143 -275 184 -275 42 0 100 -90 129 -200 77 -296 -50 -242 -296 126 -120 178 -243 549 -274 824 -52 460 -48 472 46 150 57 -192 152 -474 211 -625z m16384 825 c0 -55 177 -100 394 -100 217 0 422 -45 456 -100 38 -62 -131 -100 -441 -100 -400 0 -524 41 -609 200 -85 160 -76 200 46 200 85 0 154 -45 154 -100z m-17062 -425 c36 -151 25 -275 -24 -275 -102 0 -214 466 -133 548 69 69 79 51 157 -273z m18535 256 c-97 -26 -232 -24 -300 3 -68 28 12 49 177 47 165 -3 220 -25 123 -50z m-21013 -404 c-33 -33 -56 26 -52 131 5 117 28 141 60 61 29 -72 26 -159 -8 -192z m19447 114 c110 -132 264 -147 912 -89 508 45 781 33 781 -33 0 -98 -302 -168 -1171 -268 -321 -37 -442 -9 -513 116 -78 141 -205 154 -879 94 -1099 -98 -1112 -99 -1829 -79 -754 21 -751 111 7 180 294 27 873 85 1285 130 1150 124 1266 120 1407 -51z m-4434 -310 c53 -158 -237 -241 -1064 -305 -546 -42 -721 -27 -669 58 40 64 267 116 504 116 238 0 562 67 720 149 305 159 452 154 509 -18z m-2023 -31 c38 -62 -134 -100 -450 -100 -316 0 -488 38 -450 100 34 55 236 100 450 100 214 0 416 -45 450 -100z m-12707 -500 c65 -240 61 -242 -88 -56 -85 107 -154 287 -152 400 2 165 20 176 88 56 47 -82 115 -262 152 -400z m2550 -46 c59 -36 106 -119 104 -185 -2 -65 -92 -13 -200 117 -108 130 -194 310 -191 400 5 118 31 103 93 -51 48 -118 135 -244 194 -281z m16274 313 c69 -70 -584 -104 -2137 -112 -865 -5 -1144 90 -480 162 528 58 2548 19 2617 -50z m-3490 -167 c120 -193 99 -200 -601 -208 -399 -4 -1210 -21 -1801 -37 -591 -16 -1075 3 -1075 43 0 39 681 98 1513 130 861 33 1559 104 1620 165 150 150 201 136 344 -93z m5573 100 c36 -59 -74 -100 -269 -101 -182 0 -578 -22 -881 -47 l-550 -46 550 136 c683 168 1070 188 1150 58z m-20590 -273 c-33 -33 -56 26 -52 131 5 117 28 141 60 61 29 -72 26 -159 -8 -192z m1740 123 c68 -82 102 -150 74 -150 -27 0 -106 68 -174 150 -68 83 -102 150 -74 150 27 0 106 -67 174 -150z m15400 -236 c0 -217 -2339 -514 -2654 -338 -145 81 -21 119 577 175 419 39 911 104 1094 145 425 94 983 104 983 18z m525 20 c-69 -28 -181 -28 -250 0 -69 28 -12 50 125 50 138 0 194 -22 125 -50z m2975 -120 c0 -111 -887 -224 -2144 -273 -547 -21 -1147 -88 -1332 -150 -186 -61 -365 -83 -399 -49 -162 162 240 264 1429 362 713 58 1341 123 1396 143 205 76 1050 50 1050 -33z m-7700 -216 c0 -102 -1106 -182 -1286 -94 -107 52 -99 80 34 131 94 36 207 43 252 15 45 -28 183 -13 307 33 250 92 693 38 693 -85z m-9165 -296 c148 -352 96 -1002 -80 -1002 -86 0 -121 196 -114 650 5 357 22 650 39 650 16 0 86 -134 155 -298z m9639 -62 c-83 -83 -1786 -202 -1831 -128 -24 39 305 103 731 141 427 39 844 108 926 153 140 76 281 -58 174 -166z m7178 63 c-26 -42 -171 -53 -322 -24 -242 47 -251 61 -77 123 221 79 471 17 399 -99z m-21702 -103 c-275 -118 -433 -118 -250 0 83 53 218 94 300 91 99 -3 82 -34 -50 -91z m17300 0 c-34 -55 -408 -101 -831 -102 -1034 -4 -1465 -119 -1804 -482 -218 -234 -340 -291 -522 -243 -221 58 -211 74 160 242 l397 179 -750 -45 c-503 -30 -668 -16 -500 43 138 49 419 93 625 98 232 6 442 83 550 202 154 169 327 192 1456 200 830 5 1259 -27 1219 -92z m2525 31 c-96 -25 -254 -25 -350 0 -96 25 -17 46 175 46 193 0 271 -21 175 -46z m850 3 c-69 -28 -181 -28 -250 0 -69 28 -12 50 125 50 138 0 194 -22 125 -50z m-19325 -234 c0 -55 -62 -100 -137 -100 -76 0 -290 -22 -475 -48 -327 -47 -325 -44 62 92 498 175 550 180 550 56z m20438 -80 c44 -72 -144 -94 -1205 -142 -339 -15 -650 -62 -691 -103 -124 -124 -199 -86 -199 100 0 154 124 177 1026 195 564 11 1045 -12 1069 -50z m-3138 -124 c-394 -120 -3023 -114 -2949 6 40 64 654 96 1631 86 894 -9 1461 -49 1318 -92z m-2437 -296 c295 0 537 -35 537 -79 0 -43 -169 -74 -375 -68 -1270 33 -1434 52 -1369 157 40 64 194 85 369 50 165 -33 542 -60 838 -60z m3237 -39 c0 -103 -278 -138 -1220 -151 -671 -9 -1187 17 -1145 58 65 65 547 114 2040 206 214 13 325 -26 325 -113z m2300 -61 c116 -75 82 -99 -150 -107 -165 -5 -559 -42 -875 -82 -316 -39 -575 -59 -575 -44 0 14 124 94 275 176 312 169 1099 203 1325 57z m-14691 -409 l-96 -241 -7 258 c-3 142 27 291 67 332 119 118 140 -88 36 -349z m5843 116 c-41 -184 -7 -404 91 -594 93 -179 118 -326 61 -361 -114 -70 -404 457 -404 735 0 272 103 513 219 513 55 0 69 -126 33 -293z m6948 143 c0 -82 -45 -150 -100 -150 -55 0 -100 68 -100 150 0 83 45 150 100 150 55 0 100 -67 100 -150z m-12034 -275 c-28 -69 -50 -12 -50 125 0 138 22 194 50 125 28 -69 28 -181 0 -250z m-4436 28 c-50 -189 -330 -497 -330 -362 0 73 306 559 352 559 16 0 6 -89 -22 -197z m16020 -3 c-34 -55 -107 -100 -162 -100 -55 0 -72 45 -38 100 34 55 107 100 162 100 55 0 72 -45 38 -100z m-2250 -100 c0 -55 -41 -100 -92 -100 -50 0 -157 -25 -237 -56 -80 -30 -172 15 -205 100 -46 120 9 156 237 156 163 0 297 -45 297 -100z m1350 0 c-446 -113 -930 -113 -1000 0 -39 63 188 96 619 88 525 -9 612 -29 381 -88z m3125 31 c-96 -25 -254 -25 -350 0 -96 25 -17 46 175 46 193 0 271 -21 175 -46z m-783 -73 c-33 -32 -753 -162 -992 -178 -243 -17 -401 38 -350 120 34 55 359 100 723 100 363 0 642 -19 619 -42z m658 -358 c-34 -55 -295 -94 -581 -87 -485 12 -496 18 -169 87 532 112 819 112 750 0z m-20871 -288 c-17 -92 -149 -176 -305 -194 -274 -31 -323 38 -219 309 79 205 565 99 524 -115z m15096 216 c-151 -23 -399 -23 -550 0 -151 23 -27 42 275 42 303 0 426 -19 275 -42z m3979 -35 c117 -188 -28 -213 -320 -55 l-284 154 269 4 c148 2 299 -44 335 -103z m-13554 -84 c0 -191 -816 -1112 -1125 -1271 -473 -242 -637 -538 -297 -538 203 0 708 433 969 831 281 429 352 313 148 -244 -103 -282 -200 -524 -216 -538 -16 -14 -204 -144 -418 -287 -433 -292 -787 -326 -1161 -112 -137 79 -407 146 -600 149 -291 6 -320 25 -172 111 98 57 310 107 471 112 183 5 394 114 565 293 151 157 352 285 448 285 97 0 437 292 757 650 614 687 631 702 631 559z m-3500 -98 c0 -49 -71 -117 -158 -150 -245 -94 -277 -74 -142 89 138 166 300 199 300 61z m600 47 c0 -181 -154 -358 -311 -358 -221 0 -235 56 -64 250 115 131 375 206 375 108z m-1347 -239 c-31 -30 -112 0 -180 69 -98 98 -86 110 56 56 99 -38 154 -94 124 -125z m2962 -408 c-128 -96 -397 -262 -598 -368 -202 -106 -434 -274 -517 -372 -158 -189 -715 -282 -800 -134 -27 48 138 160 367 250 636 249 626 320 -36 250 -332 -34 -674 -23 -760 25 -101 57 144 94 689 104 668 12 945 65 1318 252 526 264 691 260 337 -7z m-4425 98 c184 -117 66 -409 -167 -409 -273 0 -444 204 -308 368 127 153 277 166 475 41z m1932 -33 c-169 -81 -259 -79 -345 7 -89 89 -35 115 228 110 324 -6 331 -13 117 -117z m20910 -76 c101 -91 -403 -230 -537 -147 -52 32 -95 125 -95 205 0 108 71 129 275 81 151 -36 312 -98 357 -139z m-2482 -100 c-34 -55 -107 -100 -162 -100 -55 0 -72 45 -38 100 34 55 107 100 162 100 55 0 72 -45 38 -100z m-20340 -625 c-45 -124 -112 -214 -146 -200 -35 14 -109 25 -164 25 -55 0 -100 90 -100 200 0 146 67 200 247 200 214 0 235 -30 163 -225z m1190 -121 c0 -26 -90 -95 -200 -154 -121 -65 -200 -69 -200 -11 0 53 79 117 175 142 96 25 186 51 200 57 14 7 25 -9 25 -34z m319 -222 c-72 -29 -159 -26 -192 8 -33 33 26 56 131 52 117 -5 141 -28 61 -60z m969 -707 c151 -315 46 -280 -269 90 -422 493 -482 651 -146 382 170 -136 356 -348 415 -472z m-2521 497 c64 -40 150 -205 190 -364 63 -252 49 -282 -105 -223 -112 44 -222 7 -300 -99 -173 -236 -367 -80 -288 233 48 193 30 246 -75 211 -76 -25 -153 -187 -170 -359 -26 -267 8 -324 229 -379 180 -46 321 -11 456 112 221 200 263 76 66 -193 -198 -271 -687 -178 -848 161 -259 542 365 1206 845 900z m5522 -332 c-380 -289 -1111 -490 -1532 -422 -242 39 -403 19 -450 -56 -47 -77 -112 -31 -188 135 -99 218 -91 252 58 246 95 -4 263 -42 373 -85 231 -91 1063 84 1500 315 381 202 553 106 239 -133z m-3442 -200 c194 -171 353 -355 353 -409 0 -105 -684 272 -850 468 -55 65 -167 145 -250 177 -90 35 -41 61 122 66 169 5 404 -109 625 -302z m-1270 -45 c-23 -268 -321 -616 -408 -476 -73 118 200 731 325 731 57 0 94 -115 83 -255z m4961 -300 c-187 -285 -728 -546 -1125 -543 -145 1 -375 90 -513 197 l-250 195 411 -39 c289 -27 558 31 900 195 661 317 787 316 577 -5z m-4888 -345 c-34 -55 -115 -99 -181 -98 -71 0 -59 40 31 98 192 124 227 124 150 0z m5047 -253 c-184 -196 -323 -248 -617 -230 -405 24 -534 180 -155 187 124 2 383 88 575 191 436 233 506 180 197 -148z m-2927 -212 c40 -106 79 -117 129 -37 91 148 1226 -1019 1317 -1355 91 -332 -46 -305 -491 94 -206 186 -743 522 -1192 748 -746 374 -1014 568 -917 664 46 46 1056 -448 1378 -673 311 -218 367 -162 156 159 -96 148 -224 230 -308 198 -132 -51 -531 316 -539 496 -5 128 403 -129 467 -294z m-3827 8 c211 -212 199 -243 -93 -243 -183 0 -250 53 -250 200 0 240 129 256 343 43z m7011 -136 c-36 -59 -187 -102 -335 -95 -207 9 -223 22 -69 59 110 27 242 88 293 137 119 113 198 40 111 -101z m-5479 -32 c-23 -69 -126 -141 -230 -162 -163 -31 -171 -14 -55 125 159 192 344 215 285 37z m405 -170 c-68 -108 -136 -182 -154 -165 -59 60 96 360 186 360 49 0 35 -88 -32 -195z m-1138 -141 c-35 -90 -104 -164 -153 -164 -136 0 -106 277 36 328 169 60 191 30 117 -164z m-1199 -21 c198 -198 205 -543 11 -543 -189 0 -371 339 -293 543 75 194 88 194 282 0z m1685 -612 c-93 -142 -185 -210 -205 -150 -53 160 172 534 281 467 53 -33 20 -170 -76 -317z m1551 119 c310 -211 333 -250 150 -250 -230 0 -872 491 -649 497 72 2 296 -109 499 -247z m4485 -150 c206 0 323 -41 286 -100 -95 -154 -589 -118 -806 58 -178 145 -178 153 -11 100 101 -32 340 -58 531 -58z m9236 -6 c0 -58 -45 -78 -100 -44 -55 34 -100 82 -100 106 0 24 45 44 100 44 55 0 100 -48 100 -106z m-12100 -310 c0 -99 -123 -107 -342 -23 -87 33 -158 122 -158 198 0 110 49 114 250 23 138 -63 250 -152 250 -198z m12233 -610 c-111 -1176 -658 -3723 -842 -3917 -283 -301 -276 432 17 1716 111 482 270 1237 355 1677 277 1442 236 1323 382 1124 76 -104 112 -351 88 -600z m-15672 47 c-84 -163 -221 -323 -303 -354 -92 -36 -46 89 121 327 313 444 405 458 182 27z m18506 54 c-31 -179 -86 -629 -123 -1000 -37 -371 -112 -675 -166 -675 -56 0 -73 108 -38 244 34 138 12 274 -52 313 -136 85 -37 1114 127 1311 194 233 309 144 252 -193z m452 257 c-72 -29 -159 -26 -192 8 -33 33 26 56 131 52 117 -5 141 -28 61 -60z m1281 -38 c0 -58 -45 -78 -100 -44 -55 34 -100 82 -100 106 0 24 45 44 100 44 55 0 100 -48 100 -106z m1025 40 c-69 -28 -181 -28 -250 0 -69 28 -12 50 125 50 138 0 194 -22 125 -50z m1633 -234 c78 0 142 -62 142 -138 0 -142 -520 -175 -653 -42 -111 111 63 298 221 237 82 -31 212 -57 290 -57z m-3758 -100 c223 -71 210 -81 -125 -90 -206 -6 -375 35 -375 90 0 114 143 114 500 0z m-15200 -411 c0 -49 -90 -89 -200 -89 -195 0 -261 106 -140 226 80 81 340 -24 340 -137z m17450 -89 c74 -119 -122 -119 -400 0 -179 77 -171 87 69 93 148 4 297 -38 331 -93z m1593 -50 c4 -55 -94 -114 -218 -132 -219 -31 -296 78 -155 219 97 97 364 35 373 -87z m-18162 -244 c25 -75 -12 -112 -87 -87 -72 24 -151 103 -175 175 -25 75 12 112 87 87 72 -24 151 -103 175 -175z m-81 -425 c0 -223 -433 58 -533 345 -52 150 -18 144 236 -44 163 -121 297 -256 297 -301z m-993 315 c231 -123 257 -396 37 -396 -86 0 -128 45 -94 100 37 60 -82 100 -294 100 -336 0 -439 83 -289 233 99 100 420 81 640 -37z m-1163 -206 c-109 -176 -687 -382 -1514 -541 -735 -140 -1161 -133 -567 10 158 38 467 162 687 275 220 114 625 236 900 272 275 36 514 72 531 80 17 8 0 -36 -37 -96z m20299 21 c30 -48 -12 -144 -94 -212 -124 -103 -149 -88 -149 89 0 214 142 287 243 123z m-20143 -351 c0 -77 -135 -187 -300 -245 -378 -132 -396 27 -25 228 342 185 325 184 325 17z m600 -2 c0 -206 -109 -458 -199 -458 -131 0 -184 377 -69 492 150 150 268 135 268 -34z m736 -108 c32 -82 127 -150 211 -150 84 0 153 -72 153 -161 0 -114 -50 -139 -175 -86 -436 184 -750 19 -750 -395 0 -142 -41 -258 -91 -258 -180 0 5 846 224 1025 262 214 354 220 428 25z m824 -223 c-33 -33 -56 26 -52 131 5 117 28 141 60 61 29 -72 26 -159 -8 -192z m13839 -252 c63 -289 133 -696 155 -905 22 -209 74 -434 116 -500 41 -66 62 -199 46 -295 -16 -96 25 -175 90 -175 85 0 81 -45 -15 -161 -113 -136 -106 -180 44 -290 112 -82 138 -154 71 -195 -169 -105 -124 -235 107 -308 165 -53 183 -87 77 -152 -110 -68 -93 -127 86 -293 123 -115 225 -286 225 -380 1 -94 114 -524 252 -956 193 -605 236 -898 187 -1271 -77 -575 -353 -896 -625 -726 -116 72 -355 80 -708 24 -505 -80 -546 -70 -746 180 -116 146 -242 335 -279 421 -106 245 -93 987 18 1024 62 21 71 256 24 633 -41 330 -42 1047 -2 1593 47 639 37 1036 -29 1116 -62 75 -66 146 -9 181 82 51 152 299 284 1004 84 447 107 180 114 -1315 8 -1697 103 -3868 183 -4155 52 -188 523 -474 779 -474 257 0 683 777 623 1138 -117 703 -269 1276 -412 1553 -378 730 -788 2328 -875 3407 -17 214 28 802 62 802 23 0 93 -236 157 -525z m-16866 67 c-66 -171 -346 -154 -405 25 -22 64 42 135 141 157 248 56 333 -2 264 -182z m899 43 c233 -123 364 -276 366 -430 1 -52 -52 -41 -118 25 -169 169 -482 149 -697 -45 -172 -156 -183 -153 -183 42 0 186 234 523 364 523 27 0 147 -52 268 -115z m20204 -35 c35 -90 1 -150 -83 -150 -165 0 -276 143 -184 236 106 105 206 73 267 -86z m-21736 -50 c0 -55 -102 -100 -228 -100 -125 0 -332 -73 -461 -163 -194 -136 -247 -141 -318 -26 -110 178 -13 264 357 316 547 78 650 74 650 -27z m20500 -200 c-194 -125 -300 -125 -300 0 0 55 101 99 225 98 182 -1 196 -20 75 -98z m-19802 -225 c-1 -176 -21 -193 -93 -80 -50 80 -70 181 -42 225 86 141 137 86 135 -145z m-400 26 c102 -55 216 -238 253 -407 49 -221 111 -292 220 -250 129 50 141 -15 81 -418 -39 -262 -132 -511 -207 -554 -75 -42 -111 -144 -80 -225 83 -216 -202 -182 -411 49 -120 132 -157 277 -115 447 56 221 102 244 378 189 327 -66 332 -4 31 368 -67 83 -151 274 -186 425 -109 455 -479 369 -865 -200 l-321 -475 58 387 c31 213 134 472 227 575 184 204 642 247 937 89z m-2056 -237 c-35 -90 -173 -164 -309 -164 -136 0 -333 -47 -440 -104 -161 -86 -193 -70 -193 96 0 152 88 214 375 262 206 34 420 75 475 90 144 41 163 5 92 -180z m658 86 c0 -83 -89 -150 -200 -150 -111 0 -200 67 -200 150 0 83 89 150 200 150 111 0 200 -67 200 -150z m22900 -6 c0 -24 -45 -44 -100 -44 -55 0 -100 48 -100 106 0 58 45 78 100 44 55 -34 100 -82 100 -106z m-9968 -19 c119 -201 175 -725 79 -725 -139 0 -396 514 -339 675 50 139 192 166 260 50z m7218 -25 c-34 -55 -284 -100 -556 -100 -272 0 -494 45 -494 100 0 55 250 100 556 100 345 0 532 -38 494 -100z m769 -68 c-72 -29 -159 -26 -192 8 -33 33 26 56 131 52 117 -5 141 -28 61 -60z m-15838 -415 c32 -325 -29 -378 -267 -228 -84 54 -97 110 -34 149 56 34 76 158 45 275 -40 154 -16 201 85 168 77 -26 154 -189 171 -364z m-5041 43 c-69 -179 -253 -171 -314 13 -21 61 44 128 143 150 234 52 248 39 171 -163z m4560 138 c0 -56 -124 -155 -275 -220 -151 -65 -289 -128 -307 -139 -17 -11 13 -103 68 -204 55 -102 129 -275 164 -385 60 -185 77 -179 214 81 140 265 337 320 403 113 50 -158 -104 -310 -382 -378 -230 -56 -280 -25 -370 235 -102 291 -122 299 -760 299 -582 0 -655 22 -655 194 0 253 163 346 624 357 247 7 376 -35 376 -121 0 -204 171 -152 229 70 38 146 136 200 362 200 170 0 309 -46 309 -102z m18219 -66 c-72 -29 -159 -26 -192 8 -33 33 26 56 131 52 117 -5 141 -28 61 -60z m-16780 -185 c102 -102 127 -222 74 -364 -61 -165 -168 -213 -495 -222 -398 -10 -562 138 -318 289 55 34 100 149 100 256 0 241 412 267 639 41z m15661 53 c0 -55 -67 -100 -150 -100 -82 0 -150 45 -150 100 0 55 68 100 150 100 83 0 150 -45 150 -100z m-1027 -69 c-97 -26 -232 -24 -300 3 -68 28 12 49 177 47 165 -3 220 -25 123 -50z m-20422 -729 c-56 -176 -93 -191 -218 -88 -134 111 -130 141 26 255 219 160 279 109 192 -167z m15649 252 c0 -26 -90 -95 -200 -154 -121 -65 -200 -69 -200 -11 0 53 79 117 175 142 96 25 186 51 200 57 14 7 25 -9 25 -34z m4130 -17 c35 -35 -51 -153 -191 -263 -188 -148 -282 -171 -366 -87 -84 84 -56 113 107 113 129 0 220 62 220 150 0 154 118 199 230 87z m1578 -46 c-160 -64 -277 -62 -345 6 -71 71 5 101 242 97 324 -6 330 -13 103 -103z m-19308 -91 c0 -55 -45 -100 -100 -100 -55 0 -100 45 -100 100 0 55 45 100 100 100 55 0 100 -45 100 -100z m300 -300 c0 -55 -45 -100 -100 -100 -55 0 -100 45 -100 100 0 55 45 100 100 100 55 0 100 -45 100 -100z m19250 0 c37 -59 -72 -97 -269 -93 -276 6 -298 21 -131 93 271 117 328 117 400 0z m-21102 -195 c34 -107 116 -175 182 -151 173 63 408 -112 327 -243 -101 -163 -257 -135 -257 45 0 86 -44 129 -98 95 -141 -87 -502 130 -502 303 0 216 277 178 348 -49z m-1848 -11 c0 -58 -45 -78 -100 -44 -55 34 -100 82 -100 106 0 24 45 44 100 44 55 0 100 -48 100 -106z m902 -96 c158 -158 180 -245 100 -394 -152 -284 -482 -353 -709 -148 -236 214 -242 325 -28 561 214 237 387 231 637 -19z m21348 -298 c-275 -118 -373 -118 -300 0 34 55 160 97 281 93 211 -7 212 -10 19 -93z m-7096 -625 c40 -162 27 -275 -32 -275 -122 0 -222 240 -222 528 0 276 163 113 254 -253z m6338 161 c23 -20 -76 -36 -219 -36 -144 0 -290 47 -325 104 -59 94 426 34 544 -68z m-4292 -36 c0 -55 -56 -104 -125 -108 -69 -5 -228 -20 -354 -34 -398 -44 -37 162 404 230 41 7 75 -33 75 -88z m-15440 -273 c-33 -33 -56 26 -52 131 5 117 28 141 60 61 29 -72 26 -159 -8 -192z m20615 165 c-119 -69 -231 -69 -350 0 -143 83 -111 102 175 102 286 0 318 -19 175 -102z m-11173 -340 c-140 -169 -602 -209 -602 -52 0 55 110 100 244 100 134 0 274 48 310 107 36 58 90 82 120 52 30 -30 -2 -123 -72 -207z m-6052 -352 c-38 -118 -91 -193 -118 -165 -28 27 -20 147 18 265 38 118 91 193 118 165 28 -27 20 -147 -18 -265z m14750 0 c0 -55 -67 -100 -150 -100 -82 0 -150 45 -150 100 0 55 68 100 150 100 83 0 150 -45 150 -100z m-8205 -157 c-144 -173 -626 -443 -790 -443 -58 0 -105 45 -105 100 0 55 79 100 175 101 96 0 310 87 475 192 374 240 407 247 245 50z m5041 -193 c-31 -83 -75 -150 -97 -150 -21 0 -39 67 -39 150 0 83 44 150 97 150 53 0 71 -67 39 -150z m-11906 -557 c-206 -543 -194 -527 -320 -449 -124 76 25 518 263 781 231 256 247 168 57 -332z m14989 339 c-72 -29 -159 -26 -192 8 -33 33 26 56 131 52 117 -5 141 -28 61 -60z m-12100 -100 c-72 -29 -159 -26 -192 8 -33 33 26 56 131 52 117 -5 141 -28 61 -60z m9581 -132 c0 -55 -70 -100 -156 -100 -86 0 -128 45 -94 100 34 55 104 100 156 100 52 0 94 -45 94 -100z m-16043 -277 c-172 -165 -175 -163 -61 61 66 128 148 206 181 172 34 -33 -20 -138 -120 -233z m18893 177 c-34 -55 -129 -100 -212 -100 -82 0 -122 45 -88 100 34 55 129 100 212 100 82 0 122 -45 88 -100z m1550 -312 c0 -55 -45 -72 -100 -38 -55 34 -100 107 -100 162 0 55 45 72 100 38 55 -34 100 -107 100 -162z m-1200 -188 c0 -55 -70 -100 -156 -100 -86 0 -128 45 -94 100 34 55 104 100 156 100 52 0 94 -45 94 -100z m-16150 -600 c-34 -55 -160 -96 -281 -90 -204 9 -202 15 31 90 138 44 264 85 281 90 17 6 3 -35 -31 -90z m1100 -100 c78 -127 -54 -127 -250 0 -129 84 -127 97 19 98 93 1 197 -43 231 -98z m3750 -56 c0 -24 -70 -44 -156 -44 -86 0 -128 46 -93 102 57 92 249 48 249 -58z m13173 -13 c-97 -26 -232 -24 -300 3 -68 28 12 49 177 47 165 -3 220 -25 123 -50z m-18168 -322 c-62 -115 -186 -209 -276 -209 -133 0 -120 47 71 250 268 285 369 265 205 -41z m695 -9 c129 -84 127 -97 -19 -98 -93 -1 -197 43 -231 98 -78 127 54 127 250 0z m2500 0 c0 -55 -48 -100 -106 -100 -58 0 -78 45 -44 100 34 55 82 100 106 100 24 0 44 -45 44 -100z m16566 -225 c-28 -69 -50 -12 -50 125 0 138 22 194 50 125 28 -69 28 -181 0 -250z m-11766 -75 c0 -55 -48 -100 -106 -100 -58 0 -78 45 -44 100 34 55 82 100 106 100 24 0 44 -45 44 -100z m-4782 -222 c-71 -71 -118 -77 -118 -15 0 134 118 252 185 185 28 -28 -2 -105 -67 -170z m13423 -193 c-32 -51 -140 -67 -241 -35 -101 32 -212 11 -247 -46 -118 -190 -267 -117 -162 79 72 135 179 172 403 139 167 -24 278 -86 247 -137z m-14922 47 c-72 -29 -159 -26 -192 8 -33 33 26 56 131 52 117 -5 141 -28 61 -60z m-1769 -232 c-34 -55 -82 -100 -106 -100 -24 0 -44 45 -44 100 0 55 48 100 106 100 58 0 78 -45 44 -100z m2551 -49 c-68 -82 -164 -124 -214 -93 -128 79 -6 242 181 242 127 0 133 -28 33 -149z m4199 -245 c0 -118 -195 -244 -267 -173 -71 72 55 267 173 267 52 0 94 -42 94 -94z m-7900 -606 c-197 -127 -429 -127 -350 0 34 55 160 99 281 98 178 -1 191 -19 69 -98z m16700 0 c0 -55 -45 -100 -100 -100 -55 0 -100 45 -100 100 0 55 45 100 100 100 55 0 100 -45 100 -100z"/>
<path d="M6000 24951 c0 -36 72 -138 161 -226 147 -148 158 -146 125 24 -33 171 -286 350 -286 202z"/>
<path d="M7450 24900 c-36 -58 66 -100 244 -100 168 0 306 45 306 100 0 55 -110 100 -244 100 -134 0 -272 -45 -306 -100z"/>
<path d="M14075 24934 c69 -28 181 -28 250 0 69 28 13 50 -125 50 -137 0 -194 -22 -125 -50z"/>
<path d="M15050 24900 c-74 -120 221 -120 500 0 169 72 150 87 -119 93 -176 4 -347 -38 -381 -93z"/>
<path d="M24182 24725 c-18 -155 -87 -264 -157 -250 -69 14 -125 -42 -125 -125 0 -82 64 -150 143 -150 79 0 172 -91 207 -201 115 -361 201 -131 166 441 -36 585 -180 760 -234 285z"/>
<path d="M3400 24800 c0 -55 90 -100 200 -100 110 0 200 45 200 100 0 55 -90 100 -200 100 -110 0 -200 -45 -200 -100z"/>
<path d="M4900 24700 c0 -55 45 -100 100 -100 55 0 100 45 100 100 0 55 -45 100 -100 100 -55 0 -100 -45 -100 -100z"/>
<path d="M13001 24611 c-138 -39 -202 -99 -142 -135 135 -84 541 18 541 136 0 98 -42 98 -399 -1z"/>
<path d="M2717 24500 c50 -151 211 -167 258 -25 23 69 -33 125 -125 125 -92 0 -152 -45 -133 -100z"/>
<path d="M10400 24490 c0 -49 210 -90 467 -90 256 0 448 16 425 36 -101 88 -892 136 -892 54z"/>
<path d="M14700 24500 c-115 -74 -80 -97 150 -97 165 0 368 44 450 97 115 74 80 97 -150 97 -165 0 -368 -44 -450 -97z"/>
<path d="M7335 24287 c132 -77 216 -76 295 3 80 80 30 109 -185 107 -259 -3 -272 -16 -110 -110z"/>
<path d="M11750 24008 c150 -59 36 -107 -458 -193 -362 -63 -781 -115 -931 -115 -150 0 -248 -41 -217 -90 86 -139 2492 198 2856 401 207 115 -125 113 -626 -3 -218 -51 -398 -50 -430 2 -31 50 -132 87 -225 83 -136 -6 -130 -22 31 -85z"/>
<path d="M15010 24013 c-97 -65 49 -104 475 -128 338 -19 615 -1 615 40 0 41 -56 75 -125 76 -69 1 -282 25 -475 54 -193 29 -413 10 -490 -42z"/>
<path d="M14250 23800 c-193 -83 -192 -86 19 -93 121 -4 247 38 281 93 73 118 -25 118 -300 0z"/>
<path d="M13350 23600 c-74 -119 122 -119 400 0 179 77 171 87 -69 93 -148 4 -297 -38 -331 -93z"/>
<path d="M23567 23633 c-115 -115 -73 -233 83 -233 83 0 150 68 150 150 0 156 -118 198 -233 83z"/>
<path d="M15850 23400 c-183 -79 -179 -86 50 -91 138 -3 318 38 400 91 124 80 115 96 -50 91 -110 -3 -290 -44 -400 -91z"/>
<path d="M0 22800 c0 -55 42 -100 94 -100 52 0 122 45 156 100 34 55 -8 100 -94 100 -86 0 -156 -45 -156 -100z"/>
<path d="M24200 20100 c0 -55 45 -100 100 -100 55 0 100 45 100 100 0 55 -45 100 -100 100 -55 0 -100 -45 -100 -100z"/>
<path d="M24200 19700 c0 -55 42 -100 94 -100 52 0 122 45 156 100 34 55 -8 100 -94 100 -86 0 -156 -45 -156 -100z"/>
<path d="M24300 18800 c0 -55 45 -100 100 -100 55 0 100 45 100 100 0 55 -45 100 -100 100 -55 0 -100 -45 -100 -100z"/>
<path d="M24250 18400 c-34 -55 -14 -100 44 -100 58 0 106 45 106 100 0 55 -20 100 -44 100 -24 0 -72 -45 -106 -100z"/>
<path d="M10501 17292 c0 -133 202 -731 450 -1328 247 -598 449 -1121 449 -1163 0 -42 74 -251 166 -464 168 -393 600 -1580 1153 -3162 185 -529 360 -875 443 -875 214 0 164 187 -356 1350 -99 220 -256 572 -350 781 -153 340 -746 1940 -1557 4202 -314 873 -399 1014 -398 659z"/>
<path d="M24100 17000 c0 -55 68 -100 150 -100 83 0 150 45 150 100 0 55 -67 100 -150 100 -82 0 -150 -45 -150 -100z"/>
<path d="M18744 15653 c-194 -155 -333 -203 -408 -141 -118 98 -636 -79 -636 -216 0 -171 527 -151 922 34 235 111 481 193 545 183 206 -32 246 173 54 276 -141 75 -252 43 -477 -136z"/>
<path d="M19655 15709 c-32 -53 -16 -122 36 -154 53 -32 122 -16 154 36 32 53 16 122 -36 154 -53 32 -122 16 -154 -36z"/>
<path d="M19700 13212 c0 -118 502 -444 573 -372 58 58 -370 451 -498 457 -41 2 -75 -37 -75 -85z"/>
<path d="M18750 13100 c-34 -55 -14 -100 44 -100 58 0 106 45 106 100 0 55 -20 100 -44 100 -24 0 -72 -45 -106 -100z"/>
<path d="M20473 13134 c68 -27 203 -29 300 -3 97 25 42 47 -123 50 -165 2 -245 -19 -177 -47z"/>
<path d="M14416 12800 c0 -137 22 -194 50 -125 28 69 28 181 0 250 -28 69 -50 13 -50 -125z"/>
<path d="M19373 12381 c182 -368 429 -592 562 -509 48 29 116 10 151 -44 91 -139 614 -253 614 -133 0 54 236 133 525 175 l525 77 -650 55 c-357 31 -665 20 -683 -23 -19 -44 -100 -79 -181 -79 -81 0 -118 48 -81 108 36 59 -31 198 -151 310 -256 238 -405 169 -161 -75 191 -191 158 -276 -73 -187 -87 34 -172 180 -189 327 -18 154 -102 279 -202 298 -159 30 -160 11 -6 -300z"/>
<path d="M18650 12500 c-34 -55 31 -100 144 -100 113 0 206 45 206 100 0 55 -65 100 -144 100 -79 0 -172 -45 -206 -100z"/>
<path d="M14508 12353 c-9 -233 766 -3117 910 -3386 54 -101 123 -159 154 -129 72 73 -289 1662 -379 1662 -86 0 -221 366 -444 1200 -234 882 -232 876 -241 653z"/>
<path d="M21623 12279 c23 -71 174 -144 335 -163 160 -18 348 -80 417 -137 91 -75 125 -61 125 52 0 153 -70 188 -635 314 -208 47 -273 29 -242 -66z"/>
<path d="M24800 12212 c0 -55 45 -128 100 -162 55 -34 100 -17 100 38 0 55 -45 128 -100 162 -55 34 -100 17 -100 -38z"/>
<path d="M18300 12100 c0 -125 106 -125 300 0 121 78 107 97 -75 98 -124 1 -225 -43 -225 -98z"/>
<path d="M23900 12156 c0 -24 45 -72 100 -106 55 -34 100 -14 100 44 0 58 -45 106 -100 106 -55 0 -100 -20 -100 -44z"/>
<path d="M18764 11850 c-35 -92 -64 -263 -64 -380 l0 -214 222 221 c202 203 208 236 63 380 -144 145 -163 144 -221 -7z"/>
<path d="M24300 11900 c0 -55 68 -100 150 -100 83 0 150 45 150 100 0 55 -67 100 -150 100 -82 0 -150 -45 -150 -100z"/>
<path d="M19300 11772 c0 -82 90 -172 200 -201 130 -34 200 -3 200 88 0 78 -19 141 -42 141 -23 0 -113 27 -200 61 -100 38 -158 6 -158 -89z"/>
<path d="M18376 11520 c-31 -121 -20 -243 26 -272 128 -78 182 78 102 297 -67 185 -73 184 -128 -25z"/>
<path d="M18000 11406 c0 -113 45 -206 100 -206 55 0 100 65 100 144 0 79 -45 172 -100 206 -55 34 -100 -31 -100 -144z"/>
<path d="M18550 10700 c-34 -55 -17 -100 38 -100 55 0 128 45 162 100 34 55 17 100 -38 100 -55 0 -128 -45 -162 -100z"/>
<path d="M11703 9210 c-2 -77 312 -779 697 -1560 385 -781 700 -1471 700 -1535 0 -175 270 -137 341 48 57 149 -346 912 -715 1352 -113 134 -114 174 -7 217 90 36 93 55 11 60 -145 10 -730 837 -730 1032 0 192 -293 572 -297 386z"/>
<path d="M12900 9040 c0 -87 88 -282 195 -433 395 -555 885 -2047 889 -2707 1 -192 186 -797 410 -1344 228 -554 382 -1073 350 -1175 -43 -136 -5 -181 153 -181 168 0 205 53 182 265 -44 398 184 394 375 -8 188 -397 138 -652 -143 -725 -183 -48 -183 -62 -5 -548 100 -275 234 -562 297 -638 63 -76 235 -445 381 -821 l266 -682 475 -29 c261 -16 475 -9 475 16 0 132 -353 853 -789 1611 -284 493 -473 934 -445 1039 47 180 -1020 2438 -1182 2503 -46 19 -84 123 -84 232 0 109 -84 409 -186 666 -647 1633 -852 2189 -864 2344 -13 182 -526 775 -669 775 -44 0 -81 -72 -81 -160z m1500 -3296 c0 -374 -145 -465 -229 -144 -67 257 25 614 140 543 49 -30 89 -210 89 -399z m700 -1456 c0 -55 -45 -72 -100 -38 -55 34 -100 107 -100 162 0 55 45 72 100 38 55 -34 100 -107 100 -162z m686 -2591 c58 -167 67 -280 20 -251 -48 30 -134 190 -192 357 -58 167 -67 280 -20 251 48 -30 134 -190 192 -357z"/>
<path d="M9200 7363 c0 -188 304 -763 403 -763 64 0 16 162 -112 375 -273 453 -291 477 -291 388z"/>
<path d="M10200 5356 c0 -24 45 -72 100 -106 55 -34 100 -14 100 44 0 58 -45 106 -100 106 -55 0 -100 -20 -100 -44z"/>
<path d="M10400 5045 c0 -168 747 -1555 781 -1451 22 64 -112 411 -296 771 -307 600 -485 849 -485 680z"/>
<path d="M14744 1571 c-34 -89 -36 -203 -4 -254 31 -51 -55 -258 -191 -460 -313 -460 -312 -589 3 -758 233 -125 277 -110 595 198 334 323 339 342 204 666 -76 183 -230 430 -342 550 -176 190 -211 197 -265 58z"/>
<path d="M15244 153 c-183 -139 -176 -147 131 -150 224 -2 325 44 325 147 0 191 -206 192 -456 3z"/>
</g>
</svg>