<svg xmlns="http://www.w3.org/2000/svg" version="1.0" width="250" height="250" viewBox="0 0 250.000000 250.000000" preserveAspectRatio="xMidYMid meet">
<metadata>
Created by potrace 1.10, written by Peter Selinger 2001-2011
</metadata>
<g transform="translate(0.000000,250.000000) scale(0.010000,-0.010000)" fill="#555555" stroke="none">
<path d="M1604 24405 c218 -327 384 -676 371 -775 -13 -99 61 -601 165 -1115 142 -702 159 -954 72 -1008 -79 -49 -100 -267 -64 -665 144 -1598 162 -2188 64 -2035 -56 86 -124 279 -151 429 -27 150 -115 507 -196 793 -81 287 -178 711 -215 944 -74 468 -1244 2915 -1493 3121 -133 111 -157 102 -157 -60 0 -104 78 -301 173 -437 238 -338 1127 -2215 1127 -2378 0 -72 183 -815 406 -1650 710 -2656 851 -3069 1048 -3069 72 0 161 -146 198 -325 167 -805 716 -2183 1113 -2795 239 -368 435 -698 435 -734 0 -35 -135 50 -299 188 -165 139 -393 282 -508 318 -122 39 -186 123 -154 204 29 76 -40 203 -153 283 -113 79 -315 304 -447 499 -355 522 -1217 3267 -2138 6807 -313 1205 -540 1806 -727 1921 -131 81 -52 -341 210 -1116 112 -330 270 -870 352 -1200 228 -915 839 -3051 1288 -4500 423 -1368 653 -1900 1040 -2409 308 -404 299 -441 -102 -441 -461 0 -603 -200 -528 -745 73 -530 -79 -1018 -363 -1171 -176 -94 -244 -70 -439 157 -127 148 -257 390 -289 539 -122 560 -286 849 -585 1031 -410 250 -658 244 -658 -17 0 -113 43 -179 95 -147 213 131 594 -71 698 -371 180 -515 122 -564 -251 -212 -197 186 -406 308 -465 272 -65 -40 19 -170 209 -326 410 -337 416 -548 14 -489 -233 34 -300 6 -300 -125 0 -95 77 -170 175 -169 460 2 491 -22 446 -331 -38 -257 21 -366 382 -699 244 -225 573 -421 769 -458 401 -75 1228 21 1365 158 53 53 116 340 141 638 44 535 50 544 525 766 577 271 820 228 1414 -248 238 -191 568 -420 733 -510 165 -89 570 -445 900 -790 758 -792 1114 -1031 1280 -858 94 99 77 151 -80 240 -320 184 -1261 1181 -1223 1296 19 58 107 150 195 206 125 78 265 16 627 -281 528 -433 651 -680 651 -1313 0 -434 -48 -516 -543 -922 -86 -71 -157 -172 -157 -225 0 -132 572 -122 654 11 134 216 881 -28 1595 -519 390 -268 760 -488 824 -488 75 0 95 -120 58 -350 -65 -397 49 -449 321 -148 101 112 209 168 241 125 31 -42 170 -129 307 -192 758 -348 1003 -435 1220 -435 132 0 283 -38 335 -84 190 -167 1715 -322 2670 -271 536 28 975 14 975 -31 0 -117 2204 -202 3050 -118 388 38 827 27 984 -26 258 -87 278 -127 219 -437 -55 -298 -20 -386 275 -681 l340 -340 -609 -53 c-335 -29 -1171 -75 -1859 -102 -1440 -56 -3800 -291 -5250 -523 -550 -88 -1112 -159 -1250 -156 -137 2 -803 -64 -1480 -146 -676 -82 -1306 -119 -1400 -82 -93 38 -417 83 -720 100 -1039 61 -1751 165 -2400 354 -357 104 -920 252 -1250 330 -588 139 -3140 855 -4675 1312 -533 158 -775 194 -775 112 0 -191 222 -358 475 -358 129 0 358 -64 508 -141 151 -78 441 -173 645 -212 205 -38 372 -109 372 -158 0 -49 105 -89 234 -89 303 0 1671 -350 2328 -596 281 -105 889 -262 1350 -349 461 -86 1041 -222 1288 -301 401 -128 1830 -342 2500 -374 138 -6 678 48 1200 121 523 73 1153 140 1400 150 248 9 653 48 900 87 248 39 585 87 750 106 165 19 750 105 1300 189 1787 276 2968 383 4750 430 963 25 1896 69 2075 96 403 62 430 308 50 446 -720 260 -930 505 -744 866 244 474 -289 745 -1354 687 -430 -24 -899 -72 -1043 -108 -144 -37 -289 -22 -322 31 -93 150 380 239 1638 308 1010 55 1197 40 1533 -127 359 -178 380 -213 320 -529 -53 -287 -18 -384 234 -636 365 -365 773 -387 1590 -87 315 116 674 234 798 262 124 28 225 114 225 190 0 174 60 182 -840 -112 -894 -292 -1229 -311 -1547 -88 -191 134 -220 219 -167 500 52 277 18 383 -187 588 -137 138 -351 250 -474 250 -390 0 -62 158 592 286 345 68 674 94 731 59 184 -114 1892 283 1892 440 0 109 -84 125 -375 69 -206 -39 -759 -104 -1229 -144 -469 -39 -916 -111 -992 -158 -77 -47 -413 -112 -747 -144 -427 -41 -607 -100 -607 -199 0 -105 -187 -148 -750 -171 -412 -18 -1169 -110 -1681 -206 -648 -121 -952 -141 -1000 -67 -71 111 -1016 104 -2219 -16 -649 -65 -1094 4 -2600 400 -357 94 -830 267 -1050 384 -220 117 -413 219 -429 227 -16 8 25 132 91 277 124 272 235 329 332 172 31 -50 283 -149 559 -220 339 -86 487 -171 453 -259 -36 -95 71 -130 398 -130 419 0 440 -12 326 -195 -148 -236 -55 -358 191 -253 230 99 628 93 1379 -19 824 -124 3181 18 4450 268 578 114 1410 247 1850 296 440 49 1003 138 1250 199 248 60 743 153 1100 206 1138 170 1300 215 1300 366 0 99 -63 126 -196 83 -108 -34 -413 -78 -678 -98 -264 -20 -750 -105 -1078 -190 -329 -84 -997 -202 -1485 -262 -487 -60 -1252 -181 -1700 -267 -447 -87 -1173 -195 -1613 -239 -1167 -118 -3547 -138 -3654 -31 -57 57 -13 254 112 506 348 703 58 1335 -948 2062 -105 76 -159 189 -119 253 108 175 297 138 437 -86 109 -175 216 -198 813 -175 770 29 1109 -152 1109 -593 0 -130 74 -266 164 -300 450 -173 622 1102 211 1552 l-225 247 250 -72 c138 -39 329 -96 425 -126 287 -91 198 135 -100 252 -505 200 -825 241 -967 123 -110 -91 -183 -53 -355 189 -151 212 -177 306 -85 310 1103 54 1340 6 2325 -467 658 -316 972 -403 2257 -627 1037 -180 3504 82 4220 449 149 77 407 139 575 139 259 0 305 38 305 250 0 138 -42 250 -92 250 -51 0 -443 -140 -872 -312 -939 -376 -1277 -422 -3086 -421 -1309 0 -1455 20 -2250 306 -467 169 -1052 400 -1300 514 -523 242 -2068 305 -2280 93 -194 -194 -367 45 -225 311 98 182 144 195 334 92 266 -143 857 -119 1052 43 78 64 290 104 471 89 431 -37 858 361 1098 1022 117 326 271 541 464 650 309 175 343 440 63 494 -115 22 -271 -132 -479 -469 -389 -632 -603 -708 -1046 -370 -186 142 -450 300 -586 352 -241 92 -245 107 -122 525 119 403 152 433 516 463 708 59 1050 617 840 1369 -160 571 -345 572 -488 5 -62 -244 -168 -479 -237 -522 -69 -43 -406 -107 -750 -143 -551 -57 -678 -114 -1073 -478 -246 -227 -505 -413 -575 -413 -70 1 -5 102 143 225 149 124 343 411 431 637 122 314 254 455 549 588 779 351 1049 958 675 1512 -117 172 -295 365 -397 429 -209 130 -452 43 -302 -107 149 -149 19 -582 -221 -740 -121 -79 -405 -137 -632 -128 -312 12 -500 -51 -775 -260 -199 -153 -386 -340 -416 -417 -97 -253 -232 -145 -232 186 0 249 93 412 395 696 444 418 598 914 401 1293 -332 642 -747 808 -644 258 73 -385 -99 -581 -666 -764 -644 -206 -1257 -686 -1489 -1163 -118 -245 -251 -445 -294 -445 -44 0 -154 114 -246 253 -214 327 -122 851 203 1156 316 297 303 520 -53 884 -300 307 -656 451 -967 391 -236 -46 -224 -225 17 -269 398 -71 374 -213 -128 -744 -646 -682 -744 -1117 -422 -1865 122 -283 305 -559 407 -614 259 -138 232 -292 -51 -292 -270 0 -763 351 -763 544 0 71 -181 254 -402 407 -232 161 -426 388 -460 539 -185 821 -1080 2777 -1720 3760 -718 1103 -1790 2524 -2132 2825 -459 405 -1286 1620 -1286 1891 0 193 -52 234 -300 234 -368 0 -370 -39 -25 -491 151 -197 427 -584 614 -859 188 -275 525 -706 751 -957 949 -1058 2269 -2918 2621 -3693 87 -192 215 -417 282 -500 147 -177 811 -1730 910 -2123 57 -230 29 -289 -178 -368 -135 -51 -477 -235 -758 -408 -532 -327 -717 -326 -717 5 0 229 -253 261 -336 43 -32 -83 -3 -319 64 -525 l122 -374 746 -50 746 -50 82 -395 c44 -217 148 -468 229 -558 208 -231 184 -297 -110 -297 -141 0 -343 -46 -449 -103 -227 -122 -494 -603 -494 -892 0 -385 -244 -194 -945 741 -558 744 -1370 2625 -1494 3464 -38 253 -160 701 -272 995 -117 307 -191 708 -175 940 16 223 -23 630 -86 905 -165 717 -257 2050 -140 2050 121 0 1233 -1432 1823 -2350 248 -385 711 -1229 1029 -1875 318 -646 619 -1175 669 -1175 157 0 102 202 -253 938 -189 391 -458 960 -599 1262 -363 780 -1208 2060 -1890 2864 -320 377 -653 821 -739 986 -86 165 -186 323 -222 350 -37 28 -162 208 -280 400 -117 193 -296 440 -399 550 -325 350 -1027 1338 -1027 1446 0 57 -110 104 -245 104 -244 0 -243 -4 149 -595z m1436 -1948 c207 -436 377 -1738 257 -1963 -53 -99 -48 -383 12 -705 56 -297 142 -831 190 -1189 48 -357 161 -852 251 -1100 89 -247 207 -697 262 -1000 97 -532 359 -1332 639 -1950 75 -165 267 -593 428 -950 333 -742 1161 -1637 1446 -1564 127 33 175 -14 174 -170 -6 -830 -387 -954 -1141 -372 -655 505 -1059 586 -1773 356 -661 -213 -785 -363 -785 -949 0 -254 -54 -515 -120 -581 -186 -186 -946 -142 -1383 81 -542 277 -738 600 -649 1071 l70 373 239 -397 c256 -424 564 -570 898 -424 323 141 476 474 538 1166 71 799 201 906 878 726 314 -83 559 -228 711 -421 161 -204 321 -295 519 -295 343 0 469 151 236 281 -96 54 -143 160 -109 247 33 86 -27 230 -135 328 -106 96 -193 216 -193 266 0 51 -127 280 -283 510 -402 594 -1092 2503 -1261 3487 -34 202 -147 630 -249 950 -114 357 -207 1025 -241 1731 -43 925 -34 1052 46 650 55 -275 148 -545 207 -600 75 -70 89 -25 49 150 -45 195 -102 2227 -74 2631 11 155 183 -30 346 -374z m-547 -132 c-6 -301 -24 -335 -93 -175 -119 278 -119 550 0 550 55 0 97 -169 93 -375z m-8 -4200 c140 -268 251 -1118 117 -905 -104 166 -309 1080 -243 1080 19 0 75 -79 126 -175z m8304 -300 c76 -135 40 -237 -160 -445 -368 -387 -440 -1169 -134 -1475 331 -331 232 -549 -266 -586 -402 -29 -428 -13 -633 390 -320 626 -215 1110 382 1762 512 559 659 623 811 354z m3011 -236 c0 -236 -108 -418 -450 -755 -401 -395 -450 -492 -450 -894 0 -437 -14 -457 -442 -647 -365 -161 -488 -175 -698 -79 -393 179 -498 737 -233 1236 150 283 328 408 1127 791 387 185 763 409 837 498 203 245 309 194 309 -150z m2300 -1066 c0 -286 -507 -823 -777 -823 -253 0 -489 -272 -656 -757 -110 -320 -208 -418 -526 -527 -366 -125 -425 -116 -916 137 -581 301 -639 397 -290 484 129 33 363 244 519 469 410 592 709 794 1173 794 465 0 1032 312 1131 624 65 206 72 207 205 26 75 -104 137 -296 137 -427z m-7965 -873 c206 -86 426 -279 514 -449 85 -164 289 -367 453 -452 397 -205 400 -563 8 -842 -551 -392 -1310 -181 -1310 365 0 514 -155 628 -854 628 -364 0 -646 44 -646 100 0 55 57 100 127 100 70 0 351 155 625 344 577 400 606 405 1083 206z m9097 -728 c-159 -324 -233 -376 -581 -404 -498 -41 -629 -148 -710 -581 -35 -188 -146 -386 -246 -440 -273 -146 -677 47 -756 359 -52 210 -4 325 236 565 254 255 389 305 865 327 610 27 909 207 1079 652 86 227 104 234 195 72 72 -130 50 -280 -82 -550z m-5192 -125 c116 -2 390 -136 610 -298 624 -460 1123 -644 1679 -619 378 17 465 -248 458 -1402 -7 -1006 -124 -1272 -687 -1552 -352 -175 -639 -361 -712 -461 -35 -47 -154 -37 -266 23 -153 82 -308 73 -623 -38 -369 -131 -443 -131 -631 1 -117 82 -426 149 -687 149 -390 0 -495 40 -592 225 -114 216 -431 543 -857 885 -177 142 -198 267 -179 1100 33 1514 107 1673 1057 2275 l440 279 390 -282 c215 -155 485 -283 600 -285z m-2990 -1297 c-34 -55 -115 -99 -181 -98 -71 0 -59 40 31 98 192 124 227 124 150 0z m219 -589 c33 -132 17 -357 -34 -500 -91 -253 -117 -260 -830 -234 -574 20 -776 -11 -920 -141 -102 -92 -185 -221 -185 -286 0 -65 -112 -250 -250 -409 l-250 -291 102 350 c56 193 93 530 83 750 -38 802 296 1021 1544 1007 630 -6 684 -24 740 -246z m6608 89 c304 0 533 -72 755 -238 175 -132 419 -270 543 -307 253 -77 293 -274 90 -443 -159 -131 -499 -151 -905 -53 -201 49 -397 13 -636 -116 -329 -177 -351 -178 -474 -9 -196 267 -267 807 -149 1120 81 212 134 251 223 162 64 -64 313 -116 553 -116z m-6625 -1294 c-37 -115 -238 -297 -448 -404 -210 -107 -466 -310 -569 -451 l-186 -256 -374 363 -373 363 212 298 c210 295 220 298 888 231 469 -47 697 -33 747 48 108 175 178 45 103 -192z m640 -731 c181 -417 181 -429 -15 -643 -117 -129 -311 -215 -473 -210 -407 11 -486 -78 -483 -547 2 -441 -158 -975 -294 -975 -42 0 -86 326 -97 725 -10 399 -33 880 -50 1069 -26 299 17 375 320 573 193 126 395 272 450 326 226 219 460 103 642 -318z m5230 -500 c167 -179 488 -415 715 -525 352 -170 418 -252 446 -550 l33 -350 -264 248 c-221 208 -384 255 -997 286 -676 34 -750 60 -951 332 -163 220 -252 269 -346 191 -69 -58 -156 -76 -192 -39 -97 97 -80 232 30 232 52 0 261 113 464 250 486 330 699 315 1062 -75z m-5067 -822 c-195 -368 -355 -735 -355 -814 0 -80 225 -363 500 -630 835 -809 611 -977 -342 -256 -326 246 -674 447 -773 447 -149 0 -169 56 -118 325 33 179 100 401 147 493 47 93 86 289 86 436 0 235 30 260 247 206 186 -47 328 10 575 231 180 161 342 279 358 262 17 -17 -129 -332 -325 -700z m1321 245 c248 -363 225 -612 -88 -955 -169 -186 -177 -264 -76 -769 63 -310 82 -645 43 -744 -58 -149 -95 -120 -217 170 -81 193 -358 564 -615 826 l-468 476 382 742 c340 661 406 734 598 664 118 -43 317 -227 441 -410z m671 -285 c-292 -737 20 -1334 758 -1452 540 -87 856 -305 988 -684 129 -369 67 -463 -196 -298 -107 66 -254 121 -327 121 -376 0 -1214 346 -1521 629 -399 365 -431 567 -151 950 194 266 239 918 74 1082 -39 40 -71 144 -69 231 2 111 78 74 256 -129 157 -178 228 -350 188 -450z m1108 482 c118 -131 177 -328 162 -547 -20 -304 19 -362 363 -538 781 -398 1143 -1247 764 -1788 -213 -304 -318 -279 -267 64 63 433 -445 962 -1069 1112 -738 177 -907 413 -838 1172 57 625 103 687 540 718 87 7 243 -80 345 -193z"/>
<path d="M10201 12675 c14 -294 342 -1145 543 -1408 482 -633 1564 -728 2476 -218 509 284 726 501 825 826 98 321 -107 282 -266 -50 -173 -362 -1017 -820 -1517 -823 -870 -5 -1422 339 -1605 998 -103 369 -279 700 -374 700 -46 0 -82 -11 -82 -25z"/>
<path d="M3345 24481 c164 -724 352 -753 222 -34 -55 305 -154 553 -219 553 -92 0 -93 -119 -3 -519z"/>
<path d="M16603 18956 c-728 -314 -758 -456 -84 -394 589 53 664 19 881 -405 88 -171 275 -331 450 -384 544 -165 3143 -177 4776 -22 868 82 1756 149 1975 149 231 0 399 48 399 114 0 123 -1610 67 -3622 -125 -1123 -108 -2998 -53 -3396 99 -127 49 -376 269 -553 490 -320 399 -320 400 -91 444 343 66 662 -87 662 -316 0 -535 810 -651 2800 -401 798 100 2069 213 2825 252 1115 57 1375 98 1375 218 0 118 -89 134 -449 80 -247 -37 -866 -84 -1375 -105 -509 -22 -1487 -109 -2173 -195 -1958 -244 -2603 -207 -2603 148 0 281 -475 598 -888 593 -199 -2 -608 -110 -909 -240z"/>
<path d="M0 17562 c0 -83 45 -178 100 -212 55 -34 100 6 100 88 0 83 -45 178 -100 212 -55 34 -100 -6 -100 -88z"/>
<path d="M0 10740 c1 -49 132 -427 292 -838 319 -819 314 -1008 -21 -697 -334 312 -322 55 22 -445 169 -245 307 -498 307 -561 0 -271 253 -4 282 298 43 440 -425 1920 -680 2151 -111 101 -202 142 -202 92z"/>
<path d="M24690 9956 c-94 -94 -2871 -557 -3390 -566 -1476 -23 -2887 93 -3598 296 -875 250 -903 253 -900 89 3 -226 1473 -623 2398 -647 468 -13 1210 -35 1650 -50 882 -31 1541 40 2420 258 319 79 760 174 980 209 616 101 750 157 750 312 0 132 -210 200 -310 99z"/>
<path d="M0 4558 c0 -78 213 -219 475 -315 261 -95 672 -256 913 -358 240 -102 488 -185 550 -186 61 0 225 -58 362 -128 138 -71 543 -211 900 -311 358 -101 820 -246 1027 -322 207 -76 508 -138 667 -138 159 0 552 -62 873 -139 321 -76 1033 -195 1583 -264 550 -69 1068 -135 1150 -146 226 -30 182 -133 -150 -352 -165 -109 -462 -198 -660 -198 -198 -1 -491 -44 -650 -95 -160 -52 -640 -117 -1068 -144 -557 -36 -878 -111 -1125 -264 -386 -238 -399 -275 -226 -654 105 -230 95 -285 -69 -405 -221 -162 -31 -188 255 -35 204 109 261 442 93 546 -346 214 223 484 1200 570 1849 163 2338 318 2987 947 l236 229 -260 99 c-143 54 -407 96 -587 92 -179 -5 -821 67 -1426 159 -605 91 -1257 190 -1450 218 -335 49 -553 98 -1450 327 -220 56 -850 265 -1400 465 -947 343 -2671 940 -2725 943 -14 0 -25 -63 -25 -141z"/>
<path d="M24352 4243 c-370 -193 -1384 -590 -1852 -725 -192 -55 -890 -105 -1550 -111 -2613 -21 -5142 -246 -5830 -517 -126 -49 -340 -90 -476 -90 -135 0 -321 -87 -412 -194 -180 -210 -594 -189 -982 49 -110 68 -268 109 -350 92 -1127 -236 -1928 -371 -2272 -384 -232 -9 -473 -68 -536 -131 -177 -177 0 -357 295 -300 145 29 421 80 613 114 193 35 463 103 600 151 411 144 1307 329 1357 279 26 -25 -210 -199 -524 -386 -583 -347 -817 -655 -1086 -1427 -168 -481 -183 -663 -55 -663 51 0 166 222 256 493 175 527 686 1307 857 1307 57 0 233 96 393 214 247 183 383 207 924 163 864 -69 1333 -335 2356 -1335 477 -466 925 -835 996 -820 179 39 -1429 1668 -2004 2031 -258 164 -470 322 -470 352 0 72 522 248 1150 387 636 142 2657 271 4650 297 1522 20 2900 219 2900 419 0 51 99 92 221 92 244 0 1478 605 1479 725 0 125 -332 83 -648 -82z"/>
<path d="M9500 2055 c0 -151 -194 -277 -1100 -713 -508 -245 -997 -355 -2221 -498 -599 -70 -931 -321 -833 -631 84 -266 404 -250 405 21 1 262 198 333 1149 411 709 58 999 141 1750 497 912 433 1323 758 1204 952 -97 157 -354 129 -354 -39z"/>
<path d="M23950 698 c-1060 -525 -1349 -590 -1550 -348 -157 189 -303 189 -664 1 -157 -83 -385 -150 -505 -150 -121 -1 -249 -50 -286 -109 -47 -76 314 -98 1219 -73 1254 35 1305 45 2061 416 566 278 775 432 775 573 0 106 -11 190 -25 189 -14 -2 -475 -227 -1025 -499z"/>
<path d="M13526 807 c-475 -344 -783 -738 -619 -793 61 -20 288 149 505 375 218 226 443 411 501 411 186 0 673 -398 738 -603 40 -126 151 -197 311 -197 245 0 246 5 86 275 -162 274 -846 825 -1024 825 -52 0 -276 -132 -498 -293z"/>
<path d="M24850 100 c-34 -55 -14 -100 44 -100 58 0 106 45 106 100 0 55 -20 100 -44 100 -24 0 -72 -45 -106 -100z"/>
</g>
</svg>