<svg xmlns="http://www.w3.org/2000/svg" version="1.0" width="250" height="250" viewBox="0 0 250.000000 250.000000" preserveAspectRatio="xMidYMid meet">
<metadata>
Created by potrace 1.10, written by Peter Selinger 2001-2011
</metadata>
<g transform="translate(0.000000,250.000000) scale(0.010000,-0.010000)" fill="#555555" stroke="none">
<path d="M375 24350 c-392 -672 -475 -1050 -231 -1050 79 0 169 39 198 88 95 153 606 -27 996 -350 l376 -312 -5 -920 c-3 -683 28 -911 119 -881 67 23 136 139 154 259 49 335 218 149 218 -240 0 -314 -26 -344 -293 -344 -337 0 -362 56 -456 1018 -41 422 -25 744 45 875 147 274 73 261 -259 -47 -153 -141 -340 -228 -422 -196 -87 33 -283 -74 -473 -257 l-324 -315 -10 -1705 c-11 -1779 43 -2373 218 -2373 67 0 81 267 39 775 -49 592 -29 843 85 1061 83 158 150 437 150 620 0 217 87 428 250 603 137 149 250 351 250 450 0 98 40 204 88 233 115 72 209 -420 144 -755 -62 -321 48 -398 580 -405 l410 -6 -60 -363 c-33 -200 -60 -464 -61 -588 -1 -124 -52 -225 -114 -225 -73 0 -93 123 -56 350 63 388 -93 486 -186 117 -97 -388 -10 -1120 130 -1092 95 19 125 -312 125 -1395 0 -969 -33 -1387 -102 -1318 -194 194 -323 1291 -332 2813 -4 839 -43 1525 -87 1525 -43 0 -84 -124 -91 -275 -6 -151 -22 -320 -34 -375 -13 -55 -34 -235 -46 -400 -19 -262 -33 -275 -108 -100 -47 110 -89 377 -93 593 -8 448 -203 1057 -338 1057 -50 0 -62 -169 -26 -375 35 -206 101 -707 145 -1112 56 -509 131 -766 241 -827 206 -115 211 -1260 7 -1465 -164 -164 -179 -490 -24 -542 64 -21 119 -311 130 -683 10 -355 64 -736 120 -846 56 -110 110 -627 121 -1150 10 -522 45 -1076 77 -1230 64 -308 303 -316 269 -10 -11 105 -86 730 -166 1390 -135 1102 -133 1216 19 1400 91 110 178 219 193 242 38 61 625 -611 625 -717 0 -176 -212 -479 -298 -426 -177 109 -189 -134 -56 -1089 142 -1015 206 -1203 313 -922 51 133 98 103 236 -156 95 -177 221 -337 280 -357 196 -65 292 789 190 1700 -124 1117 -301 1158 -214 50 60 -763 54 -805 -83 -558 -82 147 -181 702 -221 1233 -50 673 -114 982 -209 1018 -100 39 -120 161 -73 453 38 237 22 426 -39 464 -137 86 -205 1350 -76 1415 58 29 179 -380 288 -975 153 -838 219 -1025 363 -1025 96 0 228 65 294 144 66 79 184 119 262 89 96 -36 143 15 143 156 0 243 151 282 236 61 116 -303 364 -167 364 200 0 223 44 341 123 325 67 -14 138 76 157 200 40 264 -144 307 -211 50 -25 -96 -51 39 -57 300 -7 261 25 475 70 475 45 0 88 315 95 700 8 433 -28 700 -93 700 -58 0 -80 66 -49 147 31 81 18 170 -29 199 -125 77 -206 -201 -206 -704 0 -243 -40 -442 -89 -442 -49 0 -123 -169 -165 -375 l-76 -375 -92 350 c-50 193 -116 474 -146 625 -30 151 -96 275 -146 275 -159 0 -222 -319 -102 -512 118 -188 169 -1974 53 -1859 -69 70 -95 268 -178 1404 -31 431 -83 825 -115 877 -138 222 -245 -70 -253 -691 l-9 -669 -176 661 c-97 364 -207 709 -243 768 -36 59 -21 135 34 169 55 34 94 274 86 532 -26 808 131 1820 281 1820 174 0 171 -147 -20 -894 -185 -721 -161 -1256 56 -1256 123 0 144 135 117 750 -29 671 -11 763 175 876 185 112 208 102 208 -92 0 -537 227 -1484 356 -1484 103 0 120 119 74 516 -45 377 -31 496 54 444 64 -40 116 -187 116 -328 0 -218 36 -248 250 -208 164 32 250 3 250 -83 0 -72 64 -167 143 -211 197 -110 278 -3460 82 -3384 -129 49 -161 -271 -126 -1271 9 -263 -29 -475 -85 -475 -127 0 -193 242 -202 739 -12 651 -111 538 -130 -147 -35 -1288 87 -2563 231 -2419 61 61 56 343 -13 777 -76 473 -77 713 -4 786 72 72 104 -24 104 -316 0 -231 9 -454 20 -495 10 -41 49 -270 85 -509 53 -347 34 -445 -95 -492 -88 -33 -192 -107 -231 -166 -199 -299 -289 209 -320 1801 -30 1525 -50 1694 -210 1726 -166 33 -172 -45 -99 -1150 43 -652 85 -1514 92 -1916 l13 -731 423 -189 c297 -133 422 -250 422 -394 0 -134 65 -205 188 -205 268 0 417 685 311 1425 -45 316 -48 699 -6 850 61 221 100 102 202 -602 69 -482 133 -1067 141 -1300 8 -235 57 -401 110 -373 53 28 87 163 76 300 -190 2280 -304 3100 -433 3100 -49 0 -89 135 -89 301 0 276 17 290 200 176 110 -69 200 -230 200 -358 0 -128 54 -330 120 -451 67 -120 125 -398 129 -618 40 -2049 56 -2259 166 -2191 80 50 99 430 63 1281 -28 665 -17 1075 24 910 41 -165 80 -786 86 -1381 8 -724 47 -1059 117 -1016 132 82 110 1807 -32 2521 -80 402 -134 500 -229 421 -96 -80 -151 16 -235 405 -176 821 -138 1639 98 2091 154 296 181 444 106 584 -55 103 -94 657 -88 1231 11 967 30 1061 254 1274 231 220 235 239 69 422 -100 110 -151 277 -120 395 29 111 18 225 -25 251 -107 66 -182 -356 -310 -1730 -60 -639 -130 -1198 -158 -1242 -72 -117 -232 11 -189 152 104 342 147 1405 53 1311 -56 -56 -113 -482 -126 -946 -21 -774 -8 -840 163 -811 176 30 182 -28 116 -1000 -50 -720 -117 -1077 -224 -1182 -137 -134 -147 -116 -93 175 33 179 19 325 -31 325 -137 0 -238 -846 -174 -1460 42 -404 23 -540 -74 -540 -147 0 -253 515 -255 1238 -1 364 78 626 311 1033 273 476 297 579 195 803 -64 142 -137 667 -160 1167 -56 1170 -140 1778 -268 1933 -56 68 -74 232 -41 365 81 323 462 246 462 -92 0 -329 101 -547 252 -547 204 0 233 226 63 487 -142 218 -139 248 37 377 137 100 192 265 194 588 4 462 -168 573 -230 148 -43 -294 -312 -714 -416 -650 -42 26 -108 212 -146 412 -68 366 -193 360 -283 -12 -26 -110 -53 -22 -59 195 -7 241 -48 358 -103 300 -129 -134 -158 -537 -68 -924 52 -222 35 -380 -52 -485 -116 -139 -137 -136 -202 29 -40 102 -76 354 -80 560 -7 378 -207 547 -207 175 0 -111 -67 -200 -150 -200 -86 0 -150 90 -150 210 0 116 -167 358 -374 542 -207 185 -335 370 -286 416 48 45 107 26 132 -43 45 -127 328 -179 328 -60 0 194 -448 1250 -575 1356 -131 109 -141 49 -79 -487 85 -732 -59 -906 -252 -306 -75 232 -175 449 -222 483 -135 94 -217 889 -92 889 59 0 121 -120 138 -267 18 -147 83 -284 145 -305 171 -56 251 260 125 495 -62 115 -136 584 -164 1043 l-52 834 -316 0 c-287 0 -332 -44 -487 -475 -93 -261 -170 -621 -169 -800 0 -420 -163 -420 -255 -1 l-72 325 -148 -225 c-82 -123 -211 -224 -287 -224 -202 0 -168 334 62 627 110 140 200 301 200 358 0 57 47 132 104 167 67 42 81 -26 39 -194 -93 -371 115 -323 247 57 141 405 147 386 -115 381 -169 -3 -318 -163 -600 -646z m525 -2806 c0 -145 -43 -229 -100 -194 -55 34 -100 149 -100 256 0 107 45 194 100 194 55 0 100 -115 100 -256z m-403 -544 c0 -133 -11 -133 -97 0 -53 83 -97 218 -97 300 0 133 11 133 97 0 53 -82 97 -217 97 -300z m3474 -4025 c-24 -124 -44 -22 -44 225 0 248 20 349 44 225 23 -124 23 -326 0 -450z m-1410 -3333 c-34 -87 -62 -256 -63 -375 -1 -177 -19 -189 -98 -67 -156 242 -120 600 61 600 105 0 140 -54 100 -158z m2191 -1692 c43 -524 32 -766 -32 -700 -54 55 -119 451 -144 879 -58 1014 89 863 176 -179z m-1691 92 c-85 -220 -213 -90 -304 308 l-70 300 221 -217 c143 -140 196 -278 153 -391z m1239 -698 c0 -24 -45 -44 -100 -44 -55 0 -100 48 -100 106 0 58 45 78 100 44 55 -34 100 -82 100 -106z"/>
<path d="M2454 24577 c60 -1102 417 -2268 650 -2124 53 32 96 -59 96 -204 0 -311 164 -649 314 -649 68 0 81 102 37 275 -173 671 -153 725 256 725 209 0 495 -44 636 -98 221 -84 257 -157 257 -530 0 -437 215 -891 332 -702 34 55 21 456 -28 890 -55 490 -53 803 5 824 52 19 161 100 241 181 130 129 124 179 -43 416 -311 440 -345 686 -104 749 141 37 226 0 260 -113 29 -92 119 -321 201 -509 138 -317 134 -361 -53 -615 -289 -390 -363 -752 -170 -826 112 -43 139 -141 97 -351 -66 -331 100 -716 308 -716 94 0 162 -179 208 -550 38 -302 115 -550 171 -550 99 0 46 1111 -89 1874 -71 398 -231 330 -249 -105 -7 -175 -50 -29 -96 326 -46 356 -74 655 -62 667 11 11 145 -3 296 -32 251 -49 276 -93 283 -517 4 -254 26 -553 49 -663 161 -768 -2 -2950 -220 -2950 -170 0 -196 -1252 -29 -1355 132 -81 87 -2145 -46 -2145 -48 0 -66 225 -39 500 26 275 9 500 -38 500 -47 0 -78 -484 -70 -1075 8 -591 34 -951 57 -800 23 151 83 275 135 275 98 0 124 -130 139 -700 5 -193 47 -676 94 -1075 81 -684 179 -884 294 -600 28 69 54 24 58 -100 4 -124 50 -225 101 -225 89 0 87 453 -2 542 -23 23 -8 394 33 825 99 1043 98 1012 16 1581 -95 665 -250 309 -168 -386 45 -387 29 -479 -80 -443 -75 25 -167 155 -204 288 -87 309 -103 1276 -27 1560 74 274 599 513 765 347 181 -181 274 -134 274 136 0 197 51 250 239 250 132 0 268 -75 304 -167 111 -289 263 -4 171 321 -89 317 -47 578 81 499 43 -26 107 197 142 498 35 300 155 706 266 904 208 371 189 545 -59 545 -90 0 -144 -102 -145 -275 0 -408 -196 -1039 -301 -973 -51 31 -114 -47 -141 -173 -27 -126 -68 -319 -92 -429 -36 -173 -43 -169 -53 31 -17 334 -212 162 -212 -187 0 -206 -49 -294 -164 -294 -142 0 -157 89 -104 650 55 588 43 650 -125 650 -102 0 -213 -71 -246 -158 -105 -273 -67 -996 59 -1122 152 -152 -38 -373 -251 -291 -173 66 -309 862 -218 1276 44 200 26 295 -57 295 -146 0 -55 856 113 1059 73 88 75 188 6 318 -73 136 -62 266 40 463 107 206 120 389 52 742 -154 795 -201 1518 -100 1518 52 0 95 -129 95 -288 0 -158 68 -344 150 -412 102 -85 150 -312 150 -712 0 -435 36 -588 139 -588 112 0 129 169 86 875 -30 481 -92 890 -139 908 -110 43 -112 389 -4 456 45 28 152 -31 237 -130 119 -139 167 -530 207 -1701 29 -836 80 -1548 115 -1582 163 -163 222 196 151 924 -43 440 -81 1099 -85 1463 -6 599 17 680 239 825 136 89 271 162 300 162 120 0 43 -296 -97 -375 -272 -152 -242 -1611 36 -1703 52 -18 72 -204 43 -414 -54 -406 119 -647 286 -396 110 167 38 612 -165 1020 -82 164 -143 483 -135 708 8 243 31 316 57 179 25 -127 106 -255 182 -284 76 -29 233 -215 350 -413 171 -290 191 -405 105 -595 -60 -130 -108 -328 -108 -440 0 -269 240 -187 282 96 20 137 103 217 225 217 250 0 247 -246 -7 -500 -211 -211 -269 -500 -100 -500 132 0 129 -431 -4 -564 -151 -151 -81 -1758 78 -1811 95 -31 110 103 63 553 -42 396 -25 618 50 664 67 42 113 367 113 806 0 823 57 1052 261 1052 222 0 213 447 -15 702 -82 92 -103 206 -52 288 73 119 108 510 129 1435 6 294 47 322 264 185 99 -62 119 -196 71 -473 -118 -685 -112 -967 21 -1012 94 -32 112 26 67 207 -46 180 -4 310 145 459 240 240 255 338 93 597 -135 217 -51 512 147 512 285 0 389 -488 259 -1218 -117 -655 -216 -825 -324 -557 -28 69 -54 -2 -58 -157 -4 -155 -69 -343 -143 -417 -93 -93 -137 -425 -141 -1068 -4 -723 14 -854 82 -583 48 193 65 413 38 489 -60 171 45 530 138 472 37 -23 41 -618 8 -1323 -34 -705 -26 -1396 16 -1535 l77 -253 8 275 c5 151 54 275 109 275 57 0 100 -296 100 -688 0 -594 -26 -696 -191 -739 -225 -58 -306 154 -308 808 0 268 -40 407 -103 367 -62 -37 -78 -251 -41 -531 34 -257 9 -912 -55 -1454 -85 -707 -88 -1017 -10 -1095 60 -60 108 -477 108 -942 0 -790 -10 -828 -191 -731 -262 141 -378 1375 -225 2403 175 1174 251 2160 162 2076 -139 -130 -376 -1962 -411 -3174 -34 -1174 -233 -2569 -350 -2452 -35 35 -41 242 -11 458 34 258 13 394 -61 394 -62 0 -113 -90 -113 -200 0 -110 -45 -200 -100 -200 -55 0 -100 68 -100 150 0 83 -49 150 -110 150 -76 0 -92 -251 -52 -806 53 -729 37 -836 -164 -1108 l-223 -302 -66 233 c-116 415 -96 581 65 519 125 -48 150 65 150 672 0 604 36 768 210 953 137 145 181 271 126 357 -178 277 -219 1518 -90 2682 101 913 130 3596 38 3540 -117 -72 -206 -839 -203 -1753 2 -687 -34 -926 -158 -1050 -149 -149 -168 -147 -235 26 -41 103 -77 136 -81 74 -4 -61 -35 -253 -70 -426 -50 -250 -33 -303 82 -259 122 47 140 -86 108 -823 -41 -982 -105 -1385 -202 -1287 -117 117 -135 556 -37 910 53 194 57 370 9 400 -48 30 -137 -139 -199 -374 -61 -235 -153 -566 -204 -735 -52 -169 -94 -385 -94 -481 0 -96 -43 -147 -97 -114 -105 65 -29 841 98 1002 44 55 63 415 44 800 -20 385 2 869 49 1075 47 206 47 375 2 375 -46 0 -109 -214 -140 -475 -31 -261 -101 -725 -156 -1031 -133 -740 -130 -1994 5 -1994 65 0 93 -253 75 -675 -27 -613 -51 -678 -255 -707 -198 -28 -225 12 -225 332 0 350 -209 707 -338 579 -131 -131 -60 -529 94 -529 219 0 163 -849 -56 -853 -391 -7 -551 -347 -163 -347 216 0 243 -54 305 -601 99 -873 -97 -1086 -403 -440 -143 301 -148 374 -33 445 179 110 51 239 -157 160 -121 -47 -156 -189 -144 -588 8 -289 -15 -1122 -52 -1851 -66 -1285 -32 -1464 229 -1203 96 96 119 -31 108 -600 -9 -397 -47 -722 -86 -722 -40 0 -117 259 -173 575 l-102 575 -14 -919 c-15 -916 -134 -1267 -260 -766 -36 145 -61 674 -54 1175 6 500 6 933 -2 960 -7 28 -28 664 -46 1414 -17 751 -67 1561 -109 1800 l-78 436 -74 -342 c-41 -189 -32 -452 18 -585 51 -133 74 -721 51 -1307 -22 -586 -3 -1830 42 -2764 56 -1150 49 -1739 -21 -1824 -216 -260 -282 18 -282 1178 0 729 -39 1194 -100 1194 -62 0 -104 -599 -112 -1575 -6 -866 -34 -1486 -61 -1377 -28 108 -109 243 -182 300 -88 69 -125 320 -113 777 10 371 -10 675 -44 675 -83 0 -186 -647 -187 -1175 -1 -234 -46 -425 -101 -425 -55 0 -100 -125 -100 -278 0 -153 -89 -354 -198 -447 -113 -96 -173 -235 -139 -323 89 -232 -188 -1058 -391 -1167 -157 -84 -171 -62 -113 185 35 154 124 375 196 492 87 139 98 245 33 310 -55 55 -126 352 -157 661 -90 869 -228 565 -218 -479 6 -515 -22 -988 -61 -1051 -117 -190 37 -603 225 -603 95 1 401 169 680 375 775 573 943 658 943 476 0 -83 -69 -151 -153 -151 -84 0 -179 -67 -211 -150 -31 -82 -120 -150 -197 -150 -76 0 -139 -63 -139 -141 0 -88 -70 -122 -189 -91 -104 27 -219 1 -256 -59 -47 -77 381 -109 1443 -109 1492 0 1508 2 1399 206 -60 113 -88 259 -61 325 30 73 51 61 56 -34 10 -191 358 -497 566 -497 113 0 137 58 88 213 -45 143 -31 190 43 144 61 -38 111 -134 111 -213 0 -114 177 -144 850 -144 740 0 851 23 857 175 38 989 274 2689 426 3075 181 457 214 1312 67 1700 -80 212 -144 251 -325 198 -124 -36 -315 -168 -425 -295 -110 -126 -357 -308 -550 -405 -192 -97 -654 -444 -1025 -772 -371 -328 -675 -543 -675 -478 0 209 1042 1145 1504 1353 473 212 992 723 1129 1113 46 130 126 236 179 236 57 0 54 -77 -8 -193 -165 -308 -131 -334 346 -262 377 56 450 41 450 -96 0 -109 -57 -144 -175 -107 -155 49 -176 -27 -183 -668 -5 -398 -105 -1151 -223 -1674 -117 -522 -204 -1198 -191 -1500 12 -302 -10 -741 -50 -975 l-72 -425 947 0 947 0 0 394 c0 217 44 422 99 455 63 39 76 -104 36 -394 l-62 -455 313 0 314 0 0 1334 c0 1326 2 1335 250 1448 309 140 362 567 58 471 -105 -34 -220 -14 -255 43 -36 57 -18 104 39 104 136 0 393 515 336 675 -25 69 27 125 114 125 207 0 203 165 -7 282 -125 70 -151 180 -108 446 61 374 -137 1228 -257 1109 -132 -132 -64 913 71 1091 200 263 289 -40 94 -318 -82 -118 -130 -292 -107 -387 30 -124 89 -68 208 202 172 387 383 520 296 186 -27 -104 2 -220 64 -259 76 -47 81 -109 15 -189 -58 -70 -64 -178 -13 -260 69 -112 117 -115 235 -17 130 108 130 158 -4 426 -95 190 -128 420 -88 617 49 248 37 289 -59 193 -188 -188 -301 -144 -186 71 57 107 104 352 104 545 0 192 36 373 81 400 44 27 61 214 38 414 -65 553 -228 272 -240 -412 -12 -649 -55 -840 -190 -840 -126 0 -111 655 26 1110 106 354 96 399 -125 584 -258 214 -639 269 -740 106 -104 -168 -518 -112 -918 124 -296 174 -339 232 -195 259 101 20 233 -13 294 -74 179 -179 488 -134 450 66 -33 167 -81 187 -519 213 -160 10 -180 71 -136 403 45 338 24 399 -160 447 -163 43 -185 83 -95 173 66 66 94 241 63 394 -67 336 116 458 766 509 395 32 450 12 450 -164 0 -170 -67 -200 -448 -200 -333 0 -455 -42 -480 -162 -38 -192 254 -332 416 -199 61 52 247 109 412 127 215 24 292 82 272 201 -15 93 18 196 74 231 132 81 -173 405 -466 495 -139 42 -317 5 -479 -101 -292 -192 -447 -117 -287 138 173 274 1025 258 1308 -25 192 -192 210 -270 127 -560 -64 -220 -63 -371 2 -436 65 -65 99 -43 99 64 0 90 45 281 99 425 105 275 106 275 559 -135 83 -75 179 -109 214 -75 82 83 437 -243 374 -344 -26 -43 -209 -59 -406 -34 -260 32 -346 9 -314 -83 25 -70 161 -115 302 -99 318 34 410 -196 272 -676 -66 -232 -64 -378 5 -447 146 -146 311 132 258 435 -22 132 20 379 94 550 81 185 137 240 139 135 6 -261 195 -211 306 82 131 344 125 375 -63 303 -118 -46 -145 -20 -100 97 33 88 61 179 61 203 0 25 107 -26 238 -111 222 -146 235 -203 186 -828 -29 -369 -109 -754 -178 -854 -123 -178 -130 -178 -233 0 -59 100 -111 161 -115 133 -5 -27 -26 -400 -47 -827 -43 -870 -121 -1204 -258 -1119 -51 32 -96 -69 -99 -223 -3 -155 -29 -573 -59 -931 -57 -691 21 -732 231 -123 78 229 91 386 31 406 -159 55 -110 500 66 598 205 115 454 797 309 845 -113 38 -10 774 108 774 39 0 85 -405 103 -900 26 -706 2 -912 -109 -954 -108 -42 -125 -163 -70 -522 43 -286 29 -534 -37 -639 -78 -126 -73 -237 21 -413 182 -340 17 -2454 -214 -2747 -66 -84 -62 -125 14 -125 62 0 112 -159 112 -356 0 -198 -42 -330 -95 -297 -57 35 -87 -409 -75 -1144 20 -1175 25 -1203 245 -1203 147 0 226 61 227 175 1 201 229 890 326 987 126 126 534 -244 717 -651 204 -453 389 -520 558 -205 83 154 80 244 -10 353 -99 119 -92 134 36 85 108 -41 208 37 317 248 182 352 271 376 507 140 132 -131 154 -271 104 -650 -57 -433 -44 -482 131 -482 108 0 218 56 246 125 40 100 52 100 58 0 17 -266 285 -109 342 200 32 179 130 708 217 1175 87 468 183 1120 214 1450 31 330 94 758 141 950 82 345 83 344 68 -100 -13 -374 13 -445 155 -421 113 20 171 -37 171 -166 0 -303 -107 -513 -261 -513 -76 0 -139 -90 -139 -200 0 -267 251 -254 444 22 212 303 198 31 -17 -334 -95 -160 -225 -272 -289 -247 -123 47 -495 -1018 -565 -1616 -35 -296 -14 -325 232 -325 238 0 285 55 385 450 62 248 140 450 174 450 65 0 -5 -435 -118 -725 -61 -159 17 -175 836 -175 858 0 906 11 947 225 l44 225 13 -225 c14 -219 42 -225 1158 -225 629 0 1165 34 1191 76 26 42 59 324 73 625 18 406 -9 541 -104 520 -91 -21 -112 52 -71 250 32 153 137 795 234 1425 149 970 187 1093 248 800 39 -190 33 -660 -15 -1044 -89 -714 -70 -931 48 -558 37 115 104 186 150 157 112 -69 14 -417 -159 -560 -97 -81 -139 -352 -139 -903 l0 -788 1200 0 1200 0 0 5960 0 5959 -222 316 c-123 173 -438 516 -700 762 -460 430 -589 722 -378 853 57 35 101 -58 103 -219 3 -240 18 -255 105 -105 57 96 80 212 52 257 -27 45 -5 393 51 774 112 776 144 2222 50 2315 -34 34 -61 -227 -62 -580 -1 -745 -93 -1392 -198 -1392 -40 0 -101 371 -135 825 -34 454 -92 955 -129 1115 -44 195 -31 268 42 223 59 -36 176 32 260 152 l153 218 106 -277 c92 -243 126 -261 269 -142 151 125 158 -28 91 -1989 -51 -1493 -41 -2125 35 -2125 129 0 145 219 187 2571 14 791 60 1158 155 1247 113 106 113 148 0 261 -80 80 -135 355 -135 672 0 296 -45 565 -100 599 -97 60 -144 -205 -103 -586 12 -115 -31 -169 -114 -142 -84 28 -151 275 -183 678 -31 391 -99 651 -179 677 -100 33 -116 -111 -74 -642 52 -653 47 -671 -92 -385 -174 357 -201 1164 -44 1321 80 80 77 348 -14 995 -178 1268 -177 1284 53 1284 182 0 208 -97 290 -1075 88 -1062 141 -1179 446 -986 144 92 72 711 -83 711 -168 0 -195 319 -46 546 138 212 138 290 2 770 -179 628 -404 2992 -317 3336 55 222 33 236 -341 221 -375 -14 -402 -36 -409 -319 l-7 -304 -144 350 -143 350 52 -425 c46 -376 29 -425 -149 -425 -167 0 -201 66 -201 389 l0 390 -833 11 -834 12 47 -565 c34 -406 15 -546 -66 -495 -63 38 -114 154 -114 258 0 104 -45 216 -100 250 -55 34 -100 172 -100 306 0 291 -262 331 -461 69 -126 -167 -133 -167 -136 0 -2 119 -83 175 -253 175 -243 0 -250 -21 -260 -725 -11 -808 -162 -598 -180 250 l-10 475 -411 0 -412 0 40 -700 c22 -385 4 -700 -39 -700 -75 0 -130 712 -89 1177 18 217 -11 226 -675 212 -602 -12 -708 -42 -798 -226 l-102 -213 -7 225 c-6 194 -61 225 -395 225 -466 0 -539 -160 -390 -859 97 -454 36 -858 -226 -1491 -127 -309 -151 287 -55 1400 49 564 39 651 -51 450 -306 -682 -299 -670 -252 -425 57 295 -104 390 -191 114 -81 -253 -76 -1329 7 -1629 53 -190 40 -186 -139 36 -127 158 -202 410 -208 700 -5 250 -15 580 -22 734 -7 154 46 391 118 525 178 333 27 450 -198 152 -212 -282 -315 -989 -233 -1603 38 -284 23 -413 -44 -371 -99 61 -173 487 -294 1696 -37 366 -100 565 -171 540 -139 -48 -97 -1819 49 -2091 126 -236 38 -372 -201 -310 -152 40 -201 173 -245 666 -31 339 -41 875 -24 1191 23 427 -3 575 -102 575 -184 0 -370 -380 -285 -583 102 -241 172 -1297 104 -1568 -44 -172 -109 -217 -261 -177 -170 44 -192 106 -139 391 39 210 17 395 -59 487 -152 183 -281 110 -417 -235 -98 -247 -110 -252 -180 -65 -42 110 -54 256 -28 325 25 69 1 125 -54 125 -157 0 -195 -194 -201 -1035 -3 -431 -31 -810 -63 -841 -127 -127 -184 110 -233 972 -42 732 -25 904 88 904 208 0 440 406 287 501 -89 55 -92 126 -9 280 134 251 141 419 18 419 -50 0 -170 -214 -267 -475 -96 -261 -235 -546 -308 -633 -73 -87 -133 -314 -133 -505 0 -360 -144 -587 -372 -587 -91 0 -112 78 -69 250 47 189 23 250 -98 250 -177 0 -187 41 -98 375 41 154 136 225 299 225 131 0 241 34 245 75 4 41 19 233 32 425 14 193 58 422 98 511 63 138 -23 163 -629 178 -679 18 -705 9 -768 -241 -37 -152 -117 -240 -190 -212 -69 27 -181 -4 -248 -69 -97 -92 -108 -47 -55 208 53 248 35 325 -75 325 -182 0 -459 -713 -539 -1386 -63 -534 -112 -595 -313 -394 -92 92 -150 78 -254 -66 -99 -135 -156 -152 -211 -62 -41 66 -59 130 -40 140 481 252 625 466 318 471 -170 3 -171 12 -14 132 206 156 619 1165 477 1165 -55 0 -152 -112 -214 -250 -150 -329 -281 -318 -285 25 -4 258 -15 251 -197 -125 -106 -220 -195 -479 -197 -575 -1 -96 -54 -175 -117 -175 -79 0 -94 168 -49 550 51 435 36 550 -75 550 -144 0 -202 -221 -317 -1215 -95 -819 123 -1087 436 -535 89 158 114 166 116 38 5 -243 -386 -688 -604 -688 -138 0 -193 70 -193 244 0 134 -46 272 -101 307 -62 38 -67 124 -14 219 48 86 65 352 38 591 -33 297 1 511 109 676 200 305 137 363 -399 363 -447 0 -599 -197 -286 -373 198 -110 95 -752 -144 -902 -161 -100 -182 -51 -229 538 -28 356 -81 677 -117 713 -35 36 -207 11 -382 -55 -209 -79 -350 -86 -416 -20 -125 125 -390 131 -313 6 31 -51 12 -121 -44 -156 -56 -35 -102 7 -102 93 0 186 -262 210 -334 31 -40 -100 -52 -100 -58 0 -12 182 -476 153 -548 -34 -77 -201 20 -365 163 -277 74 46 87 -38 41 -271 -37 -185 -134 -374 -216 -420 -90 -50 -148 -231 -148 -461 0 -439 -77 -555 -266 -399 -174 145 -169 368 17 723 208 399 198 1151 -15 1233 -98 38 -214 -4 -286 -103 -146 -199 -250 -214 -250 -36 0 75 -139 138 -335 152 -334 22 -335 22 -311 -405z m8546 -12 c0 -184 -51 -482 -114 -662 -94 -270 -130 -299 -205 -165 -50 89 -152 162 -227 162 -204 0 -70 372 155 431 126 33 191 139 191 310 0 142 45 259 100 259 55 0 100 -151 100 -335z m10880 -665 c-5 -640 -6 -643 -85 -200 -112 631 -109 1316 5 1050 47 -110 83 -492 80 -850z m1994 -125 c-3 -509 25 -1020 62 -1137 61 -185 37 -205 -193 -161 -243 46 -258 79 -207 461 31 227 85 716 121 1087 37 371 102 675 145 675 43 0 76 -416 72 -925z m-20456 603 c-71 -71 -118 -77 -118 -15 0 134 118 252 185 185 28 -28 -2 -105 -67 -170z m2645 -170 c113 -422 70 -1008 -74 -1008 -49 0 -89 146 -90 325 -1 179 -29 494 -63 700 -82 496 94 483 227 -17z m10643 -442 c-79 -79 -97 -12 -64 237 70 543 87 571 131 209 23 -185 -7 -386 -67 -446z m4878 59 l-17 -675 -60 550 c-56 516 -37 800 54 800 21 0 32 -304 23 -675z m1010 300 c-6 -345 -14 -356 -104 -132 -53 134 -75 303 -47 375 93 241 157 137 151 -243z m-5118 -100 c-50 -365 -450 -1112 -601 -1121 -148 -8 -71 255 123 421 109 93 249 373 312 622 138 549 235 595 166 78z m532 -100 c5 -261 29 -603 55 -759 30 -181 9 -260 -58 -219 -58 36 -105 223 -105 415 0 193 -45 435 -100 537 -105 198 -39 501 111 501 49 0 93 -214 97 -475z m1063 -402 c-22 -150 -41 -3 -40 327 1 330 19 453 41 273 23 -180 22 -450 -1 -600z m1331 852 c62 -955 203 -2274 259 -2418 73 -190 71 -190 -184 0 -206 154 -266 295 -295 693 -51 713 26 1750 130 1750 48 0 89 -11 90 -25z m-10347 -1553 c-30 -31 -79 -31 -108 -2 -89 89 -78 928 16 1187 67 189 94 90 117 -444 16 -378 5 -711 -25 -741z m-455 989 c0 -98 -29 -206 -64 -242 -122 -122 -209 28 -161 277 53 276 225 249 225 -35z m-6319 -228 c-40 -543 -217 -591 -364 -99 -155 517 -156 516 139 516 238 0 253 -28 225 -417z m19881 336 c-28 -45 -3 -268 55 -497 58 -229 75 -542 36 -694 -67 -267 -75 -270 -211 -84 -179 244 -191 1219 -17 1290 184 74 191 73 137 -15z m-18497 -394 c-27 -96 -78 -276 -114 -400 -66 -232 -292 -302 -401 -125 -34 55 -20 100 32 100 52 0 150 135 218 300 132 319 347 420 265 125z m2126 -210 c-148 -51 -223 52 -139 189 54 87 95 82 157 -18 50 -80 42 -151 -18 -171z m11692 -565 c-2 -394 -20 -447 -83 -250 -114 356 -114 1215 0 950 47 -110 85 -425 83 -700z m-7872 421 c-81 -81 -111 -70 -111 42 0 199 134 334 184 185 21 -64 -12 -166 -73 -227z m9189 -127 c0 -189 -45 -344 -100 -344 -55 0 -100 183 -100 406 0 245 40 381 100 344 55 -34 100 -217 100 -406z m2707 352 c158 -84 193 -212 193 -703 0 -440 40 -615 150 -657 83 -31 150 -143 150 -247 0 -212 -160 -257 -225 -64 -32 95 -86 89 -226 -25 -173 -142 -178 -131 -98 200 127 523 89 1074 -93 1353 -178 270 -146 301 149 143z m-1430 -621 c-57 -591 -18 -775 166 -775 69 0 182 -191 252 -425 70 -234 174 -454 231 -490 144 -91 13 -385 -173 -385 -156 0 -201 163 -162 593 19 205 -1 223 -129 117 -128 -106 -165 -68 -248 258 -54 210 -129 663 -166 1007 -60 553 -48 625 106 625 150 0 167 -74 123 -525z m-14077 114 c0 -49 -67 -89 -150 -89 -82 0 -150 66 -150 147 0 89 59 124 150 89 83 -31 150 -98 150 -147z m2342 -646 c-34 -184 -15 -348 47 -386 126 -78 35 -942 -120 -1138 -190 -240 -284 143 -302 1230 l-17 1039 226 -212 c178 -167 213 -281 166 -533z m10058 351 c0 -107 -45 -194 -100 -194 -55 0 -100 115 -100 256 0 145 43 229 100 194 55 -34 100 -149 100 -256z m-2100 -119 c0 -235 67 -367 240 -475 132 -82 576 -443 987 -801 939 -819 1529 -1120 2225 -1136 406 -10 601 40 835 212 168 124 331 225 363 225 137 0 988 -2276 1103 -2950 37 -220 126 -625 199 -900 176 -673 273 -2471 151 -2793 -180 -472 -253 -264 -272 775 -20 1052 -276 2532 -627 3618 -106 330 -242 791 -302 1025 -92 355 -150 425 -356 425 -210 0 -246 -47 -246 -319 0 -301 -8 -308 -144 -125 -120 162 -176 174 -341 74 -164 -100 -208 -92 -262 49 -58 151 -85 144 -236 -57 l-171 -226 -498 510 c-274 280 -858 761 -1298 1068 -440 307 -867 638 -950 736 -82 98 -285 192 -450 209 -258 27 -304 -5 -330 -229 -35 -302 212 -502 864 -697 335 -101 567 -296 1143 -968 952 -1109 1297 -1673 1374 -2250 35 -261 42 -475 17 -475 -86 0 -312 349 -315 487 -5 229 -523 1313 -627 1313 -54 0 -65 -79 -25 -175 176 -428 144 -533 -44 -139 -114 240 -207 494 -207 564 0 138 -293 291 -383 200 -75 -75 170 -743 385 -1050 97 -137 224 -430 283 -650 l107 -400 -296 327 c-163 179 -296 396 -296 481 0 84 -183 537 -406 1005 -223 468 -384 904 -358 969 35 86 50 84 56 -7 9 -139 208 -176 208 -38 0 129 -769 613 -973 613 -308 -1 -1171 -912 -1363 -1439 -151 -415 -166 -49 -19 457 118 404 232 584 456 717 283 167 399 365 214 365 -210 0 -915 -617 -915 -801 0 -221 -103 -256 -269 -90 -126 126 -441 -6 -806 -339 -282 -257 -294 -84 -18 267 114 144 307 263 428 263 261 0 691 277 617 397 -75 121 -763 -98 -1016 -322 -256 -226 -388 -94 -291 290 46 184 28 242 -66 211 -81 -28 -129 -220 -129 -518 -1 -494 -179 -717 -480 -602 -147 57 -122 444 28 444 42 0 102 169 134 375 31 206 88 488 126 625 48 175 -24 115 -240 -200 -180 -262 -272 -486 -220 -538 52 -52 27 -151 -60 -238 -112 -112 -136 -296 -97 -735 46 -518 28 -598 -153 -695 -113 -61 -231 -84 -263 -52 -32 32 -10 58 48 58 59 0 103 158 97 350 -5 193 -46 350 -90 350 -44 0 -80 113 -80 250 0 280 -30 294 -307 146 -253 -135 -255 -677 -4 -1389 152 -432 201 -496 254 -330 74 233 757 793 757 620 0 -141 -815 -956 -922 -922 -43 14 -78 -35 -78 -109 0 -192 -446 -380 -582 -244 -74 74 -102 -127 -95 -683 6 -434 -58 -1194 -142 -1689 -143 -838 -162 -880 -268 -616 -82 203 -86 458 -15 900 55 339 101 995 101 1458 1 600 43 889 148 1005 113 124 125 243 53 507 -52 191 -123 661 -160 1046 -86 922 -228 562 -157 -398 29 -386 48 -814 42 -952 -47 -1085 -145 -2357 -225 -2900 -93 -639 -418 -1449 -534 -1333 -32 32 -36 839 -8 1792 41 1398 23 1788 -95 2016 -169 326 -206 1899 -54 2299 74 195 58 296 -68 436 -104 115 -138 248 -91 361 49 120 89 138 120 54 81 -218 404 -135 660 169 247 295 370 303 370 26 0 -81 117 -255 259 -387 145 -135 235 -304 204 -385 -194 -505 8 -2648 249 -2648 48 0 88 225 88 500 0 275 -45 500 -100 500 -60 0 -100 414 -100 1043 0 798 -36 1078 -151 1194 -84 83 -179 290 -213 459 -92 459 -236 477 -562 70 -366 -456 -474 -461 -474 -22 0 398 143 539 287 283 94 -167 104 -166 173 13 40 105 24 374 -36 599 -75 283 -77 447 -5 534 134 162 281 68 281 -179 0 -107 90 -284 200 -394 110 -110 200 -245 200 -300 0 -143 230 -124 450 38 128 93 278 111 468 57 323 -93 409 -4 364 373 -18 148 23 283 93 307 138 46 180 -46 272 -600 36 -217 119 -375 197 -375 177 0 261 231 148 409 -155 245 -109 509 83 471 118 -23 165 -109 143 -261 -34 -239 336 -714 557 -717 155 -2 158 116 12 436 -141 309 -36 762 176 762 132 0 148 -76 94 -439 -71 -471 8 -961 154 -961 49 0 89 205 89 456 0 278 39 432 100 394 55 -34 100 -175 100 -312 0 -138 47 -338 104 -445 77 -144 71 -194 -25 -195 -160 -3 -644 -366 -577 -433 83 -83 1041 203 1392 417 315 191 337 241 365 820 29 591 234 1098 443 1098 54 0 98 -146 98 -325z m4534 100 c40 -98 71 -96 145 8 113 162 218 -152 220 -665 1 -298 -22 -324 -224 -262 -278 85 -238 13 -318 569 -42 290 -31 475 29 475 53 0 120 -56 148 -125z m-5394 -624 c47 -418 36 -567 -38 -493 -112 112 -211 1000 -122 1089 80 79 87 53 160 -596z m3320 376 c-33 -33 -56 26 -52 131 5 117 28 141 60 61 29 -72 26 -159 -8 -192z m-7200 -200 c-33 -33 -56 26 -52 131 5 117 28 141 60 61 29 -72 26 -159 -8 -192z m-3760 -283 c0 -86 -46 -128 -102 -93 -56 35 -75 105 -44 156 86 139 146 113 146 -63z m9930 -67 c-163 -179 -330 -152 -330 54 0 65 109 119 243 119 224 0 230 -14 87 -173z m1191 134 c270 -103 1079 -883 1079 -1041 0 -59 -135 22 -300 180 -165 158 -300 237 -300 175 0 -129 -677 -55 -867 94 -77 61 -150 34 -212 -78 -89 -158 -113 -157 -355 20 -311 227 -295 326 91 552 339 199 538 222 864 98z m3425 -118 c-86 -139 -146 -113 -146 63 0 86 46 128 102 93 56 -35 75 -105 44 -156z m-7346 -149 c0 -145 -43 -229 -100 -194 -55 34 -100 149 -100 256 0 107 45 194 100 194 55 0 100 -115 100 -256z m7593 -1390 c91 -659 34 -954 -186 -954 -37 0 -125 339 -194 752 -101 601 -102 828 -3 1125 l124 373 81 -300 c45 -165 125 -613 178 -996z m-805 671 c53 -206 174 -735 269 -1175 94 -440 220 -831 280 -870 60 -38 126 -421 147 -850 44 -903 -36 -911 -243 -26 -80 344 -208 765 -283 936 -219 491 -358 970 -358 1228 0 131 -67 264 -150 296 -174 67 -195 364 -46 643 156 291 278 234 384 -182z m-4987 -926 c85 -159 75 -215 -47 -261 -170 -65 -218 -638 -54 -638 55 0 100 120 100 267 0 146 27 239 60 206 33 -33 26 -299 -16 -592 -62 -425 -90 -481 -140 -281 -35 138 -128 250 -209 250 -95 0 -128 -69 -95 -200 109 -436 -49 -4207 -192 -4581 -59 -155 -137 -593 -172 -975 -72 -768 -280 -1103 -397 -637 -65 258 -77 264 -204 90 -74 -102 -135 -146 -135 -97 0 49 -56 20 -125 -64 -266 -326 -1249 -498 -2616 -458 -1288 37 -1291 38 -1524 330 -328 410 -298 613 115 786 361 151 507 556 200 556 -82 0 -150 46 -150 103 0 193 301 220 560 49 249 -162 269 -160 499 57 309 289 354 1162 66 1251 -569 176 -671 499 -150 475 236 -10 325 29 325 144 0 242 -407 621 -667 621 -281 0 -313 264 -58 467 199 159 1354 733 1473 733 158 0 452 437 452 672 0 458 366 919 737 925 168 3 179 -52 115 -572 -39 -316 -141 -654 -228 -751 -135 -152 -138 -211 -21 -430 119 -222 113 -298 -45 -591 -175 -327 -175 -343 8 -540 136 -146 230 -176 337 -106 125 83 118 120 -53 253 -157 122 -165 149 -35 123 92 -18 260 75 375 207 235 270 267 410 93 410 -64 0 -87 29 -52 64 35 36 138 4 227 -71 140 -116 183 -109 299 49 114 157 113 218 -11 394 -80 115 -146 300 -146 411 1 163 39 140 198 -121 238 -390 181 -926 -100 -926 -290 0 -338 -318 -78 -519 326 -250 376 -227 361 169 -8 193 16 381 53 417 36 37 68 -155 70 -425 3 -477 7 -484 146 -242 l143 250 12 -250 c12 -239 16 -237 100 44 55 185 50 340 -14 417 -56 67 -119 356 -140 643 -24 321 -111 602 -227 733 -280 318 -524 737 -524 901 0 155 549 662 717 662 56 0 125 -90 154 -200 97 -371 329 -230 329 200 0 434 129 519 301 199z m3749 -2648 c481 -972 882 -2118 793 -2262 -117 -190 -210 -69 -338 436 -72 289 -238 737 -369 997 -130 259 -236 558 -236 665 0 106 -163 434 -361 728 -199 294 -401 648 -450 785 -193 546 519 -454 961 -1349z m-7190 1076 c-33 -33 -56 26 -52 131 5 117 28 141 60 61 29 -72 26 -159 -8 -192z m4040 -733 c0 -578 36 -883 100 -844 55 34 100 226 100 426 0 275 28 336 115 249 73 -73 117 -534 120 -1258 3 -910 -31 -1196 -166 -1401 -186 -284 -329 -1086 -469 -2616 -50 -550 -93 -1014 -96 -1031 -2 -17 -53 -1 -112 36 -60 37 -82 171 -50 298 32 127 13 245 -42 264 -63 21 -44 289 54 733 141 642 227 1271 397 2900 60 572 55 591 -106 400 -160 -190 -165 -164 -92 500 108 984 99 1356 -33 1438 -84 51 -87 173 -13 441 174 632 293 416 293 -535z m-4389 277 c-81 -81 -111 -70 -111 42 0 85 33 186 73 227 40 40 90 21 111 -42 21 -64 -12 -166 -73 -227z m1989 -27 c0 -86 -45 -128 -100 -94 -55 34 -100 104 -100 156 0 52 45 94 100 94 55 0 100 -70 100 -156z m1760 -117 c-33 -33 -56 26 -52 131 5 117 28 141 60 61 29 -72 26 -159 -8 -192z m-810 -27 c34 -55 -8 -100 -94 -100 -86 0 -156 45 -156 100 0 55 42 100 94 100 52 0 122 -45 156 -100z m-1100 -100 c34 -55 17 -100 -38 -100 -55 0 -128 45 -162 100 -34 55 -17 100 38 100 55 0 128 -45 162 -100z m-2550 -100 c0 -55 -48 -100 -106 -100 -58 0 -78 45 -44 100 34 55 82 100 106 100 24 0 44 -45 44 -100z m4615 -1269 c-53 -95 -75 -400 -48 -677 29 -305 -13 -700 -106 -999 -154 -496 -132 -728 43 -452 51 81 94 237 96 347 2 110 47 268 100 350 85 132 97 131 98 -7 3 -258 -490 -1626 -613 -1702 -64 -40 -133 -454 -160 -956 -26 -487 -83 -907 -126 -935 -126 -80 -279 -788 -358 -1650 l-73 -800 -168 378 c-197 440 -131 1106 212 2151 114 346 215 683 225 750 10 66 54 178 98 249 44 70 66 317 49 550 -23 320 6 422 118 422 212 0 294 240 237 700 -27 220 -7 693 45 1050 51 357 60 695 19 750 -41 55 -42 325 -2 600 40 275 78 421 86 325 23 -310 212 -186 230 150 16 314 18 313 56 -48 21 -206 -5 -451 -58 -546z m2674 -463 c157 -340 317 -719 355 -843 126 -409 -25 -234 -282 328 -140 304 -323 622 -408 707 -169 170 -215 589 -53 489 56 -34 230 -340 388 -681z m-545 -66 c278 -318 1041 -2334 776 -2052 -138 147 -1121 2414 -1114 2568 4 73 51 20 106 -116 54 -136 158 -316 232 -400z m1400 -284 c38 -120 45 -218 15 -218 -60 0 -459 843 -459 970 1 117 363 -496 444 -752z m-9044 126 c0 -24 -45 -44 -100 -44 -55 0 -100 48 -100 106 0 58 45 78 100 44 55 -34 100 -82 100 -106z m6543 -1529 c-293 -833 -358 -1295 -377 -2665 -8 -581 35 -983 120 -1135 l132 -235 281 269 c178 170 404 275 616 285 215 10 361 79 407 191 82 201 378 238 378 47 0 -160 -216 -479 -769 -1133 -237 -281 -431 -553 -431 -606 0 -52 -96 -198 -213 -323 -117 -126 -359 -531 -539 -901 -336 -690 -573 -919 -1098 -1058 -398 -105 -1674 -124 -1800 -26 -55 42 -227 172 -382 289 -414 311 -811 984 -787 1336 l21 300 -143 -300 -143 -300 -8 455 c-4 250 36 499 90 553 151 151 502 1240 502 1558 0 156 45 284 100 284 55 0 100 -101 100 -225 0 -376 -281 -1596 -394 -1709 -189 -189 -112 -302 85 -125 110 101 244 442 318 816 70 354 170 643 222 643 89 0 63 -307 -91 -1075 -42 -213 -26 -325 48 -325 61 0 112 110 112 243 0 134 48 369 106 522 150 395 306 111 228 -415 -49 -330 -36 -378 73 -275 190 178 297 154 225 -50 -50 -143 -37 -152 73 -50 242 225 391 135 457 -275 35 -220 84 -400 108 -400 209 0 329 410 426 1450 114 1222 154 1392 311 1296 51 -32 96 69 99 223 12 588 91 1068 194 1171 75 75 87 -91 41 -567 -42 -432 -29 -673 36 -673 56 0 127 -66 158 -148 62 -162 -86 -1952 -194 -2352 -47 -171 -35 -218 35 -150 148 144 324 1070 324 1705 0 418 35 545 150 545 83 0 150 -67 150 -150 0 -82 46 -150 102 -150 63 0 73 106 26 275 -159 581 102 3215 369 3722 44 84 142 423 216 753 l136 600 31 -485 c22 -335 -51 -721 -237 -1250z m-783 1212 c-33 -33 -56 26 -52 131 5 117 28 141 60 61 29 -72 26 -159 -8 -192z m1764 -699 c25 -287 9 -499 -35 -471 -106 65 -288 722 -288 1039 -2 474 273 -9 323 -568z m-9375 247 c41 -234 80 -807 88 -1273 11 -748 -9 -853 -169 -884 -161 -31 -176 17 -129 398 115 929 153 1429 100 1309 -86 -193 -339 -148 -339 60 0 257 203 815 297 815 43 0 111 -191 152 -425z m-2151 -250 c-1 -451 -144 -744 -220 -453 -67 258 24 828 133 828 49 0 88 -169 87 -375z m4402 14 c0 -21 -67 -39 -150 -39 -82 0 -150 44 -150 97 0 53 68 71 150 39 83 -31 150 -75 150 -97z m6654 -683 c-22 -113 -43 -228 -48 -256 -5 -27 -53 18 -106 100 -69 107 -98 -7 -102 -400 -2 -322 -65 -630 -151 -744 -302 -399 -167 747 228 1944 68 206 230 -376 179 -644z m2276 538 c44 -168 28 -184 -87 -88 -77 64 -116 157 -86 205 82 132 114 110 173 -117z m535 -440 c-32 -85 -106 -154 -163 -154 -66 0 -59 72 18 195 138 221 235 194 145 -41z m-1781 -109 c138 -303 150 -612 27 -688 -49 -30 -112 68 -140 219 -29 151 -84 375 -123 499 -98 310 92 286 236 -30z m-302 -328 c45 -306 -148 -272 -207 37 -31 160 -8 240 63 217 62 -20 126 -134 144 -254z m1218 21 c0 -82 -45 -122 -100 -88 -55 34 -100 129 -100 212 0 82 45 122 100 88 55 -34 100 -129 100 -212z m-14800 -394 c0 -244 -39 -444 -87 -444 -106 0 -241 774 -158 908 122 197 245 -35 245 -464z m4863 131 c-33 -124 -62 -270 -63 -325 -2 -55 -47 -32 -100 50 -150 233 -117 500 62 500 119 0 145 -60 101 -225z m6349 -435 c-74 -314 -94 -338 -102 -123 -10 277 85 621 154 552 21 -21 -2 -214 -52 -429z m2080 -547 c5 -142 81 -470 169 -731 89 -260 137 -497 107 -527 -200 -201 -420 529 -501 1665 l-47 650 132 -400 c73 -220 136 -516 140 -657z m3169 849 c-34 -87 -61 -177 -61 -200 0 -23 -67 -42 -150 -42 -181 0 -193 117 -30 280 171 171 312 148 241 -38z m-1384 -298 c-33 -34 -115 44 -181 172 -114 224 -111 226 61 61 100 -95 154 -200 120 -233z m-476 54 c145 -271 41 -428 -198 -300 -121 65 -167 169 -132 301 67 257 192 256 330 -1z m-12906 -811 c-65 -157 -158 -260 -207 -230 -104 65 -118 750 -19 1007 57 149 93 122 206 -157 109 -265 113 -395 20 -620z m2705 757 c0 -86 -46 -128 -102 -93 -56 35 -75 105 -44 156 86 139 146 113 146 -63z m8694 -1725 c3 -72 -39 -103 -94 -69 -55 34 -100 149 -100 256 0 107 -45 194 -100 194 -59 0 -96 319 -91 775 l8 775 186 -900 c102 -495 188 -959 191 -1031z m2506 1781 c0 -55 -48 -100 -106 -100 -58 0 -78 45 -44 100 34 55 82 100 106 100 24 0 44 -45 44 -100z m-14689 -1104 c-84 -210 -99 -171 -105 271 -8 694 133 1045 174 429 16 -249 -15 -564 -69 -700z m16670 321 c388 -502 104 -368 -333 158 -291 350 -332 433 -154 317 133 -86 352 -300 487 -475z m-16304 -1151 c-18 -1041 10 -1580 87 -1675 89 -109 49 -337 -169 -991 -156 -467 -293 -828 -304 -800 -11 28 -31 826 -45 1775 -19 1334 4 1725 102 1725 82 0 131 167 140 475 8 261 33 565 56 675 22 110 44 234 48 275 5 41 31 75 60 75 28 0 39 -690 25 -1534z m12866 872 c299 -654 296 -638 127 -638 -72 0 -227 270 -346 600 -273 758 -123 784 219 38z m1357 155 c0 -38 -63 -121 -141 -186 -190 -157 -284 10 -197 354 64 255 76 260 203 86 74 -102 135 -216 135 -254z m-5659 -218 c-70 -220 -151 -524 -350 -1314 -54 -214 -82 -437 -63 -495 19 -58 116 229 215 639 218 905 411 1395 552 1395 144 0 134 -72 -90 -686 -107 -293 -245 -777 -307 -1074 -119 -573 -189 -634 -441 -383 -184 184 -201 518 -46 911 199 508 276 832 198 832 -43 0 -161 -275 -263 -612 l-185 -612 -188 233 c-109 134 -170 329 -145 462 25 126 6 229 -42 229 -47 0 -86 68 -86 150 0 83 48 150 106 150 58 0 77 -56 42 -125 -34 -69 -3 -53 70 35 115 139 492 320 699 335 36 3 100 39 141 80 152 152 253 69 183 -150z m4957 -472 c2 -175 -226 132 -333 447 -54 161 -29 151 131 -50 110 -137 201 -316 202 -397z m-11673 149 c-27 -138 -88 -252 -137 -252 -101 0 -121 434 -24 531 122 122 209 -28 161 -279z m9467 -377 c5 -41 -60 -75 -144 -75 -112 0 -135 -66 -89 -250 39 -154 20 -250 -48 -250 -124 0 -159 1119 -38 1239 61 61 295 -425 319 -664z m4085 369 c-33 -34 -115 44 -181 172 -114 224 -111 226 61 61 100 -95 154 -200 120 -233z m623 100 c0 -24 -45 -44 -100 -44 -55 0 -100 48 -100 106 0 58 45 78 100 44 55 -34 100 -82 100 -106z m-8864 -93 c-31 -83 -98 -125 -148 -94 -105 65 -21 243 115 243 50 0 65 -67 33 -149z m8011 -307 c171 -215 244 -241 453 -162 177 66 368 49 650 -57 645 -242 750 -430 750 -1337 0 -759 -8 -785 -195 -668 -292 183 -357 27 -116 -278 248 -316 271 -459 61 -378 -166 64 -208 -116 -50 -214 55 -34 100 -154 100 -267 0 -170 -44 -194 -258 -140 -230 58 -251 42 -189 -154 61 -192 41 -211 -167 -155 -130 35 -303 64 -386 66 -193 3 -613 649 -543 833 30 78 -16 168 -102 201 -126 48 -145 11 -95 -187 51 -204 25 -247 -149 -247 -236 0 -270 101 -93 278 65 65 84 153 42 195 -42 42 -140 -11 -219 -118 -110 -151 -169 -167 -261 -75 -66 66 -201 120 -300 120 -99 0 -180 60 -180 134 0 171 -530 425 -579 278 -20 -58 -184 -196 -366 -309 -218 -135 -351 -309 -392 -514 -43 -215 -107 -294 -205 -256 -79 30 -197 -10 -263 -89 -66 -79 -181 -144 -257 -144 -76 0 -138 -66 -138 -148 0 -118 53 -127 264 -47 337 128 358 100 212 -287 -126 -335 -219 -392 -334 -205 -118 191 -351 -515 -285 -864 50 -269 26 -330 -148 -376 -501 -131 -715 90 -656 677 17 165 34 396 39 514 4 118 78 242 164 275 108 41 151 5 139 -115 -33 -321 4 -424 151 -424 112 0 141 119 125 500 -17 401 -55 500 -196 500 -342 0 -121 341 225 347 83 2 146 59 140 128 -30 381 -48 432 -131 381 -49 -31 -66 -157 -37 -281 50 -207 41 -212 -113 -68 -254 240 -101 493 299 493 324 0 335 -12 274 -313 -48 -243 -31 -303 78 -267 77 26 141 119 141 207 1 87 35 192 75 233 41 40 74 -27 74 -149 0 -123 43 -196 96 -164 104 65 24 366 -123 465 -51 34 -99 180 -108 325 -17 292 -67 321 -245 143 -93 -93 -120 -92 -120 5 0 191 1103 1515 1261 1515 85 0 139 107 139 275 0 228 47 279 275 297 579 47 765 23 925 -122 218 -198 438 -194 362 5 -52 136 104 431 234 441 26 2 138 -111 251 -252z m-14147 -244 c0 -165 -45 -300 -100 -300 -55 0 -100 135 -100 300 0 165 45 300 100 300 55 0 100 -135 100 -300z m5610 -940 c-99 -379 -211 -639 -250 -577 -38 62 -24 283 31 490 55 207 127 507 160 666 35 170 97 253 149 200 53 -52 15 -375 -90 -779z m-7310 389 c0 -225 -20 -238 -198 -127 -309 193 -333 378 -49 378 197 0 247 -51 247 -251z m-200 -899 c52 -137 154 -250 226 -250 106 0 113 -159 38 -806 -65 -556 -60 -917 16 -1164 92 -301 79 -419 -84 -737 -198 -389 -396 -588 -396 -399 0 58 -45 106 -100 106 -55 0 -100 -152 -100 -338 0 -186 -67 -394 -150 -462 -127 -105 -150 -83 -150 143 0 147 -80 457 -178 687 -139 329 -170 624 -142 1364 21 571 69 889 120 806 70 -113 112 -114 241 -7 200 165 228 86 291 -841 41 -581 27 -668 -78 -524 -113 155 -134 132 -188 -200 -73 -446 72 -652 268 -382 94 128 157 149 207 69 148 -240 259 -99 259 332 0 356 -30 435 -150 389 -119 -46 -150 33 -150 384 0 243 62 527 138 631 81 110 106 254 62 344 -267 540 -314 704 -254 893 87 275 138 267 254 -38z m4046 -1357 c-86 -139 -146 -113 -146 63 0 86 46 128 102 93 56 -35 75 -105 44 -156z m-914 -197 c-99 -167 -194 -259 -212 -205 -46 137 166 509 289 509 56 0 22 -137 -77 -304z m11107 -805 c-144 -572 -322 -1153 -396 -1291 -180 -334 -183 -63 -4 507 76 244 219 736 317 1093 195 711 244 834 304 773 23 -22 -77 -509 -221 -1082z m-6732 297 c94 -176 77 -249 -97 -422 l-210 -210 0 422 c0 458 127 545 307 210z m4244 -63 c-39 -96 -137 -393 -218 -660 -80 -267 -173 -458 -206 -426 -86 86 287 1261 400 1261 52 0 63 -79 24 -175z m3846 -150 c-3 -276 -19 -298 -108 -144 -58 100 -81 246 -51 325 93 241 162 162 159 -181z m-488 -206 c-130 -130 -148 15 -37 298 70 176 73 176 109 -3 21 -102 -11 -234 -72 -295z m-7281 -98 c43 -112 -549 -871 -679 -871 -27 0 -49 113 -49 250 0 138 37 250 83 250 46 0 143 113 217 250 145 270 349 328 428 121z m3138 -807 c-29 -228 -84 -605 -122 -839 l-70 -425 -512 2 c-282 0 -571 38 -642 84 -172 108 -124 1231 55 1289 69 23 128 -41 132 -142 7 -173 11 -173 81 6 75 190 890 567 1046 483 46 -25 61 -231 32 -458z m1870 286 c-31 -82 -75 -150 -97 -150 -21 0 -39 68 -39 150 0 83 44 150 97 150 53 0 71 -67 39 -150z m-4277 -200 c73 -290 241 -336 241 -67 0 277 103 326 338 162 185 -130 208 -228 177 -772 -19 -343 -49 -638 -67 -657 -18 -19 -126 -5 -240 32 -160 50 -208 149 -208 425 0 198 -30 330 -67 294 -57 -58 -86 -195 -125 -604 -4 -48 -75 -32 -157 36 -83 69 -256 96 -394 62 -173 -44 -284 -8 -376 120 -72 100 -210 212 -306 247 -237 89 -221 202 84 564 384 456 583 413 500 -107 -56 -354 -45 -398 77 -297 79 66 172 275 208 466 76 405 226 451 315 96z m-7409 -250 c-100 -111 -205 -179 -232 -151 -28 27 32 140 132 251 100 111 205 179 232 151 28 -27 -32 -140 -132 -251z m14950 69 c0 -127 66 -318 147 -425 209 -276 189 -435 -47 -373 -136 35 -200 137 -201 316 -1 144 -29 364 -62 488 -36 135 -16 225 51 225 62 0 112 -104 112 -231z m-3200 -275 c0 -113 -43 -179 -96 -147 -52 33 -70 125 -39 206 79 207 135 183 135 -59z m-1402 -269 c-25 -544 -7 -595 142 -398 147 193 460 139 460 -80 0 -235 -119 -447 -251 -447 -72 0 -191 -188 -265 -418 -188 -584 -362 -604 -311 -35 37 422 -88 621 -207 328 -28 -69 -54 19 -58 194 -4 176 37 347 92 381 55 34 100 124 100 199 0 189 181 651 255 651 33 0 52 -169 43 -375z m5671 -200 c-25 -96 -46 -17 -46 175 0 193 21 271 46 175 25 -96 25 -254 0 -350z m-1398 -502 c-22 -150 -41 -3 -40 327 1 330 19 453 41 273 23 -180 22 -450 -1 -600z m-2379 252 c-283 -565 -913 -1488 -974 -1426 -27 27 100 286 283 575 183 289 426 694 541 900 287 516 411 475 150 -49z m-8584 -207 c-129 -129 -150 112 -34 399 65 161 78 155 109 -54 18 -130 -15 -285 -75 -345z m-4679 82 c-277 -348 -575 -510 -321 -175 298 392 427 525 512 525 49 0 -37 -157 -191 -350z m12471 62 c0 -48 -67 -144 -150 -212 -122 -101 -150 -97 -150 21 0 80 30 176 67 212 95 95 233 83 233 -21z m1900 -212 c0 -231 -45 -300 -195 -300 -189 0 -189 11 -25 299 93 165 181 300 195 300 14 1 25 -134 25 -299z m2669 -275 c-25 -96 -46 -17 -46 175 0 193 21 271 46 175 25 -96 25 -254 0 -350z m-12209 -371 c-91 -364 -260 -219 -260 223 0 338 12 354 163 203 111 -111 142 -246 97 -426z m2340 446 c0 -55 -45 -100 -100 -100 -55 0 -100 45 -100 100 0 55 45 100 100 100 55 0 100 -45 100 -100z m1700 -262 c0 -76 72 -138 161 -138 99 0 139 55 105 145 -37 97 -8 126 89 89 168 -64 189 -195 45 -284 -225 -139 -71 -361 425 -611 613 -310 671 -380 673 -814 3 -432 -159 -416 -241 25 -37 193 -112 350 -168 350 -56 0 -256 117 -445 261 -196 150 -409 236 -499 201 -151 -58 -298 184 -487 805 -56 182 -34 208 138 163 112 -29 204 -116 204 -192z m-799 -312 c-125 -329 -252 -494 -416 -540 -368 -103 -785 -96 -785 14 0 55 136 100 301 100 258 0 333 65 520 450 132 272 286 450 389 450 159 0 159 -31 -9 -474z m8255 4 c-100 -261 -172 -76 -90 233 55 212 85 239 113 106 21 -99 11 -252 -23 -339z m-6243 154 c354 -106 532 -284 284 -284 -150 0 -797 280 -797 345 0 79 78 70 513 -61z m6696 -934 c-39 -595 -86 -834 -139 -704 -95 232 25 1804 128 1686 39 -45 44 -487 11 -982z m-12417 -65 c-9 -635 -67 -1131 -156 -1325 -137 -300 -140 -290 -92 290 140 1676 180 2050 219 2050 24 0 37 -457 29 -1015z m7426 793 c-71 -71 -118 -77 -118 -15 0 134 118 252 185 185 28 -28 -2 -105 -67 -170z m-10518 83 c0 -22 -70 -66 -155 -99 -89 -34 -129 -18 -94 39 58 95 249 141 249 60z m12200 -315 c0 -30 -101 -199 -225 -375 -123 -177 -236 -340 -250 -363 -14 -23 -51 -16 -82 16 -67 67 372 773 482 775 41 0 75 -23 75 -53z m-10188 -946 l-90 -450 -11 467 c-12 517 114 1003 164 633 15 -110 -13 -402 -63 -650z m8923 546 c-33 -85 -81 -133 -107 -107 -27 26 -18 96 18 154 98 160 156 129 89 -47z m-3591 -320 c72 -242 165 -324 415 -371 177 -33 348 -129 380 -212 32 -84 136 -139 231 -123 108 19 187 -46 210 -170 20 -110 106 -254 191 -320 118 -92 138 -225 85 -573 -74 -495 -256 -720 -256 -316 0 373 -310 959 -507 959 -94 0 -277 92 -407 205 l-236 205 325 -63 c504 -97 381 84 -183 271 -480 159 -522 158 -824 -15 -175 -100 -430 -215 -568 -254 -137 -40 -351 -165 -475 -278 -189 -173 -225 -180 -225 -44 0 185 367 473 603 473 87 0 246 70 353 155 189 151 188 154 -31 93 -124 -34 -225 -21 -225 28 0 49 169 130 375 181 281 70 383 151 408 324 44 313 246 226 361 -155z m-8844 -26 c0 -55 -48 -100 -106 -100 -58 0 -78 45 -44 100 34 55 82 100 106 100 24 0 44 -45 44 -100z m13966 -327 c-28 -68 -49 12 -47 177 3 165 25 220 50 123 26 -97 24 -232 -3 -300z m2100 -98 c-28 -69 -50 -12 -50 125 0 138 22 194 50 125 28 -69 28 -181 0 -250z m-3166 29 c0 -80 -421 -759 -553 -890 -88 -88 136 562 265 768 141 226 288 289 288 122z m-15581 -667 c-81 -144 -107 -121 -165 144 -38 173 -35 369 7 437 119 192 273 -375 158 -581z m6435 97 c-37 -195 -91 -330 -120 -301 -30 29 -20 248 21 485 41 238 95 373 120 302 25 -72 15 -290 -21 -486z m-2951 -390 c111 -260 180 -495 152 -522 -27 -27 -96 80 -153 239 -58 159 -194 462 -303 673 -110 212 -199 413 -199 448 0 129 308 -384 503 -838z m12265 396 c33 -88 -2 -200 -78 -249 -213 -134 -290 -109 -290 92 0 328 260 439 368 157z m4121 -865 c-10 -836 -20 -882 -102 -475 -82 403 -31 1400 72 1400 23 0 36 -416 30 -925z m-8497 495 c49 -127 65 -351 37 -498 -48 -250 -65 -258 -262 -120 -117 81 -291 148 -389 148 -217 0 -219 31 -25 405 185 359 515 392 639 65z m3808 -133 c0 -35 -43 -227 -95 -425 -53 -199 -121 -486 -152 -637 -31 -151 -102 -275 -157 -275 -56 0 -75 120 -42 275 150 720 280 1125 359 1125 48 0 87 -29 87 -63z m-15300 -281 c0 -150 -180 -310 -259 -230 -70 69 68 374 170 374 49 0 89 -65 89 -144z m9961 -114 c-34 -87 -61 -200 -61 -250 0 -51 -45 -92 -100 -92 -112 0 -137 330 -33 433 126 127 254 67 194 -91z m-3658 -343 l-83 -349 -10 308 c-5 170 20 339 57 375 112 113 121 30 36 -334z m9617 -19 c-93 -93 -120 -67 -120 120 0 187 27 213 120 120 93 -93 93 -147 0 -240z m2140 -253 c-33 -33 -56 26 -52 131 5 117 28 141 60 61 29 -72 26 -159 -8 -192z"/>
<path d="M12516 21214 c-228 -400 55 -1285 289 -905 46 74 44 181 -3 239 -48 57 -102 284 -120 503 -31 389 -36 393 -166 163z"/>
<path d="M13238 21156 c-76 -198 -7 -506 113 -506 55 0 113 146 130 325 32 329 -137 455 -243 181z"/>
<path d="M14400 20900 c0 -55 45 -100 100 -100 55 0 100 45 100 100 0 55 -45 100 -100 100 -55 0 -100 -45 -100 -100z"/>
<path d="M11161 20142 c-34 -87 -61 -259 -61 -381 0 -123 -66 -310 -147 -417 -83 -110 -143 -389 -137 -644 l9 -450 69 423 c124 762 204 577 208 -482 10 -2393 50 -3591 122 -3591 42 0 78 124 81 275 6 326 -16 2420 -34 3275 -7 330 16 949 51 1375 59 715 -15 998 -161 617z"/>
<path d="M13050 20200 c-34 -55 8 -100 94 -100 86 0 156 45 156 100 0 55 -42 100 -94 100 -52 0 -122 -45 -156 -100z"/>
<path d="M16954 14675 c-203 -652 -327 -1280 -262 -1320 40 -25 131 245 202 601 70 355 168 671 217 701 115 71 115 243 1 243 -49 0 -120 -101 -158 -225z"/>
<path d="M13773 14740 c-40 -41 -73 -142 -73 -227 0 -112 30 -123 111 -42 61 61 94 163 73 227 -21 63 -71 82 -111 42z"/>
<path d="M15856 14622 c-120 -119 -50 -313 94 -258 88 33 151 1 152 -78 1 -105 23 -102 98 14 53 82 98 179 98 213 3 87 -373 179 -442 109z"/>
<path d="M16564 14622 c-31 -50 -81 -289 -110 -532 l-53 -440 145 497 c136 467 144 679 18 475z"/>
<path d="M17363 10488 c-35 -172 -63 -500 -63 -729 0 -230 -67 -676 -150 -993 -173 -663 -182 -766 -66 -766 111 0 302 885 367 1700 29 358 75 751 103 875 27 124 10 225 -40 225 -49 0 -117 -141 -151 -312z"/>
<path d="M18300 9844 c0 -278 39 -432 100 -394 55 34 100 239 100 456 0 217 -45 394 -100 394 -55 0 -100 -205 -100 -456z"/>
<path d="M15200 8644 c0 -86 45 -128 100 -94 55 34 100 104 100 156 0 52 -45 94 -100 94 -55 0 -100 -70 -100 -156z"/>
<path d="M14773 8640 c-40 -41 -72 -167 -70 -282 3 -192 11 -194 107 -29 112 192 83 431 -37 311z"/>
<path d="M16454 7307 c-31 -51 -12 -121 44 -156 56 -35 102 7 102 93 0 176 -60 202 -146 63z"/>
<path d="M15500 11200 c-64 -119 -94 -240 -66 -267 27 -28 102 48 166 167 64 119 94 240 66 267 -27 28 -102 -48 -166 -167z"/>
<path d="M21900 10856 c0 -86 45 -156 100 -156 55 0 100 42 100 94 0 52 -45 122 -100 156 -55 34 -100 -8 -100 -94z"/>
<path d="M23255 10709 c-32 -53 -16 -122 36 -154 53 -32 122 -16 154 36 32 53 16 122 -36 154 -53 32 -122 16 -154 -36z"/>
<path d="M23019 10431 c46 -238 349 -403 487 -265 81 81 27 153 -204 268 -288 143 -312 143 -283 -3z"/>
<path d="M20725 10364 c-301 -149 -286 -364 25 -364 200 0 250 50 250 250 0 138 -11 244 -25 238 -14 -7 -126 -63 -250 -124z"/>
<path d="M23700 10412 c0 -128 294 -351 367 -279 72 73 -151 367 -279 367 -49 0 -88 -39 -88 -88z"/>
<path d="M21900 10067 c0 -451 -91 -511 -373 -246 -150 141 -263 185 -307 119 -39 -57 -149 -134 -245 -169 -189 -70 -236 -322 -78 -419 54 -33 205 11 338 97 225 148 243 145 293 -46 93 -354 319 -220 503 299 172 484 161 698 -37 698 -52 0 -94 -150 -94 -333z"/>
<path d="M24476 10242 c-102 -101 34 -342 192 -342 83 0 133 72 114 167 -34 179 -205 276 -306 175z"/>
<path d="M22464 10031 c-113 -113 -69 -231 86 -231 83 0 150 42 150 94 0 126 -156 217 -236 137z"/>
<path d="M23713 9913 c41 -126 187 -155 187 -38 0 41 -51 92 -112 113 -62 20 -96 -14 -75 -75z"/>
<path d="M20114 9585 c-116 -185 -112 -228 26 -305 88 -50 160 -204 160 -343 0 -294 194 -277 306 27 73 195 -153 836 -294 836 -35 0 -124 -97 -198 -215z"/>
<path d="M23447 9394 c-39 -62 2 -186 91 -275 149 -149 175 -149 331 7 189 189 175 220 -136 316 -124 38 -246 18 -286 -48z"/>
<path d="M22354 9293 c72 -116 546 -124 546 -8 0 46 -136 88 -302 93 -166 5 -276 -33 -244 -85z"/>
<path d="M22010 8897 c201 -303 348 -349 430 -137 79 206 79 206 -288 299 -295 74 -297 72 -142 -162z"/>
<path d="M18864 6231 c-113 -113 -69 -231 86 -231 83 0 150 42 150 94 0 126 -156 217 -236 137z"/>
<path d="M12805 24625 c-184 -662 -71 -987 251 -720 110 92 119 155 34 257 -68 81 -86 276 -47 487 89 476 -104 456 -238 -24z"/>
<path d="M14500 24800 c0 -110 45 -200 100 -200 55 0 100 90 100 200 0 110 -45 200 -100 200 -55 0 -100 -90 -100 -200z"/>
<path d="M15600 24900 c0 -55 42 -100 94 -100 52 0 122 45 156 100 34 55 -8 100 -94 100 -86 0 -156 -45 -156 -100z"/>
<path d="M24403 24082 c-115 -839 -111 -929 46 -1043 94 -69 151 -162 126 -207 -25 -45 12 -509 83 -1032 71 -522 132 -1310 137 -1750 4 -440 52 -867 105 -950 119 -185 126 2450 6 2750 -43 110 -40 303 7 430 50 134 44 416 -15 677 -55 246 -104 806 -108 1245 -6 572 -45 798 -135 798 -84 0 -169 -311 -252 -918z"/>
<path d="M4044 22261 c-57 -228 214 -936 318 -832 79 79 -81 1071 -173 1071 -47 0 -112 -108 -145 -239z"/>
<path d="M3767 21833 c-37 -36 -67 -218 -67 -403 0 -365 228 -543 432 -337 91 93 76 152 -66 256 -125 93 -163 203 -118 344 63 199 -42 280 -181 140z"/>
<path d="M6761 19742 c-100 -259 -69 -825 48 -897 206 -128 338 131 198 391 -70 132 -98 336 -61 452 77 243 -94 293 -185 54z"/>
<path d="M9800 19056 c0 -196 -36 -356 -81 -356 -44 0 -141 -407 -214 -905 -101 -681 -106 -934 -20 -1020 87 -87 115 51 115 555 0 369 39 670 88 670 48 0 65 -202 37 -450 -40 -355 -20 -450 98 -450 169 0 347 927 188 980 -50 16 -67 292 -38 611 34 377 13 606 -60 651 -76 47 -113 -48 -113 -286z"/>
<path d="M461 19117 c-30 -47 -6 -258 52 -468 132 -480 24 -1441 -171 -1516 -193 -74 -179 -302 27 -417 156 -88 152 -149 -50 -847 -121 -413 -219 -937 -219 -1163 l0 -412 375 41 c302 33 368 77 340 228 -178 954 -238 2107 -131 2508 188 699 1 2409 -223 2046z"/>
<path d="M7625 18050 c-1 -220 19 -322 44 -226 25 95 26 275 2 400 -24 124 -45 46 -46 -174z"/>
<path d="M10 16375 c-6 -206 35 -375 90 -375 114 0 114 143 0 500 -71 223 -81 210 -90 -125z"/>
<path d="M9120 16210 c-66 -187 -120 -494 -120 -681 0 -188 -39 -418 -87 -511 -47 -92 -110 -528 -139 -968 -28 -440 -31 -743 -4 -674 103 274 230 -18 230 -532 0 -324 44 -544 108 -544 75 0 93 481 59 1575 -27 866 -28 1418 -1 1225 27 -193 90 -393 141 -445 109 -111 111 1261 3 1645 -70 247 -73 245 -190 -90z"/>
<path d="M10516 16100 c0 -137 22 -194 50 -125 28 69 28 181 0 250 -28 69 -50 13 -50 -125z"/>
<path d="M24877 14975 c-25 -729 -8 -1368 38 -1420 47 -52 85 542 85 1325 0 781 -17 1420 -38 1420 -21 0 -59 -596 -85 -1325z"/>
<path d="M857 15575 c84 -782 243 -993 242 -320 -2 581 -85 945 -216 945 -55 0 -65 -257 -26 -625z"/>
<path d="M0 14000 c0 -55 20 -100 44 -100 24 0 72 45 106 100 34 55 14 100 -44 100 -58 0 -106 -45 -106 -100z"/>
<path d="M645 13466 c-39 -156 -20 -454 42 -662 62 -207 113 -473 113 -591 0 -122 64 -213 148 -213 123 0 138 111 87 625 -35 344 -120 738 -190 875 l-128 250 -72 -284z"/>
<path d="M75 13242 c-115 -116 -89 -1022 32 -1096 58 -36 121 -50 140 -31 71 74 -101 1199 -172 1127z"/>
<path d="M261 11675 c-18 -69 -86 -291 -151 -494 -93 -290 -92 -413 6 -569 100 -161 98 -249 -14 -458 -118 -221 -117 -408 7 -1282 131 -925 164 -1019 343 -989 109 19 241 75 293 126 150 144 -101 1877 -304 2101 -140 155 -160 319 -113 939 51 676 21 960 -67 626z m174 -2725 c38 -507 26 -743 -32 -643 -131 222 -248 1670 -125 1543 53 -55 123 -460 157 -900z"/>
<path d="M746 11394 c-35 -58 -40 -206 -9 -329 31 -123 104 -649 162 -1169 151 -1363 200 -1571 385 -1637 91 -32 211 -81 266 -109 135 -66 166 660 35 818 -57 69 -88 393 -70 720 44 754 -82 907 -174 212 -55 -410 -91 -486 -167 -351 -53 96 -73 316 -45 490 29 181 -4 392 -79 494 -80 110 -109 327 -77 572 51 379 -73 538 -227 289z"/>
<path d="M12100 11256 c0 -86 45 -156 100 -156 55 0 100 42 100 94 0 52 -45 122 -100 156 -55 34 -100 -8 -100 -94z"/>
<path d="M1620 11180 c-66 -66 -120 -207 -120 -313 0 -172 23 -164 200 60 110 140 200 281 200 314 0 99 -153 66 -280 -61z"/>
<path d="M3046 10994 c-32 -52 54 -137 190 -189 146 -55 262 -189 281 -325 18 -126 67 -219 108 -205 41 14 75 48 75 75 0 28 0 158 0 290 0 177 -79 268 -298 344 -184 64 -320 68 -356 10z"/>
<path d="M11367 11034 c-36 -36 35 -117 159 -180 135 -69 221 -201 216 -334 -4 -121 29 -220 75 -220 46 0 83 65 83 145 0 80 79 191 175 247 165 96 164 102 -7 105 -100 2 -250 71 -332 153 -163 163 -266 187 -369 84z"/>
<path d="M2400 10742 c0 -163 47 -243 125 -217 69 23 114 72 100 108 -14 37 -25 135 -25 217 0 83 -45 150 -100 150 -55 0 -100 -116 -100 -258z"/>
<path d="M10550 10700 c-34 -55 8 -100 94 -100 86 0 156 45 156 100 0 55 -42 100 -94 100 -52 0 -122 -45 -156 -100z"/>
<path d="M11350 10600 c-34 -55 -14 -100 44 -100 58 0 106 45 106 100 0 55 -20 100 -44 100 -24 0 -72 -45 -106 -100z"/>
<path d="M12400 10456 c0 -79 47 -173 104 -209 123 -75 397 126 394 290 0 67 -36 57 -87 -23 -60 -94 -107 -102 -154 -25 -98 158 -257 137 -257 -33z"/>
<path d="M13561 10342 c-92 -238 -71 -311 41 -142 86 132 110 132 193 3 119 -186 231 -86 147 133 -81 209 -302 212 -381 6z"/>
<path d="M11025 10335 c-234 -97 -126 -235 183 -235 203 0 294 43 267 125 -46 138 -257 190 -450 110z"/>
<path d="M1800 9703 c0 -457 37 -578 212 -687 259 -162 508 4 308 204 -66 66 -120 326 -120 579 0 391 -29 458 -200 458 -176 0 -200 -67 -200 -554z m300 -3 c0 -55 -48 -100 -106 -100 -58 0 -78 45 -44 100 34 55 82 100 106 100 24 0 44 -45 44 -100z"/>
<path d="M2963 10087 c-97 -325 -47 -811 87 -853 55 -17 167 14 250 70 132 88 130 115 -17 228 -92 71 -184 284 -205 473 -36 337 -39 339 -115 82z"/>
<path d="M11801 10105 c-136 -105 -212 -227 -169 -270 43 -44 110 -32 148 25 39 58 149 134 245 169 96 36 175 111 175 168 0 151 -118 123 -399 -92z"/>
<path d="M4300 9842 c0 -349 -8 -356 -313 -289 -217 47 -291 35 -244 -42 38 -61 251 -111 475 -111 372 0 400 19 345 225 -33 124 -61 304 -62 400 0 96 -46 175 -101 175 -55 0 -100 -161 -100 -358z"/>
<path d="M5500 10061 c0 -95 299 -143 353 -57 32 53 -34 96 -147 96 -113 0 -206 -18 -206 -39z"/>
<path d="M12356 10010 c-30 -49 8 -113 85 -143 146 -56 259 9 259 150 0 111 -274 106 -344 -7z"/>
<path d="M2400 9706 c0 -162 45 -322 100 -356 60 -37 100 82 100 294 0 196 -45 356 -100 356 -55 0 -100 -132 -100 -294z"/>
<path d="M11100 9600 c0 -55 68 -100 150 -100 83 0 150 45 150 100 0 55 -67 100 -150 100 -82 0 -150 -45 -150 -100z"/>
<path d="M12736 9200 c11 -408 120 -541 186 -225 48 235 -27 625 -121 625 -41 0 -71 -180 -65 -400z"/>
<path d="M13056 8864 c40 -163 10 -256 -99 -297 -169 -65 -221 -467 -61 -467 149 0 304 353 304 693 0 169 -46 307 -102 307 -57 0 -76 -104 -42 -236z"/>
<path d="M3300 8717 c0 -46 113 -143 250 -217 261 -139 342 -318 125 -275 -135 27 -137 -75 -22 -1125 65 -592 159 -794 375 -798 43 -1 51 279 19 623 -99 1053 -107 1575 -25 1575 43 0 78 50 78 111 0 67 -95 87 -244 49 -134 -33 -272 -16 -306 40 -75 121 -250 133 -250 17z"/>
<path d="M4506 7782 c-6 -1068 91 -1582 299 -1582 72 0 87 110 42 316 -39 173 -83 657 -100 1075 -16 417 -75 872 -132 1009 -79 194 -104 12 -109 -818z"/>
<path d="M2425 8275 c23 -69 126 -141 230 -162 163 -31 171 -14 55 125 -159 192 -344 215 -285 37z"/>
<path d="M1643 7625 c-386 -591 -643 -691 -643 -251 l0 274 -256 -276 c-269 -290 -478 -286 -375 6 46 130 31 145 -59 62 -94 -86 -94 -255 -1 -759 88 -478 90 -698 8 -839 -94 -163 -111 -128 -114 233 -2 234 -49 425 -104 425 -156 0 0 -830 182 -975 276 -219 309 -141 269 647 -44 885 63 1138 365 864 176 -159 200 -157 417 48 127 119 295 216 374 216 91 0 148 111 155 300 6 165 -1 300 -14 300 -13 0 -105 -124 -204 -275z"/>
<path d="M3001 7625 c2 -546 129 -1325 216 -1325 157 0 219 320 99 512 -64 102 -116 388 -116 637 0 248 -45 451 -100 451 -55 0 -100 -124 -99 -275z"/>
<path d="M12827 7403 c0 -219 39 -374 87 -345 47 30 86 209 86 398 0 189 -39 344 -86 344 -48 0 -87 -179 -87 -397z"/>
<path d="M2513 7075 c-14 -710 -213 -967 -213 -275 0 220 -45 400 -100 400 -220 0 -43 -1191 189 -1276 238 -87 350 -311 461 -924 55 -302 145 -536 200 -519 55 17 86 107 68 200 -18 93 -56 289 -85 435 -40 202 -9 276 132 309 174 42 173 49 -15 130 -319 136 -540 472 -507 770 17 151 -3 533 -43 850 l-74 575 -13 -675z"/>
<path d="M1202 6237 c-1 -408 45 -652 140 -730 113 -94 155 -75 210 98 37 118 18 265 -42 325 -61 61 -111 225 -112 365 0 140 -45 323 -98 405 -68 106 -97 -30 -98 -463z"/>
<path d="M881 6475 c-23 -124 -10 -337 29 -475 54 -192 72 -139 80 225 11 506 -39 621 -109 250z"/>
<path d="M1700 6250 c0 -192 36 -350 80 -350 44 0 61 158 39 350 -53 450 -119 450 -119 0z"/>
<path d="M3756 5922 c-126 -125 -41 -222 194 -222 138 0 250 40 250 88 0 105 -364 215 -444 134z"/>
<path d="M12302 5825 c-1 -124 43 -225 98 -225 125 0 125 106 0 300 -78 121 -97 107 -98 -75z"/>
<path d="M13400 5767 c0 -147 45 -267 99 -267 55 0 86 89 70 197 -48 314 -169 363 -169 70z"/>
<path d="M13000 5606 c0 -58 45 -106 100 -106 55 0 100 20 100 44 0 24 -45 72 -100 106 -55 34 -100 14 -100 -44z"/>
<path d="M1750 5399 c-194 -85 -194 -89 25 -155 158 -47 225 -144 225 -326 0 -174 33 -225 101 -157 103 103 26 745 -88 732 -35 -4 -153 -46 -263 -94z"/>
<path d="M12500 5142 c0 -163 47 -243 125 -217 69 23 114 72 100 108 -14 37 -25 135 -25 217 0 83 -45 150 -100 150 -55 0 -100 -116 -100 -258z"/>
<path d="M1361 5142 c-98 -256 -70 -942 39 -942 55 0 100 248 100 550 0 568 -35 665 -139 392z"/>
<path d="M3471 4906 c-116 -543 179 -673 437 -191 96 179 85 196 -92 140 -157 -50 -209 -13 -236 166 -29 188 -48 167 -109 -115z"/>
<path d="M586 4875 c-29 -460 35 -1028 125 -1122 59 -61 84 175 66 624 -15 398 -61 723 -102 723 -41 0 -81 -101 -89 -225z"/>
<path d="M4265 4953 c-60 -157 64 -290 171 -184 95 96 77 331 -25 331 -49 0 -115 -66 -146 -147z"/>
<path d="M13050 5000 c-34 -55 -14 -100 44 -100 58 0 106 45 106 100 0 55 -20 100 -44 100 -24 0 -72 -45 -106 -100z"/>
<path d="M13400 4750 c0 -82 45 -150 100 -150 55 0 100 68 100 150 0 83 -45 150 -100 150 -55 0 -100 -67 -100 -150z"/>
<path d="M12760 4584 c-196 -280 -206 -484 -22 -484 75 0 165 142 200 316 81 403 24 457 -178 168z"/>
<path d="M34 3900 c0 -412 17 -581 39 -375 21 206 21 544 0 750 -22 206 -39 38 -39 -375z"/>
<path d="M13461 3942 c-94 -244 -74 -696 26 -587 125 137 224 745 121 745 -48 0 -114 -71 -147 -158z"/>
<path d="M2672 3767 c-82 -210 9 -667 133 -667 145 0 216 204 114 329 -53 67 -115 211 -136 321 -36 187 -43 188 -111 17z"/>
<path d="M1861 3425 c80 -338 189 -468 324 -384 67 41 43 169 -66 361 -212 373 -343 384 -258 23z"/>
<path d="M12700 3511 c0 -104 68 -216 150 -247 160 -62 187 23 89 278 -84 219 -239 198 -239 -31z"/>
<path d="M3400 3206 c0 -329 160 -486 327 -319 79 79 72 179 -26 361 -180 336 -301 319 -301 -42z"/>
<path d="M12300 3206 c0 -52 45 -122 100 -156 55 -34 100 8 100 94 0 86 -45 156 -100 156 -55 0 -100 -42 -100 -94z"/>
<path d="M600 3100 c0 -55 110 -100 244 -100 134 0 272 45 306 100 36 58 -66 100 -244 100 -168 0 -306 -45 -306 -100z"/>
<path d="M1175 2843 c-115 -117 -89 -722 34 -798 169 -105 345 120 216 276 -58 71 -121 235 -140 363 -19 129 -69 201 -110 159z"/>
<path d="M12545 2791 c-37 -60 -16 -160 48 -224 87 -87 137 -80 205 29 95 154 47 304 -98 304 -49 0 -118 -49 -155 -109z"/>
<path d="M0 2400 c0 -289 42 -400 150 -400 168 0 176 44 87 488 -88 442 -237 387 -237 -88z"/>
<path d="M13048 2492 c-75 -236 -12 -343 145 -246 132 81 143 454 14 454 -52 0 -123 -93 -159 -208z"/>
<path d="M11863 2347 c-85 -221 91 -433 237 -287 68 68 56 162 -34 284 -129 177 -137 177 -203 3z"/>
<path d="M1800 2033 c0 -487 -233 -741 -611 -666 -357 72 -398 -136 -45 -224 180 -46 319 7 524 198 359 332 556 340 475 19 -42 -169 -8 -270 114 -338 142 -79 162 -182 110 -560 -35 -254 -23 -462 26 -462 143 0 228 741 145 1267 -42 265 -79 551 -82 633 -4 97 -86 139 -231 119 -171 -24 -225 18 -225 175 0 113 -45 206 -100 206 -55 0 -100 -165 -100 -367z"/>
<path d="M596 2100 c-110 -519 -25 -726 191 -466 81 98 71 183 -36 324 -79 106 -149 170 -155 142z"/>
<path d="M12500 1987 c0 -39 27 -142 61 -229 92 -241 339 -190 339 71 0 161 -58 228 -200 228 -110 0 -200 -32 -200 -70z"/>
<path d="M11908 1460 c-94 -114 -95 -197 -3 -369 70 -132 94 -396 58 -656 -47 -344 -28 -435 89 -435 111 0 153 139 166 550 10 303 21 648 25 767 9 265 -170 342 -335 143z"/>
<path d="M12950 1200 c-34 -55 -28 -155 14 -222 103 -167 54 -685 -79 -846 -122 -147 -6 -174 196 -46 87 55 123 270 108 648 -22 536 -101 690 -239 466z"/>
<path d="M300 700 c0 -200 50 -300 150 -300 157 0 192 174 89 442 -100 261 -239 179 -239 -142z"/>
<path d="M12462 846 c-34 -89 -58 -260 -53 -379 6 -154 37 -119 106 119 99 346 58 549 -53 260z"/>
<path d="M1791 875 c-5 -14 -24 -216 -41 -450 -33 -451 86 -578 187 -200 92 345 74 675 -37 675 -55 0 -104 -11 -109 -25z"/>
<path d="M1100 350 c0 -244 45 -350 150 -350 105 0 150 106 150 350 0 244 -45 350 -150 350 -105 0 -150 -106 -150 -350z"/>
</g>
</svg>