<svg xmlns="http://www.w3.org/2000/svg" version="1.0" width="250" height="250" viewBox="0 0 250.000000 250.000000" preserveAspectRatio="xMidYMid meet">
<metadata>
Created by potrace 1.10, written by Peter Selinger 2001-2011
</metadata>
<g transform="translate(0.000000,250.000000) scale(0.010000,-0.010000)" fill="#555555" stroke="none">
<path d="M639 24678 c69 -342 218 -555 319 -454 83 84 -176 776 -291 776 -50 0 -63 -145 -28 -322z"/>
<path d="M1231 24700 c62 -165 168 -300 236 -300 93 0 97 73 18 300 -58 165 -164 300 -236 300 -105 0 -108 -61 -18 -300z"/>
<path d="M1700 24908 c0 -205 130 -408 261 -408 172 0 172 98 0 325 -145 191 -261 228 -261 83z"/>
<path d="M2477 24725 c65 -361 203 -525 442 -525 190 0 190 7 -12 290 -114 160 -207 340 -207 400 0 61 -61 110 -136 110 -94 0 -121 -85 -87 -275z"/>
<path d="M4750 24900 c34 -55 217 -100 406 -100 189 0 344 45 344 100 0 55 -183 100 -406 100 -245 0 -381 -40 -344 -100z"/>
<path d="M9792 24891 c160 -64 277 -62 345 6 71 71 -5 101 -242 97 -324 -6 -330 -13 -103 -103z"/>
<path d="M11957 24912 c-34 -56 26 -149 134 -207 273 -146 409 -131 409 45 0 83 -41 150 -92 150 -50 0 -158 26 -240 57 -81 31 -176 11 -211 -45z"/>
<path d="M16727 24940 c33 -34 120 -37 192 -8 80 32 56 55 -61 60 -105 4 -164 -19 -131 -52z"/>
<path d="M18773 24934 c68 -27 203 -29 300 -3 97 25 42 47 -123 50 -165 2 -245 -19 -177 -47z"/>
<path d="M20286 24797 c130 -108 295 -197 367 -197 72 0 202 -27 289 -61 87 -33 158 -14 158 44 0 57 -91 132 -201 167 -111 36 -176 106 -145 157 32 51 -114 92 -323 90 l-381 -4 236 -196z"/>
<path d="M21665 24846 c66 -171 250 -150 312 35 22 66 -52 119 -166 119 -143 0 -187 -46 -146 -154z"/>
<path d="M22400 24856 c0 -150 180 -310 259 -230 70 69 -68 374 -170 374 -49 0 -89 -65 -89 -144z"/>
<path d="M23000 24842 c0 -87 53 -141 119 -119 185 62 216 277 39 277 -87 0 -158 -71 -158 -158z"/>
<path d="M24552 24825 c41 -96 96 -276 123 -400 61 -282 325 -297 325 -18 0 297 -182 593 -364 593 -111 0 -136 -51 -84 -175z"/>
<path d="M4200 24714 c0 -167 342 -312 502 -212 175 108 126 162 -227 251 -172 43 -275 28 -275 -39z"/>
<path d="M18368 24734 c-151 -151 -54 -334 176 -334 215 0 437 159 341 244 -98 87 -458 150 -517 90z"/>
<path d="M23899 24598 c-143 -266 -90 -719 90 -778 106 -35 123 18 73 219 -37 146 -21 351 36 457 64 120 67 214 7 251 -52 32 -145 -35 -206 -149z"/>
<path d="M8700 24595 c0 -121 611 -400 724 -330 153 94 69 197 -256 315 -407 147 -468 149 -468 15z"/>
<path d="M10400 24607 c0 -123 369 -238 501 -157 56 35 76 106 45 157 -75 121 -546 121 -546 0z"/>
<path d="M14562 24620 c-73 -118 195 -856 327 -900 137 -45 138 30 7 501 -106 382 -243 546 -334 399z"/>
<path d="M15400 24408 c0 -400 93 -608 271 -608 105 0 128 53 76 175 -42 96 -97 299 -122 450 -63 365 -225 353 -225 -17z"/>
<path d="M6100 24460 c0 -118 115 -147 525 -131 289 12 525 66 525 121 0 55 -236 114 -525 130 -415 24 -525 -1 -525 -120z"/>
<path d="M13800 24411 c0 -49 83 -191 184 -317 130 -159 240 -206 371 -156 169 65 159 94 -109 313 -315 257 -446 304 -446 160z"/>
<path d="M11625 24334 c-261 -105 -109 -234 275 -234 289 0 400 42 400 150 0 148 -394 197 -675 84z"/>
<path d="M23370 24333 c-90 -145 39 -547 161 -506 59 20 121 80 139 133 48 144 -229 488 -300 373z"/>
<path d="M16036 24149 c-64 -165 140 -476 262 -400 102 63 2 551 -113 551 -50 0 -117 -68 -149 -151z"/>
<path d="M17100 24216 c0 -104 507 -343 577 -272 28 28 -5 120 -75 204 -134 161 -502 211 -502 68z"/>
<path d="M19600 24200 c0 -55 -135 -100 -300 -100 -165 0 -300 -40 -300 -89 0 -140 517 -234 634 -117 59 59 210 106 336 106 295 0 298 158 5 237 -313 84 -375 78 -375 -37z"/>
<path d="M8124 24075 c48 -146 676 -233 676 -93 0 93 -324 214 -583 217 -74 0 -115 -55 -93 -124z"/>
<path d="M21774 24041 c-133 -133 42 -241 390 -241 237 0 339 41 312 125 -45 136 -591 227 -702 116z"/>
<path d="M6325 23934 c-270 -109 -100 -184 400 -176 689 11 754 27 575 142 -156 101 -757 122 -975 34z"/>
<path d="M5000 23762 c0 -159 242 -387 323 -305 31 30 32 142 4 249 -57 220 -327 267 -327 56z"/>
<path d="M7714 23811 c-99 -63 -104 -105 -20 -157 143 -89 406 4 406 143 0 125 -200 132 -386 14z"/>
<path d="M10853 23805 c-64 -103 2 -126 397 -132 867 -15 1045 162 209 208 -303 16 -569 -17 -606 -76z"/>
<path d="M12200 23825 c0 -281 240 -1225 312 -1225 275 0 102 1181 -187 1276 -69 22 -125 -1 -125 -51z"/>
<path d="M1800 23706 c0 -140 408 -806 493 -806 187 0 167 143 -71 507 -246 376 -422 500 -422 299z"/>
<path d="M17200 23650 c0 -83 89 -150 200 -150 238 0 265 154 42 239 -224 86 -242 79 -242 -89z"/>
<path d="M3458 23445 c-71 -281 5 -480 149 -391 119 74 122 646 4 646 -49 0 -118 -115 -153 -255z"/>
<path d="M24802 23575 c0 -69 45 -192 98 -275 76 -117 97 -89 98 125 1 151 -43 275 -98 275 -55 0 -99 -56 -98 -125z"/>
<path d="M700 23431 c0 -234 392 -628 561 -563 185 71 179 332 -7 332 -81 0 -195 90 -254 200 -130 244 -300 262 -300 31z"/>
<path d="M2800 23312 c0 -315 248 -618 323 -393 52 156 -137 681 -245 681 -43 0 -78 -129 -78 -288z"/>
<path d="M4101 23525 c5 -244 141 -525 255 -525 224 0 259 181 75 395 -177 207 -332 268 -330 130z"/>
<path d="M21100 23461 c0 -184 256 -276 558 -200 278 70 314 190 84 278 -285 110 -642 66 -642 -78z"/>
<path d="M23900 23450 c0 -93 94 -150 250 -150 156 0 250 57 250 150 0 93 -94 150 -250 150 -156 0 -250 -57 -250 -150z"/>
<path d="M15854 23406 c-37 -59 -1 -133 79 -163 80 -31 128 -132 108 -224 -45 -207 262 -839 434 -895 191 -62 145 295 -75 576 -258 330 -249 400 50 400 319 0 325 159 9 239 -132 33 -308 86 -390 117 -82 32 -179 9 -215 -50z"/>
<path d="M18456 23413 c-162 -35 -275 -108 -250 -163 24 -55 89 -83 144 -62 55 21 314 60 575 88 261 27 475 89 475 137 0 97 -493 97 -944 0z"/>
<path d="M9757 23312 c-91 -148 215 -641 347 -559 140 86 119 197 -88 452 -131 162 -206 193 -259 107z"/>
<path d="M10501 23225 c3 -342 124 -625 269 -625 112 0 130 75 76 325 -38 179 -89 359 -114 400 -82 140 -232 76 -231 -100z"/>
<path d="M20000 23248 c0 -174 462 -419 575 -306 77 77 -327 458 -486 458 -49 0 -89 -68 -89 -152z"/>
<path d="M11539 23058 c-30 -78 -2 -241 63 -361 165 -308 336 -110 204 237 -114 299 -187 333 -267 124z"/>
<path d="M13446 23025 c37 -96 113 -388 169 -650 95 -443 174 -552 306 -421 114 114 -244 1246 -394 1246 -100 0 -127 -57 -81 -175z"/>
<path d="M15100 23039 c0 -241 418 -939 563 -939 248 0 227 181 -75 637 -316 477 -488 583 -488 302z"/>
<path d="M22750 23017 c-137 -137 -17 -226 267 -198 413 40 484 248 86 248 -167 0 -325 -23 -353 -50z"/>
<path d="M6700 22856 c0 -119 110 -156 458 -156 591 0 556 237 -41 281 -324 24 -417 -4 -417 -125z"/>
<path d="M17876 22842 c-57 -56 74 -625 164 -716 26 -25 90 -19 144 14 62 39 59 186 -10 410 -104 339 -179 412 -298 292z"/>
<path d="M16829 22388 c62 -465 216 -683 371 -528 66 66 45 240 -65 520 -213 541 -378 545 -306 8z"/>
<path d="M22175 22728 c-311 -47 -377 -228 -83 -228 261 0 508 102 508 211 0 49 -34 82 -75 74 -41 -8 -199 -34 -350 -57z"/>
<path d="M18600 22600 c0 -55 68 -100 150 -100 83 0 150 45 150 100 0 55 -67 100 -150 100 -82 0 -150 -45 -150 -100z"/>
<path d="M1997 22496 c-81 -51 -321 -94 -534 -94 -313 -2 -366 -28 -276 -137 89 -107 201 -112 544 -25 237 61 444 148 459 193 44 136 -36 162 -193 63z"/>
<path d="M5546 22493 c-92 -148 -35 -183 355 -215 259 -21 350 14 377 147 29 140 -33 175 -315 175 -193 0 -381 -48 -417 -107z"/>
<path d="M14347 22396 c-64 -104 301 -315 390 -226 114 115 66 206 -137 259 -110 29 -224 14 -253 -33z"/>
<path d="M19004 22307 c-145 -270 -134 -834 14 -784 106 35 232 977 131 977 -23 0 -89 -87 -145 -193z"/>
<path d="M23350 22399 c-35 -55 4 -126 85 -157 231 -89 695 -5 741 133 50 154 -732 177 -826 24z"/>
<path d="M16 22200 c0 -137 22 -194 50 -125 28 69 28 181 0 250 -28 69 -50 13 -50 -125z"/>
<path d="M7471 22338 c-164 -164 -48 -248 304 -219 206 17 375 76 375 131 0 118 -574 192 -679 88z"/>
<path d="M8700 22158 c0 -87 71 -158 158 -158 177 0 146 215 -39 277 -66 22 -119 -32 -119 -119z"/>
<path d="M12804 22054 c-71 -85 -210 -154 -310 -154 -100 0 -210 -45 -244 -101 -103 -165 217 -224 467 -86 128 70 301 130 383 132 201 7 193 294 -9 333 -88 17 -217 -39 -287 -124z"/>
<path d="M19902 22025 c2 -251 157 -462 283 -384 76 47 75 138 -5 313 -130 286 -281 324 -278 71z"/>
<path d="M21264 22131 c-116 -116 53 -231 342 -231 382 0 387 243 6 270 -159 11 -315 -6 -348 -39z"/>
<path d="M24769 22136 c-80 -80 11 -236 137 -236 52 0 94 68 94 150 0 155 -118 199 -231 86z"/>
<path d="M2825 22028 c-188 -67 -150 -198 75 -257 127 -33 200 -3 200 82 0 166 -109 235 -275 175z"/>
<path d="M503 21804 c-81 -51 -117 -124 -79 -161 91 -91 376 25 376 154 0 127 -104 129 -297 7z"/>
<path d="M10000 21819 c0 -97 989 -364 1065 -287 30 29 -83 124 -251 211 -322 166 -814 212 -814 76z"/>
<path d="M14960 21726 c-121 -120 -55 -226 140 -226 110 0 200 40 200 89 0 113 -260 218 -340 137z"/>
<path d="M26 10870 l-8 -10880 9016 27 c4959 14 10586 43 12504 63 l3488 36 -69 767 c-73 812 -382 1516 -754 1715 -318 171 -785 123 -899 -91 -144 -268 -141 -275 190 -390 299 -104 664 -643 554 -820 -33 -53 10 -97 96 -97 325 0 105 725 -326 1074 -248 201 -48 269 238 81 299 -196 590 -806 683 -1430 l63 -425 -379 0 c-364 0 -385 19 -513 454 -150 507 -451 938 -572 817 -43 -43 1 -290 98 -550 246 -655 245 -671 -36 -671 -148 0 -240 51 -225 126 40 197 -459 924 -633 924 -152 0 -145 -104 39 -591 33 -89 10 -115 -61 -71 -63 39 -163 249 -221 466 -59 221 -168 396 -246 396 -76 0 -156 101 -177 225 -36 216 -43 213 -177 -60 -125 -253 -121 -295 31 -380 183 -102 235 -385 70 -385 -55 0 -100 46 -100 102 0 56 -113 154 -250 216 -181 83 -250 192 -250 398 0 156 -45 284 -100 284 -168 0 -120 -771 52 -837 84 -32 245 -217 360 -411 247 -419 361 -443 449 -92 l66 260 225 -282 c194 -244 246 -264 386 -148 138 115 162 110 162 -28 0 -132 -125 -165 -675 -177 -371 -9 -922 -26 -1225 -38 -704 -29 -875 18 -952 258 -88 277 -248 242 -248 -55 0 -247 -11 -250 -842 -250 -463 0 -913 27 -999 60 -262 101 -72 238 243 175 252 -51 318 -15 471 252 97 172 251 312 340 312 167 1 283 275 286 676 0 124 46 225 101 225 55 0 100 -202 100 -450 0 -458 160 -628 218 -233 44 300 259 346 299 64 47 -329 222 -286 283 69 61 352 236 399 282 75 18 -124 80 -225 139 -225 72 0 89 229 50 693 -66 781 -13 872 529 924 370 35 367 30 563 1065 l44 231 185 -228 c164 -202 205 -212 357 -86 152 126 189 121 311 -45 200 -274 268 -134 171 354 -104 526 -273 602 -417 189 -138 -395 -269 -317 -353 208 -75 465 -301 499 -307 47 -2 -156 -54 -301 -116 -322 -107 -36 -282 468 -264 761 5 77 -38 257 -96 400 -57 142 -123 572 -145 955 -23 383 -62 717 -87 742 -109 108 -194 -137 -209 -601 -9 -275 -44 -527 -77 -560 -116 -116 -59 -427 78 -427 180 0 278 -382 157 -610 -52 -97 -118 -357 -145 -577 -45 -356 -18 -422 250 -613 165 -117 300 -279 300 -359 0 -183 -403 -341 -868 -341 -352 0 -354 -2 -287 -357 37 -197 91 -421 121 -499 34 -89 -44 -179 -214 -243 -318 -121 -452 -61 -452 205 0 207 -337 277 -450 94 -34 -55 -146 -100 -249 -100 -311 0 -494 -265 -435 -628 38 -234 -3 -395 -145 -571 -172 -213 -229 -229 -447 -130 -225 103 -281 80 -554 -229 -288 -325 -336 -342 -968 -342 -586 0 -660 21 -617 175 174 623 187 643 376 593 120 -31 228 17 288 130 53 98 213 208 355 244 285 72 285 288 -1 343 -101 20 -277 -78 -403 -225 -322 -375 -372 -320 -127 138 239 448 476 556 1452 661 824 88 849 417 45 589 -681 145 -159 433 980 541 l650 61 31 425 c27 374 0 438 -230 543 -345 157 -297 486 99 669 392 181 734 496 912 838 126 242 125 275 -9 275 -84 0 -153 68 -153 150 0 83 -44 150 -98 150 -121 0 -244 -452 -159 -588 74 -120 -41 -225 -668 -613 -440 -273 -531 -422 -479 -789 22 -153 -460 -612 -637 -606 -60 2 20 108 177 237 157 129 244 259 194 291 -138 85 -941 -688 -880 -847 53 -137 -324 -444 -423 -345 -30 29 0 183 66 342 137 333 106 1268 -43 1268 -55 0 -130 -315 -166 -700 -61 -653 -226 -1108 -940 -2600 -80 -165 -229 -525 -332 -800 -151 -403 -237 -506 -446 -531 l-260 -32 187 532 c103 292 349 824 548 1181 373 671 607 1153 903 1858 202 481 178 1092 -42 1092 -113 0 -142 -107 -121 -450 18 -302 -4 -405 -66 -312 -127 189 -315 51 -315 -231 0 -367 -117 -857 -205 -857 -44 0 -55 248 -24 550 48 466 32 550 -107 550 -128 0 -164 -101 -164 -462 0 -340 -106 -675 -400 -1262 -388 -775 -494 -1176 -311 -1176 49 0 117 150 151 333 72 383 310 751 417 644 40 -40 -92 -432 -292 -871 -201 -439 -365 -867 -365 -952 0 -257 -174 -172 -247 120 -60 239 -81 251 -166 99 -54 -96 -70 -219 -37 -274 34 -54 -26 -99 -133 -99 -154 0 -208 94 -263 455 -80 533 -3 951 260 1420 104 186 169 372 142 414 -26 43 17 319 95 614 78 296 117 562 87 592 -108 108 -318 -313 -387 -775 -38 -258 -155 -551 -260 -649 -147 -138 -195 -333 -207 -850 -19 -806 -18 -835 29 -1006 20 -74 -67 -174 -194 -224 -185 -71 -276 -40 -461 160 -279 301 -394 319 -308 49 85 -268 -68 -255 -240 20 -97 157 -104 232 -24 259 181 60 132 293 -73 347 -227 59 -398 691 -502 1849 -6 69 -56 125 -111 125 -252 0 76 -2044 415 -2587 167 -267 106 -312 -310 -228 -271 56 -371 144 -476 418 l-134 347 211 -275 c116 -151 277 -275 358 -275 123 0 117 51 -33 304 -98 168 -297 418 -441 555 l-261 250 -163 -249 c-100 -153 -125 -273 -65 -311 168 -104 109 -249 -101 -249 -152 0 -200 67 -200 280 0 320 -160 520 -415 520 -216 0 -375 265 -310 514 61 233 -205 650 -467 734 -109 34 -226 150 -260 257 -92 292 -248 235 -248 -91 0 -190 118 -411 350 -657 193 -204 350 -430 350 -502 0 -72 65 -184 144 -250 148 -123 108 -405 -58 -405 -51 0 -121 75 -156 167 -60 156 -150 268 -624 783 -101 110 -216 307 -256 437 -63 209 -116 231 -460 184 -338 -45 -390 -26 -390 143 0 108 71 334 158 502 186 358 119 746 -142 829 -101 32 -347 -10 -547 -93 -471 -197 -469 -198 -469 117 0 167 150 446 400 743 220 260 400 497 400 526 0 144 -731 381 -1005 326 -372 -74 -469 105 -318 595 130 424 -29 562 -198 172 -67 -155 -348 -503 -625 -774 -409 -400 -510 -459 -539 -312 -19 100 19 282 85 405 95 178 89 280 -31 513 -82 159 -182 502 -221 762 -40 270 -113 447 -169 412 -57 -35 -70 -246 -31 -510 47 -310 34 -428 -40 -382 -60 37 -108 222 -108 411 0 189 -45 344 -100 344 -55 0 -100 -182 -100 -405 0 -300 66 -470 256 -660 231 -232 250 -306 190 -781 -54 -432 -37 -536 97 -587 98 -38 230 16 332 135 214 250 295 249 375 -2 106 -335 250 -224 250 194 0 410 137 615 236 355 32 -82 179 -149 328 -149 l271 0 -203 -225 c-331 -368 -351 -458 -127 -578 173 -92 236 -80 345 70 74 100 168 149 210 107 41 -42 -56 -217 -217 -388 -194 -207 -251 -328 -168 -357 69 -25 125 -107 125 -182 0 -75 142 -348 316 -606 336 -498 365 -496 677 47 44 76 136 119 206 96 82 -28 17 -146 -182 -335 -288 -271 -299 -304 -148 -470 149 -165 149 -193 -1 -359 -218 -241 -254 -621 -68 -728 83 -48 375 -186 650 -307 275 -121 613 -296 750 -388 466 -314 804 -308 1130 18 347 347 511 327 516 -63 3 -243 60 -299 396 -393 876 -247 494 -326 -1676 -348 -1981 -19 -2145 -7 -2203 159 -35 99 -88 233 -119 297 -36 77 15 99 150 63 124 -32 206 -5 206 68 0 66 -82 142 -183 168 -100 27 -260 180 -355 341 -229 387 -515 375 -763 -32 -226 -371 -278 -694 -79 -495 172 172 249 149 312 -93 40 -153 105 -194 229 -147 159 61 334 -76 337 -265 4 -178 -634 -64 -815 145 l-191 220 -56 -211 c-66 -254 -539 -306 -2086 -229 -734 37 -993 84 -974 177 53 265 -353 1226 -601 1421 -284 224 -707 294 -495 82 66 -66 120 -201 120 -300 0 -99 70 -180 155 -180 177 0 445 -570 445 -947 0 -203 -49 -253 -250 -253 -171 0 -250 55 -251 175 -1 96 -29 288 -63 425 -59 243 -56 244 93 50 182 -235 286 -177 209 117 -83 317 -938 620 -938 333 0 -55 68 -100 150 -100 83 0 150 -84 150 -187 0 -104 28 -329 62 -500 51 -255 31 -313 -111 -313 -128 0 -160 56 -119 211 67 255 -95 723 -223 644 -50 -31 -122 -236 -159 -456 -77 -454 -247 -537 -255 -124 -4 151 -15 847 -25 1545 l-20 1270 208 -261 c191 -239 442 -255 442 -28 0 122 -451 599 -566 599 -103 0 -100 967 2 1070 35 35 64 -12 64 -103 0 -92 71 -167 157 -167 101 0 139 62 108 175 -27 96 -78 276 -114 400 -35 124 -129 225 -208 225 -111 0 -143 160 -143 706 0 445 37 683 100 644 55 -34 101 -205 102 -381 2 -426 98 -554 403 -535 247 15 254 37 273 798 11 431 40 816 64 855 25 40 7 134 -39 209 -55 88 -130 -133 -213 -629 -123 -731 -285 -867 -288 -242 -1 151 -47 275 -102 275 -55 0 -100 -45 -100 -100 0 -55 -39 -100 -87 -100 -48 0 -95 383 -104 850 -16 793 -3 850 186 850 112 0 260 -90 328 -200 145 -231 377 -267 377 -57 0 186 -475 557 -713 557 -154 0 -186 76 -184 425 3 390 15 410 147 236 78 -104 161 -239 183 -300 22 -61 74 -79 117 -39 42 39 -40 310 -182 601 -238 486 -264 668 -319 2240 -56 1616 -49 1714 128 1760 164 43 182 126 143 663 -24 338 -14 614 23 614 37 0 135 -163 219 -363 91 -217 188 -327 242 -273 147 147 -46 677 -285 785 -120 54 -219 160 -219 235 0 81 -62 114 -150 80 -123 -47 -153 56 -164 564 -121 5313 -153 4274 -160 -5158z m246 3505 c-22 -179 -40 -32 -40 325 0 357 18 504 40 325 23 -179 23 -471 0 -650z m18728 -10024 c0 -112 -354 -451 -472 -451 -187 0 -157 93 97 306 220 183 375 243 375 145z m-11570 -498 c-185 -253 -338 -280 -407 -72 -22 66 65 161 194 213 368 147 405 123 213 -141z m11770 147 c0 -55 -45 -100 -100 -100 -55 0 -100 45 -100 100 0 55 45 100 100 100 55 0 100 -45 100 -100z m-1200 -200 c0 -55 -48 -100 -106 -100 -58 0 -78 45 -44 100 34 55 82 100 106 100 24 0 44 -45 44 -100z m-1003 -906 c-153 -286 -313 -239 -180 53 62 136 151 223 198 194 47 -29 39 -140 -18 -247z m-8458 -696 c203 -508 202 -527 -32 -402 -107 57 -276 97 -375 88 -491 -43 -632 16 -632 261 0 279 229 448 614 452 216 2 293 -70 425 -399z m-2197 -962 c34 -91 42 -185 17 -210 -79 -80 -259 80 -259 230 0 196 164 182 242 -20z"/>
<path d="M4424 21578 c22 -67 141 -146 264 -175 410 -97 269 -252 -313 -344 -786 -125 -745 -298 50 -207 752 85 775 97 775 394 0 173 -83 263 -315 344 -405 142 -511 139 -461 -12z"/>
<path d="M14400 21520 c0 -99 54 -234 120 -300 114 -114 480 -171 480 -75 0 25 -115 160 -255 300 -302 303 -345 312 -345 75z"/>
<path d="M7267 21533 c-135 -134 -61 -233 175 -233 306 0 558 95 558 211 0 103 -633 122 -733 22z"/>
<path d="M21957 21443 c-222 -222 -196 -274 101 -200 226 57 250 39 193 -139 -51 -160 -20 -204 142 -204 162 0 207 64 207 289 0 403 -354 543 -643 254z"/>
<path d="M2100 21361 c0 -131 203 -261 408 -261 155 0 102 275 -66 339 -247 95 -342 73 -342 -78z"/>
<path d="M13103 21244 c-3 -323 232 -742 351 -623 94 94 -10 483 -196 729 -146 193 -152 189 -155 -106z"/>
<path d="M24600 21417 c0 -141 113 -206 260 -149 208 80 169 232 -60 232 -110 0 -200 -37 -200 -83z"/>
<path d="M569 21236 c-80 -80 11 -236 137 -236 52 0 94 68 94 150 0 155 -118 199 -231 86z"/>
<path d="M5973 21191 c-98 -57 -154 -141 -125 -188 63 -101 752 95 752 214 0 116 -413 98 -627 -26z"/>
<path d="M9100 21236 c0 -135 362 -330 619 -333 447 -5 408 166 -65 285 -515 130 -554 134 -554 48z"/>
<path d="M12157 21211 c-67 -108 115 -263 418 -355 263 -81 296 59 68 287 -174 173 -401 205 -486 68z"/>
<path d="M13843 21038 c82 -331 222 -506 324 -404 102 101 -92 591 -256 646 -107 36 -123 -20 -68 -242z"/>
<path d="M18825 21127 c-565 -51 -546 -227 25 -227 333 0 450 39 450 150 0 83 -11 142 -25 133 -14 -10 -216 -35 -450 -56z"/>
<path d="M20963 21121 c-85 -137 538 -360 661 -237 78 78 31 138 -164 212 -327 125 -432 130 -497 25z"/>
<path d="M17000 21011 c0 -118 292 -227 411 -154 51 31 66 99 35 150 -74 119 -446 122 -446 4z"/>
<path d="M7800 20869 c0 -89 179 -190 462 -262 546 -137 672 -80 272 123 -499 254 -734 299 -734 139z"/>
<path d="M20600 20808 c0 -114 34 -209 75 -209 41 -1 176 -29 300 -62 275 -74 321 206 50 301 -96 34 -231 88 -300 120 -79 37 -125 -19 -125 -150z"/>
<path d="M23500 20742 c0 -123 -65 -144 -300 -92 -235 52 -300 31 -300 -92 0 -87 34 -159 75 -159 41 -1 176 -29 300 -62 165 -44 225 -18 225 101 0 89 45 162 100 162 55 0 100 68 100 150 0 83 -45 150 -100 150 -55 0 -100 -71 -100 -158z"/>
<path d="M5777 20744 c-134 -134 34 -244 373 -244 186 0 366 45 400 100 34 55 20 100 -32 100 -51 0 -223 26 -381 58 -159 31 -321 25 -360 -14z"/>
<path d="M10000 20731 c0 -282 575 -439 886 -242 96 61 37 100 -200 134 -185 25 -415 81 -511 122 -96 42 -175 36 -175 -14z"/>
<path d="M15717 20700 c18 -55 67 -100 108 -100 41 0 210 0 375 0 165 0 300 45 300 100 0 55 -184 100 -408 100 -228 0 -394 -44 -375 -100z"/>
<path d="M19127 20538 c29 -159 149 -668 266 -1132 165 -654 210 -1118 200 -2064 -7 -761 32 -1301 104 -1437 119 -222 183 -438 274 -930 29 -151 92 -275 140 -275 173 0 86 672 -145 1128 -140 276 -201 514 -153 592 44 72 52 691 17 1377 -67 1318 -402 2910 -629 2986 -91 30 -112 -40 -74 -245z"/>
<path d="M24439 20656 c-74 -191 18 -456 158 -456 133 0 135 469 2 550 -55 35 -127 -8 -160 -94z"/>
<path d="M17275 20630 c-467 -74 -306 -243 200 -210 261 16 475 75 475 130 0 113 -267 144 -675 80z"/>
<path d="M567 20533 c-238 -238 91 -311 389 -86 187 141 184 147 -64 150 -142 2 -289 -27 -325 -64z"/>
<path d="M4200 20448 c0 -145 885 -253 969 -118 74 121 31 138 -494 194 -345 37 -475 17 -475 -76z"/>
<path d="M24927 20200 c0 -247 20 -349 44 -225 23 124 23 326 0 450 -24 124 -44 23 -44 -225z"/>
<path d="M15427 20269 c51 -152 694 -157 744 -6 24 72 -114 115 -373 119 -275 4 -397 -34 -371 -113z"/>
<path d="M1954 20207 c-31 -51 -8 -123 51 -160 150 -93 995 43 995 159 0 122 -970 123 -1046 1z"/>
<path d="M21900 20158 c0 -87 71 -158 158 -158 177 0 146 215 -39 277 -66 22 -119 -32 -119 -119z"/>
<path d="M6617 20100 c50 -151 211 -167 258 -25 23 69 -33 125 -125 125 -92 0 -152 -45 -133 -100z"/>
<path d="M14750 20000 c-89 -144 454 -336 585 -205 125 125 89 159 -254 241 -148 36 -297 19 -331 -36z"/>
<path d="M7600 19911 c0 -133 301 -224 516 -156 103 33 161 101 130 152 -74 119 -646 122 -646 4z"/>
<path d="M12000 19911 c0 -137 332 -311 593 -311 201 0 283 144 132 232 -200 118 -725 175 -725 79z"/>
<path d="M18367 19933 c-135 -135 -61 -233 177 -233 292 0 419 154 197 240 -203 77 -292 76 -374 -7z"/>
<path d="M9123 19780 c47 -141 577 -302 577 -175 0 101 -331 295 -502 295 -63 0 -97 -54 -75 -120z"/>
<path d="M10723 19780 c45 -133 665 -325 756 -235 31 32 -30 123 -136 203 -236 178 -676 201 -620 32z"/>
<path d="M16925 19797 c-367 -148 -257 -251 225 -213 248 20 450 77 450 126 0 50 -41 90 -92 90 -50 0 -152 20 -225 44 -73 24 -234 3 -358 -47z"/>
<path d="M20519 19790 c54 -164 681 -253 681 -96 0 58 -56 107 -125 107 -69 1 -232 30 -363 66 -178 47 -227 28 -193 -77z"/>
<path d="M13600 19673 c0 -194 527 -410 793 -325 306 97 252 224 -118 276 -179 25 -404 80 -500 121 -122 53 -175 32 -175 -72z"/>
<path d="M23250 19700 c-69 -111 441 -342 539 -245 62 63 -267 345 -402 345 -41 0 -103 -45 -137 -100z"/>
<path d="M925 19627 c-234 -21 -425 -81 -425 -133 0 -105 626 -125 975 -31 265 71 304 245 50 220 -96 -10 -366 -35 -600 -56z"/>
<path d="M7655 19508 c-67 -109 180 -208 521 -208 292 0 943 -207 1032 -328 92 -126 792 -212 792 -97 0 173 -279 342 -520 314 -126 -15 -365 42 -530 128 -360 186 -1220 313 -1295 191z"/>
<path d="M5650 19399 c-63 -101 7 -139 425 -231 325 -71 385 114 75 232 -331 126 -422 126 -500 -1z"/>
<path d="M18549 19398 c-35 -56 -96 -81 -136 -56 -103 64 -371 -117 -291 -197 78 -79 678 169 678 279 0 111 -178 93 -251 -26z"/>
<path d="M24800 19400 c0 -55 45 -100 100 -100 55 0 100 45 100 100 0 55 -45 100 -100 100 -55 0 -100 -45 -100 -100z"/>
<path d="M12700 19262 c0 -140 396 -300 495 -200 59 59 -283 338 -414 338 -45 0 -81 -62 -81 -138z"/>
<path d="M16925 19328 c-381 -48 -440 -228 -75 -228 140 0 250 -58 250 -131 0 -72 135 -231 300 -353 165 -122 300 -278 300 -346 0 -69 128 -281 285 -472 411 -500 633 -974 600 -1281 -15 -147 16 -289 69 -317 144 -75 175 757 38 1021 -264 510 -1019 1587 -1202 1714 -121 85 -171 199 -132 301 35 90 25 157 -22 148 -47 -9 -232 -34 -411 -56z"/>
<path d="M4100 19204 c0 -133 784 -332 985 -250 118 48 37 106 -285 205 -534 164 -700 175 -700 45z"/>
<path d="M23175 19242 c-133 -133 39 -242 381 -242 189 0 344 45 344 100 0 55 -56 101 -125 101 -69 1 -216 26 -328 56 -111 30 -233 23 -272 -15z"/>
<path d="M3021 19088 c42 -128 682 -318 772 -229 83 83 -143 220 -480 291 -258 54 -326 40 -292 -62z"/>
<path d="M11246 19106 c37 -59 205 -179 374 -266 252 -131 321 -135 389 -25 110 178 16 247 -444 329 -263 47 -364 35 -319 -38z"/>
<path d="M15069 19136 c-134 -134 30 -187 472 -152 253 20 459 77 459 126 0 102 -832 125 -931 26z"/>
<path d="M2250 19000 c34 -55 172 -100 306 -100 134 0 244 45 244 100 0 55 -138 100 -306 100 -178 0 -280 -42 -244 -100z"/>
<path d="M20340 18845 c-35 -140 -38 -280 -7 -312 86 -85 367 229 367 410 0 257 -291 178 -360 -98z"/>
<path d="M24272 19039 c-36 -37 -43 -106 -13 -153 74 -120 541 -108 541 14 0 55 -41 100 -92 100 -50 0 -154 24 -230 53 -76 29 -169 23 -206 -14z"/>
<path d="M725 18929 c-124 -23 -225 -87 -225 -141 0 -145 927 -62 976 87 41 125 -266 148 -751 54z"/>
<path d="M6688 18825 c-6 -96 1 -220 16 -275 16 -55 55 -299 87 -542 79 -589 309 -671 309 -110 0 228 -47 503 -104 610 -81 151 -70 208 49 254 201 77 98 238 -151 238 -114 0 -199 -73 -206 -175z"/>
<path d="M21974 18883 c-151 -55 -255 -133 -231 -172 71 -114 770 0 730 119 -51 154 -184 168 -499 53z"/>
<path d="M4848 18698 c-40 -66 -12 -160 64 -208 190 -120 788 -113 788 10 0 55 -126 100 -280 100 -154 0 -329 49 -389 109 -78 78 -129 75 -183 -11z"/>
<path d="M10659 18725 c-125 -125 -44 -198 353 -317 287 -86 444 -92 517 -19 73 73 61 118 -37 149 -78 24 -284 90 -458 145 -175 55 -343 74 -375 42z"/>
<path d="M18668 18725 c-24 -41 62 -435 192 -875 129 -440 236 -946 238 -1125 2 -368 170 -443 222 -100 39 254 -30 643 -276 1550 -156 578 -266 739 -376 550z"/>
<path d="M20801 18385 c-216 -297 -302 -531 -304 -825 -3 -381 -14 -396 -149 -217 -177 234 -262 166 -310 -249 -28 -244 -4 -302 110 -259 80 31 172 13 205 -39 101 -165 360 -105 342 79 -57 555 29 829 405 1301 458 576 474 624 201 624 -119 0 -321 -168 -500 -415z"/>
<path d="M7900 18458 c0 -352 100 -558 271 -558 97 0 128 57 89 159 -33 88 -88 268 -121 400 -79 312 -239 311 -239 -1z"/>
<path d="M22697 18495 c-125 -235 -95 -614 53 -662 55 -18 108 169 117 417 20 502 -10 544 -170 245z"/>
<path d="M2828 18463 c21 -62 203 -127 405 -144 273 -23 367 7 367 119 0 109 -109 148 -404 144 -255 -4 -391 -48 -368 -119z"/>
<path d="M23234 18444 c-77 -201 147 -705 260 -584 107 114 15 740 -108 740 -51 0 -119 -70 -152 -156z"/>
<path d="M6139 18178 c65 -325 217 -556 306 -466 112 112 -77 788 -221 788 -115 0 -134 -74 -85 -322z"/>
<path d="M8572 18439 c-115 -115 29 -239 278 -239 131 0 266 45 300 100 34 55 -5 100 -86 100 -81 0 -210 24 -286 53 -76 29 -169 23 -206 -14z"/>
<path d="M12360 18284 c-88 -126 -160 -265 -160 -309 0 -136 501 -279 757 -214 369 92 290 239 -128 239 -349 0 -361 11 -203 168 145 146 202 151 414 37 136 -72 347 -106 470 -74 229 61 590 -75 590 -221 0 -45 -107 -62 -238 -37 -275 53 -454 -152 -250 -285 76 -50 318 -78 537 -64 493 32 582 282 219 618 -198 183 -413 245 -1048 300 -759 66 -808 58 -960 -158z"/>
<path d="M15300 18313 c0 -94 815 -232 895 -151 27 27 -17 91 -98 142 -186 118 -797 125 -797 9z"/>
<path d="M24300 18200 c0 -55 158 -100 350 -100 193 0 350 45 350 100 0 55 -157 100 -350 100 -192 0 -350 -45 -350 -100z"/>
<path d="M5100 18019 c0 -124 69 -252 154 -284 261 -101 297 59 65 290 l-219 219 0 -225z"/>
<path d="M7374 17940 c-62 -321 18 -657 137 -583 116 71 116 843 1 843 -49 0 -111 -117 -138 -260z"/>
<path d="M9700 18050 c0 -83 89 -150 200 -150 111 0 200 67 200 150 0 83 -89 150 -200 150 -111 0 -200 -67 -200 -150z"/>
<path d="M21369 17820 c-269 -281 -350 -520 -177 -520 198 0 408 128 408 248 0 70 68 184 150 252 83 68 150 164 150 212 0 178 -270 80 -531 -192z"/>
<path d="M1620 17880 c-66 -66 -120 -178 -120 -250 0 -71 -45 -130 -100 -130 -55 0 -100 90 -100 200 0 110 -45 200 -100 200 -107 0 -141 -626 -40 -727 123 -123 495 154 652 485 167 350 60 474 -192 222z"/>
<path d="M3319 17683 c45 -459 281 -493 281 -41 0 258 -44 358 -156 358 -116 0 -148 -83 -125 -317z"/>
<path d="M2800 17656 c0 -279 169 -427 318 -278 67 67 63 170 -12 311 -152 284 -306 267 -306 -33z"/>
<path d="M10950 17800 c34 -55 152 -100 262 -100 110 0 172 45 138 100 -34 55 -152 100 -262 100 -110 0 -172 -45 -138 -100z"/>
<path d="M17563 17821 c-39 -63 43 -329 183 -592 139 -262 282 -690 316 -951 73 -547 241 -545 232 3 -9 598 -575 1792 -731 1540z"/>
<path d="M4009 17617 c-142 -266 -138 -317 30 -317 176 0 299 302 174 427 -59 59 -136 18 -204 -110z"/>
<path d="M465 17401 c-70 -351 13 -625 172 -572 62 21 102 68 88 104 -14 37 -25 225 -25 417 0 428 -153 461 -235 51z"/>
<path d="M2268 17625 c-66 -111 110 -525 223 -525 176 0 218 188 88 396 -133 213 -237 256 -311 129z"/>
<path d="M8807 17512 c-133 -37 -261 -124 -284 -192 -31 -94 67 -109 393 -59 515 79 577 119 381 243 -163 103 -151 103 -490 8z"/>
<path d="M14900 17500 c0 -55 205 -100 456 -100 278 0 432 39 394 100 -34 55 -239 100 -456 100 -217 0 -394 -45 -394 -100z"/>
<path d="M16400 17507 c0 -108 389 -251 468 -173 28 29 22 101 -14 159 -81 132 -454 143 -454 14z"/>
<path d="M21600 17305 c-326 -253 -171 -410 281 -287 233 64 322 141 299 260 -46 241 -289 252 -580 27z"/>
<path d="M10300 17300 c0 -55 90 -100 200 -100 110 0 200 45 200 100 0 55 -90 100 -200 100 -110 0 -200 -45 -200 -100z"/>
<path d="M13167 17333 c-99 -99 -81 -633 21 -633 87 0 208 330 211 575 1 135 -124 166 -232 58z"/>
<path d="M23951 17204 c-90 -284 50 -911 218 -975 194 -75 427 150 261 252 -167 103 -335 589 -266 768 31 83 11 151 -47 151 -57 0 -131 -88 -166 -196z"/>
<path d="M1819 17125 c18 -96 134 -189 257 -207 246 -35 290 76 104 262 -179 179 -400 146 -361 -55z"/>
<path d="M4165 17117 c-91 -101 -135 -213 -98 -250 74 -75 433 215 433 348 0 142 -160 95 -335 -98z"/>
<path d="M11702 17204 c-81 -52 -338 -68 -571 -36 -386 53 -434 35 -543 -205 -70 -152 -202 -263 -314 -263 -242 0 -774 -557 -774 -811 0 -126 71 -189 214 -189 118 0 268 -74 334 -165 135 -184 469 -141 802 102 250 183 111 349 -153 184 -107 -66 -268 -121 -358 -121 -133 0 -141 27 -40 149 68 82 97 218 64 304 -47 123 -103 133 -262 48 -110 -60 -200 -73 -200 -30 2 96 655 529 798 529 55 0 101 45 101 100 0 166 283 112 387 -73 92 -164 107 -164 288 0 208 188 425 229 425 79 0 -52 166 -108 369 -125 357 -30 363 -37 186 -213 -122 -121 -263 -162 -420 -123 -240 60 -735 -183 -735 -361 0 -52 153 -64 346 -28 319 60 350 43 406 -221 34 -157 104 -388 155 -515 51 -126 93 -340 93 -475 0 -135 45 -245 100 -245 55 0 100 151 100 336 0 325 12 335 350 298 346 -38 350 -35 339 339 -10 376 -11 376 -119 102 -60 -151 -146 -275 -192 -275 -149 0 -213 321 -100 502 61 97 83 203 50 236 -111 112 -328 -161 -338 -425 -10 -252 -15 -250 -113 57 -93 290 -74 348 210 632 255 256 293 348 209 505 -57 107 -208 193 -339 193 -130 0 -262 68 -293 150 -65 170 -244 191 -462 54z"/>
<path d="M5424 17075 c50 -149 423 -218 658 -122 149 61 146 78 -32 151 -315 129 -672 113 -626 -29z"/>
<path d="M23439 16958 c-94 -246 105 -1008 263 -1008 80 0 160 79 179 175 18 96 -15 175 -74 175 -59 0 -107 180 -107 400 0 391 -152 541 -261 258z"/>
<path d="M16124 16929 c-290 -55 -190 -229 132 -229 150 0 244 58 244 150 0 83 -34 144 -75 136 -41 -7 -177 -33 -301 -57z"/>
<path d="M22843 16867 c-28 -73 -16 -422 28 -775 89 -724 297 -801 248 -92 -17 248 -30 574 -29 725 2 284 -158 376 -247 142z"/>
<path d="M24600 16762 c0 -255 245 -532 338 -381 66 106 -152 617 -263 618 -41 1 -75 -106 -75 -237z"/>
<path d="M1447 16796 c-80 -131 130 -396 315 -396 206 0 167 278 -56 397 -134 72 -214 71 -259 -1z"/>
<path d="M4413 16738 c-94 -107 -104 -187 -33 -258 58 -58 81 -166 51 -242 -84 -220 142 -160 312 82 119 170 126 237 30 296 -67 42 -112 112 -98 155 46 145 -123 123 -262 -33z"/>
<path d="M9425 16834 c-174 -70 -157 -234 25 -234 83 0 150 68 150 150 0 83 -11 146 -25 142 -14 -4 -81 -30 -150 -58z"/>
<path d="M13457 16643 c-199 -199 -198 -210 43 -516 234 -298 259 -527 57 -527 -194 0 -290 -344 -212 -759 102 -544 341 -439 278 122 -41 367 -23 454 88 417 76 -25 154 -199 172 -387 37 -384 172 -593 383 -593 108 0 117 45 38 193 -57 107 -104 372 -104 590 0 271 -51 415 -160 457 -89 34 -137 124 -108 199 29 76 -14 233 -95 350 -302 430 214 523 578 104 91 -105 282 -235 425 -289 323 -123 364 -504 54 -504 -113 0 -178 -45 -144 -100 104 -168 437 -111 546 93 179 335 116 507 -271 735 -337 199 -352 225 -150 254 124 18 225 69 225 114 0 135 -316 215 -441 111 -72 -59 -171 -60 -262 -3 -231 146 -767 111 -940 -61z"/>
<path d="M17000 16696 c0 -124 306 -619 443 -714 150 -106 257 5 257 267 0 165 -95 284 -315 394 -373 186 -385 187 -385 53z"/>
<path d="M7300 16609 c0 -93 389 -309 557 -309 77 0 46 300 -32 301 -41 1 -176 29 -300 62 -137 37 -225 16 -225 -54z"/>
<path d="M22100 16547 c0 -211 319 -747 445 -747 211 0 195 163 -52 510 -183 257 -393 384 -393 237z"/>
<path d="M5950 16300 c-35 -57 49 -100 194 -100 141 0 256 45 256 100 0 55 -87 100 -194 100 -107 0 -222 -45 -256 -100z"/>
<path d="M15800 16297 c0 -129 285 -245 376 -154 38 37 2 110 -79 161 -193 122 -297 120 -297 -7z"/>
<path d="M21133 16188 c36 -131 66 -418 69 -638 3 -322 24 -366 107 -224 144 248 73 998 -99 1055 -105 34 -124 -15 -77 -193z"/>
<path d="M1600 16174 c0 -206 402 -412 537 -275 84 85 64 151 -81 258 -240 177 -456 185 -456 17z"/>
<path d="M9050 16200 c-34 -55 34 -100 150 -100 116 0 184 45 150 100 -34 55 -101 100 -150 100 -49 0 -116 -45 -150 -100z"/>
<path d="M20445 15975 c37 -124 93 -416 124 -650 62 -460 178 -549 284 -215 76 239 -215 1090 -373 1090 -61 0 -75 -93 -35 -225z"/>
<path d="M5375 16022 c-262 -55 -211 -222 67 -222 133 0 313 -27 400 -61 100 -38 158 -6 158 89 0 155 -324 256 -625 194z"/>
<path d="M8100 15961 c0 -77 74 -168 164 -203 208 -79 257 -30 178 178 -77 200 -342 219 -342 25z"/>
<path d="M24252 15925 c41 -96 96 -276 123 -400 26 -124 111 -225 187 -225 201 0 170 440 -45 635 -238 215 -358 210 -265 -10z"/>
<path d="M6750 15900 c-73 -118 184 -239 371 -176 83 27 51 84 -90 160 -144 77 -240 82 -281 16z"/>
<path d="M24908 15858 c-4 -105 19 -164 52 -131 34 33 37 120 8 192 -32 80 -55 56 -60 -61z"/>
<path d="M1100 15817 c0 -45 113 -188 250 -317 187 -176 250 -197 250 -83 0 84 -82 226 -183 318 -200 180 -317 211 -317 82z"/>
<path d="M3100 15367 c0 -303 -27 -622 -61 -709 -33 -87 -11 -158 48 -158 234 0 364 1295 138 1373 -90 32 -125 -110 -125 -506z"/>
<path d="M700 15614 c0 -103 139 -361 309 -575 170 -214 374 -543 452 -732 105 -251 173 -313 255 -231 144 144 33 377 -541 1138 -151 201 -275 415 -275 475 0 61 -45 111 -100 111 -55 0 -100 -84 -100 -186z"/>
<path d="M3557 15060 c-86 -298 -157 -638 -157 -757 0 -119 -47 -303 -104 -410 -81 -152 -70 -193 50 -193 93 0 154 89 154 225 0 124 90 540 200 925 234 817 224 750 107 750 -51 0 -164 -243 -250 -540z"/>
<path d="M16000 15400 c0 -110 63 -200 141 -200 91 0 122 70 88 200 -29 110 -92 200 -141 200 -48 0 -88 -90 -88 -200z"/>
<path d="M19000 15525 c-1 -181 462 -925 575 -925 174 0 161 53 -135 557 -232 397 -440 570 -440 368z"/>
<path d="M11203 15333 c-5 -318 99 -533 258 -533 198 0 172 238 -58 514 -196 235 -196 235 -200 19z"/>
<path d="M5700 15300 c0 -55 113 -100 250 -100 138 0 250 45 250 100 0 55 -112 100 -250 100 -137 0 -250 -45 -250 -100z"/>
<path d="M8925 15328 c-172 -61 -158 -228 19 -228 166 0 297 165 183 230 -43 23 -133 23 -202 -2z"/>
<path d="M2000 15205 c0 -297 232 -1105 317 -1105 93 0 48 567 -81 1025 -52 183 -236 245 -236 80z"/>
<path d="M21700 15206 c0 -52 39 -118 87 -148 48 -30 114 -190 148 -356 71 -355 235 -398 290 -77 30 176 56 143 118 -150 43 -206 119 -375 168 -375 114 0 113 707 -1 888 -48 76 -138 107 -200 68 -61 -38 -138 2 -171 88 -64 167 -439 220 -439 62z"/>
<path d="M2578 15127 c-74 -160 43 -1527 130 -1527 121 0 120 1471 -1 1546 -51 31 -109 23 -129 -19z"/>
<path d="M4500 15100 c0 -55 68 -100 150 -100 83 0 150 45 150 100 0 55 -67 100 -150 100 -82 0 -150 -45 -150 -100z"/>
<path d="M7300 15112 c0 -105 510 -217 635 -140 48 29 25 92 -49 139 -179 113 -586 113 -586 1z"/>
<path d="M15400 15055 c0 -89 -68 -187 -150 -219 -86 -33 -150 -182 -150 -347 0 -333 156 -386 251 -85 45 142 121 187 249 146 237 -75 376 147 180 290 -82 61 -157 155 -165 210 -26 171 -215 176 -215 5z"/>
<path d="M23966 15133 c-104 -104 -77 -414 43 -488 60 -37 143 -29 184 19 91 103 -132 564 -227 469z"/>
<path d="M24496 14939 c-117 -308 -55 -575 120 -517 128 43 178 670 59 744 -42 25 -122 -77 -179 -227z"/>
<path d="M9144 14911 c-136 -136 7 -211 406 -211 248 0 450 -45 450 -100 0 -55 48 -100 107 -100 59 0 93 101 75 225 -28 197 -91 225 -513 228 -264 1 -500 -17 -525 -42z"/>
<path d="M16700 14918 c0 -146 87 -188 551 -271 363 -64 385 -56 248 89 -186 195 -799 335 -799 182z"/>
<path d="M23356 14775 c93 -304 128 -331 261 -198 86 86 82 153 -13 269 -189 227 -328 187 -248 -71z"/>
<path d="M4900 14750 c0 -92 56 -148 125 -125 142 47 126 208 -25 258 -55 19 -100 -41 -100 -133z"/>
<path d="M18503 14825 c4 -92 466 -625 542 -625 130 0 38 317 -145 500 -201 201 -403 265 -397 125z"/>
<path d="M8425 14475 c23 -69 102 -125 175 -125 73 0 152 56 175 125 25 74 -46 125 -175 125 -129 0 -200 -51 -175 -125z"/>
<path d="M11562 14100 c62 -540 175 -797 296 -675 97 97 -57 837 -216 1041 -128 164 -137 124 -80 -366z"/>
<path d="M6654 14307 c-31 -51 -9 -123 50 -160 152 -94 616 39 544 156 -76 124 -518 127 -594 4z"/>
<path d="M7900 14300 c0 -55 90 -100 200 -100 110 0 200 45 200 100 0 55 -90 100 -200 100 -110 0 -200 -45 -200 -100z"/>
<path d="M10500 14362 c0 -29 105 -158 233 -286 128 -128 283 -321 344 -429 79 -141 142 -166 219 -90 153 151 -288 784 -574 825 -122 18 -222 8 -222 -20z"/>
<path d="M4052 14175 c-74 -222 -5 -1323 87 -1375 49 -27 105 299 125 725 23 490 -2 775 -67 775 -57 0 -122 -56 -145 -125z"/>
<path d="M12169 14230 c-93 -150 28 -930 144 -930 100 0 99 435 -2 799 -45 160 -96 207 -142 131z"/>
<path d="M16900 14068 c0 -81 118 -176 262 -212 473 -119 439 146 -37 289 -162 49 -225 27 -225 -77z"/>
<path d="M18100 14131 c0 -112 212 -331 320 -331 44 0 80 68 80 150 0 82 -19 150 -42 150 -23 0 -113 27 -200 61 -87 33 -158 20 -158 -30z"/>
<path d="M5569 14028 c-158 -24 -264 -94 -242 -160 22 -65 81 -108 131 -95 51 12 283 51 517 86 234 35 425 104 425 152 0 89 -308 95 -831 17z"/>
<path d="M8819 13994 c24 -72 103 -151 175 -175 75 -25 112 12 87 87 -24 72 -103 151 -175 175 -75 25 -112 -12 -87 -87z"/>
<path d="M13360 13791 c-196 -394 -204 -591 -23 -591 85 0 158 159 193 423 72 534 33 573 -170 168z"/>
<path d="M20378 13925 c-370 -424 -493 -925 -228 -925 91 0 150 93 150 237 0 130 90 350 200 490 110 140 200 281 200 314 0 117 -172 55 -322 -116z"/>
<path d="M20810 13616 c-344 -537 -394 -816 -146 -816 90 0 220 -77 289 -171 106 -146 150 -151 287 -37 125 104 136 166 47 273 -89 107 -72 189 74 362 104 123 233 254 286 293 54 38 64 102 24 143 -41 40 -230 -78 -421 -263 -439 -425 -562 -323 -215 179 281 405 320 521 175 521 -49 0 -229 -218 -400 -484z"/>
<path d="M24200 14022 c0 -159 317 -522 456 -522 191 0 177 102 -50 375 -184 221 -406 301 -406 147z"/>
<path d="M4502 13425 c1 -538 119 -937 241 -816 85 85 -63 1391 -157 1391 -48 0 -85 -259 -84 -575z"/>
<path d="M12718 13636 c18 -213 77 -375 132 -361 149 37 121 651 -32 702 -97 33 -123 -57 -100 -341z"/>
<path d="M13963 13775 c-87 -326 -76 -575 25 -575 49 0 111 101 137 225 27 124 82 304 123 400 51 121 28 175 -76 175 -82 0 -176 -101 -209 -225z"/>
<path d="M15669 13936 c-121 -121 43 -236 337 -236 316 0 395 140 136 239 -205 79 -392 78 -473 -3z"/>
<path d="M22531 13647 c61 -376 216 -633 319 -530 98 98 -104 818 -243 864 -107 36 -124 -38 -76 -334z"/>
<path d="M23119 13625 c27 -324 68 -379 303 -406 221 -26 283 17 337 232 91 362 -120 569 -246 241 l-92 -242 -108 275 c-151 384 -231 343 -194 -100z"/>
<path d="M9400 13812 c0 -48 68 -144 150 -212 125 -104 150 -90 150 88 0 122 -64 212 -150 212 -82 0 -150 -39 -150 -88z"/>
<path d="M1702 13331 c1 -310 150 -612 252 -510 85 84 -42 660 -162 734 -50 31 -91 -70 -90 -224z"/>
<path d="M900 13362 c0 -159 278 -417 361 -335 76 77 -145 473 -265 473 -53 0 -96 -62 -96 -138z"/>
<path d="M5300 13357 c0 -102 90 -157 258 -157 314 0 279 235 -41 282 -144 21 -217 -21 -217 -125z"/>
<path d="M19242 13254 c-76 -301 15 -592 157 -504 129 79 132 619 4 698 -53 33 -126 -54 -161 -194z"/>
<path d="M21745 13257 c-125 -191 -135 -289 -47 -453 143 -267 289 -183 229 132 -25 132 3 271 64 308 60 37 109 110 109 162 0 176 -195 94 -355 -149z"/>
<path d="M3198 13143 c-141 -369 -121 -700 51 -842 120 -100 160 -94 208 30 32 84 14 236 -40 337 -54 101 -75 307 -46 458 66 346 -44 357 -173 17z"/>
<path d="M7700 13307 c0 -130 373 -236 517 -146 83 51 60 97 -74 149 -272 107 -443 106 -443 -3z"/>
<path d="M9474 13075 c-294 -557 -474 -1182 -474 -1645 0 -403 21 -441 225 -412 153 22 236 112 258 282 52 384 217 490 217 139 0 -404 240 -735 411 -566 99 97 90 160 -43 308 -93 101 -169 339 -170 527 -1 331 -141 685 -232 589 -25 -26 -118 -223 -207 -437 -89 -215 -181 -371 -206 -347 -55 55 243 1101 354 1240 45 57 128 226 185 375 152 400 -101 358 -318 -53z"/>
<path d="M18633 13034 c60 -369 215 -619 320 -515 80 80 -184 881 -290 881 -49 0 -62 -165 -30 -366z"/>
<path d="M446 13194 c-36 -59 14 -195 112 -303 228 -252 409 -95 226 197 -147 236 -240 265 -338 106z"/>
<path d="M2340 13160 c-86 -224 0 -815 110 -760 55 28 100 241 100 475 0 418 -105 560 -210 285z"/>
<path d="M15046 13193 c-90 -145 -37 -181 361 -249 l343 -59 -236 208 c-265 233 -372 256 -468 100z"/>
<path d="M11120 13080 c-200 -200 -80 -2149 130 -2113 197 34 309 333 160 426 -101 63 -143 326 -150 947 -6 473 -12 859 -15 860 -3 0 -59 -54 -125 -120z"/>
<path d="M6400 12861 c0 -219 214 -414 328 -299 65 64 -158 536 -253 537 -41 1 -75 -107 -75 -238z"/>
<path d="M16800 12715 c0 -57 70 -407 157 -778 126 -547 133 -719 33 -906 -157 -293 -21 -445 168 -187 167 228 167 289 10 1198 -66 381 -176 711 -244 733 -68 23 -124 -4 -124 -60z"/>
<path d="M24145 12567 c-91 -364 -8 -1097 129 -1142 92 -30 117 141 100 667 -24 710 -120 909 -229 475z"/>
<path d="M8300 12600 c0 -55 90 -100 200 -100 110 0 200 45 200 100 0 55 -90 100 -200 100 -110 0 -200 -45 -200 -100z"/>
<path d="M11725 12347 c-80 -261 -75 -561 21 -1157 l129 -805 -238 59 c-173 44 -237 18 -237 -95 0 -90 121 -178 294 -213 161 -32 317 -121 346 -197 30 -77 123 -139 207 -139 188 0 188 -7 1 440 -111 264 -124 417 -50 556 143 268 127 407 -41 343 -173 -67 -312 683 -225 1217 73 449 -68 444 -207 -9z"/>
<path d="M23300 12568 c0 -188 310 -1100 412 -1211 180 -198 173 28 -20 673 -111 368 -244 670 -297 670 -52 0 -95 -59 -95 -132z"/>
<path d="M10368 12390 c-56 -217 75 -1217 184 -1393 34 -55 104 -74 155 -43 124 77 119 518 -7 596 -55 34 -100 284 -100 556 0 503 -132 665 -232 284z"/>
<path d="M16100 12562 c0 -21 68 -199 150 -397 82 -197 150 -540 150 -762 0 -272 44 -403 135 -403 174 0 103 923 -101 1325 -114 226 -334 382 -334 237z"/>
<path d="M17643 11825 c4 -426 -29 -903 -72 -1060 -58 -205 -46 -273 41 -244 66 22 185 262 264 534 118 402 123 594 27 1020 -64 289 -151 525 -193 525 -41 0 -72 -349 -67 -775z"/>
<path d="M1222 12385 c24 -74 125 -151 223 -170 114 -22 162 14 133 100 -24 74 -125 151 -223 170 -114 22 -162 -14 -133 -100z"/>
<path d="M13067 12433 c-37 -36 -67 -261 -67 -500 0 -314 40 -433 147 -433 113 0 139 105 111 456 -38 479 -81 587 -191 477z"/>
<path d="M15649 12138 c83 -199 151 -512 151 -694 0 -375 194 -582 211 -225 33 678 -144 1281 -374 1281 -117 0 -115 -59 12 -362z"/>
<path d="M24761 12342 c-99 -258 -69 -1042 39 -1042 55 0 100 101 101 225 1 124 29 394 63 600 63 378 -82 532 -203 217z"/>
<path d="M14125 12334 c-226 -92 -131 -201 285 -325 494 -148 626 -61 304 200 -238 192 -358 218 -589 125z"/>
<path d="M14900 12300 c0 -55 35 -100 78 -100 44 0 159 -136 257 -302 203 -342 433 -312 249 33 -187 351 -584 602 -584 369z"/>
<path d="M5467 12233 c-126 -125 -67 -433 83 -433 93 0 150 94 150 250 0 243 -97 319 -233 183z"/>
<path d="M7000 12205 c0 -52 64 -131 143 -175 195 -109 628 -1065 771 -1705 121 -538 286 -708 286 -293 0 336 -285 1244 -563 1793 -165 326 -303 475 -439 475 -109 0 -198 -43 -198 -95z"/>
<path d="M12340 12160 c-36 -93 -12 -403 52 -689 64 -287 152 -680 195 -874 43 -193 128 -441 189 -550 104 -185 115 -186 180 -18 89 233 -1 774 -198 1191 -86 181 -174 478 -195 659 -46 397 -135 510 -223 281z"/>
<path d="M8000 12007 c0 -116 138 -454 306 -752 168 -298 292 -603 275 -676 -17 -74 14 -156 69 -182 201 -95 141 370 -136 1048 -285 700 -514 950 -514 562z"/>
<path d="M18337 11975 c33 -124 61 -439 62 -700 0 -261 46 -475 101 -475 55 0 100 110 100 244 0 457 174 354 240 -142 36 -271 110 -521 164 -554 144 -90 241 247 109 379 -62 62 -113 287 -113 500 0 341 -24 379 -200 323 -154 -49 -200 -18 -200 135 0 277 -103 515 -222 515 -56 0 -74 -100 -41 -225z"/>
<path d="M3573 11725 c-121 -295 -156 -327 -163 -150 -12 265 -267 304 -330 50 -73 -295 67 -1512 188 -1633 63 -63 167 -82 232 -42 85 52 87 103 9 181 -129 129 -145 588 -26 724 46 52 139 291 207 530 68 240 148 499 178 575 29 77 10 140 -44 140 -53 0 -166 -169 -251 -375z"/>
<path d="M22528 11975 c320 -803 413 -975 531 -975 109 0 97 105 -60 504 -110 277 -199 524 -199 550 0 25 -72 46 -161 46 -88 0 -138 -56 -111 -125z"/>
<path d="M562 11928 c-27 -26 -24 -111 6 -188 54 -143 533 -201 531 -65 -1 95 -473 318 -537 253z"/>
<path d="M1445 11791 c-37 -60 -17 -159 44 -220 61 -61 111 -188 111 -282 0 -124 -57 -155 -211 -115 -185 48 -202 25 -137 -184 155 -502 557 -1190 695 -1190 298 0 334 313 102 890 -124 308 -257 706 -295 885 -71 331 -188 412 -309 216z"/>
<path d="M20913 11339 c-222 -579 -255 -814 -152 -1081 117 -305 220 -153 224 331 2 269 71 651 153 848 83 197 114 381 69 409 -44 27 -177 -201 -294 -507z"/>
<path d="M4000 11425 c-60 -206 -136 -611 -168 -900 -47 -412 -30 -525 80 -525 77 0 186 -101 241 -225 79 -178 52 -296 -127 -564 -228 -342 -311 -1011 -126 -1011 55 0 100 91 100 203 0 112 72 371 160 575 155 360 164 365 265 147 107 -229 375 -313 375 -118 0 59 -113 300 -250 535 -228 388 -242 474 -152 948 55 287 167 619 251 738 179 256 212 573 42 403 -59 -59 -219 -327 -356 -595 -140 -277 -226 -378 -198 -236 167 849 179 1000 79 1000 -59 0 -156 -169 -216 -375z"/>
<path d="M21973 11640 c-52 -53 27 -395 177 -765 39 -96 134 -175 211 -175 157 0 187 158 47 245 -51 32 -122 191 -158 355 -66 302 -178 439 -277 340z"/>
<path d="M20203 11453 c-69 -83 -149 -443 -178 -800 -44 -546 -25 -659 116 -713 246 -95 301 17 167 341 -92 221 -92 394 -1 757 129 510 93 653 -104 415z"/>
<path d="M2372 11439 c-198 -198 80 -1339 326 -1339 164 0 244 298 115 427 -62 62 -113 230 -113 374 0 293 -217 649 -328 538z"/>
<path d="M5744 11275 c37 -124 94 -622 126 -1108 53 -796 77 -878 244 -834 102 26 211 7 242 -42 144 -234 244 -40 244 476 0 311 27 539 60 506 33 -33 60 -231 60 -441 0 -410 140 -768 269 -689 118 73 45 1545 -84 1701 -61 74 -200 158 -308 186 -156 40 -197 1 -197 -189 0 -389 -149 -277 -279 209 -80 299 -175 450 -282 450 -122 0 -145 -56 -95 -225z m656 -919 c0 -79 -45 -172 -100 -206 -55 -34 -100 31 -100 144 0 113 45 206 100 206 55 0 100 -65 100 -144z"/>
<path d="M19375 11327 c-97 -191 52 -1116 188 -1168 183 -71 301 217 150 368 -62 62 -113 259 -113 437 0 305 -140 531 -225 363z"/>
<path d="M13267 11233 c-139 -139 -59 -595 133 -760 110 -94 200 -261 200 -372 0 -298 164 -244 343 114 174 351 218 1134 57 1035 -55 -34 -100 -194 -100 -356 0 -162 -26 -294 -57 -294 -133 0 -343 302 -343 493 0 205 -105 269 -233 140z"/>
<path d="M21546 11057 c-94 -143 -194 -461 -221 -707 -40 -355 -17 -460 117 -511 247 -95 300 18 163 349 -102 247 -94 354 49 657 206 434 132 579 -108 212z"/>
<path d="M14471 10720 c-217 -492 -322 -1020 -203 -1020 111 0 387 616 481 1075 91 443 -73 410 -278 -55z"/>
<path d="M676 10943 c-72 -117 378 -1240 577 -1439 129 -129 147 -128 147 8 0 236 -658 1537 -724 1431z"/>
<path d="M5172 10939 c-38 -38 20 -214 129 -391 167 -269 221 -527 292 -1379 4 -44 52 -53 107 -19 128 79 127 601 -2 1050 -117 408 -424 840 -526 739z"/>
<path d="M7271 10275 c54 -883 80 -975 279 -975 119 0 134 43 62 177 -52 98 -106 424 -120 725 -28 603 -74 798 -189 798 -42 0 -56 -326 -32 -725z"/>
<path d="M23750 10800 c-110 -178 54 -300 406 -300 405 0 452 164 87 302 -323 124 -416 123 -493 -2z"/>
<path d="M4800 10678 c0 -84 68 -344 150 -578 83 -234 150 -577 150 -763 0 -233 46 -337 150 -337 315 0 103 1330 -265 1664 -160 144 -185 146 -185 14z"/>
<path d="M15048 10594 c-36 -115 -43 -233 -14 -262 84 -83 266 66 266 218 0 234 -182 265 -252 44z"/>
<path d="M21953 10125 c41 -96 131 -331 200 -521 119 -328 347 -538 347 -321 0 216 -399 1017 -507 1017 -71 0 -86 -67 -40 -175z"/>
<path d="M4500 10119 c0 -146 282 -470 350 -402 84 84 -125 483 -254 483 -53 0 -96 -36 -96 -81z"/>
<path d="M15755 10075 c-72 -232 -139 -1658 -81 -1716 32 -31 118 -7 192 54 106 88 147 46 197 -201 74 -374 308 -411 396 -63 79 316 276 211 214 -113 -60 -311 101 -409 280 -171 134 176 141 174 144 -40 2 -170 62 -225 245 -225 133 0 264 -56 292 -125 39 -96 74 -92 149 16 123 176 41 409 -144 409 -76 0 -139 45 -139 100 0 55 56 89 125 75 111 -22 138 338 80 1075 -17 216 -202 -216 -203 -475 -1 -177 -55 -275 -152 -275 -120 0 -150 150 -150 750 0 848 -193 1053 -212 225 -17 -805 -23 -823 -263 -857 -217 -31 -223 -8 -186 625 31 513 9 657 -100 657 -99 0 -139 -137 -141 -475 -1 -512 -114 -789 -279 -687 -65 40 -82 344 -47 813 41 539 24 749 -61 749 -64 0 -135 -56 -156 -125z"/>
<path d="M22768 10125 c-123 -209 -175 -725 -73 -725 116 0 149 69 249 525 54 248 -67 386 -176 200z"/>
<path d="M10847 9894 c-103 -166 576 -654 755 -543 165 102 109 349 -80 349 -98 0 -275 68 -393 151 -147 103 -237 117 -282 43z"/>
<path d="M18191 9975 c-5 -14 -31 -261 -57 -550 -40 -432 -21 -525 109 -525 124 0 157 116 157 550 0 303 -45 550 -100 550 -55 0 -104 -11 -109 -25z"/>
<path d="M9238 9756 c-68 -178 165 -676 344 -734 101 -33 115 46 61 342 -38 213 -89 420 -112 461 -70 123 -233 85 -293 -69z"/>
<path d="M14698 9748 c-70 -84 -105 -175 -78 -201 100 -100 680 84 680 216 0 186 -444 175 -602 -15z"/>
<path d="M24266 9827 c-27 -44 127 -269 343 -500 339 -364 390 -390 384 -198 -8 230 -640 837 -727 698z"/>
<path d="M19616 9200 c-123 -200 -215 -517 -216 -739 0 -397 390 -1557 525 -1560 41 0 75 223 75 496 0 381 -32 484 -138 444 -267 -103 -308 1012 -49 1324 58 71 86 186 62 257 -26 75 -133 -16 -259 -222z"/>
<path d="M3041 9150 c-133 -529 204 -1047 491 -757 91 92 78 142 -57 218 -114 64 -175 220 -175 444 0 400 -167 461 -259 95z"/>
<path d="M10500 9315 c0 -47 113 -208 251 -357 190 -205 328 -263 567 -239 174 17 336 90 360 163 24 72 -18 121 -92 109 -216 -37 -667 116 -794 269 -130 156 -292 186 -292 55z"/>
<path d="M14744 9258 c-256 -187 -175 -240 281 -183 231 29 375 100 375 186 0 181 -406 180 -656 -3z"/>
<path d="M20215 9267 c-189 -227 -183 -1242 9 -1434 156 -156 163 -121 108 536 -39 474 -22 725 55 773 134 83 151 258 25 258 -48 0 -137 -60 -197 -133z"/>
<path d="M20761 9242 c-94 -245 -72 -1000 37 -1288 96 -252 356 -434 464 -325 30 29 -24 173 -120 319 -118 181 -172 456 -169 859 6 573 -87 762 -212 435z"/>
<path d="M23900 9213 c0 -194 378 -1199 508 -1349 41 -48 122 -57 180 -22 67 42 -2 276 -191 649 -164 321 -297 657 -297 746 0 90 -45 163 -100 163 -55 0 -100 -84 -100 -187z"/>
<path d="M2147 9195 c-100 -162 39 -767 219 -947 144 -143 174 -142 346 13 201 182 253 439 88 439 -55 0 -100 -45 -100 -100 0 -251 -185 -64 -243 246 -70 374 -203 523 -310 349z"/>
<path d="M7849 9182 c-107 -276 -11 -628 180 -664 150 -29 168 12 111 249 -37 156 -103 351 -147 433 -69 130 -88 127 -144 -18z"/>
<path d="M8500 8897 c0 -181 62 -327 154 -362 228 -88 256 -8 122 347 -151 401 -276 408 -276 15z"/>
<path d="M1261 9018 c-71 -115 165 -660 329 -762 140 -87 410 48 410 205 0 76 -64 139 -142 139 -78 0 -228 119 -334 265 -124 170 -218 225 -263 153z"/>
<path d="M21526 8876 c-146 -333 -28 -1097 210 -1361 119 -131 132 -207 49 -290 -125 -125 -47 -425 112 -425 57 0 103 81 103 180 0 99 56 240 125 313 100 106 100 141 0 178 -69 25 -125 104 -125 175 0 71 -65 184 -145 250 -87 72 -158 347 -177 687 -29 538 -37 553 -152 293z"/>
<path d="M23300 8952 c0 -81 90 -295 200 -475 109 -180 199 -406 200 -502 0 -96 72 -175 161 -175 215 0 118 384 -228 908 -284 430 -333 465 -333 244z"/>
<path d="M15019 8914 c-323 -90 -233 -246 164 -287 270 -28 327 -2 300 136 -39 202 -151 239 -464 151z"/>
<path d="M18792 8786 c-64 -121 -95 -449 -70 -750 24 -295 6 -536 -41 -536 -153 0 -296 539 -233 874 34 179 20 326 -31 326 -102 0 -217 -476 -217 -902 0 -154 -67 -302 -150 -334 -290 -111 -146 -264 250 -264 220 0 400 45 400 100 0 181 176 104 229 -100 65 -248 329 -172 404 115 37 144 13 185 -88 147 -215 -83 -395 690 -271 1163 107 409 1 503 -182 161z"/>
<path d="M5800 8608 c0 -313 -107 -499 -255 -442 -111 42 -126 -48 -77 -457 39 -330 23 -509 -46 -509 -103 0 -144 136 -280 924 -74 432 -242 407 -242 -36 0 -790 368 -1560 624 -1304 64 64 197 116 296 116 99 0 273 93 388 208 163 163 200 307 175 675 l-33 467 369 31 c300 25 399 -15 530 -215 88 -135 294 -301 456 -368 162 -67 295 -162 295 -210 0 -48 177 -265 393 -481 l393 -393 -262 -172 -261 -171 293 -235 c293 -234 644 -315 644 -148 0 48 -100 154 -222 235 -210 139 -213 157 -50 319 201 201 212 278 62 428 -80 80 -74 215 21 495 229 673 259 677 870 133 307 -274 595 -498 639 -498 139 0 87 209 -114 465 -107 136 -249 492 -316 791 -77 344 -174 544 -263 544 -87 0 -121 -67 -88 -175 28 -96 82 -310 120 -475 l69 -300 -261 240 c-318 291 -477 198 -787 -459 -111 -237 -221 -431 -244 -431 -23 0 -179 155 -345 345 -167 190 -381 370 -476 400 -94 30 -255 195 -356 366 -181 307 -194 311 -759 247 -467 -53 -587 -36 -635 88 -83 218 -265 191 -265 -38z m98 -1283 c1 -69 -43 -125 -98 -125 -55 0 -99 124 -98 275 1 214 22 242 98 125 53 -82 98 -206 98 -275z"/>
<path d="M10573 8633 c-41 -64 -102 -316 -135 -560 -50 -365 -30 -455 115 -510 97 -37 187 -55 201 -40 15 15 -3 297 -40 627 -36 330 -99 547 -141 483z"/>
<path d="M22604 8629 c2 -44 132 -229 289 -412 186 -217 310 -293 356 -219 39 63 -12 206 -113 318 -214 236 -538 426 -532 313z"/>
<path d="M10851 8402 c-105 -171 51 -702 207 -702 78 0 142 60 142 134 0 74 113 185 250 248 328 149 327 341 -1 259 -139 -35 -314 -12 -391 53 -99 81 -160 84 -207 8z"/>
<path d="M14800 8250 c0 -82 70 -150 155 -150 85 0 266 -120 402 -267 167 -180 281 -235 349 -167 151 151 6 423 -313 588 -363 187 -593 186 -593 -4z"/>
<path d="M14655 7808 c-75 -121 513 -539 644 -458 142 87 -207 543 -418 547 -93 2 -195 -39 -226 -89z"/>
<path d="M11590 7538 c-116 -139 -108 -156 55 -125 104 21 207 93 230 162 59 178 -126 155 -285 -37z"/>
<path d="M2070 7437 c-35 -35 -93 -329 -130 -654 -80 -711 -302 -751 -266 -47 26 489 -122 626 -258 239 -95 -270 -79 -792 29 -966 43 -70 160 -105 261 -79 139 37 190 -16 213 -216 62 -530 212 -146 190 486 -18 524 2 626 104 525 249 -245 408 -150 333 200 -100 467 -302 685 -476 512z"/>
<path d="M14300 7383 c0 -65 74 -200 165 -300 157 -174 150 -183 -144 -183 -321 0 -500 -139 -321 -250 57 -35 76 -109 42 -163 -34 -55 17 -187 114 -293 168 -186 166 -194 -49 -194 -123 0 -419 -160 -659 -357 -431 -353 -433 -358 -240 -551 194 -194 198 -194 494 26 207 152 281 276 242 401 -47 148 -1 181 252 181 240 0 331 57 406 257 65 170 63 321 -6 450 -71 133 -71 193 0 193 57 0 104 90 104 200 0 110 45 200 100 200 202 0 92 271 -155 384 -317 144 -345 144 -345 -1z"/>
<path d="M22362 7348 c-181 -181 -212 -348 -66 -348 111 0 344 394 274 463 -25 26 -119 -26 -208 -115z"/>
<path d="M2852 7303 c-119 -193 -81 -1441 54 -1767 122 -295 113 -330 -145 -551 -249 -215 -264 -264 -160 -536 63 -164 130 -489 149 -722 43 -516 106 -627 356 -627 149 0 194 -70 194 -301 0 -177 82 -371 200 -472 160 -137 200 -295 200 -793 0 -675 140 -1183 300 -1084 55 34 100 169 100 300 0 339 175 403 387 142 257 -318 428 -169 351 308 -34 214 -11 533 50 709 165 473 3 622 -588 541 -566 -78 -645 2 -748 750 -142 1038 -87 1234 278 1003 121 -76 468 -190 770 -252 572 -119 573 -119 441 -680 -46 -196 -13 -336 112 -475 215 -237 320 -241 944 -38 445 146 505 146 734 -5 173 -113 271 -130 318 -54 92 148 -104 368 -393 441 -169 42 -260 161 -321 419 -47 197 -130 353 -185 344 -112 -16 -114 -146 -8 -478 52 -165 32 -225 -77 -225 -84 0 -178 131 -215 300 -64 293 -250 423 -250 175 -1 -195 -488 442 -573 750 -102 366 -269 393 -309 50 -37 -328 -149 -341 -644 -75 -205 110 -526 200 -713 200 -391 0 -548 238 -321 489 123 138 124 208 8 483 -75 179 -132 637 -127 1027 8 705 -41 911 -169 704z m348 -3503 c0 -220 -45 -400 -100 -400 -111 0 -139 628 -33 733 116 117 133 76 133 -333z m2636 -650 c32 -82 19 -150 -28 -150 -48 0 -113 68 -144 150 -32 83 -19 150 28 150 48 0 113 -67 144 -150z m-1100 -1100 c-31 -82 -98 -150 -147 -150 -49 0 -89 68 -89 150 0 83 66 150 147 150 89 0 124 -59 89 -150z m-536 -144 c0 -107 -45 -222 -100 -256 -57 -35 -100 49 -100 194 0 141 45 256 100 256 55 0 100 -87 100 -194z"/>
<path d="M3700 7056 c0 -421 -174 -567 -218 -183 -49 427 -234 230 -217 -231 14 -404 427 -1363 644 -1497 130 -81 56 216 -184 736 -97 208 -118 366 -59 425 60 60 186 -108 340 -454 134 -303 300 -550 369 -551 170 -1 163 31 -131 610 -140 278 -282 726 -314 997 -66 561 -230 666 -230 148z"/>
<path d="M7151 7038 c-173 -415 -187 -538 -63 -538 142 0 284 227 358 575 96 447 -103 422 -295 -37z"/>
<path d="M12717 7300 c50 -151 211 -167 258 -25 23 69 -33 125 -125 125 -92 0 -152 -45 -133 -100z"/>
<path d="M12275 7121 c-96 -19 -175 -100 -175 -178 0 -163 89 -179 287 -53 184 117 107 276 -112 231z"/>
<path d="M18075 7023 c-221 -47 -222 -166 -3 -422 177 -207 628 -279 628 -101 0 55 -48 100 -107 100 -59 0 -80 84 -47 188 64 200 -145 305 -471 235z"/>
<path d="M23157 6653 c-232 -606 -222 -1159 30 -1619 115 -211 254 -508 309 -659 54 -151 168 -275 252 -275 210 0 201 37 -217 928 l-369 787 158 593 c189 706 77 874 -163 245z"/>
<path d="M7666 6818 c-204 -225 -210 -318 -23 -318 79 0 173 93 209 208 91 284 13 330 -186 110z"/>
<path d="M19346 6675 c-87 -225 -15 -725 104 -725 138 0 189 651 61 779 -72 72 -123 56 -165 -54z"/>
<path d="M11856 6575 c-20 -69 -62 -202 -92 -297 -48 -150 95 -358 181 -263 107 118 157 685 60 685 -61 0 -128 -56 -149 -125z"/>
<path d="M12939 6525 c-31 -96 -101 -287 -156 -425 -123 -304 -106 -330 240 -368 218 -24 305 32 431 276 209 403 131 614 -98 265 -226 -345 -382 -355 -254 -16 54 141 98 298 98 350 0 163 -204 100 -261 -82z"/>
<path d="M23803 6432 c-223 -285 -235 -538 -28 -607 71 -24 125 41 125 151 0 106 89 273 198 372 188 170 190 352 3 352 -47 0 -181 -121 -298 -268z"/>
<path d="M11154 6507 c-76 -123 113 -507 250 -507 53 0 96 84 96 188 0 232 -254 467 -346 319z"/>
<path d="M12316 6345 c-140 -307 -151 -645 -22 -645 128 0 168 86 247 525 78 429 -53 498 -225 120z"/>
<path d="M21400 6350 c0 -156 57 -250 150 -250 161 0 185 92 89 342 -93 243 -239 187 -239 -92z"/>
<path d="M10550 6400 c-34 -55 -29 -153 11 -217 46 -75 21 -96 -70 -60 -77 32 -220 89 -316 128 -205 83 -243 -143 -55 -331 67 -67 76 -120 20 -120 -55 0 -153 53 -218 118 -175 175 -284 5 -143 -221 188 -302 148 -408 -129 -338 -248 62 -352 -84 -150 -209 151 -93 120 -250 -50 -250 -356 0 -2 -291 363 -299 35 0 163 243 284 542 204 503 340 644 687 715 211 43 228 96 121 378 -103 272 -247 339 -355 164z"/>
<path d="M16439 6219 c-178 -119 -248 -438 -126 -584 98 -119 144 -115 301 28 102 92 186 223 186 290 0 174 -237 349 -361 266z"/>
<path d="M22367 6084 c-31 -119 -14 -296 38 -394 52 -97 95 -270 95 -383 0 -123 65 -207 159 -207 135 0 149 82 89 525 -39 289 -91 559 -115 600 -84 141 -210 75 -266 -141z"/>
<path d="M18057 6011 c-74 -119 420 -437 552 -355 66 40 41 133 -68 254 -184 203 -394 247 -484 101z"/>
<path d="M7940 5600 c42 -137 87 -374 102 -527 14 -152 115 -377 224 -500 108 -122 274 -347 368 -498 94 -151 237 -275 318 -275 205 0 185 136 -52 350 -110 100 -200 235 -200 300 0 65 -86 196 -190 291 -105 95 -218 322 -253 505 -34 184 -136 395 -227 469 -147 121 -157 108 -90 -115z"/>
<path d="M24700 5600 c0 -55 68 -100 150 -100 83 0 150 45 150 100 0 55 -67 100 -150 100 -82 0 -150 -45 -150 -100z"/>
<path d="M17925 5475 c63 -189 375 -216 375 -32 0 92 -85 157 -208 157 -123 0 -191 -52 -167 -125z"/>
<path d="M1068 5435 c-37 -38 -68 -220 -68 -405 0 -277 60 -372 341 -538 188 -111 366 -267 397 -347 31 -80 118 -145 194 -145 112 0 118 -66 29 -350 -83 -264 -165 -350 -335 -350 -184 0 -226 55 -226 300 0 339 -154 402 -249 102 -70 -219 132 -716 315 -775 64 -21 175 25 247 103 100 107 159 112 248 23 64 -64 265 -241 446 -393 338 -285 328 -254 539 -1749 57 -400 120 -485 260 -345 70 70 69 321 -4 793 -140 907 -246 1152 -601 1390 -189 127 -260 232 -198 294 142 142 118 257 -53 257 -169 0 -200 321 -56 589 157 293 -211 791 -613 829 -285 28 -336 74 -364 332 -35 328 -142 492 -249 385z"/>
<path d="M14300 5343 c0 -104 73 -146 217 -125 320 47 355 282 41 282 -168 0 -258 -55 -258 -157z"/>
<path d="M14925 5234 c-189 -76 -150 -334 50 -332 254 2 462 158 382 287 -72 116 -219 131 -432 45z"/>
<path d="M17600 5050 c0 -82 45 -150 100 -150 55 0 100 68 100 150 0 83 -45 150 -100 150 -55 0 -100 -67 -100 -150z"/>
<path d="M20114 4752 c-141 -391 -45 -695 176 -558 172 106 231 906 67 906 -64 0 -174 -157 -243 -348z"/>
<path d="M13675 4788 c-320 -238 -335 -314 -109 -540 131 -131 139 -183 37 -246 -71 -44 -99 -127 -64 -185 43 -70 166 -48 363 64 350 199 393 366 73 286 -206 -51 -202 -38 50 167 313 254 375 668 100 663 -96 -2 -299 -96 -450 -209z"/>
<path d="M24701 4875 c3 -245 124 -575 211 -575 48 0 88 158 88 350 0 244 -45 350 -150 350 -82 0 -149 -56 -149 -125z"/>
<path d="M11534 4467 c-326 -299 -359 -367 -243 -506 179 -216 241 -205 607 102 199 168 301 338 282 467 -48 327 -242 308 -646 -63z m302 -217 c-63 -163 -236 -206 -236 -58 0 76 70 127 272 200 12 4 -4 -59 -36 -142z"/>
<path d="M9525 4297 c-240 -97 -308 -298 -100 -296 291 4 575 132 575 261 0 156 -146 167 -475 35z"/>
<path d="M14800 3793 c0 -223 -51 -502 -114 -620 -86 -160 -86 -223 0 -252 63 -21 114 -179 114 -351 0 -287 13 -300 160 -153 152 153 433 1208 433 1633 1 196 -3 196 -143 10 -130 -172 -151 -174 -208 -25 -115 299 -242 172 -242 -242z m212 -620 c-98 -98 -110 -86 -56 56 38 99 94 154 125 124 30 -31 0 -112 -69 -180z"/>
<path d="M9812 3910 c-76 -48 -109 -133 -75 -189 88 -142 463 -28 463 141 0 156 -182 178 -388 48z"/>
<path d="M10282 3669 c-73 -71 -214 -161 -313 -199 -209 -79 -155 -224 108 -293 233 -61 623 83 623 230 0 63 -62 90 -139 61 -97 -37 -123 4 -88 139 59 225 -5 246 -191 62z"/>
<path d="M24200 3695 c0 -117 274 -680 420 -864 133 -168 380 -48 380 186 0 107 -46 166 -102 132 -56 -35 -169 97 -251 294 -137 326 -447 502 -447 252z"/>
<path d="M22400 3615 c0 -54 55 -117 121 -139 78 -26 111 -208 93 -508 -22 -347 7 -468 110 -468 104 0 138 146 133 575 -6 518 -29 578 -232 607 -124 18 -225 -12 -225 -67z"/>
<path d="M23100 3620 c0 -126 227 -320 374 -320 102 0 108 46 26 200 -104 194 -400 282 -400 120z"/>
<path d="M13604 3260 c-130 -341 -134 -660 -9 -660 142 0 320 725 207 838 -59 59 -133 -7 -198 -178z"/>
<path d="M10673 3240 c-33 -33 -38 -235 -12 -450 53 -447 -21 -508 -163 -134 -140 367 -279 218 -207 -223 57 -351 85 -375 445 -398 355 -23 379 -8 315 195 -152 480 -168 779 -50 921 102 123 90 149 -72 149 -108 0 -223 -27 -256 -60z"/>
<path d="M22067 3233 c-37 -36 -67 -239 -67 -450 0 -274 43 -383 150 -383 114 0 141 96 113 403 -38 429 -88 538 -196 430z"/>
<path d="M12981 2849 c-23 -192 5 -395 62 -452 56 -56 126 -333 154 -617 31 -302 108 -532 187 -558 108 -36 121 82 65 592 -37 350 -109 651 -159 669 -49 19 -90 162 -90 319 0 419 -171 455 -219 47z"/>
<path d="M12443 2496 c67 -600 260 -1104 591 -1546 198 -264 348 -104 169 180 -315 497 -436 828 -493 1352 -37 340 -114 570 -199 598 -115 38 -127 -68 -68 -584z"/>
<path d="M11249 2898 c-89 -143 46 -898 160 -898 120 0 118 871 -2 946 -51 31 -122 10 -158 -48z"/>
<path d="M950 2699 c-70 -112 30 -155 575 -246 256 -42 445 -156 594 -358 209 -282 481 -397 481 -203 0 193 -624 705 -979 804 -466 129 -593 130 -671 3z"/>
<path d="M14374 2100 c-91 -217 -273 -929 -273 -1075 -2 -269 197 -105 304 252 116 388 90 1106 -31 823z"/>
<path d="M20500 856 c0 -141 45 -256 100 -256 55 0 100 87 100 194 0 107 -45 222 -100 256 -57 35 -100 -49 -100 -194z"/>
</g>
</svg>