<svg xmlns="http://www.w3.org/2000/svg" version="1.0" width="250" height="250" viewBox="0 0 250.000000 250.000000" preserveAspectRatio="xMidYMid meet">
<metadata>
Created by potrace 1.10, written by Peter Selinger 2001-2011
</metadata>
<g transform="translate(0.000000,250.000000) scale(0.010000,-0.010000)" fill="#555555" stroke="none">
<path d="M0 12500 l0 -12500 3735 0 3734 0 109 225 108 225 7 -225 7 -225 2107 0 2106 0 -70 225 c-166 533 -1179 2276 -2660 4575 -301 468 -848 1390 -1216 2050 -367 660 -702 1251 -743 1313 -40 62 -286 422 -546 800 -260 378 -550 800 -644 937 -95 138 -262 352 -372 477 -176 199 -186 268 -81 557 154 426 150 466 -37 466 -99 0 -145 71 -125 193 34 211 -474 807 -688 807 -72 0 -131 -102 -131 -228 0 -125 -70 -328 -156 -450 -191 -273 -113 -422 219 -422 138 0 314 -63 391 -140 219 -218 -82 -405 -600 -373 -390 24 -448 -4 -636 -305 -114 -183 -369 -484 -566 -669 -514 -481 -785 -1054 -704 -1487 60 -322 87 -344 359 -290 323 65 406 -117 151 -329 -110 -92 -190 -89 -353 12 -175 109 -226 108 -296 -5 -125 -202 -172 -28 -157 586 16 631 99 814 750 1646 691 882 934 1475 868 2113 -42 414 -4 623 188 1039 133 287 242 562 242 612 0 136 -215 108 -392 -52 -137 -124 -185 -123 -358 4 -155 114 -170 164 -67 227 91 57 111 191 65 436 -39 210 -18 444 52 575 83 155 87 253 13 327 -61 61 -80 287 -45 544 60 435 58 439 -203 374 -192 -48 -280 -23 -325 94 -34 89 -124 161 -201 161 -76 0 -139 70 -139 155 0 123 -79 143 -388 97 -302 -45 -402 -22 -450 104 -167 433 398 468 816 50 l294 -293 481 243 c514 261 747 305 747 144 0 -147 399 -122 407 25 3 69 55 24 115 -100 160 -332 301 -277 566 222 230 435 493 616 825 568 177 -25 333 245 191 332 -47 30 -116 245 -151 479 -36 233 -135 753 -220 1154 -150 707 -120 1021 70 717 50 -81 147 -480 216 -887 69 -407 187 -802 263 -878 102 -102 109 -172 27 -271 -81 -98 -71 -245 40 -559 225 -637 203 -884 -76 -831 -169 32 -340 -74 -675 -419 -246 -254 -594 -525 -773 -602 -230 -99 -326 -207 -327 -370 -1 -126 -91 -426 -200 -666 -285 -628 -265 -835 77 -796 182 21 309 116 375 279 55 136 215 474 355 750 229 454 293 508 650 553 728 92 1358 600 1845 1486 334 608 768 857 1342 770 380 -57 442 -101 477 -341 69 -467 -103 -892 -474 -1175 -193 -147 -365 -250 -383 -229 -18 21 -61 185 -95 364 -53 278 -33 325 136 325 236 0 262 274 53 556 -200 269 -453 98 -605 -411 -66 -217 -216 -552 -335 -745 -281 -457 -289 -1103 -16 -1350 230 -208 258 -350 69 -350 -155 0 -769 -841 -769 -1053 0 -168 157 -197 251 -45 118 190 220 5 345 -624 143 -718 210 -887 1007 -2528 320 -660 799 -1729 1063 -2377 309 -756 525 -1159 604 -1129 116 44 352 -400 1615 -3044 224 -467 701 -1389 1061 -2048 647 -1184 749 -1452 554 -1452 -55 0 -100 -45 -100 -100 0 -55 204 -100 454 -100 414 0 444 16 352 189 -76 141 -64 222 46 313 98 81 149 312 150 685 l2 563 284 -450 c157 -247 246 -465 199 -483 -48 -19 -87 -210 -87 -425 0 -325 34 -392 200 -392 229 0 241 37 94 312 -59 110 -87 253 -62 319 25 65 119 -50 208 -256 152 -350 192 -375 591 -375 236 0 483 54 549 120 93 93 120 93 120 0 0 -79 190 -120 556 -120 337 0 532 39 495 98 -33 54 -13 186 45 294 72 136 73 216 0 260 -57 36 -78 146 -47 245 33 105 -1 202 -83 233 -106 41 -133 228 -110 775 17 413 -18 797 -83 900 -83 135 -81 248 11 449 83 184 90 307 20 391 -73 88 -31 189 147 356 137 129 249 283 249 343 0 60 97 288 215 507 118 220 209 557 202 749 -7 193 47 549 119 793 l132 443 64 -466 c35 -256 200 -720 366 -1032 166 -311 302 -618 302 -682 0 -63 180 -291 400 -506 248 -242 400 -482 400 -631 0 -201 38 -231 230 -183 179 45 265 -3 383 -214 156 -279 145 -622 -20 -622 -51 0 -93 115 -93 256 0 145 -43 229 -100 194 -55 -34 -100 -262 -100 -506 0 -377 30 -444 200 -444 111 0 200 -67 200 -150 0 -82 45 -150 100 -150 93 0 145 282 107 575 -8 69 31 125 89 125 66 0 104 -433 104 -1200 0 -940 29 -1200 135 -1200 101 0 139 214 151 868 9 477 37 888 62 914 127 127 238 -553 184 -1129 l-61 -653 1665 0 1664 0 0 3000 c0 2739 -63 3459 -241 2750 -91 -361 -359 -324 -359 50 0 371 -251 408 -341 50 -66 -265 -359 -351 -359 -106 0 208 -167 281 -382 166 -161 -86 -182 -64 -164 170 12 149 52 344 90 435 38 91 19 196 -44 235 -67 41 -136 -16 -168 -140 -40 -153 -135 -210 -349 -210 -284 0 -289 8 -139 222 206 295 197 378 -44 378 -110 0 -200 -45 -200 -100 0 -55 -71 -100 -158 -100 -116 0 -149 81 -125 310 40 380 -117 429 -286 90 -165 -331 -373 -318 -413 25 -30 265 -318 406 -318 156 0 -66 -71 -32 -157 75 -148 183 -154 172 -105 -188 63 -464 -150 -466 -244 -2 -122 594 -433 767 -377 209 18 -179 -12 -347 -67 -375 -55 -28 -114 100 -132 283 -23 240 -72 318 -175 278 -79 -30 -143 -11 -143 42 0 53 -90 97 -200 97 -226 0 -251 -118 -90 -419 94 -174 64 -253 -189 -506 l-299 -299 47 437 c40 371 15 457 -173 570 -304 185 -496 0 -310 -298 112 -178 107 -235 -30 -372 -149 -149 -167 -144 -221 64 -76 291 -696 602 -864 434 -89 -89 -87 -157 7 -289 219 -306 251 -433 135 -549 -189 -189 -291 33 -360 777 -56 613 -46 678 78 525 180 -223 297 -221 504 8 233 258 208 317 -135 317 -204 0 -300 49 -300 155 0 86 135 202 300 260 323 113 327 123 302 759 -17 423 -16 424 291 362 169 -33 307 -19 307 32 0 148 -226 332 -409 332 -120 0 -181 105 -211 360 -36 303 -6 373 189 447 188 72 234 168 246 516 24 703 32 755 119 843 46 46 71 -151 56 -439 -31 -579 21 -704 203 -485 67 80 186 121 264 91 79 -30 143 -8 143 50 0 57 121 118 268 135 200 24 291 109 356 332 83 288 44 1194 -86 1968 -60 357 -53 368 267 400 181 17 346 83 366 145 46 139 -453 246 -535 115 -147 -238 -224 168 -254 1339 -18 696 0 1298 38 1337 39 38 230 40 425 3 322 -60 355 -97 355 -399 0 -184 68 -390 150 -458 174 -145 200 -400 41 -400 -61 0 -133 90 -162 200 -69 262 -229 258 -229 -6 0 -113 -45 -178 -100 -144 -154 95 -118 522 50 586 226 87 181 254 -103 383 -295 135 -575 -31 -380 -226 60 -60 85 -297 58 -537 -52 -461 84 -656 320 -460 102 85 155 85 207 1 38 -62 172 -88 296 -56 157 39 300 -16 465 -179 130 -129 349 -270 485 -313 136 -42 371 -209 522 -371 208 -222 327 -276 492 -224 186 59 209 38 161 -147 -44 -168 25 -269 320 -464 221 -147 444 -223 541 -185 257 98 193 277 -156 442 -436 206 -465 376 -56 326 251 -31 293 -15 178 65 -82 58 -229 107 -325 107 -96 1 -175 48 -175 104 0 55 -126 92 -280 80 -321 -25 -812 292 -817 526 -4 219 -113 308 -244 200 -164 -136 -488 175 -721 692 -297 660 -439 1117 -377 1217 106 172 -74 683 -241 683 -90 0 -266 119 -392 266 -282 328 -293 912 -28 1484 l185 400 8 -336 c6 -307 28 -330 257 -273 184 46 250 23 250 -89 0 -84 68 -152 150 -152 160 0 185 226 60 543 -52 133 -98 157 -149 75 -100 -162 -228 -148 -297 31 -33 87 50 249 199 387 221 205 239 264 131 437 -188 300 -55 546 254 469 229 -58 252 -35 252 247 0 199 -50 311 -139 311 -131 0 -261 203 -261 408 0 51 124 92 275 91 195 0 309 -73 391 -250 66 -143 77 -273 25 -305 -145 -89 -105 -416 73 -593 254 -254 383 -33 195 333 -148 284 -146 313 16 405 140 79 150 124 50 225 -221 223 -145 466 169 535 162 35 314 140 338 233 38 143 47 140 56 -19 9 -145 70 -175 270 -137 178 34 277 -1 319 -113 33 -90 127 -213 208 -274 87 -64 120 -181 82 -281 -82 -214 -267 -112 -267 148 0 252 -164 248 -323 -6 -124 -199 -127 -199 -296 25 -138 183 -194 201 -298 97 -189 -188 27 -471 363 -476 153 -2 316 -81 371 -180 62 -111 165 -153 284 -116 103 33 276 4 385 -64 157 -99 228 -99 347 0 85 70 174 84 206 32 94 -153 1161 -124 1161 32 0 73 -56 156 -125 184 -100 40 -100 52 0 58 94 6 125 357 125 1397 0 1175 -24 1399 -158 1450 -87 34 -517 61 -955 61 -744 0 -849 -28 -1600 -425 -441 -234 -893 -509 -1003 -611 -176 -165 -299 -178 -1055 -115 l-855 71 56 540 56 540 -496 0 c-355 0 -513 -44 -555 -154 -85 -221 43 -308 257 -174 404 252 544 -326 215 -891 -261 -450 -314 -1217 -86 -1261 104 -20 227 82 324 270 102 199 208 283 306 246 82 -32 149 -96 149 -143 0 -47 135 -240 300 -428 296 -337 388 -699 206 -811 -130 -81 -666 -1235 -794 -1711 -256 -951 -329 -5085 -109 -6173 53 -264 97 -714 97 -1000 l-1 -520 -344 375 c-398 433 -441 443 -780 177 -477 -375 -729 -1390 -764 -3077 -8 -383 -50 -525 -154 -525 -233 0 -534 -473 -655 -1029 -62 -287 -134 -1308 -160 -2271 -29 -1049 -95 -1843 -165 -1982 -95 -186 -90 -248 27 -320 117 -73 120 -114 16 -218 -104 -104 -144 -103 -211 6 -65 105 -118 85 -241 -90 l-157 -225 -46 240 c-25 131 -120 583 -211 1004 -92 421 -183 1074 -204 1450 -45 815 -251 1733 -512 2285 -140 296 -280 429 -539 513 -343 111 -349 122 -379 726 -22 452 3 607 96 588 75 -16 175 167 249 456 68 265 171 540 229 610 58 70 135 550 171 1067 41 594 112 968 192 1016 72 42 154 370 188 750 34 370 104 922 156 1224 134 785 205 1954 259 4300 25 1128 74 2550 107 3161 45 841 29 1129 -67 1189 -77 47 -162 14 -218 -86 -135 -240 -282 -200 -282 77 0 204 63 252 400 309 462 78 504 228 201 725 -332 544 -929 328 -902 -327 27 -641 -24 -1311 -105 -1393 -52 -52 -94 -266 -94 -475 0 -209 -45 -380 -100 -380 -55 0 -100 -67 -100 -150 0 -82 66 -150 148 -150 104 0 134 -80 104 -275 -24 -151 -67 -1017 -96 -1925 -29 -907 -121 -2032 -204 -2500 -84 -467 -152 -1028 -152 -1247 0 -218 -64 -578 -141 -800 -226 -644 -595 -2350 -524 -2421 36 -36 88 -42 117 -14 79 80 338 1063 455 1732 57 330 152 645 210 700 73 69 88 38 49 -100 -31 -110 -130 -605 -220 -1100 -90 -495 -205 -943 -255 -995 -50 -52 -92 -210 -93 -350 -3 -510 -164 -564 -385 -131 -223 438 -621 652 -971 522 -252 -93 -542 -517 -542 -792 0 -422 -345 -174 -364 260 -10 236 43 340 210 416 184 84 235 212 289 726 36 343 103 673 151 734 238 308 614 1953 675 2960 44 727 -115 2857 -277 3700 -58 303 -194 782 -302 1065 -216 565 -233 495 335 1435 125 208 206 501 198 720 l-13 371 502 -313 c588 -365 694 -315 770 363 48 424 35 459 -172 459 -189 0 -214 -39 -161 -250 46 -184 23 -250 -89 -250 -95 0 -152 93 -152 250 0 156 -57 250 -150 250 -82 0 -150 -63 -150 -139 0 -77 -68 -166 -150 -197 -102 -39 -150 5 -150 139 0 139 -68 197 -230 197 -174 0 -262 -89 -362 -366 -113 -311 -147 -340 -229 -193 -71 126 -50 226 78 366 167 185 165 193 -36 193 -115 0 -236 -44 -270 -98 -38 -62 -129 -55 -248 19 -144 90 -249 90 -446 1 -154 -71 -257 -79 -257 -20 0 61 -814 98 -2147 98 -1764 0 -2137 -24 -2095 -135 85 -221 -236 -1989 -378 -2081 -202 -130 -433 -46 -400 146 41 238 -279 344 -426 142 -105 -143 -162 -145 -511 -21 -216 77 -469 142 -561 145 -242 6 -288 256 -199 1079 l79 725 -944 0 -944 0 53 -400 c65 -485 -78 -444 -170 49 l-66 351 -996 0 -995 0 0 -12500z m11390 12209 c172 -110 72 -409 -137 -409 -97 0 -153 92 -153 250 0 266 65 301 290 159z m-7640 -893 c-44 -175 -88 -216 -142 -130 -42 70 -28 337 32 595 109 463 110 465 142 130 18 -186 4 -454 -32 -595z m8506 376 c-81 -188 -150 -265 -152 -172 -5 213 227 737 270 609 17 -52 -36 -248 -118 -437z m-10356 -254 c0 -82 -45 -122 -100 -88 -55 34 -100 129 -100 212 0 82 45 122 100 88 55 -34 100 -129 100 -212z m9050 62 c100 -110 149 -200 109 -200 -143 0 -459 209 -459 304 0 156 156 110 350 -104z m12323 -397 c0 -222 -39 -403 -87 -403 -47 0 -86 205 -86 456 0 251 39 432 86 402 48 -29 87 -234 87 -455z m-11773 116 c0 -44 -66 -168 -147 -275 -144 -191 -147 -190 -150 14 -2 115 27 239 64 275 92 93 233 84 233 -14z m363 -417 c-306 -462 -518 -541 -342 -127 117 274 489 648 567 570 23 -22 -78 -222 -225 -443z m-9785 -652 c-1 -427 -13 -456 -78 -200 -42 165 -77 503 -78 750 -2 365 13 403 78 200 44 -137 79 -475 78 -750z m19582 677 c-33 -33 -56 26 -52 131 5 117 28 141 60 61 29 -72 26 -159 -8 -192z m2683 -202 c195 265 250 212 187 -179 -42 -257 -14 -387 101 -475 144 -109 140 -144 -36 -357 -114 -138 -257 -212 -345 -178 -169 65 -203 419 -50 514 173 107 109 250 -111 250 -151 0 -193 45 -150 158 34 87 64 256 67 375 6 203 13 201 107 -33 93 -232 110 -237 230 -75z m-743 -25 c0 -55 -45 -100 -100 -100 -55 0 -100 45 -100 100 0 55 45 100 100 100 55 0 100 -45 100 -100z m-18988 -354 c241 -85 663 -187 938 -227 343 -49 500 -118 500 -220 0 -113 -114 -145 -471 -133 -496 17 -1579 448 -1579 628 0 142 96 134 612 -48z m6438 -1046 c0 -549 -34 -999 -75 -1000 -41 0 -75 450 -75 1000 0 550 34 1000 75 1000 41 0 75 -450 75 -1000z m12679 758 c165 -125 166 -148 17 -298 -203 -203 -346 -122 -346 196 0 276 71 298 329 102z m-19600 -178 c290 -151 368 -231 252 -256 -93 -20 -280 36 -414 124 -167 110 -337 138 -531 90 -258 -64 -273 -55 -149 95 182 220 337 211 842 -53z m10672 -605 c1 -937 123 -1759 254 -1709 98 38 107 -38 38 -334 -48 -210 -89 -869 -91 -1464 -1 -594 -42 -1157 -91 -1250 -49 -92 -118 -729 -154 -1415 -36 -685 -108 -1273 -161 -1305 -52 -33 -124 -417 -159 -854 -35 -437 -119 -861 -187 -944 -68 -82 -154 -465 -191 -850 -37 -385 -97 -880 -133 -1100 l-66 -400 -76 400 c-157 825 -176 1079 -91 1237 48 90 110 298 139 463 28 165 123 603 211 974 474 1987 844 5324 707 6355 -94 698 -112 2621 -25 2621 41 0 75 -191 76 -425z m-10204 220 c54 88 147 106 268 53 102 -44 410 -107 685 -139 478 -56 499 -72 479 -350 -32 -443 -168 -510 -515 -253 -225 166 -433 223 -785 215 -598 -13 -794 42 -873 250 -87 227 129 332 417 200 187 -85 260 -79 324 24z m-2401 -910 c-50 -172 -114 -336 -143 -365 -73 -73 -67 427 7 621 110 286 227 63 136 -256z m1574 -1310 c-31 -784 -88 -1526 -125 -1650 -38 -124 -28 -225 21 -225 164 0 470 1886 474 2925 0 151 30 275 66 275 59 0 234 -2122 221 -2675 -3 -124 37 -225 90 -225 57 0 87 566 74 1405 -12 874 19 1445 85 1511 57 57 235 75 395 40 274 -60 301 -112 458 -885 92 -451 231 -1104 308 -1449 l140 -629 -288 -149 c-158 -81 -364 -271 -458 -421 -94 -150 -185 -293 -203 -317 -18 -24 -102 55 -186 175 -205 293 -377 278 -318 -26 44 -231 34 -237 -161 -100 -114 80 -310 145 -435 145 -136 0 -228 61 -228 150 0 245 -135 171 -381 -209 -188 -291 -257 -334 -375 -236 -79 66 -144 213 -144 326 0 264 201 1356 298 1619 144 388 288 907 410 1475 218 1013 323 672 262 -850z m7290 552 c-33 -33 -56 26 -52 131 5 117 28 141 60 61 29 -72 26 -159 -8 -192z m-9403 -170 c181 -181 181 -367 0 -613 -214 -290 -388 -64 -303 393 76 406 100 423 303 220z m9364 -257 c-24 -165 -61 -300 -82 -300 -22 0 -39 135 -39 300 0 165 37 300 83 300 45 0 63 -135 38 -300z m579 -62 c0 -141 -44 -223 -100 -188 -55 34 -100 174 -100 312 0 141 44 223 100 188 55 -34 100 -174 100 -312z m-1124 -563 c-4 -435 -18 -474 -79 -225 -107 438 -110 750 -7 750 50 0 89 -236 86 -525z m646 -340 c-83 -434 -222 -354 -222 128 0 421 15 454 134 293 73 -101 113 -290 88 -421z m-8522 65 c0 -55 -48 -100 -106 -100 -58 0 -78 45 -44 100 34 55 82 100 106 100 24 0 44 -45 44 -100z m9057 -445 c-37 -198 -110 -334 -162 -302 -109 67 -130 679 -27 782 144 144 254 -136 189 -480z m-4495 -666 c32 -187 79 -480 107 -652 73 -459 -145 -521 -227 -65 -38 208 -108 456 -157 551 -58 110 -45 243 34 370 151 242 172 224 243 -204z m638 111 c0 -165 -40 -300 -88 -300 -107 0 -223 401 -151 517 112 182 239 66 239 -217z m3258 -475 c-115 -116 -174 65 -96 292 l81 233 36 -234 c21 -128 11 -259 -21 -291z m8942 325 c0 -103 -102 -150 -325 -149 l-325 2 250 139 c333 185 400 186 400 8z m-18550 -50 c79 -128 -50 -1012 -139 -957 -106 66 -122 1057 -17 1057 52 0 122 -45 156 -100z m10220 -763 c-23 -23 -110 -15 -195 17 -126 49 -133 111 -40 357 l113 299 82 -316 c45 -174 63 -335 40 -357z m-1136 -7 c58 -361 23 -520 -90 -407 -99 99 -149 777 -58 777 48 0 115 -166 148 -370z m1632 -255 c-28 -69 -50 -12 -50 125 0 138 22 194 50 125 28 -69 28 -181 0 -250z m-669 -512 c-3 -209 -6 -209 -150 -19 -204 270 -202 526 3 356 83 -68 149 -220 147 -337z m-4797 116 c0 -55 -71 -73 -158 -40 -87 34 -180 61 -206 61 -26 0 -21 43 11 96 72 116 353 23 353 -117z m-4422 -241 c18 -219 -2 -242 -124 -142 -80 67 -192 92 -250 57 -57 -36 -104 -2 -104 74 0 369 448 379 478 11z m9782 -211 c-33 -33 -56 26 -52 131 5 117 28 141 60 61 29 -72 26 -159 -8 -192z m-8760 -243 c0 -56 -100 -183 -222 -282 -187 -151 -201 -204 -91 -336 71 -86 101 -247 66 -357 -37 -116 6 -306 103 -454 214 -327 9 -351 -325 -38 -252 238 -310 748 -124 1096 78 145 75 239 -11 342 -65 78 -93 208 -62 289 49 127 95 126 361 -6 168 -84 305 -198 305 -254z m7509 -515 c-79 -79 -109 -53 -109 94 0 265 140 405 184 185 19 -93 -14 -218 -75 -279z m699 356 c4 -41 24 -164 44 -273 34 -182 -96 -347 -277 -350 -41 -1 -75 155 -75 348 0 244 45 350 150 350 83 0 153 -34 158 -75z m-9331 -381 c-33 -34 -115 44 -181 172 -114 224 -111 226 61 61 100 -95 154 -200 120 -233z m8723 -850 c0 -107 -67 -194 -150 -194 -161 0 -185 92 -90 341 79 204 240 105 240 -147z m-121 -819 c73 -88 67 -177 -22 -299 -152 -207 -257 -129 -257 191 0 256 118 302 279 108z m-119 -1148 c-33 -33 -56 26 -52 131 5 117 28 141 60 61 29 -72 26 -159 -8 -192z m440 117 c0 -86 -45 -128 -100 -94 -55 34 -100 104 -100 156 0 52 45 94 100 94 55 0 100 -70 100 -156z m1200 -138 c0 -107 -45 -222 -100 -256 -57 -35 -100 49 -100 194 0 141 45 256 100 256 55 0 100 -87 100 -194z m560 -479 c-33 -33 -56 26 -52 131 5 117 28 141 60 61 29 -72 26 -159 -8 -192z m-1560 -227 c0 -55 -45 -100 -100 -100 -55 0 -100 45 -100 100 0 55 45 100 100 100 55 0 100 -45 100 -100z m400 -206 c0 -52 -45 -94 -100 -94 -55 0 -100 70 -100 156 0 86 45 128 100 94 55 -34 100 -104 100 -156z m445 -103 c-32 -52 -101 -68 -154 -36 -52 32 -68 101 -36 154 32 52 101 68 154 36 52 -32 68 -101 36 -154z m669 -407 l-96 -334 -9 358 c-5 197 24 391 64 432 122 122 143 -103 41 -456z m-2514 16 c0 -195 -51 -300 -145 -300 -117 0 -125 57 -40 300 58 165 123 300 145 300 22 0 40 -135 40 -300z m865 -181 c27 -174 -16 -219 -210 -219 -302 0 -380 117 -296 450 59 235 83 246 269 123 112 -74 219 -234 237 -354z m528 -106 c55 -103 72 -215 38 -249 -88 -87 -331 132 -331 298 0 199 176 170 293 -49z m571 37 c31 -82 124 -150 205 -150 256 0 78 -249 -202 -282 -238 -28 -267 2 -267 275 0 320 164 417 264 157z m-9798 -275 c-28 -69 -50 -12 -50 125 0 138 22 194 50 125 28 -69 28 -181 0 -250z m8615 -437 c-89 -89 -211 -131 -271 -94 -199 123 -115 256 161 256 251 0 259 -13 110 -162z m-684 -625 c-4 -418 -131 -268 -233 274 -55 292 -44 321 86 213 84 -70 149 -284 147 -487z m1283 369 c24 -124 -21 -153 -174 -112 -113 29 -206 119 -206 199 0 200 339 122 380 -87z m1220 -44 c0 -82 -45 -122 -100 -88 -55 34 -100 129 -100 212 0 82 45 122 100 88 55 -34 100 -129 100 -212z m-424 37 c-23 -69 -139 -139 -258 -157 -162 -24 -202 8 -157 125 71 186 475 217 415 32z m-6976 -475 c0 -55 -45 -100 -100 -100 -55 0 -100 45 -100 100 0 55 45 100 100 100 55 0 100 -45 100 -100z m5450 -133 c0 -261 -196 -245 -233 19 -23 162 8 222 100 192 73 -25 133 -120 133 -211z m1950 33 c0 -170 -67 -200 -450 -200 -247 0 -450 45 -450 100 0 55 101 101 225 102 124 0 293 45 375 98 226 146 300 121 300 -100z m-1223 -119 c-62 -185 -277 -216 -277 -39 0 87 71 158 158 158 87 0 141 -53 119 -119z m1489 -706 c-28 -69 -50 -12 -50 125 0 138 22 194 50 125 28 -69 28 -181 0 -250z m-2666 -42 c0 -293 -18 -289 -190 42 -97 186 -91 225 36 225 100 0 154 -94 154 -267z m2398 142 c-2 -211 -169 -404 -287 -332 -149 92 -141 328 14 391 211 85 275 71 273 -59z m-1898 -175 c0 -110 -45 -200 -100 -200 -55 0 -100 90 -100 200 0 110 45 200 100 200 55 0 100 -90 100 -200z m700 -50 c0 -156 -57 -250 -150 -250 -93 0 -150 94 -150 250 0 156 57 250 150 250 93 0 150 -94 150 -250z m500 56 c0 -107 -45 -222 -100 -256 -57 -35 -100 49 -100 194 0 141 45 256 100 256 55 0 100 -87 100 -194z m1384 -336 c-84 -157 -83 -220 2 -249 63 -21 114 -173 114 -338 0 -474 -242 -283 -303 240 -65 549 -30 683 158 611 111 -42 117 -99 29 -264z m-446 -552 c44 -285 32 -411 -36 -369 -56 34 -102 248 -102 474 0 505 51 466 138 -105z m1114 274 c75 -236 12 -343 -145 -246 -132 81 -143 454 -14 454 52 0 123 -93 159 -208z m-3208 -82 c30 -49 -11 -114 -91 -145 -157 -60 -290 65 -184 171 91 90 210 79 275 -26z m1756 -156 c0 -268 -320 -506 -558 -415 -198 76 -177 430 33 553 315 184 525 128 525 -138z m6935 99 c31 -81 13 -173 -39 -206 -53 -32 -96 34 -96 147 0 242 56 266 135 59z m-8337 -178 c-1 -176 -21 -193 -93 -80 -50 80 -70 181 -42 225 86 141 137 86 135 -145z m3402 -472 c0 -134 -48 -178 -150 -139 -82 31 -150 120 -150 197 0 76 68 139 150 139 83 0 150 -89 150 -197z m3118 -25 c-71 -71 -118 -77 -118 -15 0 134 118 252 185 185 28 -28 -2 -105 -67 -170z m2432 22 c83 -134 483 -127 621 11 61 61 149 88 195 60 62 -38 95 -2858 41 -3503 -4 -45 -79 -10 -168 79 -136 135 -144 229 -50 601 150 596 140 1046 -36 1543 -81 229 -122 561 -93 738 53 310 49 314 -111 121 -125 -152 -149 -308 -100 -650 142 -981 167 -1778 58 -1846 -215 -133 -363 490 -301 1261 46 559 26 775 -82 903 -84 99 -115 253 -76 375 47 147 22 207 -87 207 -183 0 -343 -687 -183 -787 58 -35 105 -266 105 -514 0 -247 7 -533 14 -635 8 -103 -15 -215 -50 -250 -91 -91 -547 463 -549 667 -1 93 -137 369 -303 614 -166 245 -289 515 -273 600 63 340 1259 679 1428 405z m-6050 -230 c0 -467 -367 -603 -708 -262 -238 238 -242 229 158 370 456 161 550 143 550 -108z m-2900 -197 c0 -231 -23 -219 -189 100 -97 187 -91 213 37 164 83 -32 152 -151 152 -264z m10500 -1630 c-8 -1833 -33 -2310 -131 -2407 -162 -162 -242 566 -256 2298 -8 1035 14 1929 48 1984 40 64 115 49 204 -40 111 -111 140 -503 135 -1835z m-8720 1737 c163 -163 151 -280 -30 -280 -82 0 -150 19 -150 42 0 23 -27 113 -61 200 -71 186 70 209 241 38z m-1238 -105 c46 -100 70 -100 116 0 97 208 442 150 442 -74 0 -169 -62 -197 -400 -184 -316 12 -400 54 -400 199 0 209 154 247 242 59z m6078 -450 c-25 -316 -148 -777 -273 -1025 -247 -492 -930 -1250 -1032 -1148 -36 35 14 122 110 192 214 157 228 356 25 356 -217 0 -184 277 50 423 110 69 200 185 200 258 0 87 -69 111 -200 69 -287 -91 -251 135 39 246 192 73 235 155 219 422 -16 278 -55 328 -239 308 -142 -15 -219 31 -219 133 0 119 66 142 277 96 175 -38 350 -5 475 89 109 82 292 151 406 153 193 3 205 -41 162 -572z m-14660 202 c-33 -33 -56 26 -52 131 5 117 28 141 60 61 29 -72 26 -159 -8 -192z m8820 -1201 c-33 -269 -39 -265 -260 152 -263 496 -199 749 95 376 119 -152 185 -362 165 -528z m570 674 c-34 -55 -104 -100 -156 -100 -52 0 -94 45 -94 100 0 55 70 100 156 100 86 0 128 -45 94 -100z m-9250 -150 c0 -82 -45 -150 -100 -150 -55 0 -100 68 -100 150 0 83 45 150 100 150 55 0 100 -67 100 -150z m10463 -351 c10 -247 68 -741 127 -1099 60 -358 107 -852 106 -1100 -5 -1021 -398 454 -554 2078 -55 582 -44 637 120 605 139 -26 186 -139 201 -484z m-11065 -224 c-1 -221 -29 -281 -87 -189 -79 124 -40 514 51 514 21 0 37 -146 36 -325z m11935 -914 c158 49 176 22 115 -176 -39 -129 -139 -312 -222 -406 -83 -94 -122 -244 -88 -333 81 -211 -33 -661 -149 -589 -49 30 -80 446 -69 924 12 478 -8 1027 -44 1219 -39 204 4 132 103 -174 139 -433 200 -514 354 -465z m-13575 164 c-109 -109 -150 33 -81 279 l69 246 35 -234 c19 -128 9 -259 -23 -291z m11332 60 c150 -431 141 -451 -90 -185 -208 240 -265 500 -110 500 50 0 140 -142 200 -315z m-4430 -458 c-101 -102 -185 51 -102 186 63 102 87 102 121 1 23 -70 15 -154 -19 -187z m4740 -233 c0 -113 -45 -178 -100 -144 -55 34 -100 127 -100 206 0 79 45 144 100 144 55 0 100 -93 100 -206z m-5840 -367 c-33 -33 -56 26 -52 131 5 117 28 141 60 61 29 -72 26 -159 -8 -192z m9188 -230 c-86 -167 -203 -275 -260 -240 -63 39 -15 158 122 304 297 316 327 302 138 -64z m-3048 97 c0 -58 -45 -78 -100 -44 -55 34 -100 82 -100 106 0 24 45 44 100 44 55 0 100 -48 100 -106z m-6140 -467 c-33 -33 -56 26 -52 131 5 117 28 141 60 61 29 -72 26 -159 -8 -192z m7993 -607 c-111 -112 -220 109 -172 353 l53 277 80 -295 c44 -162 61 -313 39 -335z m907 307 c-101 -102 -185 51 -102 186 63 102 87 102 121 1 23 -70 15 -154 -19 -187z m-10760 -333 c0 -58 -45 -78 -100 -44 -55 34 -100 82 -100 106 0 24 45 44 100 44 55 0 100 -48 100 -106z m8701 -119 c1 -69 30 -237 64 -375 43 -175 30 -220 -44 -150 -163 152 -263 650 -132 650 61 0 112 -56 112 -125z m2599 25 c0 -55 -45 -100 -100 -100 -55 0 -100 45 -100 100 0 55 45 100 100 100 55 0 100 -45 100 -100z m-11300 -300 c0 -55 -48 -100 -106 -100 -58 0 -78 45 -44 100 34 55 82 100 106 100 24 0 44 -45 44 -100z m17360 -373 c-33 -33 -56 26 -52 131 5 117 28 141 60 61 29 -72 26 -159 -8 -192z m-6086 4 c-93 -93 -197 -141 -232 -107 -98 99 53 276 235 276 153 0 153 -13 -3 -169z m5586 -404 c-33 -33 -56 26 -52 131 5 117 28 141 60 61 29 -72 26 -159 -8 -192z m-19766 -364 c-95 -87 -109 -71 -59 70 36 101 71 258 79 350 7 92 33 61 58 -70 25 -130 -10 -287 -78 -350z m14352 230 c-75 -120 -346 -121 -346 -1 0 108 217 200 327 138 42 -24 50 -86 19 -137z m-12546 -249 c0 -24 -45 -44 -100 -44 -55 0 -100 48 -100 106 0 58 45 78 100 44 55 -34 100 -82 100 -106z"/>
<path d="M17400 5744 c0 -145 43 -229 100 -194 55 34 100 149 100 256 0 107 -45 194 -100 194 -55 0 -100 -115 -100 -256z"/>
<path d="M5353 24575 c-115 -668 -127 -1179 -29 -1240 144 -89 183 4 368 857 l176 808 -221 0 c-181 0 -234 -75 -294 -425z"/>
<path d="M14202 24607 c-73 -223 -95 -471 -50 -575 64 -148 93 -117 155 168 41 193 107 451 146 575 39 126 28 225 -25 225 -53 0 -154 -177 -226 -393z"/>
<path d="M16274 24760 c49 -257 410 -395 645 -246 98 62 85 83 -50 84 -100 1 -152 49 -116 107 36 57 158 91 272 75 113 -17 226 26 249 95 31 90 -110 125 -502 125 -521 0 -542 -10 -498 -240z"/>
<path d="M17580 24880 c169 -169 149 -260 -55 -244 -115 9 -165 -46 -145 -162 44 -262 -210 -310 -768 -146 -354 104 -529 115 -605 39 -205 -205 -104 -365 390 -615 741 -376 1303 -308 1303 156 0 92 68 224 150 292 83 68 150 204 150 302 0 97 68 203 150 234 296 114 142 264 -270 264 -327 0 -393 -27 -300 -120z"/>
<path d="M4900 24413 c0 -214 -28 -529 -62 -700 -38 -187 -22 -313 39 -313 56 0 152 285 213 633 138 793 139 767 -40 767 -108 0 -150 -110 -150 -387z"/>
<path d="M17900 23950 c-68 -82 -173 -463 -234 -847 -67 -431 -164 -719 -252 -753 -222 -85 -238 -1 -75 389 122 291 125 361 18 361 -187 0 -347 -463 -362 -1050 -23 -886 -18 -902 330 -1004 l325 -96 -30 -1325 c-28 -1222 32 -1546 228 -1229 34 55 133 23 231 -75 132 -132 163 -304 136 -761 -42 -701 69 -1860 178 -1860 42 0 104 799 138 1775 37 1086 140 2218 266 2916 196 1094 196 1422 1 1106 -50 -81 -139 -147 -198 -147 -59 0 -148 -66 -198 -147 -50 -81 -125 -113 -166 -72 -42 41 -136 -27 -210 -153 l-134 -228 61 225 c41 153 11 245 -93 285 -121 46 -141 159 -93 524 33 257 98 513 143 571 45 58 56 204 24 326 -52 198 61 830 225 1256 78 204 -93 213 -259 13z m657 -3601 l-144 -699 52 600 c56 655 146 1058 201 899 19 -56 -30 -416 -109 -800z m-291 226 c-28 -69 -50 -12 -50 125 0 138 22 194 50 125 28 -69 28 -181 0 -250z"/>
<path d="M13255 23708 c-31 -50 -6 -324 55 -609 138 -644 -21 -909 -218 -364 -71 195 -165 332 -210 304 -46 -28 -37 -135 18 -238 55 -104 100 -296 100 -428 0 -292 94 -402 241 -282 60 50 217 105 348 124 194 28 265 130 371 535 168 640 173 577 -64 831 -209 225 -540 290 -641 127z"/>
<path d="M16647 22890 c-138 -434 -64 -1658 89 -1482 92 106 160 1692 73 1692 -53 0 -126 -95 -162 -210z"/>
<path d="M12400 21927 c0 -62 172 -531 506 -1377 204 -520 226 -1247 145 -4850 -19 -876 -130 -2117 -216 -2425 -31 -112 7 -175 106 -175 162 0 319 421 273 727 -15 97 29 524 97 950 69 425 134 897 144 1048 11 151 26 343 33 425 6 82 80 150 162 150 108 0 150 111 150 395 0 217 69 920 153 1562 194 1476 237 3193 85 3345 -83 83 -177 52 -360 -120 -224 -210 -243 -290 -201 -857 57 -764 -90 -818 -273 -100 -175 691 -511 1375 -674 1375 -71 0 -130 -33 -130 -73z m1492 -1652 c-11 -399 -55 -995 -99 -1325 -44 -330 -91 -825 -104 -1100 -28 -575 -74 -750 -200 -750 -150 0 -104 1383 54 1629 92 142 152 558 169 1171 14 523 42 984 63 1025 100 202 134 11 117 -650z m-426 -802 c-28 -68 -49 12 -47 177 3 165 25 220 50 123 26 -97 24 -232 -3 -300z"/>
<path d="M21838 21756 c-113 -295 9 -506 313 -540 164 -19 330 -85 368 -146 38 -62 185 -118 326 -124 142 -6 314 -89 384 -184 79 -108 191 -148 299 -107 212 82 223 232 22 309 -82 31 -150 120 -150 197 0 167 -119 180 -271 28 -159 -159 -329 -20 -329 267 0 235 -148 340 -217 153 -18 -50 -123 -106 -233 -125 -144 -24 -209 29 -232 191 -36 253 -196 299 -280 81z"/>
<path d="M23831 21236 c-113 -294 111 -485 580 -496 561 -13 594 9 455 309 -141 304 -225 314 -369 45 -89 -166 -140 -183 -254 -88 -79 65 -143 180 -143 256 0 192 -193 173 -269 -26z"/>
<path d="M20761 20942 c-86 -224 -79 -242 89 -242 83 0 150 89 150 200 0 238 -154 265 -239 42z"/>
<path d="M16060 20675 c-27 -179 -75 -1202 -106 -2275 -100 -3434 -206 -4682 -418 -4915 -160 -177 -193 -430 -236 -1799 -38 -1224 -83 -1614 -191 -1681 -78 -48 -200 -215 -272 -371 -123 -267 -128 -255 -75 216 30 275 96 656 145 847 83 325 -15 633 -138 433 -111 -179 -399 -2034 -327 -2105 41 -41 138 13 216 119 80 110 142 139 142 67 0 -267 253 -29 317 297 43 223 66 46 65 -508 -1 -467 2 -883 8 -923 5 -39 118 -31 250 19 232 88 238 79 186 -302 -54 -405 107 -562 218 -212 32 99 79 1813 105 3807 27 1994 91 4218 145 4943 177 2416 236 4668 121 4668 -58 0 -128 -146 -155 -325z m-400 -12248 c-33 -33 -56 26 -52 131 5 117 28 141 60 61 29 -72 26 -159 -8 -192z"/>
<path d="M21256 20909 c-106 -171 61 -417 243 -359 121 38 193 -8 229 -147 29 -112 122 -203 207 -203 192 0 303 165 167 249 -56 35 -102 156 -102 269 0 163 -29 183 -137 93 -104 -86 -167 -77 -262 38 -143 172 -263 193 -345 60z"/>
<path d="M17105 20556 c-170 -205 -285 -6795 -120 -6897 66 -40 115 -323 115 -658 0 -640 143 -1148 296 -1053 62 38 60 155 -4 323 -60 157 -109 1912 -121 4346 -12 2246 -27 4083 -34 4083 -7 0 -66 -65 -132 -144z"/>
<path d="M22425 20503 c-180 -288 -154 -480 74 -553 218 -69 401 5 401 162 0 55 -43 73 -96 40 -53 -32 -132 78 -175 246 -76 289 -86 295 -204 105z"/>
<path d="M23167 20333 c-37 -36 -67 -197 -67 -357 0 -247 35 -286 236 -259 130 17 314 -34 408 -112 135 -112 212 -118 359 -26 108 67 212 78 244 26 31 -50 191 -88 355 -83 214 6 298 58 298 184 0 126 -56 161 -200 123 -139 -36 -200 -3 -200 109 0 203 -168 208 -365 11 -191 -190 -363 -93 -282 159 81 257 -29 243 -260 -33 -155 -184 -206 -200 -282 -84 -51 77 -69 201 -41 275 53 139 -86 185 -203 67z"/>
<path d="M20967 20033 c-122 -121 -70 -506 85 -635 215 -178 272 -76 193 342 -65 350 -141 430 -278 293z"/>
<path d="M21500 19450 c0 -238 46 -350 144 -350 200 0 246 106 185 426 -78 408 -329 350 -329 -76z"/>
<path d="M22116 19476 c-243 -243 -68 -856 214 -747 240 92 279 -310 63 -663 l-192 -316 -1 319 c0 343 -92 460 -273 347 -72 -44 -93 -227 -57 -493 42 -315 101 -423 232 -423 96 0 199 -95 230 -211 104 -399 320 -151 285 328 -26 366 16 507 225 756 301 357 317 427 96 427 -112 0 -145 61 -109 200 65 249 -90 357 -283 196 -120 -99 -146 -83 -146 86 0 257 -131 347 -284 194z"/>
<path d="M19602 19236 c5 -189 370 -562 440 -450 106 173 237 137 308 -86 35 -110 150 -200 257 -200 106 0 193 -45 193 -100 0 -55 45 -100 100 -100 55 0 100 160 100 356 0 291 -34 351 -185 325 -101 -17 -247 21 -325 85 -179 148 -891 284 -888 170z"/>
<path d="M23301 18951 c-176 -212 -45 -651 195 -651 106 0 222 48 258 106 41 67 111 43 191 -66 88 -121 183 -148 316 -91 104 44 290 71 414 59 276 -27 380 202 226 491 -115 215 -115 215 -375 -66 -197 -212 -270 -244 -301 -132 -118 431 -125 434 -378 197 -245 -231 -287 -210 -252 127 22 214 -127 227 -294 26z"/>
<path d="M21326 18668 c-132 -291 -48 -768 136 -768 99 0 138 141 138 500 0 538 -104 640 -274 268z"/>
<path d="M23670 18025 c-23 -41 -72 -200 -109 -352 -57 -240 -93 -263 -263 -172 -109 58 -198 194 -198 303 0 108 -67 196 -150 196 -191 0 -192 -386 -2 -637 100 -132 214 -169 386 -126 173 43 263 14 306 -98 41 -106 120 -136 236 -87 192 79 210 80 749 14 l375 -46 -3 465 c-3 425 -16 449 -147 276 -78 -104 -158 -236 -177 -293 -19 -57 -90 -69 -158 -27 -68 42 -96 161 -62 267 108 342 -225 215 -352 -133 -118 -324 -118 -324 -212 -86 -51 132 -67 323 -34 425 56 177 -97 268 -185 111z"/>
<path d="M20704 17655 c-142 -171 -57 -519 196 -805 97 -110 251 -346 341 -525 168 -332 299 -404 409 -225 34 56 177 72 317 37 225 -57 247 -39 189 146 -37 115 -21 295 35 400 56 105 74 219 40 253 -100 100 -331 -143 -331 -348 0 -104 -45 -188 -100 -188 -133 0 -128 432 7 567 75 75 60 124 -54 168 -95 36 -184 1 -217 -87 -32 -81 -96 -148 -144 -148 -141 0 -396 574 -331 744 78 201 -192 209 -357 11z"/>
<path d="M22467 16733 c-37 -36 -67 -284 -67 -550 0 -363 37 -483 150 -483 115 0 150 128 150 550 0 510 -67 649 -233 483z"/>
<path d="M23019 16553 c-137 -302 -66 -713 137 -791 189 -73 263 79 186 383 -78 311 89 338 331 55 196 -228 429 -257 613 -75 102 101 107 73 27 -140 -115 -304 -66 -385 234 -385 248 0 453 176 453 390 0 117 -27 123 -120 30 -186 -186 -297 -142 -262 105 20 142 96 220 207 211 122 -10 175 59 175 225 0 242 -138 320 -249 141 -59 -96 -694 -70 -1306 53 -262 53 -322 24 -426 -202z"/>
<path d="M3846 16593 c-36 -58 -45 -127 -20 -152 69 -70 374 68 374 170 0 125 -274 111 -354 -18z"/>
<path d="M23600 15711 c0 -153 -330 -225 -413 -90 -56 91 -110 96 -186 20 -149 -149 -17 -441 199 -441 98 0 205 -69 237 -152 41 -108 134 -134 313 -89 237 60 252 42 227 -273 l-27 -336 525 -18 c526 -18 577 16 464 310 -76 199 -277 203 -438 9 -185 -222 -314 -77 -252 282 69 395 -82 674 -265 491 -191 -191 -261 -149 -208 126 27 146 1 250 -64 250 -62 0 -112 -40 -112 -89z"/>
<path d="M19700 15496 c0 -226 331 -600 488 -551 89 28 342 -11 562 -87 363 -125 403 -174 432 -522 38 -448 167 -636 434 -636 203 0 349 -96 750 -496 l247 -247 -373 -129 c-399 -138 -550 -98 -358 94 153 153 151 278 -7 279 -69 0 -255 68 -415 151 -327 171 -502 99 -235 -96 181 -132 234 -407 96 -493 -43 -27 -167 83 -275 244 -200 298 -449 393 -442 168 2 -69 135 -278 296 -466 245 -287 315 -321 444 -214 127 105 165 99 216 -34 34 -88 147 -161 251 -161 104 0 178 -53 164 -117 -14 -64 76 -169 199 -234 124 -64 317 -201 431 -303 164 -149 243 -164 388 -74 128 80 213 82 287 8 140 -140 420 -28 420 167 0 109 -103 153 -359 153 -280 0 -372 46 -414 207 -42 162 -107 195 -295 147 -318 -79 -477 21 -326 204 64 77 159 114 210 82 51 -31 162 0 247 71 85 70 338 153 563 183 554 76 586 265 56 336 -300 40 -480 132 -612 313 -103 142 -270 257 -372 257 -101 0 -211 82 -242 183 -44 137 -132 171 -357 138 -214 -31 -299 -3 -299 101 0 84 92 141 222 136 135 -5 236 60 257 167 27 130 -30 175 -218 175 -150 0 -297 80 -359 196 -58 108 -166 173 -241 144 -76 -29 -235 72 -355 224 -191 244 -241 262 -421 150 -113 -70 -230 -102 -261 -71 -32 31 -22 57 22 57 43 0 22 68 -46 150 -142 171 -400 201 -400 46z"/>
<path d="M24800 15106 c0 -52 45 -122 100 -156 55 -34 100 8 100 94 0 86 -45 156 -100 156 -55 0 -100 -42 -100 -94z"/>
<path d="M6465 14683 c-162 -605 -2 -1183 326 -1183 269 0 374 185 441 775 50 451 34 525 -112 526 -93 1 -265 27 -381 58 -162 44 -226 2 -274 -176z"/>
<path d="M20570 14525 c-23 -41 -71 -197 -107 -346 -50 -208 -20 -295 130 -375 271 -145 407 -130 407 46 0 82 -67 150 -150 150 -82 0 -150 39 -150 88 0 48 68 144 150 212 83 68 150 164 150 212 0 107 -371 118 -430 13z"/>
<path d="M5500 14100 c-133 -249 10 -553 297 -628 260 -68 359 90 187 298 -74 88 -120 244 -103 345 43 252 -244 240 -381 -15z"/>
<path d="M19966 14132 c-36 -36 -66 -125 -66 -199 0 -149 258 -182 343 -44 68 110 -187 334 -277 243z"/>
<path d="M23824 14134 c-157 -64 -61 -234 132 -234 79 0 144 68 144 150 0 154 -57 172 -276 84z"/>
<path d="M24136 13650 c-95 -247 42 -450 303 -450 408 0 561 106 558 386 -3 241 -15 249 -136 89 -163 -215 -321 -225 -397 -25 -32 82 -106 150 -164 150 -58 0 -132 -68 -164 -150z"/>
<path d="M20019 13489 c-235 -88 -217 -289 25 -289 164 0 394 265 286 329 -44 26 -184 8 -311 -40z"/>
<path d="M23453 13504 c-36 -58 7 -133 95 -167 220 -84 288 8 113 154 -98 81 -164 86 -208 13z"/>
<path d="M6200 13083 c-282 -294 -500 -796 -500 -1149 0 -336 392 -932 614 -933 91 -1 192 -72 225 -159 34 -87 116 -140 182 -118 67 22 199 -120 293 -317 334 -698 789 -1837 749 -1877 -22 -22 -205 254 -406 615 -202 360 -410 655 -462 655 -173 0 -100 -191 336 -874 238 -372 519 -866 625 -1098 197 -430 344 -549 344 -278 0 278 184 153 302 -205 64 -195 231 -476 371 -625 140 -148 349 -472 466 -720 116 -247 306 -585 422 -750 116 -165 265 -412 330 -550 113 -236 111 -239 -32 -50 -84 110 -191 246 -238 302 -47 55 -210 314 -363 575 -152 260 -318 473 -368 473 -149 0 -112 -76 445 -931 294 -452 801 -1327 1125 -1945 324 -618 622 -1124 662 -1124 39 0 47 79 17 175 -120 380 282 -240 777 -1200 276 -536 566 -975 643 -975 196 0 190 20 -259 812 -220 388 -400 732 -400 764 0 32 -65 130 -144 217 -79 88 -467 789 -862 1558 -396 770 -797 1512 -893 1649 -96 138 -366 610 -600 1050 -234 440 -483 868 -554 950 -71 83 -355 612 -632 1176 -277 565 -573 1096 -659 1182 -86 86 -185 277 -220 424 -109 450 -1121 2399 -1296 2498 -193 107 -79 370 160 370 174 0 263 427 120 570 -62 62 -176 14 -320 -137z m-70 -1387 c45 -170 29 -186 -88 -89 -78 64 -142 182 -142 261 0 201 165 78 230 -172z m4757 -8422 c166 -316 269 -574 228 -574 -70 0 -615 1035 -615 1169 0 113 78 -7 387 -595z m413 -830 c0 -24 -45 -44 -100 -44 -55 0 -100 48 -100 106 0 58 45 78 100 44 55 -34 100 -82 100 -106z"/>
<path d="M4575 13133 c-96 -26 -175 -126 -175 -222 0 -141 80 -170 425 -153 340 16 425 57 425 206 0 191 -311 269 -675 169z"/>
<path d="M20116 12690 c44 -305 384 -392 384 -97 0 114 -19 207 -42 207 -23 0 -117 29 -209 64 -131 51 -159 14 -133 -174z"/>
<path d="M23843 12457 c-121 -481 198 -805 566 -575 116 73 204 78 242 16 34 -54 126 -98 205 -98 205 0 176 403 -50 697 l-190 247 -124 -272 c-150 -328 -267 -349 -310 -55 -46 315 -264 341 -339 40z"/>
<path d="M23200 12300 c0 -55 70 -100 156 -100 86 0 128 45 94 100 -34 55 -104 100 -156 100 -52 0 -94 -45 -94 -100z"/>
<path d="M20624 11977 c81 -122 278 -294 437 -381 161 -88 374 -343 481 -577 173 -376 458 -575 458 -319 0 189 168 100 282 -150 62 -137 186 -250 275 -250 88 0 242 -100 341 -222 153 -190 202 -202 341 -88 135 113 188 112 323 0 188 -156 903 -228 982 -99 30 47 -13 142 -95 210 -82 68 -149 183 -149 255 0 265 -203 249 -315 -25 l-114 -281 -111 367 c-136 453 -236 562 -318 347 -99 -257 -429 -201 -501 86 -68 273 -143 308 -309 142 -76 -76 -138 -19 -214 200 -123 351 -312 403 -389 108 -97 -370 -329 -148 -329 315 0 150 -47 184 -192 138 -138 -44 -210 -3 -258 147 -48 150 -120 191 -258 147 -107 -34 -192 -13 -192 46 0 59 -73 107 -162 107 -146 0 -147 -23 -14 -223z"/>
<path d="M17040 11660 c-37 -95 -17 -223 43 -283 80 -80 129 -63 177 63 37 95 17 223 -43 283 -80 80 -129 63 -177 -63z"/>
<path d="M24364 11731 c-81 -81 -83 -565 -3 -773 33 -87 121 -158 194 -158 177 0 446 393 442 647 -3 186 -12 188 -105 28 -136 -233 -292 -222 -292 19 0 209 -132 341 -236 237z"/>
<path d="M20067 11633 c-127 -126 -66 -233 133 -233 111 0 200 67 200 150 0 152 -212 205 -333 83z"/>
<path d="M20500 11115 c0 -174 287 -515 433 -515 140 0 59 376 -116 535 -236 213 -317 209 -317 -20z"/>
<path d="M23619 11094 c24 -72 103 -151 175 -175 75 -25 112 12 87 87 -24 72 -103 151 -175 175 -75 25 -112 -12 -87 -87z"/>
<path d="M19100 10912 c0 -264 274 -478 422 -330 84 84 67 165 -70 316 -229 252 -352 258 -352 14z"/>
<path d="M18400 10761 c0 -316 237 -396 456 -154 159 176 160 193 9 193 -91 0 -165 45 -165 100 0 55 -67 100 -150 100 -92 0 -150 -93 -150 -239z"/>
<path d="M21434 10144 c-35 -90 76 -344 265 -608 240 -334 296 -481 213 -564 -62 -62 -112 -191 -112 -287 0 -245 449 -1061 749 -1361 138 -138 251 -290 251 -338 0 -47 50 -86 111 -86 65 0 82 71 40 175 -191 477 -191 481 15 300 110 -96 253 -175 319 -175 66 0 172 -124 236 -275 65 -151 188 -361 273 -467 86 -106 103 -161 38 -124 -178 104 -251 -94 -85 -231 155 -129 393 -49 301 101 -54 87 319 227 508 190 358 -68 444 14 444 425 0 397 -8 409 -157 225 -150 -186 -154 -182 -98 81 42 198 19 275 -82 275 -155 0 -263 -209 -263 -508 0 -327 -174 -211 -244 163 -37 196 -128 379 -202 407 -74 29 -162 150 -196 270 -61 216 -62 217 -214 18 -130 -171 -165 -178 -246 -50 -52 83 -96 251 -96 375 -3 301 -184 286 -302 -25 -121 -318 -237 -317 -383 3 -63 139 -183 279 -266 311 -94 35 -151 186 -151 397 0 332 123 444 254 232 37 -59 124 -84 196 -57 71 27 303 -128 515 -345 295 -302 455 -390 685 -377 399 23 925 -209 984 -433 86 -330 266 -188 266 209 0 344 -36 403 -300 495 -165 58 -300 152 -300 210 0 58 -67 105 -150 105 -100 0 -150 100 -150 300 0 190 -51 300 -139 300 -162 0 -261 -213 -261 -564 0 -329 -175 -209 -282 194 -56 212 -139 311 -244 292 -89 -15 -188 64 -225 181 -52 165 -95 184 -206 91 -110 -91 -155 -80 -205 50 -35 93 -127 143 -206 113 -79 -30 -271 78 -433 244 -335 343 -383 357 -465 143z"/>
<path d="M24800 10050 c0 -82 45 -150 100 -150 55 0 100 68 100 150 0 83 -45 150 -100 150 -55 0 -100 -67 -100 -150z"/>
<path d="M19325 10027 c-286 -26 -425 -86 -425 -183 0 -150 530 -203 842 -83 154 59 231 356 83 322 -41 -10 -266 -35 -500 -56z"/>
<path d="M20200 9962 c0 -76 68 -194 150 -262 120 -100 182 -98 309 7 145 120 143 144 -19 263 -232 169 -440 166 -440 -8z"/>
<path d="M24500 9261 c0 -217 163 -361 408 -361 156 0 102 260 -91 435 -248 224 -317 208 -317 -74z"/>
<path d="M19516 9176 c-180 -180 -137 -558 78 -673 241 -129 378 39 203 250 -65 79 -94 211 -63 293 75 193 -69 279 -218 130z"/>
<path d="M20267 9133 c-120 -120 -70 -506 82 -632 82 -68 256 -96 388 -63 153 38 285 6 364 -89 158 -190 341 -190 499 1 104 125 90 150 -88 150 -169 0 -212 61 -212 300 0 348 -246 416 -331 91 -73 -276 -408 -213 -451 85 -32 224 -126 283 -251 157z"/>
<path d="M18709 8875 c-156 -411 117 -674 533 -514 223 85 196 239 -42 239 -147 0 -200 67 -200 250 0 311 -178 326 -291 25z"/>
<path d="M18019 8575 c22 -297 76 -425 181 -425 109 0 152 117 156 425 5 351 -26 425 -181 425 -158 0 -182 -66 -156 -425z"/>
<path d="M22476 8742 c-86 -86 97 -442 228 -442 132 0 120 129 -32 336 -70 97 -158 144 -196 106z"/>
<path d="M15669 6725 c-140 -216 -156 -2225 -18 -2225 75 0 139 234 172 625 61 752 -37 1780 -154 1600z"/>
<path d="M20000 2212 c0 -103 66 -345 146 -538 108 -257 122 -438 53 -679 -113 -393 -31 -795 162 -795 182 0 192 1234 15 1802 -128 408 -376 547 -376 210z"/>
<path d="M20600 650 c0 -562 25 -650 182 -650 162 0 174 59 114 525 -38 289 -47 581 -22 650 26 69 -25 125 -113 125 -131 0 -161 -120 -161 -650z"/>
<path d="M14600 158 c0 -87 71 -158 158 -158 87 0 141 53 119 119 -62 185 -277 216 -277 39z"/>
</g>
</svg>