<svg xmlns="http://www.w3.org/2000/svg" version="1.0" width="250" height="250" viewBox="0 0 250.000000 250.000000" preserveAspectRatio="xMidYMid meet">
<metadata>
Created by potrace 1.10, written by Peter Selinger 2001-2011
</metadata>
<g transform="translate(0.000000,250.000000) scale(0.010000,-0.010000)" fill="#555555" stroke="none">
<path d="M0 23091 c0 -1826 9 -1912 200 -1962 248 -65 248 -87 0 -402 -189 -240 -200 -405 -200 -2960 l0 -2707 497 545 498 545 252 -271 c297 -317 302 -339 98 -417 -89 -34 -129 -18 -94 39 167 270 -261 35 -726 -398 l-525 -490 0 -693 0 -693 465 -64 c501 -68 735 39 735 338 0 103 145 245 348 341 191 91 460 313 598 494 138 180 375 393 527 471 897 463 1411 961 1765 1707 340 720 337 1015 -13 1270 l-275 200 213 233 c345 378 460 680 394 1032 -74 391 -486 834 -848 909 -142 30 -326 98 -409 151 -83 53 -222 121 -310 152 -207 71 -541 843 -691 1596 -65 326 -157 773 -204 993 -48 220 -88 749 -91 1175 -4 695 -24 775 -195 775 -173 0 -188 -68 -162 -725 45 -1126 -107 -1282 -194 -200 -41 509 -114 925 -164 925 -49 0 -89 -101 -88 -225 2 -419 389 -3378 456 -3486 41 -66 -6 -95 -120 -74 -103 19 -276 215 -384 435 -190 385 -204 514 -344 3175 -7 142 -103 175 -509 175 l-500 0 0 -1909z m688 784 c-11 -797 -14 -808 -97 -325 -77 445 -33 1150 70 1150 22 0 34 -371 27 -825z m-323 -1040 c-36 -421 -65 -925 -65 -1120 0 -195 -34 -312 -75 -260 -119 150 -29 2145 96 2145 74 0 88 -244 44 -765z m477 -1047 c58 -405 42 -469 -128 -513 -206 -54 -207 -42 -117 1375 l25 400 77 -400 c42 -220 106 -608 143 -862z m1356 -181 c129 -690 480 -1420 710 -1480 98 -26 201 -107 230 -181 28 -74 223 -166 432 -203 209 -37 481 -160 605 -273 222 -202 304 -610 143 -709 -46 -28 -79 43 -75 159 4 115 -49 229 -118 253 -77 27 -125 -48 -125 -196 0 -136 -130 -364 -300 -527 -165 -158 -300 -343 -300 -411 0 -68 -117 -263 -260 -433 -158 -188 -236 -373 -198 -472 94 -245 -207 -634 -492 -634 -343 0 -446 429 -202 844 584 994 963 1897 901 2144 -85 341 -233 512 -443 512 -269 0 -736 547 -663 778 34 108 -6 591 -90 1072 -84 482 -150 949 -146 1038 9 225 268 -623 391 -1281z m-955 -705 c279 -106 349 -302 107 -302 -82 0 -150 -75 -150 -166 0 -217 -317 -934 -412 -934 -164 0 -388 330 -388 570 0 270 356 930 502 930 47 0 200 -44 341 -98z m390 -1420 c-328 -562 -588 -432 -319 159 112 245 404 393 470 237 18 -44 -50 -222 -151 -396z m1107 -41 c77 -200 -9 -346 -168 -287 -70 26 -193 -124 -287 -349 -136 -324 -141 -399 -28 -425 106 -23 91 -103 -70 -355 -234 -368 -528 -421 -687 -125 -59 110 -150 200 -204 200 -170 0 -103 -202 153 -458 205 -205 222 -259 96 -308 -85 -32 -166 -42 -182 -21 -541 720 -561 987 -74 987 253 0 313 54 416 375 213 662 414 925 706 925 152 0 294 -68 329 -159z m-1875 -595 c70 -182 56 -199 -240 -290 -179 -55 -225 -30 -225 121 0 337 352 465 465 169z m-75 -1399 c170 -195 310 -399 310 -454 0 -141 -397 83 -466 264 -31 78 -118 143 -195 143 -76 0 -139 90 -139 200 0 290 138 247 490 -153z m3390 -67 c172 -172 151 -413 -30 -344 -107 41 -150 -9 -150 -174 0 -128 -135 -418 -300 -646 -165 -228 -300 -452 -300 -499 0 -126 -539 -350 -576 -239 -17 51 -86 169 -153 261 -105 142 -43 251 413 734 295 311 575 670 623 797 96 252 286 297 473 110z m-3573 -584 c246 -131 243 -206 -25 -546 -203 -259 -222 -264 -290 -82 -70 189 -13 732 76 732 25 0 132 -47 239 -104z m1149 -307 c208 -403 50 -616 -254 -341 -231 209 -254 360 -82 532 160 160 152 164 336 -191z m724 -909 c138 -138 161 -380 36 -380 -46 0 -135 113 -198 250 -120 265 -38 330 162 130z m-604 -655 c22 -69 -14 -125 -81 -125 -66 0 -295 -157 -508 -350 -213 -193 -432 -350 -487 -350 -217 0 -81 344 263 668 362 342 728 413 813 157z"/>
<path d="M5803 24742 c315 -828 1267 -2056 1833 -2363 173 -94 483 -173 689 -175 l375 -4 0 -488 c0 -333 -53 -531 -166 -625 -92 -75 -368 -452 -615 -837 -247 -385 -797 -1172 -1222 -1750 -1078 -1465 -2233 -3334 -2768 -4480 -249 -533 -549 -1103 -666 -1266 -117 -163 -311 -496 -432 -741 -141 -288 -324 -490 -517 -571 -515 -217 -650 -540 -643 -1542 8 -1136 -32 -2267 -83 -2350 -35 -55 -92 -303 -128 -550 -80 -545 -195 -752 -361 -649 -92 57 -107 295 -56 917 61 755 46 876 -147 1189 -181 292 -639 643 -841 643 -107 0 -53 -381 94 -664 188 -360 189 -1108 1 -1436 -167 -292 -203 -1714 -51 -1999 55 -102 263 -239 463 -305 l364 -120 -67 -613 c-37 -337 -108 -1092 -157 -1678 -49 -585 -121 -1339 -159 -1675 -58 -516 -45 -610 87 -610 245 0 259 87 422 2500 65 956 327 2886 412 3022 30 49 92 323 136 609 173 1100 480 1545 885 1282 109 -70 112 -132 15 -313 -127 -238 -412 -1360 -645 -2545 -154 -781 -316 -2218 -409 -3630 -57 -868 -49 -925 132 -925 167 0 202 98 260 715 71 772 368 1442 682 1541 204 65 780 1125 780 1435 0 109 38 221 85 250 132 82 228 -1737 153 -2899 -66 -1020 -63 -1042 147 -1042 204 0 216 49 225 925 5 509 23 1439 39 2068 20 789 -14 1266 -110 1538 -141 399 -192 2111 -76 2544 33 124 132 225 219 225 123 0 131 27 38 120 -186 186 -142 297 105 262 215 -31 226 -77 248 -1082 13 -577 68 -1365 121 -1750 54 -385 126 -1060 161 -1500 35 -440 127 -1242 205 -1783 78 -540 117 -1024 85 -1075 -88 -143 52 -492 197 -492 265 0 265 2351 0 3511 -57 249 -37 264 424 316 266 30 505 34 531 9 26 -26 -30 -341 -125 -701 -107 -407 -138 -713 -84 -810 51 -91 46 -305 -13 -516 -187 -664 -330 -1458 -295 -1634 19 -97 124 -175 234 -175 156 0 185 45 134 207 -95 299 233 1537 519 1958 134 197 331 545 438 773 107 227 536 809 953 1292 502 581 739 933 700 1036 -48 125 -153 72 -514 -261 -490 -452 -674 -476 -729 -97 -88 621 -637 591 -911 -49 -172 -400 -514 -659 -870 -659 -126 0 -143 71 -86 374 93 494 97 499 617 744 247 116 525 327 617 470 92 142 246 337 340 433 95 96 202 299 238 451 36 153 299 754 586 1336 287 582 547 1156 579 1275 34 133 135 217 259 217 178 0 197 -48 152 -375 -29 -206 -168 -837 -309 -1401 -142 -565 -231 -1053 -199 -1085 120 -120 272 82 272 361 0 159 48 318 106 354 72 44 85 -50 39 -294 -42 -228 -29 -360 38 -360 152 0 229 -761 142 -1400 -64 -467 -109 -555 -300 -582 -124 -18 -277 -130 -340 -250 -63 -120 -213 -318 -333 -439 -120 -122 -279 -415 -353 -650 -74 -236 -285 -732 -467 -1102 -408 -825 -455 -1504 -118 -1684 344 -185 759 -280 851 -195 47 43 254 132 460 198 489 156 531 462 50 360 -789 -167 -979 -177 -1124 -57 -234 194 -183 503 232 1412 210 462 433 959 494 1106 67 159 205 281 342 300 169 24 240 109 263 314 23 200 81 272 200 249 207 -39 259 -621 146 -1630 -66 -594 -108 -704 -278 -726 -110 -14 -267 19 -350 72 -123 80 -128 134 -27 296 91 148 93 217 9 269 -126 78 -482 -304 -482 -516 0 -195 396 -441 819 -509 l369 -60 -57 -479 c-69 -583 22 -997 219 -997 124 0 140 344 107 2375 -21 1306 -42 2420 -46 2475 -4 55 12 303 36 550 24 248 61 1272 82 2276 22 1004 71 1858 110 1896 39 39 147 23 241 -37 217 -137 213 -23 190 -5585 -14 -3091 26 -3950 179 -3950 128 0 149 326 143 2313 -4 1302 34 2353 86 2405 58 58 118 -91 158 -387 35 -265 140 -693 233 -952 l168 -472 -269 -249 c-361 -334 -351 -558 25 -558 199 0 313 60 353 187 65 206 863 374 1114 234 136 -77 -386 -470 -1256 -946 -199 -108 -307 -237 -286 -341 46 -241 255 -278 325 -58 32 104 349 349 703 546 586 325 722 360 1524 380 484 13 995 18 1135 11 365 -18 995 -623 995 -955 0 -146 73 -376 162 -512 89 -135 138 -336 109 -446 -48 -185 -3 -200 613 -199 l666 0 430 1625 c236 893 470 1883 520 2200 49 317 111 611 137 653 26 42 99 458 163 924 63 466 269 1442 458 2168 189 727 410 1650 491 2050 81 401 234 1044 341 1429 107 385 249 993 316 1350 183 972 199 990 766 878 571 -113 683 -192 1105 -773 284 -391 323 -522 323 -1085 0 -529 -26 -631 -150 -584 -121 47 -151 -43 -156 -464 -13 -1175 -615 -4651 -896 -5176 -54 -101 -97 -310 -96 -464 2 -342 -352 -1954 -613 -2789 -227 -728 -228 -743 -45 -743 151 0 146 -90 -39 -699 -142 -471 -136 -501 95 -501 156 0 200 67 200 303 0 299 3 301 282 156 192 -99 497 -134 953 -108 579 32 688 10 792 -157 124 -199 573 -273 573 -95 0 55 -140 233 -312 397 -268 256 -302 344 -244 626 37 180 102 653 145 1051 65 599 124 766 345 971 204 189 266 341 266 653 0 223 -52 490 -117 592 -91 146 -79 319 54 793 94 337 162 892 152 1249 -9 353 14 693 53 756 139 226 81 2301 -93 3291 -108 613 -146 1112 -98 1287 43 157 78 375 78 485 1 291 -143 984 -228 1100 -87 118 -232 1631 -210 2186 9 212 -37 449 -101 526 -112 135 -99 1098 66 4688 l46 1000 431 400 c540 502 675 867 557 1503 -110 586 -311 826 -725 866 -239 24 -323 85 -347 256 -18 124 -92 225 -166 225 -109 0 -131 -405 -118 -2125 18 -2420 -144 -5732 -232 -4725 -28 330 -20 870 18 1200 71 602 102 3638 43 4200 -18 165 -39 559 -47 875 -12 443 -51 575 -169 575 -133 0 -143 -142 -75 -1075 86 -1182 80 -3866 -11 -5275 l-58 -900 -426 31 c-239 18 -598 -40 -815 -132 -214 -89 -423 -126 -464 -81 -42 45 -101 712 -131 1482 -30 770 -79 1648 -109 1950 -30 303 -76 820 -101 1149 -25 329 -121 1004 -212 1500 -92 496 -186 1002 -208 1126 -22 124 -113 225 -201 225 -126 0 -148 -66 -100 -306 65 -322 41 -327 -517 -117 -75 28 -155 -42 -187 -164 -72 -276 -395 -278 -1399 -8 -843 225 -1133 353 -1133 499 0 53 -93 96 -207 96 -169 0 -193 -41 -135 -225 39 -123 143 -279 232 -347 333 -253 1527 -515 2610 -573 413 -21 784 -43 825 -47 41 -4 75 -132 75 -284 0 -151 41 -419 91 -594 51 -175 171 -1492 268 -2926 l177 -2607 -210 -283 c-179 -242 -205 -396 -176 -1049 35 -803 -21 -893 -356 -581 -185 173 -188 206 -43 552 139 333 138 421 -7 921 -89 304 -225 675 -302 823 -135 258 -129 272 124 320 198 38 297 146 398 436 117 340 108 517 -77 1450 -115 585 -273 1130 -350 1212 -205 217 -877 187 -1142 -50 -221 -198 -221 -198 -157 10 41 132 -44 448 -230 858 -327 721 -685 1052 -1553 1436 -473 209 -612 228 -1088 151 -944 -154 -1818 -711 -2016 -1286 -61 -176 -697 -677 -1202 -947 -531 -284 -909 -645 -795 -761 72 -74 253 -5 605 232 796 536 1359 696 2461 701 843 3 1008 -25 1265 -215 162 -120 412 -248 556 -284 143 -36 286 -105 316 -154 30 -49 136 -89 236 -89 100 0 391 -92 646 -205 l465 -206 298 212 c164 117 298 255 298 306 0 138 676 113 763 -28 82 -132 196 -687 335 -1629 69 -466 59 -631 -47 -739 -116 -119 -310 23 -1299 950 -919 861 -1249 1110 -1582 1190 -231 55 -516 155 -633 222 -530 302 -1190 450 -1735 390 -666 -74 -1344 -303 -1681 -568 -136 -107 -337 -195 -445 -195 -108 0 -334 -115 -501 -256 -368 -309 -519 -210 -504 329 8 271 73 415 239 525 126 84 264 197 308 252 43 55 356 460 696 900 340 440 802 1008 1027 1261 225 254 541 648 703 875 162 228 331 414 375 414 45 0 81 45 81 100 0 55 -110 100 -245 100 -181 0 -330 -125 -567 -475 -177 -261 -505 -681 -730 -932 -904 -1014 -1513 -1745 -1608 -1931 -55 -108 -160 -216 -233 -240 -102 -34 -121 65 -80 433 29 262 93 503 142 536 1421 941 1805 1359 2100 2284 95 299 86 325 -114 325 -173 0 -256 -109 -402 -525 -215 -612 -461 -941 -570 -763 -52 83 -180 50 -449 -116 -317 -196 -348 -242 -193 -296 168 -59 163 -79 -56 -232 -132 -93 -280 -168 -329 -168 -49 0 -73 460 -53 1023 33 912 18 1027 -138 1057 -158 31 -177 -81 -193 -1148 -10 -650 -35 -1857 -56 -2682 -21 -825 -31 -2476 -22 -3669 21 -2639 -45 -3342 -325 -3492 -139 -74 -232 -76 -304 -4 -86 86 -159 1098 -204 2815 -3 138 28 1263 70 2500 42 1238 65 2363 50 2500 -15 138 -30 914 -34 1725 l-7 1475 -673 0 c-599 0 -690 -26 -829 -239 -87 -132 -181 -413 -211 -625 -89 -634 -115 -679 -300 -525 -130 107 -148 252 -96 761 54 525 39 628 -88 628 -84 0 -153 -74 -153 -165 0 -154 -13 -154 -183 0 -100 91 -324 165 -497 165 -297 0 -310 -14 -217 -258z m897 -508 c0 -215 -119 -85 -289 316 l-127 300 208 -221 c114 -121 208 -299 208 -395z m1979 -625 c16 -518 -13 -983 -64 -1034 -125 -125 -515 88 -515 281 0 82 -118 194 -263 249 -247 94 -260 129 -200 566 93 677 300 948 694 910 l319 -31 29 -941z m14140 466 c211 -176 281 -339 322 -750 30 -307 12 -525 -45 -525 -53 0 -96 94 -96 209 0 126 -80 231 -200 262 -149 39 -200 136 -200 385 0 183 -45 360 -100 394 -117 72 -135 250 -25 250 41 -1 196 -102 344 -225z m-7470 -1031 c745 -354 1547 -1283 941 -1091 -193 62 -205 40 -140 -268 58 -274 47 -312 -59 -210 -196 187 -321 151 -262 -75 29 -110 15 -223 -31 -251 -46 -29 -98 47 -116 167 -26 176 -142 246 -582 350 -882 208 -1312 262 -1925 241 -316 -11 -575 12 -575 50 0 38 97 227 216 419 419 679 1764 1033 2533 668z m7304 -534 c-36 -115 -108 -210 -160 -210 -107 0 -121 210 -30 449 93 242 272 18 190 -239z m-6070 -1260 c-2 -161 -19 -151 -83 50 -110 342 -110 605 0 350 47 -110 85 -290 83 -400z m-3721 -581 c-498 -314 -767 -617 -861 -965 -61 -228 -210 -453 -368 -556 l-265 -174 216 350 c119 192 216 485 216 651 0 402 521 805 1050 811 193 2 194 -2 12 -117z m-4178 -508 c-8 -409 -59 -488 -739 -1152 -697 -682 -1245 -1530 -1245 -1929 0 -99 -37 -180 -83 -180 -92 0 -496 -602 -1072 -1600 -207 -357 -576 -867 -820 -1131 -392 -425 -438 -521 -383 -811 45 -243 17 -367 -106 -469 -92 -77 -243 -306 -334 -511 -168 -373 -662 -851 -770 -744 -31 32 61 198 206 369 144 172 262 380 262 463 0 276 1265 2776 1686 3331 227 301 414 588 414 637 0 49 245 415 544 812 515 685 1314 1836 1996 2877 171 260 342 474 381 475 40 1 68 -196 63 -437z m5216 351 c0 -48 -70 -146 -156 -217 -98 -81 -135 -216 -100 -355 61 -245 -159 -540 -404 -540 -125 0 -124 40 7 295 84 162 153 371 153 464 0 93 79 229 175 302 205 155 325 174 325 51z m998 -87 c-2 -137 -186 -370 -245 -311 -79 78 47 386 158 386 49 0 88 -34 87 -75z m760 -202 c186 -127 642 -862 642 -1036 0 -150 -189 -287 -397 -287 -44 0 -110 199 -147 442 -36 243 -131 496 -211 562 -261 217 -159 505 113 319z m-4490 -164 c-255 -113 -952 -916 -1100 -1268 -33 -78 -50 58 -39 301 19 393 60 463 371 634 193 105 416 255 496 333 81 77 238 137 350 133 168 -7 154 -30 -78 -133z m1832 -26 c0 -179 -276 -533 -415 -533 -160 0 -85 490 90 592 249 145 325 131 325 -59z m2300 -545 c0 -49 -111 -186 -247 -304 -319 -277 -225 -426 147 -234 271 140 299 136 442 -69 183 -262 127 -363 -98 -176 -117 97 -206 105 -330 27 -94 -59 -322 -140 -507 -181 -302 -66 -329 -54 -265 113 129 331 112 386 -117 378 -124 -4 -225 48 -225 117 0 68 -27 196 -61 283 -86 225 155 199 414 -45 330 -310 580 -165 503 292 l-61 361 203 -236 c111 -130 202 -276 202 -326z m-4000 77 c0 -163 -488 -710 -565 -633 -46 45 463 768 540 768 14 0 25 -61 25 -135z m2468 -577 c-30 -116 -16 -285 33 -375 48 -89 115 -330 148 -535 34 -218 148 -435 274 -523 197 -138 243 -129 571 117 196 147 379 292 406 323 28 30 309 55 625 55 484 0 575 -28 575 -177 0 -170 -70 -214 -762 -471 -387 -143 -538 -460 -538 -1132 l-1 -520 -188 309 c-217 355 -673 741 -878 741 -76 0 -165 -67 -197 -150 -31 -82 -131 -149 -222 -148 -365 3 -398 115 -303 1048 66 649 59 979 -26 1184 -128 312 -15 461 352 464 141 2 173 -50 131 -210z m-968 -150 c0 -231 -32 -255 -274 -209 -151 29 -353 10 -450 -42 -141 -75 -176 -54 -176 105 0 238 250 401 625 405 231 3 275 -39 275 -259z m-4162 37 c-40 -69 -261 -372 -490 -675 -619 -816 -666 -930 -488 -1185 245 -349 461 -280 386 123 -54 286 -16 391 242 675 l306 337 3 -876 3 -877 -620 43 c-669 47 -880 199 -880 633 0 368 344 952 860 1461 436 430 854 640 678 341z m8196 -550 c35 -186 19 -325 -36 -325 -54 0 -98 34 -98 76 0 41 -141 137 -313 214 -285 126 -296 147 -125 240 104 56 228 169 276 250 109 184 203 39 296 -455z m-6383 74 c80 -130 -36 -499 -158 -499 -51 0 -93 135 -93 300 0 295 128 397 251 199z m2447 -251 c-70 -84 -147 -132 -172 -107 -70 69 71 259 192 259 66 0 59 -57 -20 -152z m5295 -748 c1 -133 -9 -133 -84 0 -47 83 -115 263 -151 400 l-66 250 150 -250 c83 -137 151 -317 151 -400z m-5572 265 c-17 -91 17 -165 75 -165 115 0 136 -420 40 -780 -128 -477 -402 -161 -707 815 -68 217 88 338 399 313 146 -12 212 -75 193 -183z m4972 -240 c4 -69 -38 -125 -93 -125 -55 0 -97 146 -93 325 6 272 21 293 93 125 47 -110 89 -256 93 -325z m-6854 17 c38 -98 15 -143 -58 -119 -149 50 -231 277 -100 277 54 0 125 -71 158 -158z m10361 -42 c0 -55 -67 -100 -150 -100 -82 0 -150 45 -150 100 0 55 68 100 150 100 83 0 150 -45 150 -100z m-3902 -760 c2 -284 -59 -465 -199 -591 -268 -242 -337 -146 -152 211 83 160 125 369 95 465 -31 96 -25 271 12 388 100 314 243 38 244 -473z m4630 384 c290 -320 188 -2236 -154 -2884 -120 -227 -134 -340 -53 -421 81 -81 76 -152 -17 -265 -227 -272 51 -164 293 115 154 176 230 382 222 600 -7 182 31 331 84 331 158 0 111 -686 -66 -955 -142 -218 -143 -241 -7 -189 252 97 410 -341 415 -1156 5 -714 -207 -1771 -331 -1648 -31 32 -45 366 -30 741 35 855 -148 1326 -710 1819 -284 250 -594 407 -971 494 -304 70 -620 181 -703 247 -82 67 -206 101 -275 76 -69 -25 -125 3 -125 63 0 59 146 112 325 118 179 5 595 16 925 25 562 14 940 192 500 235 -1260 122 -1350 145 -1350 335 0 283 434 537 687 402 291 -156 813 -136 813 31 0 161 -429 262 -1119 262 l-494 0 32 325 c30 312 47 324 431 302 632 -36 1250 70 1250 215 0 153 -1343 195 -1614 51 -271 -145 -380 105 -216 496 l142 339 669 -53 c368 -29 782 -18 919 26 361 114 354 115 528 -77z m-11628 -80 c0 -86 -46 -128 -102 -93 -56 35 -75 105 -44 156 86 139 146 113 146 -63z m6029 -269 c-29 -234 -115 -525 -191 -646 -76 -122 -138 -286 -138 -363 0 -78 -76 -203 -169 -279 -150 -122 -159 -115 -84 63 47 110 106 380 130 600 25 220 91 456 146 525 75 92 46 125 -111 125 -116 0 -212 29 -212 64 0 109 341 329 515 333 137 2 157 -71 114 -422z m2253 -336 c-23 -281 -82 -397 -215 -422 -156 -30 -167 -4 -75 167 59 112 108 350 108 529 0 232 31 296 107 220 59 -59 92 -281 75 -494z m-6681 130 c0 -65 63 -240 140 -388 119 -228 120 -295 3 -450 -76 -99 -143 -158 -149 -131 -6 28 -28 163 -48 300 -21 138 -68 403 -106 589 -48 242 -35 319 46 269 62 -38 113 -123 114 -189z m6159 -42 c-33 -33 -56 26 -52 131 5 117 28 141 60 61 29 -72 26 -159 -8 -192z m-6523 -204 c126 -441 20 -507 -299 -188 -146 146 -327 265 -402 265 -171 0 -178 165 -11 236 330 139 619 12 712 -313z m-4496 117 c201 -78 106 -240 -140 -240 -103 0 -257 -71 -344 -157 -202 -202 -203 -53 -1 235 165 235 233 258 485 162z m7466 -144 c230 -123 275 -696 54 -696 -271 0 -564 337 -499 575 68 250 159 275 445 121z m3343 4 c-34 -55 -82 -100 -106 -100 -24 0 -44 45 -44 100 0 55 48 100 106 100 58 0 78 -45 44 -100z m-9275 -324 c193 -155 173 -2064 -22 -2139 -82 -31 -220 16 -308 104 -88 88 -256 212 -373 274 -286 153 -1188 387 -1278 332 -157 -98 -154 465 4 725 454 745 1475 1108 1977 704z m2057 110 c120 -63 366 -265 547 -450 263 -268 309 -371 230 -519 -158 -296 -22 -572 348 -706 286 -103 343 -173 343 -422 0 -409 202 -759 738 -1281 413 -402 439 -454 283 -572 -382 -290 -643 -180 -1404 589 -204 206 -449 375 -544 375 -106 0 -173 77 -173 200 0 110 -38 200 -84 200 -46 0 -136 113 -199 252 -63 139 -232 297 -376 351 -179 68 -242 149 -201 257 33 86 60 535 60 998 0 877 35 936 432 728z m4863 -395 c-61 -114 -136 -184 -165 -154 -83 83 49 363 170 363 74 0 73 -64 -5 -209z m-2642 -281 c-101 -320 -224 -250 -173 98 29 199 79 273 142 210 54 -54 68 -192 31 -308z m4697 90 c34 -55 241 -100 461 -100 310 0 453 -61 641 -275 133 -151 243 -359 245 -461 2 -127 53 -166 160 -125 112 43 148 10 124 -114 -25 -131 -172 -191 -582 -240 -302 -36 -836 -163 -1186 -282 -596 -202 -1357 -292 -1474 -175 -28 28 64 166 205 307 279 279 317 560 144 1055 -127 365 -62 496 155 315 163 -134 757 -54 757 103 0 124 272 118 350 -8z m-11465 -300 c-58 -165 -145 -300 -195 -300 -132 0 -110 127 66 378 212 303 253 279 129 -78z m8031 200 c58 0 74 -120 38 -282 -52 -236 -20 -301 192 -398 140 -64 254 -187 254 -275 0 -99 67 -146 175 -125 125 25 175 131 175 374 0 412 175 501 327 166 95 -209 77 -279 -130 -486 -133 -132 -419 -321 -637 -419 -406 -184 -577 -453 -631 -997 -37 -377 -227 -443 -236 -83 -4 151 -40 346 -80 434 -52 115 38 231 333 426 222 147 404 335 404 416 0 197 -64 188 -401 -52 l-283 -201 32 426 c18 234 -10 505 -62 601 -124 233 75 611 280 533 83 -32 195 -58 250 -58z m-1827 -489 c-221 -179 -489 -183 -489 -8 0 87 229 166 536 185 162 11 157 -12 -47 -177z m3559 26 c228 -227 154 -657 -137 -801 -361 -179 -542 -67 -293 182 148 148 187 281 145 492 -65 324 41 371 285 127z m3316 -207 c-41 -41 -117 -8 -168 73 -154 243 -108 352 73 171 93 -93 136 -203 95 -244z m-6427 -82 c32 -84 160 -191 285 -237 206 -76 227 -147 227 -797 1 -679 -99 -970 -167 -489 -18 124 -133 269 -257 324 -180 79 -225 179 -225 505 0 223 -50 456 -111 517 -114 114 -44 329 106 329 46 0 110 -69 142 -152z m-5738 -890 c511 -66 1201 -381 1201 -547 0 -40 -65 -160 -144 -267 -138 -185 -157 -186 -425 -24 -1336 811 -1720 890 -2201 454 -122 -110 -289 -173 -375 -140 -247 95 -181 425 151 757 511 510 593 525 936 163 246 -258 419 -339 857 -396z m12301 -383 c0 -582 -352 -2567 -477 -2692 -121 -121 -1084 -283 -1662 -281 -282 1 -696 87 -926 191 -292 132 -445 157 -520 82 -75 -75 -146 -74 -241 5 -74 61 -224 88 -334 59 -110 -28 -400 18 -645 103 -245 85 -632 156 -861 157 -428 1 -1634 468 -1634 632 0 100 408 42 1383 -197 396 -97 796 -130 1071 -89 265 40 523 21 651 -48 304 -162 994 -139 1345 45 165 86 436 157 603 157 348 1 747 245 747 457 0 184 -242 182 -859 -5 -564 -171 -1566 -198 -1843 -50 -104 56 -461 130 -793 164 -333 35 -605 102 -605 149 0 47 61 86 137 86 221 0 663 399 663 600 0 316 440 580 871 522 209 -28 745 -56 1193 -61 628 -9 857 27 1000 155 198 176 876 356 1411 373 l325 11 0 -525z m-4867 64 c-151 -231 -188 -248 -216 -101 -19 97 48 238 149 311 257 189 281 115 67 -210z m-4064 44 c127 -120 231 -306 231 -415 0 -183 -48 -192 -708 -131 -635 59 -704 48 -674 -106 37 -193 353 -306 895 -321 397 -11 623 -201 569 -478 -29 -152 -145 -179 -775 -180 -502 -1 -754 -42 -782 -127 -57 -171 142 -232 835 -255 523 -18 594 -45 621 -238 42 -294 -276 -451 -757 -374 -285 45 -418 20 -516 -98 -73 -88 -93 -167 -45 -175 236 -40 419 -57 769 -70 306 -12 376 -50 349 -190 -26 -140 -173 -186 -732 -232 -788 -64 -953 27 -873 482 40 225 25 252 -83 150 -175 -164 -293 -159 -293 14 0 77 74 168 164 202 134 52 152 157 102 579 -34 291 -18 568 38 635 138 166 11 445 -202 445 -131 0 -190 -107 -232 -419 -31 -231 -16 -495 33 -586 53 -100 47 -316 -15 -542 -97 -350 -78 -601 72 -994 41 -105 7 -159 -99 -159 -92 0 -161 82 -161 190 0 111 -145 276 -350 397 -273 161 -348 267 -340 485 l10 278 69 -249 c64 -230 405 -422 415 -233 3 45 14 375 25 732 12 358 77 709 146 782 69 73 125 197 125 275 0 79 45 143 99 143 55 0 179 165 275 367 135 282 269 396 576 490 618 189 961 168 1219 -74z m-3969 -413 c1201 -436 1470 -867 765 -1225 -378 -192 -2431 -309 -2665 -152 -123 82 -16 229 583 804 403 386 785 702 850 701 64 0 275 -58 467 -128z m-1600 -376 c0 -52 -67 -94 -150 -94 -155 0 -199 118 -86 231 80 80 236 -11 236 -137z m6529 -292 c45 -175 -89 -402 -237 -402 -83 0 -192 520 -130 620 75 120 316 -23 367 -218z m671 -352 c-68 -82 -164 -150 -212 -150 -49 0 -88 68 -88 150 0 86 90 150 212 150 178 0 192 -25 88 -150z m2588 -249 c121 -71 57 -96 -250 -98 -556 -4 -1038 100 -1038 223 0 120 1042 19 1288 -125z m-3117 -291 c198 -318 1410 -841 2129 -920 357 -39 853 -123 1100 -187 248 -64 653 -165 900 -224 517 -125 2813 -365 2925 -306 228 118 -63 -1353 -307 -1548 -243 -194 -722 -148 -1255 123 -373 189 -531 223 -677 144 -145 -77 -257 -56 -464 87 -149 104 -486 275 -747 380 -300 121 -474 252 -475 358 0 105 -140 212 -375 288 -206 66 -499 192 -650 279 -251 145 -289 145 -434 0 -146 -146 -199 -138 -625 99 -256 142 -520 305 -585 363 -65 57 -278 217 -473 354 -406 287 -527 546 -354 755 159 191 224 183 367 -45z m4415 101 c85 -54 97 -109 34 -149 -126 -77 -420 27 -420 149 0 112 208 113 386 0z m-11243 -389 c244 -68 561 -78 833 -27 670 125 792 60 782 -414 -9 -456 236 -727 457 -506 94 94 87 159 -32 298 -220 257 -91 647 245 737 151 40 272 32 272 -19 0 -50 -45 -91 -100 -91 -55 0 -100 -67 -100 -150 0 -82 45 -150 100 -150 55 0 100 -117 100 -261 0 -156 96 -336 241 -450 268 -210 251 -587 -28 -592 -89 -2 -388 -114 -663 -249 -275 -135 -612 -247 -750 -248 -418 -4 -700 -115 -700 -276 0 -129 111 -142 707 -87 776 72 832 -14 211 -323 -202 -101 -632 -193 -955 -206 -323 -13 -773 -41 -1000 -63 -400 -38 -986 150 -1115 358 -92 149 -348 115 -348 -46 0 -78 113 -231 250 -339 316 -249 315 -318 -7 -318 -298 0 -641 165 -815 391 -157 205 -163 1123 -10 1459 92 202 91 337 -5 602 -137 378 -45 659 307 944 227 183 1501 198 2123 26z m6474 -1344 c207 34 284 -204 236 -728 -20 -220 -61 -715 -93 -1100 -141 -1741 -191 -2122 -322 -2440 -77 -188 -170 -312 -205 -276 -36 35 -127 13 -203 -51 -195 -161 -428 59 -250 237 85 85 121 692 123 2075 3 1723 27 2002 197 2355 106 220 201 468 211 550 9 83 45 -30 78 -250 46 -300 103 -393 228 -372z m11713 -1408 c-25 -2345 -101 -3112 -334 -3397 -158 -192 -211 -206 -388 -98 -113 69 -292 125 -397 125 -175 0 -187 57 -138 625 29 344 95 677 145 741 50 64 107 379 126 700 37 636 272 1795 524 2584 88 275 178 564 199 642 31 111 66 115 161 20 88 -88 116 -624 102 -1942z m-4054 1705 c-47 -143 -716 -224 -962 -116 -127 56 -97 89 136 145 505 122 871 109 826 -29z m3144 -528 c0 -202 -55 -419 -123 -482 -97 -90 -110 -42 -60 223 35 185 63 429 63 541 0 112 27 177 60 144 33 -33 60 -225 60 -426z m-9523 54 c455 -231 540 -344 571 -751 97 -1306 129 -1978 152 -3169 14 -752 -3 -1397 -38 -1433 -36 -35 -156 -16 -267 44 -111 59 -340 108 -508 108 -371 0 -379 66 -59 537 210 310 230 402 133 614 -62 137 -144 249 -182 249 -144 0 -399 -377 -460 -682 -65 -321 -228 -393 -585 -256 -143 55 -145 83 -18 225 271 305 470 1261 565 2713 52 798 96 1574 97 1725 2 328 86 338 599 76z m1703 -201 c183 -118 25 -118 -250 0 -132 57 -149 88 -50 91 82 3 218 -38 300 -91z m-6271 -875 c-157 -468 -514 -1073 -589 -998 -59 59 588 1473 673 1473 41 0 3 -214 -84 -475z m6071 75 c0 -165 -17 -300 -39 -300 -21 0 -58 135 -82 300 -25 165 -7 300 38 300 46 0 83 -135 83 -300z m-114 -500 c87 0 166 -396 277 -1388 76 -680 110 -2493 49 -2588 -71 -108 -458 -324 -580 -324 -45 0 -86 1106 -91 2458 -8 2097 9 2413 120 2150 71 -169 172 -308 225 -308z m1087 400 c94 -110 253 -200 353 -200 270 0 940 -367 1012 -554 97 -254 74 -346 -86 -346 -187 0 -323 -494 -163 -593 66 -41 158 -559 215 -1214 90 -1043 277 -2285 358 -2382 18 -22 102 17 186 87 131 109 152 83 152 -186 0 -239 -44 -312 -189 -312 -104 0 -216 69 -249 154 -47 123 -101 132 -264 45 -305 -163 -524 -40 -751 423 -257 524 -430 587 -511 185 -77 -385 -155 -438 -390 -266 -170 124 -174 177 -50 693 135 562 130 749 -90 3357 -48 573 -64 1102 -36 1175 75 195 306 164 503 -66z m-7977 -1149 c-281 -594 -516 -1174 -523 -1290 -8 -116 -61 -244 -118 -284 -162 -114 -455 -90 -455 35 0 222 537 1345 816 1707 156 203 284 459 284 569 0 204 425 586 478 429 15 -47 -201 -572 -482 -1166z m-6055 -207 c-65 -800 -56 -855 190 -1178 207 -271 243 -398 182 -628 -96 -357 -288 -397 -613 -125 -219 184 -249 286 -242 823 6 429 77 747 235 1054 153 297 207 533 168 730 -37 186 -21 267 45 226 66 -41 79 -362 35 -902z m16002 431 c88 -289 205 -1020 261 -1625 56 -605 148 -1272 205 -1482 73 -272 69 -603 -16 -1150 -152 -975 -254 -1095 -248 -293 8 1089 -132 2646 -295 3275 -87 334 -134 645 -105 692 29 47 -14 304 -95 571 -81 268 -148 498 -149 512 -1 14 63 25 141 25 86 0 207 -211 301 -525z m1357 164 c0 -107 -54 -140 -162 -98 -141 54 -153 -6 -99 -465 35 -289 22 -661 -29 -826 -51 -165 -98 -232 -105 -150 -6 83 -52 464 -101 848 -95 731 -51 847 321 850 96 1 175 -70 175 -159z m-12265 -416 c-29 -205 -159 -643 -288 -973 -130 -330 -312 -870 -404 -1200 -135 -483 -184 -561 -248 -400 -45 110 -77 403 -73 650 5 278 24 345 50 175 23 -151 77 -275 122 -275 44 0 60 392 36 871 -25 478 -17 1016 16 1193 52 275 109 329 382 357 444 47 466 25 407 -398z m11474 151 c115 -427 205 -2653 98 -2424 -51 110 -96 475 -100 811 -7 611 -128 1421 -266 1778 -52 135 -34 175 63 143 74 -25 167 -163 205 -308z m-13939 -1655 l-4 -1469 -184 418 c-101 230 -322 557 -492 727 -305 305 -308 315 -188 813 133 554 532 1111 740 1031 102 -39 132 -389 128 -1520z m3546 1032 c-42 -158 -137 -308 -210 -332 -74 -25 -106 -1 -73 54 34 54 109 223 167 376 134 354 218 284 116 -98z m-2156 -24 c-33 -33 -56 26 -52 131 5 117 28 141 60 61 29 -72 26 -159 -8 -192z m16448 -699 c-90 -152 -99 -141 -64 72 23 138 51 340 64 450 15 140 34 119 63 -72 23 -150 -6 -353 -63 -450z m-16439 -103 c-25 -96 -46 -17 -46 175 0 193 21 271 46 175 25 -96 25 -254 0 -350z m11821 -967 c14 -698 -55 -534 -123 292 -37 442 -26 608 28 450 47 -137 90 -471 95 -742z m4346 -388 c-249 -735 -300 -325 -70 566 172 669 186 690 215 334 18 -209 -48 -614 -145 -900z m-18136 31 c383 -818 148 -1668 -610 -2208 -166 -118 -326 -190 -357 -159 -95 94 285 2625 433 2887 91 160 319 -61 534 -520z m19663 -656 c228 -349 112 -678 -292 -824 -184 -66 -411 -121 -503 -121 -250 0 -203 181 56 218 130 19 240 116 262 232 37 197 34 197 -174 10 -210 -190 -212 -189 -212 66 0 360 -97 574 -261 574 -136 0 -199 407 -81 525 102 102 1039 -427 1205 -680z m-15297 225 c208 -124 158 -291 -66 -220 -128 41 -200 18 -200 -63 0 -86 -33 -94 -101 -26 -57 57 -72 247 -36 431 59 291 79 308 168 144 56 -102 162 -222 235 -266z m4634 -280 c138 -173 467 -532 733 -799 453 -455 529 -691 222 -691 -73 0 -127 79 -119 175 12 146 -96 183 -653 225 -367 28 -682 73 -700 100 -265 401 -528 1246 -435 1397 102 165 700 -91 952 -407z m4866 83 c-28 -68 -49 12 -47 177 3 165 25 220 50 123 26 -97 24 -232 -3 -300z m4631 -448 c-2 -174 -93 -340 -248 -453 l-245 -179 56 329 c89 510 123 578 287 578 101 0 152 -93 150 -275z m-14786 -511 c-103 -650 -365 -986 -284 -364 58 439 253 1003 323 933 24 -24 7 -280 -39 -569z m6848 482 c218 -82 1241 -1015 1241 -1131 0 -16 -191 -3 -425 28 -374 50 -465 117 -758 557 -315 473 -615 740 -493 439 201 -495 191 -536 -65 -258 -143 154 -259 323 -259 375 0 125 419 120 759 -10z m1642 -1099 c74 -178 181 -287 255 -259 131 51 244 -138 244 -408 0 -130 -26 -133 -158 -23 -245 203 -741 960 -674 1028 95 95 196 -7 333 -338z m291 103 c112 -236 110 -239 -36 -56 -86 107 -156 238 -156 292 0 127 46 70 192 -236z m6706 75 c-3 -204 -198 -1512 -251 -1680 -48 -155 -574 -395 -864 -395 -83 0 -232 88 -330 196 -164 182 -169 388 -17 854 18 55 68 235 112 400 113 428 524 742 977 746 236 3 374 -42 373 -121z m-6161 -228 c32 -84 81 -522 107 -975 37 -628 29 -716 -36 -372 -46 248 -135 630 -196 850 -61 220 -111 456 -111 525 -1 176 166 156 236 -28z m501 -1097 c46 -968 40 -1022 -45 -450 -53 358 -134 863 -180 1123 -46 260 -59 497 -30 527 138 138 207 -186 255 -1200z m407 273 c-70 -251 -83 -234 -165 217 -50 270 -59 562 -21 650 108 249 277 -540 186 -867z"/>
<path d="M11414 24792 c-130 -105 -299 -192 -375 -192 -76 0 -139 -45 -139 -100 0 -55 79 -99 175 -97 214 4 656 358 609 488 -19 51 -140 7 -270 -99z"/>
<path d="M19460 24225 c91 -1023 81 -971 192 -1000 128 -33 138 682 17 1293 -151 761 -285 573 -209 -293z"/>
<path d="M12050 1506 c-459 -206 -613 -366 -1002 -1041 -383 -665 -85 -597 369 84 183 275 468 558 633 630 487 213 566 266 558 371 -12 157 -129 148 -558 -44z"/>
<path d="M18067 533 c-105 -104 -78 -533 33 -533 55 0 100 64 100 142 0 78 27 213 61 300 60 158 -68 218 -194 91z"/>
<path d="M12050 187 l-300 -186 314 0 c185 -1 338 60 371 146 88 228 -57 244 -385 40z"/>
<path d="M15100 100 c0 -55 45 -100 100 -100 55 0 100 45 100 100 0 55 -45 100 -100 100 -55 0 -100 -45 -100 -100z"/>
</g>
</svg>