<svg xmlns="http://www.w3.org/2000/svg" version="1.0" width="250" height="250" viewBox="0 0 250.000000 250.000000" preserveAspectRatio="xMidYMid meet">
<metadata>
Created by potrace 1.10, written by Peter Selinger 2001-2011
</metadata>
<g transform="translate(0.000000,250.000000) scale(0.010000,-0.010000)" fill="#555555" stroke="none">
<path d="M2 24675 c-1 -206 43 -375 98 -375 127 0 127 403 0 600 -72 112 -97 54 -98 -225z"/>
<path d="M800 24828 c0 -73 -112 -176 -250 -228 -273 -104 -278 -112 -189 -342 63 -165 439 -224 439 -70 0 109 384 219 441 126 23 -37 -55 -269 -174 -515 l-215 -449 -32 325 c-18 179 -75 325 -126 325 -52 0 -94 -42 -94 -93 0 -51 -62 -154 -137 -230 -287 -287 -452 -759 -441 -1262 11 -464 34 -515 237 -515 172 0 255 -90 350 -375 168 -506 193 -1015 65 -1359 -81 -218 -75 -303 26 -366 100 -62 48 -158 -206 -391 -186 -170 -375 -309 -420 -309 -45 0 -74 -680 -65 -1511 9 -891 51 -1455 102 -1375 60 96 86 56 87 -133 1 -148 -43 -297 -98 -331 -142 -88 -124 -525 24 -575 98 -32 98 -97 0 -313 -177 -389 -162 -1226 23 -1297 131 -50 690 321 873 580 38 55 96 72 129 39 80 -80 -841 -884 -1013 -884 -78 0 -136 -106 -136 -250 0 -273 94 -316 280 -130 206 206 132 -69 -80 -297 -110 -118 -200 -286 -200 -373 0 -130 39 -122 219 46 120 112 255 204 300 204 156 0 79 -194 -119 -300 -110 -59 -200 -173 -200 -254 0 -80 -45 -146 -100 -146 -55 0 -100 -210 -100 -467 l0 -468 250 235 c363 341 429 164 71 -194 -283 -283 -302 -349 -292 -1010 11 -707 11 -708 197 -477 l187 231 -69 -250 c-37 -137 -122 -317 -189 -400 -78 -96 -131 -601 -146 -1400 l-25 -1250 308 294 c169 161 308 251 308 199 0 -51 -135 -221 -300 -377 -252 -237 -299 -358 -296 -749 l4 -467 309 350 c335 379 289 239 -85 -259 -128 -171 -232 -415 -232 -544 0 -233 1 -233 317 59 l317 294 -222 -322 c-122 -177 -264 -348 -317 -381 -55 -34 -95 -969 -95 -2253 0 -1816 24 -2194 140 -2194 77 0 186 132 243 294 101 291 673 685 801 553 36 -37 -136 -243 -384 -457 -260 -225 -385 -390 -295 -390 85 0 209 54 275 120 93 93 147 93 240 0 150 -150 504 -156 649 -11 78 78 127 78 175 0 92 -148 656 147 656 344 0 190 -91 186 -313 -15 -102 -92 -252 -134 -347 -98 -154 59 -153 79 13 263 98 109 228 191 288 182 160 -24 459 123 459 226 0 151 -568 98 -705 -66 -70 -86 -222 -201 -337 -257 -294 -142 431 484 778 673 193 105 254 189 186 257 -68 68 -183 47 -352 -64 -177 -116 -272 -132 -321 -53 -81 132 -109 103 426 437 234 145 425 309 425 363 0 165 -381 111 -571 -82 -661 -667 -1342 -1239 -1404 -1178 -93 94 1094 1187 1655 1525 249 150 586 492 800 813 203 305 472 705 596 888 348 511 33 405 -365 -123 -256 -340 -384 -434 -529 -388 -146 46 -358 -110 -881 -648 -634 -652 -976 -890 -839 -583 82 184 1503 1375 1639 1375 65 0 304 211 533 469 229 258 495 538 591 622 179 157 238 409 96 409 -44 0 -280 -245 -525 -543 -245 -299 -561 -594 -703 -655 -141 -61 -500 -334 -799 -608 -299 -273 -559 -450 -578 -393 -51 154 1181 1289 1584 1458 193 81 474 322 625 535 377 532 345 596 -85 166 -198 -198 -424 -360 -502 -360 -78 0 -352 -191 -608 -425 -257 -234 -427 -357 -379 -275 145 250 1192 1300 1299 1303 150 5 550 363 550 491 0 284 -1018 -490 -1700 -1294 -218 -257 -297 -303 -298 -175 -2 225 1296 1535 1479 1493 159 -36 537 272 469 382 -109 177 -638 -61 -1075 -483 -272 -263 -474 -397 -474 -313 2 162 1065 1296 1216 1296 52 0 67 -45 33 -100 -34 -55 -21 -100 29 -100 95 0 421 326 421 421 0 102 -592 27 -709 -90 -63 -63 -182 -90 -263 -59 -82 32 -186 -4 -233 -80 -46 -75 -107 -113 -136 -84 -29 28 70 183 218 343 149 161 258 370 242 464 -42 245 638 960 1122 1181 225 102 589 216 809 254 634 107 750 154 750 304 0 179 426 462 779 516 591 92 669 93 768 7 222 -192 1451 -959 1658 -1034 85 -31 217 -154 292 -274 254 -405 703 -1357 703 -1488 -2 -496 -927 -1668 -1325 -1677 -256 -6 -213 287 75 514 137 108 250 261 250 339 0 79 91 234 203 346 182 182 191 244 84 600 -114 380 -305 510 -437 297 -34 -55 -228 -100 -431 -101 -207 0 -501 -90 -669 -206 -358 -244 -709 -400 -1050 -464 -687 -130 -1027 -142 -1129 -40 -207 207 -258 113 -255 -464 2 -517 -59 -926 -423 -2825 -58 -302 -132 -1214 -164 -2025 l-58 -1475 314 0 c369 0 397 118 99 416 -214 214 -214 215 -7 161 139 -36 318 40 540 230 422 361 537 369 310 22 -97 -149 -126 -240 -63 -201 62 38 175 -4 249 -94 123 -147 103 -159 -188 -116 -179 26 -325 40 -325 30 0 -10 84 -114 187 -233 248 -286 751 -288 950 -4 l147 211 132 -211 c74 -119 236 -211 370 -211 192 0 216 27 123 139 -90 108 -45 250 203 650 175 281 350 511 389 511 40 0 359 -292 710 -649 504 -511 703 -649 939 -649 l300 -1 -300 247 c-252 208 -276 263 -150 348 191 129 273 129 351 2 35 -56 105 -75 156 -44 51 32 93 -12 93 -98 0 -86 40 -156 89 -156 138 0 231 326 114 398 -66 41 -48 133 52 258 149 186 153 184 86 -55 -62 -223 -52 -235 95 -113 90 75 164 187 164 249 1 62 112 248 247 413 208 254 246 270 249 106 2 -106 -94 -297 -213 -424 -119 -127 -186 -262 -148 -301 38 -38 139 30 223 150 193 276 390 296 246 26 -129 -240 -135 -411 -8 -210 51 81 124 116 163 78 38 -39 13 -139 -57 -223 -75 -91 -85 -152 -23 -152 58 0 122 53 144 118 41 124 277 29 277 -112 0 -46 -118 -160 -263 -255 -194 -128 -281 -141 -336 -53 -54 87 -88 81 -128 -24 -46 -120 182 -145 1401 -154 1099 -8 1428 18 1341 105 -128 128 -157 473 -40 479 41 2 251 154 465 338 l391 334 -201 215 -200 215 -483 -334 c-535 -368 -713 -639 -360 -546 117 30 190 17 161 -30 -29 -47 -232 -78 -451 -69 -309 12 -397 55 -397 194 0 99 -53 179 -117 179 -164 0 708 773 1042 924 279 127 379 377 150 375 -164 -1 -519 -245 -1162 -799 -485 -418 -518 -475 -464 -800 53 -319 47 -331 -70 -136 -71 118 -298 491 -504 830 -206 339 -375 654 -375 699 0 45 107 82 238 82 130 0 483 186 784 413 300 226 581 412 625 412 121 0 -664 -699 -959 -854 -247 -130 -466 -546 -287 -546 45 0 97 34 116 75 18 41 213 199 433 350 220 151 552 410 739 575 364 323 511 373 511 175 0 -69 -220 -275 -489 -458 -579 -394 -1073 -888 -981 -980 36 -36 257 88 492 276 236 188 619 470 853 628 399 269 538 459 336 459 -49 0 -118 114 -153 254 -35 140 -103 230 -152 200 -48 -30 -64 35 -35 145 32 123 -6 221 -101 257 -83 32 -179 168 -213 301 -80 321 -159 308 -673 -113 -238 -196 -502 -410 -585 -475 -84 -66 -301 -243 -483 -394 -182 -151 -370 -275 -417 -275 -235 0 -1465 2213 -1341 2414 37 59 115 3 181 -130 181 -365 471 -330 805 95 339 431 1484 1342 1802 1432 195 55 235 -12 444 -740 188 -656 205 -816 95 -880 -74 -42 -537 -463 -1028 -934 -491 -471 -930 -857 -975 -857 -45 0 -82 -45 -82 -100 0 -55 39 -100 87 -100 145 0 1136 820 1600 1325 240 261 488 473 550 471 62 -2 528 -834 1036 -1848 l923 -1845 -298 -154 c-164 -85 -298 -222 -298 -305 0 -119 60 -105 290 65 340 251 428 217 653 -257 l166 -352 1237 0 c901 0 1249 34 1279 125 33 96 82 92 216 -19 141 -115 190 -118 254 -14 56 91 100 97 148 19 82 -133 757 -150 757 -20 0 142 776 966 845 897 33 -33 -75 -206 -242 -385 -511 -547 -450 -585 947 -596 1191 -10 1250 -1 1250 191 0 111 45 202 100 202 181 0 104 285 -93 348 -107 34 -189 138 -183 232 6 93 -22 267 -61 386 -60 184 -24 227 243 285 187 41 358 25 424 -41 60 -60 207 -110 326 -110 177 0 208 -46 168 -250 -36 -189 -5 -250 126 -250 124 0 158 57 121 200 -62 236 54 261 229 50 69 -83 287 -150 487 -151 200 0 487 -65 638 -144 274 -142 275 -142 275 190 0 362 -124 455 -608 455 -238 0 -292 42 -292 231 0 127 60 313 133 413 117 160 162 165 375 46 l242 -136 -225 -34 c-328 -50 -275 -290 76 -341 l301 -45 -15 654 c-14 687 -83 817 -559 1066 -165 86 -212 145 -116 145 88 1 280 -92 425 -206 l263 -208 0 255 c0 182 -86 299 -300 410 -294 152 -404 350 -193 350 58 0 197 -49 308 -108 177 -95 197 -80 168 121 -21 144 -121 249 -270 284 l-238 56 263 140 c321 172 332 331 37 548 l-225 165 225 -60 c201 -53 225 -23 225 277 0 185 -54 391 -120 457 -93 93 -93 120 0 120 66 0 120 68 120 150 0 83 -56 151 -125 152 -99 1 -99 17 -1 80 91 58 121 536 113 1823 l-11 1745 -201 -445 c-110 -245 -247 -751 -305 -1125 -99 -638 -121 -680 -363 -677 -218 3 -234 22 -107 125 83 67 163 246 179 397 l29 275 -729 -1 c-1206 -1 -1779 -99 -1779 -302 0 -97 70 -203 156 -236 86 -33 129 -104 96 -158 -39 -63 -130 -56 -252 20 -215 134 -394 31 -231 -132 103 -103 289 -149 1056 -258 206 -30 375 -87 375 -127 0 -40 -259 -37 -575 7 -664 93 -1009 31 -830 -148 68 -68 492 -121 1035 -128 506 -8 1093 -47 1303 -88 360 -70 382 -60 350 154 -18 126 23 248 92 271 87 30 125 -85 125 -376 0 -360 -25 -409 -175 -347 -445 183 -936 238 -1650 184 -544 -42 -820 -22 -924 64 -120 100 -160 93 -209 -33 -105 -274 20 -316 873 -299 886 19 1482 -105 1617 -336 50 -83 161 -115 275 -79 124 40 192 14 191 -70 -2 -193 -127 -332 -298 -332 -82 0 -164 -101 -182 -225 -21 -151 19 -225 125 -225 122 0 157 -112 157 -501 0 -490 -5 -498 -224 -375 -124 69 -322 197 -442 284 -120 87 -581 267 -1025 400 -445 133 -808 276 -808 317 -1 41 47 75 105 75 58 0 78 45 44 100 -97 156 -450 117 -450 -50 0 -83 -89 -150 -200 -150 -248 0 -248 -1 3 1800 208 1497 305 2047 490 2773 59 233 152 751 208 1150 148 1079 196 1255 360 1318 88 33 123 14 86 -47 -125 -202 174 -394 615 -394 250 0 438 -47 438 -109 0 -70 -191 -97 -525 -75 -408 26 -525 2 -525 -111 0 -81 90 -171 200 -200 244 -67 296 -502 57 -485 -413 30 -534 -17 -414 -162 91 -109 294 -129 887 -87 818 57 1085 163 713 281 -216 69 -212 78 102 210 180 76 407 138 504 138 257 0 427 234 279 382 -91 91 -67 118 102 118 213 0 220 35 220 1039 0 832 -30 1051 -150 1097 -82 32 -150 109 -150 172 0 62 68 87 150 56 117 -45 150 26 150 327 0 315 -41 397 -225 446 -360 97 -712 67 -900 -76 -218 -166 -238 -479 -25 -397 83 31 150 9 150 -49 0 -59 -124 -100 -275 -91 -151 9 -387 -14 -525 -53 -137 -38 -194 -43 -125 -12 227 105 130 241 -172 241 -189 0 -424 112 -650 311 -194 170 -418 286 -496 256 -78 -31 -200 14 -270 99 -105 127 -98 170 43 249 93 52 170 160 170 240 0 80 45 145 100 145 55 0 100 65 100 145 0 199 495 -74 959 -530 430 -422 352 -584 -126 -260 -198 135 -400 245 -447 245 -181 0 -73 -243 226 -511 304 -271 523 -298 1063 -133 203 62 143 244 -81 244 -118 0 -178 45 -141 105 39 64 233 79 496 40 265 -40 571 -15 791 65 297 107 360 180 360 410 0 346 -134 355 -459 30 -301 -301 -541 -323 -541 -50 0 160 -67 200 -330 200 -182 0 -376 -46 -433 -103 -103 -103 -438 -34 -436 89 1 35 179 149 396 253 369 177 411 179 645 25 301 -196 742 -208 983 -25 148 113 175 303 175 1247 0 676 -39 1114 -100 1114 -55 0 -100 53 -100 117 0 65 -74 199 -164 298 -135 149 -141 209 -36 336 71 84 96 186 56 226 -40 40 -155 -28 -256 -152 -210 -259 -300 -284 -300 -84 0 197 599 681 764 617 104 -40 136 75 136 495 0 666 -106 693 -716 183 l-434 -364 -33 339 c-18 186 -81 396 -139 466 -166 199 -10 267 355 154 182 -56 475 -81 649 -55 255 38 318 94 318 285 0 271 -77 303 -239 98 -140 -177 -561 -36 -561 188 0 84 -45 153 -100 153 -55 0 -100 -67 -100 -150 0 -82 -72 -150 -161 -150 -105 0 -140 54 -100 158 34 87 61 199 61 249 0 50 263 62 600 27 591 -62 600 -59 600 189 0 218 -57 261 -425 323 -234 39 -647 87 -919 108 -711 54 -1046 212 -980 464 29 111 -5 238 -74 281 -183 113 -15 328 209 269 119 -31 189 3 189 91 0 185 -201 179 -478 -15 -229 -160 -301 -501 -119 -562 66 -22 57 -94 -25 -200 -111 -143 -214 -151 -778 -64 -357 56 -695 133 -750 172 -121 85 -2491 59 -2633 -29 -55 -34 -120 -6 -145 63 -37 101 -88 101 -258 1 -255 -151 -347 -160 -264 -25 129 208 -68 315 -260 141 -180 -163 -190 -162 -190 15 0 173 -12 175 -164 23 -210 -210 -108 -477 186 -485 486 -14 -253 -207 -931 -243 l-659 -36 -91 368 -91 367 -675 4 c-462 3 -675 -34 -675 -117 0 -166 208 -224 464 -129 242 89 636 15 636 -120 0 -118 -722 -113 -1039 8 -342 130 -592 635 -507 1023 84 381 -156 350 -293 -38 -120 -338 -7 -745 289 -1040 134 -134 185 -241 114 -241 -176 0 -664 527 -664 717 0 87 90 439 200 783 238 745 242 800 58 800 -137 0 -463 -844 -610 -1582 -60 -296 -24 -372 347 -725 284 -270 361 -393 246 -393 -219 0 -644 463 -743 808 -51 176 -13 511 109 957 103 377 188 741 190 810 5 209 -198 139 -286 -98 -82 -221 -83 -221 -148 -17 -53 166 -157 211 -515 225 -433 16 -448 7 -448 -278 0 -162 -49 -325 -108 -362 -71 -44 -96 45 -75 259 20 197 -17 343 -92 369 -85 30 -125 -70 -125 -309 0 -194 -45 -380 -100 -414 -55 -34 -100 -14 -100 44 0 58 -45 106 -100 106 -55 0 -100 -137 -100 -304 0 -249 -24 -281 -133 -179 -90 83 -119 282 -88 604 44 458 35 479 -206 479 -249 0 -252 -8 -218 -711 20 -419 91 -778 174 -875 77 -90 244 -389 370 -664 127 -275 324 -576 439 -668 115 -93 175 -202 134 -243 -42 -42 -126 -25 -188 37 -128 128 -1603 68 -1934 -79 -326 -144 -971 -397 -1012 -397 -87 0 -30 829 69 1014 90 168 74 210 -100 255 -114 30 -207 132 -207 226 0 249 113 324 240 158 94 -122 146 -113 355 59 185 153 213 221 114 282 -92 57 -97 101 -20 149 61 38 111 111 111 163 0 164 -229 102 -477 -131 l-240 -225 28 600 c15 330 -14 600 -66 600 -124 0 -219 -514 -176 -950 26 -259 -6 -207 -124 200 -117 407 -133 635 -61 875 l97 325 -540 0 c-298 0 -541 -45 -541 -100 0 -55 -48 -100 -106 -100 -58 0 -78 45 -44 100 34 55 -11 100 -100 100 -89 0 -134 -45 -100 -100 34 -55 14 -100 -44 -100 -58 0 -106 45 -106 100 0 203 -151 92 -169 -125 -146 -1705 -71 -2933 226 -3706 33 -86 12 -238 -46 -338 -99 -170 -105 -169 -109 19 -2 110 -65 317 -139 461 -90 172 -105 317 -45 425 69 122 51 164 -70 164 -144 0 -157 136 -111 1175 29 646 62 1243 73 1325 63 442 -16 700 -212 700 -161 0 -190 -47 -144 -229 142 -566 18 -1967 -206 -2327 -126 -203 -47 -506 169 -650 47 -31 109 -346 138 -700 45 -540 102 -693 354 -953 235 -243 272 -332 170 -413 -251 -201 -731 -400 -855 -355 -165 58 -1156 -588 -1699 -1108 -234 -224 -425 -361 -425 -305 0 134 306 458 753 799 292 222 353 329 328 571 -31 295 50 388 444 510 234 72 224 260 -14 260 -230 0 -612 -295 -647 -500 -48 -277 -177 -600 -246 -616 -322 -74 -618 -35 -618 81 0 74 40 135 88 135 49 0 139 203 202 451 102 406 138 446 351 392 344 -86 409 119 102 321 -249 163 -298 163 -908 1 -779 -208 -1290 -145 -1374 169 -140 521 -68 745 506 1572 282 406 298 467 152 559 -139 88 -123 111 109 155 150 29 272 14 272 -34 0 -47 56 -86 125 -86 84 0 128 188 135 577 6 323 84 718 178 899 155 300 155 342 3 574 -203 310 -314 317 -370 25 l-44 -225 -13 229 c-13 220 -45 229 -764 206 -545 -17 -750 -60 -750 -157z m11254 -503 c-38 -206 -178 -563 -311 -793 -134 -230 -243 -531 -243 -669 0 -138 -48 -281 -106 -317 -61 -37 -79 -189 -42 -356 83 -377 -6 -369 -206 18 -156 302 -150 326 297 1200 251 491 457 982 457 1092 0 110 50 200 111 200 74 0 88 -125 43 -375z m-5656 -276 c46 28 113 -342 148 -824 34 -481 107 -955 161 -1052 65 -119 61 -246 -14 -387 -62 -114 -91 -316 -66 -447 25 -132 3 -239 -49 -239 -51 0 -80 155 -64 345 17 189 -2 377 -42 416 -40 40 -73 526 -75 1081 -2 776 -28 965 -112 821 -69 -119 -93 -624 -66 -1376 26 -729 6 -1152 -51 -1095 -137 137 -209 2608 -75 2608 59 0 114 146 122 325 14 305 18 308 57 48 23 -152 79 -253 126 -224z m-3798 300 c0 -29 -43 -130 -95 -225 -52 -96 -126 -354 -166 -574 -45 -249 -88 -329 -115 -213 -54 234 171 1063 289 1063 48 0 87 -23 87 -51z m3450 -149 c-34 -55 -82 -100 -106 -100 -24 0 -44 45 -44 100 0 55 48 100 106 100 58 0 78 -45 44 -100z m1131 -253 c-31 -30 -87 25 -125 124 -54 142 -42 154 56 56 69 -68 99 -149 69 -180z m3676 -292 c-70 -376 -196 -459 -296 -198 -33 87 7 225 89 308 83 82 150 199 150 259 0 60 28 81 62 47 34 -34 32 -221 -5 -416z m-9249 35 c-88 -221 -96 -223 -102 -32 -3 115 24 239 61 275 119 120 139 1 41 -243z m9635 -174 c-87 -174 -182 -316 -211 -316 -95 0 80 546 198 619 180 111 183 38 13 -303z m-9987 -459 c-66 -445 -288 -855 -376 -697 -27 49 40 383 149 740 212 692 334 669 227 -43z m10944 143 c0 -301 -40 -400 -161 -400 -113 0 -140 52 -90 175 68 170 128 398 143 550 5 41 31 75 58 75 28 0 50 -180 50 -400z m-11745 -266 c-95 -378 -187 -207 -100 184 41 183 95 274 120 203 24 -71 15 -245 -20 -387z m5445 -4 c0 -228 -35 -334 -92 -275 -84 86 -37 645 54 645 21 0 38 -166 38 -370z m1166 -55 c-28 -69 -50 -12 -50 125 0 138 22 194 50 125 28 -69 28 -181 0 -250z m14134 -40 l450 -115 -650 2 c-357 1 -1059 -4 -1558 -13 -500 -8 -1017 29 -1150 82 -289 115 -307 113 1147 167 544 21 1012 60 1039 87 28 27 100 17 161 -23 61 -39 314 -124 561 -187z m-3275 -1 c-69 -28 -181 -28 -250 0 -69 28 -12 50 125 50 138 0 194 -22 125 -50z m4598 -206 c-180 -23 -450 -22 -600 1 -150 22 -3 41 327 40 330 -1 453 -19 273 -41z m1427 -128 c-34 -55 -115 -99 -181 -98 -71 0 -59 40 31 98 192 124 227 124 150 0z m-16795 -555 c-39 -255 -99 -434 -135 -399 -70 70 -32 753 50 886 111 180 150 -48 85 -487z m4745 90 c0 -199 -178 -164 -296 58 -173 324 -124 456 96 257 110 -100 200 -242 200 -315z m5600 304 c0 -105 -54 -140 -158 -100 -87 34 -270 61 -406 61 -140 0 -221 44 -186 100 34 55 217 100 406 100 249 0 344 -44 344 -161z m600 11 c-68 -82 -164 -150 -212 -150 -49 0 -88 68 -88 150 0 86 90 150 212 150 178 0 192 -25 88 -150z m3173 5 c42 -45 21 -102 -48 -127 -69 -25 -125 -128 -125 -230 0 -103 -40 -211 -90 -242 -104 -64 -235 222 -159 346 29 46 6 112 -50 147 -56 35 -144 -49 -196 -185 -71 -188 -145 -235 -305 -193 -126 33 -190 110 -159 192 29 76 -10 137 -87 137 -77 0 -169 -90 -204 -200 -52 -163 -99 -181 -258 -96 -157 85 -174 142 -88 303 58 109 140 178 181 152 41 -25 140 -2 220 52 166 112 1252 68 1368 -56z m3277 45 c193 -83 192 -86 -19 -93 -121 -4 -247 38 -281 93 -73 118 25 118 300 0z m-8355 -266 c140 -73 309 -133 375 -133 83 -1 67 -95 -50 -300 -181 -319 -420 -403 -420 -147 0 84 -73 264 -162 400 -125 191 -247 246 -550 246 -213 0 -388 44 -388 98 0 129 860 11 1195 -164z m2341 116 c-31 -82 -98 -150 -147 -150 -49 0 -89 68 -89 150 0 83 66 150 147 150 89 0 124 -59 89 -150z m764 108 c0 -181 -154 -358 -311 -358 -122 0 -189 70 -189 200 0 147 67 200 250 200 138 0 250 -19 250 -42z m4213 -116 c77 -48 61 -99 -50 -161 -90 -50 -163 -160 -163 -243 0 -93 -69 -138 -175 -116 -113 23 -167 115 -151 257 27 250 -7 264 -281 117 -106 -56 -193 -172 -193 -256 0 -102 -76 -143 -225 -122 -146 21 -215 91 -197 199 42 255 -154 315 -277 86 -154 -289 -443 -271 -364 22 33 124 61 263 62 310 1 98 1843 12 2014 -93z m-9063 -42 c34 -55 152 -100 262 -100 110 0 174 -42 142 -94 -36 -58 -173 -54 -356 10 -335 117 -488 284 -260 284 83 0 178 -45 212 -100z m-550 -100 c122 -79 109 -97 -69 -98 -121 -1 -247 43 -281 98 -79 127 153 127 350 0z m-1400 -100 c129 -84 127 -97 -19 -98 -93 -1 -197 43 -231 98 -78 127 54 127 250 0z m4918 -127 c401 -106 450 -145 350 -282 -153 -205 -524 -402 -605 -321 -35 35 -63 166 -63 292 0 125 -79 274 -175 330 -234 136 -74 130 493 -19z m-1833 -148 l207 -175 -245 -300 -246 -300 -1 375 c0 206 -45 375 -100 375 -55 0 -100 45 -100 100 0 157 257 117 485 -75z m-8085 -425 c47 0 106 101 129 225 41 211 45 211 57 15 14 -216 -340 -619 -449 -511 -33 34 -24 233 21 441 75 352 84 359 118 105 21 -151 76 -275 124 -275z m3700 250 c0 -83 -89 -150 -200 -150 -246 0 -265 168 -25 231 96 25 186 51 200 57 14 7 25 -55 25 -138z m3807 -62 c35 -55 42 -207 18 -337 -45 -234 -49 -233 -397 114 -253 254 -410 336 -565 297 -118 -29 -282 -7 -364 50 -106 74 53 86 548 41 384 -35 726 -109 760 -165z m3885 149 l318 -64 -223 -236 c-293 -313 -420 -299 -556 63 -126 334 -98 348 461 237z m-8692 -237 c0 -55 -101 -99 -225 -98 -182 1 -196 20 -75 98 194 125 300 125 300 0z m12792 14 l441 -14 -433 -400 c-492 -454 -500 -458 -500 -241 0 180 -382 533 -583 538 -73 2 -267 -131 -430 -295 l-299 -298 -169 297 c-199 350 -558 399 -719 99 -146 -273 -345 -251 -484 55 -64 140 -116 271 -116 291 0 31 1823 13 3292 -32z m-10467 -262 c100 -42 175 -30 175 29 0 164 739 64 1055 -143 553 -362 944 -781 857 -920 -68 -109 -151 -104 -460 25 -458 191 -452 191 -452 14 0 -79 90 -172 200 -207 243 -77 258 -206 34 -292 -106 -41 -267 32 -443 201 -258 247 -296 255 -584 128 -169 -75 -307 -168 -307 -208 0 -116 367 -279 628 -279 546 0 1176 -528 801 -672 -92 -35 -185 -11 -206 54 -48 143 -623 160 -623 18 0 -55 87 -100 194 -100 107 0 227 -53 267 -117 48 -78 18 -96 -91 -54 -238 91 -310 -101 -83 -222 144 -77 223 -66 315 45 67 81 166 148 219 148 153 0 791 700 728 801 -31 50 92 131 272 179 220 59 324 144 314 258 -12 148 50 162 450 105 492 -70 809 -243 446 -243 -293 0 -416 -490 -169 -671 164 -120 162 -129 -37 -129 -117 0 -241 45 -275 100 -84 136 -250 127 -250 -14 0 -325 679 -503 900 -236 68 83 234 150 367 150 133 0 353 111 489 246 139 140 311 222 395 190 165 -64 204 -236 52 -236 -53 0 -255 -140 -450 -310 -194 -171 -353 -261 -353 -200 0 213 -197 107 -259 -140 -34 -137 -103 -250 -152 -250 -49 0 -89 -45 -89 -100 0 -55 101 -101 225 -102 182 -1 196 -20 75 -98 -82 -53 -256 -98 -386 -98 -199 -2 -226 35 -176 237 76 303 -280 561 -773 561 -267 0 -354 -48 -399 -217 -78 -299 -34 -342 471 -469 242 -61 467 -179 499 -263 32 -83 160 -152 286 -153 184 -1 199 -20 78 -98 -82 -53 -251 -98 -375 -98 -124 -1 -225 -47 -225 -102 0 -55 48 -100 106 -100 58 0 83 -38 54 -83 -73 -119 -860 -135 -860 -18 0 53 115 126 256 161 162 41 237 115 203 202 -34 88 18 138 144 138 108 0 197 40 197 89 0 127 -261 211 -658 211 -275 0 -342 -39 -342 -200 0 -156 -67 -200 -300 -200 -165 0 -300 45 -300 100 0 55 113 100 250 100 138 0 250 38 250 84 0 122 -681 128 -756 6 -36 -57 -251 -97 -479 -88 -228 9 -460 9 -515 0 -177 -29 291 -188 575 -195 151 -4 275 -52 275 -107 0 -100 -409 -153 -920 -119 -175 12 -321 -56 -417 -192 -95 -136 -193 -182 -279 -129 -72 44 -289 72 -483 62 -313 -18 -326 -9 -120 78 128 54 204 144 170 199 -35 56 -15 101 43 101 58 0 106 45 106 100 0 128 -609 130 -943 2 -305 -115 -340 -302 -57 -302 110 0 200 -45 200 -101 0 -64 -207 -76 -562 -35 -528 62 -557 54 -498 -132 55 -173 25 -192 -239 -154 -169 25 -301 106 -301 183 0 88 -119 143 -325 149 -550 17 -828 134 -793 334 27 151 -14 171 -250 117 -267 -61 -272 -56 -88 87 107 84 264 153 350 155 125 3 117 33 -38 150 -109 83 -139 147 -68 147 209 0 404 261 349 468 -36 139 23 227 206 311 141 64 257 185 257 269 0 84 79 153 175 155 156 3 154 19 -25 154 -171 129 -178 164 -50 245 83 52 251 96 375 96 250 2 287 100 105 282 -93 93 -70 120 103 120 123 0 249 68 281 150 31 83 136 150 231 150 201 0 538 334 439 433 -37 37 30 67 149 67 227 0 309 190 92 213 -69 7 33 48 225 91 390 86 1057 60 1325 -52z m-5525 -202 c0 -137 -45 -250 -100 -250 -55 0 -100 113 -100 250 0 138 45 250 100 250 55 0 100 -112 100 -250z m2840 9 c-32 -83 20 -161 128 -189 125 -32 98 -50 -84 -58 -246 -11 -284 61 -192 363 5 14 52 25 105 25 53 0 72 -64 43 -141z m6230 -308 c-9 -321 -15 -326 -240 -179 -126 83 -230 187 -230 231 0 226 131 370 296 327 134 -35 181 -137 174 -379z m-10504 -76 c-28 -69 -50 -12 -50 125 0 138 22 194 50 125 28 -69 28 -181 0 -250z m11034 125 c-59 -110 -128 -200 -154 -200 -25 0 -46 90 -46 200 0 113 67 200 154 200 122 0 131 -40 46 -200z m600 100 c0 -55 69 -100 152 -100 134 0 132 -31 -11 -250 -90 -137 -223 -250 -296 -250 -162 0 -272 314 -187 536 68 177 342 228 342 64z m842 13 c66 -107 -319 -469 -407 -381 -35 35 11 92 103 127 130 50 141 95 52 203 -89 107 -80 138 42 138 86 0 180 -39 210 -87z m451 -320 c-173 -186 -335 -279 -408 -234 -83 52 -16 162 213 354 433 361 567 278 195 -120z m-11822 69 c-58 -173 -314 -133 -350 55 -25 126 19 154 177 112 116 -30 193 -105 173 -167z m12660 -169 c28 -106 15 -214 -27 -241 -42 -26 -53 -172 -24 -325 47 -248 35 -263 -113 -141 -91 75 -142 174 -113 220 28 46 -40 133 -151 193 -248 132 -259 288 -32 454 213 155 394 93 460 -160z m1424 -68 c-30 -380 -163 -825 -246 -825 -38 0 -50 163 -27 362 55 466 -168 424 -332 -62 -138 -411 -299 -483 -450 -201 -208 390 -87 607 450 802 654 238 630 241 605 -76z m-11855 75 c0 -55 -79 -99 -175 -98 -150 1 -153 15 -25 98 189 122 200 122 200 0z m13039 -463 c-35 -627 -63 -688 -285 -602 -198 76 -197 351 3 572 230 255 -6 344 -253 97 -112 -112 -204 -316 -204 -454 0 -305 -161 -329 -254 -39 -40 127 -12 265 69 345 168 165 814 624 895 635 33 5 46 -244 29 -554z m1510 338 c-159 -553 -407 -1071 -499 -1039 -175 62 -81 630 157 952 270 365 434 407 342 87z m-13624 59 c-69 -28 -181 -28 -250 0 -69 28 -12 50 125 50 138 0 194 -22 125 -50z m-3610 -159 c-76 -76 -149 -81 -214 -16 -65 65 -26 104 115 115 161 12 185 -13 99 -99z m-3267 -250 c-40 -96 -150 -415 -244 -709 -159 -496 -323 -711 -544 -714 -50 -1 -16 80 75 181 91 101 142 206 114 235 -28 28 16 241 98 473 82 232 144 453 139 490 -24 169 28 219 225 219 162 0 193 -40 137 -175z m3930 90 c71 -44 104 -146 73 -225 -70 -183 -451 -429 -451 -291 0 56 40 101 89 101 154 0 224 330 89 415 -70 45 -83 82 -28 82 55 0 158 -37 228 -82z m-5301 -190 c-84 -96 -184 -276 -222 -400 -73 -240 -134 -267 -327 -145 -190 121 214 720 486 720 199 0 204 -15 63 -175z m723 -19 c0 -52 -41 -119 -91 -150 -50 -31 -148 -280 -218 -552 -131 -513 -366 -724 -512 -462 -47 82 -151 124 -232 93 -173 -66 -200 121 -32 224 64 40 172 -6 241 -100 147 -201 297 -42 200 211 -34 88 -12 311 49 495 85 257 167 335 353 335 133 0 242 -42 242 -94z m16268 -26 c183 -66 332 -176 332 -245 0 -69 60 -161 133 -205 73 -44 209 -234 302 -423 132 -271 141 -360 41 -424 -197 -125 -440 -97 -576 67 -68 83 -279 150 -468 150 -224 0 -320 38 -276 110 43 69 228 85 506 43 478 -71 548 16 238 297 -110 100 -200 239 -200 310 0 205 -165 252 -443 125 -295 -134 -390 -86 -299 151 75 195 260 206 710 44z m3981 -55 c-40 -96 -75 -231 -78 -300 -6 -174 -165 -157 -235 25 -83 217 32 450 222 450 117 0 143 -50 91 -175z m-16236 -100 c-52 -96 -256 -310 -453 -474 -198 -165 -360 -379 -360 -475 0 -97 -45 -176 -100 -176 -55 0 -100 -67 -100 -150 0 -82 -42 -150 -93 -150 -51 0 -166 -73 -255 -162 -89 -89 -185 -138 -213 -110 -29 29 47 144 167 257 121 112 271 288 332 391 422 704 604 924 761 924 99 0 206 68 237 150 32 83 83 150 114 150 32 0 15 -79 -37 -175z m10687 81 c0 -136 -176 -225 -240 -122 -60 97 26 216 157 216 46 0 83 -42 83 -94z m6782 -273 c-36 -305 -228 -418 -317 -187 -81 212 26 454 202 454 100 0 136 -85 115 -267z m-7282 -133 c129 -84 127 -97 -19 -98 -93 -1 -197 43 -231 98 -78 127 54 127 250 0z m-2100 -100 c0 -55 -45 -100 -100 -100 -55 0 -100 45 -100 100 0 55 45 100 100 100 55 0 100 -45 100 -100z m-13735 -246 c-32 -85 -105 -154 -162 -154 -146 0 -128 274 22 328 170 61 211 10 140 -174z m6185 146 c-34 -55 -107 -100 -162 -100 -55 0 -72 45 -38 100 34 55 107 100 162 100 55 0 72 -45 38 -100z m-650 -39 c0 -22 -70 -66 -155 -99 -89 -34 -129 -18 -94 39 58 95 249 141 249 60z m1625 -27 c-69 -28 -181 -28 -250 0 -69 28 -12 50 125 50 138 0 194 -22 125 -50z m14875 -34 c0 -55 -45 -100 -100 -100 -55 0 -100 45 -100 100 0 55 45 100 100 100 55 0 100 -45 100 -100z m650 0 c36 -58 -57 -99 -219 -98 -218 1 -247 23 -131 98 192 124 273 124 350 0z m750 -39 c0 -22 -67 -66 -150 -97 -82 -32 -150 -14 -150 39 0 53 68 97 150 97 83 0 150 -18 150 -39z m-15700 -161 c0 -55 -93 -100 -206 -100 -113 0 -178 45 -144 100 34 55 127 100 206 100 79 0 144 -45 144 -100z m12300 -43 c0 -193 292 -474 415 -398 54 34 74 124 45 201 -64 167 -12 175 247 36 321 -172 218 -336 -333 -530 -835 -294 -974 -311 -974 -126 0 125 60 149 250 101 142 -36 250 -19 250 37 0 141 -293 238 -512 168 -101 -32 -264 -9 -361 52 -141 87 -80 104 298 80 527 -33 542 -18 319 300 -148 212 -144 222 100 222 155 0 256 -56 256 -143z m-13750 -157 c34 -55 17 -100 -38 -100 -55 0 -128 45 -162 100 -34 55 -17 100 38 100 55 0 128 -45 162 -100z m475 34 c-69 -28 -181 -28 -250 0 -69 28 -12 50 125 50 138 0 194 -22 125 -50z m10519 -203 c32 -85 -40 -226 -169 -331 -264 -214 -184 -365 110 -208 111 59 329 106 483 104 l282 -3 -238 -132 -238 -132 331 -116 c244 -85 350 -86 401 -3 79 127 494 28 494 -119 0 -52 -108 -68 -239 -35 -135 34 -270 10 -310 -55 -43 -68 13 -137 139 -169 115 -31 210 -95 210 -144 0 -148 -140 -101 -631 210 -259 164 -587 328 -729 363 -318 80 -1040 -145 -1040 -325 0 -101 62 -108 266 -30 361 137 1083 16 1294 -217 243 -268 102 -351 -157 -92 -133 133 -283 191 -398 155 -101 -33 -375 -91 -608 -131 -331 -57 -460 -139 -586 -372 -141 -262 -208 -295 -536 -268 -377 31 -538 219 -187 219 266 0 495 287 317 397 -98 61 -78 98 82 149 121 38 213 151 213 261 0 119 69 193 180 193 233 0 420 190 420 426 0 311 314 644 564 596 122 -24 248 -110 280 -191z m-15244 -81 c-68 -82 -169 -150 -224 -150 -56 0 -45 66 24 150 68 83 169 150 224 150 56 0 45 -66 -24 -150z m3250 50 c-34 -55 -104 -100 -156 -100 -52 0 -94 45 -94 100 0 55 70 100 156 100 86 0 128 -45 94 -100z m12600 0 c36 -58 -57 -99 -219 -98 -218 1 -247 23 -131 98 192 124 273 124 350 0z m-11250 -88 c0 -49 -101 -114 -225 -145 -217 -55 -218 -52 -31 88 227 169 256 176 256 57z m8456 -59 c191 -145 191 -147 -6 -146 -110 0 -312 64 -450 143 l-250 143 256 3 c141 2 343 -62 450 -143z m-10056 -403 c-68 -82 -169 -150 -224 -150 -56 0 -45 66 24 150 68 83 169 150 224 150 56 0 45 -66 -24 -150z m1400 -2 c0 -79 -520 -261 -578 -203 -28 28 57 94 188 147 282 112 390 128 390 56z m425 -14 c-69 -28 -181 -28 -250 0 -69 28 -12 50 125 50 138 0 194 -22 125 -50z m13975 -232 c0 -102 -56 -204 -125 -227 -180 -61 49 -316 459 -511 374 -177 782 -82 1331 310 311 223 317 223 550 33 262 -215 227 -243 -451 -356 -265 -44 -402 -125 -437 -258 -56 -215 -147 -238 -403 -99 -96 52 -294 119 -441 150 -147 31 -401 168 -565 306 -163 137 -347 250 -407 250 -152 0 -140 -271 14 -334 74 -30 80 -53 15 -58 -61 -4 -231 103 -378 239 -233 216 -251 274 -140 450 69 112 217 204 327 205 111 0 266 42 346 93 187 118 305 43 305 -193z m500 92 c0 -113 -43 -179 -96 -147 -52 33 -70 125 -39 206 79 207 135 183 135 -59z m-16717 5 c92 -1 -514 -398 -608 -398 -41 -1 -75 64 -75 144 0 178 302 367 483 302 73 -26 163 -47 200 -48z m17817 -49 c0 -82 -66 -150 -147 -150 -89 0 -124 59 -89 150 31 83 98 150 147 150 49 0 89 -67 89 -150z m-3200 -85 c0 -92 -326 -673 -359 -640 -60 61 195 675 281 675 43 0 78 -16 78 -35z m-8300 -321 c0 -24 -70 -44 -156 -44 -86 0 -128 46 -93 102 57 92 249 48 249 -58z m3300 16 c0 -22 -140 -89 -311 -149 -271 -94 -295 -89 -188 40 109 131 499 216 499 109z m9650 -60 c-34 -55 -82 -100 -106 -100 -24 0 -44 45 -44 100 0 55 48 100 106 100 58 0 78 -45 44 -100z m-17400 -100 c-110 -47 -290 -86 -400 -86 -200 0 -200 0 0 86 110 47 290 86 400 86 200 0 200 0 0 -86z m950 -6 c0 -58 -45 -78 -100 -44 -55 34 -100 82 -100 106 0 24 45 44 100 44 55 0 100 -48 100 -106z m14300 68 c0 -21 -90 -62 -200 -91 -110 -29 -200 -11 -200 38 0 50 90 91 200 91 110 0 200 -17 200 -38z m-8850 -262 c34 -55 -6 -100 -88 -100 -83 0 -178 45 -212 100 -34 55 6 100 88 100 83 0 178 -45 212 -100z m600 0 c-34 -55 -138 -99 -231 -98 -146 1 -148 14 -19 98 196 127 328 127 250 0z m473 -100 c-391 -238 -434 -245 -361 -56 48 126 208 192 588 242 55 7 -47 -77 -227 -186z m5719 139 c87 -33 158 -104 158 -156 0 -140 -527 -56 -576 92 -43 133 157 164 418 64z m-15692 -139 c-34 -55 -82 -100 -106 -100 -24 0 -44 45 -44 100 0 55 48 100 106 100 58 0 78 -45 44 -100z m2948 -101 c-68 -42 -93 -126 -56 -187 43 -69 11 -88 -87 -50 -85 33 -155 79 -155 103 0 107 259 309 336 262 47 -29 30 -86 -38 -128z m721 133 c-72 -29 -159 -26 -192 8 -33 33 26 56 131 52 117 -5 141 -28 61 -60z m4481 -21 c0 -49 -67 -116 -150 -147 -152 -59 -205 48 -83 169 95 96 233 83 233 -22z m4846 27 c149 -58 149 -78 -4 -247 -92 -102 -184 -329 -205 -505 -20 -175 -51 -333 -67 -350 -17 -16 -195 -3 -397 30 -349 56 -360 69 -222 272 122 178 662 821 716 852 9 6 90 -18 179 -52z m-10821 -104 c-69 -28 -181 -28 -250 0 -69 28 -12 50 125 50 138 0 194 -22 125 -50z m12837 -134 c122 0 239 -52 260 -117 30 -88 119 -88 373 0 445 155 537 148 781 -58 114 -96 290 -229 391 -294 173 -113 171 -120 -30 -125 -117 -3 -266 59 -332 138 -68 82 -286 141 -512 138 -417 -6 -522 -128 -198 -230 118 -38 173 -119 139 -208 -38 -98 62 -194 309 -298 201 -83 338 -196 305 -249 -116 -189 -413 -93 -632 203 -207 280 -516 408 -516 214 0 -48 132 -238 294 -423 337 -386 319 -532 -26 -208 -155 146 -360 218 -624 219 -217 0 -461 45 -544 98 -82 53 -114 98 -69 98 44 1 52 48 18 104 -40 64 -207 22 -448 -114 -248 -139 -450 -189 -568 -140 -101 41 -138 87 -83 102 729 191 950 299 950 466 0 195 245 253 350 84 115 -186 524 -112 581 106 65 251 -118 338 -563 266 -204 -33 -396 3 -521 98 -185 140 -177 145 128 82 270 -56 325 -38 325 110 0 138 27 151 120 58 66 -66 220 -120 342 -120z m4846 100 c51 0 92 -45 92 -100 0 -165 -374 -113 -440 61 -46 118 -20 145 97 100 88 -33 201 -61 251 -61z m-23708 -350 c-129 -137 -257 -227 -284 -199 -28 27 55 162 184 299 129 137 257 227 284 199 28 -27 -55 -162 -184 -299z m9947 42 c-47 -150 -12 -192 162 -192 216 0 217 -6 41 -200 -212 -235 -470 -269 -386 -51 103 271 -233 273 -503 3 -144 -144 -261 -304 -261 -357 0 -141 376 -115 429 30 36 99 89 99 262 -4 134 -78 350 -104 557 -65 405 76 1052 -115 1052 -310 0 -174 369 -379 555 -308 76 29 165 10 197 -42 33 -52 201 -84 374 -71 286 23 336 -19 544 -450 125 -261 249 -475 274 -475 114 0 556 239 556 301 0 86 354 499 428 499 98 0 -352 -846 -517 -971 -89 -67 -245 -124 -347 -126 -139 -2 -166 -47 -109 -178 43 -96 104 -400 138 -675 47 -392 75 -449 127 -265 43 151 110 208 188 160 162 -100 24 471 -141 581 -83 55 -63 109 68 186 102 60 257 193 345 296 148 173 173 175 340 24 99 -90 180 -132 180 -94 0 38 106 -34 235 -159 130 -126 215 -285 189 -354 -80 -220 141 -134 258 100 106 212 109 210 55 -50 -58 -272 106 -400 191 -150 24 69 26 24 6 -100 -21 -124 8 -225 64 -225 56 0 102 68 102 150 0 82 44 150 97 150 53 0 72 -63 43 -141 -37 -96 49 -163 274 -212 213 -47 341 -33 365 40 21 62 78 113 126 113 49 0 63 -67 31 -150 -78 -205 62 -189 225 25 123 162 133 158 136 -50 2 -181 60 -225 296 -225 192 0 359 -85 486 -246 174 -221 213 -231 382 -103 271 205 363 181 234 -60 -159 -298 -12 -383 205 -116 229 283 297 285 225 8 -43 -164 -21 -203 93 -159 83 32 214 17 291 -32 100 -63 104 -89 16 -90 -69 -1 -125 -73 -125 -159 0 -131 48 -122 290 50 160 114 332 207 382 207 51 0 244 135 429 301 222 198 371 267 436 202 134 -134 -138 -420 -829 -869 -307 -200 -675 -472 -819 -604 -143 -132 -300 -227 -350 -211 -139 46 -586 -305 -500 -392 43 -42 135 2 205 98 71 96 202 175 292 175 181 0 220 -153 64 -250 -55 -34 -100 -112 -100 -173 0 -62 113 -6 250 123 138 130 239 288 225 353 -29 136 441 550 882 776 169 87 366 228 438 314 71 87 187 157 258 157 198 0 55 -389 -190 -519 -117 -62 -415 -272 -663 -468 -247 -196 -469 -369 -492 -385 -23 -15 -15 -55 18 -87 32 -32 330 125 661 350 724 492 931 524 854 134 -29 -151 -64 -351 -77 -444 -13 -92 -145 -290 -294 -438 -148 -149 -270 -344 -270 -434 0 -91 -75 -276 -167 -412 l-167 -247 270 245 c148 135 250 297 226 359 -56 146 105 412 195 323 37 -37 38 -223 2 -413 -66 -353 -474 -728 -664 -611 -55 34 -88 8 -72 -58 15 -66 -36 -143 -112 -170 -91 -33 -112 -8 -63 72 42 68 -43 45 -189 -50 -146 -96 -242 -197 -215 -225 28 -28 115 3 194 68 110 92 152 90 184 -5 27 -83 157 -35 397 148 344 262 358 265 409 69 38 -144 5 -202 -116 -202 -220 0 -885 -557 -786 -658 41 -42 203 66 359 241 305 342 415 392 415 187 0 -72 -202 -304 -450 -515 -247 -211 -450 -425 -450 -476 0 -52 169 45 375 215 415 342 577 230 218 -151 -195 -208 -203 -243 -56 -243 137 0 166 -80 148 -400 -13 -220 -63 -400 -111 -400 -48 0 -231 -107 -406 -238 -175 -132 -420 -270 -544 -308 -125 -37 -202 -109 -172 -158 63 -101 772 242 953 461 172 207 269 176 256 -81 -7 -136 -87 -238 -206 -261 -284 -54 -964 -496 -1274 -827 -373 -398 -277 -361 394 152 669 512 1025 656 1025 414 0 -87 -123 -206 -273 -263 -150 -57 -296 -136 -325 -175 -29 -40 -254 -222 -502 -404 -326 -241 -381 -312 -200 -260 138 41 459 225 713 411 480 349 587 395 587 254 0 -141 -1763 -1217 -1994 -1217 -161 0 -127 145 94 400 110 127 200 248 200 269 0 83 -397 -181 -520 -345 -89 -119 -303 -185 -676 -208 l-546 -34 396 388 c218 214 756 678 1196 1031 440 353 823 669 850 703 28 33 241 167 475 297 358 199 549 399 380 399 -202 0 -2170 -1511 -2970 -2280 -532 -512 -785 -597 -785 -264 0 79 42 144 93 144 51 0 165 73 254 161 89 89 449 393 801 675 1279 1027 1938 1615 1846 1647 -51 18 -329 -168 -618 -415 -656 -559 -873 -609 -1053 -243 -131 270 -140 272 -366 101 -128 -96 -232 -276 -232 -400 0 -259 15 -265 292 -117 153 82 234 78 319 -14 86 -94 84 -107 -11 -54 -76 43 -125 12 -125 -77 0 -82 -258 -366 -573 -631 -316 -266 -662 -562 -769 -658 -204 -182 -358 -227 -358 -103 0 40 256 331 569 647 313 317 546 600 517 629 -112 112 -706 -284 -1294 -864 -445 -438 -643 -573 -723 -493 -79 79 105 313 671 853 430 409 763 796 742 859 -21 64 -394 -248 -828 -692 -827 -848 -1217 -1052 -447 -234 245 260 597 638 781 840 l336 368 -219 307 c-238 335 -189 375 225 183 149 -69 249 -181 223 -250 -26 -69 16 -125 92 -125 76 0 159 -56 184 -125 30 -82 164 -12 388 200 188 179 394 325 457 325 63 0 143 47 178 104 111 179 -483 -13 -727 -235 -311 -282 -284 -80 35 264 356 384 243 435 -260 117 -230 -145 -448 -235 -484 -200 -35 36 7 105 94 154 87 48 266 184 399 300 244 215 190 220 -284 26 -247 -101 -125 338 125 452 138 62 250 160 250 216 0 146 -109 128 -576 -98 -584 -282 -708 -249 -374 100 349 365 239 391 -209 50 -376 -287 -594 -317 -680 -94 -33 86 -105 129 -160 94 -56 -34 -101 8 -101 94 0 86 48 156 107 156 132 0 435 292 370 356 -25 26 -155 -33 -287 -130 -433 -316 -690 -436 -690 -320 0 62 -85 81 -200 44 -122 -39 -200 -18 -200 54 0 65 -68 91 -150 60 -82 -32 -150 -25 -150 15 0 40 -146 136 -325 214 -179 79 -384 225 -456 325 -72 100 -201 182 -287 182 -128 0 -134 28 -32 150 102 123 95 150 -38 150 -89 0 -162 51 -162 112 0 76 -50 71 -155 -16 -121 -100 -127 -145 -28 -207 158 -97 45 -222 -219 -241 -243 -18 -243 -36 14 401 117 198 179 391 137 430 -42 39 -93 26 -113 -29 -20 -55 -128 -249 -239 -431 -152 -250 -249 -316 -395 -270 -135 43 -264 -19 -423 -203 -126 -145 -319 -311 -429 -367 -164 -85 -178 -80 -75 29 69 72 125 159 125 192 0 114 -470 49 -635 -87 -146 -122 -165 -107 -165 131 0 169 40 243 110 200 78 -48 81 -13 12 119 -118 225 0 586 220 670 157 60 217 375 94 497 -35 35 -195 -29 -355 -144 -525 -373 -445 -81 111 407 386 338 523 523 478 641 -72 188 -163 198 -703 72 -211 -49 -358 -64 -328 -34 30 30 -61 145 -203 257 -222 175 -235 214 -96 291 263 147 182 280 -170 280 -387 0 -570 -151 -570 -470 0 -184 -55 -230 -276 -230 -234 0 -294 60 -400 398 -68 220 -124 487 -124 595 0 107 -39 219 -87 249 -48 30 -114 186 -146 349 -78 391 -703 1009 -1020 1009 -136 0 -247 -39 -247 -87 0 -49 -143 -117 -318 -152 -362 -72 -428 -7 -593 589 -207 749 -201 829 92 1170 209 245 286 444 296 771 14 465 246 769 306 401 51 -320 502 -443 881 -240 234 125 362 141 507 63 107 -57 348 -96 536 -87 189 10 448 -20 577 -65 196 -69 228 -52 197 102 -29 138 -120 181 -360 170 -203 -9 -321 33 -321 115 0 229 311 256 600 50 421 -300 681 -235 375 95 -101 108 -99 119 11 57 184 -105 1085 -78 1293 38 223 125 343 37 268 -198z m4428 239 c-96 -25 -175 -110 -175 -188 0 -86 -100 -143 -250 -143 -241 0 -243 7 -75 192 96 105 288 190 425 188 161 -2 188 -19 75 -49z m-9756 -99 c-72 -29 -159 -26 -192 8 -33 33 26 56 131 52 117 -5 141 -28 61 -60z m6781 -32 c0 -55 -70 -100 -156 -100 -86 0 -128 45 -94 100 34 55 104 100 156 100 52 0 94 -45 94 -100z m950 -100 c-100 -110 -197 -200 -216 -200 -20 0 21 90 89 200 69 110 166 200 217 200 50 0 10 -90 -90 -200z m-2031 32 c-72 -29 -159 -26 -192 8 -33 33 26 56 131 52 117 -5 141 -28 61 -60z m-9141 -230 c-133 -213 -378 -350 -378 -211 0 68 371 382 476 404 14 3 -30 -84 -98 -193z m2322 95 c0 -57 -79 -131 -175 -165 -96 -34 -256 -133 -356 -218 -157 -135 -193 -137 -271 -11 -116 188 1 299 418 397 184 44 345 84 359 90 14 5 25 -36 25 -93z m9700 -103 c0 -52 -71 -94 -157 -94 -111 0 -138 -58 -93 -200 75 -237 -66 -252 -500 -54 l-300 138 325 8 c334 8 464 199 150 220 -96 6 -40 43 125 82 324 76 450 48 450 -100z m-2361 -36 c-73 -191 -339 -286 -339 -122 0 166 98 264 264 264 71 0 105 -64 75 -142z m480 -26 c-72 -29 -159 -26 -192 8 -33 33 26 56 131 52 117 -5 141 -28 61 -60z m2881 -138 c0 -52 -157 -94 -350 -94 -414 0 -472 171 -75 222 314 40 425 7 425 -128z m3650 106 c-34 -55 -82 -100 -106 -100 -24 0 -44 45 -44 100 0 55 48 100 106 100 58 0 78 -45 44 -100z m-13472 -116 c-45 -135 -378 -207 -378 -82 0 46 79 104 175 129 96 25 190 51 208 57 19 7 16 -40 -5 -104z m10572 -32 c-165 -73 -345 -105 -399 -72 -54 34 13 93 150 131 418 116 567 81 249 -59z m5199 -51 c35 -57 -5 -73 -94 -39 -173 66 -205 138 -61 138 52 0 122 -44 155 -99z m-19949 -139 c0 -77 -118 -216 -262 -311 -272 -178 -256 -73 43 274 181 211 219 218 219 37z m3679 -143 l229 -176 -350 -397 c-318 -360 -350 -375 -354 -167 -3 160 46 221 161 200 90 -16 184 27 208 96 24 69 -8 125 -72 125 -145 0 -401 251 -401 393 0 164 323 123 579 -74z m11702 6 c-42 -221 -481 -302 -481 -89 0 130 138 211 432 252 46 7 68 -67 49 -163z m-1656 4 c-124 -23 -326 -23 -450 0 -124 24 -22 44 225 44 248 0 349 -20 225 -44z m-9451 -198 c-93 -93 -203 -136 -244 -95 -41 41 -8 117 73 168 243 154 352 108 171 -73z m-1274 -125 c0 -52 -95 -161 -211 -242 -220 -154 -181 -364 67 -364 79 0 144 -68 144 -150 0 -178 48 -185 309 -45 254 136 443 28 284 -163 -71 -86 -208 -117 -354 -80 -200 50 -240 21 -247 -176 -4 -130 -30 -180 -58 -111 -28 69 -114 125 -192 125 -78 0 -142 68 -142 150 0 131 -183 200 -425 162 -41 -7 -75 33 -75 88 0 55 65 100 144 100 230 0 272 170 88 354 -161 160 -160 178 18 308 214 157 650 186 650 44z m11119 26 c-72 -29 -159 -26 -192 8 -33 33 26 56 131 52 117 -5 141 -28 61 -60z m2581 -80 c0 -207 436 -294 814 -162 175 61 340 89 366 63 50 -49 -422 -253 -587 -253 -51 0 -93 -42 -93 -93 0 -52 -134 -90 -298 -85 -269 7 -281 22 -125 140 157 120 149 132 -90 135 -144 2 -323 -69 -396 -158 -113 -136 -106 -180 44 -290 250 -183 13 -308 -283 -150 -229 123 -314 610 -102 588 291 -31 373 15 263 147 -140 169 -47 266 254 266 139 0 233 -60 233 -148z m-2100 -152 c-82 -53 -218 -94 -300 -91 -99 3 -82 34 50 91 275 118 433 118 250 0z m919 32 c-72 -29 -159 -26 -192 8 -33 33 26 56 131 52 117 -5 141 -28 61 -60z m3494 -198 c124 -151 116 -156 -88 -47 -233 124 -290 213 -137 213 48 0 149 -75 225 -166z m-15113 -23 c0 -49 -74 -118 -164 -153 -137 -52 -144 -38 -38 90 144 173 202 191 202 63z m14200 -108 c-198 -152 -224 -218 -127 -315 89 -90 93 -159 12 -256 -84 -102 -65 -132 83 -132 105 0 246 54 312 120 132 132 152 79 59 -162 -71 -187 -331 -203 -684 -42 -289 132 -324 236 -105 320 224 86 181 253 -50 193 -110 -29 -200 -92 -200 -141 0 -122 -574 -111 -650 12 -35 56 46 100 184 100 135 0 441 112 681 249 525 300 852 337 485 54z m2891 58 c94 -113 45 -147 -263 -186 -471 -59 -594 3 -359 181 234 178 477 180 622 5z m-21273 -236 c-243 -340 -618 -686 -618 -570 0 83 701 845 777 845 20 0 -52 -124 -159 -275z m13982 114 c0 -21 -68 -39 -150 -39 -82 0 -150 44 -150 97 0 53 68 71 150 39 82 -31 150 -75 150 -97z m1919 93 c-72 -29 -159 -26 -192 8 -33 33 26 56 131 52 117 -5 141 -28 61 -60z m3881 -279 c0 -87 -587 -353 -770 -349 -118 3 -59 71 170 196 337 185 600 251 600 153z m-6340 -326 c-33 -33 -56 26 -52 131 5 117 28 141 60 61 29 -72 26 -159 -8 -192z m1990 173 c34 -55 -28 -100 -138 -100 -110 0 -228 45 -262 100 -34 55 28 100 138 100 110 0 228 -45 262 -100z m5964 -79 c-72 -24 -179 4 -237 62 -74 74 -35 87 131 44 135 -35 181 -81 106 -106z m-495 11 c-72 -29 -159 -26 -192 8 -33 33 26 56 131 52 117 -5 141 -28 61 -60z m-16642 -151 c-22 -65 -93 -136 -158 -158 -73 -24 -96 21 -58 119 69 181 276 219 216 39z m-4277 -19 c0 -21 -79 -99 -175 -175 -159 -124 -162 -121 -38 38 131 167 213 220 213 137z m16990 -324 c-147 -177 -334 -176 -484 4 -95 116 -74 150 113 180 358 57 509 -18 371 -184z m3810 62 c-79 -49 -167 -67 -194 -39 -28 27 15 90 94 139 79 49 167 67 194 39 28 -27 -15 -90 -94 -139z m2150 100 c-34 -55 -138 -99 -231 -98 -146 1 -148 14 -19 98 196 127 328 127 250 0z m-20915 -299 c-82 -165 -124 -401 -93 -525 31 -124 -11 -80 -93 99 -136 295 -134 342 26 516 261 286 329 247 160 -90z m15584 231 c-72 -29 -159 -26 -192 8 -33 33 26 56 131 52 117 -5 141 -28 61 -60z m-14719 -135 c0 -129 -285 -245 -376 -154 -38 37 -2 110 79 161 193 122 297 120 297 -7z m12500 -3 c0 -58 -45 -78 -100 -44 -55 34 -100 82 -100 106 0 24 45 44 100 44 55 0 100 -48 100 -106z m-11100 -29 c0 -89 -502 -565 -595 -565 -178 0 -117 133 170 368 252 206 425 286 425 197z m12000 -65 c0 -55 -42 -100 -94 -100 -52 0 -122 45 -156 100 -34 55 8 100 94 100 86 0 156 -45 156 -100z m2600 0 c0 -55 -45 -100 -100 -100 -55 0 -100 45 -100 100 0 55 45 100 100 100 55 0 100 -45 100 -100z m-823 -119 c-62 -185 -277 -216 -277 -39 0 87 71 158 158 158 87 0 141 -53 119 -119z m1823 -31 c0 -82 -49 -150 -109 -150 -60 0 -225 -91 -365 -201 -276 -217 -363 -212 -276 15 54 139 526 478 675 483 41 2 75 -65 75 -147z m-19659 -260 c-248 -274 -384 -234 -171 50 99 132 217 217 262 190 44 -28 4 -135 -91 -240z m2405 -28 c116 45 154 -9 154 -214 0 -261 19 -272 393 -222 325 44 383 27 334 -101 -33 -86 15 -208 108 -276 141 -104 146 -141 28 -238 -109 -91 -150 -73 -191 87 -58 219 -363 271 -543 91 -157 -157 -304 -37 -304 247 0 131 -96 335 -212 452 -225 224 -259 333 -142 450 39 39 105 -20 146 -132 48 -129 131 -181 229 -144z m14754 238 c0 -55 -124 -99 -275 -98 -214 1 -242 22 -125 98 196 126 400 126 400 0z m-1000 -100 c0 -55 -48 -100 -106 -100 -58 0 -78 45 -44 100 34 55 82 100 106 100 24 0 44 -45 44 -100z m7100 0 c0 -55 -67 -100 -150 -100 -82 0 -150 45 -150 100 0 55 68 100 150 100 83 0 150 -45 150 -100z m-4820 -100 c143 0 140 -21 -21 -175 -134 -128 -195 -142 -229 -50 -26 69 -113 125 -194 125 -81 0 -118 48 -82 107 37 59 133 81 214 50 82 -31 222 -57 312 -57z m-1130 -100 c-34 -55 -107 -100 -162 -100 -55 0 -72 45 -38 100 34 55 107 100 162 100 55 0 72 -45 38 -100z m-650 -100 c0 -55 -48 -100 -106 -100 -58 0 -78 45 -44 100 34 55 82 100 106 100 24 0 44 -45 44 -100z m3200 0 c0 -55 -50 -100 -111 -100 -61 0 -84 -70 -51 -155 34 -89 18 -129 -39 -94 -156 96 -115 449 51 449 83 0 150 -45 150 -100z m1575 -25 c-23 -69 -126 -141 -230 -162 -163 -31 -171 -14 -55 125 159 192 344 215 285 37z m-17475 -125 c-68 -82 -198 -149 -287 -147 -137 3 -132 27 31 150 253 191 416 189 256 -3z m2144 -108 c144 -144 138 -174 -67 -341 -245 -198 -377 -176 -377 61 0 82 -45 122 -100 88 -111 -68 -139 177 -33 283 118 118 414 71 577 -91z m12606 58 c-34 -55 -107 -100 -162 -100 -55 0 -72 45 -38 100 34 55 107 100 162 100 55 0 72 -45 38 -100z m5108 -88 c-154 -249 -1836 -418 -2155 -216 -259 164 -24 233 418 123 394 -97 1317 -15 1462 131 88 87 331 54 275 -38z m-4458 -112 c0 -55 -67 -100 -150 -100 -82 0 -150 45 -150 100 0 55 68 100 150 100 83 0 150 -45 150 -100z m-17350 -200 c-39 -63 -130 -91 -203 -63 -228 88 -392 -209 -267 -483 120 -262 748 -611 915 -507 60 37 105 -22 105 -138 0 -218 -68 -212 -666 52 -400 177 -847 1004 -623 1152 76 50 241 74 366 53 125 -22 254 3 285 54 32 51 81 71 108 43 28 -27 18 -101 -20 -163z m2150 -150 c0 -82 -45 -150 -100 -150 -55 0 -100 68 -100 150 0 83 45 150 100 150 55 0 100 -67 100 -150z m19100 -150 c-197 -127 -429 -127 -350 0 34 55 160 99 281 98 178 -1 191 -19 69 -98z m-3825 -175 c26 -78 -54 -125 -217 -125 -252 0 -328 96 -188 237 103 103 357 33 405 -112z m-16036 -183 c94 -245 74 -277 -89 -142 -166 138 -199 300 -61 300 49 0 117 -71 150 -158z m1215 -35 c-36 -59 -114 -107 -172 -107 -66 0 -59 57 20 152 137 166 260 129 152 -45z m18325 -61 c-30 -30 -229 -74 -442 -98 l-387 -44 400 135 c376 126 552 129 429 7z m-16379 -289 c0 48 70 -13 156 -135 171 -245 119 -422 -126 -422 -211 0 -423 293 -427 590 -3 235 2 236 197 60 110 -100 200 -142 200 -93z m-5900 76 c0 -105 -924 -969 -1183 -1106 -184 -97 -224 -97 -192 0 22 68 151 177 287 244 136 66 394 303 573 525 295 367 515 511 515 337z m2918 -155 c-71 -71 -118 -77 -118 -15 0 134 118 252 185 185 28 -28 -2 -105 -67 -170z m423 -488 c-248 -274 -384 -234 -171 50 99 132 217 217 262 190 44 -28 4 -135 -91 -240z m-941 79 c0 -223 -261 -505 -392 -424 -90 56 -63 140 102 316 259 275 290 287 290 108z m5600 -324 c0 -67 -111 -143 -246 -169 -205 -39 -231 -19 -155 122 104 194 401 229 401 47z m-5400 -245 c0 -55 -45 -100 -100 -100 -55 0 -100 45 -100 100 0 55 45 100 100 100 55 0 100 -45 100 -100z m-603 -553 c-209 -252 -310 -160 -129 117 95 145 190 211 212 146 21 -64 -16 -183 -83 -263z m-2597 -697 c-129 -137 -273 -250 -320 -250 -46 0 -11 113 79 250 90 138 234 250 320 250 120 0 102 -57 -79 -250z m-782 -372 c-71 -71 -118 -77 -118 -15 0 134 118 252 185 185 28 -28 -2 -105 -67 -170z m282 -113 c0 -18 -101 -120 -225 -225 l-225 -190 190 225 c180 211 260 271 260 190z m21800 -265 c0 -55 -45 -100 -100 -100 -55 0 -100 45 -100 100 0 55 45 100 100 100 55 0 100 -45 100 -100z m1425 -866 c-69 -28 -181 -28 -250 0 -69 28 -12 50 125 50 138 0 194 -22 125 -50z m-7175 -434 c-34 -55 -82 -100 -106 -100 -24 0 -44 45 -44 100 0 55 48 100 106 100 58 0 78 -45 44 -100z m-8300 -100 c-34 -55 -104 -100 -156 -100 -52 0 -94 45 -94 100 0 55 70 100 156 100 86 0 128 -45 94 -100z m4250 0 c0 -55 -45 -100 -100 -100 -55 0 -100 45 -100 100 0 55 45 100 100 100 55 0 100 -45 100 -100z m-1357 -248 c-106 -80 -238 -146 -293 -147 -55 0 12 85 149 190 136 105 268 171 292 147 25 -24 -42 -110 -148 -190z m-8243 10 c0 -21 -79 -99 -175 -175 -159 -124 -162 -121 -38 38 131 167 213 220 213 137z m4900 -118 c0 -24 -45 -44 -100 -44 -55 0 -100 48 -100 106 0 58 45 78 100 44 55 -34 100 -82 100 -106z m400 56 c0 -55 -45 -100 -100 -100 -55 0 -100 45 -100 100 0 55 45 100 100 100 55 0 100 -45 100 -100z m-1136 -149 c-45 -118 24 -146 323 -134 410 16 1014 -203 1011 -366 0 -56 -41 -164 -89 -240 -73 -115 -141 -102 -389 75 -324 231 -766 283 -877 103 -38 -61 -7 -151 69 -199 207 -130 -37 -114 -514 34 -456 143 -514 337 -141 478 332 127 343 125 343 -52 0 -82 50 -150 111 -150 66 0 87 94 52 235 -33 129 -30 264 5 300 111 111 156 72 96 -84z m-988 -368 c-177 -305 -449 -576 -513 -512 -69 68 430 729 550 729 49 0 32 -97 -37 -217z m7249 75 c14 -50 -31 -110 -100 -133 -69 -23 -125 33 -125 125 0 169 179 176 225 8z m675 60 c0 -119 -717 -734 -782 -670 -30 30 98 212 283 403 331 341 499 431 499 267z m993 -93 c-314 -419 -1349 -1425 -1465 -1425 -315 0 -85 276 922 1104 648 534 746 592 543 321z m51 -538 c-272 -279 -617 -635 -768 -789 -163 -167 -301 -239 -339 -178 -35 57 77 214 250 349 172 135 523 467 780 738 256 271 490 470 519 441 28 -29 -170 -281 -442 -561z m-995 112 c-99 -110 -208 -174 -240 -141 -32 32 29 122 135 200 274 201 318 176 105 -59z m1072 -620 c-390 -398 -745 -689 -788 -645 -44 44 247 398 646 787 400 389 754 679 788 645 35 -34 -256 -388 -646 -787z m941 496 c-145 -179 -385 -482 -532 -675 -403 -526 -724 -819 -850 -777 -112 38 18 200 1001 1252 540 578 798 713 381 200z m5683 -481 c52 -51 200 -94 327 -94 128 0 536 -156 905 -347 1007 -520 1253 -753 796 -753 -534 0 -1373 -958 -1373 -1568 0 -150 -131 -237 -561 -372 -309 -98 -597 -140 -641 -94 -43 46 -106 658 -139 1359 l-61 1275 237 0 c131 0 404 -113 607 -251 316 -215 999 -549 1120 -549 21 0 38 62 38 137 0 183 -1636 1009 -1841 930 -123 -47 -159 6 -159 238 0 281 18 295 325 241 179 -31 368 -100 420 -152z m-15416 -294 c29 -110 11 -225 -38 -256 -50 -31 -91 40 -91 156 0 135 -42 186 -115 140 -72 -44 -89 -27 -45 45 108 174 231 138 289 -85z m2148 -100 c-111 -178 -277 -272 -277 -157 0 56 302 357 358 357 24 0 -13 -90 -81 -200z m705 125 c-20 -41 -269 -555 -555 -1141 -612 -1258 -715 -1584 -499 -1584 150 0 321 -284 227 -378 -72 -72 -557 266 -621 434 -31 80 37 342 150 583 114 242 239 568 278 725 135 545 699 1436 908 1436 81 0 131 -34 112 -75z m7158 -650 c-243 -287 -371 -378 -437 -311 -47 48 487 534 587 536 23 0 -45 -101 -150 -225z m-1842 -393 c1 -38 139 -65 307 -60 377 11 615 -185 394 -325 -199 -125 -671 -123 -750 5 -35 56 -112 71 -171 34 -60 -37 -82 -24 -50 29 33 53 20 274 -29 491 l-89 394 193 -250 c106 -137 194 -281 195 -318z m6058 161 c-107 -79 -258 -143 -336 -143 -87 0 -118 -60 -82 -155 39 -102 20 -131 -56 -84 -79 49 -94 15 -48 -106 58 -150 29 -167 -195 -111 -178 44 -321 13 -444 -99 -101 -90 -230 -135 -289 -99 -139 86 188 546 394 553 83 3 353 134 600 292 290 185 486 253 550 191 66 -63 34 -144 -94 -239z m-14431 141 c201 33 223 -107 64 -404 -90 -168 -129 -181 -207 -69 -75 107 -109 111 -148 14 -89 -220 -209 -134 -210 150 -2 347 58 448 208 354 65 -41 197 -61 293 -45z m-4307 -206 c-71 -71 -118 -77 -118 -15 0 134 118 252 185 185 28 -28 -2 -105 -67 -170z m-818 -239 c0 -112 -616 -839 -712 -839 -109 0 524 890 637 896 41 2 75 -23 75 -57z m8855 -253 c37 -118 270 -476 518 -794 l450 -580 -500 -507 c-320 -326 -554 -487 -651 -450 -90 35 -213 -29 -302 -157 l-151 -216 -310 276 c-170 151 -309 326 -309 388 0 62 198 507 440 989 242 482 463 964 491 1071 67 258 239 247 324 -20z m6890 79 c200 -85 472 -102 842 -52 423 58 594 40 755 -79 199 -147 193 -151 -141 -107 -212 27 -439 -13 -575 -102 -133 -87 -296 -117 -400 -72 -97 41 -508 89 -914 107 -406 18 -761 55 -789 84 -28 28 5 120 75 204 153 184 736 192 1147 17z m-14246 -492 c-886 -830 -1421 -1273 -1534 -1270 -63 1 87 170 333 375 247 205 629 558 850 786 349 360 555 504 752 526 28 3 -153 -185 -401 -417z m3901 171 c0 -79 -45 -144 -100 -144 -55 0 -100 93 -100 206 0 113 45 178 100 144 55 -34 100 -127 100 -206z m8950 -44 c-34 -55 -115 -99 -181 -98 -71 0 -59 40 31 98 192 124 227 124 150 0z m-9764 -34 c-20 -12 -115 -83 -211 -157 -147 -112 -175 -111 -175 7 0 78 95 149 211 157 117 9 195 6 175 -7z m14057 -155 c61 -98 -218 -369 -298 -290 -70 71 59 379 160 379 46 0 108 -40 138 -89z m4937 -31 c185 -185 143 -280 -123 -280 -156 0 -347 -127 -537 -357 -248 -302 -347 -353 -632 -325 -303 29 -341 67 -370 370 -18 185 14 384 71 441 71 71 96 28 82 -138 -33 -375 160 -380 268 -6 91 320 112 332 472 275 213 -34 404 -17 439 40 82 132 184 126 330 -20z m-18580 -261 c0 -45 -97 -185 -216 -313 l-215 -231 240 -185 c133 -102 190 -187 129 -188 -62 -1 -113 -116 -113 -256 0 -290 -129 -461 -199 -264 -34 95 -88 73 -192 -75 -80 -114 -199 -206 -265 -205 -78 1 -71 31 20 89 80 51 146 283 156 556 13 343 91 561 291 811 275 345 364 409 364 261z m12093 -415 c6 -121 -22 -118 -157 17 -105 105 -137 229 -89 346 70 173 79 172 157 -17 45 -110 85 -266 89 -346z m707 396 c0 -55 -48 -100 -106 -100 -58 0 -78 45 -44 100 34 55 82 100 106 100 24 0 44 -45 44 -100z m-1354 -193 c100 -163 -91 -195 -291 -48 -189 138 -188 141 20 141 117 0 239 -42 271 -93z m3129 -341 c69 -43 125 -143 125 -223 0 -119 -35 -123 -196 -22 -159 99 -321 90 -842 -49 -355 -95 -713 -146 -796 -114 -91 35 -194 -24 -261 -149 -95 -177 -140 -189 -308 -84 -283 177 -253 216 278 362 261 72 543 156 625 187 83 31 225 48 316 37 92 -12 191 19 221 68 66 107 661 97 838 -13z m-13148 -770 c-245 -345 -503 -554 -583 -473 -16 15 130 241 324 502 417 564 660 537 259 -29z m10233 131 c-101 -102 -185 51 -102 186 63 102 87 102 121 1 23 -70 15 -154 -19 -187z m-560 73 c0 -55 -45 -100 -100 -100 -55 0 -100 45 -100 100 0 55 45 100 100 100 55 0 100 -45 100 -100z m-565 -154 c-33 -85 -81 -133 -107 -107 -27 26 -18 96 18 154 98 160 156 129 89 -47z m-5785 -146 c-34 -55 -82 -100 -106 -100 -24 0 -44 45 -44 100 0 55 48 100 106 100 58 0 78 -45 44 -100z m9050 -150 c-170 -181 -339 -250 -612 -250 -544 0 -571 175 -39 255 250 37 478 108 508 157 30 48 127 88 216 88 129 0 115 -50 -73 -250z m-2400 -56 c0 -58 -45 -78 -100 -44 -55 34 -100 82 -100 106 0 24 45 44 100 44 55 0 100 -48 100 -106z m-10009 -410 c-79 -148 -140 -186 -167 -105 -44 131 170 460 248 382 24 -24 -12 -149 -81 -277z m9459 216 c-34 -55 -104 -100 -156 -100 -52 0 -94 45 -94 100 0 55 70 100 156 100 86 0 128 -45 94 -100z m4400 -100 c34 -55 -25 -100 -132 -100 -106 0 -368 -72 -581 -161 -416 -172 -403 -113 37 170 314 201 585 238 676 91z m-4850 -100 c0 -55 -45 -100 -100 -100 -55 0 -100 45 -100 100 0 55 45 100 100 100 55 0 100 -45 100 -100z m1400 -50 c-327 -187 -504 -185 -256 3 107 81 264 145 350 143 100 -2 66 -54 -94 -146z m1500 -206 c0 -24 -45 -44 -100 -44 -55 0 -100 48 -100 106 0 58 45 78 100 44 55 -34 100 -82 100 -106z m-2100 -33 c0 -127 -283 -220 -347 -115 -30 48 2 110 71 138 199 79 276 73 276 -23z m-15600 -57 c0 -26 -101 -101 -225 -167 -204 -109 -212 -104 -88 47 128 155 313 225 313 120z m18500 -54 c0 -55 -48 -100 -106 -100 -58 0 -78 45 -44 100 34 55 82 100 106 100 24 0 44 -45 44 -100z"/>
<path d="M11600 21100 c0 -55 65 -100 144 -100 79 0 172 45 206 100 34 55 -31 100 -144 100 -113 0 -206 -45 -206 -100z"/>
<path d="M12058 19724 c-117 -116 -50 -212 290 -423 192 -118 448 -201 568 -183 184 27 136 84 -291 348 -280 174 -536 290 -567 258z"/>
<path d="M11537 19448 c49 -128 24 -134 -159 -36 -163 87 -228 88 -257 2 -21 -63 -93 -114 -161 -114 -208 0 -808 -592 -704 -694 156 -152 644 -241 644 -117 0 61 73 111 163 111 90 0 247 96 349 214 129 148 223 184 311 117 164 -125 827 -111 827 17 0 54 -52 99 -115 100 -63 1 -254 126 -424 277 -340 302 -565 361 -474 123z"/>
<path d="M8800 18600 c0 -55 45 -100 100 -100 55 0 100 45 100 100 0 55 -45 100 -100 100 -55 0 -100 -45 -100 -100z"/>
<path d="M12375 18570 c-151 -60 -275 -140 -275 -178 0 -138 520 -200 664 -81 109 91 173 92 260 5 133 -133 376 -155 376 -35 0 69 -663 440 -728 408 -12 -5 -146 -59 -297 -119z"/>
<path d="M9653 18405 c-36 -59 2 -132 85 -164 203 -78 512 -11 512 110 0 138 -516 184 -597 54z"/>
<path d="M14194 18372 c-86 -67 -186 -201 -222 -297 -71 -189 86 -224 503 -112 318 85 280 216 -50 175 l-275 -33 275 117 c151 64 275 153 275 197 0 122 -329 91 -506 -47z"/>
<path d="M11650 18000 c34 -55 -8 -100 -94 -100 -86 0 -156 -67 -156 -150 0 -111 117 -150 456 -150 256 0 431 41 398 93 -31 51 -3 127 63 167 83 52 61 97 -74 150 -286 112 -665 106 -593 -10z"/>
<path d="M9517 17920 c-253 -26 -319 -71 -274 -189 45 -117 10 -142 -142 -102 -228 59 -260 -29 -76 -216 101 -103 72 -114 -150 -59 -170 42 -275 27 -275 -39 0 -58 155 -135 344 -170 353 -67 435 -19 888 520 210 250 145 303 -315 255z"/>
<path d="M17346 18293 c-36 -58 -42 -130 -14 -159 79 -78 468 65 468 173 0 129 -373 118 -454 -14z"/>
<path d="M9459 16225 c-30 -29 -30 -92 0 -139 70 -113 441 -111 441 2 0 103 -363 216 -441 137z"/>
<path d="M8900 15697 c-192 -101 -523 -262 -734 -356 -246 -111 -442 -293 -544 -507 -87 -184 -218 -334 -291 -334 -196 0 -158 -232 70 -428 247 -211 299 -215 299 -22 0 82 45 150 100 150 55 0 100 -61 100 -136 0 -86 92 -126 250 -109 216 24 242 -4 190 -208 -51 -206 -15 -243 302 -302 297 -56 420 -21 709 199 232 177 349 349 349 512 0 135 90 323 200 417 110 94 200 229 200 299 0 245 -261 125 -700 -322 -448 -457 -735 -564 -832 -310 -142 368 329 860 822 860 116 0 210 45 210 100 0 146 -284 123 -772 -64 -292 -111 -428 -222 -428 -350 0 -269 -148 -229 -163 45 -13 231 163 352 763 522 311 88 613 345 542 460 -77 125 -244 95 -642 -116z"/>
<path d="M13910 11309 c-76 -49 -113 -156 -82 -238 33 -86 -47 -248 -187 -380 -264 -247 -841 -1103 -841 -1246 0 -48 137 68 304 259 l304 346 -161 -334 c-89 -184 -137 -359 -107 -390 31 -30 85 23 121 117 37 95 173 213 303 262 130 50 236 139 236 198 0 60 -51 77 -113 39 -69 -43 -94 -16 -65 69 27 76 123 126 213 110 91 -17 165 20 165 81 0 60 -45 82 -100 48 -55 -34 -100 -11 -100 50 0 61 -45 84 -100 50 -55 -34 -100 -13 -100 47 0 60 69 136 154 168 84 33 219 187 300 342 232 449 177 604 -144 402z"/>
<path d="M21089 10606 c-131 -110 -194 -199 -139 -199 143 -1 496 281 432 344 -30 30 -161 -36 -293 -145z"/>
<path d="M15567 10233 c-37 -36 -67 -113 -67 -170 0 -62 47 -56 118 15 65 65 95 142 67 170 -28 29 -82 22 -118 -15z"/>
<path d="M20500 10200 c0 -55 20 -100 44 -100 24 0 72 45 106 100 34 55 14 100 -44 100 -58 0 -106 -45 -106 -100z"/>
<path d="M18200 10119 c0 -44 66 -168 147 -275 150 -198 202 -87 92 198 -62 163 -239 220 -239 77z"/>
<path d="M21150 10100 c-34 -55 -17 -100 38 -100 55 0 128 45 162 100 34 55 17 100 -38 100 -55 0 -128 -45 -162 -100z"/>
<path d="M20100 10022 c-82 -28 -186 -112 -230 -187 -44 -74 -168 -135 -275 -135 -107 0 -195 -45 -195 -100 0 -160 184 -117 529 125 177 123 340 236 363 250 95 57 -53 94 -192 47z"/>
<path d="M15702 9752 c-79 -95 -86 -152 -20 -152 121 0 262 190 192 259 -25 25 -102 -23 -172 -107z"/>
<path d="M18670 9661 c-41 -104 -51 -213 -22 -242 91 -91 171 58 133 248 -35 174 -40 174 -111 -6z"/>
<path d="M15899 9449 c-100 -121 -94 -149 33 -149 187 0 309 163 181 242 -50 31 -146 -11 -214 -93z"/>
<path d="M18908 9325 c4 -96 30 -121 56 -56 27 66 125 96 217 66 144 -46 147 -38 19 54 -215 155 -301 136 -292 -64z"/>
<path d="M20050 9300 c-34 -55 -14 -100 44 -100 58 0 106 45 106 100 0 55 -20 100 -44 100 -24 0 -72 -45 -106 -100z"/>
<path d="M19351 9201 c-35 -57 5 -73 94 -39 173 66 205 138 61 138 -52 0 -122 -44 -155 -99z"/>
<path d="M16057 9048 c-106 -80 -166 -173 -133 -205 79 -79 476 138 476 261 0 134 -117 115 -343 -56z"/>
<path d="M20179 8911 c-204 -144 -373 -296 -375 -340 -5 -91 242 41 595 319 379 300 201 316 -220 21z"/>
<path d="M19550 8900 c-100 -110 -131 -200 -69 -200 62 0 160 90 219 200 59 110 90 200 69 200 -21 0 -119 -90 -219 -200z"/>
<path d="M16108 8672 c-188 -116 -290 -228 -226 -249 64 -22 187 32 274 119 87 87 223 158 301 158 79 0 143 45 143 100 0 140 -99 115 -492 -128z"/>
<path d="M19046 8593 c-36 -58 -42 -130 -13 -160 72 -71 267 55 267 173 0 128 -173 119 -254 -13z"/>
<path d="M16600 8456 c0 -24 45 -72 100 -106 55 -34 100 -14 100 44 0 58 -45 106 -100 106 -55 0 -100 -20 -100 -44z"/>
<path d="M19143 8157 c-106 -77 -170 -163 -143 -191 28 -27 137 14 243 91 106 78 170 163 142 191 -27 27 -136 -13 -242 -91z"/>
<path d="M15811 7894 c-132 -109 -209 -229 -172 -266 37 -37 188 54 337 202 311 312 189 359 -165 64z"/>
<path d="M19375 7902 c-138 -109 -369 -243 -513 -298 -144 -54 -262 -145 -262 -202 0 -56 17 -102 37 -102 103 0 960 525 1066 653 176 213 -34 180 -328 -51z"/>
<path d="M16700 7900 c0 -55 20 -100 44 -100 24 0 72 45 106 100 34 55 14 100 -44 100 -58 0 -106 -45 -106 -100z"/>
<path d="M19400 7533 c-192 -137 -417 -287 -499 -334 -82 -46 -118 -115 -80 -154 39 -38 303 116 588 343 562 448 556 548 -9 145z"/>
<path d="M19703 7153 c-70 -83 -363 -287 -653 -453 -497 -285 -865 -600 -699 -600 138 0 749 415 749 508 0 51 65 92 144 92 181 0 728 461 645 544 -33 33 -117 -7 -186 -91z"/>
<path d="M18575 6761 c-96 -73 -175 -162 -175 -197 0 -121 170 -63 400 136 260 226 63 279 -225 61z"/>
<path d="M20100 6650 c-69 -84 -80 -150 -24 -150 55 0 156 68 224 150 69 84 80 150 24 150 -55 0 -156 -67 -224 -150z"/>
<path d="M18650 4636 c-385 -309 -715 -601 -733 -649 -77 -200 170 -53 778 464 355 302 682 549 725 549 44 0 80 45 80 100 0 181 -142 104 -850 -464z"/>
<path d="M21475 3823 c-96 -21 -175 -82 -175 -137 0 -55 83 -73 184 -41 110 35 294 -28 456 -155 293 -231 467 -182 299 85 -116 183 -495 306 -764 248z"/>
<path d="M21470 2837 c-140 -141 -64 -237 188 -237 163 0 243 47 217 125 -48 145 -302 215 -405 112z"/>
<path d="M10600 24800 c0 -129 51 -200 125 -175 69 23 125 102 125 175 0 73 -56 152 -125 175 -74 25 -125 -46 -125 -175z"/>
<path d="M13700 24790 c0 -307 370 -775 733 -926 689 -285 905 -272 1680 99 679 326 785 349 1351 289 542 -58 608 -88 563 -259 -59 -226 152 -265 237 -43 82 214 453 196 415 -20 -40 -235 495 -434 620 -232 48 79 49 212 2 301 -89 166 -1011 501 -1378 501 -291 0 -802 213 -648 270 69 26 125 88 125 138 0 53 -795 92 -1850 92 -1811 0 -1850 -4 -1850 -210z m2257 -277 c-222 -428 -957 -541 -957 -146 0 107 53 133 175 84 96 -39 231 -93 300 -121 154 -63 167 132 14 227 -149 92 88 239 389 241 218 2 221 -10 79 -285z m3143 -619 c0 -58 -45 -78 -100 -44 -55 34 -100 82 -100 106 0 24 45 44 100 44 55 0 100 -48 100 -106z"/>
<path d="M18200 24846 c661 -390 1200 -545 1200 -346 0 55 -57 100 -126 100 -70 0 -295 90 -500 200 -205 110 -475 198 -599 196 -223 -3 -223 -5 25 -150z"/>
<path d="M21500 24948 c0 -114 2029 -825 2594 -909 251 -38 557 -134 681 -215 208 -136 225 -132 225 61 0 125 -111 269 -275 358 -266 144 -266 168 0 195 281 28 115 313 -200 343 -272 27 -325 -2 -325 -175 0 -162 -64 -206 -300 -206 -191 0 -300 51 -300 141 0 91 70 122 200 88 268 -70 256 134 -17 280 -177 95 -239 86 -336 -46 -150 -205 -388 -215 -311 -13 43 113 -16 150 -239 150 -163 0 -297 -42 -297 -93 0 -57 -124 -57 -324 0 -355 102 -776 124 -776 41z"/>
<path d="M17500 24800 c0 -55 70 -100 156 -100 86 0 128 45 94 100 -34 55 -104 100 -156 100 -52 0 -94 -45 -94 -100z"/>
<path d="M20132 24830 c-119 -23 -262 -96 -316 -161 -137 -166 -22 -1069 136 -1069 95 0 106 95 43 372 -90 401 -8 579 314 681 178 56 281 263 116 233 -41 -7 -173 -32 -293 -56z"/>
<path d="M20120 24089 c25 -76 199 -154 388 -171 188 -18 441 -125 562 -238 133 -124 299 -185 419 -154 123 32 221 -7 258 -104 43 -113 90 -125 170 -45 188 188 11 452 -269 398 -156 -30 -330 23 -466 141 -130 112 -342 179 -528 167 -172 -12 -372 16 -446 62 -92 57 -120 39 -88 -56z"/>
<path d="M16600 24023 c-257 -85 -500 -346 -500 -538 0 -102 -45 -185 -100 -185 -55 0 -100 45 -100 100 0 55 -45 100 -100 100 -186 0 -113 -499 75 -511 96 -6 327 -29 513 -50 l338 -39 -52 390 c-36 268 -6 435 97 538 163 163 66 274 -171 195z"/>
<path d="M17300 23961 c0 -77 68 -166 150 -197 102 -39 150 5 150 139 0 108 -67 197 -150 197 -82 0 -150 -63 -150 -139z"/>
<path d="M125 23934 c-69 -28 -125 -119 -125 -203 0 -98 57 -131 158 -92 87 34 177 61 200 61 23 0 42 68 42 150 0 154 -57 172 -275 84z"/>
<path d="M23666 23552 c-177 -178 -129 -407 106 -497 218 -83 281 11 130 193 -107 128 -92 152 94 152 132 0 204 50 179 125 -63 190 -332 204 -509 27z"/>
<path d="M104 19907 c-126 -234 -134 -407 -20 -407 73 0 316 427 316 555 0 124 -206 21 -296 -148z"/>
<path d="M24854 19707 c-31 -51 -12 -121 44 -156 56 -35 102 7 102 93 0 176 -60 202 -146 63z"/>
<path d="M22268 10555 c-211 -75 -401 -155 -424 -178 -23 -22 331 -21 786 2 1190 63 1361 -21 349 -170 -539 -80 -920 -188 -1000 -285 -112 -137 -97 -150 121 -98 138 33 520 91 850 130 884 104 1035 179 976 487 -47 243 -82 257 -663 253 -337 -3 -785 -66 -995 -141z"/>
<path d="M22950 9752 c-55 -20 -314 -65 -575 -100 -261 -35 -475 -104 -475 -152 0 -48 146 -66 325 -40 179 27 640 58 1025 69 772 23 966 210 250 240 -247 11 -495 3 -550 -17z"/>
<path d="M22967 9194 c-783 -91 -967 -146 -967 -291 0 -118 452 -130 1425 -38 439 42 675 108 675 189 0 117 -237 262 -383 233 -37 -7 -375 -49 -750 -93z"/>
<path d="M5225 7475 c-351 -246 -410 -375 -171 -375 207 0 752 410 686 516 -79 128 -164 104 -515 -141z"/>
<path d="M4600 6839 c0 -105 54 -140 158 -100 87 34 177 61 200 61 23 0 42 45 42 100 0 55 -90 100 -200 100 -117 0 -200 -67 -200 -161z"/>
<path d="M4355 6266 c-271 -356 -337 -621 -130 -524 69 32 199 84 290 117 110 39 165 174 165 400 0 188 -16 341 -35 341 -19 0 -150 -150 -290 -334z"/>
<path d="M21500 6344 c0 -108 139 -144 563 -144 617 0 1337 -176 1337 -327 0 -55 -139 -67 -325 -30 -749 153 -975 174 -975 93 1 -103 781 -436 1020 -436 93 0 196 -45 230 -100 34 -55 132 -100 217 -100 115 0 139 64 92 250 -36 144 -20 250 39 250 198 0 98 189 -221 416 -266 190 -469 234 -1150 252 -664 17 -827 -8 -827 -124z"/>
<path d="M13677 1812 c-656 -385 -905 -624 -781 -748 68 -68 175 -33 328 109 124 116 427 316 673 444 400 208 537 398 328 453 -41 10 -288 -105 -548 -258z"/>
<path d="M10664 457 c-204 -310 -207 -395 -14 -321 83 32 150 14 150 -39 0 -53 40 -97 89 -97 153 0 182 240 58 479 l-119 228 -164 -250z"/>
<path d="M22749 599 c-90 -146 -40 -189 257 -222 162 -18 244 23 244 123 0 180 -402 259 -501 99z"/>
<path d="M23500 358 c0 -87 71 -158 158 -158 87 0 141 53 119 119 -62 185 -277 216 -277 39z"/>
<path d="M24877 304 c-69 -246 -28 -388 81 -279 32 32 42 163 23 291 l-35 234 -69 -246z"/>
<path d="M14535 246 c-173 -131 -168 -140 84 -143 300 -3 457 147 240 230 -77 29 -223 -10 -324 -87z"/>
</g>
</svg>