<svg xmlns="http://www.w3.org/2000/svg" version="1.0" width="250" height="250" viewBox="0 0 250.000000 250.000000" preserveAspectRatio="xMidYMid meet">
<metadata>
Created by potrace 1.10, written by Peter Selinger 2001-2011
</metadata>
<g transform="translate(0.000000,250.000000) scale(0.010000,-0.010000)" fill="#555555" stroke="none">
<path d="M273 24928 c177 -22 492 -23 700 -1 207 22 62 40 -323 40 -385 1 -555 -17 -377 -39z"/>
<path d="M2800 24877 c1181 -104 1375 -146 1242 -267 -138 -126 -2322 -224 -2394 -107 -33 53 -417 97 -854 97 l-794 0 0 -611 c0 -601 4 -610 250 -548 144 36 250 20 250 -39 0 -56 -112 -102 -250 -102 -150 0 -250 -57 -250 -143 0 -120 239 -135 1471 -95 1839 61 2155 -7 1826 -391 -57 -67 -159 -197 -225 -289 -113 -155 -226 -157 -1472 -28 -743 77 -1406 141 -1475 143 -228 6 -129 -179 150 -281 l275 -100 -275 -8 c-151 -4 -275 -59 -275 -121 0 -80 353 -98 1235 -60 1113 48 1613 -12 1451 -174 -31 -32 -649 -65 -1372 -73 -1258 -15 -1314 -25 -1314 -223 0 -178 60 -206 425 -201 234 4 599 65 812 137 317 107 401 107 467 0 52 -84 258 -121 588 -106 402 18 508 -9 508 -132 0 -219 -966 -217 -1209 3 -135 122 -220 133 -376 50 -111 -59 -359 -108 -550 -108 -192 0 -420 -27 -507 -61 -254 -97 -182 -267 92 -215 311 60 311 25 0 -383 -247 -324 -250 -348 -250 -2334 l0 -2006 403 16 c222 9 459 -39 525 -107 97 -98 18 -117 -378 -92 -457 29 -503 12 -533 -199 -21 -148 15 -225 100 -213 73 10 282 12 465 6 300 -11 328 -38 300 -287 -29 -246 -77 -278 -457 -306 -465 -33 -553 -153 -200 -270 l225 -74 -231 -45 c-398 -78 -182 -282 271 -256 372 21 404 6 274 -124 -99 -100 -249 -128 -456 -87 l-308 62 0 -512 c0 -418 33 -515 175 -525 167 -11 167 -13 0 -57 -96 -25 -175 -132 -175 -238 0 -154 71 -193 350 -193 193 0 350 -45 350 -100 0 -100 -194 -139 -525 -105 -126 13 -175 -55 -175 -239 0 -176 55 -257 175 -259 164 -3 164 -12 6 -132 -124 -94 -169 -275 -166 -664 l4 -534 266 401 c239 363 1465 2010 1586 2132 27 28 -99 -242 -280 -600 -181 -357 -472 -784 -646 -950 -321 -303 -796 -1135 -858 -1501 -55 -323 141 -326 227 -4 102 381 513 1155 613 1155 42 0 -8 -169 -111 -375 -104 -206 -244 -544 -310 -751 -67 -206 -208 -422 -314 -478 -202 -108 -266 -396 -88 -396 68 0 66 -70 -8 -208 -187 -349 -95 -3313 123 -3975 210 -635 207 -617 95 -617 -47 0 -132 146 -189 325 -79 245 -107 -295 -115 -2200 l-10 -2525 275 12 c179 7 212 27 94 58 -256 66 -150 280 139 280 169 0 238 -53 228 -175 -11 -142 68 -175 414 -175 375 0 436 31 492 254 71 284 258 241 258 -60 0 -183 82 -194 1494 -194 l1493 0 -52 375 c-28 206 -93 505 -143 665 -51 159 -91 362 -89 450 7 318 297 -214 297 -544 0 -174 49 -458 110 -631 103 -296 140 -315 600 -315 463 0 585 71 415 242 -41 41 -76 510 -77 1041 -2 1048 -89 1320 -718 2235 -177 257 -385 621 -464 808 -78 188 -342 505 -587 706 -561 459 -905 1088 -1184 2163 -199 770 -210 952 -125 2099 51 691 79 1275 62 1298 -85 112 -170 -146 -211 -642 -47 -568 -221 -773 -221 -261 0 483 388 1609 535 1553 73 -28 182 67 251 217 202 444 204 236 7 -659 -194 -876 -260 -2447 -107 -2542 48 -29 111 475 141 1120 60 1317 122 1544 853 3122 197 424 22 -474 -187 -965 -441 -1034 -617 -3036 -332 -3785 84 -220 179 -490 211 -600 58 -194 54 -195 -146 -18 -114 99 -235 336 -271 525 -70 373 -255 471 -255 135 0 -115 118 -553 263 -975 214 -627 351 -849 747 -1217 340 -315 637 -750 992 -1450 278 -550 659 -1270 846 -1600 321 -568 455 -1150 265 -1150 -121 0 -216 -661 -145 -1016 39 -194 106 -277 196 -243 75 29 136 9 136 -44 0 -53 40 -97 89 -97 118 0 30 1839 -104 2182 -58 147 -121 493 -141 768 -63 883 -540 1874 -1361 2828 -333 387 -363 561 -83 472 228 -73 267 70 64 239 -217 179 -883 1304 -843 1423 19 59 300 -290 623 -777 665 -1003 1048 -1452 1171 -1376 47 29 179 -107 295 -303 115 -196 250 -356 300 -356 127 0 116 54 -110 549 -227 499 -385 637 -506 442 -46 -74 -100 -114 -121 -88 -466 572 -597 820 -476 895 219 135 771 -216 1021 -648 203 -352 235 -373 263 -177 39 266 -180 608 -489 764 -122 62 -272 203 -332 313 -61 110 -125 222 -143 250 -18 27 -91 -30 -162 -127 -192 -262 -422 -116 -615 388 -212 555 -132 662 144 193 115 -195 256 -354 313 -354 149 0 129 84 -108 468 -242 392 -152 610 97 236 90 -136 264 -334 386 -440 121 -107 198 -231 170 -276 -27 -45 62 -110 200 -145 287 -72 555 -482 802 -1224 94 -285 246 -559 337 -610 139 -78 165 -290 169 -1383 3 -1081 34 -1336 188 -1572 150 -229 172 -390 119 -865 -37 -322 -129 -705 -206 -854 -95 -183 -110 -325 -45 -445 126 -237 119 -290 -42 -290 -135 0 -272 908 -255 1700 l7 350 123 -277 c68 -153 149 -252 180 -220 69 69 -39 572 -311 1445 -130 418 -167 683 -105 745 128 128 125 1028 -3 1107 -111 68 -125 -12 -107 -600 9 -324 -9 -367 -96 -225 -59 96 -161 176 -227 178 -66 2 -274 272 -462 600 -188 328 -398 597 -466 597 -71 0 87 -375 367 -875 270 -481 543 -1033 606 -1225 62 -192 153 -376 201 -407 141 -92 281 -683 177 -748 -108 -66 -120 -755 -29 -1630 l64 -615 778 0 c528 0 793 40 828 125 40 100 52 100 58 0 4 -69 77 -125 162 -125 124 0 132 39 42 208 -61 114 -171 185 -244 157 -87 -34 -147 56 -177 267 -24 175 -79 397 -120 493 -47 108 -33 175 35 175 62 0 256 -292 432 -650 l321 -650 793 0 792 0 -62 603 c-35 331 -132 734 -215 895 -83 160 -150 351 -148 422 2 72 158 -179 347 -557 189 -377 338 -760 331 -850 -38 -493 -11 -513 681 -513 516 0 641 28 564 125 -54 69 -126 440 -160 825 -33 385 -154 993 -269 1350 -187 582 -394 2468 -231 2100 37 -82 138 -209 225 -281 119 -98 127 -145 34 -184 -69 -28 -124 -194 -123 -368 2 -464 265 -1506 390 -1548 59 -19 108 -191 108 -382 0 -190 73 -636 162 -991 155 -616 176 -646 464 -646 l302 0 -71 1325 c-55 1023 -44 1298 48 1208 74 -73 119 -456 119 -1026 0 -501 39 -934 88 -964 48 -30 88 -165 88 -299 0 -140 58 -244 138 -244 106 0 141 229 155 1022 10 562 38 1042 62 1067 25 24 45 -436 45 -1022 l0 -1067 300 0 c229 0 300 45 300 192 0 105 -52 209 -115 230 -142 47 16 1028 166 1028 54 0 112 -326 128 -725 l30 -725 1085 0 c905 0 1095 27 1146 161 53 136 88 141 222 29 135 -112 180 -104 292 49 143 195 346 140 346 -95 0 -104 124 -144 447 -144 319 0 433 36 398 127 -27 69 161 338 416 597 455 462 462 477 302 720 -90 137 -163 341 -163 452 0 112 -40 204 -88 204 -148 0 -205 -405 -93 -652 85 -187 65 -289 -102 -524 -297 -417 -468 -537 -661 -462 -145 55 -123 112 155 400 429 442 297 554 -170 144 -230 -203 -401 -286 -460 -227 -123 123 329 621 564 621 94 0 154 53 132 119 -74 222 -241 187 -559 -116 -174 -167 -362 -303 -417 -303 -211 0 -88 296 224 542 215 169 270 256 163 257 -88 1 -277 -90 -419 -202 -182 -143 -335 -184 -518 -138 -352 88 -267 264 201 420 453 151 668 308 591 433 -31 49 -126 19 -212 -67 -86 -86 -222 -131 -303 -100 -80 30 -260 -35 -400 -145 -140 -110 -309 -200 -376 -200 -168 0 -140 923 34 1133 75 91 111 231 80 313 -86 223 106 285 351 113 192 -134 198 -160 50 -216 -92 -36 -167 -109 -167 -164 0 -55 70 -74 155 -41 87 34 251 -29 372 -142 120 -111 286 -189 370 -173 230 45 184 313 -73 426 -302 133 -381 422 -176 648 91 101 151 267 134 368 -27 158 46 189 493 215 562 33 600 81 389 500 -75 148 -143 473 -152 720 -26 684 -62 816 -264 964 -152 111 -157 136 -29 136 86 0 213 68 281 150 207 249 278 174 353 -373 40 -288 127 -569 194 -625 67 -56 181 -372 254 -702 147 -666 356 -1150 496 -1150 54 0 48 127 -12 301 -58 166 -80 367 -50 447 31 80 13 172 -39 205 -53 32 -96 191 -96 353 0 162 -45 294 -100 294 -55 0 -100 181 -100 403 0 266 -51 423 -150 461 -259 99 -176 408 124 465 363 69 448 4 301 -233 -99 -158 -88 -257 64 -539 303 -562 828 -1081 1032 -1019 128 38 272 -70 504 -377 179 -237 325 -482 325 -544 0 -63 140 -342 312 -621 365 -593 329 -723 -91 -328 -164 155 -484 435 -710 621 -226 187 -411 376 -411 421 0 44 -106 187 -235 316 -130 130 -258 300 -287 380 -82 234 -208 25 -142 -238 52 -205 932 -1164 1749 -1905 315 -286 628 -914 552 -1110 -106 -276 -356 31 -286 351 80 365 -325 696 -852 696 -532 0 -689 -217 -462 -640 151 -279 159 -389 57 -792 -119 -471 -294 -635 -294 -274 0 252 -195 371 -319 194 -74 -107 -108 -110 -147 -13 -72 176 -234 156 -234 -30 0 -85 70 -291 157 -458 142 -275 142 -324 -3 -545 -149 -227 -147 -242 32 -242 112 0 217 92 254 225 57 202 73 208 164 54 56 -95 167 -145 250 -114 82 32 215 2 297 -66 120 -99 149 -96 151 14 1 108 22 105 100 -13 80 -122 114 -125 183 -18 47 73 205 145 350 161 272 30 364 -86 140 -177 -69 -28 44 -54 250 -58 352 -8 375 11 375 292 0 165 45 300 100 300 55 0 100 -135 100 -300 0 -165 45 -300 100 -300 55 0 103 214 107 475 4 261 49 565 100 675 65 140 84 -2 63 -475 -32 -724 99 -893 309 -400 l117 275 -50 -275 c-27 -151 -5 -275 50 -275 142 0 238 454 169 799 -32 160 5 462 81 671 138 374 140 364 147 -545 7 -904 12 -925 244 -925 208 0 243 57 289 462 49 435 218 684 391 577 43 -26 107 -270 143 -543 36 -273 99 -496 140 -496 102 0 198 637 197 1300 l-1 550 -185 -241 c-124 -160 -242 -218 -355 -175 -156 60 -153 89 37 356 298 419 244 707 -73 390 -93 -93 -120 -80 -120 58 0 99 -56 160 -125 136 -74 -25 -119 -196 -110 -418 19 -492 -139 -324 -182 194 -28 335 3 416 189 498 122 53 275 224 339 378 134 324 286 312 463 -34 110 -217 123 -177 125 383 0 351 -43 625 -99 625 -55 0 -100 67 -100 150 0 83 45 150 100 150 55 0 100 158 100 350 0 302 -32 350 -239 350 -132 0 -265 67 -297 148 -63 164 212 352 411 280 90 -32 125 102 125 475 0 511 -5 519 -270 469 -148 -29 -383 -9 -522 44 -203 77 -223 113 -105 188 81 51 316 94 522 94 249 1 375 48 375 138 0 92 -184 155 -567 195 -449 46 -615 114 -797 325 -147 171 -288 246 -391 206 -89 -34 -258 6 -375 88 -207 145 -201 150 161 150 215 0 397 55 425 130 32 83 173 115 398 88 192 -22 404 3 472 55 68 52 237 62 374 21 241 -71 239 -74 -55 -84 -168 -6 -348 -51 -400 -102 -52 -50 -207 -106 -345 -125 -137 -18 -227 -78 -200 -133 28 -55 140 -86 250 -69 110 17 391 55 625 85 372 47 425 85 425 304 0 152 -125 367 -322 550 -272 254 -379 293 -700 250 -293 -40 -378 -17 -378 100 0 94 57 129 151 94 83 -32 274 -12 425 46 233 88 294 73 411 -103 228 -344 413 -257 413 193 0 293 -41 400 -153 400 -193 0 -315 296 -162 391 153 95 204 504 264 2134 l51 1375 -250 0 c-318 0 -318 132 0 382 198 156 250 287 250 630 0 420 -4 426 -156 210 -86 -123 -279 -287 -429 -364 -240 -124 -297 -121 -481 25 -350 279 -359 611 -31 1167 161 275 293 455 292 400 -1 -55 -66 -212 -145 -350 -167 -293 -184 -400 -62 -400 117 0 650 1095 571 1174 -33 34 -128 -25 -210 -131 -136 -177 -144 -156 -92 257 l57 450 -207 -236 c-114 -130 -207 -197 -207 -150 -1 47 -102 -29 -225 -169 -124 -140 -199 -207 -168 -150 68 124 293 895 293 1004 0 41 -67 19 -150 -49 -82 -68 -150 -175 -150 -237 -1 -62 -160 -422 -353 -800 -241 -468 -331 -754 -286 -899 60 -187 49 -197 -95 -77 -90 75 -139 176 -109 224 117 189 -78 298 -213 120 -128 -168 -138 -162 -141 87 -2 147 69 340 157 428 88 88 244 327 346 532 102 205 188 303 190 218 2 -84 -81 -321 -186 -525 -104 -205 -151 -396 -105 -424 98 -61 248 194 447 758 121 343 120 395 -6 395 -182 0 -182 40 4 399 82 159 110 314 61 344 -48 30 -188 -181 -312 -469 -244 -571 -593 -1113 -668 -1038 -26 25 28 161 119 300 101 155 140 336 100 464 -37 115 -23 264 30 330 53 66 128 266 166 445 102 475 -115 410 -246 -74 -59 -219 -218 -518 -353 -664 -136 -147 -247 -351 -247 -455 0 -246 -296 -696 -411 -625 -48 30 -17 192 70 359 86 168 132 406 101 529 -39 156 16 292 181 447 246 230 539 1061 417 1183 -90 90 -255 -173 -256 -410 -3 -247 -380 -765 -559 -765 -165 0 -177 93 -58 418 293 794 186 1081 -133 359 -258 -584 -272 -991 -37 -1052 131 -34 185 -141 184 -362 0 -242 -62 -341 -269 -438 -215 -99 -284 -99 -346 0 -43 69 -34 140 19 158 53 19 97 74 97 122 0 49 -68 63 -150 31 -190 -73 -189 -1 7 378 189 365 117 484 -147 245 -185 -167 -197 -160 -321 184 -132 366 -228 437 -342 253 -78 -127 229 -1048 469 -1404 165 -245 164 -286 -11 -850 -101 -325 -150 -660 -110 -742 71 -142 -102 -1459 -199 -1521 -25 -16 -136 -79 -246 -140 -134 -74 -204 -223 -212 -450 -6 -186 -91 -519 -189 -739 -222 -503 -343 -1319 -245 -1662 95 -335 -23 -557 -190 -355 -253 305 -108 2151 190 2420 152 138 164 202 65 364 -102 168 -81 229 143 415 503 418 618 2074 244 3511 -142 544 -190 668 -696 1776 -143 313 -260 605 -261 650 -1 105 -958 2012 -1090 2170 -55 66 -287 501 -515 966 -228 465 -523 988 -654 1163 -132 175 -240 355 -240 400 -1 45 -177 314 -392 598 -215 284 -442 610 -503 725 -62 115 -205 209 -318 209 -241 0 -289 92 848 -1604 376 -562 642 -1050 590 -1084 -220 -143 -338 -540 -274 -919 62 -365 240 -552 256 -268 3 69 52 32 107 -81 55 -113 254 -289 443 -391 200 -107 343 -261 343 -369 0 -101 41 -184 91 -184 49 0 66 -93 36 -206 -39 -151 3 -221 160 -262 221 -57 297 -232 102 -232 -120 0 -83 -343 91 -850 326 -947 436 -1368 374 -1430 -116 -115 -654 564 -654 826 0 133 -42 268 -92 299 -51 32 -123 195 -160 363 -43 195 -115 288 -198 256 -225 -87 -477 312 -527 834 -45 467 -64 496 -286 440 -176 -44 -237 -18 -237 101 0 162 -115 213 -227 101 -75 -75 131 -540 240 -540 44 0 130 -93 191 -208 103 -192 95 -198 -107 -90 -120 64 -315 336 -433 605 -117 268 -263 489 -324 491 -172 3 -417 324 -499 652 -85 340 -583 886 -756 828 -66 -22 23 -194 211 -408 357 -407 284 -490 -140 -157 -191 150 -302 181 -376 107 -127 -127 494 -549 695 -473 69 26 125 7 125 -42 0 -50 119 -231 264 -403 184 -219 232 -346 159 -419 -73 -73 -156 -25 -275 156 -94 144 -256 261 -360 261 -103 0 -278 90 -388 200 -110 110 -246 200 -302 200 -56 0 -153 112 -215 248 -95 208 -1231 1227 -1659 1488 -337 206 -824 -322 -824 -893 0 -230 -22 -249 -155 -139 -85 70 -130 190 -101 265 64 167 -213 281 -913 377 -492 67 -1124 -55 -1376 -266 -52 -44 -185 -80 -295 -80 -321 0 -49 198 556 404 l534 182 -400 10 c-322 8 -366 30 -225 112 246 143 229 328 -18 196 -235 -126 -307 -131 -307 -19 0 46 180 166 400 265 220 99 400 219 400 265 0 115 -32 110 -523 -83 -482 -190 -609 -323 -470 -491 66 -79 18 -167 -155 -281 -213 -139 -252 -142 -252 -18 0 80 46 174 102 209 115 71 36 249 -110 249 -53 0 -148 -114 -212 -253 -92 -202 -171 -245 -390 -210 -334 52 -897 371 -834 472 85 139 -78 391 -253 391 -97 0 -290 -90 -430 -200 -143 -112 -406 -200 -600 -200 -203 0 -496 -103 -713 -250 -422 -286 -460 -296 -460 -125 0 69 322 430 714 802 393 373 690 703 659 733 -91 91 -432 -132 -712 -465 -144 -171 -261 -281 -261 -246 0 156 257 522 539 770 169 148 274 302 234 342 -41 40 -193 -36 -339 -169 -236 -215 -257 -219 -189 -42 226 585 302 551 -1208 534 l-1387 -15 1050 -92z m-1881 -645 c-72 -29 -159 -26 -192 8 -33 33 26 56 131 52 117 -5 141 -28 61 -60z m2937 -142 c37 -60 9 -219 -63 -353 -140 -262 -57 -257 -1435 -82 -284 36 -440 94 -370 138 68 41 115 116 105 166 -9 50 -11 125 -5 166 19 121 1692 89 1768 -35z m2044 -940 c0 -82 -67 -150 -150 -150 -260 0 -176 197 125 292 14 4 25 -59 25 -142z m150 -436 c486 -153 1032 -404 1093 -503 32 -51 -224 -7 -568 97 -344 105 -769 191 -944 191 -176 1 -346 44 -379 97 -37 61 -155 60 -323 -4 -145 -55 -318 -79 -384 -54 -66 25 -245 -19 -397 -98 -153 -79 -300 -121 -327 -94 -28 27 187 160 477 294 548 254 1105 277 1752 74z m6318 -736 c541 -425 718 -639 951 -1154 158 -348 265 -669 238 -712 -98 -159 -717 27 -1094 328 -418 335 -1163 1357 -1163 1596 0 258 117 464 263 464 78 0 440 -235 805 -522z m-2506 151 c408 -43 504 -87 471 -217 -27 -107 87 -229 338 -362 338 -178 380 -244 390 -600 9 -338 -6 -371 -100 -210 -365 627 -1101 1164 -1790 1308 -158 33 -251 103 -215 162 35 57 138 74 229 39 91 -36 396 -90 677 -120z m-8843 3 c-72 -29 -159 -26 -192 8 -33 33 26 56 131 52 117 -5 141 -28 61 -60z m2668 -232 c95 0 227 54 293 120 136 136 160 -3 34 -201 -136 -215 -616 -42 -602 217 9 169 21 177 57 39 25 -96 123 -175 218 -175z m1313 253 c0 -27 -135 -118 -300 -203 -359 -185 -413 -458 -75 -377 175 42 200 27 110 -69 -136 -147 -535 -47 -535 133 0 68 169 222 375 341 410 238 425 244 425 175z m1150 -501 c-220 -189 -467 -345 -550 -345 -90 0 -36 85 137 213 158 118 338 272 400 343 62 71 181 130 263 132 83 1 -28 -151 -250 -343z m1905 139 c37 -60 18 -158 -43 -219 -81 -81 -166 -52 -315 109 l-205 219 248 0 c137 0 278 -49 315 -109z m-2918 -433 c-158 -138 -332 -252 -387 -252 -55 0 51 137 235 304 184 167 357 281 386 252 29 -28 -77 -165 -234 -304z m1663 242 c0 -55 -42 -100 -92 -100 -51 0 -233 -118 -405 -262 -171 -145 -340 -234 -376 -198 -79 78 573 650 748 656 69 2 125 -41 125 -96z m2970 -157 c468 -273 1030 -957 1030 -1251 0 -98 72 -250 161 -338 291 -292 -165 -967 -643 -952 -37 1 45 90 182 198 l250 196 -275 2 c-177 1 -275 56 -275 152 0 83 -90 240 -200 350 -110 110 -200 247 -200 304 0 58 -56 97 -125 89 -261 -34 -375 12 -375 151 0 231 -166 273 -608 154 -227 -61 -437 -86 -468 -55 -31 30 86 84 260 119 228 45 316 119 316 262 0 157 51 189 244 153 133 -26 301 -11 371 32 180 111 -364 308 -747 270 -389 -38 -457 172 -98 303 455 166 736 133 1200 -139z m7124 68 c74 -139 65 -221 -34 -303 -105 -87 -151 -76 -198 48 -158 409 36 621 232 255z m-9952 -320 c-253 -280 -516 -415 -586 -301 -55 89 506 505 684 508 50 1 6 -92 -98 -207z m-3824 -113 c-71 -71 -118 -77 -118 -15 0 134 118 252 185 185 28 -28 -2 -105 -67 -170z m4201 -36 c-120 -84 -219 -218 -219 -298 0 -79 -67 -144 -150 -144 -82 0 -150 41 -150 91 0 127 612 630 682 561 31 -31 -43 -126 -163 -210z m-2789 -204 c209 -198 366 -397 350 -443 -17 -46 -187 -189 -380 -317 -192 -129 -435 -413 -540 -632 -104 -218 -210 -338 -234 -267 -67 190 252 802 481 925 109 58 172 149 140 201 -117 189 -456 -120 -697 -635 -134 -286 -245 -466 -247 -400 -6 216 234 672 583 1108 188 235 310 460 270 500 -68 67 -288 -155 -615 -622 -206 -292 -278 -119 -130 312 72 210 138 416 147 457 9 41 23 98 30 125 42 170 520 -6 842 -312z m732 -19 c-140 -140 -162 -141 -162 -10 0 205 234 439 285 285 21 -63 -35 -186 -123 -275z m-1973 -244 c-157 -457 -161 -539 -35 -636 300 -228 92 -524 -242 -346 -214 115 -179 423 128 1132 244 563 355 451 149 -150z m4511 375 c-68 -82 -169 -150 -224 -150 -56 0 -45 66 24 150 68 83 169 150 224 150 56 0 45 -66 -24 -150z m-6400 -147 c0 -134 -48 -178 -150 -139 -160 61 -191 161 -83 269 126 126 233 67 233 -130z m986 -114 c-183 -116 -686 -112 -686 5 0 96 583 192 736 121 47 -22 24 -79 -50 -126z m3285 11 c-39 -148 -3 -200 138 -200 105 0 186 -34 179 -75 -29 -187 30 -213 276 -120 326 124 387 74 225 -185 -142 -228 -293 -199 -765 150 -272 202 -308 273 -221 436 135 253 235 249 168 -6z m-2923 -553 l-143 -497 59 450 c59 448 124 645 191 578 19 -19 -29 -258 -107 -531z m11152 347 c0 -52 -45 -94 -100 -94 -55 0 -100 70 -100 156 0 86 45 128 100 94 55 -34 100 -104 100 -156z m-12361 -152 c34 -87 61 -240 61 -339 0 -233 349 -455 839 -533 407 -65 816 -371 916 -686 32 -101 121 -184 197 -184 114 0 111 -64 -18 -372 -106 -255 -140 -561 -107 -975 50 -624 -79 -1637 -228 -1791 -126 -131 -223 529 -183 1254 27 502 -2 670 -141 809 -96 96 -175 271 -175 389 0 361 -411 1061 -811 1383 -327 263 -586 759 -588 1128 -1 139 177 77 238 -83z m12965 -148 c120 -168 200 -323 179 -344 -77 -78 -683 374 -683 510 0 243 278 152 504 -166z m-12104 117 c0 -122 -294 -226 -420 -149 -63 40 -51 95 34 149 178 113 386 112 386 0z m5193 -263 c153 48 207 22 207 -102 0 -108 53 -147 150 -110 83 32 150 13 150 -42 0 -150 -332 -249 -377 -112 -24 72 -258 118 -599 118 l-559 0 235 250 c216 230 248 237 410 91 109 -99 254 -134 383 -93z m-2477 -21 c-375 -261 -773 -659 -903 -902 -66 -124 -169 -225 -229 -225 -62 0 -38 96 55 225 90 124 206 324 258 445 52 122 265 311 474 421 456 241 672 263 345 36z m3934 73 c-34 -55 -146 -100 -250 -100 -104 0 -216 45 -250 100 -36 58 68 100 250 100 182 0 286 -42 250 -100z m-6600 -200 c34 -55 -34 -100 -150 -100 -116 0 -184 45 -150 100 34 55 101 100 150 100 49 0 116 -45 150 -100z m3450 -200 c216 -110 515 -200 665 -200 l272 0 -248 -275 c-428 -473 -486 -581 -581 -1085 -105 -560 -42 -1040 137 -1040 85 0 109 157 80 525 -28 360 5 586 106 721 136 182 154 156 268 -389 89 -430 92 -648 11 -825 -61 -133 -110 -433 -110 -668 0 -536 -343 -1421 -883 -2275 -229 -363 -417 -714 -417 -779 0 -65 -152 -400 -338 -744 -185 -344 -368 -780 -405 -970 -186 -947 -301 -1379 -461 -1726 -157 -340 -161 -433 -39 -898 107 -406 112 -601 22 -901 -283 -947 -405 861 -139 2079 202 928 741 2485 1256 3629 230 510 399 1005 377 1099 -27 114 -116 2 -263 -328 -509 -1148 -666 -1442 -768 -1446 -59 -2 -214 -230 -343 -506 -129 -277 -283 -486 -342 -467 -196 66 -43 592 438 1510 550 1050 666 1359 509 1359 -61 0 -137 -79 -170 -175 -149 -442 -660 -1425 -740 -1425 -102 0 35 398 279 812 195 331 95 512 -128 231 -84 -106 -21 78 141 409 323 663 426 1160 251 1219 -64 21 -143 -124 -182 -331 -38 -203 -143 -486 -232 -630 -89 -143 -170 -272 -178 -287 -9 -15 -87 -1 -172 32 -132 51 -113 125 121 477 397 599 613 1268 410 1268 -53 0 -150 -180 -216 -400 -123 -413 -359 -576 -251 -175 33 124 64 585 69 1025 5 521 37 730 90 600 96 -232 150 -130 248 461 33 199 149 442 258 541 109 98 198 233 198 299 0 222 675 836 929 846 43 2 255 -87 471 -197z m3754 7 c-36 -59 -114 -107 -172 -107 -66 0 -59 57 20 152 137 166 260 129 152 -45z m4925 -152 c324 -190 647 -415 717 -500 71 -85 166 -155 211 -155 222 0 1013 -654 1130 -934 127 -304 463 -675 463 -511 0 234 524 -460 640 -849 75 -251 270 -749 433 -1106 164 -357 330 -785 370 -950 40 -165 131 -368 201 -450 163 -189 304 -1042 158 -951 -56 34 -102 147 -102 251 0 104 -37 211 -83 240 -81 50 -931 1737 -1051 2085 -65 192 -220 230 -314 78 -67 -107 229 -790 543 -1253 257 -378 258 -571 5 -800 -167 -151 -244 -162 -452 -67 -139 63 -295 228 -348 366 -52 138 -168 251 -258 251 -108 0 -143 -54 -103 -158 34 -87 61 -193 61 -235 0 -178 624 -719 766 -665 83 32 212 58 288 58 76 0 225 93 331 207 l193 207 175 -458 c134 -352 159 -601 106 -1082 -38 -343 -74 -680 -80 -749 -28 -291 -176 -85 -323 450 -175 636 -446 1225 -563 1225 -161 0 -155 -266 14 -650 439 -993 793 -2143 793 -2577 0 -364 44 -489 200 -573 115 -62 200 -209 200 -348 0 -132 81 -299 179 -371 99 -72 277 -270 396 -440 164 -234 188 -338 101 -425 -88 -88 -74 -116 58 -116 110 0 243 -164 367 -452 107 -249 301 -553 431 -675 190 -179 228 -297 191 -598 -28 -232 -98 -375 -184 -375 -76 0 -139 45 -139 99 0 55 -139 223 -308 374 -246 219 -297 329 -252 551 64 323 -113 776 -304 776 -72 0 -211 123 -309 273 -97 151 -322 402 -499 559 -178 156 -315 359 -305 451 41 376 -326 1668 -735 2591 -103 233 -188 483 -188 555 0 72 -41 174 -92 226 -51 52 -189 386 -308 741 -119 355 -303 767 -408 915 -106 149 -192 305 -192 348 0 43 -236 550 -525 1127 -399 795 -693 1224 -1225 1780 -385 402 -835 910 -1000 1128 -165 218 -491 604 -725 856 -438 474 -538 687 -275 586 83 -31 150 -97 150 -145 0 -49 493 -578 1095 -1177 602 -599 1124 -1204 1159 -1344 84 -337 345 -443 348 -142 2 350 194 -10 201 -378 7 -320 695 -1666 884 -1729 64 -21 113 70 113 209 0 165 68 265 205 300 156 41 278 -45 511 -363 167 -229 327 -473 355 -542 56 -139 329 -173 329 -41 0 84 -782 1223 -904 1316 -36 28 -95 174 -132 325 -119 482 -675 1175 -944 1175 -138 0 -325 107 -438 250 -108 138 -275 250 -371 250 -96 0 -597 433 -1112 962 -846 868 -897 941 -527 752 225 -114 525 -356 666 -536 236 -301 275 -317 476 -192 202 125 250 104 610 -275 215 -226 446 -411 514 -411 153 0 626 -500 1063 -1125 183 -261 393 -475 466 -475 172 0 169 31 -52 422 -452 800 -615 999 -1273 1550 -1129 945 -1390 1123 -1750 1191 -460 88 -692 216 -692 382 0 125 131 226 320 247 38 4 334 -147 659 -337z m-2535 23 c86 -122 152 -291 148 -375 -7 -134 -15 -135 -63 -3 -30 83 -147 251 -259 375 -113 124 -155 225 -93 225 61 0 182 -100 267 -222z m3210 115 c108 -174 -15 -211 -152 -45 -79 95 -86 152 -20 152 58 0 136 -48 172 -107z m-14356 -145 c-70 -84 -153 -127 -184 -95 -32 32 8 100 89 151 212 134 239 117 95 -56z m10939 -439 l288 -426 -213 -288 c-116 -158 -212 -330 -212 -382 0 -52 -124 -201 -275 -331 -269 -230 -1012 -1167 -1340 -1691 -162 -259 -1005 -891 -1188 -891 -52 0 -386 -179 -744 -398 -358 -219 -797 -465 -977 -546 -179 -82 -472 -268 -651 -415 -309 -253 -325 -256 -325 -61 0 119 85 234 200 270 351 111 223 263 -161 191 -348 -65 -356 -60 -241 154 65 122 283 290 485 373 202 83 457 233 567 332 110 100 522 399 915 666 784 531 1589 1179 1830 1472 85 104 296 333 468 510 172 176 487 686 700 1133 213 446 432 798 487 783 55 -16 229 -221 387 -455z m-10912 -135 c-179 -178 -412 -436 -517 -574 -105 -137 -223 -218 -262 -179 -105 104 744 1079 938 1078 122 0 80 -86 -159 -325z m7359 -67 c-321 -260 -372 -163 -78 149 132 141 256 207 276 148 20 -59 -69 -193 -198 -297z m816 193 c0 -55 -45 -100 -100 -100 -55 0 -100 45 -100 100 0 55 45 100 100 100 55 0 100 -45 100 -100z m368 -281 c-93 -101 -168 -237 -168 -302 0 -64 -62 -117 -138 -117 -76 0 -194 -69 -264 -152 -70 -84 -146 -133 -170 -109 -25 24 126 273 335 552 244 327 413 473 475 411 63 -63 38 -163 -70 -283z m-7818 -35 c-110 -60 -409 -311 -665 -558 -256 -247 -523 -430 -594 -406 -273 91 912 1059 1309 1070 101 3 84 -32 -50 -106z m6114 -1204 c-67 -637 7 -725 256 -305 217 366 662 776 749 690 81 -82 -860 -1065 -1019 -1065 -101 0 -850 -1181 -850 -1340 0 -139 211 61 446 423 131 202 692 831 1247 1399 556 568 987 1069 960 1114 -28 45 72 105 223 133 150 29 300 10 332 -42 32 -51 129 -67 215 -34 86 34 184 16 218 -39 74 -120 -1761 -2022 -2200 -2282 -583 -344 -1094 -705 -1230 -868 -153 -185 -466 -218 -564 -60 -35 58 -21 159 33 225 126 157 222 617 234 1121 6 220 70 496 143 613 111 179 109 244 -9 400 -151 199 -197 754 -74 878 41 41 121 -116 178 -349 99 -405 366 -707 503 -570 36 36 -7 168 -95 294 -88 126 -159 365 -157 531 l3 303 259 -295 c235 -267 254 -348 199 -875z m-5714 920 c-34 -55 -115 -99 -181 -98 -71 0 -59 40 31 98 192 124 227 124 150 0z m6550 6 c0 -115 -419 -421 -485 -354 -60 59 287 448 400 448 47 0 85 -42 85 -94z m-7323 -576 c-258 -259 -501 -439 -540 -401 -90 90 231 449 613 685 454 280 441 230 -73 -284z m11534 -111 c62 -161 39 -326 -74 -550 -214 -421 -233 -437 -332 -277 -91 147 -405 80 -405 -87 0 -55 118 -178 263 -273 255 -167 269 -165 450 59 103 127 187 294 187 370 0 76 42 139 94 139 51 0 85 -117 75 -261 -26 -365 257 -537 508 -310 427 387 902 58 772 -535 -50 -225 -29 -294 87 -294 84 0 180 45 214 100 34 55 100 100 146 100 122 0 308 -586 207 -648 -47 -29 -184 -255 -303 -503 -144 -296 -282 -449 -406 -449 -108 0 -254 -127 -341 -295 -305 -590 -100 -553 501 89 254 272 560 508 679 525 228 33 270 326 125 881 -35 138 33 48 152 -200 118 -247 250 -520 292 -607 42 -86 34 -232 -18 -325 -105 -188 -683 -503 -1109 -606 -151 -36 -275 -132 -275 -214 0 -159 -119 -180 -474 -85 -184 49 -213 107 -160 323 36 145 96 287 134 314 124 89 318 515 261 573 -31 30 -124 -1 -207 -70 -83 -69 -224 -98 -312 -64 -108 42 -178 -4 -213 -139 -29 -110 -107 -200 -174 -200 -67 0 -183 -116 -259 -258 -76 -142 -221 -302 -323 -357 -175 -93 -177 -82 -37 183 82 155 252 369 378 475 156 131 189 206 102 235 -70 23 -207 -30 -305 -118 -261 -236 -368 -196 -364 136 2 177 83 354 203 441 219 161 169 302 -73 209 -194 -74 -522 -793 -430 -942 39 -62 16 -178 -51 -258 -77 -94 -83 -146 -14 -146 58 0 134 45 168 100 34 55 109 100 167 100 63 0 46 -93 -40 -225 -81 -124 -210 -337 -287 -475 -77 -137 -244 -379 -370 -539 -127 -159 -205 -355 -174 -436 31 -82 -76 -297 -245 -489 -166 -189 -301 -417 -301 -508 0 -177 -376 -628 -524 -628 -133 0 28 430 214 571 146 112 146 123 -3 126 -115 2 -159 85 -147 278 17 302 270 925 375 925 79 0 485 673 485 806 0 52 -67 94 -150 94 -82 0 -150 -63 -150 -139 0 -76 -89 -245 -197 -375 -158 -190 -197 -203 -200 -68 -2 92 224 407 502 700 l504 532 -66 -350 c-37 -193 -30 -315 14 -273 78 74 338 754 341 890 3 135 -657 -253 -1021 -599 -508 -483 -598 -327 -119 204 504 558 942 924 942 787 0 -196 158 -115 390 199 263 355 206 510 -89 243 -242 -219 -269 -91 -35 167 183 202 102 390 -88 200 -65 -65 -192 -118 -283 -118 -90 0 -247 -92 -348 -204 -101 -111 -242 -181 -312 -154 -70 27 -371 -225 -669 -559 -298 -334 -599 -589 -670 -565 -88 29 -45 122 134 288 317 295 770 897 770 1025 0 51 -85 70 -190 43 -167 -44 -179 -15 -103 249 47 164 175 395 285 513 656 704 1186 1175 1382 1226 180 47 212 108 163 303 -40 161 -1 309 117 440 171 188 187 189 374 21 107 -97 235 -280 283 -407z m-10365 -94 c55 -253 37 -325 -80 -325 -83 0 -291 -118 -463 -262 -171 -145 -340 -235 -374 -200 -80 80 365 560 494 533 171 -37 337 309 209 437 -84 84 -228 8 -564 -302 -248 -228 -478 -371 -511 -317 -75 120 305 511 757 779 369 219 419 186 532 -343z m11454 -671 c0 -30 -106 -54 -236 -54 -199 0 -229 40 -187 255 48 255 49 255 236 54 103 -110 187 -225 187 -255z m4860 173 c-33 -33 -56 26 -52 131 5 117 28 141 60 61 29 -72 26 -159 -8 -192z m-18335 -193 c-69 -28 -181 -28 -250 0 -69 28 -12 50 125 50 138 0 194 -22 125 -50z m1919 -76 c-209 -153 -304 -136 -198 35 36 59 139 107 229 107 137 0 131 -23 -31 -142z m456 -58 c0 -55 -48 -100 -106 -100 -58 0 -78 45 -44 100 34 55 82 100 106 100 24 0 44 -45 44 -100z m-1900 -456 c0 -24 -45 -44 -100 -44 -55 0 -100 48 -100 106 0 58 45 78 100 44 55 -34 100 -82 100 -106z m15600 -500 c0 -79 -45 -144 -100 -144 -183 0 -103 -218 99 -271 230 -60 171 -229 -80 -229 -272 1 -645 1041 -445 1241 92 92 526 -400 526 -597z m2200 406 c0 -137 -39 -250 -86 -250 -48 0 -65 113 -38 250 26 138 65 250 86 250 21 0 38 -112 38 -250z m-16274 -325 c-90 -879 -226 -1243 -168 -450 30 399 29 725 -1 725 -108 0 -357 -731 -357 -1048 0 -539 -122 -1252 -214 -1252 -127 0 -105 462 67 1451 180 1030 189 1049 491 1049 216 0 228 -31 182 -475z m21281 -462 c-169 -297 -375 -595 -458 -664 -128 -106 -149 -70 -149 251 0 302 26 353 134 263 107 -88 194 -3 418 409 156 286 302 467 324 400 22 -66 -99 -363 -269 -659z m-20905 -1027 c-117 -212 -191 -310 -164 -218 149 499 180 909 74 975 -73 45 -89 193 -44 414 l70 343 139 -564 c131 -531 127 -586 -75 -950z m16313 778 c39 -537 5 -814 -97 -814 -38 0 -68 293 -68 650 0 758 115 873 165 164z m1730 250 c-37 -147 -1 -294 98 -392 204 -204 198 -304 -29 -509 -192 -174 -515 -129 -512 73 1 143 222 772 330 939 126 197 177 147 113 -111z m1255 148 c0 -124 -257 -322 -327 -251 -97 96 38 339 188 339 76 0 139 -39 139 -88z m-3434 -437 c-28 -69 -50 -12 -50 125 0 138 22 194 50 125 28 -69 28 -181 0 -250z m-8669 -100 c-2 -69 -124 -213 -272 -321 l-269 -196 229 321 c247 347 317 391 312 196z m-8614 -675 c2 -92 -30 -73 -83 50 -47 110 -85 290 -83 400 2 161 19 151 83 -50 44 -137 81 -318 83 -400z m7570 103 c-282 -288 -446 -383 -597 -346 -231 58 -892 -502 -824 -697 39 -113 101 -113 1118 -3 524 57 635 37 875 -153 335 -266 340 -350 41 -745 -129 -170 -266 -436 -304 -591 -48 -195 -176 -326 -418 -427 -581 -243 -944 85 -944 852 0 281 -43 407 -139 407 -325 0 -358 -883 -49 -1317 280 -392 569 -492 1065 -366 783 199 1349 1161 1159 1969 -49 208 -35 239 62 148 69 -64 144 -312 169 -550 59 -582 -189 -1034 -808 -1475 -577 -412 -1086 -446 -1563 -106 -594 423 -705 991 -335 1715 129 253 119 283 -163 504 l-299 234 482 360 c265 198 622 391 793 428 172 38 370 138 441 224 108 130 415 303 580 326 25 3 -129 -173 -342 -391z m1847 100 c0 -159 -610 -803 -760 -803 -275 0 -133 292 285 585 503 353 475 340 475 218z m11900 -3 c0 -55 -48 -100 -106 -100 -58 0 -78 45 -44 100 34 55 82 100 106 100 24 0 44 -45 44 -100z m-19488 -227 c-98 -98 -110 -86 -56 56 38 99 94 154 125 124 30 -31 0 -112 -69 -180z m6088 -123 c-71 -85 -151 -132 -179 -105 -27 28 8 120 79 205 71 85 151 132 179 105 27 -28 -8 -120 -79 -205z m-7064 -368 c-138 -260 -184 -293 -214 -152 -44 205 292 778 351 600 22 -64 -40 -266 -137 -448z m19208 256 c36 -144 48 -279 27 -300 -79 -80 -388 353 -325 456 111 180 229 118 298 -156z m1506 -38 c-34 -55 -82 -100 -106 -100 -24 0 -44 45 -44 100 0 55 48 100 106 100 58 0 78 -45 44 -100z m-19349 -348 c-118 -192 -185 -397 -148 -457 37 -60 -145 -518 -404 -1018 -260 -500 -555 -1200 -657 -1555 -102 -355 -262 -764 -356 -907 -123 -189 -198 -635 -269 -1613 l-98 -1352 292 -697 c252 -601 337 -709 617 -790 317 -90 319 -96 103 -204 -122 -61 -247 -216 -278 -344 -53 -225 -61 -227 -212 -50 -398 467 -561 1062 -643 2356 -91 1440 66 2275 713 3794 314 734 653 1442 755 1573 181 235 246 512 120 512 -35 0 -124 -79 -197 -175 -73 -96 -134 -123 -136 -59 -2 63 156 306 351 539 195 233 399 508 454 610 54 102 124 185 154 185 30 0 -43 -157 -161 -348z m9866 -19 c-28 -28 -130 -35 -227 -17 -164 32 -162 47 17 227 180 179 195 181 227 17 18 -97 11 -199 -17 -227z m7468 120 c31 -81 10 -175 -46 -210 -57 -35 -79 -125 -50 -202 56 -145 -268 -379 -376 -271 -109 110 -69 377 93 608 181 258 300 282 379 75z m2522 -461 c-86 -291 -157 -616 -157 -723 0 -240 -424 -947 -475 -793 -21 61 27 237 106 392 78 155 199 530 269 832 69 303 169 633 221 734 175 337 194 92 36 -442z m-15057 420 c0 -49 -90 -112 -200 -141 -217 -57 -280 80 -75 163 197 79 275 73 275 -22z m16150 -12 c-34 -55 -104 -100 -156 -100 -52 0 -94 45 -94 100 0 55 70 100 156 100 86 0 128 -45 94 -100z m-8916 -245 c37 -97 8 -126 -89 -89 -158 60 -199 234 -56 234 49 0 115 -65 145 -145z m-2585 -156 c-99 -110 -203 -179 -229 -152 -67 67 182 353 308 353 57 0 21 -90 -79 -201z m3144 -243 c-4 -58 -43 -196 -87 -306 -60 -151 -89 -84 -119 278 -33 404 -19 451 87 306 69 -95 123 -220 119 -278z m7698 -118 c-64 -268 -185 -713 -270 -988 -85 -275 -181 -702 -213 -950 -32 -251 -102 -428 -158 -400 -157 79 -84 737 136 1218 109 242 229 572 266 735 115 517 266 962 311 917 24 -24 -9 -263 -72 -532z m-22193 187 c-1 -41 -90 -187 -196 -325 l-194 -250 62 250 c68 272 334 536 328 325z m21004 -365 c-47 -211 -140 -435 -205 -497 -130 -123 -83 127 123 665 146 381 187 297 82 -168z m-21802 252 c0 -120 -387 -214 -451 -110 -28 45 28 104 125 129 289 75 326 73 326 -19z m11459 -75 c-34 -89 -10 -225 54 -302 133 -160 92 -225 -174 -280 -104 -21 -263 -67 -354 -103 -299 -119 -293 129 9 344 182 129 275 268 241 358 -36 93 6 146 115 146 117 0 152 -51 109 -163z m1141 -146 c0 -47 -63 -61 -139 -31 -89 34 -176 -49 -239 -228 -80 -228 -112 -250 -168 -115 -40 96 3 277 101 427 134 204 200 235 308 146 75 -63 137 -153 137 -199z m-7424 -142 c-235 -364 -499 -423 -557 -123 -24 125 12 156 130 111 104 -40 218 14 313 150 252 360 355 236 114 -138z m7924 201 c-68 -82 -140 -150 -159 -150 -19 0 -9 68 23 150 31 82 103 150 159 150 58 0 49 -64 -23 -150z m10302 -495 c-164 -431 -232 -233 -89 260 88 307 136 374 161 228 19 -113 -13 -333 -72 -488z m-22048 -130 c-201 -371 -480 -778 -620 -905 -141 -126 -339 -396 -441 -600 -102 -203 -187 -312 -189 -240 -2 71 208 530 467 1019 347 654 504 864 592 790 86 -71 140 -34 191 131 72 236 234 480 317 480 26 0 -117 -304 -317 -675z m4377 434 c-155 -133 -299 -224 -322 -201 -72 71 316 442 462 442 81 0 22 -101 -140 -241z m9777 -309 c-56 -443 -76 -477 -178 -295 -91 160 -82 274 41 527 86 178 166 311 178 296 12 -15 -6 -253 -41 -528z m-1908 300 c0 -83 89 -150 200 -150 110 0 200 -63 200 -139 0 -171 -332 -314 -382 -165 -20 59 -99 171 -177 249 -184 184 -180 355 9 355 82 0 150 -68 150 -150z m-7718 -439 c-377 -339 -761 -472 -916 -317 -74 74 -47 148 89 249 169 125 199 125 227 0 46 -202 86 -186 500 205 202 191 382 306 400 255 17 -52 -118 -228 -300 -392z m14024 100 c-62 -116 -156 -211 -210 -211 -136 0 -119 337 24 480 180 180 319 -20 186 -269z m794 289 c0 -55 70 -100 155 -100 123 0 141 -74 86 -375 -90 -500 -141 -537 -141 -102 0 232 -55 377 -158 416 -229 88 -226 91 -270 -264 -35 -282 -42 -268 -56 100 -14 364 13 425 184 425 110 0 200 -45 200 -100z m3189 -289 c-62 -177 -135 -298 -164 -269 -29 28 5 189 75 358 70 169 144 290 164 269 20 -20 -14 -181 -75 -358z m-22039 89 c-34 -55 -82 -100 -106 -100 -24 0 -44 45 -44 100 0 55 48 100 106 100 58 0 78 -45 44 -100z m11001 -362 c-232 -355 -297 -235 -79 146 98 171 193 266 212 211 19 -56 -41 -216 -133 -357z m-10301 137 c-144 -510 -282 -775 -403 -775 -90 0 -56 150 112 500 252 522 400 662 291 275z m12762 -436 c172 -155 213 -160 293 -35 50 80 96 281 100 446 8 289 12 292 117 74 80 -165 78 -294 -6 -480 -165 -361 -144 -466 79 -396 161 52 206 1 263 -303 37 -202 99 -314 138 -251 68 110 313 -362 459 -882 109 -388 132 -2008 30 -2071 -52 -32 -171 -29 -265 7 -160 62 -160 74 -1 191 128 94 161 243 137 611 -34 506 -221 750 -575 750 -243 0 -230 -267 19 -400 114 -61 200 -209 200 -346 0 -185 -69 -253 -310 -306 -175 -39 -354 -24 -412 34 -56 56 -164 79 -240 49 -95 -36 -138 27 -138 202 0 412 -174 771 -343 706 -204 -78 -309 -445 -155 -540 71 -44 90 -131 44 -205 -57 -92 -30 -109 94 -62 136 52 166 19 141 -158 -25 -178 36 -244 295 -320 346 -102 373 -221 88 -397 -142 -88 -233 -40 -509 268 -184 206 -390 375 -456 375 -66 0 -94 68 -63 151 82 214 -103 649 -276 649 -103 0 -134 87 -108 297 21 164 0 321 -45 349 -119 73 -607 -332 -607 -503 0 -189 191 -184 264 7 31 83 105 150 162 150 58 0 30 -83 -62 -185 -147 -162 -151 -218 -29 -452 121 -233 154 -247 266 -112 70 85 150 131 178 104 27 -28 -6 -117 -73 -198 -157 -189 -39 -591 153 -517 82 31 141 -8 141 -93 0 -142 113 -188 375 -154 69 8 125 -26 125 -77 0 -51 185 -370 411 -709 393 -588 404 -625 240 -806 -161 -178 -182 -179 -348 -20 -175 168 -298 543 -334 1018 -25 325 -320 380 -475 89 -114 -213 -127 -215 -252 -43 -76 103 -198 155 -287 121 -198 -76 -202 -266 -5 -266 82 0 150 -63 150 -139 0 -170 270 -290 353 -157 119 194 224 85 350 -363 70 -253 189 -482 263 -511 73 -28 134 -83 134 -122 0 -128 -821 -536 -886 -441 -35 50 -215 163 -399 250 -197 93 -290 187 -225 227 206 127 111 260 -140 197 -189 -47 -250 -23 -250 98 0 206 -160 209 -239 4 -79 -207 106 -543 299 -543 184 0 101 -385 -120 -561 -77 -61 -140 -185 -140 -275 0 -91 -80 -164 -179 -164 -247 0 -259 367 -14 431 106 28 193 99 193 160 0 159 -321 133 -578 -47 -182 -128 -222 -130 -222 -16 0 77 124 198 275 268 229 107 246 139 104 191 -94 35 -173 97 -175 138 -5 101 -12 102 -354 18 -165 -41 -333 -123 -373 -183 -45 -67 -75 -37 -75 74 -1 101 99 266 223 366 310 251 163 351 -223 151 -251 -130 -347 -138 -463 -42 -126 104 -116 153 75 356 280 298 185 404 -160 178 -194 -126 -294 -143 -375 -62 -81 81 -46 165 130 312 133 110 275 202 316 204 136 6 78 203 -60 203 -172 0 -565 -338 -565 -487 0 -130 -193 -146 -375 -30 -91 57 -28 166 225 390 192 170 350 367 350 437 0 70 -126 6 -280 -141 -279 -268 -520 -350 -520 -179 0 49 214 272 475 496 324 278 419 408 300 411 -96 1 -345 -151 -554 -340 -346 -313 -921 -571 -921 -413 0 35 247 321 549 635 303 314 550 605 550 646 2 188 -256 35 -721 -428 -278 -276 -526 -482 -551 -457 -111 111 114 458 626 963 424 419 574 515 639 409 114 -183 240 -93 723 519 224 283 533 591 688 686 276 167 285 166 447 -82 91 -139 151 -261 133 -271 -632 -353 -883 -457 -883 -364 0 61 -46 83 -103 48 -56 -35 -90 -135 -75 -224 18 -100 -66 -185 -222 -224 -159 -41 -244 -129 -234 -242 8 -98 -127 -305 -300 -460 -379 -338 -299 -502 101 -208 183 134 362 186 508 147 258 -69 295 -217 75 -301 -247 -95 -181 -325 75 -261 223 56 224 55 34 -160 -216 -245 -146 -411 91 -215 85 71 187 96 227 56 40 -40 -6 -130 -102 -200 -96 -71 -175 -157 -175 -192 0 -122 276 -63 399 85 68 82 167 122 221 89 62 -38 57 -101 -11 -169 -165 -165 -132 -252 107 -287 127 -19 283 -167 375 -355 158 -321 343 -414 457 -230 72 117 -173 616 -391 798 -87 71 -157 211 -157 311 0 99 -92 210 -204 245 -140 45 -186 121 -147 245 39 124 -6 195 -146 232 -120 32 -203 136 -203 257 0 112 -101 275 -225 362 l-225 157 350 325 c381 353 865 605 1001 521 163 -101 218 164 95 460 -109 264 -99 324 90 525 118 126 214 346 214 491 0 352 178 445 257 132 34 -137 121 -298 192 -358 72 -59 107 -196 79 -304 -63 -240 45 -251 289 -31 174 157 183 150 183 -144 0 -180 97 -423 231 -579 201 -233 261 -253 450 -152 136 72 219 212 219 367 0 285 -276 442 -409 233 -66 -106 -88 -87 -89 79 -1 121 43 247 98 281 151 93 120 250 -50 250 -191 0 -192 206 -3 456 140 186 147 182 150 -81 2 -161 58 -275 136 -275 212 0 264 107 145 298 -87 139 -59 258 131 564 237 382 241 384 272 123 16 -145 120 -346 231 -446z m-730 311 c-63 -137 -155 -250 -204 -250 -89 0 -35 136 150 375 154 199 177 146 54 -125z m-8729 -723 c-269 -231 -553 -301 -553 -135 0 50 169 280 375 511 l375 419 34 -284 c25 -208 -36 -343 -231 -511z m5847 523 c0 -137 -38 -250 -84 -250 -131 0 -316 -478 -316 -818 0 -238 -114 -421 -494 -795 -272 -268 -579 -487 -682 -487 -189 0 -346 -119 -1092 -829 -296 -282 -469 -378 -594 -330 -153 58 -137 93 118 252 408 255 1720 1570 1887 1892 75 146 322 431 548 634 244 219 436 493 473 675 73 368 236 407 236 56z m1600 100 c0 -82 -45 -150 -100 -150 -55 0 -100 68 -100 150 0 83 45 150 100 150 55 0 100 -67 100 -150z m-2134 -199 c-64 -137 -195 -250 -291 -250 -96 -1 -175 -73 -175 -160 0 -88 -90 -274 -200 -414 -243 -309 -272 -80 -35 276 224 334 656 797 744 797 40 0 20 -112 -43 -249z m-9754 -118 c-118 -203 -146 -138 -50 113 35 90 84 142 110 116 25 -26 -1 -129 -60 -229z m21695 -302 c-58 -210 -106 -541 -106 -736 -1 -195 -55 -409 -122 -476 -95 -95 -83 -186 56 -420 200 -340 163 -368 -189 -137 -278 182 -311 400 -106 693 77 110 173 469 212 798 40 328 122 658 182 733 161 201 196 -13 73 -455z m-9262 244 c-146 -476 -239 -534 -242 -150 -2 275 39 375 154 375 116 0 139 -58 88 -225z m5355 131 c0 -52 -45 -122 -100 -156 -66 -41 -62 -134 11 -271 96 -179 88 -200 -58 -144 -93 36 -211 65 -261 65 -133 0 -113 339 28 480 143 143 380 159 380 26z m-14954 -481 c-79 -261 -144 -486 -145 -500 -1 -14 -49 -25 -108 -25 -108 0 -72 208 126 725 178 465 280 304 127 -200z m8196 100 c-90 -507 -264 -683 -213 -216 39 351 133 591 231 591 27 0 19 -169 -18 -375z m8818 102 c-33 -33 -56 26 -52 131 5 117 28 141 60 61 29 -72 26 -159 -8 -192z m-9360 -19 c0 -205 -130 -408 -261 -408 -166 0 -172 51 -35 307 106 199 296 264 296 101z m8208 -218 c-88 -221 -96 -223 -102 -32 -3 115 24 239 61 275 119 120 139 1 41 -243z m-19051 -361 c-316 -341 -327 -260 -33 239 161 274 233 332 257 209 18 -94 -83 -296 -224 -448z m20698 -83 c-37 -243 -115 -472 -175 -509 -74 -45 -88 26 -44 223 36 160 95 447 132 639 92 488 167 185 87 -353z m-17902 379 c-37 -96 -116 -422 -175 -725 -58 -302 -151 -595 -206 -650 -66 -66 -78 -16 -37 150 34 138 114 509 177 825 63 316 158 575 212 575 53 0 67 -79 29 -175z m19736 -519 c10 -689 -175 -1132 -204 -487 -28 648 44 1181 160 1181 18 0 38 -312 44 -694z m-17079 332 c116 -139 108 -156 -55 -125 -104 21 -207 93 -230 162 -59 178 126 155 285 -37z m14052 -204 c-178 -329 -208 -267 -59 123 56 149 127 246 158 216 30 -31 -15 -183 -99 -339z m-11462 159 c0 -200 -207 -493 -348 -493 -261 0 -283 225 -41 411 273 211 389 235 389 82z m-4850 -657 c-246 -376 -297 -211 -85 273 153 349 191 384 218 201 18 -122 -42 -335 -133 -474z m1488 419 c-88 -229 -338 -273 -338 -60 0 184 180 318 321 238 38 -22 46 -102 17 -178z m13849 -116 c-94 -230 -127 -253 -161 -109 -23 99 13 246 80 327 179 216 217 113 81 -218z m341 57 c-29 -112 -76 -182 -103 -154 -54 54 41 358 112 358 25 0 20 -92 -9 -204z m-15216 -123 c-98 -98 -110 -86 -56 56 38 99 94 154 125 124 30 -31 0 -112 -69 -180z m14469 -346 c-22 -115 -139 -176 -357 -187 -439 -22 -438 274 1 533 313 184 326 184 357 8 18 -101 17 -260 -1 -354z m-12098 182 c18 -124 -45 -312 -141 -418 -96 -106 -146 -221 -111 -255 112 -112 569 263 569 466 0 109 50 198 111 198 61 0 83 -71 50 -158 -34 -87 -61 -290 -61 -450 0 -161 -48 -292 -106 -292 -58 0 -312 -157 -564 -350 -454 -347 -764 -437 -876 -256 -32 51 86 107 261 125 353 34 527 281 199 281 -284 0 -357 170 -126 294 205 109 667 785 590 862 -57 56 -673 -238 -893 -427 -112 -96 -187 -107 -231 -35 -47 75 -125 75 -269 -2 -339 -181 -331 -16 14 307 273 255 381 295 656 244 181 -34 411 -14 512 44 249 145 377 90 416 -178z m3117 251 c0 -22 -380 -430 -845 -908 -526 -540 -909 -856 -1013 -835 -213 42 1423 1771 1683 1778 96 3 175 -13 175 -35z m-1936 -335 l221 -275 -310 -324 c-171 -177 -283 -351 -249 -385 66 -66 477 308 632 574 51 87 205 192 342 233 204 61 172 7 -175 -294 -234 -203 -425 -427 -425 -498 0 -70 -190 -168 -423 -217 -494 -104 -554 -265 -127 -340 177 -31 253 -83 185 -126 -63 -40 -254 -44 -425 -10 -426 85 -432 447 -10 606 224 85 300 177 300 366 0 166 70 274 206 317 239 76 203 312 -41 269 -162 -29 -229 182 -98 312 109 110 165 80 397 -208z m-3364 -295 c0 -274 -29 -341 -113 -257 -63 63 -84 224 -48 370 92 366 161 318 161 -113z m14856 -200 c-100 -261 -172 -76 -90 233 55 212 85 239 113 106 21 -99 11 -252 -23 -339z m1296 263 c41 -129 121 -186 213 -151 80 31 379 -101 664 -293 285 -192 446 -349 359 -349 -88 0 -330 115 -537 256 -207 140 -437 232 -511 204 -124 -48 -440 284 -440 462 0 165 190 68 252 -129z m-16487 -294 c17 -447 -80 -515 -238 -168 -68 149 -72 292 -11 400 151 272 233 196 249 -232z m16275 -228 l310 -279 -350 168 c-400 192 -498 308 -495 590 1 200 1 200 113 0 62 -110 252 -326 422 -479z m-14524 354 c-74 -26 -264 -252 -423 -502 -217 -343 -303 -414 -349 -293 -34 88 6 258 90 377 170 244 689 593 766 516 28 -28 -11 -72 -84 -98z m-6556 -398 c-33 -33 -56 26 -52 131 5 117 28 141 60 61 29 -72 26 -159 -8 -192z m4025 -530 c-13 -520 -57 -790 -127 -767 -60 20 -124 145 -143 278 -36 246 162 1292 245 1292 25 0 36 -361 25 -803z m1715 665 c0 -21 -79 -99 -175 -175 -159 -124 -162 -121 -38 38 131 167 213 220 213 137z m-4979 -687 c-51 -751 -221 -1022 -221 -352 0 408 133 977 229 977 19 0 15 -281 -8 -625z m4274 189 c-97 -88 -110 -73 -60 69 36 101 70 236 77 300 6 64 33 33 59 -69 26 -102 -8 -237 -76 -300z m18639 291 c37 -97 8 -126 -89 -89 -158 60 -199 234 -56 234 49 0 115 -65 145 -145z m-23816 -839 c-198 -1070 -233 -1590 -131 -1977 56 -214 125 -729 153 -1143 28 -415 76 -843 107 -950 31 -108 -11 -53 -93 122 -209 447 -363 1324 -423 2415 -43 791 -16 1042 178 1644 257 801 367 743 209 -111z m20482 337 c138 -187 440 -462 673 -610 425 -271 504 -541 96 -331 -259 134 -769 660 -769 794 0 52 -90 94 -200 94 -133 0 -200 67 -200 200 0 286 114 244 400 -147z m2900 247 c133 -86 133 -96 0 -91 -82 3 -240 44 -350 91 -200 86 -200 86 0 91 110 3 268 -38 350 -91z m-17800 -250 c0 -137 -45 -250 -100 -250 -55 0 -100 113 -100 250 0 138 45 250 100 250 55 0 100 -112 100 -250z m-300 -786 c0 -307 -1 -307 -154 -88 -166 236 -447 867 -444 996 0 43 135 -74 300 -261 193 -219 298 -446 298 -647z m-4796 361 c-42 -416 -52 -434 -83 -140 -31 296 21 615 102 615 15 0 7 -214 -19 -475z m1408 -84 c-15 -248 20 -509 79 -580 58 -70 213 -484 343 -919 130 -436 271 -871 312 -967 42 -96 34 -175 -17 -175 -116 0 -429 647 -429 887 0 99 -32 212 -72 251 -136 137 -319 1015 -324 1554 -2 298 27 510 66 471 38 -38 57 -273 42 -522z m20874 470 c85 -54 97 -109 34 -149 -126 -77 -420 27 -420 149 0 112 208 113 386 0z m-3247 -169 c88 -229 75 -342 -39 -342 -55 0 -100 71 -100 157 0 111 -58 138 -200 93 -110 -35 -200 -23 -200 27 0 257 445 311 539 65z m1806 42 c268 -122 343 -286 130 -282 -164 3 -661 393 -505 396 66 1 235 -50 375 -114z m-15712 -725 c33 -216 22 -351 -24 -300 -45 50 -110 267 -142 482 -33 216 -22 351 24 300 45 -50 110 -267 142 -482z m14667 435 c0 -58 -45 -78 -100 -44 -55 34 -100 82 -100 106 0 24 45 44 100 44 55 0 100 -48 100 -106z m-14242 -443 c29 -155 20 -354 -19 -441 -53 -121 -88 -87 -143 140 -40 165 -78 410 -84 545 -16 328 177 137 246 -244z m16062 289 c207 -108 446 -143 720 -106 226 31 343 29 260 -4 -82 -33 -180 -105 -216 -161 -112 -173 -1126 49 -1165 256 -41 216 9 217 401 15z m-1652 -534 c338 -377 849 -655 973 -531 125 124 55 345 -91 289 -154 -59 -903 516 -802 617 30 30 184 -70 343 -222 221 -212 366 -268 622 -243 400 41 545 -251 172 -349 -220 -57 -220 -62 -37 -265 135 -148 157 -237 79 -315 -78 -78 -140 -49 -221 102 -66 124 -211 211 -351 211 -145 0 -343 126 -509 325 -150 179 -356 357 -459 397 -103 39 -187 141 -187 225 0 232 82 190 468 -241z m-3807 -364 c-30 -78 -121 -142 -203 -142 -81 0 -192 -78 -246 -174 -53 -96 -126 -146 -161 -110 -89 89 145 918 284 1005 140 87 402 -379 326 -579z m-15761 -679 c0 -292 67 -752 149 -1022 185 -611 188 -741 13 -741 -253 0 -412 326 -433 890 -12 308 -49 898 -84 1310 l-62 750 209 -327 c144 -227 208 -492 208 -860z m16693 741 c-613 -528 -693 -635 -693 -927 0 -159 34 -268 76 -242 42 26 166 -18 275 -98 159 -116 199 -264 201 -729 1 -320 57 -649 124 -729 67 -81 93 -177 56 -213 -115 -116 -207 -71 -258 124 -39 146 -135 188 -414 181 -331 -10 -374 -45 -477 -388 -88 -294 -84 -411 16 -532 71 -86 100 -186 63 -222 -37 -37 -137 34 -224 158 -123 175 -236 217 -523 193 -335 -28 -368 -58 -398 -372 -22 -237 18 -370 131 -433 128 -72 138 -122 45 -233 -157 -190 -293 -180 -293 22 0 374 -755 603 -860 261 -217 -699 -596 -1136 -521 -600 24 178 -16 223 -194 217 -154 -5 -225 50 -225 175 0 101 -52 183 -117 183 -64 0 -90 26 -58 58 32 32 159 4 284 -63 190 -101 246 -92 359 62 150 206 86 534 -138 711 -113 90 -215 91 -415 5 -365 -156 -360 -148 -205 -335 125 -150 114 -159 -111 -89 -498 156 -539 553 -74 717 949 334 1265 482 1914 897 764 488 1612 1302 1863 1787 89 171 229 294 327 286 94 -8 171 40 171 105 0 181 217 359 438 359 165 0 140 -50 -145 -296z m2763 -282 c-84 -83 -256 93 -253 259 3 148 21 145 149 -24 80 -106 127 -211 104 -235z m2469 -146 c295 -5 370 -146 126 -239 -219 -85 -878 95 -931 254 -36 106 20 120 242 63 158 -40 412 -76 563 -78z m-20755 -621 c205 -440 390 -755 518 -883 219 -219 107 -265 -213 -89 -240 132 -364 302 -475 647 -82 258 -206 469 -275 469 -69 1 -125 42 -125 93 0 50 -29 168 -65 262 -120 311 474 -156 635 -499z m1927 109 c-2 -63 -92 -8 -200 122 -108 130 -196 287 -194 350 2 63 92 8 200 -122 108 -130 196 -287 194 -350z m16203 212 c0 -56 -66 -45 -150 24 -82 68 -150 169 -150 224 0 56 66 45 150 -24 83 -68 150 -169 150 -224z m-19789 -964 c-22 -254 -51 -417 -64 -362 -195 795 -261 1267 -200 1417 118 285 312 -492 264 -1055z m6814 540 c97 -174 17 -1022 -117 -1239 -47 -77 -104 91 -143 421 -36 302 -92 620 -126 707 -88 231 -272 195 -210 -41 29 -110 17 -178 -26 -152 -44 27 -101 151 -128 276 -27 124 -82 305 -123 401 -68 162 -42 161 353 -16 235 -105 469 -266 520 -357z m-3302 -135 c42 -19 77 -97 77 -175 0 -78 150 -310 333 -517 655 -738 1375 -2145 1365 -2666 -4 -172 -381 364 -451 640 -35 137 -97 272 -138 300 -42 28 -246 366 -453 751 -208 385 -531 860 -719 1056 -188 196 -314 383 -282 416 33 33 -11 196 -98 364 -221 429 -195 490 66 152 123 -158 258 -303 300 -321z m19477 453 c0 -184 -209 -370 -415 -370 -371 0 -1200 225 -1120 303 47 46 300 33 564 -28 411 -95 502 -87 646 57 201 201 325 216 325 38z m-2067 -232 c587 -280 922 -1526 518 -1930 -222 -222 -410 -5 -252 290 141 264 78 355 -155 225 -210 -118 -544 175 -544 477 0 256 -168 260 -248 6 -36 -113 30 -375 157 -624 177 -346 186 -403 49 -288 -291 241 -458 675 -458 1189 0 398 43 523 225 650 286 199 301 199 708 5z m1242 -463 c-23 -69 -124 -125 -225 -125 -101 0 -202 56 -225 125 -26 79 56 125 225 125 169 0 251 -46 225 -125z m1325 -81 c0 -138 -902 -232 -1028 -106 -83 83 -31 112 202 112 173 0 339 41 370 91 66 106 456 24 456 -97z m-982 -565 c115 -101 267 -126 475 -80 332 72 404 -44 154 -251 -135 -113 -136 -145 -2 -293 135 -148 134 -190 -3 -386 -207 -295 -342 -276 -342 50 0 312 -353 731 -617 731 -101 0 -183 41 -183 92 0 50 -29 168 -65 261 -54 141 -25 158 175 97 132 -41 316 -140 408 -221z m-8762 -182 c-191 -144 -456 -199 -456 -94 0 61 399 233 550 237 55 2 13 -62 -94 -143z m-2101 -315 c-36 -142 0 -327 89 -454 110 -156 121 -250 42 -345 -101 -122 3 -1963 180 -3183 32 -220 29 -373 -7 -339 -130 123 -349 1772 -397 2989 -27 688 -80 1352 -118 1476 -56 186 -37 215 101 162 122 -47 153 -134 110 -306z m-2555 38 c0 -126 -49 -279 -110 -340 -119 -119 -79 -816 98 -1725 58 -299 91 -559 72 -578 -18 -18 -135 240 -260 573 -175 467 -213 724 -167 1113 49 418 35 496 -87 449 -212 -81 -180 168 61 475 255 324 393 336 393 33z m-8476 -494 c105 -316 201 -435 373 -460 l231 -34 -214 273 c-264 336 -268 416 -21 397 106 -7 404 -208 661 -445 311 -287 493 -393 540 -316 107 172 362 35 656 -350 143 -187 320 -341 393 -341 120 0 219 -183 399 -738 35 -106 2 -236 -77 -300 -107 -87 -122 -267 -64 -812 41 -385 106 -790 143 -900 40 -117 6 -93 -82 58 -83 142 -180 614 -216 1050 -80 972 -202 1481 -392 1639 -268 222 -352 10 -139 -351 201 -339 195 -646 -12 -646 -57 0 -103 79 -103 175 -1 286 -369 804 -691 970 -378 196 -446 195 -369 -6 48 -124 21 -145 -114 -90 -97 39 -299 116 -448 170 -203 73 -363 286 -625 832 -409 850 -418 891 -162 754 105 -57 255 -294 333 -529z m21776 124 c123 -229 30 -254 -225 -61 -213 162 -224 261 -29 261 81 0 195 -90 254 -200z m-22055 -525 c151 -261 229 -475 174 -475 -126 0 -519 659 -519 872 0 197 5 191 345 -397z m20814 125 c79 0 304 -252 501 -559 l358 -559 -209 -223 c-115 -122 -209 -298 -209 -390 0 -231 -170 -213 -300 31 -85 160 -76 200 46 200 85 0 154 38 154 85 0 86 -363 798 -602 1181 -80 128 -98 280 -48 396 75 173 84 174 123 13 23 -96 106 -175 186 -175z m1332 -519 c167 -477 33 -1019 -341 -1381 -430 -417 -509 -259 -141 280 160 235 291 477 291 538 0 61 -160 352 -356 647 -195 295 -327 581 -293 636 97 157 721 -376 840 -720z m1148 413 c65 -405 23 -594 -132 -594 -114 0 -208 526 -140 785 88 334 201 255 272 -191z m-16839 -144 c0 -137 -45 -250 -100 -250 -112 0 -137 330 -33 433 110 111 133 79 133 -183z m1621 -154 c-49 -331 266 -1301 631 -1946 358 -634 489 -1130 345 -1304 -95 -115 -95 -178 3 -296 100 -121 98 -150 -13 -148 -308 3 -420 181 -403 640 10 253 -53 629 -140 834 -394 929 -631 1826 -575 2170 31 195 88 354 127 354 38 0 49 -137 25 -304z m-8579 40 c92 -240 20 -258 -122 -31 -67 107 -81 195 -32 195 50 0 119 -74 154 -164z m15758 -86 c-68 -83 -169 -150 -224 -150 -56 0 -45 66 24 150 68 83 169 150 224 150 56 0 45 -66 -24 -150z m-8100 -239 c0 -257 -104 -322 -262 -163 -172 171 -177 321 -13 380 178 64 275 -12 275 -217z m15621 32 c95 -208 90 -274 -27 -347 -139 -87 -254 108 -284 479 -18 221 191 133 311 -132z m-10533 -406 c-261 -277 -321 -254 -235 90 47 188 112 237 260 199 192 -51 192 -58 -25 -289z m-2433 -287 c166 0 197 -75 208 -500 8 -275 -7 -374 -32 -219 -25 154 -109 305 -186 335 -189 72 -459 630 -373 770 41 66 94 10 129 -137 37 -160 128 -249 254 -249z m-8703 -140 c-37 -167 -19 -319 42 -356 185 -115 115 -231 -204 -342 -212 -74 -370 -76 -500 -7 -256 137 -239 240 61 377 139 63 304 228 367 367 156 343 312 317 234 -39z m13680 -220 c68 -260 -289 -257 -428 3 -145 270 -135 285 137 233 132 -25 263 -131 291 -236z m-1182 -498 c0 -175 -63 -251 -225 -274 -257 -36 -261 -26 -124 334 120 317 349 278 349 -60z m-12326 -441 c44 -228 20 -247 -288 -225 -385 28 -395 43 -171 291 230 254 403 229 459 -66z m13176 -7 c0 -24 -45 -44 -100 -44 -55 0 -100 48 -100 106 0 58 45 78 100 44 55 -34 100 -82 100 -106z m5402 -192 c-72 -86 -95 -189 -53 -229 43 -40 98 -17 123 52 84 234 251 129 188 -119 -90 -359 92 -399 384 -84 l256 276 0 -268 c0 -331 -14 -338 -739 -426 -584 -71 -588 -70 -517 162 40 129 95 347 122 484 97 482 132 542 253 421 83 -83 79 -153 -17 -269z m-17014 -533 c7 -131 -31 -204 -88 -169 -55 34 -95 273 -88 531 10 421 19 438 88 169 42 -165 82 -404 88 -531z m7793 -219 c4 -227 -3 -231 -81 -50 -47 110 -84 357 -81 550 l5 350 76 -300 c42 -165 78 -412 81 -550z m11985 375 c-28 -69 -50 -12 -50 125 0 138 22 194 50 125 28 -69 28 -181 0 -250z m-17375 -575 c-3 -99 -34 -82 -91 50 -118 275 -118 433 0 250 53 -82 94 -217 91 -300z m5106 -100 c0 -133 -11 -133 -97 0 -53 83 -97 218 -97 300 0 133 11 133 97 0 53 -82 97 -217 97 -300z"/>
<path d="M12000 21357 c0 -148 371 -319 472 -219 83 84 -174 362 -334 362 -76 0 -138 -64 -138 -143z"/>
<path d="M5516 18245 c-158 -346 -155 -1375 3 -1322 65 22 124 239 132 483 7 244 47 590 89 769 91 388 -58 435 -224 70z"/>
<path d="M4963 17075 c-87 -324 -77 -775 17 -775 44 0 127 225 183 500 78 381 74 500 -19 500 -66 0 -148 -101 -181 -225z"/>
<path d="M17100 13000 c0 -55 42 -100 94 -100 52 0 122 45 156 100 34 55 -8 100 -94 100 -86 0 -156 -45 -156 -100z"/>
<path d="M17400 12258 c0 -87 71 -158 158 -158 87 0 141 53 119 119 -62 185 -277 216 -277 39z"/>
<path d="M18800 8350 c0 -82 45 -150 100 -150 55 0 100 68 100 150 0 83 -45 150 -100 150 -55 0 -100 -67 -100 -150z"/>
<path d="M11500 18900 c0 -55 42 -100 94 -100 52 0 122 45 156 100 34 55 -8 100 -94 100 -86 0 -156 -45 -156 -100z"/>
<path d="M11100 18300 c0 -55 68 -100 150 -100 83 0 150 45 150 100 0 55 -67 100 -150 100 -82 0 -150 -45 -150 -100z"/>
<path d="M10647 17595 c-95 -154 35 -253 163 -125 72 72 74 128 6 170 -56 35 -132 15 -169 -45z"/>
<path d="M9869 16736 c-35 -35 -39 -103 -9 -152 64 -103 240 -14 240 122 0 107 -136 125 -231 30z"/>
<path d="M9264 16231 c-113 -113 -69 -231 86 -231 83 0 150 42 150 94 0 126 -156 217 -236 137z"/>
<path d="M8467 15633 c-115 -115 -73 -233 83 -233 83 0 150 68 150 150 0 156 -118 198 -233 83z"/>
<path d="M7644 15053 c-163 -123 -168 -147 -31 -150 89 -2 219 65 287 147 160 192 -3 194 -256 3z"/>
<path d="M6767 14533 c-115 -115 -73 -233 83 -233 83 0 150 68 150 150 0 156 -118 198 -233 83z"/>
<path d="M8425 16890 c-665 -634 -851 -890 -647 -890 139 0 1545 1474 1457 1528 -47 29 -412 -258 -810 -638z"/>
<path d="M10901 16385 c-307 -424 -449 -939 -150 -544 79 105 248 308 376 451 355 398 404 508 230 508 -86 0 -291 -187 -456 -415z"/>
<path d="M11000 15884 c-166 -229 -279 -438 -251 -466 66 -66 751 642 751 777 0 220 -210 89 -500 -311z"/>
<path d="M13820 15380 c-136 -136 -161 -380 -40 -380 125 0 320 226 320 370 0 163 -123 167 -280 10z"/>
<path d="M12724 15001 c-209 -335 -138 -449 126 -201 138 129 250 272 250 317 0 159 -253 81 -376 -116z"/>
<path d="M11362 13169 c-445 -521 -560 -723 -373 -652 134 50 935 1092 882 1146 -26 26 -255 -197 -509 -494z"/>
<path d="M8100 12270 c0 -181 54 -384 120 -450 193 -193 618 -143 763 90 164 263 96 341 -160 181 -273 -170 -523 -48 -523 256 0 139 -45 253 -100 253 -55 0 -100 -148 -100 -330z"/>
<path d="M16283 11550 c-75 -75 83 -900 222 -1160 176 -328 209 -165 85 420 -124 593 -221 826 -307 740z"/>
<path d="M13598 10948 c-70 -84 -99 -181 -65 -215 73 -72 367 151 367 279 0 138 -163 103 -302 -64z"/>
<path d="M13772 10558 c-152 -153 -152 -179 1 -358 123 -144 198 -165 296 -84 164 136 164 201 -1 426 -122 167 -143 168 -296 16z"/>
<path d="M14120 9980 c-156 -156 -153 -280 6 -280 69 0 182 90 251 200 101 162 100 200 -6 200 -72 0 -185 -54 -251 -120z"/>
<path d="M15403 9806 c-157 -294 50 -342 238 -55 141 214 143 249 15 249 -82 0 -196 -87 -253 -194z"/>
<path d="M13146 9793 c-36 -58 -41 -131 -10 -162 82 -82 364 46 364 166 0 136 -270 133 -354 -4z"/>
<path d="M13400 9400 c0 -55 68 -100 150 -100 82 0 150 45 150 100 0 55 -68 100 -150 100 -82 0 -150 -45 -150 -100z"/>
<path d="M12735 9246 c-33 -85 -35 -180 -4 -210 88 -88 269 61 269 220 0 192 -191 184 -265 -10z"/>
<path d="M13600 9071 c0 -199 495 -1071 609 -1071 50 0 91 -67 91 -150 0 -82 68 -150 150 -150 218 0 189 461 -39 621 -104 73 -275 286 -380 474 -205 368 -431 512 -431 276z"/>
<path d="M12302 6652 c-79 -95 -86 -152 -20 -152 121 0 262 190 192 259 -25 25 -102 -23 -172 -107z"/>
<path d="M11687 10821 c-503 -561 -597 -703 -507 -759 51 -31 279 164 507 434 430 510 430 805 0 325z"/>
<path d="M17117 5969 c-279 -298 -276 -530 8 -606 299 -80 400 -76 556 23 105 67 97 154 -44 448 -96 202 -203 366 -238 366 -35 0 -162 -104 -282 -231z"/>
<path d="M16063 5147 c-130 -339 -65 -543 194 -608 354 -89 508 85 385 435 -110 317 -482 427 -579 173z"/>
<path d="M14989 4411 c-192 -155 -211 -214 -108 -338 168 -203 593 -274 721 -121 134 162 -45 648 -238 648 -78 0 -247 -85 -375 -189z"/>
<path d="M21500 6100 c0 -55 45 -100 100 -100 55 0 100 45 100 100 0 55 -45 100 -100 100 -55 0 -100 -45 -100 -100z"/>
<path d="M1958 2313 c-43 -69 -51 -153 -18 -186 89 -90 187 42 139 187 -34 101 -58 101 -121 -1z"/>
<path d="M5449 24799 c-281 -310 -77 -373 227 -69 197 198 227 270 112 270 -86 0 -239 -90 -339 -201z"/>
<path d="M7520 24880 c-123 -123 -168 -480 -60 -480 33 0 186 135 340 300 272 291 274 300 60 300 -121 0 -274 -54 -340 -120z"/>
<path d="M8400 24923 c0 -43 -157 -162 -350 -266 -192 -104 -350 -219 -350 -257 0 -37 -112 -119 -250 -182 -252 -115 -357 -518 -135 -518 66 0 39 -85 -63 -198 -158 -174 -161 -205 -24 -257 172 -66 892 641 802 787 -29 47 -101 37 -161 -23 -60 -60 -154 -109 -209 -109 -54 0 53 158 240 350 187 193 380 350 429 350 49 0 204 90 344 200 l254 200 -264 0 c-144 0 -263 -35 -263 -77z"/>
<path d="M9500 24900 c0 -55 42 -100 94 -100 52 0 122 45 156 100 34 55 -8 100 -94 100 -86 0 -156 -45 -156 -100z"/>
<path d="M17303 24708 c-111 -269 -143 -284 -413 -190 -307 108 -590 55 -590 -109 0 -53 180 -305 400 -559 220 -254 400 -504 400 -556 0 -156 274 -105 339 63 33 87 14 244 -43 350 -121 226 -120 226 289 83 173 -60 315 -180 315 -267 0 -86 69 -233 152 -326 282 -310 48 -556 -478 -502 -295 30 -304 -258 -23 -738 148 -251 300 -457 339 -457 146 0 310 249 310 470 0 236 140 308 250 130 119 -192 706 -109 933 131 254 272 272 514 71 994 -80 192 -116 380 -79 416 36 37 -17 221 -119 410 -151 281 -162 372 -58 496 101 122 101 183 2 303 -193 232 -269 182 -336 -225 -48 -290 -14 -440 149 -662 170 -232 185 -303 75 -371 -112 -69 -106 -135 38 -378 217 -368 224 -773 16 -853 -600 -230 -918 314 -485 830 275 326 255 444 -129 772 -101 85 -107 179 -28 388 146 384 40 649 -259 649 -232 0 -237 -12 -97 -226 121 -186 126 -271 24 -475 -137 -274 -473 -335 -551 -99 -40 120 -21 126 95 31 92 -76 198 -87 291 -29 123 76 115 114 -53 241 -110 83 -256 132 -325 107 -251 -88 -80 280 175 377 83 32 9 61 -163 65 -255 7 -335 -46 -434 -284z m1231 -1025 c31 -120 29 -262 -4 -316 -70 -112 -330 205 -330 402 0 218 273 147 334 -86z"/>
<path d="M19615 24700 c120 -344 262 -463 394 -331 133 133 -126 629 -329 630 -145 1 -155 -42 -65 -299z"/>
<path d="M20399 24851 c125 -150 301 -118 301 55 0 52 -96 94 -212 94 -177 0 -192 -25 -89 -149z"/>
<path d="M5471 24301 c-304 -288 -386 -422 -295 -481 93 -61 58 -141 -135 -309 -415 -361 -205 -356 293 8 497 363 591 536 241 447 -184 -46 -156 7 150 290 206 191 375 369 375 395 0 146 -256 3 -629 -350z"/>
<path d="M14561 24617 c-92 -149 59 -517 212 -517 107 0 133 65 90 225 -33 124 -61 259 -62 300 -1 101 -176 96 -240 -8z"/>
<path d="M8475 24388 c-424 -316 -326 -410 175 -167 248 120 450 255 450 299 0 148 -348 75 -625 -132z"/>
<path d="M9475 24361 c-164 -125 -242 -361 -120 -361 139 0 645 316 645 403 0 139 -319 114 -525 -42z"/>
<path d="M14200 24350 c0 -82 45 -150 100 -150 55 0 100 68 100 150 0 83 -45 150 -100 150 -55 0 -100 -67 -100 -150z"/>
<path d="M8523 23996 c-236 -94 -395 -357 -284 -468 35 -35 119 8 187 96 68 87 214 175 324 194 110 19 189 79 175 133 -35 139 -139 150 -402 45z"/>
<path d="M13800 23912 c0 -183 260 -312 382 -190 184 184 140 278 -132 278 -137 0 -250 -39 -250 -88z"/>
<path d="M24300 23845 c0 -30 62 -176 138 -325 157 -305 218 -1874 77 -1961 -49 -30 -120 213 -157 541 -37 327 -123 630 -192 673 -69 42 -188 273 -265 513 -133 413 -334 615 -473 475 -35 -35 40 -248 167 -473 159 -283 240 -613 263 -1074 l34 -664 -104 600 c-120 692 -135 718 -323 562 -115 -95 -160 -37 -249 318 -120 475 -433 833 -625 715 -91 -57 -81 -105 38 -192 224 -163 589 -1134 544 -1445 -31 -213 -51 -185 -117 158 -53 283 -139 433 -267 466 -161 42 -189 -8 -189 -335 0 -212 -45 -413 -100 -447 -61 -38 -100 126 -100 425 0 493 -316 1325 -502 1325 -145 0 -120 -164 89 -597 138 -286 151 -373 50 -334 -99 38 -137 -41 -139 -283 0 -185 -45 -403 -98 -486 -70 -108 -97 -19 -98 325 -2 351 -40 475 -149 475 -107 0 -134 77 -98 275 57 316 -256 798 -443 682 -82 -51 -60 -149 77 -342 144 -201 168 -317 94 -449 -79 -141 -128 -153 -243 -57 -207 171 -267 59 -130 -240 94 -207 84 -337 -50 -673 -175 -438 -291 -1896 -150 -1896 138 0 312 819 254 1196 -36 238 -3 420 101 554 153 197 155 196 89 -25 -41 -138 -25 -225 42 -225 61 0 153 101 205 225 137 328 47 -794 -92 -1157 -142 -366 -137 -468 20 -468 76 0 176 221 241 532 117 556 570 1345 675 1175 81 -131 -40 -632 -183 -757 -125 -110 -362 -603 -362 -755 0 -202 210 -82 308 177 57 149 259 461 448 692 189 231 344 491 344 578 0 87 45 158 100 158 55 0 100 -34 100 -75 0 -138 -414 -1174 -508 -1270 -135 -139 -112 -255 50 -255 81 0 242 259 375 603 194 501 243 564 292 375 56 -213 70 -205 217 122 112 249 159 292 164 150 3 -110 -83 -394 -190 -632 -181 -398 -183 -429 -23 -399 95 18 225 190 288 382 68 206 173 339 256 324 77 -14 192 99 256 250 112 268 114 266 58 -75 -31 -192 -150 -518 -264 -724 -113 -206 -177 -403 -141 -439 109 -110 353 159 473 522 62 188 199 389 305 445 163 88 192 69 190 -125 -1 -126 -89 -419 -194 -652 -121 -266 -155 -446 -91 -485 119 -73 379 241 384 463 2 85 54 206 116 268 185 185 58 2294 -166 2752 -101 206 -243 375 -316 375 -72 0 -131 -25 -131 -55z m-3140 -1618 c-33 -33 -56 26 -52 131 5 117 28 141 60 61 29 -72 26 -159 -8 -192z"/>
<path d="M9519 23695 c-128 -52 -208 -133 -178 -181 83 -134 559 -9 559 148 0 158 -57 162 -381 33z"/>
<path d="M15018 23536 c38 -197 343 -408 443 -308 79 79 -240 472 -384 472 -50 0 -77 -74 -59 -164z"/>
<path d="M20156 23609 c-99 -159 58 -409 257 -409 181 0 183 13 28 250 -182 278 -204 290 -285 159z"/>
<path d="M13500 23201 c0 -134 66 -201 200 -201 110 0 200 34 200 76 0 42 -90 132 -200 201 -175 109 -200 100 -200 -76z"/>
<path d="M15564 23231 c-200 -200 109 -1131 375 -1131 168 0 90 485 -111 686 -77 77 -116 200 -88 274 56 147 -74 273 -176 171z"/>
<path d="M9350 23099 c-80 -128 201 -239 406 -160 201 76 90 261 -156 261 -104 0 -216 -45 -250 -101z"/>
<path d="M14675 23142 c-94 -94 154 -742 284 -742 68 0 207 -169 308 -375 101 -206 263 -390 360 -408 154 -28 144 19 -69 350 -136 211 -340 503 -453 649 -113 146 -205 312 -205 369 0 125 -151 230 -225 157z"/>
<path d="M20191 22946 c-62 -705 94 -1494 263 -1325 134 133 61 1107 -94 1262 -88 88 -164 116 -169 63z"/>
<path d="M13165 22654 c-72 -189 89 -378 289 -339 273 53 273 222 1 348 -185 86 -254 84 -290 -9z"/>
<path d="M18700 22717 c0 -141 113 -206 259 -150 77 30 115 94 85 143 -70 113 -344 118 -344 7z"/>
<path d="M14300 22640 c0 -114 344 -640 418 -640 42 0 50 -68 18 -151 -70 -183 634 -1079 778 -990 55 34 124 -33 154 -149 60 -228 290 -285 356 -88 23 68 -16 233 -86 368 -70 135 -105 283 -77 328 28 45 -19 82 -105 82 -86 0 -156 -67 -156 -150 0 -394 -411 9 -611 600 -75 220 -226 500 -337 623 -195 216 -352 291 -352 167z"/>
<path d="M19674 22109 c-195 -382 -151 -529 87 -291 86 86 141 263 122 394 -33 224 -45 218 -209 -103z"/>
<path d="M19553 21420 c-163 -20 -357 -124 -430 -229 -87 -123 -253 -191 -468 -191 -453 0 -511 -218 -201 -748 296 -504 536 -637 714 -395 75 103 188 143 293 103 104 -40 324 36 566 196 357 236 389 291 331 578 -87 439 -433 734 -805 686z m391 -442 c220 -314 194 -545 -69 -615 -399 -107 -533 -78 -329 72 128 93 149 156 69 206 -63 39 -160 43 -215 9 -130 -80 -128 111 4 357 137 256 349 244 540 -29z m-1044 -484 c0 -52 -45 -94 -100 -94 -55 0 -100 70 -100 156 0 86 45 128 100 94 55 -34 100 -104 100 -156z"/>
<path d="M24908 20058 c-4 -105 19 -164 52 -131 34 33 37 120 8 192 -32 80 -55 56 -60 -61z"/>
<path d="M20352 19327 c-108 -28 -248 -119 -309 -204 -84 -114 -131 -123 -187 -33 -53 86 -110 90 -203 12 -96 -79 -145 -67 -188 45 -82 212 -265 192 -265 -29 0 -307 312 -1117 434 -1130 458 -45 666 -186 666 -449 0 -131 38 -239 84 -239 153 0 616 971 616 1292 0 301 -252 821 -387 796 -34 -6 -152 -34 -261 -61z m304 -567 c103 -408 15 -710 -206 -710 -133 0 -200 67 -200 200 0 110 -38 258 -84 329 -97 151 92 421 294 421 75 0 163 -108 196 -240z"/>
<path d="M24835 16176 c-42 -68 -171 -304 -288 -525 -116 -221 -297 -544 -402 -720 -105 -175 -159 -350 -121 -389 105 -105 359 141 395 382 17 116 92 230 166 255 106 35 111 1 25 -161 -136 -254 -141 -418 -11 -418 174 0 390 683 378 1199 -12 537 -24 568 -142 377z"/>
<path d="M24425 7497 c-332 -133 -275 -197 175 -197 289 0 400 42 400 150 0 166 -231 185 -575 47z"/>
<path d="M18456 3835 c36 -157 240 -635 454 -1063 215 -428 390 -848 390 -933 0 -86 56 -136 125 -111 180 63 120 528 -110 851 -109 153 -304 543 -434 867 -255 634 -540 894 -425 389z"/>
<path d="M19603 3704 c-81 -51 -118 -122 -83 -158 88 -87 480 44 480 161 0 119 -207 117 -397 -3z"/>
<path d="M19700 3153 c0 -89 59 -124 150 -89 194 74 194 236 0 236 -82 0 -150 -66 -150 -147z"/>
<path d="M18267 3133 c-131 -131 -68 -533 83 -533 100 0 150 100 150 300 0 287 -90 377 -233 233z"/>
<path d="M19900 2900 c0 -55 70 -100 156 -100 86 0 128 45 94 100 -80 129 -250 129 -250 0z"/>
<path d="M16601 2703 c-117 -74 -123 -121 -28 -216 95 -95 181 -94 399 8 260 121 265 135 78 210 -265 107 -276 107 -449 -2z"/>
<path d="M18571 2638 c-105 -105 -86 -538 23 -538 52 0 119 41 150 91 76 123 -84 536 -173 447z"/>
<path d="M19775 2142 c-98 -98 216 -659 329 -589 134 82 118 163 -85 427 -97 126 -207 199 -244 162z"/>
<path d="M19019 428 c-121 -149 -219 -307 -219 -350 0 -156 156 -56 435 279 189 228 237 343 143 343 -77 0 -239 -122 -359 -272z"/>
<path d="M24300 350 c0 -193 45 -350 100 -350 55 0 100 157 100 350 0 193 -45 350 -100 350 -55 0 -100 -157 -100 -350z"/>
</g>
</svg>