<svg xmlns="http://www.w3.org/2000/svg" version="1.0" width="250" height="250" viewBox="0 0 250.000000 250.000000" preserveAspectRatio="xMidYMid meet">
<metadata>
Created by potrace 1.10, written by Peter Selinger 2001-2011
</metadata>
<g transform="translate(0.000000,250.000000) scale(0.010000,-0.010000)" fill="#555555" stroke="none">
<path d="M343 24889 c-38 -61 -7 -151 69 -199 213 -134 277 -108 261 110 -17 216 -218 270 -330 89z"/>
<path d="M7032 24861 c72 -187 -268 -489 -913 -812 -291 -146 -511 -318 -487 -382 24 -64 94 -106 156 -92 335 75 -86 -791 -840 -1725 -587 -727 -1003 -1428 -906 -1526 82 -81 458 282 458 441 0 270 161 125 268 -240 60 -206 206 -635 323 -952 117 -318 274 -841 349 -1164 134 -574 131 -596 -152 -1149 -159 -310 -293 -709 -299 -887 -19 -590 308 -1291 875 -1876 301 -311 536 -644 536 -762 0 -201 203 -682 604 -1435 324 -608 240 -1029 -326 -1644 -98 -106 -178 -229 -178 -271 0 -137 -719 -571 -858 -518 -242 93 -835 -176 -1047 -474 -126 -176 -299 -293 -435 -293 -200 0 -774 -158 -1835 -507 -179 -58 -414 -78 -522 -44 -108 34 -555 -59 -999 -210 -605 -205 -804 -316 -804 -451 0 -165 30 -168 393 -40 216 76 506 212 643 302 138 91 378 147 533 126 250 -34 259 -47 81 -117 -833 -330 -1420 -666 -1533 -877 -72 -135 -117 -422 -99 -638 45 -552 294 -569 785 -53 214 225 447 410 518 412 72 2 46 51 -58 112 -155 90 -226 59 -416 -178 -126 -158 -261 -255 -300 -217 -39 39 2 144 92 233 89 89 209 249 265 355 70 131 210 192 437 192 184 0 389 65 455 145 66 79 319 221 563 314 403 154 460 155 617 13 148 -133 218 -137 474 -26 165 71 435 247 600 391 353 309 474 324 712 88 168 -167 161 -176 -158 -207 -183 -18 -397 -97 -476 -175 -78 -79 -263 -168 -410 -199 -147 -32 -380 -115 -518 -185 -144 -74 -356 -99 -500 -59 -137 37 -302 29 -365 -20 -63 -48 -220 -108 -349 -133 -214 -41 -873 -694 -882 -873 -8 -166 -578 -664 -833 -728 -206 -51 -271 -129 -271 -322 0 -232 16 -242 175 -109 96 81 290 195 431 255 140 59 472 428 737 819 264 391 521 711 569 711 139 0 109 -70 -237 -542 -685 -937 -846 -1287 -907 -1970 -53 -609 -351 -1404 -578 -1544 -101 -63 -123 -942 -29 -1186 142 -371 261 -131 220 443 -36 490 -10 632 138 766 173 157 182 135 200 -477 43 -1420 -20 -1990 -221 -1990 -154 0 -114 432 64 686 115 164 130 262 54 338 -267 267 -614 -467 -615 -1299 l-1 -425 1141 0 1140 0 360 500 c385 537 413 600 260 600 -54 0 -218 -182 -366 -404 -163 -247 -303 -368 -359 -312 -57 57 47 275 266 562 197 258 358 511 358 562 0 200 -164 73 -400 -308 -136 -220 -282 -400 -324 -400 -128 0 -88 96 234 564 170 248 277 481 238 518 -39 37 -122 -16 -185 -119 -232 -383 -448 -611 -515 -544 -39 38 69 275 238 525 169 251 263 456 209 456 -54 0 -187 -146 -296 -325 -140 -229 -198 -271 -199 -143 0 100 135 378 300 618 313 454 351 550 224 550 -42 0 -188 -180 -324 -400 -136 -220 -278 -400 -315 -400 -89 0 286 770 414 850 56 34 101 128 101 210 0 119 -35 113 -184 -31 -101 -98 -215 -264 -252 -368 -38 -104 -95 -163 -128 -131 -63 64 354 798 485 853 137 58 86 217 -71 217 -82 0 -151 -56 -152 -125 -1 -69 -90 -237 -198 -375 -300 -383 -245 -25 65 421 146 211 239 408 208 439 -31 32 -133 -59 -227 -201 -93 -143 -209 -259 -258 -259 -169 0 -86 226 207 559 243 278 289 410 266 763 -16 236 15 485 69 555 54 70 111 283 126 474 15 191 97 417 183 503 86 86 214 236 284 335 192 271 869 660 1406 807 456 126 490 121 733 -107 141 -131 315 -382 388 -556 73 -175 252 -395 397 -490 470 -308 591 -687 668 -2093 40 -715 87 -1390 104 -1500 17 -110 -14 -222 -69 -250 -56 -28 -122 147 -150 400 -32 287 -95 441 -175 425 -77 -15 -125 87 -125 269 0 162 -45 322 -100 356 -114 70 -113 72 -158 -588 -40 -585 44 -762 894 -1889 354 -471 703 -1017 774 -1214 117 -323 167 -359 496 -359 344 0 363 16 319 275 -27 151 -103 320 -171 375 -73 60 -151 524 -194 1150 -44 642 -128 1137 -218 1275 -121 186 -439 1845 -441 2300 -2 256 163 113 287 -250 380 -1111 607 -1498 615 -1050 3 150 31 142 191 -50 205 -245 306 -284 306 -119 0 58 -132 226 -294 375 -286 262 -506 686 -506 976 0 256 186 151 218 -125 23 -188 176 -368 516 -607 627 -440 709 -355 127 132 -248 208 -429 415 -400 460 117 189 1386 -46 1438 -267 13 -55 173 -206 354 -335 195 -139 425 -448 558 -750 140 -319 241 -451 264 -348 49 222 -339 987 -610 1206 -187 150 -192 173 -39 175 259 3 1864 -881 2299 -1266 207 -182 430 -332 496 -332 167 0 -608 784 -955 966 -157 82 -269 162 -250 178 19 16 367 -8 774 -53 1261 -140 2881 -1091 1857 -1091 -133 0 -390 -90 -570 -200 -198 -120 -505 -200 -777 -200 -397 -1 -477 -41 -675 -332 -274 -402 -282 -783 -29 -1341 129 -284 173 -538 135 -775 -56 -343 -49 -352 271 -352 312 0 321 9 163 183 -199 221 -210 317 -33 317 73 0 230 -112 349 -250 241 -276 445 -334 355 -100 -32 83 -3 150 66 150 95 0 94 34 -5 153 -70 85 -174 138 -232 119 -116 -39 -565 316 -565 446 0 45 91 82 203 82 197 0 424 364 329 526 -78 132 210 818 416 988 234 195 1527 351 1675 203 64 -64 25 -138 -112 -211 -116 -62 -211 -174 -211 -249 0 -74 -112 -164 -250 -198 -248 -62 -372 -459 -143 -459 134 0 393 252 393 382 0 53 70 124 156 157 86 33 129 105 94 160 -34 56 31 101 144 101 113 0 206 40 206 88 0 185 599 335 1074 269 551 -77 1530 -439 1676 -621 177 -221 2204 -1335 2430 -1336 71 0 319 -93 550 -207 806 -398 1747 -693 2182 -684 l438 9 -329 95 c-180 52 -303 135 -273 184 93 151 -132 219 -346 104 -141 -75 -202 -76 -202 -2 0 58 135 133 300 166 165 33 300 99 300 148 0 143 -229 99 -575 -112 -179 -109 -325 -159 -325 -110 0 48 68 114 150 145 235 90 176 250 -75 204 -124 -23 -169 -15 -100 17 190 91 149 244 -50 187 -96 -28 -74 3 50 68 282 148 295 330 19 258 -169 -45 -184 -29 -87 88 92 111 87 142 -26 142 -231 0 -531 -258 -396 -341 134 -83 156 -459 27 -459 -107 0 -211 486 -142 665 26 70 134 155 239 188 105 33 191 102 191 154 0 120 -68 117 -307 -11 -168 -90 -193 -69 -193 163 0 201 30 240 125 162 89 -74 184 -62 325 41 171 125 178 159 50 240 -197 125 -400 123 -400 -2 0 -55 -45 -100 -100 -100 -55 0 -99 236 -97 525 3 487 14 511 152 328 82 -109 127 -255 100 -325 -59 -155 42 -163 245 -19 117 83 121 118 21 158 -99 40 -102 85 -13 193 92 111 80 140 -58 140 -144 0 -153 26 -50 150 143 173 -4 206 -171 39 -155 -155 -331 -21 -317 242 9 169 22 179 57 44 59 -227 158 -221 381 25 100 110 130 200 69 200 -64 0 -85 72 -49 167 50 130 25 152 -112 100 -273 -105 -404 41 -152 169 134 69 235 224 252 390 16 152 94 407 174 567 79 160 107 328 61 374 -46 46 47 294 207 550 299 481 1354 1258 2122 1563 l373 148 -40 1281 c-38 1192 -65 1342 -398 2158 -403 989 -416 1049 -208 969 83 -31 126 -96 96 -144 -29 -48 38 -165 151 -262 112 -96 205 -288 206 -427 0 -139 45 -320 98 -403 69 -107 97 10 98 405 1 305 -52 609 -118 675 -93 93 -93 120 0 120 84 0 120 257 120 856 0 478 -39 831 -90 800 -49 -30 -116 16 -150 103 -90 235 -75 268 90 205 128 -49 150 106 150 1043 0 1059 -7 1096 -194 996 -107 -57 -223 -149 -256 -204 -112 -180 -265 -103 -200 101 44 139 18 200 -87 200 -165 0 -312 341 -214 499 88 142 -184 126 -329 -19 -197 -197 -136 18 84 298 145 185 186 340 142 540 -48 218 -25 282 98 282 121 0 144 -61 97 -250 -39 -154 -20 -250 48 -250 61 0 111 -109 111 -243 0 -263 257 -406 536 -299 194 75 206 160 48 318 -87 87 -85 152 9 265 162 195 43 413 -141 260 -96 -79 -171 -68 -281 42 -133 133 -131 188 15 492 183 381 348 387 253 8 -49 -197 -30 -233 100 -183 120 46 161 196 161 589 0 459 -28 535 -220 585 -121 32 -273 13 -339 -41 -79 -66 -205 -60 -375 18 -326 148 -456 642 -230 868 143 143 152 125 101 -191 -69 -424 144 -668 433 -497 167 98 163 110 -48 170 -191 53 -223 122 -200 426 34 445 135 527 553 450 365 -66 424 74 172 407 -188 249 -190 416 -3 261 121 -101 143 -53 138 307 -5 365 -24 402 -130 258 -68 -94 -195 -170 -282 -170 -196 0 -309 -164 -172 -249 214 -132 107 -437 -163 -469 -363 -44 -868 -682 -857 -1083 8 -293 -5 -303 -322 -244 -304 58 -339 37 -443 -261 -62 -178 -113 -409 -113 -514 0 -283 -463 -671 -721 -603 -210 54 -209 57 28 150 l243 94 -228 106 c-156 73 -261 74 -331 4 -149 -149 -6 -609 185 -594 185 15 345 -552 257 -912 -90 -368 44 -708 292 -743 200 -28 221 -81 193 -463 -37 -487 102 -719 432 -719 124 0 279 -64 343 -142 181 -218 -14 -446 -818 -958 -389 -247 -891 -569 -1116 -714 -390 -251 -859 -447 -859 -358 0 23 71 183 157 355 159 320 126 516 -88 519 -65 0 -229 225 -363 499 -135 274 -326 524 -425 555 -100 32 -181 139 -181 238 0 123 -101 201 -312 243 -226 46 -287 97 -222 188 51 69 105 260 121 425 17 165 136 413 265 550 357 380 497 817 307 956 -131 95 -136 200 -38 727 62 338 85 645 49 681 -93 93 -889 -752 -818 -868 33 -53 36 -96 7 -96 -28 0 -100 89 -158 198 -84 157 -64 239 97 400 355 355 265 519 -273 501 -261 -9 -531 -13 -600 -8 -202 14 -143 281 75 338 258 68 258 339 0 421 -237 75 -237 72 -58 662 213 699 136 1726 -188 2537 -150 376 -320 965 -377 1307 l-103 623 -562 8 -562 8 27 -1848 c19 -1316 -6 -1847 -86 -1847 -62 0 -87 66 -56 147 31 81 -20 224 -114 318 -141 141 -172 378 -179 1328 -8 1205 -111 1813 -320 1883 -151 50 -157 -123 -14 -391 134 -250 200 -1611 86 -1794 -157 -254 -233 14 -238 841 -7 990 -187 1368 -651 1368 -192 0 -306 -59 -336 -175 -43 -164 -47 -164 -57 -2 -10 141 -104 171 -510 162 -284 -6 -473 -52 -439 -105 32 -52 -35 -37 -148 34 -113 71 -234 101 -267 67 -34 -34 -9 -516 56 -1071 124 -1071 66 -1576 -128 -1110 -111 266 -131 459 -159 1525 -9 372 -62 675 -117 675 -55 0 -100 -70 -100 -156 0 -86 -46 -128 -102 -93 -56 35 -75 105 -44 156 32 51 -83 93 -256 93 -295 0 -310 -18 -250 -291 35 -160 80 -744 100 -1296 19 -553 61 -1047 93 -1099 32 -51 -9 -119 -92 -150 -122 -48 -149 54 -149 570 0 610 -191 1108 -360 939 -42 -42 -23 -130 42 -195 207 -207 80 -1492 -137 -1378 -52 28 -79 207 -60 398 63 613 -204 2502 -353 2502 -149 0 -115 -720 79 -1687 81 -404 78 -647 -15 -978 -68 -242 -146 -419 -172 -392 -27 27 -64 377 -81 778 -17 401 -61 1078 -98 1504 -62 733 -79 775 -305 775 -178 0 -244 -58 -254 -225 l-13 -225 -44 225 c-23 124 -107 225 -186 225 -218 0 -192 -792 32 -957 137 -102 149 -156 54 -253 -159 -160 -329 262 -329 817 0 398 -128 524 -239 235 -102 -264 -69 -1542 39 -1542 180 0 105 -564 -100 -750 -199 -180 -200 -175 -200 1135 0 1170 -79 1573 -234 1190 -40 -100 -52 -100 -58 0 -6 90 -251 125 -869 125 -694 0 -850 -27 -807 -139z m439 -786 c-24 -124 -44 -22 -44 225 0 248 20 349 44 225 23 -124 23 -326 0 -450z m466 -75 c-20 -192 -58 -444 -85 -559 -26 -115 13 -292 88 -394 100 -137 110 -260 38 -467 -113 -324 -155 -335 -456 -124 -278 194 -298 544 -31 544 168 0 200 106 264 875 47 556 100 802 147 675 40 -110 56 -357 35 -550z m6043 52 c0 -194 -45 -352 -101 -352 -55 0 -74 -67 -43 -150 32 -82 20 -150 -26 -150 -45 0 -111 209 -146 464 -99 721 -92 758 126 641 131 -70 190 -210 190 -453z m780 75 c-33 -33 -56 26 -52 131 5 117 28 141 60 61 29 -72 26 -159 -8 -192z m-6391 -403 c-25 -96 -45 6 -44 226 1 220 22 298 46 174 24 -125 23 -305 -2 -400z m391 203 c-33 -33 -56 26 -52 131 5 117 28 141 60 61 29 -72 26 -159 -8 -192z m-1762 -408 c-1 -275 -26 -331 -98 -219 -129 200 -129 730 0 650 55 -34 99 -228 98 -431z m7520 231 c86 -188 85 -313 -2 -505 -64 -140 -119 -376 -122 -525 -7 -267 -8 -268 -100 -38 -58 146 -57 300 3 413 62 115 62 300 0 517 -118 411 -119 388 5 388 56 0 154 -112 216 -250z m480 -81 c0 -120 -39 -279 -86 -353 -54 -86 -85 12 -85 273 0 223 39 382 87 353 47 -30 85 -152 84 -273z m-8317 -1194 c134 -1359 158 -2647 47 -2537 -39 40 -105 599 -145 1242 -40 644 -104 1474 -142 1845 -41 402 -30 675 25 675 52 0 149 -551 215 -1225z m3319 983 c0 -23 -28 -114 -62 -202 -47 -124 -93 -135 -199 -47 -158 131 -94 291 117 291 79 0 144 -19 144 -42z m-3748 -633 c-71 -474 -116 -595 -193 -517 -82 84 70 992 165 992 61 0 72 -182 28 -475z m2308 14 c-64 -165 -77 -165 -239 -3 -149 149 -152 183 -22 263 194 120 348 -33 261 -260z m4940 -9 c0 -201 -29 -241 -113 -157 -63 63 -86 184 -53 270 91 239 166 188 166 -113z m3094 -1205 c4 -421 -36 -725 -94 -725 -61 0 -96 434 -89 1125 9 871 31 1035 95 725 45 -220 85 -726 88 -1125z m-9634 1102 c-33 -33 -56 26 -52 131 5 117 28 141 60 61 29 -72 26 -159 -8 -192z m5409 -302 c-25 -96 -46 -17 -46 175 0 193 21 271 46 175 25 -96 25 -254 0 -350z m5097 -279 c13 -355 -7 -646 -46 -646 -38 0 -85 326 -103 725 -19 399 2 689 45 646 44 -43 90 -370 104 -725z m-7647 205 c22 -193 10 -351 -27 -351 -79 0 -189 364 -191 631 -2 314 175 86 218 -280z m482 -620 c-82 -277 -84 -277 -94 -31 -5 138 -32 430 -60 650 l-51 400 145 -369 c97 -249 117 -462 60 -650z m4792 538 c4 -44 -38 -53 -93 -19 -55 34 -97 160 -93 281 7 211 10 212 93 19 47 -110 89 -236 93 -281z m-6393 -131 c0 -180 -144 -176 -296 8 -165 198 -35 404 155 247 78 -65 141 -179 141 -255z m-1297 56 c83 -154 80 -244 -9 -352 -148 -178 -394 -14 -394 262 0 150 55 209 271 288 12 4 72 -85 132 -198z m8195 -269 c2 -258 -83 -281 -344 -90 -179 131 -179 140 6 330 211 218 336 129 338 -240z m-6354 285 c30 -49 25 -238 -11 -420 -56 -280 -78 -301 -143 -135 -164 420 -40 869 154 555z m-1253 -310 c113 0 310 -474 304 -730 l-5 -220 -157 225 c-217 310 -339 282 -270 -63 70 -353 -111 -495 -265 -208 -88 164 -78 262 45 449 86 132 162 388 169 568 6 181 32 250 57 154 25 -96 80 -175 122 -175z m6759 200 c78 -127 -54 -127 -250 0 -129 84 -127 97 19 98 93 1 197 -43 231 -98z m-8590 -273 c-33 -33 -56 26 -52 131 5 117 28 141 60 61 29 -72 26 -159 -8 -192z m7699 23 c309 -286 354 -297 528 -125 102 100 121 98 95 -13 -21 -89 124 -176 418 -250 334 -84 443 -157 422 -282 -31 -186 265 -381 721 -475 160 -33 309 -112 330 -175 25 -73 -41 -94 -183 -56 -167 43 -201 25 -139 -75 61 -99 35 -115 -97 -64 -99 38 -241 17 -317 -46 -103 -85 -174 -83 -286 11 -83 68 -240 100 -350 71 -234 -61 -275 107 -47 194 84 33 242 -21 350 -118 174 -158 196 -160 196 -16 0 250 -305 358 -1092 385 -762 26 -940 106 -617 279 133 72 280 73 461 4 360 -136 544 -5 226 162 -297 155 -971 75 -1047 -125 -29 -75 -113 -136 -186 -136 -74 0 -192 -84 -264 -186 -165 -233 -541 -359 -633 -211 -39 63 21 134 142 165 379 100 234 263 -165 186 -631 -121 -771 -112 -773 46 -3 257 -426 232 -723 -43 -383 -355 -531 -324 -184 38 156 162 412 324 569 358 388 85 374 290 -14 212 -481 -96 -346 7 225 173 289 84 812 151 1162 149 350 -2 685 45 745 105 156 156 226 137 527 -142z m-8159 -254 c0 -296 293 -696 512 -696 196 0 233 -171 125 -575 -88 -327 -237 -276 -237 81 0 178 -42 280 -100 244 -55 -34 -100 -149 -100 -256 0 -268 -186 -244 -242 31 -119 588 -153 1375 -59 1375 56 0 101 -92 101 -204z m10200 -102 c0 -58 -45 -78 -100 -44 -55 34 -100 82 -100 106 0 24 45 44 100 44 55 0 100 -48 100 -106z m-10564 -144 c32 -82 14 -150 -39 -150 -53 0 -97 68 -97 150 0 83 18 150 39 150 22 0 66 -67 97 -150z m5198 -250 c-279 -314 -396 -388 -275 -175 127 223 370 475 457 475 47 0 -35 -135 -182 -300z m-3171 -25 c-33 -124 -65 -360 -72 -525 l-11 -300 -86 350 c-94 386 -38 700 124 700 60 0 80 -96 45 -225z m-2165 -306 c1 -44 -43 -53 -98 -19 -55 34 -99 138 -98 231 1 146 14 148 98 19 53 -82 98 -186 98 -231z m3779 212 c-22 -65 -93 -136 -158 -158 -73 -24 -96 21 -58 119 69 181 276 219 216 39z m1063 -40 c98 -258 -53 -396 -205 -187 -74 101 -135 221 -135 265 0 148 278 84 340 -78z m7616 -384 c-37 -249 -110 -479 -162 -511 -123 -76 -119 68 19 614 142 563 233 498 143 -103z m-6456 137 c0 -113 -40 -181 -88 -151 -49 30 -257 -80 -464 -244 -340 -271 -548 -368 -548 -258 0 47 1005 859 1063 859 20 0 37 -93 37 -206z m2150 6 c-34 -55 -107 -100 -162 -100 -55 0 -72 45 -38 100 34 55 107 100 162 100 55 0 72 -45 38 -100z m-3750 -287 c0 -188 -356 -713 -483 -713 -38 0 -123 86 -188 191 -101 161 -79 231 139 450 304 304 532 335 532 72z m4642 126 c226 -87 196 -190 -97 -323 -368 -168 -545 -143 -545 76 0 261 303 377 642 247z m-8652 -939 c-2 -276 -20 -307 -82 -150 -44 110 -109 380 -145 600 -64 388 -62 393 82 150 81 -137 147 -407 145 -600z m5460 600 c-34 -55 -107 -100 -162 -100 -55 0 -72 45 -38 100 34 55 107 100 162 100 55 0 72 -45 38 -100z m2050 -67 c27 -27 -33 -110 -135 -184 -143 -105 -241 -110 -430 -24 -196 89 -303 78 -525 -53 -235 -139 -309 -145 -460 -34 -147 107 -155 147 -44 216 335 207 1410 260 1594 79z m-5664 -83 c-61 -159 -236 -208 -236 -67 0 106 109 217 214 217 44 0 54 -67 22 -150z m972 50 c176 0 91 -394 -108 -500 -118 -63 -200 -68 -200 -12 0 53 56 115 125 140 69 25 93 79 53 122 -39 42 -232 -64 -428 -237 -405 -355 -450 -372 -450 -166 0 82 135 218 300 303 165 85 300 226 300 313 0 103 55 137 158 98 87 -34 200 -61 250 -61z m7436 -290 c89 -145 -241 -218 -459 -102 -264 141 -500 47 -418 -166 55 -143 34 -141 -152 18 -118 101 -215 219 -215 262 0 109 1176 98 1244 -12z m636 -104 c-99 -160 -90 -229 49 -383 198 -218 231 -397 46 -244 -69 57 -282 144 -475 194 l-350 91 400 262 c488 320 479 318 330 80z m-10580 -106 c0 -110 -17 -200 -38 -200 -21 0 -62 90 -91 200 -29 110 -11 200 38 200 50 0 91 -90 91 -200z m3900 131 c0 -37 -98 -172 -217 -300 -235 -249 -527 -302 -643 -116 -39 64 -28 89 25 56 53 -32 229 49 391 181 299 245 444 303 444 179z m4481 -157 c39 -204 -190 -230 -510 -58 -212 113 -212 117 -19 194 289 114 491 62 529 -136z m-2081 -110 c0 -47 108 -59 240 -26 162 41 258 12 297 -90 31 -82 174 -203 316 -268 202 -92 247 -168 202 -347 -43 -171 34 -331 305 -631 259 -287 317 -402 202 -402 -255 0 -189 -195 104 -306 342 -130 496 9 321 290 -179 286 -108 318 449 199 345 -74 515 -72 594 7 173 173 431 130 737 -125 336 -278 856 -402 1017 -241 174 174 246 21 99 -214 -157 -251 -729 -294 -819 -62 -34 90 -122 124 -222 85 -132 -51 -152 -21 -97 152 79 247 -92 297 -185 54 -46 -119 -132 -143 -335 -92 -150 38 -296 106 -324 152 -95 153 -606 -11 -578 -185 15 -89 -72 -206 -194 -260 -121 -54 -234 -189 -250 -300 -33 -228 -255 -301 -479 -158 -128 83 -121 117 50 242 255 186 137 315 -148 163 -172 -92 -265 -83 -461 45 -234 154 -255 149 -475 -107 -127 -148 -294 -244 -373 -215 -98 36 -60 85 123 158 147 59 297 203 335 320 98 309 -29 373 -215 109 -112 -161 -190 -197 -265 -122 -75 75 -50 169 85 318 332 366 538 430 755 233 146 -132 222 -147 309 -60 87 87 70 165 -68 318 -274 303 -573 246 -1040 -198 -455 -433 -667 -486 -968 -244 -183 148 -174 153 156 104 462 -70 845 224 775 593 -50 262 65 426 174 249 72 -118 351 -139 351 -27 -1 41 -135 218 -299 393 -289 308 -307 314 -600 168 -358 -179 -358 -179 -91 -446 137 -137 176 -244 112 -308 -63 -63 -187 -8 -355 160 -274 274 -557 324 -874 154 -278 -148 -239 -311 57 -237 142 36 250 19 250 -37 0 -116 467 -264 725 -232 96 13 175 -20 175 -73 0 -173 -253 -197 -648 -62 -451 155 -553 122 -481 -155 29 -112 3 -200 -59 -200 -62 0 -112 44 -112 98 0 54 -107 125 -239 158 -185 47 -226 108 -182 276 52 199 31 194 -282 -69 -195 -164 -355 -238 -377 -174 -52 157 -573 138 -709 -26 -92 -111 -37 -149 294 -202 224 -36 445 -42 491 -14 45 29 111 -20 145 -109 50 -132 89 -138 214 -34 116 97 182 99 269 12 88 -88 74 -116 -59 -116 -96 0 -312 -71 -479 -157 -278 -144 -320 -144 -485 6 -168 153 -191 149 -335 -56 -99 -141 -212 -197 -318 -156 -134 51 -153 144 -97 488 68 425 68 425 -131 225 -309 -311 -360 -610 -140 -830 184 -184 184 -194 7 -305 -102 -63 -252 -115 -336 -115 -182 0 -202 262 -26 336 90 38 76 84 -49 163 -159 100 -162 142 -31 456 124 295 124 345 4 345 -78 0 -199 -72 -270 -160 -415 -514 -770 -840 -914 -840 -237 0 -207 366 35 429 110 29 200 128 200 221 0 93 90 283 200 423 110 140 200 380 200 533 0 183 91 351 263 487 384 301 519 253 206 -73 -360 -376 -359 -636 1 -312 l270 242 -178 -284 c-211 -337 -176 -398 179 -309 195 49 250 113 209 243 -39 124 40 237 268 382 304 192 340 195 597 43 317 -187 283 -325 -77 -325 -287 0 -638 -164 -638 -297 0 -50 169 -64 375 -31 404 64 825 292 825 446 0 192 521 771 732 814 382 77 2067 21 2068 -68z m4900 -114 c101 -122 96 -150 -27 -150 -83 0 -178 68 -209 150 -32 83 -20 150 27 150 46 0 141 -67 209 -150z m-10669 -15 c77 -77 -331 -835 -449 -835 -124 0 -99 157 87 547 168 353 240 410 362 288z m2051 -75 c-600 -384 -602 -385 -490 -176 113 212 306 319 440 242 45 -25 67 -55 50 -66z m-1282 -54 c0 -34 -140 -215 -312 -403 -250 -274 -291 -375 -205 -513 82 -131 73 -185 -35 -227 -78 -30 -170 -8 -205 48 -113 183 66 835 274 997 203 158 483 214 483 98z m7493 -62 c444 25 807 6 807 -42 0 -47 29 -162 65 -255 57 -150 13 -161 -375 -98 -242 39 -483 112 -535 161 -154 146 -255 104 -255 -105 0 -230 506 -363 1048 -275 246 40 352 14 395 -98 60 -155 522 -148 1023 16 161 53 245 19 326 -132 101 -190 85 -200 -229 -149 -198 32 -366 9 -406 -56 -44 -70 25 -111 187 -111 141 0 256 -48 256 -106 0 -58 -44 -79 -98 -45 -54 33 -187 13 -295 -45 -163 -88 -252 -54 -506 195 -336 329 -526 363 -889 162 -272 -151 -633 -24 -959 336 -218 241 -386 167 -295 -130 65 -211 59 -210 -196 25 -183 170 -262 344 -262 579 0 301 20 325 193 233 110 -59 544 -85 1000 -60z m8587 36 c166 -166 150 -347 -37 -419 -199 -76 -481 196 -406 392 69 178 279 191 443 27z m-6638 -593 c-57 -92 -475 19 -560 149 -135 205 27 249 312 86 160 -92 271 -197 248 -235z m7158 -281 c0 -52 -45 -122 -100 -156 -55 -34 -100 8 -100 94 0 86 45 156 100 156 55 0 100 -42 100 -94z m-564 -234 c97 -70 185 -194 197 -275 13 -81 51 -192 86 -248 104 -167 -150 -418 -501 -495 -330 -73 -401 -332 -74 -273 121 22 163 -23 138 -149 -42 -219 -382 -309 -382 -100 0 80 -112 175 -250 209 -161 41 -250 133 -250 261 0 220 155 268 234 73 32 -80 53 -66 58 38 4 89 76 219 158 287 232 192 179 270 -150 221 -310 -45 -375 68 -239 421 75 195 722 215 975 30z m-17036 -228 c0 -24 -45 -44 -100 -44 -55 0 -100 48 -100 106 0 58 45 78 100 44 55 -34 100 -82 100 -106z m11600 6 c0 -82 -45 -150 -100 -150 -55 0 -100 68 -100 150 0 83 45 150 100 150 55 0 100 -67 100 -150z m600 -306 c0 -24 -45 -44 -100 -44 -55 0 -100 48 -100 106 0 58 45 78 100 44 55 -34 100 -82 100 -106z m-7500 -182 c0 -76 69 -194 152 -264 367 -304 -122 -147 -549 177 -53 41 207 221 322 223 41 1 75 -60 75 -136z m7200 -56 c0 -46 -112 -104 -250 -130 -287 -55 -332 68 -77 211 178 100 327 63 327 -81z m700 94 c0 -55 -45 -100 -100 -100 -55 0 -100 45 -100 100 0 55 45 100 100 100 55 0 100 -45 100 -100z m-12800 -256 c0 -79 -67 -144 -150 -144 -151 0 -206 211 -86 331 93 93 236 -20 236 -187z m3726 -244 c-427 -454 -619 -511 -553 -164 26 139 175 301 361 394 527 262 588 190 192 -230z m7539 154 c-32 -85 -107 -154 -165 -154 -74 0 -73 64 5 209 124 232 254 188 160 -55z m-10015 46 c-34 -55 -115 -99 -181 -98 -71 0 -59 40 31 98 192 124 227 124 150 0z m8050 0 c0 -55 -48 -100 -106 -100 -58 0 -78 45 -44 100 34 55 82 100 106 100 24 0 44 -45 44 -100z m3500 0 c0 -55 -70 -100 -156 -100 -86 0 -128 45 -94 100 34 55 104 100 156 100 52 0 94 -45 94 -100z m-10008 -359 c-123 -131 -318 -267 -433 -303 -115 -36 -237 -109 -271 -162 -41 -62 -85 -61 -125 4 -35 55 106 199 312 321 206 121 412 283 456 361 45 78 127 114 183 80 60 -38 10 -160 -122 -301z m2858 259 c-34 -55 -107 -100 -162 -100 -55 0 -72 45 -38 100 34 55 107 100 162 100 55 0 72 -45 38 -100z m7578 -104 c-29 -112 -76 -182 -103 -154 -54 54 41 358 112 358 25 0 20 -92 -9 -204z m-4428 4 c0 -55 -68 -100 -150 -100 -82 0 -150 45 -150 100 0 55 68 100 150 100 82 0 150 -45 150 -100z m3500 -56 c0 -24 -45 -44 -100 -44 -55 0 -100 48 -100 106 0 58 45 78 100 44 55 -34 100 -82 100 -106z m-8388 -171 c-98 -98 -110 -86 -56 56 38 99 94 154 125 124 30 -31 0 -112 -69 -180z m688 142 c0 -146 -319 -730 -370 -678 -77 76 173 763 278 763 50 0 92 -38 92 -85z m5050 -29 c491 0 559 -27 673 -264 169 -351 812 -403 1152 -93 l225 206 0 -264 c0 -163 78 -306 204 -373 170 -91 192 -168 134 -478 -118 -629 -323 -1012 -576 -1076 -285 -72 -364 -235 -662 -1369 -251 -953 -443 -1119 -680 -584 -144 325 -355 443 -634 355 -229 -73 -237 -224 -23 -461 140 -154 145 -224 36 -488 -83 -201 -178 -288 -271 -252 -80 30 -163 55 -186 55 -23 0 -42 45 -42 100 0 55 94 100 208 100 123 0 191 52 167 125 -24 69 -162 127 -308 129 -146 3 -320 59 -386 125 -296 296 -576 47 -580 -516 -1 -140 51 -173 210 -131 116 30 315 15 442 -33 318 -121 224 -476 -138 -518 -202 -24 -257 -79 -232 -231 18 -110 56 -341 85 -513 144 -879 -1353 -716 -2418 263 -165 152 -390 323 -500 379 -215 112 -336 332 -861 1571 -253 596 -338 940 -334 1350 7 713 112 1100 297 1100 81 0 148 57 148 126 0 70 101 171 225 225 124 55 270 201 324 325 57 129 158 204 235 175 77 -30 156 31 185 142 30 115 107 171 191 139 93 -36 140 19 140 163 0 119 -45 189 -100 155 -55 -34 -100 -13 -100 46 0 64 98 83 239 48 132 -33 269 -12 306 48 119 192 775 124 1019 -105 203 -191 271 -202 659 -104 476 120 1049 -12 1347 -310 145 -145 127 -164 -205 -227 -200 -37 -474 -40 -608 -7 -372 94 -372 -48 1 -489 323 -382 339 -388 344 -150 5 234 15 229 147 -75 78 -179 189 -325 246 -325 172 0 120 -178 -114 -397 -155 -144 -189 -235 -114 -310 74 -74 152 -60 262 50 86 86 222 131 302 101 82 -32 226 44 332 175 103 127 277 231 387 231 163 0 206 77 230 412 27 374 -13 455 -433 875 -255 255 -583 490 -730 522 -541 120 -617 158 -617 304 0 82 46 120 102 86 56 -35 348 -63 648 -63z m1700 -186 c-100 -111 -205 -179 -232 -151 -28 27 32 140 132 251 100 111 205 179 232 151 28 -27 -32 -140 -132 -251z m-10350 119 c0 -44 -61 -164 -135 -265 -152 -209 -303 -71 -205 187 62 162 340 226 340 78z m11800 -119 c0 -55 -41 -100 -92 -100 -50 0 -174 -26 -275 -58 -167 -53 -167 -45 11 100 222 181 356 203 356 58z m-7200 -228 c0 -164 -328 -446 -465 -400 -58 19 -85 146 -59 281 35 180 112 247 286 247 131 0 238 -57 238 -128z m6500 -84 c0 -55 -45 -72 -100 -38 -55 34 -100 107 -100 162 0 55 45 72 100 38 55 -34 100 -107 100 -162z m-10403 -74 c-9 -178 -305 -432 -442 -380 -196 76 -197 210 -2 405 141 141 451 124 444 -25z m16550 -214 c92 0 154 -90 154 -225 1 -124 29 -326 62 -450 116 -432 -120 -221 -252 225 -75 254 -194 450 -272 450 -146 0 -189 216 -68 338 39 39 105 -21 147 -134 42 -112 145 -204 229 -204z m-18235 21 c73 -197 62 -206 -116 -95 -108 67 -196 183 -196 256 0 202 219 89 312 -161z m2388 -64 c0 -134 45 -363 101 -509 55 -146 72 -311 37 -367 -92 -149 -235 116 -236 438 -1 148 -45 296 -98 328 -111 69 -25 353 107 353 49 0 89 -110 89 -243z m14800 148 c0 -205 -240 -608 -342 -574 -160 53 -192 358 -54 524 135 163 396 196 396 50z m-16650 -105 c34 -55 17 -100 -38 -100 -55 0 -128 45 -162 100 -34 55 -17 100 38 100 55 0 128 -45 162 -100z m4300 -108 c0 -78 -101 -156 -225 -174 -243 -34 -325 225 -100 315 189 76 325 17 325 -141z m-2801 -476 c-111 -111 -376 270 -308 446 58 152 88 137 215 -107 81 -157 123 -309 93 -339z m15518 184 c0 -165 -33 -300 -72 -300 -94 0 -174 316 -120 475 77 231 192 127 192 -175z m-16875 -105 c-217 -134 -338 24 -133 174 135 99 200 105 227 23 21 -63 -21 -152 -94 -197z m18108 155 c0 -82 -45 -150 -100 -150 -55 0 -100 68 -100 150 0 82 45 150 100 150 55 0 100 -68 100 -150z m-9103 -46 c244 -154 74 -185 -247 -44 -227 99 -252 132 -100 134 110 2 266 -39 347 -90z m-5519 -184 c223 -172 225 -184 59 -516 -93 -187 -190 -665 -216 -1062 -42 -663 -24 -751 216 -1067 154 -200 263 -473 263 -654 0 -171 56 -347 125 -391 69 -44 209 -237 313 -430 103 -192 323 -524 489 -737 206 -265 342 -597 427 -1050 69 -365 108 -682 86 -705 -22 -23 -40 11 -40 75 0 65 -45 117 -100 117 -55 0 -100 -87 -100 -194 0 -107 45 -222 100 -256 55 -34 100 -111 100 -171 0 -61 -82 -36 -183 56 -246 222 -284 211 -364 -109 -38 -151 -119 -305 -180 -343 -81 -50 -78 -142 11 -338 106 -232 101 -261 -31 -210 -183 70 -201 -47 -33 -215 245 -245 410 -141 351 222 -56 340 -54 341 303 308 197 -18 395 -99 440 -178 45 -80 206 -282 359 -449 152 -166 325 -382 383 -480 65 -109 155 -148 233 -100 97 60 83 128 -61 293 -262 300 -462 727 -393 839 31 52 -99 265 -291 474 -191 209 -321 407 -288 440 33 33 180 -86 327 -263 l267 -323 235 248 c256 270 368 305 466 147 35 -56 108 -73 164 -39 59 37 -15 184 -175 351 -151 158 -245 318 -208 355 84 85 468 -255 468 -415 0 -65 89 -200 198 -298 182 -165 203 -166 262 -13 50 131 93 141 206 48 102 -85 173 -88 250 -11 60 60 169 85 244 56 137 -52 440 182 440 341 0 49 -112 241 -250 427 -371 502 -300 612 97 150 194 -226 323 -470 296 -561 -26 -89 47 -269 162 -400 189 -214 205 -218 164 -39 -25 110 -79 279 -118 375 -43 103 -28 175 35 175 60 0 146 -146 192 -325 54 -208 154 -335 279 -354 218 -32 643 -594 643 -849 0 -92 -210 -606 -468 -1144 -497 -1041 -588 -1639 -394 -2593 75 -369 62 -422 -120 -479 -254 -81 -837 157 -1272 519 -701 582 -1032 721 -1966 827 -499 57 -991 76 -1095 43 -123 -39 -322 47 -576 248 -284 225 -493 307 -782 307 -216 0 -426 32 -465 72 -89 89 -943 317 -1212 324 -557 14 -953 218 -1141 587 -131 255 -162 426 -100 537 122 217 28 433 -274 631 -191 125 -281 136 -387 47 -225 -186 -330 -32 -396 579 -34 315 -105 651 -157 747 -211 385 -106 651 441 1118 294 252 587 458 650 458 63 0 114 73 114 162 0 133 27 140 150 38 129 -107 152 -69 164 263 8 234 30 298 57 161 67 -349 229 -159 175 205 -26 176 -21 265 11 196 125 -263 222 -107 187 300 -21 234 -13 346 17 250 29 -96 101 -175 158 -175 62 0 76 91 35 225 -39 124 -94 338 -124 475 -52 245 -50 246 113 50 160 -193 164 -188 101 137 -43 224 -23 364 59 415 69 42 130 217 136 387 6 176 65 311 136 311 69 0 125 58 125 129 0 71 90 305 200 521 110 216 200 450 200 521 0 71 45 129 100 129 55 0 100 45 100 99 0 143 416 601 543 599 59 -1 210 -82 335 -178z m-2932 -213 c31 -51 10 -122 -47 -157 -147 -92 -712 47 -644 158 74 120 616 119 691 -1z m11651 -243 c-3 -210 -6 -210 -150 -20 -189 249 -187 365 3 292 83 -31 149 -154 147 -272z m5103 30 c0 -112 -68 -194 -161 -194 -105 0 -140 54 -100 158 34 87 61 202 61 256 0 54 45 70 100 36 55 -34 100 -149 100 -256z m-15800 12 c0 -168 -177 -209 -236 -55 -35 90 0 149 89 149 81 0 147 -42 147 -94z m-448 -489 c-89 -361 -234 -493 -222 -202 5 129 -26 340 -70 469 -73 216 -62 224 139 116 173 -92 205 -172 153 -383z m16998 383 c-34 -55 -82 -100 -106 -100 -24 0 -44 45 -44 100 0 55 48 100 106 100 58 0 78 -45 44 -100z m-18550 -208 c0 -47 -67 -60 -150 -28 -82 31 -150 96 -150 144 0 47 68 60 150 28 83 -31 150 -96 150 -144z m1010 -274 c79 -388 -16 -412 -185 -47 -158 339 -158 457 -3 405 68 -23 152 -184 188 -358z m12258 31 c10 -164 -5 -220 -32 -124 -62 216 -236 232 -236 21 0 -121 -41 -131 -198 -47 -188 100 -189 115 -25 296 249 275 470 209 491 -146z m-12671 -343 c-3 -125 -33 -117 -150 38 -81 107 -146 264 -144 350 3 125 33 117 150 -38 81 -107 146 -264 144 -350z m17696 19 c-6 -301 -24 -335 -93 -175 -119 278 -119 550 0 550 55 0 97 -169 93 -375z m-1034 -279 c77 -218 119 -451 94 -518 -55 -151 218 -1089 399 -1370 337 -524 614 -2558 348 -2558 -55 0 -100 265 -100 595 0 743 -438 2205 -661 2205 -84 0 -144 77 -134 175 30 294 -1 425 -99 425 -119 0 -14 -704 133 -890 245 -308 526 -1310 538 -1920 16 -752 -85 -505 -278 686 -86 533 -168 754 -308 829 -115 61 -215 257 -253 496 -35 218 -97 374 -139 349 -141 -88 117 -997 331 -1166 166 -131 186 -195 93 -307 -72 -86 -101 -351 -73 -684 l44 -543 -95 500 c-201 1048 -337 1561 -429 1618 -100 62 -68 -221 129 -1153 158 -746 52 -761 -155 -21 -171 610 -344 880 -344 537 0 -100 86 -407 191 -684 189 -496 423 -3180 265 -3031 -39 36 -90 328 -113 650 -24 321 -59 787 -79 1034 -49 622 -390 1724 -440 1424 -21 -125 28 -453 109 -730 81 -277 133 -580 115 -674 -18 -93 -36 -229 -40 -301 -5 -72 -56 -101 -115 -65 -59 37 -82 131 -52 210 31 79 -11 333 -91 565 -81 231 -148 522 -149 646 0 124 -52 225 -113 225 -75 0 -90 -110 -44 -325 37 -179 82 -550 99 -825 18 -275 12 -354 -12 -175 -66 498 -292 411 -260 -100 l27 -425 -131 344 c-72 189 -184 362 -249 383 -140 47 -156 -97 -27 -232 95 -99 146 -387 113 -645 -25 -198 -287 485 -296 775 -5 124 -53 225 -108 225 -127 0 -129 -312 -4 -640 53 -139 58 -277 11 -306 -47 -29 -158 127 -246 347 -153 384 -354 533 -368 274 -3 -69 -55 -24 -115 100 -60 124 -153 225 -207 225 -55 0 -159 79 -232 175 -116 153 -133 155 -136 15 -2 -88 47 -304 109 -480 61 -176 86 -345 55 -376 -75 -75 -319 525 -410 1011 -86 461 -375 1062 -599 1248 -130 108 -166 102 -220 -37 -52 -137 -98 -111 -251 142 -104 170 -255 335 -338 366 -369 142 -178 244 1276 680 481 144 1072 396 1314 559 242 163 463 297 491 297 28 0 471 290 985 645 514 355 973 635 1021 622 47 -13 147 -202 223 -421z m-15259 248 c0 -58 -45 -78 -100 -44 -55 34 -100 82 -100 106 0 24 45 44 100 44 55 0 100 -48 100 -106z m15700 6 c0 -55 -45 -100 -100 -100 -55 0 -100 45 -100 100 0 55 45 100 100 100 55 0 100 -45 100 -100z m-16000 -206 c0 -58 -45 -78 -100 -44 -55 34 -100 82 -100 106 0 24 45 44 100 44 55 0 100 -48 100 -106z m10600 -38 c0 -150 -180 -310 -259 -230 -70 69 68 374 170 374 49 0 89 -65 89 -144z m417 -779 c-61 -61 -83 80 -61 389 46 641 71 672 118 145 21 -241 -4 -481 -57 -534z m-11642 529 c229 -191 307 -506 125 -506 -55 0 -100 90 -100 200 0 247 -254 263 -392 25 -92 -158 -102 -159 -105 -8 -4 213 99 484 183 480 35 -2 165 -88 289 -191z m12591 -331 c-28 -69 -50 -12 -50 125 0 138 22 194 50 125 28 -69 28 -181 0 -250z m471 246 c63 -102 -326 -721 -452 -721 -53 0 -26 100 59 222 86 122 156 302 156 400 0 181 148 243 237 99z m4262 -93 c285 -244 250 -365 -49 -169 -137 90 -250 204 -250 253 0 129 73 109 299 -84z m-4999 -278 c0 -156 -57 -250 -150 -250 -150 0 -209 308 -83 433 136 136 233 60 233 -183z m-11600 44 c0 -58 -45 -78 -100 -44 -55 34 -100 82 -100 106 0 24 45 44 100 44 55 0 100 -48 100 -106z m9735 -41 c31 -81 13 -173 -39 -206 -53 -32 -96 34 -96 147 0 242 56 266 135 59z m6025 -126 c-33 -33 -56 26 -52 131 5 117 28 141 60 61 29 -72 26 -159 -8 -192z m-5221 91 c57 -93 -331 -459 -407 -384 -69 70 157 466 266 466 49 0 113 -37 141 -82z m-11339 -342 c0 -56 -66 -45 -150 24 -82 68 -150 169 -150 224 0 56 66 45 150 -24 83 -68 150 -169 150 -224z m17300 112 c0 -55 -45 -72 -100 -38 -55 34 -100 107 -100 162 0 55 45 72 100 38 55 -34 100 -107 100 -162z m-16700 -188 c0 -110 -45 -200 -100 -200 -55 0 -100 90 -100 200 0 110 45 200 100 200 55 0 100 -90 100 -200z m16200 -62 c0 -82 -45 -122 -100 -88 -55 34 -100 129 -100 212 0 82 45 122 100 88 55 -34 100 -129 100 -212z m-5400 -138 c0 -55 -45 -100 -100 -100 -55 0 -100 45 -100 100 0 55 45 100 100 100 55 0 100 -45 100 -100z m800 61 c0 -22 -70 -66 -155 -99 -89 -34 -129 -18 -94 39 58 95 249 141 249 60z m-1600 -155 c0 -118 -195 -244 -267 -173 -71 72 55 267 173 267 52 0 94 -42 94 -94z m-400 -1006 c0 -55 -41 -100 -92 -100 -50 0 -174 -26 -275 -58 -167 -53 -167 -45 11 100 222 181 356 203 356 58z m900 -1501 c303 -356 769 -849 1038 -1098 713 -660 985 -1128 904 -1556 -89 -477 -242 -536 -242 -95 0 536 -197 327 -217 -231 -16 -416 -24 -396 -75 181 -80 896 -266 747 -229 -183 19 -488 -6 -712 -75 -669 -57 35 -105 320 -106 633 -3 717 -128 1264 -336 1472 -89 89 -162 218 -162 286 0 178 -873 1521 -1268 1951 -182 198 -330 405 -329 460 3 107 220 -122 1097 -1151z m-1900 895 c0 -52 -45 -94 -100 -94 -55 0 -100 70 -100 156 0 86 45 128 100 94 55 -34 100 -104 100 -156z m8292 -588 c-9 -528 -46 -468 -178 292 -83 481 -78 525 45 356 78 -106 137 -397 133 -648z m-8592 144 c68 -82 102 -150 74 -150 -27 0 -106 68 -174 150 -68 83 -102 150 -74 150 27 0 106 -67 174 -150z m865 -104 c94 -243 -15 -266 -214 -47 -166 183 -167 201 -13 201 92 0 195 -69 227 -154z m-1701 -416 c-41 -41 -117 -8 -168 73 -154 243 -108 352 73 171 93 -93 136 -203 95 -244z m804 45 c284 -299 532 -682 532 -818 0 -167 -221 -19 -327 218 -68 151 -247 397 -398 547 -151 149 -275 295 -275 325 0 134 187 26 468 -272z m2632 169 c0 -86 -45 -128 -100 -94 -55 34 -100 104 -100 156 0 52 45 94 100 94 55 0 100 -70 100 -156z m645 -219 c38 -124 26 -225 -28 -225 -109 0 -217 238 -217 478 0 208 154 49 245 -253z m-2268 -369 c466 -538 723 -1632 723 -3073 0 -865 165 -1783 321 -1783 106 0 100 137 -37 799 -64 308 -82 694 -42 856 l75 295 131 -313 c133 -314 307 -479 511 -484 61 -2 331 -195 600 -430 270 -235 567 -482 660 -550 139 -102 177 -365 219 -1523 38 -1033 28 -1238 -37 -781 -100 705 -271 1101 -414 958 -59 -59 -56 -196 9 -367 57 -150 96 -529 86 -842 l-18 -568 -38 486 c-29 378 -81 497 -232 537 -144 37 -194 138 -194 389 0 242 -45 338 -159 338 -131 0 -146 -74 -88 -425 39 -234 89 -537 110 -675 l38 -250 -206 243 c-132 156 -195 350 -176 542 18 174 -21 316 -94 340 -85 28 -125 -74 -125 -317 0 -436 -137 -462 -316 -59 -93 211 -182 283 -302 245 -107 -34 -211 22 -279 151 -141 263 -265 261 -335 -6 -71 -271 -308 -194 -353 116 -19 131 -119 346 -222 477 -270 343 -348 870 -169 1143 170 260 291 788 283 1239 -3 172 62 369 144 437 129 107 151 45 161 -464 6 -323 -2 -632 -19 -687 -97 -323 -100 -1050 -3 -1050 61 0 111 56 112 125 1 69 42 403 91 743 56 383 52 898 -9 1350 -55 403 -109 822 -120 932 -40 407 -493 1705 -675 1937 -400 508 -55 481 388 -31z m1076 -213 c222 -327 503 -900 625 -1271 233 -709 294 -1472 119 -1472 -126 0 -142 56 -288 997 -72 464 -188 825 -304 950 -104 112 -228 357 -276 546 -94 365 -329 543 -329 249 0 -302 -125 -66 -167 314 -56 509 127 416 620 -313z m5508 -1 c-30 -78 -96 -142 -147 -142 -54 0 -45 180 21 425 105 390 117 402 147 142 18 -156 8 -348 -21 -425z m-313 -517 c50 -505 39 -725 -38 -725 -60 0 -110 169 -111 375 0 206 -24 623 -52 925 -35 370 -23 484 38 350 49 -110 123 -526 163 -925z m1327 450 c-1 -363 -26 -463 -81 -325 -137 344 -101 850 61 850 12 0 21 -236 20 -525z m-12375 269 c0 -24 -45 -44 -100 -44 -55 0 -100 48 -100 106 0 58 45 78 100 44 55 -34 100 -82 100 -106z m2401 -169 c290 -476 235 -577 -101 -184 -160 188 -268 379 -240 425 84 136 132 102 341 -241z m1246 -28 c201 -201 350 -449 347 -575 -5 -211 -12 -213 -125 -33 -65 104 -265 339 -444 522 -179 183 -325 356 -325 386 0 143 228 18 547 -300z m-10505 192 c221 -84 198 -239 -36 -239 -242 0 -375 -196 -204 -301 113 -70 393 -724 396 -928 4 -190 -393 158 -571 501 -207 399 -196 568 52 853 174 200 155 194 363 114z m7560 -591 c70 -84 99 -181 65 -215 -73 -72 -367 151 -367 279 0 138 163 103 302 -64z m11096 -493 c1 -242 -34 -358 -90 -300 -86 89 -144 510 -117 845 26 324 206 -148 207 -545z m-3312 55 c190 -568 118 -694 -91 -160 -107 275 -195 543 -195 595 0 173 169 -83 286 -435z m3612 265 c-1 -176 -21 -193 -93 -80 -50 80 -70 181 -42 225 86 141 137 86 135 -145z m-20398 -55 c0 -149 -239 -320 -445 -318 -192 2 -189 15 45 198 267 209 400 249 400 120z m14255 -776 c34 -223 47 -538 28 -700 -23 -206 -96 -12 -244 645 -196 874 -198 923 -29 700 101 -131 211 -422 245 -645z m-1555 394 c0 -82 -45 -122 -100 -88 -55 34 -100 129 -100 212 0 82 45 122 100 88 55 -34 100 -129 100 -212z m5612 -63 c6 -179 5 -378 -3 -442 -8 -65 32 -146 88 -181 57 -35 103 -16 103 42 0 58 45 106 100 106 203 0 92 -280 -134 -337 -128 -32 -283 -161 -343 -286 l-109 -227 -7 219 c-4 121 41 249 99 285 66 40 84 271 49 606 -36 336 -20 540 44 540 55 0 106 -146 113 -325z m-16412 119 c0 -58 -45 -78 -100 -44 -55 34 -100 82 -100 106 0 24 45 44 100 44 55 0 100 -48 100 -106z m14697 -394 c0 -133 -11 -133 -97 0 -53 83 -97 218 -97 300 0 133 11 133 97 0 53 -82 97 -217 97 -300z m-8897 88 c0 -55 -45 -72 -100 -38 -55 34 -100 107 -100 162 0 55 45 72 100 38 55 -34 100 -107 100 -162z m9960 -61 c-33 -33 -56 26 -52 131 5 117 28 141 60 61 29 -72 26 -159 -8 -192z m2000 0 c-33 -33 -56 26 -52 131 5 117 28 141 60 61 29 -72 26 -159 -8 -192z m-18537 -127 c118 -110 319 -200 446 -200 165 0 269 -91 366 -325 75 -179 120 -344 101 -367 -20 -23 -213 101 -430 275 -217 174 -426 317 -464 317 -82 0 -334 316 -339 425 -5 124 94 86 320 -125z m-4523 -481 c0 -44 -66 -168 -147 -275 -150 -198 -202 -87 -92 198 62 163 239 220 239 77z m16560 -379 c-36 -93 -87 -146 -115 -119 -27 28 -21 126 15 219 36 93 87 146 115 119 27 -28 21 -126 -15 -219z m4638 185 c0 -41 -45 -142 -98 -225 -78 -121 -97 -107 -98 75 -1 124 43 225 98 225 55 0 99 -34 98 -75z m802 -175 c0 -82 -45 -150 -100 -150 -55 0 -100 68 -100 150 0 83 45 150 100 150 55 0 100 -67 100 -150z m-15600 -150 c0 -110 -16 -200 -35 -200 -18 0 -115 90 -215 200 -176 194 -175 200 35 200 148 0 215 -62 215 -200z m-555 -200 c140 0 255 -45 255 -100 0 -55 90 -190 200 -300 110 -110 200 -268 200 -351 0 -248 -379 46 -497 387 -81 231 -129 267 -240 175 -108 -90 -210 -47 -475 202 l-338 316 320 -164 c176 -91 435 -165 575 -165z m13727 -927 c-22 -178 -40 -8 -39 377 0 385 18 530 40 323 22 -208 21 -523 -1 -700z m-3425 202 c-39 -179 -132 -477 -208 -662 -174 -424 -177 -889 -6 -1216 247 -473 263 -692 56 -803 -152 -81 -207 -65 -265 77 -138 335 -73 1766 106 2354 188 616 437 812 317 250z m4013 -248 c-33 -33 -56 26 -52 131 5 117 28 141 60 61 29 -72 26 -159 -8 -192z m-14300 -100 c-33 -33 -56 26 -52 131 5 117 28 141 60 61 29 -72 26 -159 -8 -192z m235 -1422 c49 -566 143 -1080 209 -1142 93 -88 105 29 52 519 -37 347 -92 696 -122 775 -31 79 -11 143 44 143 101 0 291 -1229 232 -1500 -18 -82 -27 -375 -20 -650 9 -363 -15 -459 -87 -350 -55 83 -101 230 -101 328 -1 98 -67 203 -147 234 -159 61 -334 811 -370 1588 -74 1591 173 1635 310 55z m14440 841 c-33 -85 -81 -133 -107 -107 -27 26 -18 96 18 154 98 160 156 129 89 -47z m-364 -823 c-22 -150 -41 -3 -40 327 1 330 19 453 41 273 23 -180 22 -450 -1 -600z m-19071 327 c-71 -85 -151 -132 -179 -105 -27 28 8 120 79 205 71 85 151 132 179 105 27 -28 -8 -120 -79 -205z m19000 -2300 c0 -500 -41 -850 -100 -850 -111 0 -142 1525 -33 1633 124 124 133 69 133 -783z m-7600 111 c0 -131 -91 -345 -201 -475 -111 -130 -190 -174 -175 -98 14 75 -30 158 -99 183 -69 25 -125 -3 -125 -63 0 -59 -50 -108 -111 -108 -71 0 -86 99 -42 274 96 381 238 526 515 526 184 0 238 -54 238 -239z m6466 -188 c-28 -68 -49 12 -47 177 3 165 25 220 50 123 26 -97 24 -232 -3 -300z m-12068 -615 c2 -822 -95 -817 -160 8 -25 321 -64 636 -85 699 -22 64 -12 143 22 177 132 132 222 -223 223 -884z m13668 33 c27 -167 1 -291 -60 -291 -58 0 -107 101 -107 225 -1 124 -27 338 -57 475 -50 222 -43 229 61 66 65 -102 138 -315 163 -475z m-866 109 c0 -55 -45 -100 -100 -100 -55 0 -100 45 -100 100 0 55 45 100 100 100 55 0 100 -45 100 -100z m-19200 -1019 c0 -45 -67 -81 -150 -81 -98 0 -149 96 -147 275 3 263 10 267 150 81 81 -107 147 -231 147 -275z"/>
<path d="M11771 21538 c-39 -39 -71 -124 -71 -189 0 -146 724 -47 740 101 12 117 -564 193 -669 88z"/>
<path d="M12700 21300 c0 -55 45 -100 100 -100 55 0 100 45 100 100 0 55 -45 100 -100 100 -55 0 -100 -45 -100 -100z"/>
<path d="M10200 19300 c0 -55 115 -100 256 -100 145 0 229 43 194 100 -34 55 -149 100 -256 100 -107 0 -194 -45 -194 -100z"/>
<path d="M9825 18934 c-69 -28 -125 -92 -125 -142 0 -145 263 -107 400 58 100 121 98 148 -13 142 -75 -4 -193 -30 -262 -58z"/>
<path d="M9567 18433 c-96 -95 -83 -233 22 -233 49 0 116 68 147 150 59 152 -48 205 -169 83z"/>
<path d="M6800 17400 c0 -55 20 -100 44 -100 24 0 72 45 106 100 34 55 14 100 -44 100 -58 0 -106 -45 -106 -100z"/>
<path d="M15200 13000 c0 -55 20 -100 44 -100 24 0 72 45 106 100 34 55 14 100 -44 100 -58 0 -106 -45 -106 -100z"/>
<path d="M13936 7150 c-34 -90 -18 -208 37 -263 67 -67 118 -31 154 106 65 250 -102 387 -191 157z"/>
<path d="M13362 7019 c-73 -117 315 -475 410 -380 83 82 -86 382 -245 435 -60 20 -134 -5 -165 -55z"/>
<path d="M11907 6775 c4 -69 44 -215 89 -325 77 -188 87 -189 156 -19 41 99 136 157 211 128 155 -59 162 -41 75 185 -47 125 -93 135 -200 46 -100 -83 -138 -84 -138 -2 0 61 -45 112 -100 112 -55 0 -97 -56 -93 -125z"/>
<path d="M11253 24905 c-83 -135 50 -615 153 -551 47 29 76 186 65 349 -21 298 -109 379 -218 202z"/>
<path d="M20000 24800 c0 -110 60 -200 133 -200 188 0 262 96 199 260 -81 212 -332 167 -332 -60z"/>
<path d="M21647 24895 c-95 -154 35 -253 163 -125 72 72 74 128 6 170 -56 35 -132 15 -169 -45z"/>
<path d="M3800 24800 c0 -55 45 -100 100 -100 55 0 100 45 100 100 0 55 -45 100 -100 100 -55 0 -100 -45 -100 -100z"/>
<path d="M18800 24700 c0 -55 45 -100 100 -100 55 0 100 45 100 100 0 55 -45 100 -100 100 -55 0 -100 -45 -100 -100z"/>
<path d="M19100 24400 c0 -55 45 -100 100 -100 55 0 100 45 100 100 0 55 -45 100 -100 100 -55 0 -100 -45 -100 -100z"/>
<path d="M23050 24400 c-34 -55 -14 -100 44 -100 58 0 106 45 106 100 0 55 -20 100 -44 100 -24 0 -72 -45 -106 -100z"/>
<path d="M1200 24100 c0 -55 45 -100 100 -100 55 0 100 45 100 100 0 55 -45 100 -100 100 -55 0 -100 -45 -100 -100z"/>
<path d="M2800 24100 c0 -55 45 -100 100 -100 55 0 100 45 100 100 0 55 -45 100 -100 100 -55 0 -100 -45 -100 -100z"/>
<path d="M19368 24134 c-118 -118 134 -315 336 -262 237 62 254 184 38 267 -203 78 -293 77 -374 -5z"/>
<path d="M21050 24100 c34 -55 104 -100 156 -100 52 0 94 45 94 100 0 55 -70 100 -156 100 -86 0 -128 -45 -94 -100z"/>
<path d="M23100 24156 c0 -106 192 -150 249 -58 35 56 -7 102 -93 102 -86 0 -156 -20 -156 -44z"/>
<path d="M2000 23958 c0 -87 71 -158 158 -158 177 0 146 215 -39 277 -66 22 -119 -32 -119 -119z"/>
<path d="M20700 24006 c0 -58 45 -106 100 -106 55 0 100 20 100 44 0 24 -45 72 -100 106 -55 34 -100 14 -100 -44z"/>
<path d="M23475 23989 c-96 -54 -175 -161 -175 -237 0 -157 346 -297 499 -203 56 35 101 -14 101 -109 0 -159 14 -158 198 8 208 188 175 437 -35 263 -146 -121 -327 -21 -376 208 -29 130 -78 146 -212 70z"/>
<path d="M20217 23900 c50 -151 211 -167 258 -25 23 69 -33 125 -125 125 -92 0 -152 -45 -133 -100z"/>
<path d="M24400 23600 c-119 -119 -189 -244 -156 -278 34 -33 159 37 278 156 119 119 189 244 156 278 -34 33 -159 -37 -278 -156z"/>
<path d="M9108 22758 c-4 -105 19 -164 52 -131 34 33 37 120 8 192 -32 80 -55 56 -60 -61z"/>
<path d="M24500 20368 c0 -187 163 -309 242 -181 31 50 -11 146 -93 214 -121 100 -149 94 -149 -33z"/>
<path d="M2800 19156 c0 -86 45 -156 100 -156 55 0 100 42 100 94 0 52 -45 122 -100 156 -55 34 -100 -8 -100 -94z"/>
<path d="M2658 18636 c-34 -91 -50 -170 -35 -177 242 -113 676 -226 674 -175 -6 116 -375 516 -477 516 -54 0 -127 -74 -162 -164z"/>
<path d="M4667 15533 c-37 -36 -67 -113 -67 -170 0 -62 47 -56 118 15 65 65 95 142 67 170 -28 29 -82 22 -118 -15z"/>
<path d="M4358 15013 c-43 -69 -51 -153 -18 -186 89 -90 187 42 139 187 -34 101 -58 101 -121 -1z"/>
<path d="M802 13725 c1 -223 157 -473 224 -361 55 94 -87 536 -173 536 -29 0 -52 -79 -51 -175z"/>
<path d="M1100 13000 c0 -55 45 -100 100 -100 55 0 100 45 100 100 0 55 -45 100 -100 100 -55 0 -100 -45 -100 -100z"/>
<path d="M2800 12900 c0 -55 42 -100 94 -100 52 0 122 45 156 100 34 55 -8 100 -94 100 -86 0 -156 -45 -156 -100z"/>
<path d="M2500 12650 c0 -82 45 -150 100 -150 55 0 100 68 100 150 0 83 -45 150 -100 150 -55 0 -100 -67 -100 -150z"/>
<path d="M1300 12567 c0 -171 104 -276 210 -211 100 62 2 344 -121 344 -49 0 -89 -60 -89 -133z"/>
<path d="M1600 12050 c0 -82 75 -112 200 -79 110 29 200 64 200 79 0 15 -90 50 -200 79 -125 33 -200 3 -200 -79z"/>
<path d="M1700 11600 c0 -55 45 -100 100 -100 55 0 100 45 100 100 0 55 -45 100 -100 100 -55 0 -100 -45 -100 -100z"/>
<path d="M1800 11150 c0 -82 45 -150 100 -150 55 0 100 68 100 150 0 83 -45 150 -100 150 -55 0 -100 -67 -100 -150z"/>
<path d="M1960 10716 c-35 -56 -15 -132 45 -169 154 -95 253 35 125 163 -72 72 -128 74 -170 6z"/>
<path d="M2100 10100 c0 -55 45 -100 100 -100 55 0 100 45 100 100 0 55 -45 100 -100 100 -55 0 -100 -45 -100 -100z"/>
<path d="M2164 9731 c-113 -113 -69 -231 86 -231 83 0 150 42 150 94 0 126 -156 217 -236 137z"/>
<path d="M2200 9050 c0 -82 45 -150 100 -150 55 0 100 68 100 150 0 83 -45 150 -100 150 -55 0 -100 -67 -100 -150z"/>
<path d="M275 5342 c-41 -41 -75 -171 -75 -289 0 -117 -48 -261 -106 -319 -58 -58 -90 -348 -72 -645 l33 -539 177 383 c175 378 211 1580 43 1409z"/>
<path d="M8013 3526 c344 -438 686 -765 687 -658 0 65 -60 178 -134 252 -74 74 -188 234 -254 357 -65 123 -190 223 -278 223 -137 0 -139 -24 -21 -174z"/>
<path d="M8084 2351 c-26 -27 -15 -286 26 -575 42 -289 79 -782 83 -1095 7 -560 105 -756 312 -628 65 40 70 109 13 181 -50 64 -123 476 -161 916 -103 1178 -138 1335 -273 1201z"/>
<path d="M13700 2200 c0 -55 45 -100 100 -100 55 0 100 45 100 100 0 55 -45 100 -100 100 -55 0 -100 -45 -100 -100z"/>
<path d="M14017 1824 c-266 -551 -406 -1257 -291 -1472 59 -111 89 -221 66 -244 -23 -23 14 -60 83 -83 69 -23 128 18 133 92 29 517 163 709 311 445 84 -150 121 -160 191 -49 119 188 112 587 -10 587 -55 0 -100 -40 -100 -89 0 -50 -112 -83 -250 -75 -287 16 -302 72 -113 444 200 393 289 720 195 719 -45 0 -142 -124 -215 -275z"/>
<path d="M13497 1742 c-56 -148 -82 -291 -56 -316 80 -81 233 64 288 272 81 311 -116 349 -232 44z"/>
<path d="M15158 1836 c-34 -91 -42 -185 -17 -210 79 -80 259 80 259 230 0 196 -164 182 -242 -20z"/>
<path d="M15500 1456 c0 -134 45 -272 100 -306 58 -36 100 66 100 244 0 168 -45 306 -100 306 -55 0 -100 -110 -100 -244z"/>
<path d="M14350 1499 c-35 -55 10 -128 98 -162 191 -74 298 7 206 156 -83 135 -223 137 -304 6z"/>
<path d="M23299 1475 c-1 -69 -30 -231 -65 -361 -59 -220 -47 -228 165 -115 163 88 193 144 104 199 -88 55 -92 97 -14 145 160 99 136 257 -39 257 -82 0 -151 -56 -151 -125z"/>
<path d="M14953 1405 c-96 -155 -351 -1038 -352 -1219 -1 -141 150 -166 1074 -179 l1075 -14 -2 451 c-3 562 -163 757 -465 569 -193 -121 -207 -114 -157 77 65 249 -110 396 -236 198 -48 -76 -88 -260 -88 -409 -1 -172 -79 -313 -210 -383 -186 -100 -197 -92 -104 81 114 213 -20 423 -270 423 -92 0 -123 70 -89 200 56 214 -75 368 -176 205z m1565 -827 c-71 -71 -118 -77 -118 -15 0 134 118 252 185 185 28 -28 -2 -105 -67 -170z m-1315 -72 c-57 -107 -149 -223 -204 -256 -140 -87 -123 186 21 330 187 187 298 141 183 -74z m847 -106 c-38 -118 -91 -193 -118 -165 -28 27 -20 147 18 265 38 118 91 193 118 165 28 -27 20 -147 -18 -265z m450 -206 c0 -52 -67 -94 -150 -94 -155 0 -199 118 -86 231 80 80 236 -11 236 -137z"/>
<path d="M8766 728 c-34 -366 -40 -687 -14 -713 109 -110 188 123 228 674 60 827 -137 863 -214 39z"/>
<path d="M13319 1094 c24 -72 103 -151 175 -175 75 -25 112 12 87 87 -24 72 -103 151 -175 175 -75 25 -112 -12 -87 -87z"/>
<path d="M2871 469 c-291 -382 -324 -469 -178 -469 134 0 530 582 486 713 -20 61 -159 -49 -308 -244z"/>
<path d="M17057 543 c-163 -163 -180 -343 -32 -343 41 0 142 0 224 0 93 0 138 76 120 197 -45 294 -126 332 -312 146z"/>
<path d="M17500 358 c0 -87 71 -158 158 -158 87 0 141 53 119 119 -62 185 -277 216 -277 39z"/>
<path d="M3101 203 c-123 -231 15 -275 192 -62 75 91 81 163 17 203 -55 34 -149 -30 -209 -141z"/>
<path d="M14200 150 c0 -82 66 -150 147 -150 89 0 124 59 89 150 -74 194 -236 194 -236 0z"/>
</g>
</svg>