<svg xmlns="http://www.w3.org/2000/svg" version="1.0" width="250" height="250" viewBox="0 0 250.000000 250.000000" preserveAspectRatio="xMidYMid meet">
<metadata>
Created by potrace 1.10, written by Peter Selinger 2001-2011
</metadata>
<g transform="translate(0.000000,250.000000) scale(0.010000,-0.010000)" fill="#555555" stroke="none">
<path d="M1400 24934 c-1208 -71 -1400 -125 -1400 -390 0 -161 59 -248 175 -256 167 -11 167 -13 0 -57 -123 -32 -175 -146 -175 -384 l0 -337 625 -36 625 -35 -621 -20 -622 -19 11 -1100 c7 -729 48 -1101 121 -1102 172 -3 1283 -1119 1550 -1556 313 -512 432 -1013 257 -1080 -88 -33 -152 78 -196 340 -37 215 -204 583 -373 819 -380 533 -1120 1279 -1267 1279 -194 0 -117 -384 90 -450 110 -35 200 -94 200 -132 1 -37 169 -248 375 -467 548 -583 724 -868 724 -1171 1 -149 61 -306 135 -350 87 -52 178 -498 260 -1280 69 -660 159 -1267 200 -1350 41 -82 43 -262 5 -400 l-70 -250 -63 250 c-35 138 -135 678 -223 1200 -259 1551 -303 1720 -620 2400 -199 427 -443 763 -713 980 l-410 329 0 -607 c0 -448 39 -623 150 -666 82 -31 150 -102 150 -157 0 -55 -67 -74 -150 -43 -84 32 -150 3 -150 -67 0 -68 189 -213 419 -322 329 -154 448 -282 551 -588 155 -463 129 -507 -240 -409 -154 41 -224 95 -155 121 216 79 137 235 -175 344 -344 120 -398 285 -94 285 113 0 178 45 144 100 -34 55 -149 100 -256 100 -258 0 -273 -544 -19 -692 167 -97 167 -102 0 -105 -349 -6 -162 -191 400 -395 316 -115 446 -184 288 -154 -157 31 -422 83 -588 116 -232 46 -291 28 -255 -80 26 -77 133 -155 238 -173 586 -99 942 -240 942 -371 0 -176 -198 -185 -714 -30 -361 108 -602 66 -456 -79 35 -35 342 -136 683 -226 718 -187 964 -478 325 -384 -213 32 -534 89 -713 128 -257 55 -325 38 -325 -85 0 -153 127 -195 974 -323 234 -36 451 -106 482 -156 103 -168 -259 -218 -862 -121 -462 74 -594 68 -594 -30 0 -76 302 -193 750 -293 413 -92 750 -208 750 -257 0 -136 -598 -100 -1050 63 -481 173 -450 170 -450 45 0 -57 112 -146 250 -198 323 -123 323 -237 0 -176 -161 31 -250 3 -250 -80 0 -72 329 -230 753 -361 l752 -233 -27 -842 c-19 -564 -69 -856 -153 -883 -73 -24 -125 44 -125 162 0 134 -118 260 -342 366 -362 172 -615 529 -284 401 363 -140 726 -177 726 -74 0 58 -240 176 -534 261 -361 105 -569 228 -643 382 -97 201 -110 176 -116 -226 -4 -249 52 -541 125 -650 304 -455 553 -1245 612 -1947 34 -412 87 -914 117 -1115 29 -201 -43 -937 -161 -1635 -118 -698 -192 -1291 -164 -1319 74 -75 263 672 263 1044 1 179 52 325 115 325 81 0 96 -200 51 -683 -67 -722 -273 -1260 -517 -1354 -82 -31 -148 -126 -148 -210 0 -84 -56 -142 -125 -128 -94 19 -130 -303 -145 -1305 -20 -1279 -13 -1328 175 -1269 117 38 195 16 195 -54 0 -63 -90 -139 -200 -168 -247 -64 -263 -225 -25 -241 167 -11 167 -13 0 -57 -96 -25 -175 -110 -175 -188 0 -115 207 -143 1046 -143 969 0 1056 -16 1162 -215 112 -209 102 -214 -337 -153 -248 34 -490 68 -536 77 -268 47 -1335 -21 -1335 -86 0 -43 251 -136 557 -207 438 -102 588 -104 703 -7 116 96 300 93 869 -16 396 -75 781 -139 853 -141 171 -5 349 -321 261 -463 -79 -129 -1297 -56 -2461 146 l-753 131 -7 -278 c-8 -252 30 -283 410 -333 1095 -143 2423 -255 3025 -255 549 0 654 -26 607 -150 -35 -90 -1 -150 86 -150 81 0 121 60 91 139 -76 197 3467 106 3913 -101 246 -114 937 -136 3642 -114 3384 26 3821 79 3105 376 -369 153 -530 44 -251 -169 200 -152 200 -152 0 -97 -347 96 -2730 258 -4600 314 -990 30 -2160 85 -2600 123 -440 38 -1038 57 -1329 44 -752 -35 -1445 235 -1119 436 127 79 3176 -110 5048 -312 2486 -269 2506 -270 2400 -165 -55 55 -617 153 -1250 219 -2820 292 -4098 401 -4737 404 -580 3 -669 25 -570 144 80 97 84 162 12 206 -136 84 -326 -33 -251 -154 32 -51 -80 -93 -248 -93 -187 0 -306 51 -306 133 0 177 424 567 616 567 208 0 484 321 484 564 0 230 410 642 867 873 424 214 950 1009 1009 1526 98 858 -349 1532 -1176 1775 -479 141 -642 403 -315 507 400 127 337 671 -94 808 -137 43 -193 127 -163 242 25 97 6 247 -42 334 -111 198 -139 1903 -39 2371 41 193 171 455 289 583 202 220 204 241 39 361 -190 139 -236 507 -75 606 152 94 119 250 -53 250 -264 0 -283 288 -33 503 311 267 766 213 1589 -189 775 -378 1356 -1085 1572 -1911 79 -304 178 -598 221 -653 158 -204 397 -1129 542 -2100 276 -1855 -54 -3756 -855 -4924 -352 -512 -547 -626 -1073 -626 -306 0 -430 50 -515 209 -143 268 -238 175 -155 -154 55 -221 118 -255 468 -255 244 0 379 -40 342 -100 -34 -55 -138 -100 -231 -101 -93 0 -300 -69 -460 -152 -185 -97 -496 -142 -850 -125 -583 29 -798 -120 -347 -241 141 -38 849 -94 1573 -124 1381 -59 3509 -242 3765 -324 102 -32 50 -90 -161 -180 -214 -90 -447 -106 -750 -51 -472 87 -546 71 -443 -95 36 -59 257 -107 490 -107 233 0 467 -41 519 -91 92 -88 2036 -283 5065 -509 808 -60 1568 -128 1689 -152 214 -41 2466 -173 5216 -306 860 -41 1375 -30 1375 30 0 55 -757 129 -1775 173 -976 42 -1978 88 -2225 101 -248 14 -645 124 -883 245 -489 250 -830 230 -367 -21 296 -160 297 -162 50 -165 -137 -2 -632 39 -1100 91 -846 94 -1333 135 -3050 255 -1278 89 -1707 125 -3525 295 -391 36 -375 154 21 154 341 0 365 16 241 165 -151 183 -292 187 2363 -82 605 -61 1393 -124 1750 -140 358 -15 729 -31 825 -35 96 -5 175 -71 175 -147 0 -77 71 -167 158 -200 214 -82 242 -78 242 39 0 55 -67 100 -150 100 -235 0 -176 172 75 217 185 33 1277 -77 3525 -356 165 -20 840 -66 1500 -102 660 -35 1403 -89 1650 -118 l450 -53 26 2106 c18 1502 -6 2106 -86 2106 -76 0 -88 122 -39 375 115 598 154 4040 45 3972 -53 -32 -96 11 -96 97 0 86 45 156 100 156 56 0 100 269 100 606 0 378 -38 583 -100 544 -55 -34 -100 -14 -100 44 0 58 45 106 100 106 60 0 100 406 100 1017 0 816 -34 1054 -169 1204 -160 176 -160 184 0 123 271 -104 215 569 -124 1501 -161 443 -318 918 -349 1055 -31 138 -100 318 -154 400 -155 237 -461 -11 -424 -344 63 -567 -602 -1243 -1751 -1781 l-665 -311 -936 118 c-955 121 -2103 501 -2999 992 -263 145 -771 416 -1129 603 -357 187 -897 551 -1200 810 -877 748 -1285 1041 -2350 1683 -1204 725 -1775 902 -3138 971 l-1039 52 -661 -388 c-1005 -589 -1621 -1360 -1761 -2208 -41 -246 -114 -524 -164 -617 -49 -94 -108 -544 -131 -1000 -23 -457 -92 -1496 -153 -2309 -60 -813 -79 -1529 -41 -1591 38 -62 83 -553 99 -1091 l28 -979 -649 30 c-357 16 -698 78 -758 138 -75 75 -100 1295 -81 3990 16 2135 33 5423 39 7307 5 1884 39 3425 74 3425 36 0 18 183 -39 407 -82 327 -74 437 43 554 128 128 191 104 514 -201 439 -414 463 -560 93 -560 l-275 0 -15 -925 c-16 -1001 63 -1275 369 -1275 236 0 263 281 35 368 -132 51 -149 155 -94 572 101 780 163 960 330 960 84 0 208 75 275 167 110 150 170 153 611 27 269 -76 528 -127 576 -112 48 14 60 -47 26 -135 -66 -171 80 -368 346 -468 113 -43 146 -149 114 -370 -54 -364 31 -387 341 -96 125 118 331 225 457 238 126 13 261 29 301 36 39 7 44 86 10 175 -85 221 135 144 1617 -565 1176 -562 1612 -731 2187 -848 168 -34 306 -138 336 -254 28 -107 130 -195 225 -195 96 0 301 -118 457 -262 236 -220 314 -244 471 -146 180 113 925 -75 2925 -738 220 -72 783 -211 1250 -307 468 -96 1278 -352 1800 -570 523 -217 1024 -418 1114 -445 274 -83 1143 -526 1036 -528 -55 -1 -347 65 -650 146 -675 181 -930 189 -875 26 52 -157 1839 -589 2130 -516 144 36 314 -29 506 -196 285 -248 286 -254 89 -405 -110 -84 -267 -127 -350 -95 -82 31 -420 144 -750 250 -330 106 -812 263 -1070 348 -459 151 -880 118 -880 -69 0 -51 128 -93 285 -93 157 0 416 -40 575 -89 160 -49 695 -213 1190 -366 495 -152 956 -291 1025 -308 214 -53 141 -647 -123 -993 -375 -492 -856 -740 -1618 -834 -1020 -126 -1601 22 -3210 817 -784 388 -1454 677 -1489 642 -114 -114 153 -333 574 -472 227 -75 435 -195 462 -267 28 -71 102 -129 165 -127 63 1 384 -132 714 -297 1007 -504 1641 -644 2589 -571 623 48 949 128 1288 318 533 298 1307 1241 1215 1481 -34 89 38 321 159 517 150 244 207 466 180 703 -42 354 2 388 374 288 204 -55 220 -103 535 -1592 69 -326 87 -214 97 601 l13 1002 -625 213 c-344 117 -1075 379 -1625 581 -550 203 -1495 543 -2100 756 -605 213 -1550 551 -2100 752 -1817 662 -4564 1545 -4809 1545 -87 0 -436 152 -775 339 -339 186 -796 394 -1016 462 -220 67 -692 249 -1050 403 -1054 455 -4333 1478 -4967 1550 -403 46 -678 143 -884 312 l-299 245 2200 -62 c3186 -90 3965 -225 3880 -669 -39 -206 11 -249 414 -357 252 -68 545 -123 649 -123 221 0 1246 -495 1174 -566 -27 -27 -177 18 -334 99 -377 195 -1287 335 -1194 184 38 -60 235 -140 440 -176 204 -37 501 -133 659 -214 158 -80 403 -123 543 -97 330 63 959 -116 2019 -574 468 -202 1210 -482 1650 -621 440 -139 1076 -384 1412 -544 337 -160 648 -291 692 -291 44 0 579 -220 1188 -489 1125 -496 2353 -910 2711 -913 260 -1 776 -193 1419 -527 596 -310 728 -332 728 -121 0 83 -61 150 -137 150 -75 0 -247 88 -384 195 -136 107 -603 290 -1038 408 -1671 450 -2217 632 -2991 997 -440 207 -912 409 -1050 450 -137 40 -570 226 -960 412 -391 186 -799 338 -906 338 -108 0 -283 66 -390 147 -107 81 -290 148 -408 150 -196 3 -997 328 -1986 807 -220 107 -557 225 -750 262 -388 76 -1277 496 -1482 702 -73 73 -298 132 -500 133 -202 0 -503 90 -668 199 -681 451 372 173 2650 -700 743 -285 1474 -555 1625 -602 151 -46 398 -171 550 -277 151 -106 545 -286 875 -400 330 -114 780 -284 1000 -378 220 -94 736 -255 1146 -359 410 -103 840 -250 956 -326 116 -76 366 -184 555 -240 188 -57 658 -220 1043 -364 385 -144 954 -327 1265 -408 311 -80 884 -276 1275 -435 645 -263 710 -273 710 -108 0 196 -35 211 -2100 881 -687 224 -1428 498 -1646 611 -218 113 -481 205 -584 205 -104 0 -298 86 -431 191 -134 105 -478 222 -766 261 -288 38 -708 154 -935 256 -227 102 -587 227 -800 278 -213 50 -748 259 -1188 463 -440 203 -1070 495 -1400 648 -330 154 -1205 488 -1945 744 -1291 446 -1488 529 -1397 584 33 20 2500 -75 3192 -123 82 -6 307 21 500 59 311 61 335 52 218 -90 -100 -119 -105 -209 -22 -363 102 -191 91 -198 -150 -107 -323 123 -546 127 -546 9 0 -108 1367 -538 1534 -482 64 21 -19 115 -184 209 l-300 169 550 -63 c303 -35 593 -104 645 -153 52 -50 173 -90 269 -90 246 0 314 -158 168 -391 -68 -110 -104 -215 -78 -233 525 -378 905 -576 1104 -576 430 0 1620 -376 1713 -541 60 -107 230 -159 523 -159 343 0 431 -35 420 -166 -17 -203 859 -471 1018 -312 64 64 197 43 383 -59 157 -87 366 -188 466 -224 99 -36 157 -127 128 -202 -29 -75 -27 -204 5 -287 67 -174 302 -201 356 -40 26 77 202 62 577 -50 701 -208 703 -208 703 119 0 249 -59 300 -550 467 -302 102 -550 229 -550 281 0 88 482 41 925 -89 124 -37 175 5 175 144 0 156 -239 287 -1225 670 -674 261 -1450 577 -1725 702 -866 395 -2058 846 -2233 846 -193 -1 -1072 275 -1366 428 -212 110 -672 196 -1000 187 -110 -4 -299 59 -421 139 -122 80 -302 138 -401 130 -372 -32 -629 20 -629 127 0 64 94 88 225 56 124 -30 1024 -66 2000 -81 976 -14 1775 -58 1775 -98 0 -40 -292 -103 -650 -142 -698 -74 -893 -247 -275 -244 206 1 915 91 1575 200 1289 213 3592 274 3700 98 34 -55 -41 -101 -169 -102 -814 -9 -3682 -461 -3826 -604 -139 -137 333 -118 1174 49 397 78 1194 193 1771 254 1444 155 1700 245 1700 599 0 278 -8 282 -725 330 -794 52 -21986 60 -22875 8z m1800 -134 c0 -55 -67 -100 -150 -100 -82 0 -150 45 -150 100 0 55 68 100 150 100 83 0 150 -45 150 -100z m1000 6 c0 -52 -48 -124 -106 -160 -96 -59 -71 -368 70 -871 33 -115 -6 -175 -113 -175 -138 0 -152 -74 -93 -468 104 -692 111 -3677 20 -8137 -44 -2176 -44 -4223 1 -4551 114 -835 18 -1683 -195 -1724 -98 -18 -194 53 -232 172 -79 252 -73 4870 13 10058 36 2145 72 4328 79 4850 8 523 23 984 35 1025 31 110 521 92 521 -19z m-1750 -706 c79 -127 -153 -127 -350 0 -122 79 -109 97 69 98 121 1 247 -43 281 -98z m-450 -489 c0 -49 -67 -116 -150 -147 -91 -35 -150 0 -150 89 0 81 68 147 150 147 83 0 150 -40 150 -89z m1029 -111 c-29 -110 -70 -200 -91 -200 -21 0 -38 90 -38 200 0 110 41 200 91 200 49 0 67 -90 38 -200z m16558 -381 c701 -157 946 -326 751 -521 -51 -51 -236 -51 -438 0 -527 133 -1600 533 -1600 597 0 117 580 83 1287 -76z m-11562 -89 c151 -30 275 -94 275 -142 0 -121 -471 -111 -707 16 -242 129 -258 342 -18 250 96 -38 299 -93 450 -124z m-6456 -285 c21 -65 -100 -90 -317 -64 -194 22 -352 84 -352 136 0 129 625 61 669 -72z m731 -95 c69 -84 80 -150 24 -150 -55 0 -156 68 -224 150 -69 84 -80 150 -24 150 55 0 156 -67 224 -150z m19948 -418 c631 -259 863 -532 452 -532 -110 0 -200 -45 -200 -100 0 -133 -332 -127 -637 12 -145 67 -226 169 -195 250 29 75 -19 164 -108 198 -172 66 -225 440 -62 440 54 0 391 -120 750 -268z m-20239 -612 c78 17 151 -70 172 -203 35 -230 33 -231 -248 -57 -318 198 -533 430 -533 577 0 54 106 -2 236 -124 130 -122 298 -209 373 -193z m-759 -20 c78 -127 -54 -127 -250 0 -129 84 -127 97 19 98 93 1 197 -43 231 -98z m-94 -712 c206 -399 42 -354 -222 60 -150 236 -172 322 -71 283 79 -30 211 -185 293 -343z m13344 153 c1570 -480 3650 -1160 3700 -1210 92 -91 -945 80 -1300 214 -659 250 -1974 655 -2125 655 -162 0 -1275 486 -1275 557 0 77 139 47 1000 -216z m-12341 -406 c72 -380 -15 -574 -122 -274 -37 104 -134 266 -214 360 -81 94 -119 246 -84 337 95 248 341 1 420 -423z m741 168 c0 -223 -37 -282 -150 -239 -114 44 -152 -23 -160 -278 -9 -314 -15 -320 -90 -86 -44 138 -85 383 -90 545 -8 229 17 268 110 175 163 -163 280 -151 280 30 0 83 23 150 50 150 28 0 50 -134 50 -297z m98 -1728 c-1 -182 -20 -196 -98 -75 -125 194 -125 300 0 300 55 0 99 -101 98 -225z m-268 -741 c-81 -211 -130 -158 -128 141 1 200 25 237 90 134 49 -77 66 -201 38 -275z m18889 298 c-72 -29 -159 -26 -192 8 -33 33 26 56 131 52 117 -5 141 -28 61 -60z m-19186 -1182 c46 -364 35 -453 -40 -326 -56 96 -124 411 -150 700 -60 662 100 347 190 -374z m8084 775 c66 -149 676 -408 853 -362 112 29 341 -88 597 -308 228 -195 462 -355 520 -355 58 0 190 -91 294 -203 104 -111 286 -221 405 -244 241 -47 1311 -762 1313 -878 0 -41 -92 -168 -206 -282 -170 -170 -233 -184 -358 -81 -89 74 -132 225 -105 366 43 224 23 235 -292 176 -270 -50 -338 -31 -338 97 0 89 42 135 93 103 51 -31 121 -12 156 44 38 61 -69 102 -268 102 -262 0 -454 114 -923 547 -466 430 -770 611 -1430 850 -461 167 -915 304 -1008 305 -146 1 -149 15 -20 98 178 115 669 132 717 25z m12883 -375 c0 -92 -87 -146 -225 -138 -169 8 -182 23 -50 57 96 25 175 87 175 138 0 51 23 93 50 93 28 0 50 -67 50 -150z m-13850 -150 c34 -55 -8 -100 -94 -100 -86 0 -156 45 -156 100 0 55 42 100 94 100 52 0 122 -45 156 -100z m-1150 -156 c0 -24 -45 -44 -100 -44 -55 0 -100 48 -100 106 0 58 45 78 100 44 55 -34 100 -82 100 -106z m-5434 -269 c-28 -69 -50 -12 -50 125 0 138 22 194 50 125 28 -69 28 -181 0 -250z m7234 125 c83 -53 105 -97 50 -97 -55 0 -167 44 -250 97 -82 53 -105 97 -50 97 55 0 168 -44 250 -97z m-800 -250 c75 -91 83 -150 20 -150 -183 0 -420 119 -420 211 0 143 264 103 400 -61z m1850 -111 c241 -110 251 -125 50 -76 -137 34 -385 123 -550 198 -241 110 -251 125 -50 76 138 -34 385 -123 550 -198z m-2953 65 c81 -51 121 -119 89 -151 -78 -79 -386 47 -386 158 0 114 110 111 297 -7z m-1097 -104 c0 -55 -48 -100 -106 -100 -58 0 -78 45 -44 100 34 55 82 100 106 100 24 0 44 -45 44 -100z m2719 -68 c-72 -29 -159 -26 -192 8 -33 33 26 56 131 52 117 -5 141 -28 61 -60z m581 -388 c0 -24 -70 -44 -156 -44 -86 0 -128 46 -93 102 57 92 249 48 249 -58z m-1523 -325 c24 -73 -21 -96 -119 -58 -87 33 -158 104 -158 158 0 131 227 49 277 -100z m1248 -69 c-41 -163 -170 -163 -379 1 -187 147 -183 152 104 126 165 -15 289 -72 275 -127z m-7254 -575 c-24 -124 -44 -22 -44 225 0 248 20 349 44 225 23 -124 23 -326 0 -450z m4985 366 c1012 -99 623 -236 -431 -152 -268 21 -459 175 -379 305 53 85 107 86 206 5 73 -62 345 -132 604 -158z m-1010 -281 c144 -36 235 -109 202 -163 -108 -176 -649 186 -642 431 7 222 7 222 92 10 47 -117 204 -242 348 -278z m5754 90 c158 -191 10 -189 -244 3 -156 118 -163 147 -37 147 86 0 213 -68 281 -150z m-1681 -18 c-72 -29 -159 -26 -192 8 -33 33 26 56 131 52 117 -5 141 -28 61 -60z m4030 -332 c258 -159 314 -250 276 -450 -39 -203 -9 -250 163 -250 117 0 212 44 212 98 0 54 156 24 348 -67 257 -123 321 -198 245 -290 -142 -170 66 -285 467 -258 179 12 528 -87 804 -228 365 -187 429 -250 257 -252 -125 -2 -341 71 -480 162 -139 91 -396 159 -571 152 -306 -12 -983 250 -1053 408 -19 41 -135 75 -259 75 -124 0 -433 162 -687 359 -405 316 -446 383 -342 550 149 240 220 239 620 -9z m-2780 -147 c207 -182 238 -248 118 -250 -89 -2 -219 65 -287 147 -68 82 -184 150 -256 150 -73 0 -160 45 -194 100 -126 204 349 91 619 -147z m-2769 47 c0 -55 -87 -100 -194 -100 -107 0 -222 45 -256 100 -35 57 49 100 194 100 141 0 256 -45 256 -100z m500 0 c0 -55 -48 -100 -106 -100 -58 0 -78 45 -44 100 34 55 82 100 106 100 24 0 44 -45 44 -100z m1045 -314 c55 -50 -30 -86 -205 -86 -283 0 -540 150 -540 315 0 86 602 -99 745 -229z m-4249 -41 c-94 -113 -148 -123 -201 -37 -41 66 -128 83 -199 39 -83 -51 -102 -38 -56 38 40 63 187 115 328 115 220 0 238 -22 128 -155z m1490 66 c74 -47 97 -109 50 -137 -94 -55 -536 87 -536 173 0 84 336 59 486 -36z m1514 -218 l450 -195 -450 62 c-432 61 -800 196 -800 294 0 100 372 25 800 -161z m-2050 -93 c34 -55 329 -100 656 -100 480 0 594 -31 594 -161 0 -135 -75 -150 -454 -94 -452 68 -1146 314 -1146 406 0 92 288 49 350 -51z m5254 -175 c328 -96 596 -214 596 -262 0 -47 -101 -61 -225 -31 -641 159 -1146 301 -1325 374 -404 163 338 100 954 -81z m1149 -6 c-31 -30 -112 0 -180 69 -98 98 -86 110 56 56 99 -38 154 -94 124 -125z m-11756 -244 c-2 -259 -23 -291 -100 -159 -54 92 -70 238 -36 325 94 246 139 190 136 -166z m9063 176 c755 -144 1048 -273 872 -381 -69 -43 -1479 312 -1882 474 -232 93 288 45 1010 -93z m-4460 -76 c0 -41 -157 -75 -350 -75 -192 0 -350 34 -350 75 0 41 158 75 350 75 193 0 350 -34 350 -75z m-5815 -85 c173 -60 315 -148 315 -195 0 -102 -577 87 -656 215 -71 115 -41 113 341 -20z m6491 18 c96 -51 388 -147 649 -213 261 -67 475 -160 475 -208 0 -119 -53 -110 -829 147 -373 124 -647 257 -608 296 90 90 105 88 313 -22z m1643 -76 c-72 -29 -159 -26 -192 8 -33 33 26 56 131 52 117 -5 141 -28 61 -60z m1746 -184 c707 -170 1696 -584 1185 -496 -531 91 -687 134 -1445 397 -728 252 -1104 447 -605 314 138 -37 527 -134 865 -215z m3825 37 c321 -140 474 -262 441 -349 -30 -78 47 -174 184 -229 208 -83 212 -95 35 -99 -252 -6 -400 100 -400 288 0 91 -208 209 -544 311 -460 139 -506 195 -232 285 13 4 246 -89 516 -207z m-1591 -91 c28 -4 -50 -47 -174 -97 -266 -107 -525 -30 -525 157 0 101 75 111 324 39 179 -51 347 -96 375 -99z m-6699 -91 c0 -134 -48 -178 -150 -139 -160 61 -191 161 -83 269 126 126 233 67 233 -130z m3083 -11 c105 -5 120 -27 41 -58 -69 -28 -101 -90 -71 -138 29 -48 115 -64 190 -35 75 29 166 5 203 -54 102 -165 -311 -128 -482 43 -82 82 -198 150 -257 150 -59 0 -107 50 -107 111 0 61 71 83 158 50 87 -34 233 -65 325 -69z m-6890 -373 c-6 -240 -16 -248 -93 -69 -119 278 -119 474 0 400 55 -34 97 -183 93 -331z m5507 71 c321 -166 329 -181 100 -179 -331 3 -1325 331 -1245 411 100 100 764 -34 1145 -232z m3019 -103 c191 -136 371 -186 529 -146 263 66 381 -33 264 -221 -57 -93 -204 -95 -643 -7 -553 111 -700 218 -444 321 69 28 -38 54 -238 58 -208 5 -421 79 -500 174 -125 153 -100 161 302 97 242 -39 570 -163 730 -276z m2989 213 c51 0 92 -68 92 -150 0 -212 -137 -186 -360 67 -179 205 -180 213 -7 150 101 -37 225 -67 275 -67z m-11908 -144 c0 -79 -45 -172 -100 -206 -62 -38 -95 -691 -87 -1681 17 -2085 9 -2258 -107 -2076 -99 158 -62 3836 42 4003 94 152 252 127 252 -40z m11550 -305 c455 -148 1065 -313 1487 -401 158 -33 263 -83 235 -111 -67 -67 -1583 246 -1718 355 -57 46 -285 113 -506 150 -221 36 -469 110 -550 165 -191 127 494 25 1052 -158z m-4164 -98 c145 -81 343 -177 439 -212 96 -35 175 -98 175 -139 0 -101 -1302 358 -1441 507 -149 161 469 44 827 -156z m13853 0 c178 -39 254 -100 197 -157 -116 -116 -864 78 -785 205 30 50 110 73 177 53 67 -21 252 -66 411 -101z m-7614 -19 c-69 -28 -181 -28 -250 0 -69 28 -12 50 125 50 138 0 194 -22 125 -50z m3775 -188 c483 -114 507 -130 200 -136 -359 -8 -1369 226 -1485 343 -73 73 465 -13 1285 -207z m-2250 -46 c-78 -126 -354 -126 -550 0 -111 72 -52 97 231 98 229 1 356 -38 319 -98z m1838 -305 c796 -213 434 -252 -506 -55 -736 154 -912 230 -831 361 29 48 193 39 364 -21 171 -60 609 -188 973 -285z m3168 258 c107 -81 284 -153 394 -161 141 -11 154 -28 44 -57 -86 -23 -356 48 -600 159 -284 129 -370 202 -238 204 113 1 293 -64 400 -145z m-8606 -153 c126 -139 308 -200 596 -200 229 0 503 -70 610 -155 180 -143 162 -150 -256 -91 -558 78 -1600 443 -1600 559 0 167 471 85 650 -113z m3050 -224 c0 -42 -90 -76 -200 -76 -110 0 -200 42 -200 93 0 51 -98 107 -217 125 -120 18 -234 83 -255 146 -25 75 119 58 417 -49 250 -90 455 -198 455 -239z m-4685 -90 c-265 -98 -715 58 -715 248 0 116 75 114 466 -15 408 -134 439 -163 249 -233z m-1265 214 c34 -55 -8 -100 -94 -100 -86 0 -156 45 -156 100 0 55 42 100 94 100 52 0 122 -45 156 -100z m10274 29 c-125 -24 -305 -23 -400 2 -96 25 6 45 226 44 220 -1 298 -22 174 -46z m-11824 -279 c0 -82 -18 -150 -39 -150 -22 0 -66 68 -97 150 -32 83 -14 150 39 150 53 0 97 -67 97 -150z m8150 50 c34 -55 -28 -100 -138 -100 -110 0 -228 45 -262 100 -34 55 28 100 138 100 110 0 228 -45 262 -100z m-16650 -350 c52 -137 164 -250 248 -250 83 0 152 -39 152 -86 0 -194 -520 25 -607 256 -117 306 -116 330 9 330 57 0 146 -112 198 -250z m15450 94 l500 -136 -545 52 c-541 52 -1088 242 -655 227 110 -3 425 -68 700 -143z m4569 88 c-72 -29 -159 -26 -192 8 -33 33 26 56 131 52 117 -5 141 -28 61 -60z m-10677 -93 c87 -33 158 -96 158 -140 0 -101 -384 -6 -457 113 -64 102 72 114 299 27z m1258 -39 c0 -55 -87 -100 -194 -100 -107 0 -222 45 -256 100 -35 57 49 100 194 100 141 0 256 -45 256 -100z m1983 -242 c1007 -641 1353 -1246 1679 -2929 136 -704 312 -1508 392 -1788 253 -884 102 -3276 -249 -3931 -58 -108 -105 -292 -105 -409 0 -117 -42 -187 -94 -155 -51 32 -202 -44 -335 -169 -733 -687 -912 -789 -1268 -724 -190 35 -407 150 -480 256 -74 105 -174 191 -223 191 -49 0 -250 95 -447 211 -269 159 -332 243 -253 339 79 95 45 142 -140 188 -302 76 -960 1089 -960 1478 0 150 -45 300 -100 334 -55 34 -100 344 -100 689 0 345 -31 659 -69 697 -98 98 -120 2611 -28 3214 143 946 366 1541 783 2093 269 356 516 576 691 614 150 33 318 76 373 96 179 64 559 -56 933 -295z m843 64 c96 -85 158 -171 137 -192 -44 -44 -763 367 -763 437 0 86 448 -89 626 -245z m3024 78 c34 -55 -6 -100 -88 -100 -83 0 -178 45 -212 100 -34 55 6 100 88 100 83 0 178 -45 212 -100z m1699 2 c38 -62 -63 -75 -269 -36 -442 84 -480 134 -103 134 171 0 339 -44 372 -98z m1076 -5 c-134 -54 -316 -54 -450 0 -184 74 -142 90 225 90 367 0 409 -16 225 -90z m1721 41 c132 -51 113 -88 -103 -200 -324 -168 -607 -177 -702 -23 -50 80 8 94 194 48 200 -50 265 -29 265 85 0 164 91 188 346 90z m1261 -138 c43 -82 103 -229 133 -325 29 -96 145 -175 257 -175 240 0 273 -252 44 -340 -106 -40 -177 6 -212 138 -28 110 -92 175 -140 145 -49 -30 -89 38 -89 151 0 113 -94 300 -209 415 -178 178 -183 204 -36 175 96 -19 209 -101 252 -184z m-3310 -466 c54 -58 -328 -13 -1297 152 -685 117 -1000 215 -1000 313 0 79 2204 -367 2297 -465z m3878 441 c-47 -142 -208 -126 -258 25 -19 55 41 100 133 100 92 0 148 -56 125 -125z m-2875 -136 c0 -105 -54 -140 -158 -100 -87 34 -225 61 -306 61 -81 0 -120 45 -86 100 104 168 550 119 550 -61z m-10850 -39 c34 -55 194 -100 356 -100 162 0 294 -37 294 -82 0 -130 -829 19 -875 157 -49 148 136 169 225 25z m5350 0 c122 -79 109 -97 -69 -98 -121 -1 -247 43 -281 98 -79 127 153 127 350 0z m1450 -100 c-34 -55 -197 -100 -362 -100 -174 0 -274 42 -238 100 34 55 197 100 362 100 174 0 274 -42 238 -100z m-15750 -212 c0 -55 -45 -72 -100 -38 -55 34 -100 107 -100 162 0 55 45 72 100 38 55 -34 100 -107 100 -162z m21050 13 c0 -81 79 -163 175 -182 201 -39 244 236 50 315 -75 30 -55 53 50 58 120 6 175 -67 175 -231 0 -253 -249 -425 -358 -249 -35 58 -205 193 -378 301 l-314 197 300 -30 c185 -19 300 -87 300 -179z m2550 110 c0 -111 -308 -237 -386 -158 -32 32 8 100 89 151 187 118 297 121 297 7z m-9641 -186 c44 -96 83 -242 88 -325 4 -82 86 -144 181 -136 94 8 172 -26 172 -75 0 -49 -68 -89 -151 -89 -138 0 -548 543 -549 725 0 143 179 74 259 -100z m6389 -123 c185 -154 249 -569 87 -569 -84 0 -111 78 -75 220 48 191 -3 234 -397 333 -248 63 -547 114 -663 114 -117 0 -188 38 -159 86 67 107 1033 -40 1207 -184z m-20048 -122 c0 -162 -30 -190 -111 -109 -61 61 -81 160 -44 220 103 168 155 130 155 -111z m14530 110 c-79 -79 -163 -80 -295 -3 -162 94 -149 107 110 110 215 2 265 -27 185 -107z m-5430 -84 c0 -51 -90 -87 -200 -79 -110 9 -200 51 -200 94 0 44 90 79 200 79 110 0 200 -42 200 -94z m7485 -48 c288 -149 977 -851 1244 -1267 353 -550 825 -3355 797 -4741 -10 -517 -560 -2272 -840 -2682 -341 -499 -480 -568 -1145 -568 -582 0 -648 25 -1065 398 -662 592 -788 1066 -883 3302 -43 1018 -126 2143 -184 2500 -134 831 -134 1006 0 975 60 -14 162 65 225 175 64 110 141 223 171 250 31 28 103 253 161 500 162 692 171 712 386 954 174 195 310 253 778 332 44 8 204 -50 355 -128z m2015 -46 c0 -107 -401 -223 -517 -151 -182 112 -66 239 217 239 165 0 300 -40 300 -88z m850 -212 c-38 -119 -18 -200 49 -200 62 0 82 -50 44 -111 -47 -77 -94 -69 -154 25 -121 191 -110 486 18 486 61 0 79 -85 43 -200z m2908 -376 c-121 -120 -179 78 -101 346 l82 280 38 -284 c21 -156 12 -310 -19 -342z m-4339 -124 c290 -592 322 -701 206 -697 -75 2 -425 694 -425 839 0 42 -101 164 -225 271 -212 184 -213 193 -25 166 130 -19 294 -222 469 -579z m-18219 350 c0 -82 -44 -150 -97 -150 -53 0 -71 68 -39 150 31 83 75 150 97 150 21 0 39 -67 39 -150z m1656 -235 c-30 -146 -82 -445 -115 -665 -33 -220 -78 -419 -101 -442 -63 -65 -44 1017 23 1266 83 312 261 167 193 -159z m7944 285 c0 -55 -90 -100 -200 -100 -110 0 -200 45 -200 100 0 55 90 100 200 100 110 0 200 -45 200 -100z m11453 -96 c-33 -52 -125 -70 -206 -39 -207 79 -183 135 59 135 113 0 179 -43 147 -96z m-1853 -154 c0 -83 -89 -150 -197 -150 -134 0 -178 48 -139 150 31 83 120 150 197 150 76 0 139 -67 139 -150z m1871 -469 c444 -387 798 -1002 997 -1731 75 -275 164 -1265 198 -2200 61 -1674 58 -1710 -202 -2358 -289 -720 -314 -835 -164 -742 55 34 100 149 100 256 0 107 39 194 87 194 48 0 167 281 264 625 98 344 196 574 218 511 78 -219 -274 -1491 -582 -2105 -393 -782 -641 -924 -370 -211 263 694 148 732 -154 51 -328 -743 -544 -852 -1092 -550 -291 160 -504 385 -690 730 -425 789 -481 940 -481 1306 0 364 -76 421 -295 218 -110 -102 -123 -92 -70 58 36 101 65 223 65 272 0 49 74 60 165 25 144 -55 157 -6 101 378 -36 243 -72 1252 -79 2242 -14 1784 -12 1805 259 2300 150 275 359 575 464 666 104 91 190 207 190 257 0 192 793 51 1071 -192z m929 69 c0 -82 -45 -150 -100 -150 -55 0 -100 68 -100 150 0 83 45 150 100 150 55 0 100 -67 100 -150z m400 -62 c0 -55 -45 -72 -100 -38 -55 34 -100 107 -100 162 0 55 45 72 100 38 55 -34 100 -107 100 -162z m-7800 -88 c0 -55 -42 -100 -94 -100 -52 0 -122 45 -156 100 -34 55 8 100 94 100 86 0 156 -45 156 -100z m4443 11 c68 -110 -187 -334 -277 -243 -36 36 -66 125 -66 199 0 149 258 182 343 44z m4157 -111 c0 -110 -45 -200 -100 -200 -55 0 -100 90 -100 200 0 110 45 200 100 200 55 0 100 -90 100 -200z m-22909 -788 c7 -699 -25 -915 -151 -1020 -144 -120 -153 -79 -90 421 39 315 23 718 -37 936 -113 411 -80 551 133 551 103 0 137 -215 145 -888z m21709 532 c0 -86 -46 -128 -102 -93 -56 35 -75 105 -44 156 86 139 146 113 146 -63z m365 -569 c-5 -234 23 -605 62 -825 44 -241 2 -162 -106 200 -171 577 -181 1050 -22 1050 42 0 71 -191 66 -425z m-3365 231 c0 -52 -45 -122 -100 -156 -55 -34 -100 8 -100 94 0 86 45 156 100 156 55 0 100 -42 100 -94z m-18042 -682 c-109 -108 -140 26 -76 326 l65 300 34 -284 c19 -156 8 -310 -23 -342z m742 20 c0 -24 -45 -44 -100 -44 -55 0 -100 48 -100 106 0 58 45 78 100 44 55 -34 100 -82 100 -106z m1407 -351 c315 -315 101 -495 -571 -479 -297 7 -565 51 -594 99 -30 48 22 87 116 87 93 0 273 113 401 250 281 304 381 310 648 43z m1289 -205 c333 -203 338 -216 150 -354 -344 -251 -841 -22 -844 391 -3 236 271 221 694 -37z m18709 -1438 l-75 -1100 -15 1195 c-9 710 21 1156 75 1100 51 -54 58 -566 15 -1195z m-20005 762 c0 -93 -412 -233 -481 -165 -21 22 -9 88 27 146 79 129 454 144 454 19z m19500 -12 c0 -55 -48 -100 -106 -100 -58 0 -78 45 -44 100 34 55 82 100 106 100 24 0 44 -45 44 -100z m-22400 -193 c0 -52 98 -125 219 -163 211 -67 212 -74 31 -207 -302 -220 -450 -166 -450 163 0 165 45 300 100 300 55 0 100 -42 100 -93z m1800 -7 c0 -55 -67 -100 -150 -100 -82 0 -150 45 -150 100 0 55 68 100 150 100 83 0 150 -45 150 -100z m2478 -626 c499 -532 754 -1729 480 -2258 -206 -398 -301 -405 -223 -16 43 215 22 300 -75 300 -79 0 -160 -162 -197 -394 -62 -386 -212 -590 -341 -461 -35 35 -10 151 57 258 134 215 163 722 48 837 -66 66 -129 305 -416 1585 -81 361 -74 375 185 375 150 0 363 -100 482 -226z m-2726 -531 c-202 -778 -191 -1127 48 -1520 207 -339 266 -723 112 -723 -149 0 -269 229 -397 752 -101 416 -95 629 33 1236 154 735 235 962 314 883 24 -23 -26 -306 -110 -628z m1043 282 c170 -613 79 -2385 -134 -2597 -152 -153 -382 153 -613 815 -251 720 -237 1057 73 1882 163 434 541 378 674 -100z m-2295 173 c0 -57 -101 -142 -225 -190 -388 -149 -686 -601 -821 -1243 -113 -537 -139 -581 -201 -345 -109 410 114 931 613 1430 444 444 634 548 634 348z m3303 -1119 c68 -352 54 -555 -52 -800 -143 -328 -143 -326 -155 371 -6 385 -26 768 -43 850 -18 83 -62 285 -98 450 -62 286 -57 283 97 -50 88 -192 202 -562 251 -821z m2129 821 c546 -372 671 -1198 277 -1836 -243 -393 -465 -489 -380 -164 29 110 11 200 -38 200 -50 0 -91 254 -91 563 0 677 -181 1337 -366 1337 -74 0 -134 39 -134 86 0 159 361 67 732 -186z m-4990 -275 c-44 -96 -105 -512 -136 -925 -47 -627 -75 -717 -170 -550 -167 294 104 1650 331 1650 30 0 19 -79 -25 -175z m21624 -150 c-28 -69 -50 -12 -50 125 0 138 22 194 50 125 28 -69 28 -181 0 -250z m-21313 -150 c-38 -206 -111 -419 -163 -472 -85 -88 -44 363 66 722 87 286 161 96 97 -250z m2113 -850 c-28 -69 -50 -12 -50 125 0 138 22 194 50 125 28 -69 28 -181 0 -250z m-2088 -300 c57 -289 89 -540 71 -559 -63 -64 -222 338 -279 709 -88 574 89 446 208 -150z m-1180 44 c-1 -210 -22 -236 -98 -119 -128 198 -128 529 0 450 55 -34 99 -183 98 -331z m3862 -488 c-184 -341 -218 -85 -44 337 87 213 125 241 156 113 22 -93 -28 -296 -112 -450z m-750 -202 c-96 -165 -104 -163 -107 29 -3 232 124 412 177 252 19 -56 -13 -183 -70 -281z m2008 149 c-71 -71 -118 -77 -118 -15 0 134 118 252 185 185 28 -28 -2 -105 -67 -170z m-1701 -201 c-74 -74 -87 -35 -44 131 35 135 81 181 106 106 24 -72 -4 -179 -62 -237z m20182 148 c0 -41 -113 -127 -250 -191 -194 -89 -249 -88 -249 9 0 68 30 154 67 190 91 91 433 85 432 -8z m-4906 -350 c-61 -211 -58 -337 7 -358 183 -61 103 -217 -111 -217 -159 0 -194 42 -143 175 38 96 93 299 124 450 30 151 91 275 136 275 44 0 38 -146 -13 -325z m-3964 25 c29 -110 12 -175 -38 -144 -50 31 -91 121 -91 200 0 207 68 177 129 -56z m-15529 0 c0 -55 -93 -100 -206 -100 -113 0 -178 45 -144 100 34 55 127 100 206 100 79 0 144 -45 144 -100z m944 -459 l306 -133 -504 -4 c-437 -3 -505 23 -519 201 -17 221 82 212 717 -64z m9222 -166 c-28 -69 -50 -12 -50 125 0 138 22 194 50 125 28 -69 28 -181 0 -250z m-408 -451 c-118 -118 -165 62 -89 339 l79 287 33 -284 c19 -156 8 -310 -23 -342z m14132 -49 c6 -96 -35 -175 -90 -175 -55 0 -96 191 -90 425 8 361 22 387 90 175 44 -137 85 -329 90 -425z m-13054 275 c32 -82 42 -150 23 -150 -19 0 -91 68 -159 150 -72 86 -81 150 -23 150 56 0 128 -67 159 -150z m-9486 -50 c39 -63 -171 -95 -569 -87 -539 11 -580 24 -281 87 527 111 781 111 850 0z m3000 0 c-34 -55 -104 -100 -156 -100 -52 0 -94 45 -94 100 0 55 70 100 156 100 86 0 128 -45 94 -100z m5010 -83 c-113 -183 -754 -508 -813 -412 -32 52 0 97 72 99 72 2 264 112 427 245 286 234 437 267 314 68z m6330 -160 c-26 -26 -107 51 -180 173 -126 210 -124 212 48 47 99 -95 159 -194 132 -220z m-12665 77 c-69 -28 -181 -28 -250 0 -69 28 -12 50 125 50 138 0 194 -22 125 -50z m16775 -84 c0 -82 -45 -150 -100 -150 -55 0 -100 68 -100 150 0 83 45 150 100 150 55 0 100 -67 100 -150z m-9171 -150 c69 -265 -51 -325 -391 -195 l-280 106 246 135 c338 185 365 182 425 -46z m8213 -136 c-35 -90 -105 -164 -156 -164 -51 0 -43 94 19 209 127 237 232 204 137 -45z m4271 -164 c54 0 68 -50 30 -111 -48 -78 -92 -72 -148 19 -64 104 -114 101 -255 -14 -152 -125 -149 -105 17 151 150 231 199 258 225 125 18 -94 77 -170 131 -170z m-20863 0 c100 -110 149 -200 109 -200 -143 0 -459 209 -459 304 0 156 156 110 350 -104z m2050 -35 c0 -18 -97 -120 -215 -225 -213 -189 -213 -189 -96 35 97 186 311 317 311 190z m10300 -65 c0 -55 -48 -100 -106 -100 -58 0 -78 45 -44 100 34 55 82 100 106 100 24 0 44 -45 44 -100z m1569 -38 c-30 -76 -6 -185 52 -243 96 -96 50 -100 -308 -27 -21 5 13 68 74 142 61 74 82 164 45 200 -36 36 -8 66 62 66 70 0 104 -62 75 -138z m-2069 -62 c0 -55 -48 -100 -106 -100 -58 0 -78 45 -44 100 34 55 82 100 106 100 24 0 44 -45 44 -100z m4800 -256 c0 -147 -213 -197 -332 -78 -91 90 133 345 243 277 49 -30 89 -120 89 -199z m-3275 90 c-69 -28 -181 -28 -250 0 -69 28 -12 50 125 50 138 0 194 -22 125 -50z m2375 -34 c0 -55 -45 -100 -100 -100 -55 0 -100 45 -100 100 0 55 45 100 100 100 55 0 100 -45 100 -100z m4540 -40 c-51 -134 -440 -294 -519 -214 -30 30 444 330 551 350 12 2 -2 -59 -32 -136z m-19140 -60 c0 -55 -45 -100 -100 -100 -55 0 -100 45 -100 100 0 55 45 100 100 100 55 0 100 -45 100 -100z m19305 -191 c-62 -115 -156 -209 -211 -209 -54 0 -24 114 67 253 194 296 307 261 144 -44z m-2030 66 c-47 -142 -208 -126 -258 25 -19 55 41 100 133 100 92 0 148 -56 125 -125z m2617 -261 c-140 -47 -302 189 -220 321 32 53 121 10 197 -94 99 -135 105 -200 23 -227z m474 61 c-28 -69 -50 -12 -50 125 0 138 22 194 50 125 28 -69 28 -181 0 -250z"/>
<path d="M12655 11109 c-32 -53 -16 -122 36 -154 53 -32 122 -16 154 36 32 53 16 122 -36 154 -53 32 -122 16 -154 -36z"/>
<path d="M12417 10700 c50 -151 211 -167 258 -25 23 69 -33 125 -125 125 -92 0 -152 -45 -133 -100z"/>
<path d="M12466 9841 c-201 -136 -366 -314 -366 -395 0 -220 162 -176 382 104 261 332 426 314 673 -76 619 -975 937 -2155 941 -3496 4 -872 -27 -1041 -294 -1625 -250 -545 -336 -647 -525 -627 -298 32 -307 -265 -9 -307 346 -49 1003 1012 1086 1756 69 618 -176 2822 -367 3297 -249 619 -337 792 -561 1102 -368 508 -537 555 -960 267z"/>
<path d="M11500 9600 c0 -55 45 -100 100 -100 55 0 100 45 100 100 0 55 -45 100 -100 100 -55 0 -100 -45 -100 -100z"/>
<path d="M14260 9616 c-35 -56 -15 -132 45 -169 154 -95 253 35 125 163 -72 72 -128 74 -170 6z"/>
<path d="M11942 8966 c-92 -241 2 -1619 108 -1566 135 68 180 1700 46 1700 -56 0 -125 -60 -154 -134z"/>
<path d="M14546 8893 c-36 -58 -42 -130 -13 -160 72 -71 267 55 267 173 0 128 -173 119 -254 -13z"/>
<path d="M11300 8406 c0 -58 45 -106 100 -106 55 0 100 20 100 44 0 24 -45 72 -100 106 -55 34 -100 14 -100 -44z"/>
<path d="M12700 8450 c0 -27 0 -84 0 -125 0 -41 41 -75 92 -75 187 0 253 -178 315 -857 62 -678 131 -888 252 -767 57 56 -109 1340 -219 1699 -46 151 -440 263 -440 125z"/>
<path d="M14613 8013 c41 -126 187 -155 187 -38 0 41 -51 92 -112 113 -62 20 -96 -14 -75 -75z"/>
<path d="M14800 7500 c0 -55 45 -100 100 -100 55 0 100 45 100 100 0 55 -45 100 -100 100 -55 0 -100 -45 -100 -100z"/>
<path d="M11800 6850 c0 -334 121 -459 247 -255 79 128 -45 605 -158 605 -49 0 -89 -157 -89 -350z"/>
<path d="M14950 6000 c34 -55 104 -100 156 -100 52 0 94 45 94 100 0 55 -70 100 -156 100 -86 0 -128 -45 -94 -100z"/>
<path d="M11554 5707 c-74 -120 114 -238 248 -156 111 69 38 249 -102 249 -49 0 -114 -42 -146 -93z"/>
<path d="M12300 4500 c0 -55 45 -100 100 -100 55 0 100 45 100 100 0 55 -45 100 -100 100 -55 0 -100 -45 -100 -100z"/>
<path d="M14700 4200 c0 -110 45 -200 100 -200 55 0 100 90 100 200 0 110 -45 200 -100 200 -55 0 -100 -90 -100 -200z"/>
<path d="M12613 3913 c20 -62 71 -113 112 -113 117 0 88 146 -37 188 -62 20 -96 -14 -75 -75z"/>
<path d="M14335 3046 c-33 -85 -35 -180 -4 -210 88 -88 269 61 269 220 0 192 -191 184 -265 -10z"/>
<path d="M13867 2033 c-37 -36 -67 -113 -67 -170 0 -62 47 -56 118 15 65 65 95 142 67 170 -28 29 -82 22 -118 -15z"/>
<path d="M17400 10350 c0 -82 45 -150 100 -150 55 0 100 68 100 150 0 83 -45 150 -100 150 -55 0 -100 -67 -100 -150z"/>
<path d="M18500 9700 c0 -55 45 -100 100 -100 55 0 100 45 100 100 0 55 -45 100 -100 100 -55 0 -100 -45 -100 -100z"/>
<path d="M17475 9492 c-96 -56 -175 -167 -175 -247 0 -168 116 -189 259 -46 137 137 526 -150 657 -484 231 -594 381 -1351 465 -2356 117 -1396 -43 -2391 -464 -2885 -82 -96 -121 -203 -87 -237 102 -102 371 46 427 236 29 97 124 312 210 477 252 482 301 2686 85 3750 -201 983 -266 1134 -684 1575 -329 348 -420 376 -693 217z"/>
<path d="M16900 8800 c-118 -73 -123 -117 -24 -216 96 -96 151 -97 244 -4 162 162 -19 344 -220 220z"/>
<path d="M19100 8500 c0 -55 45 -100 100 -100 55 0 100 45 100 100 0 55 -45 100 -100 100 -55 0 -100 -45 -100 -100z"/>
<path d="M17300 7550 c0 -82 65 -150 145 -150 88 0 172 -141 212 -351 36 -193 108 -378 161 -410 109 -68 6 614 -135 886 -110 214 -383 232 -383 25z"/>
<path d="M16749 7299 c-90 -147 37 -1178 155 -1251 51 -32 64 232 29 623 -67 748 -81 795 -184 628z"/>
<path d="M19300 7300 c0 -55 45 -100 100 -100 55 0 100 45 100 100 0 55 -45 100 -100 100 -55 0 -100 -45 -100 -100z"/>
<path d="M17823 6200 c0 -192 21 -271 46 -175 25 96 25 254 0 350 -25 96 -46 18 -46 -175z"/>
<path d="M19300 5700 c0 -55 45 -100 100 -100 55 0 100 45 100 100 0 55 -45 100 -100 100 -55 0 -100 -45 -100 -100z"/>
<path d="M17700 4800 c0 -55 70 -100 156 -100 86 0 128 45 94 100 -34 55 -104 100 -156 100 -52 0 -94 -45 -94 -100z"/>
<path d="M19300 4400 c0 -55 45 -100 100 -100 55 0 100 45 100 100 0 55 -45 100 -100 100 -55 0 -100 -45 -100 -100z"/>
<path d="M17163 3921 c-91 -148 40 -699 198 -830 146 -121 439 -58 439 94 0 51 -90 115 -200 144 -110 29 -201 135 -202 237 -2 250 -156 483 -235 355z"/>
<path d="M19000 3200 c0 -55 45 -100 100 -100 55 0 100 45 100 100 0 55 -45 100 -100 100 -55 0 -100 -45 -100 -100z"/>
<path d="M18600 2400 c0 -55 20 -100 44 -100 24 0 72 45 106 100 34 55 14 100 -44 100 -58 0 -106 -45 -106 -100z"/>
<path d="M21200 9387 c0 -88 322 -164 475 -112 242 81 121 217 -175 196 -165 -12 -300 -50 -300 -84z"/>
<path d="M22000 9200 c0 -55 45 -100 100 -100 55 0 100 45 100 100 0 55 -45 100 -100 100 -55 0 -100 -45 -100 -100z"/>
<path d="M21467 8633 c-137 -137 -60 -320 148 -351 463 -69 769 -2129 544 -3657 -51 -345 -42 -525 26 -525 184 0 217 166 280 1380 48 929 24 1360 -107 1950 -213 954 -607 1487 -891 1203z"/>
<path d="M20967 8233 c-104 -103 -79 -433 33 -433 55 0 100 41 100 92 0 50 27 163 61 250 60 158 -68 218 -194 91z"/>
<path d="M22600 8150 c0 -82 45 -150 100 -150 55 0 100 68 100 150 0 83 -45 150 -100 150 -55 0 -100 -67 -100 -150z"/>
<path d="M21038 7280 c-38 -60 8 -166 100 -234 211 -154 360 -656 369 -1245 13 -863 179 -897 186 -38 4 502 -49 946 -139 1163 -155 370 -402 540 -516 354z"/>
<path d="M22800 6806 c0 -58 45 -106 100 -106 55 0 100 20 100 44 0 24 -45 72 -100 106 -55 34 -100 14 -100 -44z"/>
<path d="M22851 5502 c-35 -56 7 -102 93 -102 176 0 202 60 63 146 -51 31 -121 12 -156 -44z"/>
<path d="M21042 4279 c68 -424 121 -549 202 -469 83 83 -71 890 -170 890 -61 0 -73 -163 -32 -421z"/>
<path d="M21872 3599 c-210 -246 -215 -299 -26 -299 128 0 354 283 354 443 0 120 -163 48 -328 -144z"/>
<path d="M9300 24513 c0 -150 975 -634 1046 -520 31 51 -71 182 -226 293 -349 248 -820 379 -820 227z"/>
<path d="M14000 24404 c0 -110 325 -304 509 -304 76 0 54 75 -59 200 -189 209 -450 269 -450 104z"/>
<path d="M23650 23896 c-1227 -247 -2075 -521 -2131 -689 -34 -102 3 -118 142 -58 497 212 1791 548 2524 655 448 65 815 159 815 208 0 122 -302 96 -1350 -116z"/>
<path d="M23750 23453 c-831 -132 -1350 -317 -1350 -480 0 -52 79 -64 175 -27 502 195 1332 354 1846 354 448 0 579 34 579 150 0 177 -154 177 -1250 3z"/>
<path d="M24450 23133 c-110 -24 -436 -89 -725 -145 -363 -71 -525 -150 -525 -257 0 -164 173 -151 750 57 165 59 469 133 675 164 206 31 375 100 375 153 0 97 -190 107 -550 28z"/>
<path d="M24000 22411 c0 -127 261 -211 658 -211 237 0 342 46 342 150 0 113 -122 150 -500 150 -275 0 -500 -40 -500 -89z"/>
<path d="M9200 22200 c0 -55 70 -100 156 -100 86 0 128 45 94 100 -34 55 -104 100 -156 100 -52 0 -94 -45 -94 -100z"/>
<path d="M9200 21832 c0 -133 987 -434 1056 -323 31 50 -70 140 -225 198 -441 169 -831 227 -831 125z"/>
<path d="M8267 21433 c-37 -36 168 -149 454 -250 611 -215 579 -210 579 -84 0 102 -631 401 -846 401 -66 0 -151 -30 -187 -67z"/>
<path d="M8923 20557 c-181 -65 -297 -150 -259 -188 119 -119 305 -76 550 128 264 220 190 235 -291 60z"/>
<path d="M4845 20357 c-133 -204 -177 -594 -218 -1931 -30 -1011 -10 -1815 52 -2026 102 -346 103 -343 115 200 7 303 38 1045 69 1650 51 970 84 1126 283 1316 185 177 214 284 164 592 -75 463 -244 536 -465 199z"/>
<path d="M11300 20537 c1 -105 781 -437 1026 -437 296 0 193 145 -201 282 -586 204 -825 249 -825 155z"/>
<path d="M7854 20194 c93 -152 543 -307 667 -231 57 35 -42 126 -220 201 -389 163 -536 173 -447 30z"/>
<path d="M6953 20104 c-38 -60 -38 -244 -2 -409 59 -270 35 -310 -250 -410 -348 -121 -271 -352 80 -241 180 57 790 741 704 789 -19 10 -132 100 -250 200 -144 121 -237 144 -282 71z"/>
<path d="M14000 20061 c0 -141 288 -307 377 -218 26 27 21 118 -12 203 -73 192 -365 204 -365 15z"/>
<path d="M14664 19622 c-40 -64 -25 -297 35 -517 81 -300 217 -475 547 -702 752 -518 947 -326 208 205 -313 225 -487 442 -582 726 -82 246 -164 360 -208 288z"/>
<path d="M15670 19637 c-243 -243 653 -803 1104 -690 274 69 1940 -375 2266 -604 226 -158 660 -194 660 -54 0 120 -792 485 -1321 609 -236 55 -771 207 -1189 338 -510 161 -813 209 -922 148 -119 -66 -196 -36 -289 113 -133 213 -204 245 -309 140z"/>
<path d="M8700 19529 c-608 -223 -806 -338 -748 -432 45 -73 149 -54 319 57 358 235 1710 236 2413 2 336 -112 569 -143 629 -83 246 246 -2080 652 -2613 456z"/>
<path d="M11661 19142 c-107 -279 -69 -315 388 -367 290 -32 577 -152 808 -338 198 -158 463 -371 591 -474 277 -223 564 -187 329 41 -614 598 -997 883 -1446 1074 -618 265 -594 262 -670 64z"/>
<path d="M13755 19222 c-91 -91 54 -222 245 -222 290 0 329 171 51 224 -135 26 -269 25 -296 -2z"/>
<path d="M6626 18625 c-692 -668 -1173 -1570 -1339 -2511 -61 -343 -174 -687 -253 -765 -117 -118 -142 -691 -140 -3252 1 -1710 29 -3154 63 -3208 34 -55 113 -82 177 -61 85 28 108 824 85 3013 -24 2238 -1 3010 91 3121 67 81 132 269 144 418 46 576 178 1091 407 1589 132 285 239 547 239 581 0 169 700 900 1069 1117 274 160 401 295 365 389 -97 253 -297 158 -908 -431z"/>
<path d="M17767 18333 c-143 -142 -51 -229 358 -341 234 -63 586 -174 782 -246 214 -78 413 -95 497 -43 119 73 118 94 -7 138 -81 28 -456 166 -834 305 -787 291 -711 273 -796 187z"/>
<path d="M16856 17609 c-97 -157 38 -362 322 -489 149 -66 452 -232 672 -369 408 -253 850 -331 850 -151 0 55 -70 100 -155 100 -263 0 -780 309 -1108 663 -319 342 -480 410 -581 246z"/>
<path d="M14200 17517 c0 -46 231 -191 512 -323 282 -132 625 -387 762 -567 137 -180 312 -327 388 -327 199 0 176 64 -187 519 -396 495 -1475 1006 -1475 698z"/>
<path d="M18000 17512 c0 -114 1199 -712 1427 -712 95 0 173 45 173 100 0 55 -61 100 -136 100 -75 0 -389 135 -698 300 -584 312 -766 362 -766 212z"/>
<path d="M16500 16862 c0 -67 440 -330 675 -404 356 -113 262 87 -128 273 -340 163 -547 212 -547 131z"/>
<path d="M20000 16814 c0 -48 241 -115 535 -149 294 -35 727 -131 962 -214 471 -166 803 -195 803 -70 0 99 -1645 521 -2025 520 -151 -1 -275 -40 -275 -87z"/>
<path d="M20346 16094 c-36 -59 -50 -122 -31 -140 46 -43 764 -144 1085 -153 229 -7 236 -18 75 -140 -225 -171 -222 -261 10 -261 253 0 597 377 404 443 -411 140 -1016 263 -1062 217 -29 -29 -135 -9 -234 44 -121 64 -203 61 -247 -10z"/>
<path d="M18900 15501 c0 -102 812 -304 1169 -291 l281 10 -300 78 c-848 220 -1150 274 -1150 203z"/>
<path d="M18800 14410 c0 -47 295 -225 654 -397 461 -220 802 -313 1150 -313 650 0 645 171 -4 185 -288 7 -673 99 -904 217 -583 298 -896 405 -896 308z"/>
<path d="M177 13783 c124 -124 790 -379 998 -381 69 -1 125 43 125 98 0 55 -79 100 -175 101 -96 0 -304 67 -461 150 -355 185 -660 205 -487 32z"/>
<path d="M8300 12056 c0 -86 45 -156 100 -156 55 0 100 42 100 94 0 52 -45 122 -100 156 -55 34 -100 -8 -100 -94z"/>
<path d="M7150 11400 c-34 -55 51 -143 190 -196 528 -201 938 -1126 1221 -2754 363 -2091 382 -2544 129 -3221 -94 -252 35 -390 189 -203 162 196 325 1259 263 1712 -360 2646 -819 4243 -1332 4633 -195 149 -575 166 -660 29z"/>
<path d="M6700 11142 c0 -177 215 -146 277 39 22 66 -32 119 -119 119 -87 0 -158 -71 -158 -158z"/>
<path d="M8700 11200 c0 -55 45 -100 100 -100 55 0 100 45 100 100 0 55 -45 100 -100 100 -55 0 -100 -45 -100 -100z"/>
<path d="M6867 10533 c-190 -189 198 -381 447 -221 113 73 111 105 -14 186 -176 116 -340 129 -433 35z"/>
<path d="M9100 9850 c0 -82 45 -150 100 -150 55 0 100 68 100 150 0 83 -45 150 -100 150 -55 0 -100 -67 -100 -150z"/>
<path d="M6900 9712 c0 -48 62 -139 138 -202 76 -63 165 -248 197 -412 62 -307 265 -418 265 -145 0 293 -291 847 -445 847 -85 0 -155 -39 -155 -88z"/>
<path d="M100 8400 c0 -117 67 -200 161 -200 105 0 140 54 100 158 -34 87 -61 177 -61 200 0 23 -45 42 -100 42 -55 0 -100 -90 -100 -200z"/>
<path d="M8100 7400 c0 -55 20 -100 44 -100 24 0 72 45 106 100 34 55 14 100 -44 100 -58 0 -106 -45 -106 -100z"/>
<path d="M9400 5942 c0 -87 53 -141 119 -119 185 62 216 277 39 277 -87 0 -158 -71 -158 -158z"/>
<path d="M8313 4716 c-146 -264 -119 -344 75 -224 72 45 114 167 92 270 -35 170 -51 166 -167 -46z"/>
<path d="M9200 4150 c0 -83 18 -150 39 -150 22 0 66 67 97 150 32 83 14 150 -39 150 -53 0 -97 -67 -97 -150z"/>
<path d="M8411 3663 c-89 -107 -91 -164 -7 -215 163 -101 365 123 232 256 -73 73 -141 60 -225 -41z"/>
<path d="M7000 2800 c0 -55 42 -100 94 -100 52 0 122 45 156 100 34 55 -8 100 -94 100 -86 0 -156 -45 -156 -100z"/>
<path d="M6600 1400 c0 -55 115 -100 256 -100 145 0 229 43 194 100 -34 55 -149 100 -256 100 -107 0 -194 -45 -194 -100z"/>
<path d="M7758 1413 c-50 -80 946 -234 1027 -159 19 18 5 81 -31 139 -79 128 -919 144 -996 20z"/>
<path d="M1800 1321 c0 -55 71 -127 158 -160 244 -94 542 -72 542 39 0 55 -86 100 -192 100 -105 0 -263 27 -350 61 -87 33 -158 15 -158 -40z"/>
<path d="M16157 303 c-155 -55 -163 -79 -42 -126 219 -84 1545 -212 1480 -143 -112 121 -1252 334 -1438 269z"/>
<path d="M0 191 c0 -50 376 -91 835 -91 460 0 1124 -21 1475 -47 526 -40 569 -33 240 39 -597 129 -2550 205 -2550 99z"/>
</g>
</svg>