<svg xmlns="http://www.w3.org/2000/svg" version="1.0" width="250" height="250" viewBox="0 0 250.000000 250.000000" preserveAspectRatio="xMidYMid meet">
<metadata>
Created by potrace 1.10, written by Peter Selinger 2001-2011
</metadata>
<g transform="translate(0.000000,250.000000) scale(0.010000,-0.010000)" fill="#555555" stroke="none">
<path d="M0 22565 l0 -2439 475 -63 c261 -34 1390 -60 2508 -57 1129 3 2084 -36 2150 -88 64 -52 805 -115 1646 -141 978 -29 1572 -88 1647 -163 90 -90 -278 -105 -1561 -67 -923 27 -1732 83 -1797 123 -141 88 -4155 145 -4693 67 -350 -51 -375 -77 -375 -398 0 -282 49 -363 275 -452 255 -101 261 -115 75 -186 -110 -42 -234 -56 -275 -33 -104 60 -95 -744 8 -808 97 -59 428 -115 1250 -209 588 -68 967 -300 967 -593 0 -78 27 -213 61 -300 43 -112 1 -158 -144 -158 -113 0 -233 45 -267 100 -34 55 -9 100 55 100 65 0 15 83 -110 184 -174 141 -340 173 -715 137 -397 -38 -515 -12 -629 141 -111 150 -176 166 -320 78 -143 -88 -187 -265 -211 -837 l-29 -727 246 62 c136 34 351 20 480 -32 195 -78 156 -94 -242 -100 -462 -6 -475 -14 -475 -313 0 -339 -69 -336 950 -42 275 79 658 169 850 198 193 30 530 206 750 392 385 326 393 345 225 532 -240 264 -221 327 100 327 196 0 358 -103 561 -359 199 -249 344 -343 475 -309 146 38 189 -5 189 -188 0 -265 -257 -444 -637 -444 -137 0 -377 -52 -531 -115 -155 -63 -593 -130 -973 -149 -440 -22 -753 -90 -861 -188 -94 -84 -368 -187 -609 -228 l-439 -75 -30 -472 c-35 -543 -95 -523 1080 -369 413 55 975 103 1250 109 275 5 568 66 650 135 83 69 468 151 856 181 623 50 719 34 825 -136 108 -172 91 -195 -155 -208 -152 -8 -390 -7 -529 3 -139 11 -447 -50 -685 -134 -269 -95 -491 -120 -588 -66 -90 51 -306 45 -515 -13 -197 -55 -764 -151 -1259 -213 l-900 -112 -26 -4025 -26 -4025 276 0 c152 0 591 63 976 140 385 77 1187 171 1783 208 596 36 1290 129 1542 205 253 76 490 118 529 95 38 -24 169 -520 292 -1102 202 -957 209 -1075 69 -1229 -85 -94 -196 -282 -246 -418 -88 -239 -100 -230 -345 252 -382 750 -978 1214 -1824 1419 -985 239 -1604 130 -2286 -403 -378 -295 -764 -990 -764 -1375 0 -278 167 -235 242 62 214 854 1457 1292 2424 853 653 -297 1434 -1106 1434 -1486 0 -58 -304 -135 -675 -171 -371 -36 -1195 -173 -1831 -304 -636 -130 -1254 -211 -1375 -180 -181 47 -219 15 -219 -186 0 -234 20 -241 475 -177 261 36 768 147 1125 245 573 157 2700 285 2700 162 0 -23 -186 -200 -413 -394 -572 -490 -714 -853 -501 -1282 114 -228 235 -330 394 -332 221 -2 228 23 178 595 -51 581 -44 603 270 835 479 354 572 395 571 249 0 -72 -180 -234 -400 -359 -219 -125 -399 -272 -399 -325 0 -138 122 -120 368 52 224 157 732 372 732 309 0 -20 -225 -208 -500 -418 -483 -368 -660 -623 -350 -504 177 68 186 19 46 -243 -85 -160 -70 -193 92 -193 108 0 222 56 254 125 46 100 70 100 116 0 42 -89 385 -125 1200 -125 l1142 0 0 300 c0 165 45 300 100 300 55 0 100 -135 100 -300 0 -423 278 -401 319 25 40 416 222 423 262 10 29 -306 45 -316 517 -320 l488 -3 -102 290 c-55 159 -187 317 -292 351 -255 81 -274 426 -20 368 72 -17 128 60 128 175 0 256 105 258 427 4 140 -110 302 -200 359 -200 58 0 134 -157 171 -350 71 -379 243 -480 243 -143 0 279 164 580 524 960 295 312 576 347 576 72 0 -76 90 -139 200 -139 110 0 201 -56 201 -125 1 -69 26 -215 55 -325 30 -110 -12 -289 -92 -399 -135 -184 -159 -187 -330 -36 -172 151 -227 140 -817 -176 l-634 -339 501 0 c390 0 509 37 534 168 29 152 47 153 188 12 229 -229 3618 -253 3961 -28 209 137 233 137 233 0 0 -83 68 -152 150 -152 117 0 150 133 150 600 0 330 43 600 95 600 52 0 126 -270 163 -600 67 -589 183 -770 273 -425 44 167 46 167 57 0 8 -115 94 -175 251 -175 244 0 361 165 361 508 0 106 40 192 89 192 143 0 228 -323 114 -437 -209 -209 -87 -263 597 -263 489 0 702 38 708 125 6 100 18 100 58 0 36 -90 370 -125 1178 -125 l1127 0 79 1075 c102 1392 101 3553 -4 5625 -46 908 -86 2759 -90 4114 -6 2278 -20 2480 -196 2675 -221 244 -560 281 -560 61 0 -88 -93 -151 -225 -152 -124 -1 -421 -91 -661 -200 -399 -181 -429 -183 -361 -23 42 96 97 302 124 457 31 183 135 316 296 377 151 57 227 148 194 233 -29 76 -25 167 10 202 35 35 71 275 81 535 22 584 165 1300 425 2133 246 784 671 1748 809 1833 100 62 24 -179 -379 -1204 -110 -280 -272 -994 -360 -1586 -251 -1689 -354 -2084 -622 -2369 -356 -380 -150 -420 400 -78 547 341 810 319 1211 -99 l263 -275 -10 -2142 c-6 -1178 -8 -2232 -4 -2342 3 -110 25 -1145 49 -2300 23 -1155 89 -2221 146 -2368 57 -147 84 -575 61 -950 -24 -375 -64 -1256 -89 -1957 -43 -1211 -36 -1275 148 -1275 169 0 196 80 213 625 43 1464 94 1653 273 1009 141 -508 136 -643 -42 -1069 -209 -500 -192 -565 150 -565 283 0 300 22 300 400 0 222 49 400 109 400 71 0 85 -137 41 -400 -64 -381 -55 -400 191 -400 204 0 259 49 259 230 0 227 165 470 320 470 44 0 80 -157 80 -350 0 -441 238 -472 385 -50 60 171 176 300 270 300 94 0 144 -55 115 -125 -28 -69 -82 -204 -121 -300 -49 -123 -23 -175 88 -175 151 0 538 596 453 700 -22 28 61 64 185 82 202 29 225 -10 225 -375 0 -274 44 -407 135 -407 337 0 534 5436 206 5707 -185 154 -180 457 9 529 233 89 192 391 -43 316 -110 -35 -227 -5 -275 71 -45 72 -211 188 -368 257 -285 125 -298 199 -115 645 143 346 -233 177 -792 -356 -501 -477 -557 -572 -557 -944 0 -227 -52 -445 -116 -485 -131 -81 -42 4218 116 5558 48 414 115 1378 148 2144 34 765 78 1418 98 1451 56 91 166 1207 119 1207 -22 0 -133 -259 -245 -575 -155 -433 -220 -933 -265 -2025 -32 -797 -102 -2192 -155 -3100 -237 -4063 -243 -4543 -58 -4728 163 -163 155 -172 -135 -172 -223 0 -309 48 -313 175 -63 1885 25 5538 153 6280 84 492 159 1030 166 1195 21 483 178 1571 281 1950 52 193 152 631 221 975 70 344 159 625 199 625 40 0 102 94 139 208 74 234 892 792 1161 792 327 0 291 -188 -69 -359 -456 -217 -656 -523 -696 -1064 -17 -235 -77 -1147 -133 -2027 -56 -880 -149 -1811 -208 -2069 -58 -258 -130 -1467 -159 -2686 -48 -2007 -38 -2212 107 -2157 88 34 179 62 202 62 23 0 42 141 42 314 l0 313 475 -72 c1010 -154 1225 -143 1225 58 0 155 -77 187 -444 187 -244 0 -472 45 -506 100 -34 55 -189 100 -345 100 -297 0 -405 146 -405 549 0 196 98 266 619 442 341 115 724 209 850 209 l231 0 0 2093 c0 1909 -15 2096 -175 2138 -167 44 -167 46 0 57 164 11 175 316 175 4904 0 3819 -27 4902 -125 4942 -100 40 -100 52 0 58 85 5 125 199 125 608 l0 600 -1106 0 c-712 0 -1084 -36 -1044 -100 34 -55 427 -100 873 -100 944 0 993 -76 90 -137 -345 -24 -651 -67 -680 -97 -135 -135 105 -247 419 -196 225 36 348 16 348 -57 0 -69 -195 -113 -500 -113 -275 0 -500 -45 -500 -100 0 -190 44 -250 165 -222 66 15 148 -19 183 -75 35 -57 249 -103 475 -103 225 0 391 -19 367 -43 -36 -37 -826 -130 -1280 -151 -88 -4 -39 -99 131 -256 221 -205 370 -250 831 -250 309 0 539 -23 511 -50 -28 -28 -474 -56 -992 -62 -517 -7 -1026 -56 -1130 -111 -313 -164 0 -261 678 -208 448 34 571 18 461 -60 -82 -58 -375 -106 -650 -106 -512 0 -1300 213 -1191 323 33 33 126 35 207 4 94 -36 167 23 204 166 50 192 103 213 404 156 233 -44 324 -30 280 42 -36 58 -131 106 -210 106 -79 0 -144 68 -144 150 0 88 -92 151 -225 152 -124 0 -285 39 -358 86 -100 63 -75 100 100 147 128 34 339 63 470 64 197 1 228 42 189 246 -36 191 0 252 164 275 261 37 263 219 3 261 -434 69 -484 117 -283 271 168 130 -474 144 -5465 123 -5364 -24 -5669 -35 -5944 -215 -288 -189 -291 -188 -433 25 -124 187 -236 215 -874 215 -403 0 -757 -39 -786 -87 -68 -111 -558 -116 -558 -7 0 44 -1845 85 -4100 89 l-4100 9 0 -2439z m7319 2267 c-72 -29 -159 -26 -192 8 -33 33 26 56 131 52 117 -5 141 -28 61 -60z m2181 -375 c0 -308 -1134 -424 -1480 -151 l-234 184 582 36 c320 20 706 45 857 55 181 13 275 -30 275 -124z m9081 -83 c25 -128 -33 -174 -214 -174 -201 0 -238 39 -195 205 64 244 360 222 409 -31z m-981 -74 c0 -55 -45 -100 -100 -100 -55 0 -100 45 -100 100 0 55 45 100 100 100 55 0 100 -45 100 -100z m-12450 -500 c34 -56 -40 -99 -169 -98 -186 1 -202 20 -81 98 186 120 176 120 250 0z m5750 -17 c0 -65 75 -201 168 -302 206 -228 104 -337 -385 -410 -272 -42 -382 -17 -425 95 -80 208 -83 204 152 266 253 66 161 268 -122 268 -110 0 -172 45 -138 100 87 141 750 126 750 -17z m9700 17 c121 -78 107 -97 -75 -98 -124 -1 -225 43 -225 98 0 125 106 125 300 0z m-10927 -69 c-97 -26 -232 -24 -300 3 -68 28 12 49 177 47 165 -3 220 -25 123 -50z m-6573 -131 c0 -55 -101 -99 -225 -98 -182 1 -196 20 -75 98 194 125 300 125 300 0z m975 31 c-96 -25 -254 -25 -350 0 -96 25 -17 46 175 46 192 0 271 -21 175 -46z m4800 -406 c29 -88 -94 -125 -417 -125 -501 0 -579 62 -236 189 308 113 604 85 653 -64z m3825 75 c0 -55 -146 -99 -325 -98 -247 1 -289 24 -175 98 197 127 500 127 500 0z m-6775 -366 c-69 -28 -181 -28 -250 0 -69 28 -12 50 125 50 138 0 194 -22 125 -50z m10575 -134 c0 -55 -70 -100 -156 -100 -86 0 -128 45 -94 100 34 55 104 100 156 100 52 0 94 -45 94 -100z m1300 0 c0 -55 68 -100 150 -100 83 0 150 -45 150 -100 0 -153 -267 -119 -443 57 -196 196 -197 243 -7 243 83 0 150 -45 150 -100z m-6413 -259 c20 -17 -36 -104 -125 -193 -89 -89 -162 -204 -162 -255 0 -131 -367 -116 -592 25 -178 112 -180 132 -24 347 137 189 227 218 516 168 193 -33 367 -74 387 -92z m913 9 c0 -82 -67 -150 -150 -150 -82 0 -150 68 -150 150 0 83 68 150 150 150 83 0 150 -67 150 -150z m4889 -125 c197 -208 263 -385 271 -725 17 -753 144 -1928 253 -2340 104 -394 50 -2877 -82 -3760 -37 -247 -70 -629 -74 -848 -6 -365 -31 -399 -298 -420 -160 -12 -318 -65 -350 -116 -33 -52 -226 -140 -430 -196 -360 -99 -1379 -864 -1379 -1036 0 -174 318 -75 571 178 144 144 392 299 552 345 282 80 289 74 226 -211 -47 -214 -7 -375 150 -594 228 -321 190 -600 -54 -397 -87 71 -288 88 -539 46 -342 -58 -433 -33 -628 173 -125 133 -308 270 -405 306 -264 97 -121 521 335 990 404 416 599 952 393 1079 -66 41 -104 160 -84 263 28 146 124 188 428 188 385 0 394 -9 515 -483 155 -608 201 -652 433 -411 153 158 194 379 218 1194 17 550 21 1326 10 1725 -19 651 -41 725 -221 725 -170 0 -200 -67 -200 -450 0 -247 45 -450 100 -450 61 0 100 -455 100 -1164 l0 -1164 -265 389 c-275 405 -472 1497 -319 1771 107 191 114 619 40 2219 -56 1205 -39 1485 120 2000 117 380 160 716 118 918 -57 275 34 531 190 531 23 0 161 -124 305 -275z m1611 25 c0 -82 -67 -150 -150 -150 -156 0 -198 118 -83 233 115 115 233 73 233 -83z m-12600 -50 c0 -55 -101 -99 -225 -98 -182 1 -196 20 -75 98 194 125 300 125 300 0z m2450 0 c36 -58 -68 -100 -250 -100 -182 0 -286 42 -250 100 34 55 146 100 250 100 104 0 216 -45 250 -100z m15750 0 c0 -55 -67 -100 -150 -100 -82 0 -150 45 -150 100 0 55 68 100 150 100 83 0 150 -45 150 -100z m-8202 -175 c-2 -227 -168 -489 -255 -402 -94 94 39 577 159 577 54 0 97 -79 96 -175z m-10633 -48 c-158 -101 -1165 -97 -1165 5 0 46 288 79 640 75 353 -4 589 -40 525 -80z m8435 23 c0 -55 -45 -100 -100 -100 -55 0 -100 45 -100 100 0 55 45 100 100 100 55 0 100 -45 100 -100z m1500 0 c0 -55 -68 -100 -150 -100 -82 0 -150 45 -150 100 0 55 68 100 150 100 82 0 150 -45 150 -100z m7925 -176 c399 -33 575 -90 575 -186 0 -95 -129 -138 -419 -138 -292 0 -488 -66 -650 -217 -388 -366 -301 -469 370 -435 330 17 627 -12 660 -65 94 -153 15 -179 -710 -232 -732 -53 -807 -79 -705 -244 37 -60 402 -108 835 -110 698 -3 751 -17 575 -150 -107 -81 -360 -147 -564 -147 -280 0 -407 -58 -528 -242 -87 -134 -250 -272 -361 -307 -131 -42 -203 -151 -203 -308 0 -225 39 -244 525 -257 289 -7 424 -33 300 -57 -124 -23 -272 -130 -329 -236 -105 -196 -396 -270 -396 -100 0 52 -90 122 -200 157 -282 89 -249 351 96 754 429 502 394 596 -221 598 l-525 3 335 164 c414 205 497 397 253 583 -181 136 -180 142 27 145 139 2 290 129 425 359 262 444 262 444 -40 444 -137 0 -250 36 -250 80 0 161 249 323 397 258 84 -36 412 -87 728 -114z m-2075 -24 c34 -55 -34 -100 -150 -100 -116 0 -184 45 -150 100 34 55 101 100 150 100 49 0 116 -45 150 -100z m-12450 -189 c0 -107 -591 -206 -652 -108 -23 38 -14 98 21 133 98 97 631 76 631 -25z m10200 -372 c0 -21 -93 -39 -206 -39 -113 0 -179 43 -147 96 54 86 353 38 353 -57z m-800 -39 c0 -55 -67 -100 -150 -100 -82 0 -150 45 -150 100 0 55 68 100 150 100 83 0 150 -45 150 -100z m-8250 -394 c382 -79 372 -84 -225 -95 -358 -6 -625 32 -625 89 0 118 297 120 850 6z m8625 -231 c-47 -142 -208 -126 -258 25 -19 55 41 100 133 100 92 0 148 -56 125 -125z m-6525 -275 c-34 -55 -250 -99 -481 -98 -307 1 -379 27 -269 98 200 130 830 130 750 0z m12569 32 c-72 -29 -159 -26 -192 8 -33 33 26 56 131 52 117 -5 141 -28 61 -60z m-18627 -69 c-23 -21 -418 -69 -878 -108 -588 -50 -816 -39 -769 37 39 63 406 108 878 108 445 0 792 -17 769 -37z m4981 -32 c-97 -26 -232 -24 -300 3 -68 28 12 49 177 47 165 -3 220 -25 123 -50z m10127 -575 c0 -312 195 -435 351 -221 67 91 179 165 251 165 87 0 67 -68 -59 -208 -133 -147 -265 -193 -451 -155 -145 29 -310 5 -367 -52 -57 -57 -177 -88 -266 -69 -137 29 -121 93 105 409 311 435 436 473 436 131z m2856 -166 c119 -192 -190 -366 -733 -414 -599 -53 -599 -47 -7 277 488 268 642 296 740 137z m-14737 -158 c-72 -29 -159 -26 -192 8 -33 33 26 56 131 52 117 -5 141 -28 61 -60z m1160 -75 c235 -4 463 -62 504 -130 53 -85 550 -142 1572 -182 1556 -60 2445 -245 2445 -510 0 -103 -48 -117 -175 -52 -197 101 -1303 231 -2425 286 -412 20 -975 48 -1250 63 -275 15 -714 132 -976 259 -521 254 -755 482 -362 352 131 -43 431 -81 667 -86z m-7303 -282 c-50 -150 -576 -231 -576 -89 0 95 197 178 483 202 74 7 115 -44 93 -113z m3296 -41 c28 -83 -64 -92 -325 -33 -510 115 -570 220 -104 181 215 -17 409 -84 429 -148z m17528 -234 c0 -119 -174 -119 -450 0 -168 72 -147 87 125 93 179 4 325 -38 325 -93z m-21500 -287 c2103 -215 3571 -345 4550 -403 593 -36 988 -101 970 -160 -28 -93 305 -207 864 -297 482 -77 1516 -495 1516 -612 0 -84 121 -106 390 -70 330 45 399 21 455 -154 36 -114 155 -235 266 -270 314 -100 162 -301 -199 -264 -177 18 -384 -18 -459 -81 -103 -85 -188 -82 -343 15 -162 101 -231 102 -328 5 -67 -67 -151 -122 -187 -122 -119 0 -495 372 -495 489 0 64 -137 143 -305 177 -270 54 -298 92 -246 329 l59 269 -1029 188 c-566 103 -1240 190 -1499 193 -258 3 -526 61 -595 130 -73 73 -384 125 -753 125 -1014 0 -3958 296 -4257 428 -408 179 -334 299 150 242 234 -27 897 -98 1475 -157z m5419 119 c-72 -29 -159 -26 -192 8 -33 33 26 56 131 52 117 -5 141 -28 61 -60z m12631 -207 c-40 -151 -129 -657 -198 -1125 -346 -2338 -498 -3100 -620 -3100 -71 0 -101 66 -68 151 32 83 14 207 -40 275 -64 82 -53 432 32 1024 244 1689 371 2250 508 2250 73 0 159 124 192 275 93 423 132 525 202 525 35 0 31 -124 -8 -275z m-1400 75 c-34 -55 -138 -97 -231 -93 -138 6 -132 23 31 93 268 115 271 115 200 0z m-8429 -376 c-187 -63 -444 58 -371 176 41 66 137 61 281 -16 141 -76 173 -133 90 -160z m11426 113 c100 -136 208 -148 661 -75 448 73 1661 28 1492 -55 -27 -14 -567 -42 -1200 -63 -1133 -39 -1492 26 -1357 245 98 159 266 137 404 -52z m-3076 -399 c68 -206 -391 -237 -637 -43 l-234 184 417 -15 c229 -7 433 -65 454 -126z m-3307 -89 c-354 -184 -364 -184 -364 1 0 103 103 150 325 149 l325 0 -286 -150z m-764 -55 c0 -58 -45 -78 -100 -44 -55 34 -100 82 -100 106 0 24 45 44 100 44 55 0 100 -48 100 -106z m8550 6 c-34 -55 -129 -100 -212 -100 -82 0 -122 45 -88 100 34 55 129 100 212 100 82 0 122 -45 88 -100z m-11900 -100 c155 -67 104 -88 -225 -93 -234 -4 -425 38 -425 93 0 120 371 120 650 0z m-7794 -106 c-285 -48 -560 -44 -650 9 -105 61 58 88 494 82 l650 -9 -494 -82z m18550 -69 c3 -41 28 -294 54 -562 l48 -487 -278 70 c-360 90 -459 259 -248 423 156 122 155 141 -17 274 -102 79 -155 192 -119 250 74 121 551 148 560 32z m-6406 -625 c0 -55 -45 -100 -100 -100 -55 0 -100 45 -100 100 0 55 45 100 100 100 55 0 100 -45 100 -100z m-15071 -334 l440 -234 -309 -128 c-457 -189 -660 -217 -660 -89 0 62 79 173 175 247 163 126 160 139 -49 198 -123 34 -199 103 -169 151 74 120 73 121 572 -145z m7171 -52 c0 -48 -107 -66 -239 -41 -131 25 -326 -1 -434 -58 -107 -58 -303 -75 -436 -39 -236 65 -234 68 59 133 448 100 1050 103 1050 5z m7750 -214 c-34 -55 -82 -100 -106 -100 -24 0 -44 45 -44 100 0 55 48 100 106 100 58 0 78 -45 44 -100z m8325 -116 c-14 -64 88 -150 225 -190 206 -61 175 -76 -175 -84 -362 -9 -425 20 -425 190 0 133 67 200 200 200 110 0 189 -52 175 -116z m-22075 -275 c0 -105 -784 -259 -871 -171 -76 76 359 248 646 256 124 3 225 -35 225 -85z m20150 -9 c-34 -55 -287 -100 -562 -100 -308 0 -476 38 -438 100 34 55 287 100 562 100 308 0 476 -38 438 -100z m-10984 -102 c-158 -48 -379 -47 -500 2 -165 67 -98 87 284 85 432 -2 461 -14 216 -87z m-1416 -299 c35 -55 -7 -127 -93 -160 -86 -33 -131 -100 -101 -149 50 -80 -461 -144 -856 -108 -82 8 -341 25 -575 38 -234 13 -425 55 -425 93 0 38 326 123 725 189 399 65 770 133 825 151 213 67 441 43 500 -54z m14200 1 c34 -55 -31 -100 -144 -100 -113 0 -206 45 -206 100 0 55 65 100 144 100 79 0 172 -45 206 -100z m-18986 -170 c-108 -108 -364 -123 -364 -21 0 50 98 91 217 91 119 0 185 -31 147 -70z m17136 -30 c0 -55 -160 -100 -356 -100 -212 0 -331 40 -294 100 34 55 194 100 356 100 162 0 294 -45 294 -100z m-11000 -239 c0 -95 -299 -143 -353 -57 -32 53 34 96 147 96 113 0 206 -18 206 -39z m-6750 -261 c-34 -55 -160 -99 -281 -98 -178 1 -191 19 -69 98 197 127 429 127 350 0z m9839 -381 c84 -230 211 -419 282 -419 158 0 159 -25 13 -345 -64 -140 -165 -254 -225 -253 -287 3 -913 297 -942 441 -43 214 467 1079 608 1032 61 -20 180 -225 264 -456z m10061 281 c63 -103 -341 -300 -615 -300 -232 0 -102 236 172 312 353 99 375 98 443 -12z m-23150 -100 c0 -55 -214 -95 -475 -88 -424 10 -443 20 -175 88 442 113 650 113 650 0z m6381 14 c220 -139 -264 -375 -927 -452 -328 -38 -621 -101 -650 -141 -70 -93 -884 -145 -1014 -65 -212 131 142 344 572 344 241 0 438 46 438 102 0 59 106 75 251 39 139 -35 307 -18 375 37 236 191 752 265 955 136z m4319 -14 c93 -60 104 -98 30 -98 -177 -3 -282 -695 -141 -922 65 -103 91 -231 58 -284 -86 -140 -445 -117 -459 29 -6 69 -40 -10 -75 -175 -73 -341 -355 -438 -648 -223 -167 122 -173 176 -55 579 75 259 253 548 426 694 163 138 346 305 405 371 133 148 262 156 459 29z m8600 0 c0 -55 -45 -100 -100 -100 -55 0 -100 45 -100 100 0 55 45 100 100 100 55 0 100 -45 100 -100z m-12327 -69 c-97 -26 -232 -24 -300 3 -68 28 12 49 177 47 165 -3 220 -25 123 -50z m2225 -683 c-70 -84 -153 -127 -184 -95 -32 32 8 100 89 151 212 134 239 117 95 -56z m6852 -101 c-319 -262 -450 -306 -450 -153 0 130 411 407 597 402 99 -2 48 -90 -147 -249z m7300 153 c34 -55 48 -100 31 -101 -17 -1 -245 -66 -506 -145 -450 -137 -475 -134 -475 44 0 139 87 200 325 230 179 22 379 47 444 56 66 9 147 -29 181 -84z m-6585 -152 c80 -209 -152 -734 -379 -855 -102 -55 -186 -188 -186 -297 0 -108 -64 -196 -141 -196 -208 0 -67 418 266 791 319 357 334 409 113 409 -133 0 -140 27 -38 150 159 192 291 191 365 -2z m-665 -436 c0 -48 -64 -141 -142 -205 -117 -97 -133 -82 -88 87 52 201 230 292 230 118z m-12025 -81 c-96 -25 -254 -25 -350 0 -96 25 -17 46 175 46 193 0 271 -21 175 -46z m19513 -183 c115 -109 48 -129 -400 -116 -296 8 -617 -23 -713 -69 -137 -66 -175 -40 -175 120 0 145 79 216 275 246 382 59 849 -24 1013 -181z m-21913 83 c-96 -25 -254 -25 -350 0 -96 25 -17 46 175 46 193 0 271 -21 175 -46z m5788 -1 c-120 -120 -1039 -150 -1109 -37 -44 72 141 107 557 107 342 0 591 -32 552 -70z m5817 -50 c66 -66 120 -200 120 -299 0 -109 135 -235 350 -325 193 -80 350 -163 350 -183 0 -21 -112 -143 -248 -272 l-249 -233 -153 366 c-84 201 -186 366 -227 366 -136 0 -325 -387 -221 -451 54 -34 98 -281 98 -549 0 -381 46 -521 207 -634 130 -91 167 -170 100 -211 -59 -37 -107 -354 -107 -706 0 -497 38 -660 169 -734 150 -84 155 -139 41 -485 -71 -214 -130 -500 -131 -635 -3 -324 188 -1891 323 -2641 59 -329 93 -756 76 -950 -29 -321 -43 -298 -156 246 -69 330 -197 870 -285 1200 -264 991 -354 1810 -403 3675 l-47 1775 -376 0 c-300 0 -405 51 -511 250 -74 138 -197 250 -274 250 -205 0 -114 441 99 481 123 24 175 -31 175 -184 0 -158 44 -202 158 -158 87 34 177 61 200 61 23 0 42 65 42 145 0 242 224 655 355 655 68 0 150 68 181 150 70 181 183 191 344 30z m-1737 -137 c203 -203 198 -275 -34 -485 -277 -250 -849 -180 -890 111 -22 154 51 263 250 371 361 195 481 196 674 3z m599 96 c239 -92 189 -239 -81 -239 -132 0 -266 68 -297 150 -61 158 100 196 378 89z m5714 -324 c-142 -682 -374 -3274 -378 -4234 -3 -751 -42 -1084 -128 -1117 -90 -35 -110 -301 -73 -1006 48 -911 40 -958 -152 -958 -125 0 -225 86 -262 225 -96 357 -70 2310 33 2472 62 98 53 174 -26 225 -86 56 -89 99 -10 153 60 41 139 368 176 725 36 358 88 830 115 1050 26 220 92 895 147 1500 74 829 139 1130 265 1222 232 169 359 58 293 -257z m-10959 -111 c195 -123 144 -155 -447 -279 -275 -57 -761 -160 -1080 -229 -401 -87 -612 -94 -684 -22 -72 72 92 167 530 309 951 309 1440 373 1681 221z m3396 -70 c138 -119 -215 -239 -530 -180 -347 65 -433 143 -304 272 58 57 749 -18 834 -92z m8189 -1259 c36 -734 18 -875 -109 -875 -230 0 -282 -240 -344 -1600 -32 -687 -96 -1340 -143 -1450 -142 -338 130 4572 280 5050 105 332 275 -272 316 -1125z m-9282 975 c0 -82 -42 -150 -94 -150 -126 0 -217 156 -137 236 113 113 231 69 231 -86z m-8427 -119 c-97 -26 -232 -24 -300 3 -68 28 12 49 177 47 165 -3 220 -25 123 -50z m2541 -389 c122 -259 315 -496 444 -545 334 -127 778 -954 857 -1596 93 -753 376 -2463 488 -2951 51 -220 87 -580 81 -800 -8 -269 -26 -318 -56 -150 -25 138 -204 925 -397 1750 -193 825 -347 1666 -342 1870 5 203 -35 397 -90 431 -205 127 -86 -1247 217 -2501 486 -2006 622 -3100 386 -3100 -112 0 -244 454 -534 1850 -213 1018 -420 2075 -462 2350 -88 576 -190 850 -317 850 -49 0 -89 113 -89 251 0 139 -39 330 -87 425 -150 301 -329 858 -422 1313 -50 242 -141 501 -203 575 -84 102 -81 174 12 286 196 236 284 183 514 -308z m5286 258 c0 -55 -124 -97 -275 -93 -244 6 -252 17 -75 93 273 117 350 117 350 0z m6495 -90 c264 -495 -448 -1213 -914 -921 -151 94 -229 95 -339 4 -115 -95 -142 -79 -142 81 0 279 362 708 735 872 434 190 542 184 660 -36z m1278 -235 c-25 -312 -73 -414 -179 -385 -79 22 -268 61 -419 86 -151 26 -275 81 -275 122 0 82 701 586 829 596 43 3 63 -185 44 -419z m-6520 150 c-93 -237 -252 -1211 -252 -1550 -1 -393 178 -340 256 75 36 193 105 350 154 350 49 0 89 52 89 116 0 139 710 789 801 733 35 -21 123 -217 195 -436 124 -375 115 -420 -158 -846 -158 -247 -423 -520 -588 -607 -165 -87 -367 -198 -450 -245 -776 -447 -798 -452 -1065 -201 -199 187 -238 297 -189 536 34 165 88 427 120 583 33 156 4 386 -63 512 -213 397 288 1135 684 1009 108 -34 225 -15 260 42 109 176 279 117 206 -71z m13547 75 c0 -55 -67 -100 -150 -100 -82 0 -150 45 -150 100 0 55 68 100 150 100 83 0 150 -45 150 -100z m-22000 -158 c0 -101 -544 -246 -692 -185 -116 48 -65 99 192 191 321 115 500 113 500 -6z m1126 -67 c-103 -423 -426 -656 -426 -308 0 173 274 533 406 533 41 0 50 -101 20 -225z m14474 -125 c-68 -82 -164 -150 -212 -150 -49 0 -88 68 -88 150 0 86 90 150 212 150 178 0 192 -25 88 -150z m6575 -375 c-23 -69 -263 -154 -533 -190 -271 -35 -571 -96 -667 -135 -133 -54 -175 -22 -175 132 0 237 154 291 883 306 386 9 522 -23 492 -113z m-6675 -131 c0 -24 -45 -44 -100 -44 -55 0 -100 48 -100 106 0 58 45 78 100 44 55 -34 100 -82 100 -106z m-956 -137 c108 -120 150 -268 111 -393 -52 -163 -13 -206 216 -232 247 -28 277 -70 263 -366 -8 -185 -110 -435 -230 -562 -181 -193 -205 -303 -153 -716 57 -445 35 -521 -252 -863 -369 -442 -699 -502 -699 -127 0 195 -93 289 -445 450 -244 111 -492 202 -552 202 -202 0 -340 468 -225 770 171 453 233 830 135 830 -51 0 -118 -67 -149 -150 -76 -197 -354 -193 -430 7 -131 339 581 1069 869 891 126 -78 125 -419 -1 -497 -55 -33 35 -192 200 -353 176 -172 298 -395 298 -545 0 -158 56 -253 150 -253 199 0 202 628 3 931 -135 207 -112 669 34 669 35 0 131 -281 213 -625 83 -344 195 -625 250 -625 55 0 114 237 130 527 24 406 -17 594 -176 818 -216 302 -210 312 206 393 32 7 138 -75 234 -181z m4156 43 c0 -82 -66 -150 -147 -150 -89 0 -124 59 -89 150 31 83 98 150 147 150 49 0 89 -67 89 -150z m-18400 -245 c0 -53 -112 -208 -250 -346 -142 -142 -250 -365 -250 -517 0 -256 17 -265 400 -204 318 51 400 34 400 -87 0 -112 -114 -151 -440 -151 -399 0 -450 -28 -545 -300 -58 -165 -154 -300 -214 -300 -146 0 -33 621 212 1170 103 230 187 457 187 505 0 129 223 325 370 325 72 0 130 -43 130 -95z m20677 -286 c22 -66 -32 -119 -119 -119 -87 0 -158 71 -158 158 0 177 215 146 277 -39z m-15983 -404 c388 -371 506 -555 506 -785 0 -165 90 -403 200 -530 122 -140 200 -374 200 -598 0 -202 64 -836 142 -1410 78 -573 173 -1371 211 -1774 54 -575 120 -787 310 -992 287 -309 262 -476 -71 -476 -419 0 -578 684 -858 3678 -56 600 -162 877 -288 751 -36 -36 16 -604 202 -2229 157 -1365 178 -1978 68 -1910 -64 40 -116 238 -116 441 0 359 -263 1778 -357 1931 -62 99 -204 2008 -238 3196 -3 87 -234 307 -513 488 l-509 329 284 187 c156 103 292 187 302 187 11 1 247 -217 525 -484z m12279 -937 c-21 -236 -38 -68 -39 372 0 440 17 632 39 428 21 -205 21 -565 0 -800z m1327 816 c0 -52 -45 -94 -100 -94 -55 0 -100 70 -100 156 0 86 45 128 100 94 55 -34 100 -104 100 -156z m2300 -194 c0 -55 -45 -100 -100 -100 -55 0 -100 45 -100 100 0 55 45 100 100 100 55 0 100 -45 100 -100z m-14950 -300 c-34 -55 -107 -100 -162 -100 -55 0 -72 45 -38 100 34 55 107 100 162 100 55 0 72 -45 38 -100z m-7331 -68 c-72 -29 -159 -26 -192 8 -33 33 26 56 131 52 117 -5 141 -28 61 -60z m11700 -500 c-72 -29 -159 -26 -192 8 -33 33 26 56 131 52 117 -5 141 -28 61 -60z m8596 -257 c-56 -56 -183 -68 -283 -28 -171 70 -170 79 18 151 243 93 406 18 265 -123z m-9842 56 c-97 -26 -232 -24 -300 3 -68 28 12 49 177 47 165 -3 220 -25 123 -50z m8359 -2067 c57 -1131 47 -1271 -84 -1163 -119 99 -146 401 -139 1536 10 1670 131 1467 223 -373z m1554 91 c-25 -1049 -76 -1585 -159 -1668 -68 -68 -141 -104 -163 -80 -21 24 -70 774 -109 1668 l-71 1625 269 0 268 0 -35 -1545z m-10586 670 c212 -179 419 -488 525 -785 246 -686 388 -1985 284 -2590 -76 -444 -87 -461 -100 -150 -47 1112 -123 1747 -224 1868 -184 221 -235 59 -204 -650 20 -482 -1 -626 -75 -518 -57 83 -105 330 -107 550 -5 483 -157 1208 -326 1550 -294 597 -887 901 -1368 702 -162 -67 -314 -196 -338 -287 -33 -125 -47 -116 -55 38 -18 307 259 634 615 726 402 104 907 -63 1373 -454z m4637 150 c70 -261 86 -5731 17 -5662 -26 25 -71 314 -100 642 -30 327 -122 1293 -204 2145 -182 1884 -191 2819 -30 2980 174 174 249 149 317 -105z m-4137 25 c121 -78 107 -97 -75 -98 -124 -1 -225 43 -225 98 0 125 106 125 300 0z m6038 -475 c-14 -316 -52 -1295 -84 -2175 -60 -1633 -264 -3494 -398 -3626 -41 -41 -61 1254 -44 2876 29 2749 45 2969 228 3225 109 151 226 275 260 275 35 0 52 -259 38 -575z m-3510 -850 c96 -619 241 -1315 322 -1546 80 -232 175 -599 209 -815 59 -367 47 -394 -173 -388 -130 3 -322 -31 -426 -76 -177 -77 -186 -48 -123 421 62 467 50 509 -160 565 -473 127 -762 63 -1060 -234 l-298 -298 -48 473 c-26 260 -74 631 -106 823 -342 2039 -346 1995 207 2010 208 5 491 46 628 90 138 44 386 85 552 90 l301 10 175 -1125z m5572 182 c0 -753 -34 -977 -169 -1112 -160 -159 -174 -158 -243 18 -123 312 -99 463 62 401 169 -65 171 -52 151 809 -13 567 35 827 155 827 24 0 44 -424 44 -943z m-3137 354 c-92 -579 -214 -3576 -205 -5061 5 -861 -21 -1199 -77 -1000 -136 485 -92 6106 50 6325 171 265 294 124 232 -264z m7137 87 c0 -57 115 -147 255 -200 262 -99 582 -689 525 -967 -24 -120 -88 -104 -325 83 -163 128 -343 238 -400 245 -528 62 -686 335 -431 742 130 209 376 272 376 97z m-18827 -67 c-97 -26 -232 -24 -300 3 -68 28 12 49 177 47 165 -3 220 -25 123 -50z m2627 -137 c0 -52 -96 -94 -212 -94 -177 0 -192 25 -89 149 125 150 301 118 301 -55z m3000 -211 c0 -108 45 -281 101 -385 56 -104 142 -697 193 -1318 85 -1049 77 -1145 -101 -1336 -106 -114 -193 -260 -193 -325 0 -66 -45 -119 -100 -119 -55 0 -100 87 -100 194 0 107 -45 222 -100 256 -55 34 -100 153 -100 265 0 120 -83 225 -200 256 -110 29 -200 132 -200 228 0 97 -60 226 -134 288 -124 103 -324 1028 -388 1797 -28 332 -26 334 453 364 264 17 505 55 535 84 109 109 334 -59 334 -249z m6371 -2558 c-31 -1361 -98 -2610 -150 -2775 -185 -595 -245 740 -126 2810 111 1931 170 2440 280 2440 29 0 27 -1114 -4 -2475z m-9269 1689 c1 -310 67 -1014 147 -1564 182 -1254 188 -1650 26 -1648 -301 3 -398 204 -487 1004 -52 458 -182 1180 -291 1605 -267 1046 -259 1168 78 1210 470 60 525 -3 527 -607z m15798 143 c0 -252 473 -533 909 -539 726 -10 684 -195 -62 -270 -502 -51 -841 -265 -855 -538 -4 -89 -29 -108 -55 -44 -26 63 23 284 109 490 166 398 164 476 -10 364 -432 -278 -579 -1457 -236 -1893 110 -140 200 -311 200 -380 0 -180 283 -263 501 -147 269 144 299 129 299 -157 0 -209 -36 -245 -195 -195 -107 34 -330 -7 -494 -92 -178 -92 -324 -117 -359 -60 -92 149 -345 6 -495 -282 l-138 -262 -177 372 c-143 300 -155 419 -62 623 64 138 90 380 58 536 -39 196 -2 339 120 461 143 143 155 213 61 363 -97 155 -83 205 82 294 109 58 199 156 199 216 0 61 101 373 225 695 215 560 375 749 375 445z m-16834 -582 c-28 -69 -50 -12 -50 125 0 138 22 194 50 125 28 -69 28 -181 0 -250z m11934 -567 c0 -303 48 -508 125 -536 161 -57 80 -143 -175 -186 -244 -40 -250 -23 -250 664 0 422 35 550 150 550 113 0 150 -121 150 -492z m1728 294 c37 -139 -67 -318 -350 -600 -221 -221 -436 -402 -478 -402 -189 0 -429 -599 -744 -1861 -344 -1377 -471 -1664 -654 -1481 -64 64 -33 305 89 695 103 328 284 935 404 1347 217 751 353 1119 515 1400 48 83 156 304 241 492 223 498 341 608 650 608 191 0 292 -61 327 -198z m2264 161 c-23 -21 -199 -113 -392 -205 l-350 -168 236 205 c130 113 306 205 392 205 85 0 137 -17 114 -37z m-19675 -223 c348 -88 704 -223 791 -300 87 -77 206 -140 265 -140 126 0 491 -432 1177 -1395 518 -727 712 -883 884 -711 68 68 41 167 -82 303 -198 219 -231 764 -57 938 109 109 670 -146 828 -377 279 -408 -139 -1151 -655 -1169 l-318 -10 275 -109 c254 -100 390 -370 186 -370 -49 0 -116 -107 -149 -238 -33 -130 -174 -312 -313 -404 -224 -146 -278 -149 -461 -21 l-208 146 204 108 c111 60 296 109 409 109 114 0 206 56 204 125 -4 168 -244 475 -371 475 -55 0 -128 135 -161 300 -33 167 -124 300 -204 300 -79 0 -393 355 -698 790 -627 895 -897 1119 -1643 1363 -494 162 -950 158 -1486 -10 -101 -32 -4 57 216 199 471 303 539 307 1367 98z m3883 -363 c0 -255 -90 -187 -148 112 -23 120 1 190 53 158 52 -32 95 -154 95 -270z m12200 167 c0 -86 -46 -128 -102 -93 -56 35 -75 105 -44 156 86 139 146 113 146 -63z m5200 -175 c0 -72 -66 -218 -147 -325 -81 -107 -148 -340 -150 -519 -2 -179 -48 -325 -103 -325 -110 0 -140 1126 -33 1233 117 118 433 71 433 -64z m560 -142 c-101 -102 -185 51 -102 186 63 102 87 102 121 1 23 -70 15 -154 -19 -187z m-2560 -30 c0 -135 -261 -233 -397 -149 -58 36 -80 108 -49 159 79 127 446 118 446 -10z m-8583 -656 c-23 -367 11 -540 125 -635 221 -183 204 -245 -192 -675 -192 -210 -349 -415 -350 -456 -1 -157 345 -65 663 178 287 219 359 236 540 125 114 -71 296 -269 404 -442 173 -278 181 -356 69 -692 -161 -485 -435 -613 -344 -161 70 351 -49 487 -233 266 -175 -211 -290 -185 -228 51 65 250 -218 277 -354 34 -83 -148 -101 -142 -162 50 -86 272 -355 284 -355 16 0 -110 -42 -200 -94 -200 -180 0 -229 221 -101 459 197 368 62 383 -465 55 l-481 -299 -180 295 c-98 162 -179 310 -179 329 0 18 275 157 612 308 l611 275 -68 414 c-109 658 -81 800 202 1044 424 366 599 260 560 -339z m6683 247 c0 -264 -23 -294 -148 -190 -110 91 -122 172 -46 313 143 268 194 236 194 -123z m-8700 -705 c0 -284 -29 -487 -65 -451 -36 36 -62 246 -58 467 9 490 11 501 73 501 28 0 50 -233 50 -517z m10482 284 c36 -184 -58 -211 -270 -77 -157 100 -53 340 122 282 64 -21 131 -114 148 -205z m2728 -97 c-128 -128 -258 -29 -163 125 37 60 113 80 169 45 68 -42 66 -98 -6 -170z m-6368 -95 c-39 -124 -131 -382 -204 -575 l-134 -350 61 500 c68 559 102 650 248 650 59 0 71 -93 29 -225z m-8542 20 c0 -57 88 -287 195 -509 l196 -404 -240 -223 c-297 -275 -951 -497 -951 -323 0 64 -98 161 -217 215 -397 181 -445 395 -177 790 169 248 321 358 494 360 138 1 318 46 400 99 196 127 300 125 300 -5z m5000 -451 c0 -386 8 -380 -343 -246 -326 123 -345 475 -32 593 308 117 375 54 375 -347z m3167 313 c-31 -78 -86 -306 -123 -505 -97 -517 -172 -360 -90 189 38 252 113 459 168 459 55 0 75 -64 45 -143z m3553 -177 c-93 -93 -120 -67 -120 120 0 187 27 213 120 120 93 -93 93 -147 0 -240z m-1866 -1960 c-140 -139 -191 163 -176 1037 22 1338 166 1414 201 105 15 -599 4 -1112 -25 -1142z m-8733 1680 c-33 -228 -5 -300 118 -300 88 0 161 -45 161 -100 0 -117 -28 -121 -242 -39 -164 63 -234 739 -75 739 45 0 63 -135 38 -300z m9235 -577 c-105 -106 -124 27 -66 477 l58 450 32 -435 c18 -240 7 -461 -24 -492z m-4759 140 c-3 -385 -13 -400 -150 -219 -81 107 -147 349 -147 537 0 294 22 326 150 219 90 -75 149 -289 147 -537z m-3697 140 c-149 -115 -265 -150 -287 -86 -44 124 172 280 387 279 99 0 65 -66 -100 -193z m-4604 -296 c155 -290 127 -407 -99 -407 -224 0 -350 217 -261 450 79 207 237 188 360 -43z m1108 -277 c312 -355 317 -373 122 -460 -307 -137 -726 175 -726 542 0 396 209 368 604 -82z m9612 195 c29 -322 -10 -565 -212 -1310 -190 -704 -243 -391 -99 583 122 821 271 1170 311 727z m6884 -214 c0 -204 -185 -311 -533 -311 -200 1 -194 20 83 247 364 298 450 311 450 64z m-14750 -111 c-34 -55 -82 -100 -106 -100 -24 0 -44 45 -44 100 0 55 48 100 106 100 58 0 78 -45 44 -100z m5819 -476 c-25 -96 -45 6 -44 226 1 220 22 298 46 174 24 -125 23 -305 -2 -400z m-9269 226 c0 -82 -66 -150 -147 -150 -89 0 -124 59 -89 150 31 83 98 150 147 150 49 0 89 -67 89 -150z m643 -139 c30 -48 -16 -147 -102 -218 -129 -107 -172 -105 -247 13 -50 79 -92 178 -92 219 -3 106 375 94 441 -14z m11923 -336 c-28 -69 -50 -12 -50 125 0 138 22 194 50 125 28 -69 28 -181 0 -250z m-6829 -150 c-146 -601 -224 -691 -231 -267 -6 405 48 542 213 542 46 0 55 -124 18 -275z m6823 -398 c-101 -102 -185 51 -102 186 63 102 87 102 121 1 23 -70 15 -154 -19 -187z"/>
<path d="M16754 20807 c-31 -51 -12 -121 44 -156 56 -35 102 7 102 93 0 176 -60 202 -146 63z"/>
<path d="M17000 20506 c0 -58 45 -106 100 -106 55 0 100 20 100 44 0 24 -45 72 -100 106 -55 34 -100 14 -100 -44z"/>
<path d="M16654 20307 c-31 -51 -12 -121 44 -156 56 -35 102 7 102 93 0 176 -60 202 -146 63z"/>
<path d="M17064 19951 c31 -83 98 -125 148 -94 105 65 21 243 -115 243 -50 0 -65 -67 -33 -149z"/>
<path d="M17108 19558 c-4 -105 19 -164 52 -131 34 33 37 120 8 192 -32 80 -55 56 -60 -61z"/>
<path d="M16800 18750 c0 -82 45 -150 100 -150 55 0 100 68 100 150 0 83 -45 150 -100 150 -55 0 -100 -67 -100 -150z"/>
<path d="M16808 16658 c-4 -105 19 -164 52 -131 34 33 37 120 8 192 -32 80 -55 56 -60 -61z"/>
<path d="M9800 17200 c0 -55 45 -100 100 -100 55 0 100 45 100 100 0 55 -45 100 -100 100 -55 0 -100 -45 -100 -100z"/>
<path d="M10967 13233 c-96 -95 -83 -233 22 -233 49 0 116 68 147 150 59 152 -48 205 -169 83z"/>
<path d="M22569 3597 c-36 -136 -62 -359 -58 -497 7 -180 35 -139 101 143 102 433 63 751 -43 354z"/>
<path d="M10162 1054 c-201 -306 -202 -354 -10 -354 123 0 348 360 348 557 0 129 -198 10 -338 -203z"/>
</g>
</svg>