<svg xmlns="http://www.w3.org/2000/svg" version="1.0" width="250" height="250" viewBox="0 0 250.000000 250.000000" preserveAspectRatio="xMidYMid meet">
<metadata>
Created by potrace 1.10, written by Peter Selinger 2001-2011
</metadata>
<g transform="translate(0.000000,250.000000) scale(0.010000,-0.010000)" fill="#555555" stroke="none">
<path d="M16 22375 c8 -1444 42 -2405 75 -2136 45 378 108 507 272 568 188 69 221 34 277 -290 77 -449 370 -817 651 -817 254 0 272 182 35 355 -146 107 -27 127 725 123 818 -5 866 -16 531 -117 -466 -141 -508 -318 -67 -288 272 19 297 6 135 -68 -110 -50 -417 -94 -682 -98 -264 -4 -572 -56 -683 -115 -156 -83 -241 -72 -376 50 -96 87 -227 158 -292 158 -129 0 -146 87 -119 586 14 242 -18 324 -114 292 -96 -32 -124 -203 -100 -605 18 -308 -3 -664 -47 -791 -72 -207 -88 -188 -145 168 -35 220 -70 -4044 -78 -9475 l-14 -9875 385 0 385 0 106 625 c58 344 162 760 231 925 l125 300 60 -300 c61 -299 62 -298 246 183 208 545 1404 1867 1688 1867 433 0 -31 -598 -764 -984 -419 -221 -466 -288 -1010 -1415 -423 -876 -412 -1201 37 -1201 240 0 296 50 348 310 108 540 501 1290 676 1290 217 0 532 466 359 531 -143 54 48 224 749 665 302 190 495 259 537 191 38 -62 197 -81 376 -45 291 58 297 53 113 -87 -109 -82 -256 -150 -329 -152 -72 -2 -279 -115 -459 -253 -180 -137 -401 -250 -491 -250 -98 0 -248 -190 -377 -475 -117 -261 -276 -546 -352 -632 -76 -87 -167 -368 -202 -625 -62 -452 -56 -468 193 -468 215 0 255 44 249 275 -10 354 427 1216 812 1601 325 325 1398 968 1479 887 93 -93 -81 -263 -267 -263 -103 0 -332 -184 -509 -408 -178 -225 -429 -448 -559 -498 -228 -86 -335 -394 -138 -394 56 0 72 -131 37 -303 -77 -387 203 -735 526 -653 141 35 240 1 276 -95 45 -116 247 -149 911 -149 l853 0 0 280 c0 384 469 1295 768 1491 156 102 204 185 132 229 -164 101 400 443 692 419 133 -11 358 52 500 139 142 87 81 5 -134 -183 -574 -500 -280 -557 341 -66 310 245 476 332 415 217 -57 -106 -179 -256 -272 -333 -254 -211 -642 -863 -642 -1080 0 -106 -67 -218 -150 -249 -98 -38 -150 -194 -150 -450 l0 -393 606 -8 c560 -8 601 6 543 189 -34 109 -17 198 38 198 55 0 128 -90 163 -200 47 -148 151 -200 401 -200 334 0 336 3 198 268 -135 260 -119 432 41 432 43 0 163 -157 267 -350 105 -196 266 -350 364 -350 163 0 162 25 -23 353 -109 194 -198 423 -198 509 0 86 -89 180 -198 208 -199 52 -279 302 -328 1026 -18 261 19 355 151 382 118 25 175 -25 175 -155 0 -335 395 -1355 615 -1589 117 -125 264 -329 326 -455 143 -287 593 -389 492 -111 -64 174 -58 174 133 7 155 -136 377 -174 992 -172 l792 3 -527 472 -527 472 -103 842 c-77 627 -73 914 16 1129 156 378 794 733 1546 860 332 56 936 263 1341 460 406 198 754 342 775 322 72 -73 -498 -672 -778 -817 -156 -80 -490 -146 -743 -146 -514 0 -914 -173 -1305 -564 -270 -270 -292 -586 -95 -1349 63 -241 47 -259 -191 -213 -142 27 -259 21 -259 -14 0 -101 633 -650 825 -714 96 -33 176 -113 178 -178 8 -282 382 -568 744 -568 253 0 343 36 292 117 -52 84 -18 92 120 27 356 -168 2469 -168 3114 -1 327 85 1110 184 1738 220 1045 59 1178 47 1563 -150 344 -175 578 -212 1274 -199 468 9 852 44 852 79 0 71 645 962 1114 1540 220 272 367 369 503 334 177 -47 189 1 162 616 -28 645 -38 668 -304 699 -325 37 -352 -82 -75 -332 292 -264 251 -419 -237 -893 -241 -234 -650 -747 -909 -1140 -259 -394 -512 -741 -563 -772 -86 -54 -134 156 -98 430 26 207 -175 141 -245 -81 -88 -279 -498 -427 -780 -281 -378 196 -476 306 -380 425 234 289 492 861 610 1355 108 450 231 642 719 1123 696 688 968 789 1341 495 465 -365 506 -100 48 306 l-432 383 338 -2 c186 -1 451 -90 588 -198 138 -108 284 -197 325 -198 130 -4 81 663 -69 953 -126 243 -126 323 0 624 79 190 144 603 144 917 l0 572 -363 13 c-469 18 -737 105 -737 240 0 70 186 85 550 42 435 -51 550 -36 550 75 0 187 -606 293 -944 164 -407 -154 -484 -128 -417 141 49 193 -5 295 -264 499 l-325 256 279 1 c328 1 771 -263 771 -461 0 -76 45 -138 100 -138 55 0 100 68 100 150 0 226 157 180 341 -100 90 -138 208 -250 261 -250 61 0 98 835 98 2200 0 2133 -6 2200 -200 2200 -259 0 -259 168 0 250 186 59 200 151 200 1300 l0 1236 -300 214 c-165 117 -300 275 -300 349 0 75 -112 269 -250 433 -137 163 -250 355 -250 427 0 71 106 -13 234 -188 230 -310 689 -721 807 -721 32 0 59 90 59 200 0 110 -49 200 -108 200 -59 0 -275 180 -481 400 -205 220 -444 400 -531 400 -179 0 -280 201 -280 558 0 266 146 326 235 96 70 -184 849 -754 1030 -754 76 0 135 105 135 240 0 176 -79 268 -294 343 -365 127 -845 848 -768 1153 30 118 281 572 558 1010 295 465 504 912 504 1075 0 153 -19 279 -43 279 -23 0 -189 -259 -368 -575 -179 -316 -425 -710 -546 -875 -121 -165 -346 -547 -499 -850 -237 -467 -279 -674 -281 -1374 -3 -821 -79 -888 -257 -226 -87 324 -40 768 148 1375 40 130 27 225 -31 225 -140 0 -423 -739 -423 -1102 0 -164 -45 -298 -100 -298 -146 0 -122 795 40 1334 77 256 102 466 56 466 -135 0 -230 -208 -410 -900 l-168 -650 -9 600 c-4 342 54 718 136 875 121 233 122 275 4 275 -135 0 -347 -565 -348 -925 -1 -166 -193 -258 -208 -100 -4 41 -27 238 -52 438 -36 300 -2 389 199 521 133 87 386 464 561 837 176 374 607 1116 959 1649 352 534 640 1051 640 1150 1 99 135 383 300 630 350 527 376 800 100 1050 -110 100 -200 239 -200 311 0 306 -239 639 -459 639 -208 0 -219 -26 -134 -324 139 -483 120 -549 -207 -742 -165 -97 -300 -224 -300 -281 0 -56 -236 -210 -525 -340 -289 -131 -472 -257 -407 -281 131 -49 894 316 1108 530 262 262 349 157 281 -337 -36 -261 -138 -711 -225 -1000 -146 -482 -184 -525 -460 -525 -282 0 -1171 -469 -1172 -618 0 -37 -75 -142 -166 -234 -128 -128 -266 -151 -600 -101 -437 66 -535 -6 -314 -227 268 -268 1080 -50 1080 291 0 179 805 689 1085 689 251 0 277 -124 65 -300 -82 -68 -150 -168 -150 -222 0 -53 -95 -231 -211 -394 -116 -163 -323 -507 -459 -765 -136 -258 -333 -562 -439 -675 -105 -114 -191 -278 -191 -364 0 -87 -85 -262 -188 -390 -168 -207 -218 -219 -455 -111 -365 166 -550 147 -313 -32 107 -81 321 -147 475 -147 233 0 281 -43 281 -250 0 -294 -17 -298 -414 -93 -167 87 -379 128 -470 93 -129 -51 -88 -100 184 -221 193 -85 495 -183 672 -217 230 -44 299 -99 242 -191 -62 -98 -215 -108 -647 -40 -523 82 -567 74 -567 -103 0 -271 -183 -578 -344 -578 -99 0 -128 117 -106 425 17 234 36 639 41 900 6 341 49 475 152 475 108 0 135 115 110 475 -33 493 50 1088 248 1775 64 220 139 524 169 676 65 340 193 429 384 270 117 -97 146 -90 146 33 0 85 -55 173 -122 195 -94 31 -90 135 16 458 140 423 350 534 579 305 130 -130 627 -35 627 119 0 57 -56 95 -125 87 -270 -35 -366 13 -311 157 40 106 -8 150 -166 150 -186 0 -202 -24 -98 -150 104 -125 90 -150 -88 -150 -240 0 -269 167 -73 425 86 113 269 175 515 175 417 0 1046 193 1046 320 0 115 -134 100 -637 -71 -244 -82 -515 -123 -603 -89 -193 74 -192 24 -10 540 218 619 199 1000 -50 1000 -154 0 -200 -67 -200 -289 0 -310 -238 -1174 -459 -1661 -422 -935 -929 -2285 -988 -2631 -46 -276 -127 -415 -260 -450 -142 -37 -193 1 -193 145 0 171 -47 187 -375 128 -206 -36 -418 -106 -470 -154 -52 -48 -279 -88 -505 -88 -225 0 -457 -47 -514 -104 -73 -73 -137 -65 -210 25 -75 92 -61 311 49 759 117 475 127 658 40 745 -87 87 -116 42 -120 -180 -2 -162 -70 -430 -150 -595 -140 -286 -144 -268 -95 400 28 385 79 801 112 925 34 124 17 225 -37 225 -53 0 -127 -236 -164 -525 -133 -1046 -184 -1328 -275 -1499 -81 -154 -123 -138 -382 150 -230 257 -316 299 -415 201 -99 -97 -89 -161 47 -311 164 -182 155 -191 -245 -245 -522 -70 -863 32 -491 147 266 82 -36 52 -840 -83 -283 -47 -371 -34 -319 50 106 173 2 147 -1013 -246 -799 -310 -996 -434 -1380 -873 -434 -497 -579 -814 -323 -708 69 29 241 218 382 422 231 332 400 458 893 665 83 34 263 128 400 207 284 165 1667 192 2400 47 1387 -274 1557 -329 1782 -585 374 -426 418 -638 253 -1201 -152 -519 -205 -558 -610 -450 -341 92 -272 263 75 187 289 -64 300 -53 300 288 0 321 -29 357 -325 403 -179 27 -494 76 -700 109 -332 52 -375 35 -375 -148 0 -126 -93 -242 -240 -298 -131 -50 -263 -150 -292 -223 -29 -72 -56 -26 -60 102 -14 402 -257 178 -274 -252 -13 -338 46 -469 374 -828 304 -332 439 -413 616 -368 248 62 565 -79 446 -198 -128 -129 -510 -116 -789 25 -685 348 -799 -333 -119 -714 226 -126 474 -227 550 -223 601 29 639 -170 113 -594 -396 -318 -1125 -1566 -1125 -1924 0 -116 -55 -297 -121 -404 -166 -266 -35 -360 296 -213 l275 123 -259 -263 c-229 -233 -562 -368 -1241 -501 -110 -22 -300 -69 -423 -106 -177 -52 -243 -14 -317 180 -111 293 -973 599 -1101 391 -70 -112 -505 69 -1188 496 -288 180 -283 390 10 390 127 0 318 69 425 152 181 142 170 148 -172 91 -202 -34 -451 -35 -554 -3 -203 65 -262 462 -86 583 59 42 7 75 -119 75 -436 3 -218 162 400 291 344 72 704 152 800 178 96 25 175 22 175 -9 0 -30 -203 -106 -452 -169 -248 -62 -481 -161 -516 -218 -42 -68 3 -78 127 -29 105 42 304 96 441 121 138 25 328 68 424 97 96 29 218 26 271 -7 145 -90 -206 -452 -442 -457 -220 -5 -980 -385 -783 -392 66 -2 226 44 354 103 209 95 289 52 741 -400 278 -279 597 -507 708 -507 112 0 259 -67 327 -150 68 -82 229 -150 356 -150 128 0 260 -45 294 -100 121 -196 326 -95 383 188 31 159 88 411 126 561 64 257 55 266 -154 154 -122 -66 -236 -104 -253 -86 -17 18 53 303 157 633 103 330 189 674 190 764 1 189 -263 325 -352 182 -94 -153 -247 -111 -185 50 38 97 -30 167 -203 211 -142 35 -259 106 -259 156 0 96 -515 2 -600 -110 -113 -148 -2171 -665 -2267 -569 -31 31 61 86 205 122 144 36 262 105 262 152 0 48 -115 43 -257 -10 -316 -121 -370 -122 -300 -9 30 48 -46 120 -169 159 l-224 70 250 81 c167 54 192 84 75 91 -96 6 -175 55 -175 110 0 55 79 104 175 109 96 5 27 52 -154 104 -192 55 -301 139 -262 201 45 73 92 66 146 -22 65 -105 109 -105 237 2 245 203 202 440 -67 373 -205 -52 -209 -45 -50 74 238 178 220 250 -50 194 -178 -37 -162 -11 75 124 382 217 458 338 345 550 -68 128 -43 181 107 220 108 29 228 135 266 237 38 101 146 240 241 308 110 80 168 249 161 476 -9 342 -18 350 -340 290 -395 -75 -412 16 -86 470 135 187 354 547 489 801 134 253 328 563 431 689 102 126 300 368 439 539 139 171 385 491 547 711 293 401 753 871 1752 1794 295 271 486 510 426 530 -178 59 303 488 497 443 96 -22 175 10 175 71 0 62 -56 116 -125 120 -69 5 -12 62 125 129 138 66 429 230 649 365 310 191 357 254 214 281 -101 20 -233 -13 -294 -74 -60 -60 -201 -108 -314 -107 -169 1 -179 18 -55 98 114 74 72 97 -175 98 -206 1 -325 -47 -325 -133 0 -379 -829 -1456 -1127 -1463 -115 -3 25 487 291 1020 285 569 286 578 44 578 -136 0 -283 -182 -500 -616 -169 -339 -310 -688 -312 -775 -3 -95 -74 -37 -176 141 -524 913 -642 1056 -777 944 -158 -131 -343 -43 -343 162 0 89 -100 144 -261 144 -244 0 -257 -23 -196 -350 76 -402 38 -421 -328 -161 -514 365 -1024 511 -1786 511 -552 0 -735 -32 -704 -125 24 -70 215 -128 434 -131 318 -6 391 -43 391 -200 0 -148 -71 -195 -300 -198 -397 -4 -409 -284 -14 -329 204 -23 368 45 566 235 200 192 339 249 489 201 115 -37 208 -97 207 -135 -6 -283 -460 -496 -1131 -531 -352 -18 -508 30 -749 232 l-303 256 267 125 c197 93 228 140 118 179 -82 29 -209 135 -281 237 -123 174 -366 184 -4375 184 l-4244 0 16 -2625z m384 2419 c0 -58 -45 -78 -100 -44 -55 34 -100 82 -100 106 0 24 45 44 100 44 55 0 100 -48 100 -106z m3091 -119 c155 -408 -105 -508 -496 -191 -267 216 -189 416 164 416 165 0 276 -75 332 -225z m-1091 36 c0 -123 -282 -221 -344 -121 -28 45 -22 111 13 146 96 95 331 77 331 -25z m1400 -61 c0 -82 -18 -150 -39 -150 -22 0 -66 68 -97 150 -32 83 -14 150 39 150 53 0 97 -67 97 -150z m4211 -279 c-81 -81 -111 -70 -111 42 0 199 134 334 184 185 21 -64 -12 -166 -73 -227z m7639 229 c-34 -55 -152 -100 -262 -100 -110 0 -172 45 -138 100 34 55 152 100 262 100 110 0 172 -45 138 -100z m-15350 -256 c0 -24 -45 -44 -100 -44 -55 0 -100 48 -100 106 0 58 45 78 100 44 55 -34 100 -82 100 -106z m4326 -33 c27 -104 16 -243 -24 -308 -66 -106 -196 168 -201 422 -3 158 178 66 225 -114z m-326 -747 c0 -152 -49 -174 -275 -118 -437 107 -548 265 -404 571 l122 259 279 -263 c153 -144 278 -346 278 -449z m-2700 480 c0 -86 -45 -128 -100 -94 -55 34 -100 104 -100 156 0 52 45 94 100 94 55 0 100 -70 100 -156z m-1100 -44 c0 -55 -45 -100 -100 -100 -55 0 -100 45 -100 100 0 55 45 100 100 100 55 0 100 -45 100 -100z m12293 -45 c186 -116 116 -255 -128 -255 -128 0 -308 81 -397 181 -155 170 -147 179 127 160 159 -11 339 -50 398 -86z m-1048 -227 c92 -241 -30 -286 -193 -71 -80 106 -147 225 -149 265 -6 129 280 -33 342 -194z m-8805 -87 c89 -232 -15 -341 -326 -341 -352 0 -552 184 -399 368 154 185 650 167 725 -27z m21169 -472 c-79 -79 -109 -53 -109 94 0 265 140 405 184 185 19 -93 -14 -218 -75 -279z m-19069 -254 c-73 -97 -240 124 -239 316 2 210 7 209 134 -31 72 -137 119 -266 105 -285z m2360 385 c0 -55 -45 -100 -100 -100 -55 0 -100 45 -100 100 0 55 45 100 100 100 55 0 100 -45 100 -100z m1976 -218 c160 -423 90 -464 -220 -129 -301 325 -322 447 -78 447 108 0 225 -125 298 -318z m4324 -53 c0 -124 -409 -453 -478 -384 -32 32 -5 112 60 177 65 65 118 225 118 355 0 211 17 221 150 87 82 -82 150 -188 150 -235z m-3702 -54 c-1 -182 -20 -196 -98 -75 -125 194 -125 300 0 300 55 0 99 -101 98 -225z m902 -125 c129 -137 190 -250 135 -250 -55 0 -206 113 -335 250 -129 138 -190 250 -135 250 55 0 206 -112 335 -250z m-10014 -350 c0 -95 -32 -76 -86 50 -47 110 -86 268 -86 350 0 95 32 76 86 -50 47 -110 86 -267 86 -350z m1114 194 c0 -58 -45 -78 -100 -44 -55 34 -100 82 -100 106 0 24 45 44 100 44 55 0 100 -48 100 -106z m4200 -94 c0 -55 -42 -100 -94 -100 -52 0 -122 45 -156 100 -34 55 8 100 94 100 86 0 156 -45 156 -100z m5895 -500 c-1 -98 -87 -53 -250 132 -136 155 -218 330 -182 389 79 128 433 -300 432 -521z m-9295 300 c0 -55 -101 -97 -225 -93 -215 7 -216 11 -25 93 110 47 211 89 225 93 14 4 25 -38 25 -93z m945 -103 c113 -1 336 -136 497 -300 160 -163 237 -297 170 -297 -216 0 -655 273 -911 565 -136 157 -183 229 -105 160 79 -69 236 -126 349 -128z m6255 -47 c0 -156 -57 -250 -150 -250 -177 0 -185 48 -46 307 139 260 196 243 196 -57z m-3622 -200 c291 0 469 -48 499 -136 36 -103 -25 -119 -256 -69 -177 39 -329 23 -367 -39 -103 -166 -354 -124 -422 69 -34 96 -134 265 -222 375 -160 200 -160 200 77 0 161 -136 383 -200 691 -200z m2406 72 c184 -85 356 -225 382 -313 27 -87 112 -305 190 -484 145 -335 61 -436 -151 -181 -66 79 -214 158 -329 175 -282 42 -353 281 -84 281 433 0 164 333 -360 445 -175 37 -374 135 -443 218 -107 129 -84 140 169 81 160 -38 442 -138 626 -222z m3015 -137 c286 -285 300 -328 158 -471 -143 -142 -157 -138 -157 49 0 114 -90 310 -200 437 -110 127 -200 246 -200 265 0 87 108 12 399 -280z m-9699 131 c0 -46 -112 -135 -250 -198 -283 -129 -345 17 -75 174 216 126 325 134 325 24z m8796 -109 c57 -106 74 -270 38 -364 -62 -159 -76 -158 -200 12 -155 213 -178 545 -38 545 54 0 143 -87 200 -193z m1778 -176 c-93 -93 -197 -141 -232 -107 -98 99 53 276 235 276 153 0 153 -13 -3 -169z m-11511 -317 c-94 -104 -140 -257 -105 -350 47 -120 7 -164 -147 -164 -131 0 -211 64 -211 167 0 215 287 533 481 533 127 0 124 -29 -18 -186z m9072 -159 c146 -135 265 -300 265 -366 0 -66 115 -271 255 -455 140 -184 222 -334 181 -334 -159 0 -636 547 -636 729 0 122 -50 173 -138 140 -113 -44 -362 291 -362 486 0 113 193 24 435 -200z m-7954 -81 c26 -134 -35 -174 -268 -174 -166 0 -329 45 -363 100 -34 55 8 100 94 100 86 0 156 48 156 107 0 176 345 55 381 -133z m962 15 c-87 -141 -543 -104 -543 44 0 90 95 118 299 88 164 -24 274 -83 244 -132z m2857 -260 c0 -96 -57 -128 -158 -90 -87 34 -231 61 -319 61 -134 0 -129 23 29 139 221 161 448 105 448 -110z m5905 -20 c-129 -240 -305 -277 -305 -64 0 135 307 381 382 306 19 -19 -16 -128 -77 -242z m-7332 122 c-97 -26 -232 -24 -300 3 -68 28 12 49 177 47 165 -3 220 -25 123 -50z m3811 -431 c64 0 116 -45 116 -100 0 -224 -471 -88 -681 196 -305 413 -274 456 115 159 184 -140 387 -255 450 -255z m-7061 -117 c-49 -49 -168 -59 -265 -22 -129 49 -142 87 -50 144 163 101 434 -3 315 -122z m933 64 c-245 -185 -320 -185 -392 3 -44 115 18 149 264 147 305 -3 312 -11 128 -150z m9083 -5 c38 -98 15 -143 -58 -119 -149 50 -231 277 -100 277 54 0 125 -71 158 -158z m-1680 -203 c133 -33 241 -120 241 -192 0 -104 -83 -98 -400 26 -220 87 -400 200 -400 253 0 52 72 68 159 34 88 -33 268 -88 400 -121z m-2259 -145 c0 -58 -45 -78 -100 -44 -55 34 -100 82 -100 106 0 24 45 44 100 44 55 0 100 -48 100 -106z m-3575 -60 c-69 -28 -181 -28 -250 0 -69 28 -12 50 125 50 138 0 194 -22 125 -50z m4965 -231 c475 -136 1710 -899 1710 -1056 0 -146 -792 213 -925 419 -156 242 -978 558 -1288 496 -203 -40 -353 -11 -452 89 -132 132 -106 149 234 149 210 0 535 -44 721 -97z m2460 -3 c-34 -55 -107 -100 -162 -100 -55 0 -72 45 -38 100 34 55 107 100 162 100 55 0 72 -45 38 -100z m5516 -225 c-28 -69 -50 -12 -50 125 0 138 22 194 50 125 28 -69 28 -181 0 -250z m-9625 140 c55 -89 -584 -315 -890 -315 -141 0 -152 28 -56 144 171 206 848 328 946 171z m-2615 -204 c46 -175 1 -186 -563 -142 -746 57 -894 100 -813 230 34 56 346 101 694 101 537 0 640 -29 682 -189z m1203 0 c81 -81 14 -111 -253 -111 -200 0 -396 -52 -435 -115 -74 -119 -341 154 -341 347 0 125 887 21 1029 -121z m5025 -118 c37 -59 43 -129 16 -157 -62 -62 -470 277 -470 390 0 100 364 -87 454 -233z m8500 201 c72 -116 -89 -562 -387 -1073 -272 -467 -297 -349 -66 309 110 311 199 634 199 718 0 174 157 203 254 46z m-10640 -273 c-72 -24 -179 4 -237 62 -74 74 -35 87 131 44 135 -35 181 -81 106 -106z m9152 -248 c-28 -68 -49 12 -47 177 3 165 25 220 50 123 26 -97 24 -232 -3 -300z m391 70 c-37 -147 -89 -244 -117 -217 -27 28 -20 170 17 317 37 146 90 244 117 216 28 -27 20 -170 -17 -316z m543 257 c0 -55 -48 -100 -106 -100 -58 0 -78 45 -44 100 34 55 82 100 106 100 24 0 44 -45 44 -100z m-16350 -300 c-34 -55 -151 -100 -261 -100 -109 0 -336 -71 -503 -157 -168 -87 -331 -131 -364 -99 -113 113 131 245 628 339 275 52 514 100 531 106 17 6 3 -34 -31 -89z m2648 -249 l349 -120 -364 -68 c-200 -38 -559 -24 -799 29 -240 54 -578 76 -751 48 -174 -27 -345 -2 -380 55 -40 64 52 105 235 105 165 0 325 40 355 88 66 108 882 25 1355 -137z m1952 149 c34 -55 -3 -100 -83 -100 -79 0 -265 -63 -412 -139 -147 -76 -362 -114 -476 -84 -187 48 -173 72 131 228 391 199 750 240 840 95z m900 0 c-34 -55 -107 -100 -162 -100 -55 0 -72 45 -38 100 34 55 107 100 162 100 55 0 72 -45 38 -100z m-531 -68 c-72 -29 -159 -26 -192 8 -33 33 26 56 131 52 117 -5 141 -28 61 -60z m11141 -392 c-44 -116 -100 -140 -167 -73 -55 55 -70 178 -33 273 44 116 100 140 167 73 55 -55 70 -178 33 -273z m-18173 -748 c-167 -103 -310 -11 -216 140 40 65 82 178 93 251 12 73 56 208 99 300 57 120 89 58 115 -223 22 -242 -12 -419 -91 -468z m1649 713 c185 -70 234 -146 194 -300 -29 -113 -104 -206 -167 -206 -62 -1 -214 -29 -338 -62 -203 -54 -225 -25 -225 301 0 389 93 436 536 267z m6545 -19 c258 -63 519 -153 579 -201 61 -47 320 -57 575 -22 373 52 465 35 465 -84 0 -220 -1550 -155 -1805 76 -188 169 -831 167 -1395 -6 -197 -60 -225 -50 -134 48 251 270 1031 355 1715 189z m9419 14 c0 -55 -48 -100 -106 -100 -58 0 -78 45 -44 100 34 55 82 100 106 100 24 0 44 -45 44 -100z m-13900 -100 c-83 -53 -285 -92 -450 -87 l-300 11 300 76 c165 42 367 81 450 87 133 9 133 -1 0 -87z m15300 45 c0 -94 -303 -645 -354 -645 -50 0 46 487 124 625 48 86 230 102 230 20z m-16200 -133 c0 -102 -415 -230 -493 -153 -64 65 201 237 368 239 69 1 125 -38 125 -86z m3300 -162 c0 -189 -109 -190 -356 -3 -186 140 -182 147 81 150 179 2 275 -49 275 -147z m-1150 -97 c-680 -222 -1490 -375 -1751 -331 l-249 42 293 123 c162 67 612 159 1000 205 1012 118 1160 110 707 -39z m13010 -226 c-33 -33 -56 26 -52 131 5 117 28 141 60 61 29 -72 26 -159 -8 -192z m-12435 24 c14 -54 -110 -162 -275 -240 -165 -78 -315 -180 -333 -227 -19 -46 -120 -84 -225 -84 -240 0 -254 288 -17 359 96 28 288 113 425 187 279 150 388 152 425 5z m3960 -107 c75 -66 -351 -436 -618 -537 -349 -133 -467 -135 -467 -7 0 55 81 100 181 100 251 0 610 296 443 365 -211 88 -22 248 209 177 120 -37 233 -81 252 -98z m-8485 -200 c0 -147 -119 -192 -226 -84 -91 90 34 347 136 284 50 -31 90 -121 90 -200z m6400 175 c0 -93 -1140 -394 -1800 -474 l-450 -55 298 170 c165 94 660 227 1100 296 441 68 813 129 827 134 14 6 25 -26 25 -71z m8500 -119 c225 -72 214 -81 -117 -90 -202 -6 -449 -39 -550 -73 -161 -56 -159 -44 17 96 221 177 285 184 650 67z m-13142 -100 c23 0 42 -41 42 -90 0 -50 -142 -140 -315 -200 -381 -133 -385 -133 -385 -17 0 170 324 419 471 363 80 -31 164 -56 187 -56z m15881 -343 c-101 -262 -239 -176 -239 150 0 273 17 291 150 158 82 -83 122 -221 89 -308z m-17139 243 c0 -55 -45 -100 -100 -100 -55 0 -100 45 -100 100 0 55 45 100 100 100 55 0 100 -45 100 -100z m6445 10 c-52 -50 -307 -106 -565 -126 -479 -35 -534 63 -80 144 463 83 743 75 645 -18z m2255 -58 c-27 -54 -159 -113 -292 -131 -134 -18 -329 -79 -434 -135 -333 -178 -296 -20 47 202 326 211 775 253 679 64z m-9522 -208 c293 -205 281 -482 -28 -685 -200 -131 -251 -248 -253 -586 -3 -373 -19 -402 -136 -248 -90 118 -119 378 -91 800 63 949 102 1004 508 719z m1222 -25 c0 -44 -61 -164 -135 -265 -97 -133 -155 -151 -208 -65 -41 66 -20 185 47 265 131 159 296 195 296 65z m800 -219 c0 -55 -70 -100 -156 -100 -86 0 -128 45 -94 100 34 55 104 100 156 100 52 0 94 -45 94 -100z m3000 57 c0 -23 -135 -110 -300 -192 -316 -158 -425 -48 -125 127 179 104 425 142 425 65z m-5820 -797 c-3 -408 -45 -801 -92 -875 -51 -81 -86 218 -86 740 -1 481 40 875 91 875 52 0 91 -333 87 -740z m8020 640 c0 -111 -98 -128 -568 -103 -175 9 -412 -33 -525 -93 -252 -135 -274 -27 -32 157 204 154 1125 187 1125 39z m2050 0 c-34 -55 -112 -100 -174 -100 -62 0 -220 -101 -351 -224 -210 -197 -825 -344 -825 -197 0 151 358 421 560 421 125 0 256 45 290 100 34 55 174 100 312 100 141 0 223 -44 188 -100z m-8600 -400 c-35 -110 -67 -340 -72 -511 -9 -302 -13 -304 -130 -86 -89 166 -92 300 -12 511 121 321 313 398 214 86z m14710 -73 c-33 -33 -56 26 -52 131 5 117 28 141 60 61 29 -72 26 -159 -8 -192z m990 173 c-34 -55 -82 -100 -106 -100 -24 0 -44 45 -44 100 0 55 48 100 106 100 58 0 78 -45 44 -100z m750 0 c0 -55 -45 -100 -100 -100 -55 0 -100 45 -100 100 0 55 45 100 100 100 55 0 100 -45 100 -100z m-9700 -100 c0 -55 -45 -100 -100 -100 -55 0 -100 45 -100 100 0 55 45 100 100 100 55 0 100 -45 100 -100z m8567 -50 c0 -82 -38 -150 -84 -150 -45 0 -83 68 -83 150 0 83 38 150 83 150 46 0 84 -67 84 -150z m3733 50 c0 -55 -45 -100 -100 -100 -55 0 -100 45 -100 100 0 55 45 100 100 100 55 0 100 -45 100 -100z m-13555 -462 c-238 -238 -345 -425 -313 -548 41 -157 18 -170 -142 -85 -181 97 -174 125 135 545 179 243 405 444 503 446 136 3 92 -82 -183 -358z m-4945 -79 c0 -158 527 -458 815 -464 189 -4 161 -36 -145 -163 -368 -152 -388 -150 -634 80 -335 313 -449 538 -374 733 47 124 93 134 200 45 76 -63 138 -167 138 -231z m3400 261 c0 -150 -239 -320 -445 -317 -197 4 -195 12 31 200 247 206 414 253 414 117z m4000 -176 c0 -24 -45 -44 -100 -44 -55 0 -100 48 -100 106 0 58 45 78 100 44 55 -34 100 -82 100 -106z m12553 -369 c38 -206 40 -375 3 -375 -109 0 -338 630 -282 776 78 203 201 25 279 -401z m-14403 325 c-110 -47 -267 -88 -350 -91 -133 -5 -133 5 0 91 83 53 240 94 350 91 200 -5 200 -5 0 -91z m9017 -50 c0 -82 -33 -150 -73 -150 -40 0 -99 68 -130 150 -33 86 -2 150 72 150 72 0 131 -68 131 -150z m177 -775 c-44 -421 -148 -747 -318 -1000 -301 -446 -371 -465 -392 -103 -9 159 84 389 225 557 228 271 288 452 247 753 -17 124 167 418 261 418 24 0 13 -281 -23 -625z m1356 519 c0 -58 -45 -78 -100 -44 -55 34 -100 82 -100 106 0 24 45 44 100 44 55 0 100 -48 100 -106z m268 -60 c-37 -36 -16 -126 45 -200 61 -74 88 -134 59 -134 -29 0 10 -208 87 -462 146 -485 120 -638 -109 -638 -205 0 -284 189 -147 353 112 135 78 619 -70 1004 -30 79 3 143 73 143 70 0 98 -30 62 -66z m1676 -923 c-92 -93 -344 233 -344 443 0 532 133 577 258 86 68 -269 107 -508 86 -529z m-15259 731 c-128 -128 -229 -139 -519 -59 -199 55 -463 77 -589 50 -182 -40 -197 -29 -77 57 83 59 418 108 746 108 545 2 583 -12 439 -156z m3446 -64 c99 6 268 -77 375 -184 204 -204 265 -594 94 -594 -55 0 -100 85 -100 189 0 214 -334 336 -674 247 -133 -35 -282 6 -380 103 -88 89 -227 161 -309 161 -82 0 -119 48 -83 107 42 68 217 80 481 34 228 -40 496 -69 596 -63z m-6781 -360 c-50 -52 -450 224 -450 311 0 44 108 -1 240 -99 132 -99 227 -194 210 -212z m16250 170 c0 -55 -45 -72 -100 -38 -55 34 -100 107 -100 162 0 55 45 72 100 38 55 -34 100 -107 100 -162z m2769 -363 c-25 -96 -46 -18 -46 175 0 193 21 271 46 175 25 -96 25 -254 0 -350z m-19559 165 c438 -382 739 -491 1085 -391 208 59 411 53 587 -18 l268 -110 -344 -76 c-189 -43 -616 -61 -950 -40 -539 33 -636 72 -881 362 -151 179 -275 361 -275 404 0 148 269 79 510 -131z m3333 112 c142 -53 257 -163 257 -244 0 -120 -55 -128 -294 -45 -360 125 -613 387 -375 387 86 0 271 -44 412 -98z m-730 -169 c124 -151 106 -161 -200 -100 -186 37 -400 67 -475 67 -76 0 -138 45 -138 100 0 168 665 113 813 -67z m19487 -39 c0 -52 -45 -94 -100 -94 -55 0 -100 70 -100 156 0 86 45 128 100 94 55 -34 100 -104 100 -156z m-16149 -94 c339 129 349 128 349 -50 0 -82 -72 -150 -160 -150 -87 0 -287 -91 -442 -202 l-284 -202 -278 258 c-201 186 -343 241 -516 197 -170 -42 -227 -22 -197 70 64 192 685 261 996 110 194 -94 343 -102 532 -31z m10949 100 c0 -55 -45 -100 -100 -100 -55 0 -100 45 -100 100 0 55 45 100 100 100 55 0 100 -45 100 -100z m3500 0 c0 -55 -45 -100 -100 -100 -55 0 -100 45 -100 100 0 55 45 100 100 100 55 0 100 -45 100 -100z m-20902 -245 c123 -323 501 -560 1001 -627 425 -58 659 -228 312 -228 -111 0 -428 49 -706 108 -539 116 -805 368 -805 764 0 297 81 290 198 -17z m-362 -650 c17 -79 84 -162 148 -183 64 -21 116 -168 116 -325 0 -321 281 -668 790 -977 309 -187 458 -202 1700 -162 1024 33 1298 18 1110 -63 -137 -59 -531 -133 -875 -166 -431 -40 -625 -100 -625 -193 0 -157 -160 -182 -248 -39 -33 54 -250 148 -481 210 -1171 312 -1740 759 -1608 1264 34 128 -5 224 -105 262 -121 46 -156 198 -148 639 10 547 15 559 103 228 51 -193 106 -415 123 -495z m8164 551 c0 -225 -148 -264 -514 -133 l-336 120 300 67 c478 106 550 99 550 -54z m-3343 -168 c62 -100 -262 -118 -499 -27 -87 33 -158 93 -158 132 0 99 589 5 657 -105z m15943 62 c68 -82 102 -150 74 -150 -27 0 -106 68 -174 150 -68 82 -102 150 -74 150 27 0 106 -68 174 -150z m-17346 -157 c108 -174 -15 -211 -152 -45 -79 95 -86 152 -20 152 58 0 136 -48 172 -107z m18382 -43 c32 -82 14 -150 -39 -150 -53 0 -97 68 -97 150 0 82 18 150 39 150 22 0 66 -68 97 -150z m964 -6 c0 -86 -46 -128 -102 -93 -56 35 -75 105 -44 156 86 139 146 113 146 -63z m-5900 -44 c0 -55 -48 -100 -106 -100 -58 0 -78 45 -44 100 34 55 82 100 106 100 24 0 44 -45 44 -100z m2304 -162 c55 -144 113 -487 130 -763 20 -340 87 -543 208 -631 98 -72 147 -180 110 -241 -127 -205 -429 338 -528 950 -53 328 -130 676 -171 772 -46 107 -31 175 39 175 62 0 158 -118 212 -262z m-16004 -88 c220 -235 161 -371 -64 -146 -64 64 -195 71 -345 18 -305 -109 -591 -47 -591 127 0 327 693 328 1000 1z m5642 189 c235 -90 192 -209 -96 -264 -178 -34 -283 6 -353 138 -82 153 -64 187 95 187 108 0 267 -27 354 -61z m14757 -489 l-72 -500 -14 458 c-7 252 17 489 54 525 105 106 109 49 32 -483z m-18070 141 c-43 -43 -236 -42 -429 2 -334 75 -318 112 100 236 183 54 439 -131 329 -238z m2052 224 c127 -36 221 -87 208 -115 -13 -27 31 -151 98 -275 106 -199 97 -225 -86 -225 -120 0 -251 100 -316 242 -64 143 -167 220 -247 189 -82 -31 -138 13 -138 108 0 169 98 184 481 76z m13485 -342 c-28 -68 -49 12 -47 177 3 165 25 220 50 123 26 -97 24 -232 -3 -300z m-2595 -222 c97 -1 191 -80 210 -176 48 -247 -125 -217 -440 75 -311 287 -293 283 -548 146 -111 -59 -193 -64 -193 -10 0 51 68 119 150 150 83 32 152 138 154 236 2 139 56 113 248 -121 134 -165 323 -300 419 -300z m-11771 349 c130 -84 127 -97 -17 -98 -91 -1 -185 -57 -207 -125 -32 -94 -98 -97 -284 -10 l-242 112 250 104 c318 133 321 133 500 17z m10600 -100 c0 -55 -45 -100 -100 -100 -55 0 -100 45 -100 100 0 55 45 100 100 100 55 0 100 -45 100 -100z m-4300 -165 c0 -69 79 -169 175 -224 144 -81 152 -122 45 -230 -107 -108 -216 -85 -619 130 -383 204 -502 232 -542 125 -29 -75 -178 -136 -331 -135 -276 0 -276 1 94 225 411 247 1178 319 1178 109z m-11423 -162 c70 -56 105 -124 78 -152 -28 -27 -114 3 -192 68 -111 92 -178 82 -307 -48 -155 -154 -176 -152 -308 22 -78 103 -143 223 -145 267 -4 103 708 -25 874 -157z m2368 135 c31 -50 -90 -123 -269 -161 -179 -39 -382 -115 -451 -171 -86 -69 -176 -58 -288 35 -144 120 -113 149 275 252 563 151 664 157 733 45z m5754 -583 c1 -199 -171 -145 -227 72 -44 168 -128 195 -561 175 -458 -20 -611 50 -611 281 0 20 236 50 525 67 464 27 545 1 699 -220 96 -137 175 -306 175 -375z m-4985 386 c-124 -79 -514 -40 -514 51 0 21 146 37 325 36 221 -1 281 -29 189 -87z m11000 -11 c54 0 70 -45 36 -100 -95 -154 -321 -119 -390 61 -46 118 -20 145 97 100 88 -33 203 -61 257 -61z m8686 -150 c0 -137 -40 -250 -88 -250 -49 0 -110 113 -136 250 -33 168 -3 250 88 250 78 0 136 -106 136 -250z m-6524 -76 c70 -55 121 -151 113 -212 -34 -296 25 -462 166 -462 123 0 150 -98 125 -467 -43 -664 -239 -661 -307 5 -62 596 -284 1020 -583 1115 -106 34 -166 105 -133 158 65 105 414 27 619 -137z m-11300 10 c87 -87 153 -85 268 11 213 177 453 64 388 -182 -42 -163 10 -212 284 -263 185 -35 462 -15 617 43 351 134 767 139 767 9 0 -54 -124 -128 -275 -164 -308 -73 -525 -218 -525 -350 0 -116 334 -113 455 4 52 51 264 123 470 161 461 85 503 -80 68 -270 -253 -110 -300 -180 -268 -403 42 -294 -79 -275 -312 48 -114 158 -213 180 -575 125 -411 -61 -589 42 -338 197 155 96 118 250 -75 315 -376 127 -1078 476 -1139 567 -36 52 -182 73 -325 46 -144 -28 -261 -14 -261 29 0 44 124 98 275 121 151 23 300 49 330 57 30 8 107 -37 171 -101z m14109 -41 c300 -150 409 -373 234 -481 -45 -28 -209 33 -365 135 -155 102 -344 162 -418 134 -193 -74 -168 72 39 230 96 73 179 134 185 136 5 2 151 -68 325 -154z m-8191 -76 c265 -112 293 -153 173 -253 -114 -94 -156 -87 -203 36 -42 109 -134 136 -312 92 -191 -48 -252 -25 -252 97 0 196 175 204 594 28z m9448 -572 c135 -518 134 -810 0 -459 -39 100 -177 164 -353 164 -357 0 -373 130 -35 284 211 96 236 148 150 309 -137 255 -139 482 -3 346 55 -55 164 -345 241 -644z m-5724 383 c-71 -71 -118 -77 -118 -15 0 57 30 134 67 170 36 37 90 44 118 15 28 -28 -2 -105 -67 -170z m2850 -678 c114 0 133 -75 82 -325 -114 -569 -160 -675 -294 -675 -97 0 -118 121 -80 460 31 274 9 487 -54 526 -58 36 -136 201 -172 365 l-66 299 218 -325 c120 -179 284 -325 366 -325z m-1718 17 c-107 -108 -255 154 -186 332 63 166 78 162 155 -47 47 -127 61 -255 31 -285z m5510 210 c-33 -33 -56 26 -52 131 5 117 28 141 60 61 29 -72 26 -159 -8 -192z m-5960 -39 c0 -104 -32 -108 -242 -27 -229 88 -194 230 42 168 110 -29 200 -92 200 -141z m-16621 -81 c149 -106 533 -245 854 -308 565 -113 577 -122 409 -308 -224 -247 -648 -244 -969 9 -140 110 -350 200 -466 200 -178 0 -201 -41 -144 -265 46 -186 32 -244 -48 -194 -144 89 -153 1059 -11 1059 57 0 226 -87 375 -193z m6077 50 c187 -137 184 -146 -88 -250 -154 -59 -318 -107 -364 -107 -141 0 -194 270 -76 388 149 149 294 141 528 -31z m3494 43 c78 -127 -54 -127 -250 0 -129 84 -127 97 19 98 93 1 197 -43 231 -98z m-5184 -467 c-30 -30 -450 -70 -935 -89 l-881 -35 781 139 c430 77 835 158 900 181 126 43 228 -104 135 -196z m10876 -446 c-23 -38 -134 -44 -246 -15 -185 49 -190 69 -50 224 85 93 159 256 164 362 6 106 47 36 92 -156 45 -191 63 -378 40 -415z m-9943 488 c-1 -69 -170 -237 -375 -375 -498 -333 -524 -341 -524 -167 0 83 -56 169 -125 192 -69 23 55 100 275 171 220 70 443 168 495 216 136 126 255 109 254 -37z m3883 -151 c18 -123 93 -224 167 -224 74 0 153 -56 176 -125 34 -99 76 -98 201 6 137 113 151 103 104 -75 -57 -221 -275 -276 -386 -97 -37 61 -175 89 -306 64 -243 -46 -323 63 -133 180 70 43 50 150 -58 315 -154 236 -153 248 20 215 101 -19 197 -136 215 -259z m6768 76 c34 -55 -8 -100 -94 -100 -86 0 -156 45 -156 100 0 55 42 100 94 100 52 0 122 -45 156 -100z m700 -100 c-34 -55 -82 -100 -106 -100 -24 0 -44 45 -44 100 0 55 48 100 106 100 58 0 78 -45 44 -100z m650 -25 c0 -117 -146 -88 -187 38 -21 61 13 95 75 75 61 -21 112 -72 112 -113z m3375 -50 c60 -179 -250 -270 -425 -125 -81 68 -127 156 -101 198 74 120 480 64 526 -73z m-1175 -665 c0 -10 -90 -24 -200 -33 -208 -15 -262 195 -135 525 51 134 92 102 200 -153 74 -177 135 -330 135 -339z m-7262 460 c27 -44 -113 -210 -312 -369 -289 -230 -346 -249 -282 -94 43 106 101 272 129 368 51 177 373 243 465 95z m-10182 -178 c178 -145 178 -153 11 -100 -101 32 -272 58 -381 58 -109 0 -170 45 -136 100 90 145 284 123 506 -58z m887 -53 c-72 -118 -543 -115 -543 3 0 50 56 110 125 133 185 63 481 -34 418 -136z m4357 131 c0 -91 -484 -271 -1000 -372 -321 -62 -337 -55 -195 94 86 89 356 201 600 249 610 119 595 119 595 29z m9143 -18 c182 -69 257 -171 257 -350 0 -297 -20 -292 435 -102 576 241 688 207 487 -145 -93 -162 -237 -319 -321 -350 -83 -30 -218 -84 -301 -120 -104 -45 -92 1 40 150 204 229 183 245 -303 219 -260 -14 -323 27 -378 245 -42 170 -126 255 -237 241 -95 -12 -307 18 -472 67 l-300 89 400 63 c220 34 408 69 418 77 11 8 134 -30 275 -84z m-16192 -229 c1 -87 26 -184 56 -214 60 -59 440 -140 718 -152 96 -4 175 -52 175 -107 0 -173 -679 -109 -1050 100 -426 239 -489 247 -414 50 35 -91 0 -150 -89 -150 -230 0 -115 396 160 547 297 162 443 138 444 -74z m4949 27 c-59 -110 -207 -199 -329 -198 -219 2 -218 5 29 198 322 252 435 252 300 0z m16130 -204 c45 -170 29 -186 -88 -89 -78 64 -142 182 -142 261 0 201 165 78 230 -172z m870 -16 c0 -206 -34 -286 -97 -223 -53 53 -70 197 -38 320 82 315 135 277 135 -97z m-8000 20 c-137 -108 -362 -190 -500 -183 -246 13 -246 14 18 54 147 22 321 106 387 185 66 79 170 143 232 142 62 -1 1 -90 -137 -198z m600 50 c-327 -187 -504 -185 -256 3 107 81 264 145 350 143 100 -2 66 -54 -94 -146z m-5562 -248 c135 -135 -632 -135 -838 0 -126 82 -128 112 -12 187 151 97 683 -20 850 -187z m9160 173 c-2 -185 -868 -1075 -1045 -1075 -244 0 -178 142 156 339 170 101 353 310 408 466 54 156 174 303 266 328 92 24 178 49 192 55 14 7 24 -44 23 -113z m-14843 -66 c-31 -51 -239 -122 -462 -160 -224 -38 -432 -134 -462 -213 -71 -185 -557 -436 -845 -436 -196 0 -205 16 -68 125 87 69 204 215 262 325 95 183 404 270 1551 438 44 7 55 -29 24 -79z m1945 5 c0 -48 -214 -163 -475 -256 -261 -94 -553 -212 -649 -264 -225 -122 -376 -120 -376 6 0 55 96 100 212 100 179 0 193 24 86 152 -70 84 -91 185 -49 225 43 40 98 17 123 -52 60 -167 517 -153 828 25 301 172 300 172 300 64z m1756 -67 c-185 -140 -656 -207 -656 -94 0 80 422 234 650 237 197 4 197 2 6 -143z m3371 -55 c-40 -152 -76 -174 -134 -80 -86 139 -33 288 104 288 46 0 60 -94 30 -208z m2462 -104 c-132 -101 -314 -185 -406 -186 -91 -1 -186 -58 -211 -127 -25 -69 -79 -93 -122 -53 -42 39 0 189 93 332 145 221 194 240 328 128 132 -109 175 -103 264 37 58 92 148 142 199 110 51 -32 -14 -140 -145 -241z m6016 -733 c-276 -285 -307 -364 -212 -542 177 -331 438 -413 1307 -413 713 0 854 31 1141 250 349 266 745 324 933 136 63 -63 349 -209 635 -325 286 -116 590 -318 677 -449 152 -233 150 -237 -90 -162 -135 43 -353 161 -484 264 -285 222 -473 237 -582 45 -44 -78 -260 -170 -480 -204 -391 -61 -395 -59 -175 103 195 145 315 442 177 442 -26 0 -296 -122 -599 -270 -496 -244 -585 -259 -892 -148 -201 73 -507 97 -746 59 -538 -86 -878 10 -1070 303 -147 224 -142 265 84 623 496 785 404 1145 -196 772 -255 -158 -250 -145 53 137 l337 312 252 -300 253 -300 -323 -333z m-9055 646 c89 -282 -16 -401 -356 -401 -294 0 -294 0 -94 200 110 110 200 245 200 300 0 179 185 105 250 -99z m5050 99 c0 -55 -101 -99 -225 -98 -182 1 -196 20 -75 98 194 125 300 125 300 0z m8100 -50 c0 -82 -45 -150 -100 -150 -55 0 -100 68 -100 150 0 83 45 150 100 150 55 0 100 -67 100 -150z m-9050 -50 c-34 -55 -104 -100 -156 -100 -52 0 -94 45 -94 100 0 55 70 100 156 100 86 0 128 -45 94 -100z m-7350 -223 c138 -2 419 31 625 73 420 85 512 -54 150 -228 -150 -72 -175 -114 -75 -125 83 -9 38 -49 -100 -89 -137 -39 -404 -38 -592 4 -188 41 -683 36 -1100 -10 -716 -81 -1008 -24 -1008 196 0 161 681 291 1250 237 330 -30 713 -57 850 -58z m5200 -77 c0 -111 67 -200 150 -200 82 0 150 -45 150 -100 0 -112 -204 -131 -442 -39 -204 78 -211 539 -8 539 83 0 150 -89 150 -200z m-8200 -179 c0 -40 -89 -128 -197 -196 -151 -94 -257 -96 -450 -8 -326 148 -320 243 22 361 266 92 625 1 625 -157z m12536 129 c-60 -157 -336 -211 -336 -67 0 123 115 217 264 217 74 0 105 -64 72 -150z m-7740 -143 c137 -256 131 -307 -35 -307 -131 0 -261 203 -261 408 0 163 190 98 296 -101z m4904 -47 c0 -71 -90 -210 -200 -310 -220 -199 -253 -102 -100 300 98 257 300 264 300 10z m-13500 -10 c68 -82 209 -150 312 -150 104 0 188 -45 188 -100 0 -55 -103 -100 -230 -100 -126 0 -276 -46 -333 -103 -130 -130 -437 -20 -437 156 0 417 268 576 500 297z m10700 50 c117 -76 91 -97 -119 -98 -148 -1 -297 43 -331 98 -79 128 252 128 450 0z m-9200 -67 c0 -126 -330 -433 -465 -433 -221 0 -153 299 90 397 281 113 375 122 375 36z m11300 -127 c0 -173 -176 -205 -301 -55 -103 124 -88 149 89 149 116 0 212 -42 212 -94z m2792 58 c-113 -96 -692 -148 -692 -61 0 53 165 97 367 97 201 0 348 -16 325 -36z m-4942 -164 c-34 -55 -82 -100 -106 -100 -24 0 -44 45 -44 100 0 55 48 100 106 100 58 0 78 -45 44 -100z m603 -4 c91 -148 -141 -396 -370 -396 -186 0 -187 8 -13 247 198 272 286 306 383 149z m6672 -115 c-121 -121 -250 -190 -286 -153 -98 97 158 372 345 372 129 0 117 -43 -59 -219z m-15223 -29 c-117 -141 -667 -454 -792 -450 -33 0 -126 43 -206 93 -125 79 -119 123 40 299 235 259 1172 316 958 58z m5498 -8 c0 -86 -45 -128 -100 -94 -55 34 -100 104 -100 156 0 52 45 94 100 94 55 0 100 -70 100 -156z m5746 -221 c-331 -174 -512 -62 -292 181 136 151 202 163 355 67 178 -111 175 -124 -63 -248z m-7013 163 c565 -113 725 -239 392 -307 -96 -20 -223 26 -281 103 -89 116 -170 105 -499 -72 -480 -257 -625 -259 -944 -14 -194 149 -216 202 -100 240 82 26 217 71 299 98 250 84 540 71 1133 -48z m-3191 -47 c248 -95 188 -188 -217 -334 -206 -75 -424 -202 -483 -283 -134 -183 -1142 -301 -1142 -135 0 62 48 113 106 113 105 0 1104 430 1394 600 83 49 158 91 167 94 9 3 88 -21 175 -55z m16058 -39 c0 -55 -48 -100 -106 -100 -58 0 -78 45 -44 100 34 55 82 100 106 100 24 0 44 -45 44 -100z m-9300 -100 c0 -55 -45 -100 -100 -100 -55 0 -100 45 -100 100 0 55 45 100 100 100 55 0 100 -45 100 -100z m5600 0 c128 -82 123 -97 -29 -98 -98 -1 -286 -73 -419 -160 -132 -86 -344 -141 -471 -122 -207 32 -190 58 169 254 455 247 540 261 750 126z m-10857 -89 c30 -48 -46 -115 -169 -148 -330 -89 -374 -78 -374 87 0 163 449 214 543 61z m7257 -111 c-137 -108 -306 -197 -375 -198 -69 -1 -125 -47 -125 -102 0 -55 -45 -100 -100 -100 -187 0 -97 149 225 375 406 284 734 306 375 25z m4800 100 c0 -55 -48 -100 -106 -100 -58 0 -78 45 -44 100 34 55 82 100 106 100 24 0 44 -45 44 -100z m-7719 -226 c20 -101 -27 -174 -111 -174 -179 0 -394 243 -299 338 120 119 375 17 410 -164z m14669 126 c34 -55 17 -100 -38 -100 -55 0 -128 45 -162 100 -34 55 -17 100 38 100 55 0 128 -45 162 -100z m-15650 -100 c0 -55 -45 -100 -100 -100 -55 0 -100 45 -100 100 0 55 45 100 100 100 55 0 100 -45 100 -100z m-8500 -503 c-604 -543 -481 -699 153 -195 437 348 814 471 969 316 76 -76 23 -127 -183 -176 -159 -38 -340 -110 -403 -159 -62 -49 -322 -194 -576 -323 l-463 -234 -44 212 c-25 117 -36 403 -26 637 l20 425 551 -4 552 -5 -550 -494z m4250 403 c151 -65 89 -86 -250 -86 -339 0 -401 21 -250 86 110 47 223 86 250 86 28 0 140 -39 250 -86z m3450 -50 c-137 -79 -295 -143 -350 -143 -55 0 13 64 150 143 138 79 295 143 350 143 55 0 -12 -64 -150 -143z m3074 -19 c-93 -93 -203 -136 -244 -95 -41 41 -8 117 73 168 243 154 352 108 171 -73z m2326 54 c313 -109 320 -123 141 -254 -164 -120 -170 -152 -41 -237 129 -84 123 -118 -44 -246 -107 -81 -287 -146 -400 -143 -203 5 -202 8 13 158 218 153 218 153 26 495 -210 375 -182 397 305 227z m5098 -10 c0 -69 -35 -179 -77 -245 -109 -171 -364 14 -289 210 73 188 369 217 366 35z m-1498 -175 c0 -55 -45 -100 -100 -100 -55 0 -100 45 -100 100 0 55 45 100 100 100 55 0 100 -45 100 -100z m-9850 -98 c-343 -132 -1512 -234 -1400 -122 129 130 373 174 1050 188 354 8 479 -16 350 -66z m-2875 -120 c124 -64 225 -153 225 -199 0 -46 -101 -84 -225 -85 -124 -1 -330 -83 -458 -182 -265 -203 -801 -175 -886 48 -77 200 141 419 451 455 148 17 358 42 468 55 110 13 301 -28 425 -92z m7431 -291 c-330 -275 -340 -488 -25 -494 122 -2 87 -64 -126 -223 -297 -221 -1122 -363 -1004 -173 33 55 147 99 252 99 133 0 258 147 404 475 241 542 443 738 670 651 126 -49 92 -116 -171 -335z m1293 234 c-1 -137 -686 -545 -798 -475 -169 104 69 339 285 283 98 -26 237 24 308 110 143 172 206 197 205 82z m-4449 -125 c34 -55 -25 -100 -130 -100 -106 0 -450 -138 -766 -307 -349 -186 -640 -279 -740 -238 -114 48 -126 82 -39 115 69 26 125 108 125 182 0 167 139 258 541 354 461 110 939 107 1009 -6z m600 0 c34 -55 -8 -100 -94 -100 -86 0 -156 45 -156 100 0 55 42 100 94 100 52 0 122 -45 156 -100z m1250 -50 c-137 -79 -317 -141 -400 -138 -82 2 -15 66 150 142 395 180 568 178 250 -4z m6800 6 c0 -224 -200 -294 -332 -116 -106 143 -147 144 -404 10 -158 -83 -352 -150 -432 -150 -208 0 -832 -497 -832 -663 0 -177 -565 -775 -631 -667 -49 80 -99 580 -80 794 6 63 71 138 145 166 97 37 122 -17 89 -189 -67 -347 102 -296 311 93 110 203 317 388 528 471 191 75 396 194 455 266 156 188 1183 175 1183 -15z m1319 -181 c26 -272 100 -358 454 -525 233 -110 424 -234 425 -275 4 -167 -432 -59 -755 187 -271 207 -343 332 -343 600 0 432 177 443 219 13z m1831 229 c188 -77 189 -87 19 -156 -221 -91 -1074 17 -1210 153 -122 122 895 124 1191 3z m-18173 -306 c19 -102 -143 -217 -493 -350 -286 -109 -784 -367 -1106 -573 -322 -206 -628 -375 -681 -375 -54 0 -97 127 -97 283 0 287 409 783 568 689 45 -27 307 77 582 232 552 310 1177 358 1227 94z m3489 -28 c64 22 144 -5 178 -60 36 -58 -368 -230 -966 -410 -566 -171 -1084 -330 -1153 -352 -69 -23 -221 -6 -339 38 -195 72 -174 102 244 347 554 325 1447 568 1720 469 110 -41 252 -55 316 -32z m934 30 c114 -73 70 -97 -181 -98 -195 -1 -306 39 -269 98 78 126 256 126 450 0z m7750 -271 c-329 -338 -355 -406 -296 -775 36 -222 146 -471 244 -554 225 -189 403 -532 399 -768 -3 -172 -9 -172 -105 -7 -155 267 -263 211 -335 -174 -37 -198 -152 -395 -266 -456 -175 -93 -188 -84 -108 74 51 100 147 352 213 561 101 319 95 418 -37 621 -87 132 -147 339 -134 459 37 329 -209 346 -332 23 -84 -219 -75 -337 37 -522 139 -230 119 -262 -537 -882 -972 -916 -2019 -1636 -2167 -1489 -30 31 19 84 110 118 223 86 208 342 -20 342 -245 0 -976 -748 -1193 -1219 -95 -207 -229 -377 -298 -378 -69 -2 -125 15 -125 38 0 84 551 1110 610 1138 35 16 327 223 651 461 563 413 928 570 1407 601 455 31 1069 881 1192 1651 60 372 47 432 -82 383 -128 -49 -123 1 29 316 220 456 342 562 793 691 677 193 739 148 350 -253z m3313 -71 c-59 -189 -144 -320 -189 -292 -141 87 92 603 286 632 6 1 -38 -152 -97 -340z m2787 242 c34 -55 -8 -100 -94 -100 -86 0 -156 45 -156 100 0 55 42 100 94 100 52 0 122 -45 156 -100z m2037 -76 c122 -228 -113 -574 -332 -490 -154 59 -215 473 -88 599 122 122 325 69 420 -109z m-13596 -66 c-23 -23 -222 -107 -441 -187 -220 -79 -479 -177 -575 -218 -134 -57 -175 -26 -175 129 0 112 79 224 175 249 227 59 1071 82 1016 27z m7106 -33 c-4 -97 -497 -457 -497 -363 0 105 316 438 415 438 47 0 84 -34 82 -75z m2333 -400 c243 -267 86 -301 -225 -49 -155 126 -196 231 -143 370 57 147 86 159 119 49 24 -80 137 -246 249 -370z m-5475 50 c-37 -124 -76 -302 -86 -396 -11 -94 -352 -485 -758 -869 -584 -551 -908 -767 -1543 -1029 -1021 -421 -1652 -976 -1715 -1507 -24 -207 -94 -454 -155 -550 -93 -147 -103 -130 -67 103 48 318 -76 443 -276 277 -97 -80 -157 -82 -204 -6 -42 68 -174 17 -363 -143 -163 -137 -486 -300 -718 -362 -1356 -363 -2684 -1390 -2818 -2180 -72 -426 -201 -489 -389 -191 -221 351 523 1515 1042 1629 205 45 291 119 272 232 -34 212 891 680 1380 698 190 7 446 65 569 128 351 181 774 612 774 790 0 213 197 401 420 401 191 0 248 -246 80 -350 -55 -34 -100 -128 -100 -209 0 -273 369 30 434 355 41 205 120 304 244 304 100 0 225 41 277 91 52 50 388 237 745 414 358 178 908 497 1224 709 315 212 614 386 663 386 156 0 613 678 613 910 0 218 265 572 437 584 47 3 56 -95 18 -219z m4045 125 c0 -55 -67 -100 -150 -100 -82 0 -150 45 -150 100 0 55 68 100 150 100 83 0 150 -45 150 -100z m4600 58 c0 -23 25 -108 56 -189 61 -157 -224 -225 -1389 -333 l-584 -55 167 254 c124 190 271 264 583 292 690 63 1167 76 1167 31z m-19145 -167 c37 -60 154 -86 259 -58 137 35 183 3 163 -117 -17 -107 53 -177 198 -198 124 -18 225 -78 225 -134 0 -131 -825 0 -917 147 -46 72 -118 65 -225 -25 -126 -104 -188 -106 -308 -6 -209 174 -187 291 75 397 308 124 451 122 530 -6z m3745 22 c0 -95 -946 -513 -1163 -513 -76 0 -137 -50 -137 -111 0 -115 390 -86 1172 89 475 106 474 3 -3 -245 -483 -252 -2177 -189 -2015 74 32 51 139 93 238 93 100 0 298 92 440 204 453 356 1468 639 1468 409z m10300 -153 c0 -179 79 -268 309 -348 395 -138 1191 -941 1191 -1201 0 -268 151 -344 408 -207 201 108 208 96 140 -212 -39 -179 -69 -493 -66 -698 4 -288 -39 -386 -188 -425 -376 -98 -199 -1310 272 -1870 304 -361 247 -496 -111 -262 -519 341 -752 1172 -514 1841 112 316 126 497 51 693 -79 208 -69 284 47 349 158 88 153 105 -295 854 -223 374 -390 432 -288 101 68 -223 66 -223 -218 25 -339 296 -443 428 -383 488 24 24 141 -42 259 -147 158 -141 203 -151 169 -41 -25 83 -291 271 -590 420 -440 218 -562 244 -645 136 -57 -73 -192 -151 -300 -172 -203 -41 -242 -276 -101 -609 41 -96 36 -175 -11 -174 -47 1 -167 192 -265 425 -168 397 -169 430 -11 524 93 55 354 243 579 417 502 388 561 398 561 93z m-7700 64 c0 -99 -596 -362 -665 -293 -29 29 75 123 231 207 321 174 434 196 434 86z m1351 -23 c-93 -149 -921 -701 -1053 -701 -64 0 -193 -95 -287 -212 -112 -137 -354 -241 -689 -294 -489 -77 -1322 -588 -1322 -811 0 -163 243 -79 508 175 264 253 922 478 1043 358 34 -34 -154 -130 -418 -214 -301 -96 -520 -237 -592 -381 -319 -643 -939 -1021 -1675 -1021 -243 0 -617 -62 -832 -138 -365 -129 -391 -125 -391 49 0 211 494 354 840 244 239 -75 402 129 205 256 -76 49 -273 62 -438 30 -857 -168 -830 -169 -518 11 360 207 1144 446 1468 447 145 1 365 122 521 288 290 306 1753 1113 2020 1113 88 0 261 120 385 267 471 562 576 633 930 633 209 0 331 -41 295 -99z m2034 -126 c-64 -124 -148 -292 -186 -375 -39 -82 -154 -166 -257 -187 -103 -20 -343 -143 -535 -273 -208 -142 -372 -196 -410 -136 -36 58 -261 77 -532 44 -475 -57 -783 17 -584 140 57 35 118 130 136 211 38 168 415 501 568 501 229 0 210 -207 -29 -316 -388 -176 -338 -417 69 -330 384 83 681 237 1225 636 504 370 699 401 535 85z m-10540 -484 c-37 -60 -152 -86 -256 -59 -104 27 -189 9 -189 -40 0 -49 -191 -207 -425 -350 -234 -143 -526 -380 -650 -526 l-224 -266 -1 370 c0 328 54 408 470 700 258 182 606 404 773 494 287 156 310 155 436 -25 73 -104 102 -238 66 -298z m6050 68 c-149 -68 -232 -46 -330 87 -123 169 -142 165 -327 -70 -210 -268 -638 -459 -638 -286 0 57 88 150 196 208 109 58 173 168 143 246 -80 207 342 238 784 58 336 -137 353 -161 172 -243z m14255 141 c34 -55 151 -100 259 -100 491 0 261 -559 -359 -872 -431 -218 -750 -534 -750 -745 0 -101 -62 -183 -138 -183 -75 0 -205 -141 -289 -313 -145 -300 -154 -304 -222 -91 -51 160 -10 278 149 426 165 153 205 276 162 491 -54 272 78 416 159 173 62 -185 432 64 670 450 280 452 265 539 -116 706 l-325 142 369 8 c203 4 397 -37 431 -92z m-2519 -92 c44 -4 50 -58 13 -118 -39 -62 -192 -85 -352 -53 -156 31 -312 11 -347 -45 -41 -67 -111 -62 -204 15 -329 274 -164 311 890 201z m-6479 -667 c-179 -468 -629 -881 -1052 -965 -137 -28 -340 -88 -450 -133 -110 -46 113 207 495 562 1017 944 1054 983 1063 1120 6 93 22 91 61 -7 29 -73 -24 -333 -117 -577z m7848 359 c-197 -128 -700 -128 -700 0 0 55 191 99 425 98 311 -1 385 -27 275 -98z m-18900 -139 c0 -95 -299 -143 -353 -57 -32 53 34 96 147 96 113 0 206 -18 206 -39z m14179 -286 c1 -438 117 -905 267 -1070 229 -253 5 -1219 -365 -1573 l-276 -265 265 669 266 669 -229 790 c-212 737 -215 1005 -12 1005 46 0 84 -101 84 -225z m4821 125 c0 -55 -45 -100 -100 -100 -55 0 -100 45 -100 100 0 55 45 100 100 100 55 0 100 -45 100 -100z m-11744 -153 c-107 -81 -239 -147 -294 -147 -55 0 -13 66 94 147 107 81 239 147 294 147 55 0 13 -66 -94 -147z m-6506 -47 c-275 -118 -433 -118 -250 0 83 53 218 94 300 91 99 -3 82 -34 -50 -91z m4069 -68 c-72 -29 -159 -26 -192 8 -33 33 26 56 131 52 117 -5 141 -28 61 -60z m4373 -63 c-282 -206 -2092 -1050 -2092 -975 0 56 124 181 275 278 151 97 364 257 473 356 109 99 311 205 450 236 139 31 387 90 552 131 270 67 450 54 342 -26z m11682 -439 c56 -231 77 -445 47 -476 -69 -69 -317 624 -319 891 -3 302 157 58 272 -415z m-17074 370 c-198 -128 -529 -128 -450 0 34 55 183 99 331 98 210 -1 236 -22 119 -98z m3958 -87 c-30 -48 -178 -139 -331 -202 -152 -63 -379 -265 -505 -448 -141 -206 -369 -376 -600 -448 -260 -80 -419 -211 -528 -433 -239 -490 -572 -684 -1247 -725 -571 -36 -584 -31 -297 98 165 75 382 138 482 140 296 8 571 200 674 471 53 139 188 277 300 307 242 63 217 391 -26 350 -118 -20 -148 27 -110 173 48 185 509 388 930 411 83 4 330 91 550 193 427 197 797 257 708 113z m7379 -124 c81 -117 121 -281 89 -366 -48 -125 -105 -102 -294 119 -220 255 -234 458 -32 458 49 0 155 -95 237 -211z m5197 -364 c34 -179 22 -325 -26 -325 -116 0 -208 256 -208 578 0 340 155 173 234 -253z m-16234 188 c0 -48 -173 -110 -385 -138 -211 -29 -783 -215 -1271 -413 -982 -401 -1194 -434 -1319 -210 -76 135 -132 136 -480 10 -444 -160 -1744 -828 -1890 -970 -201 -195 -243 -78 -78 217 188 335 953 717 1805 900 257 56 648 147 868 203 220 56 738 144 1150 196 413 52 908 134 1100 183 476 120 500 122 500 22z m9325 -88 c106 -464 -492 -947 -1513 -1222 -510 -137 -558 -113 -356 175 115 165 217 202 433 159 246 -49 343 14 771 502 270 307 520 559 558 560 37 0 85 -78 107 -174z m6368 -556 c4 -44 -38 -53 -93 -19 -55 34 -97 160 -93 281 7 211 10 212 93 19 47 -110 89 -236 93 -281z m-5700 -241 c10 -303 -426 -1264 -776 -1711 -158 -202 -326 -502 -373 -667 l-85 -300 -37 346 c-32 292 13 388 285 610 405 330 325 567 -115 340 -207 -107 -348 -124 -469 -56 -159 89 -157 101 27 159 941 291 1498 915 1398 1564 -40 262 -31 293 43 137 52 -110 98 -300 102 -422z m1603 -300 c7 -395 -310 -899 -706 -1122 -501 -281 -519 -320 -355 -796 77 -221 115 -427 85 -456 -111 -111 -218 -46 -363 221 l-149 275 -4 -319 c-4 -354 -106 -462 -345 -371 -111 43 -159 190 -159 483 0 471 316 870 724 915 124 14 259 29 299 34 195 22 577 1030 581 1530 l4 528 192 -350 c105 -192 194 -450 196 -572z m-7168 234 c-405 -298 -696 -617 -912 -1000 -175 -309 -362 -562 -417 -562 -129 0 -128 170 1 250 55 34 100 198 100 364 0 222 96 388 357 620 197 174 388 312 425 307 38 -6 248 94 468 220 634 365 624 277 -22 -199z m-10328 88 c0 -137 -45 -250 -100 -250 -55 0 -100 113 -100 250 0 138 45 250 100 250 55 0 100 -112 100 -250z m7046 -193 c-132 -200 -600 -457 -834 -457 -51 0 894 680 965 694 15 4 -44 -103 -131 -237z m11985 -181 c-74 -374 -209 -261 -152 127 25 172 82 275 126 230 44 -46 55 -206 26 -357z m-2171 -49 c-101 -102 -185 51 -102 186 63 102 87 102 121 1 23 -70 15 -154 -19 -187z m4616 148 c-23 -69 -151 -140 -284 -158 -237 -32 -238 -30 -42 122 244 189 381 204 326 36z m-18032 -200 c-98 -321 -128 -334 -321 -140 -152 151 -154 184 -23 267 271 171 419 117 344 -127z m656 75 c-68 -82 -220 -146 -337 -142 -180 7 -166 30 87 146 385 176 399 176 250 -4z m16581 -103 c-31 -30 -87 25 -125 124 -54 142 -42 154 56 56 69 -68 99 -149 69 -180z m2519 153 c0 -55 -42 -100 -94 -100 -52 0 -122 45 -156 100 -34 55 8 100 94 100 86 0 156 -45 156 -100z m-10368 -66 c91 -90 -125 -334 -294 -334 -172 0 -182 265 -13 334 183 73 234 74 307 0z m-10852 -263 c-481 -393 -974 -617 -1094 -497 -78 78 41 195 428 417 295 169 626 306 736 304 179 -2 172 -25 -70 -224z m19727 -446 c-390 -594 -674 -1256 -966 -2250 -92 -316 -205 -575 -249 -575 -144 0 -212 206 -109 329 55 67 196 504 313 971 118 468 291 963 385 1100 95 138 233 369 307 515 117 230 416 457 629 478 37 4 -102 -252 -310 -568z m1186 500 c-4 -41 -278 -294 -610 -562 -586 -472 -976 -1070 -981 -1502 -3 -237 -408 -1061 -522 -1061 -47 0 -20 101 58 225 78 124 173 383 210 575 81 419 656 1700 763 1700 42 0 103 85 136 189 86 272 968 679 946 436z m-20887 -808 c-361 -369 -671 -614 -688 -544 -53 207 -283 145 -459 -123 -165 -253 -121 -303 226 -255 74 10 105 -30 69 -88 -36 -59 -129 -107 -206 -107 -78 0 -190 -91 -249 -203 -147 -273 -299 -156 -299 230 0 228 102 419 370 694 204 208 425 379 492 379 67 0 136 39 155 87 67 176 921 684 1080 643 123 -33 2 -209 -491 -713z m3691 725 c261 -94 -97 -239 -597 -242 -289 -1 -602 -89 -875 -245 -234 -134 -425 -202 -425 -151 0 50 219 217 487 369 464 264 1092 384 1410 269z m14291 -354 c160 -202 205 -335 138 -402 -67 -67 -171 13 -313 243 -346 560 -227 667 175 159z m-19988 6 c0 -52 -45 -94 -100 -94 -55 0 -100 70 -100 156 0 86 45 128 100 94 55 -34 100 -104 100 -156z m3450 -294 c-100 -110 -221 -200 -269 -200 -48 0 -40 90 19 200 59 110 180 200 269 200 143 0 141 -23 -19 -200z m1850 100 c0 -55 -19 -100 -42 -100 -23 0 -113 -27 -200 -61 -104 -40 -158 -5 -158 100 0 94 83 161 200 161 110 0 200 -45 200 -100z m5200 0 c0 -55 -48 -100 -106 -100 -58 0 -78 45 -44 100 34 55 82 100 106 100 24 0 44 -45 44 -100z m669 -500 c-206 -627 -441 -833 -332 -292 51 255 410 892 503 892 14 0 -63 -270 -171 -600z m-6551 178 c-71 -71 -118 -77 -118 -15 0 134 118 252 185 185 28 -28 -2 -105 -67 -170z m3582 155 c0 -165 -353 -433 -571 -433 l-240 0 280 247 c269 236 531 328 531 186z m5778 -58 c-21 -69 -181 -192 -356 -275 -175 -82 -319 -198 -320 -256 -4 -217 -285 -497 -393 -392 -170 168 -16 796 226 916 314 157 891 161 843 7z m3418 -444 c30 -120 155 -334 279 -475 383 -438 265 -523 -333 -239 -115 54 -287 232 -383 395 -142 240 -152 326 -52 447 169 204 422 137 489 -128z m1704 -248 c0 -181 -160 -65 -334 243 l-184 324 259 -242 c142 -134 259 -280 259 -325z m-18770 354 c35 -35 -3 -158 -84 -273 -104 -149 -129 -345 -85 -676 63 -476 -98 -1188 -269 -1188 -50 0 -92 495 -92 1100 0 1086 3 1100 233 1100 129 0 262 -28 297 -63z m2168 -274 c-136 -130 -270 -217 -297 -193 -46 42 397 423 497 428 26 1 -64 -105 -200 -235z m4502 34 c0 -139 -263 -232 -406 -143 -84 52 -79 94 20 157 186 118 386 111 386 -14z m7142 -277 c-39 -242 -6 -513 91 -744 126 -303 128 -355 11 -310 -129 50 -342 614 -343 910 -1 117 212 524 274 524 15 0 0 -171 -33 -380z m-7992 80 c-34 -55 -107 -100 -162 -100 -55 0 -72 45 -38 100 34 55 107 100 162 100 55 0 72 -45 38 -100z m8895 -209 c-106 -171 355 -791 588 -791 123 0 379 -172 592 -399 418 -444 443 -501 220 -501 -139 0 -678 448 -1309 1090 -232 235 -347 891 -134 759 56 -35 75 -106 43 -158z m-4701 -541 c47 -200 37 -267 -30 -200 -55 55 -131 235 -170 400 -46 200 -36 267 30 200 55 -55 132 -235 170 -400z m9556 357 c0 -174 -194 -607 -273 -607 -42 0 -88 158 -102 350 -21 292 8 350 175 350 110 0 200 -42 200 -93z m-6414 -467 c63 -137 114 -281 114 -320 -1 -89 -492 506 -496 602 -8 160 277 -50 382 -282z m3465 -76 c72 -208 213 -441 315 -518 114 -86 135 -141 55 -143 -407 -10 -1081 834 -805 1009 208 131 294 62 435 -348z m-15447 -239 c-167 -316 -304 -679 -304 -806 0 -137 -43 -204 -106 -165 -131 80 -44 505 211 1033 161 332 269 448 473 505 16 4 -108 -251 -274 -567z m3619 76 c-93 -138 -271 -450 -396 -693 l-227 -442 0 322 c0 334 210 831 480 1139 234 268 356 -9 143 -326z m865 204 c-220 -297 -488 -470 -488 -315 0 158 415 610 560 610 112 0 94 -70 -72 -295z m3231 -744 c-77 -143 -429 669 -362 836 41 104 117 8 236 -297 96 -247 153 -490 126 -539z m2179 358 c-1 -146 -14 -148 -98 -19 -127 196 -127 328 0 250 55 -34 99 -138 98 -231z m6567 127 c94 -243 -15 -266 -214 -47 -166 183 -167 201 -13 201 92 0 195 -69 227 -154z m972 -67 c-68 -111 -337 -99 -337 15 0 51 87 87 193 79 106 -8 171 -50 144 -94z m-3637 -79 c0 -55 -45 -100 -100 -100 -55 0 -100 45 -100 100 0 55 45 100 100 100 55 0 100 -45 100 -100z m-15066 -530 c-38 -232 -115 -370 -208 -370 -150 0 -142 45 90 518 168 341 192 311 118 -148z m13666 -294 c0 -56 -66 -45 -150 24 -82 68 -150 169 -150 224 0 56 66 45 150 -24 82 -68 150 -169 150 -224z"/>
<path d="M24200 24900 c0 -55 45 -100 100 -100 55 0 100 45 100 100 0 55 -45 100 -100 100 -55 0 -100 -45 -100 -100z"/>
<path d="M14921 23746 c-71 -80 -88 -146 -37 -146 50 0 148 68 216 150 160 193 -8 190 -179 -4z"/>
<path d="M16000 22900 c0 -55 42 -100 94 -100 52 0 122 45 156 100 34 55 -8 100 -94 100 -86 0 -156 -45 -156 -100z"/>
<path d="M15773 22534 c68 -27 203 -29 300 -3 97 25 42 47 -123 50 -165 2 -245 -19 -177 -47z"/>
<path d="M15525 22231 c96 -25 254 -25 350 0 96 25 18 46 -175 46 -193 0 -271 -21 -175 -46z"/>
<path d="M22269 22189 c-100 -58 -381 -106 -625 -106 -517 0 -592 -147 -119 -233 356 -66 1091 147 1153 333 48 144 -166 147 -409 6z"/>
<path d="M15427 21940 c33 -34 120 -37 192 -8 80 32 56 55 -61 60 -105 4 -164 -19 -131 -52z"/>
<path d="M16100 21900 c0 -55 70 -100 156 -100 86 0 128 45 94 100 -34 55 -104 100 -156 100 -52 0 -94 -45 -94 -100z"/>
<path d="M21100 21304 l-350 -69 274 -115 c312 -130 576 -65 576 141 0 76 -34 133 -75 126 -41 -7 -232 -45 -425 -83z"/>
<path d="M14600 20700 c-202 -65 -212 -81 -50 -84 110 -3 380 33 600 78 l400 83 -350 2 c-193 0 -462 -35 -600 -79z"/>
<path d="M14050 20589 c-110 -47 -420 -178 -689 -290 -269 -112 -468 -225 -442 -251 38 -38 1216 410 1373 522 112 81 -66 95 -242 19z"/>
<path d="M15275 20429 c124 -23 225 -85 225 -136 0 -51 38 -93 83 -93 46 0 84 68 84 150 0 104 -95 146 -309 136 -235 -10 -255 -23 -83 -57z"/>
<path d="M14675 20334 c69 -28 181 -28 250 0 69 28 13 50 -125 50 -137 0 -194 -22 -125 -50z"/>
<path d="M21350 20243 c-169 -79 -442 -117 -625 -87 -383 63 -448 -121 -75 -215 227 -57 1150 272 1150 410 0 75 -121 46 -450 -108z"/>
<path d="M24567 18833 c-137 -137 -60 -430 142 -538 243 -130 382 -46 209 127 -65 65 -118 199 -118 298 0 182 -111 236 -233 113z"/>
<path d="M24800 17862 c0 -83 45 -178 100 -212 55 -34 100 6 100 88 0 83 -45 178 -100 212 -55 34 -100 -6 -100 -88z"/>
<path d="M11103 13604 c-241 -153 -78 -175 297 -41 303 109 317 126 100 130 -137 2 -316 -38 -397 -89z"/>
<path d="M7691 1691 c-529 -234 -791 -662 -791 -1294 0 -377 15 -397 311 -397 243 0 297 35 249 159 -168 439 -161 628 37 964 117 198 321 385 457 419 135 34 246 128 246 210 0 179 47 184 -509 -61z"/>
<path d="M24540 1280 c-440 -462 -940 -1108 -940 -1214 0 -192 316 -24 453 239 87 168 338 486 558 706 221 221 387 468 370 550 -21 103 -159 15 -441 -281z"/>
<path d="M24747 771 c-328 -357 -564 -771 -439 -771 190 0 704 621 672 812 -27 165 -48 161 -233 -41z"/>
<path d="M3400 200 c0 -238 154 -265 239 -42 86 224 79 242 -89 242 -83 0 -150 -89 -150 -200z"/>
</g>
</svg>