<svg xmlns="http://www.w3.org/2000/svg" version="1.0" width="250" height="525" viewBox="0 0 250.000000 525.000000" preserveAspectRatio="xMidYMid meet">
<metadata>
Created by potrace 1.10, written by Peter Selinger 2001-2011
</metadata>
<g transform="translate(0.000000,525.000000) scale(0.010000,-0.010000)" fill="#555555" stroke="none">
<path d="M15250 52429 c-313 -32 -11179 -131 -13325 -120 -1853 8 -1925 1 -1925 -189 0 -176 71 -198 663 -201 364 -2 702 -44 751 -93 94 -94 152 -2281 234 -8826 73 -5898 75 -6482 17 -6576 -29 -46 -415 -80 -859 -74 -778 10 -806 2 -806 -220 0 -223 28 -230 894 -230 l894 0 19 -7275 c10 -4001 32 -8715 50 -10475 18 -1760 35 -6564 38 -10675 5 -7296 10 -7475 196 -7475 167 0 197 90 229 675 47 857 -10 26000 -72 31525 -25 2283 -71 7626 -101 11875 l-56 7725 749 0 c411 0 771 -38 800 -84 104 -169 -106 -666 -297 -701 -106 -19 -236 -75 -288 -125 -56 -53 -110 -2280 -134 -5515 -21 -2984 -46 -6167 -55 -7075 -9 -907 25 -2122 75 -2700 50 -577 74 -1770 54 -2650 -72 -3183 62 -22116 178 -25000 70 -1757 79 -3162 37 -5800 -33 -2135 -32 -2150 165 -2150 162 0 175 177 175 2325 0 1995 26 2403 185 2873 232 690 564 1182 667 988 152 -286 179 -1929 41 -2583 -169 -807 -379 -2964 -321 -3303 l43 -250 111 250 111 250 7 -275 c3 -164 62 -275 144 -275 172 0 274 348 142 480 -194 194 -216 2018 -36 2970 339 1796 837 3824 1006 4097 493 797 454 6764 -56 8585 -80 284 -77 418 12 526 86 103 100 429 49 1168 -55 789 -44 997 47 909 256 -249 955 -3432 1194 -5435 43 -357 60 -1887 38 -3400 -39 -2750 -88 -3222 -501 -4800 -80 -302 -232 -883 -339 -1291 -239 -914 -265 -2363 -48 -2674 81 -115 283 -236 449 -269 203 -41 395 -193 579 -460 152 -219 332 -400 401 -402 268 -8 86 421 -440 1039 -374 439 -403 655 -192 1460 93 354 109 582 46 646 -139 142 -252 -81 -347 -687 -43 -282 -88 -557 -99 -612 -11 -55 -27 -167 -35 -250 -34 -334 -301 374 -304 806 -5 596 345 1928 652 2480 158 285 221 519 182 675 -65 261 145 1531 279 1684 46 53 83 -69 83 -275 0 -204 48 -370 106 -370 62 0 93 174 75 425 -20 274 -75 416 -156 400 -98 -20 -125 616 -125 2915 0 2491 -31 3121 -202 4125 -277 1626 -451 2439 -735 3435 -133 468 -298 1098 -366 1400 -68 303 -156 595 -197 650 -106 145 259 5739 401 6125 65 179 159 300 209 269 122 -76 115 -617 -10 -694 -55 -34 -100 -219 -100 -412 0 -192 40 -325 90 -294 125 77 209 -187 215 -677 3 -229 65 -799 137 -1267 72 -467 95 -920 52 -1005 -44 -85 -111 -434 -150 -775 -58 -519 -45 -620 82 -620 205 0 254 -243 334 -1661 49 -865 36 -1230 -46 -1280 -259 -160 -30 -2025 237 -1923 68 27 119 -5 113 -69 -10 -114 83 -1311 211 -2717 36 -385 57 -1195 48 -1800 -10 -667 29 -1190 99 -1329 88 -173 87 -307 -3 -557 -181 -500 -151 -1232 59 -1442 215 -215 291 -1269 107 -1491 -66 -79 -128 -467 -138 -862 -10 -396 -36 -786 -58 -869 -22 -84 27 -150 110 -150 86 0 173 126 205 300 72 380 245 -743 395 -2550 182 -2206 181 -2200 526 -2200 276 0 293 20 227 275 -39 151 -120 714 -179 1250 -59 536 -141 975 -183 975 -42 0 -51 236 -22 525 30 289 0 953 -66 1475 -183 1437 -359 3601 -553 6782 l-50 833 362 442 c200 244 391 443 426 443 35 0 64 -214 66 -475 6 -1137 168 -3607 259 -3956 57 -220 70 -775 31 -1311 -47 -639 -30 -1045 56 -1304 99 -302 98 -422 -6 -616 -108 -203 -100 -332 53 -815 100 -315 244 -1090 321 -1723 76 -632 154 -1274 173 -1425 19 -151 41 -525 48 -831 l12 -557 325 32 325 31 -17 683 c-9 376 -42 710 -75 742 -32 32 -58 300 -58 596 0 671 -256 3012 -446 4079 -201 1135 -231 1450 -137 1450 46 0 83 -71 83 -157 0 -87 85 -526 190 -975 387 -1671 1004 -4847 1009 -5193 1 -41 -66 -75 -149 -75 -117 0 -150 -133 -150 -600 0 -573 11 -600 250 -600 283 0 287 22 259 1350 -17 783 -171 1682 -667 3900 -379 1696 -597 2836 -956 5000 -152 918 -353 2984 -305 3129 58 171 490 388 947 474 359 67 372 59 373 -217 2 -469 119 -1036 214 -1036 48 0 163 156 254 348 162 339 169 342 310 141 220 -314 380 -83 209 303 -168 379 -318 391 -479 38 -145 -318 -306 -161 -232 226 57 300 438 329 971 75 499 -238 731 -688 811 -1577 71 -775 241 -947 241 -242 0 648 167 356 335 -586 174 -974 235 -5726 75 -5726 -94 0 -63 -1180 33 -1277 90 -89 66 -819 -32 -1005 -122 -230 -202 -1271 -109 -1422 42 -67 126 -91 187 -53 78 49 111 -211 111 -887 l0 -956 253 0 253 0 -57 1325 c-31 729 -76 3080 -99 5225 -33 2955 -80 4094 -197 4700 -85 440 -184 998 -219 1241 -64 430 -60 439 175 365 133 -41 368 -99 523 -128 316 -59 388 -198 666 -1278 204 -795 256 -2472 220 -7150 -22 -2907 42 -4300 196 -4300 47 0 91 1519 96 3375 19 6209 -3 7332 -155 7972 -327 1374 -346 1311 488 1589 635 211 669 208 567 -61 -47 -124 -113 -2115 -148 -4425 -82 -5460 -126 -7061 -217 -7834 -74 -621 -71 -633 152 -600 191 29 264 162 456 834 259 908 403 1495 616 2500 324 1536 887 2824 1576 3613 247 281 540 536 652 565 367 96 257 -442 -203 -992 -527 -631 -639 -907 -1049 -2586 -278 -1138 -742 -3553 -744 -3875 -1 -41 123 -75 275 -75 265 0 274 17 240 451 -20 249 -6 530 31 625 59 152 85 142 204 -76 75 -137 166 -419 202 -625 84 -486 250 -486 235 0 -22 708 -124 976 -366 967 -254 -9 -266 72 -108 732 222 928 269 1022 278 551 11 -610 204 -526 230 100 48 1175 55 1330 66 1438 7 63 102 137 211 166 159 41 188 110 144 336 -61 311 184 1376 366 1596 62 75 154 112 202 82 138 -85 105 -505 -50 -634 -76 -63 -175 -372 -220 -687 -112 -789 -115 -772 109 -772 184 0 197 -55 165 -700 -20 -385 -78 -925 -130 -1200 -52 -275 -111 -916 -132 -1425 -37 -922 -37 -925 205 -925 162 0 243 58 246 175 3 96 49 648 102 1225 54 578 122 1658 152 2400 30 743 92 1755 137 2250 48 519 43 1175 -10 1550 -52 358 -69 785 -39 950 78 434 68 500 -71 500 -70 0 -129 131 -133 300 -5 165 -65 480 -134 700 -160 513 -402 1590 -365 1626 88 89 357 -126 357 -285 0 -104 44 -380 98 -615 55 -234 123 -552 153 -705 86 -438 219 -231 193 300 -25 522 -256 1603 -445 2079 -119 298 -120 298 -208 69 -116 -302 -291 -189 -291 187 0 385 270 393 619 19 202 -216 283 -457 382 -1125 69 -467 158 -985 199 -1150 l74 -300 113 282 c62 155 85 396 50 536 -41 163 -16 283 70 336 185 115 293 25 293 -243 0 -279 76 -364 260 -293 160 61 190 489 41 581 -119 74 -107 2282 14 2471 57 91 82 64 83 -89 1 -121 103 -292 227 -380 211 -151 214 -169 50 -292 -194 -145 -240 -707 -67 -814 61 -38 81 -177 44 -321 -67 -267 109 -824 260 -824 105 0 105 4 99 1600 -5 1284 164 2608 340 2667 63 21 102 -493 106 -1392 3 -784 -12 -1279 -32 -1100 -67 575 -225 346 -225 -325 0 -613 124 -862 236 -475 28 96 43 -140 33 -525 -15 -564 10 -700 131 -700 127 0 151 260 159 1700 5 935 16 1801 25 1925 22 303 216 288 216 -17 0 -133 51 -258 114 -279 83 -28 78 -137 -19 -405 -103 -284 -106 -419 -16 -595 63 -126 151 -724 193 -1329 62 -877 108 -1100 228 -1100 116 0 151 136 155 600 3 330 -30 648 -72 707 -43 59 -82 824 -86 1700 -12 2040 -18 1943 129 1943 98 0 124 -407 115 -1775 -6 -976 7 -1460 29 -1075 89 1571 342 718 342 -1155 0 -986 19 -1104 169 -1074 136 27 167 144 160 606 -6 389 30 573 113 573 131 0 370 -242 305 -309 -56 -58 -237 -2316 -364 -4541 -100 -1765 -319 -3746 -434 -3932 -27 -44 -120 -640 -206 -1324 -87 -684 -179 -1341 -206 -1460 -46 -206 -14 -216 664 -216 l713 0 -60 501 c-32 276 -110 563 -171 638 -62 74 -120 373 -129 664 -18 595 108 2321 214 2929 87 499 88 7712 1 8800 -115 1450 -458 2370 -952 2558 -1025 390 -1928 -270 -2807 -2051 -287 -582 -522 -1103 -522 -1157 0 -196 -215 -95 -530 249 -203 222 -539 426 -920 561 -787 279 -1604 212 -3150 -258 -632 -193 -1250 -350 -1372 -351 -275 -1 -1488 480 -2228 884 -621 338 -1207 422 -2102 300 -658 -90 -986 -284 -1637 -965 -374 -391 -428 -417 -603 -289 -444 326 -133 1124 600 1539 247 140 416 322 464 500 137 511 -120 3505 -362 4206 -98 284 -190 381 -385 405 -252 30 -344 -33 -622 -431 -250 -359 -397 -43 -380 823 16 860 144 1059 622 963 327 -65 573 244 612 771 60 799 -251 2775 -576 3663 -253 689 -453 799 -1125 619 -106 -29 -167 106 -229 511 -102 662 4 948 385 1044 359 90 938 705 938 997 0 837 -652 4172 -918 4694 -177 346 -228 381 -514 340 -175 -24 -390 -76 -479 -115 -129 -57 -179 26 -259 427 l-98 498 459 177 c758 293 1572 134 2659 -521 385 -232 1105 -568 1600 -747 l900 -325 2100 -5 c1905 -5 2160 15 2750 214 358 121 753 220 879 221 225 1 1023 358 1121 501 144 211 946 492 1582 555 790 78 1387 -75 1968 -503 165 -122 474 -303 687 -404 614 -289 1242 -1460 1514 -2823 174 -873 326 -2970 341 -4725 10 -1072 36 -2130 60 -2350 23 -220 9 -630 -30 -912 -68 -481 -86 -507 -299 -427 -220 81 -227 125 -216 1212 6 620 -16 1285 -49 1477 -34 193 -105 1048 -158 1900 -53 852 -180 2249 -281 3104 -164 1383 -222 1630 -536 2250 -261 516 -440 741 -693 870 -1743 889 -2248 886 -4090 -32 -522 -260 -1107 -503 -1300 -540 -682 -130 -723 -156 -672 -420 31 -164 -25 -326 -167 -480 -206 -222 -223 -224 -430 -57 -118 96 -230 305 -248 464 -30 268 -72 296 -533 352 -275 33 -792 17 -1150 -37 -940 -141 -2494 64 -3800 501 -1464 490 -1701 539 -1768 365 -30 -79 -9 -198 47 -266 206 -252 533 -1902 573 -2891 15 -368 52 -708 82 -757 132 -214 169 -1724 47 -1918 -93 -151 -97 -281 -16 -529 397 -1209 637 -2571 687 -3895 23 -601 68 -1135 100 -1188 33 -53 -19 -229 -115 -392 -137 -231 -152 -346 -68 -525 107 -231 277 -932 381 -1579 31 -192 95 -1182 142 -2200 47 -1018 117 -1927 156 -2020 46 -113 228 -189 536 -226 256 -30 734 -120 1062 -200 328 -79 614 -127 635 -107 83 83 -639 377 -1213 495 l-609 124 -128 492 c-71 271 -155 1257 -188 2192 -48 1383 -101 1826 -284 2375 -173 522 -193 675 -89 675 74 0 178 -112 230 -250 111 -293 122 -295 499 -101 158 82 357 123 440 91 84 -32 323 31 531 139 765 397 1730 703 1730 548 0 -230 -1195 -927 -1589 -927 -91 0 -333 -138 -538 -307 -294 -242 -373 -378 -373 -640 0 -202 58 -354 149 -389 83 -31 143 -138 135 -236 -49 -567 248 -730 551 -303 149 209 168 212 268 50 145 -236 469 -222 547 25 74 234 135 243 385 54 256 -195 465 -85 465 243 0 453 334 747 1542 1360 889 450 1186 653 1318 899 165 305 200 319 970 378 506 39 962 141 1245 278 370 179 461 192 534 77 282 -446 -113 -1455 -731 -1864 -417 -278 -878 -835 -878 -1062 0 -214 184 -301 347 -165 109 90 163 70 250 -92 148 -277 363 -260 564 47 158 240 176 245 354 84 150 -136 232 -148 411 -59 123 62 314 128 424 148 119 21 182 94 156 180 -109 359 -3 695 429 1362 256 394 465 763 465 819 0 155 708 -166 1025 -465 203 -192 275 -355 275 -628 0 -776 -95 -978 -574 -1217 -415 -207 -431 -229 -213 -286 236 -62 236 -62 -38 -137 -363 -100 -358 -288 6 -208 280 61 281 60 279 -460 -2 -612 121 -706 365 -278 159 279 160 321 17 464 -87 87 -136 241 -109 343 27 105 -18 223 -105 271 -124 70 -106 98 92 148 315 79 476 439 550 1235 54 578 37 661 -180 893 -132 140 -390 318 -574 395 -525 220 -1128 748 -1286 1125 -79 189 -136 529 -127 756 34 883 -3 1168 -157 1227 -217 84 -298 -32 -148 -212 91 -110 106 -357 55 -902 -68 -729 -78 -751 -337 -750 -146 0 -641 -166 -1098 -369 -681 -303 -848 -345 -919 -230 -73 117 -117 112 -276 -31 -198 -179 -399 -212 -665 -110 -196 75 -206 375 -18 531 149 123 303 598 221 681 -27 27 -120 -102 -206 -287 -86 -185 -269 -489 -406 -676 -137 -187 -249 -469 -249 -627 0 -217 -67 -317 -275 -408 -151 -67 -297 -144 -325 -173 -141 -148 -595 -317 -690 -258 -64 40 -111 -8 -112 -113 -1 -117 -169 -260 -475 -405 -635 -300 -1023 -675 -1023 -988 0 -160 -46 -239 -125 -211 -139 48 -150 294 -31 673 75 239 65 235 -239 -70 -212 -212 -321 -422 -327 -628 -11 -392 -227 -339 -232 57 -5 429 -344 393 -565 -59 -161 -328 -172 -334 -176 -94 -3 141 74 346 170 455 246 280 442 639 348 639 -160 0 -523 -316 -523 -456 0 -79 -45 -144 -100 -144 -55 0 -100 48 -100 107 0 281 254 502 812 705 694 253 1824 1037 2101 1456 203 308 245 684 87 782 -156 97 -117 450 50 450 82 0 150 44 150 97 0 53 -68 71 -150 39 -224 -86 -187 25 207 618 331 499 381 534 675 485 l318 -54 -225 199 c-124 109 -225 247 -225 307 0 134 -167 143 -247 13 -33 -52 -131 -68 -218 -35 -124 48 -144 16 -92 -148 50 -156 -26 -313 -299 -614 -300 -333 -413 -395 -630 -349 -253 53 -256 49 -72 -100 106 -86 247 -302 312 -482 65 -179 155 -412 200 -518 63 -151 -20 -122 -392 134 -302 207 -551 486 -689 769 -192 396 -201 478 -82 766 73 178 178 551 234 831 87 432 76 548 -76 780 -253 385 -718 603 -1297 608 -371 3 -506 44 -529 161 -25 128 67 156 481 150 404 -5 541 35 651 193 76 110 176 245 222 300 46 55 82 127 79 160 -3 32 53 130 124 216 153 185 628 89 934 -188 220 -200 264 -2 48 214 -150 150 -422 231 -957 285 -190 19 -363 86 -384 149 -57 172 671 141 1274 -53 461 -149 512 -193 460 -398 -46 -184 -9 -243 184 -291 152 -38 258 -151 288 -308 33 -173 9 -233 -81 -198 -213 81 -292 -457 -88 -606 199 -146 379 -73 304 123 -32 83 0 115 83 83 75 -29 163 -200 197 -381 34 -181 151 -410 260 -509 236 -213 254 -348 48 -348 -291 0 -145 -175 281 -338 270 -102 552 -140 750 -101 256 51 319 31 319 -102 0 -141 74 -156 500 -100 562 75 673 -62 236 -291 -146 -76 -220 -166 -165 -200 134 -83 707 352 657 499 -21 64 53 145 166 181 114 36 206 107 206 159 0 119 -629 122 -755 4 -112 -106 -745 -252 -745 -172 0 30 326 150 725 266 399 117 793 235 875 263 83 29 642 69 1244 90 601 22 1252 91 1445 155 271 89 361 88 392 -5 22 -67 159 -170 304 -230 206 -85 227 -119 95 -150 -93 -22 -264 10 -379 71 -114 62 -297 84 -405 50 -305 -97 -82 -392 409 -539 228 -68 485 -151 570 -184 125 -47 142 -7 88 208 -38 153 -25 266 32 266 158 0 276 -317 291 -784 7 -239 40 -477 72 -530 33 -52 7 -315 -57 -582 -133 -555 -88 -687 475 -1377 343 -421 344 -426 273 -1150 -39 -400 -118 -785 -176 -856 -77 -96 -48 -170 111 -281 119 -83 216 -259 216 -390 0 -259 -158 -425 -222 -233 -59 177 -278 1 -278 -223 0 -107 -65 -194 -144 -194 -98 0 -155 136 -177 425 l-33 425 -129 -435 c-115 -385 -110 -456 42 -625 251 -278 498 -235 642 113 93 224 172 287 307 245 145 -47 195 14 249 307 39 204 18 536 -48 754 -87 290 -88 496 -6 802 61 226 97 597 81 824 -23 316 8 420 131 444 224 43 287 -406 230 -1663 -40 -911 25 -1712 216 -2645 54 -266 41 -277 -299 -255 -433 30 -553 -68 -342 -279 191 -191 762 -101 852 135 32 84 0 518 -73 965 -73 447 -145 1477 -162 2288 -25 1208 -5 1475 109 1475 77 0 226 -110 331 -244 157 -199 206 -495 272 -1625 44 -759 79 -1493 79 -1631 -1 -410 251 -2512 309 -2570 29 -29 49 1358 44 3083 -5 1726 -39 3002 -77 2837 -154 -680 -260 1647 -219 4792 15 1223 111 1445 226 527 35 -286 65 1792 65 4618 0 2825 -28 5094 -63 5042 -35 -51 -142 -123 -238 -158 -103 -38 -175 -168 -175 -316 0 -139 -53 -449 -117 -689 -95 -355 -218 -511 -652 -827 -996 -724 -1095 -569 -233 364 584 631 766 1084 502 1247 -142 88 -124 349 25 353 184 4 706 510 845 817 155 345 -95 1043 -409 1141 -361 113 -490 439 -174 439 102 0 305 93 450 207 232 183 263 278 263 807 0 909 -379 1486 -976 1486 -432 0 -388 171 111 430 684 355 795 918 353 1790 -231 458 -438 580 -803 476 -398 -115 -442 43 -127 456 l270 353 -182 403 c-216 481 -824 992 -1179 992 -140 0 -377 -47 -528 -104 -407 -155 -565 -62 -423 248 204 449 -2 856 -670 1323 -683 479 -1227 575 -1317 233 -35 -133 -136 -200 -302 -200 -238 0 -247 21 -185 431 56 375 26 483 -236 845 -291 402 -320 415 -928 444 l-628 30 34 431 c27 337 -22 513 -223 802 -325 471 -775 742 -1094 662 -409 -102 -977 -768 -1010 -1184 -37 -454 -271 -723 -703 -804 -461 -86 -586 -269 -507 -740 106 -626 -308 -879 -1005 -614 -422 160 -904 -47 -1200 -516 l-249 -394 -625 18 c-691 19 -989 -109 -1167 -499 -92 -201 -79 -313 68 -587 176 -330 176 -343 -13 -482 -107 -79 -298 -149 -425 -155 -127 -7 -321 -24 -431 -38 -110 -14 -247 -31 -306 -37 -142 -17 -619 -1075 -619 -1373 0 -131 107 -325 238 -433 l237 -195 -285 -513 c-307 -554 -320 -940 -53 -1583 132 -318 126 -344 -137 -570 -180 -155 -326 -430 -421 -796 -163 -625 -91 -970 239 -1146 332 -178 451 -490 265 -695 -406 -449 6 -1375 693 -1554 606 -159 650 -207 517 -559 -158 -419 56 -781 633 -1073 247 -124 463 -268 480 -319 53 -154 -570 -421 -811 -348 -528 160 -970 830 -970 1468 0 291 -51 355 -418 529 -576 271 -782 695 -782 1607 0 576 -41 765 -213 984 -283 360 -205 1065 201 1816 274 505 286 568 155 818 -212 407 -174 855 126 1466 254 517 259 559 100 735 -504 557 276 2112 1122 2236 259 38 320 127 509 735 68 220 217 502 332 628 246 269 757 541 878 466 47 -29 222 -70 389 -91 263 -34 322 4 437 279 206 493 424 616 1129 637 736 22 835 64 836 362 3 439 123 646 496 855 209 118 452 214 540 214 88 0 223 150 299 332 222 530 731 1038 1203 1199 557 190 1208 84 1443 -234 335 -454 518 -850 518 -1120 0 -214 47 -277 208 -277 346 0 1286 -685 1351 -985 110 -505 122 -515 623 -515 886 0 1597 -374 1924 -1013 102 -199 161 -387 131 -417 -31 -30 -27 -144 7 -252 52 -163 145 -195 535 -183 382 12 546 -41 868 -285 742 -561 780 -623 765 -1254 -12 -558 0 -587 331 -791 188 -117 387 -335 442 -484 91 -249 100 -233 107 193 6 318 -38 482 -136 520 -79 30 -237 368 -351 750 -227 761 -623 1217 -1404 1615 -306 157 -423 285 -469 517 l-62 309 -113 -276 -112 -276 -133 288 c-128 280 -119 300 298 639 899 729 1090 961 1090 1321 0 381 -315 1112 -625 1450 -120 131 -430 269 -764 341 -829 177 -889 322 -109 263 369 -27 845 -141 1094 -262 243 -117 498 -213 567 -213 200 0 689 -518 878 -930 257 -563 243 -1226 -39 -1843 -237 -517 -238 -529 -69 -1064 94 -298 244 -602 335 -677 151 -125 158 -86 84 464 -44 330 -66 780 -48 1000 17 220 35 903 39 1519 7 1098 2 1124 -279 1417 l-286 298 229 408 c127 224 267 408 311 408 45 0 82 169 82 376 l0 376 -4775 -1 c-2626 -1 -4865 -10 -4975 -22z m9350 -503 c0 -29 -91 -199 -201 -378 -248 -401 -700 -500 -1146 -250 -167 93 -512 197 -768 232 -255 35 -633 144 -839 242 l-375 178 1339 50 c1334 50 1990 25 1990 -74z m-14011 30 c-217 -217 -873 -574 -1184 -644 -212 -47 -819 -94 -1350 -104 -531 -10 -1022 -40 -1092 -67 -159 -61 -698 676 -557 763 114 70 4253 122 4183 52z m9811 -201 c0 -134 45 -271 100 -305 236 -146 63 -230 -425 -206 -2030 99 -2627 183 -2936 413 -288 214 -360 225 -963 140 -723 -103 -1123 -231 -1222 -390 -36 -58 -209 -103 -385 -100 -175 3 -1140 -20 -2144 -52 -1004 -32 -1825 -29 -1825 7 0 35 93 215 207 400 l207 335 4693 1 4693 1 0 -244z m-15169 25 c-57 -71 -133 -254 -169 -405 -96 -403 -479 -379 -637 40 -65 173 -100 344 -78 381 23 36 254 77 514 90 377 20 452 -2 370 -106z m876 -570 c449 -664 612 -1262 531 -1948 -45 -388 -21 -597 88 -772 293 -468 292 -736 -3 -1018 -150 -144 -436 -330 -636 -413 l-363 -152 -123 472 c-68 259 -235 845 -373 1302 -158 525 -225 929 -183 1100 36 148 109 538 162 867 112 692 298 1166 442 1121 56 -17 261 -269 458 -559z m15290 165 c5 -127 -174 -83 -340 82 -86 87 -157 201 -157 255 0 111 492 -222 497 -337z m-17162 -900 c98 -399 238 -860 311 -1025 73 -165 186 -502 252 -750 65 -247 209 -765 320 -1150 198 -689 465 -1808 525 -2200 17 -110 85 -335 152 -500 74 -185 96 -496 57 -812 -49 -394 -30 -525 79 -567 102 -39 162 -331 212 -1046 62 -869 44 -1075 -150 -1674 -209 -647 -214 -744 -102 -1796 65 -612 240 -1538 389 -2057 230 -805 311 -965 545 -1077 294 -141 375 -421 122 -421 -84 0 -179 -67 -211 -150 -72 -189 -236 -196 -236 -11 0 324 -829 281 -1007 -52 -55 -103 -143 -187 -197 -187 -171 0 -102 511 109 807 151 213 180 335 108 468 -53 99 -106 696 -119 1327 -30 1476 -457 3198 -792 3198 -138 0 -293 601 -528 2050 -176 1086 -214 1794 -231 4300 -19 2960 20 4050 148 4050 35 0 145 -326 244 -725z m5765 416 c0 -246 -343 -557 -707 -640 -402 -92 -871 -582 -947 -989 -87 -464 -6 -776 298 -1137 150 -178 270 -480 310 -783 61 -463 42 -520 -320 -977 -289 -364 -566 -570 -1117 -828 -403 -189 -842 -453 -975 -586 l-243 -243 -134 321 c-73 177 -166 501 -205 721 -39 220 -91 471 -116 557 -31 106 176 308 647 630 940 642 1073 1054 626 1945 -157 312 -157 340 8 461 96 71 175 209 175 307 0 384 920 998 1886 1259 844 228 814 228 814 -18z m9856 76 c608 -22 1193 -85 1300 -139 107 -55 367 -127 578 -159 211 -33 447 -112 525 -176 261 -217 126 -1293 -163 -1293 -53 0 -97 146 -97 325 -2 441 -103 785 -210 718 -120 -74 -113 -1066 9 -1386 107 -282 375 -343 466 -107 31 83 98 150 147 150 49 0 89 -67 89 -150 0 -200 362 -193 439 8 90 233 76 269 -79 210 -86 -33 -163 30 -199 164 -87 327 -73 1068 21 1068 46 0 208 -271 361 -602 263 -570 269 -615 115 -850 -89 -136 -205 -248 -257 -248 -52 0 -251 -138 -444 -307 -430 -378 -922 -388 -883 -18 13 124 -19 225 -71 225 -52 0 -121 169 -154 375 -116 721 -154 825 -299 825 -116 0 -134 -99 -90 -475 32 -261 75 -534 98 -607 27 -88 -34 -121 -183 -100 -155 22 -255 133 -321 357 -114 389 -227 416 -313 75 -108 -431 -481 -329 -848 230 -227 347 -450 543 -804 705 -269 124 -489 280 -489 346 0 67 -90 290 -200 495 -110 205 -200 386 -200 401 0 15 236 17 525 3 289 -13 1023 -41 1631 -63z m-5422 -42 c106 -174 -299 -768 -609 -894 -311 -126 -325 -122 -325 102 0 129 -30 263 -66 299 -130 130 -334 -163 -334 -479 0 -323 -167 -936 -295 -1080 -38 -42 -65 273 -62 700 6 713 -10 777 -193 777 -158 0 -191 -52 -157 -250 23 -137 46 -475 50 -750 6 -460 -13 -503 -243 -534 -137 -19 -385 -134 -550 -257 -550 -409 -569 -411 -533 -45 28 280 0 336 -167 336 -165 0 -200 -67 -200 -379 0 -223 -60 -415 -145 -468 -241 -149 -313 -9 -155 298 83 159 150 357 150 439 0 244 -215 644 -380 708 -255 98 -351 -101 -194 -400 106 -204 121 -392 58 -732 -130 -697 -258 -717 -333 -52 -96 852 -185 1081 -434 1118 -254 37 -268 -46 -75 -442 189 -385 313 -1240 179 -1240 -56 0 -150 124 -210 275 -60 151 -199 432 -310 623 -242 419 -254 682 -45 980 144 206 728 579 790 504 15 -17 82 -138 150 -268 91 -175 151 -207 236 -122 84 84 80 166 -18 322 -116 187 -97 245 179 529 l310 319 1710 14 c941 8 1735 39 1765 69 81 81 403 67 456 -20z m1867 -391 c233 -288 399 -617 399 -789 0 -326 502 -1251 725 -1336 656 -251 1192 -1674 727 -1934 -220 -123 -187 -308 98 -556 138 -120 250 -277 250 -349 0 -218 -396 -574 -708 -637 -263 -52 -292 -97 -292 -449 0 -383 -176 -756 -525 -1107 -96 -98 -178 -323 -181 -502 -16 -850 -85 -1675 -170 -2032 -151 -631 -90 -1587 103 -1624 119 -23 177 70 220 350 168 1092 286 1446 668 1997 530 765 1027 1275 1600 1643 1338 860 1942 474 2281 -1452 153 -875 128 -1463 -95 -2173 -243 -775 -252 -1166 -35 -1476 91 -130 193 -373 227 -540 87 -423 265 -441 508 -50 158 254 193 429 149 744 -44 309 -9 497 141 750 109 186 256 642 327 1013 70 371 151 674 180 672 62 -3 687 -913 872 -1270 188 -361 160 -1111 -68 -1841 -266 -851 -507 -1218 -934 -1421 -447 -212 -555 -506 -292 -799 284 -316 336 -540 163 -713 -218 -218 -500 -191 -1216 112 -511 217 -616 301 -568 451 43 136 7 184 -138 184 -107 0 -222 -67 -253 -150 -139 -362 -1219 -13 -1330 429 -50 199 -6 306 201 483 286 246 344 438 134 438 -72 0 -232 94 -356 209 -179 167 -211 274 -158 525 75 351 311 666 498 666 67 0 182 72 256 160 115 139 89 197 -189 425 -426 351 -417 638 30 902 398 234 441 371 147 464 -355 112 -597 461 -597 858 0 323 49 400 373 591 302 178 407 198 559 103 239 -149 568 117 568 460 0 480 -787 665 -1325 312 -598 -392 -1495 -2023 -1873 -3404 -140 -516 -543 -930 -1198 -1231 -195 -90 -547 -349 -783 -576 -513 -495 -617 -418 -619 455 -1 313 -42 594 -90 624 -49 30 -112 179 -141 331 -90 480 -632 1892 -899 2343 -141 238 -373 518 -514 622 -142 104 -258 243 -258 310 0 66 -155 280 -346 476 -558 575 -1454 616 -1454 66 0 -219 322 -415 543 -330 511 196 996 -335 980 -1071 -10 -430 20 -491 395 -793 406 -325 407 -328 350 -880 -34 -325 -142 -668 -263 -831 -243 -330 -255 -465 -58 -683 121 -133 126 -233 32 -557 -63 -218 -174 -467 -247 -554 -197 -235 -164 -353 173 -616 310 -243 368 -447 242 -851 -53 -168 -30 -225 88 -225 215 0 395 -366 323 -655 -71 -283 -535 -401 -1191 -303 -347 52 -482 25 -690 -139 -534 -420 -811 -178 -761 666 l34 576 -482 263 c-619 336 -1668 1427 -1950 2026 -240 511 -295 1448 -112 1934 129 345 593 1032 697 1032 140 0 218 -543 248 -1711 29 -1172 139 -1590 491 -1882 86 -71 229 -101 318 -67 156 60 155 187 -4 572 -38 90 -5 225 72 302 486 485 532 1472 134 2832 -354 1208 -358 2085 -12 2554 138 186 250 399 250 472 0 174 417 328 886 328 518 0 1367 -532 1837 -1150 387 -509 848 -1380 1111 -2100 356 -974 670 -1598 788 -1567 207 54 257 218 175 580 -42 188 -62 973 -44 1744 38 1590 -40 1903 -622 2508 -320 332 -346 401 -285 764 66 390 59 403 -364 636 -330 181 -440 305 -465 523 -52 455 63 762 285 762 230 0 237 51 84 625 -100 373 -89 477 90 826 113 219 434 630 714 912 473 476 510 549 510 1000 1 623 313 1191 577 1050 96 -52 242 -177 324 -279z m-8751 -34 c-341 -356 -506 -379 -584 -83 -82 317 -3 383 459 383 l412 0 -287 -300z m-4081 -775 c-25 -96 -46 -17 -46 175 0 193 21 271 46 175 25 -96 25 -254 0 -350z m9109 -2725 c406 -474 342 -869 -193 -1195 -243 -147 -372 -165 -648 -89 -189 53 -432 67 -540 33 -347 -110 -597 37 -597 351 0 306 254 640 412 542 114 -70 471 150 836 515 274 274 381 251 730 -157z m7689 236 c466 -270 723 -758 710 -1348 -14 -617 154 -788 773 -788 491 0 664 -119 941 -649 304 -580 277 -899 -89 -1050 -164 -68 -408 -96 -542 -62 -386 96 -836 534 -967 939 -67 205 -182 408 -257 452 -75 44 -136 180 -136 303 0 354 -275 652 -708 769 -468 126 -611 391 -523 966 100 650 291 762 798 468z m-7693 -2061 c232 -115 522 -314 642 -442 120 -128 269 -233 330 -233 154 0 888 -1137 1269 -1966 277 -601 317 -802 336 -1659 11 -536 -12 -975 -52 -975 -68 0 -322 650 -603 1543 -321 1023 -1209 2091 -2296 2764 -571 354 -1200 875 -1200 994 0 149 469 289 800 238 193 -30 541 -148 774 -264z m7603 241 c70 -44 147 -182 171 -306 24 -124 67 -301 96 -393 50 -160 -241 -375 -1513 -1120 -347 -203 -1245 -1351 -1679 -2147 -150 -275 -297 -522 -326 -550 -83 -77 66 787 169 979 50 94 166 419 258 721 301 994 1356 2495 1944 2767 301 139 703 161 880 49z m-16711 -441 c-28 -69 -50 -12 -50 125 0 138 22 194 50 125 28 -69 28 -181 0 -250z m7400 -146 c173 -210 215 -354 169 -579 -74 -366 -136 -409 -716 -489 -254 -35 -556 -155 -679 -271 -333 -312 -590 -215 -590 222 0 196 -60 429 -133 518 -196 236 -108 485 261 733 264 178 434 213 892 183 474 -32 604 -84 796 -317z m-3760 -117 c-58 -109 -106 -314 -106 -455 0 -190 -52 -257 -200 -257 -110 0 -200 62 -200 138 0 235 288 841 423 888 175 61 211 -75 83 -314z m-3406 -1916 c35 -2189 -7 -3896 -96 -3896 -59 0 -79 594 -51 1545 24 850 6 1568 -40 1597 -103 64 -146 1395 -55 1683 120 379 228 -34 242 -929z m3516 336 c65 -80 41 -204 -75 -381 -126 -193 -193 -229 -251 -135 -87 140 -111 126 -264 -158 -86 -160 -114 -108 -173 321 -73 530 4 852 148 619 103 -167 327 -16 255 171 -31 82 -25 200 13 262 40 64 108 -37 159 -234 50 -191 134 -400 188 -465z m3121 43 c-41 -69 -155 -237 -253 -375 -341 -475 -339 -1234 5 -2524 372 -1393 388 -1962 72 -2566 -127 -242 -260 -393 -296 -334 -36 58 -57 598 -46 1200 18 1016 -1 1134 -262 1668 -258 528 -277 645 -238 1466 41 852 57 906 381 1240 323 333 803 502 637 225z m12012 -1306 c83 -318 149 -768 147 -999 -4 -560 -222 -1543 -431 -1943 -119 -229 -149 -440 -104 -725 87 -544 -88 -520 -373 50 l-226 453 228 672 c306 906 373 2004 169 2769 -230 864 -210 951 140 601 192 -192 353 -507 450 -878z m-18090 -2169 c17 -577 50 -1342 75 -1700 25 -357 74 -1392 108 -2300 34 -907 85 -2190 113 -2850 131 -3092 124 -5635 -16 -5906 -167 -321 -181 -762 -28 -915 80 -80 80 -295 -2 -795 -129 -789 -164 -3964 -111 -10108 20 -2378 7 -4355 -30 -4392 -38 -37 -68 62 -68 219 0 206 -31 256 -108 179 -150 -150 -74 -582 101 -582 119 0 138 -203 112 -1150 -18 -632 -29 -1487 -24 -1900 7 -638 -28 -803 -234 -1101 -132 -193 -332 -531 -443 -750 l-201 -399 0 2450 c0 1348 -2 2518 -4 2600 -3 83 16 1433 43 3000 85 5057 88 7558 18 12350 -123 8290 -75 11393 200 13038 77 461 144 1271 148 1800 8 959 9 961 165 612 102 -227 167 -719 186 -1400z m2600 1407 c85 71 145 68 193 -10 78 -126 -322 -597 -507 -597 -66 0 -191 -101 -278 -225 -229 -328 -206 -21 38 517 151 333 229 414 315 328 80 -80 154 -83 239 -13z m-261 -832 c0 -14 -66 -205 -145 -425 -125 -347 -145 -364 -149 -133 -5 325 86 583 207 583 49 0 88 -11 87 -25z m-2000 -450 c0 -151 -45 -342 -98 -425 -71 -110 -97 -36 -98 275 -1 234 43 425 98 425 55 0 99 -124 98 -275z m498 -1750 c2 -41 -68 -75 -157 -75 -90 0 -139 -57 -111 -129 28 -72 16 -398 -26 -725 -63 -497 -78 -379 -89 712 -7 720 20 1342 61 1383 59 59 302 -822 322 -1166z m1308 1100 c10 -322 135 -1007 344 -1875 221 -917 237 -1200 54 -902 -117 189 -479 1720 -562 2377 -45 362 -31 525 47 525 62 0 115 -56 117 -125z m11947 -277 c34 -55 8 -345 -59 -644 -94 -422 -95 -638 -2 -973 102 -367 90 -564 -86 -1331 -198 -865 -464 -1550 -601 -1550 -36 0 -158 -86 -271 -191 -261 -244 -1629 -677 -2282 -724 l-500 -35 5 1023 c5 911 30 1048 225 1256 121 129 220 279 220 334 0 207 695 903 1121 1122 390 201 863 626 1714 1540 271 291 413 339 516 173z m-13256 -2243 c-60 -60 -91 123 -83 500 l12 595 83 -500 c51 -302 46 -537 -12 -595z m-87 -355 c205 0 265 -287 95 -457 -53 -53 -138 -276 -190 -495 l-93 -398 -11 400 c-6 220 -34 580 -61 800 -27 220 -23 344 9 275 33 -69 146 -125 251 -125z m3039 -879 c82 -213 -31 -321 -336 -321 -343 0 -444 90 -298 265 61 74 87 224 58 335 -51 194 -44 195 235 30 158 -93 312 -232 341 -309z m-2682 -1489 c21 -265 85 -714 142 -998 97 -482 202 -1325 222 -1784 18 -409 -145 -2076 -224 -2284 -48 -129 -72 185 -59 784 30 1332 -33 1850 -223 1850 -117 0 -136 -81 -87 -375 34 -206 62 -884 63 -1506 1 -831 32 -1112 117 -1059 131 81 107 -24 -201 -860 l-202 -550 -8 2439 c-7 2185 8 2425 146 2310 209 -173 288 -66 199 271 -41 154 -66 534 -56 845 11 313 -28 594 -87 631 -59 36 -108 7 -109 -65 -1 -95 -28 -90 -98 19 -53 83 -98 361 -98 619 l-2 469 264 -137 c218 -113 270 -218 301 -619z m18895 -405 c-33 -33 -56 26 -52 131 5 117 28 141 60 61 29 -72 26 -159 -8 -192z m-262 -309 c2 -186 41 -219 202 -168 184 58 200 18 200 -496 0 -364 45 -578 128 -610 75 -28 137 -246 149 -525 18 -403 -8 -479 -167 -491 -144 -11 -216 95 -309 454 -154 595 -391 1235 -514 1383 -60 73 -49 261 32 519 130 416 277 381 279 -66z m-2939 132 c301 -137 611 -250 689 -250 206 0 620 -585 891 -1261 156 -389 277 -996 357 -1789 66 -660 162 -1416 212 -1680 51 -264 93 -894 95 -1400 2 -506 51 -1235 108 -1620 165 -1104 194 -2650 50 -2650 -265 0 -361 258 -361 972 0 880 -259 1382 -880 1706 -1360 709 -2945 739 -4343 83 -867 -407 -1969 -679 -2209 -545 -86 48 -297 228 -469 400 -227 227 -298 375 -258 534 31 122 -13 486 -97 811 -116 448 -247 679 -548 964 -520 492 -515 750 27 1338 l422 458 -280 242 c-204 175 -395 239 -698 234 -722 -11 -884 2 -1002 77 -171 109 -1387 114 -1595 7 -276 -143 -199 -896 105 -1030 243 -106 283 -203 125 -301 -55 -34 -100 -187 -100 -340 0 -314 -194 -515 -683 -709 -183 -72 -401 -236 -485 -364 -139 -213 -134 -254 63 -509 117 -153 290 -378 384 -499 137 -178 298 -230 816 -264 500 -33 698 -94 883 -273 261 -250 259 -438 -14 -1142 -176 -453 -215 -1307 -64 -1400 225 -139 80 -415 -336 -643 -376 -205 -504 -226 -925 -155 -269 46 -686 86 -927 91 l-438 7 66 936 c53 752 24 1137 -144 1950 -115 558 -250 1216 -300 1464 -50 248 -90 810 -89 1250 0 440 -67 1115 -151 1500 -84 385 -153 880 -154 1100 -1 220 -76 774 -167 1231 -142 719 -146 851 -23 974 123 123 251 100 940 -167 1161 -449 2941 -722 3817 -585 612 96 1483 60 1475 -61 -3 -50 -105 -142 -227 -202 -324 -162 -344 -202 -222 -431 123 -229 495 -279 682 -92 90 90 167 54 327 -150 263 -334 427 -337 640 -12 120 183 222 237 362 193 271 -86 357 192 155 499 -233 356 -211 395 314 546 553 159 1200 464 1450 684 274 241 1177 516 1706 520 307 2 680 -88 1028 -247z m-14489 -375 c127 -139 230 -434 271 -775 37 -302 110 -685 162 -850 193 -606 359 -3023 222 -3223 -131 -191 -724 -284 -731 -114 -3 75 -50 362 -104 637 -95 486 -357 2561 -459 3631 -39 416 -12 574 125 725 222 246 264 243 514 -31z m18230 -2975 c0 -110 -17 -200 -38 -200 -21 0 -62 90 -91 200 -29 110 -11 200 38 200 50 0 91 -90 91 -200z m-13194 -358 c109 -130 107 -172 -8 -243 -183 -113 -298 -33 -298 207 0 235 129 250 306 36z m994 56 c0 -147 -459 -335 -644 -264 -223 85 -194 299 33 240 104 -27 250 -11 325 37 182 115 286 111 286 -13z m650 -198 c91 -147 -35 -300 -195 -238 -231 88 -273 338 -58 338 105 0 219 -45 253 -100z m658 -60 c116 -139 102 -155 -105 -125 -131 19 -256 91 -279 160 -59 180 227 154 384 -35z m457 6 c81 -211 -54 -325 -169 -143 -122 193 -120 297 7 297 57 0 130 -69 162 -154z m10256 -241 c23 -162 6 -272 -39 -244 -80 50 -120 539 -43 539 21 0 58 -133 82 -295z m-18465 -1132 c132 -607 131 -708 -10 -981 -230 -445 -541 -1950 -546 -2642 -2 -330 -45 -892 -95 -1250 -143 -1018 -227 -5083 -117 -5650 54 -275 60 -538 15 -585 -46 -47 -114 66 -152 250 -38 184 -172 679 -298 1098 -126 420 -207 884 -179 1031 29 147 -7 614 -79 1037 -225 1328 -40 4549 345 6019 379 1446 904 2900 939 2600 16 -137 96 -555 177 -927z m6044 927 c0 -144 -283 -189 -335 -53 -28 73 -27 157 2 186 70 71 333 -34 333 -133z m1300 56 c0 -159 -181 -308 -269 -220 -82 82 46 364 166 364 57 0 103 -65 103 -144z m-750 -56 c-34 -55 -82 -100 -106 -100 -24 0 -44 45 -44 100 0 55 48 100 106 100 58 0 78 -45 44 -100z m57 -513 c108 -202 97 -209 -222 -147 -184 36 -414 67 -510 69 -332 6 -174 179 200 218 206 22 385 47 396 56 12 9 73 -79 136 -196z m11914 -87 c25 -165 7 -300 -38 -300 -46 0 -83 135 -83 300 0 165 17 300 39 300 21 0 58 -135 82 -300z m-13355 -1268 c33 34 152 12 265 -49 199 -106 200 -113 18 -246 -239 -175 -460 -174 -701 2 -162 119 -171 163 -56 301 104 126 166 136 274 47 76 -64 166 -88 200 -55z m-3803 -1962 c13 -341 195 -1392 341 -1970 49 -192 116 -654 150 -1025 62 -671 60 -675 -190 -675 -139 0 -281 -47 -317 -105 -167 -270 -300 62 -466 1161 -99 657 -209 1517 -245 1911 -62 694 -55 725 218 978 329 305 489 218 509 -275z m12037 324 c449 -15 -88 -179 -600 -184 -423 -3 -438 5 -250 148 110 83 290 128 400 98 110 -29 313 -57 450 -62z m3027 -2028 c22 -541 82 -1014 132 -1050 50 -36 177 -167 281 -291 159 -187 165 -225 37 -225 -85 0 -257 83 -382 184 -211 171 -229 270 -247 1356 -24 1405 121 1426 179 26z m632 -1040 c-69 -70 -259 71 -259 192 0 66 57 59 152 -20 84 -70 132 -147 107 -172z m-10270 -85 c248 -124 295 -190 210 -293 -87 -104 -67 -121 95 -78 113 29 206 6 206 -52 0 -149 -412 -261 -491 -132 -44 70 -235 24 -563 -137 -273 -133 -653 -272 -846 -308 -192 -36 -451 -158 -575 -271 -195 -178 -225 -183 -225 -37 0 208 -233 218 -400 17 -174 -209 -291 -187 -231 43 41 156 10 183 -158 139 -114 -30 -284 -25 -377 10 -153 59 -150 78 28 203 109 76 330 153 493 171 162 19 288 79 280 134 -8 55 -147 86 -308 69 -333 -35 -662 236 -405 334 79 31 343 10 586 -46 705 -163 1377 -131 1677 79 246 172 481 287 625 306 32 4 203 -64 379 -151z m6299 84 c-31 -196 21 -331 108 -278 52 33 70 125 39 206 -110 288 224 144 414 -178 105 -179 274 -392 376 -475 175 -143 159 -185 -325 -872 -575 -816 -700 -929 -700 -634 0 280 -138 259 -301 -45 -116 -217 -112 -268 27 -375 109 -84 144 -213 106 -399 -65 -325 -184 -352 -332 -75 -154 287 -356 247 -500 -100 -129 -312 -242 -374 -354 -194 -106 171 45 594 212 594 93 0 125 47 81 118 -49 79 -183 -9 -406 -266 -183 -212 -333 -336 -333 -276 0 160 498 724 639 724 178 0 833 707 955 1032 141 374 135 1138 -9 1227 -80 50 -59 113 69 206 211 155 251 165 234 60z m5572 -1898 c-33 -33 -56 26 -52 131 5 117 28 141 60 61 29 -72 26 -159 -8 -192z m-5460 -1221 c0 -52 -45 -122 -100 -156 -55 -34 -100 8 -100 94 0 86 45 156 100 156 55 0 100 -42 100 -94z m-11348 -781 c158 -377 270 -1018 347 -1975 44 -550 111 -1139 150 -1310 63 -280 36 -329 -293 -523 -258 -153 -373 -179 -397 -91 -19 68 -127 899 -241 1846 l-208 1723 220 250 c262 299 325 311 422 80z m-2987 -1411 c34 -145 107 -320 161 -389 65 -83 64 -125 -5 -125 -58 0 -123 56 -146 125 -33 97 -79 95 -209 -12 -151 -125 -166 -95 -166 322 0 368 30 447 151 401 83 -32 179 -177 214 -322z m2001 -241 c-28 -68 -49 12 -47 177 3 165 25 220 50 123 26 -97 24 -232 -3 -300z m-2209 -1484 c-29 -555 -11 -1089 41 -1185 51 -96 121 -485 154 -864 79 -899 131 -1140 247 -1140 58 0 74 385 42 975 -65 1186 -115 1453 -252 1368 -66 -40 -93 24 -72 171 23 168 87 227 222 203 148 -25 172 7 110 150 -124 291 -221 1133 -131 1133 45 0 82 -16 82 -36 0 -20 48 -279 107 -575 59 -297 104 -974 101 -1505 -3 -575 50 -1123 131 -1353 155 -439 215 -3131 71 -3131 -121 0 -210 258 -210 608 0 161 -45 292 -100 292 -55 0 -100 -246 -100 -546 0 -416 47 -590 199 -731 188 -176 191 -221 61 -905 -188 -985 -514 -1379 -541 -654 -15 387 -75 514 -189 400 -38 -39 -22 -250 37 -469 59 -221 68 -424 20 -453 -48 -30 -87 39 -87 152 0 113 -35 206 -78 206 -42 0 -64 1406 -49 3125 16 1719 28 3721 28 4450 -1 861 36 1325 104 1325 70 0 88 -337 52 -1011z m18225 143 c-43 -223 -220 -228 -263 -7 -21 109 28 175 131 175 100 0 152 -66 132 -168z m-222 -605 c-33 -33 -56 26 -52 131 5 117 28 141 60 61 29 -72 26 -159 -8 -192z m1710 -1477 c39 -556 24 -850 -43 -850 -158 0 -224 372 -223 1250 3 1055 182 784 266 -400z m-2953 727 c-74 -74 -87 -35 -44 131 35 135 81 181 106 106 24 -72 -4 -179 -62 -237z m2349 -2 c-28 -69 -50 -12 -50 125 0 138 22 194 50 125 28 -69 28 -181 0 -250z m-2137 -475 c29 -110 17 -200 -27 -200 -43 0 -102 90 -131 200 -29 110 -17 200 27 200 43 0 102 -90 131 -200z m-3192 -525 c107 -400 77 -533 -74 -326 -133 182 -139 182 -238 -6 -321 -611 -230 -1157 269 -1617 226 -209 349 -470 503 -1070 111 -436 203 -973 203 -1193 0 -414 -189 -1063 -309 -1063 -110 0 -190 285 -127 451 94 245 -248 653 -723 863 -329 146 -496 303 -655 616 -117 231 -337 562 -488 736 -252 288 -268 355 -190 772 86 464 334 1015 758 1687 207 328 285 375 624 375 316 0 398 -41 447 -225z m2289 -1223 c-43 -375 -76 -449 -135 -300 -98 252 -112 794 -23 883 146 145 214 -106 158 -583z m-2166 275 c-33 -33 -56 26 -52 131 5 117 28 141 60 61 29 -72 26 -159 -8 -192z m1840 -127 c0 -55 -45 -100 -100 -100 -55 0 -100 45 -100 100 0 55 45 100 100 100 55 0 100 -45 100 -100z m-12831 -3775 c-25 -96 -46 -17 -46 175 0 193 21 271 46 175 25 -96 25 -254 0 -350z m9930 -1655 c1 -99 -81 -350 -181 -557 -101 -208 -288 -743 -418 -1191 -233 -806 -400 -980 -400 -416 0 162 -45 294 -100 294 -98 0 -134 -153 -127 -550 6 -343 23 -373 177 -314 212 82 191 -115 -150 -1386 l-295 -1100 42 1450 c23 798 49 1878 58 2400 8 532 45 843 83 707 135 -485 288 -332 288 289 0 332 -39 604 -88 604 -48 0 -89 -79 -90 -175 0 -96 -45 -242 -98 -325 -66 -102 -97 166 -98 845 l-2 995 699 -695 c385 -382 700 -776 700 -875z m-12501 305 c0 -69 -39 -185 -86 -258 -64 -102 -97 -86 -137 69 -29 111 -28 228 3 258 98 99 222 60 220 -69z m-426 -1400 c-22 -179 -40 -32 -40 325 0 358 18 504 40 325 23 -179 23 -471 0 -650z"/>
<path d="M5803 36004 c-81 -51 -126 -114 -100 -140 77 -76 597 52 597 148 0 115 -310 110 -497 -8z"/>
<path d="M7509 48917 c-69 -129 -55 -266 47 -461 175 -338 183 -577 26 -734 -152 -152 -41 -266 176 -183 139 54 155 146 97 538 -39 260 -69 597 -67 748 5 315 -135 361 -279 92z"/>
<path d="M8058 48212 c-34 -54 -17 -125 36 -158 53 -33 72 -126 41 -207 -36 -93 5 -147 111 -147 123 0 159 71 136 267 -33 277 -218 417 -324 245z"/>
<path d="M18921 50681 c-71 -71 -27 -246 141 -563 134 -252 221 -517 194 -588 -27 -72 -1 -130 59 -130 72 0 89 192 50 575 -32 316 -59 604 -61 639 -7 123 -280 170 -383 67z"/>
<path d="M18100 50550 c0 -82 45 -150 100 -150 55 0 100 68 100 150 0 83 -45 150 -100 150 -55 0 -100 -67 -100 -150z"/>
<path d="M19689 50575 c-6 -14 -28 -306 -48 -650 -33 -552 50 -782 196 -546 82 132 152 933 95 1082 -45 118 -208 194 -243 114z"/>
<path d="M20339 50442 c34 -87 61 -316 61 -509 0 -454 229 -398 305 75 72 448 17 592 -226 592 -142 0 -183 -46 -140 -158z"/>
<path d="M21300 50350 c0 -82 -11 -180 -25 -217 -14 -36 31 -85 100 -108 78 -26 125 54 125 217 0 142 -45 258 -100 258 -55 0 -100 -67 -100 -150z"/>
<path d="M11215 50568 c-152 -183 -29 -825 197 -1029 104 -94 188 -298 188 -454 0 -181 52 -285 143 -285 210 0 279 371 170 913 -7 35 -103 87 -213 116 -152 40 -200 136 -200 406 0 392 -120 532 -285 333z"/>
<path d="M13700 50500 c0 -129 51 -200 125 -175 69 23 125 102 125 175 0 73 -56 152 -125 175 -74 25 -125 -46 -125 -175z"/>
<path d="M10467 50333 c-132 -131 -67 -639 90 -699 192 -74 413 111 252 211 -60 37 -109 177 -109 311 0 238 -98 312 -233 177z"/>
<path d="M11900 50250 c0 -82 68 -150 150 -150 83 0 150 68 150 150 0 83 -67 150 -150 150 -82 0 -150 -67 -150 -150z"/>
<path d="M3621 26985 c16 -569 67 -1024 112 -1010 131 39 104 1963 -28 2007 -79 26 -104 -268 -84 -997z"/>
<path d="M4100 26750 c0 -412 37 -750 82 -750 46 0 92 338 102 750 12 455 -20 750 -82 750 -60 0 -102 -308 -102 -750z"/>
<path d="M3800 10933 c0 -811 108 -771 168 63 27 383 4 604 -63 604 -63 0 -105 -267 -105 -667z"/>
<path d="M3800 8114 c0 -109 -27 -269 -61 -356 -33 -87 -16 -158 39 -158 124 0 219 590 105 660 -46 29 -83 -37 -83 -146z"/>
<path d="M20743 32589 c-80 -129 128 -285 382 -287 204 -2 225 108 55 278 -150 150 -347 154 -437 9z"/>
<path d="M19338 32455 c-72 -187 33 -355 221 -355 204 0 301 301 131 409 -199 125 -288 112 -352 -54z"/>
<path d="M17838 31955 c-83 -215 42 -355 318 -355 261 0 321 183 124 380 -163 163 -374 151 -442 -25z"/>
<path d="M9670 31637 c-112 -112 131 -437 328 -437 232 0 323 128 242 341 -60 156 -445 221 -570 96z"/>
<path d="M11434 31343 c-33 -86 -13 -204 46 -263 156 -156 420 -19 420 217 0 246 -375 284 -466 46z"/>
<path d="M12936 31349 c-69 -179 129 -449 329 -449 232 0 288 314 82 464 -239 175 -340 172 -411 -15z"/>
<path d="M16743 31189 c-85 -137 140 -289 323 -219 74 28 134 114 134 191 0 165 -358 187 -457 28z"/>
<path d="M14825 30875 c23 -69 124 -125 225 -125 101 0 202 56 225 125 26 79 -56 125 -225 125 -169 0 -251 -46 -225 -125z"/>
<path d="M21300 30712 c0 -208 231 -447 334 -344 36 36 66 170 66 299 0 166 -57 233 -200 233 -129 0 -200 -67 -200 -188z"/>
<path d="M19667 30733 c-118 -117 -73 -223 144 -339 278 -149 480 25 293 252 -135 162 -325 200 -437 87z"/>
<path d="M9700 30262 c0 -76 69 -195 154 -266 191 -158 381 -3 289 237 -77 201 -443 225 -443 29z"/>
<path d="M18147 30296 c-79 -129 130 -396 309 -396 201 0 276 191 140 354 -141 171 -357 190 -449 42z"/>
<path d="M16800 29777 c0 -176 201 -377 377 -377 85 0 125 86 105 225 -36 251 -482 392 -482 152z"/>
<path d="M15350 29500 c-90 -145 34 -300 239 -300 249 0 329 108 198 266 -131 158 -350 175 -437 34z"/>
<path d="M20125 29130 c-159 -59 -162 -353 -5 -510 145 -145 445 -157 529 -21 83 133 -367 589 -524 531z"/>
<path d="M21336 29050 c-80 -209 29 -450 205 -450 201 0 285 161 209 401 -75 234 -331 264 -414 49z"/>
<path d="M18626 28686 c-148 -148 15 -486 234 -486 107 0 144 80 122 267 -36 302 -183 392 -356 219z"/>
<path d="M9800 28411 c0 -213 207 -330 387 -219 172 106 26 408 -198 408 -119 0 -189 -70 -189 -189z"/>
<path d="M17040 28261 c-92 -240 28 -461 251 -461 358 0 352 199 -15 486 -149 117 -183 113 -236 -25z"/>
<path d="M15419 27825 c18 -96 134 -189 257 -207 246 -35 290 76 104 262 -179 179 -400 146 -361 -55z"/>
<path d="M20575 27889 c-96 -55 -175 -142 -175 -194 0 -121 206 -120 399 2 218 138 4 321 -224 192z"/>
<path d="M20425 27285 c-155 -155 23 -485 262 -485 276 0 317 101 146 361 -176 269 -243 289 -408 124z"/>
<path d="M21734 27044 c-84 -217 252 -498 408 -342 71 71 71 156 -1 270 -152 240 -331 271 -407 72z"/>
<path d="M18700 26912 c0 -241 253 -451 452 -375 139 53 137 86 -10 311 -194 296 -442 332 -442 64z"/>
<path d="M17100 26412 c0 -111 92 -213 223 -247 292 -76 448 79 281 281 -182 219 -504 197 -504 -34z"/>
<path d="M15700 26047 c0 -161 266 -314 369 -212 71 71 -155 365 -281 365 -49 0 -88 -69 -88 -153z"/>
<path d="M10133 25442 c-33 -87 12 -230 100 -318 146 -146 165 -146 224 8 78 203 -11 468 -157 468 -58 0 -134 -71 -167 -158z"/>
<path d="M11370 25337 c-82 -82 108 -437 234 -437 53 0 96 113 96 250 0 233 -181 336 -330 187z"/>
<path d="M10400 23911 c0 -211 259 -358 355 -202 68 109 -125 391 -267 391 -49 0 -88 -85 -88 -189z"/>
<path d="M11600 23550 c0 -82 45 -150 100 -150 55 0 100 68 100 150 0 83 -45 150 -100 150 -55 0 -100 -67 -100 -150z"/>
<path d="M11250 21600 c34 -55 129 -100 212 -100 82 0 122 45 88 100 -34 55 -129 100 -212 100 -82 0 -122 -45 -88 -100z"/>
<path d="M19600 21644 c0 -145 43 -229 100 -194 55 34 100 149 100 256 0 107 -45 194 -100 194 -55 0 -100 -115 -100 -256z"/>
<path d="M19300 20950 c0 -82 18 -150 39 -150 22 0 66 68 97 150 32 83 14 150 -39 150 -53 0 -97 -67 -97 -150z"/>
<path d="M5100 11656 c0 -79 45 -172 100 -206 55 -34 100 31 100 144 0 113 -45 206 -100 206 -55 0 -100 -65 -100 -144z"/>
<path d="M4921 9407 c18 -593 71 -955 143 -979 83 -27 100 208 63 842 -71 1217 -243 1331 -206 137z"/>
<path d="M17064 6575 c-35 -179 -92 -455 -127 -613 -49 -214 -31 -277 66 -244 72 24 140 131 150 238 11 107 53 363 94 569 46 229 37 375 -23 375 -54 0 -126 -146 -160 -325z"/>
<path d="M0 51063 c0 -475 137 -619 250 -263 35 110 122 200 193 200 168 0 24 -669 -279 -1289 -158 -325 -182 -451 -89 -483 69 -25 126 -165 126 -311 2 -368 105 -717 211 -717 115 0 113 565 -5 974 -59 208 -57 345 7 385 165 102 187 7 196 -837 9 -859 -103 -1131 -432 -1045 -161 42 -178 -41 -178 -868 0 -883 8 -917 250 -1009 167 -64 249 -170 247 -323 -3 -204 -14 -209 -106 -50 -142 243 -321 106 -247 -188 34 -135 15 -239 -42 -239 -56 0 -102 -70 -102 -156 0 -86 39 -132 87 -102 48 30 119 -178 156 -462 38 -284 133 -565 212 -623 154 -115 154 -104 105 -2257 -44 -1978 -39 -1929 -194 -1870 -188 72 -407 -84 -318 -227 43 -69 174 -94 313 -59 212 53 239 26 239 -242 0 -359 -61 -373 -369 -85 l-231 218 0 -310 c0 -212 79 -373 251 -508 291 -229 247 -561 -63 -463 -169 53 -188 2 -188 -497 0 -548 5 -557 291 -557 403 0 953 800 859 1250 -80 383 -169 5896 -137 8450 56 4357 49 4603 -126 4761 -89 81 -325 174 -525 206 l-362 59 0 -463z m366 -4688 c-28 -69 -50 -12 -50 125 0 138 22 194 50 125 28 -69 28 -181 0 -250z m200 -2400 c-28 -69 -50 -12 -50 125 0 138 22 194 50 125 28 -69 28 -181 0 -250z"/>
<path d="M16 48200 c0 -137 22 -194 50 -125 28 69 28 181 0 250 -28 69 -50 13 -50 -125z"/>
<path d="M22800 47050 c0 -82 45 -150 100 -150 55 0 100 68 100 150 0 83 -45 150 -100 150 -55 0 -100 -67 -100 -150z"/>
<path d="M100 42292 c0 -443 34 -597 125 -567 119 40 184 769 94 1050 -103 322 -219 66 -219 -483z"/>
<path d="M24834 41543 c-33 -86 -10 -207 53 -270 84 -84 113 -44 113 157 0 301 -75 352 -166 113z"/>
<path d="M0 40750 c0 -376 19 -665 42 -642 73 74 97 1187 26 1257 -37 38 -68 -239 -68 -615z"/>
<path d="M12454 26907 c-84 -137 28 -176 721 -255 646 -74 781 2 412 233 -178 111 -228 111 -297 -1 -68 -109 -122 -110 -286 -9 -238 148 -470 161 -550 32z"/>
<path d="M13300 26100 c0 -55 70 -100 156 -100 86 0 128 45 94 100 -34 55 -104 100 -156 100 -52 0 -94 -45 -94 -100z"/>
<path d="M24887 25853 c-62 -62 -1 -4073 63 -4136 28 -28 50 902 50 2066 0 1165 -15 2117 -33 2117 -19 0 -55 -21 -80 -47z"/>
<path d="M13155 25609 c-104 -169 44 -350 176 -218 79 79 79 139 0 218 -78 78 -127 78 -176 0z"/>
<path d="M14300 25571 c0 -145 195 -371 320 -371 157 0 76 254 -120 377 -162 101 -200 100 -200 -6z"/>
<path d="M13844 25390 c-79 -128 317 -562 419 -460 89 88 -127 570 -255 570 -53 0 -127 -50 -164 -110z"/>
<path d="M13541 24705 c17 -342 76 -561 159 -588 88 -30 111 10 69 119 -41 106 -11 164 84 164 81 0 147 45 147 100 0 55 -45 100 -100 100 -55 0 -100 59 -100 131 0 72 -64 218 -143 325 -130 176 -141 142 -116 -351z"/>
<path d="M18525 24788 c-509 -147 -402 -311 150 -231 544 79 569 91 479 236 -77 124 -184 124 -629 -5z"/>
<path d="M19724 24775 c23 -69 148 -141 279 -160 207 -30 221 -14 105 125 -157 189 -443 215 -384 35z"/>
<path d="M14850 24500 c34 -55 107 -100 162 -100 55 0 72 45 38 100 -34 55 -107 100 -162 100 -55 0 -72 -45 -38 -100z"/>
<path d="M15500 24261 c0 -105 87 -161 250 -161 138 0 250 45 250 100 0 55 -41 100 -92 100 -50 0 -163 27 -250 61 -104 40 -158 5 -158 -100z"/>
<path d="M13000 24147 c0 -161 266 -314 369 -212 71 71 -155 365 -281 365 -49 0 -88 -69 -88 -153z"/>
<path d="M18350 24100 c-34 -55 31 -100 144 -100 113 0 206 45 206 100 0 55 -65 100 -144 100 -79 0 -172 -45 -206 -100z"/>
<path d="M20100 24100 c0 -55 68 -100 150 -100 83 0 150 45 150 100 0 55 -67 100 -150 100 -82 0 -150 -45 -150 -100z"/>
<path d="M20724 23975 c23 -69 170 -140 328 -159 252 -29 271 -14 155 125 -156 189 -542 216 -483 34z"/>
<path d="M15225 23920 c-354 -36 -436 -248 -156 -405 128 -71 215 -35 361 151 226 287 220 296 -205 254z"/>
<path d="M19250 23900 c-34 -55 8 -100 94 -100 86 0 156 45 156 100 0 55 -42 100 -94 100 -52 0 -122 -45 -156 -100z"/>
<path d="M21543 23848 c205 -156 320 -131 211 45 -36 59 -142 106 -235 104 -148 -3 -145 -21 24 -149z"/>
<path d="M17071 23769 c-242 -68 -368 -158 -350 -251 47 -235 402 -399 679 -314 220 67 205 77 -125 86 -206 6 -375 52 -375 103 0 98 133 148 676 258 179 36 300 107 269 157 -69 111 -272 101 -774 -39z"/>
<path d="M6187 23675 c-7 -14 -63 -542 -125 -1175 -126 -1291 -107 -1700 78 -1700 86 0 125 167 123 525 -1 289 36 941 82 1450 62 679 54 925 -30 925 -63 0 -121 -11 -128 -25z"/>
<path d="M18858 23468 c-232 -170 -167 -509 105 -548 155 -22 224 33 256 203 87 451 -45 576 -361 345z"/>
<path d="M20162 23529 c-31 -31 -33 -96 -3 -143 70 -114 341 -111 341 3 0 111 -259 218 -338 140z"/>
<path d="M14200 23400 c0 -55 45 -100 100 -100 55 0 100 45 100 100 0 55 -45 100 -100 100 -55 0 -100 -45 -100 -100z"/>
<path d="M17946 23393 c-36 -58 -48 -124 -27 -146 69 -68 481 72 481 165 0 125 -375 110 -454 -19z"/>
<path d="M21100 23334 c-82 -27 -213 -70 -290 -95 -207 -66 267 -539 541 -539 304 0 347 76 231 409 -100 286 -183 325 -482 225z"/>
<path d="M14368 23125 c-25 -41 -76 -221 -114 -400 -91 -422 120 -441 277 -25 62 165 148 300 191 300 43 0 78 45 78 100 0 116 -367 137 -432 25z"/>
<path d="M15100 23100 c0 -55 68 -100 150 -100 82 0 150 45 150 100 0 55 -68 100 -150 100 -82 0 -150 -45 -150 -100z"/>
<path d="M15800 23000 c-86 -160 -88 -252 -9 -331 79 -79 109 -64 109 53 0 89 56 182 125 207 95 35 97 76 9 169 -90 97 -141 75 -234 -98z"/>
<path d="M17974 22831 c-97 -25 -153 -84 -125 -129 64 -104 451 -10 451 110 0 92 -37 94 -326 19z"/>
<path d="M16869 22735 c-131 -130 -68 -235 139 -235 117 0 191 52 169 119 -49 146 -216 209 -308 116z"/>
<path d="M20700 22656 c0 -24 45 -72 100 -106 55 -34 100 -14 100 44 0 58 -45 106 -100 106 -55 0 -100 -20 -100 -44z"/>
<path d="M14700 22407 c0 -127 371 -237 510 -151 78 49 71 94 -24 155 -182 115 -486 112 -486 -4z"/>
<path d="M21107 22059 c-71 -86 -79 -164 -21 -200 144 -89 414 43 414 202 0 180 -242 179 -393 -2z"/>
<path d="M14300 21964 c0 -91 82 -121 250 -88 138 26 250 87 250 136 0 48 -112 88 -250 88 -144 0 -250 -58 -250 -136z"/>
<path d="M22000 21700 c0 -55 45 -100 100 -100 55 0 100 45 100 100 0 55 -45 100 -100 100 -55 0 -100 -45 -100 -100z"/>
<path d="M15200 21619 c0 -54 71 -125 158 -158 98 -38 143 -15 119 58 -50 149 -277 231 -277 100z"/>
<path d="M14400 21461 c0 -142 288 -306 379 -216 63 64 -175 355 -291 355 -49 0 -88 -63 -88 -139z"/>
<path d="M22000 21196 c0 -165 390 -540 474 -456 42 42 -3 134 -99 204 -96 71 -175 179 -175 242 0 63 -45 114 -100 114 -55 0 -100 -47 -100 -104z"/>
<path d="M17039 21058 c-79 -207 157 -402 306 -253 62 62 37 156 -71 263 -156 157 -171 156 -235 -10z"/>
<path d="M13700 21011 c0 -125 282 -221 346 -117 29 47 -18 112 -105 146 -209 80 -241 76 -241 -29z"/>
<path d="M20557 20611 c-30 -48 8 -141 85 -205 156 -129 316 20 208 194 -77 124 -220 129 -293 11z"/>
<path d="M13200 20500 c0 -55 65 -100 144 -100 79 0 172 45 206 100 34 55 -31 100 -144 100 -113 0 -206 -45 -206 -100z"/>
<path d="M12210 20192 c-131 -53 -212 -123 -179 -156 88 -89 569 52 569 166 0 118 -74 116 -390 -10z"/>
<path d="M22200 20100 c0 -110 45 -200 100 -200 55 0 100 90 100 200 0 110 -45 200 -100 200 -55 0 -100 -90 -100 -200z"/>
<path d="M16450 19800 c-84 -135 29 -300 206 -300 79 0 144 90 144 200 0 207 -241 276 -350 100z"/>
<path d="M6344 19570 c-96 -250 0 -1302 123 -1343 83 -27 114 170 107 673 -10 678 -113 977 -230 670z"/>
<path d="M13772 19639 c-36 -37 -43 -106 -13 -153 74 -120 541 -108 541 14 0 55 -41 100 -92 100 -50 0 -154 24 -230 53 -76 29 -169 23 -206 -14z"/>
<path d="M15016 19545 c41 -209 344 -418 451 -312 106 107 -103 410 -312 451 -120 24 -163 -19 -139 -139z"/>
<path d="M20700 19557 c0 -92 85 -157 208 -157 244 0 210 234 -41 282 -99 19 -167 -32 -167 -125z"/>
<path d="M19600 18250 c0 -82 68 -150 150 -150 83 0 150 68 150 150 0 83 -67 150 -150 150 -82 0 -150 -67 -150 -150z"/>
<path d="M16645 18191 c-103 -166 128 -358 266 -220 116 116 43 329 -111 329 -49 0 -118 -49 -155 -109z"/>
<path d="M10825 18128 c-177 -63 -155 -233 50 -389 242 -183 325 -171 325 49 0 223 -199 403 -375 340z"/>
<path d="M15118 17975 c21 -145 112 -236 257 -257 252 -36 271 9 121 289 -147 274 -418 252 -378 -32z"/>
<path d="M18100 18008 c0 -123 65 -208 157 -208 93 0 144 68 125 167 -48 251 -282 285 -282 41z"/>
<path d="M13500 17877 c0 -153 194 -377 327 -377 48 0 73 101 55 224 -35 242 -382 381 -382 153z"/>
<path d="M12244 17790 c-37 -60 7 -184 98 -275 143 -143 177 -145 256 -18 56 91 50 195 -16 275 -130 157 -248 163 -338 18z"/>
<path d="M20325 17129 c-253 -48 -311 -329 -68 -329 212 0 543 185 543 304 0 98 -77 102 -475 25z"/>
<path d="M22450 16861 c-922 -404 -1936 -1246 -2256 -1872 -240 -471 -531 -563 -1055 -332 -710 313 -2466 144 -3373 -325 -214 -110 -524 -142 -1154 -116 -744 30 -916 72 -1260 309 -439 303 -952 370 -952 125 0 -82 88 -150 197 -150 108 0 409 -135 669 -300 434 -275 546 -300 1360 -300 506 0 981 52 1106 121 291 161 1496 469 2118 541 376 43 631 5 1029 -152 290 -116 631 -210 756 -210 275 0 605 292 825 728 90 177 281 450 426 607 306 331 1169 907 1522 1015 286 88 492 240 492 362 0 117 -91 106 -450 -51z"/>
<path d="M18600 16756 c0 -189 143 -272 341 -196 254 98 189 340 -91 340 -151 0 -250 -57 -250 -144z"/>
<path d="M10947 16596 c-88 -143 132 -298 319 -226 121 46 194 230 92 230 -23 0 -108 26 -190 57 -81 31 -181 4 -221 -61z"/>
<path d="M16923 16482 c74 -222 361 -338 498 -201 103 103 99 145 -22 222 -211 133 -523 120 -476 -21z"/>
<path d="M12300 16347 c0 -203 282 -305 431 -156 90 90 82 139 -32 212 -223 141 -399 116 -399 -56z"/>
<path d="M14043 16389 c-38 -61 -7 -151 69 -199 287 -181 564 -52 375 176 -135 163 -350 174 -444 23z"/>
<path d="M15600 16297 c0 -238 265 -372 422 -215 79 79 74 152 -18 264 -182 218 -404 191 -404 -49z"/>
<path d="M12471 15538 c-78 -79 29 -338 140 -338 114 0 117 271 3 341 -47 30 -112 28 -143 -3z"/>
<path d="M18500 15350 c68 -82 141 -150 162 -150 21 0 38 68 38 150 0 82 -73 150 -162 150 -133 0 -140 -27 -38 -150z"/>
<path d="M19400 15300 c0 -55 45 -100 100 -100 55 0 100 45 100 100 0 55 -45 100 -100 100 -55 0 -100 -45 -100 -100z"/>
<path d="M16317 15134 c20 -101 103 -184 184 -184 215 0 184 291 -35 333 -134 25 -174 -15 -149 -149z"/>
<path d="M14700 14757 c0 -92 85 -157 208 -157 244 0 210 234 -41 282 -99 19 -167 -32 -167 -125z"/>
<path d="M9871 13625 c-63 -113 283 -2290 472 -2975 90 -330 228 -870 305 -1200 77 -330 278 -1117 446 -1750 266 -996 500 -2076 901 -4150 53 -275 127 -1017 164 -1650 37 -632 81 -1217 97 -1300 16 -82 32 -251 36 -375 5 -129 71 -225 156 -225 115 0 138 95 101 425 -279 2514 -332 3871 -204 5200 75 780 67 875 -80 875 -138 0 -165 -117 -165 -706 0 -841 -146 -842 -241 -1 -63 559 -200 1118 -976 4007 -346 1290 -401 1543 -637 2925 -150 877 -253 1123 -375 900z"/>
<path d="M11832 12614 c32 -157 88 -517 126 -800 47 -358 113 -514 216 -514 123 0 137 102 80 575 -101 845 -159 1025 -327 1025 -114 0 -138 -72 -95 -286z"/>
<path d="M11249 12375 c-94 -261 100 -1125 252 -1125 170 0 171 13 61 725 -77 498 -215 674 -313 400z"/>
<path d="M11048 10669 c-82 -542 -32 -992 115 -1041 167 -54 252 412 177 976 -81 610 -206 638 -292 65z"/>
<path d="M11786 10982 c-22 -73 -25 -506 -5 -963 24 -579 70 -818 152 -791 80 28 108 305 90 879 -26 772 -139 1192 -237 875z"/>
<path d="M12400 10150 c0 -511 32 -650 150 -650 118 0 150 139 150 650 0 511 -32 650 -150 650 -118 0 -150 -139 -150 -650z"/>
<path d="M22269 9535 c-138 -137 -66 -349 106 -316 96 19 175 97 175 174 0 158 -176 247 -281 142z"/>
<path d="M11300 9100 c0 -55 42 -100 94 -100 52 0 122 45 156 100 34 55 -8 100 -94 100 -86 0 -156 -45 -156 -100z"/>
<path d="M12036 8325 c34 -206 62 -634 63 -950 1 -446 35 -575 152 -575 128 0 145 147 109 925 -50 1092 -23 975 -223 975 -133 0 -152 -70 -101 -375z"/>
<path d="M12675 8541 c-63 -63 4 -1299 84 -1533 120 -354 215 111 167 817 -48 718 -101 867 -251 716z"/>
<path d="M22300 7695 c0 -800 -175 -1374 -480 -1574 -228 -149 -231 -165 -62 -290 99 -72 262 -131 361 -131 114 0 181 -74 181 -200 0 -272 359 -266 431 7 30 115 147 232 262 262 258 68 260 167 8 510 -120 164 -249 603 -328 1114 -159 1036 -373 1209 -373 302z"/>
<path d="M12866 5825 c-26 -41 -76 -300 -112 -575 -36 -275 -86 -601 -111 -725 -31 -147 1 -225 91 -225 90 0 159 166 197 475 32 261 89 621 126 800 62 297 -62 459 -191 250z"/>
<path d="M7200 5255 c0 -300 -52 -660 -116 -801 -137 -301 -52 -435 164 -256 176 147 224 1602 52 1602 -55 0 -100 -245 -100 -545z"/>
<path d="M3962 4985 c-36 -393 -43 -738 -14 -766 115 -115 181 108 229 777 67 940 -127 930 -215 -11z"/>
<path d="M19019 3373 c-120 -145 -40 -973 94 -973 48 0 87 248 87 550 0 586 -16 622 -181 423z"/>
<path d="M12618 2425 c26 -786 61 -975 182 -975 166 0 173 168 56 1275 -111 1039 -276 831 -238 -300z"/>
<path d="M7238 2754 c-31 -81 -64 -451 -72 -822 -13 -565 12 -681 155 -710 149 -31 164 28 114 448 -32 266 -11 651 46 857 85 307 77 373 -42 373 -80 0 -171 -66 -201 -146z"/>
<path d="M7863 2475 c-113 -421 -71 -1075 68 -1075 95 0 132 180 132 650 0 655 -88 842 -200 425z"/>
<path d="M3770 925 c49 -839 81 -1008 171 -917 73 75 -67 1792 -146 1792 -43 0 -54 -394 -25 -875z"/>
<path d="M18644 1330 c36 -94 92 -365 125 -603 55 -404 179 -613 294 -498 27 28 18 325 -20 660 -58 519 -99 611 -267 611 -145 0 -180 -45 -132 -170z"/>
<path d="M7975 375 c-59 -162 16 -375 133 -375 51 0 92 113 92 250 0 261 -145 341 -225 125z"/>
<path d="M21327 40 c33 -34 120 -37 192 -8 80 32 56 55 -61 60 -105 4 -164 -19 -131 -52z"/>
</g>
</svg>