<svg xmlns="http://www.w3.org/2000/svg" version="1.0" width="250" height="525" viewBox="0 0 250.000000 525.000000" preserveAspectRatio="xMidYMid meet">
<metadata>
Created by potrace 1.10, written by Peter Selinger 2001-2011
</metadata>
<g transform="translate(0.000000,525.000000) scale(0.010000,-0.010000)" fill="#555555" stroke="none">
<path d="M4210 50369 c3 -1172 -24 -2291 -61 -2487 -37 -201 2 -718 91 -1193 178 -952 101 -2125 -173 -2655 -238 -462 -317 -1514 -159 -2148 73 -295 117 -581 98 -636 -29 -84 -57 -1406 -116 -5550 -5 -302 47 -1202 114 -1999 90 -1074 93 -1605 12 -2050 -179 -982 -228 -2055 -127 -2801 363 -2669 362 -2664 134 -3510 -570 -2106 -590 -2608 -176 -4391 93 -402 139 -1172 136 -2255 -6 -1466 -32 -1718 -245 -2325 -279 -797 -309 -1763 -88 -2769 189 -858 186 -1490 -10 -1958 -227 -543 -162 -2632 98 -3164 140 -287 166 -486 112 -875 -77 -560 -151 -638 -635 -671 -184 -12 -441 -92 -571 -177 -305 -199 -312 -198 -380 77 -52 204 -153 356 -567 844 -219 258 -1246 -167 -1510 -626 -143 -249 -174 -578 -180 -1925 -5 -1071 29 -1625 98 -1625 57 0 294 94 525 208 231 115 549 231 707 258 343 60 1037 407 1307 655 176 162 184 242 95 890 -96 695 -93 714 139 820 174 79 287 76 428 -12 105 -65 281 -119 390 -119 218 0 896 345 1054 537 336 408 1823 609 2171 294 122 -110 435 -188 908 -225 l721 -56 -13 -475 c-9 -301 -119 -687 -300 -1050 -261 -524 -286 -664 -277 -1575 6 -646 77 -1248 201 -1701 204 -747 204 -1068 2 -990 -69 26 -183 -60 -254 -193 -71 -132 -331 -341 -578 -465 -544 -271 -1113 -219 -1498 139 -473 439 -1072 672 -1533 598 -248 -39 -440 -131 -473 -227 -72 -204 -435 -611 -545 -611 -46 0 -78 641 -71 1425 11 1280 -129 2826 -269 2966 -29 29 -98 -13 -154 -94 -63 -93 -72 -477 -23 -1047 42 -495 68 -1192 57 -1550 -10 -357 6 -931 37 -1273 l57 -624 592 16 c579 16 592 23 592 299 0 161 54 281 125 279 197 -5 475 -254 475 -425 0 -239 2986 -251 3349 -13 230 150 251 150 251 3 0 -89 62 -162 137 -162 214 0 271 1397 92 2250 -80 385 -154 1105 -163 1600 -14 766 19 972 221 1382 143 290 336 520 484 576 267 101 262 360 -6 313 -127 -23 -165 50 -165 319 0 191 49 379 110 416 208 129 -161 1685 -714 3010 -226 541 -547 1389 -714 1884 -166 495 -361 1035 -432 1200 -225 524 -280 685 -463 1350 -283 1031 -550 1937 -618 2100 -35 83 -200 628 -366 1211 -241 844 -305 1266 -311 2056 -5 547 22 1154 58 1348 36 194 15 542 -47 773 -221 822 -167 1501 179 2233 175 369 318 824 318 1011 0 187 49 583 110 879 60 297 149 832 197 1189 218 1624 310 2361 310 2500 0 83 40 398 90 700 49 302 136 977 192 1500 146 1338 369 2281 761 3210 186 441 356 900 378 1021 22 120 109 512 194 869 84 358 176 1168 203 1800 27 633 115 1465 195 1850 81 385 199 984 264 1330 64 347 202 775 308 950 106 176 263 478 350 670 87 193 264 463 394 600 261 278 495 906 661 1774 180 942 222 1526 110 1526 -132 0 -265 -443 -619 -2064 -66 -300 -380 -963 -753 -1590 -781 -1313 -1003 -2095 -1322 -4646 l-82 -650 -379 400 c-493 519 -902 1118 -1039 1520 -96 282 -86 328 84 382 106 34 220 182 253 330 131 573 481 1141 948 1534 268 226 470 439 450 473 -21 33 3 309 53 611 178 1079 204 1258 278 1893 48 410 29 898 -52 1350 -155 865 -168 2168 -28 2707 57 220 139 558 181 750 43 193 220 687 394 1098 174 412 316 805 316 875 0 217 -300 139 -392 -101 -47 -126 -178 -429 -289 -675 -111 -246 -250 -604 -308 -797 -305 -1012 -294 -994 -303 -525 -5 248 -56 425 -123 425 -83 0 -96 -315 -45 -1165 116 -1943 163 -2462 271 -3010 109 -556 68 -1138 -178 -2525 -136 -766 -189 -887 -537 -1224 -212 -205 -413 -329 -447 -275 -33 55 -27 154 15 222 71 115 117 1514 132 4027 4 605 -39 1257 -95 1449 -55 192 -101 752 -101 1243 0 492 -52 1038 -116 1214 -111 308 -80 584 182 1619 42 164 14 225 -104 225 -92 0 -162 -82 -162 -188 0 -103 -69 -352 -153 -553 -197 -472 -116 -2336 171 -3909 153 -842 187 -1334 143 -2100 -32 -550 -87 -1695 -122 -2544 -68 -1610 -174 -2064 -532 -2282 -287 -174 -260 -487 109 -1224 l316 -632 -91 -989 c-64 -693 -54 -1263 32 -1909 120 -903 79 -2272 -76 -2572 -44 -84 -109 -600 -146 -1147 -37 -548 -83 -1022 -103 -1054 -20 -32 -44 -326 -53 -653 -9 -327 -54 -751 -101 -944 -46 -192 -111 -710 -145 -1150 -187 -2441 -376 -3623 -691 -4311 -142 -310 -258 -637 -258 -727 0 -91 -101 -209 -225 -263 -268 -118 -280 -436 -86 -2287 83 -796 94 -1341 31 -1650 -51 -254 -100 -642 -108 -862 -17 -481 -191 -1050 -321 -1050 -56 0 -87 688 -77 1675 12 1213 -33 1959 -161 2706 -102 593 -153 1231 -120 1500 80 650 241 1375 353 1589 275 525 330 997 226 1933 -57 521 -149 1149 -204 1397 -161 732 -132 2921 46 3445 100 296 132 618 93 929 -120 958 -106 2310 25 2490 71 96 130 132 133 80 32 -649 128 -1184 300 -1680 143 -414 208 -853 209 -1408 1 -931 -277 -3200 -427 -3480 -69 -130 -67 -530 6 -1258 60 -587 88 -1270 62 -1518 -25 -248 -75 -742 -111 -1100 -46 -448 -34 -619 37 -550 178 171 319 1596 321 3232 1 863 46 1861 100 2218 380 2520 406 2812 303 3371 -58 310 -175 671 -261 802 -86 132 -183 551 -215 933 -32 381 -114 740 -184 798 -98 82 -52 281 213 925 389 944 452 1839 186 2624 -108 318 -159 867 -165 1779 l-9 1318 424 877 c507 1046 698 1782 702 2710 3 574 -53 814 -340 1450 -379 840 -656 2000 -656 2745 0 264 -49 573 -109 685 -90 168 -64 250 152 476 429 447 607 1307 270 1307 -143 0 -199 -96 -241 -406 -52 -386 -437 -1092 -597 -1093 -41 -1 -75 337 -75 749 0 595 -31 750 -148 750 -126 0 -147 -314 -142 -2131z m670 -1192 c80 -722 201 -1197 474 -1850 201 -482 399 -1124 439 -1425 90 -680 -77 -1535 -415 -2119 -504 -871 -690 -1557 -687 -2535 1 -503 31 -990 66 -1081 97 -251 -107 -201 -233 58 -187 384 -379 1981 -339 2825 27 580 377 1643 599 1825 136 111 124 273 -110 1500 -153 805 -243 1561 -216 1825 26 248 62 788 81 1200 49 1077 49 1082 151 900 45 -82 131 -588 190 -1123z m-230 -9852 c277 -438 300 -545 298 -1375 -2 -806 -38 -981 -346 -1675 -189 -426 -385 -775 -436 -775 -54 0 -63 291 -23 700 38 385 68 1352 66 2150 -1 797 30 1450 69 1450 40 0 207 -214 372 -475z m2732 -975 c108 -137 269 -250 357 -250 203 0 207 -287 16 -1119 -80 -347 -167 -755 -193 -906 -27 -151 -160 -511 -297 -800 l-248 -525 -9 350 c-4 193 -59 715 -121 1160 -136 975 -40 2340 164 2340 74 0 223 -112 331 -250z m-3136 -3257 c-86 -139 -146 -113 -146 63 0 86 46 128 102 93 56 -35 75 -105 44 -156z m956 -17118 c60 -234 132 -515 159 -625 84 -339 663 -2188 752 -2400 46 -110 132 -402 191 -650 220 -922 292 -1166 535 -1811 246 -653 248 -684 180 -2780 l-69 -2119 -769 -22 c-891 -26 -878 -40 -932 1032 -18 358 -108 1055 -200 1550 -168 900 -168 900 86 1900 140 550 242 1113 226 1251 -16 138 -197 625 -403 1082 -364 805 -372 849 -266 1399 358 1846 356 1827 219 1911 -90 56 -111 181 -64 395 95 431 225 390 355 -113z m-705 -1757 c-262 -883 -228 -1302 169 -2099 353 -707 367 -1531 46 -2570 l-217 -702 202 -984 c112 -542 203 -1314 203 -1716 0 -729 -1 -731 -389 -1039 -215 -169 -423 -308 -463 -308 -125 0 52 835 215 1015 140 154 135 197 -47 452 -407 574 -460 2175 -118 3583 142 585 117 1289 -80 2250 -180 874 -140 1918 81 2139 55 55 101 202 101 325 0 124 101 396 225 605 l225 381 34 -295 c18 -162 -66 -629 -187 -1037z m3366 -6287 c462 -1058 637 -1676 637 -2249 l0 -482 -345 0 c-190 0 -462 53 -604 118 l-259 118 13 1548 c13 1457 54 1890 168 1776 27 -27 203 -400 390 -829z m-6391 -2724 c329 -353 820 -1402 885 -1889 58 -438 41 -496 -187 -646 -341 -223 -431 -87 -494 738 -70 915 -243 1249 -628 1210 -179 -18 -400 -147 -555 -325 -142 -162 -283 -295 -315 -295 -32 0 18 255 111 567 147 496 212 583 515 693 464 167 463 168 668 -53z m-247 -1507 c75 -302 133 -723 130 -934 -4 -346 -40 -397 -355 -512 -193 -70 -429 -160 -525 -201 -156 -66 -175 -5 -175 571 0 736 136 1225 433 1552 254 281 322 216 492 -476z"/>
<path d="M7840 51926 c62 -524 190 -830 301 -718 24 24 19 325 -12 668 -42 463 -96 624 -207 624 -123 0 -138 -101 -82 -574z"/>
<path d="M18048 52375 c-180 -488 -346 -1174 -347 -1431 -1 -168 -61 -387 -133 -487 -121 -165 -158 -168 -425 -32 -161 82 -365 121 -454 87 -224 -86 -797 -616 -1050 -970 -305 -428 -395 -1447 -195 -2217 86 -332 156 -892 156 -1244 0 -353 47 -688 103 -744 201 -201 442 -1970 387 -2837 -12 -192 -17 -507 -11 -700 46 -1539 44 -1558 -221 -1947 -142 -210 -258 -450 -258 -534 0 -84 -135 -392 -300 -684 -165 -293 -300 -580 -300 -638 0 -58 -180 -350 -401 -648 -264 -358 -450 -523 -548 -486 -140 54 -147 204 -27 537 30 83 110 420 178 750 68 330 211 870 318 1200 161 496 195 893 197 2288 3 1295 -27 1707 -129 1769 -73 45 -156 58 -185 30 -29 -29 -77 -916 -106 -1970 -48 -1718 -81 -2000 -317 -2717 -144 -440 -336 -1139 -425 -1553 -142 -662 -283 -938 -1164 -2286 -551 -843 -977 -1559 -946 -1590 62 -62 313 186 583 576 158 227 172 231 172 45 0 -111 -40 -245 -90 -297 -49 -52 -166 -590 -258 -1195 -93 -605 -255 -1422 -361 -1816 -105 -394 -190 -777 -190 -850 1 -74 -175 -696 -390 -1384 -215 -687 -458 -1498 -539 -1800 -545 -2020 -872 -2794 -872 -2061 0 274 -380 1472 -509 1606 -57 60 -136 50 -213 -27 -96 -96 -76 -265 96 -795 119 -370 334 -1190 477 -1823 143 -632 301 -1306 352 -1496 64 -244 57 -367 -26 -418 -89 -55 -90 -131 -5 -304 189 -388 233 -1082 68 -1082 -194 0 -175 -170 32 -286 198 -111 204 -598 24 -2019 -152 -1206 -61 -1966 509 -4245 357 -1429 407 -1731 453 -2750 21 -467 79 -1075 128 -1350 170 -957 236 -3303 105 -3741 -107 -356 -100 -433 50 -599 212 -234 443 -975 475 -1523 19 -315 74 -426 244 -491 124 -47 269 -232 333 -423 61 -187 195 -430 297 -540 339 -363 752 -1080 724 -1258 -30 -198 109 -223 393 -71 252 135 246 417 -16 654 -520 471 -1691 2442 -1691 2847 0 167 -203 732 -418 1163 -112 226 -55 532 100 532 87 0 349 -545 469 -975 87 -313 287 -289 208 25 -93 370 114 308 359 -108 l211 -358 1786 33 c1070 20 1798 -5 1817 -62 17 -53 301 -7 642 105 l610 200 47 -246 c54 -281 -96 -3648 -191 -4289 l-63 -425 662 0 c374 0 661 43 661 100 0 55 113 100 250 100 138 0 250 -35 250 -77 0 -43 709 -90 1575 -106 l1575 -29 10 681 c5 375 104 1356 219 2181 116 825 240 1829 276 2232 57 623 91 722 231 667 185 -71 1815 -549 1875 -549 140 0 2 398 -155 448 -177 56 -190 133 -143 882 28 451 45 1529 36 2395 -12 1352 8 1584 143 1636 203 78 222 739 21 739 -279 0 -376 1789 -146 2677 94 365 85 455 -61 616 -94 104 -280 216 -413 250 -134 33 -243 105 -243 160 0 54 -113 196 -250 316 -304 264 -307 312 -37 677 181 245 202 367 144 836 -79 627 -466 1157 -1057 1446 -342 168 -351 188 -379 833 l-30 661 530 -6 c533 -7 855 129 1354 570 173 153 225 307 225 667 0 650 -167 1063 -589 1455 -437 407 -973 456 -1497 136 -414 -252 -489 -192 -326 261 181 500 676 970 1312 1246 958 415 1600 830 1600 1035 0 146 -30 164 -134 77 -249 -207 -1436 -790 -1744 -858 -308 -68 -1077 -796 -1319 -1250 -81 -150 -102 -405 -61 -717 l64 -484 -278 258 c-246 228 -276 322 -258 811 15 421 74 612 250 800 391 419 1212 911 1784 1069 1090 302 1509 480 1455 622 -29 75 -13 136 36 136 48 0 111 -56 139 -125 28 -69 53 100 57 375 9 712 -66 783 -859 829 -375 22 -727 94 -782 160 -55 65 -263 196 -463 289 -348 163 -687 545 -687 774 0 60 304 251 675 426 514 242 848 327 1400 356 534 28 725 74 725 177 0 80 -102 139 -239 139 -170 0 -257 70 -300 242 -90 359 -548 857 -795 865 -209 7 -209 10 -16 87 110 44 459 57 775 29 487 -43 575 -26 575 113 0 183 66 172 -1600 253 -534 26 -541 31 -266 153 310 137 1157 147 1585 20 251 -75 268 -61 259 229 -9 332 -105 370 -525 210 -178 -68 -315 -64 -437 12 -139 87 -284 56 -684 -147 -434 -220 -559 -242 -868 -157 -245 68 -424 66 -556 -5 -347 -186 -1808 -98 -1808 109 0 48 287 87 637 87 351 0 835 74 1075 165 241 90 655 155 921 144 561 -23 1344 211 1647 494 116 108 304 197 416 197 112 0 204 51 204 113 0 72 -115 90 -325 51 l-325 -62 326 274 c594 500 347 558 -326 78 -747 -533 -1223 -754 -1627 -754 -156 0 -326 -37 -378 -82 -214 -184 -1174 -337 -1701 -272 -587 74 -662 160 -335 389 154 108 381 133 848 95 556 -45 694 -19 1066 199 460 270 878 671 698 671 -61 0 -316 -138 -567 -308 -331 -223 -558 -302 -830 -290 -206 10 -419 8 -474 -3 -593 -120 -1120 239 -1216 830 -49 303 -26 378 128 427 103 32 265 99 359 149 93 50 363 122 599 160 779 124 1427 496 1856 1065 218 288 431 636 475 772 112 353 1158 2022 1225 1955 57 -57 -45 -438 -404 -1504 -357 -1062 -465 -1244 -1149 -1943 -884 -903 -1525 -1218 -2063 -1014 -320 122 -471 -68 -206 -261 282 -207 663 -163 1279 148 353 178 579 243 609 175 54 -122 161 -1 834 942 496 696 1048 1899 1168 2548 41 219 160 576 265 794 105 218 189 578 187 802 l-4 406 -147 -340 c-82 -187 -168 -320 -193 -295 -70 70 171 785 265 785 46 0 83 1825 83 4056 0 2678 -34 4035 -100 3994 -59 -36 -100 -618 -100 -1406 0 -1104 -26 -1344 -144 -1344 -79 0 -172 45 -206 100 -34 55 -163 100 -286 100 -123 0 -402 116 -619 257 l-395 257 4 2068 c3 1137 59 2406 125 2818 66 413 143 1211 170 1775 49 1025 49 1025 -188 1025 l-236 0 -8 -1352 c-9 -1391 -126 -1989 -266 -1354 -195 889 -733 1753 -1443 2319 -390 310 -574 393 -818 369 l-315 -32 288 -279 c158 -153 502 -463 764 -689 523 -451 648 -743 495 -1159 -55 -150 -273 -992 -485 -1872 -364 -1511 -408 -1625 -811 -2078 -376 -423 -425 -535 -422 -951 3 -260 70 -652 149 -872 89 -247 145 -786 145 -1413 2 -978 -10 -1033 -345 -1600 -522 -881 -571 -938 -499 -587 33 165 196 576 362 914 311 634 346 1086 84 1086 -99 0 -160 -118 -179 -350 -15 -192 -169 -633 -342 -979 -298 -598 -313 -684 -299 -1721 14 -1051 5 -1102 -258 -1416 -707 -844 -915 -1031 -1027 -919 -173 173 312 1438 761 1986 376 458 379 472 263 909 -86 318 -90 571 -17 898 132 591 760 1834 966 1913 135 52 138 78 20 170 -132 103 -162 529 -188 2683 -4 283 -64 413 -246 533 -133 87 -270 287 -305 446 -88 401 -384 747 -771 900 -180 71 -429 220 -553 331 -282 252 -304 722 -36 792 274 72 1110 1178 1114 1474 2 138 91 498 197 800 261 742 261 1100 0 1100 -161 0 -200 -67 -200 -345 0 -189 -117 -718 -259 -1175 -274 -875 -711 -1480 -1070 -1480 -265 0 -748 -363 -908 -683 -231 -459 -263 -889 -162 -2132 78 -954 142 -1264 307 -1497 237 -332 471 -1677 309 -1778 -197 -122 -245 -970 -75 -1328 131 -278 142 -438 59 -875 -55 -294 -101 -687 -101 -875 0 -397 -362 -1167 -507 -1078 -60 37 -69 245 -24 529 64 406 93 1555 53 2167 -7 110 3 538 21 950 19 413 -11 953 -65 1200 -55 248 -96 606 -91 796 5 190 -67 460 -160 600 -115 173 -161 424 -146 784 12 292 -48 770 -134 1064 -218 750 -171 1246 124 1320 264 67 268 77 114 322 -176 283 -21 675 361 911 270 168 389 191 543 109 109 -58 283 -106 387 -106 255 0 624 409 624 692 0 126 63 483 140 794 275 1112 275 1114 109 1114 -86 0 -176 -56 -201 -125z m4207 -2408 c32 -128 44 -432 27 -675 -26 -358 -66 -436 -208 -412 -108 18 -213 -60 -269 -200 -51 -127 -95 -165 -99 -86 -6 134 177 1200 254 1481 56 206 232 141 295 -108z m459 -1829 c19 -426 -14 -768 -81 -850 -101 -125 -421 -1131 -573 -1805 -33 -150 -14 -282 45 -301 57 -19 101 -124 98 -233 -3 -110 -21 -833 -40 -1607 -39 -1553 -238 -2428 -572 -2515 -101 -27 -210 -128 -240 -225 -31 -96 -152 -260 -269 -364 l-213 -188 73 350 c40 193 90 440 112 550 21 110 157 628 300 1150 227 824 261 1139 257 2373 -5 1405 -1 1430 290 1900 299 485 599 1638 599 2304 0 658 182 201 214 -539z m-5714 -27 c0 -301 74 -452 365 -743 201 -200 496 -421 656 -491 255 -112 283 -165 232 -441 -33 -179 10 -515 100 -779 133 -393 142 -630 54 -1536 -57 -589 -133 -1172 -167 -1296 -99 -352 126 -265 258 100 64 179 136 595 160 925 24 330 95 766 157 968 91 300 82 444 -51 777 -90 225 -164 608 -164 851 0 423 -26 463 -606 909 -333 256 -588 484 -566 507 116 116 1008 -411 1157 -682 91 -167 261 -450 379 -630 158 -241 240 -590 310 -1323 84 -890 71 -1091 -127 -1886 -121 -490 -295 -1048 -385 -1241 -91 -192 -143 -271 -117 -175 31 112 -7 175 -105 175 -111 0 -135 59 -86 212 48 153 29 199 -69 167 -74 -24 -172 -221 -216 -437 -45 -215 -129 -527 -188 -692 -58 -165 -170 -570 -249 -900 -232 -979 -271 -1070 -524 -1237 l-242 -160 76 399 c42 219 92 592 112 828 45 536 139 840 299 970 503 406 883 3070 532 3727 -163 305 -343 224 -302 -137 81 -718 21 -2645 -89 -2851 -112 -210 -123 -212 -222 -35 -75 133 -71 196 12 224 140 47 147 742 20 1954 -68 644 -162 999 -347 1315 -217 371 -259 582 -292 1468 -42 1127 11 1712 148 1627 48 -30 87 -224 87 -431z m4858 -36 c39 -124 69 -247 65 -275 -3 -27 36 -101 87 -162 52 -62 65 -197 31 -300 -151 -454 -381 -904 -565 -1107 -180 -198 -200 -373 -214 -1900 -9 -1010 -61 -1781 -129 -1931 -63 -137 -171 -509 -240 -827 -103 -471 -157 -566 -298 -522 -125 40 -229 -54 -383 -351 -248 -476 -273 -800 -62 -800 99 0 150 99 150 289 0 159 89 395 197 525 251 301 250 240 -16 -952 -208 -936 -237 -996 -539 -1122 -292 -122 -942 -858 -942 -1067 0 -89 -123 -223 -414 -451 -143 -111 -161 -92 -149 156 15 299 303 818 529 952 230 137 428 629 496 1236 36 321 151 753 254 959 103 206 167 375 142 375 -63 0 137 363 488 884 282 419 292 473 287 1600 -4 880 -46 1239 -169 1466 -89 165 -163 387 -163 493 -1 336 232 854 411 911 219 69 537 676 627 1196 87 501 260 950 366 950 45 0 114 -101 153 -225z m870 -2897 c1 -456 -34 -1173 -77 -1594 -79 -791 -8 -1383 148 -1223 48 49 100 461 115 916 31 947 93 1124 327 930 86 -71 134 -167 106 -213 -29 -45 -54 -748 -56 -1562 -3 -874 -61 -1726 -142 -2081 -156 -689 -205 -1430 -109 -1656 68 -159 -624 -1444 -724 -1344 -29 29 1 106 66 171 145 145 156 478 16 478 -57 0 -142 -104 -191 -230 -102 -271 -407 -657 -944 -1196 -292 -294 -443 -376 -611 -333 -143 35 -426 -54 -787 -250 -617 -334 -913 -347 -919 -39 -2 109 -41 259 -87 333 -169 274 134 582 701 708 297 67 540 158 540 203 0 44 179 255 397 467 348 339 950 1342 1464 2437 90 193 202 572 248 843 47 272 159 564 250 650 152 145 159 119 99 -343 -36 -275 -92 -714 -125 -975 -32 -261 -98 -475 -146 -475 -48 0 -88 -79 -88 -175 -2 -200 -241 -932 -449 -1375 -156 -333 -1288 -1380 -1688 -1563 -140 -64 -233 -153 -205 -198 156 -253 2136 1261 2146 1641 2 66 69 207 150 314 81 107 147 295 147 418 0 123 68 291 150 374 83 82 150 194 150 249 0 54 79 238 175 409 139 247 149 326 46 391 -105 67 -99 229 31 860 189 913 135 1230 -148 883 -161 -197 -187 -203 -222 -50 -44 191 -9 2287 58 3372 51 836 44 799 124 719 35 -35 64 -436 64 -891z m1506 -1496 c70 -111 53 -258 -57 -495 -86 -185 -188 -584 -227 -887 -39 -302 -131 -775 -204 -1050 l-133 -500 -16 600 c-46 1716 -51 2411 -19 2515 48 155 528 21 656 -183z m405 -1591 c-11 -1063 -21 -1114 -250 -1229 -189 -95 -236 -193 -223 -466 22 -497 -257 -1781 -478 -2192 -103 -193 -188 -390 -188 -438 0 -48 -135 -287 -300 -532 -165 -244 -300 -477 -300 -516 0 -217 -699 -865 -1210 -1123 -325 -164 -590 -337 -590 -385 0 -48 -113 -161 -251 -251 -200 -132 -294 -142 -466 -50 -361 193 -1153 207 -1337 23 -141 -141 -178 -143 -307 -14 -200 200 -71 482 220 482 130 0 519 107 864 239 811 309 1304 461 1493 461 83 0 441 287 795 637 842 834 1599 2231 1644 3033 17 298 75 595 129 661 93 112 382 1389 491 2169 38 277 180 600 262 600 7 0 8 -499 2 -1109z m-7441 584 c-1 -247 -24 -289 -98 -175 -127 197 -127 500 0 500 55 0 99 -146 98 -325z m1316 -1589 c-52 -135 -70 -457 -41 -715 49 -434 21 -511 -377 -1038 -236 -313 -465 -729 -508 -926 -44 -196 -109 -481 -145 -633 -88 -364 112 -607 432 -527 215 54 237 32 208 -218 -27 -225 10 -285 192 -311 245 -35 293 -210 108 -395 -89 -89 -80 -130 35 -175 179 -68 131 -482 -75 -654 -171 -142 -80 -695 143 -873 89 -70 208 -295 264 -500 74 -270 189 -412 424 -521 306 -143 322 -177 324 -717 2 -552 -6 -569 -305 -634 -168 -38 -427 -131 -575 -208 -147 -77 -344 -140 -437 -140 -93 -1 -197 -46 -231 -101 -34 -55 -163 -100 -286 -100 -123 0 -274 -50 -336 -112 -245 -245 -1833 -88 -2497 247 -264 134 -683 326 -931 427 -247 100 -472 208 -500 240 -27 32 -190 156 -362 275 -530 370 -512 952 51 1648 226 279 281 213 353 -425 54 -473 104 -600 239 -600 94 0 227 -90 296 -200 139 -223 423 -271 423 -72 0 70 -72 230 -160 356 -133 190 -139 276 -38 522 127 306 398 405 398 144 0 -187 139 -194 289 -13 198 239 -16 613 -351 613 -239 0 -288 42 -288 246 0 204 65 258 387 325 212 45 527 144 700 221 172 76 515 200 761 274 296 89 489 218 571 382 67 137 200 305 295 374 213 156 114 267 -243 273 -253 5 -269 31 -240 395 18 221 -19 422 -84 462 -85 52 -69 163 56 410 249 492 449 688 700 688 122 0 264 56 316 125 155 208 396 886 577 1625 94 385 220 758 279 829 163 198 297 -9 189 -293z m4995 -795 c-64 -159 -98 -185 -103 -74 -8 221 121 551 165 419 19 -57 -9 -212 -62 -345z m1191 59 c0 -192 -40 -350 -89 -350 -113 0 -237 477 -158 605 126 204 247 79 247 -255z m-2936 21 c-31 -126 -305 -682 -608 -1234 -552 -1007 -970 -1537 -1212 -1537 -71 0 -144 -71 -162 -157 -18 -88 -260 -235 -547 -332 l-515 -173 315 389 c652 807 929 1081 1264 1249 270 136 362 257 423 557 75 368 833 1467 1013 1467 47 0 61 -103 29 -229z m1593 -1148 c-107 -106 -129 27 -69 427 l60 400 32 -385 c19 -212 8 -411 -23 -442z m1285 -238 c-88 -171 -227 -541 -309 -823 -82 -282 -272 -669 -421 -862 -360 -464 -835 -1251 -1088 -1803 -479 -1045 -1249 -1474 -2986 -1664 -562 -61 -616 -23 -739 523 -57 250 -39 346 71 388 257 98 586 60 786 -91 299 -226 574 -182 1054 170 242 177 607 413 810 525 441 241 1280 1020 1280 1189 0 66 157 363 348 660 191 297 465 903 608 1346 142 444 310 939 372 1101 l112 294 131 -321 c113 -276 108 -367 -29 -632z m-8520 142 c33 -290 -3 -412 -164 -547 -335 -279 -490 -234 -325 95 77 151 169 399 205 550 93 389 232 341 284 -98z m78 -883 c0 -24 -45 -44 -100 -44 -55 0 -100 48 -100 106 0 58 45 78 100 44 55 -34 100 -82 100 -106z m-750 -144 c-34 -55 -82 -100 -106 -100 -24 0 -44 45 -44 100 0 55 48 100 106 100 58 0 78 -45 44 -100z m511 -475 c157 -207 181 -525 39 -525 -55 0 -100 90 -100 200 0 296 -118 239 -425 -205 -320 -463 -334 -552 -107 -679 92 -52 174 -185 182 -297 16 -214 -241 -362 -1143 -661 -498 -165 -607 -137 -607 156 0 296 -228 173 -317 -171 -42 -161 -250 -491 -463 -733 -323 -368 -398 -412 -453 -267 -45 116 45 312 271 590 186 229 439 620 562 867 123 248 269 506 323 574 158 196 279 43 177 -224 -58 -152 -56 -265 4 -302 53 -33 140 55 194 196 53 141 143 256 200 256 56 0 102 72 102 160 0 186 741 1059 984 1158 281 115 438 89 577 -93z m285 -1141 c240 -110 246 -127 89 -300 -210 -233 -582 -252 -496 -26 34 87 61 222 61 300 0 172 22 173 346 26z m-2346 -2104 c0 -432 -32 -588 -105 -515 -57 57 -115 258 -127 445 -13 187 -54 390 -93 451 -82 131 4 239 192 239 96 0 133 -170 133 -620z m-1500 -1663 c0 -46 380 -282 845 -525 776 -406 850 -471 905 -797 34 -195 -31 -982 -144 -1750 -113 -767 -205 -1444 -205 -1504 -1 -93 -409 -341 -562 -341 -106 0 251 2309 381 2471 177 219 119 961 -109 1408 -348 680 -570 326 -260 -415 153 -368 108 -833 -148 -1506 -56 -147 -127 -682 -158 -1188 -30 -506 -128 -1202 -216 -1547 -129 -506 -137 -701 -44 -1011 193 -645 147 -905 -221 -1249 -673 -628 -681 -666 -454 -2014 131 -773 214 -1794 235 -2874 35 -1840 112 -2111 631 -2239 326 -80 742 -329 856 -513 46 -72 164 -106 263 -74 161 51 176 4 139 -421 -107 -1225 -445 -3200 -851 -4978 -50 -220 -135 -843 -187 -1385 -53 -542 -116 -1017 -141 -1056 -134 -217 -455 -2140 -455 -2725 0 -376 -30 -684 -67 -684 -37 0 -148 73 -246 162 -153 138 -172 280 -128 975 56 892 356 2678 652 3885 204 834 250 1978 90 2276 -54 101 -229 314 -388 473 -345 346 -427 815 -395 2279 30 1381 -55 1746 -524 2266 -484 536 -544 836 -440 2175 94 1207 94 2564 0 5190 -55 1520 -39 1920 92 2350 564 1852 937 3418 1010 4244 35 399 105 725 154 725 50 0 90 -37 90 -83z m7341 -807 c203 -224 68 -359 -274 -273 -136 34 -389 -40 -660 -194 -242 -138 -477 -213 -523 -167 -115 115 191 523 397 528 93 1 282 67 419 146 334 191 438 185 641 -40z m4359 40 c-68 -82 -198 -149 -287 -147 -137 3 -132 27 31 150 253 191 416 189 256 -3z m-9181 -539 c476 -271 1732 -362 2295 -166 240 84 465 153 499 154 99 2 172 -372 91 -466 -40 -45 -175 -341 -299 -656 -232 -586 -914 -1388 -1739 -2044 -480 -382 -1065 -445 -1440 -156 l-223 173 155 1050 c85 577 192 1215 236 1417 45 202 59 483 32 625 -59 308 -33 313 393 69z m4589 -111 c138 0 192 -70 192 -248 0 -451 366 -581 1524 -539 l1023 37 -37 -700 c-68 -1292 -68 -1300 87 -1300 179 0 385 639 395 1232 7 397 26 426 226 362 512 -162 1178 -758 1181 -1055 1 -34 -258 -141 -574 -238 -1186 -364 -1683 -780 -1778 -1486 -38 -283 -149 -695 -246 -915 -97 -220 -208 -512 -247 -650 -392 -1408 -1258 -3500 -1449 -3500 -43 0 -103 -281 -135 -625 -38 -418 -160 -822 -367 -1220 -170 -327 -287 -652 -260 -722 58 -153 -211 -1803 -341 -2083 -51 -110 -231 -627 -399 -1150 -169 -522 -481 -1355 -695 -1850 -599 -1390 -755 -1807 -1155 -3100 -204 -660 -519 -1672 -700 -2250 -181 -577 -362 -1275 -401 -1549 -70 -487 -75 -494 -237 -287 -91 117 -217 296 -280 399 -84 138 -145 158 -231 76 -87 -84 39 -424 512 -1381 521 -1054 602 -1285 481 -1362 -220 -139 -1222 -109 -1421 43 -186 140 -491 898 -467 1157 50 547 -20 1117 -134 1079 -174 -58 -181 -1207 -12 -1775 74 -247 135 -484 136 -525 2 -131 -346 -81 -580 83 -208 146 -224 229 -214 1125 5 532 51 1128 102 1325 163 635 409 2119 489 2942 42 440 189 1295 327 1900 274 1209 593 3001 835 4700 86 605 227 1393 312 1750 243 1015 841 2598 1097 2903 128 152 234 382 236 511 2 130 70 325 152 433 240 316 378 945 398 1803 28 1263 204 2759 381 3250 90 248 164 555 165 683 0 128 109 511 242 850 132 339 298 784 368 988 84 242 223 409 402 484 151 62 354 201 450 308 97 107 239 170 316 141 77 -30 226 -54 331 -54z m-2720 -3427 c-125 -398 -240 -1038 -256 -1423 -90 -2260 -284 -3550 -535 -3550 -38 0 -184 90 -324 200 -140 110 -305 200 -367 200 -204 0 -209 242 -21 901 156 542 179 887 141 2075 -37 1151 -20 1424 89 1425 74 1 428 267 785 591 431 392 661 542 683 447 18 -78 -70 -468 -195 -866z m-2112 -380 c305 -106 307 -110 378 -1065 126 -1681 -92 -2971 -529 -3138 -376 -143 -499 -108 -566 160 -41 164 13 397 157 675 206 399 293 1317 148 1553 -29 46 -297 207 -598 359 -597 303 -802 683 -464 864 96 52 203 204 237 340 59 234 181 289 771 344 88 8 298 -33 466 -92z m8249 -661 c213 -33 375 -115 375 -189 0 -119 206 -169 1089 -267 131 -14 303 -124 382 -243 136 -207 122 -227 -292 -410 -239 -106 -665 -269 -945 -362 -623 -207 -1769 -877 -2209 -1293 -314 -297 -419 -249 -237 108 200 392 321 714 563 1495 140 452 299 848 352 881 53 33 97 152 97 266 0 166 43 193 225 138 124 -36 394 -93 600 -124z m-12220 -1857 c39 -2036 19 -3819 -53 -4946 -91 -1402 -40 -1604 561 -2242 420 -447 403 -353 442 -2387 33 -1742 19 -1667 401 -2049 550 -550 647 -1184 364 -2374 -121 -510 -263 -1219 -315 -1577 -52 -357 -120 -762 -150 -900 -31 -137 -85 -623 -120 -1078 -62 -796 -148 -1043 -285 -821 -36 57 -81 598 -102 1202 -20 604 -67 1147 -104 1208 -38 60 -109 678 -159 1374 -84 1184 -513 3770 -831 5015 -182 712 -209 1381 -111 2812 94 1369 -85 4110 -311 4775 -83 244 -128 560 -101 703 82 431 706 2110 785 2110 40 0 80 -371 89 -825z m2991 406 c223 -239 253 -448 114 -801 -50 -127 -147 -489 -216 -805 -115 -525 -110 -592 63 -783 149 -165 273 -199 591 -163 607 69 1204 -103 1359 -391 116 -218 96 -312 -186 -866 -333 -655 -761 -1882 -862 -2472 -33 -192 -88 -462 -123 -600 -35 -137 -84 -468 -110 -734 l-47 -484 -264 254 c-146 139 -479 348 -740 463 -261 116 -476 220 -478 231 -1 11 -28 718 -59 1570 -30 853 -97 1798 -149 2100 -51 303 -142 928 -203 1390 l-111 839 354 311 c393 344 571 642 571 953 0 270 239 264 496 -12z m7204 -2341 c0 -461 245 -1140 411 -1140 184 0 74 -158 -261 -375 -191 -124 -460 -225 -599 -225 -224 0 -251 41 -249 375 1 206 87 560 189 787 103 226 218 552 256 725 102 466 253 379 253 -147z m2788 -952 c381 -381 412 -452 412 -955 0 -455 -42 -581 -258 -782 -358 -331 -787 -410 -1105 -202 -202 132 -241 220 -191 421 35 140 129 319 209 399 199 200 183 305 -87 561 -370 350 -413 584 -148 789 380 292 711 227 1168 -231z m-1552 -772 c153 -170 154 -219 8 -625 -87 -243 -201 -868 -254 -1391 -115 -1128 -856 -4847 -1033 -5186 l-125 -237 -214 273 c-233 296 -298 298 -1387 37 -399 -95 -579 -97 -775 -8 -316 144 -326 385 -51 1122 837 2242 1176 3471 1199 4349 4 165 107 503 228 750 206 422 247 452 664 482 311 22 552 119 800 321 411 337 705 372 940 113z m564 -3652 c414 -103 513 -216 571 -652 43 -319 13 -464 -128 -620 -128 -142 -176 -325 -156 -600 24 -335 -20 -443 -283 -688 -421 -394 -584 -1016 -642 -2455 -27 -661 -81 -1444 -120 -1741 -65 -484 -86 -520 -207 -354 -74 101 -135 267 -135 369 0 123 -148 247 -443 374 -406 174 -457 238 -622 771 -99 320 -218 609 -264 642 -46 33 -45 213 4 400 77 295 131 341 408 346 175 3 366 53 424 111 110 110 490 1814 754 3377 177 1050 206 1115 424 926 91 -79 278 -171 415 -206z m904 -2647 l225 -183 -291 -207 c-402 -286 -672 -321 -718 -93 -35 171 326 666 486 666 40 0 173 -82 298 -183z m530 -592 c24 -41 74 -1447 110 -3125 36 -1677 90 -3191 120 -3364 30 -177 7 -342 -55 -380 -64 -40 -109 -400 -109 -874 l0 -807 -325 63 c-179 34 -370 135 -425 223 -407 655 -698 960 -1052 1101 -352 141 -398 198 -398 491 0 182 91 542 202 801 146 341 172 506 95 599 -75 91 -73 431 6 1163 92 847 193 2650 196 3521 1 139 53 173 207 132 241 -63 803 150 989 375 137 165 363 207 439 81z m-6153 -488 c109 -195 1053 -316 1243 -159 70 56 239 118 376 137 246 34 251 20 323 -843 40 -483 115 -957 167 -1053 204 -381 25 -1324 -439 -2316 -462 -989 -670 -1760 -573 -2128 45 -174 22 -196 -137 -131 -413 170 -527 164 -984 -51 -558 -263 -700 -543 -612 -1214 57 -443 44 -479 -224 -618 -157 -82 -412 -162 -567 -179 -230 -26 -316 29 -470 300 -103 182 -165 368 -137 414 28 45 10 300 -39 566 -67 356 -54 591 49 886 77 221 141 550 142 731 2 545 762 3561 1088 4321 83 193 157 373 164 400 98 377 279 967 315 1025 76 125 219 85 315 -88z m2926 -3037 c135 0 593 -766 593 -992 0 -108 45 -224 100 -258 55 -34 100 -208 100 -386 0 -178 44 -368 97 -421 63 -63 45 -270 -50 -586 -81 -269 -147 -632 -147 -806 0 -175 -23 -341 -52 -370 -94 -93 -1040 168 -1206 334 -142 142 -146 232 -35 748 70 323 230 797 357 1054 127 256 261 655 298 885 60 374 47 414 -123 382 -125 -24 -200 -137 -222 -335 -19 -164 -165 -599 -325 -965 -160 -366 -347 -947 -416 -1292 -164 -815 -376 -910 -376 -168 0 688 225 1457 658 2254 188 346 342 722 342 836 0 148 45 190 158 147 87 -34 199 -61 249 -61z m-1368 -4061 c336 -21 919 -84 1295 -141 376 -56 895 -74 1154 -40 662 88 747 -39 615 -922 -245 -1631 -418 -2871 -570 -4086 -90 -715 -193 -1334 -230 -1377 -36 -42 -200 -9 -363 72 -201 100 -721 162 -1594 189 -1137 36 -1343 17 -1682 -154 l-386 -196 65 933 c67 948 99 1447 207 3233 35 580 16 1210 -46 1500 -249 1171 -256 1093 112 1208 258 81 388 72 573 -38 131 -78 513 -160 850 -181z m-2039 -1535 c0 -54 -90 -145 -200 -204 -220 -118 -269 -9 -80 180 145 145 280 156 280 24z"/>
<path d="M22510 38485 c-137 -393 -138 -385 28 -385 129 0 257 284 261 575 2 242 -181 121 -289 -190z"/>
<path d="M16925 35433 c-124 -87 -225 -240 -225 -342 0 -101 -87 -230 -192 -287 -434 -232 -581 -1046 -249 -1377 70 -70 234 -127 364 -127 140 0 377 -143 577 -350 194 -201 438 -350 570 -350 279 0 300 155 40 295 -219 117 -510 893 -510 1361 0 176 -67 376 -150 444 -216 179 -189 284 161 610 302 282 304 290 75 285 -130 -3 -337 -76 -461 -162z m75 -1446 c0 -41 -45 -103 -101 -138 -114 -70 -305 352 -222 491 53 89 323 -207 323 -353z"/>
<path d="M10444 17535 c39 -157 132 -420 205 -585 344 -772 401 -1133 399 -2525 -1 -784 30 -1425 69 -1425 131 0 230 941 210 2000 -23 1246 -428 2719 -766 2784 -160 31 -177 -6 -117 -249z"/>
<path d="M24908 36600 c-17 -82 -38 -195 -46 -250 -71 -479 -1217 -2804 -1585 -3214 -112 -126 -151 -240 -94 -276 118 -72 541 410 847 967 121 220 266 473 321 562 631 1006 660 1084 623 1728 -19 348 -49 566 -66 483z"/>
<path d="M24577 34033 c-387 -629 -1010 -1261 -1432 -1454 -216 -98 -339 -279 -190 -279 111 0 705 331 1029 574 425 318 1038 1271 997 1550 -25 170 -107 91 -404 -391z"/>
<path d="M24658 31803 c-160 -29 -310 -109 -333 -177 -30 -90 50 -107 292 -61 384 73 417 92 368 207 -19 46 -166 60 -327 31z"/>
<path d="M23728 27937 c-317 -157 -495 -447 -384 -627 31 -51 248 -124 482 -163 233 -39 593 -156 799 -261 363 -184 375 -184 375 -5 0 208 -259 355 -850 483 -220 47 -379 131 -353 186 26 55 101 88 168 72 66 -15 148 19 183 75 35 57 241 103 458 103 284 0 394 42 394 150 0 207 -844 198 -1272 -13z"/>
<path d="M11647 2596 c-39 -63 -23 -212 34 -331 244 -498 418 -953 601 -1565 127 -426 252 -662 362 -684 287 -57 128 604 -501 2082 -240 565 -372 698 -496 498z"/>
<path d="M10216 2076 c-64 -64 -120 -253 -125 -421 l-9 -305 -93 320 c-51 176 -133 346 -184 377 -225 139 -206 -235 55 -1106 l283 -941 356 0 c354 0 357 3 354 435 -2 239 -65 509 -140 600 -76 91 -161 369 -189 617 -55 496 -131 601 -308 424z m284 -1626 c0 -192 -62 -192 -136 0 -32 83 -14 150 39 150 53 0 97 -67 97 -150z"/>
<path d="M11007 2059 c-95 -116 -102 -195 -23 -289 59 -72 139 -500 176 -950 47 -561 109 -820 196 -820 70 0 148 56 173 125 37 100 73 100 179 0 72 -69 243 -125 379 -125 l248 0 -202 225 c-302 338 -733 1171 -733 1418 0 121 -59 299 -130 397 -119 162 -143 164 -263 19z"/>
<path d="M9002 1953 c-170 -206 -195 -1953 -27 -1953 69 0 125 68 125 150 0 83 45 150 100 150 55 0 100 -67 100 -150 0 -82 68 -150 150 -150 193 0 194 418 3 950 -79 220 -146 544 -149 719 -5 372 -131 490 -302 284z"/>
</g>
</svg>