<svg xmlns="http://www.w3.org/2000/svg" version="1.0" width="250" height="525" viewBox="0 0 250.000000 525.000000" preserveAspectRatio="xMidYMid meet">
<metadata>
Created by potrace 1.10, written by Peter Selinger 2001-2011
</metadata>
<g transform="translate(0.000000,525.000000) scale(0.010000,-0.010000)" fill="#555555" stroke="none">
<path d="M200 52465 c0 -19 48 -172 106 -339 82 -236 71 -388 -50 -677 -177 -423 -206 -1403 -55 -1803 298 -782 1293 -862 1876 -151 180 220 423 798 423 1005 0 97 -64 229 -142 294 -78 64 -188 247 -243 406 -85 243 -76 279 54 229 128 -49 141 -2 80 281 -40 187 -113 355 -161 373 -108 41 -118 317 -12 317 152 0 316 -394 383 -916 38 -294 131 -659 208 -811 172 -341 134 -1281 -62 -1517 -91 -110 -221 -149 -371 -111 -128 32 -311 19 -408 -29 -97 -48 -318 -161 -491 -252 -174 -90 -444 -165 -600 -165 -389 -2 -735 -103 -735 -214 0 -128 1001 7 1262 170 215 135 638 93 638 -63 0 -169 -405 -295 -1145 -358 l-755 -63 5 -561 6 -560 172 450 c163 428 196 454 669 533 274 45 645 154 824 241 179 87 349 135 377 106 29 -28 66 -272 82 -541 17 -269 134 -879 261 -1356 199 -750 293 -933 698 -1358 487 -510 1565 -1125 1972 -1125 372 0 272 182 -164 299 -869 234 -2202 1348 -2202 1839 0 148 -72 378 -159 512 -192 293 -312 1394 -163 1487 62 38 131 -96 171 -331 68 -405 351 -787 351 -474 0 86 -45 184 -100 218 -123 76 -134 650 -12 650 48 0 112 -124 143 -275 70 -339 327 -701 427 -600 41 40 -1 156 -92 257 -198 220 -218 518 -35 518 72 0 232 -136 355 -303 123 -166 267 -276 319 -244 52 32 95 -9 95 -91 0 -83 -45 -178 -100 -212 -55 -34 -100 -104 -100 -156 0 -133 237 -117 379 25 66 66 266 122 445 125 257 5 326 48 326 206 0 111 -100 244 -225 299 -253 111 -305 351 -75 351 83 0 150 45 150 100 0 55 -41 100 -92 100 -50 0 -190 159 -310 353 -196 317 -203 374 -72 575 146 223 510 1279 621 1803 52 245 100 277 374 250 172 -17 334 -92 358 -166 32 -98 -14 -117 -167 -69 -164 52 -212 25 -212 -119 0 -103 54 -241 120 -307 93 -93 71 -120 -100 -120 -121 0 -220 53 -220 117 0 64 -23 94 -51 66 -28 -28 -22 -193 13 -367 41 -205 122 -316 232 -316 93 0 298 -135 456 -300 158 -165 333 -300 389 -300 56 0 -63 169 -265 375 -517 530 -358 726 220 269 245 -195 606 -374 822 -408 211 -34 384 -106 384 -160 0 -54 -110 -70 -248 -35 -396 99 -897 -574 -1120 -1508 -33 -136 120 -581 408 -1188 253 -535 460 -1050 460 -1146 0 -296 -235 -404 -730 -336 -352 48 -497 25 -621 -100 -336 -335 -1349 -39 -1349 394 0 79 -45 143 -100 143 -113 0 -130 -204 -38 -446 85 -221 564 -454 933 -454 238 0 305 -44 305 -200 0 -129 67 -200 188 -200 103 0 252 -98 332 -217 83 -125 193 -187 261 -145 149 92 -138 562 -343 562 -208 0 -166 278 62 400 142 76 258 76 400 0 145 -78 262 -74 425 13 589 314 609 734 84 1768 -490 964 -592 1393 -354 1485 94 36 247 18 340 -40 111 -69 227 -72 343 -7 205 115 940 -29 1741 -340 655 -255 819 -155 197 120 -250 110 -483 276 -519 368 -48 127 -91 139 -180 50 -64 -64 -195 -117 -291 -117 -205 0 -373 221 -209 276 61 20 86 105 54 188 -159 414 1773 -395 2231 -935 128 -151 239 -209 278 -146 142 231 -941 931 -1990 1286 l-400 135 434 -55 c460 -58 1564 -481 1816 -697 83 -71 263 -159 400 -196 226 -61 216 -39 -100 235 -192 167 -395 306 -450 310 -55 3 -280 93 -500 199 -220 106 -475 195 -567 197 -255 5 -488 115 -432 204 27 44 139 57 249 28 124 -33 331 47 544 210 202 154 369 220 406 161 117 -189 368 -113 303 92 -71 223 222 361 547 258 360 -114 210 45 -225 239 -234 104 -504 215 -600 247 -96 32 -175 144 -175 250 0 147 88 203 375 238 419 50 599 -98 343 -285 -223 -163 -150 -215 353 -251 528 -38 635 55 227 198 -172 60 -286 153 -252 207 33 54 138 71 232 38 95 -33 18 81 -171 254 -189 173 -445 315 -569 315 -124 0 -253 43 -285 96 -33 52 -122 71 -198 42 -245 -94 -1367 286 -1875 635 -271 187 -545 322 -609 301 -65 -22 17 -123 181 -225 164 -102 388 -264 498 -359 110 -94 403 -223 650 -286 1051 -265 1380 -560 517 -464 -515 58 -1408 520 -2029 1050 -440 377 -576 391 -511 55 74 -387 -310 -745 -799 -745 -473 0 -919 406 -849 773 24 125 5 227 -43 227 -137 0 -99 -484 63 -797 134 -259 130 -361 -39 -1021 -225 -877 -352 -1168 -811 -1855 l-349 -523 -550 1 c-814 2 -1202 370 -608 577 161 56 342 194 401 306 166 308 156 1306 -17 1812 -84 248 -185 686 -224 975 -69 513 -78 525 -401 525 -202 0 -352 -59 -388 -151 -88 -231 114 -1144 338 -1523 240 -407 244 -504 43 -908 -365 -731 -1015 -918 -1484 -429 -367 383 -463 1250 -219 1982 168 509 98 1029 -139 1029 -56 0 -102 -16 -102 -35z m7811 -1235 c89 -75 393 -164 675 -197 427 -51 514 -95 514 -260 0 -110 113 -304 250 -432 138 -127 250 -279 250 -336 0 -187 -284 -111 -444 117 -174 248 -214 73 -52 -229 154 -289 -61 -246 -384 78 -148 148 -540 401 -870 561 -330 159 -748 431 -930 604 -615 586 -654 927 -44 389 555 -490 841 -672 1312 -836 254 -88 541 -194 637 -235 102 -44 175 -32 175 28 0 57 -247 196 -549 309 -629 235 -1199 577 -1614 965 -276 259 -264 257 313 -60 330 -181 673 -391 761 -466z m-1344 45 c187 -179 436 -426 554 -550 118 -124 283 -225 365 -225 234 0 1014 -405 1014 -526 0 -60 70 -186 157 -281 103 -115 120 -195 50 -239 -59 -36 -107 -18 -107 40 0 58 -91 106 -203 106 -112 0 -230 70 -263 155 -32 85 -346 284 -696 443 -351 159 -638 337 -638 396 0 58 -75 106 -167 106 -281 0 210 -446 722 -658 603 -248 794 -770 199 -543 -182 69 -255 154 -217 252 31 82 39 149 18 149 -21 0 -110 27 -197 61 -106 41 -158 4 -158 -111 0 -137 -56 -158 -275 -104 -386 95 -725 332 -725 506 0 196 69 187 373 -52 395 -311 516 -230 152 102 -323 294 -416 498 -225 498 157 0 117 272 -50 336 -143 55 -219 464 -86 464 36 0 217 -146 403 -325z m-580 -230 c31 -163 14 -171 -125 -55 -192 159 -215 344 -37 285 69 -23 141 -126 162 -230z m4113 116 c0 -95 -299 -143 -353 -57 -32 53 34 96 147 96 113 0 206 -18 206 -39z m-2750 -2061 c-34 -55 -115 -99 -181 -98 -71 0 -59 40 31 98 192 124 227 124 150 0z m-150 -392 c0 -50 23 -153 52 -227 40 -105 -59 -132 -425 -118 -647 25 -628 19 -565 181 83 218 938 367 938 164z m-3050 -308 c119 -231 125 -300 27 -300 -162 0 -404 376 -324 504 90 147 129 120 297 -204z m-317 -619 l-101 -227 -124 231 c-68 127 -96 303 -62 391 56 146 76 145 225 -4 126 -126 140 -215 62 -391z"/>
<path d="M3300 51419 c0 -749 41 -1137 135 -1265 184 -252 308 -147 615 523 243 533 253 605 134 1023 -70 248 -115 529 -99 625 15 96 -20 175 -79 175 -135 0 -135 -440 -1 -925 87 -311 70 -452 -95 -825 -317 -718 -410 -571 -410 650 0 667 -39 1100 -100 1100 -60 0 -100 -427 -100 -1081z"/>
<path d="M5138 52182 c-10 -292 0 -302 125 -131 171 234 177 449 12 449 -71 0 -130 -137 -137 -318z"/>
<path d="M7953 52364 c432 -298 1491 -593 2070 -575 394 12 571 -20 553 -98 -14 -64 26 -135 89 -159 75 -27 127 136 150 463 19 278 1 505 -40 505 -41 0 -75 -62 -75 -138 0 -496 -1331 -510 -2304 -25 -415 207 -733 227 -443 27z"/>
<path d="M13414 52297 c-150 -125 -387 -198 -650 -198 -228 -1 -525 -58 -661 -127 -367 -186 -718 -761 -683 -1119 27 -275 60 -301 355 -278 388 31 409 -62 84 -367 -170 -159 -306 -207 -455 -159 -287 91 -504 -108 -504 -461 0 -313 -109 -368 -291 -149 -125 150 -510 284 -507 177 1 -36 226 -213 500 -392 483 -315 655 -624 348 -624 -82 0 -150 44 -150 98 0 156 -962 602 -1297 602 -400 0 -393 -167 7 -178 171 -5 388 -80 483 -166 95 -86 242 -156 326 -156 85 0 268 -90 408 -200 300 -236 504 -254 666 -58 92 110 87 160 -23 225 -154 91 -279 593 -199 802 71 185 232 163 477 -67 116 -109 384 -258 597 -332 l385 -133 -450 -264 c-758 -444 -2180 -1630 -2180 -1818 0 -72 -71 -189 -158 -261 -129 -107 -172 -108 -237 -1 -44 71 -59 212 -32 313 43 167 19 174 -261 68 l-308 -116 306 -194 c232 -147 291 -244 247 -404 -33 -115 -113 -541 -178 -946 l-118 -735 -373 50 c-206 28 -482 -6 -616 -76 -133 -69 -498 -147 -811 -173 -647 -54 -1028 -282 -1274 -763 -247 -484 -905 -1117 -1162 -1117 -124 0 -225 -40 -225 -89 0 -181 -822 -1311 -954 -1311 -75 0 -428 139 -783 308 -463 222 -662 376 -705 548 -51 202 -458 555 -458 397 0 -227 671 -907 1118 -1133 l532 -270 135 -750 c105 -585 109 -822 17 -1078 -119 -334 -61 -874 106 -977 50 -31 93 -268 93 -526 2 -533 157 -899 449 -1059 110 -61 221 -124 247 -140 106 -69 -268 -217 -552 -218 -366 -2 -545 154 -545 476 0 147 -48 222 -125 196 -69 -24 -125 -181 -125 -350 1 -232 -29 -283 -122 -206 -220 183 -264 767 -91 1208 90 228 122 438 72 468 -49 31 -214 367 -366 747 -153 380 -395 830 -540 1000 -145 170 -463 646 -708 1059 -448 755 -1413 1797 -1479 1597 -20 -59 188 -322 462 -585 273 -262 530 -581 570 -707 99 -310 -115 -431 -414 -235 -209 137 -238 136 -294 -9 -61 -159 -31 -266 152 -561 52 -82 119 -232 151 -332 51 -165 94 -152 432 129 374 310 375 311 525 103 83 -115 288 -381 457 -593 420 -524 804 -1743 654 -2073 -156 -342 -138 -892 41 -1237 244 -473 669 -633 1497 -563 l709 60 111 -293 c134 -356 139 -352 -919 -793 -1825 -761 -2203 -984 -2863 -1689 -841 -898 -1290 -1780 -1280 -2519 l8 -550 179 500 c234 651 805 1616 1249 2108 194 216 353 420 355 455 6 171 1436 995 2052 1182 385 116 1051 391 1481 610 697 355 797 381 932 246 185 -184 313 -188 637 -15 211 112 291 109 514 -17 386 -218 593 -101 536 302 -38 265 -32 281 31 80 43 -138 159 -266 258 -285 147 -28 167 9 109 200 -39 129 -77 257 -83 284 -49 198 324 732 669 960 l416 275 -314 -359 c-173 -197 -370 -525 -437 -728 -109 -332 -101 -391 83 -575 l206 -205 -295 -428 c-162 -235 -252 -453 -201 -485 203 -126 1169 1683 1243 2329 59 514 264 771 679 854 168 33 469 228 670 432 201 205 428 359 504 344 214 -44 612 78 612 188 0 54 -112 98 -250 98 -315 0 -333 259 -25 360 124 41 449 78 724 82 378 7 506 49 530 173 35 182 310 282 784 284 172 0 364 63 426 138 79 94 215 116 438 68 212 -45 399 -21 544 72 367 234 749 75 979 -408 231 -484 499 -574 854 -285 211 170 225 223 120 454 -66 144 -188 262 -272 262 -207 0 -192 297 23 461 96 73 281 134 411 136 129 2 519 138 865 304 488 232 654 369 736 605 58 167 164 297 235 287 355 -47 500 52 825 559 194 304 353 591 353 639 0 135 322 227 427 122 97 -97 -177 -540 -602 -974 -124 -126 -225 -313 -225 -414 0 -102 -56 -245 -125 -317 -100 -106 -100 -142 0 -179 197 -72 146 -229 -75 -229 -212 0 -269 -146 -99 -251 56 -34 191 -238 300 -452 257 -503 257 -1244 -1 -1897 -110 -279 -200 -742 -201 -1029 0 -797 -160 -1257 -462 -1333 -365 -92 -1170 19 -2058 283 l-770 229 46 600 c45 583 43 592 -100 300 -80 -165 -148 -390 -151 -500 -3 -110 -97 -335 -209 -500 -112 -165 -265 -443 -341 -617 -243 -560 -621 -613 -1404 -194 -332 177 -899 220 -800 61 34 -55 138 -101 231 -103 93 -2 349 -135 569 -296 220 -161 535 -360 700 -441 407 -200 1014 -729 932 -811 -36 -37 -424 -190 -861 -342 -782 -271 -1349 -587 -1597 -893 -77 -95 -256 -146 -463 -132 -226 15 -357 -28 -396 -130 -32 -83 -173 -152 -312 -152 -139 0 -340 -87 -446 -193 -107 -107 -309 -269 -450 -362 -141 -92 -257 -229 -257 -305 0 -75 -111 -164 -246 -198 -136 -34 -274 -147 -307 -252 -33 -105 -159 -242 -279 -305 -120 -63 -254 -175 -298 -250 -44 -74 -191 -135 -327 -135 -172 0 -277 -76 -343 -250 -52 -137 -162 -250 -244 -250 -82 0 -196 -87 -252 -193 -138 -258 -131 -311 34 -248 108 42 123 -27 70 -328 -73 -421 -37 -731 87 -731 45 0 100 261 123 580 50 696 309 1112 695 1117 322 4 512 -195 383 -400 -51 -81 -94 -209 -94 -284 -2 -111 27 -113 148 -13 203 169 195 765 -13 881 -110 62 -127 114 -51 161 62 38 230 -49 374 -193 339 -339 422 -244 181 207 -189 354 -189 360 9 506 177 131 204 131 232 -7 32 -152 326 -214 446 -94 34 34 -6 165 -89 291 -140 214 -131 247 130 497 345 327 697 475 944 397 150 -48 187 -159 187 -559 0 -307 38 -475 100 -437 134 83 128 812 -9 1067 -206 385 67 422 292 39 116 -196 257 -356 314 -356 141 0 130 66 -59 354 -177 270 -70 323 277 138 271 -145 357 -37 151 191 -92 101 -143 207 -114 236 100 99 548 -43 548 -174 0 -72 90 -160 200 -195 110 -35 200 -105 200 -157 0 -51 45 -93 100 -93 178 0 106 290 -100 400 -204 109 -279 400 -103 400 53 0 257 -90 453 -200 196 -110 400 -200 453 -200 166 0 106 203 -78 264 -96 32 -326 124 -510 206 -244 108 -366 119 -445 40 -191 -191 -309 -119 -130 79 207 229 663 332 835 190 69 -57 125 -73 125 -35 0 38 175 -30 389 -150 550 -309 721 -193 212 144 -233 154 -385 315 -337 357 221 199 729 285 1102 186 211 -56 574 -95 806 -87 246 8 598 -71 845 -191 232 -112 504 -178 603 -147 112 36 180 7 180 -75 0 -73 90 -189 200 -258 321 -200 233 -323 -232 -323 -607 0 -1364 -247 -2618 -856 -385 -186 -887 -366 -1117 -399 -343 -49 -462 -128 -676 -452 -184 -278 -331 -393 -503 -393 -304 0 -379 -120 -372 -600 6 -431 -146 -612 -714 -849 -220 -92 -414 -259 -469 -404 -65 -171 -170 -247 -341 -247 -219 0 -250 -48 -277 -425 -26 -352 -69 -430 -255 -457 -143 -20 -317 69 -488 250 l-265 282 71 -400 c65 -371 59 -388 -95 -238 -102 100 -187 398 -221 778 -70 770 -228 903 -228 191 0 -918 504 -1575 856 -1115 120 158 154 163 236 37 123 -186 3 -335 -437 -544 -593 -281 -829 -218 -1076 291 -120 248 -252 450 -293 450 -174 0 -160 -189 45 -596 161 -320 186 -447 94 -478 -69 -24 -125 -127 -125 -231 0 -222 -320 -420 -541 -334 -106 40 -188 -24 -255 -201 -55 -143 -162 -260 -239 -260 -77 0 -197 -67 -265 -150 -68 -82 -229 -150 -356 -150 -128 0 -260 -46 -295 -102 -101 -163 -263 1 -199 202 32 101 15 210 -39 243 -126 78 -241 -290 -165 -529 68 -215 -180 -467 -354 -359 -79 49 -100 282 -65 718 37 468 21 615 -58 536 -60 -60 -128 -401 -151 -756 -34 -537 -75 -657 -240 -710 -109 -35 -250 -10 -313 54 -87 89 -79 109 33 85 94 -20 157 58 175 218 23 215 11 227 -90 86 -108 -150 -147 -147 -475 36 -197 110 -417 247 -490 306 -72 59 -394 100 -715 91 -448 -12 -597 21 -643 142 -33 86 -32 204 4 261 36 59 3 84 -75 58 -76 -26 -161 -167 -189 -315 -46 -248 -653 -745 -768 -630 -26 25 70 230 212 456 164 259 212 409 132 409 -69 0 -238 -214 -376 -475 -161 -306 -372 -536 -591 -645 -188 -94 -368 -212 -400 -261 -33 -50 -271 -123 -531 -161 -447 -66 -475 -56 -536 187 -41 164 -157 280 -319 321 -427 107 -523 -155 -523 -1435 l0 -1131 308 0 308 0 -38 725 c-20 399 -76 810 -124 914 -64 141 -51 177 53 142 313 -104 642 -2192 386 -2448 -202 -202 324 -1733 595 -1733 46 0 249 -268 451 -596 202 -327 513 -697 689 -821 177 -123 382 -307 456 -408 256 -352 1341 -1375 1457 -1375 65 0 166 -180 224 -400 104 -390 -7 -576 -135 -225 -88 243 -593 688 -913 806 -325 120 -1178 359 -1909 535 -441 106 -579 192 -737 461 -315 533 -1071 832 -1071 423 0 -110 40 -200 89 -200 49 0 118 -74 153 -164 52 -137 38 -144 -90 -38 -129 107 -152 90 -152 -116 0 -133 56 -302 125 -375 100 -105 100 -141 0 -178 -167 -61 -153 -333 28 -573 81 -107 147 -304 147 -438 0 -133 121 -512 268 -840 225 -502 248 -629 144 -796 -89 -142 -93 -234 -16 -327 81 -98 9 -218 -295 -492 l-401 -362 0 -3932 0 -3931 256 -644 c415 -1044 557 -1493 500 -1584 -29 -48 -100 -417 -158 -821 -57 -404 -141 -772 -186 -817 -45 -45 -133 179 -195 498 -62 319 -131 670 -153 780 -23 110 -46 -346 -52 -1014 -13 -1301 1 -1336 526 -1336 206 0 248 120 578 1625 196 894 446 1828 555 2075 331 754 806 1907 1131 2750 170 440 437 1093 593 1450 156 358 496 1213 755 1900 456 1211 1128 2674 1266 2760 38 23 138 -195 223 -484 94 -320 116 -539 57 -560 -185 -63 -1096 -2330 -1096 -2726 0 -202 -727 -1795 -852 -1867 -69 -40 -165 -365 -212 -723 -73 -550 -116 -650 -283 -650 -272 0 -571 -823 -589 -1624 -8 -344 -41 -625 -75 -625 -125 -2 -485 -1310 -588 -2139 -58 -473 -132 -928 -164 -1011 -48 -123 42 -151 490 -151 l548 0 160 975 c144 875 488 2712 619 3300 43 196 113 225 536 225 514 0 779 176 674 449 -32 83 -169 151 -305 151 -276 0 -419 162 -375 425 16 96 -19 175 -78 175 -58 0 -105 101 -103 225 3 197 18 205 125 67 67 -88 243 -189 390 -226 148 -36 296 -154 330 -261 34 -107 161 -226 282 -263 121 -38 250 -116 286 -173 121 -188 583 208 592 508 4 150 30 218 57 150 112 -275 -175 -1199 -456 -1468 -234 -225 -293 -245 -343 -115 -92 240 -357 185 -487 -101 -94 -205 -90 -274 17 -341 102 -63 120 -248 72 -767 -54 -587 -102 -717 -337 -906 -311 -251 -260 -383 112 -290 292 74 398 181 651 661 108 205 248 339 337 322 163 -29 180 12 376 878 69 308 205 607 308 681 102 72 185 193 185 269 0 76 124 214 275 305 453 274 925 928 925 1281 -1 385 -341 967 -605 1036 -245 65 -246 58 60 1145 385 1369 703 2307 987 2907 264 559 620 1860 676 2476 30 328 15 348 -240 318 l-272 -32 131 382 c228 660 647 534 726 -218 34 -325 214 -960 292 -1033 40 -37 46 233 14 600 -46 516 -27 693 86 787 121 101 145 71 145 -185 0 -168 47 -430 105 -582 126 -330 144 -1331 42 -2265 -106 -966 -234 -927 -176 54 32 541 6 927 -77 1124 -158 379 -161 364 -292 -1700 -59 -935 -135 -1869 -168 -2075 -49 -311 -30 -375 112 -375 94 0 153 -34 132 -75 -353 -690 -567 -1279 -627 -1725 -40 -302 -138 -707 -217 -899 -199 -483 -719 -3114 -889 -4501 -173 -1411 -172 -1300 -5 -1300 100 0 170 245 249 875 60 481 157 1123 214 1425 57 303 193 1054 301 1669 109 615 287 1403 396 1750 108 347 227 851 263 1121 37 269 150 573 252 675 102 102 186 241 188 310 1 69 176 553 387 1075 212 523 618 1535 903 2250 639 1609 982 2397 1237 2850 248 441 578 1357 630 1750 23 178 162 401 341 550 165 138 300 306 300 375 -1 69 62 125 140 125 94 0 124 -74 90 -225 -182 -814 -1021 -3568 -1135 -3725 -158 -218 -902 -2182 -866 -2287 37 -112 367 553 621 1251 73 200 213 515 313 700 99 185 258 561 352 836 155 448 167 461 117 125 -75 -509 102 -476 271 50 75 234 291 758 479 1166 506 1093 982 3145 1110 4783 59 757 137 1725 172 2151 42 505 28 775 -39 775 -140 0 -223 -351 -225 -950 -3 -798 -279 -3456 -439 -4222 -303 -1456 -847 -2876 -1031 -2692 -32 32 13 166 99 298 174 264 439 1213 577 2059 48 298 140 574 204 614 76 47 124 544 142 1457 15 762 52 1904 81 2536 29 633 67 1679 84 2325 17 646 67 1175 111 1175 44 0 156 -133 249 -295 93 -162 240 -313 327 -335 146 -39 477 -642 806 -1470 98 -247 137 -793 133 -1850 -8 -2256 -519 -4889 -1297 -6684 -224 -517 -314 -839 -252 -901 187 -187 398 154 694 1119 684 2237 1070 4160 1165 5816 37 633 78 1162 91 1176 13 14 93 -188 177 -450 307 -954 23 -3020 -727 -5287 -166 -501 -390 -1084 -498 -1296 -224 -438 -258 -779 -72 -720 147 48 437 600 539 1027 64 267 76 275 111 75 21 -124 75 -225 120 -225 169 0 300 286 561 1227 149 535 298 973 332 973 34 0 53 -360 42 -800 -21 -831 97 -1069 216 -436 76 403 319 714 451 575 46 -49 156 -378 245 -730 157 -619 155 -649 -35 -852 -362 -385 -707 -1153 -707 -1572 0 -327 65 -470 340 -745 290 -290 409 -340 810 -340 765 0 956 -184 1601 -1539 317 -666 735 -1542 930 -1947 301 -627 331 -749 202 -821 -371 -208 -600 -471 -724 -832 -215 -630 24 -1044 450 -778 101 62 241 92 312 66 71 -26 197 -4 279 49 124 79 128 131 25 298 -69 111 -125 267 -125 347 0 152 180 311 261 230 39 -40 439 -1077 439 -1141 0 -11 -165 -34 -367 -51 -448 -38 -546 -243 -181 -382 147 -56 291 -191 319 -300 29 -110 109 -199 179 -199 238 0 314 -615 150 -1206 -73 -263 -192 -401 -455 -526 -195 -93 -583 -382 -860 -642 -470 -439 -502 -499 -454 -853 69 -516 329 -899 560 -826 102 32 236 -9 307 -95 70 -83 182 -152 249 -152 68 0 315 -139 549 -309 312 -226 456 -279 537 -198 154 154 -128 613 -497 809 -367 194 -836 667 -836 843 0 283 464 991 800 1220 l350 239 58 -277 c47 -226 -13 -352 -325 -681 -211 -222 -383 -450 -383 -507 0 -57 111 -208 246 -335 191 -180 314 -217 558 -168 l312 62 -33 -699 -33 -699 428 0 c350 0 445 41 520 225 l92 225 67 -225 c38 -131 146 -225 257 -225 178 0 186 59 124 936 -82 1176 76 1370 304 370 87 -382 158 -833 158 -1001 0 -204 49 -305 150 -305 128 0 149 249 142 1675 -4 921 -30 1619 -58 1550 -107 -264 -208 -104 -262 414 -30 296 -128 679 -216 850 -89 171 -138 311 -110 311 28 0 173 -236 322 -525 205 -398 281 -478 313 -331 22 107 -154 602 -393 1100 -518 1079 -473 1004 -550 928 -33 -34 -12 -204 49 -378 96 -276 91 -301 -38 -193 -82 68 -149 177 -149 242 0 113 -294 803 -502 1178 -52 94 -69 239 -37 322 71 186 -396 1137 -889 1807 -202 275 -368 549 -370 610 -1 60 -92 190 -202 290 -247 223 -260 452 -25 444 218 -6 493 -354 947 -1194 193 -357 487 -880 653 -1161 167 -280 336 -663 377 -850 83 -384 691 -1305 981 -1487 181 -112 188 -97 122 264 -39 211 -159 478 -265 593 -297 319 -533 1341 -311 1341 44 0 199 -236 344 -525 l265 -525 4 350 c2 201 -80 457 -192 600 -192 246 -262 500 -136 500 35 0 124 -79 197 -175 117 -154 133 -125 136 250 2 234 -42 425 -97 425 -55 0 -100 70 -100 156 0 86 45 128 100 94 193 -119 97 168 -200 600 -407 591 -404 931 4 454 277 -324 296 -331 296 -115 0 128 -114 368 -254 534 -288 343 -251 503 53 228 195 -176 201 -176 201 20 0 111 -87 312 -192 447 -118 149 -162 295 -112 375 63 103 100 96 174 -36 64 -115 97 100 105 686 11 820 1 863 -282 1129 -355 336 -358 377 -53 660 218 202 227 241 93 420 -143 193 -152 191 -389 -102 -178 -220 -243 -255 -244 -130 0 94 79 217 175 275 165 99 164 114 -19 255 -296 229 -548 184 -664 -120 l-102 -270 -194 295 c-248 376 -249 370 94 573 401 237 710 225 710 -28 0 -213 198 -286 203 -75 1 69 159 -43 350 -249 l347 -373 0 687 c0 628 -19 692 -225 747 -437 117 -753 60 -1310 -237 l-562 -301 -258 408 c-389 617 -395 680 -98 990 327 341 280 735 -81 684 -161 -23 -224 -111 -247 -346 -16 -173 -122 -397 -234 -498 -197 -179 -207 -179 -341 4 -75 103 -304 609 -507 1123 -204 515 -408 936 -454 936 -115 0 -104 -466 16 -676 148 -259 801 -1739 800 -1811 -4 -129 -1076 1952 -1193 2312 -67 206 -167 375 -222 375 -124 0 -16 -539 186 -936 81 -157 101 -258 45 -223 -220 136 -533 1201 -470 1598 53 332 5 484 -327 1050 -553 942 -1593 3054 -1732 3518 -114 381 -286 535 -286 256 0 -352 987 -2529 1713 -3780 212 -367 361 -733 331 -813 -80 -207 176 -1077 607 -2070 589 -1355 760 -1817 717 -1937 -68 -193 -775 1442 -1564 3622 -455 1258 -769 1915 -913 1915 -128 0 -44 -291 258 -900 123 -247 279 -630 346 -850 167 -542 815 -2243 967 -2539 102 -197 97 -281 -30 -475 -301 -459 62 -1236 577 -1236 119 0 198 -160 288 -586 105 -494 101 -629 -23 -866 l-147 -281 -139 254 c-405 747 -687 1392 -842 1929 -96 330 -215 653 -267 719 -51 65 -177 447 -280 850 -103 402 -254 956 -336 1231 -81 275 -198 667 -259 871 -61 205 -155 399 -208 431 -135 84 -121 -13 102 -747 176 -581 194 -831 50 -686 -29 29 -145 385 -258 792 -157 564 -179 781 -95 917 91 146 -29 454 -662 1700 -1535 3020 -1784 3623 -2123 5131 -147 655 -162 925 -82 1425 143 887 299 775 220 -159 -53 -631 -25 -923 153 -1575 379 -1384 552 -1231 205 182 -149 607 -179 981 -134 1675 32 491 89 893 127 893 133 0 309 -1079 249 -1524 -51 -374 -11 -547 239 -1037 165 -324 329 -746 364 -939 l63 -350 -206 300 c-114 165 -207 356 -207 425 -1 69 -46 125 -101 125 -148 0 -119 -199 102 -686 133 -294 244 -418 340 -381 98 38 201 -85 326 -389 100 -244 238 -443 307 -444 183 0 154 209 -112 813 -130 295 -271 695 -312 887 -42 193 -182 561 -312 820 -196 388 -245 671 -286 1632 -37 892 -20 1154 74 1122 123 -40 205 -379 527 -2174 94 -523 250 -1107 347 -1300 96 -192 296 -665 444 -1050 658 -1715 914 -2287 1045 -2330 183 -61 133 102 -376 1230 -807 1786 -1211 3048 -1362 4257 -79 629 -174 1289 -210 1468 -52 253 -33 325 85 325 190 0 237 -123 326 -859 83 -681 198 -954 374 -886 79 30 209 -196 359 -629 531 -1523 768 -2124 839 -2125 141 -2 75 295 -241 1071 -174 428 -416 1116 -539 1528 -136 457 -276 750 -359 750 -132 0 -262 547 -279 1175 -11 410 256 343 397 -100 231 -723 678 -1596 913 -1785 131 -104 347 -347 479 -540 133 -192 371 -502 530 -687 208 -242 273 -403 231 -569 -73 -292 8 -340 649 -385 561 -39 690 -150 692 -591 2 -340 -720 -1245 -1062 -1330 -125 -32 -280 -121 -344 -198 -184 -222 -338 -165 -503 185 -84 179 -361 730 -617 1225 -535 1038 -1071 2323 -1072 2569 0 177 -175 340 -266 248 -95 -94 575 -1786 1312 -3317 398 -825 754 -1667 792 -1872 197 -1050 1415 -1554 2699 -1117 423 144 678 345 1305 1029 111 120 316 210 482 210 l289 0 -32 -1008 -31 -1007 400 -368 400 -367 31 269 c17 148 -41 380 -130 516 -114 173 -154 432 -137 880 27 714 72 868 197 671 56 -88 86 18 87 301 2 359 -23 417 -135 324 -104 -86 -167 -77 -262 38 -331 399 -1489 30 -1776 -565 -153 -320 -618 -522 -1216 -529 -368 -4 -460 31 -491 185 -21 105 35 231 124 281 217 122 105 279 -198 279 -150 0 -244 58 -244 150 0 83 68 150 150 150 83 0 150 46 150 103 0 57 -67 129 -150 161 -152 58 -204 348 -84 468 36 37 132 11 213 -56 126 -104 137 -78 79 186 -56 258 -16 362 255 648 349 370 407 760 188 1287 -150 364 -617 573 -944 424 -217 -98 -278 -49 -821 654 -322 418 -724 921 -893 1118 -532 620 -728 957 -851 1464 -67 271 -161 572 -210 668 -63 124 -50 175 46 175 74 0 210 -157 302 -350 92 -192 212 -350 268 -350 144 0 127 162 -55 514 -218 422 -134 444 260 68 356 -340 564 -233 241 124 -97 108 -143 228 -104 268 68 67 275 -27 830 -377 335 -211 419 -10 102 243 -355 284 -267 370 207 201 204 -73 447 -134 540 -137 533 -13 1487 -985 1684 -1714 56 -210 142 -406 189 -435 48 -30 182 -235 297 -457 116 -221 356 -563 535 -760 180 -197 326 -390 326 -429 0 -39 -121 -214 -269 -390 -613 -729 -1227 -56 -874 959 133 381 -19 722 -322 722 -172 0 -199 -47 -157 -267 28 -147 -10 -441 -85 -654 -263 -745 111 -1579 708 -1579 185 0 365 -46 400 -102 90 -145 273 -5 210 160 -59 153 518 642 758 642 193 0 536 -362 356 -377 -785 -65 -879 -144 -915 -769 -19 -345 14 -489 122 -530 187 -72 718 503 718 778 0 334 341 231 581 -177 l221 -375 -25 500 c-14 275 -70 534 -126 575 -66 49 -58 103 22 155 86 55 122 411 119 1163 l-5 1084 -599 -62 c-385 -41 -577 -28 -537 36 33 54 143 99 243 99 101 0 206 91 236 202 29 111 191 251 361 310 316 110 408 325 184 430 -100 46 -100 70 0 116 69 32 125 119 125 193 0 143 -925 381 -1325 341 -124 -13 -360 14 -525 60 l-300 83 287 77 c294 79 1237 -44 1641 -214 l227 -96 -9 7142 c-8 6076 -30 7160 -152 7261 -79 66 -144 249 -144 407 0 356 -159 380 -225 35 -31 -160 23 -345 145 -500 107 -136 150 -247 95 -247 -54 0 -198 161 -319 357 -211 341 -216 408 -126 1525 52 642 80 1187 62 1210 -99 127 -147 -150 -292 -1662 -80 -841 37 -1219 485 -1570 227 -178 281 -283 229 -446 -37 -118 -131 -214 -209 -214 -77 0 -231 -177 -341 -393 -227 -444 -496 -576 -795 -389 -167 104 -227 102 -332 -8 -88 -94 -93 -147 -16 -176 463 -172 542 -634 108 -634 -162 0 -182 27 -89 120 186 186 142 297 -105 265 -124 -16 -278 4 -343 45 -65 40 -142 35 -170 -11 -119 -192 75 -494 415 -648 321 -146 383 -148 526 -18 204 184 340 186 490 6 93 -113 37 -222 -284 -550 -437 -445 -678 -499 -1073 -241 -486 319 -729 852 -798 1756 l-64 831 451 370 c249 203 480 480 514 615 83 331 -96 767 -340 831 -366 96 -159 839 438 1571 480 590 834 1180 1053 1756 130 343 356 653 701 963 l509 458 0 1390 0 1391 -345 0 c-275 0 -398 -69 -606 -342 -144 -189 -393 -389 -555 -445 -251 -88 -294 -155 -294 -458 0 -195 45 -355 100 -355 55 0 100 48 100 106 0 58 45 78 100 44 131 -81 128 -564 -7 -918 -58 -155 -508 -692 -1000 -1194 -892 -910 -893 -911 -893 -1430 0 -589 -158 -607 -254 -29 -33 204 -108 493 -164 643 -72 187 -71 365 0 570 84 241 66 377 -91 703 -144 299 -183 540 -149 919 73 805 271 874 245 85 -25 -765 54 -1061 326 -1206 332 -178 719 -14 1144 485 539 633 876 1122 815 1184 -28 27 -155 -99 -282 -281 -128 -182 -358 -450 -511 -596 -154 -146 -279 -309 -279 -363 0 -54 -131 -152 -291 -218 -500 -208 -809 91 -718 696 12 83 20 398 18 700 -3 303 31 809 76 1125 75 532 67 575 -115 575 -178 0 -190 -47 -127 -525 67 -504 -59 -595 -172 -125 -27 114 -57 28 -70 -200 l-21 -400 -105 325 c-57 179 -163 325 -236 325 -100 0 -84 -111 65 -458 461 -1076 18 -986 -533 108 -266 530 -724 1030 -839 916 -37 -38 70 -215 239 -392 169 -178 429 -585 578 -904 149 -319 356 -634 461 -699 137 -86 190 -234 190 -530 0 -226 69 -550 154 -720 112 -223 131 -401 70 -636 -148 -572 228 -1816 564 -1867 198 -30 212 13 212 619 l0 651 708 681 c852 820 1143 1247 1240 1817 66 394 83 414 206 239 74 -105 163 -310 200 -454 36 -145 129 -315 206 -379 225 -187 166 -366 -260 -792 -220 -220 -400 -463 -400 -540 0 -390 -1320 -2405 -1382 -2110 -56 261 190 852 503 1209 165 187 270 341 233 341 -223 0 -500 -278 -680 -684 -113 -256 -226 -407 -250 -336 -63 187 52 722 228 1060 84 159 129 312 101 340 -28 28 -163 -204 -301 -515 -189 -427 -257 -770 -276 -1391 -14 -453 -3 -869 24 -924 28 -55 7 -122 -45 -150 -53 -27 -173 166 -267 430 -95 264 -288 633 -430 819 -143 186 -218 364 -169 394 50 31 6 328 -99 665 -105 336 -194 797 -200 1026 -5 229 -46 529 -90 666 l-80 250 -13 -250 c-12 -233 -23 -238 -150 -70 -75 99 -165 347 -199 550 -96 562 -473 1720 -561 1720 -42 0 -9 -214 74 -475 83 -261 191 -700 238 -975 134 -766 347 -1402 463 -1379 57 11 158 -259 225 -600 67 -342 169 -678 227 -748 122 -149 15 -305 -114 -166 -48 51 -158 380 -245 732 -177 713 -388 1011 -717 1011 -262 0 -345 345 -347 1431 -1 754 -139 1418 -357 1712 -184 250 -310 124 -168 -168 61 -124 156 -383 213 -575 123 -422 180 -2307 74 -2478 -95 -155 -380 -156 -717 -2 -234 107 -256 159 -199 475 35 195 88 762 118 1260 44 756 26 928 -108 1040 -232 192 -266 100 -120 -326 136 -394 57 -1490 -140 -1952 -104 -242 -376 -246 -309 -4 200 732 312 1625 210 1688 -77 48 -97 290 -60 742 42 503 25 661 -66 631 -80 -26 -142 -386 -180 -1032 -43 -718 -122 -1137 -289 -1517 l-230 -525 -611 -7 c-337 -4 -702 -43 -812 -87 -124 -50 -304 -27 -475 59 -306 156 -348 220 -131 199 79 -8 158 31 175 86 17 55 -216 124 -519 154 -858 84 -1710 637 -2321 1504 -124 176 -171 199 -175 82 -7 -259 549 -948 1034 -1282 247 -170 688 -373 981 -452 456 -123 489 -146 231 -168 -165 -13 -404 -19 -532 -12 -257 15 -1503 1002 -1512 1199 -3 69 -65 125 -138 125 -73 0 -237 120 -365 268 l-232 267 316 283 c254 226 411 282 796 282 402 0 526 48 767 300 321 335 229 401 -136 97z m-1589 -1439 c14 -50 -31 -110 -100 -133 -69 -23 -125 33 -125 125 0 169 179 176 225 8z m1298 -1131 l316 -327 -244 1 c-440 1 -1196 654 -1044 901 82 133 559 -150 972 -575z m-402 -388 c528 -273 205 -275 -371 -2 -570 270 -779 522 -550 663 85 52 216 -22 377 -214 136 -161 381 -362 544 -447z m4940 603 c-34 -87 -61 -202 -61 -256 0 -54 -41 -73 -91 -42 -114 71 -19 456 113 456 55 0 72 -71 39 -158z m-1161 -1142 c0 -55 -65 -100 -144 -100 -79 0 -172 45 -206 100 -34 55 31 100 144 100 113 0 206 -45 206 -100z m418 -450 c-26 -147 -244 -122 -296 35 -29 86 19 122 134 100 99 -19 172 -80 162 -135z m1482 50 c0 -55 -65 -100 -144 -100 -79 0 -172 45 -206 100 -34 55 31 100 144 100 113 0 206 -45 206 -100z m-1141 -574 c-69 -70 -259 71 -259 192 0 66 57 59 152 -20 84 -70 132 -147 107 -172z m1423 -9 c18 -119 -16 -217 -75 -217 -59 0 -107 41 -107 92 0 50 -30 169 -66 263 -46 121 -24 158 75 126 78 -26 155 -144 173 -264z m-4782 83 c0 -55 -70 -100 -156 -100 -86 0 -128 45 -94 100 34 55 104 100 156 100 52 0 94 -45 94 -100z m336 -450 c-64 -166 -195 -197 -277 -64 -67 108 34 214 205 214 74 0 105 -64 72 -150z m1361 -15 c-136 -91 -416 -325 -622 -520 -353 -335 -514 -344 -247 -15 160 197 892 700 1018 700 54 0 -13 -74 -149 -165z m4549 -42 c-32 -51 -118 -93 -191 -93 -209 0 -276 -311 -107 -497 177 -196 202 -503 41 -503 -61 0 -84 69 -52 152 32 84 -28 239 -133 344 -162 162 -173 230 -73 445 114 242 333 368 496 284 42 -21 50 -81 19 -132z m-6746 -105 c0 -135 -161 -105 -293 54 -97 117 -82 133 87 88 113 -29 206 -93 206 -142z m4082 -121 c38 -324 -135 -357 -219 -42 -89 331 -77 396 62 351 69 -23 139 -162 157 -309z m1276 -192 c-38 -234 -117 -470 -176 -525 -77 -71 -90 -2 -45 238 35 185 63 421 63 525 0 103 51 187 113 187 76 0 91 -136 45 -425z m-2408 25 c-34 -55 -107 -100 -162 -100 -55 0 -72 45 -38 100 34 55 107 100 162 100 55 0 72 -45 38 -100z m-3250 -306 c0 -58 -45 -78 -100 -44 -55 34 -100 82 -100 106 0 24 45 44 100 44 55 0 100 -48 100 -106z m4398 -169 c-1 -218 -166 -490 -247 -409 -85 85 52 584 160 584 49 0 88 -79 87 -175z m-798 -175 c0 -86 -90 -150 -212 -150 -178 0 -192 25 -88 150 68 83 164 150 212 150 49 0 88 -67 88 -150z m5451 49 c34 -55 32 -196 -5 -313 -53 -167 -87 -183 -155 -74 -117 184 -115 488 3 488 52 0 122 -45 157 -101z m-11739 -266 c-87 -150 -106 -155 -109 -25 -3 169 102 320 173 250 23 -24 -5 -125 -64 -225z m1038 167 c-34 -55 -82 -100 -106 -100 -24 0 -44 45 -44 100 0 55 48 100 106 100 58 0 78 -45 44 -100z m1838 -236 c204 -245 -76 -314 -300 -74 -241 258 -401 192 -921 -385 -400 -443 -499 -500 -389 -227 137 341 374 583 772 789 409 212 596 189 838 -103z m6170 236 c23 0 42 -64 42 -142 0 -78 56 -161 125 -186 69 -25 92 -81 51 -124 -41 -44 -157 -5 -258 86 -101 91 -236 166 -301 166 -64 0 -117 38 -117 83 0 144 134 225 278 170 76 -29 157 -53 180 -53z m-5358 -200 c0 -55 -45 -100 -100 -100 -55 0 -100 45 -100 100 0 55 45 100 100 100 55 0 100 -45 100 -100z m1352 -108 c37 -114 41 -233 10 -264 -84 -83 -362 174 -362 334 0 217 279 161 352 -70z m-4541 -697 l-98 -245 -7 267 c-3 147 27 349 68 450 69 170 76 168 104 -22 17 -112 -13 -315 -67 -450z m5471 371 c40 -202 -253 -335 -404 -184 -79 79 -73 153 21 267 156 188 338 149 383 -83z m2518 140 c0 -52 -48 -124 -107 -160 -59 -37 -82 -129 -53 -206 31 -81 -8 -140 -93 -140 -181 0 -200 462 -22 534 200 80 275 73 275 -28z m-6509 -466 c-180 -185 -348 -316 -373 -291 -85 85 494 755 597 692 59 -37 -36 -206 -224 -401z m4609 310 c0 -82 -42 -150 -94 -150 -126 0 -217 156 -137 236 113 113 231 69 231 -86z m-3900 -350 c-59 -110 -151 -200 -204 -200 -54 0 -42 89 27 200 69 110 161 200 205 200 43 0 31 -90 -28 -200z m3300 -250 c-68 -82 -163 -150 -209 -150 -47 0 -59 68 -27 150 31 83 126 150 209 150 123 0 128 -28 27 -150z m1562 19 c76 29 138 12 138 -36 0 -49 -139 -142 -309 -206 -265 -100 -300 -95 -250 37 33 84 59 203 59 264 0 82 30 82 112 0 62 -62 174 -89 250 -59z m-5308 -162 c-36 -59 -114 -107 -172 -107 -66 0 -59 57 20 152 137 166 260 129 152 -45z m241 -316 c-61 -114 -131 -188 -155 -164 -70 70 71 373 174 373 51 0 43 -94 -19 -209z m2424 141 c-72 -29 -159 -26 -192 8 -33 33 26 56 131 52 117 -5 141 -28 61 -60z m2030 -33 c-77 -125 -853 -528 -909 -473 -33 33 840 564 941 572 17 1 3 -44 -32 -99z m-799 -99 c-34 -55 -129 -100 -212 -100 -82 0 -122 45 -88 100 34 55 129 100 212 100 82 0 122 -45 88 -100z m-1800 -300 c0 -81 -79 -162 -175 -181 -123 -24 -175 30 -175 181 0 151 52 205 175 181 96 -19 175 -100 175 -181z m-5984 -243 c-33 -86 -111 -157 -174 -157 -62 0 -86 71 -53 158 34 87 61 209 61 270 0 82 31 81 113 -1 63 -63 86 -184 53 -270z m734 -53 c0 -234 -318 -429 -552 -340 -140 54 -122 100 118 297 350 286 434 294 434 43z m9065 27 c-100 -99 -465 -112 -404 -14 28 46 146 83 262 83 115 0 179 -31 142 -69z m-8640 -365 c14 -45 -121 -145 -300 -220 -372 -156 -434 -34 -102 199 230 161 358 168 402 21z m-3125 -66 c0 -55 -70 -100 -156 -100 -86 0 -128 45 -94 100 34 55 104 100 156 100 52 0 94 -45 94 -100z m1543 11 c30 -48 -35 -112 -144 -140 -129 -34 -199 -3 -199 88 0 155 256 194 343 52z m5915 -11 c23 0 42 -90 42 -200 0 -244 -349 -276 -440 -41 -82 214 26 368 208 298 82 -31 167 -57 190 -57z m5492 0 c-34 -55 -82 -100 -106 -100 -24 0 -44 45 -44 100 0 55 48 100 106 100 58 0 78 -45 44 -100z m-2691 -186 c-30 -47 -248 -113 -487 -145 -238 -33 -736 -196 -1107 -362 -371 -167 -647 -258 -613 -204 132 213 1191 640 1798 725 165 23 336 49 381 57 44 8 57 -24 28 -71z m-9459 -152 c0 -21 -90 -62 -200 -91 -110 -29 -175 -12 -144 38 54 87 344 132 344 53z m11482 -90 c-198 -193 -753 -572 -836 -572 -97 0 780 688 886 695 45 3 23 -53 -50 -123z m-11296 -518 c-290 -300 -546 -528 -568 -505 -23 23 31 114 120 203 89 89 162 193 162 231 0 139 512 617 661 617 90 0 -61 -221 -375 -546z m2148 401 c63 -164 -280 -642 -385 -537 -37 37 -38 206 -1 375 71 320 290 412 386 162z m9335 -294 c-133 -143 -279 -261 -324 -261 -45 0 46 135 204 299 158 164 303 282 324 261 21 -21 -71 -155 -204 -299z m-5800 75 c83 -215 -95 -486 -319 -486 -98 0 -224 73 -280 161 -153 243 -12 489 280 489 145 0 284 -71 319 -164z m-5022 -218 c-163 -156 -443 -431 -622 -612 -179 -181 -325 -271 -325 -199 0 149 987 1093 1143 1093 56 0 -32 -127 -196 -282z m5571 60 c-71 -71 -118 -77 -118 -15 0 134 118 252 185 185 28 -28 -2 -105 -67 -170z m2951 62 c-155 -84 -335 -132 -400 -108 -65 25 -6 92 131 150 384 161 586 129 269 -42z m-1319 -140 c-34 -55 -138 -99 -231 -98 -146 1 -148 14 -19 98 196 127 328 127 250 0z m-9894 -253 c-253 -191 -416 -189 -256 3 68 83 198 149 287 147 137 -3 132 -27 -31 -150z m15442 -22 c0 -41 -45 -142 -98 -225 -78 -121 -97 -107 -98 75 -1 124 43 225 98 225 55 0 99 -34 98 -75z m-12835 -347 c-90 -125 -325 -453 -522 -728 -329 -458 -741 -767 -741 -556 0 48 230 326 512 618 282 293 580 636 664 763 83 127 174 209 201 181 28 -27 -24 -152 -114 -278z m1937 230 c0 -202 -129 -408 -255 -408 -175 0 -277 173 -207 355 60 157 462 204 462 53z m2244 -130 c132 -188 135 -242 17 -360 -178 -177 -561 6 -561 269 0 374 310 426 544 91z m9107 -940 c171 -1284 181 -1538 57 -1538 -51 0 -120 304 -154 675 -33 371 -97 957 -140 1301 -71 559 -51 795 56 687 20 -20 102 -526 181 -1125z m-6053 910 c-70 -84 -147 -132 -172 -107 -70 69 71 259 192 259 66 0 59 -57 -20 -152z m2177 27 c-23 -69 -126 -141 -230 -162 -163 -31 -171 -14 -55 125 159 192 344 215 285 37z m-7075 -175 c0 -55 -48 -100 -106 -100 -58 0 -78 45 -44 100 34 55 82 100 106 100 24 0 44 -45 44 -100z m682 -183 c36 -244 -233 -406 -398 -241 -70 70 -66 171 14 319 140 262 340 221 384 -78z m9786 -192 c-4 -206 27 -548 69 -760 47 -241 40 -362 -21 -325 -118 73 -260 1208 -169 1355 106 172 128 124 121 -270z m-12638 -72 c-99 -136 -222 -248 -272 -250 -51 -2 13 110 142 247 300 319 361 321 130 3z m-2680 47 c34 -55 -20 -101 -119 -101 -100 -1 -291 -31 -426 -67 -220 -59 -230 -49 -100 97 162 182 550 225 645 71z m9042 7 c105 -66 31 -120 -282 -204 -597 -161 -859 -83 -410 121 418 191 506 201 692 83z m2358 -217 c-1708 -874 -1950 -984 -1950 -888 0 57 506 347 1125 643 1194 573 1838 764 825 245z m-10211 -43 c-91 -139 -186 -233 -211 -209 -69 70 167 462 278 462 54 0 24 -114 -67 -253z m3315 -209 c-40 -359 -207 -502 -400 -342 -195 162 -193 251 9 559 198 303 433 172 391 -217z m2896 362 c-34 -55 -129 -100 -212 -100 -82 0 -122 45 -88 100 34 55 129 100 212 100 82 0 122 -45 88 -100z m2450 -140 c0 -114 -712 -436 -1099 -498 -548 -88 -511 -48 249 270 575 240 850 314 850 228z m2300 0 c0 -58 -687 -470 -1125 -675 -206 -96 -375 -135 -375 -85 0 50 191 175 425 279 234 104 487 263 562 355 119 143 513 240 513 126z m3007 -1254 c236 -909 236 -876 0 -1002 -324 -174 -507 -25 -507 410 0 216 -72 504 -161 639 -195 297 -120 694 193 1031 l218 235 32 -285 c18 -156 119 -619 225 -1028z m3881 1019 c-7 -169 -29 -208 -57 -100 -25 96 -121 178 -213 182 -135 6 -129 24 32 93 110 47 211 89 225 93 14 4 20 -117 13 -268z m-18613 50 c-23 -69 -218 -152 -433 -186 -216 -33 -477 -96 -581 -140 -140 -60 -176 -44 -142 60 51 156 602 377 964 385 144 4 218 -42 192 -119z m5775 -29 c-347 -158 -550 -182 -550 -63 0 160 135 217 492 209 l358 -8 -300 -138z m12261 -571 c90 -607 144 -856 241 -1100 55 -139 17 -175 -188 -175 -180 0 -241 42 -204 140 29 77 6 169 -53 206 -59 36 -107 18 -107 -40 0 -140 -269 -136 -357 5 -38 61 -12 147 58 190 72 44 106 186 78 332 -27 140 -11 313 35 386 52 82 84 -28 84 -294 1 -239 50 -425 111 -425 69 0 102 228 89 625 -25 750 -18 828 69 742 36 -37 101 -303 144 -592z m-16272 272 c-91 -139 -186 -233 -211 -209 -69 70 167 462 278 462 54 0 24 -114 -67 -253z m-1333 -22 c-214 -372 -496 -669 -567 -597 -42 41 77 232 262 423 377 389 454 433 305 174z m5919 109 c-69 -28 -181 -28 -250 0 -69 28 -12 50 125 50 138 0 194 -22 125 -50z m5575 -34 c-196 -127 -328 -127 -250 0 34 55 138 99 231 98 146 -1 148 -14 19 -98z m-13443 -152 c-106 -80 -217 -121 -247 -92 -63 63 191 242 340 239 55 -1 13 -67 -93 -147z m7293 52 c-34 -55 -138 -97 -231 -93 -138 6 -132 23 31 93 268 115 271 115 200 0z m1769 -68 c-72 -29 -159 -26 -192 8 -33 33 26 56 131 52 117 -5 141 -28 61 -60z m8545 -254 c121 -109 194 -268 167 -369 -25 -97 -4 -407 47 -689 86 -475 -28 -1704 -147 -1584 -26 26 -43 613 -38 1305 6 788 -29 1259 -92 1259 -95 0 -110 -266 -140 -2600 -9 -684 -40 -850 -161 -850 -99 0 -134 68 -104 200 25 110 47 973 47 1917 1 1145 36 1698 104 1660 57 -31 199 -143 317 -249z m-15580 -493 c-129 -99 -322 -182 -429 -183 -160 -2 -124 71 200 404 369 380 397 392 429 183 22 -145 -48 -288 -200 -404z m6402 568 c-98 -98 -892 -225 -938 -150 -28 45 29 99 126 120 260 56 861 79 812 30z m1543 -64 c-173 -173 -1341 -417 -1454 -304 -62 62 115 138 489 212 322 64 631 132 686 151 55 20 165 40 245 44 107 6 115 -22 34 -103z m8892 -193 c-47 -322 -247 -354 -306 -50 -30 158 127 348 293 352 31 1 37 -135 13 -302z m-13821 137 c0 -101 -319 -433 -415 -433 -101 0 -114 337 -18 433 87 87 433 87 433 0z m1150 -133 c37 -60 -82 -100 -294 -100 -196 0 -356 45 -356 100 0 55 132 100 294 100 162 0 322 -45 356 -100z m-3374 -382 c-66 -175 -155 -318 -198 -318 -112 0 -98 71 79 414 200 386 278 324 119 -96z m7624 282 c0 -55 -101 -99 -225 -98 -182 1 -196 20 -75 98 194 125 300 125 300 0z m1452 -456 c209 -165 302 -644 125 -644 -191 0 -380 429 -365 830 7 206 28 249 58 120 26 -110 108 -248 182 -306z m-8044 -276 c-129 -129 -150 112 -34 399 65 161 78 155 109 -54 18 -130 -15 -285 -75 -345z m14292 226 c0 -178 -42 -280 -100 -244 -55 34 -100 172 -100 306 0 134 45 244 100 244 55 0 100 -138 100 -306z m500 -202 c0 -39 -67 -97 -150 -128 -115 -44 -149 18 -147 264 3 305 11 312 150 128 81 -107 147 -226 147 -264z m-17950 208 c-34 -55 -115 -99 -181 -98 -71 0 -59 40 31 98 192 124 227 124 150 0z m4011 -258 c-34 -87 -61 -180 -61 -206 0 -26 -45 -20 -100 14 -159 98 -116 350 61 350 105 0 140 -54 100 -158z m-2135 -267 c-78 -318 -205 -456 -593 -640 -187 -89 -385 -245 -440 -348 -55 -103 -146 -187 -202 -187 -173 0 153 381 605 708 235 171 450 396 477 501 28 105 86 191 129 191 44 0 54 -101 24 -225z m-376 26 c-33 -55 -160 -152 -281 -215 -217 -114 -218 -114 -29 99 191 215 426 303 310 116z m14840 -844 c-7 -401 -51 -792 -99 -868 -54 -86 -89 219 -89 792 -1 597 34 909 98 869 55 -34 96 -391 90 -793z m1169 210 c5 -284 43 -780 84 -1100 40 -321 43 -808 5 -1083 -60 -433 -85 -475 -189 -316 -73 111 -113 512 -103 1032 10 468 23 1139 31 1492 15 752 159 731 172 -25z m-1573 -342 l-13 -875 -83 750 c-45 413 -63 806 -39 875 104 304 148 63 135 -750z m-298 -456 c7 -164 -30 -255 -88 -219 -55 34 -95 295 -88 581 10 446 22 477 88 219 42 -165 82 -426 88 -581z m-10326 150 c-238 -238 -303 -74 -95 242 154 236 188 251 217 97 19 -100 -36 -252 -122 -339z m9914 -294 c-34 -256 -42 -249 -117 99 -45 206 -45 454 -1 550 66 146 87 129 118 -99 20 -151 21 -399 0 -550z m-13778 423 c-70 -84 -147 -132 -172 -107 -70 69 71 259 192 259 66 0 59 -57 -20 -152z m13402 -368 c0 -283 -33 -387 -101 -319 -89 89 -33 739 64 739 20 0 37 -189 37 -420z m4460 -553 c-33 -33 -56 26 -52 131 5 117 28 141 60 61 29 -72 26 -159 -8 -192z m-3394 -152 c-28 -69 -50 -12 -50 125 0 138 22 194 50 125 28 -69 28 -181 0 -250z m-15566 131 c0 -52 -45 -122 -100 -156 -55 -34 -100 8 -100 94 0 86 45 156 100 156 55 0 100 -42 100 -94z m15172 -231 c215 -234 1148 -1730 1454 -2330 177 -348 312 -427 423 -247 82 133 -117 836 -408 1440 -133 275 -240 547 -238 606 3 120 590 -549 594 -678 2 -46 134 -271 295 -500 160 -229 323 -573 362 -766 39 -192 271 -795 514 -1338 490 -1093 679 -1624 776 -2187 73 -423 72 -423 -776 -284 -609 100 -1464 -51 -1696 -299 -175 -187 -185 -184 -471 142 -161 183 -474 459 -695 612 l-403 279 172 291 c168 283 165 306 -97 813 -597 1153 -966 2163 -997 2730 -42 763 138 797 365 69 281 -903 891 -2220 1029 -2224 216 -7 137 405 -175 911 -165 269 -300 529 -300 578 0 50 -95 308 -212 574 -310 709 -490 1442 -420 1718 l60 242 133 -238 c72 -132 134 -338 135 -459 2 -121 58 -346 125 -500 140 -323 943 -1492 1210 -1760 317 -319 381 -136 135 381 -131 274 -334 702 -451 949 -117 248 -349 692 -514 989 -166 296 -301 577 -301 625 0 152 159 92 372 -139z m1628 31 c0 -229 -158 -355 -252 -203 -84 136 14 397 149 397 57 0 103 -87 103 -194z m-15600 -6 c0 -55 -67 -100 -150 -100 -82 0 -150 45 -150 100 0 55 68 100 150 100 83 0 150 -45 150 -100z m2281 -676 c-204 -745 -481 -987 -481 -420 0 311 371 926 508 841 41 -25 29 -215 -27 -421z m-4181 187 c0 -96 -243 -213 -433 -208 -64 2 -30 69 77 150 220 167 356 189 356 58z m2575 -336 c-23 -69 -126 -141 -230 -162 -163 -31 -171 -14 -55 125 159 192 344 215 285 37z m8981 -365 c-30 -49 43 -362 163 -695 177 -494 256 -602 424 -586 171 17 212 -43 238 -354 39 -474 -210 -520 -342 -63 -49 172 -134 312 -189 312 -103 1 -274 491 -392 1121 -44 233 -29 355 43 355 61 0 86 -40 55 -90z m405 13 c117 -77 294 -1023 192 -1023 -66 0 -453 862 -453 1008 0 110 109 116 261 15z m-9461 -123 c0 -55 -45 -100 -100 -100 -55 0 -100 45 -100 100 0 55 45 100 100 100 55 0 100 -45 100 -100z m-700 -100 c0 -55 -112 -100 -250 -100 -137 0 -250 45 -250 100 0 55 113 100 250 100 138 0 250 -45 250 -100z m10893 -611 c134 -627 138 -1189 7 -1189 -55 0 -101 146 -102 325 -2 179 -50 505 -107 725 -237 906 -238 912 -64 768 88 -72 207 -355 266 -629z m3307 605 c0 -58 -45 -78 -100 -44 -55 34 -100 82 -100 106 0 24 45 44 100 44 55 0 100 -48 100 -106z m-2946 -1056 c31 -597 20 -691 -43 -388 -170 808 -218 1397 -105 1284 59 -59 126 -462 148 -896z m1144 129 c15 -339 33 -752 40 -917 6 -165 -33 -322 -88 -350 -63 -32 -108 357 -121 1050 -22 1133 121 1317 169 217z m-2790 135 c64 -329 179 -650 255 -713 207 -172 165 -311 -59 -191 -180 96 -456 784 -355 885 24 24 -2 128 -57 232 -89 165 -55 385 59 385 21 0 92 -269 157 -598z m2028 223 c96 -583 75 -1425 -36 -1425 -55 0 -100 169 -101 375 0 206 -29 611 -64 900 -73 608 103 740 201 150z m350 -706 c-15 -958 -59 -857 -109 248 -18 395 2 696 45 669 43 -26 72 -439 64 -917z m909 -1002 c3 -144 -43 -218 -120 -192 -85 28 -130 311 -141 883 l-16 842 136 -650 c75 -357 139 -755 141 -883z m315 -747 c-128 -128 -258 -29 -163 125 37 60 113 80 169 45 68 -42 66 -98 -6 -170z m-618 -595 c-4 -124 -30 -169 -58 -100 -60 148 -334 169 -334 25 0 -55 -67 -100 -150 -100 -82 0 -150 36 -150 80 0 155 243 320 470 320 174 0 228 -55 222 -225z m777 -23 c237 -210 258 -264 131 -348 -109 -73 -186 -53 -282 73 -417 544 -330 701 151 275z m-2173 -345 c164 -306 123 -466 -151 -591 -348 -159 -796 -146 -939 27 -94 113 -84 198 45 394 254 389 875 489 1045 170z m-1788 -707 c250 0 244 -206 -12 -481 -317 -340 -1056 -259 -839 92 49 80 87 79 138 -4 77 -124 405 -41 405 104 0 49 -90 89 -200 89 -110 0 -200 41 -200 92 0 119 214 203 383 150 73 -23 220 -42 325 -42z m6275 -885 c-184 -225 -251 -256 -316 -145 -107 181 97 430 353 430 185 0 183 -15 -37 -285z m-7703 -135 c209 -209 130 -460 -195 -623 -385 -192 -920 -212 -859 -32 23 69 138 111 254 94 274 -39 620 147 620 335 0 169 -158 195 -253 41 -45 -73 -103 -73 -190 -1 -69 57 -155 75 -191 38 -36 -36 -66 10 -66 101 0 127 92 167 380 167 209 0 434 -54 500 -120z m8870 -169 c-220 -101 -501 -303 -624 -448 -207 -242 -426 -347 -426 -203 0 32 73 183 163 335 180 305 530 479 987 492 294 8 292 5 -100 -176z m50 -911 c0 -55 -68 -100 -151 -100 -83 0 -226 -88 -318 -195 -190 -222 -331 -181 -331 94 0 177 162 251 625 287 96 8 175 -31 175 -86z m-10451 -1302 c-35 -56 -105 -75 -156 -44 -139 86 -113 146 63 146 86 0 128 -46 93 -102z m-894 -2045 c83 -198 145 -668 145 -1100 0 -485 39 -753 111 -753 77 0 100 338 73 1100 l-37 1100 301 -55 c166 -31 416 -67 556 -82 509 -51 502 -15 439 -2514 -82 -3243 -152 -4052 -362 -4184 -130 -82 -218 -63 -375 80 -261 236 -279 1108 -45 2173 147 671 266 3810 157 4156 -108 344 -197 -78 -210 -998 -9 -564 -82 -1476 -163 -2026 -81 -550 -199 -1394 -262 -1875 -80 -607 -156 -875 -249 -875 -156 0 -167 346 -33 1000 164 798 239 2400 113 2400 -63 0 -115 -11 -117 -25 -2 -14 -25 -407 -52 -875 -74 -1304 -253 -2310 -424 -2375 -268 -103 -471 125 -475 536 -12 1112 -55 1539 -155 1539 -70 0 -102 -242 -89 -675 42 -1414 -8 -1491 -498 -765 -316 468 -337 840 -47 840 79 0 143 90 143 200 0 110 45 200 100 200 55 0 100 70 100 156 0 86 -45 128 -101 94 -154 -96 -184 96 -236 1497 -29 800 -88 1311 -155 1334 -134 44 -145 619 -12 619 54 0 149 -98 214 -218 111 -208 122 -210 249 -36 95 129 104 236 34 368 -58 107 -61 186 -8 186 142 0 216 -411 110 -610 -175 -326 -64 -2190 130 -2190 60 0 70 368 26 986 -61 852 -49 993 89 1046 110 43 160 188 160 465 0 232 48 403 113 403 75 0 91 -132 49 -400 -40 -245 -25 -400 37 -400 55 0 101 -157 101 -350 0 -192 45 -350 100 -350 58 0 100 311 100 733 0 651 43 867 172 867 21 0 103 -156 183 -347z m-2305 -856 c-54 -320 -29 -400 168 -538 216 -151 234 -239 258 -1278 23 -990 4 -1140 -169 -1324 -277 -295 -396 -668 -297 -932 52 -137 47 -225 -12 -225 -54 0 -98 68 -98 150 0 225 -169 181 -232 -61 -115 -439 -311 -96 -496 867 -345 1791 -332 3344 26 3344 94 0 317 -1103 345 -1700 25 -547 149 -1185 279 -1436 168 -323 267 -34 168 486 -53 275 -94 748 -93 1050 2 303 -40 860 -94 1238 -107 746 -79 885 157 794 117 -45 138 -147 90 -435z m-9750 -555 c0 -87 -53 -141 -119 -119 -185 62 -216 277 -39 277 87 0 158 -71 158 -158z m8247 -1117 c38 -481 134 -975 212 -1096 164 -258 185 -590 41 -679 -149 -92 -121 -1060 50 -1716 83 -317 148 -668 146 -780 -3 -184 -17 -180 -142 46 -127 228 -146 234 -211 66 -51 -131 2 -248 179 -401 138 -118 283 -359 321 -534 63 -285 38 -336 -232 -475 l-302 -156 -50 325 c-44 290 -231 2925 -320 4525 -41 731 52 1750 159 1750 43 0 110 -394 149 -875z m-5981 398 c64 -41 165 -345 225 -676 60 -330 193 -830 295 -1109 227 -620 1609 -2738 1786 -2738 179 0 160 349 -28 505 -495 411 -1504 2303 -1643 3080 -124 695 -74 906 106 453 320 -801 571 -1334 844 -1787 486 -810 952 -1451 1054 -1451 150 0 111 362 -54 499 -311 258 -966 1333 -1206 1979 -320 859 -322 872 -154 872 156 0 390 -556 401 -955 14 -457 714 -1405 1077 -1458 188 -28 158 12 480 -637 150 -302 381 -693 512 -868 170 -226 239 -450 239 -769 0 -601 -167 -676 -379 -172 -182 434 -291 505 -387 254 -76 -199 260 -830 478 -899 152 -48 331 -436 243 -525 -103 -102 -574 351 -865 831 -329 543 -590 764 -590 501 0 -78 45 -169 100 -203 203 -125 95 -243 -129 -141 -126 57 -475 438 -775 845 -510 691 -696 868 -696 660 0 -86 294 -544 715 -1112 315 -427 170 -473 -228 -73 -498 501 -887 1075 -889 1312 -1 115 -136 407 -300 649 -164 242 -298 514 -298 605 0 91 -40 208 -89 260 -115 122 -315 1073 -299 1425 7 179 27 209 58 89 26 -99 99 -161 163 -139 125 44 126 131 13 645 -70 321 -7 392 220 248z m-776 -1083 c125 -1031 419 -1980 710 -2290 108 -115 226 -365 261 -555 l64 -345 -251 250 c-485 483 -1291 3550 -1007 3833 101 102 106 83 223 -893z m14866 -90 c46 -200 36 -267 -30 -200 -55 55 -132 235 -170 400 -47 200 -37 267 30 200 55 -55 131 -235 170 -400z m-8779 -219 l16 -481 -141 443 c-136 425 -121 661 36 564 41 -25 81 -262 89 -526z m-328 -426 c99 -328 227 -586 285 -575 63 12 174 -540 277 -1380 219 -1778 235 -2687 51 -2840 -111 -92 -160 -24 -258 363 -92 367 -281 2553 -301 3502 -2 69 -49 125 -106 125 -144 0 -21 -2865 161 -3732 250 -1198 150 -1518 -232 -743 -259 522 -431 1428 -412 2168 7 307 33 456 57 332 23 -124 90 -225 148 -225 65 0 77 103 30 275 -41 151 -88 860 -106 1575 -46 1865 81 2227 406 1155z m1641 -1330 c6 -151 -30 -275 -80 -275 -96 0 -198 879 -112 965 67 66 179 -340 192 -690z m546 -650 c34 -206 61 -510 60 -675 -3 -452 -169 -105 -253 530 -80 603 95 735 193 145z m456 -65 c121 -146 49 -660 -92 -660 -44 0 -96 180 -117 400 -40 421 16 492 209 260z m6768 -1131 c-92 -263 -279 -837 -415 -1275 -136 -438 -292 -841 -346 -895 -142 -142 -131 -89 206 1004 167 543 358 1325 423 1737 l118 750 90 -421 c69 -319 50 -536 -76 -900z m-7512 697 c39 -207 143 -499 232 -650 127 -214 136 -300 41 -395 -76 -76 -153 -85 -207 -26 -83 92 -314 1135 -314 1418 0 272 179 23 248 -347z m1996 183 c95 -153 -52 -400 -202 -342 -78 30 -142 5 -142 -56 0 -61 45 -111 100 -111 134 0 128 -471 -7 -554 -153 -95 -208 -8 -300 475 -65 345 -49 453 82 554 192 147 391 162 469 34z m632 -417 c14 -133 40 -515 58 -850 18 -334 64 -658 103 -721 39 -63 -90 -290 -290 -511 l-360 -398 307 -159 c325 -168 360 -253 215 -529 -49 -96 -138 -355 -197 -576 -58 -221 -174 -491 -256 -600 -138 -183 -142 -171 -53 151 127 457 122 527 -28 441 -73 -42 -90 -34 -42 19 46 50 136 91 199 91 63 0 130 90 147 200 26 165 14 174 -72 50 -57 -82 -105 -103 -105 -45 -1 58 48 155 109 216 138 138 16 361 -161 293 -136 -52 -246 218 -249 607 0 121 117 330 261 464 226 209 254 297 198 629 -35 212 -81 506 -102 654 -20 147 -66 315 -102 373 -90 145 130 530 276 482 65 -22 130 -148 144 -281z m-8876 -148 c0 -24 -45 -44 -100 -44 -55 0 -100 48 -100 106 0 58 45 78 100 44 55 -34 100 -82 100 -106z m9281 -38 c25 -75 -12 -112 -87 -87 -72 24 -151 103 -175 175 -25 75 12 112 87 87 72 -24 151 -103 175 -175z m-1848 -678 c57 -527 -27 -730 -209 -502 -130 163 -255 1043 -168 1183 126 205 317 -141 377 -681z m2267 -222 c0 -217 -46 -422 -101 -457 -65 -40 -92 105 -75 394 32 558 176 610 176 63z m-7950 -107 c34 -54 172 -99 306 -99 134 0 244 -50 244 -111 0 -68 -95 -87 -246 -49 -512 129 -754 260 -754 411 0 124 40 134 194 52 107 -57 223 -149 256 -204z m12110 -172 c-33 -33 -56 26 -52 131 5 117 28 141 60 61 29 -72 26 -159 -8 -192z m-7123 -368 c60 -323 52 -510 -23 -585 -161 -161 -200 -80 -276 570 -56 477 -43 574 72 536 77 -25 179 -260 227 -521z m10544 288 c-31 -30 -87 25 -125 124 -54 142 -42 154 56 56 69 -68 99 -149 69 -180z m-19781 -153 c0 -58 -45 -78 -100 -44 -55 34 -100 82 -100 106 0 24 45 44 100 44 55 0 100 -48 100 -106z m19014 -2694 c119 -302 271 -618 339 -700 68 -82 250 -420 404 -750 154 -330 423 -802 596 -1050 348 -495 485 -800 359 -800 -355 0 -2150 3415 -2455 4672 -304 1251 -248 1359 143 278 219 -605 495 -1347 614 -1650z m1277 1955 c414 -755 481 -955 320 -955 -88 0 -811 1436 -811 1610 0 192 97 63 491 -655z m-11591 70 c176 -891 200 -949 340 -834 67 57 283 76 479 45 343 -56 358 -76 416 -569 34 -288 18 -554 -37 -609 -54 -54 -98 -196 -98 -316 0 -120 -60 -268 -134 -329 -107 -89 -160 -28 -257 297 -108 361 -101 433 59 609 176 195 173 207 -110 433 -160 128 -441 260 -623 294 -375 70 -499 247 -594 838 -81 504 -7 716 249 716 159 0 217 -109 310 -575z m-3402 -350 c4 -150 -194 -70 -294 118 -176 329 -110 471 96 207 108 -137 197 -284 198 -325z m4733 218 c28 -106 6 -220 -47 -253 -126 -78 -154 -45 -237 286 -56 222 -39 265 82 218 83 -32 174 -145 202 -251z m-9911 -169 c-17 -168 17 -335 75 -371 58 -36 105 -142 105 -237 0 -167 521 -1454 839 -2073 87 -169 335 -493 551 -721 255 -267 377 -478 346 -595 -29 -110 96 -370 313 -655 448 -587 301 -629 -166 -47 -502 624 -935 1340 -1288 2128 -171 383 -443 978 -603 1322 -161 344 -292 718 -292 832 0 113 -47 294 -105 402 -117 218 -38 423 139 361 64 -22 102 -178 86 -346z m727 -199 c178 -151 471 -355 652 -453 180 -98 301 -206 267 -239 -63 -64 -1092 608 -1282 836 -189 227 27 142 363 -144z m20702 -87 c83 -199 149 -413 147 -475 -5 -183 -495 470 -496 662 0 296 189 194 349 -187z m-18906 105 c86 -87 157 -201 157 -254 0 -122 -318 42 -495 256 -108 129 -103 155 26 155 85 0 225 -71 312 -157z m1747 -374 c-9 -305 -14 -308 -90 -69 -115 359 -115 521 0 450 55 -34 96 -205 90 -381z m567 -7 c52 -212 38 -277 -56 -246 -70 24 -139 191 -153 372 -30 380 104 299 209 -126z m13210 -662 c72 -193 131 -408 131 -480 1 -71 92 -316 202 -544 233 -481 255 -646 66 -489 -73 61 -190 302 -259 537 -69 234 -185 561 -257 726 -73 165 -155 413 -183 550 -28 138 -77 363 -110 500 -69 290 201 -235 410 -800z m-11482 270 c19 -491 -369 -1558 -494 -1356 -44 71 -42 176 3 233 126 157 319 1060 311 1453 -11 504 158 194 180 -330z m850 -46 c110 -178 -482 -2189 -1304 -4427 -288 -785 -421 -1012 -758 -1295 -256 -215 -424 -298 -449 -223 -23 67 -124 121 -226 121 -103 0 -209 36 -236 81 -27 44 191 505 484 1025 680 1202 1630 3101 1818 3633 80 226 218 726 308 1111 147 635 169 671 229 391 37 -170 97 -357 134 -417z m-5778 -340 c389 -294 951 -811 1250 -1150 497 -564 793 -768 793 -547 0 47 -91 201 -201 342 l-202 256 402 -158 c220 -86 401 -198 401 -247 0 -150 -300 -680 -384 -680 -108 0 -1070 927 -1650 1589 -259 296 -500 510 -536 475 -131 -132 248 -633 1179 -1560 933 -929 956 -963 871 -1283 -56 -211 -176 -363 -334 -422 -266 -102 -305 -200 -142 -363 70 -70 71 -188 2 -369 -88 -233 -145 -261 -453 -221 -410 52 -422 18 -150 -427 188 -308 191 -519 7 -519 -96 0 -310 689 -310 999 0 194 39 218 280 170 154 -31 338 -20 409 24 153 95 32 352 -414 885 -151 181 -274 406 -272 500 3 136 43 120 195 -78 363 -473 510 -607 603 -550 101 63 -441 886 -954 1450 -450 495 -865 1150 -1178 1863 -148 336 -269 642 -269 678 0 102 287 -76 1057 -657z m3990 -997 l-34 -1313 -581 -1138 c-320 -626 -598 -1087 -619 -1026 -20 62 181 546 448 1076 l485 964 11 1100 c7 685 61 1204 143 1375 73 151 143 275 157 275 13 0 9 -591 -10 -1313z m-1608 1055 c38 -98 15 -143 -58 -119 -149 50 -231 277 -100 277 54 0 125 -71 158 -158z m16295 -59 c94 -150 14 -564 -89 -461 -28 28 -92 195 -143 371 -98 340 40 394 232 90z m1734 -158 c96 -151 277 -402 403 -558 126 -155 229 -382 229 -505 0 -122 53 -275 118 -340 65 -65 93 -144 62 -176 -31 -31 -222 227 -424 574 -201 346 -458 776 -570 955 -113 179 -156 325 -98 325 59 0 185 -124 280 -275z m-11553 -571 c-96 -380 -223 -707 -282 -726 -137 -46 -241 339 -151 557 81 196 557 910 586 880 12 -11 -57 -331 -153 -711z m11066 552 c25 -75 -12 -112 -87 -87 -72 24 -151 103 -175 175 -25 75 12 112 87 87 72 -24 151 -103 175 -175z m-18733 -304 c214 -219 367 -421 339 -448 -27 -27 -247 152 -489 398 -242 246 -394 448 -339 448 55 0 275 -179 489 -398z m18307 89 c88 -170 134 -376 103 -457 -69 -179 -573 -144 -635 44 -23 71 19 116 93 100 82 -17 126 50 112 172 -24 218 36 450 116 450 28 0 123 -139 211 -309z m-3635 -453 c0 -258 78 -476 240 -668 132 -157 240 -349 240 -428 0 -242 -401 -157 -708 150 -336 337 -376 708 -130 1201 198 398 358 285 358 -255z m-5308 235 c-98 -98 -110 -86 -56 56 38 99 94 154 125 124 30 -31 0 -112 -69 -180z m-4628 -1131 c-65 -331 -220 -717 -350 -875 -129 -155 -234 -238 -234 -183 0 155 617 1732 661 1688 21 -21 -13 -305 -77 -630z m12875 308 c-87 -348 31 -750 222 -750 124 0 132 27 39 120 -135 135 -163 480 -39 480 118 0 433 -697 365 -807 -32 -51 -126 -93 -209 -93 -91 0 -137 -70 -116 -175 25 -121 115 -167 292 -149 217 23 281 -37 421 -395 174 -442 143 -543 -182 -598 -187 -31 -327 160 -814 1109 -40 79 -155 225 -255 325 -224 224 -236 662 -27 961 211 301 382 285 303 -28z m-19951 -375 c117 -234 374 -663 571 -953 312 -460 340 -546 214 -672 -127 -126 -228 -120 -794 52 -638 194 -653 206 -887 748 l-237 551 273 215 c150 119 325 274 388 346 180 206 246 166 472 -287z m20788 180 c66 -80 103 -226 82 -325 -30 -142 -75 -111 -211 145 -175 330 -92 446 129 180z m-16098 -330 c-2 -575 -159 -722 -227 -212 -59 443 -26 587 135 587 52 0 93 -169 92 -375z m4402 183 c0 -105 49 -208 110 -228 72 -24 24 -292 -140 -783 -138 -411 -273 -972 -301 -1247 -28 -275 -98 -612 -154 -750 -102 -249 -102 -249 -109 58 -3 170 38 552 91 850 54 298 149 936 211 1417 62 481 153 875 202 875 50 0 90 -86 90 -192z m14219 -61 c89 -193 87 -281 -6 -374 -120 -120 -231 -32 -348 277 -21 55 -75 65 -120 22 -46 -42 -26 -237 45 -432 71 -195 101 -382 68 -416 -106 -106 -270 138 -359 532 -70 308 -54 406 82 509 266 203 513 157 638 -118z m-4788 -300 c185 -387 211 -547 91 -547 -110 0 -422 548 -422 740 0 269 154 179 331 -193z m-8867 22 c-94 -375 -476 -1190 -532 -1134 -45 45 297 1070 429 1283 101 163 159 77 103 -149z m12436 81 c0 -82 -17 -150 -38 -150 -21 0 -94 68 -162 150 -102 123 -95 150 38 150 89 0 162 -67 162 -150z m-751 -911 c89 -308 141 -583 114 -609 -75 -75 -463 735 -463 966 0 391 187 200 349 -357z m-22420 163 c29 -111 16 -202 -28 -202 -83 0 -201 244 -201 414 0 163 172 3 229 -212z m23407 3 c-43 -213 0 -369 153 -563 116 -148 209 -387 207 -530 l-3 -262 -237 290 c-130 159 -263 418 -294 575 -87 436 -281 354 -215 -90 46 -302 38 -331 -42 -150 -54 124 -168 225 -252 225 -103 0 -153 97 -153 300 0 251 40 300 244 300 134 0 272 45 306 100 34 55 126 100 203 100 104 0 126 -79 83 -295z m408 -395 c-63 -63 -242 191 -239 340 1 55 67 13 147 -93 80 -106 121 -217 92 -247z m-23187 -974 c583 -193 893 -451 1153 -957 251 -490 240 -642 -61 -839 -325 -213 -509 -70 -600 465 -36 217 -107 419 -158 450 -50 31 -91 141 -91 245 0 286 -198 347 -363 112 -140 -200 -156 -202 -329 -36 -146 139 -198 454 -116 699 13 41 52 32 565 -139z m22497 -1057 c566 -864 656 -1060 583 -1267 -48 -135 -132 -260 -187 -279 -109 -35 -397 418 -793 1250 -139 294 -367 669 -506 834 -270 321 -254 483 47 483 127 0 403 -330 856 -1021z m-1864 -244 c232 -471 404 -874 382 -896 -22 -23 -122 140 -222 361 -99 220 -245 454 -323 519 -129 108 -527 804 -527 924 0 28 60 28 134 -1 74 -28 324 -436 556 -907z m-20350 -51 c-34 -55 -115 -46 -198 22 -77 64 -114 159 -82 210 34 55 115 46 198 -22 77 -64 114 -159 82 -210z m5620 -436 c-82 -223 -149 -313 -153 -205 -9 255 235 927 271 745 15 -78 -38 -321 -118 -540z m-3660 410 c0 -23 27 -113 61 -200 43 -113 1 -158 -150 -158 -231 0 -279 -192 -93 -378 150 -150 -186 -556 -395 -476 -107 41 -124 -12 -76 -232 84 -381 -224 -1058 -410 -903 -71 58 -171 80 -223 48 -103 -64 -556 632 -469 720 30 29 136 -22 237 -113 192 -174 418 -221 418 -88 0 43 -67 174 -150 292 -189 269 -123 444 252 665 162 96 414 330 558 520 227 296 440 444 440 303z m3143 -601 c-37 -146 -86 -247 -110 -223 -23 23 -13 162 24 309 37 146 86 247 110 223 23 -23 13 -162 -24 -309z m-4963 -190 c-17 -111 -82 -219 -147 -240 -131 -43 -215 233 -151 500 60 252 338 10 298 -260z m4087 67 c-41 -249 -188 -489 -463 -753 -439 -422 -466 -385 -271 369 92 353 202 536 373 624 374 189 425 156 361 -240z m-5069 -259 c0 -69 -40 -186 -87 -261 -110 -173 -255 28 -173 241 68 178 263 193 260 20z m6146 -519 c-37 -201 -88 -345 -112 -321 -25 25 -14 209 24 409 37 201 88 345 112 321 25 -25 14 -209 -24 -409z m16053 -731 c167 -536 413 -1245 547 -1575 134 -330 335 -915 446 -1300 236 -819 392 -2787 229 -2888 -71 -44 -106 148 -106 579 0 696 -322 2069 -867 3709 -183 550 -398 1247 -478 1550 -80 303 -178 629 -217 725 -43 103 -28 175 35 175 59 0 244 -439 411 -975z m496 325 c1 -160 -16 -170 -83 -50 -45 83 -112 285 -147 450 l-65 300 148 -250 c81 -137 147 -340 147 -450z m-17074 -174 c-61 -390 -200 -787 -358 -1019 l-257 -380 -105 276 c-58 151 -81 298 -52 328 29 29 53 14 53 -32 0 -46 113 22 250 151 304 285 317 400 44 400 -117 0 -178 45 -141 104 35 58 4 178 -69 267 -80 96 -94 175 -34 196 55 19 235 118 400 220 165 102 315 173 334 157 19 -16 -11 -316 -65 -668z m-5097 -378 c23 -205 -15 -248 -221 -248 -310 0 -401 330 -142 519 212 155 325 71 363 -271z m4288 -43 c156 -165 100 -248 -272 -404 -199 -83 -379 -151 -400 -151 -21 0 -38 200 -38 443 0 410 21 446 275 475 181 21 287 -19 310 -118 19 -82 75 -193 125 -245z m-1050 72 c-33 -33 -56 26 -52 131 5 117 28 141 60 61 29 -72 26 -159 -8 -192z m-2660 -89 c0 -82 -45 -122 -100 -88 -55 34 -100 129 -100 212 0 82 45 122 100 88 55 -34 100 -129 100 -212z m21791 -138 c-3 -99 -34 -82 -91 50 -118 275 -118 433 0 250 53 -82 94 -217 91 -300z m-17025 -25 c-28 -69 -50 -12 -50 125 0 138 22 194 50 125 28 -69 28 -181 0 -250z m-4206 -248 c-33 -33 -56 26 -52 131 5 117 28 141 60 61 29 -72 26 -159 -8 -192z m4740 -177 c0 -131 -42 -264 -92 -295 -51 -32 -122 -191 -158 -355 -91 -416 -261 -488 -188 -80 126 707 251 1084 343 1027 52 -32 95 -166 95 -297z m-5600 -131 c0 -44 -66 -168 -147 -275 -200 -264 -189 -325 64 -362 120 -18 239 -99 266 -182 40 -122 22 -127 -99 -27 -112 92 -177 94 -263 8 -86 -86 -130 -67 -176 77 -34 106 -103 297 -154 424 -52 128 -68 275 -36 325 70 114 545 124 545 12z m-807 -450 c4 -44 -38 -53 -93 -19 -55 34 -97 160 -93 281 7 211 10 212 93 19 47 -110 89 -236 93 -281z m1372 -38 c-139 -138 -253 92 -138 278 122 197 123 196 156 -14 18 -117 10 -235 -18 -264z m21932 119 c0 -55 -44 -32 -97 50 -53 83 -97 195 -97 250 0 55 44 33 97 -50 53 -82 97 -195 97 -250z m-20331 -325 c-26 -96 -126 -535 -222 -975 -96 -440 -210 -840 -253 -889 -200 -226 143 1589 369 1956 90 145 155 89 106 -92z m20887 -933 c175 -458 248 -818 225 -1110 -39 -483 -91 -404 -308 468 -82 330 -219 848 -305 1150 -211 747 29 432 388 -508z m-23014 -133 c-33 -88 -119 -159 -191 -159 -203 0 -239 231 -66 429 132 151 168 156 237 33 45 -79 54 -216 20 -303z m22039 -1359 c191 -953 253 -1631 143 -1563 -55 34 -132 378 -171 763 -39 385 -111 726 -160 756 -50 31 -90 220 -90 420 0 493 143 300 278 -376z m-639 -658 c34 -87 61 -243 61 -347 0 -240 -268 -154 -353 113 -106 334 169 554 292 234z m830 -1517 c-25 -96 -46 -17 -46 175 0 193 21 271 46 175 25 -96 25 -254 0 -350z"/>
<path d="M17200 31050 c0 -119 74 -155 275 -132 151 18 275 77 275 132 0 55 -124 114 -275 132 -201 23 -275 -13 -275 -132z"/>
<path d="M11913 21205 c-10 -486 15 -617 102 -530 84 84 87 258 13 645 l-102 530 -13 -645z"/>
<path d="M5500 19256 c0 -79 45 -172 100 -206 55 -34 100 -149 100 -256 0 -107 40 -194 88 -194 151 0 206 413 82 612 -139 222 -370 250 -370 44z"/>
<path d="M9034 16425 c26 -96 75 -299 109 -450 95 -429 277 -337 198 100 -80 444 -119 525 -254 525 -55 0 -79 -79 -53 -175z"/>
<path d="M10300 14400 c0 -55 45 -100 100 -100 55 0 100 45 100 100 0 55 -45 100 -100 100 -55 0 -100 -45 -100 -100z"/>
<path d="M661 12418 c-95 -154 110 -518 293 -518 196 0 184 131 -38 405 -124 153 -207 190 -255 113z"/>
<path d="M14300 52403 c0 -91 193 -119 1017 -146 119 -4 232 40 251 97 21 64 -218 114 -617 129 -397 14 -651 -16 -651 -80z"/>
<path d="M20286 52308 c242 -213 659 -278 757 -119 30 49 -68 112 -219 140 -151 29 -386 82 -524 119 l-250 67 236 -207z"/>
<path d="M780 52100 c-75 -172 -193 -1204 -188 -1649 4 -349 193 -851 320 -851 114 0 115 272 1 342 -135 84 -210 877 -101 1080 54 101 84 419 66 706 -18 287 -62 455 -98 372z"/>
<path d="M15916 52076 c-64 -64 -117 -231 -119 -371 -2 -140 -68 -340 -147 -445 -224 -296 -58 -402 225 -143 l253 233 -66 -275 c-54 -227 -32 -275 124 -275 104 0 247 69 317 154 105 127 87 241 -108 656 -270 577 -320 625 -479 466z"/>
<path d="M1075 50842 c-114 -115 -89 -821 32 -896 58 -36 119 -50 135 -31 67 81 -98 997 -167 927z"/>
<path d="M4831 49667 c38 -101 69 -199 69 -217 0 -95 721 -462 780 -398 39 42 9 97 -65 123 -74 27 -296 189 -494 362 -251 219 -338 258 -290 130z"/>
<path d="M3267 49633 c-37 -36 -67 -149 -67 -250 0 -100 -94 -277 -208 -391 -115 -115 -179 -239 -142 -275 112 -112 550 477 550 739 0 256 -23 287 -133 177z"/>
<path d="M2205 49409 c-62 -115 -70 -209 -19 -209 103 0 244 303 174 373 -24 24 -94 -50 -155 -164z"/>
<path d="M11431 49147 c287 -253 569 -326 569 -147 0 55 -62 100 -138 100 -76 0 -194 68 -262 150 -68 83 -198 149 -287 147 -120 -2 -89 -68 118 -250z"/>
<path d="M24629 49143 c-328 -257 -658 -733 -774 -1118 -108 -355 112 -263 239 100 62 178 300 515 528 748 473 481 477 638 7 270z"/>
<path d="M4500 49208 c0 -173 517 -708 684 -708 120 1 76 85 -159 306 -179 167 -325 347 -325 399 0 52 -45 95 -100 95 -55 0 -100 -42 -100 -92z"/>
<path d="M1657 47422 c-177 -535 -128 -1299 113 -1722 l141 -250 -58 250 c-32 138 -85 545 -119 905 -48 528 -28 687 103 818 182 182 209 337 71 422 -50 31 -163 -159 -251 -423z"/>
<path d="M1200 47700 c0 -55 20 -100 44 -100 24 0 72 45 106 100 34 55 14 100 -44 100 -58 0 -106 -45 -106 -100z"/>
<path d="M658 47254 c-186 -317 -274 -620 -289 -998 -12 -298 -55 -575 -94 -615 -40 -39 -44 -252 -8 -473 55 -347 41 -393 -102 -338 -238 92 -210 -148 85 -729 181 -359 410 -602 841 -895 325 -220 611 -458 636 -529 25 -70 79 -96 119 -59 115 106 -254 532 -666 769 -207 119 -491 416 -639 669 -257 439 -260 458 -78 596 103 78 245 143 316 145 138 3 902 -698 1812 -1661 319 -339 1052 -938 1347 -1102 224 -125 403 -81 307 74 -32 52 80 232 248 401 415 415 400 591 -52 591 -278 0 -372 46 -413 204 -88 335 -276 161 -309 -287 -17 -229 -57 -417 -90 -417 -116 0 -685 484 -1250 1064 -314 322 -683 699 -819 836 -328 331 -755 968 -933 1391 -169 402 -102 904 184 1397 109 185 178 356 155 379 -23 23 -162 -163 -308 -413z"/>
<path d="M9475 47542 c-71 -71 285 -442 425 -442 158 0 117 111 -115 313 -244 212 -232 207 -310 129z"/>
<path d="M23563 47429 c-35 -98 -89 -235 -121 -304 -32 -69 -15 -125 39 -125 53 0 127 118 163 262 76 302 12 433 -81 167z"/>
<path d="M7300 47403 c0 -56 132 -103 294 -103 162 0 322 -45 356 -100 34 -55 250 -100 481 -99 412 0 414 3 162 134 -346 181 -1293 304 -1293 168z"/>
<path d="M963 46975 c-97 -363 -72 -971 50 -1207 222 -428 804 -1069 911 -1003 70 43 36 125 -94 231 -111 90 -326 360 -479 602 -227 359 -274 543 -263 1020 14 615 -26 728 -125 357z"/>
<path d="M7035 46946 c-33 -85 -29 -185 7 -222 82 -82 381 96 435 258 60 178 -374 142 -442 -36z"/>
<path d="M4320 46880 c-163 -163 -152 -380 19 -380 168 0 301 300 184 417 -46 46 -137 29 -203 -37z"/>
<path d="M5700 46956 c0 -106 192 -150 249 -58 35 56 -7 102 -93 102 -86 0 -156 -20 -156 -44z"/>
<path d="M8346 46593 c-36 -58 -41 -131 -10 -162 82 -82 364 46 364 166 0 136 -270 133 -354 -4z"/>
<path d="M23250 46000 c-34 -55 -17 -100 38 -100 55 0 128 45 162 100 34 55 17 100 -38 100 -55 0 -128 -45 -162 -100z"/>
<path d="M7501 45651 c-100 -120 -93 -160 39 -211 165 -63 460 111 460 272 0 144 -366 100 -499 -61z"/>
<path d="M23088 45550 c-7 -27 -19 -91 -25 -142 -7 -50 -47 -125 -88 -166 -167 -168 78 -1535 318 -1775 199 -199 202 0 5 386 -216 424 -265 1235 -94 1554 71 133 71 193 0 193 -57 0 -110 -22 -116 -50z"/>
<path d="M23400 44739 c0 -339 563 -1409 680 -1292 26 25 -72 289 -217 585 -144 296 -263 657 -263 803 0 146 -45 265 -100 265 -55 0 -100 -162 -100 -361z"/>
<path d="M6 43400 c-3 -82 74 -262 170 -400 248 -357 1425 -1517 1756 -1731 153 -99 305 -257 338 -350 88 -254 851 -1019 1015 -1019 82 0 -77 247 -371 575 -690 771 -736 818 -1714 1759 -468 450 -926 930 -1020 1067 -110 161 -171 196 -174 99z"/>
<path d="M1400 39792 c0 -244 234 -210 282 41 19 99 -32 167 -125 167 -92 0 -157 -85 -157 -208z"/>
<path d="M12350 38600 c-34 -55 -14 -100 44 -100 58 0 106 45 106 100 0 55 -20 100 -44 100 -24 0 -72 -45 -106 -100z"/>
<path d="M2962 35545 c-33 -86 5 -254 84 -375 79 -121 146 -265 149 -320 8 -170 173 -112 495 176 171 151 310 230 310 175 0 -56 47 -101 105 -101 57 0 23 113 -75 252 -124 173 -251 240 -407 213 -125 -21 -252 1 -281 48 -87 141 -316 100 -380 -68z"/>
<path d="M4800 35450 c0 -82 18 -150 39 -150 22 0 66 68 97 150 32 83 14 150 -39 150 -53 0 -97 -67 -97 -150z"/>
<path d="M0 35145 c0 -192 297 -781 362 -717 68 68 -196 872 -286 872 -42 0 -76 -70 -76 -155z"/>
<path d="M15900 33054 c0 -81 168 -261 373 -400 390 -266 627 -324 627 -154 0 55 -43 100 -97 100 -53 0 -250 135 -438 300 -384 338 -465 364 -465 154z"/>
<path d="M8366 31391 c-99 -280 -156 -534 -126 -565 31 -30 83 31 117 135 33 104 98 279 143 389 157 383 193 550 120 550 -40 0 -154 -229 -254 -509z"/>
<path d="M12078 31430 c-22 -44 43 -237 145 -430 l185 -350 -29 392 c-26 358 -202 585 -301 388z"/>
<path d="M11561 31018 c-31 -50 33 -172 141 -270 167 -151 198 -155 198 -26 0 192 -262 421 -339 296z"/>
<path d="M7998 30343 c-145 -380 -121 -500 102 -500 110 0 200 35 200 78 0 44 -49 79 -108 79 -68 0 -83 111 -42 300 81 367 -19 395 -152 43z"/>
<path d="M1550 30125 c-40 -96 -96 -592 -125 -1103 -29 -510 -84 -947 -123 -971 -39 -24 -36 -259 7 -522 116 -705 112 -1216 -9 -1029 -53 83 -102 308 -107 500 l-11 350 -98 -350 c-170 -602 -317 -675 -729 -361 -319 244 -355 252 -355 82 0 -127 171 -275 526 -455 622 -314 906 -334 1161 -78 104 103 250 212 325 242 97 39 105 79 27 137 -273 205 -389 903 -383 2308 3 784 -3 1425 -15 1425 -11 0 -52 -79 -91 -175z"/>
<path d="M7832 29571 c-41 -66 -65 -424 -54 -796 16 -541 -9 -675 -129 -675 -82 0 -149 -45 -149 -100 0 -55 -107 -100 -238 -100 -131 0 -293 -67 -360 -148 -68 -81 -220 -143 -338 -136 -118 6 -529 -102 -914 -241 -385 -139 -857 -281 -1050 -315 -192 -35 -575 -149 -850 -254 -275 -105 -723 -255 -995 -334 -273 -79 -515 -201 -538 -272 -63 -188 293 -94 1760 462 345 131 758 238 919 238 161 0 322 48 358 107 37 59 124 85 194 58 70 -27 177 0 238 61 156 156 206 63 106 -200 -47 -123 -334 -383 -638 -578 -305 -195 -554 -420 -554 -501 0 -198 28 -190 413 128 581 480 1093 1035 1037 1124 -63 103 136 248 223 162 32 -33 -20 -147 -117 -255 -97 -107 -158 -251 -134 -321 24 -73 122 9 232 194 104 177 245 321 314 321 68 0 215 98 327 218 112 119 225 195 252 168 27 -27 -37 -350 -142 -718 -105 -367 -155 -668 -110 -668 44 0 109 143 143 317 82 409 511 1316 694 1468 110 91 169 84 266 -33 110 -132 110 -285 4 -702 -14 -55 -20 -345 -14 -645 21 -937 202 -432 251 697 25 576 49 1079 53 1116 4 37 109 82 232 100 123 18 240 114 259 215 30 160 7 169 -187 65 -272 -146 -392 -3 -394 466 -2 328 -237 522 -370 307z m361 -1096 c4 -41 -38 -75 -93 -75 -55 0 -97 124 -93 275 6 244 17 252 93 75 47 -110 89 -234 93 -275z"/>
<path d="M19500 29513 c0 -48 174 -115 387 -149 213 -34 443 -130 512 -213 69 -83 187 -151 263 -151 247 0 145 291 -157 447 -317 164 -1005 209 -1005 66z"/>
<path d="M18800 28805 c0 -52 216 -356 481 -675 265 -319 567 -726 672 -905 164 -280 447 -447 447 -265 0 108 -597 949 -1029 1452 -410 475 -571 586 -571 393z"/>
<path d="M8462 28319 c-39 -63 -22 -295 37 -517 131 -486 350 -555 246 -77 -118 539 -205 721 -283 594z"/>
<path d="M7658 27575 c-112 -549 -165 -2121 -68 -2025 110 110 278 2250 177 2250 -35 0 -84 -101 -109 -225z"/>
<path d="M6248 26194 c-148 -444 -243 -833 -211 -864 60 -60 146 137 362 820 69 220 165 478 213 574 112 220 111 276 -4 276 -50 0 -212 -363 -360 -806z"/>
<path d="M4700 26510 c-82 -45 -363 -111 -624 -144 -363 -48 -608 -171 -1050 -529 -589 -478 -924 -883 -925 -1120 -1 -221 239 -70 300 187 33 140 342 458 745 768 547 419 765 528 1060 528 223 0 466 79 608 197 237 197 166 269 -114 113z"/>
<path d="M1450 25752 c-220 -189 -365 -346 -323 -348 126 -6 873 515 873 609 0 157 -145 89 -550 -261z"/>
<path d="M352 25252 c-218 -187 -368 -370 -331 -406 74 -74 879 540 879 671 0 150 -144 80 -548 -265z"/>
<path d="M22000 25192 c0 -41 56 -95 125 -119 92 -32 78 -97 -50 -241 -209 -236 -231 -475 -37 -400 76 29 312 13 525 -35 290 -66 422 -53 527 51 223 222 -307 793 -752 808 -186 7 -338 -22 -338 -64z"/>
<path d="M6271 25000 c-29 -110 -11 -225 38 -256 50 -31 91 -12 91 42 0 54 27 169 61 256 33 87 16 158 -39 158 -54 0 -122 -90 -151 -200z"/>
<path d="M24200 25011 c0 -49 71 -117 158 -150 226 -87 243 -79 178 89 -61 160 -336 210 -336 61z"/>
<path d="M16236 24569 c111 -441 267 -799 323 -743 81 81 -148 855 -276 935 -77 47 -92 -12 -47 -192z"/>
<path d="M24450 24400 c-34 -55 8 -100 94 -100 86 0 156 45 156 100 0 55 -42 100 -94 100 -52 0 -122 -45 -156 -100z"/>
<path d="M24812 24163 c-114 -326 -114 -400 1 -472 156 -98 222 131 167 583 -32 266 -38 262 -168 -111z"/>
<path d="M23200 24343 c0 -203 243 -443 450 -443 133 0 332 -97 443 -215 159 -171 229 -191 343 -96 352 292 -182 787 -730 677 -174 -35 -306 -19 -306 37 0 53 -45 97 -100 97 -55 0 -100 -25 -100 -57z"/>
<path d="M16800 24064 c0 -29 248 -557 550 -1173 303 -616 550 -1181 550 -1256 0 -74 45 -135 100 -135 216 0 75 495 -426 1495 -288 575 -580 1063 -649 1084 -69 21 -125 14 -125 -15z"/>
<path d="M21450 24000 c-34 -55 -14 -100 44 -100 58 0 106 45 106 100 0 55 -20 100 -44 100 -24 0 -72 -45 -106 -100z"/>
<path d="M22600 23944 c-192 -73 -468 -135 -613 -138 -336 -8 -536 -236 -408 -465 52 -93 73 -253 46 -355 -96 -369 444 -118 1200 558 96 86 215 156 264 156 113 0 218 260 137 340 -80 81 -212 61 -626 -96z"/>
<path d="M23447 23595 c-95 -154 35 -253 163 -125 72 72 74 128 6 170 -56 35 -132 15 -169 -45z"/>
<path d="M22798 23148 c-70 -84 -102 -177 -72 -207 66 -67 474 177 474 283 0 133 -271 82 -402 -76z"/>
<path d="M22100 22600 c0 -55 68 -100 150 -100 83 0 150 45 150 100 0 55 -67 100 -150 100 -82 0 -150 -45 -150 -100z"/>
<path d="M21500 22500 c0 -55 65 -100 144 -100 79 0 172 45 206 100 34 55 -31 100 -144 100 -113 0 -206 -45 -206 -100z"/>
<path d="M67 21233 c-37 -36 -64 -250 -61 -475 6 -357 19 -378 101 -174 51 129 70 272 42 318 -29 46 -7 112 49 147 56 35 102 105 102 157 0 109 -136 125 -233 27z"/>
<path d="M15500 21241 c0 -466 -356 -2762 -510 -3291 -196 -673 -856 -2824 -1149 -3743 -78 -243 -141 -527 -141 -631 0 -374 202 -51 409 654 116 396 402 1350 634 2120 554 1830 733 2607 855 3700 126 1126 126 1250 2 1250 -55 0 -100 -26 -100 -59z"/>
<path d="M0 19947 c0 -136 44 -247 97 -247 54 0 167 -133 251 -296 84 -163 400 -549 703 -859 302 -309 549 -645 549 -746 0 -101 117 -322 259 -491 197 -235 341 -308 606 -308 206 0 322 41 285 100 -34 55 -141 100 -238 100 -190 0 -612 393 -612 570 0 58 -263 460 -583 893 -321 433 -648 918 -725 1077 -78 160 -243 327 -367 372 -195 71 -225 48 -225 -165z"/>
<path d="M24908 13758 c-4 -105 19 -164 52 -131 34 33 37 120 8 192 -32 80 -55 56 -60 -61z"/>
<path d="M13044 11547 c-134 -304 -244 -585 -244 -625 0 -95 -863 -1548 -1261 -2123 -171 -247 -372 -620 -447 -829 -92 -259 -268 -463 -555 -644 -568 -360 -767 -799 -680 -1498 45 -360 152 -642 318 -839 237 -282 244 -326 140 -868 -192 -998 -254 -1921 -131 -1921 133 0 197 236 408 1488 l158 937 757 1 c417 0 851 -50 965 -111 387 -207 828 -869 828 -1242 0 -300 -38 -356 -275 -403 -355 -72 -902 -446 -1160 -795 -274 -370 -140 -810 262 -857 267 -31 372 109 173 232 -187 115 -101 369 240 710 298 298 403 340 853 340 320 0 530 -47 558 -125 25 -69 -15 -414 -89 -766 -143 -681 -116 -1009 84 -1009 79 0 162 325 236 925 108 878 244 1175 538 1175 45 0 52 -377 17 -838 -78 -1007 -9 -1362 263 -1362 107 0 269 -113 359 -250 136 -207 541 -361 541 -205 0 198 -290 596 -519 715 -248 128 -281 201 -280 618 2 1516 545 3860 922 3979 352 112 344 25 -128 -1307 -259 -731 -414 -1693 -341 -2124 101 -598 151 -726 286 -726 93 0 124 263 118 1025 -6 826 38 1161 228 1725 402 1197 604 1627 923 1969 387 416 517 729 503 1212 -22 747 -467 1049 -1664 1126 -819 52 -1366 323 -1713 848 -237 359 -252 427 -133 648 90 169 217 247 403 247 354 0 555 226 350 396 -184 153 -711 48 -948 -189 -95 -95 -248 -201 -341 -237 -136 -52 -157 -143 -105 -467 36 -222 38 -403 7 -403 -97 0 -668 876 -668 1024 0 76 152 450 338 832 462 947 516 1144 313 1144 -100 0 -255 -210 -407 -553z m-444 -2064 c0 -65 73 -198 162 -296 295 -326 104 -649 -586 -991 -342 -170 -658 -362 -702 -427 -44 -66 -51 16 -14 181 36 165 270 604 520 975 436 646 620 812 620 558z m1830 -1374 c231 -104 668 -270 970 -369 750 -246 1101 -576 1097 -1034 -3 -341 -236 -800 -349 -688 -29 30 -6 180 53 334 78 205 75 310 -10 389 -126 119 -121 127 -387 -628 -139 -394 -211 -460 -754 -685 -330 -136 -679 -318 -775 -404 -239 -212 -222 -9 23 274 109 125 174 267 144 315 -108 175 -442 80 -608 -174 -157 -238 -182 -246 -296 -90 -180 247 -60 451 266 451 264 0 1598 806 1679 1014 19 47 120 86 225 86 106 0 192 37 192 83 0 155 -485 538 -595 470 -61 -38 -192 32 -292 155 -170 211 -489 195 -357 -17 32 -52 -57 -233 -199 -401 -141 -168 -257 -405 -257 -528 0 -307 -184 -462 -550 -462 -386 0 -1095 666 -993 933 44 113 13 167 -96 167 -89 0 -161 -41 -161 -90 0 -50 -135 -137 -300 -195 -165 -58 -300 -148 -300 -200 0 -53 -90 -73 -200 -44 -112 29 -200 3 -200 -59 0 -62 68 -112 152 -112 112 0 135 -66 89 -250 -69 -273 -73 -272 759 -290 439 -10 451 -18 483 -360 40 -427 291 -730 548 -663 147 39 178 7 138 -144 -60 -231 104 -360 260 -204 171 171 291 132 226 -73 -33 -105 21 -288 126 -425 162 -211 172 -304 77 -741 -89 -409 -151 -506 -343 -533 -204 -29 -224 -3 -161 200 40 128 134 322 209 430 229 330 165 551 -201 704 -186 78 -362 204 -391 281 -29 76 -260 260 -513 408 -400 235 -505 256 -820 169 -414 -114 -933 -39 -1003 144 -26 69 6 411 72 761 67 350 128 711 138 804 9 92 239 367 511 610 546 490 944 677 944 443 0 -79 153 -337 341 -573 187 -237 321 -481 297 -542 -61 -160 193 -466 315 -379 143 102 579 1490 505 1610 -62 100 -857 87 -1025 -17 -51 -31 -157 -17 -235 31 -118 73 -113 100 34 156 97 37 268 247 380 467 l204 399 247 -363 c140 -207 428 -445 667 -551z m924 -3234 c-38 -124 -115 -427 -172 -675 -57 -247 -143 -493 -193 -545 -49 -52 -89 -221 -89 -375 0 -400 -165 -346 -245 80 -78 416 188 1420 429 1615 235 191 347 150 270 -100z"/>
<path d="M12000 7400 c0 -55 42 -100 94 -100 52 0 122 45 156 100 34 55 -8 100 -94 100 -86 0 -156 -45 -156 -100z"/>
<path d="M15435 6446 c-33 -85 -35 -180 -4 -210 88 -88 269 61 269 220 0 192 -191 184 -265 -10z"/>
<path d="M14900 5950 c0 -82 45 -150 100 -150 55 0 100 68 100 150 0 83 -45 150 -100 150 -55 0 -100 -67 -100 -150z"/>
<path d="M11337 5653 c-31 -82 18 -222 108 -312 207 -207 251 -163 185 184 -58 299 -203 362 -293 128z"/>
<path d="M12200 5658 c0 -87 71 -158 158 -158 177 0 146 215 -39 277 -66 22 -119 -32 -119 -119z"/>
<path d="M19356 7875 c-202 -945 -364 -3050 -352 -4569 11 -1280 -29 -1954 -145 -2488 -195 -894 -198 -818 41 -818 145 0 200 67 200 244 0 134 38 268 85 297 105 65 252 1230 241 1909 -4 275 -20 1063 -34 1750 -16 754 40 1753 141 2516 201 1522 199 1384 19 1384 -82 0 -170 -101 -196 -225z"/>
<path d="M16823 3575 c-56 -69 -152 -453 -214 -853 -61 -400 -201 -895 -310 -1098 -110 -204 -199 -428 -199 -498 0 -69 -45 -126 -100 -126 -161 0 -115 -671 57 -843 188 -188 440 -206 451 -32 6 100 18 100 58 0 87 -215 219 -137 252 149 19 165 101 287 206 307 145 28 164 -18 112 -274 -57 -288 -43 -307 241 -307 336 0 423 135 423 653 0 464 -188 836 -507 1001 -311 161 -405 503 -283 1029 178 764 81 1222 -187 892z m-123 -2064 c0 -49 114 -118 254 -153 300 -75 434 -341 236 -467 -233 -147 -297 -103 -231 159 79 314 -108 333 -271 27 -115 -214 -122 -215 -188 -26 -81 229 -16 549 112 549 48 0 88 -40 88 -89z m-365 -858 c31 -81 18 -170 -28 -199 -46 -28 -108 38 -136 147 -60 229 79 273 164 52z"/>
<path d="M6364 1752 c-33 -87 -90 -516 -126 -955 -59 -700 -47 -797 98 -797 99 0 170 89 180 225 8 124 25 338 37 475 85 960 82 1138 -18 1172 -61 20 -137 -34 -171 -120z"/>
<path d="M8369 1525 c-24 -41 -74 -401 -112 -800 -66 -688 -59 -725 137 -725 191 0 206 59 206 800 0 697 -88 974 -231 725z"/>
<path d="M5269 825 c-23 -41 -73 -244 -110 -450 -54 -295 -37 -375 81 -375 184 0 217 57 301 525 54 295 37 375 -81 375 -81 0 -167 -34 -191 -75z"/>
<path d="M10800 150 c0 -83 89 -150 197 -150 134 0 178 48 139 150 -75 195 -336 195 -336 0z"/>
<path d="M14300 157 c0 -92 85 -157 208 -157 244 0 210 234 -41 282 -99 19 -167 -32 -167 -125z"/>
</g>
</svg>