<svg xmlns="http://www.w3.org/2000/svg" version="1.0" width="250" height="525" viewBox="0 0 250.000000 525.000000" preserveAspectRatio="xMidYMid meet">
<metadata>
Created by potrace 1.10, written by Peter Selinger 2001-2011
</metadata>
<g transform="translate(0.000000,525.000000) scale(0.010000,-0.010000)" fill="#555555" stroke="none">
<path d="M2900 52465 c0 -19 92 -458 205 -975 344 -1576 792 -5297 797 -6621 0 -230 46 -486 102 -569 165 -245 40 1796 -304 4947 -112 1027 -607 3253 -722 3253 -43 0 -78 -16 -78 -35z"/>
<path d="M4710 52125 c-55 -211 -64 -556 -20 -789 139 -727 -75 -4149 -388 -6236 -149 -987 -126 -3425 38 -4086 77 -310 162 -782 189 -1049 l49 -485 -414 -188 c-558 -253 -1243 -244 -1561 20 -225 187 -231 214 -74 302 194 109 509 784 409 876 -36 33 -82 15 -103 -40 -249 -657 -481 -770 -917 -447 -212 156 -340 384 -465 831 -96 339 -231 774 -300 966 -351 968 -454 1395 -453 1875 0 289 -37 525 -81 525 -164 0 6 -1275 298 -2250 420 -1397 567 -1766 813 -2030 170 -182 187 -248 81 -313 -249 -154 -504 2 -569 350 -35 185 -123 386 -196 446 -73 61 -162 243 -198 404 -35 161 -106 293 -158 293 -108 0 -20 -432 162 -800 68 -137 156 -398 195 -579 60 -280 32 -359 -192 -535 -210 -165 -239 -235 -145 -349 65 -78 87 -173 49 -212 -171 -170 -305 379 -408 1675 -24 303 -113 730 -199 950 l-155 400 54 -450 c227 -1886 252 -2541 101 -2625 -127 -71 -151 -353 -143 -1705 6 -1112 45 -1642 125 -1693 85 -55 83 -74 -9 -75 -72 -1 -125 -131 -125 -309 0 -334 62 -337 750 -42 908 390 1319 476 1908 401 696 -89 549 -186 -458 -301 -357 -41 -933 -202 -1279 -358 -346 -156 -693 -259 -771 -229 -108 41 -138 -22 -122 -257 20 -290 43 -307 322 -252 556 111 640 155 910 475 228 271 377 338 976 439 515 87 744 89 840 9 97 -80 164 -78 248 6 64 64 197 116 296 116 99 0 180 34 179 75 -1 126 -600 425 -851 425 -130 0 -264 45 -298 100 -34 55 -187 100 -341 100 -153 0 -380 88 -504 195 -124 108 -426 226 -672 263 l-446 67 360 217 c198 120 329 249 290 288 -39 38 -18 70 46 70 65 0 117 -90 117 -200 0 -133 67 -200 200 -200 111 0 200 -67 200 -150 0 -102 103 -150 325 -151 179 0 447 -64 596 -142 149 -77 526 -198 839 -268 313 -70 715 -227 894 -348 375 -255 748 -392 742 -273 -7 160 -929 666 -1434 788 -281 68 -679 195 -884 284 -204 88 -463 160 -575 160 -112 0 -203 44 -203 98 0 54 -114 127 -253 162 -214 53 -233 86 -125 218 94 113 97 165 12 194 -64 21 -322 175 -575 343 -390 258 -459 353 -459 632 0 181 72 388 160 461 140 117 156 101 126 -125 -63 -479 399 -1038 650 -787 70 70 34 167 -117 307 -282 264 -280 630 6 830 183 129 199 176 85 253 -97 65 -202 36 -343 -95 -234 -218 -379 -161 -156 63 306 306 705 329 1263 74 l523 -240 -208 -282 c-315 -426 -220 -661 255 -632 490 30 519 64 320 369 -90 138 -164 296 -164 352 0 189 473 224 792 59 172 -89 368 -155 435 -146 251 32 342 -17 774 -420 249 -233 444 -506 446 -625 2 -143 77 -223 226 -245 168 -24 268 -157 400 -537 158 -451 357 -684 479 -562 72 72 -315 1048 -541 1366 -116 163 -211 344 -211 403 0 59 -124 171 -275 249 -363 188 -661 524 -580 655 35 57 20 186 -33 286 -75 140 -53 211 94 302 251 157 262 154 323 -80 30 -115 136 -200 249 -200 109 0 255 -69 326 -154 183 -221 346 -23 188 230 -99 159 -100 290 -2 639 110 391 179 465 625 663 483 214 1453 312 1343 135 -29 -47 -262 -110 -517 -139 -255 -28 -582 -142 -727 -252 -423 -321 -326 -669 366 -1321 323 -303 754 -843 960 -1201 205 -357 482 -830 615 -1050 133 -220 242 -503 243 -629 1 -125 72 -334 157 -464 240 -366 611 -477 2070 -620 673 -66 854 -167 475 -266 -110 -29 -200 -124 -200 -212 0 -177 154 -214 250 -59 34 55 145 100 248 100 102 0 202 49 222 110 43 128 779 -224 1213 -578 155 -128 391 -259 525 -293 298 -75 312 -203 32 -292 -274 -87 -1090 142 -1090 305 0 123 -211 248 -419 248 -56 0 -79 -62 -49 -138 36 -96 -53 -155 -292 -194 -581 -94 -1257 -488 -1364 -792 -52 -152 -136 -251 -186 -220 -49 31 -143 23 -208 -17 -82 -51 -59 -94 71 -140 166 -58 137 -114 -244 -458 -238 -215 -534 -605 -658 -867 -142 -301 -386 -593 -663 -791 -241 -173 -474 -375 -518 -449 -132 -222 -290 -159 -169 68 60 111 80 248 45 304 -35 57 58 261 206 455 325 426 230 604 -111 208 -273 -317 -487 -268 -397 92 77 306 -53 303 -426 -11 -252 -213 -306 -226 -357 -92 -84 219 -95 204 239 342 165 68 300 169 300 223 0 101 -416 63 -708 -63 -130 -56 -150 -13 -113 241 50 342 427 657 673 562 85 -32 407 7 716 87 549 143 783 250 549 250 -214 0 -120 204 139 302 141 54 229 141 197 193 -81 131 -354 19 -645 -265 -156 -153 -276 -202 -339 -139 -96 96 -775 -111 -1044 -319 -91 -70 -125 -39 -125 112 0 226 268 416 587 416 110 0 323 47 473 104 203 77 244 132 159 217 -104 104 -489 38 -1070 -185 -84 -32 -155 68 -201 282 -93 434 -221 582 -505 582 -127 0 -391 94 -587 209 -325 192 -396 199 -850 83 -375 -96 -589 -100 -876 -17 -209 61 -650 166 -980 234 -330 68 -680 192 -777 275 -309 263 -884 46 -1101 -415 -135 -288 -223 -366 -359 -323 -100 31 -357 -19 -572 -113 -215 -94 -425 -162 -466 -152 -41 11 -70 -667 -63 -1506 6 -839 33 -1435 59 -1325 27 110 89 243 139 295 145 153 106 -313 -60 -710 -176 -421 -187 -535 -50 -535 55 0 100 68 100 150 0 83 45 150 100 150 133 0 128 -271 -7 -354 -59 -37 -84 -125 -57 -196 28 -72 -13 -214 -90 -315 -86 -115 -140 -433 -140 -835 0 -473 27 -604 98 -482 108 184 698 513 778 433 50 -50 -166 -250 -630 -581 -235 -167 -372 -456 -152 -320 55 34 100 17 100 -38 0 -55 -45 -128 -100 -162 -55 -34 -100 -200 -100 -368 l0 -306 588 43 c625 45 717 111 2191 1578 598 595 736 1221 300 1360 -157 50 -185 118 -133 328 157 631 167 804 57 1010 -76 142 -192 206 -335 186 -180 -26 -223 -107 -249 -464 -25 -352 -99 -493 -387 -746 l-356 -313 50 -700 c49 -676 40 -709 -248 -979 -165 -153 -338 -279 -386 -279 -47 0 -129 -146 -180 -325 -52 -179 -98 -241 -103 -139 -6 122 -60 166 -159 128 -205 -79 -194 -38 150 521 165 268 300 531 300 584 0 53 112 202 250 331 446 419 254 557 -253 182 -162 -120 -322 -191 -355 -157 -143 143 99 471 560 757 274 171 498 379 498 464 0 195 -139 198 -298 6 -127 -153 -668 -452 -817 -452 -47 0 -85 56 -84 125 0 69 295 281 655 472 656 349 1025 655 919 762 -32 31 -306 -82 -611 -251 -635 -354 -664 -361 -664 -158 0 83 56 151 125 152 297 3 1108 675 1216 1008 88 270 157 334 335 309 190 -27 224 15 224 272 0 221 39 288 142 248 84 -32 193 40 266 176 68 127 186 293 262 370 77 76 122 189 101 252 -60 179 -315 132 -353 -65 -19 -99 -143 -288 -276 -421 -133 -133 -242 -284 -242 -336 0 -51 -73 -121 -161 -155 -131 -51 -149 -14 -96 197 36 143 109 313 163 377 54 64 187 224 296 356 111 135 198 389 198 580 0 336 3 339 375 277 206 -34 488 -100 625 -146 489 -165 755 -179 1099 -57 312 110 408 96 919 -136 462 -209 585 -315 643 -558 93 -389 57 -936 -119 -1782 -78 -374 -141 -937 -140 -1250 1 -470 43 -608 244 -798 287 -272 256 -410 -142 -637 -413 -236 -507 -76 -533 906 -11 446 -43 809 -71 807 -321 -17 -713 -776 -748 -1446 -43 -856 -1245 -2487 -2353 -3192 -329 -210 -599 -440 -599 -510 0 -125 -505 -272 -1374 -402 -234 -35 -450 -104 -481 -155 -31 -50 -133 -91 -226 -91 -149 0 -170 -145 -181 -1200 -11 -1107 70 -1460 234 -1025 37 96 226 398 422 671 264 369 364 450 389 318 53 -275 -459 -1197 -788 -1417 -162 -108 -295 -276 -295 -372 0 -337 224 -204 690 409 132 174 279 316 327 316 178 0 -316 -776 -662 -1040 -197 -150 -333 -315 -301 -367 102 -165 241 -101 698 320 247 227 448 367 448 312 0 -55 -70 -158 -155 -229 -311 -258 -572 -709 -470 -811 66 -66 167 -13 302 158 111 141 229 257 262 257 159 0 12 -220 -539 -808 l-600 -641 0 -841 0 -841 225 182 c124 100 505 479 847 841 471 498 623 609 624 458 0 -110 -179 -377 -398 -593 -495 -488 -568 -933 -81 -492 170 154 183 154 183 0 0 -241 230 -202 500 85 262 279 600 333 600 96 0 -239 -1705 -2005 -2264 -2346 -241 -147 -246 -171 -205 -1200 24 -577 109 -1378 191 -1778 150 -733 67 -1112 -109 -501 -92 317 -95 311 -104 -179 -11 -603 51 -691 345 -498 159 104 380 128 789 86 540 -56 566 -72 537 -320 -23 -201 -86 -260 -278 -262 -179 -1 -327 -121 -538 -435 -161 -240 -418 -477 -577 -533 -263 -91 -287 -140 -287 -590 0 -403 32 -490 178 -490 98 0 255 -91 350 -201 194 -227 236 -403 52 -219 -66 66 -224 120 -350 120 -210 0 -230 -44 -230 -511 0 -445 22 -502 175 -442 289 112 348 109 396 -22 30 -83 -58 -125 -263 -125 l-308 0 0 -1091 0 -1091 393 -67 c224 -38 478 -20 593 41 110 60 412 108 671 108 638 0 1261 199 1319 420 26 99 76 180 111 180 113 1 727 620 670 676 -30 30 -356 -177 -725 -461 -538 -412 -747 -515 -1052 -515 -407 0 -455 89 -289 526 97 254 1232 897 1443 816 216 -83 1337 934 1714 1555 202 332 391 603 422 603 126 0 -93 -672 -330 -1015 -229 -330 -249 -428 -186 -931 68 -548 59 -579 -379 -1233 -516 -771 -1636 -2021 -1811 -2021 -65 0 -275 -128 -466 -285 -374 -307 -798 -543 -1197 -667 -225 -69 -236 -60 -111 91 196 235 -14 714 -267 609 -95 -39 -252 -93 -348 -121 -114 -33 -175 -150 -175 -336 0 -268 20 -282 316 -223 225 45 295 30 244 -52 -40 -64 -182 -116 -316 -116 -232 0 -244 -30 -244 -606 0 -433 33 -585 116 -534 83 51 92 3 34 -169 -45 -133 -101 -593 -124 -1023 l-42 -783 277 33 c214 25 293 100 348 332 39 165 171 750 294 1300 192 862 266 1034 530 1248 169 136 434 372 590 525 156 152 330 277 386 277 142 0 -383 -668 -707 -898 -281 -201 -517 -775 -760 -1852 -176 -780 -174 -950 8 -950 100 0 150 100 150 304 0 534 319 1635 574 1978 135 182 267 310 292 285 26 -26 -64 -377 -200 -782 -136 -404 -276 -907 -312 -1117 -36 -210 -90 -447 -121 -525 -30 -79 -13 -143 37 -143 50 0 160 169 245 375 177 433 595 1966 628 2304 12 126 323 593 690 1037 367 444 667 865 667 934 0 69 68 182 150 250 124 103 150 94 150 -50 0 -301 271 15 343 400 36 189 108 370 161 402 152 95 112 -393 -51 -608 -255 -337 -167 -520 96 -198 294 360 423 284 212 -124 -175 -340 -101 -504 112 -245 129 158 136 151 78 -77 -35 -137 -89 -329 -119 -425 -36 -112 -3 -175 92 -175 144 0 293 -674 420 -1900 72 -696 218 -1532 302 -1725 90 -209 775 -257 706 -50 -22 69 -63 283 -91 475 -27 193 -144 845 -259 1450 -115 605 -300 1708 -411 2450 -111 743 -243 1530 -294 1750 -122 531 -121 1112 4 1326 96 167 394 1315 615 2374 116 557 63 1268 -126 1682 -200 438 -336 256 -402 -540 -113 -1360 -750 -2592 -1670 -3230 -776 -538 -830 -240 -104 574 335 377 479 611 415 675 -109 109 -762 -555 -950 -966 -106 -234 -279 -335 -279 -164 0 44 157 342 350 662 192 320 350 607 350 638 0 31 98 161 219 289 156 166 188 263 111 340 -125 125 -690 -669 -1044 -1466 -120 -272 -236 -443 -256 -381 -96 284 1051 2366 1370 2486 83 31 271 247 419 479 371 583 1567 1872 1736 1872 151 0 1045 786 1045 919 0 146 -169 85 -411 -150 -132 -127 -510 -437 -842 -689 -836 -635 -2252 -2146 -2768 -2955 -790 -1237 -1013 -1775 -944 -2275 52 -383 32 -461 -146 -556 -113 -61 -234 -83 -267 -49 -99 98 172 1246 484 2051 218 563 259 765 166 827 -91 60 -80 105 45 179 91 54 310 332 485 616 460 748 1370 1664 1942 1954 587 298 2417 2128 2127 2128 -15 0 -245 -204 -509 -454 -392 -370 -508 -432 -625 -335 -123 102 -106 160 117 394 339 353 152 483 -212 147 -331 -307 -342 -308 -341 -27 0 145 125 310 350 463 192 131 349 299 349 375 0 183 -91 172 -465 -56 -314 -191 -315 -191 -525 32 -115 123 -210 251 -210 284 0 34 169 163 375 289 206 125 407 274 446 332 117 172 -85 282 -304 165 -247 -132 -317 -137 -317 -20 0 49 114 118 253 153 138 35 339 150 444 255 106 106 319 258 473 338 394 204 851 746 922 1093 49 240 142 319 509 439 394 128 565 266 1005 808 69 84 68 187 -2 318 -196 366 -127 801 146 925 226 103 288 78 615 -250 408 -408 644 -1107 558 -1653 -45 -289 -26 -330 137 -299 435 82 219 1485 -320 2082 -318 352 -381 702 -127 702 51 0 135 113 187 250 52 138 137 250 189 250 54 0 46 -126 -19 -299 -98 -259 -76 -372 169 -855 155 -306 305 -734 334 -951 76 -567 227 -487 227 121 0 371 -71 637 -251 944 -176 300 -216 449 -135 499 117 72 62 2244 -68 2697 -44 152 57 326 391 675 247 258 495 469 552 469 134 0 511 1271 511 1722 0 316 24 346 240 304 201 -38 286 33 522 436 195 332 283 622 285 933 4 539 125 593 829 370 1108 -351 3249 -456 4476 -218 287 55 309 35 423 -370 281 -997 295 -941 -242 -934 -451 7 -486 -12 -582 -304 -85 -259 -130 -293 -272 -203 -265 167 -307 22 -136 -480 163 -481 222 -1304 64 -906 -43 110 -183 538 -310 950 -252 815 -339 975 -441 809 -37 -59 26 -437 139 -840 234 -835 238 -869 113 -869 -51 0 -122 146 -159 325 -93 446 -533 1375 -652 1375 -53 0 -97 -34 -97 -75 0 -120 351 -1009 429 -1087 125 -125 76 -515 -72 -572 -100 -38 -165 44 -212 265 -86 405 -413 1138 -545 1219 -269 166 -267 -109 3 -641 164 -321 297 -704 297 -850 0 -441 -359 -157 -439 348 -89 552 -347 1047 -478 916 -67 -67 -52 -196 44 -387 171 -338 299 -1064 175 -987 -48 29 -117 192 -154 362 -38 170 -154 395 -258 499 -105 105 -190 277 -190 384 0 107 -45 222 -101 256 -183 114 -211 -213 -55 -660 233 -669 189 -784 -151 -390 -431 499 -494 701 -325 1031 236 463 201 970 -100 1444 -149 234 -315 425 -369 425 -147 0 -120 -411 40 -592 178 -202 39 -606 -233 -677 -106 -28 -263 -199 -349 -380 -179 -377 -112 -890 243 -1887 115 -322 190 -637 166 -700 -23 -63 -77 -24 -119 86 -307 804 -354 883 -464 773 -146 -146 282 -1523 474 -1523 406 0 523 962 194 1597 -90 175 -189 622 -221 994 -56 672 -54 678 263 904 400 285 491 203 275 -250 -269 -563 -215 -850 280 -1487 484 -623 651 -1067 651 -1733 1 -311 41 -425 151 -425 82 0 154 79 158 175 5 105 28 125 58 50 28 -69 121 -125 206 -125 131 0 145 99 90 637 -49 483 -31 664 74 751 112 93 150 55 201 -199 35 -173 63 -466 63 -651 0 -234 46 -338 150 -338 93 0 150 94 150 250 0 138 36 250 81 250 44 0 233 -112 419 -250 186 -137 467 -250 623 -250 259 0 274 -19 170 -214 -88 -163 -134 -182 -196 -81 -114 184 -356 -26 -444 -384 -37 -149 -188 -398 -335 -553 -263 -277 -264 -286 -72 -427 247 -182 384 -137 451 147 29 123 91 210 139 193 47 -17 194 183 326 444 133 261 290 475 348 475 59 0 11 -154 -105 -341 -116 -188 -199 -379 -186 -425 14 -46 -60 -212 -164 -367 -211 -317 -362 -1867 -181 -1867 55 0 122 326 150 725 46 674 222 1275 373 1275 35 0 45 -411 21 -913 -35 -722 -16 -903 87 -869 93 31 124 220 108 638 -16 402 25 659 125 794 136 182 148 129 131 -600 -16 -653 9 -800 131 -800 96 0 137 72 113 200 -82 438 -73 1007 17 1125 211 279 272 91 215 -663 -49 -637 -20 -918 147 -1461 242 -782 258 -964 76 -894 -72 27 -252 -62 -400 -199 -206 -191 -268 -342 -268 -653 0 -420 260 -805 543 -805 208 0 577 -512 521 -725 -62 -237 377 -719 583 -640 100 39 153 191 153 442 0 365 136 623 330 623 107 0 -17 -2303 -132 -2450 -43 -55 -77 -887 -75 -1850 2 -1598 -16 -1784 -210 -2146 -117 -218 -213 -452 -213 -519 0 -68 -40 -148 -89 -178 -112 -69 42 636 244 1120 94 227 115 393 55 453 -60 60 -137 -60 -209 -327 -176 -652 -241 -394 -94 368 105 542 157 2767 98 4210 -12 301 -187 -14 -253 -455 -39 -262 -114 -529 -168 -594 -62 -76 -59 -387 10 -882 128 -925 138 -1918 19 -1992 -48 -29 -115 -228 -149 -442 -34 -213 -217 -697 -407 -1074 -335 -664 -389 -995 -99 -598 137 187 142 185 142 -56 0 -137 -60 -332 -134 -433 -130 -177 -136 -177 -205 3 -124 322 -235 -23 -162 -502 47 -309 184 -570 471 -896 421 -478 530 -789 530 -1512 0 -475 -192 -641 -447 -387 -176 176 -166 133 -187 795 -13 410 -90 615 -404 1070 -306 445 -392 668 -412 1066 -20 416 9 513 163 562 164 52 279 446 130 446 -633 0 -2060 -2603 -3113 -5678 -511 -1492 -577 -1630 -705 -1460 -152 204 -99 864 130 1614 56 183 37 215 -93 165 -238 -92 -197 71 76 305 131 112 401 590 599 1061 336 800 1112 2359 1426 2864 75 122 137 274 137 338 0 154 483 927 825 1320 151 173 275 417 275 540 0 151 46 207 140 171 160 -61 206 -2 300 393 41 172 30 260 -28 225 -58 -36 -98 315 -103 896 -9 1111 -73 1446 -278 1446 -116 0 -130 -68 -64 -325 125 -489 83 -1760 -76 -2325 -78 -275 -376 -845 -664 -1267 -287 -422 -698 -1119 -912 -1550 -791 -1588 -896 -1747 -660 -1008 289 906 427 1211 616 1365 371 301 862 1589 986 2585 84 671 -108 1390 -324 1211 -104 -86 -108 -145 -20 -252 144 -173 136 -1225 -14 -1716 -307 -1008 -533 -1518 -673 -1518 -114 0 -134 76 -86 325 34 179 90 629 124 1000 68 726 -23 855 -302 429 -213 -324 -217 -669 -7 -588 121 46 144 6 104 -178 -28 -131 -101 -508 -161 -838 -60 -330 -261 -1072 -445 -1650 -185 -578 -426 -1342 -537 -1700 -110 -357 -338 -942 -506 -1300 -317 -676 -329 -648 -147 350 20 110 64 358 98 550 34 193 193 868 353 1500 381 1508 384 1527 489 2400 141 1179 349 1813 696 2126 375 338 802 1081 799 1393 -2 299 -81 407 -458 626 -370 215 -455 702 -137 785 185 48 185 63 -5 726 -106 372 -307 840 -446 1040 -306 443 -308 514 -39 1163 l212 513 -212 568 c-117 312 -213 701 -213 864 0 348 -150 394 -237 71 -101 -376 -71 -720 83 -939 205 -292 209 -818 10 -1274 -118 -270 -149 -507 -102 -784 l67 -396 -257 168 c-390 256 -433 531 -125 816 325 301 329 526 16 986 -206 303 -227 400 -134 605 138 301 64 386 -265 303 -321 -80 -421 -448 -264 -971 64 -216 90 -437 57 -491 -34 -54 -12 -98 48 -98 60 0 135 67 167 150 74 193 298 194 372 1 37 -97 -44 -202 -232 -299 -574 -297 -497 -698 251 -1312 505 -414 721 -829 779 -1499 21 -246 62 -471 92 -500 29 -30 -63 -232 -205 -450 l-260 -396 -205 251 c-169 205 -798 554 -1001 554 -28 0 -147 -187 -263 -416 -307 -601 -213 -1004 368 -1594 388 -394 455 -516 401 -731 -71 -284 -123 -931 -213 -2659 -59 -1117 -139 -1857 -347 -3200 -56 -357 -125 -875 -156 -1150 -132 -1214 -585 -3619 -720 -3824 l-148 -226 854 0 854 0 383 775 c210 426 450 828 532 893 107 85 119 150 43 227 -165 168 -468 -161 -723 -783 -121 -296 -220 -595 -220 -663 0 -69 -73 -185 -162 -259 -193 -160 -206 -222 242 1181 241 756 362 1006 467 966 92 -35 215 95 358 380 312 621 679 1082 822 1032 68 -23 258 68 423 204 284 233 288 246 75 247 -270 0 -286 82 -50 261 167 126 167 133 0 148 -96 9 -220 27 -275 41 -55 14 -145 31 -200 38 -55 6 -100 121 -100 254 0 133 -48 257 -107 277 -66 22 -4 272 160 651 162 375 315 598 390 569 118 -45 1057 1251 1057 1460 0 247 -200 50 -605 -595 -240 -383 -452 -680 -472 -661 -19 20 148 427 371 906 223 479 406 911 406 961 0 49 19 90 42 90 23 0 107 25 186 55 105 41 162 -48 207 -325 37 -227 189 -514 376 -713 315 -334 521 -917 418 -1185 -33 -86 -158 -131 -315 -112 -560 65 -663 -957 -130 -1296 146 -93 289 -197 316 -230 28 -34 137 -109 243 -166 176 -97 158 -124 -200 -308 -216 -111 -573 -366 -793 -567 -220 -200 -537 -423 -704 -495 -384 -165 -1086 -996 -1356 -1607 -234 -529 -199 -629 172 -495 176 64 302 222 394 494 137 404 734 1051 968 1049 69 -1 -54 -155 -274 -341 -220 -187 -370 -370 -333 -407 64 -65 514 213 909 561 101 89 339 245 529 347 190 103 345 221 345 264 0 143 -324 79 -663 -131 -265 -164 -337 -177 -337 -64 0 189 461 647 735 731 118 36 296 150 394 253 98 104 217 188 263 188 169 0 199 -449 45 -683 -175 -268 -104 -384 263 -434 138 -18 247 -78 242 -133 -4 -55 165 -318 375 -584 402 -508 440 -622 286 -864 -74 -118 -122 -79 -235 188 -264 628 -1385 835 -1950 360 -163 -138 -320 -250 -349 -250 -268 0 -1869 -1396 -1869 -1630 0 -118 703 -37 810 92 184 221 16 292 -209 89 -280 -253 -246 -59 47 274 281 319 404 342 539 102 87 -156 115 -158 280 -21 445 369 1433 647 1433 403 0 -49 -79 -70 -175 -45 -96 25 -265 -23 -375 -106 -192 -146 -187 -152 119 -155 176 -2 349 -52 386 -112 37 -60 162 -84 278 -54 228 60 567 -181 567 -402 0 -74 68 -135 150 -135 306 0 142 426 -345 896 -606 583 -967 679 -1511 401 -217 -111 -394 -161 -394 -113 0 49 214 196 475 327 261 131 548 297 637 368 133 106 241 102 599 -22 240 -82 455 -205 478 -273 22 -67 135 -217 251 -333 115 -115 210 -275 210 -354 0 -79 87 -161 193 -181 267 -52 457 -263 457 -509 0 -153 64 -207 243 -207 190 0 251 59 275 267 18 147 95 288 172 314 109 35 126 -25 78 -268 l-63 -313 448 0 c246 0 447 37 447 82 0 45 271 394 602 775 332 381 631 806 666 943 35 138 239 427 454 643 215 217 506 590 647 830 140 240 273 419 294 398 65 -65 -177 -671 -269 -671 -47 0 -209 -214 -361 -475 -151 -261 -401 -651 -554 -865 -153 -215 -279 -433 -279 -485 0 -52 -75 -252 -166 -444 -132 -279 -140 -366 -37 -429 71 -44 98 -130 60 -191 -94 -152 270 -144 423 9 93 93 120 92 120 -6 0 -84 123 -116 372 -95 353 29 386 63 625 637 139 333 329 716 423 850 l170 244 5 -325 c3 -225 -41 -325 -145 -325 -88 0 -151 -93 -154 -225 -1 -124 -67 -337 -146 -475 -193 -337 -185 -400 49 -400 123 0 294 152 450 398 223 354 251 505 251 1356 0 740 -28 941 -125 883 -98 -59 -99 -44 -5 73 83 103 119 643 115 1744 l-6 1596 -199 -450 c-300 -681 -1005 -1900 -1098 -1900 -156 0 -81 415 178 981 547 1195 757 1880 813 2644 33 469 109 819 191 887 88 73 135 328 133 725 -3 653 -117 616 -242 -79 -39 -215 -180 -536 -315 -712 -135 -177 -337 -594 -449 -927 -113 -333 -266 -657 -341 -719 -351 -291 -253 1870 129 2862 103 269 330 711 504 983 175 272 317 555 317 629 0 75 90 322 200 550 174 359 200 618 200 1978 0 861 -32 1597 -72 1636 -96 97 -100 1362 -4 1362 127 0 85 380 -49 434 -98 40 -97 71 7 143 99 70 62 120 -150 200 -155 60 -590 227 -967 372 -807 313 -999 273 -271 -56 278 -126 506 -266 506 -311 0 -45 101 -83 225 -84 124 0 293 -45 375 -98 115 -74 76 -97 -161 -98 -181 -1 -719 208 -1279 498 -532 275 -1019 500 -1082 500 -327 0 -953 425 -1109 753 -184 385 -223 951 -77 1102 50 52 111 365 135 695 26 345 223 1110 465 1800 231 660 481 1515 555 1900 158 815 434 1577 852 2350 163 302 417 793 564 1091 244 496 277 526 401 357 174 -238 199 -203 317 445 65 358 64 617 -1 761 -72 159 -59 297 50 508 179 345 243 838 133 1017 -44 70 -11 363 73 650 84 286 245 843 358 1237 263 913 285 2057 39 2013 -114 -20 -193 73 -253 298 -73 275 -46 380 167 660 283 371 358 1063 115 1063 -213 0 -360 237 -296 480 78 299 234 279 234 -30 0 -137 45 -250 100 -250 170 0 125 1589 -50 1764 -83 83 -149 248 -147 368 3 213 7 214 150 24 136 -180 147 -160 147 268 0 255 -44 579 -98 720 -67 177 -61 337 20 514 85 187 87 304 8 432 -72 115 -80 326 -24 617 47 244 87 598 90 787 4 324 -5 333 -143 150 -81 -107 -148 -295 -150 -419 -2 -124 -48 -225 -103 -225 -55 0 -100 101 -99 225 0 263 333 808 432 709 37 -37 65 154 63 424 l-4 492 -198 -400 c-109 -220 -273 -456 -364 -524 -141 -106 -194 -83 -348 150 -99 150 -181 335 -181 409 -1 74 -83 254 -182 400 -233 340 -451 1027 -403 1272 20 105 -36 263 -125 352 -164 164 -337 935 -244 1087 29 45 -20 111 -109 145 -102 39 -142 134 -109 260 29 110 11 199 -38 199 -50 0 -91 113 -91 250 0 138 -50 250 -111 250 -62 0 -82 73 -46 167 35 92 6 203 -65 247 -104 65 -103 121 6 296 105 170 108 233 12 293 -76 47 -98 174 -58 334 51 204 33 246 -87 200 -183 -71 -199 75 -27 247 99 99 94 144 -25 220 -132 85 -132 107 1 196 124 83 127 115 14 188 -91 58 -111 165 -60 324 67 212 58 222 -92 98 -146 -121 -158 -117 -100 36 40 103 11 209 -72 260 -110 68 -113 111 -14 210 170 170 156 290 -26 220 -166 -64 -208 116 -50 214 158 98 116 278 -50 214 -183 -70 -199 143 -25 331 102 109 94 124 -40 77 -223 -78 -298 17 -183 231 129 241 -50 297 -942 297 l-724 0 78 -652 c118 -978 183 -3548 91 -3548 -92 0 -220 1008 -258 2031 -27 751 -101 937 -206 520 -67 -270 -8 -1251 119 -1976 42 -239 28 -375 -40 -375 -150 0 -266 977 -258 2189 5 894 -12 1014 -128 856 -103 -141 -120 -458 -73 -1376 50 -980 36 -1185 -75 -1147 -110 37 -129 380 -98 1762 l39 1716 -349 0 -349 0 41 -525 c23 -289 84 -826 136 -1194 195 -1387 37 -1876 -260 -806 -89 316 -176 620 -195 675 -20 55 -39 -140 -43 -433 -6 -380 -44 -522 -133 -492 -92 31 -116 305 -92 1034 41 1223 -142 1188 -215 -41 -27 -458 -75 -858 -106 -889 -154 -155 -169 381 -40 1469 101 859 110 1202 31 1202 -60 0 -111 -79 -112 -175 -4 -393 -276 -2035 -345 -2077 -96 -60 -918 400 -1122 627 -86 96 -177 310 -202 475 -41 280 -49 285 -119 76 -42 -123 -111 -202 -154 -175 -75 46 -14 436 146 936 56 174 41 225 -55 193 -135 -45 -414 -960 -333 -1092 77 -124 -107 -181 -262 -81 -100 64 -111 116 -35 168 123 84 271 1125 160 1125 -82 0 -320 -716 -320 -961 0 -128 -30 -139 -139 -48 -108 89 -175 81 -293 -38 -85 -84 -195 -153 -245 -153 -151 0 -403 331 -476 625 -78 313 18 358 214 100 124 -164 133 -162 136 30 6 426 -112 445 -2817 445 l-2580 0 -14 -475 c-7 -261 -31 -362 -53 -225 -85 539 -141 700 -246 700 -69 0 -87 -120 -48 -325 33 -179 88 -662 122 -1075 75 -907 121 -1002 552 -1141 275 -89 404 -236 701 -802 351 -668 363 -724 317 -1500 -42 -730 -264 -1457 -443 -1457 -37 0 -145 326 -241 725 -97 399 -293 945 -436 1213 -551 1032 -620 1184 -586 1286 75 226 844 -675 982 -1150 75 -262 184 -459 240 -439 156 56 79 752 -121 1093 -210 359 -825 875 -1088 913 -169 25 -194 154 -246 1246 -34 712 -106 1267 -173 1334 -180 180 -210 68 -117 -430 47 -252 62 -635 32 -850 -146 -1053 136 -2145 794 -3077 321 -456 564 -1529 439 -1938 -85 -277 -71 -403 76 -676 159 -295 166 -396 59 -843 -113 -471 -326 -725 -278 -332 63 524 -314 2766 -559 3325 -217 495 -354 389 -165 -127 267 -731 300 -897 153 -776 -155 129 -553 1362 -554 1719 0 128 -73 369 -161 534 -207 387 -255 1198 -127 2184 102 789 52 1366 -119 1366 -51 0 -100 -304 -109 -675 -11 -456 -30 -545 -56 -275 -22 220 -87 445 -144 500 -71 69 -81 -290 -32 -1150 54 -942 131 -1407 310 -1887 132 -350 239 -738 239 -862 0 -124 66 -412 146 -638 80 -227 108 -413 63 -413 -93 0 -516 1142 -761 2054 -110 409 -161 1027 -161 1971 -2 1448 -173 1947 -206 600 -19 -766 -20 -768 -55 -150 -21 369 -81 625 -146 625 -79 0 -93 -377 -49 -1291 47 -986 136 -1571 377 -2475 173 -651 377 -1306 453 -1454 77 -149 139 -345 139 -436 0 -91 101 -386 224 -655 159 -345 283 -489 423 -489 196 0 196 -1 0 -137 -108 -76 -354 -169 -547 -208 -192 -38 -427 -91 -520 -118 -219 -61 -578 -641 -588 -949 -9 -298 -373 646 -384 999 -7 210 11 222 159 100 152 -125 160 -102 96 263 -135 772 -359 4315 -361 5725 -1 1004 -36 1425 -117 1425 -153 0 -17 -5667 161 -6687 55 -318 40 -460 -53 -517 -105 -65 -106 -192 -7 -663 68 -321 148 -705 179 -855 31 -149 119 -324 196 -387 220 -183 163 -291 -154 -291 -209 0 -363 -89 -539 -314 l-246 -315 -67 440 c-149 964 -181 1089 -278 1089 -112 0 -45 -736 169 -1850 74 -385 165 -959 202 -1275 45 -387 111 -575 203 -575 209 0 284 195 169 435 -163 339 -325 893 -276 942 59 60 656 -207 656 -293 0 -37 -51 -84 -114 -105 -85 -29 -83 -134 8 -410 67 -204 107 -413 89 -464 -18 -51 -234 -228 -479 -392 l-445 -298 -116 267 c-396 916 -488 3656 -194 5818 138 1014 326 4557 309 5800 -4 248 30 551 74 675 62 171 45 225 -71 225 -93 0 -192 -148 -251 -375z m14080 -1006 c-9 -331 -18 -344 -90 -119 -116 361 -116 621 0 550 55 -34 96 -228 90 -431z m2958 -1726 c541 -2528 1081 -4366 1669 -5671 156 -345 283 -671 283 -725 0 -53 83 -180 185 -282 261 -261 370 -1145 162 -1317 -131 -109 -180 -95 -307 86 -83 119 -250 221 -371 228 -169 9 -179 22 -44 57 238 62 222 231 -22 231 -126 0 -178 50 -144 137 29 75 -23 166 -115 201 -128 50 -140 96 -53 201 89 107 64 151 -114 206 -137 41 -177 89 -102 120 177 73 156 435 -25 435 -178 0 -201 166 -31 223 84 28 70 110 -50 281 -93 132 -169 320 -169 418 0 98 -39 178 -87 178 -102 0 -248 734 -221 1108 11 142 -51 317 -137 388 -115 95 -129 165 -51 259 79 95 60 159 -73 243 -129 81 -145 129 -56 166 169 71 165 473 -4 408 -125 -48 -139 -5 -209 678 -16 165 -84 430 -149 589 -217 529 -482 3158 -334 3307 82 82 131 -101 569 -2153z m-9348 1296 c0 -319 567 -397 679 -93 92 250 219 157 478 -353 152 -299 179 -449 104 -569 -77 -121 -55 -214 84 -368 275 -304 58 -245 -345 94 -314 264 -328 295 -131 297 323 4 355 145 91 394 -207 194 -242 201 -298 55 -34 -90 -37 -205 -6 -255 31 -50 8 -91 -50 -91 -58 0 -106 45 -106 100 0 55 -216 100 -480 100 -440 0 -720 123 -720 317 0 42 72 49 160 15 118 -45 151 -11 124 128 -21 110 -174 235 -361 295 l-325 106 276 99 c345 124 826 -34 826 -271z m1639 181 c120 -87 189 -298 214 -650 19 -286 19 -520 0 -520 -53 0 -530 871 -603 1101 -75 234 118 268 389 69z m-7579 -343 c-33 -33 -56 26 -52 131 5 117 28 141 60 61 29 -72 26 -159 -8 -192z m8860 137 c117 -88 151 -205 108 -372 -57 -220 -47 -229 111 -99 148 121 230 122 543 9 596 -215 1096 -597 1225 -936 91 -237 132 -272 164 -141 68 272 245 214 989 -327 379 -277 983 -700 1340 -941 798 -538 1230 -980 1184 -1214 -56 -290 -242 -271 -598 62 -185 172 -516 429 -736 569 -220 141 -422 288 -450 327 -80 113 -700 411 -700 336 0 -37 -82 7 -183 98 -101 91 -210 139 -242 107 -32 -32 -156 39 -275 158 -151 151 -289 199 -453 158 -291 -73 -438 128 -212 293 245 179 202 249 -152 249 -175 0 -400 75 -501 166 -101 91 -212 138 -247 103 -35 -35 44 -155 176 -267 204 -172 209 -192 39 -132 -269 94 -572 401 -843 855 -123 206 -268 375 -322 375 -54 0 -70 90 -35 200 44 139 18 200 -87 200 -195 0 -293 -322 -220 -727 52 -293 47 -302 -58 -98 -64 124 -176 225 -250 225 -208 0 -175 667 40 792 235 137 440 128 645 -28z m-6184 -214 c32 -82 14 -150 -39 -150 -53 0 -97 68 -97 150 0 83 18 150 39 150 22 0 66 -67 97 -150z m2325 -622 c-42 -43 -141 10 -219 116 -220 302 -167 426 77 181 121 -121 185 -254 142 -297z m-4901 99 c-33 -33 -56 26 -52 131 5 117 28 141 60 61 29 -72 26 -159 -8 -192z m4476 -224 c-55 -55 -232 203 -234 341 -1 52 62 7 140 -100 78 -106 120 -215 94 -241z m1364 -203 c0 -55 -132 -100 -294 -100 -162 0 -322 45 -356 100 -37 60 82 100 294 100 196 0 356 -45 356 -100z m-2343 -243 c34 -133 124 -267 202 -297 174 -67 188 -460 16 -460 -108 1 -475 716 -475 926 0 182 202 50 257 -169z m961 -479 c-71 -71 -118 -77 -118 -15 0 134 118 252 185 185 28 -28 -2 -105 -67 -170z m2382 122 c0 -55 -42 -100 -94 -100 -52 0 -122 45 -156 100 -34 55 8 100 94 100 86 0 156 -45 156 -100z m7269 -864 c-130 -131 -269 103 -264 445 l5 369 158 -379 c86 -209 132 -405 101 -435z m-4822 265 c438 -98 1468 -665 1545 -851 97 -234 638 -640 936 -703 177 -38 412 -147 522 -243 264 -230 529 -318 603 -200 32 53 16 96 -35 96 -52 0 -118 90 -147 200 -29 110 -19 200 21 200 87 0 608 -779 608 -910 0 -50 180 -164 400 -252 220 -88 400 -222 400 -299 0 -175 16 -177 -476 61 -228 110 -505 200 -616 200 -111 0 -302 135 -424 300 -230 312 -551 419 -448 150 32 -82 10 -150 -49 -150 -58 0 -130 92 -159 205 -32 120 -368 391 -816 658 -419 249 -1077 674 -1462 944 l-700 491 -642 -64 c-581 -59 -635 -49 -575 108 49 128 21 164 -108 139 -96 -19 -181 -89 -187 -157 -25 -238 -39 -248 -187 -125 -143 119 -439 105 -1426 -65 -205 -36 -325 -15 -325 55 0 61 169 113 375 116 206 2 510 69 675 149 330 159 1887 128 2697 -53z m-4055 -265 c97 -84 -555 -24 -692 63 -102 65 -22 76 250 34 220 -34 419 -77 442 -97z m3108 -609 c0 -174 -278 -527 -415 -527 -178 0 -75 290 124 353 145 46 194 125 159 257 -27 105 -9 165 41 134 50 -31 91 -128 91 -217z m635 -27 c-51 -256 -30 -300 147 -300 113 0 234 -45 268 -100 99 -161 -413 -115 -549 49 -71 85 -96 256 -60 400 89 357 266 313 194 -49z m-2586 -300 c142 0 98 -353 -72 -571 -52 -66 -65 -167 -30 -225 36 -57 11 -104 -54 -104 -81 0 -102 127 -66 400 57 421 -18 502 -229 248 -179 -216 -238 -109 -80 143 72 116 192 188 265 160 73 -28 193 -51 266 -51z m1251 -120 c0 -162 -30 -190 -111 -109 -61 61 -81 160 -44 220 103 168 155 130 155 -111z m4402 68 c193 -233 55 -277 -151 -49 -100 111 -136 201 -79 201 57 0 160 -69 230 -152z m-6602 -98 c-139 -168 -300 -199 -300 -57 0 51 79 113 175 138 96 25 192 51 212 57 21 7 -19 -55 -87 -138z m-500 -264 c0 -118 -52 -185 -125 -161 -69 23 -114 72 -100 108 14 37 25 137 25 223 0 86 45 128 100 94 55 -34 100 -153 100 -264z m10100 158 c0 -24 -45 -44 -100 -44 -55 0 -100 48 -100 106 0 58 45 78 100 44 55 -34 100 -82 100 -106z m-13669 -319 c210 -487 249 -846 99 -897 -177 -61 -558 748 -486 1034 85 337 201 296 387 -137z m5644 117 c-95 -96 -286 59 -215 174 42 68 98 66 170 -6 58 -58 79 -134 45 -168z m1827 -317 c2 -296 132 -405 628 -530 455 -115 770 -388 770 -667 0 -201 -180 -149 -250 72 -35 110 -145 200 -244 200 -100 0 -238 68 -306 150 -68 83 -181 150 -250 150 -138 0 -650 623 -650 790 0 57 -68 78 -150 46 -82 -31 -229 -26 -325 11 -146 58 -127 89 120 191 253 105 320 97 475 -58 99 -99 181 -259 182 -355z m-3609 -83 c-96 -117 -143 -123 -202 -27 -45 72 -7 175 91 247 206 152 287 -8 111 -220z m5007 258 c0 -55 -48 -100 -106 -100 -58 0 -78 45 -44 100 34 55 82 100 106 100 24 0 44 -45 44 -100z m800 58 c0 -177 -152 -358 -300 -358 -210 0 -343 265 -169 336 152 62 469 77 469 22z m4302 -877 c106 24 108 1 6 -121 -69 -83 -90 -208 -48 -277 43 -69 110 -307 149 -529 39 -222 185 -809 324 -1304 236 -839 410 -1302 865 -2300 269 -588 409 -1193 504 -2168 48 -494 153 -973 244 -1112 152 -232 149 -248 -50 -300 -174 -45 -245 25 -415 413 -214 487 -388 1060 -401 1317 -12 235 -180 394 -349 329 -120 -46 -139 -12 -86 156 48 151 21 234 -91 277 -113 44 -129 97 -57 184 129 155 31 258 -172 181 -125 -48 -142 -8 -88 207 49 194 29 266 -74 266 -230 0 -276 282 -58 352 107 34 195 125 195 202 0 83 -61 116 -150 82 -175 -67 -204 119 -35 223 80 49 56 115 -74 210 -140 103 -158 159 -67 215 95 58 76 203 -81 621 -112 300 -216 795 -231 1101 -15 306 -64 616 -108 688 -70 113 -111 1671 -51 1956 11 55 76 -125 143 -400 79 -321 170 -489 256 -469z m-5468 575 c27 -70 188 -155 357 -189 254 -51 309 -110 309 -334 l0 -272 -330 319 c-181 176 -403 320 -494 320 -191 0 -314 158 -229 296 75 120 321 31 387 -140z m-6434 50 c0 -52 -45 -122 -100 -156 -55 -34 -100 8 -100 94 0 86 45 156 100 156 55 0 100 -42 100 -94z m754 -99 c-36 -59 -114 -107 -172 -107 -66 0 -59 57 20 152 137 166 260 129 152 -45z m3446 63 c-1 -72 -160 -122 -400 -125 -524 -6 -523 208 0 228 253 11 400 -28 400 -103z m834 -152 c91 -101 193 -388 228 -640 62 -455 289 -678 690 -678 191 0 485 -460 413 -647 -31 -81 10 -308 92 -504 110 -263 225 -370 446 -415 163 -32 297 -76 297 -96 0 -110 -428 -441 -638 -494 -458 -115 -858 313 -571 611 105 109 137 338 121 876 -17 536 -212 364 -212 -187 0 -329 -39 -444 -151 -444 -124 0 -139 99 -84 565 56 481 39 585 -119 700 -101 74 -221 135 -265 135 -130 0 -93 -278 44 -334 80 -32 66 -53 -38 -58 -293 -14 -411 252 -340 768 56 408 35 509 -138 666 -112 102 -180 224 -151 271 82 133 195 105 376 -95z m3166 -280 c0 -141 -44 -223 -100 -188 -55 34 -100 174 -100 312 0 141 44 223 100 188 55 -34 100 -174 100 -312z m-6174 18 c-37 -194 -74 -220 -177 -125 -90 83 -98 157 -27 244 163 199 254 146 204 -119z m799 123 c88 73 178 66 300 -23 248 -181 218 -256 -100 -253 -272 3 -625 198 -625 345 0 42 68 20 150 -48 105 -87 187 -93 275 -21z m-3296 -179 c29 -110 12 -175 -38 -144 -50 31 -91 121 -91 200 0 207 68 177 129 -56z m1983 -67 c-118 -203 -146 -138 -50 113 35 90 84 142 110 116 25 -26 -1 -129 -60 -229z m-653 -207 c-109 -110 -184 64 -106 245 74 171 80 171 121 -4 24 -100 17 -209 -15 -241z m3226 242 c88 -106 51 -124 -187 -89 -164 24 -298 84 -298 132 0 138 362 105 485 -43z m3709 -246 c148 -550 328 -760 584 -679 131 42 191 122 156 212 -30 80 -10 145 45 145 152 0 222 -269 156 -601 -47 -233 -24 -299 101 -299 88 0 303 -127 476 -281 276 -247 300 -309 198 -500 -157 -294 -329 -279 -253 23 47 189 2 280 -207 417 -227 149 -281 154 -360 33 -145 -220 -375 140 -310 483 47 246 35 261 -113 139 -141 -117 -174 -112 -230 35 -36 94 -172 277 -302 406 -223 224 -312 634 -168 778 106 107 120 88 227 -311z m-5194 -176 c0 -25 -90 -46 -200 -46 -113 0 -200 67 -200 154 0 122 40 131 200 46 110 -59 200 -128 200 -154z m2060 -19 c-101 -102 -185 51 -102 186 63 102 87 102 121 1 23 -70 15 -154 -19 -187z m-2858 -74 c-69 -84 -101 -246 -71 -360 41 -157 17 -194 -96 -151 -83 32 -170 58 -193 58 -116 0 -16 248 182 454 240 250 386 249 178 -1z m2431 -215 c426 -362 590 -612 631 -962 37 -315 34 -316 -305 -162 -206 94 -233 148 -149 304 100 187 41 570 -92 595 -37 7 -160 23 -272 35 -113 13 -308 78 -436 147 -137 73 -369 97 -571 60 -367 -69 -456 63 -164 243 302 186 986 55 1358 -260z m1613 168 c32 -51 147 -77 256 -56 123 24 238 -38 306 -164 135 -252 65 -344 -106 -138 -70 83 -180 152 -245 152 -158 0 -541 293 -388 297 66 2 145 -39 177 -91z m1525 -106 c29 -110 117 -200 197 -200 79 0 119 -40 89 -88 -30 -49 35 -202 144 -341 256 -325 251 -392 -26 -353 -165 23 -225 99 -225 282 0 138 -101 351 -225 475 -242 242 -292 425 -116 425 61 0 133 -90 162 -200z m2206 19 c22 -65 -34 -147 -123 -181 -209 -80 -276 -11 -194 202 70 182 253 170 317 -21z m-9134 -487 c34 -88 179 -130 396 -115 188 12 403 -25 477 -83 74 -59 250 -134 392 -168 348 -83 527 -480 371 -823 -128 -281 -5 -438 346 -441 96 -1 175 -47 175 -102 0 -55 101 -103 225 -107 162 -5 114 -48 -174 -153 -354 -130 -412 -129 -511 7 -62 84 -162 153 -223 153 -60 0 -160 94 -221 208 -88 164 -78 246 46 383 199 220 198 299 -7 526 -215 237 -399 233 -462 -10 -34 -129 -8 -176 79 -143 96 37 125 -80 113 -457 -16 -532 -49 -583 -245 -387 -93 93 -120 93 -120 0 0 -66 -47 -120 -104 -120 -94 0 -83 708 17 1095 24 94 -102 192 -362 280 -508 173 -851 493 -851 795 l0 236 295 -218 c162 -120 319 -281 348 -356z m657 468 c0 -55 -42 -100 -94 -100 -52 0 -122 45 -156 100 -34 55 8 100 94 100 86 0 156 -45 156 -100z m-1644 -775 c26 -124 114 -225 196 -225 163 0 200 -156 57 -244 -295 -183 -535 279 -425 819 45 219 63 235 90 75 19 -110 55 -301 82 -425z m3787 -184 c69 -275 257 -327 257 -71 0 123 30 140 109 61 156 -156 -75 -583 -241 -446 -79 66 -177 56 -293 -29 -216 -158 -222 -293 -21 -460 117 -96 183 -99 270 -12 160 160 276 145 276 -34 0 -225 -693 -191 -1000 50 -195 153 -213 196 -81 198 270 3 328 215 107 391 -251 199 -467 605 -370 695 39 36 88 21 109 -34 204 -539 485 -741 485 -350 0 83 33 200 72 261 95 146 -6 239 -264 241 -168 1 -180 19 -60 95 185 116 557 -205 645 -556z m3838 484 c-18 -96 -130 -189 -249 -206 -175 -25 -206 9 -163 175 68 259 461 289 412 31z m-3481 -131 c0 -113 -45 -178 -100 -144 -55 34 -100 127 -100 206 0 79 45 144 100 144 55 0 100 -93 100 -206z m600 -156 c0 -167 -120 -178 -272 -26 -168 168 -44 426 134 278 76 -63 138 -176 138 -252z m-7200 174 c0 -48 -67 -144 -150 -212 -195 -162 -189 -314 25 -693 130 -231 309 -352 700 -477 578 -183 650 -277 283 -369 -315 -79 -557 18 -561 225 -3 141 -24 137 -147 -26 -138 -182 -148 -179 -247 82 -57 149 -103 337 -103 418 0 80 -72 174 -160 208 -259 99 -16 932 272 932 49 0 88 -39 88 -88z m1100 -59 c0 -82 -135 -218 -300 -303 -370 -192 -383 -118 -35 205 309 286 335 294 335 98z m11559 -16 c-37 -96 8 -214 110 -288 141 -104 152 -168 58 -363 -93 -194 -115 -203 -120 -52 -4 102 -97 299 -207 439 -255 324 -252 427 11 427 153 0 193 -44 148 -163z m-11199 -210 c-33 -33 -56 26 -52 131 5 117 28 141 60 61 29 -72 26 -159 -8 -192z m8963 -202 c56 -69 217 -125 359 -125 188 0 228 -30 148 -110 -157 -157 -709 -13 -778 203 -31 98 -23 264 18 368 71 182 76 181 113 -11 21 -110 84 -256 140 -325z m-1952 -62 c-58 -173 -214 -134 -252 62 -24 125 12 157 128 112 89 -34 145 -112 124 -174z m-7321 37 c-34 -55 -104 -100 -156 -100 -52 0 -94 45 -94 100 0 55 70 100 156 100 86 0 128 -45 94 -100z m9292 -539 c134 -34 341 -196 458 -361 258 -363 123 -400 -181 -50 -120 138 -299 250 -399 250 -185 0 -620 342 -620 487 0 199 143 186 312 -29 102 -130 295 -263 430 -297z m-10013 240 c-28 -109 -92 -174 -140 -144 -142 87 -103 343 52 343 91 0 122 -70 88 -199z m6699 87 c-141 -141 40 -588 238 -588 166 0 172 122 16 278 -179 179 -44 241 266 123 200 -76 315 -73 417 11 173 144 315 28 158 -129 -143 -143 19 -483 231 -483 80 0 146 -90 146 -200 0 -110 -45 -200 -100 -200 -55 0 -100 45 -100 100 0 55 -133 100 -295 100 -162 0 -331 58 -375 130 -44 71 -260 172 -479 225 -257 61 -411 159 -433 275 -38 197 144 470 314 470 75 0 73 -35 -4 -112z m-5028 -94 c0 -58 -45 -78 -100 -44 -55 34 -100 82 -100 106 0 24 45 44 100 44 55 0 100 -48 100 -106z m-207 -419 c4 -41 -33 -75 -82 -75 -126 0 -225 296 -144 427 60 98 205 -127 226 -352z m1295 290 c84 -101 72 -215 -48 -455 -208 -417 -112 -778 263 -992 372 -211 371 -273 -6 -404 -377 -132 -629 -46 -566 193 57 220 -281 553 -656 646 -346 86 -394 -194 -50 -297 219 -66 219 -70 25 -155 -262 -113 -854 -16 -1075 177 -284 249 -208 353 211 286 302 -49 422 -21 555 126 100 111 250 168 363 138 239 -63 745 56 649 152 -39 38 -146 70 -237 70 -265 0 -192 189 75 195 267 6 424 255 161 255 -90 0 -136 45 -102 100 87 141 306 124 438 -35z m3112 -121 c0 -24 -45 -44 -100 -44 -55 0 -100 48 -100 106 0 58 45 78 100 44 55 -34 100 -82 100 -106z m5689 -164 c164 -176 271 -363 238 -417 -33 -53 -97 3 -143 126 -45 123 -126 197 -179 164 -53 -33 -70 -127 -39 -210 50 -128 17 -132 -229 -28 -301 129 -537 357 -537 520 0 53 82 22 183 -70 271 -245 494 -216 267 35 -158 175 -161 200 -21 200 89 0 295 -144 460 -320z m-8359 -135 c-48 -297 -11 -403 225 -650 329 -343 694 -406 598 -103 -94 295 110 339 399 86 143 -125 381 -260 529 -299 259 -68 258 -69 -31 -39 -165 18 -385 68 -489 112 -140 59 -176 43 -141 -61 25 -78 160 -181 299 -230 328 -116 816 2 748 181 -75 195 132 358 453 358 154 0 374 94 488 208 233 233 240 231 335 -78 58 -190 21 -228 -279 -284 -191 -36 -441 -35 -555 1 -151 48 -209 23 -209 -90 0 -86 79 -158 175 -160 96 -1 -42 -113 -307 -250 -582 -299 -673 -303 -968 -47 -127 110 -339 200 -472 200 -134 0 -442 117 -685 260 -351 205 -443 315 -443 529 0 209 256 702 369 710 10 0 -7 -159 -39 -354z m10170 -195 c0 -241 -48 -468 -107 -504 -152 -94 -160 -57 -114 529 48 623 221 604 221 -25z m-898 -141 c-128 -478 -378 -651 -741 -513 -139 52 -558 75 -931 51 -668 -44 -675 -42 -380 113 194 102 451 141 727 111 234 -26 447 -13 472 28 26 41 160 52 299 26 205 -39 252 -9 252 163 0 117 40 212 88 212 49 0 119 101 157 225 119 391 172 9 57 -416z m450 123 c-57 -441 -253 -697 -251 -327 2 348 107 695 210 695 48 0 67 -165 41 -368z m-13822 -348 c110 91 171 95 221 14 92 -148 62 -168 -376 -250 -382 -72 -435 -22 -313 297 56 145 74 144 189 -13 104 -143 155 -152 279 -48z m8126 63 c188 -148 186 -152 -48 -125 -133 15 -261 84 -284 153 -56 170 97 157 332 -28z m2918 -116 c-93 -93 -203 -136 -244 -95 -41 41 -8 117 73 168 243 154 352 108 171 -73z m-9874 -136 c0 -30 -53 -108 -118 -173 -86 -86 -153 -88 -250 -7 -203 169 -158 265 118 249 137 -8 250 -39 250 -69z m-1745 -295 c150 0 245 -58 245 -148 0 -82 108 -175 240 -208 174 -44 253 -147 288 -377 65 -429 -3 -470 -137 -83 -64 182 -180 316 -276 316 -314 1 -815 385 -812 624 3 201 14 207 105 51 56 -96 212 -175 347 -175z m11054 208 c-77 -49 -275 -72 -439 -52 -164 21 -371 -4 -459 -56 -165 -96 -159 -98 489 -140 238 -16 174 -195 -93 -258 -133 -32 -263 -119 -288 -194 -36 -110 56 -124 460 -70 311 41 531 27 569 -36 93 -149 344 -125 520 51 110 111 189 124 280 49 70 -58 208 -74 307 -36 263 101 562 426 493 538 -33 53 -12 96 46 96 101 0 149 -145 113 -339 -32 -173 533 -661 765 -661 230 0 229 -6 -72 -300 -235 -230 -398 -300 -699 -300 -746 0 -1000 -243 -1149 -1100 -102 -583 -481 -1745 -595 -1823 -213 -146 -442 -71 -821 271 -212 191 -413 348 -445 350 -98 4 -298 -506 -236 -605 31 -51 144 -93 251 -93 125 0 194 -69 194 -192 0 -269 164 -297 844 -139 728 169 835 253 909 716 137 858 116 839 1061 950 246 29 258 14 171 -236 -52 -147 -283 -463 -514 -702 -232 -239 -511 -612 -621 -830 -146 -288 -344 -470 -732 -671 -293 -152 -595 -360 -672 -461 -133 -176 -140 -174 -143 42 -2 153 80 259 247 323 191 72 250 167 250 398 0 323 -93 366 -416 193 -164 -87 -246 -68 -425 100 -199 187 -241 193 -415 62 -107 -81 -340 -148 -519 -150 -352 -3 -412 -107 -175 -303 82 -68 150 -246 150 -394 0 -305 399 -712 675 -689 617 52 703 -153 159 -380 -502 -210 -977 -102 -1411 320 -195 189 -394 343 -444 343 -117 0 -879 611 -879 704 0 39 135 98 300 131 165 33 300 112 300 175 0 73 -103 94 -282 59 -307 -62 -644 113 -1035 538 -295 320 -375 1288 -136 1653 193 294 194 377 3 304 -91 -35 -150 0 -150 89 0 87 95 147 231 147 127 0 318 68 425 152 183 143 177 148 -106 92 l-300 -60 250 206 c160 132 198 206 106 208 -104 1 -90 43 50 149 172 130 175 147 22 150 -111 2 -151 56 -114 153 72 188 -37 189 -389 5 -151 -79 -275 -106 -275 -61 0 150 988 733 1425 841 347 87 360 -8 19 -137 -455 -173 -166 -293 313 -130 516 176 707 124 246 -67 -167 -69 -303 -155 -303 -190 0 -173 653 -827 981 -982 262 -125 318 -186 194 -210 -216 -42 -223 -154 -21 -322 117 -97 237 -103 500 -22 281 86 346 80 346 -34 0 -182 57 -178 414 33 244 144 309 151 379 37 91 -146 307 -70 307 109 0 59 62 158 138 219 76 61 164 351 196 645 53 479 41 527 -113 457 -94 -42 -283 -73 -421 -68 -424 16 -1400 242 -1400 325 0 43 -90 102 -200 131 -270 71 -252 233 49 430 137 89 223 206 190 259 -32 52 35 120 151 150 115 31 210 95 210 144 0 48 304 87 675 86 435 -1 625 -33 534 -90z m-2809 -113 c-325 -221 -500 -298 -500 -222 0 44 101 130 225 191 289 143 470 164 275 31z m300 -145 c-327 -187 -504 -185 -256 3 107 81 264 145 350 143 100 -2 66 -54 -94 -146z m2650 50 c-34 -55 -82 -100 -106 -100 -24 0 -44 45 -44 100 0 55 48 100 106 100 58 0 78 -45 44 -100z m2850 0 c0 -55 -70 -100 -156 -100 -86 0 -128 45 -94 100 34 55 104 100 156 100 52 0 94 -45 94 -100z m1650 0 c34 -55 17 -100 -38 -100 -55 0 -128 45 -162 100 -34 55 -17 100 38 100 55 0 128 -45 162 -100z m-13550 -262 c0 -21 -135 -38 -300 -38 -323 0 -412 160 -125 225 154 35 425 -84 425 -187z m12387 -88 c-231 -220 -738 -280 -883 -104 -111 133 -89 154 159 158 158 1 400 66 537 142 280 156 411 18 187 -196z m-9037 -369 c0 -573 192 -828 406 -538 78 106 175 159 215 119 40 -40 7 -115 -74 -167 -129 -83 -129 -107 3 -193 122 -81 109 -99 -70 -100 -121 -1 -261 -76 -312 -166 -136 -243 -324 -67 -316 297 12 555 -72 1007 -195 1048 -66 22 -144 -52 -173 -164 -54 -203 -334 -390 -334 -222 0 194 460 605 650 581 168 -22 200 -101 200 -495z m2150 419 c0 -55 -48 -100 -106 -100 -58 0 -78 45 -44 100 34 55 82 100 106 100 24 0 44 -45 44 -100z m-4100 -162 c0 -21 -115 -38 -256 -38 -141 0 -231 41 -200 91 51 83 456 36 456 -53z m-602 -13 c-3 -178 -172 -305 -498 -374 -377 -80 -360 -20 74 258 306 196 427 229 424 116z m-1498 -225 l231 -200 -241 2 c-132 0 -307 45 -390 100 -133 87 -133 109 0 196 83 55 154 100 160 100 5 1 113 -88 240 -198z m13500 100 c0 -55 -48 -100 -106 -100 -58 0 -78 45 -44 100 34 55 82 100 106 100 24 0 44 -45 44 -100z m-14504 -466 c171 -289 188 -382 85 -448 -72 -46 -163 -84 -201 -84 -63 -2 -278 633 -279 823 -2 189 199 42 395 -291z m2727 63 c-179 -163 -382 -296 -450 -294 -144 3 529 592 677 591 55 0 -47 -134 -227 -297z m1053 178 c-64 -192 -476 -220 -476 -32 0 102 90 157 258 157 162 0 243 -47 218 -125z m1924 25 c0 -55 -48 -100 -106 -100 -58 0 -78 45 -44 100 34 55 82 100 106 100 24 0 44 -45 44 -100z m8250 0 c-34 -55 -82 -100 -106 -100 -24 0 -44 45 -44 100 0 55 48 100 106 100 58 0 78 -45 44 -100z m-5550 -152 c0 -79 -520 -261 -578 -203 -28 28 57 94 188 147 282 112 390 128 390 56z m6300 -186 c0 -326 -775 -587 -872 -295 -25 73 34 98 157 66 120 -32 268 27 381 149 220 241 334 268 334 80z m-13557 -173 c-78 -127 -276 -110 -484 42 -158 115 -136 126 180 89 198 -23 335 -82 304 -131z m2157 50 c0 -21 -93 -39 -206 -39 -113 0 -179 43 -147 96 54 86 353 38 353 -57z m14724 -362 c28 -260 12 -449 -36 -419 -49 29 -88 261 -88 515 0 573 57 529 124 -96z m-13824 -153 c0 -309 183 -646 309 -569 54 34 267 33 474 -2 l376 -64 -41 -639 c-33 -513 -1 -705 160 -970 110 -181 231 -476 269 -653 83 -396 531 -927 781 -927 101 0 157 -43 125 -96 -33 -52 -137 -68 -231 -35 -259 91 -815 660 -819 837 -4 198 -267 563 -348 483 -69 -70 59 -393 344 -864 108 -179 154 -325 102 -325 -53 0 -166 136 -253 303 -86 167 -198 278 -248 247 -102 -63 -38 -286 179 -625 79 -124 99 -225 45 -225 -55 0 -165 98 -245 218 -240 362 -282 51 -54 -399 212 -418 214 -419 782 -419 313 0 736 70 940 155 204 85 342 108 306 49 -125 -201 -631 -397 -1308 -505 -674 -107 -683 -106 -1105 198 -532 381 -710 216 -226 -210 l336 -295 -319 153 c-383 185 -965 719 -1125 1033 -131 257 -331 209 -235 -56 34 -95 195 -343 358 -552 162 -208 273 -401 247 -428 -106 -106 -676 514 -676 735 0 280 -198 680 -717 1446 -213 315 -416 653 -450 750 -34 97 -236 360 -450 584 -368 385 -379 415 -211 563 98 87 358 184 578 217 220 34 470 73 557 87 190 32 1193 785 1193 897 0 43 40 79 89 79 48 0 118 -199 155 -442 36 -243 132 -497 213 -564 210 -174 300 -37 105 158 -89 89 -163 305 -164 480 0 175 -42 383 -93 463 -50 80 -65 188 -33 240 86 141 328 -236 328 -511z m13337 -124 c-86 -208 -245 362 -162 580 47 122 83 88 143 -134 45 -163 53 -363 19 -446z m-9237 500 c0 -55 -70 -100 -156 -100 -86 0 -128 45 -94 100 34 55 104 100 156 100 52 0 94 -45 94 -100z m7093 -454 c4 -112 96 -378 205 -592 109 -213 249 -549 311 -746 62 -197 187 -470 277 -608 90 -137 212 -383 271 -545 109 -300 737 -742 1065 -751 149 -3 133 -75 -116 -526 -159 -287 -341 -540 -404 -561 -167 -55 -602 383 -602 607 0 143 -48 174 -197 127 -151 -48 -211 -5 -259 188 -35 137 -33 298 4 358 37 60 -36 192 -162 294 -192 156 -209 211 -101 340 104 126 101 207 -15 437 -78 155 -122 338 -98 407 25 69 -9 125 -75 125 -75 0 -97 87 -59 239 38 151 5 284 -89 362 -106 88 -147 314 -142 786 5 463 33 603 93 463 47 -110 89 -292 93 -404z m-9423 -22 c-154 -153 -270 -213 -270 -138 0 142 421 526 495 452 24 -24 -77 -165 -225 -314z m3839 237 c-64 -77 -103 -201 -88 -275 32 -152 2 -154 -594 -41 -503 95 -480 267 25 185 358 -58 506 114 173 201 -96 25 -1 51 212 57 321 10 368 -12 272 -127z m3493 -257 c-73 -137 -182 -174 -425 -143 -180 22 -406 43 -502 46 -319 10 -181 193 150 200 179 4 415 43 525 88 270 108 371 32 252 -191z m1398 -50 c0 -173 -83 -263 -316 -345 -352 -122 -531 -49 -256 105 97 54 148 144 114 199 -70 113 264 395 382 322 42 -26 76 -152 76 -281z m-10150 146 c34 -55 31 -150 -7 -211 -67 -108 -238 58 -241 236 -3 110 176 92 248 -25z m7963 -567 c123 -151 111 -161 -113 -102 -137 37 -284 67 -325 68 -41 0 -75 46 -75 101 0 162 364 114 513 -67z m539 -326 c-38 -169 -109 -307 -160 -307 -111 0 -121 138 -17 242 72 72 85 114 113 375 6 64 39 90 72 57 32 -33 29 -198 -8 -367z m1648 315 c0 -154 -600 -430 -873 -401 -222 23 -283 -16 -309 -196 -18 -124 -74 -225 -125 -225 -116 0 -116 4 15 381 93 264 148 303 375 262 147 -26 380 16 517 95 296 169 400 190 400 84z m-15100 -416 c0 -107 -45 -222 -100 -256 -57 -35 -100 49 -100 194 0 141 45 256 100 256 55 0 100 -87 100 -194z m15045 -350 c-170 -260 -345 -339 -345 -156 0 55 38 100 84 100 46 0 142 124 213 275 71 151 149 221 172 156 24 -65 -32 -234 -124 -375z m-8839 -135 c-60 -220 -81 -483 -48 -585 50 -154 42 -160 -47 -36 -139 194 -141 657 -3 915 166 309 218 152 98 -294z m10444 379 c-34 -55 -82 -100 -106 -100 -24 0 -44 45 -44 100 0 55 48 100 106 100 58 0 78 -45 44 -100z m1848 -125 c0 -69 -45 -192 -98 -275 -76 -117 -97 -89 -98 125 -1 151 43 275 98 275 55 0 99 -56 98 -125z m-4034 -75 c26 0 20 -45 -14 -100 -98 -159 -350 -116 -350 61 0 105 54 140 158 100 87 -34 180 -61 206 -61z m-15664 -250 c0 -82 -67 -150 -150 -150 -82 0 -150 68 -150 150 0 83 68 150 150 150 83 0 150 -67 150 -150z m18100 0 c0 -82 -45 -150 -100 -150 -55 0 -100 68 -100 150 0 83 45 150 100 150 55 0 100 -67 100 -150z m-2557 -261 c-83 -135 -315 -106 -373 45 -37 97 16 122 188 89 132 -25 215 -86 185 -134z m4257 -445 c0 -24 -45 -44 -100 -44 -55 0 -100 48 -100 106 0 58 45 78 100 44 55 -34 100 -82 100 -106z m-24155 -384 c-39 -208 -126 -360 -206 -360 -185 0 -175 158 31 506 212 359 262 317 175 -146z m2567 213 c-98 -98 -110 -86 -56 56 38 99 94 154 125 124 30 -31 0 -112 -69 -180z m16799 -602 c-182 -182 -138 -1237 61 -1470 249 -290 328 -250 328 169 0 659 190 218 216 -502 18 -482 -13 -705 -108 -763 -73 -45 -103 -133 -65 -194 155 -251 -154 -88 -359 189 -150 203 -308 300 -489 300 -248 0 -272 38 -330 525 -104 866 -77 1341 85 1475 172 143 170 150 152 -653 -14 -599 142 -1236 272 -1107 37 38 54 452 38 922 -18 533 19 971 98 1163 71 170 147 253 171 183 23 -69 -9 -176 -70 -237z m1149 -583 c-131 -557 -131 -652 -5 -749 80 -61 145 -252 145 -425 0 -377 161 -409 318 -64 63 138 191 250 285 250 133 0 169 -84 163 -375 -5 -206 69 -529 163 -716 95 -188 156 -357 138 -376 -70 -70 -730 207 -1090 458 l-373 259 1 750 c0 690 108 1430 263 1800 143 341 138 -192 -8 -812z m-19908 109 c37 -60 -75 -47 -262 29 -180 73 -346 191 -369 262 -50 150 521 -114 631 -291z m14948 3 c0 -55 -90 -100 -200 -100 -110 0 -200 45 -200 100 0 55 90 100 200 100 110 0 200 -45 200 -100z m-15605 -144 c66 -79 218 -161 337 -182 194 -35 199 -48 42 -117 -186 -84 -674 167 -674 345 0 144 158 119 295 -46z m18350 -1450 c99 -109 155 -263 125 -341 -30 -78 14 -240 98 -360 135 -194 136 -236 1 -386 -255 -286 -229 -549 108 -1096 369 -601 394 -723 148 -724 -96 0 -304 -67 -461 -150 -158 -82 -339 -149 -402 -149 -64 0 -281 -112 -483 -250 -280 -190 -497 -250 -904 -250 -294 0 -586 -51 -649 -114 -86 -86 -197 -75 -445 41 -182 85 -524 206 -759 269 -557 147 -466 275 200 279 779 5 1054 144 1135 574 82 443 -152 751 -571 751 -234 0 -280 39 -260 225 33 312 -415 387 -495 83 -55 -211 -145 -260 -263 -143 -36 36 13 123 109 193 157 116 140 143 -176 276 -192 82 -377 131 -411 110 -35 -22 -256 145 -493 370 l-430 409 342 -72 c187 -40 540 -203 783 -362 485 -317 808 -372 808 -139 0 187 94 186 344 -3 107 -81 267 -147 356 -147 90 0 292 -135 450 -300 373 -389 596 -400 506 -25 -59 244 -35 230 207 -122 151 -218 280 -488 289 -600 8 -111 53 -203 99 -203 160 0 245 594 140 983 -97 360 -24 686 85 380 27 -76 133 -222 237 -325 103 -104 187 -255 187 -338 0 -224 177 -181 253 61 69 217 21 806 -169 2058 -60 396 -73 801 -29 900 56 125 101 -27 146 -492 42 -434 129 -744 244 -871z m5706 1293 c99 -110 152 -230 116 -266 -55 -55 -467 326 -467 432 0 101 191 10 351 -166z m-11901 -299 c34 -55 -8 -100 -94 -100 -86 0 -156 45 -156 100 0 55 42 100 94 100 52 0 122 -45 156 -100z m3626 -75 c23 -72 -44 -125 -159 -125 -275 0 -517 102 -517 217 0 140 627 55 676 -92z m-3218 -209 c-214 -42 -301 34 -209 182 49 80 113 75 225 -18 142 -117 140 -133 -16 -164z m8508 -41 c-28 -69 -50 -12 -50 125 0 138 22 194 50 125 28 -69 28 -181 0 -250z m-3966 131 c0 -52 -50 -125 -111 -163 -70 -43 -94 -260 -63 -574 42 -443 31 -483 -87 -321 -75 102 -111 299 -81 443 30 143 75 360 100 484 44 217 242 324 242 131z m6900 -62 c0 -19 -52 -149 -116 -289 -125 -273 -346 -361 -245 -97 34 87 61 243 61 347 0 127 49 170 150 131 83 -31 150 -73 150 -92z m-23450 -244 c34 -55 -8 -100 -94 -100 -86 0 -156 45 -156 100 0 55 42 100 94 100 52 0 122 -45 156 -100z m478 -85 c168 -66 166 -84 -29 -292 -237 -256 -499 -294 -499 -73 0 83 45 150 100 150 55 0 100 68 100 150 0 163 55 174 328 65z m22055 -627 c368 -420 348 -588 -70 -588 -371 0 -567 175 -714 637 -98 310 -97 402 5 466 160 98 355 -30 779 -515z m-10430 17 c-37 -60 -114 -79 -171 -44 -67 41 -57 93 29 146 161 99 234 47 142 -102z m-499 -112 c108 -173 -10 -210 -419 -131 -357 69 -367 79 -135 146 370 107 481 104 554 -15z m9846 -43 c0 -82 -18 -150 -39 -150 -22 0 -66 68 -97 150 -32 83 -14 150 39 150 53 0 97 -67 97 -150z m-9481 -218 c-72 -29 -159 -26 -192 8 -33 33 26 56 131 52 117 -5 141 -28 61 -60z m6718 -184 c67 -175 1387 -1048 1584 -1048 412 0 727 -940 472 -1411 -75 -137 -121 -498 -109 -849 25 -691 -25 -760 -660 -915 -361 -88 -442 -79 -531 60 -77 121 -119 132 -157 39 -29 -69 -96 -98 -149 -66 -60 37 -52 113 19 200 65 77 88 252 53 391 -34 138 -20 251 32 251 161 0 172 532 18 875 -80 179 -183 325 -228 325 -44 0 -81 64 -81 142 0 79 -112 276 -250 440 -137 163 -250 345 -250 404 0 59 -90 155 -200 214 -110 59 -200 173 -200 254 0 222 377 174 451 -58 36 -112 230 -308 432 -437 202 -128 438 -318 525 -421 214 -254 492 -1031 492 -1372 0 -362 164 -258 222 140 79 540 -223 1222 -741 1669 -258 222 -508 420 -555 440 -77 32 -526 830 -526 935 0 98 288 -75 337 -202z m1339 -132 c1242 -598 1164 -534 1285 -1066 63 -275 131 -565 152 -644 20 -79 -40 -161 -134 -182 -137 -30 -184 63 -238 473 -67 504 -297 803 -617 803 -194 0 -724 416 -724 569 0 153 42 160 276 47z m-18626 -116 c-34 -55 -104 -100 -156 -100 -52 0 -94 45 -94 100 0 55 70 100 156 100 86 0 128 -45 94 -100z m21927 -300 c-101 -161 -100 -241 5 -408 114 -183 105 -214 -76 -262 -113 -29 -207 -104 -208 -167 0 -66 -37 -56 -88 24 -50 80 -45 291 12 500 127 464 159 513 335 513 120 0 123 -35 20 -200z m-992 -698 c-285 -483 -425 -539 -466 -187 -21 186 38 314 198 425 418 293 526 198 268 -238z m-10078 -313 c114 -185 1241 -128 1557 80 152 99 334 131 511 89 151 -36 380 -83 509 -104 128 -21 257 -61 285 -90 95 -95 -80 -264 -275 -264 -107 0 -194 -45 -194 -100 0 -55 101 -101 225 -102 176 -1 193 -21 80 -93 -187 -118 -722 -21 -866 157 -154 191 -239 172 -239 -54 0 -136 -122 -232 -425 -333 -487 -162 -564 -409 -142 -457 208 -24 309 -110 385 -325 113 -326 201 -361 375 -151 122 147 596 74 842 -130 75 -62 295 -49 622 36 279 72 625 109 770 81 195 -37 363 31 641 260 208 171 430 311 494 311 64 0 305 85 536 188 399 179 802 183 802 8 0 -44 -143 -112 -319 -150 -175 -39 -546 -284 -825 -544 -709 -664 -1265 -834 -2303 -702 -575 73 -822 69 -898 -12 -74 -80 -68 -127 20 -159 69 -25 125 -87 125 -137 0 -133 -539 -113 -676 24 -85 85 -151 86 -250 4 -151 -126 -602 -46 -517 91 30 49 137 89 237 89 184 0 474 265 386 353 -26 26 -190 -23 -363 -110 -174 -86 -401 -130 -506 -97 -109 35 -255 -4 -343 -93 -85 -84 -202 -153 -261 -153 -142 0 -138 173 6 221 63 21 -26 177 -200 351 -172 172 -313 381 -313 464 0 84 -52 184 -115 223 -83 52 -100 -44 -60 -341 l55 -413 -293 152 c-161 83 -335 125 -387 93 -52 -32 -123 56 -158 196 -35 140 -105 254 -156 254 -305 0 -111 -786 215 -871 228 -60 270 -229 57 -229 -78 0 -231 124 -342 275 -242 332 -362 264 -190 -109 92 -201 221 -285 504 -331 286 -47 366 -100 323 -214 -33 -84 37 -254 156 -380 206 -220 206 -226 15 -176 -110 29 -249 161 -310 293 -60 133 -181 242 -269 242 -88 0 -227 68 -310 151 -169 168 -335 114 -335 -109 0 -83 130 -173 297 -206 171 -35 323 -142 359 -254 33 -106 169 -234 301 -285 l240 -91 -208 -353 c-137 -231 -283 -352 -424 -352 -553 4 -1966 711 -1964 983 1 91 113 407 250 701 137 294 249 590 249 658 0 68 113 184 250 257 138 74 241 183 229 242 -11 59 43 221 120 358 78 138 152 318 165 400 35 223 729 792 1080 885 437 116 1064 64 1163 -96z m-12557 -189 c-34 -55 -127 -100 -206 -100 -79 0 -144 45 -144 100 0 55 93 100 206 100 113 0 178 -45 144 -100z m22905 -578 l-285 -272 226 331 c124 182 252 304 285 272 32 -33 -70 -181 -226 -331z m-22805 -22 c-34 -55 -82 -100 -106 -100 -24 0 -44 45 -44 100 0 55 48 100 106 100 58 0 78 -45 44 -100z m21628 -414 c-163 -225 -192 -327 -102 -359 164 -58 57 -227 -144 -227 -123 0 -143 69 -94 315 74 371 231 585 427 585 103 0 79 -85 -87 -314z m1281 -211 c-70 -447 -360 -769 -695 -773 -161 -2 -177 48 -116 371 84 449 222 727 361 727 57 0 77 -42 45 -93 -31 -51 -15 -119 37 -152 52 -32 123 33 159 144 122 386 278 219 209 -224z m-3534 166 c107 -107 -691 -1249 -1036 -1483 -186 -127 -640 -331 -1008 -455 -613 -207 -742 -217 -1550 -123 -565 66 -923 68 -997 7 -75 -63 -139 -60 -181 8 -79 128 -774 93 -880 -45 -47 -62 -133 -26 -224 93 -81 106 -133 206 -117 222 16 17 770 44 1674 61 1310 25 1705 66 1944 199 165 92 457 242 649 333 192 90 611 407 931 703 573 532 680 596 795 480z m-19679 -248 c-86 -139 -146 -113 -146 63 0 86 46 128 102 93 56 -35 75 -105 44 -156z m854 -343 c-68 -82 -192 -150 -274 -150 -122 0 -127 28 -26 150 68 83 192 150 274 150 122 0 127 -28 26 -150z m17636 0 c-31 -82 -75 -150 -97 -150 -21 0 -39 68 -39 150 0 83 44 150 97 150 53 0 71 -67 39 -150z m-11886 -858 c0 -709 -79 -889 -192 -438 -72 288 36 1285 130 1191 34 -33 61 -372 62 -753z m5950 314 c0 -52 -45 -122 -100 -156 -55 -34 -100 -151 -100 -259 0 -215 -225 -349 -401 -240 -74 45 -51 114 70 205 108 82 130 139 56 141 -198 5 -146 145 100 267 296 147 375 156 375 42z m9400 -166 c0 -237 -390 -740 -574 -740 -88 0 -231 -64 -318 -142 -282 -254 -650 -287 -905 -80 -281 227 -193 448 144 364 289 -73 1132 283 1326 560 167 239 327 258 327 38z m-2600 -28 c0 -125 -257 -322 -328 -250 -66 65 133 328 253 334 41 2 75 -35 75 -84z m-5947 -693 c-87 -86 -560 289 -496 393 39 63 158 15 303 -122 132 -123 218 -245 193 -271z m9647 428 c0 -29 -74 -221 -165 -425 -129 -292 -175 -331 -210 -184 -48 202 155 662 292 662 46 0 83 -24 83 -53z m360 -220 c-33 -33 -56 26 -52 131 5 117 28 141 60 61 29 -72 26 -159 -8 -192z m-14457 -21 c-107 -201 -303 -366 -303 -255 0 137 213 449 307 449 65 0 64 -68 -4 -194z m4170 -304 c603 -311 570 -383 -85 -187 -373 112 -839 485 -605 485 63 0 373 -134 690 -298z m5127 -2 c0 -55 -70 -100 -156 -100 -86 0 -128 45 -94 100 34 55 104 100 156 100 52 0 94 -45 94 -100z m1200 -150 c0 -288 -337 -358 -440 -91 -82 213 10 341 246 341 140 0 194 -69 194 -250z m-9641 -703 c270 -132 567 -242 660 -244 93 -2 197 -48 231 -103 37 -60 -97 -100 -338 -100 -220 0 -428 45 -462 100 -34 55 -138 101 -231 103 -273 4 -945 685 -869 880 56 142 99 125 291 -114 125 -155 448 -390 718 -522z m12141 568 c0 -130 -307 -370 -775 -605 -234 -118 -425 -278 -425 -356 0 -78 -79 -140 -175 -138 -226 4 -635 -93 -711 -168 -78 -79 194 -245 405 -246 93 -1 197 43 231 98 75 121 350 134 350 16 0 -46 -115 -136 -255 -200 -603 -275 -1245 -25 -1245 484 0 354 60 393 723 470 290 33 684 144 876 245 191 102 399 185 462 185 63 0 171 68 239 150 136 164 300 200 300 65z m1360 -188 c-33 -33 -56 26 -52 131 5 117 28 141 60 61 29 -72 26 -159 -8 -192z m-15786 4 c-93 -93 -203 -136 -244 -95 -41 41 -8 117 73 168 243 154 352 108 171 -73z m7176 69 c79 -127 -153 -127 -350 0 -122 79 -109 97 69 98 121 1 247 -43 281 -98z m-12450 -60 c0 -121 -346 -640 -427 -640 -47 0 -61 39 -32 86 29 47 98 204 154 350 87 229 305 375 305 204z m14300 -40 c0 -55 -67 -100 -150 -100 -82 0 -150 45 -150 100 0 55 68 100 150 100 83 0 150 -45 150 -100z m7108 -210 c-52 -132 -98 -187 -102 -123 -8 156 108 452 159 402 21 -22 -4 -148 -57 -279z m-5108 -190 c0 -166 113 -534 250 -819 138 -285 250 -627 250 -761 0 -210 34 -233 258 -177 229 58 250 41 190 -149 -58 -183 -37 -204 142 -147 152 48 210 23 210 -90 0 -201 -292 -202 -578 -1 -223 156 -581 728 -543 867 11 41 -50 288 -135 550 -86 262 -196 601 -245 752 -69 214 -57 275 56 275 94 0 145 -105 145 -300z m669 0 c-131 -349 -230 -380 -319 -101 -80 253 11 401 247 401 165 0 173 -34 72 -300z m-11243 -611 c142 -249 223 -298 411 -251 284 71 694 -295 479 -428 -90 -56 -20 -181 251 -444 394 -383 593 -439 1325 -378 215 18 35 149 -375 273 l-367 111 500 -11 c550 -12 532 25 393 -836 -64 -402 -243 -429 -243 -38 l0 287 -725 -12 -725 -12 28 268 c18 182 -42 316 -192 421 -245 171 -1086 1167 -1086 1285 0 171 161 55 326 -235z m3834 85 c32 -32 30 -149 -5 -259 -53 -166 -146 -199 -534 -189 -259 6 -706 -7 -994 -29 -288 -22 -570 6 -626 62 -69 69 67 100 426 96 391 -4 603 51 825 215 274 202 754 257 908 104z m-6179 -270 c121 -163 219 -318 219 -344 0 -126 -676 -748 -878 -808 -125 -37 -299 -176 -386 -310 -156 -238 -473 -324 -577 -157 -28 46 82 212 245 368 163 157 296 323 296 370 0 47 84 207 186 356 102 149 260 395 352 546 210 347 273 344 543 -21z m1828 65 c-169 -169 -130 -435 139 -947 329 -628 447 -760 802 -899 427 -168 1305 -185 1494 -28 136 113 156 85 156 -226 0 -412 -179 -624 -747 -881 -499 -227 -840 -236 -1137 -28 -160 112 -333 140 -577 94 -385 -72 -492 -231 -400 -596 111 -443 1230 -941 1197 -533 -13 170 167 239 293 113 104 -104 -414 -1024 -671 -1192 -284 -186 -370 -365 -260 -543 58 -93 183 -14 455 287 206 228 397 394 423 367 67 -67 -479 -875 -923 -1367 -203 -224 -376 -393 -386 -374 -210 413 -248 434 -755 402 -463 -29 -512 -12 -512 177 0 127 -91 245 -231 298 -375 142 -842 587 -954 908 -96 275 -86 299 121 299 125 0 354 -133 510 -295 365 -382 842 -605 1294 -605 400 0 448 89 181 331 -112 101 -265 139 -411 101 -181 -48 -306 20 -571 309 -187 204 -536 457 -776 563 -378 168 -445 244 -499 570 -109 659 -78 1026 86 1026 90 0 150 92 150 230 0 132 149 376 350 570 387 375 457 331 152 -97 -339 -476 -425 -806 -293 -1125 101 -245 93 -305 -61 -417 -172 -126 -172 -142 11 -392 197 -269 430 -413 521 -322 29 28 -30 142 -130 253 -321 354 -61 349 324 -7 205 -189 395 -370 424 -403 127 -146 912 -590 1044 -590 323 0 233 196 -207 454 -439 257 -454 279 -257 384 202 108 196 124 -178 437 -252 212 -493 325 -693 325 -229 0 -307 46 -307 180 0 368 212 422 467 118 290 -345 591 -458 787 -295 165 137 102 312 -86 240 -69 -26 -255 87 -413 251 -252 264 -266 308 -115 366 114 44 270 -28 460 -210 174 -166 350 -252 444 -216 214 82 196 274 -30 333 -203 53 -674 806 -570 910 35 35 88 -29 118 -144 59 -225 494 -510 607 -398 38 38 -30 139 -151 224 -305 214 -620 867 -608 1262 l10 329 74 -300 c90 -373 386 -950 486 -950 40 0 253 -228 472 -508 219 -279 525 -575 681 -656 336 -177 848 -154 1092 49 244 204 218 325 -50 231 -124 -43 -281 -70 -350 -60 -69 11 -181 25 -250 32 -220 24 -1146 963 -1350 1369 -310 619 -355 932 -175 1207 87 133 206 213 263 178 72 -44 71 -98 -4 -173z m1791 -181 c0 -55 -45 -72 -100 -38 -55 34 -100 107 -100 162 0 55 45 72 100 38 55 -34 100 -107 100 -162z m12400 155 c0 -151 -636 -955 -908 -1149 -235 -167 -335 -191 -425 -101 -89 89 35 257 530 712 596 548 803 687 803 538z m-13702 -724 c-1 -146 -14 -148 -98 -19 -127 196 -127 328 0 250 55 -34 99 -138 98 -231z m1502 181 c0 -55 -67 -100 -150 -100 -82 0 -150 45 -150 100 0 55 68 100 150 100 83 0 150 -45 150 -100z m1445 -109 c-32 -52 -101 -68 -154 -36 -52 32 -68 101 -36 154 32 52 101 68 154 36 52 -32 68 -101 36 -154z m10703 -914 c-146 -235 -335 -539 -421 -677 -251 -401 -709 -720 -1056 -736 -283 -12 -319 15 -306 236 31 511 157 687 676 941 287 141 699 409 915 597 486 422 575 254 192 -361z m-13132 364 c210 -108 275 -190 204 -261 -103 -103 -610 181 -617 345 -4 109 70 94 413 -84z m8850 -868 c-28 -68 -49 12 -47 177 3 165 25 220 50 123 26 -97 24 -232 -3 -300z m1756 260 c-87 -35 -107 -159 -64 -392 77 -410 -16 -428 -396 -76 l-286 265 287 127 c158 70 355 127 437 127 104 0 111 -15 22 -51z m-12822 -139 c0 -58 -45 -78 -100 -44 -55 34 -100 82 -100 106 0 24 45 44 100 44 55 0 100 -48 100 -106z m11700 6 c0 -55 -42 -100 -94 -100 -52 0 -122 45 -156 100 -34 55 8 100 94 100 86 0 156 -45 156 -100z m-13945 -391 c-134 -258 -219 -309 -520 -309 -350 0 -355 6 -212 225 128 195 767 510 859 424 18 -17 -39 -170 -127 -340z m494 -10 c-204 -225 -285 -210 -191 37 35 90 133 164 218 164 131 0 127 -31 -27 -201z m1331 -69 c20 -135 -37 -222 -169 -256 -271 -71 -318 1 -187 289 128 280 312 263 356 -33z m13720 -24 c0 -52 -45 -122 -100 -156 -55 -34 -100 8 -100 94 0 86 45 156 100 156 55 0 100 -42 100 -94z m-5107 -487 c-6 -240 -16 -248 -93 -69 -119 278 -119 474 0 400 55 -34 97 -183 93 -331z m1817 122 c97 -88 152 -223 123 -300 -70 -182 690 -536 1159 -539 188 -1 313 -30 279 -64 -96 -97 -809 -62 -1267 61 -504 136 -804 416 -804 751 0 293 240 335 510 91z m-12659 -386 c-352 -205 -700 -539 -633 -607 38 -37 235 59 438 213 l369 282 -73 -332 c-40 -183 -180 -491 -312 -686 -132 -194 -240 -417 -240 -496 0 -78 -112 -289 -249 -469 -329 -431 -405 -861 -249 -1417 95 -341 99 -482 13 -568 -87 -87 -115 -62 -115 98 0 117 -56 272 -125 345 -141 149 -161 806 -36 1182 46 138 236 483 422 767 187 284 339 586 339 671 0 179 -336 390 -451 283 -42 -39 -45 62 -6 225 72 300 302 517 755 713 303 131 432 -42 153 -204z m801 -359 c32 -355 74 -781 92 -946 18 -165 38 -377 44 -472 7 -94 152 -330 322 -525 362 -411 294 -456 -162 -108 -223 170 -357 385 -436 700 -114 452 -269 583 -372 315 -120 -313 174 -1010 584 -1385 465 -425 574 -456 645 -182 42 159 90 176 270 94 121 -55 262 -198 315 -319 60 -135 239 -253 471 -311 206 -51 375 -128 375 -172 0 -144 -606 -397 -802 -334 -150 47 -204 0 -251 -220 -98 -464 -198 -576 -607 -681 -214 -55 -446 -136 -515 -181 -72 -46 -125 -37 -125 23 0 56 -137 173 -303 260 -201 104 -324 258 -364 456 -33 165 -110 283 -171 263 -181 -59 -190 -463 -17 -727 125 -191 130 -244 26 -244 -74 0 -207 154 -297 342 -161 337 -151 726 25 1056 64 120 34 215 -105 334 -211 181 -246 432 -94 668 79 122 97 109 98 -69 2 -277 183 -398 267 -178 53 139 100 120 296 -119 127 -156 233 -401 235 -544 2 -143 107 -413 233 -600 194 -289 287 -340 617 -340 497 0 573 205 109 293 -254 47 -397 149 -505 357 -202 391 -200 396 200 331 280 -46 350 -25 350 106 0 109 -90 165 -275 170 -444 12 -849 584 -936 1325 -66 554 -50 635 169 896 133 158 242 416 242 573 0 303 176 857 249 784 23 -24 70 -334 103 -689z m16566 482 c-71 -71 -118 -77 -118 -15 0 57 30 134 67 170 36 37 90 44 118 15 28 -28 -2 -105 -67 -170z m-3418 -78 c119 -77 98 -97 -100 -97 -137 0 -317 44 -400 97 -119 77 -98 97 100 97 138 0 318 -44 400 -97z m-9339 -194 c543 -207 906 -178 1111 86 111 144 122 144 125 0 4 -217 -487 -668 -577 -529 -87 134 -620 240 -620 123 0 -152 -265 -92 -537 122 -146 114 -239 249 -208 300 78 126 122 120 706 -102z m11239 -53 c0 -54 -90 -92 -200 -86 -331 18 -359 43 -150 133 237 101 350 86 350 -47z m1318 -75 c-71 -71 -118 -77 -118 -15 0 57 30 134 67 170 36 37 90 44 118 15 28 -28 -2 -105 -67 -170z m-18823 -180 c201 -1 223 -22 105 -97 -82 -53 -222 -74 -311 -46 -88 27 -217 -19 -286 -102 -152 -182 -303 -110 -303 146 0 200 289 320 445 184 52 -46 210 -84 350 -85z m17805 -98 c-464 -309 -600 -358 -600 -220 0 84 776 503 950 513 55 4 -102 -128 -350 -293z m-13300 -224 c0 -121 -56 -91 -260 138 -189 214 -189 214 35 76 124 -76 225 -172 225 -214z m14177 118 c18 -93 -137 -247 -396 -393 -234 -131 -571 -384 -748 -561 -275 -275 -423 -334 -1003 -401 -783 -89 -927 -75 -1121 114 -122 118 -122 161 0 308 136 165 1096 639 1294 639 223 0 73 -275 -222 -407 -338 -151 -495 -393 -255 -393 160 0 1742 928 1973 1157 182 180 438 147 478 -63z m-20579 -69 c0 -96 -45 -242 -98 -325 -74 -114 -97 -72 -98 175 -1 179 43 325 98 325 55 0 99 -79 98 -175z m2067 -425 c-188 -165 -389 -300 -447 -300 -177 0 -253 -217 -108 -306 84 -52 202 -24 313 77 270 244 212 60 -132 -419 -352 -489 -355 -815 -9 -778 193 21 210 -2 121 -168 -185 -346 -127 -1243 97 -1483 272 -291 252 -361 -47 -166 -224 147 -441 725 -369 982 14 49 -45 237 -131 418 -117 247 -146 554 -116 1227 43 961 103 1161 323 1076 77 -30 241 -13 365 37 429 173 480 101 140 -197z m6644 -431 c-79 -79 -109 -53 -109 94 0 265 140 405 184 185 19 -93 -14 -218 -75 -279z m-6259 131 c-34 -55 -138 -99 -231 -98 -146 1 -148 14 -19 98 196 127 328 127 250 0z m6546 -828 c-133 -570 -267 -802 -412 -712 -51 31 -158 3 -238 -64 -270 -224 -165 102 191 591 186 254 373 576 416 713 137 436 171 17 43 -528z m-6860 -222 c-31 -82 -75 -150 -97 -150 -21 0 -39 68 -39 150 0 83 44 150 97 150 53 0 71 -67 39 -150z m16791 -114 c28 -146 16 -385 -26 -533 -75 -261 25 -1202 149 -1403 34 -55 13 -100 -46 -100 -140 0 -267 315 -403 999 -69 348 -74 560 -12 581 53 17 71 187 41 376 -43 265 -21 344 95 344 85 0 174 -117 202 -264z m-567 49 c42 -70 27 -89 -38 -48 -61 37 -156 -12 -213 -110 -86 -149 -103 -152 -106 -19 -5 279 223 392 357 177z m1200 -458 c-33 -33 -56 26 -52 131 5 117 28 141 60 61 29 -72 26 -159 -8 -192z m-1221 -585 c34 -87 61 -272 61 -410 0 -139 62 -394 137 -567 179 -409 363 -1086 363 -1332 0 -107 -62 -279 -137 -382 -132 -180 -141 -179 -259 42 -68 127 -138 535 -156 909 -18 374 -107 822 -197 996 -105 203 -141 422 -99 609 70 322 193 380 287 135z m999 -539 c46 -243 34 -315 -40 -241 -58 58 -129 281 -158 497 -65 477 99 266 198 -256z m-17141 166 c-3 -212 -8 -213 -147 -29 -79 104 -119 229 -90 276 89 145 240 -13 237 -247z m4437 -149 c-26 -99 -262 -414 -525 -700 -406 -442 -532 -520 -838 -520 -449 0 -509 -93 -311 -490 150 -301 147 -323 -77 -509 -135 -113 -387 -196 -600 -198 -202 -2 -438 -30 -525 -64 -115 -44 -158 0 -158 161 0 181 42 211 230 164 301 -76 820 67 820 225 0 83 -198 135 -584 153 -322 15 -614 73 -650 128 -37 56 -210 176 -387 266 -238 123 -337 255 -387 519 -36 195 -38 382 -4 416 34 34 62 -30 62 -143 0 -398 326 -651 957 -743 1021 -150 990 -153 1025 90 23 164 99 225 280 225 215 0 342 97 804 611 109 122 765 569 850 580 36 5 44 -72 18 -171z m866 -213 c0 -391 -162 -799 -346 -869 -81 -31 -257 28 -389 133 -230 180 -234 203 -87 484 311 596 822 752 822 252z m12044 -1126 c38 -331 47 -624 20 -650 -100 -100 -342 437 -399 884 -52 417 -39 460 126 416 144 -37 200 -183 253 -650z m-18594 519 c34 -55 -6 -100 -88 -100 -83 0 -178 45 -212 100 -34 55 6 100 88 100 83 0 178 -45 212 -100z m1330 -320 c168 -168 150 -330 -21 -187 -107 88 -159 88 -213 1 -52 -84 -94 -79 -157 20 -47 75 -87 170 -87 211 -3 120 346 87 478 -45z m3620 -282 c0 -121 -480 -321 -640 -268 -61 20 25 110 190 200 355 192 450 206 450 68z m-6000 -187 c0 -49 -74 -118 -164 -153 -137 -52 -144 -38 -38 90 144 173 202 191 202 63z m419 21 c-72 -29 -159 -26 -192 8 -33 33 26 56 131 52 117 -5 141 -28 61 -60z m2801 -332 c99 0 180 -67 180 -150 0 -82 -35 -150 -78 -150 -142 0 -522 310 -522 426 0 82 33 81 120 -6 66 -66 201 -120 300 -120z m17080 -1206 c0 -796 -38 -1294 -100 -1294 -86 0 -159 888 -106 1282 10 73 -29 190 -87 259 -120 145 82 1177 215 1095 43 -26 78 -630 78 -1342z m-20100 1156 c0 -82 -67 -150 -150 -150 -260 0 -176 197 125 292 14 4 25 -59 25 -142z m1225 -169 c-121 -121 -250 -190 -286 -153 -98 97 158 372 345 372 129 0 117 -43 -59 -219z m4675 -59 c0 -208 -270 -622 -406 -622 -52 0 -94 68 -94 150 0 198 -189 191 -418 -16 -248 -225 -360 -86 -133 165 201 222 512 267 574 83 58 -176 277 1 277 224 0 107 45 194 100 194 55 0 100 -80 100 -178z m14536 -271 c-31 -83 -97 -125 -146 -95 -142 88 -105 244 57 244 89 0 124 -59 89 -149z m-17936 -151 c0 -55 -45 -100 -100 -100 -55 0 -100 45 -100 100 0 55 45 100 100 100 55 0 100 -45 100 -100z m1539 -352 c-254 -253 -439 -253 -439 1 0 121 171 192 570 237 67 8 8 -99 -131 -238z m16603 16 c-35 -90 -105 -164 -156 -164 -51 0 -43 94 19 209 127 237 232 204 137 -45z m153 -420 c-177 -214 -233 -103 -86 172 79 148 140 186 167 105 24 -70 -13 -195 -81 -277z m874 -208 c-82 -157 -243 -372 -359 -477 -115 -104 -210 -249 -210 -321 0 -252 267 -27 607 511 189 298 378 544 421 546 66 4 -32 -217 -420 -955 -51 -97 -571 -871 -709 -1056 -28 -37 -174 -99 -325 -137 l-274 -69 0 595 c0 544 27 618 325 884 179 159 394 278 479 264 97 -17 202 106 285 336 86 238 165 329 230 264 64 -64 47 -197 -50 -385z m-18813 173 c-31 -49 -146 -67 -256 -38 -275 72 -251 129 56 129 141 0 231 -41 200 -91z m20444 -309 c0 -55 -79 -99 -175 -98 -150 1 -153 15 -25 98 189 122 200 122 200 0z m-20295 -316 c-125 -101 -301 -182 -391 -180 -106 3 -66 57 111 153 151 82 275 196 275 252 0 57 52 70 116 31 80 -49 45 -130 -111 -256z m19204 -115 c-79 -79 -109 -53 -109 94 0 265 140 405 184 185 19 -93 -14 -218 -75 -279z m-18191 109 c-71 -71 -118 -77 -118 -15 0 134 118 252 185 185 28 -28 -2 -105 -67 -170z m-2318 -140 c0 -21 -115 -38 -256 -38 -141 0 -231 41 -200 91 51 83 456 36 456 -53z m22218 -188 c-17 -165 -79 -345 -138 -400 -74 -70 -86 -18 -42 172 50 210 32 260 -77 219 -165 -64 -302 112 -207 265 35 58 162 92 280 75 175 -25 210 -88 184 -331z m-1055 -125 c-34 -151 -110 -652 -171 -1113 -61 -461 -196 -1039 -301 -1283 -105 -245 -191 -500 -191 -567 0 -360 -1048 -1662 -1337 -1662 -142 0 9 1707 191 2157 88 216 387 855 665 1420 472 958 681 1275 681 1034 0 -256 -531 -1716 -800 -2202 -336 -605 -307 -815 51 -368 144 181 226 230 216 131 -32 -310 184 -218 295 125 78 241 81 397 9 513 -77 123 -51 267 102 560 113 217 259 650 323 963 65 312 165 567 223 567 62 0 80 -112 44 -275z m-19404 -409 c-190 -190 -207 -44 -41 352 117 280 118 280 158 44 23 -132 -29 -308 -117 -396z m-559 130 c0 -122 -40 -131 -200 -46 -110 59 -200 128 -200 154 0 25 90 46 200 46 113 0 200 -67 200 -154z m21249 -221 c-162 -395 -166 -525 -17 -582 269 -103 71 -323 -289 -323 -352 0 -383 42 -465 630 -23 164 21 194 247 168 181 -21 297 22 336 125 33 86 105 157 160 157 56 0 69 -77 28 -175z m-20613 -672 c-345 -413 -536 -552 -536 -392 0 139 844 1057 878 955 20 -61 -134 -314 -342 -563z m-836 297 c-71 -85 -149 -134 -174 -109 -55 55 207 355 263 301 22 -20 -18 -107 -89 -192z m1700 -550 c0 -331 -229 -656 -392 -555 -67 41 -96 142 -64 224 36 95 -16 169 -144 202 -260 68 -253 112 73 453 253 264 283 272 400 111 70 -95 127 -291 127 -435z m-3150 300 c-110 -47 -402 -86 -650 -86 -339 0 -401 21 -250 86 110 47 403 86 650 86 339 0 401 -21 250 -86z m18815 -1420 c-56 -637 -51 -1183 13 -1509 62 -312 66 -605 12 -748 -50 -130 -90 -327 -90 -439 0 -225 -358 -736 -430 -612 -25 43 16 416 91 828 162 896 167 1872 11 2531 -89 381 -86 498 15 561 71 44 154 271 185 506 57 425 58 426 169 154 78 -191 86 -576 24 -1272z m-20215 1320 c34 -55 -8 -100 -94 -100 -86 0 -156 45 -156 100 0 55 42 100 94 100 52 0 122 -45 156 -100z m2669 -168 c-72 -29 -159 -26 -192 8 -33 33 26 56 131 52 117 -5 141 -28 61 -60z m21580 -657 c-3 -548 -243 -2053 -418 -2625 -237 -777 -427 -1065 -646 -980 -118 45 -104 101 77 292 249 266 179 443 -106 265 -226 -141 -317 -66 -256 213 533 2432 734 2960 1122 2960 125 0 228 -56 227 -125z m-21130 -561 c-74 -277 -217 -506 -398 -635 -155 -110 -301 -182 -324 -159 -79 78 264 480 409 480 79 0 144 65 144 145 0 154 214 674 259 630 14 -15 -26 -222 -90 -461z m-1644 320 c-69 -28 -181 -28 -250 0 -69 28 -12 50 125 50 138 0 194 -22 125 -50z m19310 -287 c-79 -207 -135 -183 -135 59 0 113 43 179 96 147 52 -33 70 -125 39 -206z m-18535 53 c0 -55 -146 -96 -325 -90 -308 9 -312 14 -75 90 353 113 400 113 400 0z m-1400 -1200 c0 -55 -45 -100 -100 -100 -55 0 -100 45 -100 100 0 55 45 100 100 100 55 0 100 -45 100 -100z m2200 -4 c0 -57 -186 -293 -413 -525 -348 -355 -384 -374 -233 -121 402 673 646 917 646 646z m19857 -353 c-37 -147 -89 -244 -117 -217 -27 28 -20 170 17 317 37 146 90 244 117 216 28 -27 20 -170 -17 -316z m-20857 -331 c0 -48 -67 -144 -150 -212 -122 -101 -150 -97 -150 21 0 80 30 176 67 212 95 95 233 83 233 -21z m18508 -844 c-77 -77 -108 -22 -108 195 0 395 140 536 183 184 18 -149 -16 -320 -75 -379z m1525 -24 c-81 -235 -301 -684 -490 -998 -353 -587 -407 -746 -255 -746 136 0 263 189 672 1000 l378 750 94 -318 c131 -449 40 -710 -557 -1594 -611 -905 -1028 -1269 -1184 -1036 -250 371 85 1331 1127 3231 271 495 415 300 215 -289z m-20097 206 c-31 -82 -103 -150 -159 -150 -58 0 -49 64 23 150 68 83 140 150 159 150 19 0 9 -67 -23 -150z m-536 -644 c0 -107 -45 -222 -100 -256 -57 -35 -100 49 -100 194 0 141 45 256 100 256 55 0 100 -87 100 -194z m18029 -1481 c56 -1593 49 -1685 -145 -1892 -218 -233 -175 -462 69 -368 106 41 147 -16 147 -204 0 -179 -55 -264 -175 -269 -96 -5 -293 -17 -438 -28 -248 -18 -259 1 -211 359 65 486 -188 1155 -578 1529 -336 322 -361 474 -147 884 82 158 149 433 149 611 0 455 189 951 341 893 100 -39 97 -162 -15 -603 -143 -560 -111 -901 73 -787 56 34 101 172 101 307 0 135 90 322 200 416 110 94 200 265 200 379 0 199 169 448 305 448 35 0 91 -754 124 -1675z m1163 1600 c-4 -41 -68 -232 -142 -425 l-135 -350 -7 358 c-5 197 22 389 59 425 90 90 235 85 225 -8z m-6875 -798 c-10 -317 -86 -802 -168 -1077 l-148 -500 49 700 c27 385 49 923 49 1195 1 380 28 468 119 377 68 -68 110 -360 99 -695z m-13081 323 c-31 -82 -75 -150 -97 -150 -21 0 -39 68 -39 150 0 83 44 150 97 150 53 0 71 -67 39 -150z m19532 -450 c95 -249 107 -1100 17 -1100 -47 0 -87 34 -89 75 -3 41 -44 278 -92 525 -48 248 -60 585 -25 750 47 229 71 252 97 100 20 -110 61 -267 92 -350z m-19768 -200 c0 -55 -48 -100 -106 -100 -58 0 -78 45 -44 100 34 55 82 100 106 100 24 0 44 -45 44 -100z m417 -2002 c-171 -754 -386 -1263 -489 -1159 -31 31 -12 114 43 184 55 70 147 374 206 677 117 598 305 1152 369 1087 22 -22 -36 -377 -129 -789z m20859 453 c-124 -192 -260 -349 -302 -350 -42 0 26 156 150 348 124 192 260 349 302 350 42 0 -26 -156 -150 -348z m784 -24 c-33 -33 -56 26 -52 131 5 117 28 141 60 61 29 -72 26 -159 -8 -192z m-2352 -1383 c-8 -535 -43 -1020 -79 -1078 -35 -57 -71 -509 -80 -1003 -15 -885 -20 -903 -342 -1171 -279 -233 -317 -317 -261 -573 96 -437 -96 -476 -293 -61 -105 222 -221 337 -305 305 -80 -31 -217 87 -338 293 -225 381 -199 394 462 228 430 -108 473 -101 644 111 209 259 239 610 67 782 -88 88 -89 211 -6 495 189 640 333 1601 336 2241 2 420 36 578 107 507 59 -59 97 -520 88 -1076z m460 681 c-166 -165 -172 -162 -129 75 26 138 49 270 54 295 4 25 61 -9 128 -76 94 -94 82 -158 -53 -294z m1268 125 c-31 -82 -103 -150 -159 -150 -58 0 -49 64 23 150 68 83 140 150 159 150 19 0 9 -67 -23 -150z m-21736 -50 c0 -55 -101 -99 -225 -98 -182 1 -196 20 -75 98 194 125 300 125 300 0z m21036 -150 c-31 -82 -86 -150 -122 -151 -35 0 -153 -203 -261 -450 -195 -442 -353 -582 -353 -312 0 236 510 1063 655 1063 82 0 115 -61 81 -150z m2370 -760 c-117 -264 -427 -641 -776 -944 -1331 -1158 -1702 -1237 -1543 -333 47 267 207 490 627 873 310 283 591 514 625 514 153 0 32 -244 -288 -582 -322 -339 -464 -718 -270 -718 45 0 211 135 369 300 158 165 357 300 441 300 177 0 776 639 867 924 33 105 79 172 102 149 23 -23 -46 -240 -154 -483z m-23664 74 c-65 -167 -242 -229 -242 -84 0 97 223 330 271 283 18 -19 5 -108 -29 -199z m21236 -289 c-20 -69 -96 -339 -169 -600 -150 -538 -365 -653 -281 -150 80 476 251 875 377 875 60 0 93 -56 73 -125z m1565 -1744 c-189 -313 -343 -606 -343 -650 0 -45 -79 -166 -175 -269 -96 -103 -366 -394 -600 -645 -441 -475 -583 -859 -250 -679 96 52 306 232 465 400 160 168 333 279 384 247 51 -32 254 94 450 279 197 185 294 245 217 133 -249 -359 -1524 -1489 -2076 -1841 -374 -237 -660 -343 -947 -348 -514 -10 -572 165 -265 798 178 367 327 507 794 743 395 199 901 620 1614 1345 572 580 1047 1055 1057 1055 9 1 -137 -255 -325 -568z m-2148 -359 c-90 -712 -480 -1439 -637 -1185 -31 50 9 144 88 210 206 171 392 791 367 1226 -15 277 14 360 113 322 100 -38 117 -182 69 -573z m-5501 156 c-179 -204 -454 -573 -610 -819 -161 -254 -284 -374 -284 -276 0 343 825 1467 1078 1467 91 0 24 -135 -184 -372z m4256 -228 c0 -194 -44 -243 -200 -217 -279 47 -368 155 -291 356 106 274 491 165 491 -139z m1668 78 c-71 -71 -118 -77 -118 -15 0 134 118 252 185 185 28 -28 -2 -105 -67 -170z m2982 -1034 c0 -42 -972 -1548 -1572 -2436 -15 -23 -48 -21 -73 4 -59 58 480 1134 795 1588 511 735 850 1072 850 844z m-10701 -619 c146 -486 146 -694 -1 -1081 -65 -170 -142 -208 -346 -169 -221 42 -254 91 -212 313 225 1173 283 1412 345 1412 39 0 136 -214 214 -475z m-13139 -498 c-33 -33 -56 26 -52 131 5 117 28 141 60 61 29 -72 26 -159 -8 -192z m20738 -979 c-70 -84 -147 -132 -172 -107 -70 69 71 259 192 259 66 0 59 -57 -20 -152z"/>
<path d="M16200 43262 c0 -350 155 -464 525 -385 265 57 209 223 -75 223 -200 0 -250 50 -250 250 0 138 -45 250 -100 250 -55 0 -100 -152 -100 -338z"/>
<path d="M14273 37091 c-244 -142 -116 -321 133 -188 107 57 194 147 194 201 0 122 -102 118 -327 -13z"/>
<path d="M10032 39559 c58 -376 213 -648 312 -549 58 59 -176 758 -290 863 -45 42 -55 -99 -22 -314z"/>
<path d="M9808 39031 c-4 -176 40 -349 99 -385 186 -116 207 21 56 367 l-147 337 -8 -319z"/>
<path d="M9470 38506 c29 -113 96 -206 149 -206 133 0 58 325 -86 372 -75 25 -98 -35 -63 -166z"/>
<path d="M9300 38250 c0 -82 44 -150 97 -150 53 0 71 68 39 150 -31 83 -75 150 -97 150 -21 0 -39 -67 -39 -150z"/>
<path d="M9100 37256 c0 -86 45 -156 100 -156 55 0 100 42 100 94 0 52 -45 122 -100 156 -55 34 -100 -8 -100 -94z"/>
<path d="M22948 36980 c-36 -94 -37 -218 -1 -275 83 -134 553 -138 553 -5 0 55 -51 100 -114 100 -63 0 -172 79 -243 175 -120 164 -133 164 -195 5z"/>
<path d="M13100 31814 c0 -178 404 -350 529 -225 134 134 93 177 -254 264 -172 43 -275 28 -275 -39z"/>
<path d="M20725 25533 c-215 -150 -311 -433 -147 -433 159 0 522 317 522 456 0 181 -90 175 -375 -23z"/>
<path d="M24174 13440 c-33 -33 -40 -113 -15 -179 26 -65 -45 -404 -156 -753 -228 -713 -241 -808 -112 -808 120 0 509 1161 509 1519 0 265 -92 355 -226 221z"/>
<path d="M6800 52344 c0 -86 45 -128 100 -94 55 34 100 104 100 156 0 52 -45 94 -100 94 -55 0 -100 -70 -100 -156z"/>
<path d="M14200 52194 c0 -168 39 -281 88 -252 48 30 87 168 87 306 0 139 -39 252 -87 252 -49 0 -88 -138 -88 -306z"/>
<path d="M16402 52375 c4 -284 265 -1114 360 -1146 56 -18 156 196 220 476 144 623 148 795 18 795 -55 0 -100 -110 -100 -244 0 -361 -166 -399 -235 -54 -58 288 -267 426 -263 173z"/>
<path d="M19400 52457 c0 -202 224 -573 300 -497 130 130 7 540 -162 540 -76 0 -138 -20 -138 -43z"/>
<path d="M22500 52320 c0 -99 41 -223 92 -275 51 -52 117 -472 147 -933 30 -461 118 -935 196 -1053 77 -118 171 -505 210 -862 38 -356 130 -782 205 -947 74 -165 178 -592 230 -950 87 -601 475 -2238 740 -3126 62 -207 169 -423 238 -480 241 -201 244 89 6 773 -130 376 -334 1156 -454 1733 -218 1057 -273 1304 -556 2506 -85 361 -154 792 -154 957 0 165 -90 486 -200 713 -138 286 -200 619 -200 1076 0 364 -47 748 -104 855 -130 243 -396 252 -396 13z"/>
<path d="M23537 52175 c32 -179 106 -752 164 -1275 58 -522 193 -1332 299 -1800 238 -1043 648 -2950 801 -3725 62 -316 139 -575 171 -575 88 0 -44 1190 -211 1908 -462 1983 -770 3552 -863 4392 -132 1202 -176 1400 -311 1400 -69 0 -87 -121 -50 -325z"/>
<path d="M24200 52425 c0 -72 208 -1207 416 -2275 54 -275 158 -860 231 -1300 132 -792 133 -778 143 1425 l10 2225 -400 0 c-220 0 -400 -34 -400 -75z"/>
<path d="M2235 51550 c75 -397 234 -1534 413 -2950 80 -632 209 -1577 287 -2100 79 -522 193 -1377 254 -1900 512 -4343 632 -5100 810 -5100 159 0 169 136 43 579 -73 259 -272 1596 -442 2971 -428 3465 -787 6116 -902 6650 -53 248 -146 788 -206 1200 -61 413 -156 795 -212 850 -68 67 -83 2 -45 -200z"/>
<path d="M6029 47825 c49 -418 118 -864 325 -2100 88 -523 266 -390 201 150 -127 1046 -405 2425 -490 2425 -50 0 -66 -214 -36 -475z"/>
<path d="M5031 47675 c-112 -173 -130 -2204 -26 -2875 47 -302 107 -685 132 -850 26 -165 50 -356 55 -425 4 -69 80 -125 169 -125 101 0 139 55 103 150 -212 553 -373 1970 -345 3049 17 661 22 1201 12 1201 -11 0 -56 -56 -100 -125z"/>
<path d="M14 45608 c-15 -912 148 -2097 309 -2258 68 -67 82 15 42 250 -59 346 -113 790 -261 2150 l-77 700 -13 -842z"/>
<path d="M529 44850 c0 -275 20 -376 43 -224 23 152 22 377 -2 500 -23 123 -42 -1 -41 -276z"/>
<path d="M419 42240 c74 -690 269 -1346 279 -940 7 308 -235 1700 -296 1700 -35 0 -27 -342 17 -760z"/>
<path d="M7000 37705 c0 -325 221 -705 410 -705 262 0 325 174 104 292 -105 57 -220 216 -254 355 -75 298 -260 339 -260 58z"/>
<path d="M6300 37645 c0 -203 247 -677 435 -832 267 -222 270 53 6 526 -261 466 -441 591 -441 306z"/>
<path d="M2300 36516 c0 -87 438 -316 605 -316 186 0 91 170 -160 284 -301 137 -445 148 -445 32z"/>
<path d="M6800 36472 c0 -84 158 -245 350 -359 373 -220 481 -468 158 -366 -105 34 -220 14 -256 -44 -95 -154 247 -252 446 -128 134 84 234 56 461 -130 255 -208 266 -238 91 -240 -316 -4 -1239 265 -1503 438 -132 86 -320 156 -418 154 -163 -3 -161 -17 21 -161 468 -369 1759 -695 2850 -720 l450 -10 -400 238 c-1279 760 -1471 898 -1558 1126 -66 173 -144 231 -256 188 -89 -34 -223 -10 -299 53 -106 88 -137 79 -137 -39z"/>
<path d="M3719 36038 c89 -89 211 -131 271 -94 199 123 115 256 -161 256 -251 0 -259 -13 -110 -162z"/>
<path d="M5324 35875 c49 -149 476 -232 476 -93 0 97 -231 218 -417 218 -55 0 -81 -56 -59 -125z"/>
<path d="M5200 35280 c0 -144 423 -296 661 -236 256 64 639 -84 639 -248 0 -53 -137 -96 -304 -96 -166 0 -413 -72 -546 -159 -245 -161 -793 -156 -1650 12 -337 67 -343 62 -175 -114 224 -233 1474 -327 1830 -137 226 121 611 105 1420 -61 207 -42 325 -27 325 42 0 59 -165 139 -367 177 -318 59 -344 84 -200 190 189 138 217 250 63 250 -57 0 -232 94 -388 210 -277 205 -1308 339 -1308 170z"/>
<path d="M24916 35200 c0 -137 22 -194 50 -125 28 69 28 181 0 250 -28 69 -50 13 -50 -125z"/>
<path d="M4469 34836 c-93 -93 20 -236 187 -236 79 0 144 68 144 150 0 151 -211 206 -331 86z"/>
<path d="M8754 34707 c-36 -59 -38 -152 -4 -207 97 -156 450 -117 450 50 0 83 -19 150 -42 150 -23 0 -108 26 -190 57 -81 31 -177 9 -214 -50z"/>
<path d="M10467 34533 c-127 -126 -66 -233 133 -233 111 0 200 67 200 150 0 152 -212 205 -333 83z"/>
<path d="M7700 34400 c0 -55 65 -100 144 -100 79 0 172 45 206 100 34 55 -31 100 -144 100 -113 0 -206 -45 -206 -100z"/>
<path d="M9554 34407 c-31 -51 -12 -121 44 -156 120 -74 302 20 302 155 0 122 -271 122 -346 1z"/>
<path d="M11000 34465 c0 -19 72 -178 159 -354 129 -257 187 -297 300 -203 181 150 178 241 -16 435 -137 136 -443 221 -443 122z"/>
<path d="M10250 34000 c34 -55 169 -100 300 -100 131 0 266 45 300 100 37 60 -84 100 -300 100 -216 0 -337 -40 -300 -100z"/>
<path d="M9600 33900 c0 -55 42 -100 94 -100 52 0 122 45 156 100 34 55 -8 100 -94 100 -86 0 -156 -45 -156 -100z"/>
<path d="M6800 33800 c0 -55 45 -100 100 -100 55 0 100 45 100 100 0 55 -45 100 -100 100 -55 0 -100 -45 -100 -100z"/>
<path d="M7122 33783 c24 -73 146 -148 272 -166 155 -23 214 9 184 100 -24 73 -146 148 -272 166 -155 23 -214 -9 -184 -100z"/>
<path d="M7879 33500 c50 -346 98 -367 282 -125 201 265 165 425 -94 425 -201 0 -226 -40 -188 -300z"/>
<path d="M3569 33535 c-131 -130 -68 -235 139 -235 117 0 191 52 169 119 -49 146 -216 209 -308 116z"/>
<path d="M8450 33500 c34 -55 174 -100 312 -100 141 0 223 44 188 100 -34 55 -174 100 -312 100 -141 0 -223 -44 -188 -100z"/>
<path d="M10467 33533 c-238 -238 91 -311 389 -86 187 141 184 147 -64 150 -142 2 -289 -27 -325 -64z"/>
<path d="M7200 33300 c0 -55 113 -100 250 -100 138 0 250 45 250 100 0 55 -112 100 -250 100 -137 0 -250 -45 -250 -100z"/>
<path d="M9269 33335 c-131 -130 -68 -235 139 -235 117 0 191 52 169 119 -49 146 -216 209 -308 116z"/>
<path d="M9800 33356 c0 -24 45 -72 100 -106 55 -34 100 -14 100 44 0 58 -45 106 -100 106 -55 0 -100 -20 -100 -44z"/>
<path d="M5654 33207 c-31 -51 -23 -114 19 -138 88 -52 527 97 527 178 0 93 -486 57 -546 -40z"/>
<path d="M11000 33200 c0 -55 45 -100 100 -100 55 0 100 45 100 100 0 55 -45 100 -100 100 -55 0 -100 -45 -100 -100z"/>
<path d="M4749 32899 c-40 -66 20 -136 147 -169 149 -39 196 -106 152 -218 -110 -284 -101 -349 52 -381 233 -48 440 125 338 283 -48 75 -88 226 -88 336 0 142 -77 209 -266 231 -146 17 -296 -20 -335 -82z"/>
<path d="M10146 32793 c-36 -58 -42 -130 -13 -160 72 -71 267 55 267 173 0 128 -173 119 -254 -13z"/>
<path d="M9580 32212 c-94 -134 -427 -272 -1010 -418 -479 -120 -870 -261 -870 -313 0 -52 79 -70 175 -39 96 30 400 98 675 150 591 113 1143 372 1220 573 89 233 -38 265 -190 47z"/>
<path d="M9844 32058 c-106 -78 -164 -171 -127 -208 84 -84 483 125 483 254 0 136 -130 119 -356 -46z"/>
<path d="M5101 31851 c-100 -120 -93 -160 39 -211 183 -70 487 135 403 271 -84 136 -304 106 -442 -60z"/>
<path d="M3825 31633 c-69 -27 -125 -112 -125 -188 0 -161 384 -59 394 105 7 119 -98 152 -269 83z"/>
<path d="M9317 31368 c-121 -128 -191 -261 -157 -295 72 -72 640 324 640 446 0 161 -270 76 -483 -151z"/>
<path d="M3470 30966 c-55 -144 100 -366 257 -366 126 0 44 427 -90 471 -62 21 -137 -26 -167 -105z"/>
<path d="M8907 30506 c-177 -165 -295 -345 -261 -400 73 -117 859 399 819 538 -58 198 -249 151 -558 -138z"/>
<path d="M4256 30275 c-20 -69 -152 -507 -292 -974 -156 -518 -220 -885 -164 -941 57 -57 135 20 202 194 125 330 498 1654 498 1769 0 127 -203 87 -244 -48z"/>
<path d="M3357 26550 c-210 -192 -437 -350 -504 -350 -125 0 -453 -313 -453 -433 0 -236 993 237 1256 599 336 462 366 534 219 534 -75 0 -308 -157 -518 -350z"/>
<path d="M1478 26395 c-250 -132 -353 -245 -314 -346 32 -82 116 -149 189 -149 248 0 746 350 746 525 1 223 -156 215 -621 -30z"/>
<path d="M1525 25788 c-346 -221 -421 -388 -175 -388 83 0 150 41 150 90 0 50 135 137 300 195 165 58 300 152 300 210 0 162 -218 122 -575 -107z"/>
<path d="M1733 25345 c-344 -151 -484 -302 -355 -381 100 -62 722 322 722 446 0 49 -11 86 -25 82 -14 -5 -168 -71 -342 -147z"/>
<path d="M12071 25137 c-35 -34 3 -220 83 -412 167 -399 190 -786 52 -871 -51 -32 -131 131 -176 361 -46 231 -145 440 -221 465 -112 38 -124 -54 -60 -492 42 -296 88 -702 102 -902 29 -438 109 -586 318 -586 124 0 145 74 100 350 -52 320 -35 350 187 350 289 0 305 164 101 1017 -178 746 -292 915 -486 720z"/>
<path d="M11400 24532 c0 -60 -90 -132 -200 -161 -182 -48 -199 -131 -188 -937 13 -1011 96 -1506 239 -1434 104 53 105 130 17 1250 -70 876 83 641 178 -275 65 -625 159 -809 299 -583 76 122 -157 2032 -262 2153 -51 59 -83 54 -83 -13z"/>
<path d="M10610 23863 c-107 -129 -126 -387 -83 -1112 31 -519 88 -994 126 -1056 162 -262 213 126 157 1196 -52 995 -78 1120 -200 972z"/>
<path d="M16033 23742 c-57 -148 212 -531 306 -436 76 77 -58 594 -154 594 -50 0 -119 -71 -152 -158z"/>
<path d="M13050 23481 c-292 -166 -347 -284 -348 -747 -2 -332 70 -502 360 -849 200 -238 446 -492 549 -564 167 -117 689 -907 689 -1043 0 -30 -94 -79 -208 -109 -149 -39 -199 -120 -175 -287 41 -292 323 -306 364 -18 21 154 83 201 216 166 211 -55 341 140 440 662 36 188 238 570 449 850 211 279 414 592 450 694 97 273 -114 945 -333 1062 -435 233 -1103 -12 -1103 -404 0 -107 -45 -194 -100 -194 -55 0 -100 93 -100 207 0 243 -144 399 -530 569 -336 149 -365 149 -620 5z m250 -381 c0 -55 -45 -100 -100 -100 -55 0 -100 45 -100 100 0 55 45 100 100 100 55 0 100 -45 100 -100z"/>
<path d="M11944 22290 c-107 -173 228 -458 371 -315 89 89 86 153 -11 271 -151 182 -266 196 -360 44z"/>
<path d="M23850 21935 c-110 -24 -301 -64 -425 -91 -505 -108 -171 -207 675 -201 604 5 899 45 900 121 0 211 -563 295 -1150 171z"/>
<path d="M15820 21780 c-163 -163 -152 -380 19 -380 131 0 261 203 261 408 0 128 -137 115 -280 -28z"/>
<path d="M12521 21681 c-183 -183 -145 -381 73 -381 263 0 361 188 189 360 -111 111 -168 115 -262 21z"/>
<path d="M12867 21257 c-81 -209 224 -506 369 -361 77 77 78 159 5 276 -145 229 -305 266 -374 85z"/>
<path d="M15420 20980 c-163 -163 -152 -380 19 -380 131 0 261 203 261 408 0 128 -137 115 -280 -28z"/>
<path d="M13700 20350 c0 -92 56 -148 125 -125 142 47 126 208 -25 258 -55 19 -100 -41 -100 -133z"/>
<path d="M15500 20159 c0 -191 -41 -230 -200 -188 -141 37 -200 3 -200 -114 0 -101 67 -154 171 -136 106 18 186 -48 210 -171 87 -451 202 -333 235 240 24 440 -1 610 -91 610 -69 0 -125 -108 -125 -241z"/>
<path d="M21100 20006 c0 -242 56 -266 135 -59 31 81 13 173 -39 206 -53 32 -96 -34 -96 -147z"/>
<path d="M21308 19759 c-143 -171 -65 -359 148 -359 159 0 186 178 59 380 -66 104 -107 100 -207 -21z"/>
<path d="M16200 19400 c0 -55 45 -100 100 -100 55 0 100 45 100 100 0 55 -45 100 -100 100 -55 0 -100 -45 -100 -100z"/>
<path d="M17701 19251 c-100 -121 -91 -161 48 -214 175 -68 380 135 289 283 -76 122 -200 96 -337 -69z"/>
<path d="M21600 19211 c0 -129 273 -215 458 -144 128 49 133 77 25 145 -176 112 -483 111 -483 -1z"/>
<path d="M11051 19102 c-74 -120 20 -302 155 -302 122 0 122 271 1 346 -51 31 -121 12 -156 -44z"/>
<path d="M9004 18955 c-76 -92 -87 -203 -31 -304 79 -141 109 -137 268 39 98 109 149 245 113 304 -90 146 -207 133 -350 -39z"/>
<path d="M11364 18631 c-120 -120 -65 -331 86 -331 83 0 150 65 150 144 0 167 -143 280 -236 187z"/>
<path d="M17235 18546 c-33 -85 -35 -180 -4 -210 88 -88 269 61 269 220 0 192 -191 184 -265 -10z"/>
<path d="M8465 18317 c-91 -100 -165 -338 -165 -529 0 -282 91 -435 500 -838 324 -319 500 -577 500 -732 0 -177 41 -224 159 -179 112 44 191 -26 272 -239 62 -165 165 -300 229 -300 151 0 377 351 533 825 67 206 155 375 195 375 40 0 153 223 251 496 341 949 -23 1417 -948 1217 -32 -7 -113 -132 -179 -277 l-120 -263 -221 201 c-241 219 -605 426 -749 426 -50 0 -165 -82 -257 -183z"/>
<path d="M11580 17926 c-169 -38 -346 -393 -247 -493 94 -93 447 71 511 238 76 199 -36 308 -264 255z"/>
<path d="M17138 17755 c-31 -80 -27 -193 9 -250 117 -189 253 -110 253 145 0 271 -172 340 -262 105z"/>
<path d="M8000 17150 c0 -82 45 -150 100 -150 55 0 100 68 100 150 0 83 -45 150 -100 150 -55 0 -100 -67 -100 -150z"/>
<path d="M12937 17164 c-385 -441 -266 -1190 291 -1822 292 -332 428 -588 467 -880 63 -473 239 -550 288 -125 50 441 -42 671 -477 1195 -470 567 -601 1059 -372 1407 209 319 48 504 -197 225z"/>
<path d="M6031 16859 c-155 -133 -251 -272 -214 -309 75 -76 683 342 683 469 0 148 -185 84 -469 -160z"/>
<path d="M11120 16980 c-166 -166 -151 -380 26 -380 164 0 383 338 284 437 -93 93 -175 78 -310 -57z"/>
<path d="M17450 17000 c-92 -149 36 -300 256 -300 214 0 221 13 133 242 -68 177 -294 211 -389 58z"/>
<path d="M2 16610 c-2 -339 -1 -340 206 -153 151 137 172 199 75 230 -73 24 -166 92 -206 153 -41 60 -75 -43 -75 -230z"/>
<path d="M8367 16833 c-155 -155 -52 -333 194 -333 196 0 245 39 200 158 -34 87 -61 177 -61 200 0 68 -261 48 -333 -25z"/>
<path d="M5936 16308 c-335 -204 -510 -408 -351 -408 156 0 915 430 915 519 0 136 -233 90 -564 -111z"/>
<path d="M17969 16335 c-131 -130 -68 -235 139 -235 117 0 191 52 169 119 -49 146 -216 209 -308 116z"/>
<path d="M8800 16200 c0 -55 45 -100 100 -100 55 0 100 45 100 100 0 55 -45 100 -100 100 -55 0 -100 -45 -100 -100z"/>
<path d="M10657 16143 c-121 -121 -139 -201 -63 -277 76 -76 157 -58 277 63 121 120 139 201 63 277 -76 76 -156 58 -277 -63z"/>
<path d="M18333 15842 c-33 -87 13 -231 103 -321 152 -152 164 -140 164 158 0 335 -162 435 -267 163z"/>
<path d="M9140 15461 c-91 -237 117 -444 281 -280 94 94 84 157 -47 287 -156 157 -171 156 -234 -7z"/>
<path d="M10210 15306 c-145 -89 -85 -406 76 -406 129 0 238 316 141 413 -43 43 -141 40 -217 -7z"/>
<path d="M9721 14881 c-174 -174 -152 -306 128 -796 137 -239 249 -570 250 -735 1 -165 139 -857 306 -1538 363 -1480 529 -3407 447 -5212 -114 -2513 -250 -5069 -311 -5825 -58 -727 -50 -775 137 -775 209 0 300 191 380 800 68 511 729 3399 859 3750 61 165 147 795 190 1400 117 1610 287 2217 225 800 -57 -1315 -338 -3157 -731 -4800 -408 -1707 -441 -1950 -264 -1950 94 0 169 149 211 425 36 234 128 628 203 875 76 248 164 630 196 850 31 220 101 535 154 700 105 323 314 1678 556 3600 174 1381 126 3082 -94 3302 -78 77 -116 248 -89 392 27 141 3 256 -53 256 -169 0 -262 -980 -110 -1163 251 -303 213 -1237 -51 -1237 -161 0 -360 -1121 -360 -2034 0 -460 -40 -660 -140 -698 -77 -30 -169 -248 -204 -486 -196 -1334 -488 -2782 -562 -2782 -46 0 -63 214 -37 475 27 261 89 1647 138 3080 102 2948 22 4322 -346 5995 -133 605 -285 1370 -338 1700 -53 330 -168 771 -257 980 -88 209 -148 451 -132 539 36 204 -143 270 -301 112z"/>
<path d="M7444 14291 c-142 -226 -229 -439 -192 -475 92 -92 547 496 548 709 0 263 -72 216 -356 -234z"/>
<path d="M17959 14615 c-29 -48 13 -410 95 -804 179 -856 230 -2102 95 -2311 -53 -82 -164 -352 -248 -600 -124 -370 -203 -459 -440 -500 -281 -48 -757 -537 -639 -655 75 -75 1038 411 1145 578 182 287 429 1488 493 2398 57 811 41 1013 -96 1222 -90 137 -164 339 -164 448 0 218 -155 363 -241 224z"/>
<path d="M8740 13875 c37 -234 127 -695 200 -1025 149 -678 103 -892 -114 -533 -155 254 -715 627 -806 536 -92 -92 222 -582 403 -630 96 -25 236 -171 313 -324 134 -269 129 -281 -144 -336 -286 -57 -658 -575 -545 -758 30 -48 8 -210 -49 -359 -81 -213 -59 -389 102 -820 113 -301 233 -809 266 -1127 70 -670 184 -926 320 -716 121 187 31 827 -248 1756 -130 437 -215 818 -187 846 28 28 182 -75 342 -228 286 -274 497 -919 659 -2016 l60 -410 -431 -93 -431 -93 14 -530 c17 -614 270 -1363 574 -1698 196 -215 212 -343 207 -1650 -5 -1261 -124 -2255 -412 -3442 -42 -173 -11 -225 132 -225 157 0 217 156 373 975 103 536 206 1605 231 2375 40 1269 168 2046 313 1901 168 -168 -78 -3334 -339 -4365 -193 -763 -184 -886 69 -886 167 0 200 45 155 215 -31 118 33 591 142 1051 110 460 202 1027 206 1260 109 6454 -24 8515 -621 9685 -107 210 -194 445 -194 523 0 78 -72 462 -161 854 -113 502 -206 712 -313 712 -124 0 -140 -81 -86 -425z m448 -3304 c165 -716 146 -743 -246 -366 -460 443 -537 595 -436 863 72 192 113 204 326 104 178 -84 274 -247 356 -601z m561 -729 c28 -436 75 -1163 106 -1617 34 -513 18 -825 -43 -825 -54 0 -131 101 -170 224 -64 202 -153 1401 -131 1776 24 434 71 1162 79 1242 6 50 32 69 60 42 27 -28 72 -406 99 -842z"/>
<path d="M15741 14162 c-85 -220 28 -333 181 -180 90 90 90 146 1 235 -89 89 -132 76 -182 -55z"/>
<path d="M7931 13725 c-96 -151 -322 -452 -502 -668 -181 -216 -328 -464 -326 -550 1 -101 109 -33 303 193 357 416 894 1162 894 1243 0 153 -215 27 -369 -218z"/>
<path d="M11000 13562 c0 -247 44 -564 98 -705 122 -322 354 -350 257 -32 -37 124 -93 417 -125 652 -77 582 -230 639 -230 85z"/>
<path d="M12669 13936 c-93 -93 20 -236 187 -236 79 0 144 68 144 150 0 151 -211 206 -331 86z"/>
<path d="M16265 13553 c-31 -81 -18 -170 29 -199 71 -44 206 156 206 304 0 108 -185 25 -235 -105z"/>
<path d="M12400 13100 c0 -111 67 -200 150 -200 83 0 150 89 150 200 0 111 -67 200 -150 200 -83 0 -150 -89 -150 -200z"/>
<path d="M6604 12207 c-144 -269 -131 -624 60 -1586 101 -505 208 -813 275 -789 61 22 98 125 82 229 -240 1595 -276 1950 -206 2060 110 173 106 279 -11 279 -54 0 -144 -87 -200 -193z"/>
<path d="M12369 12336 c-93 -93 20 -236 187 -236 79 0 144 68 144 150 0 151 -211 206 -331 86z"/>
<path d="M15700 11700 c0 -110 45 -200 100 -200 55 0 100 90 100 200 0 110 -45 200 -100 200 -55 0 -100 -90 -100 -200z"/>
<path d="M11178 11740 c-97 -149 30 -2140 137 -2140 97 0 97 884 0 1700 -36 303 -97 500 -137 440z"/>
<path d="M12857 11633 c-75 -196 78 -385 234 -288 158 97 134 455 -30 455 -77 0 -168 -75 -204 -167z"/>
<path d="M11662 11319 c-97 -156 42 -1819 152 -1819 47 0 83 349 79 775 -7 817 -103 1251 -231 1044z"/>
<path d="M24762 10472 c-104 -342 -254 -728 -335 -858 -170 -275 -223 -1041 -77 -1114 55 -27 114 63 131 200 16 138 143 604 280 1037 137 433 236 916 219 1072 -25 235 -63 175 -218 -337z"/>
<path d="M13245 10891 c-88 -141 105 -334 246 -246 60 37 109 132 109 211 0 168 -257 194 -355 35z"/>
<path d="M5862 9292 c-251 -790 -280 -2998 -46 -3492 91 -192 223 -552 295 -800 132 -460 281 -648 410 -519 92 92 -149 1130 -400 1719 -174 409 -183 568 -99 1737 64 880 60 1321 -11 1392 -73 73 -118 61 -149 -37z"/>
<path d="M24863 7100 c-48 -247 -120 -517 -161 -600 -173 -349 -207 -700 -67 -700 188 0 386 749 346 1303 l-33 447 -85 -450z"/>
<path d="M7704 7054 c-87 -104 -92 -154 -16 -154 61 0 112 -135 112 -300 0 -347 144 -392 303 -95 241 451 -96 915 -399 549z"/>
<path d="M17400 6900 c0 -151 52 -205 175 -181 96 19 175 100 175 181 0 81 -79 162 -175 181 -123 24 -175 -30 -175 -181z"/>
<path d="M16895 6491 c-96 -179 -85 -204 71 -174 100 20 197 114 215 209 47 242 -150 218 -286 -35z"/>
<path d="M8119 6097 c-205 -192 -215 -236 -87 -382 115 -132 140 -499 122 -1841 -12 -922 -48 -1701 -80 -1733 -31 -31 -134 105 -228 302 -94 198 -202 380 -241 404 -39 24 -41 274 -5 556 36 281 31 722 -11 979 -42 258 -80 679 -83 937 -6 485 -158 722 -273 424 -36 -94 -18 -626 39 -1182 58 -556 70 -1075 28 -1152 -97 -180 -144 -27 -313 1016 -136 834 -287 1029 -287 368 0 -223 -46 -492 -102 -597 -133 -248 272 -1271 694 -1752 361 -411 608 -1188 608 -1912 0 -501 15 -532 250 -532 l250 0 16 2025 c24 2952 22 2904 159 2950 172 57 158 573 -19 720 -79 66 -158 232 -175 369 l-31 250 -231 -217z"/>
<path d="M16720 5780 c-163 -163 -151 -280 30 -280 83 0 150 89 150 200 0 233 -19 241 -180 80z"/>
<path d="M16967 5133 c-115 -115 -73 -233 83 -233 83 0 150 68 150 150 0 156 -118 198 -233 83z"/>
<path d="M2100 4545 c-248 -132 -501 -241 -563 -242 -155 -4 -381 -292 -296 -377 83 -83 786 282 1209 628 375 307 236 303 -350 -9z"/>
<path d="M17420 4674 c-93 -112 -98 -176 -18 -225 148 -92 224 -5 182 209 -31 156 -47 158 -164 16z"/>
<path d="M0 4244 c0 -119 88 -149 367 -125 528 45 562 281 41 281 -303 0 -408 -40 -408 -156z"/>
<path d="M6240 1425 c35 -151 82 -342 104 -425 22 -82 44 -274 48 -425 5 -182 62 -275 167 -275 134 0 149 83 93 525 -93 738 -144 875 -320 875 -118 0 -140 -66 -92 -275z"/>
<path d="M6889 1475 c-18 -221 29 -724 72 -768 126 -130 245 210 185 530 -65 346 -234 503 -257 238z"/>
<path d="M14361 342 c-95 -247 -73 -342 78 -342 157 0 292 269 205 409 -86 139 -216 109 -283 -67z"/>
<path d="M24853 271 c-43 -99 -50 -208 -15 -242 101 -102 183 41 136 238 -41 175 -47 175 -121 4z"/>
</g>
</svg>