<svg xmlns="http://www.w3.org/2000/svg" version="1.0" width="250" height="525" viewBox="0 0 250.000000 525.000000" preserveAspectRatio="xMidYMid meet">
<metadata>
Created by potrace 1.10, written by Peter Selinger 2001-2011
</metadata>
<g transform="translate(0.000000,525.000000) scale(0.010000,-0.010000)" fill="#555555" stroke="none">
<path d="M1482 47275 c-9 -2874 -25 -5795 -35 -6491 -10 -697 -48 -3937 -84 -7200 -36 -3264 -87 -6496 -114 -7184 -84 -2217 -145 -4770 -199 -8400 -29 -1952 -76 -4372 -104 -5376 -28 -1005 -69 -3390 -92 -5300 -23 -1911 -73 -4340 -112 -5399 -69 -1903 -68 -1925 137 -1925 176 0 215 78 261 525 77 747 152 3473 209 7525 137 9912 161 11389 201 12450 24 633 68 2680 98 4550 30 1870 76 4030 102 4800 91 2642 200 17135 162 21325 -11 1254 -23 1325 -212 1325 -197 0 -200 -73 -218 -5225z"/>
<path d="M2585 51775 c-8 -399 -24 -1872 -35 -3275 -12 -1402 -50 -4305 -85 -6450 -95 -5828 -182 -11824 -208 -14300 -21 -2096 -99 -6376 -202 -11050 -25 -1182 -71 -3500 -100 -5150 -76 -4205 -194 -8461 -302 -10825 l-33 -725 340 0 340 0 0 2239 c0 2040 16 2246 175 2308 394 155 2970 227 8225 231 3561 3 5846 46 6377 119 454 62 862 91 906 63 45 -27 843 -57 1774 -66 931 -8 1772 -36 1868 -62 230 -60 221 -303 -34 -879 -266 -601 -401 -1519 -423 -2878 l-18 -1075 264 0 c150 0 259 54 253 125 -5 69 45 310 111 536 135 455 85 439 1362 435 536 -1 725 38 850 176 335 372 660 1314 560 1626 -35 111 -20 202 34 202 54 0 91 236 84 525 -8 289 64 1003 159 1588 191 1173 237 2938 73 2837 -55 -34 -100 -217 -100 -407 0 -190 -95 -761 -211 -1269 -116 -508 -224 -1104 -240 -1324 -107 -1482 -186 -1989 -419 -2684 l-264 -785 -871 69 c-831 66 -877 59 -1030 -159 -183 -261 -329 -202 -188 75 52 101 103 448 114 771 20 578 148 1005 520 1735 210 412 245 937 82 1242 -88 163 -192 195 -568 172 -486 -30 -638 95 -378 311 84 70 153 229 153 353 0 124 63 277 139 341 77 63 169 316 206 560 45 300 163 541 361 739 175 176 294 400 294 555 0 144 92 535 205 870 113 335 179 634 148 665 -96 96 -296 -171 -417 -559 l-116 -371 56 492 c49 429 35 484 -110 428 -284 -109 -182 117 125 275 200 104 277 207 244 330 -29 113 98 336 347 605 384 416 407 426 981 405 762 -29 1038 135 1034 614 -3 296 -22 326 -125 192 -201 -261 -502 -375 -747 -282 -280 105 -280 112 27 636 176 300 285 695 360 1311 99 811 93 893 -75 1016 -105 77 -295 109 -446 76 l-262 -58 47 694 c41 606 20 720 -162 902 -115 115 -238 324 -273 464 -35 140 -157 305 -271 366 -172 92 -238 72 -395 -122 -103 -127 -286 -281 -406 -340 -141 -70 -257 -265 -325 -547 -73 -300 -175 -464 -322 -519 -270 -99 -298 -239 -360 -1829 -55 -1397 38 -1845 427 -2053 368 -197 448 -478 218 -770 -161 -205 -181 -299 -95 -459 77 -143 78 -270 3 -435 -103 -226 -243 -1198 -368 -2561 -72 -785 -215 -969 -525 -680 -306 285 -454 885 -283 1146 79 120 104 286 60 404 -158 430 -177 2995 -53 7099 50 1650 93 3492 96 4093 5 1078 7 1086 137 625 103 -364 236 -547 602 -828 258 -199 456 -407 440 -463 -16 -56 36 -77 116 -46 79 31 224 -33 322 -141 98 -109 383 -288 634 -399 577 -255 1376 -752 1732 -1077 l275 -251 0 298 c0 165 -45 344 -99 398 -143 143 -152 4974 -10 5021 60 20 109 118 109 217 0 195 -386 350 -773 311 -137 -13 -325 87 -484 259 -222 240 -251 340 -197 679 35 219 105 424 156 455 109 67 402 862 341 923 -23 23 20 263 97 534 77 271 167 616 201 767 85 374 217 345 453 -100 l199 -375 -4 1424 c-3 809 -46 1450 -102 1484 -61 38 -57 108 12 191 67 80 97 526 80 1166 l-29 1035 -274 -1150 c-151 -632 -299 -1330 -330 -1550 -65 -465 -325 -1661 -459 -2110 -51 -170 -134 -567 -186 -881 -58 -361 -316 -1013 -701 -1775 -334 -662 -700 -1435 -813 -1719 -241 -609 -487 -1762 -487 -2290 0 -446 -130 -486 -294 -89 -86 206 -103 941 -62 2643 40 1707 21 2532 -71 2990 -89 439 -107 1042 -61 1981 37 743 99 2250 137 3350 79 2223 133 2549 517 3111 256 376 561 1309 733 2239 45 248 199 682 342 965 142 283 259 556 259 608 0 51 112 314 250 585 137 271 249 568 250 661 0 93 45 197 100 231 55 34 100 138 100 231 0 93 133 450 296 794 248 525 336 625 550 625 192 0 254 52 254 211 0 190 -38 204 -375 141 -206 -38 -419 -77 -472 -86 -55 -9 -99 270 -100 634 -3 569 -30 662 -220 745 -119 53 -241 220 -272 375 -74 371 -365 368 -749 -8 -423 -414 -637 -872 -562 -1210 48 -222 7 -333 -191 -518 -386 -358 -502 -1446 -305 -2863 38 -278 169 -554 368 -781 l309 -352 -175 -819 c-96 -450 -211 -864 -254 -919 -43 -55 -112 -257 -152 -450 -40 -192 -226 -598 -412 -902 -186 -304 -339 -619 -340 -700 0 -81 -42 -213 -93 -293 -90 -142 -69 1711 45 3995 29 578 70 1950 92 3050 24 1219 87 2129 160 2331 109 296 99 355 -97 563 -178 190 -206 304 -153 620 114 673 148 727 495 792 338 63 753 367 753 551 0 55 -68 125 -150 157 -82 31 -150 140 -150 240 0 326 -532 600 -1264 651 -369 26 -688 64 -708 84 -50 49 -46 3227 5 4561 44 1162 21 1300 -219 1300 -144 0 -165 -165 -170 -1325 -13 -2787 -65 -4447 -143 -4573 -52 -84 -310 -135 -716 -142 l-635 -10 -28 1538 c-24 1342 -5 1571 150 1790 724 1025 905 1448 917 2147 l10 575 -587 0 c-349 0 -629 -51 -690 -125 -56 -69 -117 -674 -137 -1345 -24 -856 -75 -1259 -170 -1350 -113 -109 -125 -57 -73 320 34 248 88 911 121 1475 52 901 40 1025 -102 1025 -187 0 -187 -1 -163 -1050 14 -640 -7 -776 -107 -678 -84 82 -119 390 -106 925 19 757 8 803 -191 803 -191 0 -205 -38 -144 -400 78 -460 -49 -526 -258 -134 -111 208 -115 276 -17 309 308 103 76 225 -429 225 -641 0 -639 -49 47 -776 480 -511 607 -730 607 -1055 0 -135 68 -301 150 -369 83 -68 150 -281 150 -472 0 -263 79 -422 325 -652 l325 -305 -22 -1149 c-12 -632 -37 -1164 -56 -1183 -19 -19 -141 -47 -272 -62 -228 -26 -244 13 -365 903 -272 1983 -917 3528 -2004 4795 -259 303 -322 325 -908 325 l-630 0 338 -297 c340 -298 781 -1095 1154 -2084 175 -463 180 -527 41 -500 -92 18 -287 351 -467 799 -359 892 -914 1682 -1182 1682 -103 0 -373 90 -601 200 -227 110 -587 200 -800 200 l-386 0 721 -691 c660 -632 708 -704 563 -850 -234 -233 -342 -196 -409 141 -37 186 -122 300 -223 300 -125 0 -149 60 -101 250 51 205 26 250 -139 250 -111 0 -197 34 -190 75 33 208 -38 221 -312 59 -307 -181 -405 -434 -167 -434 72 0 238 -112 367 -250 129 -137 289 -250 354 -250 66 0 147 -166 180 -370 65 -402 8 -574 -90 -269 -152 475 -253 646 -347 587 -57 -35 -180 30 -275 143 -126 152 -325 219 -745 252 -315 24 -599 2 -631 -49 -87 -142 -246 -113 -246 44 0 77 101 203 225 281 235 148 575 133 575 -26 0 -51 68 -93 150 -93 182 0 198 310 25 491 -102 106 -64 117 209 60 291 -62 330 -47 299 114 -52 268 -940 275 -919 6 12 -141 -14 -154 -123 -63 -77 63 -114 155 -84 203 30 49 -59 89 -198 89 -184 0 -237 -41 -195 -150 42 -111 -14 -150 -214 -150 -200 0 -256 39 -214 150 48 125 -63 150 -664 148 -716 -2 -725 -5 -1045 -391 -178 -214 -424 -562 -547 -773 -123 -211 -275 -429 -338 -484 -174 -152 -711 -976 -989 -1517 -181 -353 -249 -423 -250 -260 -2 123 69 404 158 625 88 221 137 464 107 540 -29 77 9 228 85 336 76 109 336 589 578 1067 l441 870 -252 -31 c-177 -21 -314 -148 -461 -430 l-209 -400 -31 425 -30 425 -543 0 c-610 0 -582 43 -700 -1041 -118 -1082 -233 -1070 -240 24 -4 780 -37 1023 -131 992 -90 -30 -133 -419 -153 -1381 -39 -1881 -222 -1934 -222 -64 0 1240 -23 1470 -150 1470 -165 0 -173 -52 -151 -1000 10 -460 -16 -619 -92 -545 -59 58 -112 429 -118 825 -8 543 -45 720 -150 720 -101 0 -139 -144 -141 -525 -1 -376 -29 -482 -98 -375 -53 83 -98 319 -98 525 -2 308 -38 375 -202 375 -180 0 -201 -72 -215 -725z m2867 -434 c-72 -380 -136 -1253 -143 -1941 -19 -1913 -87 -2368 -392 -2608 -309 -243 -1085 -225 -1226 28 -48 86 -59 652 -25 1259 63 1098 64 1102 334 1156 188 38 313 156 406 385 75 181 190 385 256 453 191 196 638 1557 638 1942 0 327 123 446 212 206 38 -104 11 -500 -60 -880z m13411 547 c-35 -172 -63 -442 -63 -600 0 -159 -38 -288 -84 -288 -47 0 -72 259 -57 575 34 692 17 625 154 625 72 0 90 -111 50 -312z m-9563 9 c0 -120 -282 -248 -364 -166 -88 88 61 269 220 269 79 0 144 -46 144 -103z m9000 -792 c0 -634 -31 -796 -164 -847 -144 -55 -157 2 -101 465 35 290 64 698 64 908 1 228 41 356 101 319 55 -34 100 -414 100 -845z m-10150 495 c34 -55 17 -100 -38 -100 -55 0 -128 45 -162 100 -34 55 -17 100 38 100 55 0 128 -45 162 -100z m5450 -50 c68 -83 102 -150 74 -150 -27 0 -106 67 -174 150 -68 83 -102 150 -74 150 27 0 106 -67 174 -150z m-4157 -317 c94 -247 -65 -341 -293 -172 -171 126 -178 160 -50 241 211 133 270 122 343 -69z m-737 -322 c-50 -93 -353 -291 -673 -441 -550 -256 -1123 -739 -1686 -1420 l-249 -300 99 277 c136 378 812 1279 1219 1622 707 597 1562 770 1290 262z m2079 141 c-19 -20 -159 -67 -310 -105 -211 -53 -275 -33 -275 86 0 93 108 166 275 185 241 28 413 -64 310 -166z m3265 -152 c92 -178 112 -300 50 -300 -86 0 -300 396 -300 557 0 124 112 9 250 -257z m-10890 -73 c-33 -33 -56 26 -52 131 5 117 28 141 60 61 29 -72 26 -159 -8 -192z m6871 -548 c-164 -181 -173 -181 -359 4 -164 164 -172 220 -59 401 l131 209 228 -214 c215 -201 218 -224 59 -400z m1522 324 c93 76 150 74 201 -9 141 -229 -276 -319 -679 -147 -282 120 -201 258 87 148 179 -68 303 -65 391 8z m4125 -59 c173 -121 222 -254 222 -600 0 -244 -44 -444 -97 -444 -55 0 -72 129 -40 291 47 232 5 338 -202 518 -411 357 -319 541 117 235z m-12012 -269 c-28 -69 -50 -12 -50 125 0 138 22 194 50 125 28 -69 28 -181 0 -250z m9593 -137 c-32 -83 -101 -124 -155 -91 -60 38 -51 159 25 326 95 210 128 229 154 90 19 -96 8 -242 -24 -325z m-10001 -1595 c-21 -1021 -62 -1881 -92 -1910 -29 -29 -100 -24 -157 12 -114 70 -151 3580 -39 3691 35 35 122 64 194 64 105 0 124 -373 94 -1857z m7622 1437 c164 -164 151 -480 -19 -480 -77 0 -166 68 -197 150 -32 83 -127 150 -211 150 -84 0 -153 68 -153 150 0 181 407 203 580 30z m1995 -154 c59 -178 -371 -370 -511 -229 -86 88 -65 152 82 261 212 157 370 145 429 -32z m925 -82 c0 -24 -70 -44 -156 -44 -86 0 -128 46 -93 102 57 92 249 48 249 -58z m-4167 -229 c30 -152 -13 -366 -101 -502 -115 -179 -127 -290 -48 -450 57 -117 154 -550 216 -963 61 -412 135 -876 164 -1030 52 -269 1368 -1770 1552 -1770 167 0 782 -451 783 -575 2 -176 146 -156 524 75 180 109 417 197 527 194 190 -4 189 -12 -25 -161 -124 -87 -225 -197 -225 -245 0 -127 340 -108 473 25 63 63 192 84 288 47 155 -60 147 -85 -66 -235 -246 -172 -1217 -231 -1666 -102 -479 138 -949 418 -1110 659 -206 310 -894 1016 -1577 1619 -529 468 -684 702 -1033 1568 -345 857 -231 1731 226 1731 66 0 179 81 251 180 77 107 265 185 462 190 283 8 340 -30 385 -255z m2164 89 c81 -51 124 -116 96 -145 -78 -77 -493 51 -493 153 0 114 210 110 397 -8z m2703 -228 c0 -56 -66 -45 -150 24 -82 68 -150 169 -150 224 0 56 66 45 150 -24 82 -68 150 -169 150 -224z m-6875 102 c-124 -60 -225 -166 -225 -236 0 -70 -105 -210 -234 -312 -213 -167 -466 -533 -466 -673 0 -170 298 -7 647 352 560 577 571 288 13 -309 -253 -270 -460 -530 -460 -576 0 -47 -269 -353 -597 -680 -697 -693 -683 -592 -418 -3023 144 -1323 143 -1488 -14 -2236 -93 -443 -145 -847 -114 -896 90 -146 343 -101 343 61 0 83 34 149 75 148 77 -3 457 -704 404 -746 -16 -13 -251 -97 -522 -188 -1014 -338 -1674 -139 -1865 562 -136 501 -65 1563 162 2424 87 330 182 780 211 1000 29 220 161 633 294 919 132 285 243 600 245 700 8 317 251 1126 376 1251 66 66 121 167 123 225 1 58 152 216 335 352 202 150 461 513 659 927 347 723 696 1080 1041 1069 208 -6 208 -8 -13 -115z m3276 -287 c492 -106 509 -121 480 -423 -27 -277 -69 -315 -359 -329 -368 -18 -631 174 -803 586 -135 323 -97 332 682 166z m3890 -247 c47 30 142 -13 210 -95 103 -124 87 -149 -95 -149 -268 0 -606 171 -606 307 0 64 73 61 202 -8 111 -60 241 -84 289 -55z m-1091 -38 c0 -174 -169 -201 -360 -56 -180 136 -176 144 85 147 151 2 275 -39 275 -91z m1227 -848 c154 -46 160 -84 50 -280 -70 -125 -228 -355 -352 -510 -124 -156 -226 -404 -227 -551 0 -147 -43 -333 -94 -414 -79 -125 -133 -111 -346 89 -213 200 -277 217 -410 107 -86 -72 -136 -187 -109 -255 69 -181 -49 -260 -200 -135 -72 60 -175 80 -230 46 -137 -84 -21 -355 152 -355 173 0 184 -168 14 -225 -98 -33 -96 -77 9 -204 299 -363 -209 -505 -669 -187 -146 101 -342 211 -436 245 -94 34 -291 252 -438 485 -247 391 -260 466 -172 953 58 320 60 564 4 620 -305 305 666 858 1659 943 320 28 607 76 639 108 32 31 265 -52 518 -185 254 -133 541 -266 638 -295z m1618 270 c93 -243 -45 -300 -203 -84 -78 107 -142 229 -142 272 0 131 281 -22 345 -188z m-6224 -437 c-41 -490 -183 -563 -253 -131 -66 407 -12 573 166 509 65 -23 103 -189 87 -378z m-2320 -294 c124 -332 198 -632 163 -666 -35 -35 -244 -4 -466 70 -537 177 -613 467 -231 880 156 168 289 308 296 312 7 4 114 -264 238 -596z m7799 253 c0 -137 -39 -250 -86 -250 -48 0 -65 113 -38 250 26 138 65 250 86 250 21 0 38 -112 38 -250z m37 -602 c32 -84 161 -192 286 -240 204 -79 209 -95 48 -160 -198 -80 -571 193 -571 417 0 183 165 171 237 -17z m-637 -354 c0 -440 -137 -457 -245 -29 -56 224 45 423 220 433 14 1 25 -181 25 -404z m-7485 -294 c252 0 485 -108 485 -225 0 -56 79 -160 175 -231 263 -192 121 -244 -368 -134 -299 67 -606 63 -971 -13 -731 -152 -906 1 -611 529 317 568 365 588 760 320 199 -135 437 -246 530 -246z m3424 42 c34 -87 61 -243 61 -345 0 -320 205 -657 509 -836 327 -194 399 -561 109 -561 -184 0 -344 156 -846 824 -214 285 -262 433 -211 648 112 469 261 575 378 270z m4119 -667 c-77 -481 -476 -1222 -705 -1310 -83 -32 -246 -206 -360 -387 -174 -274 -197 -287 -138 -78 115 407 409 937 632 1138 243 220 199 366 -87 291 -322 -84 -230 47 164 234 200 95 386 255 412 355 91 350 149 178 82 -243z m-10771 180 c106 -16 163 -122 163 -305 l0 -281 -875 -12 -875 -13 0 278 c0 246 38 279 325 285 179 4 415 45 525 92 110 47 284 61 387 32 103 -29 261 -63 350 -76z m15380 -32 c302 -192 175 -351 -317 -396 -1087 -100 -1400 -84 -1400 73 0 107 167 170 598 224 328 41 643 94 700 117 161 68 292 62 419 -18z m1473 -183 c30 -77 30 -201 2 -275 -79 -205 -942 10 -942 235 0 92 20 187 45 211 101 102 845 -41 895 -171z m-5040 60 c0 -55 -64 -100 -143 -100 -185 0 -457 -273 -457 -459 0 -79 139 -228 308 -331 352 -214 257 -361 -114 -176 -156 77 -277 255 -337 494 -79 318 -64 396 100 520 221 167 643 201 643 52z m1100 -150 c0 -82 -34 -151 -75 -151 -41 -1 -176 -29 -300 -62 -124 -33 -225 -21 -225 28 0 80 347 294 525 323 41 6 75 -55 75 -138z m-9300 -310 c0 -87 -87 -281 -193 -430 -106 -149 -268 -458 -359 -686 -152 -380 -153 -434 -7 -642 198 -282 203 -521 13 -678 -95 -80 -126 -220 -88 -409 82 -411 -33 -771 -271 -847 -269 -85 -495 113 -495 432 0 141 -41 394 -91 563 -685 2307 -520 2820 916 2846 464 9 575 -20 575 -149z m1388 -240 c293 -220 569 -400 613 -400 45 0 214 -214 376 -475 162 -261 405 -587 539 -725 135 -137 462 -539 727 -893 766 -1020 745 -998 1319 -1410 351 -252 441 -393 599 -946 194 -678 439 -875 439 -354 0 326 -411 1336 -588 1446 -79 48 -66 156 44 368 229 443 512 689 794 689 266 0 329 181 131 379 -91 91 -42 296 218 895 184 427 346 790 358 807 12 18 179 2 371 -33 259 -49 414 -167 606 -460 344 -525 410 -950 259 -1653 -155 -720 -257 -935 -447 -935 -87 0 -146 -96 -146 -237 0 -273 -229 -974 -461 -1413 -88 -165 -343 -412 -567 -550 -225 -137 -627 -441 -893 -675 -267 -234 -509 -425 -537 -425 -298 0 -1738 1338 -1594 1481 30 31 -74 194 -233 362 -292 310 -654 1181 -1158 2782 -151 481 -364 976 -473 1100 l-199 225 55 -325 c53 -312 -58 -439 -193 -221 -35 57 -139 82 -230 55 -95 -28 -316 78 -513 246 -191 162 -289 295 -218 295 82 0 105 71 64 200 -45 142 -18 200 93 200 89 0 157 85 157 196 0 109 93 247 206 307 268 143 85 402 -225 321 -145 -38 -190 -19 -141 60 119 192 290 135 848 -284z m10362 -1 c35 -55 -30 -231 -144 -390 -113 -159 -206 -359 -206 -444 0 -84 -42 -179 -92 -210 -51 -32 -121 -187 -156 -345 -48 -220 -135 -302 -370 -349 -508 -101 -514 -95 -454 478 38 367 10 626 -88 814 -79 152 -132 287 -117 299 33 27 1161 217 1396 235 93 7 197 -32 231 -88z m-2181 -285 c254 -232 327 -395 384 -855 39 -312 49 -590 23 -616 -27 -27 -167 -3 -312 52 -207 79 -264 167 -264 412 0 316 -314 867 -591 1034 -128 78 -121 103 45 168 317 124 385 106 715 -195z m3260 223 c35 -34 -4 -191 -85 -348 -81 -158 -166 -472 -187 -699 -50 -510 -101 -563 -632 -648 -478 -76 -509 -19 -309 568 222 651 983 1358 1213 1127z m-16497 -362 c-127 -652 -284 -1094 -382 -1071 -129 30 -566 1189 -493 1307 30 49 254 89 496 89 l442 0 -63 -325z m-1114 -429 c177 -561 178 -601 16 -720 -363 -266 -434 -162 -434 632 0 919 145 950 418 88z m4982 -140 c0 -51 -87 -87 -193 -79 -106 8 -171 50 -144 94 68 111 337 99 337 -15z m8742 -367 c87 -33 158 -147 158 -253 0 -151 -38 -174 -175 -103 -96 49 -227 71 -291 48 -142 -51 -268 133 -184 269 70 113 259 129 492 39z m-2742 -374 c0 -75 -111 -288 -247 -475 -136 -187 -359 -505 -496 -707 -341 -502 -443 -543 -692 -281 -118 124 -165 198 -105 165 235 -129 1003 617 1243 1208 101 246 297 306 297 90z m-5030 -284 c127 -119 230 -316 230 -439 0 -353 -580 -1571 -857 -1799 -338 -278 -238 -490 368 -780 463 -221 479 -241 306 -397 -144 -131 -342 -157 -974 -127 -901 43 -978 124 -691 729 175 370 348 1352 291 1659 -33 183 166 844 379 1256 99 191 175 223 419 174 165 -33 403 -157 529 -276z m-5386 31 c73 -46 118 -192 100 -323 -30 -212 -93 -242 -546 -269 -406 -23 -526 6 -577 138 -111 289 157 480 739 527 83 6 210 -26 284 -73z m8793 -32 c-52 -155 -695 -176 -745 -25 -20 60 141 116 376 130 300 18 400 -11 369 -105z m923 66 c0 -160 -362 -563 -669 -744 -273 -161 -384 -182 -492 -93 -200 166 -171 291 66 291 112 0 304 106 425 235 257 274 670 466 670 311z m5756 -288 c106 -78 160 -175 120 -216 -108 -107 -1103 -55 -1223 65 -269 269 751 409 1103 151z m1320 -33 c26 -82 -65 -125 -262 -125 -320 0 -501 147 -290 235 204 86 507 25 552 -110z m2663 -625 c74 -788 72 -724 30 -1400 -19 -302 9 -621 62 -708 117 -193 -682 -2092 -880 -2092 -71 0 -194 101 -274 225 -154 237 -318 1451 -287 2124 31 685 185 602 259 -140 50 -497 112 -709 208 -709 109 0 129 211 98 1049 -57 1558 92 1887 205 451 123 -1576 288 -1411 299 300 10 1670 18 1765 130 1645 49 -52 117 -387 150 -745z m-5539 597 c0 -57 -67 -129 -150 -161 -200 -77 -479 37 -400 163 81 133 550 131 550 -2z m-394 -8925 c-43 -8941 -47 -10191 -32 -12072 16 -2111 -56 -5731 -122 -6100 -108 -609 -75 -6414 40 -6989 59 -296 108 -736 108 -979 0 -392 -54 -496 -503 -961 -276 -286 -529 -625 -562 -751 -66 -256 -364 -266 -412 -14 -27 137 82 321 619 1044 126 170 157 1038 204 5600 30 2970 82 7223 114 9450 73 4982 73 5869 -3 6250 -33 165 -60 1808 -60 3650 -1 3954 -30 4131 -683 4181 -224 16 -502 -21 -618 -83 -190 -102 -209 -90 -179 119 30 210 83 233 552 229 348 -3 582 -61 711 -178 186 -169 194 -160 256 293 35 257 64 922 63 1478 -1 1011 182 3885 264 4153 34 110 70 115 163 22 92 -92 111 -2042 80 -8342z m1822 8363 l377 -62 -77 -2662 c-43 -1463 -73 -3291 -67 -4061 20 -2460 19 -2835 -16 -6450 -19 -1952 -58 -4247 -87 -5100 -93 -2743 -124 -8284 -50 -8825 40 -289 25 -1132 -33 -1875 -58 -742 -99 -1890 -91 -2550 8 -660 -22 -1335 -67 -1500 -81 -297 -88 -300 -753 -288 -370 7 -704 45 -743 84 -112 112 -107 5806 6 6804 56 495 115 3308 130 6250 89 17406 115 19659 222 19918 103 249 175 283 771 366 55 8 270 -14 478 -49z m1520 -1335 c-1 -742 -38 -2182 -81 -3200 -43 -1017 -96 -2449 -117 -3180 -21 -732 -84 -1475 -140 -1650 -57 -176 -108 -860 -115 -1520 -6 -660 -13 -1267 -15 -1350 -4 -214 115 -4911 163 -6400 22 -687 -2 -2217 -53 -3400 -151 -3473 -203 -5470 -222 -8525 l-18 -2875 -301 0 -300 0 16 1525 c8 839 66 2146 128 2905 62 760 84 1427 49 1483 -68 110 -68 1356 -2 7137 24 2035 64 6175 91 9200 66 7490 157 10965 292 11128 61 73 226 119 368 102 l259 -30 -2 -1350z m2952 1194 c0 -113 -45 -178 -100 -144 -55 34 -100 127 -100 206 0 79 45 144 100 144 55 0 100 -93 100 -206z m-19900 -43 c0 -95 -82 -140 -225 -125 l-225 24 -6 -6300 c-6 -6830 -114 -15358 -203 -16000 -118 -859 -130 -1307 -117 -4450 18 -4089 2 -4752 -133 -5359 -248 -1125 -241 -1222 98 -1415 170 -97 310 -204 310 -238 4 -380 -697 -1588 -921 -1588 -64 0 -77 700 -37 1975 73 2340 132 5561 207 11225 30 2283 76 5140 102 6350 26 1210 76 5283 110 9050 35 3768 83 6884 107 6925 25 41 245 75 489 75 326 0 444 -39 444 -149z m6300 -801 c-71 -415 -101 -782 -68 -816 34 -33 142 80 240 252 216 380 304 393 388 59 40 -160 -17 -470 -153 -825 -265 -698 -468 -1329 -613 -1908 l-109 -439 -141 272 c-78 150 -194 449 -258 664 -110 364 -286 536 -286 278 0 -117 179 -818 278 -1087 179 -488 39 -579 -201 -131 -169 315 -577 1373 -577 1497 0 19 191 35 425 36 522 1 600 51 821 522 228 485 153 656 -305 695 -573 48 -641 264 -299 953 157 318 306 522 330 454 24 -67 -50 -254 -164 -415 -209 -293 -281 -711 -124 -711 46 0 136 101 199 225 64 124 156 293 205 375 50 83 172 317 272 521 99 204 201 351 225 327 24 -24 -14 -383 -85 -798z m-2582 -205 c-38 -457 -267 -1045 -408 -1045 -121 0 -518 846 -567 1209 -35 253 -22 259 486 240 l521 -21 -32 -383z m-3578 -1049 c36 -84 221 -237 412 -340 261 -141 348 -253 348 -449 0 -145 68 -359 151 -478 123 -175 133 -339 55 -897 -52 -375 -100 -2144 -107 -3932 -15 -3935 -63 -6195 -151 -7213 -44 -505 -30 -786 41 -830 109 -68 75 -8672 -35 -8851 -76 -123 -72 -7241 3 -7439 57 -146 -25 -167 -661 -167 l-725 0 79 775 c44 426 65 1315 48 1975 -60 2273 -48 4105 42 6050 49 1073 105 2715 123 3650 19 935 56 2758 83 4050 101 4772 113 9112 34 12400 -25 1018 -20 2120 10 2450 l54 600 66 -600 c36 -330 94 -669 130 -754z m19896 1246 c83 -32 127 -122 97 -200 -78 -203 -201 -175 -262 58 -58 221 -53 225 165 142z m-7086 -142 c-34 -55 -104 -100 -156 -100 -52 0 -94 45 -94 100 0 55 70 100 156 100 86 0 128 -45 94 -100z m-682 -1016 c-79 -294 -160 -600 -181 -682 -23 -91 48 -160 186 -181 295 -45 627 -480 627 -821 0 -205 -99 -341 -400 -550 l-401 -278 -352 339 c-398 382 -798 972 -715 1054 97 97 261 -67 207 -207 -54 -140 302 -428 786 -636 286 -122 775 4 775 201 0 205 -217 471 -499 611 -320 160 -443 91 -335 -189 100 -262 -188 -129 -351 163 -124 222 -101 298 275 915 225 370 414 753 418 850 4 97 29 125 55 61 26 -64 -17 -357 -95 -650z m-5036 -223 c29 -76 -5 -222 -76 -325 -134 -193 -456 -1371 -456 -1667 0 -186 -81 -210 -283 -81 -160 101 -45 597 367 1587 265 637 353 733 448 486z m-5402 -1086 c32 -399 21 -1197 -23 -1775 -44 -577 -82 -2355 -83 -3950 -2 -1595 -38 -3845 -81 -5000 -43 -1155 -73 -2235 -65 -2400 60 -1359 118 -5049 120 -7650 6 -6324 -22 -11300 -64 -11300 -75 0 -532 1043 -533 1217 -1 92 74 317 166 500 92 183 207 416 257 518 61 126 44 236 -55 350 -79 91 -172 435 -206 765 -88 846 -85 4838 7 7850 43 1403 68 3450 55 4550 -71 6008 -20 14671 93 15600 66 550 110 1040 96 1090 -37 136 68 360 169 360 49 0 115 -326 147 -725z m391 -200 c17 -261 -2 -475 -41 -475 -124 0 -203 671 -119 1017 87 360 108 287 160 -542z m672 494 c-4 -120 -46 -309 -93 -419 -64 -150 -88 -80 -93 281 -4 297 31 457 93 419 55 -34 97 -160 93 -281z m4807 43 c0 -103 -72 -247 -160 -320 -127 -105 -152 -284 -123 -862 35 -684 -45 -933 -184 -573 -41 109 -134 139 -297 99 -257 -65 -330 87 -87 180 82 31 142 160 134 286 -9 125 67 487 169 803 135 421 233 575 366 575 111 0 182 -73 182 -188z m-3300 -59 c0 -81 113 -402 250 -713 285 -645 323 -1040 100 -1040 -82 0 -150 68 -150 152 0 112 -66 135 -251 89 -367 -92 -549 111 -549 615 0 237 -42 542 -94 677 -117 308 -58 367 361 367 226 0 333 -47 333 -147z m-1000 -309 c0 -24 -45 -44 -100 -44 -55 0 -100 48 -100 106 0 58 45 78 100 44 55 -34 100 -82 100 -106z m4600 -130 c0 -402 -131 -1114 -206 -1114 -149 0 -209 601 -94 950 124 374 300 471 300 164z m3388 -793 c579 -569 630 -790 93 -407 -182 130 -476 241 -653 247 -615 20 -805 411 -409 837 212 227 223 229 325 44 58 -106 348 -430 644 -721z m-2888 335 c0 -72 -67 -188 -150 -256 -122 -101 -150 -96 -150 30 0 249 114 473 210 414 50 -31 90 -115 90 -188z m-5666 -1333 c-30 -645 -72 -1192 -94 -1215 -22 -23 -40 531 -40 1231 0 765 37 1250 94 1215 54 -34 71 -548 40 -1231z m6047 924 c-31 -30 -87 25 -125 124 -54 142 -42 154 56 56 69 -68 99 -149 69 -180z m1166 -41 c96 -186 115 -317 53 -356 -121 -75 -124 -157 -12 -334 71 -112 137 -108 385 20 291 151 302 148 428 -116 71 -148 159 -662 196 -1141 59 -763 100 -904 335 -1138 147 -148 268 -330 268 -406 0 -76 45 -216 99 -311 608 -1064 753 -2723 407 -4674 -117 -660 -301 -1740 -409 -2400 -295 -1795 -347 -2043 -582 -2742 -118 -352 -215 -702 -215 -776 0 -185 -474 -1530 -589 -1670 -201 -245 -795 -1882 -865 -2381 -81 -582 -82 -597 -236 -2331 -106 -1195 -136 -1360 -458 -2500 -93 -330 -212 -780 -265 -1000 -52 -220 -187 -646 -298 -947 -111 -300 -245 -750 -298 -1000 -52 -249 -179 -767 -281 -1152 -189 -710 -181 -951 28 -951 68 0 166 308 234 734 64 404 274 1225 466 1825 498 1557 685 2245 710 2613 12 177 74 383 137 460 175 210 286 1005 304 2168 16 1081 127 1852 364 2550 273 801 517 1407 683 1700 l170 300 -64 -550 c-35 -302 -241 -1405 -457 -2450 -217 -1045 -480 -2360 -586 -2923 -106 -563 -281 -1418 -389 -1900 -109 -482 -272 -1349 -364 -1927 -298 -1887 -800 -3766 -1170 -4380 -248 -411 -171 -509 182 -231 342 269 464 267 424 -5 -23 -157 -143 -248 -432 -329 -220 -61 -395 -166 -390 -233 37 -448 25 -437 276 -272 130 85 300 130 377 100 162 -62 447 742 400 1125 -16 135 38 251 133 287 89 34 226 186 304 338 204 395 550 1737 550 2135 0 186 110 874 244 1527 133 653 315 1717 403 2364 209 1538 372 1934 302 737 -29 -488 -69 -915 -91 -950 -21 -35 -68 -400 -105 -813 -62 -703 -323 -2170 -411 -2313 -22 -35 -85 -385 -141 -777 -122 -863 -456 -2107 -718 -2681 -107 -232 -186 -480 -176 -550 35 -267 -15 -378 -281 -625 -151 -140 -229 -261 -175 -269 54 -9 147 -21 206 -27 59 -6 303 -179 543 -385 471 -403 350 -510 -230 -203 -183 97 -662 193 -1120 225 -892 61 -853 12 -697 895 62 351 51 424 -53 360 -105 -65 -117 72 -59 710 121 1358 160 1667 310 2490 80 440 189 1115 241 1500 53 385 259 1481 458 2436 200 955 338 1802 307 1881 -98 256 -257 34 -257 -359 0 -209 -88 -735 -195 -1169 -107 -434 -267 -1194 -354 -1689 -88 -495 -270 -1462 -404 -2150 -135 -687 -250 -1497 -257 -1800 -6 -302 -73 -865 -149 -1250 -76 -385 -118 -858 -94 -1050 25 -193 2 -418 -51 -500 -153 -239 -313 80 -242 485 32 184 50 724 39 1200 -10 476 -22 1045 -26 1265 -4 220 22 604 58 852 59 411 -38 818 -165 691 -28 -28 -59 -466 -68 -974 -14 -755 -39 -893 -139 -756 -207 284 -277 27 -419 -1554 -64 -714 -59 -739 140 -687 166 44 217 -4 266 -247 94 -468 65 -548 -93 -258 -153 281 -599 443 -931 338 -239 -76 -439 148 -312 348 124 195 121 1169 -5 1767 -55 264 -146 863 -200 1330 -55 468 -164 1255 -243 1750 -78 495 -146 979 -149 1075 -4 96 -71 175 -148 175 -103 0 -164 212 -223 775 -115 1094 -69 2019 158 3175 328 1669 359 2050 169 2050 -127 0 -164 104 -167 475 -1 261 -63 755 -137 1098 -111 519 -111 653 -1 800 173 230 71 1232 -141 1388 -128 94 -140 370 -83 1882 37 975 106 1848 153 1940 47 92 115 358 150 592 77 501 -129 601 -307 150 l-109 -275 -10 329 c-6 180 52 428 129 550 90 141 130 437 113 821 -35 790 125 1812 353 2260 196 386 282 1728 153 2390 -42 215 -11 537 80 835 152 498 621 1265 775 1265 146 0 95 -368 -71 -505 -267 -222 -467 -712 -539 -1322 -59 -501 -43 -598 109 -680 126 -67 166 -183 139 -399 -21 -168 52 -741 162 -1275 111 -533 227 -1099 257 -1257 31 -158 128 -307 217 -330 104 -28 282 -407 498 -1062 184 -561 418 -1239 519 -1506 101 -268 214 -730 251 -1027 37 -298 152 -707 256 -911 169 -330 182 -519 126 -1773 -54 -1183 -108 -2560 -139 -3528 -4 -124 -1 -281 8 -350 8 -69 -12 -485 -46 -925 -33 -440 -84 -1250 -112 -1800 -29 -550 -95 -1293 -147 -1650 -157 -1076 -232 -3500 -109 -3500 98 0 166 724 119 1275 -11 124 32 225 95 225 172 0 18 -1816 -166 -1961 -186 -146 -180 -248 9 -175 110 42 150 -13 150 -209 0 -147 37 -244 83 -215 86 53 234 1315 429 3660 62 743 145 1688 185 2100 67 691 4 1034 -160 870 -37 -37 -99 -349 -138 -693 -96 -839 -124 -655 -110 717 10 977 40 1174 203 1350 105 113 222 431 260 706 65 467 59 487 -88 300 -151 -191 -158 -183 -169 200 -21 719 7 1479 104 2800 171 2317 244 4254 247 6533 3 1869 -20 2252 -146 2350 -118 92 -152 384 -161 1367 -7 688 -17 1717 -23 2289 -6 571 19 1086 54 1144 106 171 353 -1136 334 -1768 -14 -479 28 -651 234 -950 336 -488 455 -1065 467 -2265 9 -910 132 -2044 196 -1800 14 55 18 865 9 1800 -14 1312 -55 1786 -179 2075 -89 206 -194 375 -234 375 -143 0 -322 609 -271 927 28 177 -4 616 -70 973 -132 705 -62 1095 260 1440 175 188 177 184 84 -140 -94 -329 95 -2049 253 -2306 174 -281 216 124 85 806 -153 794 -159 1770 -11 1970 61 82 164 91 331 27 133 -51 242 -64 242 -29 0 35 79 -5 175 -87 96 -83 254 -179 350 -213 96 -34 175 -156 175 -270 0 -115 130 -330 289 -479 374 -349 443 -600 433 -1569 -7 -606 38 -891 185 -1178 142 -278 193 -582 191 -1150 -1 -834 -90 -1256 -636 -3022 -196 -632 -357 -1231 -359 -1331 -6 -365 164 -61 392 700 128 429 340 1096 469 1481 528 1564 606 2701 235 3450 -126 254 -160 503 -125 907 73 849 -128 1653 -477 1911 -158 117 -316 341 -350 497 -35 157 -125 285 -201 285 -77 0 -185 85 -240 189 -81 151 -56 221 121 345 309 215 347 206 520 -128z m-6798 -1481 c-24 -921 -51 -4493 -60 -7936 -12 -4829 14 -6413 116 -6924 72 -364 112 -679 88 -699 -24 -21 -207 -17 -408 8 -346 43 -368 69 -412 461 -62 568 -1 4946 83 5839 95 1022 -16 1826 -252 1826 -186 0 -304 186 -304 480 0 129 33 117 153 -54 88 -126 215 -194 300 -161 92 35 147 -4 147 -104 0 -89 39 -161 87 -161 134 0 253 2383 211 4250 -13 562 -42 726 -98 550 -58 -183 -83 -71 -90 413 -6 364 -38 803 -72 975 -41 201 -23 312 50 312 72 0 113 -256 115 -725 2 -552 28 -682 107 -546 58 99 95 324 83 500 -60 871 17 3371 103 3371 60 0 80 -639 53 -1675z m3231 1055 c164 -164 151 -430 -27 -578 -81 -67 -177 -276 -212 -465 -58 -311 -77 -326 -195 -165 -71 98 -161 146 -200 107 -112 -111 44 -579 193 -579 312 0 346 -1488 50 -2167 -202 -463 -216 -473 -319 -250 -85 183 -68 305 77 575 166 308 172 400 57 917 -159 719 -363 1125 -565 1125 -122 0 -140 68 -86 325 88 418 211 551 367 395 93 -93 182 -60 400 149 300 288 369 487 138 398 -78 -30 -165 7 -194 83 -45 117 36 174 341 238 30 7 109 -42 175 -108z m-2759 -2239 c-25 -1960 -61 -3469 -106 -4416 -8 -179 -49 -325 -90 -325 -41 0 -69 1204 -61 2675 23 4364 22 4346 161 4300 96 -33 118 -549 96 -2234z m3186 1337 c-123 -352 -28 -4878 102 -4878 157 0 292 -1086 277 -2225 -8 -646 -46 -1175 -83 -1175 -75 0 -304 1837 -304 2431 1 228 -39 356 -99 319 -117 -72 -123 -1091 -10 -1775 43 -261 64 -475 45 -475 -18 0 -108 169 -201 375 -136 304 -175 336 -205 172 -21 -112 40 -382 133 -600 94 -218 180 -464 192 -547 12 -82 71 -442 133 -800 136 -791 142 -1100 22 -1100 -49 0 -121 236 -158 525 -37 289 -154 695 -259 903 -106 208 -192 433 -193 500 0 67 -71 257 -157 422 -197 378 -457 1298 -487 1726 -25 365 -149 561 -167 266 -6 -106 -4 -248 5 -317 8 -69 -27 -125 -79 -125 -181 0 -455 1532 -460 2575 -3 908 -24 1025 -179 1025 -216 0 -218 88 -14 598 88 221 220 402 293 402 73 0 162 92 198 206 98 310 279 180 418 -302 108 -371 102 -470 -40 -711 -145 -246 -151 -399 -51 -1311 125 -1147 275 -1682 470 -1682 184 0 251 -234 251 -880 0 -504 16 -547 152 -410 137 136 126 273 -100 1319 -337 1561 -324 2027 81 2862 75 154 108 697 91 1518 -16 826 12 1302 82 1344 58 37 157 186 218 332 111 263 112 263 152 34 22 -127 -9 -370 -69 -541z m-2741 97 c-28 -69 -50 -12 -50 125 0 138 22 194 50 125 28 -69 28 -181 0 -250z m-1893 -145 c-218 -218 -325 -110 -157 158 84 135 163 173 227 109 65 -65 40 -157 -70 -267z m2827 226 c0 -79 -45 -172 -100 -206 -55 -34 -100 -172 -100 -306 0 -134 -34 -244 -75 -244 -112 0 -121 521 -12 724 114 212 287 232 287 32z m-2926 -1111 c106 -78 121 -136 46 -183 -148 -91 -324 258 -305 606 l15 282 44 -295 c24 -163 114 -347 200 -410z m1986 182 c-33 -33 -56 26 -52 131 5 117 28 141 60 61 29 -72 26 -159 -8 -192z m8140 66 c0 -316 -186 -593 -398 -593 -104 0 -214 38 -243 86 -29 47 58 64 194 38 251 -48 299 46 252 501 -10 96 30 175 89 175 58 0 106 -93 106 -207z m-740 -266 c-33 -33 -56 26 -52 131 5 117 28 141 60 61 29 -72 26 -159 -8 -192z m-7394 -552 c-28 -69 -50 -12 -50 125 0 138 22 194 50 125 28 -69 28 -181 0 -250z m8734 -375 c0 -55 -70 -100 -156 -100 -86 0 -128 45 -94 100 34 55 104 100 156 100 52 0 94 -45 94 -100z m-450 -300 c-34 -55 -129 -100 -212 -100 -82 0 -122 45 -88 100 34 55 129 100 212 100 82 0 122 -45 88 -100z m-10347 -943 c-143 -374 -137 -402 159 -754 270 -319 263 -531 -9 -305 -250 207 -386 807 -258 1141 61 159 133 266 161 239 27 -28 3 -172 -53 -321z m14980 -3007 c-39 -440 -80 -1160 -91 -1600 l-21 -800 -76 750 c-82 812 -20 3855 84 4100 103 243 181 -1580 104 -2450z m-14317 1625 c-28 -69 -50 -12 -50 125 0 138 22 194 50 125 28 -69 28 -181 0 -250z m34 -475 c0 -55 -45 -100 -100 -100 -55 0 -100 45 -100 100 0 55 45 100 100 100 55 0 100 -45 100 -100z m-62 -1375 c-94 -393 -138 -406 -138 -42 0 175 46 317 102 317 60 0 75 -112 36 -275z m-576 -291 c-178 -329 -208 -267 -59 123 56 149 127 246 158 216 30 -31 -15 -183 -99 -339z m498 -407 c-33 -33 -56 26 -52 131 5 117 28 141 60 61 29 -72 26 -159 -8 -192z m10136 -1020 c132 -247 135 -776 4 -857 -58 -36 -100 64 -100 238 0 165 -45 328 -100 362 -128 79 -131 450 -4 450 54 0 144 -87 200 -193z m8062 -583 c-121 -120 -179 78 -101 346 l82 280 38 -284 c21 -156 12 -310 -19 -342z m-13560 -243 c1 -93 -43 -197 -98 -231 -60 -37 -99 90 -98 319 1 283 26 342 98 231 53 -82 98 -226 98 -319z m4967 -535 c94 -243 -36 -287 -160 -55 -78 145 -79 209 -5 209 58 0 133 -69 165 -154z m4695 -519 c-33 -33 -56 26 -52 131 5 117 28 141 60 61 29 -72 26 -159 -8 -192z m-14748 -700 l-162 -477 -31 382 c-18 210 21 446 86 524 218 262 270 52 107 -429z m14872 -1302 c-15 -780 -23 -815 -75 -325 -57 532 -28 1200 52 1200 21 0 32 -394 23 -875z m-4484 575 c0 -55 -56 -101 -125 -101 -69 -1 -226 -29 -350 -62 -165 -44 -225 -18 -225 101 0 118 94 162 350 162 193 0 350 -45 350 -100z m-376 -956 c314 -75 274 -246 -55 -241 -222 3 -569 210 -569 340 0 39 79 47 175 18 96 -28 298 -81 449 -117z m7606 -1044 c236 0 263 -210 312 -2431 34 -1561 16 -1991 -86 -2030 -187 -72 -1022 460 -1175 749 -94 176 -126 670 -113 1723 15 1255 48 1547 226 1949 l209 472 230 -216 c126 -119 305 -216 397 -216z m-7160 -217 c72 -59 125 -181 118 -270 -10 -148 -15 -148 -55 2 -49 185 -325 282 -814 284 -216 1 -307 39 -262 112 80 130 814 38 1013 -128z m-1274 -8 c-3 -69 -66 -395 -140 -725 l-136 -600 -10 567 c-5 312 17 638 51 725 72 188 241 212 235 33z m9227 -200 c68 -341 14 -4371 -59 -4445 -72 -72 -68 -185 -94 2595 -18 1881 30 2467 153 1850z m-8551 -642 c25 -75 -35 -98 -166 -63 -113 29 -206 96 -206 149 0 133 325 58 372 -86z m-612 -606 c-33 -33 -56 26 -52 131 5 117 28 141 60 61 29 -72 26 -159 -8 -192z m699 -295 c304 49 339 37 237 -87 -190 -229 -669 -182 -809 80 -109 204 -104 212 47 87 109 -90 293 -118 525 -80z m-1199 -705 c-33 -33 -56 26 -52 131 5 117 28 141 60 61 29 -72 26 -159 -8 -192z m926 -102 c-79 -96 -207 -299 -282 -450 -76 -151 -156 -257 -178 -235 -73 74 376 860 492 860 72 0 61 -63 -32 -175z m-8786 -87 c0 -110 61 -145 194 -111 172 45 191 3 168 -380 -27 -465 -466 -1247 -700 -1247 -150 0 -310 1139 -204 1463 34 103 78 243 98 312 56 187 444 155 444 -37z m7591 -1288 c-102 -605 -231 -1415 -287 -1800 -56 -385 -144 -880 -196 -1100 -52 -220 -162 -805 -245 -1300 -128 -759 -425 -2454 -864 -4931 -115 -645 -445 -1419 -605 -1419 -65 0 -95 79 -67 175 404 1412 627 2440 872 4025 115 743 261 1530 325 1750 63 220 126 509 141 641 41 388 779 4067 951 4744 175 689 164 339 -25 -785z m1906 654 c81 -51 123 -118 93 -148 -30 -29 -141 12 -247 92 -211 159 -83 206 154 56z m-8842 -996 c-31 -50 0 -110 69 -133 101 -33 101 -135 1 -510 -69 -257 -125 -560 -125 -673 0 -255 -309 -1216 -371 -1154 -26 25 3 443 62 929 60 486 109 1089 109 1341 0 252 31 490 69 528 90 90 259 -209 186 -328z m8372 -174 c407 -66 511 -234 145 -234 -283 0 -636 240 -778 530 -105 216 -104 216 77 -8 104 -129 344 -253 556 -288z m-9047 -2960 c-31 -1693 -75 -2308 -172 -2400 -107 -102 -121 75 -79 976 33 724 1 1408 -96 2000 -159 981 -116 1562 146 1950 l169 250 37 -250 c21 -137 19 -1274 -5 -2526z m-980 1970 c0 -24 -45 -44 -100 -44 -55 0 -100 48 -100 106 0 58 45 78 100 44 55 -34 100 -82 100 -106z m8560 -817 c-33 -33 -56 26 -52 131 5 117 28 141 60 61 29 -72 26 -159 -8 -192z m782 212 c92 -35 155 -171 152 -325 -7 -257 -9 -258 -97 -39 -50 124 -162 225 -250 225 -87 0 -131 45 -97 100 72 117 84 119 292 39z m7757 -1414 c-20 -1752 -32 -1657 201 -1596 260 68 252 12 -50 -347 -199 -237 -250 -407 -250 -840 0 -392 38 -542 137 -542 93 0 159 190 204 594 58 510 98 598 287 625 179 25 233 118 287 501 37 258 96 517 132 575 161 261 209 50 138 -611 -61 -570 -152 -840 -449 -1325 -340 -556 -977 -1245 -1161 -1255 -41 -2 -75 130 -75 293 0 206 -108 404 -352 648 -413 414 -561 750 -496 1130 52 308 123 1070 155 1675 12 220 56 -41 97 -581 77 -1016 110 -1134 289 -1023 68 41 107 579 107 1454 0 1409 127 1929 238 974 34 -288 42 -830 19 -1205 -37 -596 -21 -677 126 -648 144 28 169 202 185 1281 24 1598 15 1498 139 1498 71 0 102 -427 92 -1275z m-6681 753 c-71 -71 -118 -77 -118 -15 0 57 30 134 67 170 36 37 90 44 118 15 28 -28 -2 -105 -67 -170z m-643 -737 c349 59 362 53 181 -89 -249 -195 -552 -193 -834 4 -307 215 -281 387 28 185 176 -116 359 -145 625 -100z m-5038 -816 c-41 -481 -75 -954 -77 -1050 -2 -96 -38 -175 -81 -175 -44 0 -79 188 -79 417 0 456 194 1683 265 1683 25 0 12 -394 -28 -875z m4613 -185 c-309 -455 -409 -976 -279 -1461 56 -208 64 -379 19 -379 -171 0 -272 373 -251 918 18 438 83 642 297 922 357 468 531 468 214 0z m8119 -315 c-25 -96 -46 -18 -46 175 0 193 21 271 46 175 25 -96 25 -254 0 -350z m-16068 -1325 c59 -742 142 -1613 184 -1934 43 -322 59 -709 37 -861 l-41 -277 -311 285 c-293 267 -304 304 -192 615 74 203 100 617 68 1076 -47 686 57 2939 120 2596 15 -82 76 -757 135 -1500z m8924 719 c173 -149 247 -619 97 -619 -43 0 -129 135 -191 300 -86 227 -177 300 -372 300 -267 0 -355 150 -134 227 162 56 381 -19 600 -208z m-9407 -2803 c-85 -321 -97 -268 -97 434 0 749 7 772 97 366 63 -281 63 -564 0 -800z m9304 707 c59 -70 78 -156 44 -191 -35 -34 -157 57 -272 203 -115 146 -273 265 -351 265 -79 0 -143 48 -143 106 0 115 549 -177 722 -383z m-1372 77 c34 -55 -31 -100 -144 -100 -113 0 -206 45 -206 100 0 55 65 100 144 100 79 0 172 -45 206 -100z m-6703 -1411 c-32 -99 -6 -463 57 -809 64 -347 122 -1057 131 -1580 l15 -950 -531 -431 c-293 -237 -608 -417 -700 -399 -268 51 -254 413 26 675 221 208 286 223 512 120 142 -65 293 -96 335 -70 169 105 205 1901 57 2805 -82 495 -145 1125 -142 1400 l6 500 145 -540 c80 -298 120 -622 89 -721z m7353 349 c0 -188 -165 -174 -239 20 -106 276 -70 374 89 242 82 -68 150 -186 150 -262z m-8219 -1335 c30 -405 -166 -803 -396 -803 -47 0 -85 343 -85 762 l0 762 225 -148 c163 -108 234 -266 256 -573z m8519 297 c0 -55 -101 -97 -225 -93 -215 7 -216 11 -25 93 110 47 211 89 225 93 14 4 25 -38 25 -93z m-10929 -364 c25 -75 -209 -140 -672 -186 -756 -76 -897 -39 -712 184 143 173 1327 174 1384 2z m10529 -86 c0 -27 -90 -140 -200 -250 -110 -110 -200 -287 -200 -394 0 -223 -157 -357 -247 -211 -90 146 328 905 499 905 81 0 148 -22 148 -50z m6966 -475 c-28 -69 -50 -12 -50 125 0 138 22 194 50 125 28 -69 28 -181 0 -250z m-14578 -692 c7 -202 -15 -438 -49 -525 -72 -189 -434 -207 -671 -33 -223 165 -90 657 301 1109 l281 324 63 -254 c35 -140 69 -419 75 -621z m-3110 41 c125 -426 251 -841 280 -924 43 -126 -102 -152 -901 -162 l-952 -12 183 262 c101 144 275 530 387 857 186 543 352 727 675 747 55 4 203 -342 328 -768z m14454 710 c37 -36 16 -126 -45 -200 -155 -186 -1147 -181 -1219 6 -30 77 -27 167 6 200 81 82 1176 76 1258 -6z m-9040 -263 c110 -290 -76 -1293 -231 -1241 -61 20 -110 78 -109 128 7 304 166 1342 205 1342 27 0 87 -103 135 -229z m10253 142 c-52 -48 -219 -116 -370 -152 -208 -49 -275 -28 -275 87 0 109 106 152 370 152 216 0 330 -36 275 -87z m-6257 -103 c161 -103 65 -310 -144 -310 -79 0 -144 90 -144 200 0 217 74 245 288 110z m2363 -411 c281 -310 77 -373 -227 -69 -197 198 -227 270 -112 270 86 0 239 -90 339 -201z m3888 -506 c42 -261 166 -485 367 -664 247 -221 298 -336 274 -625 -26 -303 -70 -359 -305 -386 -224 -25 -275 8 -275 182 0 297 -180 608 -515 890 -371 312 -405 872 -60 1000 335 125 445 40 514 -397z m-4539 307 c0 -55 -45 -100 -100 -100 -55 0 -100 45 -100 100 0 55 45 100 100 100 55 0 100 -45 100 -100z m3256 -150 c6 -110 17 -286 27 -390 9 -105 191 -353 404 -550 212 -198 418 -461 456 -585 l70 -225 -1345 0 c-1162 0 -1377 25 -1575 186 l-229 185 429 434 c237 239 545 608 685 820 235 354 287 383 662 355 327 -24 409 -70 416 -230z m-5347 -1066 c-254 -94 -509 -10 -509 167 0 103 75 107 359 20 319 -98 336 -118 150 -187z m1741 216 c34 -55 17 -100 -38 -100 -55 0 -128 45 -162 100 -34 55 -17 100 38 100 55 0 128 -45 162 -100z m-10350 -361 c415 -61 900 -257 900 -363 0 -42 -281 -79 -625 -82 -344 -4 -955 -39 -1359 -80 -865 -87 -1637 51 -1593 284 22 111 229 172 769 226 406 40 763 97 791 126 29 29 213 27 410 -4 196 -30 515 -79 707 -107z m3300 -78 c0 -22 -70 -66 -155 -99 -89 -34 -129 -18 -94 39 58 95 249 141 249 60z m1057 -204 c79 -78 143 -176 143 -217 0 -41 75 -157 166 -258 91 -101 147 -203 123 -227 -110 -110 -1211 -81 -1282 33 -48 78 -184 101 -366 62 -280 -60 -273 -46 159 344 470 423 812 508 1057 263z m-2882 -562 c179 -76 325 -170 325 -207 0 -38 -461 -94 -1025 -126 -2905 -162 -3683 -137 -3436 110 90 90 2116 264 2936 253 428 -6 725 31 725 91 0 55 34 82 75 60 41 -23 221 -104 400 -181z m1075 -20 c-18 -240 -350 -384 -350 -152 0 140 190 377 303 377 35 0 56 -101 47 -225z m3879 74 c177 -15 459 -32 627 -38 168 -6 389 -72 491 -147 162 -118 56 -137 -802 -146 -780 -8 -1025 23 -1166 151 -276 250 -214 347 175 274 195 -37 499 -79 675 -94z m8530 -232 c232 -135 320 -125 -1509 -163 -825 -17 -1854 -64 -2286 -103 -432 -40 -1076 -41 -1430 -3 -555 60 -627 90 -521 218 99 119 283 137 930 87 469 -35 868 -20 952 36 201 135 3617 71 3864 -72z m-6509 -217 c161 -69 128 -87 -169 -93 -203 -4 -397 38 -431 93 -75 121 319 121 600 0z"/>
<path d="M9073 49379 c-56 -158 98 -479 231 -479 147 0 114 360 -44 492 -108 89 -151 86 -187 -13z"/>
<path d="M5217 40734 c20 -101 103 -184 184 -184 215 0 184 291 -35 333 -134 25 -174 -15 -149 -149z"/>
<path d="M13100 48204 c0 -60 136 -136 302 -169 166 -34 324 -97 352 -141 82 -133 -163 -225 -283 -105 -61 61 -238 111 -394 111 l-282 0 158 -305 c215 -417 536 -530 804 -283 114 104 241 157 281 117 40 -40 43 5 6 100 -50 131 -27 158 95 111 123 -47 161 1 161 202 0 292 -41 315 -725 407 -314 42 -475 26 -475 -45z"/>
<path d="M13967 32433 c-37 -36 -68 -160 -68 -275 -1 -240 -419 -1567 -947 -3008 -540 -1473 -825 -2327 -1001 -3000 -317 -1215 -670 -4750 -474 -4750 103 0 158 342 329 2050 210 2099 280 2451 787 3950 349 1030 399 1163 639 1720 88 203 232 653 320 1000 89 346 244 810 345 1030 317 690 365 1579 70 1283z"/>
<path d="M14656 25455 c-88 -302 -188 -696 -222 -877 -34 -180 -110 -418 -168 -528 -59 -110 -119 -274 -134 -365 -15 -90 -202 -540 -414 -1000 -546 -1178 -618 -1366 -618 -1610 0 -325 121 -126 593 975 772 1799 830 1962 1103 3111 207 866 94 1101 -140 294z"/>
<path d="M9343 21535 c128 -328 253 -1866 206 -2535 -57 -806 -144 -4597 -176 -7625 -15 -1483 12 -2263 77 -2242 55 18 109 390 119 825 11 436 46 1557 78 2492 115 3305 160 8604 75 8900 -48 166 -168 316 -269 335 -142 27 -166 -6 -110 -150z"/>
<path d="M11662 20575 c-313 -895 -432 -1974 -290 -2625 77 -355 120 -400 377 -400 242 0 327 73 520 450 126 248 346 878 488 1400 374 1378 378 1400 255 1400 -62 0 -112 -55 -112 -123 0 -68 -87 -349 -193 -625 -107 -276 -292 -827 -412 -1223 -226 -749 -430 -1127 -546 -1012 -146 147 -257 959 -196 1433 54 420 290 1198 599 1975 46 115 23 175 -66 175 -80 0 -254 -339 -424 -825z"/>
<path d="M11408 21158 c-4 -105 19 -164 52 -131 34 33 37 120 8 192 -32 80 -55 56 -60 -61z"/>
<path d="M11307 20475 c5 -301 29 -369 83 -232 70 181 33 657 -52 657 -21 0 -35 -191 -31 -425z"/>
<path d="M8713 19952 c0 -696 -121 -1184 -420 -1694 -154 -262 -403 -1115 -635 -2177 -32 -148 -20 -292 26 -321 47 -29 142 266 212 657 77 431 274 988 504 1421 661 1250 909 2661 481 2742 -144 28 -168 -63 -168 -628z"/>
<path d="M10900 18250 c0 -82 45 -150 100 -150 55 0 100 68 100 150 0 83 -45 150 -100 150 -55 0 -100 -67 -100 -150z"/>
<path d="M8769 16036 c-108 -108 -81 -536 34 -536 57 0 128 65 159 144 65 171 -92 492 -193 392z"/>
<path d="M10363 10349 c-73 -191 -87 -1506 -15 -1435 98 99 240 1438 161 1517 -45 45 -111 8 -146 -82z"/>
<path d="M20766 51134 c-37 -751 -66 -2035 -66 -2853 0 -1248 25 -1497 154 -1546 85 -33 169 -43 187 -22 18 20 62 1331 98 2912 62 2760 57 2875 -122 2875 -169 0 -192 -124 -251 -1366z"/>
<path d="M22997 51491 c-171 -555 -288 -1070 -260 -1144 29 -74 -36 -569 -143 -1100 -107 -532 -194 -1119 -194 -1307 0 -187 -37 -340 -83 -340 -148 0 -511 452 -625 779 -161 463 -436 434 -360 -37 39 -242 240 -566 620 -998 644 -734 918 -941 1551 -1176 485 -180 797 -567 797 -989 0 -207 535 -1079 663 -1079 25 0 36 1620 24 3600 l-21 3600 -240 0 c-131 0 -321 44 -421 97 -207 111 -605 742 -605 959 0 79 -88 144 -196 144 -160 0 -251 -180 -507 -1009z m903 -2653 c0 -1231 -34 -2237 -75 -2236 -338 6 -362 165 -345 2346 8 1190 43 2208 77 2263 39 63 112 56 202 -18 114 -95 141 -551 141 -2355z m636 1914 c86 -226 51 -4548 -37 -4603 -43 -26 -106 26 -141 116 -88 229 -189 4096 -115 4392 68 273 207 318 293 95z m-1416 -2377 c-22 -701 -81 -1275 -130 -1275 -50 0 -97 124 -106 275 -8 151 -24 410 -34 575 -28 450 200 1855 283 1739 15 -21 10 -613 -13 -1314z"/>
<path d="M23002 37204 c-58 -108 -172 -547 -255 -975 -281 -1459 -379 -1879 -463 -1974 -129 -145 -100 -455 42 -455 71 0 199 275 291 625 226 861 686 2808 684 2900 -2 149 -196 71 -299 -121z"/>
<path d="M23357 36283 c-24 -73 -95 -470 -158 -883 -63 -412 -183 -1034 -267 -1382 -152 -632 -125 -851 81 -645 109 109 601 2250 625 2717 13 260 -210 412 -281 193z"/>
<path d="M23797 35044 c-107 -251 -240 -735 -295 -1075 -55 -340 -143 -768 -196 -950 -99 -343 -51 -619 107 -619 141 0 252 382 325 1123 37 370 156 880 265 1133 108 253 197 547 197 652 0 338 -201 206 -403 -264z"/>
<path d="M24053 33625 c-90 -426 -228 -1052 -308 -1391 -178 -756 -178 -734 3 -734 166 0 166 2 495 1600 130 633 216 1184 191 1225 -124 204 -231 7 -381 -700z"/>
<path d="M24540 33125 c-96 -415 -342 -1228 -500 -1652 -179 -482 -177 -673 6 -673 86 0 185 155 240 375 149 600 191 742 408 1366 114 324 206 651 206 725 0 251 -296 135 -360 -141z"/>
<path d="M23104 9307 c-57 -107 -104 -257 -104 -335 0 -78 -70 -281 -155 -453 -184 -367 -163 -1331 30 -1394 90 -30 125 120 125 546 0 389 67 719 200 979 212 415 265 850 104 850 -54 0 -144 -87 -200 -193z"/>
<path d="M23603 8654 c-148 -178 -512 -1558 -442 -1672 116 -187 214 -52 326 451 66 293 206 693 311 889 235 439 94 680 -195 332z"/>
<path d="M24062 7975 c-78 -124 -172 -382 -208 -575 -37 -192 -115 -476 -175 -631 -75 -196 -76 -312 -3 -385 153 -153 414 289 520 880 48 267 119 587 157 711 44 139 28 225 -39 225 -60 0 -174 -101 -252 -225z"/>
<path d="M6951 4002 c-37 -60 -795 -90 -1952 -75 -2207 27 -2249 12 -2213 -798 49 -1110 37 -1515 -64 -2167 -58 -378 -82 -750 -53 -825 36 -95 223 -134 617 -127 502 9 527 19 230 90 -184 43 -380 124 -436 180 -117 117 -56 862 125 1540 108 400 103 533 -34 900 -88 236 -137 543 -108 682 47 228 91 249 469 219 670 -54 697 -75 521 -414 -84 -163 -153 -389 -153 -502 0 -237 251 -278 336 -55 59 154 564 215 564 69 0 -45 -139 -214 -309 -375 -365 -348 -583 -740 -515 -931 82 -230 855 -924 1196 -1073 510 -222 1001 -180 1269 110 128 137 302 250 388 250 86 0 300 251 475 558 176 306 382 581 458 610 141 55 189 348 75 462 -35 35 -147 18 -249 -36 -134 -72 -250 -59 -412 47 -193 125 -307 127 -786 15 -327 -76 -623 -96 -712 -46 -228 128 -557 -264 -410 -491 84 -130 229 -162 623 -141 612 34 723 -116 475 -637 -213 -446 -527 -451 -921 -16 -615 678 -690 1046 -282 1368 192 150 409 207 794 207 504 0 547 21 886 435 l357 436 1725 71 c4039 166 5975 177 5975 34 0 -75 56 -192 125 -261 87 -87 125 -519 125 -1428 0 -1252 9 -1311 238 -1497 377 -306 512 -103 512 771 0 672 25 764 292 1062 344 385 442 344 306 -129 -54 -188 -98 -548 -98 -800 0 -368 53 -508 276 -721 465 -445 1008 -573 2435 -573 l1285 0 59 275 c32 151 125 399 207 550 82 151 124 281 94 288 -31 6 -112 18 -181 25 -207 20 -273 858 -107 1362 201 610 215 1230 33 1449 -139 167 -362 174 -3550 115 -1870 -36 -4436 -93 -5701 -127 -2778 -76 -3869 -57 -3995 68 -122 122 -227 121 -304 -3z m13190 -403 c66 -66 56 -327 -29 -774 -71 -371 -128 -754 -128 -850 1 -96 8 -428 16 -738 8 -309 -26 -603 -75 -652 -49 -49 -389 -117 -755 -151 -502 -47 -772 -21 -1093 104 -627 245 -811 558 -842 1430 -29 810 -133 1086 -445 1185 -156 50 -297 -18 -550 -263 -446 -432 -447 -170 -1 357 335 396 337 397 1223 452 1186 74 2556 23 2679 -100z m-4191 1 c-34 -55 -127 -100 -206 -100 -79 0 -144 45 -144 100 0 55 93 100 206 100 113 0 178 -45 144 -100z m-9711 -64 c447 -61 460 -72 298 -250 -203 -225 -493 -236 -968 -38 -744 311 -442 440 670 288z"/>
<path d="M18328 2408 c-245 -311 -212 -408 140 -408 129 0 322 -55 429 -121 284 -177 353 -34 203 421 -161 488 -441 527 -772 108z"/>
<path d="M11947 3260 c-163 -119 -174 -175 -71 -375 142 -278 103 -1646 -51 -1800 -57 -57 -187 -88 -289 -68 -163 31 -189 151 -211 984 -14 522 -46 1005 -72 1074 -57 152 -493 164 -760 21 -215 -115 -263 -396 -68 -396 94 0 117 -257 91 -1044 l-34 -1043 402 -109 c317 -85 493 -76 834 43 540 188 582 188 582 3 0 -221 235 -182 481 80 198 211 204 248 64 447 -177 252 -199 565 -93 1295 118 821 -286 1268 -805 888z"/>
<path d="M8995 3144 c-79 -95 -216 -135 -349 -102 -412 103 -536 -194 -554 -1332 -11 -763 19 -1055 116 -1115 73 -45 170 -58 217 -30 46 29 312 -2 590 -69 486 -116 516 -111 761 134 l255 256 -130 932 c-181 1300 -518 1793 -906 1326z m206 -1019 c1 -371 29 -776 62 -900 51 -191 21 -225 -201 -225 -262 0 -262 1 -262 833 0 851 32 967 267 967 97 0 133 -180 134 -675z"/>
<path d="M14100 3210 c-82 -43 -285 -143 -450 -222 l-300 -145 -28 -1169 -28 -1169 278 -66 c153 -37 334 -110 402 -164 223 -176 426 -1 426 368 0 241 -59 382 -190 452 -161 86 -190 217 -190 853 0 414 37 752 82 752 45 0 168 -119 275 -265 333 -459 566 -24 325 608 -97 258 -313 317 -602 167z"/>
<path d="M24675 2149 c-324 -501 -363 -1039 -92 -1284 100 -91 235 -165 300 -165 151 0 151 326 0 477 -89 89 -87 207 9 498 69 210 110 498 92 640 -33 249 -44 243 -309 -166z"/>
<path d="M23350 300 l-287 -300 560 0 c350 0 582 47 619 125 46 100 70 100 116 0 32 -69 186 -125 341 -125 213 0 277 44 258 175 -34 240 -426 422 -913 424 -322 1 -466 -61 -694 -299z m650 -100 c0 -55 -45 -100 -100 -100 -55 0 -100 45 -100 100 0 55 45 100 100 100 55 0 100 -45 100 -100z"/>
<path d="M7468 25 c1001 -16 2666 -16 3700 0 1035 16 217 30 -1818 30 -2035 0 -2882 -14 -1882 -30z"/>
</g>
</svg>