<svg xmlns="http://www.w3.org/2000/svg" version="1.0" width="250" height="525" viewBox="0 0 250.000000 525.000000" preserveAspectRatio="xMidYMid meet">
<metadata>
Created by potrace 1.10, written by Peter Selinger 2001-2011
</metadata>
<g transform="translate(0.000000,525.000000) scale(0.010000,-0.010000)" fill="#555555" stroke="none">
<path d="M455 52257 c234 -357 1145 -1031 1623 -1199 422 -149 1076 -114 1185 63 36 58 -118 68 -391 27 -528 -79 -1174 164 -1564 588 -134 145 -297 264 -364 264 -67 0 -195 113 -285 250 -90 138 -209 250 -264 250 -55 0 -28 -110 60 -243z"/>
<path d="M1550 52152 c220 -189 344 -346 275 -348 -288 -9 -91 -192 369 -342 618 -203 845 -202 472 0 -351 190 -293 281 86 137 320 -121 774 43 1094 396 102 113 240 205 307 205 67 0 179 67 247 150 214 258 -68 172 -422 -129 -180 -153 -451 -332 -602 -398 -414 -179 -1219 6 -1641 377 -188 165 -397 299 -463 299 -67 -1 58 -157 278 -347z"/>
<path d="M2550 52396 c262 -108 866 -115 1028 -12 73 47 -163 84 -550 88 -444 4 -609 -22 -478 -76z"/>
<path d="M5140 52385 c-39 -64 -88 -233 -108 -375 -85 -593 -104 -683 -156 -770 -30 -49 -84 -379 -119 -732 -100 -1002 -243 -1513 -577 -2056 -331 -540 -549 -735 -1026 -919 -465 -180 -654 -160 -654 67 0 110 48 200 107 200 152 0 793 701 793 867 0 278 -302 252 -653 -56 -195 -171 -434 -311 -531 -311 -231 0 -1004 769 -1081 1076 -33 131 -11 288 50 349 68 68 75 152 18 221 -143 173 536 117 817 -67 131 -86 326 -174 434 -197 181 -37 179 -45 -27 -101 -131 -36 -372 14 -581 121 -215 110 -343 136 -321 65 20 -64 190 -195 376 -289 321 -163 355 -163 635 0 386 225 372 359 -46 428 -187 32 -445 114 -573 183 -128 70 -292 104 -364 76 -136 -52 -627 394 -535 486 28 29 309 -66 624 -210 1145 -524 1633 -438 2399 425 298 336 364 469 275 558 -88 88 -116 80 -116 -33 0 -194 -778 -954 -1097 -1071 -293 -107 -965 49 -1553 362 -571 305 -674 401 -1136 1061 l-414 590 0 -470 c0 -433 231 -1285 547 -2013 663 -1531 775 -1664 1413 -1684 413 -13 543 29 791 259 434 402 608 347 299 -95 -221 -316 -798 -642 -1014 -573 -124 39 -86 -31 114 -209 l300 -268 -340 60 c-380 68 -1177 672 -1317 998 -50 117 -249 617 -441 1112 l-350 900 44 -2450 c67 -3736 432 -7710 866 -9437 203 -805 181 -1154 -36 -579 -67 176 -172 301 -234 277 -212 -81 -621 2509 -507 3214 32 199 10 325 -56 325 -74 0 -90 -392 -50 -1275 84 -1863 609 -4181 1295 -5725 239 -539 237 -536 361 -459 59 36 -61 435 -293 977 -215 504 -461 1190 -547 1524 -86 334 -195 754 -241 933 -120 459 64 304 208 -175 64 -215 182 -404 262 -420 125 -26 426 -756 1228 -2980 265 -737 297 -800 400 -800 164 0 8 659 -306 1295 -491 993 -1065 2857 -1447 4705 -293 1414 -578 5015 -579 7326 -1 1104 57 1414 164 877 92 -459 255 -363 191 112 -36 267 -19 393 46 353 55 -34 128 -295 162 -579 33 -284 130 -593 215 -687 115 -127 191 -668 302 -2161 256 -3438 360 -4016 1225 -6791 85 -275 435 -1062 776 -1750 341 -687 701 -1465 800 -1728 98 -263 217 -502 264 -531 47 -29 85 -140 85 -247 0 -162 -71 -194 -437 -194 -591 0 -1199 -228 -1879 -704 -311 -218 -595 -396 -630 -396 -101 0 -532 1031 -612 1462 -39 213 -148 487 -243 609 -94 121 -264 526 -376 900 -457 1513 -422 1446 -384 727 22 -417 132 -885 306 -1300 149 -356 394 -999 544 -1427 151 -429 343 -860 428 -960 141 -165 132 -210 -108 -533 -145 -194 -420 -674 -611 -1067 -215 -443 -394 -695 -472 -665 -95 36 -126 -163 -126 -813 l0 -860 208 264 c344 438 417 185 85 -297 -169 -246 -291 -497 -270 -559 20 -61 207 144 414 456 376 567 618 666 503 207 -68 -268 126 -349 224 -94 65 170 336 206 336 45 0 -163 -644 -1118 -933 -1385 -214 -196 -288 -217 -411 -115 -129 107 -146 58 -128 -366 21 -473 27 -483 188 -284 92 113 201 171 243 129 42 -42 -52 -211 -210 -375 -158 -164 -241 -299 -185 -299 56 0 206 111 333 247 319 340 456 211 189 -179 -120 -175 -157 -262 -82 -193 186 171 396 157 396 -25 0 -82 -45 -150 -100 -150 -148 0 -800 -719 -800 -882 0 -189 376 56 860 561 351 366 355 367 296 96 -52 -237 -812 -1063 -1067 -1158 -49 -19 -89 -550 -89 -1181 0 -770 34 -1127 104 -1083 57 35 74 159 37 276 -62 196 -55 199 96 48 213 -213 206 -341 -37 -650 -110 -140 -200 -322 -200 -406 0 -131 25 -129 183 14 390 353 441 98 57 -286 -213 -213 -249 -320 -197 -580 82 -410 94 -1765 17 -1843 -33 -33 -60 -121 -60 -196 0 -108 44 -113 209 -25 309 165 332 55 46 -216 -138 -132 -252 -304 -253 -384 -1 -86 162 15 396 243 219 214 427 360 462 325 85 -85 -353 -623 -635 -781 -124 -69 -225 -189 -225 -266 0 -180 492 163 1064 743 395 401 430 416 726 304 172 -65 295 -164 273 -220 -21 -57 80 -230 224 -386 261 -281 262 -284 63 -453 -813 -693 -1705 -2452 -1632 -3219 40 -424 -18 -486 -223 -240 -70 86 -211 200 -312 254 -175 94 -183 5 -181 -1930 1 -1319 34 -1976 96 -1879 83 131 116 128 268 -23 139 -139 154 -229 74 -450 -60 -166 -168 -271 -270 -263 -242 20 -216 -336 30 -414 267 -85 267 -349 0 -279 -136 35 -200 3 -200 -101 0 -100 137 -176 400 -220 235 -40 375 -110 338 -170 -35 -56 -212 -78 -394 -48 l-330 53 -2 -682 c-2 -651 8 -680 218 -635 l220 47 -225 -198 c-306 -271 -327 -1155 -32 -1313 281 -150 771 -128 1118 52 244 126 367 134 643 43 188 -62 388 -85 444 -50 150 92 126 3 -100 -380 -232 -394 -389 -1466 -305 -2092 42 -316 116 -453 283 -526 149 -65 205 -152 163 -250 -36 -83 -87 -252 -114 -376 -33 -154 -121 -225 -278 -225 -413 0 -552 -116 -852 -710 -162 -321 -295 -608 -295 -637 0 -29 293 -53 650 -53 583 0 650 21 650 200 0 110 49 200 109 200 61 0 133 -90 162 -200 72 -275 404 -257 459 25 l45 225 74 -225 c69 -210 132 -225 919 -225 646 0 827 29 773 125 -56 100 -43 100 64 0 74 -69 284 -125 465 -125 197 0 331 51 332 125 1 97 20 96 83 -4 59 -93 315 -121 906 -100 l824 29 -432 650 c-265 398 -557 708 -754 800 -320 149 -321 153 -250 700 128 990 74 1815 -159 2429 -411 1082 -297 1231 694 907 371 -121 527 -232 599 -425 53 -144 186 -434 295 -646 239 -462 491 -1482 485 -1965 -3 -318 -22 -294 -197 250 -106 330 -194 669 -195 753 -2 224 -559 1260 -840 1563 -259 279 -561 267 -561 -23 0 -91 135 -335 300 -543 356 -449 698 -1169 690 -1450 -5 -147 -44 -113 -148 125 -132 301 -342 445 -342 233 0 -242 410 -1008 540 -1008 80 0 170 -79 198 -175 60 -205 362 -1978 362 -2125 0 -55 96 -100 213 -100 196 0 208 37 150 475 -162 1217 -175 1475 -67 1368 60 -59 160 -498 224 -975 124 -921 329 -1234 226 -343 -245 2110 -654 3949 -968 4346 -170 215 2 318 347 206 664 -214 775 -276 775 -433 0 -236 245 -115 282 139 39 263 218 291 218 34 0 -101 30 -214 67 -251 37 -37 79 -294 93 -571 14 -277 93 -783 176 -1124 83 -342 207 -1127 275 -1746 68 -619 167 -1125 220 -1125 53 0 157 79 230 175 126 167 133 167 136 0 2 -96 54 -175 116 -175 80 0 91 184 39 625 -124 1060 -210 2283 -163 2330 24 25 197 45 383 45 186 0 474 70 640 156 228 118 336 129 438 44 201 -167 332 -972 262 -1600 -63 -556 62 -1600 191 -1600 39 0 57 588 41 1306 -26 1178 -13 1303 138 1272 180 -36 181 -65 59 -1342 -71 -739 -7 -1236 158 -1236 56 0 73 316 42 775 -54 798 56 1209 349 1305 106 35 123 -11 69 -192 -98 -325 -261 -1820 -204 -1876 89 -90 145 62 200 546 111 982 153 1142 300 1142 177 0 177 34 -3 -660 -146 -557 -118 -1040 59 -1040 49 0 89 264 89 588 0 384 49 628 141 705 169 140 288 -2 198 -235 -81 -211 48 -1058 161 -1058 49 0 102 191 119 425 37 505 231 484 231 -25 l0 -350 983 -29 c660 -19 962 6 919 75 -35 57 -1 104 75 104 159 0 514 367 605 625 39 110 165 175 343 175 154 0 377 68 496 151 195 137 219 134 261 -25 26 -97 102 -390 170 -651 108 -415 157 -475 387 -475 177 0 296 74 363 225 65 145 168 213 294 191 106 -19 252 46 324 144 71 98 130 125 130 59 0 -200 315 -132 371 80 62 236 229 168 229 -94 0 -204 -224 -328 -442 -244 -82 31 -190 -34 -254 -153 -105 -196 -86 -208 342 -208 287 0 454 44 454 120 0 93 27 93 120 0 66 -66 239 -120 385 -120 259 0 265 13 222 525 -36 440 -212 1950 -377 3242 -22 174 -110 586 -195 914 -85 329 -155 712 -155 853 0 140 -46 283 -103 318 -56 35 -102 273 -101 531 3 1280 -122 3279 -211 3367 -68 67 -94 1 -78 -200 45 -580 -8 -1550 -84 -1550 -152 0 -894 1662 -789 1767 84 84 376 -169 313 -271 -28 -45 -7 -109 46 -142 125 -77 337 316 248 460 -37 61 -126 521 -197 1023 l-129 913 55 -925 c31 -509 24 -925 -15 -925 -192 0 -697 667 -927 1224 -220 533 -255 760 -239 1526 19 925 165 1914 318 2161 70 113 126 99 302 -76 215 -215 215 -216 45 -1144 -209 -1137 -212 -2064 -8 -2507 153 -333 153 -332 87 266 -90 818 -61 1763 64 2091 57 150 103 382 103 516 0 250 69 287 341 182 120 -46 147 -159 110 -475 l-48 -414 113 325 c76 219 177 325 311 325 182 0 192 -47 133 -575 -98 -870 -192 -3483 -122 -3417 33 31 84 613 112 1293 58 1421 222 2499 379 2499 60 0 365 -53 677 -117 l568 -118 55 -657 c30 -362 33 -1355 8 -2208 -52 -1741 17 -2163 348 -2126 211 23 215 -1 215 -1435 0 -1480 310 -3713 641 -4619 74 -203 280 -831 458 -1395 178 -564 364 -1025 412 -1025 128 0 112 192 -102 1227 -106 508 -218 1276 -250 1706 -32 431 -123 1039 -204 1350 -174 677 -250 2180 -262 5203 -7 1921 23 2406 217 3450 195 1048 266 1254 517 1505 342 344 386 450 822 1975 291 1016 319 1208 217 1500 -65 184 -155 392 -200 462 -311 486 -253 1058 152 1490 195 208 199 260 81 1050 -98 664 -98 974 3 1532 140 780 261 7827 150 8717 -110 882 -266 628 -179 -292 142 -1515 76 -6004 -112 -7575 -95 -797 -208 -1486 -252 -1530 -43 -43 -197 77 -343 268 -216 283 -236 353 -109 380 131 27 162 262 191 1432 19 770 103 2030 186 2800 169 1566 215 3587 76 3350 -48 -82 -111 -825 -140 -1650 -50 -1409 -269 -4141 -427 -5331 -80 -603 -207 -574 -354 79 -67 300 -59 522 30 768 103 283 101 360 -10 429 -92 56 -116 191 -76 419 33 185 107 899 166 1586 58 688 132 1385 164 1550 38 197 24 266 -40 200 -55 -55 -176 -730 -269 -1500 -94 -770 -212 -1443 -262 -1495 -147 -152 -102 2203 60 3095 280 1554 134 2893 -418 3836 -271 463 -1763 2016 -2121 2207 l-212 113 268 405 c297 449 231 585 -287 587 -235 2 -582 221 -582 369 0 156 703 1009 1450 1759 l300 301 450 -526 c247 -288 823 -913 1278 -1388 456 -475 996 -1149 1200 -1498 336 -573 375 -608 404 -368 45 365 -630 1373 -1326 1980 -301 263 -822 814 -1158 1225 -685 838 -697 953 -153 1430 184 162 412 412 506 556 95 144 207 262 251 262 43 0 475 -799 959 -1775 698 -1407 888 -1719 916 -1507 19 148 -39 411 -129 586 -191 370 -458 1219 -401 1276 21 21 152 -201 290 -495 l251 -535 6 355 c3 195 -32 398 -78 450 -47 52 -189 365 -316 695 -127 330 -341 838 -475 1130 -161 349 -223 616 -181 782 71 284 289 271 338 -20 18 -106 176 -574 350 -1042 229 -613 327 -783 352 -611 32 229 -71 540 -494 1489 -199 448 -248 822 -107 822 46 0 143 113 217 250 74 138 194 250 267 250 226 0 173 827 -62 974 -234 146 -356 10 -223 -247 50 -97 71 -233 46 -302 -24 -69 4 -125 64 -125 201 0 110 -165 -388 -709 -291 -316 -498 -477 -500 -386 -2 85 52 215 121 289 71 77 -6 60 -180 -39 -168 -96 -358 -294 -422 -440 -65 -146 -431 -592 -813 -991 -736 -767 -817 -990 -122 -336 226 214 412 357 412 319 0 -135 -2058 -2470 -2959 -3357 -503 -495 -1242 -1282 -1642 -1750 -400 -467 -980 -1111 -1288 -1430 -309 -319 -854 -884 -1211 -1254 -357 -371 -943 -1018 -1300 -1439 -357 -420 -727 -792 -821 -826 -94 -34 -375 -363 -624 -731 -691 -1020 -740 -1075 -865 -950 -78 78 -78 165 1 313 148 277 137 365 -28 228 -187 -156 -463 -33 -463 205 0 289 255 729 584 1005 160 135 349 354 420 487 71 133 470 619 888 1080 1315 1453 1407 1560 1408 1637 0 41 56 75 125 76 69 0 238 167 375 372 138 204 948 1077 1800 1941 853 863 1978 2027 2500 2585 523 559 1175 1226 1450 1483 1418 1326 2270 2247 2596 2804 61 105 27 119 -154 62 -225 -72 -227 -67 -75 164 87 131 455 553 818 938 639 677 795 950 545 950 -93 0 -93 27 0 120 66 66 120 275 120 465 0 340 -4 343 -200 165 -110 -100 -200 -146 -200 -103 0 43 -62 26 -137 -36 -163 -135 -240 -56 -551 560 -265 525 -265 514 49 633 226 86 243 121 127 261 -120 144 -101 154 187 91 176 -39 412 -42 523 -7 194 62 202 145 202 2091 0 1115 -28 2055 -63 2089 -34 35 -224 -4 -421 -87 -284 -118 -458 -128 -841 -46 -764 164 -1354 704 -769 704 128 0 194 -69 194 -203 0 -197 8 -198 325 -27 322 172 322 175 75 211 -137 20 -293 77 -345 127 -52 51 -176 92 -275 92 -216 0 -233 131 -38 293 111 93 161 83 234 -46 60 -108 191 -152 383 -130 344 39 389 219 66 265 -282 40 -291 183 -18 270 129 41 252 11 325 -80 183 -227 748 -35 828 281 34 136 124 247 201 247 76 0 139 45 139 100 0 60 -400 100 -1000 100 -712 0 -1000 -35 -1000 -120 0 -246 -645 -1180 -815 -1180 -275 0 -336 -217 -112 -398 152 -123 181 -210 111 -334 -102 -182 56 -246 166 -68 34 55 127 100 207 100 121 0 124 -37 19 -225 -69 -124 -189 -304 -266 -400 -125 -155 -119 -175 55 -175 107 0 238 41 290 91 52 50 273 139 491 197 300 82 414 78 473 -15 122 -194 -201 -386 -420 -249 -145 90 -239 60 -501 -161 -178 -149 -371 -255 -429 -236 -93 31 -252 550 -419 1373 -29 138 -105 485 -170 771 -107 471 -99 543 76 750 l194 229 -208 -175 c-273 -230 -377 -221 -313 25 42 161 3 200 -199 200 -200 0 -237 -36 -181 -175 39 -96 154 -558 256 -1025 496 -2270 1205 -4454 1868 -5750 832 -1628 820 -1521 239 -2147 -270 -290 -532 -502 -583 -471 -51 32 -217 499 -370 1038 -152 539 -338 1160 -412 1380 -177 527 -564 1858 -901 3100 -283 1045 -856 3032 -1060 3675 -66 206 -180 375 -253 375 -73 0 -133 -14 -133 -31 0 -18 205 -659 455 -1425 250 -767 634 -2096 852 -2954 219 -858 492 -1826 606 -2150 187 -529 828 -2678 953 -3193 30 -123 -28 -272 -146 -379 -187 -169 -197 -168 -248 28 -35 134 -5 204 87 204 205 0 174 221 -121 872 -145 318 -365 893 -491 1278 -125 385 -343 1011 -484 1390 -141 380 -236 722 -212 762 25 39 -26 426 -111 860 -86 433 -166 843 -178 910 -13 67 -61 157 -107 200 -46 43 -54 -78 -17 -269 48 -251 36 -317 -44 -237 -155 155 -317 819 -303 1244 6 198 -74 648 -178 1000 -104 352 -246 865 -315 1140 -115 458 -316 750 -515 750 -103 0 -22 -448 288 -1579 139 -512 229 -955 198 -985 -116 -117 -264 85 -323 443 -35 204 -180 765 -322 1246 -244 820 -277 875 -530 875 -196 0 -287 -62 -331 -225 -176 -655 75 -1745 504 -2193 l264 -275 -272 -104 c-150 -56 -306 -103 -347 -103 -41 0 -198 -129 -349 -287 -287 -299 -598 -1408 -500 -1783 34 -131 -72 -284 -357 -513 l-406 -326 0 -1196 c0 -1153 -111 -1538 -265 -920 -180 721 -1064 2208 -1472 2476 -173 113 -352 141 -598 95 -344 -64 -354 -57 -461 340 -153 566 -331 721 -704 614 -367 -105 -375 -38 -41 350 198 230 247 373 207 616 -58 361 193 683 422 541 93 -57 100 -103 23 -150 -146 -90 -142 -257 5 -257 64 0 331 137 592 305 397 255 487 370 542 695 36 213 132 444 214 511 335 278 515 1034 373 1564 -59 220 -88 225 -1424 209 -749 -9 -1206 -35 -1013 -57 445 -53 779 -364 861 -801 57 -301 20 -387 -309 -724 -205 -210 -492 -405 -638 -433 -145 -28 -376 -80 -514 -117 -222 -59 -231 -52 -80 66 93 72 419 303 725 513 347 238 555 453 555 572 0 261 -536 637 -946 663 -300 19 -355 -19 -502 -347 -316 -706 -362 -770 -705 -994 -426 -278 -1613 -331 -1711 -75 -79 207 -291 188 -748 -69 -284 -160 -420 -189 -500 -109 -169 169 3 352 267 286 128 -32 261 -14 295 42 84 136 912 127 1303 -15 174 -63 435 -85 580 -48 414 104 967 643 967 942 0 142 98 362 217 490 l218 231 -273 0 c-220 0 -303 -72 -432 -375 -87 -206 -160 -435 -161 -509 -3 -158 -447 -471 -539 -380 -35 35 -12 64 50 64 148 0 291 277 406 787 l93 413 -379 0 c-351 0 -382 -24 -442 -343 -126 -671 -295 -769 -1384 -795 -831 -19 -995 -51 -1120 -217 -81 -107 -149 -227 -151 -266 -2 -40 -98 -123 -215 -185 -172 -92 -295 -70 -661 118 -511 262 -609 419 -413 655 123 150 116 153 -76 33 -208 -130 -538 -84 -538 75 0 45 143 135 318 201 176 66 291 148 257 183 -35 34 -191 -2 -348 -81 -157 -78 -340 -124 -406 -102 -239 80 -113 218 304 334 234 64 368 138 298 163 -70 25 -268 -4 -440 -64 -389 -136 -583 -139 -583 -9 0 55 155 100 344 100 189 0 372 45 406 100 39 62 -164 100 -538 100 -346 0 -630 -49 -672 -115z m19204 -175 c74 -120 -204 -219 -402 -143 -128 49 -133 77 -25 145 174 111 357 110 427 -2z m-819 -76 c-69 -28 -181 -28 -250 0 -69 28 -12 50 125 50 138 0 194 -22 125 -50z m-9047 -798 c-42 -508 -444 -1236 -683 -1236 -169 0 -102 213 253 796 302 498 335 614 254 897 -82 287 -75 309 63 194 117 -97 145 -261 113 -651z m4368 189 c88 -316 205 -680 259 -809 75 -178 68 -224 -28 -193 -174 57 -492 747 -553 1202 -79 587 141 451 322 -200z m-13109 -50 c77 -124 196 -399 264 -612 137 -432 687 -1363 805 -1363 114 0 -13 417 -219 712 -100 144 -229 385 -286 536 -90 235 -82 266 55 213 88 -33 179 -61 202 -61 23 0 42 -85 42 -189 0 -104 155 -414 345 -690 320 -465 336 -526 227 -836 -159 -450 -155 -447 -315 -228 -77 106 -172 162 -209 124 -38 -38 70 -218 241 -400 170 -182 310 -386 311 -454 0 -206 -424 47 -675 402 -124 175 -225 269 -225 210 0 -60 136 -297 302 -526 240 -331 281 -457 201 -607 -133 -248 -289 -294 -653 -189 -436 125 -809 11 -1101 -337 -142 -168 -274 -288 -294 -268 -21 21 -177 213 -346 427 -322 405 -371 608 -211 861 79 124 131 128 299 24 233 -144 243 -122 95 204 -84 184 -72 326 51 621 l160 383 240 -226 c132 -124 266 -329 298 -456 51 -203 937 -1050 1098 -1050 180 0 9 225 -387 510 -484 347 -1152 1482 -1152 1956 0 396 229 225 432 -323 197 -531 241 -603 319 -525 28 28 -13 234 -92 457 -79 224 -125 425 -103 448 23 22 -48 216 -158 430 -109 214 -198 470 -198 568 0 306 186 196 287 -169 53 -192 190 -468 305 -614 114 -146 208 -338 208 -426 1 -174 386 -859 448 -797 68 68 -362 1223 -556 1497 -106 148 -192 341 -192 428 0 88 -45 160 -100 160 -55 0 -100 90 -100 200 0 266 162 254 337 -25z m-5256 -169 c25 -75 -12 -112 -87 -87 -72 24 -151 103 -175 175 -25 75 12 112 87 87 72 -24 151 -103 175 -175z m279 -1061 c93 -370 -18 -409 -143 -50 -62 178 -68 305 -14 305 51 0 122 -115 157 -255z m8640 174 c0 -44 -59 -161 -131 -260 -145 -198 -1069 -358 -1069 -184 0 188 280 334 523 273 158 -40 287 -6 372 96 139 167 305 208 305 75z m-1956 -419 c64 -240 60 -242 -89 -56 -85 107 -155 262 -155 345 0 211 162 20 244 -289z m4378 -25 c23 -234 14 -537 -22 -675 -82 -316 -400 -402 -400 -107 0 117 -65 207 -150 207 -82 0 -150 42 -150 93 0 51 68 160 150 243 193 193 189 241 -25 286 -138 30 -112 72 125 204 416 230 424 226 472 -251z m1520 34 c164 -181 163 -194 -17 -251 -104 -33 -280 -145 -391 -248 -276 -257 -834 -377 -834 -179 0 197 293 546 600 713 347 189 443 184 642 -35z m-3142 16 c0 -71 -1142 -825 -1249 -825 -28 0 -51 44 -51 98 0 54 180 190 400 302 220 112 400 271 400 352 0 91 96 148 250 148 138 0 250 -34 250 -75z m654 -418 c-36 -59 -114 -107 -172 -107 -66 0 -59 57 20 152 137 166 260 129 152 -45z m-2270 -307 c-201 -272 -384 -388 -384 -244 0 130 360 538 478 541 82 2 49 -104 -94 -297z m15514 225 c-2 -137 -186 -370 -245 -311 -79 78 47 386 158 386 49 0 88 -34 87 -75z m-4248 -125 c34 -55 102 -314 150 -575 48 -261 183 -835 300 -1275 311 -1175 333 -1368 101 -885 -110 229 -269 701 -353 1050 -84 349 -195 793 -247 985 -52 193 -121 451 -154 575 -60 225 86 315 203 125z m-492 -875 c98 -426 169 -828 158 -892 -12 -65 25 -146 81 -181 57 -35 103 -162 104 -283 0 -120 156 -669 345 -1219 211 -609 309 -1035 253 -1091 -57 -57 -112 -37 -143 49 -711 2001 -1294 4392 -1071 4392 52 0 175 -349 273 -775z m3385 391 c-149 -298 -343 -425 -343 -224 0 97 430 612 474 567 15 -15 -44 -169 -131 -343z m-4042 -41 c2 -294 464 -1962 585 -2110 93 -115 414 -1117 414 -1295 0 -206 -283 157 -434 556 -183 485 -766 2715 -766 2931 0 79 45 143 100 143 55 0 101 -101 101 -225z m-8301 -35 c0 -88 -124 -279 -276 -425 -152 -146 -343 -364 -425 -485 -89 -131 -304 -247 -534 -288 -342 -60 -380 -47 -346 120 29 139 115 182 331 166 161 -12 326 33 367 100 182 297 740 965 808 968 41 2 75 -68 75 -156z m2700 -89 c0 -86 -273 -273 -650 -444 -405 -183 -650 -355 -650 -454 0 -88 -66 -185 -146 -215 -81 -31 -172 -139 -204 -239 -45 -140 -160 -182 -503 -182 -245 0 -474 46 -509 103 -101 163 183 289 519 231 268 -47 350 -1 634 353 324 402 1142 990 1384 994 69 1 125 -65 125 -147z m-3900 -39 c0 -185 -278 -301 -951 -394 -561 -78 -728 -70 -845 42 -114 108 -119 165 -25 259 94 94 195 94 446 4 258 -93 418 -88 775 23 550 172 600 177 600 66z m-8700 -432 c0 -162 -30 -190 -111 -109 -61 61 -81 160 -44 220 103 168 155 130 155 -111z m17941 -403 c73 -467 234 -1028 372 -1302 150 -297 587 -1492 587 -1607 0 -411 -773 1349 -1011 2302 -104 415 -189 842 -189 949 0 342 172 99 241 -342z m-7691 123 c-34 -55 -82 -100 -106 -100 -24 0 -44 45 -44 100 0 55 48 100 106 100 58 0 78 -45 44 -100z m2700 -300 c35 -57 -49 -100 -194 -100 -141 0 -256 45 -256 100 0 55 87 100 194 100 107 0 222 -45 256 -100z m-9114 -537 c302 -426 333 -522 245 -775 -55 -158 -155 -288 -222 -288 -165 0 -599 476 -803 880 -161 320 -160 335 64 521 126 106 262 182 300 170 39 -11 226 -240 416 -508z m4052 245 c419 -105 1010 -245 1312 -310 616 -132 1900 -682 1900 -813 0 -47 72 -85 160 -85 202 0 1340 -1152 1340 -1356 0 -83 -101 -191 -225 -241 -216 -87 -214 -91 50 -97 338 -7 371 -260 44 -342 -390 -98 -1026 -622 -1200 -989 -91 -191 -234 -404 -317 -473 -181 -151 -204 -436 -30 -378 67 22 146 136 175 252 114 454 695 1116 1208 1376 283 144 540 236 572 205 31 -31 38 -72 15 -90 -23 -18 -212 -159 -420 -314 -482 -359 -417 -446 80 -108 207 140 417 255 467 255 130 0 -340 -593 -776 -979 -203 -180 -341 -357 -305 -392 35 -35 127 22 205 128 204 279 315 96 121 -200 -199 -303 -212 -421 -30 -270 160 133 266 50 266 -209 0 -369 293 -771 626 -856 290 -75 327 -126 354 -485 23 -304 -54 -558 -314 -1044 -396 -740 -451 -753 -1350 -318 -728 353 -805 633 -389 1402 383 707 342 1015 -169 1264 -509 249 -1236 315 -1717 156 -264 -87 -392 -93 -417 -19 -84 252 -994 869 -1734 1176 -767 319 -979 384 -1640 506 -446 82 -1328 -52 -1505 -229 -215 -215 -316 -75 -110 153 223 245 1154 453 1479 330 135 -52 359 -72 496 -46 587 112 2334 -767 2929 -1473 222 -264 461 -388 461 -239 0 126 -752 944 -868 944 -69 0 -277 133 -463 296 -469 412 -1696 845 -2148 758 -109 -21 -368 20 -576 92 -359 123 -367 135 -164 244 164 88 262 85 419 -13 170 -106 254 -99 500 42 170 97 320 129 354 75 32 -52 158 -94 280 -94 122 0 315 -66 430 -146 257 -180 379 -97 822 564 396 590 405 731 18 278 -204 -238 -297 -295 -300 -182 -2 90 76 262 173 383 138 169 238 203 450 150 383 -96 342 -294 -185 -911 -251 -295 -404 -536 -339 -536 179 0 991 915 1065 1200 35 138 147 309 248 381 285 202 236 601 -91 743 -151 65 -450 227 -665 358 -292 180 -477 225 -738 183 -519 -84 -1190 310 -797 469 69 28 142 54 163 58 21 4 381 -78 800 -184z m9810 -139 c1 -44 -43 -53 -98 -19 -55 34 -99 138 -98 231 1 146 14 148 98 19 53 -82 98 -186 98 -231z m-14730 -469 c129 -247 355 -557 503 -687 215 -190 271 -331 279 -707 7 -314 86 -575 236 -786 l225 -316 -306 -299 c-168 -164 -310 -379 -316 -477 -42 -709 144 -1162 528 -1283 122 -39 304 -166 405 -283 241 -280 180 -674 -234 -1506 -320 -642 -322 -659 -132 -807 107 -83 318 -179 469 -213 252 -56 394 -236 186 -236 -178 0 -212 -334 -58 -569 91 -139 130 -325 93 -443 -40 -127 1 -275 112 -397 167 -184 167 -216 9 -547 -432 -907 9 -1569 1127 -1689 354 -38 770 -135 925 -215 307 -159 371 -412 127 -505 -85 -33 -249 -245 -364 -472 -383 -756 -515 -744 -1197 112 -655 821 -1023 1383 -1227 1871 -85 203 -199 340 -255 306 -152 -94 301 -917 1058 -1921 827 -1095 841 -1131 455 -1131 -228 0 -368 83 -551 325 -276 367 -1565 2519 -1565 2614 0 33 67 61 150 61 83 0 150 50 150 111 0 61 -66 85 -147 54 -81 -31 -218 14 -305 101 -87 87 -181 135 -209 106 -59 -59 307 -741 1227 -2286 349 -586 634 -1109 634 -1164 0 -138 -427 -235 -539 -123 -57 57 -51 143 15 222 78 94 69 199 -31 379 -109 198 -139 212 -141 69 -7 -334 -171 -82 -557 853 -210 510 -417 975 -460 1033 -43 57 -241 434 -440 837 -258 523 -331 764 -255 840 152 152 134 248 -54 286 -112 22 -268 377 -498 1126 -184 602 -322 1108 -305 1124 16 16 127 -195 246 -469 120 -275 263 -499 319 -499 138 0 129 43 -100 450 -110 196 -200 408 -200 472 0 63 -88 209 -195 323 -175 186 -494 1600 -385 1708 33 33 296 -595 577 -1378 54 -151 149 -275 211 -275 62 0 89 56 60 125 -542 1274 -909 2345 -968 2825 -41 330 -63 613 -50 629 13 15 127 -232 254 -550 379 -955 894 -1934 1047 -1993 80 -31 244 -254 365 -496 121 -242 279 -440 352 -440 185 0 167 67 -118 441 -137 180 -250 377 -250 437 0 60 -87 136 -194 170 -456 145 -1517 2945 -1648 4352 -28 303 -81 696 -117 875 -43 213 -27 325 47 325 61 0 112 -75 112 -166 0 -92 66 -395 147 -675 81 -280 242 -846 359 -1259 383 -1358 1347 -3281 1545 -3082 36 35 -4 170 -88 298 -203 312 -730 1260 -908 1634 -78 165 -262 728 -409 1250 -146 523 -307 1053 -356 1180 -130 331 -113 744 28 697 65 -21 172 -284 237 -583 65 -299 203 -769 307 -1044 249 -661 1155 -2142 1313 -2146 69 -2 125 14 125 35 0 22 -272 438 -604 925 -660 967 -1221 2451 -1007 2665 135 135 96 190 632 -893 489 -990 1029 -1736 1254 -1736 85 0 -17 181 -254 450 -374 424 -1005 1524 -1165 2030 -84 265 98 544 327 499 83 -16 256 -231 385 -479z m2350 348 c29 -28 -92 -205 -269 -392 -399 -423 -506 -876 -286 -1212 147 -224 147 -244 -3 -244 -90 0 -238 156 -329 347 -159 335 -157 364 72 809 278 540 651 857 815 692z m1482 -198 c104 -125 91 -150 -79 -150 -272 0 -697 -522 -779 -956 -53 -283 -91 -327 -204 -234 -187 155 -175 274 76 741 362 677 734 903 986 599z m11085 -379 c52 -176 126 -400 165 -496 39 -97 27 -175 -27 -175 -55 0 -152 191 -217 425 -64 234 -143 488 -175 564 -34 84 -14 112 52 71 60 -37 151 -212 202 -389z m-10181 -156 c-316 -301 -404 -457 -404 -722 l0 -337 -216 216 c-311 311 -158 814 319 1048 622 306 748 220 301 -205z m3546 285 c34 -55 17 -100 -38 -100 -55 0 -128 45 -162 100 -34 55 -17 100 38 100 55 0 128 -45 162 -100z m-5653 -75 c-5 -115 -497 -448 -497 -337 0 54 71 168 157 255 166 165 345 209 340 82z m11414 -732 c113 -299 231 -633 262 -743 30 -110 127 -283 214 -383 88 -101 146 -312 129 -468 -16 -157 43 -396 132 -532 198 -302 249 -1610 70 -1789 -65 -65 -118 -206 -118 -314 0 -108 -182 -437 -405 -733 -383 -507 -595 -604 -595 -271 0 163 368 723 592 900 93 73 154 363 175 834 34 737 -6 875 -717 2456 -165 367 -301 1486 -201 1649 106 172 225 15 462 -606z m-8525 482 c69 -69 224 -125 345 -125 281 0 365 -149 157 -280 -121 -77 -240 -47 -475 121 -172 122 -313 265 -313 316 0 131 137 116 286 -32z m14764 25 c-34 -55 -129 -100 -212 -100 -82 0 -122 45 -88 100 34 55 129 100 212 100 82 0 122 -45 88 -100z m-10163 -425 c35 55 210 78 389 51 241 -36 428 -178 725 -551 219 -275 399 -560 399 -631 0 -71 70 -199 155 -285 112 -111 136 -253 89 -507 -37 -194 -95 -352 -130 -353 -35 0 -221 158 -414 352 -540 545 -1367 1225 -1568 1290 -211 68 -695 859 -526 859 62 0 201 -101 310 -225 l198 -225 -60 278 -59 277 214 -214 c125 -125 241 -173 278 -116z m7347 -1125 c62 -390 56 -384 -253 218 -279 544 -300 639 -175 789 129 155 152 136 253 -218 61 -214 140 -569 175 -789z m-15158 92 c-99 -98 -276 53 -276 235 0 153 13 153 169 -3 93 -93 141 -197 107 -232z m876 150 c89 -279 21 -324 -365 -239 l-328 72 232 187 c296 240 380 237 461 -20z m798 108 c34 -55 -28 -100 -138 -100 -110 0 -228 45 -262 100 -34 55 28 100 138 100 110 0 228 -45 262 -100z m650 -319 c0 -45 -112 -81 -250 -81 -286 0 -297 27 -125 303 116 187 134 189 250 30 69 -94 125 -208 125 -252z m10500 172 c0 -82 129 -215 286 -296 453 -234 1489 -1338 1998 -2129 495 -767 658 -901 879 -717 103 85 137 84 137 -6 0 -202 -1293 -1808 -2232 -2771 l-893 -917 -220 257 c-289 336 -663 251 -1126 -254 -278 -303 -354 -342 -432 -219 -165 262 -106 452 253 799 291 282 350 410 350 761 0 349 53 466 314 685 l314 265 261 -236 c367 -331 1049 -775 1191 -775 248 0 102 168 -420 485 -924 560 -928 571 -629 1537 141 455 284 1008 317 1228 66 431 -163 1595 -404 2062 -171 329 -177 388 -44 388 55 0 100 -66 100 -147z m1355 -200 c189 -452 192 -646 8 -449 -137 146 -305 796 -205 796 29 0 117 -156 197 -347z m-5775 -649 c1141 -1185 1755 -1902 1688 -1969 -35 -36 -187 -69 -337 -75 -201 -7 -290 -76 -342 -260 -46 -168 -72 -46 -79 375 -9 556 -32 625 -211 625 -179 0 -195 -47 -143 -425 54 -398 48 -413 -99 -231 -86 107 -157 289 -157 406 0 116 -112 364 -250 550 -302 410 -316 534 -50 450 115 -36 200 -18 200 43 0 59 -63 107 -141 107 -119 0 -859 904 -859 1050 0 130 160 -2 780 -646z m7418 -385 c1 -72 -43 -103 -98 -69 -55 34 -99 160 -98 281 1 178 19 191 98 69 53 -82 98 -209 98 -281z m-698 77 c0 -176 -28 -188 -214 -89 -170 92 -185 132 -75 202 216 137 289 108 289 -113z m-3754 -171 c-41 -96 -80 -525 -85 -954 -8 -573 -50 -803 -160 -870 -278 -172 -350 71 -170 574 93 261 170 618 169 792 0 384 87 633 221 633 58 0 68 -75 25 -175z m-11588 -667 c-39 -208 -21 -369 45 -410 60 -37 151 -178 203 -314 51 -135 137 -219 191 -186 139 86 237 -392 175 -854 -30 -224 -14 -370 38 -338 49 31 90 140 90 244 0 104 45 216 100 250 60 37 100 -99 100 -344 0 -280 66 -472 212 -618 245 -245 384 -127 386 331 2 242 48 276 452 336 417 63 640 245 300 245 -82 0 -150 47 -150 104 0 58 79 92 175 75 126 -21 184 48 207 246 17 151 -17 275 -75 275 -59 0 -107 -61 -107 -135 0 -219 -582 -185 -704 42 -80 150 -70 193 45 193 81 0 175 -45 209 -100 132 -213 240 -82 269 325 37 514 211 560 284 75 45 -301 61 -319 115 -125 35 124 118 225 184 225 89 0 105 -181 62 -675 -33 -371 -34 -607 -4 -525 31 83 80 218 109 300 107 305 203 -243 153 -875 -35 -440 -15 -625 68 -625 65 0 109 101 98 225 -10 124 -11 338 -1 475 32 429 190 13 229 -600 22 -357 -4 -543 -74 -531 -78 14 -78 -78 -1 -325 59 -189 164 -344 233 -344 89 0 126 -205 126 -700 0 -400 43 -700 100 -700 55 0 100 -67 100 -150 0 -182 164 -199 234 -25 28 69 54 5 58 -142 9 -294 -451 -920 -606 -825 -52 33 -194 -3 -315 -80 -122 -77 -354 -128 -516 -113 -162 14 -352 -21 -421 -78 -69 -57 -173 -75 -230 -39 -58 35 -133 -8 -168 -97 -35 -94 -125 -138 -212 -105 -82 32 -211 7 -286 -56 -231 -192 -1001 -18 -1235 279 -112 142 -203 317 -203 390 0 276 236 632 439 661 241 34 243 356 4 541 -79 61 -143 162 -143 225 0 181 349 133 627 -86 140 -110 304 -200 364 -200 137 0 143 167 9 250 -55 34 -100 169 -100 300 0 131 45 266 100 300 109 67 134 963 37 1325 -120 448 -326 250 -357 -342 -20 -377 -77 -583 -170 -614 -110 -36 -127 29 -79 293 33 186 86 518 116 738 53 388 51 391 -60 100 -149 -391 -181 -421 -281 -260 -46 74 -199 135 -340 135 -141 0 -274 51 -296 113 -21 61 -19 -16 5 -172 41 -259 27 -274 -160 -174 -317 170 -337 273 -131 680 105 208 223 524 261 702 39 178 112 349 163 381 144 89 108 707 -48 837 -202 167 -282 579 -159 810 161 300 229 238 157 -144z m302 -131 c-33 -33 -56 26 -52 131 5 117 28 141 60 61 29 -72 26 -159 -8 -192z m1340 61 c0 -178 25 -192 150 -88 127 105 150 85 150 -133 0 -242 -17 -251 -300 -152 -281 98 -397 355 -233 518 129 130 233 65 233 -145z m14797 -232 c-2 -58 -69 -19 -150 88 -81 107 -146 242 -144 300 2 58 69 19 150 -88 81 -107 146 -242 144 -300z m1900 269 c-5 -106 -499 -656 -547 -608 -42 41 434 683 507 683 24 0 42 -34 40 -75z m-18997 -452 c0 -202 -252 11 -278 235 -27 234 -23 236 125 48 84 -107 153 -234 153 -283z m16763 -343 c-42 -43 -163 35 -268 171 -283 370 -235 484 75 175 148 -149 235 -304 193 -346z m-8239 28 c-32 -52 -93 -8 -134 99 -123 313 -100 395 51 188 78 -106 115 -235 83 -287z m9876 -58 c0 -55 -48 -100 -106 -100 -58 0 -78 45 -44 100 34 55 82 100 106 100 24 0 44 -45 44 -100z m-13869 -676 c180 -601 288 -736 419 -524 34 55 154 100 267 100 141 0 186 47 147 150 -65 169 89 207 189 46 35 -57 150 -77 256 -43 124 39 213 5 252 -96 75 -194 239 -207 239 -18 0 117 198 261 358 261 23 0 42 -141 42 -312 0 -266 -22 -294 -150 -188 -128 106 -150 76 -150 -206 0 -181 -51 -472 -114 -645 -106 -294 -90 -338 241 -669 211 -211 643 -468 1066 -634 l711 -279 190 203 c104 112 305 431 446 710 273 538 460 732 460 476 0 -86 40 -156 88 -156 49 0 120 251 159 558 38 308 99 529 136 492 100 -100 13 -1281 -106 -1426 -201 -246 -111 -1195 160 -1679 l254 -453 -246 -94 c-275 -104 -309 -221 -112 -384 97 -80 220 -77 457 13 283 107 337 100 422 -52 64 -114 219 -175 443 -175 190 0 345 -42 345 -93 0 -52 95 -124 210 -160 378 -120 51 -237 -410 -147 -247 48 -709 116 -1026 151 -317 35 -551 105 -519 156 31 51 13 93 -41 93 -53 0 -114 -51 -135 -114 -75 -224 -2578 315 -3412 734 -501 251 -1196 1007 -1298 1411 -130 512 -361 1668 -467 2332 -54 337 -144 734 -200 881 -143 378 -128 476 70 437 115 -22 235 -242 359 -657z m4568 527 c174 -210 44 -674 -178 -632 -225 43 -309 781 -89 781 79 0 199 -67 267 -149z m2469 -554 c174 -356 348 -771 385 -922 62 -249 43 -275 -204 -275 -223 0 -263 36 -220 199 58 224 -176 1089 -338 1248 -72 71 -149 43 -248 -91 -138 -187 -143 -185 -143 55 0 270 180 509 346 462 57 -16 247 -321 422 -676z m-5768 191 c0 -55 -45 -72 -100 -38 -55 34 -100 107 -100 162 0 55 45 72 100 38 55 -34 100 -107 100 -162z m12200 129 c0 -45 -112 -188 -250 -317 -284 -266 -355 -82 -85 217 174 192 335 240 335 100z m-5555 -423 c-283 -312 -379 -223 -133 123 132 185 244 266 267 195 23 -68 -38 -211 -134 -318z m-10395 106 c-34 -55 -82 -100 -106 -100 -24 0 -44 45 -44 100 0 55 48 100 106 100 58 0 78 -45 44 -100z m16149 -75 c-2 -171 -3762 -3895 -3847 -3810 -108 108 1642 1970 2173 2312 151 98 275 238 275 311 0 74 279 388 620 698 589 537 781 657 779 489z m-16199 -619 c0 -52 -45 -122 -100 -156 -55 -34 -100 8 -100 94 0 86 45 156 100 156 55 0 100 -42 100 -94z m14603 -500 c-123 -230 -292 -350 -376 -267 -69 70 263 461 392 461 48 0 41 -87 -16 -194z m1997 -106 c0 -55 -45 -100 -100 -100 -55 0 -100 45 -100 100 0 55 45 100 100 100 55 0 100 -45 100 -100z m-8400 -212 c0 -55 -45 -72 -100 -38 -55 34 -100 107 -100 162 0 55 45 72 100 38 55 -34 100 -107 100 -162z m1298 -219 c0 -120 -45 -286 -98 -369 -71 -110 -97 -34 -98 281 -1 262 37 407 98 369 55 -34 99 -160 98 -281z m-9498 -56 c0 -319 -121 -812 -189 -770 -97 60 -4 957 99 957 50 0 90 -84 90 -187z m10200 -263 c0 -333 -39 -450 -150 -450 -111 0 -150 117 -150 450 0 333 39 450 150 450 111 0 150 -117 150 -450z m6953 -429 c182 -451 316 -821 298 -821 -75 0 -851 1429 -851 1567 0 349 244 19 553 -746z m-8996 204 c-89 -413 -96 -1047 -15 -1300 112 -351 -108 -266 -232 90 -136 390 -141 890 -12 1228 132 350 335 335 259 -18z m918 -183 c-95 -96 -286 59 -215 174 42 68 98 66 170 -6 58 -58 79 -134 45 -168z m-538 -517 c-36 -316 -80 -593 -99 -614 -94 -111 -152 346 -93 740 100 668 269 557 192 -126z m-9102 265 c241 -281 136 -361 -128 -97 -150 150 -281 192 -459 148 -152 -39 -248 -20 -248 48 0 201 644 125 835 -99z m11994 -731 c152 -47 161 -90 62 -276 -115 -215 -120 -215 -261 -26 -153 207 -187 181 -810 -627 -205 -267 -393 -285 -637 -65 -263 239 -229 317 172 393 245 45 450 184 662 448 232 289 346 360 470 295 89 -48 244 -112 342 -142z m-2429 -778 c0 -131 -227 -49 -277 100 -24 73 21 96 119 58 87 -33 158 -104 158 -158z m3200 19 c-59 -110 -141 -200 -182 -200 -41 0 -152 -131 -247 -291 -206 -350 -1851 -1862 -1934 -1779 -82 82 329 653 771 1070 204 193 620 586 925 875 581 550 860 686 667 325z m-1571 -611 c-169 -169 -370 -8 -218 174 84 101 152 114 225 41 72 -72 70 -138 -7 -215z m-7103 152 c32 -33 -3 -235 -79 -450 -76 -215 -96 -391 -44 -391 51 0 121 111 155 246 88 352 286 491 520 366 105 -56 522 -188 927 -293 l736 -192 -462 -204 c-253 -112 -566 -237 -695 -277 l-234 -73 198 239 c187 224 181 223 -100 -19 -310 -267 -802 -593 -894 -593 -83 0 -64 279 21 317 110 48 435 783 347 783 -41 0 -183 -227 -315 -505 -249 -525 -693 -924 -560 -504 41 128 23 209 -47 209 -72 0 -88 83 -43 225 67 217 62 216 -140 -25 -235 -280 -271 -185 -107 285 74 212 175 315 310 315 136 0 183 48 145 147 -31 81 -12 174 41 207 53 33 71 102 40 153 -63 101 183 131 280 34z m-846 -616 c-131 -270 -272 -602 -324 -764 -33 -104 -89 -162 -123 -128 -87 88 262 967 384 967 55 0 83 -34 63 -75z m-945 -478 c-79 -207 -135 -183 -135 59 0 113 43 179 96 147 52 -33 70 -125 39 -206z m4910 161 c-52 -50 -529 -232 -1060 -403 -530 -172 -1228 -439 -1550 -594 -728 -351 -3115 -1290 -3383 -1331 -214 -32 -237 87 -108 545 86 304 204 355 292 125 125 -325 789 -176 2464 551 413 180 863 362 1000 405 138 43 610 235 1050 427 747 325 1516 488 1295 275z m1855 -308 c0 -55 -70 -100 -156 -100 -86 0 -128 45 -94 100 34 55 104 100 156 100 52 0 94 -45 94 -100z m1225 -266 c-69 -28 -125 -90 -125 -139 0 -124 -1608 -1720 -1670 -1658 -84 84 587 955 783 1017 100 32 349 235 555 452 205 217 420 390 478 386 57 -4 48 -30 -21 -58z m-2875 -134 c-34 -55 -107 -100 -162 -100 -55 0 -72 45 -38 100 34 55 107 100 162 100 55 0 72 -45 38 -100z m917 -162 c-266 -82 -536 -129 -600 -105 -185 70 348 254 733 254 341 -1 337 -5 -133 -149z m-5267 -88 c-68 -82 -163 -150 -209 -150 -47 0 -59 68 -27 150 31 83 126 150 209 150 123 0 128 -28 27 -150z m10450 50 c160 -69 126 -87 -175 -93 -206 -4 -375 38 -375 93 0 119 272 119 550 0z m-7748 -152 c80 -97 204 -128 337 -87 203 63 204 58 36 -131 -229 -256 -221 -310 50 -348 196 -28 163 -75 -265 -372 -443 -308 -502 -325 -611 -175 -67 91 -217 165 -335 165 -246 0 -287 151 -64 236 211 81 186 239 -50 314 -297 94 -244 210 175 384 478 198 572 200 727 14z m1743 -37 c-52 -49 -207 -118 -345 -155 -240 -64 -242 -60 -56 89 205 163 570 224 401 66z m6655 -11 c0 -55 -45 -100 -100 -100 -55 0 -100 45 -100 100 0 55 45 100 100 100 55 0 100 -45 100 -100z m-4621 -837 c-291 -309 -722 -776 -958 -1038 -235 -261 -785 -848 -1222 -1305 -437 -456 -937 -1029 -1112 -1273 -175 -244 -394 -468 -487 -497 -93 -29 -277 -172 -409 -318 -133 -145 -185 -232 -116 -192 164 94 160 -54 -8 -284 -129 -177 -141 -176 -350 3 -120 102 -217 224 -217 272 0 47 487 566 1082 1152 595 587 1160 1193 1255 1346 96 154 278 320 406 368 127 49 333 252 456 452 124 200 390 468 592 596 202 127 523 435 713 684 353 462 823 826 875 678 16 -45 -209 -335 -500 -644z m4121 637 c133 -86 133 -97 0 -97 -82 0 -217 44 -300 97 -133 86 -133 97 0 97 83 0 218 -44 300 -97z m-9242 -491 c-95 -105 -279 -218 -408 -250 -152 -38 -319 -224 -466 -519 -174 -349 -344 -518 -703 -700 -497 -252 -681 -294 -681 -159 0 100 650 419 853 419 178 0 199 297 22 307 -69 4 -35 42 75 85 109 43 199 157 200 255 0 111 200 283 539 465 626 334 813 366 569 97z m3992 91 c216 -93 131 -133 -222 -104 -290 23 -1762 -745 -2127 -1111 -321 -320 -474 -826 -311 -1023 135 -163 -157 -962 -352 -962 -72 0 -108 62 -79 137 72 187 -218 283 -355 118 -61 -73 -167 -329 -237 -569 -161 -558 -427 -601 -395 -64 25 435 450 1327 673 1412 85 33 155 134 155 225 0 249 1089 1258 1654 1532 273 132 609 300 746 372 284 150 560 162 850 37z m-3800 -600 c-34 -55 -82 -100 -106 -100 -24 0 -44 45 -44 100 0 55 48 100 106 100 58 0 78 -45 44 -100z m-550 -39 c0 -22 -67 -66 -150 -97 -82 -32 -150 -14 -150 39 0 53 68 97 150 97 83 0 150 -18 150 -39z m1056 -314 c-107 -81 -260 -147 -340 -147 -81 0 -376 -107 -656 -238 -589 -275 -960 -399 -960 -321 0 30 178 146 395 256 217 111 431 266 475 346 48 86 283 160 580 182 275 22 545 46 600 54 55 8 13 -51 -94 -132z m8931 -42 c132 -74 112 -101 -113 -158 -151 -38 -389 -40 -528 -5 -174 44 -418 -18 -768 -194 -510 -256 -881 -293 -946 -94 -19 57 64 111 185 120 121 9 260 89 310 177 56 100 191 150 356 131 185 -21 258 13 237 108 -24 111 83 125 538 72 313 -37 641 -107 729 -157z m-13787 -105 c0 -55 -45 -100 -100 -100 -55 0 -100 45 -100 100 0 55 45 100 100 100 55 0 100 -45 100 -100z m1600 -100 c162 -303 -37 -600 -404 -600 -196 0 -296 -50 -296 -150 0 -82 -45 -150 -100 -150 -134 0 -128 171 9 255 60 37 87 150 61 250 -64 242 193 595 432 595 105 0 239 -90 298 -200z m-2040 -41 c30 -77 175 -192 322 -255 308 -131 688 -804 455 -804 -75 0 -137 -45 -137 -100 0 -55 45 -100 100 -100 151 0 120 -266 -50 -436 -82 -82 -150 -189 -150 -237 0 -48 -174 -355 -387 -682 -655 -1009 -863 -1662 -1061 -3345 -30 -248 -88 -651 -130 -897 l-77 -448 -213 299 c-253 356 -259 390 -244 1321 10 589 51 764 218 931 114 114 297 417 407 675 111 258 303 604 427 769 518 687 761 1227 824 1837 59 557 42 644 -164 863 -288 306 -639 417 -1650 519 l-800 81 1050 55 c578 31 1085 65 1128 75 43 11 103 -43 132 -121z m7815 -384 c-23 -69 -126 -141 -230 -162 -163 -31 -171 -14 -55 125 159 192 344 215 285 37z m7025 -127 c309 -157 556 -431 641 -710 58 -192 15 -218 -462 -281 -290 -39 -679 -143 -866 -231 l-340 -162 -480 533 c-467 520 -475 539 -311 762 255 346 1219 393 1818 89z m704 33 c163 -120 297 -289 299 -375 2 -86 69 -243 150 -350 171 -226 188 -356 48 -356 -55 0 -197 214 -316 475 -119 261 -311 553 -426 648 -303 250 -104 216 245 -42z m-11004 -175 c0 -52 -45 -122 -100 -156 -55 -34 -100 8 -100 94 0 86 45 156 100 156 55 0 100 -42 100 -94z m7300 -6 c0 -55 -45 -100 -100 -100 -55 0 -100 45 -100 100 0 55 45 100 100 100 55 0 100 -45 100 -100z m1182 -726 c285 -317 518 -621 518 -675 0 -228 -219 -65 -595 444 -220 298 -447 571 -503 606 -121 74 -139 283 -20 234 45 -18 315 -292 600 -609z m-9284 351 c-1 -41 -90 -187 -198 -325 -108 -137 -197 -305 -198 -372 -4 -245 -445 -1028 -579 -1028 -95 0 -116 68 -69 225 89 293 369 911 443 975 32 27 136 174 233 325 163 256 373 371 368 200z m502 35 c0 -22 -135 -297 -301 -611 -165 -315 -328 -747 -362 -960 -63 -390 -198 -507 -295 -255 -99 259 647 1866 866 1866 51 0 92 -18 92 -40z m7800 -66 c0 -58 -45 -78 -100 -44 -55 34 -100 82 -100 106 0 24 45 44 100 44 55 0 100 -48 100 -106z m-12338 -450 c-82 -213 -262 -175 -262 56 0 110 -56 203 -125 207 -69 4 -35 43 75 87 226 90 404 -110 312 -350z m-1239 119 c119 -183 88 -438 -73 -599 -82 -82 -150 -215 -150 -295 0 -180 -804 -405 -944 -265 -155 155 -377 111 -625 -122 l-232 -218 -200 214 c-109 117 -199 281 -199 363 0 152 673 765 1109 1010 277 156 1196 94 1314 -88z m-3021 -306 c-65 -196 -133 -357 -152 -357 -18 0 -105 -27 -192 -61 -248 -95 -192 205 104 558 320 379 397 334 240 -140z m6598 404 c0 -22 -67 -66 -150 -97 -82 -32 -150 -14 -150 39 0 53 68 97 150 97 83 0 150 -18 150 -39z m782 -436 c-114 -261 -291 -664 -394 -895 -104 -230 -188 -461 -188 -512 0 -52 -67 -150 -150 -218 -214 -178 -201 94 23 485 95 166 137 338 93 382 -103 104 -461 -361 -464 -603 -1 -123 -52 -166 -152 -128 -82 32 -151 3 -152 -64 -1 -67 -93 -321 -203 -564 -133 -293 -234 -409 -300 -343 -139 139 247 1352 504 1584 111 100 201 243 201 316 0 74 44 135 97 135 53 0 71 68 39 150 -39 102 6 150 142 150 134 0 225 -91 274 -275 l73 -275 170 372 c146 322 477 778 565 778 16 0 -64 -214 -178 -475z m8218 369 c0 -58 -45 -78 -100 -44 -55 34 -100 82 -100 106 0 24 45 44 100 44 55 0 100 -48 100 -106z m5400 6 c0 -55 -45 -100 -100 -100 -55 0 -100 45 -100 100 0 55 45 100 100 100 55 0 100 -45 100 -100z m-5659 -290 c187 -206 81 -351 -182 -250 -163 63 -227 440 -74 440 46 0 161 -86 256 -190z m-14741 -49 c0 -222 -354 -601 -486 -520 -84 52 -53 155 109 360 251 318 377 372 377 160z m10300 -22 c0 -95 -509 -680 -676 -777 -114 -65 -131 -53 -70 50 317 535 746 953 746 727z m9320 -409 c-17 -120 33 -345 111 -500 165 -325 302 -996 228 -1115 -28 -45 -277 -36 -554 21 -463 95 -565 78 -1254 -210 -413 -172 -751 -273 -751 -223 0 49 90 138 200 197 249 133 252 361 13 990 l-187 492 299 221 c409 302 729 387 1375 366 504 -17 547 -37 520 -239z m-16100 -150 c-93 -93 -120 -67 -120 120 0 187 27 213 120 120 93 -93 93 -147 0 -240z m10969 132 c154 -119 199 -208 127 -252 -152 -94 -516 113 -516 294 0 192 98 181 389 -42z m5611 -112 c0 -55 -45 -100 -100 -100 -55 0 -100 45 -100 100 0 55 45 100 100 100 55 0 100 -45 100 -100z m-4950 -100 c34 -55 17 -100 -38 -100 -55 0 -128 45 -162 100 -34 55 -17 100 38 100 55 0 128 -45 162 -100z m-16212 -81 c66 -107 -494 -1216 -740 -1463 -321 -325 -322 -115 -2 503 167 322 304 634 304 693 0 231 335 435 438 267z m462 -156 c0 -156 -400 -696 -467 -629 -25 24 23 207 106 405 149 357 361 489 361 224z m14936 -91 c186 -136 134 -472 -73 -472 -151 0 -386 381 -310 504 79 129 175 121 383 -32z m1364 -196 c0 -144 -152 -75 -278 126 -117 188 -112 193 76 76 111 -69 202 -160 202 -202z m-15783 -41 c101 -92 183 -284 183 -427 0 -268 -461 -1047 -583 -986 -37 19 -191 96 -342 172 -341 171 -341 212 0 723 526 789 478 756 742 518z m2482 -926 c-214 -599 -410 -1308 -436 -1575 -25 -266 -77 -562 -115 -658 -51 -129 3 -200 213 -280 325 -124 298 -153 -534 -555 -323 -157 -629 -403 -800 -645 -273 -386 -427 -493 -427 -296 0 55 45 100 100 100 55 0 100 53 100 117 0 278 363 874 550 902 172 27 200 108 200 581 0 539 282 1400 458 1400 47 0 60 68 28 150 -31 83 -8 150 53 150 61 0 111 90 111 200 0 110 34 200 76 200 41 0 182 236 313 525 222 491 393 775 467 775 18 0 -143 -491 -357 -1091z m13041 642 c267 -407 97 -459 -295 -90 -197 186 -330 383 -295 439 87 141 383 -33 590 -349z m915 340 c37 -60 16 -160 -48 -224 -87 -87 -138 -79 -210 34 -52 82 -95 183 -95 224 -3 116 278 89 353 -34z m-3078 -738 c157 -829 155 -953 -21 -953 -205 0 -458 398 -409 643 23 114 69 376 102 582 33 206 93 375 133 375 40 0 128 -291 195 -647z m3523 247 c0 -55 -45 -100 -100 -100 -55 0 -100 45 -100 100 0 55 45 100 100 100 55 0 100 -45 100 -100z m-2400 -600 c0 -330 -34 -600 -76 -600 -135 0 -318 380 -385 796 -62 386 -53 404 198 404 255 0 263 -19 263 -600z m617 435 c242 -219 233 -364 -17 -285 -287 91 -247 -68 100 -400 315 -302 453 -902 150 -650 -82 68 -150 173 -150 232 0 59 -113 225 -251 369 -202 211 -239 325 -188 581 73 365 106 379 356 153z m-16357 -251 c-181 -259 -215 -174 -52 131 60 111 132 179 160 150 29 -29 -20 -155 -108 -281z m18050 -331 c197 -426 223 -557 118 -598 -114 -43 -328 295 -328 519 0 33 -72 140 -160 237 -148 164 -123 389 44 389 40 0 187 -246 326 -547z m3690 391 c0 -24 -45 -44 -100 -44 -55 0 -100 48 -100 106 0 58 45 78 100 44 55 -34 100 -82 100 -106z m-12072 -291 c-86 -153 -103 -154 -229 -2 -115 139 -114 178 7 252 193 120 338 -43 222 -250z m4583 -1177 c62 -150 153 -248 202 -218 50 31 60 109 23 174 -38 65 -29 82 19 38 110 -100 586 -910 800 -1362 124 -262 137 -396 56 -575 -127 -278 -511 -321 -511 -57 0 97 -84 228 -187 293 -103 64 -211 221 -240 349 -29 127 -148 558 -263 956 -118 408 -205 975 -198 1300 l12 576 87 -600 c48 -330 138 -723 200 -874z m7748 860 c-32 -82 -107 -118 -167 -81 -79 49 -79 98 -1 176 60 60 115 201 123 314 11 178 19 175 58 -27 24 -128 18 -300 -13 -382z m-19487 189 c-87 -97 -181 -289 -207 -426 -55 -284 -269 -821 -620 -1557 -304 -635 -402 -1095 -253 -1187 61 -38 79 -122 39 -186 -40 -65 -87 -320 -104 -568 -92 -1321 -434 -1130 -423 236 8 908 411 2251 846 2822 138 180 250 366 250 413 0 116 535 727 589 673 24 -24 -29 -123 -117 -220z m15083 -252 c65 -178 151 -402 192 -498 46 -107 31 -175 -39 -175 -62 0 -140 134 -173 298 -32 164 -119 347 -191 407 -73 60 -107 176 -76 257 72 185 139 118 287 -289z m3199 250 c59 -42 113 -587 127 -1273 l23 -1200 -735 -15 -735 -15 -3 365 c-2 201 -21 721 -42 1156 l-39 791 350 126 c397 144 899 175 1054 65z m-10457 -119 c81 -51 112 -128 70 -171 -43 -42 -113 -21 -155 48 -43 69 -153 97 -245 62 -94 -36 -167 -16 -167 46 0 134 294 143 497 15z m-8697 -39 c0 -18 -97 -120 -215 -225 -213 -189 -213 -189 -96 35 97 186 311 317 311 190z m7467 -197 c457 -373 991 -668 1212 -668 123 0 266 -111 353 -275 606 -1138 748 -1428 893 -1825 263 -720 63 -1351 -391 -1237 -221 55 -238 37 -180 -193 50 -200 -9 -333 -281 -630 l-344 -376 -606 393 c-1306 847 -1792 1131 -2048 1196 -411 103 -522 291 -378 640 67 161 91 387 54 503 -48 151 15 303 224 541 l291 332 273 -235 c294 -253 661 -312 661 -106 0 209 -299 572 -471 572 -140 0 -137 -26 21 -200 261 -288 48 -247 -276 54 -365 339 -344 549 84 826 256 166 347 292 327 450 -31 238 74 470 213 470 48 0 214 -104 369 -232z m4292 -708 c24 -743 96 -1264 298 -2160 81 -359 -464 -1106 -752 -1030 -287 75 -256 230 45 230 299 0 315 161 50 500 -170 217 -196 413 -198 1488 -2 1088 24 1280 209 1580 117 189 236 318 266 289 30 -30 66 -434 82 -897z m2893 371 c200 -479 189 -495 -102 -149 -137 163 -250 372 -250 463 0 251 184 87 352 -314z m-8402 269 c-34 -55 -82 -100 -106 -100 -24 0 -44 45 -44 100 0 55 48 100 106 100 58 0 78 -45 44 -100z m350 -150 c0 -163 -56 -250 -161 -250 -105 0 -140 54 -100 158 34 87 61 200 61 250 0 51 45 92 100 92 55 0 100 -112 100 -250z m11000 -62 c0 -55 -45 -72 -100 -38 -55 34 -100 107 -100 162 0 55 45 72 100 38 55 -34 100 -107 100 -162z m-8530 -113 c113 -124 261 -337 330 -475 93 -187 34 -153 -234 133 -197 211 -405 355 -462 319 -57 -35 -154 -33 -215 5 -77 47 -69 94 25 154 214 135 336 106 556 -136z m4030 119 c0 -58 -45 -78 -100 -44 -55 34 -100 82 -100 106 0 24 45 44 100 44 55 0 100 -48 100 -106z m-7702 -346 c-70 -84 -147 -132 -172 -107 -70 69 71 259 192 259 66 0 59 -57 -20 -152z m10384 -178 c38 -197 -281 -662 -457 -667 -80 -2 -122 133 -117 372 4 206 30 319 58 250 81 -199 234 -145 234 83 0 242 234 210 282 -38z m1818 -126 c0 -79 -45 -144 -100 -144 -55 0 -100 93 -100 206 0 113 45 178 100 144 55 -34 100 -127 100 -206z m2400 -94 c0 -192 -45 -350 -100 -350 -111 0 -133 298 -39 542 95 248 139 187 139 -192z m-14318 0 c-123 -270 -343 -353 -243 -92 34 87 61 200 61 250 0 51 67 92 148 92 121 0 127 -45 34 -250z m11013 -700 c-1 -549 -14 -584 -148 -406 -151 199 -197 810 -83 1106 115 300 233 -57 231 -700z m-6735 477 c-101 -102 -185 51 -102 186 63 102 87 102 121 1 23 -70 15 -154 -19 -187z m-11130 -124 c-50 -189 -330 -497 -330 -362 0 73 306 559 352 559 16 0 6 -89 -22 -197z m17280 -33 c-128 -128 -258 -29 -163 125 37 60 113 80 169 45 68 -42 66 -98 -6 -170z m-12010 93 c0 -21 -94 -251 -210 -512 -126 -285 -215 -709 -223 -1061 -9 -370 -60 -604 -140 -635 -137 -53 -187 552 -57 682 39 39 78 238 87 442 18 421 296 1121 444 1121 55 0 99 -17 99 -37z m-5771 -363 c-50 -192 -229 -286 -229 -120 0 70 204 320 261 320 11 0 -3 -90 -32 -200z m1980 -231 c-60 -60 -109 -184 -109 -277 0 -92 -67 -224 -150 -292 -201 -167 -190 -94 75 514 143 328 238 452 259 340 19 -96 -14 -224 -75 -285z m15584 -288 c8 -310 -143 -455 -233 -222 -83 216 -76 692 12 780 92 92 212 -211 221 -558z m-17093 148 c-109 -170 -112 -170 -58 4 32 101 62 236 66 300 6 84 21 83 57 -4 27 -67 -2 -202 -65 -300z m5977 110 c-66 -144 -137 -210 -158 -147 -53 159 54 408 176 408 63 0 56 -97 -18 -261z m533 -147 c-176 -289 -210 -308 -272 -146 -50 130 -2 241 159 372 314 254 354 171 113 -226z m10890 158 c0 -137 0 -273 0 -300 0 -27 -30 -39 -67 -25 -93 35 -100 575 -8 575 41 0 75 -112 75 -250z m-6100 -212 c0 -82 -45 -122 -100 -88 -55 34 -100 129 -100 212 0 82 45 122 100 88 55 -34 100 -129 100 -212z m-5375 -690 c-96 -132 -231 -263 -300 -291 -199 -81 -145 223 79 447 273 273 446 151 221 -156z m5614 194 c38 -98 15 -143 -58 -119 -149 50 -231 277 -100 277 54 0 125 -71 158 -158z m6995 -63 c67 -253 26 -328 -127 -233 -129 79 -144 454 -19 454 49 0 115 -99 146 -221z m1920 59 c342 -224 334 -467 -11 -336 -141 54 -523 98 -850 98 -526 0 -593 22 -593 200 0 178 67 200 604 200 387 0 691 -58 850 -162z m-2794 -388 c17 -163 -24 -250 -117 -250 -145 0 -203 406 -76 533 97 98 162 1 193 -283z m440 94 c0 -165 -158 -193 -250 -44 -82 132 38 319 157 246 51 -32 93 -123 93 -202z m-11503 81 c-6 -129 -374 -525 -488 -525 -151 0 -136 116 47 378 146 209 448 310 441 147z m10203 -431 c0 -211 -249 -257 -500 -92 -125 82 -113 108 75 160 124 34 225 104 225 156 0 51 45 66 100 32 55 -34 100 -149 100 -256z m4481 112 c25 -75 -12 -112 -87 -87 -72 24 -151 103 -175 175 -25 75 12 112 87 87 72 -24 151 -103 175 -175z m-9239 -70 c95 -249 -10 -282 -137 -45 -62 115 -70 209 -19 209 51 0 121 -74 156 -164z m5158 -36 c0 -110 -45 -200 -100 -200 -55 0 -100 90 -100 200 0 110 45 200 100 200 55 0 100 -90 100 -200z m3281 -75 c151 -130 230 -380 306 -975 61 -485 66 -836 10 -892 -207 -209 -820 320 -1034 892 -23 63 -114 54 -245 -23 -115 -68 -229 -90 -254 -49 -83 133 -103 978 -27 1101 117 190 1006 151 1244 -54z m-2012 -300 c-21 -151 28 -376 108 -500 80 -124 101 -225 46 -225 -132 0 -399 413 -425 657 -32 296 -11 343 155 343 110 0 143 -78 116 -275z m452 -124 c47 -318 -57 -411 -160 -143 -91 237 -73 561 27 499 49 -30 109 -190 133 -356z m-7221 186 c0 -193 -230 -930 -332 -1064 -53 -70 -179 -101 -281 -69 -148 47 -232 -50 -430 -498 -262 -591 -317 -631 -596 -426 -165 120 -148 162 232 575 225 245 566 603 758 796 192 193 349 422 349 508 0 87 30 188 67 224 104 105 233 79 233 -46z m6236 -309 c-85 -139 -231 20 -168 184 47 121 77 127 139 26 44 -71 57 -165 29 -210z m3386 -353 c22 -316 5 -616 -38 -667 -98 -116 -151 51 -229 717 -49 419 -33 525 82 525 104 0 156 -159 185 -575z m-13922 275 c0 -55 -67 -100 -150 -100 -82 0 -150 45 -150 100 0 55 68 100 150 100 83 0 150 -45 150 -100z m4666 -56 c33 -86 -58 -398 -203 -694 -211 -432 -317 -543 -538 -568 -212 -25 -297 -106 -371 -357 -62 -210 -159 -325 -275 -325 -235 0 -227 157 21 423 110 118 200 287 200 375 0 95 133 200 323 256 274 81 343 169 456 571 135 483 279 601 387 319z m5234 -19 c248 -96 667 -326 933 -510 470 -327 696 -363 1265 -206 113 31 162 -81 204 -459 51 -469 708 -1748 1310 -2550 272 -363 748 -1303 829 -1639 50 -208 101 -259 179 -181 118 118 -482 1501 -812 1870 -99 110 -310 437 -469 728 -224 409 -260 545 -159 608 103 65 93 144 -48 391 -98 171 -157 329 -130 353 26 23 238 71 471 107 402 62 425 51 477 -211 173 -882 496 -2104 601 -2276 67 -110 179 -414 249 -675 69 -261 165 -475 213 -475 48 0 87 -202 87 -450 0 -436 -10 -450 -307 -450 -271 0 -299 -26 -238 -225 109 -361 223 -426 426 -243 283 257 400 205 532 -235 92 -308 93 -431 4 -520 -64 -64 -117 -304 -117 -532 0 -525 -159 -1003 -475 -1428 -165 -222 -282 -300 -348 -234 -127 127 -13 317 191 317 129 0 134 27 30 152 -102 124 -95 185 38 333 164 180 225 515 95 515 -37 0 -166 -92 -285 -204 -120 -112 -380 -230 -578 -263 -296 -47 -453 1 -865 265 -277 178 -503 339 -503 359 0 20 70 184 156 365 134 281 137 385 25 728 -122 372 -160 402 -542 430 -369 27 -457 -15 -874 -420 -402 -391 -475 -428 -552 -280 -94 177 -267 1207 -228 1356 12 47 -30 148 -94 225 -93 112 -72 139 107 139 158 0 206 -44 166 -150 -72 -188 -48 -187 371 13 387 184 966 127 1167 -116 67 -81 162 -147 210 -147 172 0 84 278 -137 433 -192 134 -199 157 -47 162 98 3 204 -62 236 -145 31 -82 121 -150 198 -150 121 0 495 -679 674 -1225 71 -216 449 -231 529 -21 75 196 -239 550 -424 479 -90 -35 -141 13 -142 131 -1 280 -289 659 -893 1173 -474 404 -603 463 -1001 463 -293 0 -622 -88 -918 -246 -454 -241 -684 -241 -483 0 156 188 245 1404 109 1488 -166 103 -141 558 31 558 186 0 328 -226 174 -277 -261 -87 -91 -208 385 -273 352 -49 550 -31 658 59 133 110 296 -19 1149 -909 805 -841 1005 -1110 1055 -1419 33 -210 118 -381 188 -381 278 0 -136 897 -725 1571 -1381 1579 -1923 1972 -2702 1955 l-523 -11 148 288 c82 158 149 351 149 430 0 262 -513 1314 -777 1592 -304 321 -237 339 377 100z m-12100 -70 c0 -80 -337 -470 -748 -867 -412 -396 -774 -801 -806 -899 -31 -98 -142 -206 -247 -239 -104 -33 -416 -294 -693 -580 -339 -350 -504 -464 -505 -350 -1 141 2820 3080 2956 3080 24 0 43 -65 43 -145z m500 -196 c0 -71 -250 -394 -555 -719 -306 -324 -778 -826 -1050 -1115 -272 -288 -495 -592 -495 -675 0 -82 -38 -150 -83 -150 -46 0 -271 -173 -500 -385 -401 -370 -527 -615 -317 -615 55 0 100 68 100 151 0 83 176 274 391 425 214 151 468 409 562 574 95 165 380 503 635 750 254 248 656 664 893 926 474 523 970 835 1070 673 34 -55 -9 -127 -95 -160 -171 -66 -216 -339 -56 -339 226 0 70 -271 -429 -746 -291 -277 -662 -682 -825 -900 -163 -218 -667 -769 -1121 -1223 -454 -454 -825 -879 -825 -944 0 -156 1081 910 1677 1653 521 650 665 803 1361 1449 658 611 780 408 183 -306 -259 -310 -628 -759 -821 -997 -277 -344 -2356 -2572 -2600 -2786 -31 -27 -233 -275 -448 -550 -216 -275 -428 -543 -472 -595 -47 -56 -143 -15 -236 100 -111 138 -172 159 -209 70 -85 -206 -204 -144 -417 218 -138 233 -289 353 -475 375 -371 44 -555 347 -318 524 96 71 175 175 175 229 0 54 230 297 511 539 555 478 563 486 950 969 145 181 233 360 196 397 -37 38 -108 3 -157 -76 -49 -79 -120 -113 -159 -75 -114 115 174 384 351 327 160 -50 1307 973 1916 1710 141 172 445 437 675 589 229 151 511 427 626 613 199 322 391 369 391 95z m-6026 -28 c-93 -93 -197 -141 -232 -107 -98 99 53 276 235 276 153 0 153 -13 -3 -169z m8126 69 c0 -55 -67 -100 -150 -100 -82 0 -150 45 -150 100 0 55 68 100 150 100 83 0 150 -45 150 -100z m6820 -220 c-93 -93 -120 -67 -120 120 0 187 27 213 120 120 93 -93 93 -147 0 -240z m-11464 -858 c-134 -133 -170 104 -91 597 l85 531 31 -536 c16 -295 5 -561 -25 -592z m9561 999 c44 -107 1676 -1120 2474 -1537 619 -323 921 -606 788 -738 -127 -128 -807 210 -1164 578 -201 207 -417 376 -481 376 -64 0 -369 207 -679 459 -313 255 -626 435 -705 405 -87 -34 -196 58 -288 241 -80 162 -109 295 -63 295 47 0 99 -36 118 -79z m-4617 -115 c0 -52 -45 -122 -100 -156 -55 -34 -100 8 -100 94 0 86 45 156 100 156 55 0 100 -42 100 -94z m6129 -106 c29 -110 11 -225 -38 -256 -50 -31 -91 -12 -91 42 0 54 -27 169 -61 256 -33 87 -16 158 39 158 54 0 122 -90 151 -200z m1041 -228 c24 -176 10 -191 -68 -72 -112 170 -139 470 -33 364 38 -38 83 -169 101 -292z m-6770 95 c0 -171 -104 -276 -210 -211 -100 62 -2 344 121 344 49 0 89 -60 89 -133z m3953 29 c35 -58 -63 -264 -219 -459 -156 -195 -352 -463 -434 -595 -82 -133 -205 -242 -271 -242 -152 0 -329 -320 -329 -593 0 -259 -215 -267 -440 -18 -164 181 -159 203 84 446 141 141 256 319 256 396 0 77 142 181 315 230 335 97 439 226 531 664 59 281 373 387 507 171z m-12305 -171 c39 -96 87 -782 107 -1525 20 -742 86 -1530 148 -1750 212 -764 223 -850 103 -850 -65 0 -93 40 -63 89 30 48 -12 144 -94 212 -140 116 -195 66 -155 -143 9 -50 -53 -34 -138 37 -86 71 -156 217 -156 324 0 108 -68 263 -151 346 -83 83 -118 204 -78 268 40 64 82 567 93 1117 33 1695 177 2396 384 1875z m8652 -125 c0 -55 -48 -100 -106 -100 -58 0 -78 45 -44 100 34 55 82 100 106 100 24 0 44 -45 44 -100z m4659 -410 c105 -116 366 -301 580 -410 214 -109 493 -322 620 -472 126 -150 505 -382 842 -516 l612 -242 -68 -600 c-37 -330 -85 -619 -106 -642 -40 -42 -348 85 -889 367 -165 86 -480 246 -700 355 -220 109 -685 473 -1032 809 -348 336 -697 647 -774 690 -78 44 -190 171 -250 282 -88 164 -60 264 148 538 247 323 268 331 541 194 157 -78 371 -237 476 -353z m-4323 160 c-61 -159 -236 -208 -236 -67 0 106 109 217 214 217 44 0 54 -67 22 -150z m-6501 -303 c-79 -207 -135 -183 -135 59 0 113 43 179 96 147 52 -33 70 -125 39 -206z m6842 134 c-62 -185 -277 -216 -277 -39 0 87 71 158 158 158 87 0 141 -53 119 -119z m10723 -137 c0 -79 -45 -144 -100 -144 -55 0 -100 93 -100 206 0 113 45 178 100 144 55 -34 100 -127 100 -206z m-18000 -444 c0 -275 -43 -500 -95 -500 -72 0 -87 835 -17 975 66 133 112 -63 112 -475z m-3000 294 c0 -58 -45 -78 -100 -44 -55 34 -100 82 -100 106 0 24 45 44 100 44 55 0 100 -48 100 -106z m3500 -250 c0 -24 -45 -44 -100 -44 -55 0 -100 48 -100 106 0 58 45 78 100 44 55 -34 100 -82 100 -106z m7500 -143 c0 -148 -136 -189 -313 -94 -103 55 -187 165 -187 244 0 118 46 124 250 31 138 -63 250 -144 250 -181z m-8767 -593 c41 -363 28 -509 -39 -442 -107 107 -198 830 -121 966 73 127 95 57 160 -524z m11426 77 c113 -182 -293 76 -510 325 l-199 228 322 -224 c177 -123 351 -271 387 -329z m-826 157 c-30 -78 -14 -142 35 -142 49 0 257 -225 463 -500 421 -564 365 -667 -96 -175 -568 606 -828 1143 -491 1014 79 -31 119 -119 89 -197z m10296 -386 c204 -244 371 -492 371 -550 0 -58 41 -106 90 -106 127 0 331 -624 227 -693 -48 -32 -114 -169 -147 -307 -34 -137 -127 -340 -208 -450 -143 -195 -150 -192 -262 100 -86 225 -87 346 -2 483 121 195 46 767 -100 767 -47 0 -104 169 -126 375 -36 334 -49 349 -120 142 -60 -176 -101 -201 -164 -100 -107 168 -114 783 -9 783 43 0 246 -200 450 -444z m-15529 -306 c0 -192 -36 -350 -80 -350 -44 0 -85 158 -90 350 -6 193 30 350 80 350 49 0 90 -157 90 -350z m5600 -818 c468 -582 973 -1195 1122 -1364 298 -335 501 -292 287 62 -103 168 -61 151 178 -74 172 -161 313 -325 313 -364 0 -39 -191 -91 -425 -116 -529 -56 -592 -4 -1471 1219 -378 525 -803 1064 -944 1196 -197 185 -231 273 -147 375 62 74 140 131 174 128 35 -3 445 -481 913 -1062z m1149 583 c-57 -56 -449 336 -449 448 0 40 112 -34 250 -163 137 -129 226 -257 199 -285z m-5828 50 c-20 -184 18 -265 125 -265 87 0 154 87 154 200 0 111 67 200 150 200 93 0 150 -94 150 -250 0 -219 43 -250 353 -250 273 0 374 51 444 225 85 212 91 207 109 -75 10 -165 10 -360 0 -432 -10 -73 36 -198 101 -277 147 -177 410 -3 326 216 -30 79 -16 143 31 143 47 0 89 -295 93 -656 5 -423 -23 -601 -80 -500 -133 239 -277 186 -277 -102 0 -323 -222 -275 -302 65 -83 354 -356 318 -318 -42 38 -349 -196 -320 -280 35 -31 129 -111 254 -178 276 -119 40 -160 -123 -130 -526 14 -197 12 -197 -139 -6 -84 107 -153 276 -153 375 0 100 -67 181 -150 181 -93 0 -150 -94 -150 -250 0 -137 -40 -250 -88 -250 -142 0 -187 440 -105 1039 41 307 52 647 23 758 -70 266 39 531 195 476 69 -24 112 -163 96 -308z m9154 36 c179 -109 325 -242 325 -296 0 -111 -888 305 -895 420 -9 133 236 80 570 -124z m-7209 -326 c-28 -69 -50 -12 -50 125 0 138 22 194 50 125 28 -69 28 -181 0 -250z m500 -102 c-28 -68 -49 12 -47 177 3 165 25 220 50 123 26 -97 24 -232 -3 -300z m-9048 105 c-71 -71 -118 -77 -118 -15 0 134 118 252 185 185 28 -28 -2 -105 -67 -170z m15865 -274 c553 -437 581 -615 158 -1013 -315 -296 -304 -391 47 -391 158 0 332 -56 387 -125 138 -175 356 -877 292 -942 -66 -65 -917 397 -1294 702 -248 202 -283 308 -339 1036 -63 816 -20 1129 154 1129 52 0 319 -178 595 -396z m-16083 96 c0 -55 -48 -100 -106 -100 -58 0 -78 45 -44 100 34 55 82 100 106 100 24 0 44 -45 44 -100z m12637 -122 c145 -230 -44 -421 -327 -331 -203 64 -284 346 -140 490 111 110 348 29 467 -159z m1178 -66 c249 -158 623 -349 831 -424 231 -84 413 -230 469 -376 136 -358 36 -369 -385 -41 -209 162 -582 374 -830 471 -402 157 -800 457 -800 604 0 129 294 33 715 -234z m-8215 -305 c0 -114 -58 -207 -130 -207 -81 0 -130 127 -130 337 0 277 23 314 130 207 72 -71 130 -223 130 -337z m-5216 -105 c-129 -108 -301 -196 -384 -196 -87 0 -3 121 200 291 193 160 365 248 384 195 19 -52 -71 -183 -200 -290z m13836 -377 c314 -181 597 -371 629 -423 31 -51 123 -68 204 -37 98 38 147 -8 147 -135 0 -215 355 -510 1246 -1035 332 -196 618 -434 637 -531 50 -257 -1029 348 -1483 832 -192 205 -511 425 -707 490 -294 97 -1793 1244 -1793 1372 0 62 513 -182 1120 -533z m-15788 -250 c47 -564 28 -757 -86 -871 -128 -129 -146 -40 -146 725 0 479 38 871 85 871 48 0 113 -326 147 -725z m15046 158 c712 -601 821 -733 605 -733 -195 0 -1383 998 -1383 1162 0 211 56 181 778 -429z m-978 117 c68 -82 102 -150 74 -150 -27 0 -106 68 -174 150 -68 83 -102 150 -74 150 27 0 106 -67 174 -150z m-7881 -693 c-65 -114 -204 217 -207 493 -2 147 32 121 129 -100 72 -165 107 -342 78 -393z m13406 577 c-69 -28 -181 -28 -250 0 -69 28 -12 50 125 50 138 0 194 -22 125 -50z m-12777 -340 c-53 -168 -90 -188 -153 -86 -48 78 -37 191 25 266 148 179 213 88 128 -180z m3682 -460 c-81 -211 -130 -158 -128 141 1 200 25 237 90 134 49 -77 66 -201 38 -275z m8720 266 c-34 -55 -82 -100 -106 -100 -24 0 -44 45 -44 100 0 55 48 100 106 100 58 0 78 -45 44 -100z m-12090 -573 c-33 -33 -56 26 -52 131 5 117 28 141 60 61 29 -72 26 -159 -8 -192z m1140 -127 c0 -104 -45 -216 -100 -250 -58 -36 -100 68 -100 250 0 182 42 286 100 250 55 -34 100 -146 100 -250z m7764 164 c-18 -175 1144 -1220 1565 -1408 177 -79 479 -278 671 -443 281 -240 319 -312 191 -361 -176 -68 -1780 872 -1932 1132 -50 85 -264 342 -475 572 -425 460 -480 644 -195 644 104 0 183 -61 175 -136z m540 -64 c48 0 190 -101 317 -225 368 -359 1352 -1070 1627 -1174 233 -89 355 -301 172 -301 -44 0 -365 191 -714 425 -348 234 -706 470 -795 525 -303 188 -1043 884 -869 817 96 -37 214 -67 262 -67z m-1086 -775 c356 -371 859 -832 1120 -1025 761 -563 1020 -793 894 -797 -315 -8 -688 264 -1692 1238 -599 581 -1126 1057 -1171 1058 -44 1 -53 46 -19 101 110 178 212 111 868 -575z m588 -16 c340 -379 826 -806 1081 -948 645 -359 960 -620 839 -695 -56 -35 -263 60 -459 210 -197 151 -534 402 -750 559 -622 452 -1686 1565 -1495 1565 91 0 444 -311 784 -691z m-8406 491 c0 -55 -42 -100 -94 -100 -52 0 -122 45 -156 100 -34 55 8 100 94 100 86 0 156 -45 156 -100z m-820 -1200 c2 -302 -14 -505 -37 -450 -90 220 -216 1406 -159 1500 89 144 192 -409 196 -1050z m780 727 c-33 -33 -56 26 -52 131 5 117 28 141 60 61 29 -72 26 -159 -8 -192z m-1927 -252 c-87 -456 -133 -470 -133 -42 0 202 44 367 98 367 56 0 71 -138 35 -325z m-1233 125 c0 -55 -45 -100 -100 -100 -55 0 -100 45 -100 100 0 55 45 100 100 100 55 0 100 -45 100 -100z m16180 -20 c179 -179 143 -483 -107 -920 -327 -572 -518 -661 -797 -372 l-226 235 375 -66 c374 -66 526 64 215 183 -106 41 -137 121 -91 236 39 96 79 226 90 289 11 63 76 183 146 267 104 125 94 159 -55 198 -126 33 -104 50 75 58 140 7 309 -42 375 -108z m-10771 -1470 c-45 -88 -62 -216 -37 -285 24 -69 -4 -125 -64 -125 -124 0 -142 641 -37 1361 l72 489 74 -640 c41 -352 37 -712 -8 -800z m-483 779 c-74 -285 -126 -228 -124 136 1 221 29 281 87 189 48 -75 64 -221 37 -325z m-7314 -276 c-484 -524 -950 -1401 -1110 -2088 -136 -584 -63 -1573 154 -2100 139 -338 236 -393 402 -227 65 65 210 -120 420 -535 406 -799 426 -1122 55 -885 -286 181 -1522 1980 -1525 2217 -4 372 -63 730 -153 933 -142 320 700 1963 1431 2792 191 217 558 390 689 326 14 -7 -150 -202 -363 -433z m2448 214 c-33 -33 -56 26 -52 131 5 117 28 141 60 61 29 -72 26 -159 -8 -192z m6375 127 c31 -81 4 -396 -60 -700 -113 -540 -125 -554 -454 -554 -226 0 -324 41 -295 125 23 69 134 112 246 96 230 -33 324 200 327 804 1 376 131 502 236 229z m-2635 -360 c0 -162 -45 -294 -100 -294 -55 0 -100 160 -100 356 0 212 40 331 100 294 55 -34 100 -194 100 -356z m-500 19 c0 -159 30 -436 66 -616 43 -215 30 -306 -38 -264 -131 81 -353 946 -275 1072 117 190 247 88 247 -192z m966 -38 c-28 -69 -50 -12 -50 125 0 138 22 194 50 125 28 -69 28 -181 0 -250z m3092 100 c-26 -124 -74 -394 -107 -600 -60 -378 -211 -461 -579 -320 -179 69 -85 657 116 724 102 34 116 -32 62 -279 -55 -249 -40 -313 64 -279 82 27 148 230 166 512 22 329 74 467 177 467 99 0 132 -73 101 -225z m7464 -97 c-119 -119 -240 -194 -268 -165 -29 28 42 153 157 276 115 123 236 197 268 165 33 -33 -38 -157 -157 -276z m-13956 -103 c-28 -69 -50 -12 -50 125 0 138 22 194 50 125 28 -69 28 -181 0 -250z m5069 -152 c-87 -334 -207 -269 -155 85 25 169 83 269 129 223 47 -47 58 -185 26 -308z m1815 77 c-38 -118 -91 -193 -118 -165 -28 27 -20 147 18 265 38 118 91 193 118 165 28 -27 20 -147 -18 -265z m-7926 -50 c27 -137 10 -250 -38 -250 -47 0 -86 113 -86 250 0 138 17 250 38 250 21 0 60 -112 86 -250z m5084 75 c5 -41 20 -178 34 -304 14 -126 -8 -250 -48 -274 -40 -25 -91 112 -113 304 -22 192 -5 349 39 349 44 0 84 -34 88 -75z m-458 -408 c0 -456 -194 -440 -232 19 -23 284 3 374 100 341 73 -24 132 -186 132 -360z m-1857 -242 c4 -41 -38 -75 -93 -75 -55 0 -97 124 -93 275 6 244 17 252 93 75 47 -110 89 -234 93 -275z m-3250 -375 l66 -350 -191 400 c-104 220 -168 440 -140 488 68 120 186 -118 265 -538z m15474 435 c209 -189 238 -335 66 -335 -140 0 -483 295 -483 415 0 139 222 96 417 -80z m-10817 -91 c0 -24 -45 -44 -100 -44 -55 0 -100 48 -100 106 0 58 45 78 100 44 55 -34 100 -82 100 -106z m3853 -39 c-37 -60 -114 -79 -171 -44 -67 41 -57 93 29 146 161 99 234 47 142 -102z m4341 -117 c-59 -109 -150 -478 -202 -818 -148 -956 -201 -1170 -292 -1170 -145 0 -223 598 -153 1161 45 361 152 641 319 840 274 325 504 316 328 -13z m-15032 -511 c-164 -565 -229 -1951 -112 -2402 98 -378 -18 -346 -183 50 -336 807 -256 1927 199 2805 228 439 282 186 96 -453z m15807 311 c241 -149 325 -261 281 -375 -153 -397 -315 -1566 -348 -2513 l-9 -250 -241 294 c-132 162 -215 336 -184 386 32 50 69 391 84 758 14 367 99 842 189 1055 89 213 136 413 105 444 -140 140 -314 -440 -500 -1667 -39 -258 -111 -415 -181 -392 -168 55 -199 641 -67 1272 141 673 184 912 194 1075 12 187 292 151 677 -87z m874 114 c142 -53 257 -143 257 -200 0 -170 -258 -115 -450 98 -204 226 -173 242 193 102z m1995 -257 c34 -89 18 -129 -39 -94 -55 33 -99 103 -99 155 0 144 72 112 138 -61z m-7788 -108 c385 -37 888 -72 1117 -77 459 -11 732 -160 291 -160 -158 0 -259 -47 -237 -112 23 -69 345 -117 833 -125 779 -13 796 -18 796 -263 0 -237 -31 -251 -600 -265 -835 -20 -850 -23 -850 -135 0 -55 250 -100 556 -100 383 0 534 -35 487 -111 -41 -67 -225 -91 -456 -60 -213 29 -409 17 -435 -26 -60 -97 442 -203 961 -203 414 0 537 -165 162 -218 -422 -60 -4075 150 -4075 234 0 46 -163 264 -362 484 -262 291 -440 400 -650 400 -158 0 -288 45 -288 100 0 130 -231 127 -520 -6 -286 -131 -780 -809 -780 -1071 0 -165 -93 -203 -625 -253 -344 -33 -895 -126 -1225 -206 -330 -81 -779 -178 -999 -215 l-398 -67 189 209 c189 209 189 209 -227 209 -228 0 -415 -45 -415 -100 0 -55 68 -100 150 -100 316 0 130 -181 -294 -288 -551 -139 -856 -143 -856 -12 0 55 144 100 320 100 237 0 291 29 207 113 -69 69 -250 86 -475 44 -300 -56 -351 -101 -301 -261 57 -178 23 -189 -420 -136 -699 83 -813 127 -628 244 81 51 271 94 422 94 151 1 275 47 275 102 0 55 -228 100 -506 100 -312 0 -482 38 -444 100 34 55 284 100 556 100 272 0 494 40 494 89 0 152 -297 214 -708 148 -261 -42 -392 -25 -392 50 0 69 198 113 508 113 672 0 619 229 -55 241 -801 15 -631 206 208 235 637 22 752 2 704 -122 -31 -81 -9 -177 48 -212 72 -44 71 -98 -4 -173 -139 -139 -141 -438 -3 -523 146 -90 794 40 794 159 0 52 -160 95 -356 95 -212 0 -331 40 -294 100 34 55 199 100 367 100 223 0 290 38 250 143 -30 78 14 200 99 270 136 113 133 135 -31 196 -158 58 -144 79 91 141 169 44 332 27 418 -45 89 -74 277 -91 508 -48 252 47 326 95 234 152 -238 147 30 261 1014 432 522 91 1372 239 1887 329 774 136 1037 144 1506 47 769 -158 1074 -147 1146 41 43 112 140 142 336 102 151 -31 590 -86 975 -123z m7031 -131 c25 -75 -12 -112 -87 -87 -72 24 -151 103 -175 175 -25 75 12 112 87 87 72 -24 151 -103 175 -175z m-4381 -62 c0 -24 -45 -44 -100 -44 -55 0 -100 48 -100 106 0 58 45 78 100 44 55 -34 100 -82 100 -106z m6391 -245 c131 -77 119 -93 -69 -96 -227 -3 -922 247 -922 331 0 65 805 -126 991 -235z m-2391 101 c0 -55 -42 -100 -94 -100 -52 0 -122 45 -156 100 -34 55 8 100 94 100 86 0 156 -45 156 -100z m3356 -258 c-254 -186 -656 -184 -656 2 0 94 130 155 375 175 469 39 526 2 281 -177z m-1895 -47 c267 -114 634 -191 833 -175 196 17 356 -15 356 -70 0 -110 -818 -110 -1316 0 -188 42 -336 147 -366 260 -60 233 -86 234 493 -15z m-761 5 c0 -55 -42 -100 -94 -100 -52 0 -122 45 -156 100 -34 55 8 100 94 100 86 0 156 -45 156 -100z m-10134 -356 c33 -85 125 -131 204 -100 176 67 810 -579 893 -912 33 -129 128 -273 212 -320 175 -98 85 -312 -131 -312 -79 0 -144 -45 -144 -100 0 -55 -118 -100 -262 -100 -239 0 -257 28 -203 300 64 321 78 315 -735 342 -410 13 -378 195 73 408 407 192 530 375 334 495 -129 80 -623 -155 -829 -395 -94 -110 -173 -146 -175 -81 -2 66 42 147 97 181 55 34 100 163 100 286 0 400 439 639 566 308z m-5641 -410 c-69 -28 -181 -28 -250 0 -69 28 -12 50 125 50 138 0 194 -22 125 -50z m18438 -209 c-117 -400 -356 -2342 -398 -3225 -75 -1594 114 -5889 282 -6400 181 -550 439 -2200 344 -2200 -91 0 -556 1925 -736 3050 -93 582 -162 2050 -195 4150 -42 2695 -25 3361 101 3900 214 910 209 900 443 900 152 0 196 -48 159 -175z m-563 32 c0 -24 -76 -373 -169 -775 -120 -524 -170 -1208 -173 -2407 -4 -1054 -42 -1664 -104 -1643 -201 67 -248 770 -186 2793 l63 2075 284 0 c157 0 285 -20 285 -43z m-7300 -680 c646 -19 678 -32 803 -323 73 -167 152 -345 178 -394 105 -207 -649 61 -865 306 -189 215 -251 239 -324 125 -49 -77 -90 -197 -90 -266 -3 -214 -992 -187 -1429 39 -154 79 -318 120 -366 91 -47 -30 -232 7 -409 82 -406 170 -240 288 288 204 281 -45 462 -19 619 91 139 98 353 139 572 111 193 -25 654 -55 1023 -66z m1617 -295 c412 -428 817 -1209 1132 -2182 98 -302 262 -717 365 -921 259 -516 239 -575 -166 -509 -255 41 -406 9 -544 -116 -328 -298 -427 -104 -364 713 66 850 -151 1819 -571 2551 -272 473 -419 882 -318 882 36 0 245 -188 466 -418z m-8217 269 c0 -26 -180 -167 -399 -312 -262 -173 -563 -274 -875 -292 -424 -25 -449 -15 -226 86 138 62 295 167 350 233 55 65 303 163 550 216 581 125 600 127 600 69z m442 -339 c30 -48 -85 -116 -256 -150 -476 -95 -561 -69 -286 88 290 166 466 186 542 62z m2981 -287 c84 -96 260 -372 390 -614 318 -588 424 -765 557 -925 62 -75 266 -428 455 -786 679 -1288 998 -1853 1135 -2008 209 -235 172 -362 -160 -558 -165 -97 -300 -207 -300 -243 0 -37 -138 -124 -306 -193 -223 -93 -335 -97 -416 -16 -81 81 -39 138 156 212 379 144 329 240 -84 163 -205 -39 -350 -26 -350 31 0 147 295 412 457 412 79 0 143 45 143 100 0 130 -162 127 -412 -6 -110 -59 -252 -89 -318 -67 -65 21 16 103 180 182 164 78 313 224 332 324 33 170 17 172 -268 24 -373 -193 -414 -194 -414 -14 0 78 119 236 265 351 323 254 238 397 -103 173 -215 -141 -258 -142 -367 -11 -68 82 -106 163 -84 179 21 17 209 157 417 312 464 345 426 437 -62 149 -198 -116 -406 -183 -463 -148 -194 120 -103 308 206 425 174 65 281 163 244 222 -46 74 -126 73 -267 -2 -233 -125 -486 -58 -485 129 0 70 135 205 300 298 420 240 377 414 -52 209 -273 -130 -378 -140 -471 -47 -94 94 -38 188 252 427 204 169 346 350 313 402 -32 52 -195 -21 -363 -163 -168 -141 -356 -239 -418 -219 -222 74 -105 417 216 634 184 124 283 249 224 285 -57 36 -234 -28 -393 -142 -354 -252 -509 -262 -509 -32 0 157 465 706 610 720 32 3 128 -73 213 -169z m-6565 -61 c40 -103 153 -116 472 -54 557 108 592 107 520 -10 -34 -55 -192 -100 -350 -100 -168 0 -343 -78 -419 -187 -155 -221 -732 -374 -827 -219 -38 62 21 106 140 106 118 0 206 65 206 152 0 104 -70 137 -225 106 -523 -107 -1487 -162 -1601 -92 -103 64 261 143 1954 421 43 7 102 -48 130 -123z m4592 36 c37 -59 -82 -100 -292 -100 -407 0 -1158 -274 -1158 -422 0 -57 74 -67 175 -23 288 126 1702 174 1525 52 -82 -57 -285 -105 -450 -107 -507 -4 -1050 -121 -1050 -226 0 -60 167 -75 425 -37 392 58 410 51 231 -87 -107 -83 -298 -150 -425 -150 -270 0 -312 -168 -56 -224 187 -41 -857 -396 -1275 -434 -137 -13 -453 -56 -700 -96 -551 -90 -455 62 132 209 230 57 404 147 387 200 -36 110 2 114 -1169 -133 l-900 -190 -650 326 c-357 179 -740 399 -850 489 -191 155 -185 159 150 93 624 -123 1432 -43 2900 287 303 68 595 152 650 187 110 70 1423 359 1900 419 165 20 331 44 369 52 38 8 97 -30 131 -85z m-9350 -100 c0 -55 -45 -100 -100 -100 -55 0 -100 45 -100 100 0 55 45 100 100 100 55 0 100 -45 100 -100z m13625 -117 c316 3 676 12 800 19 124 8 442 -18 707 -58 540 -80 739 -291 836 -883 75 -467 -79 -470 -538 -11 -263 263 -435 350 -690 350 -187 0 -340 -45 -340 -100 0 -55 113 -100 250 -100 138 0 250 -45 250 -100 0 -55 -90 -100 -200 -100 -246 0 -265 -170 -25 -227 399 -96 -185 -195 -738 -126 -433 54 -572 114 -610 262 -36 136 -140 191 -364 193 -172 0 -381 45 -463 98 -162 105 -182 97 350 136 129 9 200 85 200 214 0 161 -100 219 -517 300 -741 143 -801 289 -83 201 330 -40 859 -71 1175 -68z m-7525 -83 c0 -55 -101 -99 -225 -98 -182 1 -196 20 -75 98 194 125 300 125 300 0z m6700 -300 c0 -55 -65 -100 -144 -100 -79 0 -172 45 -206 100 -34 55 31 100 144 100 113 0 206 -45 206 -100z m-2800 -256 c0 -24 -70 -44 -156 -44 -86 0 -128 46 -93 102 57 92 249 48 249 -58z m59 -318 c-41 -41 -397 -85 -791 -98 -488 -15 -670 8 -568 73 174 112 1470 135 1359 25z m-6809 -230 c165 -111 435 -268 600 -349 165 -81 426 -249 580 -372 275 -221 277 -232 135 -633 -298 -842 -1064 -1992 -894 -1341 78 298 -121 468 -701 599 -286 65 -722 210 -970 322 -247 113 -638 286 -867 384 -336 145 -407 220 -365 383 41 157 -21 233 -283 343 -185 79 -376 104 -428 57 -126 -115 -357 93 -357 323 0 256 98 239 824 -138 695 -363 1603 -774 1708 -774 37 0 68 90 68 200 0 156 67 200 300 200 355 0 371 62 91 360 -142 151 -189 290 -144 431 84 263 318 265 703 5z m6650 -243 c-247 -74 -709 -164 -1025 -201 -316 -36 -575 -110 -575 -164 0 -53 146 -74 325 -47 1198 186 1875 174 1875 -33 0 -43 -472 -137 -1050 -208 -985 -121 -1393 -286 -775 -312 169 -7 208 -29 100 -57 -208 -54 -235 -231 -36 -231 77 0 435 91 797 203 681 210 1108 187 1205 -66 68 -176 -167 -280 -461 -203 -119 31 -560 11 -980 -46 -672 -90 -834 -79 -1357 98 -493 167 -593 240 -596 432 -2 182 -51 225 -225 201 -495 -70 -176 176 503 387 1007 312 1328 370 2075 376 l650 4 -450 -133z m5576 47 c96 -55 298 -144 449 -197 262 -93 275 -129 275 -751 0 -748 -107 -821 -519 -352 -188 214 -353 300 -578 300 -184 0 -289 -41 -253 -100 34 -55 149 -100 256 -100 107 0 194 -50 194 -111 0 -70 -97 -86 -263 -45 -211 53 -251 36 -203 -89 49 -128 -32 -155 -465 -155 -313 0 -614 63 -747 156 -258 181 -290 344 -66 344 204 0 83 190 -191 301 -200 80 -195 87 60 93 409 9 333 171 -114 243 -214 34 -415 130 -447 212 -70 184 23 187 919 33 638 -109 712 -103 1027 92 404 249 441 256 666 126z m-9876 -727 c0 -52 -60 -71 -133 -43 -93 35 -204 -167 -362 -665 -126 -393 -316 -798 -422 -899 -220 -209 -192 -430 49 -387 88 15 392 -89 674 -232 283 -143 533 -241 556 -218 102 102 -100 354 -463 578 -449 277 -516 426 -149 334 248 -62 352 84 150 209 -169 105 -111 250 100 250 111 0 200 67 200 150 0 83 -63 150 -139 150 -147 0 -286 242 -193 335 30 29 217 -34 416 -141 200 -107 440 -194 534 -194 93 0 201 -50 239 -112 38 -61 390 -259 781 -439 392 -180 1080 -576 1530 -880 450 -303 912 -581 1026 -617 115 -36 276 -197 359 -358 83 -160 265 -320 406 -355 l254 -64 -266 -278 c-209 -219 -253 -340 -205 -563 55 -248 23 -301 -253 -423 -275 -122 -326 -120 -401 14 -47 84 -322 302 -612 485 -289 183 -683 455 -876 604 -316 245 -612 420 -1696 1001 -379 202 -704 242 -704 85 0 -159 -197 -117 -475 102 -141 111 -493 270 -782 354 -289 84 -547 211 -574 281 -27 71 81 323 241 561 160 238 337 617 394 843 198 787 260 871 543 742 139 -63 253 -158 253 -210z m1145 -189 c262 -119 352 -384 131 -384 -192 0 -975 341 -976 425 0 116 561 89 845 -41z m1655 -992 c413 -169 1065 -414 1450 -544 1078 -364 1420 -526 1488 -702 95 -247 74 -627 -38 -696 -55 -34 -100 1 -100 78 0 143 -399 372 -648 372 -77 0 -495 236 -930 525 -434 289 -1066 660 -1404 825 -338 165 -615 334 -616 375 -3 100 -49 114 798 -233z m2480 119 c37 -111 -48 -129 -404 -89 -247 28 -523 10 -612 -40 -220 -123 -656 97 -453 229 223 145 1415 63 1469 -100z m-9397 1 c108 -68 103 -96 -25 -145 -87 -33 -229 -33 -316 0 -128 49 -133 77 -25 145 73 47 156 85 183 85 28 0 110 -38 183 -85z m14343 -37 c424 -237 446 -475 43 -475 -120 1 -430 -75 -688 -167 -468 -168 -469 -168 -875 101 -575 381 -547 591 69 512 261 -34 588 -16 725 40 339 137 464 136 726 -11z m-15561 -388 c-132 -77 -216 -76 -295 3 -80 80 -30 109 185 107 259 -3 272 -16 110 -110z m16835 -137 c-129 -137 -300 -250 -380 -250 -81 0 -360 -154 -622 -342 -411 -295 -532 -334 -885 -287 -476 64 -625 -125 -414 -520 139 -258 64 -751 -113 -751 -72 0 -65 55 20 158 109 131 101 213 -48 491 -99 183 -270 357 -379 385 -117 31 -170 100 -129 166 39 63 132 90 207 61 76 -29 269 58 430 193 227 191 406 246 802 246 281 0 511 42 511 93 0 52 101 125 225 164 124 39 332 154 463 257 372 290 601 243 312 -64z m-15288 60 c-76 -48 -109 -134 -73 -192 95 -154 -220 -218 -839 -169 -302 24 -594 45 -647 47 -54 2 -5 69 108 148 114 80 450 161 748 182 297 20 609 45 691 54 123 14 125 1 12 -70z m507 22 c-72 -29 -159 -26 -192 8 -33 33 26 56 131 52 117 -5 141 -28 61 -60z m8781 -32 c122 -79 109 -97 -69 -98 -121 -1 -247 43 -281 98 -79 127 153 127 350 0z m6600 -94 c0 -219 -156 -358 -243 -217 -73 119 36 411 154 411 49 0 89 -87 89 -194z m-14800 -56 c0 -83 -89 -150 -200 -150 -221 0 -271 155 -75 234 218 88 275 70 275 -84z m15649 -876 c110 -309 235 -594 276 -634 199 -195 41 -229 -215 -47 -160 114 -383 207 -495 207 -112 0 -225 36 -252 79 -83 134 256 1031 374 992 60 -20 201 -289 312 -597z m-1602 262 c-225 -165 -320 -95 -150 110 69 84 172 123 229 88 64 -40 33 -116 -79 -198z m-14047 7 c0 -118 -55 -138 -225 -79 -552 189 -1285 -69 -1656 -583 -126 -174 -419 -253 -419 -112 0 37 98 173 219 301 153 163 187 264 113 338 -138 138 -797 -621 -885 -1020 -34 -158 -108 -288 -163 -288 -202 0 48 658 400 1050 324 362 416 406 962 458 1251 119 1654 104 1654 -65z m-2753 -138 c32 -52 -28 -141 -134 -198 -165 -89 -186 -75 -142 95 56 212 180 258 276 103z m17375 -80 c51 -243 -155 -1172 -399 -1800 -112 -289 -182 -627 -156 -750 27 -124 -131 136 -350 578 -303 610 -393 904 -377 1227 27 524 270 819 510 620 137 -114 193 -101 378 83 262 263 346 272 394 42z m-14924 -300 c-1 -96 -194 -398 -196 -308 -1 37 -29 138 -63 225 -40 104 -5 158 100 158 89 0 160 -34 159 -75z m13027 -67 c14 -50 -31 -110 -100 -133 -69 -23 -125 33 -125 125 0 169 179 176 225 8z m-1725 -247 c0 -49 -68 -116 -150 -147 -91 -35 -150 0 -150 89 0 81 68 147 150 147 82 0 150 -40 150 -89z m1500 -411 c0 -340 -32 -400 -211 -400 -151 0 -193 45 -149 159 33 88 88 268 121 400 95 378 239 282 239 -159z m-14717 9 c35 -241 -252 -640 -396 -551 -115 71 -110 269 14 594 117 308 334 283 382 -43z m2477 18 c-33 -33 -56 26 -52 131 5 117 28 141 60 61 29 -72 26 -159 -8 -192z m10469 -364 c232 36 494 102 583 147 173 89 288 27 288 -156 0 -158 -1028 -490 -1273 -412 -112 35 -332 175 -490 311 -332 285 -464 306 -637 97 -68 -82 -204 -150 -301 -150 -98 0 -202 -100 -236 -225 -88 -327 -78 -375 75 -375 76 0 199 -76 275 -169 119 -147 115 -160 -30 -106 -100 38 -341 -51 -600 -222 -238 -157 -619 -334 -847 -395 -250 -66 -479 -209 -578 -360 -159 -242 -156 -254 89 -347 139 -53 253 -142 253 -199 0 -156 -371 -122 -433 40 -32 84 -135 122 -250 92 -223 -59 -344 79 -260 297 69 180 1161 869 1377 869 85 0 279 107 432 238 246 212 264 267 161 494 -110 241 -91 271 353 536 670 402 1109 452 1399 161 194 -194 295 -220 650 -166z m-9131 262 c0 -41 -39 -135 -86 -208 -69 -109 -95 -106 -141 15 -32 82 -30 175 3 208 84 84 226 75 224 -15z m11756 -1133 c142 -279 368 -966 503 -1525 136 -559 286 -1161 334 -1336 102 -373 -56 -572 -541 -685 -165 -38 -401 -133 -525 -210 -270 -169 -299 -27 -75 364 171 300 190 739 43 1014 -81 150 -199 196 -475 183 -527 -24 -572 -11 -438 123 66 66 120 165 120 220 0 56 -53 47 -120 -20 -66 -66 -179 -120 -250 -120 -224 0 -142 274 145 488 161 121 216 207 131 209 -79 2 -244 -92 -367 -207 -123 -116 -275 -179 -337 -141 -73 45 24 191 267 406 279 246 334 338 206 341 -96 2 -175 -34 -175 -80 0 -46 -124 -139 -275 -206 -187 -83 -67 72 373 484 357 333 707 606 778 606 71 0 156 135 189 300 33 165 99 300 146 300 47 0 201 -229 343 -508z m1585 250 c133 -347 64 -468 -130 -229 -183 227 -189 387 -14 387 46 0 111 -71 144 -158z m561 -248 c0 -52 -45 -94 -100 -94 -55 0 -100 70 -100 156 0 86 45 128 100 94 55 -34 100 -104 100 -156z m-5150 6 c-34 -55 -129 -100 -212 -100 -82 0 -122 45 -88 100 34 55 129 100 212 100 82 0 122 -45 88 -100z m-3550 -400 c0 -55 -48 -100 -106 -100 -58 0 -78 45 -44 100 34 55 82 100 106 100 24 0 44 -45 44 -100z m4564 -250 c-82 -82 -232 -148 -332 -146 -146 2 -133 31 68 146 328 188 452 188 264 0z m3879 -107 c210 -210 198 -343 -31 -343 -180 0 -352 327 -234 444 78 79 89 75 265 -101z m-9183 -216 c-33 -33 -56 26 -52 131 5 117 28 141 60 61 29 -72 26 -159 -8 -192z m2723 -224 c-278 -323 -463 -463 -526 -400 -63 63 40 238 293 497 559 572 743 495 233 -97z m476 -47 c-194 -256 -397 -541 -449 -634 -145 -260 -244 -72 -102 194 133 251 821 986 874 935 17 -17 -128 -240 -323 -495z m-1017 208 c-35 -90 -126 -164 -203 -164 -202 0 -171 278 36 324 227 51 242 37 167 -160z m-7842 -108 c0 -79 -45 -172 -100 -206 -55 -34 -100 31 -100 144 0 113 45 206 100 206 55 0 100 -65 100 -144z m9700 67 c0 -43 -128 -234 -285 -425 -357 -437 -551 -798 -428 -798 52 0 257 227 457 504 199 278 435 533 524 567 114 43 344 -132 772 -589 713 -760 1074 -978 1307 -785 122 102 183 102 303 3 193 -160 189 -334 -15 -730 -91 -176 -163 -508 -160 -738 6 -398 -7 -418 -284 -410 -161 5 -370 -63 -466 -149 -203 -183 -937 -272 -990 -120 -35 96 556 512 665 467 28 -11 50 36 50 105 0 76 -147 129 -375 136 -324 9 -459 98 -1000 658 -344 356 -776 768 -959 915 l-335 269 321 500 c176 275 394 543 484 595 200 117 414 130 414 25z m-8100 -123 c0 -55 -45 -100 -100 -100 -55 0 -100 45 -100 100 0 55 45 100 100 100 55 0 100 -45 100 -100z m14300 -50 c0 -83 -44 -150 -97 -150 -53 0 -71 67 -39 150 31 83 75 150 97 150 21 0 39 -67 39 -150z m-10200 -456 c0 -52 -45 -94 -100 -94 -55 0 -100 70 -100 156 0 86 45 128 100 94 55 -34 100 -104 100 -156z m8945 72 c100 -73 165 -184 144 -245 -23 -65 -139 -8 -274 133 -253 263 -172 333 130 112z m1160 -225 c33 -162 41 -457 18 -656 -47 -400 -318 -592 -893 -632 -368 -25 -470 129 -330 498 112 293 300 331 300 60 0 -133 89 -201 304 -233 168 -25 328 -7 357 39 78 127 72 822 -10 1080 -53 166 -36 215 61 182 73 -24 160 -176 193 -338z m-15445 -14 c-33 -33 -56 26 -52 131 5 117 28 141 60 61 29 -72 26 -159 -8 -192z m1000 0 c-33 -33 -56 26 -52 131 5 117 28 141 60 61 29 -72 26 -159 -8 -192z m12933 -168 c80 -97 84 -162 12 -206 -140 -86 -305 24 -305 203 0 184 142 185 293 3z m1990 -694 c-24 -185 -71 -236 -164 -178 -86 54 -107 175 -62 355 85 340 273 193 226 -177z m-15023 62 c-33 -33 -56 26 -52 131 5 117 28 141 60 61 29 -72 26 -159 -8 -192z m-1583 -746 c-62 -185 -277 -216 -277 -39 0 87 71 158 158 158 87 0 141 -53 119 -119z m16353 -156 c89 -464 -132 -424 -275 50 -49 161 -27 225 77 225 79 0 168 -124 198 -275z m-1530 -31 c0 -52 -45 -94 -100 -94 -55 0 -100 70 -100 156 0 86 45 128 100 94 55 -34 100 -104 100 -156z m-14000 -20 c0 -69 -90 -182 -200 -251 -110 -68 -200 -214 -200 -324 0 -210 -146 -268 -250 -98 -35 55 5 168 87 250 82 83 178 240 213 350 69 217 350 276 350 73z m800 32 c0 -52 -45 -122 -100 -156 -55 -34 -100 8 -100 94 0 86 45 156 100 156 55 0 100 -42 100 -94z m14101 -81 c1 -96 29 -276 62 -400 86 -322 -145 -286 -270 42 -109 289 -62 533 104 533 57 0 104 -79 104 -175z m-14519 -392 c-17 -91 -85 -184 -149 -205 -75 -25 -98 35 -63 166 63 245 259 281 212 39z m-1995 -188 c31 -163 14 -171 -125 -55 -192 159 -215 344 -37 285 69 -23 141 -126 162 -230z m813 -345 c0 -55 -67 -100 -150 -100 -83 0 -150 45 -150 100 0 55 67 100 150 100 83 0 150 -45 150 -100z"/>
<path d="M4700 47915 c0 -46 90 -165 200 -265 110 -100 200 -139 200 -88 0 52 -90 171 -200 265 -110 94 -200 133 -200 88z"/>
<path d="M12291 44863 c-197 -71 -517 -249 -709 -396 -756 -576 -1699 -1967 -1335 -1967 76 0 190 158 253 351 222 673 1625 1949 2143 1949 86 0 157 45 157 100 0 126 -65 121 -509 -37z"/>
<path d="M12114 44294 c-185 -113 -315 -227 -288 -253 49 -49 774 344 774 419 0 86 -165 30 -486 -166z"/>
<path d="M11400 43550 c-71 -85 -106 -177 -79 -205 28 -27 108 20 179 105 71 85 106 177 79 205 -28 27 -108 -20 -179 -105z"/>
<path d="M10897 42845 c-215 -348 -217 -531 -4 -399 59 36 107 138 107 227 0 89 74 244 165 344 92 101 118 183 59 183 -59 0 -206 -160 -327 -355z"/>
<path d="M12062 42754 c-198 -302 -201 -354 -23 -354 77 0 158 132 182 300 54 363 45 366 -159 54z"/>
<path d="M12457 41633 c-35 -91 -17 -213 40 -270 164 -164 122 -362 -147 -681 -450 -535 -267 -1282 314 -1282 510 0 1174 590 1070 950 -98 339 -351 549 -674 562 -171 6 -231 32 -135 57 233 61 223 237 -18 300 -208 54 -343 292 -251 440 31 50 13 91 -39 91 -53 0 -124 -75 -160 -167z m785 -1065 c99 -72 163 -218 143 -325 -31 -156 -124 -194 -486 -196 -247 -2 -480 40 -517 94 -107 154 95 441 343 488 124 24 250 50 281 57 31 8 137 -45 236 -118z m-192 -768 c-34 -55 -115 -99 -181 -98 -71 0 -59 40 31 98 192 124 227 124 150 0z"/>
<path d="M6355 35007 c-75 -120 373 -607 559 -607 68 0 -9 146 -170 325 -162 178 -301 338 -309 356 -8 18 -44 -15 -80 -74z"/>
<path d="M7749 40494 c-61 -447 -22 -709 88 -586 77 87 130 1092 58 1092 -42 0 -108 -228 -146 -506z"/>
<path d="M8237 40852 c-102 -267 -90 -780 20 -819 68 -24 105 147 100 464 -7 532 -28 594 -120 355z"/>
<path d="M6108 40558 c-4 -105 19 -164 52 -131 34 33 37 120 8 192 -32 80 -55 56 -60 -61z"/>
<path d="M5708 40358 c-4 -105 19 -164 52 -131 34 33 37 120 8 192 -32 80 -55 56 -60 -61z"/>
<path d="M7270 39942 c-32 -318 -28 -626 10 -685 93 -142 209 955 120 1129 -38 74 -97 -125 -130 -444z"/>
<path d="M10118 38633 c39 -324 204 -397 416 -185 211 211 103 452 -201 452 -208 0 -241 -41 -215 -267z"/>
<path d="M11700 37806 c0 -58 45 -106 100 -106 55 0 100 20 100 44 0 24 -45 72 -100 106 -55 34 -100 14 -100 -44z"/>
<path d="M12131 37436 c-87 -226 251 -475 436 -322 73 61 133 195 133 298 0 242 -478 262 -569 24z"/>
<path d="M11146 36193 c-36 -58 -45 -128 -18 -154 26 -26 74 22 107 107 67 176 9 207 -89 47z"/>
<path d="M4000 30706 c0 -58 45 -106 100 -106 55 0 100 20 100 44 0 24 -45 72 -100 106 -55 34 -100 14 -100 -44z"/>
<path d="M9796 27754 c185 -190 377 -321 428 -289 122 75 -418 635 -612 635 -99 0 -36 -119 184 -346z"/>
<path d="M10800 27007 c0 -59 43 -107 95 -107 52 0 292 -304 533 -675 241 -371 514 -738 607 -814 292 -240 304 -34 18 310 -151 181 -416 553 -589 828 -289 457 -664 716 -664 458z"/>
<path d="M9800 26063 c0 -82 146 -251 325 -375 179 -125 571 -471 871 -770 589 -586 855 -540 290 51 -548 572 -1486 1263 -1486 1094z"/>
<path d="M8545 25691 c-89 -143 42 -261 380 -345 318 -78 358 48 92 289 -211 191 -377 211 -472 56z"/>
<path d="M9300 25099 c0 -56 236 -259 525 -452 289 -193 699 -484 912 -647 214 -163 434 -268 491 -233 61 38 26 118 -88 198 -104 74 -370 272 -590 439 -458 347 -1137 796 -1204 796 -25 0 -46 -46 -46 -101z"/>
<path d="M21700 16661 c0 -252 345 -558 650 -578 575 -37 850 15 850 161 0 184 -202 313 -286 182 -35 -54 -167 -131 -294 -171 -267 -83 -720 167 -720 397 0 82 -45 148 -100 148 -55 0 -100 -63 -100 -139z"/>
<path d="M3367 20037 c-300 -363 -563 -631 -1000 -1017 -205 -181 -346 -373 -313 -427 74 -119 245 -24 248 138 2 65 187 254 411 419 225 165 541 491 703 725 324 469 293 575 -49 162z"/>
<path d="M3250 18685 c-368 -346 -623 -644 -568 -662 104 -35 1344 1184 1276 1253 -22 21 -340 -245 -708 -591z"/>
<path d="M14545 14511 c-124 -122 136 -211 619 -211 398 0 541 35 511 125 -38 114 -1026 189 -1130 86z"/>
<path d="M5500 13900 c0 -55 158 -100 350 -100 193 0 350 45 350 100 0 55 -157 100 -350 100 -192 0 -350 -45 -350 -100z"/>
<path d="M6850 13899 c-35 -55 10 -128 98 -162 191 -74 298 7 206 156 -83 135 -223 137 -304 6z"/>
<path d="M5621 13487 c-467 -135 -304 -287 177 -165 220 56 375 141 345 190 -64 102 -85 101 -522 -25z"/>
<path d="M6900 11207 c-247 -102 -607 -231 -800 -286 l-350 -101 400 -8 c220 -4 596 81 836 190 240 109 498 198 575 198 76 0 139 45 139 100 0 150 -297 116 -800 -93z"/>
<path d="M15150 11700 c-36 -58 68 -100 250 -100 182 0 286 42 250 100 -34 55 -146 100 -250 100 -104 0 -216 -45 -250 -100z"/>
<path d="M4100 9561 c0 -160 189 -253 379 -187 99 35 102 78 13 186 -150 180 -392 181 -392 1z"/>
<path d="M15543 9912 c73 -119 550 -204 609 -109 26 42 -24 103 -111 137 -236 90 -560 72 -498 -28z"/>
<path d="M7525 8234 c-69 -28 -125 -118 -125 -199 0 -212 439 -130 481 90 33 171 -101 212 -356 109z"/>
<path d="M8948 7296 c-101 -163 123 -365 256 -232 73 73 60 141 -41 225 -107 89 -164 91 -215 7z"/>
<path d="M10200 6408 c0 -243 143 -408 355 -408 330 0 387 159 124 343 -249 175 -479 206 -479 65z"/>
<path d="M15653 1939 c-90 -90 -149 -237 -132 -326 40 -205 328 -216 332 -13 1 83 36 203 76 268 120 192 -99 248 -276 71z"/>
<path d="M8200 52050 c-240 -245 -620 -534 -843 -643 -224 -108 -348 -199 -275 -202 333 -13 1757 1089 1605 1241 -27 28 -246 -151 -487 -396z"/>
<path d="M9700 52357 c0 -78 -124 -241 -275 -361 -219 -173 -235 -210 -80 -182 209 39 647 686 464 686 -60 0 -109 -64 -109 -143z"/>
<path d="M22107 52210 c-215 -302 -266 -510 -126 -510 74 0 365 353 556 675 158 264 -231 115 -430 -165z"/>
<path d="M7250 51841 l-300 -258 325 216 c179 118 325 234 325 258 0 75 -42 49 -350 -216z"/>
<path d="M3750 51700 c-34 -55 6 -100 88 -100 83 0 178 45 212 100 34 55 -6 100 -88 100 -83 0 -178 -45 -212 -100z"/>
<path d="M16200 51662 c0 -29 113 -165 250 -303 138 -137 250 -302 250 -366 0 -63 -86 -9 -191 121 -106 130 -226 202 -267 161 -85 -84 349 -592 451 -529 36 22 216 -115 400 -303 322 -330 607 -446 607 -249 0 52 -129 171 -288 265 -158 93 -419 399 -579 680 -160 280 -368 525 -462 543 -94 18 -171 9 -171 -20z"/>
<path d="M24725 51527 c-124 -83 -225 -210 -225 -283 0 -72 -120 -145 -267 -162 -147 -18 -286 -88 -309 -157 -29 -89 105 -125 462 -125 524 0 792 172 419 270 l-215 56 222 237 c268 285 222 372 -87 164z"/>
<path d="M16102 50825 c2 -137 186 -370 245 -311 79 78 -47 386 -158 386 -49 0 -88 -34 -87 -75z"/>
<path d="M15931 50025 c75 -151 217 -590 317 -975 203 -785 409 -1250 555 -1250 139 0 126 49 -153 600 -137 271 -250 588 -250 703 0 376 -318 1197 -464 1197 -120 0 -121 -41 -5 -275z"/>
<path d="M15433 49893 c-123 -123 42 -693 200 -693 48 0 62 68 31 150 -32 83 -11 150 46 150 132 0 75 423 -64 468 -57 19 -153 -15 -213 -75z"/>
<path d="M15000 49472 c0 -15 134 -341 297 -725 164 -383 299 -809 301 -947 2 -137 64 -365 137 -507 74 -141 164 -377 201 -525 38 -147 112 -268 166 -268 123 0 123 66 3 292 -53 98 -189 533 -302 968 -224 860 -588 1740 -720 1740 -46 0 -83 -13 -83 -28z"/>
<path d="M14767 48675 c136 -256 181 -287 211 -145 40 187 -136 470 -293 470 -49 0 -12 -146 82 -325z"/>
<path d="M13675 48581 c121 -121 250 -190 286 -153 98 97 -158 372 -345 372 -129 0 -117 -43 59 -219z"/>
<path d="M14355 48625 c41 -96 96 -321 121 -500 25 -179 92 -325 148 -325 98 0 32 728 -84 915 -101 165 -262 86 -185 -90z"/>
<path d="M24537 45979 c-67 -109 134 -275 338 -277 69 -1 125 60 125 136 0 169 -375 283 -463 141z"/>
<path d="M24100 45600 c0 -55 45 -100 100 -100 55 0 100 45 100 100 0 55 -45 100 -100 100 -55 0 -100 -45 -100 -100z"/>
<path d="M24435 45301 c-264 -107 -397 -301 -206 -301 238 0 771 214 771 310 0 111 -278 107 -565 -9z"/>
<path d="M24219 42698 c-182 -219 -291 -398 -243 -398 80 0 243 167 611 628 290 363 -54 148 -368 -230z"/>
<path d="M24246 41571 c-194 -224 -258 -371 -163 -371 52 0 168 113 258 250 166 254 96 343 -95 121z"/>
<path d="M21300 38350 c-119 -192 -271 -350 -337 -350 -139 0 -1063 -911 -1063 -1048 0 -50 -911 -1001 -2025 -2114 -2069 -2067 -2616 -2671 -2873 -3173 -81 -156 -261 -381 -400 -500 -140 -118 -351 -350 -468 -516 -117 -165 -432 -530 -699 -811 -1024 -1076 -1164 -1243 -1100 -1307 68 -67 813 684 1655 1669 259 302 618 704 797 893 179 188 392 469 472 625 80 155 182 282 225 282 44 0 174 169 291 375 116 206 383 540 593 742 846 814 1095 1064 1391 1391 170 188 530 553 800 812 270 258 705 708 967 1000 648 721 1363 1461 1806 1869 362 333 458 511 276 511 -50 0 -189 -157 -308 -350z"/>
<path d="M1528 33950 c73 -249 411 -1185 448 -1243 15 -24 69 -2 120 50 131 131 -167 986 -421 1211 -201 177 -205 176 -147 -18z"/>
<path d="M4 32425 c-3 -313 36 -425 146 -425 187 0 188 90 4 514 l-146 336 -4 -425z"/>
<path d="M405 31950 c-1 -55 25 -201 58 -325 65 -242 237 -310 237 -94 0 153 -293 568 -295 419z"/>
<path d="M310 27647 c-297 -339 -404 -647 -225 -647 47 0 225 225 396 500 361 582 276 655 -171 147z"/>
<path d="M21177 12703 c-81 -606 -35 -1833 124 -3353 57 -550 152 -1450 210 -2000 226 -2154 842 -5221 1142 -5699 70 -110 230 -527 357 -926 126 -399 266 -725 310 -725 44 0 80 40 80 89 0 141 -295 1092 -610 1966 -159 443 -290 907 -290 1032 0 124 -40 302 -90 395 -159 298 -498 2131 -650 3518 -82 743 -204 1845 -271 2450 -67 605 -149 1708 -181 2450 -50 1154 -69 1271 -131 803z"/>
<path d="M19418 12939 c-10 -116 -43 -431 -75 -700 -44 -383 -32 -451 56 -314 61 97 95 412 75 700 -20 289 -45 430 -56 314z"/>
<path d="M24567 12433 c-37 -36 -67 -230 -67 -430 0 -199 -56 -419 -125 -488 -207 -207 -223 -2708 -26 -4071 92 -637 154 -1550 138 -2027 -28 -800 -15 -867 163 -867 168 0 198 -89 231 -700 54 -991 119 -942 119 89 0 556 -36 850 -100 811 -63 -39 -97 206 -93 669 5 501 34 668 93 531 56 -131 88 137 93 775 5 724 -25 969 -117 950 -74 -15 -128 95 -136 275 -37 894 -68 1182 -109 1025 -86 -331 -198 -174 -198 279 0 349 33 442 141 401 97 -38 135 14 122 170 -10 124 -13 624 -7 1111 9 743 35 876 161 828 117 -45 148 23 143 314 -6 299 -24 333 -93 172 -82 -191 -86 -190 -93 25 -7 221 -110 289 -240 158z"/>
<path d="M24931 9850 c-1 -330 18 -477 40 -327 23 150 24 420 1 600 -22 180 -40 57 -41 -273z"/>
<path d="M20300 7725 c0 -167 194 -1266 392 -2225 51 -247 135 -562 187 -700 52 -137 125 -464 163 -725 39 -261 112 -475 164 -475 128 0 129 -9 -210 1350 -164 660 -353 1594 -419 2075 -67 481 -156 875 -199 875 -43 0 -78 -79 -78 -175z"/>
<path d="M1470 5000 c-501 -1107 -749 -2838 -423 -2963 246 -94 271 -5 136 496 -131 492 -26 1151 285 1772 80 161 129 417 108 569 -27 193 -58 231 -106 126z"/>
<path d="M301 4551 c-68 -82 -164 -124 -212 -94 -50 31 -85 -358 -81 -876 l9 -931 166 771 c92 425 223 828 292 895 144 142 167 384 37 384 -48 0 -143 -67 -211 -149z"/>
<path d="M760 4575 c-18 -69 -125 -440 -237 -825 -113 -385 -232 -1150 -266 -1700 -33 -550 -88 -1236 -120 -1525 -49 -428 -32 -525 91 -525 125 0 162 254 216 1475 58 1316 236 2386 506 3050 43 106 26 175 -42 175 -63 0 -129 -56 -148 -125z"/>
<path d="M8500 4116 c0 -55 34 -114 75 -133 118 -52 510 -2138 590 -3133 55 -697 87 -827 141 -575 84 397 -48 1765 -288 2975 -134 676 -221 907 -348 932 -94 18 -170 -12 -170 -66z"/>
<path d="M24319 1750 c-2 -165 19 -245 47 -177 27 68 29 203 3 300 -25 97 -47 42 -50 -123z"/>
<path d="M21300 1564 c0 -84 40 -177 89 -207 48 -30 167 -348 264 -706 97 -358 217 -651 266 -651 200 0 -275 1602 -496 1676 -68 22 -123 -28 -123 -112z"/>
<path d="M24600 1200 c0 -376 -172 -395 -228 -25 -34 221 -45 202 -57 -100 -14 -350 4 -375 274 -375 279 0 287 13 212 345 -43 190 -53 370 -23 400 31 30 3 55 -61 55 -64 0 -117 -135 -117 -300z"/>
</g>
</svg>