<svg xmlns="http://www.w3.org/2000/svg" version="1.0" width="250" height="525" viewBox="0 0 250.000000 525.000000" preserveAspectRatio="xMidYMid meet">
<metadata>
Created by potrace 1.10, written by Peter Selinger 2001-2011
</metadata>
<g transform="translate(0.000000,525.000000) scale(0.010000,-0.010000)" fill="#555555" stroke="none">
<path d="M0 52363 c0 -202 591 -235 4598 -260 1953 -12 3755 -34 4002 -49 248 -15 1688 -40 3200 -56 3119 -33 4515 -127 5166 -348 248 -85 607 -173 797 -198 491 -63 1305 -714 1445 -1156 145 -462 88 -821 -135 -853 -97 -14 -258 -126 -358 -249 -154 -191 -291 -226 -948 -247 -422 -13 -767 18 -767 68 0 50 158 249 350 442 275 275 350 430 350 724 0 206 -68 472 -151 591 -145 207 -227 216 -1925 226 -4408 26 -6154 6 -7224 -84 -632 -53 -1442 -92 -1800 -87 -357 6 -828 -41 -1046 -103 -228 -65 -1222 -115 -2350 -119 -1075 -3 -2235 -35 -2579 -69 l-625 -64 0 -582 0 -582 375 -100 c206 -54 867 -148 1468 -209 601 -60 1130 -132 1174 -160 45 -27 -20 -157 -143 -288 l-224 -239 -1300 130 c-715 72 -1319 114 -1342 94 -121 -105 204 -186 1199 -300 606 -69 1186 -152 1288 -184 167 -53 357 -333 279 -411 -17 -17 -626 19 -1353 80 -1207 101 -1556 81 -1396 -79 32 -32 501 -99 1042 -149 540 -50 1203 -125 1473 -167 l490 -76 -476 -370 c-613 -478 -1307 -708 -2007 -664 -418 26 -547 1 -547 -105 0 -113 150 -127 789 -74 1003 84 1319 194 2069 726 335 237 853 495 1150 574 298 79 880 243 1292 365 726 215 2910 607 2989 537 22 -19 -17 -102 -86 -185 -184 -222 -48 -634 222 -672 184 -26 225 -95 225 -382 0 -343 8 -350 400 -344 220 4 469 39 553 78 126 58 146 1 114 -333 -25 -262 19 -492 126 -654 127 -194 135 -261 35 -295 -128 -45 -1460 -352 -1525 -352 -19 0 -13 82 13 182 26 100 -23 241 -109 312 -223 185 -194 569 62 825 122 122 171 234 110 255 -59 19 -86 120 -59 222 33 125 -38 244 -211 357 -142 94 -259 231 -259 306 0 177 -597 339 -825 223 -232 -118 -222 -441 25 -755 110 -140 200 -317 200 -393 0 -76 131 -165 292 -197 270 -54 288 -85 236 -404 -43 -261 -2 -419 167 -647 122 -166 207 -314 189 -329 -170 -134 -1387 -515 -1451 -454 -46 44 -195 95 -333 114 -263 35 -308 262 -148 759 115 361 -187 180 -329 -197 -97 -257 -92 -371 30 -616 88 -175 113 -337 61 -389 -49 -49 -411 -139 -805 -200 -623 -96 -736 -90 -878 52 -149 149 -149 181 1 410 89 137 254 278 365 313 289 92 257 351 -42 351 -334 0 -781 -588 -737 -969 23 -201 125 -328 360 -445 l329 -164 -489 -359 c-528 -388 -1459 -662 -1638 -483 -129 129 53 708 333 1064 178 225 182 256 34 256 -310 0 -747 -584 -747 -998 0 -420 168 -616 548 -637 281 -17 330 -113 102 -201 -174 -67 -201 -421 -40 -520 61 -38 175 -222 253 -410 149 -356 337 -368 337 -23 0 297 273 767 522 901 l221 118 -238 88 -237 87 341 252 c188 138 454 277 591 309 138 32 348 119 469 194 655 408 988 545 1549 635 341 55 630 90 642 78 32 -34 62 -1501 50 -2441 -7 -582 -53 -861 -160 -968 -223 -223 -187 -295 251 -505 220 -105 399 -223 399 -261 0 -39 120 -245 267 -459 312 -456 728 -2260 731 -3172 1 -422 37 -572 127 -543 69 23 140 193 158 378 18 186 89 385 158 443 70 58 184 308 254 555 203 716 491 1209 1054 1803 288 305 555 653 594 775 86 272 217 287 283 32 102 -389 -63 -706 -773 -1487 -713 -784 -1160 -1541 -1302 -2207 -61 -290 -46 -330 112 -299 130 25 229 212 344 652 202 774 358 1015 1205 1860 446 445 876 765 1246 929 729 322 1156 652 1482 1145 276 418 560 525 560 212 0 -296 -547 -969 -1146 -1412 -305 -225 -554 -475 -554 -556 0 -223 151 -176 294 92 70 131 233 287 362 345 128 59 410 266 626 461 216 195 438 355 494 355 57 0 353 271 660 602 585 632 822 1184 706 1645 -50 199 -32 243 83 199 210 -81 372 -484 305 -761 -32 -129 -165 -351 -297 -494 -137 -148 -214 -324 -180 -412 73 -190 -729 -1035 -1358 -1431 -1081 -680 -2086 -1676 -2092 -2073 -4 -241 -254 -219 -499 44 -278 298 -257 471 108 913 171 208 285 405 253 437 -68 68 -664 -161 -824 -317 -380 -369 -446 -1012 -142 -1369 895 -1049 1021 -1370 880 -2242 -115 -703 -48 -1588 174 -2328 118 -390 192 -508 272 -428 79 79 77 213 -7 487 -240 781 -319 1566 -218 2178 164 995 135 1173 -263 1639 -284 331 -337 450 -242 543 94 91 182 46 392 -202 333 -396 499 -1161 439 -2030 -42 -601 -17 -703 327 -1350 495 -932 863 -1909 902 -2400 18 -220 -16 -701 -76 -1068 -143 -881 18 -1543 740 -3044 447 -928 464 -1729 49 -2273 -313 -411 -377 -424 -868 -185 -265 130 -372 261 -442 541 -80 324 -57 420 183 765 273 395 273 396 109 880 -231 680 -465 1019 -1045 1515 -511 436 -633 762 -413 1110 54 85 49 206 -14 307 -74 118 -55 328 65 744 140 479 220 599 463 691 352 133 413 415 69 316 -597 -170 -975 -1042 -975 -2250 0 -589 31 -717 200 -822 204 -128 275 -377 107 -377 -382 0 -599 224 -860 889 -227 580 -266 801 -219 1257 59 567 -38 704 -308 434 -93 -93 -120 -91 -120 13 0 175 -575 1308 -782 1540 -113 127 -256 169 -466 138 -623 -94 -1099 513 -1381 1759 -142 629 -140 745 29 1550 100 478 254 1067 341 1308 232 637 206 1450 -59 1923 -355 632 -524 453 -232 -246 203 -485 189 -1157 -34 -1682 -234 -549 -359 -1415 -347 -2418 8 -711 -6 -771 -146 -630 -141 140 -184 132 -447 -90 -388 -326 -476 -309 -476 90 0 456 181 964 451 1265 345 384 446 638 514 1295 55 520 40 605 -101 605 -124 0 -164 -95 -164 -394 0 -217 -39 -418 -87 -448 -48 -30 -116 -199 -152 -377 -35 -178 -178 -442 -316 -586 -331 -346 -511 -1277 -386 -2002 102 -591 290 -749 386 -323 34 154 149 393 255 530 l192 250 155 -218 c85 -120 248 -233 362 -250 138 -21 276 -192 414 -514 l208 -481 -227 -219 c-159 -152 -241 -180 -274 -93 -26 69 -88 125 -138 125 -152 0 -104 -220 78 -352 139 -102 216 -92 425 54 140 98 484 206 763 240 614 73 696 3 1131 -967 166 -371 361 -675 432 -675 94 0 129 -203 129 -744 0 -643 31 -773 225 -954 124 -115 225 -261 225 -324 0 -64 94 -215 209 -338 208 -221 208 -224 11 -329 -163 -88 -207 -71 -250 91 -63 245 -370 263 -370 23 -1 -96 -96 -331 -212 -521 -166 -273 -199 -447 -155 -817 l56 -470 -320 101 c-175 56 -421 125 -546 154 -234 54 -551 429 -658 778 -33 110 -108 538 -166 950 -127 906 -513 1598 -1158 2078 -434 323 -643 675 -229 385 160 -112 277 -124 475 -49 285 108 713 470 713 603 0 153 -235 85 -471 -136 -205 -193 -272 -206 -556 -107 -178 62 -512 162 -743 222 -746 194 -1056 955 -678 1668 145 274 125 927 -38 1186 -152 242 -281 990 -221 1281 57 276 103 315 337 287 l271 -32 -11 749 c-13 838 50 1039 268 859 232 -193 442 -33 442 338 0 431 189 982 393 1143 140 112 132 147 -79 325 -269 228 -307 235 -514 97 -132 -89 -132 -112 8 -194 136 -81 142 -171 45 -659 -97 -486 -155 -583 -413 -692 -308 -129 -540 -630 -540 -1165 0 -131 -88 -294 -195 -360 -269 -169 -400 -713 -298 -1240 46 -240 86 -493 89 -562 7 -213 -374 -138 -637 125 -137 138 -320 250 -406 250 -176 0 -568 201 -671 344 -37 52 -70 889 -72 1859 -2 970 -32 1837 -66 1926 -110 287 -683 385 -2090 359 -1255 -23 -1354 -39 -1354 -215 0 -179 79 -189 1325 -161 1836 40 1770 93 1795 -1441 23 -1349 21 -1539 -15 -2121 -14 -220 -15 -1411 -2 -2646 26 -2464 3 -2553 -513 -2025 l-293 300 -8 3361 c-7 2975 -27 3384 -174 3555 -136 160 -338 203 -1140 244 l-975 50 0 -240 c0 -234 25 -242 875 -270 l875 -29 -22 -500 c-27 -632 -64 -7530 -45 -8600 7 -440 13 -3072 12 -5850 -1 -2777 1 -8774 5 -13325 l6 -8275 247 0 247 0 6 1825 c3 1004 0 3917 -6 6474 l-11 4649 330 -299 c182 -165 350 -312 375 -327 25 -16 -31 -157 -124 -316 -286 -484 -164 -1481 241 -1969 62 -75 113 -725 122 -1574 10 -796 50 -1479 89 -1519 40 -39 286 166 547 456 323 359 671 616 1087 803 571 256 620 305 741 735 70 253 101 599 67 768 -38 190 -5 418 87 596 208 403 187 597 -98 895 -136 142 -260 369 -275 506 -28 243 -18 246 622 216 358 -18 796 -77 973 -133 374 -116 727 -517 727 -825 0 -269 -307 -466 -604 -389 -214 56 -224 37 -166 -319 42 -257 10 -479 -100 -691 -91 -175 -188 -685 -221 -1162 l-59 -850 -371 -31 c-314 -26 -468 -136 -1000 -714 -786 -853 -1316 -1888 -1514 -2955 -257 -1388 -361 -2175 -397 -3025 -31 -729 -15 -825 138 -825 95 0 199 68 230 150 75 196 464 196 464 0 0 -112 119 -150 470 -150 366 0 443 27 350 120 -185 185 -142 380 82 380 119 0 249 -103 316 -250 184 -403 252 -294 264 421 16 943 69 1180 448 2004 57 124 78 250 47 282 -80 80 283 1080 408 1121 196 66 333 -384 266 -872 -51 -368 -29 -514 94 -637 106 -105 159 -337 159 -689 0 -292 14 -819 30 -1171 l29 -641 1182 -33 1182 -32 -74 2773 c-41 1526 -70 2864 -63 2974 16 296 -181 1880 -354 2834 -83 459 -129 857 -101 885 28 28 145 -134 260 -359 134 -262 277 -410 399 -410 230 0 311 -187 186 -430 -61 -120 -43 -338 55 -650 223 -710 279 -1800 117 -2257 -216 -611 -134 -691 637 -619 688 64 996 -26 857 -251 -120 -193 -128 -1181 -15 -1682 71 -313 65 -575 -22 -913 -102 -399 -97 -534 35 -848 86 -206 156 -526 156 -712 0 -271 39 -338 200 -338 163 0 200 67 200 360 0 198 -70 507 -156 688 -123 259 -138 462 -71 965 49 364 47 799 -4 1014 -49 207 -61 490 -27 628 62 246 68 247 302 73 353 -263 432 -932 165 -1385 l-205 -347 201 -508 c164 -418 184 -597 110 -1003 -78 -431 -69 -491 73 -464 288 56 374 818 163 1439 -169 498 -171 565 -24 914 88 207 180 654 206 994 57 755 427 1332 854 1332 l263 0 -67 -1125 c-207 -3477 -208 -3575 -57 -3575 115 0 163 283 234 1375 50 756 90 1810 90 2342 0 831 26 982 185 1082 101 63 203 96 226 73 62 -61 -227 -3636 -304 -3760 -35 -58 -35 -332 2 -609 l67 -503 820 0 c752 0 829 19 928 225 241 502 232 589 -84 884 -419 391 -753 388 -840 -9 -87 -396 -350 -399 -350 -4 0 575 862 707 1389 214 328 -306 386 -599 211 -1060 -96 -253 -88 -262 225 -231 379 36 479 323 243 700 -180 288 -294 1280 -171 1478 116 186 103 204 542 -747 203 -440 414 -867 468 -950 54 -82 125 -229 158 -325 47 -142 177 -175 686 -175 581 0 632 18 688 243 56 221 91 234 382 151 176 -50 358 -160 404 -243 76 -136 575 -223 575 -101 0 50 -208 478 -786 1618 -173 340 -314 713 -314 830 0 117 -60 333 -134 482 -73 148 -192 720 -263 1270 -71 550 -167 1073 -213 1162 -46 89 -104 359 -129 600 -26 241 -71 618 -101 838 -30 220 -73 625 -97 899 l-44 499 155 -299 c85 -164 283 -447 440 -627 157 -181 286 -390 286 -465 0 -75 135 -393 300 -707 165 -314 300 -695 300 -847 0 -152 89 -390 199 -529 154 -196 221 -513 301 -1425 57 -645 195 -1448 308 -1786 112 -337 204 -827 204 -1088 l-1 -475 635 0 c593 0 657 23 990 356 302 302 386 339 559 247 111 -60 230 -218 263 -351 55 -219 109 -241 542 -222 l481 20 31 6200 c16 3410 19 7910 5 10000 -26 4116 19 4565 468 4632 280 41 299 418 21 418 -107 0 -222 -45 -256 -100 -132 -214 -234 -80 -299 392 -78 566 183 1303 541 1526 114 72 208 233 208 360 0 195 -28 214 -193 126 -157 -85 -205 -66 -257 97 -35 111 -192 267 -347 348 -156 80 -376 295 -488 477 -113 183 -377 428 -587 546 -210 118 -679 414 -1041 657 -668 448 -3088 1671 -3306 1671 -65 0 -267 101 -449 225 -384 261 -423 533 -129 906 379 482 514 949 441 1530 -37 296 -28 538 19 537 102 -2 1213 -839 1787 -1345 220 -194 612 -499 870 -678 1337 -924 1692 -1214 2392 -1954 420 -444 881 -1043 1025 -1333 l263 -527 -4 444 c-3 457 -73 626 -484 1166 l-237 312 19 3334 c11 1833 21 3378 23 3433 2 55 -32 753 -75 1550 -92 1696 -90 1785 59 2900 63 468 128 1300 144 1850 37 1188 116 1606 374 1974 125 176 182 399 162 624 l-31 351 -478 -410 c-263 -225 -568 -574 -678 -774 -110 -201 -179 -275 -153 -165 27 110 77 380 112 600 36 220 131 548 213 730 88 196 122 446 85 617 -60 274 137 838 322 919 102 45 627 751 627 843 0 40 -125 190 -278 332 -275 255 -278 272 -225 1176 44 770 89 956 278 1157 124 131 225 344 225 473 0 220 -11 224 -183 68 -237 -214 -317 -208 -317 23 0 919 -1138 1650 -1760 1130 -424 -354 -490 -611 -491 -1897 -1 -1298 -55 -1453 -469 -1345 -145 38 -186 115 -153 285 24 128 14 559 -22 958 -79 860 71 1418 474 1763 l271 233 -550 -78 c-302 -43 -673 -75 -823 -72 -327 7 -1138 707 -1412 1219 -337 629 -1074 1169 -1740 1274 -693 110 -483 343 308 341 699 -2 1382 -395 1959 -1129 455 -579 980 -970 1303 -970 63 0 241 65 396 145 241 125 290 224 346 707 55 464 33 609 -126 832 -415 583 -207 927 313 518 245 -192 374 -472 519 -1127 89 -400 305 -337 460 135 188 570 469 731 1150 661 493 -51 547 -38 547 136 0 153 -71 193 -339 193 -210 0 -362 57 -397 150 -47 123 -293 150 -1341 150 -1245 0 -1298 -9 -1741 -290 -540 -342 -616 -445 -532 -711 79 -248 509 -267 767 -34 171 156 183 153 183 -34 0 -234 -241 -476 -617 -618 -223 -85 -307 -64 -513 127 -136 126 -280 376 -319 555 -62 281 -27 371 259 665 l329 340 -10369 0 c-8724 0 -10370 -22 -10370 -137z m16573 -232 c-97 -26 -232 -24 -300 3 -68 28 12 49 177 47 165 -3 220 -25 123 -50z m-6198 -1330 c289 0 525 -35 525 -76 -1 -41 -204 -159 -453 -261 -383 -158 -521 -169 -894 -75 -692 174 -725 160 -744 -314 -46 -1203 -11 -1100 -351 -1032 -169 34 -397 151 -506 261 -178 177 -184 222 -56 422 78 123 225 393 326 600 148 303 227 367 406 327 122 -26 357 15 522 94 165 78 390 122 500 99 110 -24 436 -44 725 -45z m3146 -658 c566 -598 633 -641 750 -481 71 97 129 270 129 385 0 293 276 653 500 653 282 0 343 -187 135 -417 -154 -171 -180 -343 -157 -1036 26 -772 13 -836 -184 -899 -411 -130 -876 41 -1167 431 -152 204 -303 394 -335 421 -33 28 -182 261 -332 519 -296 511 -910 932 -1402 963 -665 42 -326 118 525 118 l917 0 621 -657z m-10985 -107 c300 -299 317 -367 133 -520 -98 -81 -173 -59 -299 88 -227 265 -490 247 -751 -54 -285 -327 -419 -316 -419 35 0 642 856 932 1336 451z m3484 -41 c262 -262 296 -355 246 -669 -60 -366 -403 -822 -527 -699 -36 37 -11 199 56 361 214 517 -284 1012 -871 864 -344 -86 -468 34 -265 258 120 132 307 190 614 190 360 0 499 -57 747 -305z m10350 -120 c335 -368 419 -613 361 -1050 -39 -285 -145 -494 -343 -670 -343 -306 -490 -317 -802 -62 -187 152 -210 219 -114 317 92 94 182 97 364 15 187 -86 288 -77 452 38 465 325 31 1058 -639 1081 -388 14 -515 140 -412 409 95 247 887 193 1133 -78z m-5473 -281 c-120 -224 4 -529 278 -682 289 -162 62 -240 -325 -112 -592 195 -731 800 -227 991 301 113 401 41 274 -197z m-3397 -37 c0 -275 393 -631 791 -718 520 -112 569 -161 259 -253 -303 -91 -1073 47 -1319 236 -185 143 -265 666 -128 832 188 226 397 175 397 -97z m-2756 -367 c-179 -289 -528 50 -397 385 61 158 87 152 260 -60 106 -130 167 -276 137 -325z m19139 -528 c21 -105 -7 -159 -63 -124 -55 34 -242 -72 -416 -235 -254 -236 -311 -362 -286 -624 31 -319 45 -328 457 -310 297 13 425 -21 425 -114 0 -74 -71 -161 -158 -194 -563 -216 -1242 181 -1242 727 0 680 1168 1475 1283 874z m-10638 -71 c-32 -52 -101 -68 -154 -36 -52 32 -68 101 -36 154 32 52 101 68 154 36 52 -32 68 -101 36 -154z m-7476 -78 c395 -37 751 -100 791 -140 41 -40 -5 -73 -101 -73 -97 0 -695 -157 -1330 -350 -635 -192 -1274 -350 -1419 -350 -558 0 -910 509 -556 804 130 107 180 93 306 -87 270 -386 494 -443 1248 -316 381 65 692 158 692 208 0 123 -249 114 -714 -25 -484 -145 -886 4 -886 328 0 207 28 213 625 143 344 -41 948 -105 1344 -142z m15135 33 c85 -103 94 -188 28 -254 -67 -67 -143 -49 -228 54 -221 266 -404 184 -404 -181 0 -423 238 -641 744 -683 376 -30 386 -40 218 -207 -385 -382 -1300 -84 -1450 473 -104 389 -2 670 298 826 327 168 640 157 794 -28z m-10804 -276 c0 -72 -46 -176 -103 -233 -156 -156 -6 -432 307 -567 l279 -120 -342 -162 c-320 -153 -341 -152 -341 12 0 198 -234 432 -333 333 -36 -35 -11 -130 56 -210 97 -118 76 -182 -112 -334 -308 -250 -611 -247 -611 5 0 107 46 222 102 257 56 35 74 107 41 160 -33 54 -6 163 60 242 65 79 93 251 60 381 -79 315 -9 366 504 366 289 0 433 -43 433 -130z m1878 -14 c28 -28 6 -109 -49 -179 -166 -211 -216 -564 -94 -658 292 -224 481 -212 722 48 135 145 271 239 302 207 93 -93 -243 -535 -495 -649 -245 -112 -564 -674 -564 -995 0 -197 177 -430 326 -430 47 0 57 192 22 427 -53 354 -29 459 141 613 192 174 222 176 455 23 137 -90 361 -163 498 -163 203 0 260 -62 312 -334 74 -399 -112 -1166 -283 -1166 -66 1 -391 112 -721 248 -474 195 -778 248 -1451 250 l-850 2 -144 325 c-185 418 -154 771 92 1016 166 166 233 177 453 77 306 -139 650 -155 650 -30 0 49 -90 112 -200 141 -226 59 -274 271 -61 271 170 0 315 332 167 381 -58 20 -106 119 -106 221 0 103 -45 214 -100 248 -55 34 -100 110 -100 170 0 106 965 48 1078 -64z m-3154 -672 c-137 -137 -424 13 -424 221 0 101 101 255 225 342 218 154 226 149 257 -157 18 -173 -8 -356 -58 -406z m4264 654 c263 -53 312 -108 312 -354 0 -420 -247 -462 -557 -94 -329 391 -443 392 -443 3 0 -239 -39 -300 -175 -274 -300 57 -272 446 44 612 337 177 414 187 819 107z m-2306 -416 c29 -200 -2 -222 -241 -179 -530 96 -582 499 -57 438 189 -22 275 -97 298 -259z m3018 178 c0 -55 -45 -100 -100 -100 -55 0 -100 45 -100 100 0 55 45 100 100 100 55 0 100 -45 100 -100z m1409 -397 c640 -260 1215 -644 1085 -725 -24 -15 -179 -97 -344 -181 -171 -88 -314 -249 -332 -376 -19 -129 -164 -291 -344 -385 -299 -154 -319 -152 -492 62 -195 240 -161 426 61 341 75 -29 166 -5 203 54 36 59 15 107 -47 107 -62 0 -99 101 -81 225 21 148 101 225 232 225 218 0 271 -213 112 -450 -55 -82 9 -48 142 76 195 182 221 261 134 400 -178 285 -529 270 -849 -36 -159 -153 -289 -360 -289 -462 0 -179 -373 -400 -525 -310 -41 24 -76 142 -77 263 0 120 -43 285 -93 365 -79 125 -123 119 -301 -43 -214 -193 -369 -137 -407 147 -50 371 -2 424 328 357 877 -179 926 -177 1118 35 212 234 152 269 -145 84 -144 -90 -245 -95 -367 -18 -264 166 -269 334 -14 436 367 147 515 125 1292 -191z m2224 154 c30 -78 -10 -196 -89 -262 -79 -66 -145 -215 -146 -332 -1 -253 -161 -534 -251 -443 -35 35 -87 239 -116 454 -38 284 -7 436 115 558 206 206 414 216 487 25z m-9833 -301 c0 -211 -187 -291 -354 -152 -218 180 -177 296 104 296 151 0 250 -57 250 -144z m11846 50 c68 -110 -68 -242 -528 -515 -207 -122 -319 -260 -299 -365 36 -190 214 -242 1631 -480 550 -92 1284 -230 1631 -307 347 -76 854 -139 1125 -139 427 0 494 27 494 200 0 110 34 199 75 198 97 -3 414 -277 708 -613 223 -253 226 -278 72 -575 -166 -321 -426 -399 -636 -189 -86 86 -874 130 -2783 153 -1504 19 -2743 76 -2848 132 -188 101 -361 554 -253 662 66 66 1730 -97 3465 -341 1667 -233 2136 -266 2061 -144 -35 56 -322 131 -638 165 -315 34 -888 126 -1273 205 -385 78 -1260 189 -1944 246 -1552 130 -1972 247 -2033 562 -60 315 -8 347 442 275 242 -39 385 -22 385 44 0 163 510 729 742 823 279 113 336 113 404 3z m-11396 -614 c0 -78 -101 -156 -225 -174 -248 -35 -291 76 -104 263 150 150 329 101 329 -89z m11750 -359 c0 -18 -136 -33 -303 -33 -333 0 -519 263 -288 405 91 57 215 13 364 -127 125 -117 227 -228 227 -245z m-2921 -190 c162 -196 343 -454 402 -575 359 -726 553 -1292 767 -2239 l241 -1067 -186 -1072 c-192 -1103 -257 -1251 -953 -2190 -224 -302 -460 -671 -524 -820 -85 -197 -234 -301 -547 -384 -841 -225 -2131 -1203 -2624 -1991 -335 -535 -555 -1278 -555 -1873 0 -396 37 -532 144 -532 79 0 144 79 145 175 14 1428 218 1935 1149 2867 831 830 1577 1197 2486 1220 511 13 818 84 1229 285 496 243 559 310 660 714 65 257 195 490 309 551 177 94 189 81 119 -128 -43 -129 -103 -413 -134 -632 -50 -348 -130 -449 -626 -790 -547 -376 -600 -391 -1305 -372 -725 19 -747 12 -1482 -467 -701 -458 -1594 -1328 -1594 -1552 0 -56 -107 -331 -237 -611 -351 -753 -429 -1064 -384 -1527 34 -349 82 -427 300 -481 695 -175 1314 -1078 1440 -2102 40 -330 101 -761 136 -958 48 -276 -6 -510 -240 -1025 -167 -367 -334 -881 -371 -1142 -104 -716 -184 -793 -371 -356 -326 761 -501 1764 -383 2189 168 605 134 1401 -76 1821 -103 204 -220 551 -259 771 -40 220 -220 580 -401 801 -371 454 -494 877 -463 1599 12 275 -33 725 -99 1000 -66 275 -132 793 -147 1150 l-28 650 518 500 c284 275 835 711 1223 969 928 617 1842 1592 1842 1965 0 153 66 365 147 472 81 107 148 303 150 437 2 133 58 394 125 579 96 266 95 378 -5 538 -106 170 -94 254 78 533 257 415 257 558 -5 1001 l-210 356 235 2 235 2 -241 185 c-278 215 -228 511 88 511 195 0 248 -97 208 -386 -10 -74 41 -115 113 -91 73 24 132 175 132 335 0 273 -26 292 -389 292 -385 0 -476 -73 -602 -479 -46 -147 -93 -160 -260 -70 -200 107 -199 114 73 380 153 150 402 351 553 448 266 170 378 471 175 471 -55 0 -100 -65 -100 -144 0 -337 -539 -300 -629 43 -80 306 136 502 647 589 37 7 200 -148 361 -345z m-2234 -559 c174 -79 255 -195 255 -364 0 -136 72 -300 159 -364 140 -103 121 -160 -168 -486 -180 -204 -376 -369 -434 -367 -59 2 -228 110 -376 240 -350 308 -462 869 -240 1207 179 274 413 312 804 134z m1155 -243 c0 -74 -95 -185 -212 -247 -169 -91 -244 -81 -375 53 -151 154 -145 180 75 361 183 150 270 169 375 81 75 -62 137 -174 137 -248z m-3980 -344 c306 -56 843 -247 1193 -423 l637 -321 -1250 -61 c-687 -33 -1497 -36 -1800 -6 -737 73 -1167 67 -2339 -33 -825 -70 -980 -61 -942 54 61 182 1038 537 1981 719 932 181 1795 205 2520 71z m4096 -889 c379 -387 446 -615 321 -1083 -40 -151 -136 -225 -291 -225 -127 0 -369 -116 -538 -258 l-307 -259 -92 243 c-287 756 -233 1338 169 1799 218 249 306 223 738 -217z m5661 192 c443 -413 390 -1134 -127 -1725 -309 -353 -349 -346 -286 50 54 335 -24 480 -707 1328 -350 433 -260 543 449 545 319 2 521 -58 671 -198z m523 44 c0 -24 -45 -44 -100 -44 -55 0 -100 48 -100 106 0 58 45 78 100 44 55 -34 100 -82 100 -106z m-2355 -160 c320 -146 329 -284 17 -284 -264 0 -345 -78 -651 -628 -146 -261 -211 -556 -212 -950 0 -640 -158 -1322 -305 -1322 -53 0 -75 168 -49 375 26 206 73 819 104 1362 61 1069 146 1327 483 1462 294 119 320 118 613 -15z m3856 -86 c170 -317 1 -465 -213 -187 -223 291 -234 389 -42 389 81 0 196 -91 255 -202z m-13490 -103 c297 -58 1102 -106 1789 -106 688 -1 1340 -37 1450 -81 112 -44 301 -34 428 24 192 87 256 65 400 -139 348 -491 444 -756 489 -1343 59 -778 -183 -1318 -567 -1266 -338 47 -591 290 -772 743 -217 542 -844 1042 -1466 1169 -862 176 -2170 267 -3012 209 -1171 -81 -1250 -58 -1250 352 l0 343 525 6 c289 3 705 43 925 88 220 46 428 88 461 95 34 6 304 -36 600 -94z m12948 -745 c222 -338 114 -860 -267 -1294 l-298 -339 253 -372 c305 -449 324 -850 52 -1096 -255 -231 -350 -138 -224 221 54 155 62 377 18 495 -92 249 -466 535 -700 535 -179 0 -465 -280 -637 -626 -145 -291 -397 -288 -439 7 -66 468 651 1103 1111 983 323 -85 527 88 769 650 213 497 216 537 58 804 -146 248 -148 282 -13 282 84 0 227 -112 317 -250z m-2651 -542 c331 -331 375 -689 130 -1062 -310 -474 -552 -258 -338 304 162 426 -34 685 -460 605 -437 -82 -573 -4 -437 251 167 311 747 260 1105 -98z m-12084 -257 c57 -295 -72 -419 -267 -257 -141 117 -264 565 -180 650 107 107 401 -153 447 -393z m3472 -15 c320 -189 604 -624 604 -926 0 -116 -88 -298 -196 -406 -240 -240 -604 -938 -604 -1158 0 -357 -253 -52 -300 361 -38 336 -97 450 -246 478 -322 62 -783 -270 -1139 -819 -280 -433 -326 -581 -281 -916 51 -387 -146 -871 -295 -722 -34 34 -80 419 -102 854 -31 635 0 878 160 1230 241 531 256 920 46 1131 -228 228 -397 195 -743 -143 -404 -395 -542 -387 -460 25 179 897 1252 937 1745 65 140 -248 208 -283 450 -231 157 34 484 6 727 -62 392 -110 465 -104 640 55 245 222 248 427 10 737 -190 246 -189 246 -987 45 -181 -46 -225 -15 -225 158 0 384 713 530 1196 244z m4322 -86 c153 -336 78 -382 -306 -191 -258 129 -298 187 -204 300 177 214 383 169 510 -109z m-781 -575 c164 -610 -84 -1201 -730 -1738 l-343 -285 77 249 c43 137 103 383 133 547 31 164 131 434 224 600 93 166 200 426 237 577 83 332 319 361 402 50z m9062 -450 c-1 -41 -69 -322 -151 -625 -83 -302 -144 -820 -136 -1150 29 -1237 -197 -2792 -507 -3500 -49 -110 -135 -405 -193 -655 -108 -471 -605 -1636 -669 -1571 -20 20 48 316 151 657 104 341 243 946 310 1345 66 398 228 1270 359 1937 276 1413 278 1437 105 1437 -90 0 -187 -358 -312 -1152 -156 -996 -278 -1369 -401 -1233 -55 60 425 2611 585 3114 246 770 865 1776 859 1396z m-4245 -231 c28 -46 -142 -171 -377 -279 -235 -108 -763 -513 -1173 -901 -411 -387 -764 -688 -784 -667 -53 53 402 653 495 653 42 0 195 202 340 450 398 679 1271 1112 1499 744z m-6454 -401 c0 -416 -747 -1264 -1409 -1598 -691 -348 -691 -348 -691 -107 0 225 142 347 575 492 467 157 964 565 1182 970 185 343 343 455 343 243z m6694 -136 c99 -119 62 -149 -212 -175 -271 -26 -366 -101 -515 -407 -101 -206 -237 -375 -302 -375 -65 0 -285 -113 -488 -251 -263 -179 -401 -367 -477 -650 -59 -220 -207 -463 -329 -541 -236 -152 -688 -238 -771 -148 -105 115 486 829 1379 1668 1053 988 1454 1193 1715 879z m1559 -913 c61 -838 -45 -925 -242 -196 -79 292 -76 484 10 722 65 179 130 312 145 297 16 -15 55 -386 87 -823z m-13286 479 c255 -163 189 -373 -117 -373 -237 0 -307 -48 -333 -231 -26 -187 -59 -208 -175 -113 -197 164 -178 358 58 594 211 211 373 246 567 123z m12247 -520 l236 -196 -371 -4 c-419 -3 -579 -195 -579 -690 0 -266 37 -304 325 -332 394 -38 431 -219 53 -262 -198 -23 -355 53 -575 278 -464 475 -369 997 230 1257 411 179 405 179 681 -51z m686 -850 c0 -178 -42 -231 -150 -189 -171 65 -171 65 -89 278 93 242 239 188 239 -89z m466 -880 c-28 -68 -49 12 -47 177 3 165 25 220 50 123 26 -97 24 -232 -3 -300z m-666 15 c0 -110 45 -172 100 -138 55 34 100 152 100 262 0 110 45 172 100 138 55 -34 100 -262 100 -506 0 -244 45 -444 100 -444 55 0 100 73 100 162 0 133 27 140 150 38 218 -181 189 -244 -197 -428 -317 -152 -354 -152 -436 -5 -68 120 -108 45 -159 -301 -86 -574 -223 -679 -277 -212 -55 467 123 1755 233 1688 47 -30 86 -144 86 -254z m-10040 -304 c-191 -273 -208 -693 -35 -876 101 -107 96 -124 -25 -87 -82 25 -191 160 -240 301 -70 198 -40 337 136 622 125 201 249 345 276 318 26 -27 -24 -152 -112 -278z m8521 17 c195 -1 305 -42 269 -101 -34 -55 -217 -100 -407 -100 -202 0 -574 -129 -891 -308 -307 -173 -624 -284 -724 -253 -293 89 -1809 -483 -2160 -816 -407 -385 -568 -588 -568 -719 0 -57 -135 -104 -300 -104 -200 0 -300 50 -300 150 0 153 635 928 894 1091 80 50 243 197 364 327 184 199 349 246 1050 296 686 50 911 111 1287 351 355 227 532 280 805 239 193 -28 499 -52 681 -53z m2879 -174 c-33 -33 -56 26 -52 131 5 117 28 141 60 61 29 -72 26 -159 -8 -192z m-13760 -119 c0 -105 48 -207 106 -227 75 -25 74 -121 -3 -322 -60 -158 -123 -269 -142 -248 -93 109 -146 989 -59 989 54 0 98 -86 98 -192z m350 92 c-34 -55 -104 -100 -156 -100 -52 0 -94 45 -94 100 0 55 70 100 156 100 86 0 128 -45 94 -100z m13250 -690 c0 -38 -143 -112 -317 -164 -332 -101 -538 -497 -626 -1205 -62 -502 -222 -712 -594 -782 -189 -35 -456 -153 -594 -262 -181 -142 -404 -197 -804 -197 -577 0 -707 74 -605 341 45 115 195 159 546 159 677 0 1518 196 1665 388 67 89 124 280 126 425 7 621 134 908 524 1191 347 251 679 303 679 106z m-3068 -226 c336 -179 461 -399 465 -813 4 -447 -244 -871 -509 -871 -243 0 -239 123 12 350 433 392 160 1050 -436 1050 -247 0 -364 45 -364 142 0 254 470 334 832 142z m3020 -379 c-34 -107 -79 -703 -100 -1325 -20 -621 -67 -1207 -104 -1301 -36 -94 -15 -327 48 -518 81 -245 84 -400 9 -529 -58 -100 -193 -396 -301 -657 -108 -261 -243 -475 -300 -475 -160 0 -123 271 46 336 84 33 150 181 150 341 0 156 43 326 95 378 60 60 58 258 -4 538 -92 406 -71 1085 68 2182 33 267 14 425 -53 425 -139 0 -135 228 10 545 141 310 532 364 436 60z m396 -330 c-91 -561 -248 -722 -248 -253 0 424 82 678 219 678 60 0 71 -167 29 -425z m-5391 114 c81 -132 -130 -285 -395 -287 -103 -1 -362 -159 -575 -352 -213 -192 -455 -350 -537 -350 -201 0 -191 -163 14 -242 91 -34 237 0 325 76 265 229 691 280 1318 157 463 -91 593 -157 593 -298 0 -233 -185 -348 -329 -204 -156 156 -433 138 -836 -53 -288 -137 -385 -143 -583 -37 -508 272 -1092 -149 -1626 -1170 -152 -290 -307 -529 -345 -529 -209 0 -157 274 161 842 264 472 437 666 665 745 169 59 281 151 248 204 -177 287 -1015 -390 -1198 -967 -124 -394 -283 -127 -233 392 63 649 366 984 893 984 211 0 383 45 383 100 0 55 105 100 233 100 149 0 284 94 372 260 227 423 675 740 1047 740 185 0 367 -50 405 -111z m1237 -722 c159 -480 -90 -999 -773 -1615 -306 -276 -650 -608 -764 -738 -114 -129 -358 -399 -542 -600 -458 -498 -703 -1101 -779 -1923 -87 -933 101 -908 256 34 146 881 484 1625 739 1625 100 0 251 -115 337 -255 146 -242 137 -284 -173 -800 -180 -300 -427 -657 -550 -795 -122 -137 -253 -362 -290 -500 -37 -137 -211 -565 -386 -950 -284 -622 -319 -801 -319 -1604 0 -783 36 -973 264 -1414 l265 -509 -304 13 c-416 19 -451 -172 -53 -290 439 -130 778 -654 778 -1204 0 -457 -207 -771 -448 -679 -160 61 -584 597 -681 862 -72 194 -226 229 -322 73 -92 -149 566 -992 1091 -1398 249 -192 454 -377 456 -409 2 -32 -115 -113 -260 -179 -228 -104 -289 -93 -454 84 -224 240 -382 263 -382 56 0 -82 113 -176 250 -211 258 -65 261 -74 300 -941 13 -310 63 -450 160 -450 106 0 133 127 113 518 -23 436 7 542 190 670 190 133 251 134 495 8 161 -83 332 -292 405 -495 129 -357 387 -483 387 -189 0 122 55 144 225 89 124 -40 428 -101 675 -137 511 -73 501 -31 293 -1243 -101 -589 -95 -703 42 -855 111 -122 142 -282 102 -526 -31 -194 9 -709 90 -1146 105 -569 123 -1002 65 -1527 -75 -676 -117 -775 -545 -1275 -254 -298 -493 -542 -530 -542 -37 -1 -223 -147 -414 -325 -310 -291 -403 -323 -880 -306 -610 23 -1623 291 -1623 430 0 51 -101 187 -224 302 -190 177 -201 222 -75 302 281 177 472 106 533 -198 81 -406 578 -505 1128 -224 478 244 614 403 1017 1192 l317 623 -160 777 c-195 946 -570 1706 -1185 2400 -382 432 -572 557 -1082 715 -341 105 -653 170 -694 145 -167 -100 -53 -208 350 -328 234 -70 532 -178 662 -240 228 -107 1111 -1162 1115 -1332 1 -46 90 -195 198 -333 252 -322 251 -607 -3 -880 -211 -227 -660 -390 -770 -281 -35 35 80 212 255 392 340 351 400 680 202 1114 -152 334 -235 323 -697 -95 -213 -192 -455 -350 -537 -350 -199 0 -192 29 100 460 138 202 250 442 250 532 0 282 -286 588 -668 714 -360 119 -374 113 -660 -242 -160 -200 -355 -364 -432 -364 -173 0 -173 2 10 370 118 237 127 367 40 615 -60 173 -150 315 -200 315 -49 0 -90 45 -90 100 0 194 206 97 296 -140 108 -284 266 -403 351 -265 105 170 -228 679 -487 744 -136 34 -274 147 -307 251 -33 105 -306 310 -607 457 -300 147 -546 306 -546 354 0 47 -85 112 -189 145 -104 33 -308 241 -454 461 -444 671 -1257 1042 -1257 574 0 -212 -354 -681 -515 -681 -132 0 37 641 201 763 129 95 101 139 -181 284 -253 131 -459 157 -858 107 -421 -53 -614 -24 -976 147 -249 116 -531 299 -627 405 -96 107 -236 194 -309 194 -157 0 -182 -259 -35 -350 55 -34 100 -130 100 -213 0 -111 -59 -132 -225 -79 -124 40 -382 66 -575 60 -413 -15 -564 64 -613 321 -21 104 -104 221 -187 259 -699 324 -750 368 -723 623 20 186 -60 331 -288 523 -293 246 -303 274 -137 395 150 110 167 221 110 723 -70 618 38 926 341 971 224 34 406 171 350 263 -28 45 16 137 98 205 161 133 205 499 61 499 -49 0 -158 -106 -243 -235 -84 -129 -285 -289 -447 -356 -186 -77 -373 -283 -514 -565 -268 -535 -463 -655 -944 -577 -268 44 -364 109 -364 246 0 152 76 187 407 187 621 0 782 127 748 588 -42 553 -106 612 -661 612 -429 0 -494 26 -494 202 0 240 370 410 714 330 130 -31 359 -197 508 -369 150 -172 274 -254 275 -181 4 180 -181 523 -429 795 -189 208 -193 241 -48 386 88 88 357 182 599 209 374 42 489 8 765 -224 179 -150 412 -444 519 -654 202 -396 368 -556 470 -455 82 83 -452 1073 -694 1285 -487 427 -1338 411 -1833 -36 -501 -451 -1503 -442 -1748 15 -123 231 21 265 202 47 171 -206 527 -188 1054 52 427 194 746 596 746 940 0 217 -377 388 -708 321 -156 -31 -309 -17 -339 32 -92 149 245 405 529 402 348 -4 588 -193 672 -528 37 -148 97 -272 132 -275 35 -4 308 -29 606 -57 674 -62 1021 -237 1365 -687 147 -192 346 -350 443 -350 354 0 846 -999 999 -2031 163 -1095 324 -1433 777 -1627 738 -315 1285 -440 1937 -441 462 -1 700 -46 785 -149 89 -107 173 -121 306 -50 265 142 659 -39 733 -337 35 -137 177 -385 316 -550 1019 -1212 42 -1673 -1419 -670 -156 108 -446 320 -644 472 -352 270 -375 274 -982 161 -554 -103 -663 -95 -990 73 -669 343 -984 785 -1165 1633 -272 1278 -663 2016 -1070 2016 -259 0 -227 -151 84 -396 211 -166 338 -456 600 -1378 281 -987 391 -1227 708 -1555 586 -606 850 -706 1695 -642 402 31 730 19 730 -25 0 -153 1298 -925 1807 -1074 464 -136 552 -135 951 18 426 162 449 161 703 -39 144 -113 300 -183 346 -155 96 60 -353 757 -564 876 -79 44 -143 141 -143 216 0 241 383 49 585 -293 107 -181 330 -373 503 -434 396 -138 402 4 12 281 -364 259 -377 478 -55 952 316 466 415 1149 270 1853 -63 307 -115 750 -115 987 0 573 264 1575 529 2008 178 291 212 487 197 1166 -14 634 15 828 128 872 80 31 146 148 146 261 0 113 90 464 200 778 212 607 310 712 1608 1719 603 467 794 682 934 1048 138 359 153 525 72 758 -57 164 -64 298 -17 298 48 0 137 -150 197 -333z m5106 -423 c0 -79 -67 -144 -150 -144 -151 0 -206 211 -86 331 93 93 236 -20 236 -187z m-9690 -200 c-151 -255 -210 -526 -210 -958 0 -438 -34 -591 -125 -561 -366 121 -287 1079 133 1612 303 386 446 321 202 -93z m7537 -2234 c-70 -680 -185 -674 -301 15 -111 657 -808 855 -1323 375 -302 -281 -280 -490 63 -610 348 -121 514 -455 514 -1034 0 -693 -632 -1254 -1088 -966 -171 109 -60 310 172 310 295 0 616 295 616 566 0 186 -41 240 -150 198 -105 -41 -150 8 -152 164 0 122 -34 273 -75 335 -133 206 -801 524 -994 474 -104 -28 -384 -337 -622 -688 -238 -350 -494 -661 -570 -690 -75 -29 -137 -155 -137 -279 0 -349 -502 -1261 -873 -1587 -483 -424 -773 -379 -539 83 733 1447 1578 2730 1901 2889 131 64 272 172 314 240 42 68 245 151 451 184 469 76 629 299 468 653 -96 211 -186 258 -498 258 -483 0 -781 -209 -860 -603 -72 -362 -264 -307 -264 74 0 385 704 1028 1072 979 153 -20 310 -39 349 -43 39 -4 185 -130 324 -279 251 -272 253 -272 558 -92 226 134 407 163 701 113 379 -64 396 -55 396 199 0 146 -46 351 -102 457 -88 164 -50 216 275 369 l377 178 32 -801 c17 -440 2 -1089 -35 -1441z m-5317 1751 c-172 -298 -1246 -1378 -1309 -1315 -123 122 426 998 769 1227 386 258 664 304 540 88z m7618 -1151 c-33 -87 -86 -439 -118 -784 -33 -344 -92 -626 -133 -626 -41 0 -181 86 -311 191 -196 159 -236 284 -236 742 0 449 46 600 249 816 l248 264 181 -223 c99 -123 154 -294 120 -380z m-19558 -193 c249 -202 354 -367 342 -530 -34 -461 -157 -839 -313 -962 -218 -173 -966 -159 -1115 21 -195 234 -22 380 366 307 389 -73 830 144 830 408 0 239 -413 532 -755 536 -390 4 -569 172 -439 413 138 258 640 169 1084 -193z m11704 215 c193 -165 191 -172 -95 -498 -159 -182 -342 -523 -405 -757 -221 -824 -234 -830 -441 -224 -190 560 -190 568 3 732 107 91 280 334 385 540 215 422 275 445 553 207z m6586 -1004 c-89 -235 -93 -611 -16 -1496 109 -1257 106 -2337 -7 -2521 -92 -148 -424 28 -499 264 -30 96 -9 558 49 1025 193 1581 209 2022 70 1976 -153 -51 -264 -546 -376 -1676 -46 -467 -88 -885 -92 -929 -5 -43 -97 -31 -204 26 -167 90 -179 147 -89 407 58 166 81 397 50 514 -111 426 938 3018 1141 2815 55 -55 45 -215 -27 -405z m-17244 -78 c-31 -82 -98 -150 -147 -150 -49 0 -89 68 -89 150 0 83 66 150 147 150 89 0 124 -59 89 -150z m12862 -1370 c-68 -291 -170 -588 -226 -658 -71 -89 -63 -203 26 -368 186 -349 56 -705 -461 -1258 -250 -267 -425 -534 -389 -593 36 -58 108 -80 159 -49 51 32 93 -14 93 -102 0 -183 -381 -758 -589 -890 -76 -48 -312 -244 -524 -435 -267 -242 -398 -307 -426 -213 -23 75 -69 218 -101 319 -42 128 63 305 353 592 464 459 896 1309 909 1792 5 176 134 504 285 728 152 225 356 611 453 857 179 456 461 907 526 844 20 -20 -19 -274 -88 -566z m5279 436 c230 -146 316 -682 191 -1190 -104 -418 -153 -480 -409 -509 l-291 -33 271 322 c207 245 264 408 241 683 -25 301 -72 366 -280 391 -461 55 -536 106 -399 271 134 162 473 194 676 65z m-18095 -480 c-46 -237 -349 -409 -483 -275 -168 168 -2 439 269 439 175 0 237 -48 214 -164z m15560 -426 c-58 -433 -40 -504 146 -604 281 -150 269 -306 -22 -306 -385 0 -609 745 -362 1207 191 357 306 214 238 -297z m-18065 -1659 c56 -46 70 -3051 14 -3051 -82 0 -291 476 -291 661 0 84 -48 242 -107 352 -85 160 -136 176 -250 81 -123 -102 -143 41 -143 998 l0 1117 375 -68 c206 -37 387 -77 402 -90z m13852 87 c34 -34 -77 -338 -245 -675 -304 -605 -589 -963 -767 -963 -178 0 -208 591 -54 1043 120 352 205 457 371 459 119 0 284 45 366 98 177 114 245 122 329 38z m6671 -208 c0 -87 74 -212 165 -279 161 -117 115 -351 -68 -351 -141 0 -419 599 -355 765 69 181 258 82 258 -135z m-4945 -1455 c-37 -124 -91 -298 -120 -388 -50 -155 307 -587 484 -587 44 0 171 90 281 200 258 258 300 252 300 -44 0 -335 -353 -556 -886 -556 -361 0 -495 -55 -728 -299 -157 -165 -286 -335 -286 -378 0 -201 335 -523 545 -523 128 0 258 -64 288 -143 31 -79 260 -174 511 -211 251 -38 456 -107 456 -154 0 -136 -323 -265 -682 -272 -408 -9 -637 -185 -598 -461 26 -182 89 -205 490 -181 928 58 1385 -355 1191 -1076 -83 -308 -156 -405 -282 -377 -93 20 -151 102 -129 181 162 585 138 677 -205 772 -338 93 -1235 26 -1452 -108 -181 -112 -609 96 -684 332 -82 260 11 378 173 216 65 -65 204 -118 310 -118 142 0 178 51 139 200 -31 118 46 345 188 554 284 418 301 546 74 546 -303 0 -533 308 -533 715 0 341 -28 385 -243 385 -587 0 -760 712 -262 1080 173 129 320 177 356 119 81 -131 -29 -299 -196 -299 -157 0 -265 -228 -171 -361 36 -52 191 -173 344 -270 284 -182 472 -154 472 68 0 69 136 226 301 348 248 183 284 257 200 412 -146 274 -125 511 64 720 228 251 373 230 290 -42z m-6208 -185 c194 -171 353 -342 353 -381 0 -38 -249 -67 -554 -64 -621 6 -742 -95 -744 -620 -3 -500 -175 -385 -251 166 -68 500 4 750 305 1051 237 237 498 192 891 -152z m-1886 -672 c-9 -465 -36 -556 -136 -457 -69 69 -125 215 -125 325 0 208 166 714 234 714 21 0 33 -262 27 -582z m475 432 c-31 -82 -103 -150 -159 -150 -58 0 -49 64 23 150 68 83 140 150 159 150 19 0 9 -67 -23 -150z m9276 -206 c260 -135 293 -195 238 -444 -84 -382 75 -654 463 -789 174 -61 328 -111 342 -111 14 0 2 180 -28 400 -29 220 -11 400 40 400 231 0 333 -281 333 -914 0 -371 45 -702 100 -736 55 -34 100 24 100 129 0 223 401 721 580 721 140 0 99 -228 -197 -1095 -102 -300 -214 -785 -249 -1078 -34 -293 -101 -557 -148 -586 -137 -84 -101 -402 119 -1057 210 -622 330 -1115 504 -2073 107 -587 -98 -1848 -370 -2282 -159 -254 -187 -987 -41 -1078 127 -78 502 123 502 270 0 389 902 679 1035 331 136 -354 -425 -1140 -928 -1300 -316 -100 -410 -714 -340 -2235 61 -1350 74 -1417 274 -1419 273 -2 501 -149 424 -274 -34 -54 -193 -125 -355 -157 -282 -56 -296 -86 -357 -738 -35 -373 -83 -774 -106 -890 -26 -127 36 -283 155 -390 238 -216 247 -364 45 -755 -111 -215 -125 -347 -51 -486 73 -138 61 -268 -47 -474 -81 -156 -148 -428 -148 -603 -1 -176 -46 -347 -101 -381 -60 -37 -100 82 -100 294 0 216 -49 357 -125 359 -69 2 -207 66 -308 142 -159 121 -166 169 -51 372 79 139 133 556 133 1033 1 586 34 793 126 775 73 -15 125 78 125 222 0 178 -42 231 -150 189 -126 -48 -150 76 -150 770 0 945 107 1014 149 95 15 -336 60 -643 100 -681 39 -39 56 637 36 1501 -32 1429 -53 1584 -235 1725 -196 151 -196 157 -11 300 155 120 178 228 128 590 -80 586 -366 1174 -562 1154 -345 -35 -828 152 -976 378 -132 202 -139 305 -39 637 65 217 164 395 221 395 220 0 466 -205 566 -471 57 -154 137 -369 177 -479 69 -187 78 -183 142 50 65 241 73 237 206 -125 76 -206 197 -375 268 -375 168 0 165 195 -11 612 -92 219 -109 394 -50 505 117 218 -71 1127 -266 1289 -79 65 -145 214 -147 331 -1 117 -67 326 -146 463 -79 138 -145 386 -146 553 -2 166 -76 406 -165 532 -103 147 -140 334 -103 519 31 158 14 315 -39 348 -53 33 -97 189 -97 348 0 159 -45 316 -100 350 -56 34 -76 161 -45 283 30 121 -10 375 -90 564 -102 244 -117 417 -50 593 74 194 50 308 -107 521 -127 171 -197 411 -189 640 8 202 -32 397 -88 433 -113 73 -239 617 -142 614 33 -1 241 -187 461 -413 252 -260 354 -428 275 -457 -183 -66 -155 -242 125 -768 138 -259 250 -547 250 -640 -1 -160 43 -319 439 -1583 89 -283 163 -620 165 -750 1 -131 67 -349 146 -487 79 -137 145 -430 148 -650 3 -220 44 -462 92 -538 107 -168 322 -58 250 128 -28 73 -65 331 -81 572 -17 241 -81 573 -142 738 -61 165 -183 570 -269 900 -87 330 -203 735 -259 900 -56 165 -163 525 -238 800 -75 275 -167 579 -205 675 -133 344 165 173 312 -179 144 -345 385 -536 515 -407 35 36 14 114 -47 175 -82 82 -81 161 4 296 88 141 86 214 -8 308 -67 67 -125 282 -128 477 -3 195 -59 512 -125 703 -95 278 -176 353 -402 370 -156 12 -345 72 -420 135 -215 178 -747 1172 -747 1395 0 243 26 246 412 46z m-17677 -569 c292 -691 1079 -1154 1785 -1051 371 55 536 -137 361 -420 -92 -150 -190 -194 -331 -149 -110 35 -329 88 -486 117 -416 78 -1451 1097 -1528 1503 -33 179 -33 325 0 325 34 0 123 -146 199 -325z m9765 227 c0 -120 -483 -253 -577 -159 -87 87 175 253 402 255 96 1 175 -42 175 -96z m-8074 -415 c127 -172 172 -336 128 -475 -94 -296 -235 -264 -272 62 -27 231 -91 283 -408 334 -431 70 -523 132 -425 291 130 209 766 71 977 -212z m8874 212 c0 -145 -434 -796 -532 -798 -109 -1 22 395 221 671 172 236 311 293 311 127z m-10433 -959 c262 -270 335 -418 292 -589 -31 -126 -11 -447 46 -715 127 -593 129 -512 -42 -1484 -84 -474 -107 -886 -58 -1016 92 -241 90 -5794 -2 -5912 -31 -41 -228 -231 -437 -424 l-379 -350 48 2550 c26 1403 50 3844 52 5425 3 1581 33 2875 67 2875 35 0 220 -162 413 -360z m788 -732 c52 -50 208 -106 345 -125 332 -44 318 -200 -26 -292 -192 -52 -322 -29 -425 74 -256 256 -152 592 106 343z m1985 -408 c82 0 208 -122 280 -272 71 -150 237 -326 368 -391 131 -65 361 -359 510 -653 183 -358 344 -545 488 -566 136 -20 214 -104 214 -230 0 -131 103 -234 302 -304 386 -134 524 -396 441 -836 -103 -547 339 -882 657 -498 105 127 84 150 -138 150 -187 0 -262 52 -262 183 0 287 101 322 438 150 171 -87 327 -171 345 -187 18 -16 -43 -145 -137 -288 -140 -213 -147 -286 -41 -414 70 -85 155 -321 187 -524 41 -253 131 -401 284 -469 139 -61 224 -186 224 -329 0 -319 454 -757 715 -689 223 58 220 224 25 -1733 -67 -669 -240 -917 -240 -344 0 246 -120 565 -363 965 -287 473 -455 637 -808 788 -577 247 -653 242 -1027 -73 -347 -292 -572 -214 -454 157 98 308 476 518 944 525 512 7 517 135 23 617 l-385 376 -790 -61 c-1114 -87 -1171 -106 -1373 -448 -200 -339 -367 -317 -367 48 0 429 384 722 1100 839 916 151 1363 709 569 712 -175 1 -544 73 -819 160 -286 91 -860 161 -1339 164 -681 3 -875 39 -1025 189 -103 103 -253 186 -336 186 -83 0 -150 89 -150 200 0 265 524 276 784 16 127 -127 413 -207 925 -258 1012 -101 1137 -90 1593 143 423 216 520 399 212 399 -253 0 -1392 524 -1934 890 -243 164 -697 394 -1009 511 -312 116 -596 259 -632 317 -108 174 188 292 586 234 417 -60 456 -8 204 271 -146 161 -150 202 -27 278 310 192 649 -410 382 -677 -89 -89 -55 -140 140 -214 141 -54 286 -145 322 -204 101 -163 425 -126 496 58 102 266 -14 471 -494 871 -490 410 -519 658 -47 415 159 -83 356 -150 439 -150z m17763 -153 c191 -231 139 -696 -119 -1067 -371 -532 -610 -780 -751 -780 -215 0 -153 227 122 446 253 202 254 208 93 594 -94 224 -124 415 -70 450 50 33 145 161 211 285 137 262 333 289 514 72z m-14203 -699 c789 -4 900 -65 900 -492 0 -416 -228 -640 -458 -449 -127 105 -197 106 -357 7 -259 -162 -766 -4 -1087 338 -201 215 -216 279 -112 507 91 200 159 241 291 176 95 -46 466 -85 823 -87z m-1719 -152 c233 -217 254 -288 158 -538 -104 -272 -327 -174 -537 238 -111 218 -202 420 -202 450 0 133 383 35 581 -150z m3693 -710 c85 -85 62 -155 -90 -279 -177 -143 -212 -324 -269 -1361 l-65 -1196 -350 -28 c-267 -21 -430 42 -688 264 -363 314 -348 514 40 514 253 0 648 347 648 569 0 158 -79 163 -472 26 -249 -87 -373 -68 -708 106 -516 269 -678 451 -500 563 471 295 834 420 1078 371 290 -58 775 141 997 408 154 187 227 195 379 43z m626 8 c0 -58 -45 -78 -100 -44 -55 34 -100 82 -100 106 0 24 45 44 100 44 55 0 100 -48 100 -106z m-6900 -356 c0 -76 -87 -138 -194 -138 -107 0 -222 -45 -256 -100 -97 -157 -719 -117 -894 58 -212 212 -112 340 275 352 175 5 432 43 569 84 271 81 500 -37 500 -256z m3443 -49 c-76 -123 -417 -112 -496 16 -36 57 -39 171 -8 253 50 130 90 128 308 -15 138 -91 227 -205 196 -254z m-2743 -445 c0 -128 -41 -257 -90 -288 -108 -67 -333 527 -250 660 94 152 340 -118 340 -372z m5947 265 c33 -105 126 -216 207 -247 225 -86 176 -254 -168 -575 -295 -276 -304 -302 -134 -426 110 -80 156 -197 117 -297 -71 -186 -155 -202 -366 -68 -125 79 -129 164 -25 550 67 251 122 636 122 855 0 417 143 537 247 208z m12503 -9 c0 -82 -92 -155 -204 -160 -792 -40 -1108 -1020 -388 -1201 337 -85 284 -399 -62 -364 -323 34 -696 466 -696 806 1 349 339 900 626 1018 323 134 724 79 724 -99z m-11511 -664 c-509 -345 -611 -326 -447 84 50 127 117 311 148 409 53 167 76 165 352 -39 l295 -218 -348 -236z m-5989 307 c171 -129 178 -164 50 -245 -216 -137 -676 -119 -727 27 -127 364 300 502 677 218z m6450 -889 c0 -121 -31 -251 -68 -289 -90 -90 -348 527 -273 650 93 150 341 -113 341 -361z m721 212 c58 -302 -73 -654 -273 -731 -231 -88 -261 -7 -140 374 60 187 127 397 148 466 62 205 217 142 265 -109z m-1196 -252 c106 -404 -355 -720 -496 -339 -35 96 -112 206 -169 245 -61 41 -2 111 142 169 367 146 469 131 523 -75z m-5725 -412 c303 -103 528 -191 500 -196 -618 -93 -1188 -205 -1325 -259 -149 -58 -175 -8 -175 344 0 467 -33 463 1000 111z m-2000 -95 c0 -438 -963 -804 -1280 -487 -230 230 -118 355 376 420 273 36 523 109 556 163 105 171 348 104 348 -96z m9350 -297 c64 -211 47 -232 -148 -181 -479 125 -627 -137 -363 -644 121 -231 118 -286 -25 -437 -122 -128 -132 -184 -39 -218 173 -65 156 -205 -63 -515 -103 -146 -220 -418 -261 -605 l-73 -340 336 63 c638 120 709 116 813 -44 58 -89 71 -247 29 -350 -70 -175 -83 -171 -167 47 -75 196 -117 215 -239 114 -82 -68 -239 -100 -349 -71 -232 60 -372 -98 -220 -250 57 -57 77 -172 45 -256 -47 -123 -6 -140 208 -86 222 56 266 34 266 -135 0 -128 -66 -202 -180 -202 -185 0 -420 -179 -420 -320 0 -44 68 -80 150 -80 82 0 150 -45 150 -100 0 -55 -42 -100 -94 -100 -51 0 -91 -187 -88 -416 5 -322 -47 -456 -231 -600 -524 -409 -939 -349 -836 120 34 156 11 381 -52 498 -93 173 -82 251 56 404 126 139 156 289 113 566 -39 253 -10 442 87 572 186 249 185 499 -3 654 -107 89 -121 173 -50 306 154 288 116 496 -108 579 l-205 76 205 186 c210 190 289 755 106 755 -55 0 -100 -107 -100 -238 0 -266 -236 -513 -396 -415 -197 122 -108 456 153 575 142 64 323 242 402 396 132 254 127 296 -57 480 l-202 202 477 0 c279 0 620 79 825 190 376 206 437 186 548 -180z m-2160 152 c89 -107 80 -152 -37 -197 -84 -32 -153 -41 -153 -20 0 21 -27 110 -61 197 -74 195 95 208 251 20z m-527 -415 c-70 -182 -263 -194 -263 -17 0 182 237 409 283 270 20 -58 11 -173 -20 -253z m-5961 49 c116 -217 47 -596 -109 -596 -51 0 -93 88 -93 195 0 107 -74 236 -164 287 -182 102 -103 318 116 318 78 0 190 -92 250 -204z m18294 -89 c163 -304 122 -804 -94 -1153 -202 -328 -645 -601 -809 -499 -166 102 -99 248 158 345 362 138 619 717 466 1052 -64 142 -117 300 -117 353 0 171 291 99 396 -98z m-11360 -257 c-62 -161 -318 -273 -445 -194 -158 97 -99 428 84 469 226 51 428 -102 361 -275z m8264 216 c0 -74 -110 -184 -245 -245 -165 -76 -265 -225 -310 -460 -81 -433 -19 -536 385 -641 447 -116 428 -379 -26 -342 -554 45 -732 278 -682 892 33 396 102 568 286 722 278 231 592 271 592 74z m-10450 -172 c265 -71 248 -78 -142 -62 -279 11 -460 70 -489 159 -34 104 3 120 142 63 104 -44 324 -115 489 -160z m-5963 -147 c104 -29 293 -251 422 -493 215 -406 221 -455 74 -623 -88 -99 -189 -279 -226 -400 -40 -131 -203 -264 -410 -332 -387 -128 -500 -89 -575 196 -43 166 25 221 413 330 368 104 472 181 499 371 40 277 -308 598 -653 602 -121 1 -248 49 -284 106 -99 162 159 407 367 348 102 -28 270 -76 373 -105z m11213 -208 c0 -527 -886 -967 -1196 -593 -167 200 -45 354 280 354 325 0 716 252 716 462 0 82 45 122 100 88 55 -34 100 -174 100 -311z m-4763 -148 c-7 -132 -19 -278 -25 -323 -7 -45 -136 -67 -287 -50 -360 42 -426 386 -104 544 319 156 431 110 416 -171z m-3675 -1966 c16 -1565 -9 -2125 -95 -2124 -613 8 -1061 721 -1048 1671 4 318 -23 760 -61 982 -120 709 433 1684 922 1627 l262 -31 20 -2125z m4538 1673 c0 -180 -232 -333 -340 -224 -81 80 -76 476 6 558 100 101 334 -133 334 -334z m4050 2 c-34 -55 -82 -100 -106 -100 -24 0 -44 45 -44 100 0 55 48 100 106 100 58 0 78 -45 44 -100z m-3750 -656 c0 -24 -45 -44 -100 -44 -55 0 -100 48 -100 106 0 58 45 78 100 44 55 -34 100 -82 100 -106z m-6365 -245 c197 -333 159 -579 -159 -1030 -244 -346 -346 -278 -181 119 102 246 94 354 -45 649 -275 578 62 808 385 262z m10865 233 c0 -38 -94 -264 -210 -502 -252 -521 -207 -677 257 -899 597 -284 359 -682 -257 -427 -660 273 -768 1045 -225 1612 262 273 435 359 435 216z m-4900 -382 c0 -151 -57 -250 -144 -250 -211 0 -291 187 -152 354 180 218 296 177 296 -104z m879 -37 c-40 -204 -379 -275 -486 -101 -45 72 -37 184 16 249 138 166 508 50 470 -148z m2147 41 c925 -387 1202 -1482 532 -2104 -178 -165 -404 -423 -502 -574 -198 -305 -422 -280 -231 26 94 151 93 220 -3 316 -176 176 -157 875 26 945 255 98 366 719 190 1061 -128 246 -203 289 -443 254 -232 -34 -268 -16 -180 90 138 166 182 165 611 -14z m-2281 -652 c229 -87 242 -121 136 -353 -160 -351 -441 -286 -400 92 23 218 -4 271 -118 228 -82 -31 -208 15 -281 104 -117 142 -101 153 139 93 148 -37 384 -111 524 -164z m5435 -278 c25 -336 -8 -432 -183 -526 -118 -63 -237 -92 -264 -64 -28 27 44 100 158 161 234 126 279 305 76 305 -91 0 -118 96 -88 304 63 431 265 310 301 -180z m-13427 231 c304 -127 347 -189 347 -500 0 -390 -148 -475 -253 -145 -59 186 -117 202 -507 144 -437 -66 -440 -64 -440 233 0 231 51 309 225 342 124 24 238 50 253 57 16 8 184 -51 375 -131z m4447 15 c0 -71 180 -305 400 -520 395 -386 536 -854 300 -1000 -55 -34 -100 13 -100 104 0 91 -156 322 -347 513 -277 277 -411 340 -671 315 -248 -25 -337 -89 -381 -275 -75 -320 -301 -393 -301 -96 0 243 456 789 658 789 66 0 147 68 178 150 71 184 264 199 264 20z m2350 30 c-34 -55 -82 -100 -106 -100 -24 0 -44 45 -44 100 0 55 48 100 106 100 58 0 78 -45 44 -100z m456 -311 c75 -141 79 -244 12 -311 -149 -149 -318 -1 -318 278 0 300 154 317 306 33z m-6006 -489 c0 -55 -45 -100 -100 -100 -55 0 -100 45 -100 100 0 55 45 100 100 100 55 0 100 -45 100 -100z m6578 -156 c253 -177 284 -368 85 -533 -176 -146 -395 89 -304 326 42 109 9 163 -98 163 -89 0 -161 45 -161 100 0 148 225 122 478 -56z m-6791 -279 c185 -222 250 -750 113 -915 -159 -192 -300 -192 -300 0 0 82 -50 150 -112 150 -61 0 -90 -80 -65 -178 49 -185 -134 -422 -326 -422 -70 0 -83 82 -36 225 178 543 125 628 -375 592 -280 -20 -493 13 -536 84 -107 172 81 310 437 321 172 4 364 69 426 143 144 174 630 174 774 0z m6032 -118 c85 -184 86 -282 5 -363 -168 -168 -424 -20 -424 246 0 434 244 502 419 117z m6025 163 c133 -215 -549 -1038 -719 -868 -35 34 36 132 156 216 141 99 219 258 219 448 0 285 215 413 344 204z m-7099 -622 l-187 -414 -74 276 c-58 219 -28 313 146 455 304 246 333 167 115 -317z m10264 157 c597 -308 640 -1317 78 -1791 -166 -140 -344 -254 -395 -254 -177 0 -90 277 133 425 180 119 225 243 225 616 0 496 -125 655 -519 657 -302 3 -400 204 -177 367 233 171 290 169 655 -20z m-17412 -370 c-3 -300 -14 -311 -143 -140 -77 101 -116 248 -86 325 97 254 232 146 229 -185z m7971 -240 c-35 -35 -128 -10 -207 56 -158 131 -320 -15 -211 -191 66 -106 -275 -142 -377 -39 -34 33 33 204 149 380 l210 320 249 -231 c138 -128 222 -260 187 -295z m-2068 362 c220 -64 425 -222 552 -424 181 -290 263 -329 800 -384 1091 -111 2123 -525 2378 -954 44 -74 138 -135 209 -135 71 0 211 -151 310 -336 213 -394 163 -1096 -96 -1353 -150 -148 -157 -128 -96 257 58 363 24 484 -258 918 -178 276 -491 635 -696 799 -334 269 -475 308 -1389 386 -559 47 -1054 49 -1098 5 -45 -45 -382 -101 -749 -125 -516 -34 -667 -14 -667 91 0 161 624 258 849 133 83 -47 221 -46 307 3 268 149 -100 355 -621 347 -335 -5 -428 22 -346 104 140 140 145 371 8 371 -57 0 -255 -152 -441 -337 -252 -252 -460 -355 -822 -407 -266 -39 -585 -95 -709 -124 -201 -48 -225 -16 -225 295 0 274 47 362 216 406 119 31 299 12 400 -42 122 -65 249 -63 377 5 107 57 307 104 445 104 138 0 377 111 531 247 321 282 356 288 831 150z m2980 -217 c66 -66 120 -223 120 -350 0 -169 -57 -230 -217 -230 -119 0 -187 30 -151 66 37 36 17 125 -44 199 -115 138 -55 435 89 435 46 0 137 -54 203 -120z m-6080 -229 c139 -367 25 -579 -272 -504 -191 48 -256 16 -298 -143 -63 -242 -430 -279 -430 -43 0 125 742 915 877 935 16 2 71 -108 123 -245z m8100 99 c0 -82 -68 -150 -150 -150 -82 0 -150 68 -150 150 0 82 68 150 150 150 82 0 150 -68 150 -150z m5491 -89 c54 -65 66 -161 28 -214 -107 -150 -699 -547 -815 -547 -227 0 -84 -193 271 -367 206 -101 420 -285 475 -411 80 -183 153 -215 375 -167 167 37 275 19 275 -47 0 -59 -95 -108 -212 -108 -164 0 -199 -46 -158 -206 30 -113 24 -190 -13 -172 -37 19 -190 96 -340 171 -251 126 -259 148 -100 265 162 120 160 132 -27 194 -110 36 -290 106 -400 154 -110 49 -423 174 -695 278 -449 171 -725 416 -470 416 56 0 376 220 712 490 606 486 862 550 1094 271z m4692 -142 c30 -212 5 -226 -307 -167 -415 78 -572 -78 -648 -647 -60 -446 81 -705 384 -705 228 0 250 -255 30 -339 -503 -193 -842 147 -842 844 0 870 368 1314 1050 1266 230 -16 308 -75 333 -252z m-21282 -567 c-175 -326 -301 -203 -371 361 l-53 437 280 -271 c259 -250 270 -291 144 -527z m12146 523 l158 -225 -635 -57 c-488 -43 -721 -122 -1007 -340 -273 -208 -402 -254 -483 -173 -82 82 -79 151 12 261 196 236 941 559 1290 559 175 0 318 45 318 100 0 174 183 108 347 -125z m-10847 -168 c0 -52 -88 -121 -195 -155 -107 -34 -338 -196 -514 -360 -175 -164 -339 -277 -364 -252 -107 107 341 673 572 723 138 30 296 70 351 88 55 18 111 37 125 41 14 4 25 -34 25 -85z m15690 -227 c-87 -162 -130 -178 -195 -72 -48 77 -38 190 22 263 162 195 299 45 173 -191z m-15390 -217 c0 -153 -674 -491 -810 -407 -54 33 67 191 268 351 359 285 542 304 542 56z m11100 81 c0 -24 -45 -44 -100 -44 -55 0 -100 48 -100 106 0 58 45 78 100 44 55 -34 100 -82 100 -106z m-7800 -94 c-137 -165 -500 -206 -500 -57 0 52 124 112 275 135 151 23 292 49 312 57 21 8 -19 -53 -87 -135z m6500 60 c0 -50 -142 -140 -315 -200 -425 -149 -444 -141 -235 90 183 202 550 276 550 110z m5200 -10 c0 -55 -45 -100 -100 -100 -55 0 -100 45 -100 100 0 55 45 100 100 100 55 0 100 -45 100 -100z m-2625 -99 c69 -1 125 -52 125 -114 0 -139 -802 -29 -950 131 -71 77 16 90 300 46 220 -34 456 -62 525 -63z m-5797 -254 c282 -84 537 -190 565 -236 29 -46 -37 -268 -146 -493 -234 -484 -255 -1090 -49 -1385 139 -198 131 -217 -114 -278 -367 -92 -505 75 -332 399 168 314 69 513 -390 782 -276 161 -359 169 -627 58 -277 -115 -325 -107 -472 76 -220 275 -526 319 -2699 390 -1841 60 -1868 58 -2207 -175 -189 -129 -377 -361 -418 -516 -216 -809 576 -1308 1183 -745 204 188 228 191 288 35 43 -112 -28 -269 -208 -457 -260 -272 -266 -298 -113 -516 227 -324 208 -693 -39 -757 -111 -29 -200 -136 -200 -241 0 -103 -45 -188 -100 -188 -55 0 -100 101 -101 225 0 395 -332 782 -949 1108 -431 228 -648 415 -770 667 -235 483 -225 1016 25 1334 214 272 962 662 1395 728 1276 195 1931 228 2700 138 983 -115 2536 -71 2900 82 329 139 289 140 878 -35z m10370 -40 c120 -380 -430 -1237 -848 -1319 -82 -16 -285 46 -450 137 -165 92 -231 169 -148 171 84 2 398 274 698 604 300 330 577 600 616 600 39 0 98 -87 132 -193z m-5901 -324 c387 -50 1041 -135 1453 -190 413 -55 885 -113 1050 -128 397 -37 1350 -549 1350 -725 0 -172 32 -173 -670 15 -333 89 -1240 179 -2131 213 -1431 54 -1587 43 -2009 -150 -543 -247 -693 -409 -781 -844 -56 -275 -115 -329 -388 -355 -176 -18 -321 -7 -321 24 0 30 157 262 350 514 350 459 475 1054 250 1193 -55 34 -100 174 -100 311 0 373 532 579 945 366 165 -85 616 -195 1002 -244z m1153 120 c0 -53 -67 -71 -150 -39 -82 31 -150 75 -150 97 0 21 68 39 150 39 83 0 150 -44 150 -97z m825 -69 c-69 -28 -181 -28 -250 0 -69 28 -12 50 125 50 138 0 194 -22 125 -50z m-5325 -378 c0 -79 -45 -172 -100 -206 -150 -93 -120 -821 48 -1145 81 -157 306 -384 500 -504 396 -245 472 -451 127 -346 -252 77 -480 255 -890 695 -219 235 -280 398 -282 753 -3 477 209 897 453 897 79 0 144 -65 144 -144z m454 -563 c304 -589 -21 -1055 -341 -486 -149 267 -92 793 86 793 53 0 167 -138 255 -307z m-4534 -62 c279 -267 370 -663 180 -781 -55 -34 -100 -129 -100 -210 0 -113 79 -135 325 -92 365 63 493 2 663 -322 65 -123 229 -252 365 -286 280 -70 295 -126 130 -487 l-117 -257 -209 377 c-268 481 -781 758 -1118 604 -131 -60 -239 -147 -239 -193 0 -46 -75 -84 -167 -84 -92 0 -250 -74 -350 -165 -165 -150 -183 -150 -183 -6 0 87 49 189 108 226 60 37 85 163 56 281 -41 167 18 247 267 364 388 182 437 429 183 925 -228 444 -175 471 206 106z m15927 -776 c39 -520 38 -999 -3 -1064 -40 -66 -66 -511 -58 -990 11 -558 -38 -1023 -135 -1298 -83 -235 -151 -553 -151 -705 0 -152 -89 -472 -198 -712 -109 -240 -199 -518 -200 -619 -2 -162 -804 -1299 -870 -1233 -14 15 111 362 279 771 168 410 321 858 340 996 18 137 108 565 199 950 291 1233 535 2796 450 2885 -152 160 -300 -45 -302 -417 -3 -632 -524 -3353 -741 -3869 -491 -1169 -581 -1503 -708 -2625 -162 -1426 -380 -2023 -301 -825 141 2133 175 2500 237 2500 108 0 302 517 375 1000 37 248 129 572 204 720 75 149 136 399 136 556 0 157 62 371 139 475 103 142 112 248 34 418 -80 175 -63 321 72 619 116 259 153 493 108 697 -41 188 -12 433 77 635 175 404 395 975 618 1605 93 261 204 475 248 475 44 0 112 -425 151 -945z m-18886 588 c94 -378 -125 -551 -257 -203 -140 368 -131 460 44 460 82 0 177 -116 213 -257z m5453 -36 c189 -155 211 -218 111 -320 -172 -175 -157 -536 29 -690 85 -71 386 -136 670 -146 283 -10 531 -67 551 -126 53 -159 -556 -265 -725 -125 -183 152 -374 33 -304 -189 76 -238 -128 -467 -575 -650 -333 -135 -387 -136 -436 -7 -32 81 15 258 104 393 204 311 204 305 -64 556 -212 199 -215 218 -48 341 100 74 151 197 117 285 -33 86 -8 252 55 370 87 162 86 249 -4 357 -187 226 231 186 519 -49z m-980 -53 c165 -125 171 -177 55 -497 -149 -412 -214 -432 -493 -153 -183 183 -188 219 -50 357 85 84 154 218 154 296 0 178 97 177 334 -3z m6902 -231 c-121 -308 -126 -432 -26 -675 202 -492 196 -848 -16 -848 -100 0 -218 -56 -261 -125 -52 -82 -97 -22 -133 175 -48 267 -92 299 -402 293 -191 -4 -427 -43 -523 -86 -228 -102 -233 113 -10 360 113 124 307 183 605 183 l439 0 -61 325 c-46 248 -11 378 150 550 311 334 405 274 238 -152z m3593 201 c235 -261 369 -972 259 -1372 -70 -251 -221 -417 -588 -643 -344 -211 -514 -389 -556 -582 -123 -560 -126 -563 -370 -398 -319 216 -264 652 122 978 357 303 380 393 97 393 -254 0 -593 173 -593 304 0 53 137 96 305 96 390 0 868 246 919 474 22 97 1 285 -46 418 -166 467 131 685 451 332z m-5166 -73 c32 -81 -56 -283 -195 -448 -219 -260 -238 -337 -144 -585 81 -215 73 -401 -30 -752 -76 -256 -171 -466 -212 -466 -130 0 -282 375 -282 698 0 304 -9 310 -375 250 -351 -57 -362 -51 -175 91 400 303 550 501 550 723 0 257 168 397 425 354 104 -17 175 35 175 128 0 198 188 204 263 7z m3847 38 c374 -123 722 -456 631 -604 -32 -52 -171 18 -308 155 -137 137 -437 315 -666 396 -494 175 -178 223 343 53z m2489 -690 c-258 -506 -251 -738 26 -932 192 -135 203 -173 75 -260 -166 -114 -510 -41 -623 131 -237 359 43 1407 397 1487 304 69 331 -24 125 -426z m-5954 -65 c-101 -74 -242 -134 -314 -134 -209 0 -151 262 94 426 201 135 234 135 314 -3 62 -109 34 -195 -94 -289z m1787 137 c-30 -49 -99 -44 -155 12 -55 55 -66 153 -26 219 56 91 93 88 155 -12 44 -72 56 -170 26 -219z m1095 -477 c-46 -337 -19 -431 159 -555 213 -150 295 -439 124 -439 -123 0 -710 680 -710 822 0 95 382 578 458 578 13 0 -2 -183 -31 -406z m-650 6 c100 -161 100 -200 -2 -200 -70 0 -183 90 -252 200 -100 161 -100 200 2 200 70 0 183 -90 252 -200z m-4897 -420 c66 -66 120 -381 120 -700 l0 -580 400 0 c319 0 400 -37 400 -180 0 -99 54 -234 120 -300 93 -93 16 -120 -350 -120 -446 0 -470 -14 -470 -276 0 -151 -42 -421 -93 -600 -51 -179 -105 -628 -118 -999 -24 -641 -12 -681 238 -803 303 -148 274 -344 -75 -503 -151 -69 -249 -210 -270 -388 -39 -344 -286 -409 -465 -122 -96 154 -103 245 -25 323 134 134 144 402 12 321 -53 -33 -185 -4 -295 64 -142 90 -170 160 -97 248 57 68 160 101 230 74 97 -37 142 276 192 1323 36 754 42 1395 13 1424 -29 29 -268 58 -530 64 -329 7 -539 72 -675 205 -108 107 -308 269 -444 359 -136 90 -215 198 -175 239 40 42 130 29 200 -28 70 -57 487 -119 927 -139 l800 -36 89 625 c92 645 136 710 341 505z m3120 -31 c0 -29 -135 -175 -300 -325 -332 -303 -578 -1142 -799 -2724 -188 -1342 -186 -1337 -360 -1193 -95 79 -130 220 -95 384 30 142 95 746 146 1342 63 751 141 1137 252 1261 92 101 133 250 96 346 -37 97 3 243 93 340 87 93 250 271 362 395 179 196 605 318 605 174z m-11719 -253 c247 -230 288 -705 93 -1088 -148 -289 -374 -389 -374 -166 0 87 45 158 100 158 143 0 124 472 -25 599 -69 60 -211 167 -316 240 -230 158 -151 461 119 461 101 0 283 -92 403 -204z m7864 -156 c37 -198 45 -383 18 -410 -57 -57 -1063 66 -1063 130 0 154 574 640 755 640 177 0 237 -75 290 -360z m1876 -16 c94 -151 248 -378 341 -505 l170 -230 -541 67 c-673 84 -814 205 -730 624 53 263 111 320 327 319 177 0 317 -89 433 -275z m-5221 -24 c365 -365 201 -536 -239 -248 -402 263 -774 -53 -552 -468 91 -171 80 -197 -76 -167 -141 27 -190 143 -213 501 -27 419 -7 471 200 511 488 93 687 64 880 -129z m8600 0 c0 -55 -45 -100 -100 -100 -55 0 -100 45 -100 100 0 55 45 100 100 100 55 0 100 -45 100 -100z m989 -89 c142 -109 210 -232 166 -303 -54 -88 -107 -76 -195 46 -111 151 -149 142 -430 -94 -328 -276 -632 -342 -626 -135 3 107 652 650 796 665 28 3 158 -77 289 -179z m2417 -214 c333 -178 521 -671 446 -1171 -41 -274 -21 -559 52 -737 95 -227 94 -321 -4 -439 -190 -229 -408 -181 -766 166 -278 269 -349 296 -484 184 -113 -93 -189 -101 -266 -24 -122 122 -31 324 147 324 65 0 126 116 134 257 20 349 91 395 392 258 336 -153 475 -57 393 270 -89 355 -235 515 -469 515 -107 0 -284 48 -394 107 -160 85 -176 136 -81 250 138 167 623 188 900 40z m-4099 -701 c318 -170 219 -280 -202 -224 -367 49 -400 33 -465 -228 -116 -462 137 -793 614 -801 775 -13 1066 -375 845 -1047 -116 -351 -106 -400 150 -736 271 -355 664 -482 801 -260 90 146 250 122 250 -38 0 -225 -295 -402 -655 -392 -250 8 -354 -40 -399 -181 -75 -238 -545 -489 -916 -490 -465 0 -1021 -196 -1129 -397 -161 -302 -118 -656 107 -859 196 -178 223 -179 500 -20 240 138 292 142 292 26 0 -78 -87 -189 -193 -245 -329 -176 -703 -117 -973 153 -212 212 -248 320 -200 613 70 434 296 699 666 780 154 34 358 149 455 256 98 107 306 194 467 194 637 0 879 430 503 894 -150 185 -238 206 -603 148 -440 -70 -756 -370 -837 -792 -80 -422 -236 -172 -265 424 -23 498 -69 645 -225 729 -285 152 -238 315 80 279 170 -20 313 -118 374 -257 118 -270 223 -282 475 -53 105 94 354 173 558 175 340 3 370 27 399 321 37 384 -157 519 -720 503 -759 -22 -1145 875 -596 1384 284 264 535 306 842 141z m-5975 -341 c-84 -516 27 -801 415 -1066 561 -383 821 -1238 488 -1606 -201 -222 -1281 -273 -1211 -58 23 69 151 138 284 153 647 75 706 114 673 447 -28 287 -386 652 -779 793 -49 18 -130 325 -181 682 -51 358 -127 729 -168 825 -61 145 -22 175 230 175 291 0 302 -15 249 -345z m-2586 183 c221 -85 454 -563 454 -932 0 -246 -77 -352 -407 -560 l-406 -257 67 -569 c80 -676 270 -1020 565 -1020 560 0 782 727 331 1082 -302 237 -315 318 -52 318 337 0 531 -424 454 -989 -58 -417 -112 -512 -351 -610 -420 -175 -723 -89 -949 266 -247 387 -502 471 -814 266 -254 -167 -538 -120 -537 89 0 80 158 137 418 152 230 13 454 81 498 150 274 432 -177 977 -805 974 -465 -2 -555 -66 -751 -535 -220 -530 -203 -730 89 -1022 233 -233 324 -441 193 -441 -166 0 -443 228 -443 364 0 122 -62 142 -275 89 -410 -102 -625 -344 -625 -705 0 -628 670 -1096 1000 -698 134 162 300 200 300 69 0 -45 -92 -180 -204 -300 -502 -539 -1296 -20 -1296 846 0 364 56 506 292 743 161 160 388 292 504 292 193 0 206 41 155 475 -46 386 -18 520 147 712 309 360 821 500 1407 384 800 -158 1321 174 1145 729 -91 285 -403 432 -644 303 -221 -118 -360 12 -268 252 57 148 514 195 808 83z m3925 -1238 c19 -796 -26 -856 -209 -277 -30 96 -234 298 -454 450 -246 170 -402 358 -404 485 -6 293 30 309 568 247 l478 -55 21 -850z m5504 677 c232 -218 245 -219 545 -47 380 218 515 122 194 -139 -326 -264 -861 -251 -1054 25 -141 201 -134 384 14 384 35 0 170 -100 301 -223z m-3524 22 c103 -168 -43 -471 -314 -648 -140 -92 -280 -141 -312 -109 -116 116 -55 678 83 765 190 121 466 116 543 -8z m-57 -1304 c-267 -218 -312 -310 -257 -529 42 -169 135 -266 253 -266 175 0 484 -264 399 -340 -21 -19 -140 -66 -262 -104 -166 -51 -292 -1 -488 196 -234 234 -257 317 -203 731 50 378 134 529 438 789 l376 322 34 -267 c25 -204 -44 -331 -290 -532z m8023 54 c91 -90 -64 -781 -183 -821 -133 -44 -379 618 -285 770 65 106 380 140 468 51z m-10967 -399 c0 -253 -39 -300 -249 -300 -160 0 -261 64 -283 181 -59 303 65 485 307 451 176 -25 225 -97 225 -332z m3138 -72 c-105 -196 -119 -199 -212 -32 -71 128 -62 201 33 259 206 128 303 4 179 -227z m7012 78 c0 -79 -40 -169 -88 -199 -317 -195 -83 -957 294 -957 275 0 241 -187 -55 -300 -328 -124 -526 -38 -705 307 -191 369 -185 740 16 1047 174 267 538 336 538 102z m2733 -1738 c262 -289 309 -750 117 -1154 -156 -328 -157 -372 -10 -518 175 -175 209 -404 73 -488 -47 -29 -167 36 -265 144 -399 441 -1220 79 -1084 -479 36 -150 127 -309 201 -353 216 -128 156 -270 -113 -270 -294 0 -409 314 -309 846 64 344 455 754 718 754 74 0 227 181 340 401 243 478 161 723 -299 883 -476 166 -386 416 149 416 180 0 389 -79 482 -182z m-15167 -124 c358 -136 431 -257 432 -719 3 -563 -382 -890 -840 -714 -229 87 -200 331 32 271 270 -71 610 139 610 378 0 392 -187 590 -558 590 -376 0 -842 -358 -842 -645 0 -85 -45 -155 -100 -155 -131 0 -128 261 6 512 114 211 665 587 862 588 66 0 245 -48 398 -106z m12882 -169 c-154 -367 -170 -648 -48 -875 253 -473 -140 -762 -444 -328 -340 486 -64 1371 430 1376 90 1 111 -56 62 -173z m-3422 -371 c192 -81 378 -219 412 -308 229 -597 -132 -1363 -540 -1145 -253 135 -252 261 1 328 288 75 349 333 152 634 -155 236 -218 256 -661 213 -556 -53 -687 135 -215 308 381 139 452 136 851 -30z m-12626 -941 c283 -209 372 -481 209 -644 -80 -80 -185 -20 -385 219 -230 276 -318 317 -549 259 -310 -77 -348 -280 -155 -816 98 -271 168 -327 375 -307 197 20 255 -20 255 -174 0 -156 -77 -206 -352 -230 -510 -43 -910 395 -974 1067 -47 490 -43 498 339 704 439 236 846 211 1237 -78z m2900 -291 c0 -43 -94 -158 -209 -256 -164 -141 -199 -262 -163 -571 76 -658 390 -861 843 -544 318 223 378 2 66 -243 -354 -279 -497 -263 -857 97 -266 266 -298 356 -252 704 57 418 308 891 474 891 54 0 98 -35 98 -78z m11099 -771 c68 -82 95 -224 59 -315 -57 -149 -86 -144 -265 48 -225 242 -501 275 -790 95 -261 -163 -405 -1 -159 179 258 189 996 184 1155 -7z m-1111 -887 c89 -103 275 -235 412 -295 l250 -108 -285 -38 c-456 -61 -967 542 -692 817 40 40 91 13 113 -59 22 -72 113 -215 202 -317z m3012 -170 c0 -58 -45 -78 -100 -44 -55 34 -100 82 -100 106 0 24 45 44 100 44 55 0 100 -48 100 -106z"/>
<path d="M11497 47194 c-151 -282 -71 -341 143 -105 107 118 134 215 72 254 -56 34 -153 -33 -215 -149z"/>
<path d="M17083 44396 c-223 -130 -336 -662 -180 -850 173 -208 471 -181 597 54 118 220 9 269 -180 80 -87 -87 -150 -90 -229 -11 -144 144 54 531 271 531 85 0 137 53 115 119 -55 164 -197 192 -394 77z"/>
<path d="M17582 42939 c-35 -297 -282 -462 -282 -189 0 240 -244 125 -282 -133 -40 -270 184 -286 595 -43 192 113 285 241 266 367 -46 304 -261 303 -297 -2z"/>
<path d="M16658 42014 c-88 -144 103 -577 285 -648 87 -33 274 -17 415 37 202 77 249 154 224 372 -29 245 -77 278 -448 305 -229 17 -443 -13 -476 -66z m723 -289 c-19 -96 -100 -175 -181 -175 -81 0 -162 79 -181 175 -24 123 30 175 181 175 151 0 205 -52 181 -175z"/>
<path d="M16653 40804 c-251 -279 -129 -504 274 -504 310 0 573 143 573 313 0 139 -315 387 -492 387 -97 0 -257 -88 -355 -196z m547 -148 c0 -79 -49 -174 -109 -211 -141 -88 -334 105 -246 246 98 159 355 133 355 -35z"/>
<path d="M15893 39742 c-265 -320 299 -742 648 -486 291 213 137 644 -231 644 -157 0 -345 -71 -417 -158z m607 -242 c0 -207 -241 -276 -350 -100 -84 135 29 300 206 300 79 0 144 -90 144 -200z"/>
<path d="M15447 38812 c53 -240 31 -327 -96 -375 -242 -93 -415 115 -255 308 104 126 97 164 -42 217 -266 102 -500 -189 -361 -449 162 -302 568 -379 816 -155 223 202 226 649 5 721 -103 34 -119 -29 -67 -267z"/>
<path d="M13975 38183 c-472 -171 -317 -783 198 -783 268 0 442 339 329 645 -88 242 -178 265 -527 138z m406 -358 c-19 -96 -100 -175 -181 -175 -81 0 -162 79 -181 175 -24 123 30 175 181 175 151 0 205 -52 181 -175z"/>
<path d="M13028 37205 c-487 -454 -323 -1049 235 -850 391 139 492 355 326 695 -179 366 -298 399 -561 155z m428 -315 c88 -142 -204 -434 -346 -346 -191 118 -128 456 84 456 107 0 225 -49 262 -110z"/>
<path d="M6057 26243 c-197 -198 -197 -334 5 -952 123 -374 292 -607 686 -944 689 -589 959 -619 548 -62 -149 201 -214 464 -236 964 -28 602 -65 716 -302 919 -316 272 -485 290 -701 75z m581 -368 c138 -216 191 -739 92 -905 -89 -149 -328 151 -434 544 -155 578 60 805 342 361z"/>
<path d="M14659 22215 c-60 -98 174 -329 510 -502 325 -169 365 25 52 253 -424 308 -503 344 -562 249z"/>
<path d="M12800 21757 c0 -187 464 -548 791 -614 712 -144 992 -264 1257 -541 310 -324 552 -393 552 -157 0 292 -683 679 -1673 947 -233 63 -471 203 -529 312 -121 227 -398 264 -398 53z"/>
<path d="M16818 21213 c-80 -51 -120 -219 -100 -423 25 -265 82 -347 258 -372 225 -32 524 -465 524 -758 0 -83 -79 -194 -175 -249 -122 -68 -143 -131 -71 -204 133 -134 501 108 571 377 27 104 -57 410 -187 678 -130 268 -237 558 -237 643 -2 313 -315 478 -583 308z"/>
<path d="M18257 20611 c-73 -119 36 -411 154 -411 118 0 115 372 -4 446 -51 31 -119 16 -150 -35z"/>
<path d="M4855 14809 c-32 -53 -16 -122 36 -154 53 -32 122 -16 154 36 32 53 16 122 -36 154 -53 32 -122 16 -154 -36z"/>
<path d="M225 51736 c-451 -100 -233 -262 286 -212 281 27 877 5 1325 -48 914 -108 14764 -164 14764 -59 0 149 -1533 194 -7650 228 -3520 20 -6872 59 -7450 88 -577 29 -1151 30 -1275 3z"/>
<path d="M24900 51195 c0 -58 -146 -166 -325 -241 -813 -340 -1137 -931 -438 -800 272 51 337 19 494 -248 99 -168 222 -306 273 -306 51 0 88 383 81 850 -6 468 -28 850 -48 850 -20 0 -37 -47 -37 -105z"/>
<path d="M5750 47586 c-110 -62 -312 -216 -450 -342 -137 -126 -441 -304 -675 -397 -234 -93 -425 -231 -425 -308 0 -195 194 -173 588 68 253 154 431 190 705 144 287 -48 426 -15 642 155 521 410 186 1000 -385 680z m413 -439 c-63 -163 -418 -200 -509 -53 -32 51 67 154 219 229 286 139 387 78 290 -176z"/>
<path d="M6322 46744 c-217 -152 -283 -470 -161 -786 90 -234 595 -197 836 61 431 463 -154 1090 -675 725z m623 -316 c41 -109 0 -221 -111 -302 -242 -177 -378 -110 -416 207 -26 226 7 267 215 267 140 0 274 -74 312 -172z"/>
<path d="M3490 46399 c-825 -616 -2356 -1152 -3091 -1082 -323 31 -399 8 -375 -114 34 -172 655 -206 1301 -72 303 63 375 49 375 -74 0 -252 451 -491 687 -364 259 139 363 476 206 666 -145 175 -72 258 384 438 304 120 343 111 570 -134 134 -145 313 -263 398 -263 170 0 555 344 555 495 0 96 -609 706 -700 701 -27 -1 -167 -90 -310 -197z m692 -475 c24 -168 -18 -224 -169 -224 -239 0 -353 151 -272 362 85 223 404 123 441 -138z m-1807 -849 c-23 -69 -102 -125 -175 -125 -73 0 -152 56 -175 125 -25 74 46 125 175 125 129 0 200 -51 175 -125z"/>
<path d="M5040 46426 c-240 -165 -338 -491 -202 -676 105 -144 184 -159 421 -80 246 82 291 150 291 438 0 267 -44 348 -200 368 -110 14 -250 -9 -310 -50z m342 -359 c22 -113 -35 -167 -175 -167 -228 0 -235 11 -145 246 76 198 276 149 320 -79z"/>
<path d="M2959 45092 c-311 -369 -326 -549 -59 -692 214 -114 550 -1 620 210 76 229 -46 790 -172 790 -72 0 -247 -138 -389 -308z m272 -401 c-132 -132 -280 49 -176 218 49 78 98 78 176 0 79 -79 79 -139 0 -218z"/>
<path d="M165 44649 c-100 -74 -167 -209 -149 -300 29 -140 71 -127 267 82 256 273 172 429 -118 218z"/>
<path d="M867 44633 c-136 -136 -60 -233 183 -233 138 0 250 -39 250 -88 0 -164 -288 -327 -519 -295 -180 26 -225 88 -203 283 27 241 23 243 -125 56 -84 -107 -153 -252 -153 -322 0 -157 369 -365 502 -283 54 34 98 -52 98 -192 0 -506 614 -544 1046 -65 230 256 120 536 -231 588 -118 18 -215 93 -215 168 0 287 -455 562 -633 383z m992 -848 c85 -137 -223 -385 -478 -385 -231 0 -235 259 -6 392 233 136 398 133 484 -7z"/>
<path d="M0 43600 c0 -366 21 -407 150 -300 192 159 192 441 0 600 -129 107 -150 66 -150 -300z"/>
<path d="M709 42708 c-77 -49 -190 -72 -250 -51 -216 75 -425 -389 -380 -842 39 -390 83 -452 421 -604 l377 -169 -337 -221 c-185 -122 -383 -221 -439 -221 -55 0 -101 -90 -101 -200 0 -110 13 -200 29 -200 16 0 205 90 421 200 216 110 463 200 549 200 86 0 507 -179 934 -398 428 -219 989 -462 1248 -540 684 -207 1370 -520 1849 -842 404 -273 1226 -720 1323 -720 130 0 17 270 -214 512 -334 348 -459 1148 -195 1249 295 114 659 -141 865 -607 237 -537 321 -599 587 -433 229 142 216 343 -19 303 -89 -16 -204 99 -277 277 -163 393 -649 799 -958 799 -191 0 -242 52 -242 250 0 156 57 250 150 250 83 0 150 40 150 89 0 49 -67 116 -150 147 -107 41 -150 210 -152 586 0 290 -34 580 -75 643 -97 151 -1423 296 -1423 155 0 -57 161 -203 357 -325 544 -336 692 -916 386 -1509 -139 -269 -140 -323 -10 -470 136 -152 208 -418 179 -663 -7 -54 -86 8 -176 137 -148 212 -219 229 -706 179 -416 -43 -554 -22 -596 88 -31 78 -118 143 -195 143 -76 0 -139 42 -139 93 0 263 -331 415 -762 350 -396 -59 -438 -46 -438 139 0 117 86 232 200 268 286 91 248 295 -119 638 -230 215 -364 274 -480 213 -88 -47 -428 -101 -755 -118 l-596 -33 31 350 c17 193 118 472 225 621 272 380 233 496 -97 287z"/>
<path d="M4043 41460 c-254 -179 -472 -862 -385 -1206 35 -140 78 -254 95 -254 17 0 237 89 490 197 449 192 659 476 655 885 -3 410 -500 630 -855 378z"/>
<path d="M9650 35490 c-165 -51 -398 -69 -518 -41 -156 37 -236 -4 -280 -144 -36 -112 -121 -172 -199 -142 -76 29 -188 -41 -250 -157 -138 -258 -96 -1678 47 -1606 55 28 88 230 74 450 -43 651 59 1050 269 1050 101 0 207 90 236 200 35 134 105 180 212 140 88 -34 328 5 534 87 474 188 766 90 1197 -400 177 -202 354 -335 393 -295 39 39 -136 273 -390 520 -485 471 -709 528 -1325 338z"/>
<path d="M9359 34947 c-347 -181 -551 -431 -556 -679 -2 -140 74 -100 334 175 185 196 394 357 465 357 70 0 312 -152 538 -338 556 -457 971 -1307 1036 -2121 36 -449 92 -641 188 -641 75 0 136 34 136 75 -1 263 -332 1897 -415 2053 -176 328 -808 979 -1098 1128 -335 174 -276 175 -628 -9z"/>
<path d="M9054 34006 c-86 -139 22 -306 198 -306 78 0 186 -172 245 -388 57 -214 170 -443 250 -509 253 -211 563 -1207 566 -1821 3 -629 124 -774 225 -269 143 715 -11 1293 -660 2483 -364 668 -705 1003 -824 810z"/>
<path d="M6278 31244 c-113 -112 56 -463 258 -538 249 -92 670 3 637 144 -13 55 -123 87 -245 72 -137 -18 -271 49 -349 175 -131 209 -204 245 -301 147z"/>
<path d="M19165 5452 c-32 -82 53 -442 188 -800 135 -359 222 -652 193 -652 -29 0 -10 -81 43 -179 53 -99 148 -559 211 -1022 64 -464 146 -890 183 -946 37 -57 112 -323 167 -592 55 -268 145 -480 200 -469 130 26 131 25 -249 1658 -180 770 -358 1603 -397 1850 -93 590 -316 1300 -409 1300 -41 0 -99 -67 -130 -148z"/>
<path d="M9845 4392 c-38 -61 -92 -1074 -121 -2251 -48 -1943 -38 -2141 111 -2141 142 0 165 141 167 1025 1 564 29 1547 63 2186 42 777 27 1182 -45 1226 -58 37 -137 16 -175 -45z"/>
<path d="M6234 1825 c36 -536 65 -1166 65 -1400 1 -234 45 -425 100 -425 103 0 135 2396 34 2657 -30 79 -101 143 -159 143 -70 0 -83 -323 -40 -975z"/>
</g>
</svg>