<svg xmlns="http://www.w3.org/2000/svg" version="1.0" width="250" height="525" viewBox="0 0 250.000000 525.000000" preserveAspectRatio="xMidYMid meet">
<metadata>
Created by potrace 1.10, written by Peter Selinger 2001-2011
</metadata>
<g transform="translate(0.000000,525.000000) scale(0.010000,-0.010000)" fill="#555555" stroke="none">
<path d="M8667 51936 c-9 -9 -1142 -42 -2517 -75 -4737 -114 -6150 -234 -6150 -524 0 -93 77 -125 225 -95 1214 249 2649 320 8295 412 2443 40 3331 -3 5280 -253 946 -121 1243 -192 1158 -276 -104 -104 -998 -241 -2208 -339 -1047 -85 -2040 -251 -1935 -324 110 -76 2861 146 3534 285 992 205 4162 145 5051 -96 303 -82 654 -149 782 -150 127 0 571 -158 987 -350 1437 -664 2931 -2351 3421 -3863 165 -511 293 -2928 184 -3481 -705 -3566 -1164 -4824 -3305 -9051 -354 -699 -1520 -2485 -2339 -3583 -319 -428 -682 -923 -808 -1100 -730 -1035 -1892 -2362 -2072 -2366 -110 -3 -439 132 -732 300 -439 252 -511 330 -413 449 66 79 170 144 232 144 62 0 365 169 674 375 1228 821 2535 2624 2746 3789 38 212 106 457 150 543 44 86 101 392 126 679 30 336 139 663 307 916 143 217 260 424 260 461 0 37 141 364 312 727 953 2012 1042 2266 1293 3660 270 1499 346 3025 196 3950 -66 413 -134 893 -150 1067 -75 811 -1354 2741 -2191 3307 -636 430 -974 507 -2501 571 -1143 47 -1491 94 -1351 181 23 14 346 171 717 349 371 178 675 369 675 424 0 142 -129 126 -356 -46 -229 -173 -444 -196 -444 -47 0 58 208 197 463 310 371 164 510 183 704 94 311 -141 333 -139 333 36 0 279 -362 372 -773 200 -207 -87 -534 -173 -727 -191 -435 -41 -1173 -314 -1362 -503 -195 -195 -1101 -93 -1468 165 -209 146 -361 179 -598 127 -294 -65 -307 -57 -174 104 123 147 248 163 826 106 375 -36 837 -131 1026 -210 424 -177 450 -178 450 -6 0 76 90 162 200 191 110 29 200 106 200 172 0 70 -68 94 -163 58 -99 -38 -305 45 -522 211 -292 223 -469 275 -962 285 -401 8 -770 90 -1103 245 -472 220 -841 273 -1300 187 -147 -27 -209 25 -233 196 -31 222 -64 231 -650 187 -339 -25 -770 -86 -957 -135 -296 -78 -344 -135 -376 -452 -29 -277 22 -434 214 -663 295 -350 301 -380 99 -457 -193 -75 -740 508 -744 792 -2 113 50 258 115 323 450 450 -1222 62 -2848 -662 -264 -117 -741 -281 -1060 -363 -832 -216 -1257 -411 -1988 -911 -355 -243 -741 -447 -859 -453 -999 -51 -1563 -170 -1563 -329 0 -107 95 -106 525 6 289 75 588 112 665 82 230 -88 818 150 1532 620 455 301 1060 567 1878 828 664 212 1261 426 1328 477 67 51 405 175 752 277 346 101 653 222 681 267 28 46 161 83 295 83 204 0 244 -49 244 -300 0 -165 45 -300 100 -300 238 0 72 -181 -220 -239 -385 -77 -780 -424 -780 -685 0 -104 -47 -276 -104 -383 -142 -266 111 -262 354 7 100 110 255 200 345 200 131 0 156 -77 124 -375 -47 -426 -332 -792 -761 -976 l-293 -126 324 -71 c396 -86 846 83 1051 397 208 317 74 399 -213 129 -170 -159 -220 -176 -175 -58 35 90 127 189 206 219 78 30 142 186 142 346 0 373 222 579 398 368 68 -83 98 -218 67 -300 -67 -174 338 -653 551 -653 79 0 193 -49 253 -109 61 -61 193 -91 295 -69 142 31 90 87 -214 235 -439 213 -597 603 -309 764 236 132 202 309 -34 183 -265 -142 -307 -132 -307 74 0 248 280 622 466 622 85 0 239 -107 342 -237 103 -131 345 -313 539 -405 194 -92 353 -231 353 -308 0 -77 56 -176 125 -220 167 -107 399 -530 291 -530 -164 0 -716 315 -716 409 0 53 -118 65 -265 28 -254 -63 -263 -52 -203 248 71 355 -68 421 -234 111 -134 -249 -38 -596 164 -596 144 0 738 -574 738 -712 0 -38 -158 -161 -351 -275 -193 -114 -403 -321 -466 -460 -63 -139 -146 -253 -184 -253 -38 0 -209 225 -380 500 -171 275 -358 500 -417 500 -64 0 -80 102 -41 260 55 217 35 254 -123 224 -135 -26 -196 -137 -218 -398 -28 -332 -61 -367 -400 -423 -922 -152 -1820 -5 -1820 299 0 71 158 159 351 195 468 88 547 243 123 243 -601 0 -1454 -828 -1228 -1193 35 -57 204 -140 376 -185 l313 -81 -564 -285 c-310 -157 -858 -568 -1217 -913 -468 -450 -818 -689 -1229 -840 -316 -116 -710 -274 -875 -350 -165 -76 -424 -169 -576 -206 -228 -57 -265 -41 -214 92 34 88 93 161 132 161 39 0 175 185 302 411 163 289 360 469 665 603 238 105 460 235 493 289 90 145 -400 117 -774 -45 -180 -79 -545 -198 -809 -265 -360 -92 -549 -213 -750 -483 -147 -198 -312 -391 -366 -430 -53 -38 -60 -105 -16 -150 45 -44 269 130 498 387 272 306 528 489 745 534 l331 67 -267 -494 c-288 -533 -671 -824 -1084 -824 -171 0 -260 -54 -260 -159 0 -135 82 -149 525 -91 289 38 728 128 975 200 248 73 713 209 1035 303 322 95 943 250 1381 345 714 155 860 158 1415 30 340 -79 698 -214 794 -301 190 -172 235 -578 75 -677 -55 -34 -100 -134 -100 -223 0 -129 50 -115 250 73 286 269 319 601 94 945 -226 345 -1397 597 -2129 458 -292 -55 -578 -130 -636 -166 -59 -37 -85 -5 -59 73 25 75 193 179 373 231 217 62 376 198 475 404 81 171 290 395 465 499 1193 709 1883 896 2280 618 127 -89 320 -162 428 -162 108 0 300 -98 428 -217 172 -162 231 -180 231 -70 0 81 -53 200 -118 265 -184 184 -37 243 262 107 209 -96 254 -169 203 -329 -67 -208 -69 -253 -37 -934 9 -208 -14 -478 -53 -600 -60 -189 -33 -222 180 -222 138 0 279 -45 313 -100 34 -55 134 -100 223 -100 89 0 244 -75 345 -166 173 -157 199 -153 424 59 282 265 608 241 608 -44 0 -160 -78 -205 -399 -231 -526 -43 -670 -178 -634 -595 20 -234 -25 -382 -144 -468 -249 -183 -214 -329 120 -501 189 -98 411 -129 625 -88 357 68 1382 695 1382 844 0 49 48 90 107 90 60 0 3 -191 -125 -425 -178 -326 -361 -486 -783 -688 -303 -144 -748 -476 -988 -737 l-437 -474 -607 287 c-723 342 -1121 658 -1323 1049 -133 257 -132 356 11 907 88 341 243 781 344 980 290 568 343 1031 157 1389 -99 191 -238 312 -361 312 -191 0 -192 -11 -34 -253 213 -326 140 -1170 -149 -1713 -112 -211 -228 -503 -257 -648 l-53 -264 -876 52 c-482 29 -944 87 -1028 130 -89 46 -316 5 -550 -100 -336 -150 -546 -166 -1348 -105 -522 40 -1029 107 -1125 148 -124 53 -175 29 -175 -83 0 -286 386 -393 1166 -322 602 54 734 40 734 -77 0 -214 279 -282 858 -210 335 42 542 26 586 -45 37 -60 159 -110 270 -110 436 0 78 -268 -895 -669 -874 -361 -1185 -435 -2242 -538 -878 -85 -1377 -186 -1755 -356 -290 -130 -572 -237 -625 -237 -53 0 -97 -67 -97 -150 0 -193 -3 -194 711 97 391 159 987 286 1673 357 854 88 1298 199 2232 558 745 286 1220 527 1314 668 82 121 180 189 219 152 157 -152 -91 -706 -507 -1135 -244 -251 -517 -568 -607 -705 -154 -236 -151 -262 52 -478 118 -126 185 -258 149 -294 -35 -36 16 -278 115 -537 128 -335 184 -775 192 -1527 13 -1154 84 -1371 604 -1864 179 -169 380 -472 447 -674 105 -317 93 -442 -90 -929 -200 -536 -199 -939 3 -939 51 0 93 170 93 378 0 358 220 822 390 822 43 0 127 -108 188 -241 69 -152 379 -372 846 -600 790 -385 876 -411 876 -265 0 52 -277 242 -615 422 -647 345 -1327 1107 -1229 1378 32 88 -159 344 -484 650 -471 444 -552 579 -661 1106 -69 330 -111 848 -93 1150 l32 550 425 -34 c459 -36 606 149 160 202 -417 50 -523 319 -258 653 122 154 291 403 375 554 136 245 136 275 2 275 -83 0 -217 -146 -296 -325 -347 -778 -758 -981 -758 -375 0 207 126 416 450 745 435 441 551 655 357 655 -52 0 -121 -88 -155 -195 -66 -208 -724 -666 -819 -571 -135 135 85 549 350 659 160 66 347 258 426 438 131 296 171 317 566 285 234 -18 425 -2 425 35 0 38 -184 278 -410 534 -279 317 -494 469 -675 478 -372 19 -1050 291 -1100 442 -29 88 16 104 145 55 103 -40 481 -97 839 -128 791 -68 982 -179 1495 -874 304 -411 537 -603 978 -804 318 -144 697 -328 843 -409 146 -80 381 -145 521 -145 190 0 522 -265 1304 -1042 805 -801 1204 -1116 1720 -1363 746 -356 1192 -757 1403 -1260 77 -184 195 -335 263 -335 93 0 121 354 112 1425 -6 784 -17 1531 -25 1660 -29 491 630 1615 946 1615 69 0 157 -146 196 -325 40 -179 156 -482 258 -674 103 -191 187 -424 187 -516 0 -252 108 -485 225 -485 166 0 11 1094 -186 1312 -123 136 -183 403 -206 915 -24 543 -82 785 -234 973 -407 504 -442 659 -217 974 233 328 1347 1126 1571 1126 81 0 147 51 147 113 0 214 -572 0 -1289 -483 -823 -555 -1048 -956 -773 -1376 152 -231 141 -256 -335 -742 -790 -806 -968 -1672 -609 -2965 124 -450 173 -850 137 -1123 -32 -233 -77 -424 -100 -424 -24 0 -209 132 -412 294 -203 162 -639 428 -969 591 -412 203 -922 613 -1626 1305 -564 556 -1093 1010 -1175 1010 -248 0 -171 441 126 726 340 326 990 612 1076 473 123 -199 619 -91 1149 251 1076 693 1732 316 1194 -687 -302 -564 -157 -563 200 2 359 567 358 890 -4 1158 -229 171 -310 180 -700 76 -242 -64 -660 -251 -928 -415 -270 -165 -526 -260 -573 -213 -48 48 25 294 162 553 271 508 310 775 138 947 -81 81 -80 204 5 460 l115 350 421 -465 c231 -256 468 -553 527 -660 332 -601 477 -96 343 1193 -75 722 -70 1019 20 1183 65 120 144 394 175 610 54 382 305 637 305 310 0 -90 74 -390 164 -666 138 -422 147 -624 57 -1264 -107 -764 -44 -1122 199 -1122 136 0 1494 1019 1436 1077 -87 88 -470 -104 -863 -433 -533 -445 -636 -440 -552 31 178 998 183 1405 23 1726 -169 339 -143 499 82 499 197 0 1224 -553 1854 -1000 303 -214 708 -416 900 -449 468 -81 973 -339 1053 -539 189 -470 330 -1222 304 -1617 -40 -582 -156 -1115 -276 -1264 -53 -66 -84 -201 -70 -300 55 -385 -133 -799 -552 -1211 -523 -515 -1024 -1418 -1120 -2016 -92 -578 90 -464 266 165 138 494 388 952 767 1412 l222 269 0 -300 c2 -540 -387 -1479 -863 -2084 -414 -528 -500 -730 -788 -1863 -361 -1421 -640 -2057 -946 -2154 -286 -91 -665 181 -841 603 -175 418 -403 472 -328 78 48 -248 19 -234 -363 185 -228 251 -685 630 -1015 844 -1041 673 -1505 1108 -1826 1712 -359 674 -765 1721 -695 1791 45 45 398 -182 1158 -744 584 -432 317 -36 -348 515 -376 313 -802 575 -990 611 -274 51 -320 97 -274 272 31 116 138 232 240 259 219 57 241 182 46 257 -196 75 -561 -207 -561 -436 0 -228 -436 -373 -633 -210 -72 59 -387 138 -701 175 -315 37 -596 106 -625 153 -119 194 -301 61 -466 -340 -237 -577 -227 -606 175 -531 375 71 495 -84 150 -193 -270 -86 -254 -250 25 -250 256 1 875 349 875 492 0 116 194 174 875 260 377 48 525 33 525 -53 0 -143 175 -551 756 -1759 473 -984 1007 -1544 1997 -2097 559 -312 996 -694 1200 -1049 381 -666 387 -692 276 -1225 -83 -403 -77 -608 27 -914 160 -471 82 -608 -432 -750 -387 -106 -524 -68 -524 145 0 232 -378 796 -687 1024 -400 296 -469 167 -106 -197 369 -369 625 -849 553 -1036 -78 -204 -922 -177 -1412 46 -220 100 -575 347 -789 548 -213 201 -403 365 -423 365 -89 0 -24 -372 84 -480 93 -93 43 -120 -225 -118 -488 2 -644 119 -505 379 137 256 141 419 10 419 -55 0 -100 -69 -100 -152 0 -194 -473 -378 -800 -312 -294 60 -779 275 -1387 616 -453 253 -613 248 -613 -20 0 -121 31 -131 137 -43 182 152 328 -222 417 -1069 132 -1251 555 -2257 1064 -2529 114 -61 182 -210 182 -397 0 -164 163 -624 362 -1021 572 -1141 1132 -1527 2377 -1637 759 -68 961 -158 961 -433 0 -191 -1683 -2362 -2901 -3742 -458 -519 -1399 -1874 -1399 -2015 0 -42 -105 -216 -233 -387 -226 -300 -1667 -3157 -1667 -3305 0 -41 -64 -216 -143 -389 -856 -1885 -1382 -4031 -1906 -7765 -153 -1093 -198 -3926 -86 -5375 57 -732 87 -825 261 -825 158 0 184 45 131 225 -37 124 -88 1327 -114 2675 -35 1867 -11 2664 101 3350 455 2781 568 3403 808 4450 294 1283 454 1808 686 2250 86 165 255 525 374 800 l217 500 87 -450 c48 -247 107 -664 130 -925 23 -262 69 -519 102 -573 151 -243 1566 -659 2124 -623 374 24 468 -106 689 -955 81 -310 195 -621 254 -692 139 -168 318 -58 250 154 -241 762 -344 1270 -274 1358 46 59 236 489 423 956 186 468 697 1449 1135 2181 836 1397 1803 2506 3288 3771 1371 1168 2186 2092 2661 3016 200 388 233 410 483 320 396 -142 623 -519 785 -1300 137 -664 135 -706 -61 -955 -483 -614 -623 -1811 -357 -3064 l144 -681 -878 -869 c-616 -609 -1070 -1182 -1521 -1918 -354 -577 -659 -1095 -679 -1150 -20 -56 -166 -382 -325 -726 -159 -344 -289 -672 -289 -729 0 -57 -61 -203 -136 -325 -75 -121 -212 -671 -305 -1221 -92 -550 -237 -1347 -321 -1770 -268 -1353 -188 -4246 159 -5730 51 -220 121 -614 154 -875 41 -318 109 -475 205 -475 192 0 185 121 -106 1780 -289 1648 -313 2778 -104 4930 222 2289 804 4241 1652 5540 143 220 309 513 368 650 220 509 1344 1906 1803 2238 l474 344 139 -416 c76 -229 194 -484 262 -566 142 -173 714 -1956 817 -2550 39 -220 129 -540 201 -712 71 -171 160 -604 196 -961 64 -624 57 -652 -171 -714 -227 -62 -1187 -863 -1187 -991 0 -34 -127 -255 -282 -492 -155 -236 -444 -880 -643 -1430 -352 -976 -362 -1050 -448 -3050 -105 -2453 -67 -3600 118 -3600 93 0 121 158 101 575 -15 316 14 1588 65 2825 88 2142 107 2291 399 3100 169 468 388 1030 487 1250 223 497 930 1307 1314 1506 l289 149 0 -334 c0 -235 83 -413 280 -602 345 -331 420 -336 420 -31 0 135 -96 302 -223 385 -195 130 -208 180 -105 405 112 247 94 372 -156 1072 -29 83 -105 488 -168 900 -159 1038 -961 3718 -1168 3900 -276 244 -600 1383 -655 2306 -65 1103 152 1952 539 2099 191 73 238 142 184 271 -105 251 -341 1339 -342 1574 0 158 79 109 376 -235 350 -404 387 -423 522 -261 80 96 192 337 249 535 78 275 162 368 350 390 136 16 417 102 625 191 263 114 410 132 483 59 196 -196 272 -841 178 -1512 -114 -813 -173 -1022 -347 -1221 -112 -128 -113 -230 -5 -600 97 -334 108 -710 43 -1496 -48 -577 -97 -2107 -109 -3399 -20 -2270 -14 -2349 174 -2350 145 -1 216 -98 274 -379 44 -208 141 -501 216 -650 75 -150 165 -429 199 -622 130 -739 456 -1738 655 -2007 263 -355 526 -1055 788 -2093 173 -688 -39 -1778 -296 -1521 -67 67 -59 282 23 650 68 302 94 667 58 810 -57 227 -118 261 -464 261 -444 0 -435 10 -301 -342 79 -209 54 -304 -142 -531 -295 -343 -455 -224 -225 167 94 158 170 313 170 344 0 32 -184 152 -409 266 -328 168 -460 324 -675 799 -284 630 -368 705 -461 413 -48 -151 -125 -173 -428 -124 -512 83 -635 486 -346 1138 132 300 159 441 76 409 -198 -76 -557 -787 -557 -1105 0 -396 266 -753 535 -718 367 49 839 -216 1106 -620 224 -339 237 -403 108 -533 -81 -81 -281 -176 -445 -212 -832 -183 -1788 -2430 -2030 -4776 -42 -405 -24 -475 127 -475 144 0 187 122 241 675 92 956 226 1545 583 2568 340 973 731 1461 1581 1976 478 290 759 229 462 -100 -93 -101 -168 -220 -168 -264 0 -172 798 -839 1138 -951 199 -66 362 -152 362 -193 0 -207 -528 -610 -1212 -923 -554 -254 -1098 -1099 -1522 -2363 -131 -389 -128 -425 27 -425 119 0 252 217 443 725 486 1290 791 1721 1293 1831 168 37 522 271 789 520 455 426 495 443 666 289 412 -373 706 -104 917 835 68 303 206 775 306 1050 364 1005 272 2777 -228 4366 -355 1127 -335 1562 112 2405 329 621 475 1229 558 2331 66 877 -95 2521 -295 3002 -182 438 -293 1610 -161 1692 156 96 131 362 -53 565 -94 104 -166 377 -175 665 -13 423 50 594 460 1259 429 695 475 829 475 1371 0 389 -58 689 -164 852 -130 197 -152 397 -106 946 63 747 33 786 -410 556 -708 -369 -999 -1021 -764 -1714 260 -763 120 -1196 -620 -1914 -396 -385 -640 -705 -648 -850 -6 -128 -17 -298 -25 -379 -19 -212 -550 -386 -656 -214 -45 72 -111 543 -148 1047 -66 901 -61 931 280 1666 191 411 466 906 611 1098 145 193 327 485 405 650 78 165 187 368 243 450 319 467 1129 2372 1259 2961 237 1067 456 2523 488 3239 16 358 80 807 142 999 155 479 140 2025 -27 2734 -162 689 -527 1119 -1091 1288 -495 148 -550 301 -280 782 331 588 860 2151 1261 3726 233 914 250 1137 243 3350 -7 2158 -25 2398 -199 2671 -337 527 -340 569 -60 773 146 106 266 257 266 335 0 182 -77 180 -264 -8 -241 -241 -416 -177 -685 248 -303 480 -305 511 -51 729 242 207 249 344 39 765 -169 338 -329 436 -996 603 -408 103 -937 544 -808 674 38 38 136 -26 217 -142 142 -202 587 -384 1541 -630 259 -67 560 -240 725 -416 277 -297 282 -298 279 -67 -2 130 -62 313 -133 406 -143 189 -1019 520 -1154 436 -114 -70 -992 234 -1079 375 -38 61 -59 263 -46 448 18 276 -10 331 -156 304 -99 -19 -255 -185 -347 -369 -285 -570 77 -1014 1153 -1417 441 -165 553 -254 595 -475 29 -150 6 -328 -51 -397 -136 -164 -448 -160 -549 7 -129 213 -1552 1319 -1880 1460 -781 337 -2310 614 -3603 652 -918 27 -1528 99 -2008 238 -629 181 -1296 300 -2089 374 -165 15 -547 61 -850 102 -450 61 -4075 129 -4133 78z m956 -2136 c-29 -295 -8 -500 50 -500 55 0 82 101 61 225 -21 124 3 287 53 364 139 211 602 53 715 -244 95 -251 354 -422 467 -310 33 33 12 118 -46 188 -77 92 -66 183 38 325 121 166 175 178 340 75 108 -68 290 -123 404 -123 114 0 179 -45 145 -100 -34 -55 -149 -100 -256 -100 -107 0 -194 -67 -194 -150 0 -180 130 -188 553 -35 321 116 847 52 847 -104 0 -47 -162 -111 -359 -143 -198 -32 -514 -176 -703 -321 -404 -308 -899 -270 -1028 80 -98 263 -250 56 -162 -221 80 -252 431 -318 1377 -259 433 28 775 9 775 -42 0 -193 1033 -322 1800 -225 413 52 791 70 842 41 226 -132 -493 -255 -1642 -281 -687 -16 -1272 -65 -1300 -110 -27 -44 400 -102 950 -130 1191 -60 1131 -216 -106 -281 -634 -33 -896 -4 -1183 132 -439 209 -608 110 -275 -160 178 -144 395 -191 875 -191 359 0 639 -44 639 -100 0 -164 -1330 -119 -1683 56 -172 86 -341 202 -375 257 -34 54 -181 147 -327 206 l-265 106 283 81 c156 45 339 60 407 34 133 -51 704 349 620 433 -28 28 -129 -27 -224 -123 -349 -349 -1685 -14 -1975 494 -61 106 -235 301 -386 433 -295 258 -298 537 -11 998 223 357 310 264 259 -275z m727 300 c78 -127 -54 -127 -250 0 -129 84 -127 97 19 98 93 1 197 -43 231 -98z m-1314 -250 c-31 -82 -75 -150 -97 -150 -21 0 -39 68 -39 150 0 83 44 150 97 150 53 0 71 -67 39 -150z m4941 -620 c229 -149 404 -283 388 -298 -27 -27 -1181 276 -1250 328 -19 15 -5 75 31 133 109 177 391 122 831 -163z m-5634 -682 c106 -80 164 -174 130 -208 -88 -89 -1273 -122 -1273 -36 0 121 238 275 500 323 413 76 443 72 643 -79z m7133 27 c-23 -69 -218 -135 -434 -146 l-392 -22 350 139 c448 178 526 182 476 29z m299 -1250 c27 -82 -65 -125 -269 -125 -478 0 -1606 -235 -1606 -334 0 -92 426 -38 1220 155 333 81 536 84 700 9 207 -95 181 -113 -270 -176 -275 -38 -730 -133 -1012 -211 -700 -193 -1886 -200 -2438 -14 l-450 151 500 16 c951 31 1182 81 1342 291 87 114 338 250 558 302 563 134 1674 92 1725 -64z m1700 15 c179 -27 325 -97 325 -156 0 -61 94 -83 218 -50 325 85 1094 -459 1654 -1171 1009 -1282 983 -1506 -272 -2298 -295 -187 -355 -287 -380 -634 -27 -367 6 -440 300 -660 181 -136 432 -279 556 -316 124 -38 298 -207 385 -376 154 -299 151 -312 -126 -544 -157 -131 -442 -307 -634 -391 -191 -84 -450 -249 -574 -366 -125 -117 -245 -193 -268 -170 -24 23 1 267 54 542 194 1003 -83 2451 -541 2832 -79 65 -341 156 -583 201 -438 82 -1308 508 -1586 776 -129 125 -110 180 156 446 167 167 414 317 547 332 134 16 322 63 418 106 113 50 301 3 531 -133 621 -366 707 -245 270 383 -151 218 -409 453 -572 523 -384 163 -1609 127 -2374 -72 -326 -84 -680 -125 -786 -92 -219 70 -271 -128 -55 -211 76 -29 508 17 961 103 1046 198 1902 202 2157 9 183 -138 175 -147 -144 -150 -186 -2 -923 -148 -1637 -324 l-1299 -322 -178 220 c-139 172 -160 298 -97 579 45 198 97 372 115 387 19 15 336 101 705 192 740 182 2032 222 2129 65 69 -111 580 -137 682 -34 121 120 -150 331 -569 443 -424 113 -663 255 -663 394 0 73 431 50 1175 -63z m-5978 -747 c139 -98 477 -207 751 -242 273 -34 505 -71 514 -82 9 -10 -14 -199 -52 -419 l-69 -400 -68 322 c-68 326 -426 530 -667 382 -186 -115 -114 -252 119 -228 202 22 235 -38 325 -593 55 -340 133 -650 174 -691 97 -96 376 580 376 911 0 390 177 647 445 647 341 0 361 -182 83 -738 -140 -280 -221 -577 -190 -697 66 -251 -283 -665 -559 -665 -181 0 -357 -255 -250 -362 30 -30 152 -2 271 62 282 151 314 108 345 -468 15 -265 62 -658 105 -874 l79 -392 -490 559 c-269 307 -549 562 -623 567 -151 9 -508 402 -513 565 -2 59 112 207 253 330 194 168 248 300 225 543 -30 306 -52 321 -506 350 -261 17 -475 73 -475 125 0 186 -152 89 -274 -173 -150 -323 -84 -417 177 -253 295 184 774 151 888 -62 114 -214 -55 -395 -566 -607 -179 -74 -323 -163 -321 -197 2 -35 148 -154 325 -265 376 -236 437 -498 264 -1138 -148 -550 -225 -658 -733 -1027 -265 -192 -511 -283 -769 -283 -443 0 -589 156 -326 350 124 91 185 262 185 515 0 361 18 383 375 442 433 71 485 -14 125 -207 -311 -167 -329 -337 -25 -245 436 133 595 358 524 742 -36 194 -130 424 -207 511 -78 87 -142 235 -142 330 0 272 -291 762 -453 762 -190 0 -187 -21 61 -441 227 -385 190 -559 -120 -559 -111 0 -292 -49 -403 -108 -111 -60 -224 -86 -252 -59 -103 104 183 467 367 467 131 0 175 49 136 150 -91 237 -428 176 -554 -100 -101 -221 -258 -302 -442 -225 -86 36 -86 1184 0 1449 57 174 9 280 -209 472 -154 136 -360 249 -456 251 -243 4 -220 275 30 355 240 76 450 -76 654 -470 80 -155 212 -282 294 -282 81 0 147 -45 147 -100 0 -55 91 -100 203 -100 112 0 229 -67 261 -150 33 -87 183 -150 359 -150 279 0 298 22 245 287 -44 218 -3 339 168 500 125 117 303 213 395 213 93 0 169 45 169 100 0 229 -481 79 -800 -250 -360 -371 -641 -448 -736 -200 -94 244 34 439 499 759 355 244 427 344 382 527 -53 209 -30 222 321 181 209 -24 492 -125 631 -224z m-5485 -583 c356 -154 544 -175 1003 -110 310 44 659 110 775 147 263 83 264 10 4 -356 -203 -284 -213 -286 -513 -131 -264 136 -372 141 -763 31 -348 -97 -465 -100 -495 -9 -22 65 -146 118 -275 118 -268 0 -392 142 -310 355 70 181 50 183 574 -45z m10025 -852 c-299 -262 -678 -335 -791 -151 -36 58 -43 130 -14 158 68 68 1008 314 1055 275 20 -16 -93 -143 -250 -282z m4756 -1364 c4 -87 -150 -232 -343 -324 -441 -210 -455 -482 -41 -777 171 -121 424 -326 563 -454 l252 -235 -117 -1127 c-137 -1308 -263 -1576 -732 -1559 -1135 42 -2175 -1522 -2175 -3271 0 -360 101 -949 245 -1431 337 -1125 364 -1544 156 -2427 -345 -1462 -1316 -2964 -2479 -3833 -972 -726 -1155 -777 -2507 -704 -1091 60 -1194 49 -1615 -169 -349 -181 -457 -296 -482 -514 -34 -296 143 -605 294 -512 50 32 45 136 -12 242 -134 252 -131 264 109 488 509 474 1759 343 3143 -330 516 -252 1028 -457 1137 -457 446 0 1598 -331 2161 -620 362 -186 903 -610 1361 -1069 419 -419 875 -838 1013 -931 331 -225 428 -685 159 -755 -154 -41 -181 -108 -131 -332 52 -240 18 -304 -240 -437 -438 -226 -785 -195 -1041 94 -696 786 -1207 1250 -1378 1250 -278 0 -238 -154 102 -396 162 -116 440 -434 617 -707 177 -273 382 -497 455 -497 174 0 168 -142 -23 -512 -191 -369 -237 -338 -903 607 -352 500 -571 716 -773 761 -155 35 -309 36 -342 4 -33 -33 39 -60 160 -60 142 0 253 -88 315 -251 52 -139 194 -386 315 -549 267 -361 170 -515 -141 -226 -469 433 -1069 647 -2302 821 -965 136 -1360 242 -1873 502 -693 350 -1362 830 -1588 1136 -102 138 -213 172 -431 128 -282 -56 -1456 211 -1845 420 -279 151 -588 516 -862 1019 -246 450 -424 1000 -325 1000 29 0 576 -273 1216 -608 785 -410 1316 -764 1633 -1090 499 -512 1178 -907 1889 -1098 686 -185 598 -49 -252 385 -432 221 -1014 618 -1295 881 -556 524 -686 606 -2240 1408 -577 298 -1135 616 -1240 707 -385 335 -842 1178 -907 1671 -36 272 -137 663 -225 870 -88 207 -135 400 -105 430 29 30 327 -38 662 -151 335 -113 713 -205 840 -205 127 0 331 -70 454 -156 123 -86 309 -130 414 -96 149 47 180 20 143 -123 -38 -143 130 -282 783 -647 457 -256 955 -495 1106 -532 339 -83 340 -117 17 -454 -187 -195 -246 -348 -217 -556 41 -284 42 -283 219 128 198 461 481 635 1036 638 203 0 438 45 520 98 114 74 73 97 -170 98 -575 3 -1432 287 -2185 724 -406 235 -740 460 -742 498 -1 39 211 5 472 -76 261 -81 800 -193 1197 -250 632 -91 805 -78 1383 100 922 285 1673 933 1900 1638 92 285 336 766 543 1068 360 527 900 1882 904 2267 0 101 43 249 94 330 75 118 111 97 191 -112 54 -142 172 -286 263 -321 142 -55 163 -218 144 -1139 -11 -591 -60 -1238 -108 -1438 -126 -525 -978 -1778 -1494 -2196 -773 -627 -1659 -1191 -1873 -1191 -114 0 -235 -45 -269 -100 -95 -154 422 -119 750 50 884 457 2334 1684 2460 2081 38 121 171 354 295 519 287 380 411 878 485 1950 61 885 -39 1576 -246 1704 -67 41 -143 303 -170 581 -44 454 -12 562 304 1038 340 513 772 1624 772 1988 0 97 -41 203 -92 234 -51 31 62 313 250 625 188 313 342 595 342 628 0 112 995 802 1157 802 90 0 311 70 493 156 278 132 340 226 396 599 43 289 21 533 -65 703 -124 247 -262 346 -906 647 -391 183 -376 603 31 912 169 128 472 376 675 551 319 275 378 295 437 150 37 -92 71 -238 75 -324z m200 -928 l7 -284 -317 185 c-423 247 -452 390 -114 568 254 134 288 132 349 -18 37 -92 71 -295 75 -451z m-10893 145 c0 -49 -67 -116 -150 -147 -91 -35 -150 0 -150 89 0 81 68 147 150 147 83 0 150 -40 150 -89z m-5500 -1811 c0 -55 -45 -100 -100 -100 -55 0 -100 45 -100 100 0 55 45 100 100 100 55 0 100 -45 100 -100z m10928 -525 c24 -69 -176 -407 -445 -752 -269 -345 -541 -750 -604 -900 -108 -257 -117 -260 -153 -56 -72 413 166 985 588 1411 443 448 543 497 614 297z m5318 -1950 c-92 -542 -535 -2007 -752 -2486 -129 -286 -287 -452 -515 -545 -181 -73 -453 -223 -605 -333 -424 -307 -506 -134 -454 956 37 795 89 1022 352 1533 493 961 732 1115 1908 1237 95 9 112 -86 66 -362z m-13071 -980 c143 -44 170 -406 35 -489 -49 -30 -116 16 -149 103 -45 115 -138 140 -351 93 -332 -73 -490 82 -307 301 110 133 322 130 772 -8z m16329 -2151 c120 -168 303 -645 407 -1061 232 -929 180 -1682 -164 -2393 -195 -403 -247 -667 -247 -1256 0 -861 -247 -2870 -416 -3383 -214 -649 -1609 -3410 -1910 -3780 -57 -70 -187 -363 -287 -650 -148 -424 -172 -454 -126 -159 40 254 -6 491 -152 793 -189 391 -194 453 -59 660 83 125 150 331 150 458 0 126 95 407 211 624 331 617 1089 2918 1089 3304 0 499 -219 443 -496 -126 -255 -525 -871 -1225 -1077 -1225 -200 0 -335 465 -264 909 55 341 1019 2144 1224 2290 175 124 528 719 464 782 -162 159 -1663 -1986 -1922 -2747 -175 -515 -124 -1182 110 -1415 195 -195 487 -76 1043 426 216 195 416 355 445 355 82 0 -798 -2179 -1035 -2563 -139 -225 -180 -385 -119 -465 59 -78 34 -240 -69 -450 l-162 -328 -857 828 c-471 455 -939 876 -1040 935 -166 98 -171 140 -48 450 115 290 922 1820 1253 2375 55 92 255 438 445 768 566 984 947 1460 1801 2248 580 535 842 854 923 1125 207 693 -86 626 -465 -105 -133 -257 -519 -716 -857 -1018 -882 -788 -1932 -2359 -3058 -4575 -259 -509 -533 -925 -609 -925 -76 0 -436 75 -799 166 -605 152 -644 177 -470 307 104 78 178 183 164 234 -14 51 31 82 100 68 69 -14 113 33 99 103 -21 103 658 1122 881 1322 82 74 1191 1525 1595 2087 1101 1532 1515 2137 1567 2291 32 95 183 285 336 422 158 143 364 511 482 863 148 439 356 774 731 1175 609 654 865 709 1188 256z m-4404 -219 c0 -178 -560 -1338 -682 -1414 -106 -65 -365 925 -267 1023 88 88 792 496 874 507 41 5 75 -47 75 -116z m-5143 -3523 c312 -239 321 -264 215 -625 -119 -408 -436 -927 -566 -927 -138 0 -205 579 -140 1203 34 328 86 597 114 597 28 0 198 -112 377 -248z m9980 -8352 c246 -691 206 -1015 -195 -1612 -412 -611 -638 -1199 -641 -1657 -1 -416 -183 -520 -401 -231 -105 139 -286 233 -462 240 -513 18 -435 375 237 1086 1095 1160 1181 1388 910 2401 -99 370 -88 485 74 826 l190 397 64 -500 c36 -275 137 -702 224 -950z m-11481 -411 c590 -358 815 -461 1419 -645 97 -29 90 -135 -35 -466 -276 -739 -846 -1908 -1133 -2326 -1289 -1882 -1506 -2181 -2018 -2791 -780 -930 -1298 -2092 -1678 -3761 -106 -467 -244 -983 -307 -1145 l-114 -295 -220 258 c-159 187 -394 293 -849 385 -426 85 -662 187 -731 315 -80 151 -169 176 -440 125 -338 -63 -339 -62 -497 482 -181 624 -131 852 208 937 275 69 324 384 75 480 -90 34 -270 -7 -400 -92 -201 -132 -236 -133 -236 -10 0 196 1173 2482 1604 3127 190 285 459 709 596 943 138 234 455 676 705 983 250 306 525 660 611 785 86 125 335 418 552 650 217 232 482 555 589 718 106 163 300 411 431 550 132 140 372 468 534 729 176 283 368 475 476 475 100 0 486 -185 858 -411z m3319 -903 c289 -55 524 -153 523 -218 -2 -116 -383 -729 -821 -1318 -339 -458 -1850 -1936 -2578 -2523 -1141 -920 -2049 -2058 -3094 -3877 -311 -541 -403 -643 -404 -450 -3 617 737 1993 1785 3320 365 463 797 1041 959 1286 162 244 371 534 464 644 454 535 1247 2094 1644 3231 48 138 431 114 1522 -95z m6885 -2604 c318 -228 440 -382 419 -526 -42 -297 -309 -302 -655 -11 -382 322 -648 337 -605 35 25 -179 -35 -235 -319 -302 -529 -125 -893 -148 -923 -60 -15 44 -12 318 6 609 l33 530 798 23 c757 22 822 7 1246 -298z m-381 -907 c74 -88 65 -180 -30 -310 -101 -137 -304 -196 -795 -229 -363 -24 -712 -12 -774 26 -135 84 711 357 896 290 69 -26 181 42 249 151 141 226 305 252 454 72z m821 -263 c0 -48 -67 -144 -150 -212 -120 -100 -182 -98 -310 8 -145 120 -142 139 25 205 260 103 435 102 435 -1z m-1112 -447 c167 -202 -294 -665 -662 -665 -218 0 -283 -47 -283 -202 0 -112 46 -184 103 -160 495 205 480 209 406 -130 -49 -222 -26 -373 74 -490 80 -92 168 -261 196 -375 93 -384 -121 -1463 -385 -1949 -486 -893 -647 -683 -568 742 103 1862 94 2415 -45 2698 -202 415 -101 549 446 592 264 21 508 46 543 56 34 10 113 -43 175 -117z m910 -40 c-3 -185 -192 -349 -338 -293 -259 100 -193 368 90 368 138 0 249 -34 248 -75z m536 -615 c340 -850 406 -4241 90 -4635 -55 -69 -134 -237 -176 -374 -195 -632 -1107 -1399 -1669 -1403 -337 -2 -519 -149 -440 -355 51 -134 95 -149 184 -60 64 64 200 117 302 117 102 0 322 71 489 157 168 87 324 138 349 114 24 -25 0 -239 -53 -476 -73 -325 -63 -496 41 -696 75 -146 206 -563 290 -927 141 -609 140 -698 -19 -1126 -218 -591 -473 -756 -569 -369 -37 150 -243 665 -458 1144 -215 479 -422 1064 -460 1300 -37 236 -148 572 -245 746 -98 175 -209 490 -247 700 -38 211 -109 459 -156 552 -50 96 -50 192 -1 223 48 29 110 250 137 490 37 331 164 578 527 1023 673 826 783 1135 801 2234 15 926 20 942 333 1200 175 144 317 302 317 353 -1 114 303 458 404 458 40 0 144 -176 229 -390z m-979 49 c186 -136 183 -146 -81 -266 -322 -147 -418 -88 -326 199 77 245 147 257 407 67z m-1820 -2009 c-68 -495 -97 -1159 -65 -1475 51 -501 36 -575 -114 -575 -161 0 -168 140 -102 1925 39 1059 98 1970 131 2025 33 55 107 -147 166 -450 79 -405 75 -787 -16 -1450z m-135 -3000 c0 -302 -45 -550 -100 -550 -55 0 -100 248 -100 550 0 303 45 550 100 550 55 0 100 -247 100 -550z m2498 -2075 c0 -69 -45 -192 -98 -275 -76 -117 -97 -89 -98 125 -1 151 43 275 98 275 55 0 99 -56 98 -125z m302 -1331 c0 -86 -45 -128 -100 -94 -55 34 -100 104 -100 156 0 52 45 94 100 94 55 0 100 -70 100 -156z m242 -1991 c5 -662 -27 -1327 -69 -1478 -102 -364 -362 -354 -436 16 -32 160 -137 312 -233 337 -116 30 -197 189 -243 477 -61 382 -41 455 181 638 260 215 552 923 560 1357 4 236 10 239 118 53 67 -116 118 -694 122 -1400z m-1642 -1616 c0 -492 -218 -1037 -416 -1037 -230 0 -248 351 -29 569 85 85 181 285 212 443 73 361 233 378 233 25z m1200 -1130 c0 -52 -47 -217 -104 -367 -70 -184 -136 -240 -205 -171 -68 68 -61 187 20 366 118 258 289 360 289 172z m-550 -207 c-34 -55 -107 -100 -162 -100 -55 0 -72 45 -38 100 34 55 107 100 162 100 55 0 72 -45 38 -100z"/>
<path d="M9850 49000 c-34 -55 6 -100 88 -100 83 0 178 45 212 100 34 55 -6 100 -88 100 -83 0 -178 -45 -212 -100z"/>
<path d="M9466 44518 c-137 -152 -143 -211 -35 -359 118 -161 141 -163 262 -18 109 132 109 159 -1 159 -103 0 -105 27 -12 120 66 66 120 156 120 200 0 137 -162 88 -334 -102z"/>
<path d="M14824 23475 c117 -359 1863 -928 2105 -686 121 121 -298 311 -687 311 -135 0 -323 42 -418 94 -353 190 -857 406 -948 406 -51 0 -74 -56 -52 -125z"/>
<path d="M20460 26581 c-21 -72 -115 -347 -210 -612 -172 -482 -157 -647 45 -522 137 85 405 719 405 959 0 222 -186 358 -240 175z"/>
<path d="M8728 16634 c-210 -146 -214 -171 -69 -451 136 -263 189 -289 472 -229 385 81 564 224 407 325 -61 39 -143 172 -181 296 -81 260 -311 281 -629 59z"/>
<path d="M7325 14536 c-81 -34 -125 -273 -125 -681 l0 -629 761 -270 761 -270 239 224 c420 395 297 772 -164 507 -361 -207 -458 -123 -693 599 -142 437 -217 538 -414 553 -132 11 -296 -4 -365 -33z m575 -627 c0 -238 -35 -281 -193 -240 -242 64 -356 338 -185 446 247 157 378 86 378 -206z"/>
<path d="M4564 48049 c-158 -82 -487 -149 -732 -149 -548 0 -780 -114 -1245 -612 -217 -231 -459 -390 -600 -393 -1050 -25 -1295 -129 -1577 -670 -64 -124 -183 -225 -264 -225 -80 0 -146 -45 -146 -100 0 -55 88 -100 196 -100 197 0 498 261 771 668 113 168 218 207 465 172 468 -68 1195 185 1337 465 213 420 539 590 1134 593 342 1 640 63 781 162 126 88 257 133 291 99 113 -114 -140 -268 -666 -407 -694 -183 -1004 -400 -1074 -754 -105 -522 -971 -1016 -2028 -1156 -415 -56 -536 -128 -856 -510 -204 -244 -349 -468 -321 -496 102 -101 681 279 790 519 67 146 197 245 321 246 358 1 1684 494 2021 751 177 135 350 377 385 536 90 408 390 647 792 632 231 -9 429 67 624 238 158 138 478 303 712 367 234 64 425 152 425 196 0 141 -1238 84 -1536 -72z"/>
<path d="M6175 43994 c-254 -151 -223 -327 33 -190 167 89 247 77 401 -62 225 -204 382 -109 227 138 -128 205 -422 256 -661 114z"/>
<path d="M8 41958 c-4 -105 19 -164 52 -131 34 33 37 120 8 192 -32 80 -55 56 -60 -61z"/>
<path d="M1490 41256 c-25 -24 -358 -66 -742 -94 -384 -27 -709 -53 -723 -56 -14 -3 -25 -57 -25 -119 0 -80 212 -92 725 -43 670 65 987 177 860 304 -28 29 -71 32 -95 8z"/>
<path d="M1975 38559 c-261 -71 -554 -194 -650 -275 -96 -81 -434 -300 -750 -486 -316 -187 -575 -401 -575 -475 0 -147 78 -114 550 234 856 630 2211 1050 2750 851 138 -50 370 -118 517 -150 602 -131 1286 -1054 1281 -1728 -3 -417 -317 -1023 -791 -1530 l-421 -450 61 350 c211 1216 148 1552 -401 2145 -206 222 -319 255 -879 255 -686 0 -1368 -241 -2096 -740 -209 -143 -423 -260 -475 -260 -53 0 -96 -45 -96 -100 0 -158 251 -117 512 84 131 101 508 310 837 464 472 221 726 277 1200 263 724 -21 1014 -250 1163 -916 128 -569 31 -1110 -326 -1820 -159 -316 -355 -861 -436 -1209 -132 -569 -130 -696 13 -1225 89 -325 183 -688 209 -806 53 -238 589 -796 934 -972 472 -240 512 -456 203 -1113 -156 -330 -474 -1083 -708 -1674 l-425 -1074 71 -1144 c70 -1114 81 -1155 413 -1543 445 -520 1070 -765 1714 -673 1359 193 1493 191 1715 -31 418 -418 296 -756 -601 -1651 -676 -674 -1788 -2108 -1788 -2305 0 -30 -207 -515 -461 -1079 -253 -565 -541 -1206 -639 -1426 -653 -1464 -1475 -4427 -1607 -5796 -222 -2307 -269 -2034 -230 1346 22 1898 61 3765 87 4150 26 385 71 4750 101 9700 29 4950 77 9214 105 9475 l51 475 -629 18 c-345 9 -819 25 -1053 33 -346 13 -425 -17 -425 -161 0 -148 129 -188 814 -247 l814 -71 -69 -10653 c-37 -5859 -85 -10680 -106 -10714 -21 -34 -65 -2963 -99 -6509 -33 -3545 -83 -6660 -110 -6921 -48 -447 -37 -475 187 -475 l237 0 81 2725 c45 1499 72 3025 60 3392 -11 367 29 1042 89 1500 159 1209 183 1441 255 2383 155 2031 930 4571 2396 7850 123 275 258 613 301 750 42 138 197 408 343 600 147 193 337 463 423 600 86 138 521 622 967 1076 846 863 1106 1358 979 1863 -120 478 -803 674 -1590 455 -333 -93 -411 -78 -667 126 -160 126 -345 355 -411 509 -138 316 -79 1173 119 1718 126 350 287 474 287 222 0 -149 446 -591 757 -751 114 -58 516 -160 892 -225 883 -154 1418 -395 1838 -829 291 -300 338 -420 350 -881 17 -702 -306 -1344 -1303 -2583 -1259 -1566 -1562 -2101 -3082 -5450 -225 -497 -376 -949 -698 -2100 -93 -330 -229 -757 -304 -950 -181 -467 -419 -1567 -550 -2550 -59 -440 -149 -1025 -200 -1300 -51 -275 -119 -853 -152 -1284 -33 -431 -95 -881 -138 -1000 -100 -278 -147 -4798 -56 -5405 151 -1007 211 -334 217 2414 5 2601 133 4494 371 5475 26 110 138 789 248 1509 111 720 333 1710 496 2200 162 490 432 1320 600 1845 167 525 525 1402 794 1950 268 548 550 1154 626 1346 289 734 1299 2333 1895 3000 123 138 399 486 614 775 215 289 429 525 475 525 140 0 510 1238 510 1709 0 353 -66 526 -318 831 -318 386 -1341 956 -1732 964 -468 11 -1194 282 -1510 564 -479 428 -464 838 64 1712 222 369 432 780 466 913 33 134 115 349 182 477 124 239 90 1607 -43 1754 -37 41 -70 -231 -74 -605 -7 -792 -217 -1493 -652 -2180 -171 -269 -540 -939 -822 -1489 -483 -946 -511 -1041 -511 -1767 0 -674 29 -798 242 -1025 166 -176 198 -258 100 -258 -243 1 -756 366 -1045 744 -243 319 -281 471 -324 1294 -31 594 -4 1073 75 1322 133 422 855 2096 1009 2340 52 83 149 263 215 400 66 138 307 520 536 850 229 330 493 750 586 933 116 228 218 315 324 274 116 -45 137 -16 84 117 -66 164 -352 1196 -352 1269 0 18 -146 90 -325 161 -1073 424 -1497 1716 -825 2514 346 412 465 731 466 1249 2 1506 -1599 2460 -3341 1992z m2325 -4607 c123 -595 511 -1060 1124 -1350 594 -280 538 -1164 -141 -2227 -324 -506 -393 -547 -601 -350 -73 69 -303 238 -512 375 -402 264 -772 921 -976 1734 -116 460 -20 1032 267 1587 128 248 596 779 686 779 22 0 90 -247 153 -548z"/>
<path d="M8396 36147 c-401 -296 -448 -373 -540 -883 -47 -262 -132 -402 -263 -437 -246 -64 -252 -227 -8 -227 262 0 487 288 569 731 43 235 190 493 380 671 398 372 304 471 -138 145z"/>
<path d="M10702 35938 c3 -186 425 -731 1048 -1351 415 -414 1855 -1416 1928 -1342 84 83 -98 257 -652 625 -311 206 -961 776 -1445 1266 -485 490 -880 851 -879 802z"/>
<path d="M12400 35589 c0 -60 101 -190 225 -287 124 -98 380 -476 569 -840 276 -534 422 -701 756 -862 576 -279 1004 -263 1206 45 88 135 144 326 123 425 -30 143 -68 119 -187 -120 -125 -251 -205 -297 -486 -284 -484 24 -811 312 -1183 1042 -332 653 -634 992 -884 992 -76 0 -139 -50 -139 -111z"/>
<path d="M9552 35111 c-86 -508 75 -1080 448 -1596 495 -682 658 -526 241 231 -234 426 -374 833 -412 1200 -67 647 -184 717 -277 165z"/>
<path d="M0 34550 c0 -105 107 -150 359 -150 l358 0 -71 -1875 c-64 -1670 -94 -1908 -280 -2175 -115 -165 -244 -315 -287 -333 -44 -19 -78 -176 -76 -350 l4 -317 196 236 c108 130 197 296 197 369 0 73 45 161 100 195 66 41 100 -1164 100 -3541 l0 -3602 -300 -342 c-165 -188 -300 -446 -300 -574 0 -219 18 -212 297 113 l297 346 -61 -2350 c-33 -1292 -75 -2366 -91 -2386 -17 -20 -123 115 -236 300 -198 323 -205 327 -206 83 0 -139 70 -352 155 -474 133 -189 139 -331 46 -948 -236 -1557 -231 -1448 -57 -1231 86 107 156 273 156 369 0 96 51 207 113 245 83 51 93 -323 38 -1418 -61 -1232 -107 -1529 -263 -1727 -247 -315 -238 -442 26 -358 l215 68 -61 -4673 c-51 -3968 -83 -4708 -214 -4908 -85 -129 -154 -335 -154 -458 0 -217 4 -218 147 -28 131 174 147 44 150 -1231 2 -1143 30 -1425 141 -1425 115 0 149 1160 205 7075 37 3891 85 7885 106 8875 51 2378 140 8844 197 14266 51 4831 98 4484 -604 4484 -237 0 -342 -46 -342 -150z"/>
<path d="M4 32725 l5 -775 142 400 c108 301 118 493 42 775 -55 206 -121 375 -147 375 -25 0 -44 -349 -42 -775z"/>
<path d="M11448 32398 c-213 -235 -432 -256 -512 -48 -62 162 -336 209 -336 58 0 -261 146 -408 406 -408 364 0 794 195 794 360 0 224 -167 242 -352 38z"/>
<path d="M39 26220 c-10 -1142 2 -1235 117 -920 71 193 132 471 136 619 5 148 53 297 108 331 119 73 37 471 -189 920 -157 312 -161 287 -172 -950z"/>
<path d="M20574 21160 c37 -453 3 -800 -111 -1148 -189 -579 -201 -712 -63 -712 55 0 100 116 100 257 0 142 64 321 142 399 177 177 321 1421 189 1630 -224 357 -308 217 -257 -426z"/>
<path d="M19267 20633 c-123 -122 -69 -466 142 -901 160 -332 265 -432 450 -432 306 0 308 133 3 333 -168 110 -258 289 -306 611 -65 434 -141 537 -289 389z"/>
<path d="M18603 17864 c-134 -644 -99 -2237 47 -2164 55 28 102 365 105 750 2 385 42 981 89 1325 107 792 -81 861 -241 89z"/>
<path d="M18630 12463 c-44 -75 -260 -230 -480 -343 -621 -320 -1319 -1063 -1691 -1801 -186 -370 -520 -1325 -742 -2121 -429 -1538 -597 -3042 -638 -5698 -31 -2038 2 -2500 178 -2500 135 0 147 110 91 775 -71 840 83 4154 257 5525 156 1232 722 3178 1184 4074 298 579 889 1211 1347 1441 508 256 764 473 764 650 0 175 -167 174 -270 -2z"/>
<path d="M5357 11643 c-118 -118 -131 -204 -53 -350 57 -106 137 -193 180 -193 151 0 316 245 316 470 0 267 -213 303 -443 73z"/>
<path d="M6104 11255 c-223 -269 -83 -474 346 -505 221 -17 644 -109 940 -206 523 -171 543 -171 678 14 77 105 127 280 111 389 -23 158 -112 202 -429 213 -220 7 -580 63 -800 124 -536 149 -703 143 -846 -29z"/>
<path d="M5767 10433 c-37 -36 -67 -251 -67 -476 0 -301 -53 -442 -200 -534 -237 -148 -253 -314 -56 -579 139 -188 148 -188 281 -9 129 175 164 176 674 25 768 -228 955 -206 1204 144 314 442 102 816 -258 455 -139 -139 -205 -135 -970 55 -386 97 -494 327 -262 559 63 63 86 184 53 270 -61 161 -280 210 -399 90z"/>
<path d="M5235 8200 c-49 -246 -343 -561 -602 -645 -9 -3 -46 -121 -81 -262 -46 -183 -4 -324 149 -499 l214 -244 -53 313 c-48 287 -26 319 261 377 393 78 526 -100 315 -423 -170 -258 -128 -373 104 -284 82 32 188 206 235 387 71 278 136 335 411 362 179 17 433 -38 563 -124 226 -147 248 -141 443 134 323 454 254 794 -121 594 -145 -78 -369 -73 -812 17 -608 125 -970 297 -623 297 250 0 144 243 -122 282 -175 26 -231 -30 -281 -282z"/>
<path d="M2 7108 c-1 -518 17 -922 40 -899 95 95 142 1555 55 1692 -63 99 -94 -166 -95 -793z"/>
<path d="M4300 6170 c0 -71 55 -185 121 -251 80 -80 114 -408 98 -961 -28 -1004 70 -1158 736 -1158 359 0 470 46 604 250 90 138 193 250 228 250 34 0 190 -201 345 -446 383 -607 859 -899 1207 -741 406 185 501 1087 114 1087 -84 0 -153 -86 -153 -192 0 -584 -394 -687 -701 -183 -241 396 -251 656 -35 964 226 323 215 1006 -19 1177 -361 264 -1130 125 -1409 -254 -100 -135 -166 -106 -498 216 -391 380 -638 474 -638 242z m2358 -570 c189 0 186 -503 -5 -756 -81 -107 -150 -284 -154 -394 -5 -164 -68 -128 -351 200 -190 220 -346 442 -347 494 -2 173 438 562 577 509 76 -29 202 -53 280 -53z m-1164 -800 c5 -277 -161 -417 -455 -383 -274 31 -288 56 -268 474 34 731 96 790 428 401 161 -188 294 -409 295 -492z"/>
<path d="M24067 2533 c-37 -36 -67 -295 -68 -575 -1 -554 -213 -1361 -452 -1727 -139 -212 -137 -231 31 -231 100 0 236 54 302 120 93 93 120 93 120 0 0 -66 68 -120 150 -120 112 0 154 132 167 525 9 289 30 773 46 1075 44 819 -66 1164 -296 933z"/>
<path d="M5922 1244 c-122 -85 -222 -235 -222 -332 0 -229 455 -665 544 -522 45 73 125 68 258 -15 152 -95 220 -93 321 10 103 106 78 171 -136 347 -145 120 -294 319 -332 443 -81 267 -138 276 -433 69z"/>
</g>
</svg>