<svg xmlns="http://www.w3.org/2000/svg" version="1.0" width="250" height="525" viewBox="0 0 250.000000 525.000000" preserveAspectRatio="xMidYMid meet">
<metadata>
Created by potrace 1.10, written by Peter Selinger 2001-2011
</metadata>
<g transform="translate(0.000000,525.000000) scale(0.010000,-0.010000)" fill="#555555" stroke="none">
<path d="M0 26250 l0 -26250 2453 0 2452 0 -140 275 c-77 151 -261 680 -408 1175 -147 495 -400 1215 -562 1600 -162 385 -457 1240 -654 1900 -468 1562 -491 1641 -781 2700 -136 495 -322 1170 -413 1500 -344 1236 -458 1824 -600 3094 -81 718 -202 1509 -269 1756 -217 797 -108 7406 138 8350 222 855 518 1610 718 1829 248 273 161 486 -294 721 -383 198 -394 216 -698 1188 l-262 838 -10 3812 c-13 4851 185 7584 635 8773 210 556 304 1014 346 1700 77 1249 289 2581 548 3439 116 385 255 880 308 1100 53 220 138 490 188 600 50 110 143 448 207 750 64 303 155 685 201 850 301 1066 638 2171 794 2600 221 605 603 1802 603 1888 0 34 -1012 62 -2250 62 l-2250 0 0 -26250z"/>
<path d="M5807 51703 c-169 -438 -307 -823 -307 -856 0 -33 -106 -293 -235 -578 -130 -286 -314 -766 -409 -1069 -96 -302 -237 -692 -315 -865 -77 -173 -141 -369 -141 -435 0 -67 -108 -487 -239 -935 -132 -448 -361 -1355 -508 -2015 -148 -660 -310 -1357 -361 -1550 -479 -1806 -825 -3798 -939 -5400 -33 -467 -102 -1367 -153 -2000 -51 -632 -118 -1735 -150 -2450 -32 -715 -96 -1946 -144 -2737 -67 -1129 -54 -1610 62 -2250 81 -447 185 -1099 231 -1449 92 -695 577 -1801 979 -2235 322 -347 414 -1073 182 -1428 -182 -278 -462 -1019 -717 -1901 -191 -663 -206 -1392 -105 -5152 46 -1721 120 -2606 312 -3750 138 -824 292 -1610 341 -1748 49 -137 143 -655 208 -1150 276 -2083 841 -4343 1393 -5573 392 -872 496 -1147 760 -2020 149 -491 405 -1183 569 -1537 l298 -644 466 68 c256 38 533 63 615 56 83 -7 851 -35 1707 -63 l1557 -51 182 832 c769 3519 802 3605 2191 5693 268 403 639 932 825 1175 186 244 338 543 338 665 0 268 358 749 557 749 79 0 143 -66 143 -146 0 -80 214 -271 475 -425 408 -239 572 -277 1160 -262 1882 48 3062 728 3979 2293 732 1248 868 2466 941 8390 30 2530 81 4870 112 5200 75 798 79 10048 5 10750 -85 801 -353 2021 -470 2138 -56 56 -102 164 -102 241 0 76 -146 293 -324 482 -314 333 -346 343 -997 316 -534 -21 -708 9 -848 150 -149 148 -157 208 -51 379 70 111 100 246 67 300 -34 53 -8 334 57 624 217 970 -212 2731 -957 3921 -335 535 -1144 1314 -1797 1732 -220 141 -805 399 -1300 574 -495 174 -968 342 -1050 372 -82 31 -397 130 -700 220 -302 91 -640 205 -750 253 -1062 465 -1533 716 -1719 914 -327 350 -1131 1604 -1131 1764 0 76 -85 259 -188 405 -104 146 -244 535 -311 865 -137 670 -354 1385 -523 1725 -106 214 -168 225 -1288 225 l-1175 0 -308 -797z m1303 286 c331 -354 344 -389 147 -389 -144 0 -557 454 -557 613 0 155 114 93 410 -224z m-560 -636 c252 -207 269 -246 108 -249 -198 -4 -558 262 -558 411 0 144 137 94 450 -162z m2050 116 c0 -170 -372 -569 -529 -568 -248 3 -571 125 -571 217 0 51 43 67 95 35 53 -33 212 -30 353 6 196 49 244 109 198 253 -48 151 -9 188 197 188 145 0 257 -57 257 -131z m-2507 -2153 c-142 -49 -393 60 -393 171 0 53 109 43 247 -21 135 -64 201 -131 146 -150z m907 184 c0 -55 -42 -100 -94 -100 -52 0 -122 45 -156 100 -34 55 8 100 94 100 86 0 156 -45 156 -100z m900 -239 c0 -162 -213 -261 -558 -261 -343 0 -300 140 83 265 459 151 475 151 475 -4z m1300 -54 c0 -123 -369 -238 -501 -157 -56 35 -76 106 -45 157 75 121 546 121 546 0z m-170 -717 c-79 -79 -163 -80 -295 -3 -162 94 -149 107 110 110 215 2 265 -27 185 -107z m-3476 -97 c36 -58 45 -127 20 -152 -69 -70 -374 68 -374 170 0 125 274 111 354 -18z m2344 32 c-4 -223 -194 -348 -437 -287 -341 86 -334 238 14 290 151 23 309 49 350 57 41 8 74 -19 73 -60z m-1101 -288 c129 -42 129 -59 1 -138 -206 -128 -952 32 -859 184 50 80 552 54 858 -46z m1703 -325 c0 -108 -512 -216 -643 -136 -51 32 -7 93 100 134 270 106 543 107 543 2z m-2572 -118 c207 -58 351 -147 319 -199 -102 -165 -509 -103 -697 105 -206 228 -152 241 378 94z m3767 -233 c233 -46 234 -238 2 -363 -163 -87 -285 -86 -506 6 -460 190 -326 555 159 435 110 -27 265 -62 345 -78z m-2220 -86 c-24 -71 -207 -125 -425 -125 -218 0 -401 54 -425 125 -29 88 96 125 425 125 329 0 454 -37 425 -125z m-2030 -686 c57 -53 -49 -89 -264 -89 -235 0 -381 55 -420 158 -51 132 -7 146 264 89 179 -37 368 -108 420 -158z m3343 149 c171 -35 312 -104 312 -154 0 -187 -278 -185 -707 5 -383 170 -408 198 -180 204 144 4 403 -21 575 -55z m-1988 -131 c0 -113 -288 -182 -525 -126 -305 73 -189 219 175 219 193 0 350 -42 350 -93z m3933 -365 c-71 -186 -970 -203 -908 -17 42 128 631 265 844 197 65 -21 94 -102 64 -180z m-4683 -391 c0 -130 -305 -184 -608 -108 -406 102 -276 271 183 238 234 -17 425 -75 425 -130z m2850 -1 c138 -79 385 -149 550 -155 l300 -13 -329 -95 c-272 -78 -381 -58 -625 116 -442 315 -369 418 104 147z m-1500 -43 c0 -131 -339 -224 -536 -149 -282 109 -180 242 186 242 193 0 350 -42 350 -93z m-2200 -557 c0 -154 -261 -197 -542 -89 -277 106 -170 239 192 239 244 0 350 -45 350 -150z m1350 50 c35 -57 -51 -100 -200 -100 -149 0 -235 43 -200 100 80 129 320 129 400 0z m6150 -465 c0 -91 181 -333 402 -537 453 -418 832 -1097 693 -1241 -55 -56 -159 -30 -268 68 -329 298 -1155 588 -1596 561 -234 -14 -451 1 -484 33 -32 33 169 251 447 486 278 234 506 509 506 611 0 101 68 184 150 184 83 0 150 -74 150 -165z m-6098 -287 c70 -84 98 -182 62 -217 -90 -90 -569 180 -505 284 83 133 304 100 443 -67z m1962 3 c157 -83 389 -150 515 -150 305 -1 1022 -373 1017 -528 -2 -68 -228 -228 -502 -357 -922 -432 -1483 -1159 -994 -1287 382 -100 164 -291 -707 -622 -572 -218 -841 -188 -686 77 53 91 158 346 233 566 137 399 137 400 209 125 85 -321 122 -332 368 -110 237 215 232 335 -13 335 -265 0 -415 311 -346 717 l57 333 -199 -225 c-226 -257 -316 -283 -316 -91 0 74 203 349 450 611 247 262 450 539 450 615 0 179 107 176 464 -9z m7415 -275 c89 -147 130 -301 89 -341 -96 -96 -328 154 -418 452 -95 316 112 247 329 -111z m754 -157 c135 -150 150 -218 57 -275 -124 -77 -590 370 -590 565 0 131 299 -32 533 -290z m-11233 -94 c0 -163 -773 -161 -1069 4 -189 105 -133 121 425 121 448 0 644 -38 644 -125z m-1400 -180 c0 -85 77 -299 172 -475 175 -325 406 -1377 420 -1915 15 -549 -198 -115 -345 706 -79 434 -207 1025 -286 1314 -79 289 -102 525 -52 525 50 0 91 -70 91 -155z m11732 -279 c259 -119 371 -229 349 -345 -54 -283 -434 -262 -669 37 -203 258 -293 600 -137 520 41 -21 247 -117 457 -212z m-10359 -298 c97 35 234 107 304 162 198 153 235 32 65 -211 -98 -140 -258 -219 -443 -219 -252 0 -298 -46 -356 -351 -112 -598 -283 -548 -210 60 36 298 66 620 66 716 1 159 19 157 199 -23 122 -122 265 -173 375 -134z m5127 207 c0 -41 0 -254 0 -472 0 -382 -12 -397 -325 -393 -179 2 -505 -63 -725 -144 -420 -155 -550 -137 -550 72 0 186 380 504 950 796 494 253 650 287 650 141z m1800 -70 c0 -34 -133 -111 -296 -173 -230 -87 -320 -83 -404 18 -79 95 -73 142 21 174 194 64 679 51 679 -19z m-900 -301 c207 -160 353 -182 871 -134 483 45 677 21 875 -108 140 -92 254 -205 254 -251 0 -47 -371 -108 -825 -135 -1013 -61 -1506 113 -1557 549 -37 323 42 340 382 79z m5900 -92 c0 -171 -294 -328 -495 -264 -374 119 -199 306 320 340 96 7 175 -27 175 -76z m-3069 -321 c41 -154 3 -227 -137 -263 -146 -39 -178 -108 -132 -289 35 -140 15 -239 -47 -239 -58 0 -136 158 -172 351 -36 193 -106 376 -154 406 -169 104 -88 256 103 196 105 -34 221 -14 256 45 89 143 216 50 283 -207z m1937 -111 c396 -143 433 -280 75 -280 -297 0 -643 163 -643 304 0 128 166 121 568 -24z m-5093 -237 c0 -173 -33 -225 -101 -157 -55 55 -73 171 -40 257 88 230 141 192 141 -100z m-1006 -318 c-28 -206 -108 -587 -176 -846 l-125 -471 -484 405 c-266 223 -484 461 -484 529 0 293 633 676 1236 748 47 5 62 -159 33 -365z m7472 290 c70 -114 -427 -336 -564 -251 -69 43 -41 115 77 201 210 154 410 174 487 50z m-4368 -228 c84 -84 64 -206 -80 -474 -106 -198 -193 -407 -193 -465 0 -132 -596 -362 -727 -281 -57 35 -33 97 55 147 94 52 133 165 100 290 -42 160 -121 199 -362 176 -257 -25 -324 15 -405 243 -54 150 -74 298 -44 327 94 94 383 -65 383 -211 0 -76 45 -139 100 -139 55 0 100 95 100 211 0 186 40 204 342 147 199 -37 369 -21 406 39 83 134 185 130 325 -10z m-1973 -487 c-106 -197 -300 -275 -300 -120 0 105 217 320 324 320 45 0 35 -90 -24 -200z m2500 -100 c0 -165 0 -322 0 -350 0 -27 -34 -53 -75 -56 -97 -8 -205 418 -148 581 83 235 223 125 223 -175z m3146 107 c31 -51 -27 -119 -130 -152 -215 -68 -516 23 -516 156 0 118 572 115 646 -4z m-10559 -142 c62 -74 140 -276 175 -450 79 -395 -100 -421 -282 -40 -75 155 -230 289 -356 307 -278 40 -290 -93 -24 -259 110 -68 200 -192 200 -274 0 -208 -88 -186 -302 76 -155 190 -204 204 -316 88 -104 -109 -105 -148 -7 -184 145 -53 171 -329 31 -329 -52 0 -122 45 -156 100 -34 55 -130 100 -213 100 -109 0 -132 -61 -83 -225 l67 -225 -223 215 -223 216 332 412 c182 227 424 432 537 456 113 24 296 62 406 86 110 23 228 47 263 53 34 7 113 -49 174 -123z m2194 -399 c42 -499 -210 -600 -540 -215 -133 154 -241 294 -241 311 0 70 557 328 650 301 55 -16 114 -194 131 -397z m9519 357 c0 -100 -1002 -455 -1076 -380 -71 70 -57 81 376 286 372 177 700 221 700 94z m-9124 -381 c-99 -98 -276 53 -276 235 0 153 13 153 169 -3 93 -93 141 -197 107 -232z m1963 128 c119 -86 167 -229 145 -425 -27 -231 -88 -300 -284 -319 -397 -39 -632 202 -552 567 75 340 367 414 691 177z m4241 -137 c434 -272 595 -679 576 -1462 -21 -849 -147 -941 -704 -516 -296 226 -352 330 -352 657 0 213 -45 388 -100 388 -55 0 -100 87 -100 193 0 106 -68 260 -150 343 -82 82 -150 263 -150 401 0 233 27 246 375 195 206 -31 478 -121 605 -199z m-7580 -25 c0 -51 111 -225 247 -386 238 -283 241 -423 11 -421 -126 0 -558 605 -558 780 0 66 68 119 150 119 83 0 150 -42 150 -92z m-650 -208 c-34 -55 -104 -100 -156 -100 -52 0 -94 45 -94 100 0 55 70 100 156 100 86 0 128 -45 94 -100z m10836 -81 c451 115 628 54 427 -146 -157 -156 -1271 -132 -1468 31 -241 200 -60 292 289 146 256 -107 425 -114 752 -31z m-4386 -278 c0 -163 77 -278 225 -338 219 -88 218 -91 -42 -97 -146 -3 -283 45 -304 108 -29 86 -92 86 -252 0 -315 -168 -607 -139 -720 73 -123 230 -50 312 285 316 142 2 343 68 448 147 238 180 360 109 360 -209z m-4300 59 c-197 -127 -429 -127 -350 0 34 55 160 99 281 98 178 -1 191 -19 69 -98z m2939 -325 c36 -151 26 -275 -21 -275 -124 0 -332 497 -258 616 84 136 200 -6 279 -341z m-5789 125 c-34 -55 -82 -100 -106 -100 -24 0 -44 45 -44 100 0 55 48 100 106 100 58 0 78 -45 44 -100z m1328 -583 c177 -376 322 -756 322 -845 0 -89 -227 -434 -504 -767 -536 -644 -896 -795 -896 -375 0 127 -49 279 -109 339 -106 106 -84 161 379 966 72 125 97 379 62 635 -59 431 67 730 308 730 64 0 261 -307 438 -683z m6622 477 c0 -52 -45 -94 -100 -94 -55 0 -100 70 -100 156 0 86 45 128 100 94 55 -34 100 -104 100 -156z m-4779 -423 c-18 -217 55 -565 174 -833 199 -450 200 -1238 1 -1238 -43 0 -192 135 -331 300 -138 165 -291 300 -338 300 -100 0 -327 581 -327 837 0 184 246 707 436 926 220 255 416 107 385 -292z m8679 329 c0 -55 -42 -100 -94 -100 -52 0 -122 45 -156 100 -34 55 8 100 94 100 86 0 156 -45 156 -100z m-7026 -169 c-93 -93 -203 -136 -244 -95 -41 41 -8 117 73 168 243 154 352 108 171 -73z m586 -104 c-33 -33 -56 26 -52 131 5 117 28 141 60 61 29 -72 26 -159 -8 -192z m-6930 -677 c-43 -608 -27 -850 55 -850 75 0 115 227 115 650 0 840 145 1002 890 1001 675 -1 801 -151 625 -741 -135 -450 -121 -435 -939 -1027 -315 -228 -630 -542 -699 -699 -69 -156 -182 -284 -251 -284 -69 0 -129 11 -132 25 -3 14 -29 513 -58 1110 -53 1119 52 1665 321 1665 105 0 121 -179 73 -850z m5575 722 c85 -67 207 -257 272 -422 148 -377 247 -1450 134 -1450 -184 0 -911 1236 -911 1549 0 461 182 577 505 323z m3292 -278 c-61 -113 -81 -338 -46 -500 56 -253 35 -294 -146 -294 -227 0 -256 52 -352 625 l-62 375 358 0 c330 0 350 -16 248 -206z m3303 112 c0 -52 -41 -119 -91 -150 -129 -80 -419 47 -353 154 74 120 444 116 444 -4z m-8573 -417 c-13 -186 24 -549 83 -805 81 -358 168 -493 373 -581 147 -63 420 -244 607 -403 l339 -289 -56 -817 c-51 -746 -39 -822 136 -867 274 -72 236 -227 -55 -227 -320 0 -654 364 -654 713 0 151 -45 303 -100 337 -60 37 -100 -86 -100 -306 0 -316 -21 -351 -150 -244 -122 102 -150 96 -150 -32 0 -219 -205 -322 -310 -156 -48 76 -88 307 -88 513 -1 206 -51 375 -111 375 -69 0 -87 -135 -49 -375 33 -206 20 -437 -30 -513 -156 -239 -312 -17 -312 444 0 244 -45 444 -100 444 -55 0 -100 -121 -100 -270 0 -522 -174 -79 -233 593 l-59 674 446 372 c480 402 556 700 355 1401 -65 225 -57 333 25 366 227 92 316 -12 293 -347z m4373 311 c0 -55 -46 -100 -102 -100 -58 0 -75 -105 -40 -247 124 -493 -894 -1628 -1259 -1402 -187 115 -94 299 228 449 422 196 640 639 498 1014 -85 227 -75 283 61 319 312 83 614 67 614 -33z m-1058 -161 c243 -93 191 -495 -88 -677 -359 -235 -427 -205 -478 213 -56 469 138 629 566 464z m2558 -101 c0 -133 27 -140 150 -38 127 106 150 83 150 -150 0 -256 -22 -271 -322 -211 -454 91 -574 241 -334 418 253 186 356 181 356 -19z m3200 16 c0 -210 -323 -354 -793 -354 -461 0 -549 168 -132 252 151 30 388 94 525 141 366 125 400 122 400 -39z m-4473 -481 c-82 -154 -223 43 -183 257 63 335 70 339 150 70 41 -137 56 -284 33 -327z m107 -318 c61 -158 772 -555 993 -555 74 0 216 -60 316 -133 174 -127 172 -157 -56 -743 -229 -591 -253 -615 -737 -754 l-500 -143 -120 262 -121 261 -6 -350 c-5 -264 -30 -313 -103 -200 -53 83 -98 251 -98 375 -1 124 -45 225 -97 225 -53 0 -86 -101 -75 -225 11 -124 -25 -247 -80 -275 -55 -28 -114 117 -131 325 -17 206 -78 375 -136 375 -66 0 -81 -130 -40 -350 42 -224 27 -350 -42 -350 -144 0 -181 140 -226 875 -25 413 0 625 73 625 61 0 309 203 552 450 481 490 550 523 634 305z m1348 -180 c47 -248 -304 -227 -539 33 -188 207 -187 208 158 175 235 -22 358 -90 381 -208z m1003 115 c266 -93 314 -158 308 -425 -8 -327 -275 -876 -455 -936 -166 -55 -338 440 -338 976 0 536 16 549 485 385z m-9185 -679 c0 -307 -36 -386 -172 -375 -140 11 -167 -57 -143 -361 23 -287 -7 -375 -127 -375 -94 0 -158 -86 -158 -212 0 -169 28 -189 138 -98 108 90 149 71 190 -88 102 -389 267 -211 233 250 -50 658 101 644 169 -15 52 -498 33 -580 -180 -772 -130 -118 -377 -552 -548 -965 -172 -412 -425 -922 -563 -1133 -249 -377 -249 -383 -45 -436 147 -39 206 -135 206 -337 0 -378 -177 -468 -297 -152 -103 270 -291 266 -618 -14 -105 -90 -188 -104 -228 -40 -74 120 128 1006 271 1188 54 70 133 610 176 1200 107 1497 256 2046 662 2440 l334 323 0 -369 c0 -204 39 -370 88 -370 108 0 225 550 155 732 -40 104 189 295 432 361 14 4 25 -168 25 -382z m3798 -192 c-1 -146 -14 -148 -98 -19 -127 196 -127 328 0 250 55 -34 99 -138 98 -231z m751 -117 c87 -142 551 -1435 551 -1538 0 -48 -99 -61 -220 -30 -121 32 -282 6 -357 -57 -106 -87 -159 -81 -225 26 -114 185 -237 1351 -163 1545 66 170 321 204 414 54z m6028 -678 c28 -663 -36 -746 -327 -424 -100 110 -242 200 -315 200 -74 0 -135 68 -135 150 0 170 157 201 250 50 95 -154 350 -118 350 50 0 167 -70 184 -650 164 l-400 -14 450 240 c668 358 745 316 777 -416z m-9724 220 c10 -107 54 -419 96 -694 77 -491 75 -497 -118 -326 -146 130 -199 318 -210 733 -10 379 22 545 99 520 63 -21 123 -126 133 -233z m13301 55 c269 -103 292 -328 38 -375 -184 -34 -792 339 -792 485 0 116 258 78 754 -110z m-5470 -354 c137 -300 148 -445 33 -445 -46 0 -132 158 -191 350 -124 405 -13 471 158 95z m5179 -275 c112 -111 -112 -370 -320 -370 -226 0 -943 533 -943 701 0 73 1164 -232 1263 -331z m-4213 130 c-34 -55 -127 -100 -206 -100 -79 0 -144 45 -144 100 0 55 93 100 206 100 113 0 178 -45 144 -100z m-505 -209 c-32 -52 -101 -68 -154 -36 -52 32 -68 101 -36 154 32 52 101 68 154 36 52 -32 68 -101 36 -154z m3634 -366 l230 -50 -211 -147 c-188 -132 -231 -129 -404 28 -242 218 -253 390 -19 292 96 -41 278 -96 404 -123z m-4674 -135 c92 -172 64 -190 -300 -190 -221 0 -717 -54 -1103 -120 -744 -128 -965 -62 -845 253 72 187 446 224 610 60 117 -117 833 -24 833 108 0 44 158 79 352 79 243 0 383 -59 453 -190z m1895 -14 c0 -252 -254 -676 -406 -676 -52 0 -94 61 -94 136 0 75 -114 251 -254 391 -280 280 -235 323 374 359 337 20 380 -4 380 -210z m-8612 -622 c336 -102 612 -229 612 -281 0 -53 -101 -69 -225 -36 -124 33 -551 61 -950 62 -709 1 -725 7 -725 254 0 295 368 493 559 302 64 -64 392 -199 729 -301z m3772 185 c187 -89 340 -181 340 -205 0 -23 -87 -136 -194 -251 -180 -193 -207 -196 -357 -46 -90 90 -264 163 -386 163 -229 0 -463 168 -463 332 0 51 74 31 165 -44 141 -117 180 -112 274 38 135 214 193 215 621 13z m3883 4 c86 -87 157 -216 157 -288 0 -72 67 -186 149 -254 82 -68 123 -166 91 -217 -34 -56 -113 -48 -195 20 -75 62 -185 83 -246 46 -60 -38 -265 6 -457 97 l-347 165 209 294 c236 330 408 367 639 137z m-6243 -143 c0 -55 71 -100 159 -100 131 0 147 -75 90 -425 -38 -234 -120 -477 -184 -540 -169 -168 -734 -266 -811 -141 -36 58 -24 106 27 106 52 0 123 186 159 413 37 226 112 496 167 600 105 196 393 260 393 87z m5182 -68 c-28 -149 -149 -187 -678 -210 -394 -17 -708 -85 -808 -176 -145 -131 -184 -125 -346 54 -218 241 -184 288 237 337 177 21 338 55 360 76 21 22 316 53 654 70 550 27 612 11 581 -151z m2448 -29 c-65 -249 -330 -489 -330 -298 0 109 278 495 356 495 14 0 2 -89 -26 -197z m2684 -760 c-133 -396 -311 -680 -555 -891 -197 -171 -359 -396 -359 -501 0 -138 -30 -161 -109 -82 -118 118 186 943 395 1072 60 37 155 239 211 448 63 233 189 420 328 483 124 57 239 91 255 77 17 -14 -58 -287 -166 -606z m636 457 c-34 -55 -82 -100 -106 -100 -24 0 -44 45 -44 100 0 55 48 100 106 100 58 0 78 -45 44 -100z m-12612 -198 c56 -56 215 -102 352 -102 181 0 220 -30 141 -109 -79 -79 -168 -78 -322 4 -137 74 -428 90 -811 47 -553 -63 -598 -53 -598 132 0 179 56 195 568 164 313 -19 614 -80 670 -136z m2314 -195 c-38 -169 -110 -307 -162 -307 -85 0 -28 434 84 632 95 168 143 -29 78 -325z m890 332 c87 -33 158 -146 158 -250 0 -104 64 -189 143 -189 141 0 321 -361 271 -543 -14 -50 118 -423 295 -827 176 -404 292 -762 258 -796 -74 -75 -367 151 -367 283 0 51 -86 270 -191 487 -105 218 -168 482 -140 589 47 178 -240 807 -368 807 -31 0 -134 -90 -228 -200 -255 -298 -473 -256 -473 92 0 563 187 722 642 547z m1816 -776 c-32 -158 -58 -395 -58 -525 0 -358 -239 -291 -642 180 -197 230 -358 444 -358 476 0 32 114 181 254 332 l254 274 304 -224 c251 -187 293 -274 246 -513z m1600 651 c-81 -132 -930 -346 -1105 -279 -273 105 -162 252 222 292 721 76 936 72 883 -13z m4482 -69 c140 -139 136 -190 -42 -523 -109 -203 -198 -420 -198 -483 0 -63 -67 -171 -150 -239 -129 -107 -150 -66 -150 296 0 595 -233 475 -312 -161 -34 -275 -113 -594 -175 -711 -138 -258 -149 -724 -17 -724 54 0 149 -97 212 -215 103 -193 93 -209 -101 -158 -180 47 -205 23 -152 -144 81 -254 -33 -883 -160 -883 -52 0 -95 132 -95 294 0 302 -141 483 -244 315 -32 -52 -18 -199 33 -327 50 -127 168 -524 262 -882 94 -357 209 -740 255 -850 46 -110 150 -402 230 -650 80 -248 298 -765 483 -1151 271 -564 329 -792 299 -1175 -39 -487 -218 -672 -218 -225 0 137 -154 644 -342 1125 -188 482 -370 1047 -405 1256 -35 209 -237 804 -449 1323 -293 716 -403 1149 -457 1796 -54 647 -41 851 53 851 78 0 102 -81 65 -222 -82 -314 29 -678 208 -678 111 0 131 58 77 225 -139 422 -175 1075 -60 1075 60 0 110 113 110 250 0 138 44 250 98 250 55 0 71 -139 36 -325 -45 -245 -32 -298 56 -217 105 98 330 1149 262 1222 -16 16 -150 -1 -298 -38 -251 -63 -322 -160 -508 -692 -40 -116 -88 -150 -114 -81 -25 66 5 212 65 325 88 165 80 206 -40 206 -82 0 -193 -81 -246 -180 -179 -335 -119 -2311 78 -2562 124 -158 811 -2141 810 -2339 0 -115 -63 -74 -199 131 -208 314 -279 185 -92 -165 60 -111 90 -220 68 -243 -58 -57 -976 1597 -976 1759 0 73 -62 204 -139 291 -76 87 -170 304 -208 483 -55 259 -37 325 89 325 110 0 158 -94 158 -306 0 -168 37 -283 83 -255 45 28 83 357 84 731 1 403 -22 560 -57 386 -33 -162 -105 -275 -160 -250 -55 24 -89 76 -76 115 13 39 53 320 88 625 77 652 -72 747 -249 158 -84 -282 -161 -379 -266 -339 -235 90 -174 273 246 727 216 234 461 570 545 747 194 408 386 580 1065 951 613 336 1008 385 1237 155z m2004 -38 c96 -107 182 -343 191 -525 12 -265 -27 -338 -191 -361 -333 -48 -580 308 -501 725 74 396 240 449 501 161z m-5695 -188 c70 -156 187 -219 402 -219 330 0 651 -286 646 -576 -1 -96 -135 -304 -297 -463 -320 -314 -336 -301 -446 360 -34 205 -112 403 -173 441 -78 48 -93 -48 -51 -322 228 -1467 362 -2215 427 -2379 55 -138 37 -176 -66 -142 -95 32 -195 404 -308 1139 -91 601 -238 1353 -325 1672 -87 319 -158 626 -158 683 0 174 244 38 349 -194z m1349 -194 c1 -69 -37 -125 -85 -125 -49 0 -88 117 -88 261 0 184 25 220 86 125 47 -75 87 -192 87 -261z m-8198 -125 c0 -114 -143 -114 -500 0 -223 71 -210 81 125 90 206 6 375 -35 375 -90z m5681 -62 c-89 -89 -211 -131 -271 -94 -199 123 -115 256 161 256 251 0 259 -13 110 -162z m865 -563 c129 -549 145 -792 65 -1000 -112 -291 -180 -323 -393 -188 -169 107 -325 787 -255 1113 85 398 255 800 337 800 42 0 153 -326 246 -725z m-7496 314 c495 -103 934 -187 975 -188 41 -1 75 -68 75 -151 0 -168 -254 -205 -349 -51 -34 55 -237 92 -452 84 -214 -9 -459 42 -544 113 -124 102 -185 103 -304 4 -121 -100 -199 -92 -400 40 -292 192 -354 524 -76 409 96 -41 580 -157 1075 -260z m6167 -81 c194 -227 455 -741 623 -1225 160 -458 396 -990 525 -1181 248 -368 318 -625 115 -422 -195 195 -280 140 -280 -180 0 -165 45 -300 100 -300 198 0 254 -28 533 -262 155 -131 339 -238 407 -238 172 0 521 -398 613 -699 41 -136 199 -406 351 -600 152 -193 306 -452 343 -576 36 -124 106 -225 155 -225 49 0 117 -169 151 -375 34 -206 103 -504 153 -661 81 -255 70 -281 -102 -236 -115 30 -328 -51 -524 -200 l-330 -250 400 63 400 63 -400 -351 c-453 -396 -602 -401 -596 -18 2 146 -32 265 -75 265 -43 0 -79 68 -79 150 0 83 65 150 144 150 79 0 172 45 206 100 35 57 -49 100 -196 100 -438 0 -859 -955 -555 -1259 58 -58 67 -222 21 -395 -100 -379 -39 -769 113 -718 64 21 117 197 117 390 0 323 216 749 325 640 26 -25 55 -258 65 -516 21 -526 -123 -742 -497 -742 -134 0 -243 -59 -243 -131 0 -72 -59 -212 -132 -311 -116 -159 -159 -70 -365 756 -381 1526 -390 1548 -653 1668 -185 84 -250 191 -250 410 0 163 49 326 109 363 60 37 84 162 54 276 -53 200 50 821 202 1227 61 163 49 173 -80 68 -173 -140 -358 -697 -447 -1341 -112 -818 -80 -1010 204 -1237 173 -138 337 -435 463 -840 257 -826 249 -871 -108 -571 -167 140 -470 284 -675 320 -205 36 -472 128 -593 204 -283 177 -429 177 -429 -1 0 -159 624 -558 881 -563 151 -3 149 -18 -17 -144 -145 -110 -227 -116 -372 -25 -154 96 -213 82 -330 -78 -134 -184 -148 -172 -253 217 -61 226 -84 483 -50 570 33 87 -3 222 -81 300 -171 170 -623 2009 -531 2158 118 190 253 110 253 -151 0 -145 43 -229 100 -194 55 34 100 143 100 243 0 100 85 379 188 619 235 548 344 1316 178 1259 -64 -22 -121 -148 -127 -280 -24 -543 -54 -651 -245 -880 -272 -326 -370 -189 -105 147 154 197 211 411 211 798 0 355 53 583 162 692 202 202 151 252 -112 110 -110 -59 -211 -220 -224 -358 -13 -137 -41 -436 -61 -663 -41 -445 -122 -637 -271 -637 -127 0 -112 501 41 1375 70 399 97 725 60 725 -136 0 -395 -869 -395 -1322 0 -570 -191 -751 -221 -209 -66 1214 -35 1477 197 1665 125 101 296 315 379 475 116 225 220 291 454 291 l305 0 -214 -299 c-117 -165 -185 -345 -150 -400 100 -163 250 -116 250 79 0 245 194 420 464 420 289 0 388 161 173 281 -102 58 -143 158 -105 258 57 149 98 145 439 -37 563 -302 723 -263 568 140 -33 87 -128 158 -210 158 -93 0 -128 -58 -93 -150 32 -82 19 -150 -28 -150 -133 0 -208 272 -208 752 0 239 -48 562 -107 716 -99 258 -119 267 -236 108 -120 -164 -138 -163 -304 21 -97 107 -191 386 -208 619 -53 714 88 762 572 192z m-2417 -147 c0 -414 -95 -513 -263 -273 -103 148 -105 239 -10 441 153 325 273 251 273 -168z m9500 -161 c268 -275 533 -500 589 -500 147 0 610 -521 550 -618 -28 -45 -135 -82 -238 -82 -199 0 -359 -326 -248 -505 38 -62 189 -80 357 -43 231 51 290 29 290 -106 0 -120 -58 -154 -200 -117 -127 33 -200 3 -200 -82 0 -233 -211 -277 -268 -57 -64 242 -284 280 -367 63 -32 -83 30 -209 143 -288 211 -147 195 -239 -210 -1215 -148 -358 -207 -1332 -86 -1408 75 -46 95 -308 60 -781 -39 -527 -12 -798 105 -1048 152 -326 149 -343 -85 -523 -133 -102 -343 -187 -467 -188 -173 -1 -225 -60 -225 -252 0 -137 -48 -250 -106 -250 -59 0 -92 88 -75 195 17 108 -50 255 -148 327 -197 144 -211 273 -113 1038 37 295 21 593 -39 705 -57 106 -161 664 -231 1239 -97 803 -180 1118 -357 1355 -205 274 -311 641 -186 641 25 0 149 -104 275 -230 266 -266 523 -1064 504 -1567 -7 -190 33 -402 90 -469 56 -68 89 -304 73 -525 -16 -220 3 -432 42 -471 39 -39 71 -176 71 -305 0 -128 50 -233 111 -233 64 0 88 94 56 225 -29 124 -18 416 26 649 60 317 45 453 -59 539 -77 64 -129 261 -116 442 12 180 -27 387 -86 461 -187 233 -358 1482 -225 1642 214 259 27 474 -359 411 -418 -68 -447 62 -100 456 289 328 398 337 831 74 214 -131 415 -179 575 -139 241 60 238 68 -163 358 -393 284 -402 304 -236 487 158 175 159 196 9 254 -90 34 -164 120 -164 189 0 70 -67 183 -148 250 -110 91 -122 172 -46 313 150 281 259 239 794 -311z m-10936 250 c31 -82 118 -150 191 -150 74 0 247 -101 386 -225 197 -176 266 -358 317 -840 60 -565 48 -625 -153 -732 -120 -64 -299 -305 -399 -535 -99 -230 -390 -672 -646 -982 -388 -469 -492 -686 -618 -1293 -257 -1232 -361 -1177 -298 157 84 1776 213 3000 412 3925 173 800 187 825 464 825 162 0 311 -65 344 -150z m-865 -275 c-1 -69 -68 -372 -150 -675 -153 -567 -294 -2037 -444 -4650 -48 -825 -130 -1612 -183 -1750 -94 -243 -92 85 16 3821 19 644 82 1296 139 1450 58 153 157 572 220 929 63 358 137 729 165 825 59 200 239 238 237 50z m-2199 -75 c108 -70 19 -97 -325 -98 -261 -1 -475 43 -475 98 0 128 602 128 800 0z m5800 -462 c0 -219 -215 -120 -313 144 -74 199 -61 211 115 117 109 -58 198 -176 198 -261z m5900 262 c0 -55 -48 -100 -106 -100 -58 0 -78 45 -44 100 34 55 82 100 106 100 24 0 44 -45 44 -100z m-12256 -210 c-70 -113 -344 -118 -344 -7 0 141 113 206 259 150 77 -30 115 -94 85 -143z m13706 110 c-275 -118 -433 -118 -250 0 83 53 218 94 300 91 99 -3 82 -34 -50 -91z m-2652 -225 c-1 -176 -21 -193 -93 -80 -50 80 -70 181 -42 225 86 141 137 86 135 -145z m-8917 -50 c-48 -252 -411 -269 -627 -29 -184 202 -182 204 238 204 349 0 417 -31 389 -175z m2865 -254 c98 -594 137 -2037 58 -2165 -95 -153 -190 493 -198 1344 -4 329 -35 752 -70 939 -44 235 -30 319 46 272 61 -37 134 -213 164 -390z m254 323 c0 -58 -45 -78 -100 -44 -55 34 -100 82 -100 106 0 24 45 44 100 44 55 0 100 -48 100 -106z m7200 -20 c0 -69 -90 -182 -200 -251 -173 -108 -200 -100 -200 59 0 102 30 215 67 251 113 113 333 74 333 -59z m-5600 -174 c0 -55 -40 -100 -88 -100 -49 0 -121 -101 -161 -225 -63 -196 -78 -201 -120 -45 -49 183 123 470 281 470 49 0 88 -45 88 -100z m7000 24 c0 -179 -401 -311 -766 -253 -342 55 -370 45 -254 -96 111 -134 98 -168 -82 -226 -281 -89 -294 -58 -133 326 130 311 160 325 685 325 303 0 550 -34 550 -76z m-12957 -181 c194 -194 194 -230 5 -683 -84 -201 -209 -757 -277 -1237 -98 -685 -162 -878 -298 -904 -111 -22 -173 29 -173 142 0 97 -71 459 -157 804 -186 740 -158 1318 36 735 102 -309 109 -267 59 369 -31 396 -28 767 8 825 99 160 619 127 797 -51z m4693 -165 c-37 -60 -95 -46 -147 36 -137 216 -103 322 60 187 82 -68 121 -168 87 -223z m-6892 -89 c57 -53 29 -292 -75 -621 -93 -295 -169 -605 -169 -690 0 -84 -238 -357 -529 -606 -291 -248 -661 -661 -822 -916 -394 -622 -444 -460 -386 1244 51 1523 78 1668 317 1734 252 69 1555 -44 1664 -145z m1249 -314 c4 -41 -38 -75 -93 -75 -55 0 -97 124 -93 275 6 244 17 252 93 75 47 -110 89 -234 93 -275z m2107 325 c0 -55 -42 -100 -94 -100 -52 0 -122 45 -156 100 -34 55 8 100 94 100 86 0 156 -45 156 -100z m5400 -150 c0 -159 -351 -210 -441 -64 -74 120 40 214 258 214 101 0 183 -67 183 -150z m-8167 -275 c-109 -564 -231 -817 -342 -706 -141 141 90 1031 268 1031 100 0 119 -87 74 -325z m2236 -327 c-27 -167 -189 -592 -359 -944 -171 -352 -310 -699 -310 -772 0 -72 -49 -132 -108 -132 -70 0 -83 115 -37 325 40 178 80 504 90 725 17 371 210 1194 325 1382 27 44 140 0 249 -99 145 -131 186 -264 150 -485z m5193 276 c438 -209 384 -366 -140 -405 -290 -21 -429 -83 -469 -208 -62 -197 -582 -811 -687 -811 -104 0 -77 482 31 548 56 35 71 256 36 516 -46 334 -26 480 77 548 173 114 698 28 1152 -188z m-7065 -399 c-2 -452 -26 -536 -108 -394 -58 100 -83 240 -55 313 28 72 3 179 -55 237 -121 121 -37 419 118 419 59 0 102 -245 100 -575z m12621 -47 c-71 -71 -118 -77 -118 -15 0 134 118 252 185 185 28 -28 -2 -105 -67 -170z m-7798 2 c-163 -163 -152 -480 16 -480 89 0 157 -174 195 -500 63 -526 -65 -883 -481 -1349 -423 -474 -647 -807 -649 -963 0 -90 88 -517 197 -950 110 -434 200 -1008 200 -1276 1 -304 74 -606 194 -800 208 -339 391 -1113 247 -1047 -589 273 -639 324 -639 651 0 420 -120 429 -274 21 -108 -284 -148 -308 -438 -250 -389 78 -588 232 -588 455 0 93 -49 218 -110 278 -160 160 -135 696 66 1380 l175 600 160 -692 c87 -380 215 -710 284 -733 162 -54 158 57 -25 575 -82 234 -145 633 -138 888 6 254 29 372 51 262 200 -1019 262 -1246 329 -1205 43 27 19 353 -53 727 -214 1106 -192 1216 364 1778 273 275 496 532 496 571 1 38 114 236 251 439 284 418 319 640 101 640 -83 0 -242 -191 -354 -425 -258 -539 -476 -829 -561 -745 -36 36 54 246 199 466 310 467 322 519 100 435 -121 -47 -94 40 100 326 146 214 265 449 265 523 0 207 194 520 324 520 86 0 85 -31 -4 -120z m7780 -380 c0 -55 -48 -100 -106 -100 -58 0 -78 45 -44 100 34 55 82 100 106 100 24 0 44 -45 44 -100z m-10559 -325 c-41 -179 -84 -617 -94 -975 -11 -357 -25 -663 -33 -679 -8 -15 -109 23 -226 85 -167 90 -294 76 -607 -65 -340 -153 -409 -158 -489 -35 -77 120 -106 122 -179 8 -70 -107 -104 -109 -166 -10 -137 222 238 394 715 329 322 -44 445 -24 476 79 388 1276 502 1588 582 1588 57 0 65 -133 21 -325z m-2441 25 c0 -55 -45 -100 -100 -100 -55 0 -100 45 -100 100 0 55 45 100 100 100 55 0 100 -45 100 -100z m10602 -52 c149 -180 69 -304 -120 -186 -73 46 -220 69 -327 51 -169 -28 -177 -10 -63 127 167 201 347 204 510 8z m2804 -697 c67 -411 157 -724 200 -697 44 27 108 4 143 -52 35 -56 15 -102 -43 -102 -58 0 -106 -110 -106 -244 0 -289 -105 -377 -304 -254 -101 63 -163 379 -208 1069 -36 538 -45 1013 -20 1056 110 184 227 -83 338 -776z m2994 599 c0 -137 -45 -250 -100 -250 -112 0 -137 330 -33 433 110 111 133 79 133 -183z m-3575 8 c14 -50 -31 -110 -100 -133 -69 -23 -125 33 -125 125 0 169 179 176 225 8z m-13367 -510 c-631 -963 -689 -1151 -699 -2261 -9 -1036 0 -1082 295 -1502 271 -385 444 -495 1014 -643 88 -23 93 -126 17 -400 -56 -203 -74 -622 -40 -931 34 -308 72 -808 85 -1111 16 -385 121 -750 352 -1219 181 -368 354 -822 384 -1010 l56 -342 -515 -69 c-854 -113 -1775 146 -2058 578 -127 193 -136 323 -51 703 57 256 141 543 187 637 45 95 202 420 349 724 346 716 352 1280 19 1676 -135 161 -414 624 -620 1028 -287 565 -374 857 -378 1264 -3 292 -39 530 -80 530 -41 0 -75 186 -75 413 0 688 858 1917 1650 2363 267 150 328 -92 108 -428z m842 46 c0 -107 -45 -194 -100 -194 -55 0 -100 115 -100 256 0 145 43 229 100 194 55 -34 100 -149 100 -256z m13598 -393 c-1 -134 -12 -134 -98 -1 -81 125 -97 119 -98 -42 -2 -246 -56 -181 -140 169 -63 259 -53 269 135 151 112 -69 202 -194 201 -277z m-7898 49 c0 -152 -182 -301 -266 -218 -29 29 -22 147 14 262 70 221 252 190 252 -44z m-6142 -865 c46 -733 180 -1512 343 -1985 48 -137 115 -396 151 -575 56 -284 37 -325 -147 -325 -1005 0 -1441 1053 -1053 2541 142 547 514 1226 615 1125 25 -25 66 -376 91 -781z m498 51 c25 -267 71 -610 103 -761 34 -163 14 -275 -49 -275 -114 0 -172 201 -253 875 -48 399 15 787 111 690 24 -24 64 -262 88 -529z m12404 191 c-33 -33 -56 26 -52 131 5 117 28 141 60 61 29 -72 26 -159 -8 -192z m-6740 -1152 c183 -1266 346 -1980 486 -2120 52 -52 94 -244 94 -427 0 -183 126 -613 280 -955 154 -343 291 -798 304 -1012 13 -214 135 -578 270 -809 148 -253 246 -576 246 -811 0 -216 158 -794 350 -1284 193 -490 350 -943 350 -1006 0 -261 316 -1153 460 -1296 98 -99 243 -133 397 -94 360 90 291 -72 -173 -411 -248 -180 -492 -478 -612 -746 -268 -597 -423 -738 -726 -662 -201 51 -237 107 -190 297 40 158 9 253 -93 292 -112 43 -137 150 -97 400 31 188 14 426 -37 530 -60 122 -52 309 23 527 87 252 132 297 179 175 102 -266 280 -191 210 88 -50 198 -31 239 88 193 202 -77 291 90 213 401 -77 308 -342 341 -342 43 0 -178 -25 -192 -150 -88 -127 105 -150 84 -150 -135 0 -199 -38 -244 -165 -195 -139 53 -154 17 -93 -229 118 -478 -90 -147 -326 519 -119 336 -216 721 -216 857 0 488 -311 1332 -571 1548 -163 137 -235 274 -197 375 86 223 276 200 339 -40 62 -237 148 -247 513 -59 383 199 570 572 423 847 -118 219 -307 288 -307 112 0 -55 -47 -100 -104 -100 -58 0 -220 -107 -362 -238 -243 -226 -266 -230 -430 -66 -204 204 -417 978 -347 1258 27 108 -61 573 -196 1034 -135 460 -217 910 -182 1000 45 115 99 45 186 -238 102 -335 132 -366 186 -192 35 114 192 284 350 377 262 154 278 195 183 467 -104 300 -284 319 -284 30 0 -134 -24 -137 -167 -19 -150 124 -160 108 -98 -163 52 -231 44 -261 -36 -129 -57 94 -166 147 -241 118 -97 -37 -165 98 -240 480 -166 855 -295 1298 -410 1413 -60 60 -108 184 -108 278 0 248 663 871 979 919 149 22 295 48 325 56 30 8 127 -491 216 -1110z m-3823 779 c75 -90 95 -264 53 -456 -61 -275 -99 -303 -341 -250 -191 42 -350 -2 -533 -146 -251 -197 -264 -198 -321 -19 -85 268 188 732 515 877 377 167 484 166 627 -6z m11803 -627 c0 -313 -48 -277 -140 106 -45 186 -32 262 36 219 57 -35 104 -181 104 -325z m-1048 -1439 c55 -324 41 -402 -66 -367 -133 44 -464 1030 -549 1629 -65 466 529 -753 615 -1262z m448 1262 c0 -82 -18 -150 -39 -150 -22 0 -66 68 -97 150 -32 83 -14 150 39 150 53 0 97 -67 97 -150z m373 -350 c8 -110 -28 -200 -79 -200 -52 0 -94 90 -94 200 0 110 35 200 79 200 43 0 85 -90 94 -200z m-11675 -98 c164 -164 188 -281 137 -675 -34 -262 -122 -626 -196 -809 -112 -277 -179 -326 -406 -300 -233 28 -289 101 -396 525 -79 309 -92 555 -35 661 50 94 68 192 41 220 -28 28 3 168 69 313 146 321 501 350 786 65z m11862 -575 c-33 -33 -56 26 -52 131 5 117 28 141 60 61 29 -72 26 -159 -8 -192z m-1334 -586 c44 -231 33 -243 -100 -110 -82 82 -119 199 -82 259 99 161 127 138 182 -149z m1541 -218 c175 -503 168 -542 -92 -505 -174 25 -232 108 -257 367 -35 366 48 682 153 577 36 -36 125 -234 196 -439z m-2067 277 c0 -55 -45 -100 -100 -100 -55 0 -100 45 -100 100 0 55 45 100 100 100 55 0 100 -45 100 -100z m-10688 -874 c307 -141 383 -231 385 -451 4 -342 -97 -344 -601 -11 -410 272 -572 602 -446 911 64 157 82 152 175 -49 58 -123 277 -303 487 -400z m1089 -21 c-140 -583 -301 -754 -301 -319 0 277 299 948 384 863 21 -21 -16 -266 -83 -544z m9394 -362 c-168 -201 -262 -178 -330 81 -58 221 -60 221 -215 25 -152 -194 -155 -193 -128 50 19 174 135 301 378 416 l350 165 32 -296 c17 -164 -22 -362 -87 -441z m1381 368 c182 -247 199 -342 114 -650 -55 -199 -147 -361 -206 -361 -67 0 -82 -120 -41 -325 37 -179 92 -471 123 -650 63 -364 234 -444 234 -109 0 118 108 357 241 531 132 174 310 482 395 684 84 203 218 369 298 369 189 0 299 -744 174 -1175 -76 -262 -66 -325 54 -325 111 0 133 -79 89 -325 -32 -179 -72 -510 -90 -736 -41 -531 -93 -605 -594 -848 -512 -249 -894 -709 -844 -1015 35 -212 50 -206 232 101 176 295 839 723 1120 723 61 0 142 -95 179 -211 91 -287 720 -970 1050 -1141 260 -135 270 -169 276 -1003 6 -848 -2 -877 -414 -1530 -232 -366 -478 -795 -547 -953 -202 -461 -252 -226 -78 371 87 301 159 685 159 852 0 168 57 341 127 385 70 44 208 206 307 361 173 272 172 294 -40 732 -121 249 -321 490 -447 538 -303 115 -647 494 -647 712 0 284 -193 319 -294 54 -119 -314 -309 -382 -531 -188 -162 141 -174 131 -153 -122 24 -289 318 -535 428 -357 86 140 450 -65 450 -254 0 -80 81 -146 181 -146 99 0 268 -66 375 -147 251 -190 352 -191 280 -3 -31 83 -8 150 53 150 66 0 110 -193 109 -475 0 -261 -34 -424 -75 -363 -74 115 -1036 357 -1238 312 -61 -13 -120 77 -131 201 -11 124 -39 239 -62 255 -427 311 -623 382 -703 256 -47 -75 -87 -217 -87 -317 -1 -107 -47 -153 -113 -112 -76 47 -93 374 -52 1031 32 529 60 1069 61 1199 2 187 30 214 136 126 107 -89 159 -32 250 274 64 213 113 538 110 725 -7 332 -9 334 -117 88 -100 -225 -118 -186 -185 400 -41 358 -169 870 -285 1138 -192 443 -200 538 -86 1025 68 295 151 537 183 537 32 0 155 -130 272 -289z m-876 -311 c0 -200 -50 -300 -150 -300 -180 0 -182 20 -34 345 150 330 184 321 184 -45z m2800 -156 c0 -350 -159 -467 -264 -194 -80 209 49 671 167 598 53 -33 97 -215 97 -404z m-1335 205 c182 -181 112 -588 -162 -948 -216 -283 -374 -221 -211 84 59 111 108 385 108 608 0 445 39 483 265 256z m-12818 -524 c178 -151 470 -354 648 -451 224 -121 307 -226 265 -333 -33 -87 -60 -244 -60 -349 0 -243 -159 -242 -641 4 -478 243 -615 439 -685 979 -65 503 25 531 473 150z m10647 87 c55 -104 214 -218 353 -252 139 -35 253 -120 253 -190 0 -69 133 -242 295 -384 306 -269 324 -320 482 -1386 95 -639 27 -1136 -75 -550 -30 170 -140 339 -254 389 -131 57 -279 321 -420 750 l-219 661 58 -550 c32 -302 97 -654 145 -782 49 -127 88 -363 88 -525 0 -204 49 -293 163 -293 133 0 152 -70 101 -375 -34 -206 -62 -544 -63 -750 -1 -251 -46 -375 -138 -375 -76 0 -164 -131 -196 -292 -44 -217 -105 -280 -238 -247 -285 70 -616 -565 -829 -1591 -216 -1043 -262 -1633 -146 -1911 71 -171 46 -184 -247 -125 l-326 65 28 -575 c35 -739 4 -1870 -51 -1815 -24 23 -65 357 -91 742 -65 937 -164 1349 -326 1349 -135 0 -341 297 -341 493 0 59 104 107 230 107 324 0 485 185 362 415 -55 102 -165 185 -246 185 -176 0 -186 139 -30 429 113 212 117 212 199 19 58 -137 67 -97 27 127 -48 268 -30 314 100 264 118 -45 158 3 158 194 0 317 156 737 343 924 161 161 286 975 299 1941 l8 648 -470 232 -469 232 244 460 c135 253 245 519 245 591 0 149 306 339 546 339 87 0 209 -124 272 -275 62 -151 219 -498 348 -770 129 -272 234 -575 234 -675 0 -99 51 -180 114 -180 162 0 35 811 -200 1275 -105 206 -222 566 -261 800 -72 434 -186 543 -289 275 -111 -288 -264 -147 -264 243 0 450 148 907 294 907 54 0 144 -85 200 -188z m-8658 -337 c42 -165 200 -271 594 -400 296 -96 633 -175 750 -175 298 0 920 -312 920 -460 0 -68 23 -184 51 -257 31 -79 -66 -185 -239 -262 -325 -144 -422 -370 -300 -700 95 -256 309 -285 524 -71 224 224 264 188 264 -238 0 -222 64 -441 150 -512 195 -162 193 -400 -3 -400 -84 0 -179 -67 -211 -150 -79 -206 -210 -188 -283 39 -80 254 -427 331 -742 166 -234 -123 -277 -113 -488 115 -169 182 -296 233 -467 190 -263 -66 -356 75 -356 538 0 243 37 279 275 268 329 -16 421 -124 423 -491 2 -342 302 -375 611 -66 154 154 191 277 142 474 -82 326 -231 426 -525 352 -167 -42 -226 -13 -226 111 0 120 55 150 192 106 208 -66 608 278 608 523 0 231 -198 525 -354 525 -173 0 -193 -213 -35 -371 134 -134 34 -329 -167 -329 -79 0 -144 90 -144 201 0 176 -28 186 -225 84 -124 -64 -292 -147 -375 -186 -82 -38 -164 -188 -182 -334 -17 -146 -67 -265 -110 -265 -71 0 -109 255 -266 1775 -46 444 94 589 194 200z m6104 -500 c222 -834 234 -1031 100 -1546 -77 -296 -140 -649 -140 -784 0 -152 -57 -245 -151 -245 -84 0 -239 -55 -346 -121 -234 -146 -282 -107 -362 293 -51 252 -25 320 140 372 245 78 471 644 319 796 -70 70 -203 65 -420 -17 -174 -66 -337 -100 -361 -76 -24 25 -46 227 -49 449 -6 407 203 693 512 701 73 2 200 71 282 153 183 182 430 195 476 25z m-7859 -623 c127 -38 273 -181 325 -317 103 -272 107 -2935 4 -2935 -35 0 -167 437 -294 970 -127 534 -317 1091 -422 1238 -180 253 -494 1259 -494 1583 0 98 109 45 325 -160 179 -170 429 -340 556 -379z m1269 177 c50 -807 292 -1993 466 -2279 248 -410 387 -744 458 -1100 53 -267 42 -286 -102 -167 -89 73 -213 287 -275 475 -62 188 -173 342 -247 342 -138 0 -192 190 -299 1050 -94 752 -144 880 -298 753 -96 -80 -146 -67 -191 53 -109 282 -67 369 150 312 199 -52 209 -26 165 436 -44 459 -7 659 103 550 25 -26 57 -217 70 -425z m8125 63 c-96 -56 -175 -181 -175 -277 0 -181 -180 -415 -320 -415 -148 0 -82 183 179 492 142 170 311 307 375 305 64 -2 37 -49 -59 -105z m-958 -915 c-56 -56 -78 -163 -48 -239 29 -76 3 -138 -58 -138 -118 0 -155 423 -47 531 35 35 107 37 159 5 58 -36 56 -97 -6 -159z m-6117 -33 c0 -86 -45 -128 -100 -94 -55 34 -100 104 -100 156 0 52 45 94 100 94 55 0 100 -70 100 -156z m1600 -144 c0 -55 -45 -100 -100 -100 -55 0 -100 45 -100 100 0 55 45 100 100 100 55 0 100 -45 100 -100z m4726 -641 c-25 -132 -131 -263 -236 -291 -231 -60 -239 17 -34 310 204 291 328 283 270 -19z m-5476 41 c-34 -55 -104 -100 -156 -100 -52 0 -94 45 -94 100 0 55 70 100 156 100 86 0 128 -45 94 -100z m-2343 -933 c-127 -127 -145 244 -31 633 66 222 78 207 106 -138 17 -214 -16 -436 -75 -495z m7588 -406 c-139 -796 -356 -1041 -268 -302 63 535 248 1100 331 1017 28 -29 0 -351 -63 -715z m854 -710 c-37 -494 -134 -1012 -215 -1150 -81 -138 -121 -169 -90 -68 31 101 57 708 59 1350 3 1074 16 1151 158 967 127 -163 143 -365 88 -1099z m-6584 847 c80 -397 217 -469 399 -209 122 175 636 311 636 169 0 -176 -152 -358 -298 -358 -242 0 -431 -247 -564 -738 l-112 -412 -163 372 c-90 204 -163 460 -163 568 0 108 -45 316 -101 462 -113 297 -59 448 159 448 84 0 173 -131 207 -302z m5134 -73 c-105 -534 -200 -725 -360 -725 -87 0 -139 109 -139 294 0 162 -43 321 -96 353 -182 113 15 342 330 381 174 22 321 47 328 56 6 9 -22 -153 -63 -359z m890 -1975 c-70 -385 -217 -902 -327 -1150 -110 -247 -206 -517 -214 -600 -7 -82 -26 -307 -41 -500 l-27 -350 -82 348 c-45 191 -60 382 -34 425 26 42 5 77 -47 77 -115 0 -217 -243 -217 -517 0 -322 -247 -151 -281 195 -43 432 134 722 440 722 193 0 285 82 399 355 82 195 140 409 130 475 -11 66 15 199 57 295 42 97 42 299 0 450 -140 505 -136 571 85 1325 l220 750 33 -800 c18 -440 -24 -1115 -94 -1500z m-11674 1340 c-20 -352 -80 -694 -134 -761 -114 -140 -12 -360 127 -274 96 59 135 -18 230 -459 31 -140 236 -534 456 -875 352 -544 388 -654 297 -893 -57 -151 -108 -489 -114 -752 -9 -392 38 -530 256 -758 196 -205 268 -384 269 -673 1 -217 44 -687 96 -1045 92 -635 88 -654 -177 -871 -149 -122 -299 -223 -334 -225 -35 -2 -116 210 -181 471 -139 557 -586 1578 -660 1504 -28 -28 18 -314 102 -636 168 -647 204 -1643 59 -1643 -51 0 -123 259 -161 575 -37 316 -128 845 -201 1175 -77 350 -135 1266 -140 2200 -4 880 -31 2073 -61 2650 -62 1199 18 2030 191 1970 76 -26 103 -258 80 -680z m12636 16 c-39 -333 -114 -606 -167 -606 -90 0 -39 692 84 1133 102 369 151 61 83 -527z m-4845 469 c4 -69 29 -365 56 -659 37 -394 6 -600 -117 -788 -119 -181 -189 -219 -243 -131 -129 209 -203 -35 -262 -866 -56 -787 -89 -916 -203 -802 -98 99 -120 1870 -24 1929 141 87 99 442 -52 442 -159 0 -266 532 -145 723 59 92 81 80 82 -48 3 -261 253 -212 384 75 118 259 513 353 524 125z m-3815 -391 c-79 -148 -140 -186 -167 -105 -44 131 170 460 248 382 24 -24 -12 -149 -81 -277z m-1191 -113 c0 -126 -67 -488 -150 -805 -184 -705 -184 -718 -7 -894 112 -113 121 -235 43 -582 -68 -301 -63 -693 13 -1240 62 -440 103 -1025 91 -1300 -24 -557 299 -2146 481 -2365 64 -77 251 -425 416 -774 226 -477 278 -690 213 -862 -48 -126 -60 -256 -27 -289 33 -33 -20 -60 -118 -60 -132 0 -164 55 -123 212 81 310 -135 588 -456 588 -343 0 -352 -157 -26 -459 138 -127 250 -301 250 -386 0 -195 -46 -195 -242 1 -141 141 -150 124 -99 -175 52 -314 47 -321 -102 -137 -86 107 -157 276 -157 376 0 101 -55 271 -122 379 -97 155 -97 222 0 319 207 207 124 858 -328 2570 -93 351 -148 745 -123 875 34 179 1 237 -136 237 -125 0 -214 118 -286 375 -149 538 -130 830 80 1226 229 434 348 1499 208 1868 -61 161 -76 534 -37 902 l67 629 339 0 c286 0 338 -35 338 -229z m-987 -696 c21 -1333 -21 -1816 -172 -1971 -124 -129 -141 -129 -141 0 0 81 45 305 100 497 69 240 65 604 -14 1165 -114 817 -83 1134 111 1134 61 0 108 -333 116 -825z m4747 146 c11 -314 71 -931 135 -1371 64 -440 143 -1002 177 -1250 58 -439 62 -443 163 -175 57 151 137 275 178 275 41 0 106 214 144 475 98 679 198 825 564 825 l314 0 -206 -225 c-113 -124 -237 -337 -275 -475 -39 -137 -142 -407 -231 -600 -269 -587 -279 -1415 -25 -2094 245 -656 210 -1355 -78 -1566 -131 -96 -136 -160 -31 -413 143 -345 184 -1426 73 -1897 -59 -249 -29 -383 136 -605 184 -250 240 -441 291 -1000 6 -69 90 -127 186 -130 147 -5 139 -31 -50 -162 -227 -159 -308 -433 -127 -433 55 0 71 -131 37 -300 -58 -291 -51 -298 253 -237 247 49 312 28 312 -100 0 -104 -84 -163 -231 -163 -127 0 -318 -66 -425 -147 -107 -81 -228 -148 -269 -150 -126 -5 -83 447 61 645 118 161 110 233 -60 519 -170 290 -175 333 -36 333 312 0 149 293 -265 475 -311 136 -376 517 -125 725 208 173 187 300 -50 300 -140 0 -201 68 -203 225 -13 821 -215 2333 -351 2620 -90 189 -145 424 -123 524 32 142 89 101 268 -194 126 -206 272 -348 325 -315 119 74 56 1119 -85 1390 -57 110 -132 622 -167 1138 -46 684 -118 1027 -266 1265 -152 246 -214 560 -250 1262 -27 514 -93 950 -148 968 -55 19 -100 97 -100 175 0 176 393 582 479 496 35 -35 71 -320 81 -633z m-3226 -2 c-34 -285 -106 -519 -160 -519 -89 0 -74 154 76 800 19 83 38 191 42 242 5 50 29 70 56 44 26 -26 19 -281 -14 -567z m7535 -95 c-25 -96 -45 6 -44 226 1 220 22 298 46 174 24 -125 23 -305 -2 -400z m-6998 244 c-28 -72 -14 -331 32 -575 45 -244 43 -483 -5 -532 -47 -49 -61 -679 -29 -1400 60 -1389 -75 -2461 -310 -2461 -96 0 -124 348 -118 1475 5 811 -30 1628 -77 1815 -75 294 -64 332 79 277 197 -76 376 300 254 534 -107 206 20 999 161 999 35 0 41 -59 13 -132z m1022 -14 c315 -163 907 -989 907 -1265 0 -98 39 -201 87 -231 47 -29 110 -232 139 -450 29 -218 126 -541 214 -717 173 -348 214 -791 72 -791 -80 0 -532 1299 -660 1900 -92 431 -314 620 -788 674 -475 53 -560 166 -563 751 -1 317 161 352 592 129z m9108 -229 c1 -96 30 -287 64 -425 42 -167 29 -217 -38 -150 -142 142 -243 750 -124 750 53 0 98 -79 98 -175z m-5701 -594 c0 -72 -95 -131 -212 -131 -170 0 -200 44 -151 225 33 124 62 270 65 325 6 146 298 -264 298 -419z m2800 -43 c0 -55 -45 -72 -100 -38 -55 34 -100 107 -100 162 0 55 45 72 100 38 55 -34 100 -107 100 -162z m4293 -475 c176 -328 -117 -402 -818 -208 -630 175 -453 310 496 379 127 9 265 -64 322 -171z m-10447 -338 c-97 -455 -168 -543 -256 -318 -150 383 -103 643 118 643 182 0 199 -40 138 -325z m-504 -334 c-36 -2125 -108 -2941 -261 -2941 -98 0 -99 2100 -2 3029 66 631 274 562 263 -88z m951 -1091 c-12 -1380 -162 -2283 -365 -2205 -80 30 -174 55 -211 56 -37 0 -68 315 -70 700 -2 384 27 699 63 699 37 0 97 214 134 475 266 1909 464 2030 449 275z m11119 712 c-92 -495 -168 -639 -278 -529 -56 56 111 743 244 999 99 192 116 -33 34 -470z m-11800 -662 l-90 -450 -11 467 c-12 517 114 1003 164 633 15 -110 -13 -402 -63 -650z m4200 -75 c6 -151 5 -313 -4 -361 -24 -135 205 -368 303 -307 49 30 145 19 214 -25 69 -43 170 -80 225 -80 54 -1 139 -193 189 -426 117 -558 -122 -1214 -530 -1455 -438 -258 -619 -139 -556 365 l52 414 -170 -325 c-164 -312 -335 -429 -335 -230 0 52 67 351 148 663 81 312 123 608 92 658 -30 49 -24 381 14 737 48 451 111 647 208 647 81 0 143 -113 150 -275z m5763 150 c-23 -69 -124 -125 -225 -125 -101 0 -202 56 -225 125 -26 79 56 125 225 125 169 0 251 -46 225 -125z m-11275 -175 c0 -55 -45 -100 -100 -100 -55 0 -100 45 -100 100 0 55 45 100 100 100 55 0 100 -45 100 -100z m12872 -722 c114 -598 109 -634 -132 -950 -255 -335 -519 -427 -581 -203 -188 687 -215 1194 -73 1402 401 587 642 511 786 -249z m-14790 89 c21 -182 -15 -267 -115 -267 -176 0 -283 242 -202 454 89 231 281 118 317 -187z m10168 -250 c-67 -68 -586 234 -629 366 -26 80 100 40 311 -99 194 -127 338 -248 318 -267z m-5261 -542 c-11 -653 -20 -685 -95 -325 -115 559 -113 1050 6 1050 59 0 95 -301 89 -725z m7811 686 c0 -22 -70 -66 -155 -99 -89 -34 -129 -18 -94 39 58 95 249 141 249 60z m556 -713 c-154 -324 -156 -383 -20 -591 142 -216 136 -238 -97 -344 -457 -208 -539 -153 -537 362 0 261 34 525 75 585 87 131 656 439 711 385 21 -21 -39 -200 -132 -397z m489 -120 c62 -163 -164 -428 -364 -428 -124 0 -96 345 39 480 164 164 247 151 325 -52z m-1365 -778 c20 -473 -2 -550 -158 -550 -409 0 -552 471 -266 878 263 376 399 271 424 -328z m-11579 -731 c-183 -65 -501 195 -502 410 -1 121 -27 334 -58 471 -36 159 71 51 296 -300 195 -302 313 -564 264 -581z m2831 231 c54 -165 144 -330 200 -366 65 -43 39 -163 -72 -332 -131 -201 -205 -239 -304 -157 -72 60 -204 80 -293 46 -194 -74 -199 -11 -45 655 134 583 352 648 514 154z m11811 -202 c106 -80 162 -176 125 -213 -100 -101 -589 150 -518 265 82 133 162 122 393 -52z m-4842 -99 c84 -102 105 -306 62 -618 -54 -394 -30 -503 151 -696 178 -190 193 -256 88 -382 -107 -129 -93 -153 86 -153 150 0 212 -63 212 -215 0 -203 11 -206 183 -50 100 91 217 165 259 165 162 0 443 -460 397 -650 -34 -140 73 -319 356 -595 417 -407 493 -627 286 -834 -91 -91 -159 -82 -295 42 -140 126 -238 138 -468 58 -160 -56 -443 -70 -630 -33 -302 62 -341 108 -369 435 -28 332 3 384 327 550 325 166 345 201 220 371 -132 181 -150 178 -504 -92 -393 -299 -663 -257 -290 45 l222 181 -277 386 c-427 592 -633 1194 -557 1620 105 581 303 751 541 465z m-3301 -191 c0 -133 40 -256 90 -275 49 -18 101 -258 116 -533 62 -1163 -39 -1411 -631 -1544 -498 -113 -638 50 -437 509 80 184 149 279 154 210 4 -69 50 -125 101 -125 92 0 236 616 356 1525 65 490 251 663 251 233z m-522 -783 c-55 -371 -132 -675 -170 -675 -73 0 -30 1141 52 1392 28 84 81 104 132 50 48 -51 42 -391 -14 -767z m2495 495 c-45 -137 -543 -275 -731 -203 -214 82 -170 215 83 251 495 70 683 56 648 -48z m-5593 -390 c174 -174 147 -548 -44 -622 -91 -34 -172 -50 -180 -35 -178 315 -226 567 -128 665 142 142 203 141 352 -8z m10202 -266 c39 -261 -230 -289 -560 -58 -267 187 -284 316 -47 368 287 64 573 -81 607 -310z m918 -216 c133 -87 133 -109 0 -199 -226 -152 -643 -75 -681 126 -26 133 33 175 249 173 155 0 350 -45 432 -100z m-10731 -639 c341 -294 256 -406 -289 -385 -537 22 -657 149 -390 416 267 267 337 264 679 -31z m6088 -36 c-91 -90 -370 75 -304 181 44 73 110 68 208 -13 79 -66 122 -141 96 -168z m-7697 -796 c-33 -33 -56 26 -52 131 5 117 28 141 60 61 29 -72 26 -159 -8 -192z m540 117 c0 -24 -70 -44 -156 -44 -86 0 -128 46 -93 102 57 92 249 48 249 -58z m363 -91 c45 -118 178 -135 647 -86 618 64 591 81 630 -388 7 -81 -186 -128 -573 -140 -554 -17 -592 -2 -775 297 -105 173 -191 348 -192 389 0 135 205 78 263 -72z m-1263 -59 c0 -58 -45 -78 -100 -44 -55 34 -100 82 -100 106 0 24 45 44 100 44 55 0 100 -48 100 -106z m5107 -361 c77 -205 67 -302 -43 -412 -195 -195 -364 -70 -364 268 0 479 246 566 407 144z m-4402 -138 c406 -379 296 -546 -295 -447 -450 76 -528 256 -245 569 92 101 177 183 190 183 13 0 171 -137 350 -305z m4887 -811 c-58 -107 -181 -219 -274 -247 -92 -28 -251 -96 -353 -151 -346 -187 -309 22 65 365 403 369 753 390 562 33z m-4299 -127 c48 -59 103 -242 122 -407 l35 -300 -523 14 c-844 22 -1027 97 -1027 421 0 155 29 311 65 347 105 105 1232 42 1328 -75z m2407 43 c0 -55 -45 -100 -100 -100 -55 0 -100 45 -100 100 0 55 45 100 100 100 55 0 100 -45 100 -100z m-5402 -299 c223 -119 159 -502 -85 -499 -241 4 -653 352 -571 484 86 140 408 148 656 15z m7739 -208 c464 -365 272 -588 -510 -592 -264 -1 -335 46 -388 256 -83 331 21 427 573 531 33 7 180 -81 325 -195z m-735 -1399 c97 -234 99 -333 9 -423 -130 -130 -905 -193 -1336 -109 -334 65 -360 311 -46 430 126 48 289 159 362 248 79 95 286 160 509 160 325 0 393 -42 502 -306z m-7077 -64 c151 -30 275 -94 275 -142 0 -122 -572 -110 -809 17 -231 123 -148 338 94 245 91 -35 289 -89 440 -120z m4045 -1587 c19 -59 -73 -165 -205 -235 -280 -150 -665 -4 -665 251 0 117 97 145 417 122 230 -17 433 -79 453 -138z m980 -343 c306 -116 245 -300 -100 -300 -258 0 -399 140 -300 300 76 123 77 123 400 0z m-2006 -294 c326 -360 -84 -557 -522 -250 -122 85 -222 220 -222 300 0 215 537 180 744 -50z m-919 -456 c-37 -149 -551 -121 -602 32 -32 96 48 123 291 100 185 -18 325 -77 311 -132z m2894 -1399 c43 -136 -317 -193 -441 -69 -55 55 -72 148 -36 205 72 117 429 16 477 -136z m-1619 -252 c0 -115 -488 -216 -709 -146 -239 76 -248 221 -16 267 250 51 725 -29 725 -121z m1282 -1035 c18 -90 -30 -164 -106 -164 -217 0 -514 258 -438 380 95 154 503 -9 544 -216z"/>
<path d="M15160 39754 c-80 -320 -32 -403 186 -319 189 72 194 172 19 412 -127 173 -140 168 -205 -93z"/>
<path d="M8500 36456 c0 -79 45 -172 100 -206 55 -34 100 31 100 144 0 113 -45 206 -100 206 -55 0 -100 -65 -100 -144z"/>
<path d="M13154 36707 c-31 -51 -12 -121 44 -156 56 -35 102 7 102 93 0 176 -60 202 -146 63z"/>
<path d="M5641 36062 c-85 -220 28 -333 181 -180 90 90 90 146 1 235 -89 89 -132 76 -182 -55z"/>
<path d="M5000 35900 c0 -55 45 -100 100 -100 55 0 100 45 100 100 0 55 -45 100 -100 100 -55 0 -100 -45 -100 -100z"/>
<path d="M5000 35556 c0 -86 45 -156 100 -156 55 0 100 42 100 94 0 52 -45 122 -100 156 -55 34 -100 -8 -100 -94z"/>
<path d="M5000 34750 c0 -192 45 -350 100 -350 55 0 100 158 100 350 0 193 -45 350 -100 350 -55 0 -100 -157 -100 -350z"/>
<path d="M4623 33600 c0 -192 21 -271 46 -175 25 96 25 254 0 350 -25 96 -46 18 -46 -175z"/>
<path d="M16200 30462 c0 -21 73 -212 162 -425 89 -213 203 -494 253 -626 50 -131 116 -214 146 -183 31 30 -38 267 -153 526 -114 259 -208 533 -208 609 0 75 -45 137 -100 137 -55 0 -100 -17 -100 -38z"/>
<path d="M13418 30537 c-328 -259 -818 -939 -818 -1135 0 -148 199 -126 203 23 4 166 360 561 822 913 206 157 375 325 375 374 0 162 -247 88 -582 -175z"/>
<path d="M13825 29847 c-129 -91 -225 -263 -225 -403 0 -336 133 -306 272 62 63 168 174 292 247 276 72 -17 150 14 174 69 72 166 -229 163 -468 -4z"/>
<path d="M12869 29263 c-29 -76 -85 -357 -124 -625 -39 -268 -133 -610 -208 -758 -163 -321 -180 -619 -31 -526 59 36 152 185 208 331 152 392 369 1715 282 1715 -41 0 -98 -62 -127 -137z"/>
<path d="M13593 28992 c-4 -23 -23 -161 -42 -307 -51 -380 -286 -790 -651 -1135 -175 -165 -404 -467 -509 -671 -198 -385 -256 -879 -103 -879 142 0 334 283 267 393 -72 116 207 707 334 707 273 0 966 1679 772 1872 -33 34 -64 43 -68 20z"/>
<path d="M14520 28780 c-66 -66 -120 -173 -120 -238 0 -65 -69 -175 -154 -246 -102 -84 -121 -161 -56 -226 65 -65 33 -229 -95 -479 -136 -267 -160 -401 -81 -450 62 -38 154 5 204 95 129 231 262 204 300 -61 18 -124 77 -202 132 -175 55 27 90 126 77 218 -12 93 116 285 285 427 436 367 330 597 -231 502 l-419 -71 270 320 c324 385 226 722 -112 384z"/>
<path d="M15323 27229 c-289 -55 -551 -448 -498 -748 l40 -231 96 227 c52 124 248 304 436 400 188 95 359 229 380 298 40 126 -35 135 -454 54z"/>
<path d="M19468 26706 c-81 -162 -121 -319 -90 -350 94 -94 422 263 422 459 0 278 -167 223 -332 -109z"/>
<path d="M10319 28226 c18 -95 108 -188 199 -206 124 -24 153 21 112 174 -65 251 -359 281 -311 32z"/>
<path d="M10200 27656 c0 -232 158 -431 262 -328 76 76 -74 572 -173 572 -49 0 -89 -110 -89 -244z"/>
<path d="M18788 23122 c-33 -199 -18 -292 37 -237 51 51 75 198 55 328 -32 201 -46 187 -92 -91z"/>
<path d="M16954 20607 c-31 -51 -12 -121 44 -156 56 -35 102 7 102 93 0 176 -60 202 -146 63z"/>
<path d="M3176 17240 c-81 -133 264 -1999 498 -2690 112 -330 280 -859 374 -1175 94 -316 211 -600 261 -631 168 -103 93 1184 -106 1849 -109 361 -312 1042 -451 1513 -255 865 -476 1300 -576 1134z"/>
<path d="M10147 12125 c106 -1137 165 -1430 273 -1362 158 97 -72 2037 -241 2037 -57 0 -70 -270 -32 -675z"/>
<path d="M12100 14906 c0 -219 156 -358 243 -217 73 119 -36 411 -154 411 -49 0 -89 -87 -89 -194z"/>
<path d="M9367 52175 c92 -482 891 -2132 1280 -2641 186 -244 466 -542 621 -663 155 -120 360 -316 456 -435 233 -288 1359 -849 2226 -1107 385 -115 1101 -327 1591 -471 1036 -304 2225 -978 2488 -1408 318 -522 1154 -1777 1598 -2400 376 -526 450 -723 605 -1600 264 -1500 265 -1513 151 -1627 -192 -192 21 -323 526 -323 576 0 1377 -358 1608 -719 413 -644 748 -3405 726 -5981 -4 -467 -19 -2335 -32 -4150 -14 -1815 -69 -4357 -123 -5650 -53 -1292 -93 -2639 -87 -2991 6 -353 -39 -1320 -99 -2150 -61 -830 -144 -2597 -185 -3928 -64 -2075 -99 -2445 -246 -2607 -94 -105 -171 -263 -171 -353 0 -295 -316 -1116 -510 -1327 -105 -114 -190 -286 -190 -382 0 -291 -1194 -1336 -2016 -1764 -992 -516 -2154 -772 -2766 -610 -238 63 -473 90 -523 59 -50 -31 -272 -2 -494 65 -562 168 -848 1 -1052 -616 -87 -260 -241 -548 -343 -640 -372 -337 -892 -1328 -1158 -2206 -149 -495 -418 -1350 -596 -1900 -458 -1417 -494 -1650 -256 -1650 111 0 219 94 258 225 170 564 1538 2375 1793 2375 59 0 268 109 464 243 302 205 476 243 1099 240 778 -3 1003 -82 1785 -627 1164 -810 3305 -307 3305 777 0 198 -90 588 -200 867 -110 279 -200 641 -200 804 0 258 36 296 280 296 395 0 520 170 520 707 0 496 256 1182 606 1627 116 148 243 482 282 743 l72 473 161 -303 c278 -523 311 -993 133 -1894 -93 -466 -138 -899 -100 -960 39 -62 188 -89 333 -60 634 127 641 125 733 -183 216 -731 -215 -1915 -957 -2629 -577 -555 -1610 -949 -2473 -944 -782 4 -997 -87 -821 -349 66 -98 258 -459 428 -803 l309 -625 2147 0 2147 0 15 2425 c8 1334 10 3213 6 4175 -78 16196 37 42112 188 42650 15 55 -4 415 -43 800 -39 385 -80 1094 -91 1575 l-21 875 -2277 0 -2277 0 0 -305 c0 -774 598 -1227 1309 -992 359 118 746 150 1347 111 113 -8 282 -70 376 -139 147 -108 154 -169 46 -453 -115 -305 -106 -343 140 -550 461 -386 729 -1138 831 -2322 96 -1117 132 -2550 64 -2550 -92 0 -313 601 -315 857 -2 370 -278 987 -543 1214 -362 312 -851 303 -1155 -21 -314 -334 -579 -324 -662 25 -36 151 -99 320 -140 375 -41 55 -106 247 -145 426 -80 377 -323 894 -459 978 -52 32 -94 121 -94 198 0 76 -130 359 -289 629 -341 578 -621 1487 -644 2088 l-17 431 -850 0 -850 0 -300 -475 c-165 -261 -517 -677 -782 -925 -395 -368 -612 -482 -1193 -625 -876 -216 -1111 -116 -1212 518 -74 461 -125 476 -820 240 -649 -220 -1387 -679 -1631 -1014 -234 -321 -311 -266 -419 302 -102 536 -16 1152 205 1479 93 138 202 306 242 375 56 97 -237 125 -1332 125 l-1403 0 62 -325z"/>
<path d="M15700 2610 c-661 -72 -1102 -331 -1763 -1033 -465 -493 -1137 -1392 -1137 -1520 0 -31 1513 -57 3361 -57 l3361 0 -76 375 c-42 206 -80 454 -83 550 -3 96 -43 175 -89 175 -46 0 -245 157 -443 348 -692 673 -1893 1286 -2422 1237 -87 -8 -406 -42 -709 -75z"/>
</g>
</svg>