<svg xmlns="http://www.w3.org/2000/svg" version="1.0" width="250" height="525" viewBox="0 0 250.000000 525.000000" preserveAspectRatio="xMidYMid meet">
<metadata>
Created by potrace 1.10, written by Peter Selinger 2001-2011
</metadata>
<g transform="translate(0.000000,525.000000) scale(0.010000,-0.010000)" fill="#555555" stroke="none">
<path d="M0 52287 c0 -89 68 -219 150 -287 194 -161 194 -589 0 -664 -168 -64 -204 -491 -50 -586 55 -34 100 -129 100 -212 0 -82 -45 -122 -100 -88 -144 89 -123 -287 24 -434 87 -87 92 -146 17 -195 -71 -47 -110 -745 -115 -2021 l-6 -1950 140 831 c76 456 188 922 248 1033 64 121 104 765 98 1597 -10 1372 102 2000 299 1681 59 -96 144 6 292 351 237 552 202 739 -47 257 -194 -376 -301 -346 -153 43 131 343 132 587 3 507 -55 -34 -100 -141 -100 -237 0 -96 -67 -262 -149 -369 -136 -177 -144 -143 -87 378 l63 572 -313 -22 c-214 -15 -314 -74 -314 -185z"/>
<path d="M10107 52359 c-64 -78 -79 -165 -32 -194 47 -28 139 35 206 141 139 223 2 264 -174 53z"/>
<path d="M10503 52353 c-67 -80 -104 -199 -83 -263 22 -65 117 1 212 146 181 277 80 369 -129 117z"/>
<path d="M10798 51996 c-178 -277 -299 -528 -269 -558 50 -51 129 57 540 737 74 124 180 225 233 225 171 0 107 -300 -162 -757 -142 -244 -221 -443 -175 -442 47 0 196 191 331 425 281 486 424 295 160 -214 -228 -442 -187 -616 56 -237 114 179 240 325 279 325 40 0 143 -146 231 -325 87 -179 393 -586 680 -905 287 -318 494 -607 460 -641 -34 -34 -62 -7 -62 61 0 79 -74 100 -205 58 -113 -35 -272 -8 -356 61 -265 220 -1245 544 -2377 786 -1097 234 -3948 107 -4308 -192 -105 -86 -188 -84 -341 12 -167 105 -233 99 -382 -33 -100 -87 -282 -189 -406 -227 -362 -110 -464 -408 -260 -753 166 -281 165 -303 -16 -503 -240 -265 -213 -836 55 -1177 336 -426 256 -731 -279 -1072 -618 -393 -734 -711 -415 -1142 l237 -321 -230 -174 c-178 -134 -216 -233 -166 -433 38 -151 19 -287 -47 -328 -62 -38 -86 -152 -53 -255 32 -102 -33 -366 -146 -587 -113 -221 -205 -534 -205 -696 0 -422 541 -867 1227 -1009 297 -62 704 -201 906 -309 201 -108 426 -196 498 -196 148 0 521 -381 867 -885 216 -315 221 -353 77 -654 -180 -378 -1147 -1461 -1305 -1461 -306 0 -899 -583 -1309 -1287 -442 -760 -925 -2099 -883 -2445 27 -222 -148 -568 -287 -568 -57 0 -75 45 -41 100 87 140 -85 125 -230 -20 -93 -93 -120 -92 -120 7 0 81 -72 104 -200 63 -120 -38 -200 -18 -200 50 0 68 -80 88 -200 50 -155 -49 -200 -18 -200 140 0 140 -47 186 -150 146 -97 -37 -150 2 -150 110 0 122 -54 150 -200 104 -158 -50 -200 -18 -200 154 0 152 -45 200 -150 160 -94 -36 -150 1 -150 100 0 99 -56 136 -150 100 -113 -44 -150 17 -150 245 0 176 -42 277 -100 241 -55 -34 -100 22 -100 125 0 103 -66 274 -147 381 -135 178 -147 147 -150 -373 -2 -358 43 -588 122 -625 100 -46 100 -70 0 -116 -228 -107 -130 -316 177 -377 293 -59 404 -126 803 -488 105 -95 395 -224 643 -287 249 -63 452 -159 452 -214 0 -54 90 -76 200 -47 110 29 223 15 252 -31 114 -186 -159 -185 -706 3 -317 110 -649 199 -737 199 -87 1 -380 113 -651 250 -270 138 -518 221 -550 186 -32 -35 -3 -83 64 -107 67 -24 282 -153 479 -286 197 -134 472 -243 610 -243 333 0 1752 -582 1922 -788 223 -270 6 -2584 -252 -2683 -80 -31 -364 46 -630 170 -428 201 -497 278 -594 664 -151 602 -339 574 -250 -38 38 -261 108 -551 156 -643 48 -93 87 -279 87 -414 0 -135 67 -374 148 -531 105 -201 130 -439 86 -811 -52 -446 -37 -526 102 -526 121 0 164 -92 164 -350 0 -192 44 -350 97 -350 53 0 71 -79 40 -175 -31 -96 -77 -242 -102 -323 -45 -144 -210 136 -381 648 -62 185 -75 187 -165 26 -64 -113 -62 -304 4 -551 60 -221 68 -502 19 -677 l-84 -298 -102 400 c-279 1096 -369 1640 -342 2054 18 265 -52 700 -169 1050 -277 824 -353 1246 -226 1246 166 0 311 -355 311 -763 0 -287 28 -349 116 -261 152 152 -12 1442 -191 1500 -69 22 -125 -35 -125 -129 0 -167 -180 -164 -641 13 -230 89 -196 -133 40 -259 109 -59 191 -139 181 -179 -43 -178 158 -1187 273 -1370 179 -283 287 -852 162 -852 -56 0 -128 84 -161 187 -32 103 -148 267 -257 365 -139 126 -199 314 -204 638 -13 852 -178 920 -186 77 -7 -756 5 -799 354 -1224 242 -296 437 -699 588 -1219 267 -917 422 -1974 249 -1697 -182 292 -312 90 -148 -228 179 -346 208 -2102 43 -2577 -102 -291 -117 -298 -280 -135 -128 128 -205 494 -298 1418 -120 1194 -246 2045 -415 2795 -115 508 -111 -859 5 -1650 151 -1035 391 -3186 393 -3525 1 -179 -43 -325 -98 -325 -55 0 -102 214 -105 475 -2 261 -66 610 -142 775 -123 269 -137 128 -131 -1350 4 -907 26 -1582 50 -1500 95 323 677 1478 1009 2000 193 303 444 753 560 1000 115 248 306 587 425 753 258 361 319 672 393 1997 31 550 71 1260 89 1578 18 319 78 634 134 700 55 67 129 302 164 522 34 220 126 625 204 900 341 1212 482 2167 501 3400 42 2601 357 3672 1444 4910 169 192 354 322 410 287 57 -35 194 53 306 195 243 308 445 349 289 58 -59 -110 -69 -200 -22 -200 47 0 214 270 372 600 158 330 323 600 368 600 126 0 100 -126 -118 -576 -211 -437 -249 -625 -125 -623 41 0 165 204 274 453 109 249 212 413 228 365 16 -48 -62 -301 -174 -562 -229 -535 -234 -557 -121 -557 123 0 518 749 518 984 0 250 202 716 310 716 147 0 197 -192 96 -371 -55 -98 -239 -494 -408 -879 -208 -475 -252 -645 -135 -529 94 93 290 451 436 793 145 343 317 641 383 663 195 65 137 -151 -232 -864 -372 -718 -448 -993 -183 -663 125 157 147 163 101 28 -33 -94 -16 -198 36 -231 53 -32 96 41 96 162 0 324 529 1387 578 1161 21 -99 -12 -241 -74 -315 -130 -157 -30 -683 113 -595 52 33 136 168 187 300 50 132 137 240 194 240 131 0 130 -160 -2 -407 -129 -241 -14 -254 165 -18 126 167 133 167 136 0 2 -96 67 -175 146 -175 100 0 162 -174 207 -575 81 -726 132 -884 246 -767 110 114 170 1009 74 1105 -39 39 -70 153 -70 254 0 249 -23 274 -1745 1933 -533 513 -916 1033 -992 1350 -34 138 -35 194 -4 125 171 -372 341 198 183 611 -87 225 -342 79 -342 -197 0 -131 -51 -239 -112 -239 -72 0 -93 118 -57 325 30 179 32 269 4 200 -28 -69 -96 -125 -149 -125 -54 0 -72 42 -40 93 31 51 12 121 -44 156 -57 35 -105 -38 -109 -168 -6 -205 -15 -210 -81 -43 -57 144 -202 199 -618 231 -299 23 -808 138 -1132 254 -487 177 -611 271 -730 553 -129 311 -124 371 63 688 113 191 205 414 205 495 0 81 64 172 143 202 78 30 173 240 212 467 38 228 159 535 269 683 110 149 171 316 137 371 -63 103 386 518 559 518 52 0 66 -86 33 -192 -34 -105 -14 -220 44 -256 110 -68 703 -1278 703 -1434 0 -169 415 -620 515 -559 58 36 28 139 -75 252 -94 104 -148 215 -117 245 85 85 477 -462 477 -666 0 -129 -49 -165 -164 -121 -357 137 -50 -236 570 -693 354 -260 869 -640 1144 -843 275 -203 602 -492 726 -643 125 -151 372 -306 550 -345 178 -38 494 -156 702 -261 253 -128 602 -195 1050 -201 370 -5 758 -53 863 -108 106 -55 848 -119 1650 -143 1310 -38 1495 -66 1809 -271 248 -162 568 -248 1100 -294 413 -35 910 -110 1106 -165 383 -108 1821 -1329 1878 -1594 19 -87 113 -225 209 -308 731 -627 1188 -2243 1068 -3782 -37 -477 -86 -1228 -109 -1668 -39 -729 -182 -1522 -467 -2600 -108 -411 -171 -559 -888 -2100 -425 -914 -769 -1775 -1542 -3859 -844 -2276 -1395 -3108 -2341 -3535 -382 -172 -448 -174 -888 -34 -442 140 -478 177 -507 514 -17 200 -79 364 -138 364 -65 0 -82 -118 -44 -308 44 -222 26 -296 -63 -265 -74 26 -121 211 -115 458 4 228 -29 415 -75 415 -46 0 -84 -132 -84 -294 0 -162 -52 -326 -115 -365 -82 -51 -100 59 -62 394 29 256 16 465 -29 465 -45 0 -96 -169 -113 -375 -52 -632 -234 -361 -196 293 26 447 4 587 -83 533 -70 -43 -93 -174 -56 -320 34 -137 31 -345 -6 -463 -68 -213 -69 -213 -156 23 -48 130 -59 388 -25 573 41 218 24 336 -48 336 -65 0 -111 -187 -111 -450 0 -247 -40 -450 -89 -450 -127 0 -188 539 -90 804 80 217 35 386 -74 276 -29 -29 -90 -250 -135 -491 -85 -451 -169 -395 -244 161 -37 279 -45 284 -115 76 -94 -279 -253 -197 -253 130 0 275 -196 340 -208 69 -4 -96 -68 -17 -142 175 -110 286 -136 308 -142 119 -10 -303 -208 -178 -208 131 0 268 -156 418 -235 226 -31 -77 -78 -39 -120 98 -37 123 -103 202 -146 175 -43 -26 -105 22 -138 108 -33 86 -105 128 -160 93 -56 -34 -101 31 -101 144 0 113 -50 206 -111 206 -61 0 -84 69 -52 153 42 110 -25 170 -239 212 -164 33 -298 122 -298 198 0 75 -45 137 -100 137 -55 0 -100 68 -100 150 0 180 -197 204 -206 25 -4 -69 -49 -19 -101 111 -79 196 -121 215 -244 113 -103 -86 -149 -89 -149 -11 0 61 -67 112 -150 112 -82 0 -150 75 -150 167 0 91 -28 138 -62 104 -79 -78 -338 176 -338 333 0 64 -64 93 -143 63 -104 -40 -138 16 -125 203 10 144 -44 280 -121 307 -107 38 -124 -17 -72 -239 49 -211 40 -248 -34 -138 -56 83 -103 246 -103 363 -1 117 -70 269 -152 337 -83 68 -151 175 -152 237 -1 62 -90 226 -198 363 -132 169 -196 408 -198 739 -2 517 337 1811 501 1913 156 96 112 348 -61 348 -119 0 -152 90 -133 375 13 206 -34 707 -104 1114 -142 823 -104 1342 135 1820 88 177 160 402 160 500 0 99 34 200 75 225 122 76 128 -541 7 -767 -153 -287 -108 -1246 71 -1502 81 -115 148 -368 148 -562 2 -495 100 -803 254 -803 72 0 163 101 201 225 122 397 762 1197 870 1089 182 -182 -13 -814 -281 -916 -135 -51 -246 -173 -248 -271 -2 -97 -67 -261 -145 -364 -123 -162 -120 -219 22 -436 299 -455 143 -1627 -216 -1627 -74 0 -159 95 -190 210 -30 116 -102 180 -161 144 -183 -113 -118 -409 143 -654 138 -129 250 -284 250 -344 0 -280 516 -845 873 -957 207 -66 557 -202 777 -305 220 -102 873 -274 1450 -382 2094 -393 2730 -665 2781 -1192 18 -176 73 -320 123 -320 124 0 167 244 286 1620 56 643 145 1250 197 1350 176 330 879 2173 1004 2630 67 248 165 588 216 757 51 169 96 574 100 900 4 326 44 795 88 1043 68 382 84 405 104 150 l25 -300 76 300 c69 271 147 181 107 -125 -8 -69 25 -125 75 -125 51 0 115 169 144 375 29 206 69 420 88 475 20 55 -9 123 -64 150 -55 28 -114 -48 -131 -169 -29 -206 -42 -209 -206 -50 -140 135 -158 245 -92 549 45 209 45 524 -2 700 -79 305 -89 310 -197 110 -152 -282 -304 -1301 -263 -1765 40 -459 -98 -483 -319 -56 -156 302 -172 309 -302 131 -131 -179 -138 -176 -144 56 l-7 244 -90 -226 c-78 -192 -26 -286 356 -637 531 -490 552 -665 239 -2000 -141 -601 -254 -887 -350 -887 -86 0 -142 -102 -142 -257 0 -453 -171 -643 -579 -644 -353 -1 -383 -27 -615 -551 -145 -325 -281 -513 -335 -459 -53 53 -42 179 28 309 64 120 89 248 54 283 -84 83 -250 -184 -251 -406 -1 -96 -73 -175 -159 -175 -152 0 -146 103 31 575 26 69 18 125 -19 125 -36 0 -112 -135 -170 -300 -58 -165 -168 -300 -245 -300 -167 0 -182 235 -32 515 60 111 85 225 57 253 -27 28 -123 -90 -212 -262 -89 -172 -204 -286 -257 -254 -57 36 -35 176 54 349 177 341 184 399 50 399 -55 0 -101 -56 -102 -125 -2 -207 -169 -405 -282 -335 -71 44 -43 213 85 513 106 246 151 447 102 447 -50 0 -147 -157 -217 -350 -175 -486 -325 -441 -249 75 50 339 40 387 -49 238 -157 -264 -284 -35 -286 513 -2 401 316 1261 510 1381 155 96 94 243 -102 243 -118 0 -264 -143 -387 -379 -424 -813 -446 -1628 -66 -2417 282 -583 304 -749 89 -666 -93 35 -178 -9 -215 -115 -90 -255 -345 -526 -440 -467 -45 28 -57 116 -26 197 104 271 -69 150 -183 -128 -90 -217 -122 -238 -155 -100 -51 215 -186 227 -263 25 -88 -229 -288 -182 -214 50 72 228 21 245 -266 91 -179 -96 -195 -84 -137 100 39 123 22 209 -40 209 -59 0 -107 -48 -107 -107 0 -61 -85 -79 -200 -43 -246 78 -265 -102 -25 -242 96 -56 127 -103 69 -105 -59 -2 -233 129 -388 291 -203 211 -266 359 -226 525 31 127 108 433 170 681 84 329 85 549 5 819 -100 337 -79 424 243 1020 374 694 454 1252 207 1457 -214 178 -486 87 -629 -209 -345 -722 -743 -537 -912 423 -107 608 -73 890 109 890 189 0 31 1088 -181 1249 -280 211 -307 194 -448 -282 -124 -420 -133 -428 -311 -250 -101 101 -225 183 -276 183 -52 0 -123 101 -158 225 -157 545 -365 875 -554 875 -213 0 -263 -276 -102 -576 141 -265 271 -631 295 -830 6 -58 57 -78 112 -44 130 81 128 -165 -6 -516 -75 -198 -75 -290 0 -315 58 -20 109 -133 112 -252 6 -208 11 -207 102 23 165 411 192 174 38 -336 -197 -654 -172 -793 54 -304 230 498 255 248 39 -388 -168 -493 -121 -769 61 -352 87 200 97 161 64 -235 -22 -261 0 -475 48 -475 49 0 88 68 88 150 0 83 45 150 100 150 140 0 125 -132 -68 -617 -106 -263 -130 -434 -66 -455 68 -23 55 -213 -37 -556 -195 -731 -138 -2186 96 -2445 238 -262 221 -500 -86 -1190 -144 -323 -283 -722 -310 -887 -26 -165 -117 -457 -200 -650 -84 -192 -212 -597 -285 -900 -74 -302 -185 -752 -248 -1000 -64 -247 -155 -607 -204 -800 -49 -192 -312 -694 -586 -1115 -273 -420 -592 -1050 -709 -1400 -481 -1437 -1149 -2480 -2766 -4322 -637 -725 -1131 -1375 -1131 -1488 0 -187 46 -197 675 -141 1497 133 6086 275 6296 194 349 -134 19 -193 -1096 -196 -674 -2 -2170 -39 -3325 -82 -1155 -42 -2201 -71 -2325 -65 -131 8 -225 -45 -225 -125 0 -113 267 -130 1475 -96 2581 75 4470 136 4625 149 186 16 1023 -103 1072 -152 48 -47 -3108 -182 -5022 -214 -2177 -37 -2150 -35 -2150 -172 1 -92 233 -120 875 -108 4997 99 6516 139 6750 180 309 54 369 -90 97 -235 -97 -52 -1211 -123 -2475 -158 -1263 -34 -2724 -83 -3247 -108 -522 -24 -1190 -45 -1483 -45 -375 -1 -522 -37 -493 -123 44 -131 250 -131 4226 0 1210 39 2425 50 2701 22 485 -48 500 -60 500 -367 -1 -386 -99 -501 -291 -341 -97 80 -341 101 -728 62 -834 -85 -4084 -173 -4021 -110 52 53 727 139 1170 150 127 3 204 49 172 102 -93 150 -3753 100 -3753 -52 0 -170 346 -216 1082 -146 662 64 938 -29 404 -136 -171 -34 -575 -62 -898 -62 -477 0 -588 -31 -588 -163 0 -145 113 -154 1025 -87 564 42 1655 88 2425 103 770 15 1933 61 2584 103 l1184 76 -34 -241 c-34 -238 -44 -240 -934 -194 -932 48 -1557 42 -3850 -39 -1650 -59 -2400 -142 -2400 -267 0 -59 693 -67 1825 -22 2341 94 4988 58 5116 -70 208 -208 -97 -283 -818 -203 -734 82 -5482 41 -5898 -50 -660 -146 79 -196 2900 -199 1722 -2 3263 -47 3433 -100 l308 -97 -231 -525 c-157 -356 -290 -525 -413 -525 -100 0 -228 -46 -285 -103 -57 -57 -302 -97 -545 -89 -1867 60 -3256 8 -4043 -151 -330 -68 -780 -108 -1000 -90 -395 31 -396 30 -104 -83 217 -84 492 -85 1050 -5 906 130 1505 134 1505 11 0 -133 876 -110 960 25 45 74 27 89 -51 41 -67 -42 -288 -42 -490 -1 l-369 75 320 71 c176 40 891 20 1590 -42 1047 -95 1294 -91 1405 20 113 114 135 102 135 -72 0 -164 -68 -210 -325 -222 -179 -8 -550 -29 -825 -46 -275 -17 -882 -49 -1350 -71 -2608 -120 -3800 -205 -3800 -272 0 -130 731 -174 1285 -76 295 51 1127 108 1850 125 723 18 1439 65 1590 105 361 96 1508 -43 1225 -149 -346 -129 -4190 -428 -5225 -405 -556 12 -725 -17 -725 -122 0 -137 888 -151 2100 -32 248 24 765 67 1150 95 385 28 1060 78 1500 111 635 48 840 29 993 -93 106 -84 164 -181 129 -216 -34 -35 -729 -75 -1542 -90 -814 -15 -1727 -80 -2030 -143 -302 -64 -887 -109 -1300 -101 -981 20 -1103 4 -819 -110 241 -97 215 -295 -37 -295 -79 0 -144 -84 -144 -187 0 -169 68 -182 725 -142 728 45 1845 177 2450 291 188 35 325 19 325 -38 0 -54 -191 -123 -425 -154 -234 -31 -717 -111 -1075 -179 -357 -67 -807 -130 -1000 -141 -193 -10 -496 -26 -675 -34 -179 -9 -325 -60 -325 -114 0 -59 185 -73 466 -34 340 46 446 32 394 -52 -40 -64 -249 -116 -466 -116 -229 0 -394 -48 -394 -114 0 -82 227 -96 800 -48 444 37 800 28 800 -21 0 -49 -282 -114 -626 -147 -345 -32 -705 -88 -800 -125 -254 -97 -213 -257 51 -202 124 26 619 102 1100 168 481 67 875 160 875 207 0 47 -113 58 -250 23 -165 -41 -250 -21 -250 60 0 81 109 105 325 72 179 -27 505 9 725 80 390 126 1466 196 2525 163 412 -13 525 -51 525 -179 0 -141 -91 -154 -677 -96 -490 48 -793 25 -1101 -83 -234 -83 -644 -141 -913 -129 -343 15 -544 -30 -677 -150 -211 -191 -1294 -474 -1832 -479 -192 -2 -417 -47 -500 -102 -133 -87 -133 -109 0 -196 100 -66 109 -99 25 -100 -69 -1 -125 -48 -125 -104 0 -63 263 -84 700 -56 385 25 700 11 700 -31 0 -42 -223 -181 -495 -308 -427 -201 -905 -598 -905 -754 0 -27 115 -49 257 -49 141 0 350 -50 465 -112 176 -94 199 -86 146 50 -34 89 -17 162 38 162 54 0 140 -107 189 -238 63 -165 199 -257 448 -304 196 -37 357 -106 357 -154 0 -48 27 -159 61 -246 72 -189 -262 -218 -576 -50 -253 136 -371 34 -179 -153 79 -78 455 -172 836 -210 380 -38 818 -105 973 -149 155 -45 306 -43 335 4 29 47 -49 114 -174 149 -370 105 -1076 476 -1076 567 0 46 194 84 432 84 331 0 481 -56 641 -240 114 -132 359 -272 543 -312 184 -39 391 -117 461 -173 73 -59 343 -77 637 -42 320 38 591 16 724 -58 570 -319 1364 -499 1006 -228 -107 81 -261 148 -344 150 -82 3 -285 75 -450 162 -213 112 -437 140 -770 97 -365 -48 -555 -16 -849 141 -208 112 -435 203 -505 203 -69 0 -126 34 -126 76 0 156 1111 140 1355 -20 142 -93 457 -156 780 -156 298 0 671 -67 829 -149 157 -83 421 -150 586 -149 302 0 2020 -228 3056 -406 306 -53 711 -91 900 -86 607 18 -2813 591 -3606 604 -192 3 -436 52 -540 107 -105 56 -528 144 -940 195 -413 52 -845 146 -960 211 -116 64 -502 146 -860 182 -633 63 -2370 656 -2423 826 -15 47 266 195 623 328 358 133 785 303 950 377 165 75 728 283 1250 465 523 181 1006 372 1075 424 87 66 125 50 125 -54 0 -91 -470 -385 -1200 -751 -660 -330 -1200 -563 -1200 -517 0 46 79 129 175 185 96 56 127 103 69 105 -59 2 -238 -134 -399 -302 -341 -356 -307 -397 555 -659 493 -150 2487 -359 2592 -271 130 110 -196 186 -825 193 -738 8 -1867 292 -1867 470 0 102 295 363 418 369 37 2 82 -93 100 -211 39 -264 346 -310 1350 -202 409 43 816 36 949 -17 128 -51 480 -98 783 -105 433 -9 543 -44 518 -162 -26 -120 -7 -125 95 -25 70 69 276 125 457 125 182 0 330 39 330 86 0 91 -802 212 -1419 213 -203 1 -400 51 -438 112 -48 78 -90 75 -144 -13 -43 -69 -132 -90 -201 -47 -121 75 -95 992 65 2249 38 297 24 416 -41 350 -55 -55 -127 -437 -162 -850 -144 -1713 -172 -1795 -623 -1798 -347 -3 -472 235 -237 448 194 175 200 175 200 -25 0 -147 50 -193 175 -161 144 38 178 173 192 766 10 396 65 1058 122 1470 58 413 123 982 144 1265 22 283 119 756 216 1050 96 294 263 805 369 1135 107 330 236 690 288 800 52 110 157 403 234 650 77 248 241 698 364 1000 123 303 362 888 530 1300 168 413 398 907 511 1100 113 193 293 530 400 750 108 220 415 778 682 1240 268 462 583 1092 700 1400 121 316 229 487 249 393 20 -93 -60 -356 -178 -587 -192 -377 -228 -616 -204 -1380 4 -129 -88 -368 -205 -531 -278 -391 -184 -463 174 -132 263 244 432 847 236 847 -213 0 -173 409 115 1173 258 682 293 861 184 928 -105 65 -111 135 -23 316 91 189 113 199 118 52 4 -109 52 -153 121 -110 82 50 94 -35 44 -302 l-70 -372 306 226 c302 224 393 389 214 389 -50 0 -115 -56 -143 -125 -28 -69 -25 29 8 217 50 290 34 332 -107 278 -228 -87 -214 152 17 296 101 63 286 400 413 749 126 349 336 847 467 1107 260 517 276 578 156 578 -85 0 -398 -670 -736 -1573 -191 -511 -339 -704 -452 -591 -76 75 767 2038 935 2177 149 124 88 287 -108 287 -72 0 -205 -236 -297 -525 -181 -573 -357 -913 -359 -696 -5 340 426 1421 566 1421 217 0 732 -389 732 -552 0 -77 -127 -355 -283 -619 -155 -263 -311 -625 -347 -803 -36 -179 -156 -514 -267 -744 -230 -476 -232 -482 -124 -482 119 0 640 1187 662 1509 11 155 87 363 169 461 82 99 211 305 287 457 77 152 175 241 219 197 45 -45 -80 -451 -275 -904 -196 -453 -336 -879 -310 -947 28 -75 73 -45 115 77 219 626 591 1461 675 1513 53 33 141 15 196 -40 66 -66 14 -280 -155 -638 -328 -694 -578 -1403 -515 -1465 26 -27 78 37 115 141 237 677 777 1839 855 1839 51 0 220 -66 376 -146 156 -81 466 -210 690 -287 393 -135 431 -128 1117 203 589 285 789 450 1169 962 252 340 519 763 594 940 78 184 191 301 262 274 139 -54 427 336 324 439 -36 35 -135 -25 -221 -135 -135 -175 -147 -177 -91 -17 34 101 63 220 63 266 0 45 159 272 353 505 345 412 404 651 99 398 -92 -77 -152 -85 -152 -22 0 58 112 194 250 302 137 108 250 246 250 306 0 131 663 1399 843 1612 267 316 257 434 -11 133 -155 -174 -417 -575 -582 -891 -210 -402 -311 -519 -336 -389 -38 198 420 1156 711 1486 96 109 175 252 175 318 0 65 67 174 149 242 82 68 127 160 100 203 -77 124 58 398 196 398 67 0 174 113 237 250 93 205 87 250 -34 250 -174 0 -182 43 -50 276 190 337 690 1782 839 2424 233 1002 364 1995 342 2600 -11 303 -11 1037 1 1632 16 894 43 1059 151 950 364 -366 1033 -2206 1319 -3628 225 -1116 448 -3800 422 -5079 -12 -591 8 -1075 45 -1075 36 0 129 187 205 416 l139 417 243 -392 c134 -215 436 -773 672 -1241 l429 -850 -28 2600 -28 2600 -276 425 c-273 421 -573 565 -573 275 0 -82 46 -150 101 -150 123 0 553 -947 643 -1414 51 -267 42 -300 -45 -161 -60 96 -173 175 -251 175 -78 0 -179 143 -225 318 -101 392 -323 496 -323 152 0 -163 -68 -265 -200 -299 -265 -69 -301 11 -290 644 11 683 -169 2075 -361 2785 -208 770 -308 2152 -163 2242 63 38 114 159 114 267 0 219 442 1143 590 1235 167 103 697 -1201 920 -2262 118 -568 238 -1133 264 -1257 48 -218 21 -238 -366 -266 -78 -5 -161 -68 -185 -139 -31 -95 33 -111 242 -61 157 38 319 88 360 111 105 59 94 841 -17 1190 -50 160 -118 493 -150 740 -55 427 -49 440 104 250 156 -193 159 -189 92 100 -39 165 -69 589 -66 941 6 749 -159 717 -209 -41 l-33 -500 -233 500 c-232 498 -232 502 -52 1050 99 303 267 750 373 994 269 622 323 2298 126 3957 -84 714 -196 1659 -249 2099 -52 440 -145 1318 -207 1950 -62 633 -155 1398 -206 1700 -80 467 -339 2886 -555 5175 -32 344 -105 625 -162 625 -62 0 -80 -130 -44 -325 32 -179 108 -955 168 -1725 60 -770 175 -1940 256 -2600 81 -660 234 -2055 339 -3100 106 -1045 216 -2057 244 -2250 210 -1445 297 -2803 270 -4242 l-14 -791 -600 -591 c-330 -325 -601 -666 -602 -758 -1 -93 -133 -406 -294 -698 -160 -291 -346 -786 -413 -1100 l-121 -570 -130 300 c-72 165 -133 358 -135 429 -3 70 -77 238 -165 373 -152 232 -146 270 115 715 151 259 520 698 820 977 300 278 660 685 800 903 240 374 254 466 235 1550 -12 634 -61 1333 -110 1553 -49 220 -97 715 -108 1100 -11 385 -83 1128 -160 1650 -225 1519 -334 2805 -428 5050 -83 1981 -212 3216 -408 3900 -102 354 -97 239 145 -3450 92 -1402 273 -3450 401 -4550 129 -1100 242 -2266 252 -2592 10 -326 60 -816 112 -1089 52 -273 94 -964 94 -1537 0 -1243 -111 -1515 -948 -2332 -310 -302 -660 -719 -776 -925 -209 -368 -376 -485 -376 -263 0 130 -598 977 -1062 1505 -667 758 -671 772 -497 1702 194 1040 241 1564 351 3919 48 1038 126 1915 173 1950 47 34 89 1828 95 3987 8 3414 -10 3925 -140 3925 -129 0 -139 -224 -77 -1656 42 -966 33 -1706 -20 -1775 -171 -223 -324 -1517 -333 -2819 -5 -715 -68 -1957 -139 -2761 -71 -803 -106 -1578 -79 -1722 49 -255 -167 -1607 -385 -2417 -175 -649 -260 -693 -674 -346 -200 166 -425 353 -500 415 -98 79 -121 249 -81 589 42 348 18 509 -88 597 -79 66 -144 283 -145 482 0 200 -74 498 -163 663 -90 165 -224 416 -299 559 -74 142 -220 335 -322 428 -103 93 -269 351 -370 573 -196 436 -730 790 -1191 790 -290 0 -322 122 -100 375 468 534 747 969 1394 2175 171 319 957 2630 1303 3833 37 127 88 211 113 186 110 -109 -929 -3616 -1161 -3919 -42 -55 -156 -347 -253 -650 -98 -302 -237 -668 -310 -812 -72 -145 -105 -290 -71 -324 67 -67 523 809 528 1015 2 71 97 312 211 537 475 930 1294 3816 1345 4734 15 275 72 669 127 875 81 306 72 375 -46 375 -79 0 -212 -169 -295 -375 -250 -621 -577 -1229 -789 -1464 -110 -122 -323 -399 -473 -616 -150 -217 -609 -727 -1020 -1134 -746 -736 -749 -738 -1175 -670 -441 71 -782 296 -782 516 0 70 -39 141 -87 160 -48 18 -327 297 -620 619 -452 497 -529 637 -509 933 15 219 -15 324 -80 283 -57 -35 -104 -154 -104 -264 0 -115 -45 -172 -106 -134 -61 37 -79 189 -42 356 40 180 23 290 -44 290 -59 0 -108 -67 -108 -150 0 -238 -142 -175 -333 148 -134 226 -151 345 -72 494 132 246 134 408 5 408 -55 0 -100 -87 -100 -194 0 -107 -42 -220 -93 -252 -147 -91 -222 294 -112 583 64 169 65 263 3 263 -54 0 -98 -67 -98 -150 0 -83 -45 -150 -100 -150 -55 0 -100 113 -100 250 0 218 -44 250 -340 250 -298 0 -378 -61 -662 -504z m7403 -2011 c-368 -1266 -788 -2475 -1030 -2964 -358 -725 -704 -1366 -767 -1421 -31 -27 -234 -286 -451 -575 -217 -289 -450 -525 -518 -525 -264 0 -236 225 86 678 1079 1517 1781 2864 2173 4167 275 917 564 1530 671 1423 27 -27 -47 -379 -164 -783z m-12927 46 c-93 -93 -197 -141 -232 -107 -98 99 53 276 235 276 153 0 153 -13 -3 -169z m1126 81 c0 -49 -90 -112 -200 -141 -110 -29 -200 -15 -200 31 0 46 79 104 175 129 96 25 186 51 200 57 14 7 25 -28 25 -76z m-1600 -412 c0 -110 -45 -200 -100 -200 -55 0 -100 90 -100 200 0 110 45 200 100 200 55 0 100 -90 100 -200z m1798 25 c0 -41 -43 -141 -94 -222 -115 -182 -250 -68 -169 143 59 156 266 218 263 79z m3031 -225 c29 -110 17 -222 -27 -249 -115 -71 -331 221 -255 345 102 164 225 122 282 -96z m-2547 -356 c18 -216 80 -448 138 -518 152 -183 379 -154 383 49 3 159 16 158 148 -17 80 -105 225 -200 322 -211 97 -10 258 -54 356 -95 285 -122 322 25 60 238 -169 139 -208 227 -133 304 75 76 203 -23 443 -343 373 -498 450 -550 372 -251 -29 110 -17 200 26 200 126 0 282 -230 356 -526 64 -255 247 -389 247 -181 0 430 -649 1251 -798 1010 -60 -97 -93 -98 -152 -2 -42 67 -17 158 56 203 108 66 108 109 0 238 -212 257 -23 181 400 -159 217 -174 394 -371 394 -437 0 -67 74 -183 164 -257 90 -75 246 -328 346 -563 212 -494 335 -559 240 -126 -50 227 -30 300 81 300 177 0 269 -210 269 -614 0 -191 40 -273 110 -230 60 37 90 199 67 359 -64 435 155 292 273 -178 55 -219 179 -518 275 -664 96 -146 175 -340 175 -431 0 -135 -63 -118 -343 96 -189 144 -389 262 -444 262 -242 0 -211 -244 76 -602 171 -212 311 -501 311 -642 0 -161 56 -256 150 -256 106 0 150 107 150 361 0 288 32 348 158 300 87 -34 177 -61 200 -61 23 0 42 -160 42 -355 0 -195 70 -499 155 -675 l155 -320 -215 248 c-211 244 -216 245 -361 50 -144 -194 -151 -193 -390 83 -134 154 -244 356 -244 450 -1 284 -384 819 -587 819 -221 0 -341 332 -179 494 81 81 81 159 1 287 -60 96 -141 320 -180 497 -108 491 -293 403 -218 -103 138 -923 158 -1510 48 -1400 -59 59 -131 315 -160 569 -28 253 -91 485 -138 514 -48 30 -87 177 -87 328 0 267 -155 514 -324 514 -45 0 -37 -87 20 -193 57 -106 77 -260 46 -342 -32 -83 31 -352 140 -597 109 -246 229 -589 267 -763 38 -174 121 -298 184 -277 130 43 359 -223 605 -701 91 -178 300 -393 464 -478 377 -195 391 -375 23 -287 -387 91 -613 314 -552 544 27 107 0 194 -61 194 -62 0 -112 81 -112 180 0 191 -180 420 -331 420 -50 0 -62 -112 -28 -250 46 -181 23 -250 -83 -250 -241 0 -296 143 -610 1600 -30 138 -120 420 -201 627 -81 207 -147 511 -147 675 0 200 -50 298 -152 298 -120 0 -143 -96 -110 -450 25 -263 0 -450 -59 -450 -55 0 -73 -71 -40 -157 43 -112 10 -148 -114 -123 -99 19 -176 125 -178 245 -4 257 -233 555 -365 474 -52 -33 -153 20 -223 116 -170 232 -388 95 -300 -188 38 -120 113 -246 168 -281 55 -36 76 -190 47 -343 -33 -174 2 -334 95 -426 113 -114 132 -281 79 -730 -71 -614 30 -885 554 -1489 150 -173 174 -256 85 -286 -69 -23 -252 110 -406 294 -201 241 -281 288 -281 165 0 -290 -202 -190 -355 176 -218 520 -193 732 52 439 216 -260 265 -189 93 133 -85 158 -79 226 24 290 107 66 109 108 10 207 -68 68 -124 225 -124 348 0 123 -45 252 -100 286 -55 34 -100 -8 -100 -94 0 -86 -41 -156 -90 -156 -108 0 -309 544 -311 840 -2 280 -225 707 -377 723 -67 6 -167 18 -222 25 -55 6 -100 80 -100 162 0 83 -48 150 -106 150 -58 0 -76 48 -40 106 41 67 119 40 212 -75 100 -124 162 -143 197 -62 27 66 115 95 193 65 88 -34 144 6 144 102 0 99 56 136 150 100 177 -68 200 -303 36 -357 -86 -29 -86 -92 0 -252 63 -118 114 -321 114 -451 0 -131 71 -325 158 -432 127 -156 148 -161 106 -25 -29 92 -10 182 42 200 57 19 41 243 -41 559 -131 503 -83 706 135 572 152 -94 120 25 -65 240 -90 106 -225 169 -300 141 -94 -36 -135 33 -135 227 0 258 -10 266 -134 98 -127 -175 -143 -172 -358 56 -210 221 -224 224 -205 38 42 -415 5 -474 -253 -409 -144 36 -250 20 -250 -39 0 -56 -45 -102 -100 -102 -55 0 -100 76 -100 169 0 148 -19 145 -152 -25 -145 -185 -151 -180 -125 106 20 227 71 292 208 269 209 -35 769 191 769 311 0 45 47 53 104 17 58 -35 170 -10 250 57 119 98 147 86 149 -67 3 -181 8 -181 148 5 117 153 121 222 22 341 -100 122 -95 140 27 101 91 -30 163 -203 182 -440z m1412 198 c208 -198 85 -260 -224 -116 -347 161 -461 415 -144 320 123 -37 289 -129 368 -204z m1606 52 c0 -58 -45 -78 -100 -44 -55 34 -100 82 -100 106 0 24 45 44 100 44 55 0 100 -48 100 -106z m3500 -150 c0 -79 -68 -144 -150 -144 -151 0 -206 211 -86 331 93 93 236 -20 236 -187z m3900 99 c0 -207 -593 -1627 -709 -1699 -93 -57 -82 -23 298 933 115 290 205 560 198 600 -27 183 21 323 113 323 55 0 100 -71 100 -157z m-9400 -514 c0 -236 -247 -85 -285 174 -30 207 -14 221 125 105 88 -73 160 -198 160 -279z m5861 213 c-34 -87 -61 -200 -61 -250 0 -51 -45 -92 -100 -92 -112 0 -137 330 -33 433 126 127 254 67 194 -91z m2645 -1216 c-768 -1867 -800 -1937 -1090 -2397 -254 -402 -416 -534 -416 -339 0 50 147 354 327 675 401 718 1173 2526 1173 2747 0 187 397 724 477 645 29 -30 -183 -629 -471 -1331z m-5356 1076 c-40 -129 22 -314 179 -525 372 -503 405 -584 213 -510 -93 36 -149 24 -124 -26 25 -50 103 -237 173 -416 144 -363 309 -430 309 -125 0 110 37 200 83 200 114 0 317 -924 317 -1445 0 -237 70 -598 155 -803 238 -568 142 -782 -143 -321 -178 287 -222 469 -179 733 64 398 -164 990 -483 1249 -110 89 -282 427 -381 750 -251 811 -333 1059 -417 1262 -57 135 -24 175 144 175 171 0 204 -42 154 -198z m-852 -542 c-2 -200 -12 -198 -198 40 -269 344 -269 594 0 350 110 -100 199 -275 198 -390z m543 -202 c61 -249 50 -275 -74 -172 -80 66 -167 220 -193 342 -27 122 -84 312 -127 422 -60 155 -33 143 122 -50 110 -137 233 -382 272 -542z m-6041 422 c0 -162 -30 -190 -111 -109 -61 61 -81 160 -44 220 103 168 155 130 155 -111z m9293 -55 c-4 -41 -46 -165 -93 -275 -76 -177 -87 -169 -93 75 -4 151 38 275 93 275 55 0 97 -34 93 -75z m255 -575 c12 -196 -17 -381 -63 -409 -47 -29 -85 160 -85 420 0 538 115 530 148 -11z m-9748 194 c0 -24 -45 -44 -100 -44 -55 0 -100 48 -100 106 0 58 45 78 100 44 55 -34 100 -82 100 -106z m10100 -394 c0 -186 -45 -366 -100 -400 -61 -38 -100 118 -100 400 0 282 39 438 100 400 55 -34 100 -214 100 -400z m1376 68 c-135 -359 -327 -440 -220 -93 74 243 251 501 307 446 18 -19 -21 -177 -87 -353z m-10626 -17 c80 -253 -14 -409 -203 -336 -191 73 -194 535 -4 535 79 0 172 -90 207 -199z m15164 -851 l-94 -400 -9 500 c-4 275 25 613 65 750 68 231 76 224 103 -100 16 -192 -13 -530 -65 -750z m-5527 540 c-112 -497 -437 -1154 -509 -1030 -81 140 358 1438 486 1439 83 1 89 -114 23 -409z m469 135 c-110 -458 -775 -2017 -908 -2127 -209 -173 -258 161 -62 421 249 329 831 1772 761 1886 -32 52 16 95 108 95 131 0 153 -59 101 -275z m-2875 -403 c80 -290 121 -554 89 -585 -115 -116 -270 83 -270 347 0 311 -268 748 -407 662 -51 -32 -93 -7 -93 55 0 63 117 98 267 81 230 -28 288 -107 414 -560z m780 79 c101 -344 95 -385 -58 -374 -134 10 -169 104 -162 435 10 489 61 475 220 -61z m-7389 91 c138 -274 34 -356 -257 -200 -133 71 -180 172 -143 311 67 255 240 208 400 -111z m1826 -302 c1 -87 93 -241 204 -342 112 -101 165 -221 119 -267 -46 -46 -25 -432 47 -857 104 -618 183 -821 394 -1006 202 -176 237 -259 148 -348 -89 -89 -130 -66 -173 97 -30 118 -138 236 -240 263 -117 30 -203 170 -237 384 -238 1510 -313 1864 -436 2057 -78 121 -109 272 -70 335 85 138 242 -65 244 -316z m7788 -202 c-253 -667 -786 -1688 -880 -1688 -41 0 65 286 235 636 170 349 372 788 449 975 131 317 298 589 363 589 15 0 -60 -231 -167 -512z m-9186 12 c0 -110 -45 -200 -100 -200 -55 0 -100 90 -100 200 0 110 45 200 100 200 55 0 100 -90 100 -200z m-887 -66 c124 -151 116 -156 -88 -47 -233 124 -290 213 -137 213 48 0 149 -75 225 -166z m-613 -321 c-1 -35 -168 -243 -372 -463 -205 -220 -360 -456 -346 -525 44 -208 -221 -134 -399 111 -200 275 -162 347 418 795 322 249 484 318 574 246 69 -56 125 -130 125 -164z m3900 -75 c0 -82 -45 -122 -100 -88 -55 34 -100 129 -100 212 0 82 45 122 100 88 55 -34 100 -129 100 -212z m4294 -413 c-16 -367 35 -710 141 -947 196 -442 213 -710 40 -654 -69 23 -139 207 -156 410 -23 272 -109 427 -325 586 -343 254 -376 435 -93 509 125 33 223 168 262 362 97 486 158 363 131 -266z m-7294 278 c0 -134 -48 -178 -150 -139 -82 31 -150 120 -150 197 0 76 68 139 150 139 83 0 150 -89 150 -197z m400 -120 c0 -364 -44 -351 -138 42 -39 163 -24 275 36 275 56 0 102 -142 102 -317z m14272 -810 c-22 -178 -40 -8 -39 377 0 385 18 530 40 323 22 -208 21 -523 -1 -700z m-12106 602 c-28 -69 -50 -12 -50 125 0 138 22 194 50 125 28 -69 28 -181 0 -250z m5560 -400 c48 -679 -145 -794 -381 -228 -166 398 -188 586 -37 328 152 -261 324 -215 253 67 -33 133 -30 322 7 420 85 220 106 140 158 -587z m-6926 11 c0 -218 -247 -6 -373 321 l-133 343 253 -281 c139 -154 253 -326 253 -383z m-1300 158 c0 -86 -45 -128 -100 -94 -55 34 -100 104 -100 156 0 52 45 94 100 94 55 0 100 -70 100 -156z m324 -194 c27 -137 10 -250 -38 -250 -47 0 -86 113 -86 250 0 138 17 250 38 250 21 0 60 -112 86 -250z m2942 -177 c-28 -68 -49 12 -47 177 3 165 25 220 50 123 26 -97 24 -232 -3 -300z m1575 77 c90 -137 121 -250 68 -250 -122 0 -409 286 -409 407 0 175 177 93 341 -157z m-3895 -188 c85 33 154 13 154 -43 0 -56 -50 -119 -111 -139 -79 -27 -81 -143 -7 -410 58 -212 63 -348 10 -315 -50 31 -92 123 -92 205 0 81 -96 278 -213 437 -140 189 -189 351 -140 471 67 167 80 163 159 -41 56 -146 140 -203 240 -165z m2701 -541 c540 -212 676 -369 342 -394 -229 -18 -990 534 -987 715 1 70 28 66 76 -9 41 -65 297 -205 569 -312z m-3047 -227 c0 -58 -45 -78 -100 -44 -55 34 -100 82 -100 106 0 24 45 44 100 44 55 0 100 -48 100 -106z m1200 -650 c0 -24 -45 -44 -100 -44 -55 0 -100 48 -100 106 0 58 45 78 100 44 55 -34 100 -82 100 -106z m1692 15 c239 -133 240 -136 32 -202 -206 -65 -624 114 -624 267 0 119 325 83 592 -65z m2908 -20 c0 -105 -54 -140 -158 -100 -87 34 -211 62 -275 63 -156 2 146 194 308 196 69 1 125 -70 125 -159z m-4273 -539 c133 0 323 -90 423 -200 177 -196 175 -200 -146 -200 -247 0 -423 95 -716 388 -213 214 -388 435 -388 493 0 57 132 -28 292 -189 162 -162 400 -292 535 -292z m6423 400 c34 -55 -6 -100 -88 -100 -83 0 -178 45 -212 100 -34 55 6 100 88 100 83 0 178 -45 212 -100z m1248 -440 c1 -50 -88 13 -198 140 -110 127 -199 280 -198 340 3 128 392 -346 396 -480z m-4973 325 c-146 -146 -1015 -282 -1084 -170 -29 47 96 86 278 87 182 0 399 45 481 98 222 143 472 132 325 -15z m2709 -185 c-97 -165 -235 -300 -306 -300 -184 0 -158 130 76 381 296 318 436 268 230 -81z m-4742 71 c318 -261 899 -387 1461 -316 302 37 574 108 604 157 30 48 236 88 457 88 646 0 415 -231 -395 -395 -657 -132 -777 -129 -1443 40 -728 185 -976 304 -976 467 0 125 109 109 292 -41z m3808 -227 c0 -24 -45 -44 -100 -44 -55 0 -100 48 -100 106 0 58 45 78 100 44 55 -34 100 -82 100 -106z m1957 -156 c30 -48 -33 -88 -139 -88 -113 0 -226 -94 -269 -225 l-74 -225 -46 232 c-67 348 29 510 266 448 115 -30 233 -94 262 -142z m6003 -161 c-33 -33 -56 26 -52 131 5 117 28 141 60 61 29 -72 26 -159 -8 -192z m-7830 -100 c139 -79 -146 -327 -376 -327 -283 0 -344 66 -282 305 40 152 107 180 314 130 145 -34 300 -83 344 -108z m3220 73 c34 -55 -8 -100 -94 -100 -86 0 -156 45 -156 100 0 55 42 100 94 100 52 0 122 -45 156 -100z m-4150 -161 c0 -105 -54 -140 -158 -100 -87 34 -233 62 -325 63 -144 1 -147 14 -17 98 232 150 500 117 500 -61z m4671 4 c143 -143 143 -172 -7 -322 -151 -151 -164 -151 -164 -1 0 90 -27 235 -61 322 -77 202 31 203 232 1z m-6421 -101 c319 -41 319 -61 0 -134 -365 -83 -771 6 -830 183 -33 99 36 112 293 53 185 -42 427 -88 537 -102z m3550 8 c0 -82 -83 -150 -185 -150 -101 0 -265 -90 -365 -200 -100 -110 -249 -200 -333 -200 -307 0 467 665 808 694 41 3 75 -61 75 -144z m-4809 -108 c90 -90 -53 -122 -316 -72 -151 30 -275 98 -275 152 0 91 487 25 591 -80z m2028 90 c-72 -29 -159 -26 -192 8 -33 33 26 56 131 52 117 -5 141 -28 61 -60z m4390 -712 c-252 -84 -521 -474 -479 -695 41 -217 -30 -269 -315 -230 -74 10 -220 -59 -325 -154 -105 -95 -216 -148 -246 -118 -31 30 173 296 451 591 279 295 584 737 678 983 l171 447 93 -392 c67 -287 60 -403 -28 -432z m-5329 297 c275 24 375 -8 399 -130 45 -233 -379 -318 -598 -119 -135 121 -210 132 -313 47 -162 -134 -268 -53 -268 205 0 158 32 170 207 76 113 -60 372 -96 573 -79z m1320 -27 c118 -66 105 -85 -62 -87 -360 -5 -838 117 -838 214 0 101 659 8 900 -127z m3300 -62 c0 -209 -945 -1128 -1161 -1128 -112 0 3 170 343 511 282 281 539 597 572 702 69 217 246 156 246 -85z m1325 1 c-78 -29 -102 -137 -63 -291 81 -324 -203 -638 -577 -638 -390 0 -358 167 65 344 232 96 350 212 350 343 0 350 112 542 238 407 83 -88 79 -131 -13 -165z m1175 15 c0 -24 -45 -44 -100 -44 -55 0 -100 48 -100 106 0 58 45 78 100 44 55 -34 100 -82 100 -106z m-3301 -169 c-1 -184 -686 -875 -868 -875 -179 0 -111 112 408 675 317 343 462 406 460 200z m4195 -1063 c-3 -89 -115 80 -250 376 -134 296 -241 611 -238 700 3 89 115 -80 250 -376 134 -296 241 -611 238 -700z m-8912 856 c31 -159 10 -165 -173 -50 -254 158 -274 309 -35 263 95 -18 189 -114 208 -213z m3138 112 c-93 -93 -147 -93 -240 0 -93 93 -67 120 120 120 187 0 213 -27 120 -120z m8480 20 c0 -55 -48 -100 -106 -100 -58 0 -78 45 -44 100 34 55 82 100 106 100 24 0 44 -45 44 -100z m-11100 -256 c0 -24 -45 -44 -100 -44 -55 0 -100 48 -100 106 0 58 45 78 100 44 55 -34 100 -82 100 -106z m1986 67 c94 -60 102 -107 25 -154 -127 -79 -311 10 -311 149 0 116 107 118 286 5z m-786 -117 c0 -58 -45 -78 -100 -44 -55 34 -100 82 -100 106 0 24 45 44 100 44 55 0 100 -48 100 -106z m1600 -127 c0 -118 -158 -137 -550 -65 -55 10 13 54 150 98 365 117 400 114 400 -33z m4477 -175 c37 -191 -524 -427 -831 -350 -349 88 -307 265 46 195 228 -46 322 -12 425 152 142 229 316 230 360 3z m-6677 2 c0 -58 -45 -78 -100 -44 -55 34 -100 82 -100 106 0 24 45 44 100 44 55 0 100 -48 100 -106z m-464 -144 c32 -82 42 -150 23 -150 -19 0 -91 68 -159 150 -72 86 -81 150 -23 150 56 0 128 -67 159 -150z m2091 -21 c492 -46 559 -75 456 -200 -133 -159 -799 -109 -1246 95 -302 138 -312 323 -12 229 124 -39 485 -95 802 -124z m8675 -963 c-135 -1084 -260 -1757 -342 -1839 -35 -35 -115 -12 -178 51 -87 87 -75 209 48 494 90 208 191 558 224 778 121 804 265 1465 309 1420 25 -25 -2 -432 -61 -904z m-7702 634 c-196 -127 -328 -127 -250 0 34 55 138 99 231 98 146 -1 148 -14 19 -98z m5560 -673 c-33 -33 -56 26 -52 131 5 117 28 141 60 61 29 -72 26 -159 -8 -192z m-10910 -727 c-34 -55 -107 -100 -162 -100 -55 0 -72 45 -38 100 34 55 107 100 162 100 55 0 72 -45 38 -100z m-150 -500 c0 -55 -48 -100 -106 -100 -58 0 -78 45 -44 100 34 55 82 100 106 100 24 0 44 -45 44 -100z m17146 -2325 c-286 -343 -546 -537 -546 -408 0 76 697 733 777 733 22 0 -81 -146 -231 -325z m-104 -611 c-65 -167 -242 -229 -242 -84 0 97 223 330 271 283 18 -19 5 -108 -29 -199z m-20942 -2414 c0 -82 -67 -150 -150 -150 -156 0 -198 118 -83 233 115 115 233 73 233 -83z m-933 -4315 c94 -603 94 -797 2 -855 -83 -52 -137 68 -180 398 -33 260 -42 506 -18 548 23 41 -54 210 -171 374 -235 330 -190 560 80 409 114 -63 205 -341 287 -874z m143 -1306 c-96 -165 -104 -163 -107 29 -3 232 124 412 177 252 19 -56 -13 -183 -70 -281z m21450 -2 c-33 -33 -56 26 -52 131 5 117 28 141 60 61 29 -72 26 -159 -8 -192z m-9959 -250 c-209 -466 -472 -665 -350 -264 40 130 135 308 211 395 76 87 108 188 72 225 -37 37 5 67 94 67 145 0 142 -45 -27 -423z m499 288 c0 -179 -244 -661 -357 -704 -79 -30 -143 -29 -143 2 0 142 332 737 411 737 49 0 89 -16 89 -35z m10000 -471 c0 -52 -45 -94 -100 -94 -55 0 -100 70 -100 156 0 86 45 128 100 94 55 -34 100 -104 100 -156z m393 -449 c7 -290 -140 -545 -313 -545 -122 0 -95 245 42 382 68 68 113 290 102 495 -16 295 -1 331 71 173 50 -110 94 -337 98 -505z m-13135 -160 c-126 -301 -458 -707 -458 -560 0 91 389 931 468 1010 143 143 138 -96 -10 -450z m12642 259 c0 -86 -46 -128 -102 -93 -56 35 -75 105 -44 156 86 139 146 113 146 -63z m-11856 -134 c74 -120 -307 -580 -402 -485 -84 83 147 575 269 575 42 0 102 -40 133 -90z m452 -185 c-2 -41 -114 -210 -249 -375 -274 -334 -338 -182 -85 204 153 234 342 331 334 171z m545 -150 c-176 -309 -790 -1075 -862 -1075 -153 0 -76 237 231 716 198 308 382 484 506 484 128 0 171 -43 125 -125z m458 -127 c-140 -369 -729 -1140 -874 -1144 -216 -7 -139 200 300 805 449 618 747 795 574 339z m-2904 -257 c-61 -114 -136 -183 -167 -152 -31 31 0 125 70 209 180 216 228 188 97 -57z m-595 -147 c0 -86 -46 -128 -102 -93 -56 35 -75 105 -44 156 86 139 146 113 146 -63z m1250 -244 c-34 -55 -82 -100 -106 -100 -24 0 -44 45 -44 100 0 55 48 100 106 100 58 0 78 -45 44 -100z m13050 -150 c0 -82 -45 -150 -100 -150 -55 0 -100 68 -100 150 0 83 45 150 100 150 55 0 100 -67 100 -150z m-10996 -295 c-176 -212 -327 -89 -179 147 74 119 156 157 213 100 58 -58 45 -152 -34 -247z m-11904 -361 c0 -107 -45 -194 -100 -194 -55 0 -100 115 -100 256 0 145 43 229 100 194 55 -34 100 -149 100 -256z m-300 -1300 c0 -400 -40 -681 -91 -649 -123 75 -128 1355 -5 1355 53 0 96 -318 96 -706z m5700 -161 c0 -714 -78 -753 -261 -131 -93 314 -88 427 29 593 79 113 163 205 188 205 24 0 44 -300 44 -667z m536 44 c-282 -1748 -457 -2719 -569 -3147 -74 -286 -106 -567 -70 -626 71 -113 -156 -1598 -258 -1695 -132 -125 68 2532 201 2687 128 147 183 520 326 2204 58 685 166 954 341 846 36 -23 50 -144 29 -269z m597 -260 c-34 -287 -86 -497 -117 -467 -67 67 -28 850 49 974 107 174 129 8 68 -507z m458 377 c-72 -44 -141 -297 -154 -562 -14 -265 -137 -909 -274 -1432 -432 -1644 -1089 -4898 -1374 -6800 -304 -2030 -388 -2238 -344 -850 34 1066 107 1708 451 4000 130 859 305 1753 410 2095 58 186 56 317 -6 355 -62 38 -24 448 101 1105 109 575 199 1056 199 1070 0 14 68 25 150 25 169 0 191 -133 63 -382 -113 -217 -213 -1659 -108 -1550 44 45 124 420 179 832 55 413 197 1043 316 1400 119 358 235 709 257 781 23 73 92 101 153 63 79 -49 73 -93 -19 -150z m-2129 -317 c190 -368 201 -1287 36 -3119 -54 -610 -125 -1535 -158 -2058 -32 -522 -168 -1645 -303 -2494 -247 -1555 -314 -2501 -191 -2699 41 -67 -51 -107 -251 -107 -261 0 -304 31 -248 175 38 96 109 557 158 1025 49 468 181 1368 294 2000 320 1794 640 5200 489 5200 -100 0 -178 -716 -240 -2200 -32 -742 -79 -1425 -107 -1517 -119 -400 -604 -3243 -693 -4058 -71 -660 -208 -779 -574 -500 -151 114 -153 207 -25 1049 77 509 167 1319 201 1800 79 1164 142 1542 246 1478 47 -29 138 274 202 673 64 399 134 770 157 825 87 214 -52 -1550 -194 -2450 -82 -522 -177 -1265 -211 -1650 -34 -385 -111 -869 -172 -1076 -109 -373 -37 -632 110 -393 43 69 155 675 249 1347 94 672 213 1515 265 1872 51 358 140 1145 197 1750 58 605 148 1505 201 2000 126 1177 125 2185 -1 2311 -110 110 -23 739 102 739 113 0 196 -389 198 -925 0 -261 46 -475 101 -475 117 0 122 646 10 1325 -43 261 -64 475 -47 475 18 0 107 -146 199 -323z m2392 -70 c-36 -59 -114 -107 -172 -107 -66 0 -59 57 20 152 137 166 260 129 152 -45z m354 -539 c-129 -129 -150 112 -34 399 65 161 78 155 109 -54 18 -130 -15 -285 -75 -345z m292 -268 c-112 -220 -229 -613 -260 -875 -32 -261 -141 -902 -243 -1425 -102 -522 -258 -1421 -347 -1996 -89 -576 -207 -1102 -263 -1170 -57 -68 -139 -362 -184 -654 -164 -1066 -322 -1735 -461 -1951 -78 -122 -142 -314 -142 -425 0 -112 -38 -204 -85 -204 -118 0 53 1019 185 1100 59 36 77 144 40 239 -94 246 178 1974 320 2029 65 25 96 129 69 232 -27 103 21 404 107 669 270 833 636 3199 580 3751 -15 149 45 396 135 550 153 266 153 191 -2 -195 -152 -379 124 -148 330 275 120 248 265 450 322 450 57 0 11 -180 -101 -400z m-838 -259 c-96 -284 -137 -614 -102 -833 73 -457 -156 -1849 -603 -3658 -190 -770 -442 -2075 -561 -2900 -285 -1987 -276 -1950 -459 -1950 -128 0 -147 74 -100 375 33 206 102 825 154 1375 114 1213 835 5148 1117 6100 510 1720 620 2055 664 2011 28 -27 -22 -262 -110 -520z m1472 192 c36 -37 2 -138 -76 -225 -205 -226 -645 -1485 -592 -1690 25 -95 -44 -374 -153 -620 -110 -246 -202 -380 -206 -298 -11 241 287 1627 408 1900 136 304 248 592 323 825 58 181 179 225 296 108z m466 -545 c0 -49 -114 -88 -254 -88 -225 0 -241 23 -143 206 89 166 140 183 254 88 79 -65 143 -158 143 -206z m-4842 -863 c-109 -1793 -239 -2084 -235 -525 3 1397 29 1600 199 1600 66 0 78 -377 36 -1075z m5142 536 c0 -77 -67 -166 -150 -197 -168 -65 -176 -48 -89 178 75 195 239 208 239 19z m-400 -3 c0 -23 -138 -440 -308 -925 -169 -486 -436 -1255 -594 -1709 -157 -455 -316 -1040 -352 -1300 -36 -261 -148 -811 -248 -1224 -101 -412 -207 -862 -235 -1000 -78 -375 35 873 131 1450 301 1799 538 2756 842 3394 184 388 392 852 462 1031 69 179 166 325 214 325 48 0 88 -19 88 -42z m-639 -497 c-83 -199 -176 -361 -207 -361 -31 0 11 163 95 362 83 199 151 387 151 417 0 30 25 29 56 -2 31 -30 -12 -218 -95 -416z m1439 282 c0 -32 -67 -125 -150 -207 -124 -125 -150 -126 -150 -10 0 77 30 171 67 207 81 82 233 88 233 10z m-567 -1000 c-59 -154 -77 -148 -150 50 -101 274 6 502 131 278 47 -84 56 -232 19 -328z m-5489 -718 c-28 -591 -64 -1199 -80 -1350 -16 -151 -37 -387 -46 -525 -10 -142 -80 -250 -161 -250 -78 0 -164 -79 -191 -175 -72 -258 24 1108 138 1975 94 715 266 1400 351 1400 22 0 17 -484 -11 -1075z m5904 664 c-38 -227 -176 -569 -306 -760 -130 -192 -264 -513 -297 -714 -132 -797 -381 -1797 -602 -2415 -351 -983 -318 -272 42 913 157 515 368 1245 468 1622 100 377 242 708 315 736 72 28 132 184 132 346 0 289 152 683 262 683 31 0 24 -185 -14 -411z m-836 -256 c-87 -150 -106 -155 -109 -25 -3 169 102 320 173 250 23 -24 -5 -125 -64 -225z m-300 -800 c-87 -150 -106 -155 -109 -25 -3 169 102 320 173 250 23 -24 -5 -125 -64 -225z m-5414 -843 c-58 -517 -168 -1502 -244 -2190 -189 -1708 -471 -3300 -584 -3300 -111 0 9 1300 133 1453 120 146 175 753 250 2747 45 1182 105 1782 188 1850 67 55 153 185 193 289 143 382 167 68 64 -849z m5302 125 c0 -341 -59 -553 -200 -715 -110 -127 -200 -178 -200 -114 0 155 323 1314 366 1314 19 0 34 -218 34 -485z m260 212 c-33 -33 -56 26 -52 131 5 117 28 141 60 61 29 -72 26 -159 -8 -192z m-3654 -1843 l-105 -334 49 338 c28 185 58 523 67 750 l18 412 38 -416 c21 -228 -10 -566 -67 -750z m-2506 816 c0 -55 -48 -100 -106 -100 -58 0 -78 45 -44 100 34 55 82 100 106 100 24 0 44 -45 44 -100z m-230 -1825 c-66 -1945 -231 -2997 -463 -2953 -104 20 -176 181 -212 479 -51 414 -60 425 -113 149 -31 -165 -54 218 -51 850 7 1156 134 2232 160 1350 7 -220 56 -468 109 -550 67 -104 97 87 98 622 2 590 54 880 222 1225 121 249 239 453 262 453 24 0 18 -731 -12 -1625z m5874 981 c-37 -201 -88 -345 -112 -321 -25 25 -14 209 24 409 37 201 88 345 112 321 25 -25 14 -209 -24 -409z m-4978 -581 c-28 -69 -50 -12 -50 125 0 138 22 194 50 125 28 -69 28 -181 0 -250z m3827 -622 c-53 -379 -164 -885 -245 -1124 -81 -240 -148 -704 -148 -1032 0 -331 -45 -597 -100 -597 -55 0 -100 64 -100 142 0 78 -45 156 -101 175 -65 22 -68 137 -6 333 51 165 214 818 360 1450 316 1361 339 1442 395 1386 24 -24 -1 -354 -55 -733z m-3835 -378 c-102 -1088 -268 -2013 -382 -2125 -88 -87 -54 577 64 1250 15 82 62 443 105 800 43 357 98 684 122 725 124 209 152 6 91 -650z m-1968 -850 c-26 -1115 -122 -1625 -304 -1625 -45 0 -53 503 -17 1117 59 1042 52 1112 -113 1049 -127 -49 -96 30 108 276 157 189 301 347 320 351 19 4 22 -522 6 -1168z m3570 902 c-33 -33 -56 26 -52 131 5 117 28 141 60 61 29 -72 26 -159 -8 -192z m3133 148 c-4 -69 -46 -215 -93 -325 -69 -160 -87 -166 -93 -33 -4 91 -60 184 -125 206 -154 51 -12 277 174 277 79 0 141 -56 137 -125z m-3145 -991 c-86 -930 -233 -1328 -242 -653 -6 459 168 1369 262 1369 25 0 16 -322 -20 -716z m2403 22 c-38 -278 -116 -506 -172 -506 -61 0 -73 91 -30 225 39 124 95 374 123 555 28 182 73 308 100 282 27 -27 17 -277 -21 -556z m447 219 c0 -151 -45 -343 -98 -425 -71 -110 -97 -36 -98 275 -1 234 43 425 98 425 55 0 99 -124 98 -275z m-7098 -181 c0 -86 -45 -128 -100 -94 -55 34 -100 104 -100 156 0 52 45 94 100 94 55 0 100 -70 100 -156z m102 -1490 c-179 -470 -206 -235 -76 653 l124 843 29 -607 c16 -334 -19 -734 -77 -889z m-559 665 c-31 -203 -68 -446 -80 -541 -35 -257 -163 -342 -163 -109 0 458 132 1123 213 1073 48 -30 62 -220 30 -423z m381 231 c-26 -137 -65 -250 -86 -250 -21 0 -38 113 -38 250 0 138 39 250 86 250 48 0 65 -112 38 -250z m-878 -691 c-45 -300 -118 -459 -212 -459 -111 0 -128 85 -75 375 66 369 228 672 313 587 24 -24 12 -250 -26 -503z m1900 -366 c-86 -139 -146 -113 -146 63 0 86 46 128 102 93 56 -35 75 -105 44 -156z m5100 -286 c74 -120 -27 -179 -387 -222 -320 -38 -481 170 -190 245 314 81 517 73 577 -23z m-246 -593 c0 -48 -112 -65 -250 -38 -137 26 -250 65 -250 86 0 21 113 38 250 38 138 0 250 -39 250 -86z m-2275 -6354 c380 -176 132 -261 -800 -272 -536 -6 -1020 3 -1075 21 -174 56 -777 33 -1450 -57 -933 -125 -1526 -120 -1571 12 -25 76 235 139 776 186 448 40 922 101 1054 136 344 92 2858 70 3066 -26z m-1025 -760 c0 -55 -11 -104 -25 -109 -115 -40 -2008 -204 -2725 -236 -815 -36 -848 -31 -350 55 302 52 865 156 1250 231 846 166 1850 197 1850 59z m1176 -25 c-23 -69 -195 -135 -384 -146 l-342 -22 300 142 c377 178 478 184 426 26z m-1252 -1097 c-124 -60 -214 -171 -200 -246 17 -90 -251 -235 -774 -419 -1079 -380 -2174 -889 -2319 -1080 -95 -124 -197 -137 -500 -64 l-381 91 660 370 c362 203 703 370 757 370 54 0 375 113 714 250 338 138 770 250 959 250 386 0 660 83 660 199 0 111 -1254 -152 -1868 -391 -355 -138 -529 -166 -555 -88 -24 72 -307 109 -783 102 l-744 -12 1100 230 c605 126 1420 261 1810 299 390 39 840 109 1000 157 159 48 380 88 490 89 184 1 182 -7 -26 -107z m476 -178 c-82 -53 -240 -97 -350 -97 -166 0 -174 17 -50 97 83 53 240 97 350 97 166 0 174 -17 50 -97z m319 -668 c-72 -29 -159 -26 -192 8 -33 33 26 56 131 52 117 -5 141 -28 61 -60z m-869 -432 c-34 -55 -82 -100 -106 -100 -24 0 -44 45 -44 100 0 55 48 100 106 100 58 0 78 -45 44 -100z m443 -342 c97 -117 82 -133 -87 -88 -113 29 -206 93 -206 142 0 135 161 105 293 -54z m-2945 -572 c359 -118 652 -253 652 -300 0 -108 -45 -108 -488 9 -199 53 -486 121 -637 152 -151 31 -275 123 -275 205 0 186 -28 189 748 -66z"/>
<path d="M7850 48100 c34 -55 107 -100 162 -100 55 0 72 45 38 100 -34 55 -107 100 -162 100 -55 0 -72 -45 -38 -100z"/>
<path d="M3267 14533 c-104 -103 -79 -433 33 -433 55 0 100 113 100 250 0 262 -23 294 -133 183z"/>
<path d="M15000 52406 c0 -52 45 -122 100 -156 55 -34 100 -209 100 -389 0 -443 92 -504 368 -244 152 143 232 332 232 550 0 448 -272 455 -328 8 l-40 -325 -16 325 c-12 253 -60 325 -216 325 -110 0 -200 -42 -200 -94z"/>
<path d="M19462 50925 c-257 -2362 -562 -4685 -724 -5511 -109 -556 -116 -770 -30 -874 137 -165 47 -899 -181 -1468 -102 -256 -121 -418 -54 -485 66 -66 151 61 254 382 248 776 295 1107 292 2039 -3 1068 300 3362 435 3292 53 -27 96 -286 96 -575 0 -289 29 -525 63 -525 100 0 229 1284 201 2000 -14 358 66 1190 179 1850 234 1364 241 1450 117 1450 -49 0 -111 -191 -136 -425 -26 -234 -121 -918 -213 -1521 -92 -602 -144 -1154 -117 -1226 59 -153 -123 -682 -207 -599 -31 32 12 589 97 1239 238 1840 291 2532 191 2532 -50 0 -168 -709 -263 -1575z"/>
<path d="M20295 52375 c-3 -69 -49 -1295 -102 -2725 -139 -3732 -387 -7346 -583 -8473 -54 -315 -192 -783 -306 -1040 -113 -258 -183 -492 -154 -521 105 -105 235 146 431 834 308 1080 290 932 515 4200 336 4870 452 7850 305 7850 -55 0 -103 -56 -106 -125z"/>
<path d="M24072 52432 c-134 -229 538 -4541 815 -5232 l100 -250 7 255 c3 140 -82 657 -189 1150 -213 979 -462 2559 -549 3487 -57 603 -99 735 -184 590z"/>
<path d="M24747 51675 c132 -1530 241 -1727 221 -401 -14 960 -48 1225 -155 1225 -110 1 -123 -158 -66 -824z"/>
<path d="M12562 51417 c-44 -127 -54 -259 -21 -291 104 -104 176 49 138 290 l-36 234 -81 -233z"/>
<path d="M1126 50695 c-171 -300 -339 -680 -373 -845 -43 -205 36 -110 248 297 172 329 358 654 415 722 57 68 84 180 62 247 -23 68 -181 -122 -352 -421z"/>
<path d="M1549 50540 c-85 -214 -201 -473 -258 -575 -89 -157 -53 -378 41 -257 117 150 472 1122 426 1167 -30 31 -125 -120 -209 -335z"/>
<path d="M13550 50300 c-38 -118 -46 -238 -18 -265 27 -28 80 47 118 165 38 118 46 238 18 265 -27 28 -80 -47 -118 -165z"/>
<path d="M1816 50045 c-184 -405 -133 -523 84 -195 215 325 247 450 116 450 -46 0 -136 -115 -200 -255z"/>
<path d="M13902 49875 c1 -182 20 -196 98 -75 125 194 125 300 0 300 -55 0 -99 -101 -98 -225z"/>
<path d="M14500 49250 c0 -82 18 -150 39 -150 22 0 66 68 97 150 32 83 14 150 -39 150 -53 0 -97 -67 -97 -150z"/>
<path d="M15225 49297 c-124 -50 -225 -137 -225 -194 0 -143 48 -132 423 97 332 202 212 262 -198 97z"/>
<path d="M24777 45943 c-32 -51 2 -228 75 -393 99 -226 132 -250 133 -100 1 276 -138 607 -208 493z"/>
<path d="M22967 44533 c-110 -109 -71 -1301 84 -2583 168 -1391 184 -2905 38 -3550 -203 -898 -213 -1000 -100 -1000 61 0 111 34 111 75 0 41 70 411 156 821 188 902 211 2189 57 3204 -63 413 -125 1278 -139 1924 -23 1114 -51 1266 -207 1109z"/>
<path d="M24858 42313 c-43 -69 -51 -153 -18 -186 89 -90 187 42 139 187 -34 101 -58 101 -121 -1z"/>
<path d="M23638 39175 c6 -399 -23 -849 -65 -1000 -45 -161 -37 -275 18 -275 152 0 334 1084 262 1562 -102 684 -229 515 -215 -287z"/>
<path d="M9800 37500 c-73 -136 -74 -200 -4 -200 57 0 104 45 104 100 0 55 46 100 102 100 60 0 76 -114 39 -275 l-63 -275 167 226 c149 200 151 243 18 375 -194 194 -235 188 -363 -51z"/>
<path d="M5756 37429 c-54 -142 -42 -154 56 -56 69 68 99 149 69 180 -31 30 -87 -25 -125 -124z"/>
<path d="M15116 37345 c-64 -140 -116 -314 -116 -387 0 -211 492 -160 611 63 143 267 7 376 -168 136 -208 -284 -288 -118 -89 184 141 216 145 259 24 259 -80 0 -198 -115 -262 -255z"/>
<path d="M11638 37255 c-124 -324 232 -482 462 -205 102 123 94 150 -44 150 -92 0 -140 45 -106 100 34 55 -10 100 -97 100 -88 0 -184 -65 -215 -145z"/>
<path d="M10205 36605 c-125 -79 -126 -128 -7 -351 152 -284 266 -234 318 137 38 267 -90 354 -311 214z"/>
<path d="M24619 36223 c-233 -542 -284 -875 -119 -773 55 34 100 151 100 261 0 109 70 335 156 501 86 166 140 351 120 411 -21 61 -136 -119 -257 -400z"/>
<path d="M0 33150 c0 -89 92 -150 225 -151 312 -1 1207 -432 1794 -863 443 -325 693 -398 545 -159 -111 179 -1423 991 -1867 1155 -559 207 -697 210 -697 18z"/>
<path d="M23390 33150 c-8 -55 -4 -145 8 -200 11 -55 56 -392 98 -750 l78 -650 11 700 c7 385 -32 768 -85 850 -53 83 -103 105 -110 50z"/>
<path d="M50 32600 c34 -55 127 -100 206 -100 79 0 144 45 144 100 0 55 -93 100 -206 100 -113 0 -178 -45 -144 -100z"/>
<path d="M0 31759 c0 -191 41 -230 200 -188 230 60 250 139 80 309 -185 185 -280 144 -280 -121z"/>
<path d="M11050 31900 c-87 -141 29 -800 141 -800 80 0 53 789 -29 872 -23 23 -73 -10 -112 -72z"/>
<path d="M1265 28575 c35 -509 82 -946 104 -972 88 -100 223 259 187 497 -21 138 -68 509 -104 825 -109 943 -256 667 -187 -350z"/>
<path d="M14070 29136 c-38 -37 -13 -134 55 -216 104 -126 90 -138 -92 -80 -119 37 -239 30 -268 -16 -98 -158 108 -341 346 -308 190 27 239 94 239 326 0 283 -142 432 -280 294z"/>
<path d="M21062 27346 c-96 -251 -68 -316 50 -113 59 100 85 203 60 229 -26 26 -75 -26 -110 -116z"/>
<path d="M21419 27300 c-414 -961 -517 -1238 -431 -1150 185 189 626 1157 582 1279 -24 67 -91 10 -151 -129z"/>
<path d="M20466 26955 c-37 -97 -8 -126 89 -89 158 60 199 234 56 234 -49 0 -115 -65 -145 -145z"/>
<path d="M20804 26770 c-389 -618 -516 -870 -439 -870 95 0 676 992 616 1052 -21 22 -101 -60 -177 -182z"/>
<path d="M21583 26400 c-92 -219 -130 -421 -85 -449 45 -28 127 73 182 224 55 151 131 354 170 450 39 96 33 175 -14 174 -47 -1 -161 -180 -253 -399z"/>
<path d="M20196 26484 c-114 -224 -111 -226 61 -61 100 95 154 200 120 233 -33 34 -115 -44 -181 -172z"/>
<path d="M20767 25933 c-97 -97 -82 -333 21 -333 49 0 112 90 141 200 51 197 -31 264 -162 133z"/>
<path d="M447 25575 c40 -179 134 -752 210 -1275 l137 -950 -44 950 c-50 1107 -135 1600 -275 1600 -61 0 -72 -127 -28 -325z"/>
<path d="M19944 25431 c-30 -99 -145 -354 -257 -565 -112 -211 -179 -407 -150 -436 54 -54 663 849 663 984 0 170 -206 184 -256 17z"/>
<path d="M18702 22952 c-79 -95 -86 -152 -20 -152 121 0 262 190 192 259 -25 25 -102 -23 -172 -107z"/>
<path d="M3100 22612 c0 -49 -90 -112 -200 -141 -257 -67 -256 -234 3 -373 160 -85 252 -69 438 77 198 156 216 212 111 355 -131 180 -352 231 -352 82z"/>
<path d="M12200 22156 c0 -176 60 -202 146 -63 31 51 12 121 -44 156 -56 35 -102 -7 -102 -93z"/>
<path d="M14400 20893 c0 -143 54 -197 174 -174 261 50 290 381 33 381 -143 0 -207 -64 -207 -207z"/>
<path d="M14950 21000 c-34 -55 -14 -100 44 -100 58 0 106 45 106 100 0 55 -20 100 -44 100 -24 0 -72 -45 -106 -100z"/>
<path d="M13200 18000 c-70 -169 -104 -329 -77 -356 28 -28 107 87 177 256 70 169 104 329 77 356 -28 28 -107 -87 -177 -256z"/>
<path d="M12117 17731 c-64 -120 -115 -300 -113 -399 3 -135 43 -109 156 99 84 155 135 334 113 400 -23 68 -89 26 -156 -100z"/>
<path d="M13374 17200 c-97 -330 -220 -600 -273 -600 -131 0 -399 -537 -409 -820 -7 -209 -21 -202 -142 70 -121 271 -140 280 -198 100 -35 -110 -197 -482 -358 -827 -302 -644 -363 -877 -203 -778 89 55 420 713 550 1097 50 147 93 164 184 73 90 -90 90 -193 0 -441 l-118 -324 251 300 c369 440 481 659 303 590 -120 -46 -127 11 -40 353 57 224 157 407 223 407 65 0 218 281 339 625 238 679 256 775 142 775 -41 0 -154 -270 -251 -600z"/>
<path d="M13900 17375 c0 -14 -112 -336 -250 -715 -235 -648 -321 -1064 -193 -937 117 118 608 1677 527 1677 -46 0 -84 -11 -84 -25z"/>
<path d="M12299 17175 c-1 -153 -482 -1200 -585 -1273 -136 -96 -504 -1102 -403 -1102 55 0 208 245 341 545 132 299 331 592 441 651 118 63 176 168 142 256 -31 82 16 329 104 550 189 472 192 498 61 498 -55 0 -100 -56 -101 -125z"/>
<path d="M12668 16745 c-191 -399 -200 -445 -88 -445 90 0 361 692 297 756 -23 23 -117 -117 -209 -311z"/>
<path d="M14408 16815 c-59 -111 -106 -261 -104 -333 2 -73 73 -4 158 152 84 156 131 306 104 333 -27 28 -98 -41 -158 -152z"/>
<path d="M11600 16790 c0 -60 -157 -441 -350 -847 -390 -822 -417 -923 -200 -743 83 68 150 160 150 203 0 43 158 356 350 697 390 690 418 800 200 800 -82 0 -150 -49 -150 -110z"/>
<path d="M19997 16495 c-60 -113 -93 -282 -73 -375 27 -127 79 -89 206 150 196 369 206 430 74 430 -54 0 -146 -92 -207 -205z"/>
<path d="M10917 16305 c-62 -178 -68 -305 -14 -305 104 0 250 480 171 560 -28 28 -99 -87 -157 -255z"/>
<path d="M19428 16307 c-67 -106 -244 -207 -394 -225 -224 -26 -310 -124 -478 -540 -114 -279 -318 -648 -456 -819 -137 -172 -586 -769 -997 -1327 -411 -558 -763 -965 -783 -905 -71 212 -200 104 -362 -301 -136 -338 -189 -389 -308 -290 -126 104 -125 166 3 472 192 460 186 494 -51 280 -108 -98 -173 -218 -144 -265 30 -48 -16 -87 -102 -87 -86 0 -156 68 -156 150 0 83 -89 150 -200 150 -277 0 -258 -327 25 -452 259 -115 256 -425 -7 -628 -142 -110 -173 -104 -203 38 -19 92 21 202 88 244 67 42 92 126 54 187 -94 152 -257 140 -257 -20 0 -72 -113 -419 -251 -772 -280 -715 -282 -1057 -3 -468 99 208 199 359 222 336 82 -82 -342 -1174 -502 -1293 -192 -144 -366 -846 -182 -732 64 40 116 131 116 204 0 72 71 190 158 262 113 95 94 0 -70 -337 -137 -283 -255 -422 -298 -352 -72 116 -288 -509 -289 -834 -1 -165 -576 -1685 -674 -1783 -28 -27 -18 102 22 288 50 234 39 316 -37 269 -67 -41 -88 -12 -55 75 33 86 -23 162 -143 193 -129 34 -211 -5 -237 -112 -47 -194 162 -641 256 -546 80 79 -219 -950 -344 -1185 -113 -213 -112 -282 1 -282 50 0 137 135 195 300 58 165 128 300 157 300 86 0 -66 -647 -160 -684 -88 -35 -382 -552 -382 -672 0 -36 73 -37 162 -3 167 64 164 -36 -16 -616 -56 -183 -31 -225 136 -225 215 0 264 98 376 750 38 220 200 732 360 1138 278 707 360 1283 89 629 -72 -174 -175 -317 -227 -317 -53 0 -82 34 -63 76 18 43 168 412 332 822 165 410 314 670 332 579 17 -92 -20 -263 -83 -380 -63 -118 -90 -239 -60 -268 30 -30 105 75 167 233 61 158 176 415 253 571 165 328 187 607 42 517 -230 -142 -69 397 381 1272 550 1071 1103 1914 1594 2432 69 72 125 158 125 190 0 32 121 194 270 360 148 167 452 567 675 889 575 833 1539 2096 1913 2507 456 501 873 1200 717 1200 -70 0 -181 -87 -247 -193z m-3968 -4880 c-33 -33 -56 26 -52 131 5 117 28 141 60 61 29 -72 26 -159 -8 -192z m-331 -427 c-29 -110 -117 -200 -197 -200 -79 0 -126 34 -103 75 22 41 69 157 105 256 86 242 262 124 195 -131z m-2569 -6673 c-33 -33 -56 26 -52 131 5 117 28 141 60 61 29 -72 26 -159 -8 -192z"/>
<path d="M14804 16030 c-437 -757 -490 -895 -306 -781 113 69 611 1075 559 1127 -19 19 -133 -137 -253 -346z"/>
<path d="M14150 16200 c-34 -55 -14 -100 44 -100 58 0 106 45 106 100 0 55 -20 100 -44 100 -24 0 -72 -45 -106 -100z"/>
<path d="M15306 15837 c-118 -199 -190 -387 -160 -416 30 -30 65 -36 79 -13 14 23 127 186 250 363 246 352 271 429 135 429 -50 0 -187 -163 -304 -363z"/>
<path d="M13618 15678 c-141 -141 -156 -378 -25 -378 99 0 254 386 184 456 -22 22 -94 -13 -159 -78z"/>
<path d="M17660 15611 c-179 -627 -174 -662 47 -330 153 229 188 364 117 435 -72 72 -123 39 -164 -105z"/>
<path d="M18159 15714 c-29 -47 -98 -204 -154 -350 -148 -389 31 -321 225 86 92 193 125 350 74 350 -51 0 -116 -39 -145 -86z"/>
<path d="M10673 15640 c-40 -41 -73 -142 -73 -227 0 -112 30 -123 111 -42 61 61 94 163 73 227 -21 63 -71 82 -111 42z"/>
<path d="M17110 15318 c-289 -564 -224 -756 75 -223 127 225 211 465 188 532 -23 68 -141 -72 -263 -309z"/>
<path d="M16154 15507 c-31 -51 -12 -121 44 -156 56 -35 102 7 102 93 0 176 -60 202 -146 63z"/>
<path d="M12969 14979 c-248 -593 -301 -811 -180 -736 61 38 111 128 111 199 0 72 96 253 213 402 150 190 181 302 107 376 -75 75 -149 4 -251 -241z"/>
<path d="M16367 15233 c-37 -36 -67 -113 -67 -170 0 -62 47 -56 118 15 65 65 95 142 67 170 -28 29 -82 22 -118 -15z"/>
<path d="M13750 15100 c-34 -55 -14 -100 44 -100 58 0 106 45 106 100 0 55 -20 100 -44 100 -24 0 -72 -45 -106 -100z"/>
<path d="M9932 14731 c-254 -375 -678 -1318 -619 -1377 26 -26 236 319 467 766 425 823 500 1125 152 611z"/>
<path d="M14867 14933 c-37 -36 -66 -138 -64 -225 3 -130 22 -125 109 25 108 185 77 322 -45 200z"/>
<path d="M15720 14880 c-138 -138 -164 -419 -32 -337 75 46 231 457 173 457 -12 0 -75 -54 -141 -120z"/>
<path d="M13321 14449 c-162 -605 -157 -703 29 -549 82 68 150 200 150 292 0 93 46 214 103 271 105 105 34 437 -93 437 -38 0 -123 -203 -189 -451z"/>
<path d="M12145 14355 c-86 -207 -134 -399 -107 -427 28 -27 121 120 207 327 87 206 135 398 108 426 -28 27 -121 -120 -208 -326z"/>
<path d="M10767 14233 c-37 -36 -67 -113 -67 -170 0 -62 47 -56 118 15 65 65 95 142 67 170 -28 29 -82 22 -118 -15z"/>
<path d="M13482 13701 c-145 -330 -226 -624 -178 -653 99 -62 239 180 334 577 76 317 222 359 308 89 66 -209 -14 -490 -203 -714 -166 -195 -291 -700 -174 -700 50 0 149 160 220 357 71 196 192 380 270 410 77 30 141 131 141 224 0 93 54 223 120 289 93 93 82 120 -50 120 -122 0 -170 84 -170 300 0 220 -47 300 -176 300 -120 0 -262 -194 -442 -599z"/>
<path d="M15100 14200 c0 -55 20 -100 44 -100 24 0 72 45 106 100 34 55 14 100 -44 100 -58 0 -106 -45 -106 -100z"/>
<path d="M11362 13846 c-34 -89 -59 -215 -56 -279 4 -64 50 -9 102 123 53 131 78 257 57 279 -22 22 -68 -33 -103 -123z"/>
<path d="M10500 13506 c0 -58 45 -106 100 -106 55 0 100 20 100 44 0 24 -45 72 -100 106 -55 34 -100 14 -100 -44z"/>
<path d="M9700 13344 c0 -86 45 -128 100 -94 55 34 100 104 100 156 0 52 -45 94 -100 94 -55 0 -100 -70 -100 -156z"/>
<path d="M14375 13179 c-192 -196 -235 -479 -73 -479 105 0 327 479 276 594 -15 36 -107 -16 -203 -115z"/>
<path d="M14700 13000 c0 -55 45 -100 100 -100 55 0 100 45 100 100 0 55 -45 100 -100 100 -55 0 -100 -45 -100 -100z"/>
<path d="M15161 12942 c-38 -98 -15 -143 58 -119 149 50 231 277 100 277 -54 0 -125 -71 -158 -158z"/>
<path d="M8804 12550 c-297 -674 -504 -1283 -454 -1333 23 -23 118 133 213 346 94 213 257 578 362 811 106 234 171 481 146 550 -26 69 -146 -99 -267 -374z"/>
<path d="M9272 12486 c-232 -558 -297 -911 -160 -865 66 22 131 113 145 203 13 90 77 327 143 527 155 468 55 574 -128 135z"/>
<path d="M13100 12706 c0 -58 45 -106 100 -106 55 0 100 20 100 44 0 24 -45 72 -100 106 -55 34 -100 14 -100 -44z"/>
<path d="M14400 12006 c0 -58 45 -106 100 -106 55 0 100 20 100 44 0 24 -45 72 -100 106 -55 34 -100 14 -100 -44z"/>
<path d="M14131 11277 c-64 -140 -76 -304 -29 -381 62 -100 102 -65 151 130 94 375 11 545 -122 251z"/>
<path d="M8646 11293 c-36 -58 -42 -130 -13 -160 72 -71 267 55 267 173 0 128 -173 119 -254 -13z"/>
<path d="M8056 10907 c-169 -187 -856 -2203 -854 -2507 2 -278 175 100 457 999 147 468 325 919 396 1001 131 152 304 700 221 700 -25 0 -124 -87 -220 -193z"/>
<path d="M4883 10911 c-672 -61 -930 -161 -672 -260 240 -92 3039 91 3039 199 0 116 -1377 152 -2367 61z"/>
<path d="M8407 10713 c-55 -103 -72 -215 -38 -249 88 -87 331 132 331 298 0 199 -176 170 -293 -49z"/>
<path d="M8100 9494 c0 -113 45 -178 100 -144 55 34 100 127 100 206 0 79 -45 144 -100 144 -55 0 -100 -93 -100 -206z"/>
<path d="M14473 8604 c-208 -403 -354 -756 -325 -785 66 -66 59 -76 443 606 178 316 309 651 291 743 -19 100 -187 -132 -409 -564z"/>
<path d="M5367 8633 c-67 -66 -2819 -144 -4492 -128 -481 5 -875 -29 -875 -76 0 -47 304 -141 675 -209 564 -104 767 -100 1237 23 430 113 1032 140 2575 113 1107 -18 2013 -3 2013 34 0 38 -203 123 -451 189 -522 140 -591 145 -682 54z"/>
<path d="M12337 8352 c-84 -220 8 -288 154 -113 81 98 86 164 13 208 -58 36 -133 -7 -167 -95z"/>
<path d="M12500 7800 c0 -110 17 -200 38 -200 21 0 62 90 91 200 29 110 11 200 -38 200 -50 0 -91 -90 -91 -200z"/>
<path d="M7050 7800 c-34 -55 -14 -100 44 -100 58 0 106 45 106 100 0 55 -20 100 -44 100 -24 0 -72 -45 -106 -100z"/>
<path d="M24650 7258 c-165 -208 -372 -457 -460 -554 -89 -96 -226 -305 -307 -464 -680 -1350 -1245 -2199 -1838 -2765 -244 -234 -444 -500 -445 -592 0 -92 -225 -413 -500 -714 -275 -301 -500 -591 -500 -645 0 -151 -647 -221 -1488 -162 -419 30 -1258 -8 -1865 -84 -607 -77 -1237 -107 -1400 -68 -452 108 -2575 178 -2479 82 226 -226 4103 -345 4441 -136 56 34 471 52 922 39 1297 -38 1694 -2 1965 180 755 506 935 558 2054 590 605 17 1224 47 1375 66 151 19 410 42 575 52 165 9 300 62 300 116 0 62 -254 77 -675 40 -1273 -114 -2825 -98 -2825 29 0 140 560 438 652 346 86 -85 2848 -88 2848 -3 0 126 -450 180 -1645 196 -1045 14 -1172 34 -1006 155 104 76 237 142 295 147 403 36 1486 0 1881 -62 402 -63 475 -49 475 88 0 105 -80 160 -225 154 -457 -17 -2208 111 -2263 165 -31 31 10 98 91 148 91 57 160 54 180 -5 45 -131 2217 -128 2217 3 0 57 -300 100 -700 100 -400 0 -700 43 -700 100 0 55 -169 101 -375 103 -309 3 -343 22 -196 107 98 58 582 110 1075 116 493 6 896 43 896 81 0 38 -296 101 -658 140 -362 39 -643 84 -625 101 18 17 303 56 633 87 330 31 611 59 625 61 14 2 25 92 25 199 0 174 -66 194 -595 179 -328 -9 -625 13 -660 48 -162 161 116 278 661 278 329 0 594 45 594 100 0 55 -225 100 -500 100 -395 0 -500 34 -500 163 0 135 85 154 500 114 377 -36 500 -14 500 88 0 83 -114 135 -300 135 -165 0 -300 49 -300 108 0 68 111 83 300 42 189 -41 300 -26 300 42 0 59 -56 109 -125 110 -96 1 -94 20 5 84 90 56 121 267 100 667 l-30 584 -300 -379z m-90 -831 c-33 -33 -56 26 -52 131 5 117 28 141 60 61 29 -72 26 -159 -8 -192z m-614 -1734 c-72 -116 -546 -124 -546 -8 0 46 136 88 302 93 166 5 276 -33 244 -85z"/>
<path d="M12600 7406 c0 -52 45 -122 100 -156 55 -34 100 8 100 94 0 86 -45 156 -100 156 -55 0 -100 -42 -100 -94z"/>
<path d="M6769 7036 c-35 -35 -39 -103 -9 -152 64 -103 240 -14 240 122 0 107 -136 125 -231 30z"/>
<path d="M6600 6094 c0 -113 43 -179 96 -147 52 33 70 125 39 206 -79 207 -135 183 -135 -59z"/>
<path d="M6681 3150 c-46 -394 59 -345 158 75 36 151 24 275 -26 275 -50 0 -110 -157 -132 -350z"/>
<path d="M12695 2929 l-130 -479 -58 350 c-44 263 -81 314 -151 205 -51 -80 -102 -237 -114 -350 -12 -113 -54 -306 -93 -430 -55 -170 -33 -225 89 -225 89 0 162 -54 162 -120 0 -290 185 122 340 757 191 781 154 1022 -45 292z m-235 -802 c-33 -33 -56 26 -52 131 5 117 28 141 60 61 29 -72 26 -159 -8 -192z"/>
<path d="M11952 2708 c-79 -250 -252 -276 -252 -38 0 320 -216 -31 -251 -408 -38 -408 85 -542 319 -347 141 117 133 138 -80 194 l-238 63 266 108 c247 100 468 469 352 585 -27 28 -79 -43 -116 -157z"/>
<path d="M13008 2658 c-4 -105 19 -164 52 -131 34 33 37 120 8 192 -32 80 -55 56 -60 -61z"/>
<path d="M113 2610 c-76 -48 -121 -134 -100 -191 21 -59 138 -22 273 89 235 191 97 273 -173 102z"/>
<path d="M9357 1911 c-107 -42 -152 -99 -100 -126 154 -83 490 -42 536 65 55 127 -185 161 -436 61z"/>
<path d="M10644 1847 c-188 -148 -186 -152 48 -125 133 15 261 84 284 153 56 170 -97 157 -332 -28z"/>
<path d="M23957 1711 c-87 -140 158 -278 618 -349 263 -40 425 -26 425 37 0 55 -117 101 -261 101 -190 0 -245 40 -203 150 43 112 -16 150 -233 150 -160 0 -316 -40 -346 -89z"/>
<path d="M22600 1596 c-192 -46 -530 -115 -750 -153 -220 -38 -353 -86 -296 -107 111 -41 1026 93 1696 248 l400 93 -350 1 c-192 1 -507 -36 -700 -82z"/>
<path d="M10395 1444 c-103 -125 -258 -144 -762 -95 -764 74 -860 -93 -108 -187 289 -36 676 -93 861 -127 308 -56 330 -43 268 152 -50 158 -25 213 95 213 90 0 135 45 101 100 -91 148 -308 121 -455 -56z"/>
<path d="M0 1200 c0 -171 67 -200 456 -200 278 0 432 39 394 100 -34 55 -169 100 -300 100 -131 0 -266 45 -300 100 -105 169 -250 111 -250 -100z"/>
<path d="M6800 1308 c0 -50 270 -93 600 -95 330 -1 600 40 600 92 0 52 -270 95 -600 95 -330 0 -600 -41 -600 -92z"/>
<path d="M11000 1300 c0 -55 90 -100 200 -100 110 0 200 45 200 100 0 55 -90 100 -200 100 -110 0 -200 -45 -200 -100z"/>
<path d="M20950 1300 c34 -55 104 -100 156 -100 52 0 94 45 94 100 0 55 -70 100 -156 100 -86 0 -128 -45 -94 -100z"/>
<path d="M11630 1134 c-110 -288 322 -534 937 -534 299 0 739 -49 976 -109 237 -59 538 -91 669 -71 395 63 -812 380 -1444 380 -680 0 -868 67 -868 311 0 233 -183 249 -270 23z"/>
<path d="M23073 1034 c68 -27 203 -29 300 -3 97 25 42 47 -123 50 -165 2 -245 -19 -177 -47z"/>
<path d="M22200 850 c-104 -125 -91 -150 76 -150 110 0 256 68 324 150 104 125 91 150 -76 150 -110 0 -256 -68 -324 -150z"/>
<path d="M23841 886 c-29 -47 -211 -86 -405 -86 -240 0 -338 -40 -307 -125 25 -69 108 -108 184 -88 75 21 467 51 870 67 668 27 920 84 809 183 -95 85 -1102 127 -1151 49z"/>
<path d="M13900 856 c0 -106 192 -150 249 -58 35 56 -7 102 -93 102 -86 0 -156 -20 -156 -44z"/>
<path d="M14400 804 c82 -55 375 -106 650 -111 275 -6 725 -46 1000 -88 l500 -78 -400 -21 c-220 -11 -490 -61 -600 -112 -137 -62 86 -87 700 -76 495 8 968 -11 1050 -42 408 -155 541 -162 1026 -59 288 61 674 105 858 96 183 -8 386 20 450 61 64 42 229 82 366 89 934 50 1900 180 1900 255 0 49 -214 61 -475 28 -261 -34 -722 -78 -1025 -99 -302 -20 -842 -83 -1200 -140 -1361 -214 -1488 -224 -1667 -123 -169 95 -164 110 67 203 218 87 185 101 -255 107 -278 3 -562 -50 -632 -119 -102 -100 -121 -99 -95 4 22 91 -132 141 -518 167 -302 20 -843 65 -1200 98 -454 43 -605 31 -500 -40z"/>
<path d="M18150 800 c-37 -59 74 -99 269 -98 251 1 295 25 181 98 -194 126 -372 126 -450 0z"/>
<path d="M334 669 c532 -345 537 -362 91 -366 -248 -2 -425 -50 -425 -116 0 -73 123 -93 350 -56 193 31 350 14 350 -37 0 -129 273 -119 354 13 82 132 -531 695 -747 687 -129 -5 -124 -27 27 -125z"/>
<path d="M9725 731 c96 -25 254 -25 350 0 96 25 18 46 -175 46 -192 0 -271 -21 -175 -46z"/>
<path d="M10750 600 c275 -101 658 -183 850 -181 347 3 346 4 -70 86 -232 46 -510 131 -619 189 -109 58 -302 103 -429 98 -157 -5 -69 -68 268 -192z"/>
<path d="M1900 258 c248 -70 495 -140 550 -155 55 -15 190 -18 300 -7 341 33 -452 289 -900 290 l-400 1 450 -129z"/>
<path d="M3847 95 c-36 -57 325 -95 914 -95 535 0 954 16 931 36 -105 91 -1792 145 -1845 59z"/>
<path d="M20700 75 c0 -41 878 -75 1950 -75 1073 0 1950 34 1950 75 0 41 -877 75 -1950 75 -1072 0 -1950 -34 -1950 -75z"/>
<path d="M12325 31 c96 -25 254 -25 350 0 96 25 18 46 -175 46 -192 0 -271 -21 -175 -46z"/>
</g>
</svg>