<svg xmlns="http://www.w3.org/2000/svg" version="1.0" width="250" height="525" viewBox="0 0 250.000000 525.000000" preserveAspectRatio="xMidYMid meet">
<metadata>
Created by potrace 1.10, written by Peter Selinger 2001-2011
</metadata>
<g transform="translate(0.000000,525.000000) scale(0.010000,-0.010000)" fill="#555555" stroke="none">
<path d="M56 42375 c31 -5569 71 -10243 90 -10387 43 -332 169 -21886 162 -27663 -5 -4042 6 -4325 168 -4325 164 0 173 466 160 8025 -14 8124 -119 22483 -188 25875 -20 1018 -39 4865 -42 8550 -4 7714 -68 10050 -271 10050 -113 0 -126 -1671 -79 -10125z"/>
<path d="M969 47975 c13 -2489 51 -6190 85 -8225 34 -2035 80 -11796 103 -21691 23 -9895 64 -18014 92 -18042 111 -110 186 108 200 582 18 624 119 743 200 236 125 -773 151 -835 353 -835 109 0 198 48 198 106 0 58 -52 74 -115 35 -79 -49 -96 3 -55 169 34 139 -2 322 -86 434 -79 107 -144 321 -144 475 0 231 43 281 244 281 135 0 371 -108 525 -241 l280 -241 -275 -254 c-387 -359 -342 -526 60 -219 184 140 384 255 445 255 456 0 -168 729 -781 912 -310 93 -424 91 -547 -11 -86 -71 -181 -105 -211 -75 -30 31 -74 823 -99 1761 l-44 1706 295 153 c542 280 642 137 566 -805 -64 -785 -56 -835 152 -946 168 -91 312 -90 619 2 363 109 418 100 610 -96 l211 -215 -346 -293 c-191 -161 -382 -293 -425 -293 -44 0 -79 -111 -79 -246 0 -205 71 -265 425 -359 659 -176 704 -220 846 -846 143 -631 355 -949 633 -949 372 0 392 879 37 1721 -286 679 -271 1077 53 1424 307 329 351 684 112 900 -320 289 -253 955 96 955 195 0 698 -535 698 -742 0 -254 377 -486 671 -412 316 79 629 328 629 500 0 64 63 201 139 306 229 313 461 29 461 -564 0 -692 -219 -888 -993 -888 -1086 0 -1429 -305 -1443 -1279 -9 -628 416 -2144 585 -2088 166 55 179 370 23 549 -209 241 -303 671 -313 1440 -11 837 102 969 900 1048 325 32 754 140 954 240 316 158 374 245 446 661 94 546 70 936 -66 1074 -152 155 -107 240 98 186 126 -33 230 22 304 160 142 265 372 269 455 9 72 -228 250 -258 439 -75 104 102 115 17 58 -454 -56 -454 -38 -616 83 -750 478 -530 177 -1222 -638 -1464 -1059 -314 -1389 -697 -1079 -1250 194 -347 473 -366 921 -61 582 395 966 296 966 -249 0 -255 -358 -697 -566 -697 -57 0 -184 -90 -284 -200 -265 -292 23 -267 478 41 375 255 472 243 472 -58 0 -100 34 -183 75 -183 41 0 72 895 69 1988 -5 1735 -28 2023 -184 2261 -149 227 -162 340 -76 679 100 392 91 418 -252 732 -279 256 -366 422 -406 780 -48 427 -34 462 229 562 154 58 403 79 553 46 151 -33 302 -12 338 46 96 154 351 130 416 -40 31 -80 -67 -407 -218 -725 -313 -661 -329 -1090 -68 -1794 124 -333 269 -526 476 -632 387 -198 445 -286 446 -678 2 -235 -95 -427 -348 -696 -490 -520 -457 -1085 103 -1751 136 -161 247 -402 247 -536 0 -148 58 -242 150 -242 284 0 176 570 -185 975 -184 206 -364 527 -400 713 -56 291 -18 390 279 719 595 658 594 1404 -1 1652 -447 187 -680 647 -687 1357 -5 437 46 636 219 871 149 202 225 446 225 722 l0 417 -400 -53 c-220 -30 -400 -25 -401 12 0 36 99 275 220 532 230 487 506 639 831 457 284 -159 545 -877 548 -1503 2 -482 -40 -625 -248 -849 -465 -502 -267 -1337 350 -1472 459 -101 600 -388 600 -1224 0 -681 -17 -738 -248 -843 -295 -134 -423 -635 -286 -1115 70 -245 154 -325 367 -350 294 -34 467 -321 467 -775 0 -133 45 -243 100 -243 133 0 127 592 -10 985 -88 254 -165 315 -395 315 -247 0 -295 47 -350 344 -85 449 -2 562 359 490 l296 -59 0 781 c0 430 -54 1042 -120 1361 -102 496 -96 627 44 920 89 188 136 443 104 566 -40 155 5 273 149 385 155 122 222 322 269 811 73 759 108 947 326 1751 196 722 283 850 578 850 256 0 385 -131 658 -667 228 -446 238 -713 39 -977 -180 -237 -193 -814 -22 -925 69 -45 258 -126 421 -181 189 -64 318 -191 358 -350 96 -392 -243 -1418 -642 -1941 -447 -585 -481 -1039 -112 -1477 309 -368 324 -830 48 -1437 -354 -777 -408 -973 -344 -1262 92 -420 246 -343 246 123 0 250 120 655 312 1054 260 539 301 718 245 1068 -37 231 -150 510 -251 621 -344 377 -330 575 84 1212 414 637 710 1467 710 1992 0 325 -251 646 -508 649 -363 3 -568 437 -345 732 123 164 177 170 487 58 299 -108 385 -102 600 39 138 90 266 266 284 392 44 314 302 284 464 -54 115 -240 113 -329 -16 -600 -83 -176 -222 -701 -310 -1169 -88 -467 -208 -1090 -267 -1383 -94 -468 -71 -735 51 -609 23 23 171 579 330 1235 281 1160 449 1479 558 1061 69 -265 553 -275 884 -19 131 101 405 211 608 243 405 63 410 58 537 -661 81 -457 361 -623 885 -525 502 94 446 258 -88 258 -486 0 -455 -46 -696 1025 -56 248 -104 275 -494 275 -317 0 -510 -67 -723 -250 -553 -475 -768 -304 -887 700 -84 721 -272 1050 -598 1050 -434 0 -556 -102 -556 -467 0 -319 -22 -344 -275 -315 -229 27 -339 155 -660 768 -243 463 -493 796 -675 900 -633 360 -220 630 887 580 781 -35 797 -41 1807 -701 578 -377 1267 -934 1593 -1286 847 -917 1344 -1379 1481 -1379 136 0 642 -456 642 -579 0 -57 -78 -241 -174 -409 -226 -393 -83 -579 307 -401 214 97 384 87 908 -55 715 -193 1029 -145 1159 178 64 158 91 43 100 -434 6 -357 20 -960 31 -1339 l19 -688 -290 -31 c-159 -17 -337 -79 -395 -137 -143 -143 -436 -132 -532 20 -43 69 -82 367 -86 663 -6 464 -46 571 -294 785 -228 196 -360 236 -631 192 -629 -102 -1201 -657 -1078 -1046 33 -105 231 -375 439 -601 209 -225 438 -536 510 -689 72 -153 174 -364 228 -467 146 -283 -10 -1580 -208 -1732 -140 -106 -117 -124 162 -127 263 -2 325 37 325 204 0 113 47 293 104 400 101 190 109 189 399 -25 162 -120 321 -300 353 -400 67 -211 344 -248 344 -45 0 75 -90 251 -201 391 l-200 255 259 309 c143 169 323 308 401 308 78 0 141 68 141 150 0 269 -372 158 -693 -207 -299 -341 -327 -351 -610 -226 -254 113 -297 187 -297 511 0 391 -429 1372 -600 1372 -54 0 -220 185 -370 412 l-272 411 323 289 c361 323 667 363 997 132 185 -129 222 -251 224 -725 0 -313 34 -617 75 -676 144 -211 432 -235 785 -67 352 168 362 167 548 -64 158 -194 189 -397 187 -1198 -2 -689 -45 -1019 -150 -1158 -211 -279 -187 -322 185 -336 l332 -13 -13 7472 c-9 5157 20 7494 93 7546 73 51 67 100 -17 154 -93 61 -137 1283 -182 5025 -33 2721 -59 5014 -56 5096 5 227 5 5249 -1 6050 -3 385 -5 2748 -6 5250 0 2503 -15 4730 -33 4950 -18 220 -48 2774 -66 5675 l-33 5275 -226 0 -227 0 55 -2475 c79 -3544 138 -9393 153 -15215 l14 -5040 -303 -238 c-334 -260 -334 -290 -10 -1169 233 -630 222 -1322 -23 -1474 -690 -425 -1186 -873 -1240 -1120 -74 -337 176 -669 502 -669 277 0 455 -182 455 -464 0 -292 -73 -329 -768 -391 -799 -72 -1193 -214 -1430 -516 -471 -598 -54 -990 1017 -957 583 17 709 -10 881 -195 117 -126 200 -353 200 -548 0 -504 -289 -596 -1415 -454 -1128 142 -1455 42 -1768 -544 -135 -252 -53 -777 147 -943 97 -80 386 -96 921 -51 950 79 1334 11 1664 -294 311 -289 344 -743 54 -743 -244 0 -864 -534 -1061 -915 -184 -357 -319 -363 -405 -17 -88 349 -593 1094 -795 1171 -492 189 -1325 -148 -1651 -668 -294 -471 -195 -926 307 -1403 372 -355 402 -423 402 -921 0 -604 -160 -1047 -377 -1047 -116 0 -132 93 -77 459 54 362 33 499 -104 650 -236 261 -702 240 -1217 -54 -234 -134 -425 -208 -425 -164 0 93 477 1008 611 1171 51 62 159 339 242 616 82 277 216 631 298 788 81 156 148 338 148 405 1 66 140 426 309 800 626 1378 692 1537 692 1673 0 76 162 514 360 972 404 934 734 1863 738 2074 1 77 96 397 210 711 165 452 285 615 575 778 763 430 1224 1033 1378 1800 47 235 11 329 -173 458 -128 90 -312 163 -410 163 -124 0 -178 77 -178 257 0 421 175 643 507 643 194 0 322 62 364 175 35 96 171 346 302 556 296 476 403 1712 191 2205 -75 172 -187 438 -248 590 -106 259 -141 273 -540 212 -234 -36 -502 -104 -594 -152 -93 -47 -186 -86 -208 -86 -21 0 -95 439 -164 975 -129 1005 -362 1868 -763 2825 -127 303 -284 694 -349 870 -65 176 -313 662 -551 1080 -238 418 -441 881 -451 1030 -40 614 14 922 191 1091 413 394 662 1225 413 1379 -206 127 -88 451 262 721 671 516 922 805 1025 1177 128 466 2 826 -307 869 -271 39 -361 389 -151 596 77 75 402 362 722 637 1136 976 1149 993 1149 1489 0 390 -43 487 -300 677 -295 218 -297 225 -112 428 614 676 543 1541 -161 1956 l-341 201 207 263 c233 296 258 560 97 1021 -92 265 -160 314 -425 312 -268 -3 -291 -22 -156 -125 214 -165 391 -513 391 -769 0 -480 -630 -964 -935 -719 -63 52 -317 114 -565 138 -384 38 -506 1 -830 -251 -208 -162 -394 -278 -411 -258 -18 20 -83 135 -145 254 -62 119 -247 246 -412 283 -165 36 -324 104 -353 151 -29 47 -204 61 -388 31 -344 -55 -567 102 -393 276 50 50 408 171 797 270 389 99 778 251 865 338 89 88 261 139 389 115 127 -23 321 26 431 110 188 144 172 153 -273 156 -301 2 -591 -69 -800 -197 -180 -109 -398 -199 -484 -200 -86 0 -394 -70 -683 -156 -389 -116 -570 -233 -693 -450 -92 -161 -236 -293 -320 -293 -315 -2 -634 -354 -960 -1060 -186 -400 -337 -796 -337 -879 0 -158 -179 -317 -263 -233 -96 97 273 1148 566 1609 163 258 297 494 297 525 0 31 85 176 188 322 104 146 285 437 403 648 186 332 192 378 47 350 -91 -18 -203 -100 -249 -183 -45 -83 -325 -555 -622 -1050 -298 -495 -595 -1068 -661 -1274 -66 -205 -170 -404 -230 -441 -74 -45 -86 -4 -36 124 245 637 292 1048 192 1706 -144 952 -97 1029 485 789 114 -47 203 -3 279 138 107 200 88 208 -489 208 -773 0 -875 -147 -635 -914 202 -643 180 -1156 -79 -1865 -106 -291 -193 -617 -193 -725 0 -108 -42 -196 -94 -196 -52 0 -174 -135 -272 -300 -280 -474 -406 -378 -362 275 56 843 107 1008 381 1246 401 349 566 1146 293 1418 -89 90 -157 344 -162 607 -7 314 -52 454 -147 454 -86 0 -137 -113 -137 -306 0 -179 -42 -280 -100 -244 -56 34 -73 172 -40 306 36 140 18 244 -41 244 -151 0 -233 -1015 -309 -3825 -8 -295 -50 -375 -196 -375 -159 0 -192 104 -236 725 -28 399 -19 995 21 1325 76 626 51 793 -106 696 -51 -32 -93 -277 -93 -546 0 -539 -157 -731 -365 -446 -152 208 -178 824 -43 1037 49 78 195 149 324 158 215 15 236 68 264 634 26 553 9 617 -163 617 -168 0 -186 -55 -143 -440 42 -374 18 -457 -161 -553 -332 -178 -542 -673 -463 -1094 66 -358 399 -1001 584 -1128 111 -76 128 -1104 21 -1277 -49 -80 -129 -22 -239 175 -228 404 -680 917 -810 917 -58 0 -106 62 -106 139 0 76 -73 365 -163 642 -214 663 -121 1126 326 1620 260 288 343 462 319 669 -31 270 -55 281 -657 310 -405 19 -625 -9 -625 -80 0 -69 179 -99 475 -80 411 26 479 3 504 -170 17 -124 -105 -325 -320 -528 -475 -447 -549 -962 -261 -1815 127 -377 177 -672 124 -725 -158 -158 -309 152 -475 974 -313 1550 -460 2022 -705 2252 -133 124 -265 202 -294 173 -29 -29 83 -340 249 -692 167 -351 303 -737 303 -858 0 -120 90 -592 199 -1050 472 -1969 -12 -1322 -588 787 -151 549 -602 932 -1099 932 -654 0 -819 384 -287 670 306 164 312 176 94 210 -318 49 -719 -235 -719 -510 0 -401 273 -670 681 -671 762 -4 925 -203 1409 -1722 371 -1164 384 -1406 85 -1602 -304 -199 -706 -1019 -625 -1275 78 -244 301 -252 1067 -37 l579 162 327 -337 c325 -336 327 -342 277 -1138 -28 -440 -50 -1487 -50 -2326 0 -1709 67 -1575 -834 -1673 -461 -51 -868 -174 -1641 -499 -124 -52 -175 -27 -175 84 0 199 254 335 880 469 522 112 897 414 967 780 23 119 67 257 99 308 31 51 -47 214 -175 362 -195 227 -282 259 -550 200 -174 -39 -532 -248 -794 -465 -644 -535 -879 -499 -871 131 8 600 168 776 1021 1121 866 350 980 439 1211 955 165 369 174 471 65 729 -190 453 -362 501 -939 261 -592 -246 -1073 -200 -1468 142 -232 201 -244 250 -140 548 255 726 -170 1138 -910 883 -219 -76 -422 -99 -450 -53 -60 97 176 659 385 918 174 216 832 234 1218 34 606 -314 1307 317 1213 1091 -36 295 -134 472 -376 675 -365 306 -614 338 -986 125 -326 -187 -649 -187 -835 0 -132 131 -133 184 -4 442 87 175 120 399 81 554 -68 271 -490 554 -826 554 -107 0 -339 135 -516 300 -177 165 -429 300 -561 300 -131 0 -239 45 -239 100 0 55 -67 100 -149 100 -94 0 -140 -82 -125 -225 31 -290 -362 -364 -633 -119 -178 161 -217 162 -623 7 -337 -129 -470 -250 -603 -552 -179 -405 -148 -658 91 -750 78 -30 143 -180 145 -333 1 -153 136 -455 300 -671 163 -216 297 -430 297 -476 0 -46 -174 -56 -387 -22 -354 57 -407 34 -635 -273 -137 -185 -277 -418 -313 -517 -101 -287 204 -753 601 -919 326 -136 877 -641 792 -725 -18 -19 -230 -133 -471 -254 -358 -181 -443 -278 -467 -532 -38 -391 388 -939 731 -939 477 0 1325 -1058 949 -1183 -292 -98 -600 -513 -600 -809 0 -266 46 -313 400 -408 219 -59 489 -204 599 -322 l199 -214 -251 -307 c-557 -679 -540 -1057 46 -1057 531 0 650 -198 732 -1217 104 -1280 103 -1285 -53 -1469 -109 -128 -587 -1428 -1025 -2788 -32 -99 -96 -99 -305 -4 -236 107 -287 95 -454 -112 -103 -128 -189 -306 -191 -396 -5 -252 -370 -634 -569 -596 -208 41 -516 621 -523 986 -11 547 533 1327 1195 1716 961 563 1545 1427 1432 2121 -105 650 -555 682 -1328 92 -608 -464 -889 -523 -1121 -237 -391 483 -144 1217 625 1854 532 441 645 684 551 1185 -52 279 -152 381 -614 622 -843 441 -1039 869 -634 1384 190 242 254 262 650 202 278 -42 439 -28 439 38 0 147 -658 346 -896 270 -343 -109 -604 -541 -604 -1001 0 -476 281 -837 871 -1117 357 -169 663 -627 575 -858 -29 -76 -283 -337 -565 -581 -643 -558 -841 -1011 -792 -1819 17 -270 381 -575 686 -575 156 0 530 174 863 400 324 220 645 400 713 400 234 0 377 -292 318 -652 -80 -493 -447 -918 -1291 -1498 -603 -414 -781 -603 -1038 -1100 -243 -470 -299 -686 -261 -1000 66 -545 282 -940 575 -1051 359 -137 527 -30 799 506 273 540 352 615 531 505 161 -99 181 -400 86 -1260 -156 -1399 -134 -1343 -512 -1282 -1029 167 -1816 -775 -1532 -1835 119 -445 574 -1016 574 -720 0 81 -44 191 -98 245 -54 54 -162 310 -240 569 -132 440 -128 500 73 897 175 347 287 444 602 522 346 85 408 71 575 -136 271 -334 234 -714 -108 -1114 -372 -436 -373 -519 -4 -896 562 -575 325 -1400 -402 -1400 -473 0 -614 199 -537 761 50 366 44 378 -104 195 -194 -240 -204 -754 -19 -1006 94 -129 270 -192 561 -199 292 -7 467 -70 563 -200 217 -297 163 -483 -211 -726 -372 -241 -511 -572 -409 -978 85 -338 436 -677 626 -604 87 33 332 -73 568 -246 l414 -305 318 -1421 c175 -781 457 -1799 628 -2260 330 -896 331 -1100 4 -683 -317 403 -1082 461 -1809 137 -520 -231 -1068 -725 -1108 -998 -10 -64 -21 -340 -25 -612 -7 -423 -45 -515 -267 -641 -143 -81 -336 -118 -430 -82 -150 57 -168 229 -154 1442 9 757 59 1429 110 1493 65 81 376 100 1013 64 l920 -53 381 336 c482 424 660 1054 408 1438 -148 226 -226 248 -881 248 -1148 0 -1371 356 -502 803 328 169 444 288 444 456 0 191 -90 251 -575 384 -952 261 -1076 357 -1067 825 5 257 88 508 225 683 266 339 283 858 34 1084 -223 202 -317 209 -317 26 0 -77 68 -166 150 -197 210 -81 189 -598 -33 -799 -100 -91 -205 -165 -233 -165 -28 0 -62 2531 -75 5625 -40 9089 -82 17433 -96 18750 -12 1101 -31 1225 -190 1225 -168 0 -176 -251 -154 -4525z m2380 3449 c-330 -284 -715 -269 -666 26 47 278 147 361 533 441 441 92 509 -144 133 -467z m1802 310 c139 -138 154 -284 95 -875 -39 -390 -110 -813 -158 -941 -49 -127 -88 -296 -88 -375 0 -235 486 -166 759 107 311 311 389 311 696 5 333 -334 308 -645 -90 -1112 -373 -437 -665 -955 -665 -1181 0 -298 276 -455 624 -355 561 161 766 120 838 -170 75 -298 -83 -618 -683 -1381 -480 -610 -473 -880 24 -960 452 -73 597 -165 597 -378 0 -236 -750 -1498 -1060 -1786 -309 -286 -303 -759 10 -818 321 -60 341 -209 89 -650 -132 -231 -237 -580 -238 -789 -1 -242 -47 -375 -132 -375 -98 0 -130 208 -125 825 13 1756 -344 5558 -548 5825 -41 55 -109 546 -149 1092 -55 741 -138 1132 -330 1550 -142 307 -282 734 -312 950 -30 215 -118 413 -195 438 -181 60 -100 -493 196 -1332 215 -610 371 -1421 436 -2275 20 -262 83 -533 140 -601 104 -126 317 -1919 518 -4359 106 -1297 88 -1741 -47 -1127 -81 367 -273 539 -605 539 -371 0 -398 142 -108 561 432 623 301 1007 -421 1232 -231 72 -419 184 -419 249 0 163 283 433 454 433 76 0 187 89 245 198 84 158 44 305 -202 741 -316 561 -655 861 -971 861 -294 0 -626 292 -626 550 0 270 103 357 600 503 246 72 360 169 382 326 45 312 -531 1016 -889 1087 -156 32 -362 144 -458 251 -164 181 -165 210 -9 463 141 230 230 268 595 258 236 -6 462 39 502 100 162 246 75 729 -173 962 -385 361 -329 703 202 1226 335 330 511 434 681 402 133 -26 284 22 360 114 170 205 449 201 658 -8z m8166 -1030 c-23 -230 -119 -417 -276 -534 l-241 -179 1 679 c1 374 30 785 64 912 59 221 73 214 274 -145 137 -244 200 -503 178 -733z m-6932 446 c197 -186 53 -741 -219 -845 -119 -45 -302 -177 -406 -294 -313 -346 -389 -258 -313 364 115 951 456 1233 938 775z m9759 -472 c86 -122 156 -299 156 -392 0 -93 158 -267 350 -386 570 -352 419 -800 -270 -800 -483 0 -780 -279 -780 -733 0 -510 387 -821 998 -802 446 13 487 -6 538 -250 193 -909 198 -869 -135 -1149 -423 -356 -737 -420 -1320 -271 -268 69 -600 97 -737 62 -313 -78 -597 -634 -506 -993 66 -267 531 -764 713 -764 169 0 832 -589 899 -799 72 -228 -103 -601 -282 -601 -69 0 -302 90 -518 200 -477 243 -630 249 -867 35 -346 -313 -141 -997 438 -1463 l229 -184 -300 50 c-165 27 -513 77 -773 111 -260 35 -503 112 -540 173 -101 162 -45 3223 72 3978 71 461 170 721 340 892 229 232 260 237 671 108 616 -192 1284 -188 1409 10 179 283 -11 629 -618 1126 -778 638 -835 897 -401 1832 329 706 735 1232 953 1232 69 0 196 -100 281 -222z m1469 97 c278 -230 494 -675 596 -1228 116 -630 53 -830 -194 -619 -455 390 -761 204 -875 -531 -81 -512 -164 -593 -613 -595 -233 -2 -367 66 -483 243 -247 378 -148 586 358 755 583 194 691 269 801 559 119 311 -2 622 -299 771 -324 163 -355 319 -110 564 232 232 593 268 819 81z m1686 -224 c68 -82 99 -212 69 -290 -82 -213 255 -461 626 -461 181 0 506 100 722 221 494 278 720 170 765 -363 27 -317 -28 -436 -375 -813 -223 -242 -406 -478 -406 -524 0 -46 159 -146 353 -222 626 -246 589 -822 -82 -1308 -854 -619 -1355 -1158 -1469 -1583 -137 -509 -81 -608 341 -608 313 0 329 -17 294 -317 -43 -368 -226 -595 -800 -991 -549 -379 -976 -1392 -587 -1392 222 0 183 -224 -116 -661 -287 -420 -565 -1208 -477 -1351 30 -48 10 -88 -46 -88 -324 0 -13 3864 440 5450 94 330 238 938 319 1350 82 413 229 885 327 1050 98 165 230 461 293 659 63 197 209 459 324 583 131 140 174 260 115 319 -58 58 -154 27 -254 -84 -392 -433 -1170 -2351 -1174 -2891 0 -118 -90 -502 -198 -853 -212 -688 -447 -2200 -561 -3619 -66 -819 -80 -863 -193 -595 -67 160 -241 368 -386 463 -144 95 -263 239 -263 320 0 170 87 185 297 52 250 -158 403 83 402 633 0 764 -169 1235 -615 1719 -508 551 -488 804 61 770 473 -29 623 85 756 576 85 319 62 489 -150 1076 -261 724 -332 1647 -147 1922 86 128 127 118 289 -75 243 -289 347 -283 595 33 174 220 194 350 143 896 -46 501 -23 693 107 892 186 284 474 330 661 105z m1401 -97 c0 -304 -735 -479 -980 -234 -263 263 -131 380 430 380 416 0 550 -36 550 -146z m-12405 -630 c134 -108 239 -335 273 -590 49 -365 25 -434 -200 -581 -240 -158 -289 -157 -804 14 -547 183 -547 183 -547 602 0 402 17 426 416 568 550 194 607 194 862 -13z m5868 -1173 c32 -81 -49 -278 -178 -437 -129 -159 -317 -438 -417 -621 -222 -407 -364 -262 -366 373 -2 362 40 442 323 617 397 245 564 263 638 68z m-3153 -262 c346 -370 369 -697 72 -1038 -291 -335 -382 -316 -382 77 0 407 -217 730 -548 812 -264 67 -342 307 -127 394 351 142 707 53 985 -245z m4173 -843 c767 -689 655 -889 -296 -531 -145 55 -325 89 -400 76 -75 -13 -261 28 -412 90 -349 144 -358 445 -26 777 297 297 380 267 1134 -412z m-4903 234 c66 -66 120 -246 120 -400 0 -212 -48 -280 -196 -280 -108 0 -414 -86 -680 -190 -341 -135 -534 -163 -656 -94 -162 91 -159 122 42 481 119 211 312 430 428 487 294 142 798 140 942 -4z m2595 -150 c149 -201 162 -574 28 -824 -99 -185 -642 -215 -1028 -57 -272 112 -238 794 50 1001 268 191 765 128 950 -120z m-1321 -1590 c39 -409 43 -1227 10 -1817 -33 -590 -61 -1447 -62 -1905 -2 -801 -10 -831 -223 -800 -156 22 -239 121 -279 332 -78 406 -53 2501 43 3564 73 802 63 880 -132 1075 -276 276 -266 352 64 476 387 146 495 -28 579 -925z m1946 857 c0 -112 -71 -371 -159 -575 -152 -356 -204 -1065 -269 -3664 l-22 -891 -286 -39 -286 -38 36 2246 36 2246 283 222 c155 122 322 329 372 459 110 290 295 311 295 34z m-1255 -697 c102 0 120 -428 86 -2075 -48 -2388 -66 -2525 -322 -2525 -265 0 -293 324 -232 2680 45 1705 76 2021 196 1975 79 -30 201 -55 272 -55z m5335 -316 c43 -360 -186 -523 -521 -370 -235 107 -294 90 -561 -166 -402 -385 -380 -669 87 -1123 476 -463 700 -886 780 -1473 67 -485 6 -547 -280 -288 -254 229 -485 19 -485 -442 0 -283 79 -425 400 -722 273 -252 400 -453 400 -635 0 -146 -34 -265 -75 -265 -181 1 -1490 725 -1849 1023 -806 669 -976 862 -976 1113 0 353 97 378 590 157 797 -357 1210 -168 1210 553 0 444 -237 742 -1000 1259 -467 317 -576 476 -521 762 66 346 297 426 883 305 448 -93 568 -80 956 102 244 115 504 282 578 371 179 216 347 146 384 -161z m-9835 -497 c155 -142 1087 -94 1299 66 330 250 631 187 705 -147 103 -468 -185 -785 -1095 -1206 -442 -204 -876 -457 -963 -561 -417 -494 -552 -1381 -248 -1633 187 -156 768 49 1214 428 216 184 517 365 669 402 232 57 295 28 392 -185 172 -378 -51 -731 -509 -808 -679 -113 -1003 -257 -1256 -557 -139 -166 -253 -365 -253 -444 0 -78 -41 -142 -91 -142 -102 0 -1240 -901 -1292 -1022 -19 -43 -97 -78 -175 -78 -226 0 -176 476 58 550 110 35 200 111 200 169 0 66 -57 58 -150 -19 -244 -203 -189 178 106 733 203 381 232 511 138 624 -65 79 -176 143 -246 143 -261 0 -247 317 27 593 440 443 1025 1515 1025 1877 0 359 -350 681 -626 575 -279 -107 -296 158 -32 503 233 306 295 334 633 283 206 -32 418 -96 470 -144z m6075 -4275 c127 -49 545 -189 930 -312 917 -292 1250 -432 1250 -524 0 -42 71 -76 157 -76 86 0 304 -112 484 -250 180 -137 362 -250 404 -250 145 0 567 -451 905 -969 187 -285 428 -566 536 -624 109 -58 274 -340 369 -631 94 -289 230 -638 301 -776 392 -753 881 -2750 1126 -4600 126 -953 69 -2489 -120 -3200 -80 -302 -197 -842 -261 -1200 -258 -1442 -300 -1567 -568 -1690 -242 -110 -253 -103 -195 128 34 135 156 710 273 1279 116 568 249 1213 295 1433 120 565 112 2940 -13 3950 -58 468 -121 1171 -141 1563 -43 859 -423 2048 -676 2114 -97 26 -177 120 -178 210 -1 89 -136 361 -300 603 -164 242 -298 484 -298 537 0 91 -273 437 -886 1123 -352 393 -1515 1165 -1701 1128 -220 -42 -258 -278 -45 -278 383 0 2332 -1850 2332 -2214 0 -53 170 -352 378 -666 1076 -1625 1194 -2139 1273 -5539 51 -2192 47 -2228 -547 -4931 -235 -1070 -381 -1587 -569 -2020 -77 -177 -277 -784 -445 -1350 -604 -2044 -776 -2494 -1484 -3880 -267 -522 -518 -1107 -557 -1300 -65 -318 -463 -1264 -798 -1900 -72 -137 -300 -677 -505 -1200 -493 -1257 -728 -1708 -1340 -2575 -500 -709 -754 -877 -870 -575 -31 83 -136 150 -231 150 -160 0 -1005 1250 -1005 1487 0 51 -180 332 -400 625 -220 293 -400 567 -400 610 0 95 -631 1415 -874 1828 -97 165 -300 511 -451 768 -151 257 -275 518 -275 579 0 273 -706 1579 -988 1829 -188 166 -312 372 -312 519 0 134 -45 271 -100 305 -55 34 -100 129 -100 212 0 82 -135 421 -300 754 -165 332 -300 692 -300 799 0 223 -209 656 -595 1235 -303 455 -495 1016 -545 1600 -19 220 -106 693 -193 1050 -287 1179 -408 2799 -396 5300 11 2401 87 3170 384 3850 72 165 221 638 332 1050 281 1048 303 1094 863 1765 720 862 2506 2035 3099 2035 141 0 513 90 828 201 396 139 832 202 1422 203 468 2 941 6 1051 10 569 19 1631 -97 1821 -198 251 -135 629 -154 629 -32 0 219 -2452 698 -2767 540 -101 -50 -537 -75 -969 -54 -585 29 -846 -1 -1018 -113 -127 -84 -471 -193 -764 -244 -792 -137 -1693 -493 -2032 -803 -165 -151 -423 -350 -572 -443 -150 -92 -555 -506 -900 -919 -655 -784 -785 -1095 -1372 -3298 -318 -1191 -485 -5360 -257 -6400 73 -330 162 -937 200 -1350 37 -412 131 -996 209 -1296 78 -300 142 -710 142 -909 0 -509 310 -1347 737 -1993 228 -344 363 -667 363 -869 0 -177 42 -347 93 -379 51 -31 281 -537 510 -1124 230 -589 514 -1143 633 -1237 185 -146 620 -973 864 -1643 139 -381 351 -802 572 -1135 122 -184 456 -814 742 -1400 287 -586 629 -1209 761 -1385 132 -176 338 -499 458 -718 119 -220 344 -632 499 -916 220 -404 323 -505 475 -465 135 35 193 -1 193 -120 0 -198 186 -411 359 -411 181 0 782 596 1110 1100 369 568 946 1783 1187 2500 102 303 238 618 303 700 64 82 151 263 193 400 41 138 154 351 251 475 96 123 296 596 442 1050 246 760 488 1324 1118 2608 130 266 237 538 237 604 0 66 87 292 194 502 107 209 222 522 256 696 34 173 103 405 153 515 51 110 182 515 291 900 369 1305 841 2555 949 2517 59 -20 99 -123 88 -227 -47 -484 -1469 -4702 -1889 -5604 -183 -393 -360 -843 -394 -1000 -87 -404 -550 -1538 -750 -1836 -233 -349 -698 -1360 -698 -1520 0 -73 -84 -290 -187 -481 -102 -192 -218 -493 -257 -669 -38 -176 -153 -426 -254 -554 -101 -129 -370 -605 -599 -1058 -228 -453 -505 -879 -615 -946 -110 -67 -294 -279 -410 -472 -328 -545 -593 -800 -833 -800 -321 0 -1097 849 -1564 1712 -220 406 -457 771 -527 811 -70 40 -185 220 -255 400 -328 844 -1349 2840 -1741 3402 -654 937 -1738 3131 -2360 4775 -177 468 -468 1233 -648 1700 -180 468 -358 1053 -397 1300 -69 440 -338 1481 -418 1619 -22 39 -58 511 -79 1050 -22 540 -109 1454 -195 2031 -200 1358 -201 2667 -2 3714 87 460 221 1219 297 1686 183 1131 390 1844 636 2189 111 156 177 309 145 340 -31 31 77 251 239 489 163 238 366 567 451 732 484 936 1546 1614 3423 2187 1024 312 1286 360 2500 453 1507 115 1721 118 1970 22z m-8086 -1738 c153 -112 156 -149 28 -325 -169 -230 -220 -201 -315 176 -75 299 17 346 287 149z m16274 -6943 c368 -859 231 -2129 -274 -2526 -292 -230 -634 -265 -814 -85 -172 172 -146 365 124 915 l237 485 -188 415 c-104 228 -190 509 -191 625 -3 308 319 553 827 628 43 7 169 -199 279 -457z m-18408 -1831 c0 -295 -128 -397 -251 -199 -80 130 36 499 158 499 51 0 93 -135 93 -300z m19081 -1713 l-35 -237 -128 227 c-70 125 -98 275 -61 334 106 171 264 -58 224 -324z m-18696 -1208 c221 -1641 231 -1779 127 -1779 -55 0 -125 40 -155 89 -30 48 -224 120 -431 159 -494 92 -626 214 -626 577 0 203 114 426 350 688 371 410 416 577 243 900 -78 146 -74 239 13 345 215 258 349 -16 479 -979z m16842 729 c32 -122 156 -205 337 -225 586 -67 330 -950 -449 -1544 -432 -330 -461 -338 -531 -150 -43 116 8 483 121 880 107 374 195 804 195 956 0 318 249 381 327 83z m1888 -4933 c8 -1774 19 -3911 25 -4750 5 -839 -3 -1525 -20 -1525 -16 0 -134 122 -262 270 -190 221 -245 433 -300 1164 -113 1496 -363 1716 -1946 1716 -777 0 -957 29 -1048 171 -84 134 -62 233 101 450 l210 279 1207 -36 1207 -37 205 337 c264 433 265 984 2 1319 -186 236 -278 262 -1025 288 -735 26 -824 50 -850 230 -40 281 399 510 1114 579 650 64 921 244 1016 674 74 339 -186 796 -454 796 -329 0 -497 119 -497 349 0 171 146 318 575 581 316 194 609 357 650 361 41 5 82 -1442 90 -3216z m-20836 1982 c223 -78 550 -165 726 -193 177 -28 366 -95 420 -149 133 -133 4 -315 -224 -315 -103 0 -354 -158 -559 -351 -355 -334 -364 -359 -201 -539 214 -237 946 -428 1338 -349 163 32 392 8 509 -54 308 -165 292 -803 -29 -1176 -253 -295 -429 -314 -2013 -223 l-404 24 -23 1734 c-12 954 -5 1734 17 1734 21 0 221 -64 443 -143z m2587 -4357 c137 0 376 -124 530 -275 155 -151 365 -325 467 -386 200 -119 716 -908 729 -1114 4 -69 -45 -125 -111 -125 -65 0 -224 -100 -354 -222 -326 -306 -508 -164 -736 574 -101 327 -262 652 -357 722 -385 282 -1128 70 -1525 -435 -273 -348 -264 -523 63 -1190 371 -755 278 -899 -578 -899 -601 0 -643 -16 -853 -324 -261 -384 -341 -275 -341 467 0 461 13 483 411 662 556 251 720 526 666 1118 -36 388 0 537 195 802 143 195 326 325 458 326 121 0 355 87 520 192 165 106 360 173 433 150 73 -24 246 -43 383 -43z m337 -1799 c284 -841 445 -951 905 -611 156 116 369 210 472 210 226 0 576 -354 436 -440 -184 -114 -2 -898 272 -1170 762 -758 785 -1048 79 -1023 -426 14 -469 -4 -414 -176 87 -274 -171 -339 -556 -139 -369 190 -896 135 -1153 -122 -134 -135 -150 -293 -94 -928 64 -726 54 -782 -191 -1073 -353 -420 -667 -479 -1226 -232 -526 233 -723 249 -1076 88 -304 -138 -398 -388 -314 -834 72 -385 218 -527 719 -699 291 -100 446 -100 782 1 515 155 756 46 756 -342 0 -381 -255 -580 -850 -664 -641 -90 -1104 -372 -1237 -753 -126 -360 -69 -539 304 -972 156 -181 283 -395 283 -475 0 -81 45 -147 100 -147 246 0 30 572 -371 982 -430 440 130 1045 1072 1159 663 80 1106 664 905 1193 -117 307 -496 432 -805 266 -349 -186 -1156 -33 -1345 255 -431 657 141 1095 908 696 630 -329 1425 -33 1749 651 162 341 166 469 34 1251 -61 365 -43 415 196 543 192 103 335 114 535 42 247 -89 269 -138 243 -538 -26 -389 126 -1000 248 -1000 25 0 113 68 197 152 135 135 194 127 552 -74 446 -251 672 -555 461 -622 -71 -22 -307 -70 -524 -107 -786 -131 -1369 -552 -1494 -1076 -90 -379 71 -635 488 -773 193 -63 351 -133 351 -154 0 -22 -73 -192 -162 -378 -149 -314 -149 -365 9 -698 266 -560 143 -770 -450 -770 -402 0 -552 54 -832 300 -398 349 -780 385 -1065 100 -241 -241 -255 -560 -43 -984 322 -645 38 -975 -588 -685 -427 198 -877 112 -1263 -241 -175 -159 -327 -290 -337 -290 -11 0 -20 1440 -21 3200 -1 2491 26 3200 123 3200 69 0 306 -72 527 -161 271 -108 526 -139 777 -93 709 129 1416 801 1263 1200 -31 81 -233 225 -448 320 -214 95 -390 224 -390 287 0 120 599 634 968 831 351 186 901 135 1432 -134 271 -137 540 -250 597 -250 213 0 89 159 -334 426 -338 213 -573 280 -1035 292 -565 16 -629 -7 -1156 -419 -523 -408 -674 -599 -810 -1024 -95 -299 -574 -207 -886 170 -210 253 -280 453 -297 843 -31 699 134 854 878 824 954 -39 1183 407 687 1341 -148 276 -235 570 -205 689 80 314 549 562 1011 533 l400 -25 253 -749z m14531 -518 c83 -132 29 -249 -262 -572 -202 -223 -395 -520 -430 -658 -140 -556 -742 -155 -742 493 0 436 117 655 450 841 280 157 859 96 984 -104z m2446 -303 c182 -182 144 -556 -80 -780 -249 -249 -262 -446 -25 -353 380 148 507 90 672 -304 91 -218 193 -330 262 -288 133 83 45 -402 -166 -907 -166 -396 -440 -532 -512 -255 -55 210 -502 407 -921 407 -598 -1 -1291 -694 -2193 -2192 -312 -519 -623 -961 -692 -984 -192 -63 -159 641 37 797 841 668 997 1008 673 1470 -147 210 -152 352 -47 1325 136 1254 241 1542 635 1746 279 144 286 141 429 -201 80 -191 198 -380 262 -419 70 -44 324 151 643 493 521 560 791 677 1023 445z m-20080 -2631 c183 -552 561 -666 1441 -430 355 95 475 92 601 -13 248 -205 187 -475 -167 -737 -448 -333 -711 -377 -1266 -212 -646 192 -805 396 -873 1130 -63 689 77 829 264 262z m15950 -299 l0 -600 448 -32 c428 -30 597 -137 600 -378 3 -149 -309 -489 -518 -567 -295 -109 -509 -659 -443 -1138 32 -237 112 -516 177 -620 211 -338 -482 -1070 -817 -863 -65 40 -85 301 -52 682 134 1543 75 2112 -271 2600 -175 249 -253 280 -625 250 -517 -41 -502 70 93 694 402 422 817 625 1208 590 176 -16 200 -91 200 -618z m-9742 193 c135 -122 161 -268 122 -680 l-50 -525 345 40 c325 38 356 15 511 -372 151 -377 151 -440 9 -715 -85 -166 -169 -457 -187 -648 -31 -345 -318 -780 -458 -693 -40 25 -130 260 -199 522 -270 1015 -437 1485 -591 1664 -198 229 -915 613 -1085 580 -69 -14 -125 59 -125 161 0 248 179 462 600 718 385 234 814 214 1108 -52z m13283 -106 c493 -99 562 -352 200 -731 -167 -175 -286 -371 -265 -437 74 -222 508 -361 944 -301 710 98 740 28 745 -1710 2 -829 12 -2520 24 -3758 11 -1237 -9 -2385 -45 -2550 l-65 -300 -75 275 c-42 151 -107 275 -145 275 -147 0 -313 677 -224 913 120 319 -25 668 -306 738 -126 31 -493 44 -815 28 -817 -40 -902 110 -518 913 282 590 285 609 104 808 -172 190 -269 201 -1363 154 -1233 -52 -1442 9 -1148 334 87 96 211 326 275 510 109 311 98 351 -149 548 l-267 213 162 495 c89 273 251 687 360 921 182 392 228 425 582 425 317 0 434 61 674 353 413 501 624 396 624 -310 0 -639 155 -769 864 -723 564 37 745 -151 552 -575 -116 -254 -152 -266 -595 -206 -1389 187 -1612 190 -1868 22 -139 -91 -253 -253 -253 -360 0 -313 139 -357 1750 -559 110 -14 277 -29 371 -34 509 -24 827 -1168 390 -1402 -206 -110 -394 -562 -339 -810 46 -206 628 -435 628 -248 0 72 -67 157 -150 188 -233 89 -177 475 112 776 360 377 352 969 -19 1456 -242 318 -306 348 -625 296 -195 -32 -538 -17 -762 33 -223 51 -530 117 -681 149 -311 65 -368 311 -93 398 161 51 489 4 1444 -207 421 -93 848 131 973 511 198 600 -225 1084 -792 904 -380 -121 -607 29 -607 400 0 925 -472 1131 -1079 472 -366 -398 -580 -342 -463 121 113 450 1226 1633 1555 1651 34 2 204 -24 378 -59z m1568 -634 l-9 -448 -490 -82 c-841 -142 -1019 103 -384 527 206 138 460 356 564 485 238 294 331 153 319 -482z m-14332 172 c66 -191 -31 -375 -198 -375 -96 0 -128 57 -90 158 34 87 61 200 61 250 0 137 177 111 227 -33z m8087 -706 c255 -194 385 -829 385 -1879 1 -1131 -120 -1566 -459 -1651 -374 -94 -536 15 -496 331 43 333 259 830 360 830 189 0 308 584 200 984 -129 479 -419 716 -876 716 -356 0 -438 184 -178 400 82 68 150 186 150 262 0 177 684 182 914 7z m-459 -1134 c171 -184 245 -379 245 -644 0 -429 -117 -540 -536 -508 -336 26 -591 -124 -1389 -815 -375 -325 -575 -575 -575 -718 0 -121 -134 -418 -299 -660 -164 -242 -398 -766 -519 -1165 -121 -399 -254 -725 -295 -725 -41 0 -102 214 -135 475 -33 261 -77 587 -97 723 -45 309 347 995 791 1385 370 325 1443 1885 1651 2401 222 551 770 670 1158 251z m-8585 40 c126 -165 430 -1147 430 -1386 0 -104 93 -282 206 -395 281 -281 221 -635 -115 -674 -198 -23 -323 53 -530 325 -149 195 -314 355 -367 355 -53 0 -295 94 -538 208 -244 114 -514 218 -600 231 -257 38 -374 218 -339 524 28 241 136 339 674 612 680 345 1025 404 1179 200z m2186 -616 l282 -491 -380 61 c-573 93 -804 511 -548 989 134 250 230 167 646 -559z m148 -913 c108 -97 196 -249 196 -336 1 -88 91 -307 200 -487 245 -402 246 -423 17 -423 -349 0 -1436 -412 -1930 -730 -272 -176 -931 -654 -1466 -1062 -1062 -812 -2238 -1408 -2777 -1408 -189 0 -344 -45 -344 -100 0 -195 682 -96 1408 203 416 172 1128 600 1639 986 1833 1385 2687 1811 3631 1811 265 0 528 46 585 103 110 110 637 -232 637 -413 0 -53 158 -234 350 -403 239 -210 349 -392 346 -572 l-4 -265 -290 339 c-349 408 -627 390 -1336 -89 -484 -327 -713 -609 -994 -1227 -335 -740 -1036 -725 -947 21 24 196 76 431 117 524 58 131 13 175 -209 203 -615 79 -1079 -425 -1444 -1571 -273 -857 -320 -922 -768 -1045 -423 -117 -579 -24 -672 401 -92 415 -190 437 -681 149 -553 -324 -725 -321 -888 15 -140 290 -654 639 -949 645 -100 2 -417 -7 -705 -19 -856 -36 -1082 363 -523 922 271 272 345 296 725 238 1125 -172 1326 -59 1227 690 -114 875 -109 976 61 1085 131 84 241 40 528 -212 258 -227 470 -322 734 -331 565 -18 650 8 947 289 290 274 347 511 167 691 -165 165 -67 643 162 794 184 121 240 101 550 -198 523 -504 759 -604 1098 -463 341 141 422 319 341 752 -35 183 -9 423 58 548 103 193 179 216 563 173 244 -28 532 -130 640 -228z m5931 27 c159 -116 161 -157 25 -485 -133 -318 -133 -382 1 -573 199 -284 577 -275 1145 27 249 133 616 272 815 309 308 58 379 36 479 -151 102 -191 74 -274 -208 -625 l-326 -406 228 -184 c203 -164 350 -178 1343 -121 1433 82 1495 31 1047 -865 l-316 -632 279 -240 c253 -218 338 -234 899 -174 505 54 651 36 786 -99 281 -281 153 -595 -272 -664 -204 -33 -422 -112 -485 -175 -173 -173 -523 -138 -711 69 -92 102 -346 244 -565 316 -220 73 -399 175 -399 227 0 113 -390 613 -950 1217 -220 238 -860 734 -1423 1102 -1007 660 -1038 672 -1898 750 -481 44 -927 60 -992 35 -64 -24 -143 -2 -176 51 -58 94 1269 1418 1422 1418 43 0 157 -57 252 -127z m-3738 -3250 c288 -435 303 -508 303 -1484 0 -571 -44 -1054 -99 -1088 -55 -34 -212 51 -350 189 -212 212 -251 344 -251 845 0 470 -64 717 -307 1178 l-307 584 212 171 c282 229 437 152 799 -395z m-3397 -540 c0 -65 -75 -200 -166 -301 -139 -153 -148 -243 -54 -557 212 -710 244 -1294 76 -1359 -236 -90 -351 163 -718 1586 -73 281 314 748 619 748 134 0 243 -53 243 -117z m4059 -457 c-108 -108 -165 43 -89 235 71 180 76 180 111 6 20 -100 10 -209 -22 -241z m-10768 -770 c391 -247 809 -739 809 -952 0 -63 91 -315 202 -559 171 -375 248 -445 487 -445 374 0 811 350 811 650 0 183 125 303 568 542 312 170 595 308 630 308 34 0 120 -160 191 -357 165 -457 283 -494 943 -302 562 163 661 281 826 985 134 576 240 436 480 -637 67 -300 -150 -551 -524 -605 -201 -29 -240 -99 -268 -483 -23 -313 -99 -502 -251 -625 -336 -272 -486 -214 -693 268 -122 285 -300 501 -496 603 -277 143 -335 143 -605 4 -403 -209 -476 -557 -212 -1006 265 -448 264 -507 -25 -886 -392 -515 -400 -684 -69 -1464 307 -721 392 -1329 203 -1446 -145 -90 -502 765 -432 1032 79 301 -112 498 -603 623 -740 190 -734 177 -283 589 445 407 522 690 259 954 -128 128 -279 147 -748 94 -701 -79 -768 4 -618 765 132 667 62 981 -236 1056 -132 33 -306 5 -387 -62 -81 -67 -216 -96 -299 -64 -117 45 -151 236 -151 861 0 442 23 803 52 803 29 0 226 -110 439 -244z m1713 -108 c326 -169 426 -431 378 -997 -37 -436 -239 -609 -603 -517 -198 49 -280 166 -382 540 -71 262 -211 594 -310 737 -100 144 -152 290 -117 325 117 118 737 65 1034 -88z m18441 -173 c322 -284 452 -844 216 -935 -90 -34 -385 10 -656 99 -271 88 -609 161 -752 161 -229 0 -247 24 -153 200 59 110 174 200 257 200 82 0 177 71 210 158 53 139 347 317 552 336 39 3 185 -95 326 -219z m-10445 -782 c0 -62 86 -79 205 -41 112 35 269 11 347 -54 123 -102 123 -156 2 -390 -176 -341 -454 -591 -454 -409 0 74 -79 104 -194 74 -115 -30 -216 9 -250 96 -77 202 -71 683 11 764 105 105 333 78 333 -40z m-2218 -3618 c25 -225 -8 -275 -184 -275 -118 0 -415 -143 -659 -319 -415 -298 -455 -308 -611 -151 -279 278 -65 681 474 890 635 246 940 201 980 -145z"/>
<path d="M11699 39546 c-79 -282 -137 -1120 -147 -2130 -15 -1501 -134 -3416 -212 -3416 -17 0 -145 52 -285 116 -198 90 -255 190 -255 445 0 706 -396 1096 -1036 1022 -330 -39 -356 -22 -384 255 -17 163 -82 314 -146 335 -155 50 -291 -576 -144 -667 69 -43 2 -148 -180 -283 -182 -134 -378 -443 -525 -828 -273 -712 -565 -923 -1216 -875 -330 24 -425 72 -448 230 -21 152 33 203 228 215 496 28 703 463 447 942 -205 383 -1105 142 -1491 -400 -352 -494 -379 -1004 -73 -1367 373 -444 1074 -777 1457 -692 311 68 311 68 307 -365 -3 -393 -81 -981 -385 -2883 -173 -1091 -413 -2142 -510 -2239 -50 -50 -240 -86 -421 -80 -479 17 -680 -68 -680 -289 0 -121 123 -255 325 -353 179 -86 495 -400 704 -697 489 -698 832 -876 1578 -822 728 53 1288 406 1699 1074 164 267 410 559 547 648 256 169 322 400 144 510 -56 35 -335 75 -620 89 -323 17 -543 79 -587 168 -100 199 -283 1288 -385 2291 -48 468 -143 1311 -212 1875 -69 564 -100 1052 -68 1083 32 32 149 10 260 -50 310 -166 960 -129 1227 70 452 336 793 468 953 367 130 -82 150 -522 144 -3128 -4 -1668 -29 -3069 -57 -3113 -27 -44 -52 -1443 -55 -3109 -5 -2734 -23 -3042 -176 -3159 -94 -71 -272 -131 -396 -133 -179 -2 -225 53 -227 272 -1 151 -85 382 -185 513 -187 242 -471 258 -1088 61 -195 -63 -225 -37 -225 195 0 147 -40 243 -88 213 -49 -30 -93 -482 -99 -1005 -8 -879 8 -961 214 -1093 212 -136 1074 -287 1723 -302 205 -5 290 -52 269 -149 -37 -172 142 -1849 318 -2983 120 -766 116 -837 -54 -990 -419 -380 -102 -1161 600 -1477 375 -169 412 -170 758 -5 555 263 759 585 759 1198 0 360 -50 566 -161 658 -127 106 -145 227 -85 587 41 250 85 1021 96 1715 12 694 53 1312 91 1375 39 63 265 114 502 114 238 0 578 29 756 65 396 79 1101 727 1101 1012 0 326 -475 823 -787 823 -368 0 -713 -263 -713 -545 0 -302 -248 -394 -544 -200 -292 191 -347 588 -406 2889 -24 932 -95 2349 -157 3150 -63 801 -89 1726 -57 2056 51 534 -3 1700 -200 4324 -72 962 22 1173 480 1072 214 -46 300 -20 350 108 40 106 4 205 -97 261 -225 126 -389 761 -259 1004 240 448 1129 515 1528 115 258 -257 326 -420 384 -926 21 -178 201 -348 678 -639 633 -387 661 -394 1098 -277 665 177 794 453 299 640 -344 130 -364 401 -33 448 306 44 636 -416 636 -886 0 -549 -377 -832 -998 -749 -249 33 -591 72 -762 86 -170 14 -454 148 -632 297 -398 335 -586 344 -704 33 -86 -228 -126 -237 -897 -207 -775 30 -1003 -53 -632 -231 261 -125 1488 -79 1658 63 121 101 230 65 596 -193 l448 -315 -146 -614 c-80 -338 -190 -884 -244 -1214 -54 -330 -184 -960 -289 -1400 -104 -440 -252 -1070 -329 -1400 -130 -558 -159 -600 -421 -600 -155 0 -300 56 -323 125 -23 69 30 125 117 125 188 0 187 -12 47 390 -159 455 -315 336 -457 -347 -161 -776 -168 -730 111 -800 330 -83 509 -303 726 -893 224 -607 623 -850 1398 -850 431 0 588 54 938 325 231 179 519 503 639 720 120 218 344 465 498 550 153 85 274 189 268 230 -5 41 -22 64 -37 50 -16 -14 -154 74 -308 196 -241 189 -367 213 -898 169 -346 -29 -683 -6 -767 51 -126 86 -149 456 -142 2333 9 2316 55 2776 278 2776 97 0 125 -142 104 -525 -15 -289 45 -930 135 -1425 89 -495 151 -1178 138 -1517 -29 -725 136 -1433 334 -1433 109 0 119 69 46 324 -51 179 -96 572 -99 875 -3 303 -48 776 -99 1051 -151 810 -298 2382 -241 2563 29 92 209 242 399 332 434 206 847 801 847 1221 0 226 -99 425 -337 677 -480 509 -945 482 -1154 -69 -87 -229 -69 -303 112 -472 496 -462 -285 -355 -910 125 -334 257 -411 377 -411 644 0 302 26 329 311 329 l312 0 -71 475 c-115 766 -279 822 -389 133 -76 -472 -244 -611 -424 -348 -311 455 -469 540 -1003 540 -450 0 -582 -47 -886 -314 -505 -443 -593 -641 -444 -1001 87 -209 92 -327 16 -403 -146 -146 -206 394 -274 2468 -30 935 -110 2083 -178 2550 -107 739 -150 854 -332 880 -172 25 -232 -52 -339 -434z m483 -1396 c62 -605 139 -1977 172 -3050 32 -1072 101 -2400 153 -2950 53 -550 118 -1877 147 -2950 28 -1073 94 -2648 148 -3500 54 -852 97 -2225 98 -3051 0 -825 44 -1655 98 -1843 54 -189 77 -365 50 -391 -97 -97 -554 431 -632 729 -92 356 -314 399 -467 92 -151 -303 -356 -536 -472 -536 -65 0 -77 951 -35 2725 35 1499 101 4778 147 7287 46 2509 114 4612 152 4674 39 62 70 949 71 1972 1 1843 44 2308 187 2028 39 -75 121 -631 183 -1236z m-1838 -3072 c173 -247 212 -1032 56 -1128 -231 -143 -82 -256 254 -193 266 50 403 23 550 -111 285 -258 246 -446 -92 -446 -158 0 -339 -63 -403 -139 -63 -77 -342 -237 -620 -356 -469 -202 -522 -206 -747 -59 -279 183 -313 508 -86 832 128 183 131 222 15 222 -180 0 -440 -293 -487 -550 -27 -145 -118 -202 -335 -206 -165 -3 -397 -59 -517 -125 -379 -206 -981 -143 -1469 156 -749 459 -814 983 -191 1531 448 393 862 379 910 -30 29 -255 10 -269 -266 -214 -236 47 -321 16 -409 -149 -191 -357 -32 -697 378 -811 496 -137 566 -131 1005 93 293 149 445 329 654 775 402 855 699 1130 1219 1130 327 0 462 -52 581 -222z m-1816 -3203 c24 -454 67 -1005 97 -1225 29 -220 83 -648 121 -950 37 -302 136 -1010 219 -1572 83 -562 122 -1068 87 -1125 -77 -125 -549 -133 -740 -13 -76 48 -111 131 -78 184 33 53 67 1318 75 2811 9 1493 52 2715 96 2715 44 0 100 -371 123 -825z m-428 -1560 c0 -1147 -29 -2362 -64 -2700 l-64 -615 -436 0 c-510 0 -513 12 -297 1129 150 777 283 1628 464 2971 159 1179 187 1300 299 1300 61 0 98 -789 98 -2085z m7957 860 c-16 -399 -36 -1456 -43 -2350 l-14 -1625 -494 0 -493 0 52 375 c29 206 113 577 186 825 73 248 230 968 348 1600 204 1091 400 1900 460 1900 15 0 14 -326 -2 -725z m1700 -4398 c113 -113 -629 -1219 -940 -1402 -292 -172 -960 -228 -1378 -116 -268 72 -610 676 -699 1234 l-69 430 1510 -41 c831 -22 1540 -70 1576 -105z m-7657 -220 c0 -167 -506 -880 -786 -1107 -456 -369 -661 -443 -1236 -446 -495 -4 -617 36 -915 298 -189 166 -439 492 -554 725 -192 387 -196 433 -47 543 219 162 3538 150 3538 -13z m-158 -5689 c257 -188 166 -518 -144 -520 -180 -1 -248 -56 -248 -200 0 -156 78 -205 368 -229 571 -47 1109 144 1677 596 l519 413 418 -471 c320 -360 522 -494 861 -568 618 -137 985 23 1026 446 25 257 80 321 296 346 186 21 314 -38 425 -198 252 -359 194 -609 -201 -865 -384 -249 -338 -248 -2764 -62 -583 45 -900 19 -1274 -106 -364 -121 -652 -146 -1074 -95 -715 86 -927 257 -927 752 0 296 65 430 308 634 348 293 477 315 734 127z m2665 -1572 c106 -56 193 -142 193 -189 0 -143 -317 -217 -451 -106 -88 73 -270 73 -601 -1 -524 -118 -581 -103 -492 130 55 143 206 182 976 253 99 9 268 -30 375 -87z m-239 -612 c300 -123 282 -132 -493 -234 -696 -91 -580 -234 150 -183 666 46 941 -51 845 -300 -43 -112 -209 -153 -627 -153 -313 0 -619 -51 -681 -113 -83 -85 -23 -108 238 -90 732 52 1100 -5 1100 -169 0 -122 -66 -144 -290 -94 -310 68 -931 -139 -1064 -355 -58 -94 -29 -107 113 -50 384 154 939 184 1090 58 173 -144 200 -722 47 -1008 -71 -134 -209 -193 -450 -193 -345 0 -503 -192 -171 -209 96 -5 24 -53 -161 -106 -185 -53 -359 -73 -387 -45 -82 82 -422 2269 -425 2730 -1 296 50 450 173 522 235 137 650 134 993 -8z m487 -3831 c208 -498 181 -730 -120 -1008 -312 -289 -548 -307 -945 -73 -355 210 -429 413 -286 790 180 473 391 638 817 638 350 0 404 -35 534 -347z"/>
<path d="M8407 28375 c13 -230 158 -513 214 -418 31 51 17 194 -30 318 -92 244 -195 300 -184 100z"/>
<path d="M12021 16588 c-121 -45 -221 -133 -221 -195 0 -63 71 -87 158 -54 87 34 292 61 456 61 164 0 273 40 243 88 -86 140 -396 189 -636 100z"/>
<path d="M10500 38319 c0 -154 -66 -368 -147 -475 -175 -231 -197 -383 -42 -287 61 38 155 7 208 -69 74 -107 108 -110 147 -13 28 69 114 125 192 125 162 0 193 257 42 350 -55 34 -100 194 -100 356 0 195 -51 294 -150 294 -98 0 -150 -98 -150 -281z"/>
<path d="M7661 38342 c-34 -87 -61 -287 -61 -444 0 -158 -45 -314 -100 -348 -151 -93 -120 -250 50 -250 83 0 150 -55 150 -122 0 -67 100 -23 221 99 173 173 195 247 100 342 -66 66 -121 292 -121 501 0 387 -130 508 -239 222z"/>
<path d="M13956 38375 c-21 -69 -86 -274 -144 -457 -89 -276 -77 -364 68 -520 110 -118 224 -157 308 -106 224 139 138 1208 -98 1208 -53 0 -113 -56 -134 -125z"/>
<path d="M16300 38108 c0 -160 -26 -359 -57 -441 -56 -146 41 -157 739 -81 95 10 74 96 -75 304 -114 160 -207 340 -207 400 0 61 -90 110 -200 110 -154 0 -200 -67 -200 -292z"/>
<path d="M6865 31225 c-33 -151 -89 -376 -124 -500 -55 -193 -27 -225 203 -225 154 0 241 43 206 101 -35 55 -65 280 -68 500 -6 459 -129 529 -217 124z"/>
<path d="M13899 31275 c-1 -124 -29 -326 -62 -450 -51 -191 -21 -225 199 -225 237 0 254 27 203 325 -83 481 -122 575 -236 575 -57 0 -104 -101 -104 -225z"/>
<path d="M17837 31109 c-101 -376 -94 -394 154 -442 310 -59 388 -6 227 155 -65 65 -118 244 -118 398 0 404 -142 344 -263 -111z"/>
<path d="M10366 31026 c-43 -261 -17 -418 86 -521 241 -241 354 -13 231 471 -133 523 -238 540 -317 50z"/>
<path d="M16600 28594 c0 -178 42 -280 100 -244 55 34 100 172 100 306 0 134 -45 244 -100 244 -55 0 -100 -138 -100 -306z"/>
<path d="M10500 27808 c0 -105 -25 -257 -56 -337 -34 -90 22 -165 150 -198 182 -48 206 -9 206 336 0 281 -42 391 -150 391 -82 0 -150 -86 -150 -192z"/>
<path d="M10454 24275 c-135 -429 -111 -818 61 -990 205 -205 335 -247 228 -74 -38 61 -13 146 55 187 92 58 95 128 12 283 -60 113 -110 321 -110 462 0 263 -175 357 -246 132z"/>
<path d="M17240 24225 c-30 -96 -121 -327 -202 -512 -166 -381 -141 -435 212 -473 272 -29 317 53 132 238 -65 65 -85 152 -45 192 41 41 114 9 163 -70 166 -269 233 -3 100 400 -141 427 -272 509 -360 225z"/>
<path d="M14200 24274 c0 -14 -43 -175 -96 -359 -79 -276 -70 -323 50 -277 97 37 146 -10 146 -141 0 -108 45 -197 100 -197 109 0 137 588 39 842 -49 127 -239 233 -239 132z"/>
<path d="M7140 23544 c-95 -409 -86 -466 88 -559 321 -172 421 32 274 560 -71 250 -157 455 -192 455 -36 0 -112 -205 -170 -456z"/>
<path d="M15758 21879 c-153 -740 -132 -887 149 -1032 240 -125 281 -123 333 13 64 168 -211 1110 -349 1196 -47 29 -107 -51 -133 -177z"/>
<path d="M14263 17325 c-35 -206 -91 -476 -125 -600 -54 -200 -25 -225 261 -225 270 0 310 28 245 175 -43 96 -97 366 -121 600 -53 525 -177 549 -260 50z"/>
<path d="M10112 16956 c-151 -598 -149 -606 145 -606 224 0 249 32 195 250 -35 138 -60 374 -56 525 11 426 -160 325 -284 -169z"/>
<path d="M12500 12750 c-1 -110 -31 -307 -67 -438 -47 -178 -28 -227 77 -192 152 51 198 508 71 707 -52 83 -79 58 -81 -77z"/>
<path d="M23447 50225 c24 -1251 72 -4163 106 -6470 35 -2365 104 -4274 158 -4375 57 -108 60 -250 7 -355 -49 -96 -75 -1007 -58 -2025 17 -1017 35 -2539 40 -3380 5 -842 50 -1639 101 -1772 60 -158 55 -264 -15 -307 -75 -46 -85 -1251 -33 -4028 41 -2180 87 -8530 103 -14113 42 -14958 15 -13400 234 -13400 182 0 186 299 155 10675 -35 11775 -142 20983 -247 21225 -12 27 -13 95 -1 150 59 295 -54 10936 -146 13650 -17 523 -38 2266 -46 3875 -14 2822 -21 2925 -208 2925 -187 0 -192 -76 -150 -2275z"/>
<path d="M21200 45729 c-247 -91 -500 -350 -500 -512 0 -114 61 -95 246 80 232 217 261 221 489 72 258 -169 384 -696 251 -1054 -40 -107 -327 -364 -639 -571 -649 -431 -804 -680 -660 -1059 74 -194 195 -278 481 -331 482 -90 732 -311 732 -649 0 -341 -169 -505 -520 -505 -340 0 -680 -316 -680 -631 0 -256 429 -710 766 -812 335 -101 934 -892 934 -1233 0 -286 -257 -624 -474 -624 -59 0 -314 200 -566 445 -389 378 -507 440 -782 405 -352 -45 -578 -274 -578 -586 0 -277 748 -956 1455 -1320 652 -336 831 -591 908 -1289 65 -588 -230 -896 -788 -823 -465 61 -530 -182 -75 -282 362 -79 891 210 1101 601 113 212 116 333 13 679 -68 231 -141 527 -162 658 -47 300 -128 379 -666 646 -753 374 -1278 798 -1282 1035 -7 376 179 358 683 -68 553 -466 815 -472 1261 -25 410 409 417 656 38 1288 -257 429 -436 604 -762 745 -271 117 -463 280 -525 445 -131 342 -145 315 239 442 957 316 1005 1498 69 1689 -372 76 -572 303 -479 543 33 86 282 302 555 480 369 242 523 419 606 695 185 616 140 980 -154 1252 -277 257 -294 263 -535 174z"/>
<path d="M13805 8634 c-297 -378 -354 -657 -355 -1730 l0 -946 300 -4 c261 -3 304 -44 330 -313 40 -410 -179 -601 -499 -433 -127 67 -267 182 -311 257 -44 74 -123 135 -175 135 -186 0 -91 -343 170 -616 193 -201 237 -312 163 -405 -127 -162 -301 -1188 -371 -2204 -46 -649 -30 -775 97 -775 88 0 176 125 211 300 41 205 119 300 248 300 290 0 232 -413 -113 -800 -165 -185 -300 -435 -300 -556 0 -120 -28 -360 -62 -531 -50 -248 -29 -313 100 -313 119 0 162 94 162 353 0 416 201 941 435 1134 199 166 223 840 35 997 -72 59 -236 80 -366 46 -231 -60 -234 -53 -175 529 85 834 229 1260 573 1693 405 510 567 1067 411 1409 -85 187 -174 246 -312 210 -107 -28 -246 13 -311 91 -188 227 -45 1287 252 1858 142 274 258 517 258 539 0 127 -214 5 -395 -225z"/>
<path d="M17600 5920 c-420 -43 -622 -210 -942 -783 -319 -571 -383 -901 -400 -2051 -14 -950 -19 -969 -336 -1265 -364 -340 -376 -398 -184 -857 203 -486 829 -964 1260 -963 l352 1 -450 257 c-693 394 -900 628 -900 1018 l0 343 604 -71 c719 -83 1168 65 1307 430 123 322 -111 695 -487 779 -563 125 -630 163 -774 442 -108 208 -131 451 -86 886 83 787 379 1298 863 1489 362 142 394 138 775 -115 465 -307 530 -623 148 -719 -323 -81 -750 -589 -750 -891 0 -296 361 -585 928 -744 635 -178 1172 -702 1172 -1145 0 -192 50 -380 111 -418 110 -68 78 -657 -68 -1268 -113 -471 130 -308 299 200 185 556 156 1319 -68 1843 -184 430 -924 1006 -1519 1183 -729 218 -763 603 -80 926 381 180 481 281 508 509 59 517 -635 1049 -1283 984z m-77 -3532 c488 -262 -97 -781 -702 -622 -237 62 -384 426 -281 695 49 127 141 146 434 91 205 -38 452 -112 549 -164z"/>
<path d="M17108 4708 c-227 -227 -225 -222 -253 -658 -26 -399 307 -827 936 -1200 278 -165 506 -336 507 -379 1 -44 98 -209 216 -368 186 -252 206 -378 156 -971 -31 -375 -88 -783 -125 -907 -50 -164 -27 -225 83 -225 201 0 251 158 326 1021 93 1071 -179 1574 -1169 2165 -389 232 -685 606 -685 865 0 88 71 296 157 463 196 379 127 470 -149 194z"/>
<path d="M8500 4190 c0 -394 -322 -754 -1070 -1195 -412 -243 -806 -555 -876 -693 -250 -496 -263 -927 -45 -1502 237 -624 358 -800 549 -800 94 0 46 185 -162 625 -351 742 -360 880 -91 1436 156 322 330 488 725 692 625 324 845 509 1030 867 162 313 186 780 40 780 -55 0 -100 -94 -100 -210z"/>
<path d="M15660 3675 c-384 -1970 -569 -3675 -400 -3675 82 0 143 288 185 875 35 481 125 1123 200 1425 201 812 280 1600 160 1600 -55 0 -121 -101 -145 -225z"/>
<path d="M3443 889 c-38 -61 -12 -146 57 -189 76 -47 108 -202 80 -389 -39 -270 -15 -311 181 -311 205 0 221 35 169 375 -83 540 -318 788 -487 514z"/>
</g>
</svg>