<svg xmlns="http://www.w3.org/2000/svg" version="1.0" width="250" height="525" viewBox="0 0 250.000000 525.000000" preserveAspectRatio="xMidYMid meet">
<metadata>
Created by potrace 1.10, written by Peter Selinger 2001-2011
</metadata>
<g transform="translate(0.000000,525.000000) scale(0.010000,-0.010000)" fill="#555555" stroke="none">
<path d="M202 52175 c1 -179 60 -600 130 -935 112 -536 140 -4232 42 -5640 -19 -285 9 -345 151 -321 104 18 175 -33 175 -125 0 -85 -64 -154 -142 -154 -78 0 -212 -27 -299 -60 -140 -54 -156 229 -154 2662 2 1498 -21 2748 -51 2777 -30 30 -54 -1263 -54 -2873 l0 -2928 241 61 c190 47 300 -8 510 -258 252 -300 265 -365 218 -1075 -28 -416 -118 -981 -201 -1256 -82 -275 -265 -927 -406 -1450 -140 -522 -287 -1058 -324 -1191 -49 -170 -36 -219 47 -168 333 206 907 -495 913 -1116 2 -190 -51 -225 -341 -225 -391 0 -657 -215 -657 -529 l0 -216 156 223 c107 153 258 222 484 222 459 0 684 -285 738 -934 43 -521 36 -538 -358 -850 l-402 -319 -68 402 c-74 439 -470 851 -532 554 -18 -84 33 -218 113 -298 170 -170 306 -943 210 -1193 -37 -96 -128 -150 -203 -121 -106 40 -130 -72 -112 -515 18 -434 77 -619 249 -792 290 -290 284 -415 -25 -493 -196 -49 -250 -126 -250 -358 0 -171 42 -269 100 -233 55 34 100 115 101 181 0 65 124 191 275 279 151 88 443 261 649 385 l375 225 0 -260 c0 -351 -362 -716 -552 -558 -161 134 -348 50 -348 -156 0 -78 -124 -219 -275 -313 -151 -95 -292 -184 -312 -198 -20 -14 44 -106 143 -205 165 -165 166 -183 12 -212 -304 -59 -175 -215 232 -280 220 -35 400 -102 400 -149 0 -47 182 -178 404 -291 221 -113 376 -249 344 -302 -73 -118 -348 -128 -348 -13 0 46 -270 84 -600 84 -676 0 -834 -161 -175 -179 234 -6 504 -3 600 7 96 10 175 -35 175 -100 0 -73 89 -94 240 -56 203 51 258 11 350 -254 61 -173 110 -334 110 -357 0 -23 -428 -27 -950 -10 -701 24 -950 0 -950 -90 0 -84 214 -126 675 -131 1235 -15 1249 -18 1355 -347 53 -165 144 -359 201 -432 85 -107 -108 -124 -1063 -94 -643 21 -1168 4 -1168 -37 0 -81 696 -183 1100 -162 138 7 509 5 825 -6 546 -18 575 -32 575 -276 0 -540 -145 -642 -929 -656 l-721 -12 693 -89 c381 -49 715 -110 741 -137 26 -26 -19 -329 -101 -673 l-148 -626 -727 -50 c-400 -27 -748 -16 -774 25 -87 142 -534 80 -534 -75 0 -123 179 -150 1011 -150 838 0 1001 -25 955 -144 -83 -216 -247 -1222 -321 -1973 -63 -627 -96 -698 -556 -1175 -269 -279 -512 -508 -539 -508 -28 0 -50 108 -50 239 0 272 -344 750 -458 636 -42 -41 -17 -185 54 -318 72 -134 103 -315 69 -403 -41 -108 20 -197 188 -274 155 -70 233 -174 206 -272 -25 -87 -100 -428 -167 -758 -67 -330 -192 -656 -276 -725 -95 -77 -109 -125 -35 -125 66 0 119 -135 119 -300 0 -165 -34 -300 -75 -300 -140 0 -41 -2277 121 -2752 85 -250 154 -522 154 -603 0 -81 37 -226 83 -321 379 -793 636 -1251 747 -1333 44 -32 145 -662 225 -1400 80 -738 190 -1557 245 -1821 55 -264 100 -697 100 -963 0 -265 62 -634 139 -820 76 -185 169 -521 206 -745 l67 -408 -1131 26 c-829 20 -1064 0 -881 -73 138 -54 498 -91 800 -80 798 27 1281 -89 1357 -328 34 -109 25 -232 -22 -273 -47 -41 -578 -38 -1180 6 -603 44 -1117 60 -1142 34 -110 -110 116 -158 934 -198 1257 -61 1510 -125 1641 -412 62 -135 112 -374 112 -532 0 -195 95 -366 300 -539 328 -276 387 -465 146 -465 -256 0 -2246 634 -2246 715 0 42 304 92 675 111 468 24 330 41 -450 54 -853 15 -1125 -11 -1125 -107 0 -150 553 -329 2900 -939 l1750 -454 1900 60 c1045 33 2125 105 2400 161 275 55 860 122 1300 149 440 26 969 71 1175 100 262 37 376 14 378 -74 2 -69 114 -207 250 -306 240 -174 247 -174 247 20 0 110 -71 240 -158 289 -119 66 62 172 725 422 486 184 951 343 1033 353 170 21 859 316 1757 753 735 356 1839 1419 2141 2060 177 377 249 443 432 398 121 -29 558 -82 970 -118 413 -35 906 -104 1097 -153 191 -50 385 -52 432 -5 46 46 -312 177 -797 289 -767 179 -1218 245 -2560 375 -450 44 -572 216 -572 803 0 791 -119 1021 -570 1099 -209 36 -575 156 -812 268 -273 127 -902 256 -1700 347 -698 80 -1311 186 -1363 237 -52 51 -232 94 -400 96 -256 3 -277 20 -130 105 100 58 175 221 175 380 0 362 514 1130 1064 1590 240 200 436 416 436 480 0 63 98 239 217 391 166 210 192 314 111 438 -108 166 -240 182 -658 77 -295 -74 -709 275 -640 539 29 112 -17 196 -121 224 -314 82 -557 1492 -378 2190 103 402 551 883 821 883 234 0 548 -233 548 -407 0 -51 84 -93 188 -93 103 0 244 -68 314 -152 102 -124 96 -185 -34 -329 -249 -275 -463 -865 -401 -1104 69 -263 813 -615 1301 -615 188 0 480 -71 648 -159 419 -216 533 -83 404 474 -130 561 -287 1007 -586 1670 -188 416 -216 566 -126 675 152 183 292 178 292 -10 0 -110 114 -150 430 -150 484 0 703 148 578 390 -46 88 -51 248 -12 356 62 169 107 135 332 -250 280 -480 466 -1143 470 -1680 1 -249 53 -348 202 -387 141 -37 200 -136 200 -339 0 -362 218 -1190 313 -1190 39 0 200 -108 357 -240 265 -223 311 -231 664 -109 431 148 734 391 819 657 34 108 116 159 203 126 194 -74 447 143 377 323 -42 111 46 143 387 143 552 0 785 164 716 502 -41 206 -160 288 -643 442 -333 106 -593 248 -593 323 0 73 68 133 150 133 83 0 150 -45 150 -100 0 -55 113 -100 250 -100 180 0 250 54 250 193 0 237 -256 506 -482 509 -136 1 -141 18 -28 89 80 51 112 160 74 257 -49 130 -162 161 -480 136 -269 -22 -431 10 -458 91 -29 84 72 125 310 125 396 0 530 121 324 292 -86 71 -293 89 -549 48 -256 -41 -411 -27 -411 37 0 119 236 223 508 223 205 0 263 244 85 354 -59 37 -83 127 -55 201 73 190 -277 277 -798 199 -270 -41 -440 -28 -440 34 0 54 146 113 325 131 402 38 449 317 61 362 -202 23 -253 74 -216 216 42 160 -33 197 -536 261 -560 72 -570 79 -259 161 472 126 384 481 -119 481 -185 0 -703 -507 -596 -585 49 -36 270 -335 490 -665 219 -330 581 -826 803 -1103 520 -647 1205 -2063 1291 -2672 71 -497 -72 -674 -185 -227 -34 136 -187 463 -340 725 -153 262 -382 725 -509 1027 -127 303 -306 640 -397 750 -90 110 -277 418 -414 684 -234 456 -802 1066 -992 1066 -47 0 -114 -113 -148 -250 -35 -138 -103 -250 -153 -250 -50 0 -142 -155 -204 -345 -84 -253 -156 -328 -274 -283 -133 51 -149 8 -95 -262 59 -293 44 -321 -159 -292 -359 51 -245 552 215 946 206 176 525 605 708 953 183 348 492 853 687 1122 277 383 366 452 413 320 32 -93 251 -321 486 -506 603 -478 1399 -1413 1867 -2194 709 -1184 893 -1459 977 -1459 159 0 567 -552 570 -772 2 -122 102 -392 222 -600 121 -208 324 -577 451 -820 127 -244 294 -514 371 -600 77 -87 179 -360 228 -608 l87 -450 445 0 c621 0 712 213 591 1390 -65 627 -60 929 18 1023 116 138 -28 977 -235 1378 -91 176 -180 1017 -212 2008 -11 351 -54 418 -363 566 -289 139 -319 180 -174 238 97 38 239 17 316 -47 96 -79 161 -83 205 -11 94 152 -30 305 -247 305 -220 0 -348 158 -202 249 159 98 120 251 -65 251 -235 0 -530 291 -466 459 30 78 5 147 -56 153 -202 23 -260 40 -367 108 -58 37 -281 28 -497 -21 -215 -48 -406 -73 -425 -54 -18 18 107 133 278 255 431 307 379 618 -125 743 -206 51 -375 149 -375 219 0 70 -81 185 -179 257 -99 72 -289 289 -424 481 -296 422 -717 799 -821 735 -42 -26 -77 -145 -78 -266 -1 -241 -157 -543 -239 -462 -28 28 39 342 150 697 110 354 175 748 143 874 -34 135 8 321 102 451 152 211 156 201 94 -237 -55 -381 -27 -515 168 -802 361 -531 2760 -2818 3162 -3015 350 -171 364 -170 587 39 126 118 206 253 177 298 -28 46 -1 178 61 294 142 265 -72 843 -517 1396 -169 211 -277 431 -241 490 109 176 255 123 255 -92 0 -348 276 -165 301 200 2 27 70 271 151 541 184 610 184 659 -2 659 -82 0 -150 66 -150 147 0 205 -401 953 -510 953 -50 0 -90 -138 -90 -306 0 -195 -39 -281 -109 -239 -60 37 -87 150 -60 252 26 101 -8 260 -76 354 -104 141 -139 146 -212 29 -48 -77 -92 -278 -98 -446 -6 -168 -87 -457 -178 -640 -345 -691 -96 -814 330 -164 312 475 384 311 105 -236 -199 -391 -199 -604 1 -604 51 0 168 146 261 325 110 213 185 276 216 183 26 -77 -32 -289 -129 -469 -156 -290 -213 -322 -489 -272 -172 32 -447 204 -612 383 -165 179 -536 474 -825 655 -289 181 -514 339 -500 353 14 13 241 -1 505 -31 345 -39 466 -92 430 -187 -83 -216 137 -274 340 -90 278 251 372 1176 165 1612 -101 210 -234 338 -353 338 -105 0 -503 311 -883 692 -598 598 -737 689 -1025 675 -461 -23 -508 204 -60 289 324 60 393 30 744 -332 212 -218 702 -602 1087 -851 386 -249 732 -503 769 -563 37 -61 164 -110 281 -110 118 0 339 -120 493 -267 271 -260 284 -262 480 -85 328 297 280 1254 -98 1940 -290 526 -315 750 -72 656 207 -79 404 373 482 1106 41 385 106 835 145 1000 58 247 47 278 -62 175 -194 -183 -454 -169 -300 16 155 187 -21 299 -344 218 -208 -53 -1148 303 -1973 748 -95 51 -261 93 -369 93 -107 0 -223 45 -257 100 -34 55 -146 100 -250 100 -250 0 -355 185 -150 264 89 34 396 -51 681 -189 286 -139 677 -285 869 -324 193 -40 490 -158 662 -262 461 -280 875 -244 1235 108 259 253 303 371 303 803 0 624 -243 1268 -425 1129 -69 -53 -372 -148 -675 -213 -470 -99 -667 -88 -1350 74 -571 136 -936 169 -1274 116 -510 -80 -576 -59 -576 186 0 135 105 149 725 97 399 -34 883 -114 1075 -178 800 -267 1800 -140 1800 230 0 64 130 193 289 287 308 182 362 358 475 1547 65 683 38 710 -455 464 -206 -102 -690 -177 -1341 -207 -560 -26 -1144 -95 -1299 -154 -207 -79 -311 -76 -399 12 -207 207 124 307 1030 310 1287 5 1885 290 2298 1100 139 271 163 458 106 831 -41 264 -53 590 -27 725 42 222 14 244 -309 244 -196 0 -383 -43 -415 -96 -33 -52 -123 -71 -202 -41 -172 66 -1083 -262 -1901 -684 -330 -171 -779 -323 -998 -339 -219 -15 -414 -76 -433 -134 -20 -58 -107 -106 -195 -106 -125 0 -109 53 76 250 129 138 291 250 359 250 109 0 805 334 1241 596 83 49 218 118 300 152 83 34 306 145 498 245 191 101 402 162 469 137 66 -26 177 43 245 152 68 109 175 178 239 154 276 -106 642 171 901 683 227 449 260 616 213 1079 -33 325 -118 593 -210 661 -85 62 -155 162 -155 221 0 300 -268 166 -944 -474 -410 -389 -810 -706 -889 -706 -78 0 -196 -64 -261 -143 -95 -114 -79 -164 76 -247 231 -124 371 -736 226 -986 -83 -141 -102 -107 -105 184 -4 430 -339 792 -734 792 -351 0 -340 -167 34 -553 253 -262 288 -353 210 -555 -88 -229 -97 -231 -158 -42 -186 565 -312 700 -708 753 l-397 52 350 222 c193 122 414 222 491 223 361 1 1144 577 2312 1700 l572 550 65 825 65 825 -284 0 c-226 0 -388 -127 -801 -625 -705 -852 -1682 -1712 -3007 -2650 -545 -385 -611 -396 -618 -100 -2 124 -84 383 -182 575 -170 338 -170 360 15 629 153 223 220 256 332 163 206 -171 170 -315 -60 -242 -168 53 -200 18 -200 -219 0 -179 77 -331 210 -414 223 -139 225 -138 1365 714 206 154 519 371 696 482 176 111 345 281 376 379 31 98 159 224 283 281 124 56 360 299 523 539 163 240 511 662 772 937 564 595 766 1136 784 2101 8 385 61 1004 118 1375 93 595 84 697 -71 868 -97 107 -146 242 -110 301 43 69 -100 105 -415 103 -446 -2 -498 -29 -711 -375 -345 -557 -1926 -1830 -1918 -1544 1 40 278 320 615 622 865 777 1183 1101 1183 1208 0 154 -502 103 -564 -58 -31 -83 -103 -150 -159 -150 -58 0 -49 64 23 150 107 129 73 150 -238 150 -293 0 -362 -37 -362 -196 0 -107 -145 -501 -322 -875 -448 -945 -2156 -2727 -2618 -2732 -171 -2 -397 -69 -504 -150 -247 -187 -356 -186 -356 2 0 200 174 403 1375 1597 564 560 1025 1072 1025 1137 0 207 -272 125 -442 -135 -226 -344 -1463 -1648 -1564 -1648 -45 0 -75 101 -67 225 8 138 452 689 1143 1421 622 658 1130 1232 1130 1275 0 223 -300 19 -688 -467 -239 -300 -695 -794 -1012 -1096 -537 -512 -599 -544 -889 -461 -176 50 -441 52 -610 3 -321 -92 -485 23 -325 229 553 713 1075 1363 1244 1549 114 126 178 257 142 293 -90 90 -566 -386 -1024 -1025 -213 -298 -449 -543 -525 -544 -166 -2 27 317 620 1024 220 261 367 507 328 546 -39 39 -260 -151 -491 -422 -231 -272 -512 -601 -625 -733 -112 -132 -283 -223 -379 -203 -151 31 -121 125 219 686 217 358 373 673 346 700 -75 77 -496 -487 -829 -1112 -289 -541 -560 -864 -650 -773 -57 57 208 817 492 1410 l227 475 -336 0 c-210 0 -335 -49 -335 -131 0 -72 -84 -309 -188 -525 -103 -217 -266 -731 -362 -1144 -96 -412 -239 -862 -318 -1000 -371 -649 -473 -1013 -532 -1900 -57 -857 -103 -1025 -471 -1717 -224 -422 -476 -867 -561 -988 -151 -216 -155 -213 -186 167 -33 400 61 4120 155 6113 44 940 29 1125 -92 1125 -80 0 -148 -11 -151 -25 -3 -14 -28 -430 -56 -925 -66 -1200 -691 -3190 -1762 -5616 -390 -883 -543 -1129 -729 -1176 -130 -32 -383 -194 -564 -358 -180 -165 -361 -300 -401 -300 -41 0 -329 -208 -640 -461 -577 -470 -1240 -685 -1385 -450 -182 294 -1355 -150 -1356 -514 -1 -252 196 -216 520 95 270 259 302 265 732 150 678 -181 775 -158 1410 340 768 601 1607 1140 1774 1140 124 0 595 869 1192 2200 244 543 530 1342 779 2180 70 237 185 507 255 600 105 140 117 -16 71 -880 -45 -831 -130 -1269 -407 -2100 -298 -892 -1244 -2978 -1655 -3650 -67 -110 -383 -672 -702 -1250 -666 -1208 -1283 -2101 -2080 -3010 -309 -352 -767 -962 -1018 -1355 -252 -393 -509 -746 -571 -785 -230 -141 -240 71 -23 480 123 231 222 471 222 533 0 62 68 169 150 237 208 173 187 300 -50 300 -110 0 -200 48 -200 106 0 181 212 1032 322 1294 266 635 372 801 1051 1648 817 1018 1100 1519 945 1674 -106 106 -918 -283 -918 -440 0 -119 77 -102 354 80 198 130 246 134 246 23 0 -126 -448 -866 -597 -985 -34 -27 -282 -342 -550 -700 -269 -357 -503 -669 -521 -692 -73 -95 -172 119 -194 420 -14 191 48 403 151 522 96 110 248 319 338 464 152 246 151 275 -15 425 -194 176 -812 222 -812 61 0 -55 136 -100 303 -100 413 0 486 -244 173 -581 -138 -148 -283 -404 -323 -569 -70 -286 -82 -271 -265 321 -106 341 -251 958 -321 1370 -112 653 -108 806 31 1180 137 369 200 430 455 437 911 26 1651 259 1983 627 138 152 145 206 37 296 -176 146 -1025 331 -1204 262 -155 -59 -265 219 -268 676 0 148 -41 294 -90 324 -48 30 -119 224 -157 431 -38 207 -128 469 -201 582 -73 114 -133 366 -133 561 0 195 -81 507 -180 694 -99 186 -212 587 -251 889 -39 303 -161 910 -269 1350 -109 440 -229 1059 -266 1375 -51 425 -109 575 -224 575 -125 0 -143 -74 -91 -375 37 -206 110 -892 164 -1525 255 -2997 829 -6200 1110 -6200 42 0 14 214 -63 475 -76 261 -250 1083 -386 1825 -455 2484 -437 3306 31 1450 125 -495 353 -1305 507 -1800 155 -495 310 -1072 345 -1282 48 -281 96 -356 184 -284 77 64 295 67 611 8 556 -104 606 -133 508 -292 -45 -73 -209 -91 -450 -50 -214 36 -406 21 -440 -34 -35 -56 24 -75 140 -45 110 29 200 7 200 -48 0 -139 -597 -239 -975 -163 -251 50 -362 12 -568 -194 -142 -141 -259 -338 -262 -436 -6 -252 -331 609 -540 1432 -97 378 -211 778 -254 888 -247 630 -563 2032 -588 2606 -26 622 -156 1694 -302 2494 -60 330 -135 814 -166 1075 -31 261 -99 475 -151 475 -148 0 -109 -652 112 -1900 112 -632 242 -1600 288 -2150 57 -673 222 -1474 506 -2450 231 -797 457 -1607 502 -1800 46 -192 311 -1246 590 -2341 279 -1095 508 -2093 508 -2219 0 -125 45 -256 100 -290 55 -34 101 41 103 169 3 193 19 204 97 70 60 -103 55 -388 -15 -783 l-109 -620 -268 257 c-148 141 -363 257 -478 257 -138 0 -229 83 -271 248 -34 137 -220 407 -414 600 -302 302 -336 382 -241 560 61 114 83 282 48 373 -35 90 -104 458 -155 817 -50 358 -156 945 -236 1302 -79 358 -165 786 -190 952 -72 471 -276 1463 -380 1848 -52 193 -110 440 -128 550 -18 110 -59 268 -91 350 -31 83 -79 285 -106 450 -27 165 -214 1065 -416 2000 -293 1363 -475 2584 -545 3675 -3 41 -61 75 -130 75 -86 0 -125 -189 -125 -616 0 -860 -229 -922 -270 -74 -17 343 -75 639 -130 657 -65 21 -100 -703 -100 -2042 0 -1976 -104 -3167 -465 -5300 -126 -744 -285 -730 -285 26 0 394 44 564 163 630 128 72 169 283 192 980 26 789 122 1516 294 2214 39 159 10 225 -97 225 -84 0 -151 56 -149 125 9 321 186 1446 256 1625 70 178 60 185 -90 63 -93 -76 -169 -207 -169 -292 0 -85 -27 -127 -60 -94 -33 33 -9 214 53 403 131 396 192 1470 84 1470 -40 0 -101 -124 -136 -275 -242 -1060 -536 -1800 -539 -1355 -2 218 214 1117 349 1455 62 153 6 175 -440 175 -510 0 -511 0 -509 -325z m24151 -800 c-93 -480 -656 -1551 -1018 -1934 -173 -184 -398 -437 -500 -563 -241 -297 -1387 -1277 -1499 -1281 -47 -2 -333 -182 -636 -401 -347 -251 -564 -353 -590 -277 -22 67 13 139 77 160 64 21 172 93 240 160 68 67 371 306 673 533 1338 1000 2356 2184 2970 3453 269 554 372 608 283 150z m-7430 -984 c48 -131 65 -326 37 -434 -29 -108 -5 -253 52 -321 76 -93 2 -176 -292 -326 -226 -115 -614 -481 -909 -856 -456 -579 -711 -790 -711 -588 0 116 520 976 731 1209 112 123 169 258 126 300 -96 94 -606 -498 -876 -1018 -156 -301 -222 -358 -286 -245 -236 423 585 2079 1130 2277 151 55 275 148 275 205 0 58 141 89 317 70 226 -25 343 -104 406 -273z m4827 -757 c-75 -250 -263 -636 -418 -858 -155 -223 -379 -549 -498 -724 -266 -393 -800 -852 -992 -852 -275 0 -137 297 358 770 275 262 500 521 500 574 0 54 -197 -96 -438 -333 -243 -237 -466 -385 -501 -329 -34 55 96 249 288 431 457 431 452 588 -7 237 -266 -202 -388 -244 -471 -161 -151 151 1129 1458 1676 1714 552 257 684 133 503 -469z m-3708 505 c114 -44 158 -196 158 -550 0 -269 -45 -489 -100 -489 -55 0 -100 44 -100 97 0 54 -146 135 -325 181 -375 97 -479 404 -223 660 172 172 333 200 590 101z m-17182 -1012 c-33 -33 -56 26 -52 131 5 117 28 141 60 61 29 -72 26 -159 -8 -192z m23194 -34 c87 -141 -45 -268 -134 -130 -39 59 -137 133 -220 164 -102 39 -80 60 69 65 121 4 249 -40 285 -99z m-6454 -35 c0 -174 -151 -358 -293 -358 -186 0 -513 -315 -696 -672 -112 -217 -122 -218 -450 -50 l-336 172 251 300 c373 447 730 649 1149 649 206 1 375 -18 375 -41z m300 -626 c0 -344 -242 -819 -470 -923 -130 -59 -262 -175 -294 -258 -80 -209 -236 -190 -236 29 0 99 -46 226 -102 282 -68 68 -51 201 53 409 188 378 326 496 649 556 138 25 284 52 325 59 41 8 75 -62 75 -154z m5394 -382 c0 -55 -66 -13 -147 94 -81 107 -147 239 -147 294 0 55 66 13 147 -94 81 -107 147 -239 147 -294z m-4156 199 c389 -163 441 -328 256 -815 -119 -313 -260 -430 -519 -432 -258 -3 -225 451 46 641 153 107 189 187 117 259 -72 72 -183 41 -362 -99 -256 -201 -676 -277 -676 -122 0 123 222 371 497 554 296 197 206 195 641 14z m4562 -5 c0 -24 -45 -44 -100 -44 -55 0 -100 48 -100 106 0 58 45 78 100 44 55 -34 100 -82 100 -106z m-20630 -1071 c116 -565 111 -631 -64 -819 -252 -270 -174 -795 107 -722 103 27 187 15 187 -26 0 -102 -311 -362 -525 -438 -176 -62 -250 -368 -89 -368 47 0 250 111 450 247 276 187 364 211 364 99 0 -183 -441 -578 -724 -649 -116 -29 -230 -108 -252 -175 -72 -215 375 -133 724 133 l335 256 68 -214 c109 -345 -31 -843 -515 -1826 -525 -1065 -516 -676 12 529 382 873 499 1300 355 1300 -56 0 -158 -93 -227 -206 -69 -113 -283 -302 -476 -419 -192 -118 -379 -256 -414 -308 -35 -51 -108 -65 -162 -32 -99 61 -35 570 169 1349 53 201 174 961 270 1689 96 728 199 1299 228 1269 30 -29 110 -330 179 -669z m19736 502 c228 -274 241 -375 47 -375 -82 0 -218 135 -303 300 -187 361 -23 409 256 75z m-6549 -137 c522 -398 469 -673 -192 -985 -294 -139 -567 -253 -608 -253 -40 0 25 160 146 355 273 442 164 592 -159 217 -188 -218 -293 -263 -494 -213 -205 51 -243 107 -192 278 83 275 154 347 612 619 489 290 483 290 887 -18z m-15298 -412 c-108 -108 -165 43 -89 235 71 180 76 180 111 6 20 -100 10 -209 -22 -241z m17494 -167 c163 -390 81 -741 -321 -1384 -276 -442 -354 -459 -573 -125 -244 372 -839 349 -1294 -50 -472 -415 -778 -401 -399 18 91 101 133 217 92 258 -41 40 -205 -72 -365 -251 -263 -295 -598 -437 -590 -250 2 41 127 255 277 475 475 694 1363 954 1439 420 50 -354 233 -154 207 226 -36 503 463 1004 999 1004 344 0 400 -37 528 -341z m3786 183 c94 -245 74 -277 -89 -142 -166 138 -199 300 -61 300 49 0 117 -71 150 -158z m-500 -299 c45 -117 5 -149 -157 -125 -119 18 -235 88 -258 157 -60 185 344 154 415 -32z m-1956 -338 c32 -336 -271 -1104 -545 -1380 -131 -132 -462 -168 -568 -61 -35 35 25 188 133 340 222 312 258 533 76 472 -113 -37 -255 -242 -629 -901 -85 -151 -199 -275 -253 -275 -166 0 -107 260 103 450 110 100 339 478 508 841 348 746 533 930 892 888 205 -24 256 -91 283 -374z m1168 -7 c35 -56 82 -224 106 -375 l44 -273 -250 300 c-138 165 -250 334 -251 375 0 112 279 91 351 -27z m-8270 -1498 c-38 -883 -71 -1010 -471 -1800 -237 -467 -466 -895 -511 -950 -44 -55 -227 -369 -407 -698 -1026 -1874 -3202 -4797 -3801 -5107 -151 -78 -469 -397 -708 -710 -238 -313 -489 -588 -558 -611 -179 -59 -155 271 25 340 193 74 195 336 3 336 -168 0 -453 -493 -453 -784 0 -106 -119 -271 -264 -366 l-265 -174 71 531 c78 590 401 993 794 993 268 0 588 330 1116 1150 212 330 548 803 747 1050 199 248 634 788 967 1200 333 413 728 991 877 1286 149 295 555 1015 901 1600 607 1027 1136 2086 1404 2814 71 193 212 575 314 850 156 424 190 462 221 250 21 -137 20 -677 -2 -1200z m2401 1076 c17 -150 -39 -374 -125 -497 -87 -123 -157 -310 -157 -416 0 -177 -995 -1263 -1157 -1263 -39 0 -41 292 -4 650 63 618 162 843 717 1631 235 334 682 270 726 -105z m5408 -279 c249 -478 261 -597 60 -597 -82 0 -150 66 -150 148 0 81 -108 218 -239 304 -162 106 -223 221 -189 353 82 311 291 227 518 -208z m-3205 -531 c121 -129 259 -372 308 -541 107 -372 -34 -611 -548 -928 -340 -210 -363 -212 -550 -43 -193 175 -265 445 -120 447 94 1 325 488 325 684 0 121 -32 117 -183 -20 -240 -217 -317 -208 -317 36 0 192 514 598 758 599 59 0 206 -105 327 -234z m-1330 -591 c83 -100 127 -444 68 -526 -108 -150 -901 -649 -1032 -649 -62 0 -86 70 -53 156 36 93 -45 260 -203 418 l-263 263 283 242 c240 207 348 234 731 182 246 -34 457 -73 469 -86z m3049 -79 c392 -392 523 -1172 271 -1622 -148 -265 -588 -774 -669 -774 -114 0 -63 1351 55 1450 65 55 151 207 189 337 89 296 -148 251 -303 -58 -103 -205 -106 -204 -387 37 -277 239 -279 247 -96 451 170 188 472 361 661 377 41 3 167 -86 279 -198z m5120 -1074 c-54 -135 -83 -107 -134 128 -37 165 -68 413 -71 550 -4 201 23 175 134 -128 76 -208 108 -455 71 -550z m-9444 16 c24 -245 -46 -346 -450 -651 -440 -331 -1030 -555 -1030 -391 0 38 73 281 161 542 289 847 1246 1211 1319 500z m8883 137 c52 -179 69 -460 37 -625 -59 -297 -60 -297 -130 100 -38 220 -98 501 -132 625 -98 357 118 261 225 -100z m-7120 -513 c106 -418 45 -512 -393 -604 -249 -52 -318 -24 -400 164 -55 126 -201 272 -325 327 -311 136 -287 194 200 484 366 218 453 235 625 124 110 -71 242 -294 293 -495z m1609 399 c208 -317 288 -850 207 -1380 -97 -646 -164 -713 -531 -530 -430 214 -469 406 -187 910 145 260 204 461 145 498 -55 34 -110 45 -123 26 -13 -19 -101 -160 -197 -312 -145 -231 -205 -259 -369 -171 -283 151 -250 582 72 918 342 357 764 375 983 41z m-15152 -161 c-110 -206 -217 -249 -332 -135 -66 66 216 326 361 332 43 2 30 -87 -29 -197z m20095 -200 c-1 -115 -35 -106 -145 40 -79 104 -117 233 -84 285 71 116 232 -111 229 -325z m-10284 -258 c7 -216 -106 -790 -250 -1277 -199 -678 -276 -1212 -325 -2273 -41 -878 -28 -1433 35 -1514 56 -71 127 -269 160 -441 59 -312 58 -313 -461 -380 -286 -36 -655 -110 -820 -162 -1571 -503 -2278 -756 -2734 -980 -510 -250 -1205 -459 -1279 -385 -117 117 57 370 256 370 297 0 1788 848 2531 1440 607 484 1265 870 1718 1008 149 46 165 85 71 179 -163 163 -977 -266 -1881 -993 -634 -509 -1606 -1093 -1687 -1012 -19 19 206 286 502 593 557 581 2785 2139 3210 2246 134 33 243 101 243 150 0 190 -403 74 -900 -261 -286 -192 -541 -350 -566 -350 -25 0 -278 -177 -563 -394 -284 -217 -533 -378 -553 -358 -19 20 141 276 357 569 342 465 728 1039 1073 1598 56 91 480 824 941 1628 462 804 856 1446 875 1426 20 -20 41 -212 47 -427z m-10451 147 c485 -536 10 -2885 -863 -4259 -166 -262 -54 -430 150 -224 190 193 753 1343 753 1538 0 171 343 556 496 556 168 0 325 -818 258 -1350 -35 -281 -170 -740 -299 -1020 -222 -478 -261 -511 -670 -559 -239 -28 -525 -67 -635 -86 -165 -29 -196 15 -180 249 28 394 -340 1334 -591 1510 -178 124 -200 214 -149 626 32 264 150 666 262 894 111 228 249 633 306 900 57 267 125 580 151 695 70 313 442 741 643 741 97 0 263 -95 368 -211z m18187 -293 c-77 -125 141 -415 257 -343 45 28 110 5 145 -51 88 -143 -481 -130 -624 13 -129 129 7 485 184 485 57 0 74 -47 38 -104z m-5103 -218 c268 -383 200 -657 -206 -827 -491 -205 -512 -198 -592 174 -38 179 -114 381 -169 449 -189 235 -3 426 414 426 298 0 437 -56 553 -222z m-11251 -583 c4 -195 -35 -398 -87 -450 -52 -52 -139 -275 -194 -495 -54 -220 -165 -666 -246 -991 -81 -325 -121 -659 -90 -742 38 -97 17 -125 -59 -78 -134 83 -163 1268 -35 1416 85 99 263 804 378 1495 36 220 91 442 120 493 80 139 205 -241 213 -648z m18867 432 c-33 -33 -56 26 -52 131 5 117 28 141 60 61 29 -72 26 -159 -8 -192z m-5957 -435 c115 -278 103 -325 -157 -596 -301 -315 -270 -540 36 -262 228 206 318 210 318 16 0 -220 168 -183 229 50 142 544 631 -196 521 -787 -119 -634 -427 -812 -632 -363 -63 139 -198 250 -304 250 -230 0 -330 124 -535 669 -149 395 -148 429 31 590 105 95 190 210 190 256 0 142 -223 95 -426 -89 -183 -165 -199 -164 -333 19 -121 166 -194 452 -116 457 14 0 205 64 425 141 452 157 565 104 753 -351z m2957 156 c219 -334 134 -834 -229 -1346 -154 -219 -310 -399 -346 -400 -139 -4 -139 930 0 1069 174 174 82 279 -156 176 -227 -98 -829 -136 -829 -52 0 35 182 230 403 434 495 455 909 498 1157 119z m-5867 11 c64 -78 142 -296 173 -486 48 -297 25 -352 -173 -404 -146 -38 -268 -4 -341 95 -102 140 -151 139 -495 -5 -487 -203 -472 -207 -399 116 132 591 940 1039 1235 684z m6507 -642 c0 -212 -94 -333 -205 -264 -99 61 1 447 117 447 48 0 88 -82 88 -183z m-4822 -73 c272 -191 522 -653 521 -964 0 -212 -132 -319 -674 -548 -189 -81 -151 274 68 634 232 379 182 461 -169 279 -198 -103 -264 -215 -268 -456 -6 -315 -14 -320 -531 -347 -289 -15 -525 8 -525 51 0 43 -114 201 -254 352 -201 216 -230 304 -138 415 186 224 490 163 792 -160 154 -165 330 -300 390 -300 205 0 111 314 -182 608 -226 225 -254 293 -125 296 92 1 280 67 417 146 322 184 408 183 678 -6z m3065 -301 c247 -247 149 -1252 -155 -1586 -169 -187 -211 43 -52 286 90 138 164 274 164 303 0 114 -282 47 -399 -95 -181 -218 -309 -84 -197 209 53 139 96 404 96 589 0 236 52 350 175 382 96 25 183 51 193 57 10 7 88 -59 175 -145z m-5143 -30 c0 -90 -854 -913 -948 -913 -28 0 -52 131 -52 291 0 220 79 339 325 492 344 212 675 276 675 130z m102 -1067 c130 -242 113 -275 -371 -725 -279 -259 -559 -574 -624 -699 -267 -519 -323 31 -95 931 165 655 840 960 1090 493z m-9657 -171 c-73 -240 -352 -601 -415 -538 -44 44 367 763 437 763 25 0 16 -101 -22 -225z m12772 60 c203 -184 245 -585 72 -692 -61 -37 -398 -78 -750 -91 -606 -22 -639 -11 -639 207 0 264 341 541 666 541 122 0 250 45 284 100 86 138 156 126 367 -65z m3033 -35 c34 -55 99 -332 143 -614 135 -849 -250 -1971 -788 -2297 -180 -110 -345 -182 -367 -161 -21 22 11 183 72 359 62 176 90 464 63 641 -50 325 47 606 293 852 74 74 134 176 134 227 0 192 -199 82 -453 -251 -235 -309 -287 -333 -505 -234 -209 95 -225 133 -110 269 74 88 255 371 403 630 148 259 347 517 442 572 225 131 594 135 673 7z m-4857 -241 c64 -78 144 -314 177 -525 l60 -384 -213 189 c-169 150 -243 164 -357 69 -100 -82 -201 -89 -327 -21 -101 54 -262 123 -358 153 -275 85 -206 308 150 485 409 204 717 216 868 34z m3104 -252 c96 -232 94 -366 -8 -650 -143 -395 -289 -471 -289 -150 0 233 -175 605 -340 720 -74 52 -47 125 84 225 285 217 417 183 553 -145z m-13348 -265 c374 -403 394 -729 100 -1607 -278 -832 -437 -1086 -526 -842 -28 79 -162 245 -296 370 -197 182 -232 286 -179 530 37 166 69 597 71 956 3 497 43 677 167 749 262 153 408 119 663 -156z m12647 -235 c224 -417 96 -1130 -267 -1493 -120 -120 -168 -110 -334 68 -159 171 -175 257 -90 480 71 187 70 364 -2 571 -119 342 -126 326 201 456 348 139 377 134 492 -82z m-3746 -7 c34 -55 166 -100 294 -100 145 0 252 -72 283 -192 67 -257 -104 -408 -463 -408 -164 0 -447 -116 -636 -260 -416 -317 -508 -252 -335 238 217 616 681 1007 857 722z m-10171 -85 c191 -121 260 -745 126 -1151 -108 -327 -606 -864 -802 -864 -45 0 -102 191 -128 425 -33 308 20 565 190 935 129 280 235 561 235 625 0 133 192 149 379 30z m12740 -90 c237 -276 281 -495 165 -828 -92 -265 -78 -341 104 -534 319 -340 272 -723 -139 -1134 -239 -239 -414 -335 -547 -301 -107 28 -243 -7 -302 -78 -136 -164 -484 -257 -552 -147 -29 47 235 222 587 390 710 339 898 511 847 777 -49 254 -226 224 -264 -45 -38 -266 -358 -464 -634 -392 -138 36 -220 -15 -282 -177 -113 -299 -1102 -718 -1102 -467 0 48 156 162 346 252 444 211 1085 815 1033 973 -85 254 -353 330 -646 184 l-283 -141 325 -35 c351 -37 433 -194 150 -284 -96 -31 -276 -104 -399 -163 -189 -91 -262 -66 -475 164 -315 341 -314 381 10 299 247 -62 257 -49 195 235 -56 255 -31 313 164 378 645 215 1326 -104 1206 -564 -41 -154 -17 -201 84 -168 77 26 156 155 175 287 32 220 -34 403 -438 1217 -119 241 -115 285 34 372 254 149 471 125 638 -70z m-845 -529 c118 -168 118 -205 -1 -251 -76 -29 -248 -13 -381 37 -133 49 -298 69 -367 45 -154 -54 -166 309 -20 583 104 194 108 194 368 -11 145 -113 325 -295 401 -403z m5126 194 c0 -60 93 -240 208 -401 151 -213 190 -372 142 -589 -94 -427 -249 -472 -181 -53 67 411 -112 691 -395 617 -139 -36 -174 -9 -132 101 32 83 58 215 58 293 0 78 68 142 150 142 83 0 150 -49 150 -110z m-14641 -240 c116 -177 144 -353 96 -606 -65 -352 -523 -1517 -657 -1674 -73 -86 -898 136 -898 242 0 35 61 114 136 176 112 93 579 1219 803 1937 79 252 330 215 520 -75z m18241 -150 c0 -165 -45 -300 -100 -300 -55 0 -100 135 -100 300 0 165 45 300 100 300 55 0 100 -135 100 -300z m-5645 -45 c290 -291 314 -669 78 -1218 l-166 -387 -66 300 c-91 412 -264 713 -510 885 l-207 145 226 260 c279 321 337 322 645 15z m3145 -136 c0 -309 -291 -806 -297 -506 -6 306 122 787 210 787 48 0 87 -126 87 -281z m618 -241 c-163 -163 -209 -75 -143 270 56 290 59 292 158 71 71 -159 66 -260 -15 -341z m1278 197 c-2 -179 -95 -482 -205 -675 l-201 -350 63 300 c35 165 87 469 116 675 64 460 233 497 227 50z m-9318 -80 c26 -138 -671 -695 -870 -695 -41 0 -134 111 -206 247 -119 222 -109 266 108 449 288 244 922 243 968 -1z m8722 45 c0 -201 -306 -867 -440 -958 -210 -143 -255 42 -69 280 107 136 224 380 260 543 68 310 249 409 249 135z m-2702 -365 c-2 -345 -162 -551 -311 -402 -93 93 -95 181 -6 374 142 314 320 329 317 28z m-17802 -68 c147 -274 132 -1006 -21 -1046 -504 -134 -714 -227 -748 -331 -28 -83 62 -105 291 -71 477 69 608 -65 657 -675 58 -732 -88 -1084 -452 -1084 -279 0 -282 7 -286 625 -3 453 -61 718 -213 964 -165 269 -188 392 -110 598 54 142 69 474 33 736 l-66 477 406 0 c299 0 433 -51 509 -193z m15521 -501 c52 -138 66 -464 30 -724 -61 -449 -75 -467 -281 -352 -119 66 -231 127 -249 136 -18 9 18 112 80 229 154 287 40 596 -262 711 -273 103 -232 264 100 389 254 97 446 -31 582 -389z m-13887 -324 c127 -260 152 -422 86 -550 -52 -100 -143 -306 -203 -457 -98 -248 -157 -275 -596 -275 l-488 0 -18 639 c-16 592 3 655 261 850 409 309 741 237 958 -207z m8514 228 c61 -99 -167 -210 -434 -210 -95 0 -659 -157 -1253 -350 -594 -192 -1213 -350 -1375 -350 -162 0 -371 -40 -464 -88 -92 -49 -370 -118 -618 -153 l-450 -64 450 237 c1237 651 3950 1292 4144 978z m7233 -410 c179 -595 102 -1434 -186 -2025 -254 -522 -263 -528 -518 -334 -144 109 -158 184 -75 403 56 148 102 466 102 708 0 241 52 553 116 694 158 347 11 458 -224 169 -138 -171 -204 -198 -239 -100 -83 230 -2 470 249 737 353 376 612 292 775 -252z m-5991 184 c375 -200 465 -388 183 -381 -193 5 -816 597 -628 597 22 0 222 -97 445 -216z m-8026 -257 c-33 -33 -56 26 -52 131 5 117 28 141 60 61 29 -72 26 -159 -8 -192z m11540 16 c0 -277 -165 -651 -337 -763 -199 -129 -243 144 -93 584 164 481 430 592 430 179z m-4356 -52 c-30 -49 -307 -162 -617 -252 -310 -90 -859 -315 -1220 -501 -361 -185 -664 -337 -672 -338 -9 0 -61 130 -116 289 -101 290 -100 290 565 519 1153 395 2221 542 2060 283z m3599 -435 c-45 -177 -116 -249 -211 -213 -78 30 -371 -61 -650 -202 -374 -189 -536 -227 -618 -145 -137 137 -16 224 572 410 228 72 526 209 664 304 301 210 329 192 243 -154z m-2836 -131 c213 -151 374 -320 357 -375 -19 -60 -425 -89 -1020 -73 -709 20 -1139 -20 -1519 -139 -291 -92 -553 -143 -582 -115 -74 75 733 527 1207 676 220 69 443 165 495 213 185 171 678 84 1062 -187z m-8825 -373 c53 -642 -187 -1532 -460 -1711 -196 -129 -224 -206 -166 -473 38 -175 117 -349 176 -386 74 -47 69 -138 -18 -300 -382 -715 -583 -1022 -694 -1059 -72 -24 -36 108 86 315 232 393 195 712 -111 962 -179 146 -179 167 13 728 108 318 214 836 235 1150 53 790 295 1243 642 1203 231 -27 269 -83 297 -429z m13711 185 c268 -342 272 -979 8 -1412 -196 -322 -432 -418 -551 -225 -34 55 -149 100 -256 100 -244 0 -244 -5 56 560 138 258 250 572 250 697 0 286 96 543 203 543 46 0 176 -119 290 -263z m-17254 10 c171 -171 302 -729 237 -1012 -35 -155 -64 -139 -179 99 -138 286 -309 311 -813 116 -147 -57 -153 -27 -47 281 221 641 498 819 802 516z m8591 -22 c113 -201 152 -592 72 -722 -76 -124 -120 -117 -296 41 -232 210 -265 457 -86 636 137 137 249 154 310 45z m7770 -174 c103 -193 107 -306 19 -500 -132 -289 -335 -323 -530 -87 -177 212 -177 443 0 661 196 242 354 219 511 -74z m-1686 -54 c-130 -108 -287 -196 -350 -195 -63 1 -1 90 136 198 327 256 521 253 214 -3z m-8048 -117 c135 -65 256 -261 321 -521 115 -456 544 -951 661 -762 38 61 12 181 -59 266 -101 122 -489 1080 -489 1208 0 16 115 29 255 29 236 0 734 -426 742 -635 2 -46 96 -215 210 -375 172 -242 181 -290 50 -290 -86 0 -157 -45 -157 -100 0 -55 113 -100 250 -100 208 0 250 -48 250 -284 0 -207 -69 -315 -255 -400 -236 -108 -263 -94 -360 184 -57 165 -138 300 -178 300 -155 0 -196 -134 -98 -316 86 -162 56 -207 -204 -297 -187 -65 -329 -197 -365 -339 -50 -200 -157 -250 -753 -350 -383 -65 -807 -90 -942 -56 -228 58 -242 94 -180 485 89 561 89 553 -5 1092 -60 350 -42 546 71 774 84 168 117 328 72 355 -203 125 -512 -648 -537 -1344 -15 -421 -65 -553 -267 -709 -137 -105 -318 -192 -402 -193 -84 -1 -250 -70 -369 -153 -203 -143 -231 -132 -472 184 -374 491 -337 589 206 550 352 -25 489 8 572 137 142 222 15 345 -184 180 -221 -183 -314 -37 -116 182 91 101 166 255 166 342 0 151 535 676 689 676 40 0 166 86 280 192 316 295 1079 337 1597 88z m8711 -80 c112 -179 100 -200 -118 -200 -134 0 -374 -75 -534 -167 -176 -101 -366 -139 -480 -95 -155 60 -92 123 358 358 674 351 624 344 774 104z m-13187 -164 c214 -150 229 -213 169 -718 -60 -515 -315 -1077 -637 -1407 -214 -220 -356 5 -208 330 96 211 98 370 9 704 -125 465 -29 1026 200 1171 174 111 200 107 467 -80z m10860 -60 c348 -174 750 -606 750 -805 0 -105 152 -343 338 -529 312 -312 523 -892 362 -992 -37 -23 -244 140 -459 363 -215 222 -555 489 -756 592 -991 512 -2994 773 -3825 498 -415 -137 -427 -133 -475 139 -33 182 40 192 1424 189 1111 -2 1593 -44 2020 -179 724 -228 1117 -116 515 147 -512 223 -1474 346 -2444 314 -783 -26 -868 86 -200 265 470 125 2499 124 2750 -2z m2050 -278 c0 -99 -409 -298 -612 -298 -158 0 11 205 247 301 292 117 365 117 365 -3z m-15204 -191 c325 -607 -347 -1067 -771 -528 -192 245 -151 401 150 564 370 200 499 193 621 -36z m18904 -25 c0 -229 -359 -1045 -497 -1130 -44 -28 -133 14 -198 92 -93 112 -54 228 189 564 168 232 306 483 306 557 0 74 45 135 100 135 55 0 100 -98 100 -218z m-2918 -10 c143 -173 42 -308 -417 -552 -264 -141 -453 -181 -600 -126 -118 43 -204 108 -190 142 14 35 25 107 25 160 0 96 746 479 963 496 62 4 160 -50 219 -120z m3579 -515 c-42 -167 -134 -257 -261 -257 -190 0 -191 12 -29 351 187 393 395 326 290 -94z m521 -567 c-120 -215 -259 -390 -308 -390 -115 0 5 562 202 948 l153 298 86 -234 c64 -172 29 -335 -133 -622z m-18643 452 c108 -282 66 -503 -189 -982 -304 -573 -310 -657 -40 -586 201 52 204 43 60 -235 -181 -348 -687 -739 -958 -739 -316 0 -512 110 -510 286 1 132 18 137 88 26 104 -164 819 -35 884 160 29 87 -47 93 -292 23 -458 -131 -464 -126 -169 147 144 134 291 399 327 590 53 284 102 338 263 296 218 -57 260 69 82 247 -183 183 -454 -27 -525 -406 -85 -456 -451 -779 -925 -815 -212 -16 -296 -8 -186 18 255 62 751 414 751 533 0 51 -146 3 -325 -106 -179 -109 -411 -198 -515 -199 -185 0 -185 7 -10 200 100 110 259 200 355 200 278 0 758 627 831 1086 66 412 68 414 504 414 308 0 457 -47 499 -158z m14661 77 c0 -45 -131 -207 -291 -360 -218 -210 -346 -261 -514 -207 -208 66 -193 90 216 353 467 300 589 344 589 214z m-5486 -226 c489 -250 1171 -914 1545 -1507 305 -483 775 -1859 1003 -2936 82 -385 187 -880 233 -1100 129 -609 45 -1454 -187 -1896 l-208 -396 -3 496 c-2 273 -49 811 -105 1196 -55 385 -127 889 -159 1121 -32 231 -142 497 -246 590 -103 94 -187 253 -187 354 0 102 -152 353 -339 560 -186 206 -470 600 -632 875 -257 440 -376 534 -977 785 -911 378 -2035 409 -2842 78 -685 -281 -1288 -705 -1372 -963 -36 -110 -188 -380 -337 -600 -341 -502 -861 -1427 -1223 -2173 -373 -771 -974 -3251 -1144 -4727 -340 -2945 -403 -7969 -132 -10515 108 -1018 423 -2947 609 -3735 59 -247 136 -720 173 -1050 43 -391 150 -717 306 -936 132 -186 269 -478 304 -650 38 -184 136 -327 238 -346 201 -39 1100 -919 1020 -999 -117 -117 -2148 -134 -2685 -23 -514 107 -590 158 -818 547 -138 235 -358 738 -490 1118 -131 379 -332 892 -446 1139 -115 247 -210 596 -211 774 -3 458 -225 1261 -375 1356 -72 45 -129 284 -131 550 -3 258 -63 965 -133 1570 -71 605 -138 1780 -149 2612 -11 832 -59 1645 -105 1807 -47 163 -45 876 4 1588 49 711 109 1788 134 2393 25 605 85 1258 132 1450 48 193 95 643 105 1000 10 358 64 920 119 1250 55 330 163 1005 241 1500 164 1039 255 1391 558 2150 121 302 389 1005 596 1560 520 1395 1094 2460 1402 2602 315 145 881 343 1175 410 179 41 225 8 225 -160 0 -145 63 -212 200 -212 110 0 200 -66 200 -148 0 -117 53 -127 257 -50 351 134 443 123 443 -52 0 -82 48 -150 107 -150 195 0 493 205 493 341 0 77 161 159 383 195 267 42 415 131 488 290 57 126 193 236 302 244 375 29 1142 457 1230 688 81 212 248 279 826 327 98 8 361 -78 585 -192z m7179 -24 c135 -355 -37 -1043 -362 -1444 -378 -467 -516 -508 -526 -156 -4 154 -11 349 -16 431 -8 156 305 1057 443 1275 127 200 365 145 461 -106z m-991 -73 c151 -282 39 -562 -401 -1007 -442 -446 -848 -585 -1069 -364 -134 134 -89 181 409 434 307 155 559 316 559 357 0 94 -582 -106 -656 -226 -31 -49 -143 -90 -250 -90 -344 0 -207 285 231 481 234 104 511 286 615 404 240 270 422 273 562 11z m-4574 -257 c627 -314 1334 -1032 1662 -1690 213 -428 228 -531 133 -940 -59 -252 -111 -796 -116 -1209 -17 -1333 -219 -1500 -386 -318 -61 430 -175 981 -254 1225 -78 244 -220 691 -314 993 -196 626 -550 1243 -1040 1810 -185 215 -307 390 -271 390 35 0 299 -117 586 -261z m8372 -388 c-214 -347 -200 -551 38 -551 143 0 557 771 571 1061 5 119 40 81 96 -105 66 -220 38 -405 -111 -743 -232 -523 -127 -764 203 -466 247 224 419 805 336 1137 -46 183 -30 226 65 167 151 -93 77 -1116 -92 -1285 -155 -155 -129 -466 38 -466 228 0 456 409 456 816 0 205 40 397 90 428 176 108 198 -245 48 -765 -84 -291 -159 -609 -167 -706 -7 -98 -69 -157 -136 -131 -67 26 -296 94 -509 151 -212 57 -516 240 -674 405 -159 166 -333 302 -386 302 -53 0 -326 108 -606 240 -702 332 -894 354 -941 110 -82 -427 -172 -319 -160 190 16 631 151 943 241 560 33 -139 145 -265 254 -286 108 -20 219 -73 247 -118 28 -44 169 -110 313 -146 229 -57 305 -6 599 404 388 541 543 373 187 -203z m-6655 -226 c590 -603 735 -899 580 -1177 -77 -138 -143 -72 -369 367 -152 294 -461 726 -687 960 -280 290 -359 425 -248 425 89 0 415 -259 724 -575z m-8595 275 c-34 -55 -104 -100 -156 -100 -52 0 -94 45 -94 100 0 55 70 100 156 100 86 0 128 -45 94 -100z m13110 -254 c118 -472 -184 -1249 -510 -1309 -55 -10 -167 -44 -250 -76 -82 -31 -262 31 -400 139 -190 149 -210 196 -85 198 161 2 885 979 885 1194 0 220 298 99 360 -146z m-16217 -144 c198 -75 257 -167 257 -400 0 -201 -50 -302 -149 -302 -81 0 -211 -146 -287 -325 -253 -591 -1122 -1185 -1304 -891 -34 55 72 129 234 165 322 70 806 408 806 561 0 53 -124 5 -275 -106 -151 -111 -432 -229 -625 -264 l-350 -62 419 394 c230 216 450 525 489 686 154 645 284 735 785 544z m14457 -540 c0 -260 -283 -812 -539 -1053 -147 -137 -439 -267 -684 -303 -831 -122 -948 27 -535 682 192 303 324 398 625 448 211 35 496 127 633 204 328 184 500 192 500 22z m-7300 -405 c748 -184 900 -255 900 -418 0 -76 87 -139 193 -139 188 0 296 -114 807 -853 138 -198 348 -484 469 -636 120 -151 241 -384 268 -518 28 -134 77 -367 109 -518 32 -151 119 -275 194 -275 209 0 260 -307 364 -2189 70 -1274 65 -1843 -20 -2125 -64 -212 -148 -386 -187 -386 -39 0 -129 208 -200 462 -102 362 -104 504 -10 654 66 106 86 247 44 313 -42 67 -63 201 -47 300 17 98 -22 593 -85 1100 -64 506 -128 1034 -142 1171 -121 1159 -293 1581 -1014 2492 -664 839 -1698 1134 -2964 846 -502 -114 -717 -210 -750 -336 -25 -97 -174 -272 -331 -388 -359 -265 -1134 -1344 -1404 -1954 -112 -254 -290 -789 -395 -1188 -104 -399 -280 -929 -390 -1178 -117 -265 -283 -1074 -401 -1955 -110 -826 -222 -1566 -250 -1645 -43 -124 -292 -5165 -269 -5444 4 -55 29 -753 55 -1551 26 -798 110 -1813 187 -2256 77 -442 144 -1276 149 -1852 10 -932 44 -1127 315 -1764 168 -394 305 -740 305 -769 0 -30 -107 -5 -237 54 -144 66 -279 252 -344 473 -459 1573 -717 3670 -713 5807 1 663 -39 1067 -111 1111 -130 80 -30 5109 119 5947 49 275 155 950 237 1500 81 550 197 1210 256 1466 60 256 124 571 144 700 105 705 199 1065 349 1334 92 165 197 456 235 646 38 190 273 775 524 1300 370 774 585 1079 1142 1617 743 717 1558 1189 2044 1183 168 -2 553 -64 855 -139z m-7151 -661 c-119 -373 -750 -996 -1011 -996 -283 0 -317 162 -52 246 103 32 378 285 611 562 435 516 574 574 452 188z m15087 -208 c49 -211 -17 -352 -335 -713 -218 -248 -482 -473 -587 -500 -174 -46 -182 -19 -93 304 53 194 74 472 45 617 -66 331 39 504 400 658 330 141 474 48 570 -366z m789 150 c212 -74 215 -128 34 -611 -78 -207 -168 -495 -199 -639 -32 -145 -139 -364 -240 -488 -176 -217 -193 -219 -500 -61 -284 147 -354 149 -669 18 -331 -139 -351 -136 -351 48 0 129 68 195 204 195 451 0 1196 829 1196 1331 0 273 93 395 244 321 58 -28 185 -80 281 -114z m-8475 -488 c0 -162 -57 -194 -300 -170 -165 16 -424 34 -575 39 -200 7 -275 61 -275 200 0 169 66 188 575 161 498 -26 575 -57 575 -230z m-1512 -96 c-43 -110 -526 -354 -703 -354 -140 0 20 215 286 383 339 215 506 203 417 -29z m2537 -359 c155 -222 154 -223 -234 -150 -214 40 -424 94 -465 120 -112 69 -92 279 39 410 135 135 409 -22 660 -380z m5425 355 c0 -82 -76 -150 -169 -150 -151 0 -149 -15 17 -136 180 -132 179 -145 -21 -425 -386 -538 -1003 -939 -1446 -939 -49 0 -76 349 -60 775 l29 775 590 73 c324 41 613 97 642 125 113 114 418 43 418 -98z m2939 -572 c106 -295 -235 -1532 -513 -1863 -147 -174 -247 -199 -606 -148 -348 49 -417 92 -359 222 40 88 66 294 58 457 -8 169 67 384 175 500 104 112 306 468 448 791 251 572 264 583 483 439 124 -82 265 -261 314 -398z m-9991 186 c170 -124 175 -176 54 -605 -175 -626 -78 -2015 200 -2859 149 -454 199 -800 165 -1150 -48 -502 -333 -1350 -453 -1350 -35 0 -73 259 -84 575 -12 335 -132 867 -287 1275 -342 899 -389 1123 -268 1276 54 68 129 510 166 981 60 769 46 883 -137 1116 -245 310 -258 509 -47 720 193 193 445 201 691 21z m752 -226 c0 -86 75 -140 175 -125 219 32 654 -108 737 -237 34 -53 -56 -306 -200 -561 -256 -454 -261 -502 -238 -2065 27 -1792 -29 -2552 -205 -2785 -65 -87 -318 -189 -562 -227 l-443 -69 205 290 c518 735 617 1845 265 2965 -141 447 -138 489 50 728 110 140 229 432 266 649 78 462 -100 1099 -308 1099 -172 0 -173 22 -27 342 118 261 285 258 285 -4z m-1850 -13 c-329 -804 -307 -2108 50 -3025 536 -1375 619 -1679 628 -2300 15 -1099 -473 -1695 -782 -956 -79 190 -203 381 -275 425 -72 45 -248 284 -392 533 -233 405 -246 478 -126 700 347 637 269 1844 -177 2764 -171 350 -184 466 -88 741 92 265 85 357 -37 492 -83 92 -151 212 -151 268 0 201 357 419 750 459 220 22 461 48 536 57 91 12 112 -40 64 -158z m-6494 -78 c-107 -81 -242 -146 -300 -144 -58 2 -19 69 88 150 107 81 242 146 300 144 58 -2 19 -69 -88 -150z m18244 -252 c0 -163 -308 -720 -367 -662 -71 72 189 767 287 767 44 0 80 -47 80 -105z m-18200 -145 c-137 -166 -400 -203 -400 -57 0 82 177 161 437 195 48 7 31 -55 -37 -138z m9931 -434 c296 -246 302 -820 15 -1447 -246 -538 -256 -611 -142 -1084 223 -931 -96 -2112 -636 -2359 -339 -154 -388 -65 -202 362 166 379 260 2712 109 2712 -41 0 -75 50 -75 111 0 61 65 86 144 55 100 -38 197 83 318 400 147 387 154 504 47 770 -235 583 -240 670 -47 811 163 119 196 115 252 -33 35 -94 133 -228 217 -298z m-5031 -16 c0 -111 -67 -200 -150 -200 -168 0 -175 18 -89 242 85 223 239 196 239 -42z m1897 -443 c-63 -63 -94 42 -88 298 8 390 9 392 97 97 55 -184 52 -334 -9 -395z m7759 293 c128 -304 128 -395 4 -692 -178 -425 -423 -560 -1200 -660 -336 -43 -695 -113 -800 -155 -169 -67 -182 -43 -118 216 109 443 321 715 785 1006 233 146 536 346 673 445 366 262 493 231 656 -160z m1030 261 c81 -52 110 -166 72 -287 -42 -131 -12 -220 87 -258 343 -132 -339 -1014 -711 -921 -247 62 -534 -22 -534 -156 0 -49 88 -89 196 -89 250 0 427 -324 348 -637 -51 -205 -634 -883 -649 -757 -3 24 -18 235 -32 469 -17 283 -91 473 -218 566 -183 134 -170 162 281 582 416 387 474 491 474 851 0 225 27 481 61 568 65 171 405 208 625 69z m-15686 -111 c0 -55 -45 -100 -100 -100 -55 0 -100 45 -100 100 0 55 45 100 100 100 55 0 100 -45 100 -100z m18645 -125 c-85 -282 -221 -433 -310 -343 -84 83 163 568 289 568 49 0 59 -101 21 -225z m453 -380 c-67 -162 -162 -295 -210 -295 -121 0 -113 40 84 455 200 418 308 280 126 -160z m-14175 -370 c-248 -1613 34 -2943 891 -4193 309 -451 369 -940 170 -1377 -64 -140 -199 -255 -301 -255 -102 0 -281 -56 -397 -125 -171 -101 -221 -100 -259 6 -53 145 -65 156 -802 728 -476 370 -676 691 -429 691 201 0 328 768 258 1561 -129 1454 -107 1753 187 2559 253 693 349 816 682 868 40 7 40 -202 0 -463z m13277 -134 c0 -53 -124 -34 -275 43 -151 76 -336 117 -410 91 -108 -39 -112 -6 -20 167 l115 214 295 -210 c162 -115 295 -253 295 -305z m1211 -20 c-81 -81 -111 -70 -111 42 0 199 134 334 184 185 21 -64 -12 -166 -73 -227z m-14036 -329 c-95 -96 -286 59 -215 174 42 68 98 66 170 -6 58 -58 79 -134 45 -168z m-2075 2 c0 -24 -45 -44 -100 -44 -55 0 -100 48 -100 106 0 58 45 78 100 44 55 -34 100 -82 100 -106z m3600 -38 c0 -52 -45 -122 -100 -156 -55 -34 -100 8 -100 94 0 86 45 156 100 156 55 0 100 -42 100 -94z m9700 -44 c0 -76 68 -194 150 -262 215 -179 188 -397 -142 -1133 -374 -832 -604 -973 -1020 -623 -167 141 -414 256 -548 256 -244 0 -244 2 -80 320 91 176 228 382 303 457 75 76 138 235 139 355 1 267 76 381 395 599 302 206 803 226 803 31z m-6202 -343 c0 -93 -45 -236 -100 -319 -157 -240 -307 71 -174 363 115 252 277 226 274 -44z m-4815 -869 c3 -593 -103 -1074 -197 -893 -27 51 -27 521 -2 1043 51 1033 194 926 199 -150z m8397 524 c57 -69 135 -251 174 -405 78 -312 -143 -560 -505 -566 -301 -5 -1247 -371 -1462 -565 -104 -94 -209 -149 -235 -123 -26 26 33 330 130 676 191 677 282 764 1011 965 602 166 761 169 887 18z m-3431 -699 c54 -381 17 -668 -206 -1600 -52 -214 -30 -275 95 -275 89 0 162 -44 162 -97 0 -86 -578 -35 -690 59 -22 19 59 335 180 702 135 412 195 775 157 950 -68 309 16 686 154 686 48 0 114 -191 148 -425z m-6662 -1325 l6 -400 -191 230 c-106 126 -175 284 -155 350 20 66 69 255 109 420 l73 300 75 -250 c42 -137 79 -430 83 -650z m13713 761 c0 -102 -305 -240 -374 -170 -25 25 -16 94 20 152 80 129 354 143 354 18z m-3492 -268 c252 -228 242 -390 -55 -896 -321 -549 -1119 -945 -1303 -647 -34 55 -302 100 -596 100 l-535 0 197 519 c216 568 337 695 934 984 469 227 1070 200 1358 -60z m492 145 c0 -77 49 -72 153 14 117 98 211 101 400 15 249 -114 336 -450 147 -567 -66 -41 -67 -125 -2 -246 133 -250 -638 -1251 -886 -1148 -89 37 -241 89 -337 117 -236 68 -224 123 123 542 304 370 393 762 262 1160 -45 139 -33 225 33 225 59 0 107 -51 107 -112z m2062 -443 c139 -211 220 -244 478 -195 279 53 292 45 135 -81 -211 -170 -231 -469 -32 -469 78 0 239 -124 357 -275 118 -151 697 -770 1288 -1375 590 -605 1169 -1280 1286 -1500 477 -899 954 -1955 905 -2004 -29 -29 -112 95 -185 276 -73 180 -191 364 -263 408 -72 44 -131 137 -131 206 0 69 -129 258 -286 420 -157 162 -358 436 -447 610 -201 391 -1426 1879 -1880 2284 -186 165 -467 458 -627 650 -333 403 -841 800 -1024 800 -68 0 -204 -134 -300 -297 -167 -282 -414 -459 -508 -364 -88 88 416 835 666 987 351 213 378 209 568 -81z m1238 155 c0 -55 -70 -100 -156 -100 -86 0 -128 45 -94 100 34 55 104 100 156 100 52 0 94 -45 94 -100z m600 -939 c0 -22 -67 -66 -150 -97 -82 -32 -150 -14 -150 39 0 53 68 97 150 97 83 0 150 -18 150 -39z m-8490 -578 c475 -164 890 -488 890 -696 0 -265 -189 -328 -404 -134 -269 244 -1029 155 -1546 -182 -785 -511 -978 -714 -1246 -1314 -641 -1429 -650 -3741 -20 -4906 119 -219 216 -430 216 -470 0 -39 135 -271 300 -515 330 -490 881 -780 1321 -696 232 44 259 24 210 -163 -31 -118 -171 -274 -311 -347 -731 -383 -2000 930 -2346 2427 -97 420 -202 1313 -233 1986 -61 1308 -35 1421 675 3027 449 1016 1002 1648 1672 1910 254 99 467 183 472 185 6 3 163 -48 350 -112z m2642 -258 c317 -361 309 -503 -61 -1005 -209 -285 -383 -420 -541 -420 -344 0 -550 -102 -550 -272 0 -116 61 -132 275 -69 665 195 1295 16 1036 -295 -66 -80 -93 -252 -60 -384 77 -306 -263 -754 -718 -943 -183 -77 -333 -164 -333 -193 0 -29 113 -174 250 -323 257 -276 278 -428 69 -498 -71 -24 -119 64 -119 219 0 142 -42 258 -94 258 -52 0 -67 -162 -34 -363 46 -286 28 -353 -82 -315 -88 31 -131 166 -115 361 20 245 -38 358 -275 533 -339 250 -396 428 -108 337 105 -34 218 -18 251 36 33 53 -31 126 -143 161 -332 105 -517 588 -460 1200 69 748 237 1324 492 1690 120 170 226 326 238 347 18 32 559 177 760 203 44 5 189 -114 322 -265z m7182 77 c-152 -136 -755 -301 -861 -236 -118 73 732 425 861 356 46 -24 46 -78 0 -120z m-5752 -391 c48 -497 -33 -718 -437 -1190 l-363 -423 -297 318 -297 318 219 297 c130 176 224 455 230 687 l10 391 451 -29 c434 -29 453 -44 484 -369z m-10682 89 c0 -55 -45 -100 -100 -100 -55 0 -100 45 -100 100 0 55 45 100 100 100 55 0 100 -45 100 -100z m4100 8 c0 -214 -530 -708 -759 -708 -312 0 -305 37 84 451 304 323 675 464 675 257z m-8334 -535 c-28 -68 -49 12 -47 177 3 165 25 220 50 123 26 -97 24 -232 -3 -300z m21168 228 c-123 -112 -934 -196 -934 -97 0 97 807 286 934 218 46 -24 46 -79 0 -121z m-16634 -101 c0 -55 -45 -100 -100 -100 -55 0 -100 45 -100 100 0 55 45 100 100 100 55 0 100 -45 100 -100z m-4900 -38 c0 -21 -67 -199 -150 -397 -191 -457 -193 -660 -3 -409 145 191 147 191 144 -6 -1 -110 -88 -402 -194 -650 l-191 -450 49 450 c43 388 35 416 -60 200 -180 -413 -321 -2654 -262 -4189 31 -808 17 -1400 -31 -1350 -184 189 -427 1430 -449 2289 -45 1765 327 3852 771 4325 187 199 376 294 376 187z m4701 -262 c125 -67 207 -67 249 0 205 332 817 -199 990 -858 112 -428 111 -550 -5 -773 -190 -361 -535 -544 -648 -342 -46 82 -287 180 -535 218 -497 74 -489 57 -458 955 19 566 82 900 169 900 28 0 134 -45 238 -100z m3540 -525 c-185 -344 -337 -721 -339 -838 -1 -135 -83 -235 -223 -271 -321 -84 -326 -25 -38 399 142 210 259 464 259 566 0 160 500 769 631 769 26 0 -104 -281 -290 -625z m2993 344 c306 -55 410 -133 516 -386 l134 -317 -517 52 c-462 46 -562 19 -939 -257 -573 -418 -1079 -1425 -1168 -2325 -61 -609 155 -1755 444 -2357 259 -540 346 -634 672 -724 206 -57 453 -104 549 -104 96 -1 175 -52 175 -114 0 -73 123 -93 350 -56 406 66 440 -15 125 -299 -178 -160 -353 -201 -835 -192 -715 12 -830 89 -1280 857 -1138 1942 -935 4504 468 5908 413 413 562 448 1306 314z m10216 -19 c-273 -117 -350 -117 -350 0 0 55 124 97 275 93 244 -6 252 -17 75 -93z m-14268 -615 c-18 -118 -158 -309 -312 -423 -240 -179 -293 -187 -373 -60 -157 247 -109 462 128 576 382 184 593 149 557 -93z m14918 -206 c0 -55 -71 -73 -158 -40 -87 34 -180 61 -206 61 -26 0 -21 43 11 96 72 116 353 23 353 -117z m-15010 -849 c-128 -319 -240 -593 -248 -609 -9 -16 -134 25 -279 91 -376 171 -328 445 129 733 215 136 422 297 460 358 37 60 91 87 120 59 28 -29 -54 -313 -182 -632z m4499 248 c-104 -39 -254 -47 -332 -17 -83 32 -334 -120 -595 -361 -572 -527 -769 -1096 -794 -2290 -20 -986 -136 -904 -232 164 -92 1013 122 1784 640 2305 550 553 783 638 1186 432 278 -142 293 -169 127 -233z m6211 222 c-196 -126 -400 -126 -400 0 0 55 124 99 275 98 214 -1 242 -22 125 -98z m-10087 -1875 c15 -1390 10 -1342 231 -2481 147 -757 252 -1013 685 -1670 384 -583 614 -825 923 -975 226 -109 459 -199 517 -199 220 0 295 -248 178 -590 -76 -220 -143 -297 -192 -218 -50 81 -203 101 -452 58 -301 -50 -390 -29 -442 108 -92 238 -40 259 325 132 243 -85 354 -81 469 14 127 106 76 150 -333 289 -675 228 -1277 755 -1652 1446 -176 323 -385 706 -464 850 -351 638 -532 3249 -261 3778 80 156 168 362 197 458 28 96 98 175 155 175 64 0 108 -443 116 -1175z m6587 1086 c0 -49 -68 -116 -150 -147 -91 -35 -150 0 -150 89 0 81 68 147 150 147 82 0 150 -40 150 -89z m-9507 -161 c-24 -55 -130 -101 -235 -102 -106 -1 -211 -58 -234 -125 -22 -68 31 -123 118 -123 219 0 198 -171 -35 -296 -285 -153 -307 -136 -307 231 0 248 58 363 225 444 265 130 529 113 468 -29z m751 -385 c282 -282 509 -1200 418 -1687 -85 -453 -495 -708 -696 -433 -134 183 -581 187 -991 10 -158 -69 -175 -1 -175 723 0 759 12 803 237 860 131 33 358 217 505 411 317 415 391 427 702 116z m1049 -128 c256 -327 267 -841 23 -1142 l-184 -227 -60 642 c-33 353 -90 721 -127 816 -101 264 114 208 348 -89z m12157 -137 c-34 -55 -104 -100 -156 -100 -52 0 -94 45 -94 100 0 55 70 100 156 100 86 0 128 -45 94 -100z m-19033 -1926 c40 -1525 -13 -1922 -166 -1249 -100 437 -161 2550 -85 2925 116 573 208 -39 251 -1676z m22643 1053 c-33 -33 -56 26 -52 131 5 117 28 141 60 61 29 -72 26 -159 -8 -192z m-9506 -189 c147 -96 246 -256 246 -400 0 -276 20 -269 -381 -130 -308 108 -489 397 -370 591 88 142 220 126 505 -61z m3746 -194 c0 -24 -45 -44 -100 -44 -55 0 -100 48 -100 106 0 58 45 78 100 44 55 -34 100 -82 100 -106z m2988 -134 c208 -132 39 -310 -294 -310 -336 0 -369 71 -119 261 209 158 235 161 413 49z m-13088 -167 c0 -122 -241 -499 -390 -609 -287 -212 -315 -27 -49 322 235 308 439 441 439 287z m334 -413 c72 -442 56 -468 -181 -295 -134 99 -165 204 -116 399 94 376 226 330 297 -104z m-1913 -149 c-51 -51 -221 -60 -378 -20 -250 62 -261 80 -91 140 254 89 592 3 469 -120z m-523 -433 c-70 -84 -147 -132 -172 -107 -70 69 71 259 192 259 66 0 59 -57 -20 -152z m1183 59 c71 -4 214 -198 317 -432 152 -344 173 -543 114 -1046 -88 -734 -280 -989 -814 -1079 -212 -36 -511 -175 -666 -308 l-282 -243 -50 776 -50 775 375 333 c336 299 375 384 375 818 0 472 8 484 275 449 151 -20 334 -39 406 -43z m1063 -129 c212 -303 196 -611 -44 -828 -194 -176 -200 -175 -200 38 0 120 -64 371 -141 557 -78 186 -116 365 -84 397 120 120 319 51 469 -164z m-1944 -401 c0 -248 -270 -577 -472 -577 -100 0 -122 66 -74 225 179 602 546 838 546 352z m2457 -553 c-101 -101 -285 150 -204 280 55 89 100 76 170 -49 52 -93 68 -197 34 -231z m-20 -633 c93 -465 77 -871 -37 -941 -55 -34 -100 21 -100 122 0 274 -285 628 -506 628 -254 0 -246 181 20 465 271 288 533 173 623 -274z m563 -253 c0 -238 -174 -150 -225 113 -38 203 -22 229 89 138 75 -63 136 -175 136 -251z m-1061 -396 c117 -304 60 -1441 -91 -1815 -106 -264 -265 -431 -528 -557 -220 -106 -484 -354 -638 -600 -278 -446 -468 -1405 -299 -1509 54 -34 129 -286 167 -561 38 -275 106 -500 151 -500 46 0 154 -27 241 -61 122 -46 158 6 158 231 0 160 108 513 240 785 241 498 435 1277 436 1749 0 140 90 455 199 700 109 246 227 565 261 710 83 351 350 444 589 205 346 -345 486 -1518 265 -2220 -60 -192 -121 -416 -135 -499 -14 -82 -55 -307 -91 -500 -36 -192 -84 -779 -107 -1303 -23 -524 -96 -1073 -162 -1219 -136 -298 -71 -578 134 -578 83 0 143 126 153 325 9 179 41 865 71 1525 41 881 120 1400 298 1950 133 413 255 975 271 1250 27 479 40 500 319 500 229 0 334 -75 488 -350 171 -306 185 -445 113 -1100 -103 -929 -160 -2203 -144 -3231 l13 -781 -431 31 c-366 26 -425 61 -398 231 184 1145 205 1557 111 2146 -98 616 -278 1029 -305 699 -6 -80 -2 -190 10 -245 93 -422 101 -1716 13 -1890 -59 -115 -119 -456 -134 -757 -27 -539 -32 -548 -344 -563 -233 -12 -329 34 -365 172 -70 265 -268 234 -268 -42 0 -303 179 -470 503 -470 150 0 362 -106 495 -247 204 -218 212 -255 67 -311 -230 -88 -472 23 -409 187 51 135 -517 371 -893 371 -89 0 -163 34 -163 75 -1 41 -125 210 -277 375 -415 452 -554 708 -975 1800 -212 550 -422 1043 -467 1095 -44 52 -82 232 -83 400 0 168 -66 485 -145 705 -241 668 -197 1167 133 1506 367 378 629 889 554 1084 -73 191 914 1260 1164 1260 96 0 202 -71 235 -158z m1321 -505 c197 -515 80 -792 -211 -501 -90 90 -273 164 -406 164 -294 0 -294 7 -43 501 249 487 429 442 660 -164z m640 -249 c0 -49 -67 -88 -150 -88 -86 0 -150 90 -150 212 0 178 25 192 150 88 83 -68 150 -164 150 -212z m-3900 12 c0 -55 -48 -100 -106 -100 -58 0 -78 45 -44 100 34 55 82 100 106 100 24 0 44 -45 44 -100z m-82 -522 c-71 -71 -118 -77 -118 -15 0 134 118 252 185 185 28 -28 -2 -105 -67 -170z m4162 102 c213 -213 143 -479 -130 -495 -137 -8 -306 -19 -375 -25 -142 -11 -111 323 47 515 129 158 303 160 458 5z m-3874 -468 c-202 -396 -555 -665 -435 -332 98 270 434 720 538 720 52 0 6 -174 -103 -388z m-431 63 c-47 -142 -208 -126 -258 25 -19 55 41 100 133 100 92 0 148 -56 125 -125z m4925 -325 c0 -99 99 -150 293 -150 528 0 636 -224 555 -1142 -39 -444 -78 -1286 -87 -1871 -11 -731 -59 -1114 -153 -1227 -160 -194 -60 -352 114 -178 65 65 154 118 198 118 121 0 96 -378 -31 -457 -79 -48 -75 -90 12 -144 92 -56 75 -126 -64 -273 -103 -109 -313 -362 -466 -562 -176 -229 -363 -364 -506 -364 -125 0 -314 -66 -421 -147 -286 -216 -611 -190 -675 53 -66 252 138 351 417 201 135 -72 223 -74 264 -7 35 56 -8 128 -94 161 -300 116 -153 254 240 226 459 -33 584 46 407 259 -183 221 -61 450 204 381 121 -31 200 -17 176 33 -278 574 -387 891 -431 1256 -28 239 -79 563 -112 721 -46 215 -27 275 74 242 88 -29 154 -270 186 -679 33 -421 97 -650 190 -681 109 -36 126 26 75 280 -36 179 -65 545 -65 814 0 454 -17 487 -252 487 -209 0 -244 39 -204 225 280 1314 291 1924 41 2400 -60 113 -55 175 11 175 57 0 104 -67 104 -150z m2048 -731 c32 -84 18 -179 -32 -211 -50 -32 -96 -324 -103 -650 -14 -663 -23 -686 -237 -604 -152 58 -476 1021 -476 1414 0 172 64 205 395 205 262 0 414 -52 453 -154z m-5624 -641 c-166 -345 -339 -718 -384 -828 -67 -164 -88 -134 -117 169 -39 414 186 942 511 1199 117 93 231 150 253 129 22 -22 -96 -323 -263 -669z m6206 666 c167 -64 132 -262 -243 -1394 -164 -494 -242 -632 -267 -469 -20 127 13 370 72 540 60 170 108 478 108 686 0 345 77 693 153 693 17 0 96 -25 177 -56z m1298 -269 c219 -207 236 -294 215 -1075 -13 -467 -88 -1056 -168 -1307 -124 -391 -125 -533 -8 -990 140 -547 126 -673 -61 -557 -59 36 -83 187 -54 335 83 429 -104 -13 -330 -778 -212 -718 -302 -795 -1382 -1184 -944 -339 -1074 -287 -528 210 254 232 514 522 578 645 147 283 572 1763 639 2226 29 193 99 530 157 750 58 220 134 749 168 1175 59 730 77 775 299 775 130 0 344 -101 475 -225z m-7028 -461 c0 -249 -502 -1224 -599 -1164 -77 47 50 568 289 1181 115 294 310 283 310 -17z m8154 -412 c22 -315 -45 -929 -157 -1442 -192 -879 -194 -1222 -5 -750 134 337 122 127 -25 -430 -150 -569 -315 -769 -230 -280 l61 350 -141 -350 c-78 -192 -145 -446 -149 -563 -8 -224 -270 -508 -373 -405 -34 34 36 300 154 592 301 741 424 1445 480 2757 40 934 75 1125 198 1100 105 -22 161 -195 187 -579z m534 -305 c-2 -615 27 -728 230 -897 136 -113 387 -195 607 -197 206 -2 375 -20 375 -41 0 -21 -66 -196 -147 -391 -179 -427 -959 -1246 -1531 -1607 -480 -303 -622 -328 -622 -108 0 86 36 134 80 107 305 -189 715 1144 719 2337 4 869 92 1500 209 1500 45 0 81 -316 80 -703z m-4025 -412 c193 -213 93 -602 -146 -563 -133 22 -161 -41 -139 -317 16 -190 2 -413 -30 -497 -51 -133 -70 -134 -152 -5 -107 169 -131 2029 -28 2132 38 38 130 -77 205 -255 75 -178 205 -401 290 -495z m1203 290 c-28 -69 -50 -12 -50 125 0 138 22 194 50 125 28 -69 28 -181 0 -250z m-167 -747 c-108 -169 -111 -168 -57 5 32 101 63 258 70 350 10 150 16 150 56 -5 25 -94 -6 -252 -69 -350z m-699 -228 c-70 -169 -149 -284 -177 -256 -27 27 7 187 77 356 70 169 149 284 177 256 27 -27 -7 -187 -77 -356z m598 -425 c-2 -182 -177 -430 -251 -356 -35 35 -13 158 48 272 127 236 206 269 203 84z m1637 -229 c-33 -85 -81 -133 -107 -107 -27 26 -18 96 18 154 98 160 156 129 89 -47z m-2461 -296 c-104 -339 -275 -480 -273 -225 3 284 131 575 251 575 101 0 106 -75 22 -350z m286 77 c-101 -102 -185 51 -102 186 63 102 87 102 121 1 23 -70 15 -154 -19 -187z m-6457 -474 c70 -219 188 -458 262 -532 74 -75 135 -258 135 -408 0 -295 159 -513 375 -513 74 0 289 -150 478 -333 295 -286 544 -404 1328 -628 317 -90 -43 -239 -579 -239 l-585 0 -634 658 c-676 703 -930 1085 -830 1248 35 55 -34 264 -152 464 -141 241 -193 448 -152 611 76 302 185 200 354 -328z m6323 -112 c33 -33 -25 -199 -128 -368 -103 -170 -164 -348 -134 -395 85 -138 -209 -516 -786 -1009 -448 -382 -624 -467 -1081 -520 -399 -47 -506 -36 -397 42 83 58 245 107 361 107 116 1 296 117 400 257 104 141 347 374 539 519 287 216 316 224 159 44 -315 -362 -94 -368 236 -7 168 183 305 433 305 554 0 121 68 288 150 371 83 82 150 220 150 307 0 158 116 208 226 98z m-9633 -1422 c4 -72 -38 -103 -93 -69 -55 34 -97 183 -93 331 6 240 16 248 93 69 47 -110 89 -259 93 -331z"/>
<path d="M17562 46483 c-147 -226 -247 -431 -222 -456 93 -93 545 330 588 550 75 380 -82 339 -366 -94z"/>
<path d="M15956 43175 c-20 -69 -62 -202 -92 -297 -56 -173 85 -347 165 -205 119 211 165 627 70 627 -58 0 -122 -56 -143 -125z"/>
<path d="M7345 34874 c-26 -69 -6 -350 45 -623 51 -274 74 -529 50 -567 -23 -38 71 -281 209 -541 138 -260 251 -534 251 -608 0 -74 45 -135 100 -135 170 0 109 534 -97 847 -115 175 -173 386 -141 514 30 119 6 247 -54 284 -59 37 -108 267 -108 511 0 416 -147 599 -255 318z"/>
<path d="M8500 33242 c0 -177 215 -146 277 39 22 66 -32 119 -119 119 -87 0 -158 -71 -158 -158z"/>
<path d="M7135 32746 c-33 -85 -33 -182 0 -215 71 -71 365 155 365 281 0 151 -303 96 -365 -66z"/>
<path d="M13900 20800 c0 -55 20 -100 44 -100 24 0 72 45 106 100 34 55 14 100 -44 100 -58 0 -106 -45 -106 -100z"/>
<path d="M8799 10575 c-109 -179 -198 -416 -199 -528 0 -111 -61 -291 -137 -400 -280 -405 -622 -2250 -511 -2757 110 -500 302 -282 263 299 l-34 520 270 -68 c245 -62 264 -47 202 150 -40 125 -18 281 51 364 95 114 93 145 -6 145 -69 0 -186 -79 -259 -175 -119 -157 -133 -143 -136 143 -2 251 43 325 214 350 201 29 219 93 231 806 11 627 55 831 233 1071 244 331 266 405 118 405 -56 0 -191 -146 -300 -325z"/>
<path d="M7207 8359 c-74 -90 -106 -193 -70 -230 94 -93 294 129 246 273 -28 83 -82 69 -176 -43z"/>
<path d="M10699 52025 c0 -437 -129 -1459 -252 -2000 -62 -275 201 -314 335 -50 130 255 149 2525 21 2525 -57 0 -103 -214 -104 -475z"/>
<path d="M11855 52375 c-63 -202 -368 -1695 -425 -2075 -65 -433 -353 -759 -800 -907 -436 -143 -426 -479 18 -626 622 -206 653 -396 195 -1196 -257 -449 -291 -571 -162 -571 139 0 733 1297 700 1528 -17 122 -153 279 -306 352 -333 159 -345 242 -52 371 302 135 664 698 660 1029 -2 148 91 695 206 1215 116 520 211 959 211 975 0 92 -213 10 -245 -95z"/>
<path d="M9942 46075 c-156 -344 -301 -659 -321 -700 -21 -41 10 -75 69 -75 158 0 596 703 670 1077 106 530 -111 373 -418 -302z"/>
<path d="M7700 45555 c0 -104 95 -155 287 -155 157 0 407 -95 555 -211 301 -237 408 -203 312 98 -67 212 -160 254 -779 359 -299 50 -375 32 -375 -91z"/>
<path d="M0 28114 c0 -115 866 -442 1025 -388 69 23 -64 140 -296 258 -440 225 -729 277 -729 130z"/>
<path d="M0 26507 c0 -52 124 -108 275 -125 190 -22 271 -86 261 -207 -17 -222 249 -230 333 -11 39 101 -8 217 -122 300 -210 154 -747 184 -747 43z"/>
<path d="M15775 19230 c-250 -64 -228 -430 26 -430 174 0 185 -26 79 -195 -166 -266 -113 -291 495 -231 598 59 650 172 250 546 -298 279 -575 380 -850 310z"/>
<path d="M12400 19050 c-135 -163 -103 -183 142 -89 87 33 158 101 158 150 0 138 -162 105 -300 -61z"/>
<path d="M16044 18058 c-246 -180 -162 -261 335 -328 461 -62 661 120 367 335 -237 173 -458 171 -702 -7z"/>
<path d="M16475 17392 c-257 -150 -214 -268 125 -342 305 -67 419 -250 156 -250 -275 0 -266 -201 13 -300 155 -55 366 -149 469 -209 328 -190 409 118 102 387 -162 143 -236 288 -198 388 36 93 -12 215 -115 294 -212 160 -321 167 -552 32z"/>
<path d="M21855 17175 c-55 -181 -173 -1079 -183 -1393 -9 -282 163 -922 384 -1432 71 -165 228 -525 347 -800 348 -798 614 -1658 693 -2238 112 -817 -194 -2072 -479 -1963 -73 28 -194 51 -267 51 -74 0 -164 135 -200 300 -36 165 -113 300 -170 300 -57 0 -80 -91 -50 -202 38 -146 9 -195 -103 -175 -86 15 -175 -26 -198 -91 -23 -68 280 -273 704 -477 410 -197 788 -414 839 -482 161 -213 424 -1168 364 -1324 -65 -170 118 -205 219 -41 134 217 -195 1314 -490 1630 l-287 307 174 553 c276 870 273 1620 -9 2482 -133 410 -243 852 -243 983 0 130 -39 237 -88 237 -48 0 -231 349 -408 775 -341 826 -491 1769 -332 2083 115 227 48 1042 -86 1042 -51 0 -110 -56 -131 -125z"/>
<path d="M15966 16632 c-36 -36 -66 -153 -66 -259 0 -260 -472 -860 -1413 -1797 -824 -820 -1021 -1238 -790 -1671 99 -185 202 -215 734 -213 979 3 1111 -20 1250 -211 72 -100 253 -181 404 -181 439 0 1298 -346 1617 -652 298 -286 335 -560 152 -1135 -90 -283 291 -513 851 -513 253 0 836 -112 1295 -250 857 -257 1201 -307 1199 -175 -1 94 -1303 503 -2299 724 -431 95 -746 215 -740 283 6 65 17 208 25 318 8 110 79 200 157 200 238 0 385 938 249 1593 -145 698 -50 1795 206 2372 154 350 242 435 447 435 141 0 256 41 256 92 0 50 27 163 61 250 90 234 -129 193 -507 -96 -702 -535 -1002 -1970 -726 -3474 80 -431 77 -607 -11 -695 -89 -89 -117 -82 -117 32 0 82 -129 303 -287 492 l-287 344 202 386 c180 346 194 501 135 1502 -77 1304 -190 1528 -866 1730 -246 74 -461 135 -479 135 -105 5 58 -440 182 -497 441 -204 553 -286 580 -427 26 -129 -37 -121 -379 48 -415 206 -689 163 -385 -59 124 -91 140 -166 65 -300 -122 -218 -116 -223 365 -384 496 -165 627 -439 167 -347 -261 53 -313 32 -313 -123 0 -102 158 -305 350 -452 193 -147 350 -332 350 -412 0 -202 -125 -181 -327 55 -289 337 -494 259 -456 -175 30 -344 10 -378 -241 -407 l-274 -31 64 613 c64 617 -95 1885 -280 2233 -70 132 -54 251 58 422 86 131 156 302 156 379 0 173 -243 390 -334 298z m-766 -2726 c0 -808 -118 -962 -668 -872 -357 57 -527 197 -530 433 -3 174 1003 1242 1108 1177 49 -31 90 -363 90 -738z"/>
<path d="M19975 16370 c-419 -166 -329 -296 150 -217 490 81 518 96 429 240 -79 128 -211 122 -579 -23z"/>
<path d="M20969 16436 c-112 -113 36 -236 284 -236 173 0 225 42 183 150 -58 151 -348 205 -467 86z"/>
<path d="M20025 15334 c-69 -28 -125 -112 -125 -187 0 -108 62 -115 300 -32 165 58 300 145 300 195 0 95 -265 109 -475 24z"/>
<path d="M19000 14850 c-132 -159 -34 -195 241 -90 87 34 133 101 103 150 -81 132 -203 110 -344 -60z"/>
<path d="M20811 14763 c-99 -119 -83 -159 91 -214 281 -89 374 17 183 208 -133 134 -167 135 -274 6z"/>
<path d="M20025 13790 c-323 -120 -278 -190 125 -190 193 0 350 40 350 89 0 143 -231 192 -475 101z"/>
<path d="M18946 13693 c-36 -58 -45 -127 -20 -152 69 -70 374 68 374 170 0 125 -274 111 -354 -18z"/>
<path d="M21244 13591 c-31 -50 62 -136 206 -191 347 -132 475 -126 427 20 -51 153 -558 291 -633 171z"/>
<path d="M19190 12638 c-116 -139 -108 -156 55 -125 104 21 207 93 230 162 59 178 -126 155 -285 -37z"/>
<path d="M20500 12515 c0 -46 135 -88 300 -93 165 -5 300 33 300 85 0 51 -135 93 -300 93 -165 0 -300 -38 -300 -85z"/>
<path d="M21662 12020 c-27 -45 82 -131 244 -192 335 -126 500 8 203 167 -234 126 -380 134 -447 25z"/>
<path d="M19150 11600 c-36 -58 66 -100 244 -100 168 0 306 45 306 100 0 55 -110 100 -244 100 -134 0 -272 -45 -306 -100z"/>
<path d="M20560 11417 c-32 -52 34 -118 147 -148 124 -32 190 -10 167 58 -50 150 -242 205 -314 90z"/>
<path d="M22000 11004 c0 -120 396 -341 473 -265 82 83 -176 361 -335 361 -76 0 -138 -43 -138 -96z"/>
<path d="M19117 10812 c-107 -67 -100 -97 33 -148 259 -99 350 -77 350 86 0 165 -176 194 -383 62z"/>
<path d="M20744 10547 c217 -164 456 -194 456 -58 0 106 -248 212 -483 208 -144 -3 -140 -24 27 -150z"/>
<path d="M21000 8808 c0 -51 146 -124 325 -163 179 -39 460 -182 625 -318 513 -422 850 -1227 514 -1227 -75 0 -311 -233 -525 -519 -476 -634 -1588 -1551 -2789 -2299 -1227 -764 -1747 -1013 -2961 -1416 -571 -191 -1286 -437 -1589 -547 -302 -111 -724 -234 -936 -274 -362 -67 -382 -58 -318 142 37 117 31 212 -14 210 -158 -6 -451 -285 -396 -375 55 -88 -1536 -356 -2804 -473 -339 -32 -1532 -56 -2650 -55 -2038 2 -3667 158 -4724 452 -280 77 -710 169 -958 203 -247 34 -736 130 -1085 214 -613 146 -852 127 -658 -53 111 -105 1195 -367 1893 -459 275 -36 682 -126 905 -200 878 -292 3197 -472 5326 -412 2050 57 2947 141 4769 444 550 92 1525 167 2167 167 641 0 1200 34 1241 75 42 41 -243 75 -633 75 -390 0 -780 27 -866 60 -223 86 -95 240 199 240 135 0 523 113 861 250 339 138 703 250 811 250 107 0 529 184 936 409 862 476 952 450 1137 -322 85 -355 90 -534 15 -609 -62 -62 -457 -98 -939 -87 -457 11 -943 -25 -1080 -79 -189 -76 -19 -97 701 -87 531 7 1071 -38 1225 -103 247 -105 275 -167 275 -611 0 -778 -31 -811 -761 -811 -384 0 -639 -42 -639 -106 0 -69 155 -83 440 -40 514 77 860 -8 860 -211 0 -79 41 -143 92 -143 150 0 238 1240 150 2126 -44 453 -80 970 -79 1148 1 233 -52 341 -191 385 -157 50 -74 137 451 476 354 228 766 485 915 571 149 86 601 455 1003 820 l733 663 238 -361 c257 -390 391 -485 805 -572 147 -31 408 -174 581 -319 247 -209 306 -329 282 -574 -26 -270 -76 -318 -383 -368 -194 -31 -497 -163 -673 -293 -318 -235 -328 -236 -1647 -128 -730 60 -1412 143 -1516 184 -138 54 -176 36 -142 -67 64 -193 699 -275 2194 -284 1202 -7 1270 4 1415 218 114 168 183 196 270 113 86 -83 90 -304 16 -850 -78 -574 -31 -2215 82 -2863 2 -14 70 -25 152 -25 117 0 127 53 49 258 -123 325 -132 2769 -11 3261 50 203 186 491 302 639 117 148 212 324 212 392 0 254 -418 640 -876 809 -840 308 -1252 886 -899 1259 467 493 461 1118 -15 1657 -402 456 -1410 837 -1410 533z"/>
<path d="M19500 8371 c0 -180 279 -426 374 -330 83 83 -92 382 -256 436 -65 22 -118 -26 -118 -106z"/>
<path d="M18300 8300 c0 -55 70 -100 156 -100 86 0 128 45 94 100 -34 55 -104 100 -156 100 -52 0 -94 -45 -94 -100z"/>
<path d="M20656 8153 c253 -192 453 -193 380 -3 -31 83 -174 150 -316 150 -248 0 -251 -6 -64 -147z"/>
<path d="M18902 7566 c2 -203 172 -394 287 -323 178 110 128 329 -89 386 -115 30 -199 3 -198 -63z"/>
<path d="M21401 7633 c4 -217 132 -533 217 -533 139 0 54 527 -93 576 -69 22 -124 3 -124 -43z"/>
<path d="M17900 7543 c0 -107 309 -367 367 -309 101 100 -55 366 -214 366 -84 0 -153 -26 -153 -57z"/>
<path d="M22200 7444 c0 -86 45 -128 100 -94 55 34 100 104 100 156 0 52 -45 94 -100 94 -55 0 -100 -70 -100 -156z"/>
<path d="M20359 7035 c104 -442 261 -541 223 -143 -18 189 -90 362 -161 385 -96 31 -112 -33 -62 -242z"/>
<path d="M16900 7112 c0 -102 415 -230 493 -153 64 65 -201 237 -368 239 -69 1 -125 -38 -125 -86z"/>
<path d="M23066 6656 c-146 -136 -266 -293 -266 -350 0 -57 191 -225 425 -374 234 -149 526 -360 650 -469 123 -108 248 -173 277 -144 125 124 -98 374 -558 625 -521 283 -642 563 -320 744 96 53 148 123 116 155 -32 33 -178 -52 -324 -187z"/>
<path d="M18800 6400 c0 -55 72 -100 159 -100 88 0 183 -90 212 -200 73 -278 229 -251 229 39 0 232 -164 361 -458 361 -78 0 -142 -45 -142 -100z"/>
<path d="M16400 6250 c68 -82 185 -150 259 -150 79 0 111 62 77 150 -31 83 -148 150 -259 150 -168 0 -181 -25 -77 -150z"/>
<path d="M17700 6355 c0 -72 467 -555 536 -555 132 0 57 276 -119 435 -169 153 -417 224 -417 120z"/>
<path d="M20800 6250 c0 -82 45 -150 100 -150 55 0 100 68 100 150 0 83 -45 150 -100 150 -55 0 -100 -67 -100 -150z"/>
<path d="M14700 5904 c0 -146 377 -323 447 -209 32 52 -30 142 -138 200 -243 130 -309 132 -309 9z"/>
<path d="M15869 5721 c-56 -108 190 -529 265 -454 119 120 69 410 -81 468 -81 31 -163 24 -184 -14z"/>
<path d="M19575 5727 c-75 -151 -23 -361 100 -402 73 -24 125 43 125 161 0 209 -157 376 -225 241z"/>
<path d="M13800 5324 c0 -104 407 -350 472 -285 111 111 -75 361 -269 361 -112 0 -203 -34 -203 -76z"/>
<path d="M17133 5188 c36 -131 65 -326 66 -433 1 -139 32 -164 109 -87 146 146 76 655 -98 713 -105 34 -124 -15 -77 -193z"/>
<path d="M700 5050 c0 -137 45 -250 100 -250 55 0 100 113 100 250 0 138 -45 250 -100 250 -55 0 -100 -112 -100 -250z"/>
<path d="M13173 5039 c-97 -96 38 -339 188 -339 76 0 139 39 139 88 0 124 -257 322 -327 251z"/>
<path d="M18355 5008 c-41 -66 -50 -147 -19 -177 31 -31 -11 -186 -93 -344 -204 -396 49 -398 282 -2 142 240 148 314 37 465 -97 133 -151 148 -207 58z"/>
<path d="M1800 4600 c0 -165 45 -300 100 -300 55 0 100 135 100 300 0 165 -45 300 -100 300 -55 0 -100 -135 -100 -300z"/>
<path d="M15200 4820 c0 -125 226 -320 370 -320 184 0 162 266 -28 339 -217 83 -342 76 -342 -19z"/>
<path d="M3100 4600 c0 -55 42 -100 93 -100 52 0 124 -95 160 -210 44 -139 100 -177 166 -111 131 131 -74 521 -273 521 -80 0 -146 -45 -146 -100z"/>
<path d="M4600 4371 c0 -180 279 -426 374 -330 83 83 -92 382 -256 436 -65 22 -118 -26 -118 -106z"/>
<path d="M9500 4461 c0 -161 292 -555 346 -468 100 162 -38 507 -203 507 -79 0 -143 -17 -143 -39z"/>
<path d="M6058 4313 c-29 -47 31 -163 134 -256 223 -201 396 -34 204 197 -136 165 -259 187 -338 59z"/>
<path d="M7360 4316 c-32 -51 5 -146 82 -210 83 -68 164 -77 198 -22 32 51 -5 146 -82 210 -83 68 -164 77 -198 22z"/>
<path d="M560 4033 c87 -360 119 -394 251 -262 155 155 68 471 -141 511 -149 29 -167 -12 -110 -249z"/>
<path d="M11051 4201 c-35 -56 7 -129 93 -162 86 -33 156 -123 156 -200 0 -182 163 -179 233 4 79 206 -370 539 -482 358z"/>
<path d="M14600 4092 c0 -244 234 -210 282 41 19 99 -32 167 -125 167 -92 0 -157 -85 -157 -208z"/>
<path d="M17400 4050 c0 -169 46 -251 125 -225 69 23 125 124 125 225 0 101 -56 202 -125 225 -79 26 -125 -56 -125 -225z"/>
<path d="M8318 3950 c119 -262 382 -344 382 -120 0 166 -202 370 -368 370 -100 0 -103 -54 -14 -250z"/>
<path d="M12633 3888 c36 -131 65 -304 66 -384 1 -119 34 -114 174 26 132 132 148 214 68 341 -177 281 -381 292 -308 17z"/>
<path d="M16074 3779 c-61 -397 -28 -448 178 -277 173 144 163 511 -15 570 -63 20 -135 -109 -163 -293z"/>
<path d="M2451 3725 c39 -96 94 -254 122 -350 28 -96 90 -175 139 -175 131 0 107 441 -32 580 -178 178 -312 145 -229 -55z"/>
<path d="M4000 3462 c0 -185 265 -400 341 -276 89 144 -43 414 -202 414 -76 0 -139 -62 -139 -138z"/>
<path d="M13725 3350 c0 -137 34 -250 75 -250 135 0 319 288 253 396 -122 197 -328 105 -328 -146z"/>
<path d="M5600 3443 c0 -98 280 -343 393 -343 142 0 136 131 -13 280 -123 123 -380 165 -380 63z"/>
<path d="M7100 3200 c0 -55 42 -100 93 -100 52 0 122 -90 157 -200 35 -110 105 -200 157 -200 134 0 115 338 -27 480 -146 146 -380 158 -380 20z"/>
<path d="M10454 3207 c-31 -51 -13 -120 40 -153 53 -33 72 -126 41 -207 -34 -89 3 -147 94 -147 201 0 302 292 160 463 -132 159 -253 175 -335 44z"/>
<path d="M12265 3000 c36 -178 9 -361 -65 -450 -83 -100 -88 -150 -15 -150 61 0 182 109 270 243 124 190 135 290 49 450 -164 307 -308 251 -239 -93z"/>
<path d="M15067 3093 c-100 -117 -155 -239 -122 -272 87 -86 385 239 341 372 -22 65 -113 23 -219 -100z"/>
<path d="M1300 2900 c0 -165 42 -300 93 -300 122 0 238 369 158 499 -123 198 -251 96 -251 -199z"/>
<path d="M9202 2925 c2 -291 171 -492 303 -360 84 84 85 168 1 324 -137 256 -307 276 -304 36z"/>
<path d="M21064 2893 c-852 -208 -1309 -710 -1420 -1559 -56 -431 -30 -582 163 -925 158 -282 297 -409 446 -409 l216 0 -253 512 c-312 630 -335 1390 -53 1703 315 347 745 508 1398 522 556 12 658 -18 914 -263 338 -324 450 -275 307 135 -84 242 -157 291 -429 291 -181 0 -457 20 -615 44 -159 23 -462 1 -674 -51z"/>
<path d="M3279 2500 c-29 -198 -1 -300 82 -300 147 0 281 352 190 499 -115 186 -228 104 -272 -199z"/>
<path d="M4872 2688 c62 -62 89 -174 59 -250 -61 -161 224 -191 322 -34 84 137 -134 396 -335 396 -117 0 -129 -29 -46 -112z"/>
<path d="M6300 2606 c0 -52 49 -124 108 -161 60 -37 81 -177 46 -316 -45 -178 -26 -237 67 -206 175 58 222 455 74 633 -136 163 -295 191 -295 50z"/>
<path d="M21250 2338 l-500 -131 425 37 c438 38 513 -16 305 -224 -193 -193 67 -145 319 59 357 289 74 423 -549 259z"/>
<path d="M8424 2124 c-67 -143 -101 -280 -75 -306 74 -74 351 193 351 338 0 246 -153 228 -276 -32z"/>
<path d="M10395 1991 c-96 -179 -85 -204 71 -174 100 20 197 114 215 209 47 242 -150 218 -286 -35z"/>
<path d="M20967 1833 c-116 -116 -73 -218 118 -278 259 -83 415 -480 415 -1060 0 -474 12 -495 275 -492 235 3 250 18 100 105 -183 106 -251 733 -91 832 142 88 749 -610 682 -783 -36 -95 -6 -157 76 -157 75 0 164 72 198 159 71 185 -942 1397 -1249 1494 -105 33 -191 102 -191 154 0 107 -234 126 -333 26z"/>
<path d="M22000 1737 c0 -150 427 -737 537 -737 179 0 492 570 358 653 -61 38 -133 -25 -163 -143 -75 -284 -275 -265 -414 40 -101 223 -318 350 -318 187z"/>
<path d="M20179 1346 c-89 -90 433 -746 594 -746 165 0 461 464 380 596 -104 167 -253 120 -253 -79 0 -312 -107 -313 -385 -2 -147 165 -298 269 -336 231z"/>
<path d="M1500 605 c-437 -49 -282 -71 753 -108 1159 -42 1334 -72 1588 -272 324 -255 559 -291 559 -87 0 76 101 166 225 199 387 104 1569 68 1763 -53 102 -63 269 -84 371 -44 432 166 -165 265 -1509 251 -770 -8 -1670 35 -2000 96 -630 117 -852 120 -1750 18z"/>
<path d="M125 431 c96 -25 254 -25 350 0 96 25 18 46 -175 46 -193 0 -271 -21 -175 -46z"/>
<path d="M7925 397 c536 -41 1270 -130 1632 -198 436 -83 691 -91 757 -25 148 148 -1241 329 -2393 311 l-971 -14 975 -74z"/>
<path d="M14450 407 c1045 -31 1958 -94 2029 -140 145 -94 921 11 921 124 0 40 -1091 73 -2425 73 l-2425 1 1900 -58z"/>
<path d="M11000 294 c-107 -73 -5 -83 350 -35 275 37 519 83 542 104 100 89 -757 24 -892 -69z"/>
</g>
</svg>