<svg xmlns="http://www.w3.org/2000/svg" version="1.0" width="250" height="525" viewBox="0 0 250.000000 525.000000" preserveAspectRatio="xMidYMid meet">
<metadata>
Created by potrace 1.10, written by Peter Selinger 2001-2011
</metadata>
<g transform="translate(0.000000,525.000000) scale(0.010000,-0.010000)" fill="#555555" stroke="none">
<path d="M78 49325 c-81 -9266 -72 -49325 12 -49325 51 0 120 56 152 125 46 100 70 100 116 0 87 -185 742 -163 742 25 0 83 45 150 100 150 55 0 100 -67 100 -150 0 -86 90 -150 211 -150 187 0 204 40 146 347 -62 333 -251 2080 -291 2703 -11 165 20 356 69 425 56 77 42 183 -36 276 -163 197 -201 2862 -41 2917 170 59 489 -2240 337 -2424 -96 -115 -87 -144 43 -144 116 0 162 -91 162 -320 0 -176 53 -947 117 -1714 104 -1238 138 -1399 309 -1444 153 -40 181 -110 136 -336 -42 -211 -18 -286 91 -286 91 0 151 104 158 275 5 151 20 343 33 425 12 83 36 758 53 1500 l31 1350 91 -1050 c50 -578 76 -1376 59 -1775 -24 -536 1 -725 95 -725 87 0 131 183 139 575 l12 575 94 -451 c71 -337 160 -481 356 -574 144 -67 278 -107 297 -87 20 20 -1 210 -47 424 -118 548 -39 1438 127 1438 73 0 155 56 183 125 28 69 62 -123 77 -425 78 -1628 75 -1600 214 -1600 94 0 117 249 93 1000 -27 863 -9 1000 128 1000 88 0 186 67 218 150 89 232 184 181 363 -195 178 -373 136 -1406 -52 -1290 -54 34 -74 241 -44 460 65 490 2 675 -231 675 -244 0 -272 -128 -222 -1024 l44 -774 766 8 767 8 15 766 c45 2234 149 4524 225 4966 47 275 134 747 193 1050 59 303 159 955 222 1450 177 1395 258 1625 269 767 6 -404 59 -792 118 -863 74 -90 76 -212 5 -398 -56 -148 -103 -547 -104 -888 0 -340 -92 -978 -203 -1418 -145 -574 -184 -948 -137 -1326 42 -339 20 -635 -61 -830 -106 -257 -97 -397 54 -896 147 -487 156 -619 50 -747 -71 -86 -98 -188 -58 -227 39 -39 159 41 267 177 l196 249 -49 -400 c-176 -1455 -176 -1450 -14 -1450 86 0 158 56 159 125 7 448 223 1527 339 1692 106 152 115 284 37 565 -55 202 -75 592 -43 867 165 1418 260 2388 314 3201 65 1002 143 1491 224 1411 88 -89 24 -3422 -92 -4761 -60 -687 -104 -1385 -99 -1550 5 -165 10 -581 10 -925 1 -344 44 -625 96 -625 113 0 264 1436 167 1592 -37 59 -20 637 37 1283 57 646 127 1760 156 2475 55 1391 218 2322 253 1450 30 -736 -10 -2305 -84 -3315 -38 -519 -29 -1122 19 -1340 48 -217 108 -789 133 -1270 25 -481 84 -875 131 -875 117 0 238 1035 164 1403 -32 163 -17 297 34 297 114 0 231 -588 243 -1224 6 -308 53 -475 134 -475 69 -1 129 55 133 124 6 100 18 100 58 0 62 -153 734 -168 734 -17 0 68 111 83 300 42 209 -46 316 -25 352 70 67 175 -498 1812 -642 1860 -175 58 -129 -212 139 -818 260 -589 256 -625 -51 -461 -152 81 -212 59 -303 -110 -80 -150 -145 -181 -220 -106 -74 74 -27 209 161 455 213 280 238 365 127 430 -77 44 -172 321 -212 615 -71 523 -68 534 153 464 193 -61 215 -44 151 114 -42 103 -161 435 -265 737 -209 604 -374 970 -540 1200 -291 400 -486 1273 -486 2169 0 583 -41 939 -111 966 -170 65 -1726 3250 -1864 3815 -67 275 -151 523 -186 550 -36 28 -238 590 -450 1250 -411 1285 -788 2050 -1009 2050 -75 0 -185 90 -244 201 -163 304 -243 1450 -123 1769 57 154 132 365 166 469 57 175 74 177 243 24 152 -138 169 -244 104 -639 -43 -261 -81 -585 -84 -720 -11 -455 257 -6 380 638 187 972 129 2058 -110 2058 -61 0 -83 -217 -55 -550 25 -302 11 -550 -32 -550 -140 0 -224 921 -102 1116 116 187 115 209 -202 2452 -129 915 -67 1822 179 2609 91 290 147 545 125 566 -21 22 -161 16 -309 -13 -237 -45 -304 -151 -534 -841 -146 -438 -319 -789 -391 -789 -156 0 -456 -756 -528 -1330 -79 -633 121 -337 272 404 70 343 180 667 245 721 198 164 532 7 592 -279 44 -211 -12 -330 -271 -575 -282 -267 -327 -377 -334 -819 -5 -350 -81 -629 -241 -888 -200 -324 -233 -510 -236 -1330 -2 -531 58 -1167 135 -1434 137 -470 111 -1643 -54 -2468 -50 -254 -34 -318 72 -283 150 50 380 993 397 1631 6 220 55 850 110 1400 141 1431 404 2005 537 1175 33 -206 78 -463 101 -571 22 -108 -16 -266 -85 -350 -316 -387 -411 -964 -414 -2521 -2 -861 -37 -1600 -78 -1641 -41 -42 -75 -206 -75 -367 0 -549 -811 -2292 -1327 -2850 -123 -133 -325 -225 -496 -225 -247 0 -319 -67 -501 -475 -207 -461 -242 -768 -175 -1551 24 -285 -25 -437 -202 -625 -128 -136 -249 -232 -269 -213 -19 20 -53 432 -76 916 -52 1117 52 1335 1177 2465 933 937 1139 1228 950 1344 -68 43 -163 -3 -225 -108 -247 -424 -542 -685 -1058 -936 -445 -217 -608 -370 -869 -817 -512 -876 -527 -938 -473 -1985 50 -969 44 -998 -303 -1722 -194 -406 -353 -815 -353 -909 0 -268 -178 -313 -304 -77 -167 312 -20 1331 264 1827 290 508 298 877 33 1464 -112 246 -179 542 -150 659 124 493 811 1430 1678 2286 976 964 1112 1123 1157 1361 15 80 68 236 117 346 155 346 183 751 80 1157 -153 603 -275 468 -256 -282 25 -916 -123 -1203 -1119 -2177 -302 -296 -567 -488 -589 -427 -21 60 169 294 422 520 614 546 1228 1759 891 1759 -75 0 -424 -724 -424 -878 0 -98 -473 -612 -803 -873 -377 -297 -895 -980 -993 -1309 l-87 -290 -8 356 c-14 552 405 1306 958 1729 487 372 1010 1022 906 1126 -31 30 -282 -162 -557 -428 -275 -266 -707 -673 -958 -906 l-458 -422 11 972 c8 810 29 927 119 698 148 -374 243 -346 365 107 132 489 452 783 952 875 l398 74 -159 -240 c-88 -132 -332 -330 -542 -440 -503 -265 -716 -951 -294 -951 81 0 150 130 169 319 26 266 85 333 355 403 650 167 910 1319 475 2107 -128 232 -307 724 -399 1095 -173 701 -131 1226 252 3176 146 742 613 1796 996 2250 245 290 641 1029 838 1563 245 661 461 823 1091 813 287 -4 717 -39 954 -78 349 -57 419 -102 363 -234 -38 -90 -170 -483 -294 -874 -185 -583 -210 -805 -140 -1245 61 -386 51 -557 -34 -610 -91 -56 -91 -206 1 -654 65 -320 93 -677 62 -795 -31 -117 -8 -244 52 -281 60 -37 109 -222 109 -411 0 -189 37 -344 82 -344 112 0 357 -1535 342 -2150 -6 -275 -107 -808 -225 -1185 -117 -376 -184 -714 -148 -750 121 -120 330 293 501 992 168 688 168 893 -3 2793 -88 980 102 518 246 -600 68 -522 187 -1050 264 -1171 78 -122 141 -291 141 -375 0 -85 68 -154 150 -154 83 0 150 -45 150 -100 0 -55 56 -100 125 -100 90 0 115 168 91 600 -24 423 -74 600 -170 600 -98 0 -145 178 -166 625 -18 374 -70 605 -130 575 -55 -27 -86 -297 -69 -598 49 -842 -83 -531 -238 565 -179 1262 -177 1328 32 1395 474 151 1584 693 2299 1122 1306 786 1735 900 1390 373 -191 -290 -213 -490 -50 -436 62 21 191 237 286 479 95 242 224 458 286 479 158 52 147 2 -130 -625 -134 -303 -243 -631 -241 -728 1 -97 -29 -277 -68 -401 -62 -199 -37 -224 216 -215 504 17 786 138 787 336 0 303 187 276 375 -55 153 -269 220 -303 547 -274 291 26 381 -5 408 -142 20 -103 -26 -175 -112 -175 -89 0 -173 -144 -215 -369 -38 -204 -179 -586 -313 -850 -225 -445 -356 -535 -714 -489 -68 9 -248 -72 -400 -180 -318 -225 -728 -364 -722 -244 2 45 162 261 355 480 280 317 369 368 441 252 49 -79 119 -114 156 -77 38 37 -5 141 -95 230 -151 151 -188 142 -487 -109 -498 -419 -594 -611 -650 -1303 -35 -440 -93 -641 -184 -641 -372 0 -405 1085 -53 1774 117 230 212 476 210 547 -5 193 -285 -197 -554 -771 -202 -433 -223 -578 -154 -1085 76 -557 206 -760 488 -763 229 -3 297 -423 372 -2277 59 -1460 102 -1825 214 -1825 112 0 129 154 89 775 -27 426 -80 1473 -117 2325 -61 1409 -53 1538 92 1419 205 -170 277 -882 332 -3269 57 -2527 73 -2694 330 -3450 122 -357 290 -1100 375 -1650 84 -550 210 -1371 279 -1825 68 -454 160 -859 204 -900 156 -146 -259 3167 -515 4125 -89 330 -172 803 -185 1050 -13 248 -73 653 -133 900 -112 460 -160 2379 -57 2277 31 -32 79 -455 107 -942 95 -1649 185 -2035 475 -2035 149 0 253 -94 330 -300 63 -165 184 -300 270 -300 194 0 483 -539 445 -832 -15 -120 5 -271 45 -335 41 -65 -36 -324 -171 -577 -256 -483 -269 -476 -408 219 -52 255 -36 313 75 271 109 -42 143 60 152 445 9 412 -22 510 -183 561 -107 34 -241 148 -298 255 -57 106 -146 193 -200 193 -113 0 -129 -333 -21 -442 41 -41 79 -218 83 -392 4 -174 88 -690 185 -1148 161 -755 184 -1022 169 -1966 -3 -163 62 -400 144 -526 157 -239 96 -476 -183 -707 -110 -91 -129 -395 -93 -1467 33 -966 14 -1352 -67 -1352 -65 0 -113 169 -113 400 0 220 -48 400 -107 400 -104 0 -116 -994 -16 -1275 70 -197 223 -146 223 75 0 110 41 200 92 200 153 0 229 567 225 1679 -5 1084 41 1265 448 1754 285 342 304 723 44 862 -121 65 -215 259 -257 529 -37 234 -91 510 -120 614 -35 121 -14 163 57 119 61 -38 111 -151 111 -252 0 -101 68 -210 150 -241 82 -32 150 -139 150 -239 0 -99 67 -276 149 -394 82 -117 165 -316 184 -442 39 -255 267 -390 267 -157 0 100 66 132 200 97 231 -61 277 148 51 234 -82 32 -197 238 -257 459 -97 359 -85 425 117 639 261 278 372 299 455 84 33 -88 -17 -210 -117 -283 -152 -112 -160 -176 -58 -485 96 -289 177 -365 438 -406 177 -27 362 -11 413 37 111 104 135 1028 37 1442 -39 165 -47 244 -17 175 30 -69 147 -125 260 -125 190 0 202 -44 153 -575 -29 -316 -165 -822 -303 -1125 -137 -303 -281 -696 -319 -875 -109 -512 -253 -380 -253 233 0 402 -35 547 -125 517 -160 -52 -277 -1318 -160 -1725 48 -165 58 -756 22 -1313 -63 -985 -12 -1537 143 -1537 42 0 75 698 73 1550 -2 853 21 1550 50 1550 55 0 252 -457 396 -920 60 -193 44 -303 -57 -387 -187 -155 -182 -393 8 -393 181 0 193 -117 30 -280 -93 -93 -81 -120 56 -120 97 0 147 -46 112 -103 -35 -56 -134 -90 -220 -75 -300 53 -237 -204 67 -271 259 -57 296 -102 246 -302 -51 -204 -30 -227 161 -177 188 49 211 26 155 -150 -43 -136 -13 -237 90 -294 165 -93 374 -674 277 -770 -123 -124 -424 -50 -424 103 0 89 -146 388 -325 665 -308 477 -327 489 -357 236 -17 -146 61 -417 175 -601 266 -431 277 -655 20 -422 -104 93 -243 156 -310 140 -67 -16 -173 49 -235 143 -91 138 -76 200 70 307 169 123 171 148 25 294 -88 87 -205 174 -260 193 -56 19 -124 259 -152 534 -180 1779 -293 2533 -414 2770 -184 362 -173 582 38 737 166 122 166 132 -5 199 -220 85 -591 -238 -814 -708 -192 -404 -203 -1265 -20 -1628 74 -148 118 -428 97 -620 -78 -722 -106 -1967 -56 -2433 43 -390 98 -501 288 -573 138 -52 235 -171 235 -287 0 -185 70 -199 1043 -199 l1043 0 -150 361 c-124 296 -127 375 -18 444 214 136 247 109 427 -363 170 -445 452 -614 458 -275 3 167 10 167 136 0 157 -207 912 -245 1003 -50 46 100 70 100 116 0 32 -69 180 -125 329 -125 194 0 320 84 447 300 171 290 440 430 336 175 -187 -458 -188 -475 -29 -475 90 0 215 113 277 250 63 138 152 250 198 250 111 0 106 -72 -20 -307 -91 -171 -69 -193 204 -193 168 0 321 56 338 125 17 69 83 280 146 470 90 273 85 388 -22 549 -115 174 -112 253 19 530 l155 324 123 -357 c87 -252 98 -541 37 -971 -48 -337 -69 -630 -48 -651 99 -99 252 120 253 362 1 148 28 368 61 489 55 207 74 211 292 68 l234 -153 -194 -318 c-242 -397 -242 -467 -1 -467 114 0 222 93 262 225 76 249 333 575 453 575 43 0 157 -180 254 -400 97 -220 235 -400 307 -400 220 0 148 538 -119 900 -297 402 -331 653 -75 552 96 -38 321 -94 500 -124 251 -42 325 -104 325 -273 0 -120 143 -405 318 -632 l317 -413 883 4 882 5 0 359 c0 307 -19 336 -125 201 -88 -113 -224 -144 -458 -107 -285 45 -324 84 -269 266 36 116 90 402 121 635 46 345 118 459 394 621 295 175 337 250 337 609 0 247 -40 384 -100 347 -55 -34 -100 -169 -100 -300 0 -265 -333 -549 -647 -552 -330 -2 -526 -165 -377 -314 68 -68 124 -251 124 -406 0 -336 -220 -1078 -319 -1078 -39 0 -193 160 -342 355 -185 243 -267 466 -258 700 13 341 8 345 -414 345 -446 0 -668 132 -665 395 1 127 17 130 89 17 69 -110 137 -79 323 144 130 155 410 476 624 713 260 289 336 431 232 431 -85 0 -360 -235 -612 -523 -540 -618 -613 -508 -104 158 375 492 722 651 1078 495 120 -52 373 -62 563 -21 271 58 400 31 600 -128 l255 -201 33 276 c21 176 -25 309 -125 365 -201 113 -208 292 -8 215 93 -36 150 1 150 97 0 84 -90 182 -200 217 -248 79 -263 250 -21 250 161 0 182 123 204 1211 21 1063 2 1229 -154 1350 -171 133 -170 146 21 293 171 132 178 167 50 248 -100 63 -108 95 -25 96 69 1 125 50 125 109 0 133 -290 53 -960 -265 -597 -283 -698 -295 -778 -88 -35 93 10 178 115 217 95 35 275 141 399 236 125 96 451 227 725 293 444 107 499 149 496 385 -3 228 -17 241 -105 90 -56 -96 -166 -175 -244 -175 -132 0 -474 -131 -1198 -458 -165 -74 -412 -162 -550 -194 -301 -72 -867 -564 -1005 -874 -55 -123 -208 -372 -340 -552 -240 -329 -241 -467 -4 -1048 56 -139 -19 -214 -365 -364 -881 -381 -794 -403 -1800 465 -271 234 -571 425 -667 425 -96 0 -488 -226 -872 -503 l-697 -503 -178 217 c-148 182 -156 248 -50 397 71 99 533 733 1028 1410 1227 1677 1554 2218 2743 4532 565 1100 1075 2058 1133 2130 58 71 294 499 524 950 403 791 703 1341 2032 3732 417 751 618 1222 618 1450 -1 317 -23 294 -358 -362 -516 -1012 -1051 -1977 -1192 -2150 -148 -182 -744 -1274 -1268 -2325 -222 -444 -450 -775 -535 -775 -85 0 -307 -321 -520 -750 -254 -514 -427 -750 -549 -750 -225 0 -227 186 -4 503 210 300 675 1267 935 1947 224 588 219 550 85 550 -58 0 -195 -214 -306 -475 -110 -261 -271 -643 -359 -849 -141 -333 -917 -1221 -997 -1142 -17 18 306 679 717 1470 417 802 710 1477 662 1525 -48 48 -254 -253 -465 -681 -400 -809 -579 -1048 -787 -1048 -77 0 103 464 455 1175 559 1126 749 1680 456 1325 -68 -82 -224 -207 -347 -276 -203 -114 -223 -105 -223 108 0 140 90 283 225 355 324 174 706 806 696 1151 -5 165 191 698 443 1204 554 1113 654 1358 552 1358 -86 0 -916 -1630 -916 -1798 0 -56 -70 -102 -155 -102 -122 0 -140 73 -89 345 42 227 4 503 -113 808 -170 448 -170 482 15 980 105 284 197 765 204 1067 7 303 39 699 71 882 40 223 22 320 -53 295 -61 -21 -127 -148 -145 -282 -76 -550 -144 -695 -326 -695 -260 0 -359 445 -162 726 160 228 196 546 92 816 -116 304 -220 155 -166 -242 65 -484 -105 -538 -263 -85 -146 419 -142 453 89 684 244 244 351 1101 138 1101 -88 0 -137 -118 -138 -325 l-1 -325 -256 325 c-215 273 -323 325 -668 325 -384 0 -399 10 -218 147 107 81 270 148 363 150 257 5 289 133 180 710 -111 584 -173 697 -284 517 -88 -142 -702 607 -759 924 -19 111 -87 538 -149 949 -110 721 -501 1603 -711 1603 -137 0 -128 -30 204 -685 198 -389 320 -808 359 -1228 32 -350 122 -807 200 -1014 233 -623 163 -1773 -108 -1773 -265 0 -327 245 -240 945 65 527 54 744 -47 900 -76 119 -113 363 -87 580 39 326 18 375 -160 375 -113 0 -234 47 -270 105 -43 70 -105 72 -184 6 -167 -139 -468 -77 -577 117 -50 90 -158 138 -239 107 -198 -76 -191 206 10 408 87 86 287 157 446 157 288 0 327 -28 688 -500 207 -270 365 -229 266 67 -147 443 -431 676 -794 651 l-354 -24 43 653 c39 598 26 653 -155 653 -108 0 -197 48 -197 107 0 59 -79 93 -175 74 -114 -22 -192 -155 -225 -382 -36 -253 -105 -356 -250 -375 -252 -32 -560 167 -375 242 141 57 172 334 37 334 -48 0 -144 -68 -213 -151 -111 -134 -141 -131 -259 25 -205 270 -167 579 85 701 488 235 712 227 987 -37 186 -178 288 -219 339 -136 126 203 -292 644 -661 698 -299 44 -340 86 -344 350 -2 165 -42 381 -88 481 -46 99 -58 370 -26 603 81 585 -95 903 -535 966 -302 44 -351 90 -377 361 -49 498 -955 1162 -1368 1004 -267 -103 -164 -239 276 -369 493 -146 786 -471 705 -782 -75 -287 -233 -273 -233 21 0 298 -360 645 -512 493 -75 -75 -73 -170 10 -324 88 -165 88 -251 -3 -360 -322 -388 -1040 99 -802 543 158 295 131 413 -93 413 -204 0 -242 133 -204 714 21 325 -437 686 -871 686 -452 0 -660 -307 -706 -1042 -37 -572 -18 -647 192 -795 258 -180 842 -220 939 -63 142 230 339 88 369 -265 39 -456 410 -759 949 -774 346 -10 379 -34 353 -261 -44 -385 56 -666 366 -1023 156 -180 327 -459 380 -621 52 -161 149 -311 214 -333 77 -26 95 22 52 135 -44 116 -29 151 45 106 69 -43 93 -249 61 -542 -39 -361 -4 -546 147 -785 218 -347 713 -637 1086 -637 192 0 229 -39 181 -192 -34 -105 -14 -220 43 -255 134 -84 136 -553 2 -553 -56 0 -154 113 -216 250 -63 138 -174 250 -248 250 -189 0 -167 -131 72 -435 192 -243 594 -1472 594 -1814 0 -253 -150 -169 -312 174 -84 179 -535 980 -1001 1781 -466 801 -909 1611 -984 1800 -76 189 -216 457 -311 596 -95 138 -292 498 -439 800 -383 789 -1600 1751 -2746 2170 -1042 380 -1007 376 -1007 138 0 -229 465 -574 900 -668 362 -79 653 -255 1413 -857 372 -294 747 -679 834 -856 87 -176 201 -347 252 -379 198 -122 1236 -2188 1119 -2227 -65 -22 -118 -105 -118 -185 0 -192 409 -990 884 -1726 212 -327 462 -869 556 -1203 93 -335 213 -609 265 -609 132 0 119 189 -51 754 -81 268 -128 506 -104 529 23 23 283 -447 578 -1045 295 -599 671 -1313 835 -1588 165 -275 330 -590 368 -700 67 -194 65 -195 -77 -11 -81 104 -162 235 -180 290 -19 56 -89 83 -157 60 -82 -27 -3 -239 241 -640 451 -741 578 -1135 425 -1319 -84 -101 -83 -235 2 -520 167 -558 153 -635 -91 -486 -113 69 -450 486 -748 926 -819 1209 -2022 2350 -2476 2350 -168 0 -462 179 -839 509 -320 281 -705 574 -856 653 -151 79 -281 187 -287 241 -7 53 -19 131 -26 172 -24 146 -499 779 -794 1059 -416 394 -963 725 -1318 798 -165 33 -446 90 -624 126 -178 35 -403 30 -500 -12 -239 -104 -499 -62 -992 162 -229 104 -657 206 -950 226 -294 20 -646 85 -784 145 -137 60 -508 138 -823 172 -593 65 -781 185 -588 378 61 61 111 199 111 308 0 108 30 167 66 131 36 -37 130 -12 210 53 79 66 274 110 434 98 341 -26 387 152 69 269 -275 102 -548 37 -619 -148 -62 -162 -360 -191 -360 -36 0 57 -87 226 -194 375 -107 149 -220 451 -252 671 -32 220 -83 541 -115 714 -50 277 -24 325 227 413 243 85 258 110 105 173 -112 47 -245 14 -357 -88 -166 -150 -195 -145 -391 64 l-212 226 390 224 c313 181 402 299 452 599 155 935 335 1158 1318 1635 492 238 663 279 819 195 298 -159 779 -129 849 53 93 241 74 342 -64 346 -69 2 -320 181 -559 397 l-434 392 274 254 c232 214 378 256 959 271 377 10 786 21 910 25 188 6 226 -46 228 -318 4 -367 -102 -432 -185 -114 -74 284 -325 180 -292 -122 15 -131 47 -295 72 -364 64 -175 701 -156 852 25 171 206 218 193 570 -151 400 -391 824 -271 828 234 2 149 -50 171 -282 120 -369 -81 -563 139 -481 547 33 165 22 300 -25 300 -138 0 -320 -267 -337 -493 -21 -274 -189 -212 -356 131 -190 389 -90 584 256 498 250 -62 264 -53 140 97 -154 186 -519 221 -675 65 -57 -57 -549 -143 -1095 -192 -546 -48 -1078 -104 -1182 -122 -317 -57 -290 179 59 506 210 197 434 309 617 310 229 0 265 27 176 134 -168 202 -35 266 554 266 293 0 533 45 533 100 0 56 -277 101 -625 103 -571 3 -608 16 -431 150 107 81 339 147 517 147 177 0 540 95 806 212 367 161 710 216 1433 228 l950 17 0 331 c0 315 31 343 628 568 507 191 680 217 900 131 300 -116 2054 -411 2372 -398 679 27 1135 98 1382 215 471 225 1531 -16 2743 -623 564 -282 1025 -570 1025 -640 0 -222 520 -504 1550 -840 550 -179 1122 -370 1271 -424 269 -97 885 -706 1394 -1378 334 -442 481 -328 188 146 -121 195 -173 355 -117 355 56 0 130 -45 164 -100 34 -55 127 -100 206 -100 120 0 144 311 144 1887 l0 1887 -425 60 c-234 33 -542 88 -684 121 -162 39 -312 10 -400 -77 -123 -122 -761 -478 -856 -478 -19 0 -35 65 -35 143 0 81 117 158 267 175 147 18 286 88 309 157 49 152 -632 177 -725 27 -38 -62 -125 -57 -239 14 -232 144 -709 -7 -855 -272 -59 -107 -107 -202 -107 -211 0 -9 -125 -48 -276 -86 -218 -55 -264 -39 -220 77 87 227 -891 164 -1155 -75 -162 -147 -229 -159 -326 -60 -181 184 260 511 688 511 186 0 339 45 339 100 0 55 -60 100 -134 100 -74 0 -187 116 -251 257 -148 326 -477 292 -440 -44 23 -204 -6 -222 -265 -165 -217 48 -338 14 -476 -133 -177 -188 -210 -190 -834 -41 -1023 245 -977 221 -751 387 122 90 212 106 233 42 53 -159 372 -122 612 72 211 171 201 175 -440 189 -617 12 -669 -4 -862 -275 -204 -286 -543 -387 -611 -183 -25 75 -117 75 -308 3 -237 -90 -273 -79 -273 84 0 121 115 228 325 303 299 106 311 126 147 248 -160 119 -161 139 -17 194 228 88 545 77 545 -18 0 -44 -56 -140 -125 -214 -103 -110 -81 -120 125 -57 138 41 453 95 700 119 248 24 516 66 597 93 234 79 -78 236 -472 237 -179 1 -325 42 -325 90 0 122 423 389 741 469 331 83 615 -119 449 -319 -159 -191 134 -289 528 -176 391 113 404 272 26 346 l-294 58 282 136 c392 190 1495 2 1828 -311 227 -214 247 -216 431 -49 149 135 237 150 390 68 156 -83 299 -52 675 148 l478 254 279 -206 c164 -121 432 -206 650 -206 204 0 449 -71 545 -157 153 -139 207 -141 458 -14 156 79 340 123 409 99 97 -35 125 372 125 1822 0 1448 -28 1858 -125 1827 -69 -22 -169 -138 -224 -258 -130 -288 -284 -283 -195 6 92 303 240 475 406 475 102 0 138 157 138 600 0 533 -22 600 -200 600 -211 0 -269 -145 -100 -250 169 -105 111 -250 -100 -250 -110 0 -200 45 -200 100 0 55 -67 100 -150 100 -82 0 -150 62 -150 138 0 220 296 405 610 381 l290 -22 0 2801 0 2802 -1089 0 -1088 0 -65 -431 c-35 -237 -85 -630 -111 -875 -26 -244 -114 -961 -197 -1594 -82 -632 -161 -1348 -175 -1590 -16 -285 -85 -477 -195 -546 -241 -151 -292 -53 -179 340 155 540 244 1896 125 1896 -56 0 -134 -304 -172 -675 -87 -849 -152 -1125 -265 -1125 -121 0 -112 838 17 1538 137 742 69 1051 -102 462 -164 -564 -232 -409 -131 298 46 316 135 555 218 582 97 33 121 -4 78 -116 -72 -189 88 -227 166 -39 31 76 78 36 120 -100 38 -124 108 -225 156 -225 48 0 81 101 75 225 -7 124 38 518 100 875 139 806 143 1100 14 1100 -55 0 -100 -80 -100 -178 0 -98 -70 -278 -156 -401 -86 -123 -130 -306 -98 -408 32 -101 11 -292 -46 -424 -97 -221 -100 -216 -46 61 57 290 54 293 -103 100 -153 -188 -158 -164 -97 400 36 330 111 656 168 725 81 99 -152 125 -1110 125 l-1212 0 -4 -425 c-3 -234 -45 -605 -95 -825 -49 -220 -199 -917 -332 -1550 -133 -632 -311 -1312 -394 -1510 -240 -567 -458 -1665 -515 -2590 -29 -467 -84 -1300 -122 -1850 -38 -550 -63 -1101 -55 -1225 11 -162 -40 -225 -182 -225 -171 0 -183 34 -95 267 56 147 93 608 81 1025 -33 1221 200 4597 370 5358 86 385 265 1105 397 1600 132 495 260 1013 284 1150 23 138 73 368 110 513 65 251 49 263 -335 269 -310 4 -389 -28 -347 -138 40 -104 -24 -145 -230 -149 -409 -7 -959 -303 -1107 -595 l-126 -250 -2 332 c-2 577 140 722 638 654 272 -37 460 -18 503 51 49 79 -468 110 -1833 108 -1062 -1 -1927 -43 -1959 -95 -32 -52 -180 -69 -329 -40 -162 32 -451 -27 -718 -147 -307 -138 -485 -169 -568 -101 -66 56 -279 70 -477 33 -409 -77 -503 103 -133 252 206 83 199 91 -89 97 -192 4 -337 -53 -372 -144 -32 -83 -104 -150 -161 -150 -57 0 -103 67 -103 150 0 107 -107 149 -375 147 l-375 -4 225 -187 c300 -250 284 -386 -50 -424 -453 -52 -312 -225 275 -337 374 -72 559 -158 581 -270 17 -90 271 -323 564 -517 292 -194 558 -422 590 -506 91 -236 281 -179 246 73 -23 169 19 225 169 225 114 0 188 -57 172 -133 -15 -74 90 -226 233 -339 196 -154 245 -263 201 -441 -48 -191 -20 -237 142 -237 111 0 202 -62 202 -138 0 -94 -129 -140 -400 -144 -377 -5 -400 12 -400 287 0 243 -63 319 -374 448 -205 86 -474 251 -597 366 -184 173 -250 188 -375 84 -83 -69 -127 -166 -97 -214 30 -49 -11 -89 -90 -89 -80 0 -170 64 -200 143 -31 78 -178 157 -328 175 -394 46 -433 282 -47 282 169 0 308 42 308 93 0 149 -387 232 -757 162 -192 -36 -433 -14 -552 50 -160 85 -241 84 -327 -3 -86 -87 -52 -164 136 -311 612 -477 727 -604 633 -698 -130 -130 -671 147 -930 476 -162 206 -259 245 -497 197 -253 -50 -315 -18 -439 229 -180 362 -50 532 304 397 143 -54 310 -56 402 -5 93 52 301 49 505 -7 444 -123 692 60 288 214 -146 55 -266 170 -266 254 0 83 -43 152 -96 152 -53 0 -183 93 -288 206 -118 126 -362 224 -629 252 -240 25 -671 73 -957 106 -286 33 -857 29 -1268 -10 -647 -60 -792 -111 -1066 -372 -257 -247 -372 -292 -619 -242 -166 33 -386 60 -489 60 -104 0 -188 59 -188 132 0 80 203 168 518 225 765 138 780 379 19 308 -323 -31 -632 -60 -687 -65 -55 -4 -445 18 -866 50 -725 54 -780 44 -1047 -203 -155 -144 -403 -285 -552 -315 -314 -63 -685 -377 -685 -580 0 -260 214 -276 483 -36 624 557 961 724 1538 766 705 51 954 -22 782 -229 -66 -79 -90 -193 -53 -253 37 -60 13 -174 -54 -254 -140 -170 -160 -159 354 -194 485 -32 597 21 443 207 -142 170 -56 182 192 27 266 -166 1349 -20 1276 172 -33 86 8 142 103 142 120 0 142 -62 92 -263 -55 -218 -38 -251 102 -198 92 36 308 22 480 -31 172 -52 503 -145 737 -206 451 -117 513 -204 282 -396 -113 -94 -196 -85 -383 38 -132 86 -264 132 -294 102 -30 -30 -274 -94 -542 -142 -269 -48 -597 -121 -730 -162 -201 -62 -231 -46 -177 95 46 118 -7 202 -177 279 -277 126 -690 30 -466 -109 97 -60 102 -101 18 -153 -63 -39 -178 -19 -256 46 -174 144 -550 38 -550 -157 0 -90 -104 -143 -280 -143 -271 0 -520 -154 -520 -321 0 -96 804 12 953 129 121 94 883 98 1010 5 48 -34 139 -209 203 -388 l117 -325 -393 0 c-268 0 -446 -63 -563 -200 -222 -259 -308 -252 -440 38 -99 218 -163 236 -782 224 -608 -13 -710 -46 -1043 -338 -203 -178 -433 -324 -512 -324 -211 0 -881 -327 -1025 -500 -102 -122 -119 13 -94 719 28 771 57 890 266 1058 240 195 209 457 -42 361 -110 -42 -146 116 -172 764 l-33 817 350 148 c193 81 530 185 750 230 307 62 138 84 -722 92 l-1122 11 -28 -3175z m15072 2450 c39 -344 133 -871 210 -1171 156 -608 189 -1804 51 -1804 -109 0 -238 475 -163 596 29 48 2 215 -60 371 -116 289 -126 367 -245 1808 -82 987 100 1161 207 200z m-550 375 c0 -28 -90 -219 -200 -424 -110 -205 -200 -298 -200 -205 0 236 -159 306 -380 168 -122 -76 -326 -90 -579 -41 -368 71 -377 82 -163 181 157 71 261 72 331 2 122 -122 813 84 871 258 36 108 320 161 320 61z m1796 -143 c57 -107 102 -276 100 -375 -2 -145 -52 -122 -247 116 -184 225 -271 270 -359 182 -87 -87 -61 -204 110 -479 203 -329 218 -441 155 -1158 -56 -649 -42 -804 77 -850 87 -33 125 -135 95 -249 -28 -107 0 -194 61 -194 157 0 134 -413 -35 -636 -117 -155 -134 -723 -96 -3300 l45 -3114 286 -30 c280 -30 288 -17 348 550 123 1151 121 2979 -3 2979 -220 1 -247 133 -90 437 86 167 157 519 157 781 0 263 86 771 191 1130 106 359 248 1036 316 1503 69 468 180 895 247 950 67 55 146 280 174 500 29 220 86 483 127 585 58 145 34 178 -111 150 -102 -20 -216 -148 -255 -286 -60 -215 -140 -103 -97 137 8 47 -40 151 -107 232 -97 117 -93 166 21 238 253 160 553 101 794 -156 l236 -251 -419 -1574 c-311 -1169 -420 -1768 -422 -2325 -1 -412 -48 -1335 -105 -2050 -56 -715 -120 -1682 -143 -2150 -22 -467 -47 -917 -56 -1000 -9 -82 -174 -283 -365 -445 -266 -225 -434 -289 -708 -270 -198 13 -383 46 -410 74 -27 27 -82 666 -121 1420 -56 1094 -43 1402 66 1523 108 120 113 236 28 550 -67 245 -101 1270 -88 2661 18 1877 -8 2381 -152 2950 -194 760 -198 1239 -13 1357 234 148 662 85 768 -113z m-7930 -189 c225 -115 434 -185 464 -155 83 83 470 -62 470 -176 0 -54 -36 -77 -79 -50 -43 27 -392 9 -775 -40 -383 -48 -936 -61 -1229 -28 -439 50 -549 102 -623 296 -49 129 -146 239 -217 245 -70 5 -14 49 123 96 411 141 1419 40 1866 -188z m10134 176 c0 -58 -45 -78 -100 -44 -55 34 -100 82 -100 106 0 24 45 44 100 44 55 0 100 -48 100 -106z m-6102 -488 c-4 -170 -196 -320 -360 -281 -169 40 -164 54 46 140 208 86 217 110 76 227 -87 72 -129 177 -94 234 59 95 336 -173 332 -320z m-598 -6 c0 -55 -45 -100 -100 -100 -55 0 -100 45 -100 100 0 55 45 100 100 100 55 0 100 -45 100 -100z m1600 -496 c138 -158 318 -385 400 -503 82 -118 240 -223 349 -233 167 -15 194 34 168 307 -18 179 12 325 65 325 129 0 218 -250 218 -615 0 -164 47 -385 104 -492 132 -248 -114 -271 -315 -29 -75 90 -307 271 -516 403 -209 132 -427 340 -483 462 -57 121 -244 289 -416 371 -173 83 -333 213 -357 289 -76 245 508 32 783 -285z m3742 -179 c-38 -261 -115 -587 -171 -725 -93 -226 -107 -231 -148 -54 -62 265 167 1254 290 1254 61 0 73 -181 29 -475z m3608 -125 c-34 -55 -129 -100 -212 -100 -82 0 -122 45 -88 100 34 55 129 100 212 100 82 0 122 -45 88 -100z m3450 0 c0 -55 -45 -100 -100 -100 -55 0 -100 45 -100 100 0 55 45 100 100 100 55 0 100 -45 100 -100z m-4454 -293 c31 -51 12 -121 -44 -156 -56 -35 -102 -150 -102 -257 0 -107 -45 -194 -100 -194 -113 0 -125 147 -37 475 63 235 184 291 283 132z m654 -257 c58 -153 174 -250 298 -250 235 0 253 -158 81 -730 -98 -328 -191 -430 -502 -552 -243 -96 -402 -232 -438 -377 -68 -269 -339 -410 -339 -176 0 87 158 303 351 479 349 320 378 494 64 384 -91 -32 -263 -146 -383 -253 -313 -282 -415 -158 -294 362 104 447 272 566 862 607 110 8 142 109 121 383 -34 431 42 483 179 123z m3000 100 c0 -82 -45 -150 -100 -150 -55 0 -100 68 -100 150 0 83 45 150 100 150 55 0 100 -67 100 -150z m-14321 -247 c-136 -218 48 -760 221 -653 165 102 113 -204 -121 -717 l-221 -483 -62 950 c-58 900 10 1270 213 1144 48 -29 34 -138 -30 -241z m7421 -47 c0 -253 -147 -423 -238 -275 -73 118 43 519 150 519 48 0 88 -110 88 -244z m8277 -74 c-21 -65 -191 -169 -377 -232 -519 -175 -528 -396 -13 -314 l413 66 -1 -326 c-3 -689 -48 -732 -755 -737 -354 -3 -644 17 -644 44 0 27 139 173 308 324 278 248 296 299 183 509 -68 129 -106 257 -83 284 23 28 -59 64 -183 82 -405 58 -236 194 328 264 304 38 608 129 675 202 127 138 217 38 149 -166z m-1747 155 c82 -82 -108 -437 -234 -437 -53 0 -96 83 -96 183 0 270 177 407 330 254z m-5814 -775 c-61 -282 -161 -748 -223 -1037 -175 -813 -283 -716 -251 225 20 576 78 909 179 1026 82 96 183 264 225 374 139 361 187 -43 70 -588z m-7159 -207 c-105 -676 -256 -1031 -461 -1085 -310 -81 -330 93 -92 810 122 369 240 731 260 806 32 113 66 114 197 5 119 -99 143 -232 96 -536z m2443 545 c133 -86 133 -97 0 -97 -82 0 -217 44 -300 97 -133 86 -133 97 0 97 83 0 218 -44 300 -97z m-1558 -88 c30 -48 -105 -546 -300 -1107 -232 -669 -322 -1060 -260 -1137 60 -75 28 -441 -89 -1011 -101 -490 -162 -926 -136 -968 25 -41 -2 -105 -62 -142 -59 -36 -153 -186 -208 -332 -92 -241 -110 -249 -202 -84 -56 100 -69 257 -29 350 40 93 81 605 91 1137 10 533 65 1028 123 1100 58 73 129 267 158 432 29 165 175 649 324 1075 247 707 439 932 590 687z m818 -185 c-33 -33 -56 26 -52 131 5 117 28 141 60 61 29 -72 26 -159 -8 -192z m-360 -265 c0 -275 -62 -534 -365 -1512 -125 -401 -145 -650 -54 -650 220 0 394 306 461 808 49 370 100 490 176 414 58 -58 168 -83 244 -53 160 61 176 -115 48 -529 -402 -1302 -430 -1446 -306 -1595 104 -125 95 -138 -54 -81 -117 45 -225 5 -312 -113 -125 -171 -136 -172 -199 -7 -37 96 8 333 101 527 193 405 171 482 -85 295 -135 -98 -183 -279 -192 -724 -12 -529 8 -592 187 -594 176 -1 198 -63 184 -510 -9 -280 -111 -824 -225 -1209 -223 -747 -273 -1478 -109 -1579 62 -38 100 148 100 491 0 304 63 700 140 881 233 544 366 1099 396 1652 16 288 58 553 94 589 177 177 187 -465 34 -2301 -255 -3067 -238 -2980 -601 -3213 -172 -110 -358 -304 -413 -429 -81 -186 -166 -223 -450 -199 -288 24 -356 74 -384 279 -19 138 -94 318 -167 400 -85 97 -130 415 -128 900 3 413 26 660 51 550 91 -385 228 -397 228 -20 0 204 -47 370 -105 370 -135 0 -82 1222 55 1265 281 88 356 -150 355 -1123 -2 -1297 91 -2142 235 -2142 83 0 104 461 77 1675 -29 1272 -1 1813 113 2250 150 570 133 908 -57 1151 -104 133 -32 959 128 1474 52 165 112 570 134 900 22 330 135 889 252 1242 117 352 213 704 213 780 0 77 45 112 100 78 55 -34 100 -208 100 -388z m12225 86 c57 -298 -51 -394 -298 -265 -97 51 -329 70 -515 42 -258 -39 -327 -19 -291 87 25 76 109 138 187 138 78 0 178 56 222 125 44 69 207 125 363 125 224 0 294 -53 332 -252z m-8934 -209 c-100 -120 -55 -207 251 -488 258 -236 363 -410 341 -564 -43 -288 -243 -351 -309 -98 -38 144 -109 183 -263 143 -245 -64 -287 -332 -53 -332 195 0 132 -245 -66 -259 -78 -6 -190 -17 -248 -26 -65 -9 -104 -298 -100 -737 5 -612 -21 -728 -169 -758 -226 -45 -332 232 -195 512 58 120 127 353 152 518 25 165 112 537 193 828 81 290 108 551 61 581 -127 78 -105 782 29 916 81 81 172 85 307 13 155 -82 168 -130 69 -249z m6466 -314 c-140 -1325 -161 -1885 -64 -1675 51 110 98 313 103 450 10 245 13 246 164 50 109 -142 137 -329 97 -650 -75 -605 -241 -2564 -253 -3000 -9 -303 -25 -325 -119 -162 -72 123 -94 674 -66 1575 25 763 14 1387 -24 1387 -136 0 -202 -1387 -139 -2924 65 -1604 32 -1874 -205 -1677 -101 84 -106 175 -20 402 82 217 81 380 -4 622 -126 362 -81 2196 75 3027 51 275 99 793 105 1150 16 962 208 2100 354 2100 36 0 35 -304 -4 -675z m-8622 421 c-33 -85 -81 -133 -107 -107 -27 26 -18 96 18 154 98 160 156 129 89 -47z m-7435 -146 c0 -211 -145 -269 -250 -100 -73 118 22 300 156 300 52 0 94 -90 94 -200z m-2200 -165 c0 -149 21 -147 202 17 339 307 457 68 309 -624 -69 -318 -162 -915 -209 -1328 -47 -412 -179 -1106 -294 -1541 -181 -683 -207 -1000 -70 -851 109 118 502 1839 569 2492 96 926 325 1928 450 1967 51 16 160 -13 242 -64 119 -75 124 -120 25 -219 -68 -68 -124 -261 -124 -429 0 -362 -204 -1373 -595 -2955 -156 -632 -314 -1510 -351 -1950 -62 -734 -295 -1873 -427 -2087 -30 -49 -96 -15 -146 75 -51 90 -62 212 -25 272 37 59 80 419 95 799 25 603 7 691 -146 691 -150 0 -170 76 -135 525 46 602 188 1258 390 1802 77 207 141 522 141 700 1 178 89 748 196 1267 142 688 166 980 87 1075 -198 239 -284 136 -288 -344 -1 -261 -67 -767 -146 -1125 -79 -357 -145 -778 -146 -935 -2 -157 -67 -427 -143 -600 -178 -402 -430 -1425 -448 -1815 -19 -398 -205 -950 -321 -950 -50 0 -92 68 -92 150 0 270 -194 157 -344 -200 -80 -192 -193 -350 -251 -350 -132 0 -131 35 13 538 158 557 271 696 444 552 102 -85 146 -79 179 24 65 206 166 700 211 1036 36 267 196 876 401 1525 54 174 31 225 -102 225 -125 0 -153 49 -101 175 270 667 462 1344 515 1820 61 545 173 805 347 805 49 0 88 -74 88 -165z m2669 -511 c-25 -96 -45 6 -44 226 1 220 22 298 46 174 24 -125 23 -305 -2 -400z m2831 470 c0 -58 -45 -78 -100 -44 -55 34 -100 82 -100 106 0 24 45 44 100 44 55 0 100 -48 100 -106z m4249 -496 c-104 -168 -377 -115 -310 60 34 87 63 256 65 375 4 197 18 192 154 -60 83 -153 124 -322 91 -375z m680 302 c-29 -110 -92 -200 -141 -200 -103 0 -118 236 -21 333 131 131 213 64 162 -133z m9463 -913 c7 -557 37 -1052 66 -1100 30 -48 -16 -87 -102 -87 -173 0 -174 3 -193 1200 -11 696 47 983 202 998 8 1 20 -454 27 -1011z m-20679 788 c37 -360 -21 -771 -153 -1080 l-147 -345 36 450 c19 248 66 574 104 725 52 210 33 275 -84 275 -84 0 -172 -56 -197 -125 -25 -69 -78 -94 -118 -57 -41 38 -44 117 -8 175 92 149 551 134 567 -18z m2680 -994 c71 -616 151 -1178 178 -1250 70 -182 229 -164 229 25 0 86 39 132 87 102 104 -64 225 -858 213 -1392 -5 -212 33 -437 85 -500 58 -72 61 -477 6 -1059 -63 -683 -53 -1083 37 -1450 82 -333 102 -782 58 -1307 -38 -440 -51 -1385 -30 -2100 l38 -1300 -347 -392 c-276 -311 -347 -352 -347 -197 0 107 71 295 157 419 134 192 148 461 92 1847 -36 893 -78 2028 -94 2523 -15 495 -84 1215 -153 1600 -121 681 -142 1704 -39 1871 28 45 -39 229 -150 408 -139 225 -234 643 -307 1359 -145 1412 -138 1912 27 1912 95 0 169 -320 260 -1119z m442 189 c40 -306 27 -458 -36 -419 -55 33 -99 268 -99 522 0 569 52 529 135 -103z m618 -902 c36 -281 144 -565 260 -681 164 -164 206 -374 245 -1218 26 -560 98 -1416 160 -1902 62 -486 117 -1710 123 -2722 l9 -1839 -272 -273 c-150 -150 -292 -252 -317 -227 -57 57 -86 1305 -65 2844 9 660 -23 1380 -73 1600 -49 220 -61 513 -26 650 107 424 -4 2270 -176 2950 -149 588 -250 1923 -156 2071 80 128 150 -174 288 -1253z m7379 807 c-32 -289 -103 -570 -158 -625 -67 -67 -79 12 -37 238 35 185 63 466 63 625 0 158 43 287 95 287 56 0 71 -218 37 -525z m-3849 -1850 c10 -1411 -22 -2228 -92 -2325 -83 -116 -94 -87 -47 125 35 164 17 275 -45 275 -196 0 -230 -321 -64 -601 138 -234 160 -552 140 -2014 -15 -1011 -67 -1766 -125 -1808 -55 -41 -180 -75 -277 -75 -165 -2 -166 15 -18 241 129 197 136 286 41 465 -141 262 -181 1790 -77 2932 40 445 79 1665 87 2710 14 1813 25 1908 230 2073 117 95 218 174 223 175 5 1 16 -977 24 -2173z m3283 1748 c-28 -68 -49 12 -47 177 3 165 25 220 50 123 26 -97 24 -232 -3 -300z m11934 277 c0 -82 -67 -150 -150 -150 -82 0 -150 68 -150 150 0 83 68 150 150 150 83 0 150 -67 150 -150z m-9249 -1523 c-38 -455 -106 -827 -152 -827 -136 0 -178 238 -76 436 63 123 59 222 -14 295 -169 169 -129 855 66 1116 174 233 175 233 210 21 19 -117 4 -586 -34 -1041z m-3081 548 c-26 -344 -80 -749 -120 -900 -68 -257 -53 -275 238 -275 211 0 312 -49 312 -150 0 -82 -86 -150 -191 -150 -202 0 -292 -414 -302 -1400 -3 -247 -33 -580 -67 -740 -55 -257 -39 -283 149 -234 203 53 212 20 227 -910 16 -973 3 -1330 -48 -1382 -16 -15 -184 -41 -373 -56 l-345 -28 30 800 c16 440 74 1228 129 1750 55 523 98 1596 96 2385 -4 1478 45 1915 214 1915 59 0 79 -253 51 -625z m8228 550 c0 -41 -45 -142 -98 -225 -78 -121 -97 -107 -98 75 -1 124 43 225 98 225 55 0 99 -34 98 -75z m1544 -186 c271 -104 207 -992 -117 -1612 -151 -290 -315 -527 -363 -527 -49 0 -57 279 -18 625 75 670 251 1575 306 1575 19 0 105 -27 192 -61z m-7329 -404 c-94 -162 -107 -149 -110 110 -2 215 27 265 107 185 79 -79 80 -163 3 -295z m8958 127 c-20 -61 -131 -126 -246 -143 -164 -24 -198 11 -159 163 36 135 111 179 247 144 107 -28 179 -102 158 -164z m-15573 -87 c-1 -176 -21 -193 -93 -80 -50 80 -70 181 -42 225 86 141 137 86 135 -145z m-698 -81 c0 -113 -45 -178 -100 -144 -55 34 -100 127 -100 206 0 79 45 144 100 144 55 0 100 -93 100 -206z m-6590 -466 c-93 -159 -104 -160 -107 -11 -2 92 29 249 69 350 66 167 75 168 107 11 19 -94 -12 -252 -69 -350z m13890 122 c0 -82 -44 -150 -97 -150 -53 0 -71 68 -39 150 31 83 75 150 97 150 21 0 39 -67 39 -150z m5548 -14 c113 -154 115 -1401 3 -1711 -74 -207 -451 -151 -451 67 0 105 -47 207 -105 226 -58 20 -120 125 -137 234 -23 145 -102 193 -295 179 -295 -21 -348 112 -100 250 120 67 131 111 42 166 -72 44 -241 -40 -415 -207 l-295 -282 253 -132 c255 -134 298 -293 189 -701 -81 -300 -237 -287 -237 20 0 135 -70 284 -155 332 -113 63 -145 208 -120 541 38 509 268 817 532 715 108 -41 220 1 303 113 72 99 197 154 278 123 121 -47 127 -121 37 -417 -93 -301 -84 -386 56 -526 216 -216 476 -25 284 206 -92 110 -82 171 43 274 146 122 145 144 -14 261 -143 104 -151 154 -47 280 161 193 203 192 351 -11z m-18990 -890 c-60 -238 -521 -399 -591 -206 -60 165 120 460 282 460 83 0 175 155 221 375 l80 375 32 -390 c17 -215 7 -491 -24 -614z m7342 254 c0 -543 -32 -700 -144 -700 -80 0 -211 -95 -292 -211 -82 -116 -197 -181 -256 -144 -192 119 -114 301 206 483 347 198 347 236 -5 287 -183 27 -280 -37 -406 -265 -91 -165 -264 -344 -384 -399 -132 -59 -219 -189 -219 -325 0 -124 -51 -226 -113 -226 -75 0 -92 130 -50 389 47 295 26 404 -87 447 -88 34 -150 184 -150 361 0 230 45 303 188 303 104 0 266 117 359 260 154 234 214 254 596 196 320 -48 458 -25 554 90 70 85 144 154 165 154 21 0 38 -315 38 -700z m4145 265 c-37 -145 -107 -239 -156 -208 -105 64 -120 479 -21 578 130 130 243 -107 177 -370z m-8545 -9 c0 -189 -48 -374 -107 -410 -153 -95 -170 -41 -118 379 59 470 225 493 225 31z m2646 251 c31 -51 16 -119 -34 -150 -50 -31 -117 11 -148 94 -63 162 88 208 182 56z m16992 13 c88 -142 -113 -351 -278 -288 -226 87 -200 368 34 368 107 0 216 -36 244 -80z m-10596 -435 l-77 -235 -67 250 c-79 295 -16 458 123 319 56 -56 65 -201 21 -334z m9858 116 c121 -78 90 -120 -164 -217 -173 -66 -396 -258 -497 -427 -153 -255 -190 -276 -221 -121 -22 110 97 323 292 525 362 373 374 378 590 240z m1600 60 c0 -22 -70 -66 -155 -99 -89 -34 -129 -18 -94 39 58 95 249 141 249 60z m-1005 -405 c97 -117 63 -172 -183 -300 -166 -86 -383 -153 -482 -150 -146 5 -138 24 41 96 122 49 279 181 349 293 152 244 128 238 275 61z m-9097 -31 c0 -41 -45 -142 -98 -225 -78 -121 -97 -107 -98 75 -1 124 43 225 98 225 55 0 99 -34 98 -75z m-12940 -350 c-26 -124 -74 -394 -107 -600 -60 -374 -251 -529 -251 -203 0 182 301 1028 365 1028 22 0 18 -101 -7 -225z m2722 5 c174 -174 147 -280 -72 -280 -299 0 -508 -108 -508 -263 0 -154 440 -96 675 89 96 76 124 -3 122 -339 -4 -483 -227 -914 -332 -640 -32 84 -36 213 -7 287 28 74 -22 195 -112 269 -128 107 -202 110 -354 15 -234 -146 -253 5 -76 595 87 293 168 387 330 387 118 0 268 -54 334 -120z m8236 -1530 c-86 -374 -91 -361 -65 200 51 1135 84 1340 122 750 19 -302 -7 -730 -57 -950z m-2218 875 c-2 -372 -146 -604 -234 -375 -117 304 -71 650 86 650 97 0 149 -97 148 -275z m6293 -157 c-50 -174 -95 -564 -101 -867 -14 -755 -166 -282 -180 557 -11 645 30 759 241 678 97 -38 108 -131 40 -368z m2809 225 c0 -256 -174 -593 -305 -593 -87 0 -62 278 60 675 63 203 245 143 245 -82z m4300 107 c0 -55 -45 -100 -100 -100 -55 0 -100 45 -100 100 0 55 45 100 100 100 55 0 100 -45 100 -100z m-781 -268 c-72 -29 -159 -26 -192 8 -33 33 26 56 131 52 117 -5 141 -28 61 -60z m-22159 -305 c-33 -33 -56 26 -52 131 5 117 28 141 60 61 29 -72 26 -159 -8 -192z m14160 -91 l380 -263 0 -967 c0 -598 44 -1010 116 -1082 87 -87 84 -153 -12 -270 -71 -85 -166 -154 -212 -154 -88 0 -97 87 -129 1300 -24 870 -115 1200 -331 1200 -115 0 -137 -59 -87 -225 197 -651 201 -641 -120 -342 -176 165 -329 241 -366 182 -35 -57 -219 -76 -416 -45 -281 46 -394 13 -559 -164 -137 -147 -241 -189 -306 -124 -139 139 7 918 173 918 243 0 449 -120 449 -261 0 -81 102 -139 244 -139 291 0 434 176 212 261 -218 84 -195 190 69 317 344 166 482 144 895 -142z m6979 -950 c1 -622 -30 -777 -166 -829 -91 -35 -211 -19 -265 35 -90 90 -176 1572 -101 1724 18 36 145 13 282 -50 234 -109 249 -164 250 -880z m2101 714 c0 -165 -45 -300 -100 -300 -55 0 -100 135 -100 300 0 165 45 300 100 300 55 0 100 -135 100 -300z m-20402 -225 c1 -41 -43 -75 -98 -75 -55 0 -99 101 -98 225 1 182 20 196 98 75 53 -82 98 -184 98 -225z m4841 -400 c-27 -399 -71 -866 -97 -1039 -47 -312 -49 -313 -446 -212 -292 74 -414 164 -458 338 -77 308 -218 303 -338 -12 -135 -354 -271 -310 -319 103 -39 328 -11 369 406 602 470 263 770 205 518 -99 -162 -195 -66 -456 169 -456 140 0 182 85 189 383 12 449 215 1117 339 1117 47 0 64 -326 37 -725z m-7639 531 c0 -52 -45 -122 -100 -156 -55 -34 -100 8 -100 94 0 86 45 156 100 156 55 0 100 -42 100 -94z m6300 -156 c0 -82 -45 -150 -100 -150 -55 0 -100 68 -100 150 0 83 45 150 100 150 55 0 100 -67 100 -150z m-3300 -791 c0 -106 -14 -174 -30 -151 -17 23 -109 167 -205 321 -172 275 -172 277 30 151 113 -71 205 -215 205 -321z m-1630 -834 c-49 -1062 -118 -1425 -269 -1425 -149 0 -185 555 -88 1341 91 739 218 1159 351 1159 31 0 34 -484 6 -1075z m12035 919 c83 -100 215 -136 363 -99 283 72 313 -106 32 -195 -110 -35 -227 -173 -261 -307 -77 -310 -263 -319 -223 -11 17 128 -48 353 -145 500 -139 213 -147 268 -36 268 77 0 199 -70 270 -156z m6864 -419 c-25 -96 -46 -17 -46 175 0 193 21 271 46 175 25 -96 25 -254 0 -350z m3431 263 c0 -55 -45 -72 -100 -38 -55 34 -100 107 -100 162 0 55 45 72 100 38 55 -34 100 -107 100 -162z m-10980 -108 c-52 -52 -268 -78 -482 -59 l-388 35 350 106 c383 116 673 71 520 -82z m6462 -13 c19 -99 -32 -167 -125 -167 -92 0 -157 85 -157 208 0 244 234 210 282 -41z m-18543 -1624 c-32 -1526 -21 -1654 138 -1624 112 21 184 144 204 346 25 261 64 304 236 260 169 -45 195 -19 143 144 -60 189 179 931 299 931 31 0 30 -124 -3 -275 -33 -151 -79 -455 -104 -675 -24 -220 -90 -670 -147 -1000 -57 -330 -104 -862 -104 -1182 -1 -501 -25 -578 -176 -548 -194 38 -227 441 -92 1105 61 301 46 375 -75 375 -214 0 -358 -319 -358 -793 0 -666 -199 -461 -212 218 -11 569 -53 1821 -100 2975 -26 639 170 1400 361 1400 13 0 8 -746 -10 -1657z m22161 1357 c0 -55 -93 -100 -206 -100 -113 0 -178 45 -144 100 34 55 127 100 206 100 79 0 144 -45 144 -100z m-10500 -356 c0 -145 -43 -229 -100 -194 -55 34 -100 149 -100 256 0 107 45 194 100 194 55 0 100 -115 100 -256z m-8513 22 c146 -176 45 -266 -298 -266 -341 0 -454 152 -216 291 241 140 382 134 514 -25z m19632 66 c-72 -29 -159 -26 -192 8 -33 33 26 56 131 52 117 -5 141 -28 61 -60z m-9369 -432 c0 -73 -56 -152 -125 -175 -74 -25 -125 46 -125 175 0 129 51 200 125 175 69 -23 125 -102 125 -175z m-11350 11 c0 -123 -282 -221 -344 -121 -28 45 -22 111 13 146 96 95 331 77 331 -25z m-2831 -486 c-25 -96 -46 -17 -46 175 0 193 21 271 46 175 25 -96 25 -254 0 -350z m3763 113 c-27 -69 -146 -140 -265 -157 -154 -22 -217 -101 -217 -272 0 -350 -210 -367 -329 -26 -78 223 -69 326 35 430 180 179 843 200 776 25z m2768 -63 c0 -117 -146 -88 -187 38 -21 61 13 95 75 75 61 -21 112 -72 112 -113z m-2518 -466 c26 -270 1 -320 -149 -292 -194 38 -286 300 -191 547 96 251 306 94 340 -255z m-1572 -154 c135 -142 109 -255 -60 -255 -109 0 -147 103 -138 375 6 212 32 288 59 175 27 -110 89 -243 139 -295z m10390 39 c0 -116 -68 -194 -170 -194 -126 0 -141 29 -58 112 62 62 86 182 53 267 -39 101 -19 129 58 82 64 -40 117 -160 117 -267z m-12691 -1212 c53 -767 50 -1263 -10 -1323 -173 -173 -207 4 -210 1103 -4 1469 1 1581 73 1509 34 -34 100 -614 147 -1289z m13391 1068 c0 -82 -68 -150 -150 -150 -156 0 -198 118 -83 233 115 115 233 73 233 -83z m-10400 -462 c0 -55 -45 -72 -100 -38 -55 34 -100 107 -100 162 0 55 45 72 100 38 55 -34 100 -107 100 -162z m827 112 c61 0 24 -64 -82 -141 -218 -160 -345 -120 -345 108 0 100 56 133 158 94 87 -34 208 -61 269 -61z m14309 -50 c-61 -159 -236 -208 -236 -67 0 106 109 217 214 217 44 0 54 -67 22 -150z m3070 -204 c391 -289 377 -366 -71 -406 -215 -20 -372 36 -498 175 -179 197 -179 207 8 344 234 171 154 187 561 -113z m-18206 -408 c0 -217 -25 -242 -144 -143 -79 66 -119 184 -89 262 90 235 233 162 233 -119z m16483 -28 c-151 -241 -355 -263 -614 -66 -137 103 -150 156 -56 214 69 43 142 28 162 -32 24 -74 120 -65 301 29 324 168 379 130 207 -145z m-11928 -19 c37 -60 16 -160 -48 -224 -87 -87 -138 -79 -210 34 -52 82 -95 183 -95 224 -3 116 278 89 353 -34z m-923 -231 c30 -77 28 -167 -5 -199 -70 -71 -327 127 -327 251 0 143 274 100 332 -52z m-3612 -386 c-58 -70 -116 -441 -130 -825 -29 -773 -323 -1556 -513 -1366 -76 76 -52 188 81 387 127 190 193 483 204 911 12 443 69 688 193 825 193 213 333 271 165 68z m780 -285 c0 -49 -67 -89 -150 -89 -82 0 -150 66 -150 147 0 89 59 124 150 89 83 -31 150 -98 150 -147z m19898 -120 c1 -44 -43 -53 -98 -19 -55 34 -99 138 -98 231 1 146 14 148 98 19 53 -82 98 -186 98 -231z m-21342 -601 c-54 -431 -109 -539 -330 -643 -146 -69 -302 -125 -346 -125 -111 0 -97 418 20 600 78 120 97 104 98 -83 2 -278 236 -244 285 41 167 986 392 1159 273 210z m-547 201 c-79 -79 -109 -53 -109 94 0 265 140 405 184 185 19 -93 -14 -218 -75 -279z m19791 275 c0 -86 -45 -128 -100 -94 -55 34 -100 104 -100 156 0 52 45 94 100 94 55 0 100 -70 100 -156z m-15600 -190 c0 -26 -101 -101 -225 -167 -204 -109 -212 -104 -88 47 128 155 313 225 313 120z m-2147 -1111 c-37 -299 -109 -543 -160 -543 -89 0 -138 295 -98 586 10 74 -41 116 -113 92 -73 -24 -146 -138 -163 -254 -17 -115 -93 -261 -169 -324 -115 -96 -138 -29 -135 392 2 280 45 508 95 508 49 0 90 -45 90 -100 0 -145 299 -123 345 25 21 69 70 260 109 425 l71 300 98 -282 c54 -155 68 -526 30 -825z m-3341 61 c88 -2 278 -96 422 -209 204 -161 303 -182 457 -100 311 167 340 131 258 -320 -96 -530 -75 -1362 50 -2057 78 -429 67 -577 -57 -766 -112 -170 -127 -286 -54 -419 427 -784 531 -1111 419 -1319 -63 -118 -181 -214 -264 -214 -82 0 -175 -67 -207 -150 -31 -82 -176 -150 -322 -149 -212 1 -335 113 -625 575 -461 731 -510 882 -334 1028 111 93 152 89 186 -18 24 -75 99 -316 167 -536 157 -511 377 -850 554 -850 189 0 174 125 -70 593 -317 608 -526 1400 -523 1980 2 593 -125 695 -728 582 l-341 -64 0 548 c0 301 51 675 113 829 161 400 201 811 86 883 -55 33 -99 143 -99 243 0 168 30 172 375 49 206 -74 448 -136 537 -139z m22688 196 c0 -55 -42 -100 -94 -100 -52 0 -122 45 -156 100 -34 55 8 100 94 100 86 0 156 -45 156 -100z m-18101 -500 c46 0 33 -135 -30 -300 -126 -335 -419 -402 -494 -114 -67 256 110 541 292 471 82 -31 187 -57 232 -57z m5909 -360 c89 -106 78 -152 -49 -200 -126 -49 -149 -141 -100 -401 48 -258 25 -351 -99 -399 -207 -79 -465 130 -393 317 33 87 -8 143 -106 143 -265 0 -214 587 60 688 265 98 530 41 687 -148z m-7708 -540 c0 -55 -45 -100 -100 -100 -55 0 -100 45 -100 100 0 55 45 100 100 100 55 0 100 -45 100 -100z m-621 -314 c-25 -75 -71 -29 -106 106 -43 166 -30 205 44 131 58 -58 86 -165 62 -237z m2571 114 c0 -81 -135 -209 -300 -284 -1178 -538 -1660 -1055 -1797 -1926 -51 -326 -335 -590 -633 -590 -38 0 -78 355 -88 789 l-18 788 414 470 c514 581 659 661 1472 812 781 145 950 135 950 -59z m-5065 -1582 c179 -466 239 -918 123 -918 -59 0 -108 47 -108 105 0 58 -131 151 -292 207 -368 129 -421 267 -253 667 157 372 373 347 530 -61z m13972 -60 c33 -133 45 -324 26 -425 -48 -252 -465 -295 -633 -66 -204 279 -301 76 -105 -223 133 -203 225 -248 413 -201 267 67 320 -54 103 -234 -218 -181 -646 70 -871 510 -193 378 -193 381 10 555 430 370 974 413 1057 84z m-14144 -1898 c152 -338 152 -340 -67 -240 -139 63 -221 190 -221 340 0 336 107 299 288 -100z m2789 -515 c64 -196 88 -471 53 -613 -60 -238 -75 -243 -195 -79 -230 315 -365 86 -209 -356 193 -547 86 -500 -158 69 -152 355 -228 439 -316 351 -89 -89 -76 -231 54 -592 197 -551 205 -625 68 -625 -55 0 -173 180 -261 400 -88 220 -222 400 -299 400 -181 0 -177 -51 61 -675 109 -289 177 -525 150 -525 -28 0 -80 -11 -117 -25 -36 -14 -74 77 -83 201 -24 324 -439 740 -631 633 -92 -52 -291 -28 -510 62 -517 213 -576 308 -194 314 184 2 479 48 656 101 384 117 1394 893 1481 1139 101 288 325 199 450 -180z m-2877 -343 c160 -187 159 -204 -28 -303 -176 -95 -197 -74 -197 197 0 359 6 362 225 106z m335 -1742 c370 -370 431 -560 179 -560 -101 0 -139 -55 -103 -150 68 -177 -156 -200 -443 -46 -151 81 -193 211 -193 600 0 294 45 496 110 496 61 0 263 -153 450 -340z m3192 -250 c-73 -332 -155 -369 -459 -206 -269 144 -241 318 82 506 342 200 465 102 377 -300z m-998 197 c-36 -59 -114 -107 -172 -107 -66 0 -59 57 20 152 137 166 260 129 152 -45z m11146 -419 c0 -55 -45 -72 -100 -38 -55 34 -100 107 -100 162 0 55 45 72 100 38 55 -34 100 -107 100 -162z m-11923 -632 c120 -449 84 -568 -103 -342 -68 83 -248 227 -399 320 -379 235 -352 426 60 426 306 0 343 -34 442 -404z m1166 306 c149 -77 605 -144 1037 -153 681 -12 1409 -165 1573 -329 31 -31 25 -181 -13 -334 -56 -225 -90 -251 -180 -137 -145 186 -734 476 -1110 547 -320 61 -1050 -188 -1050 -357 0 -224 -189 -78 -218 168 -45 380 -251 401 -332 33 -69 -314 -230 -358 -352 -94 -37 79 -123 251 -192 382 -101 194 -99 255 10 324 198 126 526 106 827 -50z m11270 -512 c53 -110 -17 -65 -157 100 -140 165 -254 345 -252 400 3 115 264 -204 409 -500z m2687 161 c0 -212 -223 -334 -450 -247 -223 85 -183 184 125 306 151 60 286 114 300 119 14 6 25 -74 25 -178z m-10346 -118 c117 -189 -54 -236 -228 -62 -156 156 -156 169 -3 169 91 0 195 -48 231 -107z m-5809 -204 c58 -54 12 -89 -117 -89 -117 0 -346 -112 -510 -250 -163 -137 -324 -250 -357 -250 -140 0 -47 539 114 662 180 138 691 96 870 -73z m7033 -300 c125 -48 256 -166 290 -263 80 -226 337 -526 451 -526 48 0 38 93 -23 208 -102 189 -93 198 96 96 115 -61 208 -176 208 -256 0 -80 178 -258 396 -395 511 -323 770 -753 454 -753 -93 0 -150 94 -150 250 0 165 -56 250 -164 250 -137 0 -155 -79 -107 -479 50 -420 31 -492 -153 -575 -247 -113 -449 -406 -348 -507 39 -39 150 -2 246 83 246 216 613 312 756 199 66 -52 289 -125 495 -162 376 -68 545 -359 208 -359 -226 0 -1534 -594 -1783 -810 -110 -95 -627 -361 -1150 -590 -1584 -697 -1477 -667 -1675 -458 -134 143 -140 174 -25 135 124 -43 150 74 150 685 0 523 -36 738 -125 738 -69 0 -125 50 -125 111 0 75 144 90 442 45 364 -54 460 -34 542 112 92 164 120 157 353 -95 281 -303 463 -351 463 -123 0 100 100 150 300 150 268 0 300 33 300 304 0 168 74 598 164 957 122 487 135 680 50 765 -63 63 -114 192 -114 288 0 96 -50 205 -111 243 -80 49 -91 -81 -39 -457 90 -652 -66 -605 -296 89 -99 298 -332 659 -603 933 l-441 447 420 -97 c231 -53 523 -136 648 -183z m-1728 -22 c0 -261 -196 -245 -233 19 -23 162 8 222 100 192 73 -25 133 -120 133 -211z m3004 21 c218 -116 599 -313 846 -438 248 -125 521 -311 608 -414 196 -231 611 -951 571 -990 -16 -17 -150 -60 -298 -97 -237 -60 -308 -11 -621 424 -218 303 -547 597 -857 766 -276 150 -503 325 -503 388 0 64 -124 217 -275 341 -249 204 -256 225 -71 228 112 2 382 -91 600 -208z m-5542 -155 c-87 -150 -106 -155 -109 -25 -3 169 102 320 173 250 23 -24 -5 -125 -64 -225z m546 142 c-32 -69 -86 -204 -120 -300 -54 -153 -238 -253 -238 -130 0 135 246 555 324 555 51 0 66 -56 34 -125z m12029 -50 c169 -141 222 -335 276 -1000 90 -1124 266 -1065 222 74 -27 682 -3 911 98 950 355 136 413 -42 168 -513 -378 -724 3 -1736 653 -1736 332 0 363 -73 149 -356 -133 -176 -147 -177 -150 -19 -2 96 -48 175 -103 175 -151 0 -120 -459 40 -592 77 -63 164 -283 194 -487 66 -454 303 -1408 410 -1646 42 -97 42 -299 -1 -450 l-79 -275 -41 250 c-23 138 -102 318 -176 401 -74 83 -165 376 -202 650 -83 618 -205 856 -792 1538 -559 651 -865 1226 -909 1705 -17 196 -62 615 -98 931 -71 618 -8 692 341 400z m-14361 -198 c97 -28 205 -169 239 -314 109 -453 417 -984 686 -1179 l258 -188 -303 -291 c-167 -160 -324 -270 -349 -245 -25 25 -57 269 -71 543 -22 441 -79 554 -505 1007 -488 517 -648 930 -306 789 96 -39 254 -94 351 -122z m5115 -135 c432 -513 312 -690 -222 -328 -478 325 -467 308 -321 484 178 214 249 194 543 -156z m-3741 58 c0 -82 -45 -150 -100 -150 -55 0 -100 68 -100 150 0 83 45 150 100 150 55 0 100 -67 100 -150z m2300 -194 c0 -79 -49 -174 -109 -211 -141 -88 -334 105 -246 246 98 159 355 133 355 -35z m-1240 -329 c-33 -33 -56 26 -52 131 5 117 28 141 60 61 29 -72 26 -159 -8 -192z m-4260 -27 c-106 -197 -300 -275 -300 -120 0 105 217 320 324 320 45 0 35 -90 -24 -200z m509 17 c-54 -101 -178 -247 -275 -325 -125 -101 -110 -48 52 183 247 352 381 438 223 142z m441 -117 c-34 -55 -82 -100 -106 -100 -24 0 -44 45 -44 100 0 55 48 100 106 100 58 0 78 -45 44 -100z m2503 -78 c-29 -76 -53 -183 -53 -237 0 -170 -420 -45 -559 165 -124 188 -108 200 267 205 299 4 385 -29 345 -133z m2947 -22 c0 -55 -45 -100 -100 -100 -55 0 -100 45 -100 100 0 55 45 100 100 100 55 0 100 -45 100 -100z m12098 -231 c-1 -178 -19 -191 -98 -69 -127 197 -127 429 0 350 55 -34 99 -160 98 -281z m-14598 143 c0 -49 90 -112 200 -141 110 -29 200 -124 200 -212 0 -200 -96 -201 -378 -3 -226 158 -304 444 -122 444 55 0 100 -40 100 -88z m-3200 -112 c0 -55 -45 -100 -100 -100 -55 0 -100 45 -100 100 0 55 45 100 100 100 55 0 100 -45 100 -100z m4600 -262 c0 -312 27 -354 200 -309 110 29 225 11 256 -38 31 -50 -132 -91 -362 -91 -321 0 -395 29 -319 125 57 71 66 211 20 325 -119 295 -111 350 55 350 106 0 150 -107 150 -362z m-5302 10 c-70 -84 -147 -132 -172 -107 -70 69 71 259 192 259 66 0 59 -57 -20 -152z m1898 -141 c154 -287 126 -864 -48 -1009 -221 -183 -288 -56 -161 307 97 279 87 320 -89 366 -109 29 -198 73 -198 97 0 119 218 432 300 432 51 0 140 -87 196 -193z m5814 -178 c-96 -165 -104 -163 -107 29 -3 232 124 412 177 252 19 -56 -13 -183 -70 -281z m-6660 171 c-34 -55 -107 -100 -162 -100 -55 0 -72 45 -38 100 34 55 107 100 162 100 55 0 72 -45 38 -100z m5219 -174 c-154 -154 -169 -154 -169 -6 0 90 56 183 125 208 204 73 225 -21 44 -202z m1739 -458 c-129 -129 -150 112 -34 399 65 161 78 155 109 -54 18 -130 -15 -285 -75 -345z m-7808 322 c0 -154 -327 -690 -422 -690 -137 0 -84 304 97 553 187 258 325 316 325 137z m600 10 c0 -55 -48 -100 -106 -100 -58 0 -78 45 -44 100 34 55 82 100 106 100 24 0 44 -45 44 -100z m398 -225 c-3 -168 -369 -637 -442 -565 -77 78 235 690 351 690 51 0 92 -56 91 -125z m1888 -166 c-130 -106 -258 -169 -286 -142 -58 58 296 333 430 333 51 0 -14 -86 -144 -191z m9345 -489 c321 -312 769 -1077 769 -1314 0 -37 -91 -166 -202 -285 -197 -211 -215 -213 -625 -54 -818 316 -1260 912 -1250 1683 4 275 54 531 112 568 169 110 784 -198 1196 -598z m6772 75 c169 -317 121 -516 -107 -444 -177 56 -196 32 -142 -182 77 -305 -120 -454 -291 -220 -68 93 -210 154 -315 135 -145 -26 -206 40 -250 266 -96 495 -15 636 387 671 466 40 598 -2 718 -226z m-11337 -120 c-28 -69 -50 -12 -50 125 0 138 22 194 50 125 28 -69 28 -181 0 -250z m-7736 -182 c-173 -294 -330 -384 -330 -189 0 181 318 596 413 538 49 -31 12 -188 -83 -349z m2370 263 c0 -159 -181 -308 -269 -220 -82 82 46 364 166 364 57 0 103 -65 103 -144z m252 -574 c-260 -549 -837 -1330 -921 -1247 -68 69 231 898 460 1274 175 288 605 628 688 545 17 -16 -86 -274 -227 -572z m1876 -240 c-95 -381 -188 -613 -207 -517 -39 191 264 1323 335 1252 24 -24 -33 -355 -128 -735z m-3062 108 c-55 -302 -142 -550 -194 -550 -53 0 -66 101 -30 225 36 124 92 371 125 550 33 179 91 325 129 325 38 0 25 -247 -30 -550z m12233 -93 c138 -134 491 -458 784 -722 294 -263 652 -682 797 -932 145 -249 385 -632 533 -851 209 -309 247 -441 169 -585 -55 -103 -85 -404 -66 -668 19 -264 6 -463 -27 -442 -34 21 -254 429 -490 906 -235 478 -569 1008 -741 1178 -571 565 -1225 1559 -1402 2134 -94 304 119 295 443 -18z m-13599 43 c0 -55 -48 -100 -106 -100 -58 0 -78 45 -44 100 34 55 82 100 106 100 24 0 44 -45 44 -100z m10783 -221 c112 -176 185 -350 163 -386 -23 -36 -198 -91 -389 -122 -415 -68 -1904 -762 -2605 -1216 -276 -178 -659 -384 -852 -456 -192 -73 -406 -176 -475 -228 -164 -125 -1318 -365 -1363 -284 -20 35 -67 235 -105 445 -38 210 -95 458 -126 550 -54 156 -48 155 81 -1 176 -216 786 -115 1646 274 326 148 859 375 1186 507 327 131 619 274 650 318 166 237 1500 888 1871 912 64 5 207 -136 318 -313z m-10023 -352 c-33 -33 -56 26 -52 131 5 117 28 141 60 61 29 -72 26 -159 -8 -192z m-679 -227 c216 0 123 -203 -138 -302 -443 -169 -515 -128 -487 277 14 206 30 394 35 417 5 24 113 -55 240 -175 128 -119 285 -217 350 -217z m19034 156 c90 -196 80 -276 -51 -406 -211 -211 -364 -110 -364 239 0 467 235 562 415 167z m-703 -281 c37 -713 -218 -787 -346 -100 -52 277 -32 325 137 325 134 0 201 -72 209 -225z m-7425 -675 c40 0 119 46 175 102 132 132 484 -238 410 -430 -50 -132 -1275 -803 -1342 -736 -18 19 61 153 176 299 208 264 143 374 -86 145 -298 -298 -3 403 338 804 189 222 193 222 224 21 18 -113 65 -205 105 -205z m-10331 82 c41 -131 131 -155 406 -111 l354 58 -308 -501 c-205 -332 -308 -630 -309 -889 0 -362 -127 -988 -272 -1339 -105 -256 -192 522 -99 884 68 263 52 359 -77 453 -115 84 -180 342 -221 881 l-57 763 264 -16 c151 -8 288 -88 319 -183z m18544 11 c0 -113 -47 -293 -104 -400 -72 -135 -71 -193 4 -193 58 0 132 68 164 150 103 270 236 158 236 -200 0 -460 -317 -801 -602 -649 -384 205 -196 1499 217 1499 47 0 85 -93 85 -207z m-6447 -262 c-70 -373 -4 -626 510 -1954 185 -480 337 -981 337 -1113 0 -132 61 -290 136 -352 170 -142 429 -1590 304 -1706 -49 -46 -191 -114 -315 -152 -255 -76 -246 -95 -420 846 -228 1229 -870 3275 -1254 4000 -73 138 -111 363 -85 502 42 217 104 253 450 262 l402 11 -65 -344z m4476 -356 c135 -367 139 -521 29 -1125 -114 -626 -138 -674 -229 -450 -56 138 -81 502 -54 811 28 328 -1 650 -68 777 -114 213 -73 412 85 412 45 0 151 -191 237 -425z m-17329 -137 c0 -208 -41 -325 -100 -288 -55 34 -100 219 -100 412 0 208 41 325 100 288 55 -34 100 -219 100 -412z m20200 138 c0 -389 -335 -1075 -525 -1076 -201 0 -226 109 -62 273 62 62 128 275 146 472 38 430 105 555 297 555 82 0 144 -96 144 -224z m-15749 -655 c166 -1055 176 -987 -200 -1363 -381 -382 -540 -707 -610 -1251 -88 -682 -167 -439 -111 343 57 799 216 1390 437 1624 116 123 258 616 226 787 -38 203 13 347 103 291 53 -32 123 -226 155 -431z m10022 154 c172 -179 487 -685 700 -1125 212 -440 458 -912 545 -1050 88 -137 348 -803 580 -1479 316 -924 393 -1261 310 -1362 -146 -175 -500 -1852 -404 -1911 41 -26 105 122 143 328 163 888 274 1324 336 1323 37 -1 197 -340 356 -754 247 -644 280 -838 226 -1352 -50 -480 -33 -612 86 -657 231 -89 176 -236 -88 -236 -209 0 -245 -59 -304 -505 -61 -459 -431 -1357 -522 -1266 -20 21 34 259 120 530 222 691 426 1741 338 1741 -97 0 -195 -264 -195 -527 0 -376 -525 -1873 -657 -1873 -97 0 -104 83 -30 352 75 270 65 385 -44 493 -110 111 -122 267 -54 723 47 320 131 685 186 812 106 245 138 792 41 695 -86 -86 -442 -1772 -442 -2095 0 -154 34 -280 75 -280 41 0 75 -426 76 -946 0 -620 43 -988 125 -1070 149 -149 164 -384 24 -384 -55 0 -100 90 -100 200 0 110 -62 200 -137 200 -102 0 -155 250 -207 975 -39 536 -127 1308 -197 1715 -93 541 -97 802 -18 974 123 265 259 311 259 86 0 -82 47 -150 105 -150 65 0 79 131 39 349 -72 380 76 1320 369 2362 214 756 222 823 93 743 -51 -32 -169 -406 -262 -831 -92 -425 -224 -998 -292 -1272 l-124 -500 -50 400 c-28 222 28 711 127 1105 264 1053 338 1644 206 1644 -61 0 -111 -119 -111 -263 0 -440 -229 -1537 -321 -1537 -47 0 -126 101 -176 225 l-90 225 -7 -225 c-3 -124 -45 -225 -94 -225 -208 0 -304 295 -263 807 25 299 20 462 -11 362 -79 -260 -294 -143 -258 141 274 2227 356 3382 225 3190 -56 -82 -103 -375 -105 -650 -3 -658 -104 -1250 -214 -1250 -48 0 -73 655 -56 1456 17 801 -6 1479 -50 1506 -44 27 -80 -358 -80 -856 0 -498 -40 -906 -89 -906 -161 0 -211 301 -211 1258 0 1070 68 1143 573 617z m-2462 -107 c80 -300 25 -327 -249 -120 -113 87 -162 206 -124 306 88 230 288 131 373 -186z m1628 -126 c34 -87 57 -278 53 -425 l-8 -267 -138 300 c-75 165 -139 356 -141 425 -7 179 162 155 234 -33z m4761 -198 c0 -86 -45 -128 -100 -94 -55 34 -100 104 -100 156 0 52 45 94 100 94 55 0 100 -70 100 -156z m-1614 -825 c167 -445 176 -540 57 -586 -359 -137 -643 264 -643 907 0 671 267 525 586 -321z m2163 479 c-35 -56 -105 -75 -156 -44 -139 86 -113 146 63 146 86 0 128 -46 93 -102z m-18749 -765 c0 -366 -32 -634 -71 -595 -103 103 -118 1262 -16 1262 48 0 87 -300 87 -667z m19550 410 c0 -113 79 -285 176 -383 226 -227 152 -336 -284 -418 -605 -114 -926 350 -582 841 208 298 690 270 690 -40z m-7355 -743 c-1 -151 -102 -323 -255 -435 -346 -252 -423 -132 -105 163 197 182 246 307 209 530 -36 218 -23 254 52 142 56 -82 100 -262 99 -400z m4207 -501 c225 -161 315 -346 444 -912 89 -390 245 -873 346 -1073 358 -705 727 -2045 674 -2451 -75 -582 -266 -705 -266 -172 0 238 -85 595 -190 795 -209 400 -610 1630 -610 1870 0 84 -84 319 -186 523 -103 204 -217 535 -253 736 -37 201 -133 420 -214 487 -144 120 -205 398 -87 398 32 0 186 -91 342 -201z m2189 -174 c-74 -96 -147 -194 -163 -217 -15 -23 -28 56 -28 175 0 134 63 217 162 217 139 0 143 -25 29 -175z m-19031 -298 c-101 -102 -185 51 -102 186 63 102 87 102 121 1 23 -70 15 -154 -19 -187z m20294 14 c2 -105 37 -245 78 -311 43 -71 -50 -256 -226 -450 -280 -308 -300 -315 -303 -106 -5 374 233 1131 343 1094 57 -20 106 -122 108 -227z m-591 -153 c-35 -172 -63 -420 -63 -550 0 -253 -233 -327 -364 -116 -103 167 -54 685 79 846 60 73 177 132 260 132 115 0 135 -73 88 -312z m-6463 12 c0 -111 -67 -200 -150 -200 -152 0 -205 212 -83 333 126 127 233 66 233 -133z m-12849 -482 c-60 -156 -72 -155 -162 6 -67 119 -57 245 30 400 l127 226 35 -232 c19 -128 6 -308 -30 -400z m10649 435 c0 -27 -146 -123 -325 -214 l-325 -166 190 213 c169 189 460 295 460 167z m498 -378 c1 -41 -88 -75 -198 -75 -226 0 -256 104 -81 279 93 93 138 92 199 -5 43 -68 80 -158 80 -199z m1842 -309 c44 -230 0 -477 -141 -796 -128 -288 -181 -556 -142 -712 35 -138 70 -417 78 -621 20 -500 229 -548 290 -67 32 256 -2 438 -107 558 -117 135 -131 244 -59 450 154 438 274 318 421 -421 134 -670 131 -698 -74 -852 -314 -237 -410 -692 -222 -1055 85 -165 143 -401 128 -525 -15 -126 38 -251 120 -282 91 -35 125 -134 91 -264 -32 -122 7 -255 93 -319 256 -193 329 -435 409 -1372 32 -380 3 -485 -161 -587 -168 -105 -220 -96 -332 56 -72 100 -132 258 -132 352 0 94 -166 493 -369 888 -232 451 -331 743 -266 785 188 123 248 591 84 654 -82 32 -149 149 -149 261 0 112 -44 203 -97 203 -53 0 -71 68 -39 150 32 83 3 150 -65 150 -73 0 -101 80 -70 200 29 110 6 228 -50 263 -60 37 -78 243 -43 498 48 353 26 452 -119 530 -300 160 -425 -11 -365 -498 30 -244 99 -578 152 -743 53 -165 167 -658 252 -1096 85 -438 202 -854 261 -925 59 -70 81 -225 50 -344 -55 -209 281 -941 593 -1293 77 -87 140 -253 140 -369 0 -345 179 -355 574 -29 418 344 526 375 526 152 0 -243 -348 -554 -658 -587 -155 -17 -299 -93 -320 -170 -43 -164 -209 -568 -334 -813 -48 -95 -88 -227 -88 -293 0 -166 -406 -583 -567 -583 -213 0 -154 345 111 653 135 157 223 320 196 363 -26 42 44 267 156 500 244 503 249 578 55 723 -149 111 -590 1290 -902 2411 -92 330 -230 782 -308 1003 -78 222 -141 482 -141 577 0 95 -54 259 -119 364 -89 141 -91 254 -11 430 60 132 88 350 62 485 -35 187 51 344 368 668 481 490 538 516 382 173 -63 -137 -147 -250 -187 -250 -41 0 -100 -68 -131 -150 -34 -89 -1 -150 82 -150 186 0 874 1298 814 1535 -53 210 23 465 140 465 43 0 106 -150 140 -334z m-2441 -38 c110 -95 201 -264 201 -375 1 -112 92 -353 204 -537 264 -433 158 -866 -156 -639 -117 84 -359 854 -384 1223 -9 138 -53 306 -96 375 -113 177 -5 155 231 -47z m1901 -26 c0 -185 -566 -735 -682 -663 -76 47 -6 186 209 414 329 349 473 425 473 249z m-11987 -427 c7 -124 23 -326 36 -450 13 -124 -15 -225 -63 -225 -47 0 -86 115 -86 257 0 141 -47 343 -104 450 -81 152 -70 193 50 193 89 0 159 -95 167 -225z m18241 63 c279 -182 312 -410 103 -694 -188 -254 -317 -116 -405 431 -77 473 -52 495 302 263z m-18954 -282 c0 -79 -45 -172 -100 -206 -55 -34 -100 31 -100 144 0 113 45 206 100 206 55 0 100 -65 100 -144z m300 -662 c0 -257 -38 -382 -105 -341 -57 35 -84 207 -59 381 54 377 51 366 114 366 28 0 50 -183 50 -406z m14120 146 c146 -52 128 -97 -123 -308 -326 -274 -491 -241 -470 95 15 245 167 397 323 321 55 -26 177 -75 270 -108z m-14569 -538 c-27 -43 0 -218 59 -389 82 -235 76 -382 -25 -611 -74 -166 -168 -302 -209 -302 -111 0 -93 176 39 387 87 140 88 297 1 642 -129 513 -48 980 101 578 46 -124 61 -261 34 -305z m1499 -52 c0 -101 -56 -202 -125 -225 -79 -26 -125 56 -125 225 0 169 46 251 125 225 69 -23 125 -124 125 -225z m18250 103 c0 -49 -769 -1255 -855 -1342 -89 -89 468 1133 577 1264 100 122 278 172 278 78z m-5013 -378 c160 -512 173 -803 38 -849 -69 -23 -141 17 -160 91 -19 73 -84 283 -144 465 -109 333 -71 618 82 618 45 0 127 -146 184 -325z m-3619 -110 c-79 -63 -192 -205 -253 -315 -104 -191 -109 -189 -112 39 -2 131 75 296 171 366 213 156 395 72 194 -90z m3173 -600 c87 -465 375 -717 651 -569 143 76 208 209 208 428 0 412 142 252 280 -317 121 -499 36 -757 -285 -859 -441 -139 -957 526 -1072 1381 -66 493 124 437 218 -64z m-512 -65 c-29 -110 -92 -200 -141 -200 -103 0 -118 236 -21 333 131 131 213 64 162 -133z m-2390 -802 c150 -1332 172 -1945 66 -1841 -110 108 -283 2440 -174 2341 32 -29 80 -254 108 -500z m2561 243 c0 -82 71 -256 157 -387 146 -224 143 -247 -52 -351 -166 -89 -220 -81 -268 44 -33 86 -7 218 57 295 79 96 83 161 11 205 -58 36 -105 155 -105 265 0 110 45 172 100 138 55 -34 100 -128 100 -209z m-9340 -1001 c-36 -93 -87 -146 -115 -119 -27 28 -21 126 15 219 36 93 87 146 115 119 27 -28 21 -126 -15 -219z m7338 -265 c1 -151 -43 -275 -98 -275 -55 0 -99 191 -98 425 1 311 27 385 98 275 53 -82 98 -274 98 -425z m1031 225 c-29 -110 -64 -200 -79 -200 -15 0 -50 90 -79 200 -33 125 -3 200 79 200 82 0 112 -75 79 -200z m1269 -225 c1 -41 -66 -75 -148 -75 -153 0 -205 212 -82 335 67 67 227 -114 230 -260z m732 132 c210 -79 260 -193 360 -825 64 -402 159 -1648 211 -2768 84 -1776 122 -2078 301 -2368 113 -182 248 -346 300 -364 54 -18 62 -153 19 -313 l-75 -281 -223 458 c-134 276 -322 497 -473 554 -233 89 -250 141 -250 787 0 655 -148 2380 -250 2915 -26 137 -90 473 -143 748 -182 950 -230 1550 -123 1550 57 0 212 -42 346 -93z m-9930 -245 c0 -170 -256 -393 -398 -346 -65 22 -45 121 52 260 177 252 346 294 346 86z m14898 -414 c-70 -84 -153 -127 -184 -95 -32 32 8 100 89 151 212 134 239 117 95 -56z m-898 -101 c0 -30 -153 -206 -339 -393 l-339 -338 154 392 c102 259 217 392 339 392 102 0 185 -24 185 -53z m-6857 -1158 c-88 -142 -239 83 -241 358 -2 186 7 184 154 -25 85 -122 125 -272 87 -333z m5609 19 c-36 -115 -110 -208 -165 -208 -54 0 -81 34 -58 75 22 41 71 160 108 264 91 255 199 132 115 -131z m1007 -311 c-310 -343 -359 -368 -359 -183 0 118 143 351 319 519 453 433 486 157 40 -336z m-15099 230 c-101 -102 -185 51 -102 186 63 102 87 102 121 1 23 -70 15 -154 -19 -187z m12858 -149 c-71 -71 -118 -77 -118 -15 0 134 118 252 185 185 28 -28 -2 -105 -67 -170z m1542 -251 c-33 -33 -56 26 -52 131 5 117 28 141 60 61 29 -72 26 -159 -8 -192z m-513 -152 c-37 -179 -114 -370 -171 -425 -70 -68 -83 -21 -41 150 34 138 63 329 64 425 0 96 50 175 109 175 69 0 83 -117 39 -325z m1553 -64 c0 -156 -380 -564 -455 -489 -86 86 218 578 357 578 54 0 98 -40 98 -89z m-450 -811 c-34 -55 -82 -100 -106 -100 -24 0 -44 45 -44 100 0 55 48 100 106 100 58 0 78 -45 44 -100z m-3990 -273 c-101 -102 -185 51 -102 186 63 102 87 102 121 1 23 -70 15 -154 -19 -187z m1331 -327 c-4 -286 -21 -313 -91 -150 -47 110 -88 335 -91 500 -5 229 17 265 91 150 53 -82 94 -307 91 -500z m-13345 193 c-86 -139 -146 -113 -146 63 0 86 46 128 102 93 56 -35 75 -105 44 -156z m13654 -49 c0 -24 -45 -44 -100 -44 -55 0 -100 48 -100 106 0 58 45 78 100 44 55 -34 100 -82 100 -106z m1766 -169 c-28 -69 -50 -12 -50 125 0 138 22 194 50 125 28 -69 28 -181 0 -250z m-10866 -481 c0 -107 -45 -194 -100 -194 -55 0 -100 115 -100 256 0 145 43 229 100 194 55 -34 100 -149 100 -256z m10360 33 c-101 -102 -185 51 -102 186 63 102 87 102 121 1 23 -70 15 -154 -19 -187z m-17762 -208 c0 -148 -45 -336 -98 -419 -70 -108 -97 -16 -98 331 -1 295 37 457 98 419 55 -34 99 -183 98 -331z m14395 -294 c4 -69 -38 -125 -93 -125 -55 0 -97 146 -93 325 6 272 21 293 93 125 47 -110 89 -256 93 -325z m2373 48 c-28 -68 -49 12 -47 177 3 165 25 220 50 123 26 -97 24 -232 -3 -300z m-366 -123 c0 -247 -45 -450 -100 -450 -55 0 -100 203 -100 450 0 248 45 450 100 450 55 0 100 -202 100 -450z m1535 296 c-33 -85 -81 -133 -107 -107 -27 26 -18 96 18 154 98 160 156 129 89 -47z m-15337 -496 c135 -309 224 -2625 104 -2699 -63 -39 -102 103 -102 373 0 240 -46 482 -102 538 -126 126 -234 1874 -133 2170 70 209 75 209 109 18 20 -110 76 -290 124 -400z m2068 -175 c-28 -69 -50 -12 -50 125 0 138 22 194 50 125 28 -69 28 -181 0 -250z m1155 -106 c-53 -201 -57 -202 -124 -14 -38 107 -47 255 -19 328 80 214 208 -67 143 -314z m1694 72 c-19 -160 -76 -341 -126 -403 -51 -62 -56 -209 -12 -328 116 -313 -281 -4543 -442 -4707 -75 -77 -227 223 -298 588 -36 189 -13 486 51 664 70 194 91 537 52 867 -45 384 -13 720 109 1137 95 325 196 951 225 1391 29 440 95 881 146 981 140 271 335 145 295 -190z m-5480 6 c-60 -157 -161 -188 -267 -81 -89 88 132 346 239 280 46 -29 59 -118 28 -199z m1136 -824 c-22 -150 -41 -3 -40 327 1 330 19 453 41 273 23 -180 22 -450 -1 -600z m20929 727 c-68 -82 -198 -149 -287 -147 -137 3 -132 27 31 150 253 191 416 189 256 -3z m-7489 -379 c-81 -81 -111 -70 -111 42 0 199 134 334 184 184 21 -63 -12 -165 -73 -226z m-14911 -362 c0 -904 122 -1709 258 -1709 106 0 106 -46 -1 -252 -89 -173 -106 -385 -53 -675 85 -461 125 -1495 104 -2673 -20 -1058 -170 -689 -245 600 -77 1326 -215 2607 -415 3850 -143 886 -143 993 2 1214 222 338 350 208 350 -355z m2988 -174 c-198 -238 -308 76 -168 479 l117 336 87 -334 c59 -230 48 -379 -36 -481z m7847 218 c31 -81 13 -173 -39 -206 -53 -32 -96 -37 -96 -11 0 26 -27 119 -61 206 -33 87 -15 158 40 158 55 0 125 -66 156 -147z m9711 12 c116 -85 145 -159 78 -200 -142 -88 -396 17 -463 193 -69 180 144 184 385 7z m1554 35 c-82 -53 -240 -94 -350 -91 -200 5 -200 5 0 91 110 47 268 88 350 91 133 5 133 -5 0 -91z m-8200 -180 c0 -44 -50 -130 -112 -192 -82 -82 -68 -197 50 -435 212 -424 220 -1193 12 -1193 -83 0 -150 89 -150 200 0 118 -67 200 -162 200 -371 0 106 -1049 512 -1127 182 -35 178 -48 -50 -144 -317 -134 -549 -17 -805 402 -253 414 -346 929 -219 1202 56 119 104 322 107 451 9 341 817 971 817 636z m-10300 -376 c0 -248 -137 -326 -251 -143 -87 141 45 514 158 445 51 -32 93 -168 93 -302z m645 181 c-41 -96 -96 -321 -121 -500 -61 -430 -224 -418 -224 17 0 448 87 658 271 658 106 0 128 -52 74 -175z m18230 -100 c23 -69 -30 -152 -118 -186 -185 -71 -483 138 -396 278 80 130 464 61 514 -92z m-2040 -279 c-63 -164 -391 -285 -534 -197 -214 133 -85 302 243 318 257 14 330 -17 291 -121z m1771 -635 c-79 -147 -210 -211 -430 -211 -174 0 -733 -202 -1242 -450 -509 -247 -992 -450 -1074 -450 -81 0 -174 -42 -206 -93 -31 -51 -315 -149 -631 -217 -315 -68 -634 -170 -709 -228 -103 -79 -187 -44 -338 141 l-201 247 288 33 c158 19 355 95 439 170 137 123 3017 1152 3748 1339 373 96 503 -7 356 -281z m-10912 -136 c240 -557 385 -1965 185 -1799 -114 94 -136 -108 -133 -1241 4 -1356 -47 -1675 -236 -1484 -127 128 -170 1775 -73 2799 58 617 41 898 -77 1228 -108 302 -125 500 -59 675 52 136 120 247 152 247 32 0 141 -191 241 -425z m-9194 -353 c28 -337 106 -668 175 -737 143 -143 167 -1064 33 -1276 -61 -96 -110 46 -155 450 -36 325 -105 816 -152 1091 -47 275 -111 650 -142 833 -41 240 -22 322 67 292 73 -24 145 -293 174 -653z m14818 228 c63 -137 167 -250 233 -250 65 0 199 -90 299 -200 178 -197 175 -200 -185 -200 -442 0 -458 -2 -736 -108 -315 -120 -394 76 -139 347 257 274 276 480 35 389 -153 -57 -158 -44 -38 103 195 240 399 209 531 -81z m-2505 -477 c-167 -167 -222 -42 -147 334 l68 340 94 -282 c64 -191 59 -318 -15 -392z m1529 291 c-35 -90 -160 -163 -278 -161 -211 4 -210 7 25 203 265 221 348 207 253 -42z m-14512 -198 c28 -74 11 -198 -38 -275 -54 -87 -90 -96 -90 -24 -1 64 -29 188 -63 275 -33 87 -15 158 40 158 55 0 123 -60 151 -134z m5865 -654 c3 -77 -89 -19 -205 127 -133 170 -183 329 -138 439 60 143 94 122 205 -128 74 -165 136 -362 138 -438z m-9072 244 c26 -133 9 -302 -37 -375 -53 -83 -83 5 -84 244 -2 429 53 488 121 131z m16831 51 c-31 -51 -12 -121 44 -156 56 -35 102 -15 102 43 0 175 457 119 635 -77 198 -220 126 -317 -237 -317 -218 0 -864 166 -975 251 -98 74 134 349 294 349 107 0 169 -42 137 -93z m5896 -107 c-34 -55 -107 -100 -162 -100 -55 0 -72 45 -38 100 34 55 107 100 162 100 55 0 72 -45 38 -100z m-19769 -500 c58 -192 134 -539 170 -769 35 -231 129 -473 207 -537 164 -137 190 -553 39 -646 -56 -35 -96 -116 -88 -181 43 -344 -20 -1067 -93 -1067 -84 0 -352 1722 -476 3050 -69 740 43 810 241 150z m19219 100 l214 -300 -263 100 c-231 87 -299 60 -557 -223 -162 -178 -320 -402 -351 -498 -77 -244 -625 -474 -1039 -437 -687 63 -775 773 -118 956 200 55 458 101 574 101 115 1 290 91 390 201 100 110 275 201 390 202 116 0 278 45 360 98 83 53 158 98 168 98 10 1 115 -133 232 -298z m-3119 -325 c25 -128 -32 -175 -213 -175 -136 0 -273 -67 -304 -150 -52 -135 -464 -223 -464 -99 0 28 122 187 270 354 294 330 655 366 711 70z m-18871 -605 c-80 -80 -109 -30 -107 185 3 259 16 272 110 110 77 -132 76 -216 -3 -295z m9390 274 c0 -86 -46 -128 -102 -93 -56 35 -75 105 -44 156 86 139 146 113 146 -63z m12309 -127 c-54 -101 -175 -247 -269 -325 -161 -134 -161 -123 -3 183 93 179 214 325 269 325 67 0 68 -62 3 -183z m-4959 -17 c-34 -55 -82 -100 -106 -100 -24 0 -44 45 -44 100 0 55 48 100 106 100 58 0 78 -45 44 -100z m-1350 -206 c0 -52 -68 -94 -150 -94 -155 0 -199 118 -86 231 80 80 236 -11 236 -137z m1669 -68 c-154 -154 -169 -154 -169 -6 0 90 56 183 125 208 204 73 225 -21 44 -202z m2009 -227 c57 -1005 -569 -1466 -1070 -788 -202 273 -214 340 -101 552 l129 241 127 -302 c153 -364 337 -395 337 -58 0 134 46 272 102 307 56 35 71 112 34 171 -59 95 210 379 358 378 31 -1 69 -226 84 -501z m-14428 51 c0 -255 -213 -301 -276 -60 -29 109 -26 224 6 256 107 107 270 -11 270 -196z m410 -23 c-101 -102 -185 51 -102 186 63 102 87 102 121 1 23 -70 15 -154 -19 -187z m500 -100 c-33 -33 -56 26 -52 131 5 117 28 141 60 61 29 -72 26 -159 -8 -192z m2911 -552 c-24 -124 -44 -22 -44 225 0 248 20 349 44 225 23 -124 23 -326 0 -450z m8579 325 c-34 -55 -82 -100 -106 -100 -24 0 -44 45 -44 100 0 55 48 100 106 100 58 0 78 -45 44 -100z m-16950 -156 c0 -86 -45 -128 -100 -94 -55 34 -100 104 -100 156 0 52 45 94 100 94 55 0 100 -70 100 -156z m5277 -25 c24 -73 -21 -96 -119 -58 -87 33 -158 104 -158 158 0 131 227 49 277 -100z m14159 31 c-31 -82 -75 -150 -97 -150 -21 0 -39 68 -39 150 0 83 44 150 97 150 53 0 71 -67 39 -150z m-6104 -484 c213 -677 212 -866 -7 -866 -134 1 -176 87 -181 375 -3 206 -35 521 -72 700 -107 522 76 374 260 -209z m4068 495 c0 -22 -70 -66 -155 -99 -89 -34 -129 -18 -94 39 58 95 249 141 249 60z m2700 -111 c0 -82 69 -150 153 -150 84 0 179 68 211 150 97 252 211 167 166 -125 -98 -636 -137 -725 -325 -725 -344 0 -756 715 -538 933 121 122 333 69 333 -83z m-3800 -300 c-68 -82 -164 -150 -212 -150 -49 0 -88 68 -88 150 0 86 90 150 212 150 178 0 192 -25 88 -150z m700 61 c0 -49 -74 -118 -164 -153 -137 -52 -144 -38 -38 90 144 173 202 191 202 63z m-17000 -167 c0 -86 -46 -128 -102 -93 -56 35 -75 105 -44 156 86 139 146 113 146 -63z m5160 -317 c-33 -33 -56 26 -52 131 5 117 28 141 60 61 29 -72 26 -159 -8 -192z m11904 -251 c-155 -446 -547 -976 -721 -976 -96 0 -143 112 -143 342 0 278 78 409 414 697 228 195 448 334 489 309 41 -25 23 -193 -39 -372z m636 118 c0 -58 -45 -78 -100 -44 -55 34 -100 82 -100 106 0 24 45 44 100 44 55 0 100 -48 100 -106z m100 -379 c0 -46 -94 -169 -208 -273 -208 -188 -208 -187 -84 85 118 259 292 371 292 188z m700 -171 c0 -86 -46 -128 -102 -93 -56 35 -75 105 -44 156 86 139 146 113 146 -63z"/>
<path d="M7700 51712 c0 -102 399 -196 579 -136 251 84 108 224 -229 224 -192 0 -350 -40 -350 -88z"/>
<path d="M19750 49400 c-34 -55 -35 -143 -3 -196 83 -133 353 -13 353 157 0 160 -258 189 -350 39z"/>
<path d="M20325 49333 c-218 -87 -135 -233 133 -233 155 0 243 48 219 119 -47 140 -179 183 -352 114z"/>
<path d="M24325 49034 c-69 -28 -125 -118 -125 -200 0 -207 339 -125 381 92 34 175 -26 201 -256 108z"/>
<path d="M7718 45725 c22 -115 144 -186 358 -206 362 -35 410 43 149 242 -258 196 -547 175 -507 -36z"/>
<path d="M7100 45143 c0 -104 73 -146 217 -125 320 47 355 282 41 282 -168 0 -258 -55 -258 -157z"/>
<path d="M2069 36035 c-38 -37 -69 -151 -69 -252 0 -243 -220 -233 -377 17 -142 228 -323 265 -323 66 0 -74 134 -377 298 -675 234 -424 299 -667 300 -1125 1 -321 100 -928 219 -1350 220 -777 337 -1016 495 -1016 146 0 100 320 -130 900 -182 462 -216 743 -210 1750 4 660 23 1308 42 1440 35 235 -110 381 -245 245z"/>
<path d="M1125 35034 c-215 -87 -137 -234 125 -234 156 0 250 57 250 150 0 149 -137 180 -375 84z"/>
<path d="M900 29256 c0 -86 45 -156 100 -156 55 0 100 42 100 94 0 52 -45 122 -100 156 -55 34 -100 -8 -100 -94z"/>
<path d="M9522 25675 c-165 -344 -331 -775 -371 -959 -61 -290 -46 -330 111 -299 128 24 205 164 257 470 41 239 166 590 278 780 112 189 203 409 203 489 0 310 -192 116 -478 -481z"/>
<path d="M12455 24408 c-72 -116 121 -631 271 -724 227 -140 252 25 62 416 -203 421 -241 457 -333 308z"/>
<path d="M15887 18931 c-22 -309 -57 -659 -123 -1231 -52 -449 -44 -495 39 -250 151 445 275 1552 180 1611 -46 28 -89 -31 -96 -130z"/>
<path d="M16159 17787 c-89 -557 -36 -567 156 -31 121 336 130 444 35 444 -69 0 -154 -185 -191 -413z"/>
<path d="M16073 17140 c-40 -41 -68 -280 -62 -532 l11 -458 88 450 c95 478 82 659 -37 540z"/>
<path d="M17482 14250 c-121 -576 -462 -1837 -523 -1936 -34 -55 -17 -128 39 -163 56 -35 102 0 102 77 0 77 116 507 257 955 141 449 241 940 222 1091 l-34 276 -63 -300z"/>
<path d="M20703 4504 c-81 -51 -119 -121 -85 -155 88 -88 782 55 782 162 0 117 -509 112 -697 -7z"/>
<path d="M9927 52440 c33 -34 120 -37 192 -8 80 32 56 55 -61 60 -105 4 -164 -19 -131 -52z"/>
<path d="M12554 52407 c-107 -174 164 -231 327 -69 149 149 145 162 -54 162 -118 0 -241 -42 -273 -93z"/>
<path d="M2125 51503 c-516 -234 -549 -348 -75 -260 454 86 445 3 -25 -218 -243 -114 -386 -255 -407 -400 -37 -263 52 -286 274 -73 333 321 938 656 1135 627 346 -49 297 173 -79 352 -422 201 -310 205 -823 -28z"/>
<path d="M2756 50578 c-86 -122 -156 -279 -156 -348 0 -197 -465 -454 -691 -383 -214 68 -492 -44 -751 -303 -200 -200 -204 -444 -8 -444 83 0 150 36 150 81 0 44 63 166 139 271 116 158 166 169 293 63 127 -106 254 -81 736 144 725 338 704 317 484 477 -280 205 -96 394 309 318 257 -48 339 -28 339 80 0 131 -280 261 -569 265 -66 0 -190 -99 -275 -221z"/>
<path d="M4625 49875 c23 -69 124 -125 225 -125 101 0 202 56 225 125 26 79 -56 125 -225 125 -169 0 -251 -46 -225 -125z"/>
<path d="M19425 41534 c-196 -79 -146 -234 75 -234 111 0 200 -67 200 -150 0 -176 356 -203 460 -34 41 66 -27 196 -155 300 -229 185 -351 210 -580 118z"/>
<path d="M22267 41533 c-155 -154 -42 -233 333 -233 220 0 400 40 400 89 0 173 -589 289 -733 144z"/>
<path d="M20682 41147 c-464 -242 -689 -447 -490 -447 221 0 1206 455 1177 544 -57 171 -214 149 -687 -97z"/>
<path d="M23219 41044 c-237 -137 -481 -218 -541 -180 -152 94 -806 58 -1119 -60 -485 -185 -285 -301 416 -240 371 31 833 67 1025 80 559 35 600 48 600 194 0 76 101 208 225 295 213 148 215 157 25 158 -110 0 -394 -111 -631 -247z"/>
<path d="M23950 41000 c-119 -192 43 -264 462 -207 597 81 635 307 52 307 -249 0 -480 -45 -514 -100z"/>
<path d="M18675 40884 c-151 -55 -275 -164 -275 -242 0 -78 25 -142 55 -142 139 0 645 316 645 403 0 116 -63 113 -425 -19z"/>
<path d="M24845 40591 c-37 -60 -17 -159 44 -220 81 -81 111 -53 111 109 0 241 -52 279 -155 111z"/>
<path d="M20548 40397 c-39 -63 -31 -154 18 -203 107 -107 684 31 684 163 0 138 -620 173 -702 40z"/>
<path d="M16000 38119 c0 -226 501 -719 730 -719 230 0 226 9 -226 484 -444 466 -504 494 -504 235z"/>
<path d="M15100 38040 c0 -161 361 -639 567 -749 382 -204 373 -36 -21 400 -335 371 -546 506 -546 349z"/>
<path d="M19300 37720 c0 -432 140 -620 463 -620 191 0 220 49 205 350 -19 376 -197 424 -250 67 -18 -119 -74 -217 -125 -217 -91 0 -134 274 -98 625 10 96 -30 175 -89 175 -58 0 -106 -171 -106 -380z"/>
<path d="M9917 37870 c-59 -71 -104 -217 -99 -325 5 -107 -24 -273 -65 -368 -63 -149 -19 -170 308 -150 327 20 399 -16 516 -254 143 -292 323 -283 323 15 0 213 -375 578 -642 627 -266 49 -325 285 -70 285 113 0 365 -76 560 -169 250 -119 385 -138 460 -63 75 75 6 169 -237 319 -387 239 -892 279 -1054 83z"/>
<path d="M12236 37650 c-63 -164 110 -330 944 -912 342 -238 564 -334 626 -272 63 63 -71 218 -379 439 -262 188 -582 466 -711 618 -263 312 -396 347 -480 127z"/>
<path d="M14300 37720 c0 -125 745 -820 879 -820 200 0 141 112 -271 516 -371 363 -608 482 -608 304z"/>
<path d="M13400 37475 c1 -152 1066 -743 1164 -645 38 39 51 84 28 101 -23 17 -228 174 -456 350 -429 330 -736 411 -736 194z"/>
<path d="M18260 37517 c-76 -123 899 -1047 1051 -997 85 29 -41 227 -354 562 -485 518 -600 591 -697 435z"/>
<path d="M17525 37434 c-192 -78 -151 -224 150 -543 242 -257 525 -386 525 -239 0 64 -493 851 -526 840 -13 -4 -80 -30 -149 -58z"/>
<path d="M7345 36255 c-278 -279 -315 -455 -95 -455 83 0 150 35 150 78 0 44 135 159 300 256 165 98 300 220 300 272 0 185 -413 90 -655 -151z"/>
<path d="M20500 36435 c0 -145 724 -935 857 -935 209 0 183 65 -228 556 -326 390 -629 572 -629 379z"/>
<path d="M21800 35965 c0 -345 199 -665 413 -665 200 0 205 14 63 175 -86 96 -171 261 -191 367 -42 232 -285 337 -285 123z"/>
<path d="M22559 35915 c-83 -135 171 -642 455 -907 117 -108 263 -297 324 -420 129 -256 362 -367 362 -172 0 248 -350 983 -468 984 -65 0 -227 140 -362 312 -149 191 -270 269 -311 203z"/>
<path d="M7767 35133 c-37 -36 -67 -139 -67 -229 0 -135 120 -162 717 -158 406 2 731 49 751 109 19 57 -227 158 -547 225 -673 139 -763 144 -854 53z"/>
<path d="M23900 34825 c1 -262 388 -846 528 -795 67 24 223 -48 347 -160 l225 -205 0 248 c0 293 -169 487 -425 487 -101 0 -261 135 -355 299 -191 337 -320 387 -320 126z"/>
<path d="M7353 34305 c-80 -130 274 -306 671 -333 396 -27 523 138 176 230 -673 177 -792 192 -847 103z"/>
<path d="M6824 33777 c78 -233 1103 -375 1230 -170 93 150 71 158 -637 228 -475 48 -623 33 -593 -58z"/>
<path d="M5154 33707 c-74 -120 114 -238 248 -156 111 69 38 249 -102 249 -49 0 -114 -42 -146 -93z"/>
<path d="M6200 33286 c0 -150 943 -463 1225 -407 319 65 187 298 -200 355 -206 30 -521 85 -700 122 -241 49 -325 31 -325 -70z"/>
<path d="M4746 33193 c-36 -58 -45 -127 -20 -152 69 -70 374 68 374 170 0 125 -274 111 -354 -18z"/>
<path d="M4400 32700 c0 -55 110 -100 244 -100 134 0 272 45 306 100 36 58 -66 100 -244 100 -168 0 -306 -45 -306 -100z"/>
<path d="M5854 32721 c-137 -137 -18 -214 421 -271 261 -35 599 -86 750 -114 335 -63 373 132 50 252 -293 109 -1152 202 -1221 133z"/>
<path d="M5600 32111 c0 -136 269 -211 750 -211 501 0 773 82 694 210 -73 117 -1444 117 -1444 1z"/>
<path d="M18000 32119 c0 -45 90 -268 200 -495 110 -228 200 -481 200 -563 0 -82 45 -177 100 -211 146 -90 123 168 -71 796 -93 305 -228 554 -300 554 -71 0 -129 -37 -129 -81z"/>
<path d="M19000 32093 c0 -58 54 -204 120 -325 65 -120 144 -394 175 -610 30 -215 108 -409 172 -431 86 -28 93 50 26 292 -50 182 -138 522 -196 756 -93 378 -297 597 -297 318z"/>
<path d="M17298 31704 c111 -218 202 -530 202 -694 0 -164 46 -327 102 -361 68 -42 80 84 37 369 -83 550 -298 1082 -436 1082 -60 0 -19 -173 95 -396z"/>
<path d="M19900 31856 c0 -79 45 -172 100 -206 55 -34 100 -158 100 -276 0 -158 29 -185 112 -102 83 83 76 193 -24 420 -144 325 -288 407 -288 164z"/>
<path d="M20873 31927 c-22 -43 17 -257 86 -477 l126 -400 7 419 c7 382 -119 646 -219 458z"/>
<path d="M21602 31381 c0 -127 45 -298 98 -381 74 -114 97 -74 98 169 1 176 -43 347 -98 381 -56 34 -99 -40 -98 -169z"/>
<path d="M5125 31303 c-481 -219 -580 -444 -150 -341 151 36 355 107 453 157 98 50 439 82 759 70 582 -21 813 41 813 217 0 180 -1423 102 -1875 -103z"/>
<path d="M13004 31088 c-2 -88 80 -268 182 -400 102 -131 261 -384 352 -563 235 -457 378 -406 191 69 -188 479 -719 1134 -725 894z"/>
<path d="M5048 30561 c-109 -80 -173 -169 -143 -200 83 -82 588 74 611 189 32 161 -253 168 -468 11z"/>
<path d="M12200 30606 c0 -52 81 -153 179 -225 99 -72 287 -285 419 -473 132 -189 257 -292 278 -229 55 164 -558 1021 -731 1021 -80 0 -145 -42 -145 -94z"/>
<path d="M19100 30125 c0 -118 63 -456 139 -750 96 -366 117 -747 69 -1211 -65 -627 14 -996 126 -590 153 551 160 1168 22 1831 -154 735 -356 1144 -356 720z"/>
<path d="M21085 30152 c-27 -27 -16 -330 25 -673 54 -454 35 -717 -68 -964 -168 -401 -169 -415 -50 -415 105 0 288 526 313 900 59 869 -32 1340 -220 1152z"/>
<path d="M11905 29726 c190 -206 356 -393 370 -417 14 -23 52 -15 85 18 96 95 -467 773 -641 773 -111 0 -55 -112 186 -374z"/>
<path d="M21939 29375 c2 -344 -29 -749 -69 -900 -42 -157 -33 -275 20 -275 161 0 324 666 273 1119 -26 237 -51 487 -55 556 -5 69 -45 125 -90 125 -46 0 -81 -281 -79 -625z"/>
<path d="M23784 29744 c-58 -302 31 -1044 126 -1044 87 0 135 437 93 850 -28 277 -177 409 -219 194z"/>
<path d="M24500 29533 c0 -543 103 -1033 217 -1033 113 0 -3 1209 -129 1345 -52 56 -88 -73 -88 -312z"/>
<path d="M20001 29675 c0 -69 47 -293 104 -498 73 -264 71 -495 -7 -786 -79 -293 -81 -545 -6 -876 58 -256 131 -679 163 -940 31 -261 106 -475 166 -475 75 0 83 208 29 675 -44 371 -93 1098 -108 1616 -16 517 -55 1046 -87 1175 -61 244 -255 327 -254 109z"/>
<path d="M11100 29522 c0 -102 599 -457 663 -393 49 49 -492 471 -603 471 -33 0 -60 -35 -60 -78z"/>
<path d="M22684 29141 c-37 -466 45 -669 156 -382 92 242 71 841 -30 841 -49 0 -106 -206 -126 -459z"/>
<path d="M11212 28625 c594 -621 1388 -1705 1388 -1895 0 -115 365 -792 764 -1415 13 -19 71 -5 129 31 121 74 -78 513 -458 1013 -129 171 -235 379 -235 464 0 363 -1625 2277 -1933 2277 -60 0 95 -214 345 -475z"/>
<path d="M12461 29018 c-79 -128 293 -818 441 -818 193 0 174 178 -42 411 -126 136 -251 311 -276 388 -36 107 -66 112 -123 19z"/>
<path d="M12923 28975 c22 -69 137 -169 257 -223 119 -54 259 -221 311 -370 53 -150 273 -535 491 -855 412 -607 718 -1363 718 -1775 0 -238 160 -425 270 -315 65 65 -114 810 -339 1413 -239 640 -1423 2239 -1664 2247 -46 2 -66 -53 -44 -122z"/>
<path d="M10400 28511 c0 -49 71 -117 158 -150 245 -94 277 -74 142 89 -138 166 -300 199 -300 61z"/>
<path d="M22891 28381 c-29 -436 38 -1145 116 -1226 57 -58 93 160 93 569 0 365 -45 692 -100 726 -55 34 -104 3 -109 -69z"/>
<path d="M23751 28301 c-103 -167 -83 -909 27 -1019 70 -70 113 80 137 468 34 548 -31 766 -164 551z"/>
<path d="M22044 27990 c-86 -139 39 -1272 168 -1512 62 -116 62 -368 1 -704 -90 -498 -78 -672 40 -554 125 125 239 1219 139 1339 -56 69 -106 443 -109 833 -7 665 -82 853 -239 598z"/>
<path d="M24655 27875 c-105 -478 -101 -606 20 -648 82 -29 125 60 125 256 0 166 27 372 61 459 33 87 11 158 -48 158 -60 0 -131 -101 -158 -225z"/>
<path d="M12900 27698 c0 -55 157 -337 348 -626 344 -518 610 -1239 671 -1822 38 -363 226 -401 244 -50 23 426 -344 1444 -734 2035 -352 535 -529 690 -529 463z"/>
<path d="M21256 27173 c-43 -97 -152 -164 -242 -150 -107 18 -147 -26 -116 -123 27 -82 45 -364 40 -625 -4 -261 30 -475 77 -475 47 0 85 85 85 188 0 103 70 355 156 560 162 388 162 988 0 625z"/>
<path d="M23764 27000 c-33 -82 -56 -307 -52 -500 4 -192 -14 -610 -39 -929 -59 -741 126 -718 303 37 96 415 100 636 13 942 -62 220 -125 445 -139 500 -15 55 -53 33 -86 -50z"/>
<path d="M23136 26650 c-65 -171 19 -450 136 -450 43 0 78 135 78 300 0 318 -118 401 -214 150z"/>
<path d="M21692 26581 c-18 -76 -76 -360 -142 -706 -49 -252 -36 -375 39 -375 61 0 111 110 111 243 0 134 43 358 96 497 62 162 62 274 0 312 -53 33 -99 46 -104 29z"/>
<path d="M22977 25625 c-47 -516 -14 -660 130 -571 119 74 122 916 3 990 -49 30 -109 -158 -133 -419z"/>
<path d="M24403 25125 c-142 -712 -142 -711 -35 -750 80 -29 327 870 330 1200 4 461 -166 202 -295 -450z"/>
<path d="M4401 24650 c-69 -165 -411 -880 -760 -1589 -350 -708 -609 -1331 -577 -1384 32 -52 225 235 428 639 203 404 419 824 479 934 266 483 640 1468 599 1578 -24 67 -100 -13 -169 -178z"/>
<path d="M15300 24862 c0 -21 71 -206 157 -413 106 -254 189 -343 258 -274 115 115 -152 725 -318 725 -53 0 -97 -17 -97 -38z"/>
<path d="M24877 24104 c-69 -246 -28 -388 81 -279 32 32 42 163 23 291 l-35 234 -69 -246z"/>
<path d="M16444 23638 c39 -158 133 -357 209 -441 76 -84 168 -342 205 -575 91 -569 282 -550 218 22 -56 494 -368 1170 -572 1238 -100 33 -114 -27 -60 -244z"/>
<path d="M22000 22950 c0 -137 -84 -334 -186 -436 -103 -103 -214 -362 -247 -575 -54 -349 -50 -361 45 -114 114 298 335 387 249 100 -28 -96 -106 -400 -171 -675 -66 -275 -181 -624 -257 -775 -76 -151 -97 -275 -48 -275 95 0 207 249 449 1000 157 485 329 2000 228 2000 -34 0 -62 -112 -62 -250z"/>
<path d="M22645 22792 c-36 -59 -104 -385 -150 -725 -47 -339 -115 -718 -151 -842 -38 -126 -24 -225 31 -225 92 0 257 688 364 1525 50 384 24 457 -94 267z"/>
<path d="M23292 21881 c-48 -180 -69 -594 -24 -481 32 83 100 202 150 266 57 72 52 141 -13 181 -58 36 -109 51 -113 34z"/>
<path d="M23808 21315 c-59 -111 -108 -323 -108 -472 0 -628 -484 -1703 -925 -2053 -111 -89 -183 -216 -161 -283 78 -233 539 262 863 926 401 823 713 2596 331 1882z"/>
<path d="M22858 20628 c-197 -314 -358 -602 -358 -640 0 -37 -174 -353 -386 -703 -433 -715 -579 -1085 -425 -1085 56 0 196 213 311 474 115 260 292 564 393 675 100 110 235 367 300 570 65 203 200 473 299 600 183 235 362 681 272 681 -27 0 -210 -257 -406 -572z"/>
<path d="M24574 20725 c-21 -41 -7 -210 32 -375 69 -295 71 -294 82 75 11 356 -30 465 -114 300z"/>
<path d="M24059 19996 c-104 -245 -290 -676 -413 -958 -221 -508 -230 -1083 -15 -1011 58 19 153 177 212 351 59 174 186 408 282 520 227 265 221 330 -25 252 -246 -78 -246 -75 4 509 112 262 191 545 174 629 -16 84 -114 -47 -219 -292z"/>
<path d="M12006 19925 c-353 -180 -527 -431 -289 -418 196 11 713 332 759 472 56 166 -65 152 -470 -54z"/>
<path d="M2461 18942 c-195 -508 43 -2059 345 -2246 172 -106 168 -819 -8 -1353 -124 -375 -55 -591 108 -340 53 81 168 390 256 687 202 679 130 1268 -224 1829 -213 337 -264 536 -258 1001 8 558 -93 752 -219 422z"/>
<path d="M3415 18925 c-114 -217 26 -1289 231 -1782 227 -542 369 -329 188 281 -94 315 -138 748 -113 1098 31 424 8 578 -86 578 -70 0 -169 -79 -220 -175z"/>
<path d="M24729 17293 c-115 -189 -284 -522 -374 -742 -91 -219 -248 -489 -349 -600 -102 -110 -601 -1011 -1109 -2001 -508 -990 -1084 -2047 -1281 -2350 -197 -302 -490 -797 -652 -1100 -161 -302 -415 -730 -565 -950 -149 -220 -372 -598 -496 -841 -123 -243 -442 -723 -709 -1067 -268 -345 -514 -737 -548 -872 -55 -219 -35 -240 189 -197 257 49 1211 -217 1445 -402 71 -57 107 -162 79 -234 -71 -184 145 -292 251 -125 48 76 88 321 88 545 2 498 477 1420 926 1798 250 210 384 254 652 210 263 -43 482 23 985 295 856 462 993 586 1396 1270 327 553 489 1372 241 1219 -56 -35 -76 -103 -46 -153 70 -112 -223 -696 -349 -696 -50 0 -122 49 -159 110 -37 60 -197 90 -356 67 -269 -40 -288 -20 -288 297 0 418 238 702 445 530 86 -72 277 -90 497 -49 313 59 358 104 358 356 0 284 -242 619 -512 710 -117 39 -116 73 2 216 77 94 137 301 132 462 -6 205 49 310 185 353 106 34 193 123 193 198 0 103 -71 116 -295 51 -385 -110 -578 85 -387 391 159 254 436 270 574 33 77 -131 103 -6 105 504 3 647 -6 673 -197 571 -110 -59 -200 -195 -200 -304 0 -260 -189 -243 -519 47 l-269 237 185 365 c330 646 617 874 530 421 -43 -228 184 -566 380 -566 51 0 93 248 93 550 0 483 -24 550 -200 550 -252 0 -251 108 6 611 262 514 201 737 -77 282z m-954 -3156 c169 -45 225 -134 225 -355 0 -162 -43 -376 -97 -476 -84 -158 -148 -167 -525 -72 -235 59 -442 116 -460 127 -18 11 62 204 177 429 213 418 283 453 680 347z m-1036 -1580 c34 -134 151 -272 261 -307 160 -51 180 -101 100 -250 -55 -103 -100 -344 -100 -536 0 -503 -275 -522 -625 -42 -151 207 -275 410 -275 452 -1 125 444 926 514 926 35 0 92 -110 125 -243z m-1147 -1797 c79 -96 241 -123 512 -87 314 42 396 21 396 -102 0 -85 27 -226 61 -313 46 -122 -6 -158 -230 -158 -160 0 -342 -51 -405 -114 -84 -84 -155 -72 -277 50 -90 90 -246 164 -347 164 -163 0 -172 38 -76 350 117 382 189 423 366 210z m1814 -18 c109 -130 107 -173 -12 -250 -242 -156 -541 -61 -576 183 -26 181 16 225 213 225 134 0 303 -71 375 -158z m327 -756 c312 -62 567 -148 567 -191 0 -130 -604 -594 -976 -749 -564 -236 -800 135 -499 783 143 309 149 310 908 157z m-2933 -603 c0 -65 -64 -188 -142 -275 -200 -222 -311 -708 -162 -708 130 0 1016 580 1118 732 38 55 161 27 297 -69 129 -90 333 -163 455 -163 223 0 403 -164 297 -270 -31 -31 -191 -1 -355 67 -272 113 -335 96 -739 -194 -286 -206 -522 -490 -672 -810 -127 -271 -266 -493 -309 -493 -42 0 -200 106 -350 235 l-273 235 268 67 c177 44 267 134 267 265 0 244 -267 260 -588 35 -225 -158 -229 -156 -122 44 61 115 151 232 199 262 49 31 118 173 154 316 119 473 657 1066 657 724z m-1103 -1858 c-5 -451 -376 -801 -550 -520 -68 109 345 793 478 794 41 1 74 -123 72 -274z m784 -751 c39 -204 -145 -224 -549 -60 l-282 114 250 77 c358 110 543 69 581 -131z"/>
<path d="M7767 16333 c-104 -103 -79 -433 33 -433 55 0 100 41 100 92 0 50 27 163 61 250 60 158 -68 218 -194 91z"/>
<path d="M7804 15354 c-67 -80 -88 -199 -47 -265 53 -86 111 -68 208 65 237 324 92 505 -161 200z"/>
<path d="M7923 14481 c62 -185 277 -216 277 -39 0 87 -71 158 -158 158 -87 0 -141 -53 -119 -119z"/>
<path d="M8267 13533 c-127 -126 -66 -233 133 -233 111 0 200 67 200 150 0 152 -212 205 -333 83z"/>
<path d="M22258 13436 c-95 -249 10 -282 137 -45 62 115 70 209 19 209 -51 0 -121 -74 -156 -164z"/>
<path d="M21900 13350 c0 -82 18 -150 39 -150 22 0 66 68 97 150 32 82 14 150 -39 150 -53 0 -97 -68 -97 -150z"/>
<path d="M8768 12025 c-68 -114 112 -525 229 -525 115 0 134 202 42 442 -64 167 -198 208 -271 83z"/>
<path d="M9060 11116 c-35 -56 -15 -132 45 -169 154 -95 253 35 125 163 -72 72 -128 74 -170 6z"/>
<path d="M9809 9617 c-125 -234 -144 -517 -34 -516 41 0 131 122 200 270 151 325 -2 553 -166 246z"/>
<path d="M21324 7175 c-167 -209 -238 -554 -128 -622 57 -36 104 14 104 110 0 96 98 278 217 406 172 182 185 231 63 231 -86 0 -201 -56 -256 -125z"/>
<path d="M10800 3819 c0 -147 282 -470 351 -401 109 109 -52 482 -208 482 -79 0 -143 -36 -143 -81z"/>
<path d="M22649 2099 c-99 -110 -156 -226 -125 -257 65 -65 476 263 476 380 0 140 -165 82 -351 -123z"/>
<path d="M11400 1812 c0 -408 114 -577 309 -457 78 49 78 98 0 176 -60 60 -109 210 -109 333 0 123 -45 252 -100 286 -60 37 -100 -97 -100 -338z"/>
<path d="M12472 1627 c-101 -184 -294 -1338 -235 -1398 129 -128 272 146 304 580 18 243 64 515 102 606 70 163 -90 360 -171 212z"/>
<path d="M6817 1125 c-121 -235 -212 -1125 -115 -1125 109 0 181 223 257 799 69 515 17 634 -142 326z"/>
<path d="M11400 100 c0 -55 101 -99 225 -98 182 1 196 20 75 98 -194 125 -300 125 -300 0z"/>
<path d="M12851 102 c-35 -56 7 -102 93 -102 176 0 202 60 63 146 -51 31 -121 12 -156 -44z"/>
</g>
</svg>