<svg xmlns="http://www.w3.org/2000/svg" version="1.0" width="250" height="525" viewBox="0 0 250.000000 525.000000" preserveAspectRatio="xMidYMid meet">
<metadata>
Created by potrace 1.10, written by Peter Selinger 2001-2011
</metadata>
<g transform="translate(0.000000,525.000000) scale(0.010000,-0.010000)" fill="#555555" stroke="none">
<path d="M569 51652 c207 -517 396 -1229 482 -1825 l142 -977 -40 950 c-29 670 -113 1157 -286 1650 -353 1004 -375 1050 -514 1050 -83 0 -11 -284 216 -848z"/>
<path d="M1371 52107 c87 -224 195 -407 239 -407 116 0 -156 732 -288 776 -69 23 -51 -115 49 -369z"/>
<path d="M3605 52175 c49 -179 133 -634 186 -1011 91 -642 160 -854 245 -756 43 49 -99 1394 -190 1808 -34 156 -122 284 -196 284 -103 0 -113 -76 -45 -325z"/>
<path d="M3939 52291 c39 -133 117 -556 174 -941 129 -867 204 -970 182 -248 -21 663 -160 1264 -313 1359 -79 49 -92 -3 -43 -170z"/>
<path d="M4439 52325 c28 -96 81 -299 117 -450 79 -333 214 -357 273 -50 24 124 50 -279 57 -894 8 -623 58 -1147 114 -1181 142 -88 129 1647 -17 2225 -94 373 -132 426 -193 270 -70 -180 -76 -178 -83 30 -4 135 -70 225 -164 225 -102 0 -138 -61 -104 -175z"/>
<path d="M5100 52350 c0 -83 41 -150 92 -150 50 0 163 -27 250 -61 113 -43 158 -1 158 150 0 158 -62 211 -250 211 -156 0 -250 -57 -250 -150z"/>
<path d="M8900 52300 c0 -110 21 -200 46 -200 26 0 95 90 154 200 85 160 76 200 -46 200 -87 0 -154 -87 -154 -200z"/>
<path d="M9543 52225 c-213 -969 -587 -2106 -751 -2281 -110 -119 -192 -350 -192 -543 0 -184 -72 -415 -159 -511 -213 -235 -544 -3065 -371 -3171 63 -39 145 -194 183 -345 72 -285 125 -315 389 -213 101 38 162 192 169 425 6 225 86 -36 209 -686 203 -1078 622 -2556 850 -3000 l129 -250 4 250 4 250 143 -250 c170 -298 213 -651 48 -400 -77 118 -116 123 -180 23 -61 -93 -112 -67 -197 100 -272 540 -594 1364 -712 1827 -201 783 -206 793 -315 684 -65 -65 -47 -223 54 -463 83 -201 152 -521 152 -713 0 -214 158 -649 409 -1128 438 -834 627 -1089 929 -1251 178 -94 187 -73 125 310 -85 532 48 525 285 -14 201 -457 986 -1428 1231 -1522 279 -107 247 38 -66 302 -172 144 -313 325 -313 402 0 76 -108 209 -240 295 -132 87 -332 373 -446 637 -113 264 -276 538 -360 608 -85 70 -154 194 -154 275 0 81 -91 275 -202 431 -313 439 -426 1291 -426 3197 0 1379 34 1843 164 2188 199 531 199 512 10 512 -242 0 -537 -832 -688 -1938 -143 -1055 -206 -902 -181 438 6 358 -12 568 -41 468 -30 -101 -113 -160 -186 -132 -163 63 -261 -156 -151 -335 61 -98 93 -83 129 59 41 159 51 153 60 -38 7 -126 -56 -254 -138 -286 -111 -42 -140 -174 -113 -499 20 -243 -3 -466 -50 -495 -81 -50 -137 423 -90 753 12 79 -62 206 -163 281 -174 128 -175 141 -9 235 98 55 176 218 177 369 1 336 144 589 241 431 38 -61 111 -111 163 -111 131 0 118 436 -17 571 -132 132 -36 329 160 329 75 0 157 79 182 175 25 96 51 9 57 -194 7 -203 -33 -397 -88 -431 -55 -34 -99 -160 -98 -281 2 -328 163 -31 306 566 90 375 90 505 -1 561 -132 81 -49 566 115 667 61 38 74 -20 32 -150 -40 -127 -24 -213 39 -213 59 0 108 34 108 75 1 41 31 183 66 316 43 161 28 218 -44 173 -60 -37 -137 -22 -172 34 -116 189 -235 104 -312 -223 -43 -179 -86 -359 -96 -400 -10 -41 -24 -161 -30 -266 -9 -132 -68 -176 -194 -143 -210 55 -383 -257 -481 -869 -35 -218 -92 -397 -127 -397 -114 0 7 947 142 1100 72 83 163 277 202 433 39 156 128 305 198 332 70 27 157 214 194 417 100 547 466 1754 566 1863 51 56 87 -43 87 -239 0 -200 70 -388 175 -468 164 -126 161 -139 -44 -196 -120 -34 -262 -188 -316 -342 -88 -252 -73 -285 146 -327 307 -58 326 -23 404 718 46 439 30 609 -55 609 -83 0 -98 113 -49 375 64 340 55 362 -93 239 -148 -122 -161 -95 -129 275 39 462 -102 560 -196 136z m86 -5425 c-29 -110 -70 -200 -91 -200 -21 0 -38 90 -38 200 0 110 41 200 91 200 49 0 67 -90 38 -200z m-1329 -600 c0 -55 -45 -100 -100 -100 -55 0 -100 45 -100 100 0 55 45 100 100 100 55 0 100 -45 100 -100z m1258 -1477 c19 -1140 7 -1242 -114 -973 -74 165 -137 485 -139 710 -7 581 114 1655 178 1590 30 -29 63 -626 75 -1327z"/>
<path d="M10173 52440 c-40 -41 -73 -142 -73 -227 0 -112 30 -123 111 -42 61 61 94 163 73 227 -21 63 -71 82 -111 42z"/>
<path d="M13513 52275 c-1083 -2962 -1299 -4210 -1200 -6925 51 -1403 603 -3240 1256 -4175 182 -262 331 -513 331 -558 0 -136 1133 -1217 1275 -1217 73 0 243 -73 379 -162 135 -88 246 -119 246 -68 0 51 -169 189 -375 305 -917 519 -2211 2327 -2380 3327 -46 275 -6 225 191 -236 221 -518 366 -781 363 -658 -1 23 -135 470 -299 992 -164 523 -298 1051 -299 1175 0 124 -50 225 -110 225 -72 0 -85 -142 -38 -425 38 -234 36 -393 -5 -353 -294 282 -476 3990 -245 5013 231 1025 544 2133 859 3040 177 509 279 925 227 925 -52 0 -131 -101 -176 -225z"/>
<path d="M15196 52130 c-354 -403 -635 -980 -746 -1530 -97 -477 70 -280 296 350 99 275 332 699 517 941 304 399 407 609 297 609 -21 0 -185 -166 -364 -370z"/>
<path d="M16002 52102 c-349 -440 -1107 -2260 -1093 -2622 6 -139 81 -13 191 320 383 1159 603 1635 998 2159 467 619 382 747 -96 143z"/>
<path d="M17512 52237 c-171 -376 -58 -416 133 -46 88 170 121 309 74 309 -48 0 -141 -118 -207 -263z"/>
<path d="M18316 52245 c-170 -373 -138 -429 84 -145 211 270 249 400 116 400 -46 0 -136 -115 -200 -255z"/>
<path d="M19025 52250 c0 -137 39 -250 88 -250 48 0 87 113 87 250 0 138 -39 250 -87 250 -49 0 -88 -112 -88 -250z"/>
<path d="M19475 52367 c-118 -289 -96 -628 33 -499 59 59 93 237 75 395 -27 236 -46 254 -108 104z"/>
<path d="M19960 52176 c-100 -502 44 -1470 309 -2076 290 -662 799 -1208 1501 -1611 354 -203 593 -432 750 -718 150 -275 369 -490 630 -620 486 -241 1850 -371 1850 -176 0 69 -79 129 -175 133 -975 45 -1227 84 -1556 239 -248 118 -449 317 -580 574 -131 257 -363 487 -668 661 -257 148 -693 493 -969 768 -634 631 -877 1276 -891 2362 -12 826 -91 1011 -201 464z"/>
<path d="M21176 52250 c26 -137 114 -250 196 -250 95 0 127 58 89 158 -34 87 -61 200 -61 250 0 51 -61 92 -136 92 -91 0 -121 -82 -88 -250z"/>
<path d="M21600 52456 c0 -24 45 -72 100 -106 55 -34 100 -14 100 44 0 58 -45 106 -100 106 -55 0 -100 -20 -100 -44z"/>
<path d="M22383 51792 c223 -431 631 -978 1042 -1398 371 -379 675 -716 675 -749 0 -32 -87 -31 -194 3 -191 61 -606 -125 -606 -272 0 -42 84 -76 188 -76 103 0 249 -75 325 -166 147 -178 852 -528 1070 -532 247 -4 70 193 -378 421 -463 236 -671 502 -322 410 346 -90 323 134 -49 480 -813 756 -1272 1332 -1603 2010 -154 317 -334 577 -398 577 -67 0 42 -309 250 -708z"/>
<path d="M23050 52400 c34 -55 115 -101 181 -101 65 -1 203 -177 306 -391 192 -401 918 -1186 1011 -1093 29 28 -128 247 -348 485 -225 244 -400 534 -400 664 0 157 -45 213 -141 176 -85 -33 -167 28 -207 153 -37 118 -151 207 -265 207 -109 0 -171 -45 -137 -100z"/>
<path d="M24511 52275 c66 -124 202 -332 304 -463 146 -188 185 -203 185 -71 0 273 -292 759 -456 759 -125 0 -131 -39 -33 -225z"/>
<path d="M14192 52125 c-56 -151 -185 -437 -287 -634 -393 -762 -758 -2984 -516 -3134 105 -65 172 468 125 982 -22 251 467 2082 590 2205 53 53 96 171 96 264 0 92 68 224 150 292 173 143 197 300 48 300 -57 0 -149 -124 -206 -275z"/>
<path d="M16481 51421 c-313 -534 -644 -1173 -736 -1421 -590 -1582 -689 -1921 -748 -2550 -175 -1859 540 -4724 1355 -5433 374 -325 401 -262 68 158 -267 337 -681 1200 -865 1800 -51 167 -28 225 88 225 86 0 157 71 157 157 0 108 -59 138 -188 97 -219 -70 -243 26 -412 1610 -126 1185 -25 2033 354 2964 135 334 246 647 246 697 0 162 679 1449 1044 1980 196 285 356 557 356 606 0 243 -201 -6 -719 -890z"/>
<path d="M2800 52200 c0 -55 45 -100 100 -100 55 0 100 45 100 100 0 55 -45 100 -100 100 -55 0 -100 -45 -100 -100z"/>
<path d="M14600 52144 c0 -86 45 -128 100 -94 55 34 100 104 100 156 0 52 -45 94 -100 94 -55 0 -100 -70 -100 -156z"/>
<path d="M18573 52140 c-40 -41 -73 -142 -73 -227 0 -112 30 -123 111 -42 61 61 94 163 73 227 -21 63 -71 82 -111 42z"/>
<path d="M8857 51833 c-35 -92 -91 -429 -125 -750 -75 -717 126 -818 216 -108 33 261 75 577 93 702 39 275 -95 388 -184 156z"/>
<path d="M12300 51956 c0 -24 45 -72 100 -106 55 -34 100 -14 100 44 0 58 -45 106 -100 106 -55 0 -100 -20 -100 -44z"/>
<path d="M5400 50915 c0 -542 -29 -1262 -64 -1600 -41 -391 -28 -615 37 -615 108 0 253 1126 251 1950 -3 1016 -26 1250 -124 1250 -60 0 -100 -395 -100 -985z"/>
<path d="M22007 51576 c51 -179 93 -342 93 -363 0 -48 1213 -1213 1263 -1213 138 0 -28 244 -418 615 -250 239 -567 625 -704 859 -299 510 -359 536 -234 102z"/>
<path d="M14400 51644 c0 -86 45 -128 100 -94 55 34 100 104 100 156 0 52 -45 94 -100 94 -55 0 -100 -70 -100 -156z"/>
<path d="M17071 51568 c-515 -786 -1368 -3644 -1370 -4590 -1 -378 -31 -460 -151 -414 -95 36 -150 -2 -150 -103 0 -89 65 -161 144 -161 96 0 164 -157 205 -475 106 -830 351 -1731 607 -2236 136 -269 202 -489 146 -489 -56 0 -102 -73 -102 -162 0 -129 29 -138 141 -45 174 144 287 -4 192 -251 -53 -139 -30 -162 107 -110 120 47 249 -22 419 -225 135 -160 447 -389 693 -508 247 -119 448 -250 448 -291 0 -104 843 -625 1500 -928 303 -139 921 -333 1375 -431 453 -98 875 -239 937 -313 62 -75 184 -136 272 -136 133 0 125 35 -43 204 -125 125 -551 285 -1098 413 -1195 280 -2705 1062 -2973 1540 -44 79 -171 143 -282 143 -606 0 -1779 1741 -1991 2957 -57 326 -151 804 -208 1063 -133 596 -47 1333 324 2780 339 1323 616 2110 906 2580 233 378 189 550 -48 188z"/>
<path d="M18894 51433 c-202 -613 20 -2212 408 -2936 224 -419 194 -119 -62 611 -228 649 -255 864 -222 1717 22 536 30 975 18 975 -11 0 -75 -165 -142 -367z"/>
<path d="M21360 51716 c-76 -123 227 -516 398 -516 128 0 127 40 -8 300 -155 299 -292 375 -390 216z"/>
<path d="M2900 51556 c0 -79 45 -172 100 -206 55 -34 100 31 100 144 0 113 -45 206 -100 206 -55 0 -100 -65 -100 -144z"/>
<path d="M17822 51392 c-259 -319 -922 -1725 -922 -1953 0 -226 169 -77 242 213 86 343 574 1374 709 1498 223 204 356 434 279 478 -44 25 -183 -81 -308 -236z"/>
<path d="M19358 51025 c97 -940 319 -1578 727 -2091 371 -468 1468 -1314 1571 -1212 27 28 -262 303 -644 612 -382 308 -790 694 -906 858 -262 368 -481 1075 -567 1833 -36 316 -104 575 -153 575 -48 0 -61 -259 -28 -575z"/>
<path d="M18265 51353 c-31 -81 -18 -170 28 -199 46 -28 108 38 136 147 60 229 -79 273 -164 52z"/>
<path d="M0 51200 c0 -110 41 -200 91 -200 49 0 67 90 38 200 -29 110 -70 200 -91 200 -21 0 -38 -90 -38 -200z"/>
<path d="M14168 51083 c-175 -392 -316 -965 -211 -860 92 93 440 1113 394 1159 -19 19 -101 -116 -183 -299z"/>
<path d="M1664 50950 c31 -82 98 -150 147 -150 49 0 89 68 89 150 0 83 -66 150 -147 150 -89 0 -124 -59 -89 -150z"/>
<path d="M4600 50694 c0 -245 40 -381 100 -344 55 34 100 217 100 406 0 189 -45 344 -100 344 -55 0 -100 -183 -100 -406z"/>
<path d="M21853 50905 c-32 -52 187 -356 488 -675 408 -434 575 -551 660 -467 87 85 39 191 -189 425 -168 172 -347 312 -398 312 -51 0 -121 113 -155 250 -62 248 -294 337 -406 155z"/>
<path d="M100 50600 c0 -55 45 -100 100 -100 55 0 100 45 100 100 0 55 -45 100 -100 100 -55 0 -100 -45 -100 -100z"/>
<path d="M17958 50536 c-83 -218 28 -320 146 -133 118 187 121 297 7 297 -49 0 -118 -74 -153 -164z"/>
<path d="M11900 50500 c0 -55 20 -100 44 -100 24 0 72 45 106 100 34 55 14 100 -44 100 -58 0 -106 -45 -106 -100z"/>
<path d="M1817 50200 c50 -151 211 -167 258 -25 23 69 -33 125 -125 125 -92 0 -152 -45 -133 -100z"/>
<path d="M14200 49900 c0 -110 45 -200 100 -200 55 0 100 90 100 200 0 110 -45 200 -100 200 -55 0 -100 -90 -100 -200z"/>
<path d="M250 49900 c-67 -109 18 -300 134 -300 40 0 73 90 73 200 0 214 -105 264 -207 100z"/>
<path d="M4100 49562 c0 -340 36 -466 125 -434 143 50 122 665 -29 816 -61 61 -96 -75 -96 -382z"/>
<path d="M17367 49933 c-37 -36 -66 -138 -64 -225 3 -129 31 -122 150 36 142 188 147 186 154 -50 6 -223 14 -227 86 -44 99 248 -148 462 -326 283z"/>
<path d="M4562 49717 c-44 -127 -54 -259 -21 -291 104 -104 176 49 138 290 l-36 234 -81 -233z"/>
<path d="M18043 49789 c-37 -61 -73 -455 -79 -875 -8 -598 38 -867 213 -1238 122 -261 223 -514 223 -562 0 -280 1676 -1452 2375 -1660 327 -98 277 108 -55 224 -484 169 -1685 991 -1882 1288 -634 959 -677 1089 -683 2059 -3 481 -14 875 -24 875 -11 0 -50 -50 -88 -111z"/>
<path d="M11854 49707 c-31 -51 -12 -121 44 -156 56 -35 102 7 102 93 0 176 -60 202 -146 63z"/>
<path d="M15200 49600 c0 -55 20 -100 44 -100 24 0 72 45 106 100 34 55 14 100 -44 100 -58 0 -106 -45 -106 -100z"/>
<path d="M1900 49444 c0 -86 45 -128 100 -94 55 34 100 104 100 156 0 52 -45 94 -100 94 -55 0 -100 -70 -100 -156z"/>
<path d="M17164 49350 c-32 -82 -14 -150 39 -150 53 0 97 68 97 150 0 83 -18 150 -39 150 -22 0 -66 -67 -97 -150z"/>
<path d="M24622 49385 c24 -74 125 -151 223 -170 114 -22 162 14 133 100 -24 74 -125 151 -223 170 -114 22 -162 -14 -133 -100z"/>
<path d="M13962 49084 c-60 -300 -19 -474 87 -368 107 107 172 684 76 684 -55 0 -128 -142 -163 -316z"/>
<path d="M17458 49213 c-43 -69 -51 -153 -18 -186 89 -90 187 42 139 187 -34 101 -58 101 -121 -1z"/>
<path d="M4679 48325 c-40 -862 -29 -1008 72 -907 107 107 175 1782 72 1782 -59 0 -120 -371 -144 -875z"/>
<path d="M16773 49100 c-92 -223 -272 -931 -272 -1075 -1 -69 44 -125 99 -125 55 0 100 115 100 257 0 141 48 346 106 455 59 109 89 297 68 418 -29 165 -54 182 -101 70z"/>
<path d="M11600 48900 c0 -55 45 -100 100 -100 55 0 100 45 100 100 0 55 -45 100 -100 100 -55 0 -100 -45 -100 -100z"/>
<path d="M17026 48650 c-59 -192 -71 -372 -28 -399 81 -50 249 635 175 709 -22 22 -88 -118 -147 -310z"/>
<path d="M338 48655 c-82 -213 63 -414 173 -241 118 186 111 386 -14 386 -57 0 -128 -65 -159 -145z"/>
<path d="M1867 48733 c-96 -95 -83 -233 22 -233 49 0 116 68 147 150 59 152 -48 205 -169 83z"/>
<path d="M4150 46946 c0 -1121 39 -1881 100 -1925 55 -39 109 -404 120 -811 29 -1072 316 -2325 547 -2386 105 -27 183 -138 183 -261 0 -325 1003 -2263 1171 -2263 107 0 54 168 -198 625 -189 344 -424 873 -521 1175 -98 303 -218 656 -267 786 -222 578 -304 2357 -187 4059 64 938 139 1801 167 1919 54 224 -108 410 -211 243 -33 -53 -80 -673 -106 -1377 -25 -704 -78 -1460 -117 -1680 -38 -220 -63 -872 -55 -1450 12 -811 -7 -982 -83 -750 -123 372 -131 2498 -13 3279 48 319 55 599 16 623 -83 52 -196 -446 -196 -859 0 -154 -37 -304 -82 -332 -45 -28 -78 675 -75 1561 4 990 -31 1623 -93 1644 -64 22 -100 -628 -100 -1820z"/>
<path d="M17400 48650 c0 -82 44 -150 97 -150 53 0 71 68 39 150 -31 83 -75 150 -97 150 -21 0 -39 -67 -39 -150z"/>
<path d="M11500 48300 c0 -55 45 -100 100 -100 55 0 100 45 100 100 0 55 -45 100 -100 100 -55 0 -100 -45 -100 -100z"/>
<path d="M12755 47945 c-39 -255 -50 -484 -25 -509 25 -25 77 163 115 419 39 255 50 484 25 509 -25 25 -77 -163 -115 -419z"/>
<path d="M13754 48175 c-21 -69 -68 -339 -103 -600 -75 -563 94 -653 186 -100 35 206 91 476 125 600 64 235 -135 331 -208 100z"/>
<path d="M17445 47950 c75 -424 430 -1309 497 -1240 45 44 -431 1511 -515 1590 -30 28 -22 -130 18 -350z"/>
<path d="M1000 48006 c0 -58 45 -106 100 -106 55 0 100 20 100 44 0 24 -45 72 -100 106 -55 34 -100 14 -100 -44z"/>
<path d="M16958 48013 c-43 -69 -51 -153 -18 -186 89 -90 187 42 139 187 -34 101 -58 101 -121 -1z"/>
<path d="M19860 48016 c-35 -56 -15 -132 45 -169 154 -95 253 35 125 163 -72 72 -128 74 -170 6z"/>
<path d="M6000 47906 c0 -52 45 -122 100 -156 55 -34 100 8 100 94 0 86 -45 156 -100 156 -55 0 -100 -42 -100 -94z"/>
<path d="M1800 47744 c0 -86 45 -128 100 -94 55 34 100 104 100 156 0 52 -45 94 -100 94 -55 0 -100 -70 -100 -156z"/>
<path d="M16543 46846 c39 -541 132 -1122 206 -1290 177 -402 178 -193 6 858 -78 476 -118 954 -90 1064 29 110 -3 234 -71 276 -97 59 -108 -138 -51 -908z"/>
<path d="M11400 47600 c0 -55 45 -100 100 -100 55 0 100 45 100 100 0 55 -45 100 -100 100 -55 0 -100 -45 -100 -100z"/>
<path d="M13100 47400 c0 -187 27 -213 120 -120 93 93 93 147 0 240 -93 93 -120 67 -120 -120z"/>
<path d="M16977 47544 c-63 -63 152 -1058 313 -1444 141 -341 394 -649 470 -573 35 34 -29 211 -140 393 -112 181 -279 623 -371 980 -182 709 -189 726 -272 644z"/>
<path d="M20300 47500 c0 -55 68 -100 150 -100 83 0 150 45 150 100 0 55 -67 100 -150 100 -82 0 -150 -45 -150 -100z"/>
<path d="M5911 47363 c-89 -107 -91 -164 -7 -215 163 -101 365 123 232 256 -73 73 -141 60 -225 -41z"/>
<path d="M21960 47416 c-35 -56 -15 -132 45 -169 154 -95 253 35 125 163 -72 72 -128 74 -170 6z"/>
<path d="M950 47300 c-34 -55 -14 -100 44 -100 58 0 106 45 106 100 0 55 -20 100 -44 100 -24 0 -72 -45 -106 -100z"/>
<path d="M1800 47256 c0 -176 60 -202 146 -63 31 51 12 121 -44 156 -56 35 -102 -7 -102 -93z"/>
<path d="M12600 46806 c0 -217 45 -422 100 -456 61 -38 100 116 100 394 0 251 -45 456 -100 456 -55 0 -100 -177 -100 -394z"/>
<path d="M20855 47109 c-32 -53 -16 -122 36 -154 53 -32 122 -16 154 36 32 53 16 122 -36 154 -53 32 -122 16 -154 -36z"/>
<path d="M4600 47000 c0 -55 20 -100 44 -100 24 0 72 45 106 100 34 55 14 100 -44 100 -58 0 -106 -45 -106 -100z"/>
<path d="M11500 47056 c0 -24 45 -72 100 -106 55 -34 100 -14 100 44 0 58 -45 106 -100 106 -55 0 -100 -20 -100 -44z"/>
<path d="M22400 46900 c0 -55 70 -100 156 -100 86 0 128 45 94 100 -34 55 -104 100 -156 100 -52 0 -94 -45 -94 -100z"/>
<path d="M13075 46842 c-41 -41 -72 -214 -69 -384 7 -301 9 -303 104 -64 107 268 84 568 -35 448z"/>
<path d="M1800 46500 c0 -110 45 -200 100 -200 55 0 100 90 100 200 0 110 -45 200 -100 200 -55 0 -100 -90 -100 -200z"/>
<path d="M13500 46550 c0 -82 45 -150 100 -150 55 0 100 68 100 150 0 83 -45 150 -100 150 -55 0 -100 -67 -100 -150z"/>
<path d="M23000 46400 c0 -55 68 -100 150 -100 83 0 150 45 150 100 0 55 -67 100 -150 100 -82 0 -150 -45 -150 -100z"/>
<path d="M23650 46300 c-34 -55 -14 -100 44 -100 58 0 106 45 106 100 0 55 -20 100 -44 100 -24 0 -72 -45 -106 -100z"/>
<path d="M950 46000 c-34 -55 8 -100 94 -100 86 0 156 45 156 100 0 55 -42 100 -94 100 -52 0 -122 -45 -156 -100z"/>
<path d="M12767 45575 c87 -456 133 -470 133 -42 0 202 -44 367 -97 367 -57 0 -72 -138 -36 -325z"/>
<path d="M13079 45842 c-117 -181 89 -1730 370 -2784 409 -1530 1070 -2672 1776 -3067 300 -168 193 24 -252 450 -523 501 -1180 1770 -1376 2659 -42 193 -132 598 -198 900 -67 303 -150 865 -185 1250 -35 385 -96 651 -135 592z"/>
<path d="M14000 45650 c0 -82 -82 -232 -182 -332 -217 -217 -207 -935 31 -2177 156 -820 614 -1875 771 -1779 50 31 25 157 -56 280 -137 210 -293 784 -554 2041 -131 632 -142 1677 -14 1367 45 -110 129 -610 185 -1112 98 -872 439 -1815 719 -1988 58 -36 282 -304 498 -597 288 -390 514 -579 839 -704 270 -102 571 -325 760 -560 349 -435 854 -689 1368 -689 278 0 359 -49 444 -273 126 -331 258 -423 610 -425 148 -1 418 -87 600 -191 182 -104 511 -220 731 -258 220 -38 490 -153 600 -254 226 -210 750 -433 750 -320 0 122 -974 721 -1173 721 -102 0 -363 93 -581 206 -218 113 -575 238 -794 278 -276 49 -435 144 -516 307 -151 303 -318 406 -665 407 -411 3 -1063 372 -1254 710 -109 193 -293 329 -530 394 -413 113 -1211 919 -1762 1780 -355 556 -595 1594 -646 2793 -12 289 -57 525 -100 525 -44 0 -79 -67 -79 -150z"/>
<path d="M15400 45644 c0 -86 45 -128 100 -94 55 34 100 104 100 156 0 52 -45 94 -100 94 -55 0 -100 -70 -100 -156z"/>
<path d="M1100 45306 c0 -58 45 -106 100 -106 55 0 100 20 100 44 0 24 -45 72 -100 106 -55 34 -100 14 -100 -44z"/>
<path d="M19400 45185 c0 -240 722 -985 954 -985 237 0 168 144 -164 340 -171 101 -400 336 -510 522 -233 395 -280 415 -280 123z"/>
<path d="M5900 45200 c0 -55 20 -100 44 -100 24 0 72 45 106 100 34 55 14 100 -44 100 -58 0 -106 -45 -106 -100z"/>
<path d="M15500 45144 c0 -86 45 -128 100 -94 55 34 100 104 100 156 0 52 -45 94 -100 94 -55 0 -100 -70 -100 -156z"/>
<path d="M20806 45009 c-12 -277 522 -825 1029 -1056 630 -287 1065 -392 1065 -257 0 55 -124 130 -275 166 -694 168 -1373 610 -1694 1105 -84 129 -121 142 -125 42z"/>
<path d="M8625 44844 c-154 -167 -162 -409 -16 -499 185 -115 321 116 227 386 -71 207 -107 226 -211 113z"/>
<path d="M12873 44940 c-40 -41 -73 -142 -73 -227 0 -112 30 -123 111 -42 61 61 94 163 73 227 -21 63 -71 82 -111 42z"/>
<path d="M16800 44939 c0 -33 142 -359 315 -725 199 -419 522 -867 875 -1215 593 -582 1455 -1199 1677 -1199 251 0 133 -187 -142 -224 l-275 -37 295 -85 c193 -56 307 -49 330 22 43 129 1024 -292 1493 -640 199 -147 456 -236 686 -236 380 0 1622 -251 2026 -410 126 -49 314 -90 418 -90 103 0 258 -71 345 -157 131 -132 157 -134 157 -12 0 79 -56 188 -125 241 -144 111 -1288 388 -2375 575 -730 127 -2158 773 -3250 1472 -962 616 -1950 1732 -1950 2204 0 101 -67 209 -150 241 -82 31 -150 120 -150 197 0 76 -45 139 -100 139 -55 0 -100 -27 -100 -61z"/>
<path d="M18402 44725 c1 -41 102 -248 225 -460 338 -583 1044 -885 3923 -1677 1702 -468 2019 -564 2242 -684 165 -88 208 -82 208 30 0 78 -124 185 -275 238 -1128 396 -2699 829 -3186 878 -172 17 -397 75 -500 129 -365 189 -693 314 -1089 415 -545 139 -1103 537 -1265 903 -122 277 -287 410 -283 228z"/>
<path d="M1300 44600 c0 -55 45 -100 100 -100 55 0 100 45 100 100 0 55 -45 100 -100 100 -55 0 -100 -45 -100 -100z"/>
<path d="M5900 44656 c0 -24 45 -72 100 -106 55 -34 100 -14 100 44 0 58 -45 106 -100 106 -55 0 -100 -20 -100 -44z"/>
<path d="M1700 44058 c0 -87 71 -158 158 -158 87 0 141 53 119 119 -62 185 -277 216 -277 39z"/>
<path d="M6100 44100 c0 -55 20 -100 44 -100 24 0 72 45 106 100 34 55 14 100 -44 100 -58 0 -106 -45 -106 -100z"/>
<path d="M20660 44126 c-121 -120 -55 -226 140 -226 110 0 200 40 200 89 0 113 -260 218 -340 137z"/>
<path d="M15854 44007 c-31 -51 -12 -121 44 -156 56 -35 102 7 102 93 0 176 -60 202 -146 63z"/>
<path d="M0 43669 c0 -148 42 -269 93 -269 52 0 125 -101 164 -225 79 -255 320 -508 876 -924 442 -331 974 -1312 1165 -2151 283 -1236 643 -2473 830 -2850 219 -442 1294 -1550 1504 -1550 73 0 239 -112 368 -250 129 -137 337 -250 462 -250 124 0 254 -45 288 -100 34 -55 196 -100 361 -100 164 0 420 -62 569 -138 413 -211 1074 -294 1316 -164 165 88 280 79 523 -43 347 -173 1331 -217 1231 -55 -34 55 -243 100 -465 100 -290 0 -451 59 -575 212 -166 206 -183 207 -500 43 -346 -179 -1026 -140 -1290 73 -72 58 -319 140 -550 183 -850 158 -1027 224 -1348 504 -181 157 -363 285 -405 285 -177 0 -1111 984 -1310 1381 -260 516 -525 1380 -759 2469 -230 1069 -868 2361 -1284 2599 -310 178 -764 621 -764 747 0 36 -112 218 -250 404 l-250 339 0 -270z"/>
<path d="M21160 43817 c-65 -106 375 -355 534 -302 62 20 -20 116 -183 213 -164 96 -321 136 -351 89z"/>
<path d="M2000 43700 c0 -55 45 -100 100 -100 55 0 100 45 100 100 0 55 -45 100 -100 100 -55 0 -100 -45 -100 -100z"/>
<path d="M18419 43694 c24 -72 103 -151 175 -175 75 -25 112 12 87 87 -24 72 -103 151 -175 175 -75 25 -112 -12 -87 -87z"/>
<path d="M23000 43530 c0 -82 130 -130 350 -130 193 0 350 40 350 89 0 49 -157 108 -350 130 -241 28 -350 1 -350 -89z"/>
<path d="M6150 43500 c-34 -55 -14 -100 44 -100 58 0 106 45 106 100 0 55 -20 100 -44 100 -24 0 -72 -45 -106 -100z"/>
<path d="M24000 43500 c0 -55 180 -100 400 -100 220 0 400 -45 400 -100 0 -55 45 -100 100 -100 198 0 95 278 -125 337 -350 94 -775 74 -775 -37z"/>
<path d="M16100 43400 c0 -55 20 -100 44 -100 24 0 72 45 106 100 34 55 14 100 -44 100 -58 0 -106 -45 -106 -100z"/>
<path d="M21942 43388 c-57 -93 1005 -422 1177 -365 63 21 -165 130 -506 242 -342 112 -643 167 -671 123z"/>
<path d="M2300 43300 c0 -55 45 -100 100 -100 55 0 100 45 100 100 0 55 -45 100 -100 100 -55 0 -100 -45 -100 -100z"/>
<path d="M18919 43294 c24 -72 103 -151 175 -175 75 -25 112 12 87 87 -24 72 -103 151 -175 175 -75 25 -112 -12 -87 -87z"/>
<path d="M19500 43100 c0 -55 70 -100 156 -100 86 0 128 45 94 100 -34 55 -104 100 -156 100 -52 0 -94 -45 -94 -100z"/>
<path d="M24500 42900 c0 -55 45 -100 100 -100 55 0 100 45 100 100 0 55 -45 100 -100 100 -55 0 -100 -45 -100 -100z"/>
<path d="M2500 42806 c0 -52 45 -122 100 -156 55 -34 100 8 100 94 0 86 -45 156 -100 156 -55 0 -100 -42 -100 -94z"/>
<path d="M20050 42800 c34 -55 104 -100 156 -100 52 0 94 45 94 100 0 55 -70 100 -156 100 -86 0 -128 -45 -94 -100z"/>
<path d="M2758 42413 c-43 -69 -51 -153 -18 -186 89 -90 187 42 139 187 -34 101 -58 101 -121 -1z"/>
<path d="M2300 41956 c0 -86 45 -156 100 -156 55 0 100 42 100 94 0 52 -45 122 -100 156 -55 34 -100 -8 -100 -94z"/>
<path d="M1000 41806 c0 -52 45 -122 100 -156 55 -34 100 8 100 94 0 86 -45 156 -100 156 -55 0 -100 -42 -100 -94z"/>
<path d="M2903 41725 c4 -196 268 -588 344 -511 69 69 -173 686 -269 686 -43 0 -77 -79 -75 -175z"/>
<path d="M300 41746 c0 -176 475 -936 756 -1208 182 -177 378 -494 435 -705 224 -829 509 -2129 509 -2324 0 -540 745 -1836 1334 -2319 174 -142 608 -383 966 -535 358 -151 769 -338 915 -415 523 -276 685 -105 176 185 -169 96 -380 175 -469 175 -126 0 -135 27 -42 120 66 66 120 156 120 200 0 118 -378 97 -418 -23 -54 -163 -708 112 -1093 460 -834 755 -1102 1296 -1433 2893 -338 1630 -545 2235 -831 2424 -124 82 -345 369 -491 638 -227 417 -434 624 -434 434z"/>
<path d="M8400 41700 c0 -55 45 -100 100 -100 55 0 100 45 100 100 0 55 -45 100 -100 100 -55 0 -100 -45 -100 -100z"/>
<path d="M6700 41591 c0 -120 287 -382 425 -388 149 -6 64 151 -178 327 -156 113 -247 136 -247 61z"/>
<path d="M1300 41250 c0 -92 56 -148 125 -125 142 47 126 208 -25 258 -55 19 -100 -41 -100 -133z"/>
<path d="M14823 41281 c22 -65 93 -136 158 -158 73 -24 96 21 58 119 -69 181 -276 219 -216 39z"/>
<path d="M17400 41200 c0 -55 45 -100 100 -100 55 0 100 45 100 100 0 55 -45 100 -100 100 -55 0 -100 -45 -100 -100z"/>
<path d="M23653 41204 c-36 -58 7 -133 95 -167 220 -84 288 8 113 154 -98 81 -164 86 -208 13z"/>
<path d="M8719 41094 c24 -72 103 -151 175 -175 75 -25 112 12 87 87 -24 72 -103 151 -175 175 -75 25 -112 -12 -87 -87z"/>
<path d="M7961 40957 c71 -185 375 -216 314 -32 -23 69 -116 140 -208 157 -116 23 -148 -15 -106 -125z"/>
<path d="M17900 40900 c0 -55 45 -100 100 -100 55 0 100 45 100 100 0 55 -45 100 -100 100 -55 0 -100 -45 -100 -100z"/>
<path d="M24355 40909 c-32 -53 -16 -122 36 -154 53 -32 122 -16 154 36 32 53 16 122 -36 154 -53 32 -122 16 -154 -36z"/>
<path d="M200 40606 c0 -240 115 -320 298 -207 115 71 117 113 8 243 -177 214 -306 199 -306 -36z"/>
<path d="M15550 40300 c-73 -118 22 -300 156 -300 52 0 94 90 94 200 0 211 -145 269 -250 100z"/>
<path d="M402 40075 c4 -211 363 -608 484 -534 82 51 71 152 -39 365 -152 293 -449 406 -445 169z"/>
<path d="M3400 40100 c0 -55 45 -100 100 -100 55 0 100 45 100 100 0 55 -45 100 -100 100 -55 0 -100 -45 -100 -100z"/>
<path d="M10554 40007 c-30 -49 -27 -161 6 -248 72 -188 440 -216 440 -33 0 162 -373 398 -446 281z"/>
<path d="M19600 39900 c0 -55 70 -100 156 -100 86 0 128 45 94 100 -34 55 -104 100 -156 100 -52 0 -94 -45 -94 -100z"/>
<path d="M15900 39750 c0 -92 56 -148 125 -125 142 47 126 208 -25 258 -55 19 -100 -41 -100 -133z"/>
<path d="M3500 39600 c0 -55 45 -100 100 -100 55 0 100 45 100 100 0 55 -45 100 -100 100 -55 0 -100 -45 -100 -100z"/>
<path d="M7500 39500 c110 -206 217 -249 332 -134 92 91 -125 334 -298 334 -110 0 -118 -44 -34 -200z"/>
<path d="M11048 39497 c-70 -114 330 -488 527 -494 190 -5 150 139 -106 380 -260 244 -329 262 -421 114z"/>
<path d="M928 39348 c-83 -152 -77 -262 27 -450 76 -136 140 -437 141 -667 4 -413 116 -597 296 -486 54 34 31 294 -57 631 -82 316 -182 709 -223 874 -69 282 -80 288 -184 98z"/>
<path d="M16800 39400 c0 -55 45 -100 100 -100 55 0 100 45 100 100 0 55 -45 100 -100 100 -55 0 -100 -45 -100 -100z"/>
<path d="M35 39152 c36 -93 65 -187 65 -210 0 -23 71 -42 157 -42 223 0 136 339 -98 384 -142 27 -172 -5 -124 -132z"/>
<path d="M8818 39075 c35 -244 384 -320 457 -100 23 69 -30 125 -117 125 -87 0 -158 45 -158 100 0 55 -48 100 -107 100 -59 0 -93 -101 -75 -225z"/>
<path d="M22800 39114 c0 -48 256 -117 568 -153 352 -42 771 -183 1100 -371 380 -217 532 -264 532 -164 0 247 -1168 774 -1714 774 -267 0 -486 -39 -486 -86z"/>
<path d="M17025 38775 c22 -69 146 -178 275 -243 129 -64 273 -188 322 -275 90 -160 478 -223 478 -77 0 45 -148 225 -330 400 -324 315 -828 446 -745 195z"/>
<path d="M11703 38695 c4 -214 566 -795 771 -796 97 0 311 -90 476 -199 166 -110 469 -199 678 -199 244 -1 399 -54 436 -151 34 -90 185 -150 374 -150 175 0 406 -61 515 -136 247 -170 1212 -302 1290 -176 31 51 -179 126 -468 165 -289 40 -614 134 -722 209 -109 76 -317 138 -463 138 -146 0 -322 68 -390 150 -69 83 -288 150 -487 151 -200 0 -498 90 -663 199 -165 109 -366 199 -446 199 -80 1 -316 168 -525 371 -224 219 -378 311 -376 225z"/>
<path d="M500 38550 c0 -82 45 -150 100 -150 55 0 100 68 100 150 0 83 -45 150 -100 150 -55 0 -100 -67 -100 -150z"/>
<path d="M12400 38550 c0 -83 89 -150 200 -150 111 0 200 67 200 150 0 83 -89 150 -200 150 -111 0 -200 -67 -200 -150z"/>
<path d="M15351 38502 c-35 -56 7 -102 93 -102 176 0 202 60 63 146 -51 31 -121 12 -156 -44z"/>
<path d="M3800 38378 c0 -141 388 -423 470 -342 75 75 -56 249 -276 367 -146 78 -194 72 -194 -25z"/>
<path d="M18800 38200 c0 -55 45 -100 100 -100 55 0 100 45 100 100 0 55 -45 100 -100 100 -55 0 -100 -45 -100 -100z"/>
<path d="M16450 38100 c-34 -55 8 -100 94 -100 86 0 156 45 156 100 0 55 -42 100 -94 100 -52 0 -122 -45 -156 -100z"/>
<path d="M7308 37972 c88 -67 190 -246 227 -397 51 -205 130 -275 310 -275 133 0 356 -43 495 -96 144 -55 276 -58 307 -8 30 48 -102 140 -294 203 -192 64 -443 247 -558 408 -124 174 -297 292 -427 290 -192 -3 -199 -18 -60 -125z"/>
<path d="M24100 37700 c0 -55 70 -100 156 -100 86 0 128 45 94 100 -34 55 -104 100 -156 100 -52 0 -94 -45 -94 -100z"/>
<path d="M1233 37234 c61 -376 216 -618 325 -509 125 125 -72 875 -230 875 -122 0 -142 -77 -95 -366z"/>
<path d="M10218 37433 c39 -203 185 -259 370 -143 181 115 54 310 -201 310 -135 0 -191 -56 -169 -167z"/>
<path d="M22400 37525 c0 -109 1003 -655 1074 -585 32 33 41 73 18 89 -806 554 -1092 684 -1092 496z"/>
<path d="M24700 37400 c0 -55 45 -100 100 -100 55 0 100 45 100 100 0 55 -45 100 -100 100 -55 0 -100 -45 -100 -100z"/>
<path d="M19000 37150 c0 -82 68 -150 150 -150 83 0 150 68 150 150 0 83 -67 150 -150 150 -82 0 -150 -67 -150 -150z"/>
<path d="M21200 36827 c0 -307 1266 -863 1838 -807 476 46 372 229 -138 240 -555 12 -1000 185 -1000 388 0 83 -56 153 -125 153 -69 1 -226 29 -350 62 -124 33 -225 17 -225 -36z"/>
<path d="M20130 36721 c-219 -140 24 -354 318 -280 223 55 249 93 149 213 -134 161 -284 183 -467 67z"/>
<path d="M23850 36700 c34 -55 127 -100 206 -100 79 0 144 45 144 100 0 55 -93 100 -206 100 -113 0 -178 -45 -144 -100z"/>
<path d="M14924 36575 c23 -69 148 -141 279 -160 207 -30 221 -14 105 125 -157 189 -443 215 -384 35z"/>
<path d="M1500 36508 c0 -210 131 -408 271 -408 89 0 128 -58 96 -143 -61 -158 198 -425 307 -316 38 38 14 145 -54 239 -68 93 -172 294 -231 445 -101 255 -389 391 -389 183z"/>
<path d="M9154 36406 c-104 -168 36 -306 309 -306 186 0 243 46 218 175 -37 197 -427 293 -527 131z"/>
<path d="M3300 36300 c0 -55 45 -100 100 -100 55 0 100 45 100 100 0 55 -45 100 -100 100 -55 0 -100 -45 -100 -100z"/>
<path d="M11753 36106 c-96 -157 31 -306 260 -306 138 0 191 55 168 174 -38 199 -330 289 -428 132z"/>
<path d="M24900 36100 c0 -55 -65 -100 -144 -100 -79 0 -172 -45 -206 -100 -34 -56 42 -100 173 -100 163 0 239 61 250 200 8 110 -5 200 -29 200 -24 0 -44 -45 -44 -100z"/>
<path d="M16900 36000 c0 -55 68 -100 150 -100 83 0 150 45 150 100 0 55 -67 100 -150 100 -82 0 -150 -45 -150 -100z"/>
<path d="M18600 36000 c0 -55 45 -100 100 -100 55 0 100 45 100 100 0 55 -45 100 -100 100 -55 0 -100 -45 -100 -100z"/>
<path d="M17800 35900 c0 -55 45 -100 100 -100 55 0 100 45 100 100 0 55 -45 100 -100 100 -55 0 -100 -45 -100 -100z"/>
<path d="M23750 35900 c-34 -55 8 -100 94 -100 86 0 156 45 156 100 0 55 -42 100 -94 100 -52 0 -122 -45 -156 -100z"/>
<path d="M6438 35655 c-31 -80 -27 -193 9 -250 117 -189 253 -110 253 145 0 271 -172 340 -262 105z"/>
<path d="M13250 35600 c-92 -149 36 -300 256 -300 214 0 221 13 133 242 -68 177 -294 211 -389 58z"/>
<path d="M22158 35504 c60 -61 342 -148 626 -193 285 -45 596 -151 692 -236 186 -166 1266 -224 1167 -63 -30 48 -272 88 -537 88 -296 0 -527 55 -601 144 -116 140 -237 175 -1055 307 -293 47 -371 35 -292 -47z"/>
<path d="M24000 35500 c0 -55 70 -100 156 -100 86 0 128 45 94 100 -34 55 -104 100 -156 100 -52 0 -94 -45 -94 -100z"/>
<path d="M2200 35408 c0 -244 1616 -1325 1762 -1179 28 27 -138 178 -368 335 -230 157 -587 432 -793 611 -372 322 -601 411 -601 233z"/>
<path d="M19550 35400 c-34 -55 -14 -100 44 -100 58 0 106 45 106 100 0 55 -20 100 -44 100 -24 0 -72 -45 -106 -100z"/>
<path d="M3856 35310 c-30 -49 8 -113 85 -143 146 -56 259 9 259 150 0 111 -274 106 -344 -7z"/>
<path d="M14646 35193 c-36 -58 -45 -127 -20 -152 69 -70 374 68 374 170 0 125 -274 111 -354 -18z"/>
<path d="M20900 35200 c0 -55 68 -100 150 -100 83 0 150 45 150 100 0 55 -67 100 -150 100 -82 0 -150 -45 -150 -100z"/>
<path d="M21700 35200 c0 -55 70 -100 156 -100 86 0 128 45 94 100 -34 55 -104 100 -156 100 -52 0 -94 -45 -94 -100z"/>
<path d="M16150 35100 c-34 -55 8 -100 94 -100 86 0 156 45 156 100 0 55 -42 100 -94 100 -52 0 -122 -45 -156 -100z"/>
<path d="M412 34879 c-104 -280 -42 -521 188 -729 245 -222 356 -25 198 354 -66 161 -95 361 -63 444 37 94 2 152 -91 152 -83 0 -187 -100 -232 -221z"/>
<path d="M14325 34734 c-69 -28 -125 -94 -125 -147 0 -53 56 -87 125 -76 69 11 206 -15 304 -58 261 -113 354 39 127 205 -206 150 -234 155 -431 76z"/>
<path d="M17100 34700 c-137 -44 -441 -85 -675 -90 -242 -6 -425 -58 -425 -122 0 -79 175 -92 575 -44 316 38 1250 72 2075 75 l1500 6 -700 143 c-526 108 -778 116 -1013 35 -216 -74 -396 -76 -581 -5 -304 115 -402 115 -756 2z"/>
<path d="M6500 34506 c0 -144 164 -214 341 -146 244 94 189 240 -91 240 -137 0 -250 -42 -250 -94z"/>
<path d="M10967 34533 c-152 -151 -52 -333 183 -333 273 0 316 94 130 280 -136 136 -217 150 -313 53z"/>
<path d="M15254 34507 c-31 -51 -16 -119 35 -150 119 -73 411 36 411 154 0 118 -372 115 -446 -4z"/>
<path d="M21800 34500 c0 -55 45 -100 100 -100 55 0 100 45 100 100 0 55 -45 100 -100 100 -55 0 -100 -45 -100 -100z"/>
<path d="M23000 34500 c0 -55 45 -100 100 -100 55 0 100 45 100 100 0 55 -45 100 -100 100 -55 0 -100 -45 -100 -100z"/>
<path d="M7708 34360 c-127 -154 -42 -260 209 -260 216 0 247 254 40 333 -78 30 -190 -3 -249 -73z"/>
<path d="M20600 34400 c0 -55 45 -100 100 -100 55 0 100 45 100 100 0 55 -45 100 -100 100 -55 0 -100 -45 -100 -100z"/>
<path d="M24250 34400 c34 -55 228 -99 431 -98 275 1 331 26 219 98 -200 129 -730 129 -650 0z"/>
<path d="M12635 34246 c-33 -85 -34 -181 -2 -213 101 -101 367 54 367 214 0 199 -289 199 -365 -1z"/>
<path d="M17350 34300 c-35 -57 51 -100 200 -100 149 0 235 43 200 100 -34 55 -124 100 -200 100 -76 0 -166 -45 -200 -100z"/>
<path d="M19000 34244 c0 -86 45 -128 100 -94 55 34 100 104 100 156 0 52 -45 94 -100 94 -55 0 -100 -70 -100 -156z"/>
<path d="M6000 34102 c0 -56 143 -102 317 -102 364 0 351 44 -42 138 -163 39 -275 24 -275 -36z"/>
<path d="M14569 34136 c-80 -80 11 -236 137 -236 52 0 94 68 94 150 0 155 -118 199 -231 86z"/>
<path d="M15900 34097 c0 -129 285 -245 376 -154 38 37 2 110 -79 161 -193 122 -297 120 -297 -7z"/>
<path d="M22949 33998 c-34 -54 -216 -98 -405 -98 -189 0 -344 -45 -344 -100 0 -56 268 -100 603 -100 332 0 765 -67 962 -150 405 -169 1235 -203 1235 -50 0 55 -179 100 -398 100 -365 0 -999 181 -1422 405 -105 56 -194 53 -231 -7z"/>
<path d="M9600 33900 c0 -55 113 -100 250 -100 138 0 250 45 250 100 0 55 -112 100 -250 100 -137 0 -250 -45 -250 -100z"/>
<path d="M18251 33802 c-35 -56 7 -102 93 -102 176 0 202 60 63 146 -51 31 -121 12 -156 -44z"/>
<path d="M19900 33800 c0 -55 70 -100 156 -100 86 0 128 45 94 100 -34 55 -104 100 -156 100 -52 0 -94 -45 -94 -100z"/>
<path d="M20551 33802 c-35 -56 7 -102 93 -102 176 0 202 60 63 146 -51 31 -121 12 -156 -44z"/>
<path d="M19100 33700 c0 -55 42 -100 94 -100 52 0 122 45 156 100 34 55 -8 100 -94 100 -86 0 -156 -45 -156 -100z"/>
<path d="M5135 33447 c-37 -96 -5 -205 75 -255 199 -126 340 -57 340 165 0 242 -329 313 -415 90z"/>
<path d="M11500 33450 c0 -113 70 -154 225 -132 124 18 225 77 225 132 0 55 -101 114 -225 132 -155 22 -225 -19 -225 -132z"/>
<path d="M16100 33500 c0 -55 68 -100 150 -100 82 0 150 45 150 100 0 55 -68 100 -150 100 -82 0 -150 -45 -150 -100z"/>
<path d="M17150 33333 c-1657 -152 -3366 -455 -4450 -790 -467 -145 -1097 -319 -1400 -388 -789 -179 -2080 -543 -2575 -726 -394 -145 -570 -329 -315 -329 146 0 1188 290 1440 400 110 48 695 206 1300 351 605 145 1348 348 1650 451 530 182 1299 345 3100 660 1293 226 5419 237 6900 18 633 -93 1375 -239 1650 -324 589 -181 550 -176 550 -80 0 197 -565 370 -2091 638 -1841 324 -3214 352 -5759 119z"/>
<path d="M3150 33299 c-80 -128 201 -239 406 -160 201 76 90 261 -156 261 -104 0 -216 -45 -250 -101z"/>
<path d="M13117 33300 c50 -151 211 -167 258 -25 23 69 -33 125 -125 125 -92 0 -152 -45 -133 -100z"/>
<path d="M15100 33356 c0 -106 192 -150 249 -58 35 56 -7 102 -93 102 -86 0 -156 -20 -156 -44z"/>
<path d="M5746 33193 c-36 -58 -42 -130 -13 -160 72 -71 267 55 267 173 0 128 -173 119 -254 -13z"/>
<path d="M0 33050 c0 -82 45 -150 100 -150 55 0 100 68 100 150 0 83 -45 150 -100 150 -55 0 -100 -67 -100 -150z"/>
<path d="M7067 33133 c-127 -126 -66 -233 133 -233 111 0 200 67 200 150 0 152 -212 205 -333 83z"/>
<path d="M8325 32836 c-277 -117 -99 -246 300 -217 234 17 425 76 425 131 0 109 -523 171 -725 86z"/>
<path d="M9469 32736 c-35 -35 -40 -103 -10 -150 85 -138 315 -99 377 64 58 151 -233 220 -367 86z"/>
<path d="M11525 32675 c23 -69 102 -125 175 -125 73 0 152 56 175 125 25 74 -46 125 -175 125 -129 0 -200 -51 -175 -125z"/>
<path d="M1366 32632 c-36 -36 -66 -125 -66 -199 0 -149 258 -182 343 -44 68 110 -187 334 -277 243z"/>
<path d="M20050 32637 c-110 -26 -290 -87 -400 -135 -110 -48 -807 -114 -1550 -148 -742 -34 -1642 -112 -2000 -174 -754 -130 -1100 -338 -400 -240 248 34 788 84 1200 110 1032 66 2309 168 2550 205 110 16 486 80 835 141 349 61 720 84 825 51 106 -34 190 -13 190 46 0 59 -107 107 -237 107 -131 0 -367 19 -525 42 -159 23 -378 21 -488 -5z"/>
<path d="M15950 32500 c-35 -57 49 -100 194 -100 141 0 256 45 256 100 0 55 -87 100 -194 100 -107 0 -222 -45 -256 -100z"/>
<path d="M14850 32400 c-34 -55 31 -100 144 -100 113 0 206 45 206 100 0 55 -65 100 -144 100 -79 0 -172 -45 -206 -100z"/>
<path d="M23050 32300 c-36 -58 66 -100 244 -100 168 0 306 45 306 100 0 55 -110 100 -244 100 -134 0 -272 -45 -306 -100z"/>
<path d="M6225 32175 c23 -69 102 -125 175 -125 73 0 152 56 175 125 25 74 -46 125 -175 125 -129 0 -200 -51 -175 -125z"/>
<path d="M13950 32200 c-34 -55 31 -100 144 -100 113 0 206 45 206 100 0 55 -65 100 -144 100 -79 0 -172 -45 -206 -100z"/>
<path d="M3010 32062 c-284 -342 212 -962 639 -799 216 83 187 184 -96 335 -135 73 -283 243 -328 378 -74 220 -96 229 -215 86z"/>
<path d="M23850 32100 c-73 -118 184 -239 371 -176 83 27 51 84 -90 160 -144 77 -240 82 -281 16z"/>
<path d="M4967 31957 c-77 -199 183 -386 428 -309 274 87 258 196 -50 336 -318 145 -312 145 -378 -27z"/>
<path d="M19700 32000 c-114 -74 -72 -97 175 -98 179 -1 325 43 325 98 0 127 -303 127 -500 0z"/>
<path d="M20500 32000 c0 -57 302 -100 706 -100 445 0 683 37 644 100 -34 55 -352 100 -706 100 -363 0 -644 -44 -644 -100z"/>
<path d="M7769 31935 c-131 -130 -68 -235 139 -235 117 0 191 52 169 119 -49 146 -216 209 -308 116z"/>
<path d="M14203 31902 c-95 -59 -70 -99 91 -150 221 -70 772 15 681 106 -91 92 -644 123 -772 44z"/>
<path d="M18800 31900 c0 -55 135 -100 300 -100 165 0 300 45 300 100 0 55 -135 100 -300 100 -165 0 -300 -45 -300 -100z"/>
<path d="M22127 31840 c33 -34 120 -37 192 -8 80 32 56 55 -61 60 -105 4 -164 -19 -131 -52z"/>
<path d="M24800 31800 c0 -55 45 -100 100 -100 55 0 100 45 100 100 0 55 -45 100 -100 100 -55 0 -100 -45 -100 -100z"/>
<path d="M0 31650 c0 -82 45 -150 100 -150 55 0 100 68 100 150 0 83 -45 150 -100 150 -55 0 -100 -67 -100 -150z"/>
<path d="M13500 31700 c0 -126 204 -126 400 0 117 76 89 97 -125 98 -151 1 -275 -43 -275 -98z"/>
<path d="M11700 31600 c0 -55 42 -100 94 -100 52 0 122 45 156 100 34 55 -8 100 -94 100 -86 0 -156 -45 -156 -100z"/>
<path d="M23500 31656 c0 -24 45 -72 100 -106 55 -34 100 -14 100 44 0 58 -45 106 -100 106 -55 0 -100 -20 -100 -44z"/>
<path d="M6154 31507 c-95 -154 128 -224 344 -108 111 59 202 129 202 155 0 88 -488 46 -546 -47z"/>
<path d="M12614 31511 c-216 -137 36 -225 328 -114 142 54 258 122 258 151 0 84 -438 57 -586 -37z"/>
<path d="M10746 31393 c-36 -58 -42 -130 -13 -160 72 -71 267 55 267 173 0 128 -173 119 -254 -13z"/>
<path d="M1900 31270 c0 -317 525 -510 631 -232 32 81 -48 183 -194 250 -321 146 -437 142 -437 -18z"/>
<path d="M11614 31198 c-240 -109 -573 -198 -740 -198 -577 0 -5174 -1974 -5174 -2221 0 -121 25 -112 1173 430 1517 717 1596 751 2377 1044 770 288 1143 412 2225 741 399 121 725 262 725 313 0 132 -92 115 -586 -109z"/>
<path d="M19069 31226 c-314 -24 -468 -79 -442 -156 39 -117 528 -120 1098 -8 329 65 370 246 50 220 -124 -10 -442 -35 -706 -56z"/>
<path d="M20200 31200 c0 -59 317 -95 775 -88 569 9 695 32 475 88 -449 114 -1250 114 -1250 0z"/>
<path d="M22100 31206 c0 -139 184 -228 311 -149 77 47 69 94 -25 154 -179 113 -286 111 -286 -5z"/>
<path d="M9767 31133 c-122 -121 -69 -228 83 -169 83 31 150 98 150 147 0 105 -138 118 -233 22z"/>
<path d="M17800 31062 c0 -181 446 -231 550 -62 34 55 25 101 -19 101 -45 1 -182 29 -306 62 -165 44 -225 18 -225 -101z"/>
<path d="M7250 30854 c-341 -131 -614 -301 -632 -393 -40 -196 13 -199 417 -25 173 75 506 217 740 316 436 183 561 353 250 341 -96 -4 -445 -111 -775 -239z"/>
<path d="M23319 30894 c24 -72 103 -151 175 -175 75 -25 112 12 87 87 -24 72 -103 151 -175 175 -75 25 -112 -12 -87 -87z"/>
<path d="M24500 30900 c0 -55 113 -100 250 -100 138 0 250 45 250 100 0 55 -112 100 -250 100 -137 0 -250 -45 -250 -100z"/>
<path d="M8900 30800 c0 -55 90 -100 200 -100 110 0 200 45 200 100 0 55 -90 100 -200 100 -110 0 -200 -45 -200 -100z"/>
<path d="M0 30657 c0 -92 85 -157 208 -157 244 0 210 234 -41 282 -99 19 -167 -32 -167 -125z"/>
<path d="M1264 30731 c-113 -113 -69 -231 86 -231 83 0 150 42 150 94 0 126 -156 217 -236 137z"/>
<path d="M20300 30600 c0 -126 204 -126 400 0 117 76 89 97 -125 98 -151 1 -275 -43 -275 -98z"/>
<path d="M21251 30602 c-35 -56 7 -102 93 -102 176 0 202 60 63 146 -51 31 -121 12 -156 -44z"/>
<path d="M3986 30409 c-130 -106 -206 -222 -170 -258 79 -79 584 233 584 361 0 142 -160 102 -414 -103z"/>
<path d="M8100 30500 c0 -55 42 -100 94 -100 52 0 122 45 156 100 34 55 -8 100 -94 100 -86 0 -156 -45 -156 -100z"/>
<path d="M19350 30529 c-110 -27 -245 -94 -300 -150 -128 -131 859 -3 995 129 99 96 -329 109 -695 21z"/>
<path d="M17326 30371 c27 -80 285 -121 757 -121 987 0 973 194 -15 221 -575 16 -771 -11 -742 -100z"/>
<path d="M4600 30312 c0 -108 303 -195 476 -137 69 23 100 83 69 134 -73 117 -545 120 -545 3z"/>
<path d="M5325 30036 c-399 -193 -725 -398 -725 -454 0 -57 63 -79 140 -50 76 30 324 109 550 177 225 67 410 155 410 194 0 40 135 99 300 132 176 35 300 123 300 213 0 218 -159 184 -975 -212z"/>
<path d="M7490 30238 c-116 -139 -108 -156 55 -125 104 21 207 93 230 162 59 178 -126 155 -285 -37z"/>
<path d="M12500 30300 c0 -55 90 -100 200 -100 110 0 200 45 200 100 0 55 -90 100 -200 100 -110 0 -200 -45 -200 -100z"/>
<path d="M23800 30204 c0 -129 399 -338 483 -254 37 37 -21 130 -127 208 -226 165 -356 182 -356 46z"/>
<path d="M2367 30133 c-220 -219 132 -369 509 -216 l274 111 -250 76 c-336 102 -454 109 -533 29z"/>
<path d="M21244 30091 c-52 -84 -13 -104 256 -131 145 -15 73 182 -75 204 -68 10 -150 -23 -181 -73z"/>
<path d="M22100 30112 c0 -102 415 -230 493 -153 64 65 -201 237 -368 239 -69 1 -125 -38 -125 -86z"/>
<path d="M650 30000 c-161 -260 329 -409 650 -198 133 87 133 109 0 196 -195 129 -571 130 -650 2z"/>
<path d="M6797 29946 c-170 -205 -75 -275 150 -110 112 82 143 158 79 198 -57 35 -160 -4 -229 -88z"/>
<path d="M14500 29804 c-752 -191 -1725 -659 -2398 -1152 -529 -389 -1402 -1325 -1402 -1503 0 -65 -90 -199 -200 -299 -110 -100 -200 -232 -200 -294 0 -63 -90 -290 -200 -506 -397 -779 -196 -744 735 127 102 95 225 274 273 398 49 127 172 225 282 225 108 0 256 60 329 133 142 143 381 113 381 -47 0 -54 -41 -73 -91 -42 -162 101 -409 -60 -409 -266 0 -167 44 -189 275 -133 l275 66 -250 -175 c-389 -272 -525 -536 -275 -536 69 0 131 -103 138 -230 10 -168 -90 -289 -375 -453 -213 -122 -388 -297 -388 -387 0 -90 -74 -246 -165 -346 -153 -170 -173 -171 -288 -14 -115 158 -139 158 -385 -3 -315 -206 -376 -535 -69 -371 319 171 452 117 195 -78 -492 -376 -1807 -1014 -2048 -994 -229 19 -236 32 -76 148 96 71 235 128 309 128 181 0 958 398 1050 538 123 187 87 262 -125 262 -161 0 -91 113 350 561 492 500 686 839 480 839 -40 0 -338 -259 -662 -575 -361 -352 -608 -527 -636 -450 -70 189 -192 156 -765 -211 -290 -185 -906 -540 -1371 -789 -464 -248 -1136 -609 -1494 -802 -677 -364 -1367 -626 -2050 -776 -1000 -220 -1832 -457 -1960 -560 -77 -62 -399 -144 -715 -182 l-575 -69 0 -1893 c0 -1777 11 -1893 186 -1893 173 0 1055 603 1130 773 55 125 803 605 1201 770 201 84 461 286 577 449 116 163 311 328 434 366 301 95 2511 1498 2682 1704 75 90 531 358 1014 594 483 237 1045 569 1250 737 204 169 405 307 446 307 127 0 1710 964 2119 1290 214 171 597 374 850 451 254 78 986 392 1628 700 672 322 1477 623 1900 712 403 85 1026 239 1383 342 358 104 898 218 1200 254 303 36 888 149 1300 251 1878 462 2333 538 3600 601 743 37 1519 53 1725 36 339 -27 375 -7 375 215 0 172 -66 258 -225 292 -541 116 -597 147 -200 112 355 -31 425 -8 425 142 0 216 -217 283 -1200 367 -465 40 -780 116 -830 200 -106 180 -448 172 -634 -15 -222 -222 -411 -182 -411 86 0 221 31 234 463 193 744 -70 2135 -334 2340 -444 287 -154 332 -15 64 201 -504 409 -2884 704 -4142 515 -1307 -197 -1732 -230 -1921 -149 -258 111 -568 113 -646 4 -41 -56 -120 -50 -200 17 -283 234 -1257 527 -1751 527 -286 0 -623 38 -750 85 -150 55 -462 26 -882 -81z m325 -282 c-672 -258 -538 -427 176 -221 952 275 2717 22 2829 -406 32 -121 171 -220 362 -258 239 -48 286 -93 205 -191 -76 -91 -73 -149 11 -201 180 -111 -72 -215 -708 -292 -495 -60 -563 -45 -682 150 -130 213 -123 216 400 182 298 -20 546 9 563 65 41 132 -320 228 -906 240 -271 6 -475 57 -475 119 0 74 163 87 500 41 608 -84 670 72 125 313 -468 206 -2066 245 -2399 57 -187 -105 -266 -99 -475 39 -198 129 -283 139 -396 46 -79 -67 -115 -194 -80 -287 50 -136 35 -146 -81 -52 -110 89 -238 83 -544 -23 -482 -169 -477 -168 -400 -43 78 127 1009 569 1570 745 607 191 916 173 405 -23z m6455 -485 c-120 -119 -398 -172 -1046 -198 -1012 -39 -894 90 216 238 1077 143 1016 146 830 -40z m-6126 -230 c-36 -59 -167 -107 -290 -107 -123 0 -277 -53 -342 -118 -66 -66 -211 -126 -324 -134 -298 -22 -120 110 452 335 516 202 618 207 504 24z m846 93 c0 -55 -42 -100 -94 -100 -52 0 -122 45 -156 100 -34 55 8 100 94 100 86 0 156 -45 156 -100z m6719 -68 c-72 -29 -159 -26 -192 8 -33 33 26 56 131 52 117 -5 141 -28 61 -60z m-10124 -289 c-72 -86 -269 -223 -438 -304 l-307 -147 346 304 c364 320 620 414 399 147z m9249 -34 c31 -49 411 -94 845 -99 1127 -12 1474 -164 528 -232 -482 -34 -766 -103 -846 -205 -67 -84 -229 -185 -361 -224 -226 -68 -236 -54 -174 255 l65 326 -975 -77 c-537 -43 -1100 -74 -1253 -69 -173 5 -322 -65 -399 -188 -166 -266 -473 -263 -403 4 33 127 136 200 284 200 127 0 295 65 374 144 79 79 341 161 582 182 890 79 1679 71 1733 -17z m-5097 -201 c277 -23 -383 -305 -712 -303 -404 3 -1166 -60 -1454 -120 -93 -19 -183 10 -200 65 -32 103 1709 430 2069 389 110 -12 244 -26 297 -31z m4503 -408 c-110 -47 -326 -89 -480 -93 -395 -10 -1853 -496 -1944 -648 -68 -113 -1323 -384 -1411 -304 -19 17 161 87 400 155 239 68 525 203 635 300 260 230 724 421 1100 454 165 14 525 68 800 119 275 51 635 96 800 98 254 4 269 -8 100 -81z m1569 -68 c-72 -29 -159 -26 -192 8 -33 33 26 56 131 52 117 -5 141 -28 61 -60z m954 -1 c-97 -26 -232 -24 -300 3 -68 28 12 49 177 47 165 -3 220 -25 123 -50z m-8242 -367 c37 -96 -103 -173 -476 -263 -291 -70 -591 -104 -667 -76 -79 29 -9 79 162 117 165 37 413 128 550 203 327 179 369 181 431 19z m1919 -84 l400 11 -283 -152 c-220 -120 -349 -130 -586 -47 -168 58 -412 79 -543 46 -130 -33 -315 -30 -410 7 -331 127 88 269 572 193 248 -38 630 -65 850 -58z m2800 20 c-34 -55 -138 -99 -231 -98 -146 1 -148 14 -19 98 196 127 328 127 250 0z m-6800 -100 c-34 -55 -107 -100 -162 -100 -55 0 -72 45 -38 100 34 55 107 100 162 100 55 0 72 -45 38 -100z m-2100 -100 c34 -55 -8 -100 -94 -100 -86 0 -156 45 -156 100 0 55 42 100 94 100 52 0 122 -45 156 -100z m1309 -290 c-121 -134 -138 -211 -58 -261 76 -47 43 -120 -100 -220 -118 -82 -237 -126 -265 -98 -58 57 252 578 412 692 182 131 187 81 11 -113z m2624 -215 c-73 -39 -335 -71 -583 -69 -321 2 -393 25 -250 80 250 98 1015 87 833 -11z m-4433 -95 c-34 -55 -82 -100 -106 -100 -24 0 -44 45 -44 100 0 55 48 100 106 100 58 0 78 -45 44 -100z m5791 1 c-104 -104 -1146 -329 -1213 -262 -22 22 154 109 391 193 505 178 971 218 822 69z m-3213 -196 c43 -167 -9 -199 -364 -225 -317 -23 -414 -71 -415 -206 -1 -161 -619 -637 -710 -547 -73 73 614 758 961 957 443 256 466 256 528 21z m608 -354 c41 -108 -181 -267 -819 -587 -942 -472 -1517 -651 -1517 -472 0 59 66 108 147 108 204 0 1253 505 1253 603 0 44 -56 103 -125 131 -69 28 61 54 288 58 236 5 466 72 537 158 154 185 165 185 236 1z m-5236 -1851 c0 -55 -48 -100 -106 -100 -58 0 -78 45 -44 100 34 55 82 100 106 100 24 0 44 -45 44 -100z m-772 -512 c-62 -62 -93 -163 -69 -226 41 -106 -416 -350 -1109 -591 -602 -210 -1054 -566 -1117 -880 -40 -201 -94 -270 -160 -204 -65 65 -285 17 -648 -144 -591 -261 -772 -300 -677 -146 33 54 250 149 481 211 264 71 550 253 771 492 192 208 752 591 1244 851 491 259 955 534 1032 610 76 77 189 139 251 139 84 0 84 -29 1 -112z m-466 -1031 c-158 -129 -258 -283 -221 -342 39 -63 -142 -214 -434 -361 -275 -140 -657 -392 -850 -561 -265 -233 -390 -284 -518 -213 -138 77 -34 172 571 521 897 518 1002 598 936 705 -28 46 -214 -26 -413 -161 -198 -135 -411 -243 -472 -241 -136 4 448 495 591 496 55 0 258 87 450 194 493 275 714 253 360 -37z m381 -205 c-293 -221 -427 -174 -154 54 132 109 263 175 293 145 29 -29 -33 -119 -139 -199z m-3865 -1037 c29 -86 -19 -122 -133 -100 -98 19 -199 96 -223 170 -29 86 19 122 133 100 98 -19 199 -96 223 -170z m-934 -214 c-260 -167 -537 -261 -869 -294 -41 -4 -75 -91 -75 -194 0 -124 -94 -209 -275 -248 -151 -33 -383 -91 -516 -128 -481 -137 -96 167 774 611 905 461 1553 632 961 253z m1956 162 c0 -69 -818 -578 -984 -612 -91 -19 -245 -65 -341 -103 -103 -41 -175 -24 -175 41 0 61 56 113 125 115 69 3 373 134 675 292 535 280 700 343 700 267z m-3351 -365 c-35 -56 -105 -75 -156 -44 -139 86 -113 146 63 146 86 0 128 -46 93 -102z m3551 -27 c0 -132 -1097 -908 -1174 -830 -36 35 1071 959 1149 959 14 0 25 -58 25 -129z m-4300 -271 c0 -55 -124 -97 -275 -93 -244 6 -252 17 -75 93 273 117 350 117 350 0z m2331 -275 c-83 -234 -236 -425 -340 -425 -94 0 -13 281 137 475 142 184 275 152 203 -50z m-2431 -214 c0 -96 -243 -213 -433 -208 -64 2 -30 69 77 150 220 167 356 189 356 58z m1244 -158 c-107 -81 -232 -148 -279 -150 -47 -2 -239 -76 -428 -166 -189 -90 -370 -137 -401 -106 -32 32 116 136 328 233 745 338 1087 421 780 189z m-419 -1072 c-121 -121 -251 -188 -290 -149 -39 38 16 136 122 216 298 225 414 178 168 -67z m825 119 c-34 -55 -82 -100 -106 -100 -24 0 -44 45 -44 100 0 55 48 100 106 100 58 0 78 -45 44 -100z m-2050 -456 c0 -24 -45 -44 -100 -44 -55 0 -100 48 -100 106 0 58 45 78 100 44 55 -34 100 -82 100 -106z m300 -544 c0 -55 -45 -100 -100 -100 -55 0 -100 45 -100 100 0 55 45 100 100 100 55 0 100 -45 100 -100z"/>
<path d="M19675 29926 c-316 -20 -575 -80 -575 -133 0 -74 1148 -73 1600 2 28 4 -17 52 -100 105 -82 53 -195 89 -250 80 -55 -10 -359 -34 -675 -54z"/>
<path d="M9625 29788 c-184 -53 -325 -160 -325 -247 0 -136 24 -135 222 3 122 86 302 156 400 156 98 0 178 45 178 100 0 116 -36 115 -475 -12z"/>
<path d="M18350 29800 c-36 -58 64 -100 238 -100 165 0 328 45 362 100 36 58 -64 100 -238 100 -165 0 -328 -45 -362 -100z"/>
<path d="M3006 29606 c-79 -50 -454 -172 -833 -270 -441 -114 -725 -246 -789 -366 -148 -276 -50 -302 328 -85 186 106 642 291 1013 412 371 121 675 261 675 311 0 117 -207 116 -394 -2z"/>
<path d="M12200 29600 c0 -55 87 -100 194 -100 107 0 222 45 256 100 35 57 -49 100 -194 100 -141 0 -256 -45 -256 -100z"/>
<path d="M3925 29378 c-268 -129 -295 -279 -50 -275 216 4 546 243 457 332 -83 83 -131 76 -407 -57z"/>
<path d="M5300 29167 c-302 -126 -730 -342 -950 -481 -220 -139 -615 -335 -878 -434 -461 -175 -644 -313 -545 -412 67 -67 538 149 1123 513 705 440 1537 847 1733 849 92 0 235 45 317 98 295 191 -230 104 -800 -133z"/>
<path d="M10132 29267 c-353 -130 -530 -267 -345 -267 162 0 813 276 813 345 0 75 -97 59 -468 -78z"/>
<path d="M3225 28934 c-69 -28 -125 -92 -125 -142 0 -145 263 -107 400 58 100 121 98 148 -13 142 -75 -4 -193 -30 -262 -58z"/>
<path d="M149 28699 c-99 -110 -152 -230 -116 -266 73 -73 467 250 467 382 0 146 -162 93 -351 -116z"/>
<path d="M2025 28566 c-179 -52 -325 -156 -325 -230 0 -159 160 -181 250 -36 93 151 250 120 250 -50 0 -221 210 -177 550 114 l300 256 -318 -56 c-175 -31 -332 -22 -350 21 -18 42 -178 34 -357 -19z"/>
<path d="M4975 28570 c-264 -104 -376 -270 -182 -270 199 0 607 200 607 298 0 121 -59 117 -425 -28z"/>
<path d="M10169 28447 c-154 -136 -220 -247 -147 -247 173 0 578 284 578 406 0 152 -132 104 -431 -159z"/>
<path d="M3900 28044 c-1607 -828 -3318 -1536 -3725 -1542 -96 -1 -175 -75 -175 -163 0 -291 738 -58 2550 805 1457 693 1891 929 1931 1049 49 148 -60 120 -581 -149z"/>
<path d="M871 27928 c-272 -187 -409 -230 -487 -152 -133 133 -384 50 -384 -127 0 -78 75 -111 189 -81 104 27 218 2 253 -56 87 -139 536 57 833 365 124 128 225 253 225 278 0 113 -283 10 -629 -227z"/>
<path d="M10263 27887 c-264 -139 -354 -236 -284 -306 126 -126 721 197 721 391 0 156 31 162 -437 -85z"/>
<path d="M2200 27850 c-68 -82 -184 -150 -256 -150 -142 0 -294 -183 -217 -261 68 -67 773 362 773 471 0 139 -162 107 -300 -60z"/>
<path d="M4550 27400 c-34 -55 -14 -100 44 -100 58 0 106 45 106 100 0 55 -20 100 -44 100 -24 0 -72 -45 -106 -100z"/>
<path d="M7393 27365 c-479 -154 -893 -437 -893 -612 0 -78 -80 -200 -177 -272 -97 -72 -255 -255 -352 -406 -100 -156 -266 -275 -384 -275 -143 0 -191 -46 -151 -148 34 -91 -30 -195 -165 -267 -200 -107 -208 -102 -84 49 204 247 8 208 -759 -150 -673 -314 -926 -350 -2653 -379 -166 -3 -275 -60 -275 -144 0 -154 210 -261 514 -261 370 0 83 -188 -391 -256 -461 -67 -823 -275 -823 -473 0 -55 -79 -157 -175 -229 -143 -106 -154 -165 -57 -324 104 -170 77 -216 -225 -379 -189 -101 -343 -262 -343 -357 0 -159 28 -160 361 -21 198 83 390 122 425 86 94 -94 -377 -447 -597 -447 -107 0 -189 -70 -189 -161 0 -131 69 -149 375 -95 600 107 701 152 750 340 45 174 971 670 1689 905 221 72 386 200 418 323 38 144 14 189 -83 151 -319 -122 -973 -273 -1012 -233 -24 24 82 87 235 141 811 284 1299 448 1478 497 180 49 177 38 -25 -112 -124 -92 -225 -219 -225 -283 0 -63 -124 -214 -275 -335 -310 -248 -231 -452 97 -248 734 459 1065 603 1096 477 43 -175 2693 1249 2841 1527 60 113 186 290 281 395 186 206 108 325 -146 223 -369 -148 -1091 -673 -1182 -859 -54 -112 -102 -146 -105 -76 -5 87 -93 106 -282 61 -394 -94 -465 -151 -311 -249 95 -60 54 -86 -137 -87 -150 -1 -452 -74 -672 -161 -219 -88 -446 -144 -504 -125 -112 38 234 234 1023 580 261 115 691 336 955 492 265 156 659 345 876 420 332 114 358 142 164 172 -275 42 -243 231 62 369 121 54 219 133 219 175 0 120 -136 90 -384 -84 -126 -88 -253 -137 -282 -108 -29 29 137 178 369 332 231 153 371 295 310 315 -60 20 -234 -50 -387 -157 -152 -106 -332 -174 -401 -149 -69 24 -125 -5 -125 -65 0 -59 -56 -108 -123 -108 -68 0 45 169 252 375 344 344 420 375 923 370 451 -5 548 25 548 164 0 295 -307 348 -907 156z m-844 -1366 c-99 -110 -203 -179 -229 -152 -67 67 182 353 308 353 57 0 21 -90 -79 -201z m151 -237 c0 -21 -79 -99 -175 -175 -159 -124 -162 -121 -38 38 131 167 213 220 213 137z m-1000 -551 c0 -92 -237 -211 -420 -211 -63 0 -55 59 20 150 136 164 400 204 400 61z m-2650 -1111 c-34 -55 -107 -100 -162 -100 -55 0 -72 45 -38 100 34 55 107 100 162 100 55 0 72 -45 38 -100z m-1769 -494 c-67 -106 -159 -169 -206 -141 -95 59 101 335 238 335 49 0 34 -87 -32 -194z m619 -373 c-82 -28 -292 -114 -465 -192 -366 -164 -435 -173 -435 -55 0 99 556 292 850 296 133 1 150 -15 50 -49z"/>
<path d="M1157 27248 c-266 -202 -144 -281 177 -115 144 75 234 166 198 202 -93 93 -157 78 -375 -87z"/>
<path d="M3967 27233 c-93 -92 -84 -233 14 -233 44 0 168 66 275 147 191 144 190 147 -14 150 -115 2 -239 -27 -275 -64z"/>
<path d="M175 27004 c-248 -242 -217 -319 75 -186 250 114 316 232 175 313 -41 24 -154 -33 -250 -127z"/>
<path d="M5050 27100 c-34 -55 -17 -100 38 -100 55 0 128 45 162 100 34 55 17 100 -38 100 -55 0 -128 -45 -162 -100z"/>
<path d="M5325 26634 c-69 -28 -125 -116 -125 -196 0 -114 43 -122 200 -38 319 171 256 367 -75 234z"/>
<path d="M22750 26400 c34 -55 104 -100 156 -100 52 0 94 45 94 100 0 55 -70 100 -156 100 -86 0 -128 -45 -94 -100z"/>
<path d="M11060 26190 c-171 -135 -248 -272 -213 -382 34 -105 -42 -263 -196 -407 -469 -440 -236 -822 246 -404 125 108 311 224 415 257 103 33 188 127 188 209 0 105 -61 131 -200 87 -110 -35 -200 -22 -200 28 0 50 90 172 200 272 200 181 276 550 113 550 -47 0 -206 -95 -353 -210z"/>
<path d="M21300 26295 c0 -66 173 -85 467 -50 645 76 670 155 50 155 -294 0 -517 -45 -517 -105z"/>
<path d="M18800 26145 c-412 -73 -1357 -331 -2100 -575 -743 -244 -1496 -476 -1674 -515 -327 -71 -549 -255 -307 -254 72 0 304 48 515 107 211 58 436 86 500 62 163 -62 321 -34 292 53 -100 298 2789 1069 4102 1094 374 7 703 51 731 98 77 125 -1192 81 -2059 -70z"/>
<path d="M22400 25643 c0 -93 68 -144 167 -125 251 48 285 282 41 282 -123 0 -208 -65 -208 -157z"/>
<path d="M23125 25675 c23 -69 147 -125 275 -125 128 0 252 56 275 125 27 82 -66 125 -275 125 -209 0 -302 -43 -275 -125z"/>
<path d="M20350 25599 c-75 -120 170 -229 411 -182 95 18 191 89 214 158 51 152 -532 175 -625 24z"/>
<path d="M21400 25600 c0 -55 113 -100 250 -100 138 0 250 45 250 100 0 55 -112 100 -250 100 -137 0 -250 -45 -250 -100z"/>
<path d="M24050 25600 c34 -55 242 -100 462 -100 241 0 375 40 338 100 -34 55 -242 100 -462 100 -241 0 -375 -40 -338 -100z"/>
<path d="M19575 25530 c-185 -47 -231 -183 -92 -269 133 -83 528 55 490 170 -43 129 -165 159 -398 99z"/>
<path d="M18050 25287 c-456 -106 -1455 -440 -1900 -635 -165 -72 -615 -255 -1000 -406 -971 -381 -3501 -1654 -4249 -2138 -342 -220 -714 -430 -828 -467 -566 -179 -2174 -1396 -3361 -2541 -199 -192 -655 -597 -1012 -899 -358 -301 -923 -819 -1256 -1150 -999 -990 -2039 -1871 -2839 -2403 -415 -277 -945 -637 -1176 -800 -714 -505 -478 -561 305 -73 212 132 449 214 529 184 90 -35 178 35 236 188 51 134 248 325 437 423 190 99 757 540 1261 980 544 475 1005 800 1134 800 160 0 248 91 329 343 62 188 244 458 406 600 799 698 1259 1058 1366 1070 65 8 174 19 243 25 69 7 125 63 125 124 0 78 -46 74 -150 -12 -321 -267 -128 80 250 450 368 359 400 372 400 164 0 -125 -119 -383 -265 -574 -271 -357 -863 -836 -813 -659 15 54 -16 115 -71 134 -54 19 -115 -55 -135 -165 -50 -270 -310 -550 -512 -550 -91 0 -253 -66 -360 -147 -225 -170 -121 -201 163 -49 284 152 235 -45 -66 -265 -142 -104 -401 -315 -575 -468 -403 -356 -795 -646 -891 -660 -41 -6 -120 -11 -175 -11 -55 0 -100 -45 -100 -100 0 -55 -257 -348 -572 -650 -398 -383 -626 -532 -750 -493 -169 54 -222 -37 -188 -321 7 -62 -437 -413 -988 -780 -551 -367 -1002 -710 -1002 -763 0 -53 169 17 375 154 206 137 578 372 825 521 248 149 923 679 1500 1177 578 499 1410 1196 1850 1549 440 353 1079 924 1419 1269 341 344 757 697 925 784 168 87 306 192 306 232 0 181 937 1028 1328 1201 238 105 587 326 777 490 190 165 660 483 1045 708 385 224 819 501 965 614 145 113 708 446 1250 739 1137 616 1725 987 1731 1094 9 171 -404 57 -617 -169 -310 -332 -2073 -1208 -2359 -1174 -172 20 -223 -17 -200 -145 18 -107 -103 -261 -320 -403 -192 -127 -405 -277 -473 -335 -68 -57 -244 -74 -390 -37 -184 46 -245 33 -198 -44 88 -142 -590 -758 -1156 -1051 -238 -123 -533 -289 -656 -368 -160 -104 -252 -114 -331 -35 -79 79 52 245 472 598 319 268 644 548 722 622 199 187 868 605 1460 912 275 142 703 390 950 552 798 520 1611 868 1754 749 89 -74 148 -75 193 -2 36 58 14 105 -47 105 -243 0 30 186 871 592 968 469 961 466 2024 907 817 339 2374 801 2700 801 113 0 205 45 205 100 0 119 -302 114 -850 -13z"/>
<path d="M450 24628 c-299 -74 -450 -228 -450 -459 0 -205 2 -205 204 12 151 162 320 219 650 219 330 0 446 39 446 150 0 151 -401 188 -850 78z"/>
<path d="M13488 24500 c-376 -199 -593 -600 -324 -600 81 0 132 75 115 170 -20 119 95 216 389 326 230 87 452 190 492 231 147 147 -320 59 -672 -127z"/>
<path d="M17450 24351 c-220 -74 -722 -227 -1115 -342 -541 -158 -833 -316 -1200 -649 -267 -242 -455 -471 -419 -508 36 -37 251 99 476 302 298 270 683 462 1416 708 554 186 1184 366 1402 401 217 35 419 102 448 150 80 129 -550 90 -1008 -62z"/>
<path d="M14200 24306 c0 -58 45 -106 100 -106 55 0 100 20 100 44 0 24 -45 72 -100 106 -55 34 -100 14 -100 -44z"/>
<path d="M14913 23737 c-185 -81 -317 -167 -293 -190 64 -65 680 184 680 275 0 43 -11 74 -25 70 -14 -5 -176 -74 -362 -155z"/>
<path d="M18125 23797 c-345 -139 -273 -298 75 -166 165 62 300 148 300 191 0 97 -86 91 -375 -25z"/>
<path d="M20267 23833 c-127 -126 -66 -233 133 -233 111 0 200 67 200 150 0 152 -212 205 -333 83z"/>
<path d="M21269 23836 c-93 -93 20 -236 187 -236 79 0 144 68 144 150 0 151 -211 206 -331 86z"/>
<path d="M11200 23500 c0 -55 45 -100 100 -100 55 0 100 45 100 100 0 55 -45 100 -100 100 -55 0 -100 -45 -100 -100z"/>
<path d="M12050 23500 c-34 -55 6 -100 88 -100 83 0 178 45 212 100 34 55 -6 100 -88 100 -83 0 -178 -45 -212 -100z"/>
<path d="M17146 23393 c-36 -58 -42 -130 -13 -160 72 -71 267 55 267 173 0 128 -173 119 -254 -13z"/>
<path d="M19250 23400 c-34 -55 34 -100 150 -100 116 0 184 45 150 100 -34 55 -101 100 -150 100 -49 0 -116 -45 -150 -100z"/>
<path d="M23000 23431 c-892 -159 -3128 -829 -4470 -1339 -2705 -1029 -5487 -2541 -6630 -3603 -192 -179 -642 -572 -1000 -875 -357 -302 -1347 -1215 -2200 -2029 -1444 -1378 -2267 -2065 -2750 -2294 -110 -52 -425 -230 -700 -396 -275 -166 -567 -330 -650 -366 -82 -35 -172 -95 -200 -133 -27 -38 -410 -235 -850 -439 -440 -204 -957 -452 -1150 -552 -192 -100 -600 -233 -905 -296 -664 -137 -1495 -813 -1495 -1215 l0 -239 160 229 c147 211 169 215 284 57 88 -120 147 -137 197 -56 39 63 43 160 9 215 -34 55 -14 100 44 100 58 0 106 62 106 138 0 199 240 368 672 475 703 172 1074 183 2638 81 1455 -96 1614 -89 2350 107 1575 419 4005 1866 5184 3088 383 397 443 711 71 375 -102 -93 -254 -143 -338 -111 -86 34 -177 -8 -211 -97 -33 -86 -16 -156 37 -156 53 0 97 53 97 117 0 64 26 90 58 58 118 -117 -276 -554 -834 -924 -316 -209 -686 -457 -824 -550 -317 -215 -867 -501 -964 -501 -41 0 78 124 266 275 534 432 1481 1293 2298 2091 726 709 752 724 800 471 49 -253 60 -247 396 226 457 643 1026 1271 2274 2510 566 562 1030 1046 1030 1075 0 194 -351 -53 -1023 -721 -427 -425 -777 -726 -777 -668 0 57 135 233 300 391 165 158 300 337 300 397 0 199 1802 1558 2425 1829 397 173 340 101 -200 -255 -261 -172 -610 -425 -775 -563 -464 -388 -82 -315 552 105 953 630 2617 1406 3388 1580 407 91 834 216 948 277 471 252 2107 585 3187 649 l875 51 0 719 0 719 -875 9 c-481 4 -987 -12 -1125 -36z m1067 -297 c-76 -76 -769 -65 -848 13 -29 29 165 53 431 53 266 0 454 -30 417 -66z m-1117 -134 c-110 -47 -335 -88 -500 -91 -229 -5 -265 17 -150 91 83 53 308 94 500 91 286 -4 313 -21 150 -91z m1895 -194 c-52 -51 -586 -118 -1186 -149 -1233 -63 -1358 3 -250 131 1062 123 1549 129 1436 18z m-2845 -253 c0 -102 -591 -337 -1484 -591 -513 -145 -1188 -382 -1500 -526 -311 -144 -926 -431 -1366 -637 -657 -308 -806 -348 -836 -221 -35 153 342 517 536 518 55 1 34 -41 -47 -92 -81 -51 -119 -121 -85 -155 85 -86 1077 377 1080 503 1 56 553 275 1227 485 674 211 1405 444 1625 519 220 74 490 154 600 178 110 24 211 48 225 54 14 7 25 -9 25 -35z m1100 -375 c-302 -52 -1180 -293 -1950 -534 -770 -241 -1535 -466 -1700 -498 -286 -57 -291 -52 -106 97 107 86 258 157 337 157 171 0 979 257 1669 530 541 214 1266 345 1900 344 363 0 349 -9 -150 -96z m-5350 -978 c-34 -55 -82 -100 -106 -100 -24 0 -44 45 -44 100 0 55 48 100 106 100 58 0 78 -45 44 -100z m-1936 -776 c-582 -406 -479 -604 122 -233 306 189 464 190 464 2 0 -40 -259 -245 -575 -455 -316 -210 -777 -587 -1025 -838 -1228 -1245 -2199 -2304 -2569 -2800 -419 -563 -1022 -1187 -1156 -1195 -41 -3 -125 -5 -186 -5 -61 0 -88 -59 -60 -130 97 -253 -1681 -1929 -2329 -2194 -137 -56 -459 -209 -714 -339 -254 -130 -521 -237 -593 -237 -148 0 593 660 1050 934 169 102 512 384 763 628 324 315 525 435 697 415 171 -19 242 23 244 145 3 179 1300 1578 1464 1578 101 0 1589 1510 1589 1613 0 34 66 117 147 184 81 67 137 170 125 229 -12 59 87 164 220 233 229 120 489 441 356 441 -34 0 -263 -138 -508 -307 -245 -169 -523 -290 -618 -271 -139 29 -122 64 91 182 568 316 2394 1929 2295 2028 -102 102 -753 -398 -1756 -1348 -273 -260 -521 -437 -550 -395 -28 43 -142 129 -252 192 -110 62 -142 114 -71 116 71 2 184 48 250 104 67 56 269 225 450 377 181 152 541 387 800 522 259 135 494 274 521 310 71 92 1629 879 1750 884 55 2 -141 -164 -436 -370z m2336 176 c-34 -55 -82 -100 -106 -100 -24 0 -44 45 -44 100 0 55 48 100 106 100 58 0 78 -45 44 -100z m-350 -139 c0 -22 -67 -66 -150 -97 -82 -32 -150 -14 -150 39 0 53 68 97 150 97 83 0 150 -18 150 -39z m-5750 -3361 c-215 -220 -409 -400 -432 -400 -84 0 636 783 727 792 53 4 -80 -172 -295 -392z m-1058 -428 c-23 -16 -132 -95 -242 -175 -185 -136 -190 -134 -63 28 76 96 184 175 242 175 57 0 86 -13 63 -28z m-1196 -779 c-91 -170 -88 -236 11 -297 94 -58 42 -152 -189 -347 -355 -298 -404 -449 -145 -449 95 0 517 342 938 761 622 618 756 714 717 508 -27 -139 -156 -355 -288 -479 -132 -123 -240 -285 -240 -357 0 -73 -48 -133 -106 -133 -58 0 -340 -217 -625 -483 -604 -561 -1099 -907 -2255 -1575 -460 -266 -856 -535 -880 -599 -25 -63 -233 -174 -464 -247 -231 -72 -476 -174 -545 -226 -81 -62 -125 -56 -125 16 0 61 281 253 625 426 344 174 850 505 1125 735 275 231 804 617 1175 858 418 271 675 505 675 616 0 99 -24 179 -54 179 -52 0 -641 -395 -746 -500 -27 -27 -121 -95 -208 -150 -87 -55 -372 -257 -633 -450 -500 -368 -668 -423 -730 -238 -20 62 143 185 363 273 220 88 479 280 575 426 95 147 324 329 507 406 184 76 311 177 282 223 -28 45 252 401 621 789 640 672 874 791 619 314z m739 253 c-33 -85 -81 -133 -107 -107 -27 26 -18 96 18 154 98 160 156 129 89 -47z m-4585 -3646 c-34 -55 -82 -100 -106 -100 -24 0 -44 45 -44 100 0 55 48 100 106 100 58 0 78 -45 44 -100z m2373 -455 c-325 -228 -1331 -659 -1447 -620 -137 45 1226 756 1471 767 185 7 183 -2 -24 -147z m-3823 -87 c0 -88 -179 -180 -474 -243 -260 -55 -488 -86 -505 -69 -43 43 696 424 854 441 69 7 125 -51 125 -129z m1845 -251 c-52 -51 -230 -124 -395 -162 -288 -66 -292 -62 -100 90 213 169 661 234 495 72z m-1845 -162 c0 -85 -714 -364 -775 -303 -30 29 32 80 136 113 104 33 257 99 339 146 177 103 300 121 300 44z m-1100 -195 c0 -93 -94 -150 -250 -150 -262 0 -340 147 -125 234 238 96 375 65 375 -84z"/>
<path d="M14320 18980 c-189 -189 -140 -298 80 -180 110 59 200 150 200 204 0 132 -135 121 -280 -24z"/>
<path d="M9031 13259 c-405 -349 -247 -399 170 -54 192 159 295 291 230 292 -66 2 -246 -106 -400 -238z"/>
<path d="M8250 12800 c-34 -55 8 -100 94 -100 86 0 156 45 156 100 0 55 -42 100 -94 100 -52 0 -122 -45 -156 -100z"/>
<path d="M17900 22954 c-1131 -415 -3287 -1494 -3069 -1536 95 -18 610 179 1146 438 535 258 1378 626 1873 816 495 190 938 382 984 426 208 198 -152 143 -934 -144z"/>
<path d="M10369 23136 c-35 -35 -39 -103 -9 -152 64 -103 240 -14 240 122 0 107 -136 125 -231 30z"/>
<path d="M16500 23156 c0 -106 192 -150 249 -58 35 56 -7 102 -93 102 -86 0 -156 -20 -156 -44z"/>
<path d="M11211 22907 c-86 -53 -96 -105 -29 -146 57 -35 134 -16 171 44 92 149 19 201 -142 102z"/>
<path d="M15754 22865 c-125 -91 -148 -157 -71 -204 131 -81 517 100 517 243 0 138 -231 118 -446 -39z"/>
<path d="M14954 22465 c-125 -91 -148 -157 -71 -204 131 -81 517 100 517 243 0 138 -231 118 -446 -39z"/>
<path d="M1621 22343 c-124 -86 -200 -196 -170 -244 58 -94 647 202 648 326 1 126 -242 84 -478 -82z"/>
<path d="M9600 22400 c0 -55 45 -100 100 -100 55 0 100 45 100 100 0 55 -45 100 -100 100 -55 0 -100 -45 -100 -100z"/>
<path d="M11827 22240 c33 -34 120 -37 192 -8 80 32 56 55 -61 60 -105 4 -164 -19 -131 -52z"/>
<path d="M1900 22016 c-438 -200 -445 -204 -379 -270 70 -71 879 180 879 272 0 152 -166 151 -500 -2z"/>
<path d="M14000 21987 c-193 -117 -517 -362 -721 -546 -205 -184 -590 -445 -857 -580 -266 -135 -543 -316 -616 -403 -72 -87 -170 -158 -219 -158 -49 0 -415 -238 -813 -529 -835 -611 -1706 -1171 -1820 -1171 -43 0 -582 -461 -1196 -1025 -615 -564 -1605 -1430 -2200 -1925 -594 -495 -1244 -1053 -1444 -1239 -533 -498 -2109 -1682 -3047 -2291 -922 -598 -1106 -756 -1054 -904 70 -198 2834 1723 4287 2981 248 214 610 516 806 671 611 485 1803 1547 2742 2444 496 474 1375 1169 1952 1543 578 375 1305 876 1617 1113 312 238 598 432 636 432 200 0 1133 558 1411 844 177 182 527 431 779 552 251 122 457 263 457 313 0 157 -336 99 -700 -122z"/>
<path d="M9000 21900 c0 -55 42 -100 94 -100 52 0 122 45 156 100 34 55 -8 100 -94 100 -86 0 -156 -45 -156 -100z"/>
<path d="M10400 21300 c0 -55 45 -100 100 -100 55 0 100 45 100 100 0 55 -45 100 -100 100 -55 0 -100 -45 -100 -100z"/>
<path d="M13875 21131 c-156 -41 -260 -331 -118 -331 130 0 443 214 443 304 0 100 -35 103 -325 27z"/>
<path d="M22575 20631 c-332 -87 -187 -250 150 -169 179 42 471 68 650 58 179 -11 325 25 325 80 0 99 -784 120 -1125 31z"/>
<path d="M5702 20452 c-79 -95 -86 -152 -20 -152 121 0 262 190 192 259 -25 25 -102 -23 -172 -107z"/>
<path d="M20400 20212 c-302 -98 -701 -257 -886 -353 -448 -234 -1214 -947 -1214 -1130 0 -222 226 -101 450 240 243 371 1669 1082 2375 1185 261 38 475 109 475 157 0 143 -605 93 -1200 -99z"/>
<path d="M8400 20156 c0 -106 192 -150 249 -58 35 56 -7 102 -93 102 -86 0 -156 -20 -156 -44z"/>
<path d="M23050 20100 c-34 -55 8 -100 94 -100 86 0 156 45 156 100 0 55 -42 100 -94 100 -52 0 -122 -45 -156 -100z"/>
<path d="M4797 19946 c-169 -203 -90 -261 134 -97 100 72 138 158 86 190 -52 32 -151 -9 -220 -93z"/>
<path d="M22300 20056 c0 -24 45 -72 100 -106 55 -34 100 -14 100 44 0 58 -45 106 -100 106 -55 0 -100 -20 -100 -44z"/>
<path d="M20300 19500 c0 -55 45 -100 100 -100 55 0 100 45 100 100 0 55 -45 100 -100 100 -55 0 -100 -45 -100 -100z"/>
<path d="M19446 19193 c-36 -58 -45 -127 -20 -152 69 -70 374 68 374 170 0 125 -274 111 -354 -18z"/>
<path d="M23000 19200 c0 -55 87 -100 194 -100 107 0 222 45 256 100 35 57 -49 100 -194 100 -141 0 -256 -45 -256 -100z"/>
<path d="M23750 18959 c-3027 -1022 -4437 -1775 -6654 -3554 -337 -271 -674 -469 -748 -440 -81 31 -232 -103 -378 -333 -278 -440 -650 -796 -548 -524 166 445 791 1281 921 1231 154 -59 847 754 1154 1354 100 196 277 443 392 547 336 304 245 368 -191 135 -303 -161 -465 -348 -657 -754 -261 -550 -432 -673 -242 -173 143 376 781 1171 1173 1463 301 223 434 489 245 489 -271 0 -1510 -1472 -1598 -1900 -57 -275 -659 -1200 -991 -1522 -404 -391 -427 -213 -42 319 158 218 404 634 547 926 142 292 342 620 443 729 101 109 286 378 412 598 125 220 454 580 731 800 372 295 459 409 332 434 -384 77 -1692 -1386 -2444 -2735 -184 -329 -471 -846 -639 -1149 -739 -1334 -2271 -3000 -3281 -3570 -492 -278 -1379 -1166 -1803 -1807 -91 -138 -564 -610 -1050 -1049 -1371 -1238 -3683 -2793 -5534 -3722 -412 -207 -933 -508 -1156 -668 -357 -255 -691 -418 -1869 -913 -151 -63 -275 -172 -275 -243 0 -143 358 -176 442 -41 120 194 1121 604 1336 548 163 -43 222 -15 222 106 0 90 108 205 240 255 132 51 270 139 306 197 36 58 591 368 1234 689 644 321 1350 696 1570 833 220 137 479 279 575 314 96 36 175 110 175 164 0 55 394 357 875 670 1392 907 2455 1865 3960 3569 513 581 730 761 867 717 124 -39 201 4 244 138 34 108 319 408 633 667 314 259 1008 927 1543 1484 626 652 973 949 975 835 2 -99 -871 -1058 -1972 -2168 -1086 -1096 -2357 -2405 -2825 -2911 -1324 -1433 -2501 -2390 -4500 -3660 -2487 -1579 -5371 -3016 -5758 -2867 -95 36 -142 -16 -142 -156 0 -249 50 -255 565 -73 1188 419 5705 2885 5818 3177 19 47 92 85 163 85 72 0 501 281 955 625 454 344 898 670 987 725 89 55 185 123 212 150 28 28 499 478 1048 1000 549 523 1252 1243 1563 1600 1850 2131 4945 4974 6989 6421 1376 973 1865 1268 2711 1633 461 199 997 433 1189 521 449 204 1985 694 2445 781 204 38 355 125 355 205 0 198 -128 177 -1250 -202z"/>
<path d="M21475 18992 c-281 -164 -202 -299 100 -171 151 64 318 153 370 198 138 117 -261 94 -470 -27z"/>
<path d="M18757 18567 c-335 -438 -356 -897 -25 -540 65 70 133 194 151 275 18 82 100 222 181 313 92 102 111 189 49 227 -55 34 -215 -90 -356 -275z"/>
<path d="M22169 18836 c-35 -35 -41 -101 -13 -146 62 -100 344 -2 344 121 0 102 -235 120 -331 25z"/>
<path d="M19900 18515 c-309 -202 -448 -371 -655 -798 -238 -490 -117 -486 204 6 152 235 395 524 539 643 321 265 256 374 -88 149z"/>
<path d="M20609 18506 c-130 -97 -195 -203 -145 -234 50 -31 198 24 327 122 130 97 195 203 145 234 -50 31 -198 -24 -327 -122z"/>
<path d="M19864 17797 c-96 -163 -135 -297 -87 -297 106 0 377 479 310 547 -26 26 -126 -87 -223 -250z"/>
<path d="M21967 17933 c-93 -92 -84 -233 14 -233 44 0 168 66 275 147 191 144 190 147 -14 150 -115 2 -239 -27 -275 -64z"/>
<path d="M24400 17807 c-247 -95 -643 -273 -878 -394 -236 -121 -469 -196 -518 -166 -141 88 -553 -140 -658 -364 -53 -113 -478 -406 -946 -651 -739 -388 -1029 -582 -1800 -1199 -82 -67 -420 -335 -750 -598 -1514 -1203 -3346 -3080 -4525 -4635 -1363 -1797 -3127 -3728 -3852 -4214 -217 -146 -581 -428 -809 -627 -586 -512 -1589 -1221 -2196 -1552 -285 -156 -810 -450 -1168 -655 -797 -454 -2598 -1352 -3175 -1581 -234 -93 -425 -220 -425 -281 0 -61 65 -87 144 -56 79 30 315 104 525 163 209 60 876 376 1481 703 605 327 1346 712 1647 856 300 144 1059 606 1686 1028 627 421 1244 823 1371 893 128 70 336 250 464 401 128 151 502 482 832 736 592 456 1296 1163 2125 2134 499 585 561 524 108 -106 -174 -243 -292 -466 -262 -496 96 -97 878 924 1242 1623 196 374 390 703 432 731 42 27 152 196 244 375 91 179 204 325 251 325 87 0 -458 -1053 -1026 -1982 -398 -651 -1162 -1434 -2189 -2244 -426 -336 -775 -666 -775 -734 0 -166 -667 -729 -1675 -1415 -759 -516 -970 -725 -733 -725 51 0 226 113 390 250 330 278 512 334 316 98 -70 -84 -103 -177 -74 -206 29 -29 138 55 241 187 104 132 289 293 412 359 123 65 223 175 223 242 0 68 107 190 239 272 405 251 1072 900 1017 989 -29 46 258 315 637 597 380 282 919 747 1199 1032 279 286 508 461 508 389 0 -71 -337 -465 -750 -875 -412 -410 -750 -782 -750 -826 0 -45 -176 -198 -391 -340 -537 -356 -869 -704 -1066 -1118 -91 -192 -222 -350 -292 -350 -69 0 -323 -180 -563 -400 -241 -220 -495 -400 -564 -400 -70 0 -220 -192 -334 -427 -231 -475 -638 -741 -857 -559 -97 81 -133 80 -133 -2 0 -61 48 -112 106 -112 119 0 -1315 -1448 -1706 -1723 -239 -168 -240 -176 -37 -176 117 -1 269 67 337 149 68 83 203 150 300 150 111 0 195 101 230 275 39 192 224 388 616 651 468 315 535 338 407 142 -85 -129 -124 -264 -87 -301 37 -37 -23 -67 -133 -67 -118 0 -249 -105 -316 -253 -63 -139 -183 -279 -266 -310 -82 -32 -123 -102 -90 -155 34 -54 166 2 300 128 131 124 239 191 239 150 0 -98 -202 -295 -450 -438 -170 -99 -121 -116 326 -119 405 -2 565 43 697 197 224 261 358 255 273 -12 -50 -157 -32 -196 69 -150 74 34 208 88 297 120 123 45 174 234 209 782 71 1108 578 1930 1301 2112 159 40 288 7 373 -96 174 -210 367 -196 715 51 255 182 290 268 290 715 0 469 33 539 418 895 442 408 1113 674 1890 751 572 56 1477 -318 1998 -824 363 -354 824 -544 1322 -544 428 0 1238 450 1297 720 27 127 82 309 123 405 52 124 27 175 -86 175 -88 0 -223 -152 -300 -338 -223 -533 -999 -810 -1605 -572 -212 83 -143 150 248 243 333 79 959 709 1044 1050 37 147 130 338 208 424 126 140 367 1093 322 1273 -66 266 190 2050 419 2920 317 1198 656 2009 1155 2761 191 288 347 594 347 681 0 87 40 158 88 158 49 0 263 172 475 382 213 209 761 711 1218 1115 501 444 786 762 719 803 -135 83 90 233 1025 686 371 179 675 390 675 468 0 103 -207 47 -772 -211 -424 -193 -844 -417 -933 -497 -88 -80 -198 -146 -243 -146 -45 0 -266 -148 -492 -329 -384 -308 -616 -477 -1924 -1396 -282 -198 -661 -375 -842 -393 -181 -18 -349 -95 -375 -173 -31 -95 5 -121 111 -80 87 33 -247 -354 -742 -859 -494 -506 -995 -1089 -1112 -1295 -117 -206 -270 -375 -340 -375 -69 0 -266 -202 -436 -450 -170 -247 -349 -450 -398 -450 -122 0 -647 -780 -1248 -1858 -367 -656 -538 -878 -617 -800 -80 78 -52 181 101 373 117 146 347 498 512 782 500 860 2090 2919 2695 3491 384 362 537 570 469 638 -105 105 -1157 -896 -1964 -1868 -256 -308 -463 -469 -572 -445 -220 47 1033 1384 2522 2691 1313 1153 1461 1253 1633 1110 96 -79 164 -77 249 8 188 188 137 297 -107 230 -373 -103 256 380 967 742 335 170 991 535 1458 810 468 276 1199 644 1625 818 426 175 775 376 775 448 0 159 -35 155 -600 -63z m-1400 -1757 c-68 -82 -169 -150 -224 -150 -56 0 -45 66 24 150 68 82 169 150 224 150 56 0 45 -66 -24 -150z m-917 -740 c-191 -239 -983 -687 -983 -557 0 64 1045 844 1133 845 45 1 -22 -129 -150 -288z m-833 -810 c-34 -55 -107 -100 -162 -100 -55 0 -72 45 -38 100 34 55 107 100 162 100 55 0 72 -45 38 -100z m-523 -225 c24 -69 -40 -232 -142 -363 -102 -132 -185 -298 -185 -371 0 -73 -117 -303 -259 -512 -288 -421 -773 -1445 -872 -1838 -35 -140 -219 -415 -410 -611 -221 -228 -369 -495 -410 -743 -100 -600 -248 -913 -457 -968 -238 -62 -253 161 -43 663 221 529 -10 575 -249 50 -107 -238 -197 -492 -198 -565 -1 -74 -58 -113 -127 -88 -69 25 -108 108 -87 184 20 75 49 233 64 350 15 116 81 312 146 433 134 250 29 436 -115 204 -503 -810 -585 -922 -531 -725 45 164 19 225 -95 225 -86 0 -157 -52 -157 -117 0 -64 -28 -89 -61 -55 -150 150 1577 2695 2471 3641 546 578 826 796 590 458 -488 -697 -1164 -1689 -1250 -1834 -55 -93 -158 -264 -229 -381 -184 -305 38 -267 240 41 91 139 187 232 213 207 25 -26 -26 -150 -114 -276 -183 -261 -203 -384 -63 -384 170 0 406 557 287 676 -123 123 -16 356 124 269 124 -77 283 93 707 755 193 303 427 612 518 687 179 147 234 366 67 263 -55 -34 -100 -16 -100 39 0 56 78 145 174 199 96 53 141 130 100 171 -77 77 198 441 333 441 42 0 96 -56 120 -125z m-5098 -3900 c-113 -124 -278 -368 -367 -544 -88 -175 -214 -352 -280 -392 -66 -41 -14 102 116 318 403 668 621 957 680 898 31 -31 -36 -157 -149 -280z m3331 -335 c-36 -93 -87 -146 -115 -119 -27 28 -21 126 15 219 36 93 87 146 115 119 27 -28 21 -126 -15 -219z m-251 -1071 c-79 -79 -109 -53 -109 94 0 265 140 405 184 185 19 -93 -14 -218 -75 -279z m-3172 -644 c-232 -528 -703 -1092 -817 -978 -26 26 97 240 273 475 177 235 408 574 513 753 295 502 310 386 31 -250z m33 -1011 c-191 -310 -499 -664 -684 -787 -673 -447 -739 -619 -279 -730 l243 -58 -250 -68 c-400 -109 -450 -87 -450 204 0 212 153 413 664 875 487 440 714 732 850 1093 146 389 193 445 219 265 20 -134 -111 -465 -313 -794z m-1382 -137 c-131 -245 -216 -222 -134 35 40 128 18 243 -56 289 -69 43 -90 132 -47 201 125 202 353 -307 237 -525z m2706 348 c-3 -151 -94 -478 -202 -725 -189 -433 -194 -436 -139 -100 32 193 83 519 113 725 63 433 237 509 228 100z m-2344 75 c-34 -55 -82 -100 -106 -100 -24 0 -44 45 -44 100 0 55 48 100 106 100 58 0 78 -45 44 -100z m1602 -494 c-37 -115 -110 -182 -164 -149 -53 33 -162 6 -242 -61 -90 -74 -146 -81 -146 -17 0 109 524 530 584 470 19 -18 4 -128 -32 -243z m-1906 -468 c-211 -256 -532 -554 -714 -662 -183 -108 -332 -260 -332 -338 0 -79 -115 -187 -257 -240 -633 -241 -591 -16 82 434 289 193 747 579 1019 858 272 278 514 485 539 460 25 -25 -127 -255 -337 -512z m4235 37 c-128 -384 -281 -583 -281 -365 0 194 229 688 320 689 38 1 21 -145 -39 -324z m-5038 -285 c-161 -169 -383 -354 -493 -411 -110 -56 0 104 244 357 244 253 466 438 492 411 27 -27 -82 -187 -243 -357z m4455 185 c-3 -152 -370 -975 -435 -975 -98 0 19 808 137 950 151 183 301 195 298 25z m-798 -217 c0 -198 -487 -758 -659 -758 -78 0 -141 45 -141 100 0 55 44 100 97 100 126 0 415 555 332 637 -34 35 35 63 154 63 121 0 217 -63 217 -142z m-1556 -464 c-157 -174 -164 -220 -43 -295 213 -131 84 -189 -191 -85 l-240 91 232 247 c279 298 510 337 242 42z m656 149 c0 -32 -68 -125 -150 -207 -163 -163 -183 -139 -89 106 57 148 239 225 239 101z m700 -643 c0 -55 -48 -100 -106 -100 -58 0 -78 45 -44 100 34 55 82 100 106 100 24 0 44 -45 44 -100z m-5090 -790 c-434 -442 -510 -483 -510 -275 0 152 294 441 626 614 346 181 321 107 -116 -339z m-450 -1070 c-44 -116 -100 -140 -167 -73 -55 55 -70 178 -33 273 44 116 100 140 167 73 55 -55 70 -178 33 -273z m-454 17 c-119 -143 -1348 -857 -1475 -857 -34 0 19 90 119 200 100 110 242 200 315 200 74 0 135 43 135 95 0 99 919 603 989 543 22 -18 -16 -100 -83 -181z m-1561 -1482 c-37 -124 -114 -270 -171 -325 -71 -68 -83 -42 -39 83 36 101 65 247 65 325 0 78 48 142 107 142 64 0 79 -90 38 -225z m-647 -980 c-67 -162 -155 -295 -194 -295 -130 0 -38 617 105 706 197 123 236 -57 89 -411z m-298 -480 c0 -46 -90 -165 -200 -265 -227 -205 -259 -142 -76 151 127 204 276 265 276 114z"/>
<path d="M17635 10646 c-33 -85 -35 -180 -4 -210 88 -88 269 61 269 220 0 192 -191 184 -265 -10z"/>
<path d="M18100 10444 c0 -86 45 -128 100 -94 55 34 100 104 100 156 0 52 -45 94 -100 94 -55 0 -100 -70 -100 -156z"/>
<path d="M22325 17678 c-124 -60 -225 -147 -225 -193 0 -117 175 -107 250 15 34 55 146 100 250 100 104 0 216 45 250 100 80 130 -237 117 -525 -22z"/>
<path d="M18546 17193 c-108 -174 15 -211 152 -45 79 95 86 152 20 152 -58 0 -136 -48 -172 -107z"/>
<path d="M17798 16348 c-193 -233 -55 -277 151 -49 100 111 136 201 79 201 -57 0 -160 -69 -230 -152z"/>
<path d="M23725 16097 c-124 -50 -225 -137 -225 -194 0 -152 119 -123 400 97 265 208 196 246 -175 97z"/>
<path d="M24636 15576 c-555 -632 -1236 -1753 -1236 -2035 0 -43 -96 -180 -213 -305 -121 -129 -226 -391 -243 -606 -17 -209 -96 -560 -176 -780 -216 -595 -298 -1050 -188 -1050 94 0 159 142 525 1150 476 1311 824 2150 961 2317 136 166 145 167 95 8 -83 -266 76 -209 313 112 148 200 181 318 108 391 -73 73 -23 212 165 459 148 194 255 431 236 525 -26 136 -98 97 -347 -186z"/>
<path d="M20866 15355 c-37 -97 -8 -126 89 -89 80 30 145 96 145 145 0 143 -174 102 -234 -56z"/>
<path d="M13100 14650 c-101 -122 -96 -150 26 -150 82 0 206 68 274 150 101 122 96 150 -26 150 -82 0 -206 -68 -274 -150z"/>
<path d="M12446 13993 c-36 -58 -42 -130 -13 -160 72 -71 267 55 267 173 0 128 -173 119 -254 -13z"/>
<path d="M21300 13750 c-71 -85 -106 -177 -79 -205 28 -27 108 20 179 105 71 85 106 177 79 205 -28 27 -108 -20 -179 -105z"/>
<path d="M24057 13472 c-138 -236 -315 -612 -395 -837 -79 -225 -189 -493 -243 -597 -55 -103 -156 -379 -225 -613 -223 -754 -424 -989 -900 -1053 -557 -75 -1195 -526 -1435 -1016 -223 -453 -368 -1696 -239 -2048 85 -233 350 -498 505 -505 41 -2 75 110 75 247 0 156 -57 250 -150 250 -82 0 -150 45 -150 100 0 55 57 100 128 100 70 0 216 191 325 425 203 438 387 537 805 432 223 -56 242 -109 242 -674 0 -468 -64 -739 -271 -1148 -292 -576 -501 -711 -831 -534 -167 89 -284 74 -569 -74 -294 -152 -384 -277 -496 -682 -239 -861 -267 -1239 -125 -1668 132 -400 128 -416 -138 -619 -151 -114 -528 -298 -838 -408 -543 -193 -853 -462 -703 -612 39 -40 181 31 315 156 133 126 392 243 574 261 183 18 332 38 332 45 0 6 171 25 381 41 210 16 502 120 650 232 239 181 266 260 238 706 -18 280 15 530 75 567 58 36 106 -6 106 -94 0 -88 85 -252 190 -364 513 -551 184 -1466 -803 -2232 -417 -323 -575 -502 -491 -554 227 -140 -305 -402 -815 -402 -403 0 -465 25 -411 167 48 125 24 152 -96 106 -354 -136 -1374 -200 -1374 -86 0 151 -628 145 -780 -7 -93 -93 -148 -92 -244 4 -99 99 -94 144 25 222 126 83 113 128 -87 296 -337 283 -19 259 342 -25 201 -158 402 -218 689 -205 713 32 995 37 1474 26 523 -11 990 189 1225 524 196 279 197 378 6 378 -85 0 -150 -89 -150 -205 0 -299 -555 -493 -1420 -497 -402 -2 -853 -9 -1004 -15 -152 -7 -451 111 -674 266 -333 230 -471 268 -816 222 -596 -80 -836 -360 -836 -974 l0 -497 337 0 c293 0 329 27 281 211 -69 264 97 722 232 639 66 -41 67 -125 4 -242 -74 -138 -43 -231 131 -394 284 -266 472 -271 690 -16 139 162 218 181 429 100 143 -54 402 -104 578 -112 303 -14 299 -18 -82 -92 -257 -49 28 -68 800 -51 1192 26 1205 29 1883 417 376 214 792 448 924 520 132 71 364 296 517 500 152 203 360 460 463 570 247 265 558 943 561 1225 1 124 47 225 102 225 55 0 101 79 102 175 1 150 15 153 98 25 440 -680 -786 -2624 -2150 -3410 -353 -204 -438 -288 -288 -289 116 -1 325 89 465 199 140 110 280 200 311 200 31 0 339 282 684 627 417 416 756 882 1011 1390 345 689 374 805 297 1196 -74 376 -122 436 -358 454 -229 18 -272 -18 -272 -229 0 -163 -40 -225 -115 -179 -64 40 -176 -11 -250 -113 -124 -170 -135 -161 -131 110 3 229 96 360 425 594 627 446 771 488 773 222 2 -220 4 -220 198 28 l196 250 2 -331 c1 -182 -38 -306 -88 -275 -49 30 -116 -16 -150 -103 -95 -247 -70 -641 40 -641 188 0 100 -319 -318 -1163 -421 -850 -1201 -1737 -1528 -1737 -98 0 -154 -91 -154 -250 0 -226 39 -250 412 -250 409 0 699 175 1363 826 388 379 245 91 -188 -378 l-412 -448 294 0 c399 0 796 449 1512 1712 301 530 319 621 319 1575 0 679 -37 1013 -112 1013 -66 0 -91 -105 -62 -258 30 -159 -1 -277 -81 -308 -72 -27 -184 -193 -248 -367 -150 -406 -247 -176 -109 257 58 179 135 787 173 1351 70 1067 238 1415 241 500 0 -289 40 -586 87 -660 48 -77 80 1586 73 3816 -6 2174 -24 3940 -39 3925 -15 -15 -94 -405 -175 -866 -96 -546 -148 -1513 -148 -2765 0 -1814 -95 -2423 -238 -1528 -40 249 -138 436 -263 503 -109 59 -203 94 -209 79 -5 -16 -28 -228 -49 -471 -22 -242 -108 -516 -191 -607 -82 -92 -150 -239 -150 -328 0 -88 -119 -530 -265 -982 -271 -839 -708 -1482 -919 -1351 -175 108 -140 230 83 289 110 29 225 135 255 237 31 101 144 350 251 554 107 203 195 417 195 475 0 207 -198 100 -347 -189 -121 -234 -229 -300 -527 -325 -436 -36 -505 -216 -101 -263 151 -17 275 -73 275 -125 0 -112 -17 -116 -655 -141 -278 -11 -626 -51 -775 -88 -148 -37 -270 -27 -270 22 0 163 295 337 463 273 211 -81 558 26 483 148 -32 51 -179 95 -327 98 -231 4 -213 23 131 139 220 74 520 161 666 195 342 78 976 693 1262 1225 287 533 379 1211 227 1671 -101 307 -93 405 58 660 240 407 98 504 -214 146 -139 -160 -319 -362 -401 -449 -81 -88 -147 -223 -145 -300 3 -106 38 -97 138 35 126 167 138 164 195 -50 98 -362 74 -1019 -50 -1387 -167 -497 -793 -1290 -1018 -1290 -175 0 -169 30 70 343 144 189 262 390 262 447 0 57 68 78 150 46 83 -31 150 -11 150 46 0 57 73 177 162 266 89 89 139 184 112 212 -28 27 -123 -23 -212 -112 -149 -150 -162 -127 -162 289 0 248 37 474 82 502 46 28 79 -25 75 -119 -15 -359 195 -251 225 116 23 284 -3 373 -100 341 -73 -25 -202 71 -288 211 -149 245 -144 267 125 493 155 130 281 289 281 353 1 64 161 291 357 504 230 251 322 423 260 485 -92 92 -220 -8 -596 -466 -71 -86 -268 -157 -437 -157 -263 0 -290 22 -184 150 102 123 94 150 -47 150 -95 0 -194 -84 -221 -188 -27 -103 -155 -244 -285 -314 -296 -158 -376 -357 -243 -605 80 -149 70 -193 -41 -193 -79 0 -281 -169 -450 -375 -275 -336 -307 -352 -310 -150 -1 124 44 225 101 225 57 0 189 201 295 447 105 246 376 648 603 893 324 352 476 444 721 437 225 -6 379 72 562 282 138 160 281 282 319 271 37 -11 127 160 199 380 189 571 341 617 267 80 -70 -506 132 -2790 247 -2790 42 0 60 669 40 1486 -20 817 3 1548 52 1625 68 107 89 93 91 -61 3 -166 20 -174 100 -50 127 197 127 429 0 350 -189 -117 -47 429 388 1492 193 470 68 666 -132 208 -96 -220 -258 -592 -360 -827 -103 -234 -239 -414 -303 -400 -64 15 -131 -62 -149 -171 -18 -109 -81 -214 -139 -234 -58 -19 -105 -117 -105 -218 0 -252 -103 -500 -208 -500 -150 0 11 617 384 1479 227 523 405 811 483 781 157 -60 244 157 172 430 -81 311 -194 259 -474 -218z m-2554 -3866 c-107 -201 -303 -366 -303 -255 0 137 213 449 307 449 65 0 64 -68 -4 -194z m1297 -402 c0 -164 -337 -288 -628 -233 -221 43 -254 81 -162 191 129 156 790 190 790 42z m1122 -3229 c-23 -261 -89 -475 -146 -475 -65 0 -80 170 -40 464 35 255 67 559 70 675 7 205 9 206 83 11 41 -110 57 -414 33 -675z m-2978 -665 c30 -49 -19 -117 -109 -152 -195 -75 -281 -13 -189 135 80 130 223 139 298 17z m2595 -68 c96 -250 72 -342 -89 -342 -93 0 -150 94 -150 250 0 279 146 335 239 92z m-1763 -920 c28 -84 -101 -122 -418 -122 -428 0 -616 128 -333 227 238 83 710 17 751 -105z m-1276 -322 c0 -55 -48 -100 -106 -100 -58 0 -78 45 -44 100 34 55 82 100 106 100 24 0 44 -45 44 -100z m1505 -264 c219 -574 -161 -2079 -555 -2198 -110 -33 -335 -185 -500 -337 -165 -152 -412 -330 -550 -396 -137 -65 51 166 419 513 809 765 1021 1154 954 1750 -27 239 -9 460 39 489 167 104 87 241 -126 217 -118 -13 -234 32 -258 101 -28 79 51 125 216 125 190 0 288 -72 361 -264z m2634 -844 c-214 -721 -413 -1092 -587 -1092 -78 0 -281 -201 -450 -447 -277 -403 -692 -781 -1102 -1005 -171 -94 61 203 600 769 899 943 1098 1204 1354 1775 152 337 291 596 310 577 20 -19 -37 -279 -125 -577z m-3903 58 c-53 -138 -632 -387 -712 -307 -105 105 110 260 284 204 108 -34 192 -13 192 46 0 59 -51 107 -112 107 -77 0 -73 47 13 151 150 181 419 18 335 -201z m1558 -387 c-95 -87 -109 -71 -59 70 36 101 71 258 79 350 7 92 33 61 58 -70 25 -130 -10 -287 -78 -350z m-6716 -1672 c-174 -237 -236 -271 -261 -145 -41 199 155 454 348 454 102 0 79 -85 -87 -309z"/>
<path d="M10503 13704 c-81 -51 -114 -127 -73 -168 41 -41 151 2 244 95 181 181 72 227 -171 73z"/>
<path d="M500 13450 c-135 -163 -103 -183 142 -89 87 33 158 101 158 150 0 138 -162 105 -300 -61z"/>
<path d="M16475 13416 c-151 -91 -275 -225 -275 -297 0 -97 77 -85 300 47 165 97 300 235 300 306 0 70 -11 124 -25 119 -14 -5 -149 -84 -300 -175z"/>
<path d="M1900 13285 c-137 -114 -337 -269 -444 -344 -107 -75 -165 -165 -130 -201 36 -35 298 121 583 348 284 227 455 411 379 409 -76 -2 -250 -97 -388 -212z"/>
<path d="M3898 13348 c-206 -249 -12 -306 227 -67 176 176 188 219 59 219 -88 0 -216 -69 -286 -152z"/>
<path d="M11625 13434 c-138 -56 -172 -234 -44 -234 44 0 168 66 275 147 145 109 156 145 44 142 -82 -3 -206 -27 -275 -55z"/>
<path d="M21903 13353 c-67 -80 -104 -199 -83 -263 22 -65 117 1 212 146 181 277 80 369 -129 117z"/>
<path d="M4621 13186 c-181 -116 -305 -235 -276 -264 72 -73 855 287 855 393 0 144 -235 92 -579 -129z"/>
<path d="M12790 13038 c-116 -139 -108 -156 55 -125 104 21 207 93 230 162 59 178 -126 155 -285 -37z"/>
<path d="M11789 12911 c-131 -107 -204 -229 -161 -272 43 -43 175 20 294 139 282 281 178 385 -133 133z"/>
<path d="M10746 12793 c-117 -189 54 -236 228 -62 156 156 156 169 3 169 -91 0 -195 -48 -231 -107z"/>
<path d="M12273 12691 c-98 -57 -154 -141 -125 -188 80 -129 452 2 452 159 0 163 -85 170 -327 29z"/>
<path d="M15651 12601 c-100 -111 -136 -201 -79 -201 126 0 375 286 308 353 -26 27 -130 -42 -229 -152z"/>
<path d="M22362 12354 c-89 -136 -162 -285 -162 -331 0 -46 -157 -236 -350 -423 -380 -369 -433 -500 -200 -500 83 0 150 47 150 105 0 57 105 209 234 338 258 258 685 1057 565 1057 -42 0 -149 -111 -237 -246z"/>
<path d="M2320 12380 c-135 -135 -159 -281 -45 -278 41 1 188 90 325 198 234 183 237 196 45 198 -113 1 -259 -52 -325 -118z"/>
<path d="M2975 12231 c-209 -55 -235 -231 -33 -231 217 0 458 111 458 211 0 92 -125 98 -425 20z"/>
<path d="M13988 11105 c-571 -602 -1195 -1305 -1388 -1563 -745 -998 -2092 -2403 -3026 -3156 -536 -432 -1000 -786 -1029 -786 -29 0 -153 -93 -274 -206 -122 -114 -1503 -838 -3071 -1610 -1568 -772 -3187 -1575 -3600 -1783 -412 -208 -941 -436 -1175 -506 -307 -91 -425 -180 -425 -318 0 -246 102 -213 1581 518 643 318 1462 704 1819 859 358 154 785 379 950 498 165 120 953 522 1750 894 1745 812 2677 1407 4176 2665 124 104 265 189 313 189 49 0 162 113 253 252 91 138 448 555 794 925 347 370 962 1101 1369 1623 406 523 763 974 792 1003 1048 1056 1519 1597 1388 1597 -88 0 -627 -493 -1197 -1095z"/>
<path d="M20170 11650 c-214 -449 -86 -446 200 4 147 230 178 346 94 346 -70 0 -202 -157 -294 -350z"/>
<path d="M20989 11722 c-333 -347 -536 -722 -389 -722 58 0 136 79 172 175 35 96 146 234 246 305 205 148 430 521 311 517 -44 -1 -197 -125 -340 -275z"/>
<path d="M1575 11731 c-203 -53 -237 -231 -44 -231 72 0 218 66 325 147 201 152 98 183 -281 84z"/>
<path d="M275 11031 c-96 -25 -175 -87 -175 -138 0 -135 134 -114 356 54 194 147 146 170 -181 84z"/>
<path d="M19814 10820 c-70 -127 -111 -307 -91 -400 30 -142 57 -132 163 60 70 127 111 307 91 400 -30 142 -57 132 -163 -60z"/>
<path d="M1088 10178 c-268 -290 -487 -563 -487 -605 -1 -42 -109 -50 -240 -17 -338 85 -385 -66 -160 -516 193 -389 193 -389 -4 -154 l-197 236 0 -353 c0 -309 36 -361 293 -417 488 -108 581 -313 284 -631 -304 -324 -395 -819 -257 -1391 88 -364 73 -458 -109 -715 -146 -205 -210 -445 -208 -780 l2 -485 273 314 c149 172 485 435 746 584 261 149 695 469 965 711 270 243 519 441 553 441 34 0 275 215 535 477 463 466 1048 923 1183 923 187 0 1830 863 2342 1230 322 231 836 599 1142 817 507 362 677 557 481 551 -41 -1 -529 -328 -1084 -725 -1122 -803 -1212 -854 -2149 -1218 -748 -290 -1032 -332 -736 -108 188 142 187 147 -40 150 -152 2 -253 -67 -287 -197 -42 -161 -136 -200 -488 -200 -357 0 -467 -46 -603 -255 -95 -144 -228 -232 -305 -202 -76 29 -230 -40 -344 -154 -333 -333 -329 -142 5 239 204 233 455 386 756 462 421 106 624 310 308 310 -78 0 -159 52 -180 116 -53 158 -578 20 -578 -152 0 -72 -123 -188 -273 -256 -265 -121 -268 -119 -100 67 95 105 173 236 173 292 0 234 476 320 1207 219 514 -72 857 -68 1170 10 487 123 2094 876 2186 1024 134 217 -77 160 -773 -211 -1067 -568 -1516 -661 -2483 -510 -681 106 -835 102 -1099 -30 -168 -84 -329 -115 -358 -69 -28 45 5 109 74 141 101 47 101 71 0 118 -255 119 0 231 678 298 384 38 698 108 698 156 0 48 -304 84 -675 79 -576 -6 -778 -61 -1375 -375 -508 -267 -709 -430 -732 -593 -18 -123 -96 -224 -175 -224 -221 0 -173 128 220 588 234 274 416 403 514 365 84 -32 235 18 337 110 284 257 221 360 -114 187 -297 -154 -416 -68 -175 126 192 155 1119 324 1774 324 578 0 825 112 581 263 -68 42 -592 91 -1165 109 l-1041 34 -486 -528z m883 -1042 c19 -56 -79 -153 -218 -217 -277 -126 -341 -10 -128 231 136 154 293 147 346 -14z m-737 -682 c128 -97 163 -205 116 -355 -61 -192 -46 -204 132 -109 110 59 223 164 251 234 28 69 53 -9 56 -174 5 -340 -237 -747 -316 -530 -38 105 -87 106 -260 4 -127 -75 -213 -85 -213 -25 0 56 49 101 108 101 122 0 28 589 -119 745 -231 246 -45 329 245 109z m1780 -1163 c-246 -199 -414 -246 -414 -114 0 103 534 422 599 357 28 -28 -55 -137 -185 -243z m-1584 -166 c-35 -96 -123 -264 -197 -372 -128 -190 -133 -187 -133 55 0 244 160 492 317 492 42 0 48 -79 13 -175z"/>
<path d="M4150 10499 c-35 -55 10 -128 98 -162 191 -74 298 7 206 156 -83 135 -223 137 -304 6z"/>
<path d="M11343 10452 c-106 -80 -148 -146 -93 -147 149 -3 403 176 340 239 -30 29 -141 -12 -247 -92z"/>
<path d="M13723 10200 c-68 -110 -88 -200 -44 -200 104 0 321 216 321 320 0 147 -151 82 -277 -120z"/>
<path d="M2446 10112 c-110 -110 106 -211 435 -205 363 7 864 158 669 201 -185 42 -1064 45 -1104 4z"/>
<path d="M8357 9848 c-218 -166 -169 -285 79 -190 90 35 164 126 164 203 0 169 -2 169 -243 -13z"/>
<path d="M3900 9800 c0 -55 135 -100 300 -100 165 0 300 45 300 100 0 55 -135 100 -300 100 -165 0 -300 -45 -300 -100z"/>
<path d="M10750 9800 c-34 -55 8 -100 94 -100 86 0 156 45 156 100 0 55 -42 100 -94 100 -52 0 -122 -45 -156 -100z"/>
<path d="M11925 9728 c-69 -25 -125 -118 -125 -208 0 -148 15 -148 169 6 181 181 160 275 -44 202z"/>
<path d="M9055 9566 c-276 -202 -160 -408 121 -212 221 155 300 346 143 346 -44 0 -163 -60 -264 -134z"/>
<path d="M5250 9500 c-34 -55 8 -100 94 -100 86 0 156 45 156 100 0 55 -42 100 -94 100 -52 0 -122 -45 -156 -100z"/>
<path d="M13056 9407 c-103 -114 -157 -239 -120 -277 95 -95 396 224 348 368 -25 74 -108 41 -228 -91z"/>
<path d="M7497 9246 c-174 -209 -29 -321 165 -127 93 94 117 182 59 218 -54 33 -155 -7 -224 -91z"/>
<path d="M10264 9150 c-32 -82 -14 -150 39 -150 53 0 97 68 97 150 0 83 -18 150 -39 150 -22 0 -66 -67 -97 -150z"/>
<path d="M8300 9050 c-75 -91 -83 -150 -20 -150 183 0 420 119 420 211 0 143 -264 103 -400 -61z"/>
<path d="M9750 8700 c-34 -55 -17 -100 38 -100 55 0 128 45 162 100 34 55 17 100 -38 100 -55 0 -128 -45 -162 -100z"/>
<path d="M11065 8617 c-183 -203 -211 -317 -77 -317 49 0 163 113 253 250 190 290 68 336 -176 67z"/>
<path d="M9002 7952 c-79 -95 -86 -152 -20 -152 121 0 262 190 192 259 -25 25 -102 -23 -172 -107z"/>
<path d="M8257 7343 c-106 -78 -161 -172 -122 -211 38 -39 145 5 236 97 216 215 136 296 -114 114z"/>
<path d="M7500 6850 c-69 -84 -80 -150 -24 -150 55 0 156 68 224 150 69 84 80 150 24 150 -55 0 -156 -67 -224 -150z"/>
<path d="M8489 6311 c-131 -107 -212 -221 -178 -255 33 -34 168 26 300 133 131 107 212 221 178 255 -33 34 -168 -26 -300 -133z"/>
<path d="M7413 5610 c-76 -48 -121 -135 -100 -193 22 -64 138 -29 287 86 254 195 96 286 -187 107z"/>
<path d="M6425 4978 c-243 -117 -302 -280 -100 -275 143 4 475 237 475 333 0 87 -108 71 -375 -58z"/>
<path d="M4865 4053 c-102 -77 -170 -188 -150 -246 19 -57 170 6 335 141 319 261 148 358 -185 105z"/>
<path d="M13524 3503 c-388 -239 -723 -753 -724 -1108 0 -499 -443 -634 -1135 -345 -555 232 -1187 196 -1448 -81 -215 -230 -295 -569 -133 -569 46 0 133 108 194 241 161 354 611 418 1180 166 257 -114 591 -207 741 -207 343 0 801 350 801 611 0 251 334 910 554 1092 98 82 352 132 615 120 315 -14 435 17 406 104 -69 209 -697 195 -1051 -24z"/>
<path d="M3325 3297 c-124 -50 -225 -115 -225 -144 0 -110 369 -47 556 94 226 171 41 199 -331 50z"/>
<path d="M13783 2882 c-169 -181 -404 -532 -522 -781 -269 -566 -761 -775 -1430 -607 -1036 261 -1522 27 -1725 -831 -120 -506 -82 -679 108 -489 61 61 166 89 233 63 68 -26 198 67 289 206 165 251 765 633 763 485 -1 -43 -111 -269 -244 -503 -231 -404 -234 -425 -49 -425 107 0 194 45 194 100 0 55 70 100 155 100 163 0 489 648 399 794 -62 100 441 245 532 153 34 -34 -16 -106 -112 -159 -96 -54 -174 -208 -174 -343 0 -135 -90 -335 -200 -445 -215 -215 -108 -265 207 -96 133 71 193 71 193 0 0 -147 416 -123 625 35 96 73 175 207 175 297 0 185 82 204 296 69 125 -79 119 -123 -40 -299 -184 -203 -183 -206 75 -206 362 0 485 279 408 930 -87 746 33 924 785 1154 765 235 897 405 613 787 -173 233 -293 284 -727 309 -477 28 -545 4 -827 -298z m1154 -89 c144 -114 263 -240 263 -280 0 -101 -887 -354 -1275 -362 -179 -4 -325 29 -325 73 0 124 473 276 857 276 188 0 343 45 343 100 0 55 -150 100 -333 100 -230 0 -334 47 -334 150 0 223 492 188 804 -57z m-1337 -1540 c0 -326 -37 -430 -147 -414 -232 34 -292 144 -162 300 144 174 6 284 -196 156 -356 -225 -385 -66 -35 192 215 157 424 267 465 244 41 -24 75 -239 75 -478z m-2443 -95 c-101 -59 -313 -213 -470 -342 -260 -212 -287 -216 -284 -50 7 379 369 648 742 551 188 -49 188 -55 12 -159z m643 -64 c0 -58 -45 -78 -100 -44 -55 34 -100 82 -100 106 0 24 45 44 100 44 55 0 100 -48 100 -106z m1100 -433 c0 -205 -58 -362 -146 -396 -119 -45 -127 -8 -47 204 54 142 73 284 42 316 -31 31 -83 -43 -115 -164 -31 -122 -93 -221 -136 -221 -109 0 9 433 143 523 202 137 259 79 259 -262z"/>
<path d="M8089 2792 c-146 -191 -433 -403 -650 -480 -434 -153 -1894 -1138 -2161 -1457 -94 -113 -173 -261 -175 -330 -5 -196 183 -146 321 86 163 273 1842 1382 2206 1458 321 67 803 638 753 894 -26 134 -90 97 -294 -171z"/>
<path d="M650 2900 c-34 -55 8 -100 94 -100 86 0 156 45 156 100 0 55 -42 100 -94 100 -52 0 -122 -45 -156 -100z"/>
<path d="M1699 2599 c-135 -102 -215 -216 -178 -254 38 -37 185 24 327 136 326 256 184 369 -149 118z"/>
<path d="M6525 2264 c-124 -61 -225 -146 -225 -188 0 -148 271 -73 450 124 197 218 126 238 -225 64z"/>
<path d="M203 1804 c-81 -51 -124 -116 -96 -145 78 -77 493 51 493 153 0 114 -210 110 -397 -8z"/>
<path d="M5275 1631 c-180 -47 -247 -231 -83 -231 173 0 408 121 408 211 0 93 -37 95 -325 20z"/>
<path d="M7325 1564 c-124 -61 -225 -146 -225 -188 0 -133 280 -82 443 81 267 267 185 307 -218 107z"/>
<path d="M24808 1515 c-61 -114 -70 -227 -20 -258 49 -30 115 44 147 165 76 293 7 344 -127 93z"/>
<path d="M6352 852 c-218 -187 -366 -371 -328 -409 75 -75 724 429 814 632 93 209 -67 135 -486 -223z"/>
<path d="M4171 495 c-648 -406 -505 -589 160 -205 513 296 705 512 452 508 -73 -1 -349 -137 -612 -303z"/>
<path d="M1225 425 c-646 -265 -845 -489 -335 -377 160 35 462 151 671 258 210 107 439 194 510 194 71 0 129 45 129 100 0 156 -296 103 -975 -175z"/>
<path d="M2973 527 c-152 -77 -251 -182 -219 -233 82 -133 163 -115 435 94 299 230 153 324 -216 139z"/>
<path d="M24914 639 c-8 -62 -133 -230 -278 -375 -243 -244 -248 -264 -62 -264 270 0 451 237 397 519 -24 127 -50 181 -57 120z"/>
</g>
</svg>