<svg xmlns="http://www.w3.org/2000/svg" version="1.0" width="250" height="525" viewBox="0 0 250.000000 525.000000" preserveAspectRatio="xMidYMid meet">
<metadata>
Created by potrace 1.10, written by Peter Selinger 2001-2011
</metadata>
<g transform="translate(0.000000,525.000000) scale(0.010000,-0.010000)" fill="#555555" stroke="none">
<path d="M29 52312 c419 -1479 416 -1452 222 -1972 -209 -558 -225 -1187 -57 -2174 100 -586 94 -719 -39 -922 -85 -130 -154 -385 -152 -565 3 -294 15 -308 112 -129 250 459 542 849 635 849 130 1 798 -1069 884 -1418 73 -294 -127 -1184 -373 -1659 -85 -166 -185 -486 -221 -713 -52 -327 -93 -389 -198 -302 -73 60 -132 230 -132 376 1 147 -29 523 -66 836 -40 330 -23 696 38 873 61 174 68 327 17 359 -150 92 -322 -763 -278 -1375 42 -582 -44 -713 -301 -456 -93 93 -120 49 -120 -200 0 -176 44 -320 99 -320 167 0 609 -757 798 -1368 310 -1003 648 -745 500 380 -132 1002 111 1993 596 2432 117 106 306 342 418 524 113 183 261 332 329 332 201 0 560 -746 560 -1164 0 -399 -424 -2293 -539 -2408 -35 -36 -118 -11 -183 54 -134 134 -155 727 -53 1468 l69 500 -159 -350 c-88 -192 -191 -597 -229 -900 -77 -619 -253 -989 -712 -1500 -173 -192 -378 -474 -457 -625 -78 -151 -156 -275 -173 -275 -141 0 -692 890 -758 1226 l-84 424 -8 -600 c-8 -565 15 -625 389 -1034 218 -238 399 -463 401 -500 2 -36 29 -325 60 -641 30 -316 34 -575 10 -575 -25 0 -221 259 -435 575 -360 532 -391 556 -419 312 -18 -155 101 -502 291 -850 515 -937 690 -1318 753 -1634 50 -249 19 -315 -193 -412 -201 -91 -316 -83 -562 39 l-309 155 0 -390 c0 -292 35 -375 140 -335 77 29 171 3 210 -60 41 -67 -16 -136 -140 -168 -233 -61 -294 -432 -71 -432 77 0 169 -78 206 -173 36 -94 85 -2266 109 -4825 24 -2558 69 -6767 99 -9352 45 -3716 164 -20581 150 -21125 -2 -69 94 -125 213 -125 l216 0 -68 12125 c-38 6669 -95 12878 -128 13797 -59 1652 -13 2196 158 1878 44 -82 109 -309 144 -504 35 -195 222 -600 415 -900 l352 -546 -22 -1250 c-35 -1986 319 -4184 861 -5350 331 -710 382 -984 370 -2000 -15 -1392 -235 -4389 -329 -4495 -47 -52 -87 -367 -89 -700 -3 -333 -51 -807 -108 -1055 -57 -247 -140 -742 -186 -1100 -99 -783 -152 -1056 -454 -2350 -129 -550 -286 -1450 -349 -2000 -62 -550 -159 -1119 -214 -1263 -98 -259 -180 -3474 -102 -4012 22 -151 102 -275 178 -275 102 0 139 149 139 557 0 306 47 644 105 752 57 107 70 250 29 317 -105 170 -58 2166 72 3074 94 652 300 1817 601 3400 47 248 135 788 195 1200 61 413 185 885 277 1050 122 219 173 589 189 1369 11 588 66 1330 120 1650 269 1579 333 3778 149 5131 -174 1276 -274 1646 -564 2082 -134 202 -295 616 -358 918 -123 596 -324 2804 -264 2901 20 33 64 440 97 905 52 737 34 885 -143 1169 -111 179 -247 325 -301 325 -55 0 -186 169 -291 375 -303 593 -480 4134 -280 5575 102 728 104 921 15 1270 -55 214 -16 319 191 511 169 157 261 347 261 541 0 164 105 496 233 738 285 536 409 990 270 990 -143 0 -662 -1074 -748 -1549 l-73 -399 -145 346 c-242 574 -95 1283 410 1976 424 583 875 971 992 854 33 -34 61 -185 61 -336 0 -152 56 -294 125 -317 81 -27 120 -222 110 -556 -11 -385 -95 -644 -332 -1029 -174 -284 -421 -751 -549 -1040 -127 -288 -282 -555 -343 -593 -61 -38 -111 -206 -111 -375 0 -254 33 -297 197 -254 179 47 191 13 138 -375 -32 -235 -16 -453 37 -486 56 -35 66 -276 24 -588 -40 -291 -65 -1137 -57 -1879 14 -1245 36 -1396 289 -1940 243 -523 261 -627 155 -918 -147 -409 33 -1142 282 -1142 111 0 142 65 105 225 -175 757 -176 845 -14 980 143 118 185 111 305 -54 77 -105 114 -272 83 -371 -40 -125 -6 -180 112 -180 144 0 162 83 120 575 -27 328 5 725 74 925 119 339 309 1914 406 3350 74 1106 116 1160 468 594 269 -432 289 -518 189 -796 -62 -172 -113 -703 -113 -1182 0 -1142 -351 -3316 -604 -3745 -108 -183 -196 -440 -196 -571 0 -131 -40 -263 -90 -294 -165 -102 -235 -1448 -118 -2288 63 -450 155 -1105 204 -1455 57 -405 54 -732 -9 -898 -147 -387 73 -1115 338 -1115 160 0 185 43 127 225 -183 580 -175 746 36 801 270 70 329 -243 295 -1576 -24 -964 52 -2019 155 -2121 27 -27 99 -18 161 21 74 45 91 245 49 585 -59 468 -41 535 189 736 393 341 659 920 1270 2763 106 321 193 678 193 793 0 115 45 358 100 541 55 183 144 478 197 657 54 179 100 820 104 1425 6 1037 -43 1707 -305 4100 -60 550 -117 1578 -127 2285 l-19 1284 425 32 425 33 12 -1217 c6 -669 5 -1256 -4 -1304 -9 -48 96 -903 233 -1900 137 -997 249 -1948 248 -2113 0 -165 1 -544 3 -842 3 -584 -201 -1892 -447 -2857 -84 -330 -220 -921 -301 -1314 -81 -394 -282 -1103 -446 -1576 -164 -473 -298 -927 -298 -1009 0 -81 -242 -633 -539 -1225 -693 -1387 -757 -1604 -864 -2953 -49 -618 -158 -1506 -243 -1974 -84 -467 -154 -1079 -154 -1358 0 -280 -43 -752 -95 -1050 -53 -298 -147 -902 -209 -1342 -62 -440 -195 -1137 -295 -1550 -100 -412 -239 -1036 -308 -1386 -72 -370 -222 -752 -355 -910 -425 -505 -648 -2960 -263 -2884 121 24 158 217 177 930 29 1101 206 1687 523 1732 145 20 225 101 225 225 0 106 48 193 106 193 58 0 194 201 302 446 109 245 239 471 289 502 50 31 282 404 514 829 233 425 544 953 692 1173 591 876 723 1257 748 2150 25 884 208 1605 425 1676 201 66 425 -614 412 -1248 -9 -463 -26 -518 -84 -278 -94 388 -168 197 -253 -646 -36 -355 -133 -805 -216 -1000 -82 -195 -187 -579 -233 -854 -46 -275 -251 -792 -455 -1150 -449 -788 -744 -1315 -1537 -2750 l-609 -1100 1 -900 c0 -1258 76 -1650 318 -1650 150 0 179 46 128 206 -36 113 -63 681 -60 1261 4 859 44 1140 219 1519 271 587 775 1573 1004 1964 97 165 273 490 390 722 118 232 313 570 435 750 244 363 567 1159 610 1505 131 1062 186 1373 245 1373 112 0 19 -2418 -99 -2560 -60 -72 -80 -219 -46 -327 34 -108 15 -225 -42 -260 -166 -103 -122 -633 62 -736 149 -83 163 -355 143 -2616 -13 -1387 -48 -2586 -78 -2663 -45 -117 72 -130 683 -76 1092 96 1086 86 1086 1840 0 1600 -76 2425 -216 2338 -49 -30 -62 -288 -29 -572 45 -380 32 -478 -46 -368 -58 83 -107 536 -107 1008 -2 786 19 877 248 1092 138 129 250 317 250 417 0 101 42 183 93 183 157 0 407 -304 407 -495 0 -262 282 -906 556 -1269 130 -172 443 -397 696 -500 l459 -186 -65 -1800 c-36 -990 -42 -1777 -14 -1750 29 28 106 793 172 1700 66 908 132 1663 146 1680 15 16 133 3 263 -30 229 -57 236 -88 212 -924 -15 -535 11 -830 68 -771 51 52 108 418 125 812 l32 717 300 -56 c165 -31 317 -71 337 -88 21 -17 -14 -384 -77 -816 -118 -805 -51 -2224 104 -2224 47 0 88 439 90 975 4 1175 199 2170 476 2427 l201 188 -56 -1795 c-40 -1318 -24 -1795 60 -1795 79 0 116 320 117 1025 2 1176 153 2386 310 2482 209 130 1991 -585 3162 -1268 450 -263 926 -1177 926 -1778 l0 -461 367 0 c202 0 438 63 525 140 223 197 923 578 973 529 109 -110 -180 -559 -385 -598 -126 -24 -15 -50 247 -57 452 -13 474 -2 418 218 -36 146 -1 280 94 359 170 141 869 509 967 509 60 0 308 -531 432 -925 37 -116 158 -175 359 -175 345 0 342 -6 190 370 -289 719 -540 1144 -954 1617 -353 404 -495 501 -668 458 -184 -46 -257 20 -442 401 -122 251 -250 701 -285 999 -38 319 -121 565 -201 596 -75 29 -137 117 -137 196 0 204 -669 763 -913 763 -285 0 -775 305 -845 526 -37 117 -120 163 -230 128 -439 -139 -1275 1265 -1755 2946 -149 523 -313 1063 -365 1200 -52 138 -127 520 -168 850 -74 595 -78 602 -566 850 -554 282 -591 335 -755 1100 -65 303 -154 663 -199 800 -44 138 -141 453 -214 700 -74 248 -286 756 -471 1129 -317 639 -359 971 -122 971 57 0 94 -34 82 -75 -49 -180 133 -925 227 -925 131 0 20 645 -178 1036 -178 353 -23 602 223 356 213 -213 849 -1784 849 -2097 0 -145 67 -484 149 -754 82 -270 149 -574 150 -675 1 -199 604 -1096 683 -1017 27 27 -32 230 -132 451 -217 481 -137 617 185 314 291 -273 414 -157 493 469 30 238 126 511 213 607 306 339 199 2840 -190 4460 -133 550 -286 1338 -341 1750 -105 790 -13 2251 169 2708 103 258 305 1060 528 2092 152 707 202 4429 78 5827 -80 913 -72 1100 55 1227 127 127 130 207 23 523 -217 641 -256 1657 -96 2523 109 591 764 1500 1080 1500 267 0 379 -241 550 -1178 164 -901 62 -1385 -398 -1901 -210 -235 -404 -393 -430 -350 -37 63 91 1041 254 1929 47 262 -165 260 -291 -2 -257 -537 -465 -3198 -249 -3198 123 0 888 952 1103 1373 117 229 285 457 374 506 88 50 388 311 665 581 l504 490 -65 -942 c-53 -775 -113 -1027 -339 -1415 -294 -505 -1243 -1389 -1302 -1212 -46 138 217 650 639 1244 410 576 432 756 63 493 -151 -108 -477 -572 -725 -1032 -427 -794 -452 -820 -481 -511 -21 215 -85 325 -188 325 -137 0 -147 -128 -79 -1025 106 -1387 119 -3957 25 -4875 -80 -788 -365 -2238 -689 -3500 -222 -867 -206 -1103 204 -3000 281 -1296 450 -3134 313 -3390 -139 -259 -133 -738 11 -1056 91 -200 88 -310 -15 -501 -93 -174 -100 -284 -26 -375 165 -201 -45 -1270 -330 -1683 -307 -445 -307 -642 -4 -1090 136 -201 374 -886 549 -1583 353 -1401 439 -1566 1216 -2322 310 -303 664 -696 786 -875 124 -182 308 -325 419 -325 174 0 190 45 129 366 -54 290 -31 393 112 498 161 118 169 190 70 659 -189 900 -225 1278 -273 2877 -48 1605 101 3092 416 4150 154 517 362 1296 474 1775 44 186 129 275 263 275 139 0 198 67 196 225 -1 267 -210 895 -361 1088 -471 604 -733 1696 -954 3987 -95 976 -58 2957 67 3650 154 850 374 1707 504 1958 80 155 148 543 150 862 1 319 71 873 154 1230 82 358 174 852 202 1100 105 909 99 900 592 900 491 0 547 -70 255 -321 -115 -98 -219 -359 -259 -647 -164 -1187 -467 -2730 -743 -3779 -253 -961 -303 -1354 -323 -2521 -30 -1701 19 -2911 128 -3203 45 -122 43 -246 -5 -276 -97 -60 115 -1083 352 -1703 85 -220 320 -644 523 -943 298 -438 366 -625 352 -975 -14 -373 11 -432 186 -432 153 0 186 -43 135 -175 -107 -275 -108 -303 -18 -340 47 -19 182 132 300 336 210 362 211 373 25 509 -246 180 -143 338 344 533 781 313 1603 1779 1748 3116 56 512 114 659 308 787 284 186 316 434 57 434 -166 0 -196 164 -308 1697 -69 933 -90 1753 -48 1821 42 68 89 238 103 378 15 140 53 355 84 479 46 186 15 225 -183 225 -302 0 -765 359 -765 594 0 98 -81 286 -180 418 -99 131 -192 418 -207 638 -41 606 -315 1771 -475 2025 -181 286 -276 283 -679 -25 -418 -319 -459 -314 -459 53 0 444 246 960 489 1023 242 63 262 41 358 -406 74 -344 321 -396 280 -59 -12 104 -52 425 -88 713 -57 452 -33 572 172 874 132 193 269 351 306 351 88 1 160 -385 235 -1249 56 -642 118 -990 455 -2534 158 -727 601 -1572 1007 -1923 308 -267 322 -302 166 -425 -197 -154 -137 -568 82 -568 104 0 138 165 138 664 0 580 -31 692 -252 897 -401 372 -420 734 -55 1083 200 192 307 391 307 575 l0 282 -362 -401 c-199 -220 -424 -400 -500 -400 -182 0 -178 397 5 539 200 155 666 1066 600 1173 -121 196 -331 69 -393 -237 -114 -571 -161 -675 -299 -675 -156 0 -316 594 -186 687 48 35 199 308 336 607 137 299 373 714 524 924 280 387 356 682 175 682 -55 0 -100 -45 -100 -100 0 -55 -45 -100 -100 -100 -158 0 -113 228 100 500 111 142 194 401 193 600 -3 347 -6 344 -308 -250 -371 -729 -600 -928 -1002 -869 -294 43 -300 56 -238 469 50 332 30 438 -91 485 -215 82 -193 530 37 740 105 96 509 400 899 675 l708 500 -2 550 c-2 505 -14 534 -149 356 -81 -107 -147 -226 -147 -264 0 -39 -114 -99 -254 -134 -301 -76 -433 -340 -236 -470 114 -75 95 -129 -96 -290 -246 -206 -514 -263 -514 -109 0 49 89 285 198 525 109 240 199 513 200 607 1 93 114 335 251 536 269 397 241 656 -42 399 -223 -202 -307 -110 -307 336 0 308 78 428 550 853 410 370 550 565 550 767 0 262 -23 250 -607 -311 -334 -320 -711 -609 -837 -641 -127 -31 -284 -182 -350 -334 -171 -397 -1368 -1661 -1498 -1581 -136 84 -142 355 -8 355 55 0 100 46 100 102 0 208 508 898 661 898 87 0 286 124 442 275 278 269 571 512 1122 931 151 115 275 280 275 368 0 88 75 244 168 345 121 134 137 216 58 295 -79 79 -151 29 -259 -178 -277 -527 -1667 -1783 -1667 -1506 0 16 225 543 500 1170 275 627 502 1187 504 1245 5 156 415 613 666 743 121 62 334 123 475 134 196 17 255 77 255 261 0 210 -33 231 -275 172 -151 -37 -376 -92 -500 -122 -189 -46 -225 -14 -225 204 0 194 125 352 500 632 351 262 500 443 500 607 0 231 -5 230 -325 -70 -276 -260 -475 -377 -475 -281 0 83 432 1143 499 1225 45 55 97 258 116 450 53 532 -239 471 -331 -70 -77 -449 -245 -833 -363 -826 -39 3 -172 163 -296 357 -171 268 -201 397 -125 539 55 103 100 301 100 440 0 633 551 1660 890 1660 44 0 128 -101 188 -225 93 -194 109 -152 115 300 4 289 -14 525 -40 525 -89 0 -803 -421 -979 -576 -96 -86 -200 -131 -231 -100 -31 31 3 105 75 165 986 820 1182 1080 1182 1571 0 263 -8 259 -293 -135 -495 -683 -1437 -1307 -1676 -1109 -103 85 -79 167 120 403 137 163 250 327 251 364 2 37 159 241 350 453 368 409 429 564 221 564 -70 0 -371 -312 -668 -694 -483 -620 -555 -676 -670 -525 -178 234 -167 411 78 1191 184 587 268 713 625 942 227 145 615 295 862 332 700 107 800 153 800 370 0 182 -53 199 -527 168 -296 -19 -540 10 -556 66 -68 241 210 974 494 1297 276 314 288 353 112 353 -109 0 -255 -67 -323 -150 -68 -83 -186 -150 -262 -150 -76 0 -138 67 -138 150 0 86 -90 150 -212 150 -173 0 -199 -40 -141 -225 286 -919 287 -1015 12 -1529 -145 -273 -409 -681 -587 -907 -177 -225 -376 -495 -441 -600 -267 -424 -128 465 169 1077 351 725 342 684 145 684 -86 0 -224 -168 -308 -375 -84 -206 -239 -558 -345 -782 -105 -223 -192 -485 -192 -581 0 -237 -182 -562 -315 -562 -152 0 -46 1150 203 2197 154 649 259 890 449 1028 136 99 352 268 480 374 l233 194 -272 4 c-163 2 -409 -118 -616 -300 l-345 -302 -215 302 c-172 242 -289 303 -578 303 l-363 0 363 -333 c423 -387 526 -703 438 -1345 -117 -851 -410 -772 -573 154 -133 755 -299 1023 -521 839 -136 -113 -137 -166 -5 -482 200 -478 111 -526 -160 -88 l-220 356 -253 -199 c-366 -288 -463 -163 -402 512 l53 586 -465 -3 -466 -2 263 -164 c225 -139 257 -216 216 -522 -26 -197 15 -539 91 -759 111 -323 115 -477 17 -800 -67 -220 -125 -479 -129 -575 -13 -299 173 -192 306 175 94 262 184 350 356 350 233 0 320 233 130 350 -123 76 -133 350 -13 350 108 0 953 -837 1295 -1284 211 -276 255 -442 254 -950 -1 -600 -194 -1166 -450 -1325 -82 -50 -95 9 -45 207 93 371 -135 1771 -280 1721 -72 -25 -99 -291 -76 -754 19 -393 -6 -715 -56 -715 -164 0 -621 548 -738 883 -95 272 -159 323 -373 298 -216 -26 -270 18 -325 269 -37 165 -224 638 -416 1050 -193 413 -381 838 -418 946 -63 179 -99 163 -409 -175 -187 -204 -382 -371 -433 -371 -51 0 -114 236 -142 525 -27 289 -81 602 -121 696 -53 126 12 222 250 367 l322 196 -1275 9 c-1266 9 -1274 8 -1043 -179 l233 -189 -269 -287 c-147 -159 -334 -378 -414 -488 -192 -263 -442 -120 -689 395 -171 356 -171 387 -9 566 166 183 154 189 -415 189 -455 0 -558 -27 -465 -120 184 -184 145 -408 -137 -786 -300 -403 -643 -1116 -643 -1339 0 -85 -71 -155 -158 -155 -124 0 -153 93 -133 425 39 661 6 821 -215 1058 -276 297 -178 555 284 745 l372 153 -317 9 c-174 6 -452 -68 -617 -162 -285 -164 -311 -164 -491 0 -138 124 -364 172 -814 172 -342 0 -598 -40 -568 -89 31 -49 -98 -344 -285 -655 -348 -578 -386 -590 -490 -156 -34 138 -195 396 -359 575 l-298 325 -1130 -8 c-894 -6 -1072 -29 -850 -110 249 -91 273 -138 217 -417 -163 -816 -252 -843 -860 -265 -231 220 -440 400 -463 400 -24 0 -126 -101 -227 -225 -184 -224 -186 -224 -338 -25 -211 274 -204 293 165 469 l325 156 -664 5 -663 5 254 -468 c140 -257 316 -539 391 -627 115 -136 100 -239 -104 -700 -132 -297 -270 -629 -307 -737 -132 -384 -266 69 -236 797 34 829 -132 1021 -259 300 -94 -530 -430 -1350 -554 -1350 -71 0 -308 880 -308 1146 0 73 159 363 353 645 195 283 396 626 448 762 89 234 76 247 -266 247 -309 0 -342 -21 -234 -151 102 -123 77 -222 -140 -550 -145 -219 -309 -399 -364 -399 -55 0 -209 248 -343 550 -309 698 -654 722 -654 45 0 -262 -314 -895 -444 -894 -58 1 -180 223 -270 495 -151 457 -151 504 0 636 90 78 232 165 314 193 83 28 -112 50 -433 50 -489 -1 -576 -28 -538 -163z m7672 -262 c675 -411 899 -794 899 -1540 0 -394 -35 -510 -155 -510 -180 0 -540 732 -543 1106 -1 141 -59 333 -128 428 -107 146 -154 152 -304 43 -169 -123 -169 -148 -8 -471 151 -304 155 -385 29 -747 -189 -546 -436 -583 -594 -89 -66 209 -161 423 -209 475 -48 52 -88 197 -88 321 0 249 382 1334 469 1334 30 0 314 -158 632 -350z m8778 -458 c318 -1012 296 -1099 -648 -2558 -102 -157 -120 -114 -125 291 -5 406 22 475 188 475 305 0 348 193 101 456 -180 191 -223 344 -209 742 13 374 -18 502 -123 502 -168 0 -263 -213 -263 -592 0 -151 -29 -304 -65 -340 -81 -81 -435 317 -435 490 0 252 1061 1363 1248 1306 54 -16 203 -363 331 -772z m-5639 237 c280 -259 571 -581 647 -716 121 -218 114 -262 -59 -404 -108 -87 -298 -308 -423 -490 -125 -182 -248 -309 -274 -284 -25 26 -56 287 -68 581 -15 392 -60 534 -167 534 -186 0 -255 -937 -102 -1377 75 -213 74 -420 -2 -702 -113 -421 -478 -992 -589 -923 -36 23 -58 392 -49 821 15 695 -10 813 -227 1074 -211 253 -235 355 -176 749 38 250 137 591 220 757 145 288 616 851 712 851 26 0 276 -212 557 -471z m2801 -511 c80 -156 329 -404 552 -552 224 -148 407 -314 407 -370 0 -55 111 -151 247 -213 370 -168 595 -938 512 -1748 -64 -632 -225 -1135 -362 -1135 -39 0 -286 563 -549 1250 -290 760 -531 1250 -615 1250 -146 0 -114 -293 92 -836 88 -232 74 -351 -74 -625 -211 -392 -350 -437 -353 -114 -4 355 -347 1020 -648 1257 -247 194 -269 260 -210 627 62 386 362 1089 584 1366 153 191 257 152 417 -157z m-11457 -752 c289 -782 281 -1231 -29 -1558 -135 -142 -358 -393 -497 -558 -230 -274 -252 -282 -255 -88 -2 117 62 397 142 623 249 706 -13 551 -299 -177 -265 -676 -276 -688 -464 -512 -152 140 -203 356 -238 992 l-44 812 375 425 c206 234 412 441 456 460 45 20 126 152 180 293 96 253 101 255 277 65 99 -106 277 -456 396 -777z m3122 677 c72 -87 302 -245 512 -352 210 -107 382 -251 382 -320 0 -68 96 -302 212 -520 176 -327 203 -503 155 -1009 -72 -775 -263 -1542 -383 -1542 -176 0 -534 451 -673 845 -81 231 -130 717 -119 1175 15 646 -8 780 -137 780 -118 0 -155 -113 -156 -475 -1 -366 -94 -641 -405 -1203 -427 -769 -631 -873 -486 -248 48 207 88 629 90 938 2 612 153 1128 499 1713 247 417 319 447 509 218z m12881 -1604 c512 -1118 516 -1486 26 -2153 -265 -360 -316 -391 -368 -227 -34 105 -103 294 -153 421 -51 126 -92 407 -92 625 0 430 -140 531 -237 170 -143 -534 -68 -1080 180 -1310 168 -156 216 -269 156 -367 -70 -113 -167 -64 -469 239 -209 210 -498 443 -642 518 -218 114 -270 223 -311 652 -79 816 76 1220 702 1842 306 303 604 550 663 548 60 -2 305 -433 545 -958z m-6589 214 c73 -136 307 -368 520 -516 532 -368 982 -1004 982 -1387 0 -224 -98 -406 -349 -649 -349 -338 -469 -344 -514 -23 -60 428 -282 922 -415 922 -107 0 -129 -72 -82 -275 173 -753 185 -1422 31 -1657 -86 -131 -171 -388 -189 -570 -38 -398 -282 -537 -282 -162 0 139 35 274 79 301 192 118 18 958 -295 1421 -392 581 -494 1339 -245 1821 89 171 161 389 161 483 0 172 271 538 399 538 37 0 127 -111 199 -247z m-3566 -273 c120 -67 421 -145 668 -175 419 -51 459 -82 590 -459 180 -522 78 -1200 -241 -1592 -286 -352 -350 -311 -414 263 -76 692 -134 895 -238 831 -149 -92 -115 -1271 50 -1739 137 -388 133 -429 -50 -612 -108 -108 -249 -197 -313 -197 -202 0 -647 584 -781 1025 -71 234 -191 567 -266 740 -246 566 -122 1321 297 1803 228 261 381 286 698 112z m-4407 -486 c277 -546 227 -1280 -148 -2152 -281 -653 -339 -729 -447 -582 -103 141 -150 148 -279 41 -253 -210 -257 -74 -14 453 336 726 401 1046 215 1046 -88 0 -152 -89 -152 -210 0 -207 -368 -1018 -636 -1400 -125 -179 -148 -154 -299 333 -212 685 -232 1069 -72 1377 177 340 1411 1515 1548 1472 60 -19 188 -189 284 -378z m18801 -1917 c411 -849 511 -1197 481 -1677 -20 -317 -305 -691 -532 -698 -41 -1 -75 313 -75 698 0 411 -42 700 -102 700 -214 0 -313 -564 -259 -1475 30 -509 30 -925 1 -925 -120 0 -743 535 -971 834 -233 305 -241 364 -167 1169 42 466 147 982 232 1147 84 165 209 452 278 638 68 186 238 475 378 642 l255 303 65 -314 c35 -173 222 -641 416 -1042z m-17326 917 c0 -98 611 -1000 910 -1344 514 -590 615 -2750 129 -2750 -159 0 -187 159 -43 247 125 78 35 312 -309 803 -154 220 -310 593 -347 829 -86 554 -281 494 -320 -98 -24 -360 20 -514 210 -742 293 -353 503 -739 437 -805 -64 -65 -667 249 -667 348 0 42 -141 120 -314 172 -720 220 -923 2013 -335 2951 154 245 326 476 384 513 122 80 265 13 265 -124z m14526 -478 c622 -666 776 -1005 798 -1762 15 -516 -22 -703 -187 -925 -113 -154 -290 -436 -393 -629 l-187 -350 -93 600 c-51 330 -88 862 -83 1182 13 723 -181 729 -338 10 -82 -374 -76 -612 23 -992 139 -528 175 -1050 73 -1050 -33 0 -145 108 -250 241 -119 152 -257 222 -375 192 -152 -40 -208 38 -306 425 -65 261 -207 656 -314 877 -106 221 -194 486 -194 587 0 227 472 1178 585 1178 45 0 143 124 219 275 165 330 400 625 498 625 39 0 274 -218 524 -484z m-5218 -185 c239 -556 269 -1708 48 -1793 -79 -30 -225 -9 -325 47 -139 78 -232 53 -406 -109 -317 -297 -374 -164 -132 310 228 447 258 614 109 614 -131 0 -398 -419 -551 -864 -86 -251 -95 -458 -30 -674 65 -211 58 -409 -20 -611 l-115 -300 -493 517 c-454 476 -493 556 -493 1010 0 431 49 550 388 935 213 242 515 507 671 589 155 81 435 316 623 522 187 206 384 347 437 314 54 -33 184 -261 289 -507z m-4108 75 c0 -40 169 -290 375 -555 365 -468 375 -504 375 -1311 0 -731 -24 -843 -200 -930 -110 -55 -354 -201 -541 -325 l-342 -225 64 495 c35 272 94 670 132 883 54 309 39 379 -73 342 -193 -64 -497 -1225 -473 -1807 23 -584 -159 -837 -313 -433 -57 150 -104 314 -104 363 0 154 -333 797 -413 797 -115 0 -73 1031 48 1186 135 171 246 359 589 994 150 280 350 552 444 604 175 98 432 51 432 -78z m6100 -441 c533 -391 871 -859 959 -1325 85 -456 23 -579 -479 -944 l-430 -312 -61 618 c-57 588 -203 841 -439 761 -55 -19 -84 -120 -64 -224 163 -855 52 -2139 -185 -2139 -41 0 -217 304 -393 675 -176 371 -353 739 -394 817 -110 207 120 1600 330 2008 358 692 306 689 1156 65z m-9520 -140 c315 -734 354 -972 181 -1116 -208 -173 -329 -73 -339 279 -4 162 -81 436 -170 609 -155 298 -130 703 42 703 45 0 173 -214 286 -475z m-3160 -1000 c26 -261 127 -644 225 -851 144 -302 154 -404 54 -525 -216 -260 -348 -162 -372 277 -13 233 -75 522 -138 641 -121 229 -43 933 103 933 45 0 103 -214 128 -475z m19810 412 c35 -35 15 -152 -43 -261 -125 -234 -327 -96 -230 157 67 174 165 211 273 104z m-15689 -962 c-39 -69 -178 -271 -310 -449 -289 -391 -528 -1137 -530 -1651 -1 -415 -63 -462 -262 -200 -169 223 -168 848 3 1425 278 933 269 919 515 857 127 -32 259 -13 293 43 92 149 376 125 291 -25z m547 -601 c131 -233 302 -546 381 -696 78 -150 184 -667 235 -1150 84 -806 75 -901 -110 -1155 -112 -152 -292 -486 -402 -741 -139 -325 -231 -433 -304 -360 -73 73 -56 200 57 419 201 389 185 2116 -20 2184 -94 31 -125 -176 -125 -822 0 -994 -158 -1753 -364 -1753 -96 0 -122 72 -82 231 33 130 -32 460 -148 754 -230 583 -273 1652 -98 2413 96 418 514 1103 672 1101 39 0 177 -192 308 -425z m5878 278 c116 -81 385 -497 596 -925 331 -669 385 -871 387 -1455 1 -647 -14 -689 -324 -932 -179 -140 -325 -313 -325 -385 0 -208 -237 -356 -403 -252 -125 78 -110 162 103 565 210 399 247 593 230 1219 -21 755 -115 996 -335 860 -87 -54 -105 -279 -61 -792 61 -728 -61 -1455 -244 -1455 -56 0 -200 214 -321 475 -308 669 -307 2066 4 2750 229 505 355 564 693 327z m3624 -646 c275 -755 154 -1260 -502 -2094 -103 -132 -188 -281 -188 -332 0 -134 -507 -780 -612 -780 -157 0 -94 205 195 632 351 519 641 1242 526 1313 -48 29 -132 -3 -188 -71 -220 -268 -1221 -2252 -1227 -2433 -6 -172 -15 -170 -93 24 -48 118 -135 244 -194 281 -171 105 -123 354 68 354 153 0 175 106 175 825 0 1076 334 1829 979 2207 232 136 507 342 612 458 104 115 199 210 211 210 12 0 119 -267 238 -594z m-6311 -604 c33 -1065 -108 -1893 -378 -2224 -247 -302 -407 -146 -476 466 -28 253 -93 486 -143 517 -51 31 -236 -11 -412 -94 -426 -202 -907 -318 -854 -206 253 531 484 1069 484 1127 0 166 1502 1418 1650 1375 55 -16 113 -449 129 -961z m9441 123 c357 -364 600 -713 664 -951 128 -478 -9 -1496 -249 -1857 l-179 -267 -103 450 c-122 535 -231 725 -366 642 -60 -37 -72 -277 -31 -602 76 -612 0 -666 -376 -265 -275 294 -480 1171 -480 2056 0 420 345 1369 498 1369 32 0 312 -259 622 -575z m-8561 108 c170 -128 338 -202 375 -166 36 37 66 -302 66 -752 0 -771 -14 -826 -244 -930 -499 -228 -722 163 -406 715 236 412 175 585 -97 277 -207 -236 -247 -250 -288 -100 -26 95 -34 353 -17 573 17 220 36 481 42 581 11 197 68 177 569 -198z m10646 142 c184 -124 422 -376 529 -559 176 -301 185 -415 96 -1153 -99 -817 -363 -1563 -553 -1563 -64 0 -70 171 -18 475 137 798 113 1375 -59 1375 -117 0 -153 -145 -164 -650 -21 -1024 -358 -1573 -548 -893 -135 482 -95 2483 57 2846 171 409 220 418 660 122z m-18702 -157 c213 -173 218 -208 98 -675 -116 -454 -151 -494 -438 -506 -172 -7 -403 -30 -513 -50 -169 -31 -195 9 -167 263 18 165 119 380 225 479 105 98 192 263 192 367 0 165 112 271 314 296 35 4 165 -74 289 -174z m840 -106 c30 -49 246 -179 481 -290 379 -179 484 -312 957 -1222 293 -561 503 -1050 467 -1085 -35 -36 -127 22 -205 127 -134 184 -148 184 -335 16 -188 -171 -201 -164 -401 229 -114 223 -207 474 -207 559 0 85 -67 154 -150 154 -214 0 -185 -338 96 -1135 230 -652 234 -701 79 -1025 -191 -402 -325 -439 -325 -90 0 149 -57 250 -142 250 -322 0 -858 1370 -858 2193 0 844 334 1656 543 1319z m13715 -1138 c66 -470 -352 -1430 -612 -1407 -185 16 -624 -532 -805 -1005 -40 -105 -150 -161 -279 -142 -309 44 -352 710 -69 1092 114 154 207 297 207 318 0 100 1021 1721 1123 1784 155 96 378 -233 435 -640z m571 -360 c70 -837 372 -1515 831 -1865 l344 -262 -174 -293 c-172 -292 -330 -385 -330 -194 0 55 -169 286 -375 514 -206 228 -468 644 -581 925 -203 502 -203 518 -22 996 102 267 158 571 125 675 -33 105 -19 190 32 190 50 0 118 -309 150 -686z m-15330 -260 c51 -135 122 -466 158 -735 67 -506 -50 -779 -650 -1519 -111 -137 -204 -329 -205 -425 -1 -96 -47 -175 -102 -175 -55 0 -101 236 -102 525 0 289 -65 795 -143 1125 -125 527 -124 628 8 832 420 646 870 808 1036 372z m6294 -923 c269 -866 230 -1204 -248 -2194 -245 -506 -1309 -1707 -1417 -1598 -30 30 83 185 253 343 169 158 338 418 376 578 37 159 130 535 205 835 88 349 103 580 42 641 -96 96 -304 -302 -304 -580 0 -328 -529 -1254 -989 -1731 -279 -289 -548 -525 -598 -525 -50 0 38 335 197 744 159 409 334 1050 389 1425 54 374 138 918 185 1207 86 525 334 924 575 924 70 0 156 90 191 200 67 210 490 489 752 496 103 3 229 -242 391 -765z m2442 69 c-73 -416 -269 -830 -602 -1276 -204 -271 -289 -314 -513 -260 -366 87 -370 95 -185 378 118 179 131 267 48 319 -134 83 -683 -490 -683 -713 0 -81 -45 -148 -100 -148 -125 0 -123 22 46 731 231 968 353 1089 1404 1390 583 168 677 100 585 -421z m-10350 6 c234 -449 475 -1952 377 -2345 -36 -144 -131 -261 -210 -261 -80 0 -193 -90 -252 -200 -59 -110 -148 -200 -199 -200 -160 0 -222 652 -103 1094 64 234 91 450 61 480 -106 106 -286 -537 -350 -1246 -58 -651 -216 -1054 -359 -911 -149 148 -350 1286 -350 1977 0 772 7 793 450 1395 247 336 513 611 590 611 77 0 232 -177 345 -394z m11112 -302 c277 -350 299 -424 191 -625 -67 -126 -150 -364 -184 -528 -83 -400 -315 -423 -524 -52 -212 374 -357 383 -442 26 -35 -151 -134 -354 -217 -451 -182 -209 -104 -330 128 -200 192 107 853 -67 847 -223 -1 -56 -67 -213 -146 -351 -183 -321 -188 -648 -10 -825 83 -84 118 -249 87 -413 -48 -251 -72 -226 -288 305 -129 318 -319 692 -422 831 -102 139 -262 399 -355 579 -165 318 -163 336 73 650 264 352 765 1372 765 1558 0 218 184 114 497 -281z m1539 -384 c307 -443 342 -970 118 -1811 -132 -494 -274 -703 -481 -707 -79 -2 -22 352 127 798 192 574 208 800 55 800 -148 0 -367 -621 -500 -1419 -61 -366 -326 -572 -554 -432 -143 89 -117 1430 35 1856 144 404 733 1295 855 1295 45 0 200 -171 345 -380z m-8032 -133 c602 -507 849 -1076 767 -1763 -62 -511 -453 -1624 -571 -1624 -101 0 -372 764 -451 1275 -88 563 -249 544 -249 -30 0 -472 -244 -1091 -394 -999 -47 30 -140 281 -207 559 -192 801 47 2326 399 2544 56 35 102 150 102 257 0 268 46 251 604 -219z m14830 231 c182 -202 366 -1028 366 -1647 0 -411 -607 -1671 -805 -1671 -121 0 -122 -13 50 649 140 534 123 851 -44 851 -43 0 -110 -210 -148 -466 -88 -587 -218 -934 -351 -934 -56 0 -102 92 -102 204 0 170 -32 186 -194 99 -273 -146 -326 9 -120 350 144 239 161 395 93 887 -73 537 -58 632 156 953 261 392 751 907 863 907 39 0 145 -82 236 -182z m-2756 -528 c482 -528 673 -932 775 -1640 40 -275 111 -574 158 -664 55 -108 37 -205 -54 -280 -166 -138 -188 -104 -356 544 -154 589 -257 734 -411 580 -169 -169 166 -1198 486 -1495 246 -229 255 -266 134 -565 -72 -176 -154 -426 -184 -555 -29 -129 -173 -309 -320 -400 -146 -91 -438 -356 -648 -590 -210 -234 -421 -425 -470 -425 -48 0 -88 240 -88 533 0 666 -189 1653 -366 1914 -74 109 -134 292 -134 409 0 116 -27 237 -59 270 -105 105 -120 1820 -17 1949 191 238 376 139 375 -200 0 -179 53 -673 117 -1098 109 -716 104 -789 -73 -985 -189 -209 -188 -213 44 -402 129 -104 316 -190 416 -190 99 0 323 -180 497 -400 174 -220 355 -400 402 -400 175 0 212 413 56 630 -87 121 -310 429 -494 685 -287 398 -354 606 -462 1420 -140 1060 -51 1948 186 1845 38 -16 259 -237 490 -490z m-14339 152 c102 -265 75 -305 -330 -488 -579 -261 -695 -159 -313 276 349 398 547 463 643 212z m17997 8 c-31 -82 -103 -150 -159 -150 -58 0 -49 64 23 150 68 83 140 150 159 150 19 0 9 -67 -23 -150z m-6236 -148 c0 -261 292 -1006 480 -1226 312 -364 -109 -2024 -577 -2274 -167 -90 -169 -71 -31 326 182 526 295 1564 155 1422 -54 -55 -149 -362 -211 -682 -110 -570 -432 -1168 -630 -1168 -55 0 -71 89 -37 197 35 109 12 548 -50 975 -111 758 -106 799 200 1626 287 778 424 996 626 1000 41 1 75 -87 75 -196z m-11353 -697 c235 -455 189 -909 -147 -1439 -165 -260 -300 -530 -300 -600 0 -181 -271 -529 -350 -450 -36 37 10 183 104 325 93 143 127 259 76 259 -128 0 -580 -814 -556 -1000 14 -100 1 -108 -36 -23 -39 89 -165 32 -417 -189 -244 -214 -375 -275 -404 -189 -24 71 29 169 117 218 88 49 244 280 347 513 103 233 251 491 329 572 442 463 690 842 690 1056 0 388 -191 280 -411 -233 -112 -261 -271 -513 -353 -559 -82 -46 -234 -223 -338 -394 l-189 -310 -114 294 c-169 435 -157 1184 24 1461 97 147 366 305 704 411 300 95 628 262 727 372 242 268 317 253 497 -95z m5928 -553 c49 -38 -289 -649 -395 -714 -70 -44 -91 40 -61 248 26 173 9 314 -36 314 -46 0 -83 -67 -83 -150 0 -82 -46 -150 -102 -150 -57 0 -146 -114 -199 -253 -53 -138 -166 -279 -251 -312 -216 -82 -510 -664 -361 -714 169 -56 136 -498 -44 -599 -87 -49 -211 -193 -275 -322 -208 -414 -354 -350 -387 169 l-31 481 -443 -431 c-444 -432 -1084 -698 -986 -409 26 77 144 126 263 109 119 -17 216 11 216 63 0 52 304 351 675 664 609 514 959 888 1721 1840 196 245 298 295 500 247 140 -34 265 -70 279 -81z m777 -318 c273 -273 601 -857 729 -1296 138 -478 160 -1638 30 -1638 -120 0 -411 630 -411 890 0 120 -64 210 -150 210 -207 0 -198 -618 16 -1030 193 -371 244 -1479 72 -1539 -195 -68 -926 1574 -994 2229 -33 324 -100 714 -147 866 -98 310 98 992 371 1294 201 222 273 224 484 14z m-6352 -891 c0 -141 -52 -353 -116 -472 -152 -286 -285 -883 -181 -819 45 28 111 184 147 348 84 381 212 458 345 209 81 -152 61 -273 -89 -528 -116 -197 -204 -553 -218 -881 -37 -891 -58 -928 -390 -682 -196 145 -360 188 -538 144 -242 -61 -253 -47 -202 262 134 809 260 1177 654 1901 443 815 588 943 588 518z m4961 -18 c130 -171 203 -1625 82 -1625 -32 0 -114 57 -184 127 -250 250 -356 561 -296 865 49 243 28 308 -100 308 -217 0 -208 264 12 392 248 144 335 132 486 -67z m4710 -325 c428 -848 -219 -2254 -1291 -2808 -640 -330 -589 111 93 808 440 450 878 1289 744 1423 -147 147 -274 29 -520 -479 -121 -250 -417 -686 -658 -968 -244 -285 -439 -617 -439 -745 0 -164 -58 -231 -200 -231 -257 0 -256 12 100 1101 350 1069 554 1389 1188 1857 527 389 802 401 983 42z m8125 -579 c-4 -792 -188 -1632 -478 -2178 -115 -216 -343 -697 -508 -1068 -165 -371 -347 -675 -405 -675 -173 0 -119 422 83 644 103 113 266 565 362 1004 95 439 196 855 223 925 26 70 0 127 -60 127 -167 0 -382 -496 -458 -1055 -163 -1202 -422 -575 -300 726 61 653 114 799 441 1211 204 257 446 530 537 605 92 76 167 246 167 379 0 210 26 227 200 134 170 -91 199 -207 196 -779z m-16511 -529 c33 -727 9 -858 -272 -1446 -170 -355 -357 -646 -415 -646 -132 0 -29 636 165 1019 86 170 100 292 38 331 -55 33 -175 -99 -269 -295 -204 -429 -289 -446 -364 -71 -75 376 114 948 528 1594 428 669 541 576 589 -486z m14172 98 c202 -301 345 -640 349 -825 29 -1613 97 -3018 154 -3196 63 -198 53 -204 -106 -73 -96 80 -248 156 -339 169 -229 32 -644 550 -807 1005 -74 209 -182 493 -239 630 -166 403 -81 1855 139 2368 106 247 192 509 192 582 0 210 246 240 282 34 18 -102 186 -414 375 -694z m-13180 391 c-22 -65 -93 -136 -158 -158 -73 -24 -96 21 -58 119 69 181 276 219 216 39z m8123 -731 c-71 -85 -151 -132 -179 -105 -27 28 8 120 79 205 71 85 151 132 179 105 27 -28 -8 -120 -79 -205z m-7220 -639 c26 -551 -6 -683 -286 -1142 -418 -687 -931 -1169 -1244 -1169 -210 0 -250 47 -250 292 0 215 102 380 386 625 510 440 897 1183 616 1183 -53 0 -177 -149 -275 -331 -97 -182 -394 -528 -659 -769 l-481 -438 65 294 c149 666 267 925 543 1189 358 343 1319 947 1455 914 55 -14 113 -305 130 -648z m1634 257 c372 -106 475 -198 701 -621 145 -274 294 -744 331 -1047 l67 -550 -382 574 c-209 315 -426 559 -481 541 -215 -68 -155 -406 148 -827 634 -884 71 -1081 -708 -248 -454 485 -461 502 -517 1322 -61 889 38 1286 273 1091 73 -60 328 -166 568 -235z m-6359 -143 c-148 -827 -273 -1119 -635 -1489 -326 -333 -1089 -701 -1208 -582 -21 22 42 165 141 318 423 654 469 780 157 432 -170 -191 -310 -382 -310 -425 0 -44 -45 -79 -100 -79 -124 0 -130 407 -12 718 218 572 1353 1482 1847 1482 162 0 178 -51 120 -375z m-3155 -481 c0 -134 -45 -244 -100 -244 -55 0 -100 138 -100 306 0 178 42 280 100 244 55 -34 100 -172 100 -306z m14798 -519 c3 -526 -164 -552 -473 -75 -270 416 -278 526 -55 773 167 183 175 182 348 -43 105 -135 178 -404 180 -655z m-10074 -1130 c528 -1053 562 -1195 283 -1195 -250 0 -490 245 -571 582 -93 390 -138 440 -287 317 -110 -91 -107 -187 20 -560 85 -247 125 -478 91 -512 -128 -128 -620 484 -759 945 -170 560 -156 1532 22 1642 286 177 723 -267 1201 -1219z m-4723 800 c121 -447 43 -925 -110 -683 -90 141 -129 1088 -45 1088 26 0 95 -182 155 -405z m8320 5 c27 -182 0 -300 -68 -300 -191 0 -332 207 -280 408 78 296 299 227 348 -108z m5954 -400 c412 -472 793 -1309 680 -1492 -37 -60 -312 -108 -612 -108 -477 0 -591 41 -902 326 -312 287 -362 399 -410 926 l-54 601 336 162 c400 192 452 169 962 -415z m-3115 -73 c-101 -102 -185 51 -102 186 63 102 87 102 121 1 23 -70 15 -154 -19 -187z m7738 -331 c-134 -325 -370 -557 -467 -460 -36 35 -18 165 40 289 57 124 158 359 225 523 108 267 131 279 221 117 70 -124 64 -269 -19 -469z m-15892 -530 c-46 -46 -176 -35 -289 25 -112 60 -319 109 -460 109 -351 0 -329 246 36 397 161 67 375 212 475 323 179 198 183 194 252 -284 39 -267 32 -524 -14 -570z m9459 881 c33 -85 9 -344 -52 -575 -269 -1026 -134 -4146 237 -5451 212 -748 430 -943 960 -858 318 51 390 26 503 -177 76 -135 137 -575 142 -1030 10 -836 144 -1066 410 -702 225 307 236 118 38 -659 -309 -1210 -492 -1718 -756 -2099 -219 -317 -617 -1373 -1110 -2946 -543 -1735 -2190 -4806 -2703 -5039 -795 -362 -1857 -1566 -2604 -2952 l-221 -409 -4 481 c-4 415 36 517 295 734 346 291 654 1191 563 1646 -85 426 75 751 404 821 156 33 453 230 660 439 486 488 1591 1990 1754 2384 204 491 882 1398 1022 1365 168 -40 294 166 295 487 3 360 363 1694 494 1825 59 59 108 224 108 365 0 142 108 684 239 1205 295 1167 518 2705 427 2942 -37 97 -125 155 -196 127 -165 -63 -389 112 -547 429 -69 138 -242 452 -384 700 -142 248 -301 585 -352 750 -354 1141 -585 5541 -308 5875 68 82 96 223 62 312 -49 129 3 163 251 163 190 0 338 -61 373 -153z m-4265 -147 c420 -299 900 -1399 900 -2061 0 -297 -45 -539 -100 -539 -55 0 -100 236 -100 524 0 439 -59 610 -362 1050 -199 289 -391 527 -425 529 -176 10 -528 414 -477 547 78 202 229 189 564 -50z m-8138 -682 c54 -345 -116 -522 -212 -219 -64 204 28 656 116 568 27 -26 70 -183 96 -349z m11319 -144 c23 -274 -16 -386 -162 -464 -135 -72 -208 -246 -244 -582 -56 -531 -247 -1089 -341 -995 -34 33 -74 186 -91 339 -16 153 -58 472 -93 710 -70 468 127 918 400 918 81 0 175 114 210 254 90 359 284 250 321 -180z m-9677 33 c-157 -293 -138 -308 321 -247 292 38 486 10 621 -91 193 -145 191 -154 -82 -549 -153 -221 -407 -455 -564 -520 -313 -130 -783 -43 -625 115 52 52 74 311 49 575 -46 476 89 910 283 910 65 0 64 -67 -3 -193z m6325 -332 c540 -670 758 -1582 410 -1715 -448 -172 -1487 377 -1589 840 -95 434 -20 463 392 149 391 -298 738 -283 571 25 -53 97 -232 305 -398 463 -255 243 -283 316 -184 475 184 295 427 223 798 -237z m11266 281 c85 -102 89 -199 15 -337 -57 -106 -126 -525 -154 -931 -27 -406 -144 -983 -260 -1282 -115 -299 -189 -624 -163 -722 26 -99 -164 -545 -429 -1007 -262 -456 -506 -925 -542 -1041 -91 -285 -1205 -1336 -1417 -1336 -138 0 -158 61 -106 325 35 179 136 379 224 445 504 376 869 800 1125 1307 349 691 770 1921 851 2483 32 225 123 630 202 900 78 269 193 681 255 915 119 451 206 513 399 281z m-9306 -703 c-11 -396 31 -706 107 -798 97 -118 101 -292 15 -786 -61 -350 -111 -778 -111 -952 0 -390 -162 -417 -244 -42 -105 476 -239 1852 -194 1971 25 63 -22 272 -102 465 -156 372 -128 469 190 658 331 197 357 157 339 -516z m8318 78 c-58 -210 -106 -595 -106 -856 -1 -385 -34 -475 -176 -476 -96 0 -310 -90 -475 -199 -348 -230 -603 -250 -979 -75 -191 89 -270 201 -270 386 -1 221 36 254 235 216 232 -44 790 342 1164 805 83 102 260 323 395 491 285 354 362 248 212 -292z m5113 281 c-57 -35 -225 -304 -372 -598 -273 -544 -409 -573 -466 -100 -26 212 58 336 418 623 248 197 467 309 487 249 21 -60 -10 -138 -67 -174z m-10383 -154 c317 -415 826 -601 1408 -514 454 68 555 -14 555 -454 0 -157 -48 -182 -251 -131 -144 36 -315 11 -400 -60 -213 -177 -184 -301 65 -273 380 42 299 -173 -159 -423 -437 -239 -453 -240 -776 -69 -969 518 -879 377 -879 1371 0 492 40 895 88 895 49 0 206 -154 349 -342z m-8159 -458 c190 0 232 -30 153 -109 -133 -133 -535 49 -523 238 6 91 20 90 58 -4 28 -69 168 -125 312 -125z m-210 -563 c457 -224 528 -295 472 -475 -93 -303 -118 -313 -323 -128 -204 185 -317 129 -317 -156 0 -120 124 -240 341 -331 271 -113 330 -185 287 -350 -82 -312 -692 -236 -957 121 -288 387 -371 1582 -109 1582 37 0 310 -118 606 -263z m-2207 -1582 c-166 -1279 -192 -1355 -455 -1355 -249 0 -592 826 -698 1679 -45 369 -66 700 -46 735 19 35 183 91 362 125 179 34 461 144 626 245 299 183 300 183 331 -44 17 -125 -37 -748 -120 -1385z m8932 583 c6 -337 -67 -505 -402 -925 -225 -283 -450 -488 -500 -457 -51 31 -86 327 -78 658 12 533 41 615 254 712 132 60 315 266 405 457 144 302 175 322 239 157 41 -105 78 -375 82 -602z m-4342 418 c531 -361 1366 -512 1754 -318 227 113 316 121 347 32 86 -250 90 -635 11 -1048 -64 -335 -45 -485 87 -686 144 -219 160 -432 111 -1422 -32 -640 -109 -1579 -172 -2085 -123 -1004 -60 -1745 163 -1931 123 -102 123 -157 -4 -402 -81 -156 -120 -354 -87 -440 35 -91 -23 -230 -138 -331 -109 -96 -281 -467 -384 -825 -250 -875 -246 -3583 8 -5087 195 -1154 176 -1209 -413 -1211 -295 -2 -321 27 -385 423 -38 234 -156 785 -261 1225 -132 552 -212 1365 -256 2625 -35 1004 -100 1825 -144 1825 -138 0 -266 -330 -387 -993 -63 -351 -199 -867 -301 -1148 -863 -2362 -1214 -4799 -905 -6284 100 -484 94 -599 -45 -811 -189 -288 -547 -1930 -549 -2515 -1 -300 -142 -650 -561 -1394 -308 -547 -596 -1086 -641 -1200 -44 -113 -240 -426 -434 -696 l-353 -491 -31 491 c-17 270 -1 581 36 691 156 467 482 2170 583 3047 68 592 169 1014 268 1123 131 144 139 247 51 597 -69 272 -76 567 -17 828 49 223 189 1170 309 2105 194 1507 301 1974 493 2150 191 175 566 992 850 1850 182 550 424 1258 538 1573 115 314 208 725 208 912 0 187 73 537 161 777 89 241 220 784 291 1207 99 582 211 882 464 1234 369 514 929 1459 1094 1847 59 138 190 430 290 650 199 434 522 1661 455 1729 -74 73 -255 -87 -255 -226 0 -235 -597 -1773 -971 -2503 -617 -1204 -845 -1347 -756 -475 46 459 126 654 392 967 436 512 691 1052 930 1965 224 858 421 2010 355 2076 -87 87 -350 -209 -350 -394 0 -213 -853 -883 -1129 -887 -356 -4 -671 301 -671 652 l0 332 575 -41 575 -40 -428 104 c-329 80 -487 193 -684 492 -141 213 -228 435 -192 493 88 142 93 141 505 -138z m14377 -567 c66 -435 -140 -792 -659 -1145 -590 -401 -696 -344 -613 331 90 731 204 1034 366 973 70 -26 262 41 426 149 344 227 406 188 480 -308z m-8173 -147 l442 -259 540 274 c297 150 607 248 688 216 105 -40 168 -292 218 -863 85 -975 28 -1112 -329 -782 -377 349 -829 479 -1256 362 -193 -54 -378 -141 -410 -194 -108 -174 -325 -100 -380 129 -29 124 -84 484 -122 800 -81 671 -36 695 609 317z m4616 90 c70 -184 -262 -1205 -636 -1955 -357 -715 -935 -797 -935 -133 0 310 30 340 444 444 244 62 472 157 506 212 116 188 -48 286 -338 203 -418 -119 -539 12 -591 645 l-47 566 338 -55 c186 -30 496 7 688 81 475 185 497 184 571 -8z m-17905 -659 c-28 -68 -49 12 -47 177 3 165 25 220 50 123 26 -97 24 -232 -3 -300z m4739 -257 c671 39 673 -246 2 -353 -218 -35 -563 -162 -766 -281 l-369 -218 74 593 c96 772 132 815 424 500 195 -210 324 -260 635 -241z m6797 -141 c3 -285 51 -568 248 -1439 33 -149 -8 -228 -136 -261 -132 -35 -202 -176 -243 -487 -250 -1882 -560 -2811 -805 -2413 -41 66 -112 3502 -79 3784 7 60 128 161 269 225 140 64 227 162 193 217 -70 113 314 699 458 699 51 0 94 -146 95 -325z m10187 -86 c133 -382 76 -489 -260 -489 -142 0 -523 -96 -846 -214 -323 -118 -614 -189 -645 -157 -99 99 65 271 257 271 101 0 208 64 238 142 32 82 135 121 245 93 130 -34 280 59 481 300 160 193 320 354 356 358 36 4 114 -133 174 -304z m-11689 -296 c0 -278 43 -587 96 -686 53 -99 128 -727 165 -1394 62 -1084 50 -1235 -109 -1411 -138 -152 -163 -285 -111 -575 38 -207 86 -512 108 -677 22 -165 104 -637 183 -1050 79 -412 195 -1053 257 -1422 63 -370 160 -793 215 -939 56 -147 78 -290 49 -320 -29 -29 -53 0 -53 64 0 65 -45 117 -100 117 -191 0 -99 -296 142 -454 364 -239 702 -1019 569 -1313 -59 -128 -141 -230 -184 -227 -42 3 -245 267 -451 586 -404 629 -685 1550 -719 2353 -11 278 -50 573 -86 655 -35 83 -81 401 -101 708 -21 307 -72 615 -114 683 -137 221 -164 4913 -32 5384 161 571 276 536 276 -82z m-1747 -481 c-183 -693 -740 -1812 -903 -1812 -144 0 -246 307 -250 750 -2 165 -72 497 -155 738 -84 241 -126 464 -94 497 33 32 204 47 379 32 217 -18 431 55 665 228 189 141 379 221 422 178 42 -42 14 -317 -64 -611z m-8187 161 c-28 -68 -49 12 -47 177 3 165 25 220 50 123 26 -97 24 -232 -3 -300z m18598 -557 c-180 -417 -464 -1870 -464 -2377 0 -401 -116 -433 -338 -93 -282 429 -591 654 -906 657 l-306 3 300 222 c664 490 1134 1164 1562 2241 l112 281 99 -284 c75 -213 60 -374 -59 -650z m-4264 515 c133 -138 133 -150 0 -107 -204 66 -500 -98 -500 -278 0 -80 65 -146 144 -146 209 0 305 -207 144 -310 -76 -48 -300 -88 -498 -88 -445 -2 -718 267 -672 664 55 489 993 669 1382 265z m-9187 2 c123 -150 112 -161 -103 -106 -254 66 -810 -161 -810 -330 0 -53 133 -97 295 -97 374 0 805 -193 805 -360 0 -186 -403 -440 -697 -439 -139 0 -385 69 -546 153 -562 293 -766 -25 -232 -362 265 -167 431 -195 895 -150 314 30 593 18 620 -26 151 -244 153 -2028 3 -2816 -89 -467 -198 -1120 -243 -1450 -156 -1150 -931 -3110 -1276 -3225 -94 -32 -124 257 -124 1204 0 981 -32 1273 -149 1370 -82 68 -215 98 -297 67 -212 -82 -269 64 -319 816 -24 368 -84 1084 -133 1592 -49 509 -65 1049 -36 1200 30 152 61 396 70 542 9 146 93 350 186 453 92 102 199 388 237 634 91 595 269 926 664 1237 386 305 978 351 1190 93z m16583 -379 c167 -201 104 -271 -675 -741 -718 -434 -1062 -512 -1157 -263 -32 83 -127 150 -211 150 -445 0 133 537 853 792 664 236 1031 255 1190 62z m935 -2554 c33 -742 113 -1597 179 -1900 98 -449 91 -761 -38 -1703 -252 -1832 -657 -2681 -1481 -3101 -475 -243 -491 -243 -491 6 0 123 -96 240 -245 296 -134 51 -311 196 -393 323 -426 658 -812 2279 -543 2279 275 0 1063 647 1220 1001 171 389 204 599 94 599 -122 0 -433 -329 -433 -458 0 -138 -566 -742 -695 -742 -43 0 -39 214 9 475 116 618 508 1020 1068 1095 384 52 421 35 525 -232 62 -158 117 -500 122 -759 10 -540 -162 -789 -753 -1091 -310 -158 -408 -170 -573 -66 -165 103 -228 96 -363 -39 -244 -244 -85 -383 436 -383 561 0 1084 324 1365 847 105 194 228 353 275 353 46 0 82 124 80 275 -4 388 -258 1527 -363 1632 -136 136 -1104 -161 -1495 -459 -193 -147 -392 -376 -442 -508 -154 -406 -277 -269 -344 385 -65 624 2 2962 86 3047 25 24 136 -4 247 -64 381 -204 770 -118 1424 316 882 584 889 585 1195 234 253 -292 270 -379 327 -1658z m-7685 1125 c-39 -426 -90 -809 -114 -850 -117 -201 -215 -22 -275 500 -36 316 -89 699 -119 850 -50 253 -29 275 263 275 l316 0 -71 -775z m-3047 277 c120 -224 -6 -1213 -238 -1871 -359 -1017 -1044 -2001 -1209 -1735 -105 171 49 904 191 904 69 0 197 79 284 175 162 181 507 1417 627 2250 74 510 176 592 345 277z m794 -1296 c124 -107 293 -167 381 -133 359 138 -40 -2040 -785 -4294 -527 -1593 -548 -1631 -808 -1458 -243 162 -533 877 -734 1811 -227 1051 -200 1317 156 1570 324 231 891 1257 1103 1998 133 464 265 700 391 700 40 0 173 -87 296 -194z m4656 -404 c138 -219 251 -444 251 -500 0 -156 -467 -121 -636 48 -82 83 -214 150 -293 150 -79 0 -267 97 -418 216 l-275 215 236 131 c130 72 382 133 560 134 270 3 365 -62 575 -394z m651 -702 c0 -223 -46 -300 -182 -300 -100 0 -279 -111 -397 -247 -401 -462 -1108 -411 -1338 95 -63 139 -153 252 -199 252 -46 0 -84 90 -84 200 0 241 74 248 482 44 680 -339 1518 -308 1518 58 0 109 45 198 100 198 55 0 100 -135 100 -300z m7 -1175 c3 -371 25 -832 48 -1025 301 -2539 560 -3730 894 -4099 145 -160 150 -259 46 -816 -66 -349 -256 -1085 -422 -1635 -166 -550 -334 -1225 -373 -1500 -40 -275 -78 -433 -86 -352 -15 162 -378 1138 -537 1443 -77 149 -54 227 103 350 593 467 747 1211 471 2273 -153 586 -298 772 -534 685 -73 -27 -242 -49 -375 -49 -269 0 -999 -605 -1095 -909 -93 -294 -213 -146 -226 280 -24 757 -142 1595 -334 2364 -298 1192 -338 1913 -146 2660 91 354 189 668 219 698 29 30 129 -41 222 -158 432 -544 1147 -493 1680 120 158 182 322 334 363 338 41 4 78 -297 82 -668z m-8445 -1450 c-281 -2006 -302 -4742 -42 -5407 89 -229 79 -312 -55 -446 -153 -153 -165 -148 -165 71 0 129 -66 285 -147 346 -243 184 -377 1469 -327 3152 38 1281 84 1657 260 2108 118 301 214 560 214 575 0 14 72 26 161 26 131 0 149 -77 101 -425z m4786 -2879 c159 -630 310 -1618 379 -2483 111 -1404 109 -1445 -106 -1819 -122 -211 -221 -456 -221 -545 0 -118 -75 -154 -275 -131 -300 35 -348 143 -670 1530 -188 812 -575 1704 -879 2027 -209 223 -209 233 -32 601 202 420 478 1248 640 1924 59 248 244 717 412 1043 167 327 310 664 318 750 8 86 49 -295 92 -847 43 -553 196 -1475 342 -2050z m-4409 1179 c75 -498 441 -1559 612 -1775 257 -325 240 -505 -106 -1095 -421 -719 -517 -790 -638 -474 -129 340 -248 2744 -164 3306 87 578 212 594 296 38z m-2933 -1550 c15 -672 123 -1337 400 -2465 367 -1489 459 -2635 263 -3260 -152 -486 -409 -610 -415 -200 -2 138 -49 273 -104 300 -148 74 -236 -1437 -225 -3836 9 -1820 -11 -2098 -151 -2176 -97 -55 -184 -53 -219 4 -99 160 -75 2399 38 3558 59 605 111 1190 116 1300 5 110 24 538 42 950 19 413 49 1522 67 2465 29 1546 -11 1975 -171 1815 -51 -50 -146 -2946 -147 -4449 l0 -720 -308 281 c-264 242 -321 385 -404 1020 -156 1198 73 2940 601 4565 166 510 329 971 362 1025 116 188 249 96 255 -177z m10666 -563 c12 -13 78 -349 146 -747 136 -792 101 -917 -344 -1250 -229 -171 -299 -179 -568 -68 -168 70 -306 146 -306 169 0 23 180 213 400 423 276 262 400 465 400 653 0 206 -43 264 -175 239 -96 -18 -189 -131 -206 -250 -17 -119 -242 -411 -500 -649 -461 -424 -470 -428 -504 -185 -19 135 15 263 75 283 61 20 110 145 110 278 0 133 45 242 100 242 55 0 100 72 100 160 0 88 158 318 351 511 291 291 397 339 624 282 151 -38 285 -79 297 -91z m-5672 -2787 c358 -793 694 -1953 702 -2425 8 -443 226 -769 706 -1052 242 -143 459 -360 501 -500 41 -136 218 -765 392 -1398 175 -632 450 -1485 613 -1894 275 -693 283 -750 119 -842 -97 -54 -281 -203 -409 -331 -291 -291 -336 -290 -619 11 -138 147 -433 288 -742 355 -474 102 -526 94 -687 -104 -665 -819 -232 -2995 596 -2995 493 0 127 -134 -397 -145 -289 -7 -654 -76 -811 -155 -260 -129 -344 -120 -900 91 -338 128 -807 301 -1042 384 -463 163 -736 493 -518 628 69 42 96 151 61 243 -35 91 34 354 153 585 199 384 220 602 255 2602 28 1625 -2 2451 -118 3228 -85 575 -155 1201 -155 1392 0 280 -38 347 -200 347 -110 0 -200 57 -200 127 0 134 666 540 750 456 96 -95 358 -1702 505 -3083 193 -1827 58 -4772 -246 -5368 -259 -509 -313 -1032 -105 -1032 352 0 791 2058 794 3720 2 975 -252 4257 -358 4630 -31 110 -77 520 -101 910 -35 556 -12 738 108 838 84 69 153 164 153 209 0 141 705 1293 791 1293 45 0 229 -326 409 -725z m4945 -91 c140 -64 255 -179 255 -255 0 -76 62 -260 137 -409 323 -635 309 -690 -191 -765 -529 -80 -946 118 -946 447 0 159 68 198 344 198 393 0 530 140 349 359 -84 101 -217 130 -406 88 -398 -87 -541 28 -328 263 197 218 423 239 786 74z m1073 -2041 c-17 -106 -30 -1082 -27 -2168 l4 -1975 -242 0 c-132 0 -269 45 -303 100 -92 149 -408 121 -550 -50 -244 -295 -370 -151 -545 625 -96 426 -216 933 -267 1125 -50 193 -161 683 -247 1091 -146 696 -145 761 27 1085 178 336 193 343 691 293 279 -28 569 -13 644 33 75 46 296 73 492 59 289 -20 349 -61 323 -218z m-8519 -1425 c211 -1514 240 -3783 62 -4893 -156 -971 -321 -1526 -452 -1524 -32 1 -149 237 -259 525 -153 402 -280 564 -544 696 -403 201 -806 608 -806 813 0 79 -69 170 -153 202 -130 50 -151 306 -139 1661 11 1285 41 1602 152 1602 75 0 277 281 449 625 261 522 643 1059 1239 1741 132 150 305 -408 451 -1448z m7844 -3116 c235 -89 382 -502 179 -502 -159 0 -522 317 -522 456 0 171 12 172 343 46z m807 -502 c0 -664 -200 -782 -292 -172 -72 482 5 801 179 743 65 -22 113 -264 113 -571z m-2624 -1722 c-112 -230 -130 -299 -376 -1478 -316 -1510 -403 -1460 -388 219 l12 1319 287 229 c250 199 305 210 431 84 113 -113 121 -195 34 -373z m-8016 193 c89 -67 192 -221 231 -342 65 -205 40 -219 -361 -203 -236 9 -551 -20 -699 -64 -250 -75 -267 -61 -240 194 22 209 110 303 369 397 446 162 510 163 700 18z m5950 25 c160 -57 367 -210 462 -340 212 -290 487 -1011 528 -1383 46 -417 -157 -986 -339 -951 -168 32 -240 272 -395 1316 -110 736 -240 978 -426 792 -79 -79 -75 -261 14 -661 68 -303 93 -632 56 -729 -62 -161 -91 -155 -318 73 -199 198 -266 397 -327 966 -107 999 34 1172 745 917z m2636 -884 c72 -218 106 -462 76 -541 -53 -137 -573 -302 -665 -210 -43 42 177 1015 263 1166 78 136 192 -8 326 -415z m1103 -426 c1 -35 -118 -94 -265 -131 -295 -74 -437 61 -363 346 44 169 64 170 337 14 160 -91 291 -194 291 -229z m-10012 -1986 c41 -2474 18 -2600 -461 -2600 l-249 0 57 2077 c58 2104 184 2823 492 2823 94 0 133 -561 161 -2300z m10738 1702 c421 -332 431 -646 40 -1236 -289 -435 -1108 -1166 -1306 -1166 -139 0 -36 204 266 528 597 638 614 676 620 1389 3 375 33 683 67 683 33 0 175 -89 313 -198z m-774 -504 c126 -399 -55 -783 -575 -1218 l-511 -428 69 344 c38 190 162 443 275 564 144 153 171 240 90 290 -130 81 -699 -418 -699 -613 0 -203 -176 -253 -403 -115 -170 102 -201 195 -159 465 94 599 611 900 1057 618 103 -65 185 -35 281 102 177 252 493 247 575 -9z m1386 -923 c99 -369 73 -415 -130 -231 -107 96 -169 238 -140 315 80 209 202 171 270 -84z m-100 -881 c321 -189 344 -234 292 -575 -115 -742 -648 -1508 -1054 -1516 -239 -4 -220 168 34 321 236 142 716 1054 630 1194 -77 124 -319 -89 -498 -436 -206 -399 -420 -350 -632 143 -210 487 -150 692 269 919 370 201 550 192 959 -50z m1556 -821 c85 -135 91 -229 20 -300 -99 -99 -1027 -285 -1097 -220 -83 77 122 474 357 692 280 260 481 212 720 -172z m-12321 -598 c-22 -179 -40 -32 -40 325 0 358 18 504 40 325 23 -179 23 -471 0 -650z"/>
<path d="M6674 39340 c-91 -90 34 -347 136 -284 50 31 90 121 90 200 0 147 -119 192 -226 84z"/>
<path d="M20766 34875 c-66 -562 -5 -890 233 -1250 154 -232 401 -306 401 -120 0 58 -72 245 -161 415 -97 189 -157 539 -152 895 6 426 -28 585 -126 585 -87 0 -155 -184 -195 -525z"/>
<path d="M3167 35033 c-37 -36 -67 -113 -67 -170 0 -62 47 -56 118 15 65 65 95 142 67 170 -28 29 -82 22 -118 -15z"/>
<path d="M14743 32989 c-83 -134 437 -580 682 -585 254 -6 215 171 -100 448 -302 266 -477 307 -582 137z"/>
<path d="M14911 23825 c-236 -196 -406 -825 -223 -825 61 0 112 64 112 143 0 79 135 240 300 357 312 222 402 500 161 500 -76 0 -234 -79 -350 -175z"/>
<path d="M11481 15970 c-581 -632 -906 -1188 -822 -1407 68 -177 310 -211 528 -73 112 71 105 105 -36 184 -226 126 -142 391 313 988 380 497 392 715 17 308z"/>
<path d="M2704 32106 c-120 -168 -181 -305 -136 -303 110 4 465 498 403 560 -27 27 -147 -89 -267 -257z"/>
<path d="M13900 31509 c0 -174 436 -409 760 -409 344 0 673 263 426 341 -347 110 -1186 158 -1186 68z"/>
<path d="M21506 29637 c-118 -199 -188 -389 -156 -421 74 -73 542 491 546 659 7 236 -177 124 -390 -238z"/>
<path d="M21146 27293 c-117 -189 54 -236 228 -62 156 156 156 169 3 169 -91 0 -195 -48 -231 -107z"/>
<path d="M38 38110 c28 -260 130 -523 252 -644 324 -325 325 -157 1 488 l-299 596 46 -440z"/>
<path d="M1567 32333 c-83 -295 -25 -1591 73 -1639 81 -40 94 1706 12 1787 -18 19 -57 -48 -85 -148z"/>
<path d="M24870 25466 c-28 -74 -11 -198 38 -275 65 -103 89 -66 90 134 2 299 -47 352 -128 141z"/>
<path d="M2703 24912 c-127 -473 -28 -3285 119 -3376 144 -89 217 46 101 187 -59 71 -108 622 -111 1257 -3 621 -26 1162 -51 1201 -24 40 -3 293 48 562 113 608 43 721 -106 169z"/>
<path d="M24403 20922 c-2 -181 -68 -483 -147 -673 -93 -223 -108 -367 -43 -407 152 -94 226 27 348 567 87 389 83 528 -22 666 -119 157 -133 141 -136 -153z"/>
<path d="M3707 18019 c-4 -330 31 -507 93 -469 120 74 120 521 0 800 -63 147 -88 58 -93 -331z"/>
<path d="M23514 18292 c-197 -78 -216 -119 -112 -245 102 -123 92 -187 -54 -349 -173 -191 -172 -198 29 -198 238 0 645 463 602 685 -38 193 -173 224 -465 107z"/>
<path d="M24915 18294 c-8 -86 -106 -344 -216 -573 -226 -467 -614 -716 -1207 -775 -555 -55 -858 -295 -1047 -829 -306 -865 -494 -1263 -823 -1744 -181 -263 -374 -596 -429 -740 -180 -475 -340 -6119 -178 -6281 36 -36 232 -81 436 -100 204 -19 416 -79 471 -134 156 -156 220 -996 88 -1156 -89 -107 -81 -152 37 -197 84 -32 154 -161 155 -287 2 -420 245 -1039 621 -1586 209 -303 459 -850 568 -1242 278 -1003 509 -2086 509 -2389 0 -239 35 -261 407 -261 374 0 401 18 342 225 -36 124 -87 306 -115 404 -35 124 -109 161 -242 118 -163 -51 -192 -10 -194 271 -2 183 -50 535 -108 782 -58 248 -124 645 -147 884 -33 348 -253 954 -516 1426 -19 33 137 49 345 36 429 -27 659 68 1053 435 233 217 274 334 267 763 l-8 506 -117 -450 c-95 -364 -189 -488 -491 -650 -314 -168 -405 -180 -577 -73 -218 136 -545 34 -621 -194 -51 -153 -278 -15 -278 169 0 200 418 563 577 501 74 -28 233 54 354 183 120 128 320 287 444 352 124 66 225 162 225 216 0 185 -407 94 -950 -213 -620 -349 -983 -351 -418 -2 375 232 513 491 193 362 -96 -39 -235 -95 -308 -124 -96 -40 -124 25 -100 234 31 272 63 290 533 313 1227 59 1550 130 1550 339 0 189 -57 197 -1100 165 -1257 -40 -1319 9 -744 585 426 426 515 635 546 1290 40 837 4 1201 -138 1395 -132 180 -144 180 -425 -15 -159 -110 -501 -301 -760 -424 -494 -234 -943 -798 -843 -1058 30 -80 14 -170 -37 -202 -164 -101 -225 439 -162 1432 34 533 88 1532 121 2219 54 1135 86 1296 347 1750 543 947 895 1701 895 1918 0 288 422 574 1073 728 801 189 1307 849 1200 1567 -24 158 -50 217 -58 131z m-1665 -9365 c0 -633 -30 -749 -260 -998 -144 -154 -290 -363 -325 -464 -74 -208 -300 -177 -344 47 -15 81 86 316 225 521 455 670 252 800 -258 165 -242 -302 -393 -400 -613 -400 -190 0 -276 44 -248 125 24 69 162 112 305 97 255 -28 261 -14 248 506 -17 653 33 742 557 982 650 297 713 245 713 -581z"/>
<path d="M21026 16075 c-150 -191 -224 -717 -124 -879 135 -217 265 -16 342 529 67 469 -17 605 -218 350z"/>
<path d="M3972 15725 c-87 -206 -184 -712 -216 -1125 -72 -917 -217 -2054 -310 -2425 -84 -332 99 -378 200 -50 93 304 241 1446 317 2447 54 718 92 841 299 977 287 188 322 551 53 551 -119 0 -241 -134 -343 -375z"/>
<path d="M20332 14686 c-285 -350 -420 -919 -427 -1808 -4 -510 -35 -1243 -69 -1628 -88 -984 -88 -1316 -3 -1995 79 -637 106 -705 240 -622 48 30 50 445 4 935 -45 485 -56 1017 -24 1182 32 165 79 990 106 1833 36 1160 85 1591 203 1772 178 271 152 554 -30 331z"/>
<path d="M15967 10425 c26 -426 109 -955 184 -1175 75 -220 163 -563 195 -762 60 -376 344 -788 541 -788 160 0 140 204 -40 403 -201 223 -644 2020 -646 2622 -1 339 -41 475 -141 475 -111 0 -130 -156 -93 -775z"/>
<path d="M6973 10937 c-30 -49 2 -196 72 -327 69 -130 151 -197 182 -147 30 49 -2 196 -72 327 -69 130 -151 197 -182 147z"/>
<path d="M3698 10343 c-54 -141 -98 -317 -98 -391 0 -75 -92 -350 -205 -613 -269 -629 -231 -989 105 -989 232 0 250 35 257 500 3 275 82 715 175 978 92 264 168 545 168 625 0 246 -298 164 -402 -110z"/>
<path d="M5929 7377 c-149 -190 -638 -1301 -593 -1347 22 -21 202 286 400 684 340 680 418 952 193 663z"/>
<path d="M20602 6602 c-163 -163 -202 -333 -202 -886 0 -566 54 -792 312 -1308 230 -460 282 -654 200 -736 -62 -62 -112 -189 -112 -283 0 -185 485 -639 784 -734 200 -63 416 -451 416 -747 0 -101 67 -239 149 -307 226 -188 273 57 126 649 -111 445 -176 527 -595 753 -646 349 -652 361 -337 690 250 260 268 324 176 623 -57 184 -132 548 -167 809 -86 636 -250 605 -260 -50 l-7 -525 -135 350 c-206 536 -185 1072 50 1273 253 217 254 391 2 526 -157 84 -239 64 -400 -97z"/>
<path d="M4575 4970 c-363 -396 -477 -670 -280 -670 107 0 805 880 805 1014 0 163 -152 64 -525 -344z"/>
<path d="M3700 3658 c0 -188 -27 -413 -61 -500 -40 -104 -5 -158 100 -158 126 0 161 107 161 500 0 275 -45 500 -100 500 -55 0 -100 -154 -100 -342z"/>
<path d="M2315 3728 c-111 -208 -306 -2246 -302 -3153 2 -382 44 -575 124 -575 88 0 126 375 138 1375 9 756 64 1619 121 1916 112 580 82 742 -81 437z"/>
<path d="M2872 1325 c-313 -347 -495 -1125 -263 -1125 61 0 133 90 162 200 29 110 92 200 141 200 48 0 88 90 88 200 0 315 168 233 238 -115 65 -327 227 -585 367 -585 160 0 149 361 -26 849 -98 274 -179 510 -179 525 0 105 -400 -8 -528 -149z"/>
<path d="M12013 1050 c-5 -275 34 -567 87 -650 76 -118 96 -97 93 100 -3 138 -42 430 -87 650 l-83 400 -10 -500z"/>
<path d="M21151 102 c-35 -56 7 -102 93 -102 176 0 202 60 63 146 -51 31 -121 12 -156 -44z"/>
</g>
</svg>