<svg xmlns="http://www.w3.org/2000/svg" version="1.0" width="250" height="525" viewBox="0 0 250.000000 525.000000" preserveAspectRatio="xMidYMid meet">
<metadata>
Created by potrace 1.10, written by Peter Selinger 2001-2011
</metadata>
<g transform="translate(0.000000,525.000000) scale(0.010000,-0.010000)" fill="#555555" stroke="none">
<path d="M0 45383 c0 -3914 16 -7098 37 -7075 20 23 68 3226 106 7117 48 4963 37 7075 -37 7075 -74 0 -106 -2168 -106 -7117z"/>
<path d="M816 48275 c-16 -2324 -46 -5665 -68 -7425 -22 -1760 -63 -5810 -92 -9000 -28 -3190 -75 -7712 -104 -10050 -28 -2337 -77 -6837 -109 -10000 -31 -3162 -72 -7111 -90 -8775 -33 -2921 -28 -3025 156 -3025 131 0 191 71 193 225 2 411 109 449 1473 524 729 40 1325 113 1325 162 0 76 -565 108 -2399 134 l-350 5 34 750 c37 821 61 894 237 718 193 -193 542 -135 875 144 423 357 505 225 107 -173 -480 -480 -654 -779 -527 -906 75 -75 180 11 358 294 139 220 511 619 827 886 752 639 1180 1061 1788 1768 854 993 3302 3469 3429 3469 256 0 93 -253 -668 -1037 -1546 -1594 -2352 -2473 -2739 -2989 -386 -512 -1404 -2476 -1325 -2554 85 -85 262 109 399 437 137 326 169 343 646 343 405 0 491 -29 444 -150 -37 -98 -193 -150 -447 -150 -425 0 -537 -167 -146 -218 236 -31 230 -47 -223 -601 l-465 -569 -602 50 c-494 42 -662 14 -928 -154 -338 -213 -426 -408 -186 -408 77 0 168 73 202 163 52 136 177 156 736 116 391 -28 819 2 1023 72 231 78 440 88 615 28 333 -115 1145 -63 1104 71 -17 55 -107 88 -200 74 -183 -29 -1219 182 -1219 248 0 125 1638 2033 1995 2324 234 191 809 866 1279 1500 469 635 1050 1409 1290 1721 240 311 436 606 436 655 0 176 699 769 793 673 57 -59 -245 -552 -794 -1295 -488 -660 -1141 -1571 -1452 -2025 -311 -453 -600 -846 -642 -872 -42 -26 -225 -442 -406 -925 -182 -483 -436 -1046 -565 -1251 -272 -434 -281 -477 -96 -477 75 0 266 269 425 599 270 564 451 721 583 508 31 -51 -165 -386 -437 -745 -271 -359 -535 -726 -586 -817 -50 -90 -245 -200 -432 -244 -340 -80 -340 -81 110 -91 404 -9 463 19 578 279 156 353 1194 1569 1965 2303 313 297 661 725 774 950 113 224 306 543 429 708 123 165 327 501 452 747 125 246 305 561 401 700 95 139 332 501 526 803 359 561 738 969 822 886 43 -43 -550 -980 -1220 -1929 -307 -433 -876 -1408 -1319 -2257 -342 -656 -609 -1514 -609 -1956 0 -175 -116 -527 -259 -781 -190 -341 -221 -463 -118 -463 139 0 454 482 816 1249 214 454 685 1067 1383 1803 603 635 709 787 1365 1948 713 1264 792 1399 1016 1750 105 165 284 469 396 675 204 373 401 493 401 245 0 -72 -42 -173 -94 -225 -218 -220 -1454 -2377 -1946 -3395 -583 -1208 -818 -1817 -904 -2350 -31 -192 -233 -642 -449 -1000 -216 -357 -348 -666 -293 -685 114 -41 326 213 508 610 84 181 204 275 352 275 302 0 287 -182 -24 -300 -274 -104 -339 -300 -100 -300 83 0 150 -67 150 -150 0 -82 68 -150 150 -150 83 0 150 45 150 100 0 223 856 1983 1192 2450 482 672 443 601 1707 3088 611 1204 1222 2350 1356 2548 483 710 239 15 -562 -1605 -971 -1962 -1134 -2351 -1494 -3581 -153 -522 -400 -1219 -547 -1547 -296 -656 -304 -630 311 -1022 173 -111 169 -120 -63 -127 -282 -8 -575 -162 -484 -253 33 -34 369 -47 747 -31 l687 30 -330 160 -330 161 1030 70 c566 38 1143 93 1280 121 241 50 243 46 57 -104 -106 -86 -172 -177 -147 -202 26 -25 371 -1 768 54 397 55 958 86 1247 69 l525 -31 -600 -80 c-1074 -143 -1074 -254 0 -261 1078 -8 1964 148 3150 554 413 141 941 308 1175 370 234 63 425 146 425 185 0 111 1079 215 1273 122 98 -46 447 -85 777 -86 l600 -2 30 -575 c28 -533 47 -575 272 -575 l242 0 -8 14975 c-4 8236 -29 14893 -56 14793 -55 -210 -151 -185 -747 197 l-433 277 543 81 c402 60 564 48 623 -46 47 -73 78 85 75 373 -4 275 -29 444 -57 375 -110 -271 -977 -1 -1459 453 -341 321 -347 422 -25 422 138 0 250 -36 250 -81 0 -251 313 -456 785 -517 l515 -66 0 944 0 945 -296 -59 c-322 -65 -518 100 -292 244 76 48 239 88 363 88 259 2 305 250 64 342 -148 57 -148 82 0 308 108 164 158 453 153 873 -8 661 -35 671 -138 54 -75 -448 -162 -472 -330 -92 -69 156 -281 465 -472 687 -289 338 -455 432 -1023 574 -1317 331 -1562 352 -2288 200 -380 -79 -815 -144 -966 -144 -151 0 -552 -96 -890 -213 -586 -203 -642 -206 -1126 -57 -280 87 -734 185 -1009 219 -1030 128 -950 35 -950 1103 0 521 34 950 75 951 41 2 323 230 625 507 556 509 1272 924 1793 1038 l284 63 40 -718 c37 -647 69 -741 327 -946 429 -342 787 -372 1610 -133 550 160 835 311 1136 600 305 293 484 386 741 386 402 0 669 -253 669 -634 0 -207 78 -306 333 -428 313 -149 360 -146 807 58 373 169 506 190 618 98 121 -101 142 49 142 1044 0 708 -39 1162 -100 1162 -55 0 -100 68 -100 150 0 83 45 150 100 150 181 0 105 285 -150 559 -137 149 -250 309 -250 356 0 47 113 85 250 85 167 0 250 56 250 167 0 91 -26 140 -59 108 -116 -116 -616 140 -721 370 -92 203 -77 243 112 294 120 32 319 59 443 60 437 2 218 174 -300 234 -412 48 -573 121 -750 339 -338 419 -291 500 250 435 719 -86 1025 -27 1025 197 0 157 -40 176 -225 106 -288 -110 -1012 -58 -1414 100 -371 146 -761 477 -761 647 0 203 477 260 796 95 162 -84 408 -152 547 -152 370 0 1057 299 1057 461 0 179 -113 176 -356 -8 -245 -185 -936 -190 -1176 -9 -129 98 -269 113 -481 52 -367 -105 -552 -42 -618 211 -32 124 -137 193 -294 193 -134 0 -330 95 -435 212 -104 116 -382 344 -617 506 -235 162 -405 331 -377 375 77 124 854 5 1040 -160 606 -537 886 -627 2115 -682 693 -31 1199 -15 1199 37 0 119 -691 216 -1476 206 -480 -5 -639 29 -685 149 -33 87 -149 157 -256 157 -283 0 -583 183 -583 355 0 243 588 545 860 441 142 -54 256 -51 292 8 111 179 358 97 641 -212 261 -286 314 -303 744 -239 255 38 463 113 463 166 0 55 -128 69 -298 31 -307 -67 -702 9 -702 135 0 118 565 415 790 415 157 0 210 63 210 250 0 300 -113 308 -690 46 -419 -190 -450 -191 -632 -26 -151 136 -178 250 -126 527 84 448 220 612 487 584 116 -12 380 15 586 60 l375 81 0 931 c0 619 -39 943 -117 969 -88 30 -88 119 0 373 65 184 117 420 117 523 0 156 -34 171 -193 86 -252 -135 -2107 -138 -2107 -4 0 55 45 100 100 100 55 0 100 66 100 146 0 186 354 380 579 318 94 -26 374 -9 621 37 370 70 290 81 -450 65 -625 -14 -992 -71 -1200 -188 -577 -322 -804 -398 -1283 -426 -266 -16 -534 -79 -595 -140 -197 -197 -939 -101 -811 105 32 53 -35 121 -151 151 -254 67 -259 112 -40 354 164 182 148 187 -561 162 -621 -21 -752 -57 -871 -239 -179 -272 -557 -445 -974 -445 -179 0 -413 -66 -520 -147 -255 -193 -537 -191 -754 6 -160 145 -200 140 -479 -67 -196 -145 -496 -241 -844 -270 -458 -38 -569 -12 -741 173 -111 120 -231 397 -266 617 l-64 399 -465 -31 c-273 -17 -483 -84 -509 -162 -33 -99 42 -115 308 -65 334 62 353 50 423 -266 67 -308 36 -365 -447 -809 -286 -263 -598 -478 -693 -478 -250 0 -413 -200 -413 -506 0 -313 -554 -750 -1087 -856 -183 -37 -439 -173 -568 -302 -270 -270 -522 -299 -801 -93 -174 129 -221 117 -462 -112 -333 -317 -746 -260 -840 116 -34 135 -130 302 -215 372 -128 106 -196 75 -422 -196 -279 -335 -567 -404 -912 -219 -351 188 -227 507 427 1099 553 501 620 602 620 942 0 273 -63 432 -223 562 -167 134 -208 244 -161 430 34 137 125 273 203 303 286 109 129 260 -271 260 -354 0 -395 -21 -289 -149 177 -213 48 -598 -247 -732 -374 -170 -306 -304 173 -338 413 -30 425 -41 425 -380 0 -280 -53 -374 -269 -477 -148 -71 -294 -208 -325 -305 -78 -245 -577 -519 -946 -519 -171 0 -310 -34 -311 -75 0 -41 -159 -183 -353 -315 -298 -203 -387 -222 -574 -122 -122 65 -334 106 -472 90 -206 -23 -255 20 -281 242 -46 393 148 704 389 627 155 -49 226 10 340 283 170 408 356 501 719 363 202 -76 238 -128 149 -217 -64 -64 -116 -152 -116 -196 0 -146 267 -83 436 105 157 173 154 201 -42 450 -281 357 -623 339 -1171 -60 -1012 -738 -1252 -1129 -1006 -1643 109 -229 218 -293 584 -342 408 -54 293 -138 -130 -95 -188 20 -1494 -846 -2001 -1325 -283 -268 -294 -310 -248 -951 89 -1243 436 -1549 1273 -1122 541 276 780 617 787 1119 7 530 -127 784 -413 784 -321 0 -863 -391 -867 -625 -3 -139 197 -76 398 125 223 223 287 237 494 106 117 -74 120 -119 16 -244 -79 -95 -103 -267 -63 -447 54 -246 19 -325 -216 -488 -453 -314 -618 -340 -828 -130 -417 417 -390 1514 47 1853 142 110 425 340 629 511 522 436 786 557 1153 526 175 -15 513 29 751 99 372 108 468 104 675 -32 270 -177 337 -717 117 -941 -100 -101 -90 -152 50 -256 288 -212 223 -699 -133 -998 -169 -142 -369 -259 -444 -259 -210 0 -268 -171 -131 -390 161 -258 -30 -634 -508 -998 -260 -198 -460 -262 -821 -262 -564 0 -837 -190 -563 -393 244 -180 222 -273 -150 -630 -327 -314 -1338 -768 -1418 -638 -24 39 -24 1520 1 3292 50 3583 85 3799 699 4268 292 222 323 285 223 446 -98 156 -69 251 174 571 407 537 655 727 954 731 142 2 362 115 492 253 223 237 225 250 36 250 -361 0 -1205 -482 -1550 -885 -187 -219 -422 -624 -521 -901 -100 -276 -245 -556 -323 -621 -121 -100 -142 66 -142 1145 0 1248 -3 1262 -228 1262 l-229 0 -27 -4225z m18284 3825 c0 -55 -112 -100 -250 -100 -137 0 -250 45 -250 100 0 55 113 100 250 100 138 0 250 -45 250 -100z m-556 -390 c66 -108 -174 -210 -496 -210 -266 0 -415 156 -224 234 213 85 661 71 720 -24z m3656 -10 c0 -55 -79 -99 -175 -98 -150 1 -153 15 -25 98 189 122 200 122 200 0z m-2856 -153 c107 -81 287 -148 400 -149 113 0 274 -44 356 -96 131 -83 127 -117 -28 -273 -143 -143 -321 -174 -892 -157 -392 12 -758 66 -812 120 -56 56 -365 73 -730 39 -624 -59 -1014 66 -881 280 74 119 578 114 700 -8 104 -104 1218 141 1388 305 132 128 272 110 499 -61z m1456 -147 c0 -55 -101 -97 -225 -93 -215 7 -216 11 -25 93 110 47 211 89 225 93 14 4 25 -38 25 -93z m3700 -88 c0 -103 -58 -236 -130 -295 -197 -164 -1290 -312 -1495 -203 -212 113 -234 230 -28 151 81 -31 173 -13 206 40 120 194 -288 219 -951 59 -728 -176 -1750 -222 -1659 -75 30 49 202 112 381 141 179 28 574 118 876 200 314 84 1032 153 1675 159 1038 10 1125 -4 1125 -177z m-8100 -137 c0 -104 -776 -95 -840 10 -29 46 148 80 394 75 245 -6 446 -44 446 -85z m-3236 -260 c-390 -430 124 -672 1093 -514 555 90 1164 61 1993 -96 231 -43 337 -99 250 -131 -1396 -518 -2527 -707 -2770 -464 -81 81 -188 57 -395 -88 -361 -251 -1166 -205 -1114 63 17 91 161 186 322 214 160 28 311 112 336 187 35 107 -43 121 -367 66 -597 -101 -538 126 138 530 303 181 550 379 550 440 0 61 30 82 66 45 36 -36 -10 -150 -102 -252z m1417 -90 c-25 -136 -153 -182 -571 -206 -296 -17 -582 13 -636 67 -194 194 51 314 639 314 519 0 597 -24 568 -175z m2425 31 c526 -11 999 -47 1050 -78 210 -128 1553 -195 1686 -84 100 82 251 80 580 -8 370 -99 558 -90 1113 49 620 156 686 156 918 4 208 -137 402 -153 1145 -95 l895 70 66 -264 c108 -432 -36 -476 -1128 -339 -872 109 -1057 104 -1487 -37 -336 -111 -511 -128 -556 -55 -43 70 -291 83 -717 37 -593 -64 -669 -50 -859 155 -187 200 -236 210 -457 91 -206 -110 -275 -110 -409 1 -107 89 -509 140 -1204 154 -636 13 -1101 68 -1189 141 -80 66 -270 95 -424 66 -389 -76 -1053 59 -1108 224 -38 112 63 124 541 64 324 -41 1018 -84 1544 -96z m1813 -917 c345 -177 377 -239 268 -525 -80 -214 -130 -230 -516 -172 -520 78 -1698 -277 -2649 -798 -346 -189 -672 -344 -725 -344 -54 0 -97 125 -97 278 0 153 -70 378 -156 500 -85 122 -128 268 -93 323 165 267 1272 669 2349 853 795 135 1182 108 1619 -115z m4418 -238 c152 -147 168 -233 87 -466 -59 -170 -154 -268 -236 -242 -688 213 -1486 37 -2538 -563 -508 -289 -1080 -300 -1354 -26 -247 247 -177 396 186 396 148 0 494 121 769 270 274 148 859 417 1299 598 881 362 1435 372 1787 33z m-2338 124 c-2 -107 -1152 -725 -1348 -725 -124 0 -156 78 -132 325 31 323 34 325 681 383 358 31 684 65 725 75 41 9 74 -17 74 -58z m3847 -18 c31 -51 12 -121 -42 -155 -65 -39 -58 -129 19 -252 146 -234 91 -295 -355 -396 -438 -99 -590 -6 -620 382 -22 284 6 314 389 400 563 126 544 126 609 21z m-12858 -382 c85 -151 241 -173 1157 -157 l1058 18 -301 -366 c-366 -444 -371 -499 -52 -620 138 -52 250 -143 250 -201 0 -172 -312 -240 -517 -111 -218 136 -421 55 -347 -138 68 -177 -571 -292 -835 -151 -296 159 -247 291 174 476 327 144 346 170 150 202 -124 20 -225 79 -225 130 0 51 -247 93 -550 93 -571 0 -721 138 -325 297 144 58 171 97 75 109 -476 57 -775 -179 -612 -484 93 -173 72 -210 -149 -266 -384 -96 -631 16 -600 274 50 413 176 570 457 570 151 0 427 109 614 241 418 297 456 303 578 84z m-5988 -467 c0 -266 -221 -352 -515 -200 -358 185 -361 299 -10 420 288 100 525 0 525 -220z m12642 -19 c99 -38 158 -181 158 -381 0 -241 -75 -376 -306 -547 -239 -177 -282 -256 -193 -362 158 -191 694 -294 829 -159 80 80 53 110 -98 110 -286 0 -495 255 -277 338 88 34 243 16 346 -38 102 -55 420 -100 706 -100 333 0 631 -68 831 -189 363 -221 1063 -356 1358 -262 334 106 233 200 -224 210 -451 10 -1022 227 -1022 389 0 53 101 146 224 208 124 61 306 185 405 275 230 208 1021 490 1192 425 177 -68 163 -503 -21 -656 -171 -142 -199 -458 -50 -550 180 -111 107 -212 -381 -528 -436 -283 -536 -307 -1075 -262 -1098 93 -1244 133 -1244 345 0 247 -146 249 -392 3 -105 -105 -219 -164 -253 -130 -118 118 -1209 235 -2050 219 -558 -10 -1021 -81 -1362 -208 -584 -219 -816 -173 -953 189 -129 339 -27 413 121 88 127 -280 289 -266 289 24 0 99 89 260 198 358 164 148 225 157 352 52 207 -171 1996 -268 2092 -113 49 79 -121 113 -574 113 -831 0 -1268 90 -1268 263 0 75 53 137 117 137 65 0 196 71 292 158 127 115 224 131 358 60 304 -163 1058 -235 1483 -141 l400 88 -675 76 c-371 41 -675 112 -675 156 0 107 690 391 967 398 119 3 288 -22 375 -56z m-3899 -196 c253 -253 199 -503 -107 -498 -372 7 -550 319 -292 511 237 176 209 177 399 -13z m-6774 -260 c317 -299 290 -469 -102 -632 -472 -197 -598 -383 -515 -759 43 -195 20 -408 -60 -557 -174 -325 -740 -665 -980 -589 -133 42 -253 -17 -391 -192 -230 -293 -346 -315 -523 -101 -105 126 -92 192 73 375 437 484 581 851 460 1171 -120 317 -66 1072 90 1270 62 79 259 100 573 63 275 -32 560 -10 668 53 281 163 450 138 707 -102z m15375 27 c81 -131 -56 -1010 -158 -1010 -47 0 -175 89 -284 198 -209 209 -186 419 79 727 166 194 279 221 363 85z m-13581 -678 c213 -367 443 -686 512 -708 188 -61 151 162 -75 449 -309 393 -257 483 256 442 424 -34 445 -48 300 -208 -394 -435 -14 -792 769 -723 268 24 208 216 -67 216 -531 0 -777 317 -351 452 134 43 187 120 149 220 -101 261 142 428 624 428 l455 0 -218 -231 c-119 -128 -217 -283 -217 -345 0 -395 1381 -611 1592 -249 56 96 103 142 105 102 2 -39 125 -26 275 31 222 85 296 72 400 -71 70 -96 128 -263 128 -370 0 -178 -56 -190 -707 -143 -539 38 -935 -6 -1665 -187 -526 -130 -1077 -237 -1223 -237 -147 0 -354 -66 -461 -147 -261 -197 -744 -199 -744 -3 0 83 -45 150 -100 150 -55 0 -101 101 -102 225 -2 124 -112 491 -246 817 -258 627 -251 758 42 758 119 0 315 -231 569 -668z m-870 -119 c109 -212 249 -591 312 -841 63 -250 200 -547 305 -659 260 -279 240 -376 -103 -496 -254 -88 -313 -73 -435 115 -297 457 -645 1833 -536 2117 96 251 249 172 457 -236z m5807 231 c0 -24 -45 -44 -100 -44 -55 0 -100 48 -100 106 0 58 45 78 100 44 55 -34 100 -82 100 -106z m-6347 -1119 c241 -926 632 -1529 1122 -1728 267 -109 297 -363 50 -433 -574 -161 -830 -177 -803 -48 17 81 -44 122 -155 103 -101 -17 -290 38 -420 124 -146 95 -260 117 -298 56 -84 -137 32 -298 283 -391 180 -67 104 -132 -526 -448 -513 -258 -768 -338 -841 -265 -73 73 -69 141 15 225 208 208 131 298 -192 227 -171 -37 -408 -22 -525 35 -117 56 -341 130 -497 164 -237 52 -263 87 -161 211 148 178 64 291 -153 208 -414 -159 -231 -665 240 -665 148 0 314 -46 370 -102 57 -57 207 -123 334 -147 295 -57 274 -22 356 -576 59 -400 45 -475 -91 -475 -88 0 -161 71 -161 157 0 97 -68 144 -175 124 -110 -22 -176 -127 -177 -282 -2 -310 -233 -364 -648 -149 -377 195 -349 344 107 570 315 156 281 218 -107 195 -101 -6 -109 9 -25 46 227 101 130 239 -168 239 -368 0 -807 162 -807 298 0 56 95 102 212 102 160 0 199 47 161 193 -64 246 231 520 853 790 262 114 503 277 536 362 146 379 738 68 738 -388 0 -200 -260 -205 -336 -7 -83 217 -264 184 -264 -48 0 -215 399 -376 608 -247 71 44 193 -23 299 -164 257 -341 354 -161 124 230 -390 660 -352 1042 51 529 108 -137 224 -250 257 -250 127 0 53 283 -136 523 -108 138 -170 276 -138 308 59 59 969 -574 1449 -1009 147 -133 291 -195 324 -141 33 53 -121 261 -343 461 -221 201 -377 407 -344 459 32 52 4 287 -61 522 -191 685 -269 1177 -188 1177 42 0 155 -304 251 -675z m-409 -135 c78 -297 176 -630 219 -740 74 -191 66 -193 -166 -39 -207 137 -248 254 -276 798 -40 742 26 737 223 -19z m10256 255 c1011 -209 1591 -385 2066 -628 595 -303 1466 -1047 1869 -1597 196 -267 540 -685 762 -928 432 -471 1019 -1530 1438 -2592 265 -674 568 -1963 481 -2050 -27 -28 -197 -50 -377 -50 -527 0 -484 -175 61 -250 311 -43 500 -118 500 -200 0 -136 -1061 -522 -1161 -422 -31 31 -69 285 -84 564 -22 408 -78 547 -285 710 -142 112 -284 285 -316 385 -77 242 -518 468 -842 431 -454 -51 -1356 -330 -1512 -469 -82 -73 -272 -164 -421 -201 -238 -59 -278 -34 -334 217 -113 505 -478 1334 -660 1499 -361 327 -949 278 -2384 -199 -742 -246 -1383 -426 -1425 -400 -42 26 -76 161 -76 301 0 250 -235 1195 -394 1584 -249 609 -971 1973 -1149 2171 -114 126 -331 396 -483 599 -153 204 -524 518 -825 699 -302 180 -549 360 -549 401 0 205 877 293 1991 199 1552 -129 2279 -419 3156 -1255 652 -623 1353 -1568 1353 -1825 0 -169 917 -1634 1025 -1637 151 -4 67 261 -254 798 -181 303 -409 730 -507 950 -98 220 -229 513 -293 650 -196 425 -1802 1962 -2202 2107 -667 241 -454 418 631 526 193 19 373 42 400 51 28 9 388 -54 800 -139z m-6077 -911 c205 -129 410 -234 456 -234 126 0 521 -393 521 -518 0 -77 -290 -88 -975 -37 -536 40 -1177 83 -1425 95 -827 43 -851 49 -720 180 66 66 120 221 120 344 0 124 98 293 217 377 310 217 1315 101 1806 -207z m-915 -1034 c236 0 263 -351 34 -439 -201 -77 -942 38 -942 146 0 138 441 399 582 344 74 -28 221 -51 326 -51z m1892 -193 c0 -152 -364 -223 -771 -150 -720 130 -700 237 46 240 399 2 725 -39 725 -90z m856 -697 c-99 -161 -1072 -130 -1299 42 -243 184 -224 198 443 315 468 82 578 70 737 -75 103 -95 157 -221 119 -282z m-3335 255 c88 -88 363 -131 796 -125 730 11 1083 -181 1083 -588 0 -208 -33 -214 -825 -175 -748 38 -913 9 -1775 -305 -522 -190 -1260 -487 -1639 -659 -813 -370 -905 -382 -755 -102 139 261 35 879 -162 955 -310 119 -112 320 623 628 1161 488 2368 656 2654 371z m-6503 -515 c271 -228 517 -302 857 -257 194 25 142 -126 -103 -303 -256 -184 -1378 -311 -1583 -179 -118 76 -118 102 -1 178 76 49 110 133 76 188 -57 93 286 623 404 623 29 0 187 -112 350 -250z m10162 -170 c218 -218 125 -371 -297 -485 -301 -81 -483 -82 -655 -3 -320 146 -428 136 -428 -39 0 -82 144 -185 325 -232 l325 -85 -233 -126 c-218 -117 -615 -75 -488 53 32 31 16 168 -35 304 -154 404 34 616 582 660 261 20 544 45 629 55 85 10 209 -36 275 -102z m-6999 -714 c132 -270 82 -666 -83 -666 -87 0 -296 622 -297 883 -1 213 237 77 380 -217z m4319 145 c0 -49 -87 -283 -193 -520 -142 -318 -166 -480 -92 -619 168 -313 29 -472 -412 -472 -222 0 -403 38 -403 85 0 47 -506 81 -1125 75 l-1125 -10 -32 275 c-37 327 15 342 282 75 150 -150 333 -200 738 -200 676 0 1162 95 1162 227 0 65 -247 79 -692 37 -381 -35 -763 -37 -850 -3 -224 86 -196 301 64 483 206 145 235 139 425 -89 200 -242 476 -295 1378 -264 499 17 286 209 -232 209 -501 0 -893 128 -893 291 0 185 545 312 899 210 493 -143 801 -126 801 42 0 78 -79 163 -175 188 -96 25 -29 51 150 57 179 7 325 -28 325 -77z m717 -136 c313 -253 288 -456 -94 -771 -203 -167 -421 -304 -484 -304 -214 0 -224 513 -18 863 213 361 350 410 596 212z m2383 -131 c0 -168 -90 -180 -300 -42 -131 85 -131 110 -5 191 175 112 305 49 305 -149z m-10004 -37 c57 -107 194 -222 304 -257 382 -121 197 -250 -361 -250 -476 0 -551 25 -498 162 50 131 18 148 -165 91 -416 -131 -1323 -171 -1576 -69 l-250 100 325 71 c179 38 325 101 325 139 0 38 259 51 575 29 316 -22 688 6 825 62 351 143 380 139 496 -78z m2204 -668 c0 -177 -120 -175 -560 9 -374 156 -375 304 -5 451 162 65 258 36 390 -118 96 -112 175 -266 175 -342z m7472 338 c290 -67 528 -152 528 -188 0 -35 -281 -167 -625 -293 -344 -126 -798 -315 -1010 -420 -284 -140 -489 -173 -780 -123 -221 37 -379 115 -358 177 49 148 1378 970 1568 970 82 0 387 -55 677 -123z m-12422 -177 c34 -55 172 -100 306 -100 356 0 298 -188 -112 -359 -204 -85 -442 -295 -559 -495 -265 -448 -377 -366 -316 229 64 631 471 1064 681 725z m3944 -354 c487 -88 1279 -509 1406 -746 59 -110 173 -200 254 -200 80 0 146 -45 146 -101 0 -55 118 -201 262 -325 144 -123 362 -381 484 -574 271 -427 805 -1812 896 -2325 65 -366 185 -474 307 -277 172 278 -645 2430 -1159 3052 -215 259 -390 513 -390 563 0 51 124 140 275 199 321 126 1867 59 2052 -89 67 -54 373 -170 678 -258 927 -266 2195 -1200 2195 -1618 0 -228 -314 -265 -372 -43 -29 112 -103 188 -163 168 -180 -60 -284 -786 -175 -1222 126 -500 202 -1901 112 -2046 -48 -78 -211 -75 -573 8 -381 88 -824 90 -1792 6 -2666 -231 -4239 -418 -4410 -524 -97 -61 -304 -287 -459 -502 -407 -567 -535 -513 -555 233 -9 344 -62 1092 -119 1662 -57 570 -79 1061 -49 1091 29 29 16 103 -29 163 -46 60 -163 424 -260 809 -97 385 -260 876 -362 1091 -190 402 -941 1259 -1103 1259 -50 0 -91 69 -91 152 0 390 1750 621 2994 394z m1946 -105 c110 -288 -64 -418 -334 -247 -119 75 -121 118 -12 248 166 201 268 200 346 -1z m7242 -317 c31 -215 7 -223 -448 -169 -583 70 -643 118 -384 308 303 221 793 140 832 -139z m-12246 -379 c464 -354 574 -535 339 -556 -495 -43 -1401 -28 -1433 25 -59 94 174 725 299 809 191 130 320 85 795 -278z m8764 2 c0 -79 -77 -108 -202 -76 -266 70 -357 231 -189 334 153 95 391 -62 391 -258z m2171 142 c61 -61 408 -134 771 -164 602 -48 667 -75 724 -303 115 -457 -653 -822 -1425 -677 -310 58 -353 43 -324 -114 22 -113 140 -193 315 -213 230 -27 259 -58 162 -175 -65 -79 -159 -143 -207 -143 -49 0 -362 270 -695 600 -333 330 -724 629 -870 666 -241 60 -247 73 -68 143 108 42 316 80 462 84 214 6 256 -30 215 -184 -79 -304 246 -403 1127 -343 1109 75 1185 234 112 234 -478 0 -870 36 -870 80 0 172 256 618 355 619 58 1 155 -49 216 -110z m5355 -225 c140 -130 328 -378 417 -550 l162 -314 -331 0 c-496 0 -1443 -272 -2017 -578 -303 -162 -1030 -793 -1810 -1571 -1735 -1733 -1708 -1713 -1452 -1064 245 622 263 1141 48 1356 -195 194 -354 197 -794 13 -659 -275 -541 178 144 555 196 108 627 397 957 641 978 726 1441 968 2600 1364 1311 447 1721 477 2076 148z m-15411 -979 c238 -238 243 -432 10 -329 -188 83 -474 79 -1303 -15 -348 -40 -577 -19 -674 60 -80 67 -214 95 -297 63 -102 -39 -151 4 -151 133 0 216 237 258 1490 267 592 5 777 -31 925 -179z m19245 -265 c129 -94 235 -219 237 -280 2 -60 93 -213 203 -340 367 -423 251 -518 -212 -175 -218 161 -434 222 -755 215 -391 -8 -499 -62 -817 -406 -584 -632 -2016 -965 -2016 -469 0 205 385 835 510 835 52 0 262 111 467 246 205 135 639 314 963 398 325 84 616 179 647 210 86 86 509 -43 773 -234z m-3225 -138 c80 -128 47 -293 -135 -682 -286 -610 -335 -650 -542 -444 -179 179 -207 703 -58 1094 79 207 156 257 365 232 146 -18 312 -108 370 -200z m-16003 -159 c283 -48 468 -332 468 -719 0 -214 -380 -338 -750 -245 -272 68 -347 341 -94 341 86 0 128 45 94 100 -34 55 -172 100 -306 100 -134 0 -244 47 -244 104 0 67 -61 71 -175 9 -96 -51 -389 -125 -651 -165 -514 -77 -774 40 -774 347 0 151 61 160 525 79 399 -70 621 -57 925 55 220 81 468 124 550 95 83 -29 277 -74 432 -101z m-807 -771 c-39 -202 6 -269 238 -357 158 -60 485 -94 728 -77 307 22 455 -10 488 -105 35 -106 -44 -127 -342 -92 -213 25 -559 7 -769 -40 -248 -55 -528 -43 -800 35 -524 150 -489 115 -413 417 61 245 383 441 756 459 119 6 149 -57 114 -240z m-1147 -211 c-155 -340 -36 -518 434 -644 312 -84 385 -138 280 -204 -315 -200 -1286 -26 -1144 205 30 48 3 200 -60 338 -162 356 -54 553 297 543 272 -8 288 -28 193 -238z m12272 -640 c85 -268 -9 -393 -247 -331 -251 66 -439 291 -356 426 115 185 535 118 603 -95z m-9558 -164 c23 -20 -55 -37 -172 -37 -275 0 -906 -285 -1199 -542 -173 -151 -270 -176 -392 -99 -115 73 -293 59 -609 -44 -464 -153 -770 -79 -770 185 0 87 186 137 575 154 410 19 698 100 1000 284 369 225 498 251 975 198 303 -34 569 -78 592 -99z m8644 -412 c91 -555 77 -925 -36 -925 -55 0 -105 146 -111 325 -6 179 -23 471 -38 650 -38 449 109 410 185 -50z m2464 186 c0 -211 -259 -358 -355 -202 -68 109 125 391 267 391 49 0 88 -85 88 -189z m-11091 -336 c15 -392 75 -1202 141 -1908 63 -672 60 -682 -168 -650 -208 30 -238 100 -290 683 -33 358 -137 931 -231 1275 -95 344 -145 670 -111 725 34 55 194 100 356 100 236 0 296 -45 303 -225z m9391 -29 c0 -180 -288 -646 -400 -646 -88 0 -199 611 -132 725 85 145 532 79 532 -79z m-10400 -146 c0 -55 -45 -100 -100 -100 -55 0 -100 45 -100 100 0 55 45 100 100 100 55 0 100 -45 100 -100z m12082 -225 c-25 -175 -108 -232 -372 -257 -369 -36 -567 143 -392 354 59 70 262 128 451 128 300 0 341 -29 313 -225z m-12451 -509 c144 -189 339 -622 434 -963 149 -535 156 -716 54 -1314 -66 -381 -119 -759 -119 -841 0 -293 273 -140 450 252 116 257 246 400 365 400 223 0 225 -57 40 -950 -156 -752 -132 -723 -1155 -1382 -759 -488 -1300 -1206 -1300 -1726 0 -595 368 -1382 852 -1823 l448 -407 -271 -631 c-252 -589 -383 -776 -546 -779 -171 -4 -504 758 -640 1465 -150 782 -209 2645 -90 2838 35 56 62 370 60 699 -3 590 50 693 250 493 182 -182 413 4 630 508 190 442 197 524 73 818 -181 427 -476 682 -819 708 -409 32 -502 253 -328 777 106 319 207 451 364 474 119 18 217 -12 217 -66 0 -53 155 -283 344 -509 228 -273 367 -563 412 -860 133 -886 486 -359 389 580 -97 929 -376 1483 -910 1805 l-445 269 174 296 c294 498 617 459 1067 -131z m-1406 309 c-14 -41 -25 -235 -25 -430 l0 -354 -247 179 c-237 173 -331 519 -182 668 91 91 487 36 454 -63z m1978 -300 c301 -664 229 -901 -84 -275 -249 499 -295 700 -158 700 27 0 136 -191 242 -425z m11397 -63 c193 -50 291 -96 219 -102 -72 -5 -383 -129 -691 -275 -537 -254 -565 -257 -694 -81 -74 102 -134 281 -134 399 0 195 45 213 475 183 261 -18 632 -74 825 -124z m5992 -253 c213 -190 360 -207 1034 -115 974 134 1348 -129 1430 -1006 48 -514 -88 -866 -608 -1567 -503 -679 -323 -803 239 -164 503 571 694 966 705 1462 9 347 165 514 328 351 56 -56 126 -310 155 -564 40 -354 10 -507 -127 -658 -99 -109 -218 -198 -266 -198 -47 0 -338 -247 -645 -550 -308 -302 -619 -550 -693 -550 -136 0 -419 523 -433 800 -4 83 -37 302 -73 489 l-65 338 372 -69 c696 -131 1038 347 764 1068 -217 572 -1063 730 -2309 431 -334 -80 -850 72 -850 250 0 79 158 197 350 262 459 157 506 156 692 -10z m-9235 -164 c2687 -478 5113 -2349 6628 -5113 434 -792 848 -2008 971 -2851 38 -265 131 -593 206 -731 127 -234 132 -222 79 200 -222 1769 -507 2672 -1260 4000 -762 1345 -2291 2965 -3332 3533 -836 456 -807 668 129 921 580 157 769 165 1456 65 1066 -155 2714 -687 3006 -969 60 -59 425 -359 810 -666 794 -634 1020 -917 2017 -2523 1176 -1899 1913 -4102 2192 -6561 28 -247 88 -697 134 -1000 144 -956 124 -3291 -37 -4431 -141 -995 -674 -2931 -961 -3486 -66 -128 -200 -323 -298 -433 -313 -352 -791 -1242 -699 -1299 50 -31 186 47 303 172 196 210 219 214 310 52 78 -138 234 -175 744 -175 576 0 645 -21 645 -198 0 -408 -693 -603 -921 -259 -40 59 -175 117 -300 128 -533 50 -898 163 -949 294 -29 77 56 308 190 512 385 590 580 1183 580 1767 0 465 -51 609 -360 1023 -445 597 -888 993 -1323 1184 l-333 146 68 676 c80 790 443 1527 752 1527 108 0 196 -67 196 -150 0 -82 -44 -150 -97 -150 -169 0 -403 -574 -403 -987 0 -311 67 -465 308 -705 340 -341 542 -375 1020 -171 588 250 793 577 871 1385 71 744 10 1083 -242 1335 -78 78 -226 249 -329 380 -211 268 -926 663 -1199 662 -727 -2 -1709 -704 -2030 -1452 -95 -221 -231 -739 -301 -1150 -71 -411 -155 -776 -188 -812 -33 -35 -172 -18 -310 38 -636 259 -1786 18 -3222 -675 -1566 -755 -2634 -1511 -3625 -2564 -774 -823 -888 -995 -996 -1502 -57 -268 -364 -451 -556 -333 -192 119 -100 394 254 757 305 312 376 477 494 1154 76 434 188 993 249 1240 62 248 152 743 202 1100 123 893 169 1185 352 2237 306 1762 150 5810 -306 7966 -166 784 -611 2038 -1005 2830 -78 156 -143 336 -145 400 -2 64 -137 273 -300 463 -163 191 -296 384 -296 430 0 164 -824 1170 -1233 1504 -229 188 -660 465 -957 615 -779 394 -510 502 1630 654 555 39 1035 78 1067 86 31 8 323 -32 650 -90z m7843 -143 c0 -273 459 -474 998 -437 276 19 501 35 501 35 -1 0 -64 -178 -140 -396 -76 -219 -178 -410 -226 -426 -49 -17 -290 152 -536 375 -246 222 -616 479 -822 570 -375 165 -434 235 -308 360 129 130 533 69 533 -81z m-18300 -52 c0 -55 217 -100 483 -100 373 0 528 -51 686 -225 215 -238 467 -872 381 -958 -86 -86 -527 385 -658 703 -113 273 -157 296 -477 244 -196 -32 -411 -9 -484 52 -154 128 -175 384 -31 384 55 0 100 -45 100 -100z m6254 -380 c273 -98 676 -277 896 -397 461 -250 1122 -787 1049 -852 -45 -41 -4416 134 -4476 179 -14 11 239 297 563 635 547 572 620 615 1030 615 243 0 665 -81 938 -180z m15083 -127 c173 -137 263 -304 263 -490 0 -504 -411 -443 -704 105 -57 106 -141 192 -188 192 -132 0 -408 -647 -411 -965 l-4 -285 -196 236 c-268 321 -258 886 20 1183 282 300 854 311 1220 24z m-21477 -466 c-33 -33 -56 26 -52 131 5 117 28 141 60 61 29 -72 26 -159 -8 -192z m6340 -940 c963 -59 1867 -114 2010 -122 365 -21 491 -152 1053 -1089 621 -1037 856 -1585 1396 -3263 58 -180 -178 -1313 -273 -1313 -41 0 -102 46 -137 101 -249 403 -1638 683 -2481 500 -505 -110 -1728 -365 -2428 -506 -682 -137 -1861 -894 -2821 -1810 -423 -404 -939 -860 -1148 -1013 -208 -153 -421 -390 -472 -525 -52 -136 -163 -247 -247 -247 -203 0 -192 123 40 417 535 681 1126 1886 1388 2833 107 385 335 1179 508 1765 450 1524 709 2834 710 3593 1 362 32 689 69 725 91 92 780 81 2833 -46z m-5544 -435 c168 -128 174 -162 44 -249 -219 -146 -457 -125 -606 55 -109 130 -107 173 12 248 203 128 327 116 550 -54z m-144 -538 c527 38 617 -142 184 -366 -351 -181 -796 -128 -796 96 0 77 -31 222 -69 323 -59 159 -47 166 95 50 96 -78 340 -120 586 -103z m22720 87 c339 -1 378 -27 350 -226 -29 -202 -88 -225 -582 -225 -532 0 -551 9 -583 289 -30 259 -9 282 200 226 128 -34 405 -63 615 -64z m-1162 -561 c18 -53 -58 -97 -169 -97 -206 0 -254 70 -132 192 87 87 258 33 301 -95z m-21220 -240 c-34 -55 -82 -100 -106 -100 -24 0 -44 45 -44 100 0 55 48 100 106 100 58 0 78 -45 44 -100z m-920 -420 c60 -448 15 -620 -137 -525 -107 66 -98 945 10 945 39 0 96 -189 127 -420z m23651 245 c-40 -212 -530 -292 -737 -120 -251 208 -158 295 313 295 382 0 452 -29 424 -175z m-20720 -283 c-34 -87 -61 -205 -61 -262 0 -65 -56 -58 -146 16 -80 67 -192 92 -250 57 -161 -100 -123 -332 71 -442 302 -170 -101 -371 -650 -322 -196 17 -146 293 75 411 110 59 200 175 200 258 0 84 146 215 325 293 424 184 509 183 436 -9z m19290 -443 c34 -55 228 -188 430 -296 l369 -194 -369 -5 c-272 -3 -411 55 -525 218 -86 122 -156 257 -156 300 0 112 177 96 251 -23z m-20593 -608 c152 -168 263 -197 566 -149 495 79 509 -142 23 -373 -773 -369 -1365 -63 -1043 538 131 246 220 243 454 -16z m-1602 -1316 c4 -940 57 -1511 181 -1964 208 -758 480 -1411 587 -1411 171 0 52 -285 -385 -926 -321 -469 -433 -714 -366 -800 52 -68 84 -416 71 -774 -30 -833 -23 -800 -169 -800 -96 0 -122 395 -111 1675 7 921 19 2721 25 4000 6 1279 45 2325 86 2325 41 0 78 -596 81 -1325z m2403 354 c-35 -112 -237 -238 -509 -318 -396 -117 -482 -113 -700 30 -403 264 -328 458 132 341 286 -73 468 -61 725 46 395 165 433 155 352 -99z m20879 -80 c330 -138 362 -187 362 -548 0 -390 -4 -395 -258 -279 -142 65 -344 287 -450 494 -286 559 -259 585 346 333z m-21138 -711 c0 -241 -26 -258 -312 -201 -280 56 -306 42 -256 -149 54 -207 50 -206 -188 18 -315 296 -308 392 31 401 151 4 365 46 475 93 110 47 211 89 225 93 14 4 25 -111 25 -255z m6582 -714 c41 -286 422 -388 826 -221 405 168 610 -9 278 -241 -444 -312 -1286 -115 -1286 300 0 76 -64 107 -150 74 -166 -64 -180 -30 -87 211 88 230 381 145 419 -123z m715 80 c126 -80 123 -103 -25 -159 -205 -79 -472 7 -472 152 0 128 299 132 497 7z m14161 -4 c23 0 42 -315 42 -700 0 -799 -154 -933 -258 -225 -38 261 -105 572 -149 690 -92 246 -16 365 185 288 76 -29 157 -53 180 -53z m-16026 -522 c33 -236 90 -574 127 -753 36 -179 26 -325 -22 -325 -200 0 -529 1270 -388 1498 113 183 221 22 283 -420z m-650 -129 c29 -341 14 -370 -125 -255 -190 158 -217 743 -32 682 69 -23 139 -215 157 -427z m1211 -174 c66 -344 159 -805 206 -1025 195 -914 226 -1705 72 -1832 -215 -179 -251 -27 -422 1759 -175 1831 -172 1723 -63 1723 48 0 141 -281 207 -625z m-1893 473 c0 -109 -505 -240 -674 -175 -150 58 -138 78 74 137 315 88 600 106 600 38z m150 -352 c0 -76 -157 -176 -350 -222 -192 -47 -451 -110 -575 -141 -289 -72 -794 238 -639 393 77 77 226 72 519 -16 347 -104 446 -99 628 28 249 173 417 157 417 -42z m3933 -134 c57 -292 -179 -462 -643 -462 -549 0 -1240 268 -1240 481 0 124 27 132 120 39 164 -164 974 -145 1280 30 298 170 438 144 483 -88z m925 -3212 c5 -1841 -99 -2912 -511 -5274 -114 -655 -127 -677 -484 -784 -202 -60 -501 -93 -665 -73 l-298 38 400 176 c576 255 865 462 798 570 -33 53 -183 3 -338 -111 -321 -238 -1110 -383 -1110 -205 0 62 40 113 89 113 185 0 1311 823 1311 958 0 205 -68 181 -533 -191 -954 -762 -1486 -806 -2403 -202 -643 424 -1071 548 -1484 429 -174 -50 -329 -78 -344 -63 -16 15 49 145 143 287 698 1059 872 1260 1184 1373 309 112 837 789 837 1075 0 54 204 311 453 571 442 461 451 484 388 962 -63 475 -55 495 268 692 183 111 452 228 597 260 589 130 1294 1363 1294 2264 0 639 148 515 276 -231 70 -405 129 -1586 132 -2634z m-6523 2980 c64 -115 227 -171 505 -175 433 -5 458 -24 319 -243 -104 -165 -809 -70 -809 110 0 62 -74 195 -165 295 -92 101 -116 183 -55 183 60 0 153 -76 205 -170z m-102 -1015 c278 -1067 346 -1905 214 -2638 -124 -690 -580 -1685 -956 -2082 -241 -256 -316 -495 -156 -495 137 0 541 411 909 925 187 261 371 475 410 475 102 0 551 709 632 1000 39 138 94 520 123 850 29 330 74 664 100 742 26 78 -6 382 -72 675 -91 410 -92 623 -1 927 138 461 471 636 676 356 88 -120 203 -155 371 -113 368 92 446 -98 366 -887 -101 -992 -554 -2394 -1010 -3123 -214 -342 -389 -665 -389 -717 0 -112 -1031 -1010 -1161 -1011 -96 0 -261 -83 -1189 -593 -978 -538 -1360 -975 -1498 -1710 -80 -424 342 -1967 660 -2412 248 -349 142 -573 -188 -397 -341 183 -724 1381 -724 2266 0 356 -24 647 -54 647 -125 0 -546 -332 -546 -431 0 -60 -121 -282 -268 -495 -225 -325 -276 -522 -312 -1218 -44 -843 17 -1162 399 -2069 154 -366 273 -493 573 -611 300 -117 391 -215 443 -474 108 -540 74 -1252 -69 -1447 -121 -165 -141 -128 -199 355 -36 297 -66 667 -66 823 -1 182 -111 393 -311 592 -747 747 -1089 1566 -1160 2781 -38 654 -9 836 213 1338 142 321 395 745 563 944 998 1183 1623 2274 1772 3091 74 409 58 619 -79 1025 -216 637 -256 676 -857 825 -519 128 -614 269 -497 735 40 160 187 301 409 394 306 128 375 127 577 -5 275 -180 671 -693 848 -1098 310 -713 227 -2259 -138 -2562 -200 -166 -178 -415 34 -374 101 19 324 330 525 732 323 646 350 768 347 1599 -2 742 -51 1023 -278 1600 -151 385 -338 783 -415 885 -110 145 -116 242 -28 450 239 562 601 820 1032 738 188 -36 259 -171 425 -808z m5035 585 c259 0 498 45 532 100 93 150 250 120 250 -47 0 -213 -525 -453 -989 -453 -552 0 -911 154 -911 391 0 172 37 184 324 102 179 -51 536 -93 794 -93z m-4286 -560 c-64 -168 -89 -170 -341 -35 -259 138 -162 281 150 221 158 -30 226 -96 191 -186z m4968 -37 c0 -426 -976 -655 -1454 -341 -373 244 -299 337 279 348 289 5 638 46 775 90 378 121 400 116 400 -97z m-2498 -978 c69 -536 137 -1132 150 -1325 13 -192 57 -451 98 -575 59 -181 36 -225 -119 -225 -149 0 -224 119 -325 516 -210 818 -184 2584 38 2584 17 0 88 -439 158 -975z m-4839 250 c171 -289 380 -750 465 -1025 209 -676 308 -1550 175 -1550 -56 0 -103 200 -103 444 0 244 -45 472 -100 506 -55 34 -100 152 -100 263 0 110 -112 348 -250 528 -137 180 -250 423 -250 539 0 162 -81 226 -350 277 -398 74 -414 106 -185 360 254 280 362 227 698 -342z m2441 271 c92 -112 97 -185 18 -264 -157 -157 -422 -23 -422 215 0 240 222 267 404 49z m4496 -277 c0 -149 -609 -469 -892 -469 -228 0 -353 389 -150 467 78 30 206 30 284 0 112 -43 375 1 733 124 14 5 25 -50 25 -122z m-4400 -419 c0 -83 -89 -150 -200 -150 -199 0 -260 107 -133 233 121 122 333 69 333 -83z m59 -700 c80 -318 5 -508 -253 -647 -194 -103 -206 -83 -206 335 0 404 72 527 323 554 40 4 101 -104 136 -242z m-4759 -188 c0 -76 61 -188 135 -249 181 -150 -44 -1079 -250 -1033 -350 79 -513 793 -281 1227 118 222 396 261 396 55z m6500 -318 c0 -150 -58 -244 -150 -244 -157 0 -192 174 -90 441 86 222 240 95 240 -197z m-5360 -426 c-5 -65 -17 -343 -25 -618 -13 -431 -43 -500 -218 -500 -112 0 -228 79 -257 175 -30 96 -96 253 -147 349 -120 224 -118 443 6 674 77 144 160 169 375 111 152 -40 272 -126 266 -191z m3460 -87 c0 -112 -444 -730 -525 -730 -103 -1 -94 114 35 484 71 204 176 315 300 315 104 0 190 -31 190 -69z m1848 -229 c137 -151 167 -304 127 -654 -80 -708 -538 -1091 -775 -648 -59 110 -177 200 -262 200 -85 0 -140 34 -121 76 265 608 633 1224 729 1224 68 0 203 -89 302 -198z m-4899 -586 c-89 -90 -249 118 -249 323 0 373 144 402 217 44 37 -182 52 -348 32 -367z m-2049 23 c0 -88 -437 -535 -525 -537 -131 -3 -81 226 90 415 158 174 435 252 435 122z m21218 -98 c955 -494 1256 -1873 569 -2605 -259 -275 -699 -310 -935 -74 -215 215 -168 926 70 1076 253 158 473 -74 300 -316 -226 -315 -252 -441 -112 -532 192 -123 398 -73 525 128 79 127 47 349 -129 884 -215 657 -268 731 -658 920 -506 246 -852 190 -1242 -202 -602 -607 -826 -3994 -469 -7120 101 -882 128 -1462 71 -1481 -289 -96 -2870 -1712 -3341 -2091 -155 -125 -324 -228 -375 -228 -160 0 -100 409 98 660 195 248 199 356 54 1559 -64 534 -51 584 209 825 152 141 332 256 399 256 68 0 180 68 248 150 68 82 191 150 272 150 207 0 819 289 1195 565 482 354 623 1145 603 3385 -16 1751 -9 1822 271 2600 329 916 546 1201 1109 1461 494 228 867 237 1268 30z m-20567 -42 c34 -56 -58 -203 -205 -325 -147 -123 -443 -375 -657 -561 -351 -303 -389 -316 -389 -130 0 215 859 1111 1069 1115 66 1 147 -44 182 -99z m1349 -326 c0 -16 -349 -408 -775 -873 -1673 -1824 -1708 -1856 -1829 -1735 -64 63 -88 204 -53 313 78 245 1846 2022 2012 2022 66 0 177 68 245 150 104 125 400 216 400 123z m-1000 -133 c0 -91 -1533 -1640 -1622 -1640 -134 0 -85 345 82 584 336 480 1540 1305 1540 1056z m900 -503 c0 -119 -602 -1114 -746 -1234 -80 -66 -255 -307 -389 -536 -135 -230 -395 -557 -580 -729 -184 -172 -415 -410 -513 -529 -97 -120 -221 -190 -275 -157 -197 122 -64 948 153 948 117 0 1445 1380 1950 2025 198 254 400 361 400 212z m17997 -12 c-2 -41 -69 -162 -150 -269 -81 -107 -147 -301 -147 -431 0 -130 -43 -210 -96 -178 -95 59 -78 154 118 678 92 248 283 386 275 200z m-15052 -1001 c-324 -481 -719 -1043 -876 -1249 -205 -269 -244 -375 -138 -375 82 0 296 236 477 525 297 474 754 1098 1358 1854 120 149 254 234 299 189 89 -88 -151 -543 -831 -1579 -480 -732 -501 -789 -284 -789 83 0 150 66 150 147 0 89 59 124 150 89 218 -84 184 -311 -68 -445 -333 -179 -1582 -413 -1847 -346 -129 32 -235 109 -235 170 0 61 326 497 723 970 398 472 792 993 875 1156 138 271 692 685 795 595 23 -21 -223 -431 -548 -912z m-1337 -764 c-629 -770 -808 -942 -808 -779 0 114 949 1321 1173 1493 358 274 217 -1 -365 -714z m15952 467 c-33 -33 -56 26 -52 131 5 117 28 141 60 61 29 -72 26 -159 -8 -192z m-16356 -319 c-175 -327 -1081 -1262 -1153 -1191 -125 122 44 439 487 915 448 481 869 656 666 276z m16374 -1380 c4 -703 77 -1709 162 -2236 131 -810 213 -1612 413 -4045 13 -167 93 -572 178 -900 84 -328 250 -1002 367 -1497 118 -495 375 -1364 571 -1931 297 -856 338 -1073 246 -1275 -153 -337 -263 -306 -468 131 -97 206 -208 397 -247 425 -226 160 -577 1770 -851 3900 -81 633 -193 1465 -248 1850 -356 2487 -516 5272 -358 6250 22 138 44 354 49 481 4 127 46 207 93 178 47 -29 89 -628 93 -1331z m-13053 867 c206 -58 375 -147 375 -200 0 -52 62 -95 138 -95 77 0 215 -117 309 -259 93 -143 371 -349 617 -458 541 -239 717 -573 399 -754 -331 -189 -837 -155 -1063 71 -250 250 -300 251 -300 4 0 -271 294 -404 890 -404 415 0 562 52 839 295 344 302 771 330 771 50 0 -180 -481 -505 -873 -590 -659 -143 -2127 308 -2127 653 0 246 -670 691 -1048 696 l-302 4 319 273 c175 150 365 396 422 546 118 309 122 310 634 168z m10729 -2 c37 -59 253 -93 481 -75 646 50 585 -154 -85 -289 -430 -87 -692 -92 -925 -18 -373 120 -392 166 -150 350 212 161 589 179 679 32z m-1088 -344 c138 -298 -4 -337 -289 -78 -161 145 -203 149 -277 28 -142 -229 87 -399 537 -397 441 2 1692 165 1996 259 151 48 177 9 150 -227 -29 -250 -87 -294 -483 -368 -855 -158 -1825 -185 -2265 -62 -442 124 -531 260 -315 476 210 210 -210 142 -493 -80 -140 -110 -370 -200 -513 -200 l-259 0 216 151 c118 83 477 248 797 366 320 119 625 254 677 300 177 155 405 82 521 -168z m4248 -240 c130 -106 205 -223 167 -261 -100 -101 -681 178 -681 326 0 185 244 154 514 -65z m-11814 -209 c0 -125 -106 -125 -300 0 -121 78 -107 97 75 98 124 1 225 -43 225 -98z m-5914 -125 c86 -86 463 -122 1211 -114 835 9 1075 -18 1038 -115 -27 -69 49 -217 169 -328 261 -243 192 -388 -277 -584 -409 -171 -576 -79 -252 139 201 136 335 497 150 407 -41 -20 -201 -99 -355 -177 -229 -114 -342 -117 -622 -16 -251 91 -395 95 -545 15 -241 -129 -603 21 -603 252 0 80 -45 146 -100 146 -137 0 -127 -433 13 -573 130 -130 36 -469 -106 -382 -51 32 -145 307 -208 612 -89 426 -88 586 5 698 148 178 316 185 482 20z m-1192 -1525 c70 -220 237 -590 369 -822 l242 -422 -410 -209 c-580 -295 -815 -234 -979 253 -199 590 -155 1843 73 2098 100 111 217 292 260 402 62 158 104 84 198 -350 65 -302 176 -730 247 -950z m19547 1187 c75 -196 -167 -273 -602 -191 -275 51 -349 36 -314 -64 32 -92 229 -127 651 -115 508 14 613 -13 652 -165 88 -335 -699 -530 -1160 -287 -292 154 -333 231 -350 665 l-15 370 541 -34 c356 -22 560 -83 597 -179z m-21343 -405 c-176 -550 -298 -635 -298 -209 0 201 72 435 162 525 231 230 277 124 136 -316z m15202 158 c0 -229 -61 -318 -271 -398 -320 -122 -1030 -24 -1028 142 6 443 102 516 704 533 l595 18 0 -295z m8449 -765 c-30 -591 -79 -1154 -109 -1250 -65 -213 -440 -235 -440 -25 0 223 -310 181 -371 -50 -29 -110 -115 -200 -192 -200 -118 0 95 434 441 899 21 27 81 -29 134 -125 130 -232 417 -231 353 1 -136 497 -168 978 -81 1213 53 144 123 341 153 437 129 400 165 113 112 -900z m-17374 781 c124 -104 225 -253 225 -332 0 -257 347 -466 1055 -636 382 -92 791 -210 908 -263 117 -53 352 -66 520 -29 204 45 428 11 666 -102 197 -94 380 -148 407 -121 94 94 -76 370 -265 430 -105 33 -191 107 -191 164 0 58 71 77 157 44 87 -33 248 -12 359 47 277 149 310 83 229 -456 -52 -348 -158 -552 -417 -804 -192 -186 -407 -509 -479 -718 -90 -262 -249 -450 -515 -607 -527 -312 -634 -357 -698 -292 -106 105 82 278 473 434 215 86 391 223 391 304 0 81 -34 131 -75 111 -41 -20 -205 -101 -364 -181 -269 -134 -300 -129 -433 71 -113 171 -210 204 -472 162 -318 -52 -756 94 -756 253 0 43 264 59 586 35 788 -57 1514 243 1514 624 0 327 -232 334 -379 11 -188 -412 -1328 -464 -2045 -93 -337 175 -378 397 -51 282 381 -134 1702 -110 1750 31 30 91 -132 125 -604 125 -714 0 -1371 219 -1371 456 0 84 -116 269 -257 410 -583 583 -468 1141 132 640z m4325 -36 c0 -269 -172 -470 -403 -470 -220 0 -140 572 89 633 296 79 314 69 314 -163z m8044 -878 c-5 -760 -46 -1027 -200 -1290 -242 -414 -592 -663 -1041 -744 l-348 -62 423 311 c400 294 533 493 330 493 -51 0 -220 -107 -375 -237 -190 -158 -465 -256 -833 -296 -584 -63 -1300 10 -1300 132 0 40 327 126 728 191 1055 170 2292 930 1996 1226 -157 157 -411 32 -521 -257 -108 -286 -322 -416 -1032 -627 -719 -213 -1574 -219 -1890 -12 -173 114 -287 134 -356 65 -70 -70 -124 -68 -170 7 -94 152 70 189 1045 232 881 39 1153 143 1714 652 170 155 245 307 213 432 -61 233 -117 238 -409 33 -152 -106 -207 -219 -167 -344 49 -154 -30 -213 -464 -342 -288 -85 -684 -150 -880 -145 l-357 11 461 141 c254 78 542 231 641 340 173 192 172 198 -37 198 -118 0 -215 -42 -215 -93 0 -51 -259 -121 -575 -155 -316 -34 -680 -84 -808 -111 -180 -38 -226 -10 -200 123 22 114 199 209 533 285 551 125 850 265 1098 513 126 126 341 161 933 150 423 -7 904 29 1069 81 165 52 458 86 650 76 l350 -19 -6 -958z m-4960 -367 c63 -701 122 -1920 130 -2708 15 -1413 12 -1437 -241 -1689 -507 -508 -539 -378 -562 2317 -15 1804 14 2563 109 2834 120 346 248 516 389 519 33 1 111 -572 175 -1273z m-10184 594 c0 -44 -64 -168 -143 -275 -119 -160 -166 -171 -275 -62 -109 109 -98 156 62 275 217 160 356 184 356 62z m9200 -1008 c0 -880 -19 -987 -175 -975 -105 8 -186 -66 -204 -187 -16 -110 -190 -311 -388 -447 -284 -195 -497 -249 -1021 -261 -548 -12 -668 -45 -697 -192 -32 -160 30 -173 603 -127 689 56 1422 362 1705 713 l173 215 2 -275 c1 -151 -40 -275 -91 -275 -52 0 -121 -86 -154 -191 -98 -308 -809 -538 -1628 -526 -715 10 -966 -119 -471 -243 441 -111 1391 12 1848 238 519 257 650 181 556 -321 -65 -344 -187 -453 -301 -269 -105 170 -605 192 -900 40 -227 -118 -471 -139 -1036 -92 -824 70 -994 131 -830 295 60 60 109 196 109 302 0 248 380 867 533 867 64 0 200 124 301 275 137 204 271 277 518 282 199 4 475 117 690 280 379 289 403 337 273 541 -123 195 -441 33 -382 -195 64 -243 -307 -497 -610 -418 -123 32 -223 95 -223 139 0 213 1474 1796 1672 1796 95 0 128 -250 128 -989z m9200 658 c0 -399 -653 -1769 -843 -1769 -212 0 -302 519 -114 657 218 160 196 245 -57 217 -415 -46 -296 198 124 255 388 52 793 301 677 417 -27 28 -192 -3 -365 -68 -370 -140 -853 -14 -901 236 -25 130 76 162 544 173 316 7 620 58 675 113 179 179 260 107 260 -231z m-15962 -81 c91 -460 80 -507 -113 -447 -136 42 -242 -84 -475 -564 -372 -765 -1202 -1463 -1843 -1549 -486 -65 -551 -145 -522 -643 17 -284 -25 -399 -175 -479 -331 -178 -384 -126 -454 433 -75 601 -193 811 -557 993 -404 201 -360 417 122 602 237 90 648 344 915 565 267 221 526 401 575 401 49 0 89 93 89 207 0 294 181 593 360 593 84 0 369 -71 633 -157 661 -217 1147 -162 1189 132 46 324 183 277 256 -87z m781 -1600 c405 -299 825 -488 1087 -488 175 0 189 -46 129 -425 -67 -421 -163 -543 -623 -793 -220 -120 -264 -99 -607 287 -375 423 -605 984 -605 1476 0 375 -193 278 -349 -175 -261 -758 -984 -1773 -1635 -2295 -301 -241 -402 -220 -476 100 -35 151 -130 328 -210 392 -239 191 -118 555 220 665 557 182 1540 966 1823 1453 407 702 541 769 746 374 93 -179 318 -436 500 -571z m-6953 185 c-28 -68 -49 12 -47 177 3 165 25 220 50 123 26 -97 24 -232 -3 -300z m15220 -370 c161 -83 203 -154 133 -224 -57 -57 -81 -161 -54 -232 68 -177 -499 -289 -759 -150 -174 93 -206 207 -206 726 l0 616 325 -307 c179 -170 431 -363 561 -429z m-14354 -553 c110 -165 345 -457 522 -650 281 -304 332 -445 391 -1075 44 -480 32 -725 -37 -725 -217 0 -1230 2361 -1352 3150 l-62 400 169 -400 c94 -220 260 -535 369 -700z m22961 887 c116 -108 -210 -250 -584 -255 -492 -7 -585 55 -406 271 100 121 229 143 539 91 224 -37 428 -85 451 -107z m-23693 -737 c0 -104 -45 -216 -100 -250 -58 -36 -100 68 -100 250 0 182 42 286 100 250 55 -34 100 -146 100 -250z m17066 233 c-41 -42 -286 -190 -543 -329 -256 -140 -573 -411 -704 -604 -149 -219 -299 -335 -403 -311 -91 21 -391 44 -666 50 -438 10 -504 39 -532 236 -28 198 12 225 328 225 511 0 1072 253 1049 473 -10 97 -12 200 -6 227 7 28 359 63 783 80 424 16 736 -5 694 -47z m4084 -233 c158 -165 371 -300 474 -300 260 0 740 -263 809 -442 32 -83 15 -411 -37 -729 -52 -319 -95 -590 -95 -604 -1 -14 -42 -25 -92 -25 -50 0 -66 269 -36 600 42 456 23 600 -76 600 -72 0 -216 77 -320 171 -154 139 -224 148 -381 50 -260 -163 -296 -154 -296 75 0 109 -90 245 -200 304 -117 63 -200 209 -200 354 0 322 101 310 450 -54z m-15050 -240 c0 -77 157 -373 349 -658 378 -563 381 -551 -202 -962 -647 -455 -937 -554 -1427 -483 -259 38 -508 91 -555 118 -46 26 145 267 425 534 280 267 668 734 863 1038 345 541 547 693 547 413z m3647 45 c33 -53 30 -213 -6 -356 -53 -209 -117 -254 -328 -229 -201 23 -255 77 -228 230 65 379 412 598 562 355z m-906 -442 c-61 -159 209 -463 410 -463 166 0 285 -166 169 -237 -102 -64 -1120 414 -1120 526 0 76 366 290 522 304 39 4 48 -55 19 -130z m-8804 -296 c-39 -120 -66 -295 -61 -390 6 -95 -31 -199 -82 -231 -104 -64 -133 782 -30 885 126 126 243 -52 173 -264z m20863 127 c0 -113 -45 -178 -100 -144 -55 34 -100 127 -100 206 0 79 45 144 100 144 55 0 100 -93 100 -206z m2800 -42 c0 -220 -453 -480 -701 -402 -301 96 -206 386 152 462 482 103 549 96 549 -60z m-23100 -250 c0 -227 693 -1769 980 -2178 105 -151 221 -400 258 -553 38 -154 145 -307 240 -340 722 -256 672 -850 -78 -941 -541 -65 -765 231 -993 1310 -52 248 -183 833 -290 1300 -296 1287 -340 1600 -222 1600 58 0 105 -89 105 -198z m7500 -257 c0 -379 -285 -882 -431 -762 -127 104 -378 147 -742 129 -147 -8 -244 -94 -283 -252 -68 -270 -1023 -921 -1156 -788 -174 174 41 511 443 692 227 102 545 299 707 436 348 295 1159 774 1337 789 70 6 125 -101 125 -244z m7205 102 c316 -163 392 -347 144 -347 -84 0 -239 -55 -346 -121 -235 -147 -282 -107 -364 303 -75 371 81 416 566 165z m5995 -91 c0 -261 -139 -406 -296 -308 -110 67 76 552 212 552 46 0 84 -110 84 -244z m400 38 c0 -52 -45 -94 -100 -94 -55 0 -100 70 -100 156 0 86 45 128 100 94 55 -34 100 -104 100 -156z m-7244 -205 c160 -309 92 -546 -116 -410 -142 93 -264 721 -140 721 52 0 167 -140 256 -311z m-5661 8 c278 -6 499 -247 439 -480 -32 -119 -88 -217 -126 -217 -161 0 -819 701 -755 805 50 81 100 82 178 4 60 -60 179 -110 264 -112z m12999 -334 c-95 -87 -109 -71 -59 70 36 101 71 258 79 350 7 92 33 61 58 -70 25 -130 -10 -287 -78 -350z m1906 350 c0 -159 -413 -613 -557 -613 -280 0 -143 382 207 581 243 137 350 147 350 32z m-11200 -313 c195 -169 204 -200 56 -200 -96 0 -308 -78 -470 -174 -249 -148 -308 -153 -382 -33 -108 175 177 599 406 604 88 2 263 -87 390 -197z m-12141 -507 c62 -299 149 -673 192 -833 56 -208 46 -270 -36 -219 -210 129 -301 -33 -187 -333 84 -225 80 -328 -21 -450 -182 -218 -481 -198 -556 38 -76 240 39 904 158 904 125 0 410 589 339 703 -33 53 -126 97 -207 97 -114 0 -125 -44 -48 -187 99 -184 53 -313 -110 -313 -130 0 -97 946 38 1081 205 205 319 77 438 -488z m2983 546 c218 -83 198 -311 -39 -437 -260 -140 -664 -858 -746 -1327 -79 -447 -347 -519 -375 -100 -55 827 170 1487 600 1753 303 188 340 196 560 111z m16508 -123 c0 -360 -2531 -2718 -3938 -3670 -1707 -1153 -1948 -1261 -1643 -734 103 179 353 388 581 487 517 226 676 420 945 1150 121 329 271 660 333 735 113 136 1587 1123 1872 1253 83 38 488 268 900 512 740 438 950 497 950 267z m-9550 -5 c0 -49 -67 -116 -150 -147 -82 -32 -150 -128 -150 -213 0 -139 -27 -138 -250 8 -384 252 -320 441 150 441 220 0 400 -40 400 -89z m854 -48 c2 -7 148 -183 325 -391 269 -318 321 -461 321 -884 0 -640 -159 -607 -418 86 -203 545 -438 710 -763 536 -206 -110 -419 24 -419 263 0 194 226 250 533 134 178 -68 267 -69 267 -1 0 55 -67 126 -150 158 -241 92 -173 257 75 180 124 -38 227 -75 229 -81z m4476 -88 c323 -149 421 -393 272 -671 -111 -208 -302 -279 -302 -112 0 51 -116 230 -257 398 -369 438 -230 624 287 385z m-6905 -171 c206 -79 375 -177 375 -218 0 -143 -219 -207 -329 -97 -61 61 -212 111 -335 111 -123 0 -252 45 -286 100 -70 113 33 327 134 280 36 -17 235 -96 441 -176z m13031 -61 c299 -142 544 -288 544 -326 0 -38 124 -200 275 -361 721 -765 850 -1268 154 -602 -258 248 -675 569 -925 712 -1176 676 -1214 1128 -48 577z m-14098 -174 l249 -231 -529 -8 c-636 -11 -709 24 -575 276 142 264 549 247 855 -37z m4783 -87 c-353 -95 -450 -9 -199 174 150 110 223 115 336 21 121 -100 98 -132 -137 -195z m11249 -107 c-5 -234 -39 -669 -75 -967 l-65 -542 -134 585 c-90 391 -214 647 -375 774 -302 237 -307 375 -16 377 124 0 293 45 375 98 255 165 300 114 290 -325z m-8641 0 c287 -269 363 -431 442 -944 146 -940 -63 -1507 -671 -1824 -190 -99 -286 -87 -550 65 -479 275 -720 839 -720 1685 0 760 62 882 603 1174 418 226 505 211 896 -156z m-11105 135 c31 -50 -79 -347 -244 -660 -176 -336 -300 -723 -300 -940 0 -485 -172 -667 -419 -443 -334 302 -193 1444 234 1899 220 234 624 314 729 144z m5801 -82 c41 -109 0 -221 -112 -302 -152 -112 -188 -101 -255 81 -43 116 -53 252 -22 302 92 150 318 103 389 -81z m10255 -163 c0 -379 -2029 -3000 -2662 -3438 -142 -97 -338 -251 -436 -341 -408 -372 -1227 -986 -1316 -986 -52 0 -330 -149 -616 -331 -690 -439 -1790 -983 -1855 -917 -29 29 123 413 337 853 355 726 441 828 944 1110 604 339 1920 1210 2554 1692 220 168 534 403 699 524 164 120 699 635 1188 1144 489 509 951 925 1026 925 77 0 137 -103 137 -235z m-11304 -58 c139 -259 131 -307 -46 -307 -82 0 -150 41 -150 92 0 50 -27 163 -61 250 -87 226 134 196 257 -35z m13304 -500 c0 -34 157 -146 348 -249 191 -103 372 -264 402 -358 30 -94 188 -290 352 -436 237 -211 298 -348 298 -665 0 -219 -45 -399 -100 -399 -55 0 -100 52 -100 115 0 199 -651 919 -1437 1588 -420 359 -759 728 -761 828 -2 163 49 154 498 -91 275 -149 500 -299 500 -333z m-16889 368 c27 -328 -4 -1081 -67 -1603 -53 -446 -126 -622 -317 -772 -247 -195 -247 -195 -588 66 -391 297 -490 578 -400 1135 102 641 277 913 708 1105 487 217 650 234 664 69z m2577 35 c161 -103 65 -310 -144 -310 -79 0 -144 19 -144 42 0 23 -27 113 -61 200 -67 174 123 211 349 68z m3391 -123 c20 -107 -75 -201 -274 -270 -323 -113 -381 -33 -242 330 79 208 474 161 516 -60z m1170 12 c-199 -219 -308 -196 -214 47 32 85 135 154 227 154 154 0 153 -18 -13 -201z m-3049 -143 c0 -253 -147 -423 -238 -275 -73 118 43 519 150 519 48 0 88 -110 88 -244z m-2139 -108 c115 -175 98 -274 -129 -750 -178 -374 -270 -752 -290 -1188 -37 -800 -190 -997 -632 -814 -374 155 -503 305 -578 670 -173 849 39 1576 588 2014 463 370 826 393 1041 68z m3052 37 c323 -372 201 -549 -226 -328 -375 194 -375 458 1 535 21 4 123 -89 225 -207z m2911 -436 c234 -1144 318 -1463 399 -1513 146 -91 286 -549 226 -740 -94 -295 -671 -513 -1030 -388 -428 150 -617 493 -688 1247 -49 524 -24 720 129 1017 465 902 828 1044 964 377z m-4767 174 c212 -144 231 -427 80 -1144 -84 -401 -132 -897 -105 -1103 42 -323 8 -409 -249 -625 -371 -312 -518 -315 -714 -16 -223 340 -302 886 -222 1527 61 485 129 619 509 999 453 453 519 487 701 362z m11842 -398 c-3 -678 -647 -1643 -1976 -2958 -657 -651 -1309 -1258 -1448 -1350 -139 -92 -516 -352 -839 -577 -609 -427 -1578 -949 -2554 -1375 -445 -194 -600 -222 -716 -131 -130 101 -121 173 68 566 168 349 328 507 716 704 1529 778 2578 1393 3200 1879 825 643 2196 2040 2900 2956 275 357 534 652 575 655 41 3 74 -163 74 -369z m2267 -751 c229 -215 474 -533 544 -707 71 -174 187 -353 259 -397 80 -49 128 -262 123 -550 l-9 -470 -240 508 c-146 307 -508 762 -917 1150 -640 608 -926 1029 -926 1364 0 150 258 -48 1166 -898z m-12673 830 c161 -86 179 -240 167 -1422 l-13 -1326 -278 -153 c-272 -149 -288 -144 -624 221 -294 318 -345 444 -345 857 0 583 252 1386 531 1694 227 251 302 268 562 129z m1591 -154 c20 -110 105 -277 188 -371 98 -110 134 -288 103 -500 -27 -181 10 -526 82 -767 114 -379 110 -470 -27 -679 -183 -279 -435 -433 -710 -433 -261 0 -695 651 -776 1162 -86 541 181 1474 482 1686 290 204 612 156 658 -98z m-10484 -343 c0 -387 -189 -683 -504 -794 -381 -132 -496 -79 -496 231 0 163 88 268 297 355 163 67 348 185 412 262 163 196 291 173 291 -54z m19508 -777 c80 -211 63 -346 -78 -623 -699 -1371 -1836 -2726 -3016 -3591 -785 -576 -1916 -1216 -2147 -1216 -94 0 -229 -154 -314 -359 l-151 -360 -576 55 c-722 69 -687 68 -1226 8 -529 -59 -713 34 -638 323 43 162 156 220 501 259 631 71 2711 1134 3759 1920 1131 850 3076 2772 3418 3379 148 261 290 475 317 475 26 0 94 -121 151 -270z m-19265 -97 c83 -217 12 -271 -632 -475 -340 -108 -573 -136 -633 -76 -109 109 -38 164 622 484 558 270 564 271 643 67z m2149 126 c-73 -72 -2828 -1143 -3130 -1217 -395 -96 -309 163 94 284 162 49 384 127 494 173 283 119 2381 789 2492 796 50 3 73 -14 50 -36z m19157 -679 c248 -330 451 -675 451 -768 0 -92 68 -265 151 -383 164 -234 139 -268 -276 -367 -163 -39 -275 -24 -275 36 0 56 45 102 100 102 205 0 87 264 -313 700 -391 426 -587 834 -587 1221 0 292 269 97 749 -541z m-18736 370 c8 -55 -183 -201 -425 -324 -680 -348 -3316 -1526 -3414 -1526 -48 0 -73 144 -55 319 28 286 78 332 481 438 248 65 1013 343 1700 618 1742 697 1686 681 1713 475z m487 -337 c0 -47 -326 -230 -725 -406 -859 -379 -2792 -1434 -3243 -1770 -406 -302 -452 -298 -414 38 35 305 6 287 2582 1520 1392 666 1800 806 1800 618z m1200 -203 c0 -43 -342 -367 -761 -719 -419 -353 -812 -686 -875 -742 -63 -55 -271 -228 -464 -384 -757 -613 -1647 -1541 -1981 -2065 -354 -555 -1251 -1500 -1425 -1500 -52 0 -94 270 -94 600 0 517 26 600 185 600 101 0 270 96 375 212 104 117 595 553 1090 969 495 417 990 854 1100 972 195 210 1816 1584 2387 2023 266 205 463 220 463 34z m-1352 -412 c-265 -276 -498 -347 -498 -152 0 71 626 454 742 454 25 0 -85 -136 -244 -302z m16622 -276 c83 -622 -333 -1391 -1254 -2316 -421 -423 -935 -847 -1141 -942 -206 -96 -375 -216 -375 -269 0 -538 2308 1493 2698 2374 211 478 349 544 436 210 144 -548 -264 -1304 -984 -1827 -178 -129 -180 -146 -25 -149 267 -5 950 667 1081 1064 114 348 121 351 305 166 164 -164 173 -229 67 -509 -188 -498 26 -630 379 -234 338 379 597 392 957 47 164 -157 337 -239 430 -203 245 94 191 192 -338 611 l-494 391 201 282 c239 335 299 345 537 82 100 -110 270 -200 379 -200 188 0 195 -48 137 -875 -34 -481 -63 -1014 -64 -1183 l-2 -309 -1397 -102 c-1460 -106 -1733 -198 -1682 -569 26 -188 -50 -220 -771 -328 -954 -142 -802 -91 -1046 -353 -112 -120 -205 -334 -205 -475 -4 -659 -212 -860 -699 -674 -137 53 -362 94 -500 92 -144 -2 -39 58 250 142 792 232 792 232 685 339 -64 64 -212 58 -427 -17 -215 -75 -637 -92 -1211 -49 -568 43 -904 30 -945 -36 -37 -60 39 -103 184 -103 136 0 323 -29 414 -64 241 -92 -10 -233 -419 -234 -341 -2 -493 -146 -448 -424 31 -186 -220 -275 -733 -261 -165 5 -826 -26 -1470 -69 -1012 -68 -1204 -55 -1425 89 -421 276 -260 880 173 648 240 -129 2744 -11 2833 133 112 181 -44 195 -1101 97 -1035 -96 -1677 -31 -1810 184 -31 51 9 249 89 441 139 331 177 352 778 424 348 42 677 64 731 49 335 -96 1381 -18 1532 112 93 82 453 176 800 211 346 34 712 106 814 161 101 54 493 96 870 94 457 -2 887 69 1286 211 330 118 870 253 1201 300 330 46 722 131 871 187 148 57 643 111 1099 120 940 20 1079 53 1079 258 0 117 -137 141 -676 119 -371 -15 -736 9 -809 55 -85 52 -247 -1 -444 -147 -246 -182 -478 -238 -1116 -273 -604 -33 -856 -91 -1010 -231 -381 -348 -1630 -449 -2164 -176 -123 63 -210 28 -319 -128 -110 -156 -288 -227 -656 -263 -626 -60 -658 83 -81 355 234 110 666 363 960 561 294 199 577 361 627 361 156 0 2429 2329 2587 2650 284 577 552 939 634 857 45 -46 107 -264 137 -485z m-14615 237 c186 -137 182 -152 -133 -453 -265 -253 -361 -292 -517 -209 -106 57 -262 103 -348 103 -252 0 -180 -190 97 -260 140 -35 242 -99 225 -142 -16 -43 -292 -375 -614 -738 -614 -692 -840 -786 -1230 -514 -199 140 -335 115 -335 -60 0 -45 136 -151 302 -237 l302 -156 -377 -454 c-402 -484 -322 -463 -1277 -319 -399 60 -289 -172 125 -264 591 -131 531 -256 -125 -256 -582 0 -733 -132 -280 -246 401 -101 96 -244 -383 -180 -252 34 -387 13 -387 -61 0 -62 87 -113 194 -113 107 0 222 -45 256 -100 38 -61 -117 -100 -398 -100 -445 0 -455 7 -339 225 66 124 175 270 242 325 67 55 264 303 438 550 348 494 1957 2164 2225 2309 127 68 184 43 230 -104 65 -203 418 -373 534 -257 36 37 -12 111 -108 164 -96 54 -174 159 -174 235 0 75 -46 152 -102 170 -160 54 1327 1274 1558 1279 113 2 293 -60 399 -137z m-2674 -541 c-357 -457 -652 -527 -929 -220 -176 194 -170 203 259 387 309 133 493 162 620 95 154 -80 162 -120 50 -262z m9807 -108 c-144 -414 -379 -590 -838 -628 -505 -40 -523 -222 -27 -263 l374 -31 -294 -581 c-161 -320 -367 -610 -456 -644 -184 -71 -947 -86 -947 -20 0 119 508 993 978 1682 508 745 543 775 920 775 389 0 391 -2 290 -290z m-5457 -7 c141 -131 -1834 -2805 -2068 -2801 -62 1 -225 90 -363 198 -292 228 -400 249 -399 75 1 -69 162 -217 359 -330 l357 -205 -310 -333 c-296 -317 -335 -329 -819 -265 -394 52 -498 38 -465 -62 23 -72 140 -144 260 -162 258 -38 293 -218 42 -217 -357 2 -925 128 -925 204 0 44 119 221 264 393 186 221 295 283 370 208 126 -126 1166 -144 1166 -20 0 47 -231 114 -514 147 -282 33 -536 83 -564 111 -78 78 452 730 1279 1575 750 766 754 768 1201 720 437 -47 443 -44 223 119 -281 208 -282 318 -4 614 174 186 284 221 525 171 167 -35 340 -98 385 -140z m15927 -579 c-118 -118 -165 62 -89 339 l79 287 33 -284 c19 -156 8 -310 -23 -342z m-21311 280 c207 -230 133 -534 -119 -486 -238 46 -462 498 -298 603 176 112 221 99 417 -117z m7040 106 c114 -72 106 -140 -46 -399 -161 -271 -239 -311 -613 -311 -235 0 -428 26 -428 57 0 31 118 211 262 400 260 341 547 429 825 253z m1953 -35 c-332 -572 -460 -675 -847 -675 -216 0 -393 30 -393 66 0 36 115 216 255 400 215 281 319 334 656 334 293 0 381 -34 329 -125z m-9740 -372 c0 -134 -48 -178 -150 -139 -82 31 -150 120 -150 197 0 76 68 139 150 139 83 0 150 -89 150 -197z m-355 -319 c140 -64 255 -160 255 -213 0 -137 -617 3 -795 181 -130 131 -122 148 69 148 119 0 331 -52 471 -116z m-499 -370 c371 -180 355 -384 -22 -278 -96 26 -275 77 -399 113 -160 46 -225 22 -225 -81 0 -79 99 -171 221 -202 121 -32 188 -90 149 -129 -88 -89 -570 162 -570 297 0 116 299 466 398 466 36 0 238 -84 448 -186z m8154 123 c1 -74 -329 -728 -434 -862 -149 -189 -615 -238 -716 -75 -92 149 -250 121 -250 -44 0 -78 155 -199 344 -267 l344 -125 -208 -292 c-186 -261 -250 -286 -588 -232 -460 73 -641 -115 -197 -204 396 -79 445 -168 229 -413 -148 -168 -254 -188 -709 -135 l-535 62 480 700 c1314 1917 1356 1961 1842 1927 219 -15 398 -33 398 -40z m1510 -572 c-301 -438 -647 -621 -952 -504 -216 83 -200 180 102 636 224 338 317 397 675 423 228 16 429 -2 447 -42 18 -39 -104 -270 -272 -513z m-9810 -470 c0 -90 -624 -595 -734 -595 -36 0 -66 170 -66 378 l0 377 400 -38 c220 -21 400 -76 400 -122z m9279 -346 c65 -53 -399 -735 -535 -787 -240 -92 -744 50 -744 210 0 81 90 274 200 428 180 252 244 275 625 227 234 -30 438 -65 454 -78z m2021 97 c0 -225 -456 -872 -671 -954 -264 -100 -867 -32 -809 92 17 36 95 233 174 436 135 351 169 373 649 407 279 20 541 44 582 55 41 10 75 -6 75 -36z m-3125 -1109 c259 -70 299 -287 68 -376 -282 -108 -661 188 -476 372 80 81 119 81 408 4z m2425 -207 c0 -38 -118 -239 -261 -447 -292 -420 -577 -559 -789 -383 -78 65 -195 84 -261 43 -76 -47 -94 -31 -49 42 40 63 178 115 308 115 288 0 552 95 552 198 0 42 -114 77 -254 77 -310 0 -389 68 -311 271 42 110 201 154 562 154 277 0 503 -31 503 -70z m12088 8 c622 -125 283 -434 -480 -437 -321 -1 -708 225 -708 414 0 99 736 113 1188 23z m-16453 -338 l310 0 -233 -163 c-201 -140 -285 -145 -622 -34 -467 154 -525 349 -77 260 171 -35 451 -63 622 -63z m-2635 -336 c0 -50 -221 -60 -500 -23 -344 45 -500 31 -500 -47 0 -62 99 -139 220 -170 209 -55 210 -61 25 -134 -395 -154 -564 -108 -490 135 140 460 302 548 794 434 248 -57 451 -145 451 -195z m4276 161 c25 -78 -56 -125 -218 -125 -168 0 -258 55 -258 157 0 188 412 160 476 -32z m-7743 -70 c176 -133 174 -144 -35 -256 -257 -137 -459 -2 -364 244 73 191 160 193 399 12z m22430 -141 c248 -11 323 -65 360 -258 26 -133 20 -284 -13 -334 -33 -51 -575 -120 -1204 -156 -1020 -57 -1445 -160 -1291 -314 28 -29 295 -4 593 55 593 117 1802 14 1859 -159 22 -66 -469 -98 -1408 -91 -1390 10 -1453 20 -1743 264 -166 140 -465 285 -665 322 -267 50 -355 113 -331 236 70 364 1581 536 3843 435z m-16913 -114 c200 -86 200 -86 0 -91 -110 -3 -267 38 -350 91 -133 86 -133 96 0 91 83 -3 240 -44 350 -91z m-2350 -200 c0 -55 -45 -100 -100 -100 -55 0 -100 45 -100 100 0 55 45 100 100 100 55 0 100 -45 100 -100z m4200 -50 c-137 -165 -400 -203 -400 -58 0 99 170 188 387 200 111 6 113 -21 13 -142z m-1975 -200 c-41 -163 -170 -163 -379 1 -187 147 -183 152 104 126 165 -15 289 -72 275 -127z m4228 30 c28 -28 -12 -105 -91 -170 -218 -181 -810 8 -620 198 58 59 648 35 711 -28z m9047 -307 c731 -300 800 -351 800 -585 0 -230 -691 -579 -1316 -663 -413 -55 -470 27 -274 394 61 113 110 369 110 568 0 313 43 514 111 513 10 -1 267 -103 569 -227z m-11782 -195 c-71 -71 -118 -77 -118 -15 0 134 118 252 185 185 28 -28 -2 -105 -67 -170z m2382 -128 c0 -159 -351 -210 -441 -64 -74 120 40 214 258 214 101 0 183 -67 183 -150z m-250 -450 c34 -56 -40 -99 -169 -98 -186 1 -202 20 -81 98 186 120 176 120 250 0z m7922 -64 c594 -62 791 -236 266 -236 -138 0 -327 -39 -420 -86 -92 -48 -573 -112 -1068 -143 -834 -53 -884 -45 -675 98 124 86 225 214 225 285 0 188 197 247 650 193 220 -26 680 -76 1022 -111z m128 -686 c-414 -160 -800 -187 -800 -57 0 120 251 183 750 188 l400 4 -350 -135z"/>
<path d="M9800 46800 c0 -133 67 -200 200 -200 227 0 256 104 80 280 -176 176 -280 147 -280 -80z"/>
<path d="M19868 14356 c-162 -123 -170 -200 -75 -715 59 -318 107 -592 107 -609 0 -18 66 -32 146 -32 346 0 498 1042 197 1343 -185 185 -149 184 -375 13z m273 -749 c-49 -117 -87 -83 -149 134 -46 161 -55 337 -21 393 90 146 248 -342 170 -527z"/>
<path d="M18820 13780 c-261 -261 -28 -1480 284 -1480 291 0 440 292 432 848 -5 289 -39 577 -78 639 -92 149 -486 145 -638 -7z m462 -523 c17 -208 3 -452 -33 -543 -53 -137 -86 -124 -203 86 -148 267 -191 722 -77 835 147 147 282 -17 313 -378z"/>
<path d="M17757 13343 c-193 -193 -194 -164 33 -893 226 -724 433 -817 678 -305 149 313 154 407 39 732 -228 643 -441 775 -750 466z m496 -583 c128 -373 105 -660 -52 -660 -73 0 -301 759 -301 1003 0 242 227 21 353 -343z"/>
<path d="M7855 18228 c-69 -180 171 -428 414 -428 172 0 165 106 -25 378 -187 267 -300 281 -389 50z"/>
<path d="M19175 17227 c-206 -21 -375 -78 -375 -125 0 -122 557 -229 798 -153 217 69 285 362 77 334 -69 -9 -294 -34 -500 -56z"/>
<path d="M19612 3110 c-76 -48 -108 -135 -72 -194 39 -63 -66 -127 -262 -160 -180 -29 -575 -95 -878 -146 -371 -62 -592 -58 -678 14 -91 75 -206 70 -395 -16 -329 -150 -1897 -238 -1975 -111 -33 54 -232 31 -473 -54 -368 -130 -476 -129 -955 10 -418 122 -573 131 -682 40 -186 -154 -183 -330 4 -258 81 31 397 3 703 -61 414 -86 631 -88 853 -4 215 81 377 83 583 5 157 -59 371 -72 475 -29 192 79 835 144 1840 186 1063 44 1684 180 1953 429 141 132 345 239 452 239 107 0 195 45 195 100 0 123 -498 130 -688 10z"/>
<path d="M14033 1150 c52 -157 1288 -180 1496 -27 152 111 52 130 -675 129 -524 -1 -841 -41 -821 -102z"/>
<path d="M3500 5210 c0 -84 522 -310 715 -310 178 0 75 173 -170 284 -304 139 -545 150 -545 26z"/>
<path d="M6620 5719 c35 -179 532 -400 646 -287 80 81 -230 332 -497 404 -128 34 -171 0 -149 -117z"/>
<path d="M5127 52440 c33 -34 120 -37 192 -8 80 32 56 55 -61 60 -105 4 -164 -19 -131 -52z"/>
<path d="M8231 52025 c-623 -979 -623 -1464 1 -1760 462 -219 886 -209 1187 29 136 106 378 226 537 267 160 40 493 191 739 336 497 292 670 709 464 1124 -228 459 -1359 266 -1359 -233 0 -250 304 -243 370 9 78 297 417 361 655 123 255 -256 177 -595 -200 -870 -212 -155 -408 -195 -860 -177 -570 22 -584 16 -526 -214 46 -185 12 -248 -157 -293 -256 -67 -382 -6 -382 184 0 88 -99 131 -275 119 -250 -17 -278 16 -306 356 -26 308 22 425 262 650 308 288 484 825 272 825 -66 0 -255 -214 -422 -475z"/>
<path d="M20300 52400 c83 -53 240 -97 350 -97 110 0 268 44 350 97 108 70 9 97 -350 97 -359 0 -458 -27 -350 -97z"/>
<path d="M24800 48600 c-82 -53 -269 -98 -414 -98 -145 -1 -370 -95 -500 -209 l-236 -207 250 52 c138 29 441 83 675 120 325 52 425 112 425 255 0 215 -1 216 -200 87z"/>
<path d="M24908 37658 c-4 -105 19 -164 52 -131 34 33 37 120 8 192 -32 80 -55 56 -60 -61z"/>
<path d="M14350 100 c-34 -55 31 -100 144 -100 113 0 206 45 206 100 0 55 -65 100 -144 100 -79 0 -172 -45 -206 -100z"/>
<path d="M3927 40 c33 -34 120 -37 192 -8 80 32 56 55 -61 60 -105 4 -164 -19 -131 -52z"/>
</g>
</svg>