<svg xmlns="http://www.w3.org/2000/svg" version="1.0" width="250" height="525" viewBox="0 0 250.000000 525.000000" preserveAspectRatio="xMidYMid meet">
<metadata>
Created by potrace 1.10, written by Peter Selinger 2001-2011
</metadata>
<g transform="translate(0.000000,525.000000) scale(0.010000,-0.010000)" fill="#555555" stroke="none">
<path d="M2638 52187 c50 -253 14 -358 -188 -546 -173 -160 -250 -337 -250 -575 0 -283 -44 -355 -248 -407 -154 -38 -273 -157 -311 -311 -35 -136 -125 -248 -202 -248 -76 0 -139 -41 -139 -92 0 -129 -696 -846 -1025 -1056 -311 -198 -405 -633 -100 -460 96 55 368 281 604 504 236 222 450 404 475 404 25 0 46 -128 46 -284 0 -399 -548 -1451 -957 -1837 -469 -442 -480 -1040 -33 -1831 170 -301 342 -568 381 -593 40 -24 56 -609 36 -1300 -21 -755 3 -1255 60 -1255 52 0 126 180 163 400 37 220 113 400 169 400 57 0 75 -71 42 -158 -34 -87 -61 -357 -61 -600 0 -528 -158 -574 -659 -192 -407 311 -441 310 -441 -1 0 -267 414 -595 900 -715 511 -125 595 -293 554 -1104 -21 -411 -61 -771 -90 -800 -29 -29 -145 98 -256 281 -174 286 -182 346 -56 416 145 81 210 373 84 373 -35 0 -128 -79 -206 -175 -112 -137 -155 -146 -198 -40 -30 74 -178 276 -329 450 -150 173 -299 383 -330 465 -32 83 -61 -22 -65 -233 -6 -294 71 -481 330 -800 399 -491 962 -1578 962 -1856 0 -264 -102 -511 -211 -511 -49 0 -225 281 -390 625 -312 648 -525 975 -635 975 -143 0 -51 -538 137 -801 110 -155 230 -428 265 -605 62 -310 54 -321 -201 -257 -234 59 -265 38 -265 -185 0 -226 40 -252 385 -252 352 0 400 -34 564 -398 159 -352 166 -480 62 -1125 -71 -441 -90 -1081 -50 -1627 137 -1838 64 -16821 -112 -22850 -20 -687 -64 -3498 -99 -6245 -35 -2747 -85 -5031 -112 -5075 -28 -44 65 -80 206 -80 l256 0 0 1842 c0 1922 30 2178 248 2095 73 -28 163 0 202 62 81 131 -132 701 -262 701 -113 0 -102 5385 12 5650 47 110 89 139 93 63 4 -86 81 -117 207 -84 291 76 337 -227 265 -1763 -34 -724 -64 -1451 -67 -1616 -4 -271 -17 -283 -137 -125 -184 242 -261 219 -261 -79 0 -187 46 -247 175 -225 162 27 173 -103 152 -1721 -20 -1539 -84 -2302 -290 -3456 -75 -420 92 -527 950 -606 l722 -68 -254 -265 c-433 -451 -252 -593 191 -150 276 276 502 240 422 -66 -70 -266 211 -244 454 36 108 124 249 226 315 227 132 2 885 219 1243 358 126 50 428 90 670 90 242 0 656 44 920 98 264 54 593 121 730 149 138 28 374 79 525 114 156 35 275 20 275 -36 0 -54 -281 -155 -625 -226 -344 -70 -668 -166 -720 -213 -135 -122 95 -103 795 66 718 173 750 176 750 49 0 -54 -157 -164 -350 -245 -192 -80 -350 -161 -350 -180 0 -79 2648 -53 2863 29 133 50 237 172 237 277 0 103 83 263 185 355 175 158 219 150 761 -135 316 -166 684 -302 817 -302 289 0 914 -249 1141 -453 88 -80 380 -176 648 -213 l488 -67 -220 280 c-121 154 -220 319 -220 366 0 48 214 86 475 86 432 -1 495 -33 701 -350 124 -192 293 -349 375 -349 191 0 188 99 -11 384 -88 126 -134 255 -102 287 31 32 423 60 870 63 746 4 828 -16 1000 -240 103 -134 189 -300 190 -369 2 -143 402 -174 402 -32 0 52 -46 216 -103 364 -81 213 -69 309 56 446 105 117 153 338 141 661 -27 777 122 1825 277 1953 109 91 222 89 490 -8 408 -147 538 -75 780 436 241 508 209 1287 -66 1601 -214 244 -239 249 -511 105 -386 -204 -739 -193 -797 24 -54 200 -24 1323 111 4161 100 2103 116 2159 606 2162 148 1 254 74 286 196 28 107 147 209 264 225 467 67 885 1674 515 1981 -132 110 -213 106 -487 -24 -309 -148 -349 -144 -657 51 l-329 208 70 1167 c79 1330 12 1498 -603 1498 -326 0 -343 18 -343 353 0 218 -56 375 -147 410 -80 30 -452 -81 -825 -247 -914 -409 -1128 -464 -1128 -289 0 228 520 840 928 1091 896 551 1454 1215 1781 2120 158 436 517 668 917 591 345 -66 434 136 275 619 -128 386 -428 592 -1029 705 -205 38 -372 91 -372 118 0 26 180 253 400 503 220 250 400 504 400 565 0 62 159 439 353 839 268 553 373 925 435 1550 79 791 56 1118 -287 4122 -119 1046 -475 2321 -901 3232 -165 352 -300 699 -300 772 0 72 -166 348 -369 613 -202 266 -417 573 -477 683 -282 518 -736 1041 -1053 1212 -192 103 -364 267 -382 364 -31 159 68 174 1102 161 624 -8 1228 15 1342 51 335 107 433 472 371 1382 -31 456 -14 988 38 1180 93 344 103 349 572 319 666 -44 820 123 906 978 44 446 29 756 -46 895 -104 195 -167 207 -764 146 l-651 -67 55 2140 c69 2662 100 2891 389 2861 157 -16 225 40 249 203 27 194 92 225 463 225 237 0 473 56 525 125 163 215 330 928 330 1410 0 403 -30 469 -238 521 -131 33 -411 12 -621 -46 -754 -208 -1129 414 -566 938 269 251 271 257 61 313 -136 36 -236 164 -273 350 -45 225 -128 307 -355 352 -226 46 -304 122 -327 320 -23 196 -123 295 -401 400 -329 125 -389 122 -532 -21 -89 -89 -234 -162 -321 -162 -88 0 -365 -121 -617 -268 -356 -209 -625 -278 -1224 -312 -964 -56 -1657 107 -2303 542 -487 327 -535 338 -1486 338 -952 0 -989 -8 -1198 -274 -210 -267 -220 -269 -358 -81 -77 106 -141 230 -141 274 0 45 -156 81 -347 81 l-347 0 244 -360 c135 -198 275 -521 312 -717 77 -410 -21 -3147 -160 -4467 -51 -492 -73 -1459 -48 -2150 145 -3992 129 -5906 -50 -5906 -38 0 -291 146 -561 325 -467 309 -536 325 -1417 320 l-926 -5 7 805 c4 443 44 1210 89 1705 45 495 49 936 8 980 -71 77 -30 1492 51 1747 33 103 80 103 246 0 170 -105 221 -102 295 18 55 87 51 218 -10 332 -91 170 -51 1161 71 1748 36 174 1 225 -155 225 -159 0 -204 -69 -211 -325 -5 -179 -19 -437 -31 -575 -11 -137 -30 -374 -41 -525 -10 -151 -63 -275 -117 -275 -113 0 -104 1735 10 1920 41 66 202 123 356 125 279 5 282 12 307 695 14 380 89 818 167 974 81 162 102 309 50 341 -51 31 -92 191 -92 354 0 336 -223 479 -451 290 -196 -162 -191 -399 8 -399 224 0 139 -296 -137 -479 -215 -142 -234 -138 -285 58 -47 177 -84 192 -243 93 -360 -225 -414 6 -325 1391 77 1193 98 1287 283 1287 189 0 199 -59 177 -1075 -13 -591 15 -1075 62 -1075 47 0 117 535 156 1188 65 1084 90 1198 288 1294 202 97 195 105 -96 111 -172 4 -577 -117 -900 -268 -528 -247 -693 -274 -1637 -268 -930 5 -1112 37 -1594 275 -299 147 -653 268 -787 268 -220 0 -238 -31 -181 -313z m10603 -280 c591 -456 1259 -707 1880 -707 l390 0 -1 -875 c-1 -1312 49 -3261 88 -3375 127 -377 211 3513 86 4048 -21 90 53 161 191 182 l225 34 0 -2307 c0 -1942 -23 -2307 -144 -2307 -79 0 -172 45 -206 100 -195 315 -388 -242 -505 -1460 -58 -602 -43 -719 94 -772 190 -73 210 -392 41 -663 -95 -153 -91 -247 20 -455 111 -208 116 -298 20 -432 -232 -322 -251 -443 -85 -535 123 -69 162 -226 155 -613 -20 -1036 -330 -1396 -351 -408 -14 646 -85 774 -351 631 -143 -76 -238 -76 -331 1 -174 145 -343 -59 -328 -394 7 -137 -21 -486 -62 -775 -68 -486 -59 -525 130 -525 160 0 205 68 214 325 17 483 83 1002 135 1054 25 25 120 17 211 -18 133 -51 150 -135 88 -437 -155 -750 -126 -874 204 -874 l298 0 -30 -725 c-20 -467 7 -725 76 -725 113 0 124 64 148 819 17 547 68 623 356 532 192 -61 209 -129 182 -728 -29 -661 -29 -661 -372 -750 -459 -118 -1487 69 -1807 329 -454 369 -930 536 -1475 518 l-525 -18 0 399 c0 279 43 399 143 399 330 0 408 242 357 1107 l-50 843 -286 -20 -285 -21 67 4071 c96 5878 97 5756 -32 5799 -79 26 -115 -216 -118 -796 -23 -5234 -12 -11200 23 -11460 30 -229 -11 -376 -139 -491 -100 -90 -201 -144 -226 -119 -64 64 -53 10976 13 11937 69 1019 197 1188 854 1125 361 -34 600 -144 1020 -468z m-8291 -428 c390 0 890 70 1129 157 399 147 434 146 500 -14 212 -521 -32 -4022 -280 -4022 -168 0 -184 164 -90 919 109 884 16 1246 -346 1337 -503 126 -635 -69 -713 -1054 -52 -653 -123 -968 -261 -1143 -348 -443 -233 -566 287 -306 272 136 305 200 299 584 -7 492 69 663 294 663 131 0 147 -81 94 -471 -36 -259 -109 -515 -164 -570 -54 -54 -99 -135 -99 -179 0 -120 578 -97 654 26 81 132 338 -185 343 -423 2 -92 -61 -294 -139 -450 -177 -352 -400 -1580 -323 -1781 33 -85 124 -123 211 -90 126 49 154 -31 154 -435 0 -273 -65 -712 -145 -976 -119 -395 -122 -528 -17 -741 92 -188 108 -540 61 -1274 -37 -558 -51 -1278 -32 -1600 l34 -586 -776 -181 c-547 -127 -1069 -171 -1775 -150 l-1000 31 1 1600 c0 880 57 2343 127 3250 70 908 149 1943 176 2300 27 358 76 808 109 1000 96 553 50 3277 -69 4074 -59 398 -82 765 -51 815 32 51 288 3 582 -109 345 -132 765 -201 1225 -201z m13187 -287 c-7 -353 -41 -1384 -75 -2292 -89 -2328 -157 -4591 -220 -7200 -29 -1237 -69 -2300 -89 -2361 -20 -61 -263 -141 -540 -178 -278 -37 -532 -110 -565 -164 -33 -53 -125 -97 -204 -97 -182 0 -192 724 -28 2055 101 823 96 967 -40 1119 -125 142 -148 376 -118 1193 33 888 70 1065 290 1390 139 204 301 557 360 782 59 226 157 580 216 786 135 469 24 602 -229 274 -105 -137 -192 -189 -193 -116 -5 302 -256 22 -305 -341 -30 -216 -59 748 -65 2140 -6 1393 21 2652 60 2798 50 185 158 284 364 329 162 35 497 182 744 326 248 144 495 248 550 230 55 -17 94 -321 87 -673z m696 -1717 c-10 -1334 -43 -2875 -75 -3425 -118 -2088 -265 -5241 -292 -6267 -18 -692 -74 -1122 -158 -1224 -256 -308 -326 -50 -266 977 155 2655 266 5424 303 7564 36 2101 181 4334 304 4675 153 425 199 -153 184 -2300z m-7667 1500 c-35 -344 -58 -2762 -52 -5375 14 -6692 22 -6395 -176 -6613 -93 -103 -196 -187 -228 -187 -93 1 -68 8405 28 9695 134 1799 237 2697 354 3080 5 14 37 25 72 25 35 0 36 -281 2 -625z m8339 216 c66 -124 86 -398 48 -675 -34 -256 -79 -1163 -99 -2016 -20 -852 -61 -1617 -92 -1700 -31 -82 -102 -2069 -159 -4415 -56 -2346 -128 -4333 -159 -4415 -62 -161 -823 -284 -908 -147 -28 44 -95 52 -150 18 -170 -105 -2786 -164 -2786 -63 0 51 349 123 775 158 426 36 947 113 1157 171 251 70 422 72 500 8 78 -65 278 -62 583 8 430 98 468 132 518 466 29 199 36 496 16 661 -20 165 33 1853 118 3750 85 1898 171 4504 190 5793 19 1288 58 2402 86 2475 75 195 235 161 362 -77z m-16650 -550 c146 -1367 94 -3704 -137 -6091 -288 -2986 -409 -3490 -361 -1500 221 9074 188 8250 335 8250 51 0 124 -297 163 -659z m-607 -1116 c-18 -481 -58 -1190 -89 -1575 -31 -385 -79 -2286 -107 -4225 -53 -3667 -130 -5250 -253 -5174 -76 47 -25 7406 58 8349 27 303 43 1170 36 1928 -8 948 25 1424 109 1524 218 263 279 61 246 -827z m3752 -275 c0 -83 -89 -150 -200 -150 -199 0 -260 107 -133 233 121 122 333 69 333 -83z m13999 -431 c-2 -571 -91 -936 -210 -862 -101 62 -123 1276 -25 1374 141 140 236 -67 235 -512z m751 -150 l0 -578 -300 30 c-285 28 -298 49 -265 429 46 514 185 770 397 730 134 -26 168 -149 168 -611z m450 281 c0 -137 -45 -250 -100 -250 -112 0 -137 330 -33 433 110 111 133 79 133 -183z m-14121 -763 c-74 -614 -61 -741 88 -906 163 -180 163 -210 4 -511 -92 -176 -161 -410 -152 -520 25 -314 -119 -950 -215 -950 -48 0 -159 -27 -246 -61 -106 -40 -158 -4 -158 111 0 103 54 151 136 119 149 -57 262 934 263 2313 1 690 110 1118 286 1118 44 0 41 -321 -6 -713z m821 577 c0 -75 -29 -345 -64 -600 -49 -363 -104 -464 -250 -464 -153 0 -186 77 -186 442 0 243 27 513 61 600 74 193 439 211 439 22z m-6333 -848 c-28 -374 -127 -606 -437 -1025 -220 -297 -433 -631 -472 -740 -68 -192 -78 -190 -262 50 -263 342 -249 410 167 804 199 190 468 581 598 870 298 662 454 678 406 41z m-67 -2116 c0 -827 -26 -1000 -152 -1000 -234 0 -485 620 -411 1014 61 323 405 986 512 986 28 0 51 -450 51 -1000z m14259 26 c-109 -110 -184 64 -106 245 74 171 80 171 121 -4 24 -100 17 -209 -15 -241z m478 -549 c81 -53 78 -74 -12 -75 -69 -1 -126 -126 -128 -277 -4 -288 -201 -625 -366 -625 -53 0 -102 231 -109 513 -9 416 30 548 208 693 203 165 223 166 257 12 20 -93 87 -201 150 -241z m-9142 -521 c189 -228 90 -601 -170 -638 -202 -29 -225 10 -225 375 0 430 165 540 395 263z m-5895 -606 c0 -82 -45 -150 -100 -150 -55 0 -100 68 -100 150 0 83 45 150 100 150 55 0 100 -67 100 -150z m14900 -300 c0 -82 -68 -150 -150 -150 -82 0 -150 68 -150 150 0 83 68 150 150 150 82 0 150 -67 150 -150z m-14634 -377 c-28 -68 -49 12 -47 177 3 165 25 220 50 123 26 -97 24 -232 -3 -300z m5534 83 c0 -150 -180 -310 -259 -230 -70 69 68 374 170 374 49 0 89 -65 89 -144z m-5800 -106 c0 -82 -45 -150 -100 -150 -55 0 -100 68 -100 150 0 83 45 150 100 150 55 0 100 -67 100 -150z m14900 -550 c0 -443 -48 -478 -317 -235 -304 275 -228 635 134 635 147 0 183 -79 183 -400z m-8918 83 c-38 -256 -173 -319 -382 -179 -130 86 -124 120 44 248 271 206 375 185 338 -69z m-65 -2057 c-32 -1442 -94 -1726 -379 -1726 -217 0 -199 2825 19 3043 354 354 394 209 360 -1317z m8683 1018 c0 -24 -45 -44 -100 -44 -55 0 -100 48 -100 106 0 58 45 78 100 44 55 -34 100 -82 100 -106z m4379 -600 c4 -510 -11 -544 -237 -544 -222 0 -242 39 -242 480 0 494 131 740 349 657 78 -30 127 -254 130 -593z m-8081 131 c-1 -497 -132 -790 -234 -525 -84 218 -82 798 3 883 157 157 233 39 231 -358z m3963 -57 c-25 -148 -48 -368 -53 -490 -5 -149 -55 -204 -150 -167 -133 51 -133 492 0 920 73 237 248 11 203 -263z m4445 -652 c-75 -75 -106 43 -106 397 0 655 141 796 181 182 17 -260 -17 -521 -75 -579z m-906 628 c0 -113 -43 -179 -96 -147 -52 33 -70 125 -39 206 79 207 135 183 135 -59z m-15890 -3094 c1364 0 1673 59 3039 582 1055 404 2280 287 3084 -295 188 -136 364 -184 525 -144 137 35 242 17 242 -41 0 -180 184 -109 249 95 156 492 1232 872 1936 684 201 -54 523 -222 715 -374 210 -166 542 -306 825 -348 637 -95 604 -259 -50 -258 -570 2 -1236 198 -1753 517 -225 138 -411 181 -590 136 -373 -93 -1132 -636 -1132 -809 0 -242 -466 -169 -683 106 -109 138 -370 323 -582 412 -467 195 -1448 132 -2735 -174 -1309 -312 -1847 -388 -3203 -453 -1604 -76 -1546 -133 -1375 1378 l128 1136 28 -1075 29 -1075 1303 0z m13890 357 c0 -79 -79 -165 -175 -192 -674 -184 -2360 -315 -2125 -164 82 53 263 100 400 105 138 5 475 93 750 194 623 230 1150 256 1150 57z m-5115 -339 c146 -100 468 -246 715 -325 l450 -143 -743 -30 c-632 -25 -776 -65 -963 -267 -280 -302 -856 -389 -1890 -284 -737 75 -800 99 -854 331 -49 209 -125 254 -455 275 -701 44 -1879 28 -2057 -29 -421 -134 -1801 -305 -1848 -230 -29 46 67 84 213 84 145 0 587 88 981 195 2260 617 3495 568 3768 -150 83 -217 153 -245 621 -245 418 0 587 52 818 250 159 138 376 250 480 250 114 0 163 45 123 110 -39 63 -192 85 -356 53 -343 -69 -381 62 -63 215 343 166 765 142 1060 -60z m-10454 -556 c120 -33 500 -60 844 -61 349 0 625 -45 625 -101 0 -109 -1301 -137 -1675 -37 -174 47 -225 133 -225 382 0 423 141 559 181 175 21 -209 96 -317 250 -358z m12869 38 c0 -55 -68 -100 -150 -100 -82 0 -150 45 -150 100 0 55 68 100 150 100 82 0 150 -45 150 -100z m-7348 -503 c28 -45 -37 -110 -144 -145 -162 -51 -384 21 -705 228 -26 17 14 69 89 115 141 87 668 -50 760 -198z m1034 214 c95 -60 30 -99 -214 -127 -410 -48 -596 -3 -517 125 71 115 550 116 731 2z m-2358 -249 c76 75 472 -147 472 -266 0 -138 -182 -119 -677 70 -285 108 -391 192 -309 243 69 42 200 37 292 -12 92 -50 192 -65 222 -35z m7656 22 c796 -71 1118 -145 1400 -323 201 -126 418 -248 481 -270 237 -84 936 -1049 1285 -1774 542 -1126 850 -2530 850 -3873 0 -953 -40 -1224 -285 -1950 -320 -945 -630 -1599 -843 -1776 -120 -100 -155 24 -224 807 -46 509 -89 1173 -96 1475 -8 302 -118 865 -244 1250 -204 619 -314 778 -944 1375 -393 371 -749 675 -792 675 -43 0 -403 152 -800 338 -993 465 -1876 617 -2727 469 -886 -155 -1612 -437 -2204 -858 -270 -192 -546 -349 -614 -349 -225 0 -1417 -1213 -1806 -1837 -495 -796 -955 -1848 -1163 -2661 -201 -786 -239 -2803 -64 -3335 246 -744 58 -726 -358 33 -430 787 -775 1991 -1030 3603 -69 433 -73 1138 -12 2100 88 1368 116 1502 507 2447 886 2137 2126 3481 3776 4092 501 185 792 202 843 48 20 -61 440 -153 933 -205 1045 -110 1933 27 2317 357 289 248 465 262 1814 142z m-11409 -263 c144 -183 625 -1711 625 -1985 -1 -258 -396 -882 -490 -774 -42 48 -227 551 -410 1117 -183 566 -371 1053 -418 1082 -75 47 -382 694 -382 807 0 114 965 -108 1075 -247z m2125 20 c0 -61 64 -241 142 -401 78 -159 171 -492 205 -740 57 -414 29 -496 -350 -1025 -227 -316 -451 -575 -498 -575 -179 0 -492 589 -747 1404 -145 465 -307 951 -359 1078 -53 128 -74 268 -47 311 77 126 1654 76 1654 -52z m1580 -388 c122 -121 -103 -183 -349 -97 -403 143 -425 357 -24 242 176 -51 344 -116 373 -145z m-688 -261 l242 -202 -214 -214 c-255 -255 -310 -218 -387 262 -67 410 11 443 359 154z m11519 -21 c165 -125 533 -624 1136 -1539 187 -284 475 -847 639 -1250 422 -1035 1014 -3248 1014 -3786 0 -250 71 -992 157 -1650 206 -1563 131 -2403 -281 -3146 -168 -302 -456 -826 -641 -1163 -364 -664 -1269 -1501 -1723 -1593 -144 -29 -422 -95 -617 -146 -427 -113 -1896 34 -2228 223 -663 376 -871 573 -1294 1221 -254 389 -494 798 -533 908 -39 110 -127 268 -197 350 -69 83 -159 326 -199 541 -66 357 -56 385 117 315 893 -363 1052 -384 1917 -264 1370 192 2152 696 2970 1915 479 714 802 1619 1051 2943 171 911 -178 3457 -576 4205 -57 107 -254 502 -438 877 -183 375 -410 764 -503 864 -253 272 -76 407 229 175z m-15173 -796 c84 -289 217 -795 296 -1125 79 -330 199 -735 265 -900 187 -460 514 -1772 508 -2032 -3 -127 -113 -554 -244 -950 -601 -1810 -804 -2657 -1047 -4368 -82 -576 -91 -497 -79 700 7 743 -1 2768 -18 4500 -43 4213 -35 4700 74 4700 51 0 161 -236 245 -525z m1960 -1570 c109 -264 87 -371 -204 -1004 -180 -389 -358 -673 -396 -630 -119 137 -294 966 -270 1282 49 641 649 884 870 352z m8302 -841 c468 -90 658 -171 682 -294 19 -98 -30 -170 -114 -170 -234 0 -1144 -876 -1600 -1540 l-418 -610 -66 938 c-51 722 -114 1003 -274 1220 -252 340 -175 411 540 501 275 35 523 66 550 71 28 4 342 -48 700 -116z m-2219 -594 c296 -315 439 -1153 371 -2170 -65 -949 -241 -2005 -356 -2135 -42 -47 -78 569 -80 1369 -5 1645 -101 2128 -513 2597 -262 298 -273 340 -121 443 260 177 464 147 699 -104z m3663 139 c31 -50 -330 -376 -803 -725 -611 -450 -930 -764 -1101 -1084 -133 -248 -417 -729 -631 -1069 -214 -341 -443 -782 -509 -982 -185 -559 -216 -354 -47 308 176 691 359 1083 865 1853 659 1000 2017 2037 2226 1699z m956 -545 c0 -138 -1040 -851 -1765 -1209 -517 -256 -935 -331 -935 -167 0 149 1646 1488 1993 1623 204 78 707 -97 707 -247z m-6058 -139 c42 -41 193 -75 335 -75 191 0 314 -93 466 -350 178 -303 210 -550 237 -1850 17 -825 55 -1567 85 -1650 79 -220 103 -990 34 -1102 -65 -105 -499 1539 -499 1891 0 352 -235 815 -791 1559 -466 623 -516 737 -459 1050 79 442 395 723 592 527z m6853 -568 c168 -244 305 -464 305 -491 0 -26 -173 -24 -384 5 -425 57 -1800 -254 -2325 -526 -507 -262 -1664 -1129 -1890 -1417 -299 -380 -331 -232 -60 276 235 439 329 524 706 644 152 48 167 82 64 145 -92 57 25 136 375 252 280 93 972 480 1537 860 565 379 1104 691 1197 692 94 2 308 -196 475 -440z m-7795 -588 c0 -51 157 -307 350 -569 296 -404 328 -494 206 -595 -98 -82 -118 -189 -64 -337 107 -288 360 -283 350 7 -4 124 6 225 23 225 17 0 97 -101 178 -225 131 -200 657 -2557 657 -2943 0 -83 64 -294 143 -467 145 -320 267 -1765 149 -1765 -36 0 -139 195 -230 433 -406 1063 -1402 2171 -2292 2548 -356 152 -987 153 -1316 3 -140 -64 -275 -96 -299 -72 -44 44 57 564 261 1338 171 653 894 2060 1272 2479 325 360 361 376 482 211 71 -98 130 -220 130 -271z m7685 -279 c323 -112 413 -269 190 -330 -1010 -277 -2063 -684 -2632 -1019 -388 -229 -801 -446 -916 -483 -116 -36 -512 -386 -880 -776 -680 -721 -747 -687 -323 168 436 877 1930 1975 3196 2349 754 222 951 235 1365 91z m-12026 -1204 c92 -1975 569 -3868 1283 -5085 197 -336 358 -648 358 -691 0 -44 265 -435 589 -870 1118 -1500 3628 -3695 5029 -4399 485 -244 882 -467 882 -496 0 -29 -97 -185 -216 -345 -235 -318 -396 -318 -313 0 29 113 3 200 -60 200 -171 0 -1021 409 -1361 655 -165 119 -435 282 -600 361 -165 80 -424 227 -575 326 -151 100 -275 140 -275 90 0 -50 224 -224 498 -386 274 -163 499 -326 500 -362 4 -125 -750 156 -1166 435 -517 348 -640 359 -332 31 263 -280 238 -349 -143 -390 -146 -15 -317 -80 -381 -144 -161 -161 -371 -145 -440 34 -81 211 -261 188 -195 -25 36 -118 -45 -244 -251 -389 l-305 -213 -513 463 c-1311 1184 -1756 1682 -2293 2566 -472 777 -664 1591 -755 3198 -72 1261 -51 1749 163 3750 120 1124 621 2926 771 2775 30 -29 75 -519 101 -1089z m12728 579 c190 -228 327 -1165 326 -2215 -1 -998 -2 -1001 -316 -1265 -270 -227 -395 -261 -881 -240 l-566 24 -165 640 c-284 1102 -255 1281 290 1747 566 484 659 543 938 597 287 55 346 128 213 261 -178 178 -602 12 -1068 -417 -488 -450 -606 -481 -758 -197 -59 110 -199 200 -312 200 -588 0 335 489 1612 854 587 167 558 167 687 11z m-2396 -1257 c130 -82 668 -2782 574 -2877 -21 -20 -174 -76 -339 -124 -387 -111 -1372 268 -1712 658 -201 232 -229 352 -194 828 23 306 107 690 186 853 272 559 1079 919 1485 662z m-1839 -768 c-83 -160 -151 -367 -151 -460 -1 -94 -203 -310 -451 -480 -714 -492 -949 -1171 -964 -2793 -7 -679 -30 -805 -122 -650 -74 125 -110 753 -104 1775 9 1352 36 1606 182 1750 161 158 167 152 104 -107 -105 -427 92 -327 431 218 268 431 1091 1172 1191 1073 19 -20 -32 -167 -116 -326z m-4074 -1618 c605 -496 1253 -1456 1511 -2238 66 -202 186 -391 266 -422 80 -31 145 -142 145 -247 0 -106 67 -321 149 -479 165 -316 204 -781 58 -691 -51 32 -147 226 -214 431 -68 206 -375 749 -683 1208 -308 459 -627 935 -710 1058 -82 123 -302 406 -487 629 -185 223 -365 445 -400 492 -131 180 -1123 637 -1382 637 -384 0 -165 178 269 218 455 43 934 -151 1478 -596z m3895 216 c-31 -164 58 -498 239 -898 339 -748 361 -1046 89 -1216 -277 -173 -695 -864 -889 -1467 -89 -279 -207 -507 -262 -507 -157 0 -250 1195 -186 2400 45 842 105 1176 255 1424 334 551 843 730 754 264z m-5335 -359 c273 -80 587 -303 933 -659 568 -587 1745 -2294 1995 -2894 86 -207 326 -533 532 -726 375 -350 608 -800 414 -800 -55 0 -180 135 -278 300 -97 165 -202 300 -233 300 -31 0 -195 124 -364 275 -170 151 -421 343 -559 425 -315 188 -1278 1287 -1278 1458 0 70 -62 189 -137 265 -75 75 -207 270 -292 432 -85 162 -358 493 -606 734 -391 381 -492 431 -758 377 -284 -56 -307 -40 -307 220 0 456 187 514 938 293z m-4239 -4167 c410 -1627 1142 -2657 2951 -4149 l300 -248 -300 -120 c-790 -316 -1947 -162 -2366 316 -192 219 -384 248 -384 57 0 -72 47 -384 104 -693 86 -468 76 -627 -64 -944 -141 -319 -172 -800 -192 -2964 -16 -1745 -60 -2619 -136 -2695 -83 -83 -112 -79 -112 14 0 74 -94 114 -225 95 l-225 -31 39 2250 c22 1238 46 2632 55 3100 8 468 24 1515 35 2329 21 1448 25 1476 222 1370 162 -86 215 -74 267 61 59 155 -126 376 -387 463 -123 41 -128 483 -29 3027 l85 2200 124 -1491 c68 -821 175 -1697 238 -1947z m4082 3007 c158 -155 548 -684 865 -1175 718 -1110 921 -1333 1835 -2016 403 -300 760 -620 793 -712 34 -91 169 -339 301 -550 221 -356 226 -393 69 -508 -139 -101 -148 -163 -53 -341 64 -119 186 -217 270 -217 121 0 140 68 87 309 -57 260 -40 304 106 275 192 -38 228 -89 594 -878 235 -507 312 -806 208 -806 -64 0 -738 385 -1206 689 -1029 668 -3691 3223 -4023 3861 -57 110 -159 470 -226 800 -68 330 -183 763 -256 961 -99 270 -104 390 -19 475 179 179 344 136 655 -167z m6377 -967 c49 -195 -21 -342 -327 -691 -665 -755 -1425 -2561 -1077 -2561 73 0 146 -101 164 -225 21 -150 90 -215 207 -196 207 35 217 -15 54 -275 -98 -158 -88 -228 57 -388 168 -186 463 -1093 461 -1416 -3 -360 -652 747 -1143 1948 -179 438 -754 2587 -754 2819 0 80 48 115 107 79 59 -37 82 -131 51 -210 -30 -79 -13 -221 38 -315 51 -94 151 -373 223 -621 198 -680 395 -587 536 255 134 793 308 1182 757 1694 364 413 561 445 646 103z m490 -948 c232 -514 103 -857 -514 -1362 -248 -203 -513 -536 -600 -753 -175 -438 -234 -465 -465 -210 -144 160 -146 210 -16 461 81 156 147 350 147 433 0 365 964 1827 1204 1827 36 0 146 -178 244 -396z m747 -948 c145 -174 1317 -577 1787 -614 463 -37 493 -102 196 -418 -461 -489 -1372 -2233 -1442 -2757 -61 -462 -76 -482 -325 -420 -144 36 -519 90 -835 121 l-575 56 -106 413 c-58 227 -153 563 -211 746 -160 509 -137 1425 44 1775 88 169 317 416 510 548 193 132 398 342 454 467 118 259 328 294 503 83z m5451 51 c31 -51 -45 -125 -170 -164 -426 -136 -1532 -932 -2237 -1612 -815 -787 -1191 -1318 -1588 -2242 -222 -517 -322 -652 -460 -616 -251 66 -287 228 -175 787 175 871 1248 2740 1573 2740 99 0 230 113 293 250 79 174 193 250 376 250 145 0 494 118 777 262 819 417 1479 558 1611 345z m489 -487 c-235 -34 -448 -235 -657 -620 -656 -1208 -840 -1445 -1519 -1949 -801 -595 -1067 -866 -1291 -1308 -231 -458 -398 -565 -700 -450 -224 85 -246 133 -173 377 155 521 487 1205 675 1393 102 103 358 403 569 667 386 484 1800 1606 2261 1794 401 163 842 249 950 185 55 -32 3 -73 -115 -89z m-10461 -3959 c262 -134 577 -339 700 -455 503 -476 499 -423 469 -5556 -15 -2640 -75 -5182 -131 -5650 -57 -467 -134 -1446 -172 -2175 -37 -729 -110 -1325 -161 -1325 -50 0 -203 132 -338 293 -308 365 -1033 656 -1404 563 -150 -38 -546 -196 -880 -351 -986 -457 -1865 -613 -2879 -508 -1282 132 -1310 157 -1246 1087 29 421 74 2431 100 4466 26 2035 98 4375 161 5200 113 1475 102 2298 -42 3111 l-72 411 685 51 c378 29 1020 170 1428 314 408 145 759 245 781 223 21 -21 8 -644 -31 -1385 l-70 -1345 -349 10 c-308 9 -373 -36 -553 -378 -276 -527 -265 -1148 28 -1559 202 -284 273 -318 566 -270 370 60 437 -75 214 -432 -97 -155 -97 -222 0 -319 154 -154 157 -595 7 -924 -77 -169 -82 -294 -15 -380 60 -77 72 -386 30 -778 -38 -357 -30 -702 19 -765 49 -64 60 -233 24 -375 -124 -496 -243 -256 -243 490 0 413 -34 750 -76 750 -41 0 -59 204 -39 452 67 851 -152 1167 -539 780 -154 -154 -155 -178 -7 -286 120 -88 161 -287 161 -787 0 -689 -145 -1114 -521 -1525 -209 -229 -203 -603 9 -556 84 18 106 -39 65 -167 -33 -107 -20 -219 29 -250 93 -57 88 -194 -36 -936 -60 -358 -45 -425 94 -425 201 0 237 95 294 781 43 509 112 706 213 605 26 -26 9 -286 -37 -579 -76 -480 -65 -537 108 -583 168 -44 186 -116 141 -562 -122 -1201 -168 -2167 -107 -2265 46 -74 109 -71 207 10 114 95 141 77 141 -89 0 -320 177 -352 244 -44 104 481 208 4429 137 5226 -30 334 -15 351 319 382 437 40 572 161 405 362 -83 100 -114 383 -90 829 46 890 -146 997 -221 123 -61 -706 -132 -896 -337 -896 -101 0 -125 229 -104 1007 15 554 53 1032 85 1064 31 32 117 8 190 -52 72 -61 320 -140 549 -177 342 -55 402 -96 334 -229 -45 -90 -136 -445 -202 -789 -96 -501 -94 -678 11 -892 161 -330 283 -375 530 -194 162 118 198 298 233 1155 47 1186 -57 1406 -673 1409 -596 2 -650 83 -501 749 88 393 185 592 303 623 262 69 308 312 85 451 -136 85 -197 232 -195 474 2 461 143 696 314 525 196 -196 284 -147 284 161 0 156 -83 359 -184 450 -171 156 -194 155 -335 -9 -83 -97 -191 -244 -240 -326 -84 -141 -234 -1339 -239 -1906 -1 -140 -66 -343 -145 -450 -131 -178 -148 -180 -209 -23 -58 149 -16 406 218 1348 30 120 -12 352 -93 514 -121 243 -130 474 -53 1282 51 542 76 1221 54 1510 -36 460 -12 542 190 675 300 197 1174 348 1710 295 234 -22 639 -150 900 -284z m3367 -169 c206 171 1104 26 1499 -241 613 -417 1770 -530 2617 -256 771 249 708 249 775 -5 107 -411 -391 -14588 -518 -14715 -41 -42 -530 -86 -1086 -100 l-1011 -24 -933 477 c-764 389 -1029 476 -1453 474 -286 -1 -547 -47 -581 -102 -34 -55 -126 -100 -205 -100 -120 0 -144 393 -150 2425 -5 1334 -11 2515 -14 2625 -31 962 141 7878 212 8498 49 439 69 833 42 876 -79 129 401 264 540 152 85 -68 170 -63 266 16z m-1841 -149 c0 -93 -68 -144 -167 -125 -251 48 -285 282 -41 282 123 0 208 -65 208 -157z m7538 3 c60 -157 -24 -2213 -291 -7103 -82 -1489 -178 -4022 -214 -5628 -64 -2854 -70 -2920 -274 -2963 -115 -24 -1019 -34 -2009 -23 l-1800 21 -618 323 c-689 360 -1312 393 -1742 91 -260 -182 -390 -208 -390 -79 0 198 1020 715 1410 715 407 0 1013 -206 1286 -438 85 -71 429 -231 766 -353 566 -207 671 -215 1400 -109 433 64 946 123 1138 133 l350 17 65 850 c80 1045 166 3517 241 6950 32 1430 74 2771 94 2981 20 209 49 1334 64 2500 18 1319 67 2147 132 2192 169 120 328 88 392 -77z m-6778 -1521 c-35 -756 -83 -2455 -107 -3775 -24 -1320 -79 -2692 -122 -3050 l-78 -650 -52 450 c-94 825 -31 6838 76 7282 85 348 78 442 -36 485 -112 43 -100 110 66 343 114 160 231 290 261 290 30 0 26 -619 -8 -1375z m7631 891 c108 -201 -109 -6570 -286 -8416 -55 -578 -102 -1680 -102 -2450 -2 -1136 -181 -4542 -244 -4620 -39 -49 -2297 -231 -3109 -250 -1660 -40 -2178 2 -2114 170 35 91 0 150 -90 150 -80 0 -315 90 -520 200 -441 236 -926 266 -926 57 0 -79 -86 -171 -191 -204 -105 -34 -264 -172 -352 -307 -152 -231 -215 -246 -1070 -246 -895 0 -908 3 -852 227 46 183 -2 254 -244 361 -171 76 -439 108 -621 74 -897 -166 -1578 -251 -2120 -264 -868 -21 -969 -9 -900 102 97 156 -265 117 -448 -49 -184 -166 -1876 -288 -2537 -183 l-385 61 68 1510 c37 831 87 2186 110 3011 23 825 64 2265 91 3200 26 935 69 2802 95 4148 25 1347 83 2461 127 2476 116 38 69 -11326 -52 -12548 -139 -1407 -131 -1426 593 -1426 325 0 588 -45 588 -100 0 -57 291 -99 675 -98 484 1 633 29 525 101 -102 68 142 79 767 35 909 -65 2675 89 3083 269 206 91 142 88 -1175 -64 -316 -36 -575 -36 -575 1 0 124 697 358 1325 446 695 97 1119 -52 1239 -437 34 -111 113 -237 174 -278 78 -52 68 -103 -35 -170 -227 -145 -55 -234 547 -284 367 -31 550 -8 550 67 0 61 -146 113 -325 114 -179 0 -385 39 -459 86 -86 55 2 85 252 85 338 0 1441 402 1182 431 -55 6 80 91 300 190 349 156 434 162 670 43 149 -76 320 -137 382 -137 61 0 259 -113 439 -250 503 -384 2167 -532 2538 -227 123 102 162 102 196 1 32 -94 270 -112 959 -68 504 31 973 75 1042 98 96 31 118 383 92 1468 -19 786 0 1946 43 2578 42 633 105 2160 138 3393 34 1234 81 2275 105 2313 23 38 66 716 95 1506 29 791 78 1866 109 2388 31 523 51 1138 45 1367 -11 406 31 459 418 521 40 7 116 -71 170 -172z m-16046 -2866 c-97 -2623 -104 -2742 -178 -2816 -88 -88 -87 4091 0 4727 66 475 70 480 156 189 48 -165 58 -1110 22 -2100z m7815 1677 c-33 -33 -56 26 -52 131 5 117 28 141 60 61 29 -72 26 -159 -8 -192z m-4943 -1492 c227 -206 249 -816 32 -899 -310 -119 -597 409 -475 874 61 234 203 242 443 25z m13716 -177 c30 -78 157 -157 282 -175 202 -29 228 -90 232 -528 l3 -496 -390 -81 c-215 -45 -411 -61 -436 -35 -25 25 -14 363 25 751 68 675 167 870 284 564z m-8733 -914 c0 -464 -39 -844 -86 -844 -107 0 -206 1036 -140 1474 90 600 226 221 226 -630z m9800 706 c0 -82 -45 -150 -100 -150 -55 0 -100 68 -100 150 0 82 45 150 100 150 55 0 100 -68 100 -150z m-12902 -3531 c-1 -562 -129 -828 -310 -647 -95 95 -94 242 3 676 146 653 310 637 307 -29z m3058 -2706 c-35 -1685 -113 -3323 -173 -3641 -61 -318 -86 -841 -57 -1161 29 -321 15 -644 -30 -717 -190 -309 -226 558 -103 2556 138 2256 191 3626 201 5181 4 684 39 960 116 913 77 -48 91 -956 46 -3131z m-5156 979 c0 -326 -45 -417 -250 -510 -346 -158 -413 -44 -161 276 116 148 211 378 211 511 0 137 44 216 100 181 55 -34 100 -240 100 -458z m5571 -3059 c-16 -1421 -64 -2640 -106 -2709 -42 -68 -142 -124 -221 -124 -170 0 -191 531 -45 1150 51 220 98 1165 103 2100 10 1869 74 2568 213 2320 46 -83 72 -1315 56 -2737z m-5233 1742 c-76 -499 -231 -847 -234 -525 -4 380 122 950 210 950 49 0 59 -191 24 -425z m-38 -2133 c0 -883 -30 -1149 -125 -1117 -92 31 -116 313 -90 1083 33 978 64 1192 171 1192 24 0 44 -521 44 -1158z m13768 -366 c-17 -494 -38 -534 -368 -690 l-350 -166 -32 407 c-48 625 43 854 357 901 151 23 306 49 343 57 37 8 60 -221 50 -509z m532 -18 c0 -188 -27 -413 -61 -500 -121 -316 -239 -147 -239 342 0 378 37 500 150 500 104 0 150 -105 150 -342z m-11337 -1825 l279 -183 -646 -65 c-355 -36 -916 -153 -1246 -261 -748 -246 -2626 -449 -3749 -406 -733 28 -853 57 -884 218 -59 306 117 381 510 217 199 -83 735 -177 1192 -210 768 -54 907 -32 1831 287 550 189 1180 418 1400 508 465 189 918 153 1313 -105z m-2738 -1199 c-69 -28 -181 -28 -250 0 -69 28 -12 50 125 50 138 0 194 -22 125 -50z m6531 -281 c147 -111 157 -147 44 -147 -82 0 -237 66 -344 147 -147 111 -158 147 -44 147 82 0 237 -66 344 -147z"/>
<path d="M14141 49647 c-275 -361 -429 -912 -437 -1565 -4 -352 -163 -618 -420 -704 -69 -23 -92 -114 -53 -215 61 -158 98 -151 404 83 281 214 347 341 397 757 32 275 127 598 211 717 115 164 124 250 38 353 -87 104 -76 175 45 296 146 146 174 146 324 -5 342 -342 574 -46 296 378 -232 353 -486 324 -805 -95z"/>
<path d="M12924 49491 c-302 -114 -397 -409 -384 -1190 11 -701 94 -789 618 -658 232 58 242 96 242 897 0 913 -92 1097 -476 951z m256 -974 c24 -405 -2 -517 -119 -517 -231 0 -288 175 -214 663 90 604 295 515 333 -146z"/>
<path d="M12241 46762 c-35 -90 -9 -230 57 -310 77 -93 108 -405 86 -873 -33 -714 -29 -730 216 -755 138 -14 317 18 399 71 131 85 128 133 -25 391 -96 162 -174 367 -174 454 0 212 476 213 709 2 161 -146 184 -142 287 50 61 114 92 208 68 208 -24 0 -7 158 36 351 78 345 -20 559 -156 340 -50 -82 -89 -80 -142 7 -41 65 -349 143 -686 174 -509 46 -622 28 -675 -110z m1284 -428 c-69 -28 -181 -28 -250 0 -69 28 -12 50 125 50 138 0 194 -22 125 -50z"/>
<path d="M14223 46425 c-229 -619 -360 -1444 -257 -1608 119 -188 660 -325 841 -213 173 107 231 1910 65 2015 -263 168 -547 83 -649 -194z m477 -568 c0 -435 -169 -888 -300 -807 -152 94 -119 621 42 683 87 34 122 135 89 261 -31 117 -6 206 57 206 62 0 112 -155 112 -343z"/>
<path d="M12323 44275 c-55 -69 -132 -401 -170 -738 -76 -671 55 -1037 371 -1037 97 0 176 -73 176 -162 0 -122 55 -144 225 -91 124 39 317 68 430 65 306 -9 583 518 509 970 -49 302 -14 409 206 639 326 340 247 443 -246 321 -342 -84 -384 -134 -493 -575 -189 -763 -436 -948 -771 -578 -163 181 -157 199 134 407 299 212 368 425 245 746 -72 188 -473 210 -616 33z m323 -482 c-86 -139 -146 -113 -146 63 0 86 46 128 102 93 56 -35 75 -105 44 -156z m904 -893 c-34 -55 -104 -100 -156 -100 -52 0 -94 45 -94 100 0 55 70 100 156 100 86 0 128 -45 94 -100z"/>
<path d="M13215 41940 c-196 -138 -413 -691 -414 -1058 -1 -243 275 -482 559 -482 297 0 412 255 452 1000 24 460 0 541 -181 608 -132 49 -283 24 -416 -68z m267 -745 c-48 -489 -282 -506 -282 -20 0 215 31 422 68 460 130 129 246 -110 214 -440z"/>
<path d="M5218 46328 c-222 -210 -434 -506 -471 -656 -98 -388 172 -772 542 -772 275 0 282 -12 214 -384 -39 -211 -157 -470 -264 -577 -148 -148 -200 -361 -223 -911 l-29 -718 418 17 c468 18 634 224 349 433 -168 122 -159 154 134 524 369 467 372 489 106 772 -199 212 -201 244 -58 1061 161 922 102 1513 -155 1563 -89 17 -342 -141 -563 -352z m482 -424 c0 -303 -303 -576 -502 -453 -173 107 -105 433 124 593 314 220 378 197 378 -140z m0 -2498 c0 -118 -195 -244 -267 -173 -71 72 55 267 173 267 52 0 94 -42 94 -94z"/>
<path d="M4400 43250 c0 -82 68 -150 150 -150 83 0 150 68 150 150 0 83 -67 150 -150 150 -82 0 -150 -67 -150 -150z"/>
<path d="M16964 40931 c-120 -120 -65 -331 86 -331 83 0 150 65 150 144 0 167 -143 280 -236 187z"/>
<path d="M1100 45600 c0 -55 45 -100 100 -100 55 0 100 45 100 100 0 55 -45 100 -100 100 -55 0 -100 -45 -100 -100z"/>
<path d="M3447 36696 c-93 -152 161 -428 282 -307 112 112 25 411 -120 411 -53 0 -126 -47 -162 -104z"/>
<path d="M4053 36105 c-88 -142 24 -305 210 -305 88 0 138 70 119 167 -39 201 -238 285 -329 138z"/>
<path d="M4030 34921 c-173 -110 4 -340 203 -264 92 36 167 127 167 204 0 151 -180 181 -370 60z"/>
<path d="M1647 34795 c-95 -154 35 -253 163 -125 72 72 74 128 6 170 -56 35 -132 15 -169 -45z"/>
<path d="M1700 33350 c0 -83 89 -150 200 -150 111 0 200 67 200 150 0 83 -89 150 -200 150 -111 0 -200 -67 -200 -150z"/>
<path d="M2300 32750 c0 -82 45 -150 100 -150 55 0 100 68 100 150 0 83 -45 150 -100 150 -55 0 -100 -67 -100 -150z"/>
<path d="M1664 32131 c-124 -124 -62 -431 86 -431 83 0 150 87 150 194 0 209 -132 341 -236 237z"/>
<path d="M2353 31705 c-88 -142 24 -305 210 -305 88 0 138 70 119 167 -39 201 -238 285 -329 138z"/>
<path d="M1867 30633 c-136 -136 -61 -333 127 -333 250 0 373 196 194 310 -167 106 -234 111 -321 23z"/>
<path d="M1700 29292 c0 -244 234 -210 282 41 19 99 -32 167 -125 167 -92 0 -157 -85 -157 -208z"/>
<path d="M10735 32946 c-33 -85 -33 -182 0 -215 87 -86 373 175 308 280 -85 138 -243 105 -308 -65z"/>
<path d="M11700 32700 c0 -151 52 -205 175 -181 96 19 175 100 175 181 0 81 -79 162 -175 181 -123 24 -175 -30 -175 -181z"/>
<path d="M11017 32034 c20 -101 103 -184 184 -184 215 0 184 291 -35 333 -134 25 -174 -15 -149 -149z"/>
<path d="M14641 31362 c-85 -220 28 -333 181 -180 90 90 90 146 1 235 -89 89 -132 76 -182 -55z"/>
<path d="M6853 30306 c-96 -156 38 -506 193 -506 73 0 157 63 187 141 68 178 -285 518 -380 365z"/>
<path d="M7200 29187 c0 -269 165 -487 370 -487 209 0 150 246 -120 500 l-250 235 0 -248z"/>
<path d="M6237 29152 c-89 -232 41 -471 237 -433 250 48 265 309 26 458 -171 107 -214 103 -263 -25z"/>
<path d="M6817 28040 c-274 -191 -205 -329 132 -265 314 60 390 169 218 311 -96 79 -189 67 -350 -46z"/>
<path d="M5745 27991 c-37 -60 -19 -157 39 -215 125 -125 450 88 359 235 -76 123 -317 111 -398 -20z"/>
<path d="M8017 27883 c43 -301 433 -331 433 -33 0 133 -78 211 -233 233 -194 27 -227 -6 -200 -200z"/>
<path d="M8453 27005 c-103 -166 150 -442 283 -309 74 74 57 153 -53 264 -113 113 -180 126 -230 45z"/>
<path d="M15100 28500 c0 -110 45 -200 100 -200 55 0 100 90 100 200 0 110 -45 200 -100 200 -55 0 -100 -90 -100 -200z"/>
<path d="M15739 28458 c-79 -207 157 -402 306 -253 62 62 37 156 -71 263 -156 157 -171 156 -235 -10z"/>
<path d="M14464 27949 c-74 -191 29 -465 146 -393 50 31 90 140 90 244 0 242 -162 344 -236 149z"/>
<path d="M15150 27400 c-97 -157 40 -300 289 -300 279 0 364 76 293 260 -61 160 -489 190 -582 40z"/>
<path d="M14700 26642 c0 -177 215 -146 277 39 22 66 -32 119 -119 119 -87 0 -158 -71 -158 -158z"/>
<path d="M10900 26008 c0 -123 65 -208 157 -208 93 0 144 68 125 167 -48 251 -282 285 -282 41z"/>
<path d="M11300 25150 c0 -83 89 -150 200 -150 111 0 200 67 200 150 0 83 -89 150 -200 150 -111 0 -200 -67 -200 -150z"/>
<path d="M10800 24844 c0 -86 45 -128 100 -94 55 34 100 104 100 156 0 52 -45 94 -100 94 -55 0 -100 -70 -100 -156z"/>
<path d="M10900 24042 c0 -87 53 -141 119 -119 185 62 216 277 39 277 -87 0 -158 -71 -158 -158z"/>
<path d="M1544 21290 c-88 -142 204 -434 347 -346 77 48 79 126 6 262 -116 217 -251 249 -353 84z"/>
<path d="M2335 19647 c-75 -195 44 -347 271 -347 123 0 194 69 194 188 0 228 -388 360 -465 159z"/>
<path d="M2600 18597 c0 -234 220 -349 475 -250 158 61 152 87 -61 260 -302 247 -414 244 -414 -10z"/>
<path d="M1600 18456 c0 -279 169 -427 318 -278 67 67 63 170 -12 311 -152 284 -306 267 -306 -33z"/>
<path d="M3813 17866 c-131 -158 -51 -266 198 -266 236 0 350 200 177 310 -188 119 -245 112 -375 -44z"/>
<path d="M1717 16734 c20 -101 103 -184 184 -184 215 0 184 291 -35 333 -134 25 -174 -15 -149 -149z"/>
<path d="M1550 14800 c-82 -132 38 -319 157 -246 121 75 121 346 -1 346 -52 0 -122 -45 -156 -100z"/>
<path d="M1500 12900 c0 -110 45 -200 100 -200 55 0 100 90 100 200 0 110 -45 200 -100 200 -55 0 -100 -90 -100 -200z"/>
<path d="M5800 24312 c0 -122 64 -212 150 -212 83 0 150 39 150 88 0 48 -67 144 -150 212 -125 104 -150 90 -150 -88z"/>
<path d="M6249 22999 c-94 -153 -24 -204 314 -229 198 -14 287 27 287 130 0 180 -500 263 -601 99z"/>
<path d="M7362 21845 c-78 -204 4 -345 201 -345 98 0 140 76 119 217 -40 269 -236 348 -320 128z"/>
<path d="M8567 21433 c-133 -132 -63 -333 116 -333 254 0 336 107 204 266 -123 148 -219 168 -320 67z"/>
<path d="M8535 20648 c-80 -210 86 -372 298 -291 223 86 211 213 -34 344 -160 85 -215 74 -264 -53z"/>
<path d="M13617 21435 c19 -100 118 -199 218 -218 132 -25 173 16 148 148 -19 100 -118 199 -218 218 -132 25 -173 -16 -148 -148z"/>
<path d="M12900 21000 c0 -110 60 -200 133 -200 188 0 262 96 199 260 -81 212 -332 167 -332 -60z"/>
<path d="M14500 20843 c0 -93 68 -144 167 -125 251 48 285 282 41 282 -123 0 -208 -65 -208 -157z"/>
<path d="M12441 20362 c-85 -220 28 -333 181 -180 90 90 90 146 1 235 -89 89 -132 76 -182 -55z"/>
<path d="M13567 20233 c-152 -151 -52 -333 183 -333 279 0 345 242 92 339 -196 75 -194 75 -275 -6z"/>
<path d="M12943 19368 c-78 -203 11 -468 157 -468 188 0 232 311 67 476 -146 146 -165 146 -224 -8z"/>
<path d="M13541 18662 c-85 -220 28 -333 181 -180 90 90 90 146 1 235 -89 89 -132 76 -182 -55z"/>
<path d="M8370 14937 c-38 -39 -70 -153 -70 -254 0 -130 74 -183 257 -183 209 0 251 42 225 224 -32 222 -276 348 -412 213z"/>
<path d="M8217 13283 c43 -301 433 -331 433 -33 0 133 -78 211 -233 233 -194 27 -227 -6 -200 -200z"/>
<path d="M8306 10952 c-222 -841 -224 -954 -49 -2127 57 -379 42 -425 -134 -425 -109 0 -253 -65 -319 -146 -94 -112 -162 -120 -302 -32 -124 77 -285 83 -511 18 -316 -90 -336 -125 -444 -785 -133 -812 -90 -1155 145 -1155 203 0 408 189 408 377 0 91 -67 115 -200 73 -153 -49 -200 -18 -200 131 0 107 63 247 139 310 77 64 195 249 262 412 208 502 307 333 277 -475 -24 -668 -5 -776 147 -807 150 -31 176 48 185 547 12 702 100 1052 279 1112 108 36 120 -111 62 -768 -60 -679 -48 -812 75 -812 151 0 271 633 273 1433 1 263 40 370 126 341 127 -44 144 -339 68 -1212 -37 -424 -17 -493 150 -519 107 -17 360 101 564 262 416 330 538 753 332 1151 -113 217 -103 270 86 446 168 157 188 225 92 321 -89 89 -169 93 -293 15 -136 -86 -210 -56 -372 150 -174 222 -200 389 -185 1208 10 524 -22 1000 -71 1059 -49 59 -79 237 -67 397 14 196 -30 301 -138 323 -122 26 -210 -162 -385 -823z m482 -704 c-127 -466 -271 -670 -410 -584 -114 70 -26 759 135 1060 91 170 127 179 245 61 110 -110 116 -220 30 -537z m-126 -1429 c-140 -140 -162 -141 -162 -10 0 205 234 439 285 285 21 -63 -35 -186 -123 -275z m638 -726 c0 -168 50 -399 110 -512 95 -178 59 -258 -261 -569 l-371 -362 67 634 c76 718 202 1116 353 1116 56 0 102 -138 102 -307z"/>
<path d="M9312 10756 c-62 -245 -112 -650 -112 -900 0 -379 32 -456 188 -456 103 0 245 70 316 155 109 131 95 164 -88 212 -250 65 -313 533 -72 533 193 0 456 388 456 672 0 185 -55 228 -288 228 -258 0 -300 -47 -400 -444z"/>
<path d="M14499 15325 c-1 -1550 -145 -3057 -297 -3108 -132 -44 -133 -317 -2 -317 55 0 100 -110 100 -244 0 -278 -141 -404 -325 -290 -69 43 -222 65 -342 50 -119 -16 -257 44 -306 132 -80 143 -118 138 -358 -51 -246 -193 -269 -271 -269 -907 0 -661 -13 -700 -267 -796 -326 -124 -429 -1 -431 516 -2 250 77 446 253 636 279 301 289 583 24 634 -380 73 -811 -1420 -575 -1991 135 -324 505 -395 756 -143 80 80 212 120 293 89 118 -45 147 50 147 492 0 754 96 1173 270 1173 121 0 134 -146 76 -878 -55 -706 -40 -902 76 -999 199 -165 538 77 445 319 -36 94 -111 143 -166 108 -187 -115 -105 516 90 692 105 95 245 304 311 464 219 527 308 211 239 -839 -54 -803 -107 -1055 -254 -1196 -232 -222 -245 -490 -22 -450 306 54 241 -183 -163 -595 -221 -226 -402 -507 -402 -625 0 -358 188 -601 464 -601 l258 0 -25 -1025 c-38 -1574 -7 -2275 103 -2275 63 0 100 667 100 1800 0 1458 26 1800 137 1800 110 0 146 -387 182 -1948 24 -1072 76 -1980 114 -2019 39 -38 123 -17 186 46 87 87 89 273 6 744 -69 389 -97 1552 -73 3069 31 1993 66 2468 187 2590 132 132 157 121 212 -101 35 -138 -6 -784 -91 -1436 -85 -651 -130 -1209 -99 -1239 137 -137 333 347 279 687 -33 204 14 638 109 1004 108 417 144 799 102 1080 -66 440 -302 664 -449 427 -121 -197 -183 6 -149 496 141 2024 148 2063 447 2284 229 169 298 316 350 738 75 605 -43 1003 -413 1390 -244 256 -247 278 -124 873 69 335 92 643 51 684 -129 130 -261 -201 -266 -669 -2 -248 -74 -540 -160 -650 -142 -183 -149 -118 -85 775 63 861 52 975 -91 975 -141 0 -162 -175 -163 -1375z m450 -1031 c44 -180 3 -330 -140 -500 l-202 -244 -4 508 c-4 710 196 846 346 236z m563 -644 c46 -323 -104 -750 -264 -750 -182 0 -199 478 -31 848 125 273 247 232 295 -98z m-716 -1043 c130 -242 136 -875 9 -954 -101 -62 -304 550 -304 922 -1 276 156 293 295 32z m-45 -2682 c-75 -1225 -104 -1366 -258 -1271 -124 77 -119 480 8 607 64 64 69 269 13 567 -56 298 -48 613 20 870 201 752 292 429 217 -773z m-1133 853 c-71 -71 -118 -77 -118 -15 0 134 118 252 185 185 28 -28 -2 -105 -67 -170z m491 -3453 c-83 -312 -239 -363 -291 -95 -39 201 161 495 285 418 43 -27 46 -172 6 -323z"/>
<path d="M13310 15075 c-172 -454 -281 -1081 -197 -1133 130 -81 105 -410 -44 -560 -197 -199 -273 -467 -155 -541 178 -110 535 340 546 687 5 177 17 560 25 851 14 497 27 522 217 420 288 -154 413 -40 278 255 -147 322 -550 335 -670 21z"/>
<path d="M11977 14903 c-451 -355 -433 -1411 34 -2009 l191 -244 246 276 c369 416 510 985 365 1470 -115 384 -345 704 -507 704 -43 0 -191 -88 -329 -197z m519 -496 c190 -354 64 -1107 -184 -1107 -45 0 -163 180 -262 401 -146 323 -159 449 -68 650 136 298 371 323 514 56z"/>
<path d="M16279 14576 c-122 -94 -182 -381 -235 -1125 -66 -917 -58 -987 92 -862 93 77 164 283 164 477 0 207 81 429 205 562 149 160 196 326 175 613 -33 431 -151 529 -401 335z m181 -649 c-101 -102 -185 51 -102 186 63 102 87 102 121 1 23 -70 15 -154 -19 -187z"/>
<path d="M16200 11162 c0 -205 235 -364 393 -266 75 46 108 156 75 244 -75 195 -468 214 -468 22z"/>
<path d="M15907 8537 c-222 -283 -269 -587 -107 -687 149 -92 121 -408 -50 -550 -158 -131 -208 -500 -67 -500 128 0 487 426 559 664 35 117 13 325 -49 462 -91 200 -82 298 47 495 150 228 130 379 -49 379 -42 0 -170 -119 -284 -263z"/>
<path d="M12307 7959 c-84 -101 -86 -160 -7 -209 160 -99 400 19 400 197 0 192 -237 199 -393 12z"/>
<path d="M4027 52440 c33 -34 120 -37 192 -8 80 32 56 55 -61 60 -105 4 -164 -19 -131 -52z"/>
<path d="M6023 52381 c62 -185 217 -197 431 -36 186 141 179 149 -137 152 -214 2 -319 -40 -294 -116z"/>
<path d="M16670 52437 c-157 -158 -64 -350 155 -319 124 18 225 99 225 181 0 159 -263 254 -380 138z"/>
<path d="M19602 52432 c0 -45 44 -149 97 -232 74 -116 135 -125 273 -39 257 160 219 284 -97 321 -151 17 -274 -5 -273 -50z"/>
<path d="M23653 52205 c-214 -413 -191 -644 97 -987 138 -163 250 -366 250 -450 0 -84 113 -286 250 -450 255 -303 327 -659 154 -765 -52 -33 -166 76 -251 242 -151 292 -606 606 -873 604 -72 -1 -215 -179 -319 -396 -301 -629 -44 -1803 395 -1803 122 0 544 -753 544 -971 0 -30 -266 -25 -592 12 -366 42 -615 28 -654 -35 -107 -173 -183 -1075 -114 -1350 78 -311 774 -1056 986 -1056 243 0 347 -220 344 -725 -4 -519 -151 -611 -526 -328 -449 339 -844 9 -844 -704 0 -850 367 -1495 803 -1407 251 50 261 30 438 -843 99 -492 222 -920 274 -952 162 -100 385 171 385 468 0 282 367 1110 521 1174 43 19 78 154 76 300 l-3 267 -222 -261 c-122 -143 -273 -345 -336 -450 -72 -118 -63 15 25 358 179 702 175 983 -19 1353 -156 296 -153 304 200 611 205 177 358 403 358 527 0 208 -10 210 -250 53 -206 -135 -250 -139 -250 -22 0 78 113 295 250 481 156 212 250 472 250 694 l0 356 -208 -419 c-114 -230 -271 -472 -349 -537 -117 -97 -143 -76 -143 112 0 329 391 1094 559 1094 184 0 182 297 -4 439 -127 97 -127 188 -2 711 172 717 199 2450 39 2450 -73 0 -89 235 -49 725 33 399 85 1051 116 1450 l57 725 -302 0 c-298 0 -300 -4 -159 -275 166 -318 190 -785 45 -875 -57 -35 -100 49 -100 193 0 204 -44 250 -225 231 -200 -21 -223 18 -211 351 17 464 -192 504 -411 80z m-31 -2430 c87 -69 186 -282 219 -475 53 -310 46 -325 -56 -125 -175 342 -319 272 -255 -123 31 -192 18 -372 -30 -402 -133 -82 -400 361 -400 664 0 552 190 720 522 461z m1081 -970 c-61 -113 -159 -205 -219 -205 -145 0 -23 614 143 717 166 105 218 -245 76 -512z m-236 -1645 c-34 -555 -104 -1145 -156 -1310 -86 -274 -96 -252 -114 250 -11 303 -18 576 -15 607 4 32 15 370 26 750 21 762 53 879 213 780 72 -44 87 -402 46 -1077z m-730 -457 c152 -152 142 -1124 -12 -1177 -79 -27 -125 54 -125 221 0 289 -257 853 -388 853 -45 0 -61 -225 -35 -500 27 -275 20 -500 -16 -500 -113 0 -460 643 -461 855 0 113 49 254 108 313 129 129 781 83 929 -65z m-137 -3536 c317 -149 600 -708 600 -1186 0 -546 -135 -533 -335 32 -130 366 -223 490 -346 466 -111 -22 -158 -111 -138 -256 17 -123 -5 -222 -50 -220 -174 7 -437 511 -498 957 l-64 470 290 -73 c160 -39 404 -125 541 -190z"/>
<path d="M23045 42891 c-88 -141 105 -334 246 -246 60 37 109 132 109 211 0 168 -257 194 -355 35z"/>
<path d="M15000 52067 c0 -212 111 -268 313 -160 264 142 232 293 -63 293 -142 0 -250 -58 -250 -133z"/>
<path d="M1100 51920 c0 -230 190 -420 420 -420 245 0 235 364 -13 496 -282 151 -407 128 -407 -76z"/>
<path d="M317 50683 c22 -155 111 -244 266 -266 194 -27 227 6 200 200 -22 155 -111 244 -266 266 -194 27 -227 -6 -200 -200z"/>
<path d="M8853 49805 c-88 -142 24 -305 210 -305 88 0 138 70 119 167 -39 201 -238 285 -329 138z"/>
<path d="M100 49656 c0 -206 207 -306 305 -149 45 74 60 169 33 213 -85 136 -338 88 -338 -64z"/>
<path d="M8693 49275 c-53 -184 -41 -1796 14 -1829 41 -26 135 -23 209 5 150 58 194 1502 52 1724 -69 108 -254 175 -275 100z"/>
<path d="M9450 48675 c-102 -251 23 -542 170 -395 82 82 84 177 7 342 -94 203 -114 209 -177 53z"/>
<path d="M8410 46375 c-15 -454 -35 -960 -44 -1125 -11 -207 30 -300 134 -300 113 0 158 147 181 598 18 367 91 666 187 772 143 158 143 206 -10 527 -282 594 -417 451 -448 -472z"/>
<path d="M19818 46572 c-153 -185 -44 -492 161 -452 213 41 249 204 92 418 -114 156 -147 161 -253 34z"/>
<path d="M9050 45800 c-73 -118 22 -300 156 -300 52 0 94 90 94 200 0 211 -145 269 -250 100z"/>
<path d="M19853 45105 c-74 -121 42 -605 146 -605 170 0 275 258 193 475 -89 235 -239 292 -339 130z"/>
<path d="M8533 43707 c-87 -232 -84 -323 14 -405 229 -190 467 -6 433 335 -40 416 -301 457 -447 70z"/>
<path d="M19758 43436 c-86 -225 26 -536 193 -536 220 0 283 200 144 460 -151 281 -249 303 -337 76z"/>
<path d="M500 41157 c0 -92 85 -157 208 -157 244 0 210 234 -41 282 -99 19 -167 -32 -167 -125z"/>
<path d="M24664 40395 c-346 -900 -390 -955 -606 -739 -169 170 -762 167 -1182 -5 -129 -53 -219 8 -350 238 -97 170 -221 295 -276 278 -163 -52 -338 -679 -344 -1229 -9 -752 305 -1082 1217 -1281 596 -130 1054 -1845 815 -3044 -89 -444 -239 -389 -193 70 23 235 -35 546 -151 805 -180 403 -204 419 -531 358 -473 -89 -777 89 -741 434 24 229 -10 270 -222 270 -354 0 -621 -764 -559 -1599 38 -515 88 -638 353 -875 206 -184 420 -276 640 -276 334 0 631 -230 841 -650 151 -303 264 -2350 129 -2350 -60 0 -156 123 -213 273 -100 264 -256 422 -420 425 -43 1 -268 -180 -499 -402 -261 -251 -496 -393 -621 -375 -174 25 -198 95 -176 511 23 446 9 480 -196 450 -323 -47 -501 -731 -454 -1746 28 -592 91 -893 231 -1100 106 -157 193 -394 193 -527 1 -132 57 -260 126 -283 81 -28 125 61 125 254 0 226 53 308 225 346 124 27 392 122 597 212 369 161 373 160 713 -138 l341 -300 -51 -1125 c-28 -619 -67 -1143 -87 -1166 -20 -23 -219 14 -442 80 -360 108 -442 99 -737 -84 -465 -287 -634 -258 -874 148 -271 460 -448 326 -540 -409 -95 -759 21 -1388 320 -1744 231 -275 306 -300 878 -300 479 0 665 -43 792 -183 91 -100 165 -218 165 -260 0 -43 115 -215 255 -381 200 -238 249 -392 225 -715 l-30 -411 -551 33 c-445 26 -605 -9 -825 -182 -340 -267 -806 -241 -858 49 -67 380 -203 376 -365 -12 -137 -328 -145 -488 -51 -1029 187 -1077 538 -1501 1073 -1299 123 46 458 96 745 112 468 25 534 3 650 -222 155 -300 174 -1435 28 -1707 -56 -106 -206 -193 -332 -193 -127 0 -439 -138 -694 -307 -566 -376 -906 -364 -952 32 -17 151 -72 275 -121 275 -172 0 -307 -409 -323 -978 -12 -443 41 -676 230 -1019 259 -467 462 -575 1115 -593 230 -6 467 -95 626 -235 284 -249 314 -470 277 -2000 l-22 -875 -347 0 c-190 0 -508 -77 -705 -171 -413 -197 -619 -121 -828 305 -72 146 -164 266 -203 266 -97 0 -317 -1424 -317 -2054 0 -295 65 -594 158 -726 143 -205 226 -223 918 -198 l760 28 241 -350 c201 -292 230 -424 176 -800 -35 -247 -73 -1890 -84 -3650 -21 -3498 -48 -3679 -551 -3646 -604 39 -803 -20 -1176 -350 -312 -275 -353 -347 -200 -350 106 -2 269 66 363 151 101 91 389 162 708 175 584 22 806 -141 331 -243 -229 -49 -179 -66 229 -75 l522 -12 -60 299 c-33 164 -5 513 61 775 75 295 135 1557 158 3326 36 2710 74 3581 216 4950 72 689 67 1404 -20 2750 -71 1097 35 2012 241 2080 118 40 130 -132 73 -1061 -54 -889 -39 -1134 74 -1239 120 -111 119 -172 -11 -424 -114 -221 -125 -337 -42 -469 118 -189 67 -2127 -62 -2325 -40 -62 -81 -967 -90 -2012 -24 -2629 -106 -6159 -148 -6400 -25 -145 27 -209 190 -232 183 -26 225 16 225 225 0 324 145 327 441 7 128 -137 326 -250 441 -250 196 0 200 19 74 325 -100 242 -243 364 -555 475 l-420 150 62 800 c34 440 85 1903 114 3250 29 1348 69 3207 89 4132 19 926 58 1706 86 1734 29 28 235 75 460 106 323 43 408 96 408 254 0 164 -48 189 -275 144 -151 -31 -354 -86 -450 -124 -439 -169 19 865 475 1072 248 113 353 482 137 482 -62 0 -262 -158 -443 -350 -182 -193 -362 -350 -400 -350 -93 0 41 985 165 1217 66 123 211 183 445 183 306 0 346 30 346 261 0 237 -30 257 -325 215 -179 -25 -392 -75 -475 -112 -129 -57 -148 98 -134 1110 9 647 20 1224 25 1283 16 183 645 943 780 943 71 0 129 90 129 200 0 322 -257 232 -640 -225 -394 -470 -429 -407 -248 436 122 571 480 1024 732 927 117 -44 156 7 156 201 0 305 -188 339 -554 99 l-246 -161 1 736 c2 975 58 1143 460 1380 404 239 451 507 89 507 -177 0 -250 54 -250 186 0 102 113 352 250 554 138 203 250 442 250 532 0 252 -426 -188 -703 -729 -262 -508 -442 -689 -593 -596 -190 118 -119 453 96 453 110 0 200 58 200 128 0 70 225 575 500 1122 275 547 500 1081 500 1187 0 185 -9 186 -191 21 -105 -95 -285 -391 -400 -659 -247 -573 -373 -689 -345 -316 11 147 23 751 28 1342 8 1045 14 1075 233 1076 411 3 675 120 675 298 0 150 -68 169 -450 126 -261 -30 -450 -10 -450 47 0 211 325 731 605 967 276 232 408 661 203 661 -120 0 -642 -663 -953 -1211 l-247 -435 50 748 c28 411 74 939 103 1173 l51 425 544 0 c517 0 544 13 544 256 0 141 -40 231 -90 200 -49 -30 -229 -27 -400 7 -300 60 -310 79 -310 595 0 655 130 958 509 1181 320 189 418 535 116 410 -492 -202 -529 -190 -416 133 58 168 215 423 349 567 133 144 242 357 242 475 0 203 -13 201 -288 -63 -159 -151 -368 -452 -465 -668 -98 -216 -216 -393 -262 -393 -79 0 -139 527 -84 750 13 55 59 250 102 432 118 498 384 746 726 677 262 -52 282 -35 253 217 -25 217 -91 281 -315 306 -220 26 -267 70 -213 200 39 93 115 371 169 618 55 248 155 518 224 600 74 89 129 473 135 950 l10 800 -233 -624 c-128 -344 -279 -681 -335 -750 -57 -69 -127 -216 -158 -326 -31 -110 -25 3 12 250 37 248 57 720 43 1050 -26 647 228 1250 528 1250 93 0 151 92 151 241 0 180 -44 229 -175 194 -153 -40 -174 31 -166 572 7 465 50 640 175 710 213 119 228 500 16 419 -186 -71 -186 -49 6 517 86 252 142 578 125 723 -25 210 -90 111 -317 -481z m-820 -1217 c98 -140 154 -428 150 -775 l-6 -553 -265 525 c-250 497 -285 525 -651 525 -314 0 -380 -33 -353 -174 20 -103 155 -195 331 -226 372 -64 483 -400 132 -400 -395 1 -846 346 -917 702 -96 478 -86 507 162 445 125 -32 339 -13 475 42 426 169 775 128 942 -111z m302 -1985 c-86 -139 -146 -113 -146 63 0 86 46 128 102 93 56 -35 75 -105 44 -156z m-1690 -1802 c38 -63 200 -85 380 -52 370 68 511 -7 588 -314 66 -258 -73 -290 -472 -108 -197 90 -285 90 -375 0 -129 -129 -11 -309 235 -359 319 -64 504 -199 642 -465 228 -441 172 -540 -113 -201 -178 212 -348 308 -545 308 -464 0 -781 200 -903 571 -95 289 -86 371 63 535 195 216 397 250 500 85z m640 -4684 c57 -107 104 -284 104 -393 0 -262 265 -521 458 -447 130 50 142 -22 84 -479 -38 -296 -83 -554 -99 -573 -16 -19 -78 145 -138 365 -59 221 -193 507 -298 636 -169 208 -273 234 -948 234 -418 0 -759 -36 -759 -79 0 -44 80 -165 177 -270 153 -163 237 -177 607 -94 415 94 616 63 616 -95 0 -137 -1087 -530 -1290 -465 -219 69 -442 625 -392 973 25 178 125 243 479 313 247 48 584 195 750 326 368 290 514 301 649 48z m522 -4929 c-71 -71 -118 -77 -118 -15 0 134 118 252 185 185 28 -28 -2 -105 -67 -170z m-685 -160 c91 -99 195 -331 231 -515 73 -364 -5 -361 -422 13 -152 137 -320 177 -628 149 -490 -44 -585 -109 -430 -296 68 -82 234 -117 422 -90 248 37 376 -19 651 -286 189 -183 343 -420 343 -528 0 -189 -7 -190 -199 -15 -142 128 -377 184 -812 194 -702 15 -907 180 -1095 878 -132 491 -35 614 364 463 243 -91 357 -82 596 47 395 214 779 208 979 -14z m709 -443 c131 -648 183 -2375 71 -2375 -133 0 -232 694 -249 1748 -13 804 77 1123 178 627z m-653 -3828 c104 -30 236 -176 292 -325 121 -320 243 -1122 171 -1122 -27 0 -164 182 -305 405 -293 464 -485 571 -702 391 -135 -112 -123 -159 101 -392 l253 -264 -607 -126 c-716 -147 -823 -94 -1113 562 -220 495 -175 624 216 624 156 0 479 89 719 197 240 108 515 176 611 150 96 -26 259 -71 364 -100z m993 -564 c-40 -275 -282 -367 -282 -108 0 208 81 325 224 325 49 0 76 -98 58 -217z m-83 -1408 c0 -234 -67 -920 -148 -1525 -81 -605 -148 -1136 -149 -1181 -1 -44 -47 -53 -102 -19 -129 80 -130 680 -2 808 123 123 174 1845 60 2029 -52 84 -32 168 54 223 242 153 288 99 287 -335z m-925 -2700 c219 -235 422 -1175 254 -1175 -52 0 -241 183 -421 406 -293 364 -358 399 -641 338 -635 -135 -766 -443 -191 -446 410 -1 479 -35 772 -381 l198 -232 -648 60 c-841 77 -1168 381 -1109 1030 7 69 144 125 306 125 171 0 413 104 575 247 352 309 636 318 905 28z m772 -482 c-86 -139 -146 -113 -146 63 0 86 46 128 102 93 56 -35 75 -105 44 -156z m-91 -1871 c-187 -188 -289 696 -123 1069 105 234 119 198 147 -378 17 -350 6 -661 -24 -691z m-700 -3267 c189 -190 245 -351 245 -706 0 -282 -39 -437 -100 -399 -55 34 -100 112 -100 173 0 291 -337 477 -865 477 -468 0 -535 -25 -535 -200 0 -151 67 -200 275 -201 473 -3 684 -103 867 -413 200 -339 147 -490 -88 -254 -124 124 -299 144 -844 98 -607 -50 -700 -35 -789 132 -108 201 -161 613 -136 1068 14 258 40 275 340 223 196 -35 424 -1 575 85 404 230 875 196 1155 -83z"/>
<path d="M19700 40000 c0 -55 68 -100 150 -100 83 0 150 45 150 100 0 55 -67 100 -150 100 -82 0 -150 -45 -150 -100z"/>
<path d="M19717 38985 c18 -129 114 -248 216 -268 142 -27 176 18 150 198 -18 129 -114 248 -216 268 -142 27 -176 -18 -150 -198z"/>
<path d="M0 38200 c0 -55 45 -100 100 -100 55 0 100 45 100 100 0 55 -45 100 -100 100 -55 0 -100 -45 -100 -100z"/>
<path d="M19600 37306 c0 -233 114 -321 283 -216 155 95 44 410 -144 410 -76 0 -139 -87 -139 -194z"/>
<path d="M17302 37053 c-81 -98 -81 -154 -2 -203 133 -82 400 8 400 136 0 161 -281 208 -398 67z"/>
<path d="M18325 37129 c-173 -63 -158 -329 19 -329 182 0 307 192 192 296 -47 44 -142 58 -211 33z"/>
<path d="M0 20939 c0 -8675 28 -15744 62 -15710 91 91 105 31379 15 31435 -43 27 -77 -7050 -77 -15725z"/>
<path d="M19050 36600 c-82 -132 28 -300 195 -300 146 0 277 245 181 340 -93 93 -308 71 -376 -40z"/>
<path d="M18118 36175 c42 -299 482 -383 482 -93 0 182 -178 318 -415 318 -54 0 -85 -101 -67 -225z"/>
<path d="M19700 35956 c0 -134 49 -274 109 -311 167 -104 319 110 244 345 -93 293 -353 268 -353 -34z"/>
<path d="M18900 35200 c0 -111 67 -200 150 -200 83 0 150 89 150 200 0 111 -67 200 -150 200 -83 0 -150 -89 -150 -200z"/>
<path d="M19438 34355 c-70 -184 32 -355 212 -355 206 0 284 189 146 354 -153 186 -287 186 -358 1z"/>
<path d="M19738 33256 c-92 -242 4 -502 201 -540 277 -53 370 183 178 448 -194 267 -301 293 -379 92z"/>
<path d="M19717 20734 c20 -101 103 -184 184 -184 215 0 184 291 -35 333 -134 25 -174 -15 -149 -149z"/>
<path d="M19062 20046 c-34 -88 6 -178 94 -212 196 -75 285 15 209 212 -75 198 -227 198 -303 0z"/>
<path d="M19720 19480 c-66 -66 -120 -178 -120 -250 0 -184 294 -162 366 27 83 215 -94 375 -246 223z"/>
<path d="M18138 18755 c-122 -319 232 -483 456 -212 95 114 79 165 -81 250 -262 140 -308 135 -375 -38z"/>
<path d="M19057 18233 c-35 -91 -23 -207 26 -256 109 -109 444 198 362 331 -92 149 -318 105 -388 -75z"/>
<path d="M17073 18187 c-207 -116 -228 -287 -35 -287 171 0 401 264 290 333 -45 28 -160 7 -255 -46z"/>
<path d="M19769 18035 c-154 -154 -65 -435 138 -435 156 0 199 54 175 217 -33 226 -194 338 -313 218z"/>
<path d="M19757 16533 c-69 -182 142 -374 270 -246 91 91 -9 413 -127 413 -43 0 -107 -75 -143 -167z"/>
<path d="M24525 16097 c-255 -103 -306 -397 -68 -397 246 0 543 193 543 354 0 164 -142 177 -475 43z"/>
<path d="M19719 15325 c43 -221 220 -216 263 7 20 102 -32 168 -132 168 -103 0 -152 -66 -131 -175z"/>
<path d="M19520 11180 c-155 -155 -156 -509 -2 -457 65 21 165 114 223 205 138 220 -45 428 -221 252z"/>
<path d="M19449 9795 c-88 -276 116 -511 255 -294 53 82 85 213 71 291 -41 233 -253 235 -326 3z"/>
<path d="M1450 8775 c-102 -251 23 -542 170 -395 82 82 84 177 7 342 -94 203 -114 209 -177 53z"/>
<path d="M19415 8068 c-143 -172 -49 -468 149 -468 211 0 285 294 116 463 -127 127 -163 128 -265 5z"/>
<path d="M19234 6543 c-84 -217 128 -421 279 -270 128 128 49 427 -113 427 -58 0 -133 -71 -166 -157z"/>
<path d="M39 2800 c0 -742 16 -1046 35 -675 19 371 19 979 0 1350 -19 371 -35 67 -35 -675z"/>
<path d="M19230 3221 c-72 -46 -86 -130 -36 -211 99 -160 306 -61 306 146 0 159 -88 180 -270 65z"/>
<path d="M19200 2150 c0 -142 58 -250 133 -250 196 0 252 87 194 306 -74 284 -327 241 -327 -56z"/>
<path d="M19100 550 c0 -169 46 -251 125 -225 69 23 125 124 125 225 0 101 -56 202 -125 225 -79 26 -125 -56 -125 -225z"/>
<path d="M1400 350 c0 -83 89 -150 200 -150 111 0 200 67 200 150 0 83 -89 150 -200 150 -111 0 -200 -67 -200 -150z"/>
<path d="M2100 150 c0 -82 45 -150 100 -150 55 0 100 68 100 150 0 83 -45 150 -100 150 -55 0 -100 -67 -100 -150z"/>
<path d="M8600 139 c0 -105 54 -140 158 -100 87 34 177 61 200 61 23 0 42 45 42 100 0 55 -90 100 -200 100 -117 0 -200 -67 -200 -161z"/>
</g>
</svg>