<svg xmlns="http://www.w3.org/2000/svg" version="1.0" width="250" height="525" viewBox="0 0 250.000000 525.000000" preserveAspectRatio="xMidYMid meet">
<metadata>
Created by potrace 1.10, written by Peter Selinger 2001-2011
</metadata>
<g transform="translate(0.000000,525.000000) scale(0.010000,-0.010000)" fill="#555555" stroke="none">
<path d="M1637 52349 c31 -83 88 -689 125 -1347 77 -1356 47 -1438 -582 -1607 -337 -91 -454 -77 -788 97 l-392 205 0 -2515 c0 -1384 32 -2483 72 -2443 40 39 79 850 87 1801 17 1948 124 2492 476 2438 118 -18 205 -86 192 -150 -144 -725 -237 -1623 -198 -1915 65 -496 -184 -2269 -395 -2816 -145 -373 -178 -864 -200 -2975 -26 -2401 -18 -2538 169 -2725 108 -108 235 -197 281 -197 100 0 316 -448 316 -657 0 -132 -521 -322 -725 -264 -41 11 -75 -118 -75 -287 l0 -309 375 294 c206 162 488 318 625 348 814 174 2242 585 2353 678 165 137 1588 652 2447 886 358 98 1059 340 1560 539 500 198 1040 393 1200 432 386 96 1241 740 979 739 -104 -1 -391 -118 -639 -261 -384 -222 -1895 -677 -1976 -595 -15 15 153 152 373 305 315 218 431 253 541 162 142 -118 133 -121 1941 798 501 254 669 187 285 -115 -146 -115 -242 -247 -213 -294 29 -47 -48 -156 -172 -242 -174 -122 -187 -157 -58 -157 217 0 499 287 414 424 -39 64 -19 78 52 34 107 -66 817 398 1687 1103 263 213 334 235 380 113 72 -185 -345 -636 -986 -1068 -265 -179 -504 -384 -532 -456 -28 -73 -164 -161 -303 -195 -139 -35 -372 -145 -518 -243 -542 -368 -1332 -812 -1447 -814 -65 0 -183 -42 -263 -93 -94 -59 10 -74 300 -40 l445 51 -250 -207 c-137 -114 -396 -262 -575 -328 -205 -76 -325 -189 -325 -305 0 -236 108 -181 1550 802 1404 956 1950 1399 1950 1579 0 79 43 143 95 143 166 0 1870 1694 2062 2051 191 353 531 610 361 272 -48 -95 -188 -387 -311 -648 -142 -300 -289 -475 -400 -475 -96 0 -226 -112 -289 -250 -62 -137 -163 -250 -223 -250 -59 0 -83 -81 -51 -180 31 -99 -9 -268 -90 -375 -81 -107 -149 -262 -150 -345 -2 -82 93 8 210 200 117 193 335 476 485 629 150 154 466 660 703 1125 237 465 463 846 503 846 39 0 93 113 119 250 27 138 2 250 -55 250 -56 0 -79 24 -50 52 87 88 381 -65 381 -197 0 -69 -90 -228 -200 -355 -110 -127 -201 -325 -203 -440 -1 -116 -135 -385 -297 -599 -162 -214 -273 -425 -246 -468 27 -43 -107 -337 -298 -653 -346 -575 -378 -780 -104 -675 156 59 932 1577 1208 2360 209 594 383 622 317 50 -30 -264 -238 -748 -547 -1275 -615 -1047 -830 -1485 -830 -1685 0 -242 146 -22 389 585 247 619 558 1044 699 957 52 -32 125 126 163 351 38 224 132 528 209 675 76 147 139 342 139 434 1 271 113 483 255 483 73 0 159 84 192 187 32 103 148 267 257 365 190 173 197 172 197 -19 0 -256 -298 -1154 -425 -1283 -66 -66 -77 28 -33 275 42 237 29 375 -37 375 -58 0 -105 -34 -105 -75 0 -42 -88 -383 -195 -759 -172 -599 -176 -666 -33 -549 144 118 155 105 95 -117 -175 -640 -188 -756 -67 -600 95 123 106 104 63 -100 -29 -137 -84 -441 -121 -675 -75 -475 -240 -575 -246 -150 l-3 275 -143 -250 c-79 -137 -145 -339 -146 -448 -5 -253 -573 -1402 -778 -1572 -135 -112 -145 -97 -78 114 43 134 256 602 476 1041 337 676 786 1978 772 2239 -2 42 -91 -81 -196 -274 -140 -256 -193 -298 -196 -155 -6 269 -162 78 -243 -295 -62 -289 -58 -293 98 -100 158 195 160 194 88 -50 -41 -137 -118 -362 -171 -500 -93 -237 -102 -240 -177 -50 -65 165 -138 68 -413 -550 -185 -412 -518 -1121 -741 -1575 -224 -454 -381 -824 -351 -824 80 2 437 582 645 1049 425 954 713 1474 739 1338 38 -193 -360 -1088 -483 -1088 -52 0 -95 -49 -95 -110 0 -124 -208 -625 -533 -1282 -235 -476 -540 -698 -441 -321 89 341 -68 168 -471 -522 -207 -354 -506 -739 -665 -857 -263 -194 -400 -515 -215 -503 70 5 648 688 968 1145 78 110 165 176 194 146 59 -59 -421 -1051 -772 -1596 -792 -1227 -1212 -1822 -1359 -1928 -93 -67 -204 -189 -247 -272 -44 -82 184 126 506 464 694 729 1533 1880 2175 2986 255 440 556 913 668 1050 l205 250 -66 -250 c-36 -137 -281 -610 -545 -1050 -862 -1438 -1145 -2150 -856 -2150 83 0 179 124 215 275 35 151 283 621 552 1044 268 424 487 865 487 981 0 116 233 681 517 1255 435 880 553 1045 749 1045 166 0 277 94 383 325 l151 325 -41 -300 c-93 -688 -387 -1586 -812 -2474 -72 -151 -160 -409 -197 -574 -36 -165 -106 -325 -155 -355 -50 -31 -253 -301 -452 -601 -199 -300 -384 -546 -409 -546 -97 0 99 465 373 885 276 424 944 2297 851 2390 -60 60 -292 -498 -492 -1184 -87 -298 -398 -923 -691 -1391 -292 -467 -636 -1097 -763 -1400 -127 -302 -295 -651 -374 -775 -78 -124 -120 -225 -93 -225 42 0 492 670 918 1365 63 102 151 149 196 105 46 -43 24 -175 -49 -292 -378 -604 -606 -1078 -519 -1078 54 0 170 101 259 225 l161 225 -66 -275 c-127 -524 63 -271 523 700 430 905 1137 2685 1678 4225 126 358 275 640 332 628 57 -12 135 213 174 500 38 287 242 1220 453 2072 524 2122 605 2617 490 3017 -124 432 -121 955 5 1033 57 35 100 -56 100 -214 0 -171 35 -240 93 -181 119 122 168 1066 63 1235 -43 71 -90 518 -102 994 -33 1273 -31 1259 -192 1126 -205 -170 -284 114 -104 371 205 293 38 677 -326 747 -366 70 -406 19 -180 -230 146 -162 158 -228 59 -325 -99 -98 -165 -74 -316 111 -267 327 -421 231 -464 -289 -87 -1058 -326 -1881 -758 -2610 -683 -1152 -1299 -2085 -1376 -2085 -38 0 -194 -180 -347 -399 -173 -251 -612 -612 -1177 -968 -1139 -719 -2946 -1620 -3046 -1520 -43 42 -294 -34 -559 -168 -265 -135 -522 -245 -572 -245 -86 0 -763 -290 -1653 -709 -223 -105 -461 -191 -528 -191 -141 0 -2096 -1024 -2613 -1368 -340 -226 -702 -307 -702 -157 0 223 1394 1119 3014 1937 531 268 990 555 1022 638 32 82 118 150 192 150 73 0 491 180 928 400 437 220 974 447 1194 504 220 57 490 146 600 197 110 51 700 252 1311 447 760 241 1267 470 1600 723 269 203 506 412 527 464 21 51 179 256 351 454 173 199 492 631 711 961 218 330 490 690 605 800 382 367 733 1078 445 900 -151 -94 -120 66 80 400 344 578 571 1643 365 1716 -58 21 -154 -87 -214 -239 l-110 -277 -10 269 c-6 148 -64 302 -128 342 -80 49 -96 16 -49 -105 37 -98 19 -359 -41 -581 -82 -307 -79 -422 13 -479 155 -96 55 -471 -209 -785 -288 -341 -345 -200 -113 279 109 226 162 410 118 410 -122 0 -447 -821 -421 -1063 15 -144 -46 -231 -189 -268 -117 -31 -183 -103 -146 -162 36 -59 -3 -107 -88 -107 -84 0 -230 -124 -324 -275 -241 -391 -853 -1025 -989 -1025 -63 0 -200 -95 -305 -212 -402 -447 -1634 -1379 -1694 -1281 -80 128 133 393 316 393 76 0 138 68 138 151 0 109 -116 66 -425 -158 -234 -169 -425 -342 -425 -384 0 -41 -191 -324 -425 -627 -311 -402 -529 -581 -812 -666 -472 -142 -513 -143 -513 -14 0 57 122 149 272 206 207 79 238 124 132 189 -107 67 -28 189 341 533 264 246 459 508 434 583 -33 98 -77 77 -157 -72 -62 -115 -536 -558 -1056 -985 -519 -427 -1001 -885 -1072 -1016 -70 -132 -176 -241 -236 -243 -59 -2 -327 -111 -596 -242 -268 -132 -549 -215 -625 -186 -75 29 -137 0 -137 -64 0 -64 51 -85 113 -47 69 42 95 15 66 -69 -25 -76 -125 -139 -221 -140 -96 0 -233 -79 -303 -175 -137 -188 -355 -235 -355 -76 0 54 290 406 645 782 760 805 1025 1302 1453 2720 174 578 400 1275 502 1550 236 638 276 858 401 2223 56 617 142 1225 190 1350 141 366 1297 1613 1659 1789 2142 1044 3803 1233 5111 582 324 -161 661 -293 750 -294 341 0 2644 -1192 2984 -1543 189 -197 402 -357 473 -357 399 0 1168 -2743 1332 -4750 44 -550 128 -1270 185 -1600 166 -956 562 -5737 666 -8050 29 -632 99 -1397 156 -1700 249 -1318 381 -1964 443 -2162 61 -195 19 -219 -500 -284 -312 -39 -594 -43 -628 -9 -34 33 -115 386 -181 783 l-121 722 10 -728 c8 -619 -23 -759 -206 -943 -169 -169 -225 -184 -257 -72 -84 289 -267 1361 -267 1559 0 112 -84 301 -187 419 -103 119 -217 452 -254 741 -37 288 -106 659 -154 824 -147 505 -222 1650 -108 1650 57 0 103 -101 102 -225 -2 -392 337 -2375 406 -2375 36 0 9 349 -60 775 -69 426 -181 1127 -250 1556 -79 493 -156 733 -209 650 -63 -100 -83 -92 -84 36 -1 91 41 181 94 200 92 31 -57 3176 -155 3275 -85 85 -37 -1605 66 -2349 83 -594 80 -789 -14 -847 -89 -55 -106 -355 -66 -1111 76 -1411 366 -2920 842 -4378 133 -409 269 -1028 301 -1375 32 -348 97 -632 143 -632 46 0 55 202 21 450 -83 606 107 588 262 -24 65 -260 166 -530 224 -600 118 -142 -58 -426 -265 -426 -127 0 -947 -757 -1339 -1236 -285 -349 -401 -258 -427 337 -106 2449 -373 5217 -519 5362 -171 171 -240 -437 -177 -1563 38 -687 30 -1303 -18 -1368 -49 -65 -107 -380 -130 -700 -26 -367 -13 -490 36 -332 82 262 293 328 478 150 61 -58 141 -707 180 -1465 59 -1140 46 -1385 -78 -1510 -85 -84 -163 -380 -180 -679 -32 -555 -281 -854 -281 -338 0 389 -85 257 -187 -294 -81 -429 -72 -465 93 -412 171 54 179 -22 142 -1222 -56 -1804 -103 -2025 -458 -2149 -160 -55 -290 -141 -290 -191 0 -128 125 -112 475 62 251 126 305 213 305 496 0 1115 298 1766 471 1027 90 -387 89 -290 9 -1020 -89 -803 25 -645 189 261 l133 734 9 -850 c17 -1478 136 -3100 228 -3100 49 0 65 281 36 625 -29 344 -81 946 -115 1338 -41 475 -24 735 49 780 71 44 113 -33 115 -212 3 -155 69 -551 149 -881 l143 -600 -65 650 c-36 358 -75 864 -86 1125 -11 261 -66 531 -121 600 -132 165 -136 3227 -4 3659 172 567 261 224 318 -1234 46 -1178 215 -3751 251 -3821 6 -12 95 -102 197 -200 102 -98 213 -381 246 -629 33 -247 88 -607 121 -800 57 -323 50 -336 -89 -166 -82 102 -179 360 -216 575 -36 215 -101 391 -144 391 -83 0 50 -641 393 -1896 230 -840 429 -1163 337 -545 -56 377 -52 384 112 191 170 -200 170 -200 101 0 -153 439 -166 550 -65 550 57 0 135 -101 173 -225 38 -124 125 -292 195 -375 69 -82 187 -328 263 -545 75 -217 379 -657 676 -978 296 -321 513 -608 483 -638 -80 -81 -898 300 -1056 490 -73 89 -103 212 -65 272 69 113 -447 1236 -530 1153 -26 -25 49 -250 166 -499 389 -826 256 -862 -524 -140 -603 556 -685 733 -962 2063 -173 831 -182 849 -191 372 -5 -275 39 -673 98 -884 140 -504 56 -565 -305 -219 -325 311 -445 763 -555 2077 -36 426 -98 795 -138 820 -40 25 -152 -87 -247 -249 -205 -348 -345 -366 -693 -93 -183 144 -277 168 -328 85 -51 -83 -112 -63 -207 67 -195 266 -171 373 174 807 380 478 574 927 612 1417 20 256 -10 364 -96 347 -147 -29 -155 175 -28 722 134 579 63 537 -184 -108 -152 -399 -186 -601 -113 -689 57 -69 73 -205 35 -304 -47 -123 -32 -156 48 -107 172 107 149 -388 -36 -744 -218 -422 -380 -367 -198 67 229 550 180 649 -69 138 -346 -710 -462 -742 -1020 -282 l-385 317 502 158 c513 160 926 451 920 647 -2 61 -63 32 -135 -64 -155 -204 -764 -476 -1066 -476 -274 0 -226 333 55 384 225 41 549 300 549 439 0 50 -115 1 -256 -110 -141 -111 -318 -178 -393 -150 -74 29 -218 8 -320 -46 -224 -120 -738 71 -943 350 -288 393 -1157 933 -1501 933 -419 1 -1061 366 -909 518 61 61 277 79 513 43 225 -33 600 -83 834 -111 l425 -50 -500 146 c-275 80 -688 147 -918 150 -338 3 -432 45 -486 218 -52 163 1 268 225 443 1081 846 1750 1735 2180 2898 101 272 215 540 254 595 39 55 146 364 239 686 259 905 295 595 58 -502 -134 -620 -340 -1217 -557 -1612 -364 -663 -403 -770 -251 -676 411 254 1349 3060 1449 4333 82 1049 651 3397 659 2716 1 -123 16 -123 98 5 53 83 98 294 98 470 l2 320 -236 -220 c-180 -168 -285 -468 -447 -1274 -116 -580 -304 -1357 -418 -1725 -225 -731 -460 -921 -363 -296 31 206 33 319 2 250 -61 -138 -338 -173 -338 -42 0 105 502 1350 572 1417 51 49 -36 -472 -140 -838 -34 -117 -14 -162 53 -121 59 36 137 233 173 438 36 204 128 617 204 917 181 715 178 913 -12 840 -174 -67 -189 48 -52 407 63 167 63 257 0 257 -54 0 -98 88 -98 195 0 258 207 705 327 705 52 0 66 116 30 258 -56 224 -39 250 133 195 164 -52 216 3 303 317 58 209 103 515 99 680 l-8 300 -100 -275 c-55 -151 -142 -275 -192 -275 -207 0 -476 -391 -426 -618 36 -164 24 -193 -43 -99 -77 108 -107 102 -159 -33 -91 -236 -80 -272 53 -189 80 49 96 16 50 -104 -38 -97 -96 -295 -129 -441 -125 -540 -466 -1569 -549 -1659 -207 -226 -183 74 54 666 261 653 332 998 169 822 -48 -52 -145 -275 -215 -495 -137 -433 -606 -1320 -952 -1800 -358 -498 -397 -591 -220 -523 234 89 -365 -1217 -752 -1640 -169 -186 -462 -578 -650 -873 -189 -294 -507 -719 -708 -944 -342 -382 -285 -428 110 -89 158 136 175 131 175 -45 0 -107 -202 -393 -450 -636 -437 -428 -541 -600 -365 -600 123 0 965 1094 1157 1503 166 355 691 1151 1053 1597 111 138 203 284 204 325 3 159 191 65 251 -126 93 -294 213 -166 401 427 91 288 229 659 305 824 238 512 174 -28 -95 -807 -544 -1574 -1168 -2670 -2056 -3607 -278 -293 -505 -585 -505 -649 0 -160 1087 916 1161 1148 35 110 95 149 149 95 123 -123 -258 -891 -593 -1196 l-267 -242 329 190 c328 190 543 525 943 1468 117 275 260 562 318 638 58 75 92 261 76 412 -33 321 333 1159 541 1239 79 30 143 133 143 228 0 126 30 143 110 63 80 -80 41 -269 -143 -695 -139 -322 -301 -754 -360 -960 -269 -942 -360 -1162 -714 -1721 -208 -328 -354 -635 -325 -683 107 -174 752 990 1038 1875 200 620 430 952 564 817 80 -79 -320 -1270 -598 -1780 -123 -225 -252 -346 -336 -314 -77 30 -136 -12 -136 -97 0 -82 -181 -420 -402 -751 -614 -920 -2366 -2144 -3330 -2327 -266 -50 -536 -125 -601 -165 -64 -40 -477 -97 -917 -126 l-800 -53 -58 -607 c-32 -334 -94 -666 -138 -737 -110 -177 -257 -852 -163 -743 165 190 509 1275 509 1604 0 498 228 376 326 -175 70 -388 40 -521 -248 -1091 -292 -578 -328 -738 -327 -1475 1 -454 -21 -826 -50 -826 -77 0 -601 676 -601 776 0 48 -135 216 -300 374 -363 348 -393 786 -96 1440 110 242 181 458 159 480 -58 58 -562 -980 -566 -1165 -3 -126 -30 -120 -145 32 -87 115 -121 309 -89 500 38 222 25 272 -44 173 -55 -76 -171 -111 -259 -78 -177 68 -214 511 -74 886 157 420 234 1182 120 1182 -58 0 -106 -172 -106 -383 0 -695 -148 -549 -253 249 -61 465 -67 927 -16 1134 47 193 84 418 81 500 -49 1463 -158 2777 -238 2877 -165 206 -1 264 261 92 252 -165 383 -689 260 -1038 -35 -100 -20 -579 34 -1065 97 -883 98 -885 617 -1425 453 -471 754 -666 754 -487 0 30 -246 310 -546 622 -477 497 -553 633 -610 1089 -97 774 -17 830 325 227 374 -661 537 -802 1192 -1026 489 -168 532 -168 1041 8 524 181 815 442 663 595 -43 43 -154 -20 -247 -140 -426 -553 -1583 -490 -2135 117 -626 687 -1097 2168 -633 1990 324 -124 108 72 -904 819 -614 454 -1034 831 -1006 905 26 68 -62 197 -196 285 -215 141 -244 142 -244 7 0 -83 -70 -152 -156 -152 -86 0 -129 -43 -97 -96 33 -52 125 -70 206 -39 81 31 148 18 149 -29 1 -47 202 -220 446 -384 330 -221 434 -350 403 -500 -23 -111 -93 -596 -157 -1078 -63 -481 -156 -900 -205 -931 -50 -31 -207 82 -349 251 -323 384 -1421 1004 -2079 1175 -274 71 -580 155 -680 187 -113 36 -181 7 -181 -77 0 -82 263 -202 678 -309 722 -186 1681 -709 2160 -1177 220 -215 301 -400 334 -763 38 -419 3 -534 -273 -905 -174 -234 -355 -425 -402 -425 -87 0 -717 801 -1250 1590 -163 242 -340 498 -393 570 -54 72 -71 156 -39 188 130 131 653 -190 1073 -659 348 -388 457 -594 488 -919 43 -468 67 -517 211 -428 121 74 70 1059 -59 1147 -49 33 -149 208 -222 389 -105 260 -173 314 -333 263 -176 -55 -192 -31 -133 206 59 235 43 261 -129 207 -108 -35 -364 7 -569 93 -205 86 -394 134 -421 108 -26 -27 -160 40 -298 148 -137 108 -289 197 -336 197 -170 0 -83 -328 170 -636 254 -310 556 -719 1043 -1411 138 -195 666 -904 1175 -1574 509 -671 925 -1267 926 -1324 0 -58 268 -442 595 -855 328 -412 760 -987 961 -1278 201 -290 451 -573 554 -628 104 -56 189 -149 189 -207 0 -58 203 -342 450 -632 248 -290 500 -669 560 -841 60 -173 147 -291 193 -262 45 28 300 -206 565 -521 265 -315 729 -807 1031 -1094 302 -288 519 -553 482 -590 -37 -37 -232 -13 -433 54 -350 115 -1066 791 -2013 1899 -212 248 -903 990 -1536 1650 -633 660 -1393 1559 -1689 1999 -296 439 -708 1002 -914 1250 -355 426 -1183 1604 -1950 2776 -189 289 -367 525 -395 525 -28 0 -51 -111 -51 -246 0 -136 248 -610 550 -1054 303 -444 550 -837 550 -873 0 -37 120 -191 267 -345 l267 -278 -192 -356 c-151 -280 -164 -372 -63 -435 70 -44 99 -154 64 -246 -80 -208 -243 -219 -243 -17 0 254 -159 167 -353 -192 -140 -260 -157 -376 -71 -479 72 -87 79 -188 20 -282 -78 -123 -93 -118 -94 28 -1 96 -47 175 -102 175 -55 0 -100 -50 -100 -111 0 -68 -96 -87 -250 -48 -385 97 -316 -182 150 -603 220 -199 400 -425 400 -503 0 -78 79 -170 175 -205 96 -35 355 -182 575 -327 220 -145 700 -388 1066 -541 367 -152 745 -364 841 -470 96 -105 246 -193 333 -194 88 -1 273 -90 410 -198 138 -108 290 -197 338 -198 48 -1 251 -140 450 -308 1172 -992 2638 -1844 3802 -2210 591 -186 1415 -632 1493 -809 19 -41 116 -75 216 -75 176 0 701 -525 701 -701 0 -47 92 -115 204 -150 112 -36 319 -240 461 -454 142 -214 349 -418 462 -454 205 -65 1273 -1113 1273 -1249 0 -40 195 -187 433 -327 438 -256 998 -813 1334 -1327 150 -229 185 -501 195 -1509 10 -955 -16 -1229 -119 -1229 -72 0 -161 48 -197 107 -107 172 -76 780 55 1096 186 447 42 955 -407 1442 -217 235 -394 520 -394 633 0 311 -105 522 -261 522 -161 0 -186 -159 -39 -250 55 -34 100 -153 100 -265 0 -200 268 -642 622 -1029 165 -180 232 -497 180 -854 -41 -281 -416 -702 -626 -702 l-211 0 218 231 c199 213 290 469 166 469 -88 0 -643 -644 -646 -750 -2 -55 -160 -322 -353 -593 -336 -473 -350 -481 -350 -207 0 156 59 355 131 442 72 87 214 350 316 584 160 370 168 482 61 850 -152 528 -448 1104 -589 1151 -59 20 -20 -145 87 -366 244 -504 243 -661 -4 -1008 -108 -152 -242 -395 -297 -540 -55 -145 -146 -263 -203 -263 -152 0 -122 509 50 838 140 269 132 324 -113 825 -144 295 -327 537 -405 537 -255 0 -1148 933 -1433 1498 -154 304 -374 638 -490 742 -130 118 -211 312 -211 506 0 174 -62 400 -137 504 -132 180 -149 175 -409 -105 -266 -287 -274 -289 -417 -95 -99 137 -167 163 -216 84 -108 -175 -639 -37 -696 180 -55 210 -419 252 -603 68 -90 -90 -159 -80 -296 45 -191 172 -838 356 -1446 411 -276 25 -381 -8 -410 -127 -28 -117 -68 -89 -148 104 -131 317 -322 460 -322 241 0 -200 -195 -201 -341 -2 -66 91 -286 162 -536 172 -280 11 -423 62 -423 152 0 82 -87 122 -224 103 -141 -19 -224 22 -225 111 -1 78 -57 160 -126 183 -69 23 -125 -7 -125 -67 0 -198 -176 -112 -235 115 -46 176 -85 197 -180 102 -95 -95 -155 -90 -278 26 -642 605 -1354 1000 -1982 1099 -709 113 -536 -175 300 -500 1001 -388 1305 -613 1246 -921 -28 -151 6 -265 92 -298 179 -69 588 -691 1087 -1656 387 -748 587 -988 479 -575 -31 120 -3 200 70 200 118 0 96 236 -59 641 -45 116 -1 159 162 159 246 0 1596 -1254 1597 -1484 1 -73 204 -646 451 -1271 248 -626 450 -1228 450 -1338 0 -110 88 -247 197 -305 108 -58 244 -273 302 -479 58 -205 170 -485 250 -623 136 -236 144 -213 147 425 4 707 123 862 323 422 86 -187 86 -282 3 -365 -83 -83 -79 -193 17 -422 109 -264 351 -1212 520 -2039 26 -126 87 -204 136 -174 97 60 251 -372 354 -997 37 -220 223 -872 414 -1450 191 -577 418 -1320 503 -1650 85 -330 206 -791 267 -1025 62 -234 165 -425 230 -425 81 0 42 275 -125 875 -682 2449 -1456 5810 -1388 6024 45 143 18 201 -93 201 -91 0 -157 85 -157 203 0 112 -69 230 -153 262 -98 38 -131 128 -92 251 64 201 -356 1102 -855 1834 -150 220 -429 738 -619 1150 -299 648 -478 871 -1316 1639 -533 490 -951 908 -929 930 110 111 1191 -522 1769 -1036 761 -676 1255 -1279 1625 -1983 584 -1111 1349 -2723 1471 -3100 71 -220 195 -501 275 -624 84 -130 121 -326 86 -464 -75 -299 530 -2937 1011 -4412 379 -1162 400 -1211 474 -1136 26 25 -43 337 -153 691 -344 1112 -905 3520 -870 3737 18 116 179 -258 362 -842 181 -577 370 -1128 421 -1224 51 -95 93 -268 93 -383 0 -116 87 -533 194 -927 107 -394 248 -930 313 -1191 65 -261 153 -475 193 -475 158 0 182 586 40 996 -81 236 -132 446 -112 465 71 71 872 -1107 872 -1282 0 -148 86 -179 500 -179 275 0 500 30 500 66 0 36 -259 401 -575 811 -316 410 -710 937 -875 1171 -165 234 -439 623 -609 864 -170 241 -357 573 -415 738 -58 165 -138 379 -177 476 -136 336 244 70 564 -394 168 -244 531 -678 808 -963 554 -572 1281 -1498 1520 -1937 253 -462 635 -832 861 -832 l213 0 -208 263 c-303 387 -260 486 273 622 263 68 657 237 875 377 217 139 305 221 195 182 -110 -39 -530 -186 -933 -327 l-732 -256 -318 347 c-894 977 -1147 1492 -734 1492 77 0 247 81 379 180 131 98 441 266 688 373 527 227 2121 1151 2215 1284 139 198 361 -45 573 -627 206 -564 245 -610 527 -610 327 0 487 138 1483 1277 636 728 1053 1025 1762 1260 281 93 596 239 700 324 185 151 185 154 -10 85 -110 -39 -335 -117 -500 -173 -775 -265 -915 -334 -1330 -651 -318 -243 -474 -308 -552 -230 -189 189 -265 117 -203 -192 72 -358 -33 -398 -160 -62 -64 168 -201 259 -473 312 l-382 75 900 449 c495 247 788 421 650 386 -137 -34 -351 -89 -475 -122 -374 -99 -257 142 175 362 547 279 502 320 -100 91 -492 -187 -500 -187 -500 1 0 105 56 218 125 250 69 33 9 37 -134 11 -517 -97 -1691 -180 -1691 -120 0 34 139 134 309 221 216 112 622 165 1357 178 936 16 1065 -3 1192 -176 78 -107 142 -141 142 -75 0 125 565 165 842 58 171 -65 218 -239 65 -239 -52 0 -216 -46 -364 -103 -444 -168 -222 -201 254 -37 498 172 1104 244 1253 150 55 -35 573 -39 1150 -10 993 52 1030 86 272 246 -152 33 -512 165 -800 295 -287 130 -949 316 -1472 413 -522 97 -995 211 -1050 252 -55 42 -280 108 -500 148 -220 39 -467 127 -550 196 -82 69 -319 179 -525 245 -206 66 -375 162 -375 213 0 50 -71 92 -158 92 -259 0 -690 519 -829 1000 -252 868 -802 1700 -1123 1700 -72 0 27 -169 220 -375 376 -402 509 -646 696 -1275 192 -646 351 -876 759 -1094 211 -113 407 -235 434 -270 28 -35 220 -134 426 -220 206 -86 375 -226 375 -311 0 -245 -1014 -216 -1242 36 -95 105 -305 245 -466 312 -238 99 -325 229 -456 682 -215 738 -1598 2515 -1958 2515 -192 0 -378 206 -378 419 0 98 -142 449 -316 780 -173 332 -287 631 -253 665 131 131 554 -269 620 -586 98 -467 581 -1190 1042 -1561 622 -499 666 -370 72 208 -560 546 -810 931 -911 1403 -32 152 -144 348 -247 434 -573 479 -1406 1400 -1493 1651 -20 57 -234 188 -475 292 -241 103 -445 246 -453 316 -8 71 -27 264 -42 429 -41 449 -592 1602 -853 1785 -354 248 -379 78 -31 -220 367 -315 540 -769 540 -1422 0 -560 73 -793 248 -793 70 0 184 -68 252 -150 68 -82 205 -150 304 -150 98 0 363 -231 587 -513 574 -721 551 -896 -57 -432 -184 140 -334 209 -334 153 0 -56 247 -288 550 -517 302 -228 550 -466 550 -529 0 -62 116 -331 257 -597 142 -266 236 -505 210 -531 -63 -63 -432 338 -684 744 -111 180 -347 388 -524 462 -176 73 -453 282 -615 464 -162 181 -643 671 -1070 1088 -613 599 -778 821 -785 1058 -9 289 -12 291 -78 50 -39 -137 -102 -239 -141 -225 -38 14 -142 25 -230 25 -179 0 -461 283 -1443 1450 -371 440 -878 1011 -1127 1268 -395 408 -463 543 -525 1036 -116 927 -6 1756 302 2281 222 380 265 560 237 990 -31 477 -14 528 185 556 183 26 231 -31 291 -347 40 -213 17 -637 -51 -967 -67 -324 -102 -607 -79 -630 85 -86 385 1389 328 1615 -66 264 119 446 246 242 198 -322 206 -814 17 -1177 -164 -317 -179 -463 -103 -1067 142 -1130 291 -1893 390 -1995 125 -129 120 106 -7 344 -55 102 -138 673 -186 1268 -69 864 -57 1147 56 1398 87 192 130 543 111 900 -29 528 -13 585 168 585 168 0 211 -92 274 -598 41 -328 94 -643 117 -700 46 -109 94 745 63 1123 -10 124 21 225 69 225 169 0 327 -674 329 -1407 2 -517 61 -873 195 -1168 247 -543 338 -551 149 -12 -80 226 -147 733 -148 1125 -2 391 -48 909 -104 1150 -55 241 -75 465 -43 497 147 146 412 -204 545 -719 131 -509 305 -762 303 -441 0 198 -198 903 -322 1152 -83 167 -83 257 -2 338 82 82 166 23 316 -224 223 -366 360 -934 505 -2091 91 -718 93 -703 53 359 -32 821 -95 1233 -246 1583 -112 261 -203 511 -203 556 0 166 340 205 489 56 138 -139 132 -154 -68 -154 -276 0 -290 -165 -21 -250 110 -35 240 -139 289 -232 201 -383 511 -1759 511 -2269 0 -302 45 -549 100 -549 124 0 130 1027 9 1500 -211 825 -217 900 -68 900 193 0 263 -250 314 -1123 24 -400 128 -1109 231 -1577 121 -544 154 -893 94 -969 -112 -141 72 -541 233 -505 58 13 145 -77 193 -201 54 -138 50 -225 -9 -225 -53 0 -97 -72 -97 -161 0 -107 54 -140 163 -98 96 37 217 -9 297 -114 74 -97 -20 206 -211 673 -190 468 -347 985 -348 1150 -2 165 -65 503 -140 750 -75 248 -166 788 -204 1200 -37 413 -91 874 -120 1025 -84 438 151 327 373 -175 158 -355 180 -521 106 -790 -121 -436 19 -1199 270 -1468 202 -217 314 -616 314 -1121 0 -297 871 -1934 974 -1830 27 27 -121 355 -330 729 -268 480 -399 858 -447 1285 -37 333 -139 738 -227 900 -325 600 -364 760 -402 1634 -29 679 -9 882 85 846 143 -55 244 -579 246 -1275 1 -390 71 -595 347 -1011 283 -426 336 -584 290 -868 -59 -362 146 -868 558 -1381 298 -370 249 -149 -104 468 -257 449 -299 605 -241 912 38 203 111 395 162 427 54 33 24 357 -72 782 -174 772 -115 1000 226 869 142 -54 151 -86 45 -152 -191 -118 -140 -404 496 -2821 113 -429 934 -1385 1188 -1385 177 0 1806 -1623 1806 -1799 0 -52 191 -315 425 -585 234 -270 619 -722 856 -1003 236 -282 512 -513 613 -513 217 0 643 -533 912 -1141 190 -429 1533 -1764 2209 -2196 409 -262 272 -329 -239 -118 -234 97 -527 216 -651 264 -124 48 -225 133 -225 189 0 56 -73 102 -162 102 -552 0 973 -720 2088 -986 262 -63 690 -108 950 -101 l474 13 -550 83 c-844 126 -1252 247 -1229 364 12 58 -107 159 -264 224 -357 148 -1919 1737 -2150 2187 -205 399 -144 520 111 221 321 -378 1569 -1282 1982 -1437 538 -202 1077 -292 999 -166 -33 54 -159 99 -280 101 -481 6 -1527 713 -2651 1793 -312 300 -607 534 -656 520 -118 -33 -469 292 -413 383 25 39 -72 180 -214 311 -143 132 -531 600 -863 1040 -775 1025 -2331 2700 -2732 2940 -262 157 -318 262 -369 690 -33 278 -101 587 -151 687 -50 101 -165 325 -256 498 -176 340 -209 535 -89 534 89 -1 231 -278 691 -1349 249 -580 465 -910 787 -1200 244 -220 819 -737 1277 -1150 458 -412 934 -934 1057 -1159 208 -381 1711 -1863 2302 -2271 304 -210 1866 -970 1993 -970 48 0 168 -90 268 -200 100 -110 231 -200 292 -200 61 0 279 -90 484 -200 205 -110 430 -198 499 -196 69 2 -128 126 -437 275 -308 149 -623 323 -700 386 -76 63 -430 258 -788 434 -357 175 -801 393 -985 485 -344 171 -1408 1047 -1538 1267 -40 68 369 -93 908 -358 538 -264 1381 -620 1872 -790 491 -170 1060 -420 1265 -556 206 -136 399 -247 429 -247 30 0 43 551 27 1224 -26 1133 -43 1226 -228 1261 -192 37 -345 185 -348 338 -1 39 133 45 298 12 274 -55 300 -37 300 210 0 148 -67 337 -150 419 -82 83 -150 213 -150 290 0 83 61 116 150 82 124 -47 150 59 150 617 l0 675 -1909 -50 -1909 -50 -705 711 c-747 753 -1276 1642 -1264 2124 7 278 13 2930 7 3437 -3 344 136 481 431 424 236 -45 249 -24 249 414 0 254 43 462 95 462 125 0 606 -707 954 -1400 152 -302 462 -756 688 -1007 227 -252 489 -553 582 -670 207 -259 840 -397 1096 -237 100 63 520 114 934 114 l751 0 0 342 c0 188 -35 356 -79 375 -43 18 -181 179 -306 358 -126 179 -293 325 -372 325 -79 0 -143 45 -143 100 0 142 318 118 525 -39 96 -73 176 -196 177 -272 0 -76 48 -206 106 -289 74 -106 93 443 67 1866 -37 2002 -39 2020 -311 2430 -150 228 -339 439 -418 469 -80 31 -120 96 -90 145 99 160 348 96 599 -155 l245 -246 0 623 c0 545 -38 668 -301 988 -166 201 -459 417 -651 481 -192 63 -324 156 -293 207 104 168 391 90 795 -217 l400 -304 33 271 c18 149 -27 308 -100 355 -100 63 -102 84 -8 85 76 1 125 140 125 356 0 322 -18 344 -200 246 -176 -94 -200 -76 -200 153 0 215 35 249 200 197 158 -50 200 -18 200 156 0 177 -27 196 -141 101 -108 -89 -159 -88 -217 6 -47 75 8 179 141 267 217 144 299 420 125 420 -150 0 -708 -507 -708 -643 0 -129 -311 -457 -433 -457 -37 0 -67 90 -67 200 0 236 -185 258 -456 53 -256 -193 -408 -190 -486 11 -91 237 230 570 407 423 184 -152 392 30 537 469 96 290 546 744 738 744 164 0 19 -304 -337 -704 -219 -245 -399 -480 -400 -521 -6 -151 271 -69 456 135 105 116 319 277 475 358 205 106 271 201 235 339 -28 106 -9 218 40 249 50 31 91 168 91 306 0 149 -42 224 -105 185 -57 -36 -167 -41 -242 -12 -111 42 -116 124 -29 409 131 426 247 457 304 81 23 -151 49 121 57 606 l15 880 -222 -155 c-303 -212 -578 -199 -578 27 0 244 105 337 246 220 63 -52 213 -69 334 -37 217 56 220 85 220 1935 0 2133 106 1904 -950 2057 -275 40 -668 184 -874 320 -303 201 -450 236 -769 185 -416 -67 -594 40 -374 223 208 173 676 163 1240 -25 287 -97 573 -144 634 -106 129 79 542 -107 868 -393 l225 -197 0 1497 0 1497 -623 520 c-343 287 -723 521 -844 521 -281 0 -373 143 -190 295 231 191 886 -45 1297 -468 l360 -371 0 922 c0 507 -38 922 -85 922 -46 0 -188 90 -315 200 -127 110 -310 200 -407 200 -290 0 -493 112 -493 272 0 229 898 78 1125 -189 169 -199 175 -181 175 556 0 445 -42 761 -101 761 -55 0 -365 236 -688 525 -982 878 -1388 1175 -1604 1175 -117 0 -207 65 -207 150 0 327 579 102 1308 -507 243 -204 555 -410 693 -458 138 -48 318 -234 400 -412 l149 -323 32 389 c26 320 -18 437 -250 657 -155 148 -513 513 -795 811 -283 299 -698 656 -923 793 -225 138 -410 306 -411 375 -4 161 21 158 443 -43 193 -92 378 -250 410 -350 31 -100 106 -182 165 -182 59 0 394 -298 743 -661 l636 -661 0 1262 c0 831 -43 1335 -125 1474 -100 170 -100 221 0 257 89 33 125 337 125 1050 l0 1005 -875 -69 c-1162 -90 -4310 -84 -6725 14 -1072 43 -4470 76 -7550 72 -4730 -6 -5727 -32 -6420 -169 -450 -88 -919 -215 -1042 -280 -186 -100 -244 -90 -355 62 -73 100 -133 241 -133 313 0 72 -72 131 -161 131 -102 0 -139 -55 -102 -151z m5333 -298 c91 -192 145 -369 121 -394 -59 -59 -1208 320 -1324 436 -177 177 54 307 541 307 467 0 505 -20 662 -349z m-2970 -104 c0 -29 -70 -221 -156 -425 -148 -354 -146 -379 50 -509 230 -153 277 -413 76 -413 -71 0 -184 54 -250 120 -76 76 -155 85 -214 25 -163 -165 -906 -1712 -906 -1887 0 -232 -1443 -2158 -1617 -2158 -163 0 -79 495 100 591 369 198 1910 2767 1915 3194 3 180 475 1118 675 1340 152 168 327 233 327 122z m1481 -343 c121 -163 219 -342 219 -398 0 -182 -319 -906 -399 -906 -285 0 -582 1062 -394 1412 142 267 322 233 574 -108z m1264 -538 c145 -106 169 -209 115 -496 -99 -530 -225 -535 -460 -20 -275 604 -111 849 345 516z m-4245 -766 c0 -55 -67 -100 -150 -100 -82 0 -150 45 -150 100 0 55 68 100 150 100 83 0 150 -45 150 -100z m1100 -600 c0 -55 -45 -100 -100 -100 -55 0 -100 45 -100 100 0 55 45 100 100 100 55 0 100 -45 100 -100z m280 -988 c-30 -464 -200 -636 -259 -262 -17 110 -83 304 -147 432 -90 182 -86 249 22 315 277 172 415 -3 384 -485z m-843 -765 c49 -415 25 -631 -98 -869 -155 -300 -171 -306 -301 -128 -166 226 -179 803 -28 1235 171 491 354 389 427 -238z m12073 182 c-96 -165 -104 -163 -107 29 -3 232 124 412 177 252 19 -56 -13 -183 -70 -281z m595 -510 c-74 -276 -175 -414 -331 -456 -499 -134 -594 -12 -348 451 253 476 283 503 429 382 109 -90 152 -56 213 170 68 251 81 259 110 67 19 -120 -14 -396 -73 -614z m295 -659 c0 -602 -227 -1452 -420 -1575 -207 -131 -265 -99 -209 115 29 110 86 200 128 200 126 0 339 912 331 1419 -4 263 33 454 82 424 48 -30 88 -292 88 -583z m-449 -492 c-85 -202 -174 -368 -200 -368 -79 0 72 643 184 786 173 219 182 -20 16 -418z m615 7 c-28 -69 -50 -12 -50 125 0 138 22 194 50 125 28 -69 28 -181 0 -250z m-1710 -1333 c-297 -217 -439 -162 -167 64 132 109 267 172 300 138 33 -33 -27 -124 -133 -202z m544 64 c0 -52 -45 -122 -100 -156 -55 -34 -100 8 -100 94 0 86 45 156 100 156 55 0 100 -42 100 -94z m932 -172 c37 -36 19 -122 -38 -191 -65 -78 -68 -147 -8 -184 138 -86 18 -454 -130 -398 -68 27 -182 -21 -252 -106 -71 -85 -190 -155 -266 -155 -76 0 -138 -67 -138 -150 0 -82 -50 -150 -112 -150 -68 0 -86 87 -46 225 36 124 92 371 125 550 40 220 116 325 234 325 96 0 231 68 299 150 135 163 230 187 332 84z m-1968 -707 c-83 -160 -222 -351 -310 -423 -137 -114 -149 -107 -90 57 97 268 449 759 504 704 26 -26 -21 -178 -104 -338z m936 334 c0 -22 -70 -66 -155 -99 -89 -34 -129 -18 -94 39 58 95 249 141 249 60z m-10800 -616 c0 -418 -58 -641 -234 -900 -128 -189 -263 -314 -300 -278 -36 37 -66 323 -66 636 0 425 53 637 207 834 307 389 393 325 393 -292z m-1690 27 c447 -342 686 -1349 437 -1847 -89 -179 -195 -325 -236 -325 -104 0 -500 1254 -575 1825 -67 505 38 603 374 347z m9086 -97 c-5 -135 -691 -613 -769 -536 -81 82 83 270 409 469 373 227 365 226 360 67z m554 -175 c-34 -55 -129 -100 -212 -100 -82 0 -122 45 -88 100 34 55 129 100 212 100 82 0 122 -45 88 -100z m1562 -327 c-98 -98 -110 -86 -56 56 38 99 94 154 125 124 30 -31 0 -112 -69 -180z m-3076 -223 c-31 -82 -126 -150 -209 -150 -123 0 -128 28 -27 150 68 83 163 150 209 150 47 0 59 -67 27 -150z m5500 1 c-31 -83 -142 -317 -246 -522 -105 -204 -190 -437 -190 -517 0 -80 -27 -118 -60 -85 -74 74 133 744 323 1048 161 256 259 299 173 76z m-2890 -492 c-93 -143 -212 -259 -264 -259 -53 0 2 138 122 306 260 365 386 324 142 -47z m-11575 -571 c177 -296 323 -617 325 -713 4 -191 155 -235 254 -75 112 182 224 104 285 -198 47 -236 5 -353 -201 -559 -204 -204 -280 -232 -346 -127 -47 74 -86 185 -86 248 -1 63 -66 139 -145 169 -204 79 -857 1449 -857 1798 0 282 9 288 225 144 124 -82 369 -391 546 -687z m11217 589 c-163 -304 -384 -514 -460 -438 -54 54 446 661 544 661 19 0 -19 -100 -84 -223z m-2405 -78 c102 0 53 -60 -125 -153 -183 -95 -327 -117 -386 -58 -133 133 17 337 196 269 82 -31 223 -57 315 -58z m-5943 -566 c-38 -202 -220 -694 -404 -1093 -185 -400 -336 -820 -336 -933 0 -114 -61 -207 -136 -207 -104 0 -131 171 -115 725 23 801 350 1732 636 1808 394 105 426 77 355 -300z m-915 -75 c14 -50 -31 -110 -100 -133 -69 -23 -125 33 -125 125 0 169 179 176 225 8z m3564 -614 c-131 -70 -261 -105 -289 -78 -82 82 321 333 428 267 55 -34 -8 -119 -139 -189z m5611 -144 c0 -55 -48 -100 -106 -100 -58 0 -78 45 -44 100 34 55 82 100 106 100 24 0 44 -45 44 -100z m-9766 -297 c33 -163 89 -582 125 -931 53 -521 35 -664 -104 -803 -93 -93 -205 -169 -249 -169 -143 0 -200 717 -96 1205 57 263 95 538 85 611 -63 456 150 533 239 87z m12626 -76 c-101 -102 -185 51 -102 186 63 102 87 102 121 1 23 -70 15 -154 -19 -187z m-60 -231 c0 -230 -213 -596 -348 -596 -188 0 -196 151 -17 318 74 69 114 207 88 306 -35 133 -5 163 115 117 89 -34 162 -100 162 -145z m-14198 -599 c139 -148 341 -297 450 -332 206 -65 588 -928 449 -1014 -72 -45 -682 450 -1373 1114 -180 173 -328 388 -328 477 0 239 488 90 802 -245z m5548 -97 c-34 -55 -107 -100 -162 -100 -55 0 -72 45 -38 100 34 55 107 100 162 100 55 0 72 -45 38 -100z m3350 -143 c0 -102 -327 -357 -457 -357 -217 0 -171 156 82 278 246 118 375 146 375 79z m4611 -484 c-251 -391 -267 -328 -47 190 91 213 185 330 209 260 25 -69 -49 -272 -162 -450z m-9067 -64 c54 -87 -742 -409 -1012 -409 -281 0 -110 157 344 315 586 204 599 206 668 94z m656 -9 c0 -55 -48 -100 -106 -100 -58 0 -78 45 -44 100 34 55 82 100 106 100 24 0 44 -45 44 -100z m-5506 -246 c183 -135 414 -378 512 -540 171 -281 171 -304 6 -453 -161 -146 -202 -129 -530 216 -323 338 -590 1023 -399 1023 43 0 228 -110 411 -246z m8256 146 c-34 -55 -115 -99 -181 -98 -71 0 -59 40 31 98 192 124 227 124 150 0z m5307 -486 c-84 -84 -180 -124 -215 -90 -95 96 30 243 208 243 143 0 144 -16 7 -153z m-10457 -214 c0 -55 -79 -99 -175 -98 -150 1 -153 15 -25 98 189 122 200 122 200 0z m9377 -661 c-66 -144 -137 -210 -158 -147 -21 63 17 181 84 261 181 219 207 179 74 -114z m10223 -3633 c0 -312 -142 -481 -253 -302 -87 142 30 596 155 596 54 0 98 -132 98 -294z m600 -106 c-110 -110 -218 -200 -241 -200 -22 0 -17 90 12 200 29 111 136 200 241 200 180 0 180 -8 -12 -200z m-1945 -309 c37 -60 17 -159 -44 -220 -61 -61 -111 -192 -111 -291 0 -99 -51 -180 -112 -180 -73 0 -91 111 -50 313 34 171 62 351 62 400 0 123 175 108 255 -22z m1980 -507 c11 -74 53 -186 92 -249 40 -63 5 -140 -78 -171 -90 -35 -149 0 -149 89 0 81 -45 147 -101 147 -60 0 -52 78 21 195 130 208 183 206 215 -11z m-2681 -309 c53 -214 32 -275 -93 -275 -119 0 -161 97 -161 370 0 410 142 357 254 -95z m1996 125 c-34 -55 -82 -100 -106 -100 -24 0 -44 45 -44 100 0 55 48 100 106 100 58 0 78 -45 44 -100z m-470 -222 c19 -98 -87 -196 -291 -267 -420 -146 -479 -69 -187 241 252 269 429 278 478 26z m820 -178 c0 -55 -45 -100 -100 -100 -55 0 -100 45 -100 100 0 55 45 100 100 100 55 0 100 -45 100 -100z m-9841 -349 c-36 -143 -107 -233 -158 -202 -56 35 -49 156 19 305 140 307 226 243 139 -103z m7842 24 c1 -69 29 -226 62 -350 44 -163 17 -225 -95 -225 -216 0 -298 167 -226 456 64 252 257 341 259 119z m-8461 -508 c-155 -457 -268 -564 -388 -371 -58 94 441 944 512 873 20 -19 -36 -245 -124 -502z m9360 298 c0 -33 -308 -685 -351 -742 -40 -54 -349 100 -349 173 0 118 479 604 595 604 58 0 105 -16 105 -35z m360 -438 c-33 -33 -56 26 -52 131 5 117 28 141 60 61 29 -72 26 -159 -8 -192z m-660 -806 c0 -116 -337 -421 -465 -421 -162 0 -179 316 -27 468 105 105 492 67 492 -47z m800 -521 c0 -55 -67 -100 -150 -100 -82 0 -150 45 -150 100 0 55 68 100 150 100 83 0 150 -45 150 -100z m700 -85 c0 -46 -90 -165 -200 -265 -159 -144 -200 -151 -200 -35 0 156 190 385 320 385 44 0 80 -38 80 -85z m-6731 -691 c-25 -96 -45 6 -44 226 1 220 22 298 46 174 24 -125 23 -305 -2 -400z m2670 118 c108 -281 65 -542 -89 -542 -105 0 -150 106 -150 350 0 362 133 469 239 192z m-5941 -117 c-1 -215 -166 -490 -245 -411 -64 64 110 586 195 586 28 0 51 -79 50 -175z m5502 -31 c0 -52 -45 -94 -100 -94 -55 0 -100 70 -100 156 0 86 45 128 100 94 55 -34 100 -104 100 -156z m869 -1058 c39 -100 -7 -217 -117 -297 -231 -169 -352 -94 -352 217 0 179 54 244 203 244 112 0 232 -74 266 -164z m3171 -596 c197 -197 451 -567 563 -821 113 -254 266 -531 340 -615 155 -176 319 -1206 191 -1201 -188 7 -425 277 -485 553 -84 385 -244 724 -514 1094 -121 165 -251 426 -289 581 -39 154 -178 351 -308 436 -287 188 -307 333 -48 333 105 0 352 -162 550 -360z m-3840 -732 c0 -215 -49 -408 -110 -428 -78 -26 -80 -151 -8 -433 166 -645 231 -1727 109 -1803 -229 -141 -319 187 -403 1465 -87 1347 -45 1591 274 1591 94 0 138 -126 138 -392z m3082 34 c230 -197 418 -425 418 -507 0 -129 -21 -128 -157 8 -87 86 -225 157 -309 157 -110 0 -68 -114 157 -420 170 -231 309 -524 309 -653 0 -128 69 -260 153 -292 85 -33 290 -256 455 -497 171 -248 381 -438 485 -438 182 0 492 -548 376 -665 -72 -72 -723 318 -1101 660 -268 243 -1085 1538 -1346 2135 -163 374 -158 870 10 870 73 0 320 -161 550 -358z m-3630 -1185 c39 -463 41 -1037 6 -1275 -35 -237 -71 -1463 -78 -2722 -10 -1521 -45 -2210 -107 -2050 -50 132 -87 504 -82 827 6 323 -33 863 -87 1200 -82 520 -190 2471 -201 3649 -2 253 -39 322 -150 279 -229 -88 -291 127 -98 341 134 147 207 167 310 81 103 -85 135 -75 135 45 0 86 -46 184 -102 219 -146 90 -19 249 199 249 160 0 195 -115 255 -843z m-15386 318 c-28 -69 -50 -12 -50 125 0 138 22 194 50 125 28 -69 28 -181 0 -250z m267 -994 c-116 -128 -138 -270 -85 -552 127 -665 210 -2332 115 -2300 -49 16 -223 215 -387 441 -265 366 -301 504 -332 1270 -20 473 5 860 54 860 153 0 189 -139 211 -806 12 -354 59 -734 106 -844 90 -210 36 1073 -75 1800 -51 328 -38 377 69 275 210 -201 249 -150 208 275 -61 639 99 847 194 252 62 -393 46 -534 -78 -671z m19655 756 c66 -145 92 -291 58 -325 -77 -77 -346 279 -346 457 0 220 161 146 288 -132z m-5534 -299 c290 -190 325 -536 61 -605 -102 -27 -248 -189 -325 -360 -235 -522 -395 -456 -230 95 80 263 138 547 131 631 -40 441 7 473 363 239z m3959 -900 c276 -46 352 -100 318 -229 -27 -104 46 -217 192 -295 130 -69 288 -209 352 -311 104 -166 54 -161 -505 56 -341 133 -682 331 -757 441 -76 110 -225 200 -331 200 -107 0 -166 45 -132 100 70 113 335 125 863 38z m234 -1076 c452 -150 1153 -686 1153 -882 0 -130 -327 -91 -649 77 -165 86 -455 189 -646 228 -267 56 -408 174 -618 519 -362 595 -367 808 -12 478 151 -141 498 -330 772 -420z m-4798 -464 c-91 -274 -184 -498 -208 -498 -87 0 90 1155 198 1292 190 241 196 -235 10 -794z m5851 252 c68 -82 102 -150 74 -150 -27 0 -106 68 -174 150 -68 83 -102 150 -74 150 27 0 106 -67 174 -150z m-5412 -475 c-22 -966 -163 -1207 -176 -300 -7 491 28 825 88 825 55 0 95 -234 88 -525z m6487 -362 c164 -199 158 -313 -16 -313 -149 0 -659 549 -659 710 0 112 495 -179 675 -397z m-10907 -498 c63 -102 145 -406 182 -675 36 -270 112 -639 168 -822 148 -483 60 -474 -296 30 -321 456 -365 622 -338 1277 18 413 107 473 284 190z m-10456 -1138 c92 -171 81 -180 -97 -85 -110 59 -288 220 -397 357 -108 138 -247 251 -307 251 -156 0 -138 -104 54 -317 203 -224 60 -240 -243 -27 -259 181 -288 397 -65 483 110 42 136 127 87 286 -49 160 65 85 398 -266 257 -269 514 -577 570 -682z m-1912 629 c0 -52 -45 -122 -100 -156 -55 -34 -100 8 -100 94 0 86 45 156 100 156 55 0 100 -42 100 -94z m13266 -531 c-28 -69 -50 -12 -50 125 0 138 22 194 50 125 28 -69 28 -181 0 -250z m-12539 -115 c100 -76 151 -202 117 -289 -32 -85 17 -271 110 -413 173 -264 133 -338 -83 -156 -649 545 -679 588 -549 795 147 237 170 240 405 63z m12916 -622 c287 -627 300 -676 157 -588 -112 69 -500 880 -500 1045 0 213 92 91 343 -457z m-11943 312 c68 -82 200 -150 292 -150 177 0 408 -183 408 -322 0 -45 -108 -55 -239 -22 -132 33 -269 12 -306 -48 -107 -173 -214 -127 -339 147 -214 470 -94 729 184 395z m-1400 -412 c0 -82 -45 -122 -100 -88 -55 34 -100 129 -100 212 0 82 45 122 100 88 55 -34 100 -129 100 -212z m14450 62 c-34 -55 -107 -100 -162 -100 -55 0 -72 45 -38 100 34 55 107 100 162 100 55 0 72 -45 38 -100z m-12278 -825 c557 -379 653 -490 530 -613 -94 -94 -1102 682 -1102 847 0 139 58 116 572 -234z m11624 -700 c2 -96 -39 -175 -92 -175 -120 0 -255 255 -345 650 l-68 300 251 -300 c138 -165 252 -379 254 -475z m2240 161 c90 -656 79 -1436 -20 -1436 -46 0 -143 248 -216 550 -73 303 -167 550 -209 550 -42 0 -35 -146 16 -324 115 -400 116 -476 9 -476 -123 0 -315 468 -320 780 l-3 270 -140 -250 -140 -250 -156 372 c-152 360 -197 578 -119 578 21 0 201 -68 400 -151 340 -142 372 -139 534 50 248 289 293 256 364 -263z m4918 -2543 c117 -188 -28 -213 -320 -55 l-284 154 269 4 c148 2 299 -44 335 -103z m-1580 -118 c153 -194 244 -675 128 -675 -56 0 -102 17 -102 38 0 21 -68 201 -151 400 -147 352 -74 490 125 237z m826 -524 c0 -68 98 -248 217 -400 l218 -277 -213 114 c-272 146 -522 503 -522 746 0 158 26 169 150 66 83 -68 150 -180 150 -249z m-2700 -1210 c407 -571 463 -680 323 -628 -129 47 -1423 1780 -1423 1906 0 115 627 -614 1100 -1278z m3457 1248 c38 -61 8 -149 -67 -195 -126 -78 -285 48 -288 231 -3 117 278 88 355 -36z m893 11 c34 -55 17 -100 -38 -100 -55 0 -128 45 -162 100 -34 55 -17 100 38 100 55 0 128 -45 162 -100z m-227 -408 c276 -175 288 -197 77 -139 -137 38 -316 131 -396 208 -215 204 -57 170 319 -69z m-20 -434 c294 -127 311 -151 112 -154 -260 -4 -815 348 -815 518 0 60 80 37 178 -52 98 -89 334 -229 525 -312z m1196 -594 c323 -277 399 -386 338 -484 -97 -158 -1037 518 -1037 745 0 135 420 -22 699 -261z m-21202 -1014 c0 -55 -44 -32 -97 50 -53 82 -97 195 -97 250 0 55 44 32 97 -50 53 -82 97 -195 97 -250z m3053 150 c36 -58 -57 -99 -219 -98 -218 1 -247 23 -131 98 192 124 273 124 350 0z m669 -168 c-72 -29 -159 -26 -192 8 -33 33 26 56 131 52 117 -5 141 -28 61 -60z m-919 -388 c0 -24 -45 -44 -100 -44 -55 0 -100 48 -100 106 0 58 45 78 100 44 55 -34 100 -82 100 -106z m-2500 -200 c0 -86 -45 -128 -100 -94 -55 34 -100 104 -100 156 0 52 45 94 100 94 55 0 100 -70 100 -156z m3718 -401 c342 -630 937 -1318 1046 -1210 46 45 10 124 -81 175 -92 51 -274 284 -405 517 -131 234 -320 549 -420 700 -178 270 -178 275 30 275 130 0 212 -64 212 -164 0 -191 1060 -1536 1210 -1536 115 0 43 137 -244 468 -108 124 -310 415 -448 648 l-252 422 292 -210 c360 -260 820 -751 1197 -1278 157 -220 595 -749 974 -1175 571 -644 651 -775 473 -775 -117 0 -189 -40 -159 -88 65 -105 595 -225 982 -222 237 2 275 -38 275 -287 0 -189 -61 -307 -175 -341 -483 -142 -963 -177 -1158 -84 -119 56 -487 198 -818 315 -605 215 -1491 910 -1258 987 66 22 197 -26 290 -108 451 -396 2167 -993 1979 -688 -40 64 -172 116 -294 116 -255 0 -1449 581 -1966 956 -192 140 -429 438 -526 662 l-177 407 631 -587 c641 -598 1583 -1184 1792 -1115 63 21 -152 187 -478 368 -579 321 -2242 1850 -2242 2061 0 58 -197 300 -438 536 -309 303 -423 488 -387 625 76 294 245 178 543 -370z m1578 138 c112 -120 204 -254 204 -297 0 -43 70 -51 155 -18 228 87 645 -349 645 -674 0 -247 743 -1383 1014 -1551 208 -128 210 70 3 291 -230 245 -274 421 -128 511 49 31 185 -147 301 -394 116 -247 249 -449 294 -449 46 0 134 -111 196 -246 169 -372 -31 -415 -479 -105 -364 253 -1499 1620 -1503 1812 -1 49 -207 292 -458 539 -251 248 -499 529 -552 625 -137 251 59 223 308 -44z m1004 -142 c0 -21 -67 -39 -150 -39 -82 0 -150 44 -150 97 0 53 68 71 150 39 83 -31 150 -75 150 -97z m-3519 -1545 c71 -114 100 -297 65 -408 -78 -243 -97 -227 -294 244 -119 285 -126 370 -27 370 70 0 185 -93 256 -206z m779 -1514 c205 -404 226 -520 127 -705 l-119 -221 -101 248 c-57 136 -184 437 -285 668 -395 908 -81 917 378 10z m4902 145 c36 -151 127 -396 202 -544 74 -148 96 -294 48 -324 -48 -29 -144 149 -213 397 -70 248 -165 475 -213 504 -117 73 -109 242 12 242 54 0 128 -124 164 -275z m4547 -828 c37 -268 129 -478 240 -542 99 -58 297 -206 440 -330 215 -186 226 -216 61 -167 -198 58 -198 56 -5 -100 226 -184 1276 -158 1837 46 272 99 397 93 700 -34 202 -85 661 -206 1018 -269 980 -172 1400 -297 1400 -417 0 -71 -210 -88 -625 -51 -344 31 -962 83 -1375 116 -412 33 -909 107 -1103 164 -229 68 -528 72 -858 12 -297 -54 -605 -55 -746 -3 -155 58 -252 52 -275 -17 -52 -156 -738 -121 -962 48 -232 175 -105 189 334 35 528 -183 467 -20 -98 266 -448 227 -502 283 -353 366 127 71 224 54 351 -61 212 -192 310 -202 310 -33 0 69 -93 184 -207 255 -263 165 -521 772 -439 1032 102 322 291 154 355 -316z m-4113 -1137 c-47 -49 -434 -86 -859 -82 -466 5 -877 -45 -1033 -126 -200 -103 -305 -107 -462 -18 -297 169 -942 705 -942 783 0 37 416 44 925 15 509 -28 1115 -7 1346 47 323 75 464 66 600 -37 253 -192 327 -174 340 83 7 124 48 45 91 -175 44 -220 41 -440 -6 -490z m3817 615 c109 -204 104 -212 -47 -88 -91 76 -166 177 -166 225 0 153 89 96 213 -137z m-3456 -886 c37 -60 89 -274 116 -475 26 -200 94 -420 150 -489 155 -191 553 -149 785 83 302 302 760 443 943 291 185 -154 101 -299 -174 -299 -116 0 -295 -76 -398 -169 -115 -104 -415 -185 -783 -212 -384 -28 -596 -87 -596 -167 0 -173 -825 -255 -1849 -182 -540 38 -851 102 -851 175 0 73 130 100 355 73 435 -50 2145 270 2145 403 0 93 -317 69 -975 -75 -398 -87 -1629 282 -1885 565 -211 234 -85 245 560 52 644 -194 1434 -299 1362 -182 -33 53 -263 126 -511 164 -248 37 -451 110 -451 163 0 53 101 75 225 50 583 -119 1790 -163 1728 -63 -36 58 -242 105 -459 105 -475 0 -526 171 -69 228 179 22 379 47 444 56 66 9 150 -34 188 -95z m-1332 -55 c-69 -28 -181 -28 -250 0 -69 28 -12 50 125 50 138 0 194 -22 125 -50z m4745 -559 c113 -124 330 -427 483 -675 411 -665 1108 -1300 1429 -1302 572 -3 585 -202 54 -840 -275 -330 -340 -363 -525 -264 -248 133 -261 258 -66 631 137 264 133 275 -98 275 -178 0 -351 151 -662 575 -231 316 -618 808 -858 1092 -399 472 -422 526 -257 622 249 145 268 140 500 -114z m2182 -272 c-92 -149 -836 -322 -1067 -248 -394 125 -10 266 896 329 127 9 204 -28 171 -81z m-3107 -292 c-52 -49 -207 -121 -345 -160 -243 -70 -244 -67 -50 85 211 166 564 233 395 75z m3150 -55 c100 -120 49 -163 -300 -257 -566 -153 -781 30 -287 245 430 186 442 186 587 12z m-3952 -145 c30 -49 -103 -119 -296 -155 -425 -80 -718 51 -346 155 363 101 580 101 642 0z m1295 -234 c154 -245 -92 -462 -590 -520 -219 -26 -691 -91 -1048 -146 -2709 -410 -3148 -391 -3569 156 l-244 316 982 -15 c1365 -21 2888 98 3481 271 610 179 846 164 988 -62z m2462 -77 c0 -55 -79 -99 -175 -98 -150 1 -153 15 -25 98 189 122 200 122 200 0z m-2148 -798 c-101 -111 -232 -202 -292 -203 -61 0 -229 -63 -375 -139 -146 -76 -439 -194 -650 -262 -212 -68 -430 -158 -485 -200 -55 -42 -347 -143 -650 -223 -302 -80 -640 -184 -750 -229 -176 -74 -184 -64 -66 81 74 91 231 195 350 232 119 37 333 150 476 250 143 101 435 228 650 282 827 209 1657 538 1711 677 39 101 87 114 160 41 72 -72 48 -166 -79 -307z m-909 50 c-106 -80 -269 -147 -362 -149 -93 -2 -200 -52 -237 -113 -42 -68 -225 -86 -488 -46 -231 35 -529 16 -663 -42 -228 -99 -223 -103 82 -71 435 46 412 -105 -45 -296 -831 -347 -1420 -343 -1887 13 -196 150 -329 300 -295 333 33 34 385 72 781 86 397 13 901 71 1121 128 220 58 625 124 900 148 275 23 657 83 850 133 424 110 500 71 243 -124z m1301 -162 c-179 -290 -3390 -2090 -3728 -2090 -112 0 -516 391 -516 499 0 34 326 164 725 289 843 265 2544 938 3065 1213 414 219 551 246 454 89z m-5798 -183 c31 -51 16 -119 -34 -150 -50 -31 -117 11 -148 94 -63 162 88 208 182 56z m1554 -946 c0 -95 -299 -143 -353 -57 -32 53 34 96 147 96 113 0 206 -18 206 -39z m300 -117 c0 -24 -45 -44 -100 -44 -55 0 -100 48 -100 106 0 58 45 78 100 44 55 -34 100 -82 100 -106z"/>
<path d="M8713 10821 c57 -152 891 -821 1021 -820 64 1 -64 159 -284 352 -463 404 -790 613 -737 468z"/>
<path d="M12150 4400 c-171 -73 -156 -86 100 -86 165 0 390 39 500 86 171 73 156 86 -100 86 -165 0 -390 -39 -500 -86z"/>
<path d="M8823 48975 c-127 -157 -423 -1027 -423 -1246 0 -90 -62 -234 -138 -321 -104 -120 -119 -308 -60 -787 42 -346 57 -729 32 -850 -30 -147 2 -121 95 79 214 459 298 1024 159 1071 -177 59 103 1338 384 1752 125 185 228 356 228 381 0 93 -179 42 -277 -79z"/>
<path d="M17000 48900 c0 -61 -104 -78 -250 -41 -252 63 -351 -85 -143 -213 71 -44 57 -121 -43 -231 -126 -139 -128 -193 -14 -349 78 -105 114 -317 86 -500 -27 -174 44 -889 157 -1589 195 -1198 255 -1885 141 -1601 -103 255 -234 -2 -233 -457 1 -669 -577 -3946 -1067 -6049 -192 -824 -119 -987 114 -251 92 292 188 595 213 673 35 108 73 114 163 24 89 -89 169 20 340 459 l224 575 -19 -500 c-14 -373 17 -500 122 -500 253 0 474 561 454 1147 -20 577 208 1377 445 1563 77 60 113 155 78 210 -34 56 48 151 183 212 171 78 226 163 181 280 -54 139 -21 157 189 104 231 -58 259 -30 315 310 34 206 -8 1274 -92 2374 -118 1518 -211 2169 -388 2700 -128 385 -285 889 -347 1121 -126 461 -136 472 -534 567 -166 40 -275 25 -275 -38z m650 -802 c37 -215 30 -449 -14 -519 -54 -86 -102 -11 -144 221 -35 193 -100 485 -144 650 -72 267 -63 285 78 169 87 -72 188 -306 224 -521z m-450 -61 c0 -376 -29 -446 -175 -419 -212 41 -297 625 -120 837 186 225 295 71 295 -418z m844 -1487 c44 -189 35 -263 -24 -200 -52 55 -126 235 -164 400 -44 189 -35 263 24 200 52 -55 126 -235 164 -400z m-1075 -325 c-25 -96 -46 -17 -46 175 0 193 21 271 46 175 25 -96 25 -254 0 -350z m670 247 c86 -137 77 -199 -39 -273 -163 -103 -400 121 -400 377 0 188 302 116 439 -104z m161 -628 c0 -79 -45 -144 -100 -144 -55 0 -100 93 -100 206 0 113 45 178 100 144 55 -34 100 -127 100 -206z m485 -47 c30 -207 14 -221 -125 -105 -189 157 -215 443 -35 384 69 -23 141 -148 160 -279z m-935 -1283 c9 -675 -19 -881 -122 -881 -102 0 -129 199 -115 859 10 472 38 895 63 940 107 197 164 -99 174 -918z m541 11 c-8 -616 -18 -645 -108 -331 -89 311 -40 1006 72 1006 25 0 41 -304 36 -675z m-156 -1378 c-31 -81 -97 -147 -146 -147 -102 0 -120 235 -25 331 107 106 231 -27 171 -184z m331 -174 c-28 -68 -49 12 -47 177 3 165 25 220 50 123 26 -97 24 -232 -3 -300z m-1006 -146 c-33 -33 -56 26 -52 131 5 117 28 141 60 61 29 -72 26 -159 -8 -192z m852 -607 c16 -226 -2 -443 -41 -482 -39 -39 -71 26 -71 145 0 120 -22 217 -50 217 -157 0 -436 -436 -608 -948 -108 -323 -252 -605 -319 -628 -183 -61 -149 285 42 425 191 139 88 393 -125 311 -96 -37 -140 22 -140 187 0 320 162 409 235 129 88 -334 293 -73 312 395 12 288 54 372 176 352 107 -19 182 72 226 274 56 251 89 279 200 168 73 -73 147 -318 163 -545z m554 53 c-28 -68 -49 12 -47 177 3 165 25 220 50 123 26 -97 24 -232 -3 -300z m-2014 -2133 c-162 -537 -252 -663 -252 -352 0 211 257 812 348 812 23 0 -20 -207 -96 -460z m371 -429 c-30 -203 -88 -280 -183 -243 -159 61 -192 332 -40 332 55 0 100 70 100 156 0 86 37 133 83 104 46 -28 64 -185 40 -349z"/>
<path d="M7639 48540 c-82 -198 -135 -524 -118 -725 31 -350 38 -341 163 208 71 316 171 599 223 631 126 78 118 246 -12 246 -58 0 -173 -162 -256 -360z"/>
<path d="M13400 48494 c0 -113 45 -178 100 -144 55 34 100 127 100 206 0 79 -45 144 -100 144 -55 0 -100 -93 -100 -206z"/>
<path d="M10067 48125 c-77 -151 -170 -410 -208 -575 -38 -165 -94 -384 -124 -488 -34 -111 -16 -162 44 -125 56 34 154 285 220 558 65 272 182 548 260 612 162 135 186 293 44 293 -54 0 -160 -124 -236 -275z"/>
<path d="M13408 48058 c-4 -105 19 -164 52 -131 34 33 37 120 8 192 -32 80 -55 56 -60 -61z"/>
<path d="M11100 47850 c-72 -86 -81 -150 -23 -150 56 0 128 68 159 150 32 83 42 150 23 150 -19 0 -91 -67 -159 -150z"/>
<path d="M18300 47883 c0 -18 118 -483 263 -1033 145 -550 305 -1450 355 -2000 51 -550 133 -1135 182 -1300 49 -165 120 -738 158 -1273 40 -559 109 -948 162 -914 52 31 69 121 39 199 -30 78 -61 512 -69 965 -8 453 -54 927 -102 1054 -48 128 -112 685 -141 1240 -29 554 -81 1053 -116 1109 -34 56 -125 376 -202 711 -252 1100 -283 1194 -407 1235 -67 22 -122 26 -122 7z"/>
<path d="M13162 47238 c-210 -614 -136 -688 92 -92 96 252 151 482 122 512 -30 29 -126 -160 -214 -420z"/>
<path d="M10754 47110 c-97 -216 -157 -452 -132 -525 24 -72 125 82 225 344 223 583 152 722 -93 181z"/>
<path d="M12378 46794 c-93 -162 -133 -294 -89 -294 82 0 342 502 288 556 -17 17 -107 -101 -199 -262z"/>
<path d="M9527 46492 c-68 -181 -105 -347 -83 -369 71 -71 270 382 237 543 -18 91 -82 20 -154 -174z"/>
<path d="M12687 46425 c-124 -159 -121 -162 38 -38 96 76 175 154 175 175 0 83 -82 30 -213 -137z"/>
<path d="M11300 46019 c0 -44 -158 -342 -350 -662 -409 -679 -205 -567 245 134 328 512 361 609 205 609 -55 0 -100 -36 -100 -81z"/>
<path d="M7076 45683 c-54 -368 171 -1035 265 -783 30 83 67 351 82 596 21 346 -10 454 -136 480 -117 25 -176 -57 -211 -293z m184 -256 c-33 -33 -56 26 -52 131 5 117 28 141 60 61 29 -72 26 -159 -8 -192z"/>
<path d="M9075 45523 c-268 -346 -375 -697 -175 -573 55 34 100 106 100 160 0 54 98 231 218 393 314 425 184 444 -143 20z"/>
<path d="M11642 45267 c-326 -294 -785 -672 -1021 -842 -235 -170 -393 -330 -350 -356 96 -57 1805 1312 1941 1556 150 269 70 218 -570 -358z"/>
<path d="M7664 44550 c-35 -91 0 -150 89 -150 81 0 147 68 147 150 0 83 -40 150 -89 150 -49 0 -116 -67 -147 -150z"/>
<path d="M6819 44328 c-117 -226 -221 -1028 -134 -1028 75 1 415 794 415 970 0 205 -186 243 -281 58z"/>
<path d="M7046 43493 c-36 -58 -45 -128 -18 -154 26 -26 74 22 107 107 67 176 9 207 -89 47z"/>
<path d="M6955 42908 c-379 -604 -755 -1021 -755 -836 0 57 68 296 151 531 177 501 134 659 -47 175 -210 -559 -522 -1116 -779 -1395 -136 -147 -230 -319 -209 -382 72 -214 2184 2154 2184 2447 0 192 -228 -34 -545 -540z"/>
<path d="M18502 41300 c-55 -730 80 -3251 170 -3161 27 27 44 468 37 980 -16 1093 -168 2700 -207 2181z"/>
<path d="M11648 40542 c-329 -362 -958 -909 -1398 -1215 -440 -307 -867 -620 -950 -697 -82 -76 -240 -205 -350 -285 -200 -145 -200 -145 0 -78 110 36 403 232 650 435 248 203 641 488 875 635 367 229 1925 1704 1925 1822 0 146 -229 -42 -752 -617z"/>
<path d="M19382 41148 c-59 -59 86 -949 168 -1031 28 -28 49 148 48 391 -1 433 -108 749 -216 640z"/>
<path d="M14773 40940 c-40 -41 -73 -142 -73 -227 0 -112 30 -123 111 -42 61 61 94 163 73 227 -21 63 -71 82 -111 42z"/>
<path d="M5067 40733 c-37 -36 -67 -113 -67 -170 0 -62 47 -56 118 15 65 65 95 142 67 170 -28 29 -82 22 -118 -15z"/>
<path d="M12750 40300 c-34 -55 -14 -100 44 -100 58 0 106 45 106 100 0 55 -20 100 -44 100 -24 0 -72 -45 -106 -100z"/>
<path d="M12249 39897 c-35 -111 -215 -368 -400 -569 -185 -202 -314 -403 -288 -447 27 -43 -13 -55 -90 -25 -76 29 -200 -20 -274 -109 -113 -136 -112 -176 5 -249 145 -89 144 -92 -426 -737 -96 -108 -208 -160 -250 -115 -42 45 -19 102 50 126 173 62 366 428 226 428 -153 0 -495 -603 -433 -764 36 -92 3 -119 -98 -80 -83 32 -185 2 -227 -66 -56 -90 -24 -104 114 -51 142 55 114 -12 -108 -257 -165 -181 -356 -366 -425 -411 -69 -45 -124 -135 -124 -201 2 -221 1719 1649 2149 2342 55 88 269 402 475 698 206 296 375 572 375 614 0 162 -190 66 -251 -127z m-799 -1297 c-34 -55 -82 -100 -106 -100 -24 0 -44 45 -44 100 0 55 48 100 106 100 58 0 78 -45 44 -100z"/>
<path d="M12832 39725 c-34 -96 -143 -266 -242 -376 -99 -111 -306 -450 -460 -754 -282 -557 -531 -860 -1521 -1853 -674 -676 -548 -710 191 -51 303 270 565 477 582 459 96 -93 -384 -766 -872 -1225 -308 -289 -512 -525 -454 -525 59 0 236 135 394 300 158 165 324 300 369 300 208 0 32 -325 -494 -912 -724 -807 -1068 -1244 -643 -817 176 176 376 356 444 400 68 43 313 309 543 590 305 371 407 577 374 750 -25 132 -18 182 15 113 60 -127 942 911 942 1109 0 54 113 246 250 426 138 180 250 404 250 497 0 93 169 422 375 731 310 465 358 602 276 788 -118 270 -235 288 -319 50z m24 -503 c-156 -150 -248 -204 -204 -122 132 252 377 504 434 448 29 -30 -74 -176 -230 -326z m-456 -722 c-64 -119 -139 -195 -166 -167 -28 27 2 148 66 267 64 119 139 195 166 167 28 -27 -2 -148 -66 -267z m-367 -617 c-102 -174 -248 -338 -324 -363 -77 -26 -15 117 138 317 341 447 434 471 186 46z m-438 -1092 c-61 -114 -136 -183 -167 -152 -31 31 0 125 70 209 180 216 228 188 97 -57z"/>
<path d="M10850 39239 c-468 -433 -512 -495 -200 -282 330 226 948 849 833 841 -18 -2 -303 -253 -633 -559z"/>
<path d="M6888 38428 c-450 -227 -671 -385 -566 -406 95 -20 266 53 382 160 115 108 411 252 656 321 245 68 469 163 498 211 113 181 -259 72 -970 -286z"/>
<path d="M19708 38658 c-4 -105 19 -164 52 -131 34 33 37 120 8 192 -32 80 -55 56 -60 -61z"/>
<path d="M9956 38547 c-107 -81 -146 -147 -87 -147 58 0 163 68 231 150 156 188 107 187 -144 -3z"/>
<path d="M9200 38000 c-192 -162 -305 -294 -250 -293 55 1 256 134 446 297 191 163 303 295 250 293 -53 -1 -253 -135 -446 -297z"/>
<path d="M5900 38000 c0 -55 20 -100 44 -100 24 0 72 45 106 100 34 55 14 100 -44 100 -58 0 -106 -45 -106 -100z"/>
<path d="M4968 37934 c-37 -36 -258 -102 -492 -146 -1271 -240 -1335 -258 -2407 -678 -155 -60 -255 -152 -223 -203 32 -53 309 20 631 165 315 143 776 293 1023 334 523 87 2130 492 2192 553 23 22 -116 41 -309 41 -192 0 -379 -30 -415 -66z"/>
<path d="M19719 37750 c-2 -165 19 -245 47 -177 27 68 29 203 3 300 -25 97 -47 42 -50 -123z"/>
<path d="M18600 37756 c0 -79 45 -172 100 -206 55 -34 100 31 100 144 0 113 -45 206 -100 206 -55 0 -100 -65 -100 -144z"/>
<path d="M0 37656 c0 -86 45 -156 100 -156 55 0 100 42 100 94 0 52 -45 122 -100 156 -55 34 -100 -8 -100 -94z"/>
<path d="M6800 37728 c-137 -25 -289 -83 -337 -129 -48 -46 79 -46 283 0 203 46 396 110 429 142 61 61 36 61 -375 -13z"/>
<path d="M7800 37600 c-82 -48 -285 -121 -450 -162 -293 -72 -294 -75 -50 -116 138 -23 278 -88 313 -144 42 -68 125 -65 250 7 103 60 146 110 97 112 -50 2 -10 93 90 203 137 151 147 199 40 194 -77 -3 -207 -45 -290 -94z"/>
<path d="M17100 36967 c0 -474 41 -767 106 -767 97 0 33 1376 -69 1492 -20 23 -37 -304 -37 -725z"/>
<path d="M5300 37400 c-117 -76 -91 -97 119 -98 148 -1 297 43 331 98 79 128 -252 128 -450 0z"/>
<path d="M8144 37153 c-107 -81 -143 -148 -81 -150 62 -2 169 65 237 147 158 190 93 192 -156 3z"/>
<path d="M19808 37158 c-4 -105 19 -164 52 -131 34 33 37 120 8 192 -32 80 -55 56 -60 -61z"/>
<path d="M6700 37100 c-82 -53 -105 -97 -50 -97 55 0 168 44 250 97 83 53 105 97 50 97 -55 0 -167 -44 -250 -97z"/>
<path d="M3303 37004 c-263 -166 -64 -189 447 -52 l500 135 -400 5 c-220 3 -466 -37 -547 -88z"/>
<path d="M9640 36875 l-190 -225 225 190 c211 180 271 260 190 260 -18 0 -120 -101 -225 -225z"/>
<path d="M1225 36864 c-329 -163 -275 -271 75 -149 165 58 300 145 300 195 0 110 -81 100 -375 -46z"/>
<path d="M5800 36700 c-445 -244 -276 -244 250 0 220 102 333 187 250 188 -82 2 -307 -83 -500 -188z"/>
<path d="M6900 36700 c0 -55 -43 -100 -96 -100 -52 0 -261 -112 -464 -250 -481 -327 -347 -321 217 9 458 269 633 441 449 441 -58 0 -106 -45 -106 -100z"/>
<path d="M19834 36450 c32 -165 87 -604 123 -975 37 -371 106 -675 155 -675 135 0 105 625 -60 1260 -160 611 -313 886 -218 390z"/>
<path d="M15733 36454 c0 -80 38 -122 84 -94 46 29 83 94 83 146 0 52 -37 94 -83 94 -46 0 -84 -66 -84 -146z"/>
<path d="M18729 36150 c0 -275 20 -376 43 -224 23 152 22 377 -2 500 -23 123 -42 -1 -41 -276z"/>
<path d="M4825 36366 c-234 -57 -425 -142 -425 -187 0 -102 463 3 800 181 286 151 221 152 -375 6z"/>
<path d="M7000 36400 c0 -55 20 -100 44 -100 24 0 72 45 106 100 34 55 14 100 -44 100 -58 0 -106 -45 -106 -100z"/>
<path d="M144 36153 c-107 -81 -143 -148 -81 -150 62 -2 169 65 237 147 158 190 93 192 -156 3z"/>
<path d="M8620 36080 c-66 -66 -120 -175 -120 -242 0 -67 -56 -141 -125 -166 -69 -25 -101 -71 -72 -103 101 -112 687 340 631 487 -67 175 -156 182 -314 24z"/>
<path d="M5200 35872 c-608 -227 -654 -252 -588 -317 84 -85 839 157 1088 349 310 238 203 231 -500 -32z"/>
<path d="M17230 35300 c0 -302 19 -426 42 -275 23 151 23 399 0 550 -23 151 -42 28 -42 -275z"/>
<path d="M19047 34984 c175 -1651 408 -3284 470 -3284 39 0 51 146 27 325 -257 1915 -344 2675 -344 2990 0 205 -47 402 -105 438 -70 43 -86 -110 -48 -469z"/>
<path d="M15065 35025 c-26 -96 -79 -355 -116 -575 -38 -220 -89 -505 -113 -633 -23 -128 -2 -208 47 -177 50 30 120 270 155 533 35 262 87 601 115 752 56 302 -11 379 -88 100z"/>
<path d="M15600 35034 c0 -115 -26 -361 -57 -546 -55 -325 -51 -330 105 -138 152 187 158 129 95 -850 -37 -577 -149 -1387 -248 -1800 l-181 -750 -18 600 c-19 589 -21 593 -102 200 -45 -220 -85 -612 -88 -871 -3 -260 -91 -687 -194 -950 -104 -264 -281 -929 -393 -1479 -112 -550 -297 -1216 -410 -1480 -113 -264 -171 -458 -128 -432 194 120 669 1439 780 2162 38 248 128 537 200 642 123 179 137 180 199 19 36 -96 15 -286 -47 -422 -62 -137 -113 -428 -113 -648 0 -577 -285 -1869 -508 -2307 -220 -431 -230 -484 -92 -484 55 0 100 44 100 97 0 53 107 335 239 625 279 617 339 881 417 1824 32 382 80 732 108 776 27 44 68 339 90 654 37 530 94 930 347 2424 260 1540 278 2950 40 3196 -123 128 -141 120 -141 -62z m-350 -5034 c-34 -55 -82 -100 -106 -100 -24 0 -44 45 -44 100 0 55 48 100 106 100 58 0 78 -45 44 -100z m-50 -300 c0 -55 -48 -100 -106 -100 -58 0 -78 45 -44 100 34 55 82 100 106 100 24 0 44 -45 44 -100z"/>
<path d="M9450 34900 c-34 -55 -14 -100 44 -100 58 0 106 45 106 100 0 55 -20 100 -44 100 -24 0 -72 -45 -106 -100z"/>
<path d="M14262 34846 c-96 -251 -68 -316 50 -113 59 100 85 203 60 229 -26 26 -75 -26 -110 -116z"/>
<path d="M10367 34633 c-37 -36 -67 -113 -67 -170 0 -62 47 -56 118 15 65 65 95 142 67 170 -28 29 -82 22 -118 -15z"/>
<path d="M16216 34500 c0 -137 22 -194 50 -125 28 69 28 181 0 250 -28 69 -50 13 -50 -125z"/>
<path d="M16719 34450 c-2 -165 19 -245 47 -177 27 68 29 203 3 300 -25 97 -47 42 -50 -123z"/>
<path d="M17324 34300 c0 -554 108 -1085 194 -950 34 55 5 393 -66 750 -122 621 -128 630 -128 200z"/>
<path d="M5820 34398 c-176 -107 -320 -214 -320 -237 0 -76 345 48 543 194 304 226 132 258 -223 43z"/>
<path d="M10792 34467 c-205 -152 -533 -659 -469 -723 27 -28 131 75 231 228 100 153 252 331 338 395 87 64 135 139 108 167 -28 27 -121 -3 -208 -67z"/>
<path d="M6322 34344 c-330 -231 -269 -361 77 -164 165 93 300 204 300 245 1 118 -135 89 -377 -81z"/>
<path d="M8500 34200 c-82 -53 -105 -97 -50 -97 55 0 168 44 250 97 83 53 105 97 50 97 -55 0 -167 -44 -250 -97z"/>
<path d="M9950 34100 c-34 -55 -14 -100 44 -100 58 0 106 45 106 100 0 55 -20 100 -44 100 -24 0 -72 -45 -106 -100z"/>
<path d="M4609 33798 c-298 -164 -613 -299 -700 -301 -215 -4 -563 -277 -470 -369 41 -41 217 11 392 115 176 103 612 337 969 519 358 183 583 332 500 333 -82 1 -393 -133 -691 -297z"/>
<path d="M16900 33906 c0 -52 45 -122 100 -156 55 -34 100 8 100 94 0 86 -45 156 -100 156 -55 0 -100 -42 -100 -94z"/>
<path d="M7550 33600 c-158 -165 -343 -300 -412 -300 -68 0 -192 -68 -276 -152 -192 -192 -2020 -1101 -2387 -1187 -151 -36 -275 -114 -275 -174 0 -64 72 -79 175 -38 96 39 463 182 816 316 352 135 752 333 888 440 136 107 292 195 346 195 54 0 397 196 762 435 364 239 742 462 838 497 230 81 225 268 -6 268 -100 0 -311 -135 -469 -300z"/>
<path d="M9000 33750 c-68 -82 -194 -150 -279 -150 -139 0 -1621 -867 -1621 -948 0 -95 410 93 558 256 104 116 252 170 381 140 148 -35 370 85 746 401 294 248 491 451 437 451 -54 0 -154 -67 -222 -150z"/>
<path d="M11056 33529 c-54 -142 -42 -154 56 -56 69 68 99 149 69 180 -31 30 -87 -25 -125 -124z"/>
<path d="M9858 33322 l-192 -272 267 242 c281 255 315 310 192 305 -41 -2 -161 -126 -267 -275z"/>
<path d="M5751 33401 c-35 -57 5 -73 94 -39 173 66 205 138 61 138 -52 0 -122 -44 -155 -99z"/>
<path d="M11275 33253 c-96 -132 -175 -285 -175 -338 0 -175 -1494 -1612 -1827 -1757 -177 -78 -255 -145 -171 -150 177 -9 750 365 1258 822 337 303 1240 1474 1240 1608 0 134 -158 44 -325 -185z"/>
<path d="M4975 33143 c-406 -220 -335 -251 175 -78 248 85 450 172 450 194 0 92 -368 23 -625 -116z"/>
<path d="M5798 32997 c-602 -350 -1598 -802 -1902 -863 -161 -32 -270 -95 -242 -141 88 -141 1431 411 2228 917 517 328 450 398 -84 87z"/>
<path d="M16103 32359 c-2 -381 -112 -1326 -245 -2100 -446 -2595 -558 -3369 -558 -3862 0 -609 -304 -1438 -695 -1893 -163 -190 -273 -369 -245 -398 109 -108 641 635 844 1178 117 311 226 836 243 1166 45 869 161 1543 279 1616 107 66 53 -708 -80 -1141 -41 -134 -27 -225 35 -225 58 0 155 259 216 575 188 973 206 1035 293 981 96 -59 200 474 224 1144 11 299 30 358 58 175 99 -654 179 -168 199 1201 l21 1474 -152 -550 c-84 -302 -189 -685 -234 -850 -50 -182 -64 123 -37 772 27 644 3 1143 -59 1250 -79 135 -105 13 -107 -513z m-71 -3084 c-32 -289 -100 -592 -151 -675 -58 -95 -67 71 -26 450 62 572 109 750 196 750 22 0 13 -236 -19 -525z"/>
<path d="M17537 32688 c29 -184 100 -350 158 -370 58 -19 105 -181 105 -360 0 -178 44 -568 97 -866 53 -298 127 -812 163 -1142 37 -330 87 -544 111 -476 25 69 -29 811 -120 1650 -138 1264 -200 1557 -366 1712 -198 184 -200 182 -148 -148z"/>
<path d="M480 32521 c-259 -204 -473 -413 -475 -463 -3 -51 96 -1 220 110 124 112 404 322 623 468 219 145 332 262 250 260 -81 -2 -360 -171 -618 -375z"/>
<path d="M2500 32716 c0 -46 -118 -138 -263 -204 -145 -66 -241 -142 -213 -169 27 -27 190 31 362 129 309 176 408 328 214 328 -55 0 -100 -38 -100 -84z"/>
<path d="M4050 32706 c-363 -90 -1363 -506 -1495 -622 -186 -164 173 -83 483 108 172 106 527 247 789 313 262 66 501 159 531 207 29 49 40 83 23 78 -17 -6 -166 -44 -331 -84z"/>
<path d="M8240 32485 c-189 -213 -189 -213 35 -96 124 65 225 161 225 215 0 142 -48 120 -260 -119z"/>
<path d="M15257 32533 c-35 -91 -17 -213 40 -270 71 -71 103 -19 103 167 0 308 -50 345 -143 103z"/>
<path d="M11184 31925 c-179 -261 -544 -689 -811 -950 -268 -261 -443 -475 -390 -475 137 0 1141 1105 1396 1536 304 516 190 451 -195 -111z"/>
<path d="M12299 32176 c-290 -437 -310 -522 -56 -245 141 154 257 323 257 375 0 141 -37 117 -201 -130z"/>
<path d="M9286 32103 c-130 -108 -187 -198 -126 -200 60 -2 190 87 290 197 232 256 141 258 -164 3z"/>
<path d="M1350 32023 c-55 -40 -167 -161 -250 -269 -130 -170 -107 -166 175 32 179 125 325 247 325 271 0 67 -139 48 -250 -34z"/>
<path d="M5259 31746 c-326 -135 -614 -268 -642 -295 -27 -28 338 -39 811 -26 780 23 837 37 610 157 -203 106 -229 159 -132 275 162 196 42 175 -647 -111z"/>
<path d="M3051 31801 c-35 -57 5 -73 94 -39 173 66 205 138 61 138 -52 0 -122 -44 -155 -99z"/>
<path d="M2150 31605 c-220 -104 -324 -192 -231 -197 93 -4 197 37 231 92 34 55 146 100 250 100 104 0 216 45 250 100 90 145 -48 119 -500 -95z"/>
<path d="M1120 31391 c-529 -388 -538 -521 -23 -319 219 86 372 197 342 246 -31 50 -2 156 65 236 184 222 77 177 -384 -163z"/>
<path d="M7300 31600 c-133 -86 -133 -97 0 -97 83 0 218 44 300 97 133 86 133 97 0 97 -82 0 -217 -44 -300 -97z"/>
<path d="M628 31375 c-314 -406 -268 -487 72 -125 129 138 188 250 130 250 -58 0 -149 -56 -202 -125z"/>
<path d="M3450 31400 c-198 -85 -198 -86 5 -93 113 -4 254 -56 314 -116 78 -78 196 -63 420 53 171 89 311 182 311 209 0 80 -838 38 -1050 -53z"/>
<path d="M6524 31431 c95 -25 275 -26 400 -2 124 24 46 45 -174 46 -220 1 -322 -19 -226 -44z"/>
<path d="M2500 31200 c0 -55 65 -100 144 -100 79 0 172 45 206 100 34 55 -31 100 -144 100 -113 0 -206 -45 -206 -100z"/>
<path d="M1700 30935 c-192 -87 -297 -178 -232 -202 65 -25 290 46 500 157 450 237 239 273 -268 45z"/>
<path d="M11043 30515 c-224 -256 -513 -622 -641 -815 -129 -192 -348 -474 -487 -625 -139 -151 -200 -275 -136 -275 64 0 295 236 513 525 218 289 565 714 771 946 206 231 413 490 461 575 166 297 -78 129 -481 -331z"/>
<path d="M8250 30738 c-397 -139 -398 -140 -53 -87 191 29 391 97 445 151 116 116 120 116 -392 -64z"/>
<path d="M2464 30654 c-158 -85 -386 -154 -507 -154 -122 0 -443 -63 -714 -140 -924 -261 -1043 -276 -983 -119 30 78 220 190 423 248 l367 105 -350 -51 c-192 -28 -429 -59 -525 -69 -108 -10 -175 -101 -175 -235 0 -249 201 -363 409 -231 247 156 575 99 735 -129 100 -143 270 -227 480 -238 179 -9 405 -49 501 -89 98 -41 175 -30 175 26 0 110 -331 219 -675 221 -141 0 -225 62 -225 164 0 134 75 153 411 108 351 -47 419 -26 463 142 44 165 102 185 364 121 172 -41 447 -65 612 -52 165 13 503 35 750 49 601 35 572 202 -50 290 -275 39 -658 97 -850 129 -224 37 -453 2 -636 -96z m836 -166 c0 -113 -371 -115 -441 -2 -30 47 -30 110 0 139 78 79 441 -34 441 -137z"/>
<path d="M6500 30661 c0 -22 70 -66 155 -99 89 -34 129 -18 94 39 -58 95 -249 141 -249 60z"/>
<path d="M6350 30197 c252 -121 604 -190 950 -186 303 2 505 18 450 35 -494 148 -973 252 -1350 294 l-450 49 400 -192z"/>
<path d="M9551 30301 c-35 -57 5 -73 94 -39 173 66 205 138 61 138 -52 0 -122 -44 -155 -99z"/>
<path d="M8000 30100 c0 -55 42 -100 94 -100 52 0 122 45 156 100 34 55 -8 100 -94 100 -86 0 -156 -45 -156 -100z"/>
<path d="M4816 29906 c256 -48 571 -119 700 -158 177 -53 207 -42 123 47 -61 64 -376 135 -700 157 -579 40 -581 40 -123 -46z"/>
<path d="M3550 29800 c165 -42 435 -76 600 -76 l300 0 -300 76 c-165 42 -435 76 -600 76 l-300 0 300 -76z"/>
<path d="M12596 29584 c-114 -224 -111 -226 61 -61 100 95 154 200 120 233 -33 34 -115 -44 -181 -172z"/>
<path d="M3627 29440 c33 -34 120 -37 192 -8 80 32 56 55 -61 60 -105 4 -164 -19 -131 -52z"/>
<path d="M4250 29234 c165 -87 390 -240 500 -339 217 -196 1118 -460 1220 -358 35 35 -13 63 -106 63 -92 0 -526 180 -964 400 -752 378 -1292 572 -650 234z"/>
<path d="M10700 28950 c-185 -191 -314 -370 -286 -397 27 -28 201 106 386 297 185 191 314 370 286 397 -27 28 -201 -106 -386 -297z"/>
<path d="M11929 28650 c-176 -358 -300 -650 -276 -650 136 0 483 409 700 824 223 427 231 476 73 476 -117 0 -284 -218 -497 -650z"/>
<path d="M18218 28900 c-6 -830 178 -1754 318 -1592 20 23 -43 492 -139 1042 -130 743 -176 884 -179 550z"/>
<path d="M16500 28362 c0 -360 50 -579 152 -664 237 -196 306 -23 118 295 -113 191 -148 390 -107 597 40 200 22 310 -50 310 -70 0 -113 -206 -113 -538z"/>
<path d="M9039 28447 c-172 -75 -429 -152 -572 -171 -345 -47 -464 -177 -159 -174 248 2 1092 345 1092 443 0 65 27 72 -361 -98z"/>
<path d="M9300 27994 c-192 -101 -315 -187 -272 -189 123 -8 772 278 772 340 0 85 -120 49 -500 -151z"/>
<path d="M17039 28042 c34 -87 61 -217 61 -289 0 -73 68 -158 150 -189 106 -41 150 8 148 164 -1 180 -19 194 -98 72 -76 -117 -97 -89 -98 125 -1 151 -52 275 -113 275 -61 0 -83 -71 -50 -158z"/>
<path d="M16158 27913 c-43 -69 -51 -153 -18 -186 89 -90 187 42 139 187 -34 101 -58 101 -121 -1z"/>
<path d="M11248 27625 c-203 -320 -1291 -1400 -1651 -1639 -136 -90 -219 -193 -186 -228 112 -116 2189 1828 2189 2049 0 182 -180 89 -352 -182z"/>
<path d="M8975 27443 c-206 -135 -375 -290 -375 -344 0 -148 67 -122 326 126 130 124 323 279 430 344 107 66 149 119 94 119 -55 0 -269 -110 -475 -245z"/>
<path d="M9850 27493 c-288 -184 -291 -192 -63 -192 173 -1 214 -36 150 -131 -48 -71 -8 -44 88 61 96 105 175 254 175 330 0 166 22 170 -350 -68z"/>
<path d="M7425 27274 c-234 -56 -425 -146 -425 -200 0 -54 100 -68 225 -30 124 36 395 93 602 125 418 64 619 238 254 219 -127 -7 -422 -58 -656 -114z"/>
<path d="M17331 26750 c-1 -330 18 -477 40 -327 23 150 24 420 1 600 -22 180 -40 57 -41 -273z"/>
<path d="M6200 27162 c0 -21 111 -60 247 -86 136 -26 223 -9 194 38 -51 83 -441 125 -441 48z"/>
<path d="M16727 26800 c0 -248 20 -349 44 -225 23 124 23 326 0 450 -24 124 -44 23 -44 -225z"/>
<path d="M9194 26593 c-189 -167 -254 -256 -144 -200 306 158 591 399 536 454 -26 27 -203 -87 -392 -254z"/>
<path d="M7941 26490 c-267 -295 -737 -521 -1064 -511 -152 4 -277 -34 -277 -86 0 -312 1555 322 1676 684 64 193 -126 144 -335 -87z"/>
<path d="M9231 26205 c-175 -107 -371 -293 -436 -414 -85 -160 9 -114 344 166 417 349 511 444 436 443 -14 -1 -168 -88 -344 -195z"/>
<path d="M8344 26053 c-107 -81 -146 -148 -88 -150 58 -2 193 63 300 144 107 81 146 148 88 150 -58 2 -193 -63 -300 -144z"/>
<path d="M13659 25656 c-143 -244 -456 -604 -695 -800 -360 -295 -515 -356 -899 -356 -256 0 -465 -45 -465 -100 0 -178 878 -110 1215 94 478 291 1415 1606 1145 1606 -23 0 -158 -200 -301 -444z"/>
<path d="M15621 25875 c-1 -336 -204 -1052 -384 -1357 l-160 -268 252 270 c317 339 617 1580 382 1580 -50 0 -90 -101 -90 -225z"/>
<path d="M10200 25850 c-135 -163 -103 -183 142 -89 87 33 158 101 158 150 0 138 -162 105 -300 -61z"/>
<path d="M12964 25758 c-89 -137 -284 -361 -433 -500 -285 -263 -257 -487 30 -249 207 172 669 894 610 954 -24 24 -117 -68 -207 -205z"/>
<path d="M16631 25350 c-1 -330 18 -477 40 -327 23 150 24 420 1 600 -22 180 -40 57 -41 -273z"/>
<path d="M8272 25299 c-141 -110 -394 -228 -564 -262 -169 -34 -308 -104 -308 -156 0 -180 864 185 1095 462 178 216 82 197 -223 -44z"/>
<path d="M9640 25175 l-190 -225 225 190 c211 180 271 260 190 260 -18 0 -120 -101 -225 -225z"/>
<path d="M10200 25001 c-192 -161 -474 -345 -625 -409 -151 -64 -275 -157 -275 -206 0 -50 169 -1 375 109 427 227 1126 800 975 800 -55 0 -257 -132 -450 -294z"/>
<path d="M4500 25024 c0 -259 437 -1044 667 -1194 196 -129 230 -220 193 -524 -24 -202 -143 -536 -265 -741 -305 -518 -196 -552 135 -42 148 230 270 547 270 705 0 187 44 273 125 245 81 -28 118 -215 105 -533 -15 -355 4 -435 68 -290 48 110 91 324 95 475 4 175 62 275 157 275 285 0 145 151 -371 400 -409 198 -587 365 -848 800 -182 303 -330 493 -331 424z"/>
<path d="M6300 24757 c0 -242 2149 -541 2362 -328 39 39 8 75 -70 79 -471 26 -1785 186 -2017 245 -151 39 -275 40 -275 4z"/>
<path d="M15900 24645 c0 -85 -71 -293 -158 -461 -96 -186 -112 -277 -39 -232 66 40 159 12 207 -64 56 -89 87 49 88 387 1 289 -20 525 -48 525 -27 0 -50 -70 -50 -155z"/>
<path d="M16510 24025 c9 -335 19 -348 90 -125 114 357 114 500 0 500 -55 0 -96 -169 -90 -375z"/>
<path d="M6944 24171 c-38 -99 -37 -211 3 -250 111 -111 1584 -31 1699 91 75 80 -108 91 -662 41 -679 -61 -777 -48 -868 114 -98 175 -106 175 -172 4z"/>
<path d="M15864 23163 c-228 -539 -198 -698 41 -217 109 217 181 442 161 500 -21 57 -111 -70 -202 -283z"/>
<path d="M14527 23100 c-211 -247 -511 -258 -688 -25 -112 147 -133 150 -136 20 -4 -216 198 -396 442 -392 217 4 417 135 642 422 197 250 -44 227 -260 -25z"/>
<path d="M6223 20700 c0 -192 21 -271 46 -175 25 96 25 254 0 350 -25 96 -46 18 -46 -175z"/>
<path d="M10656 19350 c79 -532 235 -936 502 -1300 121 -165 340 -541 488 -835 147 -294 290 -512 318 -484 44 44 -574 1268 -919 1819 -69 110 -157 358 -197 550 -107 527 -264 731 -192 250z"/>
<path d="M9000 19514 c0 -47 108 -245 240 -439 132 -195 272 -505 311 -689 40 -185 142 -493 229 -686 86 -192 211 -552 277 -800 96 -363 122 -396 131 -173 7 152 -100 554 -238 892 -137 339 -250 661 -250 716 0 165 -543 1265 -625 1265 -41 0 -75 -39 -75 -86z"/>
<path d="M11723 19300 c0 -192 21 -271 46 -175 25 96 25 254 0 350 -25 96 -46 18 -46 -175z"/>
<path d="M10057 19135 c65 -357 302 -935 384 -935 19 0 -25 169 -98 375 -74 206 -136 474 -139 594 -2 121 -52 249 -110 285 -73 45 -85 -57 -37 -319z"/>
<path d="M7908 18958 c-4 -105 19 -164 52 -131 34 33 37 120 8 192 -32 80 -55 56 -60 -61z"/>
<path d="M11847 18525 c50 -336 342 -869 430 -781 28 27 -29 171 -126 319 -98 148 -216 386 -264 528 -78 231 -82 224 -40 -66z"/>
<path d="M8600 18612 c0 -55 45 -128 100 -162 55 -34 100 -17 100 38 0 55 -45 128 -100 162 -55 34 -100 17 -100 -38z"/>
<path d="M12173 18425 c74 -194 727 -1075 727 -981 0 132 -625 1156 -706 1156 -48 0 -58 -79 -21 -175z"/>
<path d="M21639 18282 c-53 -85 236 -163 761 -204 257 -21 350 12 350 122 0 114 -128 151 -532 154 -293 2 -553 -30 -579 -72z"/>
<path d="M9017 18123 c208 -484 447 -918 505 -920 90 -4 -5 253 -251 672 -167 285 -345 459 -254 248z"/>
<path d="M14700 17724 c0 -134 633 -689 872 -765 354 -112 1328 -1434 1328 -1802 0 -188 194 -696 246 -645 72 73 -155 963 -337 1320 -279 547 -825 1130 -1209 1292 -193 82 -474 273 -625 426 -151 152 -275 231 -275 174z"/>
<path d="M14358 17175 c105 -124 190 -231 191 -238 1 -6 114 -43 251 -81 216 -60 206 -40 -75 147 -179 119 -325 257 -325 307 0 49 -52 90 -115 90 -66 0 -34 -98 73 -225z"/>
<path d="M14256 16753 c107 -81 236 -148 288 -150 52 -2 7 63 -100 144 -107 81 -236 148 -288 150 -52 2 -7 -63 100 -144z"/>
<path d="M13300 16712 c0 -48 75 -149 166 -225 151 -124 156 -116 47 88 -124 233 -213 290 -213 137z"/>
<path d="M15285 16625 c372 -257 901 -1008 849 -1207 -72 -275 743 -1614 1054 -1732 144 -55 370 -198 501 -318 308 -281 810 -1062 813 -1263 2 -171 588 -1149 651 -1086 67 68 -1030 2193 -1257 2436 -119 126 -340 280 -492 343 -296 123 -526 398 -907 1083 -195 349 -214 446 -104 515 210 130 -652 1217 -1043 1315 l-300 76 235 -162z"/>
<path d="M14980 16148 c181 -219 466 -612 633 -873 358 -559 608 -649 278 -100 -416 691 -597 916 -920 1144 l-321 226 330 -397z"/>
<path d="M13700 16348 c0 -29 101 -96 225 -149 124 -54 326 -170 450 -260 124 -90 225 -124 224 -76 0 48 -178 188 -395 312 -403 230 -504 265 -504 173z"/>
<path d="M17500 15700 c0 -55 20 -100 44 -100 24 0 72 45 106 100 34 55 14 100 -44 100 -58 0 -106 -45 -106 -100z"/>
<path d="M14924 15251 c124 -192 284 -349 356 -350 71 0 184 -125 250 -276 213 -486 470 -799 881 -1071 221 -146 676 -533 1011 -860 335 -327 650 -594 699 -594 200 0 -267 492 -1185 1250 -609 503 -1044 949 -1173 1200 -112 220 -250 419 -307 441 -57 23 -232 169 -388 325 -376 377 -418 358 -144 -65z"/>
<path d="M14000 15411 c0 -49 71 -117 158 -150 245 -94 277 -74 142 89 -138 166 -300 199 -300 61z"/>
<path d="M0 15125 c0 -165 457 -824 656 -948 276 -170 488 -682 702 -1696 126 -595 364 -1520 530 -2056 165 -536 349 -1164 409 -1396 119 -463 262 -610 430 -442 79 79 77 172 -6 336 -110 215 -424 1858 -417 2177 7 311 492 -457 598 -947 176 -805 318 -1944 345 -2753 13 -412 52 -817 87 -900 34 -82 125 -397 202 -700 78 -302 258 -932 401 -1400 143 -467 325 -1412 406 -2100 175 -1485 339 -2300 465 -2300 116 0 118 -39 -50 768 -78 375 -170 1065 -206 1532 -68 905 -501 2817 -713 3150 -197 309 -318 982 -223 1240 56 151 32 386 -69 683 -84 249 -144 618 -132 820 12 202 -9 417 -47 478 -38 62 -94 375 -124 696 -49 518 -39 563 89 405 192 -238 1257 -4104 1264 -4591 2 -93 54 -201 116 -239 82 -51 97 67 53 419 -93 754 467 -1293 726 -2655 164 -865 316 -1333 624 -1925 505 -971 774 -1068 435 -156 -485 1304 -735 2065 -1093 3325 -202 715 -594 1975 -871 2800 -276 825 -588 1815 -693 2200 -193 709 -769 1950 -904 1950 -41 0 -104 134 -140 299 -36 164 -104 323 -151 352 -123 76 -417 663 -449 899 -16 110 -191 441 -389 735 -199 294 -361 579 -361 632 0 54 -252 383 -560 731 -569 644 -940 872 -940 577z m1938 -3150 c36 -151 30 -275 -15 -275 -44 0 -91 144 -105 320 -28 370 25 350 120 -45z"/>
<path d="M18000 14750 c129 -137 257 -250 285 -250 27 0 -56 113 -185 250 -129 138 -257 250 -285 250 -27 0 56 -112 185 -250z"/>
<path d="M14103 14644 c-2 -58 63 -193 144 -300 81 -107 148 -146 150 -88 2 58 -63 193 -144 300 -81 107 -148 146 -150 88z"/>
<path d="M18061 13793 c225 -244 555 -702 732 -1018 451 -806 481 -717 48 142 -397 789 -454 861 -891 1133 -270 167 -259 142 111 -257z"/>
<path d="M14800 13689 c0 -127 801 -879 943 -885 51 -2 337 -173 637 -379 560 -386 1833 -1891 1971 -2331 152 -485 858 -1094 1267 -1094 66 0 212 -86 326 -190 369 -341 1556 -916 1556 -754 0 22 -263 174 -585 336 -322 163 -722 411 -890 552 -167 141 -411 256 -542 256 -294 0 -883 520 -883 779 0 163 -501 969 -696 1121 -36 28 -196 225 -356 438 -268 357 -836 827 -1765 1461 -202 138 -506 375 -675 527 -169 151 -308 225 -308 163z"/>
<path d="M19345 13170 c90 -410 827 -1970 931 -1970 49 0 266 -248 482 -551 294 -413 530 -616 942 -811 303 -144 623 -325 712 -403 93 -82 562 -184 1100 -239 516 -53 1073 -119 1238 -145 217 -34 256 -22 142 46 -87 52 -469 121 -850 154 -1080 93 -1342 148 -1342 285 0 69 -231 185 -514 258 -380 97 -633 251 -975 594 -613 613 -893 980 -1119 1462 -414 884 -136 798 514 -158 353 -521 553 -692 806 -692 53 0 -74 177 -283 393 -737 764 -1153 1307 -1286 1680 -112 316 -135 337 -141 127 l-6 -250 -206 250 -206 250 61 -280z"/>
<path d="M14900 12981 c0 -86 236 -336 525 -555 1179 -893 1547 -1299 1817 -2003 372 -970 579 -1262 1105 -1556 257 -144 450 -208 429 -144 -22 65 -194 202 -383 306 -511 280 -589 384 -845 1118 -328 938 -574 1259 -1548 2021 -468 366 -906 734 -975 818 -112 136 -125 135 -125 -5z"/>
<path d="M24070 12612 c338 -308 930 -567 930 -407 0 52 -38 95 -85 95 -47 0 -283 134 -525 298 -560 380 -728 387 -320 14z"/>
<path d="M21745 12608 c54 -87 1517 -908 1619 -908 145 0 -140 222 -755 588 -668 396 -984 514 -864 320z"/>
<path d="M3705 11844 c-7 -159 401 -971 459 -913 27 27 -64 268 -202 534 -139 267 -255 437 -257 379z"/>
<path d="M18358 11613 c-35 -57 95 -325 289 -595 194 -271 353 -536 353 -590 0 -167 296 -700 468 -842 200 -166 192 -145 -369 903 -645 1206 -668 1242 -741 1124z"/>
<path d="M24001 11432 c1 -45 226 -156 500 -247 518 -172 709 -90 224 96 -479 184 -725 235 -724 151z"/>
<path d="M19800 11182 c-2 -410 1415 -1791 1979 -1928 149 -36 447 -181 661 -322 215 -140 575 -272 800 -292 391 -34 395 -32 84 50 -180 47 -495 193 -700 325 -356 227 -560 330 -1124 564 -344 143 -1286 993 -1513 1365 -102 168 -186 275 -187 238z"/>
<path d="M23123 10780 c67 -201 1016 -421 1677 -389 200 10 220 32 100 109 -82 54 -375 89 -650 79 -301 -12 -632 47 -832 147 -191 95 -316 118 -295 54z"/>
<path d="M13800 10163 c0 -75 91 -252 203 -394 111 -141 269 -417 351 -613 145 -348 346 -481 346 -230 0 126 -779 1374 -858 1374 -23 0 -42 -61 -42 -137z"/>
<path d="M19900 9983 c0 -324 1419 -1404 2190 -1667 707 -241 483 -14 -417 423 -425 207 -939 564 -1248 869 -289 284 -525 453 -525 375z"/>
<path d="M19063 8821 c-32 -52 19 -163 114 -247 251 -223 1539 -786 1718 -751 83 16 -185 179 -596 362 -412 183 -846 422 -963 531 -118 110 -241 157 -273 105z"/>
<path d="M2500 8124 c0 -41 44 -230 99 -420 193 -673 619 -3527 852 -5704 218 -2035 208 -2000 557 -2000 340 0 337 -17 145 1100 -80 468 -141 997 -134 1176 6 180 -18 356 -54 392 -36 36 -65 -55 -65 -201 0 -147 -39 -267 -87 -267 -102 0 -213 487 -213 930 0 377 -444 3177 -752 4745 -36 184 -125 325 -206 325 -78 0 -142 -34 -142 -76z"/>
<path d="M22600 8018 c0 -112 392 -190 1300 -260 691 -54 615 -20 -350 154 -330 60 -679 130 -775 155 -96 26 -175 3 -175 -49z"/>
<path d="M24760 7817 c-28 -46 14 -84 94 -84 80 0 146 38 146 84 0 46 -42 83 -94 83 -52 0 -117 -37 -146 -83z"/>
<path d="M21700 7723 c0 -73 690 -314 1864 -650 283 -81 567 -116 630 -77 64 40 -190 152 -564 250 -374 98 -946 263 -1272 366 -679 216 -658 212 -658 111z"/>
<path d="M24700 7097 c0 -53 68 -97 150 -97 83 0 150 18 150 39 0 22 -67 66 -150 97 -82 32 -150 14 -150 -39z"/>
<path d="M24350 6500 c34 -55 194 -100 356 -100 162 0 294 45 294 100 0 55 -160 100 -356 100 -212 0 -331 -40 -294 -100z"/>
<path d="M7364 6223 c-76 -123 56 -574 317 -1086 114 -224 328 -875 476 -1447 147 -572 352 -1255 455 -1519 103 -263 188 -569 188 -680 0 -290 530 -1489 659 -1490 60 -1 -128 701 -422 1574 -292 866 -532 1644 -534 1729 -8 436 -1039 3080 -1139 2919z"/>
<path d="M22350 6094 c-265 -77 -1650 -1133 -1650 -1257 0 -72 178 46 881 582 402 306 774 503 1027 544 218 35 421 102 450 150 67 108 -309 98 -708 -19z"/>
<path d="M24100 5984 c-192 -53 -530 -130 -750 -171 -861 -160 -2344 -1050 -2825 -1695 -151 -202 -420 -526 -599 -718 -337 -364 -398 -500 -224 -500 56 0 149 103 206 228 58 126 235 316 394 424 160 107 303 284 319 393 57 387 1826 1492 2560 1599 148 22 584 110 969 196 385 86 734 157 775 158 41 1 75 47 75 102 0 122 -425 114 -900 -16z"/>
<path d="M19750 3948 c-275 -245 -455 -446 -400 -446 96 0 950 769 950 856 0 75 -42 44 -550 -410z"/>
<path d="M18258 3188 c-106 -103 -169 -210 -141 -238 28 -28 133 39 233 150 235 260 159 332 -92 88z"/>
<path d="M20300 3200 c-79 -49 -111 -122 -70 -163 40 -40 126 -21 190 43 151 151 67 235 -120 120z"/>
<path d="M17650 2651 c-165 -78 -435 -258 -600 -400 l-300 -260 300 70 c299 69 300 69 112 -143 -104 -117 -277 -241 -386 -275 -273 -87 -931 -543 -783 -543 360 0 2260 1433 2146 1618 -68 109 -134 100 -489 -67z m-50 -345 c0 -118 -195 -244 -267 -173 -71 72 55 267 173 267 52 0 94 -42 94 -94z"/>
<path d="M15400 2507 c-137 -102 -446 -239 -685 -303 -239 -65 -413 -140 -385 -167 87 -87 804 157 1220 414 220 136 332 247 250 245 -82 -1 -262 -86 -400 -189z"/>
<path d="M17670 1787 c-593 -498 -687 -678 -129 -248 500 385 794 660 750 699 -23 20 -302 -183 -621 -451z"/>
<path d="M13725 1931 c96 -25 254 -25 350 0 96 25 18 46 -175 46 -193 0 -271 -21 -175 -46z"/>
<path d="M16250 1800 c-34 -55 6 -100 88 -100 83 0 178 45 212 100 34 55 -6 100 -88 100 -83 0 -178 -45 -212 -100z"/>
<path d="M24599 1598 c-301 -265 -317 -298 -111 -242 161 44 215 30 169 -45 -38 -61 -21 -111 37 -111 58 0 106 86 106 192 0 105 52 209 115 230 63 21 97 93 74 160 -26 79 -166 13 -390 -184z"/>
<path d="M17543 787 c-491 -392 -912 -730 -935 -750 -23 -20 5 -37 62 -37 117 0 1509 1080 1717 1333 243 295 69 182 -844 -546z"/>
<path d="M23793 958 c-193 -182 -447 -362 -563 -399 -229 -72 -516 -359 -359 -359 136 0 961 559 1178 799 309 341 117 311 -256 -41z"/>
<path d="M16787 1025 c-124 -159 -121 -162 38 -38 167 131 220 213 137 213 -21 0 -99 -79 -175 -175z"/>
<path d="M14950 757 c-275 -133 -447 -245 -383 -249 147 -10 1033 366 1033 438 0 97 -142 55 -650 -189z"/>
<path d="M15974 582 c-632 -343 -729 -518 -109 -197 383 198 830 508 735 509 -27 0 -309 -140 -626 -312z"/>
<path d="M24000 524 c0 -60 -73 -183 -162 -272 -89 -89 -138 -186 -108 -215 30 -30 131 63 226 207 94 144 142 291 108 326 -35 35 -64 14 -64 -46z"/>
<path d="M14927 40 c33 -34 120 -37 192 -8 80 32 56 55 -61 60 -105 4 -164 -19 -131 -52z"/>
</g>
</svg>