<svg xmlns="http://www.w3.org/2000/svg" version="1.0" width="250" height="525" viewBox="0 0 250.000000 525.000000" preserveAspectRatio="xMidYMid meet">
<metadata>
Created by potrace 1.10, written by Peter Selinger 2001-2011
</metadata>
<g transform="translate(0.000000,525.000000) scale(0.010000,-0.010000)" fill="#555555" stroke="none">
<path d="M0 49980 l0 -2519 325 303 c875 816 1046 959 1316 1103 299 159 1139 219 1339 95 224 -138 -247 -962 -549 -962 -105 0 -114 46 -35 193 57 107 104 287 104 400 0 165 -63 207 -310 207 -379 0 -751 -247 -1565 -1037 l-625 -607 0 -1167 0 -1167 255 -64 c140 -35 291 -42 335 -14 45 28 347 4 671 -53 324 -57 994 -165 1489 -241 495 -76 1058 -187 1250 -246 193 -59 468 -81 612 -50 176 38 281 9 318 -87 30 -79 204 -166 387 -194 183 -28 873 -196 1533 -372 660 -177 1538 -401 1950 -500 413 -98 818 -202 900 -231 83 -29 276 -81 431 -115 223 -49 268 -102 218 -259 -47 -146 -3 -220 169 -285 284 -108 530 11 531 257 1 158 73 177 551 147 303 -20 515 0 473 43 -163 168 -792 316 -1394 329 -367 8 -671 66 -729 138 -130 162 -1007 575 -1221 575 -157 0 -649 139 -1079 305 -971 375 -1630 475 -1827 278 -90 -90 -163 -60 -310 125 -106 133 -366 332 -578 442 -212 110 -433 261 -492 336 -58 75 -193 118 -300 96 -147 -30 -189 -116 -178 -365 12 -254 -13 -302 -113 -219 -174 145 -1187 402 -1583 402 -247 0 -470 130 -970 567 -357 311 -637 621 -622 688 14 67 -38 147 -117 178 -86 32 -124 134 -93 251 49 189 76 185 637 -94 321 -159 629 -290 682 -290 54 0 315 -93 581 -208 266 -114 1091 -363 1833 -554 800 -206 1401 -414 1475 -512 74 -97 299 -175 550 -192 234 -15 672 -100 975 -188 303 -89 843 -199 1200 -244 358 -45 965 -192 1350 -327 385 -135 919 -278 1187 -318 267 -40 757 -159 1088 -265 330 -106 824 -192 1097 -192 467 0 1259 -159 2278 -456 1076 -314 4019 -983 5550 -1260 330 -60 645 -143 700 -185 145 -111 1651 -510 1733 -460 38 24 316 -12 618 -80 l549 -123 30 -556 29 -556 -479 46 c-264 26 -615 85 -780 132 -165 46 -547 115 -850 152 -302 38 -887 151 -1300 252 -412 100 -1050 211 -1417 245 -807 76 -1719 306 -1765 446 -23 68 -96 68 -219 2 -179 -95 -1621 41 -1837 174 -159 99 -1484 335 -2362 421 -887 88 -1765 226 -2950 465 -385 77 -1127 168 -1650 201 -522 33 -1137 123 -1365 200 -229 78 -483 115 -565 84 -83 -32 -391 16 -685 107 -294 90 -985 203 -1535 250 -550 48 -1270 134 -1600 192 -330 58 -1072 150 -1650 204 -577 55 -1180 129 -1339 166 l-288 66 50 -1040 c38 -756 109 -1171 264 -1522 247 -561 292 -971 56 -517 -310 598 -343 511 -340 -905 l3 -1395 219 300 c879 1206 1924 1974 3111 2284 496 129 610 130 844 8 l270 -141 -250 -10 c-137 -6 -408 -4 -600 3 -623 23 -2064 -996 -3025 -2140 -571 -679 -575 -690 -575 -1333 0 -501 40 -679 175 -782 167 -126 167 -133 0 -136 -162 -3 -175 -194 -175 -2595 0 -1732 35 -2603 106 -2627 74 -24 74 -170 2 -483 -57 -246 -104 -847 -106 -1334 -2 -781 33 -960 299 -1517 354 -742 747 -1106 1359 -1260 360 -91 422 -138 330 -249 -177 -214 79 -455 444 -418 392 39 450 235 104 351 -179 59 255 79 1262 57 1344 -30 1621 -7 2222 179 710 220 1178 199 1178 -52 0 -156 -132 -207 -800 -309 -478 -73 -1094 -311 -2460 -951 -464 -217 -905 -395 -981 -395 -169 0 -1455 -586 -1659 -756 -82 -69 -397 -261 -700 -427 -545 -299 -550 -306 -580 -809 -36 -594 64 -639 580 -258 462 341 1132 330 1291 -21 152 -332 137 -429 -66 -431 -312 -2 -479 -163 -342 -328 100 -120 59 -175 -232 -313 -194 -92 -403 -136 -465 -99 -66 41 16 123 201 201 323 136 424 341 168 341 -80 0 -249 -42 -375 -93 -127 -51 -354 -120 -505 -152 -186 -40 -275 -122 -275 -254 0 -132 48 -176 150 -137 83 31 150 8 150 -53 0 -61 -67 -111 -150 -111 -119 0 -150 -144 -150 -700 0 -556 31 -700 150 -700 83 0 150 42 150 93 0 52 90 122 200 157 281 89 249 250 -50 250 -311 0 -331 175 -25 218 285 41 259 214 -44 290 -174 45 7 134 740 364 733 230 1051 285 1300 226 181 -42 262 -83 179 -89 -381 -30 -420 -170 -157 -558 141 -208 257 -434 257 -501 0 -77 -253 -145 -702 -187 -394 -36 -865 -152 -1074 -264 -204 -109 -495 -199 -648 -199 -256 0 -276 -29 -276 -408 0 -408 0 -408 325 -338 457 98 529 159 346 293 -138 101 -116 132 160 229 377 132 1408 324 1737 324 144 0 232 -60 232 -156 0 -119 89 -149 375 -125 284 24 368 71 348 197 -37 223 965 463 1093 262 140 -222 93 -353 -224 -619 -338 -285 -592 -336 -592 -120 0 77 -62 163 -137 192 -159 61 -763 -279 -763 -430 0 -130 170 -131 250 -1 34 55 155 100 268 100 173 0 186 -24 80 -152 -185 -224 -773 -479 -1080 -469 -685 23 -1182 21 -1337 -3 -93 -14 -175 19 -181 74 -18 152 -386 257 -658 189 -194 -49 -242 -125 -242 -385 l0 -324 1722 -17 1722 -18 492 478 c271 262 649 632 841 822 l348 346 188 -232 c228 -282 236 -494 31 -787 -171 -244 -404 -292 -469 -97 -33 97 -79 95 -209 -12 -143 -118 -166 -115 -166 25 0 89 45 162 100 162 55 0 100 45 100 100 0 175 -188 108 -514 -184 -309 -276 -330 -565 -33 -451 92 35 147 -4 147 -104 0 -89 45 -161 100 -161 55 0 100 -140 100 -311 0 -300 -12 -309 -341 -247 -200 37 -355 22 -375 -38 -82 -244 -2820 -24 -3035 244 -56 69 -247 158 -425 197 -322 70 -324 68 -324 -318 l0 -389 925 -115 c897 -111 1792 -259 2246 -371 140 -34 202 -107 167 -196 -77 -203 429 -433 912 -414 277 11 400 61 400 162 0 104 -124 149 -426 155 -400 9 -759 141 -383 141 96 0 503 295 904 655 814 732 1311 1510 1212 1901 -71 283 32 306 435 98 244 -126 307 -126 470 -3 356 270 535 180 801 -401 214 -467 241 -633 182 -1103 -71 -572 -332 -1029 -519 -913 -59 36 -84 156 -55 266 58 223 -68 263 -251 80 -86 -86 -120 -88 -120 -6 0 63 49 144 109 181 78 49 78 98 0 176 -78 78 -152 53 -264 -86 -149 -188 -153 -185 -86 55 37 138 90 306 115 375 26 69 -1 125 -60 125 -97 0 -614 -962 -614 -1142 0 -106 212 -289 522 -448 219 -113 300 -116 423 -14 135 112 139 87 40 -210 -62 -185 -196 -429 -299 -542 -102 -114 -186 -252 -186 -307 0 -135 -1010 -599 -1750 -803 -330 -91 -892 -178 -1250 -194 -358 -15 -886 -53 -1175 -85 -403 -43 -525 -25 -525 79 0 233 -328 440 -950 598 -330 84 -679 184 -775 221 -133 52 -175 18 -175 -144 0 -216 200 -342 717 -452 674 -144 1213 -1003 980 -1564 -90 -217 -188 -293 -379 -293 -191 0 -229 29 -145 113 74 74 82 193 23 349 -50 130 -67 298 -38 373 33 86 -69 185 -278 268 -181 73 -454 217 -605 321 l-275 190 0 -717 c0 -632 23 -722 200 -768 110 -29 200 -116 200 -194 0 -111 -44 -119 -200 -35 -174 93 -200 76 -200 -134 0 -286 119 -394 637 -578 395 -140 563 -389 563 -834 0 -128 -70 -260 -156 -293 -86 -33 -128 -106 -93 -163 35 -57 -74 -312 -243 -568 -170 -255 -308 -524 -308 -597 0 -73 -63 -133 -141 -133 -91 0 -122 70 -88 200 29 112 3 200 -59 200 -69 0 -112 -212 -112 -550 0 -351 42 -550 116 -550 64 0 334 -140 600 -310 l484 -311 -250 -297 c-142 -169 -250 -424 -250 -590 0 -361 -64 -364 -420 -23 l-280 268 0 -312 c0 -172 41 -338 90 -369 50 -31 67 -405 39 -831 -28 -426 -72 -1184 -97 -1683 l-45 -909 318 0 318 0 -64 709 c-54 613 -44 684 75 533 76 -96 193 -175 260 -175 91 0 111 -248 78 -966 -36 -800 -76 -990 -233 -1104 -603 -441 -739 -578 -739 -745 0 -102 38 -185 85 -185 156 0 1665 1365 1917 1734 186 272 298 349 448 308 153 -42 166 -32 58 43 -221 152 120 615 452 615 235 0 250 26 187 313 -44 200 -32 290 32 250 104 -64 633 688 805 1142 56 150 60 320 8 413 -59 106 -8 314 160 644 351 692 354 1754 7 2188 -228 284 -258 293 -570 176 -261 -98 -345 -98 -409 0 -72 112 -25 833 74 1149 54 170 434 156 788 -29 375 -195 542 -59 375 306 -200 439 -134 615 395 1058 488 408 519 420 650 240 76 -103 138 -262 138 -352 0 -90 113 -269 250 -398 280 -263 337 -745 100 -836 -208 -80 -193 -387 17 -346 92 17 274 235 404 482 131 248 269 461 308 473 200 66 360 -217 436 -769 66 -482 51 -680 -68 -910 -138 -267 -137 -294 11 -294 116 0 143 -51 92 -175 -40 -96 -140 -467 -223 -825 -209 -893 -466 -1591 -507 -1376 -19 95 54 523 161 950 334 1325 338 1401 100 1568 -152 106 -264 121 -396 50 -295 -158 -585 -834 -585 -1363 0 -481 311 -1747 483 -1964 50 -63 315 -542 588 -1065 273 -522 618 -1164 766 -1425 148 -261 234 -478 191 -481 -43 -4 23 -47 147 -97 149 -60 225 -175 225 -339 0 -254 442 -785 684 -822 73 -12 217 -96 318 -188 102 -92 233 -138 292 -102 66 41 106 -50 106 -240 l0 -306 1598 0 1597 0 171 275 c259 418 752 926 1054 1084 380 198 1139 175 1766 -54 735 -269 972 -442 1236 -905 157 -275 297 -399 448 -399 251 -1 206 -201 540 2377 160 1235 255 1697 332 1620 128 -128 151 -3429 26 -3773 -81 -225 -80 -225 1015 -225 l1097 0 70 600 c38 330 112 626 163 658 58 36 68 -198 27 -600 l-68 -658 514 0 c390 0 514 36 514 150 0 83 -89 150 -200 150 -110 0 -200 -45 -200 -100 0 -55 -50 -100 -111 -100 -66 0 -87 94 -51 236 132 526 262 1707 207 1879 -63 201 -445 259 -445 68 0 -64 -24 -92 -53 -63 -85 85 225 2190 387 2630 255 691 466 1464 466 1703 0 126 132 920 293 1763 482 2526 804 5699 870 8584 42 1824 31 2030 -101 1865 -135 -168 -154 -124 -217 521 -75 751 -169 858 -620 698 -283 -99 -281 -80 25 275 194 226 250 252 250 116 0 -201 109 -226 273 -62 75 75 82 193 21 352 -173 455 -310 1588 -301 2485 11 1006 -240 4501 -383 5350 -297 1762 -792 3106 -1407 3820 -440 510 -449 610 -27 277 435 -342 509 -65 103 384 -194 215 -370 433 -391 484 -71 174 -737 610 -863 564 -220 -80 -135 -298 225 -572 193 -147 350 -313 350 -370 0 -56 -247 109 -550 367 -302 259 -550 529 -550 601 0 150 469 545 647 545 67 0 435 -309 819 -687 1413 -1391 2385 -4086 2501 -6938 30 -729 75 -1346 99 -1372 25 -26 80 9 122 78 134 216 378 26 503 -390 126 -419 142 -560 310 -2641 236 -2922 307 -3550 404 -3550 68 0 532 1119 742 1788 58 184 95 207 162 100 51 -79 89 6600 89 15687 l2 15825 -1800 0 c-1741 0 -1800 -7 -1800 -202 0 -120 95 -239 231 -291 405 -154 556 -1407 170 -1407 -168 0 -302 701 -173 907 91 146 88 216 -13 316 -105 103 -165 83 -322 -109 -244 -299 -243 -579 4 -1205 157 -400 175 -559 91 -801 -100 -285 -117 -294 -331 -153 -461 302 -600 1509 -259 2259 109 240 199 492 200 561 2 97 -643 125 -2898 125 -1595 0 -2900 -35 -2900 -78 0 -43 62 -167 139 -275 286 -409 352 -911 203 -1549 -162 -695 -509 -1430 -637 -1351 -158 98 -419 -70 -520 -336 -97 -253 -104 -255 -242 -67 -198 269 -179 456 46 456 104 0 210 56 236 125 86 236 -42 375 -347 375 l-306 0 59 567 c43 422 138 672 368 975 325 428 642 1050 571 1121 -23 23 -861 29 -1863 14 l-1822 -27 308 -424 c169 -233 307 -481 307 -551 0 -70 88 -182 196 -249 107 -67 242 -314 300 -549 145 -591 504 -1277 668 -1277 150 0 187 257 49 342 -47 29 -113 217 -145 418 -33 201 -121 438 -196 527 -165 197 -426 992 -350 1068 90 90 643 -681 755 -1055 149 -492 250 -1600 147 -1600 -155 0 -966 422 -1298 675 -447 341 -1096 1548 -1182 2200 l-70 525 -712 -2 c-392 0 -667 -34 -612 -75 55 -40 269 -264 475 -498 316 -359 375 -497 375 -881 0 -369 57 -515 303 -774 166 -176 352 -513 412 -748 107 -417 667 -1022 946 -1022 63 0 161 -56 217 -125 79 -96 0 -130 -343 -146 -380 -17 -438 5 -392 150 35 111 -95 332 -369 629 -233 252 -474 544 -534 650 -61 106 -241 207 -400 225 -160 18 -333 74 -385 125 -140 136 -355 112 -355 -41 0 -158 -370 -507 -650 -613 -110 -41 -492 -116 -850 -165 -357 -49 -893 -127 -1191 -173 -586 -91 -1125 -26 -1108 134 5 55 293 258 638 450 345 193 752 437 904 543 333 232 936 280 1602 127 378 -86 500 -84 531 9 23 67 172 121 332 121 161 0 292 43 292 95 0 287 -802 1141 -1371 1461 -341 192 -647 393 -681 446 -37 61 -1496 98 -3854 98 l-3794 0 0 -2520z m24241 1650 c-285 -1565 -847 -2548 -1709 -2985 -603 -305 -651 -352 -521 -508 88 -106 78 -137 -45 -137 -88 0 -307 -129 -488 -286 -180 -158 -592 -435 -915 -617 -844 -474 -1715 -1314 -1920 -1852 -94 -245 -212 -445 -262 -445 -244 0 -861 639 -970 1004 -270 899 -1497 1621 -3043 1790 -555 61 -1174 195 -1425 309 -244 111 -443 212 -443 224 0 13 247 8 550 -11 601 -38 654 25 348 414 -336 427 -35 411 354 -19 306 -339 465 -421 1079 -560 395 -89 961 -272 1256 -407 295 -134 592 -244 660 -244 253 0 980 -630 1276 -1107 169 -271 341 -493 384 -493 147 0 697 786 850 1216 234 656 223 1547 -24 2084 -215 465 -1121 1421 -1732 1825 -199 132 -384 358 -433 528 -46 163 -125 429 -174 590 -50 162 -74 310 -54 330 20 20 411 -89 869 -243 1527 -513 2006 -1304 2047 -3380 12 -605 -18 -1176 -67 -1269 -167 -316 68 -268 412 85 396 404 699 594 699 438 0 -185 352 -111 701 147 187 138 466 452 619 698 159 256 417 510 604 594 590 265 976 750 977 1228 0 154 90 414 199 579 235 355 259 650 52 650 -160 0 -553 -705 -605 -1086 -57 -420 -261 -800 -523 -972 l-255 -167 265 475 c306 546 324 650 116 650 -82 0 -150 34 -150 75 0 107 1438 1601 1507 1565 31 -16 2 -336 -66 -710z m-18331 283 c944 -124 1889 -717 1512 -949 -43 -27 -523 -76 -1066 -109 -950 -57 -1003 -49 -1365 201 -207 144 -571 286 -809 316 -769 98 -1072 385 -432 409 193 7 474 82 625 166 159 89 401 132 575 103 165 -28 597 -90 960 -137z m1990 -869 c0 -24 -45 -44 -100 -44 -55 0 -100 48 -100 106 0 58 45 78 100 44 55 -34 100 -82 100 -106z m1050 -383 c110 -85 155 -156 100 -157 -55 -2 -235 112 -400 252 -307 261 -60 182 300 -95z m12903 -1154 c-231 -448 -265 -375 -76 168 94 272 180 403 200 307 19 -93 -36 -307 -124 -475z m-606 -511 c-35 -58 -16 -163 43 -234 80 -97 41 -190 -156 -371 l-264 -241 73 250 c40 138 97 351 127 475 29 124 96 225 148 225 51 0 65 -47 29 -104z m-10664 -552 c444 -222 301 -396 -412 -502 -557 -82 -625 -118 -655 -342 -19 -137 -95 -318 -168 -400 -278 -312 -2331 -1239 -2613 -1180 -146 30 -97 95 227 302 285 183 524 468 777 928 200 365 345 696 320 735 -39 64 89 160 791 593 256 157 1312 76 1733 -134z m12462 -231 c-137 -125 -721 -253 -595 -130 55 54 190 119 300 146 338 81 397 78 295 -16z m1145 -1128 c7 -419 -67 -745 -290 -1269 -337 -793 -367 -1036 -150 -1216 205 -170 189 -563 -25 -647 -96 -38 -342 -86 -546 -107 -339 -35 -405 2 -750 421 -945 1147 -1344 1384 -2208 1313 -314 -27 -683 -19 -821 17 -209 54 -127 103 496 293 410 126 859 317 997 426 413 325 1121 111 1993 -602 419 -342 441 -349 575 -166 76 105 139 257 139 338 0 82 62 219 138 306 115 132 212 761 270 1758 24 412 172 -289 182 -865z m-11290 210 c0 -95 -253 -362 -633 -667 -134 -107 -117 -213 146 -896 337 -874 321 -1083 -116 -1558 -290 -315 -302 -318 -448 -130 -82 107 -149 295 -149 418 0 247 -241 538 -446 538 -157 0 -454 695 -454 1060 0 327 669 1002 1177 1189 452 166 923 190 923 46z m4121 -2045 c203 -137 425 -250 493 -250 153 0 685 -496 690 -644 2 -58 205 -234 453 -391 583 -369 1036 -1239 780 -1495 -35 -35 -339 176 -675 469 -481 419 -706 545 -1051 589 -361 47 -541 155 -1000 602 -450 438 -647 559 -999 611 -240 36 -528 114 -639 173 -181 97 -148 130 338 336 729 308 1157 308 1610 0z m3514 -732 c463 -911 261 -2111 -356 -2116 -250 -3 -438 746 -290 1155 61 169 111 586 111 926 0 565 15 609 175 508 96 -61 258 -274 360 -473z m2106 -1103 c29 -47 -59 -236 -194 -420 -248 -336 -333 -795 -147 -795 120 0 134 -267 17 -339 -45 -28 -185 -24 -311 9 -206 53 -223 102 -171 483 98 717 606 1386 806 1062z m-5016 -214 c125 -2 84 -501 -42 -501 -172 0 -483 308 -483 477 0 103 67 128 225 86 124 -33 259 -61 300 -62z m-16802 -701 c140 -224 433 -267 511 -75 31 77 53 61 58 -44 4 -92 256 -412 558 -709 655 -645 689 -858 174 -1093 -206 -94 -498 -271 -649 -394 -270 -220 -277 -221 -422 -29 -80 107 -148 262 -150 344 -3 83 -76 285 -164 450 -89 165 -198 424 -243 575 -76 256 -62 275 211 275 346 0 370 100 84 358 -115 105 -252 269 -304 366 -137 256 175 234 336 -24z m23152 6 c270 -226 284 -307 50 -303 -96 2 -256 114 -355 250 -220 302 -33 334 305 53z m-13156 26 c-72 -29 -159 -26 -192 8 -33 33 26 56 131 52 117 -5 141 -28 61 -60z m-6316 -891 c301 -307 749 -699 995 -870 648 -452 902 -689 902 -843 0 -225 -398 -934 -559 -995 -263 -101 -261 38 3 302 435 435 274 772 -466 971 -311 84 -377 134 -270 205 114 77 79 149 -183 374 -179 154 -325 338 -325 409 0 78 -76 110 -190 80 -207 -55 -532 305 -634 701 -95 373 143 263 727 -334z m-1563 -259 c99 -162 125 -292 65 -329 -53 -33 -190 122 -303 343 -113 222 -245 404 -293 404 -48 0 -115 71 -148 157 -90 236 481 -248 679 -575z m-2040 -1756 c0 -69 -68 -126 -150 -126 -82 0 -150 41 -150 92 0 50 -29 167 -64 260 -58 149 -40 152 150 34 117 -74 214 -191 214 -260z m18072 249 c534 -141 1191 -731 1293 -1164 34 -143 130 -340 214 -436 178 -205 58 -235 -171 -43 -87 73 -518 213 -958 312 -440 100 -876 220 -969 269 -93 48 -639 93 -1213 99 -574 6 -1092 41 -1152 78 -59 37 112 171 380 298 268 128 582 320 697 427 115 107 243 175 283 151 41 -25 254 -9 474 33 581 113 602 113 1122 -24z m-14372 -311 c198 -96 480 -373 650 -637 570 -886 944 -1578 947 -1752 2 -96 46 -175 99 -175 52 0 217 -214 366 -475 148 -261 396 -672 551 -913 l281 -438 -272 -203 c-150 -112 -435 -357 -633 -544 l-361 -341 -603 125 c-518 107 -665 102 -1039 -36 -240 -88 -571 -188 -736 -222 -165 -34 -453 -188 -640 -342 l-339 -280 12 -1034 c15 -1290 -80 -1202 -681 635 -334 1021 -394 1307 -298 1423 66 80 91 145 55 145 -36 0 -18 90 41 200 59 110 170 200 246 200 76 0 288 124 471 275 l333 275 -375 -443 c-206 -244 -375 -480 -375 -525 0 -177 277 -67 550 218 158 165 366 300 463 300 240 0 330 178 181 358 -68 82 -135 283 -148 448 -20 257 38 335 408 552 237 138 603 279 813 311 211 32 453 94 538 138 86 43 221 36 300 -16 123 -80 119 -110 -30 -198 -228 -134 -221 -256 25 -466 110 -94 200 -225 200 -291 0 -66 124 -212 275 -324 151 -113 219 -207 150 -209 -146 -4 -172 -303 -26 -303 54 0 88 -96 75 -214 -36 -326 210 -340 333 -19 77 200 77 333 2 454 -58 94 -81 236 -50 316 35 92 -47 194 -226 280 -154 74 -296 216 -315 316 -33 170 -17 172 268 24 375 -194 572 -3 231 223 -119 80 -217 205 -217 280 0 207 -460 466 -695 392 -119 -38 -205 -21 -205 41 0 59 -67 107 -150 107 -83 0 -150 89 -150 200 0 253 -202 262 -268 12 -27 -105 -298 -308 -616 -462 -311 -151 -642 -340 -734 -421 -96 -84 -252 -120 -363 -85 -246 78 -642 -97 -803 -355 -160 -258 -51 -443 158 -269 142 118 142 102 2 -170 -234 -452 -543 -702 -704 -568 -217 180 -518 1312 -385 1445 62 62 113 183 113 269 0 141 443 704 554 704 83 0 49 -66 -154 -300 -250 -289 -250 -366 0 -500 110 -59 200 -195 200 -304 0 -211 147 -263 254 -90 36 59 177 149 314 201 260 99 269 351 11 332 -100 -8 -152 87 -158 290 -5 166 -61 334 -126 374 -232 144 132 634 696 937 492 263 551 275 661 125 66 -91 165 -165 221 -165 55 0 220 -180 365 -400 146 -220 307 -400 358 -400 231 0 184 231 -143 695 -194 277 -353 572 -353 657 0 233 -268 289 -732 152 -483 -142 -501 -152 -1081 -565 -240 -172 -549 -344 -687 -385 l-250 -73 225 165 c254 186 313 509 76 418 -124 -47 -128 -24 -25 140 67 108 175 196 240 196 65 0 254 114 419 253 649 546 1667 677 2415 311z m-4334 -389 c-28 -69 -50 -12 -50 125 0 138 22 194 50 125 28 -69 28 -181 0 -250z m21507 -92 c68 -139 168 -586 223 -993 56 -407 212 -965 348 -1240 137 -275 482 -1017 769 -1650 l520 -1150 81 -1500 c175 -3244 112 -4563 -260 -5465 -37 -91 -20 -194 39 -231 135 -83 141 -721 7 -804 -55 -34 -100 32 -100 147 0 286 -277 373 -448 141 -218 -297 -291 43 -105 489 84 202 154 537 154 745 1 208 95 671 209 1028 241 754 279 2143 116 4212 -89 1120 -136 1333 -426 1900 -179 351 -430 924 -558 1274 -168 461 -344 732 -638 984 -224 191 -455 438 -514 548 -99 186 -85 184 200 -27 169 -125 331 -203 361 -174 29 30 -11 341 -89 693 -232 1053 -267 1408 -132 1364 66 -21 175 -152 243 -291z m2725 -720 c-2 -136 -384 -504 -610 -587 -110 -41 -185 -238 -231 -607 -38 -301 -137 -630 -220 -733 -138 -170 -146 -146 -96 291 86 742 808 2033 1034 1850 69 -56 124 -152 123 -214z m-6885 -173 c35 -187 137 -673 227 -1080 90 -408 139 -819 109 -914 -30 -95 -77 -344 -104 -553 -27 -209 -69 -400 -94 -425 -184 -185 -766 2838 -620 3220 105 272 415 113 482 -248z m3225 255 c34 -89 18 -129 -39 -94 -55 33 -99 103 -99 155 0 144 72 112 138 -61z m-19921 -795 c-18 -98 21 -212 86 -252 90 -55 87 -129 -9 -310 -94 -176 -138 -198 -168 -88 -22 83 -88 248 -147 368 -58 120 -77 293 -42 384 83 216 323 130 280 -102z m9538 -198 c172 -410 308 -511 787 -585 814 -125 1364 -1067 1131 -1938 -96 -361 -88 -447 63 -614 170 -187 157 -209 -380 -673 -532 -459 -549 -488 -405 -707 233 -357 183 -528 -313 -1058 -415 -444 -456 -529 -404 -850 32 -195 150 -453 262 -573 194 -206 197 -242 54 -711 -149 -492 -346 -883 -348 -692 -1 55 42 252 95 438 74 260 54 465 -91 899 -104 309 -202 652 -218 762 -27 181 375 903 687 1232 153 162 163 483 18 572 -58 36 -169 -17 -246 -119 -128 -168 -141 -147 -144 233 -4 494 191 732 601 732 391 0 559 307 390 714 -92 224 -95 355 -8 545 180 395 135 774 -136 1140 -327 444 -404 484 -922 484 -499 0 -745 156 -722 458 28 369 -2 444 -207 509 -266 85 -161 247 112 176 116 -30 271 -198 344 -374z m-1105 137 c-165 -36 -427 -71 -582 -77 -185 -8 -404 -140 -639 -387 l-358 -375 71 300 c102 424 162 462 926 593 676 116 1158 71 582 -54z m-357 -864 c-6 -244 -17 -252 -93 -75 -117 273 -117 350 0 350 55 0 97 -124 93 -275z m659 67 c61 -190 0 -383 -90 -284 -106 118 -163 492 -75 492 55 0 129 -93 165 -208z m10982 -102 c616 9 727 -22 1125 -307 431 -310 550 -483 332 -483 -60 0 -224 90 -364 200 -415 327 -759 263 -1064 -198 -167 -253 -364 -419 -538 -454 -543 -111 -1185 -502 -1750 -1066 -316 -315 -575 -535 -575 -488 0 47 86 371 191 720 106 350 224 793 263 985 153 738 753 1248 1346 1143 193 -34 658 -57 1034 -52z m-10563 -715 c-24 -124 -44 -22 -44 225 0 248 20 349 44 225 23 -124 23 -326 0 -450z m567 50 c-94 -393 -138 -406 -138 -42 0 175 46 317 102 317 60 0 75 -112 36 -275z m-2141 -609 c131 -690 199 -794 368 -562 74 101 135 134 135 73 0 -61 30 -189 67 -285 46 -120 30 -152 -51 -102 -68 42 -145 1 -183 -98 -60 -158 -75 -157 -199 13 -74 101 -134 258 -134 349 0 91 -62 296 -138 456 -76 159 -167 447 -202 639 -57 310 -48 332 86 198 83 -83 196 -389 251 -681z m15103 413 c0 -259 -8 -264 -175 -97 -153 153 -156 187 -25 270 204 129 200 133 200 -173z m-14840 -302 c-33 -33 -56 26 -52 131 5 117 28 141 60 61 29 -72 26 -159 -8 -192z m1410 -652 l7 -825 -75 700 c-63 592 -48 950 40 950 11 0 23 -371 28 -825z m-374 50 l-5 -675 -144 400 c-177 490 -183 674 -27 830 66 66 134 120 150 120 17 0 28 -304 26 -675z m1003 472 c-60 -111 -154 -175 -209 -141 -64 40 -58 112 17 203 177 213 315 169 192 -62z m-2660 -755 c104 -271 71 -323 -283 -440 -189 -62 -460 -205 -603 -317 -159 -126 -325 -178 -431 -136 -142 55 -79 153 360 559 547 505 851 612 957 334z m2427 -269 c-28 -68 -49 12 -47 177 3 165 25 220 50 123 26 -97 24 -232 -3 -300z m-1905 -726 c91 -139 149 -267 128 -284 -22 -17 -263 -103 -538 -191 -457 -147 -513 -147 -676 0 -169 154 -168 169 23 347 449 419 842 466 1063 128z m-3552 -186 c-107 -129 -509 -290 -509 -205 0 36 511 332 587 340 21 2 -14 -59 -78 -135z m4848 -316 c83 -439 -15 -567 -154 -202 -129 338 -132 557 -8 557 53 0 126 -160 162 -355z m-6107 155 c-34 -55 -82 -100 -106 -100 -24 0 -44 45 -44 100 0 55 48 100 106 100 58 0 78 -45 44 -100z m2050 -48 c0 -76 -1036 -650 -1175 -651 -265 -2 -104 168 400 422 500 252 775 334 775 229z m-1800 -298 c0 -26 -101 -101 -225 -167 -204 -109 -212 -104 -88 47 128 155 313 225 313 120z m2322 -472 c-66 -66 -122 -63 -167 9 -37 60 -165 113 -286 117 -189 7 -178 26 81 141 257 114 312 111 385 -18 50 -87 44 -192 -13 -249z m678 224 c0 -52 -45 -122 -100 -156 -55 -34 -100 8 -100 94 0 86 45 156 100 156 55 0 100 -42 100 -94z m1961 17 c114 -75 439 -656 439 -785 0 -40 -101 22 -225 138 -143 134 -389 222 -674 242 -324 23 -458 79 -481 199 -21 109 49 183 199 212 386 73 625 72 742 -6z m-3758 -417 c-141 -263 -303 -352 -303 -167 0 83 79 197 175 253 240 140 247 135 128 -86z m1697 14 c0 -44 -160 -138 -357 -209 -196 -71 -380 -192 -410 -270 -67 -175 -233 -186 -233 -15 0 137 330 385 650 489 289 94 350 95 350 5z m-3000 -208 c0 -48 -67 -144 -150 -212 -163 -135 -183 -103 -89 142 64 167 239 219 239 70z m1900 -94 c0 -44 -191 -189 -425 -320 -234 -131 -644 -457 -911 -724 -267 -267 -506 -465 -531 -440 -65 65 762 895 1117 1121 165 105 336 248 380 318 88 140 370 175 370 45z m3000 -230 c0 -48 -115 -88 -256 -88 -341 0 -210 -198 137 -207 240 -6 248 -16 69 -93 -110 -47 -253 -89 -318 -93 -170 -10 -269 378 -137 537 117 141 505 98 505 -56z m-1900 -135 c0 -91 -58 -124 -154 -88 -197 76 -546 -238 -546 -491 0 -137 -47 -177 -158 -135 -87 34 -203 61 -257 61 -134 0 110 234 566 544 432 293 549 316 549 109z m-2300 1 c0 -26 -101 -96 -225 -156 -216 -105 -217 -103 -31 46 204 164 256 186 256 110z m-692 -239 c-68 -127 -63 -220 17 -300 87 -87 85 -115 -8 -115 -184 0 -257 282 -116 451 170 205 226 187 107 -36z m1792 47 c0 -21 -79 -99 -175 -175 -159 -124 -162 -121 -38 38 131 167 213 220 213 137z m-705 -617 c-70 -86 -222 -203 -337 -261 -178 -91 -172 -69 42 149 271 277 506 365 295 112z m3855 55 c79 -127 -153 -127 -350 0 -122 79 -109 97 69 98 121 1 247 -43 281 -98z m-3250 -94 c0 -118 -195 -244 -267 -173 -71 72 55 267 173 267 52 0 94 -42 94 -94z m4498 -187 c-1 -146 -14 -148 -98 -19 -127 196 -127 328 0 250 55 -34 99 -138 98 -231z m-518 61 c247 -247 134 -379 -174 -202 -196 113 -254 193 -175 244 163 103 210 97 349 -42z m-6180 -236 c0 -24 -45 -44 -100 -44 -55 0 -100 48 -100 106 0 58 45 78 100 44 55 -34 100 -82 100 -106z m3440 16 c-30 -77 -129 -162 -222 -189 -92 -26 -258 -80 -368 -118 -141 -49 -112 6 100 188 327 281 575 341 490 119z m-1712 -163 c-29 -111 -249 -410 -488 -663 -358 -379 -447 -431 -500 -293 -72 185 224 466 414 394 62 -24 184 138 271 361 162 412 400 570 303 201z m3457 93 c173 -60 315 -150 315 -200 0 -49 105 -90 233 -90 337 0 634 -370 896 -1121 127 -363 279 -721 338 -795 58 -74 163 -242 231 -374 l125 -240 -322 240 c-730 545 -652 531 -990 170 -171 -181 -310 -364 -311 -405 0 -41 -56 -75 -125 -76 -69 0 -251 -66 -405 -146 -154 -81 -424 -188 -600 -239 -176 -51 -410 -128 -520 -172 -177 -70 -185 -61 -64 88 190 233 70 470 -238 470 -377 0 -860 -278 -826 -474 21 -125 -84 -187 -422 -250 -956 -177 -951 -177 -1090 138 -119 268 -107 331 133 694 232 350 282 381 410 253 81 -80 119 -217 86 -304 -95 -247 146 -186 561 143 233 185 496 300 683 300 364 0 473 130 275 328 -79 79 -175 308 -212 510 -67 354 -46 389 617 1014 378 356 737 648 797 648 61 0 252 -49 425 -110z m-1685 -490 c0 -55 -79 -99 -175 -98 -150 1 -153 15 -25 98 189 122 200 122 200 0z m5012 -454 c160 -363 187 -566 133 -1002 -81 -651 -178 -747 -346 -343 -155 375 -326 393 -234 24 59 -237 47 -258 -83 -151 -266 219 -271 25 -13 -538 138 -302 231 -569 207 -594 -25 -24 -170 250 -323 609 -261 616 -270 682 -147 1126 149 537 478 1323 554 1323 28 0 142 -204 252 -454z m-5655 59 c0 -136 -61 -189 -203 -175 -143 14 -213 -48 -236 -206 -18 -125 -76 -200 -130 -166 -54 33 -211 -61 -349 -210 -318 -344 -433 -249 -144 119 155 197 946 819 1059 833 2 0 3 -88 3 -195z m-1408 -606 c-99 -110 -203 -179 -229 -152 -67 67 182 353 308 353 57 0 21 -90 -79 -201z m1788 -478 c27 -43 -94 -140 -269 -214 -175 -75 -397 -204 -494 -288 -186 -160 -341 -108 -226 77 62 101 711 468 871 493 38 6 91 -24 118 -68z m12109 -439 c85 -285 154 -631 154 -769 0 -138 201 -681 446 -1207 482 -1033 802 -2199 707 -2578 -91 -365 -253 -166 -253 312 0 430 -261 1323 -537 1836 -81 151 -172 353 -202 449 -76 244 -361 222 -361 -29 0 -112 87 -374 192 -581 318 -622 519 -1574 487 -2296 -29 -635 -37 -654 -157 -381 -70 158 -286 618 -480 1023 -487 1011 -712 2137 -547 2738 67 248 148 800 178 1226 31 426 92 775 137 775 45 0 151 -233 236 -518z m-8654 -990 c-336 -361 -629 -455 -1693 -548 -550 -48 -799 -36 -799 39 0 59 169 139 375 176 598 109 1215 441 1490 802 l255 334 328 -250 328 -250 -284 -303z m1806 562 c0 -57 -41 -166 -89 -243 -70 -111 -109 -97 -198 69 -146 272 -144 277 89 277 110 0 199 -46 198 -103z m-4798 -454 c0 -55 -67 -100 -150 -100 -82 0 -150 45 -150 100 0 55 68 100 150 100 83 0 150 -45 150 -100z m3641 -708 c142 -169 258 -338 256 -375 -1 -37 -182 -150 -401 -251 -314 -145 -633 -183 -1498 -178 -1044 6 -1124 -9 -1603 -291 -781 -461 -899 -387 -360 223 282 318 417 384 971 474 354 57 848 105 1098 105 357 1 527 64 800 297 190 163 376 298 412 300 36 2 183 -134 325 -304z m1017 -738 c108 -429 -3 -505 -288 -197 -242 261 -252 298 -95 360 282 111 318 96 383 -163z m-287 -779 c283 -289 626 -737 762 -997 l248 -472 -365 291 c-415 331 -1843 932 -2098 883 -371 -72 -150 -327 466 -539 998 -344 1418 -557 1341 -680 -63 -100 -116 -741 -159 -1936 -10 -265 -63 -425 -141 -425 -69 0 -125 -90 -125 -200 0 -110 -45 -200 -100 -200 -245 0 -72 -412 271 -645 394 -268 677 -204 428 96 -73 88 -91 152 -41 143 345 -66 360 41 46 310 -191 163 -295 296 -231 296 63 0 143 -45 177 -100 34 -55 124 -100 200 -100 145 0 164 619 23 760 -39 39 -25 128 32 196 115 139 24 644 -116 644 -49 0 -89 50 -89 111 0 61 63 86 140 57 230 -88 262 38 95 370 -241 477 9 184 405 -477 195 -324 423 -827 507 -1117 178 -610 352 -2512 344 -3744 l-6 -850 -193 544 c-106 299 -276 637 -377 750 -102 113 -356 468 -565 788 -208 321 -538 703 -731 850 -193 148 -445 360 -560 473 -272 265 -1315 968 -1828 1229 -221 113 -630 235 -908 272 l-507 68 55 338 c36 217 15 338 -58 338 -198 0 -121 175 103 233 179 47 195 83 94 205 -101 121 -84 169 90 262 170 91 189 143 95 256 -93 112 -83 155 47 205 106 41 143 129 104 251 -51 161 -4 189 322 198 686 18 855 109 884 474 35 441 -122 486 -980 280 -737 -177 -1996 -920 -2452 -1448 l-231 -266 121 250 c121 252 403 629 832 1114 129 145 251 302 271 350 20 47 232 192 470 322 384 209 555 235 1500 224 750 -8 1141 31 1317 130 407 229 531 186 1071 -365z m10222 -1260 c4 -129 -80 -356 -187 -506 -106 -150 -353 -584 -549 -965 -328 -640 -356 -669 -357 -366 0 438 353 1471 683 1995 216 345 278 391 334 250 38 -95 72 -279 76 -408z m-15696 110 c-2 -41 -69 -162 -150 -269 -141 -186 -147 -183 -147 75 0 172 54 269 150 269 83 0 149 -34 147 -75z m963 -1094 c-333 -259 -460 -422 -426 -550 26 -99 6 -206 -43 -237 -50 -31 -91 -136 -91 -233 0 -183 -452 -492 -561 -383 -34 34 33 182 150 330 116 148 211 324 211 392 0 190 398 651 741 861 512 312 523 213 19 -180z m8605 -240 c310 -192 384 -199 849 -88 722 174 1517 69 2070 -273 434 -269 1316 -1229 1316 -1434 0 -205 -224 -76 -677 391 -517 532 -955 848 -1049 754 -115 -116 1312 -1434 1816 -1677 l510 -246 0 235 c0 129 45 263 100 297 59 36 101 -75 103 -269 2 -182 14 -680 25 -1106 12 -426 -6 -775 -40 -775 -70 0 -185 620 -187 1010 -1 335 -292 600 -577 525 -378 -99 -1413 476 -2074 1151 -547 560 -637 614 -1022 614 -483 0 -1073 287 -1403 681 -382 458 -291 538 240 210z m6235 -322 c0 -376 -99 -520 -618 -900 -427 -312 -482 -325 -482 -113 0 89 48 126 111 87 132 -81 285 130 287 395 3 265 390 862 560 862 94 0 142 -112 142 -331z m-14650 131 c34 -55 -8 -100 -94 -100 -86 0 -156 45 -156 100 0 55 42 100 94 100 52 0 122 -45 156 -100z m200 -600 c37 -60 -82 -100 -294 -100 -196 0 -356 45 -356 100 0 55 132 100 294 100 162 0 322 -45 356 -100z m-3760 -138 c89 -107 80 -152 -37 -197 -197 -76 -193 -303 14 -845 143 -374 146 -451 25 -529 -571 -370 -952 635 -435 1151 266 267 72 348 -709 296 -455 -31 -748 -12 -748 48 0 157 202 198 1013 206 535 6 797 -33 877 -130z m1086 -483 c-22 -66 -206 -137 -408 -157 -283 -27 -368 1 -368 121 0 117 104 157 408 157 275 0 395 -40 368 -121z m1024 21 c0 -55 -45 -100 -100 -100 -55 0 -100 45 -100 100 0 55 45 100 100 100 55 0 100 -45 100 -100z m1550 -100 c34 -55 152 -100 262 -100 110 0 173 -44 140 -97 -56 -91 -378 -67 -952 70 -249 59 -249 60 50 131 436 105 433 105 500 -4z m1324 -300 c205 -110 432 -200 505 -200 72 0 298 -84 501 -186 204 -103 618 -311 920 -462 551 -277 1185 -945 1533 -1619 90 -175 299 -413 463 -530 220 -157 353 -386 502 -869 207 -671 288 -1529 99 -1061 -49 124 -148 201 -220 174 -86 -33 -197 144 -328 526 -110 318 -244 570 -299 562 -55 -8 -289 348 -520 791 -230 443 -626 1016 -879 1273 -518 526 -1742 1250 -2488 1471 -362 108 -458 172 -355 237 182 115 135 124 566 -107z m-2899 -66 c-206 -85 -375 -196 -375 -245 0 -49 -74 -89 -165 -89 -151 0 -150 18 10 194 163 181 388 267 755 287 83 5 -19 -61 -225 -147z m2392 -341 c652 -131 2063 -958 2594 -1519 422 -448 721 -1101 994 -2174 234 -923 246 -1104 246 -3500 -1 -2923 -235 -4957 -556 -4834 -73 28 -161 177 -195 332 -34 155 -149 360 -256 457 -249 226 -263 1025 -25 1475 94 176 201 545 240 820 39 275 132 928 206 1450 183 1288 150 3162 -59 3393 -86 95 -156 237 -156 315 0 177 -422 1352 -631 1756 -228 440 -1077 1126 -1992 1611 -683 361 -891 425 -1393 425 -557 0 -1014 -137 -1406 -421 -131 -95 -200 -97 -289 -8 -145 145 104 428 379 431 100 0 237 36 305 79 156 99 1315 48 1994 -88z m13184 -1349 c-207 -299 -393 -544 -415 -544 -75 0 85 549 283 974 178 382 213 408 352 269 139 -139 118 -208 -220 -699z m-13189 300 c185 -196 373 -334 418 -306 45 27 206 -49 359 -171 255 -203 284 -298 355 -1160 87 -1046 33 -1836 -118 -1742 -114 70 -274 -145 -271 -365 1 -114 37 -103 148 44 137 181 147 182 147 14 0 -196 -368 -922 -581 -1147 -172 -181 -245 -81 -457 619 -181 599 -155 1040 83 1420 216 344 263 1061 112 1699 -226 954 -1043 1550 -1500 1094 -95 -95 -235 -132 -357 -93 -487 155 8 433 788 443 492 6 568 -24 874 -349z m11818 -1064 c181 -181 147 -249 -155 -314 -181 -40 -361 -201 -525 -471 -251 -413 -543 -731 -991 -1076 -220 -170 -227 -419 -13 -419 167 0 953 729 1251 1159 167 242 357 439 424 440 66 1 230 119 364 263 296 319 396 267 721 -373 190 -377 236 -581 187 -842 -36 -190 -34 -469 4 -619 62 -248 116 -176 582 774 475 969 516 1023 549 718 24 -228 -55 -490 -257 -850 -161 -286 -325 -738 -364 -1004 -74 -497 -951 -2556 -955 -2241 -3 219 -85 221 -319 10 -227 -206 -240 -535 -21 -535 117 0 146 -61 105 -225 -32 -124 -122 -472 -200 -775 -199 -763 -642 -2767 -718 -3250 -34 -220 -168 -632 -296 -915 -128 -283 -265 -666 -304 -850 -39 -184 -156 -475 -260 -647 -104 -171 -189 -425 -189 -563 0 -138 -68 -307 -150 -375 -83 -69 -190 -266 -238 -438 -74 -266 -98 -285 -164 -126 -49 118 -17 289 87 466 91 153 165 393 165 533 0 139 42 279 92 310 222 137 872 2716 1200 4755 256 1593 449 2267 904 3171 287 569 404 939 434 1373 56 778 -73 1916 -238 2116 -117 141 -163 122 -414 -176 -156 -184 -344 -473 -418 -642 -174 -395 -958 -1041 -1270 -1046 -132 -1 -352 -67 -490 -146 -386 -221 -2000 -174 -2000 58 0 46 214 205 475 354 656 373 1101 807 1374 1338 254 494 542 792 1001 1034 359 189 864 212 1030 46z m-9743 -1089 c221 -796 312 -1661 190 -1814 -55 -70 -129 -588 -164 -1151 -55 -884 -107 -1107 -379 -1625 -173 -331 -366 -601 -429 -601 -63 0 -186 234 -273 519 -182 591 -132 817 393 1785 526 971 678 2852 276 3425 -83 119 -150 284 -149 368 5 300 373 -324 535 -906z m623 -1464 c-33 -33 -56 26 -52 131 5 117 28 141 60 61 29 -72 26 -159 -8 -192z m2122 -427 c51 0 146 -281 212 -625 248 -1291 1008 -4289 1163 -4589 146 -281 176 -296 317 -155 140 141 140 187 -2 487 -86 183 -210 557 -274 832 -64 275 -207 783 -317 1129 -110 345 -173 696 -141 780 32 83 -31 472 -140 864 -230 832 -199 1001 57 308 97 -265 209 -526 248 -581 38 -55 101 -325 140 -600 80 -573 472 -1499 768 -1814 110 -117 187 -297 169 -400 -25 -142 21 -179 193 -155 287 40 283 -73 -25 -681 -137 -271 -250 -581 -250 -688 0 -204 -484 -1012 -606 -1012 -127 0 -394 672 -394 990 0 189 -51 310 -131 310 -137 0 -237 359 -757 2700 -264 1189 -389 1895 -566 3200 l-48 350 146 -325 c81 -179 188 -325 238 -325z m-1989 -275 c4 -69 -38 -125 -93 -125 -55 0 -97 146 -93 325 6 272 21 293 93 125 47 -110 89 -256 93 -325z m-1546 50 c-130 -613 -647 -1360 -647 -934 0 137 605 1259 679 1259 20 0 6 -146 -32 -325z m-1711 -825 c-61 -159 -236 -208 -236 -67 0 106 109 217 214 217 44 0 54 -68 22 -150z m-1836 -238 c0 -49 -90 -112 -200 -141 -110 -29 -200 -15 -200 31 0 46 79 104 175 129 96 25 186 51 200 57 14 7 25 -28 25 -76z m4963 -787 c-53 -985 -131 -1385 -328 -1672 -173 -254 -170 -533 10 -878 131 -252 48 -406 -95 -175 -34 55 -107 100 -162 100 -55 0 -75 -40 -45 -89 30 -48 -15 -146 -101 -218 -86 -71 -241 -289 -344 -486 -104 -196 -191 -305 -194 -242 -2 63 134 376 302 696 321 611 328 923 26 1258 -137 152 -127 225 108 737 143 313 260 698 260 856 0 315 158 392 231 113 29 -110 50 -75 57 94 7 148 57 297 112 331 55 34 100 149 100 256 0 107 25 194 55 194 31 0 34 -394 8 -875z m-5763 575 c0 -55 -48 -100 -106 -100 -58 0 -78 45 -44 100 34 55 82 100 106 100 24 0 44 -45 44 -100z m2960 -173 c-101 -102 -185 51 -102 186 63 102 87 102 121 1 23 -70 15 -154 -19 -187z m-1232 112 c34 -34 -7 -167 -92 -296 -84 -129 -124 -281 -89 -339 107 -172 335 -117 403 97 107 335 261 111 189 -274 -62 -330 -50 -353 147 -302 231 61 262 6 121 -217 -58 -92 -34 -226 68 -383 137 -208 170 -219 248 -81 49 88 63 242 32 341 -37 114 23 252 161 373 215 190 217 190 135 -8 -46 -110 -88 -317 -92 -460 -5 -142 -70 -333 -145 -423 -83 -100 -106 -234 -59 -341 42 -97 67 -232 56 -301 -11 -69 63 -125 165 -125 143 0 187 -80 195 -360 12 -452 160 -622 380 -439 144 120 148 106 33 -145 -105 -232 -102 -297 20 -392 80 -63 146 -204 146 -314 0 -110 56 -189 125 -175 69 14 125 -62 125 -169 0 -107 45 -222 100 -256 55 -34 100 -148 100 -254 0 -119 91 -215 240 -252 186 -47 251 -144 288 -427 29 -223 -1 -406 -75 -467 -183 -150 -418 -644 -546 -1150 -144 -569 -617 -1723 -680 -1660 -27 26 159 649 413 1385 454 1321 535 1675 381 1675 -74 0 -376 -729 -1116 -2700 -391 -1042 -515 -1300 -622 -1300 -115 0 -104 175 16 249 54 34 173 318 263 631 91 314 268 795 392 1070 125 275 350 831 499 1236 219 591 247 752 140 818 -176 109 -321 13 -252 -168 74 -191 -237 -304 -347 -126 -56 90 -118 104 -180 39 -111 -117 -813 -2221 -816 -2445 0 -85 -47 -221 -103 -304 -134 -196 -42 353 259 1550 125 495 258 1125 297 1400 66 458 58 487 -90 346 -89 -85 -272 -580 -408 -1100 -334 -1289 -434 -1594 -441 -1346 -3 110 108 605 247 1100 323 1147 405 1748 254 1842 -87 54 -87 152 -1 399 66 190 92 605 61 989 -43 531 -99 699 -282 848 -126 102 -315 163 -420 135 -327 -85 -628 133 -787 570 -92 253 -259 476 -424 567 -257 142 -283 136 -466 -100 -204 -263 -215 -275 -692 -750 -166 -165 -302 -401 -302 -525 0 -170 -58 -225 -235 -225 -130 0 -388 -103 -575 -229 -301 -203 -348 -296 -414 -821 -68 -541 -51 -625 191 -975 186 -268 327 -374 474 -354 182 25 209 -23 209 -371 0 -289 -42 -400 -150 -400 -118 0 -172 -230 -250 -1068 -128 -1370 -262 -1521 -182 -205 33 552 31 1083 -7 1180 -151 395 -252 -74 -301 -1407 -29 -770 -54 -1434 -56 -1475 -2 -41 -43 -75 -91 -75 -48 0 -65 639 -39 1421 42 1256 30 1407 -103 1296 -119 -98 -158 -454 -186 -1716 -21 -961 -78 -1634 -143 -1699 -78 -78 -114 12 -128 320 -11 235 -28 563 -37 728 -39 672 28 1859 102 1813 86 -53 82 1887 -4 2137 -28 83 -90 330 -138 550 -48 220 -132 378 -186 350 -55 -27 -87 -104 -72 -170 121 -527 172 -1430 78 -1400 -59 20 -131 302 -159 628 -29 326 -114 685 -188 798 -115 176 -110 292 28 766 89 307 162 712 162 898 0 187 36 383 80 435 43 52 138 270 211 484 72 213 215 530 318 703 182 310 214 320 1610 544 1251 199 2077 429 2581 717 183 104 346 118 428 36z m-3831 -443 c-189 -119 -297 -120 -297 -3 0 95 312 200 397 133 26 -20 -19 -79 -100 -130z m923 84 c-93 -93 -147 -93 -240 0 -93 93 -67 120 120 120 187 0 213 -27 120 -120z m8668 -2108 c65 -758 208 -1900 319 -2538 111 -637 176 -1184 146 -1215 -106 -106 -853 -43 -1007 85 -87 71 -127 198 -92 287 34 87 79 294 100 459 258 2072 322 2843 301 3635 -34 1314 93 925 233 -713z m-3688 222 c0 -100 -46 -211 -102 -246 -57 -34 -97 -26 -89 20 35 201 -20 247 -159 132 -183 -152 -206 9 -43 313 85 160 136 176 250 81 79 -65 143 -200 143 -300z m4531 -2458 c-120 -312 -212 -77 -368 939 -247 1618 -181 1830 137 436 156 -681 259 -1300 231 -1375z m-3419 -203 c-87 -150 -106 -155 -109 -25 -3 169 102 320 173 250 23 -24 -5 -125 -64 -225z m-8812 -83 c0 -137 -17 -250 -38 -250 -21 0 -60 113 -86 250 -27 138 -10 250 38 250 47 0 86 -112 86 -250z m12345 -625 c38 -124 26 -225 -27 -225 -52 0 -115 136 -140 303 -48 331 59 281 167 -78z m651 -480 c8 -378 -438 -613 -560 -295 -34 88 40 230 178 343 189 155 211 218 111 320 -69 70 -123 219 -121 332 3 159 47 127 196 -145 105 -192 194 -442 196 -555z m-10096 -101 c0 -86 -45 -128 -100 -94 -55 34 -100 104 -100 156 0 52 45 94 100 94 55 0 100 -70 100 -156z m-2100 -264 c0 -162 -30 -190 -111 -109 -61 61 -81 160 -44 220 103 168 155 130 155 -111z m-446 -455 c203 -485 194 -3921 -11 -4201 -70 -96 -151 -149 -182 -119 -91 92 -160 2084 -73 2137 44 28 89 502 100 1054 17 845 -5 1004 -134 1004 -183 0 -202 212 -34 380 163 163 157 168 334 -255z m9046 320 c0 -133 -320 -658 -371 -607 -77 76 174 662 283 662 48 0 88 -25 88 -55z m-2300 -445 c-70 -169 -149 -284 -177 -256 -27 27 7 187 77 356 70 169 149 284 177 256 27 -27 -7 -187 -77 -356z m2950 -200 c-91 -175 -185 -298 -210 -273 -26 25 33 184 130 353 229 399 294 334 80 -80z m-350 219 c0 -44 -68 -168 -152 -275 -140 -180 -143 -174 -34 81 118 275 186 346 186 194z m-1141 -557 c-34 -180 -126 -414 -204 -520 -117 -157 -113 -74 19 455 160 642 302 692 185 65z m2299 -323 c-134 -640 -551 -1561 -766 -1694 -51 -31 -92 -136 -92 -232 0 -96 -79 -264 -175 -373 -96 -109 -287 -419 -425 -690 -137 -271 -444 -731 -681 -1022 -375 -461 -450 -511 -575 -386 -79 79 -144 190 -144 247 0 125 303 1041 366 1108 110 117 204 -252 130 -510 -124 -435 -26 -344 205 188 286 661 364 779 492 749 72 -16 88 67 44 240 -47 190 -33 245 51 194 74 -46 170 65 267 310 82 210 195 450 250 532 177 264 695 1391 695 1512 0 107 414 570 477 533 14 -8 -39 -326 -119 -706z m-1523 207 c-33 -85 -81 -133 -107 -107 -27 26 -18 96 18 154 98 160 156 129 89 -47z m-409 -380 c-91 -155 -253 119 -179 302 70 171 79 170 151 -18 42 -110 55 -238 28 -284z m809 280 c-33 -85 -81 -133 -107 -107 -27 26 -18 96 18 154 98 160 156 129 89 -47z m-9875 -1206 c-79 -207 -260 -170 -260 53 0 107 54 321 120 475 l121 282 36 -335 c21 -184 13 -397 -17 -475z m9958 438 c-71 -71 -118 -77 -118 -15 0 134 118 252 185 185 28 -28 -2 -105 -67 -170z m-3358 -251 c-33 -33 -56 26 -52 131 5 117 28 141 60 61 29 -72 26 -159 -8 -192z m2740 173 c0 -55 64 -100 141 -100 114 0 122 -63 38 -325 -149 -466 -507 -1171 -660 -1300 -146 -122 76 551 349 1057 180 334 102 460 -177 286 -195 -122 -196 -117 -43 178 152 294 352 409 352 204z m3764 -109 c900 -274 1498 -628 1691 -1000 85 -166 240 -386 344 -490 273 -273 793 -1242 954 -1778 160 -532 123 -706 -43 -202 -61 184 -302 535 -535 782 -388 408 -631 583 -1370 986 -140 77 -480 349 -755 605 -275 256 -767 618 -1093 803 -497 284 -562 350 -400 413 306 120 478 103 1207 -119z m-5418 -916 c-39 -179 -179 -527 -311 -775 -273 -509 -226 -217 91 575 240 599 322 673 220 200z m466 -42 c-118 -203 -146 -138 -50 113 35 90 84 142 110 116 25 -26 -1 -129 -60 -229z m343 -291 c-135 -270 -247 -431 -250 -356 -5 145 409 934 462 880 18 -17 -78 -253 -212 -524z m-851 -935 c-115 -224 -235 -407 -267 -407 -101 0 65 515 243 754 249 334 264 124 24 -347z m343 -812 c-86 -168 -129 -393 -95 -500 84 -267 4 -245 -190 51 -153 233 -149 261 63 490 313 338 409 321 222 -41z"/>
<path d="M18000 51320 c0 -45 158 -233 350 -420 306 -297 350 -314 350 -137 0 111 -104 300 -231 420 -233 218 -469 287 -469 137z"/>
<path d="M5620 51480 c-66 -66 -120 -173 -120 -238 0 -127 565 -276 710 -186 154 96 99 332 -103 440 -250 134 -340 131 -487 -16z"/>
<path d="M8721 47932 c-440 -455 -821 -944 -821 -1054 0 -208 313 -30 740 422 260 275 585 528 722 562 310 78 280 375 -42 421 -159 22 -341 -84 -599 -351z"/>
<path d="M20818 45996 c24 -72 109 -161 188 -198 579 -266 1290 -669 1533 -870 299 -247 518 -193 406 100 -34 88 -307 350 -607 581 -432 333 -652 431 -1055 470 -392 38 -499 19 -465 -83z"/>
<path d="M11662 46871 c-91 -67 -194 -288 -227 -492 -47 -290 -3 -466 203 -817 169 -289 262 -595 262 -863 0 -563 232 -480 305 109 43 348 2 544 -195 924 -206 398 -229 515 -130 674 238 380 92 692 -218 465z"/>
<path d="M16963 44529 c-131 -130 -50 -231 344 -433 594 -303 708 -185 175 182 -251 173 -485 286 -519 251z"/>
<path d="M18350 43700 c192 -213 450 -268 450 -98 0 57 -115 147 -257 200 -366 140 -397 124 -193 -102z"/>
<path d="M20254 44106 c-42 -68 -30 -170 27 -227 57 -57 77 -172 45 -255 -38 -100 -10 -135 83 -104 196 65 223 299 59 522 -102 140 -157 156 -214 64z"/>
<path d="M20160 42941 c-73 -191 17 -367 147 -287 119 74 122 446 4 446 -49 0 -117 -72 -151 -159z"/>
<path d="M17543 39589 c-108 -174 118 -257 876 -320 385 -33 813 -132 950 -222 285 -187 424 -118 267 133 -242 385 -1906 711 -2093 409z"/>
<path d="M2859 34509 c-362 -370 -417 -691 -99 -569 81 31 140 -8 140 -93 0 -195 191 -186 418 19 101 91 284 216 407 278 259 129 362 456 143 456 -81 0 -173 68 -204 150 -99 258 -408 165 -805 -241z m341 -259 c-71 -85 -151 -132 -179 -105 -27 28 8 120 79 205 71 85 151 132 179 105 27 -28 -8 -120 -79 -205z"/>
<path d="M19986 36338 c-690 -204 -1870 -1338 -1393 -1338 120 0 407 287 407 407 0 51 66 93 146 93 80 0 227 83 325 184 98 101 393 270 654 375 729 294 624 505 -139 279z"/>
<path d="M7925 29552 c-124 -55 -225 -156 -225 -226 0 -162 115 -160 345 8 251 183 163 344 -120 218z"/>
<path d="M9250 29500 c-82 -132 38 -319 157 -246 121 75 121 346 -1 346 -52 0 -122 -45 -156 -100z"/>
<path d="M6275 27598 c-261 -164 -475 -369 -475 -455 0 -130 50 -121 296 54 162 116 464 269 669 340 206 71 391 182 413 246 72 218 -423 116 -903 -185z"/>
<path d="M12725 19322 c-70 -184 126 -362 318 -288 240 92 197 423 -54 423 -117 0 -235 -61 -264 -135z"/>
<path d="M16275 22142 c-220 -222 -25 -292 815 -294 706 -2 855 22 723 114 -202 142 -1433 286 -1538 180z"/>
<path d="M10308 11958 c-4 -105 19 -164 52 -131 34 33 37 120 8 192 -32 80 -55 56 -60 -61z"/>
<path d="M2400 6956 c0 -86 45 -156 100 -156 55 0 100 42 100 94 0 52 -45 122 -100 156 -55 34 -100 -8 -100 -94z"/>
<path d="M15100 3746 c0 -84 200 -276 444 -425 244 -149 499 -372 566 -496 141 -256 290 -296 290 -79 0 175 -997 1154 -1175 1154 -69 0 -125 -69 -125 -154z"/>
<path d="M14553 51505 c-32 -52 -50 -266 -41 -475 10 -209 -17 -571 -60 -805 -63 -346 -50 -425 73 -425 257 0 391 269 448 894 37 409 14 651 -72 754 -144 174 -263 194 -348 57z"/>
<path d="M7425 49875 c55 -165 1062 -328 1197 -193 198 198 -43 318 -636 318 -438 0 -591 -34 -561 -125z"/>
<path d="M12262 42629 c-31 -31 -33 -96 -3 -143 70 -114 341 -111 341 3 0 111 -259 218 -338 140z"/>
<path d="M13225 42463 c-440 -216 -316 -281 943 -497 450 -78 929 -120 1064 -94 134 26 275 -2 312 -63 37 -60 178 -109 313 -109 135 0 324 -43 419 -95 375 -205 1672 -486 3224 -699 468 -65 1060 -152 1316 -195 274 -46 538 -39 640 18 151 85 136 113 -125 222 -164 69 -631 156 -1039 193 -1407 129 -1561 153 -1930 308 -204 85 -410 130 -458 100 -48 -29 -1003 172 -2121 449 -1118 277 -2101 518 -2183 537 -82 19 -251 -15 -375 -75z"/>
<path d="M21767 30133 c-107 -106 -63 -1046 69 -1483 124 -412 441 -578 384 -200 -17 110 -83 549 -147 975 -111 743 -160 855 -306 708z"/>
<path d="M0 26367 c0 -352 31 -392 450 -577 248 -110 450 -242 450 -295 0 -158 -258 -107 -527 105 -326 257 -373 252 -373 -39 0 -173 93 -283 340 -400 430 -204 626 -204 740 0 68 121 169 144 405 92 173 -38 315 -105 315 -148 0 -44 137 -52 305 -17 437 89 349 231 -294 476 -763 292 -1481 709 -1662 967 -143 206 -149 199 -149 -164z"/>
<path d="M22606 24373 c9 -630 -27 -1230 -79 -1334 -113 -227 -90 -1728 36 -2289 67 -296 140 -400 282 -400 276 0 404 530 186 771 -214 236 -233 1554 -24 1683 96 60 142 321 151 866 15 945 -36 1230 -219 1230 -81 0 -139 102 -139 244 0 134 -47 273 -105 309 -71 44 -99 -304 -89 -1080z"/>
<path d="M500 24717 c0 -141 113 -206 259 -150 77 30 115 94 85 143 -70 113 -344 118 -344 7z"/>
<path d="M1449 24588 c-844 -450 -1449 -909 -1449 -1098 0 -251 94 -240 500 60 186 138 392 250 457 250 65 0 175 68 245 152 69 83 288 226 487 317 198 92 373 174 388 184 51 34 -98 347 -164 347 -36 0 -245 -96 -464 -212z"/>
<path d="M24900 20189 c0 -60 -204 -473 -454 -917 -250 -444 -433 -862 -407 -930 26 -67 99 -1015 162 -2107 146 -2502 26 -4595 -353 -6185 -145 -605 -392 -1707 -549 -2450 -158 -742 -359 -1659 -448 -2037 -150 -642 -201 -1079 -453 -3913 -54 -605 -124 -1224 -156 -1375 l-58 -275 1408 0 1408 0 0 10150 c0 5583 -22 10150 -50 10150 -27 0 -50 -50 -50 -111z"/>
<path d="M23046 18694 c-90 -146 57 -2418 165 -2553 50 -62 50 -536 1 -1100 -47 -545 -72 -1528 -55 -2184 26 -976 61 -1209 194 -1284 146 -81 162 4 153 793 -5 486 12 1694 38 2684 41 1547 -17 2557 -203 3525 -45 239 -184 295 -293 119z"/>
<path d="M5663 17184 c-149 -228 -257 -487 -238 -575 22 -106 125 -16 310 274 338 527 416 717 293 717 -51 0 -215 -187 -365 -416z"/>
<path d="M23650 17500 c-34 -55 8 -100 94 -100 86 0 156 45 156 100 0 55 -42 100 -94 100 -52 0 -122 -45 -156 -100z"/>
<path d="M5971 16975 c-252 -546 -259 -703 -29 -614 132 51 458 774 458 1017 0 278 -202 88 -429 -403z"/>
<path d="M12 15925 c6 -219 32 -292 61 -175 28 110 96 229 151 264 114 71 16 286 -130 286 -52 0 -89 -169 -82 -375z"/>
<path d="M2500 16000 c0 -55 45 -100 100 -100 55 0 100 45 100 100 0 55 -45 100 -100 100 -55 0 -100 -45 -100 -100z"/>
<path d="M3925 15229 c-124 -23 -225 -113 -225 -198 0 -121 70 -142 313 -93 171 34 374 62 450 62 75 0 137 68 137 150 0 149 -195 172 -675 79z"/>
<path d="M4269 14719 c-239 -20 -367 -76 -342 -150 57 -170 679 -170 744 0 69 180 51 187 -402 150z"/>
<path d="M4400 14254 c-289 -78 -462 -184 -484 -297 -28 -142 12 -163 200 -110 529 150 784 285 784 415 0 76 -11 132 -25 125 -14 -7 -227 -67 -475 -133z"/>
<path d="M23123 10981 c62 -185 277 -216 277 -39 0 87 -71 158 -158 158 -87 0 -141 -53 -119 -119z"/>
<path d="M0 10765 c0 -196 214 -353 585 -427 288 -58 315 -41 315 194 0 141 -44 284 -99 317 -57 35 -73 -5 -39 -94 75 -196 -90 -197 -467 -2 -247 127 -295 129 -295 12z"/>
<path d="M22725 10466 c-125 -193 -307 -1895 -221 -2061 45 -85 109 -241 142 -347 102 -322 280 -27 512 852 187 705 195 823 68 950 -89 89 -123 238 -87 382 45 179 12 248 -140 287 -109 29 -233 0 -274 -63z"/>
<path d="M4765 9117 c-411 -454 87 -1225 515 -797 168 168 150 547 -30 616 -82 32 -150 127 -150 211 0 205 -133 193 -335 -30z"/>
<path d="M22088 7633 c-6 -45 -2 -169 9 -273 12 -105 -34 -293 -101 -418 -70 -130 -89 -307 -46 -410 109 -258 56 -924 -104 -1307 -182 -436 -300 -1946 -170 -2178 79 -142 124 -24 213 562 62 407 186 1079 275 1491 90 413 185 953 211 1200 27 247 86 474 132 503 108 68 -149 828 -296 877 -61 20 -116 -1 -123 -47z"/>
<path d="M4949 6198 c-35 -111 -51 -407 -36 -657 15 -249 -21 -485 -80 -522 -65 -42 -113 -504 -122 -1164 -7 -603 -55 -1368 -106 -1700 -50 -333 -95 -954 -99 -1380 l-7 -775 342 0 c188 0 369 56 401 125 46 100 70 100 116 0 32 -69 137 -125 233 -125 145 0 202 183 339 1075 242 1575 320 2725 185 2725 -118 0 -136 -65 -320 -1125 -65 -371 -158 -675 -206 -675 -115 0 -112 82 22 707 75 353 79 586 10 738 -64 139 -71 497 -20 963 45 408 63 761 40 784 -94 95 -143 -96 -190 -750 -28 -381 -104 -1052 -170 -1492 l-120 -800 -75 492 c-41 271 -41 564 0 650 60 128 70 799 15 1008 -7 28 -8 511 -1 1075 11 1014 -26 1216 -151 823z m611 -4671 c-33 -33 -56 26 -52 131 5 117 28 141 60 61 29 -72 26 -159 -8 -192z m-500 -300 c-33 -33 -56 26 -52 131 5 117 28 141 60 61 29 -72 26 -159 -8 -192z m540 -27 c0 -55 -45 -100 -100 -100 -55 0 -100 45 -100 100 0 55 45 100 100 100 55 0 100 -45 100 -100z m-534 -527 c-28 -68 -49 12 -47 177 3 165 25 220 50 123 26 -97 24 -232 -3 -300z"/>
<path d="M4213 4275 c-55 -289 -129 -910 -164 -1381 -90 -1207 -276 -1446 -337 -432 -18 298 18 428 131 472 162 62 199 350 94 741 -88 330 -237 274 -237 -89 0 -173 -67 -364 -150 -425 -82 -61 -152 -223 -154 -361 -3 -137 -4 -632 -4 -1100 0 -467 -5 -917 -12 -1000 -38 -491 27 -700 220 -700 149 0 203 70 211 275 l10 275 109 -275 c154 -391 319 -340 327 100 4 206 45 1286 91 2400 46 1114 57 2025 25 2025 -33 0 -104 -236 -160 -525z"/>
<path d="M6356 2675 c-218 -1835 -271 -2249 -313 -2450 -46 -221 -29 -225 905 -225 691 0 954 34 960 125 6 100 18 100 58 0 92 -227 334 -136 334 125 0 156 -57 250 -150 250 -93 0 -150 94 -150 247 0 190 -39 232 -167 183 -134 -52 -152 -26 -89 128 130 318 114 487 -44 490 -104 2 -140 87 -118 277 18 152 -17 275 -77 275 -169 0 -305 -458 -307 -1032 0 -285 -46 -585 -101 -668 -68 -102 -84 189 -49 919 51 1059 -48 1458 -239 962 -78 -203 -98 -210 -159 -57 -39 95 -28 298 24 450 111 322 64 526 -123 526 -85 0 -155 -188 -195 -525z m253 -1847 c-89 -155 -103 -143 -106 89 -2 147 31 349 72 450 63 153 80 138 106 -89 18 -150 -15 -353 -72 -450z"/>
<path d="M2771 2568 c-28 -72 -7 -533 45 -1025 143 -1329 183 -1543 291 -1543 84 0 48 1556 -53 2250 -15 110 -34 256 -41 325 -17 165 -178 160 -242 -7z"/>
<path d="M2267 1812 c-31 -159 -17 -440 33 -625 50 -185 86 -404 80 -487 -33 -441 31 -700 173 -700 124 0 144 93 103 475 -28 261 -78 734 -111 1050 -64 622 -186 747 -278 287z"/>
<path d="M370 1761 c-41 -104 -51 -213 -22 -242 91 -91 171 58 133 248 -35 174 -40 174 -111 -6z"/>
<path d="M1767 1433 c-121 -120 -70 -506 83 -633 83 -68 150 -276 150 -462 0 -186 50 -338 112 -338 71 0 87 100 45 275 -36 151 -92 489 -124 750 -56 455 -121 554 -266 408z"/>
<path d="M13900 529 c-823 -405 -912 -473 -669 -505 155 -21 380 25 500 103 487 314 1411 544 2020 503 l599 -41 -236 205 c-417 363 -1103 281 -2214 -265z"/>
<path d="M1201 625 c3 -336 123 -625 261 -625 167 0 171 75 28 485 -118 340 -291 424 -289 140z"/>
<path d="M15874 292 c-96 -57 -366 -140 -600 -186 -355 -70 -269 -85 526 -92 l950 -7 -236 196 c-265 221 -384 237 -640 89z"/>
<path d="M300 157 c0 -92 85 -157 208 -157 244 0 210 234 -41 282 -99 19 -167 -32 -167 -125z"/>
</g>
</svg>