<svg xmlns="http://www.w3.org/2000/svg" version="1.0" width="250" height="525" viewBox="0 0 250.000000 525.000000" preserveAspectRatio="xMidYMid meet">
<metadata>
Created by potrace 1.10, written by Peter Selinger 2001-2011
</metadata>
<g transform="translate(0.000000,525.000000) scale(0.010000,-0.010000)" fill="#555555" stroke="none">
<path d="M1100 51191 c0 -70 -162 -361 -359 -648 -522 -757 -463 -871 472 -902 920 -30 1467 -273 1788 -793 295 -477 186 -550 -217 -147 -584 584 -1327 665 -1728 188 -217 -258 -250 -372 -195 -675 92 -510 254 -782 840 -1414 683 -736 1038 -1194 975 -1257 -29 -29 -257 62 -508 202 -784 438 -1473 260 -1461 -375 3 -176 -25 -469 -63 -651 -55 -265 -23 -378 161 -575 127 -134 268 -244 314 -244 46 0 393 -206 772 -458 475 -316 786 -614 1002 -961 l312 -502 -328 209 c-535 343 -1514 812 -1696 812 -94 0 -287 -101 -430 -225 -243 -210 -255 -263 -191 -805 89 -747 290 -988 1055 -1268 411 -149 755 -363 1006 -623 452 -471 410 -641 -101 -412 -646 288 -1043 285 -1395 -11 -588 -495 -648 -1381 -121 -1774 219 -163 307 -170 804 -65 956 201 1213 -152 313 -429 -379 -117 -534 -239 -793 -623 -177 -263 -351 -635 -387 -828 -56 -297 -23 -395 215 -644 155 -161 340 -293 413 -293 72 0 131 -37 131 -82 0 -150 -545 -689 -859 -849 -507 -259 -841 -783 -841 -1319 0 -399 25 -456 178 -407 373 118 1460 171 4091 196 1763 18 2766 65 2850 135 78 64 434 94 873 72 755 -36 993 29 1372 374 204 185 239 187 743 37 291 -86 698 -157 905 -157 207 0 404 -45 438 -100 146 -236 2116 69 2772 429 l372 204 264 -264 c317 -316 784 -422 1272 -287 328 90 361 80 389 -117 30 -206 83 -216 1281 -231 688 -9 1948 -44 2800 -79 853 -34 1663 -64 1800 -67 138 -3 295 -36 350 -74 55 -38 483 -67 950 -66 793 2 848 15 819 202 -16 110 -46 380 -66 600 -19 220 -39 434 -44 475 -5 41 -79 75 -166 75 -205 0 -1243 1041 -1243 1247 0 87 79 188 175 224 270 99 322 234 323 837 2 658 -238 962 -837 1060 l-367 59 378 254 c617 416 751 616 677 1017 -35 194 -132 458 -216 589 -137 212 -209 231 -696 191 -363 -30 -531 -9 -507 64 20 59 145 121 278 138 408 50 783 233 831 406 149 534 162 846 48 1161 -116 323 -161 353 -524 353 -229 0 -475 -70 -580 -165 -171 -155 -183 -154 -183 30 0 123 169 302 458 485 784 495 994 938 750 1580 -107 280 -394 424 -545 273 -57 -57 -178 -103 -271 -103 -92 0 -224 -67 -292 -150 -170 -205 -300 -188 -300 38 0 127 176 277 546 464 847 429 1004 646 1004 1391 0 362 -54 691 -128 781 -167 201 -555 271 -787 143 -170 -94 -173 -87 -35 90 83 106 173 216 200 243 292 292 541 816 580 1223 39 408 9 525 -184 732 -422 449 -1007 246 -1465 -509 -114 -187 -120 -185 -125 44 -8 325 732 1010 1092 1010 364 0 566 188 642 598 35 191 158 542 273 780 116 238 191 452 167 475 -53 53 -570 64 -2330 48 -770 -7 -2072 35 -2893 94 -1682 121 -2092 78 -2334 -242 l-168 -222 -467 234 c-772 388 -946 317 -1373 -565 -199 -409 -204 -459 -56 -550 476 -293 647 -520 986 -1308 253 -590 351 -943 309 -1112 -51 -204 -88 -226 -208 -127 -80 67 -146 179 -146 250 0 236 -885 1222 -1159 1290 -345 87 -668 -204 -831 -749 -137 -456 -104 -540 283 -740 372 -193 569 -654 642 -1504 52 -611 32 -746 -163 -1060 -609 -987 -831 -1290 -945 -1290 -68 0 -263 275 -433 611 -294 583 -303 636 -189 1111 78 322 222 589 407 755 522 465 262 1223 -419 1223 -264 0 -332 -57 -475 -399 -239 -567 -327 -496 -152 124 81 289 184 660 229 825 348 1286 928 2225 1294 2095 256 -91 611 236 611 562 0 375 -239 853 -494 990 -1005 538 -2371 -1092 -2741 -3272 -102 -602 -195 -764 -287 -500 -24 69 -17 584 14 1145 56 990 68 1029 397 1369 296 305 332 395 280 714 -33 201 -112 428 -176 506 -164 196 -1387 192 -1649 -6 -246 -186 -436 -190 -636 -15 -113 99 -300 120 -658 74 -507 -64 -4296 32 -5625 144 -548 46 -725 30 -725 -65z m926 -505 c-49 -49 -236 -59 -415 -23 -402 80 -225 219 199 157 178 -26 268 -82 216 -134z m8017 -43 c204 -205 199 -265 -53 -553 -347 -398 -489 -754 -556 -1387 -34 -332 -95 -603 -134 -603 -75 0 -198 832 -199 1352 -1 192 113 441 311 680 341 415 329 578 -25 330 -206 -144 -241 -144 -406 6 -291 262 -215 332 362 332 360 0 596 -53 700 -157z m-7318 -9 c-69 -28 -181 -28 -250 0 -69 28 -12 50 125 50 138 0 194 -22 125 -50z m4875 -59 c0 -41 -79 -75 -175 -76 -512 -3 -2105 -1152 -2133 -1539 -4 -61 -83 113 -175 385 -144 425 -244 541 -717 824 -424 255 -665 331 -1050 332 -343 1 -454 31 -355 94 172 108 4604 89 4605 -20z m5107 -33 c112 -136 79 -208 -234 -503 -410 -387 -1372 -2229 -1375 -2633 0 -141 -45 -323 -98 -406 -256 -396 -64 673 308 1711 565 1579 563 1568 364 1406 -295 -243 -686 -1276 -1160 -3067 -90 -340 -97 -282 -49 394 43 597 141 984 397 1566 187 425 343 810 346 856 4 46 209 253 457 459 481 400 831 473 1044 217z m4748 -287 c281 -282 329 -846 106 -1255 -76 -137 -326 -621 -558 -1075 -231 -453 -474 -858 -540 -900 -100 -62 -551 -688 -1013 -1403 -55 -85 -338 -508 -628 -940 -291 -432 -573 -886 -627 -1009 -104 -236 -173 -345 -907 -1437 -253 -377 -595 -926 -760 -1219 l-298 -534 -213 334 c-117 183 -314 473 -440 644 -515 706 -1034 1537 -1460 2339 -249 468 -676 1142 -948 1499 -273 357 -578 840 -678 1073 -100 233 -339 669 -532 970 -534 835 -1096 2197 -1024 2482 74 295 442 476 970 476 430 0 472 -60 248 -356 -81 -107 -148 -289 -150 -405 -4 -261 631 -1500 942 -1839 561 -612 2020 -2834 2614 -3982 555 -1074 734 -1221 1184 -979 341 185 624 619 1441 2211 85 165 355 593 600 950 246 358 609 958 806 1334 567 1078 686 1279 896 1522 472 542 543 1053 207 1481 l-208 263 362 0 c251 0 437 -75 608 -245z m-14580 7 c890 -111 1075 -168 1400 -430 492 -396 645 -961 635 -2332 -9 -1114 -255 -3858 -408 -4542 -50 -224 -143 -858 -206 -1408 -177 -1528 -249 -1988 -541 -3450 -539 -2692 -698 -3066 -1676 -3937 -598 -532 -1579 -1155 -1579 -1002 0 118 321 439 440 440 228 2 1019 729 1231 1131 638 1211 847 1925 1083 3718 73 550 200 1495 282 2100 372 2734 575 5867 457 7050 -77 771 -408 1601 -767 1927 -294 266 -827 444 -1551 519 -484 50 -675 110 -675 212 0 178 475 179 1875 4z m12043 49 c249 -96 827 -983 937 -1436 116 -480 -98 -298 -439 373 -368 724 -416 775 -615 653 -113 -70 -117 -137 -20 -349 181 -398 149 -398 -231 5 -375 398 -419 534 -230 723 143 143 288 151 598 31z m5613 -10 c828 -1 1259 -36 1219 -101 -34 -55 -170 -100 -302 -100 -332 0 -1203 -355 -1712 -699 l-423 -286 -165 253 c-168 255 -419 279 -873 85 -148 -63 -175 -19 -175 280 0 196 -45 383 -100 417 -55 34 -100 111 -100 170 0 74 217 88 675 45 371 -35 1251 -64 1956 -64z m2069 -86 c0 -350 -257 -736 -581 -871 -1146 -479 -1598 -1335 -1317 -2494 53 -220 119 -1052 147 -1850 93 -2693 631 -7621 965 -8850 281 -1035 996 -2201 1626 -2654 618 -443 613 -639 -12 -569 -334 38 -533 125 -683 299 -251 292 -914 683 -1567 925 -623 230 -647 305 -736 2299 -29 660 -121 1515 -204 1900 -150 693 -201 1072 -486 3600 -197 1748 -381 4485 -395 5868 -6 520 37 727 194 936 283 379 1363 1008 1842 1072 222 30 528 147 680 261 289 216 527 273 527 128z m-13749 -608 c-80 -473 -163 -508 -357 -146 -128 239 -120 276 98 452 301 245 344 195 259 -306z m7430 218 c48 -96 58 -287 22 -425 l-67 -250 -168 320 c-92 176 -168 367 -168 425 0 172 286 119 381 -70z m-9452 -1014 c209 -486 531 -1127 716 -1423 185 -296 501 -860 703 -1253 201 -394 517 -891 700 -1106 345 -403 593 -789 950 -1479 235 -456 449 -832 596 -1050 701 -1042 945 -1393 1131 -1629 135 -171 241 -479 273 -792 61 -597 253 -737 354 -259 93 443 615 1435 1019 1940 181 226 329 444 329 484 0 41 157 258 350 483 193 225 350 484 350 576 0 92 135 353 300 581 165 228 300 453 300 500 0 47 95 171 211 276 115 104 302 370 413 590 112 220 236 423 277 450 40 28 195 230 343 450 149 220 399 542 556 715 158 173 397 533 533 800 319 629 1198 1563 1429 1518 253 -48 308 -373 390 -2300 89 -2075 91 -2100 233 -3683 271 -3023 328 -3501 525 -4379 281 -1253 313 -3163 65 -3871 -187 -534 -187 -534 -1566 -1352 -821 -486 -1013 -560 -1136 -438 -87 87 317 822 536 975 186 130 483 544 814 1131 390 694 310 1715 -326 4140 -51 195 -141 915 -200 1600 -179 2088 -282 2988 -354 3105 -107 173 -70 1505 50 1821 156 410 132 568 -86 568 -177 0 -807 -643 -807 -823 0 -43 -264 -472 -587 -953 -560 -835 -2123 -3736 -2257 -4190 -61 -208 -690 -1305 -1379 -2407 -556 -889 -509 -918 -1804 1073 -447 688 -972 1461 -1168 1719 -505 668 -891 1307 -1280 2122 -582 1218 -1916 3159 -2171 3159 -198 0 -313 -434 -608 -2300 -144 -907 -390 -2460 -549 -3450 -639 -4007 -721 -4641 -654 -5087 93 -624 416 -1047 1042 -1366 379 -193 601 -389 765 -677 127 -224 206 -431 176 -460 -71 -71 -602 228 -923 519 -139 127 -500 371 -803 544 -302 172 -586 373 -631 447 -44 73 -161 211 -259 307 -304 296 -311 492 -57 1496 136 535 248 1108 249 1275 1 166 92 640 202 1052 110 413 241 1065 291 1450 285 2199 408 3037 493 3350 53 193 124 733 160 1200 36 468 106 1278 156 1800 50 523 92 1226 93 1563 2 420 50 652 153 737 83 68 150 173 150 233 0 111 697 869 795 865 30 -2 226 -401 434 -887z m8378 -25 c174 -324 289 -786 197 -786 -82 0 -404 718 -404 902 0 160 85 112 207 -116z m-12492 -661 c363 -371 708 -821 767 -1000 59 -179 95 -325 79 -325 -16 0 -240 271 -497 603 -503 647 -892 909 -1078 723 -77 -77 46 -265 439 -663 554 -564 1176 -1673 1173 -2092 -3 -461 -152 -456 -340 11 -235 582 -908 1541 -1448 2062 -650 629 -696 1356 -85 1356 276 0 438 -111 990 -675z m10685 -206 c0 -154 113 -433 250 -619 351 -476 312 -577 -60 -153 -171 194 -374 353 -450 353 -165 0 -182 235 -36 507 150 280 296 237 296 -88z m8917 116 c101 -92 183 -298 183 -460 0 -331 -274 -975 -415 -975 -50 0 -189 -165 -308 -366 -119 -202 -235 -310 -258 -242 -46 140 273 908 378 908 124 0 399 691 300 752 -150 93 -281 -29 -520 -484 -187 -354 -226 -385 -255 -200 -36 228 192 757 456 1057 188 215 211 216 439 10z m-11507 -1706 c-96 -165 -104 -163 -107 29 -3 232 124 412 177 252 19 -56 -13 -183 -70 -281z m1326 22 c31 -82 -88 -382 -265 -666 -342 -552 -516 -455 -218 122 127 245 137 337 44 395 -68 42 -92 126 -54 187 100 161 426 136 493 -38z m2082 -673 c-71 -71 -118 -77 -118 -15 0 134 118 252 185 185 28 -28 -2 -105 -67 -170z m8461 -778 c-28 -436 -46 -459 -575 -725 -300 -151 -558 -275 -575 -275 -109 0 27 253 373 691 238 301 347 509 266 509 -75 0 -218 -90 -318 -200 -208 -230 -350 -258 -350 -69 0 144 434 579 750 751 291 159 466 -120 429 -682z m-20703 425 c416 -225 1224 -1009 1224 -1188 0 -145 -160 -190 -217 -60 -45 105 -1442 923 -1575 923 -192 0 -114 -321 133 -550 133 -123 357 -253 498 -288 330 -83 928 -607 1123 -986 208 -402 109 -456 -155 -85 -119 166 -593 551 -1055 855 -462 304 -868 600 -904 657 -35 57 -34 283 3 501 58 346 100 396 334 396 148 0 414 -79 591 -175z m4679 -1497 c332 -750 308 -836 -105 -385 -258 282 -350 473 -350 725 0 461 151 348 455 -340z m10364 -83 c54 -543 29 -805 -117 -1240 -174 -514 -191 -533 -255 -278 -38 150 -36 351 3 448 149 360 147 965 -3 1193 -123 188 -127 266 -24 431 208 333 323 172 396 -554z m-626 -526 c-4 -148 -41 -356 -83 -462 -61 -157 -92 -167 -162 -53 -91 146 -83 658 12 811 98 159 240 -22 233 -296z m-9989 -476 c226 -408 316 -819 195 -893 -56 -35 -128 70 -162 238 -33 166 -145 379 -248 472 -208 188 -260 580 -69 517 66 -22 194 -172 284 -334z m1196 1 c0 -134 -45 -244 -100 -244 -55 0 -100 138 -100 306 0 178 42 280 100 244 55 -34 100 -172 100 -306z m15035 134 c97 -371 -37 -659 -407 -878 -443 -261 -513 -200 -228 200 247 346 195 507 -103 321 -395 -246 -417 -22 -32 334 336 312 691 323 770 23z m-20809 -581 c499 -238 1149 -755 1061 -843 -34 -34 -294 83 -578 260 -463 287 -533 305 -669 169 -137 -137 -89 -193 453 -543 333 -214 606 -444 606 -511 1 -110 -315 12 -1299 503 -420 210 -545 1168 -152 1168 85 0 345 -91 578 -203z m14353 -378 l98 -282 -330 103 c-275 86 -315 134 -235 282 141 264 355 216 467 -103z m-10141 -235 c60 -298 -37 -478 -260 -482 -75 -2 -81 692 -7 825 79 140 202 -19 267 -343z m9108 -659 c-72 -869 46 -1087 806 -1486 869 -455 1259 -1118 923 -1568 -105 -140 -1224 -871 -1335 -871 -19 0 -100 127 -181 282 -229 444 -944 1081 -1370 1222 -214 70 -389 177 -389 237 0 60 164 379 364 709 200 330 505 893 678 1250 545 1129 580 1145 504 225z m-6976 442 c44 -72 159 -161 255 -196 96 -36 175 -159 175 -274 0 -234 -162 -181 -384 126 -86 119 -201 164 -325 124 -126 -40 -191 -13 -191 80 0 283 325 380 470 140z m9061 -320 c262 -548 215 -768 -117 -558 -141 90 -253 911 -124 911 40 0 149 -159 241 -353z m-10093 7 c208 -316 204 -378 -13 -262 -96 51 -253 117 -348 147 -107 33 -151 113 -115 207 88 227 293 187 476 -92z m-827 -575 c142 -264 22 -363 -151 -125 -118 160 -163 168 -299 55 -139 -115 -161 -106 -161 62 0 108 25 221 56 251 104 105 450 -46 555 -243z m9474 18 c30 -207 14 -221 -125 -105 -189 157 -215 443 -35 384 69 -23 141 -148 160 -279z m6795 183 c66 -66 120 -290 120 -498 0 -310 -40 -387 -225 -430 -552 -126 -871 190 -400 397 279 122 289 253 25 322 -226 59 -262 187 -75 263 222 89 432 69 555 -54z m-12994 -987 c294 -444 518 -818 499 -832 -19 -14 -245 -146 -501 -292 -257 -147 -561 -414 -675 -593 -490 -764 -452 -752 -944 -316 -243 214 -603 503 -799 640 -197 138 -382 310 -412 382 -86 213 130 510 424 584 635 159 1340 564 1553 893 120 186 242 339 270 340 28 0 292 -362 585 -806z m6814 507 c0 -195 -106 -261 -226 -140 -81 80 24 340 137 340 49 0 89 -90 89 -200z m-8174 40 c98 -97 -36 -340 -187 -340 -157 0 -163 20 -78 242 63 164 163 201 265 98z m-2526 -290 c0 -156 -57 -250 -150 -250 -177 0 -185 48 -46 307 139 260 196 243 196 -57z m1782 -33 c24 -163 -19 -217 -175 -217 -134 0 -207 65 -207 183 0 380 327 409 382 34z m9684 -74 c33 -86 9 -208 -53 -270 -141 -141 -475 146 -369 317 100 162 353 134 422 -47z m-10540 -168 c26 -69 7 -233 -42 -366 -86 -233 -94 -234 -233 -50 -207 274 -188 541 38 541 104 0 211 -56 237 -125z m-4326 -475 c115 -74 79 -97 -153 -98 -326 -2 -783 -263 -699 -399 29 -46 226 -61 438 -32 415 55 814 -96 814 -311 0 -214 -1203 -288 -1425 -87 -215 194 -220 351 -22 732 127 247 213 295 525 293 204 0 440 -45 522 -98z m3837 -212 c162 -190 166 -228 30 -364 -266 -266 -671 60 -531 426 81 212 289 186 501 -62z m11515 4 c61 -190 0 -383 -90 -284 -106 118 -163 492 -75 492 55 0 129 -93 165 -208z m5178 -502 c152 -243 -4 -683 -290 -813 -205 -93 -272 -88 -346 29 -129 204 -116 294 44 294 76 0 189 63 253 139 93 112 56 160 -188 245 -167 58 -303 156 -303 217 0 170 714 75 830 -111z m-17495 -343 c-79 -207 -135 -183 -135 59 0 113 43 179 96 147 52 -33 70 -125 39 -206z m5136 173 c67 -42 305 -362 530 -710 386 -596 427 -629 717 -571 169 33 434 61 588 61 234 0 338 92 613 547 182 301 392 549 466 550 251 5 793 -309 1152 -667 651 -651 855 -1966 438 -2816 -575 -1170 -1403 -1560 -3175 -1497 -962 35 -1108 67 -1736 386 -790 399 -1257 910 -1500 1640 -188 564 -203 788 -70 1033 52 96 153 374 225 619 102 347 268 561 757 975 626 530 768 594 995 450z m-3939 -528 c-160 -160 -474 -71 -516 147 -56 291 203 386 430 159 143 -143 166 -226 86 -306z m11344 58 c15 -335 -17 -450 -125 -450 -236 0 -389 386 -263 663 178 392 366 289 388 -213z m-12259 -488 c260 -52 288 -85 183 -212 -281 -339 -743 -76 -625 355 47 172 77 196 101 81 19 -89 172 -191 341 -224z m1539 188 c190 -147 190 -154 -41 -350 -273 -231 -415 -183 -415 139 0 382 147 450 456 211z m9876 -551 c85 -356 -66 -579 -274 -405 -209 173 -201 472 16 594 96 53 180 89 186 79 7 -9 39 -130 72 -268z m-9111 -56 c95 -208 90 -274 -27 -347 -195 -121 -525 208 -437 436 95 249 331 204 464 -89z m10179 -192 c0 -265 -263 -580 -437 -523 -62 21 -127 181 -144 356 -26 256 13 335 200 405 295 112 381 58 381 -238z m-15600 36 c0 -63 -53 -299 -117 -525 -146 -517 -331 -742 -236 -287 59 276 44 315 -97 261 -152 -58 -350 -421 -350 -643 0 -51 99 -93 220 -93 151 0 188 -32 117 -103 -136 -136 -360 -44 -520 212 -171 274 5 815 354 1089 279 220 629 269 629 89z m3904 -141 c90 -110 97 -185 20 -262 -143 -143 -324 -19 -324 222 0 233 129 250 304 40z m9604 -478 c-77 -77 -141 -75 -226 10 -90 90 -72 167 75 331 l193 214 33 -223 c19 -123 -15 -272 -75 -332z m-10430 112 c-105 -300 -416 -530 -580 -429 -96 59 -139 575 -56 657 24 23 198 45 389 49 338 7 344 0 247 -277z m1731 -374 c-233 -145 -409 -4 -409 327 l0 312 275 -275 c222 -223 248 -293 134 -364z m15632 404 c250 -276 185 -960 -91 -960 -163 0 -196 59 -176 314 14 181 -39 366 -125 437 -82 68 -149 185 -149 261 0 202 341 168 541 -52z m-14960 -385 c-34 -413 -212 -509 -264 -143 -41 288 42 518 186 518 65 0 97 -152 78 -375z m9131 -51 c110 -195 40 -375 -143 -372 -188 2 -337 131 -406 353 -53 170 -20 204 194 200 141 -3 301 -84 355 -181z m1124 -152 c-244 -764 -284 -805 -579 -589 -241 175 -131 522 224 708 312 163 433 123 355 -119z m-11990 -15 c64 -104 -239 -815 -396 -930 -197 -145 -541 -73 -694 145 -225 321 -197 402 220 649 395 232 773 292 870 136z m9796 -481 c-53 -152 -163 -276 -244 -276 -222 0 -250 465 -38 620 258 188 406 7 282 -344z m-9100 113 c106 -40 158 -187 158 -445 0 -747 -413 -1194 -790 -853 -97 87 -251 159 -343 159 -257 0 -200 158 171 468 185 155 368 383 406 507 73 236 139 264 398 164z m1156 -614 c40 -860 -1 -1067 -268 -1346 -305 -318 -727 -368 -979 -115 -152 151 -142 186 127 475 278 298 622 930 622 1143 0 104 160 196 365 210 65 5 123 -156 133 -367z m9224 89 c361 -159 493 -314 268 -314 -60 0 -240 -140 -400 -311 -168 -180 -351 -287 -435 -255 -226 87 -479 658 -411 928 51 203 104 231 333 178 150 -34 441 -136 645 -226z m-13015 -1191 c306 -174 639 -408 740 -520 l184 -203 -1652 0 c-908 0 -1860 -29 -2115 -64 -302 -41 -464 -26 -464 44 0 58 80 132 177 163 98 31 577 388 1066 793 l888 736 309 -316 c171 -174 560 -459 867 -633z m17045 0 c439 -183 880 -414 980 -513 175 -172 113 -178 -1650 -137 -1008 23 -1982 72 -2165 110 l-334 69 784 399 c495 252 856 511 981 704 l198 306 204 -303 c144 -213 440 -401 1002 -635z m-5434 519 c43 -170 170 -390 280 -491 274 -247 255 -315 -109 -388 -405 -81 -989 187 -989 453 0 107 70 329 156 495 207 401 550 365 662 -69z m-6998 -411 c329 -315 353 -485 87 -627 -206 -111 -907 -145 -907 -44 0 32 64 179 142 325 78 146 167 344 197 440 74 237 152 221 481 -94z"/>
<path d="M24713 50866 c-61 -74 -84 -162 -50 -196 34 -34 -11 -244 -100 -468 -237 -590 -215 -698 137 -673 l300 21 0 725 c0 715 -68 855 -287 591z"/>
<path d="M11706 31178 c-224 -257 -226 -257 -1590 -220 -751 21 -1556 89 -1788 152 -231 63 -490 88 -575 55 -254 -98 -172 -375 147 -495 390 -148 433 -395 374 -2141 -25 -759 -17 -1761 18 -2229 61 -800 51 -862 -165 -1063 -230 -213 -222 -593 11 -507 62 23 360 99 662 168 809 187 800 183 800 349 0 84 -86 153 -193 153 -243 0 -342 646 -351 2300 l-6 1150 600 -35 c330 -19 719 -105 864 -190 350 -206 633 -100 538 201 -39 123 -85 351 -102 506 -45 406 -107 424 -394 115 -247 -266 -275 -272 -880 -186 l-626 89 -30 526 c-41 709 -97 690 1859 620 l1029 -37 442 -479 c452 -491 712 -596 814 -330 52 136 -102 365 -1024 1522 l-210 264 -224 -258z"/>
<path d="M3200 30957 c-1054 -292 -1504 -694 -2063 -1838 -664 -1361 -569 -2139 383 -3133 777 -810 1783 -1283 2752 -1292 263 -3 591 -9 728 -15 514 -19 1792 974 2195 1708 79 145 239 553 356 906 l211 644 -196 756 c-236 909 -775 1632 -1422 1910 -1088 466 -2102 588 -2944 354z m1250 -457 c34 -55 161 -100 282 -100 263 0 924 -335 1253 -636 129 -117 372 -484 539 -813 239 -473 305 -736 313 -1250 9 -564 -36 -736 -339 -1292 -284 -522 -436 -686 -827 -888 -1668 -860 -3971 743 -3971 2765 0 1294 620 2107 1696 2224 886 97 989 96 1054 -10z"/>
<path d="M16200 30925 c-340 -170 -548 -465 -617 -875 -47 -281 233 -257 377 33 220 442 296 461 860 216 327 -141 712 -226 1005 -220 261 5 475 -6 475 -24 0 -19 -138 -365 -307 -770 -169 -404 -346 -860 -394 -1014 -48 -153 -183 -434 -301 -624 -117 -190 -367 -661 -554 -1046 -562 -1153 -804 -1483 -1116 -1519 -206 -24 -287 -94 -312 -272 -32 -225 -12 -235 350 -176 211 35 553 64 759 65 413 1 473 127 202 426 -164 181 -164 196 0 288 95 53 173 144 173 203 0 58 108 234 240 391 133 157 256 332 275 388 38 112 92 116 1467 106 l932 -7 243 -530 c255 -557 305 -874 194 -1225 -83 -263 172 -387 468 -229 113 61 331 85 484 54 182 -36 323 -4 403 93 135 163 103 219 -218 383 -250 128 -862 1760 -1203 3210 -220 935 -739 2287 -942 2456 -76 63 -288 57 -605 -16 -445 -103 -546 -89 -1111 148 -735 310 -775 313 -1227 87z m2958 -2368 c188 -694 342 -1328 342 -1409 0 -115 -142 -148 -643 -148 -773 0 -1157 127 -1157 381 0 102 29 215 64 250 73 72 535 1182 536 1286 1 157 410 1006 460 956 31 -30 210 -623 398 -1316z"/>
<path d="M23594 30643 c-153 -185 -31 -343 264 -343 173 0 276 -77 344 -257 54 -141 98 -1335 98 -2654 0 -2261 -11 -2410 -201 -2613 -261 -281 -109 -458 253 -293 142 64 347 117 457 117 196 0 200 59 174 3092 l-26 3093 -626 -4 c-398 -2 -666 -52 -737 -138z"/>
<path d="M13857 28443 c-191 -191 -197 -285 -29 -425 279 -231 830 114 704 442 -72 188 -480 178 -675 -17z"/>
<path d="M0 28250 c0 -149 43 -235 100 -200 129 80 129 320 0 400 -57 35 -100 -51 -100 -200z"/>
<path d="M5931 23375 c-45 -69 -127 -215 -184 -325 -96 -187 -218 -202 -1841 -227 -1717 -28 -1743 -25 -2102 225 -201 138 -421 252 -490 252 -69 0 -237 -259 -373 -575 -137 -316 -315 -702 -395 -858 -201 -389 -184 -486 79 -449 145 21 286 164 399 405 213 453 387 505 1462 442 l819 -47 3 -2769 c3 -2505 -13 -2780 -168 -2894 -254 -186 -110 -492 185 -393 124 41 428 83 675 92 669 26 700 34 700 185 0 77 -112 168 -250 202 -201 50 -251 126 -254 386 -16 1276 -84 3474 -132 4238 -58 915 -58 915 194 978 139 35 531 63 872 62 341 -1 688 5 770 13 83 8 360 -134 617 -315 794 -561 1108 -151 370 481 -227 195 -475 503 -551 685 -146 349 -271 413 -405 206z"/>
<path d="M7538 22655 c-71 -186 33 -355 218 -355 112 0 145 -170 150 -775 4 -426 28 -1610 54 -2631 46 -1773 39 -1864 -156 -2040 -354 -321 -251 -424 496 -497 385 -38 745 -41 800 -7 183 113 102 298 -208 474 -250 143 -293 216 -233 400 39 124 76 865 81 1646 6 804 53 1461 110 1514 55 52 751 110 1546 130 l1447 36 16 -1404 c9 -772 46 -1540 82 -1706 51 -233 20 -345 -137 -487 -366 -331 -261 -453 390 -453 617 0 806 109 607 349 -81 97 -122 921 -134 2685 -16 2367 -4 2559 172 2753 246 273 98 335 -699 293 -455 -23 -595 -68 -620 -197 -21 -111 46 -179 199 -200 208 -30 229 -81 214 -520 -10 -268 -55 -525 -100 -570 -64 -64 -2115 -130 -3023 -98 -113 4 -128 157 -79 789 l60 784 -503 116 c-640 148 -683 146 -750 -29z"/>
<path d="M20644 22554 c-202 -307 -112 -498 163 -350 113 60 354 74 569 33 206 -39 599 -75 874 -79 l500 -8 -27 -350 c-15 -192 -117 -609 -225 -925 -109 -317 -198 -663 -198 -771 0 -365 -750 -2950 -920 -3170 -49 -63 -245 -189 -435 -279 -229 -110 -345 -234 -345 -371 0 -196 36 -203 670 -136 766 83 1130 198 1130 359 0 61 -90 135 -200 164 -255 67 -252 106 58 801 142 318 344 961 449 1428 237 1050 677 2717 731 2771 43 43 1054 -1368 1251 -1746 208 -397 311 -243 311 463 0 503 -42 722 -157 818 -87 72 -241 294 -343 494 -255 501 -970 1134 -1184 1049 -455 -180 -1172 -220 -1549 -87 -597 210 -936 178 -1123 -108z"/>
<path d="M15550 22600 c-39 -63 -378 -76 -904 -36 -749 58 -849 46 -909 -113 -38 -98 -6 -272 71 -389 108 -163 148 -768 175 -2597 l36 -2385 -279 -290 c-169 -177 -241 -325 -184 -377 101 -93 3418 28 3518 128 33 33 145 -18 249 -112 266 -240 491 -70 631 479 63 243 188 586 280 762 202 389 204 430 28 430 -76 0 -328 -176 -560 -390 -854 -792 -772 -757 -1862 -794 l-1012 -33 -49 283 c-27 156 -42 464 -33 684 9 220 25 753 35 1185 l19 784 625 -34 625 -35 32 338 c45 473 -120 605 -412 331 -235 -221 -526 -278 -732 -142 -135 88 -219 482 -259 1218 l-29 545 550 -28 c323 -17 679 -107 862 -220 657 -405 809 -104 245 488 -393 414 -636 516 -757 320z"/>
<path d="M19175 20592 c-105 -61 -175 -222 -175 -403 0 -280 23 -299 325 -270 252 24 332 83 358 262 30 216 -130 523 -270 516 -35 -2 -142 -49 -238 -105z"/>
<path d="M39 19958 c-29 -77 -39 -269 -21 -425 45 -400 433 -451 602 -78 109 239 98 289 -110 457 -277 225 -398 237 -471 46z"/>
<path d="M5715 14875 c-63 -63 -115 -193 -115 -289 0 -96 -51 -206 -113 -244 -102 -63 -2250 -59 -2912 6 -151 15 -382 33 -513 40 -152 7 -259 88 -294 223 -85 325 -289 180 -622 -440 -168 -312 -426 -694 -575 -849 -276 -288 -352 -522 -170 -522 56 0 345 198 642 440 586 478 1327 712 1905 604 l320 -60 65 -2617 c59 -2415 51 -2626 -109 -2739 -341 -238 -434 -347 -394 -462 23 -64 127 -104 231 -89 104 14 437 54 739 88 303 34 636 107 741 161 185 95 183 105 -35 270 -225 169 -227 194 -242 2758 l-14 2588 798 110 c789 110 801 108 1209 -167 590 -398 936 -516 1105 -375 215 178 171 251 -321 540 -252 148 -550 423 -661 612 -246 416 -502 576 -665 413z"/>
<path d="M15973 14125 c-135 -148 -284 -167 -981 -125 -1018 62 -1178 -20 -995 -510 82 -221 145 -1141 178 -2621 50 -2230 46 -2285 -162 -2478 -117 -110 -213 -269 -213 -354 0 -132 81 -143 525 -71 528 84 1777 99 2746 32 597 -41 748 74 1320 1003 235 382 293 555 213 635 -80 80 -198 23 -432 -211 -835 -836 -891 -859 -2081 -876 -1214 -17 -1199 -25 -1143 701 17 220 36 791 42 1268 l10 869 275 32 c151 18 397 -11 546 -64 149 -53 291 -75 315 -50 24 25 59 269 79 543 29 411 4 504 -139 532 -108 21 -216 -59 -287 -213 -110 -242 -651 -430 -806 -281 -37 35 -82 402 -100 814 l-33 750 634 30 c420 20 784 -27 1079 -140 326 -125 476 -141 557 -60 80 80 -22 232 -380 561 -269 248 -517 453 -550 455 -32 2 -130 -75 -217 -171z"/>
<path d="M7664 14130 c-140 -139 -58 -430 121 -430 173 0 189 -159 256 -2464 46 -1573 36 -2499 -26 -2561 -54 -54 -203 -151 -332 -215 -128 -64 -233 -205 -233 -313 0 -216 100 -225 1015 -95 669 95 846 205 616 382 -146 111 -172 362 -188 1787 -10 911 8 1699 39 1751 33 53 788 90 1738 86 l1680 -8 26 -1750 27 -1750 -301 -200 c-450 -299 -397 -482 123 -419 421 51 896 144 1164 229 112 36 105 81 -34 234 -153 170 -171 474 -171 2838 l1 2649 -467 43 c-647 61 -841 -119 -486 -448 264 -245 277 -550 36 -858 -149 -190 -3353 -101 -3480 96 -109 169 -17 659 181 972 82 129 112 270 65 312 -111 101 -1288 214 -1370 132z"/>
<path d="M21133 14127 c-230 -21 -472 -103 -538 -183 -100 -120 -66 -164 192 -255 358 -124 325 205 350 -3506 13 -1807 6 -1875 -212 -2106 -366 -390 -293 -477 366 -437 325 20 640 67 700 104 144 89 140 356 -5 356 -83 0 -97 478 -51 1775 34 976 62 1809 63 1850 1 41 348 75 771 75 624 0 807 -37 976 -195 285 -268 546 -122 383 213 -62 128 -139 356 -172 507 -66 303 -263 357 -456 125 -144 -174 -945 -204 -1348 -51 -249 95 -260 131 -232 725 27 564 50 622 230 591 110 -20 796 -4 1525 35 1210 64 1325 87 1325 260 0 180 -92 189 -1725 173 -949 -10 -1913 -35 -2142 -56z"/>
<path d="M18652 12238 c-193 -193 -165 -528 56 -666 194 -122 727 107 766 329 64 368 -542 617 -822 337z"/>
<path d="M125 11334 c-69 -28 -125 -182 -125 -342 0 -257 36 -292 296 -292 318 0 565 297 465 558 -53 138 -384 178 -636 76z"/>
<path d="M17166 6793 c-133 -190 -209 -202 -977 -142 -458 35 -865 84 -903 108 -104 64 -586 -174 -586 -289 0 -54 69 -148 153 -210 310 -227 472 -5121 179 -5414 -81 -80 -185 -146 -232 -146 -96 0 -244 -390 -174 -459 24 -25 310 20 634 100 325 79 1116 166 1758 192 1057 43 1186 29 1341 -143 95 -104 230 -190 301 -190 185 0 429 386 502 797 35 194 133 433 218 530 124 142 130 203 31 300 -99 97 -155 81 -272 -77 -492 -668 -473 -663 -2880 -770 l-491 -22 31 796 c17 438 38 1179 46 1646 l14 850 596 9 c327 5 679 -32 781 -84 297 -149 388 44 215 457 -168 402 -261 447 -451 218 -158 -190 -1159 -210 -1219 -25 -23 69 -39 395 -36 725 l5 600 900 54 c495 29 943 18 995 -25 52 -44 221 -79 375 -79 362 0 365 222 5 454 -151 98 -311 238 -355 312 -117 196 -338 164 -504 -73z"/>
<path d="M21805 6605 c-248 -157 -1065 -225 -1443 -121 -296 82 -399 68 -577 -76 l-217 -176 209 -209 c292 -292 341 -786 305 -3090 -31 -1932 -41 -2027 -257 -2257 -381 -405 -199 -649 267 -358 147 92 281 92 586 0 499 -149 1566 -153 1854 -7 120 62 544 450 943 864 530 550 725 824 725 1019 0 146 52 318 115 381 63 63 135 443 161 845 40 640 13 799 -220 1291 -310 654 -554 903 -1494 1530 -749 500 -745 498 -957 364z m214 -830 c1362 -1091 1716 -1650 1726 -2726 5 -553 -33 -658 -470 -1321 -261 -396 -553 -761 -650 -811 -486 -250 -1716 -198 -1728 74 -1 32 -19 352 -40 709 -21 358 -53 1458 -72 2445 l-35 1796 250 69 c457 128 610 93 1019 -235z"/>
<path d="M2550 6507 c-629 -51 -703 -80 -732 -282 -19 -133 22 -229 100 -235 73 -5 242 -17 377 -25 188 -11 261 -86 308 -315 70 -342 134 -2115 142 -3950 l5 -1250 -499 -50 c-372 -37 -508 -95 -532 -225 -31 -162 124 -175 2133 -175 1883 0 2206 23 2467 175 338 198 1175 1258 1192 1510 67 1051 -529 2033 -1316 2166 -490 83 -543 166 -349 541 445 860 -56 1860 -1045 2089 -528 122 -1017 127 -2251 26z m1986 -545 c461 -192 764 -611 764 -1056 0 -613 -179 -755 -967 -764 -376 -4 -739 35 -808 87 -83 64 -125 391 -125 983 l0 888 403 0 c222 0 552 -62 733 -138z m364 -2418 c857 -79 1140 -197 1449 -601 519 -680 479 -1764 -81 -2182 -235 -176 -467 -219 -1413 -261 -622 -28 -1195 -37 -1272 -22 -111 23 -136 242 -120 1050 11 562 23 1281 28 1598 l9 576 375 -49 c206 -26 668 -75 1025 -109z"/>
<path d="M7201 6459 c-486 -82 -658 -153 -683 -284 -24 -129 33 -175 221 -175 140 0 296 -79 348 -175 52 -96 461 -445 909 -775 448 -330 925 -682 1059 -782 243 -181 245 -194 245 -1903 0 -1597 -14 -1733 -200 -1892 -110 -94 -200 -239 -200 -322 0 -212 1221 -216 1396 -5 154 185 52 354 -214 354 -168 0 -192 40 -131 225 41 124 103 1035 137 2025 66 1904 114 2096 616 2450 117 83 355 278 529 434 174 157 420 377 546 489 353 317 223 424 -549 456 -632 26 -710 9 -756 -169 -68 -257 -6 -309 368 -313 l308 -2 -363 -323 c-199 -177 -550 -473 -779 -656 l-417 -335 -771 597 c-511 396 -781 676 -803 834 -50 350 -105 366 -816 247z"/>
<path d="M12265 4117 c-186 -206 -219 -572 -59 -671 181 -111 578 45 644 254 160 503 -245 792 -585 417z"/>
<path d="M24900 1364 c0 -75 -185 -345 -410 -602 -445 -505 -476 -836 -65 -702 124 41 304 69 400 63 151 -9 175 85 175 683 0 382 -22 694 -50 694 -27 0 -50 -61 -50 -136z"/>
</g>
</svg>