<svg xmlns="http://www.w3.org/2000/svg" version="1.0" width="250" height="525" viewBox="0 0 250.000000 525.000000" preserveAspectRatio="xMidYMid meet">
<metadata>
Created by potrace 1.10, written by Peter Selinger 2001-2011
</metadata>
<g transform="translate(0.000000,525.000000) scale(0.010000,-0.010000)" fill="#555555" stroke="none">
<path d="M2 52325 c1 -150 15 -153 98 -25 74 114 97 74 98 -169 1 -176 -43 -347 -98 -381 -55 -34 -100 -264 -100 -512 0 -279 39 -426 102 -387 56 35 76 104 44 155 -31 51 -14 169 38 262 68 122 94 -7 90 -448 -5 -504 -31 -597 -140 -507 -105 87 -134 66 -134 -98 0 -138 48 -190 140 -155 108 41 135 -40 119 -354 -11 -224 -74 -461 -140 -527 -158 -158 -163 -1118 -5 -1020 83 51 92 -11 35 -219 -44 -160 -98 -3079 -119 -6488 -33 -5208 -17 -6214 100 -6300 92 -67 230 -764 407 -2052 147 -1073 310 -2241 360 -2598 55 -379 157 -694 248 -761 85 -62 155 -187 155 -277 0 -90 45 -164 100 -164 55 0 99 56 98 125 -3 251 -197 1841 -295 2425 -56 330 -144 1185 -197 1900 -52 715 -210 1804 -351 2419 -140 616 -254 1156 -252 1200 11 282 236 -462 626 -2069 349 -1438 474 -2190 563 -3376 64 -840 141 -1593 172 -1675 144 -376 237 65 248 1182 11 1040 24 1138 94 669 45 -302 124 -742 177 -976 53 -234 60 -447 17 -474 -44 -27 6 -323 110 -658 105 -336 190 -715 190 -843 0 -128 53 -250 117 -271 124 -42 137 -358 56 -1340 -60 -724 50 -994 282 -689 150 196 152 196 210 -25 32 -123 94 -224 138 -224 45 0 152 -27 239 -61 123 -47 158 8 158 247 0 334 -218 514 -622 514 -192 0 -240 58 -259 312 -14 177 38 361 119 425 123 97 124 225 8 913 -75 440 -138 984 -141 1210 -3 225 -77 554 -165 731 -123 246 -177 797 -231 2340 -38 1111 -39 2154 -1 2319 149 656 531 5205 515 6138 -14 809 -72 979 -274 811 -100 -83 -149 -311 -149 -699 0 -613 -159 -875 -461 -760 -206 79 -130 670 169 1328 158 345 242 430 385 384 204 -64 337 153 243 398 -31 83 -8 150 53 150 104 0 154 -141 119 -336 -8 -47 35 -146 97 -220 118 -142 324 -72 720 246 151 122 175 121 175 -5 0 -80 -46 -191 -103 -248 -135 -135 -24 -416 215 -543 149 -80 188 -215 188 -648 0 -300 -45 -546 -100 -546 -55 0 -100 195 -100 433 0 540 -349 950 -632 742 -198 -146 -378 -1695 -295 -2538 30 -306 -43 -1076 -179 -1900 -383 -2327 -315 -6437 107 -6437 55 0 75 385 48 925 -132 2666 -131 2996 5 3935 80 544 186 1148 235 1340 133 511 396 1172 404 1014 4 -82 70 -111 168 -74 124 48 144 21 89 -114 -525 -1289 -582 -1572 -625 -3126 -53 -1908 112 -5108 313 -6050 82 -385 165 -877 185 -1093 38 -425 277 -632 277 -240 0 128 -67 548 -148 933 -179 844 -194 1071 -56 853 51 -81 113 -126 137 -100 24 26 115 474 202 997 580 3478 673 3877 1174 5000 160 358 424 988 588 1400 239 602 298 689 300 443 6 -630 -229 -1524 -662 -2520 -245 -565 -491 -1285 -545 -1600 -54 -315 -134 -781 -177 -1035 -44 -254 -74 -1096 -69 -1872 7 -918 -23 -1377 -87 -1313 -54 54 -116 392 -139 752 -54 837 -267 826 -270 -15 -1 -324 -36 -659 -77 -742 -41 -84 -7 -377 76 -650 83 -274 152 -588 153 -698 2 -110 47 -267 102 -350 171 -262 284 69 180 532 -132 586 -45 830 321 904 251 50 290 92 218 237 -116 234 -31 1204 89 1015 48 -76 88 -389 88 -696 2 -610 64 -748 263 -583 72 60 182 76 245 37 68 -42 77 -96 21 -133 -52 -35 -142 -151 -201 -259 -66 -120 -215 -197 -387 -200 -303 -4 -410 -211 -429 -829 -11 -343 9 -357 365 -262 179 48 225 132 225 411 0 282 26 329 134 239 189 -157 266 -40 266 404 0 213 49 383 111 383 74 0 98 -238 75 -716 -28 -550 -3 -727 105 -763 100 -34 121 3 73 128 -37 97 -17 237 44 310 71 87 87 340 45 713 -101 879 -112 2011 -25 2667 68 522 60 575 -75 463 -181 -150 -193 -46 -43 383 189 544 355 383 422 -409 35 -418 20 -764 -36 -820 -53 -53 -96 -358 -96 -678 0 -522 25 -592 238 -673 197 -75 249 -186 308 -656 90 -724 12 -808 -145 -154 -130 544 -302 677 -299 230 4 -389 163 -1030 288 -1155 74 -74 159 -56 286 59 116 105 267 141 418 101 223 -58 233 -41 172 267 -36 180 -66 480 -66 666 0 246 -44 337 -164 337 -139 0 -155 -84 -107 -550 32 -312 16 -550 -36 -550 -51 0 -98 124 -105 275 -6 151 -18 421 -25 599 -7 178 43 345 112 372 69 26 126 195 127 376 3 744 168 540 298 -369 107 -758 171 -962 316 -1008 246 -78 411 39 356 252 -25 96 4 260 64 364 169 289 182 2580 20 3339 -77 358 -186 988 -243 1400 -179 1298 -596 3530 -758 4050 -262 845 -347 1631 -367 3400 -10 935 -61 1754 -112 1821 -98 127 -471 1478 -474 1716 -2 116 24 116 161 2 147 -122 156 -103 92 188 -39 178 -33 323 14 323 135 0 331 -995 331 -1678 0 -463 35 -622 138 -622 109 0 129 145 94 675 -47 696 -169 1444 -286 1750 -38 97 -21 175 36 175 57 0 118 -101 136 -224 47 -327 360 -347 480 -31 94 247 282 1387 512 3105 224 1670 311 2151 399 2206 50 30 91 259 91 506 0 454 134 838 293 838 143 0 195 -740 59 -850 -207 -169 -269 -511 -116 -639 120 -99 105 -229 -100 -875 -234 -738 -281 -1117 -394 -3186 -62 -1139 -121 -1410 -240 -1100 -43 110 -85 -857 -95 -2150 -10 -1292 -49 -2856 -88 -3475 -54 -871 -41 -1125 56 -1125 69 0 129 124 133 275 82 2835 126 3760 164 3450 24 -190 98 -325 178 -325 76 0 164 -42 195 -92 91 -147 267 -1092 356 -1908 45 -412 128 -997 185 -1300 283 -1506 334 -1805 426 -2500 55 -412 206 -1200 337 -1750 130 -550 335 -1517 455 -2150 119 -632 285 -1317 366 -1522 143 -357 335 -1122 709 -2820 222 -1014 426 -1128 393 -221 -19 541 5 660 146 697 121 31 212 -63 320 -332 169 -424 302 -505 704 -428 l279 53 -44 1462 c-24 803 -79 1540 -121 1636 -43 98 -36 175 17 175 182 0 354 -555 378 -1214 13 -366 58 -719 98 -785 41 -66 45 -382 9 -702 -70 -615 30 -816 295 -596 115 95 157 87 207 -42 34 -88 108 -161 165 -161 56 0 161 -79 232 -175 218 -295 343 -37 254 525 l-79 500 -139 -300 -138 -300 -28 450 c-15 248 35 900 112 1450 124 880 144 940 169 500 39 -703 37 -761 -37 -1125 -49 -243 -31 -325 74 -325 98 0 156 185 197 625 89 965 33 1875 -115 1875 -70 0 -131 -124 -136 -275 l-8 -275 -93 300 c-188 610 -374 1899 -288 2002 50 61 20 367 -71 730 -173 687 -148 793 146 609 155 -97 209 -279 260 -882 91 -1068 288 -1935 453 -1990 117 -38 129 138 68 1090 -39 624 -113 1356 -165 1627 -51 270 -93 1088 -93 1817 0 911 -60 1617 -191 2261 -414 2025 -358 2857 72 1086 250 -1026 266 -1128 515 -3150 479 -3886 525 -4873 247 -5296 -82 -126 -178 -643 -223 -1202 -66 -822 -50 -1065 97 -1492 97 -280 179 -600 181 -710 8 -317 171 -521 309 -383 86 86 41 324 -183 964 -164 467 -265 903 -224 969 101 163 149 63 343 -700 210 -831 373 -1200 531 -1200 178 0 156 196 -69 616 -171 320 -195 572 -196 2099 -2 2121 -173 6059 -309 7132 -167 1317 -498 3073 -905 4803 -198 839 -362 1836 -490 2983 -89 790 -370 1204 -681 1002 -178 -115 -189 -214 -69 -609 48 -159 20 -242 -98 -287 -257 -99 -450 250 -454 819 -2 403 44 552 228 725 298 279 367 273 624 -49 241 -303 445 -247 445 122 0 309 52 306 353 -18 157 -170 311 -245 435 -212 262 68 812 -442 812 -752 0 -201 -587 -1121 -665 -1042 -14 14 38 204 115 422 186 521 184 754 -9 1029 -126 180 -188 202 -300 110 -78 -65 -143 -236 -144 -380 -2 -145 -84 -432 -182 -639 -149 -315 -163 -478 -86 -1000 51 -343 91 -775 88 -959 -4 -327 706 -3272 868 -3600 45 -91 164 -536 265 -990 100 -454 227 -825 280 -825 118 0 8 1764 -147 2350 -168 637 -10 3465 224 3993 107 241 221 824 265 1357 50 599 123 949 203 975 209 69 161 -1750 -72 -2711 -108 -448 -251 -1417 -318 -2154 -106 -1181 -100 -1488 57 -2575 176 -1218 176 -1239 -21 -1572 -160 -271 -185 -425 -124 -776 41 -240 78 -2164 82 -4274 6 -3706 83 -4813 331 -4813 117 0 116 14 -58 923 -145 759 -119 1305 73 1551 54 68 132 103 174 77 68 -42 116 935 262 5333 25 734 10 1612 -33 1950 -43 339 -55 999 -26 1466 45 747 60 801 126 450 42 -220 140 -692 219 -1050 209 -949 261 -2452 94 -2673 -156 -206 -171 -961 -33 -1677 85 -439 305 -4254 313 -5433 2 -238 -47 -483 -109 -545 -83 -83 -112 -40 -112 165 0 152 -54 374 -120 495 -125 227 -136 2339 -16 3116 53 343 41 381 -86 275 -229 -190 -315 -2948 -111 -3537 102 -291 132 -609 92 -955 -57 -496 46 -765 199 -517 51 82 110 65 201 -59 70 -96 176 -145 234 -109 140 86 137 384 -6 527 -66 66 -86 248 -49 448 47 250 137 363 352 445 274 103 293 93 348 -181 32 -159 128 -317 214 -350 212 -81 329 53 145 167 -101 62 -147 265 -147 644 0 596 -182 768 -282 267 -66 -327 -361 -510 -380 -235 -6 95 -3 249 6 344 10 94 -30 428 -88 741 -129 700 -69 799 151 249 90 -226 231 -412 311 -412 157 0 135 456 -85 1750 -55 330 -74 1095 -41 1700 160 2937 303 4650 387 4650 56 0 62 -406 15 -1025 -43 -564 -73 -2319 -66 -3900 12 -2667 28 -2910 218 -3340 113 -255 279 -518 369 -584 115 -84 196 -395 270 -1035 73 -627 147 -916 236 -916 178 0 162 312 -74 1493 -218 1087 -194 1325 109 1051 103 -92 256 -142 340 -109 193 74 194 -45 4 -500 -149 -358 -209 -1542 -84 -1667 111 -112 334 144 334 384 0 124 70 253 155 286 251 96 559 921 558 1493 -1 643 -149 1209 -817 3119 -409 1170 -541 1698 -599 2400 -40 495 -144 1305 -230 1800 -87 495 -179 1148 -206 1450 -27 303 -102 708 -165 900 -70 209 -130 1275 -151 2650 -20 1265 -63 2503 -96 2750 -93 695 -176 2349 -171 3400 18 3624 43 4186 183 4132 111 -43 139 92 139 657 l0 711 -3286 0 -3287 0 -52 -650 c-28 -358 -128 -765 -220 -907 -132 -200 -143 -288 -50 -399 129 -156 55 -751 -136 -1092 -63 -111 -120 -481 -129 -821 -10 -413 -67 -672 -171 -777 -87 -86 -188 -364 -226 -619 -45 -299 -170 -572 -353 -773 l-284 -312 -3 251 c-2 139 87 498 197 799 110 301 200 644 200 761 0 118 67 270 148 338 104 86 142 285 125 662 -13 296 -57 539 -98 539 -41 0 -75 -87 -75 -194 0 -107 -45 -222 -100 -256 -55 -34 -99 -25 -99 19 3 212 297 1158 397 1278 62 75 202 512 310 970 109 458 222 912 252 1008 62 203 -213 250 -294 50 -40 -100 -52 -100 -58 0 -6 86 -206 125 -646 125 -711 0 -610 102 -1021 -1034 -96 -266 -279 -552 -405 -635 -133 -87 -258 -296 -295 -495 -36 -191 -115 -328 -178 -307 -62 21 -106 56 -97 79 9 23 74 323 145 667 97 471 171 625 299 625 157 0 288 229 499 875 105 321 -180 299 -327 -25 -63 -137 -153 -250 -200 -250 -47 0 -58 113 -23 250 57 225 33 250 -240 250 -260 0 -321 -52 -422 -359 -84 -255 -150 -328 -225 -253 -76 76 -59 161 60 293 93 101 168 215 168 252 0 37 -264 67 -588 67 l-588 0 -123 -825 c-68 -454 -215 -982 -326 -1175 -132 -229 -197 -508 -187 -809 8 -252 -50 -642 -129 -865 -79 -224 -131 -521 -116 -659 15 -139 -13 -312 -64 -385 -85 -123 -52 927 66 2118 69 689 265 1300 418 1300 83 0 137 109 138 275 1 151 29 444 63 650 l62 375 -467 0 c-445 0 -465 -12 -438 -265 16 -145 -27 -284 -96 -308 -82 -29 -125 61 -125 265 0 302 -9 308 -493 308 -406 0 -505 -36 -557 -200 -35 -110 -150 -200 -256 -200 -106 0 -249 90 -317 200 -117 188 -233 200 -1865 200 -1540 0 -1755 -20 -1873 -175 -126 -167 -133 -167 -136 0 -3 150 -104 175 -703 175 -601 0 -700 -25 -698 -175z m6558 -198 c-33 -33 -56 26 -52 131 5 117 28 141 60 61 29 -72 26 -159 -8 -192z m2251 -431 c-89 -223 -99 -208 -105 162 -3 225 28 443 69 485 118 120 145 -373 36 -647z m8708 -1396 c-33 -577 -54 -1197 -47 -1377 8 -189 -27 -301 -83 -266 -80 49 -63 3549 18 3743 84 201 161 -1247 112 -2100z m-5521 1975 c0 -14 -62 -200 -136 -413 l-135 -389 -46 311 c-43 294 60 516 239 516 44 0 79 -11 78 -25z m-2198 -381 c0 -52 -45 -94 -100 -94 -55 0 -100 70 -100 156 0 86 45 128 100 94 55 -34 100 -104 100 -156z m-8000 10 c0 -54 -90 -145 -200 -204 -157 -84 -200 -76 -200 38 0 132 130 234 325 254 41 4 75 -35 75 -88z m9237 -438 c-35 -256 -103 -466 -151 -466 -110 0 -109 21 27 560 142 565 207 516 124 -94z m-7237 392 c0 -23 27 -113 61 -200 40 -104 5 -158 -100 -158 -94 0 -161 83 -161 200 0 110 45 200 100 200 55 0 100 -19 100 -42z m15569 -433 c-25 -96 -46 -17 -46 175 0 192 21 271 46 175 25 -96 25 -254 0 -350z m-13800 250 c44 -69 88 -327 99 -575 10 -247 38 -945 61 -1550 48 -1224 135 -1750 291 -1750 57 0 79 -93 49 -206 -29 -114 55 -722 189 -1351 270 -1275 278 -1343 157 -1343 -103 0 -382 1052 -469 1770 -35 285 -143 611 -240 723 -142 164 -190 485 -250 1680 -41 812 -90 1758 -110 2102 -35 594 46 775 223 500z m629 -400 c1 -96 -43 -175 -98 -175 -55 0 -99 146 -98 325 1 247 24 289 98 175 53 -83 98 -229 98 -325z m484 -137 c-40 -480 -238 -423 -215 62 26 545 26 547 140 433 59 -59 92 -281 75 -495z m-2282 162 c0 -55 -45 -100 -100 -100 -55 0 -100 45 -100 100 0 55 45 100 100 100 55 0 100 -45 100 -100z m-2603 -125 c-2 -69 -64 -205 -138 -303 -125 -165 -138 -160 -183 73 -26 138 -24 274 5 303 101 101 319 51 316 -73z m2133 -38 c35 -35 19 -145 -34 -244 -53 -100 -58 -205 -10 -235 48 -29 65 -167 39 -306 -27 -139 9 -322 79 -407 88 -105 95 -186 24 -257 -120 -120 -179 77 -282 937 -63 527 -2 698 184 512z m7718 -1323 c-97 -365 -240 -776 -318 -914 l-141 -250 64 250 c35 138 135 678 222 1200 139 839 169 917 253 664 70 -208 48 -465 -80 -950z m-8473 815 c180 -388 154 -486 -75 -279 -193 175 -279 551 -125 549 41 0 131 -122 200 -270z m1166 -154 c39 -213 28 -375 -25 -375 -113 0 -216 484 -143 673 69 180 88 145 168 -298z m4119 -48 c-33 -33 -56 26 -52 131 5 117 28 141 60 61 29 -72 26 -159 -8 -192z m2222 -423 c-229 -187 -232 -187 -266 21 -22 131 53 277 200 388 226 172 235 172 266 -20 19 -116 -64 -278 -200 -389z m-3767 99 c133 -111 157 -194 86 -303 -86 -131 -98 -130 -99 10 -1 87 -91 239 -200 338 -108 98 -168 227 -131 285 42 69 82 57 113 -34 26 -78 130 -211 231 -296z m-5015 202 c0 -52 -61 -131 -135 -175 -75 -44 -160 -147 -189 -230 -43 -122 -67 -114 -131 39 -54 133 -22 230 108 325 217 159 347 174 347 41z m4366 -230 c-28 -69 -50 -12 -50 125 0 138 22 194 50 125 28 -69 28 -181 0 -250z m4949 -390 l-97 -335 -8 300 c-4 165 25 413 64 550 67 234 74 237 105 35 17 -117 -11 -365 -64 -550z m6685 109 c0 -272 -45 -494 -100 -494 -55 0 -100 250 -100 556 0 345 38 532 100 494 55 -34 100 -284 100 -556z m-12700 262 c0 -79 -45 -172 -100 -206 -55 -34 -100 31 -100 144 0 113 45 206 100 206 55 0 100 -65 100 -144z m-1840 -229 c-33 -33 -56 26 -52 131 5 117 28 141 60 61 29 -72 26 -159 -8 -192z m-300 -100 c-33 -33 -56 26 -52 131 5 117 28 141 60 61 29 -72 26 -159 -8 -192z m1371 -291 c54 -286 37 -313 -186 -300 -134 8 -232 37 -217 64 16 28 91 174 166 325 161 321 159 321 237 -89z m2197 303 c34 -34 -10 -171 -97 -304 -126 -192 -147 -406 -101 -1014 34 -455 22 -708 -29 -617 -108 190 -156 1726 -60 1882 78 126 193 147 287 53z m1338 -366 c-28 -68 -49 12 -47 177 3 165 25 220 50 123 26 -97 24 -232 -3 -300z m-6066 272 c0 -30 -71 -192 -157 -359 -145 -280 -144 -313 18 -431 155 -114 159 -165 41 -451 -113 -273 -112 -336 7 -413 120 -78 119 -106 -9 -189 -82 -55 -184 -100 -225 -100 -41 -1 -75 448 -75 998 0 933 13 1000 200 1000 110 0 200 -25 200 -55z m3300 -401 c0 -147 -119 -192 -226 -84 -91 90 34 347 136 284 50 -31 90 -121 90 -200z m4898 31 c0 -124 -45 -292 -98 -375 -72 -112 -97 -54 -98 225 -1 206 43 375 98 375 55 0 99 -101 98 -225z m-6794 -349 c155 -109 178 -263 163 -1101 -9 -536 -51 -964 -92 -950 -41 14 -149 25 -240 25 -154 0 -154 13 0 183 196 217 215 482 40 546 -100 37 -100 73 0 179 174 184 158 398 -25 328 -82 -31 -150 -6 -150 56 0 63 68 140 150 172 83 31 150 143 150 247 0 104 -67 189 -150 189 -105 0 -147 98 -138 325 7 215 28 258 62 126 27 -109 131 -256 230 -325z m8396 -369 c0 -243 -189 -657 -299 -657 -93 0 -72 265 54 675 53 172 245 158 245 -18z m-3540 -216 c-33 -88 -88 -268 -121 -400 -95 -378 -239 -282 -239 159 0 340 32 400 211 400 151 0 193 -45 149 -159z m-3769 -366 c-8 -412 -11 -416 -99 -125 -50 165 -70 356 -45 425 92 246 153 118 144 -300z m6541 47 c-297 -402 -355 -666 -242 -1093 56 -208 126 -503 157 -654 31 -151 123 -275 203 -275 217 0 298 -482 158 -944 -139 -459 -262 -1215 -400 -2456 -142 -1279 -315 -2221 -459 -2501 -71 -138 -185 -531 -252 -873 -67 -342 -162 -598 -210 -568 -123 76 -109 842 15 842 208 0 338 593 547 2500 21 193 64 733 96 1200 32 468 106 1090 165 1383 59 293 83 558 52 588 -30 30 -8 143 49 250 77 143 65 279 -41 512 -80 174 -175 619 -210 987 -60 624 -45 698 213 1064 152 217 296 376 320 354 23 -22 -49 -165 -161 -316z m-635 -247 c-2 -404 -26 -485 -105 -351 -89 154 -32 876 69 876 22 0 38 -236 36 -525z m-437 52 c-33 -33 -56 26 -52 131 5 117 28 141 60 61 29 -72 26 -159 -8 -192z m-5000 -200 c-33 -33 -56 26 -52 131 5 117 28 141 60 61 29 -72 26 -159 -8 -192z m1738 -402 c1 -69 -65 -125 -148 -125 -151 0 -209 308 -82 435 78 78 228 -124 230 -310z m-4698 -174 c0 -439 -4 -445 -200 -278 -246 211 -255 413 -25 588 96 73 186 134 200 136 14 2 25 -199 25 -446z m5482 56 c23 -237 -4 -316 -100 -285 -73 24 -146 191 -164 371 -23 237 4 316 100 285 73 -24 146 -191 164 -371z m918 37 c0 -134 -45 -244 -100 -244 -55 0 -100 138 -100 306 0 178 42 280 100 244 55 -34 100 -172 100 -306z m1160 96 c-36 -93 -87 -146 -115 -119 -27 28 -21 126 15 219 36 93 87 146 115 119 27 -28 21 -126 -15 -219z m-1596 -665 c-63 -886 -59 -870 -164 -625 -103 240 -128 1189 -33 1283 188 189 244 2 197 -658z m-964 113 c0 -55 -45 -72 -100 -38 -55 34 -100 107 -100 162 0 55 45 72 100 38 55 -34 100 -107 100 -162z m-1934 -213 c-28 -69 -50 -12 -50 125 0 138 22 194 50 125 28 -69 28 -181 0 -250z m-1737 -275 c-72 -275 -129 -251 -129 56 0 141 41 231 91 200 49 -31 67 -146 38 -256z m6971 -206 c0 -217 -45 -394 -100 -394 -55 0 -100 205 -100 456 0 278 39 432 100 394 55 -34 100 -239 100 -456z m-8300 -48 c0 -422 -14 -446 -200 -346 -259 139 -277 665 -25 731 96 25 186 51 200 57 14 7 25 -192 25 -442z m5380 -279 c32 -605 -113 -775 -217 -254 -105 520 -76 908 62 862 75 -24 137 -266 155 -608z m-3813 -242 c-12 -151 -54 -264 -94 -250 -40 14 -118 25 -173 25 -174 0 -108 383 75 431 96 25 184 51 194 57 10 7 10 -112 -2 -263z m6187 -239 c110 -345 -101 -3472 -225 -3348 -26 26 -66 838 -88 1805 -35 1477 -18 1757 102 1757 79 0 174 -96 211 -214z m812 -713 c-28 -68 -49 12 -47 177 3 165 25 220 50 123 26 -97 24 -232 -3 -300z m-1397 -248 c-25 -96 -46 -17 -46 175 0 193 21 271 46 175 25 -96 25 -254 0 -350z m1067 -175 c-31 -82 -75 -150 -97 -150 -21 0 -39 68 -39 150 0 83 44 150 97 150 53 0 71 -67 39 -150z m-3276 -923 c-33 -33 -56 26 -52 131 5 117 28 141 60 61 29 -72 26 -159 -8 -192z m-1408 -302 c-167 -654 -349 -1594 -353 -1825 -5 -297 -282 -1135 -629 -1900 l-250 -550 33 550 c33 556 191 1044 555 1721 120 221 192 524 179 750 -25 429 290 1529 438 1529 56 0 67 -116 27 -275z m4403 -1553 c28 -71 -9 -299 -82 -507 l-131 -379 -103 507 c-96 465 -89 507 81 507 103 0 208 -58 235 -128z m-7495 -1245 c-33 -33 -56 26 -52 131 5 117 28 141 60 61 29 -72 26 -159 -8 -192z m10573 -114 c179 -447 540 -613 742 -342 69 92 125 241 125 331 0 605 434 -21 612 -882 115 -556 109 -610 -102 -906 -330 -463 -435 -399 -358 216 53 425 34 557 -97 666 -595 494 -504 -1682 149 -3561 204 -586 319 -1133 342 -1621 39 -815 -37 -825 -292 -38 -94 289 -257 572 -362 628 -106 57 -192 178 -192 269 0 140 21 136 143 -29 135 -184 146 -184 212 -15 38 99 -2 414 -89 700 -88 287 -228 904 -312 1371 -84 468 -198 1100 -254 1406 -55 306 -101 666 -103 800 -4 272 -210 594 -380 594 -378 0 -401 -1284 -31 -1755 115 -146 231 -498 272 -821 38 -311 173 -899 299 -1308 126 -408 194 -703 150 -654 -279 310 -1108 2258 -1107 2602 0 117 -67 342 -149 500 -152 290 -204 1182 -87 1485 35 92 170 207 300 256 141 54 236 172 236 293 0 325 166 233 333 -185z m-11467 -1240 c-28 -68 -49 12 -47 177 3 165 25 220 50 123 26 -97 24 -232 -3 -300z m17960 -784 c-74 -285 -126 -228 -124 136 1 221 29 281 87 189 48 -75 64 -221 37 -325z m-160 -814 c-28 -69 -50 -12 -50 125 0 138 22 194 50 125 28 -69 28 -181 0 -250z m-17706 -48 c-33 -33 -56 26 -52 131 5 117 28 141 60 61 29 -72 26 -159 -8 -192z m106 -652 c-28 -69 -50 -12 -50 125 0 138 22 194 50 125 28 -69 28 -181 0 -250z m10263 -437 c464 -426 617 -656 895 -1350 184 -461 416 -1130 515 -1488 410 -1478 595 -2009 773 -2214 182 -209 274 -951 106 -847 -46 28 -144 236 -218 462 -75 226 -212 452 -304 501 -117 63 -187 280 -232 719 -122 1184 -931 3224 -1485 3744 -126 118 -398 373 -604 565 -206 193 -375 425 -375 516 0 207 136 118 929 -608z m5217 155 c-86 -139 -146 -113 -146 63 0 86 46 128 102 93 56 -35 75 -105 44 -156z m47 -1618 c-5 -301 -29 -369 -83 -232 -70 181 -33 657 52 657 21 0 35 -191 31 -425z m-2595 -2853 c55 -315 148 -797 207 -1072 120 -564 47 -1845 -152 -2662 -155 -638 -155 -639 -186 1662 -23 1679 -42 1845 -289 2468 -145 367 -289 884 -321 1150 l-57 482 348 -728 c192 -400 394 -985 450 -1300z m-2040 1035 c132 -161 267 -453 300 -650 33 -196 78 -447 100 -557 22 -110 14 -144 -17 -75 -32 69 -142 125 -245 125 -178 0 -393 488 -396 900 -1 83 -91 285 -200 450 -270 408 -260 682 12 350 113 -137 314 -382 446 -543z m-6298 370 c-33 -33 -56 26 -52 131 5 117 28 141 60 61 29 -72 26 -159 -8 -192z m2223 -416 c18 -122 -34 -324 -115 -448 -87 -132 -125 -341 -94 -507 41 -212 20 -271 -85 -236 -198 66 -220 299 -88 935 117 563 317 697 382 256z m-2701 -144 c17 -147 -17 -267 -75 -267 -59 0 -107 -86 -107 -192 0 -273 -104 -508 -225 -508 -109 0 -45 1005 77 1203 111 180 296 48 330 -236z m14603 33 c85 -243 77 -300 -40 -300 -94 0 -145 105 -145 300 0 165 18 300 40 300 22 0 87 -135 145 -300z m-12723 -2171 c-124 -125 -172 62 -211 827 -56 1093 81 1177 186 115 49 -484 60 -907 25 -942z m4528 1315 c245 -415 251 -444 85 -443 -129 1 -375 439 -375 669 0 206 65 155 290 -226z m-498 -360 c308 -617 389 -984 216 -984 -51 0 -148 169 -216 375 -67 206 -226 539 -352 739 -211 336 -221 486 -31 486 41 0 214 -277 383 -616z m8114 -984 c61 -467 152 -929 203 -1025 99 -187 22 -224 -190 -89 -93 59 -141 444 -168 1324 -20 682 -18 1105 5 940 22 -165 90 -682 150 -1150z m-13863 317 c24 -585 21 -594 -150 -384 -121 150 -147 267 -84 385 50 93 91 292 91 442 0 519 118 154 143 -443z m2723 256 c-28 -68 -49 12 -47 177 3 165 25 220 50 123 26 -97 24 -232 -3 -300z m11957 -183 c-40 -673 -123 -1090 -216 -1090 -157 0 -194 419 -89 1014 123 700 346 755 305 76z m-7469 85 c38 -179 104 -370 146 -425 127 -166 199 -658 209 -1450 22 -1649 -38 -1600 -317 258 -115 766 -251 1443 -302 1504 -101 122 -20 438 113 438 44 0 112 -146 151 -325z m8002 -550 c33 -151 102 -407 153 -568 51 -161 118 -588 148 -950 44 -519 18 -729 -126 -1001 -99 -189 -243 -364 -318 -388 -154 -48 -134 208 98 1215 122 532 119 592 -39 680 -133 75 -172 233 -172 692 0 615 151 803 256 320z m-8289 -644 c90 -673 85 -844 -29 -957 -76 -76 -138 -183 -138 -237 0 -54 -40 -74 -89 -44 -50 31 -80 247 -68 481 12 234 30 685 39 1001 10 316 53 575 97 575 43 0 127 -369 188 -819z m-5650 -231 c-34 -55 -92 80 -129 300 -36 220 -39 445 -5 500 34 55 92 -80 129 -300 36 -220 39 -445 5 -500z m10081 369 c1 -72 -43 -103 -98 -69 -55 34 -99 160 -98 281 1 178 19 191 98 69 53 -82 98 -209 98 -281z m-1098 -319 c0 -333 -44 -600 -100 -600 -113 0 -131 421 -37 888 94 470 137 379 137 -288z m-10107 -231 c4 -99 -28 -159 -71 -133 -43 27 -86 198 -95 381 -13 269 0 295 71 133 48 -110 91 -281 95 -381z m6207 -375 c0 -512 -36 -783 -100 -744 -55 34 -100 236 -100 450 0 214 -45 416 -100 450 -210 130 -35 650 220 650 44 0 80 -363 80 -806z m766 -819 c-28 -69 -50 -12 -50 125 0 138 22 194 50 125 28 -69 28 -181 0 -250z"/>
<path d="M21400 52150 c0 -192 45 -350 100 -350 55 0 100 158 100 350 0 192 -45 350 -100 350 -55 0 -100 -158 -100 -350z"/>
<path d="M21947 51649 c-73 -875 -26 -1984 145 -3415 53 -448 123 -1506 155 -2350 31 -843 100 -1894 153 -2334 53 -440 146 -1250 207 -1800 61 -550 193 -1382 293 -1850 240 -1121 401 -2324 401 -2981 -1 -292 69 -745 154 -1006 95 -289 144 -727 125 -1119 l-30 -644 -277 1100 c-153 605 -370 1438 -483 1850 -188 689 -275 1348 -445 3400 -35 413 -108 998 -163 1300 -56 303 -135 1113 -176 1800 -42 688 -110 1328 -151 1424 -123 284 -282 82 -206 -261 38 -172 107 -830 152 -1463 147 -2045 483 -5133 632 -5800 79 -357 310 -1257 512 -2000 201 -742 426 -1746 498 -2229 72 -483 160 -907 194 -942 159 -159 181 128 63 821 -144 843 -96 1077 88 426 131 -462 751 -2011 1031 -2576 171 -347 173 -334 177 1311 5 1930 -62 2589 -262 2589 -76 0 -183 115 -236 257 -127 331 -125 343 49 343 81 0 214 -124 297 -275 135 -246 150 636 148 8500 l-2 8775 -395 0 c-387 0 -395 -8 -412 -375 l-17 -375 -39 375 -39 375 -1035 0 -1035 0 -71 -851z m2086 -2274 c-87 -456 -133 -470 -133 -42 0 202 44 367 98 367 56 0 71 -138 35 -325z m383 -1143 c-36 -310 -60 -344 -123 -182 -44 110 -81 358 -83 550 -3 304 13 328 124 182 75 -98 109 -326 82 -550z m-748 -345 c49 -402 41 -421 -92 -237 -179 244 -296 696 -206 787 121 121 245 -107 298 -550z m392 -260 c-33 -33 -56 26 -52 131 5 117 28 141 60 61 29 -72 26 -159 -8 -192z m740 -70 c0 -65 -66 -206 -147 -313 -136 -180 -147 -163 -150 243 -3 378 17 420 147 313 83 -68 150 -178 150 -243z m-2 -1182 c-1 -311 -27 -385 -98 -275 -128 197 -128 700 0 700 55 0 99 -191 98 -425z m-432 -602 c-28 -68 -49 12 -47 177 3 165 25 220 50 123 26 -97 24 -232 -3 -300z m194 -2146 c-33 -33 -56 26 -52 131 5 117 28 141 60 61 29 -72 26 -159 -8 -192z m-17 -9384 c86 -87 157 -216 157 -288 0 -71 30 -278 66 -459 56 -283 42 -320 -104 -264 -221 84 -323 -176 -182 -464 230 -469 217 -700 -16 -270 -182 338 -220 505 -153 682 123 323 121 333 -167 667 -239 278 -244 306 -81 425 226 165 289 161 480 -29z"/>
<path d="M19784 51275 c-62 -2709 -53 -3881 27 -3855 126 42 210 4580 85 4580 -53 0 -103 -326 -112 -725z"/>
<path d="M21180 50375 c-66 -687 38 -3175 133 -3175 82 0 116 419 116 1450 0 1439 -39 2150 -118 2150 -50 0 -108 -191 -131 -425z"/>
<path d="M12268 50335 c-106 -107 -80 -435 35 -435 148 0 241 296 129 408 -53 53 -126 65 -164 27z"/>
<path d="M20062 43920 c-96 -156 -169 -2677 -90 -3112 45 -243 141 -462 215 -487 104 -35 117 30 55 292 -43 185 -72 1023 -63 1862 15 1445 0 1634 -117 1445z"/>
<path d="M8056 43675 c-173 -812 -248 -3059 -150 -4475 140 -2021 187 -2400 299 -2400 54 0 62 257 18 625 -98 841 -93 4845 8 5750 55 488 47 725 -23 725 -57 0 -126 -101 -152 -225z"/>
<path d="M8900 39661 c0 -1130 308 -3151 522 -3429 50 -65 131 -380 179 -700 49 -320 156 -987 239 -1482 153 -915 345 -2972 387 -4150 14 -393 63 -630 123 -600 136 68 134 407 -15 2100 -255 2914 -508 4489 -846 5252 -167 377 -382 2083 -387 3073 -1 151 -47 275 -102 275 -55 0 -100 -153 -100 -339z"/>
<path d="M20156 37950 c60 -796 162 -1177 278 -1043 74 85 -148 1745 -246 1843 -68 67 -78 -197 -32 -800z"/>
<path d="M20674 38167 c-106 -263 -91 -908 29 -1224 157 -414 184 -267 112 607 -42 503 -94 732 -141 617z"/>
<path d="M8900 36074 c0 -124 45 -383 101 -575 55 -192 110 -656 122 -1032 12 -375 56 -704 99 -731 43 -26 75 -416 71 -867 -7 -786 -12 -805 -136 -469 -71 193 -161 665 -201 1050 -82 798 -424 2651 -503 2731 -137 136 -123 -106 53 -982 106 -522 193 -1106 194 -1299 0 -192 42 -507 91 -700 50 -192 118 -513 152 -712 34 -199 150 -465 259 -590 228 -263 261 -1112 95 -2393 -62 -477 -62 -780 -1 -841 168 -168 273 334 330 1586 74 1615 -145 4240 -482 5775 -72 331 -244 366 -244 49z"/>
<path d="M20838 35021 c33 -443 152 -1200 265 -1682 112 -482 232 -1140 265 -1461 34 -321 106 -612 161 -646 127 -79 26 881 -228 2168 -103 523 -218 1254 -256 1626 -101 993 -282 988 -207 -5z"/>
<path d="M21831 34436 c-35 -90 16 -843 113 -1675 96 -831 211 -1916 255 -2411 44 -495 136 -1213 204 -1595 71 -393 86 -709 35 -726 -49 -16 -74 -221 -56 -454 19 -234 -37 -732 -124 -1106 -87 -375 -158 -750 -158 -834 0 -280 221 -82 356 319 163 488 327 2470 226 2743 -41 109 -119 684 -174 1276 -55 592 -168 1527 -251 2077 -83 550 -152 1349 -154 1775 -3 735 -122 1002 -272 611z"/>
<path d="M33 31140 c11 -1730 54 -2657 128 -2750 142 -180 243 -590 145 -590 -42 0 -124 101 -184 225 -97 201 -109 179 -115 -200 -7 -436 63 -515 273 -305 93 93 120 60 120 -150 0 -149 45 -270 100 -270 55 0 100 135 100 300 0 324 6 330 242 239 101 -39 158 -183 158 -400 0 -399 168 -451 261 -80 70 277 -185 2127 -354 2572 -56 148 -175 269 -263 269 -140 0 -153 -103 -97 -775 36 -426 87 -910 113 -1075 41 -249 30 -270 -62 -123 -380 610 -638 1973 -373 1973 98 0 109 302 51 1375 -144 2658 -261 2545 -243 -235z m833 -2765 c-28 -69 -50 -12 -50 125 0 138 22 194 50 125 28 -69 28 -181 0 -250z"/>
<path d="M24056 31610 c-45 -74 4 -214 121 -342 319 -350 410 -598 483 -1303 44 -434 112 -665 194 -665 138 0 114 479 -67 1312 -115 529 -606 1200 -731 998z"/>
<path d="M10545 31124 c120 -549 143 -2041 35 -2279 -83 -182 -77 -278 25 -401 123 -149 145 -147 265 16 144 198 131 237 166 -502 15 -314 265 -497 262 -191 -8 827 -562 3633 -717 3633 -54 0 -70 -123 -36 -276z"/>
<path d="M3000 30634 c0 -60 64 -263 142 -449 119 -285 358 -1908 358 -2431 0 -85 47 -154 105 -154 288 0 -76 2604 -412 2947 -106 109 -193 148 -193 87z"/>
<path d="M23801 30533 c1 -45 70 -331 155 -633 248 -893 342 -2181 189 -2614 -72 -203 -114 -452 -94 -553 127 -630 164 -736 242 -687 95 58 144 841 134 2129 -4 463 33 800 83 769 50 -31 90 -452 90 -936 0 -1216 91 -1808 276 -1808 127 0 140 142 83 925 -108 1511 -167 1792 -422 2028 -144 134 -286 444 -368 801 -72 321 -185 601 -251 623 -65 22 -117 2 -117 -44z"/>
<path d="M1755 29608 c-37 -60 32 -250 155 -422 162 -227 196 -355 124 -468 -66 -104 -56 -271 30 -512 182 -510 170 -721 -39 -685 -207 34 -308 227 -318 604 -8 304 -172 376 -227 100 -53 -263 135 -1325 234 -1325 47 0 86 86 86 191 0 141 52 177 200 138 167 -44 200 -137 202 -566 2 -816 237 -959 447 -273 61 197 44 229 -89 178 -143 -55 -162 29 -150 659 8 398 -37 852 -100 1010 -94 236 -87 308 39 400 135 99 121 162 -112 513 -359 542 -404 585 -482 458z"/>
<path d="M21912 29070 c-14 -215 279 -813 359 -732 31 30 -12 160 -96 288 -84 128 -175 320 -202 428 -44 171 -51 173 -61 16z"/>
<path d="M9757 28673 c-54 -186 -24 -432 91 -750 94 -260 193 -609 220 -774 32 -200 137 -344 310 -425 340 -161 398 -76 345 501 -46 511 -156 612 -272 250 -59 -185 -92 -130 -186 304 -63 291 -167 561 -230 600 -63 39 -134 184 -157 321 l-42 250 -79 -277z"/>
<path d="M23548 28480 c-109 -283 -5 -2011 123 -2054 92 -30 107 218 63 1042 -61 1115 -88 1267 -186 1012z"/>
<path d="M9100 27400 c0 -55 87 -100 194 -100 107 0 222 45 256 100 35 57 -49 100 -194 100 -141 0 -256 -45 -256 -100z"/>
<path d="M12753 27092 c-107 -281 -101 -921 9 -960 137 -49 260 878 133 1010 -53 55 -110 35 -142 -50z"/>
<path d="M11200 26950 c0 -82 -11 -180 -25 -217 -14 -36 31 -85 100 -108 78 -26 125 54 125 217 0 142 -45 258 -100 258 -55 0 -100 -67 -100 -150z"/>
<path d="M111 26814 c-91 -166 -98 -267 -24 -341 129 -129 250 121 192 396 -33 158 -54 152 -168 -55z"/>
<path d="M7402 26889 c-136 -55 -350 -74 -475 -42 -167 42 -227 13 -227 -108 0 -145 89 -156 725 -93 790 77 827 90 729 247 -80 131 -418 128 -752 -4z"/>
<path d="M8669 26836 c-113 -113 36 -236 287 -236 150 0 244 58 244 150 0 150 -402 215 -531 86z"/>
<path d="M13200 26550 c-132 -347 -126 -475 20 -427 153 51 291 558 171 633 -50 31 -136 -62 -191 -206z"/>
<path d="M19049 26698 c-35 -56 -6 -270 64 -475 71 -205 119 -406 108 -446 -28 -102 375 -341 704 -417 299 -69 386 91 99 182 -112 36 -176 156 -175 332 1 339 -187 462 -231 151 -18 -124 -79 -225 -136 -225 -57 0 -78 66 -47 148 52 136 -183 852 -280 852 -24 0 -72 -46 -106 -102z"/>
<path d="M9652 26419 c-26 -26 -23 -86 7 -133 70 -114 641 -111 641 3 0 94 -569 208 -648 130z"/>
<path d="M5700 26309 c0 -60 104 -109 230 -109 127 0 284 -54 350 -120 92 -92 147 -93 238 -2 156 156 112 186 -393 269 -283 47 -425 34 -425 -38z"/>
<path d="M14325 26329 c-124 -23 -225 -108 -225 -188 0 -107 71 -128 275 -79 151 36 309 85 352 109 88 50 -5 236 -108 215 -38 -7 -170 -33 -294 -57z"/>
<path d="M17400 26162 c0 -77 111 -212 246 -300 275 -180 654 -216 654 -62 0 55 -61 100 -137 100 -75 0 -250 90 -390 200 -301 236 -373 248 -373 62z"/>
<path d="M20856 26175 c-20 -69 -59 -197 -87 -284 -64 -201 76 -437 210 -354 120 74 119 763 -2 763 -46 0 -100 -56 -121 -125z"/>
<path d="M21694 26094 c-225 -225 -227 -601 -3 -675 97 -32 121 5 78 117 -83 218 18 464 192 464 76 0 139 68 139 150 0 209 -163 187 -406 -56z"/>
<path d="M5050 26123 c-357 -76 -408 -223 -76 -223 173 0 340 42 372 93 77 125 -51 181 -296 130z"/>
<path d="M7147 26094 c-78 -125 139 -311 303 -259 55 17 100 95 100 172 0 177 -307 243 -403 87z"/>
<path d="M200 25962 c0 -247 304 -871 396 -814 109 67 -175 952 -305 952 -50 0 -91 -62 -91 -138z"/>
<path d="M800 25858 c0 -345 99 -558 261 -558 161 0 186 159 39 250 -55 34 -100 172 -100 306 0 134 -45 244 -100 244 -55 0 -100 -109 -100 -242z"/>
<path d="M1589 25981 c-34 -426 48 -752 227 -905 299 -255 421 -109 186 221 -111 156 -202 376 -202 488 0 224 -194 405 -211 196z"/>
<path d="M15200 25968 c0 -91 152 -162 423 -198 687 -93 644 149 -48 272 -288 52 -375 34 -375 -74z"/>
<path d="M8653 25905 c-66 -107 252 -305 490 -305 247 0 183 195 -100 302 -314 120 -317 120 -390 3z"/>
<path d="M3872 25839 c-160 -160 -52 -239 328 -239 220 0 400 45 400 100 0 55 -56 101 -125 101 -69 1 -216 26 -328 56 -111 30 -235 22 -275 -18z"/>
<path d="M23600 25837 c0 -241 255 -837 357 -837 202 0 225 225 59 575 -131 277 -416 457 -416 262z"/>
<path d="M11057 25712 c-34 -56 26 -149 134 -207 273 -146 409 -131 409 45 0 83 -41 150 -92 150 -50 0 -158 26 -240 57 -81 31 -176 11 -211 -45z"/>
<path d="M24345 25673 c-94 -245 -10 -523 156 -523 101 0 138 80 115 250 -44 330 -192 479 -271 273z"/>
<path d="M3300 25514 c0 -178 404 -350 529 -225 134 134 93 177 -254 264 -172 43 -275 28 -275 -39z"/>
<path d="M17468 25534 c-151 -151 -54 -334 176 -334 215 0 437 159 341 244 -98 87 -458 150 -517 90z"/>
<path d="M22997 25395 c-129 -241 -93 -715 59 -764 64 -21 109 162 113 467 4 276 -8 502 -27 502 -19 0 -84 -92 -145 -205z"/>
<path d="M7800 25404 c0 -131 339 -304 593 -304 313 0 248 145 -125 280 -402 145 -468 149 -468 24z"/>
<path d="M9554 25407 c-70 -113 304 -245 447 -157 56 35 76 106 45 157 -75 120 -417 120 -492 0z"/>
<path d="M13674 25441 c-68 -69 114 -759 234 -884 163 -172 206 19 96 429 -108 400 -224 560 -330 455z"/>
<path d="M14500 25208 c0 -393 92 -608 261 -608 161 0 186 159 39 250 -55 34 -100 194 -100 356 0 162 -45 294 -100 294 -55 0 -100 -131 -100 -292z"/>
<path d="M5200 25260 c0 -118 115 -147 525 -131 289 12 525 66 525 121 0 55 -236 114 -525 130 -415 24 -525 -1 -525 -120z"/>
<path d="M8 25158 c-4 -105 19 -164 52 -131 34 33 37 120 8 192 -32 80 -55 56 -60 -61z"/>
<path d="M12900 25211 c0 -49 83 -191 184 -317 130 -159 240 -206 371 -156 169 65 159 94 -109 313 -315 257 -446 304 -446 160z"/>
<path d="M10725 25134 c-261 -105 -109 -234 275 -234 289 0 400 42 400 150 0 148 -394 197 -675 84z"/>
<path d="M22470 25133 c-90 -145 39 -547 161 -506 59 20 121 80 139 133 48 144 -229 488 -300 373z"/>
<path d="M15136 24949 c-69 -180 160 -493 276 -377 101 101 -2 528 -127 528 -50 0 -117 -68 -149 -151z"/>
<path d="M16200 25016 c0 -104 507 -343 577 -272 28 28 -5 120 -75 204 -134 161 -502 211 -502 68z"/>
<path d="M18700 24979 c0 -104 -85 -132 -300 -100 -165 24 -300 -2 -300 -57 0 -148 511 -251 634 -128 59 59 210 106 336 106 200 0 352 198 155 201 -41 1 -176 29 -300 62 -157 42 -225 17 -225 -84z"/>
<path d="M7223 24880 c62 -185 551 -282 674 -133 81 97 32 142 -208 190 -441 88 -511 80 -466 -57z"/>
<path d="M20874 24841 c-133 -133 42 -241 390 -241 237 0 339 41 312 125 -45 136 -591 227 -702 116z"/>
<path d="M5371 24738 c-160 -160 -43 -205 504 -197 316 5 575 54 575 109 0 115 -972 195 -1079 88z"/>
<path d="M4144 24590 c-37 -60 5 -182 94 -271 149 -149 162 -141 162 110 0 276 -133 360 -256 161z"/>
<path d="M6814 24611 c-99 -63 -104 -105 -20 -157 143 -89 406 4 406 143 0 125 -200 132 -386 14z"/>
<path d="M9958 24614 c-30 -50 34 -115 143 -143 248 -65 999 30 999 127 0 106 -1076 121 -1142 16z"/>
<path d="M11344 24375 c38 -179 87 -455 109 -614 52 -364 131 -446 255 -258 172 262 -81 1197 -324 1197 -70 0 -85 -115 -40 -325z"/>
<path d="M24667 24633 c-122 -121 -70 -506 85 -635 211 -174 252 -99 182 332 -58 359 -130 441 -267 303z"/>
<path d="M900 24496 c0 -124 306 -619 443 -714 236 -166 232 60 -8 423 -253 383 -435 504 -435 291z"/>
<path d="M16300 24450 c0 -83 89 -150 200 -150 238 0 265 154 42 239 -224 86 -242 79 -242 -89z"/>
<path d="M1902 24181 c1 -390 136 -662 243 -489 85 137 -24 683 -153 763 -50 31 -91 -92 -90 -274z"/>
<path d="M2558 24245 c-71 -281 5 -480 149 -391 119 74 122 646 4 646 -49 0 -118 -115 -153 -255z"/>
<path d="M23900 24408 c0 -205 130 -408 261 -408 171 0 182 217 19 380 -143 143 -280 156 -280 28z"/>
<path d="M3247 24125 c86 -343 108 -364 302 -289 143 55 142 84 -7 312 -221 337 -382 324 -295 -23z"/>
<path d="M20200 24261 c0 -184 256 -276 558 -200 278 70 314 190 84 278 -285 110 -642 66 -642 -78z"/>
<path d="M23000 24250 c0 -93 94 -150 250 -150 156 0 250 57 250 150 0 93 -94 150 -250 150 -156 0 -250 -57 -250 -150z"/>
<path d="M8 24036 c-9 -368 246 -525 477 -294 133 133 121 161 -107 247 -141 54 -281 157 -310 230 -29 72 -56 -10 -60 -183z"/>
<path d="M14970 24236 c-120 -119 -77 -236 86 -236 86 0 127 -46 93 -102 -85 -137 125 -752 309 -904 258 -215 286 -3 61 461 -121 248 -219 465 -219 484 0 18 113 12 250 -15 320 -61 329 135 9 215 -132 33 -303 84 -380 114 -77 29 -171 22 -209 -17z"/>
<path d="M17600 24223 c-505 -81 -469 -251 39 -186 269 35 573 63 675 63 102 0 186 41 186 90 0 91 -437 107 -900 33z"/>
<path d="M8857 24112 c-91 -148 215 -641 347 -559 140 86 119 197 -88 452 -131 162 -206 193 -259 107z"/>
<path d="M9601 24025 c3 -336 123 -625 261 -625 162 0 176 187 40 543 -111 293 -303 345 -301 82z"/>
<path d="M19100 24048 c0 -166 460 -421 566 -315 70 70 -339 467 -481 467 -47 0 -85 -68 -85 -152z"/>
<path d="M10639 23858 c-30 -78 -2 -241 63 -361 165 -308 336 -110 204 237 -114 299 -187 333 -267 124z"/>
<path d="M12546 23825 c37 -96 113 -388 169 -650 95 -443 174 -552 306 -421 114 114 -244 1246 -394 1246 -100 0 -127 -57 -81 -175z"/>
<path d="M14200 23875 c-1 -214 443 -975 569 -975 243 0 215 181 -98 633 -322 467 -471 574 -471 342z"/>
<path d="M21850 23817 c-137 -137 -17 -226 267 -198 413 40 484 248 86 248 -167 0 -325 -23 -353 -50z"/>
<path d="M5823 23681 c51 -154 764 -181 802 -31 14 55 -171 114 -410 131 -325 24 -425 -2 -392 -100z"/>
<path d="M16976 23642 c-57 -56 74 -625 164 -716 26 -25 90 -19 144 14 62 39 59 186 -10 410 -104 339 -179 412 -298 292z"/>
<path d="M15929 23188 c59 -444 192 -648 356 -548 67 42 49 217 -51 512 -194 570 -380 592 -305 36z"/>
<path d="M21275 23528 c-311 -47 -377 -228 -83 -228 261 0 508 102 508 211 0 49 -34 82 -75 74 -41 -8 -199 -34 -350 -57z"/>
<path d="M24046 23493 c-90 -145 -65 -157 479 -236 475 -69 581 -3 355 223 -149 149 -745 158 -834 13z"/>
<path d="M17700 23400 c0 -55 68 -100 150 -100 83 0 150 45 150 100 0 55 -67 100 -150 100 -82 0 -150 -45 -150 -100z"/>
<path d="M1048 23273 c-108 -61 -351 -100 -538 -88 -281 19 -321 -1 -226 -115 93 -113 199 -118 561 -26 477 121 618 205 485 288 -47 28 -173 2 -282 -59z"/>
<path d="M4646 23293 c-92 -148 -35 -183 355 -215 259 -21 350 14 377 147 29 140 -33 175 -315 175 -193 0 -381 -48 -417 -107z"/>
<path d="M13453 23205 c-32 -52 30 -142 138 -200 123 -66 219 -70 256 -10 32 52 -30 142 -138 200 -123 66 -219 70 -256 10z"/>
<path d="M22425 23175 c24 -71 207 -125 425 -125 218 0 401 54 425 125 29 88 -96 125 -425 125 -329 0 -454 -37 -425 -125z"/>
<path d="M6571 23138 c-164 -164 -48 -248 304 -219 206 17 375 76 375 131 0 118 -574 192 -679 88z"/>
<path d="M18043 22958 c-76 -303 -22 -608 108 -608 55 0 106 191 115 425 18 460 -124 576 -223 183z"/>
<path d="M7800 22958 c0 -87 71 -158 158 -158 177 0 146 215 -39 277 -66 22 -119 -32 -119 -119z"/>
<path d="M11900 22850 c-68 -82 -206 -150 -306 -150 -100 0 -210 -45 -244 -101 -104 -167 218 -224 467 -82 128 73 300 132 382 133 81 0 163 79 182 175 43 221 -303 239 -481 25z"/>
<path d="M19000 22821 c0 -215 229 -458 333 -354 36 35 24 114 -25 174 -50 60 -95 154 -99 209 -17 192 -209 165 -209 -29z"/>
<path d="M20364 22931 c-116 -116 53 -231 342 -231 382 0 387 243 6 270 -159 11 -315 -6 -348 -39z"/>
<path d="M23850 22899 c-35 -55 10 -128 98 -162 191 -74 298 7 206 156 -83 135 -223 137 -304 6z"/>
<path d="M1895 22793 c-126 -81 -126 -106 5 -191 210 -138 300 -126 300 42 0 198 -130 261 -305 149z"/>
<path d="M9100 22616 c0 -91 668 -316 937 -316 274 0 182 153 -169 280 -386 139 -768 157 -768 36z"/>
<path d="M3524 22378 c22 -67 141 -146 264 -175 411 -97 268 -252 -313 -339 -795 -120 -751 -304 50 -212 752 85 775 97 775 394 0 173 -83 263 -315 344 -405 142 -511 139 -461 -12z"/>
<path d="M13500 22320 c0 -99 54 -234 120 -300 114 -114 480 -171 480 -75 0 72 -467 555 -536 555 -35 0 -64 -81 -64 -180z"/>
<path d="M14000 22411 c0 -113 260 -218 340 -137 121 120 55 226 -140 226 -110 0 -200 -40 -200 -89z"/>
<path d="M6367 22333 c-135 -134 -61 -233 175 -233 306 0 558 95 558 211 0 103 -633 122 -733 22z"/>
<path d="M21075 22292 c-269 -157 -214 -323 83 -249 226 57 250 39 193 -139 -50 -158 -20 -204 131 -204 127 0 211 85 241 245 78 403 -250 579 -648 347z"/>
<path d="M1200 22161 c0 -131 203 -261 408 -261 155 0 102 275 -66 339 -247 95 -342 73 -342 -78z"/>
<path d="M12203 22044 c-3 -323 232 -742 351 -623 94 94 -10 483 -196 729 -146 193 -152 189 -155 -106z"/>
<path d="M23757 22211 c-30 -48 68 -112 219 -140 306 -59 456 -4 370 136 -73 118 -516 122 -589 4z"/>
<path d="M24800 22200 c0 -55 45 -100 100 -100 55 0 100 45 100 100 0 55 -45 100 -100 100 -55 0 -100 -45 -100 -100z"/>
<path d="M5125 22034 c-69 -28 -125 -110 -125 -183 0 -105 72 -110 350 -25 193 59 350 145 350 191 0 89 -369 100 -575 17z"/>
<path d="M8200 22036 c0 -135 362 -330 619 -333 447 -5 408 166 -65 285 -515 130 -554 134 -554 48z"/>
<path d="M11257 22011 c-72 -116 419 -438 546 -359 154 95 -83 448 -301 448 -104 0 -215 -40 -245 -89z"/>
<path d="M12943 21838 c82 -331 222 -506 324 -404 102 101 -92 591 -256 646 -107 36 -123 -20 -68 -242z"/>
<path d="M17875 21927 c-526 -55 -469 -227 75 -227 333 0 450 39 450 150 0 83 -34 142 -75 133 -41 -9 -244 -34 -450 -56z"/>
<path d="M20000 21922 c0 -136 633 -329 737 -225 61 61 -4 133 -177 199 -324 123 -560 134 -560 26z"/>
<path d="M16100 21811 c0 -49 71 -117 158 -150 224 -86 242 -79 242 89 0 83 -89 150 -200 150 -110 0 -200 -40 -200 -89z"/>
<path d="M6900 21662 c0 -137 873 -422 976 -319 44 43 -803 457 -934 457 -23 0 -42 -62 -42 -138z"/>
<path d="M19700 21678 c0 -193 206 -378 420 -378 231 0 235 257 5 338 -96 34 -231 88 -300 120 -69 32 -125 -4 -125 -80z"/>
<path d="M22600 21542 c0 -123 -65 -144 -300 -92 -235 52 -300 31 -300 -92 0 -87 34 -159 75 -159 41 -1 176 -29 300 -62 165 -44 225 -18 225 101 0 89 45 162 100 162 55 0 100 68 100 150 0 83 -45 150 -100 150 -55 0 -100 -71 -100 -158z"/>
<path d="M4869 21536 c-126 -127 50 -236 381 -236 186 0 363 40 393 89 92 148 -634 287 -774 147z"/>
<path d="M9100 21520 c0 -279 586 -423 900 -220 112 72 56 97 -219 98 -203 1 -397 47 -431 102 -74 119 -250 133 -250 20z"/>
<path d="M14784 21470 c119 -144 816 -109 816 41 0 49 -208 89 -462 89 -369 0 -441 -26 -354 -130z"/>
<path d="M18225 21338 c29 -159 149 -641 267 -1072 171 -624 214 -1043 206 -2050 -7 -1048 27 -1361 197 -1815 113 -301 205 -628 205 -725 0 -97 45 -176 100 -176 182 0 104 659 -134 1128 -140 276 -201 514 -153 592 44 72 52 691 17 1377 -67 1318 -402 2910 -629 2986 -91 30 -112 -41 -76 -245z"/>
<path d="M23539 21456 c-74 -191 18 -456 158 -456 133 0 135 469 2 550 -55 35 -127 -8 -160 -94z"/>
<path d="M16400 21430 c-522 -98 -454 -242 100 -211 303 17 550 76 550 131 0 114 -282 148 -650 80z"/>
<path d="M24045 21374 c-89 -234 -10 -804 117 -845 73 -24 108 119 100 409 -13 476 -119 690 -217 436z"/>
<path d="M0 21300 c0 -55 20 -100 44 -100 24 0 72 45 106 100 34 55 14 100 -44 100 -58 0 -106 -45 -106 -100z"/>
<path d="M3272 21339 c-145 -146 63 -239 534 -239 272 0 494 45 494 100 0 55 -154 100 -342 100 -188 0 -404 24 -480 53 -76 29 -169 23 -206 -14z"/>
<path d="M14527 21069 c51 -152 694 -157 744 -6 24 72 -114 115 -373 119 -275 4 -397 -34 -371 -113z"/>
<path d="M1054 21007 c-31 -51 -8 -123 51 -160 150 -93 995 43 995 159 0 122 -970 123 -1046 1z"/>
<path d="M21017 20937 c20 -103 80 -176 134 -162 146 37 120 251 -36 303 -87 29 -122 -20 -98 -141z"/>
<path d="M5717 20900 c50 -151 211 -167 258 -25 23 69 -33 125 -125 125 -92 0 -152 -45 -133 -100z"/>
<path d="M13850 20800 c-89 -144 454 -336 585 -205 125 125 89 159 -254 241 -148 36 -297 19 -331 -36z"/>
<path d="M6700 20707 c0 -122 369 -238 499 -158 198 123 96 251 -199 251 -165 0 -300 -42 -300 -93z"/>
<path d="M11100 20711 c0 -137 332 -311 593 -311 201 0 283 144 132 232 -200 118 -725 175 -725 79z"/>
<path d="M17467 20733 c-135 -135 -61 -233 177 -233 292 0 419 154 197 240 -203 77 -292 76 -374 -7z"/>
<path d="M8221 20585 c24 -74 176 -150 337 -168 333 -37 237 117 -145 232 -176 54 -225 37 -192 -64z"/>
<path d="M9823 20580 c45 -133 665 -325 756 -235 31 32 -30 123 -136 203 -236 178 -676 201 -620 32z"/>
<path d="M16016 20586 c-336 -124 -257 -186 234 -186 248 0 450 40 450 88 0 129 -433 191 -684 98z"/>
<path d="M19619 20590 c54 -164 681 -253 681 -96 0 58 -56 107 -125 107 -69 1 -232 30 -363 66 -178 47 -227 28 -193 -77z"/>
<path d="M12700 20485 c0 -185 548 -415 798 -336 301 96 244 223 -123 275 -179 25 -404 80 -500 121 -118 52 -175 32 -175 -60z"/>
<path d="M22350 20500 c-64 -103 438 -345 528 -255 77 77 -185 355 -334 355 -73 0 -160 -45 -194 -100z"/>
<path d="M225 20429 c-265 -51 -304 -230 -50 -228 288 3 625 116 625 211 0 90 -172 95 -575 17z"/>
<path d="M6723 20280 c23 -72 196 -142 385 -156 407 -30 1120 -234 1196 -342 83 -117 796 -207 796 -100 0 173 -297 342 -507 287 -114 -30 -350 28 -525 127 -412 235 -1407 371 -1345 184z"/>
<path d="M4750 20199 c-63 -101 7 -139 425 -231 325 -71 385 114 75 232 -331 126 -422 126 -500 -1z"/>
<path d="M17475 20184 c-151 -55 -275 -142 -275 -192 0 -127 274 -116 354 15 37 59 129 82 206 53 81 -31 140 8 140 93 0 167 -43 170 -425 31z"/>
<path d="M23900 20216 c0 -104 507 -343 577 -272 28 28 -5 120 -75 204 -134 161 -502 211 -502 68z"/>
<path d="M11750 20100 c-69 -111 441 -342 539 -245 62 63 -267 345 -402 345 -41 0 -103 -45 -137 -100z"/>
<path d="M16025 20128 c-381 -48 -440 -228 -75 -228 146 0 250 -57 250 -138 0 -77 114 -214 254 -305 140 -92 328 -322 418 -512 91 -190 204 -345 252 -345 138 0 593 -1076 561 -1325 -16 -124 14 -247 68 -275 144 -74 177 756 39 1021 -264 510 -1019 1587 -1202 1714 -121 85 -171 199 -132 301 35 90 25 157 -22 148 -47 -9 -232 -34 -411 -56z"/>
<path d="M3200 20017 c0 -109 603 -315 925 -316 166 -1 258 190 100 207 -41 4 -142 23 -225 42 -668 155 -800 166 -800 67z"/>
<path d="M22275 20042 c-133 -133 39 -242 381 -242 189 0 344 45 344 100 0 55 -56 101 -125 101 -69 1 -216 26 -328 56 -111 30 -233 23 -272 -15z"/>
<path d="M2120 19890 c47 -141 664 -339 759 -244 96 95 -109 229 -466 304 -256 54 -326 40 -293 -60z"/>
<path d="M10346 19906 c37 -59 194 -173 350 -254 241 -125 301 -126 399 -8 137 165 76 208 -430 299 -263 48 -364 36 -319 -37z"/>
<path d="M14150 19900 c-38 -62 132 -100 444 -100 278 0 506 45 506 100 0 55 -200 100 -444 100 -244 0 -472 -45 -506 -100z"/>
<path d="M1350 19800 c34 -55 172 -100 306 -100 134 0 244 45 244 100 0 55 -138 100 -306 100 -178 0 -280 -42 -244 -100z"/>
<path d="M19440 19645 c-35 -140 -38 -280 -7 -312 86 -85 367 229 367 410 0 257 -291 178 -360 -98z"/>
<path d="M23372 19839 c-36 -37 -43 -106 -13 -153 74 -120 541 -108 541 14 0 55 -41 100 -92 100 -50 0 -154 24 -230 53 -76 29 -169 23 -206 -14z"/>
<path d="M0 19643 c0 -111 78 -147 267 -125 390 46 424 282 41 282 -213 0 -308 -48 -308 -157z"/>
<path d="M5766 19580 c-32 -121 -18 -268 31 -326 48 -59 103 -282 121 -498 45 -549 282 -597 282 -58 0 228 -47 503 -104 610 -81 151 -70 208 49 254 196 75 101 238 -139 238 -104 0 -207 -95 -240 -220z"/>
<path d="M21074 19683 c-151 -55 -255 -133 -231 -172 71 -114 770 0 730 119 -51 154 -184 168 -499 53z"/>
<path d="M20229 19549 c-349 -244 -662 -839 -649 -1236 10 -344 3 -352 -138 -163 -129 171 -163 178 -244 50 -155 -245 -122 -630 49 -565 81 31 173 13 206 -39 156 -253 305 -65 326 411 18 434 82 580 439 1003 269 319 383 529 321 591 -63 63 -173 44 -310 -52z"/>
<path d="M3943 19489 c-38 -61 -7 -151 69 -199 190 -120 788 -113 788 10 0 55 -93 100 -207 100 -113 0 -290 45 -394 100 -129 70 -208 66 -256 -11z"/>
<path d="M9759 19525 c-125 -125 -44 -198 353 -317 287 -86 444 -92 517 -19 73 73 61 118 -37 149 -78 24 -284 90 -458 145 -175 55 -343 74 -375 42z"/>
<path d="M17757 19511 c-31 -49 37 -376 150 -725 112 -350 231 -850 263 -1111 60 -493 170 -615 257 -284 53 206 -17 603 -283 1584 -160 593 -263 736 -387 536z"/>
<path d="M24669 19536 c-93 -93 20 -236 187 -236 79 0 144 68 144 150 0 151 -211 206 -331 86z"/>
<path d="M7000 19258 c0 -352 100 -558 271 -558 105 0 128 53 77 175 -41 96 -96 276 -123 400 -65 300 -225 288 -225 -17z"/>
<path d="M21797 19295 c-125 -235 -95 -614 53 -662 56 -18 104 166 110 417 10 508 -8 535 -163 245z"/>
<path d="M1928 19263 c21 -62 203 -127 405 -144 273 -23 367 7 367 119 0 109 -109 148 -404 144 -255 -4 -391 -48 -368 -119z"/>
<path d="M22334 19244 c-87 -227 147 -703 280 -570 69 69 72 168 9 290 -53 102 -76 242 -51 311 66 184 -168 153 -238 -31z"/>
<path d="M5243 19167 c-28 -73 -5 -253 50 -400 125 -328 356 -364 270 -42 -33 124 -61 304 -62 400 -1 205 -184 235 -258 42z"/>
<path d="M7672 19239 c-115 -115 29 -239 278 -239 131 0 266 45 300 100 34 55 -5 100 -86 100 -81 0 -210 24 -286 53 -76 29 -169 23 -206 -14z"/>
<path d="M11460 19084 c-88 -126 -160 -265 -160 -309 0 -136 501 -279 757 -214 369 92 290 239 -128 239 -349 0 -361 11 -203 168 144 145 203 150 413 38 144 -77 356 -104 513 -64 155 39 326 18 408 -50 217 -181 166 -301 -108 -251 -137 25 -278 -2 -313 -59 -103 -167 179 -286 610 -258 493 32 582 282 219 618 -198 183 -413 245 -1048 300 -759 66 -808 58 -960 -158z"/>
<path d="M14400 19113 c0 -94 815 -232 895 -151 27 27 -17 91 -98 142 -186 118 -797 125 -797 9z"/>
<path d="M23400 19000 c0 -55 158 -100 350 -100 193 0 350 45 350 100 0 55 -157 100 -350 100 -192 0 -350 -45 -350 -100z"/>
<path d="M4200 18819 c0 -124 69 -252 154 -284 261 -101 297 59 65 290 l-219 219 0 -225z"/>
<path d="M6474 18740 c-62 -321 18 -657 137 -583 116 71 116 843 1 843 -49 0 -111 -117 -138 -260z"/>
<path d="M8800 18850 c0 -83 89 -150 200 -150 111 0 200 67 200 150 0 83 -89 150 -200 150 -111 0 -200 -67 -200 -150z"/>
<path d="M2441 18764 c-85 -224 -8 -593 134 -640 84 -27 125 75 125 312 0 373 -162 579 -259 328z"/>
<path d="M20469 18620 c-320 -335 -344 -520 -67 -520 122 0 239 96 294 240 51 132 139 270 198 306 58 36 106 108 106 160 0 183 -266 90 -531 -186z"/>
<path d="M720 18680 c-66 -66 -120 -178 -120 -250 0 -71 -45 -130 -100 -130 -55 0 -100 93 -100 206 0 113 -45 178 -100 144 -108 -67 -138 -578 -40 -677 123 -123 495 154 652 485 167 350 60 474 -192 222z"/>
<path d="M1923 18500 c17 -223 79 -350 169 -350 227 0 231 201 10 460 l-206 240 27 -350z"/>
<path d="M10050 18600 c34 -55 152 -100 262 -100 110 0 172 45 138 100 -34 55 -152 100 -262 100 -110 0 -172 -45 -138 -100z"/>
<path d="M16656 18609 c-31 -50 61 -325 204 -611 144 -286 268 -694 276 -908 8 -236 63 -389 139 -389 226 -1 136 726 -171 1374 -301 637 -349 694 -448 534z"/>
<path d="M3105 18409 c-161 -301 -21 -476 167 -208 103 147 119 248 49 318 -70 70 -139 35 -216 -110z"/>
<path d="M1368 18425 c-66 -111 110 -525 223 -525 176 0 218 188 88 396 -133 213 -237 256 -311 129z"/>
<path d="M7825 18297 c-389 -157 -262 -305 200 -234 493 75 517 88 429 230 -78 127 -319 129 -629 4z"/>
<path d="M14000 18300 c0 -55 205 -100 456 -100 278 0 432 39 394 100 -34 55 -239 100 -456 100 -217 0 -394 -45 -394 -100z"/>
<path d="M15500 18311 c0 -102 243 -211 470 -211 126 0 131 28 30 150 -135 162 -500 207 -500 61z"/>
<path d="M20722 18099 c-266 -248 -290 -431 -47 -364 96 27 279 79 406 116 143 41 218 129 199 231 -48 245 -305 253 -558 17z"/>
<path d="M916 17993 c23 -166 108 -254 270 -276 291 -42 251 151 -76 368 -219 145 -227 141 -194 -92z"/>
<path d="M9400 18100 c0 -55 90 -100 200 -100 110 0 200 45 200 100 0 55 -90 100 -200 100 -110 0 -200 -45 -200 -100z"/>
<path d="M12267 18133 c-106 -105 -78 -633 33 -633 55 0 101 56 101 125 1 69 29 226 62 350 57 214 -53 302 -196 158z"/>
<path d="M23042 17955 c-78 -311 131 -955 310 -955 227 0 279 205 88 345 -116 85 -180 260 -180 493 0 413 -126 481 -218 117z"/>
<path d="M3265 17917 c-91 -101 -135 -213 -98 -250 74 -75 433 215 433 348 0 142 -160 95 -335 -98z"/>
<path d="M9788 17888 c-151 -151 -178 -238 -98 -318 79 -79 146 -59 244 75 129 176 141 174 297 -49 154 -219 174 -223 349 -64 203 184 420 222 420 74 0 -52 166 -108 369 -125 352 -30 361 -39 193 -206 -114 -114 -259 -155 -410 -117 -238 60 -752 -196 -752 -374 0 -52 153 -64 346 -28 319 60 350 43 406 -221 34 -157 104 -388 155 -515 51 -126 93 -340 93 -475 0 -135 45 -245 100 -245 55 0 100 150 100 333 0 334 169 421 463 240 167 -104 238 25 229 419 -8 357 -8 358 -108 83 -55 -151 -143 -275 -195 -275 -159 0 -228 315 -111 502 61 97 83 203 50 236 -111 112 -328 -161 -338 -425 -10 -252 -15 -250 -113 57 -93 290 -74 348 206 628 349 349 326 571 -69 669 -145 37 -314 134 -376 217 -93 126 -160 131 -406 29 -212 -88 -371 -93 -565 -19 -225 85 -306 67 -479 -106z"/>
<path d="M24350 17999 c-35 -55 10 -128 98 -162 191 -74 298 7 206 156 -83 135 -223 137 -304 6z"/>
<path d="M4524 17875 c48 -146 776 -233 776 -93 0 101 -332 214 -633 217 -103 0 -166 -54 -143 -124z"/>
<path d="M22539 17758 c-94 -246 105 -1008 263 -1008 80 0 160 79 179 175 18 96 -15 175 -74 175 -59 0 -107 180 -107 400 0 391 -152 541 -261 258z"/>
<path d="M23775 17842 c-124 -125 -84 -510 66 -635 176 -145 325 41 178 222 -53 67 -114 204 -133 305 -20 101 -70 150 -111 108z"/>
<path d="M15200 17704 c-216 -66 -226 -87 -75 -151 204 -87 475 -5 475 144 0 115 -42 116 -400 7z"/>
<path d="M21943 17667 c-85 -219 98 -1422 207 -1367 97 48 100 166 32 1075 -32 419 -140 551 -239 292z"/>
<path d="M3536 17562 c-123 -140 -67 -662 70 -662 45 0 152 99 237 220 119 170 126 237 30 296 -67 42 -112 112 -98 155 43 134 -119 128 -239 -9z"/>
<path d="M8467 17633 c-115 -115 -73 -233 83 -233 83 0 150 68 150 150 0 156 -118 198 -233 83z"/>
<path d="M12734 17582 c-297 -144 -343 -406 -123 -692 222 -289 241 -490 46 -490 -178 0 -279 -298 -218 -639 114 -625 355 -623 284 2 -41 367 -23 454 88 417 76 -25 154 -199 172 -387 37 -384 172 -593 383 -593 108 0 117 45 38 193 -57 107 -104 372 -104 590 0 267 -51 415 -156 456 -86 33 -129 104 -96 157 33 54 -13 210 -102 347 -90 136 -133 297 -96 357 89 144 460 29 665 -207 91 -105 282 -235 425 -289 323 -123 364 -504 54 -504 -113 0 -178 -45 -144 -100 116 -188 453 -102 565 144 142 310 55 534 -253 651 -327 125 -426 305 -168 305 113 0 206 40 206 89 0 137 -321 230 -427 124 -59 -59 -221 -41 -430 46 -185 78 -349 138 -365 134 -15 -3 -125 -54 -244 -111z"/>
<path d="M523 17482 c54 -162 353 -340 435 -258 36 37 40 137 7 222 -68 178 -502 214 -442 36z"/>
<path d="M16100 17506 c0 -193 429 -813 537 -778 62 21 127 153 144 295 24 204 -36 290 -291 417 -375 187 -390 190 -390 66z"/>
<path d="M6454 17407 c-37 -60 50 -151 196 -207 340 -129 350 -128 350 50 0 83 -41 150 -92 150 -50 0 -158 26 -240 57 -81 31 -178 8 -214 -50z"/>
<path d="M8885 17184 c-330 -353 -359 -755 -51 -702 102 17 241 -46 310 -140 139 -191 468 -152 806 95 250 183 111 349 -153 184 -107 -66 -264 -121 -349 -121 -125 0 -134 40 -47 202 149 278 39 426 -216 290 -365 -195 -319 -5 52 214 419 247 443 294 153 294 -115 0 -343 -142 -505 -316z"/>
<path d="M21200 17340 c0 -188 344 -740 461 -740 196 0 173 172 -68 510 -187 262 -393 383 -393 230z"/>
<path d="M5069 17136 c-35 -35 -42 -98 -16 -141 61 -99 447 1 447 117 0 101 -335 120 -431 24z"/>
<path d="M14900 17097 c0 -129 285 -245 376 -154 38 37 2 110 -79 161 -193 122 -297 120 -297 -7z"/>
<path d="M20233 16988 c36 -131 69 -418 74 -638 l9 -400 127 287 c146 331 68 876 -136 944 -101 34 -121 -16 -74 -193z"/>
<path d="M700 16986 c0 -137 300 -378 475 -383 196 -5 146 279 -68 393 -253 136 -407 132 -407 -10z"/>
<path d="M8150 17000 c-34 -55 8 -100 94 -100 86 0 156 45 156 100 0 55 -42 100 -94 100 -52 0 -122 -45 -156 -100z"/>
<path d="M19545 16775 c37 -124 93 -416 124 -650 61 -457 178 -549 282 -223 72 228 -226 1098 -376 1098 -55 0 -69 -98 -30 -225z"/>
<path d="M7200 16761 c0 -77 74 -168 164 -203 208 -79 257 -30 178 178 -77 200 -342 219 -342 25z"/>
<path d="M23382 16849 c-92 -93 164 -749 292 -749 191 0 150 447 -57 635 -101 91 -206 142 -235 114z"/>
<path d="M24788 16831 c-6 -45 -1 -126 12 -181 14 -55 58 -347 99 -650 l75 -550 13 669 c7 368 -32 697 -87 731 -55 34 -105 25 -112 -19z"/>
<path d="M4300 16711 c0 -50 180 -107 400 -128 278 -27 400 1 400 89 0 83 -142 128 -400 128 -220 0 -400 -40 -400 -89z"/>
<path d="M5850 16700 c-73 -118 184 -239 371 -176 83 27 51 84 -90 160 -144 77 -240 82 -281 16z"/>
<path d="M24053 16475 c86 -411 220 -561 305 -341 96 250 -40 666 -218 666 -123 0 -142 -68 -87 -325z"/>
<path d="M200 16617 c0 -45 113 -188 250 -317 187 -176 250 -197 250 -83 0 84 -82 226 -183 318 -200 180 -317 211 -317 82z"/>
<path d="M2184 16046 c-32 -620 52 -931 168 -627 109 285 96 1210 -18 1251 -79 28 -127 -174 -150 -624z"/>
<path d="M2666 15875 c-229 -811 -301 -1375 -175 -1375 60 0 110 101 110 225 1 191 159 837 367 1500 31 96 8 175 -49 175 -58 0 -172 -236 -253 -525z"/>
<path d="M15100 16200 c0 -110 63 -200 141 -200 91 0 122 70 88 200 -29 110 -92 200 -141 200 -48 0 -88 -90 -88 -200z"/>
<path d="M18100 16325 c-1 -181 462 -925 575 -925 174 0 161 53 -135 557 -232 397 -440 570 -440 368z"/>
<path d="M4 16200 c-1 -82 89 -285 201 -450 112 -165 268 -449 347 -632 79 -183 190 -304 246 -269 126 78 135 351 12 351 -50 0 -136 124 -192 275 -136 364 -610 925 -614 725z"/>
<path d="M4800 16100 c0 -55 113 -100 250 -100 138 0 250 45 250 100 0 55 -112 100 -250 100 -137 0 -250 -45 -250 -100z"/>
<path d="M10300 16058 c0 -251 118 -458 261 -458 165 0 178 141 35 407 -120 225 -296 256 -296 51z"/>
<path d="M1100 16005 c0 -282 230 -1105 308 -1105 118 0 116 80 -16 695 -60 278 -150 505 -200 505 -51 0 -92 -43 -92 -95z"/>
<path d="M7900 16000 c0 -55 65 -100 144 -100 79 0 172 45 206 100 34 55 -31 100 -144 100 -113 0 -206 -45 -206 -100z"/>
<path d="M20800 16006 c0 -52 39 -118 87 -148 48 -30 114 -190 148 -356 70 -351 264 -407 267 -77 1 182 20 196 98 75 53 -82 98 -251 98 -375 1 -124 47 -225 102 -225 123 0 130 697 10 888 -48 76 -138 107 -200 68 -61 -38 -138 2 -171 88 -64 167 -439 220 -439 62z"/>
<path d="M1678 15927 c-74 -160 43 -1527 130 -1527 121 0 120 1471 -1 1546 -51 31 -109 23 -129 -19z"/>
<path d="M3600 15900 c0 -55 67 -100 150 -100 83 0 150 45 150 100 0 55 -67 100 -150 100 -83 0 -150 -45 -150 -100z"/>
<path d="M6400 15912 c0 -105 510 -217 635 -140 48 29 25 92 -49 139 -179 113 -586 113 -586 1z"/>
<path d="M14500 15847 c0 -84 -68 -179 -150 -211 -86 -33 -150 -182 -150 -347 0 -326 155 -388 247 -99 39 124 124 173 245 141 254 -66 381 169 173 320 -91 67 -165 172 -165 235 0 63 -45 114 -100 114 -55 0 -100 -69 -100 -153z"/>
<path d="M23070 15936 c-107 -107 -83 -416 39 -491 186 -116 283 94 154 333 -68 126 -155 197 -193 158z"/>
<path d="M23587 15762 c-126 -278 -50 -600 129 -540 127 42 178 670 59 743 -41 26 -125 -66 -188 -203z"/>
<path d="M8244 15711 c-136 -136 7 -211 406 -211 248 0 450 -45 450 -100 0 -55 48 -100 107 -100 59 0 93 99 75 219 -28 189 -98 220 -513 228 -264 5 -500 -12 -525 -36z"/>
<path d="M15800 15720 c0 -123 685 -369 775 -278 101 101 -110 250 -453 319 -199 39 -322 24 -322 -41z"/>
<path d="M22400 15743 c0 -157 222 -441 305 -390 114 70 -63 447 -209 447 -53 0 -96 -25 -96 -57z"/>
<path d="M24157 15575 c-173 -827 -81 -1475 209 -1475 157 0 179 161 34 250 -160 99 -115 567 75 782 128 144 142 209 50 241 -69 24 -125 130 -125 235 0 267 -186 241 -243 -33z"/>
<path d="M6 15405 c-4 -237 26 -313 97 -242 68 68 70 185 6 345 -90 227 -97 221 -103 -103z"/>
<path d="M4000 15550 c0 -82 67 -150 150 -150 83 0 150 68 150 150 0 82 -67 150 -150 150 -83 0 -150 -68 -150 -150z"/>
<path d="M17603 15625 c4 -92 466 -625 542 -625 130 0 38 317 -145 500 -201 201 -403 265 -397 125z"/>
<path d="M7525 15275 c23 -69 102 -125 175 -125 73 0 152 56 175 125 25 74 -46 125 -175 125 -129 0 -200 -51 -175 -125z"/>
<path d="M10662 14900 c62 -540 175 -797 296 -675 97 97 -57 837 -216 1041 -128 164 -137 124 -80 -366z"/>
<path d="M5754 15107 c-31 -51 -9 -123 50 -160 152 -94 616 39 544 156 -76 124 -518 127 -594 4z"/>
<path d="M7000 15100 c0 -55 90 -100 200 -100 110 0 200 45 200 100 0 55 -90 100 -200 100 -110 0 -200 -45 -200 -100z"/>
<path d="M9600 15100 c0 -55 45 -100 99 -100 55 0 201 -157 325 -349 124 -192 265 -349 312 -350 125 -2 -25 520 -209 724 -170 188 -527 239 -527 75z"/>
<path d="M3142 14964 c-92 -238 2 -1417 107 -1364 139 70 187 1500 51 1500 -59 0 -130 -61 -158 -136z"/>
<path d="M11269 15030 c-93 -150 28 -930 144 -930 100 0 99 435 -2 799 -45 160 -96 207 -142 131z"/>
<path d="M15950 14900 c-56 -91 331 -300 557 -300 164 0 100 189 -100 296 -244 131 -378 132 -457 4z"/>
<path d="M17200 14912 c0 -128 294 -351 367 -279 72 73 -151 367 -279 367 -49 0 -88 -39 -88 -88z"/>
<path d="M3675 14842 c-107 -107 -90 -1163 21 -1339 159 -252 190 -79 121 681 -37 404 -101 700 -142 658z"/>
<path d="M4669 14828 c-158 -24 -264 -94 -242 -160 22 -65 81 -108 131 -95 51 12 283 51 517 86 234 35 425 104 425 152 0 89 -308 95 -831 17z"/>
<path d="M7913 14813 c41 -126 187 -155 187 -38 0 41 -51 92 -112 113 -62 20 -96 -14 -75 -75z"/>
<path d="M12456 14549 c-191 -458 -195 -549 -19 -549 85 0 158 159 193 423 74 549 19 589 -174 126z"/>
<path d="M19405 14634 c-221 -282 -367 -706 -274 -799 96 -96 269 69 269 257 0 100 90 295 200 435 110 140 200 281 200 314 0 143 -203 37 -395 -207z"/>
<path d="M20040 14619 c-460 -591 -546 -1019 -204 -1019 79 0 169 -68 200 -150 66 -172 321 -200 417 -46 35 58 8 172 -60 254 -102 123 -73 202 159 445 395 412 233 492 -209 104 -461 -405 -548 -326 -208 189 146 220 265 423 265 452 0 126 -166 20 -360 -229z"/>
<path d="M23300 14822 c0 -162 318 -522 461 -522 128 0 123 45 -27 300 -161 273 -434 413 -434 222z"/>
<path d="M11818 14436 c18 -213 77 -375 132 -361 149 37 121 651 -32 702 -97 33 -123 -57 -100 -341z"/>
<path d="M13063 14575 c-87 -326 -76 -575 25 -575 49 0 111 101 137 225 27 124 82 304 123 400 51 121 28 175 -76 175 -82 0 -176 -101 -209 -225z"/>
<path d="M14769 14736 c-121 -121 43 -236 337 -236 316 0 395 140 136 239 -205 79 -392 78 -473 -3z"/>
<path d="M21601 14675 c1 -276 215 -875 312 -875 97 0 33 733 -80 925 -72 121 -233 86 -232 -50z"/>
<path d="M22171 14725 c-23 -41 -2 -221 47 -400 69 -255 141 -325 335 -325 136 0 253 34 260 75 57 336 46 539 -33 588 -52 31 -118 -37 -148 -152 -65 -249 -232 -181 -232 95 0 190 -148 267 -229 119z"/>
<path d="M8500 14612 c0 -48 68 -144 150 -212 125 -104 150 -90 150 88 0 122 -64 212 -150 212 -82 0 -150 -39 -150 -88z"/>
<path d="M800 14178 c0 -331 93 -578 219 -578 57 0 69 134 28 325 -90 431 -247 591 -247 253z"/>
<path d="M0 14162 c0 -159 278 -417 361 -335 76 77 -145 473 -265 473 -53 0 -96 -62 -96 -138z"/>
<path d="M4422 14183 c52 -155 366 -181 403 -33 14 55 -81 115 -211 133 -162 23 -222 -8 -192 -100z"/>
<path d="M18350 14101 c-78 -247 30 -625 157 -547 51 32 93 187 93 346 0 350 -161 480 -250 201z"/>
<path d="M20856 14073 c-162 -247 -103 -706 82 -643 61 20 98 153 81 294 -17 141 17 286 75 322 58 36 106 108 106 160 0 172 -193 97 -344 -133z"/>
<path d="M2298 13943 c-169 -443 -86 -843 174 -843 112 0 132 59 78 225 -41 124 -68 371 -62 550 14 391 -58 417 -190 68z"/>
<path d="M6757 14111 c-71 -114 415 -240 566 -147 75 46 47 97 -80 146 -268 105 -422 105 -486 1z"/>
<path d="M8613 13984 c-246 -394 -513 -1309 -513 -1757 0 -400 21 -438 225 -409 153 22 236 112 258 282 52 384 217 490 217 139 0 -404 240 -735 411 -566 99 97 90 160 -43 308 -93 101 -169 339 -170 527 -2 448 -123 653 -276 468 -61 -73 -159 -261 -219 -418 -60 -157 -128 -266 -153 -242 -56 57 306 1258 427 1415 51 65 120 198 154 294 90 252 -155 220 -318 -41z"/>
<path d="M17700 13919 c0 -295 239 -713 346 -606 79 78 -168 887 -270 887 -42 0 -76 -126 -76 -281z"/>
<path d="M1474 14041 c-111 -111 -89 -820 27 -891 55 -35 124 -2 152 73 72 186 -87 910 -179 818z"/>
<path d="M14100 13998 c0 -137 481 -350 575 -256 87 86 -251 358 -444 358 -72 0 -131 -46 -131 -102z"/>
<path d="M24738 13863 c39 -155 24 -263 -36 -263 -155 0 -122 -271 40 -333 78 -30 164 -159 189 -286 26 -127 41 58 33 411 -10 450 -56 656 -153 688 -105 35 -123 -18 -73 -217z"/>
<path d="M10220 13880 c-207 -207 -87 -2150 130 -2113 198 35 309 333 158 428 -105 65 -145 319 -150 947 -5 472 -10 858 -13 858 -3 0 -59 -54 -125 -120z"/>
<path d="M5500 13667 c0 -282 75 -370 254 -302 104 40 110 105 24 293 -140 307 -278 311 -278 9z"/>
<path d="M15900 13533 c0 -45 69 -415 154 -821 139 -664 139 -754 0 -908 -159 -176 -115 -304 105 -304 69 0 151 124 183 275 78 373 -165 1749 -319 1801 -68 22 -123 3 -123 -43z"/>
<path d="M23245 13367 c-92 -367 -8 -1097 132 -1143 96 -32 120 130 100 667 -27 712 -123 909 -232 476z"/>
<path d="M7400 13400 c0 -55 90 -100 200 -100 110 0 200 45 200 100 0 55 -90 100 -200 100 -110 0 -200 -45 -200 -100z"/>
<path d="M10825 13147 c-80 -261 -75 -560 19 -1148 l128 -796 -236 59 c-130 33 -236 19 -236 -31 0 -148 227 -331 409 -331 93 0 196 -67 227 -150 32 -82 127 -150 211 -150 188 0 188 -7 1 440 -111 264 -124 417 -50 556 144 269 127 407 -42 343 -102 -40 -162 42 -204 278 -91 503 -94 913 -8 1108 43 97 36 175 -17 175 -51 0 -142 -159 -202 -353z"/>
<path d="M22400 13343 c0 -86 43 -236 95 -334 53 -98 118 -305 147 -460 52 -287 216 -524 303 -438 78 79 -346 1389 -450 1389 -52 0 -95 -70 -95 -157z"/>
<path d="M9476 13219 c-67 -258 90 -1325 214 -1449 163 -163 255 203 123 491 -62 137 -113 449 -113 694 0 446 -135 605 -224 264z"/>
<path d="M15200 13362 c0 -21 68 -199 150 -397 82 -197 150 -540 150 -762 0 -272 44 -403 135 -403 174 0 103 923 -101 1325 -114 226 -334 382 -334 237z"/>
<path d="M16743 12625 c4 -426 -33 -905 -82 -1063 -68 -221 -59 -278 41 -245 72 24 195 266 274 538 118 402 123 594 27 1020 -64 289 -151 525 -193 525 -41 0 -72 -349 -67 -775z"/>
<path d="M322 13185 c24 -74 125 -151 223 -170 114 -22 162 14 133 100 -24 74 -125 151 -223 170 -114 22 -162 -14 -133 -100z"/>
<path d="M12162 13146 c-122 -318 -69 -846 85 -846 113 0 139 105 111 456 -40 508 -103 633 -196 390z"/>
<path d="M14718 13025 c62 -151 140 -477 173 -725 72 -550 269 -508 234 50 -32 510 -210 950 -385 950 -108 0 -113 -55 -22 -275z"/>
<path d="M23861 13142 c-93 -241 -73 -1042 25 -1042 76 0 214 686 214 1064 0 187 -165 172 -239 -22z"/>
<path d="M6138 13080 c-38 -60 0 -161 84 -222 244 -179 556 -836 746 -1574 175 -681 332 -894 332 -452 0 334 -284 1242 -557 1781 -240 475 -484 663 -605 467z"/>
<path d="M13152 13103 c-54 -87 542 -403 760 -403 163 0 90 187 -134 344 -252 177 -537 203 -626 59z"/>
<path d="M14000 13146 c0 -30 90 -151 200 -269 110 -118 200 -274 200 -346 0 -72 71 -131 157 -131 116 0 138 57 87 219 -95 298 -644 747 -644 527z"/>
<path d="M4564 13031 c-124 -124 -62 -431 86 -431 83 0 150 87 150 194 0 209 -132 341 -236 237z"/>
<path d="M11446 12975 c-79 -205 242 -1793 430 -2128 104 -185 115 -186 180 -18 89 233 0 773 -198 1191 -85 181 -171 476 -190 655 -42 384 -139 516 -222 300z"/>
<path d="M7100 12810 c0 -104 135 -446 300 -760 165 -314 300 -658 300 -766 0 -117 44 -168 110 -128 135 83 60 497 -193 1069 -103 234 -215 504 -249 600 -82 234 -268 224 -268 -15z"/>
<path d="M17464 12327 c13 -370 72 -689 130 -708 58 -20 106 78 106 217 0 463 174 367 240 -134 36 -271 110 -521 164 -554 144 -90 241 247 109 379 -62 62 -113 277 -113 476 0 425 -79 539 -266 384 -105 -87 -134 -67 -134 93 0 112 -27 275 -61 362 -129 336 -199 130 -175 -515z"/>
<path d="M2798 12875 c0 -14 -66 -205 -145 -425 -129 -357 -145 -371 -149 -125 -4 286 -240 387 -334 142 -77 -201 94 -1571 211 -1688 190 -190 308 5 190 316 -81 216 -81 355 1 524 99 204 428 1164 428 1249 0 37 -199 44 -202 7z"/>
<path d="M21628 12775 c320 -803 413 -975 531 -975 109 0 97 105 -60 504 -110 277 -199 524 -199 550 0 25 -72 46 -161 46 -88 0 -138 -56 -111 -125z"/>
<path d="M24287 12533 c-162 -334 -130 -965 45 -905 65 23 118 194 118 381 0 188 39 401 86 475 51 78 45 175 -13 233 -66 66 -146 5 -236 -184z"/>
<path d="M552 12604 c-34 -55 -14 -188 43 -295 150 -281 130 -389 -70 -373 -215 17 -189 -203 99 -815 236 -503 449 -630 632 -380 104 143 99 241 -27 542 -84 202 -217 579 -294 838 -145 488 -277 654 -383 483z"/>
<path d="M3211 12481 c-327 -837 -405 -1758 -146 -1709 222 41 244 -452 36 -793 -209 -343 -275 -979 -101 -979 55 0 100 91 100 203 0 112 72 371 160 575 155 360 164 365 265 147 107 -229 375 -313 375 -118 0 59 -109 295 -243 525 -221 381 -233 466 -141 964 55 301 188 669 294 818 107 150 152 298 101 329 -107 66 -606 -742 -623 -1011 -8 -130 -23 -139 -51 -32 -22 83 22 387 97 678 139 530 45 834 -123 403z"/>
<path d="M0 12506 c0 -58 45 -106 100 -106 55 0 100 20 100 44 0 24 -45 72 -100 106 -55 34 -100 14 -100 -44z"/>
<path d="M20048 12231 c-228 -546 -277 -802 -207 -1081 104 -415 240 -282 244 239 2 269 71 652 154 850 83 199 109 361 57 361 -51 0 -163 -166 -248 -369z"/>
<path d="M21055 12408 c-91 -147 249 -908 406 -908 176 0 172 98 -14 344 -81 107 -147 273 -147 369 0 205 -160 333 -245 195z"/>
<path d="M19251 12069 c-246 -589 -183 -1369 110 -1369 167 0 177 141 31 415 -78 146 -75 339 11 699 145 603 56 752 -152 255z"/>
<path d="M1400 11962 c0 -391 255 -1062 404 -1062 159 0 236 300 109 427 -62 62 -113 219 -113 350 0 280 -167 623 -304 623 -53 0 -96 -152 -96 -338z"/>
<path d="M4841 12075 c36 -124 93 -622 127 -1108 56 -793 81 -877 247 -834 102 27 210 7 241 -42 144 -234 244 -40 244 476 0 627 98 689 116 72 13 -420 159 -797 267 -689 100 99 101 1047 2 1463 -66 276 -147 376 -336 412 -208 40 -249 9 -249 -189 0 -384 -149 -270 -279 214 -80 299 -175 450 -282 450 -121 0 -146 -58 -98 -225z m618 -1149 c-109 -110 -184 64 -106 245 74 171 80 171 121 -4 24 -100 17 -209 -15 -241z"/>
<path d="M18491 12131 c-78 -680 205 -1519 369 -1092 36 96 16 225 -47 288 -62 62 -113 259 -113 437 0 178 -45 352 -100 386 -55 34 -104 25 -109 -19z"/>
<path d="M12300 11772 c0 -204 76 -392 200 -499 110 -94 200 -261 200 -372 0 -304 172 -241 340 124 181 397 237 907 106 975 -53 28 -110 -96 -127 -275 -18 -179 -58 -325 -89 -325 -107 0 -324 348 -327 525 -2 96 -70 175 -153 175 -103 0 -150 -103 -150 -328z"/>
<path d="M20648 11861 c-262 -400 -268 -1191 -9 -1243 159 -32 177 0 113 197 -106 328 -80 781 54 943 62 74 94 192 71 262 -26 76 -116 14 -229 -159z"/>
<path d="M24916 11900 c0 -137 22 -194 50 -125 28 69 28 181 0 250 -28 69 -50 13 -50 -125z"/>
<path d="M13577 11518 c-232 -504 -331 -1018 -196 -1018 58 0 137 101 176 225 38 124 103 248 144 275 109 73 231 900 133 897 -46 -1 -162 -172 -257 -379z"/>
<path d="M4200 11737 c0 -35 86 -204 190 -375 172 -282 296 -806 306 -1293 2 -108 49 -153 117 -111 174 108 33 1094 -214 1494 -192 310 -399 458 -399 285z"/>
<path d="M6371 11079 c54 -887 80 -979 279 -979 121 0 135 42 60 182 -54 99 -112 467 -131 817 -18 350 -83 652 -143 672 -76 26 -96 -190 -65 -692z"/>
<path d="M22855 11609 c-115 -187 43 -309 401 -309 239 0 344 46 344 150 0 83 -56 151 -125 151 -69 1 -221 28 -339 59 -117 32 -244 9 -281 -51z"/>
<path d="M3900 11428 c0 -112 67 -365 150 -563 83 -197 150 -518 150 -712 0 -247 45 -353 150 -353 315 0 103 1330 -265 1664 -174 157 -185 155 -185 -36z"/>
<path d="M14148 11394 c-36 -115 -43 -233 -14 -262 84 -83 266 66 266 218 0 234 -182 265 -252 44z"/>
<path d="M7 11200 c-4 -192 90 -507 209 -700 260 -423 372 -238 146 240 -87 182 -201 439 -254 571 -88 222 -96 214 -101 -111z"/>
<path d="M3656 11010 c-40 -65 6 -240 103 -387 216 -330 308 -138 112 235 -94 180 -166 231 -215 152z"/>
<path d="M21053 10925 c41 -96 131 -331 200 -521 119 -328 347 -538 347 -321 0 216 -399 1017 -507 1017 -71 0 -86 -67 -40 -175z"/>
<path d="M14855 10875 c-89 -288 -133 -1677 -54 -1726 160 -98 238 195 275 1023 25 556 1 828 -73 828 -60 0 -127 -56 -148 -125z"/>
<path d="M21868 10925 c-123 -209 -175 -725 -73 -725 116 0 149 69 249 525 54 248 -67 386 -176 200z"/>
<path d="M24159 10815 c-29 -47 62 -194 203 -325 350 -328 467 -562 545 -1090 66 -448 66 -447 78 150 10 543 -20 636 -316 975 -339 388 -420 434 -510 290z"/>
<path d="M9947 10694 c-103 -166 576 -654 755 -543 165 102 109 349 -80 349 -98 0 -275 68 -393 151 -147 103 -237 117 -282 43z"/>
<path d="M17263 10488 c-105 -522 -75 -788 87 -788 115 0 150 128 150 550 0 599 -138 737 -237 238z"/>
<path d="M8369 10635 c-125 -125 -72 -410 122 -649 249 -306 332 -211 233 267 -78 372 -216 522 -355 382z"/>
<path d="M13798 10548 c-70 -84 -105 -175 -78 -201 100 -100 680 84 680 216 0 186 -444 175 -602 -15z"/>
<path d="M16080 10025 c-27 -613 -51 -678 -255 -707 -217 -31 -223 -9 -186 630 48 798 -160 870 -240 83 -29 -277 -104 -566 -167 -642 -146 -178 -52 -689 128 -689 75 0 164 112 199 249 79 316 276 211 214 -113 -56 -291 117 -430 246 -198 111 198 297 120 216 -91 -37 -98 8 -147 134 -147 105 0 247 -56 315 -124 99 -99 142 -96 211 16 111 180 24 408 -156 408 -76 0 -139 45 -139 100 0 55 56 89 124 75 89 -18 119 132 106 525 -24 703 -17 675 -130 500 -53 -82 -98 -274 -98 -425 -1 -177 -55 -275 -152 -275 -120 0 -150 150 -150 750 0 933 -180 995 -220 75z"/>
<path d="M23400 10583 c0 -87 75 -220 167 -296 91 -75 290 -307 441 -516 265 -364 504 -363 305 2 -180 328 -913 979 -913 810z"/>
<path d="M2141 9950 c-133 -529 204 -1047 491 -757 91 92 78 142 -57 218 -114 64 -175 220 -175 444 0 400 -167 461 -259 95z"/>
<path d="M9600 10086 c0 -62 117 -222 261 -355 288 -267 837 -291 920 -40 31 95 -5 121 -112 80 -161 -62 -718 165 -823 335 -81 131 -246 118 -246 -20z"/>
<path d="M13844 10058 c-256 -187 -175 -240 281 -183 231 29 375 100 375 186 0 181 -406 180 -656 -3z"/>
<path d="M18653 9905 c-84 -162 -153 -461 -153 -664 0 -382 394 -1537 525 -1540 41 0 75 202 75 449 0 333 -39 450 -150 450 -82 0 -156 56 -164 125 -67 588 -51 865 67 1147 170 408 7 435 -200 33z"/>
<path d="M19323 10075 c-138 -171 -209 -975 -109 -1250 120 -333 325 -289 233 50 -96 354 -66 902 61 1139 112 210 -27 256 -185 61z"/>
<path d="M19840 9945 c-99 -392 14 -1241 186 -1414 244 -244 402 -66 206 232 -107 163 -165 462 -165 845 0 613 -115 783 -227 337z"/>
<path d="M23000 10013 c0 -194 378 -1199 508 -1349 41 -48 122 -57 180 -22 67 42 -2 276 -191 649 -164 321 -297 657 -297 746 0 90 -45 163 -100 163 -55 0 -100 -84 -100 -187z"/>
<path d="M1200 9865 c0 -317 176 -788 329 -883 64 -39 196 0 294 89 192 174 238 429 77 429 -55 0 -100 -45 -100 -100 0 -246 -173 -65 -257 267 -110 436 -343 570 -343 198z"/>
<path d="M6945 9974 c-102 -266 -5 -620 179 -655 146 -28 164 19 112 299 -77 410 -208 571 -291 356z"/>
<path d="M7600 9697 c0 -181 62 -327 154 -362 207 -80 312 39 164 187 -65 65 -118 199 -118 298 0 99 -45 180 -100 180 -55 0 -100 -136 -100 -303z"/>
<path d="M361 9818 c-71 -115 165 -660 329 -762 140 -87 410 48 410 205 0 76 -64 139 -142 139 -78 0 -228 119 -334 265 -124 170 -218 225 -263 153z"/>
<path d="M20626 9676 c-148 -337 -27 -1099 218 -1370 111 -122 132 -209 63 -252 -151 -93 -133 -454 21 -454 162 0 415 636 273 683 -56 19 -101 92 -101 163 0 71 -65 184 -145 250 -87 72 -158 347 -177 687 -29 538 -37 553 -152 293z"/>
<path d="M22400 9769 c0 -90 90 -312 200 -492 109 -180 199 -406 200 -502 0 -96 72 -175 161 -175 214 0 122 369 -218 870 -327 481 -343 495 -343 299z"/>
<path d="M14119 9714 c-323 -90 -233 -246 164 -287 270 -28 327 -2 300 136 -39 202 -151 239 -464 151z"/>
<path d="M17892 9586 c-229 -429 52 -1840 345 -1727 213 81 288 453 85 418 -222 -37 -380 744 -242 1195 113 368 -11 443 -188 114z"/>
<path d="M4853 9179 c-41 -236 -96 -373 -122 -304 -117 308 -216 79 -162 -375 38 -323 21 -500 -47 -500 -103 0 -144 136 -280 924 -35 206 -104 349 -153 319 -122 -75 -112 -564 22 -1096 127 -504 324 -723 514 -573 69 54 248 128 399 164 266 63 270 58 153 -211 -66 -153 -346 -499 -623 -771 -471 -462 -506 -479 -538 -262 -18 127 34 298 115 380 132 132 125 188 -54 492 -112 191 -208 542 -215 788 -7 248 -56 429 -112 410 -55 -20 -89 -247 -75 -506 15 -293 -13 -446 -75 -408 -55 34 -100 217 -100 406 0 189 -45 344 -100 344 -55 0 -100 -182 -100 -405 0 -298 66 -470 250 -654 227 -227 244 -303 187 -796 -59 -501 -48 -545 137 -545 111 0 258 68 326 150 169 204 274 188 350 -50 105 -332 250 -225 250 183 0 459 74 558 269 362 80 -80 232 -145 338 -145 106 0 193 -45 193 -100 0 -55 -40 -100 -88 -100 -49 0 -162 -111 -250 -246 -154 -234 -151 -253 58 -365 164 -88 230 -89 259 -3 21 63 110 114 198 114 120 0 91 -72 -116 -289 -175 -182 -237 -314 -169 -356 59 -37 108 -166 108 -287 0 -121 90 -276 200 -345 110 -68 200 -186 200 -262 0 -75 63 -189 140 -252 111 -93 183 -46 358 237 120 195 260 354 310 354 163 0 99 -148 -212 -489 -285 -311 -293 -341 -127 -463 166 -121 167 -142 12 -314 -91 -101 -195 -304 -232 -450 -55 -220 -26 -278 168 -338 384 -121 1322 -560 1483 -694 83 -69 282 -150 443 -179 232 -41 355 10 587 242 347 347 511 327 516 -63 3 -243 60 -299 396 -393 216 -61 408 -160 429 -221 25 -77 -598 -115 -2099 -129 l-2136 -18 -116 254 c-103 226 -94 255 82 255 260 0 255 204 -6 272 -112 29 -271 183 -353 341 -199 386 -495 371 -744 -38 -228 -374 -278 -694 -76 -492 96 96 161 74 307 -105 131 -162 200 -190 237 -99 66 163 333 -31 333 -241 0 -211 -530 -168 -777 62 l-216 201 -107 -201 c-100 -186 -208 -200 -1554 -200 -1276 0 -1446 19 -1446 165 0 412 -423 1294 -722 1505 -306 217 -603 215 -387 -1 60 -60 109 -190 109 -289 0 -99 70 -180 155 -180 177 0 445 -570 445 -947 0 -203 -49 -253 -250 -253 -137 0 -255 34 -261 75 -82 546 -75 760 19 600 56 -96 148 -175 204 -175 143 0 -5 422 -202 571 -193 148 -710 169 -710 29 0 -55 68 -100 150 -100 83 0 150 -84 150 -188 0 -103 28 -328 63 -500 50 -253 29 -312 -111 -312 -129 0 -160 58 -122 225 28 124 13 315 -32 425 -58 138 -86 3 -91 -436 l-7 -635 7725 80 c9633 101 9290 98 13650 121 l3625 20 0 638 c0 449 -45 675 -152 764 -237 196 -273 58 -88 -331 227 -476 133 -693 -284 -652 -311 30 -331 57 -440 609 -154 780 -315 1141 -613 1375 -329 259 -882 261 -1019 4 -144 -269 -141 -274 202 -394 217 -76 355 -224 475 -509 186 -442 319 -522 319 -191 0 243 -369 887 -508 887 -51 0 -92 41 -92 91 0 149 369 6 579 -225 205 -225 360 -655 467 -1291 l63 -375 -383 0 c-367 0 -388 18 -516 454 -150 507 -451 938 -572 817 -68 -67 19 -373 312 -1096 56 -138 21 -174 -164 -173 -186 2 -282 108 -455 501 -284 647 -773 884 -536 261 60 -159 63 -264 6 -264 -51 0 -142 180 -201 400 -60 223 -169 400 -247 400 -76 0 -156 101 -177 225 -36 216 -43 213 -177 -60 -125 -253 -121 -295 31 -380 183 -102 235 -385 70 -385 -55 0 -100 46 -100 102 0 56 -112 154 -250 216 -181 83 -250 192 -250 398 0 273 -188 415 -211 159 -31 -354 51 -634 222 -754 104 -73 259 -265 342 -427 188 -363 305 -373 391 -34 l65 260 249 -269 c203 -219 277 -247 396 -148 118 98 146 90 146 -41 0 -131 -119 -164 -625 -172 -344 -6 -936 -18 -1316 -27 -664 -17 -959 89 -959 344 0 51 -45 93 -100 93 -55 0 -100 -115 -100 -255 l0 -255 -875 18 c-481 11 -931 40 -999 66 -238 90 -16 219 276 161 252 -51 318 -15 471 252 97 172 251 312 340 312 167 1 283 275 286 676 0 124 46 225 101 225 55 0 100 -202 100 -450 0 -458 160 -628 218 -233 44 300 259 346 299 64 46 -322 223 -279 283 69 64 368 240 384 282 25 17 -151 80 -275 139 -275 73 0 89 244 52 745 -64 835 -17 920 527 972 370 35 367 30 563 1065 l44 231 185 -228 c164 -202 205 -212 357 -86 152 126 190 120 317 -53 131 -177 125 -199 -61 -228 -239 -37 -270 -172 -57 -253 107 -41 125 -119 67 -277 -104 -280 -28 -688 128 -688 135 0 155 1960 22 2176 -125 202 -239 143 -353 -184 -135 -387 -275 -307 -362 209 -81 478 -225 522 -269 82 -17 -175 -81 -334 -143 -354 -107 -35 -282 470 -264 762 5 77 -36 257 -91 400 -55 142 -123 574 -151 959 -27 385 -68 719 -91 742 -105 107 -191 -153 -198 -599 -4 -269 -37 -521 -75 -558 -122 -122 -72 -435 70 -435 201 0 265 -363 129 -731 -180 -486 -148 -879 83 -1008 606 -337 386 -745 -426 -790 -402 -23 -437 -110 -278 -694 65 -237 39 -288 -194 -376 -318 -121 -452 -61 -452 205 0 207 -337 277 -450 94 -34 -55 -146 -100 -249 -100 -311 0 -494 -265 -435 -628 38 -237 -3 -395 -150 -574 -182 -222 -226 -234 -422 -114 -200 122 -250 102 -568 -225 -329 -338 -386 -359 -989 -359 l-641 0 66 275 c117 491 236 651 388 525 105 -87 160 -68 240 82 58 107 218 224 357 258 311 78 327 223 34 316 -165 52 -275 5 -445 -193 -321 -373 -360 -326 -113 135 239 448 475 556 1457 661 485 52 623 102 600 219 -35 176 -218 286 -612 370 -641 135 -71 436 1025 541 581 55 650 86 711 314 89 338 -43 664 -303 747 -334 106 -218 468 213 670 334 157 986 820 986 1003 0 42 -67 77 -150 77 -82 0 -150 68 -150 150 0 83 -40 150 -89 150 -121 0 -211 -256 -211 -596 0 -211 -68 -308 -276 -394 -522 -216 -849 -551 -846 -866 2 -206 -90 -375 -309 -565 -171 -149 -335 -246 -365 -216 -30 30 75 158 232 283 157 126 243 255 191 288 -126 77 -946 -739 -890 -885 47 -124 -322 -398 -413 -306 -31 31 -1 225 67 432 139 420 113 1175 -41 1175 -55 0 -130 -315 -166 -700 -61 -645 -198 -1032 -890 -2500 -52 -110 -202 -470 -334 -800 -197 -492 -286 -606 -497 -631 l-257 -32 187 532 c103 292 333 801 512 1131 645 1189 753 1407 929 1871 208 545 191 1129 -32 1129 -113 0 -142 -107 -121 -450 18 -302 -4 -405 -66 -312 -127 189 -315 51 -315 -231 0 -367 -117 -857 -205 -857 -44 0 -55 248 -24 550 48 466 32 550 -107 550 -128 0 -164 -101 -164 -462 0 -340 -106 -675 -400 -1262 -387 -774 -494 -1176 -312 -1176 49 0 139 200 200 444 108 430 263 638 384 518 32 -33 -106 -423 -307 -869 -201 -445 -365 -874 -365 -951 0 -238 -192 -158 -259 107 -34 137 -106 222 -160 189 -54 -33 -76 -145 -49 -249 35 -133 -4 -189 -130 -189 -136 0 -196 110 -248 455 -80 533 -3 951 260 1420 104 186 169 372 142 414 -26 43 17 319 95 614 78 296 124 556 102 577 -111 112 -252 -143 -363 -657 -68 -315 -206 -654 -307 -752 -138 -135 -186 -343 -195 -850 -11 -609 -5 -748 46 -1071 9 -55 -127 -114 -302 -131 -239 -23 -346 21 -429 175 -142 265 -337 269 -253 6 91 -287 -96 -247 -232 50 -69 152 -75 250 -16 250 177 0 102 276 -89 326 -227 59 -398 691 -502 1849 -6 69 -56 125 -111 125 -55 0 -100 -177 -100 -394 0 -477 353 -1999 497 -2143 193 -193 104 -275 -265 -244 -317 27 -387 80 -503 381 l-134 350 211 -275 c226 -295 394 -356 394 -143 0 192 -700 980 -810 912 -51 -32 -70 -95 -42 -140 28 -46 -24 -112 -115 -147 -127 -48 -139 -91 -50 -180 173 -173 142 -277 -83 -277 -162 0 -200 67 -200 348 0 297 -40 358 -275 414 -399 95 -503 208 -449 488 56 294 -188 709 -468 798 -109 34 -226 150 -260 257 -81 257 -248 250 -248 -10 0 -262 273 -795 408 -795 56 0 167 -154 246 -343 78 -189 189 -372 244 -406 148 -91 125 -221 -52 -289 -91 -35 -179 9 -217 107 -59 155 -149 267 -623 781 -101 110 -216 304 -254 432 -59 196 -126 227 -435 200 -437 -37 -514 141 -265 622 191 370 129 757 -136 841 -101 32 -347 -10 -547 -93 -469 -197 -469 -197 -469 105 0 154 160 447 400 731 220 261 400 504 400 539 0 153 -719 394 -1005 337 -371 -74 -469 105 -321 587 70 228 70 365 -2 437 -71 71 -66 149 20 252 69 83 109 337 90 579 l-32 431 369 31 c300 25 399 -15 530 -215 88 -135 294 -301 456 -368 162 -67 295 -156 295 -198 0 -42 179 -260 398 -486 376 -387 387 -415 200 -515 -267 -143 -249 -342 48 -537 461 -302 779 -140 329 167 -222 152 -223 155 -28 302 172 130 181 179 70 388 -109 203 -98 309 78 719 l206 481 558 -509 c306 -281 598 -510 649 -510 147 0 107 199 -90 449 -100 127 -242 483 -316 791 -86 360 -186 560 -279 560 -97 0 -122 -58 -77 -175 38 -96 94 -310 125 -475 l58 -300 -262 240 c-318 291 -477 198 -787 -459 -111 -237 -221 -431 -245 -431 -24 0 -214 169 -424 375 -209 206 -444 426 -521 488 -77 62 -222 212 -322 334 -164 200 -239 214 -778 152 -449 -52 -590 -39 -568 53 15 68 -22 142 -84 164 -65 24 -142 -137 -185 -387z m140 -1054 c4 -69 -38 -125 -93 -125 -55 0 -97 146 -93 325 6 272 21 293 93 125 47 -110 89 -256 93 -325z m12948 -3175 c-90 -137 -226 -250 -303 -250 -197 0 -171 90 87 306 315 263 409 239 216 -56z m277 -172 c-71 -71 -118 -77 -118 -15 0 134 118 252 185 185 28 -28 -2 -105 -67 -170z m-11715 -125 c-128 -136 -271 -223 -318 -194 -152 94 -90 245 140 338 376 151 421 115 178 -144z m10597 -53 c0 -55 -45 -100 -100 -100 -55 0 -100 45 -100 100 0 55 45 100 100 100 55 0 100 -45 100 -100z m-996 -946 c-197 -237 -299 -183 -170 91 70 147 152 209 207 154 54 -54 39 -152 -37 -245z m-8515 -479 c240 -642 243 -699 27 -584 -112 60 -285 102 -384 93 -491 -43 -632 16 -632 261 0 461 830 654 989 230z m-2146 -1142 c35 -91 17 -213 -40 -270 -71 -71 -103 -68 -103 9 0 61 -27 183 -61 270 -33 87 -15 158 40 158 55 0 128 -75 164 -167z"/>
<path d="M9684 9450 c-35 -55 -96 -307 -133 -561 -58 -385 -41 -472 104 -527 96 -37 185 -54 199 -39 15 15 -3 297 -40 627 -36 330 -95 555 -130 500z"/>
<path d="M17363 9188 c-35 -172 -63 -438 -63 -590 0 -154 -67 -302 -150 -334 -290 -111 -146 -264 250 -264 448 0 466 36 240 490 -107 214 -139 437 -96 666 36 189 24 344 -27 344 -51 0 -120 -141 -154 -312z"/>
<path d="M21704 9425 c9 -161 578 -735 636 -642 34 55 -55 239 -198 409 -246 291 -447 399 -438 233z"/>
<path d="M0 9162 c0 -166 55 -262 150 -262 83 0 150 62 150 138 0 76 -67 194 -150 262 -127 105 -150 84 -150 -138z"/>
<path d="M9940 9161 c-92 -241 43 -661 212 -661 81 0 148 60 148 134 0 74 115 186 256 250 291 133 247 324 -57 245 -110 -29 -267 3 -348 70 -120 100 -161 93 -211 -38z"/>
<path d="M13900 9050 c0 -82 61 -150 136 -150 75 0 258 -122 407 -270 212 -213 288 -241 354 -134 123 198 18 391 -304 558 -363 187 -593 186 -593 -4z"/>
<path d="M13755 8608 c-75 -121 513 -539 644 -458 142 87 -207 543 -418 547 -93 2 -195 -39 -226 -89z"/>
<path d="M10690 8338 c-116 -139 -108 -156 55 -125 104 21 207 93 230 162 59 178 -126 155 -285 -37z"/>
<path d="M108 7895 c-146 -682 -137 -1262 20 -1323 96 -37 132 134 143 688 8 405 43 827 78 938 36 111 20 202 -34 202 -54 0 -147 -227 -207 -505z"/>
<path d="M24763 8320 c-28 -44 -8 -145 42 -225 111 -174 112 -768 2 -1045 -92 -231 -28 -475 103 -394 120 75 116 1744 -4 1744 -52 0 -116 -36 -143 -80z"/>
<path d="M1170 8237 c-35 -35 -93 -329 -130 -654 -80 -711 -302 -751 -266 -47 14 264 -19 464 -77 464 -173 0 -277 -431 -206 -851 56 -331 104 -395 282 -376 166 17 221 -39 246 -250 61 -530 212 -165 190 457 -22 610 -17 627 179 504 285 -178 342 -69 215 406 -101 374 -270 510 -433 347z"/>
<path d="M11855 8209 c-104 -169 44 -350 176 -218 79 79 79 139 0 218 -78 78 -127 78 -176 0z"/>
<path d="M13400 8183 c0 -65 79 -207 175 -316 169 -191 167 -196 -45 -143 -254 63 -626 -153 -450 -262 61 -38 88 -130 59 -205 -29 -75 51 -208 177 -297 l229 -160 -310 0 c-219 0 -431 -111 -723 -377 -409 -375 -411 -380 -210 -552 194 -165 216 -163 501 47 206 152 280 277 241 401 -47 148 -1 181 252 181 240 0 331 57 406 257 65 170 63 321 -6 450 -71 133 -71 193 0 193 57 0 104 87 104 194 0 107 45 222 100 256 165 102 114 211 -155 334 -317 144 -345 144 -345 -1z"/>
<path d="M21471 8156 c-185 -184 -225 -356 -83 -356 136 0 335 280 292 410 -26 79 -95 61 -209 -54z"/>
<path d="M1958 8112 c-146 -236 -123 -1457 33 -1728 150 -262 145 -286 -121 -563 -249 -260 -265 -319 -163 -580 63 -160 129 -481 147 -714 38 -516 101 -627 352 -627 147 0 194 -70 194 -285 0 -156 90 -388 200 -515 150 -173 200 -374 200 -809 0 -637 144 -1137 300 -1041 55 34 101 138 102 231 0 93 42 234 93 314 75 119 124 104 282 -91 272 -336 431 -187 359 335 -35 254 -11 521 58 650 64 120 88 311 52 425 -59 185 -120 200 -581 145 -283 -33 -565 -26 -626 15 -61 42 -137 301 -168 576 -31 275 -84 590 -118 700 -35 111 1 287 81 396 124 169 168 177 308 61 90 -75 421 -189 736 -253 596 -122 595 -120 463 -683 -46 -196 -13 -336 112 -475 217 -239 365 -244 927 -29 408 156 455 155 721 -2 190 -112 307 -133 351 -62 89 145 -110 365 -396 437 -169 42 -260 161 -321 419 -47 197 -130 353 -185 344 -112 -16 -114 -146 -8 -478 52 -165 32 -225 -77 -225 -84 0 -178 131 -215 300 -64 294 -249 422 -251 175 -2 -201 -544 539 -600 820 -68 338 -241 326 -281 -20 -37 -328 -106 -336 -618 -75 -216 110 -546 200 -734 200 -270 0 -355 47 -401 223 -36 139 -5 253 83 302 120 67 121 137 11 452 -72 205 -139 686 -149 1069 -19 719 -46 839 -152 666z m367 -3837 c-20 -41 -79 -75 -131 -75 -111 0 -128 633 -19 743 77 78 215 -534 150 -668z m2611 -325 c32 -83 14 -150 -39 -150 -53 0 -97 67 -97 150 0 83 18 150 39 150 22 0 66 -67 97 -150z m-1136 -1106 c0 -86 -45 -128 -100 -94 -55 34 -100 104 -100 156 0 52 45 94 100 94 55 0 100 -70 100 -156z m-500 -138 c0 -107 -45 -222 -100 -256 -57 -35 -100 49 -100 194 0 141 45 256 100 256 55 0 100 -87 100 -194z"/>
<path d="M2800 7856 c0 -421 -174 -567 -218 -183 -40 349 -222 362 -262 19 -37 -321 324 -1306 591 -1613 l200 -229 -66 250 c-36 138 -128 381 -205 540 -164 341 -176 460 -45 460 52 0 198 -225 324 -500 127 -275 286 -500 355 -500 161 0 174 -56 -171 753 -164 383 -299 843 -300 1022 -2 179 -48 325 -103 325 -55 0 -100 -155 -100 -344z"/>
<path d="M6251 7838 c-173 -415 -187 -538 -63 -538 146 0 307 251 374 585 88 439 -121 408 -311 -47z"/>
<path d="M24133 7988 c36 -131 65 -384 66 -563 0 -179 48 -325 106 -325 164 0 74 1025 -95 1081 -105 34 -124 -15 -77 -193z"/>
<path d="M11375 7925 c-96 -22 -175 -79 -175 -126 0 -163 170 -193 350 -61 198 145 100 249 -175 187z"/>
<path d="M17175 7823 c-96 -21 -175 -79 -175 -129 0 -189 353 -494 572 -494 232 0 306 140 132 247 -52 33 -72 120 -44 193 56 145 -204 243 -485 183z"/>
<path d="M22302 7650 c-66 -165 -146 -561 -176 -881 -45 -481 -20 -628 147 -854 111 -150 233 -417 272 -593 77 -351 223 -494 362 -355 52 52 -61 407 -275 860 -359 759 -362 779 -235 1309 151 629 89 967 -95 514z"/>
<path d="M6766 7618 c-204 -225 -210 -318 -23 -318 79 0 173 93 209 208 91 284 13 330 -186 110z"/>
<path d="M10960 7411 c-33 -116 -85 -300 -117 -411 -38 -134 -9 -200 88 -200 82 0 171 137 208 319 72 363 -85 620 -179 292z"/>
<path d="M18446 7475 c-87 -225 -15 -725 104 -725 138 0 189 651 61 779 -72 72 -123 56 -165 -54z"/>
<path d="M11983 7125 c-194 -494 -181 -558 122 -591 191 -21 298 44 425 259 274 464 190 586 -142 207 -172 -197 -280 -269 -247 -166 147 453 174 666 85 666 -53 0 -162 -169 -243 -375z"/>
<path d="M22944 7253 c-263 -262 -294 -553 -69 -628 69 -23 125 38 125 135 0 98 93 277 208 398 302 322 53 412 -264 95z"/>
<path d="M10268 7325 c-68 -114 112 -525 229 -525 115 0 134 202 42 442 -64 167 -198 208 -271 83z"/>
<path d="M11416 7145 c-140 -307 -151 -645 -22 -645 128 0 168 86 247 525 78 429 -53 498 -225 120z"/>
<path d="M20500 7150 c0 -182 53 -250 198 -250 175 0 184 29 84 250 -63 138 -152 250 -198 250 -46 0 -84 -112 -84 -250z"/>
<path d="M9656 7209 c-31 -50 -27 -168 9 -262 62 -160 48 -160 -203 4 -313 205 -458 125 -282 -156 134 -214 30 -265 -158 -77 -175 175 -284 5 -143 -221 188 -302 148 -408 -129 -338 -248 62 -352 -84 -150 -209 151 -93 120 -250 -50 -250 -248 0 -169 -174 112 -244 144 -36 271 -52 283 -36 11 17 123 254 248 527 243 528 480 774 679 705 185 -65 241 101 131 390 -100 262 -245 332 -347 167z"/>
<path d="M15527 7017 c-67 -42 -134 -186 -150 -321 -20 -184 20 -246 162 -246 283 0 445 309 259 495 -82 82 -203 114 -271 72z"/>
<path d="M21467 6884 c-31 -119 -14 -296 38 -394 52 -97 95 -274 95 -392 0 -127 51 -198 125 -173 69 23 121 117 117 208 -5 92 -16 347 -25 567 -19 439 -251 562 -350 184z"/>
<path d="M17146 6793 c-36 -58 -50 -115 -31 -125 19 -10 138 -76 264 -146 312 -175 481 -54 262 188 -191 211 -395 246 -495 83z"/>
<path d="M7000 6406 c0 -107 41 -219 91 -250 49 -31 69 -137 44 -235 -27 -103 82 -341 259 -563 168 -212 306 -423 306 -468 0 -112 402 -321 476 -248 32 32 -40 163 -159 290 -119 127 -217 277 -217 334 0 57 -90 184 -200 284 -110 100 -200 262 -200 361 0 234 -208 689 -316 689 -46 0 -84 -87 -84 -194z"/>
<path d="M23800 6422 c0 -43 135 -129 299 -191 349 -132 501 -461 501 -1088 0 -305 -42 -443 -135 -443 -74 0 -205 -180 -292 -400 -188 -479 -333 -510 -424 -93 -65 294 -290 485 -419 356 -78 -78 257 -828 437 -977 104 -87 180 -74 319 51 172 156 188 143 302 -236 74 -248 180 -401 278 -401 113 0 141 62 99 221 -35 134 6 292 104 400 149 165 149 179 0 179 -338 0 -488 641 -200 852 123 90 167 263 162 635 -4 281 32 486 81 456 48 -30 88 81 88 246 0 263 -48 315 -375 406 -445 123 -825 136 -825 27z"/>
<path d="M17025 6275 c63 -189 375 -216 375 -32 0 92 -85 157 -208 157 -123 0 -191 -52 -167 -125z"/>
<path d="M168 6235 c-37 -38 -68 -220 -68 -405 0 -277 60 -372 341 -538 188 -111 368 -271 401 -357 36 -94 124 -131 220 -94 123 47 143 20 86 -115 -40 -97 -95 -273 -121 -392 -26 -119 -129 -237 -230 -264 -192 -50 -297 105 -297 438 0 252 -169 247 -249 -6 -70 -219 132 -716 315 -775 64 -21 176 27 250 107 116 124 168 106 384 -131 138 -151 346 -324 463 -386 181 -95 223 -235 282 -945 74 -883 161 -1142 346 -1027 75 46 93 247 53 587 -102 860 -315 1398 -641 1616 -190 128 -262 233 -200 295 145 145 117 257 -62 257 -133 0 -149 80 -94 481 81 587 -143 942 -605 959 -248 8 -297 55 -325 310 -35 328 -142 492 -249 385z"/>
<path d="M13400 6143 c0 -104 73 -146 217 -125 320 47 355 282 41 282 -168 0 -258 -55 -258 -157z"/>
<path d="M14025 6035 c-69 -28 -125 -118 -125 -200 0 -103 84 -139 275 -117 162 19 275 93 275 181 0 156 -212 224 -425 136z"/>
<path d="M16758 5913 c-43 -69 -51 -153 -18 -186 89 -90 187 42 139 187 -34 101 -58 101 -121 -1z"/>
<path d="M19214 5552 c-141 -391 -45 -695 176 -558 172 106 231 906 67 906 -64 0 -174 -157 -243 -348z"/>
<path d="M12761 5568 c-282 -226 -285 -238 -120 -490 124 -190 137 -269 46 -299 -67 -22 -91 -92 -52 -154 49 -81 155 -65 367 56 350 199 393 366 73 286 -206 -51 -202 -38 50 167 313 254 375 666 100 666 -96 -1 -305 -105 -464 -232z"/>
<path d="M23800 5619 c0 -212 257 -595 343 -510 32 33 30 201 -5 375 -67 334 -338 443 -338 135z"/>
<path d="M10634 5267 c-326 -299 -359 -367 -243 -506 179 -216 241 -205 607 102 199 168 301 338 282 467 -48 327 -242 308 -646 -63z m302 -217 c-63 -163 -236 -206 -236 -58 0 76 70 127 272 200 12 4 -4 -59 -36 -142z"/>
<path d="M8625 5097 c-257 -104 -302 -297 -68 -297 212 0 543 185 543 304 0 117 -173 114 -475 -7z"/>
<path d="M13900 4593 c0 -223 -49 -498 -109 -610 -79 -148 -79 -235 0 -314 60 -60 110 -224 111 -364 l2 -255 186 242 c186 242 455 1501 343 1603 -33 30 -80 -1 -105 -70 -62 -175 -228 -156 -228 25 0 83 -45 150 -100 150 -55 0 -100 -183 -100 -407z"/>
<path d="M8912 4710 c-76 -48 -109 -133 -75 -189 88 -142 463 -28 463 141 0 156 -182 178 -388 48z"/>
<path d="M9217 4363 c-302 -223 -317 -256 -150 -339 220 -111 652 -17 709 154 22 67 -5 122 -60 122 -56 0 -116 70 -134 155 -26 127 -92 111 -365 -92z"/>
<path d="M22200 4420 c0 -126 227 -320 374 -320 102 0 108 46 26 200 -104 194 -400 282 -400 120z"/>
<path d="M12704 4060 c-130 -341 -134 -660 -9 -660 142 0 320 725 207 838 -59 59 -133 -7 -198 -178z"/>
<path d="M8 3958 c-4 -105 19 -164 52 -131 34 33 37 120 8 192 -32 80 -55 56 -60 -61z"/>
<path d="M9753 3909 c-34 -106 -32 -308 4 -450 85 -340 -33 -334 -163 7 -141 369 -304 171 -231 -280 56 -342 78 -359 456 -359 359 0 391 21 330 212 -150 468 -166 770 -48 912 103 124 89 149 -82 149 -115 0 -232 -85 -266 -191z"/>
<path d="M21167 4033 c-37 -36 -67 -239 -67 -450 0 -272 43 -383 148 -383 111 0 142 101 122 395 -27 413 -91 550 -203 438z"/>
<path d="M12092 3881 c-4 -72 -24 -219 -44 -328 -20 -108 16 -260 81 -338 65 -78 141 -369 170 -646 31 -305 106 -521 190 -549 115 -38 127 69 69 592 -40 351 -114 681 -165 733 -51 52 -93 196 -93 319 0 237 -195 440 -208 217z"/>
<path d="M11548 3336 c37 -322 117 -721 178 -886 134 -356 478 -850 593 -850 144 0 87 196 -174 589 -169 255 -278 597 -325 1015 -43 384 -122 647 -204 674 -106 35 -120 -76 -68 -542z"/>
<path d="M10349 3698 c-89 -143 46 -898 160 -898 120 0 118 871 -2 946 -51 31 -122 10 -158 -48z"/>
<path d="M103 3504 c-174 -110 -94 -148 522 -251 256 -42 445 -156 594 -358 209 -282 481 -397 481 -203 0 193 -624 705 -979 804 -447 124 -435 124 -618 8z"/>
<path d="M13480 2900 c-95 -248 -280 -965 -280 -1087 0 -273 202 -77 302 295 110 410 92 1088 -22 792z"/>
<path d="M19600 1656 c0 -141 45 -256 100 -256 55 0 100 87 100 194 0 107 -45 222 -100 256 -57 35 -100 -49 -100 -194z"/>
<path d="M15550 277 c-3465 -42 -8392 -114 -10950 -160 -4016 -73 -2943 -87 7875 -101 l12525 -16 0 204 c0 198 -47 203 -1575 176 -866 -15 -4410 -62 -7875 -103z"/>
</g>
</svg>