<svg xmlns="http://www.w3.org/2000/svg" version="1.0" width="250" height="525" viewBox="0 0 250.000000 525.000000" preserveAspectRatio="xMidYMid meet">
<metadata>
Created by potrace 1.10, written by Peter Selinger 2001-2011
</metadata>
<g transform="translate(0.000000,525.000000) scale(0.010000,-0.010000)" fill="#555555" stroke="none">
<path d="M2175 49425 c68 -6098 31 -13990 -71 -14958 -125 -1178 -153 -3998 -65 -6467 23 -632 54 -3332 71 -6000 27 -4408 14 -4879 -140 -5170 -207 -390 -221 -1229 -37 -2130 105 -509 131 -2174 120 -7675 l-13 -7025 216 0 c158 0 239 87 305 325 105 377 752 756 1453 850 652 87 1726 -321 2106 -800 l297 -375 2219 0 2218 0 367 302 c720 593 1665 829 2607 649 738 -140 1157 -373 1321 -734 96 -212 141 -217 2100 -213 1546 2 2058 36 2251 146 328 188 692 188 764 0 31 -82 143 -150 247 -150 217 0 246 239 81 668 -60 155 -145 755 -190 1332 -71 908 -135 1165 -469 1900 -475 1041 -814 1577 -1475 2328 -792 902 -1321 1191 -2558 1398 -661 110 -1107 117 -3950 58 -1253 -26 -1767 5 -2371 142 -424 96 -800 174 -836 174 -36 0 -34 -166 4 -369 43 -232 269 -610 607 -1017 700 -843 918 -1491 764 -2262 -141 -701 -350 -1014 -770 -1153 -266 -87 -394 -80 -617 36 -363 189 -691 543 -822 890 -57 151 -139 274 -182 274 -42 -1 -167 -237 -277 -524 -204 -535 -572 -837 -875 -721 -483 185 -809 1217 -567 1796 68 165 134 413 146 550 12 138 185 496 384 798 199 301 362 627 362 725 0 271 -292 210 -404 -84 -194 -509 -721 -1121 -1180 -1369 -1174 -636 -2627 -481 -2929 313 -158 416 9 909 469 1390 438 457 475 672 135 780 -210 66 -691 647 -691 833 0 204 412 754 779 1039 518 403 1213 384 2158 -61 392 -185 799 -432 903 -550 220 -247 660 -290 660 -65 0 82 -74 235 -164 340 -278 325 -826 1740 -831 2147 -8 650 523 1364 1014 1364 61 0 305 -159 542 -354 321 -263 447 -448 494 -725 94 -558 150 -721 246 -721 48 0 305 221 571 490 390 397 569 504 938 559 763 115 1355 -249 1464 -899 103 -616 -673 -1593 -1665 -2095 -787 -399 -667 -579 603 -908 509 -132 1099 -155 3378 -130 2970 33 3268 -1 4498 -505 370 -152 770 -406 950 -605 172 -189 781 -819 1354 -1400 1151 -1169 1385 -1572 1454 -2507 73 -985 432 -1155 716 -339 204 587 182 2648 -37 3393 -132 449 -168 879 -147 1746 15 633 -16 1488 -69 1900 -54 413 -66 781 -28 820 126 127 1200 366 1405 313 369 -97 448 -566 471 -2783 16 -1495 70 -2330 189 -2900 91 -440 157 -1025 145 -1300 -12 -275 10 -638 48 -808 66 -293 -79 -2487 -204 -3067 -44 -206 -20 -275 95 -275 168 0 306 455 288 951 -5 165 35 367 91 450 72 107 96 -20 84 -451 -24 -869 -10 -950 167 -950 142 0 152 156 88 1425 -39 784 -94 1650 -123 1925 -93 901 -55 3683 61 4482 76 523 106 2497 90 5950 -16 3671 -31 4248 -51 1993 -15 -1746 -65 -3175 -111 -3175 -46 0 -164 90 -264 200 -118 131 -308 200 -547 200 l-366 0 -15 4075 -14 4075 392 271 c216 149 488 460 606 690 161 317 235 385 302 279 53 -83 81 729 69 2010 -16 1613 -29 1806 -52 775 -17 -756 -68 -1375 -113 -1375 -45 0 -158 169 -251 377 -94 207 -356 571 -582 809 l-412 433 -42 1993 -42 1992 490 441 c270 242 572 622 672 845 101 222 222 381 269 351 47 -29 86 1037 86 2370 0 1332 -25 2398 -55 2368 -30 -30 -56 -510 -58 -1066 -2 -556 -45 -1037 -95 -1068 -51 -31 -92 15 -92 103 0 309 -408 956 -742 1174 -404 265 -458 533 -458 2287 l0 1180 554 368 c771 512 990 961 914 1872 -33 390 -151 879 -273 1131 l-215 445 260 205 c251 197 260 242 260 1257 0 1298 -117 1550 -847 1825 -452 169 -501 218 -484 473 10 157 46 1691 79 3410 l61 3125 -643 0 -643 0 -421 -708 c-435 -733 -843 -1188 -1830 -2042 -666 -577 -730 -609 -917 -455 -214 178 -1075 -149 -1593 -606 -353 -310 -467 -494 -565 -914 -168 -717 -167 -716 -922 -1212 -576 -379 -2958 -1361 -3308 -1364 -64 -1 -319 -117 -565 -258 -247 -141 -663 -281 -925 -312 -262 -31 -556 -118 -652 -193 -152 -118 -116 -127 275 -67 248 38 1080 72 1850 75 1372 6 1423 -2 2550 -385 632 -214 1253 -457 1379 -539 356 -230 1271 -411 1643 -323 663 156 856 303 903 690 61 495 48 515 -582 913 -1743 1099 -1900 3268 -294 4054 l550 269 199 -236 c110 -131 252 -406 316 -612 104 -330 386 -535 386 -280 0 53 199 233 443 400 1199 825 2042 -86 1651 -1781 -120 -521 -572 -1211 -1164 -1774 -236 -225 -430 -439 -430 -475 0 -133 360 -58 690 143 989 603 2649 933 3044 605 89 -74 279 -375 423 -669 296 -604 278 -1069 -62 -1627 -157 -259 -256 -317 -544 -317 -447 0 -447 -144 4 -606 304 -310 370 -464 453 -1052 54 -378 69 -824 34 -990 -132 -628 -864 -1069 -1441 -867 -355 123 -1301 732 -1301 837 0 41 -135 294 -300 563 -165 268 -300 577 -300 686 0 337 -568 1029 -845 1029 -349 0 -423 -198 -151 -403 479 -361 402 -2289 -114 -2874 -132 -150 -245 -286 -251 -301 -7 -16 -153 -69 -326 -118 -279 -80 -353 -53 -675 251 -320 302 -354 380 -296 685 96 516 -101 541 -578 74 -770 -756 -1245 -635 -1513 382 -200 757 -12 1326 614 1855 607 515 829 641 1135 647 332 7 579 165 449 287 -54 52 -332 121 -616 154 -285 33 -892 200 -1350 372 -893 334 -2330 653 -3383 750 -723 67 -1293 -52 -2941 -617 -1345 -460 -2402 -1118 -3408 -2123 -771 -771 -888 -946 -1641 -2450 -445 -892 -810 -1719 -810 -1839 0 -121 -44 -334 -97 -475 -54 -140 -172 -830 -263 -1531 -190 -1465 -143 -3677 95 -4430 125 -399 125 -478 -7 -650 -82 -108 -320 -550 -529 -983 -357 -742 -386 -775 -500 -561 -236 440 -312 869 -488 2748 -123 1307 -166 2446 -137 3650 22 963 38 1908 35 2100 -19 1152 958 3763 2043 5461 540 843 2657 2922 3566 3500 1343 855 2323 1344 3232 1611 110 32 319 142 465 243 146 102 429 185 628 185 200 0 620 129 935 287 315 158 685 320 822 361 530 158 1305 774 1739 1382 478 669 1086 1918 1191 2445 l65 325 -961 0 -960 0 55 -412 c88 -654 -243 -1383 -853 -1879 -498 -405 -511 -409 -1330 -409 -854 0 -1363 171 -1845 620 -277 259 -490 1060 -428 1613 l53 467 -1202 0 -1202 0 -158 -696 c-356 -1580 -1392 -2464 -3121 -2668 -545 -64 -866 51 -1353 483 -499 443 -633 844 -637 1906 -2 660 -40 975 -117 975 -148 0 -239 -506 -247 -1375 -7 -745 191 -1295 599 -1664 206 -187 209 -249 200 -4300 -9 -3797 -24 -4136 -195 -4460 -347 -656 -665 -1463 -792 -2008 -69 -298 -151 -610 -182 -693 -106 -283 -170 984 -102 2017 75 1137 6 12028 -78 12308 -29 96 -108 175 -176 175 -95 0 -115 -687 -88 -3075z m8650 1056 l176 -417 -293 -287 c-447 -437 -523 -1516 -166 -2381 46 -112 -40 -194 -314 -299 -208 -81 -409 -160 -447 -178 -93 -43 -375 401 -441 694 -123 545 -42 1567 164 2048 207 486 841 1240 1041 1238 58 -1 184 -189 280 -418z m320 -7566 c145 -455 355 -1919 355 -2472 0 -1031 -467 -2198 -1162 -2899 -510 -514 -1414 -1235 -1857 -1480 -482 -266 -1463 -464 -2305 -464 -440 0 -647 58 -977 274 l-418 274 65 495 c36 273 88 532 116 576 95 154 331 80 449 -140 322 -601 1049 -878 1802 -685 1180 302 2197 1148 2787 2318 386 766 400 827 400 1782 0 769 -47 1112 -214 1547 -118 307 -253 559 -300 559 -47 0 -86 41 -86 91 0 50 180 122 399 159 220 37 425 108 456 159 100 161 430 97 490 -94z m-4228 -4043 c452 -207 713 -563 918 -1251 l157 -529 -253 -96 c-375 -143 -385 -137 -631 407 -265 587 -792 997 -1281 997 -180 0 -327 19 -327 42 0 170 149 359 286 362 90 1 277 67 414 146 138 78 272 131 300 116 28 -15 215 -102 417 -194z m8270 -2715 c701 -363 1229 -799 1475 -1219 239 -408 259 -519 213 -1218 -51 -789 -189 -1147 -1096 -2852 -281 -528 -309 -664 -303 -1458 4 -482 54 -1052 110 -1268 57 -216 158 -962 225 -1658 107 -1125 101 -1346 -52 -1974 -94 -390 -144 -754 -110 -809 97 -156 -35 -121 -467 121 -379 213 -392 238 -314 575 166 713 -29 2435 -329 2921 -159 257 -212 952 -136 1769 117 1260 330 2015 790 2809 585 1009 600 1942 43 2679 -358 473 -778 660 -1334 594 -767 -91 -1256 -341 -1569 -802 -261 -384 -283 -490 -282 -1341 2 -1012 39 -967 -601 -723 -526 200 -718 1389 -359 2226 486 1134 1806 1904 3126 1824 368 -22 804 -110 970 -196z m-6742 -749 c120 -194 62 -1883 -84 -2437 -83 -318 -130 -636 -102 -707 31 -83 -105 -178 -380 -265 -236 -74 -478 -172 -538 -216 -138 -103 -241 -3 -241 232 0 101 138 614 307 1140 230 718 300 1111 282 1569 -22 524 2 621 168 686 272 107 521 106 588 -2z m14780 -551 c664 -294 899 -574 1164 -1387 381 -1173 368 -1719 -64 -2620 -158 -330 -734 -889 -1125 -1093 -575 -299 -2139 -369 -2732 -121 -206 86 -745 182 -1197 212 -1445 97 -2005 154 -2696 276 -557 99 -675 153 -675 311 0 247 391 882 502 814 100 -62 1206 -206 2741 -358 1340 -133 3039 -131 3392 3 631 240 1165 1024 1165 1711 0 166 -115 528 -255 806 -198 389 -351 547 -675 694 -1083 492 -2009 -36 -2716 -1549 -153 -327 -302 -769 -330 -981 -49 -362 -71 -384 -363 -355 -290 28 -311 57 -318 430 -13 719 405 1839 908 2435 267 317 819 662 1357 851 652 228 1281 202 1917 -79z m-12098 -2962 c152 5 580 -62 950 -149 370 -86 1055 -181 1523 -210 1174 -73 1138 -48 877 -608 -123 -263 -233 -495 -245 -515 -12 -20 -238 34 -502 120 -681 222 -2013 372 -3180 359 -2248 -26 -3321 -430 -4688 -1767 -828 -809 -1294 -1809 -1294 -2775 1 -385 36 -934 79 -1219 l77 -520 -552 259 c-669 313 -772 509 -772 1467 0 1821 1077 3695 2536 4412 283 138 649 341 814 451 165 109 381 199 479 199 98 1 347 87 552 191 206 105 485 170 621 144 137 -26 406 25 598 113 267 121 528 145 1100 99 413 -33 875 -56 1027 -51z m-8702 -2170 c-185 -496 -324 674 -150 1275 54 186 88 71 135 -450 34 -385 41 -756 15 -825z m11375 363 c123 -70 112 -95 -63 -145 -264 -74 -466 -435 -421 -753 25 -173 132 -272 384 -353 427 -138 494 -476 100 -505 -742 -54 -1327 473 -1327 1196 0 540 278 782 805 702 204 -32 440 -95 522 -142z m-5745 -113 c-150 -490 -182 -2171 -51 -2649 309 -1122 986 -1716 2056 -1802 617 -50 681 -36 851 186 259 337 236 655 -63 850 -361 237 -1082 140 -1431 -192 -231 -220 -291 -237 -446 -122 -169 124 -162 151 113 453 393 430 1271 725 1758 590 515 -142 1058 -690 1058 -1068 0 -475 -92 -612 -551 -821 -235 -107 -537 -325 -671 -485 -385 -457 -577 -521 -1240 -412 -324 53 -613 96 -644 96 -31 1 -144 82 -250 181 -107 99 -329 260 -494 358 -303 179 -750 1095 -750 1535 0 111 -90 483 -200 827 -208 650 -272 1931 -110 2186 93 148 773 493 997 506 96 6 116 -58 68 -217z m11502 -1050 c214 -483 258 -743 274 -1625 10 -577 -44 -1487 -121 -2020 -130 -897 -127 -1006 40 -1443 401 -1052 803 -1403 1875 -1641 652 -145 966 -61 1209 324 299 473 291 645 -47 1029 -460 525 -1063 784 -1659 715 -1141 -133 -1075 -145 -1109 202 -34 350 252 698 656 799 291 73 2051 -194 2561 -389 846 -323 1428 -1194 1314 -1965 -63 -429 -384 -984 -746 -1292 -332 -282 -1269 -658 -1608 -645 -568 22 -2044 670 -2608 1146 -989 834 -1249 1702 -939 3135 437 2019 494 2859 246 3611 -84 253 -78 362 23 477 234 264 379 169 639 -418z m-16766 -706 c309 -639 330 -751 344 -1825 14 -1059 34 -1171 275 -1512 284 -400 273 -221 307 -4882 15 -2100 48 -2004 -726 -2149 l-356 -67 -116 533 c-74 337 -137 2188 -171 5033 -30 2475 -61 4590 -69 4700 -30 407 23 850 102 850 44 0 229 -306 410 -681z m13871 -84 c657 -539 1093 -1535 1186 -2712 l71 -898 -344 -263 c-189 -144 -362 -262 -384 -262 -23 0 -43 304 -45 675 -4 747 -249 1356 -685 1698 -175 138 -275 358 -353 778 -138 749 -138 1349 0 1349 60 0 309 -164 554 -365z m-11388 -836 c28 -578 405 -1573 815 -2149 156 -220 386 -602 511 -848 125 -246 480 -719 789 -1050 597 -639 1011 -1186 1011 -1334 0 -49 282 -389 626 -754 531 -564 677 -664 963 -664 333 0 336 -5 277 -371 -42 -258 -195 -506 -506 -817 l-447 -446 -331 257 c-627 485 -1969 1863 -2139 2195 -94 182 -383 602 -643 932 -737 936 -826 1161 -1168 2950 -237 1239 -258 1494 -151 1778 57 150 130 396 163 547 94 430 204 322 230 -226z m8005 -2368 c294 -149 722 -466 952 -705 231 -240 651 -570 935 -733 483 -279 548 -291 999 -190 616 138 1247 418 1422 631 248 300 481 204 550 -225 34 -215 90 -463 124 -551 105 -275 -942 -664 -1903 -707 -1132 -51 -1593 117 -2376 863 -907 864 -1498 1077 -2028 729 -408 -267 -588 -1177 -355 -1791 112 -294 627 -552 1101 -552 446 0 1004 263 1296 611 270 322 526 322 699 -1 130 -243 -350 -929 -873 -1248 -1228 -749 -2687 -515 -3208 513 -740 1464 -274 3127 1011 3607 583 217 790 186 1654 -251z m-4991 -411 c118 -112 114 -208 -24 -636 -90 -278 -140 -542 -112 -587 28 -46 10 -109 -41 -140 -145 -90 -711 751 -711 1056 0 151 44 391 99 534 98 257 101 258 375 82 152 -97 338 -236 414 -309z m9174 -2395 c-28 -96 -82 -355 -120 -575 -37 -220 -103 -445 -145 -500 -43 -55 -130 -302 -194 -550 -118 -454 -588 -1205 -1502 -2400 -273 -357 -665 -965 -871 -1350 -361 -677 -374 -735 -381 -1750 -7 -1069 210 -2260 470 -2572 104 -126 76 -191 -172 -389 -163 -131 -323 -238 -354 -239 -76 0 -451 755 -636 1279 -216 612 -311 2474 -160 3132 321 1399 530 1802 1476 2846 367 405 808 1006 980 1334 172 328 357 656 412 728 55 72 154 321 221 554 99 347 178 440 442 516 493 142 591 131 534 -64z m-6526 -1489 c145 -145 264 -295 264 -334 0 -38 113 -121 250 -184 416 -190 343 -671 -200 -1307 -248 -290 -470 -625 -494 -744 -24 -120 -69 -338 -100 -485 -31 -148 -140 -295 -243 -328 -282 -89 -701 111 -831 397 -137 299 7 668 601 1536 320 469 367 612 367 1125 0 323 28 588 61 588 34 0 180 -119 325 -264z m-3655 -411 c618 -610 719 -817 719 -1478 0 -1035 -614 -2749 -1183 -3302 -521 -506 -1806 -1133 -2525 -1231 -731 -100 -1076 -26 -1544 330 -628 479 -648 520 -648 1298 0 637 36 782 289 1159 384 571 632 691 1430 695 778 5 1208 -192 1808 -827 357 -377 368 -409 210 -584 -233 -256 -360 -231 -553 108 -218 383 -941 524 -1341 262 -697 -457 -807 -741 -439 -1136 398 -428 1372 -261 2246 385 1005 743 1196 1179 1198 2746 1 605 -37 1269 -84 1475 -106 459 21 490 417 100z m5507 -1088 c199 -139 224 -220 171 -550 -44 -276 -25 -389 65 -395 99 -6 99 -19 2 -58 -68 -27 -349 163 -624 424 -390 369 -476 503 -389 608 151 182 493 169 775 -29z m-798 -704 c631 -539 905 -728 1140 -787 161 -40 268 -134 264 -232 -11 -291 -343 -1247 -445 -1281 -55 -17 -324 139 -599 347 -275 209 -695 489 -934 623 -405 227 -431 267 -380 580 65 400 532 1049 686 953 60 -37 181 -128 268 -203z m9975 -89 c283 -137 641 -414 795 -615 313 -411 552 -1195 472 -1547 -202 -884 -254 -987 -678 -1334 -431 -353 -447 -357 -697 -193 -337 220 -325 307 93 701 308 291 350 390 350 824 0 343 -61 571 -202 749 -265 338 -784 510 -1134 376 -293 -111 -817 -864 -916 -1316 -54 -246 -112 -289 -387 -289 -272 0 -351 56 -492 353 -316 663 -178 1361 404 2040 543 635 1412 726 2392 251z m-6427 -1831 c172 -103 537 -265 812 -361 275 -95 590 -213 700 -263 110 -49 718 -177 1350 -285 1435 -244 2111 -445 2470 -734 154 -124 407 -289 562 -368 155 -79 448 -320 650 -535 202 -215 447 -463 543 -551 96 -88 175 -208 175 -267 0 -95 -1373 -749 -1572 -749 -43 0 -208 137 -366 305 -159 168 -431 414 -606 547 -402 307 -2289 1148 -2576 1148 -361 0 -1588 405 -2363 780 l-733 355 65 347 c74 391 322 818 476 818 56 0 242 -84 413 -187z m-8291 -1573 c250 -381 553 -1320 553 -1711 l0 -340 -300 177 c-165 97 -300 257 -300 354 0 97 -155 469 -345 827 l-344 649 217 152 c288 202 321 195 519 -108z m-3847 -1069 c209 -55 222 -98 163 -547 -36 -267 -67 -1008 -70 -1646 l-6 -1159 -284 -118 c-156 -64 -386 -226 -511 -359 -125 -133 -254 -242 -288 -242 -34 0 -72 1034 -85 2299 l-24 2298 438 -233 c242 -128 542 -260 667 -293z m17059 -1406 l268 -336 611 118 c337 64 801 215 1033 335 298 155 600 218 1035 218 565 0 641 -27 954 -340 371 -371 452 -854 199 -1187 -128 -169 -155 -168 -587 18 -450 192 -459 192 -1188 -7 -404 -110 -858 -196 -1009 -191 -151 6 -275 -31 -275 -82 0 -196 -595 -307 -979 -182 -291 95 -417 218 -586 569 -218 455 -222 1006 -9 1277 150 191 242 154 533 -210z m-3298 -356 c570 -446 677 -947 342 -1602 -275 -541 -915 -846 -1574 -751 -569 82 -1129 295 -1129 431 0 374 113 420 859 353 596 -54 783 -36 988 99 139 91 253 232 253 313 0 260 -382 548 -725 547 -370 -1 -1257 -385 -1462 -633 -76 -91 -193 -166 -260 -166 -264 0 -502 -444 -659 -1232 -161 -813 -164 -818 -491 -850 -181 -18 -370 9 -421 60 -166 166 220 1438 559 1837 170 201 390 482 489 626 256 370 1213 1070 1596 1167 562 142 1318 51 1635 -199z m7596 -2347 c-123 -2271 -254 -3505 -360 -3398 -72 74 -125 2190 -73 2936 10 138 -16 555 -56 927 -71 645 -63 681 154 763 125 48 267 63 315 35 47 -28 56 -596 20 -1263z m-22090 -2020 c36 -93 -28 -247 -153 -373 l-214 -213 0 372 c0 267 43 372 153 372 84 0 181 -71 214 -158z m11088 -1114 c121 -396 358 -937 527 -1200 169 -264 510 -907 757 -1429 358 -758 463 -1103 518 -1714 71 -791 -9 -1685 -150 -1685 -45 0 -274 171 -509 379 -364 323 -411 409 -322 577 157 293 6 898 -423 1694 -207 385 -434 767 -503 850 -68 83 -179 318 -245 524 -66 205 -161 399 -212 431 -51 31 -94 155 -94 276 -1 120 -67 406 -147 635 -95 273 -124 593 -84 930 60 502 69 514 364 484 283 -28 318 -79 523 -752z m-10730 -1733 l375 -104 0 -621 c1 -341 30 -1117 65 -1723 l63 -1104 -421 -190 c-232 -104 -503 -294 -604 -421 -100 -128 -216 -232 -257 -232 -42 0 -42 439 0 975 41 536 67 1429 58 1983 -18 1085 51 1542 232 1541 63 0 283 -47 489 -104z"/>
<path d="M4505 51914 c-199 -533 -206 -618 -78 -925 181 -432 307 -523 934 -676 687 -167 948 -81 1486 494 480 513 582 707 694 1318 l68 375 -1442 0 -1443 0 -219 -586z"/>
<path d="M11932 52125 c62 -206 215 -528 341 -714 125 -186 227 -371 227 -410 0 -39 172 -148 381 -243 353 -159 411 -159 780 -12 491 196 730 579 764 1219 24 457 10 487 -238 516 -207 23 -308 -41 -469 -300 -113 -182 -368 -489 -568 -681 -345 -332 -371 -341 -501 -164 -75 102 -216 405 -313 675 -117 326 -232 489 -346 489 -151 0 -158 -44 -58 -375z"/>
<path d="M18604 51925 c-61 -316 -154 -642 -206 -725 -53 -82 -208 -359 -344 -615 -217 -408 -229 -481 -98 -590 200 -166 725 101 1382 705 474 436 1362 1557 1362 1720 0 44 -447 80 -993 80 l-993 0 -110 -575z"/>
<path d="M24934 30200 c0 -412 17 -581 39 -375 21 206 21 544 0 750 -22 206 -39 38 -39 -375z"/>
<path d="M24908 26858 c-4 -105 19 -164 52 -131 34 33 37 120 8 192 -32 80 -55 56 -60 -61z"/>
<path d="M24935 21100 c0 -467 17 -659 38 -425 21 234 21 616 0 850 -21 234 -38 43 -38 -425z"/>
<path d="M3701 311 c-136 -109 -220 -225 -187 -259 34 -33 401 -48 816 -31 717 28 748 38 618 216 -206 281 -931 324 -1247 74z"/>
<path d="M12975 29 c124 -23 326 -23 450 0 124 24 23 44 -225 44 -247 0 -349 -20 -225 -44z"/>
</g>
</svg>