<svg xmlns="http://www.w3.org/2000/svg" version="1.0" width="250" height="525" viewBox="0 0 250.000000 525.000000" preserveAspectRatio="xMidYMid meet">
<metadata>
Created by potrace 1.10, written by Peter Selinger 2001-2011
</metadata>
<g transform="translate(0.000000,525.000000) scale(0.010000,-0.010000)" fill="#555555" stroke="none">
<path d="M0 51400 c0 -911 26 -1100 150 -1100 83 0 150 -44 150 -97 0 -53 -70 -70 -156 -37 -130 50 -151 -13 -125 -369 29 -408 52 -436 431 -542 307 -86 401 -163 403 -328 2 -119 29 -242 60 -274 70 -69 -362 -944 -567 -1149 -128 -129 -146 -126 -146 25 0 94 -45 171 -100 171 -57 0 -97 -270 -92 -625 7 -539 22 -587 108 -350 55 151 147 275 203 275 56 0 75 -71 42 -158 -34 -87 -61 -264 -61 -393 0 -129 -67 -302 -150 -385 -180 -180 -196 -578 -30 -744 93 -93 93 -120 0 -120 -68 0 -120 -138 -120 -319 0 -296 10 -305 138 -131 129 177 142 169 207 -128 80 -365 -3 -560 -205 -482 -89 34 -140 -14 -140 -131 0 -102 90 -209 200 -238 110 -29 200 -127 200 -218 0 -120 -55 -149 -196 -104 -177 56 -196 16 -188 -401 7 -329 41 -431 117 -355 149 149 267 133 267 -36 0 -79 -90 -172 -200 -207 -161 -51 -200 -151 -200 -513 l0 -449 464 69 c336 51 445 38 394 -44 -38 -62 -22 -113 36 -113 58 0 106 45 106 100 0 58 333 100 800 100 l800 0 0 -350 c0 -192 45 -350 100 -350 55 0 100 156 100 346 0 244 59 379 199 454 177 94 198 76 189 -172 -23 -640 -85 -777 -365 -810 -452 -53 -2150 -32 -2498 32 -307 56 -325 42 -325 -237 0 -268 38 -302 407 -364 481 -81 434 -206 -62 -163 -325 28 -345 12 -345 -280 0 -307 4 -310 501 -292 275 10 530 -12 566 -48 37 -36 -117 -66 -342 -66 -605 0 -725 -75 -725 -451 0 -281 30 -322 200 -278 110 29 200 7 200 -48 0 -169 494 -205 945 -70 235 71 693 161 1016 200 324 40 636 109 692 154 57 45 170 40 250 -11 100 -63 107 -93 22 -94 -69 -1 -125 -71 -125 -156 0 -127 -38 -133 -220 -35 -189 101 -313 68 -853 -222 -512 -274 -649 -313 -719 -200 -61 98 -171 116 -372 62 -157 -42 -457 -79 -665 -83 l-380 -8 30 -555 29 -555 350 44 c448 56 1422 35 2000 -43 1002 -136 1100 -163 1100 -304 0 -197 -462 -296 -756 -162 -172 78 -475 80 -1043 9 -556 -70 -863 -68 -1000 5 -238 128 -701 30 -701 -148 0 -80 206 -154 546 -196 476 -60 813 -41 1708 93 113 17 315 -30 450 -105 238 -131 231 -136 -204 -146 -247 -6 -540 -50 -650 -97 -129 -55 181 -88 875 -93 l1075 -7 0 -339 c0 -236 -88 -434 -286 -646 -266 -285 -312 -299 -655 -205 -258 72 -534 68 -919 -12 -398 -83 -635 -84 -859 -6 -225 78 -415 76 -695 -8 -520 -156 -495 -324 39 -259 425 52 425 52 125 -82 -165 -74 -356 -136 -425 -138 -69 -3 -125 -72 -125 -155 0 -183 -4 -183 420 -6 436 182 2580 102 2580 -96 0 -171 -567 -246 -1875 -247 -976 -1 -1125 -23 -1125 -165 0 -142 86 -156 625 -101 421 43 576 31 475 -34 -82 -54 -364 -99 -625 -99 -446 -2 -475 -18 -475 -265 l0 -263 775 63 c426 35 1079 91 1451 125 817 74 1017 -35 916 -503 -37 -170 -158 -438 -269 -595 l-203 -287 228 72 c143 46 204 35 165 -28 -48 -77 -765 -158 -763 -86 1 8 112 235 248 503 136 268 219 534 184 591 -35 56 -190 -149 -346 -456 -155 -307 -323 -584 -373 -615 -50 -31 -519 -61 -1042 -66 l-951 -10 0 -335 0 -335 515 48 c283 26 661 66 840 88 179 22 325 1 325 -46 0 -111 -400 -190 -1125 -224 l-575 -27 0 -515 c0 -587 90 -662 638 -539 207 47 387 43 419 -8 68 -110 -95 -172 -549 -210 -560 -47 -508 -279 62 -279 452 0 494 22 603 309 66 175 163 281 223 243 59 -36 71 -119 29 -184 -43 -65 -183 -287 -312 -493 -212 -341 -272 -375 -673 -375 -336 0 -440 -38 -440 -159 0 -131 100 -153 556 -125 l556 34 -68 -500 c-64 -476 -300 -1215 -438 -1374 -36 -41 -188 -85 -338 -97 -186 -16 -264 -72 -242 -176 18 -87 111 -139 216 -120 137 24 169 -11 122 -134 -35 -91 -64 -184 -64 -207 0 -23 -67 -42 -150 -42 -127 0 -148 -231 -138 -1525 6 -839 33 -1435 60 -1325 27 110 100 262 161 338 62 75 249 454 417 842 479 1109 593 1025 511 -375 -44 -746 -33 -1150 28 -1112 179 111 205 -289 67 -1043 l-138 -750 -13 550 -14 550 -241 -450 c-292 -546 -317 -741 -50 -400 l196 250 2 -313 c1 -181 -209 -731 -496 -1300 -275 -543 -497 -1077 -494 -1187 3 -110 120 59 261 375 141 316 296 575 344 575 156 0 92 -364 -169 -955 -150 -337 -234 -672 -201 -801 33 -133 -5 -271 -94 -345 -85 -71 -146 -279 -141 -486 l7 -363 272 591 c158 345 343 602 442 616 219 32 215 -14 -32 -362 -349 -489 -697 -1384 -691 -1773 6 -325 18 -343 98 -146 50 125 200 387 334 584 229 337 247 345 311 142 45 -139 12 -280 -91 -393 -206 -228 -660 -1384 -650 -1653 5 -130 61 -59 152 194 80 220 232 513 338 650 191 246 191 240 -2 -384 -248 -803 -246 -860 43 -1137 239 -228 239 -230 43 -429 -197 -200 -197 -199 -125 100 71 293 68 296 -125 125 -109 -97 -219 -155 -245 -129 -25 26 -57 -234 -69 -578 l-23 -624 402 39 c436 41 456 9 343 -559 -46 -227 -136 -323 -367 -389 -169 -48 -327 -147 -351 -220 -33 -98 39 -89 276 34 342 177 424 153 468 -138 20 -129 -88 -236 -369 -362 -218 -99 -397 -247 -397 -330 0 -130 23 -129 175 9 97 87 292 202 434 256 248 95 263 80 386 -402 106 -412 180 -519 423 -603 324 -113 321 -163 -54 -757 -244 -387 -255 -392 -707 -323 -252 38 -486 96 -518 129 -64 64 110 452 403 897 209 317 173 349 -111 100 -284 -249 -431 -564 -431 -922 0 -367 21 -376 1050 -444 440 -30 958 -78 1150 -107 193 -30 778 -61 1300 -69 523 -9 1040 -50 1150 -93 254 -98 -201 -115 -2725 -101 -1059 5 -1925 -29 -1925 -76 0 -127 1200 -239 2443 -228 600 6 1142 -31 1203 -82 67 -56 266 -56 507 0 219 51 555 89 747 84 l350 -8 -350 -114 c-192 -63 -408 -153 -479 -198 -115 -75 -2343 -172 -3846 -168 -318 0 -575 -44 -575 -99 0 -229 4747 -48 4892 187 49 80 463 119 1285 120 962 2 1202 30 1162 135 -40 105 156 124 980 92 567 -22 1751 -56 2631 -76 2905 -66 5181 -156 5233 -207 28 -28 32 -69 9 -91 -78 -75 -2978 -108 -3051 -34 -40 40 -123 30 -185 -21 -67 -56 -354 -60 -709 -11 -329 45 -633 61 -678 35 -44 -27 -1394 -62 -3000 -80 -2843 -31 -4255 -136 -4969 -371 -409 -134 -2191 -143 -2700 -13 -399 102 -900 65 -900 -67 0 -49 191 -86 425 -82 234 3 875 -46 1425 -110 550 -64 1158 -84 1350 -44 192 39 388 63 436 51 47 -11 144 29 216 89 241 200 5019 393 4898 198 -35 -56 -514 -100 -1093 -100 -643 0 -1186 -54 -1440 -144 -260 -92 -511 -116 -688 -66 -153 42 -639 26 -1079 -37 -717 -103 -761 -121 -429 -177 204 -34 530 -18 725 36 215 59 418 62 517 7 117 -66 -57 -123 -618 -207 -622 -93 -799 -90 -870 11 -71 100 -101 101 -141 3 -37 -93 -90 -84 -208 33 -126 127 -289 145 -817 94 -362 -35 -1098 -70 -1634 -77 -869 -13 -975 -34 -975 -195 0 -148 88 -183 475 -193 261 -6 394 -32 294 -58 -99 -26 -163 -98 -142 -161 26 -77 458 -113 1357 -111 881 2 1308 -32 1284 -103 -40 -120 -2419 -130 -2943 -12 -256 57 -325 41 -325 -79 0 -105 147 -173 475 -221 261 -38 588 -126 725 -197 l250 -129 -288 -72 c-158 -40 -469 -78 -691 -84 -233 -6 -422 -66 -447 -140 -34 -101 131 -116 770 -71 800 58 811 55 685 -146 -108 -173 -231 -204 -803 -204 -718 0 -932 -161 -301 -227 l375 -39 -375 -17 c-259 -12 -375 -63 -375 -167 0 -82 51 -150 112 -150 75 0 68 -54 -20 -160 -112 -134 -106 -174 38 -255 210 -117 222 -285 20 -285 -105 0 -150 -106 -150 -350 0 -361 148 -440 542 -289 243 93 187 239 -92 239 -304 0 -331 156 -40 232 116 30 184 97 152 148 -31 51 32 174 140 272 245 222 260 388 23 262 -119 -63 -214 -51 -296 38 -150 163 32 248 529 248 405 0 466 194 67 213 -189 8 -134 37 175 92 248 44 1305 83 2350 86 3115 11 6448 96 7275 185 426 46 775 51 775 11 0 -40 -79 -95 -175 -122 -110 -31 -82 -46 75 -42 435 14 600 -20 600 -123 0 -60 -426 -101 -1075 -102 -746 -1 -1029 -31 -925 -100 95 -63 904 -77 2200 -38 1128 34 2017 28 1977 -14 -78 -80 -916 -128 -3277 -185 -4432 -107 -6491 -170 -7700 -233 -742 -39 -1429 -62 -1525 -51 -195 23 -241 -138 -57 -200 64 -21 368 -3 675 42 306 44 1997 103 3757 132 1760 29 3324 78 3475 109 165 33 275 13 275 -52 0 -62 -224 -113 -525 -121 -289 -7 -637 -25 -775 -41 -137 -16 -565 -40 -950 -53 -385 -14 -1169 -85 -1742 -160 -573 -75 -1121 -111 -1217 -80 -96 30 -208 1 -248 -65 -76 -123 880 -88 2623 93 752 79 970 58 882 -84 -29 -47 555 -68 1298 -47 2184 62 1636 -105 -776 -235 -2803 -152 -3417 -157 -5570 -41 -962 52 -1788 62 -1835 21 -113 -100 614 -216 1207 -193 840 32 1668 -10 2028 -101 207 -53 1104 -51 2200 6 1018 53 2647 124 3622 159 975 34 1754 92 1732 128 -23 37 -234 78 -470 91 -757 45 -544 115 349 115 477 0 867 -18 867 -40 0 -22 -168 -139 -373 -261 -331 -195 -503 -218 -1511 -205 -988 12 -1155 -9 -1271 -165 -103 -138 -174 -155 -314 -75 -255 147 -2156 88 -2501 -78 -294 -142 -1826 -155 -5055 -43 -866 30 -1575 17 -1575 -28 0 -94 2892 -232 4600 -219 1262 9 1252 -113 -18 -231 -565 -52 -988 -26 -1597 98 -726 148 -960 154 -1906 45 -594 -69 -1079 -170 -1079 -224 0 -61 148 -74 375 -33 991 176 1822 181 2659 15 474 -94 907 -142 964 -108 56 35 102 16 102 -42 0 -71 -674 -106 -2050 -106 -1262 0 -2050 -37 -2050 -97 0 -62 1718 -96 4700 -94 2851 2 4700 41 4700 97 0 52 146 93 325 92 247 -1 289 -24 175 -98 -313 -202 140 -105 482 103 183 111 385 194 450 184 219 -35 668 207 668 361 0 107 95 149 325 140 210 -7 255 -28 125 -59 -291 -70 -429 -229 -200 -229 379 0 -43 -243 -728 -419 l-672 -174 750 72 c413 39 1088 49 1500 23 1815 -116 4239 -52 5100 135 468 102 1210 201 1650 221 l800 37 -700 -237 c-544 -185 -633 -239 -400 -246 165 -5 539 54 832 132 724 193 1695 274 2115 178 191 -43 685 -43 1098 1 890 96 1206 20 755 -180 -285 -127 -264 -134 425 -138 708 -5 725 1 725 245 0 156 -57 250 -150 250 -82 0 -150 50 -150 111 0 61 68 84 150 53 91 -35 150 0 150 89 0 121 -217 147 -1250 147 -851 0 -1250 36 -1250 111 0 78 -290 94 -975 51 -536 -33 -1132 -22 -1325 24 -349 83 -348 83 200 151 748 93 1493 95 3175 7 1388 -72 1425 -68 1425 128 0 172 -68 204 -452 212 -249 5 -516 44 -593 87 -76 44 -717 47 -1422 8 -2514 -139 -7000 -207 -7175 -109 -126 70 103 126 854 207 564 61 1059 91 1100 66 160 -99 3761 -63 4188 42 248 60 866 111 1375 113 548 1 925 43 925 102 0 55 -115 100 -256 100 -145 0 -229 43 -194 100 85 137 1050 129 1050 -9 0 -114 396 -482 525 -488 41 -2 75 147 75 331 0 333 -1 334 -675 459 -647 120 -1673 105 -3361 -48 -539 -50 -677 -35 -643 67 89 267 2676 539 3465 363 281 -62 325 -49 275 83 -52 134 13 149 439 103 385 -42 500 -22 500 84 0 76 -56 161 -125 189 -100 40 -100 52 0 58 70 5 125 139 125 308 0 289 -16 300 -456 300 -251 0 -431 41 -400 90 31 50 236 67 456 37 325 -43 400 -23 400 110 0 141 -150 163 -1106 163 -712 0 -1084 36 -1044 100 34 55 160 101 281 102 120 0 286 44 369 96 128 81 121 116 -50 245 -185 139 -151 151 450 155 1070 8 1100 27 1100 721 l0 596 -875 -54 c-481 -30 -1000 -57 -1154 -61 -153 -4 -255 -45 -227 -90 78 -126 -1059 -235 -1181 -113 -71 71 27 103 311 103 228 0 440 41 471 92 77 125 -608 341 -867 273 -115 -30 -459 11 -765 90 -305 80 -722 145 -927 145 -204 0 -434 63 -511 139 -81 82 -198 107 -282 62 -188 -102 -808 -6 -734 114 32 51 222 84 424 73 202 -10 535 53 740 141 303 129 388 135 450 29 171 -291 714 -467 1230 -398 453 60 494 49 432 -112 -56 -148 -28 -168 174 -120 132 32 781 86 1441 120 660 34 1346 84 1525 111 369 57 442 237 100 248 l-225 7 225 108 c187 90 225 190 225 585 0 287 -50 496 -125 527 -100 40 -100 52 0 58 84 5 125 189 125 558 l0 550 -425 8 c-234 4 -515 24 -625 45 -110 21 -454 -27 -764 -107 -995 -257 -1928 -131 -1161 156 549 206 2013 287 2650 147 l325 -72 0 469 c0 283 -59 528 -150 618 -192 192 -192 336 0 336 125 0 150 206 150 1250 l0 1250 -250 13 c-137 6 -306 18 -375 25 -69 6 -140 120 -159 251 -32 226 -11 237 375 185 383 -52 409 -39 409 192 0 211 -33 237 -225 177 -124 -38 -253 -114 -287 -167 -98 -152 -488 104 -488 322 0 260 187 356 332 169 210 -272 668 -254 668 27 0 143 -84 204 -325 234 l-325 40 325 16 c291 14 325 47 325 316 0 184 -47 290 -123 275 -67 -14 -138 76 -157 200 -40 264 144 307 211 50 25 -96 51 84 57 400 9 430 -23 575 -127 575 -153 0 -261 210 -261 508 0 240 157 249 292 17 78 -134 103 -39 105 400 2 319 -42 575 -97 575 -130 0 -130 569 -1 650 65 40 100 2878 100 8102 0 6514 -27 8170 -141 8720 -189 913 -455 3348 -501 4578 -41 1115 90 2840 250 3300 280 801 492 5844 328 7785 -56 663 -90 765 -255 765 -178 0 -186 -57 -121 -875 38 -481 102 -965 141 -1075 40 -110 43 -402 7 -650 l-66 -450 -75 700 c-42 385 -73 821 -70 968 3 148 -39 297 -95 331 -56 35 -101 285 -101 557 0 478 -9 494 -290 494 -273 0 -292 -28 -334 -475 -24 -261 16 -655 89 -875 186 -563 167 -890 -65 -1100 -133 -120 -204 -318 -211 -590 l-10 -410 -96 425 c-75 337 -62 471 61 647 199 284 198 573 -2 860 -161 229 -212 941 -94 1313 53 167 22 205 -168 205 -209 0 -248 -70 -356 -640 -133 -703 -58 -3493 91 -3400 47 28 85 184 85 346 0 162 51 294 113 294 78 0 91 -132 40 -425 -40 -234 -81 -582 -91 -775 -31 -612 -185 -1343 -326 -1547 -203 -294 -166 -1097 76 -1659 117 -272 247 -494 289 -494 135 0 208 497 101 695 -56 106 -102 361 -102 567 0 543 300 1538 463 1538 167 0 166 -80 -5 -881 -144 -668 -117 -968 109 -1230 145 -168 91 -441 -132 -667 -236 -239 -267 -814 -84 -1589 208 -886 166 -1091 -512 -2488 -241 -497 -439 -958 -439 -1025 0 -66 -47 -120 -105 -120 -111 0 -21 709 101 800 38 28 190 358 339 735 292 736 335 1231 214 2477 -65 675 -112 804 -411 1131 -186 202 -338 475 -338 605 0 131 -67 305 -149 387 -164 164 -126 598 98 1115 389 896 499 1350 376 1548 -196 313 -262 1147 -113 1417 72 129 120 271 107 316 -132 462 -188 2107 -87 2594 70 339 57 375 -133 375 -116 0 -190 -34 -165 -75 63 -104 -127 -1257 -222 -1353 -80 -80 -47 1074 36 1303 29 78 -46 125 -199 125 -217 0 -238 -32 -185 -297 84 -420 -20 -664 -215 -502 -179 149 -195 513 -29 679 93 93 71 120 -100 120 -246 0 -262 -119 -127 -942 44 -271 45 -608 2 -750 l-78 -258 -20 300 c-11 165 -12 345 0 400 37 186 -224 1250 -307 1250 -46 0 -130 -88 -188 -196 -118 -220 -447 -166 -361 59 38 99 -40 137 -286 137 -186 0 -361 -56 -389 -125 -40 -100 -52 -100 -58 0 -13 204 -389 142 -458 -75 -35 -110 -111 -200 -168 -200 -58 0 -82 90 -53 200 42 161 3 200 -202 200 -140 0 -315 -79 -388 -175 -126 -167 -133 -167 -136 0 -4 206 -453 247 -545 50 -46 -100 -70 -100 -116 0 -32 69 -137 125 -233 125 -133 0 -213 -161 -335 -675 -88 -371 -227 -922 -309 -1225 l-148 -550 -8 764 c-7 616 22 777 152 826 130 50 138 91 39 210 -70 84 -95 255 -59 399 55 218 30 251 -189 251 -169 0 -252 -55 -252 -167 0 -92 -69 -244 -154 -337 -84 -93 -200 -457 -257 -808 -58 -351 -138 -773 -179 -938 -72 -287 -80 -277 -193 230 -64 291 -117 865 -117 1275 0 694 -15 745 -214 745 -198 0 -208 -34 -140 -475 41 -261 110 -925 155 -1475 44 -550 112 -1124 151 -1275 56 -215 36 -275 -88 -275 -88 0 -188 113 -223 250 -34 138 -101 250 -149 250 -47 0 -78 146 -69 325 27 514 -41 1443 -92 1249 -25 -97 -87 -151 -137 -120 -50 31 -63 386 -28 801 l63 745 -1014 0 -1015 0 -11 -1225 c-18 -1996 -33 -2204 -157 -2247 -142 -48 -163 2341 -21 2429 49 30 89 277 89 549 0 435 -25 494 -210 494 -189 0 -206 -48 -175 -500 21 -304 -4 -487 -65 -466 -55 19 -94 244 -87 500 l14 466 -432 0 -431 0 57 -1125 c32 -637 115 -1242 193 -1395 197 -391 175 -680 -52 -680 -247 0 -309 258 -312 1300 -3 1360 -93 1900 -316 1900 -148 0 -175 -50 -128 -239 33 -132 15 -267 -40 -301 -65 -40 -80 -606 -43 -1575 49 -1274 36 -1504 -82 -1463 -108 37 -137 241 -124 863 15 760 -98 1101 -196 590 -31 -159 -48 -128 -57 107 -8 186 56 402 144 490 122 123 143 278 94 701 -42 357 -23 591 54 685 101 121 4 142 -645 142 l-763 0 19 -702 c11 -430 -27 -748 -99 -820 -91 -91 -118 73 -118 702 l0 820 -328 0 -329 0 33 -675 c33 -692 -96 -1116 -367 -1206 -104 -34 -120 3 -62 142 177 424 149 612 -168 1139 -218 363 -406 561 -554 582 -177 25 -212 -6 -166 -150 54 -172 50 -173 -87 -7 -79 96 -241 175 -361 175 -209 0 -211 -10 -56 -309 190 -368 147 -431 -299 -431 -405 0 -656 185 -656 485 0 207 -48 222 -800 240 -758 19 -800 9 -800 -195 0 -179 -25 -194 -150 -90 -128 106 -150 78 -150 -188 0 -215 48 -312 155 -312 137 0 152 -260 125 -2145 -20 -1429 -63 -2111 -130 -2044 -60 60 -92 752 -79 1745 13 998 -17 1644 -75 1644 -94 0 -121 -382 -107 -1500 4 -302 -42 -673 -103 -824 -79 -199 -79 -486 1 -1050 165 -1157 234 -2915 135 -3426 l-87 -450 -79 750 c-44 413 -100 840 -125 950 -89 388 -139 3550 -56 3550 47 0 66 292 43 648 -22 356 -8 727 31 825 81 198 70 1553 -16 1902 -30 124 -96 225 -146 225 -52 0 -66 -430 -33 -1017 52 -913 42 -1004 -98 -888 -120 99 -156 336 -156 1017 0 807 -17 888 -191 888 -172 0 -185 -58 -135 -625 55 -625 55 -625 -151 -443 -113 101 -235 303 -272 450 -72 287 -403 653 -543 600 -47 -18 -6 -336 91 -707 98 -371 146 -675 108 -675 -140 0 -589 739 -745 1225 -34 106 -156 175 -309 175 l-253 0 0 -1100z m4189 625 c-6 -206 -44 -645 -84 -975 -69 -562 -74 -538 -82 375 -5 540 33 975 84 975 51 0 88 -169 82 -375z m9390 -1775 c2 -696 -27 -1008 -78 -850 -45 138 -80 835 -79 1550 2 925 25 1170 79 850 41 -247 77 -945 78 -1550z m5987 1425 c-28 -69 -50 -12 -50 125 0 138 22 194 50 125 28 -69 28 -181 0 -250z m-14866 -69 c0 -162 -45 -322 -100 -356 -60 -37 -100 82 -100 294 0 196 45 356 100 356 55 0 100 -132 100 -294z m2313 29 c184 -223 199 -1361 16 -1291 -71 27 -129 -16 -129 -95 0 -194 -484 -307 -710 -166 -100 62 -204 75 -233 29 -28 -47 -233 -85 -454 -85 -327 0 -403 36 -403 187 0 102 68 186 151 186 122 0 138 83 85 425 -37 234 -105 440 -151 458 -47 19 -85 100 -85 181 0 123 51 117 304 -32 317 -188 467 -358 804 -918 222 -369 315 -352 360 64 135 1252 185 1370 445 1057z m12087 -85 c0 -137 -45 -250 -100 -250 -112 0 -137 330 -33 433 110 111 133 79 133 -183z m-901 -453 c-62 -229 -134 -396 -160 -369 -26 26 7 266 74 532 67 267 139 433 160 370 21 -63 -12 -303 -74 -533z m1997 210 c74 -137 65 -345 -30 -716 l-134 -523 -65 541 c-89 735 -83 891 29 891 54 0 143 -87 200 -193z m-8264 -585 c36 -326 23 -506 -36 -469 -53 32 -96 289 -96 570 0 634 53 593 132 -101z m5212 253 c-40 -179 -66 -513 -58 -744 18 -500 -144 -663 -210 -212 -40 273 -10 466 183 1156 77 278 152 102 85 -200z m7045 -525 c-2 -412 -46 -750 -96 -750 -105 0 -129 1330 -26 1433 118 119 126 77 122 -683z m-23660 352 c66 -254 -47 -259 -270 -12 -132 146 -141 200 -40 236 178 64 247 13 310 -224z m1154 -440 c29 -149 -18 -164 -324 -107 -237 44 -359 29 -359 -44 0 -61 -68 -111 -150 -111 -194 0 -190 90 15 317 154 170 154 196 0 366 -282 312 -184 322 310 32 261 -153 490 -357 508 -453z m2086 62 c-25 -96 -45 6 -44 226 1 220 22 298 46 174 24 -125 23 -305 -2 -400z m12191 303 c-33 -33 -56 26 -52 131 5 117 28 141 60 61 29 -72 26 -159 -8 -192z m-11600 -300 c-33 -33 -56 26 -52 131 5 117 28 141 60 61 29 -72 26 -159 -8 -192z m373 -52 c-87 -456 -133 -470 -133 -42 0 202 44 367 98 367 56 0 71 -138 35 -325z m17034 -21 c5 -190 38 -460 73 -600 68 -272 -25 -329 -220 -134 -167 167 -159 1080 9 1080 78 0 132 -135 138 -346z m-19467 -123 c0 -197 -241 -110 -282 102 -23 116 15 148 125 106 86 -33 157 -127 157 -208z m5529 -364 c-43 -71 -95 -19 -134 134 -84 329 15 496 122 207 46 -125 51 -278 12 -341z m1017 326 c-86 -139 -146 -113 -146 63 0 86 46 128 102 93 56 -35 75 -105 44 -156z m9014 -66 c-101 -102 -185 51 -102 186 63 102 87 102 121 1 23 -70 15 -154 -19 -187z m3340 -597 c0 -606 -32 -838 -105 -765 -110 110 -195 1162 -118 1459 115 438 223 100 223 -694z m-4962 95 c73 -485 32 -525 -190 -186 -102 156 -134 334 -90 508 87 345 200 215 280 -322z m2162 375 c0 -55 -48 -100 -106 -100 -58 0 -78 45 -44 100 34 55 82 100 106 100 24 0 44 -45 44 -100z m-11240 -273 c-33 -33 -56 26 -52 131 5 117 28 141 60 61 29 -72 26 -159 -8 -192z m12900 0 c-33 -33 -56 26 -52 131 5 117 28 141 60 61 29 -72 26 -159 -8 -192z m-17953 69 c249 -133 246 -417 -7 -646 -194 -175 -200 -175 -200 15 0 108 -66 284 -147 391 -81 107 -148 228 -150 269 -4 108 278 92 504 -29z m6410 -519 c-55 -55 -154 -66 -221 -24 -90 55 -79 98 41 166 90 50 170 190 178 311 11 160 27 141 58 -67 23 -158 -2 -332 -56 -386z m-7071 -19 c74 -207 62 -291 -50 -362 -219 -139 -297 -115 -226 70 43 111 -32 243 -228 401 -243 196 -267 252 -143 330 201 127 523 -91 647 -439z m12820 115 c-28 -68 -49 12 -47 177 3 165 25 220 50 123 26 -97 24 -232 -3 -300z m-8716 102 c99 -305 119 -1167 25 -1110 -41 26 -75 131 -75 235 0 246 -197 364 -313 188 -89 -136 -103 670 -15 837 83 156 307 66 378 -150z m374 -25 c27 -137 10 -250 -38 -250 -47 0 -86 113 -86 250 0 138 17 250 38 250 21 0 60 -112 86 -250z m-1847 -1649 c-48 -1693 -119 -2101 -367 -2101 -36 0 -28 349 17 775 46 426 103 1262 126 1857 41 1024 83 1268 217 1268 32 0 35 -810 7 -1799z m823 1605 c0 -107 -45 -222 -100 -256 -57 -35 -100 49 -100 194 0 141 45 256 100 256 55 0 100 -87 100 -194z m1784 -212 c-13 -224 -60 -429 -104 -456 -44 -28 -80 -182 -80 -344 0 -162 -45 -294 -100 -294 -55 0 -100 225 -100 500 0 275 -45 500 -100 500 -55 0 -100 113 -100 250 0 212 46 250 304 250 293 0 303 -15 280 -406z m5287 126 c-27 -179 -228 -293 -211 -120 6 55 17 170 25 256 8 86 59 128 114 95 54 -34 87 -138 72 -231z m4918 -606 l-12 -364 -74 350 c-41 193 -108 485 -148 650 l-72 300 158 -286 c88 -158 154 -450 148 -650z m-12379 -14 c47 -939 -5 -1800 -110 -1800 -61 0 -100 490 -100 1270 0 767 36 1232 91 1175 50 -52 104 -342 119 -645z m14690 350 c0 -137 -39 -250 -86 -250 -48 0 -65 113 -38 250 26 138 65 250 86 250 21 0 38 -112 38 -250z m2559 -852 l-151 -348 -4 525 c-2 289 41 525 96 525 55 0 108 101 117 225 10 124 35 44 55 -177 21 -222 -30 -559 -113 -750z m2441 1002 c0 -55 -48 -100 -106 -100 -58 0 -78 45 -44 100 34 55 82 100 106 100 24 0 44 -45 44 -100z m-16772 -541 c86 -516 46 -759 -125 -759 -57 0 -103 180 -103 400 0 289 -42 400 -150 400 -152 0 -208 308 -80 437 186 186 380 -17 458 -478z m2114 454 c29 -47 -36 -167 -144 -265 -192 -174 -198 -172 -198 87 0 256 222 372 342 178z m8258 -133 c0 -162 -30 -190 -111 -109 -61 61 -81 160 -44 220 103 168 155 130 155 -111z m-11824 -255 c7 -332 -4 -350 -97 -156 -57 121 -78 290 -45 375 94 246 133 185 142 -219z m2124 195 c0 -103 -217 -320 -320 -320 -44 0 -80 90 -80 200 0 133 67 200 200 200 110 0 200 -36 200 -80z m6573 -231 c403 -195 450 -199 615 -50 362 328 1112 114 1112 -317 0 -352 328 -821 575 -821 255 -1 302 -150 75 -237 -218 -84 -184 -232 67 -298 259 -67 433 27 433 234 0 201 484 250 638 65 155 -188 43 -671 -140 -601 -73 29 -184 -45 -248 -163 -197 -370 76 -650 637 -654 255 -1 463 32 463 75 0 43 68 78 150 78 85 0 150 -90 150 -207 0 -161 44 -193 200 -143 110 35 200 26 200 -19 0 -46 -90 -139 -200 -208 -110 -68 -200 -211 -200 -316 0 -104 -55 -209 -122 -231 -66 -22 91 -146 350 -276 260 -129 472 -265 472 -301 0 -36 -104 -121 -232 -189 -181 -97 -222 -188 -188 -417 25 -174 -2 -293 -69 -293 -61 0 -111 61 -111 137 0 75 -83 243 -185 375 -102 131 -166 294 -142 363 24 69 0 125 -53 125 -53 0 -121 95 -152 210 -30 116 -101 182 -157 147 -56 -35 -75 -135 -42 -222 48 -125 16 -144 -154 -90 -260 83 -289 -92 -40 -237 109 -63 125 -103 44 -105 -72 -2 -124 -82 -114 -178 10 -96 13 -226 7 -288 -16 -157 -574 -373 -769 -298 -102 39 -145 16 -118 -64 23 -69 113 -139 201 -156 180 -35 1090 353 1188 507 35 55 114 68 176 30 160 -99 68 -206 -346 -402 -197 -94 -339 -223 -315 -287 24 -64 8 -207 -36 -317 -69 -174 -80 -164 -86 75 -6 225 -53 275 -257 275 -296 0 -302 -31 -80 -406 93 -159 135 -322 93 -364 -102 -102 -455 373 -395 531 27 71 -50 137 -185 156 -168 24 -231 96 -225 258 4 124 -52 225 -125 225 -73 0 -133 -73 -133 -162 0 -118 -67 -149 -249 -114 -320 61 -514 -147 -302 -323 100 -83 291 -104 559 -61 504 80 441 -90 -69 -186 -379 -71 -1139 -516 -1139 -667 0 -106 238 -115 340 -14 186 186 888 311 1147 204 235 -97 242 -113 63 -148 -110 -21 -436 -154 -724 -295 -508 -249 -606 -434 -231 -434 101 0 210 -67 241 -150 32 -82 131 -150 220 -150 89 0 277 -90 417 -200 140 -110 313 -200 385 -200 203 0 273 193 131 364 -109 130 -90 184 114 338 l243 184 682 -672 c494 -487 664 -720 616 -843 -45 -118 -134 -152 -294 -112 -126 32 -370 -16 -546 -107 -255 -132 -295 -192 -202 -304 64 -77 202 -168 307 -201 105 -33 191 -114 191 -180 0 -136 -404 -423 -540 -383 -49 14 -156 1 -236 -30 -215 -83 20 -333 488 -520 471 -189 568 -408 236 -535 -337 -128 -319 -442 52 -864 343 -391 374 -622 125 -928 -139 -171 -310 -224 -825 -256 -357 -22 -911 -80 -1229 -129 -459 -71 -595 -61 -657 49 -56 101 -143 114 -321 47 -133 -50 -333 -58 -443 -18 -110 40 -253 53 -317 28 -144 -53 -506 127 -808 402 -123 112 -250 179 -281 147 -98 -98 655 -1569 860 -1679 232 -124 266 -346 39 -259 -122 47 -143 11 -93 -165 126 -449 -323 234 -837 1276 -553 1119 -754 1753 -660 2080 34 121 85 299 112 395 30 108 -6 175 -96 175 -80 0 -212 101 -293 224 -136 204 -172 212 -403 88 -253 -135 -473 -89 -473 98 0 54 56 90 125 79 182 -30 482 119 425 211 -26 43 65 153 204 243 139 91 224 212 189 269 -39 62 -164 12 -317 -129 l-253 -233 117 225 c82 158 85 225 8 225 -61 0 -79 50 -41 111 37 61 96 72 131 25 94 -130 418 -130 398 0 -10 63 35 249 101 414 65 165 139 357 164 427 35 102 84 103 242 4 169 -105 235 -89 446 108 135 128 226 286 200 353 -25 66 68 288 208 493 139 206 253 442 253 526 0 271 189 514 449 580 207 52 231 88 129 198 -104 111 -186 101 -491 -57 -201 -105 -389 -279 -417 -387 -28 -107 -136 -195 -241 -195 -104 0 -232 -40 -284 -89 -52 -49 -203 -121 -335 -161 -187 -57 -228 -41 -184 73 112 292 -413 67 -547 -234 -70 -159 -157 -289 -192 -289 -35 0 -86 -84 -112 -186 -55 -210 -554 -375 -699 -230 -133 133 52 444 366 612 141 75 326 242 410 371 142 216 139 233 -39 233 -118 0 -214 -91 -251 -237 -36 -143 -188 -291 -381 -371 -178 -73 -403 -214 -502 -313 -98 -98 -246 -179 -329 -179 -82 0 -150 -48 -150 -108 0 -59 124 -94 275 -78 151 16 331 -6 400 -49 266 -164 102 -247 -421 -214 l-547 36 -413 -494 c-227 -271 -372 -493 -323 -493 49 0 142 53 207 118 65 65 145 93 176 61 32 -31 -80 -155 -248 -274 -245 -175 -292 -185 -241 -51 48 125 17 157 -125 127 -105 -21 -184 -115 -176 -210 8 -103 -58 -171 -166 -171 -131 0 -165 55 -127 202 29 110 93 226 141 255 210 130 59 247 -285 221 -296 -22 -380 10 -409 157 -31 159 7 175 273 117 380 -84 404 53 38 223 -376 175 -429 159 -429 -122 0 -179 -41 -231 -151 -189 -130 50 -121 108 58 397 115 187 163 339 106 339 -57 0 -144 -74 -195 -163 -176 -316 -1790 -208 -1686 112 18 56 176 148 350 206 410 135 610 409 619 845 6 288 70 390 361 576 195 124 394 201 443 171 49 -30 232 19 407 109 296 153 325 153 411 -1 76 -136 121 -143 244 -41 126 105 145 94 117 -69 -29 -168 19 -192 341 -173 460 27 499 -130 50 -199 -200 -31 -386 3 -483 88 -243 214 -664 166 -1204 -136 -381 -213 -513 -354 -589 -625 -135 -482 -130 -500 134 -500 248 0 540 277 763 725 76 151 175 275 221 275 119 0 102 -111 -66 -433 -127 -243 -128 -321 -9 -550 153 -296 664 -537 870 -410 73 45 101 113 63 152 -57 56 523 441 665 441 130 0 -93 -403 -251 -453 -219 -70 -255 -247 -50 -247 135 0 459 286 938 826 262 296 135 399 -292 238 -203 -77 -311 -67 -440 40 -157 130 -148 150 113 257 206 84 330 86 458 6 222 -139 352 -19 190 176 -68 82 -94 196 -58 253 35 58 -6 132 -92 165 -86 33 -156 101 -156 150 0 141 271 104 436 -61 82 -82 209 -149 282 -147 73 2 4 116 -153 254 -261 229 -337 245 -885 183 -553 -63 -597 -53 -564 121 32 167 132 189 835 189 589 0 831 39 921 150 204 252 150 282 -472 262 -330 -10 -600 9 -600 44 0 137 796 314 1162 259 1202 -183 1724 -222 2035 -153 377 84 459 59 357 -105 -36 -59 -222 -107 -413 -107 -216 0 -369 -57 -405 -150 -31 -82 -136 -150 -231 -150 -96 0 -311 -68 -478 -152 -230 -114 -371 -127 -572 -50 -148 56 -285 102 -306 102 -22 0 57 -180 174 -399 208 -389 226 -399 720 -385 502 15 957 198 957 386 0 54 -79 102 -175 108 -110 6 -83 36 75 79 138 39 250 135 250 216 1 80 91 145 200 146 110 0 298 57 418 125 120 68 284 98 365 67 193 -74 824 484 726 643 -53 85 -151 62 -356 -84 -391 -278 -453 -253 -211 87 236 332 698 457 1178 320 208 -60 331 -56 353 9 18 56 137 86 262 67 225 -34 224 -41 -90 -360 -175 -179 -415 -326 -532 -328 -195 -3 -198 -12 -35 -106 140 -82 257 -40 559 199 399 315 1213 532 1213 323 0 -62 -112 -113 -250 -113 -137 0 -250 -45 -250 -100 0 -55 64 -100 142 -100 78 0 158 -51 179 -114 62 -184 479 88 479 311 0 197 -320 360 -620 317 -94 -14 -286 51 -427 143 -182 120 -366 150 -639 107 -211 -34 -414 -31 -452 7 -124 125 -372 115 -715 -29 -501 -209 -573 -186 -497 158 62 283 48 300 -242 300 -321 0 -419 -164 -158 -264 82 -31 150 -170 150 -308 0 -225 -33 -245 -325 -204 -179 25 -404 80 -500 121 -128 56 -175 30 -175 -95 0 -115 -52 -151 -158 -111 -87 34 -200 61 -250 61 -145 0 -107 263 58 400 82 68 150 209 150 312 0 123 71 188 204 188 135 0 195 -56 175 -165 -16 -90 23 -182 86 -205 74 -26 112 87 105 315 -7 272 -52 355 -190 355 -99 0 -180 45 -180 100 0 55 113 100 250 100 163 0 250 56 250 161 0 215 -465 104 -775 -186 -193 -180 -225 -186 -225 -42 0 207 -135 215 -300 17 -68 -82 -184 -150 -257 -150 -73 0 -169 -58 -213 -130 -44 -71 -257 -172 -472 -225 -216 -52 -414 -158 -439 -235 -46 -141 95 -130 506 39 134 56 175 23 175 -141 0 -142 -92 -245 -275 -311 -151 -53 -353 -142 -449 -197 -95 -55 -241 -100 -325 -100 -83 0 -151 -63 -151 -139 0 -127 -202 -261 -391 -261 -41 0 -55 135 -30 300 24 165 84 300 132 300 49 0 89 84 89 188 0 103 62 239 138 302 76 63 163 237 194 387 30 150 283 518 562 819 472 509 626 804 418 804 -49 0 -261 -191 -473 -425 -211 -234 -436 -413 -500 -398 -64 14 -335 -213 -602 -506 -268 -293 -696 -636 -951 -764 -256 -128 -582 -341 -725 -474 -144 -132 -261 -187 -261 -120 0 157 299 487 441 487 61 0 169 94 241 208 72 115 186 187 255 161 68 -26 474 282 901 686 606 571 770 784 742 964 -32 212 -77 186 -543 -309 -301 -320 -555 -511 -623 -468 -66 40 -143 -6 -179 -111 -77 -218 -638 -831 -761 -831 -48 0 -60 86 -27 192 34 105 14 220 -43 255 -57 36 -104 25 -104 -24 0 -49 -119 -153 -264 -231 -146 -77 -371 -310 -501 -517 -131 -206 -291 -375 -356 -375 -65 0 -244 -121 -399 -269 -154 -147 -280 -217 -280 -154 0 63 104 218 231 344 127 126 350 392 495 591 411 563 835 921 1103 933 136 6 439 144 675 308 468 324 1569 1708 1451 1825 -40 39 -154 -29 -255 -153 -225 -278 -297 -286 -229 -25 29 110 92 200 141 200 48 0 88 68 88 150 0 83 -36 150 -80 150 -97 0 -1023 -984 -1183 -1257 -63 -106 -151 -157 -196 -114 -104 100 533 1367 723 1440 85 33 119 128 84 237 -75 237 263 462 830 552 621 99 821 -109 789 -820 -13 -296 5 -538 41 -538 36 0 122 202 191 448 69 247 185 497 257 557 205 170 687 75 728 -143 45 -236 -184 -679 -326 -631 -58 19 -161 -126 -229 -323 -76 -221 -86 -371 -26 -391 144 -50 118 -352 -50 -573 -81 -107 -148 -273 -150 -370 -2 -97 -138 -363 -304 -591 -165 -228 -275 -440 -244 -472 65 -64 735 689 741 833 7 176 439 556 632 556 257 0 965 569 1078 865 66 173 166 235 383 235 162 0 360 25 440 56 93 36 166 -27 205 -175 34 -127 17 -246 -37 -264 -228 -78 -70 -217 247 -217 241 0 391 66 498 219 149 212 308 185 308 -52 0 -64 169 -131 375 -148 388 -32 442 24 273 281 -83 127 -112 129 -188 10 -119 -184 -425 -65 -348 136 42 108 -2 154 -145 154 -116 0 -231 -86 -267 -200 -75 -237 -403 -267 -488 -44 -42 109 29 186 239 259 492 172 242 277 -579 244 -935 -37 -1665 -326 -1669 -661 -2 -147 -108 -259 -339 -356 l-336 -141 69 274 c85 340 332 624 543 627 88 0 228 47 310 104 124 85 117 97 -44 73 -147 -22 -210 48 -261 291 -75 353 85 564 655 864 389 205 409 204 923 -45z m5839 -539 l-70 -400 -121 469 c-169 658 -156 761 70 528 154 -158 178 -275 121 -597z m3454 323 c-28 -68 -49 12 -47 177 3 165 25 220 50 123 26 -97 24 -232 -3 -300z m-21566 -23 c0 -211 -50 -352 -125 -354 -434 -14 -1222 -1229 -1155 -1780 33 -268 150 -353 680 -490 l350 -90 -350 -218 c-434 -270 -538 -274 -471 -18 29 110 8 227 -45 260 -54 33 -123 -36 -153 -154 l-56 -214 -145 207 c-357 509 -46 2120 399 2073 163 -17 245 73 369 401 144 383 432 716 627 724 41 2 75 -154 75 -347z m6363 98 c-34 -88 -109 -131 -167 -95 -73 44 -68 110 13 208 146 175 238 107 154 -113z m-7213 52 c-34 -55 -115 -99 -181 -98 -71 0 -59 40 31 98 192 124 227 124 150 0z m22774 -525 c20 -206 0 -375 -44 -375 -44 0 -75 236 -68 525 12 545 51 493 112 -150z m528 -533 c-38 -463 -115 -869 -169 -903 -103 -63 -11 1720 98 1906 113 193 139 -184 71 -1003z m-15152 655 c0 -112 -79 -233 -175 -269 -377 -141 -745 -746 -791 -1301 -44 -525 -71 -578 -241 -473 -84 52 -102 280 -62 760 31 377 33 686 4 686 -151 0 -647 -446 -836 -751 -190 -308 -231 -331 -364 -198 -221 220 -290 186 -409 -201 -117 -383 -69 -447 130 -175 70 96 160 142 200 102 40 -40 15 -141 -55 -225 -78 -95 -105 -288 -70 -503 33 -203 15 -349 -43 -349 -55 0 -72 45 -38 100 34 54 -49 150 -185 211 -372 170 -402 632 -79 1217 171 311 352 501 514 542 138 35 469 218 736 406 347 243 518 310 594 234 76 -76 152 -68 264 28 140 122 638 334 831 354 41 4 75 -83 75 -195z m11366 -424 c-28 -68 -49 12 -47 177 3 165 25 220 50 123 26 -97 24 -232 -3 -300z m-15666 -223 c0 -241 -45 -466 -100 -500 -62 -38 -100 151 -100 500 0 349 38 538 100 500 55 -34 100 -259 100 -500z m11659 176 c-69 -70 -259 71 -259 192 0 66 57 59 152 -20 84 -70 132 -147 107 -172z m3101 1 c-33 -33 -56 26 -52 131 5 117 28 141 60 61 29 -72 26 -159 -8 -192z m-17660 -388 c0 -470 -26 -551 -158 -500 -87 34 -242 61 -343 61 -160 0 -173 43 -95 314 93 324 363 686 511 686 47 0 85 -252 85 -561z m21900 -395 c0 -299 -34 -544 -75 -544 -41 0 -75 266 -75 591 0 324 34 569 75 544 41 -26 75 -292 75 -591z m-5600 456 c0 -55 -45 -100 -100 -100 -55 0 -100 45 -100 100 0 55 45 100 100 100 55 0 100 -45 100 -100z m497 -325 c-3 -276 -19 -298 -108 -144 -58 100 -81 246 -51 325 93 241 162 162 159 -181z m-15871 -502 c30 -399 30 -1351 0 -2114 -40 -1026 -25 -1370 60 -1318 65 41 114 332 114 683 0 492 43 659 217 845 290 307 430 295 223 -20 -109 -167 -144 -354 -103 -557 38 -191 -16 -532 -144 -914 -252 -748 -315 -2614 -101 -3013 110 -206 110 -299 -4 -556 -75 -170 -166 -309 -202 -309 -177 0 -214 2811 -41 3092 48 78 26 164 -55 214 -109 67 -137 555 -138 2389 -2 2300 70 2953 174 1578z m17840 402 c-28 -69 -50 -12 -50 125 0 138 22 194 50 125 28 -69 28 -181 0 -250z m-13271 -1018 c-51 -52 -183 -101 -293 -109 -243 -18 -274 268 -50 454 88 73 128 205 94 312 -33 102 -11 186 47 186 59 0 102 34 95 75 -6 41 -1 120 13 175 13 55 60 -147 105 -450 46 -319 42 -589 -11 -643z m1908 897 c-69 -83 -101 -215 -71 -293 30 -78 -39 -225 -154 -327 -206 -182 -207 -181 -138 104 72 293 378 773 449 705 22 -21 -17 -106 -86 -189z m-3603 8 c0 -21 -76 -212 -169 -425 -179 -410 -197 -464 -222 -662 -9 -74 -58 -51 -121 57 -126 216 -36 648 185 893 142 157 327 235 327 137z m-4827 -537 c-40 -167 -46 -167 -118 0 -42 96 -42 254 0 350 72 167 78 167 118 0 23 -96 23 -254 0 -350z m3537 -287 c76 -92 50 -109 -104 -68 -155 40 -204 132 -200 367 7 305 9 307 104 68 54 -134 144 -299 200 -367z m-2910 362 c0 -55 -45 -100 -100 -100 -55 0 -100 45 -100 100 0 55 45 100 100 100 55 0 100 -45 100 -100z m17000 -47 c0 -179 -671 -322 -819 -174 -168 168 -27 269 410 294 299 17 409 -15 409 -120z m-9854 -460 c-86 -139 -146 -113 -146 63 0 86 46 128 102 93 56 -35 75 -105 44 -156z m12154 -143 c0 -137 -39 -250 -86 -250 -48 0 -65 113 -38 250 26 138 65 250 86 250 21 0 38 -112 38 -250z m-12998 -98 c-70 -83 -173 -152 -230 -152 -57 0 -21 90 79 201 206 228 344 184 151 -49z m-3052 -160 c271 -187 276 -199 50 -125 -137 46 -441 82 -675 80 -234 -1 -425 25 -425 59 0 265 658 256 1050 -14z m2261 -121 c-61 -61 -111 -214 -111 -341 0 -126 -45 -230 -100 -230 -148 0 -510 -388 -492 -529 36 -284 -34 -401 -103 -171 -53 175 -15 354 126 600 356 620 705 1043 749 909 23 -69 -8 -177 -69 -238z m12855 -98 c-28 -68 -49 12 -47 177 3 165 25 220 50 123 26 -97 24 -232 -3 -300z m-281 82 c22 -114 -14 -162 -100 -133 -74 24 -151 125 -170 223 -22 114 14 162 100 133 74 -24 151 -125 170 -223z m-17821 -496 c37 -422 16 -559 -84 -559 -73 0 -177 101 -231 225 -128 291 -297 204 -305 -157 -5 -254 -169 -462 -369 -466 -41 -1 -74 212 -72 473 3 452 26 491 471 796 257 176 485 304 505 283 20 -20 59 -288 85 -595z m5546 411 c-128 -128 -258 -29 -163 125 37 60 113 80 169 45 68 -42 66 -98 -6 -170z m2940 130 c-34 -55 -115 -99 -181 -98 -71 0 -59 40 31 98 192 124 227 124 150 0z m-6965 -368 c-146 -177 -315 -26 -227 204 51 132 96 144 205 53 108 -89 113 -148 22 -257z m2715 262 c0 -58 -45 -78 -100 -44 -55 34 -100 82 -100 106 0 24 45 44 100 44 55 0 100 -48 100 -106z m17666 -219 c-28 -69 -50 -12 -50 125 0 138 22 194 50 125 28 -69 28 -181 0 -250z m-23166 127 c0 -108 -311 -502 -396 -502 -46 0 -130 130 -185 290 -99 284 -94 290 240 280 187 -5 341 -36 341 -68z m22700 -52 c0 -82 -18 -150 -39 -150 -22 0 -66 68 -97 150 -32 83 -14 150 39 150 53 0 97 -67 97 -150z m-13264 -200 c-61 -159 -236 -208 -236 -67 0 106 109 217 214 217 44 0 54 -67 22 -150z m-3936 -106 c0 -86 -46 -128 -102 -93 -56 35 -75 105 -44 156 86 139 146 113 146 -63z m-1140 -217 c-101 -102 -185 51 -102 186 63 102 87 102 121 1 23 -70 15 -154 -19 -187z m7465 111 c243 -85 218 -223 -64 -351 -172 -78 -292 -79 -425 -1 -173 100 -170 108 39 111 124 2 225 48 225 103 0 55 -45 100 -100 100 -55 0 -100 49 -100 108 0 60 56 82 125 50 69 -32 204 -86 300 -120z m8375 -438 c0 -214 -45 -416 -100 -450 -62 -38 -100 134 -100 450 0 316 38 488 100 450 55 -34 100 -236 100 -450z m-16800 312 c0 -48 -67 -144 -150 -212 -122 -101 -150 -97 -150 21 0 80 30 176 67 212 95 95 233 83 233 -21z m16069 -488 c-25 -96 -45 6 -44 226 1 220 22 298 46 174 24 -125 23 -305 -2 -400z m-19555 -52 c-28 -471 -171 -701 -272 -437 -35 92 -3 242 72 333 106 128 109 174 11 207 -162 54 -162 295 0 353 189 68 216 4 189 -456z m5483 403 c-4 -165 -280 -526 -349 -457 -82 82 133 582 250 582 56 0 101 -56 99 -125z m17301 -800 c1 -96 -43 -175 -98 -175 -55 0 -99 146 -98 325 1 247 24 289 98 175 53 -82 98 -229 98 -325z m-20900 100 c-1 -176 -21 -193 -93 -80 -50 80 -70 181 -42 225 86 141 137 86 135 -145z m7302 156 c0 -148 -445 -531 -617 -531 -277 0 -220 157 142 388 340 218 475 259 475 143z m2657 -143 c30 -48 -83 -88 -251 -88 -284 0 -384 89 -250 222 73 74 432 -22 501 -134z m5943 68 c0 -159 -181 -308 -269 -220 -82 82 46 364 166 364 57 0 103 -65 103 -144z m-16206 -1081 c3 -206 -39 -375 -94 -375 -59 0 -95 317 -89 775 11 681 22 726 95 375 45 -220 85 -569 88 -775z m3905 572 c-148 -662 -327 -929 -265 -397 51 448 245 1005 322 927 28 -28 2 -266 -57 -530z m2604 159 c-107 -201 -303 -283 -303 -128 0 43 76 186 169 318 192 275 301 121 134 -190z m2897 356 c0 -21 -112 -60 -250 -86 -137 -27 -250 -10 -250 38 0 47 113 86 250 86 138 0 250 -17 250 -38z m-9938 -206 c30 -79 12 -221 -41 -314 -66 -119 -48 -253 59 -440 171 -297 95 -717 -95 -527 -143 143 -270 856 -210 1174 53 277 200 332 287 107z m12438 8 c0 -93 -83 -120 -259 -87 -189 36 -223 73 -125 135 202 128 384 105 384 -48z m-6181 -454 c-114 -88 -239 -295 -278 -460 -68 -284 -199 -445 -366 -448 -135 -3 -79 370 75 498 170 141 204 500 48 500 -57 0 -146 -112 -198 -250 -83 -220 -300 -355 -300 -188 0 161 571 687 717 659 90 -18 197 21 238 86 51 84 102 67 172 -59 76 -136 52 -214 -108 -338z m-6795 -85 c43 -356 -70 -570 -244 -462 -97 59 -107 677 -13 770 140 141 213 54 257 -308z m5488 -91 c-148 -279 -204 -329 -208 -181 -4 212 282 695 363 613 26 -26 -44 -220 -155 -432z m16754 41 c-28 -69 -50 -12 -50 125 0 138 22 194 50 125 28 -69 28 -181 0 -250z m-14416 25 c-34 -55 -104 -100 -156 -100 -52 0 -94 45 -94 100 0 55 70 100 156 100 86 0 128 -45 94 -100z m-6350 -450 c154 -362 180 -750 49 -750 -67 0 -151 169 -185 375 -72 437 -71 945 1 725 27 -82 88 -240 135 -350z m5636 2 c-254 -186 -288 -115 -69 141 100 117 198 163 218 103 20 -60 -47 -170 -149 -244z m8183 180 c-72 -29 -159 -26 -192 8 -33 33 26 56 131 52 117 -5 141 -28 61 -60z m-11501 -282 c-26 -147 -244 -122 -296 35 -29 86 19 122 134 100 99 -19 172 -80 162 -135z m1482 -52 c0 -57 -107 -144 -237 -193 -131 -50 -267 -206 -302 -348 -36 -141 -112 -257 -170 -257 -130 0 -22 368 198 672 164 226 511 311 511 126z m6319 -66 c-72 -29 -159 -26 -192 8 -33 33 26 56 131 52 117 -5 141 -28 61 -60z m7341 -305 c-33 -33 -56 26 -52 131 5 117 28 141 60 61 29 -72 26 -159 -8 -192z m-14764 -52 c-1 -124 -72 -337 -156 -475 l-153 -250 68 250 c37 138 67 351 67 475 -1 124 39 225 89 225 49 0 87 -101 85 -225z m1523 -150 c33 -391 -91 -825 -235 -825 -109 0 -104 113 12 297 58 91 55 191 -6 265 -109 131 -17 638 115 638 46 0 97 -169 114 -375z m16591 -591 c-82 -348 -90 -319 -91 316 -1 585 14 648 90 384 55 -189 56 -469 1 -700z m-21810 705 c0 -21 -157 -39 -350 -39 -192 0 -350 36 -350 80 0 44 158 61 350 39 193 -22 350 -58 350 -80z m18859 -292 c-38 -421 -159 -590 -159 -222 0 253 87 575 156 575 19 0 20 -159 3 -353z m-17046 -112 c-94 -162 -107 -149 -110 110 -2 215 27 265 107 185 79 -79 80 -163 3 -295z m2553 -260 c-28 -69 -50 -12 -50 125 0 138 22 194 50 125 28 -69 28 -181 0 -250z m3425 -75 c198 0 65 -247 -149 -278 -109 -16 -248 61 -320 179 -174 279 -54 459 171 256 95 -87 229 -157 298 -157z m7511 -152 c198 -239 53 -275 -213 -54 -185 154 -202 200 -76 203 89 2 219 -66 289 -149z m-12856 -713 c39 -186 22 -343 -40 -381 -58 -36 -106 -4 -106 71 0 75 -70 224 -155 331 -146 183 -151 176 -92 -131 40 -205 23 -325 -45 -325 -65 0 -108 238 -108 604 l0 604 240 -229 c132 -126 270 -371 306 -544z m9710 377 c-205 -397 -526 -584 -579 -337 -28 133 -79 97 -212 -154 -170 -321 -505 -525 -847 -517 -106 3 -57 62 132 162 165 87 418 292 562 456 238 272 992 779 1070 721 18 -14 -39 -162 -126 -331z m-3356 188 c0 -55 -48 -100 -106 -100 -58 0 -78 45 -44 100 34 55 82 100 106 100 24 0 44 -45 44 -100z m2196 -375 c-16 -280 -1096 -593 -1096 -318 0 51 101 94 225 94 124 1 338 64 475 141 295 163 402 186 396 83z m-11458 -235 c188 -9 184 -18 -37 -79 -316 -88 -801 -20 -801 113 0 60 127 76 313 39 171 -35 408 -67 525 -73z m1362 10 c0 -55 -90 -100 -200 -100 -110 0 -200 45 -200 100 0 55 90 100 200 100 110 0 200 -45 200 -100z m3393 -325 c-6 -265 -22 -288 -86 -125 -44 110 -58 256 -32 325 80 215 125 138 118 -200z m-4018 -44 c-96 -25 -254 -25 -350 0 -96 25 -17 46 175 46 193 0 271 -21 175 -46z m19691 -358 c-28 -68 -49 12 -47 177 3 165 25 220 50 123 26 -97 24 -232 -3 -300z m-10366 224 c0 -53 -80 -97 -178 -97 -98 0 -279 -71 -402 -157 -302 -212 -460 -145 -277 116 151 216 857 329 857 138z m-6031 -573 c-25 -96 -45 6 -44 226 1 220 22 298 46 174 24 -125 23 -305 -2 -400z m2207 269 c-111 -183 -91 -235 174 -450 267 -216 313 -225 416 -86 105 142 149 140 450 -25 l334 -182 -350 -29 c-192 -16 -417 -57 -500 -92 -194 -82 -600 -104 -602 -34 0 30 -135 207 -300 394 -362 410 -372 511 -54 511 134 0 272 45 306 100 34 55 105 100 157 100 52 0 38 -93 -31 -207z m5424 160 c0 -122 -607 -344 -769 -282 -137 53 -72 99 269 189 248 66 461 125 475 130 14 6 25 -11 25 -37z m-10094 -411 c109 -130 107 -173 -12 -248 -198 -125 -311 -112 -538 59 -291 220 -549 179 -656 -103 -52 -137 -137 -250 -189 -250 -52 0 -170 -29 -262 -64 -131 -51 -159 -14 -133 175 61 430 1503 777 1790 431z m8733 0 c38 -98 15 -143 -58 -119 -149 50 -231 277 -100 277 54 0 125 -71 158 -158z m-7939 -42 c0 -55 -48 -100 -106 -100 -58 0 -78 45 -44 100 34 55 82 100 106 100 24 0 44 -45 44 -100z m6800 0 c0 -55 -48 -100 -106 -100 -58 0 -78 45 -44 100 34 55 82 100 106 100 24 0 44 -45 44 -100z m596 -355 c-66 -80 -184 -145 -262 -145 -115 0 -119 42 -23 225 66 124 168 258 229 297 156 103 201 -202 56 -377z m10436 -615 c10 -231 -31 -469 -91 -529 -78 -78 -107 102 -102 645 7 798 159 707 193 -116z m-20871 595 c166 -167 166 -177 -6 -210 -99 -19 -274 60 -390 175 l-209 210 215 0 c118 0 293 -79 390 -175z m2934 -234 c-61 -114 -136 -184 -165 -154 -83 83 49 363 170 363 74 0 73 -64 -5 -209z m3030 70 c96 -73 175 -202 175 -286 0 -85 74 -182 165 -217 151 -58 150 -75 -15 -196 -155 -113 -173 -231 -125 -822 34 -415 25 -571 -22 -390 -44 165 -85 506 -91 758 -10 368 -71 517 -309 750 -164 161 -299 348 -300 417 -4 163 299 155 522 -14z m3925 39 c-34 -55 -82 -100 -106 -100 -24 0 -44 45 -44 100 0 55 48 100 106 100 58 0 78 -45 44 -100z m12550 -200 c0 -165 -37 -300 -83 -300 -45 0 -63 135 -38 300 24 165 61 300 82 300 22 0 39 -135 39 -300z m-13100 100 c0 -55 -45 -100 -100 -100 -55 0 -100 45 -100 100 0 55 45 100 100 100 55 0 100 -45 100 -100z m1205 -209 c61 -114 85 -234 54 -266 -84 -83 -464 286 -401 388 90 146 229 97 347 -122z m-5336 -366 c-25 -96 -46 -17 -46 175 0 193 21 271 46 175 25 -96 25 -254 0 -350z m12831 386 c0 -49 -71 -117 -158 -150 -245 -94 -277 -74 -142 89 138 166 300 199 300 61z m-15082 -333 c-71 -71 -118 -77 -118 -15 0 134 118 252 185 185 28 -28 -2 -105 -67 -170z m4832 122 c-34 -55 -104 -100 -156 -100 -52 0 -94 45 -94 100 0 55 70 100 156 100 86 0 128 -45 94 -100z m-5657 -125 c106 -100 141 -100 178 0 108 296 229 84 229 -403 l0 -529 -494 -21 c-272 -12 -522 23 -556 78 -37 59 80 100 286 100 799 0 882 283 189 643 -404 211 -437 248 -220 252 140 3 315 -51 388 -120z m5805 -278 c-163 -305 -230 -178 -81 151 69 151 141 227 161 169 19 -58 -17 -202 -80 -320z m-4354 -97 c64 -240 60 -242 -89 -56 -85 107 -155 262 -155 345 0 211 162 20 244 -289z m3506 300 c34 -55 14 -100 -44 -100 -58 0 -109 -101 -113 -225 l-7 -225 -108 225 c-60 124 -149 225 -199 225 -50 0 -63 45 -29 100 34 55 146 100 250 100 104 0 216 -45 250 -100z m1162 -227 c-98 -98 -110 -86 -56 56 38 99 94 154 125 124 30 -31 0 -112 -69 -180z m3069 33 c25 -75 -12 -112 -87 -87 -72 24 -151 103 -175 175 -25 75 12 112 87 87 72 -24 151 -103 175 -175z m-10938 -217 c-30 -49 -311 -86 -624 -81 l-569 8 500 179 c482 172 832 118 693 -106z m11707 54 c0 -110 -83 -206 -197 -228 -177 -34 -182 -21 -51 138 135 162 126 170 -103 106 -240 -67 -242 -64 -53 87 240 192 404 150 404 -103z m-10509 97 c253 -98 77 -240 -297 -240 -493 0 -443 199 73 288 37 7 138 -15 224 -48z m1407 -315 c-40 -151 -67 -320 -60 -375 7 -55 37 -280 67 -500 45 -329 34 -367 -61 -215 -63 101 -139 450 -168 775 -47 515 -32 590 121 590 142 0 161 -52 101 -275z m2352 119 c0 -24 -45 -44 -100 -44 -55 0 -100 48 -100 106 0 58 45 78 100 44 55 -34 100 -82 100 -106z m14700 -44 c0 -111 -67 -200 -150 -200 -152 0 -205 212 -83 333 126 127 233 66 233 -133z m1560 -73 c-33 -33 -56 26 -52 131 5 117 28 141 60 61 29 -72 26 -159 -8 -192z m840 129 c0 -79 -45 -172 -100 -206 -55 -34 -100 31 -100 144 0 113 45 206 100 206 55 0 100 -65 100 -144z m-12000 -412 c0 -24 -45 -44 -100 -44 -55 0 -100 48 -100 106 0 58 45 78 100 44 55 -34 100 -82 100 -106z m401 -69 c0 -379 201 -975 329 -976 66 -1 201 -260 300 -575 205 -651 411 -1129 980 -2273 220 -443 351 -814 294 -833 -57 -19 -104 -101 -104 -183 0 -98 -62 -129 -183 -90 -144 45 -180 9 -165 -169 23 -279 -44 -476 -163 -476 -49 0 -89 138 -89 306 0 168 -43 279 -95 247 -52 -32 -144 33 -204 144 -59 112 -155 203 -211 203 -57 0 -2 -143 123 -318 154 -216 188 -332 107 -359 -66 -22 -120 -171 -120 -332 0 -169 -85 -365 -200 -464 -273 -234 -276 -476 -5 -307 244 153 358 54 217 -187 -81 -140 -107 -148 -110 -33 -5 133 -16 133 -102 0 -88 -136 -71 -448 58 -1075 80 -390 242 -244 242 219 0 572 153 662 345 203 84 -202 197 -333 255 -297 59 36 152 -71 212 -242 59 -170 169 -308 244 -308 103 0 85 88 -69 350 -114 193 -264 350 -335 350 -148 0 -345 429 -402 879 -26 206 25 390 152 541 143 172 192 191 195 74 2 -86 69 -243 151 -350 134 -177 142 -152 85 287 -53 412 -32 501 143 624 135 94 187 213 153 344 -30 117 -3 201 65 201 65 0 95 -38 66 -83 -28 -46 -10 -238 42 -425 51 -188 163 -602 249 -921 91 -334 199 -552 258 -516 67 42 66 104 -3 188 -58 69 -165 447 -239 839 -134 709 -134 714 112 941 136 125 539 667 896 1206 690 1040 977 1271 1581 1271 512 0 1244 -626 1614 -1380 264 -538 278 -634 252 -1715 -16 -630 -91 -1462 -168 -1850 -76 -388 -190 -1110 -254 -1605 -63 -495 -153 -1080 -200 -1300 -47 -220 -60 -614 -30 -875 33 -278 16 -475 -41 -475 -177 0 -292 444 -221 850 38 220 32 424 -15 453 -70 45 320 2445 561 3447 50 210 40 270 -34 200 -58 -55 -179 -482 -269 -950 -360 -1885 -483 -2392 -565 -2341 -139 86 -101 422 171 1512 142 565 241 1107 220 1203 -21 97 -119 -184 -218 -624 -228 -1010 -319 -1193 -411 -826 -39 155 -3 496 86 798 85 291 177 686 206 878 29 193 82 451 118 575 36 125 22 225 -33 225 -54 0 -126 -209 -162 -465 -103 -755 -262 -1247 -379 -1175 -105 65 -63 718 67 1056 40 105 -8 176 -145 211 -169 45 -206 7 -206 -206 0 -154 -36 -222 -87 -166 -128 140 -14 845 137 845 151 0 277 275 191 415 -33 53 -130 82 -217 66 -105 -21 -200 -243 -289 -681 -129 -634 -102 -989 84 -1109 167 -108 496 -1625 449 -2074 -32 -308 -6 -447 93 -485 99 -38 139 -245 139 -723 0 -658 8 -678 482 -1214 622 -703 891 -1223 953 -1847 28 -276 117 -696 199 -934 136 -395 134 -446 -24 -604 -95 -95 -217 -158 -271 -140 -53 18 -393 -165 -754 -407 -926 -621 -1221 -750 -735 -320 220 195 451 355 513 356 147 1 384 288 304 368 -34 33 -299 -118 -589 -337 -952 -719 -1178 -843 -1178 -642 0 48 247 258 550 466 516 356 675 546 456 546 -52 0 -153 -80 -225 -178 -154 -209 -1097 -822 -1265 -822 -180 0 -137 199 59 269 249 88 1025 726 1025 841 0 53 -270 -94 -600 -326 -485 -342 -624 -399 -725 -296 -101 103 -27 214 375 568 539 474 545 603 9 194 -363 -277 -511 -308 -620 -133 -43 71 83 248 317 444 214 180 356 360 315 401 -41 41 -223 -70 -405 -246 -327 -318 -332 -319 -510 -123 -173 192 -169 207 155 502 365 333 263 429 -111 105 -274 -238 -485 -256 -564 -50 -31 83 -176 149 -322 147 l-264 -4 250 -199 c811 -646 1000 -1056 1000 -2176 0 -555 -80 -844 -478 -1718 -167 -365 -651 -900 -815 -900 -53 0 -154 -79 -226 -175 -72 -96 -221 -189 -331 -206 -110 -17 -277 -42 -371 -56 -95 -14 -252 -98 -350 -186 -238 -214 -689 -322 -774 -185 -40 65 20 108 150 108 145 0 199 47 163 140 -64 167 183 542 288 437 40 -40 16 -141 -54 -225 -82 -98 -88 -152 -18 -152 176 0 324 352 200 476 -117 117 -33 324 133 324 57 0 77 -79 44 -175 -33 -96 71 -24 231 161 159 184 310 411 334 503 59 224 -90 611 -235 611 -85 0 -84 -38 4 -144 148 -178 101 -575 -74 -633 -93 -31 -112 28 -67 206 74 296 -70 414 -405 330 -153 -39 -400 -305 -679 -735 -465 -713 -870 -1146 -870 -930 0 137 396 736 521 789 44 19 79 97 79 175 0 78 184 326 408 550 418 418 472 606 109 379 -112 -69 -435 -477 -718 -907 -283 -429 -578 -780 -657 -780 -204 0 -183 59 208 570 192 252 350 497 350 544 0 197 -170 51 -487 -417 -186 -273 -397 -497 -470 -497 -274 0 -254 229 46 538 171 177 311 384 311 461 0 77 -152 -26 -338 -229 -187 -204 -367 -370 -400 -370 -102 0 -70 383 37 450 55 33 151 160 214 281 109 209 102 208 -149 -23 -336 -309 -475 -189 -164 142 129 137 200 283 159 324 -41 42 -165 -48 -275 -199 -111 -151 -259 -275 -330 -275 -71 0 -191 -76 -267 -169 -122 -150 -115 -160 63 -95 186 69 184 58 -22 -150 -122 -124 -254 -194 -292 -155 -92 91 109 458 454 826 310 333 467 803 324 978 -126 154 32 1118 234 1426 223 340 0 302 -363 -61 -367 -367 -472 -378 -408 -44 26 140 223 395 436 566 516 415 420 476 -127 80 -284 -206 -446 -272 -473 -192 -22 68 25 171 106 231 466 346 797 676 738 735 -37 38 -100 17 -139 -46 -92 -149 -946 -828 -1043 -829 -41 -1 -75 83 -75 186 0 107 171 299 400 451 220 146 400 313 400 372 0 59 -189 -32 -420 -201 -231 -170 -451 -309 -490 -309 -176 0 68 433 395 703 207 171 297 297 211 297 -83 0 -320 -140 -528 -312 -208 -171 -402 -287 -431 -258 -102 102 165 456 685 911 291 255 456 459 370 459 -85 0 -284 -135 -442 -300 -383 -400 -516 -381 -258 37 245 396 267 537 58 363 -118 -98 -150 -98 -150 -1 0 68 -89 17 -197 -113 -193 -232 -196 -233 -200 -23 -4 263 270 937 381 937 45 0 64 -146 43 -325 -31 -271 -19 -295 74 -148 181 288 201 578 44 639 -80 30 -145 126 -145 211 0 269 -139 33 -419 -710 -148 -394 -272 -616 -275 -492 -3 124 -45 225 -94 225 -48 0 -70 214 -49 475 l39 475 -194 -400 c-242 -501 -247 -632 -44 -1113 128 -303 170 -800 192 -2287 38 -2570 -103 -3614 -653 -4832 -249 -554 -458 -1199 -513 -1589 -157 -1107 -168 -1129 -557 -1129 -687 0 -1924 -778 -1804 -1136 64 -192 223 -165 322 55 55 120 302 324 549 451 370 191 592 230 1250 218 440 -7 1250 -10 1800 -6 1220 9 1512 -10 1607 -105 40 -40 167 -54 283 -31 115 23 525 67 910 98 614 49 678 39 519 -84 -286 -223 -39 -270 287 -55 182 120 468 194 749 194 250 1 498 42 550 92 74 71 800 160 1662 205 37 2 207 121 377 265 220 184 346 231 433 160 195 -160 910 231 1111 607 95 177 235 437 313 577 84 151 148 591 158 1088 18 820 23 836 304 943 299 112 357 209 187 314 -156 96 -120 218 150 509 138 149 250 337 250 418 0 82 158 323 350 536 366 405 417 534 250 637 -180 111 -117 468 75 429 141 -29 173 -134 162 -547 -10 -393 -84 -614 -320 -957 -269 -392 -717 -1390 -717 -1600 0 -41 68 -75 150 -75 83 0 150 60 150 133 0 179 1377 1547 1640 1629 116 36 233 93 260 126 28 34 140 113 250 175 147 83 192 196 169 425 -18 173 15 312 75 312 58 0 106 135 106 299 0 414 490 1601 661 1601 76 0 139 -96 139 -212 0 -166 29 -188 134 -101 218 180 269 14 112 -362 -80 -192 -146 -456 -146 -587 0 -131 -51 -238 -114 -238 -78 0 -95 158 -55 500 61 512 -57 678 -194 275 -42 -124 -79 -669 -82 -1213 l-5 -987 -578 -518 c-599 -536 -671 -741 -173 -493 449 225 892 795 963 1241 36 220 102 423 148 451 46 29 57 185 24 348 -35 177 -17 296 45 296 162 0 314 -876 213 -1227 -48 -169 -246 -438 -440 -597 -194 -160 -353 -344 -353 -408 -1 -65 -160 -221 -354 -346 -194 -126 -324 -274 -290 -330 36 -59 245 48 496 253 238 195 463 355 500 355 37 0 151 101 255 225 109 131 189 170 191 94 2 -72 -222 -369 -497 -660 -275 -290 -500 -550 -500 -577 0 -27 -179 -242 -397 -479 -219 -237 -369 -477 -333 -535 37 -60 183 39 345 233 154 185 378 351 496 369 184 28 197 10 88 -121 -251 -302 -26 -242 375 102 224 192 473 349 553 349 80 0 315 134 521 299 544 432 670 244 143 -213 -515 -446 -1020 -731 -1557 -879 -254 -70 -635 -344 -1129 -812 -579 -549 -793 -695 -961 -652 -179 44 -281 -47 -580 -519 -200 -315 -364 -629 -364 -698 0 -70 -50 -126 -110 -126 -61 0 -416 -283 -790 -629 -709 -656 -974 -779 -2950 -1358 -385 -113 -1074 -319 -1530 -459 -457 -140 -916 -254 -1021 -254 -106 0 -415 -88 -688 -196 -273 -107 -735 -225 -1028 -261 -721 -89 -1495 -343 -1419 -465 38 -62 -48 -75 -232 -35 -227 50 -358 8 -587 -189 -298 -256 -824 -362 -685 -138 50 81 -1 96 -169 51 -133 -35 -376 -70 -541 -77 -170 -8 -224 -33 -125 -59 366 -96 152 -205 -388 -200 l-564 6 289 231 c170 136 424 231 620 232 182 0 427 52 545 115 234 125 1374 422 2047 532 234 39 454 118 490 176 44 71 -29 82 -224 32 -160 -41 -537 -114 -840 -161 -763 -121 -1199 -243 -1550 -431 -355 -191 -459 -203 -425 -50 14 61 -31 133 -100 158 -69 25 -125 -1 -125 -58 0 -136 -1389 -1033 -1528 -987 -121 40 911 859 1403 1112 335 172 432 362 186 362 -77 0 -165 -65 -195 -145 -31 -79 -204 -221 -386 -315 -348 -179 -1149 -784 -1346 -1017 -121 -142 -953 -250 -1254 -162 -105 31 -147 109 -110 206 48 124 14 141 -165 85 -197 -63 -216 -45 -155 147 62 196 48 207 -141 106 -280 -150 -268 28 16 232 224 161 224 161 -75 105 -276 -51 -286 -44 -119 92 109 88 140 172 79 210 -56 34 -76 129 -44 210 41 109 9 130 -121 80 -125 -48 -155 -32 -103 53 41 67 31 176 -22 242 -60 75 -65 350 -14 721 46 330 110 1500 142 2600 61 2110 76 2379 264 4586 113 1333 66 3657 -79 3892 -126 203 -112 2113 24 3272 231 1972 456 2794 921 3372 632 784 1044 1365 1243 1750 316 614 1449 1959 1779 2113 83 38 375 200 650 360 275 161 613 345 750 411 138 65 423 208 635 318 271 141 499 184 775 147 214 -28 390 -11 390 39 0 49 -67 90 -150 90 -82 0 -150 45 -150 100 0 146 109 123 318 -66 202 -183 390 -102 200 88 -144 144 -153 278 -18 278 55 0 100 -67 100 -150 0 -177 158 -199 259 -35 50 80 113 59 206 -69 74 -101 135 -139 135 -84 0 55 -63 186 -140 291 -126 172 -109 213 165 416 332 245 475 224 475 -70 0 -392 223 -1208 371 -1355 236 -237 258 -106 44 268 -245 428 -370 1088 -207 1088 85 0 83 40 -8 150 -99 119 -99 181 -1 299 156 188 301 104 301 -173 0 -235 396 -1113 469 -1041 25 26 -24 181 -109 345 -236 458 -357 1114 -255 1383 57 149 54 237 -7 237 -54 0 -98 45 -98 100 0 55 68 100 150 100 83 0 150 -75 150 -166 0 -92 64 -395 142 -675 78 -280 198 -756 265 -1059 156 -696 780 -2200 914 -2200 55 0 76 56 46 125 -30 69 -241 549 -468 1068 -227 518 -393 1020 -368 1115 25 94 -62 541 -193 993 -131 452 -238 884 -238 960 0 293 161 118 331 -361 97 -275 220 -500 273 -500 128 0 126 12 -102 514 -239 526 -260 886 -52 886 89 0 150 -92 151 -225z m572 -175 c181 -459 323 -531 249 -125 -100 553 60 153 264 -659 222 -884 772 -2130 1090 -2469 106 -112 225 -336 265 -498 74 -292 73 -293 -134 -105 -244 220 -390 153 -162 -75 172 -172 205 -369 62 -369 -92 0 -174 140 -705 1200 -387 774 -809 1865 -873 2261 -30 184 -99 308 -153 274 -150 -92 -273 172 -274 590 -2 490 174 478 371 -25z m-7932 72 c75 -119 70 -201 -17 -288 -148 -148 -188 -112 -280 254 -54 217 -39 277 60 244 72 -24 179 -119 237 -210z m6559 128 c0 -55 -45 -100 -100 -100 -55 0 -100 45 -100 100 0 55 45 100 100 100 55 0 100 -45 100 -100z m-1591 -431 c-130 -130 -148 15 -37 298 70 176 73 176 109 -3 21 -102 -11 -234 -72 -295z m12236 -313 c62 -345 52 -378 -80 -268 -181 149 -310 659 -209 822 95 154 197 -41 289 -554z m515 371 c-33 -33 -56 26 -52 131 5 117 28 141 60 61 29 -72 26 -159 -8 -192z m-8825 -209 c34 -210 313 -895 621 -1522 308 -627 514 -1156 458 -1175 -57 -19 -75 -110 -41 -202 54 -151 39 -149 -145 12 -273 239 -744 1145 -1067 2050 -316 885 -336 1219 -74 1219 140 0 203 -97 248 -382z m9365 282 c0 -55 -48 -100 -106 -100 -58 0 -78 45 -44 100 34 55 82 100 106 100 24 0 44 -45 44 -100z m-2320 -533 c19 -280 -11 -467 -75 -467 -58 0 -105 154 -105 342 0 188 -30 419 -66 513 -46 121 -24 158 75 126 88 -29 152 -222 171 -514z m3070 333 c-34 -55 -104 -100 -156 -100 -52 0 -94 45 -94 100 0 55 70 100 156 100 86 0 128 -45 94 -100z m-12850 -250 c0 -82 -44 -150 -97 -150 -53 0 -71 68 -39 150 31 83 75 150 97 150 21 0 39 -67 39 -150z m-4000 -50 c0 -55 -45 -100 -100 -100 -55 0 -100 45 -100 100 0 55 45 100 100 100 55 0 100 -45 100 -100z m-2850 -300 c34 -55 -8 -100 -94 -100 -86 0 -156 45 -156 100 0 55 42 100 94 100 52 0 122 -45 156 -100z m17378 -680 c38 -303 20 -419 -62 -393 -65 22 -127 279 -141 581 -30 626 117 490 203 -188z m3132 307 c-33 -33 -56 26 -52 131 5 117 28 141 60 61 29 -72 26 -159 -8 -192z m-16460 -227 c0 -55 -45 -100 -100 -100 -55 0 -100 45 -100 100 0 55 45 100 100 100 55 0 100 -45 100 -100z m12138 -55 c34 -89 18 -129 -39 -94 -55 33 -99 103 -99 155 0 144 72 112 138 -61z m1712 -145 c-38 -118 -91 -193 -118 -165 -28 27 -20 147 18 265 38 118 91 193 118 165 28 -27 20 -147 -18 -265z m-16790 -73 c-33 -33 -56 26 -52 131 5 117 28 141 60 61 29 -72 26 -159 -8 -192z m-608 -353 c10 -233 50 -525 90 -649 106 -333 -97 -274 -240 69 -75 182 -95 452 -52 707 85 504 178 446 202 -127z m10647 229 c67 -163 185 -348 262 -412 147 -122 191 -392 64 -390 -97 2 -476 587 -568 876 -105 332 99 270 242 -74z m-8933 -128 c-28 -69 -50 -12 -50 125 0 138 22 194 50 125 28 -69 28 -181 0 -250z m18994 -48 c-33 -33 -56 26 -52 131 5 117 28 141 60 61 29 -72 26 -159 -8 -192z m-9360 73 c0 -55 -45 -100 -100 -100 -55 0 -100 45 -100 100 0 55 45 100 100 100 55 0 100 -45 100 -100z m7166 -327 c-28 -68 -49 12 -47 177 3 165 25 220 50 123 26 -97 24 -232 -3 -300z m734 127 c0 -55 -45 -100 -100 -100 -55 0 -100 45 -100 100 0 55 45 100 100 100 55 0 100 -45 100 -100z m-18600 -306 c0 -52 -45 -94 -100 -94 -55 0 -100 70 -100 156 0 86 45 128 100 94 55 -34 100 -104 100 -156z m15066 -119 c-28 -69 -50 -12 -50 125 0 138 22 194 50 125 28 -69 28 -181 0 -250z m1234 -325 c0 -247 -45 -450 -100 -450 -55 0 -100 203 -100 450 0 248 45 450 100 450 55 0 100 -202 100 -450z m1228 -450 c52 -800 46 -833 -95 -565 -112 213 -133 437 -81 881 38 328 81 582 95 565 14 -17 51 -413 81 -881z m2572 -17 c0 -1116 -79 -1140 -106 -31 -21 878 -17 948 56 948 28 0 50 -412 50 -917z m-22250 717 c37 -60 -82 -100 -294 -100 -196 0 -356 45 -356 100 0 55 132 100 294 100 162 0 322 -45 356 -100z m20950 -350 c0 -287 -117 -319 -343 -93 -226 226 -194 343 93 343 200 0 250 -50 250 -250z m-19900 -50 c0 -147 -67 -200 -250 -200 -235 0 -335 182 -183 333 149 150 433 62 433 -133z m10935 -147 c31 -81 13 -173 -39 -206 -53 -32 -96 -37 -96 -11 0 26 -27 119 -61 206 -33 87 -15 158 40 158 55 0 125 -66 156 -147z m5925 -808 c-147 -146 -160 -114 -155 373 l5 532 155 -372 c140 -339 140 -388 -5 -533z m3092 -131 c-53 -560 -102 -601 -242 -200 -76 218 -80 356 -11 425 55 55 102 193 103 306 1 168 18 178 96 55 52 -82 76 -346 54 -586z m-19138 277 c-345 -279 -475 -234 -145 50 155 133 304 219 331 192 28 -28 -56 -136 -186 -242z m10035 207 c-35 -56 -105 -75 -156 -44 -139 86 -113 146 63 146 86 0 128 -46 93 -102z m6311 -671 c-33 -33 -56 26 -52 131 5 117 28 141 60 61 29 -72 26 -159 -8 -192z m1979 -277 c49 -219 40 -260 -34 -150 -56 83 -103 236 -103 342 -3 256 55 176 137 -192z m-473 -471 c-66 -41 -143 1 -178 100 -94 257 13 358 163 153 99 -135 103 -199 15 -253z m-18916 221 c-34 -55 -82 -100 -106 -100 -24 0 -44 45 -44 100 0 55 48 100 106 100 58 0 78 -45 44 -100z m17850 -717 c0 -394 -33 -683 -73 -643 -97 97 -99 1360 -2 1360 41 0 75 -323 75 -717z m1560 344 c-33 -33 -56 26 -52 131 5 117 28 141 60 61 29 -72 26 -159 -8 -192z m638 -152 c1 -96 -43 -175 -98 -175 -55 0 -99 146 -98 325 1 247 24 289 98 175 53 -82 98 -229 98 -325z m900 -508 c2 -423 -32 -572 -123 -542 -69 23 -122 139 -118 258 35 1056 50 1161 143 1017 53 -82 98 -412 98 -733z m-11598 377 c0 -24 -45 -44 -100 -44 -55 0 -100 48 -100 106 0 58 45 78 100 44 55 -34 100 -82 100 -106z m9669 -507 c34 -90 10 -247 -53 -349 -259 -414 -113 -657 358 -596 75 10 116 -84 103 -238 -24 -299 -312 -347 -470 -79 -90 153 -116 156 -204 25 -71 -107 -100 51 -101 558 -1 390 28 739 65 775 113 114 236 74 302 -96z m-20069 -237 c0 -55 -45 -100 -100 -100 -55 0 -100 45 -100 100 0 55 45 100 100 100 55 0 100 -45 100 -100z m19298 -619 c1 -258 -46 -499 -105 -535 -151 -94 -155 -68 -112 644 44 737 215 651 217 -109z m1122 299 c-93 -93 -120 -67 -120 120 0 187 27 213 120 120 93 -93 93 -147 0 -240z m879 -81 c47 76 94 -59 116 -336 20 -255 2 -463 -39 -463 -42 0 -76 135 -76 300 0 319 -85 375 -278 182 -184 -184 -253 -29 -175 388 l71 380 152 -289 c107 -205 174 -252 229 -162z m-21117 -49 c-63 -138 -133 -232 -156 -209 -47 47 156 459 225 459 25 0 -7 -113 -69 -250z m18444 -361 c-27 -104 -89 -189 -138 -189 -103 0 -120 435 -20 535 105 104 214 -134 158 -346z m3395 -157 c-76 -399 -178 -253 -135 193 30 306 61 371 111 232 37 -106 48 -298 24 -425z m-22974 318 c-2 -55 -241 -163 -531 -241 -478 -128 -543 -125 -696 29 -149 149 -152 181 -20 267 192 124 1251 78 1247 -55z m453 -50 c-59 -110 -152 -200 -207 -200 -64 0 -62 71 7 200 59 110 152 200 207 200 64 0 62 -71 -7 -200z m-213 -775 c-75 -96 -194 -234 -263 -308 -69 -73 -102 -171 -73 -218 29 -47 7 -113 -49 -148 -202 -125 -96 241 157 541 271 322 466 436 228 133z m17979 -150 c-28 -69 -50 -12 -50 125 0 138 22 194 50 125 28 -69 28 -181 0 -250z m3701 168 c33 -87 5 -325 -63 -529 -109 -333 -99 -412 101 -749 193 -328 205 -409 94 -617 -93 -174 -108 -442 -53 -969 41 -401 86 -841 98 -979 13 -137 49 -317 81 -400 112 -287 152 -975 65 -1112 -60 -95 -87 -39 -88 183 -1 177 -82 402 -180 500 -413 416 -432 479 -264 883 163 390 159 1093 -18 3171 -48 560 -34 775 50 775 64 0 143 -71 177 -157z m-1001 -770 c-28 -68 -49 12 -47 177 3 165 25 220 50 123 26 -97 24 -232 -3 -300z m-1345 -273 c-24 -165 -61 -300 -82 -300 -22 0 -39 135 -39 300 0 165 37 300 83 300 45 0 63 -135 38 -300z m-19628 -356 l-202 -494 50 384 c44 345 235 723 321 638 18 -19 -58 -256 -169 -528z m23099 -1269 c4 -206 -31 -375 -78 -375 -106 0 -215 859 -204 1600 l9 550 133 -700 c73 -385 136 -869 140 -1075z m-2448 1181 c-37 -201 -91 -343 -118 -315 -28 27 -19 214 18 415 38 200 91 342 119 314 27 -27 19 -214 -19 -414z m922 -681 c-25 -344 -95 -737 -158 -875 -107 -235 -110 -230 -61 88 29 185 54 658 56 1050 2 532 29 668 105 537 56 -96 82 -456 58 -800z m-1585 471 c-18 -458 -181 -565 -181 -119 0 296 61 473 164 473 16 0 24 -159 17 -354z m2388 -121 c-25 -96 -46 -17 -46 175 0 193 21 271 46 175 25 -96 25 -254 0 -350z m-3669 -175 c0 -82 -44 -150 -97 -150 -53 0 -71 68 -39 150 31 83 75 150 97 150 21 0 39 -67 39 -150z m-18800 -100 c0 -82 -45 -150 -100 -150 -55 0 -100 68 -100 150 0 83 45 150 100 150 55 0 100 -67 100 -150z m-150 -550 c-34 -55 -82 -100 -106 -100 -24 0 -44 45 -44 100 0 55 48 100 106 100 58 0 78 -45 44 -100z m21289 -58 c87 -227 75 -1442 -14 -1440 -41 0 -135 39 -209 86 -110 70 -111 122 -6 290 104 167 103 279 -4 603 -125 380 -91 619 89 619 46 0 111 -71 144 -158z m-21639 -642 c0 -111 -67 -200 -150 -200 -181 0 -193 117 -30 280 161 161 180 153 180 -80z m21100 -145 c0 -74 -67 -160 -150 -191 -160 -62 -187 23 -90 277 69 179 240 117 240 -86z m2900 39 c0 -52 -67 -94 -150 -94 -155 0 -199 118 -86 231 80 80 236 -11 236 -137z m-24300 -532 c0 -76 -68 -194 -150 -262 -159 -132 -195 -34 -89 242 74 194 239 208 239 20z m21544 -1838 c-61 -142 -89 -118 -148 126 -98 407 -109 1145 -21 1450 52 182 95 26 158 -576 48 -455 53 -905 11 -1000z m-21344 1576 c0 -55 -45 -100 -100 -100 -55 0 -100 45 -100 100 0 55 45 100 100 100 55 0 100 -45 100 -100z m20585 -530 c-7 -121 40 -350 104 -509 130 -322 107 -392 -103 -311 -96 37 -151 238 -166 610 -15 350 13 531 77 492 55 -34 94 -161 88 -282z m1215 186 c0 -79 -45 -172 -100 -206 -55 -34 -100 31 -100 144 0 113 45 206 100 206 55 0 100 -65 100 -144z m1707 -789 c-130 -130 -141 55 -32 546 l75 337 32 -388 c17 -214 -16 -436 -75 -495z m-16509 208 c-1 -182 -20 -196 -98 -75 -125 194 -125 300 0 300 55 0 99 -101 98 -225z m15730 -100 c25 -69 -2 -215 -60 -325 -102 -192 -108 -190 -171 50 -36 138 -47 284 -25 325 62 117 207 88 256 -50z m1143 -500 c-24 -124 -44 -22 -44 225 0 248 20 349 44 225 23 -124 23 -326 0 -450z m-1892 -1584 c16 -1578 -77 -2050 -178 -908 -42 466 -91 585 -276 666 -291 127 -284 228 25 369 234 107 250 162 250 854 0 407 37 717 81 690 45 -28 89 -780 98 -1671z m-14461 387 c-71 -71 -118 -77 -118 -15 0 134 118 252 185 185 28 -28 -2 -105 -67 -170z m15382 -582 c0 -129 -68 -196 -200 -196 -156 0 -200 67 -200 304 0 272 20 292 200 196 110 -59 200 -195 200 -304z m-15108 129 c-10 -237 -275 -914 -283 -725 -14 309 120 900 204 900 48 0 84 -79 79 -175z m10621 -152 c-167 -167 -261 -1 -106 186 94 112 148 126 176 43 22 -66 -10 -169 -70 -229z m-10215 52 c0 -41 -45 -142 -98 -225 -78 -121 -97 -107 -98 75 -1 124 43 225 98 225 55 0 99 -34 98 -75z m431 -527 c-63 -240 -229 -367 -229 -174 0 112 183 376 261 376 11 0 -3 -91 -32 -202z m13931 -71 c-33 -33 -56 26 -52 131 5 117 28 141 60 61 29 -72 26 -159 -8 -192z m-14594 -252 c-28 -69 -50 -12 -50 125 0 138 22 194 50 125 28 -69 28 -181 0 -250z m252 103 c-71 -71 -118 -77 -118 -15 0 134 118 252 185 185 28 -28 -2 -105 -67 -170z m15142 -51 c-33 -33 -56 26 -52 131 5 117 28 141 60 61 29 -72 26 -159 -8 -192z m-16300 -200 c-33 -33 -56 26 -52 131 5 117 28 141 60 61 29 -72 26 -159 -8 -192z m7506 -52 c-28 -69 -50 -12 -50 125 0 138 22 194 50 125 28 -69 28 -181 0 -250z m-6841 9 c-39 -147 -20 -193 59 -144 175 108 142 -215 -56 -550 -241 -408 -361 -362 -180 70 129 309 130 353 6 306 -153 -59 -113 168 74 409 138 178 161 156 97 -91z m-6999 -659 c-29 -399 -81 -725 -114 -725 -68 0 -35 911 46 1287 92 425 122 178 68 -562z m22083 595 c92 20 129 -39 106 -170 -18 -110 -56 -222 -83 -250 -72 -74 -332 314 -330 494 1 121 20 127 84 26 45 -72 146 -117 223 -100z m-7209 -290 c0 -39 -201 -484 -447 -989 -358 -736 -571 -1032 -1075 -1490 -731 -667 -1777 -1395 -2628 -1830 -330 -169 -870 -532 -1199 -806 -330 -275 -617 -483 -638 -462 -72 72 805 1047 941 1047 75 0 172 59 216 130 44 72 240 228 437 347 196 119 443 318 550 443 192 225 192 226 -7 83 -110 -79 -301 -232 -424 -340 -123 -108 -313 -203 -421 -211 -200 -15 -1405 -1092 -1405 -1256 0 -152 -351 -288 -503 -194 -116 72 -99 133 98 343 132 140 300 255 372 255 73 0 133 48 133 106 0 122 42 141 -783 -352 -410 -245 -667 -344 -730 -281 -63 63 -10 155 151 260 562 368 981 567 1195 567 132 0 388 166 617 400 215 220 344 400 288 400 -57 0 -208 -111 -335 -247 -128 -136 -271 -223 -317 -194 -47 29 -502 -191 -1011 -490 -1727 -1013 -1847 -794 -209 380 541 388 985 750 986 803 2 154 150 348 265 348 57 0 78 -67 47 -150 -32 -82 -14 -150 39 -150 53 0 97 45 97 100 0 55 68 100 150 100 181 0 200 -166 25 -228 -69 -25 -93 -79 -55 -120 39 -42 143 -3 232 86 204 203 448 210 448 12 0 -186 94 -186 340 0 104 79 228 120 276 90 47 -29 206 41 352 156 186 147 288 175 337 95 104 -168 315 -22 1138 789 581 572 776 846 1004 1412 274 680 451 828 455 377 1 -177 19 -190 96 -69 52 83 153 150 223 150 71 0 197 145 279 323 131 282 400 454 400 257z m-7400 -287 c0 -31 -209 -312 -465 -625 -514 -628 -524 -610 -85 158 165 288 356 524 425 524 69 0 125 -26 125 -57z m13784 -568 l-17 -625 -60 550 c-34 303 -46 584 -28 625 86 197 120 22 105 -550z m-13995 -437 c-323 -332 -489 -419 -489 -254 0 46 169 300 375 566 337 433 378 459 408 255 23 -152 -76 -341 -294 -567z m8447 412 c-31 -82 -98 -150 -147 -150 -49 0 -89 68 -89 150 0 83 66 150 147 150 89 0 124 -59 89 -150z m7364 -500 c0 -302 -45 -550 -100 -550 -114 0 -129 328 -37 788 92 460 137 382 137 -238z m-23383 -373 c-89 -89 -115 -35 -110 228 6 324 13 331 117 117 81 -169 79 -259 -7 -345z m11483 320 c0 -229 -219 -350 -464 -256 -149 58 -147 81 16 261 231 256 448 253 448 -5z m-4844 -467 c-100 -261 -172 -76 -90 233 55 212 85 239 113 106 21 -99 11 -252 -23 -339z m1509 87 c-188 -208 -220 -363 -54 -260 120 74 306 -148 229 -273 -57 -93 -540 114 -540 231 0 121 329 485 438 485 51 0 19 -82 -73 -183z m-8453 -284 c-87 -150 -106 -155 -109 -25 -3 169 102 320 173 250 23 -24 -5 -125 -64 -225z m7688 179 c0 -110 -450 -412 -614 -412 -66 0 -15 113 114 250 232 247 500 333 500 162z m7800 0 c0 -128 -294 -351 -367 -279 -72 73 151 367 279 367 49 0 88 -39 88 -88z m-15162 -287 c-94 -393 -138 -406 -138 -42 0 175 46 317 102 317 60 0 75 -112 36 -275z m10911 176 c35 -57 -5 -73 -94 -39 -173 66 -205 138 -61 138 52 0 122 -44 155 -99z m-3699 -464 c-220 -196 -528 -447 -684 -559 l-283 -204 33 235 c24 163 203 333 584 554 724 419 842 410 350 -26z m3650 171 c0 -99 -607 -708 -706 -708 -203 0 -161 194 114 528 184 224 355 341 446 307 80 -31 146 -88 146 -127z m-2200 -84 c0 -117 -495 -624 -610 -624 -125 0 -30 178 249 469 218 226 361 288 361 155z m6000 -24 c0 -55 -48 -100 -106 -100 -58 0 -78 45 -44 100 34 55 82 100 106 100 24 0 44 -45 44 -100z m7688 -325 c-11 -234 17 -510 62 -614 61 -140 46 -176 -59 -141 -99 33 -141 215 -142 613 0 312 36 567 79 567 44 0 71 -191 60 -425z m-23028 65 c-36 -93 -87 -146 -115 -119 -27 28 -21 126 15 219 36 93 87 146 115 119 27 -28 21 -126 -15 -219z m8740 135 c0 -41 -49 -75 -109 -75 -61 0 -491 -275 -956 -611 -815 -588 -1054 -683 -864 -345 163 291 1432 1135 1686 1120 134 -8 243 -48 243 -89z m15123 -400 c20 -206 1 -375 -43 -375 -44 0 -76 214 -72 475 9 523 57 481 115 -100z m-1393 -200 c32 -208 16 -375 -36 -375 -52 0 -94 188 -94 417 0 493 49 477 130 -42z m-7681 -229 c-133 -273 -244 -445 -246 -383 -4 139 252 759 355 862 161 160 124 -4 -109 -479z m-6256 221 c-284 -242 -1697 -1167 -1781 -1167 -62 0 -112 -66 -112 -147 0 -179 465 72 1300 700 303 228 671 493 818 588 268 173 268 173 200 -73 -63 -230 -807 -808 -1993 -1551 -238 -148 -425 -343 -425 -441 0 -97 -45 -176 -100 -176 -55 0 -100 -85 -100 -189 0 -104 -67 -216 -150 -247 -170 -65 -193 56 -60 312 50 96 135 527 190 959 54 431 155 836 222 900 97 90 110 56 59 -160 -36 -151 -45 -275 -22 -275 24 0 441 268 927 595 545 366 920 558 977 501 52 -51 74 -109 50 -129z m1026 -127 c-18 -160 -85 -340 -150 -402 -296 -279 -2084 -1438 -2219 -1438 -82 0 -150 -42 -150 -93 0 -51 -132 -187 -293 -302 l-294 -209 144 288 c79 159 245 361 369 449 509 363 1743 1197 1999 1351 159 96 253 224 223 304 -63 168 141 433 292 380 61 -22 96 -169 79 -328z m6436 -918 c-132 -133 -162 102 -86 692 l81 636 30 -637 c17 -350 5 -661 -25 -691z m-15737 656 c-71 -71 -118 -77 -118 -15 0 134 118 252 185 185 28 -28 -2 -105 -67 -170z m442 -123 c-35 -140 -108 -255 -162 -255 -128 0 -124 164 10 415 141 263 234 165 152 -160z m12957 -546 c-257 -491 -486 -873 -508 -851 -23 23 78 261 225 530 146 269 266 582 266 695 0 156 324 517 464 517 11 0 -191 -401 -447 -891z m563 316 c-115 -261 -237 -497 -272 -525 -35 -27 -148 -242 -251 -476 -104 -234 -207 -407 -230 -385 -60 61 193 861 273 861 37 0 123 124 191 275 147 328 397 725 456 725 23 0 -52 -214 -167 -475z m791 -343 c-133 -293 -262 -597 -288 -677 -25 -80 -72 -102 -104 -50 -32 52 25 275 127 495 103 220 238 535 302 700 64 165 136 247 160 182 24 -65 -64 -358 -197 -650z m8629 612 c0 -58 -45 -78 -100 -44 -55 34 -100 82 -100 106 0 24 45 44 100 44 55 0 100 -48 100 -106z m-471 -492 c29 -111 14 -226 -33 -255 -112 -69 -324 327 -244 457 84 135 213 41 277 -202z m871 48 c0 -137 -40 -250 -89 -250 -117 0 -228 292 -155 409 109 176 244 88 244 -159z m-8593 -482 c-125 -328 -352 -368 -250 -43 38 124 117 338 174 475 98 233 107 236 141 43 21 -113 -9 -327 -65 -475z m7053 359 c-33 -33 -56 26 -52 131 5 117 28 141 60 61 29 -72 26 -159 -8 -192z m-8031 -457 c-193 -565 -318 -671 -278 -235 50 533 144 761 291 704 107 -41 105 -127 -13 -469z m-13794 177 c-31 -80 -94 -122 -141 -93 -47 29 -60 118 -29 199 31 80 94 122 141 93 47 -29 60 -118 29 -199z m10893 -293 c-73 -130 -641 -626 -1178 -1029 -236 -177 -654 -354 -709 -300 -32 33 55 134 194 225 139 91 421 324 626 517 385 363 1063 833 1123 779 19 -17 -6 -103 -56 -192z m1170 -129 c-1 -197 -26 -236 -89 -136 -70 110 -112 93 -206 -84 -66 -122 -143 -198 -172 -169 -52 51 341 664 426 664 24 0 42 -124 41 -275z m-681 -175 c-87 -193 -197 -350 -244 -350 -47 0 -69 34 -49 75 210 442 321 625 381 625 39 0 -1 -157 -88 -350z m9783 250 c0 -55 -67 -100 -150 -100 -82 0 -150 45 -150 100 0 55 68 100 150 100 83 0 150 -45 150 -100z m1325 34 c-69 -28 -125 -182 -125 -342 0 -193 -51 -292 -150 -292 -82 0 -150 67 -150 148 0 82 -124 175 -275 208 -556 122 -562 186 -25 248 745 86 877 91 725 30z m-2025 -134 c0 -55 -87 -100 -194 -100 -107 0 -222 45 -256 100 -35 57 49 100 194 100 141 0 256 -45 256 -100z m-20634 -667 c-115 -514 -266 -804 -266 -515 0 84 49 305 109 492 60 187 128 403 152 479 107 342 111 11 5 -456z m12576 131 c-65 -167 -242 -229 -242 -84 0 97 223 330 271 283 18 -19 5 -108 -29 -199z m680 -82 c-153 -153 -246 -60 -161 160 46 122 97 140 172 65 76 -76 73 -141 -11 -225z m-1562 -142 c-36 -93 -87 -146 -115 -119 -27 28 -21 126 15 219 36 93 87 146 115 119 27 -28 21 -126 -15 -219z m-4631 35 c37 -100 73 -100 179 0 72 69 246 125 384 125 l252 0 -202 -203 c-211 -210 -358 -236 -1192 -209 l-500 16 250 196 c282 221 760 264 829 75z m1519 -11 c178 -130 174 -145 -84 -314 -149 -97 -302 -145 -341 -106 -39 39 7 115 103 168 96 54 174 142 174 196 0 54 -131 1 -290 -117 -160 -118 -351 -193 -425 -168 -85 29 -5 126 215 261 414 255 410 254 648 80z m12576 -35 c-125 -24 -305 -23 -400 2 -96 25 6 45 226 44 220 -1 298 -22 174 -46z m-12074 -229 c-100 -110 -221 -200 -269 -200 -48 0 -40 90 19 200 59 110 180 200 269 200 143 0 141 -23 -19 -200z m2100 100 c-34 -55 -82 -100 -106 -100 -24 0 -44 45 -44 100 0 55 48 100 106 100 58 0 78 -45 44 -100z m-907 -89 c30 -48 -58 -110 -195 -136 -202 -38 -228 -22 -137 89 131 157 253 174 332 47z m7754 -1415 c216 -682 375 -1257 354 -1279 -22 -21 -458 -45 -970 -53 l-931 -14 26 250 26 250 -163 -225 c-246 -338 -348 -271 -184 122 169 405 186 590 45 503 -266 -164 -52 333 325 757 234 263 532 619 663 792 140 184 275 278 328 225 49 -49 265 -646 481 -1328z m2622 1236 c-72 -29 -159 -26 -192 8 -33 33 26 56 131 52 117 -5 141 -28 61 -60z m-1446 -101 c-97 -26 -232 -24 -300 3 -68 28 12 49 177 47 165 -3 220 -25 123 -50z m851 -2 c-125 -24 -305 -23 -400 2 -96 25 6 45 226 44 220 -1 298 -22 174 -46z m-19964 -402 c-101 -102 -185 51 -102 186 63 102 87 102 121 1 23 -70 15 -154 -19 -187z m21865 107 c-69 -28 -181 -28 -250 0 -69 28 -12 50 125 50 138 0 194 -22 125 -50z m-625 -134 c-197 -127 -600 -127 -600 0 0 55 169 99 375 98 279 -1 337 -26 225 -98z m-21400 -200 c82 -53 105 -97 50 -97 -55 0 -167 44 -250 97 -82 53 -105 97 -50 97 55 0 168 -44 250 -97z m20250 -100 c79 -128 -252 -128 -450 0 -117 76 -91 97 119 98 148 1 297 -43 331 -98z m1300 0 c-34 -55 -152 -100 -262 -100 -110 0 -172 45 -138 100 34 55 152 100 262 100 110 0 172 -45 138 -100z m1828 45 c-94 -94 -1178 -220 -1178 -137 0 42 56 94 125 118 201 68 1119 85 1053 19z m-1378 -359 c0 -81 246 -99 838 -62 461 29 900 13 975 -34 90 -57 -7 -87 -282 -88 -231 -1 -447 -47 -481 -103 -35 -55 -167 -82 -295 -58 -128 23 -339 -13 -469 -80 -300 -155 -1040 -87 -1203 110 -103 123 -91 176 65 290 229 167 852 186 852 25z m-6106 -871 c-70 -326 -163 -515 -252 -515 -176 0 -175 16 1 422 78 180 169 413 202 517 121 383 156 75 49 -424z m-15894 385 c0 -55 -48 -100 -106 -100 -58 0 -78 45 -44 100 34 55 82 100 106 100 24 0 44 -45 44 -100z m23719 32 c-72 -29 -159 -26 -192 8 -33 33 26 56 131 52 117 -5 141 -28 61 -60z m-23769 -358 c67 -66 0 -76 -200 -30 -165 39 -345 115 -400 170 -67 67 0 77 200 30 165 -38 345 -115 400 -170z m19750 26 c0 -55 -135 -100 -300 -100 -165 0 -300 45 -300 100 0 55 135 100 300 100 165 0 300 -45 300 -100z m-4355 -309 c-88 -170 -186 -283 -219 -250 -75 75 179 559 293 559 48 0 14 -139 -74 -309z m717 -57 c-178 -329 -208 -267 -59 123 56 149 127 246 158 216 30 -31 -15 -183 -99 -339z m4838 150 c0 -236 285 -365 1050 -474 l600 -86 -636 -12 c-545 -10 -678 24 -939 243 -166 141 -432 281 -589 313 -417 83 -350 205 114 205 325 0 400 -36 400 -189z m800 16 c0 -55 -67 -100 -150 -100 -82 0 -150 45 -150 100 0 55 68 100 150 100 83 0 150 -45 150 -100z m1899 -49 c185 -222 -155 -322 -386 -113 -99 89 -206 136 -239 103 -32 -33 -141 -12 -241 47 -148 86 -95 106 280 109 291 2 508 -52 586 -146z m-8799 -201 c-68 -82 -192 -150 -274 -150 -122 0 -127 28 -26 150 68 83 192 150 274 150 122 0 127 -28 26 -150z m4350 -50 c-34 -55 -82 -100 -106 -100 -24 0 -44 45 -44 100 0 55 48 100 106 100 58 0 78 -45 44 -100z m800 0 c35 -56 -47 -100 -188 -100 -138 0 -278 45 -312 100 -35 56 47 100 188 100 138 0 278 -45 312 -100z m-485 -631 c37 -38 11 -69 -59 -69 -71 0 -102 -65 -71 -147 83 -218 -106 -286 -223 -80 -85 148 -133 157 -302 54 -143 -87 -220 -91 -268 -14 -44 72 -264 87 -630 44 -1353 -158 -1893 -174 -2098 -64 -131 70 -774 113 -1677 113 -805 0 -1433 31 -1396 69 74 74 152 80 1509 121 687 21 829 47 600 111 -186 51 118 67 800 40 605 -24 1204 -44 1331 -45 128 -1 203 -47 169 -102 -83 -135 7 -126 330 33 148 72 473 144 720 159 248 14 463 39 479 54 40 39 703 -195 786 -277z m4235 42 c0 -134 -516 -205 -1060 -146 -271 29 -727 10 -1014 -42 -543 -99 -688 -67 -532 118 111 131 2606 198 2606 70z m-3575 -77 c-69 -28 -181 -28 -250 0 -69 28 -12 50 125 50 138 0 194 -22 125 -50z m-9325 -190 c0 -24 -70 -44 -156 -44 -86 0 -128 46 -93 102 57 92 249 48 249 -58z m11957 -256 c62 -99 -195 -126 -857 -91 -671 36 -725 146 -100 203 601 56 874 24 957 -112z m-13007 -28 c-165 -73 -321 -113 -347 -90 -80 69 235 227 447 224 152 -2 127 -35 -100 -134z m4299 -59 c35 -57 -5 -73 -94 -39 -173 66 -205 138 -61 138 52 0 122 -44 155 -99z m1451 -1 c157 -101 156 -101 -650 -149 -495 -29 -534 94 -50 159 248 33 473 66 500 73 28 8 118 -30 200 -83z m2712 10 c-76 -48 -107 -138 -69 -199 81 -131 -938 -141 -1643 -16 -476 85 -444 100 344 167 272 24 516 64 542 90 26 27 254 47 506 46 300 -1 410 -31 320 -88z m-5456 -100 c-30 -50 177 -146 461 -214 436 -105 646 -248 1342 -917 749 -719 1121 -1266 966 -1420 -32 -33 -273 -59 -535 -59 -262 0 -604 -48 -758 -107 -355 -136 -1934 -135 -3432 1 -632 57 -1662 105 -2287 105 -1008 1 -1123 18 -1011 153 164 199 64 300 -117 119 -77 -77 -239 -193 -362 -259 -326 -174 -292 55 52 351 369 317 181 303 -241 -18 -184 -140 -334 -223 -334 -185 0 39 -90 -11 -201 -111 -347 -314 -355 -58 -9 279 318 310 328 313 259 72 -57 -204 34 -149 496 300 311 303 536 471 500 375 -37 -96 -28 -174 19 -172 159 5 843 705 783 801 -32 53 -45 98 -28 99 678 77 1646 330 1869 488 161 115 385 209 497 209 112 0 231 45 265 100 34 55 467 100 962 100 508 0 876 -39 844 -90z m3144 -16 c0 -58 -45 -78 -100 -44 -55 34 -100 82 -100 106 0 24 45 44 100 44 55 0 100 -48 100 -106z m-7400 -176 c0 -97 -1489 -462 -1567 -385 -29 30 129 103 353 163 223 60 433 153 466 207 72 117 748 131 748 15z m10900 -24 c0 -58 -45 -78 -100 -44 -55 34 -100 82 -100 106 0 24 45 44 100 44 55 0 100 -48 100 -106z m-3450 -94 c144 -62 36 -88 -381 -93 -363 -4 -558 30 -519 93 74 120 621 120 900 0z m3208 -100 c243 0 442 -45 442 -100 0 -55 11 -134 25 -175 14 -41 -87 -79 -225 -84 -137 -4 -767 -44 -1400 -89 -2337 -163 -3080 -127 -3256 157 -100 163 -43 169 751 81 409 -45 792 -44 850 3 58 46 443 113 855 147 1174 100 1290 116 1370 197 42 41 92 28 111 -31 20 -58 234 -106 477 -106z m1542 -239 c0 -80 -714 -119 -762 -42 -27 45 133 81 356 81 223 0 406 -18 406 -39z m-13200 -441 c0 -133 -732 -775 -1025 -899 -347 -147 -349 -59 -6 299 147 154 219 280 158 280 -152 0 -739 -632 -952 -1025 -172 -316 -175 -317 -175 -64 0 160 133 396 350 619 193 198 350 406 350 463 0 57 124 129 275 160 151 31 410 95 575 142 408 115 450 117 450 25z m600 34 c0 -26 -101 -101 -225 -167 -204 -109 -212 -104 -88 47 128 155 313 225 313 120z m9550 -55 c0 -8 312 -35 694 -59 747 -49 811 -70 710 -233 -73 -119 -1285 -143 -2237 -43 -637 67 -757 236 -167 236 186 0 364 42 396 93 44 71 604 77 604 6z m-16890 -272 c-33 -33 -56 26 -52 131 5 117 28 141 60 61 29 -72 26 -159 -8 -192z m4946 -394 c-226 -256 -437 -571 -469 -700 -32 -128 -118 -233 -191 -233 -380 0 496 1373 887 1392 143 6 92 -96 -227 -459z m-1642 -129 c-255 -272 -464 -565 -464 -650 0 -85 -67 -154 -150 -154 -283 0 -193 160 600 1068 110 125 262 229 339 230 76 1 -70 -221 -325 -494z m1284 357 c-104 -76 -243 -118 -308 -93 -167 64 -843 -555 -1001 -916 l-131 -302 -4 315 c-5 435 783 1126 1290 1132 318 3 330 -8 154 -136z m-1560 -136 c-562 -719 -848 -1025 -959 -1025 -207 0 -153 136 244 607 429 510 525 589 714 591 116 2 116 -25 1 -173z m-1434 -298 c-140 -205 -254 -453 -254 -550 0 -97 -60 -177 -133 -177 -114 0 -135 139 -75 501 17 109 521 599 616 599 54 0 -15 -168 -154 -373z m681 48 c-168 -179 -379 -436 -470 -572 l-165 -248 0 292 c0 345 440 853 738 853 180 0 169 -34 -103 -325z m17038 256 c-97 -26 -232 -24 -300 3 -68 28 12 49 177 47 165 -3 220 -25 123 -50z m-18673 -83 c0 -29 -115 -226 -256 -439 -189 -286 -307 -374 -450 -336 -247 64 -245 73 68 484 144 189 346 343 450 343 103 0 188 -23 188 -52z m407 -238 c-114 -160 -207 -381 -207 -491 0 -151 -49 -187 -200 -148 -244 64 -248 116 -28 432 276 398 370 489 510 493 91 3 68 -86 -75 -286z m3193 109 c0 -44 -66 -168 -147 -275 -81 -107 -148 -270 -150 -362 -3 -162 -364 -354 -469 -250 -68 69 144 467 396 743 208 228 370 291 370 144z m12587 -31 c187 16 373 -24 414 -89 55 -89 126 -91 280 -9 249 133 1910 144 2116 14 304 -193 -57 -254 -1481 -252 -1011 2 -1569 46 -1798 140 -228 95 -292 162 -205 216 70 43 174 50 231 15 57 -35 256 -51 443 -35z m-1131 -135 c167 -126 171 -147 27 -150 -256 -5 -488 108 -427 207 78 126 176 112 400 -57z m5564 -373 c-93 -93 -147 -93 -240 0 -93 93 -67 120 120 120 187 0 213 -27 120 -120z m-4770 -181 c1109 -173 1191 -198 1074 -315 -101 -101 -1600 36 -1976 181 -215 82 -189 361 27 296 96 -29 490 -102 875 -162z m6600 101 c37 -60 -97 -100 -338 -100 -220 0 -428 45 -462 100 -37 60 97 100 338 100 220 0 428 -45 462 -100z m-3897 -192 c-58 -181 165 -344 412 -300 221 40 435 -19 435 -119 0 -119 -61 -109 -1324 227 -426 113 -750 246 -719 295 30 49 325 89 656 89 547 0 595 -17 540 -192z m-9553 -233 c578 -63 1804 -116 2725 -118 1587 -4 1902 -47 1500 -204 -214 -83 -5802 -79 -5937 4 -173 107 -1584 205 -1615 113 -74 -222 -2673 -198 -2673 25 0 73 299 112 1879 240 314 25 452 -8 519 -125 82 -146 102 -145 221 7 72 91 221 187 331 211 271 62 1768 -13 3050 -153z m12600 -136 c0 -109 -213 -139 -1000 -139 -550 0 -1000 24 -1000 53 0 132 513 226 1225 225 595 0 775 -33 775 -139z m-7381 -7 c-72 -29 -159 -26 -192 8 -33 33 26 56 131 52 117 -5 141 -28 61 -60z m81 -382 c0 -82 -73 -150 -162 -150 -133 0 -140 27 -38 150 68 83 141 150 162 150 21 0 38 -67 38 -150z m800 50 c0 -55 -146 -99 -325 -98 -247 1 -289 24 -175 98 197 127 500 127 500 0z m-11376 -71 c-125 -24 -305 -23 -400 2 -96 25 6 45 226 44 220 -1 298 -22 174 -46z m11895 3 c-72 -29 -159 -26 -192 8 -33 33 26 56 131 52 117 -5 141 -28 61 -60z m2306 -398 c-69 -28 -181 -28 -250 0 -69 28 -12 50 125 50 138 0 194 -22 125 -50z m-575 -133 c329 -54 614 -144 633 -200 18 -55 164 -101 322 -101 368 0 301 -256 -87 -331 -293 -56 -2096 105 -2251 201 -53 33 -427 50 -832 38 -516 -15 -735 15 -735 99 0 83 130 102 423 63 259 -35 541 -5 725 77 636 284 879 305 1802 154z m-3200 -485 c-36 -146 -74 -274 -84 -284 -10 -10 -468 -16 -1017 -15 -2906 10 -3955 6 -4499 -19 -330 -15 -896 7 -1259 50 -489 57 -826 35 -1307 -86 -368 -92 -860 -143 -1136 -117 -269 25 -535 7 -593 -40 -58 -47 -217 -101 -354 -120 -148 -21 -264 -112 -285 -225 -29 -148 3 -174 149 -118 102 39 554 119 1005 177 854 111 1873 21 2480 -218 344 -136 1672 -162 1868 -38 73 46 1023 73 2113 60 1151 -13 1958 15 1925 67 -31 51 -1228 75 -2758 56 -1486 -18 -2680 2 -2653 46 63 101 1724 256 2505 232 330 -10 1136 -20 1791 -22 713 -3 1245 -48 1324 -114 73 -61 203 -83 288 -51 140 54 141 38 6 -155 -136 -194 -252 -216 -1230 -236 -770 -15 -1194 -71 -1479 -195 -335 -147 -577 -165 -1484 -113 -596 35 -1193 90 -1326 123 -133 34 -680 10 -1216 -53 -1496 -174 -2222 -185 -3232 -47 -626 86 -987 95 -1113 28 -160 -86 -1479 -110 -1479 -27 0 89 899 538 1078 538 116 0 238 45 272 100 34 55 257 100 495 100 293 0 452 49 491 150 32 83 140 150 241 150 101 0 226 39 278 86 107 96 1840 278 3495 366 1646 88 2595 163 2642 208 23 23 961 36 2084 31 l2041 -10 -67 -265z m7775 218 c-69 -28 -181 -28 -250 0 -69 28 -12 50 125 50 138 0 194 -22 125 -50z m-7475 -434 c-34 -55 -82 -100 -106 -100 -24 0 -44 45 -44 100 0 55 48 100 106 100 58 0 78 -45 44 -100z m6919 35 c-118 -117 -1094 -156 -1023 -41 36 58 296 106 577 106 280 0 481 -29 446 -65z m-1719 -233 c608 -105 1150 -294 1150 -400 0 -84 -349 -199 -600 -199 -122 0 -125 16 -14 86 351 223 -534 302 -1386 124 -453 -94 -1118 -101 -2183 -23 -254 19 -56 241 238 268 1405 130 1745 182 1745 267 0 57 116 70 275 31 151 -37 500 -106 775 -154z m-12269 -149 c29 -29 -191 -52 -489 -51 -380 1 -497 29 -392 96 146 92 775 60 881 -45z m7494 -161 c-119 -69 -231 -69 -350 0 -143 83 -111 102 175 102 286 0 318 -19 175 -102z m1325 8 c-198 -128 -629 -128 -550 0 34 55 205 99 381 98 243 -1 283 -24 169 -98z m-16950 -100 c-34 -55 -183 -96 -331 -90 l-269 10 250 80 c355 114 420 114 350 0z m14969 32 c-72 -29 -159 -26 -192 8 -33 33 26 56 131 52 117 -5 141 -28 61 -60z m-12819 -139 c112 -77 54 -92 -226 -59 -207 24 -522 11 -701 -29 -190 -43 -488 -22 -723 51 -383 118 -359 123 550 132 523 5 1017 -38 1100 -95z m18422 -178 c-71 -44 -101 -154 -66 -244 54 -142 1 -154 -422 -92 -675 99 -2642 89 -2884 -15 -200 -85 -200 -85 0 -168 110 -45 808 -87 1550 -93 l1350 -10 -300 -254 c-284 -239 -349 -251 -1200 -208 -557 28 -1014 107 -1200 207 -198 106 -588 166 -1150 178 -720 14 -774 26 -350 75 397 47 507 100 535 259 18 110 44 211 57 224 13 14 808 54 1766 89 958 35 1761 80 1784 100 23 20 180 36 350 35 197 -1 262 -30 180 -83z m-4947 -284 c-96 -25 -254 -25 -350 0 -96 25 -17 46 175 46 193 0 271 -21 175 -46z m-14725 -231 c34 -55 -8 -100 -94 -100 -86 0 -156 45 -156 100 0 55 42 100 94 100 52 0 122 -45 156 -100z m9900 -45 c660 0 1601 40 2091 89 669 66 873 59 819 -28 -47 -76 15 -116 184 -116 141 0 256 -45 256 -100 0 -90 -712 -155 -1425 -130 -151 5 -275 -31 -275 -80 0 -50 56 -93 125 -96 599 -28 901 -80 990 -169 109 -109 -1021 -168 -2440 -127 -1353 39 -2078 35 -4899 -25 -1581 -33 -2920 -88 -2974 -122 -55 -34 -780 -29 -1613 9 -1491 70 -1510 74 -1276 253 130 100 269 184 308 185 38 1 219 103 402 227 320 218 393 224 2229 186 2457 -51 3482 -29 4098 85 275 51 883 62 1350 25 468 -37 1390 -66 2050 -66z m5242 -491 c-111 -94 -696 -152 -641 -62 33 54 201 98 372 98 170 0 292 -16 269 -36z m1858 -258 l400 -83 -450 -10 c-247 -5 -517 34 -600 87 -124 80 -115 96 50 93 110 -3 380 -42 600 -87z m-1050 -106 c0 -55 -157 -100 -350 -100 -192 0 -350 45 -350 100 0 55 158 100 350 100 193 0 350 -45 350 -100z m4900 0 c0 -60 -400 -100 -1000 -100 -600 0 -1000 40 -1000 100 0 60 400 100 1000 100 600 0 1000 -40 1000 -100z m819 -68 c-72 -29 -159 -26 -192 8 -33 33 26 56 131 52 117 -5 141 -28 61 -60z m-5360 -318 c-76 -122 -919 -224 -1132 -137 -126 52 -47 90 273 133 714 95 916 96 859 4z m2141 -39 c0 -41 -273 -75 -606 -75 -333 0 -585 34 -559 75 25 41 298 75 605 75 308 0 560 -34 560 -75z m-4650 -275 c38 -61 -116 -100 -394 -100 -251 0 -456 45 -456 100 0 55 177 100 394 100 217 0 422 -45 456 -100z m3831 -58 c73 -22 104 -86 69 -141 -71 -117 -854 -130 -1650 -30 l-550 70 500 116 c446 103 1275 96 1631 -15z m-2957 -113 c-125 -24 -305 -23 -400 2 -96 25 6 45 226 44 220 -1 298 -22 174 -46z m-3824 -329 c146 -47 -439 -78 -1400 -76 -983 3 -1488 33 -1250 76 548 98 2344 98 2650 0z m1175 -25 c-23 -69 -72 -114 -108 -100 -37 14 -135 25 -217 25 -82 0 -150 45 -150 100 0 55 116 100 258 100 163 0 243 -47 217 -125z m5547 -104 c95 -18 207 -69 250 -115 43 -45 -777 -53 -1822 -18 -1083 36 -2179 22 -2549 -33 -414 -62 -684 -62 -745 -1 -61 61 -7 97 149 98 135 0 313 49 395 107 133 93 3785 62 4322 -38z m1353 57 c-151 -23 -399 -23 -550 0 -151 23 -27 42 275 42 303 0 426 -19 275 -42z m-12000 -97 c-96 -25 -254 -25 -350 0 -96 25 -17 46 175 46 193 0 271 -21 175 -46z m4669 -622 c88 -141 -1296 -346 -1513 -224 -151 85 -156 110 -31 154 414 145 1469 193 1544 70z m5482 -459 c46 -82 48 -157 4 -166 -290 -56 -696 -47 -780 18 -55 42 -561 69 -1123 58 -594 -11 -1037 21 -1056 78 -20 60 -87 63 -177 5 -270 -172 -994 -129 -994 59 0 113 886 154 2646 123 1119 -20 1413 -55 1480 -175z m-6042 -38 c172 -109 -309 -213 -614 -133 -203 53 -203 57 -15 131 264 103 469 104 629 2z m-4624 -85 c-40 -40 -503 -80 -1030 -89 -579 -10 -902 18 -818 71 166 106 1953 123 1848 18z m2214 -51 c-32 -90 -282 -121 -872 -109 -1177 25 -1212 191 -45 216 737 15 950 -10 917 -107z m5345 -220 c588 3 1047 -30 1019 -75 -27 -44 -1202 -81 -2611 -81 -2483 0 -3164 85 -1694 212 394 34 1055 34 1467 0 413 -34 1231 -59 1819 -56z m4706 78 c-69 -28 -181 -28 -250 0 -69 28 -12 50 125 50 138 0 194 -22 125 -50z m-14105 -244 c37 -111 940 -146 1258 -49 95 29 397 17 672 -27 497 -79 495 -80 -400 -154 -1669 -139 -1696 -137 -1732 115 -32 226 133 321 202 115z m399 42 c-72 -29 -159 -26 -192 8 -33 33 26 56 131 52 117 -5 141 -28 61 -60z m-1575 -179 c-218 -164 -1297 -210 -1390 -59 -56 90 326 150 1190 189 367 16 381 7 200 -130z m9582 -223 c-123 -24 -348 -25 -500 -2 -152 23 -51 43 224 43 275 1 399 -18 276 -41z"/>
<path d="M5500 50913 c0 -220 132 -713 190 -713 36 0 48 180 27 400 -21 220 -78 400 -128 400 -49 0 -89 -39 -89 -87z"/>
<path d="M14000 48450 c0 -27 11 -76 25 -107 14 -31 -54 -101 -150 -155 -210 -117 -233 -388 -33 -388 251 0 458 118 458 261 0 76 90 139 200 139 238 0 265 154 42 239 -191 74 -542 81 -542 11z"/>
<path d="M15186 48207 c-223 -182 -226 -196 -47 -266 127 -49 230 -18 311 93 67 91 173 166 236 166 63 0 114 45 114 100 0 167 -363 112 -614 -93z"/>
<path d="M12126 48005 c-179 -287 -6 -325 204 -45 129 173 143 240 49 240 -72 0 -186 -88 -253 -195z"/>
<path d="M15700 48005 c0 -147 308 -284 516 -230 147 39 163 79 74 187 -129 156 -590 189 -590 43z"/>
<path d="M14700 46500 c0 -55 45 -100 100 -100 55 0 100 45 100 100 0 55 -45 100 -100 100 -55 0 -100 -45 -100 -100z"/>
<path d="M13725 46325 c-179 -88 -325 -198 -325 -243 0 -45 14 -82 31 -82 81 0 869 410 869 452 0 90 -250 35 -575 -127z"/>
<path d="M15775 46431 c-169 -44 -234 -238 -119 -353 117 -118 444 54 444 234 0 192 -19 199 -325 119z"/>
<path d="M16003 45457 c-125 -329 -127 -357 -15 -357 90 0 227 517 156 589 -21 21 -85 -83 -141 -232z"/>
<path d="M17100 45494 c0 -175 27 -196 139 -103 77 64 178 103 225 88 48 -16 109 16 136 71 28 55 -74 114 -225 132 -226 26 -275 -8 -275 -188z"/>
<path d="M16425 45304 c-271 -344 -282 -417 -50 -337 213 74 425 324 425 502 0 203 -129 146 -375 -165z"/>
<path d="M14502 45419 c3 -155 160 -281 348 -281 110 0 324 -31 475 -71 308 -79 379 73 100 216 -235 120 -925 222 -923 136z"/>
<path d="M17928 45230 c-83 -218 48 -273 335 -142 285 130 254 240 -74 265 -114 8 -231 -47 -261 -123z"/>
<path d="M16750 44900 c-34 -55 -14 -100 44 -100 58 0 106 -66 106 -146 0 -81 93 -197 207 -258 176 -94 216 -79 262 97 30 114 89 207 131 207 42 0 101 -93 131 -207 46 -176 86 -191 262 -97 114 61 207 150 207 197 0 118 -479 227 -697 158 -109 -35 -202 3 -238 96 -66 172 -321 205 -415 53z"/>
<path d="M15650 43500 c-34 -55 -14 -100 44 -100 58 0 106 45 106 100 0 55 -20 100 -44 100 -24 0 -72 -45 -106 -100z"/>
<path d="M12200 43100 c0 -55 115 -100 256 -100 145 0 229 43 194 100 -34 55 -149 100 -256 100 -107 0 -194 -45 -194 -100z"/>
<path d="M15744 42958 c-106 -78 -167 -168 -135 -200 32 -33 141 31 240 141 213 235 169 260 -105 59z"/>
<path d="M14236 42650 c32 -82 8 -150 -53 -150 -145 0 -377 -309 -376 -500 1 -90 120 -11 297 196 304 356 380 604 185 604 -61 0 -84 -67 -53 -150z"/>
<path d="M14746 42593 c-108 -174 15 -211 152 -45 79 95 86 152 20 152 -58 0 -136 -48 -172 -107z"/>
<path d="M11767 41933 c-115 -115 -73 -233 83 -233 83 0 150 68 150 150 0 156 -118 198 -233 83z"/>
<path d="M11500 41500 c0 -55 45 -100 100 -100 55 0 100 45 100 100 0 55 -45 100 -100 100 -55 0 -100 -45 -100 -100z"/>
<path d="M14259 40150 c-148 -137 -312 -250 -363 -250 -126 0 -596 -413 -596 -524 0 -48 45 -60 100 -26 55 34 100 14 100 -44 0 -58 -45 -106 -100 -106 -55 0 -100 -53 -100 -117 0 -65 104 -20 231 100 128 119 296 218 375 219 196 3 658 368 573 452 -37 37 -205 -30 -373 -150 -168 -120 -305 -181 -303 -136 2 45 204 204 450 353 246 149 447 318 447 375 0 171 -154 119 -441 -146z"/>
<path d="M9560 39839 c-46 -118 -20 -145 97 -100 88 33 178 61 201 61 23 0 42 45 42 100 0 163 -273 114 -340 -61z"/>
<path d="M11945 35250 c156 -874 1085 -2800 1351 -2800 214 0 234 219 25 273 -229 60 -704 961 -1068 2027 -313 916 -411 1074 -308 500z"/>
<path d="M9400 34420 c0 -149 -46 -196 -150 -156 -193 74 -190 -11 12 -318 232 -355 339 -304 308 149 -28 417 -170 689 -170 325z"/>
<path d="M9928 34175 c9 -151 51 -275 94 -275 96 0 90 90 -22 350 -75 173 -85 162 -72 -75z"/>
<path d="M11201 33625 c4 -184 129 -525 193 -525 39 0 52 135 27 300 -24 165 -84 300 -132 300 -49 0 -88 -34 -88 -75z"/>
<path d="M11454 32675 c84 -283 551 -1103 600 -1054 49 48 -540 1279 -611 1279 -31 0 -26 -101 11 -225z"/>
<path d="M10700 32138 c0 -162 278 -494 352 -419 37 37 -26 169 -142 293 -115 124 -210 181 -210 126z"/>
<path d="M11350 31800 c85 -165 202 -300 259 -300 58 0 8 135 -109 300 -117 165 -234 300 -259 300 -26 0 24 -135 109 -300z"/>
<path d="M10509 31617 c-109 -203 -55 -517 89 -517 43 0 132 66 198 146 96 115 90 190 -29 359 -149 214 -150 214 -258 12z"/>
<path d="M12064 31350 c31 -82 126 -150 209 -150 123 0 128 28 27 150 -68 83 -163 150 -209 150 -47 0 -59 -67 -27 -150z"/>
<path d="M13607 31125 c4 -41 46 -165 93 -275 76 -177 87 -169 93 75 4 151 -38 275 -93 275 -55 0 -97 -34 -93 -75z"/>
<path d="M17861 30542 c-110 -285 -64 -384 86 -186 81 107 148 228 150 269 6 140 -175 76 -236 -83z"/>
<path d="M7200 30494 c0 -54 113 -142 250 -194 138 -52 250 -136 250 -187 0 -50 69 -118 152 -150 121 -46 132 -21 56 122 -165 308 -708 622 -708 409z"/>
<path d="M13560 30300 c35 -192 148 -527 252 -744 103 -216 188 -453 188 -525 0 -72 45 -131 100 -131 116 0 134 233 26 341 -41 41 -199 374 -352 742 -190 458 -257 557 -214 317z"/>
<path d="M13914 30300 c3 -284 353 -1150 445 -1100 50 27 83 73 73 100 -132 364 -520 1113 -518 1000z"/>
<path d="M13103 30250 c0 -55 44 -167 97 -250 53 -82 97 -105 97 -50 0 55 -44 168 -97 250 -53 83 -97 105 -97 50z"/>
<path d="M8300 29756 c0 -86 45 -156 100 -156 55 0 100 42 100 94 0 52 -45 122 -100 156 -55 34 -100 -8 -100 -94z"/>
<path d="M8600 29756 c0 -86 45 -156 100 -156 55 0 100 42 100 94 0 52 -45 122 -100 156 -55 34 -100 -8 -100 -94z"/>
<path d="M8100 27325 c0 -41 94 -323 209 -625 116 -302 235 -876 265 -1275 30 -399 100 -725 154 -725 164 0 364 339 269 454 -48 57 -100 417 -117 800 -21 493 -67 689 -156 671 -69 -14 -197 155 -286 375 -140 350 -338 541 -338 325z"/>
<path d="M13848 25467 c-109 -870 -96 -1275 41 -1360 104 -65 99 -141 -29 -388 -233 -450 -14 -511 399 -111 359 349 485 653 141 342 -222 -201 -224 -195 -201 475 10 300 -26 475 -99 475 -80 0 -94 163 -46 550 45 359 33 550 -35 550 -58 0 -135 -240 -171 -533z"/>
<path d="M14598 23448 c-193 -233 -55 -277 151 -49 100 111 136 201 79 201 -57 0 -160 -69 -230 -152z"/>
<path d="M9996 22594 c-302 -424 -211 -440 187 -34 220 224 282 340 182 340 -83 0 -249 -138 -369 -306z"/>
<path d="M12818 17978 c-140 -140 -154 -278 -29 -278 92 0 243 302 182 363 -19 18 -88 -20 -153 -85z"/>
<path d="M18950 17000 c-34 -55 -14 -100 44 -100 58 0 106 45 106 100 0 55 -20 100 -44 100 -24 0 -72 -45 -106 -100z"/>
<path d="M18600 16700 c0 -55 45 -100 100 -100 55 0 100 45 100 100 0 55 -45 100 -100 100 -55 0 -100 -45 -100 -100z"/>
<path d="M18500 15906 c0 -113 45 -206 100 -206 55 0 100 65 100 144 0 79 -45 172 -100 206 -55 34 -100 -31 -100 -144z"/>
<path d="M15443 12908 c-251 -239 -870 -491 -1593 -649 -1247 -271 -3026 -736 -3850 -1005 -674 -220 -712 -246 -374 -250 207 -2 455 38 550 90 290 156 2942 884 3435 943 820 98 2171 713 1982 903 -31 31 -98 17 -150 -32z"/>
<path d="M2175 11434 c-286 -151 -388 -371 -125 -270 83 31 150 12 150 -43 0 -55 -67 -126 -150 -157 -82 -32 -150 -110 -150 -173 0 -87 34 -87 137 -2 76 63 202 90 281 59 83 -31 260 77 421 257 298 335 282 536 -21 261 -101 -91 -248 -165 -326 -163 -102 2 -93 31 33 105 173 101 245 302 100 281 -41 -5 -199 -75 -350 -155z"/>
<path d="M2950 11073 c-165 -111 -404 -330 -532 -487 l-231 -284 307 36 c169 20 426 154 570 299 145 145 325 263 400 263 75 0 136 45 136 100 0 55 -26 100 -57 100 -76 0 -775 -524 -863 -647 -38 -53 -95 -71 -127 -39 -32 32 127 225 353 430 468 422 488 529 44 229z"/>
<path d="M3376 10548 c-260 -192 -519 -348 -575 -348 -55 0 -101 -45 -101 -100 0 -55 38 -100 84 -100 96 0 1216 788 1216 856 0 106 -181 16 -624 -308z"/>
<path d="M3950 10569 c-165 -118 -357 -269 -426 -335 -69 -67 -215 -149 -325 -184 -109 -35 -199 -131 -199 -213 0 -180 89 -133 750 400 275 222 519 417 542 433 23 17 23 49 -1 72 -23 23 -176 -55 -341 -173z"/>
<path d="M4116 10249 c-387 -303 -808 -593 -935 -644 l-231 -92 256 -7 c141 -3 344 73 451 169 106 96 452 372 768 612 316 241 575 454 575 475 0 126 -262 -27 -884 -513z"/>
<path d="M1950 10500 c-34 -55 -17 -100 38 -100 55 0 128 45 162 100 34 55 17 100 -38 100 -55 0 -128 -45 -162 -100z"/>
<path d="M5750 10400 c-34 -55 -14 -100 44 -100 58 0 106 45 106 100 0 55 -20 100 -44 100 -24 0 -72 -45 -106 -100z"/>
<path d="M6600 9900 c0 -55 20 -100 44 -100 24 0 72 45 106 100 34 55 14 100 -44 100 -58 0 -106 -45 -106 -100z"/>
<path d="M16875 11034 c69 -28 181 -28 250 0 69 28 13 50 -125 50 -137 0 -194 -22 -125 -50z"/>
<path d="M15400 52094 c0 -245 40 -381 100 -344 55 34 100 217 100 406 0 189 -45 344 -100 344 -55 0 -100 -183 -100 -406z"/>
<path d="M305 48203 c-80 -49 -181 -68 -225 -40 -44 27 -80 -21 -80 -107 0 -86 56 -155 125 -154 196 2 403 164 362 283 -23 69 -90 75 -182 18z"/>
<path d="M50 35800 c-37 -60 101 -100 351 -100 227 0 503 -48 613 -108 111 -59 277 -78 369 -42 131 51 94 96 -169 207 -388 165 -1073 190 -1164 43z"/>
<path d="M2550 35487 c-1747 -166 -2550 -311 -2550 -460 0 -86 67 -121 175 -90 96 28 490 77 875 109 1719 144 2550 280 2550 417 0 75 -34 131 -75 123 -41 -7 -480 -52 -975 -99z"/>
<path d="M225 27829 c-343 -66 -283 -303 63 -252 316 46 446 -71 352 -318 -37 -95 -178 -159 -351 -159 -395 0 -380 -264 20 -323 335 -49 448 111 563 798 58 346 -17 376 -647 254z"/>
<path d="M700 22850 c0 -82 45 -150 100 -150 55 0 100 68 100 150 0 83 -45 150 -100 150 -55 0 -100 -67 -100 -150z"/>
<path d="M718 22394 c-72 -118 -105 -240 -73 -272 96 -97 276 144 239 321 -28 137 -55 129 -166 -49z"/>
<path d="M263 21145 c-154 -244 -261 -500 -237 -569 23 -69 165 115 315 409 339 665 297 752 -78 160z"/>
<path d="M254 20166 c-140 -238 -253 -542 -252 -675 2 -189 47 -145 209 209 456 990 476 1204 43 466z"/>
<path d="M8 17958 c-4 -105 19 -164 52 -131 34 33 37 120 8 192 -32 80 -55 56 -60 -61z"/>
<path d="M0 13406 c0 -58 45 -106 100 -106 55 0 100 20 100 44 0 24 -45 72 -100 106 -55 34 -100 14 -100 -44z"/>
<path d="M250 11500 c-165 -109 -264 -199 -220 -199 110 -1 670 293 670 352 0 94 -156 41 -450 -153z"/>
<path d="M275 9443 c-151 -82 -275 -195 -275 -250 0 -110 210 -15 550 246 255 197 85 199 -275 4z"/>
<path d="M616 8756 c-128 -189 -215 -425 -193 -525 31 -135 81 -90 199 182 87 199 207 393 268 431 60 37 110 110 110 162 0 187 -155 86 -384 -250z"/>
<path d="M999 8575 c-292 -479 -242 -567 97 -171 314 368 367 496 203 496 -56 0 -191 -146 -300 -325z"/>
<path d="M18050 100 c-36 -58 68 -100 250 -100 182 0 286 42 250 100 -80 129 -420 129 -500 0z"/>
<path d="M21050 91 c-275 -33 153 -59 950 -59 1419 0 1497 35 200 90 -357 16 -875 1 -1150 -31z"/>
</g>
</svg>