<svg xmlns="http://www.w3.org/2000/svg" version="1.0" width="250" height="525" viewBox="0 0 250.000000 525.000000" preserveAspectRatio="xMidYMid meet">
<metadata>
Created by potrace 1.10, written by Peter Selinger 2001-2011
</metadata>
<g transform="translate(0.000000,525.000000) scale(0.010000,-0.010000)" fill="#555555" stroke="none">
<path d="M124 52375 c-55 -69 -100 -320 -99 -558 l2 -433 312 333 c171 184 397 435 501 559 l191 224 -403 0 c-222 0 -449 -56 -504 -125z m376 -110 c0 -18 -101 -120 -225 -225 l-225 -190 190 225 c180 211 260 271 260 190z"/>
<path d="M1112 52175 c-932 -1033 -1112 -1265 -1112 -1429 0 -159 32 -152 267 62 l267 242 -192 -272 c-106 -149 -226 -273 -267 -275 -41 -2 -75 -212 -75 -468 0 -434 12 -456 175 -317 96 82 389 247 650 366 287 131 480 286 487 392 6 95 46 39 88 -126 142 -557 119 -650 -160 -650 -424 0 -1240 -510 -1240 -775 0 -276 44 -279 403 -23 381 271 1090 514 1303 446 338 -107 832 241 1044 735 164 384 194 641 168 1442 -29 886 -49 975 -225 975 -204 0 -231 -163 -195 -1214 18 -519 -149 -1244 -307 -1342 -58 -35 -169 19 -249 121 -148 190 -143 1228 11 2060 56 307 40 375 -92 375 -89 0 -161 -65 -161 -144 0 -79 -50 -175 -111 -213 -74 -46 -88 1 -43 144 99 313 -96 262 -434 -112z m93 -566 c-62 -115 -186 -209 -276 -209 -133 0 -120 47 71 250 268 285 369 265 205 -41z m295 -509 l-75 -450 -12 408 c-7 225 17 439 54 475 107 108 112 43 33 -433z m-361 -543 c-29 -76 -128 -164 -221 -197 -92 -33 -235 -89 -318 -123 -82 -35 -19 76 140 246 285 304 502 344 399 74z"/>
<path d="M7300 52408 c0 -50 -27 -163 -61 -250 -40 -104 -5 -158 100 -158 105 0 161 87 161 250 0 138 -45 250 -100 250 -55 0 -100 -41 -100 -92z"/>
<path d="M7688 52150 c-7 -192 -19 -417 -25 -500 -7 -83 32 -161 87 -175 55 -14 114 211 130 500 19 320 -11 525 -75 525 -58 0 -111 -158 -117 -350z"/>
<path d="M8165 52275 c-30 -124 -57 -855 -58 -1625 -3 -1765 -83 -2789 -222 -2837 -194 -67 -1081 -942 -1138 -1124 -33 -102 57 -357 210 -601 255 -402 259 -429 86 -555 -100 -73 -244 -133 -320 -133 -217 0 -1453 -509 -1648 -679 -235 -204 -222 -590 25 -744 282 -176 251 -266 -150 -433 -272 -114 -350 -204 -350 -405 0 -174 65 -275 200 -310 261 -68 253 -158 -25 -280 -147 -65 -225 -186 -225 -349 0 -159 -97 -315 -264 -428 -389 -262 -533 -676 -388 -1116 86 -260 189 -372 385 -414 147 -32 357 -97 467 -144 110 -48 404 -176 653 -285 250 -109 580 -230 735 -269 436 -109 908 -1044 527 -1044 -74 0 -280 -73 -458 -161 -215 -108 -449 -142 -698 -102 -331 53 -399 26 -590 -233 -242 -327 -185 -326 -1869 -30 -495 88 -1160 149 -1477 137 -498 -20 -638 19 -1030 283 -249 168 -473 306 -498 306 -146 0 -18 -694 157 -852 138 -125 170 -216 100 -286 -56 -56 -102 -205 -102 -332 0 -126 -45 -230 -100 -230 -55 0 -100 -112 -100 -250 0 -151 57 -250 144 -250 79 0 169 -41 200 -91 87 -140 -48 -409 -205 -409 -108 0 -139 -192 -139 -864 0 -701 33 -891 175 -1008 167 -137 167 -142 0 -89 -147 46 -175 -10 -175 -344 0 -341 46 -426 325 -598 l325 -199 -325 63 c-251 50 -325 30 -325 -87 0 -283 882 -377 1139 -121 84 84 127 218 97 299 -37 95 40 182 220 250 345 131 564 -31 261 -193 -112 -60 -218 -233 -235 -384 -23 -199 -129 -324 -382 -450 -241 -121 -350 -244 -350 -395 0 -135 -77 -241 -200 -275 -307 -85 -606 -283 -534 -354 36 -36 157 -7 270 63 113 71 231 102 263 70 76 -75 -155 -584 -265 -584 -46 0 -84 -160 -84 -356 0 -212 -40 -331 -100 -294 -65 40 -100 -600 -100 -1847 l0 -1908 369 -495 c303 -406 410 -484 599 -437 346 87 497 -375 292 -897 -148 -376 -143 -407 137 -952 159 -310 316 -789 349 -1064 33 -275 101 -725 151 -1000 51 -275 145 -836 211 -1247 65 -411 201 -988 302 -1283 232 -673 91 -648 -483 88 -233 298 -488 617 -568 710 -80 93 -119 262 -88 381 39 149 -12 261 -167 369 -122 86 -421 426 -663 755 l-441 599 0 -519 c0 -464 49 -582 466 -1124 257 -334 549 -628 650 -654 101 -27 184 -100 184 -163 0 -171 1660 -1908 1722 -1803 29 50 -28 338 -128 639 -99 302 -161 568 -137 592 57 57 64 44 309 -557 121 -297 173 -554 122 -605 -50 -50 -19 -264 75 -501 100 -255 136 -518 94 -686 l-69 -272 -502 490 c-276 270 -584 649 -684 841 -167 321 -660 810 -1702 1687 l-400 336 0 -500 c0 -438 46 -549 375 -905 511 -552 909 -1059 1378 -1754 217 -322 542 -714 721 -872 383 -336 383 -338 132 -830 l-194 -380 -64 343 c-36 194 -237 534 -463 784 -220 242 -440 542 -490 666 -49 124 -151 225 -225 225 -74 0 -350 315 -613 700 -263 385 -496 700 -518 700 -21 0 -39 -1392 -39 -3094 l0 -3094 425 243 c434 248 775 316 775 155 0 -50 -124 -134 -276 -187 -369 -128 -924 -603 -924 -790 0 -105 120 -55 400 167 220 174 400 275 400 225 0 -51 -180 -349 -400 -663 -459 -655 -553 -1040 -164 -675 286 268 2452 3850 2729 4513 35 82 192 434 349 782 157 348 286 685 287 750 2 373 1394 1868 1739 1868 134 0 259 46 277 102 19 55 371 220 784 366 611 217 951 270 1849 288 605 12 1303 70 1550 128 284 67 485 71 545 11 52 -52 255 -96 450 -97 195 0 625 -66 955 -146 330 -80 788 -146 1018 -148 555 -5 1705 -247 2632 -554 3224 -1068 3546 -1202 3698 -1536 120 -264 -32 -572 -177 -358 -247 362 -1066 727 -1782 793 -171 16 -405 79 -519 140 -256 137 -820 146 -820 13 0 -54 124 -129 275 -167 151 -38 478 -160 725 -272 248 -111 495 -207 550 -213 243 -27 457 -187 411 -307 -29 -77 121 -231 370 -377 770 -453 1093 -875 755 -987 -103 -35 36 -407 216 -579 86 -82 398 -589 398 -646 0 -155 -178 -10 -394 322 -134 206 -382 526 -550 712 -331 366 -1704 1312 -1904 1312 -68 0 -522 270 -1010 600 -488 330 -962 600 -1053 600 -90 0 -226 74 -302 165 -209 252 -691 420 -1424 495 -469 48 -663 34 -663 -46 0 -63 152 -114 339 -114 476 0 1370 -307 1439 -493 76 -208 227 -304 481 -305 115 -1 452 -174 750 -384 297 -210 946 -578 1441 -818 702 -341 1048 -588 1575 -1126 371 -379 675 -739 675 -799 0 -60 79 -202 175 -315 317 -372 -515 380 -975 881 -512 558 -1263 1069 -1850 1259 -220 71 -527 235 -683 364 -408 341 -709 310 -317 -32 1267 -1106 1289 -1131 1101 -1269 -98 -72 -161 -180 -140 -241 22 -60 725 -808 1564 -1661 1137 -1156 1525 -1614 1525 -1798 0 -205 -285 42 -1675 1453 -921 935 -1716 1775 -1766 1867 -248 457 -751 972 -1481 1516 -445 330 -846 601 -893 601 -209 0 -51 -294 317 -590 221 -177 375 -366 342 -419 -69 -113 1240 -1497 1399 -1479 234 26 338 -19 397 -173 45 -115 19 -145 -89 -103 -83 32 -151 13 -151 -42 0 -54 107 -139 237 -189 130 -50 331 -210 446 -356 115 -146 267 -277 338 -291 137 -26 2063 -1858 1954 -1858 -35 0 -227 96 -426 214 -346 204 -627 162 -470 -70 137 -202 828 -563 972 -507 170 65 876 -613 787 -756 -32 -52 19 -178 112 -281 125 -138 150 -271 97 -515 l-73 -329 -112 313 c-94 262 -290 405 -1202 873 -600 308 -1112 539 -1138 513 -26 -26 -174 19 -330 99 -155 80 -412 146 -572 146 -165 0 -369 89 -477 207 -186 206 -185 207 85 140 379 -96 340 5 -121 310 -271 179 -461 239 -608 193 -178 -57 -394 115 -1282 1023 -587 601 -1200 1291 -1363 1535 -212 316 -306 394 -331 274 -65 -312 294 -809 1388 -1923 598 -610 1088 -1163 1089 -1230 0 -163 402 -529 581 -529 116 0 120 29 19 150 -194 233 45 176 260 -62 378 -421 2619 -1835 3143 -1984 533 -151 767 -349 621 -526 -92 -110 -92 -171 3 -267 98 -100 72 -114 -127 -73 -964 203 -1311 251 -1439 202 -85 -32 -192 30 -257 152 -61 115 -192 208 -292 208 -300 0 -2167 922 -2590 1279 -504 425 -1222 1151 -1222 1237 0 147 163 91 357 -124 104 -115 329 -267 501 -339 171 -71 496 -317 722 -545 339 -342 471 -411 748 -392 199 13 476 -62 679 -185 189 -115 444 -239 568 -276 366 -111 273 187 -100 323 -179 65 -565 276 -859 470 -293 194 -594 352 -668 352 -73 0 -193 58 -266 128 -265 257 -767 572 -912 572 -82 0 -173 62 -202 139 -37 97 4 123 139 88 362 -95 184 215 -441 768 -339 300 -841 867 -1116 1260 -275 394 -653 936 -841 1205 -586 844 -1017 1340 -1162 1340 -137 0 522 -1050 1005 -1600 121 -137 327 -451 459 -697 239 -447 492 -790 806 -1092 137 -132 144 -192 43 -331 -117 -159 -133 -159 -267 1 -79 94 -233 342 -343 551 -110 210 -268 457 -352 550 -502 558 -1697 2488 -1698 2744 0 186 -884 1074 -1069 1074 -230 0 -141 -255 169 -484 165 -122 300 -263 300 -313 0 -105 1506 -2488 1899 -3003 146 -192 434 -629 638 -970 417 -695 719 -1063 1664 -2020 1256 -1272 1456 -1425 2899 -2212 303 -165 630 -355 728 -424 135 -94 195 -96 251 -7 86 138 342 170 1197 149 603 -15 621 -23 500 -220 -128 -209 -192 -208 -736 12 -175 70 -393 91 -500 48 -165 -66 -144 -97 160 -228 832 -360 1015 -428 1153 -428 81 0 147 -45 147 -100 0 -134 -263 -127 -528 15 -118 63 -509 133 -868 155 -364 22 -834 126 -1061 235 -223 107 -502 195 -619 195 -117 0 -271 81 -343 180 -72 98 -347 260 -610 359 -271 102 -574 309 -696 474 -119 161 -266 273 -327 250 -61 -23 -220 42 -354 145 -508 390 -678 164 -187 -248 168 -142 282 -297 253 -344 -30 -48 147 -231 393 -408 444 -318 585 -608 297 -608 -82 0 -150 39 -150 87 0 48 -176 280 -390 515 -299 327 -441 413 -608 370 -143 -38 -273 9 -382 135 -90 106 -201 193 -246 193 -76 0 -1274 1096 -1513 1385 -61 74 -239 260 -396 414 -157 154 -337 369 -400 478 -354 613 -367 661 -96 347 154 -179 373 -325 485 -325 139 1 305 -166 524 -524 428 -702 789 -1140 872 -1058 37 37 -108 307 -324 600 -215 293 -511 781 -658 1083 -147 303 -445 865 -663 1250 -218 385 -588 1051 -822 1480 -235 429 -550 924 -701 1100 -253 296 -274 303 -278 100 -2 -121 142 -436 321 -699 309 -456 1675 -2900 1675 -2997 0 -166 -261 186 -610 823 -225 409 -446 720 -491 692 -46 -28 -113 -184 -148 -346 -73 -331 202 -958 836 -1907 203 -305 451 -766 550 -1025 99 -259 241 -471 317 -471 76 0 376 -239 667 -531 397 -400 728 -614 1329 -861 440 -182 871 -392 958 -469 87 -76 244 -139 348 -139 105 0 417 -106 693 -235 618 -289 1461 -565 1727 -565 110 0 361 -67 559 -150 197 -82 492 -150 656 -150 163 0 327 -48 362 -106 82 -131 -1149 -109 -1319 25 -71 56 -141 50 -181 -14 -78 -127 -520 -140 -595 -17 -55 87 -807 311 -1233 365 -376 49 -1661 571 -1881 765 -252 222 -344 230 -344 30 0 -84 113 -204 250 -266 375 -171 301 -273 -125 -174 -482 112 -650 114 -583 5 29 -47 227 -109 439 -138 212 -28 694 -194 1071 -369 377 -174 801 -310 942 -301 398 25 468 0 306 -108 -196 -132 -995 -32 -1750 217 -697 230 -1376 734 -1170 869 94 62 -20 200 -416 507 -301 231 -570 483 -599 558 -29 75 -155 151 -279 169 -290 42 -1408 1331 -1927 2221 -215 369 -428 633 -474 587 -133 -133 469 -1223 1042 -1888 288 -333 624 -726 747 -872 124 -146 304 -265 400 -266 100 0 425 -323 755 -750 318 -412 552 -749 520 -749 -213 0 -637 346 -848 692 -236 387 -501 542 -501 292 0 -123 472 -788 642 -904 56 -38 69 -103 28 -144 -41 -41 -311 159 -601 445 -534 528 -717 618 -797 394 -53 -146 -412 222 -634 650 -79 151 -204 275 -278 275 -74 0 -241 156 -371 346 -131 191 -328 359 -438 375 -149 22 -210 119 -234 374 l-33 344 509 -544 c280 -300 616 -657 746 -795 268 -282 934 -661 1017 -577 54 54 -938 1552 -1409 2127 -280 343 -746 1235 -747 1432 0 73 -127 320 -282 550 -285 423 -718 1226 -718 1332 0 31 68 31 150 0 212 -82 193 1 -174 755 -212 435 -387 671 -501 675 -146 5 -174 100 -168 581 l7 575 147 -478 c85 -276 191 -452 250 -415 56 35 72 137 34 228 -37 91 -121 522 -185 958 -136 912 -385 1193 -349 392 13 -267 -30 -584 -94 -704 -158 -294 -148 -586 52 -1492 125 -571 215 -780 351 -815 100 -26 211 -166 246 -311 86 -352 1603 -3277 1913 -3688 134 -179 200 -325 145 -325 -234 0 -1490 1903 -1589 2407 -37 189 -219 522 -405 740 -185 219 -363 500 -395 625 -31 126 -98 228 -149 228 -157 0 -218 -302 -107 -532 58 -120 184 -434 279 -699 101 -279 312 -594 503 -752 241 -198 305 -311 239 -418 -62 -99 -33 -210 91 -347 100 -111 235 -494 301 -852 187 -1024 279 -1228 758 -1679 248 -233 450 -466 450 -519 0 -53 133 -166 295 -249 353 -183 441 -192 345 -38 -44 73 -27 89 46 44 65 -40 96 -108 69 -151 -127 -205 1711 -1459 2295 -1564 220 -40 478 -126 574 -192 160 -110 154 -130 -74 -252 -194 -104 -304 -107 -504 -16 -140 64 -427 116 -637 116 -245 0 -485 81 -668 225 -157 124 -377 234 -489 244 -111 10 -326 49 -477 87 -344 84 -360 -77 -25 -256 138 -74 250 -171 250 -217 0 -317 -718 288 -1071 903 -146 255 -453 757 -681 1114 -228 358 -544 909 -702 1225 -286 572 -522 775 -412 355 32 -121 6 -282 -57 -357 -76 -92 -80 -161 -12 -206 121 -80 1245 -1741 1466 -2167 86 -165 260 -413 387 -551 513 -556 505 -621 -28 -209 -525 407 -820 864 -1126 1742 -43 125 -123 163 -255 121 -137 -44 -211 -4 -255 135 -82 259 -443 712 -567 712 -127 0 297 -711 689 -1153 168 -190 406 -553 528 -806 155 -320 402 -589 803 -876 319 -228 600 -488 624 -576 59 -222 653 -317 1456 -233 812 84 739 -35 -164 -266 -617 -158 -713 -159 -1158 -16 -357 114 -504 125 -556 41 -88 -144 -881 341 -1180 721 -202 257 -429 351 -429 178 0 -47 115 -255 255 -462 332 -490 214 -602 -160 -151 -258 311 -290 325 -292 131 -2 -120 64 -285 147 -368 287 -286 148 -300 -150 -14 -279 267 -300 273 -300 79 0 -114 135 -352 300 -529 165 -177 300 -361 300 -411 0 -172 -290 -87 -442 130 -205 293 -327 148 -187 -223 91 -241 85 -296 -30 -296 -250 0 -150 -144 264 -380 455 -261 1395 -418 1395 -234 0 63 -128 114 -285 114 -322 0 -917 186 -912 285 2 36 69 152 150 259 145 191 147 191 147 -8 0 -331 615 -468 1217 -271 265 87 456 198 425 248 -31 50 -95 66 -144 36 -197 -122 -1007 183 -1249 471 -137 162 -249 333 -249 378 0 146 401 -16 543 -219 215 -306 799 -466 1290 -353 230 52 670 117 978 143 492 41 654 117 1300 603 677 510 2336 1346 3189 1608 193 60 710 137 1150 172 677 54 945 24 1742 -192 1085 -293 1226 -385 975 -636 -147 -147 -188 -152 -262 -32 -48 78 -260 153 -471 166 -211 13 -763 74 -1225 136 -635 84 -929 82 -1200 -7 -417 -137 -1586 -748 -1817 -949 -87 -76 -245 -138 -352 -138 -203 0 -1632 -776 -1986 -1079 -341 -292 -840 -621 -942 -621 -52 0 -111 -47 -130 -105 -20 -58 -105 -116 -190 -129 -159 -23 -1861 -1135 -1944 -1270 -26 -42 115 -76 314 -76 279 0 500 107 959 465 1092 851 1728 1302 1846 1308 64 4 131 41 150 84 50 115 908 723 1020 723 216 0 -434 -549 -1219 -1030 -458 -280 -879 -602 -936 -715 -57 -113 -268 -350 -468 -526 -655 -578 -100 -345 644 271 745 616 1120 820 589 320 -163 -154 -424 -427 -578 -606 l-282 -327 376 32 c326 27 423 100 741 559 201 291 507 689 681 885 174 196 408 487 521 645 173 243 990 827 2444 1748 250 157 506 191 1522 200 1123 9 1563 -54 1414 -204 -105 -105 -524 -171 -1186 -186 -601 -15 -701 -51 -1319 -484 -368 -257 -686 -418 -706 -358 -67 202 -1262 -529 -1574 -964 -377 -527 -358 -502 -986 -1236 l-535 -624 512 0 c448 0 526 31 625 247 62 136 151 223 198 194 47 -29 39 -140 -18 -247 -72 -134 -72 -194 -1 -194 134 0 451 317 534 533 35 92 113 167 174 167 100 0 79 -156 -78 -575 -34 -88 81 -124 388 -123 333 1 492 60 671 250 130 136 281 248 336 248 55 0 234 112 397 250 279 235 582 331 582 185 0 -36 -157 -218 -350 -405 -366 -355 -439 -530 -222 -530 113 0 457 358 985 1027 l163 206 66 -208 c74 -234 -22 -725 -142 -725 -43 0 -105 -67 -136 -150 -46 -119 30 -150 365 -150 l424 0 3 775 c1 439 58 876 131 1009 179 323 111 345 -344 110 -269 -139 -495 -184 -715 -144 -282 51 -330 27 -385 -191 -73 -293 -332 -474 -922 -645 -831 -241 -1115 103 -380 460 243 118 522 352 622 520 99 168 232 306 295 306 63 0 280 113 482 250 203 138 450 250 550 250 99 0 293 104 431 232 341 316 703 449 1540 565 922 128 958 144 1337 615 237 296 356 586 455 1119 74 395 206 1099 292 1563 94 503 121 880 67 934 -54 54 -138 -187 -207 -596 -186 -1104 -290 -1053 -230 113 36 712 19 1097 -52 1141 -171 106 -187 354 -23 364 83 5 134 75 115 155 -19 80 -60 698 -90 1373 -58 1302 -215 1765 -239 703 l-14 -631 -76 550 c-78 565 -29 1173 108 1350 42 55 109 315 148 578 129 864 660 811 792 -78 40 -275 201 -747 356 -1050 155 -302 310 -675 343 -828 34 -152 148 -363 253 -468 131 -131 154 -207 73 -240 -73 -30 -60 -51 33 -56 100 -5 233 -272 389 -783 130 -426 295 -844 368 -927 84 -98 99 -204 41 -298 -49 -80 -65 -330 -34 -554 50 -365 -211 -1708 -465 -2392 -82 -221 -302 -940 -506 -1654 -71 -247 -209 -634 -307 -859 -263 -602 -1329 -1523 -1630 -1408 -200 77 -388 -182 -310 -428 73 -227 -43 -270 -228 -85 -93 93 -120 87 -120 -30 0 -83 54 -204 120 -270 93 -93 93 -120 0 -120 -66 0 -120 45 -120 100 0 55 -69 100 -152 100 -134 0 -132 -31 11 -250 138 -210 242 -250 653 -250 416 0 488 28 488 194 0 305 190 345 298 62 71 -188 169 -256 370 -256 211 0 245 27 152 120 -163 163 -159 709 5 656 69 -23 139 -139 157 -258 74 -506 674 -619 2189 -412 857 118 1229 236 1229 392 0 145 -550 126 -1491 -52 -1052 -200 -1461 -129 -1603 279 -154 441 -139 475 206 475 260 0 292 -24 194 -143 -287 -345 630 -451 1940 -224 683 118 698 127 770 469 129 610 -290 1598 -676 1598 -81 0 -169 60 -197 133 -29 74 -187 134 -353 134 -337 0 -672 279 -736 613 -24 121 -67 260 -97 309 -30 48 9 262 87 474 l142 387 7 -604 7 -605 575 -130 c316 -72 766 -164 1000 -205 l425 -74 0 668 c0 521 -40 706 -183 835 -100 91 -235 165 -300 165 -64 0 -117 96 -117 213 0 117 -86 354 -191 525 -106 172 -290 672 -409 1112 -120 440 -279 943 -354 1117 -116 271 -114 335 9 437 120 100 145 76 145 -142 0 -144 47 -262 104 -262 58 0 93 56 78 125 -14 69 35 340 110 603 74 263 104 509 66 547 -97 97 -255 -180 -256 -450 -1 -124 -41 -225 -88 -225 -47 0 16 424 141 941 232 957 297 1697 396 4459 52 1440 192 3579 299 4575 51 469 -100 587 -191 150 -94 -446 -342 -4131 -409 -6070 -64 -1828 -129 -2360 -415 -3380 -166 -593 -335 -760 -335 -331 0 134 -38 268 -84 296 -147 91 -547 1579 -443 1647 53 35 124 423 157 863 69 913 303 2408 571 3650 101 468 238 1165 304 1550 104 608 486 2153 660 2675 96 287 -159 199 -289 -100 -112 -258 -123 -236 -173 367 -69 828 -275 643 -285 -255 -7 -673 -200 -1536 -566 -2537 -351 -957 -523 -1708 -699 -3050 -86 -660 -184 -1402 -216 -1650 -33 -247 -76 -468 -97 -490 -20 -22 -148 203 -283 500 -395 869 -244 2044 396 3082 189 307 386 783 438 1058 52 275 117 568 144 650 143 443 167 717 59 681 -121 -40 -390 -718 -392 -988 -3 -310 -301 -1154 -475 -1346 -281 -311 -723 -1491 -655 -1750 83 -319 -115 -176 -268 194 -77 186 -240 337 -436 405 -314 110 -774 541 -973 914 -165 307 -145 1087 41 1648 136 409 246 551 566 731 l397 223 116 -256 c153 -336 233 -323 393 63 155 375 188 1862 42 1923 -55 24 -33 90 50 147 128 90 154 1 180 -617 16 -397 73 -765 125 -817 192 -192 84 -451 -415 -997 -281 -307 -459 -558 -397 -558 209 0 603 318 907 731 337 459 389 325 111 -287 -171 -376 -864 -1141 -1036 -1143 -41 -1 -75 70 -75 156 0 97 -68 144 -175 123 -132 -26 -169 -120 -152 -383 13 -191 27 -426 32 -522 10 -237 164 -221 299 33 64 119 172 184 254 153 92 -36 238 96 409 367 146 232 392 580 546 772 325 407 517 1458 290 1598 -86 53 -131 382 -140 1032 -10 750 -40 931 -138 849 -69 -57 -125 -79 -125 -49 0 29 -30 132 -67 228 -44 114 -29 151 43 107 61 -38 138 -23 173 33 34 56 -56 155 -201 221 -292 133 -443 9 -447 -369 -1 -110 -81 -317 -177 -459 -741 -1102 -729 -1051 -362 -1488 294 -349 294 -349 -87 -441 -222 -53 -275 -31 -275 114 0 99 -60 268 -134 377 -140 206 -150 992 -19 1474 74 271 67 277 -280 234 -426 -53 -1352 -502 -1526 -740 -83 -114 -92 -210 -26 -289 68 -82 37 -151 -102 -225 -266 -142 -382 -136 -233 13 66 66 120 199 120 296 0 97 100 269 222 383 356 332 1486 915 1790 923 153 5 299 62 324 128 26 67 239 221 473 343 382 199 473 210 849 105 488 -137 684 -92 1075 245 414 357 1194 432 1710 164 216 -112 429 -261 474 -330 48 -77 81 20 81 248 1 213 -47 375 -111 375 -113 0 -80 429 65 850 40 116 -19 73 -141 -100 l-210 -300 2 450 c1 248 90 646 199 886 215 473 242 614 118 614 -44 0 -137 -157 -206 -350 -70 -192 -159 -350 -199 -350 -168 0 -85 471 190 1077 342 754 350 811 133 969 -149 109 -149 143 0 431 203 392 209 1237 13 1882 -83 272 -149 881 -150 1366 -1 516 -42 875 -101 875 -55 0 -100 132 -100 293 0 162 -45 412 -100 556 -54 144 -145 663 -200 1153 -110 971 -254 1398 -473 1398 -100 0 -120 -64 -69 -225 39 -124 65 -578 57 -1009 -14 -707 4 -790 185 -837 209 -55 285 -429 87 -429 -157 0 -54 -688 323 -2150 478 -1853 485 -1883 488 -2168 2 -260 -220 -582 -402 -582 -183 0 -305 401 -220 726 107 407 53 674 -137 674 -113 0 -123 -43 -43 -193 149 -278 134 -307 -157 -307 -208 0 -246 35 -191 175 38 96 118 403 177 681 97 454 74 641 -225 1800 -183 712 -370 1336 -415 1388 -45 51 -77 -129 -72 -400 6 -272 -65 -869 -159 -1327 -153 -748 -153 -1050 -1 -897 59 58 87 193 193 926 85 583 157 498 395 -466 155 -625 155 -706 -1 -1181 -123 -375 -206 -495 -316 -453 -82 32 -208 -22 -280 -119 -99 -135 -159 -149 -249 -61 -135 134 -46 334 149 334 208 0 339 231 254 450 -71 186 -82 188 -149 21 -40 -98 -208 -248 -373 -333 -266 -138 -293 -193 -244 -496 43 -268 15 -363 -132 -442 -337 -180 -532 -127 -452 125 90 284 91 424 5 946 -52 314 -4 650 190 1322 377 1312 558 2243 456 2346 -51 53 -113 -31 -148 -200 -33 -159 -237 -964 -454 -1789 -361 -1369 -391 -1443 -351 -850 24 358 12 965 -27 1350 -59 579 -34 812 144 1350 204 619 462 1678 577 2371 29 177 10 348 -43 381 -53 33 -99 46 -102 29 -285 -1662 -503 -2490 -645 -2455 -55 13 -126 -133 -158 -326 -56 -341 -26 -2364 52 -3533 21 -320 13 -557 -19 -526 -31 32 -115 9 -187 -51 -167 -138 -209 60 -277 1312 -56 1021 104 2436 390 3448 444 1573 553 2250 362 2250 -89 0 -210 -564 -212 -992 -1 -133 -67 -315 -148 -405 -143 -158 -396 -1176 -505 -2030 -79 -619 -81 -3339 -3 -3465 39 -62 -11 -108 -117 -108 -101 0 -249 -90 -328 -200 -82 -114 -259 -200 -411 -200 -275 0 -423 -195 -331 -436 70 -180 -340 -864 -518 -864 -211 0 -166 268 216 1300 188 507 258 1307 303 3450 22 1045 86 2215 142 2600 56 385 116 817 134 961 17 143 121 391 232 550 110 159 229 368 264 464 115 319 -77 180 -331 -240 -833 -1378 -793 -1264 -797 -2310 -2 -536 31 -975 72 -975 113 0 38 -3283 -87 -3800 -60 -248 -199 -720 -308 -1050 -110 -330 -217 -690 -238 -800 -132 -682 -167 -760 -326 -730 -226 43 -266 568 -78 1018 89 211 111 381 56 416 -163 101 -102 246 104 246 175 0 185 29 83 253 -88 191 -87 281 2 370 64 64 117 283 117 485 0 292 44 380 214 425 183 48 203 102 144 386 -189 895 -228 1465 -211 3031 14 1346 57 1820 204 2276 106 327 217 526 257 460 45 -72 137 11 246 224 97 187 304 497 461 688 302 368 350 502 182 502 -57 0 -191 -146 -297 -325 -107 -179 -330 -415 -497 -525 -167 -110 -382 -391 -478 -625 -96 -233 -225 -424 -286 -425 -120 0 -494 -1378 -400 -1472 72 -72 259 419 268 704 4 120 47 308 96 418 55 124 64 -65 23 -500 -36 -385 -67 -869 -69 -1075 -2 -206 -38 -375 -80 -375 -42 0 -77 -184 -77 -408 0 -284 -38 -395 -125 -365 -86 30 -115 225 -93 618 36 666 -113 681 -289 30 -98 -364 -125 -393 -217 -229 -126 225 12 838 438 1952 296 772 343 1002 207 1002 -44 0 -133 -199 -198 -443 -65 -244 -254 -657 -421 -920 -293 -462 -302 -467 -301 -182 2 385 224 1209 436 1620 191 370 46 445 -183 95 -178 -271 -533 -1258 -648 -1799 -44 -208 -109 -407 -143 -442 -140 -140 -160 70 -56 581 218 1066 326 1409 462 1461 76 29 209 194 296 366 87 172 274 437 415 588 241 257 244 275 56 275 -192 0 -636 -377 -636 -540 0 -43 -88 -153 -195 -244 -212 -180 -605 -1258 -605 -1657 0 -485 -178 -347 -246 191 -64 514 -45 584 307 1155 503 814 1096 1475 1359 1513 327 49 348 282 25 282 -266 0 -840 -504 -1264 -1109 l-168 -241 59 250 c91 386 596 1038 902 1165 152 64 445 144 651 180 462 79 494 255 46 255 -772 0 -1594 -716 -1867 -1625 -61 -206 -176 -375 -254 -375 -161 0 -343 -298 -459 -748 -42 -166 -151 -504 -242 -751 -198 -540 -163 -853 299 -2654 424 -1652 747 -2468 1026 -2593 118 -53 242 -205 275 -336 33 -132 156 -444 273 -692 192 -410 201 -506 95 -1020 -64 -313 -118 -745 -119 -962 l-3 -394 -217 375 c-221 381 -368 476 -390 250 -25 -269 42 -434 319 -784 158 -200 261 -390 228 -423 -88 -87 -835 316 -901 487 -62 163 -434 201 -434 44 0 -141 547 -699 686 -699 63 0 114 -45 114 -100 0 -128 -170 -130 -248 -3 -33 54 -244 147 -468 207 -231 62 -535 249 -699 428 -236 258 -308 291 -381 173 -94 -151 35 -494 236 -628 80 -54 79 -74 -2 -75 -127 -2 -632 370 -802 591 -200 260 -351 1181 -321 1963 46 1247 414 1084 530 -234 37 -425 113 -918 169 -1097 125 -399 336 -442 245 -50 -35 151 -91 761 -126 1355 -49 860 -90 1070 -200 1027 -107 -41 -115 -10 -35 139 56 105 102 331 102 503 l0 311 239 -258 c132 -142 270 -426 307 -630 118 -646 574 -2022 670 -2022 117 0 16 587 -218 1268 -98 285 -208 713 -245 950 -105 670 -159 801 -309 744 -184 -71 -343 518 -343 1274 -1 494 -26 576 -160 524 -136 -52 -149 1 -90 365 80 491 249 742 249 370 0 -327 332 -1473 546 -1887 121 -234 202 -300 278 -224 75 75 29 285 -159 717 -145 336 -290 800 -320 1030 -122 922 -159 1072 -250 1016 -52 -32 -95 77 -95 242 0 166 61 337 135 381 75 44 209 395 299 780 419 1795 664 2381 1331 3183 235 283 300 471 160 463 -100 -6 -757 -868 -955 -1254 -87 -170 -319 -845 -517 -1500 -257 -856 -342 -1051 -298 -692 69 575 469 2264 634 2683 149 377 1263 1454 1569 1517 133 27 366 80 517 116 151 37 335 56 408 44 73 -12 240 48 372 134 238 156 806 135 1145 -43 83 -43 387 -110 676 -149 289 -39 708 -159 931 -267 462 -223 1305 -842 1421 -1043 43 -74 321 -378 618 -675 297 -297 610 -692 696 -878 86 -187 313 -609 506 -939 192 -330 350 -683 351 -784 0 -102 89 -296 196 -432 l194 -247 1 885 c2 816 -15 892 -218 981 -122 53 -238 186 -258 294 -32 168 -15 178 120 66 258 -214 366 -36 366 604 0 521 -41 657 -300 983 -308 389 -384 776 -191 969 79 79 76 173 -13 339 -106 198 -94 252 91 402 130 105 190 235 152 332 -45 118 -18 144 100 98 127 -48 161 4 161 247 0 289 -19 304 -300 248 -191 -38 -300 -19 -300 53 0 61 134 112 297 112 l298 0 4 6513 c3 6105 -7 6522 -173 6650 -167 131 -168 142 -1 242 96 58 175 193 175 300 0 173 -72 195 -651 195 l-652 0 246 -375 c388 -591 760 -2114 826 -3380 60 -1167 -48 -1789 -475 -2719 -107 -233 -194 -462 -194 -508 0 -130 -433 -68 -479 68 -22 67 8 179 67 250 174 209 541 1472 585 2014 95 1148 -86 2591 -375 3000 -39 55 -100 225 -137 378 -36 152 -204 501 -372 775 -256 416 -355 497 -603 497 -197 0 -274 -38 -227 -114 50 -82 -38 -93 -316 -41 -212 39 -635 87 -939 106 -459 28 -595 -3 -791 -183 l-238 -218 69 225 c66 213 43 224 -412 213 -420 -10 -444 -21 -182 -84 319 -77 332 -63 -250 -279 -82 -31 -195 -62 -250 -69 -1914 -250 -1994 -249 -2032 19 -18 124 16 225 75 225 59 0 107 -68 107 -151 0 -125 116 -143 667 -100 819 63 955 151 233 151 -756 0 -551 110 370 199 701 67 636 75 -645 80 l-1425 6 -1 -968 c-2 -1008 -62 -1417 -209 -1417 -80 0 -52 900 61 1975 l45 425 -591 0 -591 0 -58 -525 c-33 -289 -73 -694 -91 -900 -39 -469 -136 -577 -219 -245 -35 139 2 572 82 962 123 595 124 708 9 708 -75 0 -140 -101 -143 -225 l-7 -225 -90 225 c-51 126 -177 225 -287 225 -124 0 -212 -83 -239 -225 l-44 -225 -13 225 c-14 220 -40 225 -1218 225 l-1203 0 68 -900 c59 -780 47 -900 -89 -900 -250 0 -571 492 -580 888 l-8 362 -138 -300 c-75 -165 -142 -233 -148 -150 -7 83 -28 273 -48 423 -20 151 6 300 57 331 51 32 93 10 93 -48 0 -58 41 -106 91 -106 49 0 67 90 38 200 -78 299 -429 261 -429 -47 0 -168 -44 -230 -137 -194 -106 41 -147 -121 -181 -728 -58 -1005 14 -2131 137 -2131 52 0 83 214 69 475 -15 261 -15 880 -1 1375 l26 900 129 -477 c150 -560 122 -525 674 -820 l434 -232 62 -885 c34 -487 42 -937 18 -1000 -64 -168 -579 -243 -901 -131 -264 92 -515 64 -1444 -161 -195 -47 -321 -8 -475 146 -196 196 -386 256 -685 217 -69 -8 -128 87 -132 214 -24 844 29 3421 74 3537 30 78 9 142 -45 142 -55 0 -126 -101 -157 -225z m7695 -148 c-33 -33 -56 26 -52 131 5 117 28 141 60 61 29 -72 26 -159 -8 -192z m6107 -160 c36 -37 -245 -66 -625 -65 -381 0 -640 34 -577 75 142 90 1110 82 1202 -10z m-2267 -61 c0 -52 -45 -122 -100 -156 -55 -34 -100 8 -100 94 0 86 45 156 100 156 55 0 100 -42 100 -94z m3100 -6 c229 -73 221 -81 -100 -89 -192 -4 -417 36 -500 89 -118 76 -97 95 100 89 138 -5 363 -45 500 -89z m-6947 -489 c-30 -95 -61 -515 -69 -935 -19 -1011 -181 -1257 -181 -276 -1 906 90 1516 214 1440 50 -31 67 -134 36 -229z m3297 189 c-34 -55 -295 -95 -581 -88 -446 10 -477 22 -219 88 451 115 871 115 800 0z m3042 64 c-113 -96 -692 -148 -692 -61 0 53 165 97 367 97 201 0 348 -16 325 -36z m727 -132 c-72 -29 -159 -26 -192 8 -33 33 26 56 131 52 117 -5 141 -28 61 -60z m-5000 -100 c-72 -29 -159 -26 -192 8 -33 33 26 56 131 52 117 -5 141 -28 61 -60z m2481 -32 c0 -55 -49 -100 -110 -100 -164 0 -814 -311 -1023 -490 -175 -148 -178 -143 -59 117 68 150 202 273 297 273 95 0 301 67 459 149 336 176 436 188 436 51z m859 -339 c354 -334 425 -650 166 -736 -80 -27 -125 60 -125 242 0 203 -85 339 -300 483 -165 110 -300 234 -300 275 0 162 216 60 559 -264z m-2359 145 c0 -178 -215 -226 -682 -154 -373 58 -427 89 -268 153 281 114 950 114 950 1z m4500 -105 c0 -90 -1483 -31 -1592 63 -23 20 326 36 775 36 471 0 817 -42 817 -99z m-9119 -1326 c-2 -1046 -22 -1241 -96 -925 -153 651 -147 2250 7 2250 52 0 91 -582 89 -1325z m3119 1225 c-196 -127 -328 -127 -250 0 34 55 138 99 231 98 146 -1 148 -14 19 -98z m5319 -168 c-72 -29 -159 -26 -192 8 -33 33 26 56 131 52 117 -5 141 -28 61 -60z m-3719 -232 c0 -55 -45 -100 -100 -100 -55 0 -100 45 -100 100 0 55 45 100 100 100 55 0 100 -45 100 -100z m1900 -94 c0 -219 -156 -358 -243 -217 -73 119 36 411 154 411 49 0 89 -87 89 -194z m-2881 26 c-72 -29 -159 -26 -192 8 -33 33 26 56 131 52 117 -5 141 -28 61 -60z m2431 -32 c34 -55 -31 -100 -144 -100 -113 0 -206 45 -206 100 0 55 65 100 144 100 79 0 172 -45 206 -100z m2400 -100 c-34 -55 -104 -100 -156 -100 -52 0 -94 45 -94 100 0 55 70 100 156 100 86 0 128 -45 94 -100z m-7891 -490 c-88 -97 -164 -285 -171 -418 -10 -216 -20 -209 -88 58 -106 415 -116 772 -20 713 44 -28 145 -9 225 41 210 132 252 -175 54 -394z m4491 390 c-34 -55 16 -100 111 -100 95 0 146 -27 113 -59 -83 -84 -474 53 -474 166 0 51 70 93 156 93 86 0 128 -45 94 -100z m4250 -57 c0 -93 -68 -144 -167 -125 -251 48 -285 282 -41 282 123 0 208 -65 208 -157z m-3581 -11 c-72 -29 -159 -26 -192 8 -33 33 26 56 131 52 117 -5 141 -28 61 -60z m1186 -376 c-62 -75 -86 -246 -53 -379 70 -278 -63 -416 -501 -521 -164 -40 -333 -125 -373 -189 -46 -71 -76 -29 -76 108 -1 124 49 225 111 225 160 0 759 655 846 925 43 133 90 173 116 97 24 -71 -7 -190 -70 -266z m1061 -265 c53 -334 50 -337 -146 -159 -130 118 -223 144 -266 75 -36 -59 -108 -107 -160 -107 -148 0 -110 333 68 587 141 202 181 213 307 87 79 -79 168 -297 197 -483z m-3564 158 c252 -130 781 -673 811 -832 7 -37 34 -179 60 -317 88 -461 25 -1286 -170 -2237 -317 -1541 -568 -2138 -1587 -3786 -229 -370 -416 -733 -416 -805 0 -282 -201 -348 -617 -205 -320 110 -436 114 -551 18 -109 -90 -166 -92 -217 -9 -45 73 -123 81 -217 23 -124 -77 -116 -115 52 -245 194 -149 322 -151 663 -9 102 42 268 -26 450 -186 282 -249 283 -253 55 -256 -127 -2 -318 -50 -425 -107 -227 -121 -260 -496 -43 -496 83 0 150 68 150 150 0 213 337 186 545 -44 97 -107 271 -209 386 -225 292 -43 381 -469 148 -702 -262 -262 -349 -223 -427 196 -111 594 -452 877 -452 375 0 -137 -19 -250 -42 -250 -23 0 -113 -27 -200 -61 -115 -44 -158 0 -158 160 0 120 -90 334 -200 474 -110 140 -200 330 -200 423 0 225 -383 573 -725 657 -374 93 -345 -55 66 -335 188 -127 370 -348 406 -492 36 -143 153 -371 259 -507 107 -135 194 -331 194 -436 0 -274 278 -339 611 -142 285 168 289 167 289 -65 0 -588 -536 -632 -1030 -85 -325 360 -470 417 -470 186 0 -50 164 -245 364 -434 283 -267 448 -343 745 -343 249 0 413 57 473 164 163 291 1418 220 1418 -81 0 -67 121 -248 269 -403 261 -273 263 -280 50 -280 -121 0 -219 56 -219 125 0 139 -630 675 -793 675 -56 0 -442 -114 -857 -253 -730 -245 -762 -248 -999 -75 -134 98 -311 315 -393 483 -149 307 -558 744 -558 597 0 -143 426 -797 735 -1127 398 -426 459 -424 1539 43 254 110 371 115 543 23 214 -115 215 -120 26 -259 -106 -77 -305 -166 -443 -197 -137 -31 -452 -122 -698 -203 -302 -98 -459 -110 -483 -39 -23 69 -227 84 -567 44 -500 -58 -559 -41 -1006 300 -508 388 -617 415 -1122 270 -210 -60 -324 -58 -324 6 0 55 -79 92 -175 82 -394 -40 -473 13 -225 154 241 138 233 142 -223 125 -261 -9 -524 33 -586 95 -107 107 401 105 1759 -8 220 -18 500 -39 623 -47 123 -8 387 -173 588 -368 200 -195 384 -335 408 -311 67 68 -236 690 -466 954 -114 132 -238 210 -274 173 -36 -36 -12 -119 53 -184 206 -206 127 -289 -122 -126 -131 87 -435 155 -675 153 -2020 -22 -2578 174 -2810 984 -144 505 -529 848 -886 790 -220 -36 -210 -52 128 -200 357 -157 584 -429 583 -697 -1 -73 -112 3 -248 168 -208 252 -263 276 -348 150 -56 -82 -102 -293 -102 -468 -2 -358 238 -500 623 -369 214 72 211 79 -67 132 -160 30 -311 112 -334 182 -56 169 418 -32 797 -339 150 -120 311 -234 359 -253 49 -19 117 -192 152 -385 l64 -350 -248 300 c-136 165 -247 334 -248 375 0 41 -101 74 -225 72 -197 -3 -205 -18 -66 -125 252 -194 413 -548 270 -596 -72 -24 76 -307 376 -720 721 -993 919 -1215 1005 -1130 42 43 -59 223 -225 400 -165 178 -465 554 -666 835 -362 506 -363 510 -112 462 169 -32 364 -222 590 -575 366 -573 507 -703 599 -555 76 124 624 57 812 -99 89 -74 290 -96 530 -58 383 62 1012 -84 1012 -234 0 -42 -70 -136 -156 -207 -487 -404 -928 -1589 -1281 -3445 -136 -715 -342 -1795 -456 -2400 -247 -1304 -259 -1779 -57 -2350 261 -739 261 -739 -861 -848 l-660 -65 -120 607 c-146 745 -248 790 -186 81 25 -289 28 -424 5 -300 -23 124 -75 225 -117 225 -111 0 -53 -1005 78 -1333 114 -287 77 -467 -95 -467 -52 0 -94 109 -94 242 0 133 -79 380 -175 549 -143 252 -239 308 -528 308 -778 2 -1024 571 -753 1741 197 848 196 1520 -5 3872 -155 1805 -136 2588 61 2588 162 0 576 -829 801 -1600 253 -872 445 -1157 368 -550 -92 738 -516 1693 -1139 2569 -772 1083 -1403 2188 -1458 2553 -38 254 -43 249 -57 -58 -11 -244 127 -574 501 -1200 283 -475 587 -949 675 -1054 149 -178 147 -183 -41 -84 -244 128 -950 826 -950 938 0 45 -135 376 -300 736 -165 360 -300 747 -300 859 0 113 -135 401 -300 641 -165 240 -300 463 -300 495 0 127 -656 1005 -750 1005 -140 0 -74 -158 190 -450 301 -334 1060 -1647 1060 -1833 0 -82 133 -445 296 -808 163 -362 258 -659 212 -659 -118 0 -267 197 -616 813 -167 295 -273 425 -236 287 l69 -250 -194 250 c-107 138 -296 419 -421 625 -124 206 -268 375 -318 375 -51 0 -92 90 -92 200 0 110 -45 200 -100 200 -55 0 -100 -50 -100 -112 0 -68 -95 -49 -246 50 -136 89 -356 162 -489 162 -166 0 -261 71 -303 225 -45 164 -85 190 -145 97 -112 -174 -417 -44 -417 176 0 280 -279 463 -498 327 -152 -95 -191 -78 -240 106 -102 377 -73 435 347 713 342 227 399 310 348 513 -49 197 -23 243 141 243 294 0 296 694 2 771 -238 62 -268 229 -40 229 88 0 414 264 725 586 311 322 690 616 843 653 153 36 355 155 448 264 92 108 208 197 257 197 115 0 -17 -528 -154 -613 -138 -85 -9 -287 184 -287 99 0 141 78 122 225 -16 124 14 225 68 225 53 0 103 -45 110 -100 8 -55 20 -145 27 -200 7 -55 51 -40 98 34 47 74 64 327 37 562 -29 258 -4 455 63 497 71 44 112 -23 112 -181 0 -334 209 -853 273 -678 27 73 2 181 -56 239 -59 59 -81 230 -51 382 43 213 7 302 -155 389 -116 62 -211 199 -211 305 0 105 -52 306 -116 447 -142 312 -42 438 219 275 275 -172 317 -151 173 85 -107 174 -99 220 49 305 96 54 175 184 175 288 0 104 47 218 104 254 57 35 77 150 43 255 -74 233 79 252 262 32 111 -135 106 -207 -32 -448 -91 -158 -130 -309 -87 -336 121 -74 533 539 471 701 -76 198 39 179 200 -32 73 -96 134 -296 136 -444 2 -148 48 -297 103 -331 55 -34 100 -153 100 -265 0 -118 82 -225 197 -255 108 -28 223 -137 256 -241 71 -221 247 -254 247 -46 0 160 -265 457 -407 457 -51 0 -93 81 -93 180 0 99 -49 229 -109 289 -74 74 -76 129 -5 173 57 35 157 -39 221 -164 65 -125 245 -330 399 -455 155 -126 352 -369 438 -541 191 -384 192 -389 6 -318 -271 104 -157 -135 192 -401 215 -164 366 -381 407 -587 117 -582 158 -665 359 -729 344 -109 692 -562 628 -817 -32 -127 -18 -230 32 -230 49 0 169 -135 266 -300 199 -337 416 -404 338 -103 -36 137 10 216 156 262 154 49 273 -11 465 -236 141 -165 371 -327 510 -358 139 -32 404 -193 589 -358 266 -238 374 -279 522 -200 218 117 243 477 51 739 -162 222 -404 113 -335 -150 33 -125 4 -164 -92 -127 -77 29 -167 161 -200 292 -57 230 -338 345 -338 139 0 -153 -260 -119 -402 52 -159 192 -67 288 281 293 233 4 271 47 274 305 4 454 -126 672 -335 560 -109 -59 -241 -55 -355 9 -225 126 -418 -32 -327 -269 44 -114 158 -153 378 -131 174 17 332 -15 352 -72 21 -60 -170 -112 -458 -125 -461 -20 -504 -1 -648 289 -239 477 -396 1475 -259 1641 89 106 51 168 -176 285 -304 157 -825 855 -825 1105 0 80 47 175 105 211 115 71 -59 347 -218 347 -49 0 -274 134 -500 298 -227 164 -456 271 -509 238 -99 -61 463 -636 622 -636 49 0 112 -38 141 -86 29 -47 -58 -64 -194 -38 -136 26 -248 8 -249 -39 0 -48 -41 -149 -89 -226 -69 -108 -154 -65 -395 200 -346 381 -382 489 -164 489 180 0 204 196 25 210 -69 6 -271 2 -450 -8 -381 -20 -413 107 -100 404 190 180 307 205 756 160 325 -32 680 0 914 82 305 108 522 113 1069 23 377 -62 1178 -104 1779 -93 939 18 1122 48 1306 221 118 111 269 201 336 201 199 0 1390 931 1506 1178 193 410 717 478 1311 171z m1543 62 c-155 -144 -545 -234 -545 -125 0 86 160 145 545 200 60 9 60 -19 0 -75z m455 -17 c0 -58 -45 -78 -100 -44 -55 34 -100 82 -100 106 0 24 45 44 100 44 55 0 100 -48 100 -106z m2249 -95 c-99 -110 -203 -179 -229 -152 -67 67 182 353 308 353 57 0 21 -90 -79 -201z m-10088 -157 c-34 -87 -64 -233 -68 -325 -6 -133 -24 -127 -93 33 -133 310 -115 450 61 450 105 0 140 -54 100 -158z m10939 49 c0 -60 -90 -224 -200 -364 -110 -140 -200 -338 -200 -440 0 -248 -166 -238 -302 17 -123 229 -58 522 166 745 174 175 536 203 536 42z m-3350 -91 c-34 -55 -183 -99 -331 -98 -210 1 -236 22 -119 98 198 128 529 128 450 0z m-7190 -473 c-33 -33 -56 26 -52 131 5 117 28 141 60 61 29 -72 26 -159 -8 -192z m2440 67 c0 -52 -45 -94 -100 -94 -55 0 -100 70 -100 156 0 86 45 128 100 94 55 -34 100 -104 100 -156z m6704 -219 c44 -1256 203 -2238 442 -2726 147 -301 239 -592 205 -648 -35 -55 21 -101 124 -101 414 0 732 -513 1333 -2144 314 -853 343 -1185 159 -1795 l-117 -390 -262 667 c-271 690 -242 852 118 659 285 -153 367 -43 148 199 -166 183 -203 186 -532 49 -224 -94 -482 -124 -702 -83 l-349 66 240 132 c131 73 316 135 409 136 94 2 285 56 425 120 428 195 339 571 -314 1326 -313 362 -606 658 -651 658 -46 0 -170 -55 -277 -121 -225 -141 -380 -43 -227 144 181 220 166 504 -63 1253 -229 747 -459 2361 -369 2593 63 167 255 171 260 6z m-7504 -225 c0 -82 -45 -150 -100 -150 -55 0 -100 68 -100 150 0 83 45 150 100 150 55 0 100 -67 100 -150z m6841 -249 c6 -191 -41 -301 -127 -301 -82 0 -112 62 -75 158 34 87 61 252 61 367 0 323 131 115 141 -224z m-7841 205 c0 -52 -45 -122 -100 -156 -55 -34 -100 8 -100 94 0 86 45 156 100 156 55 0 100 -42 100 -94z m-1200 -112 c0 -58 -45 -78 -100 -44 -55 34 -100 82 -100 106 0 24 45 44 100 44 55 0 100 -48 100 -106z m8500 6 c0 -55 -124 -99 -275 -98 -214 1 -242 22 -125 98 196 126 400 126 400 0z m1853 -161 c145 -95 371 -144 547 -118 235 35 300 7 300 -130 0 -129 -133 -203 -508 -283 -280 -60 -541 -90 -579 -66 -86 53 -143 758 -63 758 32 0 168 -73 303 -161z m-1992 -497 c-34 -87 -61 -177 -61 -200 0 -23 -180 -42 -400 -42 -220 0 -400 45 -400 100 0 55 110 100 244 100 134 0 272 45 306 100 105 170 378 118 311 -58z m2839 -372 c0 -186 -209 -370 -420 -370 -113 0 -180 -74 -180 -200 0 -110 -67 -200 -148 -200 -166 0 -309 427 -201 601 161 262 949 402 949 169z m-15900 -275 c0 -146 -473 -455 -562 -366 -20 19 19 152 87 295 134 284 475 335 475 71z m12675 -64 c-96 -25 -254 -25 -350 0 -96 25 -17 46 175 46 193 0 271 -21 175 -46z m523 -536 c-67 -162 -162 -295 -210 -295 -129 0 -109 128 80 506 198 397 308 218 130 -211z m-626 205 c30 0 -59 -90 -199 -200 -297 -234 -373 -248 -373 -70 0 192 224 382 380 322 75 -29 161 -52 192 -52z m-9372 -300 c0 -55 -48 -100 -106 -100 -58 0 -78 45 -44 100 34 55 82 100 106 100 24 0 44 -45 44 -100z m-4000 -200 c0 -55 -45 -100 -100 -100 -55 0 -100 45 -100 100 0 55 45 100 100 100 55 0 100 -45 100 -100z m4549 -556 c158 -251 369 -500 469 -553 151 -82 160 -128 57 -294 -146 -234 -275 -256 -275 -47 0 191 -189 196 -261 7 -30 -79 47 -281 171 -449 253 -342 211 -480 -97 -315 -123 66 -232 258 -273 483 -38 206 -129 463 -204 571 -75 109 -136 300 -136 425 0 126 -40 228 -89 228 -49 0 -117 73 -151 161 -44 114 -19 145 86 105 81 -32 174 -14 207 38 106 173 203 102 496 -360z m8926 331 c-22 -69 -145 -177 -271 -241 -432 -217 -557 -713 -204 -805 395 -103 206 -279 -300 -279 -560 0 -623 62 -240 236 210 96 238 146 142 262 -168 202 -48 467 326 718 366 245 608 293 547 109z m-13175 -125 c0 -82 -45 -150 -100 -150 -55 0 -100 68 -100 150 0 83 45 150 100 150 55 0 100 -67 100 -150z m14100 -450 c0 -55 -90 -190 -200 -300 -110 -110 -207 -324 -215 -475 -10 -174 -38 -110 -78 175 -47 333 -25 482 84 575 177 150 409 164 409 25z m-15100 -550 c0 -82 -54 -150 -121 -150 -66 0 -291 -167 -500 -370 -208 -204 -379 -316 -379 -250 0 66 -90 120 -200 120 -110 0 -200 65 -200 145 0 176 846 569 1053 490 81 -31 147 -7 147 54 0 61 45 111 100 111 55 0 100 -67 100 -150z m5998 -797 c2 -186 -7 -184 -154 25 -85 122 -125 272 -87 333 88 142 239 -83 241 -358z m8711 -563 c-262 -354 -265 -608 -9 -840 134 -121 200 -308 200 -565 0 -212 45 -385 100 -385 55 0 100 34 101 75 1 110 587 425 792 425 97 0 257 -90 357 -200 100 -110 238 -200 308 -200 141 0 442 -269 442 -394 0 -44 -177 -302 -393 -573 -480 -603 -430 -784 177 -648 233 53 441 56 471 7 29 -47 -72 -113 -226 -145 -153 -33 -359 -102 -456 -155 -225 -122 -570 48 -582 287 -4 94 -1 407 8 695 21 714 -60 926 -354 926 -172 0 -312 -110 -480 -376 -351 -557 -528 -682 -645 -455 -97 189 -91 477 21 981 57 253 12 359 -287 681 -195 209 -354 465 -354 568 0 109 191 325 450 512 248 177 456 372 464 431 7 59 34 1 58 -131 28 -144 -37 -350 -163 -521z m3591 554 c0 -86 -45 -128 -100 -94 -55 34 -100 104 -100 156 0 52 45 94 100 94 55 0 100 -70 100 -156z m-5000 -1544 c0 -55 -48 -100 -106 -100 -58 0 -78 -45 -44 -100 34 -55 163 -100 286 -100 275 0 464 -176 464 -432 0 -140 -34 -166 -125 -94 -69 54 -246 127 -394 163 -269 64 -925 586 -841 669 95 94 760 88 760 -6z m-1732 -1160 c33 -88 5 -195 -64 -238 -299 -184 113 -181 645 6 684 240 1284 226 1333 -33 25 -137 -36 -175 -281 -175 -173 0 -402 47 -509 104 -152 81 -208 70 -255 -53 -35 -89 -131 -135 -224 -106 -90 28 -230 8 -312 -43 -126 -79 -115 -125 75 -301 289 -270 304 -603 24 -530 -312 82 -235 -148 109 -326 170 -88 284 -185 254 -216 -78 -77 122 -429 243 -429 150 0 1001 -614 1369 -986 179 -181 325 -416 325 -522 0 -282 -165 -234 -309 91 -68 156 -263 341 -433 413 -508 213 -1035 605 -1089 810 -27 106 -187 271 -354 367 -300 172 -411 382 -414 780 -1 139 -132 264 -422 400 -466 218 -613 447 -287 447 251 0 272 154 38 285 -144 81 -150 121 -38 255 171 206 497 206 576 0z m6662 -1399 c-60 -418 -161 -812 -225 -876 -89 -87 -105 -50 -69 154 27 148 3 285 -53 303 -67 23 -59 188 25 481 70 246 117 487 105 537 -13 49 3 158 35 242 45 115 86 124 175 35 88 -88 90 -305 7 -876z m-4594 609 c-31 -82 -98 -150 -147 -150 -49 0 -89 68 -89 150 0 83 66 150 147 150 89 0 124 -59 89 -150z m-15436 -106 c0 -86 -46 -128 -102 -93 -56 35 -75 105 -44 156 86 139 146 113 146 -63z m15168 -808 c182 -76 332 -202 332 -278 0 -77 137 -256 305 -397 261 -219 334 -239 506 -134 173 105 229 90 393 -110 105 -128 234 -205 288 -172 120 74 308 -256 308 -538 0 -117 65 -207 150 -207 189 0 190 133 1 497 -114 221 -120 299 -25 337 83 34 74 53 -26 58 -193 10 -730 679 -649 810 34 55 282 -86 557 -318 369 -311 480 -466 435 -606 -33 -103 0 -259 73 -347 73 -88 136 -379 142 -647 8 -429 -13 -480 -174 -429 -235 75 -234 -64 2 -367 315 -404 550 -917 397 -866 -73 24 -178 131 -233 238 -55 107 -203 337 -328 512 -126 175 -292 529 -370 787 -176 585 -598 1045 -946 1030 l-256 -10 257 -103 c251 -100 610 -536 755 -917 48 -129 36 -169 -39 -123 -61 37 -152 -6 -203 -97 -84 -150 -113 -146 -307 48 -117 117 -213 301 -213 410 0 215 -302 549 -1028 1135 -605 489 -932 927 -1020 1368 l-70 350 327 -387 c179 -214 476 -450 659 -527z m1007 367 c234 -106 425 -240 425 -298 0 -140 -231 -134 -375 10 -64 64 -261 112 -438 107 -351 -10 -687 128 -687 282 0 162 625 103 1075 -101z m3025 -947 c0 -159 -181 -308 -269 -220 -82 82 46 364 166 364 57 0 103 -65 103 -144z m-11400 -601 c-267 -148 -361 -134 -254 38 36 59 164 105 285 103 211 -3 210 -8 -31 -141z m750 -155 c-34 -55 -172 -100 -306 -100 -134 0 -244 45 -244 100 0 55 138 100 306 100 178 0 280 -42 244 -100z m1413 -169 c75 -29 137 -93 137 -142 0 -121 -273 -113 -350 11 -76 123 -550 133 -550 12 0 -49 101 -124 225 -167 186 -65 150 -85 -207 -118 -239 -22 -495 12 -571 75 -76 64 -185 86 -243 51 -57 -36 -104 -25 -104 23 0 48 146 162 325 254 306 156 933 157 1338 1z m3987 69 c34 -55 -31 -100 -144 -100 -113 0 -206 45 -206 100 0 55 65 100 144 100 79 0 172 -45 206 -100z m5050 0 c0 -55 -157 -100 -350 -100 -192 0 -350 45 -350 100 0 55 158 100 350 100 193 0 350 -45 350 -100z m-16301 -498 c234 -296 297 -456 245 -619 -38 -122 -63 -471 -55 -777 27 -1079 -227 -1521 -348 -606 -37 275 -103 500 -147 500 -44 0 -94 101 -112 225 -47 333 -236 175 -209 -175 47 -594 465 -2203 604 -2318 78 -64 151 -299 162 -521 11 -222 52 -436 91 -474 105 -105 85 -837 -23 -837 -52 0 -124 101 -161 225 -38 124 -127 360 -198 525 -308 709 -553 1492 -507 1613 28 72 -35 459 -139 859 -104 400 -212 931 -239 1178 -28 248 -53 461 -57 475 -3 14 -51 25 -106 25 -177 0 -107 -871 130 -1621 141 -445 205 -826 165 -979 -59 -225 -73 -210 -137 150 -110 621 -253 919 -359 748 -68 -109 -112 -78 -193 137 -58 153 -106 320 -106 372 0 51 -45 93 -100 93 -172 0 -111 -250 233 -962 184 -378 506 -1138 716 -1688 210 -550 474 -1133 587 -1295 298 -427 555 -955 465 -955 -76 0 -801 841 -801 930 0 106 -710 1215 -825 1288 -100 63 -100 79 0 80 69 1 125 55 125 119 0 115 -352 1065 -671 1811 -178 415 -341 439 -432 65 -55 -225 -64 -219 -128 95 -113 553 -93 682 73 456 201 -275 318 -99 153 231 -143 288 -165 364 -183 650 -7 96 -83 175 -171 175 -130 0 -146 -73 -91 -400 44 -263 30 -400 -41 -400 -157 0 -134 -462 41 -799 88 -171 110 -314 55 -348 -167 -103 -316 337 -325 955 -5 391 -47 586 -119 562 -183 -61 -99 -1104 130 -1622 306 -694 256 -738 -151 -133 -396 588 -571 1456 -349 1724 76 92 83 165 19 205 -169 104 -349 -368 -341 -894 4 -280 123 -804 271 -1190 273 -719 284 -945 26 -544 -314 487 -691 1886 -623 2310 57 356 46 389 -89 277 -278 -230 -116 -1396 359 -2591 141 -355 44 -359 -250 -10 -346 413 -612 1310 -600 2031 8 502 -10 563 -132 441 -78 -78 -155 -269 -171 -426 -46 -430 273 -1546 582 -2036 339 -537 112 -497 -261 46 -362 526 -825 1953 -742 2285 53 210 29 257 -129 257 -106 0 -217 56 -245 125 -39 92 -89 80 -190 -44 -159 -194 -75 -1322 167 -2247 76 -294 104 -534 61 -534 -149 0 -285 252 -352 650 -38 220 -109 537 -160 704 -51 167 -100 583 -110 925 -12 453 -54 621 -155 621 -109 0 -128 -141 -89 -660 28 -364 97 -870 155 -1125 57 -256 130 -634 161 -840 31 -206 99 -375 152 -375 52 0 95 -67 95 -150 0 -200 -362 -193 -439 8 -34 87 -62 278 -62 425 -1 147 -72 469 -159 717 -100 290 -153 775 -149 1365 8 935 62 1229 252 1358 169 116 1054 86 1657 -55 303 -71 964 -141 1470 -155 837 -24 932 -8 1049 180 91 146 234 207 482 207 193 0 509 87 701 194 578 323 930 270 1297 -192z m11001 55 c0 -79 -79 -167 -175 -195 -295 -86 -1012 -108 -1087 -33 -39 39 37 74 170 79 133 4 400 68 592 142 458 176 500 177 500 7z m1042 -18 c87 -33 158 -123 158 -200 0 -188 -70 -175 -323 61 -212 198 -142 257 165 139z m-6292 -139 c34 -55 -8 -100 -94 -100 -86 0 -156 45 -156 100 0 55 42 100 94 100 52 0 122 -45 156 -100z m3400 -52 l300 -144 -450 16 c-247 8 -580 -39 -739 -105 -311 -130 -500 -64 -258 89 103 65 4 93 -328 94 -261 1 -475 47 -475 102 0 157 1601 114 1950 -52z m-2200 -148 c-34 -55 -152 -100 -262 -100 -110 0 -172 45 -138 100 34 55 152 100 262 100 110 0 172 -45 138 -100z m9648 -481 c-1 -146 -14 -148 -98 -19 -127 196 -127 328 0 250 55 -34 99 -138 98 -231z m-15773 42 c205 -156 211 -378 25 -861 l-135 -350 -7 336 c-6 255 -44 322 -158 278 -115 -44 -150 20 -150 272 0 476 113 562 425 325z m15775 -517 c0 -24 -45 -44 -100 -44 -55 0 -100 48 -100 106 0 58 45 78 100 44 55 -34 100 -82 100 -106z m-21994 -1583 c119 -326 301 -732 405 -902 206 -339 234 -459 104 -459 -394 0 -900 1161 -959 2200 -41 719 69 890 162 252 39 -274 169 -765 288 -1091z m21290 944 c6 -236 -164 14 -234 345 l-64 300 148 -250 c81 -137 149 -315 150 -395z m-14665 -248 c-11 -408 -71 -933 -134 -1167 -128 -478 -148 -1865 -44 -3243 54 -726 20 -1259 -157 -2452 -210 -1412 -214 -1534 -61 -1646 91 -67 165 -167 165 -224 0 -173 -276 -645 -326 -557 -190 330 -259 2400 -95 2832 56 149 68 1018 29 2150 -36 1048 -27 1927 21 1961 48 33 71 607 51 1275 -20 668 -1 1214 42 1214 43 0 78 -274 78 -608 0 -443 34 -597 125 -567 76 26 127 233 129 533 8 872 44 1242 121 1242 41 0 66 -334 56 -743z m378 -57 l-67 -450 -73 431 c-74 437 -10 706 131 553 42 -46 46 -286 9 -534z m-1109 -400 c0 -434 -40 -813 -90 -844 -162 -100 -199 218 -103 894 52 367 65 715 28 774 -39 63 -19 78 50 36 71 -45 115 -372 115 -860z m-2475 -451 c26 -140 9 -278 -38 -307 -137 -85 -101 -242 55 -242 167 0 244 -180 180 -425 -77 -298 -185 -196 -357 336 -175 544 -205 815 -101 920 104 103 209 -10 261 -282z m3563 -2249 c7 -577 -61 -1715 -152 -2528 -146 -1316 -143 -1713 12 -1557 27 26 73 383 104 792 31 408 73 833 94 943 21 110 44 425 49 700 9 410 31 466 119 313 70 -119 87 -515 48 -1100 -180 -2702 -227 -3150 -341 -3288 -69 -83 -153 -587 -189 -1122 -48 -741 -88 -928 -166 -789 -123 219 -147 1513 -40 2111 63 353 50 425 -82 425 -134 0 -148 88 -90 575 37 316 133 890 212 1275 92 443 134 1122 116 1850 -51 1995 -27 3240 67 3550 81 267 99 223 159 -400 37 -385 73 -1172 80 -1750z m-8688 2200 c0 -55 -42 -100 -94 -100 -52 0 -122 45 -156 100 -34 55 8 100 94 100 86 0 156 -45 156 -100z m23600 -168 c0 -127 -28 -133 -149 -33 -82 68 -124 164 -93 214 79 128 242 6 242 -181z m-18900 68 c0 -55 -45 -100 -100 -100 -55 0 -100 45 -100 100 0 55 45 100 100 100 55 0 100 -45 100 -100z m-204 -931 c-2 -65 -114 16 -249 181 -321 391 -315 585 6 219 136 -154 245 -334 243 -400z m11200 506 c-2 -69 -94 -282 -205 -475 l-200 -350 64 399 c35 220 84 434 110 475 75 122 235 88 231 -49z m-10661 -772 c-76 -78 -232 232 -225 447 5 155 36 132 139 -100 73 -165 112 -321 86 -347z m-4485 -103 c79 -128 -252 -128 -450 0 -117 76 -91 97 119 98 148 1 297 -43 331 -98z m4750 -362 c0 -141 -44 -223 -100 -188 -55 34 -100 174 -100 312 0 141 44 223 100 188 55 -34 100 -174 100 -312z m-707 -213 c-6 -244 -17 -252 -93 -75 -117 273 -117 350 0 350 55 0 97 -124 93 -275z m-2321 -499 c-23 -152 -43 -51 -43 224 -1 275 18 399 41 276 24 -123 25 -348 2 -500z m-503 99 c-25 -96 -46 -17 -46 175 0 193 21 271 46 175 25 -96 25 -254 0 -350z m4051 -199 c81 -98 132 -104 182 -22 43 69 192 -77 379 -370 425 -665 673 -934 860 -934 115 0 159 -97 159 -350 0 -192 -23 -350 -51 -350 -28 0 -456 416 -952 925 -900 925 -1081 1220 -948 1550 62 152 83 144 165 -70 52 -134 145 -305 206 -379z m-3149 -451 c-24 -124 -44 -23 -44 225 0 248 20 349 44 225 23 -124 23 -326 0 -450z m14118 -290 c-4 -655 33 -866 190 -1077 155 -211 358 -1008 256 -1008 -14 0 -100 158 -192 350 -103 218 -237 350 -354 350 -104 0 -189 19 -189 42 0 23 -28 113 -61 201 -46 121 -19 143 115 92 161 -62 169 -20 93 474 -96 633 -101 1006 -15 1230 122 318 163 148 157 -654z m6771 542 c-33 -33 -56 26 -52 131 5 117 28 141 60 61 29 -72 26 -159 -8 -192z m-22160 -344 c0 -284 -28 -488 -63 -453 -91 90 -102 970 -12 970 41 0 75 -232 75 -517z m2060 -156 c-33 -33 -56 26 -52 131 5 117 28 141 60 61 29 -72 26 -159 -8 -192z m640 -1577 c0 -959 -39 -1650 -94 -1650 -55 0 -75 468 -50 1142 24 628 44 1371 44 1650 0 279 23 508 50 508 28 0 50 -742 50 -1650z m1100 77 c0 -803 -32 -1428 -72 -1389 -105 106 -121 2970 -16 2905 48 -30 88 -712 88 -1516z m10698 -302 c1 -69 -41 -125 -94 -125 -52 0 -185 304 -294 675 -343 1165 -332 1305 34 425 194 -467 354 -906 354 -975z m-12398 -25 c0 -935 -40 -1700 -89 -1700 -50 0 -92 101 -94 225 -10 537 111 3175 145 3175 21 0 38 -765 38 -1700z m14460 1427 c-33 -33 -56 26 -52 131 5 117 28 141 60 61 29 -72 26 -159 -8 -192z m-15267 -302 c-5 -357 -28 -425 -93 -275 -120 280 -120 750 0 750 55 0 97 -214 93 -475z m13704 -25 c0 -133 -11 -133 -97 0 -53 83 -97 218 -97 300 0 133 11 133 97 0 53 -82 97 -217 97 -300z m7595 -400 c1 -113 -35 -102 -145 44 -81 107 -143 309 -139 450 8 255 9 255 146 -44 75 -165 138 -367 138 -450z m-5892 500 c0 -55 -45 -100 -100 -100 -55 0 -100 45 -100 100 0 55 45 100 100 100 55 0 100 -45 100 -100z m-1926 -659 c-128 -128 -274 84 -268 390 l7 319 161 -324 c89 -178 134 -351 100 -385z m-10408 -168 c-28 -68 -49 12 -47 177 3 165 25 220 50 123 26 -97 24 -232 -3 -300z m-4866 -23 c0 -82 11 -180 25 -217 14 -36 -31 -85 -100 -108 -81 -27 -117 49 -103 217 23 271 178 366 178 108z m1297 -175 c-3 -276 -19 -298 -108 -144 -58 100 -81 246 -51 325 93 241 162 162 159 -181z m-1697 125 c0 -55 -45 -100 -100 -100 -55 0 -100 45 -100 100 0 55 45 100 100 100 55 0 100 -45 100 -100z m4060 -173 c-33 -33 -56 26 -52 131 5 117 28 141 60 61 29 -72 26 -159 -8 -192z m13138 -852 c2 -579 62 -675 282 -455 93 93 120 82 120 -50 0 -93 -42 -170 -94 -170 -51 0 -107 -143 -125 -317 -61 -617 -231 -388 -255 342 -13 399 -50 905 -81 1125 -42 295 -29 360 48 250 57 -82 105 -409 105 -725z m6383 572 c-31 -30 -87 25 -125 124 -54 142 -42 154 56 56 69 -68 99 -149 69 -180z m-19573 -1222 c-85 -146 -102 -123 -105 136 -2 171 31 531 72 800 l75 489 30 -625 c16 -344 -16 -704 -72 -800z m11985 952 c62 -177 71 -278 21 -225 -107 114 -250 548 -181 548 26 0 98 -145 160 -323z m-13793 -183 c0 -245 -40 -381 -100 -344 -169 105 -112 750 67 750 18 0 33 -183 33 -406z m10966 -419 c-28 -69 -50 -12 -50 125 0 138 22 194 50 125 28 -69 28 -181 0 -250z m3727 -306 c-5 -326 -26 -374 -93 -219 -122 283 -122 775 0 700 55 -34 97 -250 93 -481z m-17099 -707 c-93 -86 -107 -54 -59 138 34 138 70 340 80 450 9 110 36 48 58 -138 23 -188 -12 -387 -79 -450z m1935 438 c-29 -110 -92 -200 -141 -200 -101 0 -120 335 -24 431 116 116 218 -27 165 -231z m771 156 c0 -79 -45 -172 -100 -206 -55 -34 -100 31 -100 144 0 113 45 206 100 206 55 0 100 -65 100 -144z m2924 -206 c27 -137 10 -250 -38 -250 -47 0 -86 113 -86 250 0 138 17 250 38 250 21 0 60 -112 86 -250z m900 0 c-53 -278 -125 -309 -304 -130 -166 166 -150 313 27 245 81 -31 173 -13 206 39 98 160 122 109 71 -154z m-6824 -100 c0 -82 -18 -150 -39 -150 -22 0 -66 68 -97 150 -32 83 -14 150 39 150 53 0 97 -67 97 -150z m16900 -512 c0 -82 -45 -122 -100 -88 -55 34 -100 129 -100 212 0 82 45 122 100 88 55 -34 100 -129 100 -212z m-15800 -38 c0 -55 -48 -100 -106 -100 -58 0 -78 45 -44 100 34 55 82 100 106 100 24 0 44 -45 44 -100z m4000 -109 c193 -50 744 -90 1225 -90 711 -1 875 -29 875 -151 0 -82 -34 -156 -75 -163 -345 -59 -794 -88 -1474 -94 -445 -5 -827 -55 -864 -114 -37 -61 -93 -16 -132 105 -71 223 -148 237 -1328 248 -342 3 -655 -27 -695 -66 -39 -40 7 -206 104 -369 245 -414 66 -371 -224 54 -251 369 -480 448 -576 199 -60 -157 -336 -211 -336 -66 0 115 801 519 1215 614 389 89 1774 24 2285 -107z m17800 -335 c0 -265 -169 -431 -298 -292 -101 107 55 536 195 536 57 0 103 -110 103 -244z m-9749 -381 c-61 -504 154 -2232 312 -2502 39 -68 -31 -33 -156 77 -407 357 -646 948 -652 1614 -4 459 41 665 177 815 120 133 144 224 73 268 -141 87 -37 253 158 253 124 0 140 -95 88 -525z m7757 193 c-46 -46 -213 -69 -371 -50 l-287 33 300 155 c294 151 549 53 358 -138z m-11328 -345 c-127 -460 -51 -1372 156 -1860 90 -213 164 -398 164 -411 0 -108 -527 112 -601 250 -270 504 -192 2094 120 2471 180 217 273 -43 161 -450z m552 -536 c34 -679 110 -1103 259 -1440 233 -527 221 -614 -67 -460 -113 61 -282 375 -410 765 -177 540 -206 794 -154 1380 34 395 85 756 112 802 125 208 216 -159 260 -1047z m2442 944 c-93 -93 -203 -136 -244 -95 -41 41 -8 117 73 168 243 154 352 108 171 -73z m-3552 -291 c-15 -159 -37 -706 -50 -1215 -13 -562 -61 -912 -122 -891 -232 76 -316 1315 -137 2026 123 490 354 550 309 80z m8378 260 c0 -55 -48 -100 -106 -100 -58 0 -78 45 -44 100 34 55 82 100 106 100 24 0 44 -45 44 -100z m4900 -106 c0 -52 -45 -94 -100 -94 -55 0 -100 70 -100 156 0 86 45 128 100 94 55 -34 100 -104 100 -156z m-18447 -99 c36 -57 35 -181 -1 -275 -61 -156 -78 -154 -209 24 -79 107 -143 231 -143 275 0 118 277 99 353 -24z m-2453 -38 c0 -23 -71 -113 -157 -200 -231 -231 -405 -192 -193 43 164 182 350 265 350 157z m987 -612 c180 -360 312 -688 295 -728 -18 -40 -200 255 -406 655 -206 400 -338 728 -294 728 44 0 226 -295 405 -655z m20925 -403 c34 -491 94 -1436 133 -2102 l71 -1210 -583 -107 c-321 -58 -760 -152 -976 -208 -286 -74 -450 -70 -600 16 -194 111 -186 121 118 150 191 19 325 87 325 167 0 176 -726 299 -976 165 -282 -151 -612 -38 -552 190 53 204 513 347 812 252 228 -72 524 212 302 291 -212 76 -1520 11 -1668 -82 -152 -97 -266 -22 -179 118 47 76 909 380 1636 578 69 18 125 85 125 148 0 163 -629 33 -1287 -265 -295 -134 -579 -243 -631 -243 -181 0 35 205 428 405 493 251 425 454 -81 243 -406 -170 -515 -144 -267 63 91 76 531 184 976 239 671 83 817 133 846 289 30 157 -4 178 -199 120 -129 -38 -505 -110 -835 -159 -330 -49 -708 -122 -841 -161 -158 -46 -218 -35 -175 35 74 120 1390 605 1758 648 133 15 263 91 289 168 36 110 -28 127 -293 77 -617 -116 -676 -118 -707 -21 -36 113 350 321 744 402 162 33 275 122 275 216 0 119 -56 142 -225 90 -556 -173 -675 -177 -675 -28 0 94 166 192 444 262 620 156 770 143 735 -63 -24 -143 41 -173 360 -162 251 8 423 72 483 180 78 140 120 146 251 38 130 -108 174 -101 266 45 207 327 311 108 373 -784z m-5712 765 c0 -52 -46 -215 -102 -362 -109 -287 -160 -1217 -71 -1305 120 -120 863 172 924 362 34 109 105 198 157 198 55 0 59 -72 9 -175 -46 -96 -148 -306 -226 -467 -77 -160 -284 -371 -459 -469 -313 -174 -319 -173 -470 57 -246 375 -291 715 -167 1277 64 290 137 628 163 752 44 216 242 324 242 132z m2539 -89 c47 -76 -747 -522 -917 -515 -119 4 618 591 747 594 66 2 142 -34 170 -79z m-14142 -518 c0 -133 -11 -133 -97 0 -53 83 -97 218 -97 300 0 133 11 133 97 0 53 -82 97 -217 97 -300z m6359 -103 c21 -246 51 -532 66 -636 43 -292 -173 -298 -305 -9 -128 280 -159 973 -48 1083 147 148 251 -10 287 -438z m-814 342 c102 -39 158 -183 158 -408 0 -191 135 -655 300 -1031 345 -785 348 -800 160 -800 -216 0 -727 890 -850 1480 -173 834 -151 906 232 759z m-593 -514 c33 -261 146 -662 249 -890 205 -450 182 -535 -146 -535 -241 0 -578 657 -682 1330 -51 327 -28 393 160 469 344 138 354 129 419 -374z m9251 284 c0 -97 -906 -437 -976 -366 -54 54 684 447 851 453 69 2 125 -37 125 -87z m-100 -498 c0 -75 -698 -411 -852 -411 -159 0 0 188 277 325 371 185 575 215 575 86z m4196 14 c-2 -41 -91 -232 -196 -425 -203 -371 -273 -205 -102 243 88 232 308 366 298 182z m-18596 -781 c0 -79 -45 -144 -100 -144 -55 0 -100 93 -100 206 0 113 45 178 100 144 55 -34 100 -127 100 -206z m-2800 -100 c0 -86 -45 -128 -100 -94 -55 34 -100 104 -100 156 0 52 45 94 100 94 55 0 100 -70 100 -156z m15941 -380 c-54 -141 -462 -364 -665 -364 -63 0 38 113 224 250 380 280 519 316 441 114z m-1141 -462 c0 -145 -982 -894 -1267 -965 -446 -112 -494 127 -70 345 213 109 496 315 629 458 235 252 708 360 708 162z m-15600 -202 c0 -55 -45 -100 -100 -100 -55 0 -100 45 -100 100 0 55 45 100 100 100 55 0 100 -45 100 -100z m1415 -490 c-19 -281 -64 -492 -100 -470 -36 23 -49 270 -30 550 19 281 64 492 100 470 36 -23 49 -270 30 -550z m11235 490 c34 -55 -6 -100 -88 -100 -83 0 -178 45 -212 100 -34 55 6 100 88 100 83 0 178 -45 212 -100z m1550 -100 c-238 -186 -500 -262 -500 -145 0 51 587 335 700 339 28 1 -62 -86 -200 -194z m1489 -411 c-416 -389 -935 -789 -1023 -789 -36 0 -66 59 -66 131 0 133 1310 1092 1386 1016 23 -23 -111 -184 -297 -358z m1119 219 c-106 -106 -286 -243 -400 -304 -115 -61 -208 -173 -208 -248 0 -213 -993 -1003 -1111 -885 -114 114 814 1056 1275 1294 157 81 329 190 381 241 52 52 131 94 175 94 44 0 -7 -87 -112 -192z m1192 -186 c0 -43 -135 -129 -300 -191 -323 -122 -413 -7 -125 161 210 123 425 138 425 30z m-1043 -653 c-161 -120 -531 -410 -823 -644 -503 -403 -742 -518 -727 -350 3 41 307 333 675 648 436 374 755 572 918 570 l250 -4 -293 -220z m893 131 c-34 -55 -138 -99 -231 -98 -146 1 -148 14 -19 98 196 127 328 127 250 0z m-17958 -1039 c-91 -85 -105 -52 -57 139 34 138 71 408 82 600 14 266 28 232 57 -139 23 -298 -9 -532 -82 -600z m18908 689 c0 -188 -131 -255 -298 -151 -115 71 -116 113 -9 242 143 173 307 124 307 -91z m-846 -43 c-36 -59 -139 -107 -229 -107 -137 0 -131 23 31 142 209 153 304 136 198 -35z m-654 0 c0 -136 -501 -507 -685 -507 -101 0 -33 106 189 296 362 310 496 367 496 211z m757 -459 c-205 -156 -320 -131 -211 45 36 59 142 106 235 104 148 -3 145 -21 -24 -149z m-17457 -160 c0 -55 -45 -72 -100 -38 -55 34 -100 107 -100 162 0 55 45 72 100 38 55 -34 100 -107 100 -162z m16541 -174 c58 -93 -923 -665 -1003 -585 -67 67 679 671 829 671 67 0 145 -39 174 -86z m-13041 -1320 c0 -52 -45 -94 -100 -94 -55 0 -100 70 -100 156 0 86 45 128 100 94 55 -34 100 -104 100 -156z m13168 52 c35 -105 -855 -393 -943 -305 -75 76 609 464 767 435 78 -14 157 -73 176 -130z m1155 -620 c-24 -234 -84 -400 -133 -370 -130 81 -110 584 28 722 155 155 158 146 105 -352z m-1437 -315 c215 -137 -8 -202 -473 -140 -286 38 -384 86 -296 142 172 109 595 108 769 -2z m-1286 -152 c0 -57 -1326 -559 -1477 -559 -68 0 -123 61 -123 136 0 86 82 122 225 97 124 -22 383 46 575 151 316 173 800 279 800 175z m-16986 -535 c255 -261 580 -699 723 -975 245 -475 573 -849 743 -849 42 0 157 -135 254 -300 172 -291 172 -300 -18 -300 -124 0 -397 264 -755 732 -309 402 -561 767 -561 811 0 43 -87 175 -193 293 -436 483 -807 944 -807 1002 0 150 182 27 614 -414z m17960 -178 c371 -177 452 -401 101 -284 -124 41 -585 82 -1025 90 -1025 18 -1085 37 -600 187 583 181 1152 183 1524 7z m4138 -1414 c-110 -540 -228 -1117 -262 -1282 -92 -441 -124 -639 -397 -2444 -252 -1662 -331 -2036 -345 -1637 -4 121 -46 243 -93 272 -46 28 -49 267 -6 530 44 264 83 682 88 929 6 248 97 630 203 850 132 274 195 621 198 1100 4 622 321 1957 665 2800 174 427 148 -142 -51 -1118z m-4312 771 c0 -53 -67 -71 -150 -39 -82 31 -150 75 -150 97 0 21 68 39 150 39 83 0 150 -44 150 -97z m-18334 -1803 c367 -772 929 -2415 932 -2725 1 -96 -64 -175 -145 -175 -95 0 -201 204 -299 575 -83 316 -329 1116 -547 1776 -217 661 -425 1291 -461 1400 -123 377 146 -64 520 -851z m434 478 c0 -56 230 -367 512 -692 436 -504 503 -634 453 -885 -41 -207 -13 -320 94 -380 134 -75 131 -122 -28 -402 -100 -175 -208 -318 -241 -318 -32 -1 -158 341 -280 758 -121 417 -353 1033 -515 1368 -336 692 -356 790 -145 709 83 -31 150 -103 150 -158z m17599 -173 c136 -105 226 -213 200 -239 -27 -27 -184 60 -349 192 -353 284 -216 326 149 47z m-3451 -1433 c81 -115 124 -233 96 -261 -47 -48 -151 56 -835 833 l-259 293 425 -327 c234 -180 492 -422 573 -538z m2327 -81 c605 -578 526 -661 -175 -183 -330 225 -600 451 -600 501 0 215 381 59 775 -318z m-138 -552 c323 -254 609 -545 636 -647 27 -102 134 -212 238 -245 104 -33 318 -249 477 -479 159 -230 384 -504 500 -608 240 -216 273 -360 84 -360 -71 0 -330 236 -575 524 -246 288 -818 897 -1272 1352 -454 455 -825 849 -825 875 0 123 194 15 737 -412z m2763 155 c0 -58 -45 -78 -100 -44 -55 34 -100 82 -100 106 0 24 45 44 100 44 55 0 100 -48 100 -106z m-800 -1537 c0 -269 -143 -176 -533 346 -564 755 -553 913 23 329 280 -284 510 -588 510 -675z m-11956 453 c-63 -63 -242 191 -239 340 1 55 67 13 147 -93 80 -106 121 -217 92 -247z m-7222 -277 l-101 -383 -11 495 c-7 365 19 466 102 383 79 -79 82 -222 10 -495z m13527 -1418 c-66 -66 -549 392 -549 521 0 56 135 -27 299 -185 164 -158 277 -309 250 -336z m-6349 54 c0 -52 -67 -37 -150 31 -82 68 -149 198 -147 287 3 137 27 132 150 -31 81 -107 147 -236 147 -287z m5853 -149 c-67 -67 -353 182 -353 308 0 57 90 21 201 -79 110 -99 179 -203 152 -229z m4247 -1340 c0 -102 -360 75 -451 221 -35 58 48 50 195 -16 141 -65 256 -156 256 -205z m1800 -991 c0 -128 -58 -110 -202 63 -106 128 -99 142 38 90 90 -35 164 -104 164 -153z m-9581 -564 c253 -294 332 -467 171 -375 -237 136 -490 377 -490 465 0 141 160 96 319 -90z m3181 -131 c0 -58 -45 -78 -100 -44 -55 34 -100 82 -100 106 0 24 45 44 100 44 55 0 100 -48 100 -106z m1100 -506 c0 -49 -68 -88 -150 -88 -86 0 -150 90 -150 212 0 178 25 192 150 88 82 -68 150 -164 150 -212z m1700 -210 c0 -127 -134 -86 -400 122 l-250 196 325 -120 c179 -66 325 -155 325 -198z m4617 -78 c-21 -220 -56 -400 -78 -400 -21 0 -39 180 -39 400 0 220 35 400 78 400 42 0 60 -180 39 -400z m-4344 -560 c-70 -70 -373 71 -373 174 0 51 94 43 209 -19 114 -61 188 -131 164 -155z m4325 -165 c0 -124 -45 -292 -98 -375 -72 -112 -97 -54 -98 225 -1 206 43 375 98 375 55 0 99 -101 98 -225z m-1364 -125 c196 -82 461 -138 586 -125 178 20 236 -31 259 -225 17 -145 -4 -202 -50 -137 -62 89 -1172 437 -1393 437 -26 0 -20 45 14 100 82 133 162 127 584 -50z m-2085 -49 c35 -57 -5 -73 -94 -39 -173 66 -205 138 -61 138 52 0 122 -44 155 -99z m-5549 -551 c187 -192 306 -350 265 -350 -151 0 -621 286 -806 490 -187 207 -187 210 6 210 108 0 348 -157 535 -350z m12298 -1069 c2 -713 -97 -1026 -246 -784 -35 56 -31 487 7 960 85 1041 237 929 239 -176z m-10343 610 c103 -166 -128 -358 -266 -220 -116 116 -43 329 111 329 49 0 118 -49 155 -109z m1095 -291 c34 -55 -28 -100 -138 -100 -110 0 -228 45 -262 100 -34 55 28 100 138 100 110 0 228 -45 262 -100z m4893 10 c107 -41 152 -101 100 -133 -51 -32 -228 2 -393 75 -226 99 -250 132 -100 133 110 0 287 -33 393 -75z m5217 -583 c-33 -33 -56 26 -52 131 5 117 28 141 60 61 29 -72 26 -159 -8 -192z m-13610 -27 c100 -110 131 -200 69 -200 -62 0 -160 90 -219 200 -59 110 -90 200 -69 200 21 0 119 -90 219 -200z m13709 -674 c-108 -108 -165 43 -89 235 71 180 76 180 111 6 20 -100 10 -209 -22 -241z m-13783 98 c27 -84 -36 -111 -192 -82 -129 24 -270 46 -315 51 -44 4 -51 55 -15 113 85 139 469 79 522 -82z m1324 76 c0 -55 -110 -100 -244 -100 -134 0 -272 45 -306 100 -36 58 66 100 244 100 168 0 306 -45 306 -100z m4500 -600 c0 -55 -79 -99 -175 -98 -150 1 -153 15 -25 98 189 122 200 122 200 0z m-7331 -409 c355 -170 632 -323 614 -341 -76 -75 -894 134 -1129 288 -231 151 -343 362 -193 362 33 0 352 -139 708 -309z m993 -62 c-48 -49 -762 240 -762 308 0 26 180 -24 401 -111 221 -86 383 -175 361 -197z m6204 9 c-156 -84 -309 -129 -339 -98 -31 31 52 99 183 152 375 149 470 116 156 -54z m-1179 -513 c-75 -96 -212 -231 -304 -300 -358 -268 -983 -915 -983 -1017 0 -59 -48 -108 -106 -108 -125 0 -79 83 422 768 399 544 734 832 968 832 119 0 120 -26 3 -175z m8921 -34 c217 -343 111 -391 -860 -391 l-953 0 160 244 c88 134 236 267 328 294 327 96 1234 -4 1325 -147z m-858 -791 c75 -122 -516 -122 -800 0 -151 65 -85 88 269 93 258 4 497 -38 531 -93z m-3150 -996 c0 -90 -313 -304 -443 -304 -81 0 278 382 368 392 41 4 75 -35 75 -88z"/>
<path d="M18309 49516 c-110 -205 -54 -316 158 -316 152 0 182 358 38 447 -52 32 -141 -27 -196 -131z"/>
<path d="M17734 49443 c-84 -217 128 -421 279 -270 128 128 49 427 -113 427 -58 0 -133 -71 -166 -157z"/>
<path d="M18554 48907 c-74 -120 114 -238 248 -156 111 69 38 249 -102 249 -49 0 -114 -42 -146 -93z"/>
<path d="M17141 48663 c-75 -195 27 -363 222 -363 98 0 140 76 119 217 -39 264 -259 358 -341 146z"/>
<path d="M17961 48643 c-125 -327 312 -730 486 -447 33 52 121 72 196 43 182 -70 309 149 169 289 -82 82 -150 59 -254 -83 -138 -189 -147 -186 -248 80 -117 307 -258 355 -349 118z"/>
<path d="M19220 48480 c-125 -125 -167 -480 -56 -480 96 0 329 332 333 475 4 158 -122 160 -277 5z"/>
<path d="M16524 48375 c23 -69 148 -141 279 -160 207 -30 221 -14 105 125 -157 189 -443 215 -384 35z"/>
<path d="M16915 47768 c-91 -110 -84 -169 33 -266 95 -79 128 -212 90 -363 -44 -175 -18 -239 95 -239 234 0 276 142 152 514 -149 446 -230 523 -370 354z"/>
<path d="M17402 47675 c2 -204 168 -405 277 -338 142 88 28 463 -141 463 -76 0 -137 -56 -136 -125z"/>
<path d="M18259 47714 c-87 -140 47 -429 178 -385 148 49 146 393 -3 443 -64 21 -142 -5 -175 -58z"/>
<path d="M18806 47703 c-169 -104 -65 -403 141 -403 85 0 153 86 153 194 0 238 -115 320 -294 209z"/>
<path d="M16119 47350 c28 -241 1 -350 -89 -350 -72 0 -130 -74 -130 -165 0 -154 13 -154 183 0 100 91 235 165 300 165 129 0 145 136 54 475 -33 124 -128 225 -210 225 -111 0 -139 -88 -108 -350z"/>
<path d="M15450 47400 c-150 -243 168 -384 450 -198 133 87 133 109 0 196 -194 128 -372 128 -450 2z"/>
<path d="M12864 47331 c-113 -113 -69 -231 86 -231 82 0 150 42 150 94 0 126 -156 217 -236 137z"/>
<path d="M13738 47255 c-66 -173 257 -647 445 -652 74 -2 116 31 94 72 -22 41 -98 221 -168 400 -137 347 -280 416 -371 180z"/>
<path d="M14300 47265 c0 -180 326 -465 533 -465 248 0 202 254 -79 438 -301 197 -454 206 -454 27z"/>
<path d="M12100 47150 c0 -113 70 -154 225 -132 124 18 225 77 225 132 0 55 -101 114 -225 132 -155 22 -225 -19 -225 -132z"/>
<path d="M17700 47044 c0 -86 45 -128 100 -94 55 34 100 104 100 156 0 52 -45 94 -100 94 -55 0 -100 -70 -100 -156z"/>
<path d="M18446 47093 c-36 -58 -41 -131 -10 -162 82 -82 364 46 364 166 0 136 -270 133 -354 -4z"/>
<path d="M12448 46797 c-39 -63 -24 -161 34 -219 134 -134 448 -17 393 147 -56 167 -339 215 -427 72z"/>
<path d="M13100 46753 c0 -89 59 -124 150 -89 82 31 150 98 150 147 0 49 -68 89 -150 89 -82 0 -150 -66 -150 -147z"/>
<path d="M16750 46600 c-34 -55 -14 -100 44 -100 58 0 106 45 106 100 0 55 -20 100 -44 100 -24 0 -72 -45 -106 -100z"/>
<path d="M8418 46326 c21 -182 100 -286 232 -309 110 -19 269 -123 354 -231 85 -107 255 -203 378 -212 191 -15 215 -58 163 -296 -51 -231 -27 -278 136 -278 206 0 319 -181 319 -508 0 -106 45 -192 100 -192 225 0 86 590 -241 1017 -187 246 -356 551 -375 680 -19 128 -101 264 -184 302 -82 39 -251 122 -374 185 -382 198 -543 148 -508 -158z"/>
<path d="M18400 46156 c0 -244 34 -465 76 -491 133 -82 624 418 624 637 0 166 -43 198 -200 148 -115 -36 -200 -18 -200 43 0 59 -67 107 -150 107 -111 0 -150 -116 -150 -444z"/>
<path d="M17063 46347 c-34 -89 -14 -252 45 -362 59 -110 83 -265 53 -343 -32 -84 7 -142 95 -142 202 0 252 181 163 593 -82 378 -260 505 -356 254z"/>
<path d="M17529 46331 c-37 -97 -12 -187 59 -210 69 -23 169 -157 222 -298 69 -182 128 -225 205 -148 76 76 72 210 -12 466 -125 378 -365 475 -474 190z"/>
<path d="M14900 46315 c0 -46 72 -228 159 -404 127 -254 188 -296 298 -205 117 97 115 158 -12 404 -137 265 -445 407 -445 205z"/>
<path d="M15747 46296 c-93 -152 161 -428 282 -307 112 112 25 411 -120 411 -53 0 -126 -47 -162 -104z"/>
<path d="M16337 46090 c68 -339 255 -538 385 -408 128 128 -78 666 -269 703 -156 30 -173 -11 -116 -295z"/>
<path d="M14244 46190 c-107 -173 228 -458 371 -315 89 89 86 153 -11 271 -151 182 -266 196 -360 44z"/>
<path d="M12747 46096 c-80 -131 131 -396 315 -396 170 0 180 218 18 380 -148 148 -248 152 -333 16z"/>
<path d="M13450 46100 c-82 -132 38 -319 157 -246 121 75 121 346 -1 346 -52 0 -122 -45 -156 -100z"/>
<path d="M8300 45600 c0 -55 41 -100 90 -100 153 0 301 -577 242 -941 -41 -255 -1 -422 156 -642 117 -164 212 -409 212 -545 0 -136 56 -293 125 -348 194 -155 575 -249 575 -142 0 53 -112 125 -250 159 -204 51 -250 124 -250 395 0 206 -76 402 -201 515 -159 144 -196 290 -179 701 15 354 -33 603 -151 784 -174 265 -369 352 -369 164z"/>
<path d="M14448 45597 c-39 -63 -28 -157 24 -209 121 -121 448 1 399 149 -52 158 -338 198 -423 60z"/>
<path d="M16047 45595 c-95 -154 35 -253 163 -125 72 72 74 128 6 170 -56 35 -132 15 -169 -45z"/>
<path d="M13040 45484 c-108 -174 85 -283 426 -240 403 50 481 99 390 246 -75 121 -740 116 -816 -6z"/>
<path d="M15267 45233 c-37 -36 -67 -153 -67 -258 0 -259 242 -167 282 108 31 210 -79 287 -215 150z"/>
<path d="M10600 45150 c0 -27 90 -140 200 -250 111 -111 200 -333 200 -500 0 -165 45 -300 100 -300 180 0 113 757 -83 935 -173 156 -417 224 -417 115z"/>
<path d="M14600 45007 c0 -143 64 -207 207 -207 143 0 197 54 174 174 -50 261 -381 290 -381 33z"/>
<path d="M16049 45099 c-34 -55 -32 -195 5 -311 60 -189 82 -195 220 -57 84 84 126 224 93 311 -69 179 -225 207 -318 57z"/>
<path d="M16551 45102 c-33 -54 -19 -178 31 -275 50 -97 71 -233 46 -302 -53 -149 233 -169 324 -23 101 164 -55 698 -204 698 -75 0 -163 -44 -197 -98z"/>
<path d="M17395 45055 c-128 -128 -121 -655 8 -655 57 0 130 69 162 153 41 107 94 122 181 50 162 -134 254 -29 254 289 0 210 -47 258 -255 258 -140 0 -298 -43 -350 -95z"/>
<path d="M18392 45125 c-4 -41 -22 -154 -41 -250 -43 -224 145 -343 259 -163 137 218 104 488 -60 488 -82 0 -153 -34 -158 -75z"/>
<path d="M13845 44874 c-33 -88 -156 -123 -335 -97 -342 50 -520 -250 -259 -440 115 -84 128 -138 44 -190 -155 -96 81 -250 271 -177 169 65 175 297 9 364 -196 79 106 252 336 192 140 -37 189 4 189 156 0 249 -180 385 -255 192z"/>
<path d="M15201 44551 c-68 -82 -158 -127 -201 -101 -43 26 -133 -19 -200 -100 -99 -119 -90 -160 49 -213 94 -37 200 -20 236 37 36 57 154 120 264 141 232 44 339 385 121 385 -80 0 -201 -67 -269 -149z"/>
<path d="M16154 44407 c-31 -51 -12 -121 44 -156 120 -74 302 20 302 155 0 122 -271 122 -346 1z"/>
<path d="M7972 44325 c-22 -41 -7 -187 34 -325 69 -234 75 -229 84 75 10 313 -34 407 -118 250z"/>
<path d="M13946 44293 c-92 -149 15 -230 206 -156 88 34 133 107 98 162 -81 131 -221 129 -304 -6z"/>
<path d="M17874 44104 c-463 -90 -469 -96 -541 -542 -48 -292 -28 -362 104 -362 90 0 253 90 363 200 110 110 266 200 346 200 146 0 354 290 354 493 0 118 -71 119 -626 11z"/>
<path d="M7537 43852 c-31 -81 38 -344 154 -583 143 -296 191 -533 150 -740 -69 -346 95 -729 313 -729 186 0 185 75 -4 264 -169 169 -194 512 -54 733 58 92 54 193 -13 273 -58 70 -78 198 -45 284 63 166 -198 646 -353 646 -50 0 -117 -67 -148 -148z"/>
<path d="M8300 43706 c0 -162 38 -317 84 -346 111 -69 81 -359 -65 -628 -148 -272 -152 -500 -11 -587 68 -42 96 17 75 160 -18 124 23 246 92 269 69 23 125 -7 125 -68 0 -61 135 -256 301 -434 165 -177 363 -411 441 -521 113 -160 257 -199 749 -201 335 -2 609 32 609 74 0 42 -79 79 -175 82 -134 5 -122 28 50 97 255 103 280 199 100 388 -102 107 -84 119 100 64 337 -102 271 33 -100 205 l-325 151 325 -53 c473 -77 398 67 -134 259 -445 160 -458 159 -410 -26 64 -242 -284 -262 -609 -35 -174 122 -222 126 -222 22 0 -192 290 -578 433 -578 114 0 467 -341 467 -451 0 -27 -115 -49 -257 -49 -302 0 -643 164 -643 309 0 57 -141 278 -313 492 -237 295 -299 456 -259 667 35 184 -13 371 -144 554 -108 152 -169 322 -134 377 34 56 14 101 -44 101 -58 0 -106 -132 -106 -294z m1749 -1508 c-35 -56 -105 -75 -156 -44 -139 86 -113 146 63 146 86 0 128 -46 93 -102z m248 -294 c81 -51 114 -127 73 -168 -41 -41 -151 2 -244 95 -181 181 -72 227 171 73z"/>
<path d="M10975 43843 c-41 -42 -75 -164 -75 -272 0 -157 -28 -172 -141 -78 -217 180 -284 -42 -83 -278 95 -113 419 -297 718 -408 544 -202 824 -184 468 30 -452 271 -752 589 -781 826 -17 141 -65 222 -106 180z"/>
<path d="M15250 43806 c-469 -91 -385 -350 125 -387 317 -23 425 6 425 113 0 226 -223 337 -550 274z"/>
<path d="M16400 43811 c-175 -48 -259 -150 -282 -340 -36 -311 141 -361 343 -96 118 155 133 157 136 12 2 -89 -98 -231 -222 -314 -271 -182 -149 -367 128 -194 107 66 262 121 346 121 159 0 195 277 88 675 -63 235 -124 250 -537 136z"/>
<path d="M9473 43575 c72 -294 319 -575 506 -575 102 0 66 83 -115 264 -145 145 -264 325 -264 400 0 75 -41 136 -91 136 -49 0 -66 -101 -36 -225z"/>
<path d="M11800 43406 c0 -139 184 -228 311 -149 77 47 69 94 -25 154 -179 113 -286 111 -286 -5z"/>
<path d="M15034 43143 c-79 -205 89 -366 297 -286 128 49 142 106 64 253 -124 231 -280 245 -361 33z"/>
<path d="M15725 43128 c-142 -51 -172 -328 -36 -328 84 0 247 303 188 351 -15 12 -83 2 -152 -23z"/>
<path d="M17207 42637 c-114 -145 -207 -325 -207 -400 0 -76 -48 -137 -106 -137 -58 0 -85 34 -59 76 26 42 -12 158 -85 257 -124 169 -153 171 -441 22 -174 -90 -309 -240 -309 -342 0 -157 82 -180 601 -170 572 12 614 31 861 377 380 534 146 825 -255 317z"/>
<path d="M13700 42019 c0 -54 71 -125 158 -158 98 -38 143 -15 119 58 -50 149 -277 231 -277 100z"/>
<path d="M11333 41827 c35 -56 194 -155 354 -222 199 -82 310 -213 350 -413 46 -230 111 -292 311 -292 138 0 252 45 252 100 0 55 -67 100 -150 100 -82 0 -150 81 -150 181 0 298 -227 502 -639 577 -253 45 -368 34 -328 -31z"/>
<path d="M8300 41634 c0 -84 93 -177 206 -207 119 -31 296 -246 423 -515 149 -317 228 -406 252 -283 26 130 91 162 239 114 113 -35 265 -73 339 -84 210 -31 298 -162 164 -245 -199 -122 19 -662 499 -1240 240 -288 568 -726 730 -974 695 -1063 1375 -2006 1416 -1965 43 43 -1541 2445 -1829 2773 -179 204 -176 292 11 292 83 0 150 45 150 100 0 55 -110 100 -244 100 -447 0 -739 723 -405 1001 134 111 131 141 -25 259 -97 73 -284 135 -416 137 -152 2 -383 157 -625 420 -398 430 -885 605 -885 317z"/>
<path d="M8103 41637 c-5 -178 283 -816 401 -889 58 -36 39 95 -43 292 -200 478 -354 736 -358 597z"/>
<path d="M11100 41643 c0 -27 62 -150 139 -272 76 -121 168 -391 205 -598 118 -674 1005 -1471 1394 -1254 100 56 308 77 463 46 182 -37 324 -5 403 89 152 184 370 184 721 1 344 -179 363 -18 25 204 -166 109 -343 142 -525 97 -151 -37 -534 -113 -850 -168 -523 -93 -600 -82 -848 112 -383 301 -626 701 -626 1032 -1 340 -141 624 -348 703 -84 32 -153 36 -153 8z"/>
<path d="M13900 41550 c0 -82 34 -145 75 -138 276 43 550 -46 807 -262 325 -274 418 -306 418 -143 0 125 -150 282 -497 522 -312 216 -803 228 -803 21z"/>
<path d="M12861 41528 c-22 -22 31 -221 118 -442 141 -360 185 -395 414 -334 142 37 382 70 536 72 157 2 262 52 242 115 -51 153 -470 202 -603 69 -169 -169 -340 -128 -398 97 -40 153 9 230 188 298 133 51 242 114 242 141 0 58 -680 43 -739 -16z"/>
<path d="M7700 41259 c0 -77 236 -485 525 -905 646 -941 612 -881 880 -1583 122 -318 243 -556 270 -529 105 104 -337 1139 -729 1708 -228 330 -498 791 -599 1025 -184 421 -347 555 -347 284z"/>
<path d="M7300 41050 c0 -82 36 -150 80 -150 44 0 252 -271 463 -603 212 -331 428 -629 481 -662 105 -65 -64 226 -607 1040 -379 568 -417 602 -417 375z"/>
<path d="M6302 40986 c1 -75 125 -322 275 -550 150 -228 353 -560 451 -739 233 -425 339 -316 114 118 -273 528 -842 1321 -840 1171z"/>
<path d="M5800 40954 c0 -76 612 -954 665 -954 17 0 -21 113 -83 250 -63 138 -152 250 -198 250 -46 0 -84 62 -84 138 0 76 -67 194 -150 262 -82 68 -150 93 -150 54z"/>
<path d="M12678 40844 c-31 -30 -33 -143 -5 -251 55 -209 430 -352 677 -257 249 96 168 240 -106 187 -199 -38 -268 -2 -312 164 -55 210 -145 266 -254 157z"/>
<path d="M5558 40664 c35 -90 104 -164 153 -164 128 0 110 58 -63 202 -128 106 -142 99 -90 -38z"/>
<path d="M8800 40312 c0 -48 75 -149 166 -225 151 -124 156 -116 47 88 -124 233 -213 290 -213 137z"/>
<path d="M14444 40243 c-185 -149 -180 -154 106 -109 165 26 452 -16 637 -93 392 -164 413 -167 413 -63 0 119 -555 422 -771 422 -105 0 -278 -70 -385 -157z"/>
<path d="M9451 40062 c95 -144 191 -262 214 -262 72 0 -160 385 -276 457 -60 37 -32 -50 62 -195z"/>
<path d="M9203 39650 c0 -55 44 -167 97 -250 53 -82 97 -105 97 -50 0 55 -44 168 -97 250 -53 83 -97 105 -97 50z"/>
<path d="M9800 39395 c0 -186 315 -731 718 -1245 216 -275 627 -887 912 -1361 286 -474 647 -1014 803 -1200 381 -456 195 -99 -536 1032 -328 508 -597 963 -597 1011 0 48 -178 289 -395 536 -218 247 -492 648 -609 891 -214 440 -296 534 -296 336z"/>
<path d="M7356 39171 c38 -99 94 -154 125 -124 30 31 0 112 -69 180 -98 98 -110 86 -56 -56z"/>
<path d="M11100 39023 c0 -56 68 -128 150 -159 83 -32 150 -42 150 -23 0 19 -67 91 -150 159 -86 72 -150 81 -150 23z"/>
<path d="M9500 38916 c0 -121 758 -1278 890 -1360 172 -106 129 104 -51 253 -89 74 -296 372 -460 663 -290 513 -379 618 -379 444z"/>
<path d="M9502 38080 c-6 -245 673 -1338 771 -1241 24 25 -43 173 -151 328 -107 156 -291 441 -407 633 -116 193 -212 318 -213 280z"/>
<path d="M10637 37043 c83 -169 228 -372 323 -450 157 -130 163 -125 59 57 -62 110 -207 313 -322 450 l-209 250 149 -307z"/>
<path d="M10300 36540 c0 -77 1223 -1996 1358 -2132 23 -23 42 1 42 52 0 77 -1223 1996 -1358 2132 -23 23 -42 -1 -42 -52z"/>
<path d="M13000 36350 c68 -82 147 -150 174 -150 28 0 -6 68 -74 150 -68 83 -147 150 -174 150 -28 0 6 -67 74 -150z"/>
<path d="M11104 36364 c-2 -47 109 -219 246 -382 138 -164 250 -260 250 -215 -1 114 -492 704 -496 597z"/>
<path d="M12600 36006 c0 -58 45 -106 100 -106 55 0 100 20 100 44 0 24 -45 72 -100 106 -55 34 -100 14 -100 -44z"/>
<path d="M11700 35531 c0 -152 493 -719 497 -572 2 61 -109 241 -247 400 -137 160 -250 237 -250 172z"/>
<path d="M11900 34156 c0 -86 45 -156 100 -156 55 0 100 42 100 94 0 52 -45 122 -100 156 -55 34 -100 -8 -100 -94z"/>
<path d="M11300 34157 c0 -135 214 -576 258 -533 79 79 -67 576 -169 576 -49 0 -89 -20 -89 -43z"/>
<path d="M11600 33306 c0 -58 45 -106 100 -106 55 0 100 20 100 44 0 24 -45 72 -100 106 -55 34 -100 14 -100 -44z"/>
<path d="M11200 32544 c0 -86 45 -128 100 -94 55 34 100 104 100 156 0 52 -45 94 -100 94 -55 0 -100 -70 -100 -156z"/>
<path d="M11000 27800 c0 -55 20 -100 44 -100 24 0 72 45 106 100 34 55 14 100 -44 100 -58 0 -106 -45 -106 -100z"/>
<path d="M11503 45481 c-2 -93 45 -199 104 -235 176 -109 201 6 45 211 -128 169 -146 172 -149 24z"/>
<path d="M22300 37600 c0 -55 45 -100 100 -100 55 0 100 45 100 100 0 55 -45 100 -100 100 -55 0 -100 -45 -100 -100z"/>
<path d="M5200 37027 c0 -49 64 -176 142 -283 167 -229 348 -110 197 130 -118 187 -339 287 -339 153z"/>
<path d="M21967 25433 c-150 -149 -48 -233 283 -233 362 0 469 133 192 239 -207 80 -392 77 -475 -6z"/>
<path d="M22300 24558 c0 -87 71 -158 158 -158 87 0 141 53 119 119 -62 185 -277 216 -277 39z"/>
<path d="M22200 23831 c0 -112 212 -331 320 -331 44 0 80 68 80 150 0 83 -19 150 -42 150 -23 0 -113 27 -200 61 -87 33 -158 20 -158 -30z"/>
<path d="M23000 22200 c0 -55 90 -100 200 -100 110 0 200 45 200 100 0 55 -90 100 -200 100 -110 0 -200 -45 -200 -100z"/>
<path d="M9065 51875 c-158 -1579 -195 -3175 -75 -3175 83 0 118 210 111 675 -6 371 36 1103 92 1625 126 1180 131 1500 21 1500 -48 0 -114 -281 -149 -625z"/>
<path d="M9569 52147 c-32 -194 -33 -813 -3 -1375 30 -562 9 -1214 -46 -1448 -96 -414 -12 -653 143 -402 105 169 146 3578 44 3578 -44 0 -107 -159 -138 -353z"/>
<path d="M6720 52280 c-163 -163 -151 -280 30 -280 83 0 150 19 150 42 0 23 27 113 61 200 71 186 -70 209 -241 38z"/>
<path d="M7472 49623 c-31 -372 -71 -737 -89 -812 -18 -75 23 -157 92 -182 94 -34 125 168 125 813 0 472 -16 858 -35 858 -20 0 -62 -305 -93 -677z"/>
<path d="M11272 49925 c-213 -236 -373 -678 -365 -1007 5 -189 46 -123 140 228 73 273 227 572 343 666 115 93 210 197 210 229 0 117 -172 56 -328 -116z"/>
<path d="M11225 49225 c-104 -303 -64 -525 94 -525 56 0 76 68 45 151 -32 83 -16 263 36 400 53 137 56 249 7 249 -48 0 -130 -124 -182 -275z"/>
<path d="M24798 37343 c-138 -361 -116 -850 52 -1143 133 -232 143 -191 146 575 2 454 -20 825 -48 825 -29 0 -97 -115 -150 -257z"/>
<path d="M18200 35438 c0 -133 27 -140 150 -38 83 68 150 141 150 162 0 21 -67 38 -150 38 -82 0 -150 -73 -150 -162z"/>
<path d="M22400 34770 c0 -25 72 -218 160 -429 110 -262 126 -396 51 -421 -138 -46 -31 -515 161 -706 84 -84 116 -243 82 -401 -31 -145 -77 -724 -102 -1288 -24 -563 -85 -1103 -135 -1200 -50 -96 -122 -355 -161 -575 -39 -220 -132 -496 -208 -613 -225 -350 -230 -773 -8 -819 143 -29 173 3 125 129 -35 92 24 378 131 635 399 953 518 1695 523 3259 5 1625 -133 2380 -448 2441 -94 18 -171 12 -171 -12z"/>
<path d="M20150 33675 c-24 -69 -142 -597 -263 -1175 -173 -830 -221 -1411 -228 -2775 -5 -949 20 -1725 55 -1725 148 0 186 400 186 1933 0 1552 147 2860 392 3499 133 346 133 368 5 368 -57 0 -123 -56 -147 -125z"/>
<path d="M20615 33388 c-93 -240 -615 -2374 -615 -2513 0 -41 35 -75 78 -75 44 0 127 236 186 525 59 289 206 901 327 1361 208 793 223 1215 24 702z"/>
<path d="M175 32025 c-108 -24 -175 -133 -175 -282 0 -301 14 -301 278 3 224 258 192 346 -103 279z"/>
<path d="M14854 31475 c82 -383 129 -475 241 -475 46 0 38 180 -18 400 -122 480 -325 548 -223 75z"/>
<path d="M15113 30800 c4 -82 39 -262 78 -400 69 -246 71 -246 129 -30 32 122 -2 302 -77 400 -107 141 -135 147 -130 30z"/>
<path d="M24800 28956 c0 -189 45 -372 100 -406 60 -37 100 99 100 344 0 223 -45 406 -100 406 -55 0 -100 -155 -100 -344z"/>
<path d="M15632 28139 c33 -199 260 -774 505 -1278 245 -503 478 -1087 517 -1296 48 -259 104 -347 173 -278 161 161 -83 1170 -412 1704 -245 398 -442 871 -576 1384 -18 69 -85 125 -149 125 -78 0 -97 -120 -58 -361z"/>
<path d="M19700 27494 c0 -113 45 -178 100 -144 55 34 100 127 100 206 0 79 -45 144 -100 144 -55 0 -100 -93 -100 -206z"/>
<path d="M0 25289 c0 -180 371 -552 461 -462 32 33 -58 186 -201 340 -186 201 -260 236 -260 122z"/>
<path d="M0 24523 c0 -208 362 -594 463 -493 34 34 -56 202 -201 373 -217 259 -262 279 -262 120z"/>
<path d="M250 24600 c34 -55 138 -99 231 -98 146 1 148 14 19 98 -196 127 -328 127 -250 0z"/>
<path d="M8 23274 c-8 -864 -3 -882 336 -1250 249 -271 374 -344 454 -265 80 80 0 242 -294 598 -456 552 -490 647 -204 572 198 -52 270 69 125 211 -41 41 -150 285 -242 542 l-167 468 -8 -876z"/>
<path d="M22443 20357 c-105 -418 -6 -2086 127 -2130 89 -30 118 271 113 1166 -6 1135 -101 1517 -240 964z"/>
<path d="M23012 20323 c-158 -296 -238 -903 -167 -1279 88 -473 315 -396 276 92 -28 339 54 761 229 1189 97 238 -210 237 -338 -2z"/>
<path d="M15100 17413 c0 -113 247 -213 528 -213 127 0 174 35 117 87 -144 132 -645 230 -645 126z"/>
<path d="M19809 16868 c-209 -432 -292 -1368 -121 -1368 116 0 209 359 211 812 0 206 85 468 198 611 181 230 179 377 -5 377 -41 0 -168 -194 -283 -432z"/>
<path d="M4772 16925 c-327 -362 -811 -2118 -709 -2575 l66 -300 135 350 c126 327 132 294 88 -500 -26 -468 -90 -1097 -142 -1400 -125 -722 -128 -2832 -3 -2250 47 220 130 895 185 1500 54 605 143 1325 196 1600 53 275 117 897 143 1382 39 726 23 872 -92 828 -180 -69 -187 -104 161 740 165 400 300 744 300 764 0 96 -186 17 -328 -139z m-312 -1998 c-33 -33 -56 26 -52 131 5 117 28 141 60 61 29 -72 26 -159 -8 -192z"/>
<path d="M5319 16653 c-147 -323 -304 -1276 -400 -2431 -85 -1009 -34 -1242 223 -1028 140 115 158 82 158 -285 0 -228 83 -673 183 -987 101 -315 242 -819 312 -1122 134 -573 455 -1200 613 -1200 152 0 106 191 -152 632 -591 1012 -1059 5307 -703 6443 96 305 -92 287 -234 -22z"/>
<path d="M4125 16674 c-319 -402 -522 -1570 -673 -3874 -34 -522 -82 -1085 -106 -1250 -41 -282 -38 -285 48 -50 50 138 162 903 249 1701 175 1610 357 2562 596 3119 156 362 79 599 -114 354z"/>
<path d="M7272 16739 c-86 -86 106 -439 238 -439 57 0 90 98 72 217 -33 223 -194 338 -310 222z"/>
<path d="M6108 16334 c-208 -574 -104 -2119 148 -2203 63 -21 99 382 97 1093 -2 619 20 1188 47 1264 28 75 3 155 -54 176 -58 21 -165 -127 -238 -330z"/>
<path d="M10591 16461 c64 -77 260 -198 437 -270 177 -72 592 -318 922 -546 330 -228 763 -492 963 -585 199 -94 466 -281 592 -416 310 -329 402 -307 330 81 -79 430 -301 775 -500 775 -130 0 -137 -27 -35 -150 101 -122 96 -150 -27 -150 -83 0 -179 73 -213 161 -53 137 -89 141 -236 29 -96 -74 -142 -95 -103 -49 152 180 -138 435 -954 839 -863 427 -1405 557 -1176 281z"/>
<path d="M7614 15967 c-270 -326 469 -2794 1169 -3902 231 -366 460 -665 509 -665 49 0 213 -214 365 -475 403 -695 1152 -1625 1308 -1625 199 0 164 178 -74 376 -116 96 -500 610 -854 1142 -354 532 -677 982 -717 1000 -143 62 -725 1061 -958 1642 -130 325 -294 905 -364 1290 -71 385 -156 852 -190 1038 -54 297 -78 318 -194 179z"/>
<path d="M12719 15994 c24 -72 103 -151 175 -175 75 -25 112 12 87 87 -24 72 -103 151 -175 175 -75 25 -112 -12 -87 -87z"/>
<path d="M8401 15325 c2 -768 1107 -3247 1343 -3014 34 34 -98 371 -293 750 -195 379 -471 1083 -614 1564 -240 806 -438 1124 -436 700z"/>
<path d="M14000 14736 c0 -35 130 -271 289 -525 442 -705 1183 -1435 2011 -1982 1082 -715 1042 -697 884 -399 -74 140 -418 443 -765 674 -753 502 -1607 1323 -1963 1887 -227 359 -456 533 -456 345z"/>
<path d="M3125 14186 c-69 -69 -125 -166 -125 -215 0 -49 -90 -204 -200 -344 -137 -174 -202 -414 -208 -765 -4 -282 -68 -692 -142 -912 -132 -393 -133 -388 -77 290 74 887 -125 828 -219 -65 -37 -344 -172 -940 -302 -1325 -129 -385 -329 -1105 -443 -1600 -115 -495 -236 -1012 -268 -1150 l-59 -250 134 250 c75 138 197 430 272 650 75 220 241 625 369 900 128 275 264 692 301 926 61 383 82 409 202 250 81 -107 135 -127 137 -51 2 69 37 125 78 125 41 0 66 -236 54 -525 -16 -401 0 -466 65 -275 121 353 125 977 6 1050 -55 34 -100 211 -100 394 0 250 50 346 203 386 111 29 193 90 180 136 -38 143 123 1266 230 1608 133 423 87 689 -88 512z"/>
<path d="M13758 13075 c157 -499 942 -1289 942 -949 0 199 -730 1168 -882 1171 -91 2 -110 -66 -60 -222z"/>
<path d="M23289 13242 c-6 -51 -4 -407 3 -792 13 -658 -82 -1396 -249 -1938 -55 -180 -39 -227 64 -193 76 25 173 200 216 388 93 411 124 2480 38 2566 -34 33 -66 19 -72 -31z"/>
<path d="M4755 12775 c-21 -69 -68 -440 -105 -825 -37 -385 -89 -894 -116 -1131 -29 -256 0 -489 70 -574 142 -170 350 -84 214 89 -50 64 -81 229 -68 366 123 1316 168 2200 112 2200 -38 0 -86 -56 -107 -125z"/>
<path d="M3760 12306 c-36 -272 -126 -643 -201 -825 -121 -295 -158 -770 -177 -2281 -11 -782 15 -1000 118 -1000 60 0 103 413 107 1025 7 1083 173 1127 186 50 4 -347 51 -575 117 -575 69 0 97 167 74 450 -19 247 5 463 55 480 49 16 35 132 -32 257 -84 157 -112 649 -90 1571 33 1362 -38 1746 -157 848z"/>
<path d="M1664 11725 c-28 -96 -106 -445 -173 -775 -103 -501 -135 -559 -194 -350 -65 235 -74 238 -148 50 -43 -110 -186 -443 -319 -739 -132 -297 -220 -593 -195 -659 25 -65 -20 -403 -100 -749 -80 -347 -123 -690 -95 -762 30 -79 -3 -111 -84 -79 -112 43 -112 137 4 570 163 614 178 1033 40 1118 -55 34 -146 -58 -202 -205 -116 -306 -260 -2345 -166 -2345 35 0 156 169 268 375 l205 375 -59 -415 c-91 -629 -126 -1636 -57 -1631 76 5 449 816 610 1328 142 448 62 612 -111 231 -125 -275 -288 -353 -287 -138 0 69 141 620 314 1225 172 605 313 1224 313 1375 1 151 34 275 75 275 40 0 99 101 131 225 31 124 148 563 260 975 111 413 203 784 204 825 4 151 -186 70 -234 -100z"/>
<path d="M5100 11704 c0 -109 89 -657 198 -1219 109 -562 180 -1041 157 -1064 -23 -23 -134 245 -248 594 l-205 635 53 -684 c29 -377 115 -782 191 -900 77 -119 168 -396 203 -616 36 -220 130 -706 210 -1080 126 -587 126 -707 4 -882 -91 -130 -166 -164 -210 -93 -37 60 -141 716 -230 1457 -90 741 -199 1348 -243 1348 -123 0 -91 -1151 61 -2150 75 -495 120 -918 100 -939 -88 -96 -346 242 -439 575 -55 200 -104 994 -108 1764 -5 1064 -31 1340 -110 1150 -126 -305 -47 -2732 102 -3117 69 -179 72 -562 10 -1150 -51 -486 -97 -928 -103 -983 -34 -335 -285 1120 -289 1675 -3 439 -44 675 -119 675 -82 0 -97 -234 -52 -825 63 -830 93 -1042 264 -1882 55 -271 58 -718 6 -1100 -151 -1114 -231 -2893 -130 -2893 97 0 278 1516 382 3200 33 523 83 1033 112 1134 48 171 62 169 202 -31 123 -175 129 -267 31 -503 -143 -346 -153 -1676 -16 -2128 54 -177 126 -517 159 -754 57 -401 47 -428 -141 -369 -173 55 -202 20 -202 -242 0 -206 49 -307 150 -307 88 0 151 93 153 225 l4 225 199 -239 c109 -132 214 -222 232 -200 98 114 153 589 68 589 -202 0 -560 1932 -458 2476 121 646 383 790 776 423 189 -176 215 -311 220 -1125 5 -778 46 -1005 256 -1430 226 -456 233 -506 75 -518 -96 -8 -175 54 -175 137 0 83 -67 219 -150 301 -82 83 -150 240 -150 350 0 109 -49 292 -110 405 -121 226 -149 1238 -43 1571 95 298 -178 275 -341 -29 -151 -283 -56 -1387 147 -1708 70 -112 158 -405 195 -653 119 -804 116 -800 665 -800 330 0 476 36 432 107 -39 64 14 58 129 -14 273 -171 662 -49 1104 344 204 183 620 494 922 693 303 198 730 488 950 645 220 157 482 317 583 355 192 73 175 338 -19 296 -60 -14 -647 -389 -1302 -834 l-1192 -810 -452 200 c-248 109 -501 293 -563 409 -62 115 -178 209 -259 209 -80 0 -146 45 -146 100 0 55 -67 100 -150 100 -168 0 -204 255 -50 350 138 85 127 724 -13 771 -215 72 10 479 264 479 304 0 305 344 2 700 -117 138 -267 363 -334 500 -173 356 -515 1637 -453 1699 114 114 406 -400 361 -637 -86 -448 454 -1658 742 -1661 212 -2 229 164 38 368 -252 271 -536 835 -459 912 35 35 102 -3 149 -84 227 -386 761 -1093 828 -1095 131 -4 81 369 -67 491 -149 124 -882 1333 -989 1632 -35 96 -106 175 -158 175 -127 0 -317 592 -459 1430 -101 590 -96 692 39 767 134 75 138 144 27 520 -212 722 -297 1109 -357 1638 -68 599 -245 1145 -371 1145 -49 0 -90 -88 -90 -196z m562 -6043 c-37 -148 78 -494 338 -1011 296 -588 367 -819 286 -917 -137 -166 -296 -76 -220 124 32 83 -10 228 -93 322 -83 94 -182 320 -221 503 -39 182 -130 354 -202 382 -73 28 -161 171 -196 318 -35 148 -87 347 -115 443 -34 114 2 175 104 175 86 0 158 56 160 125 2 69 51 43 109 -57 58 -100 81 -284 50 -407z m-603 -236 c90 -316 223 -642 295 -725 138 -159 304 -700 215 -700 -215 0 -413 193 -622 607 -197 388 -233 570 -182 937 34 251 77 456 96 456 18 0 107 -259 198 -575z m2269 -4625 c77 0 80 -32 9 -103 -153 -153 -425 -11 -591 310 -217 420 -180 443 162 101 169 -170 358 -308 420 -308z m391 -168 c-72 -29 -159 -26 -192 8 -33 33 26 56 131 52 117 -5 141 -28 61 -60z m-219 -288 c0 -24 -70 -44 -156 -44 -86 0 -128 46 -93 102 57 92 249 48 249 -58z"/>
<path d="M2461 9389 c-131 -619 -176 -1610 -70 -1545 60 37 109 257 109 488 0 230 45 575 99 765 61 214 64 380 6 438 -58 58 -113 3 -144 -146z"/>
<path d="M7223 9420 c-371 -37 -730 -453 -549 -634 58 -58 82 -274 54 -482 -66 -489 138 -640 297 -220 62 167 189 322 281 346 91 24 236 249 322 500 172 506 139 546 -405 490z"/>
<path d="M2961 9242 c-34 -87 -61 -331 -61 -542 0 -211 -38 -398 -85 -417 -129 -51 -236 -583 -117 -583 56 0 102 95 102 211 0 146 46 193 150 153 124 -48 150 61 150 639 0 707 -30 824 -139 539z"/>
<path d="M1813 8383 c-226 -594 -508 -3718 -319 -3529 56 56 149 663 206 1349 58 686 152 1487 211 1780 114 569 56 805 -98 400z"/>
<path d="M3668 7935 c-101 -101 -83 -835 21 -835 49 0 111 169 137 375 48 373 -27 591 -158 460z"/>
<path d="M2906 7357 c-129 -155 -136 -3017 -9 -3715 69 -382 73 -385 148 -118 42 150 55 983 29 1850 -26 867 -10 1676 36 1797 98 263 -38 386 -204 186z"/>
<path d="M2273 6625 c-85 -190 -119 -874 -109 -2225 14 -1985 96 -2703 314 -2776 195 -65 261 266 110 548 -106 198 -138 783 -138 2493 0 1229 -12 2235 -27 2235 -16 0 -83 -124 -150 -275z"/>
<path d="M0 5900 c0 -110 17 -200 38 -200 21 0 62 90 91 200 29 110 11 200 -38 200 -50 0 -91 -90 -91 -200z"/>
<path d="M9603 5925 c-3 -260 322 -625 557 -625 133 0 124 39 -50 225 -116 124 -277 315 -357 425 -145 197 -147 197 -150 -25z"/>
<path d="M1061 5489 c-24 -76 -71 -386 -104 -689 -32 -302 -148 -1337 -257 -2300 -109 -962 -217 -1919 -239 -2125 -34 -299 -8 -375 124 -375 138 0 160 94 135 575 -17 316 12 823 63 1125 87 510 94 468 105 -575 11 -1054 25 -1125 212 -1125 197 0 279 239 117 340 -46 28 -64 548 -41 1156 28 712 6 1104 -59 1104 -56 0 -127 -79 -157 -175 -29 -96 -33 44 -7 311 209 2191 253 2791 206 2838 -30 30 -74 -8 -98 -85z"/>
<path d="M1736 4435 c-42 -212 -68 -416 -58 -454 71 -269 28 -1516 -54 -1567 -67 -42 -76 -428 -28 -1114 42 -577 54 -1106 29 -1175 -26 -69 26 -125 114 -125 134 0 161 131 161 794 0 442 46 823 104 859 57 35 82 139 54 230 -27 92 -74 771 -104 1509 -30 738 -74 1361 -98 1385 -24 24 -78 -130 -120 -342z"/>
<path d="M385 3475 c-9 -69 -21 -170 -28 -225 -7 -55 -38 -145 -70 -200 -107 -186 -308 -1318 -268 -1509 22 -105 140 214 262 709 122 495 249 1001 282 1125 36 135 16 225 -51 225 -62 0 -119 -56 -127 -125z"/>
<path d="M6850 3000 c34 -55 107 -100 162 -100 55 0 72 45 38 100 -34 55 -107 100 -162 100 -55 0 -72 -45 -38 -100z"/>
<path d="M7200 1512 c0 -169 495 -412 821 -403 325 8 326 9 61 89 -148 45 -371 153 -497 242 -257 179 -385 203 -385 72z"/>
<path d="M18851 102 c-35 -56 7 -102 93 -102 176 0 202 60 63 146 -51 31 -121 12 -156 -44z"/>
</g>
</svg>