<svg xmlns="http://www.w3.org/2000/svg" version="1.0" width="250" height="525" viewBox="0 0 250.000000 525.000000" preserveAspectRatio="xMidYMid meet">
<metadata>
Created by potrace 1.10, written by Peter Selinger 2001-2011
</metadata>
<g transform="translate(0.000000,525.000000) scale(0.010000,-0.010000)" fill="#555555" stroke="none">
<path d="M1400 51303 c0 -659 -21 -1952 -46 -2875 -61 -2177 -149 -8378 -203 -14178 -63 -6716 -149 -12299 -202 -13100 -25 -385 -72 -2635 -103 -5000 -31 -2365 -98 -5402 -148 -6750 -129 -3412 -126 -8962 5 -9205 102 -192 318 -195 12201 -195 7997 0 12096 34 12096 100 0 150 -215 154 -11150 231 -7637 53 -12654 143 -12740 227 -22 21 -35 523 -28 1116 24 2070 149 9782 169 10426 11 358 54 2428 97 4600 42 2173 86 4063 99 4200 12 138 29 895 37 1682 14 1286 33 1429 185 1400 186 -36 180 481 80 -6482 -26 -1787 -74 -4487 -106 -6000 -33 -1512 -67 -4414 -76 -6448 -16 -3580 -11 -3700 176 -3736 106 -21 252 -97 324 -169 105 -105 1163 -133 5257 -138 4227 -6 9161 -82 14876 -230 468 -12 1289 -12 1825 -1 l975 22 0 750 c0 413 -26 750 -57 750 -32 0 -127 -70 -212 -155 -245 -244 -290 -70 -48 187 287 305 278 328 -132 328 -231 0 -398 66 -492 195 -79 107 -175 162 -215 122 -40 -40 -18 -138 48 -218 98 -117 83 -165 -76 -250 -170 -91 -189 -78 -143 98 47 179 20 195 -221 135 -150 -38 -302 -29 -338 19 -263 363 -497 451 -904 342 -226 -61 -410 -154 -410 -207 0 -117 -20 -117 374 -3 413 118 520 -33 209 -292 -254 -212 -483 -259 -483 -101 0 55 -59 100 -131 100 -73 0 -190 146 -260 325 -188 474 -1174 935 -1091 509 17 -91 223 -235 457 -320 357 -131 425 -198 425 -426 0 -149 56 -290 125 -313 79 -26 14 -140 -175 -305 -342 -301 -564 -362 -315 -87 213 235 209 337 -10 301 -96 -16 -220 -2 -275 32 -220 134 -733 192 -796 90 -36 -58 -115 -106 -175 -106 -61 0 -36 82 56 183 91 100 165 235 165 300 0 164 -467 147 -531 -20 -73 -190 -569 -277 -569 -99 0 75 -67 136 -150 136 -82 0 -150 50 -150 111 0 72 -119 89 -342 47 -199 -37 -369 -21 -406 39 -114 184 -456 110 -899 -195 -380 -261 -427 -274 -381 -100 58 222 -80 254 -387 90 -273 -146 -1085 -206 -1085 -79 0 55 -90 72 -199 37 -151 -48 -186 -26 -142 89 32 83 209 201 392 261 183 61 389 178 458 261 92 111 228 133 512 86 389 -66 735 82 621 266 -32 52 385 74 988 52 574 -21 1258 -5 1521 35 262 40 617 43 788 6 428 -91 600 -38 714 222 61 139 237 257 471 314 407 101 630 2 350 -154 -266 -149 -207 -305 101 -270 188 22 267 83 249 194 -33 199 68 284 826 692 330 178 673 387 762 464 143 123 169 104 224 -174 38 -190 138 -332 254 -362 105 -28 219 -148 252 -266 61 -214 63 -214 213 -18 201 264 145 495 -131 534 -222 32 -323 218 -118 218 58 0 78 45 44 100 -34 55 -160 101 -281 103 -209 3 -210 8 -28 114 142 82 241 80 384 -9 110 -69 316 -93 483 -56 261 57 292 105 292 448 0 213 -55 406 -125 434 -100 40 -100 52 0 58 165 11 167 777 3 832 -68 23 -237 -15 -375 -84 -1040 -512 -1587 -567 -971 -97 202 154 368 320 368 369 0 137 -263 104 -390 -50 -63 -76 -253 -166 -423 -200 -229 -45 -293 -102 -248 -220 34 -87 61 -249 61 -360 0 -114 83 -222 193 -251 158 -42 382 -332 284 -370 -15 -6 -128 -67 -251 -136 -353 -198 -617 -162 -555 75 63 241 46 243 -356 43 -179 -90 -315 -236 -315 -338 0 -239 -262 -467 -326 -284 -31 87 -133 36 -316 -157 -363 -386 -444 -263 -113 170 174 228 227 371 155 416 -76 47 -78 106 -6 193 192 232 -6 241 -499 23 -566 -250 -658 -431 -194 -382 213 22 299 -3 254 -75 -37 -60 -177 -109 -311 -109 -177 0 -244 -55 -244 -200 0 -124 67 -200 175 -200 132 -1 102 -60 -125 -241 -222 -178 -334 -213 -429 -134 -92 76 -163 73 -245 -9 -64 -64 -174 -116 -246 -116 -241 0 -133 162 220 330 348 166 469 370 219 370 -72 0 -218 -66 -325 -147 -107 -81 -250 -148 -319 -150 -259 -6 -110 214 322 476 439 266 564 421 340 421 -62 0 -265 -94 -450 -208 -282 -175 -337 -183 -337 -53 0 86 135 226 300 311 165 85 300 199 300 253 0 129 -15 127 -518 -89 -493 -212 -811 -520 -607 -589 183 -61 171 -1125 -13 -1125 -176 0 -332 405 -416 1080 -42 335 -108 515 -181 488 -197 -71 -465 129 -465 348 0 180 22 190 160 76 139 -116 155 -102 125 113 -23 160 -109 256 -250 276 -156 22 -227 117 -259 350 -25 175 -76 387 -112 470 -48 109 44 199 335 325 637 276 762 218 358 -163 -449 -423 -470 -592 -57 -448 165 58 300 163 300 235 0 72 146 182 325 246 301 106 312 125 144 250 -201 150 -106 257 265 297 122 14 438 189 702 391 263 201 536 366 606 366 70 0 258 113 417 250 160 138 516 323 791 412 275 90 613 267 750 394 138 128 565 376 950 553 385 176 903 485 1150 687 248 202 529 397 625 433 158 58 175 247 175 1965 0 1648 -20 1892 -150 1842 -194 -74 -194 103 0 264 82 68 150 215 150 326 0 181 -20 175 -207 -63 -114 -144 -275 -263 -357 -263 -117 0 -100 71 77 325 125 179 285 361 357 405 71 44 128 179 126 300 -4 188 -66 152 -431 -255 -400 -446 -685 -585 -805 -390 -29 46 238 384 594 750 893 920 856 1218 -41 328 -732 -726 -1038 -827 -1092 -361 -22 189 45 294 275 430 167 98 304 218 304 265 0 48 270 368 600 711 l600 625 0 1225 0 1224 -400 68 c-220 37 -400 89 -400 114 0 26 111 209 246 408 352 519 198 615 -215 133 -484 -565 -697 -667 -940 -447 -497 450 -558 1283 -126 1701 623 600 617 598 854 344 l216 -232 -418 -389 c-642 -600 -522 -844 132 -269 333 292 369 302 537 150 99 -90 255 -163 347 -163 151 0 167 205 167 2106 l0 2105 -215 -151 c-163 -114 -264 -125 -415 -44 -339 182 -1027 42 -1365 -278 -168 -158 -305 -343 -305 -411 0 -69 -152 -188 -337 -265 -665 -278 -1007 -1005 -851 -1808 26 -136 -24 -206 -162 -229 -527 -86 -650 -141 -650 -288 0 -130 70 -146 375 -90 206 38 418 110 470 161 52 51 126 92 163 92 112 0 191 -431 100 -545 -46 -58 -51 -346 -12 -641 l71 -537 -558 -438 -558 -438 -400 402 c-419 420 -419 411 38 687 77 46 107 135 68 198 -51 83 -154 66 -366 -59 -382 -226 -550 -123 -898 550 -298 577 -721 1520 -749 1671 -10 55 23 210 73 345 l91 244 208 -340 c133 -219 167 -355 95 -379 -187 -62 -123 -220 89 -220 110 0 200 45 200 100 0 55 73 100 161 100 130 0 149 68 97 345 -41 216 -10 476 83 700 166 395 233 428 403 197 63 -87 266 -166 451 -175 296 -15 362 30 546 374 280 524 525 670 709 424 204 -275 373 -158 493 341 101 421 127 446 492 476 332 27 377 59 331 235 -29 113 -9 319 44 460 74 194 125 228 214 139 188 -188 368 -134 434 130 34 135 124 298 201 362 77 63 186 289 243 501 90 334 157 399 501 492 l397 107 0 746 c0 727 -6 746 -247 746 -173 0 -294 89 -400 295 -84 162 -232 339 -328 394 -140 79 -150 124 -50 225 176 178 164 1050 -16 1119 -356 136 -1327 -141 -1202 -344 34 -55 33 -217 -3 -359 -50 -200 -92 -232 -184 -140 -91 91 -85 139 28 209 80 49 118 118 84 153 -35 34 -246 -53 -471 -195 -492 -310 -529 -313 -767 -50 -152 167 -255 194 -541 138 -194 -38 -465 -75 -603 -82 -208 -11 -247 -59 -231 -288 22 -322 2 -328 -372 -107 -335 198 -610 55 -525 -272 53 -202 -112 -274 -222 -96 -34 55 -172 100 -306 100 -197 0 -244 -51 -244 -262 0 -218 -25 -242 -144 -143 -80 66 -249 106 -375 88 -202 -29 -227 -81 -198 -408 30 -347 13 -375 -232 -375 -145 0 -348 45 -450 100 -229 122 -531 21 -463 -156 38 -97 -39 -115 -309 -71 -347 56 -357 49 -306 -215 33 -171 4 -292 -76 -323 -70 -27 -156 -147 -190 -267 -56 -194 -89 -169 -300 232 -131 248 -219 480 -196 517 23 37 65 269 94 516 29 247 130 689 224 983 170 530 175 534 635 587 527 61 786 232 786 520 0 150 -43 181 -175 126 -356 -146 -525 -170 -525 -73 0 91 121 150 916 443 183 67 332 62 477 -15 116 -62 256 -85 311 -52 55 34 262 9 459 -56 328 -109 380 -98 591 118 245 249 445 986 267 986 -55 0 52 153 239 340 212 212 340 438 340 600 0 294 -204 346 -406 103 -71 -86 -206 -137 -298 -113 -92 24 -241 2 -332 -48 -214 -120 -215 47 -2 372 138 211 143 293 33 558 -118 286 -110 326 102 485 354 268 63 356 -344 105 -217 -134 -323 -265 -287 -356 34 -90 -32 -177 -175 -230 -133 -49 -277 -226 -342 -419 -62 -184 -170 -354 -241 -378 -99 -33 -103 4 -18 163 199 370 136 713 -151 822 -216 82 -240 125 -138 248 186 224 -61 188 -291 -42 -136 -136 -159 -221 -82 -298 77 -77 71 -176 -21 -348 -70 -132 -99 -333 -63 -446 50 -156 -10 -261 -250 -437 -174 -127 -351 -323 -394 -435 -78 -200 -430 -263 -665 -117 -58 35 -191 -1 -295 -81 -184 -140 -183 -147 35 -208 124 -35 225 -111 225 -170 0 -59 -287 -386 -639 -727 -351 -341 -677 -686 -725 -767 -47 -81 -221 -191 -386 -245 -248 -81 -294 -145 -268 -364 24 -199 -4 -252 -112 -211 -80 31 -274 -56 -433 -192 l-287 -249 275 -105 c258 -99 354 -297 212 -440 -35 -35 -141 -21 -236 30 -118 63 -234 47 -362 -49 -183 -136 -183 -152 -11 -460 98 -175 148 -346 111 -380 -36 -33 -86 -5 -111 64 -67 189 -274 150 -488 -90 -137 -154 -155 -226 -65 -258 69 -24 125 -149 125 -277 0 -159 112 -303 350 -450 193 -119 350 -297 350 -396 0 -99 60 -229 133 -290 161 -134 65 -1060 -145 -1396 -183 -293 -12 -460 335 -328 252 95 377 60 377 -108 0 -46 -252 -246 -561 -443 -403 -258 -634 -344 -825 -308 -604 115 -1189 406 -1580 787 -257 251 -462 377 -538 330 -67 -42 -105 -33 -84 19 117 291 1051 2060 1321 2501 174 286 472 781 661 1100 844 1428 1696 2532 1955 2532 266 0 673 284 593 414 -34 55 -125 75 -202 46 -77 -30 -140 -36 -140 -14 0 104 833 1269 1290 1804 282 330 659 773 836 985 178 212 375 437 437 500 300 306 1834 1750 2140 2015 1276 1102 1688 1442 1997 1648 193 129 473 347 623 485 150 137 428 344 619 459 190 114 652 428 1027 698 374 269 794 539 931 600 138 61 441 241 675 399 389 263 425 324 425 716 0 249 -52 449 -125 479 -100 40 -100 52 0 58 174 11 174 1371 0 1442 -100 40 -100 52 0 58 78 5 125 159 125 408 0 360 -25 400 -250 400 -137 0 -250 45 -250 100 0 55 113 100 250 100 l250 0 -7 1190 -8 1190 -412 40 c-227 21 -617 14 -868 -16 -584 -70 -1330 26 -1080 139 96 43 248 51 336 16 89 -34 584 -32 1100 5 l939 66 0 635 c0 583 -95 786 -250 535 -34 -55 -385 -95 -781 -88 -395 6 -651 24 -569 41 83 16 476 82 875 147 l725 118 0 633 c0 412 -43 650 -125 683 -100 40 -100 52 0 58 69 4 125 75 125 158 0 128 -272 150 -1850 150 -1578 0 -1850 -22 -1850 -150 0 -83 -44 -150 -97 -150 -53 0 -71 67 -39 150 43 113 -17 150 -239 150 -292 0 -298 -10 -350 -625 -28 -344 -36 -872 -17 -1175 62 -991 61 -3005 -4 -5722 -43 -1801 -30 -2737 41 -2869 58 -109 111 -450 119 -758 10 -455 -28 -599 -201 -760 -117 -109 -214 -163 -216 -120 -2 43 -81 -11 -176 -121 -203 -235 -1078 -950 -1163 -950 -32 0 -58 135 -58 300 0 165 -42 300 -93 300 -51 0 -116 79 -144 175 -29 96 -35 -95 -13 -425 l40 -600 -448 -391 c-629 -548 -659 -490 -620 1191 6 275 11 1603 11 2950 0 1348 1 3215 1 4150 1 1102 -43 1832 -124 2076 -107 320 -101 441 44 820 114 300 144 537 92 725 -44 153 -66 324 -50 379 51 174 18 1049 -47 1254 -150 472 -226 116 -191 -899 26 -775 -5 -1214 -106 -1499 -113 -322 -119 -470 -25 -730 104 -288 156 -2694 96 -4426 -9 -275 -12 -635 -6 -800 7 -165 45 -1155 87 -2200 41 -1045 42 -2147 0 -2449 -41 -303 -33 -700 18 -884 88 -318 66 -359 -458 -875 -451 -443 -561 -510 -605 -367 -30 96 -47 850 -37 1675 13 1005 -22 1595 -104 1789 -103 241 -95 364 47 736 148 389 154 525 47 1043 -92 445 -95 681 -12 931 69 209 87 687 49 1268 -93 1419 -50 3189 99 4072 39 231 21 482 -43 601 -60 113 -120 735 -132 1382 -29 1482 -214 1502 -245 28 -14 -689 25 -1170 113 -1400 91 -238 105 -428 43 -594 -50 -134 -84 -584 -74 -1000 10 -416 -16 -1048 -57 -1406 -42 -357 -35 -807 16 -1000 53 -203 58 -748 10 -1300 -45 -522 -86 -1017 -92 -1100 -6 -82 36 -373 92 -646 82 -393 72 -573 -49 -876 -84 -209 -128 -503 -97 -654 30 -151 103 -499 161 -774 67 -314 77 -859 29 -1461 -43 -528 -43 -1127 0 -1332 63 -307 36 -425 -158 -689 -130 -175 -263 -397 -297 -493 -34 -96 -115 -175 -179 -175 -65 0 -267 -169 -449 -375 -224 -253 -333 -322 -336 -212 -2 89 66 221 152 292 109 91 140 235 104 487 -29 197 -54 392 -56 433 -2 41 -52 75 -111 75 -60 0 -80 -85 -45 -193 33 -106 -9 -359 -94 -562 -85 -203 -154 -523 -154 -710 0 -344 -28 -370 -525 -479 -272 -59 -275 -55 -275 460 0 286 -55 672 -122 858 -103 285 -94 410 57 807 264 690 270 886 37 1182 l-210 266 211 366 c180 312 204 482 164 1160 -25 437 -38 1133 -29 1545 25 1118 25 1093 -49 1900 -37 413 -141 1009 -230 1325 -131 467 -139 647 -45 962 64 213 89 522 56 686 -36 183 0 415 95 597 111 216 138 456 95 868 -75 728 -280 694 -280 -48 0 -297 -34 -592 -74 -655 -159 -244 -164 -1979 -7 -2685 109 -489 162 -1335 176 -2806 11 -1158 52 -2158 91 -2222 40 -64 -6 -264 -102 -444 l-174 -328 -69 400 c-53 302 -300 6719 -326 8450 -15 1038 48 1904 135 1850 55 -34 100 -169 100 -300 0 -131 41 -264 92 -295 55 -34 77 320 55 869 -20 509 12 1219 71 1576 175 1055 163 1452 -43 1436 -96 -8 -175 26 -175 75 0 49 -90 89 -200 89 -150 0 -202 -69 -208 -275 -55 -1818 -109 -6949 -80 -7525 68 -1339 12 -3644 -95 -3900 -86 -206 -106 -119 -114 500 -5 413 -34 1853 -64 3200 -30 1348 -43 2855 -30 3350 72 2681 38 4650 -82 4650 -68 0 -147 -101 -177 -225 -166 -700 -202 -1161 -115 -1475 53 -192 93 -665 90 -1050 -61 -5976 -44 -8067 70 -8673 109 -579 105 -734 -34 -1141 -208 -611 -214 -2378 -11 -3136 81 -302 148 -876 149 -1275 1 -577 32 -725 151 -725 83 0 150 -44 150 -97 0 -109 -597 -25 -738 103 -126 114 -159 1452 -159 6294 1 6063 0 7443 -7 7500 -30 229 22 2693 67 3225 l57 675 -318 0 c-294 0 -314 -21 -262 -275 84 -410 78 -992 -19 -1775 -48 -385 -78 -2275 -67 -4200 l20 -3500 -357 -375 c-409 -429 -589 -472 -635 -150 -41 289 -222 292 -263 5 -32 -226 -338 -392 -518 -281 -131 81 -129 313 6 564 84 157 137 175 246 85 256 -213 334 -20 213 527 -64 289 -93 818 -64 1175 29 358 19 1010 -22 1450 -40 440 -86 1246 -102 1792 -17 623 -70 1006 -141 1029 -189 63 -224 -463 -119 -1771 55 -687 107 -1842 116 -2567 15 -1193 -2 -1327 -173 -1434 -174 -109 -185 -94 -130 179 32 164 20 450 -28 635 -49 185 -107 522 -131 748 -23 225 -83 473 -132 550 -49 76 -99 657 -110 1289 -12 633 -32 1420 -45 1750 -13 330 37 983 110 1450 107 682 110 1019 14 1704 -84 599 -89 936 -17 1125 90 237 79 271 -90 271 -278 0 -355 -557 -200 -1460 104 -609 102 -908 -9 -1666 -74 -508 -124 -980 -110 -1049 14 -69 -16 -125 -67 -125 -177 0 -207 558 -99 1865 108 1313 51 2435 -124 2435 -98 0 -109 -176 -100 -1700 3 -522 -33 -1107 -78 -1300 -83 -344 -85 -340 -163 243 -108 808 -112 1712 -10 2282 121 674 -97 624 -238 -55 -127 -612 -119 -1817 17 -2470 103 -497 18 -1500 -128 -1500 -51 0 -93 68 -93 150 0 83 -45 150 -100 150 -122 0 -122 -8 -2 -743 54 -326 140 -619 192 -651 97 -59 172 -1957 122 -3068 -16 -337 3 -821 41 -1075 58 -388 44 -463 -92 -463 -109 0 -161 89 -161 275 -1 1949 -177 4331 -212 2867 l-12 -492 -81 485 c-45 267 -42 582 6 700 47 118 89 156 93 84 9 -183 206 -42 206 148 0 91 -57 132 -140 101 -173 -67 -227 252 -253 1507 -12 596 19 925 87 925 58 0 106 -120 106 -267 0 -146 33 -233 74 -192 105 105 116 4059 12 4059 -47 0 -87 -169 -87 -375 -2 -597 -82 -2765 -106 -2875 -56 -264 -153 1125 -147 2125 l6 1125 -276 0 c-193 0 -279 -53 -285 -175 -31 -595 19 -6360 55 -6419 25 -39 70 -852 102 -1807 31 -954 103 -1790 159 -1857 69 -84 66 -134 -10 -160 -72 -24 -106 -359 -97 -959 8 -508 15 -1002 16 -1098 2 -96 -21 -596 -50 -1111 -61 -1089 -251 -1414 -825 -1414 -178 0 -339 -45 -358 -100 -18 -55 -370 -165 -781 -243 -933 -178 -1043 -114 -977 564 25 264 6 479 -42 479 -143 0 -261 -426 -211 -762 42 -277 16 -317 -238 -366 -519 -99 -546 1 -489 1818 56 1768 110 4275 218 10035 66 3553 65 3575 -138 3575 -112 0 -226 -59 -254 -130 -27 -72 -54 -1118 -59 -2325 -6 -1207 -33 -2960 -61 -3895 -210 -7085 -243 -8543 -406 -18100 -31 -1815 -76 -3396 -100 -3514 -24 -118 -115 -241 -202 -275 -141 -54 -152 87 -103 1314 31 756 80 4120 109 7475 29 3355 75 6483 101 6950 26 468 71 2875 101 5350 29 2475 78 5096 109 5825 l56 1325 -308 0 -308 0 0 -1197z m20300 997 c0 -55 -45 -100 -100 -100 -55 0 -100 45 -100 100 0 55 45 100 100 100 55 0 100 -45 100 -100z m500 0 c0 -55 -45 -100 -100 -100 -55 0 -100 45 -100 100 0 55 45 100 100 100 55 0 100 -45 100 -100z m2250 -131 c110 -25 -9 -51 -264 -57 -314 -8 -482 33 -518 128 -43 112 10 123 264 57 175 -45 408 -103 518 -128z m-17750 -263 c0 -552 -173 -602 -184 -54 -5 246 35 448 88 448 53 0 96 -177 96 -394z m15000 -206 c0 -55 -45 -100 -100 -100 -55 0 -100 45 -100 100 0 55 45 100 100 100 55 0 100 -45 100 -100z m2124 -71 c-125 -24 -305 -23 -400 2 -96 25 6 45 226 44 220 -1 298 -22 174 -46z m1001 5 c-69 -28 -181 -28 -250 0 -69 28 -12 50 125 50 138 0 194 -22 125 -50z m-18077 -4333 c36 -1402 33 -2515 -8 -2474 -98 98 -100 140 -167 3573 -34 1761 -24 2648 26 2200 45 -412 112 -1897 149 -3299z m6364 3249 c-85 -584 -88 -588 -98 -150 -6 248 19 561 55 697 110 414 136 90 43 -547z m8588 594 c0 -24 -70 -44 -156 -44 -86 0 -128 46 -93 102 57 92 249 48 249 -58z m1575 -13 c-96 -25 -254 -25 -350 0 -96 25 -17 46 175 46 193 0 271 -21 175 -46z m1517 33 c-113 -98 -1192 -156 -1192 -65 0 57 269 101 617 101 339 0 598 -16 575 -36z m-1727 -678 c-130 -75 -250 -76 -400 -3 -188 90 -164 104 185 107 333 3 369 -14 215 -104z m-1965 -486 c0 -55 -45 -100 -100 -100 -55 0 -100 45 -100 100 0 55 45 100 100 100 55 0 100 -45 100 -100z m327 39 c96 -95 -314 -739 -470 -739 -31 0 -57 89 -57 197 0 134 48 178 150 139 110 -42 150 13 150 203 0 248 95 332 227 200z m2623 -239 c-34 -55 -309 -100 -612 -100 -341 0 -526 38 -488 100 34 55 309 100 612 100 341 0 526 -38 488 -100z m-1875 -575 c24 -73 -44 -125 -167 -125 -123 0 -208 65 -208 157 0 184 312 157 375 -32z m-725 -25 c-34 -55 -82 -100 -106 -100 -24 0 -44 45 -44 100 0 55 48 100 106 100 58 0 78 -45 44 -100z m50 -656 c0 -86 -45 -128 -100 -94 -55 34 -100 104 -100 156 0 52 45 94 100 94 55 0 100 -70 100 -156z m400 0 c0 -86 -46 -128 -102 -93 -56 35 -75 105 -44 156 86 139 146 113 146 -63z m2800 56 c0 -55 -214 -95 -475 -88 -424 10 -443 20 -175 88 442 113 650 113 650 0z m-16624 -2800 c0 -2265 -64 -3035 -224 -2667 -44 100 -44 505 0 900 100 909 99 977 -33 2403 -84 899 -82 1311 9 1700 113 488 122 499 184 214 35 -165 64 -1312 64 -2550z m15543 2732 c-72 -29 -159 -26 -192 8 -33 33 26 56 131 52 117 -5 141 -28 61 -60z m-1519 -532 c0 -55 -70 -100 -156 -100 -86 0 -128 45 -94 100 34 55 104 100 156 100 52 0 94 -45 94 -100z m-600 -106 c0 -58 -45 -78 -100 -44 -55 34 -100 82 -100 106 0 24 45 44 100 44 55 0 100 -48 100 -106z m-12910 -946 c56 -298 54 -724 -6 -1109 -76 -486 -65 -719 49 -1056 80 -238 179 -838 218 -1333 40 -495 116 -954 169 -1019 116 -146 68 -553 -71 -599 -192 -63 -471 774 -387 1161 109 501 105 560 -37 532 -69 -14 -129 54 -134 150 -104 2053 -70 3937 68 3800 22 -23 82 -260 131 -527z m12960 352 c-34 -55 -82 -100 -106 -100 -24 0 -44 45 -44 100 0 55 48 100 106 100 58 0 78 -45 44 -100z m575 34 c-69 -28 -181 -28 -250 0 -69 28 -12 50 125 50 138 0 194 -22 125 -50z m2594 -2 c-72 -29 -159 -26 -192 8 -33 33 26 56 131 52 117 -5 141 -28 61 -60z m-3119 -638 c0 -52 -45 -94 -100 -94 -55 0 -100 70 -100 156 0 86 45 128 100 94 55 -34 100 -104 100 -156z m600 6 c0 -55 -90 -100 -200 -100 -110 0 -200 45 -200 100 0 55 90 100 200 100 110 0 200 -45 200 -100z m992 64 c-120 -103 -592 -156 -592 -66 0 56 143 102 317 102 174 0 298 -16 275 -36z m190 -618 c-147 -80 -339 -118 -425 -85 -298 114 -156 239 268 235 l425 -4 -268 -146z m1343 -12 c-69 -28 -181 -28 -250 0 -69 28 -12 50 125 50 138 0 194 -22 125 -50z m-3375 -434 c-34 -55 -82 -100 -106 -100 -24 0 -44 45 -44 100 0 55 48 100 106 100 58 0 78 -45 44 -100z m2775 29 c-124 -23 -326 -23 -450 0 -124 24 -22 44 225 44 248 0 349 -20 225 -44z m-2628 -425 c81 -51 117 -123 80 -160 -37 -38 -140 5 -229 94 -176 176 -87 215 149 66z m1728 -75 c-124 -23 -326 -23 -450 0 -124 24 -22 44 225 44 248 0 349 -20 225 -44z m-2283 -665 c-35 -90 -104 -164 -154 -164 -49 0 -35 88 32 195 142 227 214 209 122 -31z m-13742 30 c0 -58 -45 -78 -100 -44 -55 34 -100 82 -100 106 0 24 45 44 100 44 55 0 100 -48 100 -106z m14334 -215 c32 -121 35 -243 7 -272 -65 -64 -237 201 -239 368 -3 210 171 139 232 -96z m-705 -379 c-29 -110 -70 -200 -91 -200 -21 0 -38 90 -38 200 0 110 41 200 91 200 49 0 67 -90 38 -200z m3821 -400 c-34 -55 -115 -99 -181 -98 -71 0 -59 40 31 98 192 124 227 124 150 0z m-931 -68 c-72 -29 -159 -26 -192 8 -33 33 26 56 131 52 117 -5 141 -28 61 -60z m-2308 -661 c-81 -81 -111 -70 -111 42 0 199 134 334 184 185 21 -64 -12 -166 -73 -227z m2153 160 c-38 -38 -268 -73 -511 -78 -243 -4 -388 26 -323 68 150 95 929 104 834 10z m-16629 -384 c-79 -207 -135 -183 -135 59 0 113 43 179 96 147 52 -33 70 -125 39 -206z m1399 -372 c48 -365 31 -475 -74 -475 -137 0 -211 736 -94 926 79 128 99 74 168 -451z m12701 271 c-33 -85 -81 -133 -107 -107 -27 26 -18 96 18 154 98 160 156 129 89 -47z m515 -46 c-34 -55 -82 -100 -106 -100 -24 0 -44 45 -44 100 0 55 48 100 106 100 58 0 78 -45 44 -100z m1269 -68 c-72 -29 -159 -26 -192 8 -33 33 26 56 131 52 117 -5 141 -28 61 -60z m-14819 -126 c0 -52 -45 -122 -100 -156 -55 -34 -100 8 -100 94 0 86 45 156 100 156 55 0 100 -42 100 -94z m-629 -523 c-395 -84 -433 -49 -291 263 l112 246 249 -221 249 -221 -319 -67z m4029 -39 c0 -86 -45 -128 -100 -94 -55 34 -100 104 -100 156 0 52 45 94 100 94 55 0 100 -70 100 -156z m-4300 -288 c0 -223 -157 -267 -173 -49 -8 106 28 193 79 193 52 0 94 -65 94 -144z m400 -567 c0 -49 -45 -89 -100 -89 -55 0 -100 -67 -100 -150 0 -82 -64 -150 -141 -150 -115 0 -121 55 -32 290 99 263 373 336 373 99z m5469 -465 c-25 -96 -45 6 -44 226 1 220 22 298 46 174 24 -125 23 -305 -2 -400z m-6020 -86 c186 -446 187 -503 12 -570 -92 -35 -140 20 -142 164 -2 120 -34 342 -73 493 -99 393 24 340 203 -87z m5788 -1788 c30 -935 57 -1734 59 -1775 2 -41 72 -75 154 -75 177 0 192 -136 41 -377 -159 -254 22 -882 242 -844 129 23 167 -48 167 -316 0 -191 26 -429 58 -530 55 -172 50 -173 -85 -10 -78 96 -171 146 -205 111 -141 -141 -368 211 -368 570 0 209 -45 394 -100 413 -62 20 -119 956 -147 2433 -27 1389 -9 2337 41 2250 48 -82 112 -915 143 -1850z m-4092 1537 c56 -51 -5 -86 -150 -86 -341 2 -695 106 -695 204 0 102 714 2 845 -118z m1174 -555 c-72 -29 -159 -26 -192 8 -33 33 26 56 131 52 117 -5 141 -28 61 -60z m-1119 -233 c0 -64 -212 -77 -575 -36 -773 87 -788 137 -42 137 348 0 617 -44 617 -101z m3560 -172 c-33 -33 -56 26 -52 131 5 117 28 141 60 61 29 -72 26 -159 -8 -192z m840 -433 c0 -178 -42 -280 -100 -244 -55 34 -100 172 -100 306 0 134 45 244 100 244 55 0 100 -138 100 -306z m-4900 67 c0 -22 -67 -66 -150 -97 -82 -32 -150 -14 -150 39 0 53 68 97 150 97 83 0 150 -18 150 -39z m-900 -161 c0 -55 -45 -100 -100 -100 -55 0 -100 45 -100 100 0 55 45 100 100 100 55 0 100 -45 100 -100z m1550 -196 c185 -76 186 -88 24 -154 -97 -40 -232 -27 -300 29 -68 56 -236 123 -374 148 -190 35 -166 47 100 52 193 4 440 -30 550 -75z m1375 25 c-124 -23 -326 -23 -450 0 -124 24 -22 44 225 44 248 0 349 -20 225 -44z m2141 -654 c-28 -69 -50 -12 -50 125 0 138 22 194 50 125 28 -69 28 -181 0 -250z m-5347 157 c-72 -29 -159 -26 -192 8 -33 33 26 56 131 52 117 -5 141 -28 61 -60z m2826 -24 c-149 -145 -845 -248 -845 -125 0 58 169 123 375 144 206 22 418 47 470 56 60 11 60 -17 0 -75z m-1600 -107 c119 0 158 -36 100 -90 -122 -115 -745 -21 -745 112 0 55 101 73 225 40 124 -33 313 -61 420 -62z m5347 -451 c0 -110 -59 -335 -129 -500 l-128 -300 -69 343 c-37 189 -40 494 -5 678 57 306 74 320 198 157 74 -98 134 -268 133 -378z m-3523 -206 c17 -53 -322 -100 -769 -108 -969 -16 -1074 141 -125 189 816 41 854 37 894 -81z m-1819 -44 c73 -118 -25 -118 -300 0 -193 83 -192 86 19 93 121 4 247 -38 281 -93z m-2194 -110 c39 -63 192 -85 356 -53 158 32 288 19 288 -29 0 -141 -861 -173 -987 -37 -62 66 -113 145 -113 175 0 102 388 54 456 -56z m644 -590 c0 -55 -124 -96 -275 -90 l-275 10 250 80 c138 44 261 85 275 90 14 6 25 -35 25 -90z m4350 0 c34 -55 -8 -100 -94 -100 -86 0 -156 45 -156 100 0 55 42 100 94 100 52 0 122 -45 156 -100z m-1400 -202 c330 -37 555 -78 500 -90 -183 -41 -1597 6 -1646 55 -91 91 246 235 396 169 83 -37 420 -97 750 -134z m-1350 8 c0 -52 -45 -122 -100 -156 -55 -34 -100 8 -100 94 0 86 45 156 100 156 55 0 100 -42 100 -94z m-4650 -546 l700 -124 -425 -69 c-554 -90 -1225 17 -1225 196 0 160 30 160 950 -3z m2850 40 c0 -55 -115 -100 -256 -100 -145 0 -229 43 -194 100 34 55 149 100 256 100 107 0 194 -45 194 -100z m-1681 -68 c-72 -29 -159 -26 -192 8 -33 33 26 56 131 52 117 -5 141 -28 61 -60z m4656 -60 c124 -12 225 -56 225 -98 0 -41 -349 -53 -775 -27 -958 60 -914 49 -675 157 110 50 380 68 600 41 220 -28 501 -60 625 -73z m-4025 -372 c-110 -47 -312 -84 -450 -81 -227 4 -222 12 50 81 416 106 647 106 400 0z m2150 -256 c0 -24 -45 -44 -100 -44 -55 0 -100 48 -100 106 0 58 45 78 100 44 55 -34 100 -82 100 -106z m450 56 c-34 -55 -107 -100 -162 -100 -55 0 -72 45 -38 100 34 55 107 100 162 100 55 0 72 -45 38 -100z m-1850 -256 c0 -24 -259 -37 -575 -28 l-575 15 500 62 c479 60 650 47 650 -49z m-3169 -304 c214 -68 214 -71 19 -148 -324 -126 -351 -108 -338 233 6 179 31 248 56 155 25 -94 143 -202 263 -240z m1644 291 c-96 -25 -254 -25 -350 0 -96 25 -17 46 175 46 193 0 271 -21 175 -46z m4917 -295 c23 -20 -236 -36 -575 -36 -348 0 -617 44 -617 101 0 91 1079 33 1192 -65z m1747 13 c79 -108 422 -175 1205 -235 601 -47 1180 -63 1286 -35 167 43 178 23 84 -153 -74 -138 -259 -226 -586 -278 -470 -74 -2641 -68 -2716 7 -61 61 468 831 577 841 21 2 89 -64 150 -147z m7661 4 c0 -61 -563 -354 -670 -350 -138 6 385 397 531 397 76 0 139 -21 139 -47z m-12900 -253 c108 -70 16 -97 -331 -98 -295 -1 -457 37 -419 98 79 127 553 127 750 0z m1219 -68 c-72 -29 -159 -26 -192 8 -33 33 26 56 131 52 117 -5 141 -28 61 -60z m-676 -521 c31 -49 -428 -115 -1019 -147 -591 -32 -1490 -87 -1999 -123 -791 -56 -925 -43 -925 87 0 123 147 153 760 155 418 2 779 23 803 47 86 86 2327 67 2380 -19z m6550 -521 c-115 -161 -256 -263 -314 -227 -58 36 -268 75 -467 88 -199 12 -705 56 -1125 96 -492 48 -785 38 -825 -28 -80 -129 240 -191 1413 -274 509 -37 924 -95 922 -131 -2 -35 -59 -138 -128 -228 -113 -149 -197 -151 -922 -22 -1005 179 -1254 175 -1444 -27 -140 -148 -125 -157 164 -104 174 32 601 9 950 -51 348 -60 711 -113 806 -117 153 -7 157 -31 33 -211 -77 -112 -200 -184 -273 -161 -389 128 -1124 112 -1481 -31 -258 -103 -415 -122 -457 -54 -135 218 -70 1004 110 1338 207 384 184 380 2370 420 l876 16 -208 -292z m-4420 141 c-97 -26 -232 -24 -300 3 -68 28 12 49 177 47 165 -3 220 -25 123 -50z m-3973 -231 c0 -55 -214 -94 -475 -86 l-475 14 400 72 c220 39 434 78 475 86 41 8 75 -31 75 -86z m1800 0 c0 -55 -87 -100 -194 -100 -107 0 -222 45 -256 100 -35 57 49 100 194 100 141 0 256 -45 256 -100z m-3700 -300 c0 -111 -67 -200 -150 -200 -152 0 -205 212 -83 333 126 127 233 66 233 -133z m20841 114 c60 -97 -121 -288 -683 -719 -395 -302 -562 -332 -635 -114 -25 74 21 96 120 58 107 -41 298 88 583 398 436 471 524 525 615 377z m-15541 -514 c-361 -116 -621 -116 -550 0 34 55 228 96 431 90 331 -9 344 -18 119 -90z m700 0 c0 -55 -42 -100 -94 -100 -52 0 -122 45 -156 100 -34 55 8 100 94 100 86 0 156 -45 156 -100z m600 0 c0 -125 -106 -125 -300 0 -121 78 -107 97 75 98 124 1 225 -43 225 -98z m-3357 -89 c67 -107 -443 -188 -993 -156 -693 40 -719 77 -100 145 945 105 1035 105 1093 11z m-2723 -231 c-93 -93 -147 -93 -240 0 -93 93 -67 120 120 120 187 0 213 -27 120 -120z m18380 -180 c0 -55 -45 -100 -100 -100 -55 0 -100 45 -100 100 0 55 45 100 100 100 55 0 100 -45 100 -100z m-12216 -175 c-16 -96 7 -233 52 -304 62 -99 15 -113 -203 -61 -375 90 -375 89 -168 330 219 256 358 271 319 35z m10752 -75 c32 -82 14 -150 -39 -150 -53 0 -97 68 -97 150 0 83 18 150 39 150 22 0 66 -67 97 -150z m1044 -120 c21 -137 -37 -222 -177 -258 -198 -52 -222 61 -111 511 29 120 264 -86 288 -253z m-9496 17 c18 -17 -84 -233 -229 -479 -251 -429 -279 -446 -644 -397 -210 28 -479 0 -597 -63 -199 -107 -215 -91 -229 238 -8 195 -19 404 -25 466 -17 193 659 373 1190 318 275 -29 515 -66 534 -83z m-6885 -58 c1 -72 -1141 -187 -1874 -188 -404 -1 -525 34 -525 151 0 129 181 148 1199 125 660 -15 1200 -54 1200 -88z m17101 -89 c0 -55 -48 -100 -106 -100 -58 0 -78 45 -44 100 34 55 82 100 106 100 24 0 44 -45 44 -100z m-13324 -425 c-69 -124 -182 -261 -251 -305 -190 -122 -150 -267 100 -362 222 -85 221 -88 -50 -158 -331 -86 -364 -249 -50 -252 124 0 293 -45 375 -98 108 -70 16 -97 -332 -98 -536 -2 -868 -136 -868 -351 0 -83 -145 -169 -350 -208 -210 -39 -350 -124 -350 -211 0 -108 59 -125 225 -67 198 70 2981 60 3053 -10 15 -15 -16 -142 -69 -282 -96 -253 -104 -255 -1346 -266 -757 -7 -1273 28 -1311 90 -96 155 -1079 134 -1028 -22 23 -69 217 -140 432 -157 216 -18 443 -76 506 -128 67 -56 599 -72 1276 -40 639 30 1161 20 1160 -23 0 -42 -44 -144 -96 -227 -79 -125 -417 -150 -2015 -150 -1293 0 -1931 -35 -1956 -109 -26 -75 516 -110 1772 -114 995 -3 1832 -29 1860 -56 27 -28 -108 -364 -301 -747 -285 -566 -403 -707 -631 -750 -494 -93 -2458 -67 -3160 41 -726 112 -1171 58 -1171 -142 0 -140 272 -158 2725 -179 1724 -15 1823 -41 1542 -410 -110 -145 -272 -157 -1271 -100 -630 36 -1720 59 -2421 50 -1093 -13 -1275 7 -1275 140 0 156 740 1009 1187 1369 233 187 244 187 375 8 114 -157 174 -167 391 -68 323 147 700 149 968 6 154 -83 309 -82 593 4 287 85 492 86 802 3 467 -126 1084 -50 1084 134 0 87 -322 118 -1175 114 -646 -4 -1259 34 -1361 84 -115 56 -356 47 -639 -24 -756 -190 -740 -14 85 950 407 475 898 1058 1090 1296 193 238 518 538 722 666 205 129 374 268 375 309 2 41 5 109 7 150 3 71 804 925 868 925 16 0 -27 -101 -96 -225z m-4104 -142 c39 -116 -728 -231 -1547 -232 -730 -1 -659 171 100 241 344 32 760 73 925 92 387 44 480 27 522 -101z m14528 17 c0 -82 -48 -150 -107 -150 -59 0 -175 -67 -257 -150 -208 -207 -459 -192 -415 25 21 101 109 163 208 146 100 -18 171 34 171 125 0 87 86 154 200 154 111 0 200 -67 200 -150z m-9446 -57 c102 -164 -32 -236 -192 -103 -82 68 -253 91 -402 53 -163 -40 -260 -23 -260 46 0 143 766 146 854 4z m10096 -93 c-34 -55 -138 -99 -231 -98 -146 1 -148 14 -19 98 196 127 328 127 250 0z m4750 -100 c0 -55 -42 -100 -94 -100 -52 0 -122 45 -156 100 -34 55 8 100 94 100 86 0 156 -45 156 -100z m-1600 -156 c0 -24 -45 -44 -100 -44 -55 0 -100 48 -100 106 0 58 45 78 100 44 55 -34 100 -82 100 -106z m-11811 -104 c120 -107 -251 -346 -457 -295 -162 41 -232 16 -232 -85 0 -79 56 -166 125 -194 69 -28 1 -54 -150 -58 -239 -7 -275 30 -275 284 0 227 61 313 275 391 240 86 593 65 714 -43z m10136 -6 c-69 -28 -181 -28 -250 0 -69 28 -12 50 125 50 138 0 194 -22 125 -50z m-11876 -136 c-35 -56 -105 -75 -156 -44 -139 86 -113 146 63 146 86 0 128 -46 93 -102z m8651 8 c0 -136 -176 -225 -240 -122 -60 97 26 216 157 216 46 0 83 -42 83 -94z m-14541 -120 c49 -81 -29 -96 -270 -51 -389 71 -545 -1 -616 -285 -33 -133 -54 -91 -61 125 -12 320 -5 325 432 325 244 0 476 -51 515 -114z m14172 -307 c93 17 169 -17 169 -75 0 -158 -459 -124 -599 45 -68 82 -94 226 -57 321 57 150 83 140 192 -74 73 -143 196 -234 295 -217z m2591 -46 c-18 -127 55 -240 200 -309 168 -81 184 -112 61 -117 -334 -14 -483 113 -483 412 0 194 43 283 125 255 69 -23 112 -132 97 -241z m-10622 67 c0 -55 -146 -99 -325 -98 -247 1 -289 24 -175 98 197 127 500 127 500 0z m9881 -94 c25 -75 -12 -112 -87 -87 -72 24 -151 103 -175 175 -25 75 12 112 87 87 72 -24 151 -103 175 -175z m1911 158 c-23 -21 -154 -90 -292 -156 -236 -112 -239 -110 -56 36 159 128 485 240 348 120z m608 -158 c0 -52 -45 -122 -100 -156 -55 -34 -100 8 -100 94 0 86 45 156 100 156 55 0 100 -42 100 -94z m-11900 -401 c582 -103 550 -109 -720 -134 -747 -15 -1107 17 -1195 104 -100 100 34 124 670 118 437 -4 998 -44 1245 -88z m-7300 -105 c0 -55 -42 -100 -94 -100 -52 0 -122 45 -156 100 -34 55 8 100 94 100 86 0 156 -45 156 -100z m16793 -41 c73 -89 80 -164 19 -202 -54 -33 -126 -15 -161 41 -35 56 -153 102 -263 102 -110 0 -172 45 -138 100 90 146 407 122 543 -41z m3742 -135 c62 -100 -215 -477 -293 -399 -33 33 -31 153 6 267 66 210 201 272 287 132z m-3204 -388 c-39 -101 8 -217 120 -299 102 -74 156 -163 122 -197 -68 -68 -573 438 -573 575 0 47 89 85 197 85 141 0 179 -46 134 -164z m2392 -61 c-56 -69 -124 -215 -151 -325 -39 -161 -51 -150 -60 58 -13 270 55 392 217 392 58 0 55 -50 -6 -125z m-3169 -168 c-36 -59 -114 -107 -172 -107 -66 0 -59 57 20 152 137 166 260 129 152 -45z m-15954 -907 c106 -69 -17 -97 -425 -98 -318 -1 -575 43 -575 98 0 128 802 128 1000 0z m18260 -173 c-33 -33 -56 26 -52 131 5 117 28 141 60 61 29 -72 26 -159 -8 -192z m-8436 -177 c-26 -137 -65 -250 -86 -250 -21 0 -38 113 -38 250 0 138 39 250 86 250 48 0 65 -112 38 -250z m-10166 -237 c-49 -80 -558 -36 -558 49 0 21 138 38 306 38 168 0 282 -39 252 -87z m14485 -256 c-37 -146 -86 -247 -110 -223 -23 23 -13 162 24 309 37 146 86 247 110 223 23 -23 13 -162 -24 -309z m-3692 141 c35 -56 105 -75 157 -43 51 32 39 -69 -27 -224 -166 -385 -179 -395 -286 -228 -83 129 -108 129 -198 -3 -76 -111 -86 -72 -36 150 103 465 242 588 390 348z m749 -398 c0 -110 -45 -200 -100 -200 -55 0 -100 90 -100 200 0 110 45 200 100 200 55 0 100 -90 100 -200z m6000 100 c0 -55 -45 -100 -100 -100 -55 0 -100 45 -100 100 0 55 45 100 100 100 55 0 100 -45 100 -100z m-17715 -89 c96 -60 45 -99 -175 -131 -214 -31 -310 -4 -310 87 0 149 279 175 485 44z m12781 -536 c-28 -69 -50 -12 -50 125 0 138 22 194 50 125 28 -69 28 -181 0 -250z m8034 199 c0 -151 -393 -415 -483 -324 -35 35 48 150 184 255 298 228 299 228 299 69z m-21081 -242 c-72 -29 -159 -26 -192 8 -33 33 26 56 131 52 117 -5 141 -28 61 -60z m14281 -32 c0 -55 -42 -100 -94 -100 -52 0 -122 45 -156 100 -34 55 8 100 94 100 86 0 156 -45 156 -100z m-3800 -42 c0 -23 29 -118 65 -211 57 -148 36 -155 -153 -54 -120 65 -191 160 -159 212 58 94 247 134 247 53z m10700 -200 c0 -78 -48 -157 -107 -177 -58 -19 -123 -301 -142 -624 -33 -537 -72 -624 -444 -985 -224 -217 -408 -379 -410 -359 -101 1475 -116 1422 551 1964 438 356 552 393 552 181z m-21000 -96 c0 -22 -112 -113 -250 -203 -238 -156 -250 -154 -250 39 0 149 66 202 250 202 138 0 250 -17 250 -38z m14510 -592 c-172 -172 -218 -28 -84 261 115 248 126 252 157 57 19 -116 -14 -259 -73 -318z m-11460 -70 c185 -47 -197 -78 -1000 -81 -809 -3 -1224 28 -1100 81 244 105 1687 105 2100 0z m-2450 -100 c0 -55 -115 -100 -256 -100 -145 0 -229 43 -194 100 34 55 149 100 256 100 107 0 194 -45 194 -100z m4700 69 c0 -17 -114 -267 -252 -555 -150 -310 -297 -496 -361 -456 -75 47 -71 90 15 143 307 190 -61 299 -1033 306 -1075 7 -1820 161 -969 199 248 12 799 10 1225 -3 823 -25 1081 137 400 251 -637 106 -603 130 200 138 426 4 775 -6 775 -23z m-4250 -522 c-385 -74 -846 -137 -1025 -141 -179 -3 -325 -46 -325 -95 0 -166 299 -206 815 -108 572 108 1653 132 1555 34 -90 -91 -1640 -333 -2145 -335 -401 -2 -425 14 -425 283 0 392 264 489 1350 493 l900 3 -700 -134z m4915 -347 c78 0 168 -70 201 -156 33 -85 121 -132 196 -103 85 32 160 -43 200 -202 52 -208 107 -243 301 -195 200 51 237 22 237 -180 0 -132 72 -299 160 -373 139 -115 197 -89 425 189 146 177 295 321 332 321 103 -1 313 -707 304 -1022 -10 -375 337 -379 656 -7 188 219 221 342 171 639 -41 242 -20 394 60 444 142 88 419 -239 352 -415 -24 -63 -76 -480 -115 -927 -82 -944 -37 -981 589 -488 l413 325 -229 -389 c-215 -367 -232 -661 -38 -661 47 0 291 136 542 302 582 386 736 731 571 1281 -97 324 -96 470 6 716 132 318 556 660 438 353 -32 -83 -24 -231 18 -327 42 -96 66 -256 53 -356 -15 -121 33 -171 143 -150 134 25 170 -62 187 -442 12 -291 98 -579 223 -750 247 -336 1141 -956 1565 -1084 169 -51 356 -176 416 -277 91 -155 33 -249 -380 -617 -480 -425 -499 -432 -1064 -382 l-575 51 -261 -553 c-144 -304 -262 -627 -262 -719 0 -91 -156 -322 -346 -512 -294 -294 -376 -329 -550 -236 -118 63 -204 210 -204 349 0 187 60 247 275 271 164 19 275 93 275 182 0 105 -83 140 -275 118 -333 -39 -352 105 -75 559 110 180 200 396 200 479 0 132 -341 699 -507 844 -32 28 -87 129 -122 225 -37 99 -167 175 -302 175 -210 0 -236 -42 -217 -357 12 -196 73 -408 135 -470 134 -134 150 -373 25 -373 -49 0 -115 79 -147 175 -33 96 -98 243 -146 325 -48 83 -152 284 -231 449 -171 353 -624 556 -814 364 -99 -101 -88 -153 54 -258 154 -113 161 -169 55 -403 -103 -225 -99 -286 22 -359 358 -216 435 -286 376 -346 -35 -35 -151 -17 -257 40 -324 174 -1094 242 -1179 105 -43 -70 -6 -173 88 -242 90 -66 136 -148 101 -182 -101 -101 173 -368 378 -368 104 0 188 -19 188 -42 0 -23 27 -113 61 -200 42 -109 3 -158 -126 -158 -229 0 -695 -418 -786 -704 -82 -258 12 -375 173 -214 144 144 478 156 478 18 0 -55 62 -100 138 -100 76 0 194 -67 262 -150 69 -84 287 -150 492 -150 378 0 608 -140 608 -370 0 -71 -84 -130 -188 -130 -103 0 -241 -64 -305 -142 -93 -112 -82 -162 51 -236 157 -88 155 -109 -20 -286 -103 -106 -388 -427 -632 -714 -244 -287 -522 -522 -619 -522 -96 0 -203 -45 -237 -100 -95 -154 329 -118 584 49 125 81 381 354 570 606 418 558 939 846 1146 635 75 -77 165 -256 200 -397 54 -223 -20 -330 -559 -800 -342 -299 -969 -884 -1394 -1301 -424 -417 -968 -860 -1209 -983 -241 -124 -663 -441 -938 -705 -275 -264 -626 -509 -779 -545 -313 -73 -430 -272 -316 -534 72 -166 78 -166 118 2 23 97 212 263 419 369 207 106 527 363 711 572 183 209 494 454 690 544 196 90 715 506 1154 926 438 419 832 762 876 762 43 0 348 248 677 550 329 303 639 550 688 550 50 0 118 -111 152 -247 107 -423 554 -753 1022 -753 246 0 464 61 538 150 68 82 183 150 255 150 72 0 241 142 377 315 177 226 296 296 424 246 185 -70 -274 -551 -1950 -2039 -1465 -1301 -1515 -1353 -1412 -1456 70 -70 225 24 486 291 211 216 807 753 1325 1193 517 440 1170 1013 1450 1273 280 260 799 688 1152 951 354 263 687 578 741 700 102 232 352 390 352 223 0 -53 -50 -97 -112 -97 -62 0 -88 -88 -59 -201 35 -133 -20 -251 -163 -351 -119 -82 -846 -769 -1616 -1525 -770 -756 -1715 -1659 -2100 -2005 -1193 -1074 -1650 -1549 -1650 -1717 0 -88 -54 -215 -120 -281 -93 -93 -84 -120 40 -120 88 0 205 124 259 275 54 151 182 352 285 445 1592 1454 3199 2949 3667 3412 323 320 607 563 631 539 24 -23 -42 -240 -145 -482 -140 -326 -662 -892 -2028 -2197 -2304 -2203 -2643 -2504 -2725 -2423 -36 36 -211 -91 -390 -283 -566 -609 -1841 -1686 -1995 -1686 -82 0 -341 -139 -575 -309 -249 -180 -463 -272 -515 -220 -52 52 153 260 493 500 320 226 902 696 1293 1045 391 349 860 764 1043 924 194 169 282 307 213 331 -66 23 -758 -504 -1538 -1170 -930 -795 -1472 -1192 -1572 -1154 -85 33 -255 -38 -387 -162 -128 -121 -234 -171 -234 -112 0 59 619 651 1375 1316 756 665 1420 1251 1475 1302 55 51 368 342 695 647 328 305 568 582 534 616 -98 99 -479 -146 -479 -308 0 -80 -44 -146 -98 -146 -54 0 -518 -371 -1031 -825 -1730 -1529 -2078 -1816 -2350 -1934 -149 -64 -398 -251 -552 -416 -254 -270 -328 -294 -750 -249 -597 64 -809 211 -563 391 95 69 215 101 266 69 51 -31 202 46 335 171 134 125 243 185 243 133 0 -53 -90 -173 -200 -267 -204 -174 -266 -373 -118 -373 45 0 478 381 962 847 484 466 959 872 1056 903 97 31 485 353 862 715 377 363 925 812 1217 999 292 187 502 386 467 443 -42 67 -159 44 -330 -66 -467 -298 -1603 -1250 -1912 -1601 -164 -187 -364 -340 -445 -340 -81 0 -206 -81 -278 -179 -191 -261 -765 -643 -870 -578 -50 31 -319 -101 -598 -294 -280 -192 -569 -349 -644 -349 -74 0 -192 -107 -262 -237 -115 -215 -658 -463 -1012 -463 -171 0 323 516 831 868 216 150 554 420 752 601 198 181 452 358 566 393 113 35 390 227 615 426 225 199 558 475 741 612 635 478 1049 884 976 958 -41 40 -333 -149 -650 -420 -317 -272 -703 -574 -858 -673 -155 -98 -361 -254 -459 -347 -97 -92 -454 -366 -793 -607 -339 -242 -616 -478 -616 -525 0 -47 -57 -86 -126 -86 -69 0 -247 -112 -396 -250 -148 -137 -362 -250 -476 -250 -123 0 -252 -101 -320 -250 -63 -137 -149 -250 -191 -250 -42 0 -91 -77 -109 -172 -22 -114 -138 -177 -345 -188 -171 -8 -485 -133 -697 -278 -213 -144 -463 -262 -556 -262 -222 0 -325 -336 -177 -574 98 -157 69 -239 -180 -512 l-296 -325 15 656 c8 361 69 710 135 776 153 153 152 429 -2 676 -95 152 -95 349 2 911 67 394 154 768 193 830 38 61 76 270 83 462 17 452 200 1415 390 2050 246 824 949 3250 1157 4000 108 385 326 1038 486 1450 160 413 345 930 411 1150 183 601 956 2736 1182 3261 109 253 319 726 466 1050 1382 3033 1287 2859 1438 2639 76 -110 201 -200 278 -200z m-3165 0 c133 -86 133 -97 0 -97 -82 0 -217 44 -300 97 -133 86 -133 97 0 97 83 0 218 -44 300 -97z m1383 12 c209 -132 -261 -219 -733 -136 l-400 71 450 62 c247 33 472 67 500 74 28 8 110 -24 183 -71z m-1322 -386 l489 -75 -650 -64 c-1903 -189 -2163 -200 -2400 -103 -235 97 -225 104 150 121 220 10 535 53 700 95 410 104 1123 115 1711 26z m1839 -87 c0 -105 -54 -140 -158 -100 -87 34 -256 65 -375 71 -200 9 -197 16 33 90 392 125 500 112 500 -61z m-4861 -285 c139 -184 533 -198 2853 -100 1782 75 1839 71 1769 -112 -40 -104 -214 -505 -387 -891 l-314 -701 -2193 -14 -2193 -14 57 550 c31 302 75 567 98 590 22 22 1070 59 2328 82 1505 27 2300 78 2324 149 20 61 -108 110 -298 115 -183 4 -625 26 -983 48 -357 23 -1032 7 -1500 -34 -1235 -109 -1870 -49 -1930 181 -81 312 169 414 369 151z m19961 -610 c0 -165 -158 -193 -250 -44 -82 132 38 319 157 246 51 -32 93 -123 93 -202z m-6400 -144 c0 -55 -41 -100 -92 -100 -50 0 -174 -26 -275 -58 -167 -53 -167 -45 11 100 222 181 356 203 356 58z m6000 -950 c119 -192 280 -350 358 -350 269 0 141 -274 -258 -550 -366 -254 -532 -550 -308 -550 93 0 672 449 858 665 109 127 550 10 550 -147 0 -111 -1155 -1218 -1271 -1218 -47 0 -228 289 -402 641 -174 353 -428 724 -565 825 l-248 184 414 425 c227 234 468 425 535 425 66 0 218 -157 337 -350z m-5473 -155 c-317 -296 -527 -376 -527 -202 0 52 84 120 187 153 103 32 267 148 366 257 98 109 204 173 234 143 31 -31 -86 -188 -260 -351z m6273 249 c0 -24 -45 -44 -100 -44 -55 0 -100 48 -100 106 0 58 45 78 100 44 55 -34 100 -82 100 -106z m1100 -247 c0 -50 -67 -65 -149 -33 -83 31 -125 98 -94 148 65 105 243 21 243 -115z m-19634 -248 c1656 17 2007 -3 1965 -113 -40 -103 -260 -127 -917 -101 -881 35 -2574 -71 -3050 -190 -245 -62 -264 -43 -264 256 0 245 30 299 125 225 75 -59 934 -90 2141 -77z m1621 -607 c21 -18 15 -92 -12 -163 -39 -101 -446 -125 -1812 -110 -1602 18 -1966 -32 -1656 -224 59 -36 798 -72 1642 -80 844 -8 1557 -38 1585 -66 28 -28 -2 -222 -66 -431 l-118 -380 -750 12 c-1604 25 -2503 -44 -2602 -200 -71 -112 -95 -65 -96 186 -2 334 1 336 367 267 556 -104 2947 48 2901 185 -26 79 -520 101 -1654 74 l-1616 -38 0 413 c0 227 11 417 25 423 14 5 453 69 975 141 810 113 2760 107 2887 -9z m17964 -343 c178 -196 166 -215 -610 -947 -435 -411 -842 -748 -904 -749 -62 -2 -171 137 -242 309 -116 279 -109 322 63 414 106 57 417 342 692 635 546 582 726 642 1001 338z m-6251 -406 c0 -58 81 -81 180 -49 99 31 266 -6 371 -83 183 -133 176 -154 -164 -494 -382 -382 -752 -525 -1112 -429 -512 137 -513 215 -9 696 470 448 734 577 734 359z m6906 -154 c128 -240 120 -277 -108 -475 -137 -118 -553 -540 -926 -938 -727 -777 -687 -770 -886 -140 -38 119 1569 1811 1722 1813 32 1 121 -116 198 -260z m-5304 -192 c106 -127 88 -195 -105 -400 -127 -136 -292 -247 -364 -247 -73 0 -133 -67 -133 -150 0 -210 272 -187 573 50 140 110 293 200 340 200 106 0 117 -771 12 -831 -147 -83 -1379 184 -1614 350 l-238 169 538 502 c568 530 784 607 991 357z m-16559 -958 c-30 -49 -139 -89 -243 -89 -186 0 -364 -169 -273 -260 26 -26 401 -52 835 -59 l788 -11 -650 -116 c-357 -64 -748 -170 -868 -235 -121 -65 -246 -119 -280 -119 -58 0 -52 889 8 1006 15 30 188 37 383 14 196 -23 331 -82 300 -131z m1807 43 c-495 -133 -1094 -103 -1195 60 -29 47 341 82 821 79 l874 -5 -500 -134z m11650 -29 c0 -53 68 -71 150 -39 103 39 150 -6 150 -145 0 -299 -219 -322 -475 -49 -276 294 -278 330 -25 330 110 0 200 -44 200 -97z m-13081 -171 c-72 -29 -159 -26 -192 8 -33 33 26 56 131 52 117 -5 141 -28 61 -60z m2151 -172 c-51 -152 -801 -262 -1137 -166 l-283 80 250 59 c692 164 1220 176 1170 27z m12083 -141 c-31 -30 -112 0 -180 69 -98 98 -86 110 56 56 99 -38 154 -94 124 -125z m-1107 -326 c-86 -139 -146 -113 -146 63 0 86 46 128 102 93 56 -35 75 -105 44 -156z m-396 7 c-34 -55 -82 -100 -106 -100 -24 0 -44 45 -44 100 0 55 48 100 106 100 58 0 78 -45 44 -100z m-10850 -183 c0 -135 -83 -186 -325 -198 -2045 -103 -2675 -109 -2675 -26 0 198 269 239 1518 234 706 -3 1308 35 1339 84 87 141 143 104 143 -94z m-222 -625 c21 -111 -130 -144 -700 -153 -401 -6 -1011 -46 -1358 -89 -501 -63 -622 -111 -596 -239 20 -96 113 -149 230 -130 108 16 556 45 996 63 440 18 924 65 1076 105 225 60 265 45 217 -81 -59 -155 -631 -251 -1838 -309 -303 -15 -561 -78 -583 -143 -21 -64 -82 -116 -136 -116 -55 0 -84 241 -67 555 28 514 46 550 250 499 120 -30 243 -16 272 31 29 47 466 91 971 98 504 7 942 37 971 67 89 89 265 -6 295 -158z m9578 -447 c37 -250 41 -481 8 -514 -91 -91 -373 180 -480 462 -76 198 -59 278 79 379 273 199 320 160 393 -327z m1525 -298 c-31 -30 -87 25 -125 124 -54 142 -42 154 56 56 69 -68 99 -149 69 -180z m-11481 -349 c0 -123 -454 -203 -1192 -210 -378 -3 -804 -67 -948 -141 -220 -114 -260 -114 -260 3 0 220 171 273 1037 325 447 27 826 60 842 74 71 62 521 18 521 -51z m17000 -204 c0 -58 -45 -78 -100 -44 -55 34 -100 82 -100 106 0 24 45 44 100 44 55 0 100 -48 100 -106z m-4119 -503 c-400 -342 -449 -350 -533 -83 -85 265 5 355 195 198 169 -140 357 -63 357 147 0 86 60 118 156 81 123 -47 87 -118 -175 -343z m-13004 189 c-55 -163 -391 -241 -1410 -326 -740 -61 -867 -50 -867 80 0 155 453 202 1625 169 274 -7 475 31 475 92 0 58 49 105 108 105 60 0 91 -54 69 -120z m18220 -84 c-190 -120 -397 -122 -397 -3 0 92 405 198 497 131 26 -19 -19 -77 -100 -128z m644 -81 c29 -47 -10 -171 -87 -275 -110 -149 -167 -164 -263 -69 -97 95 -96 153 5 275 143 172 266 197 345 69z m-19115 -375 c33 -33 39 -115 13 -183 -32 -83 -336 -130 -917 -144 -478 -11 -908 -59 -955 -106 -139 -139 480 -228 1069 -154 354 44 563 29 608 -43 118 -191 -402 -312 -918 -214 -262 49 -515 52 -562 6 -183 -179 72 -302 625 -302 622 0 727 -42 643 -260 -39 -104 -258 -140 -843 -140 l-789 0 0 739 0 740 615 8 c338 5 638 32 666 61 72 72 672 66 745 -8z m12472 -165 c-1 -182 -20 -196 -98 -75 -125 194 -125 300 0 300 55 0 99 -101 98 -225z m7070 -130 c20 -58 -101 -206 -268 -329 -263 -194 -311 -203 -364 -66 -33 86 21 247 121 357 185 206 449 225 511 38z m-2049 -113 c-72 -29 -159 -26 -192 8 -33 33 26 56 131 52 117 -5 141 -28 61 -60z m-1455 -502 c-41 -41 -117 -8 -168 73 -154 243 -108 352 73 171 93 -93 136 -203 95 -244z m3286 -496 c-943 -872 -1341 -1176 -1427 -1090 -39 39 373 498 917 1019 735 704 1017 919 1099 833 82 -85 -71 -283 -589 -762z m-650 275 c0 -115 -232 -309 -370 -309 -160 0 -170 220 -18 372 112 112 388 68 388 -63z m-2954 -202 c100 -162 -118 -211 -247 -56 -100 121 -94 149 33 149 86 0 182 -42 214 -93z m4554 60 c0 -17 -124 -141 -275 -275 l-275 -242 242 275 c227 257 308 321 308 242z m398 -142 c-1 -41 -192 -229 -425 -417 l-423 -341 395 416 c411 433 456 467 453 342z m-6398 -431 c0 -286 -148 -236 -164 55 -8 138 25 225 75 194 49 -30 89 -142 89 -249z m834 -90 c205 -80 206 -88 27 -160 -207 -84 -463 169 -458 450 2 126 23 121 109 -25 58 -100 202 -219 322 -265z m2798 130 c107 -106 -139 -334 -360 -334 -197 0 -197 6 -22 200 192 212 276 241 382 134z m-18432 -184 c0 -119 -144 -150 -700 -150 -385 0 -700 -42 -700 -94 0 -159 178 -217 700 -229 332 -7 500 -54 500 -138 0 -208 -148 -241 -774 -176 l-595 62 -6 438 -7 437 791 0 c636 0 791 -29 791 -150z m13737 -236 c160 -176 152 -199 -159 -438 -430 -330 -720 -604 -2645 -2491 -889 -872 -1681 -1585 -1760 -1585 -79 0 -261 -108 -404 -241 -143 -133 -442 -343 -665 -469 -380 -214 -586 -581 -254 -454 197 76 190 -26 -15 -253 -202 -223 -412 -246 -229 -25 108 130 107 172 -7 243 -130 80 -699 -227 -782 -422 -19 -44 -109 -77 -200 -74 -221 6 1320 1439 1783 1658 193 91 490 305 661 476 170 171 1047 1009 1948 1861 901 853 1818 1735 2039 1961 221 226 429 418 462 425 32 8 135 -70 227 -172z m1263 -20 c0 -58 -45 -78 -100 -44 -55 34 -100 82 -100 106 0 24 45 44 100 44 55 0 100 -48 100 -106z m4304 -439 c-177 -214 -329 -88 -195 162 77 145 141 173 216 98 75 -75 69 -151 -21 -260z m-4842 25 c81 -130 -1450 -1627 -1553 -1519 -33 33 42 129 166 212 229 154 300 327 134 327 -176 0 -1219 -1082 -1109 -1150 60 -37 186 -8 279 63 94 72 59 2 -79 -156 -300 -343 -2666 -2331 -2950 -2478 -246 -127 -165 -42 500 526 450 385 573 596 300 516 -55 -17 122 163 393 398 271 235 541 433 600 439 59 6 163 18 232 27 69 8 125 85 125 171 0 88 -48 126 -110 88 -79 -49 -81 -13 -7 125 237 442 2619 2531 2886 2531 66 0 153 -54 193 -120z m-549 -1416 c-530 -512 -1210 -1153 -1513 -1423 -302 -270 -586 -547 -630 -616 -44 -69 -125 -125 -179 -125 -117 0 -618 -339 -1041 -705 -413 -357 -850 -618 -850 -509 0 50 154 164 342 253 188 90 357 196 375 237 18 41 326 340 683 666 628 572 2332 2178 3146 2966 274 265 431 353 512 285 84 -69 -156 -361 -845 -1029z m-14336 886 c80 -63 -111 -331 -210 -296 -64 23 -297 58 -517 79 -273 26 -410 91 -433 204 -28 146 40 158 550 101 321 -36 595 -76 610 -88z m16123 -289 c0 -101 -1714 -1480 -1770 -1425 -35 35 -45 76 -22 92 23 15 369 330 769 700 400 369 793 672 875 672 81 0 148 -18 148 -39z m859 -389 c-417 -304 -1900 -1483 -1959 -1559 -27 -34 -135 -130 -239 -212 -176 -139 -185 -133 -119 75 44 137 30 224 -36 224 -72 0 -68 64 13 194 67 106 162 168 212 137 50 -31 29 -95 -45 -142 -111 -70 -108 -86 14 -87 188 -2 800 366 800 480 0 47 101 138 225 203 124 64 473 314 775 556 303 242 572 418 600 391 27 -26 -81 -144 -241 -260z m1141 290 c0 -61 -1026 -817 -1300 -958 -248 -128 -249 -127 -50 62 535 510 1350 1051 1350 896z m-18700 -251 c0 -48 -135 -108 -300 -132 -289 -43 -374 14 -233 154 98 99 533 81 533 -22z m319 -79 c-72 -29 -159 -26 -192 8 -33 33 26 56 131 52 117 -5 141 -28 61 -60z m-19 -426 c0 -51 -143 -107 -317 -125 -430 -42 -501 -281 -84 -281 477 0 368 -313 -124 -357 l-375 -33 0 445 0 445 450 0 c248 0 450 -42 450 -94z m15498 -458 c-70 -84 -153 -127 -184 -95 -32 32 8 100 89 151 212 134 239 117 95 -56z m-1142 -538 c-115 -186 -469 -133 -435 65 16 96 74 207 129 246 132 95 393 -171 306 -311z m-14656 -185 c0 -128 -81 -175 -300 -175 -280 0 -387 130 -233 283 145 145 533 67 533 -108z m14434 -504 c-211 -208 -403 -365 -427 -348 -63 44 616 727 722 727 49 0 -83 -170 -295 -379z m-868 -220 c-157 -187 -267 -252 -296 -174 -25 67 72 249 216 403 338 363 409 161 80 -229z m-13701 145 c33 -84 -20 -241 -117 -348 -141 -156 -151 -223 -54 -341 68 -81 93 -241 57 -355 -36 -114 -82 -465 -102 -780 -103 -1616 -187 -2322 -276 -2322 -59 0 -74 152 -37 375 34 206 62 1174 63 2150 1 1717 8 1775 204 1775 112 0 230 -69 262 -154z m12785 -346 c-34 -55 -107 -100 -162 -100 -55 0 -72 45 -38 100 34 55 107 100 162 100 55 0 72 -45 38 -100z m1021 -425 c-25 -69 35 -215 132 -325 217 -243 485 -1116 559 -1814 46 -445 23 -542 -173 -725 -125 -116 -263 -211 -308 -211 -44 0 -81 264 -81 587 0 324 -65 773 -145 1000 -80 226 -187 638 -237 915 -77 422 -65 518 70 597 215 126 237 123 183 -24z m-1671 -125 c-68 -82 -175 -149 -237 -147 -62 2 -26 69 81 150 249 189 314 187 156 -3z m-1764 -100 c-31 -82 -103 -150 -159 -150 -58 0 -49 64 23 150 68 83 140 150 159 150 19 0 9 -67 -23 -150z m-486 -350 c-34 -55 -82 -100 -106 -100 -24 0 -44 45 -44 100 0 55 48 100 106 100 58 0 78 -45 44 -100z m-250 -146 c0 -26 -101 -96 -225 -156 -216 -105 -217 -103 -31 46 204 164 256 186 256 110z m3325 -20 c-182 -74 -154 -226 106 -575 474 -634 599 -2043 207 -2330 -270 -197 -358 -44 -322 557 32 528 19 566 -203 597 -322 46 -524 -161 -288 -294 213 -120 237 -589 31 -589 -233 0 -301 -220 -111 -359 218 -159 145 -282 -351 -595 -399 -252 -794 -324 -794 -146 0 55 84 100 188 100 175 0 488 264 401 338 -21 19 -213 12 -427 -15 -264 -32 -402 -106 -435 -229 -51 -197 -506 -394 -912 -394 -315 0 -171 169 184 217 146 19 264 109 284 218 29 149 2 167 -137 89 -107 -60 -325 -63 -576 -6 -463 104 -670 54 -670 -163 0 -170 -382 -293 -843 -271 -169 8 -496 15 -727 15 -256 0 -451 55 -500 141 -44 77 -189 156 -322 175 -387 56 -352 255 62 353 246 58 391 154 414 275 29 147 -3 170 -149 109 -102 -42 -346 -109 -543 -148 -474 -94 -618 -193 -547 -376 47 -122 4 -138 -219 -82 -152 39 -377 71 -501 73 -308 3 -282 72 75 196 165 58 300 165 300 239 0 200 -170 267 -237 93 -49 -127 -92 -131 -264 -24 -167 104 -220 102 -288 -7 -96 -154 -527 -120 -582 46 -24 72 59 93 232 60 318 -60 249 139 -96 279 -197 79 -191 87 71 93 218 5 271 43 225 164 -34 87 -61 177 -61 200 0 23 -67 42 -150 42 -82 0 -150 72 -150 161 0 106 54 140 159 99 249 -95 333 18 208 282 -90 191 -206 249 -549 276 -240 19 -453 6 -475 -29 -21 -34 70 -190 203 -345 250 -290 249 -444 -2 -444 -193 0 -184 -163 13 -239 144 -55 144 -75 0 -218 -172 -172 -211 -443 -64 -443 51 0 164 -71 250 -158 87 -86 383 -236 658 -333 543 -192 723 -309 474 -309 -535 0 -2253 1263 -2194 1613 31 183 -242 331 -334 182 -33 -53 -31 -186 3 -296 49 -155 18 -199 -143 -199 -310 0 -359 33 -333 227 19 140 -26 164 -218 116 -133 -34 -324 -13 -424 45 -155 90 -132 106 151 109 223 2 319 45 290 128 -25 70 -186 118 -366 110 -301 -15 -311 -5 -160 161 97 108 379 203 720 243 309 36 780 138 1047 225 291 95 597 132 761 90 151 -37 652 -109 1113 -158 461 -49 995 -141 1187 -204 205 -68 540 -88 812 -48 255 37 776 90 1158 118 639 47 1403 298 1745 575 78 62 384 120 682 129 322 9 610 77 710 166 220 198 769 350 1268 351 220 1 344 -21 275 -49z m9303 5 c88 -88 -340 -639 -497 -639 -179 0 -166 71 76 410 207 290 306 344 421 229z m-12310 -261 c-71 -71 -118 -77 -118 -15 0 134 118 252 185 185 28 -28 -2 -105 -67 -170z m5082 -1228 c0 -82 -45 -150 -100 -150 -55 0 -100 68 -100 150 0 83 45 150 100 150 55 0 100 -67 100 -150z m-13900 -350 c0 -55 -45 -100 -100 -100 -55 0 -100 45 -100 100 0 55 45 100 100 100 55 0 100 -45 100 -100z m18100 -339 c0 -22 -67 -66 -150 -97 -82 -32 -150 -14 -150 39 0 53 68 97 150 97 83 0 150 -18 150 -39z m-17900 -361 c83 -53 104 -98 48 -98 -56 -1 -326 -208 -600 -459 -942 -865 -848 -811 -846 -483 1 225 115 385 510 715 532 445 641 485 888 325z m-558 -1571 c-371 -342 -712 -598 -758 -569 -242 149 -30 524 597 1060 639 544 672 559 752 350 71 -188 -14 -310 -591 -841z m1606 875 c32 -53 -381 -460 -920 -906 -1018 -842 -1155 -998 -880 -998 90 0 136 -45 102 -100 -78 -127 -619 -131 -696 -6 -32 52 110 220 317 375 206 155 696 607 1089 1006 703 713 870 820 988 629z m593 -390 c55 -89 -408 -544 -1311 -1289 -487 -401 -824 -559 -673 -314 38 61 15 145 -51 185 -79 49 -5 129 212 233 183 87 490 324 682 527 333 350 870 743 1019 744 38 0 93 -39 122 -86z m559 -300 c0 -47 -259 -261 -575 -475 -931 -630 -940 -579 -32 187 441 373 607 451 607 288z m5300 -214 c0 -55 -67 -100 -150 -100 -82 0 -150 45 -150 100 0 55 68 100 150 100 83 0 150 -45 150 -100z m620 -20 c-93 -93 -147 -93 -240 0 -93 93 -67 120 120 120 187 0 213 -27 120 -120z m2049 -23 c-65 -195 -371 -313 -456 -176 -53 84 -175 107 -342 65 -310 -77 -564 35 -361 160 178 110 1197 67 1159 -49z m-7570 -32 c0 -41 -191 -183 -425 -315 -233 -132 -593 -372 -799 -533 -206 -162 -428 -276 -494 -254 -65 22 151 203 480 403 330 201 683 457 785 569 181 201 455 279 453 130z m-4439 -298 c-33 -33 -56 26 -52 131 5 117 28 141 60 61 29 -72 26 -159 -8 -192z m15140 73 c-327 -256 -493 -259 -186 -3 130 108 281 197 336 197 55 1 -12 -86 -150 -194z m5799 -344 c-106 -107 -228 -157 -271 -112 -43 46 -22 103 47 128 177 63 155 228 -31 228 -86 0 -131 41 -100 91 32 52 161 41 303 -25 244 -115 244 -118 52 -310z m-15407 303 c-142 -138 -1592 -942 -1592 -882 1 130 1235 923 1437 923 108 0 178 -18 155 -41z m458 -160 c-97 -157 -650 -416 -650 -305 0 55 124 167 275 249 324 176 461 196 375 56z m6450 1 c0 -55 -68 -100 -150 -100 -82 0 -150 45 -150 100 0 55 68 100 150 100 82 0 150 -45 150 -100z m-2775 -66 c-69 -28 -181 -28 -250 0 -69 28 -12 50 125 50 138 0 194 -22 125 -50z m975 -90 c0 -24 -45 -44 -100 -44 -55 0 -100 48 -100 106 0 58 45 78 100 44 55 -34 100 -82 100 -106z m-10500 -300 c0 -134 -45 -244 -100 -244 -55 0 -100 138 -100 306 0 178 42 280 100 244 55 -34 100 -172 100 -306z m13300 144 c0 -135 -161 -105 -293 54 -97 117 -82 133 87 88 113 -29 206 -93 206 -142z m8200 115 c0 -54 -135 -168 -300 -253 -376 -194 -400 -11 -25 193 334 181 325 180 325 60z m-15604 -299 c-190 -163 -410 -298 -488 -300 -169 -5 -150 17 296 334 484 343 608 321 192 -34z m-2296 -54 c-68 -82 -195 -150 -281 -150 -126 0 -119 29 37 147 254 192 402 194 244 3z m16454 9 c180 -131 175 -137 -81 -88 -150 29 -273 92 -273 141 0 128 134 108 354 -53z m-13638 -119 c-126 -88 -258 -131 -295 -95 -80 80 174 251 376 253 95 1 66 -55 -81 -158z m10784 -196 c0 -24 -70 -44 -156 -44 -86 0 -128 46 -93 102 57 92 249 48 249 -58z"/>
<path d="M10500 31155 c0 -30 -11 -81 -25 -113 -14 -32 213 -71 504 -86 355 -20 517 8 492 83 -36 110 -971 223 -971 116z"/>
<path d="M8643 22589 c-86 -140 174 -312 292 -194 97 97 4 305 -135 305 -49 0 -119 -50 -157 -111z"/>
<path d="M9800 22006 c0 -144 164 -214 341 -146 244 94 189 240 -91 240 -137 0 -250 -42 -250 -94z"/>
<path d="M7665 21617 c-367 -406 -59 -587 318 -186 119 128 217 263 217 300 0 142 -375 62 -535 -114z"/>
<path d="M14517 21617 c-73 -128 -105 -304 -71 -392 96 -251 275 5 236 338 l-33 287 -132 -233z"/>
<path d="M11125 21428 c-133 -48 -177 -428 -49 -428 112 0 332 384 247 432 -40 22 -129 21 -198 -4z"/>
<path d="M8769 20936 c-93 -93 20 -236 187 -236 79 0 144 68 144 150 0 151 -211 206 -331 86z"/>
<path d="M9997 20394 c-238 -183 -239 -190 -34 -192 228 -2 501 246 364 331 -45 28 -194 -34 -330 -139z"/>
<path d="M14375 20388 c-241 -179 -379 -488 -218 -488 107 0 743 524 743 612 0 148 -235 93 -525 -124z"/>
<path d="M15220 20480 c-136 -136 -161 -380 -40 -380 125 0 320 226 320 370 0 163 -123 167 -280 10z"/>
<path d="M11146 20293 c-108 -174 15 -211 152 -45 79 95 86 152 20 152 -58 0 -136 -48 -172 -107z"/>
<path d="M9135 19901 c-236 -96 -387 -283 -298 -371 97 -97 663 187 663 332 0 156 -59 162 -365 39z"/>
<path d="M6949 19399 c-210 -232 -120 -393 131 -235 186 117 290 436 143 436 -51 0 -174 -90 -274 -201z"/>
<path d="M14998 19448 c-70 -84 -104 -176 -76 -203 79 -80 578 139 578 253 0 157 -360 121 -502 -50z"/>
<path d="M14400 18850 c0 -82 45 -150 100 -150 55 0 100 68 100 150 0 83 -45 150 -100 150 -55 0 -100 -67 -100 -150z"/>
<path d="M9667 18833 c-115 -115 -73 -233 83 -233 83 0 150 68 150 150 0 156 -118 198 -233 83z"/>
<path d="M10252 18619 c-130 -130 -27 -209 248 -190 165 12 300 50 300 84 0 82 -479 175 -548 106z"/>
<path d="M9000 18520 c0 -66 -51 -109 -112 -95 -62 14 -135 -36 -162 -110 -37 -102 10 -118 187 -63 318 98 344 131 205 270 -91 91 -118 90 -118 -2z"/>
<path d="M6559 18192 c-274 -325 -313 -447 -173 -533 77 -48 714 652 714 785 0 163 -315 17 -541 -252z"/>
<path d="M7301 18003 c-114 -73 -122 -122 -32 -212 141 -141 464 -40 408 128 -54 163 -199 196 -376 84z"/>
<path d="M7190 17090 c-148 -148 -179 -241 -104 -316 75 -75 165 -35 307 135 347 417 181 565 -203 181z"/>
<path d="M9050 17100 c34 -55 124 -100 200 -100 76 0 166 45 200 100 35 57 -51 100 -200 100 -149 0 -235 -43 -200 -100z"/>
<path d="M6208 16434 c-163 -114 -195 -187 -115 -267 79 -79 167 -52 318 100 258 257 105 383 -203 167z"/>
<path d="M10603 16304 c-81 -51 -117 -124 -79 -161 91 -91 376 25 376 154 0 127 -104 129 -297 7z"/>
<path d="M7644 15858 c-229 -167 -110 -348 130 -197 187 118 287 339 153 339 -49 0 -176 -64 -283 -142z"/>
<path d="M8800 15856 c0 -106 192 -150 249 -58 35 56 -7 102 -93 102 -86 0 -156 -20 -156 -44z"/>
<path d="M6505 15455 c-156 -166 -207 -303 -158 -425 69 -171 79 -170 188 14 63 106 223 297 355 425 223 216 226 231 42 231 -108 0 -301 -110 -427 -245z"/>
<path d="M10767 14833 c-37 -36 -67 -113 -67 -170 0 -62 47 -56 118 15 65 65 95 142 67 170 -28 29 -82 22 -118 -15z"/>
<path d="M8525 14633 c-271 -190 -291 -333 -45 -333 211 0 420 184 420 370 0 167 -95 158 -375 -37z"/>
<path d="M5154 14565 c-102 -74 -153 -186 -114 -249 82 -132 660 119 660 287 0 141 -332 119 -546 -38z"/>
<path d="M12344 14458 c-106 -78 -160 -175 -119 -216 94 -94 575 119 575 256 0 146 -229 126 -456 -40z"/>
<path d="M5875 14092 c-201 -117 -236 -394 -50 -389 175 5 475 246 475 383 0 140 -191 142 -425 6z"/>
<path d="M9217 13868 c-121 -128 -188 -264 -150 -301 74 -74 533 314 533 450 0 150 -162 87 -383 -149z"/>
<path d="M10108 13387 c-243 -272 -615 -590 -825 -709 -348 -195 -498 -379 -308 -378 146 1 725 399 725 499 0 55 55 101 123 101 126 0 877 791 877 925 0 160 -167 36 -592 -438z"/>
<path d="M6865 13417 c-162 -179 -223 -417 -106 -417 77 0 433 428 438 525 6 134 -162 79 -332 -108z"/>
<path d="M13145 12877 c-327 -288 -625 -571 -663 -628 -37 -58 -496 -438 -1019 -845 -524 -406 -928 -779 -898 -828 60 -97 88 -78 1169 749 414 317 842 690 953 831 110 140 428 436 707 658 467 372 623 586 426 586 -44 0 -348 -236 -675 -523z"/>
<path d="M10577 12926 c-431 -289 -408 -514 27 -258 252 149 456 413 373 484 -15 13 -195 -89 -400 -226z"/>
<path d="M7503 13004 c-81 -51 -114 -127 -73 -168 41 -41 151 2 244 95 181 181 72 227 -171 73z"/>
<path d="M4825 12934 c-196 -79 -146 -334 64 -334 190 0 349 228 237 340 -67 68 -121 66 -301 -6z"/>
<path d="M8464 12650 c-32 -82 -149 -150 -261 -150 -112 0 -203 -45 -203 -100 0 -55 57 -100 128 -100 169 0 572 286 572 406 0 150 -173 109 -236 -56z"/>
<path d="M13941 12561 c-640 -331 -1092 -750 -956 -886 86 -86 196 -37 440 196 179 171 479 396 668 500 189 104 362 243 384 309 52 157 -43 136 -536 -119z"/>
<path d="M6100 11996 c-192 -163 -479 -405 -637 -537 -360 -299 -270 -552 108 -304 301 197 1129 990 1129 1081 0 148 -273 38 -600 -240z"/>
<path d="M8302 11786 c-189 -189 -441 -327 -633 -348 -238 -25 -446 -175 -819 -587 -275 -305 -570 -553 -656 -552 -162 1 -1894 -1656 -1894 -1812 0 -48 87 -87 193 -87 118 0 430 287 805 740 337 407 734 790 882 852 149 61 490 358 758 660 371 417 555 548 768 548 289 0 822 379 1000 711 157 293 -50 229 -404 -125z"/>
<path d="M9358 11713 c-43 -69 -51 -153 -18 -186 89 -90 187 42 139 187 -34 101 -58 101 -121 -1z"/>
<path d="M10275 11137 c-206 -132 -375 -307 -375 -388 0 -218 105 -180 538 191 468 400 360 531 -163 197z"/>
<path d="M11990 11012 c-132 -107 -204 -230 -161 -274 91 -92 633 209 596 331 -48 156 -196 136 -435 -57z"/>
<path d="M4261 10942 c-85 -222 -79 -242 78 -242 117 0 261 198 261 358 0 118 -287 20 -339 -116z"/>
<path d="M7317 10297 c-439 -237 -475 -281 -288 -353 156 -60 771 318 771 475 0 111 -93 87 -483 -122z"/>
<path d="M7800 9950 c-71 -85 -106 -177 -79 -205 28 -27 108 20 179 105 71 85 106 177 79 205 -28 27 -108 -20 -179 -105z"/>
<path d="M10163 9893 c-293 -231 -340 -393 -113 -393 83 0 150 46 150 102 0 57 115 147 256 200 141 54 228 143 194 198 -91 147 -192 124 -487 -107z"/>
<path d="M4250 9500 c-113 -125 -135 -200 -59 -200 184 0 509 194 509 304 0 165 -261 105 -450 -104z"/>
<path d="M6950 9303 c-275 -152 -515 -354 -534 -448 -30 -151 -8 -156 184 -38 120 73 380 224 577 336 197 111 377 258 399 325 57 172 -56 141 -626 -175z"/>
<path d="M5912 8463 c-122 -130 -417 -337 -656 -460 -239 -123 -574 -411 -746 -640 -172 -229 -402 -472 -511 -540 -250 -157 -257 -323 -13 -323 102 0 338 164 525 365 576 620 835 871 1321 1278 443 372 571 557 385 557 -45 0 -182 -107 -305 -237z"/>
<path d="M6446 8293 c-36 -58 -42 -130 -13 -160 72 -71 267 55 267 173 0 128 -173 119 -254 -13z"/>
<path d="M3475 7792 c-204 -119 -235 -392 -45 -392 167 0 370 203 370 370 0 154 -88 160 -325 22z"/>
<path d="M5920 7780 c-66 -66 -120 -156 -120 -200 0 -147 151 -82 277 120 137 219 34 271 -157 80z"/>
<path d="M2655 21866 c-154 -113 -156 -140 -20 -253 105 -88 208 -97 334 -30 99 53 879 92 1731 86 1467 -11 2000 48 2000 220 0 42 -871 82 -1936 90 -1422 10 -1982 -20 -2109 -113z"/>
<path d="M22950 19100 c-158 -165 -245 -299 -194 -297 106 4 644 457 644 542 0 133 -184 32 -450 -245z"/>
<path d="M23875 18630 c-317 -364 -550 -688 -519 -719 59 -60 1232 1184 1240 1314 10 184 -186 22 -721 -595z"/>
<path d="M14700 6634 c-82 -27 -240 -85 -350 -129 -110 -44 -326 -131 -481 -193 -198 -80 -338 -82 -476 -8 -153 82 -209 70 -258 -56 -110 -287 100 -367 625 -239 270 66 535 153 590 194 55 41 249 106 430 145 182 38 314 120 294 180 -45 134 -175 171 -374 106z"/>
<path d="M14658 5968 c-104 -76 -147 -163 -98 -194 150 -92 651 42 611 163 -57 171 -302 185 -513 31z"/>
<path d="M12192 5841 c-89 -107 -78 -153 47 -201 188 -72 461 14 461 145 0 158 -387 201 -508 56z"/>
<path d="M13973 5740 c-33 -33 -220 -60 -416 -60 -290 0 -357 -38 -357 -199 0 -178 44 -191 425 -128 432 71 675 200 675 359 0 99 -235 119 -327 28z"/>
<path d="M5268 5634 c-99 -98 132 -334 328 -334 242 0 321 109 191 266 -117 141 -408 179 -519 68z"/>
<path d="M8060 5626 c-33 -32 -60 -137 -60 -232 0 -95 -72 -200 -160 -234 -90 -35 -136 -126 -105 -208 31 -80 13 -172 -39 -205 -185 -114 -97 -347 129 -344 397 6 763 418 461 518 -86 29 -86 92 0 252 63 118 114 257 114 310 0 117 -258 226 -340 143z"/>
<path d="M10700 5500 c0 -55 -11 -134 -25 -175 -14 -41 65 -80 175 -85 110 -6 301 -43 425 -82 267 -85 444 205 215 351 -192 121 -790 114 -790 -9z"/>
<path d="M14767 5533 c-155 -154 -42 -233 333 -233 289 0 400 42 400 150 0 103 -104 150 -333 150 -184 0 -364 -30 -400 -67z"/>
<path d="M12475 5427 c-370 -39 -516 -251 -245 -356 169 -65 770 188 770 324 0 58 -34 97 -75 88 -41 -9 -244 -34 -450 -56z"/>
<path d="M9171 5338 c-39 -39 -71 -148 -71 -242 0 -95 -67 -228 -150 -296 -204 -169 -189 -474 25 -542 215 -67 711 57 748 187 15 53 -85 126 -223 162 -233 61 -237 70 -50 139 110 40 259 91 332 113 73 22 118 142 100 266 -24 169 -108 232 -336 255 -167 16 -335 -3 -375 -42z"/>
<path d="M10710 5009 c-208 -132 -52 -409 231 -409 406 0 394 -185 -14 -219 -255 -21 -377 -80 -377 -181 0 -100 78 -139 234 -117 128 18 311 -38 407 -124 149 -135 199 -138 362 -19 161 118 169 163 56 299 -105 127 -108 192 -12 307 99 120 62 182 -213 350 -370 225 -469 242 -674 113z"/>
<path d="M13575 5028 c-418 -63 -352 -328 82 -328 383 0 743 147 743 304 0 95 -298 104 -825 24z"/>
<path d="M12035 4648 c-104 -273 119 -395 531 -291 455 115 611 400 173 316 -158 -30 -367 -12 -464 41 -132 70 -194 53 -240 -66z"/>
<path d="M10200 4500 c0 -55 45 -100 100 -100 55 0 100 45 100 100 0 55 -45 100 -100 100 -55 0 -100 -45 -100 -100z"/>
<path d="M13625 4334 c-69 -28 -125 -119 -125 -203 0 -123 75 -139 374 -83 432 81 526 127 526 258 0 97 -554 117 -775 28z"/>
<path d="M10164 4131 c-35 -36 -64 -143 -64 -239 0 -97 -56 -195 -125 -220 -69 -25 -89 -83 -45 -130 44 -47 156 -37 249 22 94 59 238 75 320 35 671 -322 1222 -277 875 70 -110 110 -328 176 -575 176 -246 0 -399 47 -399 122 0 148 -148 251 -236 164z"/>
<path d="M11746 3993 c-167 -269 1036 -406 1254 -143 68 83 108 153 87 157 -325 58 -1303 47 -1341 -14z"/>
<path d="M3133 52075 c-7 -234 -33 -2000 -59 -3925 -25 -1925 -70 -4923 -99 -6663 -46 -2828 -10 -3555 169 -3377 30 30 79 1671 110 3647 95 6032 104 7882 41 8143 -34 138 -27 401 14 586 41 185 106 713 145 1175 65 781 57 839 -120 839 -154 0 -191 -79 -201 -425z"/>
<path d="M3981 51825 c-113 -4146 -125 -5370 -85 -8475 4 -330 8 -1522 8 -2650 -1 -2134 57 -3000 198 -3000 94 0 121 1423 102 5350 -21 4286 12 7642 84 8400 78 828 47 1050 -145 1050 -108 0 -148 -166 -162 -675z"/>
<path d="M4792 50975 c0 -839 0 -1705 -2 -1925 -18 -3561 107 -10899 187 -10926 61 -20 98 197 92 546 -4 319 0 2538 11 4930 40 9118 43 8900 -131 8900 -137 0 -158 -202 -157 -1525z"/>
<path d="M5729 52079 c3 -236 2 -2994 -2 -6129 -3 -3135 -3 -5767 2 -5850 4 -82 -25 -540 -65 -1016 -45 -538 -36 -890 25 -927 53 -33 120 -23 148 22 106 172 98 14259 -8 14295 -62 20 -102 -141 -100 -395z"/>
<path d="M13784 51325 c-19 -646 2 -1467 47 -1825 180 -1452 193 -3097 27 -3603 -214 -655 -199 -1018 55 -1341 232 -295 240 -391 196 -2306 -15 -660 22 -1775 83 -2478 61 -703 88 -1551 60 -1883 -47 -570 69 -1050 230 -950 92 57 53 1798 -70 3161 -52 578 -71 1757 -43 2621 49 1473 39 1593 -159 1912 -248 402 -263 693 -62 1260 178 505 214 2589 53 3107 -59 193 -106 1059 -103 1925 4 1300 -20 1575 -138 1575 -114 0 -150 -239 -176 -1175z"/>
<path d="M15000 52155 c0 -190 -50 -578 -111 -863 -84 -393 -81 -659 15 -1110 100 -470 100 -705 3 -1140 -104 -463 -97 -648 43 -1205 135 -540 144 -745 50 -1135 -71 -296 -89 -812 -49 -1364 68 -933 77 -1168 63 -1738 -18 -723 -27 -1262 -27 -1625 0 -724 2 -1379 5 -1750 2 -206 2 -577 -1 -825 -13 -1392 88 -2804 211 -2952 63 -77 88 -183 55 -237 -33 -53 -21 -122 28 -152 105 -65 215 654 215 1405 0 388 -38 536 -137 536 -186 0 -300 745 -155 1014 65 122 84 380 46 622 -35 228 -62 572 -59 764 3 193 5 706 3 1140 -2 435 46 940 106 1123 61 183 75 390 31 460 -137 221 -194 2962 -79 3811 44 324 12 674 -97 1063 -112 400 -134 655 -71 821 136 358 161 864 74 1482 -43 303 -39 843 8 1200 47 358 70 729 51 825 -63 309 -221 187 -221 -170z"/>
<path d="M15900 52419 c0 -147 282 -470 351 -401 109 109 -52 482 -208 482 -79 0 -143 -36 -143 -81z"/>
<path d="M18379 52445 c-31 -30 -32 -1121 -3 -2425 29 -1303 51 -2527 49 -2720 -2 -192 -3 -957 -3 -1700 0 -742 -1 -1507 -3 -1700 -9 -916 7 -2285 31 -2600 14 -192 31 -474 38 -625 6 -151 48 -275 93 -275 44 0 70 146 56 325 -38 527 -69 2618 -59 4125 13 2185 -60 7566 -105 7610 -22 22 -64 15 -94 -15z"/>
<path d="M19290 51825 c-29 -1869 22 -4335 98 -4811 53 -329 47 -678 -14 -900 -131 -480 -147 -1051 -31 -1114 168 -91 203 975 156 4725 -19 1526 -72 2775 -117 2775 -45 0 -87 -304 -92 -675z"/>
<path d="M20112 51200 c-1 -385 40 -700 93 -700 52 0 95 315 95 700 0 385 -42 700 -93 700 -51 0 -94 -315 -95 -700z"/>
<path d="M9620 51674 c-117 -141 -173 -889 -141 -1899 16 -524 55 -675 171 -675 83 0 152 34 155 75 42 650 29 2625 -18 2625 -34 0 -109 -57 -167 -126z"/>
<path d="M20150 49675 c-36 -289 -19 -637 36 -775 82 -201 103 -99 108 525 3 426 -13 775 -37 775 -23 0 -72 -236 -107 -525z"/>
<path d="M20208 48358 c-4 -105 19 -164 52 -131 34 33 37 120 8 192 -32 80 -55 56 -60 -61z"/>
<path d="M10058 47813 c-43 -69 -51 -153 -18 -186 89 -90 187 42 139 187 -34 101 -58 101 -121 -1z"/>
<path d="M20137 47513 c35 -186 63 -422 63 -525 0 -104 35 -188 78 -188 110 0 22 830 -101 950 -71 68 -83 -7 -40 -237z"/>
<path d="M20233 45950 c-1 -385 17 -555 39 -377 22 177 23 492 1 700 -22 207 -40 62 -40 -323z"/>
<path d="M20066 45055 c-48 -123 -36 -1309 24 -2405 14 -267 28 -279 125 -113 78 136 77 385 -7 904 -107 662 -84 1455 48 1669 31 50 13 90 -39 90 -53 0 -121 -65 -151 -145z"/>
<path d="M19131 44337 c-34 -89 -12 -371 49 -625 60 -254 100 -754 87 -1112 -12 -357 7 -807 44 -1000 46 -246 75 -67 97 600 17 523 19 1063 4 1200 -14 138 -34 441 -44 675 -18 435 -125 553 -237 262z"/>
<path d="M24625 42175 c23 -69 116 -140 208 -157 116 -23 148 15 106 125 -71 185 -375 216 -314 32z"/>
<path d="M20208 41958 c-4 -105 19 -164 52 -131 34 33 37 120 8 192 -32 80 -55 56 -60 -61z"/>
<path d="M23517 41700 c18 -55 67 -100 108 -100 41 0 145 0 231 0 86 0 128 45 94 100 -34 55 -153 100 -264 100 -112 0 -188 -45 -169 -100z"/>
<path d="M24863 41174 c-49 -326 -49 -957 0 -1450 l87 -874 29 725 c17 399 17 1051 0 1450 l-29 725 -87 -576z"/>
<path d="M20100 41056 c0 -251 36 -456 80 -456 122 0 143 774 24 848 -66 40 -104 -103 -104 -392z"/>
<path d="M19239 40843 c-36 -146 -15 -307 48 -370 84 -84 113 -17 113 257 0 431 -69 479 -161 113z"/>
<path d="M22444 40957 c-135 -100 -162 -176 -90 -249 125 -127 583 151 492 299 -80 129 -176 117 -402 -50z"/>
<path d="M23367 40533 c-137 -136 -60 -246 150 -215 275 40 367 282 108 282 -105 0 -222 -30 -258 -67z"/>
<path d="M21375 39992 c-96 -56 -175 -145 -175 -197 0 -135 337 -118 480 25 257 257 46 376 -305 172z"/>
<path d="M23754 39807 c-31 -51 -9 -123 49 -159 148 -91 423 28 347 151 -78 127 -319 131 -396 8z"/>
<path d="M22335 39546 c-33 -85 -34 -181 -2 -213 101 -101 367 54 367 214 0 199 -289 199 -365 -1z"/>
<path d="M20200 39043 c0 -93 68 -144 167 -125 251 48 285 282 41 282 -123 0 -208 -65 -208 -157z"/>
<path d="M19354 38507 c-31 -51 -12 -121 44 -156 120 -74 302 20 302 155 0 122 -271 122 -346 1z"/>
<path d="M24100 38300 c0 -55 45 -100 100 -100 55 0 100 45 100 100 0 55 -45 100 -100 100 -55 0 -100 -45 -100 -100z"/>
<path d="M20725 38229 c-173 -63 -158 -329 19 -329 182 0 307 192 192 296 -47 44 -142 58 -211 33z"/>
<path d="M23469 38035 c-131 -130 -68 -235 139 -235 117 0 191 52 169 119 -49 146 -216 209 -308 116z"/>
<path d="M21925 37872 c-124 -56 -225 -188 -225 -293 0 -184 10 -185 300 -13 435 257 373 511 -75 306z"/>
<path d="M4800 37700 c0 -55 45 -100 100 -100 55 0 100 45 100 100 0 55 -45 100 -100 100 -55 0 -100 -45 -100 -100z"/>
<path d="M18100 37642 c0 -177 215 -146 277 39 22 66 -32 119 -119 119 -87 0 -158 -71 -158 -158z"/>
<path d="M20225 36891 c-222 -83 -282 -200 -165 -318 74 -74 540 130 540 237 0 138 -144 169 -375 81z"/>
<path d="M13976 36834 c-41 -73 -34 -1048 9 -1259 8 -41 74 -75 146 -75 99 0 121 154 90 625 -41 594 -143 891 -245 709z"/>
<path d="M23900 36800 c0 -55 90 -100 200 -100 110 0 200 45 200 100 0 55 -90 100 -200 100 -110 0 -200 -45 -200 -100z"/>
<path d="M22300 36400 c0 -55 68 -100 150 -100 83 0 150 45 150 100 0 55 -67 100 -150 100 -82 0 -150 -45 -150 -100z"/>
<path d="M24517 35700 c18 -55 67 -100 108 -100 427 0 429 1 275 100 -196 127 -426 127 -383 0z"/>
<path d="M15846 35593 c-36 -58 -41 -131 -10 -162 82 -82 364 46 364 166 0 136 -270 133 -354 -4z"/>
<path d="M20517 35500 c50 -151 211 -167 258 -25 23 69 -33 125 -125 125 -92 0 -152 -45 -133 -100z"/>
<path d="M21711 35263 c-89 -107 -91 -164 -7 -215 163 -101 365 123 232 256 -73 73 -141 60 -225 -41z"/>
<path d="M13900 35220 c0 -125 226 -320 371 -320 106 0 107 38 6 200 -123 196 -377 277 -377 120z"/>
<path d="M22925 34675 c23 -69 102 -125 175 -125 73 0 152 56 175 125 25 74 -46 125 -175 125 -129 0 -200 -51 -175 -125z"/>
<path d="M24690 34238 c-116 -139 -108 -156 55 -125 104 21 207 93 230 162 59 178 -126 155 -285 -37z"/>
<path d="M23300 34150 c-104 -125 -90 -150 88 -150 122 0 212 64 212 150 0 83 -39 150 -88 150 -48 0 -144 -67 -212 -150z"/>
<path d="M20748 33897 c-39 -63 -25 -160 31 -216 129 -129 544 -2 494 152 -53 159 -437 206 -525 64z"/>
<path d="M18650 33000 c-108 -174 52 -323 208 -194 77 64 115 157 85 205 -73 118 -216 113 -293 -11z"/>
<path d="M19925 33029 c-173 -63 -158 -329 19 -329 182 0 307 192 192 296 -47 44 -142 58 -211 33z"/>
<path d="M24669 32536 c-93 -93 20 -236 187 -236 79 0 144 68 144 150 0 151 -211 206 -331 86z"/>
<path d="M16900 32239 c0 -105 54 -140 158 -100 87 34 177 61 200 61 23 0 42 45 42 100 0 55 -90 100 -200 100 -117 0 -200 -67 -200 -161z"/>
<path d="M16471 31238 c-158 -158 -53 -249 254 -219 179 17 325 76 325 131 0 118 -476 191 -579 88z"/>
<path d="M24320 28705 c-298 -402 -89 -509 288 -147 337 322 367 442 111 442 -100 0 -279 -133 -399 -295z"/>
<path d="M11860 28526 c-108 -107 -63 -226 84 -226 79 0 169 40 200 90 63 102 -194 227 -284 136z"/>
<path d="M24367 27806 c-318 -278 -621 -506 -673 -506 -52 0 -94 -67 -94 -150 0 -232 141 -182 666 233 579 459 765 673 716 820 -20 60 -297 -118 -615 -397z"/>
<path d="M10739 27947 c-91 -139 -137 -282 -102 -317 87 -87 570 377 504 485 -93 150 -232 92 -402 -168z"/>
<path d="M11412 27110 c-76 -48 -109 -133 -75 -189 81 -132 483 -30 436 110 -50 149 -199 181 -361 79z"/>
<path d="M19846 25193 c-92 -149 15 -230 206 -156 88 34 133 107 98 162 -81 131 -221 129 -304 -6z"/>
<path d="M20722 24885 c52 -157 270 -182 296 -35 10 55 -63 116 -162 135 -115 22 -163 -14 -134 -100z"/>
<path d="M19548 23661 c-109 -80 -163 -179 -121 -221 99 -99 625 83 616 212 -12 160 -282 164 -495 9z"/>
<path d="M19546 23045 c214 -161 369 -149 431 36 25 76 -80 118 -294 116 -316 -3 -323 -11 -137 -152z"/>
<path d="M20950 22899 c-111 -179 259 -233 429 -63 152 152 144 164 -102 164 -146 0 -293 -45 -327 -101z"/>
<path d="M20844 21858 c-106 -78 -161 -174 -122 -213 88 -88 678 145 678 267 0 137 -340 104 -556 -54z"/>
<path d="M24908 21858 c-4 -105 19 -164 52 -131 34 33 37 120 8 192 -32 80 -55 56 -60 -61z"/>
<path d="M24250 17800 c-215 -220 -348 -399 -295 -398 108 3 845 646 845 738 0 147 -188 30 -550 -340z"/>
<path d="M24469 11120 c-267 -279 -351 -520 -181 -520 49 0 165 116 258 258 99 151 228 235 311 203 94 -36 143 13 143 142 0 278 -217 244 -531 -83z"/>
<path d="M24598 10648 c-70 -84 -101 -178 -70 -210 101 -100 472 71 472 219 0 189 -242 183 -402 -9z"/>
<path d="M23390 10389 c-329 -121 -575 -544 -412 -707 86 -86 140 -47 217 154 69 183 198 288 403 329 166 33 302 122 302 198 0 156 -136 163 -510 26z"/>
<path d="M24624 10134 c-177 -72 -51 -234 182 -234 107 0 194 68 194 150 0 149 -137 180 -376 84z"/>
<path d="M23462 9881 c-260 -146 -188 -281 149 -281 l311 0 -236 -191 c-320 -260 -226 -308 339 -175 436 102 672 366 328 366 -89 0 -124 59 -89 150 33 86 -1 155 -78 163 -75 7 -232 23 -349 36 -117 12 -286 -18 -375 -68z"/>
<path d="M22197 9647 c-136 -144 -325 -241 -442 -225 -147 20 -214 -36 -237 -197 -41 -291 96 -284 639 35 278 162 443 330 443 450 0 257 -119 239 -403 -63z"/>
<path d="M24800 9450 c0 -82 45 -150 100 -150 55 0 100 68 100 150 0 83 -45 150 -100 150 -55 0 -100 -67 -100 -150z"/>
<path d="M22500 9250 c-129 -137 -300 -250 -379 -250 -105 0 -124 -62 -71 -225 40 -124 95 -394 122 -600 30 -231 103 -375 189 -375 76 0 139 -90 139 -200 0 -249 285 -264 730 -37 403 205 402 204 328 324 -39 63 -161 47 -335 -43 -586 -306 -693 -130 -173 285 193 154 350 323 350 375 0 175 -224 100 -459 -154 -228 -246 -441 -328 -441 -169 0 45 133 209 296 366 355 339 300 543 -68 253 -357 -280 -421 -158 -96 182 262 273 350 518 185 518 -45 0 -188 -112 -317 -250z"/>
<path d="M20520 9080 c-146 -146 -158 -380 -20 -380 55 0 100 40 100 89 0 49 158 118 350 154 193 37 350 109 350 162 0 137 -638 117 -780 -25z"/>
<path d="M24908 9058 c-4 -105 19 -164 52 -131 34 33 37 120 8 192 -32 80 -55 56 -60 -61z"/>
<path d="M23844 8758 c-106 -78 -166 -169 -132 -203 84 -84 886 103 1020 237 168 168 -655 136 -888 -34z"/>
<path d="M20549 8499 c-240 -266 -119 -368 194 -163 137 90 347 152 467 139 120 -14 238 31 262 100 79 220 -713 156 -923 -76z"/>
<path d="M19871 8328 c-94 -94 -293 -177 -441 -183 -292 -13 -432 -212 -208 -298 243 -93 878 235 878 454 0 242 -12 244 -229 27z"/>
<path d="M24225 8297 c-355 -143 -266 -202 275 -183 343 12 500 60 500 152 0 153 -428 170 -775 31z"/>
<path d="M21022 8144 c-291 -204 -290 -388 3 -298 124 37 293 69 375 70 333 2 430 78 299 235 -159 192 -397 189 -677 -7z"/>
<path d="M19917 7791 c-93 -150 -195 -193 -359 -152 -125 32 -257 29 -292 -7 -87 -86 127 -332 289 -332 157 0 745 481 745 609 0 170 -251 92 -383 -118z"/>
<path d="M24098 7648 c-179 -216 -41 -305 240 -154 131 70 334 97 450 60 154 -49 212 -25 212 89 0 213 -726 216 -902 5z"/>
<path d="M21435 7601 c-241 -98 -386 -283 -293 -376 34 -34 115 -8 180 57 65 65 267 118 448 118 182 0 330 45 330 100 0 55 -41 100 -92 100 -50 0 -152 20 -225 44 -73 24 -230 4 -348 -43z"/>
<path d="M18325 7391 c-179 -116 -325 -251 -325 -301 0 -129 125 -111 356 50 110 77 311 156 447 175 136 19 247 80 247 135 0 185 -397 153 -725 -59z"/>
<path d="M20258 7382 c-106 -61 -285 -116 -399 -121 -253 -13 -353 -361 -103 -361 210 0 844 382 844 508 0 120 -105 112 -342 -26z"/>
<path d="M18725 6983 c-179 -111 -325 -268 -325 -349 0 -116 83 -100 400 78 220 124 400 284 400 356 0 172 -82 157 -475 -85z"/>
<path d="M20600 6950 c-68 -82 -276 -150 -462 -150 -234 0 -338 -46 -338 -150 0 -197 421 -196 805 3 162 83 295 218 295 300 0 189 -141 188 -300 -3z"/>
<path d="M21437 6952 c-90 -233 2 -276 301 -139 371 169 466 10 137 -229 -353 -258 -353 -408 0 -318 151 39 353 65 448 59 257 -18 330 180 90 243 -138 36 -200 125 -185 268 19 180 -38 219 -354 245 -273 23 -392 -13 -437 -129z"/>
<path d="M19000 6450 c-68 -82 -206 -150 -306 -150 -189 0 -355 -172 -259 -269 156 -156 865 234 865 476 0 142 -161 111 -300 -57z"/>
<path d="M20550 6451 c-165 -75 -386 -163 -492 -197 -146 -46 -164 -88 -74 -178 158 -158 953 127 998 358 39 196 -31 199 -432 17z"/>
<path d="M22757 4433 c-77 -202 95 -327 356 -259 304 80 320 218 37 326 -334 127 -317 130 -393 -67z"/>
<path d="M24675 4231 c-169 -44 -234 -238 -119 -353 117 -118 444 54 444 234 0 192 -19 199 -325 119z"/>
<path d="M23700 4100 c0 -55 -135 -100 -300 -100 -357 0 -420 -269 -75 -318 145 -21 236 -112 257 -257 18 -124 94 -225 169 -225 235 0 274 198 92 474 -119 182 -137 278 -58 304 141 47 153 222 15 222 -55 0 -100 -45 -100 -100z"/>
<path d="M21800 3598 c0 -98 408 -298 607 -298 156 0 104 274 -65 339 -246 95 -542 72 -542 -41z"/>
<path d="M24667 3633 c-127 -126 -66 -233 133 -233 111 0 200 67 200 150 0 152 -212 205 -333 83z"/>
<path d="M17143 3489 c-72 -116 120 -285 326 -287 188 -3 271 211 119 308 -190 120 -363 111 -445 -21z"/>
<path d="M18825 3436 c-249 -105 -117 -248 200 -217 179 17 325 76 325 131 0 112 -333 166 -525 86z"/>
<path d="M22900 3350 c0 -92 56 -148 125 -125 142 47 126 208 -25 258 -55 19 -100 -41 -100 -133z"/>
<path d="M19960 3216 c-47 -76 453 -516 586 -516 133 0 34 235 -171 406 -252 210 -339 233 -415 110z"/>
<path d="M24324 3075 c23 -69 173 -137 334 -152 279 -26 283 -21 98 125 -235 184 -488 200 -432 27z"/>
</g>
</svg>