<svg xmlns="http://www.w3.org/2000/svg" version="1.0" width="250" height="525" viewBox="0 0 250.000000 525.000000" preserveAspectRatio="xMidYMid meet">
<metadata>
Created by potrace 1.10, written by Peter Selinger 2001-2011
</metadata>
<g transform="translate(0.000000,525.000000) scale(0.010000,-0.010000)" fill="#555555" stroke="none">
<path d="M3 47438 c4 -2784 31 -5038 60 -5009 29 29 157 249 284 487 195 367 283 438 567 458 806 58 1849 266 2004 399 376 325 778 -83 781 -793 1 -356 -23 -381 -624 -667 -604 -287 -1771 -623 -2650 -763 -234 -37 -425 -111 -425 -163 0 -100 568 -27 982 127 127 47 356 86 509 86 316 0 1155 273 1804 586 242 117 459 193 483 169 108 -108 -525 -541 -954 -653 -261 -68 -654 -181 -874 -251 -651 -206 -1332 -351 -1651 -351 -165 0 -299 -49 -299 -110 0 -123 638 -76 1450 107 1266 284 1405 257 400 -79 -465 -156 -1607 -418 -1818 -418 -18 0 -32 -112 -32 -250 0 -191 53 -251 225 -255 l225 -5 -225 -157 c-289 -202 -294 -377 -6 -223 120 64 379 138 575 164 196 26 438 91 539 145 100 53 394 159 653 236 258 77 801 301 1206 498 805 392 942 368 890 -159 -26 -268 -86 -345 -320 -407 -159 -42 -384 -165 -500 -272 -117 -107 -437 -299 -712 -425 -275 -126 -736 -405 -1024 -621 -399 -298 -582 -377 -769 -330 -325 82 -757 -123 -757 -359 0 -154 34 -169 193 -84 240 128 407 133 407 12 0 -50 -135 -151 -300 -224 l-300 -133 0 -1186 0 -1186 361 317 c198 174 380 296 406 271 25 -25 -138 -432 -361 -904 -380 -804 -405 -912 -391 -1686 8 -455 31 -692 51 -527 138 1164 554 2279 1193 3193 346 496 1525 1589 1939 1796 527 265 1002 399 1002 284 0 -44 -231 -304 -512 -577 -1561 -1511 -2346 -3704 -2273 -6346 l35 -1250 -326 -563 c-373 -646 -589 -862 -725 -726 -51 51 -158 362 -238 691 l-144 598 -9 -881 c-5 -520 30 -857 85 -823 156 96 193 -76 112 -519 -42 -232 -53 -445 -24 -475 29 -29 68 -537 85 -1128 72 -2413 185 -3258 567 -4239 400 -1026 445 -1691 86 -1258 -150 181 -579 1503 -754 2323 l-149 700 -8 -670 c-7 -556 87 -960 547 -2368 305 -933 642 -1808 750 -1945 215 -274 244 -425 99 -514 -141 -88 -635 914 -998 2023 -237 728 -354 688 -379 -132 -21 -669 0 -761 219 -967 272 -255 454 -669 454 -1034 0 -500 -291 -180 -518 569 l-132 438 -30 -698 c-40 -933 -3 -1042 606 -1773 288 -346 775 -969 1084 -1384 311 -419 832 -960 1172 -1216 608 -457 779 -512 2210 -709 305 -43 224 -270 -96 -270 -272 0 -302 -22 -197 -149 192 -231 -144 -310 -455 -107 -247 163 -943 147 -1213 -28 -144 -93 -485 -896 -582 -1369 -45 -219 -91 -442 -103 -497 -12 -55 -100 -505 -195 -1000 -96 -495 -283 -1272 -416 -1727 -134 -455 -292 -1208 -352 -1672 -88 -684 -145 -857 -297 -906 -227 -72 -149 -245 110 -245 195 0 404 -444 404 -858 0 -785 -1171 -676 -1393 130 -146 528 -35 919 281 988 506 110 512 118 512 680 0 739 -99 953 -649 1404 l-470 385 64 -690 c35 -379 85 -846 113 -1039 36 -259 23 -311 -53 -200 -72 106 -102 -229 -103 -1136 -2 -1106 19 -1277 149 -1227 165 63 602 -95 864 -313 202 -168 2521 -318 3810 -247 884 49 988 7 750 -300 -288 -372 -4227 -156 -5450 298 -91 34 -125 -115 -125 -552 l0 -599 646 -162 c823 -207 3015 -398 3829 -334 563 44 625 30 625 -140 0 -103 -57 -188 -127 -188 -143 0 -432 -505 -530 -925 -63 -266 -51 -275 346 -275 226 0 411 39 411 87 0 48 184 111 408 141 225 31 422 70 437 89 16 18 61 251 100 517 66 455 58 480 -133 420 -464 -147 -1004 535 -792 1000 95 209 164 243 386 195 212 -47 314 -5 471 195 173 220 217 234 324 105 68 -82 205 -149 304 -149 99 0 250 -70 335 -155 120 -120 201 -130 358 -46 172 92 202 78 202 -99 0 -325 -258 -859 -496 -1026 -289 -202 -620 -111 -598 164 40 524 -16 760 -207 863 -162 86 -215 74 -266 -59 -39 -103 0 -202 102 -259 135 -76 165 -263 165 -1038 0 -773 27 -945 150 -945 86 0 150 90 150 212 0 170 44 200 225 151 124 -33 354 -61 511 -62 212 -1 271 -39 228 -151 -34 -87 -2 -150 77 -150 105 0 124 172 88 790 -55 937 62 1259 423 1168 237 -59 1175 142 1520 327 422 226 728 737 728 1214 0 254 51 512 113 574 124 124 51 427 -103 427 -53 0 -126 -101 -162 -225 -150 -512 -306 -775 -462 -775 -91 0 -422 -135 -736 -300 -384 -202 -715 -300 -1012 -300 -431 0 -1238 196 -1238 302 0 29 299 109 665 179 1385 262 2835 1093 2835 1624 0 107 39 195 88 195 205 0 355 -359 368 -886 8 -310 49 -644 91 -742 42 -98 28 -525 -31 -950 -60 -425 -131 -1188 -160 -1697 l-51 -925 308 0 c226 0 294 38 254 143 -71 185 185 415 284 255 47 -76 128 -57 259 61 180 163 190 163 190 -2 0 -95 49 -157 109 -137 60 20 116 293 125 608 17 601 -88 764 -191 297 -33 -151 -70 -316 -82 -367 -31 -127 -559 -138 -570 -11 -62 687 -57 953 18 953 50 0 92 -124 93 -275 2 -376 154 -609 302 -461 83 83 79 166 -16 319 -110 175 -102 236 51 405 130 143 162 281 114 497 -74 339 30 1037 145 966 42 -25 106 -313 143 -640 72 -641 269 -844 548 -565 138 139 137 154 -18 154 -115 0 -171 80 -171 244 0 134 -48 274 -107 310 -59 37 -97 231 -85 431 12 201 -12 575 -53 831 -79 493 7 1120 142 1036 44 -27 110 -253 148 -501 37 -248 109 -451 161 -451 117 0 117 63 -3 500 -149 544 -213 1500 -101 1500 54 0 98 -90 98 -200 0 -110 51 -200 114 -200 81 0 94 236 46 826 -53 658 -36 867 84 1025 82 110 151 365 153 569 2 253 82 455 253 639 138 149 250 351 250 450 0 98 45 207 100 241 104 64 146 -258 107 -825 l-23 -325 521 0 520 0 -63 -313 c-34 -171 -62 -441 -62 -600 0 -158 -50 -287 -111 -287 -73 0 -89 121 -46 350 38 198 25 350 -28 350 -144 0 -215 -268 -215 -808 0 -371 37 -492 150 -492 126 0 150 -224 150 -1420 0 -1007 -31 -1389 -107 -1313 -190 190 -310 1247 -321 2808 -5 839 -41 1525 -79 1525 -38 0 -103 -304 -144 -675 -79 -722 -228 -649 -242 118 -8 432 -201 1057 -327 1057 -110 0 -101 -637 10 -755 49 -52 107 -403 130 -780 30 -497 85 -710 203 -776 125 -70 160 -238 152 -740 -5 -357 -42 -649 -82 -649 -165 0 -182 -345 -38 -786 111 -340 127 -540 56 -718 -93 -233 -99 -228 -106 104 -10 458 -105 800 -222 800 -55 0 -65 -256 -25 -625 76 -694 132 -853 239 -680 49 79 120 42 219 -114 99 -157 152 -553 165 -1231 24 -1214 86 -1550 289 -1550 117 0 138 66 88 275 -150 626 -326 2485 -248 2625 255 458 268 461 585 105 168 -187 305 -374 305 -415 0 -196 -137 -390 -276 -390 -132 0 -145 -127 -91 -886 34 -487 101 -989 148 -1116 80 -216 90 -218 162 -39 73 180 82 178 164 -34 138 -358 293 -275 186 99 -124 433 -123 434 107 226 110 -100 205 -275 210 -390 7 -146 32 -118 81 90 87 368 -88 2050 -214 2050 -52 0 -64 -352 -29 -825 56 -754 49 -804 -84 -577 -83 141 -176 674 -216 1233 -51 705 -111 999 -212 1038 -101 39 -123 149 -77 394 35 186 19 395 -35 463 -54 68 -121 452 -148 853 -73 1066 133 872 359 -337 101 -546 202 -1011 224 -1033 22 -23 164 19 316 92 151 74 331 124 400 112 69 -12 125 70 125 183 0 241 153 271 239 47 33 -87 139 -143 236 -124 133 26 167 113 142 360 -23 228 7 318 98 299 72 -16 146 73 165 197 40 264 -144 307 -211 50 -25 -96 -51 14 -57 244 -7 231 28 444 76 474 128 79 124 1457 -4 1457 -58 0 -80 66 -49 147 31 81 18 170 -29 199 -125 77 -206 -201 -206 -704 0 -243 -41 -442 -90 -442 -50 0 -131 -169 -180 -375 l-91 -375 -140 625 c-77 344 -173 625 -213 625 -132 0 -208 -418 -96 -530 64 -64 109 -488 108 -1015 -1 -976 -150 -1032 -195 -73 -14 312 -40 703 -56 868 -17 165 -34 379 -39 475 -4 96 -76 175 -158 175 -115 0 -152 -134 -157 -575 -7 -619 -54 -574 -322 302 -80 263 -106 501 -59 530 47 29 79 265 71 523 -26 808 131 1820 281 1820 175 0 171 -185 -20 -921 -190 -735 -160 -1215 78 -1260 156 -29 167 46 115 749 -53 721 -41 792 153 908 188 112 210 102 210 -92 0 -559 227 -1484 364 -1484 114 0 129 103 75 515 -50 377 -38 496 46 444 63 -39 115 -186 115 -327 0 -218 36 -248 250 -208 164 32 250 3 250 -83 0 -72 68 -169 152 -216 125 -70 156 -379 175 -1743 18 -1291 -5 -1646 -102 -1609 -134 52 -168 -283 -128 -1248 13 -326 -20 -525 -88 -525 -60 0 -114 34 -119 75 -6 41 -29 297 -52 569 -62 715 -135 690 -154 -52 -36 -1403 74 -2574 227 -2421 61 61 55 360 -16 820 -99 637 -82 933 45 801 22 -23 70 -402 107 -842 37 -440 115 -845 172 -900 72 -69 83 46 37 375 -45 311 -32 475 38 475 58 0 107 -146 108 -325 0 -179 49 -392 108 -475 80 -113 95 -51 60 250 -26 220 -13 513 28 650 59 200 89 125 151 -375 107 -866 299 -821 214 50 -97 994 -170 1371 -272 1408 -50 19 -91 165 -91 326 0 268 17 282 200 168 110 -69 200 -230 200 -358 0 -128 55 -330 121 -451 67 -120 125 -375 129 -568 21 -895 57 -1200 144 -1200 51 0 111 146 134 325 l40 325 16 -325 c9 -179 50 -325 91 -325 112 0 114 678 5 1280 -74 408 -125 507 -222 427 -177 -147 -319 366 -348 1260 -17 550 26 822 187 1175 159 350 184 507 105 654 -62 116 -87 651 -63 1324 48 1306 35 1208 156 1133 52 -32 141 28 198 134 77 144 66 223 -46 316 -82 68 -144 174 -136 235 7 62 5 202 -5 312 -43 473 -189 -253 -302 -1501 -64 -709 -139 -1325 -167 -1370 -74 -120 -235 6 -191 149 104 342 147 1405 53 1311 -56 -56 -113 -482 -126 -946 -21 -769 -7 -840 160 -812 172 30 180 -34 115 -1000 -49 -715 -116 -1077 -222 -1181 -135 -134 -145 -115 -91 175 33 179 18 325 -33 325 -150 0 -233 -673 -169 -1358 32 -350 19 -660 -30 -690 -153 -95 -217 128 -268 940 -45 726 -27 827 244 1334 286 537 290 562 165 1165 -70 339 -128 996 -129 1459 -2 572 -55 955 -167 1191 -202 425 -126 761 155 687 124 -32 197 -137 197 -281 0 -329 101 -547 252 -547 199 0 234 224 74 471 -152 234 -99 429 115 429 90 0 126 153 119 499 -10 504 -180 643 -244 201 -43 -294 -312 -714 -416 -650 -42 26 -107 206 -143 399 -78 416 -256 469 -259 76 -1 -186 -28 -232 -84 -144 -46 73 -62 248 -34 390 30 162 11 235 -54 195 -160 -99 -212 -557 -106 -942 76 -275 64 -383 -54 -501 -135 -135 -158 -115 -214 188 -35 186 -70 440 -79 564 -19 278 -173 300 -173 25 0 -111 -67 -200 -150 -200 -85 0 -150 90 -150 207 0 113 -164 361 -365 551 -201 190 -334 376 -295 415 39 39 109 10 155 -65 47 -77 157 -109 248 -74 145 55 147 89 22 289 -79 125 -195 392 -259 594 -64 202 -187 426 -274 498 -141 117 -150 68 -86 -481 85 -732 -59 -906 -252 -306 -75 232 -175 449 -222 483 -48 33 -112 258 -142 500 -55 435 108 477 185 47 19 -105 87 -209 152 -230 176 -59 269 358 120 537 -169 205 -259 2035 -99 2035 108 0 158 -189 130 -500 -7 -82 77 -598 186 -1145 179 -897 293 -1149 521 -1153 41 -1 75 -95 75 -209 0 -264 175 -593 315 -593 66 0 81 88 39 225 -38 124 -81 354 -96 511 l-27 286 538 -44 c296 -25 578 -86 626 -137 49 -50 114 -334 145 -631 62 -596 93 -663 260 -560 70 43 92 213 58 435 -150 972 -169 1315 -73 1315 55 0 174 73 263 162 143 143 144 181 14 325 -272 301 -368 684 -204 820 181 150 244 91 409 -384 177 -507 168 -607 -92 -1104 -208 -399 -212 -437 -54 -527 95 -54 145 -163 114 -245 -31 -82 -27 -308 9 -503 54 -286 103 -343 251 -296 161 51 194 -19 255 -545 38 -331 117 -603 174 -603 103 0 46 1223 -88 1897 -76 376 -232 296 -249 -128 -7 -175 -50 -29 -96 326 -46 356 -74 655 -62 667 11 11 138 -2 282 -30 250 -48 263 -85 342 -966 131 -1483 25 -3043 -215 -3134 -169 -65 -195 -1285 -30 -1387 131 -81 90 -2134 -44 -2218 -53 -32 -71 184 -44 509 25 310 9 564 -37 564 -46 0 -76 -506 -67 -1125 9 -619 34 -979 56 -800 23 179 83 325 134 325 99 0 125 -130 140 -700 5 -192 47 -676 94 -1075 83 -700 196 -914 291 -550 28 108 50 69 57 -100 7 -151 62 -275 123 -275 65 0 82 72 41 175 -104 260 -61 1843 53 1981 66 79 65 210 -3 388 -56 148 -105 412 -109 588 -6 268 -21 287 -93 118 -47 -110 -60 -420 -28 -688 45 -387 29 -479 -80 -443 -75 25 -167 155 -204 288 -87 309 -103 1276 -27 1560 74 274 599 513 765 347 181 -181 274 -134 274 136 0 197 51 250 239 250 132 0 267 -70 300 -156 118 -308 236 -39 184 419 -38 336 -20 447 62 396 78 -48 115 37 116 260 1 182 26 444 57 581 l55 250 -153 -250 c-84 -137 -155 -205 -158 -150 -11 223 -200 -222 -212 -500 -8 -170 -33 -224 -59 -125 -74 284 -231 200 -231 -125 0 -212 -48 -300 -164 -300 -142 0 -157 89 -105 640 53 566 38 645 -126 688 -142 37 -199 -22 -245 -253 -95 -477 -70 -925 60 -1055 154 -154 -39 -373 -255 -289 -170 65 -324 1024 -218 1358 39 125 23 211 -40 211 -157 0 -129 605 42 934 111 211 121 334 43 482 -80 149 -68 256 51 437 125 191 138 336 64 718 -156 804 -204 1529 -102 1529 52 0 95 -116 95 -257 0 -142 68 -325 150 -407 100 -100 150 -349 150 -743 0 -439 36 -593 139 -593 112 0 129 169 86 875 -30 481 -92 890 -139 908 -142 55 -97 417 52 417 281 0 343 -286 386 -1776 24 -839 75 -1556 112 -1593 168 -168 227 183 156 919 -43 440 -81 1099 -85 1463 -6 599 17 680 239 825 136 89 271 162 300 162 122 0 42 -297 -100 -376 -270 -151 -231 -1724 42 -1724 44 0 75 -187 71 -415 -10 -444 180 -634 289 -291 60 189 -95 821 -260 1056 -100 144 -145 826 -60 911 40 40 72 -9 72 -108 0 -99 80 -252 178 -341 97 -89 258 -290 358 -446 152 -240 162 -330 61 -573 -128 -309 -64 -646 102 -543 56 34 101 149 101 256 0 127 69 194 200 194 112 0 200 -67 200 -151 0 -83 -90 -228 -200 -322 -223 -191 -265 -489 -78 -551 95 -32 94 -127 -6 -433 -161 -491 -119 -1860 58 -1918 95 -31 109 105 61 567 -44 426 -29 608 51 608 76 0 115 274 116 825 1 873 39 999 330 1107 199 74 158 388 -89 670 -80 92 -100 206 -49 288 73 119 108 510 129 1435 6 294 47 322 264 185 99 -62 119 -196 71 -473 -118 -685 -112 -967 21 -1012 94 -32 112 26 67 207 -46 180 -4 310 145 459 222 222 280 509 102 509 -168 0 -61 545 114 578 301 57 418 -439 283 -1196 -120 -673 -232 -849 -321 -507 -25 96 -51 26 -57 -157 -7 -183 -75 -396 -153 -473 -100 -100 -140 -404 -140 -1068 1 -721 20 -849 87 -577 47 193 62 428 33 523 -28 95 -3 253 56 350 78 130 100 -228 83 -1341 -14 -835 8 -1551 49 -1592 40 -40 73 49 73 199 0 156 43 246 100 211 55 -34 100 -355 100 -713 0 -618 -11 -649 -225 -619 -198 28 -231 104 -275 632 -30 354 -78 532 -119 433 -37 -91 -47 -406 -20 -700 26 -293 -12 -925 -86 -1405 -110 -714 -111 -881 -5 -922 93 -35 130 -296 130 -906 0 -813 -10 -852 -191 -755 -301 161 -375 1365 -172 2798 174 1233 205 1783 95 1672 -137 -136 -365 -2046 -380 -3183 -11 -792 -58 -1219 -146 -1325 -116 -139 -70 -157 408 -157 463 0 552 32 637 225 80 181 193 231 582 256 408 26 522 -9 738 -225 141 -141 363 -256 493 -256 301 0 297 20 -64 416 -386 422 -386 665 0 799 217 76 300 169 300 336 0 128 -56 253 -125 278 -100 37 -100 73 0 178 152 162 175 1693 25 1693 -55 0 -100 48 -100 106 0 58 45 78 100 44 63 -39 100 205 100 661 0 397 -30 693 -66 657 -36 -37 -121 -20 -189 36 -97 80 -123 -68 -119 -675 3 -429 -60 -1182 -140 -1674 -140 -862 -150 -884 -270 -593 -93 223 -99 417 -23 745 56 244 103 889 105 1435 1 761 39 1033 160 1167 116 128 131 224 59 359 -54 101 -123 566 -153 1033 -66 1041 -71 1059 -162 499 -40 -247 -39 -760 3 -1139 41 -379 38 -806 -8 -950 -46 -144 -78 -351 -72 -461 35 -645 -39 -1450 -132 -1450 -69 0 -106 378 -104 1075 1 591 -6 1345 -16 1675 -10 330 10 949 45 1375 35 426 28 775 -16 775 -105 0 -202 -259 -202 -539 0 -123 -66 -310 -147 -417 -84 -112 -141 -384 -134 -644 12 -399 18 -410 54 -100 90 763 220 497 225 -459 11 -2432 50 -3541 123 -3541 43 0 79 132 79 294 0 162 47 323 104 358 65 41 86 -23 56 -169 -27 -128 -74 -393 -105 -589 -64 -400 -400 -1116 -485 -1031 -30 30 -34 838 -9 1795 36 1393 16 1796 -100 2021 -174 335 -203 1810 -47 2303 89 279 78 352 -70 460 -115 84 -152 192 -107 309 65 172 75 171 205 -7 129 -176 154 -168 494 172 363 363 464 382 464 85 0 -91 113 -263 251 -383 201 -175 241 -282 197 -530 -116 -658 -69 -1741 93 -2138 l163 -400 -52 790 c-29 435 -52 1140 -52 1568 0 561 -42 820 -151 929 -84 83 -179 290 -213 459 -92 461 -228 473 -582 52 -443 -529 -617 -377 -392 342 34 109 75 98 184 -50 137 -187 141 -187 213 0 41 105 25 374 -35 599 -75 283 -77 447 -5 534 134 162 281 68 281 -179 0 -107 90 -284 200 -394 110 -110 200 -245 200 -300 0 -55 90 -100 200 -100 189 0 200 66 198 1175 -1 820 -31 1130 -101 1025 -56 -82 -96 -420 -91 -750 15 -895 2 -1050 -86 -1050 -124 0 -274 893 -240 1425 19 287 79 475 151 475 188 0 413 411 273 497 -85 53 -83 139 7 337 67 147 91 297 54 334 -95 95 -339 -265 -406 -599 -31 -154 -124 -349 -208 -432 -83 -83 -151 -319 -151 -524 0 -383 -139 -613 -372 -613 -91 0 -112 78 -69 250 49 194 24 250 -109 250 -115 0 -152 52 -111 158 34 87 61 222 61 300 0 86 102 142 258 142 221 0 253 38 228 277 -16 153 32 424 106 603 159 385 72 537 -150 263 -86 -106 -124 -129 -84 -52 41 78 68 604 61 1170 -9 665 37 1172 128 1432 81 227 103 426 52 458 -131 80 -349 -406 -504 -1120 -73 -340 -170 -597 -214 -569 -124 77 -88 643 69 1083 99 280 110 433 35 523 -124 149 71 1064 295 1382 126 179 135 139 81 -369 -68 -630 21 -777 291 -479 99 109 240 198 313 198 201 0 169 -663 -54 -1143 -105 -224 -218 -599 -252 -834 -57 -390 -40 -435 190 -522 138 -53 251 -151 251 -219 0 -75 34 -86 89 -27 138 148 251 1282 120 1200 -60 -37 -109 -129 -109 -205 0 -76 -45 -166 -100 -200 -189 -117 -105 614 97 847 188 216 197 376 185 3440 -8 2043 -50 3261 -116 3346 -73 93 -66 155 25 212 188 115 131 3886 -62 4116 -180 215 -139 3119 48 3306 94 94 123 1152 123 4447 l0 4324 -275 -23 c-243 -20 -272 -58 -245 -330 32 -341 -380 -935 -649 -935 -141 0 -664 202 -1055 408 -273 145 -460 109 -577 -111 -60 -111 -151 -176 -203 -145 -157 98 368 986 686 1162 191 106 322 276 366 475 62 283 103 311 460 311 414 0 468 80 271 397 -172 275 -56 340 623 347 l597 6 0 1385 c1 1375 -1 1390 -299 1831 -165 244 -300 487 -300 539 0 52 -67 95 -150 95 -82 0 -150 -56 -151 -125 0 -69 -61 -242 -136 -385 -176 -337 -306 -1190 -181 -1190 51 0 258 -69 458 -152 318 -133 351 -178 259 -350 -83 -156 -74 -198 41 -198 160 0 333 -801 214 -993 -106 -172 -225 -124 -298 118 l-67 225 -110 -225 c-60 -124 -164 -225 -231 -225 -120 0 -88 327 98 1018 63 233 30 289 -255 437 -309 160 -333 159 -459 -12 -72 -100 -132 -263 -132 -362 0 -100 -44 -181 -99 -181 -114 0 -389 -594 -507 -1100 -86 -366 -515 -1575 -881 -2480 -130 -321 -190 -627 -153 -775 34 -135 74 -245 88 -245 15 0 212 65 438 145 391 138 418 135 523 -62 196 -366 -164 -894 -379 -558 -139 217 -488 363 -639 267 -204 -129 -731 -112 -871 28 -66 66 -120 207 -120 312 0 168 -21 175 -167 55 -150 -123 -159 -110 -98 138 67 268 58 275 -358 273 -235 0 -492 -42 -571 -92 -148 -94 -151 -81 172 -724 64 -128 -426 -323 -978 -390 -942 -113 -1621 -285 -1942 -492 -169 -109 -459 -269 -643 -355 -185 -86 -429 -244 -544 -351 -144 -134 -231 -159 -279 -81 -96 155 -677 32 -991 -208 -340 -262 -211 -341 244 -151 288 121 365 127 332 27 -24 -72 -175 -171 -335 -221 -487 -150 -1122 -447 -1190 -557 -149 -241 -231 -76 -110 222 151 371 111 575 -112 575 -109 0 -137 -64 -95 -221 59 -229 -171 -582 -375 -576 -61 2 -26 67 78 145 113 87 162 206 124 306 -92 241 -274 132 -497 -299 -193 -372 -194 -387 -14 -518 158 -116 212 -111 368 30 284 258 312 96 35 -204 -243 -261 -258 -264 -614 -115 -200 83 -381 152 -402 152 -21 0 -38 196 -38 437 0 534 182 784 1003 1374 337 241 809 586 1050 765 241 180 786 466 1212 636 768 308 781 309 2025 238 920 -53 1344 -122 1597 -257 487 -261 588 -130 206 264 -179 185 -352 318 -386 297 -34 -21 -585 6 -1224 60 -979 83 -1245 73 -1697 -63 -808 -242 -1891 -898 -3019 -1827 -284 -235 -660 -493 -834 -573 -175 -81 -444 -324 -599 -539 -312 -435 -811 -750 -1097 -695 -232 44 -285 688 -118 1433 90 403 228 619 709 1112 328 336 863 809 1190 1050 326 241 781 577 1012 746 452 332 1839 823 2570 909 623 73 1961 -130 2466 -375 231 -111 614 -357 852 -546 503 -401 737 -435 820 -121 136 509 207 522 776 147 547 -362 666 -405 1061 -384 291 15 295 212 5 212 -171 0 -193 27 -100 120 66 66 120 213 120 328 0 114 59 296 132 405 73 108 193 355 266 547 74 193 283 674 465 1071 182 396 362 846 399 1000 37 153 174 502 304 775 225 473 228 504 60 660 -309 286 -1111 699 -1171 601 -32 -51 -13 -121 43 -156 56 -35 102 -282 102 -550 0 -460 -14 -486 -250 -461 -138 15 -274 50 -302 79 -41 41 235 1438 308 1559 28 47 1244 -598 1302 -690 131 -214 343 -57 455 337 67 234 211 526 321 650 241 270 160 402 -126 202 -162 -114 -306 -122 -699 -42 -415 85 -565 71 -927 -85 -238 -103 -525 -269 -638 -369 -114 -99 -252 -181 -308 -181 -166 0 -505 -422 -679 -844 -252 -611 -67 -1337 487 -1916 235 -245 394 -467 353 -492 -176 -109 -195 -573 -36 -908 158 -332 157 -383 -19 -899 -220 -647 -421 -679 -586 -93 -96 344 -211 459 -857 859 -699 432 -752 490 -820 892 -84 493 -50 579 281 705 276 105 291 246 98 971 -77 289 -100 549 -52 579 49 30 175 250 281 490 186 421 965 1146 1488 1385 124 57 225 167 225 245 0 102 77 126 275 84 151 -32 338 -17 416 33 87 56 310 39 592 -46 248 -75 498 -107 555 -71 58 35 255 54 440 41 263 -17 398 45 629 292 161 173 293 377 293 454 0 76 45 139 100 139 56 0 100 -268 100 -605 0 -388 63 -720 175 -925 l175 -320 29 870 c45 1373 -24 2772 -123 2495 -75 -210 -128 -229 -474 -174 -223 36 -479 14 -601 -51 -183 -98 -202 -90 -144 63 89 230 -199 547 -497 547 -302 0 -402 181 -207 376 127 127 186 133 307 32 83 -68 243 -95 355 -60 164 52 205 150 205 484 0 231 -45 575 -99 765 -65 228 -65 379 0 444 65 65 99 6 99 -174 0 -150 70 -440 155 -644 85 -204 128 -478 95 -609 -46 -184 -26 -226 87 -183 80 31 171 -8 202 -87 67 -177 360 -192 364 -19 2 70 67 40 150 -69 141 -186 147 -183 147 79 0 150 -92 372 -203 492 -112 120 -319 461 -460 759 -140 298 -454 850 -696 1229 -494 770 -500 785 -291 785 208 0 189 74 -110 430 -232 276 -242 321 -100 425 88 64 160 168 160 231 0 215 178 114 241 -136 78 -311 295 -321 513 -25 148 203 159 205 113 25 -167 -645 -184 -872 -62 -832 69 23 180 256 246 518 67 262 171 526 231 586 170 170 346 -394 279 -893 -31 -231 -12 -447 42 -481 60 -37 97 266 97 796 l0 856 -350 0 c-264 0 -352 -43 -358 -175 -5 -105 -28 -125 -58 -50 -70 174 -234 157 -234 -25 0 -221 -210 -182 -271 50 -72 277 -927 299 -932 25 -3 -167 -10 -167 -136 0 -84 111 -268 175 -501 175 -349 0 -361 -11 -250 -225 64 -124 280 -376 479 -562 328 -305 360 -382 346 -835 -9 -274 -69 -551 -134 -613 -89 -88 -112 -32 -94 235 37 541 -182 1212 -385 1178 -118 -20 -212 97 -317 397 -184 525 -505 602 -505 122 0 -177 62 -327 150 -361 190 -73 192 -280 4 -468 -80 -80 -168 -269 -196 -419 -67 -373 -107 -391 -238 -103 -89 196 -82 278 34 393 168 169 191 421 46 511 -55 34 -100 217 -100 406 0 227 -47 344 -139 344 -222 0 -269 -275 -121 -704 143 -415 37 -539 -193 -225 -106 145 -150 151 -286 38 -141 -117 -161 -102 -161 117 0 167 67 268 200 303 258 67 275 471 20 471 -99 0 -234 -54 -300 -120 -93 -93 -120 -93 -120 0 0 66 -112 120 -250 120 -202 0 -250 -50 -250 -257 0 -192 -44 -249 -175 -222 -107 21 -172 122 -167 257 7 191 -44 222 -364 222 -322 0 -382 -37 -445 -275 l-74 -275 -96 275 c-94 269 -112 275 -900 275 l-805 0 57 -350 c31 -192 16 -350 -33 -350 -49 0 -118 158 -155 350 -48 258 -117 350 -260 350 -174 0 -188 -48 -129 -443 50 -329 25 -503 -94 -673 -88 -125 -162 -320 -164 -431 -3 -183 -17 -178 -146 47 -198 347 -184 468 63 532 166 44 200 107 152 287 -34 127 -63 332 -64 456 -2 356 -399 307 -409 -50 l-8 -275 -100 275 c-98 269 -118 275 -907 275 l-805 0 67 -575 c100 -849 135 -1080 201 -1340 33 -129 -26 -49 -131 178 -105 227 -222 711 -261 1075 -59 551 -102 662 -256 662 -129 0 -213 -112 -281 -375 -325 -1266 -411 -1674 -411 -1946 0 -366 -202 -1079 -305 -1079 -40 0 -102 -112 -136 -250 -37 -145 -135 -251 -236 -251 -95 -1 -274 -29 -398 -62 -187 -50 -225 -20 -224 176 1 221 185 1183 544 2837 178 821 186 950 64 950 -50 0 -119 -191 -153 -425 -69 -473 -393 -1987 -632 -2955 -95 -380 -187 -581 -233 -506 -42 68 -15 244 61 390 125 242 483 2032 614 3071 l54 425 -560 0 c-431 0 -560 -35 -560 -150 0 -83 -50 -150 -111 -150 -61 0 -84 67 -53 150 84 219 -67 183 -213 -50 -158 -254 -323 -258 -323 -8 0 166 -73 191 -545 187 -415 -4 -556 -44 -589 -167 -36 -138 -44 -136 -54 13 -10 149 -116 175 -707 175 l-696 0 -104 -375 c-57 -206 -105 -465 -105 -575 -3 -275 -467 -1250 -595 -1250 -134 0 -133 13 39 360 79 159 254 639 389 1065 l246 775 -672 0 -672 0 31 -325 31 -325 -101 325 -102 325 -2649 0 -2649 0 7 -5062z m7997 4874 c0 -131 -258 -320 -334 -244 -137 136 -58 332 134 332 110 0 200 -39 200 -88z m2760 -185 c-33 -33 -56 26 -52 131 5 117 28 141 60 61 29 -72 26 -159 -8 -192z m6340 173 c0 -55 -45 -100 -100 -100 -55 0 -100 45 -100 100 0 55 45 100 100 100 55 0 100 -45 100 -100z m-15113 -123 c141 54 140 38 -11 -114 -193 -195 -376 -140 -376 113 0 121 29 135 112 52 62 -62 186 -85 275 -51z m813 29 c0 -118 -195 -244 -267 -173 -71 72 55 267 173 267 52 0 94 -42 94 -94z m2281 -806 c4 -227 -3 -231 -81 -50 -47 110 -84 358 -81 550 l5 350 76 -300 c42 -165 78 -412 81 -550z m12710 -317 c-159 -297 -191 -218 -184 442 l6 625 138 -442 c95 -303 107 -499 40 -625z m-2857 217 c58 -325 52 -336 -86 -156 -81 107 -147 332 -145 500 4 377 140 175 231 -344z m-12534 356 c0 -159 -181 -308 -269 -220 -82 82 46 364 166 364 57 0 103 -65 103 -144z m1790 -431 c6 -69 -35 -125 -90 -125 -55 0 -96 169 -90 375 9 335 19 348 90 125 44 -137 85 -306 90 -375z m5146 425 c-31 -83 -98 -150 -147 -150 -49 0 -89 67 -89 150 0 83 66 150 147 150 89 0 124 -59 89 -150z m7641 -169 c-62 -185 -277 -216 -277 -39 0 87 71 158 158 158 87 0 141 -53 119 -119z m2186 -530 c-82 -314 -180 -600 -218 -636 -78 -74 19 474 172 967 170 547 206 283 46 -331z m-11206 129 c-182 -260 -213 -71 -40 251 70 132 133 170 157 96 23 -67 -30 -223 -117 -347z m1809 -7 c-28 -68 -49 12 -47 177 3 165 25 220 50 123 26 -97 24 -232 -3 -300z m8987 323 c80 -129 -143 -414 -264 -339 -49 30 -89 142 -89 249 0 205 243 267 353 90z m1147 -250 c0 -194 -71 -461 -158 -593 -143 -220 -143 -271 10 -592 91 -194 230 -404 307 -469 190 -157 184 -592 -9 -592 -82 0 -150 68 -150 150 0 83 -39 150 -86 150 -48 0 -65 113 -38 250 55 289 -49 325 -229 79 -103 -141 -119 -50 -88 525 35 673 118 1216 209 1371 111 188 232 43 232 -279z m-9339 -202 c-105 -344 -113 -348 -143 -94 -39 320 47 583 167 509 48 -29 37 -216 -24 -415z m11534 125 c-2 -120 -67 -354 -144 -519 l-140 -300 20 450 c15 352 -14 444 -131 424 -106 -19 -95 16 40 121 231 181 362 116 355 -176z m-8897 -694 c1 -41 -44 -75 -100 -75 -175 0 -328 469 -250 768 73 277 76 274 212 -168 75 -247 138 -484 138 -525z m-10632 500 c-28 -69 -50 -12 -50 125 0 138 22 194 50 125 28 -69 28 -181 0 -250z m-644 -441 c-97 -367 -102 -371 -113 -84 -6 165 -40 413 -73 550 -59 235 -52 240 113 84 147 -139 159 -227 73 -550z m14378 248 c0 -229 -40 -289 -175 -263 -159 31 -255 404 -154 602 89 176 329 -70 329 -339z m4524 -658 c31 -233 23 -424 -18 -424 -223 0 -706 886 -706 1295 0 177 40 163 334 -122 239 -233 349 -445 390 -749z m-17958 551 c-28 -69 -50 -12 -50 125 0 138 22 194 50 125 28 -69 28 -181 0 -250z m2610 -233 c29 -426 -96 -315 -217 193 -50 210 -34 273 62 242 71 -23 141 -219 155 -435z m2230 270 c-55 -104 -170 -215 -255 -248 -85 -32 -200 -179 -255 -325 -56 -147 -125 -244 -153 -216 -65 66 152 574 342 802 206 247 455 236 321 -13z m2365 -75 c173 -187 212 -294 136 -370 -76 -76 -107 -72 -107 13 0 66 -67 120 -150 120 -82 0 -150 41 -150 92 0 50 -27 163 -61 250 -91 238 58 190 332 -105z m4629 107 c0 -86 -45 -128 -100 -94 -55 34 -100 104 -100 156 0 52 45 94 100 94 55 0 100 -70 100 -156z m552 -252 c37 -114 37 -236 2 -272 -75 -75 -250 171 -252 355 -3 203 179 143 250 -83z m3230 -17 c-18 -124 -77 -225 -132 -225 -55 0 -114 101 -132 225 -22 155 19 225 132 225 113 0 154 -70 132 -225z m4785 -217 c-105 -272 -267 -172 -267 163 0 298 12 310 164 158 90 -90 136 -234 103 -321z m-1573 -367 c132 213 242 -637 114 -877 -60 -110 -108 -330 -108 -487 0 -245 65 -313 450 -472 304 -125 450 -245 450 -370 0 -252 -128 -232 -494 75 -170 143 -376 235 -457 203 -187 -71 -195 -263 -11 -263 76 0 194 -67 262 -150 104 -125 90 -150 -79 -150 -113 0 -227 -56 -255 -125 -28 -69 -54 -24 -58 100 -9 242 -159 304 -242 100 -28 -69 -54 -6 -58 139 -8 279 -207 419 -458 322 -114 -44 -150 19 -150 260 l0 318 296 -211 c251 -179 325 -191 500 -83 154 97 204 233 204 554 0 234 -45 426 -100 426 -55 0 -100 -90 -100 -200 0 -278 -145 -250 -284 55 -168 369 -146 445 134 445 300 0 327 204 50 377 -110 68 -200 229 -200 357 0 403 126 380 321 -57 137 -305 213 -384 273 -286z m-13086 -441 c-89 -354 -96 -319 -58 300 52 838 72 911 121 450 20 -192 -8 -530 -63 -750z m-4442 525 c-28 -69 -50 -12 -50 125 0 138 22 194 50 125 28 -69 28 -181 0 -250z m11762 -390 c67 -9 167 -21 222 -28 236 -29 350 -190 346 -488 l-4 -319 -141 325 c-150 345 -243 393 -422 214 -128 -128 -262 78 -365 561 l-65 300 154 -275 c84 -151 208 -282 275 -290z m3170 34 c-1 -275 -26 -331 -98 -219 -129 200 -129 730 0 650 55 -34 99 -228 98 -431z m3017 -935 c-81 -283 -92 -234 -67 316 41 884 81 1040 125 484 21 -257 -6 -617 -58 -800z m1020 741 c-33 -129 12 -332 104 -472 214 -328 203 -519 -34 -581 -166 -43 -206 16 -262 388 -80 537 30 1246 161 1034 48 -78 62 -244 31 -369z m-15135 281 c0 -52 -45 -122 -100 -156 -55 -34 -100 8 -100 94 0 86 45 156 100 156 55 0 100 -42 100 -94z m-7296 -214 c61 -114 84 -280 49 -369 -49 -128 -102 -95 -257 160 -235 386 -238 417 -50 417 81 0 197 -94 258 -208z m17596 8 c0 -55 -45 -100 -100 -100 -55 0 -100 45 -100 100 0 55 45 100 100 100 55 0 100 -45 100 -100z m-13651 -450 c44 -207 34 -254 -31 -150 -152 243 -258 666 -136 550 57 -55 132 -235 167 -400z m1610 -221 c-38 -369 -114 -725 -169 -791 -67 -80 -65 -142 5 -185 58 -36 105 -161 105 -279 0 -165 -27 -187 -118 -96 -166 166 -182 476 -61 1172 132 760 158 850 240 850 36 0 36 -302 -2 -671z m749 51 c-59 -171 -116 -607 -126 -970 -17 -608 -21 -621 -58 -160 -59 750 71 1835 194 1614 65 -116 61 -279 -10 -484z m15628 470 c-61 -159 -236 -208 -236 -67 0 106 109 217 214 217 44 0 54 -67 22 -150z m-1739 -137 c-5 -88 -257 -413 -321 -413 -75 0 -175 421 -121 508 52 85 447 0 442 -95z m-17700 -556 c-63 -63 -94 42 -88 298 8 390 9 392 97 97 55 -184 52 -334 -9 -395z m2600 193 c0 -110 -44 -267 -97 -350 -70 -108 -97 -9 -97 350 0 359 27 458 97 350 53 -82 97 -240 97 -350z m7903 238 c0 -55 -45 -72 -100 -38 -55 34 -100 107 -100 162 0 55 45 72 100 38 55 -34 100 -107 100 -162z m1198 -169 c1 -72 -43 -103 -98 -69 -55 34 -99 160 -98 281 1 178 19 191 98 69 53 -82 98 -209 98 -281z m4537 227 c-33 -85 -81 -133 -107 -107 -27 26 -18 96 18 154 98 160 156 129 89 -47z m-15475 -219 c-101 -102 -185 51 -102 186 63 102 87 102 121 1 23 -70 15 -154 -19 -187z m14945 -596 c-186 -829 -282 -705 -109 142 85 418 170 675 190 573 20 -103 -17 -425 -81 -715z m-4420 -281 c0 -126 -50 -70 -135 150 -74 193 -133 463 -132 600 2 194 32 161 135 -150 72 -220 132 -490 132 -600z m-6885 656 c0 -52 -45 -122 -100 -156 -55 -34 -100 8 -100 94 0 86 45 156 100 156 55 0 100 -42 100 -94z m2420 -175 c165 -159 280 -374 280 -527 0 -143 72 -362 160 -488 196 -279 145 -346 -198 -260 -164 41 -262 135 -262 250 0 186 -405 694 -554 694 -44 0 -163 -75 -264 -166 -159 -144 -218 -148 -433 -33 -137 73 -249 163 -249 200 0 83 463 299 642 299 74 0 190 68 258 150 176 212 299 188 620 -119z m9730 -295 c102 39 150 -5 150 -139 0 -108 -67 -197 -150 -197 -196 0 -191 -98 13 -247 132 -97 141 -159 46 -336 -160 -299 -346 -279 -269 29 46 184 11 273 -139 354 -153 82 -201 209 -201 537 0 552 102 649 268 254 89 -212 180 -294 282 -255z m-14786 89 c-34 -206 -65 -487 -69 -625 -7 -225 -15 -230 -85 -50 -102 264 -17 1050 114 1050 62 0 78 -145 40 -375z m11136 35 c-78 -78 -133 -68 -198 36 -125 203 -13 338 161 193 105 -87 115 -151 37 -229z m4215 -149 c14 -242 83 -455 155 -483 92 -35 130 -287 130 -855 0 -444 -26 -780 -57 -749 -32 32 -59 298 -61 592 -4 720 -56 888 -253 812 -137 -52 -151 -3 -96 330 36 216 65 501 66 634 2 396 88 186 116 -281z m-17955 -84 c-33 -33 -56 26 -52 131 5 117 28 141 60 61 29 -72 26 -159 -8 -192z m1334 62 c-76 -143 -145 -178 -215 -108 -126 126 -18 319 180 319 120 0 126 -41 35 -211z m9011 -15 c434 -271 255 -774 -276 -774 -200 0 -225 38 -179 275 l54 275 -122 -250 c-169 -348 -160 -343 -329 -203 -96 81 -132 221 -97 389 l54 264 -158 -275 c-213 -370 -499 -376 -407 -8 59 235 48 252 -89 138 -86 -71 -157 -203 -158 -292 -1 -142 -14 -144 -98 -13 -159 247 -115 385 175 548 308 174 1306 128 1630 -74z m1001 -99 c103 -124 189 -305 191 -403 2 -134 -73 -93 -297 163 -165 188 -300 369 -300 403 0 140 230 47 406 -163z m-5543 -128 c-39 -100 20 -184 169 -240 127 -49 312 -273 417 -506 221 -488 156 -664 -338 -916 -192 -99 -278 -193 -213 -234 61 -38 221 4 356 93 296 193 325 35 46 -244 -283 -283 -850 -269 -1041 25 -294 455 -299 754 -21 1176 144 217 262 431 262 475 0 103 294 524 366 524 31 0 29 -69 -3 -153z m9379 -436 c-38 -289 -17 -635 53 -847 83 -251 88 -411 15 -536 -97 -166 -105 -164 -115 22 -5 110 -32 290 -57 400 -62 262 -47 1255 21 1364 118 191 145 61 83 -403z m-2444 -107 c214 -419 270 -1050 102 -1154 -55 -34 -100 8 -100 94 0 211 -262 199 -345 -16 -54 -141 -81 -147 -152 -33 -62 100 1 183 225 297 403 205 438 346 122 490 -313 143 -413 371 -249 569 168 202 168 202 397 -247z m3161 22 c-109 -110 -184 64 -106 245 74 171 80 171 121 -4 24 -100 17 -209 -15 -241z m-8923 -1 c122 -433 180 -868 107 -798 -80 77 -339 757 -341 898 -4 151 186 70 234 -100z m-8021 -875 c-88 -687 -90 -690 -102 -187 -14 534 105 1298 160 1037 17 -82 -9 -465 -58 -850z m845 577 c-33 -33 -56 26 -52 131 5 117 28 141 60 61 29 -72 26 -159 -8 -192z m800 -100 c-33 -33 -56 26 -52 131 5 117 28 141 60 61 29 -72 26 -159 -8 -192z m19249 -496 c-62 -374 -130 -838 -153 -1031 -22 -192 -22 33 0 500 40 847 127 1351 217 1260 26 -26 -3 -354 -64 -729z m-10785 612 c31 -31 -6 -178 -83 -325 -77 -147 -140 -321 -140 -387 -1 -65 -91 -112 -201 -104 -110 9 -200 73 -200 144 0 71 -45 129 -100 129 -55 0 -100 -67 -100 -150 0 -82 -45 -150 -100 -150 -208 0 -89 385 175 563 446 303 650 379 749 280z m-5836 -518 c-10 -424 -20 -443 -88 -175 -113 442 -113 650 0 650 55 0 95 -214 88 -475z m13566 278 c168 140 379 28 306 -162 -31 -82 57 -198 219 -286 l271 -147 -282 -4 c-154 -2 -368 43 -475 100 -133 71 -197 71 -205 0 -7 -57 -24 -149 -38 -204 -14 -55 -31 -287 -37 -517 -20 -652 -120 -383 -172 461 -49 805 17 1105 181 813 73 -130 126 -142 232 -54z m2416 22 c1 -96 -42 -231 -96 -300 -112 -142 -474 -171 -474 -37 0 116 299 362 303 249 2 -48 49 -8 105 88 56 96 115 175 130 175 16 0 30 -79 32 -175z m1730 -25 c0 -110 -45 -200 -100 -200 -55 0 -100 90 -100 200 0 110 45 200 100 200 55 0 100 -90 100 -200z m-11112 38 c346 -70 408 -317 196 -783 -166 -366 -484 -340 -484 39 0 162 45 322 100 356 55 34 99 115 97 181 -6 197 -397 -338 -397 -542 0 -207 -293 -267 -312 -64 -39 428 141 875 353 875 74 0 275 -28 447 -62z m2212 -150 c0 -55 -45 -72 -100 -38 -55 34 -100 107 -100 162 0 55 45 72 100 38 55 -34 100 -107 100 -162z m-4118 -55 c-48 -251 -282 -285 -282 -41 0 123 65 208 157 208 93 0 144 -68 125 -167z m9718 -39 c0 -58 -45 -78 -100 -44 -55 34 -100 82 -100 106 0 24 45 44 100 44 55 0 100 -48 100 -106z m-16862 -894 c79 -681 -83 -462 -184 250 -45 320 -36 464 25 400 53 -55 125 -347 159 -650z m10160 263 c1 -48 -65 -32 -147 36 -82 68 -121 168 -87 223 62 100 231 -87 234 -259z m1007 75 c54 -144 142 -560 194 -925 52 -365 122 -820 154 -1013 49 -285 39 -317 -53 -172 -62 97 -157 412 -211 700 -177 945 -261 1320 -336 1497 -46 107 -31 175 39 175 62 0 158 -118 213 -262z m1381 -842 c134 -1181 135 -1948 0 -1046 -166 1116 -248 2050 -181 2050 37 0 118 -452 181 -1004z m6114 904 c0 -102 -359 -500 -450 -500 -144 0 -28 491 125 531 291 76 325 73 325 -31z m1023 -325 c25 -234 27 -446 5 -472 -82 -99 -225 261 -226 572 -3 475 169 397 221 -100z m-17963 52 c-33 -33 -56 26 -52 131 5 117 28 141 60 61 29 -72 26 -159 -8 -192z m4740 129 c0 -79 -43 -171 -96 -203 -52 -33 -75 -114 -51 -181 72 -195 -67 -328 -653 -622 -302 -152 -707 -398 -900 -546 -735 -568 -832 -451 -198 237 285 308 532 469 845 548 450 113 753 408 753 733 0 98 68 178 150 178 83 0 150 -65 150 -144z m14666 -281 c-28 -69 -50 -12 -50 125 0 138 22 194 50 125 28 -69 28 -181 0 -250z m-16861 -289 c62 -113 44 -204 -57 -288 -81 -67 -148 -184 -148 -260 0 -76 -45 -138 -100 -138 -56 0 -99 273 -97 625 3 583 14 612 158 425 84 -110 194 -274 244 -364z m11945 -611 c-74 -1247 -115 -1475 -267 -1475 -68 0 -82 281 -40 825 104 1350 170 1775 275 1775 63 0 75 -404 32 -1125z m-8374 933 c96 -51 388 -147 649 -213 515 -131 574 -251 293 -597 -154 -191 -214 -207 -400 -108 -137 74 -221 217 -226 389 l-8 271 -103 -285 -104 -285 -188 285 c-137 209 -188 238 -188 110 -1 -216 -43 -217 -355 -13 -135 88 -246 246 -246 350 0 148 74 188 351 188 194 0 430 -42 525 -92z m5934 -360 l-84 -298 -72 269 c-80 295 17 550 155 412 47 -47 48 -219 1 -383z m-8000 214 c-63 -76 -247 -164 -409 -197 -163 -32 -529 -284 -817 -562 -559 -539 -584 -556 -584 -403 0 228 714 873 1092 986 220 66 427 163 460 217 33 53 130 97 216 97 122 0 131 -31 42 -138z m-2410 -245 c0 -181 -877 -817 -1127 -817 -74 0 -347 -135 -607 -300 -552 -350 -822 -380 -896 -98 -29 111 -191 251 -361 310 -170 59 -309 142 -309 185 0 101 816 328 1060 295 378 -51 1326 133 1605 311 301 193 635 253 635 114z m2953 -492 c-106 -426 -330 -606 -901 -725 -326 -67 -613 -202 -756 -354 -311 -331 -657 -325 -419 7 201 280 1805 1301 2109 1342 20 3 5 -119 -33 -270z m847 -355 c0 -181 -38 -373 -84 -425 -111 -126 -264 -896 -513 -2580 -112 -762 -230 -1428 -262 -1480 -35 -57 -117 -47 -202 24 -122 102 -123 150 -6 330 76 116 162 346 191 511 30 165 177 975 326 1800 150 825 295 1646 322 1825 65 424 228 420 228 -5z m-3600 -180 c0 -355 -273 -647 -1360 -1450 -930 -687 -1105 -775 -1175 -593 -60 157 484 627 1577 1363 358 242 653 475 655 517 2 43 -481 -250 -1072 -650 -591 -400 -1109 -742 -1150 -760 -41 -19 -75 104 -75 272 0 222 74 355 269 484 398 262 2061 1103 2206 1116 75 7 125 -112 125 -299z m4675 147 c269 -72 312 -482 61 -579 -224 -86 -636 202 -636 444 0 206 165 245 575 135z m-1977 -412 c0 -96 -42 -240 -93 -320 -77 -122 -131 -125 -335 -16 -258 139 -563 35 -1185 -402 -293 -206 -485 -241 -485 -87 0 55 63 100 141 100 78 0 249 128 380 284 179 212 362 300 730 351 270 37 535 111 590 166 151 151 259 119 257 -76z m2971 -300 c-25 -96 -46 -17 -46 175 0 193 21 271 46 175 25 -96 25 -254 0 -350z m5181 -62 c-94 -246 -152 -507 -128 -580 24 -72 -13 -319 -82 -549 -95 -315 -99 -507 -16 -776 60 -197 79 -388 43 -425 -94 -93 -160 -6 -254 328 -131 473 370 2689 564 2495 24 -24 -33 -246 -127 -493z m-6638 -119 c255 -132 292 -198 241 -430 -33 -151 -117 -776 -187 -1390 -88 -772 -180 -1174 -298 -1305 -158 -174 -942 -479 -1023 -397 -20 20 32 349 115 732 84 383 170 854 192 1046 78 667 268 1631 414 2100 40 126 63 122 146 -25 54 -96 234 -245 400 -331z m5719 -144 c71 -594 -28 -1009 -141 -600 -102 364 -105 1221 -4 1159 47 -29 112 -281 145 -559z m-4733 348 c-70 -84 -147 -132 -172 -107 -70 69 71 259 192 259 66 0 59 -57 -20 -152z m-4898 -128 c0 -108 -554 -621 -1050 -974 -220 -156 -637 -462 -928 -679 -290 -217 -550 -373 -577 -345 -98 98 69 333 413 578 192 138 539 396 771 574 232 178 477 324 545 325 69 1 245 136 392 301 261 293 434 381 434 220z m9269 -2120 l-7 -650 -37 597 c-20 328 -76 644 -126 704 -49 59 -58 375 -20 703 l68 596 65 -650 c35 -357 61 -942 57 -1300z m-9219 1600 c-34 -55 -104 -100 -156 -100 -52 0 -94 45 -94 100 0 55 70 100 156 100 86 0 128 -45 94 -100z m5528 -1000 c56 -412 117 -812 136 -887 20 -76 -12 -156 -70 -178 -63 -23 -116 137 -129 392 -12 237 -86 673 -164 969 -78 296 -115 581 -83 634 102 164 205 -147 310 -930z m1891 425 c-25 -96 -46 -17 -46 175 0 193 21 271 46 175 25 -96 25 -254 0 -350z m-7564 84 c-62 -115 -158 -209 -215 -209 -56 0 -553 -431 -1104 -959 -551 -527 -1025 -935 -1053 -907 -122 121 102 457 494 743 233 170 757 605 1164 966 745 662 920 751 714 366z m-905 -317 c-1042 -931 -1428 -1204 -1540 -1091 -80 81 -69 135 40 199 83 49 533 359 1000 690 468 332 873 603 900 603 28 1 -152 -180 -400 -401z m9096 -667 c2 -14 -59 -25 -136 -25 -139 0 -262 745 -169 1023 32 94 230 -556 305 -998z m3564 702 c-33 -33 -56 26 -52 131 5 117 28 141 60 61 29 -72 26 -159 -8 -192z m2200 -300 c-33 -33 -56 26 -52 131 5 117 28 141 60 61 29 -72 26 -159 -8 -192z m-14967 -803 c-288 -316 -615 -698 -727 -849 -210 -284 -466 -368 -466 -152 0 170 1641 1805 1683 1677 19 -56 -201 -361 -490 -676z m8037 430 c215 -64 215 -68 20 -153 -320 -139 -351 -119 -338 224 6 179 31 251 55 160 24 -90 143 -194 263 -231z m7125 152 c52 -52 343 -108 645 -125 517 -29 548 -46 523 -276 -15 -134 -93 -317 -174 -406 -101 -111 -114 -194 -43 -265 71 -71 66 -186 -17 -369 -152 -332 -226 -333 -376 -4 -93 205 -92 294 6 412 105 126 93 143 -72 108 -252 -54 -747 468 -747 787 0 244 96 296 255 138z m-17122 -349 c59 -152 -66 -284 -369 -393 -137 -49 -172 -28 -130 80 39 102 5 130 -114 93 -117 -37 -96 11 66 155 276 243 470 266 547 65z m12767 -1069 c0 -308 -38 -476 -100 -438 -55 34 -100 287 -100 562 0 308 38 476 100 438 55 -34 100 -287 100 -562z m-13955 384 c-46 -119 -1756 -772 -2023 -772 -67 0 -122 45 -122 100 0 55 101 101 225 103 124 2 563 155 975 341 827 373 1018 419 945 228z m3615 -145 c-33 -33 -56 26 -52 131 5 117 28 141 60 61 29 -72 26 -159 -8 -192z m-5760 -227 c-359 -115 -521 -115 -450 0 34 55 205 96 381 90 305 -9 308 -14 69 -90z m12332 -595 c97 -93 -538 -361 -1089 -460 -216 -39 -872 -313 -1458 -611 -1112 -565 -1303 -750 -2255 -2184 -289 -435 -830 -1683 -830 -1915 0 -168 -1092 -1226 -1271 -1231 -566 -17 -289 2018 399 2929 131 174 402 610 601 967 283 505 547 796 1192 1308 963 765 1108 850 1979 1155 565 198 778 221 1650 174 550 -30 1037 -89 1082 -132z m4468 45 c0 -82 -67 -150 -150 -150 -156 0 -198 118 -83 233 115 115 233 73 233 -83z m466 -375 c-28 -69 -50 -12 -50 125 0 138 22 194 50 125 28 -69 28 -181 0 -250z m-8966 129 c0 -53 -151 -200 -335 -325 -649 -444 -1446 -1250 -1667 -1687 -124 -243 -354 -607 -513 -809 -422 -536 -767 -1385 -899 -2209 -105 -654 -170 -790 -671 -1410 -306 -377 -665 -758 -798 -845 -229 -150 -253 -146 -430 72 -215 266 -227 446 -82 1266 439 2480 1873 4454 4029 5545 951 481 1366 603 1366 402z m6175 -167 c124 -33 225 -89 225 -125 0 -35 -439 -199 -975 -363 -752 -231 -1186 -442 -1895 -924 -507 -344 -979 -627 -1050 -629 -202 -5 -640 -413 -814 -759 -87 -172 -224 -338 -303 -368 -187 -72 -763 -909 -763 -1109 0 -216 -989 -860 -1320 -860 -410 0 -623 539 -386 976 52 96 212 444 356 774 336 769 626 1094 828 927 119 -99 201 -49 458 276 444 564 831 947 956 947 183 0 121 -149 -199 -476 -303 -310 -508 -1024 -294 -1024 56 0 101 53 101 117 0 65 78 204 174 309 95 106 174 267 175 358 0 95 245 310 574 504 608 359 695 606 129 369 -295 -123 -344 -122 -395 10 -89 232 -16 284 663 479 347 100 968 285 1380 413 735 227 1874 312 2375 178z m-9292 -1064 c-422 -398 -892 -925 -1044 -1173 -153 -247 -406 -590 -564 -760 -531 -576 -1249 -3528 -994 -4088 81 -178 84 -331 11 -527 -166 -440 -889 -1503 -1071 -1572 -204 -78 -416 187 -433 541 -102 2140 305 3998 1158 5287 492 743 1596 1907 2191 2308 775 524 1117 708 1313 707 148 0 0 -188 -567 -723z m3830 -548 c-126 -232 -600 -672 -660 -611 -65 65 538 786 658 786 61 0 61 -64 2 -175z m11487 -1350 c0 -14 -90 -262 -200 -551 -110 -289 -200 -757 -200 -1038 0 -449 41 -551 328 -824 308 -294 317 -322 157 -480 -160 -157 -194 -156 -538 20 -202 103 -680 267 -1061 366 -937 241 -912 454 108 929 245 114 260 334 18 257 -124 -40 -212 -24 -212 37 0 58 124 135 275 171 399 95 486 191 626 690 111 397 157 448 412 448 158 0 287 -11 287 -25z m-1100 -268 c0 -95 -236 -362 -373 -423 -42 -19 -157 -191 -255 -384 -229 -452 -1027 -1291 -1610 -1691 -609 -420 -1656 -909 -1944 -909 -127 0 -320 -47 -428 -106 -306 -163 -590 -25 -588 288 1 177 29 224 83 139 105 -165 815 -287 815 -140 0 59 -101 183 -225 276 -152 113 -168 148 -50 108 204 -69 225 58 54 331 -96 155 -91 228 30 373 83 100 238 350 344 556 106 206 217 375 248 375 88 0 36 -423 -92 -741 -83 -207 -85 -323 -9 -399 76 -76 124 -40 167 124 50 191 105 220 321 165 144 -36 279 -83 301 -105 91 -91 -224 -334 -470 -363 -159 -18 -281 -102 -300 -206 -53 -275 304 -214 731 125 208 165 409 300 448 300 38 0 121 113 184 251 63 138 271 325 462 416 191 91 370 226 398 299 94 244 -217 139 -642 -216 -442 -370 -616 -384 -527 -44 34 131 107 185 203 148 160 -61 370 149 529 531 80 192 147 224 359 170 189 -47 366 4 640 186 209 138 500 281 646 318 146 37 290 128 319 204 59 154 231 187 231 44z m-1386 -207 c110 0 170 -46 134 -103 -37 -60 -207 -76 -402 -40 -258 49 -401 14 -606 -147 -305 -240 -640 -277 -640 -71 0 155 269 292 407 207 48 -30 213 13 366 96 152 83 337 130 410 104 73 -25 222 -46 331 -46z m-1714 -535 c0 -155 -376 -523 -454 -444 -30 29 0 171 66 316 125 274 388 361 388 128z m6550 35 c-34 -55 -82 -100 -106 -100 -24 0 -44 45 -44 100 0 55 48 100 106 100 58 0 78 -45 44 -100z m-7450 -331 c0 -16 -112 -183 -250 -369 -139 -189 -250 -272 -250 -188 0 83 92 249 204 369 185 199 296 269 296 188z m1200 -69 c0 -55 -48 -100 -106 -100 -58 0 -78 45 -44 100 34 55 82 100 106 100 24 0 44 -45 44 -100z m-300 -509 c0 -234 -267 -364 -424 -207 -82 82 -63 165 70 311 206 228 354 185 354 -104z m6596 141 c65 -58 -532 -522 -609 -474 -35 22 -84 176 -108 342 -44 298 -39 302 313 238 197 -35 379 -83 404 -106z m-2196 -394 c0 -112 -188 -14 -242 126 -52 137 -38 144 90 38 83 -70 152 -143 152 -164z m-12009 -99 c-147 -177 -218 -125 -133 96 35 90 105 138 157 106 57 -35 47 -117 -24 -202z m13209 -20 c0 -99 62 -265 137 -368 132 -181 141 -180 253 31 155 290 274 275 354 -44 44 -175 13 -320 -96 -440 -118 -130 -143 -274 -93 -539 113 -603 -531 -1698 -1305 -2219 -340 -230 -1041 -457 -1167 -380 -114 71 -106 1014 10 1086 51 31 108 -67 125 -219 55 -475 314 -338 344 181 33 562 350 1513 525 1571 83 28 56 -99 -79 -364 -115 -224 -208 -569 -208 -768 0 -316 25 -353 201 -297 184 59 191 42 84 -193 -154 -338 -38 -438 293 -252 240 134 821 1092 817 1345 -2 137 -394 -343 -397 -486 -3 -156 -393 -644 -396 -495 -1 66 46 149 105 185 59 37 82 129 53 206 -30 77 102 399 293 715 367 609 407 725 249 725 -54 0 -208 -214 -342 -475 -319 -620 -527 -892 -615 -803 -97 96 315 1038 560 1283 107 107 195 288 195 402 0 316 -324 201 -490 -174 -77 -175 -223 -339 -324 -366 -102 -26 -206 -109 -233 -183 -201 -569 -265 -705 -312 -658 -30 29 -23 219 15 421 50 267 161 427 405 585 185 120 337 288 338 374 1 174 482 794 616 794 47 0 85 -81 85 -181z m-15099 -567 c-313 -573 -196 -699 146 -157 250 396 501 591 614 477 29 -29 -5 -145 -75 -258 -71 -113 -90 -241 -44 -284 47 -44 106 -21 132 52 26 72 156 252 289 400 l242 268 -211 -373 c-189 -334 -196 -390 -60 -525 206 -207 219 -201 466 198 379 613 498 354 253 -550 l-68 -250 236 275 c283 329 648 390 483 82 -207 -386 -91 -449 211 -117 373 411 1186 1043 1253 975 27 -27 -97 -176 -274 -332 -644 -564 -932 -933 -729 -933 36 0 286 230 555 511 270 282 519 483 554 448 35 -35 -147 -278 -405 -540 -258 -262 -469 -531 -469 -597 0 -209 140 -130 400 224 210 286 575 554 755 554 130 0 8 -225 -297 -549 -189 -199 -402 -546 -475 -770 -120 -368 -212 -448 -958 -837 -454 -237 -825 -392 -825 -345 0 47 113 219 250 383 138 163 251 335 252 382 1 47 113 192 250 321 136 130 248 276 248 325 0 404 -808 -580 -1124 -1369 -173 -430 -295 -599 -450 -622 -230 -34 -793 -667 -1069 -1203 -94 -184 -195 -311 -224 -282 -133 133 250 863 934 1782 745 1002 924 1491 268 734 -884 -1019 -1274 -1681 -1576 -2675 -29 -96 -105 -175 -169 -175 -306 0 207 1578 814 2500 659 1002 1004 1625 965 1738 -22 62 -170 -105 -329 -371 -160 -265 -521 -837 -803 -1272 -500 -769 -1137 -2423 -1137 -2951 0 -128 -52 -264 -115 -303 -175 -109 -50 969 213 1832 221 726 238 1168 29 777 -126 -237 -627 -2428 -627 -2743 0 -120 -37 -196 -82 -168 -142 87 74 1564 392 2682 314 1099 342 1627 51 957 -88 -204 -162 -452 -164 -550 -3 -235 -462 -1616 -587 -1766 -54 -65 -108 -387 -120 -715 -13 -328 -77 -727 -142 -886 l-119 -289 -70 277 c-38 152 -44 395 -13 539 31 144 118 780 194 1412 75 633 169 1229 209 1325 51 124 26 175 -86 175 -162 0 -201 -101 -355 -900 l-86 -450 -11 400 c-6 220 56 779 138 1243 137 779 136 1025 -4 885 -31 -30 -145 -563 -255 -1183 -207 -1175 -183 -1695 79 -1695 126 0 138 -67 67 -375 -47 -206 -78 -667 -67 -1025 16 -573 2 -628 -120 -464 -75 103 -165 440 -199 750 -94 857 -96 864 -197 864 -52 0 -125 -112 -164 -250 -39 -141 -73 185 -79 750 -12 1201 198 2488 481 2957 114 189 238 411 275 493 127 282 668 1000 753 1000 47 0 129 -112 181 -250 52 -137 150 -250 217 -250 173 0 883 507 883 630 0 57 26 78 57 46 31 -31 -37 -241 -152 -466 -147 -288 -171 -410 -82 -409 70 0 177 101 237 225 471 958 680 1274 778 1176 74 -74 34 -238 -137 -550z m16145 441 c-86 -139 -146 -113 -146 63 0 86 46 128 102 93 56 -35 75 -105 44 -156z m-4710 -343 c497 -236 594 -466 408 -974 -749 -2044 -1944 -6609 -1945 -7426 0 -165 -101 -451 -224 -637 -557 -834 -1691 -3033 -2088 -4050 -110 -282 -338 -805 -506 -1163 -168 -357 -414 -897 -546 -1200 -424 -969 -859 -1744 -1093 -1950 -257 -225 -1042 -1743 -1289 -2491 -115 -350 -130 -512 -51 -560 80 -50 73 -161 -24 -398 l-134 -330 -12 590 c-9 477 72 802 429 1713 243 619 531 1271 640 1450 207 340 271 591 108 421 -219 -228 -1509 -3105 -1509 -3366 0 -43 73 -79 162 -79 175 0 169 -38 -130 -828 -151 -397 -159 -493 -46 -563 109 -68 52 -307 -293 -1222 -452 -1197 -647 -1526 -859 -1445 -71 27 -267 -67 -437 -209 l-307 -260 66 264 c49 198 28 263 -87 263 -84 0 -171 56 -194 125 -80 238 -330 -96 -464 -621 -154 -598 -314 -672 -239 -109 55 408 -17 534 -438 773 -155 87 -237 89 -321 5 -148 -148 -155 161 -9 434 122 228 296 255 296 47 0 -172 302 -354 588 -354 212 0 299 90 362 375 349 1562 355 1619 210 1967 -79 188 -248 396 -377 463 -128 66 -330 238 -448 382 -213 259 -218 260 -425 72 -180 -163 -210 -167 -210 -30 0 277 394 842 845 1212 334 273 511 538 759 1133 177 427 332 891 343 1032 11 141 92 546 179 900 291 1188 415 2235 427 3627 14 1538 45 1610 618 1434 309 -94 415 -74 891 176 750 393 1188 881 1533 1711 385 925 481 1832 271 2557 -134 460 -234 599 -637 885 -610 433 -958 439 -1591 26 l-488 -318 -33 317 c-27 268 35 378 400 704 238 212 534 427 658 478 124 51 225 155 225 232 0 77 69 198 154 268 202 168 846 1324 846 1519 0 85 65 207 144 273 115 95 202 78 425 -84 711 -516 1959 -462 2939 126 572 344 1285 1253 1289 1645 4 328 174 626 538 940 375 324 311 313 701 128z m-9986 -50 c-34 -55 -82 -100 -106 -100 -24 0 -44 45 -44 100 0 55 48 100 106 100 58 0 78 -45 44 -100z m4753 -243 c-57 -148 -103 -447 -103 -664 0 -216 -45 -393 -100 -393 -188 0 -147 611 72 1079 181 386 280 370 131 -22z m493 83 c-54 -143 -166 -355 -247 -472 -149 -212 -149 -212 -149 37 0 266 249 695 403 695 54 0 51 -107 -7 -260z m448 -65 c-80 -262 -126 -326 -190 -262 -76 76 62 487 164 487 53 0 64 -101 26 -225z m-1298 -68 c31 -51 12 -121 -44 -156 -56 -35 -102 -266 -102 -515 0 -303 -39 -440 -118 -413 -203 67 -319 339 -229 538 88 195 116 299 135 514 14 145 273 169 358 32z m7158 -234 c195 -67 364 -157 375 -198 59 -212 3 -356 -154 -398 -409 -107 -535 -2191 -186 -3090 113 -292 272 -505 430 -578 202 -91 239 -163 189 -362 -34 -136 -19 -247 33 -247 176 0 409 313 409 551 0 130 52 363 115 517 63 155 142 461 175 681 40 269 117 409 235 432 144 28 175 -40 175 -387 0 -231 -53 -598 -118 -814 -125 -417 -786 -1180 -1024 -1180 -185 0 -444 -710 -504 -1386 -49 -535 214 -1582 476 -1900 87 -105 50 -181 -170 -341 -155 -113 -511 -401 -790 -639 -279 -239 -567 -434 -639 -434 -72 0 -131 -59 -131 -132 0 -73 -149 -309 -331 -525 -716 -851 -785 -1004 -790 -1720 -2 -370 28 -834 67 -1032 71 -354 62 -366 -637 -884 -390 -289 -801 -656 -915 -815 -113 -159 -404 -522 -646 -805 -880 -1031 -2168 -3077 -2652 -4213 -159 -372 -414 -867 -567 -1100 -479 -728 -999 -1938 -882 -2054 26 -27 79 37 116 141 37 104 122 257 189 339 67 83 151 275 187 429 133 559 926 626 1493 125 l382 -337 -5 -916 c-3 -679 28 -906 119 -876 67 23 136 139 154 259 49 335 218 149 218 -240 0 -314 -26 -344 -293 -344 -337 0 -362 56 -456 1018 -41 422 -25 744 45 875 146 272 73 261 -249 -37 -144 -134 -326 -219 -403 -190 -79 30 -320 -115 -549 -331 -413 -389 -456 -574 -248 -1060 57 -135 26 -175 -136 -175 -116 0 -211 -48 -211 -107 0 -60 -85 -80 -192 -45 -143 45 -227 -9 -325 -211 -192 -394 -361 -401 -459 -19 -55 218 -209 413 -447 569 -273 178 -343 278 -283 400 44 90 196 523 338 963 442 1368 858 2523 1126 3123 142 317 387 927 544 1355 157 428 424 1032 592 1343 168 310 306 626 306 702 0 76 221 597 490 1157 270 561 601 1268 737 1570 523 1170 922 2025 1817 3900 203 425 397 730 633 995 255 286 365 635 522 1655 171 1115 588 2924 897 3900 470 1481 1268 3276 1444 3248 6 0 169 -57 364 -125z m-6266 -769 c84 -246 138 -461 120 -479 -26 -26 -503 149 -640 236 -17 11 13 103 68 204 55 102 126 270 159 374 76 241 105 208 293 -335z m-1763 117 c293 -372 75 -1282 -280 -1169 -143 45 -224 -6 -311 -198 -128 -280 -259 -288 -424 -26 -84 132 -35 238 237 519 188 194 401 353 473 353 71 0 130 68 130 150 0 269 -243 162 -617 -273 -201 -235 -398 -395 -437 -357 -125 126 50 568 368 931 331 376 603 398 861 70z m4337 52 c-98 -98 -110 -86 -56 56 38 99 94 154 125 124 30 -31 0 -112 -69 -180z m-1968 -63 c30 -49 -12 -115 -95 -146 -90 -35 -149 0 -149 89 0 162 156 199 244 57z m1597 -135 c-161 -286 -564 -785 -602 -747 -48 48 207 686 319 797 127 127 360 86 283 -50z m-541 -80 c0 -58 -77 -249 -172 -425 -158 -293 -175 -301 -206 -100 -19 121 15 312 75 425 116 216 303 278 303 100z m-584 -535 c-30 -379 -4 -450 180 -509 130 -41 308 -6 456 91 225 148 238 147 177 -17 -88 -239 -229 -322 -553 -323 -219 -2 -303 68 -420 348 -80 193 -193 350 -251 350 -198 0 -105 306 120 397 124 50 248 93 276 97 28 3 35 -192 15 -434z m-11247 -128 c-171 -337 -292 -1622 -277 -2932 10 -822 38 -970 210 -1100 265 -202 424 -754 256 -893 -94 -79 -100 -223 -21 -605 76 -372 72 -533 -16 -621 -178 -178 -207 -94 -282 803 -48 578 -100 795 -174 721 -194 -194 -251 -108 -417 638 -210 946 -85 2806 242 3605 84 204 89 309 16 333 -212 71 -105 319 138 319 134 0 278 54 318 120 147 237 153 -101 7 -388z m12690 214 c-33 -311 -259 -581 -259 -309 0 174 170 563 247 563 22 0 27 -114 12 -254z m-3617 67 c29 -48 278 -116 552 -153 555 -73 622 -128 540 -443 -71 -270 -194 -280 -262 -22 -30 114 -170 222 -336 257 -442 95 -736 234 -736 346 0 124 168 135 242 15z m-388 -762 c-340 -278 -426 -263 -237 39 72 116 222 208 332 206 176 -3 164 -33 -95 -245z m11646 43 c0 -52 -45 -94 -100 -94 -55 0 -100 70 -100 156 0 86 45 128 100 94 55 -34 100 -104 100 -156z m-21208 -355 c-63 -159 -136 -814 -163 -1455 -57 -1346 169 -2723 474 -2886 115 -61 191 -265 229 -620 32 -290 88 -652 125 -803 41 -170 26 -275 -40 -275 -59 0 -160 270 -225 600 -65 330 -157 600 -205 600 -108 0 -108 -10 19 -797 58 -355 153 -703 211 -773 58 -70 76 -205 39 -300 -103 -268 -556 601 -556 1068 0 565 -109 1002 -251 1002 -69 0 -201 158 -292 350 -185 388 -264 2244 -121 2825 52 213 43 325 -26 325 -183 0 -260 -509 -258 -1700 2 -1272 157 -1995 444 -2070 160 -42 191 -209 254 -1364 40 -724 113 -1366 162 -1428 57 -70 35 -158 -60 -236 -167 -139 -166 -140 -344 543 -82 315 -73 428 45 558 185 204 184 274 -3 461 -82 83 -150 327 -150 543 0 396 -154 530 -268 232 -34 -89 -20 -494 32 -900 51 -406 60 -739 18 -739 -240 0 -519 1345 -339 1634 78 125 74 192 -14 247 -249 156 -421 822 -485 1879 -36 600 -69 1113 -73 1140 -44 270 184 1119 337 1257 231 210 236 174 42 -292 -164 -391 -200 -865 -66 -865 46 0 141 256 211 569 97 431 210 641 469 870 188 167 457 499 597 740 282 480 410 514 231 60z m7762 155 c76 -124 -228 -494 -407 -494 -126 0 -893 -590 -1883 -1450 -444 -386 -664 -683 -960 -1300 -542 -1125 -968 -2157 -1056 -2558 -65 -295 -85 -314 -150 -139 -164 443 698 2974 1135 3334 92 76 167 199 167 275 0 76 45 138 100 138 55 0 100 152 100 338 0 196 71 395 169 475 178 145 179 152 -30 -363 -97 -242 155 -172 273 75 59 124 395 469 746 767 1013 859 1630 1169 1796 902z m4096 6 c36 -58 -68 -100 -250 -100 -182 0 -286 42 -250 100 34 55 146 100 250 100 104 0 216 -45 250 -100z m-2945 -656 c-231 -599 -780 -1617 -918 -1702 -260 -161 -168 105 253 732 488 727 549 882 315 792 -225 -87 -74 246 228 505 143 121 271 208 286 194 14 -15 -59 -249 -164 -521z m531 206 c-31 -82 -96 -150 -144 -150 -47 0 -60 68 -28 150 31 83 96 150 144 150 47 0 60 -67 28 -150z m-1283 -54 c35 -58 13 -166 -49 -241 -77 -93 -80 -158 -10 -201 66 -41 8 -255 -159 -584 -479 -945 -1344 -2395 -1527 -2559 -165 -147 -409 -834 -712 -2009 -188 -727 -408 -1202 -556 -1202 -107 0 -135 -172 -124 -751 16 -816 -35 -950 -296 -782 -128 83 -166 239 -156 631 8 286 65 571 125 631 61 61 111 281 111 490 0 540 448 2193 747 2754 139 261 253 514 253 562 0 47 127 250 282 451 156 200 453 702 661 1114 396 783 657 1148 657 916 0 -71 45 -100 100 -66 55 34 100 147 100 251 0 475 377 880 553 595z m12757 -600 c-83 -205 -93 -170 -60 204 48 563 70 616 120 296 21 -139 -5 -364 -60 -500z m-11830 -89 c-125 -217 -243 -378 -262 -358 -62 62 301 751 396 751 51 0 -10 -177 -134 -393z m9320 213 c0 -31 -54 -205 -120 -388 -147 -406 -435 -440 -603 -71 -101 220 -92 281 54 387 171 126 669 179 669 72z m2066 -547 c-28 -68 -49 12 -47 177 3 165 25 220 50 123 26 -97 24 -232 -3 -300z m-586 32 c-68 -108 -136 -182 -154 -165 -59 60 96 360 186 360 49 0 35 -88 -32 -195z m-13280 -358 c0 -118 -603 -1237 -698 -1296 -169 -104 -118 60 223 720 277 536 475 776 475 576z m-593 -423 c-44 -152 -198 -510 -343 -797 -145 -286 -264 -584 -264 -661 0 -78 -65 -195 -144 -261 -79 -65 -172 -250 -207 -411 -95 -431 -297 -511 -213 -85 92 466 759 2101 944 2316 221 256 317 214 227 -101z m-8071 -499 c34 -206 62 -669 63 -1029 1 -588 206 -1662 367 -1922 34 -55 71 -376 81 -712 10 -337 94 -787 187 -1002 160 -370 177 -381 353 -221 178 160 188 149 241 -244 30 -226 127 -491 216 -588 89 -99 133 -251 98 -343 -106 -274 -209 -186 -304 261 -82 385 -119 425 -389 425 -269 0 -316 49 -468 500 -94 275 -201 759 -238 1075 -67 563 -190 730 -309 420 -83 -216 279 -1812 488 -2157 112 -184 226 -263 325 -225 115 44 153 -12 151 -227 -1 -223 -23 -253 -100 -136 -86 131 -110 132 -192 3 -106 -164 -144 -89 -462 922 -187 597 -333 739 -359 350 -8 -124 -43 -22 -77 225 -34 248 -23 605 25 794 64 254 48 412 -63 600 -205 349 -271 2080 -74 1959 52 -33 72 -121 43 -196 -29 -75 -1 -169 62 -207 81 -51 103 62 75 387 -39 476 -176 765 -176 374 0 -123 -45 -195 -100 -161 -170 105 -110 782 99 1125 257 422 361 410 437 -50z m7492 250 c-112 -143 -828 -1909 -828 -2039 0 -76 -530 -1848 -669 -2236 -37 -103 -68 -112 -99 -30 -64 170 538 2379 773 2840 107 210 195 450 195 533 0 123 183 508 467 982 25 41 93 75 151 75 70 0 73 -43 10 -125z m-1728 -575 c0 -55 -45 -100 -100 -100 -55 0 -100 45 -100 100 0 55 45 100 100 100 55 0 100 -45 100 -100z m15300 -1217 c0 -1063 -73 -1328 -105 -381 -27 786 -3 1398 55 1398 28 0 50 -457 50 -1017z m2010 487 c-80 -80 -109 -30 -107 185 3 259 16 272 110 110 77 -132 76 -216 -3 -295z m-17810 -231 c0 -76 -67 -139 -150 -139 -83 0 -150 89 -150 197 0 134 48 178 150 139 83 -31 150 -120 150 -197z m5982 -289 c62 -137 79 -250 36 -250 -123 0 -318 227 -318 370 0 215 160 147 282 -120z m-7522 -223 c-33 -33 -56 26 -52 131 5 117 28 141 60 61 29 -72 26 -159 -8 -192z m554 -905 c-25 -582 7 -894 116 -1112 189 -378 113 -1072 -146 -1350 -101 -109 -184 -147 -184 -85 0 62 -90 106 -200 98 -110 -9 -200 -51 -200 -94 0 -44 -45 -79 -100 -79 -57 0 -97 270 -93 625 12 1052 244 1298 315 333 34 -475 206 -560 433 -214 137 209 145 285 43 409 -186 224 -262 2385 -81 2324 100 -35 124 -245 97 -855z m568 101 c4 -374 -35 -746 -86 -826 -51 -81 -99 -124 -107 -97 -107 371 -16 1729 110 1650 42 -26 80 -353 83 -727z m1977 202 c-185 -818 -605 -2288 -676 -2370 -113 -130 -106 246 12 605 52 160 213 684 356 1165 144 481 286 875 316 875 30 0 27 -124 -8 -275z m4296 30 c135 -135 245 -325 245 -421 0 -130 -101 -76 -400 216 -220 215 -400 404 -400 420 0 123 354 -15 555 -215z m-7329 -378 c-72 -576 -157 -642 -229 -177 -82 533 -29 751 148 604 67 -56 103 -245 81 -427z m4995 -596 c-53 -53 -82 85 -71 340 30 727 85 855 124 290 21 -297 -3 -580 -53 -630z m13879 -501 c0 -1264 -27 -1593 -120 -1500 -110 110 -130 1233 -41 2270 15 165 34 424 44 575 9 151 40 275 67 275 28 0 50 -729 50 -1620z m-14185 1006 l-97 -336 -9 308 c-5 170 21 339 58 375 125 126 144 -11 48 -347z m2683 -447 c2 -130 -485 -639 -612 -639 -47 0 -86 244 -86 542 0 298 -31 623 -69 721 -46 119 72 63 348 -166 230 -191 418 -397 419 -458z m-7851 136 c-42 -124 -95 -720 -118 -1325 -32 -843 -9 -1144 99 -1290 163 -220 372 -138 372 146 0 242 155 254 246 19 65 -166 75 -166 198 1 116 158 137 133 194 -226 114 -712 -169 -1270 -303 -598 -51 251 -85 281 -208 179 -520 -431 -878 140 -804 1285 47 728 -46 942 -220 509 l-90 -225 -7 219 c-3 121 34 244 83 274 48 30 119 217 156 415 86 459 260 842 383 842 55 0 63 -95 19 -225z m6239 -475 c63 0 114 -75 114 -167 0 -92 75 -250 166 -351 91 -101 137 -212 102 -247 -84 -84 -368 156 -368 312 0 67 -90 203 -200 303 -110 100 -199 253 -197 340 3 139 21 137 136 -15 73 -96 184 -175 247 -175z m-4186 106 c0 -52 -45 -122 -100 -156 -55 -34 -100 8 -100 94 0 86 45 156 100 156 55 0 100 -42 100 -94z m2899 -131 c-1 -69 -91 -410 -200 -759 -110 -349 -199 -896 -199 -1216 0 -509 -119 -1253 -398 -2500 l-79 -350 -12 366 c-6 202 56 719 139 1150 82 431 150 991 150 1244 0 253 42 591 94 750 52 160 145 549 207 865 62 316 155 575 206 575 51 0 92 -56 92 -125z m15084 -1150 c-16 -1238 -19 -1250 -78 -425 -57 793 -26 1700 58 1700 20 0 29 -574 20 -1275z m-18228 -168 c-118 -502 -155 -918 -112 -1276 61 -510 57 -520 -87 -267 -173 304 -151 1291 49 2186 110 491 134 526 224 326 73 -163 53 -429 -74 -969z m3633 724 c7 72 60 101 119 65 70 -43 50 -128 -59 -248 -90 -100 -229 -377 -308 -615 l-144 -433 55 596 c31 328 86 710 123 850 l67 254 68 -300 c37 -165 73 -241 79 -169z m668 41 c-84 -83 -256 93 -253 259 3 148 21 145 149 -24 80 -106 127 -211 104 -235z m-7156 -379 c0 -120 -56 -265 -125 -322 -97 -81 -131 12 -151 412 -24 478 -14 502 125 323 83 -107 151 -293 151 -413z m5498 132 c0 -14 -62 -199 -136 -412 l-134 -386 -109 311 c-89 256 -82 312 36 312 80 0 145 45 145 100 0 55 45 100 100 100 55 0 99 -11 98 -25z m2981 -339 c-29 -138 -54 -113 -97 97 -37 182 -23 248 40 185 53 -53 79 -180 57 -282z m-2543 -422 c-36 -340 -90 -594 -120 -563 -65 65 -33 822 47 1082 104 341 138 102 73 -519z m1100 408 c-168 -525 -297 -777 -518 -1011 l-247 -261 62 550 c49 436 118 595 333 769 299 240 456 220 370 -47z m-6424 -1630 c235 -168 290 -269 245 -448 -32 -127 10 -491 93 -809 177 -681 192 -1035 42 -1035 -67 0 -84 109 -45 287 45 203 21 304 -82 343 -80 31 -176 250 -215 488 -40 250 -154 499 -271 591 -143 113 -221 329 -266 742 -70 649 -253 826 -350 340 -132 -660 -76 -908 284 -1257 389 -378 565 -894 863 -2532 101 -553 339 -945 510 -840 52 33 29 130 -52 223 -173 197 -383 1115 -255 1115 49 0 161 -180 249 -400 88 -220 200 -400 249 -400 133 0 110 127 -118 642 -113 257 -190 518 -169 580 21 62 96 -42 167 -230 220 -581 350 -814 487 -866 219 -85 246 43 56 266 -176 205 -509 1055 -572 1458 -57 369 -184 699 -336 871 -83 94 -124 241 -91 325 75 198 454 200 529 4 31 -82 143 -150 247 -150 128 0 190 -72 193 -225 5 -286 394 -1192 665 -1551 330 -436 368 -196 54 339 -353 600 -562 1167 -412 1117 59 -20 271 -349 473 -733 264 -503 428 -706 589 -729 223 -31 223 -32 200 -2011 -17 -1470 -53 -1969 -141 -1936 -159 60 -933 -741 -1187 -1228 l-205 -393 -620 0 c-343 0 -623 45 -626 100 -3 55 -100 135 -216 178 -204 75 -205 80 -19 218 186 137 185 145 -34 351 -257 241 -297 425 -75 339 83 -31 150 -8 150 53 0 61 -45 111 -100 111 -55 0 -100 45 -100 100 0 215 186 84 285 -201 115 -330 574 -580 748 -406 66 66 11 133 -167 201 -167 63 -266 176 -266 304 0 113 -66 202 -150 202 -83 0 -150 82 -150 181 0 100 -84 271 -186 381 -293 314 -689 1077 -911 1753 -254 774 -255 878 -3 558 110 -140 200 -343 200 -450 0 -108 90 -310 200 -450 110 -140 200 -325 200 -410 0 -86 124 -290 275 -454 151 -164 337 -372 412 -462 103 -123 164 -135 250 -49 84 86 65 151 -75 255 -137 101 -173 215 -132 420 38 190 -6 361 -135 529 l-191 248 -6 -250 c-6 -239 -12 -237 -141 60 -74 171 -201 335 -282 366 -80 31 -220 283 -311 559 -195 598 -200 649 -48 555 78 -48 96 -10 54 119 -82 257 -628 1750 -713 1953 -38 89 -2 314 79 500 l148 338 8 -463 c10 -555 438 -1587 659 -1587 85 0 198 -115 251 -256 54 -141 140 -230 192 -198 90 56 -8 370 -350 1119 -79 173 -144 362 -144 420 0 58 -77 148 -171 201 -275 154 -300 1359 -38 1814 111 193 259 478 330 635 121 268 131 238 158 -471 28 -714 46 -768 333 -972z m7548 1435 c-33 -33 -56 26 -52 131 5 117 28 141 60 61 29 -72 26 -159 -8 -192z m-808 -220 c-70 -315 -252 -428 -252 -156 0 168 220 562 281 502 21 -21 8 -177 -29 -346z m446 18 c1 -69 -65 -125 -148 -125 -163 0 -185 91 -86 350 51 133 81 140 148 33 47 -73 86 -189 86 -258z m-10100 -380 c1 -113 52 -255 113 -316 61 -61 89 -172 62 -245 -58 -158 -214 194 -316 716 -51 257 -41 310 35 200 58 -82 106 -242 106 -355z m18502 49 c0 -58 -45 -78 -100 -44 -55 34 -100 82 -100 106 0 24 45 44 100 44 55 0 100 -48 100 -106z m921 -661 c-24 -127 -83 -206 -131 -177 -89 55 -93 521 -5 687 78 148 185 -254 136 -510z m-13421 67 c0 -314 -165 -408 -264 -150 -71 186 23 450 161 450 57 0 103 -135 103 -300z m16615 -62 c-53 -435 -154 -524 -214 -188 -29 166 -116 300 -194 300 -77 0 -157 51 -178 114 -25 73 80 104 291 87 300 -24 327 -52 295 -313z m-14282 -513 c-34 -426 -57 -1236 -51 -1800 6 -586 -29 -1025 -83 -1025 -160 0 -224 469 -162 1176 33 371 86 1012 118 1424 59 774 102 1000 189 1000 28 0 23 -349 -11 -775z m-6933 269 c0 -52 -45 -94 -100 -94 -55 0 -100 70 -100 156 0 86 45 128 100 94 55 -34 100 -104 100 -156z m17424 -44 c-26 -137 -65 -250 -86 -250 -21 0 -38 113 -38 250 0 138 39 250 86 250 48 0 65 -112 38 -250z m-17623 -695 c-132 -367 -251 -255 -258 243 l-8 497 168 -272 c101 -165 140 -350 98 -468z m4640 317 c67 -262 56 -405 -37 -517 -321 -387 -562 -5 -377 597 133 433 293 402 414 -80z m14195 278 c32 -82 14 -150 -39 -150 -53 0 -97 68 -97 150 0 83 18 150 39 150 22 0 66 -67 97 -150z m-19387 -252 c-32 -102 7 -436 87 -742 179 -685 42 -831 -177 -188 -163 478 -209 1048 -95 1163 117 116 245 -45 185 -233z m6289 -173 c-63 -517 -313 -956 -574 -1007 -390 -77 -269 782 176 1255 344 366 464 292 398 -248z m16615 -1393 c40 -760 79 -1401 85 -1424 7 -23 -33 -56 -88 -75 -55 -18 -102 68 -105 192 -3 124 -35 900 -72 1725 -38 871 -30 1388 20 1232 47 -147 119 -889 160 -1650z m-3053 1348 c0 -251 -36 -382 -89 -325 -82 87 -38 745 50 745 22 0 39 -189 39 -420z m-13191 -111 c-79 -79 -109 -53 -109 94 0 265 140 405 184 185 19 -93 -14 -218 -75 -279z m13791 31 c0 -110 -17 -200 -38 -200 -21 0 -62 90 -91 200 -29 110 -11 200 38 200 50 0 91 -90 91 -200z m-12470 -275 c-81 -519 -130 -535 -130 -42 0 230 42 417 94 417 52 0 68 -167 36 -375z m-739 -523 c-62 -290 -90 -672 -61 -848 57 -354 -56 -654 -175 -462 -106 171 191 1995 306 1880 24 -23 -8 -280 -70 -570z m-7348 -414 c91 -227 142 -436 114 -464 -28 -29 -98 70 -154 219 -57 149 -150 357 -207 464 -59 111 -64 193 -10 193 51 0 167 -186 257 -412z m6309 -513 c-36 -399 -91 -1712 -121 -2917 -38 -1567 -82 -2138 -155 -2000 -55 105 -172 249 -259 318 -134 106 -158 372 -150 1650 18 3284 10 3198 312 3445 149 122 309 223 356 225 46 2 54 -322 17 -721z m13809 267 c-47 -121 -91 -125 -259 -20 -258 161 -254 224 23 349 243 110 348 -37 236 -329z m897 333 c-32 -69 -86 -204 -120 -300 -34 -96 -138 -175 -232 -175 -184 0 -406 -726 -406 -1330 l0 -315 -160 229 c-278 398 -81 1215 439 1823 184 215 574 270 479 68z m-21267 -385 c68 -226 149 -485 181 -575 43 -124 28 -138 -63 -55 -150 139 -428 1040 -320 1040 44 0 135 -185 202 -410z m1041 235 c30 -96 124 -363 209 -594 131 -356 134 -457 19 -678 l-135 -260 -61 229 c-34 125 -62 417 -63 647 0 231 -46 447 -101 481 -124 76 -133 350 -12 350 49 0 113 -79 144 -175z m4518 -25 c-34 -55 -82 -100 -106 -100 -24 0 -44 45 -44 100 0 55 48 100 106 100 58 0 78 -45 44 -100z m2610 -173 c-33 -33 -56 26 -52 131 5 117 28 141 60 61 29 -72 26 -159 -8 -192z m13725 -252 c-25 -380 0 -518 90 -500 175 35 152 -84 -72 -375 -150 -195 -219 -223 -313 -130 -157 157 -126 1345 39 1450 241 153 289 71 256 -445z m-3785 329 c0 -54 -90 -145 -200 -204 -216 -116 -232 -100 -139 142 65 170 339 220 339 62z m958 -480 c-109 -108 -140 26 -76 326 l65 300 34 -284 c19 -156 8 -310 -23 -342z m-436 75 c37 -254 15 -293 -136 -245 -133 43 -196 -10 -245 -203 -62 -248 -74 -252 -253 -90 -234 212 -270 532 -38 339 125 -104 150 -90 150 88 0 122 64 212 150 212 83 0 150 45 150 100 0 237 181 73 222 -201z m-17821 -324 c1 -902 510 -2275 843 -2275 82 0 223 -261 347 -646 251 -776 258 -894 50 -814 -108 41 -177 -7 -214 -148 -42 -159 -75 -177 -139 -75 -141 221 -102 583 62 583 201 0 189 131 -50 523 -203 334 -231 317 -210 -123 20 -450 -692 1137 -757 1685 -40 338 -108 515 -197 515 -165 0 -165 20 -22 733 62 312 152 567 200 567 47 0 86 -236 87 -525z m16617 203 c-71 -71 -118 -77 -118 -15 0 57 30 134 67 170 36 37 90 44 118 15 28 -28 -2 -105 -67 -170z m2128 -303 c-27 -234 -67 -560 -89 -725 -23 -165 -48 -367 -57 -450 -10 -82 -59 -15 -111 150 -156 500 27 1431 284 1448 13 1 1 -189 -27 -423z m1612 -18 c-31 -114 18 -415 108 -670 102 -285 134 -534 84 -650 -77 -179 -83 -178 -124 13 -24 110 -111 253 -194 318 -84 65 -123 165 -89 221 35 57 11 188 -54 291 -73 117 -91 329 -47 561 60 319 92 355 221 248 89 -74 128 -210 95 -332z m1386 -32 c-40 -261 -86 -632 -102 -825 -43 -507 -377 -1800 -466 -1800 -119 0 -89 337 69 785 87 247 107 433 50 468 -52 32 -95 212 -95 400 0 248 37 326 138 288 198 -76 283 572 93 711 -191 139 -62 448 188 448 179 0 191 -44 125 -475z m-15644 -348 c0 -170 -27 -284 -59 -251 -92 92 -112 668 -21 612 44 -27 80 -190 80 -361z m10054 230 c-36 -59 -110 -107 -164 -107 -54 0 -40 63 31 140 144 156 236 133 133 -33z m546 99 c0 -136 -176 -225 -240 -122 -60 97 26 216 157 216 46 0 83 -42 83 -94z m370 -862 c156 60 183 -399 30 -494 -134 -83 -127 -712 13 -1099 95 -263 79 -389 -102 -800 -168 -379 -242 -460 -336 -366 -92 92 -93 164 -4 306 68 109 114 579 111 1138 -3 524 25 1002 62 1062 43 70 -42 109 -238 109 -168 0 -306 45 -306 100 0 55 45 100 100 100 55 0 100 64 100 142 0 247 246 242 345 -8 54 -135 153 -218 225 -190z m-10591 -420 c35 -903 -57 -1687 -182 -1561 -94 95 -5 2338 93 2336 33 -1 73 -349 89 -775z m9821 620 c0 -24 -70 -44 -156 -44 -86 0 -128 46 -93 102 57 92 249 48 249 -58z m2900 -32 c0 -48 -67 -144 -150 -212 -163 -135 -183 -103 -89 142 64 167 239 219 239 70z m-3700 -262 c0 -137 -45 -250 -100 -250 -112 0 -137 330 -33 433 110 111 133 79 133 -183z m-15803 -650 c0 -327 -27 -409 -97 -300 -53 83 -97 353 -97 600 0 327 27 409 97 300 53 -82 97 -352 97 -600z m6333 -630 c-33 -700 -82 -1252 -108 -1225 -89 89 -93 2105 -5 2344 49 131 108 220 131 197 23 -24 15 -615 -18 -1316z m10160 1092 c63 -75 102 -267 87 -425 -15 -158 11 -728 58 -1267 63 -733 130 -1023 263 -1150 99 -94 213 -371 253 -618 67 -406 59 -435 -88 -312 -90 74 -163 200 -163 279 0 175 -240 431 -404 431 -75 0 -102 -111 -75 -300 25 -165 12 -300 -27 -300 -152 0 -159 523 -14 965 126 382 131 518 29 774 -164 409 -272 2061 -135 2061 56 0 153 -62 216 -138z m3773 -87 c-33 -124 -61 -259 -62 -300 0 -41 -46 -75 -101 -75 -55 0 -100 135 -100 300 0 210 49 300 162 300 119 0 145 -60 101 -225z m-2363 -51 c0 -96 -42 -321 -93 -498 -102 -358 2 -506 194 -275 155 187 274 188 456 6 171 -171 84 -467 -115 -390 -301 115 -428 -36 -344 -407 67 -299 50 -363 -108 -413 -299 -95 -385 21 -282 379 51 178 64 535 30 794 -68 514 10 980 164 980 54 0 98 -79 98 -176z m450 -225 c-65 -104 -350 -139 -350 -42 0 31 50 150 112 266 101 188 121 192 205 42 52 -92 66 -211 33 -266z m-18896 14 c-32 -103 -12 -311 46 -464 161 -424 33 -422 -144 2 -198 473 -197 649 1 649 107 0 138 -59 97 -187z m19528 19 c-43 -223 -220 -228 -263 -7 -21 109 28 175 131 175 100 0 152 -66 132 -168z m690 88 c67 -43 112 -211 100 -374 -22 -296 38 -329 428 -233 122 30 145 -69 124 -538 -15 -337 16 -575 75 -575 154 0 120 -633 -70 -1319 -130 -467 -142 -627 -50 -657 174 -58 150 -344 -78 -922 -110 -279 -229 -753 -264 -1054 -67 -571 -113 -631 -324 -423 -101 100 -153 89 -260 -56 -91 -123 -156 -145 -203 -68 -39 62 -54 121 -35 131 481 252 625 466 318 471 -164 3 -167 16 -24 125 368 281 781 1653 466 1547 -69 -24 -126 -129 -127 -234 -4 -293 -149 -641 -267 -641 -169 0 -7 597 255 942 151 197 262 521 309 901 41 327 115 701 164 831 59 155 56 216 -9 176 -58 -36 -104 77 -111 269 -17 544 -34 629 -138 681 -55 28 -138 -164 -186 -425 -122 -669 -259 -591 -222 127 28 550 -60 814 -218 656 -34 -34 -65 -691 -68 -1460 -5 -1055 24 -1398 118 -1398 69 0 125 110 125 244 0 134 45 272 100 306 178 110 108 -536 -100 -924 -110 -205 -200 -425 -200 -488 0 -63 -67 -244 -149 -402 -83 -157 -150 -365 -150 -461 -1 -96 -52 -175 -114 -175 -111 0 -51 1016 79 1357 31 79 9 143 -47 143 -156 0 -402 -862 -477 -1675 -63 -678 -55 -725 130 -725 108 0 246 101 306 225 77 159 110 178 115 63 10 -241 -380 -688 -600 -688 -138 0 -193 70 -193 244 0 134 -46 272 -101 307 -62 38 -67 124 -14 219 48 86 65 352 38 591 -34 304 1 511 118 689 147 225 149 260 12 312 -191 74 -201 238 -14 238 153 0 261 210 261 508 0 106 45 192 100 192 55 0 100 -68 100 -150 0 -82 45 -150 100 -150 55 0 131 -11 168 -25 64 -23 62 173 -17 1800 -17 344 10 651 59 681 50 31 90 172 90 313 0 381 215 1031 341 1029 60 0 164 -36 231 -78z m1041 -164 c7 52 41 -63 75 -256 82 -464 254 -446 293 31 19 220 94 404 180 437 243 93 249 -7 37 -624 -216 -627 -202 -844 56 -844 104 0 142 -61 110 -175 -26 -96 -152 -637 -279 -1201 -223 -988 -400 -1251 -467 -691 -17 147 17 267 75 267 59 0 108 79 110 175 2 96 69 262 150 369 342 451 62 1538 -362 1403 -170 -54 -180 -32 -91 203 107 281 38 750 -111 750 -49 0 -88 101 -86 225 3 219 7 220 150 31 81 -107 153 -152 160 -100z m2287 32 c0 -178 -25 -192 -150 -88 -82 68 -150 164 -150 212 0 49 68 88 150 88 86 0 150 -90 150 -212z m-7700 -38 c-68 -82 -137 -150 -152 -150 -14 0 -53 68 -84 150 -40 104 7 150 151 150 175 0 189 -25 85 -150z m388 -901 c138 -496 142 -749 12 -749 -55 0 -100 93 -100 207 0 113 -39 282 -86 375 -47 92 -113 345 -147 560 -53 350 -45 372 75 200 74 -106 185 -373 246 -593z m-588 101 c0 -137 -50 -250 -111 -250 -68 0 -81 -67 -33 -175 76 -173 201 -988 307 -2000 32 -302 15 -525 -39 -525 -52 0 -123 371 -157 825 -68 889 -148 1275 -263 1275 -41 0 -122 -101 -181 -225 -89 -188 -98 -159 -51 175 31 220 98 454 150 521 53 66 65 169 28 229 -99 160 20 400 197 400 97 0 153 -92 153 -250z m-15040 -223 c-33 -33 -56 26 -52 131 5 117 28 141 60 61 29 -72 26 -159 -8 -192z m14340 -121 c0 -52 -45 -122 -100 -156 -55 -34 -100 8 -100 94 0 86 45 156 100 156 55 0 100 -42 100 -94z m4150 -856 c0 -467 -27 -850 -61 -850 -76 0 -194 1510 -127 1620 136 219 188 4 188 -770z m-8051 -340 c-215 -435 -420 -907 -456 -1051 -36 -143 -112 -290 -169 -325 -172 -106 8 449 434 1341 217 454 436 825 487 825 52 0 -81 -356 -296 -790z m-9606 359 c-7 -211 -10 -212 -93 -19 -118 275 -118 373 0 300 55 -34 97 -160 93 -281z m15134 -319 c-105 -80 -107 -215 -14 -679 91 -454 89 -630 -9 -813 -69 -129 -95 -330 -58 -446 40 -126 24 -212 -39 -212 -59 0 -111 56 -115 125 -5 69 -26 639 -47 1267 -33 990 -15 1158 134 1268 149 110 178 91 224 -142 32 -160 1 -308 -76 -368z m4842 74 c-25 -96 -45 6 -44 226 1 220 22 298 46 174 24 -125 23 -305 -2 -400z m-14069 376 c0 -55 -48 -100 -106 -100 -58 0 -78 45 -44 100 34 55 82 100 106 100 24 0 44 -45 44 -100z m7136 -250 c-61 -159 -236 -208 -236 -67 0 106 109 217 214 217 44 0 54 -68 22 -150z m3850 -25 c138 -260 257 -1725 140 -1725 -53 0 -126 345 -161 767 -69 806 -123 963 -258 744 -106 -172 -249 34 -169 244 77 199 335 182 448 -30z m-3486 -105 c0 -99 53 -233 118 -298 65 -65 87 -151 48 -190 -122 -121 -480 316 -409 500 85 223 243 215 243 -12z m1129 -20 c29 -110 12 -175 -38 -144 -50 31 -91 121 -91 200 0 207 68 177 129 -56z m-10036 -1493 c-138 -675 -459 -1283 -723 -1367 -282 -89 -412 172 -179 360 312 252 531 800 320 800 -49 0 -118 -112 -152 -250 -71 -281 -305 -334 -399 -89 -81 211 117 942 315 1165 87 96 124 209 82 250 -132 131 -415 -336 -554 -913 -121 -505 -118 -581 34 -748 145 -161 148 -203 25 -305 -230 -191 -383 689 -216 1244 179 593 608 1127 936 1165 227 26 295 -29 446 -362 154 -340 163 -470 65 -950z m8262 1093 c176 0 178 -44 25 -468 -157 -432 -303 -426 -266 13 17 189 -2 377 -42 416 -40 40 -71 144 -69 231 3 134 19 131 105 -17 56 -96 167 -175 247 -175z m-7155 -32 c0 -66 -90 -176 -200 -245 -232 -145 -241 -122 -85 219 112 247 285 263 285 26z m-5014 -226 c60 -133 80 -242 43 -242 -93 0 -529 419 -529 508 0 167 384 -44 486 -266z m15974 -115 c-33 -33 -56 26 -52 131 5 117 28 141 60 61 29 -72 26 -159 -8 -192z m-5321 -445 c-150 -237 -262 -447 -248 -465 14 -19 -1 -60 -33 -92 -32 -32 -58 -1 -58 69 0 178 543 1126 581 1013 17 -51 -92 -287 -242 -525z m2620 -582 c102 0 140 -85 120 -275 -20 -192 13 -266 109 -246 190 41 64 -592 -140 -706 -81 -46 -148 -212 -148 -370 0 -449 -96 -630 -262 -493 -180 149 -174 333 22 747 162 342 157 562 -36 1716 -59 351 -52 559 19 631 76 76 116 -53 137 -448 22 -412 68 -556 179 -556z m7041 800 c0 -55 64 -100 143 -100 113 0 124 -66 53 -314 -123 -428 -155 -442 -346 -150 -99 151 -140 337 -102 459 67 209 252 286 252 105z m-7645 -966 c-92 -368 -230 -274 -279 191 -59 558 132 838 253 371 47 -180 58 -433 26 -562z m711 441 c-28 -69 -50 -12 -50 125 0 138 22 194 50 125 28 -69 28 -181 0 -250z m-2519 -150 c-35 -206 -127 -545 -205 -752 -78 -207 -142 -534 -142 -725 0 -438 -167 -452 -279 -23 -84 320 -87 322 -207 100 -163 -303 -414 -291 -414 19 0 134 49 274 108 311 60 37 196 208 304 381 195 312 196 313 131 39 -76 -324 109 -382 210 -66 113 357 454 1091 506 1091 28 0 22 -169 -12 -375z m4240 -335 c-325 -206 -534 230 -221 461 164 120 194 107 271 -120 63 -183 49 -278 -50 -341z m752 352 c34 -87 61 -242 61 -345 0 -103 66 -224 147 -270 203 -113 93 -754 -157 -910 -176 -110 -190 -86 -190 320 0 241 -64 619 -142 841 -79 222 -116 430 -84 463 112 111 305 59 365 -99z m3721 -372 c-53 -283 -109 -345 -311 -345 -215 0 -239 33 -184 263 83 352 343 644 465 522 52 -52 66 -250 30 -440z m739 -245 c0 -151 -50 -453 -110 -671 -98 -352 -125 -377 -236 -225 -69 94 -172 171 -230 171 -178 0 -15 379 186 431 126 33 191 139 191 310 0 142 45 259 100 259 55 0 100 -124 99 -275z m-4936 -417 c113 -422 70 -1008 -74 -1008 -49 0 -89 106 -89 236 0 130 -29 445 -64 700 -77 568 82 618 227 72z m-13263 93 c80 -150 68 -273 -47 -495 -84 -163 -218 -546 -298 -851 -173 -666 -81 -1043 375 -1527 l303 -321 -484 -979 c-599 -1210 -881 -1576 -1424 -1849 -407 -206 -612 -476 -250 -330 96 39 242 97 325 131 111 45 99 -14 -49 -235 -109 -162 -321 -535 -472 -828 -405 -791 -932 -1124 -1259 -797 -197 197 -139 261 230 250 193 -5 407 50 475 124 103 109 81 122 -122 73 -374 -91 -665 20 -794 304 -64 140 -102 269 -85 286 17 18 190 -4 383 -47 371 -84 724 -3 845 194 53 85 7 96 -164 39 -332 -108 -684 -69 -953 108 -281 184 -219 501 68 347 205 -109 796 -131 1039 -37 299 114 158 220 -226 169 -249 -34 -495 6 -700 112 -335 173 -364 228 -228 442 71 112 139 107 394 -25 401 -207 546 -201 832 38 266 221 212 256 -145 93 -374 -170 -1124 251 -1003 565 35 92 130 97 380 20 346 -106 854 -36 854 118 0 48 -87 66 -193 38 -274 -72 -907 157 -907 327 0 170 140 181 416 33 213 -114 684 -47 684 97 0 46 -103 65 -229 40 -133 -25 -329 37 -465 147 -185 150 -222 249 -169 459 57 229 106 259 323 205 277 -70 768 134 678 281 -31 49 -120 36 -200 -30 -108 -90 -205 -92 -391 -7 -204 93 -247 184 -247 522 l0 410 263 -208 c268 -210 537 -273 537 -126 0 45 -135 181 -300 303 -187 139 -300 311 -300 460 0 221 21 231 285 131 167 -63 364 -73 475 -24 184 81 183 85 -10 121 -110 20 -312 129 -450 241 -244 199 -245 203 -25 155 250 -55 311 105 75 196 -83 31 -150 120 -150 197 0 161 159 186 250 39 66 -106 450 -141 450 -41 0 32 -101 148 -225 258 l-225 198 225 -48 c124 -27 225 -11 225 34 0 46 27 165 59 266 46 139 36 150 -38 45 -55 -77 -153 -104 -221 -62 -69 42 -161 15 -210 -62 -51 -81 -88 -91 -88 -25 -4 294 896 583 1048 337 89 -144 559 -117 850 50 138 79 260 145 271 146 12 2 70 -86 129 -195z m5809 -332 c-79 -79 -109 -53 -109 94 0 265 140 405 184 185 19 -93 -14 -218 -75 -279z m11491 -469 c0 -742 -147 -957 -223 -325 -42 349 75 1025 178 1025 25 0 45 -315 45 -700z m-15600 450 c0 -82 -18 -150 -39 -150 -22 0 -66 68 -97 150 -32 83 -14 150 39 150 53 0 97 -67 97 -150z m15100 -139 c0 -98 -29 -206 -64 -242 -122 -122 -209 28 -161 277 53 276 225 249 225 -35z m-16551 -535 c-236 -807 -395 -984 -314 -349 64 494 336 1135 438 1033 33 -32 -23 -340 -124 -684z m10298 549 c-119 -600 -160 -725 -237 -725 -101 0 -311 765 -231 845 30 30 155 55 278 55 160 0 214 -50 190 -175z m1251 -483 c-99 -439 -141 -485 -369 -397 -162 63 -164 80 -19 188 89 65 193 219 232 342 116 366 244 256 156 -133z m-10637 100 c-34 -87 -61 -290 -61 -450 0 -161 -45 -292 -100 -292 -55 0 -100 132 -100 294 0 162 -45 322 -100 356 -187 116 -101 250 161 250 196 0 245 -39 200 -158z m437 -117 c-1 -214 -22 -242 -98 -125 -126 196 -126 400 0 400 55 0 99 -124 98 -275z m12393 -10 c-148 -51 -223 52 -139 189 54 87 95 82 157 -18 50 -80 42 -151 -18 -171z m3820 -144 c-81 -81 -111 -70 -111 42 0 199 134 334 184 185 21 -64 -12 -166 -73 -227z m-3611 -282 c0 -49 -67 -89 -150 -89 -82 0 -150 66 -150 147 0 89 59 124 150 89 83 -31 150 -98 150 -147z m-13600 -396 c0 -278 49 -598 109 -710 79 -148 79 -235 0 -314 -79 -79 -109 -61 -109 64 0 95 -79 201 -175 236 -391 139 -412 221 -195 735 115 273 246 496 290 496 44 0 80 -228 80 -507z m15805 282 c133 -159 172 -317 133 -539 -31 -175 -9 -342 51 -379 126 -78 35 -942 -120 -1138 -190 -241 -284 144 -302 1236 -9 575 -2 1045 17 1045 19 0 118 -101 221 -225z m-405 -875 c0 -55 -48 -100 -106 -100 -58 0 -78 45 -44 100 34 55 82 100 106 100 24 0 44 -45 44 -100z m-7900 -356 c0 -145 -43 -229 -100 -194 -55 34 -100 149 -100 256 0 107 45 194 100 194 55 0 100 -115 100 -256z m-409 -544 c-3 -99 -34 -82 -91 50 -118 275 -118 433 0 250 53 -82 94 -217 91 -300z m-4191 0 c0 -55 -48 -100 -106 -100 -58 0 -78 45 -44 100 34 55 82 100 106 100 24 0 44 -45 44 -100z m-2103 -395 c111 -217 281 -442 377 -500 168 -100 168 -110 1 -210 -316 -190 -188 -489 515 -1198 863 -872 1121 -917 1534 -263 296 469 851 835 1113 735 243 -93 206 -721 -86 -1465 -325 -830 -479 -1055 -928 -1347 -723 -472 -2534 -955 -2788 -745 -101 84 -175 79 -293 -19 -105 -86 -566 -143 -1370 -167 -1472 -45 -1672 -7 -1672 323 0 303 456 1301 769 1684 127 155 231 321 231 368 0 48 203 383 452 747 249 363 607 995 797 1406 289 626 383 746 585 746 133 0 298 68 366 150 169 203 169 203 397 -245z m3665 -308 c-144 -172 -289 -421 -323 -555 -33 -133 -100 -242 -149 -242 -48 0 -322 -233 -608 -518 -593 -590 -733 -505 -319 194 206 349 290 426 317 293 55 -267 249 -150 341 206 75 288 854 1083 959 979 25 -25 -73 -186 -218 -357z m-2602 30 c-33 -33 -56 26 -52 131 5 117 28 141 60 61 29 -72 26 -159 -8 -192z m752 6 c-118 -203 -146 -138 -50 113 35 90 84 142 110 116 25 -26 -1 -129 -60 -229z m483 92 c-2 -41 -135 -322 -295 -625 -182 -344 -292 -475 -296 -350 -5 224 404 1050 521 1050 41 0 73 -34 70 -75z m805 -19 c0 -118 -195 -244 -267 -173 -71 72 55 267 173 267 52 0 94 -42 94 -94z m973 -379 c-147 -146 -296 -238 -331 -203 -35 35 57 184 203 331 147 146 296 238 331 203 35 -35 -57 -184 -203 -331z m-1697 -326 c-178 -212 -342 -368 -365 -346 -79 80 498 851 593 792 53 -32 -49 -233 -228 -446z m-1109 83 c-67 -255 85 -584 270 -584 77 0 130 -121 130 -300 0 -365 -91 -380 -307 -51 -218 333 -333 1151 -162 1151 79 0 105 -80 69 -216z m4531 -59 c-2 -254 -158 -462 -287 -382 -122 76 -150 385 -44 490 130 131 333 64 331 -108z m-1452 -1351 c34 -398 22 -926 -27 -1174 l-90 -450 -165 372 c-90 204 -164 464 -164 577 0 374 241 1487 313 1443 39 -24 98 -369 133 -768z m-10746 506 c0 -162 -30 -190 -111 -109 -61 61 -81 160 -44 220 103 168 155 130 155 -111z m330 -772 c-89 -124 -169 216 -129 542 15 121 52 61 92 -150 36 -192 53 -369 37 -392z m11486 -86 l-80 -372 -74 475 c-82 527 19 851 152 489 45 -121 46 -387 2 -592z m4356 -996 c-23 -152 -43 -51 -43 224 -1 275 18 399 41 276 24 -123 25 -348 2 -500z m-12 -699 c-33 -33 -56 26 -52 131 5 117 28 141 60 61 29 -72 26 -159 -8 -192z m-13943 -322 c340 97 374 -23 54 -194 -259 -138 -830 12 -720 190 38 63 124 67 222 12 88 -49 288 -53 444 -8z m8976 -830 c-5 -498 -34 -662 -93 -525 -121 281 -121 1250 0 1250 58 0 97 -304 93 -725z m-8873 305 c-64 -64 -150 -83 -190 -43 -41 41 -9 114 70 163 187 115 271 31 120 -120z m20380 -430 c0 -137 34 -250 75 -250 41 0 75 -461 75 -1024 0 -917 -19 -1027 -185 -1059 -162 -31 -179 13 -130 349 131 892 171 1477 96 1384 -142 -176 -331 -156 -331 35 0 274 206 815 310 815 49 0 90 -112 90 -250z m-7969 -1574 c-30 -150 -94 -249 -142 -219 -105 65 -119 479 -21 578 125 124 217 -81 163 -359z m4069 -238 c0 -247 -40 -425 -89 -395 -116 72 -238 732 -159 860 125 203 248 -27 248 -465z m4860 15 c-36 -144 -110 -234 -163 -201 -111 68 -131 480 -29 583 131 130 257 -122 192 -382z m-5627 -328 c36 -187 21 -325 -35 -325 -54 0 -98 165 -98 367 0 428 46 414 133 -42z m5167 75 c0 -55 -48 -100 -106 -100 -58 0 -78 45 -44 100 34 55 82 100 106 100 24 0 44 -45 44 -100z"/>
<path d="M7724 37922 c-291 -272 -724 -1005 -724 -1226 0 -236 245 -18 324 290 46 177 264 496 484 710 452 439 373 653 -84 226z"/>
<path d="M8091 37692 c-427 -461 -756 -992 -614 -992 119 0 1146 1310 1079 1377 -31 31 -240 -142 -465 -385z"/>
<path d="M6154 34986 c-329 -390 -331 -955 -4 -906 315 47 750 581 750 922 0 248 -40 298 -241 298 -148 0 -344 -122 -505 -314z m546 -64 c0 -186 -317 -509 -450 -458 -123 47 -118 92 28 293 165 227 422 328 422 165z"/>
<path d="M5414 37038 c-265 -185 -1014 -1296 -1014 -1504 0 -169 293 -177 345 -9 21 69 64 238 96 375 31 138 213 430 404 650 406 467 465 438 105 -50 -137 -186 -250 -398 -250 -469 0 -219 199 -146 296 108 50 131 240 409 422 618 294 335 307 372 112 321 -121 -31 -234 -16 -251 34 -16 50 -136 17 -265 -74z"/>
<path d="M4169 34017 c-278 -291 -425 -726 -331 -973 95 -247 625 118 797 549 242 606 -45 867 -466 424z m276 -342 c-143 -476 -408 -510 -289 -37 36 144 131 262 212 262 104 0 126 -63 77 -225z"/>
<path d="M10880 37592 c-329 -245 -713 -847 -650 -1017 26 -72 91 -13 150 136 57 143 232 359 387 479 156 120 396 305 533 411 228 176 233 192 50 193 -110 0 -321 -91 -470 -202z"/>
<path d="M8262 35597 c-295 -352 -333 -614 -113 -796 213 -177 591 -50 754 254 120 224 119 297 -7 520 -209 371 -336 375 -634 22z m404 -254 c84 -217 -128 -421 -279 -270 -128 128 -49 427 113 427 58 0 133 -71 166 -157z"/>
<path d="M3306 35850 c-124 -275 -273 -612 -331 -750 -88 -206 -114 -219 -148 -74 -23 97 53 330 169 517 207 336 137 587 -89 316 -175 -211 -601 -1851 -497 -1915 50 -31 134 59 188 200 53 141 144 256 202 256 57 0 155 124 216 275 61 151 220 517 353 813 132 296 223 611 202 700 -24 100 -126 -30 -265 -338z"/>
<path d="M2300 32252 c0 -81 -90 -295 -200 -475 -344 -564 -204 -934 242 -641 384 251 465 1264 101 1264 -79 0 -143 -66 -143 -148z"/>
<path d="M5340 32745 c-57 -228 4 -443 96 -337 101 118 156 592 68 592 -55 0 -129 -115 -164 -255z"/>
<path d="M6987 31825 c-216 -262 -463 -858 -413 -1000 76 -220 199 -134 263 183 34 170 152 436 262 591 111 155 201 309 201 341 0 119 -172 56 -313 -115z"/>
<path d="M16718 30875 c-63 -124 -189 -326 -279 -450 -90 -124 -117 -225 -60 -225 57 0 217 202 355 450 139 248 217 450 175 450 -42 0 -128 -101 -191 -225z"/>
<path d="M17095 30542 c-170 -275 -238 -561 -267 -1128 -37 -720 67 -956 138 -311 18 166 127 488 243 714 173 340 182 401 50 350 -198 -76 -198 -33 -2 347 228 441 106 462 -162 28z"/>
<path d="M12893 30225 c-151 -463 -560 -1066 -1030 -1516 -195 -187 -327 -386 -293 -441 89 -144 883 784 1247 1457 307 568 483 721 483 420 0 -231 -280 -740 -677 -1230 -282 -348 -325 -453 -213 -523 286 -181 494 -79 880 433 552 732 752 1275 469 1275 -85 0 -167 -149 -206 -375 -39 -228 -219 -552 -456 -825 -434 -499 -538 -422 -148 110 505 689 715 1485 374 1415 -68 -14 -123 20 -123 75 0 242 -195 67 -307 -275z"/>
<path d="M17562 29902 c-221 -552 -328 -1255 -177 -1161 156 96 144 -406 -32 -1291 -289 -1456 -272 -1333 -144 -1050 183 405 389 1226 390 1557 0 170 155 743 342 1275 188 533 307 968 264 968 -64 0 -295 -539 -460 -1075 -46 -150 -245 -168 -245 -23 0 57 87 349 192 650 221 627 111 752 -130 150z"/>
<path d="M16627 28039 c-62 -269 -143 -568 -181 -664 -37 -96 -25 -175 27 -175 111 0 373 1013 310 1201 -23 70 -93 -93 -156 -362z"/>
<path d="M16916 28275 c7 -124 -38 -492 -101 -818 -137 -710 -142 -857 -29 -857 47 0 112 281 145 625 33 344 90 771 127 950 44 212 28 325 -44 325 -62 0 -106 -101 -98 -225z"/>
<path d="M14373 25840 c-40 -41 -73 -142 -73 -227 0 -112 30 -123 111 -42 61 61 94 163 73 227 -21 63 -71 82 -111 42z"/>
<path d="M14662 25517 c-44 -127 -54 -259 -21 -291 104 -104 176 49 138 290 l-36 234 -81 -233z"/>
<path d="M16575 25009 c-151 -320 -273 -644 -272 -720 2 -76 81 23 175 221 95 199 223 424 285 500 154 191 269 591 169 585 -45 -3 -206 -267 -357 -586z"/>
<path d="M15176 25300 c-111 -379 -97 -561 32 -432 59 59 93 237 74 395 l-33 287 -73 -250z"/>
<path d="M15542 24750 c-55 -302 -72 -550 -37 -550 111 0 295 500 295 805 0 483 -150 335 -258 -255z"/>
<path d="M15888 24296 c-86 -332 -122 -625 -80 -651 80 -50 235 386 330 930 98 558 -84 355 -250 -279z"/>
<path d="M12659 22990 c-270 -270 -463 -520 -428 -555 35 -35 128 -10 207 55 106 88 152 89 181 4 21 -63 165 118 319 402 155 285 266 533 247 551 -19 19 -256 -187 -526 -457z"/>
<path d="M13003 22535 c-113 -256 -182 -489 -154 -517 63 -63 56 -74 327 507 122 261 179 475 127 475 -51 0 -186 -209 -300 -465z"/>
<path d="M15361 22742 c-110 -285 -58 -396 92 -198 81 107 147 231 147 275 0 143 -177 86 -239 -77z"/>
<path d="M13437 22482 c-108 -170 -537 -1087 -537 -1148 0 -176 251 177 457 641 227 514 274 814 80 507z"/>
<path d="M15064 21936 c-95 -198 -149 -385 -120 -414 30 -29 124 117 211 323 86 207 140 394 119 415 -21 20 -116 -125 -210 -324z"/>
<path d="M10432 21740 c-33 -88 -5 -195 64 -238 131 -80 57 -502 -88 -502 -43 0 -56 -340 -29 -756 74 -1159 -372 -3705 -726 -4144 -66 -82 -178 -420 -248 -750 -70 -330 -240 -841 -379 -1136 -201 -429 -224 -553 -118 -619 160 -99 292 -32 292 149 0 72 62 183 138 246 117 97 124 45 44 -331 -95 -442 8 -859 212 -859 47 0 182 315 299 700 117 385 257 700 312 700 121 0 54 -299 -302 -1350 -355 -1046 -426 -1350 -317 -1350 152 0 922 2436 1218 3850 526 2521 692 4919 409 5923 -155 548 -639 837 -781 467z m220 -3437 c-85 -164 -243 -739 -350 -1276 -314 -1575 -598 -2457 -852 -2648 l-228 -171 239 705 c132 389 239 755 239 814 0 59 59 178 131 265 170 204 452 1354 567 2308 50 413 149 1178 221 1700 l131 950 28 -1174 c22 -906 -7 -1242 -126 -1473z m421 397 c-59 -1536 -572 -4300 -797 -4300 -103 0 -98 50 65 693 409 1607 594 3085 584 4657 -5 766 9 848 95 550 58 -198 81 -892 53 -1600z m-436 -1425 c-363 -2041 -816 -3776 -1049 -4022 -139 -147 -8 476 315 1497 156 495 336 1170 398 1500 150 786 296 1350 350 1350 24 0 18 -146 -14 -325z"/>
<path d="M13230 21332 c-359 -610 -484 -932 -362 -931 96 0 790 1376 726 1435 -24 23 -188 -205 -364 -504z"/>
<path d="M13711 21342 c-212 -271 -248 -406 -215 -814 9 -122 -148 -517 -350 -878 -224 -402 -347 -736 -315 -858 29 -110 -73 -480 -227 -821 -348 -775 -441 -1071 -335 -1071 80 0 162 169 438 900 134 355 287 650 689 1325 123 206 183 375 134 375 -50 0 -189 -169 -308 -375 -345 -595 -257 -190 128 589 193 389 350 850 350 1025 0 174 72 419 160 545 230 329 103 378 -149 58z"/>
<path d="M14645 21053 c-80 -191 -145 -372 -145 -403 0 -31 -360 -799 -800 -1706 -817 -1685 -894 -1892 -675 -1819 69 23 125 85 125 138 0 76 676 1587 1561 3487 115 248 195 650 128 650 -27 0 -114 -156 -194 -347z"/>
<path d="M7990 13538 c-116 -139 -108 -156 55 -125 104 21 207 93 230 162 59 178 -126 155 -285 -37z"/>
<path d="M18812 29356 c-135 -538 -139 -625 -22 -501 97 103 258 945 181 945 -26 0 -98 -200 -159 -444z"/>
<path d="M19363 29518 c-45 -183 -55 -359 -23 -392 114 -113 174 56 140 389 l-34 335 -83 -332z"/>
<path d="M18668 28562 c-37 -98 -65 -253 -62 -345 5 -111 39 -85 103 74 53 133 81 288 62 345 -19 57 -65 24 -103 -74z"/>
<path d="M20008 27625 c-210 -788 -243 -1225 -92 -1225 104 0 141 143 141 549 0 301 55 603 122 670 145 145 160 381 25 381 -53 0 -141 -169 -196 -375z"/>
<path d="M19444 27025 c-34 -151 -77 -328 -96 -393 -20 -64 20 -164 89 -221 97 -81 127 7 132 393 9 555 -35 632 -125 221z"/>
<path d="M17400 24350 c-132 -159 -34 -195 241 -90 87 34 133 101 103 150 -81 132 -203 110 -344 -60z"/>
<path d="M17563 23802 c-145 -219 -259 -477 -255 -575 5 -97 98 17 207 254 108 236 262 455 341 485 156 60 199 234 57 234 -47 0 -205 -179 -350 -398z"/>
<path d="M17100 24000 c0 -55 20 -100 44 -100 24 0 72 45 106 100 34 55 14 100 -44 100 -58 0 -106 -45 -106 -100z"/>
<path d="M18103 23804 c-120 -169 -201 -359 -180 -422 21 -63 139 56 262 264 275 467 217 578 -82 158z"/>
<path d="M18824 23833 c-148 -59 -368 -434 -253 -430 44 2 160 114 259 250 98 136 166 243 150 239 -17 -4 -87 -31 -156 -59z"/>
<path d="M19046 23693 c-108 -174 15 -211 152 -45 79 95 86 152 20 152 -58 0 -136 -48 -172 -107z"/>
<path d="M16703 23408 c-67 -164 -103 -356 -79 -428 24 -71 100 42 170 252 152 460 83 595 -91 176z"/>
<path d="M16254 19427 c-266 -390 -324 -627 -154 -627 55 0 100 87 100 193 0 106 56 252 125 325 292 310 396 482 291 482 -60 0 -223 -168 -362 -373z"/>
<path d="M16843 19553 c-89 -136 -145 -297 -125 -358 21 -61 114 50 208 247 197 413 153 471 -83 111z"/>
<path d="M15556 19066 c-203 -317 -353 -677 -349 -836 7 -269 12 -266 140 81 73 199 253 552 400 784 147 233 244 447 216 475 -28 29 -212 -198 -407 -504z"/>
<path d="M15230 19175 c-344 -378 -715 -1009 -779 -1325 -41 -201 34 -109 224 278 157 317 433 733 614 925 180 191 286 347 237 347 -50 0 -183 -101 -296 -225z"/>
<path d="M14198 17243 c-129 -337 -124 -468 15 -422 103 34 219 679 123 679 -23 0 -85 -115 -138 -257z"/>
<path d="M1507 27175 c4 -69 91 -305 193 -525 219 -473 268 -206 55 303 -146 350 -261 453 -248 222z"/>
<path d="M602 27931 c0 -45 45 -148 98 -231 84 -129 97 -127 98 19 1 93 -43 197 -98 231 -55 34 -99 25 -98 -19z"/>
<path d="M4924 20559 c65 -583 668 -1796 915 -1843 182 -35 181 -25 -11 249 -253 362 -728 1553 -728 1827 0 114 -51 208 -113 208 -74 0 -96 -150 -63 -441z"/>
<path d="M3300 19013 c0 -190 404 -985 583 -1147 170 -155 405 -615 555 -1091 31 -96 124 -175 206 -175 123 0 132 51 48 275 -247 655 -850 1749 -1014 1837 -98 52 -178 161 -178 242 0 80 -45 146 -100 146 -55 0 -100 -39 -100 -87z"/>
<path d="M4117 14134 c20 -100 114 -197 209 -215 242 -47 218 150 -35 286 -179 96 -204 85 -174 -71z"/>
<path d="M4275 9031 c-180 -47 -247 -231 -83 -231 173 0 408 121 408 211 0 93 -37 95 -325 20z"/>
<path d="M4697 8096 c-81 -51 -291 -94 -466 -94 -327 -2 -512 -140 -335 -250 128 -79 876 121 960 257 93 151 12 195 -159 87z"/>
<path d="M4108 7201 c-429 -64 -541 -302 -141 -299 156 0 345 40 420 88 234 148 80 264 -279 211z"/>
<path d="M24496 51370 c-80 -121 -178 -299 -218 -395 -98 -240 -350 -220 -431 35 -46 144 -99 178 -170 107 -141 -141 -7 -617 175 -617 81 0 148 -63 148 -140 0 -77 135 -396 300 -710 165 -314 300 -651 300 -749 0 -98 86 -285 191 -415 l192 -236 8 1029 c9 1013 -94 1401 -433 1639 -61 42 -51 168 26 338 155 340 105 405 -88 114z m302 -1451 c-1 -146 -14 -148 -98 -19 -127 196 -127 328 0 250 55 -34 99 -138 98 -231z"/>
<path d="M23831 47355 c318 -290 548 -326 634 -101 78 202 63 212 -465 290 l-450 66 281 -255z"/>
<path d="M2950 43447 c-220 -79 -665 -145 -988 -145 -599 -2 -1362 -174 -1362 -307 0 -41 169 -30 375 25 206 54 637 91 957 82 320 -8 635 28 700 80 65 52 264 126 443 164 179 39 325 111 325 162 0 110 40 116 -450 -61z"/>
<path d="M1350 42847 c-55 -20 -296 -87 -535 -148 -239 -62 -412 -136 -383 -164 72 -72 1165 179 1228 282 52 83 -121 100 -310 30z"/>
<path d="M20131 40836 c-66 -27 -95 -113 -65 -191 41 -107 101 -116 247 -38 289 154 129 355 -182 229z"/>
<path d="M3700 40650 c-68 -82 -169 -150 -223 -150 -55 0 -488 -153 -963 -340 -475 -186 -1235 -442 -1689 -568 -454 -126 -825 -271 -825 -321 0 -51 71 -65 157 -32 87 33 458 134 825 223 1103 270 2926 1012 2995 1219 56 169 -129 148 -277 -31z"/>
<path d="M20046 40293 c-101 -164 -8 -200 336 -132 173 35 290 103 260 151 -76 124 -517 110 -596 -19z"/>
<path d="M24805 39856 c-66 -79 -240 -158 -387 -175 -379 -44 -241 -214 207 -256 359 -34 375 -22 375 270 0 344 -25 365 -195 161z"/>
<path d="M20300 39823 c0 -51 95 -178 210 -282 209 -189 210 -188 175 58 -32 230 -385 434 -385 224z"/>
<path d="M1947 39563 c-108 -75 -557 -259 -997 -409 -798 -272 -1036 -401 -931 -506 62 -62 164 -25 1406 508 481 207 875 414 875 460 0 122 -128 103 -353 -53z"/>
<path d="M23757 39111 c-65 -105 221 -366 308 -280 83 84 -37 369 -156 369 -53 0 -122 -40 -152 -89z"/>
<path d="M23400 38977 c0 -182 177 -333 276 -235 34 35 -14 139 -107 232 -156 156 -169 156 -169 3z"/>
<path d="M23113 38613 c41 -126 187 -155 187 -38 0 41 -51 92 -112 113 -62 20 -96 -14 -75 -75z"/>
<path d="M12759 37715 c-599 -376 -858 -649 -733 -774 38 -38 149 24 246 139 176 206 668 525 1103 716 240 106 308 309 100 297 -69 -4 -391 -174 -716 -378z"/>
<path d="M13200 37426 c-360 -235 -800 -649 -800 -752 0 -48 145 16 323 142 178 127 548 306 822 399 275 93 516 218 536 277 56 168 -598 119 -881 -66z"/>
<path d="M13914 37085 c-439 -126 -1064 -544 -1260 -842 l-155 -238 375 256 c400 271 1367 739 1529 739 53 0 97 45 97 100 0 119 -134 115 -586 -15z"/>
<path d="M14932 36324 c-119 -20 -271 -101 -337 -180 -66 -79 -173 -144 -238 -144 -177 0 -1057 -580 -1057 -698 0 -162 164 -120 550 141 197 134 570 322 829 417 259 95 514 211 566 257 139 122 -54 250 -313 207z"/>
<path d="M14647 35605 c-564 -256 -934 -551 -827 -658 26 -27 269 71 539 217 270 146 623 293 784 328 160 35 309 113 329 173 75 227 -247 203 -825 -60z"/>
<path d="M10376 35302 c-505 -397 -356 -1086 173 -803 264 142 598 744 500 902 -98 159 -402 114 -673 -99z m424 -232 c0 -144 -195 -370 -320 -370 -130 0 -91 379 45 434 212 85 275 71 275 -64z"/>
<path d="M1500 34950 c0 -82 -64 -150 -142 -150 -190 0 -580 -1276 -539 -1769 l31 -381 228 434 c125 238 276 666 335 950 59 284 168 612 242 730 130 206 102 336 -72 336 -45 0 -83 -67 -83 -150z"/>
<path d="M610 34150 c-206 -467 -413 -1946 -230 -1650 51 83 120 357 152 610 33 253 133 673 221 934 213 627 119 697 -143 106z"/>
<path d="M665 30625 c-205 -401 -279 -853 -168 -1025 166 -257 445 17 520 511 114 754 -83 1042 -352 514z"/>
<path d="M24933 27950 c-1 -385 17 -555 39 -377 22 177 23 492 1 700 -22 207 -40 62 -40 -323z"/>
<path d="M3 15645 c-2 -388 46 -754 106 -814 79 -79 79 -166 0 -314 -60 -112 -104 -556 -97 -985 6 -430 34 -693 61 -585 28 109 158 356 289 549 282 415 285 442 78 649 -88 89 -132 233 -97 323 70 182 253 6 1218 -1179 561 -688 649 -926 381 -1028 -224 -86 -242 -79 -242 89 0 250 -273 168 -500 -151 -284 -398 -230 -658 129 -620 335 35 335 -16 7 -941 -241 -678 -436 -1011 -436 -744 0 159 -374 127 -654 -56 -135 -88 -246 -239 -246 -333 0 -188 762 -1305 890 -1305 263 0 710 1196 577 1543 -30 77 10 165 89 196 79 30 144 126 144 213 0 87 66 285 146 441 221 426 554 1751 554 2202 0 301 -74 483 -305 745 -271 309 -829 1061 -1514 2040 -594 850 -574 848 -578 65z"/>
<path d="M2300 14098 c0 -57 69 -131 154 -163 235 -90 262 7 41 145 -123 77 -195 84 -195 18z"/>
<path d="M24400 13542 c0 -314 235 -279 282 41 21 144 -21 217 -125 217 -102 0 -157 -90 -157 -258z"/>
<path d="M2960 13316 c-35 -56 -15 -132 45 -169 154 -95 253 35 125 163 -72 72 -128 74 -170 6z"/>
<path d="M591 12817 c-237 -343 -247 -395 -113 -596 224 -337 422 -279 422 123 0 189 45 372 100 406 144 89 123 451 -25 446 -69 -2 -242 -173 -384 -379z"/>
<path d="M510 11047 c-388 -443 -401 -702 -39 -793 201 -51 306 -21 404 113 111 152 108 198 -19 291 -132 97 -133 134 -7 301 164 217 195 441 61 441 -49 0 -229 -159 -400 -353z"/>
<path d="M16644 10361 c-57 -228 214 -936 318 -832 79 79 -81 1071 -173 1071 -47 0 -112 -108 -145 -239z"/>
<path d="M16361 9842 c-112 -292 -62 -648 99 -710 230 -88 377 188 179 336 -101 76 -134 191 -91 325 76 240 -97 285 -187 49z"/>
<path d="M103 8425 c5 -126 455 -595 691 -722 378 -202 342 -39 -86 389 -381 381 -612 508 -605 333z"/>
<path d="M19361 7842 c-100 -259 -69 -825 48 -897 206 -128 338 131 198 391 -70 132 -98 336 -61 452 77 243 -94 293 -185 54z"/>
<path d="M22400 7156 c0 -196 -36 -356 -81 -356 -140 0 -354 -1805 -229 -1930 80 -80 110 74 110 560 0 369 38 670 84 670 46 0 79 -187 75 -415 -13 -589 198 -599 278 -14 40 287 26 491 -33 511 -60 20 -75 263 -39 612 40 382 22 602 -52 648 -76 47 -113 -47 -113 -286z"/>
<path d="M13065 7224 c-32 -51 -10 -265 48 -475 132 -480 24 -1441 -171 -1516 -194 -74 -179 -302 27 -418 180 -100 188 -45 -181 -1255 -48 -159 -88 -487 -88 -728 l0 -438 350 36 c429 44 515 121 355 314 -121 145 -126 327 -106 3449 5 864 -87 1270 -234 1031z"/>
<path d="M20900 6900 c0 -220 19 -400 43 -400 23 0 112 140 198 312 166 334 136 488 -97 488 -101 0 -144 -118 -144 -400z"/>
<path d="M21047 6080 c-39 -286 -70 -882 -68 -1323 4 -783 -88 -1157 -283 -1157 -53 0 -96 75 -96 167 0 263 -67 119 -145 -311 -61 -340 -51 -377 76 -272 128 107 142 15 104 -706 -56 -1080 -124 -1496 -235 -1428 -49 30 -72 358 -51 728 37 638 32 657 -101 372 -76 -165 -141 -379 -143 -477 -7 -273 -245 -973 -331 -973 -97 0 23 811 142 964 50 62 64 377 33 700 -31 322 -16 801 35 1063 50 262 55 499 11 526 -44 27 -109 -210 -144 -527 -34 -317 -105 -792 -157 -1056 -125 -640 -121 -1970 6 -1970 55 0 100 -90 100 -200 0 -110 45 -200 100 -200 55 0 100 176 100 392 0 439 85 729 193 662 40 -24 43 -272 8 -549 -76 -591 35 -671 179 -130 l99 375 11 -375 c5 -206 54 -375 108 -375 58 0 80 199 53 475 -61 626 69 835 235 377 89 -248 95 -401 19 -542 -145 -271 -134 -310 89 -310 235 0 347 154 238 325 -188 292 -236 1418 -109 2525 117 1017 162 3749 61 3750 -36 0 -97 -234 -137 -520z m-49 -3355 c-1 -451 -144 -744 -220 -453 -67 258 24 828 133 828 49 0 88 -169 87 -375z"/>
<path d="M20200 6156 c0 -196 17 -356 39 -356 82 0 123 612 44 660 -46 29 -83 -108 -83 -304z"/>
<path d="M21770 4532 c-39 -63 -96 -333 -126 -599 -30 -266 -95 -641 -144 -833 -97 -376 -216 -1833 -133 -1624 108 271 233 -15 233 -532 0 -299 45 -544 100 -544 113 0 121 713 19 1750 -38 385 -41 858 -7 1050 l62 350 13 -425 c7 -234 58 -425 113 -425 58 0 96 302 90 725 -11 805 -107 1290 -220 1107z"/>
<path d="M23116 4200 c0 -137 22 -194 50 -125 28 69 28 181 0 250 -28 69 -50 13 -50 -125z"/>
<path d="M16038 2240 c90 -1615 189 -2325 300 -2154 48 76 56 738 17 1480 -53 986 -40 1382 48 1488 96 115 83 157 -67 210 -102 37 -226 89 -275 116 -52 29 -62 -450 -23 -1140z"/>
<path d="M10118 1891 c-50 -132 -150 -478 -223 -767 -157 -619 -70 -786 330 -633 250 94 256 119 209 778 -54 755 -177 997 -316 622z"/>
<path d="M13243 1666 c-106 -272 160 -1566 322 -1566 165 0 75 1118 -121 1500 -117 227 -135 233 -201 66z"/>
<path d="M501 1203 c-59 -112 -86 -203 -59 -203 27 0 -16 -214 -96 -475 -79 -261 -144 -486 -145 -500 -1 -14 213 -24 474 -23 261 0 423 34 360 75 -63 40 -147 332 -187 649 -79 639 -183 782 -347 477z"/>
<path d="M8494 1383 c-3 -18 -23 -203 -45 -411 -22 -208 -135 -512 -251 -675 l-212 -297 707 0 c734 0 824 42 536 253 -94 69 -243 341 -332 605 -88 264 -213 497 -279 519 -65 22 -121 25 -124 6z"/>
<path d="M12600 856 c0 -299 48 -574 107 -610 161 -100 172 -44 118 579 -63 729 -225 752 -225 31z"/>
<path d="M3198 743 c-54 -141 -98 -366 -98 -500 0 -193 52 -243 250 -243 218 0 250 44 250 342 0 651 -223 873 -402 401z"/>
<path d="M23256 149 c-179 -138 -153 -149 345 -149 333 0 503 35 444 93 -182 178 -592 208 -789 56z"/>
</g>
</svg>