<svg xmlns="http://www.w3.org/2000/svg" version="1.0" width="250" height="525" viewBox="0 0 250.000000 525.000000" preserveAspectRatio="xMidYMid meet">
<metadata>
Created by potrace 1.10, written by Peter Selinger 2001-2011
</metadata>
<g transform="translate(0.000000,525.000000) scale(0.010000,-0.010000)" fill="#555555" stroke="none">
<path d="M1008 52159 c135 -229 179 -425 135 -600 -75 -300 -549 -732 -901 -820 -172 -43 -242 -130 -242 -300 0 -243 138 -320 250 -139 34 55 146 100 248 100 246 0 878 747 1012 1195 156 526 -13 905 -404 905 l-299 0 201 -341z"/>
<path d="M1717 50975 c-21 -1451 -33 -1532 -244 -1675 -506 -343 -951 -818 -1123 -1200 -173 -384 -174 -427 -17 -757 284 -596 151 -1343 -240 -1343 -169 0 -103 -720 77 -852 119 -87 163 -243 147 -519 -31 -536 257 -892 811 -1002 l422 -83 27 -1994 c15 -1097 3 -2058 -27 -2136 -44 -115 -92 -107 -260 45 -161 146 -191 253 -136 489 230 992 -1 1910 -636 2529 l-468 456 -32 -270 c-22 -189 60 -375 271 -616 716 -815 640 -2347 -116 -2347 -339 0 -119 -249 247 -280 381 -33 740 -335 796 -670 25 -146 -55 -239 -291 -343 -391 -172 -398 -225 -75 -548 286 -286 335 -794 107 -1118 -78 -112 -326 -287 -550 -388 -224 -101 -407 -244 -407 -318 0 -181 28 -175 611 121 284 143 578 384 672 549 92 162 191 294 221 294 29 1 48 -410 41 -913 -13 -1014 -64 -1102 -742 -1286 -194 -52 -461 -171 -592 -263 l-239 -168 52 -1910 c38 -1413 93 -2006 209 -2284 161 -385 209 -410 706 -377 378 26 450 -115 349 -681 -46 -257 -108 -610 -139 -786 -55 -315 -59 -317 -377 -186 -679 277 -772 285 -772 62 0 -116 65 -207 148 -207 82 0 292 -128 467 -284 423 -378 341 -616 -212 -616 l-403 0 0 -501 0 -502 1107 11 1108 10 -83 1016 c-45 559 -77 2389 -71 4066 5 1678 13 4963 16 7300 11 8378 40 10751 134 10864 53 64 68 415 33 800 -35 377 -55 1057 -46 1511 15 806 10 825 -222 825 l-238 0 -21 -1525z m-274 -4973 c258 -97 373 -502 144 -502 -193 0 -931 229 -1036 321 -250 220 429 358 892 181z m93 -7998 l-66 -328 -130 237 c-111 202 -106 255 33 361 215 164 241 121 163 -270z m-36 -6166 c0 -360 -33 -438 -185 -438 -475 0 -1274 424 -1157 613 30 48 254 138 500 199 245 62 471 154 503 205 126 205 339 -159 339 -579z"/>
<path d="M2792 50925 c-13 -866 -8 -2722 12 -4125 53 -3793 13 -20903 -49 -21250 l-54 -300 -1351 33 c-1276 31 -1350 22 -1350 -159 0 -145 172 -260 700 -467 385 -151 700 -318 700 -371 0 -155 -696 -401 -1037 -367 -275 27 -317 -2 -344 -241 -47 -401 335 -466 897 -152 257 143 701 273 1084 316 358 40 808 159 1000 263 545 295 1509 695 1673 695 269 0 1365 1216 1915 2123 216 356 220 406 100 1119 -124 738 -122 748 119 953 355 302 747 192 1325 -372 876 -855 1244 -1987 968 -2975 -115 -410 -110 -468 51 -586 193 -142 196 -117 -136 -1372 -503 -1900 -983 -2875 -1940 -3936 -906 -1003 -2824 -2354 -3343 -2354 -192 0 -835 -193 -1782 -535 -220 -80 -749 -177 -1175 -217 -648 -60 -775 -101 -775 -248 0 -151 78 -173 534 -145 l533 31 -308 -592 c-238 -455 -361 -593 -534 -593 -322 -1 -283 -284 50 -363 151 -35 343 -121 425 -190 83 -69 307 -159 500 -200 689 -147 1661 -750 1954 -1213 151 -239 333 -482 404 -541 234 -195 279 -687 82 -905 -173 -191 -171 -200 34 -253 117 -31 238 -123 269 -205 79 -205 -210 -781 -596 -1191 -258 -274 -396 -340 -712 -340 -215 0 -493 72 -617 159 -466 326 -686 -25 -819 -1309 -46 -440 -138 -1197 -205 -1683 -115 -825 -137 -879 -333 -824 -645 180 -661 180 -661 14 0 -90 157 -257 350 -370 295 -174 350 -262 350 -560 0 -195 -52 -528 -116 -740 -91 -306 -165 -387 -350 -387 -285 0 -301 -161 -38 -384 194 -165 194 -169 0 -559 -144 -289 -196 -599 -196 -1175 0 -430 34 -782 75 -782 317 0 1502 443 1947 728 429 274 584 327 727 247 246 -138 1749 -16 2109 171 383 198 453 89 124 -193 -256 -221 -847 -475 -1382 -595 -292 -66 -565 -227 -497 -294 107 -105 1150 167 1510 394 l387 245 0 -248 c0 -262 -256 -558 -750 -867 -364 -227 -532 -235 -752 -36 -153 138 -234 114 -857 -250 -582 -340 -645 -402 -411 -402 152 0 392 76 533 168 205 134 294 144 445 50 104 -65 281 -118 394 -118 304 0 1175 470 1298 700 87 163 209 200 657 200 523 0 545 -10 440 -205 -60 -113 -95 -326 -78 -475 30 -257 60 -271 654 -300 515 -24 674 9 922 192 252 186 340 204 546 110 470 -214 1529 302 1627 793 75 375 126 399 573 262 462 -142 674 -506 592 -1014 l-59 -363 744 0 c692 0 764 20 1025 292 314 328 509 312 600 -49 58 -231 99 -243 839 -243 429 0 827 49 887 109 79 79 166 79 314 0 112 -60 391 -109 620 -109 907 0 1338 1088 818 2062 -99 183 -66 232 290 432 221 125 424 204 452 177 27 -27 92 -352 144 -722 123 -869 299 -1150 978 -1561 l556 -338 2272 -32 c2490 -34 2681 0 3060 555 532 781 763 3381 367 4145 -197 383 -174 753 68 1093 186 261 196 341 95 765 -62 261 -126 633 -143 827 -31 358 -244 797 -385 797 -43 0 -49 -191 -13 -425 35 -234 69 -466 76 -517 6 -50 -136 -123 -317 -163 -181 -39 -410 -144 -508 -233 -241 -218 -384 -204 -521 52 -111 208 -83 760 56 1104 56 138 -1 175 -315 200 -313 26 -389 74 -416 263 -18 127 39 339 125 471 87 133 158 294 158 360 0 143 618 981 727 985 43 2 70 -368 60 -822 -9 -454 -6 -1176 7 -1606 21 -665 49 -775 190 -747 122 25 155 113 125 331 -22 163 -40 905 -40 1647 1 1127 38 1461 225 2024 122 371 267 702 321 735 119 74 312 520 341 791 122 1126 184 1516 254 1606 67 85 -22 1839 -159 3144 -59 556 -829 2056 -1189 2314 -185 133 41 578 374 736 184 88 398 281 475 430 76 148 216 338 311 420 108 94 180 320 193 606 24 535 -52 694 -332 694 -156 0 -187 42 -131 175 40 96 123 310 185 475 62 165 139 323 172 350 55 47 37 881 -29 1371 -17 121 -120 286 -229 366 -175 128 -231 127 -464 -10 -145 -86 -336 -307 -424 -492 -190 -399 -327 -424 -481 -85 -189 415 -590 283 -909 -300 -90 -165 -215 -626 -277 -1025 -63 -399 -148 -725 -189 -725 -41 0 -126 113 -189 250 -128 281 -201 299 -561 135 -261 -119 -493 -618 -603 -1300 -92 -567 -218 -616 -1634 -641 -699 -13 -1427 -74 -1620 -137 -192 -62 -914 -199 -1604 -305 -689 -106 -1327 -220 -1417 -255 -221 -85 -365 207 -400 814 l-29 489 1151 -35 c900 -27 1281 5 1750 147 329 99 779 187 999 194 643 21 1348 280 2128 780 923 591 2498 2159 2806 2791 127 262 342 607 477 768 135 160 329 530 433 823 103 293 304 757 446 1032 143 275 259 583 260 685 0 101 62 304 137 450 75 146 256 873 401 1615 212 1085 261 1615 252 2700 l-12 1350 -178 -1650 c-212 -1958 -332 -2655 -659 -3826 -311 -1112 -593 -1732 -1469 -3224 -542 -924 -889 -1380 -1507 -1983 -442 -430 -941 -852 -1109 -938 -169 -86 -486 -279 -706 -429 -220 -149 -670 -341 -1000 -425 -330 -85 -892 -228 -1250 -318 -357 -91 -920 -190 -1250 -221 -628 -58 -2320 135 -2407 275 -27 44 -116 55 -198 23 -190 -73 -961 121 -1480 372 -221 106 -456 194 -520 194 -385 0 -984 788 -1338 1760 -189 517 -206 671 -115 1009 59 220 197 481 308 581 110 99 200 230 201 290 0 141 558 460 803 460 135 0 205 -99 254 -358 75 -398 -78 -842 -290 -842 -165 0 -368 -418 -368 -758 0 -613 685 -1461 1300 -1609 138 -33 322 -122 411 -199 133 -115 324 -120 1115 -27 922 109 961 106 1172 -105 140 -140 277 -193 385 -147 92 38 302 116 467 172 165 56 580 231 923 388 342 157 645 285 673 285 27 0 456 277 952 615 841 573 1334 1030 2037 1888 839 1024 1847 4104 2319 7090 333 2101 188 6527 -258 7914 -113 354 -317 1057 -452 1562 -136 506 -329 1114 -430 1350 -101 237 -216 603 -255 812 -78 422 -696 1744 -1177 2519 -171 275 -448 748 -615 1050 -368 666 -958 1500 -1060 1500 -42 0 -201 236 -356 525 -154 289 -480 829 -723 1200 -387 589 -482 675 -748 675 l-306 0 264 -325 c146 -179 397 -548 558 -820 291 -490 294 -510 249 -1700 -85 -2281 -412 -3957 -963 -4930 -163 -289 -322 -525 -352 -525 -95 0 70 1017 282 1734 222 753 198 966 -109 966 -314 0 -255 402 147 1000 422 627 489 1343 154 1647 -194 175 -238 175 -974 -13 -177 -44 -234 -3 -287 207 -36 144 -35 407 2 585 198 960 190 1026 -144 1308 -398 335 -450 333 -817 -35 -165 -165 -342 -275 -392 -244 -51 31 -92 298 -92 593 l0 536 -1175 9 -1175 9 -18 -351 c-10 -193 -29 -475 -42 -626 -13 -151 61 -452 163 -667 183 -385 182 -395 -5 -500 -291 -164 -759 -674 -859 -937 -226 -595 -15 -1065 511 -1137 219 -30 254 -89 279 -484 31 -488 33 -1182 5 -1775 -10 -206 9 -1990 43 -3964 l61 -3590 -379 -560 c-726 -1075 -1690 -3037 -1861 -3788 -90 -398 -202 -723 -248 -723 -116 0 -390 766 -447 1250 -69 587 222 2394 515 3200 140 385 298 925 351 1200 54 275 162 627 239 783 188 375 180 907 -20 1328 -188 395 -69 639 311 639 287 0 712 334 909 715 184 356 217 1559 50 1869 -136 256 -524 286 -751 59 -86 -87 -157 -188 -157 -226 0 -38 -94 -127 -208 -199 -285 -178 -492 6 -492 438 0 183 -46 360 -102 395 -56 35 -77 101 -48 149 29 47 -36 114 -145 148 -257 82 -282 271 -355 2694 -32 1096 -83 2030 -112 2077 -28 46 -98 55 -155 20 -66 -40 -81 -326 -42 -776 33 -392 86 -1447 115 -2344 l55 -1631 -304 -346 c-305 -347 -350 -465 -446 -1179 -61 -450 -123 -541 -270 -394 -308 308 -275 1824 61 2837 141 426 142 514 8 835 -103 247 -214 359 -355 359 -113 0 -205 -51 -205 -112 0 -77 -49 -72 -153 15 -125 103 -148 337 -126 1237 41 1634 -262 2157 -871 1501 -132 -143 -287 -230 -345 -194 -61 37 -105 440 -105 954 l0 889 -334 255 c-184 140 -406 255 -493 255 -270 0 -473 -296 -473 -692 0 -418 -287 -773 -546 -673 -122 46 -154 237 -154 912 0 836 -5 853 -242 853 l-242 0 -24 -1575z m9952 1053 c86 -122 156 -305 156 -405 0 -303 283 -754 520 -829 181 -58 291 8 583 346 263 306 407 400 536 350 250 -95 376 -486 259 -797 -142 -371 -120 -1174 36 -1389 127 -173 161 -175 602 -24 452 154 473 152 665 -54 110 -118 199 -252 199 -298 0 -190 -313 -815 -549 -1095 -341 -405 -366 -1183 -38 -1183 194 0 208 -41 162 -455 -88 -780 -304 -705 -420 147 -137 1008 -741 2161 -1730 3305 -472 546 -882 1124 -958 1353 -140 419 -293 510 -351 207 -62 -322 281 -1019 746 -1518 1072 -1149 1756 -2314 1901 -3239 64 -415 57 -439 -100 -310 -133 110 -222 115 -421 25 -446 -204 -624 -146 -730 238 -79 285 -59 441 101 803 268 606 184 845 -295 840 -202 -1 -480 -67 -618 -146 -327 -187 -649 -187 -837 1 -131 132 -132 185 -7 425 305 584 51 897 -481 591 -360 -206 -862 -218 -937 -21 -103 269 166 851 465 1006 158 81 348 148 422 148 274 0 376 215 234 491 -150 291 -359 919 -359 1077 0 58 119 223 264 368 331 332 764 350 980 42z m-7931 -443 c87 -105 155 -533 187 -1175 50 -1002 52 -1010 313 -1041 187 -21 323 45 465 225 110 141 249 256 308 256 186 0 331 -779 247 -1332 -183 -1211 -30 -1727 479 -1615 242 53 290 25 346 -198 35 -142 35 -382 -1 -532 -109 -450 -146 -650 -209 -1148 -70 -550 -195 -617 -284 -150 -203 1068 -294 1351 -576 1813 -172 282 -545 782 -829 1112 -591 687 -1159 1708 -1159 2083 0 364 -182 428 -304 107 -87 -230 -48 -387 252 -1019 195 -410 571 -999 836 -1309 777 -907 1143 -1511 1335 -2206 221 -796 230 -1106 33 -1106 -235 0 -453 430 -436 860 8 217 -38 494 -103 615 -114 214 -126 215 -468 53 -338 -162 -357 -160 -565 48 -197 196 -204 240 -76 495 243 487 268 672 128 954 -165 330 -330 342 -906 64 -240 -117 -464 -184 -498 -150 -34 34 -66 718 -70 1521 l-8 1458 323 135 c348 146 726 668 727 1005 0 371 273 465 513 177z m12887 -1685 c0 -186 53 -250 207 -250 152 0 192 -47 150 -178 -31 -97 -80 -446 -109 -775 -28 -328 -71 -754 -94 -947 -23 -192 -71 -642 -106 -1000 -35 -357 -101 -807 -146 -1000 -213 -909 -213 -900 -41 -900 91 0 328 101 526 225 198 124 451 270 562 325 250 124 743 1102 748 1483 2 180 49 270 128 245 165 -51 796 -1278 737 -1433 -25 -66 -263 -152 -529 -192 -551 -81 -2357 -1103 -2938 -1662 -195 -187 -453 -419 -575 -515 -121 -96 -220 -261 -220 -367 0 -106 -107 -410 -238 -676 -131 -266 -287 -640 -345 -833 -129 -422 -617 -2278 -617 -2345 0 -146 406 -239 687 -159 172 50 313 67 313 38 0 -154 -494 -428 -779 -431 -223 -2 -399 -84 -550 -256 -765 -873 -1403 -1451 -1555 -1406 -180 53 -963 -133 -1232 -293 -191 -113 -648 -949 -1147 -2098 -349 -804 -836 -2713 -839 -3290 0 -171 -42 -375 -93 -455 -70 -111 -105 -77 -153 150 -34 162 -150 607 -257 989 -132 467 -163 728 -96 795 56 56 101 207 101 336 0 129 71 372 157 539 87 167 131 374 98 460 -99 257 220 1130 686 1876 384 615 470 696 707 670 266 -30 552 122 552 292 0 49 -94 88 -208 88 -181 0 -202 47 -160 357 26 196 64 365 83 375 19 10 188 126 376 258 311 218 351 225 461 75 66 -91 258 -165 428 -165 304 0 405 79 1072 844 258 296 1044 1852 1052 2083 3 68 71 303 152 523 272 739 565 2454 445 2599 -80 97 -76 143 18 174 96 32 85 106 -46 306 -95 145 -173 364 -173 485 0 267 214 886 306 886 103 0 177 -883 133 -1590 -36 -587 55 -910 255 -910 136 0 1090 1962 1385 2850 347 1043 438 1682 503 3525 18 514 218 767 218 275z m1225 -1541 c293 -480 358 -659 273 -761 -61 -74 -154 -434 -206 -801 -51 -366 -158 -757 -235 -868 -132 -187 -686 -579 -821 -579 -32 0 -30 191 5 425 76 510 354 2970 357 3158 4 267 252 40 627 -574z m-7025 166 c0 -427 -1 -429 -100 -275 -127 196 -127 426 0 383 55 -18 100 -67 100 -108z m525 -1173 c124 1 425 93 669 204 444 201 706 197 706 -11 0 -71 -107 -87 -300 -45 -229 50 -315 26 -364 -101 -36 -92 -13 -1277 50 -2633 64 -1368 85 -3239 48 -4203 -63 -1643 -79 -1752 -309 -2025 -309 -366 -475 -363 -831 18 l-285 306 -14 1969 c-16 2289 -20 1930 46 3569 28 715 15 1728 -29 2250 -45 523 -64 982 -43 1021 21 40 127 -17 235 -125 108 -108 297 -195 421 -194z m-7957 -263 c34 -88 -36 -360 -154 -604 -231 -476 -204 -632 173 -973 197 -179 392 -179 854 -2 132 51 159 -21 159 -427 0 -452 174 -871 435 -1049 60 -40 31 -300 -77 -684 -146 -521 -155 -696 -55 -1111 92 -387 91 -525 -6 -642 -94 -114 -156 -122 -260 -36 -75 62 -137 173 -137 245 0 224 -176 257 -543 103 -340 -142 -359 -138 -555 111 -111 141 -202 289 -202 329 0 40 158 279 350 531 400 523 435 762 150 1020 -193 175 -207 175 -401 -1 -242 -219 -240 -222 -391 401 -66 275 -208 649 -314 831 -271 461 -284 1817 -19 1822 96 2 262 69 369 150 256 193 547 187 624 -14z m10252 -1549 c-17 -132 -55 -406 -85 -609 -30 -202 4 -540 76 -750 156 -453 124 -1224 -71 -1690 -77 -184 -140 -470 -140 -635 0 -165 -86 -493 -192 -728 -105 -236 -267 -644 -360 -909 -93 -265 -183 -467 -200 -450 -18 17 -46 1357 -65 2977 l-33 2945 376 14 c206 7 406 44 443 81 134 134 280 -10 251 -246z m6146 -1379 c186 -572 327 -1047 311 -1055 -617 -362 -829 -710 -952 -1568 -98 -676 -339 -776 -592 -245 -93 196 -207 357 -252 357 -44 0 -81 515 -81 1144 0 1210 -92 1461 -397 1084 -91 -112 -302 -274 -469 -360 -167 -87 -447 -329 -622 -538 -174 -209 -400 -470 -502 -580 -415 -449 -518 -712 -450 -1140 51 -318 27 -459 -104 -603 -94 -104 -294 -428 -445 -721 -234 -451 -332 -545 -649 -620 -205 -49 -402 -59 -437 -24 -36 36 -6 322 66 636 72 315 176 797 230 1072 169 862 1073 2481 1466 2625 90 33 350 221 578 418 532 459 1396 916 1591 841 83 -32 229 10 323 94 201 178 477 259 810 237 211 -13 277 -134 577 -1054z m-11999 488 c106 -809 148 -904 447 -1027 l305 -124 -442 -455 c-243 -250 -698 -599 -1011 -775 -661 -373 -1744 -1424 -2108 -2046 -276 -470 -625 -1483 -723 -2095 -67 -418 -246 -456 -337 -71 -40 173 -80 205 -137 112 -52 -85 -181 -108 -373 -65 -244 53 -342 10 -595 -261 -508 -543 -572 -348 -610 1833 -18 1031 -1 1875 38 1875 40 0 121 -91 181 -203 59 -111 286 -274 503 -361 391 -156 395 -164 395 -689 0 -560 260 -1307 535 -1535 264 -219 321 124 84 510 -111 181 -230 598 -265 928 -36 330 -85 701 -111 823 -51 250 297 676 467 571 56 -35 143 -172 194 -304 117 -309 280 -303 633 25 262 242 280 302 214 725 -109 698 -83 1063 103 1454 183 386 513 484 606 181 155 -501 354 -825 506 -825 275 0 534 309 536 640 2 436 228 1035 456 1209 232 178 483 153 509 -50z m-5305 -515 c95 -421 90 -509 -35 -557 -206 -79 -342 169 -280 511 29 158 53 379 53 491 0 332 141 92 262 -445z m7040 -141 c264 -692 -123 -1743 -641 -1743 -491 0 -827 -197 -935 -550 -91 -297 -74 -382 135 -665 329 -446 311 -731 -55 -883 -244 -100 -417 -90 -1009 63 l-715 184 -191 -236 c-228 -280 -257 -985 -52 -1265 137 -187 117 -385 -61 -616 -69 -89 -196 -79 -527 44 -479 177 -685 100 -856 -323 -76 -187 -83 -183 -88 47 -7 330 245 1148 439 1424 85 121 154 300 154 398 0 98 46 178 101 178 56 0 185 136 286 303 311 511 1271 1430 1823 1747 288 165 679 458 870 650 355 360 859 1073 883 1250 8 55 19 134 25 175 28 182 326 51 414 -182z m-6102 -553 c0 -198 -411 -690 -703 -842 -379 -196 -471 -187 -547 52 -98 310 37 600 282 604 120 1 331 67 468 146 302 173 500 189 500 40z m14321 -365 c334 -385 279 -1297 -87 -1432 -265 -98 -1134 413 -1134 667 0 203 723 940 923 940 80 0 214 -79 298 -175z m2406 -566 c189 -189 313 -542 548 -1555 l195 -846 -210 -176 c-115 -96 -352 -177 -525 -179 -255 -2 -356 -73 -529 -365 -180 -305 -203 -453 -147 -946 64 -563 56 -589 -199 -706 -228 -104 -305 -91 -558 97 -409 302 -758 281 -968 -58 -419 -676 -766 -701 -1035 -73 -219 512 -428 641 -678 422 -94 -83 -271 -181 -394 -218 -180 -55 -261 -5 -424 263 -111 182 -202 358 -203 392 0 34 484 61 1075 61 885 0 1158 38 1545 214 258 118 520 214 582 214 203 0 998 516 998 648 0 71 123 210 273 308 371 243 1027 856 1027 960 0 189 -276 63 -588 -267 -377 -400 -1339 -1144 -1712 -1324 -715 -345 -1748 -492 -2661 -378 l-534 67 299 559 c389 730 477 827 745 827 173 0 263 -102 396 -450 94 -247 232 -450 306 -450 74 0 229 251 343 558 364 971 475 1132 762 1101 164 -17 326 -142 449 -343 402 -662 946 -301 1085 718 72 534 325 1066 505 1066 50 0 154 -64 232 -141z m-17327 -375 c0 -63 117 -269 260 -456 312 -409 266 -498 -148 -284 -342 177 -555 499 -473 714 65 170 361 192 361 26z m13940 -588 c519 -329 530 -385 221 -1135 l-128 -311 -171 329 c-94 181 -276 369 -404 418 -161 61 -248 191 -282 421 -99 667 59 725 764 278z m-9290 -1859 l572 -67 -63 -472 c-34 -260 -170 -737 -301 -1060 -131 -323 -315 -1128 -409 -1788 -95 -660 -195 -1239 -223 -1286 -28 -47 -158 39 -289 191 -206 240 -236 376 -232 1036 6 907 304 2366 518 2537 182 146 126 872 -68 872 -68 0 -183 -259 -257 -575 -74 -316 -145 -620 -160 -675 -139 -540 -338 -1746 -338 -2053 0 -479 -97 -543 -518 -341 -284 136 -366 264 -565 877 -128 395 -202 796 -164 892 74 189 396 238 497 75 115 -186 368 -102 671 223 290 310 299 349 237 960 -74 717 37 980 342 817 98 -53 436 -126 750 -163z m13618 -1697 l58 -1590 -235 -100 c-264 -112 -799 -917 -805 -1210 -2 -104 25 -347 59 -540 34 -192 15 -417 -42 -500 -89 -128 -131 -115 -290 89 -269 348 -675 226 -880 -264 -182 -436 -137 -904 149 -1525 326 -711 318 -823 -73 -938 -257 -76 -379 -192 -500 -480 -87 -209 -193 -380 -234 -381 -125 -2 -86 168 175 759 313 708 323 1164 31 1436 -255 238 -316 246 -580 82 -323 -202 -455 27 -247 430 278 538 334 852 231 1310 -198 880 -827 1161 -1197 534 -151 -256 -263 -339 -422 -315 -194 29 -224 117 -291 853 -82 891 -281 1403 -553 1422 -360 24 -576 -32 -689 -177 -90 -117 -162 -126 -318 -43 -319 171 -562 128 -818 -146 -194 -205 -243 -376 -262 -900 -21 -589 8 -694 323 -1172 363 -551 366 -527 -96 -824 -205 -132 -411 -940 -326 -1279 37 -147 206 -426 376 -619 275 -313 363 -352 801 -352 l492 0 -152 -295 c-191 -369 -192 -540 -4 -903 182 -351 436 -443 885 -319 429 118 541 47 810 -511 l216 -448 -230 -268 c-126 -147 -230 -329 -230 -404 0 -212 289 -452 545 -452 127 0 276 -56 331 -125 108 -134 436 -2374 365 -2489 -69 -112 -1253 -931 -1715 -1187 -233 -129 -455 -203 -494 -164 -94 94 142 729 435 1173 323 487 417 878 311 1279 l-90 337 -494 -65 c-327 -44 -494 -29 -494 42 0 59 135 396 300 749 467 999 370 1851 -211 1849 -160 0 -295 -99 -409 -300 -94 -164 -208 -299 -255 -299 -46 0 -136 195 -199 433 -64 238 -206 542 -315 675 -188 229 -214 234 -480 91 -155 -84 -370 -331 -478 -550 l-197 -399 -53 350 c-29 193 -53 1949 -53 3904 0 3909 1 3919 623 4216 152 72 291 228 308 345 22 160 141 242 469 325 680 171 812 144 953 -198 70 -169 235 -378 367 -464 226 -148 255 -142 531 123 342 328 517 251 702 -309 196 -595 829 -588 1200 13 244 395 496 439 863 151 244 -193 372 -190 810 21 320 153 492 768 326 1167 -169 409 68 806 481 806 153 0 366 64 473 143 107 79 230 108 274 65 45 -43 107 -794 138 -1668z m-17468 -440 c110 -110 200 -301 200 -425 1 -124 94 -377 207 -563 235 -385 205 -432 -381 -599 -588 -167 -892 -466 -1167 -1147 -130 -321 -252 -546 -273 -500 -75 172 67 2979 145 2859 128 -198 349 -146 425 100 157 513 496 623 844 275z m997 -400 c0 -133 -11 -133 -97 0 -53 83 -97 218 -97 300 0 133 11 133 97 0 53 -82 97 -217 97 -300z m10776 -525 c141 -179 327 -999 328 -1444 2 -528 97 -831 261 -831 76 0 138 -45 138 -100 0 -242 273 -63 534 350 330 522 554 567 794 160 233 -395 220 -1085 -28 -1460 -233 -352 -249 -544 -68 -793 124 -169 152 -170 447 -18 308 159 319 157 481 -90 213 -326 145 -757 -254 -1602 -168 -356 -306 -692 -306 -747 0 -129 170 -129 250 0 116 187 250 101 250 -160 0 -144 -164 -574 -365 -956 l-366 -695 213 -379 c118 -209 265 -622 327 -920 63 -297 161 -598 217 -668 75 -93 39 -196 -129 -375 -127 -136 -261 -247 -297 -247 -36 0 -122 431 -191 958 -189 1450 -341 1742 -902 1742 -288 0 -258 200 68 469 219 180 247 245 137 317 -76 51 -112 133 -80 185 31 51 -54 332 -189 625 l-247 532 -594 -62 c-536 -56 -608 -41 -748 158 -213 304 -194 454 102 842 140 184 227 380 194 435 -34 54 -318 100 -631 101 -630 1 -680 23 -997 436 -447 581 -162 1262 528 1262 276 0 350 40 350 188 0 103 -65 242 -145 308 -510 423 -1017 1939 -754 2255 189 228 490 178 617 -101 162 -355 482 -333 482 33 0 156 30 314 67 350 109 110 401 76 506 -58z m-10428 -188 c60 -55 55 -127 -12 -194 -76 -76 -190 -31 -393 157 l-286 265 298 -70 c164 -39 341 -110 393 -158z m7154 -1512 c0 -839 -47 -3321 -104 -5516 -99 -3760 -116 -4008 -308 -4277 -111 -157 -342 -357 -513 -445 -531 -275 -578 -95 -521 2004 28 995 49 3125 48 4733 -2 1653 49 3342 115 3885 131 1063 178 1122 909 1135 l375 6 -1 -1525z m8998 600 c-13 -1581 -521 -4414 -1068 -5953 -276 -778 -443 -873 -535 -304 -32 193 -148 449 -259 568 -263 282 -464 925 -331 1058 55 55 245 101 423 103 317 3 324 13 352 506 22 369 -38 656 -228 1084 -229 519 -244 619 -134 923 139 383 157 391 427 187 280 -212 428 -183 629 124 121 185 179 476 184 925 7 693 155 1104 397 1104 99 0 145 -105 143 -325z m-15480 16 c512 -261 1022 -799 1341 -1417 575 -1111 1343 -4615 1261 -5751 l-31 -426 -413 523 c-512 648 -858 961 -1150 1040 -254 70 -279 146 -105 320 88 88 89 120 5 120 -63 0 -158 -78 -212 -172 -70 -127 -238 -176 -629 -185 -877 -21 -1345 -205 -1909 -748 -282 -272 -564 -495 -626 -495 -176 0 -353 1410 -364 2900 -5 743 2 1395 16 1450 15 55 31 580 38 1167 13 1214 147 1519 767 1743 566 205 1540 171 2011 -69z m4627 -2116 c-43 -2157 -43 -1969 7 -4155 29 -1290 9 -1739 -81 -1767 -66 -20 -237 -62 -381 -93 -143 -31 -452 -237 -686 -457 -234 -221 -461 -379 -504 -352 -116 71 -33 3050 93 3380 59 155 136 605 170 1000 66 761 549 2916 725 3232 57 103 195 404 306 669 111 266 244 457 295 426 53 -33 77 -830 56 -1883z m-7794 -1935 c37 -2037 116 -2935 298 -3365 62 -149 17 -175 -300 -175 l-374 0 61 2675 c33 1471 61 2808 62 2970 2 207 35 263 108 190 65 -65 121 -948 145 -2295z m16420 -1960 c364 -352 448 -857 180 -1080 -82 -68 -271 -394 -419 -725 l-270 -600 -120 347 c-66 191 -193 488 -282 661 -158 305 -154 330 139 849 166 294 302 609 302 701 0 240 98 209 470 -153z m-5070 -552 c0 -797 422 -957 843 -321 220 333 295 386 413 288 219 -182 174 -581 -153 -1348 -337 -790 -369 -1066 -150 -1286 122 -121 204 -131 394 -44 132 60 316 80 409 45 231 -89 129 -562 -250 -1155 -161 -251 -347 -676 -414 -943 -104 -415 -173 -508 -476 -635 -328 -136 -365 -134 -490 37 -231 315 -250 588 -136 1946 150 1795 145 1988 -51 1988 -110 0 -140 -53 -95 -170 77 -201 -36 -1230 -135 -1230 -38 0 -125 157 -195 348 -69 192 -258 481 -420 642 -315 315 -415 942 -166 1038 71 27 189 290 263 585 74 296 203 616 288 713 143 164 166 165 337 9 110 -99 184 -303 184 -507z m-8744 -178 c225 -537 217 -1456 -14 -1853 -278 -475 -401 -465 -529 41 -118 470 -494 862 -826 862 -463 0 -112 489 810 1128 342 237 393 221 559 -178z m7744 -150 c0 -55 -70 -100 -156 -100 -86 0 -128 45 -94 100 34 55 104 100 156 100 52 0 94 -45 94 -100z m6700 -451 c-234 -613 -899 -1749 -1025 -1749 -149 0 -68 276 316 1069 350 723 487 896 732 923 39 4 29 -105 -23 -243z m-16541 -899 c175 -267 541 -342 541 -111 0 265 327 279 581 25 221 -221 238 -296 176 -794 -45 -360 -139 -613 -272 -733 -198 -179 -208 -177 -469 130 -263 309 -603 533 -809 533 -196 0 -110 -203 132 -313 232 -106 461 -465 461 -723 0 -158 -624 -464 -944 -464 l-237 0 35 1275 c19 701 37 1309 40 1350 3 41 140 75 304 75 207 0 347 -76 461 -250z m9933 -989 c528 -1254 -90 -2547 -1222 -2557 -264 -2 -621 69 -794 158 -357 185 -407 126 651 772 990 606 1184 1018 915 1942 -118 404 258 140 450 -315z m-2592 -1311 c0 -366 -79 -431 -280 -230 -157 157 -154 450 5 514 242 97 275 63 275 -284z m-8750 -50 c34 -55 149 -100 256 -100 303 0 228 -262 -117 -405 -241 -99 -355 -102 -499 -12 -103 64 -255 117 -339 117 -252 0 -170 154 174 325 393 196 446 203 525 75z m21930 -626 c27 -626 4 -715 -314 -1200 -451 -688 -531 -955 -310 -1040 94 -36 260 -10 369 58 308 193 421 -2 260 -447 -90 -251 -303 -500 -645 -752 -280 -207 -586 -454 -680 -548 -161 -161 -190 -160 -509 12 -187 100 -310 229 -276 287 35 59 218 348 406 644 462 728 747 1394 676 1581 -84 219 -317 6 -390 -357 -70 -350 -676 -1399 -954 -1650 -218 -197 -269 -194 -1309 101 -417 118 -509 176 -387 245 88 49 191 259 228 466 171 953 484 1309 706 801 125 -285 463 -338 665 -104 85 98 205 551 267 1007 131 962 265 1289 461 1127 72 -60 160 -288 195 -507 46 -292 111 -398 242 -398 212 0 419 185 419 375 0 75 92 339 205 587 164 360 250 444 425 419 198 -28 223 -98 250 -707z m-10051 -276 c63 -239 -164 -498 -436 -498 -247 0 -245 122 5 348 108 98 173 218 144 265 -30 48 11 87 90 87 80 0 168 -91 197 -202z m-4270 -852 c243 -249 441 -472 441 -495 0 -45 -376 -113 -1079 -196 -322 -38 -443 -13 -486 99 -114 297 311 1046 593 1046 49 0 288 -204 531 -454z m1094 -1800 c39 -580 45 -1081 13 -1113 -155 -156 -2966 533 -2966 727 0 99 538 988 645 1066 58 42 263 51 455 21 215 -34 581 20 950 139 330 107 652 199 715 204 77 7 140 -346 188 -1044z m1313 634 l517 -104 -56 -763 c-31 -420 -106 -797 -167 -839 -60 -42 -311 -64 -558 -50 l-447 26 -119 899 c-127 965 -107 1100 149 1000 91 -35 397 -111 681 -169z m8184 -1394 c1448 -415 1899 -637 2454 -1211 927 -957 1208 -1720 1342 -3637 45 -647 26 -837 -92 -935 -114 -94 -135 -256 -89 -695 49 -465 10 -716 -209 -1349 -448 -1299 -937 -2197 -1577 -2898 -153 -168 -279 -333 -279 -366 0 -34 -182 -260 -405 -503 -380 -415 -1395 -1833 -1395 -1949 0 -77 -654 -1087 -859 -1326 -239 -280 -632 -1664 -637 -2245 -12 -1506 1234 -2145 3799 -1946 701 55 730 95 653 912 -100 1054 -217 1394 -636 1852 -322 353 -455 424 -888 475 -560 66 -1361 -86 -1971 -376 -458 -217 -623 -161 -412 140 83 118 151 298 151 398 0 543 1461 1186 2746 1208 804 14 852 3 1156 -285 819 -776 1040 -1771 805 -3623 -174 -1367 -225 -1526 -488 -1529 -93 -1 -371 -95 -619 -208 -384 -176 -648 -205 -1804 -204 -2384 3 -3328 376 -3644 1438 -223 750 -209 978 164 2672 130 592 911 2375 1368 3124 201 329 434 718 516 864 83 146 173 289 200 316 68 68 263 386 460 750 89 165 335 508 546 762 374 449 1002 1806 1141 2462 38 179 136 362 217 408 106 59 140 213 118 526 -28 385 -64 446 -282 476 -137 19 -393 143 -568 275 -175 133 -400 242 -500 242 -527 4 -792 226 -665 557 172 448 1138 305 1329 -197 103 -272 450 -506 606 -410 298 184 -15 1788 -555 2856 -465 916 -903 1207 -2397 1589 -711 182 -1828 119 -2800 -160 -495 -141 -1561 -350 -2368 -464 -1308 -184 -1565 -193 -2350 -81 -1020 145 -2139 403 -2277 525 -52 46 -177 84 -276 84 -100 0 -260 41 -355 91 -366 190 -1404 609 -1512 609 -187 0 -127 181 163 489 l275 292 700 -142 c2256 -460 3585 -509 5100 -188 440 93 1025 208 1300 255 275 47 905 160 1400 250 495 91 1080 194 1300 230 501 81 2367 -48 2900 -200z m-12899 -2104 c570 -616 1037 -1499 1259 -2382 94 -372 137 -1133 133 -2350 -4 -1577 -37 -1937 -264 -2900 -475 -2011 -602 -2875 -562 -3810 26 -596 99 -1014 222 -1265 101 -207 160 -468 130 -581 -40 -154 11 -229 201 -302 140 -53 409 -251 599 -441 190 -190 623 -515 963 -723 601 -368 644 -378 1568 -377 1115 2 2429 280 3700 784 835 331 1875 623 1950 548 21 -21 -49 -302 -156 -626 -107 -323 -194 -638 -194 -698 0 -140 -1102 -878 -1720 -1152 -521 -230 -1343 -432 -2480 -608 -871 -136 -2278 -17 -3001 253 -247 92 -606 220 -798 283 -441 145 -2299 1959 -2581 2519 -226 451 -525 1507 -448 1584 27 28 90 590 139 1250 49 660 137 1326 196 1480 58 153 167 550 242 881 75 330 209 799 298 1041 162 439 348 1505 394 2260 14 220 58 670 99 1000 65 527 37 900 -192 2600 -66 485 -416 1339 -704 1717 l-267 350 337 348 c325 337 337 341 371 120 19 -126 274 -488 566 -803z m949 68 c75 -91 83 -150 20 -150 -183 0 -420 119 -420 211 0 143 264 103 400 -61z m8211 -314 c89 -106 90 -204 6 -389 -96 -211 -87 -247 60 -250 163 -3 163 -11 -2 -136 -215 -163 -224 -261 -25 -261 83 0 150 -81 150 -180 0 -99 42 -223 94 -275 109 -110 20 -945 -101 -945 -45 0 -245 96 -444 214 -270 159 -391 184 -475 100 -141 -141 -540 -149 -625 -13 -34 56 74 129 244 163 286 57 438 236 200 236 -61 0 -79 85 -43 200 51 161 18 200 -168 202 -128 0 -298 43 -378 93 -125 79 -119 123 40 299 132 145 310 206 605 206 458 0 597 73 460 241 -79 96 -150 496 -120 675 18 105 393 -24 522 -180z m-10606 -61 c457 -485 872 -1745 687 -2090 -126 -236 -116 -285 58 -285 104 0 150 -104 150 -337 0 -186 27 -471 59 -634 40 -201 8 -347 -100 -455 -193 -194 -197 -250 -26 -421 110 -111 103 -324 -44 -1268 -182 -1164 -405 -2170 -576 -2595 -187 -464 -409 -1652 -517 -2754 l-108 -1114 -560 -611 c-582 -635 -804 -733 -990 -435 -93 149 -52 213 258 409 391 247 1286 1466 1165 1587 -39 40 -103 24 -141 -35 -417 -643 -891 -1137 -1091 -1137 -126 0 -229 -45 -229 -100 0 -55 -157 -100 -350 -100 -415 0 -417 14 -187 1170 149 753 183 822 417 850 140 16 275 93 300 169 34 103 -23 126 -217 89 -145 -28 -263 -15 -263 28 0 43 202 314 448 603 247 289 525 731 618 983 93 252 248 572 343 710 95 139 307 814 471 1500 233 978 292 1432 271 2098 -15 468 -36 1390 -48 2050 -11 660 -56 1425 -101 1700 -112 698 -44 793 303 425z m12765 -150 c176 -151 434 -489 573 -751 205 -387 241 -561 191 -926 -101 -738 140 -1574 740 -2570 l541 -898 -67 -715 c-67 -710 -321 -1540 -341 -1115 -18 360 -156 484 -394 357 -270 -144 -280 -342 -14 -257 150 47 185 26 143 -86 -32 -81 -12 -234 45 -339 82 -155 -15 -385 -519 -1233 -341 -573 -740 -1200 -887 -1393 -147 -192 -314 -473 -372 -624 -86 -227 -165 -275 -451 -275 -437 0 -548 -163 -214 -316 740 -337 -238 -1139 -2194 -1800 -330 -111 -645 -237 -700 -279 -496 -381 -2482 -704 -3687 -601 -1072 92 -1277 188 -1748 816 -218 292 -559 688 -756 881 -368 360 -443 655 -255 1006 139 261 539 245 801 -32 117 -124 321 -428 452 -675 132 -247 397 -625 588 -838 327 -364 384 -388 901 -383 303 2 683 34 844 69 252 55 312 25 427 -216 74 -154 213 -295 309 -313 239 -46 352 279 139 399 -124 69 -142 139 -70 273 76 141 33 241 -198 462 -270 258 -316 271 -546 148 -315 -169 -327 -324 -19 -246 144 36 279 2 355 -89 103 -125 65 -145 -258 -133 -208 7 -604 -21 -879 -61 l-500 -74 -486 760 c-459 720 -485 796 -476 1415 6 360 61 715 122 789 62 75 83 250 48 391 -73 290 203 847 419 847 73 0 198 155 277 345 85 203 335 476 612 666 454 312 483 319 1026 216 307 -58 769 -187 1026 -288 443 -173 479 -173 658 -11 203 184 486 228 541 84 18 -48 183 -120 367 -160 316 -68 328 -61 221 138 -114 214 -83 246 212 217 91 -9 333 53 537 138 204 85 453 155 553 155 213 0 1093 570 1093 707 0 152 -189 108 -632 -147 -518 -298 -1068 -428 -1068 -253 0 249 506 1183 740 1368 134 104 623 311 1087 459 765 244 1295 577 1149 724 -31 31 -239 -37 -462 -151 -223 -114 -425 -207 -449 -207 -97 0 71 1776 198 2087 176 432 174 677 -6 746 -200 77 -330 -126 -327 -509 4 -407 -363 -825 -722 -822 -182 1 -218 26 -123 86 74 47 222 460 328 917 l194 832 -279 228 c-270 221 -271 228 -53 231 256 4 296 178 80 343 -203 155 -16 378 495 587 562 230 754 213 1120 -101z m-13413 -350 c110 -488 81 -2343 -47 -3024 -84 -448 -250 -803 -657 -1409 -300 -446 -612 -867 -694 -935 -170 -141 -359 -64 -359 145 0 78 -135 279 -300 448 -395 404 -379 556 87 794 500 255 877 707 1029 1236 137 476 172 1868 58 2320 -66 265 -37 325 250 519 446 299 548 284 633 -94z m8689 132 c100 -162 -118 -211 -247 -56 -100 121 -94 149 33 149 86 0 182 -42 214 -93z m-4918 -764 c153 -179 498 -467 768 -640 475 -305 500 -310 797 -157 169 88 307 201 307 252 0 51 214 189 475 306 595 267 1384 219 1871 -115 427 -293 927 -1034 1112 -1649 121 -401 128 -662 42 -1436 -58 -520 -143 -970 -188 -1000 -45 -30 -112 -121 -148 -204 -36 -82 -36 98 1 400 73 603 59 1649 -26 1926 -120 394 -215 26 -207 -800 5 -505 -41 -961 -109 -1076 -94 -162 -118 13 -120 910 -3 1063 -15 1127 -292 1509 -534 737 -770 861 -1511 792 -1842 -171 -2027 -163 -2431 101 -360 235 -634 689 -807 1338 -60 228 -55 234 61 60 70 -105 252 -338 405 -517z m4347 532 c-23 -69 -124 -125 -225 -125 -101 0 -202 56 -225 125 -26 79 56 125 225 125 169 0 251 -46 225 -125z m-1800 -100 c-23 -69 -102 -125 -175 -125 -73 0 -152 56 -175 125 -25 74 46 125 175 125 129 0 200 -51 175 -125z m9418 -21 c155 -81 308 -213 340 -295 47 -123 -26 -139 -428 -91 -356 42 -546 15 -714 -103 -211 -148 -244 -148 -410 3 -242 218 -228 379 44 510 323 156 840 145 1168 -24z m-10443 -54 c-34 -55 -129 -100 -212 -100 -82 0 -122 45 -88 100 34 55 129 100 212 100 82 0 122 -45 88 -100z m-6637 -607 c144 -77 187 -213 187 -597 0 -542 -57 -578 -651 -412 -202 56 -525 28 -993 -88 -682 -168 -992 -390 -1307 -939 -97 -168 -119 -168 -475 2 -475 226 -494 538 -70 1115 242 329 415 446 841 570 295 86 596 158 670 160 74 2 293 93 485 201 363 204 919 199 1313 -12z m6687 -293 c0 -55 -70 -100 -156 -100 -86 0 -128 45 -94 100 34 55 104 100 156 100 52 0 94 -45 94 -100z m10557 -360 c449 -262 589 -543 268 -536 -96 1 -287 67 -425 146 -363 207 -667 186 -729 -50 -63 -239 -423 -269 -510 -42 -123 319 -66 542 139 542 110 0 200 45 200 100 0 191 617 98 1057 -160z m-8553 -900 c225 -215 473 -512 552 -660 164 -308 188 -957 44 -1180 -70 -108 -98 -10 -101 350 -3 456 -45 543 -464 983 -368 386 -540 491 -853 522 -471 47 -582 107 -582 314 0 127 92 148 498 109 409 -40 571 -118 906 -438z m-8727 26 c355 -355 -456 -1366 -1095 -1366 -157 0 -510 117 -784 260 -558 292 -658 603 -297 916 475 411 1836 530 2176 190z m12423 -9 c0 -133 -63 -306 -141 -384 -180 -180 -532 -1315 -619 -1997 -37 -289 -109 -608 -160 -707 -52 -100 -97 -314 -102 -475 -10 -338 -125 -380 -274 -101 -139 259 -133 1277 7 1364 66 41 88 210 55 416 -47 289 -23 357 140 400 109 28 222 168 254 314 199 903 449 1413 692 1413 90 0 148 -95 148 -243z m-1340 -130 c-33 -33 -56 26 -52 131 5 117 28 141 60 61 29 -72 26 -159 -8 -192z m-5260 -85 c0 -185 491 -423 800 -387 138 15 303 32 368 37 65 4 189 79 276 166 109 109 248 138 452 93 499 -110 775 -412 1004 -1101 178 -536 206 -789 158 -1474 -98 -1400 -249 -1679 -591 -1093 -154 264 -191 497 -176 1122 18 741 -1 820 -319 1317 -441 687 -598 810 -943 736 -196 -43 -465 28 -904 237 -609 289 -754 443 -500 532 185 64 375 -29 375 -185z m7777 -523 c22 -66 -32 -119 -119 -119 -87 0 -158 71 -158 158 0 177 215 146 277 -39z m-12071 -1330 c-131 -1236 -416 -2277 -861 -3143 -389 -755 -705 -1223 -774 -1145 -23 27 -2 432 47 899 49 468 104 1030 122 1250 38 456 142 750 266 750 82 0 494 841 494 1009 0 129 718 1406 764 1360 23 -22 -4 -463 -58 -980z m11375 633 c31 -210 -341 -822 -500 -822 -134 0 -92 398 82 764 177 372 368 398 418 58z m-6586 -347 c212 -359 270 -425 537 -608 152 -104 186 -287 207 -1096 20 -752 -4 -971 -107 -971 -72 0 -133 56 -134 125 -17 1081 -532 2475 -915 2475 -191 0 -199 -19 -72 -175 399 -494 505 -820 653 -2013 54 -438 40 -530 -74 -493 -77 26 -151 156 -165 289 -76 724 -285 1318 -619 1760 -637 842 -616 1027 120 1030 320 2 406 -47 569 -323z m11200 -150 c136 -491 132 -626 -20 -622 -124 2 -475 653 -475 880 0 64 88 117 195 117 141 0 225 -105 300 -375z m-10195 175 c0 -55 -42 -100 -94 -100 -52 0 -122 45 -156 100 -34 55 8 100 94 100 86 0 156 -45 156 -100z m200 -606 c0 -113 -45 -178 -100 -144 -55 34 -100 127 -100 206 0 79 45 144 100 144 55 0 100 -93 100 -206z m101 -844 c65 -964 -131 -1125 -246 -203 -71 568 6 899 149 641 42 -76 86 -273 97 -438z m2249 -33 c0 -240 43 -358 125 -342 80 16 125 -93 124 -300 0 -248 -59 -352 -250 -441 l-249 -115 1 615 c2 660 85 1113 187 1012 34 -35 62 -228 62 -429z m-4452 -413 c262 -513 255 -604 -48 -604 -178 0 -250 54 -250 188 0 103 -28 328 -62 500 -90 445 114 398 360 -84z m5602 -604 c121 -78 107 -97 -75 -98 -124 -1 -225 43 -225 98 0 125 106 125 300 0z m-11371 -975 c-21 -316 -85 -776 -141 -1023 -185 -810 -485 -2547 -486 -2820 -1 -147 -74 -340 -163 -428 -88 -89 -138 -247 -111 -352 154 -586 -627 -2683 -1198 -3216 -272 -255 -1318 -686 -1665 -686 -227 0 -318 260 -184 532 58 120 179 479 267 797 120 436 218 601 396 669 337 128 416 305 166 370 -115 31 -209 84 -208 119 11 273 237 990 352 1118 116 127 120 217 26 467 -95 251 -84 448 57 1033 96 398 216 1083 266 1522 50 440 164 911 254 1047 142 217 212 241 555 186 264 -43 489 -13 689 90 468 242 999 753 999 960 0 105 37 190 83 190 46 0 66 -259 46 -575z m5870 276 c352 -377 463 -782 268 -976 -125 -126 -178 -123 -406 27 -144 94 -349 148 -456 120 -108 -28 -213 1 -234 64 -34 99 53 553 181 939 71 214 356 138 647 -174z m801 -1 c0 -55 -70 -100 -156 -100 -86 0 -128 45 -94 100 34 55 104 100 156 100 52 0 94 -45 94 -100z m-1100 -1394 c0 -144 -164 -214 -341 -146 -244 94 -189 240 91 240 138 0 250 -42 250 -94z m12400 -665 c0 -195 73 -286 301 -372 293 -111 300 -129 275 -711 l-26 -597 -696 -128 c-383 -70 -872 -199 -1088 -285 -215 -86 -412 -136 -437 -111 -162 162 1316 2436 1596 2457 41 3 75 -110 75 -253z m-12400 -152 c0 -49 -90 -89 -200 -89 -195 0 -261 106 -140 226 80 81 340 -24 340 -137z m14872 -1369 c141 -90 125 -635 -22 -743 -153 -113 -196 -98 -580 207 -333 265 -347 296 -193 450 173 174 586 218 795 86z m-18372 -1177 c0 -141 44 -339 99 -441 69 -130 56 -265 -44 -459 -279 -537 -292 -999 -40 -1362 418 -599 719 -881 943 -881 227 0 342 -171 342 -508 0 -106 68 -192 150 -192 83 0 150 64 150 142 0 78 26 209 58 292 32 84 -40 248 -165 373 l-222 222 285 -72 c157 -39 449 -214 648 -389 200 -175 505 -395 679 -488 476 -256 403 -768 -151 -1064 -383 -203 -721 -146 -791 134 -80 318 -193 316 -405 -7 -217 -332 -954 -683 -1241 -591 -198 62 -210 113 -148 608 61 485 48 540 -120 540 -103 0 -236 -49 -296 -109 -79 -79 -168 -78 -320 3 -303 162 -277 612 50 897 238 206 254 266 175 643 -134 647 -105 2480 43 2741 171 300 321 285 321 -32z m-1939 -299 c-33 -86 8 -287 90 -445 169 -327 199 -956 50 -1048 -54 -34 -295 26 -536 132 -430 190 -437 201 -395 614 71 713 184 903 538 903 243 0 300 -35 253 -156z m1166 -1169 c-67 -1084 -294 -1501 -912 -1673 -508 -141 -1343 -127 -1551 26 -257 188 -109 472 247 472 328 0 392 192 89 271 -211 55 -251 194 -116 406 64 102 154 97 445 -25 201 -83 454 -152 564 -152 295 0 575 357 650 829 69 432 296 771 515 771 97 0 113 -214 69 -925z m1231 200 c90 -179 350 -518 578 -754 341 -354 387 -445 264 -523 -293 -185 -599 -110 -723 177 -65 151 -199 356 -297 454 -181 180 -231 521 -119 813 84 219 111 203 297 -167z m16338 -806 c169 -485 135 -890 -71 -850 -96 18 -189 131 -206 250 -78 547 -601 532 -1447 -39 -287 -194 -682 -375 -878 -402 -300 -42 -383 -9 -522 203 -161 245 -158 254 106 352 150 55 517 304 816 554 687 574 1393 739 1827 427 149 -107 317 -330 375 -495z m-6652 -1791 c86 -122 156 -389 156 -593 0 -706 -718 -980 -1256 -478 -204 190 -209 189 -545 -158 -243 -251 -424 -348 -644 -347 -355 3 -721 261 -775 548 -62 327 -564 222 -964 -202 -298 -315 -388 -355 -752 -328 l-414 30 0 500 0 501 686 -7 c378 -3 974 36 1325 86 513 74 717 60 1041 -69 221 -89 446 -161 500 -161 168 0 107 275 -77 347 -127 49 3 132 475 303 826 298 1051 303 1244 28z"/>
<path d="M15849 35371 c-118 -287 43 -1381 274 -1864 117 -244 431 -732 698 -1085 268 -353 620 -897 783 -1207 164 -311 337 -632 385 -715 159 -275 311 -860 313 -1207 1 -403 130 -647 288 -549 62 38 92 104 66 147 -26 42 -56 252 -67 468 -23 473 -332 1468 -596 1922 -106 182 -193 372 -193 422 0 51 -332 543 -738 1094 -653 887 -758 1091 -911 1777 -229 1032 -217 1001 -302 797z"/>
<path d="M6569 17536 c-35 -35 -39 -103 -9 -152 64 -103 240 -14 240 122 0 107 -136 125 -231 30z"/>
<path d="M6600 17000 c-79 -49 -111 -122 -70 -163 40 -40 126 -21 190 43 64 64 96 137 70 163 -25 25 -111 6 -190 -43z"/>
<path d="M6600 16200 c0 -55 68 -100 150 -100 83 0 150 45 150 100 0 55 -67 100 -150 100 -82 0 -150 -45 -150 -100z"/>
<path d="M6800 15050 c0 -82 68 -150 150 -150 83 0 150 68 150 150 0 82 -67 150 -150 150 -82 0 -150 -68 -150 -150z"/>
<path d="M6700 13750 c0 -113 70 -154 225 -132 124 18 225 77 225 132 0 55 -101 114 -225 132 -155 22 -225 -19 -225 -132z"/>
<path d="M6800 12750 c-102 -123 -95 -150 38 -150 89 0 162 68 162 150 0 82 -17 150 -38 150 -21 0 -94 -68 -162 -150z"/>
<path d="M6390 11838 c-116 -139 -108 -156 55 -125 104 21 207 93 230 162 59 178 -126 155 -285 -37z"/>
<path d="M6269 10736 c-93 -93 20 -236 187 -236 79 0 144 68 144 150 0 151 -211 206 -331 86z"/>
<path d="M5800 10100 c0 -55 42 -100 94 -100 52 0 122 45 156 100 34 55 -8 100 -94 100 -86 0 -156 -45 -156 -100z"/>
<path d="M5946 9193 c-36 -58 -42 -130 -13 -160 72 -71 267 55 267 173 0 128 -173 119 -254 -13z"/>
<path d="M5165 8853 c-31 -81 -11 -174 44 -208 109 -68 391 125 391 267 0 148 -375 97 -435 -59z"/>
<path d="M5500 7950 c0 -92 56 -148 125 -125 142 47 126 208 -25 258 -55 19 -100 -41 -100 -133z"/>
<path d="M4819 6925 c43 -221 220 -216 263 7 20 102 -32 168 -132 168 -103 0 -152 -66 -131 -175z"/>
<path d="M4125 6728 c-172 -61 -158 -228 19 -228 166 0 297 165 183 230 -43 23 -133 23 -202 -2z"/>
<path d="M18600 15000 c0 -55 45 -100 100 -100 55 0 100 45 100 100 0 55 -45 100 -100 100 -55 0 -100 -45 -100 -100z"/>
<path d="M14500 10000 c0 -55 85 -100 188 -100 103 0 256 -101 339 -225 187 -278 305 -189 217 163 -55 218 -122 262 -405 262 -186 0 -339 -45 -339 -100z"/>
<path d="M18800 8571 c0 -180 279 -426 374 -330 83 83 -92 382 -256 436 -65 22 -118 -26 -118 -106z"/>
<path d="M18019 8121 c-407 -42 -373 -281 36 -250 156 12 337 -23 402 -77 83 -68 138 -52 178 52 75 197 -196 319 -616 275z"/>
<path d="M10631 6664 c93 -141 169 -326 169 -410 0 -87 87 -154 198 -154 128 0 220 -89 261 -250 72 -285 218 -315 497 -102 191 146 190 150 -22 210 -118 33 -238 146 -265 251 -28 105 -134 191 -236 191 -102 0 -230 101 -284 224 -55 124 -186 241 -293 261 -185 35 -186 26 -25 -221z"/>
<path d="M15428 6047 c-96 -203 -265 -378 -396 -410 -208 -53 -591 -611 -489 -713 78 -79 841 592 1102 969 295 426 312 507 103 507 -83 0 -227 -159 -320 -353z"/>
<path d="M3921 15081 c-165 -165 -152 -381 23 -381 197 0 284 167 182 350 -66 118 -111 125 -205 31z"/>
<path d="M3155 15009 c-104 -169 44 -350 176 -218 79 79 79 139 0 218 -78 78 -127 78 -176 0z"/>
<path d="M2500 14700 c0 -55 45 -100 100 -100 55 0 100 45 100 100 0 55 -45 100 -100 100 -55 0 -100 -45 -100 -100z"/>
<path d="M3325 14534 c-174 -70 -157 -234 25 -234 83 0 150 68 150 150 0 82 -11 146 -25 142 -14 -4 -81 -30 -150 -58z"/>
<path d="M9600 9919 c0 -98 329 -419 430 -419 35 0 37 69 5 153 -67 174 -435 400 -435 266z"/>
<path d="M4958 3913 c-43 -69 -51 -153 -18 -186 89 -90 187 42 139 187 -34 101 -58 101 -121 -1z"/>
<path d="M4535 3146 c-33 -85 -35 -180 -4 -210 88 -88 269 61 269 220 0 192 -191 184 -265 -10z"/>
<path d="M4150 2700 c-82 -132 38 -319 157 -246 121 75 121 346 -1 346 -52 0 -122 -45 -156 -100z"/>
<path d="M7323 52325 c259 -295 549 -946 689 -1550 76 -329 188 -575 261 -575 199 0 152 318 -178 1214 -350 949 -441 1086 -723 1086 -185 0 -190 -15 -49 -175z"/>
<path d="M8436 52238 c36 -158 123 -555 192 -881 142 -663 376 -880 366 -340 -9 470 -320 1408 -485 1463 -107 36 -124 -21 -73 -242z"/>
<path d="M19475 52309 c96 -105 468 -602 825 -1105 358 -503 785 -1084 950 -1291 165 -207 783 -1341 1373 -2520 1258 -2511 1644 -3706 1930 -5973 42 -331 110 -516 182 -492 158 51 212 672 59 672 -88 0 -90 35 -6 135 81 99 82 267 3 625 -60 269 -116 625 -125 790 -9 165 -70 335 -137 378 -66 42 -99 134 -72 204 85 222 -675 2553 -973 2983 -251 363 -231 552 66 626 150 38 250 134 250 242 0 98 66 266 147 373 81 107 148 268 150 357 2 90 126 245 276 343 474 310 620 562 624 1072 3 454 -12 480 -306 539 -416 83 -467 284 -153 599 346 346 496 907 352 1319 -118 340 -511 469 -426 140 27 -108 -160 -422 -492 -825 -296 -357 -725 -993 -955 -1413 -598 -1092 -631 -1106 -1018 -419 -289 511 -312 607 -212 885 62 171 113 403 113 514 0 112 112 325 249 472 275 297 442 265 790 -150 l190 -225 198 243 c109 134 239 357 288 496 49 139 212 329 362 422 l273 170 -309 2 c-252 3 -344 -62 -498 -347 -104 -192 -205 -350 -225 -350 -20 0 -151 90 -291 200 -140 110 -312 200 -383 200 -253 0 -766 -542 -984 -1039 l-222 -506 -408 601 c-225 331 -481 662 -569 735 -233 193 -201 267 164 384 288 93 237 106 -450 115 -757 10 -771 6 -600 -181z m5225 -622 c0 -62 -149 -321 -331 -575 -424 -593 -492 -782 -365 -1019 74 -139 193 -186 424 -168 264 21 327 -14 353 -194 46 -319 -257 -719 -613 -811 -310 -81 -317 -94 -507 -933 -90 -403 -760 -492 -762 -101 0 90 -89 298 -196 461 -178 270 -183 319 -46 527 82 126 333 576 556 1001 712 1352 1487 2296 1487 1812z"/>
<path d="M9215 50699 c-173 -165 -315 -345 -315 -400 0 -168 259 -110 450 101 100 110 226 200 281 200 55 0 31 -79 -53 -175 -405 -462 -458 -733 -426 -2196 18 -782 55 -1460 85 -1507 29 -47 60 -539 70 -1093 18 -1023 99 -1363 283 -1178 65 65 63 700 -5 1849 -167 2807 -90 3607 404 4223 112 140 114 202 13 325 -192 231 -439 184 -787 -149z"/>
<path d="M24734 39492 c80 -1481 254 -1944 251 -667 -1 481 -41 875 -89 875 -48 0 -60 225 -27 500 44 373 26 500 -70 500 -103 0 -116 -253 -65 -1208z"/>
<path d="M260 15940 c-82 -213 -15 -282 194 -202 89 34 145 116 123 181 -64 191 -247 203 -317 21z"/>
<path d="M0 15444 c0 -86 45 -128 100 -94 129 80 129 250 0 250 -55 0 -100 -70 -100 -156z"/>
<path d="M24400 11484 c0 -174 117 -516 259 -759 202 -343 245 -520 196 -785 -56 -299 -94 -334 -301 -282 -332 83 -485 -232 -398 -816 75 -500 313 -565 265 -72 -23 235 37 353 274 540 284 225 303 283 304 918 1 512 -36 692 -150 736 -82 32 -178 233 -212 447 -75 467 -237 517 -237 73z"/>
<path d="M525 539 c-289 -140 -525 -320 -525 -399 0 -125 41 -124 295 7 372 193 505 193 505 3 0 -89 91 -150 225 -149 193 0 227 57 240 400 18 471 -32 480 -740 138z"/>
</g>
</svg>