<svg xmlns="http://www.w3.org/2000/svg" version="1.0" width="250" height="525" viewBox="0 0 250.000000 525.000000" preserveAspectRatio="xMidYMid meet">
<metadata>
Created by potrace 1.10, written by Peter Selinger 2001-2011
</metadata>
<g transform="translate(0.000000,525.000000) scale(0.010000,-0.010000)" fill="#555555" stroke="none">
<path d="M3246 52413 c-24 -25 -741 -36 -1593 -26 -1535 18 -1548 17 -1603 -209 -61 -250 13 -26472 97 -34328 28 -2695 68 -6700 88 -8900 20 -2200 68 -4967 107 -6150 39 -1182 68 -2296 64 -2475 l-6 -325 800 0 c467 0 800 42 800 100 0 55 87 100 194 100 107 0 222 -45 256 -100 38 -62 862 -95 2181 -87 1668 10 2039 35 1744 117 -320 90 -375 147 -375 388 0 307 -164 362 -517 173 -272 -145 -472 31 -288 253 105 126 80 207 -144 473 -149 177 -315 437 -368 577 -54 141 -111 1066 -127 2056 -27 1730 -15 1858 306 3299 184 825 415 1606 512 1736 99 132 458 339 810 467 730 264 1007 517 1084 987 l54 334 588 -16 c715 -19 907 -157 545 -394 -183 -120 -255 -256 -255 -478 0 -602 -1114 -2713 -1496 -2834 -201 -63 -220 -121 -506 -1509 -132 -643 -200 -1415 -213 -2436 -18 -1477 -16 -1497 248 -1843 147 -192 267 -396 267 -453 0 -171 334 -295 637 -237 278 53 283 46 211 -284 -72 -336 -71 -337 132 -156 198 179 207 178 316 -25 143 -268 941 -296 1221 -43 170 154 183 154 183 0 0 -91 66 -165 147 -165 81 0 127 56 102 125 -24 69 45 305 154 525 116 232 174 295 139 150 -184 -757 -179 -800 89 -800 206 0 275 71 370 375 64 206 188 532 275 725 284 624 926 2321 1340 3539 301 889 475 1250 686 1428 177 149 397 537 590 1044 336 879 387 1564 210 2790 -52 358 -138 1033 -191 1500 -54 467 -127 939 -165 1049 -37 110 49 20 190 -200 142 -220 259 -539 261 -709 2 -170 70 -530 152 -800 82 -270 149 -660 150 -866 1 -252 46 -375 139 -375 76 0 162 -90 191 -200 54 -208 -6 -5278 -71 -5918 -20 -203 -172 -653 -336 -1002 -165 -348 -398 -964 -519 -1369 -120 -405 -243 -798 -272 -874 -41 -107 80 -137 546 -137 616 0 770 83 839 450 55 298 238 144 209 -175 l-26 -275 1346 0 c829 0 1446 46 1607 119 214 98 280 93 357 -25 82 -124 112 -122 218 16 158 205 538 328 617 200 33 -54 -19 -144 -117 -201 -132 -77 33 -104 650 -106 823 -3 826 -2 767 236 -33 132 -16 267 39 300 181 112 417 -57 417 -300 0 -202 49 -239 320 -239 249 0 293 27 200 120 -227 227 -120 315 115 94 203 -191 290 -209 628 -134 215 49 481 54 589 11 313 -122 1008 -111 883 14 -142 142 -64 495 177 797 l197 248 -30 -575 c-31 -608 35 -684 347 -401 182 165 198 165 319 0 85 -116 263 -174 538 -174 l412 0 -3 1708 -3 1708 -372 -63 c-311 -53 -410 -23 -597 176 l-224 239 399 180 c400 180 400 180 599 -59 l199 -239 4 672 c2 557 -23 662 -147 614 -197 -75 -197 320 0 664 172 302 199 742 40 644 -117 -72 -79 635 62 1182 60 230 44 266 -90 215 -181 -70 -221 158 -76 441 159 310 231 740 112 667 -176 -109 -318 -552 -386 -1199 -36 -349 -104 -579 -162 -550 -256 128 92 1626 454 1954 243 219 272 985 46 1210 -191 191 -191 381 0 572 212 212 186 632 -60 978 -183 257 -195 333 -89 589 67 162 162 270 211 240 49 -31 85 487 80 1176 -6 947 -31 1168 -108 956 -96 -262 -284 -381 -284 -180 0 167 229 605 316 605 46 0 81 146 78 325 l-7 325 -162 -325 c-88 -179 -193 -325 -232 -325 -38 0 -101 248 -139 550 -62 495 -37 608 239 1118 335 618 369 745 189 707 -65 -14 -165 103 -223 260 -90 247 -74 311 118 466 123 100 223 237 223 306 0 82 -64 66 -190 -48 -263 -238 -357 -40 -162 338 160 308 290 419 192 163 -29 -77 -6 -169 53 -206 74 -45 107 338 107 1235 0 1258 -9 1310 -256 1577 l-257 277 257 187 c251 183 256 209 256 1450 0 1247 -3 1265 -266 1475 -306 244 -249 514 72 342 183 -98 194 -66 194 562 0 586 -18 650 -153 539 -210 -175 -647 26 -647 296 0 242 336 440 604 355 183 -58 196 -12 196 687 0 702 -15 752 -225 782 -165 23 -225 99 -225 282 0 183 60 259 225 282 181 26 225 96 225 361 0 294 -26 324 -241 283 -343 -65 -571 345 -302 542 100 73 264 107 363 76 167 -53 180 36 180 1255 0 804 -37 1290 -95 1254 -133 -82 -305 276 -305 635 0 338 177 509 310 300 54 -86 85 126 82 562 -3 516 -28 641 -95 477 -59 -149 -143 -203 -249 -162 -101 38 -135 121 -92 223 36 89 89 241 117 337 28 96 113 175 189 175 201 0 183 938 -24 1254 -148 226 -148 266 0 492 177 270 218 958 67 1109 -53 53 -63 249 -22 445 41 193 88 1745 105 3450 l31 3100 -358 600 c-197 330 -534 758 -748 950 -376 337 -1086 1181 -1432 1700 -91 138 -282 381 -423 541 -327 368 -326 591 1 805 308 203 402 150 229 -129 -99 -157 -101 -259 -10 -460 116 -252 322 -353 322 -157 0 129 369 131 449 2 33 -54 11 -190 -49 -302 -149 -279 -13 -489 163 -250 112 154 140 158 189 30 32 -82 48 -191 37 -240 -12 -50 33 -221 99 -381 91 -222 147 -264 236 -175 197 197 276 130 276 -234 0 -192 45 -350 100 -350 55 0 100 70 100 156 0 86 45 128 100 94 55 -34 100 -217 100 -406 0 -189 45 -344 100 -344 55 0 100 48 100 106 0 58 45 78 100 44 55 -34 100 -169 100 -300 0 -131 45 -266 100 -300 65 -40 100 516 100 1594 l0 1656 -400 0 c-440 0 -458 38 -292 636 100 357 129 382 400 327 288 -57 292 -52 292 390 0 246 -45 447 -100 447 -130 0 -130 470 0 550 55 34 100 193 100 354 l0 291 -9175 -58 c-5046 -32 -9467 -61 -9825 -65 -357 -4 -1113 14 -1680 39 -566 25 -1050 26 -1074 2z m8255 -488 c1 -143 591 -419 659 -308 81 130 236 -93 238 -342 3 -248 -141 -218 -520 108 -180 156 -407 312 -503 347 -214 78 -232 270 -25 270 83 0 150 -34 151 -75z m11145 -190 c-237 -174 -346 -171 -346 8 0 78 79 160 175 182 277 63 373 -43 171 -190z m-19247 90 c0 -41 -113 -127 -250 -191 -194 -89 -249 -88 -249 9 0 68 30 154 67 190 91 91 433 85 432 -8z m12887 -475 c0 -200 0 -200 -86 0 -47 110 -86 290 -86 400 0 200 0 200 86 0 47 -110 86 -290 86 -400z m1541 350 c140 -110 281 -200 314 -200 32 0 59 90 59 200 0 110 34 199 75 198 213 -4 336 -208 351 -582 9 -229 45 -416 81 -416 35 0 269 -156 518 -347 441 -336 716 -429 1502 -504 292 -28 436 19 639 208 458 424 705 287 334 -184 -110 -140 -200 -302 -200 -360 0 -58 -177 -268 -392 -468 -374 -346 -396 -399 -455 -1129 -34 -421 -81 -923 -104 -1116 -23 -192 -43 -385 -45 -429 -5 -103 -381 98 -737 394 -155 129 -350 235 -434 235 -83 0 -335 158 -560 350 -225 193 -463 350 -529 350 -66 0 -361 221 -657 490 -295 270 -636 574 -756 675 -187 158 -222 300 -240 985 -12 440 -15 1036 -6 1325 l15 525 487 0 c335 0 565 -62 740 -200z m3123 -300 c448 -455 478 -515 336 -657 -177 -176 -109 -222 -861 587 -234 252 -425 483 -425 514 0 31 103 56 229 56 142 0 415 -189 721 -500z m-19232 -24 c-17 -196 17 -386 75 -422 174 -107 118 -685 -93 -954 l-196 -250 -2 1033 c-1 784 28 1023 123 991 77 -27 113 -179 93 -398z m3232 -142 c145 -346 71 -734 -140 -734 -74 0 -210 695 -210 1070 0 228 191 45 350 -336z m19450 266 c0 -99 -263 -204 -333 -133 -29 29 -30 113 -2 186 52 136 335 91 335 -53z m-523 -118 c-55 -167 -354 -339 -440 -252 -40 39 14 138 120 218 235 178 373 193 320 34z m-16234 -414 c-131 -342 -402 -112 -289 244 58 183 85 191 210 67 79 -79 115 -219 79 -311z m5857 128 c0 -132 -135 -121 -280 24 -189 189 -140 298 80 180 110 -59 200 -150 200 -204z m-9383 45 c279 -144 301 -191 248 -525 -33 -207 -147 -426 -262 -503 -112 -76 -203 -225 -203 -331 0 -107 -45 -166 -100 -132 -102 63 -145 1650 -45 1650 30 0 193 -71 362 -159z m2033 -141 c-100 -110 -221 -200 -269 -200 -48 0 -40 90 19 200 59 110 180 200 269 200 143 0 141 -23 -19 -200z m1403 -1013 c122 -554 -233 -922 -536 -557 -139 167 -260 915 -181 1120 53 138 100 130 358 -61 163 -121 325 -347 359 -502z m6847 184 c0 -58 -111 -1 -247 126 -136 128 -219 278 -184 334 68 109 431 -278 431 -460z m-13483 -905 l-167 -516 -29 791 c-38 1003 52 1265 231 675 114 -375 110 -503 -35 -950z m15283 664 c0 -459 -32 -638 -103 -567 -92 92 -30 1237 67 1237 20 0 36 -301 36 -670z m-12733 -64 c57 -352 48 -366 -237 -366 -163 0 -322 25 -352 56 -101 100 42 444 184 444 76 0 138 99 138 220 0 339 197 78 267 -354z m2833 384 c-68 -82 -192 -150 -274 -150 -122 0 -127 28 -26 150 68 83 192 150 274 150 122 0 127 -28 26 -150z m2526 -254 c153 -46 468 -264 700 -486 849 -807 1232 -1113 1599 -1279 332 -150 375 -210 374 -525 -2 -347 -5 -350 -125 -114 -194 379 -372 375 -386 -9 -87 -2337 -247 -3549 -533 -4033 -65 -110 -221 -456 -346 -768 -264 -660 -448 -678 -615 -60 -107 397 -112 401 -494 340 -335 -54 -412 -28 -593 201 -114 145 -207 345 -207 445 0 225 -113 296 -553 351 -306 38 -347 16 -348 -183 -1 -124 -27 -338 -58 -476 l-56 -250 216 275 c265 338 360 345 438 33 97 -386 652 -883 927 -830 287 54 291 -24 26 -544 -284 -557 -103 -737 237 -236 l250 367 325 -406 c257 -318 375 -393 551 -349 124 31 351 -9 504 -89 l278 -146 -218 -137 c-269 -167 -282 -288 -31 -288 104 0 316 -169 473 -375 385 -508 638 -716 958 -788 165 -36 379 -220 550 -473 154 -228 310 -437 347 -464 36 -28 31 -242 -11 -475 -78 -427 9 -561 173 -267 60 107 197 147 430 125 362 -35 369 -53 281 -733 -35 -267 -10 -300 225 -300 145 0 357 -84 471 -187 172 -155 198 -262 148 -625 -70 -513 92 -598 229 -121 131 458 314 465 395 14 38 -209 115 -439 172 -510 73 -92 41 -252 -110 -554 -206 -412 -205 -867 1 -867 91 0 -77 -335 -614 -1225 -124 -206 -178 -375 -119 -375 95 0 585 702 1203 1725 161 268 296 375 468 375 133 0 242 -45 242 -100 0 -55 45 -100 100 -100 55 0 100 135 100 300 0 315 -85 375 -271 189 -160 -160 -348 -8 -276 221 41 127 -27 299 -196 500 -141 168 -257 367 -257 443 0 269 -234 644 -440 707 -338 102 -661 455 -879 962 -111 259 -288 498 -392 531 -104 33 -196 136 -204 229 -32 352 37 759 162 960 72 114 160 388 197 608 36 220 241 918 454 1550 213 633 417 1341 454 1574 36 234 97 445 136 469 97 59 1842 -1500 2230 -1993 510 -647 1214 -1350 1353 -1350 139 0 167 -185 67 -444 -47 -124 -93 -135 -199 -47 -75 62 -111 156 -79 207 72 116 -143 384 -308 384 -80 0 -108 -98 -78 -275 76 -453 266 -825 420 -825 114 0 119 -27 26 -120 -66 -66 -120 -198 -120 -293 0 -102 -90 -186 -219 -205 -292 -43 -476 -666 -246 -833 112 -83 136 -224 94 -555 -62 -483 -571 -1594 -730 -1594 -55 0 -92 -34 -83 -75 37 -166 -160 -670 -577 -1480 -242 -469 -439 -936 -439 -1037 0 -101 -68 -240 -150 -308 -83 -68 -150 -185 -150 -260 0 -74 -113 -209 -250 -299 -138 -90 -250 -227 -250 -304 0 -109 -1045 -1501 -1305 -1737 -539 -491 -1665 -1843 -1934 -2322 -429 -765 -1770 -2192 -2686 -2856 -973 -705 -3752 -3470 -4104 -4083 -67 -116 -254 -408 -416 -650 -547 -815 -775 -1547 -902 -2889 l-119 -1250 -162 550 c-469 1595 -378 6217 137 6880 98 127 276 523 395 881 119 357 301 703 406 768 104 66 190 183 190 261 0 149 449 789 675 962 131 100 326 404 510 798 52 110 217 313 367 450 269 247 272 247 204 25 -88 -284 144 -309 315 -34 96 154 91 216 -25 313 -216 179 -188 257 304 862 247 304 450 605 450 669 0 64 124 250 275 412 151 163 320 369 375 458 55 89 275 428 488 753 1141 1739 1094 1639 1368 2933 83 388 64 493 -156 868 -137 235 -250 505 -250 601 0 292 294 535 586 484 182 -31 356 31 561 201 282 235 290 264 171 592 -110 306 -97 414 110 929 173 430 286 584 428 584 134 0 203 80 224 260 47 402 -449 371 -998 -63 -405 -320 -460 -336 -999 -279 -540 56 -588 42 -877 -247 -212 -211 -306 -403 -306 -620 0 -569 -142 -701 -757 -701 -302 0 -717 -70 -921 -155 -432 -180 -975 -673 -1186 -1076 -81 -155 -297 -447 -481 -650 -610 -676 -1741 -3008 -2118 -4369 -227 -820 -340 -1775 -226 -1913 70 -85 33 -284 -121 -654 -123 -293 -256 -571 -296 -618 -142 -164 -994 443 -1206 859 -360 705 -444 1912 -256 3676 149 1403 187 1569 402 1750 304 256 966 1250 966 1450 0 244 600 1406 757 1467 79 30 143 122 143 204 0 352 1389 1627 1774 1628 159 1 920 559 1629 1195 l553 496 -20 880 c-12 484 -24 893 -28 909 -31 115 -457 -260 -661 -584 -239 -378 -269 -394 -641 -334 -379 60 -396 50 -602 -354 -117 -228 -312 -461 -433 -516 -122 -56 -378 -187 -571 -292 -192 -104 -575 -264 -850 -356 -275 -92 -657 -236 -850 -320 -442 -193 -1442 -1221 -1900 -1954 -193 -307 -384 -562 -425 -564 -41 -3 -75 749 -75 1671 l0 1676 620 473 c340 260 768 501 950 535 296 56 486 340 227 340 -233 0 -832 -316 -1251 -659 -514 -421 -600 -273 -154 267 256 312 655 548 1233 730 250 80 216 261 -50 266 -216 3 -214 12 62 238 255 208 434 244 1549 308 694 40 1366 113 1495 162 360 137 1193 877 1420 1262 124 211 258 325 342 293 172 -66 273 26 185 168 -87 141 -33 987 71 1115 45 55 105 348 133 650 245 2599 422 3622 618 3574 55 -13 100 -95 100 -183 0 -203 247 -505 357 -437 46 29 56 126 21 217 -82 215 103 143 824 -318 303 -194 589 -353 634 -353 45 0 133 -112 196 -250 62 -137 185 -250 272 -250 138 0 136 38 -23 315 -100 173 -318 397 -486 498 -167 100 -398 310 -513 466 -119 161 -383 334 -610 403 -221 66 -429 192 -463 280 -47 123 -20 143 115 89 97 -40 300 -109 452 -155z m-3261 -942 c-32 -85 -105 -154 -162 -154 -146 0 -128 274 22 328 170 61 211 10 140 -174z m-1370 -417 c-55 -145 -74 -345 -43 -444 67 -210 -279 -443 -520 -350 -217 83 -90 549 227 832 337 301 460 287 336 -38z m905 113 c0 -82 -44 -150 -97 -150 -53 0 -71 68 -39 150 31 83 75 150 97 150 21 0 39 -67 39 -150z m1100 -100 c0 -137 -41 -250 -92 -250 -117 0 -192 213 -133 375 80 216 225 136 225 -125z m-3004 -43 c57 -107 104 -402 104 -657 0 -423 -20 -461 -223 -432 -404 58 -469 1282 -68 1282 46 0 131 -87 187 -193z m3486 26 c-48 -251 -282 -285 -282 -41 0 123 65 208 157 208 93 0 144 -68 125 -167z m10793 -457 c234 -209 549 -435 700 -501 151 -67 298 -144 325 -173 28 -29 253 -230 500 -448 496 -436 900 -905 726 -844 -61 22 -328 246 -594 498 -265 251 -684 587 -932 747 -882 568 -1495 1093 -1498 1282 -2 101 180 -31 773 -561z m-3625 124 c100 -110 158 -200 131 -200 -28 0 -131 90 -231 200 -100 110 -158 200 -131 200 28 0 131 -90 231 -200z m-12072 -657 c-70 -215 -173 -391 -228 -392 -173 -2 -172 450 2 715 241 369 385 164 226 -323z m822 127 c0 -126 -54 -284 -120 -350 -181 -181 -480 -147 -478 55 2 254 158 462 287 382 61 -38 111 -21 111 37 0 58 45 106 100 106 55 0 100 -103 100 -230z m2500 30 c0 -55 -45 -100 -100 -100 -55 0 -100 45 -100 100 0 55 45 100 100 100 55 0 100 -45 100 -100z m16997 -390 c-3 -122 -51 -103 -200 76 -257 308 -254 497 3 264 110 -100 199 -253 197 -340z m-15897 -16 c0 -52 -67 -94 -150 -94 -155 0 -199 118 -86 231 80 80 236 -11 236 -137z m-5270 -466 c-209 -160 -330 -75 -330 233 0 246 3 246 245 69 218 -161 228 -193 85 -302z m10481 -305 c-121 -216 -206 60 -134 433 l57 294 79 -291 c43 -161 42 -357 -2 -436z m-8178 -50 c-83 -434 -105 -446 -354 -197 -185 186 -199 251 -97 474 99 217 148 241 315 152 157 -85 185 -171 136 -429z m563 234 c78 -146 65 -232 -53 -350 -238 -238 -355 -189 -281 118 115 483 177 526 334 232z m-2096 -307 c0 -200 -50 -300 -150 -300 -151 0 -214 402 -83 533 143 144 233 54 233 -233z m799 150 c0 -55 -113 -152 -250 -216 -224 -104 -249 -94 -249 100 0 164 61 216 250 216 138 0 250 -45 249 -100z m3301 44 c0 -58 -45 -78 -100 -44 -55 34 -100 82 -100 106 0 24 45 44 100 44 55 0 100 -48 100 -106z m16255 -203 c88 -170 137 -332 110 -360 -46 -46 -365 490 -365 614 0 137 108 29 255 -254z m-20987 -237 c-53 -159 -368 -187 -368 -33 0 75 91 136 201 136 111 0 186 -46 167 -103z m10244 -221 c-118 -203 -146 -138 -50 113 35 90 84 142 110 116 25 -26 -1 -129 -60 -229z m-5801 -326 c-172 -130 -203 -251 -184 -707 13 -302 -16 -572 -63 -600 -86 -50 -178 1585 -97 1724 24 41 158 -1 297 -93 l255 -166 -208 -158z m14989 193 c0 -55 -42 -100 -94 -100 -52 0 -122 45 -156 100 -34 55 8 100 94 100 86 0 156 -45 156 -100z m-16481 -168 c-72 -29 -159 -26 -192 8 -33 33 26 56 131 52 117 -5 141 -28 61 -60z m7190 -604 c-85 -147 -103 -115 -106 180 -2 197 31 393 72 435 119 121 149 -419 34 -615z m12481 -53 c6 -151 57 -275 115 -275 65 0 80 -139 38 -375 -61 -352 -56 -363 88 -175 226 296 318 109 178 -361 -76 -251 -197 -431 -312 -461 -135 -35 -219 -205 -303 -613 -64 -311 -153 -677 -197 -815 -201 -621 -82 667 155 1669 172 726 220 1099 150 1169 -56 56 -98 307 -92 557 8 377 24 412 90 205 44 -137 85 -374 90 -525z m-21209 1 c27 -143 -8 -160 -194 -91 -317 118 -373 341 -74 298 129 -18 250 -112 268 -207z m819 -192 c0 -107 -30 -106 -350 16 -144 55 -235 143 -202 196 67 110 552 -76 552 -212z m676 -1 c151 -402 -21 -818 -359 -866 -222 -31 -229 -13 -167 450 36 266 83 539 104 608 73 231 301 128 422 -192z m2334 -54 c-96 -165 -104 -163 -107 29 -3 232 124 412 177 252 19 -56 -13 -183 -70 -281z m-5310 -229 c0 -540 -145 -657 -302 -243 -166 436 -124 743 102 743 173 0 200 -67 200 -500z m844 -70 c97 -253 -52 -1039 -208 -1099 -287 -110 -418 160 -418 862 l0 683 281 -141 c155 -77 310 -214 345 -305z m3072 -109 c-25 -378 -251 -720 -386 -585 -41 41 -16 111 55 155 72 44 155 268 186 498 68 505 179 453 145 -68z m8797 254 c109 -204 104 -212 -47 -88 -91 76 -166 177 -166 225 0 153 89 96 213 -137z m8153 -407 c35 -213 19 -368 -37 -368 -96 0 -329 644 -329 908 0 281 307 -171 366 -540z m-6170 -173 c557 -669 648 -859 234 -487 -410 368 -623 629 -627 767 -2 69 -76 125 -165 125 -115 0 -145 -61 -106 -213 62 -235 -285 -1659 -666 -2737 -136 -385 -294 -925 -351 -1200 -129 -627 -601 -1694 -609 -1379 -3 122 89 460 205 750 284 711 544 1621 634 2225 40 273 156 723 256 1000 101 277 213 707 248 954 146 1008 252 1030 947 195z m6901 -39 c-3 -203 -6 -203 -150 -12 -81 107 -146 287 -144 400 3 203 6 203 150 12 81 -107 146 -287 144 -400z m-19397 244 c0 -125 -106 -125 -300 0 -121 78 -107 97 75 98 124 1 225 -43 225 -98z m7404 -1492 c-310 -615 -475 -796 -349 -383 145 474 596 1304 626 1151 17 -87 -108 -433 -277 -768z m-9754 -66 c0 -979 -196 -990 -214 -12 -10 543 21 768 100 741 71 -23 114 -301 114 -729z m21315 203 c-35 -255 -24 -431 26 -401 266 165 275 -800 14 -1594 -108 -330 -228 -735 -265 -900 l-69 -300 -85 380 c-64 286 -38 520 107 947 199 593 167 964 -41 462 l-120 -289 -48 324 c-27 178 10 493 82 700 72 207 132 429 132 494 3 184 189 632 263 632 36 0 38 -205 4 -455z m-1405 82 c-33 -33 -56 26 -52 131 5 117 28 141 60 61 29 -72 26 -159 -8 -192z m3440 -116 c0 -213 -66 -539 -146 -725 l-146 -336 -4 567 c-2 312 23 638 57 725 110 288 239 164 239 -231z m-22757 -303 c165 -183 164 -197 -28 -300 -291 -156 -315 -141 -315 192 0 347 98 378 343 108z m16582 -762 c408 -379 444 -446 242 -446 -74 0 -278 180 -455 400 -395 492 -290 514 213 46z m-16325 -93 c0 -27 -146 -119 -325 -205 l-325 -158 236 205 c221 192 414 265 414 158z m-1000 -753 c0 -55 -48 -100 -106 -100 -58 0 -78 45 -44 100 34 55 82 100 106 100 24 0 44 -45 44 -100z m18450 -100 c34 -55 17 -100 -38 -100 -55 0 -128 45 -162 100 -34 55 -17 100 38 100 55 0 128 -45 162 -100z m952 -838 c-64 -309 -138 -562 -165 -562 -27 0 -36 313 -18 696 26 582 53 673 166 561 109 -108 112 -239 17 -695z m2491 -407 c11 -453 -180 -177 -255 368 -88 646 67 990 171 377 42 -247 80 -583 84 -745z m-10803 558 c-68 -22 -183 42 -256 142 -225 308 -149 394 122 139 163 -153 212 -255 134 -281z m8833 -1147 c-239 -609 -274 -651 -376 -461 -77 145 -85 404 -25 828 129 903 143 924 421 593 l244 -289 -264 -671z m904 -636 c-66 -177 -427 69 -427 291 0 112 -52 153 -150 115 -178 -68 -183 -35 -44 330 l106 279 280 -448 c154 -246 260 -501 235 -567z m2472 745 c-4 -293 -132 -575 -263 -575 -156 0 -370 464 -281 608 86 139 545 110 544 -33z m-1199 -431 c0 -212 -40 -331 -100 -294 -55 34 -100 194 -100 356 0 162 45 294 100 294 55 0 100 -160 100 -356z m-1882 -319 c62 -151 103 -353 91 -449 -15 -121 27 -156 135 -115 123 48 155 -11 153 -275 l-4 -336 -184 221 c-101 121 -209 196 -238 166 -123 -122 -276 387 -214 714 79 421 114 431 261 74z m-2506 -92 c-87 -150 -106 -155 -109 -25 -3 169 102 320 173 250 23 -24 -5 -125 -64 -225z m3588 -504 c0 -236 -247 -85 -285 174 -30 207 -14 221 125 105 88 -73 160 -198 160 -279z m385 -879 c-7 -167 -16 -171 -54 -25 -25 96 -82 175 -127 175 -101 0 -203 368 -123 447 85 86 313 -362 304 -597z m-3382 8 c-136 -411 -314 -390 -265 32 44 382 158 554 284 428 66 -66 60 -221 -19 -460z m-16361 90 c34 -139 8 -352 -60 -475 -117 -212 -126 -204 -192 177 -38 220 -48 434 -23 475 89 149 213 70 275 -177z m21858 96 c0 -24 -70 -44 -156 -44 -86 0 -128 46 -93 102 57 92 249 48 249 -58z m-2800 -194 c0 -137 -45 -250 -100 -250 -55 0 -100 113 -100 250 0 138 45 250 100 250 55 0 100 -112 100 -250z m-1700 -162 c0 -103 -34 -187 -75 -185 -158 7 -442 288 -385 381 99 161 460 7 460 -196z m3432 172 c166 -432 -341 -856 -599 -503 -143 195 -174 468 -66 576 122 123 611 69 665 -73z m-21377 -712 c-36 -242 -145 -537 -242 -656 -171 -212 -175 -205 -147 359 18 378 89 644 203 771 220 242 273 107 186 -474z m18511 396 c33 -85 122 -132 197 -103 155 60 179 -120 44 -333 -77 -121 -128 -117 -348 27 -286 187 -284 183 -198 407 77 202 228 203 305 2z m1632 -519 c3 -205 -182 -142 -354 121 -224 341 -74 557 168 243 101 -132 185 -295 186 -364z m-2469 165 c113 -179 18 -690 -129 -690 -175 0 -395 449 -334 682 67 254 306 258 463 8z m-11117 -300 c-62 -176 -116 -707 -120 -1180 -8 -849 -10 -856 -157 -520 -251 576 -224 1317 63 1736 291 425 370 412 214 -36z m476 -1323 c15 -1265 -168 -2834 -375 -3217 l-163 -300 -32 550 c-18 302 19 723 81 934 63 210 114 930 113 1600 0 669 50 1396 111 1616 l112 400 71 -300 c39 -165 76 -742 82 -1283z m9512 1333 c0 -111 -67 -200 -150 -200 -152 0 -205 212 -83 333 126 127 233 66 233 -133z m2029 -601 c-46 -173 -106 -202 -318 -149 -383 94 -418 165 -298 600 l109 394 281 -315 c194 -217 264 -382 226 -530z m871 386 c0 -110 -212 -106 -390 6 -82 53 -112 160 -72 263 62 164 77 163 264 -6 109 -98 198 -217 198 -263z m2437 64 c120 -120 130 -215 48 -450 -135 -385 -254 -306 -302 200 -41 431 16 488 254 250z m-1337 -255 c0 -52 -45 -94 -100 -94 -55 0 -100 70 -100 156 0 86 45 128 100 94 55 -34 100 -104 100 -156z m-21200 -200 c0 -168 -39 -282 -87 -252 -80 49 -36 558 49 558 21 0 38 -138 38 -306z m19807 2 c270 -144 241 -296 -57 -296 -183 0 -250 53 -250 200 0 228 38 240 307 96z m3293 0 c0 -57 -94 -288 -208 -512 -157 -307 -237 -379 -323 -293 -86 86 -84 157 8 287 68 94 167 273 221 397 99 229 302 310 302 121z m-6034 -339 c-33 -86 -111 -157 -174 -157 -62 0 -86 71 -53 158 34 87 61 209 61 270 0 82 31 81 113 -1 63 -63 86 -184 53 -270z m-2386 -32 c-236 -485 -325 -625 -396 -625 -117 0 -106 67 69 405 83 162 200 295 258 295 58 0 89 -34 69 -75z m-9706 -350 c162 -206 237 -665 168 -1031 -35 -189 -93 -344 -129 -344 -149 0 -334 460 -385 962 -46 439 -28 538 96 538 83 0 196 -56 250 -125z m16530 -250 c80 -206 161 -420 180 -475 20 -55 -81 66 -224 270 -263 373 -327 580 -180 580 44 0 145 -169 224 -375z m-21787 -993 c-172 -337 -299 -874 -315 -1332 -4 -133 -16 -133 -102 0 -53 83 -98 679 -98 1325 l-2 1176 355 -394 356 -393 -194 -382z m5953 235 c15 -558 -14 -767 -105 -767 -261 0 -342 206 -248 626 51 226 85 504 77 618 -25 321 -3 376 131 331 83 -27 132 -299 145 -808z m17475 397 c-37 -145 -104 -264 -149 -264 -150 0 -215 407 -89 559 174 209 319 28 238 -295z m-2295 129 c0 -77 -79 -155 -175 -174 -172 -33 -244 179 -106 316 105 105 281 16 281 -142z m-650 7 c0 -55 -42 -100 -94 -100 -52 0 -122 45 -156 100 -34 55 8 100 94 100 86 0 156 -45 156 -100z m-1600 -415 c0 -150 -277 -90 -339 73 -115 299 -61 373 139 192 110 -100 200 -219 200 -265z m-12353 -80 c144 -278 112 -1305 -41 -1305 -209 0 -306 309 -306 976 0 771 80 846 347 329z m11009 -51 c173 -263 124 -454 -115 -454 -164 0 -341 381 -267 575 73 192 205 150 382 -121z m4758 -837 l-163 -341 -86 364 c-108 457 78 776 287 491 102 -140 95 -235 -38 -514z m-1464 383 c298 -113 318 -456 37 -632 -326 -204 -1121 335 -936 634 79 127 563 126 899 -2z m-13689 -318 c77 -124 61 -1094 -19 -1174 -26 -25 -116 23 -200 107 -118 118 -137 271 -85 669 68 508 161 630 304 398z m15717 -184 c87 -139 96 -260 30 -384 -328 -612 -718 -476 -521 183 133 443 298 511 491 201z m-18331 -312 c501 -530 569 -754 586 -1936 18 -1173 -65 -1689 -262 -1624 -66 22 -149 284 -183 582 -149 1291 -566 2292 -955 2292 -165 0 -170 235 -13 668 155 429 434 435 827 18z m530 -42 c-33 -34 -115 44 -181 172 -114 224 -111 226 61 61 100 -95 154 -200 120 -233z m14381 -44 c270 0 338 -269 92 -364 -82 -31 -150 -162 -150 -291 0 -382 -154 -362 -385 49 -226 403 -196 759 56 662 80 -31 254 -56 387 -56z m3987 -92 c85 -138 -130 -629 -245 -558 -112 69 -136 481 -33 583 93 94 211 83 278 -25z m-17787 -108 c23 0 42 -116 42 -257 0 -373 -339 -287 -383 97 -27 234 -2 276 133 224 92 -35 185 -64 208 -64z m12642 -369 c0 -79 -119 -131 -300 -131 -338 0 -382 144 -129 424 163 180 178 180 300 14 71 -97 129 -235 129 -307z m-1600 116 c0 -312 -260 -430 -474 -216 -131 131 -136 186 -30 314 210 253 504 196 504 -98z m782 86 c-48 -251 -282 -285 -282 -41 0 123 65 208 157 208 93 0 144 -68 125 -167z m2903 35 c81 -97 68 -190 -48 -356 -148 -212 -168 -215 -344 -56 -143 129 -163 213 -86 357 117 218 323 242 478 55z m-14153 -212 c129 -98 172 -241 150 -500 -31 -354 -37 -358 -257 -203 -159 112 -225 259 -225 503 0 375 56 409 332 200z m-6607 -927 c-24 -484 -62 -898 -84 -921 -23 -23 -41 396 -41 931 0 535 38 949 84 921 47 -29 65 -448 41 -931z m21513 842 c153 -111 160 -167 52 -403 -68 -150 -150 -259 -182 -242 -32 17 -178 91 -325 165 -235 118 -254 163 -159 371 120 264 347 304 614 109z m2462 -165 c0 -52 -45 -122 -100 -156 -55 -34 -100 8 -100 94 0 86 45 156 100 156 55 0 100 -42 100 -94z m-6400 -131 c0 -117 -146 -88 -187 38 -21 61 13 95 75 75 61 -21 112 -72 112 -113z m5800 19 c0 -58 -45 -78 -100 -44 -55 34 -100 82 -100 106 0 24 45 44 100 44 55 0 100 -48 100 -106z m-3158 -55 c167 -64 224 -539 65 -539 -112 0 -407 283 -407 390 0 72 104 210 158 210 14 0 97 -27 184 -61z m2358 -413 c0 -20 -71 -173 -158 -341 l-158 -305 -240 225 c-224 211 -251 505 -75 819 37 66 631 -308 631 -398z m-4300 274 c0 -55 -90 -100 -200 -100 -110 0 -200 45 -200 100 0 55 90 100 200 100 110 0 200 -45 200 -100z m-10959 -328 c75 -120 69 -202 -22 -293 -103 -103 -145 -99 -222 22 -133 211 -120 523 21 476 65 -21 165 -114 223 -205z m11859 78 c160 -192 -3 -194 -256 -3 -163 123 -168 147 -31 150 89 2 219 -64 287 -147z m1617 -273 c-74 -74 -87 -35 -44 131 35 135 81 181 106 106 24 -72 -4 -179 -62 -237z m483 -83 c0 -107 -60 -194 -133 -194 -212 0 -268 111 -158 316 120 225 291 153 291 -122z m-16866 -69 c26 -41 79 -293 119 -559 l72 -484 -237 134 c-131 74 -254 142 -273 152 -19 10 -4 202 34 425 64 379 176 509 285 332z m13917 -126 c99 -110 152 -230 116 -266 -73 -73 -467 250 -467 382 0 146 162 93 351 -116z m-788 -154 c119 -183 136 -286 59 -363 -186 -186 -422 -10 -422 315 0 370 139 388 363 48z m-2263 -4 c0 -88 88 -272 196 -409 188 -238 189 -262 26 -511 -139 -212 -177 -229 -204 -91 -68 352 -184 151 -195 -337 -7 -279 -65 -668 -130 -865 -99 -299 -134 -330 -213 -189 -198 354 -25 1984 260 2445 104 168 260 142 260 -43z m6550 -41 c100 -110 149 -200 109 -200 -143 0 -459 209 -459 304 0 156 156 110 350 -104z m1226 -58 c14 -106 -18 -259 -72 -342 -160 -248 -411 80 -294 383 103 269 328 243 366 -41z m-19176 -92 c0 -270 -104 -308 -403 -148 -251 134 -143 398 164 398 188 0 239 -53 239 -250z m2300 -100 c0 -131 -48 -268 -107 -304 -154 -95 -175 -36 -120 328 55 363 227 345 227 -24z m582 24 c17 -151 9 -274 -17 -274 -205 0 -365 161 -365 368 0 354 340 271 382 -94z m13367 28 c86 -139 -129 -502 -296 -502 -91 0 -134 -97 -122 -275 15 -216 -29 -282 -206 -307 -258 -37 -273 50 -106 606 133 444 573 732 730 478z m751 -554 c0 -174 -252 -256 -383 -125 -74 74 -76 167 -5 299 81 152 131 167 245 72 79 -65 143 -176 143 -246z m-1839 94 c-34 -87 -61 -200 -61 -250 0 -141 -230 -110 -479 65 -294 206 -195 343 246 343 282 0 342 -32 294 -158z m2389 -242 c34 -55 -31 -100 -144 -100 -113 0 -206 45 -206 100 0 55 65 100 144 100 79 0 172 -45 206 -100z m-18050 -201 c0 -44 208 -218 462 -386 323 -214 639 -326 1054 -373 453 -51 586 -103 564 -218 -67 -338 -346 -371 -769 -91 -224 148 -485 269 -580 269 -95 0 -366 189 -602 421 -442 434 -541 616 -279 515 83 -31 150 -93 150 -137z m12652 -125 c42 -223 -6 -484 -152 -825 -194 -451 -225 -480 -325 -302 -182 326 -164 783 45 1128 248 411 355 410 432 -1z m1444 83 c162 -301 68 -634 -132 -469 -142 118 -204 712 -74 712 42 0 135 -109 206 -243z m-12971 -107 c-37 -148 -351 -122 -403 33 -30 92 30 123 192 100 130 -18 225 -78 211 -133z m1625 50 c35 -57 -51 -100 -200 -100 -149 0 -235 43 -200 100 34 55 124 100 200 100 76 0 166 -45 200 -100z m14523 -232 c-21 -65 -137 -132 -256 -150 -255 -37 -418 258 -212 385 167 103 521 -74 468 -235z m1082 -59 c-104 -170 -855 -139 -855 35 0 94 130 155 375 176 410 35 585 -42 480 -211z m-18255 -259 c187 -192 403 -350 480 -350 224 0 1124 -540 1082 -650 -20 -55 -99 -84 -174 -65 -76 19 -349 85 -607 147 -317 76 -501 183 -569 331 -54 120 -237 300 -406 399 -168 100 -306 261 -306 360 0 261 120 220 500 -172z m19100 100 c0 -82 -62 -150 -138 -150 -76 0 -194 68 -262 150 -105 127 -84 150 138 150 166 0 262 -55 262 -150z m-9746 -225 c-38 -96 -132 -418 -210 -715 -77 -297 -164 -563 -192 -592 -92 -91 -55 361 52 642 58 154 66 310 17 359 -50 50 -140 -87 -208 -316 -116 -386 -206 -476 -343 -340 -137 137 569 1137 803 1137 100 0 127 -56 81 -175z m10406 -180 c71 -281 10 -400 -153 -299 -134 83 -142 554 -9 554 54 0 127 -115 162 -255z m-23160 -1 c0 -86 -45 -128 -100 -94 -55 34 -100 104 -100 156 0 52 45 94 100 94 55 0 100 -70 100 -156z m13156 -198 c-98 -520 -440 -1268 -549 -1200 -56 34 -15 289 99 622 107 310 194 646 194 748 0 103 71 184 161 184 130 0 149 -68 95 -354z m-9809 -184 c182 -237 398 -375 730 -465 622 -168 653 -190 516 -356 -180 -217 -429 -170 -843 159 -208 165 -432 300 -498 300 -115 0 -352 407 -352 605 0 193 197 86 447 -243z m18928 10 c69 -53 125 -160 125 -237 0 -118 -45 -117 -287 8 -353 183 -474 93 -238 -177 167 -191 167 -197 -8 -133 -101 37 -228 67 -282 67 -108 0 -19 377 135 569 96 120 326 80 555 -97z m-3075 39 c0 -102 -305 -240 -374 -170 -25 25 -16 94 20 152 80 129 354 143 354 18z m2099 -188 c1 -195 -37 -218 -274 -167 -471 104 -525 133 -525 289 0 113 100 145 399 128 342 -20 400 -56 400 -250z m-6047 74 c153 -247 247 -1430 144 -1810 -129 -479 -343 -414 -263 79 31 188 -2 508 -73 713 -199 571 -43 1397 192 1018z m3348 1 c0 -85 -399 -298 -557 -298 -132 0 -11 185 182 278 292 141 375 145 375 20z m1500 -60 c0 -115 -61 -145 -211 -106 -152 40 -225 1 -262 -138 -28 -107 -91 -194 -141 -194 -50 0 -21 135 64 300 167 323 550 420 550 138z m-17382 -563 c90 -344 145 -643 123 -666 -56 -58 -440 302 -559 524 -98 183 60 767 207 767 36 0 139 -281 229 -625z m10966 370 c64 -140 116 -398 116 -573 l0 -318 -306 306 c-278 278 -294 330 -184 573 152 333 227 335 374 12z m4283 -445 c202 0 244 -29 160 -113 -107 -107 -827 -43 -827 74 0 29 52 149 115 267 l115 215 82 -222 c57 -154 164 -221 355 -221z m-1967 94 c0 -52 -45 -94 -100 -94 -55 0 -100 70 -100 156 0 86 45 128 100 94 55 -34 100 -104 100 -156z m1100 -65 c0 -77 -122 -129 -300 -129 -290 0 -415 145 -189 220 235 79 489 31 489 -91z m1825 21 c14 -55 -76 -114 -200 -132 -237 -34 -313 130 -100 215 167 67 270 39 300 -83z m-15150 -252 c382 -347 408 -437 100 -343 -247 75 -675 432 -675 562 0 168 259 69 575 -219z m-1975 52 c0 -82 -18 -150 -39 -150 -22 0 -66 68 -97 150 -32 83 -14 150 39 150 53 0 97 -67 97 -150z m11900 -669 c0 -256 -147 -225 -520 108 -283 252 -306 309 -186 454 125 151 161 142 421 -108 157 -150 285 -354 285 -454z m6045 494 c-38 -124 -148 -405 -244 -625 -97 -220 -232 -647 -301 -950 -194 -849 -322 -952 -249 -200 41 416 178 892 381 1325 305 646 556 921 413 450z m-3747 -179 c-135 -252 -298 -340 -298 -160 0 273 115 452 256 398 103 -40 114 -103 42 -238z m4901 207 c116 -74 123 -121 29 -215 -93 -93 -154 -91 -274 8 -299 248 -94 421 245 207z m-6715 -581 c75 -333 66 -422 -39 -422 -201 0 -244 130 -178 537 72 443 94 432 217 -115z m7497 327 c17 -15 -6 -168 -51 -340 -78 -301 -89 -307 -305 -155 -218 152 -296 442 -157 580 57 58 417 -2 513 -85z m-19631 -49 c-34 -55 -82 -100 -106 -100 -24 0 -44 45 -44 100 0 55 48 100 106 100 58 0 78 -45 44 -100z m1950 -360 c0 -150 -407 6 -539 207 l-161 246 350 -206 c192 -114 350 -225 350 -247z m14082 156 c266 -338 266 -826 -1 -876 -268 -51 -515 417 -438 830 79 421 137 427 439 46z m-17469 -71 c146 -369 131 -753 -43 -1084 -136 -260 -144 -232 -160 542 -10 450 8 817 39 817 31 0 105 -124 164 -275z m-420 -200 c-6 -301 -24 -335 -93 -175 -119 278 -119 550 0 550 55 0 97 -169 93 -375z m16453 -100 c47 -158 21 -244 -89 -286 -103 -40 -157 -186 -158 -425 0 -461 -179 -1114 -304 -1114 -180 0 -31 1899 176 2235 70 112 291 -129 375 -410z m6029 264 c279 -104 285 -286 22 -620 l-203 -259 -347 205 c-381 225 -392 253 -247 635 104 274 143 276 775 39z m-19575 -357 c0 -69 -88 -172 -196 -230 -157 -84 -216 -66 -300 90 -57 107 -104 290 -104 407 0 209 5 209 300 35 165 -97 300 -233 300 -302z m16779 -629 c68 -287 71 -510 9 -625 -197 -368 -288 -159 -281 647 7 848 70 843 272 -22z m-7898 503 c25 -75 -12 -112 -87 -87 -72 24 -151 103 -175 175 -25 75 12 112 87 87 72 -24 151 -103 175 -175z m11475 51 c147 -108 166 -172 79 -260 -179 -182 -524 -28 -463 206 61 235 126 244 384 54z m-19860 -132 c-2 -41 -95 -232 -206 -425 l-201 -350 56 338 c30 185 55 376 55 425 0 48 68 87 150 87 83 0 148 -34 146 -75z m13662 -881 c35 -189 35 -418 -1 -511 -58 -152 -76 -150 -197 25 -227 330 -394 909 -318 1104 69 177 84 175 262 -44 104 -128 218 -386 254 -574z m-15119 31 c-37 -289 -106 -629 -153 -757 -47 -127 -87 -329 -89 -450 -2 -120 -75 -308 -162 -418 -147 -185 -154 -132 -104 718 37 615 111 1003 224 1175 262 401 359 310 284 -268z m10574 310 c224 -258 243 -485 41 -485 -161 0 -354 297 -354 543 0 214 92 197 313 -58z m1393 112 c188 -101 186 -119 -72 -625 l-266 -522 -130 300 c-141 327 -177 777 -71 883 97 97 318 82 539 -36z m9141 -202 c-37 -60 -133 -56 -256 10 -108 58 -170 148 -138 200 37 60 133 56 256 -10 108 -58 170 -148 138 -200z m-23066 -603 c35 -831 -50 -1592 -178 -1592 -88 0 -190 1916 -118 2229 22 99 91 162 153 142 65 -22 125 -345 143 -779z m11568 608 c18 0 10 -87 -18 -193 -58 -221 -295 -346 -384 -202 -106 172 60 514 220 452 82 -31 164 -57 182 -57z m-2213 -489 c88 -72 279 -385 426 -696 261 -551 265 -595 203 -1914 -35 -743 -157 -1868 -272 -2501 -115 -632 -245 -1404 -289 -1715 -44 -311 -115 -621 -157 -690 -42 -69 -90 -280 -105 -469 -33 -425 -74 -468 -307 -333 -102 59 -314 153 -471 209 -267 95 -281 126 -209 475 41 205 85 643 95 973 72 2198 66 2863 -33 3350 -61 303 -136 711 -165 907 -51 336 -556 993 -764 993 -48 0 -88 68 -88 150 0 334 654 84 802 -306 105 -276 298 -328 298 -81 0 90 -164 318 -364 506 -250 236 -331 376 -260 447 171 171 454 51 683 -288 119 -176 244 -292 278 -257 113 112 68 217 -252 581 -207 235 -281 392 -216 457 146 146 590 -53 787 -354 146 -224 344 -266 344 -74 0 123 -470 619 -587 619 -185 0 -129 178 110 345 204 143 228 141 288 -23 37 -98 138 -238 225 -311z m5260 -261 c3 -171 -31 -157 -237 100 -181 225 -214 333 -132 432 87 105 134 85 237 -100 71 -128 130 -322 132 -432z m4416 -28 c-56 -104 -81 -511 -56 -906 24 -394 4 -716 -45 -716 -261 0 -284 972 -36 1572 96 234 189 383 206 332 18 -51 -14 -178 -69 -282z m-17814 -597 c-1 -738 -107 -1150 -256 -1000 -88 88 -87 1522 2 1666 170 274 256 48 254 -666z m13058 429 c237 -361 18 -593 -345 -363 -91 58 -116 176 -73 348 82 327 211 331 418 15z m2083 -367 c-51 -177 -144 -339 -207 -360 -182 -60 -204 297 -36 594 201 356 367 197 243 -234z m1103 161 c34 -139 17 -338 -40 -443 -56 -106 -102 -313 -102 -461 0 -219 -26 -247 -140 -152 -236 196 -278 591 -101 962 195 411 297 436 383 94z m-4844 -277 c-2 -219 -5 -218 -198 29 -252 322 -252 435 0 300 110 -59 199 -207 198 -329z m2402 120 c0 -47 -68 -59 -150 -27 -82 31 -150 126 -150 209 0 123 28 128 150 27 82 -68 150 -163 150 -209z m5200 -473 c0 -95 -118 -346 -263 -559 -233 -343 -275 -367 -363 -209 -103 185 -43 1157 85 1364 92 149 541 -345 541 -596z m2090 -118 c8 -288 -293 -1000 -423 -1000 -81 0 62 1466 162 1650 105 193 111 191 180 -50 39 -137 75 -407 81 -600z m-10940 600 c34 -55 17 -100 -38 -100 -55 0 -128 45 -162 100 -34 55 -17 100 38 100 55 0 128 -45 162 -100z m1845 -344 c140 -168 105 -574 -53 -626 -114 -37 -342 379 -342 625 0 187 240 187 395 1z m1647 -75 c84 -120 132 -240 106 -266 -59 -60 -448 287 -448 400 0 159 188 85 342 -134z m1758 -87 c0 -201 -146 -262 -244 -103 -80 129 47 419 154 353 50 -31 90 -143 90 -250z m-1187 -119 c109 -204 104 -212 -47 -88 -91 76 -166 177 -166 225 0 153 89 96 213 -137z m2223 75 c-31 -82 -75 -150 -97 -150 -21 0 -39 68 -39 150 0 83 44 150 97 150 53 0 71 -67 39 -150z m-16938 -535 c2 -328 -322 -915 -505 -915 -152 0 -106 565 57 700 83 68 150 205 150 304 0 99 29 255 64 346 94 244 233 -13 234 -435z m13147 451 c177 -129 177 -151 5 -601 -142 -374 -205 -444 -314 -353 -206 171 -160 1088 56 1088 38 0 152 -60 253 -134z m-11545 -311 c0 -422 -205 -1225 -363 -1419 -137 -169 -145 -137 -86 364 36 303 76 666 90 807 47 491 359 706 359 248z m18419 -377 c151 -215 168 -316 82 -475 -150 -281 -286 -254 -358 72 -33 151 -72 320 -86 375 -13 55 -124 -124 -245 -398 -172 -387 -242 -465 -315 -350 -145 229 -118 312 273 846 246 336 380 449 412 350 25 -82 132 -271 237 -420z m-4937 -140 c-30 -369 -38 -377 -159 -165 -73 127 -100 334 -63 482 96 382 260 147 222 -317z m2118 262 c0 -194 -171 -362 -269 -265 -30 31 -26 172 10 314 71 285 259 250 259 -49z m-10963 -25 c101 -376 71 -644 -87 -775 -130 -108 -150 -51 -150 438 0 569 127 749 237 337z m4938 -187 c14 -76 -19 -205 -72 -288 -203 -314 -607 184 -460 567 53 139 84 139 283 7 123 -81 235 -210 249 -286z m2728 57 c197 -319 204 -372 67 -525 -83 -93 -167 -282 -186 -420 -19 -140 -100 -250 -184 -250 -122 0 -144 129 -115 700 50 979 90 1027 418 495z m-1986 -110 c196 -177 246 -435 86 -435 -54 0 -168 135 -253 300 -173 334 -109 385 167 135z m-10913 -128 c-57 -107 -104 -444 -104 -750 0 -347 -43 -557 -113 -557 -78 0 -92 161 -44 525 95 729 163 975 271 975 54 0 49 -82 -10 -193z m12204 -339 c-129 -129 -150 112 -34 399 65 161 78 155 109 -54 18 -130 -15 -285 -75 -345z m8662 -204 c36 -353 20 -564 -44 -564 -118 0 -226 470 -226 983 0 557 201 244 270 -419z m-5849 -168 c-88 -273 -190 -496 -227 -496 -88 0 -44 939 51 1092 53 85 109 88 204 9 107 -89 102 -198 -28 -605z m1575 60 c-3 -188 -15 -185 -146 44 -197 345 -195 618 3 356 81 -107 145 -287 143 -400z m1988 -604 l-111 -402 -143 419 c-129 379 -126 444 34 689 l177 270 77 -287 c44 -163 29 -462 -34 -689z m1851 448 l61 -350 -198 236 c-204 244 -248 430 -130 549 105 105 199 -49 267 -435z m-15761 -115 c36 -388 -122 -985 -261 -985 -35 0 -50 236 -34 525 55 1025 219 1280 295 460z m14834 236 c125 -221 136 -342 50 -592 -160 -467 -209 -470 -408 -29 -146 324 -159 450 -68 651 146 319 231 313 426 -30z m-21113 4 c-2 -96 -66 -310 -141 -475 -135 -293 -138 -294 -145 -50 -9 340 95 700 203 700 48 0 86 -79 83 -175z m1038 -339 c65 -545 1 -800 -144 -572 -112 177 -115 1086 -3 1086 47 0 114 -231 147 -514z m13711 67 c-47 -250 -102 -335 -171 -266 -69 69 -61 201 26 411 164 395 233 326 145 -145z m-3883 89 c-34 -87 -61 -200 -61 -250 0 -51 -90 -92 -200 -92 -240 0 -256 129 -43 343 203 203 382 202 304 -1z m6405 1 c89 -231 -107 -384 -259 -202 -128 155 -70 359 102 359 54 0 124 -71 157 -157z m-6209 -619 c-118 -119 -156 56 -83 385 l76 341 32 -335 c18 -184 6 -360 -25 -391z m-3435 -191 c-100 -378 -101 -376 -105 217 -3 489 16 560 102 383 72 -149 73 -337 3 -600z m4200 711 c31 -30 8 -212 -51 -403 -71 -231 -160 -339 -264 -319 -165 32 -261 393 -168 635 54 140 373 198 483 87z m7253 -69 c-47 -142 -208 -126 -258 25 -19 55 41 100 133 100 92 0 148 -56 125 -125z m-18444 -403 c25 -224 -9 -412 -86 -476 -177 -147 -266 28 -190 374 146 664 212 688 276 102z m11899 -59 c-11 -240 -34 -450 -50 -466 -17 -16 -154 -6 -305 23 -305 59 -350 255 -157 680 81 178 183 250 325 230 177 -26 204 -94 187 -467z m2670 74 c0 -129 -154 -178 -290 -93 -86 53 -106 161 -58 312 71 222 79 224 211 44 75 -104 137 -222 137 -263z m-2100 128 c0 -47 -49 -227 -110 -400 -144 -413 -335 -415 -252 -2 34 171 62 351 62 400 0 48 68 87 150 87 82 0 150 -38 150 -85z m3857 -158 c66 -262 -23 -657 -148 -657 -164 0 -312 507 -206 706 141 263 281 244 354 -49z m6753 18 c-91 -249 -375 -350 -534 -191 -180 180 0 416 318 416 269 0 291 -23 216 -225z m-18760 -1979 c364 -1104 836 -1959 1232 -2234 397 -274 763 -348 694 -140 -22 67 -133 146 -246 175 -286 73 -730 424 -730 577 0 69 20 126 45 126 56 0 1567 -791 1705 -893 55 -40 258 -135 450 -210 193 -75 823 -494 1400 -930 896 -677 1105 -890 1422 -1455 482 -856 646 -1624 732 -3435 50 -1060 109 -1504 208 -1587 160 -133 185 -390 38 -390 -55 0 -100 -58 -100 -129 0 -129 -718 -1565 -953 -1903 -166 -240 -216 -139 -347 690 -148 940 -481 1565 -898 1684 -206 59 -357 185 -419 350 -187 495 -734 1558 -820 1595 -49 21 -183 134 -300 250 -219 220 -782 459 -1088 461 -96 1 -175 70 -175 152 0 107 -108 150 -375 150 -414 1 -1025 319 -1025 535 0 75 -153 300 -341 498 -187 199 -418 565 -513 814 -111 289 -234 453 -341 453 -194 0 -420 648 -609 1752 -150 880 -81 1314 88 548 288 -1306 1060 -2810 1757 -3421 306 -268 559 -357 559 -196 0 46 -178 226 -395 401 -730 586 -1423 1899 -1713 3242 -68 317 -185 626 -258 687 -142 118 -167 852 -43 1287 l71 250 119 -218 c66 -121 119 -463 119 -761 0 -634 130 -1053 518 -1666 155 -244 282 -539 282 -655 0 -384 508 -1248 884 -1504 420 -285 516 -303 516 -96 0 82 -66 150 -147 150 -297 0 -844 688 -1014 1276 -92 316 -297 805 -456 1088 -216 383 -315 735 -388 1384 -55 478 -166 998 -247 1155 -117 228 -124 343 -32 566 101 246 121 256 156 81 22 -110 124 -492 226 -850 103 -357 217 -874 254 -1148 37 -274 150 -614 251 -756 101 -142 216 -390 255 -552 175 -727 725 -1430 1249 -1596 264 -84 329 -18 244 249 -49 155 -120 195 -264 149 -145 -46 -290 35 -542 303 -190 201 -345 436 -345 521 0 86 -157 466 -350 843 -230 452 -350 827 -350 1094 0 223 -46 492 -102 596 -125 234 -409 1820 -338 1890 104 105 223 -244 332 -974 61 -413 197 -890 301 -1060 104 -170 258 -572 341 -893 84 -322 232 -682 331 -800 527 -635 795 -866 1005 -866 311 0 292 181 -28 261 -343 86 -1000 932 -1088 1402 -39 207 -182 596 -318 866 -137 269 -313 834 -392 1255 -79 421 -172 890 -206 1042 -38 169 -9 339 75 441 119 144 145 61 197 -629 33 -438 141 -1041 240 -1342z m12772 1879 c117 -180 123 -281 29 -506 -91 -220 -139 -253 -221 -150 -162 201 -241 535 -172 717 86 224 192 206 364 -61z m2988 -270 c117 -389 60 -905 -100 -905 -175 0 -329 589 -261 995 81 477 200 447 361 -90z m-13447 -312 c-38 -408 -151 -863 -267 -1075 l-201 -368 61 550 c52 469 142 910 302 1475 20 69 66 125 103 125 37 0 38 -318 2 -707z m6744 607 c49 0 15 -157 -77 -349 -165 -347 -168 -348 -352 -151 -149 161 -164 240 -74 407 67 126 171 186 262 151 83 -32 191 -58 241 -58z m7782 -800 c3 -82 -54 -227 -126 -322 -118 -155 -149 -136 -338 200 -195 347 -199 395 -56 722 l153 350 181 -400 c100 -220 184 -467 186 -550z m-16029 427 c-33 -33 -56 26 -52 131 5 117 28 141 60 61 29 -72 26 -159 -8 -192z m7452 6 c-118 -203 -146 -138 -50 113 35 90 84 142 110 116 25 -26 -1 -129 -60 -229z m2338 167 c108 -175 -52 -323 -209 -193 -78 65 -141 157 -141 205 0 121 274 111 350 -12z m-1105 -225 c-100 -332 -225 -435 -363 -297 -90 90 -75 165 66 320 242 267 382 257 297 -23z m578 -175 l327 -199 -425 -1 c-454 0 -457 1 -364 242 76 198 68 198 462 -42z m-8414 -1050 c-57 -307 -173 -657 -256 -777 -146 -207 -153 -194 -151 280 3 592 161 1332 328 1535 99 121 125 92 151 -166 17 -172 -16 -564 -72 -872z m9191 994 c0 -86 -46 -128 -102 -93 -56 35 -75 105 -44 156 86 139 146 113 146 -63z m1550 -244 c104 -201 117 -300 41 -300 -65 0 -92 -86 -62 -200 77 -296 -61 -243 -264 101 -173 294 -150 699 39 699 50 0 161 -135 246 -300z m826 175 c55 -69 131 -226 168 -350 59 -192 33 -225 -181 -225 -269 0 -413 253 -305 536 76 196 181 209 318 39z m1198 -76 c44 -255 -131 -426 -362 -353 -238 76 -274 252 -89 437 157 157 417 109 451 -84z m3852 -159 c111 -110 -45 -340 -231 -340 -210 0 -336 153 -245 300 68 109 381 136 476 40z m-2009 -305 c194 -176 236 -496 95 -718 -65 -103 -135 -69 -302 143 -120 152 -193 339 -164 416 30 77 54 182 54 232 0 138 113 112 317 -73z m-9817 -260 c-1 -124 -102 -382 -225 -575 l-225 -350 -31 432 c-32 444 99 718 343 718 77 0 138 -100 138 -225z m10620 -362 c22 -325 -14 -464 -142 -547 -127 -82 -202 -82 -286 2 -109 109 -91 216 169 1024 80 250 228 -23 259 -479z m-7920 299 c0 -48 -68 -144 -150 -212 -122 -101 -150 -97 -150 21 0 80 30 176 67 212 95 95 233 83 233 -21z m-8100 -624 c0 -512 -23 -594 -139 -497 -200 166 -250 680 -88 911 76 109 158 198 183 198 24 0 44 -276 44 -612z m4712 187 c17 -612 5 -653 -319 -1100 -337 -466 -382 -326 -153 482 76 271 167 617 201 768 95 418 258 328 271 -150z m2888 290 c0 -216 -441 -810 -627 -846 -142 -28 -161 22 -111 299 62 345 358 682 599 682 76 0 139 -61 139 -135z m6551 34 c110 -178 -58 -499 -261 -499 -230 0 -427 409 -252 523 162 107 440 93 513 -24z m-2051 -155 c0 -24 -45 -44 -100 -44 -55 0 -100 48 -100 106 0 58 45 78 100 44 55 -34 100 -82 100 -106z m-16800 -637 c0 -719 -120 -1207 -298 -1207 -113 0 -147 1722 -35 1833 36 37 126 67 200 67 98 0 133 -182 133 -693z m17766 360 c67 -66 -216 -667 -313 -664 -171 5 -475 497 -410 664 45 118 140 141 376 94 174 -35 330 -77 347 -94z m-18387 -742 c-23 -609 -61 -775 -179 -775 -188 0 -266 1040 -101 1347 215 403 310 210 280 -572z m17025 621 c84 -101 94 -188 29 -253 -65 -65 -138 -12 -214 154 -127 280 -15 340 185 99z m-7764 -809 c-171 -699 -341 -1042 -339 -682 1 107 69 420 151 695 210 700 246 786 305 727 28 -29 -24 -361 -117 -740z m2620 403 c-66 -216 -266 -485 -501 -671 l-391 -311 73 296 c66 269 708 1046 864 1046 36 0 16 -162 -45 -360z m7265 79 c250 -215 216 -333 -75 -260 -281 70 -304 25 -129 -256 162 -259 37 -362 -271 -221 -291 133 -330 460 -93 797 158 226 246 217 568 -60z m-4717 -551 c-77 -77 -141 -75 -226 10 -90 90 -72 167 75 331 l193 214 33 -223 c19 -123 -15 -272 -75 -332z m741 357 c-39 -96 -94 -254 -122 -350 -83 -288 -327 -207 -327 108 0 334 65 417 327 417 146 0 176 -44 122 -175z m830 29 c16 -16 -48 -192 -143 -392 -125 -262 -237 -362 -405 -362 -259 0 -283 121 -119 593 99 282 146 314 375 257 145 -37 276 -80 292 -96z m5518 -329 c-2 -378 -24 -438 -107 -296 -93 159 -39 771 68 771 23 0 41 -214 39 -475z m-7497 181 c0 -52 -45 -122 -100 -156 -55 -34 -100 8 -100 94 0 86 45 156 100 156 55 0 100 -42 100 -94z m-7800 -203 c0 -134 -48 -178 -150 -139 -160 61 -191 161 -83 269 126 126 233 67 233 -130z m10877 72 c-22 -69 -138 -169 -258 -224 -264 -119 -280 -220 -44 -282 96 -25 -61 -51 -350 -57 -289 -7 -525 13 -525 43 0 30 69 188 153 350 135 261 204 295 608 295 319 0 444 -37 416 -125z m423 -25 c102 -123 95 -150 -38 -150 -89 0 -162 68 -162 150 0 83 17 150 38 150 21 0 94 -67 162 -150z m2234 -95 c37 -97 8 -126 -89 -89 -158 60 -199 234 -56 234 49 0 115 -65 145 -145z m-11 -427 c135 -39 150 -91 71 -239 -104 -194 -152 -181 -679 174 -111 75 133 239 270 182 91 -37 243 -90 338 -117z m-8974 -129 c-204 -225 -285 -210 -191 37 35 90 133 164 218 164 131 0 127 -31 -27 -201z m6851 162 c0 -95 -299 -143 -353 -57 -32 53 34 96 147 96 113 0 206 -18 206 -39z m-16111 -509 c100 -340 105 -524 21 -765 -60 -174 -110 -498 -110 -719 0 -221 -34 -367 -75 -326 -84 84 -105 2258 -22 2258 29 0 113 -202 186 -448z m11572 190 c-34 -87 -61 -222 -61 -300 0 -78 -68 -142 -150 -142 -177 0 -179 11 -52 343 53 142 148 257 210 257 62 0 86 -71 53 -158z m7390 57 c73 -119 -32 -499 -139 -499 -40 0 -159 63 -264 139 -162 118 -170 164 -57 300 151 182 367 210 460 60z m1327 -1549 c-28 -301 -271 -421 -353 -175 -26 79 16 103 117 64 127 -49 158 14 156 325 -2 212 -38 543 -80 736 -43 193 -56 440 -29 550 60 247 229 -1086 189 -1500z m-20712 1025 c-28 -69 -50 -12 -50 125 0 138 22 194 50 125 28 -69 28 -181 0 -250z m9032 173 c-70 -84 -153 -127 -184 -95 -32 32 8 100 89 151 212 134 239 117 95 -56z m10843 -138 c203 -225 100 -321 -216 -201 -226 85 -282 200 -158 324 107 107 191 79 374 -123z m-21031 -612 c-26 -655 -137 -998 -320 -998 -68 0 -82 267 -42 767 66 824 109 964 279 907 68 -22 99 -281 83 -676z m9472 230 c-182 -219 -284 -141 -163 125 81 177 139 215 193 128 42 -68 29 -182 -30 -253z m9726 218 c368 -190 294 -346 -164 -346 -348 0 -393 55 -283 342 74 194 79 194 447 4z m-18815 -321 c-6 -337 -17 -353 -113 -156 -58 121 -79 290 -46 375 101 264 166 174 159 -219z m17268 217 c-34 -87 -61 -177 -61 -200 0 -23 -204 -42 -454 -42 -422 0 -446 14 -346 200 140 262 960 301 861 42z m-2279 -110 c-17 -92 -66 -160 -107 -150 -41 10 -165 18 -275 18 -246 0 -265 168 -25 231 344 90 439 67 407 -99z m1218 88 c0 -184 -264 -320 -620 -320 -408 0 -411 3 -319 242 42 111 191 158 500 158 241 0 439 -36 439 -80z m1677 -101 c22 -67 -52 -119 -169 -119 -207 0 -270 105 -139 235 92 93 259 30 308 -116z m3207 -241 l16 -423 -209 209 c-183 183 -192 236 -76 423 193 309 250 265 269 -209z m-10054 259 c35 -35 16 -151 -42 -259 -57 -107 -78 -221 -47 -253 32 -31 108 85 168 259 74 210 176 316 308 316 157 0 183 -45 129 -225 -95 -317 -256 -463 -626 -569 -290 -84 -320 -72 -319 126 4 524 214 820 429 605z m-584 -362 c-95 -443 -122 -475 -402 -475 -289 0 -292 16 -79 429 151 292 172 303 243 120 74 -188 78 -186 85 26 4 124 56 225 115 225 69 0 83 -116 38 -325z m1504 225 c-34 -55 -104 -100 -156 -100 -52 0 -94 45 -94 100 0 55 70 100 156 100 86 0 128 -45 94 -100z m1407 -177 c-172 -165 -175 -163 -61 61 66 128 148 206 181 172 34 -33 -20 -138 -120 -233z m-11900 -481 c-95 -377 -285 -299 -203 83 38 179 97 370 130 425 90 147 143 -227 73 -508z m8243 208 c0 -82 -65 -150 -144 -150 -193 0 -289 170 -132 234 219 88 276 70 276 -84z m-10645 -506 c28 -370 -41 -644 -162 -644 -51 0 -93 229 -93 508 0 554 215 669 255 136z m14890 264 c95 -153 -578 -1455 -770 -1490 -243 -45 -228 292 23 507 112 96 172 236 139 322 -92 240 45 634 238 684 286 75 311 73 370 -23z m4655 -11 c127 -85 106 -139 -131 -349 -327 -290 -570 -321 -567 -73 1 221 106 379 298 452 215 82 234 81 400 -30z m-17864 -146 c-31 -83 -98 -125 -148 -94 -105 65 -21 243 115 243 50 0 65 -67 33 -149z m16964 -3 c0 -138 -367 -348 -607 -348 -188 0 -86 309 132 397 336 135 475 120 475 -49z m3381 -373 c18 -96 -21 -175 -88 -175 -66 0 -340 -135 -608 -300 -269 -165 -511 -300 -538 -300 -28 0 60 218 196 485 231 457 268 485 625 475 276 -7 388 -57 413 -185z m-5681 -153 c0 -208 -270 -622 -406 -622 -145 0 -111 280 68 554 189 289 338 319 338 68z m650 78 c-34 -55 -107 -100 -162 -100 -55 0 -72 45 -38 100 34 55 107 100 162 100 55 0 72 -45 38 -100z m3640 -489 c-247 -506 -532 -803 -654 -681 -52 52 363 893 541 1095 338 384 397 168 113 -414z m-17352 334 c34 -89 18 -129 -39 -94 -55 33 -99 103 -99 155 0 144 72 112 138 -61z m13174 -172 c-98 -98 -110 -86 -56 56 38 99 94 154 125 124 30 -31 0 -112 -69 -180z m-13412 -303 c0 -399 -129 -670 -320 -670 -44 0 -80 135 -80 300 0 165 45 300 100 300 55 0 100 113 100 250 0 138 45 250 100 250 55 0 100 -193 100 -430z m10060 157 c-33 -33 -56 26 -52 131 5 117 28 141 60 61 29 -72 26 -159 -8 -192z m290 -52 c-111 -555 -161 -680 -251 -625 -83 52 170 950 268 950 27 0 19 -146 -17 -325z m-12149 150 c1 -41 29 -176 62 -300 48 -180 19 -225 -145 -225 -211 0 -381 317 -269 499 73 117 350 137 352 26z m616 -400 c153 -41 169 -73 66 -137 -276 -176 -383 -92 -369 287 9 254 28 299 58 138 25 -130 135 -260 245 -288z m16375 382 c243 -154 -126 -607 -494 -607 -328 0 -384 164 -174 501 131 210 430 257 668 106z m4206 -82 c-2 -227 -168 -489 -255 -402 -94 94 39 577 159 577 54 0 97 -79 96 -175z m1262 -98 c-33 -33 -56 26 -52 131 5 117 28 141 60 61 29 -72 26 -159 -8 -192z m-4068 -460 c-169 -312 -349 -567 -400 -567 -119 0 -117 18 37 384 110 261 570 805 646 763 13 -7 -114 -268 -283 -580z m-16092 377 c0 -24 -45 -44 -100 -44 -55 0 -100 48 -100 106 0 58 45 78 100 44 55 -34 100 -82 100 -106z m-2909 -329 c-78 -25 -284 -196 -460 -381 -203 -213 -344 -295 -387 -224 -39 63 124 302 368 542 371 365 452 406 529 269 63 -111 48 -174 -50 -206z m12408 310 c-1 -253 -226 -820 -304 -772 -125 78 -121 412 9 654 101 189 297 267 295 118z m9900 -74 c164 -197 48 -491 -162 -410 -121 46 -149 15 -112 -125 26 -102 -32 -292 -130 -422 l-178 -237 -70 376 c-53 280 -30 420 91 554 89 98 162 231 162 296 0 165 252 145 399 -32z m-5899 -151 c-79 -49 -167 -67 -194 -39 -28 27 15 90 94 139 79 49 167 67 194 39 28 -27 -15 -90 -94 -139z m-5500 -256 c0 -24 -45 -44 -100 -44 -55 0 -100 48 -100 106 0 58 45 78 100 44 55 -34 100 -82 100 -106z m4241 -29 c63 -102 -200 -489 -279 -410 -77 76 45 495 144 495 45 0 106 -38 135 -85z m7598 -73 c128 -332 64 -660 -138 -713 -150 -39 -185 -108 -142 -281 60 -236 -100 -648 -250 -648 -148 0 -334 587 -268 848 41 163 133 252 261 252 129 0 198 67 198 192 0 251 101 508 200 508 43 0 106 -71 139 -158z m-21273 -92 c-18 -55 -322 -100 -675 -100 -352 0 -697 -36 -766 -81 -69 -44 -125 -57 -125 -28 0 29 110 110 245 181 290 152 1371 175 1321 28z m1511 -31 c24 -73 -21 -96 -119 -58 -87 33 -158 104 -158 158 0 131 227 49 277 -100z m15323 87 c0 -52 -88 -156 -195 -231 -108 -76 -241 -258 -297 -405 -93 -244 -125 -258 -358 -152 -318 145 -276 299 107 399 162 42 360 168 440 279 155 215 303 268 303 110z m-14471 -206 c29 -110 36 -200 15 -200 -20 0 -85 90 -144 200 -59 110 -66 200 -15 200 50 0 115 -90 144 -200z m10800 0 c-58 -222 -329 -277 -329 -67 0 167 96 267 257 267 75 0 104 -79 72 -200z m6485 -94 c192 -157 215 -227 126 -375 -179 -295 -583 -283 -783 22 -95 145 -148 327 -118 405 78 203 498 175 775 -52z m-5214 -306 c0 -55 -45 -100 -100 -100 -55 0 -100 45 -100 100 0 55 45 100 100 100 55 0 100 -45 100 -100z m2487 -217 c53 -144 104 -178 152 -100 139 223 242 116 127 -132 -117 -251 -266 -336 -266 -151 0 55 -65 100 -144 100 -185 0 -289 169 -218 355 82 213 257 177 349 -72z m-18787 17 c0 -55 -45 -100 -100 -100 -55 0 -100 45 -100 100 0 55 45 100 100 100 55 0 100 -45 100 -100z m3364 -515 c-35 -338 -68 -799 -74 -1025 l-10 -410 -135 430 c-135 430 -104 703 98 847 70 51 47 112 -68 180 -290 171 -215 593 106 593 121 0 136 -110 83 -615z m16236 460 c0 -85 -71 -293 -159 -461 -228 -442 -402 -224 -203 253 155 370 362 489 362 208z m-18101 -170 c-3 -376 -115 -675 -254 -675 -200 0 -282 394 -139 662 162 301 394 309 393 13z m11229 25 c149 0 181 -31 106 -106 -122 -122 -634 -20 -634 128 0 54 71 72 158 39 87 -34 254 -61 370 -61z m797 -249 c-61 -318 -191 -403 -379 -247 -213 176 -178 390 79 487 298 113 358 65 300 -240z m430 -105 c-162 -471 -201 -484 -231 -79 -30 410 31 544 216 473 107 -41 110 -118 15 -394z m794 336 c244 -111 317 -456 88 -413 -56 11 -98 -79 -94 -200 6 -178 -57 -225 -330 -251 l-338 -33 71 383 c63 333 210 632 312 632 18 0 149 -53 291 -118z m5505 -44 c311 -203 311 -382 1 -693 -274 -273 -632 -322 -718 -98 -61 160 263 946 392 950 43 2 189 -70 325 -159z m-18487 -179 c-29 -77 33 -219 140 -315 127 -115 193 -306 193 -559 0 -407 -95 -482 -300 -235 -167 201 -245 1250 -93 1250 63 0 90 -63 60 -141z m2800 -301 c-114 -298 -336 -181 -287 151 40 275 62 292 196 158 83 -84 124 -222 91 -309z m13158 303 c198 -151 223 -384 71 -668 -155 -290 -275 -235 -391 182 -178 642 -81 790 320 486z m-17582 -118 c86 -87 153 -278 147 -425 l-10 -268 -78 250 -77 250 -123 -325 c-223 -596 -583 -340 -458 326 72 388 323 468 599 192z m3647 -18 c-5 -96 -46 -287 -90 -425 -68 -212 -82 -186 -90 175 -6 234 35 425 90 425 55 0 96 -79 90 -175z m12093 -467 c38 -192 -151 -458 -326 -458 -65 0 -200 60 -300 132 -171 125 -172 150 -12 458 158 305 182 317 387 181 120 -80 233 -220 251 -313z m5017 342 c0 -55 -70 -100 -156 -100 -86 0 -128 45 -94 100 34 55 104 100 156 100 52 0 94 -45 94 -100z m2403 -157 c98 -182 108 -303 35 -419 -158 -251 -313 -257 -441 -18 -91 170 -89 273 10 457 161 301 227 298 396 -20z m-20662 -992 c-34 -138 -125 -251 -202 -251 -104 0 -138 156 -135 625 l5 625 197 -374 c127 -240 176 -465 135 -625z m19291 610 c30 -80 -57 -107 -268 -83 -226 26 -448 -53 -789 -281 -261 -174 -475 -357 -475 -406 0 -50 -41 -91 -91 -91 -236 0 67 438 508 734 501 335 1013 394 1115 127z m-8932 39 c0 -55 -70 -100 -156 -100 -86 0 -128 45 -94 100 34 55 104 100 156 100 52 0 94 -45 94 -100z m5439 -160 c-7 -105 -44 -280 -83 -390 -64 -179 -59 -181 41 -25 62 96 156 175 208 175 172 0 99 -466 -102 -648 -109 -98 -225 -262 -257 -365 -33 -103 -131 -187 -218 -187 -143 0 -142 19 7 183 203 225 216 517 22 517 -205 0 -289 353 -148 621 218 412 552 487 530 119z m-13139 49 c0 -171 -425 -889 -527 -889 -123 0 -23 670 128 852 145 174 399 197 399 37z m11200 -201 c0 -111 -110 -110 -288 2 -76 48 -105 140 -66 204 54 88 106 87 213 -1 78 -65 141 -157 141 -205z m-2844 -350 c-36 -144 -91 -390 -123 -547 -68 -341 -298 -566 -437 -427 -181 181 -135 592 103 913 298 403 551 437 457 61z m8292 165 c67 -109 -349 -236 -771 -236 -164 0 -277 -55 -277 -134 0 -73 68 -133 150 -133 83 0 150 -41 150 -91 0 -133 -591 -609 -756 -609 -78 0 -311 -183 -518 -406 -207 -223 -462 -453 -566 -512 -164 -91 -179 -79 -112 81 44 103 74 277 69 388 -8 141 184 331 645 642 361 243 725 546 809 674 209 320 1040 557 1177 336z m-7905 -336 c-36 -92 -109 -167 -164 -167 -55 0 -73 71 -40 158 34 87 61 209 61 270 0 77 32 80 103 9 57 -57 75 -179 40 -270z m8457 233 c116 -75 87 -97 -131 -98 -162 -1 -255 40 -219 98 77 124 158 124 350 0z m-18127 -575 c-40 -167 -46 -167 -118 0 -42 96 -42 254 0 350 72 167 78 167 118 0 23 -96 23 -254 0 -350z m-1215 275 c23 0 42 -92 42 -204 0 -172 -30 -187 -200 -96 -241 129 -278 451 -42 361 87 -34 177 -61 200 -61z m13121 -64 c-92 -92 -235 -136 -328 -100 -235 90 -87 264 226 264 246 0 254 -12 102 -164z m1071 -36 c0 -111 -90 -141 -350 -116 -391 39 -443 65 -368 188 96 154 718 92 718 -72z m2274 -182 c-202 -329 -850 -918 -1010 -918 -61 0 -200 -177 -311 -393 -181 -355 -403 -609 -403 -461 0 108 521 1055 611 1111 49 30 90 -4 92 -76 2 -72 110 43 241 256 214 349 690 761 880 762 40 1 -5 -126 -100 -281z m-18963 -548 c-28 -324 -82 -427 -232 -450 -160 -24 -196 30 -199 300 -4 339 229 717 383 622 47 -29 69 -242 48 -472z m3042 324 c119 -222 -40 -545 -214 -437 -155 96 -92 643 74 643 17 0 80 -93 140 -206z m14097 106 c0 -55 -42 -100 -94 -100 -52 0 -122 45 -156 100 -34 55 8 100 94 100 86 0 156 -45 156 -100z m-16400 -154 c0 -92 71 -143 175 -125 133 22 183 -51 207 -302 l32 -331 -382 69 c-210 38 -416 89 -457 112 -140 80 -76 458 100 592 232 176 325 172 325 -15z m21232 14 c74 -193 -16 -260 -349 -260 -319 0 -371 139 -108 292 244 142 394 132 457 -32z m-6532 -115 c0 -86 -300 -645 -346 -645 -23 0 -156 44 -296 97 -296 112 -255 369 81 505 244 99 561 123 561 43z m1034 -20 c75 -123 -275 -776 -410 -765 -68 6 -236 17 -374 25 -137 8 -250 59 -250 112 0 53 68 71 150 39 83 -31 150 -11 150 45 0 56 -51 119 -114 140 -86 29 -85 95 3 259 86 161 210 220 459 220 187 0 361 -34 386 -75z m-14576 -356 c16 -115 -66 -215 -230 -277 -323 -123 -358 -85 -231 251 116 305 417 322 461 26z m5302 -29 c-36 -93 -87 -146 -115 -119 -27 28 -21 126 15 219 36 93 87 146 115 119 27 -28 21 -126 -15 -219z m9926 71 c255 -162 44 -471 -329 -481 -278 -8 -332 22 -284 155 139 392 340 499 613 326z m-14706 -231 c189 -189 140 -298 -80 -180 -110 59 -200 150 -200 204 0 132 135 121 280 -24z m4920 -380 c-165 -398 -234 -328 -89 89 62 177 135 298 164 269 29 -28 -5 -189 -75 -358z m11000 162 c0 -21 -71 -212 -159 -425 -143 -350 -881 -1137 -1066 -1137 -113 0 -90 285 42 532 224 419 1183 1254 1183 1030z m-12027 -1262 c-73 -564 -164 -930 -223 -900 -55 28 -96 215 -92 418 6 276 -37 379 -175 415 -254 67 -228 233 67 426 138 90 250 201 250 246 0 45 52 209 116 363 176 428 195 103 57 -968z m7670 1043 c191 -191 35 -573 -214 -524 -258 51 -388 339 -236 523 165 198 252 199 450 1z m6499 -79 c-65 -167 -242 -229 -242 -84 0 97 223 330 271 283 18 -19 5 -108 -29 -199z m624 -189 c-28 -69 -50 -12 -50 125 0 138 22 194 50 125 28 -69 28 -181 0 -250z m-13368 -20 c111 -210 107 -283 -34 -497 -90 -138 -164 -341 -164 -451 0 -221 -247 -190 -336 42 -54 142 247 1148 344 1150 32 1 117 -109 190 -244z m-6041 -324 c-271 -233 -490 -234 -401 -3 68 180 586 454 633 335 22 -54 -83 -204 -232 -332z m14043 431 c0 -21 -62 -89 -137 -151 -104 -86 -167 -77 -262 38 -107 128 -86 151 137 151 144 0 262 -17 262 -38z m5170 -402 c-57 -171 -268 -183 -331 -18 -33 87 -30 237 7 333 64 163 78 161 212 -21 80 -108 130 -240 112 -294z m-20028 279 c194 -74 218 -765 32 -919 -169 -141 -640 -253 -758 -180 -140 86 59 885 257 1035 187 142 246 150 469 64z m13658 -389 c0 -293 -161 -407 -351 -249 -122 101 -120 151 16 357 183 280 335 231 335 -108z m7051 -52 c32 -101 -14 -355 -101 -564 l-160 -382 -202 321 c-195 308 -197 332 -30 614 185 312 396 317 493 11z m-21693 -252 c-70 -280 -332 -329 -428 -80 -41 107 21 234 175 358 266 215 353 119 253 -278z m12742 354 c0 -55 -45 -100 -100 -100 -55 0 -100 45 -100 100 0 55 45 100 100 100 55 0 100 -45 100 -100z m7281 -94 c25 -75 -12 -112 -87 -87 -72 24 -151 103 -175 175 -25 75 12 112 87 87 72 -24 151 -103 175 -175z m-3420 -164 c-34 -87 -61 -200 -61 -250 0 -135 -540 -112 -680 28 -237 237 -86 344 516 368 222 9 272 -23 225 -146z m3127 -120 c60 -112 60 -240 -1 -350 -107 -191 -263 -216 -482 -77 -125 79 -126 129 -8 348 160 299 356 331 491 79z m-17244 -347 c-39 -179 -82 -460 -95 -625 -14 -188 -86 -312 -191 -333 -146 -29 -159 34 -99 500 68 534 183 783 361 783 56 0 66 -135 24 -325z m4390 -542 c-18 -753 -161 -1003 -344 -602 -93 205 -91 395 10 871 169 794 356 643 334 -269z m2191 38 c35 -326 16 -468 -59 -443 -144 48 -254 591 -189 931 69 358 182 134 248 -488z m4444 375 c180 45 239 26 208 -67 -23 -71 -172 -144 -330 -163 -308 -36 -438 -165 -719 -716 l-178 -350 -31 327 c-35 355 263 1146 400 1061 46 -28 58 -94 27 -145 -32 -51 -15 -93 36 -93 52 0 127 101 167 225 64 199 78 204 121 41 37 -140 107 -168 299 -120z m-11751 -405 c-35 -301 -62 -338 -140 -199 -105 189 -19 695 106 618 42 -26 58 -215 34 -419z m18446 309 c31 -82 30 -223 -4 -311 -51 -131 -91 -138 -211 -38 -82 68 -149 208 -149 311 0 224 281 253 364 38z m-4964 -50 c0 -55 -45 -100 -100 -100 -55 0 -100 45 -100 100 0 55 45 100 100 100 55 0 100 -45 100 -100z m942 -61 c277 -106 170 -239 -192 -239 -364 0 -479 152 -175 231 96 25 183 51 192 57 9 7 88 -15 175 -49z m-16955 -173 c122 -148 54 -266 -154 -266 -73 0 -133 90 -133 200 0 231 126 260 287 66z m8210 -88 c99 -122 159 -277 133 -345 -78 -202 -430 77 -430 341 0 284 70 285 297 4z m10852 -6 c-252 -719 -226 -692 -498 -514 -326 214 -317 281 70 525 329 209 503 204 428 -11z m2535 -170 c129 -368 9 -459 -287 -220 -191 155 -207 213 -105 403 143 266 254 215 392 -183z m916 156 c0 -78 26 -224 58 -325 53 -167 45 -167 -100 11 -178 219 -208 456 -58 456 55 0 100 -64 100 -142z m-21842 -58 c23 0 42 -145 42 -323 l0 -322 -262 262 c-266 266 -247 546 30 440 82 -31 167 -57 190 -57z m22661 -350 c45 -389 -62 -476 -156 -125 -85 319 -77 475 26 475 49 0 108 -157 130 -350z m-8519 -100 c-74 -138 -170 -250 -214 -250 -91 0 -5 286 144 477 162 210 214 42 70 -227z m-13502 175 c0 -41 -45 -142 -100 -225 -85 -131 -110 -131 -191 -5 -52 80 -72 181 -44 225 62 101 338 105 335 5z m13830 -300 c-33 -206 -126 -478 -207 -603 -82 -126 -116 -260 -77 -299 39 -39 115 8 170 105 115 205 304 136 221 -81 -31 -81 -164 -147 -296 -147 -188 0 -239 53 -239 247 0 204 382 1153 464 1153 13 0 -3 -169 -36 -375z m-8328 -144 c0 -45 -67 -81 -150 -81 -98 0 -149 96 -147 275 3 263 10 267 150 81 81 -107 147 -231 147 -275z m2200 103 c0 -111 -72 -106 -307 20 -287 153 -237 312 57 178 138 -63 250 -152 250 -198z m-3200 72 c0 -150 -180 -310 -259 -230 -70 69 68 374 170 374 49 0 89 -65 89 -144z m8000 -45 c0 -198 -391 -741 -397 -551 -6 205 216 740 307 740 49 0 90 -85 90 -189z m2700 -298 c0 -325 -503 -1423 -619 -1351 -52 32 -18 142 76 245 127 141 154 286 106 584 -39 247 -22 423 46 465 60 37 90 171 66 297 -38 201 -21 215 141 114 101 -63 184 -222 184 -354z m-16262 -38 c227 -234 558 -502 737 -595 307 -161 469 -580 225 -580 -55 0 -100 68 -100 150 0 83 -45 150 -100 150 -55 0 -100 -69 -100 -154 0 -122 -40 -131 -200 -46 -130 69 -200 209 -200 398 0 159 -45 318 -100 352 -56 35 -100 -43 -100 -175 0 -325 -214 -594 -386 -486 -145 92 -299 1411 -165 1411 42 0 262 -191 489 -425z m7838 300 c61 -75 67 -215 16 -348 -107 -282 -392 -197 -392 117 0 350 187 465 376 231z m1442 -188 c-120 -44 -218 -136 -218 -204 0 -93 -28 -95 -116 -7 -172 172 67 418 337 347 l214 -56 -217 -80z m10148 -214 c-28 -68 -49 12 -47 177 3 165 25 220 50 123 26 -97 24 -232 -3 -300z m-9566 -23 c0 -283 -38 -350 -200 -350 -240 0 -239 -9 -43 385 201 402 243 396 243 -35z m8239 192 c113 -295 62 -619 -136 -856 l-196 -236 -4 558 c-2 307 27 589 64 625 109 110 208 77 272 -91z m727 -167 c-28 -69 -50 -12 -50 125 0 138 22 194 50 125 28 -69 28 -181 0 -250z m-10412 119 c105 -170 -44 -594 -209 -594 -209 0 -283 243 -149 492 122 228 256 266 358 102z m8425 -155 c18 -123 -82 -278 -269 -416 l-299 -221 103 324 c57 178 122 384 145 457 59 190 286 88 320 -144z m-13997 -956 c-20 -696 -73 -1130 -142 -1153 -60 -20 -212 46 -338 148 -279 226 -207 669 94 573 145 -46 194 15 249 307 56 301 32 389 -138 509 -227 159 -280 587 -82 667 370 149 389 93 357 -1051z m-682 767 c0 -299 -108 -318 -341 -60 -133 147 -142 201 -40 242 275 110 381 59 381 -182z m11600 -6 c0 -24 -45 -44 -100 -44 -55 0 -100 48 -100 106 0 58 45 78 100 44 55 -34 100 -82 100 -106z m-4802 -125 c-3 -164 -185 -339 -287 -276 -79 49 -81 126 -6 266 94 177 297 184 293 10z m12902 87 c0 -52 -47 -123 -104 -159 -57 -35 -215 -240 -351 -455 -194 -307 -310 -392 -534 -392 -157 0 -479 -68 -714 -151 -236 -83 -444 -135 -464 -115 -69 69 253 722 434 878 281 242 533 306 533 135 0 -224 158 -176 341 103 123 187 251 250 511 250 192 0 348 -42 348 -94z m799 -103 c93 -175 46 -227 -405 -456 -280 -142 -554 -244 -609 -225 -207 69 326 591 886 867 12 6 69 -78 128 -186z m-16299 44 c0 -29 -68 -215 -150 -412 -126 -303 -174 -340 -300 -235 -199 165 -189 261 50 500 188 188 400 266 400 147z m12600 -147 c0 -110 -45 -200 -100 -200 -55 0 -100 90 -100 200 0 110 45 200 100 200 55 0 100 -90 100 -200z m-12212 -263 c-259 -275 -337 -245 -250 99 47 188 110 233 267 192 204 -54 204 -55 -17 -291z m2317 -92 c-48 -162 -92 -220 -96 -128 -10 186 97 511 150 457 19 -19 -5 -167 -54 -329z m595 13 c0 -268 -117 -445 -258 -391 -229 88 -180 533 58 533 110 0 200 -64 200 -142z m247 -183 c-64 -304 -247 -621 -247 -427 0 124 232 752 278 752 21 0 7 -146 -31 -325z m8453 -61 c0 -96 -55 -229 -122 -296 -97 -97 -95 -167 8 -332 141 -227 19 -462 -177 -341 -145 89 -140 984 7 1131 146 146 284 67 284 -162z m1183 -181 c-94 -198 -222 -293 -426 -316 -285 -33 -289 -28 -139 200 148 225 586 513 663 436 20 -21 -23 -165 -98 -320z m-2273 37 c-128 -128 -258 -29 -163 125 37 60 113 80 169 45 68 -42 66 -98 -6 -170z m-9360 -70 c-34 -55 -107 -100 -162 -100 -55 0 -72 45 -38 100 34 55 107 100 162 100 55 0 72 -45 38 -100z m6650 -249 c0 -341 -231 -633 -537 -680 -397 -60 -423 -32 -272 304 270 601 402 736 612 623 109 -58 197 -169 197 -247z m-12500 -145 c0 -319 -177 -505 -296 -312 -111 179 0 606 158 606 86 0 138 -110 138 -294z m11350 194 c34 -55 -8 -100 -94 -100 -86 0 -156 45 -156 100 0 55 42 100 94 100 52 0 122 -45 156 -100z m-6242 -292 c-248 -248 -308 -259 -308 -55 0 84 101 192 225 239 307 116 330 63 83 -184z m9393 143 c-125 -150 -301 -118 -301 55 0 52 96 94 212 94 177 0 192 -25 89 -149z m-15001 -95 c0 -79 -42 -170 -93 -202 -119 -73 -239 114 -157 246 92 149 250 121 250 -44z m13625 5 c227 -173 222 -261 -17 -261 -315 0 -499 108 -441 258 67 176 229 177 458 3z m-9184 -386 c-144 -858 -271 -1275 -390 -1275 -205 0 -234 206 -120 850 104 589 197 745 441 748 83 2 105 -103 69 -323z m659 230 c0 -158 -230 -639 -433 -905 l-190 -250 56 300 c173 922 184 950 375 950 106 0 192 -43 192 -95z m2900 3 c0 -202 -129 -408 -255 -408 -175 0 -277 173 -207 355 60 157 462 204 462 53z m3881 -183 c-18 -96 -134 -189 -257 -207 -242 -34 -255 -16 -163 224 86 224 463 209 420 -17z m2719 -377 c0 -125 -203 -348 -318 -348 -146 0 -387 472 -324 635 58 151 86 150 352 -7 160 -94 290 -220 290 -280z m2875 327 c-23 -69 -102 -125 -175 -125 -73 0 -152 56 -175 125 -25 74 46 125 175 125 129 0 200 -51 175 -125z m-10975 -256 c0 -93 -85 -393 -189 -667 l-189 -498 -124 414 c-113 378 -105 441 96 724 226 317 406 329 406 27z m9100 181 c0 -55 -45 -100 -100 -100 -55 0 -100 45 -100 100 0 55 45 100 100 100 55 0 100 -45 100 -100z m-16575 -525 c-54 -421 -159 -571 -400 -573 -247 -3 -77 727 215 921 207 139 241 76 185 -348z m373 150 c0 -96 -45 -242 -98 -325 -74 -114 -97 -72 -98 175 -1 179 43 325 98 325 55 0 99 -79 98 -175z m16559 32 c166 -166 183 -257 47 -257 -54 0 -145 90 -204 200 -125 233 -47 262 157 57z m1843 -13 c0 -24 -45 -44 -100 -44 -55 0 -100 48 -100 106 0 58 45 78 100 44 55 -34 100 -82 100 -106z m-4318 -177 c19 -99 -32 -167 -125 -167 -92 0 -157 85 -157 208 0 244 234 210 282 -41z m7179 75 c-34 -87 -61 -177 -61 -200 0 -86 -291 -38 -350 58 -94 152 38 300 267 300 145 0 187 -46 144 -158z m-22363 -675 c2 -343 -34 -472 -123 -443 -136 45 -226 800 -126 1060 106 276 248 -74 249 -617z m9284 483 c-63 -137 -152 -250 -198 -250 -111 0 -106 72 20 307 153 287 312 237 178 -57z m7687 96 c18 -57 -32 -192 -112 -300 -135 -183 -156 -185 -315 -29 -222 219 -113 507 175 465 119 -18 233 -79 252 -136z m5728 -152 c-95 -178 -297 -271 -297 -137 0 157 222 441 305 390 60 -37 57 -132 -8 -253z m-14297 -344 c0 -391 -28 -450 -211 -450 -161 0 -194 41 -139 175 39 96 115 299 170 450 139 384 180 345 180 -175z m12555 -414 c-76 -304 -234 -303 -311 3 -37 145 12 372 123 575 l183 336 32 -339 c18 -186 6 -445 -27 -575z m2435 639 c116 -311 31 -475 -245 -475 -321 0 -384 148 -188 447 205 312 325 320 433 28z m-7723 -142 c-78 -78 -364 92 -308 182 35 57 117 47 202 -24 79 -66 127 -137 106 -158z m-12651 -240 c59 -288 29 -387 -191 -618 -387 -405 -457 -349 -376 300 99 800 429 984 567 318z m14424 324 c59 -96 -248 -817 -349 -817 -211 0 -269 274 -122 578 149 308 361 416 471 239z m-3592 -587 c-196 -469 -238 -508 -352 -327 -84 132 -139 67 -108 -128 7 -41 -58 -75 -144 -75 -116 0 -149 84 -125 325 26 271 89 345 381 444 508 174 518 167 348 -239z m-11632 -314 c-39 -576 -227 -614 -413 -83 -98 279 -85 338 103 491 118 96 244 157 279 135 36 -22 50 -266 31 -543z m17984 427 c0 -93 -68 -144 -167 -125 -251 48 -285 282 -41 282 123 0 208 -65 208 -157z m2000 18 c0 -77 -67 -166 -150 -197 -168 -65 -176 -48 -89 178 75 195 239 208 239 19z m-6832 -311 c-19 -363 -47 -390 -310 -289 -187 72 -207 350 -38 519 226 226 366 133 348 -230z m2573 -289 c-106 -353 -222 -409 -439 -213 -245 222 -252 336 -35 645 l166 238 186 -229 c118 -146 162 -307 122 -441z m4857 164 c-2 -484 -149 -553 -264 -123 -96 360 -88 398 80 398 137 0 186 -73 184 -275z m-21798 -387 c0 -384 -24 -443 -140 -347 -110 92 -117 189 -33 463 59 190 122 346 140 346 18 0 33 -208 33 -462z m17659 188 c-69 -70 -259 71 -259 192 0 66 57 59 152 -20 84 -70 132 -147 107 -172z m-11899 -186 c-32 -84 -103 -125 -157 -92 -63 39 -54 133 24 258 131 210 230 88 133 -166z m13490 60 c0 -224 -36 -247 -349 -221 -410 33 -551 146 -465 370 46 119 163 155 438 132 326 -27 376 -64 376 -281z m-12812 71 c168 -123 168 -152 8 -553 -155 -387 -182 -408 -305 -246 -74 98 -136 347 -138 553 -3 402 124 474 435 246z m6962 -160 c0 -192 -370 -541 -494 -465 -94 58 -67 137 109 310 250 246 385 301 385 155z m-13850 -111 c-34 -55 -82 -100 -106 -100 -24 0 -44 45 -44 100 0 55 48 100 106 100 58 0 78 -45 44 -100z m14451 -151 c152 -162 300 -230 417 -193 250 79 228 -80 -43 -322 -193 -173 -287 -189 -656 -111 -450 95 -528 301 -136 359 213 31 313 218 117 218 -55 0 -100 68 -100 150 0 218 133 185 401 -101z m3403 96 c106 -127 103 -181 -17 -301 -196 -195 -531 25 -432 284 82 214 280 221 449 17z m-1654 -45 c-276 -119 -450 -119 -450 0 0 55 146 97 325 93 272 -6 293 -21 125 -93z m2327 -81 c24 -73 -21 -96 -119 -58 -87 33 -158 104 -158 158 0 131 227 49 277 -100z m-15543 -136 c31 -120 33 -255 5 -300 -84 -137 -239 -93 -239 67 0 83 -44 150 -97 150 -53 0 -71 68 -39 150 85 222 304 182 370 -67z m8845 42 c-17 -103 26 -164 104 -147 166 34 115 -295 -54 -352 -138 -46 -283 406 -183 568 100 161 166 127 133 -69z m-10429 -225 c34 -55 17 -100 -38 -100 -55 0 -128 45 -162 100 -34 55 -17 100 38 100 55 0 128 -45 162 -100z m-1450 -200 c0 -55 -48 -100 -106 -100 -58 0 -78 45 -44 100 34 55 82 100 106 100 24 0 44 -45 44 -100z"/>
<path d="M17765 50379 c-89 -747 -80 -1079 30 -1079 188 0 326 1506 144 1569 -67 23 -135 -170 -174 -490z"/>
<path d="M5940 42886 c-236 -265 -764 -502 -1290 -578 -448 -65 -537 -242 -144 -288 480 -56 1794 675 1794 999 0 146 -165 85 -360 -133z"/>
<path d="M5919 42139 c-183 -184 -596 -429 -925 -549 -327 -119 -594 -256 -594 -303 0 -135 204 -104 800 120 688 259 1638 1131 1175 1079 -69 -8 -274 -164 -456 -347z"/>
<path d="M5750 41422 c-350 -180 -447 -270 -324 -297 214 -49 898 275 952 450 53 170 -46 146 -628 -153z"/>
<path d="M1750 40484 c-325 -179 -847 -709 -789 -802 29 -47 232 67 450 255 219 187 534 367 700 400 168 34 274 106 240 162 -81 131 -348 124 -601 -15z"/>
<path d="M14856 40475 c-21 -69 -87 -278 -147 -465 -135 -422 -142 -842 -12 -762 89 55 172 304 358 1077 67 274 -119 414 -199 150z"/>
<path d="M10060 40316 c-35 -56 -15 -132 45 -169 154 -95 253 35 125 163 -72 72 -128 74 -170 6z"/>
<path d="M11713 38166 c-61 -74 -82 -164 -46 -199 75 -75 333 115 333 245 0 132 -161 106 -287 -46z"/>
<path d="M11440 37560 c-37 -95 -17 -223 43 -283 80 -80 129 -63 177 63 37 95 17 223 -43 283 -80 80 -129 63 -177 -63z"/>
<path d="M17771 37323 c-99 -109 -129 -229 -79 -310 63 -103 120 -80 245 99 275 392 145 555 -166 211z"/>
<path d="M11545 36691 c-103 -166 128 -358 266 -220 116 116 43 329 -111 329 -49 0 -118 -49 -155 -109z"/>
<path d="M5700 36042 c0 -177 215 -146 277 39 22 66 -32 119 -119 119 -87 0 -158 -71 -158 -158z"/>
<path d="M11351 36102 c-74 -120 20 -302 155 -302 122 0 122 271 1 346 -51 31 -121 12 -156 -44z"/>
<path d="M10722 35783 c52 -155 366 -181 403 -33 14 55 -81 115 -211 133 -162 23 -222 -8 -192 -100z"/>
<path d="M10200 35650 c0 -82 68 -150 150 -150 83 0 150 68 150 150 0 83 -67 150 -150 150 -82 0 -150 -67 -150 -150z"/>
<path d="M4950 35200 c-82 -132 38 -319 157 -246 121 75 121 346 -1 346 -52 0 -122 -45 -156 -100z"/>
<path d="M10500 35019 c0 -44 61 -164 135 -265 152 -209 303 -71 205 187 -62 162 -340 226 -340 78z"/>
<path d="M4267 34333 c-104 -103 -79 -433 33 -433 55 0 100 41 100 92 0 50 27 163 61 250 60 158 -68 218 -194 91z"/>
<path d="M16048 34097 c-153 -296 -130 -497 58 -497 52 0 94 87 94 193 0 106 65 258 145 338 140 139 111 269 -59 269 -45 0 -151 -136 -238 -303z"/>
<path d="M10663 34220 c-28 -44 -13 -139 32 -213 107 -172 314 -46 240 146 -62 160 -195 193 -272 67z"/>
<path d="M3820 33580 c-66 -66 -120 -211 -120 -322 0 -197 5 -197 221 19 149 149 188 254 120 322 -68 68 -140 62 -221 -19z"/>
<path d="M10669 33236 c-80 -80 11 -236 137 -236 52 0 94 68 94 150 0 155 -118 199 -231 86z"/>
<path d="M15522 33175 c-149 -181 -189 -498 -68 -541 57 -20 175 122 262 315 120 264 128 351 34 351 -69 0 -172 -56 -228 -125z"/>
<path d="M10256 32809 c-73 -117 38 -409 155 -409 49 0 89 41 89 92 0 50 27 163 61 250 65 171 -205 230 -305 67z"/>
<path d="M3267 32433 c-37 -36 -67 -153 -67 -258 0 -259 242 -167 282 108 31 210 -79 287 -215 150z"/>
<path d="M14709 31938 c-294 -373 -142 -507 202 -177 159 152 289 313 289 358 0 176 -297 67 -491 -181z"/>
<path d="M9767 32033 c-37 -36 -67 -171 -67 -300 0 -273 248 -316 338 -58 34 96 88 231 120 300 62 131 -269 180 -391 58z"/>
<path d="M2965 31253 c-60 -157 64 -290 171 -184 95 96 77 331 -25 331 -49 0 -115 -66 -146 -147z"/>
<path d="M9167 31133 c-111 -110 -75 -433 47 -433 116 0 377 289 383 425 4 93 -339 100 -430 8z"/>
<path d="M13962 30954 c-197 -300 -201 -354 -27 -354 188 0 498 365 419 494 -103 167 -218 126 -392 -140z"/>
<path d="M8659 30345 c-92 -93 -152 -216 -132 -275 67 -201 259 -183 375 35 158 294 -17 466 -243 240z"/>
<path d="M2639 30142 c34 -87 61 -177 61 -200 0 -23 45 -42 100 -42 55 0 100 90 100 200 0 117 -67 200 -161 200 -105 0 -140 -54 -100 -158z"/>
<path d="M12859 29792 c-278 -330 -337 -592 -134 -592 140 0 675 630 675 795 0 207 -287 100 -541 -203z"/>
<path d="M8097 29497 c-206 -206 -224 -405 -41 -465 129 -42 455 550 342 619 -50 31 -185 -38 -301 -154z"/>
<path d="M2534 29043 c-33 -86 -10 -207 53 -270 82 -82 113 -83 113 -1 0 61 27 183 61 270 33 87 9 158 -53 158 -63 0 -141 -71 -174 -157z"/>
<path d="M7558 28744 c-190 -190 -204 -344 -32 -344 163 0 398 373 280 446 -49 31 -161 -15 -248 -102z"/>
<path d="M11919 28496 c-232 -216 -273 -351 -135 -436 76 -47 516 453 516 586 0 113 -171 46 -381 -150z"/>
<path d="M11065 27417 c-158 -175 -229 -517 -106 -517 32 0 143 101 247 225 329 395 198 667 -141 292z"/>
<path d="M6267 27133 c-96 -96 -83 -433 18 -433 133 0 423 359 349 433 -86 86 -282 86 -367 0z"/>
<path d="M9975 26343 c-270 -147 -381 -443 -165 -443 60 0 240 93 400 207 495 353 315 534 -235 236z"/>
<path d="M5741 26262 c-84 -217 -25 -276 161 -161 114 71 120 117 25 212 -94 94 -135 83 -186 -51z"/>
<path d="M8814 25138 c-149 -104 -196 -196 -134 -258 118 -118 520 109 520 294 0 169 -109 159 -386 -36z"/>
<path d="M4904 24854 c-165 -198 -35 -404 155 -247 156 130 191 393 53 393 -48 0 -142 -66 -208 -146z"/>
<path d="M7722 24344 c-196 -137 -312 -444 -168 -444 133 0 633 440 586 516 -74 120 -166 105 -418 -72z"/>
<path d="M4300 23606 c0 -52 45 -122 100 -156 55 -34 100 8 100 94 0 86 -45 156 -100 156 -55 0 -100 -42 -100 -94z"/>
<path d="M6598 23348 c-70 -84 -98 -182 -63 -217 87 -86 565 139 565 267 0 157 -360 121 -502 -50z"/>
<path d="M4200 23206 c0 -58 45 -106 100 -106 55 0 100 20 100 44 0 24 -45 72 -100 106 -55 34 -100 14 -100 -44z"/>
<path d="M5620 22380 c-66 -66 -120 -181 -120 -256 0 -105 68 -95 300 42 165 97 300 212 300 256 0 122 -346 92 -480 -42z"/>
<path d="M4920 21415 c-130 -83 -417 -1004 -419 -1346 -2 -309 173 -91 245 305 38 207 155 525 261 707 257 440 232 536 -87 334z"/>
<path d="M4963 32230 c-31 -31 70 -174 224 -318 154 -144 304 -329 333 -412 29 -82 86 -119 128 -80 41 38 -21 225 -139 415 -210 341 -436 504 -546 395z"/>
<path d="M11100 12306 c0 -253 664 -1206 840 -1206 26 0 -16 124 -95 275 -79 151 -144 323 -144 381 -1 59 -136 236 -301 394 -170 163 -300 230 -300 156z"/>
<path d="M10362 12020 c-27 -44 97 -196 275 -339 183 -146 382 -436 459 -669 75 -227 174 -412 220 -412 173 0 75 467 -179 852 -372 563 -651 768 -775 568z"/>
<path d="M9900 11512 c0 -49 158 -208 350 -355 193 -147 350 -346 350 -442 0 -96 40 -218 88 -270 48 -52 142 -264 208 -470 66 -206 184 -375 262 -375 178 0 180 -17 -58 476 -110 228 -200 503 -200 612 0 113 -188 353 -435 555 -447 367 -565 423 -565 269z"/>
<path d="M9357 11111 c-30 -48 35 -112 144 -140 110 -29 199 -122 199 -207 0 -85 113 -267 250 -405 138 -137 250 -347 250 -465 0 -268 608 -1226 711 -1121 42 42 -145 527 -414 1077 -548 1117 -952 1565 -1140 1261z"/>
<path d="M22750 18400 c-34 -55 -14 -100 44 -100 58 0 106 45 106 100 0 55 -20 100 -44 100 -24 0 -72 -45 -106 -100z"/>
<path d="M7152 9962 c-143 -189 -360 -370 -481 -403 -313 -87 -1020 -717 -893 -796 58 -35 233 42 389 172 155 130 441 318 633 416 343 176 505 330 702 668 193 331 -89 284 -350 -57z"/>
<path d="M6775 8951 c-316 -298 -575 -612 -575 -697 0 -85 12 -154 26 -154 92 0 1274 1192 1274 1285 0 202 -137 120 -725 -434z"/>
<path d="M7025 8506 c-124 -104 -225 -264 -225 -357 0 -136 67 -113 343 116 188 157 346 319 350 360 13 136 -239 72 -468 -119z"/>
<path d="M12108 4175 c-327 -846 -449 -1137 -512 -1225 -40 -55 -106 -257 -147 -450 -41 -192 -254 -710 -472 -1150 -511 -1026 -612 -1350 -420 -1350 79 0 143 58 143 129 0 70 225 584 500 1142 275 557 500 1067 500 1134 0 152 504 1311 628 1445 152 164 -29 -739 -285 -1424 -200 -535 -424 -1356 -600 -2201 -31 -147 1 -225 91 -225 90 0 185 222 268 625 180 870 672 2184 873 2331 126 92 140 156 58 258 -79 99 -76 265 13 610 135 521 101 639 -128 450 -120 -99 -159 -99 -193 1 -66 196 -222 147 -317 -100z"/>
</g>
</svg>