<svg xmlns="http://www.w3.org/2000/svg" version="1.0" width="250" height="525" viewBox="0 0 250.000000 525.000000" preserveAspectRatio="xMidYMid meet">
<metadata>
Created by potrace 1.10, written by Peter Selinger 2001-2011
</metadata>
<g transform="translate(0.000000,525.000000) scale(0.010000,-0.010000)" fill="#555555" stroke="none">
<path d="M364 52352 c-33 -87 -122 -123 -215 -88 -137 53 -155 -27 -129 -572 27 -577 52 -639 273 -691 376 -88 391 -313 15 -238 -288 58 -307 43 -300 -225 4 -159 30 -232 58 -163 28 69 92 125 142 125 140 0 110 -664 -46 -1038 -76 -182 -137 -646 -136 -1032 l3 -700 661 233 c728 257 1480 305 1740 112 144 -107 152 -179 55 -491 -119 -386 -56 -740 114 -634 56 34 101 219 101 411 0 275 79 421 369 687 203 187 452 360 553 387 165 43 176 -1 118 -469 -61 -483 -145 -638 -751 -1393 -109 -136 -183 -164 -231 -87 -38 63 -152 114 -253 114 -101 0 -210 68 -241 150 -123 321 -761 38 -1014 -449 -184 -356 -181 -1689 6 -2217 167 -475 182 -684 49 -684 -52 0 -172 245 -267 545 -94 301 -206 525 -249 498 -42 -26 -123 32 -180 130 -89 154 -103 156 -106 14 -2 -89 62 -216 141 -282 79 -65 174 -261 212 -434 39 -174 176 -485 307 -691 241 -383 297 -581 162 -579 -100 1 -466 571 -620 967 -68 175 -188 342 -267 373 -78 30 -184 157 -234 282 l-91 227 -7 -220 c-3 -121 57 -256 135 -300 77 -44 260 -327 405 -630 145 -302 352 -707 459 -900 166 -297 173 -355 46 -382 -118 -26 -127 -75 -43 -234 60 -111 84 -225 54 -255 -105 -105 -715 505 -894 894 -100 218 -210 369 -243 336 -94 -95 377 -966 561 -1036 230 -88 507 -439 511 -648 6 -329 -263 -175 -680 388 -229 309 -417 492 -417 407 0 -85 106 -282 235 -437 130 -156 317 -457 417 -670 100 -213 321 -471 490 -574 169 -104 250 -188 178 -189 -177 0 -720 287 -720 381 0 41 -135 126 -300 188 -265 101 -300 92 -300 -69 0 -101 35 -198 79 -217 43 -18 275 -248 516 -512 304 -333 406 -510 333 -583 -121 -121 -528 88 -528 271 0 60 -84 186 -187 279 -181 164 -188 153 -197 -285 -7 -351 36 -484 188 -578 193 -121 259 -379 130 -507 -36 -37 -118 -23 -182 31 -86 71 -121 -47 -131 -454 l-15 -550 244 178 c134 97 245 232 247 298 2 67 89 168 194 224 105 56 295 272 421 479 127 207 288 435 359 508 71 73 129 171 129 219 0 48 169 290 375 539 206 249 465 571 575 716 199 262 721 830 1736 1889 294 308 722 645 950 749 228 104 508 294 622 422 114 129 407 423 650 653 243 230 600 584 792 786 193 201 861 752 1485 1223 625 472 1183 962 1241 1089 107 236 681 633 913 633 70 0 276 185 458 411 308 383 358 408 725 359 216 -29 477 -129 580 -222 103 -93 245 -149 317 -124 77 25 -7 115 -200 216 -561 291 -399 404 883 621 193 32 540 8 771 -54 378 -102 425 -149 478 -485 33 -204 196 -696 363 -1092 168 -396 272 -771 234 -834 -100 -161 -948 689 -948 950 0 307 -329 904 -500 906 -83 1 -261 80 -397 175 -136 95 -316 172 -400 171 -85 -1 -10 -93 166 -206 176 -112 430 -393 565 -623 136 -230 408 -621 605 -869 428 -536 439 -600 107 -600 -310 0 -1198 796 -1288 1155 -34 135 -109 245 -167 245 -139 0 -15 -384 221 -687 102 -130 161 -276 131 -325 -79 -128 -390 63 -660 405 -283 358 -963 831 -1086 755 -48 -30 -61 -125 -28 -211 33 -87 0 -194 -73 -239 -110 -68 -110 -110 -2 -240 87 -106 93 -158 18 -158 -61 0 -112 45 -112 100 0 55 -50 100 -111 100 -61 0 -84 -67 -53 -150 35 -91 0 -150 -89 -150 -81 0 -147 -73 -147 -162 0 -133 -27 -140 -150 -38 -210 175 -187 -26 36 -312 263 -336 334 -621 222 -899 -52 -131 -103 -194 -113 -139 -10 55 -29 145 -41 200 -13 55 -31 190 -40 300 -10 110 -59 266 -109 346 -80 125 -122 120 -295 -37 -167 -151 -192 -261 -143 -621 41 -296 23 -438 -53 -438 -94 0 -159 251 -131 508 3 32 -58 59 -136 59 -98 0 -125 -71 -86 -226 32 -125 9 -309 -49 -409 -100 -172 -106 -171 -109 19 -3 219 -443 749 -623 749 -61 0 -36 -83 57 -186 94 -104 140 -257 105 -350 -43 -110 -11 -164 97 -164 211 0 204 -347 -17 -809 -108 -224 -225 -341 -313 -311 -93 31 -121 -4 -83 -104 32 -83 8 -202 -54 -264 -83 -83 -79 -112 15 -112 70 0 201 74 291 163 111 112 175 127 202 47 21 -64 -136 -307 -349 -539 -214 -231 -495 -565 -625 -741 -196 -266 -283 -310 -521 -262 -323 65 -369 -32 -110 -229 159 -121 150 -133 -100 -136 -151 -2 -275 -48 -275 -103 0 -55 45 -100 100 -100 55 0 100 -50 100 -111 0 -68 -96 -87 -250 -48 -271 68 -349 -82 -94 -180 226 -86 65 -281 -170 -206 -141 44 -268 -19 -442 -221 -315 -367 -308 -426 65 -501 253 -50 299 -100 256 -272 -116 -466 -656 -1879 -769 -2016 -145 -175 -511 -190 -674 -27 -175 175 -274 15 -112 -180 125 -150 114 -159 -111 -92 l-249 75 220 -227 c185 -192 244 -207 377 -97 236 197 322 27 97 -193 -191 -188 -200 -188 -590 4 -541 266 -698 177 -205 -118 299 -178 354 -246 220 -272 -98 -19 -293 40 -433 132 -139 91 -278 141 -309 110 -94 -94 187 -360 379 -360 100 0 210 -45 244 -100 105 -170 -571 -112 -768 66 -101 91 -216 133 -256 93 -40 -40 38 -157 174 -259 282 -213 192 -406 -103 -221 -262 163 -431 153 -363 -23 30 -78 1 -165 -65 -192 -87 -36 -82 -75 21 -146 78 -55 111 -170 76 -263 -71 -185 -42 -172 584 247 402 270 1250 462 1250 284 0 -52 56 -86 125 -75 69 11 193 -3 275 -32 83 -28 285 -94 450 -145 266 -84 297 -133 272 -439 -16 -190 -111 -592 -212 -895 -101 -302 -330 -1022 -508 -1600 -179 -577 -385 -1119 -459 -1204 -79 -89 -110 -251 -74 -388 34 -129 21 -218 -29 -196 -49 21 -390 185 -756 364 -366 179 -1243 551 -1950 828 -706 276 -1389 556 -1517 620 l-233 118 333 276 c183 152 287 278 230 279 -115 3 -564 -287 -659 -427 -84 -122 -218 101 -138 230 34 55 121 100 194 100 143 0 412 277 340 350 -25 24 -212 -69 -416 -207 -379 -258 -628 -244 -523 29 43 113 7 139 -140 100 -144 -37 -253 35 -400 263 l-202 315 -1 -539 c-2 -397 44 -574 173 -672 167 -126 167 -133 0 -136 -96 -2 -175 -43 -175 -92 0 -115 243 -208 583 -223 206 -9 170 -35 -158 -114 -263 -63 -425 -159 -425 -251 0 -110 74 -133 294 -89 262 52 297 30 325 -212 24 -213 96 -282 331 -324 388 -68 233 -157 -425 -246 -660 -89 -709 -308 -65 -287 253 9 510 65 570 125 154 154 370 137 370 -28 0 -76 75 -199 167 -275 177 -146 178 -152 -28 589 -49 177 -29 214 90 168 101 -39 167 -232 194 -576 47 -595 -36 -827 -331 -921 -114 -36 -411 -380 -660 -763 -248 -384 -473 -676 -500 -650 -67 67 133 424 568 1016 578 786 627 909 438 1098 -149 149 -176 149 -340 0 -120 -108 -200 -126 -245 -53 -37 60 -109 82 -162 50 -52 -32 -65 -106 -29 -164 35 -57 8 -341 -62 -630 -104 -436 -158 -517 -313 -477 -171 45 -187 -19 -187 -762 0 -655 29 -812 150 -812 83 0 150 54 150 119 0 130 746 1424 984 1706 81 96 186 175 235 175 110 0 -286 -714 -772 -1391 -205 -285 -347 -542 -317 -572 61 -62 742 864 1259 1712 187 306 355 540 375 521 97 -98 -201 -1777 -383 -2156 -115 -240 -217 -510 -227 -600 -26 -238 -136 -516 -362 -914 -520 -917 -994 -2135 -726 -1868 163 163 309 -149 232 -493 -93 -412 -151 -486 -380 -488 -100 0 -182 -97 -201 -237 -21 -143 7 -211 69 -172 69 42 84 -99 47 -414 -86 -722 -125 -4022 -43 -3678 65 276 77 283 144 86 42 -124 8 -399 -79 -650 -180 -515 -208 -1993 -42 -2159 84 -84 160 -83 295 1 101 63 219 76 262 30 44 -47 24 -105 -45 -130 -69 -25 -125 -105 -125 -178 0 -238 382 -1032 602 -1252 324 -324 137 -391 -682 -247 l-430 76 30 -685 30 -685 375 -89 c422 -99 481 -221 158 -324 -147 -46 -256 -16 -336 94 -66 89 -148 162 -183 162 -114 0 -68 -556 56 -680 87 -87 88 -120 6 -120 -71 0 -113 -189 -111 -500 l4 -500 461 0 c529 0 469 -167 -79 -218 -224 -21 -360 -90 -380 -193 -46 -246 966 -404 2428 -378 1278 23 1533 76 1400 291 -49 79 -29 108 56 80 173 -58 213 -198 106 -368 -61 -95 -315 -136 -849 -136 -428 0 -762 -43 -762 -98 0 -56 272 -83 650 -64 358 19 650 0 650 -41 0 -170 -1526 -118 -1931 66 -175 80 -645 175 -1044 212 -608 56 -725 43 -725 -83 0 -112 176 -167 700 -220 973 -98 1023 -275 59 -207 -608 43 -759 26 -759 -86 0 -182 677 -296 1283 -215 447 59 456 55 217 -87 -147 -87 -508 -149 -875 -151 -599 -4 -625 -14 -625 -254 0 -137 34 -251 75 -251 41 -1 176 -29 300 -62 178 -48 225 -19 225 137 0 170 88 206 611 254 665 60 2089 -20 2089 -117 0 -34 -542 -67 -1205 -74 -662 -7 -1231 -39 -1262 -71 -98 -97 -64 -1284 52 -1866 61 -303 129 -662 152 -800 23 -137 98 -533 166 -878 126 -635 86 -851 -118 -647 -61 61 -106 339 -100 618 6 279 -33 507 -87 507 -54 0 -103 -56 -110 -125 -25 -263 -165 499 -179 975 -15 472 -24 489 -171 300 -192 -247 -131 -1278 90 -1532 207 -237 293 -1118 110 -1118 -76 0 -138 92 -138 204 0 140 -56 195 -175 175 -136 -22 -176 43 -178 291 -2 176 -36 352 -75 392 -40 39 -72 -221 -72 -578 l0 -649 641 -119 c453 -83 783 -88 1125 -17 572 119 1354 92 1457 -49 41 -55 75 -266 75 -469 1 -203 51 -399 110 -436 73 -45 99 83 80 395 -21 346 18 506 156 636 176 166 181 165 104 -26 -44 -110 -79 -290 -76 -400 2 -110 14 -492 26 -850 26 -729 -86 -1800 -187 -1800 -37 0 -157 63 -267 140 -110 78 -514 172 -897 209 -826 81 -716 82 -1622 -7 l-725 -71 0 -1136 0 -1135 1885 0 1885 0 66 1075 c36 591 106 1325 156 1630 50 306 118 1768 151 3250 103 4634 164 6122 265 6464 53 182 118 759 144 1281 64 1281 134 2042 248 2700 53 303 122 842 154 1198 32 356 78 668 102 692 112 112 27 -1982 -95 -2340 -89 -260 -161 -1181 -206 -2637 -38 -1231 -126 -2536 -195 -2900 -82 -436 -99 -920 -49 -1413 108 -1056 105 -2743 -7 -4685 -53 -916 -114 -2182 -136 -2815 -38 -1097 -35 -1125 83 -600 68 303 158 1158 199 1900 40 742 84 1485 97 1650 12 165 34 840 47 1500 20 997 41 1141 125 850 97 -339 85 -633 -221 -5100 -46 -687 -116 -1351 -153 -1475 -55 -182 -29 -225 137 -225 116 0 232 85 267 197 91 287 232 1640 180 1731 -24 43 -12 380 28 750 52 480 95 615 151 472 43 -110 81 -324 85 -475 10 -406 207 -335 207 75 0 193 46 350 102 350 56 0 78 -101 50 -225 -57 -249 -252 -2294 -252 -2650 0 -294 273 -294 329 0 l44 225 13 -225 c14 -218 46 -225 1064 -225 983 0 1050 13 1050 200 0 110 41 200 91 200 49 0 67 -90 38 -200 -49 -187 -3 -200 692 -200 l744 0 -3 1925 c-1 1453 40 2109 167 2675 94 413 241 1132 328 1599 87 467 193 894 236 950 43 55 157 416 253 801 96 385 213 790 259 900 253 594 609 1751 647 2100 39 364 308 1863 552 3083 53 265 96 684 96 931 0 247 43 529 95 626 52 97 139 609 193 1137 54 528 150 1057 214 1177 64 119 156 502 206 850 81 574 55 764 -279 2015 -394 1476 -442 2222 -178 2733 80 155 219 498 309 762 190 560 1223 1871 1647 2090 161 83 293 193 293 245 0 168 405 316 691 253 229 -50 280 -117 288 -368 4 -169 95 -404 200 -521 382 -424 1158 -3566 937 -3787 -79 -79 -121 -70 -150 32 -656 2310 -1277 3972 -1552 4154 -326 217 -517 25 -225 -226 116 -99 211 -227 212 -283 0 -57 68 -233 151 -391 130 -250 131 -303 6 -400 -397 -310 -855 -1664 -857 -2538 -1 -677 -1030 -5028 -1159 -4899 -25 25 85 581 246 1235 364 1484 440 2095 314 2532 -55 194 -60 389 -12 450 48 59 106 513 130 1008 48 975 242 1497 793 2128 158 181 284 429 281 550 -6 213 -11 214 -125 30 -65 -106 -264 -357 -440 -558 -495 -564 -732 -1222 -789 -2194 -28 -471 -91 -946 -140 -1056 -49 -110 -107 -290 -128 -400 -27 -137 -64 -80 -118 179 -134 651 -288 370 -263 -480 26 -869 61 -989 269 -909 236 91 189 -328 -266 -2340 -333 -1473 -411 -1910 -438 -2450 -13 -275 -124 -1326 -246 -2336 -196 -1627 -212 -2052 -69 -1906 63 65 536 3542 609 4480 36 461 105 933 153 1050 53 129 64 -131 27 -663 -41 -607 -26 -875 51 -875 60 0 138 169 173 375 114 671 359 1663 551 2225 397 1160 751 3172 889 5050 75 1022 163 1344 525 1931 300 486 417 268 234 -435 -84 -324 -161 -928 -170 -1342 -10 -415 -55 -803 -100 -864 -45 -60 -147 -484 -227 -941 -80 -457 -325 -1398 -543 -2090 -219 -693 -495 -1709 -613 -2259 -329 -1531 -414 -1863 -604 -2350 -220 -564 -739 -2991 -657 -3073 116 -116 186 69 429 1143 381 1681 400 1755 564 2180 268 697 174 -80 -249 -2050 -125 -583 -176 -2100 -70 -2100 94 0 187 562 188 1138 0 281 47 681 104 887 58 207 124 499 148 650 23 151 72 466 108 700 36 234 109 425 163 425 54 0 70 -109 37 -242 -34 -133 -106 -662 -161 -1175 -55 -513 -171 -1338 -258 -1833 -163 -922 -220 -1420 -481 -4200 -144 -1532 -156 -6689 -15 -6829 30 -30 55 32 57 137 3 178 10 180 105 17 56 -96 185 -175 286 -175 176 0 175 30 -22 725 -172 606 -211 1078 -239 2875 -35 2238 189 5853 389 6268 57 120 78 287 46 371 -60 158 -6 551 293 2111 101 527 180 1463 190 2259 10 748 47 1407 84 1466 109 177 645 2337 713 2875 107 846 262 1433 392 1482 196 76 423 1444 278 1676 -219 350 -85 2192 143 1964 30 -30 72 -670 92 -1421 31 -1153 6 -1463 -160 -1984 -387 -1210 -1153 -5215 -1247 -6517 -55 -761 -50 -788 103 -550 l161 250 -47 -300 c-25 -165 -113 -660 -196 -1100 -187 -996 -245 -2084 -115 -2150 58 -30 127 325 169 876 39 510 139 1252 220 1650 82 398 181 1039 220 1424 39 385 129 835 201 1000 l130 300 2 -450 c0 -247 -113 -1305 -253 -2350 -302 -2249 -415 -3950 -263 -3950 128 0 223 664 273 1904 21 520 111 1531 201 2246 248 1992 315 2859 222 2916 -46 28 -41 104 11 168 224 272 516 1565 547 2416 20 535 90 1001 175 1150 l142 250 32 -276 c18 -151 -35 -601 -118 -1000 -83 -398 -176 -1016 -207 -1374 -31 -357 -125 -1280 -208 -2050 -413 -3819 -636 -7728 -503 -8794 39 -315 90 -554 113 -532 22 23 64 848 92 1834 28 986 118 2310 201 2942 82 633 197 1668 255 2300 58 632 154 1195 213 1250 173 162 16 -2656 -212 -3800 -199 -1001 -323 -3150 -182 -3150 41 0 80 101 87 225 88 1705 119 2033 288 2975 65 358 155 875 201 1150 47 275 93 1153 103 1950 16 1208 35 1366 110 950 50 -275 100 -1062 111 -1750 16 -1084 -17 -1383 -252 -2250 -280 -1036 -324 -1365 -200 -1489 40 -40 125 292 188 738 120 840 159 946 324 886 60 -22 49 -187 -29 -435 -153 -485 -330 -1292 -462 -2100 -92 -563 -150 -994 -382 -2850 -52 -412 -126 -1728 -164 -2924 -64 -1971 -55 -2180 95 -2237 91 -35 193 -36 227 -3 33 34 65 666 70 1405 12 1657 161 1529 236 -202 41 -949 85 -1239 189 -1239 74 0 135 43 135 96 0 151 412 334 732 325 173 -5 349 -92 435 -215 116 -166 252 -206 702 -206 l559 0 -67 1475 c-36 811 -92 2062 -125 2779 -42 935 -12 1667 107 2590 107 829 132 1321 70 1383 -63 63 -122 -68 -167 -366 -61 -409 -246 -756 -246 -462 0 252 413 2285 551 2716 83 255 179 808 214 1228 36 420 103 787 150 816 47 29 85 309 85 622 1 758 280 3633 361 3709 55 52 2 -799 -109 -1748 -19 -161 -46 -1101 -60 -2090 -21 -1510 -54 -1846 -203 -2100 -169 -288 -296 -1422 -465 -4152 -137 -2222 106 -6400 371 -6400 80 0 46 716 -97 2050 -168 1566 -134 4227 84 6450 180 1837 201 1938 374 1795 202 -168 191 -1982 -20 -3145 -269 -1487 -207 -7150 79 -7150 57 0 67 244 25 615 -119 1055 -93 4684 42 5835 204 1740 268 3657 125 3746 -123 76 -42 1515 186 3304 138 1084 197 2895 104 3194 -117 372 -215 2629 -112 2565 48 -29 115 -268 150 -531 311 -2335 339 -2684 257 -3312 -47 -366 -87 -1107 -89 -1646 -2 -621 -53 -1079 -139 -1250 -187 -372 -273 -1127 -168 -1478 72 -243 88 -187 95 333 5 364 53 625 114 625 131 0 36 -2733 -131 -3750 -114 -696 -149 -6590 -42 -7000 29 -110 56 -436 60 -725 8 -519 12 -525 318 -525 l309 0 -52 525 c-260 2628 -370 4996 -273 5842 58 504 111 1764 118 2800 l12 1883 154 -1550 c85 -852 144 -2203 131 -3000 -20 -1251 78 -2752 373 -5742 67 -685 261 -986 347 -539 l44 231 13 -225 c9 -135 79 -225 176 -225 121 0 144 57 94 225 -151 506 -170 1528 -62 3375 148 2530 197 3030 310 3143 156 157 182 39 207 -945 17 -680 -24 -1083 -144 -1426 -134 -385 -167 -863 -167 -2425 l0 -1947 257 0 256 0 -18 2225 c-12 1411 27 2499 107 2975 70 413 156 1155 192 1650 43 591 94 839 148 722 47 -103 9 -693 -91 -1392 -135 -948 -158 -1553 -107 -2772 36 -857 72 -1974 81 -2483 l16 -925 811 0 810 0 118 475 c166 666 165 7494 -1 8156 -97 391 -95 497 12 563 96 60 116 251 75 719 -142 1629 -264 2419 -448 2912 -306 818 -702 2947 -675 3625 42 1047 55 1150 143 1150 99 0 308 -1502 410 -2950 44 -619 150 -1210 280 -1550 115 -302 233 -640 263 -750 30 -110 25 160 -11 600 -82 1013 -77 1338 26 1650 77 234 71 239 -86 82 -92 -92 -172 -250 -176 -350 -5 -123 -25 -138 -62 -45 -54 136 140 873 281 1064 41 56 78 823 83 1704 9 1515 -49 1962 -343 2670 -107 259 100 213 227 -50 106 -221 109 -220 115 51 7 270 -357 873 -1042 1724 -844 1049 -1570 2477 -1400 2752 134 217 312 74 437 -348 73 -246 285 -662 472 -925 187 -263 340 -532 340 -598 0 -187 213 -272 306 -122 107 173 109 170 531 -659 l356 -700 4 2719 c1 1496 -33 2741 -77 2769 -151 93 -338 -112 -318 -349 36 -427 3 -471 -403 -539 -237 -40 -569 -208 -811 -410 -469 -392 -765 -490 -1210 -401 -446 90 -688 336 -616 625 49 193 21 236 -153 236 -117 0 -390 117 -605 260 -298 196 -533 263 -973 275 -320 8 -603 40 -631 71 -97 110 -1194 409 -1287 352 -140 -86 -1314 232 -1681 456 -175 107 -546 221 -825 254 -487 57 -620 150 -407 282 55 34 100 150 100 258 0 112 107 245 250 310 137 63 250 152 250 198 0 177 -234 70 -560 -256 -339 -339 -433 -320 -237 46 57 105 237 261 400 346 330 170 408 397 102 300 -163 -52 -191 -17 -175 218 16 226 -18 276 -180 257 -280 -32 -1163 -108 -1381 -118 -149 -7 -175 -82 -150 -426 18 -240 89 -436 166 -462 101 -33 117 16 64 192 -119 391 -108 431 126 467 152 23 225 -17 225 -123 0 -220 172 -196 300 43 133 249 319 255 534 17 155 -171 150 -197 -76 -410 -133 -125 -292 -349 -354 -498 -105 -254 -562 -609 -784 -609 -159 0 -228 298 -116 507 115 215 2 259 -184 73 -261 -261 -30 -880 330 -880 98 0 238 79 312 175 117 153 147 156 235 25 174 -261 113 -398 -254 -573 -321 -153 -383 -155 -624 -21 -329 185 -417 621 -305 1510 44 349 54 825 22 1059 -64 467 -35 495 294 279 173 -114 354 -127 827 -60 749 106 1154 37 1218 -208 26 -102 111 -186 187 -186 80 0 138 -103 138 -245 0 -135 79 -291 175 -347 96 -56 120 -103 53 -105 -68 -2 -193 -138 -278 -303 -85 -165 -221 -300 -303 -300 -81 0 -147 -45 -147 -100 0 -55 107 -100 238 -100 131 0 540 -113 908 -252 369 -139 866 -271 1106 -293 239 -23 525 -89 634 -147 109 -59 483 -135 831 -169 348 -34 662 -107 697 -163 95 -151 256 -13 309 265 31 163 -6 263 -113 301 -88 32 -216 84 -285 116 -79 37 -125 -20 -125 -158 0 -256 -233 -220 -284 44 -56 288 104 349 610 232 401 -93 467 -140 416 -300 -71 -225 195 -556 558 -695 138 -52 266 -103 287 -113 20 -10 52 156 71 369 35 389 272 863 433 863 47 0 113 -101 146 -225 117 -438 62 -813 -154 -1043 -119 -127 -185 -263 -146 -303 120 -119 556 502 559 796 2 151 49 275 104 275 166 0 112 -429 -97 -771 -133 -220 -161 -343 -86 -390 239 -147 658 748 520 1109 -91 237 452 406 654 204 86 -86 157 -212 158 -279 0 -68 46 -141 101 -164 55 -22 251 -103 436 -180 185 -78 365 -109 400 -71 35 38 1 92 -75 119 -77 27 -347 246 -600 486 -486 459 -603 502 -920 332 -107 -57 -241 -76 -296 -42 -155 96 322 543 581 545 327 3 873 -387 1080 -771 98 -183 283 -358 411 -390 330 -83 733 39 733 221 0 85 -45 126 -100 92 -57 -35 -100 49 -100 194 0 141 45 256 100 256 65 0 99 1074 98 3025 l-2 3025 -506 300 c-677 401 -811 565 -372 454 919 -234 882 -239 882 121 0 291 -62 365 -541 652 -297 177 -625 323 -730 323 -104 0 -239 50 -300 111 -141 141 -360 14 -290 -168 78 -203 -83 -256 -298 -99 -184 135 -184 143 -1 345 210 232 247 153 -522 1142 -518 666 -844 1448 -706 1693 63 114 46 284 -54 522 -81 195 -106 354 -55 354 179 0 787 -1444 661 -1570 -31 -31 -110 62 -176 207 -117 256 -288 357 -288 170 0 -219 1139 -1584 1575 -1887 396 -276 1582 -920 1693 -920 17 0 32 457 32 1016 0 934 -20 1042 -255 1350 -249 326 -593 1034 -502 1034 25 0 205 -281 400 -625 l354 -625 1 384 c1 236 -76 483 -199 640 -111 141 -173 283 -137 316 36 33 85 4 110 -65 71 -197 228 -146 228 75 0 143 -67 200 -235 200 -255 0 -567 282 -562 508 3 114 27 111 125 -16 67 -88 246 -190 397 -227 229 -57 275 -36 275 125 0 134 -92 214 -299 260 -435 95 -470 250 -57 250 250 0 356 45 356 150 0 105 -106 150 -350 150 -244 0 -350 45 -350 150 0 105 106 150 350 150 252 0 350 44 350 158 0 123 -65 144 -300 92 -231 -51 -300 -31 -300 86 0 191 165 301 249 166 107 -174 351 -112 351 89 0 141 -52 177 -200 138 -142 -37 -200 -3 -200 119 0 94 90 194 200 223 226 59 262 187 75 263 -94 38 -88 77 25 158 125 90 127 123 14 196 -115 74 -115 95 0 137 109 39 112 89 15 255 -96 161 -96 216 0 255 88 36 80 79 -29 157 -128 92 -129 121 -9 199 120 77 116 116 -25 257 -223 223 -217 462 9 389 129 -41 140 -31 44 38 -208 149 -262 715 -75 786 86 33 156 150 156 260 0 135 -48 182 -147 144 -81 -31 -173 -13 -206 39 -32 53 34 96 147 96 113 0 206 45 206 100 0 55 -110 100 -244 100 -139 0 -312 96 -400 222 -221 315 -195 396 119 375 479 -32 525 -5 525 303 0 337 -18 343 -955 306 -479 -19 -636 13 -750 154 -92 114 -99 151 -19 102 70 -41 486 -44 925 -6 677 59 799 97 799 250 0 107 -91 198 -225 223 l-225 44 225 13 c124 8 225 61 225 118 0 68 -289 88 -826 58 -454 -26 -983 -13 -1175 27 l-349 74 350 66 c193 36 721 44 1175 18 454 -26 825 -8 825 39 0 134 -807 214 -2152 214 -883 0 -1319 43 -1562 152 -312 142 -189 150 1689 117 l2025 -35 0 226 c0 130 -74 245 -175 271 -167 44 -167 46 0 57 147 10 175 114 175 655 0 804 12 799 -1734 709 -2174 -113 -3666 -127 -3666 -37 0 47 -142 85 -317 85 -174 0 -286 31 -248 68 37 37 821 79 1741 92 4183 59 4224 62 4224 314 0 124 -56 230 -125 234 -100 6 -100 18 0 58 69 28 125 97 125 153 0 68 -601 98 -1725 88 -949 -8 -1837 -7 -1975 2 -498 33 -3314 -106 -3415 -168 -57 -36 -359 -38 -670 -5 -311 32 -1105 67 -1765 77 -1313 19 -1967 79 -1907 175 21 34 -306 63 -727 64 -421 2 -1198 41 -1725 89 -595 53 -1025 50 -1131 -9 -94 -53 -314 -73 -490 -44 l-320 51 300 75 c165 41 -224 51 -865 23 -771 -33 -1187 -15 -1231 56 -62 101 481 137 2346 154 1053 9 4016 -211 4083 -304 119 -165 4168 -162 7548 5 1804 89 3368 134 3475 100 167 -53 194 -13 194 295 l0 357 -525 17 c-1034 34 -1236 79 -825 183 165 42 536 82 825 88 289 7 525 57 525 112 0 64 -847 94 -2375 83 -2004 -14 -2203 -28 -1275 -87 1326 -85 1250 -73 1250 -196 0 -137 -672 -127 -757 12 -48 77 -341 90 -954 43 -957 -75 -1650 30 -989 150 193 35 -2687 63 -6400 62 -3712 -1 -6592 -33 -6400 -71 l350 -70 -355 -13 c-195 -7 -399 31 -453 85 -65 65 -305 65 -695 1 -734 -120 -1124 -120 -747 1 141 45 -848 84 -2264 90 -2137 9 -2523 -12 -2572 -138z m909 -21 c-97 -26 -232 -24 -300 3 -68 28 12 49 177 47 165 -3 220 -25 123 -50z m1627 -47 c0 -46 -228 -84 -506 -84 -314 0 -482 38 -444 101 74 119 950 104 950 -17z m15700 16 c-82 -53 -397 -97 -700 -97 -392 0 -507 28 -400 97 83 53 398 97 700 97 392 0 507 -28 400 -97z m-9775 -66 c-69 -28 -181 -28 -250 0 -69 28 -12 50 125 50 138 0 194 -22 125 -50z m6748 -3 c-97 -26 -232 -24 -300 3 -68 28 12 49 177 47 165 -3 220 -25 123 -50z m-4623 -97 l300 -68 -300 -60 c-412 -82 -1712 -6 -1556 90 164 102 1171 126 1556 38z m675 -100 c-69 -28 -181 -28 -250 0 -69 28 -12 50 125 50 138 0 194 -22 125 -50z m-10825 -134 c0 -55 -48 -100 -106 -100 -58 0 -78 45 -44 100 34 55 82 100 106 100 24 0 44 -45 44 -100z m2542 13 c60 -96 -498 -210 -1037 -212 -437 -1 -290 169 195 226 646 76 788 73 842 -14z m658 -75 c0 -21 -90 -38 -200 -38 -110 0 -200 41 -200 91 0 49 90 67 200 38 110 -29 200 -70 200 -91z m8119 94 c-72 -29 -159 -26 -192 8 -33 33 26 56 131 52 117 -5 141 -28 61 -60z m-7369 -132 c34 -55 -8 -100 -94 -100 -86 0 -156 45 -156 100 0 55 42 100 94 100 52 0 122 -45 156 -100z m1406 -53 c-217 -164 -356 -189 -356 -64 0 140 123 217 342 214 204 -3 205 -6 14 -150z m1117 84 c-97 -26 -232 -24 -300 3 -68 28 12 49 177 47 165 -3 220 -25 123 -50z m700 0 c-97 -26 -232 -24 -300 3 -68 28 12 49 177 47 165 -3 220 -25 123 -50z m-2651 -155 c-169 -81 -259 -79 -345 7 -89 89 -35 115 228 110 324 -6 331 -13 117 -117z m9614 -26 c71 -184 -133 -185 -686 -3 l-400 132 514 11 c372 7 531 -31 572 -140z m-13786 -50 c-39 -63 180 -100 588 -100 358 0 678 -45 712 -100 40 -64 -283 -100 -895 -100 -577 0 -1035 -48 -1152 -121 -107 -67 -227 -89 -267 -49 -114 114 128 299 434 332 152 16 293 76 312 134 19 57 101 104 182 104 81 0 120 -45 86 -100z m21042 63 c-23 -20 -447 -66 -942 -102 -619 -46 -853 -35 -750 35 134 90 1793 157 1692 67z m-5242 -163 c35 -57 -49 -100 -194 -100 -141 0 -256 45 -256 100 0 55 87 100 194 100 107 0 222 -45 256 -100z m2100 0 c-34 -55 -239 -100 -456 -100 -217 0 -394 45 -394 100 0 55 205 100 456 100 278 0 432 -39 394 -100z m-12350 -92 c-297 -169 -1233 -227 -2553 -156 -739 40 -1320 112 -1290 160 30 48 941 87 2024 85 1147 -2 1906 -39 1819 -89z m700 -219 c0 -49 -135 -89 -300 -89 -323 0 -412 160 -125 224 218 49 425 -17 425 -135z m4550 -189 c34 -55 -8 -100 -94 -100 -86 0 -156 45 -156 100 0 55 42 100 94 100 52 0 122 -45 156 -100z m-9377 -69 c-97 -26 -232 -24 -300 3 -68 28 12 49 177 47 165 -3 220 -25 123 -50z m2177 -149 c135 -145 -1586 -33 -1825 119 -132 84 60 96 775 50 523 -34 995 -110 1050 -169z m1700 -88 c151 -62 100 -83 -212 -88 -601 -9 -1086 101 -921 209 137 90 781 21 1133 -121z m3477 107 c703 -52 1355 -141 1450 -198 130 -78 48 -93 -327 -57 -1248 119 -2775 158 -2883 74 -64 -51 -341 -59 -617 -19 -275 40 -387 79 -250 87 138 8 318 59 400 112 185 120 597 120 2227 1z m-8908 -69 c-72 -29 -159 -26 -192 8 -33 33 26 56 131 52 117 -5 141 -28 61 -60z m1531 -32 c171 -73 156 -86 -100 -86 -165 0 -390 39 -500 86 -171 73 -156 86 100 86 165 0 390 -39 500 -86z m10990 -200 c-64 -64 -417 -69 -995 -13 l-895 86 995 13 c660 9 962 -19 895 -86z m3560 0 c322 -103 -1115 -106 -2350 -5 -847 69 -812 74 600 79 825 3 1613 -30 1750 -74z m4047 -4 c-1046 -137 -2439 -190 -2497 -96 -58 94 762 155 2250 167 845 8 847 7 247 -71z m1478 38 c-69 -28 -181 -28 -250 0 -69 28 -12 50 125 50 138 0 194 -22 125 -50z m-20675 -234 c34 -55 205 -103 381 -106 315 -7 316 -8 69 -109 -174 -70 -410 -66 -773 14 -673 147 -769 301 -189 301 248 0 478 -45 512 -100z m3364 53 c26 -26 1080 -72 2342 -102 1262 -29 2452 -97 2644 -150 246 -68 -95 -81 -1150 -42 -825 30 -2467 70 -3650 89 -1182 19 -2262 81 -2400 137 -191 78 35 104 958 109 665 3 1230 -15 1256 -41z m-4514 -153 c0 -55 -45 -100 -100 -100 -55 0 -100 45 -100 100 0 55 45 100 100 100 55 0 100 -45 100 -100z m16956 -153 c-217 -164 -356 -189 -356 -64 0 140 123 217 342 214 204 -3 205 -6 14 -150z m694 53 c78 -127 -54 -127 -250 0 -129 84 -127 97 19 98 93 1 197 -43 231 -98z m-1750 -200 c0 -55 -247 -100 -550 -100 -535 0 -644 -60 -460 -255 49 -52 107 -396 129 -764 32 -541 10 -676 -115 -708 -220 -58 -416 26 -342 146 34 56 -41 322 -167 591 -181 388 -280 490 -470 490 -373 0 -218 216 281 393 244 86 459 191 477 232 51 114 1217 90 1217 -25z m-2808 -36 c-110 -95 -1292 -152 -1292 -62 0 54 296 98 667 98 366 0 648 -16 625 -36z m-9007 -153 c124 -78 -2099 -42 -2335 39 -55 19 418 37 1050 41 633 3 1211 -33 1285 -80z m2907 -10 c628 -2 268 -74 -727 -145 -544 -38 -961 -31 -932 16 29 48 223 98 431 112 208 14 402 48 430 76 28 29 142 27 253 -3 112 -30 357 -55 545 -56z m-5667 -73 c-179 -23 -471 -23 -650 0 -179 22 -32 40 325 40 358 0 504 -18 325 -40z m20950 -53 c-23 -69 -94 -120 -158 -115 -64 6 -308 22 -542 37 -407 26 -412 30 -125 103 495 126 872 115 825 -25z m-12817 -50 c-99 -100 -956 -102 -894 -3 26 43 255 78 509 78 253 0 427 -34 385 -75z m6892 -25 c-286 -123 -1076 -123 -1000 0 34 55 318 97 631 93 410 -5 513 -31 369 -93z m3902 -52 c-653 -141 -3688 -87 -3594 64 28 46 982 79 2121 74 1947 -8 2035 -16 1473 -138z m3598 52 c-34 -55 -318 -95 -631 -88 -470 10 -517 25 -269 88 454 115 971 115 900 0z m-21700 -200 c40 -65 -336 -94 -1069 -82 -1055 16 -1084 22 -431 82 1142 105 1435 105 1500 0z m4201 -47 c934 -36 2066 -80 2515 -98 836 -33 1081 -98 980 -262 -36 -57 -125 -58 -229 -2 -94 50 -980 95 -1969 100 -989 5 -2028 47 -2310 92 -340 55 -676 42 -1000 -41 -364 -92 -505 -95 -558 -9 -46 74 77 152 350 221 231 59 443 98 471 86 28 -12 815 -51 1750 -87z m-3101 -53 c37 -60 -82 -100 -294 -100 -196 0 -356 45 -356 100 0 55 132 100 294 100 162 0 322 -45 356 -100z m13872 -125 c-139 -66 -264 -72 -320 -17 -55 56 35 99 228 109 300 16 306 10 92 -92z m2469 -188 c-352 -35 -1023 -61 -1491 -59 -467 3 -686 23 -486 44 200 21 807 97 1350 167 714 93 1025 99 1127 20 109 -83 -9 -124 -500 -172z m4240 120 c104 -102 -2720 -244 -2964 -150 -292 112 18 246 433 187 193 -28 710 -9 1150 41 805 93 1231 68 1381 -78z m-7731 -95 c0 -228 -163 -374 -517 -463 -208 -52 -274 -27 -306 117 -60 267 210 534 538 534 212 0 285 -48 285 -188z m-14800 -80 c-1049 -173 -1500 -192 -1500 -65 0 102 207 130 875 119 481 -7 763 -32 625 -54z m824 -103 c-125 -24 -305 -23 -400 2 -96 25 6 45 226 44 220 -1 298 -22 174 -46z m3234 -16 c-29 -47 -167 -64 -306 -38 -148 28 -252 2 -252 -63 0 -62 -67 -112 -150 -112 -156 0 -198 118 -83 233 99 100 853 81 791 -20z m2575 -72 c1694 -84 1609 -240 -102 -187 -1373 41 -1931 119 -1931 268 0 58 137 76 325 44 179 -31 948 -87 1708 -125z m15542 -128 c179 -76 325 -179 325 -231 0 -52 -46 -66 -101 -31 -118 73 -2615 175 -3674 151 -447 -10 -725 23 -725 87 0 65 445 115 1175 133 2110 50 2670 30 3000 -109z m-19375 -13 c0 -55 -115 -100 -256 -100 -145 0 -229 43 -194 100 34 55 149 100 256 100 107 0 194 -45 194 -100z m5725 34 c-69 -28 -181 -28 -250 0 -69 28 -12 50 125 50 138 0 194 -22 125 -50z m-10105 -254 c-93 -93 -147 -93 -240 0 -93 93 -67 120 120 120 187 0 213 -27 120 -120z m6926 -73 c33 -54 -350 -107 -919 -126 -1040 -36 -1164 -21 -1073 126 75 121 1917 121 1992 0z m2904 -7 c35 -57 -49 -100 -194 -100 -141 0 -256 45 -256 100 0 55 87 100 194 100 107 0 222 -45 256 -100z m-6075 -125 c-47 -142 -208 -126 -258 25 -19 55 41 100 133 100 92 0 148 -56 125 -125z m4544 -43 c-72 -29 -159 -26 -192 8 -33 33 26 56 131 52 117 -5 141 -28 61 -60z m800 0 c-72 -29 -159 -26 -192 8 -33 33 26 56 131 52 117 -5 141 -28 61 -60z m8470 -632 c42 0 37 -299 -12 -665 -78 -579 -54 -804 180 -1725 415 -1628 537 -1997 691 -2083 78 -43 430 -641 783 -1328 357 -694 730 -1290 839 -1341 128 -59 197 -190 197 -375 0 -157 92 -386 205 -509 112 -123 279 -371 370 -550 163 -323 162 -327 -95 -425 -337 -128 -347 -127 -347 57 0 86 42 130 93 98 51 -31 123 -9 159 49 70 114 -627 1197 -771 1197 -47 0 -209 191 -360 425 -711 1100 -1042 1482 -1233 1421 -217 -69 -233 -16 -74 239 90 144 60 313 -143 823 -142 353 -354 1092 -472 1642 -524 2430 -566 2770 -366 2936 85 71 130 193 100 271 -30 79 -18 222 26 318 64 138 89 106 117 -150 20 -179 71 -325 113 -325z m926 222 c-63 -21 -115 -110 -115 -197 0 -87 -30 -128 -67 -92 -37 37 -4 184 72 326 86 161 155 210 182 130 24 -71 -9 -146 -72 -167z m-14371 -270 c-90 -477 166 -934 770 -1377 506 -371 786 -469 786 -275 0 55 87 100 194 100 107 0 222 -45 256 -100 34 -55 -15 -100 -108 -100 -94 0 -220 -66 -281 -147 -90 -119 -197 -127 -561 -46 -247 56 -508 178 -580 272 -71 94 -225 171 -341 171 -116 0 -230 56 -254 125 -26 80 16 103 117 64 232 -89 196 -6 -174 398 -393 429 -468 447 -468 113 0 -174 -55 -250 -180 -250 -180 0 -420 177 -420 311 0 126 717 936 935 1055 295 162 382 74 309 -314z m730 -110 c135 -540 89 -842 -128 -842 -78 0 -206 101 -284 225 -117 183 -122 314 -30 701 63 261 160 460 216 442 56 -18 158 -255 226 -526z m3751 459 c206 0 375 -46 375 -101 0 -112 -1085 -138 -1360 -33 -163 63 -162 74 17 146 106 43 283 58 393 34 110 -24 369 -45 575 -46z m11125 -126 c-139 -422 -175 -1075 -60 -1075 60 0 111 169 112 375 2 641 193 757 205 125 11 -542 13 -545 113 -200 l103 350 104 -250 104 -250 59 292 c64 314 310 481 310 211 0 -89 -68 -295 -152 -456 -104 -203 -131 -421 -84 -709 87 -547 384 -1321 525 -1368 162 -54 137 162 -89 756 -110 289 -200 627 -199 750 1 422 205 974 360 974 97 0 135 -63 103 -175 -143 -508 -159 -826 -66 -1316 164 -862 302 -1309 406 -1309 153 0 106 504 -104 1100 -231 658 -252 1191 -57 1456 115 155 169 169 270 69 99 -97 100 -152 7 -245 -151 -151 -159 -880 -9 -880 61 0 84 68 53 151 -80 208 111 674 256 626 77 -26 109 -238 92 -608 -17 -355 14 -569 81 -569 60 0 107 196 107 450 0 333 39 450 150 450 121 0 150 -160 150 -837 0 -461 26 -990 57 -1175 54 -320 49 -328 -100 -144 -86 107 -157 250 -157 319 0 68 -47 247 -104 397 -176 464 -297 149 -195 -511 50 -329 135 -878 187 -1220 66 -429 61 -733 -15 -983 -76 -247 -79 -415 -10 -529 63 -104 73 -467 26 -967 -41 -440 -78 -867 -83 -950 -4 -82 -117 -201 -251 -263 -239 -111 -241 -108 -89 124 195 297 289 1922 189 3254 l-71 955 -286 8 c-427 12 -528 -191 -527 -1056 1 -425 -18 -671 -42 -547 -53 275 -229 299 -229 31 0 -107 -40 -219 -90 -250 -145 -89 -217 236 -95 431 147 236 -243 2209 -470 2377 -85 63 -180 277 -213 475 -34 210 -115 361 -195 361 -177 0 -174 -61 63 -1450 239 -1399 246 -1600 43 -1225 -111 205 -225 275 -446 275 -163 0 -297 -45 -297 -100 0 -116 -266 -136 -335 -24 -26 41 -24 195 4 342 35 181 98 250 195 213 79 -30 231 24 339 121 153 139 184 264 143 587 -114 905 -283 1821 -366 1988 -59 117 -39 270 59 450 82 150 176 442 210 648 40 249 113 375 217 375 118 0 139 -56 84 -225z m-14150 25 c-137 -44 -317 -84 -400 -89 -133 -7 -133 3 0 89 83 53 263 93 400 89 l250 -9 -250 -80z m13354 -125 c-156 -502 -181 -704 -81 -642 65 40 124 -238 161 -760 53 -751 178 -1571 277 -1823 21 -55 -4 -122 -56 -150 -93 -48 -228 430 -458 1625 -77 399 -158 575 -263 575 -123 0 -138 81 -81 425 39 234 134 549 211 700 172 335 390 373 290 50z m-2078 -634 c22 -655 218 -1880 387 -2421 49 -155 41 -155 -91 5 -79 96 -174 175 -212 175 -37 0 -25 -79 25 -175 51 -96 165 -599 254 -1116 116 -678 258 -1120 511 -1579 192 -350 350 -714 350 -808 0 -253 556 -1385 940 -1913 319 -441 658 -1025 521 -898 -204 187 -1161 1543 -1161 1643 0 66 -242 587 -537 1158 -508 982 -716 1624 -823 2538 -26 220 -139 760 -252 1200 -245 957 -289 2725 -70 2863 72 46 132 84 132 85 0 1 12 -340 26 -757z m5168 669 c66 -107 -224 -234 -353 -154 -50 31 -91 98 -91 150 0 120 370 124 444 4z m-14652 -273 c23 -20 -166 -37 -419 -37 -254 0 -486 39 -515 88 -50 80 839 32 934 -51z m8898 -162 c-9 -304 -15 -309 -84 -75 -41 138 -56 284 -34 325 84 157 128 63 118 -250z m-10890 125 c0 -55 -45 -100 -100 -100 -55 0 -100 45 -100 100 0 55 45 100 100 100 55 0 100 -45 100 -100z m6400 -50 c0 -82 -45 -150 -100 -150 -55 0 -100 68 -100 150 0 83 45 150 100 150 55 0 100 -67 100 -150z m-5800 -50 c-196 -127 -328 -127 -250 0 34 55 138 99 231 98 146 -1 148 -14 19 -98z m2576 -42 c31 -32 -178 -58 -465 -58 -335 0 -500 37 -459 104 64 102 813 65 924 -46z m2624 -152 c0 -52 -45 -122 -100 -156 -55 -34 -100 8 -100 94 0 86 45 156 100 156 55 0 100 -42 100 -94z m850 -6 c-34 -55 -82 -100 -106 -100 -24 0 -44 45 -44 100 0 55 48 100 106 100 58 0 78 -45 44 -100z m-4150 -100 c0 -55 -124 -97 -275 -93 -244 6 -252 17 -75 93 273 117 350 117 350 0z m3460 -245 c-35 -140 -107 -255 -159 -255 -52 0 -69 79 -38 175 31 96 75 238 99 314 75 245 165 31 98 -234z m-4660 145 c0 -55 -155 -100 -344 -100 -189 0 -372 45 -406 100 -37 60 99 100 344 100 223 0 406 -45 406 -100z m11466 -225 c-28 -69 -50 -12 -50 125 0 138 22 194 50 125 28 -69 28 -181 0 -250z m-11166 125 c0 -55 -45 -100 -100 -100 -55 0 -100 45 -100 100 0 55 45 100 100 100 55 0 100 -45 100 -100z m5700 0 c0 -55 -48 -100 -106 -100 -58 0 -78 45 -44 100 34 55 82 100 106 100 24 0 44 -45 44 -100z m-11221 -125 c129 -157 45 -631 -140 -784 -113 -94 -139 -65 -139 153 0 148 48 367 106 488 93 193 81 190 -110 -30 -180 -208 -205 -326 -153 -718 37 -281 21 -495 -41 -532 -56 -35 -105 -27 -108 17 -3 45 -28 301 -54 570 -40 408 -11 529 173 725 253 270 321 286 466 111z m4096 -44 c-96 -25 -254 -25 -350 0 -96 25 -17 46 175 46 193 0 271 -21 175 -46z m8800 -276 c154 -47 320 -1 525 145 l300 213 109 -281 c60 -155 192 -844 294 -1532 293 -1982 378 -2411 749 -3763 372 -1359 389 -1395 1058 -2237 241 -302 744 -954 1119 -1448 1157 -1524 3338 -3933 3821 -4221 185 -110 178 -120 -100 -124 -396 -7 -1194 375 -1734 828 -239 201 -478 339 -530 306 -125 -77 -1132 974 -1302 1359 -73 165 -183 300 -244 300 -62 0 -257 259 -433 575 -177 316 -571 935 -877 1375 -1121 1610 -1591 2481 -2041 3780 -213 616 -388 1282 -389 1480 0 198 -118 671 -261 1050 -246 649 -631 2121 -637 2430 -2 116 29 114 173 -13 96 -84 276 -184 400 -222z m-2775 95 c0 -82 -44 -150 -97 -150 -53 0 -71 68 -39 150 31 83 75 150 97 150 21 0 39 -67 39 -150z m1400 -2 c0 -78 -61 -118 -135 -90 -96 37 -186 -128 -306 -553 -93 -333 -210 -605 -259 -605 -52 0 -53 115 -3 275 161 512 207 825 121 825 -47 0 -160 -270 -252 -600 -92 -330 -213 -600 -268 -600 -60 0 -75 109 -35 265 46 186 32 244 -48 194 -63 -39 -115 -133 -115 -209 0 -76 -45 -166 -100 -200 -60 -37 -100 97 -100 339 0 283 72 482 247 680 203 231 247 249 250 100 2 -99 49 -153 105 -118 56 35 75 105 44 156 -104 168 33 250 447 266 292 12 407 -24 407 -125z m223 -534 c-98 -289 -214 -490 -256 -447 -43 42 -118 12 -167 -67 -139 -225 -203 -71 -105 255 48 162 92 233 96 158 14 -212 309 67 309 291 0 286 118 518 214 422 49 -49 10 -313 -91 -612z m-2643 272 c37 -311 -138 -786 -290 -786 -86 0 -86 35 1 139 73 88 90 293 47 563 -54 340 -40 415 72 379 77 -26 153 -158 170 -295z m-3530 -10 c66 -66 -68 -76 -400 -29 -653 91 -811 246 -184 180 266 -28 529 -96 584 -151z m16450 124 c0 -55 -45 -100 -100 -100 -55 0 -100 45 -100 100 0 55 45 100 100 100 55 0 100 -45 100 -100z m800 0 c0 -55 -112 -100 -250 -100 -137 0 -250 45 -250 100 0 55 113 100 250 100 138 0 250 -45 250 -100z m-21700 -289 c0 -104 -75 -218 -167 -254 -120 -46 -136 -94 -57 -173 154 -154 -190 -511 -411 -426 -257 99 -198 522 110 794 332 292 525 314 525 59z m1000 89 c0 -55 -135 -100 -300 -100 -165 0 -300 45 -300 100 0 55 135 100 300 100 165 0 300 -45 300 -100z m14901 -253 c53 -138 142 -541 199 -894 56 -353 131 -723 166 -823 47 -133 33 -152 -53 -74 -64 59 -181 419 -261 800 -80 382 -174 818 -210 969 -82 345 30 361 159 22z m-13328 -439 c447 -73 629 -321 402 -547 -197 -197 -315 -208 -244 -23 59 153 -107 362 -288 362 -80 0 -95 -118 -46 -384 66 -359 45 -404 -324 -714 -304 -255 -412 -300 -476 -197 -46 74 -40 215 13 315 61 113 62 180 2 180 -53 0 -118 -56 -146 -125 -44 -111 -108 257 -78 450 7 41 -31 75 -84 75 -52 0 -109 -349 -125 -775 -30 -810 -75 -870 -504 -681 -135 60 -175 199 -175 615 0 521 -11 543 -350 685 -192 80 -350 178 -350 218 0 147 337 438 506 438 126 0 161 56 123 200 -57 218 204 290 328 89 49 -79 89 -76 142 10 56 91 149 81 383 -40 393 -203 418 -200 418 43 0 195 10 196 259 33 142 -93 418 -195 614 -227z m6187 119 c-101 -102 -185 51 -102 186 63 102 87 102 121 1 23 -70 15 -154 -19 -187z m6831 -417 c130 -622 70 -820 -74 -245 -207 826 -232 986 -135 885 53 -55 147 -343 209 -640z m5159 491 c68 -215 -4 -401 -156 -401 -52 0 -94 135 -94 300 0 339 154 402 250 101z m-13314 -151 c-31 -82 -75 -150 -97 -150 -21 0 -39 68 -39 150 0 83 44 150 97 150 53 0 71 -67 39 -150z m-3936 -50 c0 -55 -67 -100 -150 -100 -82 0 -150 45 -150 100 0 55 68 100 150 100 83 0 150 -45 150 -100z m4910 -162 c116 -140 108 -156 -63 -119 -108 23 -366 -63 -572 -190 -265 -164 -375 -192 -375 -97 0 73 191 226 425 338 234 113 431 211 438 218 7 6 73 -61 147 -150z m12041 -438 c182 -204 318 -754 164 -659 -63 39 -115 161 -115 272 0 111 -67 269 -150 351 -82 83 -144 271 -136 418 l13 268 46 -250 c25 -137 105 -317 178 -400z m649 394 c0 -52 -45 -94 -100 -94 -55 0 -100 70 -100 156 0 86 45 128 100 94 55 -34 100 -104 100 -156z m-22460 -205 c-187 -207 -112 -401 82 -207 161 161 278 148 278 -32 0 -82 -44 -150 -97 -150 -53 0 -158 -117 -233 -261 l-137 -260 -124 300 c-105 252 -99 351 37 614 90 172 209 285 265 250 63 -39 37 -135 -71 -254z m8360 111 c0 -55 -48 -100 -106 -100 -58 0 -78 45 -44 100 34 55 82 100 106 100 24 0 44 -45 44 -100z m185 -400 c-106 -303 -285 -498 -285 -311 0 167 226 611 311 611 43 0 32 -135 -26 -300z m3165 0 c-34 -55 -228 -96 -431 -90 -331 9 -344 18 -119 90 361 116 621 116 550 0z m10950 -56 c0 -24 -45 -44 -100 -44 -55 0 -100 48 -100 106 0 58 45 78 100 44 55 -34 100 -82 100 -106z m-340 -217 c-33 -33 -56 26 -52 131 5 117 28 141 60 61 29 -72 26 -159 -8 -192z m-20877 -15 c107 -67 100 -97 -34 -148 -184 -71 -349 -4 -349 142 0 116 205 120 383 6z m-492 -1363 c88 -721 97 -1101 29 -1169 -130 -130 -298 682 -367 1770 -76 1197 172 756 338 -601z m10709 1195 c0 -24 -70 -44 -156 -44 -86 0 -128 46 -93 102 57 92 249 48 249 -58z m5460 -117 c-33 -33 -56 26 -52 131 5 117 28 141 60 61 29 -72 26 -159 -8 -192z m-16501 -2127 c66 -496 58 -537 -86 -418 -295 243 -484 1759 -301 2418 68 245 121 -29 387 -2000z m14877 1850 c42 -108 -11 -150 -189 -150 -259 0 -336 147 -122 234 208 84 251 72 311 -84z m-14004 -225 c81 -467 24 -1256 -94 -1296 -116 -38 -338 680 -338 1095 0 228 163 476 312 476 40 0 94 -124 120 -275z m14747 -39 c-25 -75 -71 -29 -106 106 -43 166 -30 205 44 131 58 -58 86 -165 62 -237z m-13433 7 c-86 -139 -146 -113 -146 63 0 86 46 128 102 93 56 -35 75 -105 44 -156z m6604 107 c34 -56 -40 -99 -169 -98 -186 1 -202 20 -81 98 186 120 176 120 250 0z m2100 -100 c-278 -119 -550 -119 -550 0 0 55 169 97 375 93 301 -6 335 -24 175 -93z m5150 -1225 c0 -41 -38 -75 -84 -75 -135 0 -316 483 -311 830 4 302 15 292 200 -180 107 -275 195 -534 195 -575z m-6550 825 c34 -55 -6 -100 -88 -100 -83 0 -178 45 -212 100 -34 55 6 100 88 100 83 0 178 -45 212 -100z m1987 -125 c33 -124 62 -360 64 -525 4 -411 810 -1972 1091 -2113 374 -189 445 -310 661 -1125 221 -837 211 -1255 -18 -711 -205 488 -249 318 -79 -306 82 -300 218 -898 302 -1329 144 -740 562 -1805 755 -1924 126 -78 108 28 -62 357 -82 158 -120 366 -83 461 43 114 28 149 -46 103 -122 -75 -267 360 -470 1412 -95 494 -95 625 3 625 67 0 152 -169 187 -375 77 -447 357 -1125 465 -1125 43 0 131 -163 197 -362 84 -256 144 -323 202 -228 61 98 110 60 188 -144 282 -742 539 -1266 622 -1266 54 0 55 70 1 175 -407 790 -833 1925 -721 1925 51 0 120 -45 154 -100 34 -55 111 -100 171 -100 64 0 46 74 -42 175 -278 322 -657 1073 -616 1225 22 83 -12 50 -75 -72 -93 -177 -83 -271 48 -471 203 -310 213 -657 18 -657 -94 0 -219 248 -353 696 -114 383 -251 723 -304 756 -53 33 -97 181 -98 329 -1 148 -68 490 -150 760 -82 270 -149 557 -149 637 0 293 293 -88 356 -463 93 -553 156 -737 227 -666 35 36 143 -107 238 -317 l174 -382 -55 400 -55 400 204 -250 c112 -137 229 -363 260 -501 71 -314 648 -1335 716 -1267 28 28 -4 156 -72 284 -90 170 -37 142 191 -102 174 -184 316 -422 316 -528 0 -246 583 -1764 707 -1840 133 -83 125 -53 -206 765 l-300 739 254 -300 c647 -764 1343 -1713 1344 -1833 1 -94 85 -114 291 -69 231 51 358 4 625 -229 439 -382 1111 -719 1437 -719 451 0 1948 -378 1948 -492 0 -33 -204 -307 -454 -609 -755 -914 -2246 -3451 -2246 -3823 0 -243 -2516 59 -3577 431 -252 88 -361 86 -476 -10 -131 -108 -129 -138 20 -247 142 -104 80 -120 -371 -95 -297 16 -555 73 -573 127 -18 54 111 92 286 83 541 -26 425 181 -208 369 -479 142 -601 219 -601 381 0 115 -82 225 -188 253 -103 27 -237 156 -296 288 -107 233 -286 311 -842 367 l-275 27 303 639 c167 352 273 667 237 700 -37 34 -86 5 -111 -64 -25 -69 -87 -125 -139 -125 -291 0 284 2793 671 3264 l237 286 204 -250 c671 -823 955 -1375 1078 -2100 42 -248 120 -427 174 -400 290 149 -251 1738 -820 2408 -567 669 -823 1164 -881 1708 -127 1183 -283 1875 -429 1905 -95 19 -159 186 -184 479 -52 636 -126 900 -252 900 -67 0 -84 -99 -43 -262 161 -643 177 -838 69 -838 -62 0 -113 115 -113 257 0 395 -166 633 -399 572 -110 -29 -201 -120 -201 -203 0 -122 -28 -127 -150 -26 -82 68 -156 96 -162 62 -7 -34 -24 -107 -38 -162 -14 -55 -31 -206 -37 -336 -11 -195 -56 -228 -260 -189 -135 26 -274 133 -307 237 -33 105 -98 168 -144 139 -131 -80 -397 54 -504 253 -69 128 -38 367 103 814 110 347 248 1082 305 1632 109 1031 380 1715 771 1943 251 146 293 132 360 -118z m-937 25 c0 -55 -110 -100 -244 -100 -134 0 -272 45 -306 100 -36 58 66 100 244 100 168 0 306 -45 306 -100z m9481 -1250 c-4 -382 -8 -387 -81 -100 -42 165 -76 548 -76 850 l1 550 80 -450 c44 -247 78 -630 76 -850z m-12062 982 c-72 -29 -159 -26 -192 8 -33 33 26 56 131 52 117 -5 141 -28 61 -60z m501 -52 c-93 -93 -147 -93 -240 0 -93 93 -67 120 120 120 187 0 213 -27 120 -120z m1480 -83 c0 -67 -187 -80 -525 -37 -709 91 -724 140 -42 140 324 0 567 -44 567 -103z m8659 -551 c164 -469 176 -646 45 -646 -53 0 -165 233 -250 518 -184 618 -183 608 -43 562 60 -20 172 -215 248 -434z m-9236 137 c-86 -86 -176 -88 -345 -7 -214 104 -207 111 117 117 263 5 317 -21 228 -110z m-2273 -83 c-34 -55 -104 -100 -156 -100 -52 0 -94 45 -94 100 0 55 70 100 156 100 86 0 128 -45 94 -100z m5699 -1111 c70 -233 68 -234 -85 -39 -158 200 -158 200 -162 0 -4 -163 -22 -173 -98 -53 -58 92 -57 170 3 207 57 36 33 186 -62 377 -87 174 -128 366 -90 427 66 107 339 -402 494 -919z m-5330 743 c-72 -29 -159 -26 -192 8 -33 33 26 56 131 52 117 -5 141 -28 61 -60z m-919 -123 c0 -49 -90 -67 -200 -38 -110 29 -200 70 -200 91 0 21 90 38 200 38 110 0 200 -41 200 -91z m3100 -9 c0 -55 -110 -100 -244 -100 -134 0 -272 45 -306 100 -36 58 66 100 244 100 168 0 306 -45 306 -100z m-10100 -306 c0 -52 -45 -94 -100 -94 -55 0 -100 70 -100 156 0 86 45 128 100 94 55 -34 100 -104 100 -156z m7584 -52 c459 -52 353 -154 -128 -123 -301 19 -508 83 -535 166 -33 102 15 117 192 60 130 -42 342 -88 471 -103z m-1884 -92 c0 -82 -73 -150 -162 -150 -133 0 -140 27 -38 150 68 83 141 150 162 150 21 0 38 -67 38 -150z m4600 50 c0 -55 -48 -100 -106 -100 -58 0 -78 45 -44 100 34 55 82 100 106 100 24 0 44 -45 44 -100z m-3281 -308 c46 -136 2399 -281 2881 -177 367 79 662 -59 368 -172 -286 -109 -3090 123 -3468 288 -336 147 -339 153 -83 161 146 4 283 -41 302 -100z m-7336 -180 c107 -67 100 -97 -34 -148 -198 -76 -377 11 -295 143 71 114 156 116 329 5z m19947 -637 c32 -207 16 -375 -36 -375 -52 0 -94 56 -95 125 -1 69 -26 305 -57 525 -37 268 -24 350 38 250 51 -82 119 -319 150 -525z m-13305 459 c-69 -28 -181 -28 -250 0 -69 28 -12 50 125 50 138 0 194 -22 125 -50z m625 -134 c78 -127 -54 -127 -250 0 -129 84 -127 97 19 98 93 1 197 -43 231 -98z m9203 -409 c33 -105 145 -191 248 -191 103 0 208 -34 234 -76 49 -80 -211 -491 -263 -417 -262 370 -572 914 -572 1003 0 169 278 -82 353 -319z m-6658 220 c410 -6 702 -48 650 -93 -119 -103 -2545 -25 -2545 82 0 43 259 65 575 50 316 -16 910 -33 1320 -39z m-10431 -381 c-41 -41 -117 -8 -168 73 -154 243 -108 352 73 171 93 -93 136 -203 95 -244z m7486 270 c-34 -55 -82 -100 -106 -100 -24 0 -44 45 -44 100 0 55 48 100 106 100 58 0 78 -45 44 -100z m1775 -371 c-124 -23 -326 -23 -450 0 -124 24 -22 44 225 44 248 0 349 -20 225 -44z m1675 -29 c133 -86 133 -97 0 -97 -82 0 -217 44 -300 97 -133 86 -133 97 0 97 83 0 218 -44 300 -97z m-3525 -116 c-184 -67 -366 -67 -550 0 -242 88 -209 100 275 100 484 0 517 -12 275 -100z m10692 -610 c0 -128 505 -983 634 -1074 124 -87 416 -716 359 -774 -31 -30 -87 31 -125 135 -39 104 -99 212 -134 239 -223 174 -885 1214 -977 1535 -106 365 -102 376 66 224 97 -88 177 -216 177 -285z m-9442 255 c-124 -23 -326 -23 -450 0 -124 24 -22 44 225 44 248 0 349 -20 225 -44z m2275 -34 c0 -69 -212 -82 -625 -37 -836 92 -851 142 -42 142 399 0 667 -42 667 -105z m10600 -45 c0 -82 -44 -150 -97 -150 -53 0 -71 68 -39 150 31 83 75 150 97 150 21 0 39 -67 39 -150z m-14165 -49 c-118 -48 -242 -131 -275 -185 -68 -111 -460 -35 -460 89 0 88 302 163 700 175 238 7 240 3 35 -79z m8065 -57 c0 -86 -46 -128 -102 -93 -56 35 -75 105 -44 156 86 139 146 113 146 -63z m-6050 -244 c-34 -55 -385 -94 -781 -86 -619 12 -663 24 -319 86 629 113 1170 113 1100 0z m-2001 -102 c-35 -56 -105 -75 -156 -44 -139 86 -113 146 63 146 86 0 128 -46 93 -102z m6004 -701 l56 -347 -187 350 c-103 193 -168 388 -143 434 76 145 215 -77 274 -437z m-6603 211 c735 -149 1155 -381 936 -517 -88 -54 -17 -193 245 -484 433 -478 463 -666 119 -731 -137 -27 -250 -5 -250 49 0 53 -69 70 -154 37 -94 -36 -173 8 -205 115 -203 683 -847 1423 -1240 1423 -193 0 -100 -158 198 -333 326 -193 863 -838 772 -929 -31 -31 -128 81 -215 250 -87 168 -259 358 -382 422 -506 260 -865 596 -806 751 43 113 134 139 321 93 144 -36 441 -101 661 -146z m1800 92 c-34 -55 -217 -100 -406 -100 -189 0 -344 45 -344 100 0 55 183 100 406 100 245 0 381 -40 344 -100z m2550 -62 c0 -21 -112 -38 -250 -38 -137 0 -250 39 -250 86 0 48 113 65 250 38 138 -26 250 -65 250 -86z m1861 -91 c184 -281 123 -441 -98 -258 -168 140 -282 511 -156 511 49 0 163 -114 254 -253z m-2836 87 c-69 -28 -181 -28 -250 0 -69 28 -12 50 125 50 138 0 194 -22 125 -50z m425 -437 c-631 -65 -1029 -13 -723 95 90 32 424 38 743 13 l580 -45 -600 -63z m-300 -506 c0 -68 -63 -145 -139 -171 -90 -30 -112 -3 -62 78 59 96 -45 109 -461 56 -296 -38 -609 -88 -696 -113 -87 -24 -238 44 -336 152 -174 193 -164 195 759 159 659 -26 935 -73 935 -161z m750 -191 c119 -77 98 -97 -100 -97 -137 0 -317 44 -400 97 -119 77 -98 97 100 97 138 0 318 -44 400 -97z m-1181 -68 c-72 -29 -159 -26 -192 8 -33 33 26 56 131 52 117 -5 141 -28 61 -60z m3356 -226 c131 -3 225 -69 225 -156 0 -175 -16 -176 -566 -49 -317 73 -502 61 -772 -52 -418 -175 -496 -184 -412 -49 34 55 16 100 -40 100 -127 0 -827 -471 -938 -631 -54 -78 -72 -53 -52 70 16 104 120 238 230 298 110 60 313 177 450 261 356 216 684 284 1200 247 248 -18 551 -36 675 -39z m6925 -387 c0 -123 -36 -117 -200 31 -110 100 -200 248 -200 331 0 123 36 117 200 -31 110 -100 200 -248 200 -331z m439 -177 c94 -245 74 -277 -89 -142 -166 138 -199 300 -61 300 49 0 117 -71 150 -158z m-12685 -249 c87 -169 140 -360 118 -425 -41 -121 -372 437 -372 627 0 185 91 113 254 -202z m1238 -543 c1 -55 -87 6 -195 136 -108 130 -195 332 -193 450 4 174 40 148 196 -136 105 -192 192 -395 192 -450z m2244 651 c-118 -48 -287 -190 -375 -316 -125 -178 -161 -192 -161 -63 0 190 369 481 597 472 96 -4 73 -39 -61 -93z m-2022 -2271 c200 -274 395 -652 434 -839 90 -437 803 -1658 1042 -1786 197 -105 510 -684 510 -943 0 -203 -697 549 -1008 1088 -422 733 -1398 2594 -1599 3050 -109 248 -264 577 -345 733 -82 156 -144 381 -139 500 5 135 147 -71 375 -543 201 -418 530 -985 730 -1260z m1307 1145 c17 -261 -4 -475 -45 -475 -42 0 -70 304 -62 675 14 699 56 622 107 -200z m10700 77 c425 -410 953 -860 1175 -1000 426 -268 495 -396 264 -484 -87 -34 -597 385 -1325 1087 -652 627 -1117 1141 -1035 1141 83 1 497 -334 921 -744z m-12424 204 c-2 -58 -69 -19 -150 88 -81 107 -146 242 -144 300 2 58 69 19 150 -88 81 -107 146 -242 144 -300z m4303 94 c-129 -137 -257 -227 -284 -199 -28 27 55 162 184 299 129 137 257 227 284 199 28 -27 -55 -162 -184 -299z m-4850 -638 c109 -361 -110 -171 -244 213 -98 282 -94 305 30 175 78 -83 175 -257 214 -388z m686 238 c32 -82 14 -150 -39 -150 -53 0 -97 68 -97 150 0 83 18 150 39 150 22 0 66 -67 97 -150z m3221 -327 c-172 -165 -175 -163 -61 61 66 128 148 206 181 172 34 -33 -20 -138 -120 -233z m2141 25 c-70 -84 -153 -127 -184 -95 -32 32 8 100 89 151 212 134 239 117 95 -56z m-7515 -2759 c102 -1348 331 -2535 733 -3789 114 -357 260 -894 323 -1193 64 -298 172 -561 241 -584 122 -40 117 143 -32 1102 -24 151 -5 275 41 275 46 0 147 -301 226 -668 140 -656 329 -918 408 -563 23 101 75 -8 117 -244 43 -234 130 -425 194 -425 79 0 105 -184 80 -574 l-35 -575 -244 649 c-258 684 -387 882 -501 767 -38 -38 26 -305 143 -593 116 -288 256 -771 310 -1074 54 -302 212 -900 352 -1327 140 -428 306 -1170 369 -1650 68 -522 188 -979 298 -1137 121 -174 205 -533 246 -1050 35 -432 110 -882 167 -1000 74 -155 67 -323 -27 -600 l-131 -386 -185 1150 c-202 1256 -479 2508 -829 3750 -124 440 -322 1268 -440 1840 -119 572 -299 1224 -400 1450 -101 225 -275 612 -386 860 -483 1079 -1070 3500 -1212 5000 -98 1034 -159 2907 -105 3200 35 186 143 -829 279 -2611z m14447 2458 c231 -318 170 -316 -130 3 -129 138 -193 249 -142 247 50 -2 173 -114 272 -250z m-14217 -513 c49 -261 57 -634 18 -829 l-71 -355 -68 300 c-88 386 -111 1503 -30 1421 34 -34 102 -275 151 -537z m5132 257 c-88 -170 -185 -284 -216 -253 -57 57 235 562 326 562 28 0 -22 -139 -110 -309z m-1245 59 c0 -82 -18 -150 -39 -150 -22 0 -66 68 -97 150 -32 83 -14 150 39 150 53 0 97 -67 97 -150z m-5073 -723 c-33 -205 -140 -508 -238 -675 -98 -166 -256 -701 -351 -1188 -153 -782 -160 -1046 -55 -2250 178 -2059 469 -2933 699 -2096 l90 332 73 -400 c40 -220 136 -542 214 -715 166 -370 173 -435 49 -435 -51 0 -122 134 -158 299 -77 351 -227 477 -310 261 -77 -201 145 -860 311 -924 211 -81 518 -935 586 -1628 35 -353 37 -615 4 -582 -33 33 -168 434 -300 892 -169 589 -318 901 -510 1069 -209 184 -265 315 -247 583 23 339 -377 1352 -584 1480 -55 34 -100 286 -100 559 0 274 -73 665 -161 869 -100 230 -151 582 -135 922 15 302 32 663 39 800 20 451 935 3200 1064 3200 44 0 53 -168 20 -373z m5737 -402 c-34 -206 -62 -454 -63 -550 -1 -96 -41 -175 -90 -175 -129 0 -198 826 -83 975 189 245 299 129 236 -250z m-593 -350 c-24 -124 -44 -23 -44 225 0 248 20 349 44 225 23 -124 23 -326 0 -450z m-10721 425 c-34 -55 -138 -99 -231 -98 -146 1 -148 14 -19 98 196 127 328 127 250 0z m7983 -672 c199 -713 314 -2069 169 -1979 -56 35 -103 341 -104 682 -1 669 -48 797 -334 903 -135 49 -170 130 -127 292 33 123 61 350 62 505 2 426 154 242 334 -403z m15323 514 c178 -145 178 -153 11 -100 -101 32 -225 58 -275 58 -51 0 -92 45 -92 100 0 145 134 123 356 -58z m-22756 -42 c0 -55 -101 -99 -225 -98 -182 1 -196 20 -75 98 194 125 300 125 300 0z m-600 -200 c-197 -127 -500 -127 -500 0 0 55 146 99 325 98 247 -1 289 -24 175 -98z m1483 -225 c55 -179 123 -624 153 -990 30 -366 148 -1030 262 -1476 185 -727 257 -859 693 -1270 377 -356 501 -552 552 -871 82 -509 849 -1316 1158 -1218 248 79 525 -439 473 -881 l-37 -319 -125 317 c-119 300 -1394 1533 -1586 1533 -146 0 -939 1017 -1092 1400 -76 193 -181 424 -231 515 -86 153 -403 1280 -403 1430 0 37 50 36 111 -2 78 -48 87 31 32 269 -44 186 -87 496 -97 688 -10 193 -53 541 -95 775 -92 513 84 589 232 100z m556 -33 c34 -87 58 -323 55 -525 -5 -288 -24 -324 -87 -167 -156 385 -224 850 -126 850 54 0 125 -71 158 -158z m499 -354 c81 -408 79 -739 -4 -656 -97 97 -214 968 -131 968 40 0 100 -141 135 -312z m2856 -794 c-72 -486 -172 -858 -222 -827 -99 62 -32 705 153 1468 177 730 217 359 69 -641z m1880 881 c140 -177 229 -1350 138 -1825 l-76 -400 -115 550 c-283 1357 -261 2072 53 1675z m3586 -248 c-33 -33 -56 26 -52 131 5 117 28 141 60 61 29 -72 26 -159 -8 -192z m2206 -152 c-28 -69 -50 -12 -50 125 0 138 22 194 50 125 28 -69 28 -181 0 -250z m-9973 -306 c4 -99 -38 -153 -93 -119 -55 34 -97 205 -93 381 6 269 21 288 93 119 47 -110 89 -281 93 -381z m6453 43 c-79 -78 -346 214 -344 375 2 122 51 100 193 -86 105 -136 173 -266 151 -289z m1993 38 c49 -219 40 -260 -34 -150 -56 83 -103 236 -103 342 -3 256 55 176 137 -192z m-7939 -156 c0 -52 -45 -94 -100 -94 -55 0 -100 70 -100 156 0 86 45 128 100 94 55 -34 100 -104 100 -156z m800 6 c0 -55 -48 -100 -106 -100 -58 0 -78 45 -44 100 34 55 82 100 106 100 24 0 44 -45 44 -100z m7355 -624 c38 -179 200 -490 358 -690 377 -479 366 -599 -20 -230 -286 274 -793 1140 -793 1356 0 234 390 -141 455 -436z m-12195 -36 c-36 -93 -87 -146 -115 -119 -27 28 -21 126 15 219 36 93 87 146 115 119 27 -28 21 -126 -15 -219z m2900 -13 c-33 -33 -56 26 -52 131 5 117 28 141 60 61 29 -72 26 -159 -8 -192z m721 -352 c59 -234 132 -695 161 -1025 l53 -600 -183 350 c-101 193 -210 575 -241 850 -31 275 -87 579 -125 675 -45 118 -20 175 80 175 91 0 190 -165 255 -425z m7419 -458 c-142 -48 -692 574 -692 783 0 84 177 -46 404 -297 232 -257 355 -464 288 -486z m-9534 256 c-28 -68 -49 12 -47 177 3 165 25 220 50 123 26 -97 24 -232 -3 -300z m1631 27 c0 -133 -11 -133 -97 0 -53 83 -97 218 -97 300 0 133 11 133 97 0 53 -82 97 -217 97 -300z m3003 -238 c0 -76 68 -194 150 -262 173 -144 214 -1249 50 -1350 -55 -34 -105 42 -111 169 -24 481 -80 777 -183 969 -134 251 -138 612 -6 612 55 0 100 -62 100 -138z m5596 -534 c5 -159 -264 -55 -335 130 -30 78 -27 215 7 304 52 135 84 122 194 -75 72 -130 133 -292 134 -359z m-8455 -270 c61 -250 50 -275 -75 -171 -178 148 -298 581 -203 735 74 119 150 -35 278 -564z m7719 -17 c165 -393 170 -441 49 -441 -49 0 -160 204 -244 453 -175 512 -20 503 195 -12z m12632 227 c-23 -18 -199 -137 -392 -265 l-350 -232 250 258 c138 143 314 262 392 265 78 3 123 -9 100 -26z m-22322 -473 c-40 -153 8 -230 187 -298 133 -50 309 -65 392 -33 83 31 151 11 151 -45 0 -145 -153 -179 -606 -136 -403 39 -482 171 -333 559 89 233 271 192 209 -47z m22430 49 c0 -24 -45 -44 -100 -44 -55 0 -100 48 -100 106 0 58 45 78 100 44 55 -34 100 -82 100 -106z m-21781 -12 c-72 -29 -159 -26 -192 8 -33 33 26 56 131 52 117 -5 141 -28 61 -60z m21235 -326 c-82 -133 -657 -437 -715 -378 -49 49 693 564 746 517 19 -18 5 -80 -31 -139z m-13921 -778 c34 -263 85 -590 113 -728 29 -137 -9 -70 -82 150 -194 578 -294 1180 -185 1113 51 -32 120 -272 154 -535z m-6891 308 c34 -91 50 -177 35 -193 -63 -62 -1483 -70 -1544 -9 -37 36 213 66 553 66 459 0 635 39 678 150 75 197 199 191 278 -14z m9178 -105 c160 -153 280 -375 280 -517 l0 -249 -226 213 c-221 207 -517 822 -396 822 34 0 187 -121 342 -269z m3980 -32 c0 -44 -90 -57 -200 -28 -205 54 -279 -110 -100 -221 55 -34 100 -104 100 -156 0 -144 -261 -112 -394 49 -95 114 -77 186 85 348 189 189 509 194 509 8z m-8753 -641 c13 -358 -15 -628 -62 -599 -47 29 -85 350 -85 714 0 840 117 750 147 -115z m-2542 185 c173 -251 287 -484 255 -517 -33 -32 -74 -41 -90 -18 -17 23 -152 192 -300 375 -237 292 -356 617 -225 617 25 0 187 -206 360 -457z m13346 255 c35 -56 105 -75 157 -43 131 81 492 -46 492 -173 0 -58 -95 -81 -210 -50 -221 57 -690 -108 -690 -243 0 -44 73 -120 163 -170 228 -128 36 -214 -242 -109 -218 82 -221 99 -75 383 175 338 187 407 73 407 -45 0 -158 -160 -251 -355 -94 -196 -214 -328 -269 -294 -146 90 -123 192 108 486 209 265 624 355 744 161z m-1851 -98 c0 -55 -45 -100 -100 -100 -55 0 -100 45 -100 100 0 55 45 100 100 100 55 0 100 -45 100 -100z m786 11 c95 -61 102 -106 24 -155 -139 -86 -510 24 -510 151 0 116 304 119 486 4z m-13711 -286 c26 -78 -54 -125 -214 -125 -189 0 -239 40 -195 155 68 177 347 157 409 -30z m16705 75 c330 0 349 -14 206 -157 -142 -142 -194 -142 -522 -5 -347 145 -536 349 -206 223 87 -34 322 -61 522 -61z m-17880 -100 c-198 -128 -1000 -128 -1000 0 0 55 257 99 575 98 408 -1 531 -29 425 -98z m18700 0 c0 -55 -67 -100 -150 -100 -82 0 -150 45 -150 100 0 55 68 100 150 100 83 0 150 -45 150 -100z m-13050 -500 c0 -275 -30 -500 -67 -500 -107 0 -204 576 -134 798 112 352 201 220 201 -298z m6509 238 c-51 -134 -92 -145 -186 -51 -95 95 -89 141 25 212 186 115 245 56 161 -161z m2594 81 c-31 -30 -112 0 -180 69 -98 98 -86 110 56 56 99 -38 154 -94 124 -125z m-6587 -346 c-28 -68 -49 12 -47 177 3 165 25 220 50 123 26 -97 24 -232 -3 -300z m8234 233 c0 -183 -167 -372 -253 -287 -68 69 72 481 165 481 48 0 88 -87 88 -194z m-14497 -343 c-52 -52 -195 -5 -342 111 -329 258 -231 357 142 143 167 -96 251 -203 200 -254z m16597 226 c0 -49 -112 -89 -250 -89 -260 0 -343 151 -125 227 161 56 375 -23 375 -138z m-19600 -36 c0 -26 -94 -227 -208 -446 -115 -220 -180 -446 -144 -503 35 -57 -6 -104 -92 -104 -221 0 -196 362 52 763 178 288 392 446 392 290z m425 -19 c-69 -28 -181 -28 -250 0 -69 28 -12 50 125 50 138 0 194 -22 125 -50z m700 0 c-69 -28 -181 -28 -250 0 -69 28 -12 50 125 50 138 0 194 -22 125 -50z m7735 -407 c-33 -33 -56 26 -52 131 5 117 28 141 60 61 29 -72 26 -159 -8 -192z m10537 177 c81 -51 118 -122 83 -158 -88 -87 -480 44 -480 161 0 119 207 117 397 -3z m-18441 -251 c178 -134 146 -147 -381 -150 -613 -3 -792 157 -250 225 179 22 350 47 381 56 31 9 143 -50 250 -131z m1124 27 c93 -93 120 -93 120 0 0 66 71 120 158 120 87 0 140 -56 118 -125 -23 -70 -248 -138 -509 -155 -369 -25 -467 2 -467 125 0 186 404 211 580 35z m1320 20 c0 -55 -138 -100 -306 -100 -178 0 -280 42 -244 100 34 55 172 100 306 100 134 0 244 -45 244 -100z m3393 -850 c58 -220 151 -467 208 -550 88 -128 132 -116 301 86 168 201 198 209 198 58 0 -98 64 -249 141 -336 78 -87 167 -383 198 -658 l57 -500 -148 450 c-250 762 -233 737 -399 599 -279 -232 -134 -1577 200 -1850 268 -219 797 -2819 733 -3602 -31 -390 -37 -383 -307 403 -151 441 -275 919 -275 1063 0 144 -67 453 -150 687 -82 234 -150 594 -150 800 0 206 -67 564 -149 796 -81 231 -200 721 -263 1087 -62 367 -242 1050 -399 1517 -237 707 -252 808 -92 600 105 -137 239 -430 296 -650z m4625 528 c-71 -71 -118 -77 -118 -15 0 134 118 252 185 185 28 -28 -2 -105 -67 -170z m4175 8 c-89 -165 -133 -183 -197 -79 -103 166 -32 293 163 293 120 0 126 -40 34 -214z m-11993 14 c0 -55 -48 -100 -106 -100 -58 0 -78 45 -44 100 34 55 82 100 106 100 24 0 44 -45 44 -100z m13100 12 c0 -48 -67 -144 -150 -212 -163 -135 -183 -103 -89 142 64 167 239 219 239 70z m-5097 -457 c-196 -317 -403 -466 -403 -289 0 117 519 749 572 696 28 -28 -48 -211 -169 -407z m4597 398 c0 -175 -637 -1377 -674 -1273 -25 72 -1 252 54 400 54 149 154 416 222 595 67 179 184 325 260 325 76 0 138 -21 138 -47z m926 -28 c21 -41 -40 -345 -136 -675 -96 -330 -178 -521 -182 -425 -15 320 -189 181 -254 -202 -35 -207 -106 -444 -157 -525 -200 -315 -95 186 216 1042 289 791 413 982 513 785z m-14229 -229 c-192 -122 -569 -127 -442 -6 107 102 470 193 542 136 26 -20 -19 -79 -100 -130z m-614 -45 c28 -28 -135 -51 -360 -51 -226 0 -442 50 -480 111 -47 77 60 92 360 50 236 -33 452 -82 480 -110z m-1164 -119 c-72 -29 -159 -26 -192 8 -33 33 26 56 131 52 117 -5 141 -28 61 -60z m2281 -32 c0 -55 -93 -100 -206 -100 -113 0 -178 45 -144 100 34 55 127 100 206 100 79 0 144 -45 144 -100z m12697 -671 c-248 -630 -359 -800 -457 -702 -35 35 84 358 265 718 181 360 350 634 375 608 25 -25 -57 -306 -183 -624z m1885 421 c-134 -293 -282 -328 -282 -67 0 217 84 317 265 317 103 0 107 -52 17 -250z m1360 89 c87 -33 158 -126 158 -206 0 -79 -42 -119 -94 -87 -51 32 -130 -5 -175 -81 -44 -77 -328 -264 -631 -416 -302 -153 -623 -361 -712 -463 -89 -102 -212 -186 -275 -186 -62 0 -113 -90 -113 -200 0 -110 -40 -200 -89 -200 -49 0 -119 -163 -157 -362 -37 -200 -216 -579 -398 -843 -182 -265 -413 -709 -513 -988 -100 -279 -239 -507 -308 -507 -69 0 -153 -169 -187 -375 -33 -206 -103 -479 -155 -605 -51 -127 -65 -408 -31 -625 43 -264 26 -395 -49 -395 -62 0 -113 -44 -113 -97 0 -53 74 -68 164 -34 112 43 149 19 116 -78 -25 -78 -118 -155 -205 -172 -120 -23 -188 110 -277 542 -192 922 22 2012 429 2191 152 67 497 638 1083 1793 792 1561 890 1708 1250 1875 214 99 525 267 690 373 344 221 377 229 592 146z m-18317 -138 c516 -1 875 -42 875 -101 0 -115 -504 -126 -1675 -35 -454 36 -825 109 -825 163 0 58 154 73 375 36 206 -34 769 -62 1250 -63z m2739 -179 c-76 -122 -1614 -102 -1614 21 0 52 270 85 600 73 330 -11 667 24 749 78 164 108 359 -19 265 -172z m1690 34 c149 -150 220 -307 182 -406 -54 -141 -90 -134 -289 53 -246 231 -389 597 -233 597 52 0 205 -110 340 -244z m9692 37 c-86 -139 -146 -113 -146 63 0 86 46 128 102 93 56 -35 75 -105 44 -156z m2111 -714 c-188 -268 -197 -167 -35 371 112 374 123 382 156 126 19 -150 -35 -374 -121 -497z m6161 432 c-84 -52 -108 -182 -68 -370 61 -290 61 -290 -79 -54 -108 181 -115 292 -31 470 73 154 144 199 209 134 66 -66 55 -127 -31 -180z m-421 -403 c-2 -112 -75 -76 -250 123 -322 366 -320 572 3 269 138 -129 249 -306 247 -392z m-21772 292 c705 0 784 -18 673 -152 -82 -100 -199 -128 -337 -82 -116 39 -545 74 -953 77 -542 5 -754 45 -788 147 -36 109 25 126 279 75 179 -36 686 -65 1126 -65z m2242 -166 c-75 -75 -873 -61 -950 16 -28 27 190 50 483 50 293 0 503 -30 467 -66z m325 -1934 c-74 -1545 -277 -3100 -404 -3100 -91 0 -43 790 103 1700 58 358 137 1280 176 2050 40 801 97 1272 132 1100 34 -165 31 -952 -7 -1750z m12976 1425 c-69 -655 -245 -1225 -378 -1225 -49 0 -90 79 -90 175 -1 223 413 1625 479 1625 27 0 22 -259 -11 -575z m3495 -483 c153 -1205 212 -1394 585 -1882 273 -358 346 -580 486 -1484 211 -1353 218 -1976 21 -1976 -171 0 -228 301 -289 1516 -43 869 -109 1131 -262 1036 -46 -28 -44 -220 4 -426 48 -207 88 -787 90 -1289 2 -821 22 -919 197 -965 115 -30 221 -170 256 -336 34 -158 104 -365 156 -461 52 -97 117 -783 144 -1525 26 -743 98 -1564 158 -1825 61 -261 106 -1008 102 -1659 -5 -651 32 -1259 81 -1351 49 -92 102 -369 117 -616 16 -247 202 -958 415 -1579 222 -650 404 -1394 428 -1750 23 -341 90 -845 149 -1120 138 -641 298 -3734 207 -3981 -39 -105 -120 376 -184 1097 -210 2347 -513 4298 -817 5253 -485 1528 -605 2217 -659 3813 -87 2505 -281 4176 -630 5418 -109 385 -250 1105 -315 1600 -160 1213 -191 1350 -305 1350 -90 0 -147 -940 -99 -1650 35 -525 -124 -181 -298 646 -106 501 -132 810 -69 831 128 43 -1 573 -140 573 -57 0 -73 -50 -35 -111 38 -61 8 -149 -65 -194 -110 -68 -113 -188 -13 -670 66 -323 121 -684 121 -803 0 -119 96 -400 213 -624 160 -308 198 -512 155 -830 -32 -231 -16 -600 36 -819 59 -250 57 -754 -3 -1349 -57 -561 -67 -1994 -24 -3500 40 -1402 50 -2887 21 -3300 l-52 -750 -80 1150 c-102 1482 -113 5523 -17 6526 83 862 -45 2000 -354 3147 -107 397 -195 839 -195 981 0 586 -382 845 -619 421 -122 -219 -127 -215 -178 125 -34 221 -108 350 -203 350 -175 1 -195 1017 -53 2674 71 836 102 949 215 800 120 -159 132 -153 135 73 l3 248 150 -215 c114 -163 126 -279 50 -479 -239 -629 3 -2951 307 -2951 133 0 114 275 -58 841 -260 856 -101 2726 242 2839 115 39 129 -76 79 -641 -66 -745 74 -1602 416 -2539 159 -436 216 -511 274 -361 42 111 -2 380 -107 650 -325 837 -430 1606 -320 2342 60 401 145 660 209 638 59 -19 159 -437 221 -927z m-20463 574 c-308 -44 -365 -132 -448 -686 -74 -493 84 -1111 334 -1311 151 -121 148 -143 -31 -276 -108 -80 -250 -268 -317 -419 -74 -166 -125 -210 -130 -111 -4 90 -98 187 -208 216 -130 34 -199 135 -197 287 3 207 15 214 105 59 120 -206 377 -231 449 -43 28 72 -18 262 -101 422 -100 194 -130 422 -89 679 44 276 22 414 -78 479 -115 76 -109 109 36 195 96 57 175 192 175 301 0 219 360 402 600 305 105 -43 74 -72 -100 -97z m1600 -278 c0 -186 -39 -338 -86 -338 -48 0 -64 115 -37 256 38 199 2 268 -164 312 -299 78 -267 215 37 156 208 -39 250 -104 250 -386z m19300 217 c0 -134 113 -456 250 -715 267 -502 314 -740 145 -740 -65 0 -79 -131 -38 -350 87 -465 -83 -450 -290 25 -196 452 -410 1667 -331 1876 91 236 264 173 264 -96z m-18766 -230 c-194 -468 -198 -473 -256 -250 -68 257 88 625 264 625 129 0 128 -47 -8 -375z m436 -111 c-32 -274 -14 -530 43 -587 55 -55 85 -297 67 -538 l-33 -439 -123 400 c-158 514 -165 1650 -10 1650 77 0 95 -155 56 -486z m330 380 c0 -58 -45 -78 -100 -44 -55 34 -100 82 -100 106 0 24 45 44 100 44 55 0 100 -48 100 -106z m400 -139 c0 -80 -54 -264 -119 -408 -93 -203 -93 -305 0 -453 152 -245 165 -1080 13 -928 -243 243 -234 1934 11 1934 52 0 95 -65 95 -145z m400 -5 c0 -82 0 -172 0 -200 0 -27 -34 -47 -75 -43 -41 4 -129 -120 -195 -275 -152 -355 -168 -71 -20 353 114 327 290 427 290 165z m-3100 -330 c0 -154 54 -334 121 -401 95 -95 73 -169 -100 -342 l-221 -221 0 432 c0 344 -31 422 -150 376 -180 -69 -200 146 -30 316 208 208 380 135 380 -160z m700 53 c0 -59 -30 -77 -66 -41 -36 37 -126 16 -200 -45 -102 -85 -134 -76 -134 34 0 80 27 173 60 205 86 87 340 -28 340 -153z m17132 -773 c-125 -838 -101 -2833 37 -3110 137 -274 222 -1090 115 -1090 -40 0 -102 203 -139 450 -69 460 -245 626 -245 232 0 -207 49 -421 452 -1971 112 -429 132 -659 62 -703 -58 -35 -155 -490 -217 -1011 -177 -1495 -299 -2016 -234 -997 179 2773 87 4280 -268 4372 -221 58 -343 499 -189 685 66 80 131 654 155 1365 23 675 62 1352 88 1503 33 197 4 275 -101 275 -188 0 -193 161 -7 233 77 29 172 200 212 380 68 311 78 317 216 131 111 -149 126 -321 63 -744z m-2077 -25 c-7 -454 -56 -825 -109 -825 -110 0 -186 1078 -100 1421 121 483 222 195 209 -596z m-14924 215 c69 -262 -20 -510 -166 -462 -95 32 -118 199 -76 572 20 180 186 105 242 -110z m699 -779 c-14 -22 -94 17 -178 87 -184 153 -193 343 -28 634 116 203 128 186 177 -232 30 -247 42 -468 29 -489z m1670 683 c0 -113 -45 -178 -100 -144 -55 34 -100 127 -100 206 0 79 45 144 100 144 55 0 100 -93 100 -206z m3303 -619 c3 -567 66 -997 203 -1375 325 -896 465 -1505 531 -2300 93 -1136 268 -1565 204 -500 -67 1091 111 870 201 -250 55 -693 38 -832 -125 -1039 l-189 -239 -69 789 c-68 782 -295 1879 -607 2939 -461 1566 -556 2212 -391 2642 142 370 239 102 242 -667z m-7003 469 c0 -145 -43 -229 -100 -194 -55 34 -100 149 -100 256 0 107 45 194 100 194 55 0 100 -115 100 -256z m21737 -742 c145 -219 263 -527 263 -685 0 -158 109 -492 241 -741 249 -469 454 -1576 291 -1576 -104 0 -759 1765 -982 2646 -228 906 -206 949 187 356z m-4137 -858 c0 -574 -41 -1044 -92 -1044 -167 0 -244 1479 -114 2181 3 17 51 3 106 -31 56 -35 100 -518 100 -1106z m-16776 634 c-104 -214 -111 -207 -117 117 -5 263 21 317 110 228 86 -86 88 -176 7 -345z m1247 -303 c-24 -124 -44 -22 -44 225 0 248 20 349 44 225 23 -124 23 -326 0 -450z m-459 400 c7 -69 3 -373 -8 -677 -17 -488 118 -1792 259 -2498 37 -185 25 -211 -45 -100 -174 274 -470 2416 -433 3125 15 270 204 395 227 150z m-1303 -383 c-90 -227 -97 -221 -103 103 -4 237 26 313 97 242 68 -68 70 -185 6 -345z m3084 -436 c-4 -168 -46 -396 -93 -506 -69 -160 -87 -123 -93 181 -4 209 -47 356 -97 325 -49 -30 -117 17 -150 105 -37 95 -125 135 -218 100 -111 -43 -146 -10 -121 114 20 97 110 163 200 147 90 -15 197 26 237 90 113 184 343 -198 335 -556z m6205 419 c-1 -176 -21 -193 -93 -80 -50 80 -70 181 -42 225 86 141 137 86 135 -145z m4458 -320 c-38 -250 -110 -455 -162 -455 -118 0 -118 17 19 560 142 564 233 497 143 -105z m3004 272 c-33 -33 -56 26 -52 131 5 117 28 141 60 61 29 -72 26 -159 -8 -192z m-1806 -402 c-20 -261 -40 -599 -45 -750 -5 -151 -52 -275 -104 -275 -88 0 -58 725 53 1275 79 389 134 245 96 -250z m-15419 -863 c8 -579 -15 -1021 -51 -982 -80 85 -124 760 -101 1562 28 967 135 556 152 -580z m17265 888 c0 -137 -45 -250 -100 -250 -112 0 -137 330 -33 433 110 111 133 79 133 -183z m-15032 -375 l18 -525 -103 376 c-87 316 -66 674 39 674 15 0 36 -236 46 -525z m20687 -126 c367 -533 373 -556 187 -693 -178 -131 -196 -117 -249 185 -31 179 -158 491 -283 692 -357 578 -76 428 345 -184z m-21589 -549 c65 -357 119 -785 120 -950 l1 -300 -101 250 c-114 280 -388 1627 -383 1884 6 348 244 -231 363 -884z m1592 -500 c84 -302 199 -632 254 -733 85 -155 65 -178 -131 -150 -204 29 -239 106 -300 657 -38 343 -89 756 -115 918 -26 162 -17 324 19 361 36 36 77 -62 92 -218 15 -157 96 -532 181 -835z m14342 583 c0 -284 -17 -498 -37 -475 -85 97 -131 992 -51 992 49 0 88 -232 88 -517z m-18134 92 c-28 -69 -50 -12 -50 125 0 138 22 194 50 125 28 -69 28 -181 0 -250z m4306 -549 c-23 -152 -43 -51 -43 224 -1 275 18 399 41 276 24 -123 25 -348 2 -500z m5599 -251 c-24 -124 -44 -22 -44 225 0 248 20 349 44 225 23 -124 23 -326 0 -450z m7738 -546 c126 -1438 110 -2629 -34 -2631 -89 -1 -84 -27 15 -90 113 -71 84 -142 -146 -354 -237 -220 -261 -282 -140 -361 122 -79 109 -123 -82 -271 -179 -140 -201 -203 -105 -299 97 -97 79 -123 -86 -123 -115 0 -232 58 -259 129 -108 281 26 1072 285 1679 315 741 351 1312 147 2352 -120 613 -120 732 3 867 228 249 319 46 402 -898z m-15811 -210 c1 -135 -41 -204 -102 -166 -57 35 -76 153 -41 263 36 113 1 270 -81 366 -218 255 -271 481 -142 610 88 88 146 0 240 -363 68 -264 125 -583 126 -710z m9802 572 c0 -177 -42 -277 -100 -241 -55 34 -100 149 -100 256 0 127 -69 194 -200 194 -221 0 -272 157 -75 228 242 87 475 -128 475 -437z m8360 136 c-33 -33 -56 26 -52 131 5 117 28 141 60 61 29 -72 26 -159 -8 -192z m-1805 -3407 c46 -2577 32 -3520 -50 -3520 -72 0 -107 207 -97 575 8 316 -16 1722 -54 3124 -61 2243 -24 3504 100 3380 22 -21 67 -1623 101 -3559z m-17889 2955 c-28 -69 -50 -12 -50 125 0 138 22 194 50 125 28 -69 28 -181 0 -250z m3034 -145 c0 -186 -32 -238 -103 -167 -57 57 -75 179 -40 270 93 242 143 205 143 -103z m6560 -3 c-33 -33 -56 26 -52 131 5 117 28 141 60 61 29 -72 26 -159 -8 -192z m-8731 -127 c29 -110 11 -225 -38 -256 -50 -31 -91 59 -91 200 0 307 57 331 129 56z m3271 -300 c0 -220 -45 -400 -100 -400 -55 0 -100 90 -100 200 0 139 -69 202 -225 206 l-225 7 215 86 c118 48 244 135 281 194 116 188 154 117 154 -293z m9704 -757 c-225 -913 -500 -1681 -575 -1605 -45 44 308 1670 470 2162 204 622 229 664 274 475 23 -97 -53 -561 -169 -1032z m-13704 813 c0 -134 -45 -272 -100 -306 -58 -36 -100 66 -100 244 0 168 45 306 100 306 55 0 100 -110 100 -244z m9367 -1218 c29 -178 -11 -435 -95 -600 -81 -158 -248 -806 -372 -1438 -124 -632 -293 -1283 -375 -1445 -157 -306 -638 -1873 -892 -2901 -81 -328 -192 -666 -246 -750 -142 -220 -24 576 215 1446 315 1148 591 2557 637 3250 27 391 127 808 252 1046 115 218 209 466 210 550 0 85 88 287 195 449 164 249 188 423 151 1100 l-43 805 155 -600 c86 -330 179 -740 208 -912z m9793 1089 c-33 -33 -56 26 -52 131 5 117 28 141 60 61 29 -72 26 -159 -8 -192z m-7960 26 c0 -367 -351 -1728 -503 -1953 -93 -137 -230 -430 -305 -650 -107 -314 -143 -354 -170 -183 -18 119 129 610 329 1092 199 482 388 1093 420 1359 31 265 96 482 143 482 47 0 86 -66 86 -147z m5320 -173 c-64 -64 -150 -83 -190 -43 -41 41 -9 114 70 163 187 115 271 31 120 -120z m-14565 12 c42 -69 -773 -207 -838 -142 -20 20 -7 86 31 146 70 114 736 111 807 -4z m1045 8 c0 -55 -45 -100 -100 -100 -55 0 -100 45 -100 100 0 55 45 100 100 100 55 0 100 -45 100 -100z m-2365 -347 c70 -184 -117 -311 -255 -173 -107 107 -30 320 115 320 46 0 109 -66 140 -147z m15915 47 c-34 -55 -82 -100 -106 -100 -24 0 -44 45 -44 100 0 55 48 100 106 100 58 0 78 -45 44 -100z m-13970 -152 c511 -13 959 -53 995 -89 35 -36 -492 -53 -1172 -37 -949 21 -1247 60 -1283 167 -36 109 17 122 242 61 158 -43 706 -89 1218 -102z m13603 -242 c69 -199 70 -305 1 -328 -56 -19 -142 -251 -192 -517 -123 -661 -495 -1891 -554 -1832 -63 63 143 1289 321 1914 78 271 141 620 141 775 0 368 153 361 283 -12z m-14883 -189 c0 -45 -135 -63 -300 -38 -165 24 -300 61 -300 82 0 22 135 39 300 39 165 0 300 -37 300 -83z m2077 -137 c-61 -182 -542 -275 -1090 -210 -544 65 -559 115 -67 231 539 128 1202 116 1157 -21z m523 -167 c0 -159 -28 -429 -62 -600 -62 -306 -76 -313 -621 -313 -633 0 -608 168 33 218 l400 32 30 475 c33 508 220 668 220 188z m8466 -140 c-28 -68 -49 12 -47 177 3 165 25 220 50 123 26 -97 24 -232 -3 -300z m4234 171 c0 -32 -88 -268 -195 -525 -108 -258 -243 -649 -300 -869 -127 -486 -345 -841 -277 -450 36 202 264 1138 433 1775 32 121 339 183 339 69z m-15500 -203 c221 -91 258 -125 100 -94 -137 28 -329 51 -425 52 -96 0 -175 46 -175 101 0 127 68 119 500 -59z m9211 -170 c-81 -81 -111 -70 -111 42 0 199 134 334 184 185 21 -64 -12 -166 -73 -227z m7658 -447 c-25 -96 -45 6 -44 226 1 220 22 298 46 174 24 -125 23 -305 -2 -400z m-14840 365 c-78 -78 -322 -82 -845 -13 l-734 97 845 14 c617 9 815 -17 734 -98z m-865 -366 c-76 -123 -1864 -151 -1864 -29 0 67 351 106 956 106 526 0 934 -35 908 -77z m359 -387 c533 -88 362 -236 -273 -236 -296 0 -563 -41 -594 -91 -66 -107 -456 -23 -456 98 0 248 590 350 1323 229z m-1650 -105 c-97 -26 -232 -24 -300 3 -68 28 12 49 177 47 165 -3 220 -25 123 -50z m2527 -231 c116 -75 87 -97 -131 -98 -162 -1 -255 40 -219 98 77 124 158 124 350 0z m6460 -1112 c-136 -461 -380 -1226 -543 -1699 -162 -474 -327 -1014 -365 -1200 -39 -187 -202 -615 -364 -953 -262 -548 -427 -1161 -633 -2361 -35 -206 -106 -375 -157 -375 -51 0 -71 124 -44 275 27 151 113 662 192 1134 122 727 885 3494 1142 4141 179 449 948 1947 982 1913 20 -20 -74 -414 -210 -875z m11109 337 c-25 -96 -46 -18 -46 175 0 193 21 271 46 175 25 -96 25 -254 0 -350z m1597 48 c-28 -68 -49 12 -47 177 3 165 25 220 50 123 26 -97 24 -232 -3 -300z m-19066 232 c0 -160 -669 -233 -1481 -163 -520 44 -1017 18 -1534 -81 -769 -148 -1185 -125 -1185 65 0 64 187 80 500 43 366 -44 534 -22 625 82 97 110 457 142 1600 145 873 2 1475 -35 1475 -91z m16610 -1221 c-82 -274 -93 -199 -61 416 48 910 75 995 124 384 21 -257 -8 -617 -63 -800z m1225 969 c31 -81 13 -173 -39 -206 -53 -32 -96 34 -96 147 0 242 56 266 135 59z m-17900 -306 c-36 -94 -207 -151 -471 -158 -228 -6 -774 -36 -1214 -67 -1439 -101 -2018 -57 -1821 140 34 34 771 79 1637 101 866 21 1618 81 1670 133 132 132 268 30 199 -149z m13023 140 c39 -62 -6 -156 -100 -208 -137 -77 -146 -123 -45 -245 100 -120 96 -169 -19 -249 -110 -77 -114 -112 -19 -151 169 -69 159 -234 -14 -234 -185 0 -261 221 -261 758 0 371 31 442 194 442 107 0 226 -51 264 -113z m616 -56 c-93 -93 -197 -141 -232 -107 -98 99 53 276 235 276 153 0 153 -13 -3 -169z m-6939 -506 c-34 -261 -187 -868 -341 -1347 -153 -480 -328 -1110 -389 -1400 -120 -573 -256 -860 -360 -757 -36 36 -28 125 17 197 45 73 94 208 109 301 14 93 93 363 176 600 83 237 150 521 150 631 1 193 614 2250 671 2250 15 0 0 -214 -33 -475z m6990 103 c-69 -25 -125 -86 -125 -136 0 -51 56 -92 125 -92 94 0 119 -278 101 -1122 -24 -1098 -206 -1939 -583 -2685 -71 -142 -157 -567 -190 -946 -32 -379 -96 -713 -141 -743 -45 -30 -87 -121 -94 -204 -7 -82 -59 -397 -117 -700 -149 -777 -194 -2557 -79 -3150 53 -275 169 -556 257 -625 94 -74 111 -125 40 -125 -65 0 -119 -67 -119 -150 0 -83 34 -150 75 -150 41 0 85 -142 97 -314 12 -173 92 -391 178 -486 85 -94 161 -331 168 -526 10 -267 50 -342 159 -300 120 46 126 18 35 -152 -139 -259 -143 -353 -12 -272 55 34 100 14 100 -44 0 -58 -48 -106 -107 -106 -61 0 -79 -85 -43 -200 52 -165 18 -200 -193 -200 -207 0 -257 49 -257 247 0 135 -64 394 -141 575 -444 1033 -867 4040 -635 4510 54 109 54 290 -1 450 -214 627 215 2874 800 4196 171 386 218 738 256 1938 45 1372 61 1471 259 1562 117 54 235 74 262 46 28 -28 -6 -71 -75 -96z m-12865 -301 c-33 -33 -56 26 -52 131 5 117 28 141 60 61 29 -72 26 -159 -8 -192z m17036 -3195 c8 -2645 -87 -3624 -233 -2383 -86 735 -73 5708 15 5796 154 154 209 -716 218 -3413z m396 2315 c0 -635 24 -1192 53 -1239 70 -113 41 -3195 -40 -4158 -24 -292 -27 -294 -94 -51 -38 137 -63 1307 -54 2600 8 1293 -12 2722 -46 3176 -45 613 -30 825 60 825 88 0 121 -317 121 -1153z m-19723 944 c79 -79 166 -79 314 0 224 120 643 139 991 46 364 -97 152 -237 -360 -237 -261 0 -526 -52 -590 -116 -87 -87 -153 -84 -271 13 -94 79 -288 107 -497 73 -376 -61 -756 7 -756 136 0 45 191 100 425 121 234 21 472 46 530 56 58 9 154 -32 214 -92z m12 -692 c457 -49 896 -63 975 -33 222 85 170 -145 -59 -268 -277 -148 -1155 -87 -1122 77 16 80 -96 125 -311 125 -601 0 -1261 123 -1199 224 35 56 235 69 473 30 226 -37 786 -107 1243 -155z m21045 -713 c82 -365 113 -723 68 -795 -44 -72 -62 -162 -39 -198 63 -103 325 -1807 269 -1751 -27 27 -160 378 -296 779 -195 574 -251 957 -265 1801 -20 1160 32 1192 263 164z m-6626 714 c0 -55 -42 -100 -94 -100 -52 0 -122 45 -156 100 -34 55 8 100 94 100 86 0 156 -45 156 -100z m-16525 -139 c-241 -183 -219 -261 75 -261 138 0 250 -49 250 -108 0 -93 -569 -42 -684 62 -115 104 128 446 316 443 202 -3 206 -13 43 -136z m20185 -334 c-33 -33 -56 26 -52 131 5 117 28 141 60 61 29 -72 26 -159 -8 -192z m-3660 73 c0 -55 -45 -100 -100 -100 -55 0 -100 45 -100 100 0 55 45 100 100 100 55 0 100 -45 100 -100z m-13084 -424 c-134 -134 -794 -192 -866 -76 -31 50 -448 70 -928 45 -480 -25 -1049 -18 -1265 16 l-393 63 373 128 c304 104 557 103 1392 -9 1429 -191 1543 -186 1634 82 67 199 80 204 116 39 22 -102 -6 -231 -63 -288z m6880 -567 c-119 -390 -256 -734 -306 -765 -136 -84 -110 94 100 677 105 291 224 664 266 829 50 196 90 243 116 134 21 -91 -58 -485 -176 -875z m-6025 66 c-24 -124 -44 -22 -44 225 0 248 20 349 44 225 23 -124 23 -326 0 -450z m12229 519 c0 -58 -45 -78 -100 -44 -55 34 -100 82 -100 106 0 24 45 44 100 44 55 0 100 -48 100 -106z m3660 -267 c-33 -33 -56 26 -52 131 5 117 28 141 60 61 29 -72 26 -159 -8 -192z m-2262 -496 c1 -176 -43 -347 -98 -381 -62 -38 -99 140 -98 469 1 380 29 488 98 381 53 -82 98 -294 98 -469z m-14701 265 c-81 -51 -271 -94 -422 -94 -151 -1 -275 -47 -275 -102 0 -125 -368 -133 -444 -9 -31 49 -326 66 -656 36 -526 -48 -600 -33 -600 121 0 157 76 169 725 113 399 -34 950 -26 1225 20 540 88 680 62 447 -85z m-2697 -196 c0 -55 -45 -100 -100 -100 -55 0 -100 45 -100 100 0 55 45 100 100 100 55 0 100 -45 100 -100z m7624 -250 c-26 -137 -65 -250 -86 -250 -21 0 -38 113 -38 250 0 138 39 250 86 250 48 0 65 -112 38 -250z m-6525 -1002 c-106 -127 -499 -90 -499 47 0 137 106 176 355 129 189 -37 224 -79 144 -176z m1574 12 c35 -35 15 -112 -44 -171 -72 -72 -333 -80 -793 -26 -391 46 -568 96 -411 116 151 19 275 82 275 141 0 111 855 59 973 -60z m14477 -1785 c0 -1217 -38 -1865 -113 -1945 -137 -146 -237 -1200 -256 -2709 -8 -620 -50 -1092 -95 -1047 -120 120 -118 2731 2 3046 125 326 354 3183 284 3546 -40 211 82 934 158 934 11 0 20 -821 20 -1825z m-13084 1400 c-28 -69 -50 -12 -50 125 0 138 22 194 50 125 28 -69 28 -181 0 -250z m5063 126 c-28 -109 -94 -173 -145 -141 -55 34 -46 116 23 199 158 190 184 178 122 -58z m-5469 -908 c6 -520 -25 -851 -73 -775 -104 164 -115 1682 -12 1682 41 -1 80 -409 85 -907z m3561 507 c-47 -323 -221 -417 -221 -120 0 139 169 420 253 420 7 0 -7 -135 -32 -300z m-4571 100 c34 -55 -8 -100 -94 -100 -86 0 -156 45 -156 100 0 55 42 100 94 100 52 0 122 -45 156 -100z m-1587 -525 c-33 -124 -61 -306 -62 -406 0 -99 -46 -153 -101 -119 -55 34 -100 217 -100 406 0 250 44 344 162 344 119 0 145 -60 101 -225z m898 -350 c-177 -1531 -256 -2425 -258 -2950 -2 -316 -48 -575 -103 -575 -55 0 -100 225 -100 500 0 375 -37 500 -148 500 -82 0 -176 -112 -211 -250 -101 -402 -241 -288 -241 197 0 338 34 434 137 394 97 -37 128 16 104 178 -18 127 -66 456 -107 731 l-74 500 -60 -450 -60 -450 -82 483 c-87 504 -45 603 296 706 188 56 204 19 200 -461 -3 -434 28 -529 185 -560 158 -32 179 7 133 247 -90 463 144 1835 312 1835 116 0 131 -111 77 -575z m14505 148 c-28 -68 -49 12 -47 177 3 165 25 220 50 123 26 -97 24 -232 -3 -300z m-16324 -276 c-56 -488 -37 -637 98 -786 92 -101 212 -467 268 -813 102 -631 40 -1292 -106 -1133 -108 117 -502 2143 -502 2580 0 195 -47 355 -104 355 -70 0 -69 64 4 200 59 110 175 200 258 200 127 0 140 -101 84 -603z m2558 -443 c0 -926 -22 -1059 -190 -1149 -139 -74 -208 -261 -260 -703 -113 -975 -216 -604 -129 466 44 540 106 1308 138 1707 50 627 84 725 250 725 176 0 191 -82 191 -1046z m20613 647 c38 -183 34 -428 -9 -542 -62 -168 -99 -105 -190 321 -141 654 -141 646 8 596 68 -23 154 -191 191 -375z m-22047 -126 c-28 -69 -50 -12 -50 125 0 138 22 194 50 125 28 -69 28 -181 0 -250z m-844 -500 c-95 -198 -108 -170 -108 225 0 395 13 423 108 225 78 -162 78 -288 0 -450z m16236 -927 c-84 -481 -134 -907 -110 -945 24 -38 -22 -313 -102 -611 -104 -388 -127 -791 -81 -1417 41 -567 28 -875 -38 -875 -55 0 -123 191 -149 425 -50 444 -9 2365 64 2980 50 423 349 1601 442 1744 135 207 122 -453 -26 -1301z m4953 383 c-82 -142 -103 -62 -98 369 8 548 8 549 106 181 66 -250 64 -427 -8 -550z m-17951 -204 c-33 -33 -56 26 -52 131 5 117 28 141 60 61 29 -72 26 -159 -8 -192z m16940 -2777 c0 -1779 -34 -2650 -105 -2650 -70 0 -101 720 -94 2175 6 1196 -20 2389 -59 2650 -58 401 -44 475 94 475 148 0 164 -263 164 -2650z m393 2125 c-4 -179 -46 -415 -93 -525 -63 -147 -88 -61 -93 325 -4 289 38 525 93 525 55 0 97 -146 93 -325z m-18293 -875 c0 -400 -43 -700 -100 -700 -57 0 -100 300 -100 700 0 400 43 700 100 700 57 0 100 -300 100 -700z m14700 290 c0 -54 -87 -192 -194 -306 l-194 -208 53 237 c96 432 133 500 234 437 56 -34 101 -106 101 -160z m6190 -365 c-8 -387 -25 -429 -90 -225 -116 361 -116 700 0 700 55 0 96 -214 90 -475z m-7590 -81 c0 -141 -41 -231 -91 -200 -49 31 -67 146 -38 256 72 275 129 251 129 -56z m-10628 -1206 c-34 -692 -105 -1208 -175 -1275 -90 -86 -105 -42 -63 187 30 165 84 739 120 1275 35 536 90 975 120 975 31 0 30 -523 -2 -1162z m16916 837 c-17 -474 -133 -941 -204 -825 -88 143 24 1150 129 1150 48 0 82 -146 75 -325z m-21375 -202 c-167 -167 -261 -1 -106 186 94 112 148 126 176 43 22 -66 -10 -169 -70 -229z m-513 -179 c0 -113 -43 -179 -96 -147 -52 33 -70 125 -39 206 79 207 135 183 135 -59z m4155 -1972 c-125 -126 -147 79 -78 734 l73 694 30 -687 c16 -378 5 -711 -25 -741z m17963 1053 c25 -450 13 -544 -152 -1225 l-146 -600 -9 550 c-12 739 97 1600 203 1600 47 0 94 -146 104 -325z m-7531 -525 c-10 -385 -13 -389 -87 -100 -42 165 -81 413 -87 550 -8 196 11 218 87 100 53 -82 92 -330 87 -550z m370 -1522 c41 -254 24 -428 -46 -471 -75 -47 -111 77 -111 379 0 246 -26 530 -58 631 -49 157 -43 161 47 23 57 -87 133 -340 168 -562z m7366 -553 c46 -1048 34 -1272 -61 -1167 -92 103 -172 2292 -83 2292 52 0 117 -506 144 -1125z m-5825 494 c1 -44 -43 -53 -98 -19 -55 34 -99 138 -98 231 1 146 14 148 98 19 53 -82 98 -186 98 -231z m4468 6 c-28 -69 -50 -12 -50 125 0 138 22 194 50 125 28 -69 28 -181 0 -250z m900 -602 c-28 -68 -49 12 -47 177 3 165 25 220 50 123 26 -97 24 -232 -3 -300z m-16369 -173 c0 -133 -11 -133 -97 0 -53 83 -97 218 -97 300 0 133 11 133 97 0 53 -82 97 -217 97 -300z m15474 -325 c-24 -124 -44 -22 -44 225 0 248 20 349 44 225 23 -124 23 -326 0 -450z m-21371 434 c-237 -137 -1068 -248 -950 -128 96 98 315 148 850 193 184 15 210 -2 100 -65z m600 -70 c0 -21 -93 -39 -206 -39 -113 0 -179 43 -147 96 54 86 353 38 353 -57z m21800 -589 c0 -321 -63 -321 -124 0 -27 138 -10 250 38 250 47 0 86 -112 86 -250z m-22250 50 c38 -61 -116 -100 -394 -100 -251 0 -456 45 -456 100 0 55 177 100 394 100 217 0 422 -45 456 -100z m16861 -729 c-81 -81 -109 -6 -103 284 8 391 9 392 111 111 73 -201 71 -316 -8 -395z m-17711 329 c0 -55 -45 -100 -100 -100 -55 0 -100 45 -100 100 0 55 45 100 100 100 55 0 100 -45 100 -100z m16066 -225 c-28 -69 -50 -12 -50 125 0 138 22 194 50 125 28 -69 28 -181 0 -250z"/>
<path d="M19000 42344 c0 -147 531 -1127 755 -1394 284 -339 238 -81 -64 356 -98 140 -253 444 -345 675 -92 230 -208 419 -257 419 -49 0 -89 -25 -89 -56z"/>
<path d="M20601 45825 c90 -459 684 -1725 808 -1725 164 0 96 274 -246 987 -185 387 -361 796 -391 908 -97 373 -249 222 -171 -170z"/>
<path d="M21456 43978 c-179 -256 -210 -1033 -45 -1135 77 -47 89 27 42 245 -51 230 -14 401 139 649 114 185 208 365 208 400 0 141 -198 49 -344 -159z"/>
<path d="M4870 44777 c-62 -458 2 -656 96 -298 31 122 97 221 146 221 48 0 88 113 88 250 0 432 -268 291 -330 -173z"/>
<path d="M15062 39919 c-65 -105 213 -992 334 -1066 78 -49 -144 1028 -229 1114 -26 25 -73 4 -105 -48z"/>
<path d="M14832 39240 c35 -214 222 -879 416 -1476 193 -598 352 -1278 352 -1512 0 -425 552 -1834 671 -1714 33 33 -59 341 -205 686 -145 344 -281 806 -302 1026 -45 488 -241 1290 -418 1713 -72 172 -186 589 -252 927 -135 686 -365 994 -262 350z"/>
<path d="M13100 38256 c0 -24 45 -72 100 -106 55 -34 100 -14 100 44 0 58 -45 106 -100 106 -55 0 -100 -20 -100 -44z"/>
<path d="M16200 38050 c0 -82 45 -150 100 -150 55 0 100 68 100 150 0 83 -45 150 -100 150 -55 0 -100 -67 -100 -150z"/>
<path d="M17684 36150 c-104 -103 49 -521 641 -1752 304 -631 585 -1260 626 -1398 84 -287 236 -500 357 -500 45 0 20 124 -57 275 -524 1029 -1387 2923 -1439 3158 -35 155 -93 253 -128 217z"/>
<path d="M16900 35232 c0 -343 959 -2532 1109 -2532 52 0 11 169 -91 375 -102 206 -335 758 -517 1225 -322 826 -501 1158 -501 932z"/>
<path d="M16654 34607 c-31 -51 -12 -121 44 -156 56 -35 102 7 102 93 0 176 -60 202 -146 63z"/>
<path d="M19299 34153 c188 -495 508 -1053 603 -1053 129 0 126 171 -4 251 -56 35 -214 285 -352 556 -263 521 -405 662 -247 246z"/>
<path d="M18012 33750 c115 -275 265 -545 333 -600 225 -181 463 -733 347 -805 -66 -41 -25 -123 107 -216 118 -82 236 -127 263 -100 62 62 -342 893 -690 1421 -498 754 -576 819 -360 300z"/>
<path d="M19100 33858 c0 -139 404 -949 505 -1011 66 -41 102 -35 78 14 -24 49 -144 303 -268 564 -194 412 -315 577 -315 433z"/>
<path d="M17256 32971 c38 -99 94 -154 125 -124 30 31 0 112 -69 180 -98 98 -110 86 -56 -56z"/>
<path d="M18606 31950 c-3 -239 157 -520 246 -431 35 35 -6 191 -90 347 -127 234 -154 249 -156 84z"/>
<path d="M8100 37712 c0 -55 45 -128 100 -162 55 -34 100 -17 100 38 0 55 -45 128 -100 162 -55 34 -100 17 -100 -38z"/>
<path d="M8623 36900 c126 -202 277 -267 277 -120 0 104 -217 320 -321 320 -44 0 -24 -90 44 -200z"/>
<path d="M3618 8650 c-12 -275 -46 -612 -76 -750 -48 -213 -39 -224 56 -75 62 97 96 432 76 750 l-36 575 -20 -500z"/>
<path d="M1450 47729 c-285 -69 -388 -193 -216 -259 81 -31 226 30 322 137 96 106 157 188 134 181 -22 -6 -130 -33 -240 -59z"/>
<path d="M1957 47643 c-238 -238 -188 -300 68 -85 124 105 244 202 267 216 23 14 -8 26 -68 26 -60 0 -180 -71 -267 -157z"/>
<path d="M550 47518 c-294 -57 -551 -319 -546 -558 4 -187 20 -180 151 61 88 162 204 250 286 219 76 -30 171 -1 211 64 56 89 91 88 148 -4 41 -67 98 -83 127 -36 82 135 -157 296 -377 254z"/>
<path d="M0 45600 c0 -625 2 -629 200 -450 110 100 200 302 200 450 0 148 -90 350 -200 450 -198 179 -200 175 -200 -450z"/>
<path d="M9432 45050 c-10 -193 24 -350 75 -350 51 0 94 56 94 125 1 69 29 226 62 350 41 153 17 225 -76 225 -86 -1 -144 -131 -155 -350z"/>
<path d="M9158 45113 c-43 -69 -51 -153 -18 -186 89 -90 187 42 139 187 -34 101 -58 101 -121 -1z"/>
<path d="M8900 44650 c0 -82 45 -150 100 -150 55 0 100 68 100 150 0 83 -45 150 -100 150 -55 0 -100 -67 -100 -150z"/>
<path d="M8927 43740 c33 -34 120 -37 192 -8 80 32 56 55 -61 60 -105 4 -164 -19 -131 -52z"/>
<path d="M8668 43394 c-214 -250 -211 -294 20 -294 105 0 212 89 241 200 73 279 -61 327 -261 94z"/>
<path d="M258 43412 c-82 -131 101 -761 306 -1059 182 -264 169 -119 -51 586 -105 336 -215 539 -255 473z"/>
<path d="M8250 42800 c34 -55 127 -100 206 -100 79 0 144 45 144 100 0 55 -93 100 -206 100 -113 0 -178 -45 -144 -100z"/>
<path d="M0 41173 c0 -144 48 -291 107 -327 156 -97 239 29 116 177 -58 70 -106 165 -106 210 0 46 -27 110 -59 142 -32 32 -58 -59 -58 -202z"/>
<path d="M6561 40542 c-94 -245 -74 -277 89 -142 166 138 199 300 61 300 -49 0 -117 -71 -150 -158z"/>
<path d="M6997 40446 c-174 -209 -29 -321 165 -127 93 94 117 182 59 218 -54 33 -155 -7 -224 -91z"/>
<path d="M6300 40000 c0 -55 45 -100 100 -100 55 0 100 45 100 100 0 55 -45 100 -100 100 -55 0 -100 -45 -100 -100z"/>
<path d="M6780 39880 c93 -93 147 -93 240 0 93 93 67 120 -120 120 -187 0 -213 -27 -120 -120z"/>
<path d="M6599 39651 c68 -82 168 -121 223 -87 60 37 46 95 -36 147 -216 137 -322 103 -187 -60z"/>
<path d="M6100 39615 c0 -117 342 -415 477 -415 255 0 203 195 -91 342 -367 183 -386 187 -386 73z"/>
<path d="M6200 39106 c0 -139 184 -228 311 -149 77 47 69 94 -25 154 -179 113 -286 111 -286 -5z"/>
<path d="M6044 38653 c235 -185 388 -198 332 -28 -23 69 -151 138 -284 153 -234 27 -236 23 -48 -125z"/>
<path d="M3200 35800 c0 -55 45 -100 100 -100 55 0 100 45 100 100 0 55 -45 100 -100 100 -55 0 -100 -45 -100 -100z"/>
<path d="M2751 35602 c-35 -56 7 -102 93 -102 176 0 202 60 63 146 -51 31 -121 12 -156 -44z"/>
<path d="M1157 34548 c-106 -80 -166 -172 -134 -204 68 -69 477 171 477 280 0 115 -128 86 -343 -76z"/>
<path d="M2020 33880 c-191 -191 -139 -294 80 -157 202 126 267 277 120 277 -44 0 -134 -54 -200 -120z"/>
<path d="M2750 33500 c-34 -55 8 -100 94 -100 86 0 156 45 156 100 0 55 -42 100 -94 100 -52 0 -122 -45 -156 -100z"/>
<path d="M3149 33399 c-99 -110 -152 -230 -116 -266 73 -73 467 250 467 382 0 146 -162 93 -351 -116z"/>
<path d="M3607 33259 c-158 -191 -111 -285 83 -165 74 46 116 138 94 205 -30 88 -80 76 -177 -40z"/>
<path d="M3965 33217 c-202 -223 -209 -317 -26 -317 77 0 167 70 200 156 33 86 97 133 144 105 46 -29 84 13 84 93 0 202 -203 183 -402 -37z"/>
<path d="M4577 32962 c-96 -73 -146 -159 -112 -193 80 -81 435 110 435 235 0 131 -116 116 -323 -42z"/>
<path d="M5300 32703 c0 -53 -63 -73 -140 -43 -77 29 -167 9 -201 -46 -95 -152 331 -247 496 -110 188 156 185 296 -5 296 -82 0 -150 -44 -150 -97z"/>
<path d="M0 32400 c0 -137 67 -200 211 -200 142 0 192 47 155 144 -30 78 -1 165 65 192 65 26 -5 52 -156 56 -211 6 -275 -39 -275 -192z"/>
<path d="M5470 32347 c-151 -208 -155 -247 -28 -247 131 0 358 280 358 443 0 131 -162 34 -330 -196z"/>
<path d="M122 31094 c-128 -409 -162 -768 -65 -671 111 111 331 973 259 1017 -39 24 -127 -131 -194 -346z"/>
<path d="M1203 29200 c-181 -357 -357 -673 -391 -700 -287 -231 -530 -790 -619 -1425 -179 -1276 -205 -1646 -101 -1425 52 110 97 283 101 384 4 101 212 611 462 1133 251 522 500 1064 554 1206 200 526 -182 36 -411 -527 -121 -300 -264 -546 -316 -546 -143 0 -2 389 343 950 601 976 791 1351 749 1475 -24 69 -191 -167 -371 -525z"/>
<path d="M23 27800 c0 -192 21 -271 46 -175 25 96 25 254 0 350 -25 96 -46 18 -46 -175z"/>
<path d="M21372 26767 c-111 -283 -93 -428 37 -298 61 61 93 193 72 295 -36 179 -39 179 -109 3z"/>
<path d="M13973 25507 c-528 -530 -1373 -2130 -1373 -2598 0 -155 93 -362 210 -468 l210 -190 -70 464 c-52 350 -25 559 111 849 330 705 819 1481 1181 1874 343 370 444 570 283 555 -41 -4 -290 -223 -552 -486z"/>
<path d="M23425 25733 c-181 -126 -254 -133 -374 -34 -121 100 -161 92 -213 -44 -121 -315 131 -417 515 -210 417 224 642 458 434 450 -75 -3 -238 -76 -362 -162z"/>
<path d="M21900 25306 c0 -175 402 -378 652 -330 344 66 311 224 -46 224 -162 0 -322 45 -356 100 -78 127 -250 131 -250 6z"/>
<path d="M12015 10575 c-137 -443 -315 -1886 -315 -2558 0 -349 -55 -612 -150 -717 -91 -101 -174 -474 -214 -958 -35 -435 -108 -848 -162 -918 -108 -136 -114 -2967 -10 -4499 111 -1628 216 -990 160 975 -46 1649 -34 1900 97 1900 151 0 209 -515 339 -2991 21 -408 68 -768 103 -800 36 -32 29 773 -15 1791 -44 1018 -80 1998 -81 2179 -1 249 -38 315 -149 272 -128 -49 -140 128 -92 1286 40 952 101 1412 208 1578 99 152 176 623 220 1335 38 605 130 1370 206 1700 164 717 166 750 48 750 -51 0 -138 -146 -193 -325z"/>
<path d="M13829 8925 c-11 -701 -65 -1657 -120 -2125 -55 -467 -153 -1425 -218 -2129 -173 -1863 24 -4671 328 -4671 57 0 78 101 47 225 -120 486 -259 2360 -220 2975 130 2063 272 3840 357 4482 157 1185 110 2518 -90 2518 -34 0 -72 -574 -84 -1275z"/>
<path d="M12498 9925 c-1 -189 -145 -1954 -270 -3325 -43 -467 -68 -1277 -56 -1800 12 -522 21 -1816 19 -2875 -1 -1073 38 -1925 88 -1925 130 0 240 4007 113 4159 -114 137 -59 1248 165 3326 167 1561 185 2615 43 2615 -55 0 -101 -79 -102 -175z"/>
<path d="M11553 9775 c-22 -69 -152 -552 -289 -1075 -137 -522 -390 -1355 -564 -1850 -287 -822 -381 -1229 -587 -2550 -39 -248 -109 -513 -156 -588 -113 -184 -179 -3712 -69 -3712 149 0 212 576 213 1938 0 721 47 1481 104 1687 58 207 122 499 143 650 171 1225 271 1683 529 2425 596 1715 959 3200 781 3200 -35 0 -83 -56 -105 -125z"/>
<path d="M17 9435 c19 -100 118 -199 218 -218 132 -25 173 16 148 148 -19 100 -118 199 -218 218 -132 25 -173 -16 -148 -148z"/>
<path d="M0 8868 c0 -194 384 -324 528 -180 135 135 94 178 -253 265 -211 53 -275 33 -275 -85z"/>
<path d="M67 8233 c-37 -36 -62 -273 -55 -525 l12 -458 83 497 c85 508 77 603 -40 486z"/>
<path d="M14587 8250 c-271 -428 -451 -4225 -212 -4465 100 -100 125 1 125 505 0 347 49 1268 109 2046 108 1402 100 2107 -22 1914z"/>
<path d="M14891 5981 c-5 -17 -21 -807 -37 -1754 -26 -1604 139 -4054 283 -4197 163 -164 178 164 63 1391 -68 731 -125 2039 -126 2906 0 868 -40 1602 -88 1631 -47 30 -90 40 -95 23z"/>
<path d="M2128 4492 c31 -225 81 -435 114 -467 126 -126 175 81 109 468 -91 541 -295 540 -223 -1z"/>
<path d="M175 4731 c-124 -32 -172 -138 -163 -363 l12 -318 76 300 76 300 12 -319 c19 -515 212 -503 212 13 0 251 -11 451 -25 444 -14 -6 -104 -32 -200 -57z"/>
<path d="M2920 4450 c0 -193 41 -376 90 -406 50 -31 90 127 90 350 0 223 -40 406 -90 406 -49 0 -90 -158 -90 -350z"/>
<path d="M571 4570 c-64 -168 188 -770 322 -770 57 0 133 119 169 264 l67 263 183 -238 184 -239 2 425 c2 365 -27 425 -207 425 -126 0 -231 -80 -262 -200 -68 -259 -229 -259 -229 0 0 224 -152 270 -229 70z"/>
<path d="M1701 4575 c3 -245 124 -575 211 -575 101 0 117 309 27 542 -72 188 -240 211 -238 33z"/>
<path d="M2602 4425 c-1 -179 43 -325 98 -325 127 0 127 303 0 500 -74 114 -97 72 -98 -175z"/>
<path d="M10656 4575 c-20 -69 -70 -215 -112 -325 -41 -110 -108 -942 -150 -1850 -42 -907 -110 -1825 -150 -2038 -59 -307 -46 -379 62 -343 214 71 376 1204 377 2638 1 718 32 1472 70 1675 64 340 -11 529 -97 243z"/>
<path d="M14269 3236 c-86 -86 -89 -2002 -4 -2711 52 -436 96 -525 262 -525 175 0 191 45 132 375 -36 206 -93 893 -126 1525 -58 1130 -126 1474 -264 1336z"/>
<path d="M5318 1680 c-202 -1224 -244 -1735 -134 -1630 101 97 357 2142 278 2222 -22 21 -86 -245 -144 -592z"/>
<path d="M10808 158 c-4 -105 19 -164 52 -131 34 33 37 120 8 192 -32 80 -55 56 -60 -61z"/>
</g>
</svg>